<?xml version="1.0" encoding="UTF-8"?>
<!DOCTYPE svg PUBLIC "-//W3C//DTD SVG 1.1//EN" "http://www.w3.org/Graphics/SVG/1.1/DTD/svg11.dtd">
<svg version="1.1" xmlns="http://www.w3.org/2000/svg" xmlns:xlink="http://www.w3.org/1999/xlink" x="0" y="0" width="50" height="50" viewBox="0, 0, 50, 50">
  <g id="Page-1">
    <path d="M7.368,50 C3.305,50 -0,46.696 -0,42.634 L-0,7.368 C-0,3.305 3.305,-0 7.368,-0 L42.632,-0 C46.695,-0 50,3.305 50,7.368 L50,42.634 C50,46.696 46.695,50 42.632,50 L7.368,50 L7.368,50 L7.368,50 L7.368,50 z" fill="#87B2CA" fill-opacity="0.8" id="TransitionFrame"/>
    <g id="direction">
      <path d="M17.08,44.3 C15.36,44.3 13.814,43.57 12.491,42.137 C11.037,40.572 10.392,38.916 10.566,37.227 C10.856,34.416 13.344,32.617 13.451,32.537 L21.155,26.516 C21.658,26.175 22.123,25.665 22.125,25.468 L22.125,25.199 C22.098,25.018 21.622,24.497 21.184,24.185 L13.417,18.118 C13.343,18.065 10.855,16.263 10.566,13.457 C10.39,11.764 11.036,10.11 12.491,8.542 C13.815,7.108 15.36,6.379 17.08,6.379 C19.779,6.379 21.888,8.214 21.978,8.296 L38.943,21.563 C39.057,21.662 40.394,22.938 40.394,25.211 L40.394,25.472 C40.394,27.742 39.055,29.018 38.999,29.072 L21.941,42.418 C21.888,42.462 19.776,44.3 17.08,44.3 L17.08,44.3 L17.08,44.3 L17.08,44.3 L17.08,44.3 z" fill="#FFFFFF"/>
      <path d="M17.08,44.3 C15.36,44.3 13.814,43.57 12.491,42.137 C11.037,40.572 10.392,38.916 10.566,37.227 C10.856,34.416 13.344,32.617 13.451,32.537 L21.155,26.516 C21.658,26.175 22.123,25.665 22.125,25.468 L22.125,25.199 C22.098,25.018 21.622,24.497 21.184,24.185 L13.417,18.118 C13.343,18.065 10.855,16.263 10.566,13.457 C10.39,11.764 11.036,10.11 12.491,8.542 C13.815,7.108 15.36,6.379 17.08,6.379 C19.779,6.379 21.888,8.214 21.978,8.296 L38.943,21.563 C39.057,21.662 40.394,22.938 40.394,25.211 L40.394,25.472 C40.394,27.742 39.055,29.018 38.999,29.072 L21.941,42.418 C21.888,42.462 19.776,44.3 17.08,44.3 L17.08,44.3 L17.08,44.3 L17.08,44.3 L17.08,44.3 z" fill-opacity="0" stroke="#898989" stroke-width="1"/>
    </g>
    <g id="stopwatch">
      <g id="Shape">
        <path d="M25.086,36.959 C18.858,36.959 13.791,31.891 13.791,25.661 C13.791,20.309 17.649,15.651 22.853,14.598 L22.853,14.524 C22.051,14.01 21.973,13.724 21.965,13.474 C21.963,13.383 21.972,13.045 21.982,12.685 C21.993,12.318 22.004,11.927 22.002,11.793 C21.995,11.44 22.204,11.149 22.379,10.966 C22.781,10.549 23.377,10.301 24.014,10.29 C24.364,10.281 25.017,10.279 25.588,10.278 C25.976,10.278 26.512,10.274 26.512,10.274 C27.523,10.274 28.53,10.998 28.55,11.708 L28.556,11.987 C28.58,12.879 28.588,13.399 28.567,13.592 C28.555,13.734 28.521,14.118 27.698,14.54 L27.699,14.674 C32.765,15.871 36.386,20.408 36.386,25.66 C36.386,31.892 31.316,36.959 25.086,36.959 L25.086,36.959 L25.086,36.959 L25.086,36.959 L25.086,36.959 z" fill="#FFFFFF"/>
        <path d="M25.086,36.959 C18.858,36.959 13.791,31.891 13.791,25.661 C13.791,20.309 17.649,15.651 22.853,14.598 L22.853,14.524 C22.051,14.01 21.973,13.724 21.965,13.474 C21.963,13.383 21.972,13.045 21.982,12.685 C21.993,12.318 22.004,11.927 22.002,11.793 C21.995,11.44 22.204,11.149 22.379,10.966 C22.781,10.549 23.377,10.301 24.014,10.29 C24.364,10.281 25.017,10.279 25.588,10.278 C25.976,10.278 26.512,10.274 26.512,10.274 C27.523,10.274 28.53,10.998 28.55,11.708 L28.556,11.987 C28.58,12.879 28.588,13.399 28.567,13.592 C28.555,13.734 28.521,14.118 27.698,14.54 L27.699,14.674 C32.765,15.871 36.386,20.408 36.386,25.66 C36.386,31.892 31.316,36.959 25.086,36.959 L25.086,36.959 L25.086,36.959 L25.086,36.959 L25.086,36.959 z" fill-opacity="0" stroke="#81ADC0" stroke-width="1"/>
      </g>
      <path d="M34.128,26.312 C34.128,30.947 30.372,34.704 25.737,34.704 C21.101,34.704 17.345,30.947 17.345,26.312 C17.345,21.678 21.101,17.919 25.737,17.919 C30.372,17.919 34.128,21.678 34.128,26.312 C34.128,26.312 34.128,21.678 34.128,26.312 L34.128,26.312 L34.128,26.312 z" fill-opacity="0" stroke="#81ADC0" stroke-width="0.802" id="Shape"/>
      <path d="M25.871,26.221 C26.689,26.213 32.799,26.178 32.862,26.178 C32.934,26.178 33.015,26.023 33.015,25.924 C33.015,25.825 32.94,25.652 32.87,25.649 C32.801,25.647 23.692,25.148 23.692,25.148 L23.677,26.162 C23.678,26.162 25.867,26.223 25.871,26.221 C25.871,26.221 25.867,26.223 25.871,26.221 L25.871,26.221 L25.871,26.221 z" fill="#81ADC0" id="Shape"/>
      <path d="M26.187,20.372 C26.197,20.293 26.077,20.186 25.997,20.175 C25.916,20.159 25.77,20.207 25.757,20.287 C25.752,20.363 24.693,27.202 24.693,27.202 L25.511,27.365 C25.51,27.365 26.179,20.444 26.187,20.372 C26.187,20.372 26.179,20.444 26.187,20.372 L26.187,20.372 L26.187,20.372 z" fill="#81ADC0" id="Shape"/>
    </g>
  </g>
</svg>
