<?xml version="1.0" encoding="UTF-8"?>
<!DOCTYPE svg PUBLIC "-//W3C//DTD SVG 1.1//EN" "http://www.w3.org/Graphics/SVG/1.1/DTD/svg11.dtd">
<svg version="1.1" xmlns="http://www.w3.org/2000/svg" xmlns:xlink="http://www.w3.org/1999/xlink" x="0" y="0" width="50" height="50" viewBox="0, 0, 50, 50">
  <g id="Page-1">
    <path d="M-0,42.634 L-0,7.368 C-0,3.305 3.305,-0 7.368,-0 L42.632,-0 C46.695,-0 50,3.305 50,7.368 L50,42.634 C50,46.696 46.695,50 42.632,50 L7.368,50 C3.305,50 -0,46.696 -0,42.634 z" fill="#87B2CA" fill-opacity="0.8" id="TransitionFrame"/>
    <g id="Shape">
      <path d="M13.808,38.371 C10.776,35.339 9.106,31.315 9.109,27.033 C9.109,26.294 9.396,25.599 9.92,25.075 C10.44,24.552 11.138,24.265 11.877,24.265 C12.616,24.262 13.311,24.552 13.834,25.078 C14.357,25.599 14.644,26.294 14.644,27.035 C14.644,29.833 15.738,32.47 17.725,34.454 C19.712,36.441 22.345,37.537 25.146,37.537 C27.228,37.537 29.266,36.912 30.986,35.761 L29.812,34.523 C29.311,33.992 29.124,33.347 29.303,32.747 C29.479,32.15 29.992,31.71 30.703,31.542 L40.145,29.292 C40.839,29.127 41.479,29.276 41.909,29.706 C42.364,30.159 42.501,30.831 42.282,31.556 L39.504,40.856 C39.296,41.547 38.835,42.029 38.238,42.183 C37.651,42.327 37.025,42.127 36.525,41.628 L34.819,39.824 C32.046,41.923 28.646,43.069 25.146,43.072 C20.863,43.074 16.841,41.405 13.809,38.373 L13.808,38.371 z M10.056,19.873 C9.603,19.42 9.467,18.747 9.683,18.025 L12.461,8.723 C12.669,8.032 13.13,7.549 13.727,7.396 C14.314,7.251 14.94,7.449 15.44,7.947 L17.143,9.755 C19.919,7.653 23.321,6.509 26.82,6.507 C31.103,6.504 35.126,8.174 38.161,11.206 C41.193,14.241 42.863,18.267 42.86,22.547 C42.857,24.072 41.617,25.315 40.092,25.315 C39.353,25.315 38.656,25.027 38.132,24.504 C37.609,23.981 37.324,23.286 37.324,22.547 C37.324,19.747 36.229,17.107 34.244,15.123 C32.257,13.136 29.621,12.043 26.82,12.043 C24.738,12.043 22.703,12.667 20.986,13.819 L22.157,15.054 C22.658,15.585 22.842,16.23 22.668,16.83 C22.487,17.428 21.977,17.867 21.265,18.038 L11.823,20.285 C11.13,20.452 10.486,20.302 10.056,19.873 z" fill="#FFFFFF"/>
      <path d="M13.808,38.371 C10.776,35.339 9.106,31.315 9.109,27.033 C9.109,26.294 9.396,25.599 9.92,25.075 C10.44,24.552 11.138,24.265 11.877,24.265 C12.616,24.262 13.311,24.552 13.834,25.078 C14.357,25.599 14.644,26.294 14.644,27.035 C14.644,29.833 15.738,32.47 17.725,34.454 C19.712,36.441 22.345,37.537 25.146,37.537 C27.228,37.537 29.266,36.912 30.986,35.761 L29.812,34.523 C29.311,33.992 29.124,33.347 29.303,32.747 C29.479,32.15 29.992,31.71 30.703,31.542 L40.145,29.292 C40.839,29.127 41.479,29.276 41.909,29.706 C42.364,30.159 42.501,30.831 42.282,31.556 L39.504,40.856 C39.296,41.547 38.835,42.029 38.238,42.183 C37.651,42.327 37.025,42.127 36.525,41.628 L34.819,39.824 C32.046,41.923 28.646,43.069 25.146,43.072 C20.863,43.074 16.841,41.405 13.809,38.373 L13.808,38.371 z M10.056,19.873 C9.603,19.42 9.467,18.747 9.683,18.025 L12.461,8.723 C12.669,8.032 13.13,7.549 13.727,7.396 C14.314,7.251 14.94,7.449 15.44,7.947 L17.143,9.755 C19.919,7.653 23.321,6.509 26.82,6.507 C31.103,6.504 35.126,8.174 38.161,11.206 C41.193,14.241 42.863,18.267 42.86,22.547 C42.857,24.072 41.617,25.315 40.092,25.315 C39.353,25.315 38.656,25.027 38.132,24.504 C37.609,23.981 37.324,23.286 37.324,22.547 C37.324,19.747 36.229,17.107 34.244,15.123 C32.257,13.136 29.621,12.043 26.82,12.043 C24.738,12.043 22.703,12.667 20.986,13.819 L22.157,15.054 C22.658,15.585 22.842,16.23 22.668,16.83 C22.487,17.428 21.977,17.867 21.265,18.038 L11.823,20.285 C11.13,20.452 10.486,20.302 10.056,19.873 z" fill-opacity="0" stroke="#898989" stroke-width="1"/>
    </g>
  </g>
</svg>
