<?xml version="1.0" encoding="UTF-8"?>
<!DOCTYPE svg PUBLIC "-//W3C//DTD SVG 1.1//EN" "http://www.w3.org/Graphics/SVG/1.1/DTD/svg11.dtd">
<svg version="1.1" xmlns="http://www.w3.org/2000/svg" xmlns:xlink="http://www.w3.org/1999/xlink" x="0" y="0" width="50" height="50" viewBox="0, 0, 50, 50">
  <g id="page1">
    <path d="M0,42.641 L0,7.369 C0,3.309 3.299,0 7.369,0 L42.631,0 C46.691,0 50,3.309 50,7.369 L50,42.641 C50,46.701 46.691,50 42.631,50 L7.369,50 C3.299,50 0,46.701 0,42.641 z M0,42.641" fill="#75A2BE" fill-opacity="0.8" id="bezier"/>
    <g id="bezier2">
      <path d="M44.793,17.266 L44.793,17.255 C44.793,15.327 43.95,13.52 42.367,12.058 C40.611,10.434 38.733,9.714 36.795,9.917 C33.77,10.231 31.851,12.688 31.547,13.104 L25.518,20.818 L25.497,20.849 L25.467,20.879 C25.335,21.062 25.132,21.285 24.98,21.417 C24.838,21.285 24.645,21.062 24.553,20.93 L24.523,20.869 L24.482,20.818 L18.453,13.104 C18.149,12.678 16.23,10.231 13.195,9.917 C11.257,9.714 9.389,10.434 7.633,12.058 C6.05,13.52 5.207,15.327 5.207,17.255 C5.207,20.087 6.943,22.259 7.288,22.665 L20.564,39.637 L20.605,39.698 L20.656,39.748 C20.818,39.911 22.29,41.403 24.868,41.403 L25.132,41.403 C27.71,41.403 29.182,39.921 29.344,39.748 L29.395,39.698 L29.436,39.637 L42.712,22.665 C43.047,22.259 44.793,20.087 44.793,17.266 L44.793,17.266 L44.793,17.266 L44.793,17.266 L44.793,17.266 z M44.793,17.266" fill="#FFFFFF"/>
      <path d="M44.793,17.266 L44.793,17.255 C44.793,15.327 43.95,13.52 42.367,12.058 C40.611,10.434 38.733,9.714 36.795,9.917 C33.77,10.231 31.851,12.688 31.547,13.104 L25.518,20.818 L25.497,20.849 L25.467,20.879 C25.335,21.062 25.132,21.285 24.98,21.417 C24.838,21.285 24.645,21.062 24.553,20.93 L24.523,20.869 L24.482,20.818 L18.453,13.104 C18.149,12.678 16.23,10.231 13.195,9.917 C11.257,9.714 9.389,10.434 7.633,12.058 C6.05,13.52 5.207,15.327 5.207,17.255 C5.207,20.087 6.943,22.259 7.288,22.665 L20.564,39.637 L20.605,39.698 L20.656,39.748 C20.818,39.911 22.29,41.403 24.868,41.403 L25.132,41.403 C27.71,41.403 29.182,39.921 29.344,39.748 L29.395,39.698 L29.436,39.637 L42.712,22.665 C43.047,22.259 44.793,20.087 44.793,17.266 L44.793,17.266 L44.793,17.266 L44.793,17.266 L44.793,17.266 z M44.793,17.266" fill-opacity="0" stroke="#767676" stroke-width="1"/>
    </g>
  </g>
</svg>
