<?xml version="1.0" encoding="UTF-8"?>
<!DOCTYPE svg PUBLIC "-//W3C//DTD SVG 1.1//EN" "http://www.w3.org/Graphics/SVG/1.1/DTD/svg11.dtd">
<svg version="1.1" xmlns="http://www.w3.org/2000/svg" xmlns:xlink="http://www.w3.org/1999/xlink" x="0" y="0" width="50" height="50" viewBox="0, 0, 50, 50">
  <g id="Page-1" transform="translate(-0, -0)">
    <path d="M7.368,50 C3.305,50 0,46.696 0,42.634 L0,7.368 C0,3.305 3.305,0 7.368,0 L42.632,0 C46.695,0 50,3.305 50,7.368 L50,42.634 C50,46.696 46.695,50 42.632,50 L7.368,50 L7.368,50 L7.368,50 L7.368,50 z" fill="#87B2CA" fill-opacity="0.8" id="TransitionFrame"/>
    <g id="Shape-+-Shape">
      <g id="Shape">
        <path d="M8.631,12.076 C8.631,10.638 9.239,9.346 10.439,8.236 C11.75,7.023 13.132,6.482 14.546,6.628 C16.897,6.87 18.404,8.951 18.47,9.04 L23.505,15.486 C23.79,15.908 24.217,16.294 24.382,16.297 L24.608,16.297 C24.758,16.273 25.195,15.878 25.454,15.511 L30.529,9.014 C30.575,8.951 32.082,6.872 34.428,6.628 C35.843,6.483 37.228,7.025 38.54,8.236 C39.739,9.348 40.35,10.638 40.35,12.076 C40.35,14.333 38.814,16.1 38.747,16.173 L27.653,30.365 C27.567,30.462 26.499,31.578 24.598,31.578 L24.379,31.578 C22.481,31.578 21.414,30.46 21.371,30.414 L10.206,16.139 C10.167,16.1 8.631,14.333 8.631,12.076 L8.631,12.076 L8.631,12.076 L8.631,12.076 L8.631,12.076 z" fill="#FFFFFF"/>
        <path d="M8.631,12.076 C8.631,10.638 9.239,9.346 10.439,8.236 C11.75,7.023 13.132,6.482 14.546,6.628 C16.897,6.87 18.404,8.951 18.47,9.04 L23.505,15.486 C23.79,15.908 24.217,16.294 24.382,16.297 L24.608,16.297 C24.758,16.273 25.195,15.878 25.454,15.511 L30.529,9.014 C30.575,8.951 32.082,6.872 34.428,6.628 C35.843,6.483 37.228,7.025 38.54,8.236 C39.739,9.348 40.35,10.638 40.35,12.076 C40.35,14.333 38.814,16.1 38.747,16.173 L27.653,30.365 C27.567,30.462 26.499,31.578 24.598,31.578 L24.379,31.578 C22.481,31.578 21.414,30.46 21.371,30.414 L10.206,16.139 C10.167,16.1 8.631,14.333 8.631,12.076 L8.631,12.076 L8.631,12.076 L8.631,12.076 L8.631,12.076 z" fill-opacity="0" stroke="#898989" stroke-width="1"/>
      </g>
      <g id="Shape">
        <path d="M18.051,34.552 C18.051,33.968 18.297,33.443 18.783,32.992 C19.316,32.498 19.878,32.28 20.452,32.338 C21.407,32.437 22.017,33.282 22.046,33.317 L24.092,35.938 C24.206,36.108 24.379,36.266 24.444,36.268 L24.535,36.268 C24.597,36.258 24.777,36.095 24.882,35.948 L26.943,33.31 C26.961,33.283 27.573,32.438 28.526,32.34 C29.1,32.281 29.662,32.5 30.196,32.993 C30.684,33.446 30.93,33.969 30.93,34.553 C30.93,35.471 30.307,36.188 30.279,36.218 L25.773,41.982 C25.738,42.02 25.306,42.473 24.533,42.473 L24.444,42.473 C23.674,42.473 23.239,42.02 23.222,42.001 L18.689,36.203 C18.675,36.186 18.051,35.471 18.051,34.552 L18.051,34.552 L18.051,34.552 L18.051,34.552 L18.051,34.552 z" fill="#FFFFFF"/>
        <path d="M18.051,34.552 C18.051,33.968 18.297,33.443 18.783,32.992 C19.316,32.498 19.878,32.28 20.452,32.338 C21.407,32.437 22.017,33.282 22.046,33.317 L24.092,35.938 C24.206,36.108 24.379,36.266 24.444,36.268 L24.535,36.268 C24.597,36.258 24.777,36.095 24.882,35.948 L26.943,33.31 C26.961,33.283 27.573,32.438 28.526,32.34 C29.1,32.281 29.662,32.5 30.196,32.993 C30.684,33.446 30.93,33.969 30.93,34.553 C30.93,35.471 30.307,36.188 30.279,36.218 L25.773,41.982 C25.738,42.02 25.306,42.473 24.533,42.473 L24.444,42.473 C23.674,42.473 23.239,42.02 23.222,42.001 L18.689,36.203 C18.675,36.186 18.051,35.471 18.051,34.552 L18.051,34.552 L18.051,34.552 L18.051,34.552 L18.051,34.552 z" fill-opacity="0" stroke="#898989" stroke-width="1"/>
      </g>
    </g>
  </g>
</svg>
