<?xml version="1.0" encoding="UTF-8"?>
<!DOCTYPE svg PUBLIC "-//W3C//DTD SVG 1.1//EN" "http://www.w3.org/Graphics/SVG/1.1/DTD/svg11.dtd">
<svg version="1.1" xmlns="http://www.w3.org/2000/svg" xmlns:xlink="http://www.w3.org/1999/xlink" x="0" y="0" width="50" height="50" viewBox="0, 0, 50, 50">
  <g id="Page-1">
    <path d="M-0,7.368 C-0,3.305 3.304,-0 7.366,-0 L42.632,-0 C46.695,-0 50,3.305 50,7.368 L50,42.632 C50,46.695 46.695,50 42.632,50 L7.366,50 C3.304,50 -0,46.695 -0,42.632 L-0,7.368 L-0,7.368 L-0,7.368 L-0,7.368 z" fill="#87B2CA" fill-opacity="0.8" id="TransitionFrame"/>
    <g id="direction">
      <path d="M5.7,17.08 C5.7,15.36 6.43,13.814 7.863,12.491 C9.428,11.037 11.084,10.392 12.773,10.566 C15.584,10.856 17.383,13.344 17.463,13.451 L23.484,21.155 C23.825,21.658 24.335,22.123 24.532,22.125 L24.801,22.125 C24.982,22.098 25.503,21.622 25.815,21.184 L31.882,13.417 C31.935,13.343 33.737,10.855 36.543,10.566 C38.236,10.39 39.89,11.036 41.458,12.491 C42.892,13.815 43.621,15.36 43.621,17.08 C43.621,19.779 41.786,21.888 41.704,21.978 L28.437,38.943 C28.338,39.057 27.062,40.394 24.789,40.394 L24.528,40.394 C22.258,40.394 20.982,39.055 20.928,38.999 L7.582,21.941 C7.538,21.888 5.7,19.776 5.7,17.08 L5.7,17.08 L5.7,17.08 L5.7,17.08 L5.7,17.08 z" fill="#FFFFFF"/>
      <path d="M5.7,17.08 C5.7,15.36 6.43,13.814 7.863,12.491 C9.428,11.037 11.084,10.392 12.773,10.566 C15.584,10.856 17.383,13.344 17.463,13.451 L23.484,21.155 C23.825,21.658 24.335,22.123 24.532,22.125 L24.801,22.125 C24.982,22.098 25.503,21.622 25.815,21.184 L31.882,13.417 C31.935,13.343 33.737,10.855 36.543,10.566 C38.236,10.39 39.89,11.036 41.458,12.491 C42.892,13.815 43.621,15.36 43.621,17.08 C43.621,19.779 41.786,21.888 41.704,21.978 L28.437,38.943 C28.338,39.057 27.062,40.394 24.789,40.394 L24.528,40.394 C22.258,40.394 20.982,39.055 20.928,38.999 L7.582,21.941 C7.538,21.888 5.7,19.776 5.7,17.08 L5.7,17.08 L5.7,17.08 L5.7,17.08 L5.7,17.08 z" fill-opacity="0" stroke="#898989" stroke-width="1"/>
    </g>
    <g id="stopwatch">
      <g id="Shape">
        <path d="M24.381,38.431 C18.153,38.431 13.086,33.362 13.086,27.133 C13.086,21.78 16.944,17.123 22.148,16.07 L22.148,15.996 C21.346,15.482 21.268,15.196 21.26,14.946 C21.258,14.855 21.267,14.516 21.277,14.157 C21.288,13.79 21.299,13.399 21.297,13.265 C21.29,12.912 21.498,12.62 21.674,12.438 C22.076,12.02 22.672,11.773 23.308,11.761 C23.659,11.752 24.312,11.751 24.883,11.75 C25.271,11.75 25.807,11.746 25.807,11.746 C26.818,11.746 27.825,12.469 27.845,13.18 L27.851,13.458 C27.875,14.351 27.882,14.87 27.862,15.064 C27.85,15.206 27.816,15.59 26.992,16.012 L26.994,16.146 C32.06,17.343 35.681,21.879 35.681,27.132 C35.681,33.364 30.611,38.431 24.381,38.431 L24.381,38.431 L24.381,38.431 L24.381,38.431 L24.381,38.431 z" fill="#FFFFFF"/>
        <path d="M24.381,38.431 C18.153,38.431 13.086,33.362 13.086,27.133 C13.086,21.78 16.944,17.123 22.148,16.07 L22.148,15.996 C21.346,15.482 21.268,15.196 21.26,14.946 C21.258,14.855 21.267,14.516 21.277,14.157 C21.288,13.79 21.299,13.399 21.297,13.265 C21.29,12.912 21.498,12.62 21.674,12.438 C22.076,12.02 22.672,11.773 23.308,11.761 C23.659,11.752 24.312,11.751 24.883,11.75 C25.271,11.75 25.807,11.746 25.807,11.746 C26.818,11.746 27.825,12.469 27.845,13.18 L27.851,13.458 C27.875,14.351 27.882,14.87 27.862,15.064 C27.85,15.206 27.816,15.59 26.992,16.012 L26.994,16.146 C32.06,17.343 35.681,21.879 35.681,27.132 C35.681,33.364 30.611,38.431 24.381,38.431 L24.381,38.431 L24.381,38.431 L24.381,38.431 L24.381,38.431 z" fill-opacity="0" stroke="#81ADC0" stroke-width="1"/>
      </g>
      <path d="M32.423,26.784 C32.423,31.419 28.666,35.176 24.031,35.176 C19.396,35.176 15.639,31.419 15.639,26.784 C15.639,22.149 19.396,18.391 24.031,18.391 C28.666,18.391 32.423,22.149 32.423,26.784 C32.423,26.784 32.423,22.149 32.423,26.784 L32.423,26.784 L32.423,26.784 z" fill-opacity="0" stroke="#81ADC0" stroke-width="0.802" id="Shape"/>
      <path d="M24.165,27.692 C24.984,27.685 31.093,27.65 31.157,27.65 C31.229,27.65 31.309,27.495 31.309,27.396 C31.309,27.297 31.235,27.124 31.165,27.121 C31.096,27.119 21.987,26.62 21.987,26.62 L21.971,27.634 C21.973,27.634 24.161,27.695 24.165,27.692 C24.165,27.692 24.161,27.695 24.165,27.692 L24.165,27.692 L24.165,27.692 z" fill="#81ADC0" id="Shape"/>
      <path d="M24.482,21.844 C24.492,21.765 24.372,21.658 24.292,21.646 C24.211,21.631 24.065,21.679 24.052,21.758 C24.047,21.835 22.988,28.674 22.988,28.674 L23.806,28.836 C23.805,28.836 24.474,21.916 24.482,21.844 C24.482,21.844 24.474,21.916 24.482,21.844 L24.482,21.844 L24.482,21.844 z" fill="#81ADC0" id="Shape"/>
    </g>
  </g>
</svg>
