<?xml version="1.0" encoding="UTF-8"?>
<!DOCTYPE svg PUBLIC "-//W3C//DTD SVG 1.1//EN" "http://www.w3.org/Graphics/SVG/1.1/DTD/svg11.dtd">
<svg version="1.1" xmlns="http://www.w3.org/2000/svg" xmlns:xlink="http://www.w3.org/1999/xlink" x="0" y="0" width="50" height="50" viewBox="0, 0, 50, 50">
  <g id="Page-1" transform="translate(-0, -0)">
    <path d="M50,42.632 C50,46.695 46.696,50 42.634,50 L7.368,50 C3.305,50 0,46.695 0,42.632 L0,7.368 C0,3.305 3.305,0 7.368,0 L42.634,0 C46.696,0 50,3.305 50,7.368 L50,42.632 L50,42.632 L50,42.632 L50,42.632 z" fill="#87B2CA" fill-opacity="0.8" id="TransitionFrame"/>
    <g id="Shape-+-Shape">
      <g id="Shape">
        <path d="M12.076,41.369 C10.638,41.369 9.346,40.761 8.236,39.561 C7.023,38.25 6.482,36.868 6.628,35.454 C6.87,33.103 8.951,31.596 9.04,31.53 L15.486,26.495 C15.908,26.21 16.294,25.783 16.297,25.618 L16.297,25.392 C16.273,25.242 15.878,24.805 15.511,24.546 L9.014,19.471 C8.951,19.425 6.872,17.918 6.628,15.572 C6.483,14.157 7.025,12.772 8.236,11.46 C9.348,10.261 10.638,9.65 12.076,9.65 C14.333,9.65 16.1,11.186 16.173,11.253 L30.365,22.347 C30.462,22.433 31.578,23.501 31.578,25.402 L31.578,25.621 C31.578,27.519 30.46,28.586 30.414,28.629 L16.139,39.794 C16.1,39.833 14.333,41.369 12.076,41.369 L12.076,41.369 L12.076,41.369 L12.076,41.369 L12.076,41.369 z" fill="#FFFFFF"/>
        <path d="M12.076,41.369 C10.638,41.369 9.346,40.761 8.236,39.561 C7.023,38.25 6.482,36.868 6.628,35.454 C6.87,33.103 8.951,31.596 9.04,31.53 L15.486,26.495 C15.908,26.21 16.294,25.783 16.297,25.618 L16.297,25.392 C16.273,25.242 15.878,24.805 15.511,24.546 L9.014,19.471 C8.951,19.425 6.872,17.918 6.628,15.572 C6.483,14.157 7.025,12.772 8.236,11.46 C9.348,10.261 10.638,9.65 12.076,9.65 C14.333,9.65 16.1,11.186 16.173,11.253 L30.365,22.347 C30.462,22.433 31.578,23.501 31.578,25.402 L31.578,25.621 C31.578,27.519 30.46,28.586 30.414,28.629 L16.139,39.794 C16.1,39.833 14.333,41.369 12.076,41.369 L12.076,41.369 L12.076,41.369 L12.076,41.369 L12.076,41.369 z" fill-opacity="0" stroke="#898989" stroke-width="1"/>
      </g>
      <g id="Shape">
        <path d="M34.552,31.949 C33.968,31.949 33.443,31.703 32.992,31.217 C32.498,30.684 32.28,30.122 32.338,29.548 C32.437,28.593 33.282,27.983 33.317,27.954 L35.938,25.908 C36.108,25.794 36.266,25.621 36.268,25.556 L36.268,25.465 C36.258,25.403 36.095,25.223 35.948,25.118 L33.31,23.057 C33.283,23.039 32.438,22.427 32.34,21.474 C32.281,20.9 32.5,20.338 32.993,19.804 C33.446,19.316 33.969,19.07 34.553,19.07 C35.471,19.07 36.188,19.693 36.218,19.721 L41.982,24.227 C42.02,24.262 42.473,24.694 42.473,25.467 L42.473,25.556 C42.473,26.326 42.02,26.761 42.001,26.778 L36.203,31.311 C36.186,31.325 35.471,31.949 34.552,31.949 L34.552,31.949 L34.552,31.949 L34.552,31.949 L34.552,31.949 z" fill="#FFFFFF"/>
        <path d="M34.552,31.949 C33.968,31.949 33.443,31.703 32.992,31.217 C32.498,30.684 32.28,30.122 32.338,29.548 C32.437,28.593 33.282,27.983 33.317,27.954 L35.938,25.908 C36.108,25.794 36.266,25.621 36.268,25.556 L36.268,25.465 C36.258,25.403 36.095,25.223 35.948,25.118 L33.31,23.057 C33.283,23.039 32.438,22.427 32.34,21.474 C32.281,20.9 32.5,20.338 32.993,19.804 C33.446,19.316 33.969,19.07 34.553,19.07 C35.471,19.07 36.188,19.693 36.218,19.721 L41.982,24.227 C42.02,24.262 42.473,24.694 42.473,25.467 L42.473,25.556 C42.473,26.326 42.02,26.761 42.001,26.778 L36.203,31.311 C36.186,31.325 35.471,31.949 34.552,31.949 L34.552,31.949 L34.552,31.949 L34.552,31.949 L34.552,31.949 z" fill-opacity="0" stroke="#898989" stroke-width="1"/>
      </g>
    </g>
  </g>
</svg>
