<?xml version="1.0" encoding="UTF-8"?>
<!DOCTYPE svg PUBLIC "-//W3C//DTD SVG 1.1//EN" "http://www.w3.org/Graphics/SVG/1.1/DTD/svg11.dtd">
<svg version="1.1" xmlns="http://www.w3.org/2000/svg" xmlns:xlink="http://www.w3.org/1999/xlink" x="0" y="0" width="50" height="50" viewBox="0, 0, 50, 50">
  <g id="page1">
    <path d="M42.24,49.9 L7.49,49.9 C3.49,49.9 0.23,46.65 0.23,42.64 L0.23,7.9 C0.23,3.9 3.49,0.64 7.49,0.64 L42.24,0.64 C46.24,0.64 49.49,3.9 49.49,7.9 L49.49,42.64 C49.49,46.65 46.24,49.9 42.24,49.9 z M42.24,49.9" fill="#75A2BE" fill-opacity="0.8" id="bezier"/>
    <g id="bezier2">
      <path d="M16.61,5.77 L16.6,5.77 C14.7,5.77 12.92,6.6 11.48,8.16 C9.88,9.89 9.17,11.74 9.37,13.65 C9.68,16.63 12.1,18.52 12.51,18.82 L20.11,24.76 L20.14,24.78 L20.17,24.81 C20.35,24.94 20.57,25.14 20.7,25.29 C20.57,25.43 20.35,25.62 20.22,25.71 L20.16,25.74 L20.11,25.78 L12.51,31.72 C12.09,32.02 9.68,33.91 9.37,36.9 C9.17,38.81 9.88,40.65 11.48,42.38 C12.92,43.94 14.7,44.77 16.6,44.77 C19.39,44.77 21.53,43.06 21.93,42.72 L38.65,29.64 L38.71,29.6 L38.76,29.55 C38.92,29.39 40.39,27.94 40.39,25.4 L40.39,25.14 C40.39,22.6 38.93,21.15 38.76,20.99 L38.71,20.94 L38.65,20.9 L21.93,7.82 C21.53,7.49 19.39,5.77 16.61,5.77 L16.61,5.77 L16.61,5.77 L16.61,5.77 L16.61,5.77 z M16.61,5.77" fill="#FFFFFF"/>
      <path d="M16.61,5.77 L16.6,5.77 C14.7,5.77 12.92,6.6 11.48,8.16 C9.88,9.89 9.17,11.74 9.37,13.65 C9.68,16.63 12.1,18.52 12.51,18.82 L20.11,24.76 L20.14,24.78 L20.17,24.81 C20.35,24.94 20.57,25.14 20.7,25.29 C20.57,25.43 20.35,25.62 20.22,25.71 L20.16,25.74 L20.11,25.78 L12.51,31.72 C12.09,32.02 9.68,33.91 9.37,36.9 C9.17,38.81 9.88,40.65 11.48,42.38 C12.92,43.94 14.7,44.77 16.6,44.77 C19.39,44.77 21.53,43.06 21.93,42.72 L38.65,29.64 L38.71,29.6 L38.76,29.55 C38.92,29.39 40.39,27.94 40.39,25.4 L40.39,25.14 C40.39,22.6 38.93,21.15 38.76,20.99 L38.71,20.94 L38.65,20.9 L21.93,7.82 C21.53,7.49 19.39,5.77 16.61,5.77 L16.61,5.77 L16.61,5.77 L16.61,5.77 L16.61,5.77 z M16.61,5.77" fill-opacity="0" stroke="#767676" stroke-width="1"/>
    </g>
  </g>
</svg>
