<?xml version="1.0" encoding="UTF-8"?>
<!DOCTYPE svg PUBLIC "-//W3C//DTD SVG 1.1//EN" "http://www.w3.org/Graphics/SVG/1.1/DTD/svg11.dtd">
<svg version="1.1" xmlns="http://www.w3.org/2000/svg" xmlns:xlink="http://www.w3.org/1999/xlink" width="137" height="378"  xml:space="preserve" id="joe01Canvas">
    <!-- Generated by PaintCode - http://www.paintcodeapp.com -->
    <g id="joe01Canvas-lines">
        <g id="joe01Canvas-group2">
            <path id="joe01Canvas-bezier" stroke="none" fill="rgb(51, 91, 113)" d="M 51.51,10.78 C 51.24,11.3 51.01,11.84 50.64,12.32 50.46,12.56 50.17,12.77 49.85,12.79 49.69,12.81 49.53,12.79 49.38,12.77 49.24,12.75 49.13,12.76 49,12.81 48.51,13.01 48.17,13.54 47.65,13.88 47.4,14.06 47.06,14.19 46.72,14.14 46.37,14.07 46.19,14.04 45.91,14.11 44.86,14.39 43.91,15.27 42.59,15.35 42.26,15.37 41.93,15.31 41.62,15.19 41.49,15.14 41.37,15.11 41.25,15.09 41.13,15.07 41,15.06 40.87,15.06 40.34,15.08 39.79,15.25 39.23,15.42 38.68,15.6 38.11,15.8 37.47,15.88 37.15,15.92 36.8,15.91 36.46,15.81 36.29,15.76 36.12,15.69 35.97,15.59 35.89,15.55 35.82,15.49 35.75,15.44 L 35.59,15.32 C 35.3,15.1 34.79,15.19 34.3,15.41 33.8,15.62 33.3,15.92 32.77,16.2 32.24,16.46 31.68,16.76 30.97,16.8 30.62,16.82 30.22,16.7 29.94,16.46 29.7,16.27 29.52,16.13 29.28,16 28.81,15.75 28.25,15.66 27.77,15.86 27.27,16.05 26.95,16.58 26.91,17.16 L 26.83,17.16 C 26.76,16.57 27.03,15.89 27.61,15.55 28.19,15.22 28.91,15.27 29.5,15.51 29.79,15.62 30.1,15.81 30.32,15.99 30.5,16.11 30.7,16.17 30.93,16.14 31.4,16.09 31.91,15.81 32.4,15.52 32.91,15.25 33.41,14.93 33.99,14.68 34.28,14.55 34.59,14.45 34.95,14.42 35.31,14.39 35.71,14.46 36.05,14.71 36.79,15.53 37.93,15.14 39.06,14.83 39.62,14.68 40.22,14.5 40.86,14.51 41.03,14.51 41.19,14.52 41.35,14.56 41.43,14.57 41.52,14.6 41.6,14.62 41.69,14.65 41.73,14.67 41.83,14.7 42.06,14.8 42.31,14.86 42.58,14.85 43.1,14.85 43.64,14.64 44.16,14.41 44.69,14.17 45.21,13.87 45.83,13.74 45.99,13.71 46.15,13.69 46.33,13.71 46.52,13.72 46.63,13.79 46.76,13.8 47.01,13.84 47.26,13.77 47.49,13.62 47.96,13.35 48.31,12.82 48.93,12.59 49.08,12.54 49.28,12.53 49.42,12.56 49.56,12.59 49.7,12.61 49.83,12.6 50.1,12.59 50.34,12.44 50.52,12.22 50.89,11.79 51.15,11.25 51.45,10.75 L 51.51,10.78 Z M 51.51,10.78" />
            <path id="joe01Canvas-bezier2" stroke="none" fill="rgb(51, 91, 113)" d="M 26.9,18.34 C 27.22,19.12 27.48,19.93 27.55,20.78 27.56,21.2 27.55,21.68 27.23,22.07 27.08,22.26 26.79,22.36 26.78,22.43 26.74,22.41 26.87,22.58 27.04,22.68 27.37,22.9 27.76,23.09 28.1,23.41 28.26,23.57 28.44,23.78 28.47,24.08 28.51,24.38 28.36,24.64 28.21,24.83 27.64,25.4 27.62,26.18 27.67,26.99 27.7,27.39 27.76,27.81 27.76,28.26 27.75,28.49 27.74,28.74 27.63,29.01 27.55,29.29 27.18,29.56 26.97,29.61 26.93,29.64 27.02,29.57 27.02,29.52 27.02,29.49 27.03,29.55 27.06,29.61 27.13,29.74 27.24,29.9 27.36,30.06 27.6,30.37 27.87,30.68 28.14,31 28.41,31.32 28.68,31.65 28.93,32.02 29.05,32.2 29.17,32.39 29.26,32.64 29.3,32.77 29.35,32.91 29.31,33.11 29.28,33.31 29.08,33.48 28.97,33.52 28.63,33.64 28.52,33.91 28.6,34.31 28.66,34.68 28.85,35.06 29.06,35.42 L 29,35.47 C 28.69,35.17 28.43,34.82 28.26,34.4 28.18,34.18 28.13,33.93 28.21,33.66 28.26,33.4 28.52,33.16 28.7,33.06 28.77,33.01 28.73,33.02 28.74,33.01 28.73,32.99 28.72,32.93 28.69,32.86 28.63,32.72 28.51,32.56 28.39,32.41 28.14,32.1 27.86,31.81 27.57,31.51 27.29,31.2 27,30.89 26.73,30.54 26.59,30.36 26.46,30.18 26.35,29.93 26.3,29.81 26.23,29.66 26.26,29.42 26.28,29.15 26.55,28.93 26.71,28.89 26.9,28.84 26.9,28.83 26.97,28.71 27.03,28.6 27.06,28.43 27.07,28.24 27.1,27.86 27.06,27.44 27.06,27.02 27.05,26.59 27.06,26.14 27.17,25.7 27.22,25.47 27.3,25.25 27.41,25.05 27.47,24.94 27.54,24.84 27.62,24.74 L 27.83,24.51 C 28.07,24.24 28.06,24 27.79,23.72 27.53,23.45 27.17,23.25 26.82,22.99 26.73,22.92 26.64,22.85 26.55,22.75 26.47,22.67 26.36,22.44 26.48,22.26 26.71,21.98 26.89,22.01 27,21.86 27.25,21.61 27.31,21.19 27.32,20.79 27.31,19.98 27.1,19.16 26.83,18.37 L 26.9,18.34 Z M 26.9,18.34" />
            <path id="joe01Canvas-bezier3" stroke="none" fill="rgb(51, 91, 113)" d="M 53.47,11.44 C 54.77,12.87 55.78,14.55 56.58,16.31 56.98,17.2 57.38,18.09 57.58,19.05 57.78,20 57.88,20.98 57.8,21.96 L 57.72,21.97 C 57.39,21.05 57.12,20.15 56.83,19.25 56.54,18.36 56.34,17.43 56.01,16.54 55.69,15.65 55.31,14.78 54.88,13.94 54.45,13.09 53.98,12.26 53.42,11.49 L 53.47,11.44 Z M 53.47,11.44" />
            <path id="joe01Canvas-bezier4" stroke="none" fill="rgb(51, 91, 113)" d="M 57.8,23.72 L 60.04,30.1 C 60.23,30.61 60.44,31.17 60.55,31.73 60.67,32.29 60.75,32.86 60.82,33.42 60.96,34.55 61.04,35.68 61.06,36.82 61.11,39.09 61,41.38 60.51,43.61 60.01,45.83 59.26,48.02 58.05,49.95 L 57.98,49.91 C 58.79,47.81 59.4,45.66 59.76,43.46 60.13,41.27 60.41,39.06 60.44,36.82 60.46,35.7 60.43,34.59 60.33,33.47 60.28,32.92 60.21,32.37 60.11,31.82 60.03,31.27 59.85,30.77 59.68,30.22 L 57.72,23.75 57.8,23.72 Z M 57.8,23.72" />
            <path id="joe01Canvas-bezier5" stroke="none" fill="rgb(51, 91, 113)" d="M 57.35,50.94 C 57.6,52.16 57.61,53.5 56.96,54.71 56.64,55.3 56.11,55.87 55.42,56.07 54.75,56.27 54.05,56.23 53.44,55.98 L 53.45,55.9 C 54.08,55.73 54.65,55.59 55.15,55.35 55.63,55.11 56.1,54.85 56.44,54.38 56.78,53.93 56.99,53.36 57.11,52.77 57.25,52.18 57.3,51.56 57.28,50.95 L 57.35,50.94 Z M 57.35,50.94" />
            <path id="joe01Canvas-bezier6" stroke="none" fill="rgb(51, 91, 113)" d="M 52.97,55.97 C 52.66,56.57 52.09,56.99 51.47,57.23 50.84,57.47 50.16,57.54 49.49,57.51 48.16,57.45 46.87,57.02 45.65,56.54 43.21,55.54 40.89,54.28 38.64,52.91 37.52,52.22 36.41,51.5 35.35,50.71 34.82,50.31 34.3,49.9 33.8,49.43 33.56,49.2 33.32,48.95 33.1,48.67 32.87,48.38 32.71,48.07 32.55,47.77 31.41,45.36 30.6,42.87 29.94,40.33 L 30.01,40.3 C 31.08,42.69 32.02,45.16 33.23,47.42 33.39,47.7 33.53,47.97 33.71,48.19 33.9,48.42 34.12,48.64 34.35,48.85 34.81,49.29 35.31,49.71 35.81,50.11 36.83,50.91 37.89,51.67 38.97,52.39 41.16,53.81 43.42,55.13 45.8,56.19 46.99,56.71 48.22,57.17 49.51,57.28 50.15,57.34 50.8,57.29 51.41,57.09 52.01,56.88 52.58,56.5 52.9,55.94 L 52.97,55.97 Z M 52.97,55.97" />
            <path id="joe01Canvas-bezier7" stroke="none" fill="rgb(51, 91, 113)" d="M 29.04,41.74 C 27.92,42.28 26.55,42.33 25.36,41.8 24.18,41.27 23.3,40.24 22.67,39.15 22.06,38.04 21.52,36.94 21.16,35.73 20.99,35.12 20.85,34.51 20.8,33.87 20.77,33.25 20.71,32.55 21.13,32 L 21.19,32.05 C 21.09,32.31 21.11,32.62 21.15,32.91 21.19,33.2 21.25,33.5 21.33,33.78 21.49,34.36 21.68,34.93 21.89,35.49 22.32,36.6 22.71,37.79 23.22,38.86 23.74,39.92 24.49,40.9 25.53,41.46 26.56,42.03 27.87,42.1 29.01,41.67 L 29.04,41.74 Z M 29.04,41.74" />
            <path id="joe01Canvas-bezier8" stroke="none" fill="rgb(51, 91, 113)" d="M 25.96,32.94 C 25.79,32.81 25.58,32.71 25.45,32.77 25.33,32.82 25.26,33.02 25.18,33.22 25.13,33.32 25.1,33.42 24.96,33.56 24.89,33.62 24.75,33.68 24.62,33.65 24.51,33.63 24.43,33.58 24.37,33.53 24.15,33.36 24.02,33.16 23.89,33 23.77,32.84 23.64,32.71 23.5,32.62 23.36,32.52 23.26,32.49 23.13,32.45 23,32.39 22.77,32.42 22.46,32.29 22.15,32.13 22.07,31.82 22.08,31.6 L 22.15,31.56 C 22.33,31.71 22.51,31.8 22.62,31.77 22.73,31.75 22.94,31.68 23.23,31.69 23.53,31.69 23.83,31.86 24,32.05 24.19,32.25 24.31,32.47 24.42,32.67 24.52,32.86 24.6,33.04 24.7,33.15 24.72,33.18 24.73,33.19 24.72,33.19 24.7,33.19 24.67,33.21 24.69,33.21 24.71,33.2 24.78,33.11 24.84,33.03 24.97,32.87 25.08,32.62 25.39,32.54 25.7,32.52 25.87,32.74 26.01,32.88 L 25.96,32.94 Z M 25.96,32.94" />
            <path id="joe01Canvas-bezier9" stroke="none" fill="rgb(51, 91, 113)" d="M 29.06,42.64 C 29.75,44 30.39,45.38 30.98,46.79 31.28,47.49 31.63,48.18 31.81,48.93 31.9,49.3 31.98,49.68 32.03,50.07 32.07,50.45 32.1,50.86 31.98,51.26 L 31.9,51.25 C 31.68,50.54 31.34,49.87 31.08,49.16 30.79,48.46 30.64,47.72 30.4,47 L 28.99,42.67 29.06,42.64 Z M 29.06,42.64" />
            <path id="joe01Canvas-bezier10" stroke="none" fill="rgb(51, 91, 113)" d="M 30.53,49.93 C 30.62,51.25 31.06,52.6 31.96,53.58 32.41,54.07 32.98,54.42 33.61,54.65 34.24,54.94 34.82,55.28 35.4,55.63 37.71,57.05 39.92,58.61 42.09,60.21 43.18,61.01 44.26,61.83 45.31,62.67 46.36,63.53 47.42,64.36 48.37,65.39 48.49,65.53 48.6,65.65 48.7,65.89 48.71,65.93 48.72,65.97 48.73,66.02 48.73,66.08 48.73,66.14 48.69,66.22 48.67,66.25 48.64,66.29 48.61,66.32 48.61,66.32 48.6,66.33 48.59,66.34 48.57,66.36 48.57,66.36 48.56,66.37 48.53,66.41 48.48,66.48 48.44,66.54 48.27,66.8 48.12,67.1 47.98,67.4 47.69,68 47.43,68.61 47.18,69.23 46.68,70.48 46.21,71.74 45.76,73 L 45.61,73.43 45.25,73.14 C 41.48,70.09 37.75,66.99 34.22,63.64 33.34,62.8 32.48,61.95 31.63,61.07 30.79,60.19 29.96,59.3 29.23,58.3 29.05,58.05 28.87,57.79 28.72,57.51 28.64,57.37 28.57,57.22 28.51,57.07 28.45,56.92 28.42,56.7 28.42,56.57 28.37,55.94 28.4,55.32 28.5,54.71 28.7,53.5 29.08,52.33 29.63,51.24 L 29.69,51.27 C 29.24,52.39 28.94,53.57 28.83,54.75 28.78,55.35 28.77,55.94 28.84,56.52 28.88,57.04 29.29,57.52 29.64,57.99 31.17,59.82 32.95,61.47 34.73,63.09 38.31,66.34 41.96,69.53 45.66,72.64 L 45.15,72.78 C 45.63,71.52 46.12,70.26 46.64,69.01 46.91,68.39 47.18,67.77 47.48,67.16 47.64,66.85 47.79,66.55 47.99,66.24 48.05,66.16 48.1,66.09 48.17,66.01 L 48.23,65.95 48.26,65.92 C 48.24,65.94 48.23,65.96 48.22,65.98 48.2,66.01 48.2,66.03 48.2,66.05 48.2,66.06 48.2,66.06 48.2,66.06 48.17,65.98 48.07,65.84 47.97,65.72 47.11,64.75 46.05,63.89 45.02,63.03 43.99,62.17 42.93,61.34 41.86,60.52 39.71,58.89 37.54,57.29 35.27,55.83 34.71,55.48 34.13,55.12 33.53,54.84 32.9,54.59 32.29,54.2 31.84,53.69 30.93,52.65 30.52,51.27 30.45,49.93 L 30.53,49.93 Z M 30.53,49.93" />
            <path id="joe01Canvas-bezier11" stroke="none" fill="rgb(51, 91, 113)" d="M 48.47,66.12 C 48.71,66.96 48.99,67.8 49.32,68.6 49.64,69.39 50.01,70.23 50.55,70.78 51.21,71.3 51.93,71.94 52.43,72.68 52.69,73.05 52.93,73.43 53.12,73.84 53.31,74.25 53.51,74.69 53.48,75.17 L 53.41,75.18 C 53,74.43 52.37,73.81 51.83,73.15 51.24,72.5 50.78,71.84 50.11,71.21 49.48,70.43 49.23,69.57 48.95,68.73 48.72,67.87 48.53,67 48.4,66.13 L 48.47,66.12 Z M 48.47,66.12" />
            <path id="joe01Canvas-bezier12" stroke="none" fill="rgb(51, 91, 113)" d="M 61.39,136.8 L 62.97,143.22 C 63.47,145.37 63.97,147.52 64.25,149.72 64.32,150.27 64.37,150.83 64.37,151.39 64.37,151.95 64.34,152.54 64.11,153.1 63.74,154.07 63.64,155.19 63.53,156.27 63.34,158.45 63.3,160.65 63.29,162.85 63.28,167.25 63.47,171.65 63.59,176.05 63.64,178.25 63.73,180.45 63.81,182.65 L 63.95,185.95 C 64.01,187.05 64.04,188.15 64.2,189.24 L 64.13,189.25 C 63.66,187.08 63.49,184.88 63.28,182.68 63.08,180.48 62.95,178.28 62.82,176.08 62.6,171.67 62.58,167.26 62.68,162.84 62.73,160.64 62.81,158.43 63.03,156.22 63.17,155.12 63.27,154.01 63.7,152.92 64.08,151.98 63.96,150.83 63.87,149.76 63.64,147.59 63.19,145.42 62.74,143.27 L 61.31,136.82 61.39,136.8 Z M 61.39,136.8" />
            <path id="joe01Canvas-bezier13" stroke="none" fill="rgb(51, 91, 113)" d="M 56.33,56.68 C 56.86,58.01 57.24,59.4 57.33,60.83 57.37,61.54 57.33,62.27 57.12,62.97 57.02,63.32 56.86,63.66 56.66,63.97 56.45,64.27 56.19,64.52 55.98,64.8 55.12,65.9 54.65,67.27 54.54,68.66 54.41,70.05 54.56,71.46 54.77,72.85 54.88,73.55 55.02,74.24 55.17,74.93 55.31,75.64 55.39,76.36 55.41,77.09 55.45,78.55 55.15,79.97 55.01,81.36 54.7,84.15 55.29,86.94 56.13,89.62 L 56.12,89.6 C 56.8,91.43 57.31,93.29 57.73,95.18 58.15,97.07 58.45,98.98 58.63,100.9 59.01,104.75 58.92,108.65 58.17,112.43 L 58.09,112.42 C 58.52,108.6 58.41,104.76 57.95,100.98 57.7,99.09 57.37,97.21 56.96,95.35 56.54,93.49 56.06,91.63 55.44,89.85 L 55.43,89.83 55.43,89.83 C 54.64,87.09 54.08,84.18 54.45,81.3 54.61,79.87 54.93,78.49 54.91,77.1 54.93,75.71 54.54,74.34 54.35,72.91 54.15,71.5 54.02,70.06 54.19,68.62 54.33,67.19 54.85,65.76 55.78,64.64 56,64.35 56.27,64.1 56.46,63.83 56.66,63.55 56.81,63.24 56.92,62.91 57.13,62.25 57.19,61.54 57.16,60.84 57.1,59.43 56.76,58.04 56.26,56.71 L 56.33,56.68 Z M 56.33,56.68" />
            <path id="joe01Canvas-bezier14" stroke="none" fill="rgb(51, 91, 113)" d="M 56.62,63.82 C 57.32,64.52 57.85,65.37 58.23,66.3 58.61,67.22 58.79,68.23 58.75,69.24 L 58.29,69.15 C 58.56,68.26 58.78,67.37 58.96,66.47 59.13,65.56 59.23,64.65 59.26,63.75 59.3,62.85 59.26,61.95 59.11,61.06 58.97,60.17 58.68,59.28 58.5,58.36 L 58.57,58.33 C 59.01,59.15 59.45,59.99 59.73,60.92 60.01,61.85 60.1,62.83 60.05,63.79 59.99,64.75 59.8,65.68 59.57,66.6 59.34,67.51 59.06,68.41 58.74,69.3 L 58.13,71.02 58.28,69.21 C 58.36,68.27 58.25,67.31 57.96,66.4 57.66,65.49 57.2,64.61 56.56,63.88 L 56.62,63.82 Z M 56.62,63.82" />
            <path id="joe01Canvas-bezier15" stroke="none" fill="rgb(51, 91, 113)" d="M 27.6,57.72 C 27.33,58.69 26.82,59.63 25.98,60.29 25.55,60.6 25.03,60.82 24.49,60.87 23.95,60.95 23.38,60.83 22.9,60.72 22.43,60.63 21.93,60.54 21.51,60.57 21.11,60.6 20.82,60.79 20.39,61.11 19.56,61.7 18.57,62.13 17.56,62.3 L 17.53,62.23 C 18.39,61.67 19.19,61.14 19.92,60.49 20.12,60.34 20.33,60.17 20.59,60.02 20.87,59.88 21.2,59.81 21.49,59.81 22.08,59.83 22.56,59.98 23.06,60.13 23.98,60.47 24.94,60.49 25.76,59.97 26.57,59.47 27.17,58.62 27.53,57.7 L 27.6,57.72 Z M 27.6,57.72" />
            <path id="joe01Canvas-bezier16" stroke="none" fill="rgb(51, 91, 113)" d="M 24.47,63.82 C 22.87,64.25 21.23,64.54 19.57,64.67 17.92,64.79 16.2,64.74 14.6,64.24 13.87,64.08 13.05,64.32 12.32,64.63 11.59,64.95 10.89,65.38 10.23,65.86 8.9,66.81 7.7,67.94 6.6,69.14 5.5,70.35 4.5,71.65 3.63,73.02 2.76,74.4 1.99,75.84 1.52,77.37 1.27,78.13 1.19,78.9 1.14,79.72 1.09,80.53 1.12,81.34 1.19,82.14 1.26,82.95 1.42,83.75 1.64,84.53 1.74,84.93 1.88,85.32 1.93,85.76 1.96,85.97 1.93,86.24 1.76,86.41 1.6,86.59 1.39,86.66 1.19,86.72 L 1.17,86.65 C 1.35,86.57 1.54,86.46 1.64,86.31 1.75,86.17 1.75,85.98 1.71,85.79 1.63,85.41 1.45,85.03 1.31,84.64 1.02,83.86 0.79,83.04 0.65,82.21 0.51,81.38 0.47,80.54 0.48,79.69 0.48,78.87 0.55,77.98 0.78,77.16 1.25,75.5 2.06,74 2.99,72.61 3.92,71.22 4.99,69.92 6.15,68.72 7.31,67.52 8.55,66.4 9.94,65.45 10.63,64.98 11.36,64.55 12.15,64.22 12.93,63.92 13.8,63.66 14.7,63.87 16.26,64.41 17.91,64.51 19.55,64.44 21.2,64.36 22.84,64.13 24.45,63.75 L 24.47,63.82 Z M 24.47,63.82" />
            <path id="joe01Canvas-bezier17" stroke="none" fill="rgb(51, 91, 113)" d="M 0.08,85.73 C 0.42,86.61 0.97,87.44 1.57,88.17 2.19,88.89 2.92,89.53 3.78,89.89 4.21,90.07 4.66,90.18 5.12,90.19 5.58,90.19 6.1,90.2 6.58,90.24 7.56,90.32 8.52,90.45 9.48,90.61 11.41,90.93 13.32,91.3 15.18,91.9 17.02,92.53 18.91,93.17 20.48,94.37 L 20.44,94.43 C 18.68,93.64 16.82,93.13 14.97,92.64 13.11,92.15 11.26,91.61 9.37,91.22 8.43,91.02 7.48,90.85 6.53,90.74 6.04,90.68 5.6,90.65 5.09,90.63 4.58,90.6 4.08,90.46 3.62,90.24 2.71,89.8 1.98,89.09 1.39,88.31 0.81,87.52 0.31,86.69 0,85.74 L 0.08,85.73 Z M 0.08,85.73" />
            <path id="joe01Canvas-bezier18" stroke="none" fill="rgb(51, 91, 113)" d="M 3.81,91.1 C 4.83,92.5 5.83,93.93 6.81,95.37 7.77,96.83 8.72,98.28 9.56,99.84 9.77,100.23 9.97,100.62 10.13,101.06 10.28,101.48 10.41,101.92 10.52,102.34 10.74,103.19 10.9,104.04 11.09,104.88 11.25,105.72 11.47,106.54 11.78,107.32 12.09,108.08 12.58,108.81 13.4,109.11 L 13.38,109.19 C 12.94,109.14 12.5,108.93 12.15,108.63 11.8,108.32 11.53,107.95 11.3,107.55 10.85,106.76 10.59,105.9 10.34,105.06 10.11,104.21 9.94,103.35 9.77,102.51 9.69,102.09 9.6,101.68 9.48,101.28 9.36,100.89 9.19,100.5 9.01,100.11 8.26,98.57 7.38,97.07 6.49,95.58 5.6,94.09 4.69,92.61 3.75,91.14 L 3.81,91.1 Z M 3.81,91.1" />
            <path id="joe01Canvas-bezier19" stroke="none" fill="rgb(51, 91, 113)" d="M 13.84,107.51 C 16.84,104.84 19.99,102.35 23.37,100.16 25.06,99.07 26.79,98 28.72,97.29 29.68,96.96 30.68,96.67 31.72,96.6 32.24,96.57 32.76,96.59 33.28,96.71 33.78,96.84 34.27,97.08 34.63,97.45 L 34.58,97.51 C 33.73,96.97 32.72,96.96 31.78,97.13 30.83,97.3 29.9,97.62 28.99,98.01 27.19,98.78 25.41,99.67 23.69,100.68 21.98,101.7 20.32,102.81 18.69,103.96 17.05,105.11 15.45,106.31 13.89,107.56 L 13.84,107.51 Z M 13.84,107.51" />
            <path id="joe01Canvas-bezier20" stroke="none" fill="rgb(51, 91, 113)" d="M 33.97,98.11 C 37.12,100.7 40.16,103.44 43.02,106.37 44.45,107.83 45.88,109.31 47.08,110.98 47.67,111.83 48.25,112.69 48.72,113.62 49.18,114.54 49.59,115.52 49.65,116.57 L 49.57,116.58 C 49.3,115.6 48.8,114.72 48.25,113.88 47.7,113.04 47.11,112.23 46.47,111.45 45.21,109.87 43.93,108.3 42.57,106.79 41.2,105.28 39.79,103.82 38.34,102.39 36.89,100.95 35.42,99.54 33.92,98.17 L 33.97,98.11 Z M 33.97,98.11" />
            <path id="joe01Canvas-bezier21" stroke="none" fill="rgb(51, 91, 113)" d="M 49.58,121.16 C 50.54,118.98 51.99,116.96 53.97,115.57 54.96,114.88 56.11,114.39 57.31,114.19 57.91,114.08 58.53,114.09 59.11,114.05 59.71,114.01 60.3,113.95 60.89,113.89 65.64,113.38 70.35,112.62 75.06,111.81 79.76,110.98 84.44,110.01 89.1,109.03 91.44,108.54 93.76,108 96.07,107.41 97.22,107.12 98.37,106.8 99.51,106.44 100.65,106.09 101.78,105.71 102.85,105.19 L 102.88,105.26 C 100.8,106.46 98.5,107.21 96.22,107.93 93.92,108.63 91.6,109.21 89.27,109.77 84.61,110.86 79.88,111.66 75.16,112.41 70.43,113.15 65.7,113.84 60.93,114.27 60.33,114.32 59.73,114.37 59.13,114.39 58.53,114.42 57.94,114.4 57.36,114.49 56.2,114.66 55.09,115.11 54.1,115.76 52.13,117.07 50.65,119.05 49.65,121.19 L 49.58,121.16 Z M 49.58,121.16" />
            <path id="joe01Canvas-bezier22" stroke="none" fill="rgb(51, 91, 113)" d="M 103.8,103.92 C 104.4,102.73 105.19,101.65 106.1,100.67 107.03,99.72 108.09,98.85 109.34,98.28 110.56,97.68 111.91,97.35 113.21,97.18 113.53,97.14 113.85,97.09 114.16,97.03 114.31,97 114.45,96.96 114.59,96.91 114.74,96.85 114.95,96.8 115.12,96.77 115.87,96.66 116.61,96.95 117.06,97.47 L 117.01,97.52 C 116.45,97.2 115.79,97.11 115.24,97.3 115.1,97.35 114.99,97.4 114.84,97.47 114.67,97.56 114.5,97.62 114.34,97.68 114,97.79 113.67,97.86 113.35,97.94 112.05,98.2 110.78,98.35 109.58,98.84 108.4,99.31 107.33,100.07 106.37,100.95 105.41,101.82 104.55,102.83 103.87,103.95 L 103.8,103.92 Z M 103.8,103.92" />
            <path id="joe01Canvas-bezier23" stroke="none" fill="rgb(51, 91, 113)" d="M 116.91,98.47 C 118.47,98.32 120.04,98.15 121.59,97.92 122.37,97.79 123.14,97.71 123.86,97.4 124.62,97.15 125.38,96.95 126.15,96.76 127.68,96.41 129.22,96.05 130.82,95.9 132.34,95.74 133.89,95.24 135.58,95.47 136,95.54 136.45,95.69 136.81,96.04 137.17,96.38 137.31,96.9 137.32,97.33 137.34,97.79 137.21,98.27 136.93,98.66 136.65,99.05 136.26,99.31 135.87,99.5 134.29,100.2 132.61,100.11 131.11,100.22 129.58,100.38 128.04,100.7 126.51,101.03 125.74,101.19 124.98,101.37 124.22,101.57 123.48,101.78 122.68,101.95 122.05,102.37 L 122,102.32 C 122.28,102.02 122.66,101.86 123.02,101.69 123.38,101.52 123.75,101.38 124.12,101.24 124.86,100.97 125.62,100.73 126.38,100.51 127.9,100.07 129.43,99.7 131.02,99.46 131.86,99.37 132.61,99.38 133.38,99.29 134.14,99.21 134.9,99.09 135.55,98.81 136.21,98.54 136.65,98.02 136.63,97.35 136.63,97 136.55,96.71 136.34,96.49 136.14,96.28 135.82,96.14 135.47,96.07 134.76,95.94 133.98,96 133.21,96.09 132.43,96.18 131.67,96.33 130.86,96.4 129.31,96.5 127.76,96.82 126.23,97.14 125.47,97.3 124.7,97.47 123.95,97.69 123.21,97.98 122.39,98.05 121.62,98.15 120.05,98.33 118.48,98.44 116.91,98.54 L 116.91,98.47 Z M 116.91,98.47" />
            <path id="joe01Canvas-bezier24" stroke="none" fill="rgb(51, 91, 113)" d="M 123.21,103.2 C 123.55,103.41 123.81,103.73 123.97,104.11 124.12,104.5 124.16,104.93 124.11,105.35 124.06,105.76 123.99,106.19 123.74,106.52 123.5,106.85 123.2,107.12 122.79,107.29 L 122.73,107.24 C 122.81,106.81 122.94,106.48 123.07,106.15 123.18,105.82 123.4,105.55 123.51,105.22 123.61,104.9 123.66,104.56 123.6,104.22 123.56,103.88 123.41,103.53 123.17,103.26 L 123.21,103.2 Z M 123.21,103.2" />
            <path id="joe01Canvas-bezier25" stroke="none" fill="rgb(51, 91, 113)" d="M 122.45,107.69 C 122.85,107.92 123.18,108.27 123.4,108.71 123.61,109.15 123.67,109.66 123.61,110.15 123.55,110.64 123.45,111.14 123.16,111.53 122.87,111.91 122.53,112.24 122.07,112.45 L 122.01,112.4 C 122.14,111.92 122.33,111.53 122.49,111.15 122.65,110.76 122.89,110.43 123.01,110.04 123.12,109.65 123.14,109.24 123.04,108.84 122.95,108.44 122.73,108.05 122.4,107.75 L 122.45,107.69 Z M 122.45,107.69" />
            <path id="joe01Canvas-bezier26" stroke="none" fill="rgb(51, 91, 113)" d="M 121.84,113.27 C 121.93,113.93 121.67,114.61 121.23,115.13 120.8,115.65 120.21,116.01 119.6,116.28 118.97,116.55 118.34,116.7 117.73,116.92 L 115.88,117.55 C 114.65,117.96 113.38,118.4 112.04,118.5 110.71,118.61 109.27,118.43 108.14,117.71 L 108.17,117.64 C 109.44,117.96 110.7,117.93 111.95,117.74 113.19,117.55 114.45,117.29 115.71,116.96 L 117.59,116.44 C 118.22,116.26 118.87,116.14 119.46,115.93 120.05,115.72 120.62,115.42 121.06,114.97 121.5,114.53 121.8,113.91 121.76,113.28 L 121.84,113.27 Z M 121.84,113.27" />
            <path id="joe01Canvas-bezier27" stroke="none" fill="rgb(51, 91, 113)" d="M 107.97,116.61 C 103.32,118.37 98.69,120.19 94.09,122.06 89.48,123.92 84.89,125.83 80.36,127.87 78.1,128.89 75.86,129.94 73.63,131.05 71.39,132.15 69.09,133.13 66.76,134.01 62.07,135.71 57.25,137.15 52.29,137.72 L 52.28,137.64 C 57.14,136.64 61.88,135.11 66.48,133.29 68.78,132.39 71.06,131.41 73.3,130.37 75.55,129.3 77.83,128.28 80.11,127.3 89.26,123.38 98.57,119.87 107.94,116.54 L 107.97,116.61 Z M 107.97,116.61" />
            <path id="joe01Canvas-bezier28" stroke="none" fill="rgb(51, 91, 113)" d="M 44.1,136.32 C 38.82,132.07 33.63,127.71 28.56,123.22 26.02,120.98 23.48,118.73 21.1,116.31 19.92,115.08 18.75,113.86 17.64,112.56 16.56,111.26 15.46,109.93 14.69,108.41 L 14.76,108.37 C 15.23,109.07 15.76,109.72 16.32,110.35 16.88,110.98 17.45,111.6 18.04,112.2 19.22,113.41 20.41,114.6 21.64,115.76 24.08,118.1 26.49,120.46 28.97,122.77 31.45,125.06 33.97,127.33 36.5,129.57 39.03,131.82 41.57,134.06 44.15,136.26 L 44.1,136.32 Z M 44.1,136.32" />
            <path id="joe01Canvas-bezier29" stroke="none" fill="rgb(51, 91, 113)" d="M 45.23,136.27 C 45.66,136.69 46.14,137.05 46.64,137.35 47.14,137.66 47.67,137.9 48.22,138.03 48.78,138.16 49.32,138.11 49.84,138.06 50.38,138.01 50.92,137.84 51.52,137.65 L 51.57,137.71 C 51.21,138.24 50.64,138.64 49.99,138.81 49.34,139 48.64,138.84 48.04,138.62 46.83,138.16 45.88,137.3 45.17,136.32 L 45.23,136.27 Z M 45.23,136.27" />
            <path id="joe01Canvas-bezier30" stroke="none" fill="rgb(51, 91, 113)" d="M 33.91,94.98 C 33.85,94.73 33.6,94.41 33.41,94.15 33.2,93.88 32.98,93.62 32.76,93.36 32.32,92.85 31.85,92.34 31.38,91.85 30.44,90.86 29.51,89.82 28.64,88.77 L 25.99,85.66 C 25.12,84.64 24.15,83.73 22.98,82.99 L 23.02,82.92 C 24.37,83.28 25.57,84.15 26.56,85.14 27.55,86.13 28.3,87.29 29.12,88.39 29.93,89.49 30.78,90.55 31.67,91.59 32.11,92.13 32.53,92.66 32.94,93.22 33.15,93.5 33.35,93.78 33.54,94.06 33.63,94.21 33.72,94.36 33.81,94.51 33.87,94.67 34,94.79 33.97,95.03 L 33.91,94.98 Z M 33.91,94.98" />
            <path id="joe01Canvas-bezier31" stroke="none" fill="rgb(51, 91, 113)" d="M 60.76,61.37 C 64.25,61.78 67.72,62.42 71.12,63.41 72.81,63.91 74.51,64.46 76.08,65.35 76.84,65.81 77.6,66.31 78.25,66.94 78.9,67.57 79.47,68.34 79.68,69.21 L 79.6,69.24 C 79.2,68.47 78.58,67.86 77.9,67.35 77.22,66.84 76.49,66.4 75.71,66.03 74.17,65.26 72.58,64.57 70.93,64 69.28,63.43 67.59,62.96 65.89,62.55 64.19,62.12 62.47,61.75 60.75,61.45 L 60.76,61.37 Z M 60.76,61.37" />
            <path id="joe01Canvas-bezier32" stroke="none" fill="rgb(51, 91, 113)" d="M 80.15,70.64 C 81.54,74.15 82.83,77.69 83.98,81.3 84.55,83.1 85.13,84.9 85.57,86.75 85.78,87.68 85.97,88.62 86.05,89.57 86.1,90.05 86.12,90.54 86.11,91.03 86.07,91.52 86.06,92.05 85.66,92.54 L 85.63,92.58 85.58,92.6 C 84.72,92.96 83.85,93.3 82.97,93.62 L 82.94,93.55 C 83.74,93.06 84.55,92.6 85.37,92.16 L 85.29,92.22 C 85.47,91.95 85.49,91.46 85.48,91.03 85.46,90.58 85.41,90.12 85.34,89.66 85.18,88.75 85,87.84 84.79,86.93 84.4,85.1 83.96,83.27 83.44,81.46 82.41,77.84 81.28,74.24 80.08,70.66 L 80.15,70.64 Z M 80.15,70.64" />
            <path id="joe01Canvas-bezier33" stroke="none" fill="rgb(51, 91, 113)" d="M 81.84,127.84 C 82.01,128.28 82.16,128.73 82.3,129.18 82.36,129.4 82.49,129.62 82.47,129.86 82.45,130.09 82.4,130.34 82.22,130.59 L 82.14,130.6 C 81.9,130.4 81.79,130.18 81.71,129.96 81.62,129.74 81.68,129.5 81.69,129.26 81.69,128.8 81.71,128.32 81.76,127.85 L 81.84,127.84 Z M 81.84,127.84" />
            <path id="joe01Canvas-bezier34" stroke="none" fill="rgb(51, 91, 113)" d="M 80.16,81.51 C 81.24,86.1 82.13,90.74 82.7,95.44 82.98,97.79 83.24,100.16 83.05,102.56 82.91,103.75 82.78,104.98 82.15,106.1 81.46,107.04 81.17,108.17 80.88,109.32 L 80.8,109.31 C 80.86,108.14 81.05,106.88 81.68,105.84 82.13,104.84 82.23,103.66 82.28,102.51 82.37,100.2 82.28,97.85 82.09,95.51 81.89,93.17 81.59,90.83 81.24,88.5 80.91,86.17 80.52,83.84 80.08,81.52 L 80.16,81.51 Z M 80.16,81.51" />
            <path id="joe01Canvas-bezier35" stroke="none" fill="rgb(51, 91, 113)" d="M 65.98,189.21 C 67.55,188.31 69.25,187.65 71,187.16 72.75,186.7 74.57,186.44 76.4,186.44 78.22,186.52 79.96,186.42 81.72,186.21 83.48,186.01 85.22,185.63 86.92,185.04 L 86.95,185.1 C 85.42,186.11 83.63,186.63 81.83,186.97 80.04,187.3 78.15,187.21 76.38,187.06 74.62,186.98 72.83,187.15 71.09,187.54 69.35,187.92 67.63,188.48 66.02,189.28 L 65.98,189.21 Z M 65.98,189.21" />
            <path id="joe01Canvas-bezier36" stroke="none" fill="rgb(51, 91, 113)" d="M 85.45,93.58 C 85.93,96.07 86.31,98.57 86.63,101.09 86.8,102.35 87,103.6 87.05,104.87 87.1,106.14 87.1,107.41 86.96,108.69 L 86.88,108.69 C 86.61,107.44 86.44,106.19 86.28,104.93 86.13,103.68 86.11,102.41 86.02,101.15 85.84,98.63 85.63,96.11 85.37,93.59 L 85.45,93.58 Z M 85.45,93.58" />
            <path id="joe01Canvas-bezier37" stroke="none" fill="rgb(51, 91, 113)" d="M 87.42,126.19 C 87.58,126.79 87.77,127.38 88.02,127.94 88.27,128.51 88.62,129.02 88.95,129.55 89.61,130.6 90.22,131.69 90.77,132.81 91.88,135.05 92.79,137.38 93.57,139.74 95.12,144.48 96.21,149.36 97.06,154.26 97.92,159.17 98.58,164.11 98.96,169.08 99.31,174.04 99.52,179.02 99.47,183.99 L 99.39,184 C 99.01,179.04 98.68,174.08 98.19,169.14 97.71,164.2 97.23,159.26 96.46,154.36 95.68,149.47 94.67,144.6 93.2,139.86 92.47,137.49 91.62,135.16 90.56,132.91 90.04,131.79 89.45,130.69 88.81,129.63 88.5,129.1 88.16,128.57 87.92,127.99 87.67,127.41 87.49,126.81 87.35,126.21 L 87.42,126.19 Z M 87.42,126.19" />
            <path id="joe01Canvas-bezier38" stroke="none" fill="rgb(51, 91, 113)" d="M 99.47,185.63 C 99.9,188.06 100.39,190.49 101.1,192.83 101.43,194.02 101.98,195.1 102.48,196.24 102.97,197.38 103.42,198.56 103.65,199.81 103.9,201.05 103.92,202.38 103.52,203.64 103.32,204.26 103.02,204.86 102.64,205.39 102.26,205.92 101.77,206.39 101.33,206.8 100.38,207.62 99.44,208.45 98.32,209.08 97.77,209.38 97.15,209.65 96.48,209.66 95.79,209.67 95.19,209.35 94.72,208.96 L 94.76,208.89 C 95.3,209.19 95.88,209.41 96.45,209.31 97.02,209.24 97.55,208.96 98.05,208.62 99.03,207.94 99.93,207.1 100.79,206.24 101.7,205.42 102.41,204.5 102.8,203.4 103.19,202.31 103.23,201.1 103.05,199.92 102.86,198.73 102.46,197.57 102.01,196.43 101.56,195.3 101.03,194.15 100.73,192.94 100.11,190.53 99.72,188.09 99.39,185.65 L 99.47,185.63 Z M 99.47,185.63" />
            <path id="joe01Canvas-bezier39" stroke="none" fill="rgb(51, 91, 113)" d="M 93.22,199.06 C 93.16,200.52 93.06,201.98 92.88,203.45 92.82,203.82 92.76,204.18 92.68,204.55 92.63,204.73 92.59,204.92 92.51,205.11 92.44,205.29 92.41,205.41 92.38,205.58 92.3,206.27 92.35,207.01 92.34,207.75 92.32,208.49 92.37,209.25 91.94,210.07 91.82,210.27 91.64,210.47 91.4,210.59 91.17,210.72 90.9,210.76 90.67,210.74 90.55,210.73 90.45,210.72 90.33,210.69 90.24,210.67 90.15,210.65 90.04,210.61 89.83,210.54 89.64,210.45 89.45,210.33 89.08,210.08 88.8,209.71 88.64,209.32 88.49,208.93 88.42,208.54 88.4,208.16 88.35,207.4 88.43,206.68 88.33,205.96 L 88.4,205.94 C 88.73,206.63 88.77,207.4 88.93,208.08 89.08,208.78 89.34,209.4 89.86,209.68 89.98,209.76 90.13,209.82 90.27,209.86 90.33,209.88 90.42,209.9 90.51,209.92 90.57,209.93 90.65,209.94 90.71,209.95 90.98,209.96 91.14,209.89 91.3,209.67 91.6,209.2 91.67,208.43 91.72,207.73 91.77,207 91.76,206.27 91.89,205.5 91.92,205.31 92,205.08 92.08,204.93 92.14,204.78 92.2,204.61 92.25,204.44 92.35,204.1 92.42,203.74 92.49,203.39 92.78,201.96 92.98,200.51 93.14,199.05 L 93.22,199.06 Z M 93.22,199.06" />
            <path id="joe01Canvas-bezier40" stroke="none" fill="rgb(51, 91, 113)" d="M 90.81,186.77 C 91.02,188.19 91.15,189.63 90.86,191.08 90.77,191.44 90.65,191.8 90.43,192.14 90.32,192.3 90.16,192.46 90.01,192.57 89.89,192.67 89.8,192.78 89.7,192.92 89.34,193.46 89.09,194.13 88.88,194.8 88.46,196.13 88.23,197.53 87.97,198.91 87.73,200.29 87.44,201.68 87.54,203.09 L 87.47,203.11 C 87.17,202.43 87.12,201.68 87.09,200.96 87.07,200.23 87.12,199.51 87.21,198.79 87.38,197.35 87.78,195.95 88.29,194.59 88.56,193.91 88.84,193.24 89.3,192.62 89.41,192.47 89.57,192.31 89.73,192.2 89.87,192.1 89.97,192.01 90.07,191.88 90.26,191.63 90.39,191.31 90.49,190.98 90.86,189.65 90.84,188.19 90.73,186.78 L 90.81,186.77 Z M 90.81,186.77" />
            <path id="joe01Canvas-bezier41" stroke="none" fill="rgb(51, 91, 113)" d="M 101.05,201.51 C 100.14,203.09 99.2,204.65 98.16,206.16 97.9,206.54 97.64,206.92 97.34,207.3 97.01,207.72 96.47,207.99 95.98,208.07 94.97,208.23 94.01,208.02 93.17,207.6 L 93.19,207.53 C 94.11,207.54 95.02,207.54 95.8,207.32 96.19,207.2 96.52,207.06 96.78,206.79 97.09,206.49 97.38,206.14 97.67,205.79 98.8,204.38 99.89,202.92 100.98,201.47 L 101.05,201.51 Z M 101.05,201.51" />
            <path id="joe01Canvas-bezier42" stroke="none" fill="rgb(51, 91, 113)" d="M 88.32,184.7 C 87.5,180.39 86.71,176.08 85.96,171.76 85.22,167.44 84.5,163.11 83.96,158.75 83.46,154.37 83.28,149.98 83.18,145.6 L 83.07,139.03 C 83.06,137.93 83.04,136.84 83,135.74 82.99,135.2 82.97,134.65 82.94,134.11 82.89,133.57 82.89,132.99 82.68,132.52 L 82.74,132.47 C 83.02,132.99 83.05,133.54 83.15,134.08 83.23,134.63 83.29,135.18 83.35,135.72 83.46,136.82 83.53,137.91 83.61,139.01 83.75,141.2 83.84,143.39 83.95,145.57 84.15,149.95 84.16,154.34 84.57,158.68 85.03,163.03 85.68,167.37 86.34,171.7 86.99,176.03 87.68,180.36 88.4,184.68 L 88.32,184.7 Z M 88.32,184.7" />
            <path id="joe01Canvas-bezier43" stroke="none" fill="rgb(51, 91, 113)" d="M 14.76,112.44 C 14.45,113.34 14.88,114.29 15.51,114.92 15.82,115.26 16.19,115.51 16.58,115.82 16.96,116.14 17.3,116.49 17.62,116.87 18.24,117.63 18.8,118.48 19.02,119.47 19.13,119.96 19.19,120.48 19.12,120.98 19.06,121.49 18.87,122 18.53,122.36 L 18.46,122.32 C 18.74,121.41 18.56,120.52 18.28,119.68 17.99,118.84 17.65,117.99 17.13,117.24 16.87,116.87 16.57,116.51 16.25,116.19 15.92,115.88 15.52,115.56 15.22,115.17 14.6,114.42 14.26,113.31 14.69,112.41 L 14.76,112.44 Z M 14.76,112.44" />
            <path id="joe01Canvas-bezier44" stroke="none" fill="rgb(51, 91, 113)" d="M 21.2,120.36 C 20.75,121.65 20.34,122.96 19.97,124.27 19.61,125.58 19.24,126.91 19.13,128.23 19.06,129.52 19.53,130.81 19.67,132.21 19.83,133.6 19.63,135.12 18.89,136.31 L 18.82,136.28 C 18.97,135.6 19.08,134.94 19.09,134.28 19.09,133.62 19.02,132.97 18.91,132.31 18.69,131.01 18.35,129.63 18.52,128.16 18.72,126.76 19.16,125.46 19.6,124.16 20.07,122.86 20.58,121.59 21.12,120.33 L 21.2,120.36 Z M 21.2,120.36" />
            <path id="joe01Canvas-bezier45" stroke="none" fill="rgb(51, 91, 113)" d="M 27.92,125.52 C 28.65,127.94 28.48,130.69 27.22,132.96 26.9,133.52 26.53,134.05 26.1,134.54 25.67,135.04 25.18,135.43 24.81,135.91 24.05,136.87 23.53,138.01 23.13,139.18 22.35,141.54 22.08,144.05 21.75,146.53 21.39,149.02 21.25,151.57 20.5,154.01 L 20.43,154 C 20.73,151.5 20.76,148.98 20.99,146.45 21.22,143.93 21.66,141.39 22.55,138.98 23,137.77 23.58,136.6 24.42,135.6 24.84,135.08 25.36,134.69 25.77,134.24 26.19,133.79 26.57,133.3 26.88,132.77 28.18,130.66 28.47,127.97 27.85,125.55 L 27.92,125.52 Z M 27.92,125.52" />
            <path id="joe01Canvas-bezier46" stroke="none" fill="rgb(51, 91, 113)" d="M 24.24,150.75 C 24.03,150.77 23.9,150.99 23.8,151.18 23.7,151.37 23.62,151.58 23.55,151.8 23.4,152.22 23.29,152.65 23.17,153.09 22.93,153.96 22.71,154.83 22.44,155.69 22.17,156.56 21.87,157.41 21.47,158.23 21.27,158.64 21.05,159.04 20.8,159.42 20.53,159.8 20.26,160.14 20.06,160.54 19.24,162.12 18.74,163.86 18.3,165.6 17.87,167.34 17.55,169.11 17.33,170.89 17.12,172.67 16.98,174.47 17.12,176.24 17.16,176.68 17.22,177.12 17.32,177.54 17.42,177.94 17.6,178.4 17.68,178.86 17.85,179.77 17.91,180.68 17.93,181.59 17.97,185.22 17.55,188.82 17.01,192.39 L 16.61,192.06 C 20.19,190.78 23.85,189.81 27.59,189.13 31.33,188.49 35.16,188.15 38.98,188.65 39.94,188.78 40.85,189.02 41.77,189.15 42.69,189.3 43.62,189.41 44.55,189.48 46.41,189.64 48.29,189.64 50.17,189.59 52.04,189.53 53.92,189.38 55.79,189.15 57.66,188.93 59.52,188.65 61.36,188.26 L 61.38,188.33 C 57.73,189.3 53.98,189.89 50.19,190.13 48.3,190.26 46.4,190.26 44.5,190.15 43.55,190.09 42.6,190 41.66,189.87 40.71,189.74 39.78,189.53 38.87,189.41 35.18,188.92 31.41,189.26 27.72,189.87 24.03,190.49 20.36,191.41 16.82,192.63 L 16.34,192.79 16.42,192.3 C 16.98,188.76 17.44,185.17 17.43,181.59 17.42,180.7 17.38,179.81 17.22,178.94 17.16,178.51 17,178.12 16.88,177.65 16.78,177.19 16.72,176.73 16.69,176.28 16.56,174.45 16.72,172.64 16.96,170.85 17.2,169.05 17.55,167.28 18.01,165.53 18.47,163.78 19,162.04 19.86,160.43 20.07,160.02 20.37,159.65 20.62,159.3 20.88,158.93 21.1,158.54 21.3,158.14 21.7,157.34 22.01,156.5 22.29,155.65 22.57,154.79 22.81,153.92 23.06,153.06 23.18,152.62 23.31,152.19 23.46,151.76 23.54,151.55 23.62,151.34 23.73,151.14 23.84,150.95 23.97,150.7 24.23,150.68 L 24.24,150.75 Z M 24.24,150.75" />
            <path id="joe01Canvas-bezier47" stroke="none" fill="rgb(51, 91, 113)" d="M 18.91,192.35 C 18.3,196.24 17.83,200.15 17.52,204.06 17.22,207.97 17.03,211.92 17.44,215.8 17.55,216.78 17.74,217.69 17.96,218.68 18.15,219.66 18.28,220.65 18.35,221.65 18.51,223.63 18.45,225.62 18.29,227.6 18.09,229.57 17.82,231.53 17.42,233.47 17.01,235.4 16.58,237.33 15.87,239.18 L 15.8,239.15 C 16.06,238.21 16.24,237.24 16.42,236.28 16.6,235.31 16.76,234.34 16.9,233.37 17.18,231.43 17.41,229.49 17.52,227.54 17.65,225.59 17.7,223.64 17.59,221.7 17.54,220.73 17.45,219.76 17.28,218.8 17.1,217.87 16.91,216.84 16.83,215.87 16.48,211.9 16.76,207.95 17.14,204.03 17.55,200.11 18.12,196.21 18.84,192.34 L 18.91,192.35 Z M 18.91,192.35" />
            <path id="joe01Canvas-bezier48" stroke="none" fill="rgb(51, 91, 113)" d="M 26.65,226.91 L 21.27,236.01 C 19.47,239.01 17.59,242.05 15.74,244.98 14.98,246.49 14.71,248.24 14.58,249.96 14.45,251.69 14.45,253.44 14.49,255.19 14.53,258.69 14.82,262.21 14.73,265.74 L 14.65,265.74 C 14.3,262.23 13.9,258.74 13.72,255.21 13.65,253.44 13.64,251.67 13.82,249.89 14.01,248.12 14.33,246.32 15.2,244.69 17.17,241.71 19.06,238.8 20.95,235.8 L 26.58,226.87 26.65,226.91 Z M 26.65,226.91" />
            <path id="joe01Canvas-bezier49" stroke="none" fill="rgb(51, 91, 113)" d="M 23.1,253.23 C 21.57,256.62 20.64,260.24 20.02,263.9 L 19.11,269.41 C 18.78,271.24 18.4,273.12 17.52,274.82 16.75,276.47 16.23,278.26 15.79,280.04 15.35,281.84 14.99,283.65 14.71,285.47 14.56,286.39 14.44,287.3 14.36,288.22 14.28,289.13 14.23,290.06 14.34,290.93 14.48,291.84 14.71,292.73 14.85,293.67 14.91,294.14 14.95,294.63 14.83,295.11 14.72,295.6 14.39,296 14,296.26 L 13.95,296.2 C 14.29,295.9 14.55,295.5 14.61,295.07 14.68,294.63 14.61,294.18 14.51,293.73 14.31,292.84 14.02,291.95 13.82,291.03 13.61,290.06 13.66,289.11 13.7,288.17 13.74,287.23 13.83,286.3 13.95,285.37 14.2,283.51 14.56,281.67 15.05,279.85 15.55,278.05 16.12,276.25 16.97,274.55 17.84,272.94 18.25,271.13 18.62,269.32 L 19.64,263.83 C 20.36,260.17 21.41,256.55 23.03,253.19 L 23.1,253.23 Z M 23.1,253.23" />
            <path id="joe01Canvas-bezier50" stroke="none" fill="rgb(51, 91, 113)" d="M 21.3,302.34 C 21.02,302.4 20.78,302.28 20.55,302.21 L 19.85,301.94 C 19.39,301.77 18.92,301.6 18.45,301.47 17.5,301.2 16.51,301.09 15.57,301.26 15.1,301.34 14.64,301.5 14.22,301.72 14.01,301.83 13.77,301.96 13.53,302.05 13.41,302.1 13.28,302.15 13.13,302.18 13.05,302.19 12.97,302.2 12.87,302.19 12.78,302.19 12.6,302.12 12.53,301.97 12.41,301.67 12.51,301.54 12.55,301.4 12.6,301.26 12.66,301.14 12.73,301.03 12.86,300.8 13.01,300.59 13.16,300.38 13.46,299.97 13.78,299.58 14.12,299.21 14.77,298.45 15.5,297.72 16.23,297.07 16.9,296.46 17.29,295.6 17.57,294.69 18.17,292.86 18.22,290.88 18.48,288.89 L 18.56,288.9 C 18.74,290.86 18.81,292.9 18.31,294.9 18.17,295.4 18,295.89 17.75,296.37 17.62,296.6 17.48,296.83 17.31,297.04 17.15,297.26 16.92,297.48 16.75,297.63 15.96,298.26 15.26,298.91 14.57,299.62 14.23,299.98 13.9,300.34 13.6,300.72 13.45,300.91 13.31,301.1 13.19,301.3 13.13,301.39 13.07,301.49 13.03,301.59 12.98,301.67 12.98,301.8 12.97,301.74 12.89,301.66 12.94,301.73 13.05,301.7 13.14,301.68 13.25,301.65 13.36,301.61 13.58,301.53 13.8,301.43 14.02,301.32 14.49,301.1 15,300.95 15.51,300.88 16.54,300.74 17.57,300.93 18.51,301.25 18.99,301.4 19.46,301.6 19.91,301.8 L 20.59,302.1 C 20.82,302.18 21.06,302.31 21.28,302.27 L 21.3,302.34 Z M 21.3,302.34" />
            <path id="joe01Canvas-bezier51" stroke="none" fill="rgb(51, 91, 113)" d="M 14.11,303.56 C 14.87,306.8 15.54,310.06 16.02,313.35 16.24,315.01 16.43,316.66 16.37,318.36 16.35,318.79 16.31,319.21 16.19,319.65 16.14,319.87 16.04,320.08 15.99,320.25 15.93,320.44 15.87,320.63 15.83,320.83 15.64,321.61 15.54,322.43 15.47,323.25 15.33,324.88 15.33,326.54 15.44,328.18 15.55,329.81 15.71,331.46 16.14,333.01 16.35,333.76 16.63,334.57 17.14,335.02 17.28,335.12 17.52,335.32 17.64,335.52 17.78,335.72 17.88,335.95 17.95,336.18 18.07,336.63 18.07,337.09 18.02,337.52 17.92,338.38 17.66,339.19 17.35,339.97 L 17.1,340.55 17.04,340.69 17.02,340.75 C 17.01,340.76 17.02,340.75 17.02,340.74 17.07,340.77 16.91,340.55 16.88,340.62 16.85,340.61 16.8,340.65 16.81,340.65 16.8,340.65 16.81,340.65 16.82,340.64 16.87,340.56 16.94,340.47 16.99,340.39 L 17.7,339.36 17.77,339.4 17.18,340.51 C 17.13,340.6 17.09,340.69 17.02,340.79 17.02,340.8 17.01,340.81 16.99,340.83 16.99,340.84 16.93,340.88 16.9,340.88 16.87,340.94 16.7,340.71 16.76,340.74 16.76,340.72 16.76,340.69 16.76,340.69 L 16.79,340.6 16.83,340.45 17.02,339.86 C 17.26,339.08 17.46,338.27 17.49,337.48 17.51,336.69 17.38,335.91 16.73,335.54 15.96,334.89 15.68,334.03 15.4,333.22 14.92,331.57 14.74,329.89 14.68,328.21 14.62,326.54 14.67,324.86 14.85,323.19 14.95,322.35 15.07,321.52 15.29,320.69 15.34,320.48 15.4,320.28 15.48,320.07 15.55,319.85 15.64,319.69 15.68,319.51 15.79,319.14 15.84,318.73 15.87,318.33 15.97,316.7 15.82,315.04 15.64,313.4 15.27,310.11 14.69,306.83 14.03,303.58 L 14.11,303.56 Z M 14.11,303.56" />
            <path id="joe01Canvas-bezier52" stroke="none" fill="rgb(51, 91, 113)" d="M 19.55,333.94 C 19.63,336.55 19.59,339.16 19.26,341.77 19.16,342.42 19.05,343.06 18.89,343.71 18.71,344.36 18.53,344.95 18.45,345.59 18.26,346.85 18.27,348.15 18.27,349.44 18.28,350.75 18.34,352.06 18.1,353.42 17.97,354.07 17.7,354.82 17.19,355.34 L 17.03,355.52 C 17.01,355.54 16.96,355.59 16.97,355.58 L 16.99,355.55 C 16.82,355.59 17.37,355.59 16.72,354.98 16.48,354.95 16.42,355.05 16.44,355.03 16.43,355.03 16.43,355.03 16.44,355.02 L 16.48,354.99 16.87,354.69 C 17.14,354.49 17.42,354.29 17.69,354.11 18.83,353.4 20.05,352.82 21.35,352.49 22.65,352.16 24.02,352.09 25.31,352.38 L 25.3,352.45 C 22.68,352.32 20.19,353.29 18.12,354.75 17.86,354.93 17.6,355.12 17.35,355.31 L 16.98,355.61 16.92,355.66 16.87,355.69 C 16.88,355.67 16.82,355.78 16.57,355.75 15.92,355.13 16.47,355.13 16.3,355.16 L 16.33,355.12 C 16.39,355.04 16.4,355.04 16.43,355 L 16.59,354.81 C 17.01,354.39 17.21,353.87 17.35,353.26 17.62,352.05 17.61,350.74 17.66,349.44 17.69,348.14 17.72,346.81 17.96,345.5 18.06,344.85 18.28,344.19 18.46,343.59 18.63,342.98 18.77,342.34 18.87,341.71 19.31,339.15 19.45,336.54 19.47,333.94 L 19.55,333.94 Z M 19.55,333.94" />
            <path id="joe01Canvas-bezier53" stroke="none" fill="rgb(51, 91, 113)" d="M 24.09,354.4 C 25.36,354.8 26.68,355.06 28.01,355.12 29.31,355.17 30.71,355.03 31.73,354.26 31.99,354.07 32.21,353.84 32.39,353.59 32.58,353.31 32.82,353.03 33.07,352.8 33.59,352.33 34.19,351.97 34.79,351.66 36,351.05 37.29,350.62 38.27,349.82 38.75,349.42 39.11,348.92 39.27,348.34 39.44,347.77 39.43,347.13 39.34,346.51 39.12,345.23 38.83,343.93 38.51,342.64 38.23,341.35 37.88,340.01 37.92,338.62 37.95,337.24 38.34,335.91 38.88,334.69 L 38.96,334.71 C 38.62,336 38.37,337.32 38.46,338.61 38.53,339.9 38.9,341.17 39.26,342.45 39.61,343.75 39.91,345.06 40.1,346.41 40.17,347.11 40.16,347.84 39.93,348.55 39.7,349.25 39.22,349.86 38.66,350.29 37.52,351.16 36.2,351.54 35.02,352.11 34.42,352.39 33.85,352.71 33.37,353.13 33.12,353.34 32.92,353.56 32.72,353.83 32.51,354.12 32.25,354.37 31.96,354.57 30.77,355.38 29.32,355.45 27.99,355.35 26.65,355.24 25.33,354.92 24.07,354.47 L 24.09,354.4 Z M 24.09,354.4" />
            <path id="joe01Canvas-bezier54" stroke="none" fill="rgb(51, 91, 113)" d="M 39.75,332.14 C 39.84,331.91 39.67,331.65 39.51,331.45 39.35,331.24 39.15,331.05 38.94,330.88 38.73,330.7 38.47,330.58 38.3,330.35 38.13,330.13 37.97,329.89 37.88,329.54 L 37.93,329.48 C 38.29,329.5 38.57,329.62 38.82,329.78 39.08,329.94 39.23,330.22 39.4,330.47 39.57,330.72 39.73,330.98 39.85,331.27 39.94,331.55 40.05,331.93 39.8,332.2 L 39.75,332.14 Z M 39.75,332.14" />
            <path id="joe01Canvas-bezier55" stroke="none" fill="rgb(51, 91, 113)" d="M 31.9,331.51 L 34.97,327.96 C 36.02,326.8 37.06,325.64 38.19,324.52 38.33,324.38 38.47,324.24 38.63,324.1 38.78,323.97 38.79,323.93 38.84,323.78 38.92,323.51 38.87,323.14 38.81,322.79 38.66,322.07 38.43,321.33 38.2,320.59 37.98,319.85 37.74,319.1 37.56,318.33 37.37,317.56 37.21,316.78 37.23,315.98 L 37.31,315.97 C 37.71,317.48 38.39,318.87 38.93,320.35 39.19,321.09 39.44,321.84 39.56,322.67 39.6,323.08 39.65,323.51 39.49,323.99 39.43,324.22 39.21,324.5 39.04,324.61 38.9,324.72 38.75,324.84 38.61,324.97 37.46,326 36.36,327.12 35.25,328.23 L 31.96,331.56 31.9,331.51 Z M 31.9,331.51" />
            <path id="joe01Canvas-bezier56" stroke="none" fill="rgb(51, 91, 113)" d="M 39.21,317.26 C 38.15,315.53 37.77,313.45 37.88,311.45 37.94,310.44 38.13,309.44 38.43,308.47 38.57,307.99 38.76,307.52 38.93,307.05 39.09,306.58 39.23,306.1 39.35,305.62 39.82,303.68 40.04,301.68 40.17,299.69 40.29,297.69 40.29,295.69 40.2,293.69 40.12,291.7 39.94,289.7 39.61,287.73 39.45,286.75 39.25,285.77 38.99,284.82 38.85,284.34 38.7,283.87 38.52,283.42 38.33,283 38.12,282.45 38.04,281.94 37.71,279.89 37.98,277.86 38.26,275.87 38.56,273.88 38.97,271.91 39.43,269.95 40.34,266.03 41.42,262.16 42.51,258.3 43.07,256.37 43.63,254.45 44.15,252.52 44.39,251.57 44.65,250.54 45.04,249.6 45.41,248.65 45.83,247.73 46.27,246.82 48.09,243.21 50.17,239.78 52.21,236.32 53.24,234.6 54.26,232.87 55.21,231.11 55.7,230.24 56.16,229.35 56.58,228.45 56.99,227.54 57.4,226.61 57.53,225.62 L 57.61,225.63 C 57.52,226.64 57.15,227.6 56.78,228.53 56.4,229.46 55.97,230.37 55.53,231.28 54.62,233.07 53.65,234.83 52.68,236.59 50.73,240.1 48.69,243.56 46.96,247.16 46.08,248.96 45.31,250.74 44.89,252.71 44.37,254.66 43.8,256.58 43.24,258.51 42.1,262.35 40.98,266.2 40.03,270.09 39.56,272.03 39.13,273.99 38.81,275.96 38.52,277.92 38.24,279.93 38.53,281.86 38.61,282.35 38.76,282.74 38.97,283.24 39.16,283.72 39.31,284.21 39.44,284.7 39.71,285.68 39.9,286.67 40.05,287.66 40.36,289.66 40.52,291.67 40.59,293.68 40.65,295.69 40.62,297.7 40.48,299.71 40.33,301.71 40.08,303.72 39.58,305.68 39.45,306.16 39.31,306.65 39.13,307.12 38.96,307.6 38.76,308.06 38.61,308.53 38.31,309.48 38.11,310.46 38.03,311.45 37.9,313.43 38.26,315.49 39.27,317.22 L 39.21,317.26 Z M 39.21,317.26" />
            <path id="joe01Canvas-bezier57" stroke="none" fill="rgb(51, 91, 113)" d="M 85.58,188.42 C 85.87,191.97 85.87,195.54 85.7,199.1 85.53,202.66 85.16,206.22 84.56,209.73 84.28,211.49 83.87,213.24 83.53,214.98 83.18,216.72 82.88,218.47 82.63,220.23 82.12,223.74 81.78,227.28 81.69,230.83 81.61,234.37 81.72,237.94 82.41,241.38 82.58,242.25 82.8,243.08 83.1,243.91 83.39,244.8 83.53,245.71 83.63,246.6 83.83,248.4 83.86,250.19 83.84,251.98 83.76,255.56 83.5,259.12 83.11,262.66 82.91,264.44 82.69,266.2 82.43,267.97 82.13,269.73 81.9,271.5 81.38,273.22 L 81.3,273.19 C 81.73,271.47 81.87,269.69 82.08,267.92 82.27,266.16 82.44,264.39 82.58,262.61 82.85,259.07 83.07,255.52 83.07,251.97 83.09,250.2 83.06,248.43 82.87,246.69 82.77,245.82 82.64,244.95 82.37,244.15 82.07,243.31 81.84,242.41 81.66,241.53 81,237.98 80.95,234.38 81.07,230.81 81.21,227.24 81.58,223.68 82.13,220.15 82.41,218.39 82.73,216.63 83.09,214.89 83.46,213.14 83.88,211.42 84.18,209.67 84.83,206.17 85.25,202.64 85.47,199.09 85.69,195.54 85.74,191.97 85.5,188.43 L 85.58,188.42 Z M 85.58,188.42" />
            <path id="joe01Canvas-bezier58" stroke="none" fill="rgb(51, 91, 113)" d="M 80.19,267.52 C 79.74,269.13 79.37,270.76 79.07,272.39 78.78,274.02 78.53,275.68 78.59,277.3 78.61,277.7 78.66,278.1 78.75,278.47 78.85,278.84 79.01,279.18 79.24,279.35 79.4,279.48 79.57,279.63 79.73,279.81 79.89,279.97 80.04,280.15 80.16,280.34 80.41,280.73 80.6,281.14 80.74,281.57 81.2,283.32 80.88,285.1 80.19,286.63 L 80.11,286.6 C 80.39,284.97 80.53,283.28 80,281.81 79.75,281.07 79.33,280.44 78.74,279.93 78.33,279.55 78.18,279.07 78.08,278.63 77.99,278.18 77.97,277.75 77.97,277.32 77.99,275.6 78.33,273.94 78.7,272.31 79.1,270.68 79.57,269.08 80.11,267.5 L 80.19,267.52 Z M 80.19,267.52" />
            <path id="joe01Canvas-bezier59" stroke="none" fill="rgb(51, 91, 113)" d="M 77.65,285.11 C 77.46,286.68 77.74,288.29 78.38,289.71 78.69,290.42 79.1,291.09 79.59,291.69 80.09,292.31 80.61,292.95 81.02,293.67 81.44,294.38 81.74,295.22 81.79,296.07 81.84,296.93 81.68,297.76 81.46,298.55 80.98,300.11 80.29,301.56 79.5,302.95 L 79.42,302.93 C 79.83,301.37 80.36,299.86 80.71,298.35 80.9,297.6 81.03,296.84 81.02,296.1 81.03,295.36 80.82,294.64 80.48,293.96 80.13,293.27 79.67,292.64 79.2,292 78.71,291.34 78.31,290.61 78.02,289.86 77.45,288.33 77.27,286.67 77.57,285.09 L 77.65,285.11 Z M 77.65,285.11" />
            <path id="joe01Canvas-bezier60" stroke="none" fill="rgb(51, 91, 113)" d="M 80.68,304.48 C 79.52,306.71 78.83,309.23 78.97,311.72 79.03,312.98 79.35,314.15 79.87,315.33 80.31,316.56 80.45,317.88 80.43,319.16 80.42,321.74 79.79,324.26 79.99,326.68 80.04,327.28 80.16,327.87 80.39,328.42 80.6,328.97 80.98,329.43 81.32,330.01 81.65,330.56 81.96,331.13 82.15,331.77 82.24,332.09 82.3,332.44 82.21,332.78 82.12,333.15 81.74,333.37 81.41,333.35 L 81.41,333.27 C 81.71,333.23 81.96,333.01 81.99,332.73 82.03,332.46 81.94,332.16 81.82,331.88 81.59,331.32 81.24,330.8 80.87,330.3 80.51,329.82 80.06,329.31 79.78,328.69 79.49,328.08 79.31,327.42 79.22,326.76 78.92,324.1 79.73,321.63 79.82,319.15 79.87,317.91 79.78,316.66 79.39,315.49 78.92,314.34 78.6,313.02 78.58,311.74 78.55,309.15 79.35,306.64 80.61,304.44 L 80.68,304.48 Z M 80.68,304.48" />
            <path id="joe01Canvas-bezier61" stroke="none" fill="rgb(51, 91, 113)" d="M 79.47,333.35 C 77.56,333.87 75.73,334.65 74.04,335.64 73.19,336.13 72.37,336.68 71.62,337.29 70.88,337.94 70.02,338.54 69.14,339.01 67.36,339.97 65.46,340.69 63.49,341.08 62.5,341.26 61.5,341.4 60.49,341.41 59.98,341.41 59.47,341.39 58.97,341.31 58.47,341.22 57.95,341.11 57.54,340.78 L 57.59,340.71 C 58.02,340.93 58.52,340.96 59,340.97 59.48,340.97 59.97,340.94 60.45,340.87 61.42,340.75 62.38,340.58 63.32,340.33 65.21,339.86 67.1,339.32 68.85,338.47 69.74,338.03 70.53,337.53 71.31,336.9 72.11,336.3 72.96,335.77 73.85,335.3 75.63,334.39 77.51,333.69 79.45,333.27 L 79.47,333.35 Z M 79.47,333.35" />
            <path id="joe01Canvas-bezier62" stroke="none" fill="rgb(51, 91, 113)" d="M 57.53,338.89 C 56.93,337.59 56.46,336.22 56.16,334.79 55.89,333.38 55.78,331.88 56.2,330.41 56.3,330.05 56.44,329.69 56.63,329.35 L 57.16,328.41 C 57.52,327.79 57.93,327.19 58.3,326.6 58.69,326.01 59.02,325.43 59.17,324.78 59.32,324.12 59.31,323.41 59.31,322.69 L 59.38,322.67 C 59.61,323.36 59.75,324.09 59.7,324.86 59.66,325.63 59.32,326.36 58.97,326.99 58.6,327.63 58.2,328.22 57.81,328.81 L 57.22,329.7 C 57.04,329.98 56.9,330.29 56.78,330.6 56.33,331.89 56.35,333.34 56.54,334.73 56.73,336.14 57.1,337.53 57.6,338.86 L 57.53,338.89 Z M 57.53,338.89" />
            <path id="joe01Canvas-bezier63" stroke="none" fill="rgb(51, 91, 113)" d="M 57.53,324.97 C 56.91,323.58 56.35,322.16 55.86,320.7 55.4,319.24 54.98,317.76 54.87,316.18 54.84,315.78 54.84,315.38 54.9,314.97 54.94,314.76 54.99,314.55 55.07,314.34 55.14,314.15 55.21,313.98 55.3,313.79 55.63,313.07 56.12,312.42 56.53,311.82 56.96,311.23 57.23,310.6 57.36,309.87 57.5,309.15 57.51,308.39 57.53,307.63 L 57.61,307.62 C 57.8,308.36 57.92,309.13 57.89,309.93 57.88,310.73 57.6,311.56 57.18,312.24 56.36,313.57 55.37,314.65 55.48,316.16 55.51,317.63 55.85,319.13 56.23,320.59 56.61,322.06 57.08,323.51 57.6,324.94 L 57.53,324.97 Z M 57.53,324.97" />
            <path id="joe01Canvas-bezier64" stroke="none" fill="rgb(51, 91, 113)" d="M 56.13,310.41 C 55.19,306.9 54.34,303.35 53.59,299.78 52.87,296.21 52.22,292.62 51.92,288.96 51.85,288.05 51.81,287.13 51.82,286.2 51.84,285.27 51.95,284.35 52.08,283.44 52.35,281.62 52.81,279.83 53.33,278.08 53.86,276.33 54.42,274.61 54.86,272.86 55.28,271.12 55.56,269.3 55.13,267.52 L 55.21,267.5 C 55.86,269.24 55.71,271.17 55.38,272.97 55.05,274.78 54.52,276.53 54.07,278.29 53.13,281.79 52.22,285.3 52.54,288.92 52.75,292.53 53.32,296.13 53.97,299.71 54.62,303.29 55.36,306.85 56.21,310.4 L 56.13,310.41 Z M 56.13,310.41" />
            <path id="joe01Canvas-bezier65" stroke="none" fill="rgb(51, 91, 113)" d="M 52.12,275.48 C 52.23,272.9 52.29,270.31 52.32,267.72 52.36,265.14 52.36,262.56 52.29,259.97 52.22,257.39 52.05,254.82 51.86,252.26 51.78,250.98 51.64,249.7 51.44,248.44 51.34,247.81 51.21,247.18 51.02,246.57 50.85,245.97 50.62,245.36 50.19,244.89 L 50.24,244.83 C 50.77,245.24 51.08,245.86 51.35,246.45 51.61,247.06 51.8,247.69 51.96,248.33 52.28,249.6 52.46,250.89 52.63,252.19 52.92,254.78 52.92,257.38 52.91,259.97 52.89,265.15 52.62,270.33 52.19,275.48 L 52.12,275.48 Z M 52.12,275.48" />
            <path id="joe01Canvas-bezier66" stroke="none" fill="rgb(51, 91, 113)" d="M 35.21,191.34 C 35.06,192.12 34.55,192.73 34.07,193.32 33.57,193.91 33.01,194.44 32.43,194.94 31.24,195.92 29.94,196.75 28.57,197.47 27.21,198.18 25.8,198.83 24.31,199.24 22.83,199.65 21.31,199.93 19.77,200.01 L 19.76,199.93 C 21.21,199.45 22.66,199.01 24.08,198.51 25.5,198.01 26.93,197.55 28.3,196.92 29.66,196.29 30.98,195.54 32.19,194.64 32.79,194.19 33.37,193.71 33.9,193.17 34.4,192.63 34.95,192.05 35.14,191.33 L 35.21,191.34 Z M 35.21,191.34" />
            <path id="joe01Canvas-bezier67" stroke="none" fill="rgb(51, 91, 113)" d="M 82.75,188.43 C 82.77,189.12 82.86,189.84 82.94,190.54 83.02,191.24 83.11,191.94 83.23,192.63 83.34,193.32 83.55,193.99 83.65,194.67 83.79,195.34 83.85,196.01 84.2,196.62 L 84.15,196.68 C 83.79,196.52 83.54,196.19 83.35,195.87 83.15,195.55 83.02,195.2 82.91,194.85 82.68,194.15 82.67,193.41 82.62,192.7 82.57,191.98 82.55,191.27 82.56,190.56 82.58,189.84 82.59,189.14 82.68,188.41 L 82.75,188.43 Z M 82.75,188.43" />
            <path id="joe01Canvas-bezier68" stroke="none" fill="rgb(51, 91, 113)" d="M 19.71,355.26 C 19.7,357.56 19.39,359.85 19.47,362.13 19.5,362.7 19.53,363.28 19.7,363.79 19.79,364 19.98,364.33 20.01,364.62 20.06,364.92 20.07,365.21 20.08,365.5 20.08,366.66 19.95,367.82 20.28,368.87 20.44,369.39 20.73,369.85 21.15,370.21 21.6,370.61 21.96,371.07 22.32,371.52 23.03,372.43 23.74,373.32 24.56,374.1 26.17,375.68 28.28,376.7 30.51,376.94 31.62,377.09 32.75,377.02 33.9,376.95 35.04,376.87 36.18,376.77 37.29,376.59 38.4,376.4 39.51,376.14 40.48,375.66 41.45,375.19 42.26,374.44 42.64,373.45 43.05,372.47 43.09,371.34 42.98,370.24 42.86,369.13 42.6,368.01 42.26,366.94 41.91,365.86 41.49,364.8 40.99,363.78 40.49,362.76 39.92,361.75 39.21,360.86 L 39.27,360.8 C 40.83,362.52 41.94,364.6 42.77,366.76 43.19,367.86 43.47,368.99 43.64,370.16 43.79,371.32 43.8,372.56 43.36,373.73 42.91,374.91 41.93,375.84 40.84,376.37 39.74,376.91 38.57,377.16 37.41,377.34 36.25,377.51 35.09,377.58 33.94,377.63 32.79,377.68 31.6,377.73 30.43,377.55 29.26,377.39 28.11,377.06 27.05,376.52 25.99,375.99 25.04,375.28 24.21,374.45 23.37,373.63 22.66,372.7 21.97,371.79 21.62,371.34 21.27,370.89 20.87,370.51 20.42,370.12 20.08,369.56 19.91,368.98 19.58,367.81 19.75,366.63 19.77,365.5 19.77,365.22 19.77,364.94 19.72,364.67 19.69,364.38 19.58,364.2 19.45,363.89 19.27,363.3 19.26,362.72 19.24,362.14 19.21,359.83 19.57,357.55 19.63,355.26 L 19.71,355.26 Z M 19.71,355.26" />
            <path id="joe01Canvas-bezier69" stroke="none" fill="rgb(51, 91, 113)" d="M 36.6,355.24 C 36.73,354.71 36.76,354.11 36.57,353.71 36.47,353.5 36.28,353.43 36.16,353.28 36.01,353.12 35.81,352.96 35.58,352.71 L 35.59,352.63 C 35.91,352.47 36.26,352.49 36.58,352.64 36.93,352.8 37.11,353.2 37.16,353.53 37.27,354.23 37,354.81 36.67,355.28 L 36.6,355.24 Z M 36.6,355.24" />
            <path id="joe01Canvas-bezier70" stroke="none" fill="rgb(51, 91, 113)" d="M 35.9,355.4 C 35.17,355.71 34.43,355.84 33.7,356.04 L 31.48,356.58 27.02,357.61 27,357.34 36.93,357.5 C 37.06,357.5 37.16,357.61 37.16,357.73 37.16,357.84 37.08,357.93 36.97,357.95 L 36.97,357.95 27.56,359.8 27.5,359.2 37.4,359.11 C 37.62,359.11 37.79,359.28 37.8,359.5 37.8,359.69 37.66,359.84 37.49,359.88 L 37.48,359.88 C 34.33,360.58 31.18,361.21 28.01,361.84 L 27.97,361.21 C 29.63,361.34 31.29,361.51 32.94,361.66 34.6,361.81 36.25,362.01 37.91,362.18 L 37.9,362.26 C 36.24,362.2 34.57,362.17 32.91,362.08 31.25,362.01 29.59,361.94 27.93,361.84 27.75,361.83 27.62,361.68 27.63,361.51 27.63,361.36 27.74,361.25 27.87,361.22 L 27.88,361.22 C 31.02,360.49 34.16,359.77 37.31,359.12 L 37.4,359.89 27.5,359.81 27.5,359.81 C 27.33,359.8 27.19,359.67 27.2,359.5 27.2,359.35 27.3,359.23 27.45,359.2 L 36.88,357.51 36.92,357.96 26.99,357.61 C 26.92,357.61 26.86,357.55 26.86,357.47 26.86,357.41 26.91,357.36 26.97,357.35 L 31.44,356.42 33.67,355.92 C 34.4,355.74 35.17,355.6 35.85,355.34 L 35.9,355.4 Z M 35.9,355.4" />
            <path id="joe01Canvas-bezier71" stroke="none" fill="rgb(51, 91, 113)" d="M 58.43,342.33 C 58.22,343.95 58.04,345.59 57.96,347.22 57.93,348.04 57.91,348.86 57.98,349.67 58.02,350.07 58.07,350.49 58.26,350.81 58.31,350.88 58.37,350.94 58.43,350.95 58.53,350.98 58.61,350.98 58.71,350.99 58.91,351 59.12,351 59.32,351 62.6,350.87 65.88,350.5 69.17,350.41 70,350.38 70.83,350.37 71.65,350.4 72.48,350.44 73.31,350.46 74.16,350.76 74.89,351.14 75.67,351.26 76.48,351.42 77.28,351.56 78.09,351.67 78.91,351.76 82.16,352.14 85.45,352.37 88.73,352.58 92,352.78 95.3,352.97 98.57,353.13 100.2,353.18 101.83,353.16 103.45,353.03 105.06,352.88 106.69,352.64 108.15,352.05 108.87,351.76 109.56,351.36 109.93,350.77 110.11,350.47 110.2,350.15 110.19,349.78 110.18,349.37 110.17,348.97 110.15,348.57 110.1,347.77 109.96,347 109.55,346.37 109.15,345.74 108.51,345.28 107.79,344.94 106.34,344.29 104.7,344.04 103.08,343.86 101.45,343.68 99.81,343.62 98.16,343.6 L 98.16,343.52 C 99.81,343.45 101.46,343.42 103.11,343.51 104.75,343.63 106.43,343.81 108.01,344.45 108.79,344.78 109.57,345.28 110.07,346.04 110.58,346.79 110.75,347.69 110.81,348.52 110.85,348.94 110.86,349.35 110.88,349.76 110.9,350.22 110.79,350.73 110.55,351.13 110.04,351.96 109.23,352.42 108.45,352.76 106.85,353.41 105.17,353.63 103.52,353.79 101.86,353.92 100.2,353.94 98.54,353.88 95.24,353.68 91.97,353.44 88.68,353.19 85.4,352.94 82.12,352.68 78.85,352.26 78.03,352.15 77.21,352.03 76.39,351.88 75.6,351.72 74.72,351.56 74,351.16 73.29,350.91 72.44,350.86 71.64,350.81 70.82,350.77 70,350.77 69.18,350.79 65.9,350.83 62.63,351.15 59.33,351.23 59.12,351.23 58.91,351.23 58.7,351.21 58.6,351.2 58.48,351.19 58.38,351.16 58.23,351.12 58.14,351.02 58.08,350.92 57.86,350.52 57.83,350.1 57.79,349.68 57.73,348.86 57.76,348.03 57.81,347.21 57.92,345.57 58.11,343.94 58.35,342.32 L 58.43,342.33 Z M 58.43,342.33" />
            <path id="joe01Canvas-bezier72" stroke="none" fill="rgb(51, 91, 113)" d="M 95.7,342.36 L 89.64,344.77 C 89.58,344.8 89.51,344.77 89.48,344.7 89.46,344.66 89.47,344.61 89.5,344.57 L 91.3,342.22 92.2,341.04 92.42,340.74 92.46,340.67 92.47,340.66 92.47,340.66 C 92.47,340.67 92.48,340.65 92.46,340.68 92.45,340.64 92.4,340.91 92.63,340.94 92.74,340.94 92.75,340.9 92.74,340.92 L 92.73,340.92 92.73,340.92 92.67,340.95 92.5,341.03 91.82,341.33 86.37,343.71 C 86.24,343.77 86.08,343.7 86.02,343.57 85.98,343.46 86.01,343.34 86.09,343.27 L 86.09,343.26 90.76,339.13 91.09,339.7 C 88.71,340.6 86.33,341.53 83.93,342.39 83.73,342.46 83.5,342.36 83.43,342.15 83.37,342 83.42,341.83 83.53,341.73 84.93,340.47 86.36,339.25 87.77,338.01 L 88.09,338.53 C 86.94,338.94 85.78,339.3 84.63,339.69 83.47,340.07 82.31,340.43 81.15,340.78 L 81.12,340.71 C 82.24,340.23 83.36,339.76 84.49,339.31 85.62,338.86 86.74,338.39 87.88,337.95 88.04,337.89 88.21,337.97 88.27,338.13 88.32,338.25 88.29,338.38 88.2,338.47 L 88.19,338.47 C 86.81,339.75 85.46,341.05 84.06,342.31 L 83.66,341.65 C 86.05,340.75 88.46,339.92 90.86,339.07 L 90.87,339.07 C 91.04,339.01 91.24,339.1 91.3,339.27 91.34,339.4 91.3,339.55 91.2,339.64 L 86.44,343.66 86.17,343.22 91.66,340.95 92.35,340.67 92.51,340.59 92.54,340.58 92.55,340.58 92.55,340.58 C 92.54,340.59 92.55,340.56 92.65,340.56 92.89,340.59 92.84,340.87 92.82,340.83 L 92.81,340.85 92.81,340.86 92.79,340.89 92.73,340.97 92.5,341.27 91.57,342.43 89.7,344.73 89.56,344.54 95.68,342.29 95.7,342.36 Z M 95.7,342.36" />
            <path id="joe01Canvas-bezier73" stroke="none" fill="rgb(51, 91, 113)" d="M 85.18,336.25 C 85.1,335.8 85.05,335.34 84.93,334.9 84.81,334.47 84.6,334.06 84.24,333.9 83.9,333.71 83.45,333.74 83.03,333.83 82.6,333.92 82.18,334.07 81.76,334.25 L 80.47,334.78 C 80.05,334.95 79.59,335.11 79.28,335.28 79.2,335.31 79.16,335.35 79.15,335.36 79.14,335.36 79.13,335.36 79.14,335.44 79.16,335.58 79.27,335.79 79.37,335.98 79.59,336.38 79.82,336.79 80.02,337.22 L 79.96,337.26 C 79.59,336.96 79.24,336.65 78.92,336.29 78.76,336.11 78.61,335.93 78.49,335.63 78.43,335.49 78.4,335.25 78.5,335.04 78.6,334.84 78.74,334.72 78.86,334.63 79.34,334.32 79.77,334.22 80.22,334.07 80.67,333.94 81.11,333.81 81.55,333.67 82,333.53 82.46,333.4 82.95,333.34 83.43,333.28 83.97,333.28 84.44,333.56 84.91,333.86 85.08,334.4 85.16,334.85 85.23,335.32 85.23,335.79 85.26,336.25 L 85.18,336.25 Z M 85.18,336.25" />
            <path id="joe01Canvas-bezier74" stroke="none" fill="rgb(51, 91, 113)" d="M 65.27,341.42 C 66.38,342.14 67.63,342.7 68.91,342.9 69.55,343 70.2,342.99 70.8,342.81 71.4,342.63 71.92,342.27 72.32,341.8 72.51,341.56 72.68,341.3 72.83,341.02 72.99,340.72 73.15,340.42 73.34,340.13 73.7,339.54 74.13,338.99 74.64,338.51 75.15,338.03 75.74,337.61 76.41,337.36 77.06,337.11 77.8,336.99 78.47,337.2 L 78.46,337.28 C 77.12,337.33 76.04,338.14 75.18,339.05 74.74,339.51 74.35,340.02 73.97,340.55 73.78,340.8 73.6,341.08 73.43,341.36 73.24,341.66 73.02,341.95 72.77,342.21 72.28,342.73 71.63,343.13 70.93,343.29 70.23,343.46 69.51,343.42 68.84,343.27 67.49,342.96 66.29,342.29 65.22,341.48 L 65.27,341.42 Z M 65.27,341.42" />
            <path id="joe01Canvas-bezier75" stroke="none" fill="rgb(51, 91, 113)" d="M 29,48.89 C 28.5,48.46 27.98,48.07 27.43,47.71 27.17,47.52 26.89,47.34 26.62,47.1 26.49,46.99 26.35,46.85 26.24,46.67 26.13,46.48 26.09,46.24 26.1,46.03 26.11,45.63 26.36,45.21 26.32,45.09 26.32,45.01 26.31,45.01 26.26,44.96 26.21,44.9 26.1,44.83 25.98,44.76 25.72,44.6 25.39,44.47 25.1,44.19 24.95,44.05 24.83,43.84 24.81,43.63 24.79,43.41 24.86,43.23 24.96,43.09 L 25.04,43.11 C 25.05,43.85 25.64,43.78 26.31,44.07 26.47,44.14 26.66,44.22 26.84,44.4 27.03,44.58 27.13,44.93 27.08,45.17 27.04,45.42 26.91,45.62 26.86,45.73 26.79,45.85 26.74,45.98 26.71,46.1 26.58,46.51 27.2,46.98 27.67,47.41 28.16,47.85 28.63,48.33 29.05,48.83 L 29,48.89 Z M 29,48.89" />
            <path id="joe01Canvas-bezier76" stroke="none" fill="rgb(51, 91, 113)" d="M 19.35,33.45 C 18.89,32.7 18.47,31.93 18.15,31.11 17.99,30.69 17.86,30.27 17.79,29.83 17.74,29.4 17.75,28.89 18.09,28.53 18.36,28.24 18.22,27.75 18.09,27.37 17.94,26.96 17.74,26.57 17.54,26.19 17.14,25.41 16.68,24.66 16.36,23.83 16.21,23.41 16.04,22.97 16.17,22.47 16.24,22.22 16.45,22.02 16.68,21.93 16.91,21.83 17.13,21.82 17.29,21.72 17.63,21.54 17.82,21.14 17.92,20.74 18.03,20.33 18.06,19.9 18.08,19.47 18.1,18.61 18.05,17.74 18.05,16.85 18.04,16.41 18.05,15.97 18.11,15.52 18.17,15.08 18.26,14.6 18.58,14.2 18.74,14 18.98,13.85 19.23,13.79 19.48,13.75 19.62,13.71 19.8,13.61 20.13,13.41 20.37,13.07 20.55,12.7 20.93,11.94 21.13,11.09 21.41,10.25 21.54,9.83 21.7,9.4 21.91,9 22.12,8.59 22.4,8.18 22.83,7.92 23.25,7.64 23.83,7.61 24.24,7.66 24.63,7.67 25.01,7.57 25.29,7.33 25.88,6.83 26.08,5.92 26.6,5.15 26.85,4.75 27.23,4.39 27.7,4.2 28.17,4.01 28.66,3.99 29.13,4.03 30.85,4.47 32.42,3.66 33.9,2.77 35.39,1.88 36.78,0.77 38.57,0.19 39.44,-0.09 40.52,-0.1 41.39,0.4 41.82,0.65 42.13,0.88 42.51,1.06 42.89,1.25 43.27,1.41 43.67,1.54 44.46,1.8 45.29,1.86 46.2,1.98 46.65,2.05 47.14,2.17 47.58,2.42 48.02,2.66 48.38,3.03 48.65,3.41 L 48.85,3.68 C 48.9,3.75 48.95,3.81 49.02,3.87 49.15,4 49.3,4.11 49.47,4.2 49.81,4.39 50.2,4.52 50.6,4.62 51.42,4.82 52.28,4.91 53.16,5.01 54.03,5.13 54.92,5.24 55.81,5.55 56.25,5.71 56.7,5.93 57.06,6.29 57.43,6.64 57.66,7.18 57.71,7.64 57.85,8.49 58.06,9.32 58.3,10.16 58.54,10.99 58.8,11.92 58.66,12.85 58.6,13.31 58.46,13.77 58.33,14.16 58.22,14.53 58.22,14.96 58.26,15.37 58.35,16.22 58.6,17.06 58.81,17.91 59.02,18.76 59.23,19.63 59.26,20.52 59.29,21.4 59.06,22.34 58.45,23 L 58.39,22.95 C 58.95,22.28 59.12,21.38 59.04,20.53 58.97,19.67 58.73,18.83 58.48,18 58.23,17.16 57.95,16.33 57.82,15.43 57.76,14.98 57.74,14.51 57.85,14.03 57.98,13.59 58.09,13.21 58.12,12.79 58.21,11.97 57.97,11.17 57.72,10.33 57.45,9.49 57.22,8.63 57.06,7.75 56.97,6.95 56.36,6.47 55.57,6.22 54.8,5.96 53.93,5.87 53.07,5.77 52.2,5.67 51.31,5.58 50.42,5.37 49.97,5.25 49.52,5.11 49.09,4.87 48.88,4.75 48.67,4.6 48.49,4.42 48.4,4.34 48.3,4.23 48.22,4.12 L 48.04,3.86 C 47.57,3.19 46.92,2.84 46.08,2.74 45.25,2.63 44.31,2.55 43.43,2.26 43,2.12 42.57,1.93 42.17,1.72 41.76,1.51 41.36,1.23 41.04,1.03 40.36,0.64 39.54,0.62 38.76,0.85 37.16,1.33 35.73,2.41 34.21,3.29 33.45,3.74 32.66,4.17 31.78,4.46 31.35,4.6 30.89,4.7 30.42,4.71 30.18,4.72 29.95,4.72 29.7,4.68 29.48,4.65 29.27,4.6 29.07,4.59 28.66,4.54 28.26,4.56 27.9,4.7 27.55,4.84 27.26,5.1 27.04,5.44 26.57,6.1 26.38,7.03 25.61,7.71 25.22,8.04 24.69,8.17 24.21,8.14 23.76,8.09 23.41,8.12 23.08,8.32 22.42,8.73 22.1,9.59 21.82,10.39 21.54,11.2 21.33,12.07 20.92,12.88 20.71,13.28 20.43,13.69 20,13.95 19.8,14.08 19.51,14.14 19.32,14.17 19.15,14.21 18.99,14.31 18.88,14.45 18.64,14.73 18.53,15.16 18.47,15.57 18.41,15.99 18.39,16.42 18.39,16.85 18.38,17.72 18.42,18.6 18.38,19.49 18.36,19.93 18.32,20.37 18.2,20.82 18.08,21.25 17.86,21.72 17.41,21.96 17.19,22.09 16.95,22.09 16.78,22.17 16.6,22.24 16.47,22.37 16.41,22.55 16.3,22.91 16.43,23.35 16.57,23.75 16.88,24.55 17.32,25.31 17.71,26.1 17.91,26.49 18.1,26.89 18.25,27.31 18.32,27.52 18.38,27.74 18.4,27.97 18.42,28.19 18.38,28.46 18.2,28.64 17.91,28.93 17.88,29.4 17.93,29.81 17.98,30.24 18.1,30.66 18.25,31.07 18.56,31.88 18.96,32.66 19.42,33.41 L 19.35,33.45 Z M 19.35,33.45" />
            <path id="joe01Canvas-bezier77" stroke="none" fill="rgb(51, 91, 113)" d="M 34.26,29.4 C 35.91,28.59 37.63,27.92 39.43,27.44 40.32,27.21 41.24,26.95 42.18,26.95 43.12,26.94 44.11,27.06 44.94,27.54 L 44.92,27.62 C 43.99,27.55 43.12,27.61 42.23,27.71 41.35,27.83 40.46,27.88 39.56,28.04 38.67,28.2 37.79,28.42 36.91,28.66 36.03,28.9 35.15,29.16 34.29,29.47 L 34.26,29.4 Z M 34.26,29.4" />
            <path id="joe01Canvas-bezier78" stroke="none" fill="rgb(51, 91, 113)" d="M 56.3,24.15 C 55.07,24.49 53.85,24.9 52.69,25.39 52.11,25.64 51.59,25.98 51.03,26.24 50.47,26.5 49.94,26.77 49.39,27.13 L 49.32,27.08 C 49.56,26.43 50.1,25.94 50.65,25.57 51.21,25.19 51.86,25.01 52.48,24.82 53.73,24.43 55.01,24.19 56.29,24.08 L 56.3,24.15 Z M 56.3,24.15" />
            <path id="joe01Canvas-bezier79" stroke="none" fill="rgb(51, 91, 113)" d="M 46.5,39.99 C 46.78,39.96 46.91,39.68 47.1,39.45 47.29,39.21 47.52,38.97 47.82,38.79 48.12,38.62 48.48,38.46 48.83,38.54 49.17,38.61 49.47,38.78 49.68,39.07 L 49.66,39.15 C 49.31,39.25 49.04,39.27 48.79,39.31 48.55,39.35 48.31,39.28 48.07,39.35 47.83,39.42 47.6,39.55 47.37,39.73 47.13,39.87 46.85,40.15 46.5,40.07 L 46.5,39.99 Z M 46.5,39.99" />
            <path id="joe01Canvas-bezier80" stroke="none" fill="rgb(51, 91, 113)" d="M 52,38.73 C 52.16,38.49 52.35,38.29 52.61,38.11 52.74,38.04 52.86,37.87 53.15,37.95 53.29,37.98 53.51,38.16 53.5,38.34 53.5,38.51 53.4,38.59 53.29,38.64 L 53.22,38.63 C 53.12,38.55 53.04,38.5 52.99,38.54 52.94,38.59 53.03,38.7 53.04,38.71 53.07,38.76 52.94,38.68 52.82,38.69 52.59,38.71 52.31,38.75 52.04,38.79 L 52,38.73 Z M 52,38.73" />
            <path id="joe01Canvas-bezier81" stroke="none" fill="rgb(51, 91, 113)" d="M 46.16,36.65 C 45.62,36.92 45.24,37.45 44.85,37.92 44.46,38.41 44.11,38.92 43.8,39.44 43.46,39.97 43.36,40.51 42.97,41.11 42.6,41.65 42.12,42.15 41.48,42.4 L 41.43,42.34 C 41.77,41.79 42.05,41.26 42.31,40.73 42.43,40.46 42.55,40.22 42.72,39.9 42.9,39.62 43.09,39.36 43.29,39.1 43.68,38.59 44.11,38.11 44.57,37.67 45.04,37.25 45.51,36.78 46.14,36.57 L 46.16,36.65 Z M 46.16,36.65" />
            <path id="joe01Canvas-bezier82" stroke="none" fill="rgb(51, 91, 113)" d="M 42.03,44.18 C 43.24,44.3 44.45,44.38 45.66,44.41 46.87,44.44 48.08,44.43 49.28,44.3 49.87,44.23 50.46,44.14 51.03,43.95 51.58,43.77 52.14,43.54 52.67,43.27 53.75,42.76 54.77,42.11 55.78,41.44 L 55.81,41.47 C 54.93,42.31 53.92,43.02 52.85,43.62 52.3,43.9 51.74,44.15 51.13,44.32 50.53,44.49 49.91,44.56 49.3,44.61 46.86,44.77 44.43,44.55 42.03,44.22 L 42.03,44.18 Z M 42.03,44.18" />
            <path id="joe01Canvas-bezier83" stroke="none" fill="rgb(51, 91, 113)" d="M 43.09,45.14 C 44.05,45.67 45.13,45.97 46.21,46.14 47.3,46.32 48.4,46.34 49.49,46.23 50.59,46.11 51.67,45.91 52.61,45.4 53.56,44.91 54.4,44.17 54.95,43.21 L 54.98,43.23 C 54.62,44.3 53.77,45.16 52.8,45.74 52.3,46.02 51.75,46.22 51.19,46.33 50.63,46.44 50.08,46.5 49.52,46.54 48.4,46.61 47.28,46.55 46.18,46.33 45.09,46.11 44.01,45.75 43.06,45.17 L 43.09,45.14 Z M 43.09,45.14" />
            <path id="joe01Canvas-bezier84" stroke="none" fill="rgb(51, 91, 113)" d="M 47.43,48.28 C 48.19,48.35 48.95,48.34 49.71,48.26 50.46,48.19 51.2,48.05 51.9,47.8 52.6,47.56 53.21,47.17 53.81,46.79 54.42,46.4 54.95,45.92 55.5,45.36 L 55.57,45.39 C 55.39,46.17 54.9,46.88 54.27,47.4 53.64,47.94 52.84,48.2 52.07,48.39 50.51,48.76 48.92,48.7 47.41,48.35 L 47.43,48.28 Z M 47.43,48.28" />
            <path id="joe01Canvas-bezier85" stroke="none" fill="rgb(51, 91, 113)" d="M 49.23,28.51 C 49.31,29.11 49.59,29.69 49.83,30.25 50.07,30.82 50.33,31.37 50.62,31.92 50.91,32.46 51.27,32.95 51.53,33.5 51.8,34.05 52.06,34.59 52.3,35.2 L 52.24,35.25 C 51.67,34.91 51.24,34.41 50.87,33.89 50.5,33.37 50.29,32.76 50.06,32.17 49.83,31.58 49.63,30.98 49.46,30.38 49.32,29.77 49.14,29.16 49.16,28.51 L 49.23,28.51 Z M 49.23,28.51" />
            <path id="joe01Canvas-bezier86" stroke="none" fill="rgb(51, 91, 113)" d="M 38.05,31.47 C 38.69,30.65 39.55,29.95 40.61,29.66 41.13,29.51 41.72,29.48 42.25,29.65 42.77,29.83 43.24,30.14 43.58,30.55 L 43.56,30.58 C 43.08,30.34 42.63,30.12 42.15,30.02 41.67,29.91 41.18,29.86 40.68,29.96 39.7,30.16 38.8,30.76 38.08,31.5 L 38.05,31.47 Z M 38.05,31.47" />
            <path id="joe01Canvas-bezier87" stroke="none" fill="rgb(51, 91, 113)" d="M 38.5,31.67 C 39.31,31.83 40.14,31.8 40.93,31.65 41.33,31.57 41.7,31.43 42.09,31.32 42.48,31.21 42.85,31.06 43.25,30.93 L 43.28,30.97 C 42.98,31.28 42.61,31.49 42.22,31.68 41.83,31.85 41.4,31.91 40.98,31.96 40.13,32.05 39.28,31.97 38.49,31.71 L 38.5,31.67 Z M 38.5,31.67" />
            <path id="joe01Canvas-bezier88" stroke="none" fill="rgb(51, 91, 113)" d="M 37.43,30.93 C 38.34,30.05 39.45,29.31 40.72,28.99 41.36,28.84 42.05,28.79 42.7,28.99 43.34,29.19 43.91,29.57 44.31,30.08 L 44.28,30.11 C 43.74,29.77 43.19,29.48 42.6,29.36 42.01,29.22 41.4,29.19 40.79,29.29 40.18,29.4 39.59,29.63 39.04,29.92 38.48,30.2 37.94,30.55 37.46,30.96 L 37.43,30.93 Z M 37.43,30.93" />
            <path id="joe01Canvas-bezier89" stroke="none" fill="rgb(51, 91, 113)" d="M 50.94,28.67 C 51.58,27.94 52.52,27.47 53.52,27.37 54.01,27.32 54.53,27.34 55.01,27.49 55.48,27.64 55.93,27.86 56.31,28.18 L 56.29,28.21 C 55.82,28.09 55.37,27.94 54.91,27.86 54.46,27.77 54,27.67 53.54,27.68 52.62,27.71 51.68,28.05 50.97,28.7 L 50.94,28.67 Z M 50.94,28.67" />
            <path id="joe01Canvas-bezier90" stroke="none" fill="rgb(51, 91, 113)" d="M 51.26,29.41 C 52.06,29.44 52.87,29.4 53.65,29.27 54.04,29.19 54.41,29.07 54.76,28.95 55.12,28.83 55.45,28.66 55.73,28.36 L 55.76,28.38 C 55.67,28.81 55.29,29.11 54.91,29.3 54.52,29.49 54.1,29.54 53.69,29.57 52.87,29.64 52.05,29.59 51.25,29.45 L 51.26,29.41 Z M 51.26,29.41" />
            <path id="joe01Canvas-bezier91" stroke="none" fill="rgb(51, 91, 113)" d="M 50.94,28.09 C 51.43,27.21 52.33,26.54 53.37,26.35 53.88,26.25 54.42,26.24 54.92,26.37 55.42,26.52 55.9,26.72 56.31,27.04 L 56.29,27.07 C 55.79,26.96 55.32,26.82 54.84,26.75 54.37,26.67 53.89,26.6 53.41,26.65 52.46,26.76 51.55,27.3 50.97,28.11 L 50.94,28.09 Z M 50.94,28.09" />
            <path id="joe01Canvas-bezier92" stroke="none" fill="rgb(51, 91, 113)" d="M 41.43,31.72 C 41.26,31.57 41.12,31.34 41.09,31.08 41.05,30.83 41.1,30.56 41.25,30.33 41.39,30.1 41.61,29.89 41.89,29.84 42.17,29.8 42.45,29.86 42.64,30.06 L 42.62,30.1 C 42.37,30.11 42.17,30.13 41.99,30.21 41.82,30.28 41.64,30.36 41.5,30.51 41.23,30.79 41.18,31.33 41.46,31.7 L 41.43,31.72 Z M 41.43,31.72" />
            <path id="joe01Canvas-bezier93" stroke="none" fill="rgb(51, 91, 113)" d="M 54.1,29.35 C 53.96,29.19 53.85,28.95 53.83,28.71 53.82,28.46 53.88,28.22 54.02,28 54.16,27.79 54.37,27.59 54.63,27.54 54.89,27.49 55.17,27.54 55.35,27.72 L 55.34,27.76 C 55.1,27.79 54.91,27.82 54.74,27.9 54.58,27.98 54.4,28.05 54.27,28.19 54,28.46 53.92,28.94 54.13,29.33 L 54.1,29.35 Z M 54.1,29.35" />
            <path id="joe01Canvas-bezier94" stroke="none" fill="rgb(51, 91, 113)" d="M 56.32,40 C 56.75,40.26 57.07,40.7 57.25,41.2 57.33,41.45 57.45,41.72 57.37,41.98 57.31,42.24 57.18,42.49 56.91,42.66 L 56.83,42.64 C 56.69,42.36 56.64,42.15 56.6,41.94 56.56,41.74 56.65,41.53 56.64,41.32 56.63,40.91 56.52,40.46 56.27,40.06 L 56.32,40 Z M 56.32,40" />
            <path id="joe01Canvas-bezier95" stroke="none" fill="rgb(51, 91, 113)" d="M 25.56,34.33 C 25.26,34.72 24.84,35.03 24.5,35.36 24.14,35.68 23.86,36.02 23.91,36.4 23.91,36.88 24.03,37.31 24.14,37.65 24.25,37.98 24.53,38.25 25,38.51 L 25,38.58 C 24.74,38.66 24.45,38.68 24.17,38.58 23.88,38.49 23.62,38.26 23.45,38 23.12,37.44 23.23,36.86 23.29,36.37 23.32,36.08 23.46,35.76 23.65,35.56 23.84,35.34 24.05,35.19 24.26,35.05 24.69,34.79 25.13,34.59 25.51,34.27 L 25.56,34.33 Z M 25.56,34.33" />
            <path id="joe01Canvas-bezier96" stroke="none" fill="rgb(51, 91, 113)" d="M 27.51,35.24 C 27.38,35.62 27.31,36.03 27.31,36.42 27.29,36.8 27.37,37.18 27.55,37.45 27.6,37.52 27.65,37.58 27.71,37.63 27.79,37.71 27.86,37.77 27.94,37.86 28.1,38.04 28.23,38.24 28.3,38.48 28.36,38.73 28.42,39 28.25,39.33 28.17,39.5 27.91,39.61 27.75,39.55 27.59,39.5 27.51,39.4 27.45,39.3 L 27.49,39.24 C 27.6,39.24 27.71,39.25 27.76,39.2 27.82,39.16 27.76,39.14 27.75,39.11 27.72,39.05 27.67,38.89 27.58,38.76 27.42,38.46 27.28,38.24 27,37.73 26.81,37.27 26.83,36.79 26.92,36.37 27.03,35.94 27.21,35.56 27.44,35.2 L 27.51,35.24 Z M 27.51,35.24" />
            <path id="joe01Canvas-bezier97" stroke="none" fill="rgb(51, 91, 113)" d="M 58.16,85.18 C 58.17,85.47 58.18,85.77 58.13,86.08 58.08,86.37 57.97,86.77 57.51,86.87 57.04,86.91 56.77,86.55 56.61,86.28 56.43,85.99 56.34,85.67 56.29,85.35 56.24,85.03 56.23,84.68 56.3,84.33 56.35,84.16 56.42,83.98 56.54,83.8 56.68,83.63 56.86,83.45 57.23,83.43 57.25,83.43 57.5,83.46 57.59,83.52 57.7,83.58 57.78,83.66 57.84,83.74 57.97,83.9 58.03,84.07 58.07,84.23 58.16,84.57 58.15,84.88 58.16,85.18 Z M 58.09,85.18 C 58.05,84.89 57.9,84.62 57.71,84.42 57.51,84.22 57.29,84.14 57.23,84.2 57.31,84.19 57.1,84.32 57.04,84.55 56.94,84.77 56.9,85.02 56.9,85.29 56.91,85.55 56.95,85.82 57.05,86.05 57.15,86.29 57.32,86.49 57.47,86.49 57.64,86.52 57.86,86.29 57.97,86.03 58.1,85.77 58.13,85.47 58.09,85.18 Z M 58.09,85.18" />
            <path id="joe01Canvas-bezier98" stroke="none" fill="rgb(51, 91, 113)" d="M 61.46,106.67 C 61.44,106.97 61.41,107.27 61.33,107.57 61.24,107.85 61.12,108.23 60.62,108.29 60.57,108.29 60.41,108.27 60.32,108.22 60.23,108.17 60.15,108.11 60.09,108.05 59.96,107.91 59.87,107.76 59.8,107.61 59.66,107.3 59.6,106.98 59.58,106.64 59.56,106.33 59.59,105.97 59.7,105.64 59.77,105.47 59.85,105.3 60,105.13 60.15,104.98 60.35,104.82 60.72,104.84 60.74,104.84 60.98,104.9 61.06,104.97 61.16,105.04 61.24,105.12 61.3,105.21 61.4,105.38 61.45,105.56 61.47,105.73 61.52,106.06 61.48,106.37 61.46,106.67 Z M 61.39,106.67 C 61.38,106.38 61.26,106.09 61.09,105.87 60.91,105.65 60.7,105.55 60.63,105.6 60.71,105.6 60.49,105.71 60.41,105.93 60.29,106.14 60.22,106.37 60.2,106.66 60.18,106.91 60.19,107.19 60.27,107.43 60.34,107.67 60.47,107.89 60.66,107.91 60.78,107.95 61.05,107.74 61.18,107.5 61.33,107.26 61.4,106.96 61.39,106.67 Z M 61.39,106.67" />
            <path id="joe01Canvas-bezier99" stroke="none" fill="rgb(51, 91, 113)" d="M 66.81,158.6 C 66.79,158.89 66.77,159.19 66.69,159.49 66.61,159.77 66.46,160.16 66,160.22 65.53,160.21 65.29,159.83 65.15,159.55 65.01,159.24 64.95,158.92 64.93,158.59 64.91,158.27 64.93,157.92 65.04,157.58 65.11,157.41 65.19,157.24 65.33,157.07 65.47,156.92 65.72,156.76 66.01,156.77 66.13,156.78 66.08,156.78 66.2,156.81 66.29,156.83 66.34,156.86 66.4,156.9 66.5,156.96 66.57,157.05 66.63,157.13 66.74,157.31 66.79,157.49 66.81,157.65 66.86,157.99 66.82,158.3 66.81,158.6 Z M 66.73,158.59 C 66.72,158.3 66.6,158.02 66.43,157.8 66.27,157.58 66.01,157.48 66.01,157.54 66.02,157.54 65.85,157.65 65.75,157.87 65.63,158.08 65.57,158.32 65.54,158.59 65.52,158.85 65.54,159.12 65.62,159.36 65.69,159.6 65.84,159.82 66,159.84 66.16,159.88 66.4,159.67 66.54,159.43 66.69,159.18 66.75,158.89 66.73,158.59 Z M 66.73,158.59" />
        </g>
    </g>
</svg>
