<?xml version="1.0" encoding="UTF-8"?>
<!DOCTYPE svg PUBLIC "-//W3C//DTD SVG 1.1//EN" "http://www.w3.org/Graphics/SVG/1.1/DTD/svg11.dtd">
<svg version="1.1" xmlns="http://www.w3.org/2000/svg" xmlns:xlink="http://www.w3.org/1999/xlink" width="118" height="378"  xml:space="preserve" id="joe08Canvas">
    <!-- Generated by PaintCode - http://www.paintcodeapp.com -->
    <g id="joe08Canvas-lines">
        <g id="joe08Canvas-group2">
            <path id="joe08Canvas-bezier" stroke="none" fill="rgb(51, 91, 113)" d="M 19.7,197.79 C 20.1,203.86 20.56,209.93 21.08,215.99 21.59,222.04 22.16,228.1 22.85,234.14 23.2,237.16 23.58,240.17 24.03,243.18 24.47,246.18 24.95,249.18 25.67,252.12 25.85,252.85 26.04,253.58 26.29,254.28 26.41,254.63 26.54,254.98 26.71,255.31 L 27.24,256.31 C 27.94,257.67 28.54,259.1 28.96,260.58 29.38,262.05 29.66,263.57 29.74,265.1 29.78,265.87 29.76,266.64 29.68,267.4 29.63,267.78 29.57,268.16 29.48,268.53 29.38,268.9 29.29,269.29 29.01,269.58 L 28.97,269.54 C 29.21,269.26 29.29,268.87 29.37,268.51 29.44,268.14 29.48,267.76 29.51,267.38 29.55,266.63 29.53,265.87 29.46,265.12 29.33,263.62 29.01,262.14 28.55,260.7 28.08,259.27 27.49,257.88 26.77,256.55 L 26.21,255.55 C 26.03,255.2 25.89,254.84 25.75,254.47 25.48,253.74 25.27,253.01 25.08,252.26 23.66,246.3 23.01,240.24 22.36,234.19 21.11,222.09 20.28,209.95 19.64,197.8 L 19.7,197.79 Z M 19.7,197.79" />
            <path id="joe08Canvas-bezier2" stroke="none" fill="rgb(51, 91, 113)" d="M 25.71,260.31 C 25.32,262.35 25.01,264.42 24.8,266.49 24.61,268.56 24.48,270.66 24.82,272.71 25.33,276.85 25.75,281 26.18,285.15 27.02,293.45 27.86,301.75 28.58,310.07 28.9,314.22 29.39,318.36 29.96,322.49 30.25,324.55 30.56,326.61 30.94,328.65 31.32,330.69 31.73,332.75 32.41,334.68 32.58,335.15 32.77,335.63 33.04,336.01 33.1,336.1 33.18,336.19 33.25,336.25 33.31,336.3 33.42,336.34 33.56,336.45 33.82,336.63 34.01,336.86 34.16,337.11 34.74,338.11 34.83,339.2 34.88,340.26 34.91,341.32 34.82,342.38 34.66,343.42 34.49,344.46 34.26,345.49 33.88,346.49 33.79,346.74 33.68,346.99 33.55,347.22 33.42,347.47 33.26,347.68 33.14,347.9 32.88,348.34 32.66,348.81 32.45,349.28 32.04,350.23 31.69,351.21 31.38,352.2 31.22,352.7 31.07,353.19 30.93,353.69 30.87,353.94 30.8,354.2 30.75,354.44 30.72,354.66 30.79,354.94 30.82,355.19 30.98,356.22 31.17,357.25 31.35,358.27 L 31.29,358.28 C 31.07,357.27 30.85,356.25 30.65,355.22 30.62,354.96 30.54,354.72 30.56,354.42 30.6,354.15 30.66,353.9 30.72,353.64 30.83,353.13 30.97,352.62 31.11,352.12 31.4,351.12 31.74,350.12 32.14,349.15 32.34,348.66 32.56,348.18 32.82,347.72 32.96,347.48 33.11,347.27 33.22,347.05 33.33,346.83 33.43,346.59 33.52,346.35 34.18,344.42 34.45,342.32 34.38,340.28 34.32,339.27 34.18,338.21 33.69,337.4 33.56,337.2 33.41,337.03 33.23,336.91 33.17,336.86 33.03,336.81 32.89,336.69 32.75,336.59 32.65,336.47 32.57,336.35 32.22,335.88 32.02,335.38 31.83,334.89 31.13,332.87 30.73,330.82 30.34,328.76 29.96,326.7 29.65,324.64 29.37,322.57 28.83,318.43 28.37,314.27 28.09,310.11 27.43,301.8 26.65,293.49 25.88,285.18 25.48,281.03 25.11,276.88 24.64,272.73 24.31,270.66 24.47,268.55 24.68,266.48 24.91,264.4 25.24,262.34 25.66,260.29 L 25.71,260.31 Z M 25.71,260.31" />
            <path id="joe08Canvas-bezier3" stroke="none" fill="rgb(51, 91, 113)" d="M 31.07,360.47 C 30.85,359.59 30.99,358.61 31.53,357.85 32.08,357.09 32.95,356.64 33.82,356.39 34.7,356.14 35.61,356.05 36.52,356.03 37.42,356.03 38.33,356.06 39.23,356.14 40.13,356.22 41.04,356.35 41.93,356.59 42.81,356.84 43.71,357.22 44.41,357.92 44.74,358.28 45.01,358.73 45.11,359.22 45.22,359.7 45.18,360.22 45.03,360.65 44.76,361.51 44.41,362.42 43.67,363 L 43.63,362.95 C 43.93,362.63 44.12,362.22 44.27,361.82 44.42,361.41 44.53,360.98 44.61,360.55 44.7,360.13 44.71,359.73 44.6,359.34 44.49,358.96 44.27,358.63 43.97,358.35 43.38,357.79 42.58,357.44 41.76,357.17 40.93,356.9 40.06,356.74 39.18,356.62 37.42,356.44 35.61,356.27 33.9,356.68 33.05,356.89 32.22,357.28 31.68,357.97 31.13,358.65 30.95,359.59 31.13,360.45 L 31.07,360.47 Z M 31.07,360.47" />
            <path id="joe08Canvas-bezier4" stroke="none" fill="rgb(51, 91, 113)" d="M 31.4,361.18 L 42.61,362.71 C 42.66,362.72 42.7,362.76 42.69,362.81 42.69,362.86 42.65,362.89 42.6,362.89 L 31.57,362.94 31.22,362.95 31.06,362.95 31.04,362.95 31.03,362.95 31.03,362.95 C 30.96,362.91 31.15,363.08 31.13,362.71 31.04,362.63 31.08,362.67 31.06,362.65 L 31.04,362.65 C 31.02,362.64 31.04,362.65 31.04,362.65 L 31.06,362.65 31.15,362.66 31.84,362.77 33.2,362.99 35.92,363.45 41.36,364.38 C 41.47,364.4 41.54,364.5 41.52,364.61 41.5,364.71 41.41,364.78 41.31,364.78 L 29.57,364.28 29.62,363.79 40.84,365.44 C 41.01,365.46 41.12,365.62 41.1,365.78 41.08,365.94 40.93,366.05 40.78,366.04 L 30.22,365.54 29.89,365.53 29.73,365.52 29.65,365.52 29.62,365.52 C 29.61,365.52 29.62,365.52 29.62,365.52 L 29.62,365.52 C 29.43,365.64 29.88,365.36 29.83,365.39 29.84,365.38 29.81,365.41 29.84,365.37 29.87,365.32 29.9,365.19 29.83,365.08 29.78,364.98 29.67,364.96 29.69,364.96 L 29.69,364.96 29.69,364.96 C 29.68,364.96 29.69,364.96 29.69,364.96 L 29.73,364.97 29.8,364.99 29.96,365.02 30.28,365.08 31.58,365.31 34.19,365.75 39.4,366.62 39.4,366.62 C 39.52,366.64 39.6,366.75 39.58,366.86 39.56,366.97 39.46,367.04 39.36,367.03 35.8,366.83 32.25,366.59 28.69,366.35 L 28.69,366.29 C 32.26,366.38 35.82,366.49 39.38,366.62 L 39.34,367.03 34.1,366.26 31.49,365.86 30.18,365.65 29.85,365.59 29.69,365.56 29.6,365.54 29.55,365.53 29.52,365.52 29.5,365.52 29.48,365.51 C 29.5,365.52 29.39,365.49 29.33,365.39 29.26,365.28 29.29,365.15 29.32,365.1 29.34,365.05 29.33,365.09 29.33,365.08 29.29,365.1 29.74,364.82 29.55,364.94 L 29.57,364.94 29.61,364.94 29.66,364.93 29.74,364.94 29.91,364.94 30.24,364.95 C 32.01,365 33.77,365.1 35.53,365.18 L 40.81,365.44 40.75,366.04 29.55,364.28 C 29.41,364.26 29.32,364.13 29.34,364 29.35,363.87 29.47,363.78 29.6,363.79 L 41.33,364.38 41.29,364.77 35.86,363.8 33.14,363.32 31.78,363.08 31.11,362.97 31.03,362.96 31.01,362.96 30.98,362.95 30.95,362.95 C 30.93,362.93 30.97,362.97 30.88,362.89 30.87,362.51 31.06,362.69 30.99,362.64 L 31,362.64 31.02,362.64 31.04,362.64 31.22,362.64 31.57,362.63 42.6,362.71 42.59,362.89 31.39,361.23 31.4,361.18 Z M 31.4,361.18" />
            <path id="joe08Canvas-bezier5" stroke="none" fill="rgb(51, 91, 113)" d="M 35.65,369.04 C 33.04,368.67 30.42,368.14 27.81,368.5 27.17,368.6 26.53,368.77 25.96,369.07 25.4,369.37 24.94,369.84 24.6,370.38 23.93,371.47 23.68,372.81 23.83,374.07 23.91,374.7 24.1,375.33 24.48,375.82 24.86,376.32 25.42,376.56 26.08,376.54 27.41,376.64 28.71,376.81 30.02,376.95 32.63,377.22 35.26,377.45 37.87,377.33 39.16,377.25 40.48,377.11 41.65,376.63 41.94,376.51 42.21,376.37 42.46,376.19 42.72,376 43,375.81 43.29,375.63 43.85,375.27 44.42,374.93 45.01,374.62 46.19,374.01 47.41,373.47 48.65,373 49.28,372.77 49.91,372.56 50.56,372.38 50.88,372.29 51.2,372.21 51.56,372.16 51.77,372.13 51.88,372.13 52.03,372.1 52.18,372.07 52.33,372.03 52.48,371.98 53.68,371.61 54.83,370.95 55.71,370.05 56.6,369.15 57.14,367.94 57.16,366.68 57.18,366.05 57.07,365.39 57.03,364.73 56.98,364.08 56.94,363.42 56.92,362.76 56.88,361.45 56.88,360.13 57,358.82 L 57.06,358.83 C 56.98,361.46 57.32,364.03 57.58,366.68 57.62,368.05 57.03,369.42 56.09,370.41 55.15,371.41 53.95,372.12 52.66,372.55 52.49,372.61 52.33,372.65 52.15,372.69 51.98,372.73 51.76,372.75 51.64,372.76 51.34,372.8 51.03,372.88 50.72,372.97 50.1,373.14 49.48,373.35 48.87,373.57 47.65,374.03 46.45,374.55 45.3,375.16 44.72,375.46 44.15,375.78 43.6,376.12 43.32,376.29 43.06,376.47 42.78,376.65 42.5,376.85 42.18,377.01 41.86,377.14 40.57,377.64 39.22,377.76 37.89,377.82 35.23,377.91 32.59,377.65 29.98,377.35 28.67,377.2 27.36,377.01 26.06,376.9 25.75,376.89 25.35,376.85 25.03,376.69 24.71,376.54 24.43,376.3 24.22,376.02 23.79,375.45 23.6,374.78 23.52,374.11 23.38,372.77 23.67,371.39 24.39,370.25 24.76,369.68 25.25,369.19 25.86,368.88 26.46,368.57 27.13,368.41 27.78,368.32 30.44,367.99 33.07,368.57 35.64,368.98 L 35.65,369.04 Z M 35.65,369.04" />
            <path id="joe08Canvas-bezier6" stroke="none" fill="rgb(51, 91, 113)" d="M 47.04,361.18 C 47.85,361.29 48.65,361.46 49.44,361.72 49.83,361.86 50.22,362.02 50.58,362.31 50.8,362.54 51.18,362.48 51.54,362.4 52.27,362.19 52.95,361.76 53.58,361.33 54.19,360.88 54.81,360.38 55.05,359.6 L 55.11,359.61 C 55.18,360.03 55.02,360.47 54.8,360.84 54.58,361.21 54.27,361.53 53.95,361.81 53.29,362.36 52.5,362.71 51.64,362.87 51.43,362.91 51.2,362.93 50.97,362.91 50.85,362.9 50.73,362.87 50.61,362.82 50.55,362.79 50.46,362.74 50.43,362.71 L 50.37,362.66 50.31,362.6 C 50.05,362.35 49.68,362.16 49.33,362 48.6,361.67 47.82,361.43 47.03,361.24 L 47.04,361.18 Z M 47.04,361.18" />
            <path id="joe08Canvas-bezier7" stroke="none" fill="rgb(51, 91, 113)" d="M 106.15,360.45 C 106.31,359.6 106.15,358.68 105.64,358 105.13,357.31 104.33,356.9 103.51,356.69 101.84,356.27 100.06,356.44 98.34,356.63 97.48,356.74 96.63,356.91 95.82,357.19 95.03,357.46 94.25,357.82 93.7,358.4 93.12,358.95 92.93,359.77 93.13,360.59 93.2,361.01 93.31,361.43 93.46,361.83 93.6,362.23 93.78,362.63 94.06,362.95 L 94.02,363 C 93.31,362.42 92.98,361.53 92.71,360.68 92.57,360.26 92.52,359.76 92.6,359.28 92.69,358.8 92.93,358.35 93.24,357.99 93.9,357.26 94.78,356.87 95.64,356.61 96.51,356.36 97.4,356.22 98.28,356.14 99.17,356.06 100.05,356.03 100.94,356.03 101.83,356.05 102.73,356.14 103.59,356.4 104.44,356.66 105.28,357.13 105.79,357.89 106.3,358.65 106.42,359.61 106.21,360.46 L 106.15,360.45 Z M 106.15,360.45" />
            <path id="joe08Canvas-bezier8" stroke="none" fill="rgb(51, 91, 113)" d="M 105.89,361.24 L 95.07,362.89 95.06,362.71 105.73,362.64 106.07,362.64 106.24,362.64 106.26,362.64 106.28,362.64 C 106.22,362.69 106.39,362.51 106.4,362.88 106.31,362.98 106.34,362.93 106.32,362.95 106.27,362.96 106.27,362.96 106.26,362.96 L 106.24,362.96 106.17,362.97 105.51,363.08 104.2,363.32 101.58,363.8 96.33,364.78 96.28,364.38 107.63,363.79 C 107.77,363.78 107.89,363.89 107.89,364.02 107.9,364.15 107.81,364.26 107.68,364.28 L 96.85,366.04 96.79,365.44 101.9,365.18 C 103.6,365.1 105.3,365 107.01,364.95 L 107.33,364.94 107.49,364.94 107.58,364.94 107.63,364.94 107.67,364.94 C 107.49,364.82 107.94,365.1 107.89,365.08 L 107.9,365.08 C 107.91,365.09 107.96,365.19 107.93,365.32 107.89,365.44 107.79,365.5 107.75,365.51 107.57,365.57 107.51,365.57 107.38,365.6 L 107.07,365.65 105.8,365.86 103.28,366.26 98.22,367.03 98.17,366.62 C 101.62,366.49 105.06,366.38 108.5,366.29 L 108.51,366.35 C 105.07,366.6 101.63,366.83 98.2,367.04 98.08,367.04 97.98,366.95 97.97,366.84 97.97,366.73 98.04,366.64 98.15,366.62 L 98.15,366.62 103.19,365.75 105.71,365.31 106.96,365.08 107.27,365.02 107.53,364.97 C 107.49,364.98 107.4,365.03 107.36,365.16 107.33,365.28 107.39,365.38 107.4,365.39 L 107.39,365.39 C 107.35,365.36 107.8,365.64 107.61,365.52 107.61,365.52 107.62,365.52 107.61,365.52 L 107.58,365.52 107.5,365.53 107.35,365.53 107.03,365.55 96.82,366.04 C 96.65,366.05 96.51,365.92 96.5,365.76 96.49,365.6 96.6,365.47 96.76,365.44 L 107.6,363.79 107.65,364.28 96.3,364.78 C 96.19,364.79 96.1,364.7 96.09,364.59 96.09,364.49 96.16,364.4 96.26,364.38 L 101.51,363.45 104.14,362.99 105.46,362.77 106.12,362.66 106.21,362.65 106.23,362.65 C 106.24,362.65 106.25,362.64 106.21,362.66 106.19,362.68 106.23,362.62 106.13,362.72 106.14,363.09 106.31,362.91 106.25,362.95 L 106.24,362.95 106.23,362.95 106.06,362.95 105.73,362.95 95.06,362.9 C 95.01,362.9 94.97,362.86 94.96,362.8 94.96,362.76 95,362.72 95.05,362.71 L 105.89,361.18 105.89,361.24 Z M 105.89,361.24" />
            <path id="joe08Canvas-bezier9" stroke="none" fill="rgb(51, 91, 113)" d="M 101.78,368.98 C 104.3,368.57 106.87,367.98 109.47,368.33 110.11,368.43 110.76,368.6 111.34,368.93 111.92,369.26 112.38,369.77 112.72,370.33 113.38,371.47 113.64,372.82 113.51,374.13 113.43,374.78 113.25,375.44 112.85,376 112.65,376.28 112.39,376.52 112.07,376.68 111.76,376.85 111.37,376.89 111.06,376.9 109.8,377.01 108.51,377.2 107.23,377.35 104.67,377.65 102.09,377.92 99.49,377.82 98.19,377.75 96.87,377.62 95.61,377.08 95.31,376.94 94.99,376.74 94.74,376.56 94.48,376.37 94.22,376.2 93.95,376.03 93.41,375.69 92.86,375.38 92.3,375.08 91.17,374.48 90.01,373.95 88.82,373.5 88.22,373.28 87.62,373.07 87.01,372.91 86.7,372.83 86.41,372.76 86.12,372.74 85.73,372.69 85.43,372.59 85.11,372.47 83.86,372 82.71,371.25 81.85,370.22 80.98,369.2 80.5,367.84 80.57,366.5 80.85,363.93 81.15,361.4 81.07,358.83 L 81.14,358.82 C 81.25,360.1 81.25,361.39 81.22,362.68 81.2,363.96 81.06,365.27 80.98,366.51 80.97,367.75 81.43,368.96 82.24,369.89 83.05,370.81 84.15,371.5 85.31,371.92 85.59,372.02 85.91,372.1 86.17,372.13 86.52,372.16 86.85,372.24 87.17,372.32 87.81,372.49 88.42,372.71 89.03,372.93 90.25,373.39 91.44,373.93 92.58,374.54 93.16,374.85 93.72,375.18 94.27,375.54 94.54,375.72 94.82,375.9 95.07,376.09 95.34,376.29 95.57,376.44 95.85,376.57 96.96,377.08 98.25,377.24 99.51,377.32 102.06,377.46 104.63,377.22 107.19,376.95 108.47,376.81 109.74,376.64 111.04,376.54 111.68,376.56 112.22,376.3 112.58,375.8 112.94,375.32 113.13,374.7 113.2,374.09 113.35,372.85 113.12,371.55 112.5,370.46 112.19,369.91 111.77,369.43 111.23,369.11 110.69,368.8 110.07,368.62 109.44,368.52 106.9,368.12 104.33,368.67 101.78,369.04 L 101.78,368.98 Z M 101.78,368.98" />
            <path id="joe08Canvas-bezier10" stroke="none" fill="rgb(51, 91, 113)" d="M 90.78,361.24 C 90.01,361.43 89.25,361.68 88.55,362.01 88.2,362.17 87.85,362.36 87.6,362.61 L 87.54,362.67 87.48,362.72 C 87.44,362.75 87.35,362.81 87.3,362.83 87.18,362.88 87.06,362.9 86.95,362.91 86.71,362.93 86.5,362.91 86.29,362.87 85.45,362.7 84.68,362.34 84.05,361.79 83.74,361.5 83.45,361.19 83.24,360.82 83.03,360.46 82.9,360.02 82.96,359.61 L 83.02,359.6 C 83.25,360.36 83.84,360.86 84.43,361.31 85.04,361.75 85.68,362.18 86.4,362.39 86.75,362.48 87.12,362.54 87.33,362.32 87.67,362.03 88.05,361.87 88.43,361.73 89.19,361.46 89.98,361.3 90.77,361.18 L 90.78,361.24 Z M 90.78,361.24" />
            <path id="joe08Canvas-bezier11" stroke="none" fill="rgb(51, 91, 113)" d="M 45.75,357.3 C 46.89,357.07 48.02,356.87 49.17,356.72 50.32,356.58 51.48,356.47 52.66,356.5 52.95,356.51 53.25,356.53 53.55,356.58 53.86,356.63 54.17,356.69 54.49,356.9 54.57,356.96 54.64,357.03 54.71,357.12 54.75,357.17 54.8,357.25 54.83,357.28 54.89,357.34 54.99,357.42 55.08,357.49 55.28,357.62 55.53,357.72 55.78,357.8 56.82,358.11 57.99,358.18 59.14,358.25 L 59.14,358.31 C 58.57,358.45 57.99,358.52 57.4,358.54 56.81,358.56 56.22,358.53 55.62,358.38 55.32,358.3 55.02,358.2 54.74,358.02 54.59,357.92 54.47,357.82 54.34,357.66 54.28,357.58 54.25,357.53 54.21,357.47 54.19,357.44 54.16,357.41 54.13,357.38 53.79,357.13 53.17,357.04 52.63,356.99 51.5,356.89 50.35,356.95 49.2,357.02 48.06,357.1 46.91,357.21 45.76,357.35 L 45.75,357.3 Z M 45.75,357.3" />
            <path id="joe08Canvas-bezier12" stroke="none" fill="rgb(51, 91, 113)" d="M 58.51,356.72 C 58.78,353.95 59,351.17 59.15,348.39 59.29,345.62 59.41,342.83 59.19,340.07 59.13,339.39 59.04,338.7 58.86,338.07 58.67,337.41 58.42,336.77 58.15,336.14 57.61,334.87 56.98,333.63 56.42,332.35 55.87,331.06 55.35,329.74 55.05,328.36 54.75,326.98 54.69,325.52 55.05,324.16 L 55.11,324.17 C 54.92,325.55 55.09,326.94 55.46,328.25 55.84,329.58 56.38,330.85 56.98,332.1 57.56,333.35 58.19,334.6 58.71,335.91 58.97,336.56 59.21,337.23 59.39,337.92 59.57,338.63 59.63,339.34 59.68,340.04 59.84,342.85 59.66,345.63 59.45,348.41 59.23,351.19 58.93,353.96 58.57,356.72 L 58.51,356.72 Z M 58.51,356.72" />
            <path id="joe08Canvas-bezier13" stroke="none" fill="rgb(51, 91, 113)" d="M 58.13,328.66 C 58.05,325.98 57.81,323.29 57.4,320.64 57.18,319.32 56.92,318 56.55,316.72 56.18,315.44 55.72,314.16 54.95,313.08 54.16,311.95 53.73,310.64 53.34,309.35 52.96,308.05 52.68,306.73 52.45,305.4 51.99,302.74 51.72,300.05 51.59,297.36 51.47,294.66 51.48,291.96 51.75,289.26 51.89,287.92 52.11,286.56 52.44,285.26 52.74,283.95 53.04,282.64 53.3,281.33 53.85,278.71 54.28,276.05 54.19,273.39 54.11,270.75 53.35,268.08 51.76,265.9 L 51.81,265.87 C 52.65,266.92 53.34,268.11 53.81,269.38 54.27,270.66 54.52,272.02 54.62,273.37 54.8,276.09 54.39,278.8 53.9,281.44 53.63,282.77 53.33,284.08 53.03,285.39 52.71,286.69 52.49,288 52.35,289.33 52.05,291.98 52,294.66 52.08,297.34 52.17,300.01 52.41,302.69 52.84,305.33 53.05,306.65 53.32,307.97 53.68,309.25 54.04,310.53 54.46,311.82 55.21,312.91 55.99,314.05 56.43,315.36 56.79,316.65 57.14,317.96 57.38,319.29 57.58,320.62 57.96,323.28 58.15,325.97 58.19,328.66 L 58.13,328.66 58.13,328.66 Z M 58.13,328.66" />
            <path id="joe08Canvas-bezier14" stroke="none" fill="rgb(51, 91, 113)" d="M 53.32,264.8 C 52.94,254.9 52.7,245 52.67,235.09 52.65,232.61 52.65,230.14 52.68,227.66 52.72,225.18 52.78,222.7 52.87,220.23 53,217.75 53.14,215.28 53.4,212.81 53.54,211.57 53.69,210.34 53.9,209.12 54.01,208.5 54.14,207.89 54.29,207.29 54.46,206.69 54.63,206.09 54.95,205.54 L 55,205.57 C 54.72,206.12 54.58,206.73 54.46,207.33 54.34,207.94 54.25,208.55 54.18,209.16 54.02,210.38 53.91,211.61 53.83,212.85 53.66,215.31 53.55,217.78 53.48,220.25 53.39,222.72 53.32,225.2 53.28,227.67 53.22,230.14 53.18,232.62 53.16,235.09 53.12,240.04 53.13,244.99 53.17,249.94 53.21,254.89 53.27,259.84 53.38,264.79 L 53.32,264.8 Z M 53.32,264.8" />
            <path id="joe08Canvas-bezier15" stroke="none" fill="rgb(51, 91, 113)" d="M 56.09,209.23 C 56.85,215.18 57.66,221.12 58.52,227.05 59.38,232.98 60.28,238.91 61.31,244.81 61.83,247.76 62.38,250.7 63.04,253.62 63.36,255.08 63.7,256.54 64.13,257.96 64.35,258.66 64.59,259.38 64.93,259.97 65.11,260.25 65.36,260.59 65.55,260.91 65.75,261.23 65.94,261.56 66.12,261.9 67.51,264.6 68.51,267.46 69.32,270.35 69.72,271.8 70.07,273.26 70.35,274.74 70.48,275.48 70.59,276.23 70.66,276.98 70.73,277.73 70.78,278.48 70.67,279.23 L 70.61,279.22 C 70.69,278.48 70.6,277.73 70.49,277 70.38,276.26 70.24,275.53 70.07,274.8 69.75,273.34 69.36,271.9 68.91,270.47 68.02,267.62 67,264.79 65.58,262.19 65.41,261.86 65.22,261.54 65.03,261.23 64.84,260.9 64.64,260.64 64.41,260.29 64,259.58 63.78,258.86 63.55,258.13 63.11,256.68 62.77,255.22 62.44,253.75 61.83,250.81 61.31,247.85 60.83,244.89 58.9,233.05 57.4,221.15 56.03,209.24 L 56.09,209.23 Z M 56.09,209.23" />
            <path id="joe08Canvas-bezier16" stroke="none" fill="rgb(51, 91, 113)" d="M 68.42,274.6 C 68.36,276.22 68.37,277.84 68.44,279.46 68.53,281.08 68.67,282.7 68.99,284.28 69.16,285.07 69.36,285.86 69.69,286.59 69.85,286.95 70.05,287.3 70.3,287.6 70.43,287.75 70.57,287.88 70.73,288 70.91,288.13 71.05,288.29 71.17,288.46 71.66,289.16 71.93,289.94 72.19,290.71 72.44,291.49 72.64,292.28 72.81,293.08 73.5,296.26 73.9,299.49 74.21,302.73 74.36,304.35 74.47,305.97 74.55,307.59 74.61,309.22 74.69,310.84 74.55,312.5 74.54,312.7 74.49,312.93 74.47,313.1 74.45,313.29 74.44,313.49 74.44,313.68 74.43,314.08 74.44,314.48 74.45,314.89 74.48,315.69 74.54,316.5 74.6,317.3 74.73,318.92 74.89,320.53 75.07,322.14 75.41,325.37 75.81,328.58 76.27,331.79 76.7,335.01 77.17,338.22 77.8,341.39 77.96,342.18 78.13,342.97 78.35,343.74 78.47,344.13 78.58,344.51 78.78,344.84 78.99,345.19 79.17,345.58 79.29,345.98 79.77,347.58 79.48,349.34 78.64,350.74 L 78.59,350.7 C 79.35,349.3 79.55,347.55 79.03,346.06 78.89,345.69 78.73,345.34 78.51,345 78.27,344.64 78.14,344.24 78.01,343.85 77.76,343.07 77.57,342.27 77.38,341.48 76.66,338.3 76.16,335.09 75.66,331.88 75.21,328.66 74.8,325.44 74.47,322.2 74.31,320.59 74.16,318.97 74.05,317.34 74,316.53 73.96,315.72 73.93,314.9 73.92,314.49 73.92,314.09 73.93,313.67 73.94,313.46 73.95,313.26 73.97,313.04 74,312.81 74.05,312.64 74.06,312.44 74.21,310.86 74.16,309.23 74.11,307.61 74.05,306 73.94,304.38 73.81,302.76 73.54,299.54 73.17,296.31 72.51,293.14 72.35,292.35 72.16,291.56 71.92,290.79 71.68,290.03 71.42,289.25 70.97,288.6 70.86,288.44 70.73,288.3 70.58,288.18 70.42,288.06 70.26,287.91 70.13,287.75 69.86,287.42 69.66,287.05 69.49,286.67 69.17,285.91 68.97,285.12 68.81,284.32 68.51,282.71 68.38,281.09 68.32,279.47 68.26,277.84 68.27,276.22 68.36,274.6 L 68.42,274.6 Z M 68.42,274.6" />
            <path id="joe08Canvas-bezier17" stroke="none" fill="rgb(51, 91, 113)" d="M 77.29,347.31 C 77.51,349.71 77.69,352.11 77.68,354.53 77.68,355.14 77.68,355.76 77.54,356.38 77.46,356.84 77.64,357.42 77.84,357.95 78.26,359.03 78.86,360.07 79.44,361.13 L 79.4,361.17 C 78.54,360.3 77.81,359.31 77.28,358.18 77.04,357.61 76.8,356.99 76.94,356.25 77.11,355.7 77.15,355.11 77.19,354.52 77.26,353.33 77.27,352.12 77.27,350.92 77.27,349.72 77.26,348.52 77.23,347.32 L 77.29,347.31 Z M 77.29,347.31" />
            <path id="joe08Canvas-bezier18" stroke="none" fill="rgb(51, 91, 113)" d="M 83.87,357.5 C 84.75,357.25 85.66,357.07 86.58,356.99 87.04,356.95 87.51,356.87 87.98,356.96 88.44,357.04 88.92,357.19 89.3,357.5 L 89.28,357.56 C 88.8,357.57 88.37,357.57 87.92,357.57 87.48,357.57 87.04,357.49 86.6,357.48 85.7,357.45 84.79,357.48 83.88,357.56 L 83.87,357.5 Z M 83.87,357.5" />
            <path id="joe08Canvas-bezier19" stroke="none" fill="rgb(51, 91, 113)" d="M 107.32,356.69 C 107.68,356.53 108.04,356.33 108.31,356.05 108.59,355.78 108.75,355.38 108.6,355.04 108.47,354.69 108.17,354.41 107.86,354.18 107.55,353.95 107.2,353.76 106.84,353.58 106.13,353.25 105.36,352.91 104.69,352.44 104.01,351.99 103.38,351.46 102.8,350.87 101.66,349.7 100.69,348.31 100.19,346.71 99.96,345.92 99.82,345.08 99.89,344.24 99.96,343.41 100.26,342.58 100.84,341.99 L 100.89,342.03 C 100.46,342.71 100.3,343.49 100.32,344.26 100.34,345.03 100.5,345.8 100.77,346.52 101.31,347.98 102.11,349.36 103.16,350.54 103.69,351.12 104.28,351.66 104.92,352.12 105.56,352.6 106.25,352.94 106.99,353.31 107.34,353.51 107.69,353.73 108.01,353.99 108.33,354.25 108.64,354.56 108.78,354.98 108.93,355.41 108.71,355.87 108.4,356.14 108.09,356.42 107.72,356.61 107.34,356.75 L 107.32,356.69 Z M 107.32,356.69" />
            <path id="joe08Canvas-bezier20" stroke="none" fill="rgb(51, 91, 113)" d="M 103.09,346.22 C 103.65,343.53 103.91,340.79 103.95,338.05 103.99,335.31 103.79,332.56 103.23,329.88 101.98,324.55 100.52,319.23 99.36,313.86 98.78,311.17 98.21,308.47 98.02,305.69 97.98,304.28 98.05,302.92 98.06,301.55 98.08,300.18 98.08,298.81 98.05,297.44 98.03,294.7 97.86,291.97 97.41,289.27 97.19,287.93 96.88,286.59 96.43,285.31 95.98,284.02 95.39,282.77 94.53,281.7 L 94.57,281.66 C 95.5,282.69 96.17,283.93 96.69,285.21 97.2,286.5 97.56,287.84 97.83,289.2 98.38,291.91 98.57,294.67 98.67,297.43 98.69,298.81 98.69,300.18 98.67,301.56 98.65,302.93 98.59,304.32 98.63,305.66 98.77,308.37 99.3,311.07 99.83,313.76 100.94,319.14 102.33,324.45 103.53,329.82 104.05,332.54 104.22,335.3 104.14,338.05 104.05,340.8 103.75,343.55 103.15,346.23 L 103.09,346.22 Z M 103.09,346.22" />
            <path id="joe08Canvas-bezier21" stroke="none" fill="rgb(51, 91, 113)" d="M 92.15,283.71 L 94.36,278.8 C 94.75,278 94.96,277.13 95.14,276.25 95.31,275.38 95.41,274.49 95.45,273.6 95.52,271.82 95.32,270.03 94.81,268.32 94.55,267.47 94.21,266.65 93.8,265.86 93.4,265.07 92.87,264.33 92.51,263.49 91.77,261.83 91.4,260.03 91.26,258.23 91.12,256.43 91.19,254.62 91.37,252.83 91.75,249.25 92.57,245.73 93.46,242.26 93.94,240.54 94.13,238.78 94.28,237 94.43,235.22 94.51,233.43 94.55,231.65 94.66,228.07 94.65,224.49 94.55,220.91 94.49,217.33 94.34,213.76 94.06,210.19 93.91,208.41 93.75,206.62 93.42,204.88 93.33,204.44 93.23,204.01 93.07,203.59 92.93,203.16 92.82,202.72 92.73,202.28 92.54,201.41 92.39,200.52 92.24,199.63 L 92.31,199.62 C 92.48,200.5 92.67,201.38 92.89,202.24 93.01,202.67 93.13,203.11 93.28,203.52 93.46,203.93 93.58,204.38 93.69,204.82 94.08,206.58 94.29,208.37 94.48,210.15 94.85,213.72 95.04,217.31 95.17,220.9 95.26,224.48 95.27,228.07 95.16,231.66 95.09,233.46 94.99,235.25 94.83,237.04 94.66,238.83 94.44,240.64 93.93,242.38 93.02,245.84 92.17,249.33 91.77,252.87 91.57,254.64 91.48,256.43 91.61,258.21 91.73,259.98 92.08,261.74 92.79,263.37 93.12,264.19 93.64,264.92 94.05,265.73 94.46,266.54 94.79,267.39 95.04,268.25 95.55,269.99 95.73,271.81 95.63,273.61 95.59,274.51 95.47,275.4 95.29,276.29 95.1,277.16 94.88,278.05 94.47,278.86 L 92.21,283.73 92.15,283.71 Z M 92.15,283.71" />
            <path id="joe08Canvas-bezier22" stroke="none" fill="rgb(51, 91, 113)" d="M 57.64,14.39 C 57.56,14.07 57.39,13.78 57.15,13.57 56.91,13.36 56.6,13.23 56.28,13.15 55.65,13 54.98,13 54.32,13.02 53.66,13.03 53,13.08 52.32,13.05 51.98,13.04 51.64,13 51.31,12.91 51.14,12.86 50.97,12.79 50.82,12.7 50.66,12.62 50.51,12.46 50.42,12.39 50.19,12.23 49.89,12.25 49.59,12.34 49.3,12.43 49.01,12.58 48.72,12.73 48.15,13.05 47.59,13.42 47,13.74 46.41,14.05 45.76,14.35 45.02,14.36 44.65,14.37 44.27,14.27 43.95,14.07 43.63,13.9 43.38,13.57 43.18,13.39 42.75,13.01 42.12,12.96 41.52,13.1 40.91,13.23 40.32,13.5 39.74,13.79 38.57,14.38 37.47,15.12 36.21,15.66 35.89,15.79 35.56,15.91 35.19,15.98 34.84,16.03 34.4,16.05 34.03,15.8 33.76,15.58 33.59,15.53 33.4,15.65 33.2,15.77 33.02,16.05 32.88,16.33 32.6,16.9 32.4,17.53 32.18,18.16 32.06,18.47 31.95,18.78 31.81,19.09 31.66,19.38 31.51,19.73 31.16,19.86 L 31.14,19.8 C 31.42,19.66 31.53,19.32 31.64,19.02 31.75,18.71 31.83,18.4 31.91,18.08 32.08,17.44 32.23,16.79 32.49,16.15 32.63,15.84 32.78,15.5 33.13,15.24 33.3,15.12 33.57,15.05 33.79,15.1 34,15.14 34.21,15.28 34.32,15.36 34.73,15.6 35.4,15.36 35.96,15.11 37.13,14.57 38.25,13.83 39.47,13.25 40.08,12.97 40.71,12.7 41.41,12.56 41.76,12.5 42.13,12.47 42.5,12.54 42.87,12.6 43.23,12.77 43.51,13.03 43.78,13.3 43.94,13.52 44.2,13.68 44.44,13.84 44.73,13.92 45.02,13.92 45.62,13.93 46.24,13.68 46.81,13.39 47.4,13.09 47.96,12.74 48.55,12.43 48.85,12.27 49.16,12.12 49.5,12.02 49.83,11.93 50.26,11.9 50.59,12.14 51.05,12.65 51.68,12.75 52.34,12.81 52.99,12.85 53.65,12.83 54.32,12.83 54.98,12.84 55.66,12.85 56.32,13.03 56.64,13.13 56.96,13.27 57.21,13.5 57.46,13.73 57.63,14.05 57.7,14.37 L 57.64,14.39 Z M 57.64,14.39" />
            <path id="joe08Canvas-bezier23" stroke="none" fill="rgb(51, 91, 113)" d="M 30.35,28.21 C 29.68,27.67 29.08,27.04 28.6,26.32 28.13,25.6 27.78,24.76 27.84,23.87 27.88,23.44 28.01,23.01 28.22,22.63 28.46,22.25 28.68,21.91 28.81,21.5 29.1,20.71 29.14,19.85 29.1,19 29.07,18.15 28.93,17.31 28.88,16.45 28.86,16.02 28.84,15.57 29.01,15.13 29.09,14.91 29.25,14.71 29.47,14.59 29.71,14.48 29.84,14.44 29.99,14.28 30.26,14 30.42,13.6 30.55,13.2 30.67,12.8 30.77,12.39 30.85,11.97 31.02,11.14 31.12,10.29 31.33,9.44 31.38,9.23 31.44,9.02 31.53,8.81 31.63,8.61 31.73,8.37 32.01,8.23 32.32,8.1 32.6,8.32 32.75,8.42 32.89,8.51 33.06,8.52 33.22,8.46 33.56,8.33 33.85,8 34.1,7.68 34.35,7.34 34.57,6.98 34.79,6.62 L 35.45,5.51 C 35.69,5.15 35.89,4.77 36.3,4.45 36.4,4.38 36.56,4.31 36.75,4.35 36.92,4.38 37.05,4.56 37.09,4.59 37.12,4.6 37.14,4.62 37.19,4.6 37.25,4.58 37.33,4.52 37.4,4.46 37.68,4.19 37.91,3.83 38.15,3.48 38.62,2.77 39.07,2.03 39.66,1.37 39.95,1.04 40.28,0.71 40.76,0.53 40.99,0.45 41.28,0.43 41.53,0.52 41.78,0.6 41.98,0.76 42.15,0.93 42.66,1.48 43.58,1.5 44.4,1.47 45.23,1.43 46.07,1.29 46.91,1.12 48.59,0.79 50.24,0.32 51.97,0.06 52.41,0.01 52.85,-0.04 53.34,0.04 53.58,0.08 53.89,0.18 54.08,0.49 54.17,0.64 54.19,0.8 54.19,0.94 54.18,1.08 54.17,1.17 54.18,1.22 54.21,1.51 54.48,1.75 54.84,1.92 55.19,2.08 55.59,2.19 56,2.28 57.64,2.64 59.37,2.66 61.1,3.1 61.53,3.23 61.98,3.36 62.38,3.74 62.47,3.83 62.57,3.99 62.61,4.08 62.64,4.14 62.65,4.15 62.67,4.18 62.69,4.21 62.71,4.23 62.73,4.25 62.82,4.34 62.96,4.38 63.13,4.38 63.48,4.39 63.88,4.26 64.29,4.13 64.49,4.07 64.7,4 64.93,3.95 65.16,3.91 65.4,3.84 65.74,3.94 65.91,4 66.07,4.15 66.14,4.31 66.21,4.46 66.23,4.61 66.23,4.74 66.24,5 66.2,5.23 66.15,5.45 66.07,5.89 65.88,6.32 65.82,6.68 65.67,7.45 65.86,8.26 66.26,8.97 67.08,10.4 68.49,11.42 69.78,12.56 69.95,12.71 70.11,12.86 70.26,13.03 70.41,13.2 70.57,13.37 70.63,13.68 70.67,13.84 70.55,14.04 70.53,14.08 70.52,14.13 70.5,14.23 70.5,14.32 70.5,14.51 70.53,14.72 70.57,14.92 70.75,15.74 71.05,16.55 71.31,17.36 71.57,18.18 71.84,18.99 72.03,19.84 72.12,20.26 72.19,20.69 72.18,21.12 72.18,21.34 72.15,21.56 72.06,21.77 71.98,21.98 71.81,22.15 71.6,22.23 L 71.57,22.17 C 71.98,22.01 72.08,21.53 72.07,21.12 72.06,20.7 71.97,20.28 71.86,19.88 71.64,19.05 71.34,18.25 71.05,17.45 70.76,16.65 70.44,15.85 70.23,15 70.18,14.78 70.14,14.56 70.13,14.33 70.13,14.2 70.13,14.09 70.18,13.94 70.25,13.78 70.25,13.79 70.25,13.73 70.22,13.61 70.1,13.44 69.96,13.3 69.82,13.15 69.66,13.02 69.5,12.88 68.2,11.81 66.73,10.78 65.8,9.22 65.35,8.46 65.09,7.5 65.26,6.58 65.34,6.09 65.5,5.73 65.57,5.33 65.61,5.13 65.64,4.93 65.63,4.77 65.63,4.68 65.61,4.61 65.59,4.57 65.57,4.53 65.56,4.53 65.53,4.51 65.45,4.48 65.25,4.5 65.07,4.54 64.87,4.59 64.67,4.65 64.47,4.71 64.06,4.84 63.63,4.99 63.11,4.99 62.86,4.99 62.55,4.91 62.32,4.7 62.27,4.65 62.22,4.59 62.17,4.53 62.13,4.47 62.09,4.39 62.07,4.36 62.02,4.26 62,4.23 61.94,4.16 61.72,3.94 61.32,3.79 60.93,3.68 59.33,3.27 57.58,3.24 55.86,2.87 55.43,2.77 55,2.65 54.58,2.45 54.37,2.34 54.15,2.21 53.97,2.02 53.78,1.84 53.64,1.57 53.61,1.29 53.59,1.13 53.61,1.01 53.61,0.93 53.61,0.86 53.6,0.8 53.58,0.77 53.55,0.7 53.42,0.62 53.24,0.59 52.88,0.53 52.45,0.56 52.04,0.61 50.37,0.83 48.7,1.29 47,1.6 46.15,1.76 45.3,1.9 44.42,1.94 43.98,1.96 43.53,1.95 43.08,1.86 42.64,1.79 42.15,1.6 41.83,1.23 41.56,0.95 41.23,0.82 40.9,0.94 40.56,1.06 40.25,1.34 39.97,1.65 39.42,2.26 38.97,2.99 38.48,3.7 38.23,4.06 38,4.42 37.65,4.75 37.56,4.82 37.46,4.91 37.32,4.96 37.18,5.02 36.95,4.99 36.82,4.86 L 36.72,4.75 C 36.7,4.73 36.68,4.72 36.66,4.71 36.63,4.7 36.58,4.72 36.51,4.76 36.22,4.97 35.98,5.36 35.76,5.71 L 35.09,6.8 C 34.87,7.17 34.63,7.53 34.37,7.88 34.09,8.22 33.8,8.58 33.33,8.77 33.09,8.86 32.79,8.84 32.57,8.69 32.38,8.55 32.24,8.48 32.13,8.53 32.01,8.57 31.9,8.75 31.82,8.93 31.74,9.12 31.68,9.32 31.62,9.52 31.42,10.33 31.3,11.18 31.12,12.03 31.03,12.45 30.93,12.87 30.79,13.28 30.65,13.69 30.49,14.11 30.16,14.46 30.08,14.54 29.99,14.61 29.87,14.67 29.76,14.73 29.66,14.75 29.58,14.8 29.42,14.89 29.3,15.04 29.22,15.22 29.08,15.59 29.08,16.02 29.09,16.44 29.13,17.28 29.26,18.13 29.29,19 29.32,19.86 29.26,20.74 28.96,21.56 28.82,21.97 28.57,22.35 28.34,22.7 28.13,23.06 28,23.47 27.97,23.88 27.9,24.73 28.22,25.56 28.68,26.27 29.14,26.98 29.73,27.62 30.39,28.16 L 30.35,28.21 Z M 30.35,28.21" />
            <path id="joe08Canvas-bezier24" stroke="none" fill="rgb(51, 91, 113)" d="M 69.4,22.77 C 69.07,22.89 68.76,23.08 68.58,23.36 68.4,23.65 68.37,23.99 68.35,24.34 68.32,24.69 68.32,25.06 68.19,25.44 68.12,25.63 68.01,25.82 67.86,25.97 67.72,26.13 67.53,26.23 67.42,26.32 66.92,26.73 66.62,27.37 66.25,27.96 66.06,28.25 65.87,28.56 65.65,28.86 65.44,29.14 65.2,29.47 64.82,29.61 L 64.79,29.55 C 65.03,29.3 65.13,28.96 65.28,28.65 65.41,28.32 65.55,27.99 65.71,27.66 66.03,27.01 66.48,26.39 67.13,25.93 67.31,25.81 67.45,25.75 67.55,25.65 67.66,25.56 67.75,25.44 67.82,25.3 67.95,25.01 67.99,24.66 68.04,24.3 68.1,23.95 68.19,23.56 68.43,23.26 68.67,22.95 69.04,22.79 69.39,22.72 L 69.4,22.77 Z M 69.4,22.77" />
            <path id="joe08Canvas-bezier25" stroke="none" fill="rgb(51, 91, 113)" d="M 58.94,15.73 C 58.73,16.35 58.43,16.91 58.33,17.53 58.21,18.13 58.34,18.81 58.86,19.09 59.11,19.25 59.4,19.32 59.72,19.37 60.03,19.44 60.36,19.53 60.67,19.65 61.29,19.89 61.88,20.27 62.3,20.84 62.72,21.39 62.91,22.13 62.82,22.84 62.78,23.19 62.61,23.56 62.6,23.76 62.56,24.02 62.6,24.3 62.67,24.58 62.92,25.74 63.78,26.87 63.8,28.21 L 63.74,28.21 C 63.39,26.99 62.5,26.05 62.08,24.74 61.99,24.41 61.93,24.05 61.97,23.68 62.03,23.24 62.18,23.04 62.22,22.75 62.33,22.19 62.21,21.6 61.89,21.11 61.57,20.63 61.07,20.26 60.51,20.01 60.23,19.89 59.94,19.79 59.64,19.71 59.33,19.64 58.98,19.55 58.69,19.35 58.4,19.15 58.18,18.83 58.12,18.49 58.04,18.15 58.08,17.81 58.15,17.49 58.29,16.86 58.64,16.28 58.88,15.72 L 58.94,15.73 Z M 58.94,15.73" />
            <path id="joe08Canvas-bezier26" stroke="none" fill="rgb(51, 91, 113)" d="M 70.07,23.62 C 70.74,23.81 71.14,24.45 71.38,25.04 71.63,25.66 71.73,26.32 71.79,26.98 71.84,27.63 71.82,28.3 71.79,28.94 71.77,29.59 71.74,30.24 71.71,30.9 71.67,31.55 71.62,32.2 71.51,32.86 71.4,33.52 71.22,34.19 70.86,34.79 70.49,35.39 69.93,35.9 69.27,36.13 68.61,36.37 67.92,36.39 67.27,36.29 L 67.27,36.23 C 67.92,36.15 68.55,36.03 69.1,35.74 69.64,35.46 70.06,35.03 70.33,34.49 70.87,33.42 71.07,32.13 71.22,30.85 71.29,30.21 71.34,29.57 71.39,28.92 71.45,28.27 71.5,27.64 71.48,26.99 71.47,26.35 71.41,25.71 71.21,25.11 71.02,24.52 70.67,23.89 70.06,23.68 L 70.07,23.62 Z M 70.07,23.62" />
            <path id="joe08Canvas-bezier27" stroke="none" fill="rgb(51, 91, 113)" d="M 66.46,30.19 C 66.75,30.33 66.97,30.58 67.14,30.86 67.29,31.15 67.37,31.47 67.41,31.8 67.44,32.12 67.48,32.46 67.36,32.76 67.25,33.07 67.09,33.35 66.83,33.57 L 66.77,33.55 C 66.72,33.21 66.74,32.92 66.76,32.63 66.78,32.35 66.89,32.09 66.92,31.8 66.94,31.53 66.93,31.25 66.85,30.98 66.78,30.71 66.65,30.44 66.43,30.24 L 66.46,30.19 Z M 66.46,30.19" />
            <path id="joe08Canvas-bezier28" stroke="none" fill="rgb(51, 91, 113)" d="M 67.86,33.08 C 67.96,32.65 68.08,32.21 68.41,31.82 68.49,31.73 68.6,31.64 68.75,31.59 68.82,31.57 68.9,31.55 68.98,31.56 L 69.05,31.56 C 69.07,31.55 69.07,31.55 69.09,31.54 69.23,31.5 69.4,31.37 69.53,31.23 69.8,30.93 69.94,30.54 70.06,30.21 70.17,29.86 70.18,29.5 69.97,29.08 L 70.01,29.03 C 70.48,29.2 70.75,29.81 70.66,30.33 70.58,30.86 70.23,31.26 69.86,31.58 69.67,31.74 69.46,31.88 69.16,31.93 69.13,31.94 69.07,31.94 69.03,31.94 L 68.94,31.93 C 68.91,31.92 68.88,31.92 68.84,31.93 68.77,31.94 68.69,31.98 68.62,32.04 68.31,32.29 68.09,32.7 67.91,33.1 L 67.86,33.08 Z M 67.86,33.08" />
            <path id="joe08Canvas-bezier29" stroke="none" fill="rgb(51, 91, 113)" d="M 66.51,40.29 C 66.78,41.66 66.88,43.08 66.7,44.48 66.6,45.18 66.42,45.88 66.07,46.51 65.7,47.14 65.22,47.66 64.77,48.19 62.88,50.28 60.86,52.23 58.74,54.08 57.68,55 56.59,55.89 55.42,56.71 54.84,57.11 54.24,57.49 53.58,57.81 53.26,57.97 52.92,58.11 52.55,58.21 52.15,58.3 51.84,58.33 51.48,58.4 50.09,58.59 48.68,58.79 47.25,58.74 46.53,58.7 45.81,58.62 45.13,58.38 44.45,58.14 43.8,57.71 43.46,57.08 L 43.51,57.05 C 43.93,57.61 44.55,57.95 45.21,58.12 45.87,58.29 46.56,58.33 47.25,58.31 48.63,58.27 50.01,58.05 51.38,57.8 51.71,57.73 52.1,57.68 52.39,57.61 52.69,57.52 53,57.39 53.31,57.24 53.92,56.95 54.51,56.59 55.08,56.21 56.24,55.44 57.35,54.59 58.42,53.71 60.57,51.92 62.63,50.02 64.54,47.98 65.01,47.47 65.5,46.96 65.86,46.39 66.21,45.8 66.4,45.13 66.52,44.45 66.74,43.09 66.68,41.67 66.45,40.3 L 66.51,40.29 Z M 66.51,40.29" />
            <path id="joe08Canvas-bezier30" stroke="none" fill="rgb(51, 91, 113)" d="M 43.15,56.44 C 43.25,56.26 43.23,55.98 43.22,55.75 43.19,55.51 43.13,55.27 43.05,55.05 42.96,54.83 42.84,54.62 42.68,54.43 42.53,54.24 42.34,54.13 42.14,53.94 41.46,53.19 40.95,52.34 40.42,51.51 39.38,49.83 38.41,48.11 37.35,46.46 37.21,46.26 37.08,46.06 36.93,45.87 36.79,45.67 36.65,45.54 36.46,45.32 36.13,44.91 35.87,44.48 35.62,44.04 35.13,43.16 34.74,42.23 34.44,41.28 33.85,39.37 33.53,37.36 33.71,35.38 L 33.77,35.38 C 33.95,37.34 34.35,39.26 35.02,41.09 35.34,42 35.71,42.9 36.15,43.76 36.37,44.18 36.61,44.61 36.89,44.98 37.01,45.14 37.22,45.36 37.36,45.57 37.5,45.78 37.63,45.99 37.76,46.2 38.78,47.91 39.69,49.65 40.68,51.36 41.18,52.2 41.65,53.08 42.27,53.82 43.07,54.39 43.54,55.53 43.19,56.49 L 43.15,56.44 Z M 43.15,56.44" />
            <path id="joe08Canvas-bezier31" stroke="none" fill="rgb(51, 91, 113)" d="M 33.17,34.17 C 32.82,33.15 32.49,32.12 32.23,31.07 32.1,30.54 31.99,30.01 31.94,29.46 31.91,29.16 31.93,28.91 31.89,28.67 31.85,28.41 31.79,28.16 31.73,27.9 31.47,26.87 31.12,25.84 30.93,24.77 30.83,24.24 30.75,23.7 30.74,23.14 30.73,22.61 30.71,21.99 31.08,21.53 L 31.13,21.56 C 31.03,21.81 31.03,22.06 31.05,22.32 31.06,22.58 31.11,22.84 31.16,23.1 31.27,23.61 31.39,24.13 31.52,24.64 31.79,25.68 32.01,26.73 32.21,27.8 32.26,28.07 32.3,28.34 32.33,28.62 32.36,28.91 32.32,29.19 32.33,29.44 32.35,29.95 32.43,30.48 32.52,31.01 32.71,32.06 32.95,33.11 33.22,34.15 L 33.17,34.17 Z M 33.17,34.17" />
            <path id="joe08Canvas-bezier32" stroke="none" fill="rgb(51, 91, 113)" d="M 33.17,29.65 C 34.15,29.08 35.21,28.64 36.34,28.38 36.9,28.26 37.48,28.12 38.07,28.18 38.65,28.23 39.24,28.39 39.73,28.73 L 39.71,28.78 C 39.13,28.77 38.59,28.76 38.05,28.79 37.52,28.82 36.97,28.8 36.42,28.86 35.88,28.93 35.33,29.04 34.8,29.19 34.26,29.33 33.72,29.5 33.2,29.71 L 33.17,29.65 Z M 33.17,29.65" />
            <path id="joe08Canvas-bezier33" stroke="none" fill="rgb(51, 91, 113)" d="M 55.04,25.08 C 54.02,24.93 52.98,24.87 51.96,24.89 50.94,24.91 49.91,25 48.92,25.21 47.93,25.42 46.99,25.78 46.1,26.22 45.2,26.65 44.39,27.23 43.66,27.97 L 43.61,27.94 C 44.07,26.99 44.88,26.22 45.81,25.68 46.74,25.14 47.8,24.88 48.83,24.73 50.92,24.42 53.03,24.56 55.05,25.02 L 55.04,25.08 Z M 55.04,25.08" />
            <path id="joe08Canvas-bezier34" stroke="none" fill="rgb(51, 91, 113)" d="M 41.24,30.12 C 41.31,31.87 41.29,33.63 41.1,35.4 41.05,35.84 41,36.28 40.92,36.72 40.83,37.18 40.72,37.56 40.67,37.98 40.55,38.79 40.52,39.66 41,40.39 L 40.96,40.44 C 40.56,40.18 40.33,39.74 40.19,39.3 40.05,38.85 40.03,38.37 40.06,37.91 40.09,37.46 40.21,36.99 40.32,36.59 40.44,36.18 40.53,35.75 40.61,35.33 40.77,34.47 40.88,33.61 40.96,32.74 41.06,31.87 41.13,30.99 41.18,30.12 L 41.24,30.12 Z M 41.24,30.12" />
            <path id="joe08Canvas-bezier35" stroke="none" fill="rgb(51, 91, 113)" d="M 44.08,40.02 C 44.05,40.01 44.01,40 43.99,39.96 43.96,39.92 43.97,39.87 43.99,39.84 44.03,39.77 44.08,39.73 44.13,39.68 44.24,39.59 44.37,39.52 44.49,39.46 44.75,39.34 45.02,39.25 45.31,39.22 45.45,39.21 45.6,39.21 45.76,39.24 45.89,39.27 46.03,39.31 46.15,39.36 46.41,39.49 46.66,39.62 46.85,39.85 L 46.83,39.87 46.05,39.65 C 45.92,39.61 45.8,39.57 45.67,39.53 45.57,39.49 45.44,39.47 45.32,39.47 45.06,39.46 44.8,39.52 44.55,39.6 44.42,39.64 44.3,39.69 44.19,39.75 44.09,39.81 43.93,39.94 44.09,39.99 L 44.08,40.02 Z M 44.08,40.02" />
            <path id="joe08Canvas-bezier36" stroke="none" fill="rgb(51, 91, 113)" d="M 39.71,39.62 C 39.48,40.19 39.43,40.91 39.85,41.32 40.06,41.53 40.34,41.63 40.62,41.74 40.9,41.85 41.2,41.92 41.51,42.03 L 41.51,42.06 C 41.19,42.12 40.86,42.1 40.53,42.03 40.2,41.95 39.89,41.76 39.67,41.48 39.45,41.21 39.36,40.85 39.38,40.53 39.42,40.19 39.53,39.89 39.69,39.61 L 39.71,39.62 Z M 39.71,39.62" />
            <path id="joe08Canvas-bezier37" stroke="none" fill="rgb(51, 91, 113)" d="M 48.31,37.06 C 48.45,37.25 48.49,37.46 48.55,37.66 48.59,37.87 48.61,38.09 48.61,38.31 48.62,38.52 48.61,38.76 48.51,38.96 48.41,39.17 48.26,39.36 48.05,39.45 L 48.03,39.43 C 48.11,39.22 48.18,39.05 48.22,38.86 48.27,38.67 48.34,38.49 48.37,38.29 48.4,38.09 48.41,37.89 48.39,37.68 48.38,37.49 48.37,37.26 48.3,37.09 L 48.31,37.06 Z M 48.31,37.06" />
            <path id="joe08Canvas-bezier38" stroke="none" fill="rgb(51, 91, 113)" d="M 49.59,37.02 C 50.45,37.27 51.25,37.7 51.98,38.23 52.7,38.77 53.34,39.42 53.85,40.16 54.37,40.9 54.79,41.72 55.04,42.59 55.27,43.46 55.39,44.37 55.36,45.26 L 55.33,45.26 C 55.19,44.38 55.02,43.51 54.74,42.68 54.47,41.85 54.13,41.04 53.65,40.3 53.17,39.56 52.57,38.91 51.88,38.35 51.19,37.8 50.42,37.34 49.58,37.05 L 49.59,37.02 Z M 49.59,37.02" />
            <path id="joe08Canvas-bezier39" stroke="none" fill="rgb(51, 91, 113)" d="M 53.7,42.33 C 52.65,42.52 51.6,42.79 50.59,43.14 49.6,43.51 48.58,43.93 47.88,44.72 47.05,45.49 45.99,45.86 44.95,46.14 43.89,46.39 42.82,46.55 41.74,46.57 L 41.74,46.54 C 42.79,46.35 43.84,46.14 44.87,45.84 45.87,45.54 46.93,45.23 47.71,44.55 48.47,43.74 49.53,43.34 50.55,43 51.58,42.68 52.63,42.45 53.7,42.3 L 53.7,42.33 Z M 53.7,42.33" />
            <path id="joe08Canvas-bezier40" stroke="none" fill="rgb(51, 91, 113)" d="M 42.93,47.46 C 43.84,47.74 44.81,47.75 45.74,47.65 46.67,47.54 47.59,47.29 48.46,46.95 49.34,46.61 50.16,46.15 50.97,45.67 51.78,45.2 52.56,44.66 53.34,44.12 L 53.36,44.14 C 52.68,44.82 51.93,45.41 51.13,45.93 50.33,46.45 49.45,46.86 48.55,47.18 47.65,47.5 46.7,47.72 45.75,47.8 44.8,47.86 43.82,47.81 42.92,47.48 L 42.93,47.46 Z M 42.93,47.46" />
            <path id="joe08Canvas-bezier41" stroke="none" fill="rgb(51, 91, 113)" d="M 45.27,49.43 C 46,49.71 46.8,49.76 47.57,49.68 48.34,49.6 49.09,49.36 49.78,49.02 50.47,48.67 51.09,48.21 51.7,47.74 52.31,47.26 52.87,46.72 53.44,46.18 L 53.46,46.2 C 53.02,46.85 52.49,47.44 51.9,47.97 51.3,48.49 50.61,48.92 49.88,49.24 49.16,49.56 48.37,49.78 47.58,49.83 46.79,49.87 45.98,49.78 45.26,49.45 L 45.27,49.43 Z M 45.27,49.43" />
            <path id="joe08Canvas-bezier42" stroke="none" fill="rgb(51, 91, 113)" d="M 35.22,33.25 C 35.64,33.03 35.94,32.62 36.31,32.3 36.67,31.97 37.05,31.66 37.49,31.42 37.93,31.18 38.43,31.01 38.95,31.03 39.46,31.06 39.96,31.24 40.35,31.54 L 40.34,31.56 C 39.87,31.42 39.41,31.31 38.95,31.34 38.49,31.35 38.03,31.44 37.6,31.64 37.18,31.84 36.78,32.11 36.41,32.42 L 35.85,32.88 C 35.66,33.03 35.47,33.2 35.23,33.28 L 35.22,33.25 Z M 35.22,33.25" />
            <path id="joe08Canvas-bezier43" stroke="none" fill="rgb(51, 91, 113)" d="M 35.91,33.38 C 36.64,33.45 37.39,33.43 38.07,33.21 38.38,33.09 38.72,32.86 39.1,32.79 39.47,32.72 39.86,32.68 40.23,32.79 L 40.23,32.82 C 39.86,32.88 39.52,32.97 39.18,33.09 39.01,33.14 38.84,33.2 38.68,33.26 38.51,33.32 38.33,33.4 38.14,33.44 37.39,33.62 36.63,33.56 35.91,33.41 L 35.91,33.38 Z M 35.91,33.38" />
            <path id="joe08Canvas-bezier44" stroke="none" fill="rgb(51, 91, 113)" d="M 35.19,32.54 C 35.67,31.73 36.44,31.06 37.35,30.73 37.8,30.56 38.3,30.45 38.78,30.49 39.27,30.53 39.75,30.64 40.17,30.87 L 40.16,30.9 C 39.69,30.84 39.23,30.78 38.78,30.79 38.32,30.8 37.87,30.83 37.43,30.96 36.56,31.22 35.77,31.8 35.22,32.55 L 35.19,32.54 Z M 35.19,32.54" />
            <path id="joe08Canvas-bezier45" stroke="none" fill="rgb(51, 91, 113)" d="M 54.09,27.99 C 53.57,27.78 53.03,27.65 52.48,27.58 51.93,27.5 51.37,27.5 50.83,27.57 50.28,27.65 49.76,27.82 49.27,28.04 48.76,28.24 48.31,28.55 47.85,28.87 L 47.83,28.85 C 48.16,28.4 48.63,28.03 49.14,27.76 49.65,27.49 50.23,27.37 50.8,27.33 51.95,27.24 53.09,27.48 54.1,27.97 L 54.09,27.99 Z M 54.09,27.99" />
            <path id="joe08Canvas-bezier46" stroke="none" fill="rgb(51, 91, 113)" d="M 53.7,29 C 52.77,28.67 51.78,28.5 50.82,28.6 50.34,28.65 49.88,28.8 49.45,28.99 49.01,29.17 48.63,29.46 48.24,29.77 L 48.22,29.76 C 48.47,29.32 48.86,28.96 49.32,28.71 49.77,28.47 50.3,28.38 50.8,28.35 51.82,28.31 52.81,28.56 53.71,28.98 L 53.7,29 Z M 53.7,29" />
            <path id="joe08Canvas-bezier47" stroke="none" fill="rgb(51, 91, 113)" d="M 48.79,30.33 C 49.54,30.43 50.3,30.33 51.01,30.1 51.36,29.98 51.68,29.8 52.02,29.65 52.35,29.49 52.67,29.3 53.02,29.12 L 53.04,29.15 C 52.8,29.46 52.49,29.7 52.16,29.91 51.83,30.12 51.45,30.24 51.07,30.33 50.32,30.52 49.53,30.55 48.78,30.36 L 48.79,30.33 Z M 48.79,30.33" />
            <path id="joe08Canvas-bezier48" stroke="none" fill="rgb(51, 91, 113)" d="M 52.27,28.63 C 52.4,28.91 52.41,29.26 52.25,29.56 52.08,29.85 51.76,30.05 51.41,30.07 51.06,30.1 50.69,29.95 50.49,29.64 50.31,29.34 50.3,28.93 50.5,28.67 L 50.53,28.68 C 50.5,28.99 50.57,29.27 50.74,29.47 50.9,29.66 51.14,29.82 51.41,29.83 51.68,29.84 51.95,29.71 52.12,29.48 52.29,29.25 52.34,28.93 52.24,28.64 L 52.27,28.63 Z M 52.27,28.63" />
            <path id="joe08Canvas-bezier49" stroke="none" fill="rgb(51, 91, 113)" d="M 40.04,31.46 C 40.3,31.79 40.35,32.29 40.16,32.69 39.96,33.09 39.53,33.38 39.06,33.39 38.61,33.42 38.1,33.16 37.9,32.73 37.7,32.3 37.77,31.77 38.09,31.46 L 38.11,31.48 C 37.96,31.86 37.97,32.28 38.17,32.59 38.36,32.89 38.67,33.13 39.06,33.15 39.44,33.17 39.83,32.96 40.02,32.62 40.23,32.28 40.23,31.83 40.01,31.47 L 40.04,31.46 Z M 40.04,31.46" />
            <path id="joe08Canvas-bezier50" stroke="none" fill="rgb(51, 91, 113)" d="M 64.52,36.07 C 64.69,37.55 64.91,39.03 65.15,40.5 65.4,41.98 65.67,43.45 66,44.9 66.33,46.35 66.75,47.78 67.16,49.2 67.58,50.62 68.05,52.03 68.87,53.28 L 68.83,53.32 C 67.71,52.26 67.11,50.79 66.58,49.39 66.08,47.96 65.79,46.48 65.52,45 64.98,42.04 64.64,39.06 64.46,36.07 L 64.52,36.07 Z M 64.52,36.07" />
            <path id="joe08Canvas-bezier51" stroke="none" fill="rgb(51, 91, 113)" d="M 70.98,36.01 C 71.27,36.7 71.44,37.45 71.39,38.22 71.36,38.61 71.26,39 71.04,39.35 70.93,39.53 70.82,39.67 70.76,39.81 70.69,39.96 70.65,40.12 70.61,40.29 70.45,40.97 70.53,41.71 70.42,42.45 70.37,42.82 70.3,43.21 70.15,43.58 70.02,43.95 69.73,44.34 69.33,44.43 L 69.31,44.38 C 69.6,44.14 69.68,43.8 69.74,43.47 69.79,43.12 69.8,42.77 69.81,42.4 69.83,41.68 69.91,40.92 70.13,40.16 70.19,39.97 70.27,39.78 70.37,39.6 70.48,39.41 70.62,39.26 70.71,39.14 70.91,38.86 71.03,38.53 71.09,38.18 71.21,37.49 71.13,36.73 70.92,36.03 L 70.98,36.01 Z M 70.98,36.01" />
            <path id="joe08Canvas-bezier52" stroke="none" fill="rgb(51, 91, 113)" d="M 96.23,96.11 C 95.05,96.72 93.85,97.28 92.62,97.78 91.38,98.27 90.12,98.72 88.81,98.99 88.16,99.12 87.49,99.21 86.81,99.14 86.47,99.11 86.12,99.03 85.82,98.85 85.5,98.66 85.3,98.4 85.04,98.2 84.05,97.33 83,96.51 81.93,95.74 80.86,94.98 79.76,94.21 78.6,93.65 78.44,93.58 78.31,93.53 78.15,93.48 77.95,93.4 77.81,93.29 77.67,93.18 77.41,92.94 77.19,92.68 76.98,92.42 76.57,91.89 76.2,91.34 75.82,90.79 75.08,89.69 74.36,88.58 73.48,87.63 73.26,87.39 73.03,87.17 72.78,86.98 72.53,86.77 72.27,86.65 71.96,86.47 71.36,86.12 70.85,85.65 70.4,85.14 69.95,84.63 69.56,84.08 69.16,83.57 68.77,83.05 68.35,82.55 67.82,82.32 67.19,82.03 66.61,81.67 66.06,81.25 65.52,80.83 65.02,80.34 64.65,79.72 64.28,79.12 64.08,78.34 64.25,77.6 64.42,76.87 64.85,76.26 65.34,75.78 65.81,75.29 66.48,74.85 67.2,74.72 67.92,74.58 68.66,74.69 69.31,74.91 70.64,75.39 71.73,76.24 72.71,77.15 73.2,77.62 73.66,78.11 74.08,78.64 74.29,78.9 74.5,79.17 74.68,79.46 74.77,79.61 74.86,79.76 74.93,79.95 L 74.97,80.05 75.02,80.13 C 75.05,80.19 75.1,80.25 75.15,80.31 75.98,81.27 77.06,82.12 77.91,83.14 78.77,84.15 79.52,85.35 79.63,86.7 L 79.57,86.7 C 79.39,85.39 78.59,84.27 77.71,83.32 77.26,82.84 76.78,82.4 76.28,81.96 75.79,81.51 75.28,81.1 74.81,80.58 74.76,80.51 74.7,80.44 74.65,80.36 L 74.57,80.22 74.51,80.1 C 74.46,79.98 74.38,79.84 74.29,79.71 74.11,79.45 73.91,79.19 73.7,78.94 73.29,78.45 72.83,77.98 72.35,77.54 71.39,76.67 70.31,75.89 69.12,75.49 68.53,75.29 67.9,75.2 67.32,75.32 67.02,75.38 66.74,75.48 66.49,75.63 66.36,75.71 66.24,75.8 66.12,75.89 65.99,76 65.89,76.09 65.77,76.21 65.33,76.64 64.97,77.16 64.85,77.73 64.72,78.3 64.86,78.9 65.17,79.42 65.81,80.47 66.91,81.27 68.05,81.82 68.74,82.15 69.17,82.73 69.58,83.26 69.98,83.79 70.34,84.33 70.77,84.82 71.18,85.31 71.66,85.75 72.2,86.07 72.46,86.23 72.8,86.4 73.06,86.62 73.33,86.84 73.58,87.08 73.81,87.33 74.71,88.34 75.43,89.47 76.16,90.57 76.52,91.12 76.88,91.67 77.28,92.19 77.47,92.45 77.68,92.7 77.91,92.91 78.02,93.01 78.15,93.1 78.27,93.14 78.41,93.19 78.59,93.26 78.74,93.33 79.96,93.94 81.04,94.71 82.11,95.5 83.18,96.29 84.22,97.12 85.2,98.02 85.46,98.23 85.68,98.5 85.93,98.66 86.2,98.82 86.51,98.89 86.83,98.93 87.47,99 88.13,98.93 88.78,98.81 90.07,98.56 91.34,98.14 92.57,97.67 93.8,97.19 95.02,96.65 96.2,96.06 L 96.23,96.11 Z M 96.23,96.11" />
            <path id="joe08Canvas-bezier53" stroke="none" fill="rgb(51, 91, 113)" d="M 77.61,81.56 C 77.23,79.47 76.82,77.37 76.12,75.38 75.93,74.88 75.73,74.4 75.38,74.01 L 74.41,72.74 72.49,70.19 C 71.23,68.47 69.98,66.75 68.76,65 67.55,63.25 66.33,61.51 65.29,59.62 65.16,59.38 65.04,59.13 64.95,58.85 64.92,58.78 64.9,58.7 64.89,58.61 64.88,58.52 64.87,58.48 64.87,58.4 64.87,58.24 64.88,58.09 64.9,57.94 65,57.35 65.31,56.83 65.71,56.41 66.13,56 66.66,55.7 67.25,55.59 67.84,55.48 68.48,55.6 68.99,55.9 69.06,55.93 69.12,55.98 69.18,56.02 69.24,56.06 69.32,56.11 69.36,56.14 69.48,56.25 69.58,56.35 69.68,56.45 69.88,56.65 70.05,56.85 70.23,57.06 70.58,57.47 70.91,57.89 71.23,58.32 71.87,59.18 72.48,60.05 73.09,60.92 L 76.65,66.23 C 77.24,67.11 77.83,68 78.43,68.87 78.73,69.31 79.03,69.75 79.34,70.17 79.5,70.39 79.66,70.6 79.83,70.8 80,70.99 80.18,71.23 80.39,71.31 L 80.39,71.37 C 80.1,71.29 79.94,71.06 79.74,70.88 79.56,70.68 79.38,70.48 79.21,70.28 78.87,69.87 78.53,69.45 78.2,69.03 77.56,68.19 76.93,67.33 76.3,66.47 L 72.59,61.28 C 71.98,60.41 71.36,59.55 70.72,58.7 70.4,58.28 70.08,57.86 69.75,57.45 69.58,57.25 69.41,57.05 69.24,56.87 69.15,56.78 69.06,56.69 68.98,56.62 L 68.9,56.56 68.84,56.52 C 68.79,56.48 68.74,56.45 68.69,56.42 68.29,56.18 67.81,56.08 67.35,56.16 66.89,56.23 66.45,56.47 66.1,56.8 65.76,57.14 65.5,57.57 65.41,58.03 65.39,58.15 65.38,58.27 65.38,58.37 65.38,58.42 65.39,58.51 65.39,58.55 65.4,58.6 65.41,58.65 65.43,58.7 65.5,58.93 65.61,59.17 65.72,59.4 66.7,61.25 67.91,63.02 69.09,64.78 70.28,66.54 71.51,68.28 72.74,70.01 L 74.6,72.6 75.55,73.88 C 75.9,74.29 76.11,74.82 76.29,75.32 76.96,77.35 77.33,79.45 77.67,81.55 L 77.61,81.56 Z M 77.61,81.56" />
            <path id="joe08Canvas-bezier54" stroke="none" fill="rgb(51, 91, 113)" d="M 79.89,68.53 C 78.58,66.53 77.31,64.51 76.13,62.42 75.54,61.38 74.98,60.31 74.49,59.23 73.97,58.16 73.34,57.15 72.73,56.12 72.12,55.09 71.5,54.05 71.08,52.9 70.87,52.33 70.7,51.71 70.81,51.04 70.87,50.71 71.03,50.38 71.27,50.14 71.52,49.89 71.79,49.73 72.12,49.62 72.78,49.38 73.51,49.58 74.04,49.92 74.59,50.26 75.03,50.71 75.42,51.18 76.2,52.14 76.81,53.19 77.32,54.31 L 77.3,54.27 79.47,57.85 80.55,59.63 C 80.74,59.92 80.92,60.22 81.11,60.49 81.35,60.8 81.48,61.13 81.64,61.45 82.24,62.71 82.79,63.98 83.42,65.22 83.73,65.84 84.05,66.46 84.41,67.05 84.59,67.34 84.78,67.63 85,67.9 85.21,68.16 85.45,68.44 85.77,68.55 L 85.76,68.61 C 85.4,68.51 85.13,68.24 84.89,68 84.65,67.74 84.43,67.46 84.23,67.17 83.81,66.6 83.45,66 83.11,65.39 82.41,64.17 81.79,62.92 81.17,61.68 81,61.37 80.86,61.05 80.66,60.82 80.44,60.52 80.26,60.23 80.06,59.94 79.67,59.36 79.3,58.76 78.94,58.17 78.2,56.98 77.48,55.79 76.77,54.58 L 76.76,54.57 76.75,54.55 C 76.29,53.48 75.72,52.43 75.01,51.52 74.65,51.06 74.24,50.64 73.78,50.34 73.31,50.04 72.77,49.89 72.27,50.06 71.76,50.22 71.33,50.6 71.24,51.12 71.14,51.64 71.28,52.22 71.46,52.77 71.85,53.87 72.45,54.91 73.04,55.94 73.63,56.98 74.25,58.01 74.76,59.1 75.22,60.21 75.75,61.27 76.32,62.32 77.45,64.42 78.68,66.47 79.95,68.5 L 79.89,68.53 Z M 79.89,68.53" />
            <path id="joe08Canvas-bezier55" stroke="none" fill="rgb(51, 91, 113)" d="M 86.2,68.8 C 86.43,68.81 86.7,68.76 86.86,68.58 87.02,68.41 87.03,68.15 86.98,67.92 86.89,67.44 86.63,67.01 86.39,66.58 85.92,65.7 85.58,64.76 85.26,63.82 84.95,62.88 84.66,61.93 84.37,60.98 84.07,60.03 83.82,59.09 83.33,58.22 82.55,56.36 82.12,54.42 81.37,52.61 81.18,52.15 80.98,51.72 80.73,51.29 80.49,50.84 80.29,50.32 80.35,49.74 80.41,49.17 80.8,48.68 81.24,48.38 81.45,48.23 81.68,48.1 81.91,47.99 82.14,47.87 82.43,47.78 82.7,47.75 83.26,47.68 83.85,47.87 84.28,48.23 84.71,48.59 84.99,49.06 85.2,49.54 85.4,50.02 85.53,50.52 85.63,51.02 85.72,51.52 85.8,51.98 85.94,52.44 86.48,54.3 87.45,56.03 88.43,57.74 88.67,58.17 88.92,58.6 89.15,59.06 89.26,59.3 89.37,59.52 89.43,59.83 L 89.55,60.56 C 89.71,61.54 89.92,62.5 90.14,63.46 90.38,64.41 90.65,65.36 91.02,66.27 91.2,66.73 91.4,67.17 91.66,67.59 91.92,68 92.23,68.39 92.66,68.63 L 92.63,68.68 C 92.17,68.47 91.81,68.09 91.52,67.68 91.22,67.27 90.98,66.83 90.76,66.38 90.34,65.47 90.01,64.52 89.73,63.57 89.45,62.61 89.23,61.64 89.03,60.66 L 88.89,59.92 C 88.85,59.75 88.75,59.53 88.64,59.32 88.41,58.89 88.15,58.47 87.9,58.05 86.89,56.34 85.9,54.57 85.36,52.6 85.22,52.11 85.14,51.59 85.07,51.12 84.98,50.65 84.87,50.18 84.69,49.75 84.52,49.31 84.27,48.91 83.94,48.62 83.61,48.34 83.19,48.19 82.75,48.23 82.53,48.26 82.34,48.31 82.12,48.42 81.9,48.52 81.69,48.63 81.5,48.76 81.13,49.02 80.84,49.37 80.79,49.8 80.73,50.22 80.88,50.68 81.1,51.09 81.34,51.52 81.56,52 81.74,52.46 82.48,54.32 82.88,56.29 83.61,58.09 84.08,58.98 84.33,59.97 84.61,60.91 84.88,61.86 85.14,62.82 85.44,63.76 85.74,64.7 86.05,65.64 86.5,66.52 86.73,66.95 86.99,67.4 87.07,67.9 87.11,68.15 87.1,68.44 86.91,68.64 86.72,68.83 86.44,68.88 86.19,68.86 L 86.2,68.8 Z M 86.2,68.8" />
            <path id="joe08Canvas-bezier56" stroke="none" fill="rgb(51, 91, 113)" d="M 93.11,69.78 C 93.36,69.91 93.65,69.99 93.92,69.95 94.2,69.92 94.42,69.7 94.51,69.44 94.71,68.92 94.65,68.33 94.58,67.77 L 94.12,64.38 C 93.96,63.25 93.79,62.12 93.56,61 93.5,60.73 93.44,60.45 93.36,60.18 93.32,60.05 93.28,59.91 93.22,59.79 93.17,59.69 93.08,59.53 93.04,59.4 92.84,58.85 92.71,58.29 92.6,57.72 92.38,56.59 92.23,55.45 92.33,54.28 92.36,53.98 92.41,53.69 92.52,53.4 92.62,53.12 92.79,52.82 93.1,52.65 93.26,52.57 93.41,52.54 93.55,52.51 93.69,52.47 93.84,52.45 93.99,52.44 94.3,52.41 94.63,52.45 94.92,52.59 95.51,52.86 95.85,53.41 96.1,53.94 96.35,54.47 96.52,55.03 96.67,55.59 96.95,56.71 97.12,57.85 97.26,58.99 L 97.24,58.94 C 97.67,60.07 97.95,61.23 98.15,62.41 98.35,63.59 98.48,64.77 98.52,65.97 L 98.5,65.89 C 98.95,66.97 99.42,68.05 99.91,69.12 100.16,69.65 100.41,70.18 100.69,70.68 100.76,70.8 100.83,70.91 100.92,71.04 101,71.18 101.07,71.31 101.15,71.44 101.29,71.7 101.43,71.97 101.56,72.23 102.63,74.36 103.45,76.6 104.07,78.89 104.69,81.18 105.1,83.55 105.15,85.93 105.2,88.31 104.93,90.71 104.17,92.97 L 104.17,92.96 C 104.05,93.35 103.8,93.59 103.55,93.82 103.3,94.04 103.03,94.23 102.75,94.4 102.2,94.74 101.61,95.02 101,95.24 99.8,95.69 98.51,95.98 97.22,95.95 L 97.22,95.88 C 98.5,95.86 99.75,95.51 100.91,95.01 101.49,94.76 102.06,94.47 102.58,94.12 102.84,93.95 103.09,93.76 103.31,93.55 103.53,93.35 103.74,93.1 103.79,92.87 L 103.79,92.87 103.79,92.86 C 104.46,90.62 104.69,88.27 104.59,85.95 104.48,83.62 104.09,81.31 103.48,79.05 102.87,76.8 102.05,74.59 101.05,72.48 100.92,72.22 100.79,71.96 100.65,71.71 L 100.44,71.34 C 100.37,71.22 100.28,71.07 100.21,70.94 99.92,70.41 99.67,69.88 99.43,69.34 98.94,68.25 98.49,67.16 98.05,66.07 L 98.04,66.03 98.04,65.98 C 98.01,64.82 97.9,63.64 97.71,62.48 97.52,61.33 97.26,60.18 96.86,59.08 L 96.85,59.06 96.85,59.04 C 96.72,57.91 96.57,56.78 96.31,55.68 96.17,55.13 96.01,54.59 95.78,54.09 95.55,53.59 95.24,53.11 94.77,52.89 94.32,52.67 93.71,52.76 93.25,52.93 92.83,53.17 92.69,53.78 92.63,54.31 92.51,55.42 92.65,56.57 92.84,57.68 92.95,58.23 93.07,58.79 93.25,59.32 93.3,59.47 93.34,59.54 93.43,59.7 93.49,59.84 93.53,59.98 93.57,60.12 93.64,60.4 93.7,60.68 93.76,60.97 93.97,62.09 94.13,63.23 94.27,64.36 L 94.69,67.76 C 94.75,68.33 94.8,68.92 94.59,69.48 94.49,69.75 94.24,69.99 93.93,70.02 93.63,70.06 93.34,69.97 93.08,69.83 L 93.11,69.78 Z M 93.11,69.78" />
            <path id="joe08Canvas-bezier57" stroke="none" fill="rgb(51, 91, 113)" d="M 91.25,99.21 C 92.9,100.12 94.69,100.87 96.55,101.09 96.79,101.12 97,101.12 97.26,101.15 97.53,101.18 97.77,101.26 98,101.37 98.45,101.6 98.83,101.9 99.2,102.21 99.94,102.83 100.62,103.47 101.36,104.05 102.83,105.22 104.52,106.04 106.33,106.44 108.14,106.88 110.04,106.84 111.93,106.67 L 111.94,106.73 C 110.1,107.25 108.13,107.39 106.2,107.04 104.27,106.69 102.51,105.68 101.05,104.43 100.31,103.81 99.64,103.13 98.94,102.51 98.59,102.2 98.23,101.9 97.84,101.69 97.64,101.58 97.43,101.5 97.23,101.47 97.01,101.45 96.75,101.43 96.51,101.4 94.6,101.08 92.84,100.25 91.22,99.26 L 91.25,99.21 Z M 91.25,99.21" />
            <path id="joe08Canvas-bezier58" stroke="none" fill="rgb(51, 91, 113)" d="M 112.91,105.48 C 113.67,105.97 114.67,105.94 115.37,105.44 116.09,104.96 116.59,104.2 116.94,103.41 117.29,102.61 117.47,101.75 117.65,100.89 117.82,100.04 117.92,99.16 117.95,98.26 L 118.01,98.25 C 118.32,99.12 118.35,100.07 118.25,100.99 118.14,101.91 117.82,102.8 117.38,103.62 116.94,104.44 116.36,105.22 115.53,105.7 115.11,105.93 114.63,106.05 114.16,106.01 113.69,105.98 113.24,105.81 112.88,105.53 L 112.91,105.48 Z M 112.91,105.48" />
            <path id="joe08Canvas-bezier59" stroke="none" fill="rgb(51, 91, 113)" d="M 117.85,96.73 C 117.87,96.03 117.83,95.34 117.75,94.66 117.68,93.97 117.57,93.29 117.41,92.63 117.25,91.96 116.99,91.34 116.79,90.69 116.59,90.05 116.34,89.42 116.09,88.76 L 116.14,88.72 C 116.68,89.21 117.07,89.82 117.36,90.47 117.67,91.13 117.78,91.84 117.89,92.54 118.1,93.93 118.11,95.35 117.91,96.73 L 117.85,96.73 Z M 117.85,96.73" />
            <path id="joe08Canvas-bezier60" stroke="none" fill="rgb(51, 91, 113)" d="M 104.4,80.12 C 105.7,79.63 107.14,79.37 108.55,79.66 109.25,79.81 109.93,80.14 110.47,80.64 110.75,80.88 110.96,81.18 111.18,81.44 L 111.86,82.22 C 112.77,83.26 113.75,84.26 114.56,85.42 114.95,86 115.33,86.61 115.6,87.28 115.86,87.94 116.02,88.71 115.75,89.39 L 115.69,89.37 C 115.77,88.69 115.53,88.04 115.21,87.46 114.88,86.87 114.5,86.31 114.06,85.78 L 111.48,82.54 110.83,81.71 C 110.62,81.43 110.43,81.15 110.2,80.92 109.73,80.46 109.13,80.13 108.48,79.96 107.17,79.6 105.73,79.76 104.42,80.18 L 104.4,80.12 Z M 104.4,80.12" />
            <path id="joe08Canvas-bezier61" stroke="none" fill="rgb(51, 91, 113)" d="M 50.2,94.69 C 49.9,97.3 49.71,99.92 49.57,102.54 49.54,103.2 49.48,103.85 49.48,104.5 49.49,105.16 49.52,105.82 49.55,106.47 49.61,107.78 49.69,109.09 49.78,110.4 50.12,115.64 50.55,120.88 50.72,126.14 50.76,127.45 50.78,128.77 50.72,130.09 50.63,131.42 50.4,132.71 50.21,134.01 49.81,136.61 49.4,139.2 49.03,141.8 48.66,144.4 48.32,147 48.08,149.61 47.96,150.92 47.87,152.22 47.84,153.53 47.83,154.82 47.82,156.16 48.16,157.36 48.62,158.61 48.85,159.93 49.07,161.23 49.27,162.53 49.43,163.84 49.57,165.15 49.83,167.77 50.01,170.4 50.11,173.03 50.16,174.35 50.18,175.66 50.17,176.98 50.14,178.31 50.14,179.61 49.87,180.97 49.18,183.52 48.58,186.06 47.96,188.62 L 46.1,196.27 45.21,200.11 45.16,200.34 45.15,200.4 C 45.14,200.41 45.14,200.41 45.14,200.4 45.13,200.4 45.12,200.25 45.09,200.26 45.04,200.2 44.97,200.2 45,200.21 L 45.01,200.21 45.06,200.21 C 45.21,200.21 45.37,200.19 45.53,200.18 L 46.52,200.08 C 47.17,200.02 47.83,199.96 48.49,199.91 51.13,199.72 53.79,199.68 56.42,199.96 59.04,200.27 61.67,200.86 64.02,202.09 L 63.99,202.15 C 61.62,200.99 59,200.47 56.39,200.24 53.78,200 51.14,200.07 48.52,200.3 47.87,200.35 47.21,200.42 46.56,200.49 L 45.58,200.61 C 45.41,200.62 45.25,200.64 45.06,200.65 L 44.99,200.65 44.94,200.64 C 44.95,200.64 44.86,200.64 44.78,200.57 44.73,200.58 44.71,200.41 44.7,200.38 L 44.71,200.33 44.72,200.26 44.77,200.02 45.61,196.16 47.37,188.48 C 47.98,185.93 48.59,183.35 49.28,180.84 49.52,179.61 49.53,178.27 49.56,176.98 49.57,175.67 49.55,174.36 49.51,173.05 49.43,170.43 49.27,167.81 49.02,165.21 48.9,163.9 48.75,162.6 48.55,161.31 48.35,160.02 48.14,158.74 47.7,157.51 47.33,156.17 47.36,154.84 47.38,153.52 47.41,152.2 47.51,150.88 47.64,149.57 47.89,146.95 48.25,144.35 48.64,141.75 49.02,139.15 49.45,136.55 49.86,133.96 50.06,132.66 50.3,131.36 50.39,130.07 50.46,128.77 50.44,127.46 50.42,126.15 50.28,120.9 49.9,115.66 49.6,110.42 49.52,109.1 49.45,107.79 49.39,106.48 49.37,105.82 49.34,105.17 49.35,104.51 49.35,103.85 49.41,103.19 49.45,102.54 49.61,99.91 49.82,97.29 50.14,94.69 L 50.2,94.69 Z M 50.2,94.69" />
            <path id="joe08Canvas-bezier62" stroke="none" fill="rgb(51, 91, 113)" d="M 65.56,62.1 C 64.99,62.94 64.39,63.76 63.72,64.54 63.38,64.92 63.03,65.29 62.64,65.63 62.44,65.8 62.24,65.96 62.01,66.1 61.79,66.24 61.61,66.38 61.43,66.55 60.72,67.24 60.19,68.11 59.71,68.99 59.23,69.87 58.81,70.79 58.4,71.72 57.6,73.58 56.91,75.49 56.08,77.35 55.23,79.2 54.38,81.07 53.19,82.74 L 53.14,82.71 C 54.02,80.88 54.77,79 55.52,77.11 56.27,75.23 57.09,73.37 57.95,71.52 58.39,70.6 58.85,69.68 59.36,68.79 59.88,67.91 60.44,67.03 61.22,66.32 63.02,65.28 64.29,63.69 65.51,62.06 L 65.56,62.1 Z M 65.56,62.1" />
            <path id="joe08Canvas-bezier63" stroke="none" fill="rgb(51, 91, 113)" d="M 70.9,52.68 C 70.79,53.17 70.64,53.66 70.48,54.14 70.39,54.37 70.35,54.63 70.2,54.84 70.05,55.05 69.88,55.24 69.62,55.39 L 69.56,55.36 C 69.53,55.06 69.58,54.81 69.65,54.57 69.72,54.33 69.9,54.14 70.03,53.93 70.3,53.5 70.57,53.08 70.84,52.65 L 70.9,52.68 Z M 70.9,52.68" />
            <path id="joe08Canvas-bezier64" stroke="none" fill="rgb(51, 91, 113)" d="M 68.15,49.87 C 68.54,49.62 68.95,49.41 69.4,49.25 69.62,49.18 69.85,49.06 70.11,49.09 70.35,49.11 70.62,49.2 70.81,49.42 L 70.79,49.48 C 70.53,49.59 70.35,49.65 70.14,49.7 69.94,49.75 69.72,49.71 69.5,49.73 69.07,49.77 68.62,49.84 68.17,49.93 L 68.15,49.87 Z M 68.15,49.87" />
            <path id="joe08Canvas-bezier65" stroke="none" fill="rgb(51, 91, 113)" d="M 65.06,202.09 C 67.5,202.26 69.94,202.35 72.37,202.37 74.81,202.4 77.25,202.35 79.67,202.13 80.88,202.02 82.08,201.86 83.26,201.61 84.45,201.36 85.56,201.03 86.62,200.44 88.83,199.4 91.06,198.34 93.46,197.77 L 93.47,197.83 C 92.33,198.25 91.24,198.79 90.14,199.32 89.06,199.86 87.97,200.4 86.9,200.98 86.38,201.27 85.78,201.56 85.19,201.75 84.59,201.95 83.98,202.08 83.38,202.2 82.16,202.42 80.93,202.54 79.71,202.62 77.26,202.78 74.81,202.76 72.37,202.68 69.92,202.58 67.49,202.4 65.06,202.15 L 65.06,202.09 Z M 65.06,202.09" />
            <path id="joe08Canvas-bezier66" stroke="none" fill="rgb(51, 91, 113)" d="M 93.99,196.09 C 95,192.95 95.72,189.7 95.91,186.41 95.99,184.78 95.93,183.12 95.49,181.56 95.26,180.77 94.93,180.05 94.46,179.38 94,178.68 93.58,177.96 93.19,177.23 91.62,174.29 90.3,171.24 89.2,168.11 88.66,166.54 88.15,164.96 87.72,163.36 87.3,161.76 86.89,160.13 86.8,158.47 L 86.86,158.47 C 86.97,159.28 87.18,160.08 87.41,160.87 87.63,161.67 87.87,162.46 88.13,163.24 88.64,164.8 89.18,166.36 89.77,167.9 90.95,170.98 92.13,174.06 93.62,177 94,177.73 94.4,178.45 94.83,179.14 95.31,179.83 95.66,180.64 95.87,181.45 96.3,183.09 96.33,184.78 96.21,186.43 95.94,189.75 95.13,192.99 94.05,196.11 L 93.99,196.09 Z M 93.99,196.09" />
            <path id="joe08Canvas-bezier67" stroke="none" fill="rgb(51, 91, 113)" d="M 93.44,173.93 C 94.03,172.19 94.56,170.42 94.96,168.63 95.15,167.74 95.32,166.83 95.35,165.92 95.36,165.48 95.35,165 95.17,164.63 95.13,164.55 95.05,164.48 94.98,164.36 94.9,164.24 94.87,164.14 94.82,164.02 94.73,163.8 94.67,163.57 94.62,163.34 94.22,161.52 94.08,159.68 93.94,157.84 93.82,156 93.76,154.15 93.75,152.3 93.74,150.46 93.78,148.61 93.94,146.76 94.03,145.83 94.13,144.91 94.37,143.99 94.43,143.75 94.5,143.52 94.59,143.29 94.67,143.06 94.82,142.82 94.91,142.65 95.09,142.29 95.18,141.87 95.21,141.44 95.27,137.91 92.88,134.44 93.43,130.67 L 93.49,130.68 C 93.41,131.6 93.55,132.51 93.76,133.39 93.96,134.28 94.25,135.15 94.54,136.02 94.84,136.89 95.14,137.77 95.39,138.66 95.63,139.56 95.85,140.49 95.82,141.47 95.79,141.96 95.69,142.46 95.47,142.93 95.34,143.17 95.25,143.32 95.17,143.52 95.1,143.72 95.03,143.93 94.98,144.14 94.76,145.01 94.64,145.91 94.54,146.82 94.34,148.63 94.27,150.47 94.24,152.31 94.22,154.14 94.25,155.98 94.34,157.81 94.44,159.64 94.56,161.49 94.92,163.27 94.97,163.49 95.02,163.71 95.09,163.92 95.13,164.02 95.17,164.13 95.22,164.21 95.26,164.29 95.36,164.39 95.41,164.51 95.62,164.98 95.61,165.47 95.59,165.93 95.54,166.87 95.35,167.77 95.13,168.67 94.69,170.47 94.13,172.22 93.49,173.95 L 93.44,173.93 Z M 93.44,173.93" />
            <path id="joe08Canvas-bezier68" stroke="none" fill="rgb(51, 91, 113)" d="M 95.49,136.02 C 96.16,133.24 96.76,130.46 97.26,127.66 97.49,126.26 97.73,124.84 97.75,123.45 97.75,123.11 97.7,122.77 97.65,122.41 L 97.51,121.36 C 97.41,120.66 97.3,119.94 97.16,119.28 L 97.16,119.31 C 96.55,117.55 95.97,115.78 95.48,113.98 95.22,113.09 94.98,112.19 94.77,111.28 94.56,110.37 94.34,109.46 94.28,108.52 L 94.34,108.51 C 94.53,109.42 94.85,110.3 95.12,111.18 L 96,113.82 C 96.29,114.7 96.59,115.58 96.88,116.47 L 97.72,119.12 97.73,119.14 97.73,119.15 C 97.87,119.88 97.95,120.58 98.03,121.29 L 98.14,122.36 C 98.17,122.71 98.22,123.08 98.2,123.45 98.15,124.92 97.87,126.32 97.6,127.72 97.03,130.52 96.31,133.28 95.55,136.03 L 95.49,136.02 Z M 95.49,136.02" />
            <path id="joe08Canvas-bezier69" stroke="none" fill="rgb(51, 91, 113)" d="M 98.83,127.97 C 99.67,127.5 100.23,126.64 100.53,125.75 100.83,124.85 100.89,123.88 100.82,122.93 100.59,121.02 100.55,119.06 100.58,117.13 100.61,115.19 100.67,113.25 100.9,111.32 101.03,110.36 101.16,109.39 101.35,108.44 101.56,107.49 101.74,106.52 102.18,105.64 L 102.24,105.67 C 102.09,106.12 102.02,106.6 101.95,107.07 101.88,107.55 101.82,108.03 101.77,108.5 101.68,109.46 101.58,110.42 101.51,111.38 101.36,113.3 101.17,115.22 101.07,117.14 100.98,119.07 100.95,120.98 101.12,122.92 101.15,123.9 101.05,124.89 100.7,125.81 100.35,126.72 99.74,127.58 98.85,128.03 L 98.83,127.97 Z M 98.83,127.97" />
            <path id="joe08Canvas-bezier70" stroke="none" fill="rgb(51, 91, 113)" d="M 70.37,74.66 C 70.5,74.34 70.6,74 70.7,73.66 L 71.02,72.67 C 71.13,72.33 71.19,71.98 71.36,71.67 71.53,71.37 71.72,71.07 72,70.8 L 72.06,70.82 C 72.09,71.21 72.02,71.56 71.93,71.9 71.84,72.24 71.64,72.54 71.48,72.85 71.15,73.47 70.83,74.1 70.43,74.69 L 70.37,74.66 Z M 70.37,74.66" />
            <path id="joe08Canvas-bezier71" stroke="none" fill="rgb(51, 91, 113)" d="M 61.93,66 C 62.58,67.51 63.17,69.06 63.7,70.62 63.97,71.4 64.25,72.18 64.42,72.99 64.59,73.8 64.71,74.63 64.7,75.47 L 64.64,75.48 C 64.32,74.71 64.07,73.93 63.83,73.14 63.59,72.36 63.43,71.56 63.23,70.76 62.81,69.18 62.36,67.59 61.87,66.02 L 61.93,66 Z M 61.93,66" />
            <path id="joe08Canvas-bezier72" stroke="none" fill="rgb(51, 91, 113)" d="M 90.3,61.87 C 90.8,61.99 91.29,62.16 91.76,62.4 92,62.52 92.26,62.61 92.44,62.82 92.62,63.02 92.77,63.27 92.8,63.57 L 92.75,63.61 C 92.46,63.52 92.25,63.41 92.04,63.28 91.83,63.17 91.69,62.96 91.5,62.8 91.12,62.49 90.7,62.2 90.27,61.93 L 90.3,61.87 Z M 90.3,61.87" />
            <path id="joe08Canvas-bezier73" stroke="none" fill="rgb(51, 91, 113)" d="M 82.33,61.2 C 82.62,61.1 82.9,60.99 83.17,60.89 83.31,60.83 83.44,60.73 83.59,60.75 83.75,60.76 83.91,60.81 84.08,60.95 L 84.09,61.02 C 83.96,61.2 83.84,61.28 83.7,61.35 83.57,61.42 83.4,61.37 83.26,61.37 82.95,61.37 82.63,61.34 82.34,61.26 L 82.33,61.2 Z M 82.33,61.2" />
            <path id="joe08Canvas-bezier74" stroke="none" fill="rgb(51, 91, 113)" d="M 98.81,63.02 C 99.61,63.49 100.39,63.98 101.2,64.44 101.6,64.67 102,64.89 102.41,65.11 102.81,65.32 103.24,65.53 103.63,65.8 105.19,66.86 106.4,68.34 107.42,69.89 108.45,71.45 109.32,73.11 110,74.84 110.67,76.57 111.24,78.34 111.66,80.14 L 111.6,80.16 C 110.84,78.47 110.2,76.74 109.44,75.07 108.69,73.4 107.96,71.72 107.01,70.15 106.06,68.6 104.92,67.13 103.45,66.05 103.09,65.78 102.69,65.55 102.29,65.32 101.89,65.08 101.49,64.84 101.1,64.6 100.32,64.1 99.55,63.58 98.78,63.08 L 98.81,63.02 Z M 98.81,63.02" />
            <path id="joe08Canvas-bezier75" stroke="none" fill="rgb(51, 91, 113)" d="M 43.18,66.31 C 42.98,65.95 42.74,65.61 42.45,65.36 42.31,65.24 42.16,65.14 42,65.1 41.82,65.07 41.7,65.07 41.65,65.16 41.5,65.36 41.5,65.8 41.41,66.16 41.33,66.54 41.26,66.94 41.1,67.35 L 41.04,67.36 C 40.86,66.95 40.8,66.53 40.8,66.1 40.82,65.67 40.91,65.23 41.31,64.81 41.37,64.76 41.43,64.71 41.51,64.68 41.58,64.65 41.71,64.64 41.74,64.65 41.9,64.66 42,64.68 42.12,64.73 42.35,64.82 42.53,64.98 42.67,65.15 42.95,65.5 43.1,65.89 43.23,66.28 L 43.18,66.31 Z M 43.18,66.31" />
            <path id="joe08Canvas-bezier76" stroke="none" fill="rgb(51, 91, 113)" d="M 53.11,81.11 C 52.82,80.06 52.72,78.96 52.88,77.86 52.91,77.58 53.04,77.29 52.97,77.13 52.91,76.94 52.73,76.75 52.54,76.6 52.14,76.28 51.66,76.03 51.18,75.8 50.22,75.34 49.19,74.97 48.23,74.46 47.27,73.95 46.29,73.39 45.54,72.58 L 45.57,72.53 C 46.52,73.07 47.5,73.48 48.49,73.91 49.48,74.34 50.45,74.83 51.41,75.37 51.89,75.64 52.37,75.91 52.8,76.3 53.01,76.49 53.23,76.72 53.31,77.05 53.36,77.21 53.32,77.41 53.28,77.53 53.24,77.66 53.21,77.79 53.18,77.91 52.95,78.94 52.96,80.04 53.17,81.09 L 53.11,81.11 Z M 53.11,81.11" />
            <path id="joe08Canvas-bezier77" stroke="none" fill="rgb(51, 91, 113)" d="M 41.32,64.84 C 41.92,64.06 42.51,63.28 43.09,62.5 43.38,62.1 43.62,61.67 43.95,61.31 44.27,60.95 44.6,60.6 44.99,60.27 L 45.05,60.3 C 44.94,60.81 44.7,61.26 44.44,61.68 44.18,62.1 43.8,62.44 43.47,62.81 42.8,63.53 42.1,64.22 41.37,64.89 L 41.32,64.84 Z M 41.32,64.84" />
            <path id="joe08Canvas-bezier78" stroke="none" fill="rgb(51, 91, 113)" d="M 45.49,62.31 C 45.58,62.95 45.78,63.65 45.91,64.31 46.04,64.99 46.16,65.67 46.26,66.36 46.36,67.05 46.48,67.74 46.43,68.45 46.37,69.14 46.26,69.9 45.81,70.48 L 45.76,70.46 C 45.87,69.77 45.84,69.11 45.82,68.44 45.78,67.77 45.82,67.09 45.78,66.41 45.74,65.73 45.68,65.04 45.61,64.36 L 45.51,63.33 C 45.48,62.98 45.41,62.66 45.44,62.28 L 45.49,62.31 Z M 45.49,62.31" />
            <path id="joe08Canvas-bezier79" stroke="none" fill="rgb(51, 91, 113)" d="M 43.69,96.42 C 43.92,94.48 44.21,92.55 44.71,90.65 44.84,90.17 44.99,89.7 45.19,89.25 45.41,88.79 45.65,88.39 45.89,87.95 46.36,87.09 46.86,86.24 47.45,85.45 48.05,84.67 48.71,83.89 49.66,83.44 50.13,83.22 50.7,83.14 51.22,83.28 51.72,83.44 52.18,83.65 52.58,84.01 52.99,84.36 53.25,84.89 53.29,85.42 53.34,85.95 53.23,86.46 53.09,86.94 52.78,87.91 52.31,88.78 51.82,89.64 50.77,91.29 49.94,93.03 49.42,94.89 49.16,95.81 48.97,96.76 48.9,97.7 48.87,97.94 48.9,98.14 48.84,98.47 48.77,98.76 48.66,98.99 48.54,99.23 48.3,99.68 48.03,100.09 47.76,100.5 47.2,101.31 46.63,102.1 46.14,102.93 45.9,103.34 45.68,103.77 45.5,104.2 45.41,104.42 45.34,104.65 45.26,104.88 45.16,105.14 45.04,105.36 44.89,105.58 44.31,106.45 43.39,107.01 42.45,107.32 41.5,107.63 40.49,107.74 39.51,107.65 L 39.52,107.59 C 40.49,107.61 41.47,107.42 42.35,107.06 43.24,106.71 44.06,106.15 44.53,105.35 44.65,105.16 44.75,104.94 44.82,104.74 44.89,104.51 44.96,104.27 45.05,104.03 45.22,103.56 45.44,103.11 45.68,102.67 46.16,101.8 46.72,100.98 47.24,100.17 47.51,99.76 47.77,99.36 47.98,98.94 48.09,98.74 48.18,98.53 48.22,98.34 48.26,98.19 48.24,97.9 48.26,97.65 48.35,96.65 48.56,95.67 48.84,94.72 49.4,92.82 50.32,91.02 51.39,89.39 51.89,88.56 52.36,87.71 52.66,86.81 52.81,86.36 52.9,85.9 52.87,85.46 52.84,85.01 52.65,84.6 52.31,84.3 51.99,84 51.55,83.78 51.12,83.64 50.69,83.52 50.23,83.57 49.81,83.76 48.96,84.14 48.28,84.88 47.69,85.63 47.1,86.4 46.59,87.23 46.1,88.07 45.86,88.49 45.59,88.91 45.38,89.33 45.18,89.77 45.03,90.23 44.89,90.7 44.35,92.56 44.02,94.5 43.76,96.43 L 43.69,96.42 Z M 43.69,96.42" />
            <path id="joe08Canvas-bezier80" stroke="none" fill="rgb(51, 91, 113)" d="M 43.51,91.7 C 42.87,89.96 42.57,88.11 42.49,86.26 42.41,84.4 42.66,82.56 42.83,80.73 43.03,78.89 43.26,77.06 43.56,75.23 43.71,74.32 43.88,73.41 44.1,72.5 44.21,72.05 44.33,71.59 44.49,71.15 44.65,70.74 44.74,70.31 44.77,69.87 44.83,69.02 44.51,68.11 43.77,67.79 43.59,67.71 43.39,67.66 43.19,67.65 43.03,67.63 42.88,67.69 42.73,67.79 42.42,68.01 42.17,68.39 41.97,68.77 41.56,69.55 41.28,70.42 41.04,71.3 40.79,72.18 40.61,73.05 40.5,73.97 40.18,75.8 39.79,77.61 39.33,79.4 39.1,80.3 38.85,81.19 38.57,82.07 38.42,82.51 38.26,82.95 38.08,83.38 37.89,83.8 37.72,84.25 37.38,84.59 L 37.34,84.54 C 37.63,84.2 37.77,83.75 37.92,83.32 38.06,82.88 38.19,82.44 38.3,81.99 38.53,81.11 38.73,80.21 38.92,79.31 39.28,77.51 39.64,75.69 39.89,73.88 40.13,72.04 40.55,70.19 41.44,68.49 41.68,68.07 41.95,67.64 42.4,67.32 42.62,67.17 42.94,67.05 43.24,67.09 43.5,67.12 43.76,67.18 44,67.3 44.49,67.52 44.86,67.96 45.05,68.43 45.24,68.91 45.29,69.42 45.25,69.9 45.22,70.39 45.1,70.87 44.93,71.31 44.77,71.74 44.64,72.17 44.53,72.61 44.3,73.5 44.12,74.4 43.95,75.3 43.63,77.11 43.36,78.94 43.13,80.76 42.92,82.59 42.63,84.42 42.67,86.26 42.71,88.09 42.97,89.94 43.57,91.68 L 43.51,91.7 Z M 43.51,91.7" />
            <path id="joe08Canvas-bezier81" stroke="none" fill="rgb(51, 91, 113)" d="M 36.66,84.72 C 36.15,83.03 36.04,81.24 36.22,79.48 36.49,77.74 36.32,76 36.04,74.27 35.9,73.4 35.73,72.54 35.65,71.65 35.61,71.2 35.64,70.75 35.61,70.33 35.6,69.9 35.55,69.47 35.47,69.05 35.3,68.21 35,67.39 34.45,66.78 34.17,66.48 33.83,66.24 33.45,66.1 33.07,65.96 32.65,65.87 32.31,65.98 31.98,66.07 31.74,66.38 31.61,66.75 31.47,67.12 31.42,67.54 31.4,67.96 31.37,68.8 31.48,69.67 31.67,70.5 31.72,70.71 31.77,70.9 31.83,71.12 31.89,71.36 31.92,71.6 31.95,71.83 31.99,72.28 31.99,72.73 31.98,73.18 31.95,74.06 31.88,74.94 31.83,75.82 31.69,77.57 31.62,79.3 31.7,81.06 31.71,81.94 31.69,82.82 31.62,83.71 31.57,84.15 31.52,84.59 31.42,85.02 31.38,85.24 31.32,85.46 31.25,85.67 31.21,85.77 31.16,85.88 31.1,85.97 31.04,86.07 30.96,86.17 30.82,86.19 L 30.82,86.13 C 31,86.07 31.08,85.82 31.14,85.63 31.19,85.42 31.23,85.21 31.26,84.99 31.31,84.56 31.33,84.13 31.34,83.69 31.36,82.82 31.33,81.94 31.28,81.07 31.1,79.33 31.14,77.53 31.22,75.78 31.27,74.9 31.32,74.03 31.34,73.16 31.35,72.73 31.36,72.3 31.33,71.88 31.31,71.67 31.29,71.47 31.24,71.28 31.19,71.08 31.12,70.84 31.08,70.63 30.9,69.74 30.81,68.85 30.85,67.94 30.88,67.48 30.95,67.02 31.12,66.56 31.29,66.13 31.64,65.65 32.18,65.51 32.43,65.44 32.69,65.44 32.94,65.48 33.17,65.52 33.4,65.58 33.62,65.67 34.07,65.84 34.46,66.13 34.78,66.48 35.4,67.2 35.7,68.1 35.86,68.98 35.94,69.42 35.98,69.87 35.99,70.31 36.01,70.77 35.97,71.2 36,71.62 36.07,72.49 36.22,73.35 36.34,74.23 36.59,75.96 36.71,77.76 36.41,79.5 36.19,81.23 36.25,83.02 36.72,84.71 L 36.66,84.72 Z M 36.66,84.72" />
            <path id="joe08Canvas-bezier82" stroke="none" fill="rgb(51, 91, 113)" d="M 30.26,84.66 L 29.22,80.08 28.68,77.79 C 28.48,77.03 28.4,76.24 28.29,75.47 28.09,73.92 27.95,72.34 27.46,70.9 27.32,70.54 27.16,70.2 26.93,69.95 26.81,69.82 26.68,69.73 26.54,69.69 26.46,69.67 26.39,69.66 26.31,69.66 L 26.03,69.68 C 25.27,69.74 24.43,69.76 23.94,70.21 23.47,70.66 23.5,71.48 23.6,72.21 23.72,72.95 23.95,73.71 24.12,74.48 24.48,76.01 24.74,77.57 24.94,79.13 L 25.22,81.45 C 25.34,82.19 25.59,82.93 25.82,83.67 26.05,84.42 26.31,85.16 26.54,85.91 26.65,86.29 26.75,86.67 26.82,87.06 26.86,87.26 26.89,87.46 26.89,87.66 26.89,87.85 26.88,88.1 26.68,88.22 L 26.65,88.17 C 26.79,88.06 26.79,87.85 26.77,87.67 26.75,87.48 26.7,87.29 26.65,87.1 26.55,86.73 26.41,86.37 26.27,86 L 25.42,83.82 C 25.13,83.08 24.86,82.34 24.7,81.54 24.56,80.75 24.45,79.98 24.33,79.21 24.11,77.67 23.84,76.13 23.53,74.61 23.38,73.84 23.17,73.1 23.06,72.29 23.01,71.88 22.99,71.47 23.04,71.05 23.09,70.63 23.26,70.17 23.61,69.85 23.96,69.54 24.4,69.41 24.8,69.34 25.21,69.28 25.61,69.26 26,69.24 L 26.3,69.23 C 26.42,69.22 26.54,69.24 26.66,69.28 26.9,69.35 27.09,69.5 27.24,69.66 27.53,70 27.69,70.38 27.83,70.76 28.32,72.3 28.42,73.88 28.6,75.43 28.68,76.21 28.75,76.99 28.92,77.74 L 29.4,80.04 30.32,84.65 30.26,84.66 Z M 30.26,84.66" />
            <path id="joe08Canvas-bezier83" stroke="none" fill="rgb(51, 91, 113)" d="M 26.81,89.02 C 26.59,89.13 26.34,89.19 26.09,89.13 25.83,89.08 25.63,88.9 25.5,88.69 25.22,88.27 25.2,87.75 25.11,87.29 24.89,86.36 24.15,85.66 23.46,85.01 22.76,84.36 22,83.7 21.56,82.8 21.35,82.34 21.25,81.87 21.07,81.43 20.9,80.98 20.72,80.53 20.51,80.1 20.09,79.26 19.6,78.38 18.83,77.9 18.45,77.67 18,77.63 17.61,77.83 17.21,78 17,78.41 16.94,78.85 16.83,79.76 17.06,80.71 17.33,81.62 17.61,82.53 17.96,83.42 18.36,84.28 L 18.35,84.26 C 18.97,85.29 19.55,86.33 20.09,87.39 20.63,88.45 21.15,89.53 21.53,90.69 21.62,90.98 21.7,91.28 21.75,91.59 21.78,91.75 21.79,91.91 21.8,92.08 21.8,92.23 21.81,92.35 21.82,92.5 21.88,93.07 21.98,93.65 22.09,94.22 22.32,95.38 22.58,96.53 22.88,97.67 23.49,99.95 24.18,102.21 25.13,104.37 25.59,105.44 26.12,106.5 26.8,107.46 27.14,107.93 27.51,108.39 27.95,108.78 28.38,109.16 28.9,109.48 29.48,109.58 L 29.47,109.64 C 28.87,109.58 28.31,109.28 27.83,108.92 27.35,108.55 26.93,108.11 26.56,107.63 25.82,106.68 25.24,105.63 24.71,104.55 23.69,102.39 22.91,100.13 22.28,97.83 21.97,96.68 21.69,95.52 21.48,94.34 21.37,93.75 21.27,93.16 21.22,92.55 21.21,92.4 21.2,92.22 21.2,92.08 21.2,91.95 21.19,91.82 21.17,91.68 21.13,91.41 21.06,91.13 20.98,90.85 20.65,89.75 20.15,88.67 19.64,87.61 19.12,86.55 18.56,85.51 17.96,84.5 L 17.95,84.48 17.95,84.48 C 17.55,83.58 17.21,82.67 16.93,81.73 16.68,80.79 16.44,79.82 16.58,78.8 16.62,78.54 16.69,78.29 16.84,78.05 16.98,77.82 17.22,77.62 17.46,77.52 17.94,77.28 18.57,77.33 19,77.62 19.88,78.2 20.35,79.11 20.77,79.98 20.97,80.43 21.15,80.88 21.31,81.34 21.48,81.8 21.58,82.28 21.77,82.7 22.16,83.56 22.88,84.23 23.57,84.89 24.26,85.56 25.01,86.28 25.22,87.27 25.3,87.75 25.32,88.24 25.57,88.65 25.69,88.85 25.87,89.01 26.1,89.06 26.33,89.12 26.57,89.07 26.78,88.97 L 26.81,89.02 Z M 26.81,89.02" />
            <path id="joe08Canvas-bezier84" stroke="none" fill="rgb(51, 91, 113)" d="M 24.63,106.14 C 22.83,108.17 20.92,110.11 18.89,111.92 17.87,112.83 16.84,113.73 15.67,114.46 15.08,114.82 14.48,115.16 13.84,115.43 13.2,115.69 12.52,115.91 11.82,115.9 L 11.82,115.84 C 12.47,115.67 13.07,115.38 13.65,115.05 14.23,114.71 14.79,114.35 15.33,113.95 16.42,113.18 17.52,112.4 18.57,111.55 19.62,110.7 20.64,109.81 21.63,108.9 22.64,107.99 23.62,107.06 24.58,106.1 L 24.63,106.14 Z M 24.63,106.14" />
            <path id="joe08Canvas-bezier85" stroke="none" fill="rgb(51, 91, 113)" d="M 7.46,116.88 C 6.34,117.43 5.33,118.21 4.55,119.17 3.76,120.12 3.26,121.3 3.19,122.52 3.02,125.03 2.52,127.52 1.65,129.9 1.44,130.49 1.2,131.08 0.94,131.66 0.67,132.2 0.56,132.76 0.61,133.33 0.71,134.49 1.34,135.59 1.87,136.72 2.39,137.88 2.86,139 3.57,140.01 3.92,140.51 4.32,140.98 4.83,141.3 5.32,141.64 5.95,141.76 6.56,141.63 L 6.58,141.69 C 5.98,141.92 5.27,141.85 4.69,141.54 4.1,141.23 3.63,140.76 3.23,140.27 2.42,139.27 1.88,138.08 1.32,136.99 0.78,135.88 0.1,134.74 0.01,133.37 -0.03,132.7 0.14,132 0.44,131.42 0.72,130.87 0.97,130.3 1.19,129.73 2.1,127.42 2.65,124.97 2.88,122.5 3.01,121.22 3.57,120 4.4,119.05 5.24,118.09 6.29,117.34 7.44,116.83 L 7.46,116.88 Z M 7.46,116.88" />
            <path id="joe08Canvas-bezier86" stroke="none" fill="rgb(51, 91, 113)" d="M 8.49,141.11 C 10.31,140.51 12.09,139.7 13.59,138.52 13.96,138.22 14.31,137.9 14.62,137.54 14.92,137.19 15.14,136.74 15.48,136.38 16.15,135.65 16.98,135.12 17.77,134.59 19.4,133.56 20.96,132.45 22.28,131.07 23.61,129.71 24.71,128.14 25.62,126.47 27.44,123.08 29.58,119.82 32.18,116.95 33.48,115.52 34.87,114.17 36.31,112.9 37.02,112.26 37.67,111.56 38.29,110.84 38.93,110.12 39.53,109.37 40.1,108.6 L 40.15,108.64 C 39.12,110.26 37.98,111.83 36.61,113.21 35.23,114.55 33.87,115.89 32.64,117.35 30.13,120.24 27.91,123.36 26.04,126.71 25.09,128.39 23.94,129.98 22.56,131.35 21.2,132.74 19.57,133.84 17.94,134.84 17.13,135.36 16.31,135.86 15.66,136.54 15.33,136.87 15.11,137.31 14.78,137.67 14.46,138.04 14.09,138.37 13.71,138.66 12.15,139.83 10.35,140.6 8.51,141.16 L 8.49,141.11 Z M 8.49,141.11" />
            <path id="joe08Canvas-bezier87" stroke="none" fill="rgb(51, 91, 113)" d="M 21.4,105.87 C 20.2,105.35 18.98,104.87 17.75,104.44 16.51,104 15.27,103.61 14,103.32 12.74,103.03 11.44,102.84 10.2,102.9 9.6,102.94 8.93,103.06 8.34,103.22 8.2,103.27 8.05,103.33 7.95,103.4 7.86,103.48 7.84,103.49 7.9,103.61 8.05,103.84 8.36,103.99 8.64,104.18 L 8.6,104.23 C 8.3,104.12 7.97,104.05 7.68,103.78 7.61,103.71 7.54,103.59 7.55,103.45 7.57,103.31 7.65,103.21 7.72,103.13 7.87,102.99 8.03,102.91 8.18,102.83 8.83,102.55 9.46,102.41 10.15,102.29 11.54,102.15 12.85,102.49 14.12,102.84 16.67,103.57 19.09,104.62 21.43,105.82 L 21.4,105.87 Z M 21.4,105.87" />
            <path id="joe08Canvas-bezier88" stroke="none" fill="rgb(51, 91, 113)" d="M 7.68,103.34 C 7.9,101.86 8.18,100.4 8.51,98.94 8.85,97.49 9.22,96.03 9.8,94.64 10.11,93.96 10.42,93.24 11.07,92.72 11.67,92.28 12.26,91.83 12.74,91.29 13.22,90.75 13.54,90.11 13.72,89.41 13.92,88.71 13.99,87.98 14.09,87.24 14.45,84.28 14.82,81.28 15.85,78.43 16.12,77.72 16.42,77.02 16.8,76.35 17.18,75.69 17.63,75.04 18.24,74.54 18.54,74.29 18.89,74.09 19.26,73.95 19.64,73.81 20.01,73.78 20.36,73.67 21.06,73.47 21.72,73.13 22.33,72.69 L 22.37,72.74 C 21.82,73.25 21.16,73.66 20.45,73.93 20.09,74.07 19.7,74.14 19.39,74.28 19.07,74.42 18.78,74.62 18.52,74.86 17.49,75.85 16.89,77.25 16.43,78.63 15.51,81.42 15,84.36 14.57,87.3 14.47,88.03 14.38,88.8 14.15,89.53 13.94,90.26 13.57,90.99 13.03,91.55 12.51,92.12 11.89,92.57 11.28,93 10.73,93.41 10.39,94.1 10.08,94.76 9.48,96.11 9.07,97.54 8.69,98.98 8.32,100.42 8,101.88 7.74,103.35 L 7.68,103.34 Z M 7.68,103.34" />
            <path id="joe08Canvas-bezier89" stroke="none" fill="rgb(51, 91, 113)" d="M 36.43,68.14 C 36.93,67.87 37.42,67.61 37.92,67.36 38.16,67.23 38.39,67.05 38.65,66.98 38.92,66.9 39.18,66.86 39.5,66.85 L 39.53,66.9 C 39.39,67.2 39.14,67.38 38.9,67.54 38.66,67.7 38.37,67.73 38.1,67.81 37.55,67.97 37.01,68.09 36.45,68.19 L 36.43,68.14 Z M 36.43,68.14" />
            <path id="joe08Canvas-bezier90" stroke="none" fill="rgb(51, 91, 113)" d="M 28.17,70.65 C 28.35,70.58 28.52,70.49 28.7,70.41 L 29.22,70.17 C 29.4,70.09 29.56,69.96 29.76,69.96 29.95,69.94 30.15,69.95 30.38,70.06 L 30.4,70.12 C 30.27,70.33 30.1,70.45 29.93,70.54 29.75,70.64 29.55,70.61 29.35,70.64 28.97,70.68 28.58,70.73 28.17,70.71 L 28.17,70.65 Z M 28.17,70.65" />
            <path id="joe08Canvas-bezier91" stroke="none" fill="rgb(51, 91, 113)" d="M 10.81,103.91 L 8.31,110.42 C 7.9,111.51 7.54,112.61 7.09,113.68 6.67,114.76 6.16,115.8 5.79,116.9 L 5.73,116.89 C 5.73,116.29 5.88,115.72 6.02,115.15 6.16,114.58 6.34,114.02 6.52,113.47 6.89,112.36 7.39,111.3 7.85,110.24 8.78,108.1 9.75,105.99 10.75,103.89 L 10.81,103.91 Z M 10.81,103.91" />
            <path id="joe08Canvas-bezier92" stroke="none" fill="rgb(51, 91, 113)" d="M 25.49,140.89 C 25.64,142.77 25.67,144.66 25.55,146.54 25.4,148.42 25.14,150.32 24.36,152.1 23.54,153.81 22.62,155.46 22.31,157.23 21.97,159.02 22.49,160.87 23.01,162.66 L 22.96,162.68 C 22.11,161.02 21.46,159.12 21.7,157.14 21.97,155.17 23.07,153.52 23.92,151.89 24.71,150.24 25.04,148.36 25.24,146.51 25.44,144.65 25.5,142.77 25.43,140.9 L 25.49,140.89 Z M 25.49,140.89" />
            <path id="joe08Canvas-bezier93" stroke="none" fill="rgb(51, 91, 113)" d="M 26.81,157.23 C 26.66,157.34 26.57,157.59 26.48,157.78 L 26.21,158.4 25.69,159.66 C 25.35,160.5 25,161.34 24.63,162.17 24.26,162.99 23.86,163.81 23.41,164.6 23.18,165 22.93,165.39 22.65,165.75 22.38,166.13 22.01,166.41 21.75,166.77 21.22,167.48 20.82,168.3 20.47,169.13 20.11,169.96 19.82,170.81 19.55,171.67 19.03,173.4 18.64,175.17 18.41,176.96 18.3,177.85 18.24,178.75 18.25,179.64 18.26,180.09 18.29,180.54 18.34,180.98 18.4,181.43 18.42,181.9 18.42,182.36 18.39,184.19 18.12,186 17.83,187.79 17.2,191.38 16.38,194.91 15.44,198.43 L 15.12,198.06 C 17.51,197.66 19.91,197.36 22.31,197.09 24.72,196.81 27.13,196.61 29.55,196.51 31.97,196.4 34.4,196.37 36.82,196.55 38.03,196.65 39.24,196.77 40.43,197.03 41.61,197.29 42.81,197.63 43.82,198.32 L 43.79,198.37 C 42.76,197.74 41.57,197.46 40.39,197.26 39.2,197.07 38,196.97 36.8,196.92 34.4,196.83 31.99,196.91 29.58,197.05 27.18,197.21 24.78,197.44 22.38,197.69 19.98,197.95 17.59,198.28 15.21,198.63 L 14.76,198.7 14.88,198.27 C 15.85,194.79 16.73,191.27 17.38,187.71 17.69,185.94 17.98,184.15 18.02,182.35 18.03,181.9 18.01,181.47 17.96,181.02 17.9,180.56 17.88,180.1 17.88,179.65 17.88,178.73 17.95,177.82 18.07,176.91 18.31,175.1 18.73,173.32 19.28,171.59 19.56,170.72 19.87,169.87 20.24,169.03 20.61,168.2 21.02,167.37 21.58,166.64 22.94,165.39 23.72,163.74 24.5,162.11 24.89,161.29 25.25,160.46 25.6,159.62 L 26.13,158.37 26.41,157.75 26.56,157.44 C 26.63,157.35 26.65,157.23 26.79,157.17 L 26.81,157.23 Z M 26.81,157.23" />
            <path id="joe08Canvas-bezier94" stroke="none" fill="rgb(51, 91, 113)" d="M 54.96,88.52 C 54.95,88.83 54.84,89.13 54.64,89.38 54.44,89.63 54.12,89.8 53.78,89.82 53.08,89.87 52.4,89.27 52.38,88.52 52.36,88.16 52.5,87.78 52.75,87.5 53.01,87.22 53.39,87.05 53.78,87.07 54.16,87.08 54.51,87.31 54.71,87.6 54.91,87.88 54.97,88.22 54.96,88.52 Z M 54.9,88.52 C 54.89,88.22 54.7,87.96 54.48,87.83 54.24,87.69 54,87.67 53.78,87.68 53.35,87.71 52.9,88.03 52.87,88.52 52.83,89 53.24,89.5 53.78,89.51 54.04,89.54 54.32,89.46 54.55,89.29 54.77,89.11 54.91,88.82 54.9,88.52 Z M 54.9,88.52" />
            <path id="joe08Canvas-bezier95" stroke="none" fill="rgb(51, 91, 113)" d="M 53.81,116 C 53.79,116.59 53.35,117.26 52.62,117.3 52.29,117.31 51.93,117.19 51.67,116.95 51.41,116.71 51.24,116.36 51.23,116 51.21,115.64 51.34,115.26 51.6,114.97 51.85,114.69 52.24,114.52 52.63,114.55 53.01,114.56 53.36,114.78 53.56,115.07 53.76,115.36 53.82,115.69 53.81,116 Z M 53.75,116 C 53.74,115.7 53.55,115.44 53.32,115.3 53.09,115.16 52.85,115.14 52.63,115.16 52.2,115.19 51.75,115.5 51.72,116 51.68,116.48 52.08,116.97 52.63,116.99 52.88,117.02 53.17,116.94 53.39,116.76 53.62,116.59 53.76,116.29 53.75,116 Z M 53.75,116" />
            <path id="joe08Canvas-bezier96" stroke="none" fill="rgb(51, 91, 113)" d="M 53.81,142.04 C 53.79,142.63 53.35,143.3 52.62,143.34 52.29,143.36 51.93,143.23 51.67,142.99 51.41,142.76 51.24,142.41 51.23,142.04 51.21,141.68 51.34,141.3 51.6,141.02 51.85,140.74 52.24,140.57 52.63,140.59 53.01,140.6 53.36,140.83 53.56,141.11 53.76,141.4 53.82,141.74 53.81,142.04 Z M 53.75,142.04 C 53.74,141.74 53.55,141.48 53.32,141.35 53.09,141.21 52.85,141.18 52.63,141.2 52.2,141.23 51.75,141.55 51.72,142.04 51.68,142.52 52.08,143.02 52.63,143.04 52.88,143.06 53.17,142.98 53.39,142.81 53.62,142.63 53.76,142.34 53.75,142.04 Z M 53.75,142.04" />
            <path id="joe08Canvas-bezier97" stroke="none" fill="rgb(51, 91, 113)" d="M 53.81,170.95 C 53.79,171.25 53.69,171.56 53.49,171.81 53.29,172.06 52.97,172.23 52.63,172.25 51.93,172.3 51.24,171.7 51.23,170.95 51.21,170.59 51.34,170.21 51.6,169.93 51.85,169.65 52.24,169.48 52.63,169.5 53.01,169.51 53.36,169.74 53.56,170.02 53.76,170.31 53.82,170.65 53.81,170.95 Z M 53.75,170.95 C 53.74,170.65 53.55,170.39 53.32,170.26 53.09,170.12 52.85,170.09 52.63,170.11 52.2,170.14 51.75,170.46 51.72,170.95 51.67,171.43 52.09,171.93 52.63,171.94 52.89,171.97 53.17,171.89 53.4,171.72 53.62,171.54 53.76,171.25 53.75,170.95 Z M 53.75,170.95" />
            <path id="joe08Canvas-bezier98" stroke="none" fill="rgb(51, 91, 113)" d="M 41.37,93.85 C 40.29,94.5 39.29,95.26 38.34,96.08 37.39,96.9 36.51,97.8 35.75,98.78 34.99,99.77 34.36,100.86 33.92,102.01 33.46,103.16 33.26,104.4 33.31,105.65 L 33.28,105.65 C 33.05,104.41 33.21,103.1 33.63,101.9 34.05,100.7 34.76,99.61 35.56,98.63 36.35,97.65 37.27,96.77 38.24,95.97 39.22,95.17 40.26,94.45 41.35,93.83 L 41.37,93.85 Z M 41.37,93.85" />
            <path id="joe08Canvas-bezier99" stroke="none" fill="rgb(51, 91, 113)" d="M 27.39,93.79 C 29.11,93.14 30.8,92.43 32.45,91.63 33.26,91.22 34.06,90.77 34.84,90.31 35.61,89.84 36.4,89.36 36.95,88.62 L 36.97,88.64 C 36.56,89.49 35.76,90.05 35,90.57 34.23,91.07 33.39,91.47 32.55,91.85 30.87,92.6 29.15,93.25 27.4,93.81 L 27.39,93.79 Z M 27.39,93.79" />
            <path id="joe08Canvas-bezier100" stroke="none" fill="rgb(51, 91, 113)" d="M 82.91,81.63 C 84.34,81.9 85.74,82.32 87.11,82.83 88.47,83.36 89.8,83.99 91.03,84.79 92.26,85.58 93.4,86.54 94.31,87.72 95.19,88.89 95.82,90.28 96.02,91.72 L 95.99,91.73 C 95.62,90.32 94.97,89.02 94.06,87.9 93.18,86.77 92.08,85.81 90.89,84.99 89.7,84.18 88.4,83.52 87.05,82.97 85.71,82.42 84.32,81.97 82.9,81.66 L 82.91,81.63 Z M 82.91,81.63" />
            <path id="joe08Canvas-bezier101" stroke="none" fill="rgb(51, 91, 113)" d="M 99.75,75.04 C 97.05,75.43 94.34,75.78 91.62,76.07 90.26,76.23 88.9,76.35 87.53,76.44 86.17,76.48 84.79,76.56 83.43,76.33 L 83.44,76.3 C 84.8,76.35 86.16,76.23 87.52,76.13 L 91.6,75.83 C 94.31,75.59 97.03,75.31 99.74,75.01 L 99.75,75.04 Z M 99.75,75.04" />
            <path id="joe08Canvas-bezier102" stroke="none" fill="rgb(51, 91, 113)" d="M 26.27,128.55 C 26.01,129.95 25.35,131.26 24.64,132.47 24.35,133.08 24.18,133.78 24.02,134.46 23.87,135.15 23.76,135.84 23.66,136.54 23.47,137.93 23.39,139.34 23.31,140.73 23.27,141.43 23.26,142.13 23.31,142.82 23.34,143.15 23.38,143.51 23.53,143.78 23.6,143.91 23.7,144.01 23.84,144 23.99,143.99 24.15,143.9 24.29,143.8 L 24.33,143.85 C 24.22,143.98 24.08,144.12 23.87,144.17 23.65,144.24 23.41,144.09 23.3,143.93 23.06,143.6 22.97,143.23 22.89,142.88 22.74,142.16 22.72,141.44 22.7,140.72 22.7,139.28 22.92,137.86 23.18,136.46 23.3,135.76 23.45,135.06 23.64,134.37 23.83,133.67 24.02,132.99 24.37,132.33 25.16,131.14 25.86,129.91 26.21,128.54 L 26.27,128.55 Z M 26.27,128.55" />
        </g>
    </g>
</svg>
