<?xml version="1.0" encoding="UTF-8"?>
<!DOCTYPE svg PUBLIC "-//W3C//DTD SVG 1.1//EN" "http://www.w3.org/Graphics/SVG/1.1/DTD/svg11.dtd">
<svg version="1.1" xmlns="http://www.w3.org/2000/svg" xmlns:xlink="http://www.w3.org/1999/xlink" width="147" height="378"  xml:space="preserve" id="joe04Canvas">
    <!-- Generated by PaintCode - http://www.paintcodeapp.com -->
    <g id="joe04Canvas-lines">
        <path id="joe04Canvas-bezier" stroke="none" fill="rgb(51, 91, 113)" d="M 47.25,41.99 C 47.02,41.88 46.75,41.66 46.8,41.28 46.84,41.09 47.02,40.95 47.17,40.91 47.32,40.85 47.47,40.84 47.62,40.84 47.89,40.83 48.23,40.85 48.47,41.01 48.72,41.17 48.93,41.4 49.01,41.7 L 48.96,41.73 C 48.68,41.66 48.45,41.58 48.23,41.51 48,41.45 47.83,41.32 47.58,41.28 47.36,41.23 47.12,41.23 47.06,41.36 46.98,41.51 47.09,41.79 47.28,41.94 L 47.25,41.99 Z M 47.25,41.99" />
        <path id="joe04Canvas-bezier2" stroke="none" fill="rgb(51, 91, 113)" d="M 51.53,40.82 C 51.71,40.58 51.94,40.37 52.26,40.23 52.41,40.16 52.6,40.07 52.8,40.15 52.99,40.22 53.15,40.39 53.15,40.6 L 53.11,40.64 C 52.9,40.65 52.79,40.67 52.7,40.69 52.61,40.71 52.5,40.65 52.37,40.66 52.12,40.67 51.84,40.76 51.56,40.87 L 51.53,40.82 Z M 51.53,40.82" />
        <path id="joe04Canvas-bezier3" stroke="none" fill="rgb(51, 91, 113)" d="M 35.52,29.11 C 36.32,28.56 37.23,28.2 38.14,27.86 39.06,27.55 40,27.29 40.96,27.11 41.92,26.94 42.91,26.79 43.91,26.92 44.4,26.99 44.9,27.11 45.36,27.35 45.81,27.57 46.23,27.93 46.42,28.39 L 46.37,28.42 C 45.72,27.7 44.76,27.54 43.85,27.47 42.93,27.42 41.98,27.44 41.03,27.55 40.09,27.67 39.15,27.87 38.22,28.13 37.3,28.39 36.38,28.68 35.55,29.16 L 35.52,29.11 Z M 35.52,29.11" />
        <path id="joe04Canvas-bezier4" stroke="none" fill="rgb(51, 91, 113)" d="M 51.04,28.1 C 51.71,27.48 52.49,26.97 53.31,26.55 54.13,26.13 55.01,25.81 55.91,25.61 56.82,25.4 57.76,25.27 58.7,25.36 59.63,25.45 60.54,25.68 61.38,26.08 L 61.36,26.13 C 60.44,26.02 59.56,25.92 58.66,25.91 57.78,25.9 56.89,25.9 56,26.04 55.12,26.19 54.25,26.44 53.42,26.8 52.6,27.15 51.79,27.59 51.08,28.15 L 51.04,28.1 Z M 51.04,28.1" />
        <path id="joe04Canvas-bezier5" stroke="none" fill="rgb(51, 91, 113)" d="M 44.46,47.21 C 45.54,47.25 46.62,47.22 47.7,47.14 48.77,47.07 49.84,46.94 50.9,46.75 51.96,46.55 52.99,46.27 54,45.91 55.01,45.56 55.98,45.09 56.84,44.45 L 56.86,44.47 C 56.09,45.24 55.11,45.77 54.1,46.17 53.08,46.57 52.01,46.8 50.94,46.97 48.79,47.3 46.62,47.38 44.46,47.24 L 44.46,47.21 Z M 44.46,47.21" />
        <path id="joe04Canvas-bezier6" stroke="none" fill="rgb(51, 91, 113)" d="M 46.68,48 C 47.55,48.22 48.45,48.32 49.35,48.34 50.24,48.37 51.14,48.29 52.01,48.11 52.89,47.91 53.72,47.59 54.51,47.19 55.3,46.79 56.02,46.25 56.68,45.65 L 56.71,45.67 C 56.15,46.38 55.43,46.97 54.64,47.43 53.84,47.88 52.95,48.16 52.06,48.32 51.16,48.49 50.25,48.53 49.34,48.48 48.44,48.42 47.54,48.28 46.67,48.02 L 46.68,48 Z M 46.68,48" />
        <path id="joe04Canvas-bezier7" stroke="none" fill="rgb(51, 91, 113)" d="M 45.93,49.02 C 46.93,49.68 48.05,50.17 49.21,50.44 50.38,50.71 51.6,50.75 52.75,50.44 53.91,50.14 54.92,49.47 55.75,48.63 56.6,47.81 57.26,46.77 57.52,45.6 L 57.54,45.6 C 57.44,46.82 56.79,47.94 55.95,48.82 55.1,49.7 54.01,50.39 52.81,50.65 51.61,50.94 50.36,50.88 49.18,50.57 48.01,50.26 46.89,49.74 45.91,49.04 L 45.93,49.02 Z M 45.93,49.02" />
        <path id="joe04Canvas-bezier8" stroke="none" fill="rgb(51, 91, 113)" d="M 33.2,40.86 C 33.79,43.17 34.38,45.49 35.04,47.78 35.21,48.35 35.37,48.93 35.6,49.47 35.84,50 36.17,50.49 36.57,50.92 37.37,51.79 38.36,52.47 39.34,53.14 40.35,53.81 41.24,54.63 42.14,55.42 43.03,56.22 43.91,57.02 44.85,57.76 45.31,58.13 45.79,58.48 46.29,58.79 46.79,59.09 47.32,59.36 47.86,59.43 48,59.45 48.12,59.44 48.25,59.42 L 48.71,59.36 C 49.01,59.32 49.31,59.29 49.61,59.26 50.21,59.21 50.81,59.18 51.41,59.15 52.61,59.09 53.81,59.07 55.01,59.05 L 55.46,59.04 C 55.61,59.03 55.77,59.04 55.81,59 56.03,58.9 56.28,58.72 56.5,58.55 56.95,58.19 57.36,57.77 57.73,57.32 58.1,56.88 58.42,56.4 58.66,55.88 58.72,55.75 58.77,55.62 58.82,55.49 58.87,55.36 58.89,55.23 58.96,55.06 59.09,54.74 59.26,54.48 59.44,54.22 60.17,53.23 60.97,52.36 61.7,51.42 63.19,49.58 64.43,47.53 65.08,45.26 65.4,44.13 65.57,42.95 65.59,41.77 L 65.59,38.19 65.64,38.19 65.84,41.77 C 65.87,42.97 65.75,44.19 65.45,45.36 64.87,47.72 63.61,49.86 62.14,51.76 61.4,52.71 60.58,53.6 59.89,54.54 59.73,54.78 59.57,55.02 59.48,55.26 59.44,55.36 59.4,55.52 59.34,55.67 59.29,55.82 59.23,55.97 59.16,56.11 58.9,56.68 58.55,57.2 58.15,57.67 57.75,58.14 57.31,58.57 56.83,58.96 56.57,59.15 56.33,59.33 56,59.47 55.76,59.57 55.62,59.53 55.47,59.54 L 55.02,59.54 C 53.82,59.55 52.62,59.56 51.43,59.6 50.83,59.62 50.24,59.64 49.64,59.69 49.35,59.71 49.05,59.73 48.76,59.77 L 48.32,59.82 C 48.15,59.85 47.98,59.85 47.81,59.83 47.16,59.74 46.61,59.43 46.09,59.11 45.57,58.79 45.09,58.42 44.62,58.04 43.68,57.28 42.8,56.47 41.92,55.66 41.03,54.86 40.17,54.04 39.19,53.37 38.21,52.68 37.22,51.98 36.4,51.07 36,50.62 35.66,50.1 35.42,49.54 35.19,48.98 35.04,48.4 34.88,47.82 34.25,45.52 33.7,43.2 33.14,40.87 L 33.2,40.86 Z M 33.2,40.86" />
        <path id="joe04Canvas-bezier9" stroke="none" fill="rgb(51, 91, 113)" d="M 65.63,36.92 C 66.61,36.72 67.59,36.26 68.17,35.47 68.78,34.7 68.68,33.64 68.73,32.64 68.74,31.63 68.67,30.62 68.7,29.6 68.72,29.09 68.74,28.59 68.79,28.08 68.84,27.57 68.87,27.05 69.06,26.56 L 69.12,26.57 C 69.1,27.57 69.24,28.59 69.26,29.6 69.3,30.61 69.24,31.63 69.17,32.65 69.14,33.16 69.09,33.68 69.02,34.18 68.94,34.71 68.73,35.23 68.39,35.64 67.68,36.46 66.64,36.85 65.64,36.98 L 65.63,36.92 Z M 65.63,36.92" />
        <path id="joe04Canvas-bezier10" stroke="none" fill="rgb(51, 91, 113)" d="M 22.35,17.03 C 22.53,16.93 22.64,16.73 22.73,16.53 22.81,16.33 22.87,16.12 22.92,15.91 23.02,15.48 23.08,15.05 23.15,14.62 23.28,13.75 23.4,12.88 23.68,12.04 23.82,11.62 24,11.2 24.3,10.86 24.58,10.5 25.04,10.29 25.48,10.25 25.89,10.17 26.24,9.89 26.5,9.55 26.77,9.21 26.97,8.83 27.14,8.43 27.5,7.63 27.73,6.79 28.08,5.97 28.17,5.77 28.28,5.56 28.42,5.38 28.55,5.2 28.82,5.02 29.09,5.09 29.61,5.22 29.8,5.78 30.15,5.77 30.31,5.77 30.45,5.61 30.55,5.43 30.66,5.25 30.75,5.06 30.84,4.86 31.01,4.46 31.17,4.05 31.35,3.64 31.72,2.85 32.19,2.01 33.04,1.57 33.45,1.35 33.93,1.28 34.39,1.31 34.85,1.34 35.29,1.47 35.71,1.64 36.14,1.81 36.51,2.01 36.92,2.16 37.32,2.31 37.74,2.42 38.16,2.49 39.01,2.62 39.87,2.5 40.66,2.17 41.46,1.84 42.18,1.34 42.99,0.95 43.79,0.55 44.77,0.36 45.68,0.58 46.13,0.67 46.56,0.88 46.94,1.02 47.35,1.16 47.76,1.25 48.18,1.27 49.02,1.32 49.83,1.02 50.62,0.65 51.01,0.47 51.42,0.28 51.87,0.15 52.31,0.02 52.8,-0.04 53.27,0.03 53.74,0.09 54.18,0.26 54.59,0.47 55,0.68 55.36,0.97 55.72,1.18 56.45,1.63 57.25,1.94 58.08,2.07 58.5,2.14 58.93,2.15 59.37,2.16 59.59,2.16 59.81,2.16 60.05,2.19 60.29,2.22 60.58,2.3 60.8,2.51 61.22,2.96 61.2,3.5 61.24,3.91 61.29,4.27 61.49,4.6 61.78,4.85 62.38,5.37 63.24,5.63 64.07,5.87 64.49,5.99 64.91,6.1 65.34,6.25 65.56,6.32 65.77,6.4 65.99,6.5 66.2,6.61 66.43,6.73 66.62,6.97 66.71,7.09 66.78,7.25 66.79,7.41 66.81,7.58 66.78,7.68 66.78,7.77 66.79,7.92 66.83,8.09 66.93,8.24 67.12,8.55 67.47,8.82 67.79,9.15 68.12,9.47 68.42,9.88 68.56,10.36 68.71,10.84 68.7,11.33 68.62,11.79 68.58,12.02 68.51,12.25 68.46,12.45 68.42,12.63 68.39,12.84 68.38,13.04 68.37,13.45 68.42,13.86 68.53,14.27 68.74,15.09 69.12,15.87 69.51,16.65 69.71,17.04 69.92,17.43 70.1,17.84 70.28,18.25 70.46,18.68 70.48,19.17 70.49,19.42 70.42,19.7 70.28,19.91 70.18,20.07 70.13,20.25 70.1,20.45 70.05,20.86 70.08,21.29 70.14,21.71 70.25,22.57 70.47,23.42 70.59,24.3 70.62,24.53 70.64,24.75 70.62,24.99 70.61,25.11 70.59,25.23 70.54,25.36 70.49,25.48 70.37,25.61 70.23,25.66 70.08,25.7 69.94,25.68 69.84,25.67 69.74,25.66 69.64,25.66 69.53,25.67 69.33,25.69 69.12,25.73 68.92,25.8 68.12,26.07 67.47,26.71 66.99,27.42 66.73,27.77 66.67,28.2 66.64,28.64 66.62,28.85 66.6,29.08 66.5,29.29 66.41,29.5 66.25,29.67 66.06,29.79 L 66.03,29.74 C 66.2,29.62 66.35,29.46 66.43,29.26 66.51,29.06 66.52,28.85 66.53,28.63 66.54,28.2 66.59,27.72 66.86,27.34 67.33,26.6 67.97,25.9 68.84,25.56 69.05,25.48 69.28,25.43 69.51,25.41 69.73,25.37 70.02,25.43 70.14,25.39 70.26,25.36 70.32,25.17 70.33,24.97 70.34,24.77 70.32,24.56 70.28,24.34 70.15,23.49 69.91,22.64 69.78,21.76 69.72,21.32 69.67,20.87 69.72,20.4 69.75,20.17 69.81,19.92 69.94,19.71 70.05,19.54 70.08,19.38 70.07,19.19 70.05,18.8 69.89,18.4 69.71,18.02 69.52,17.63 69.31,17.24 69.11,16.86 68.7,16.08 68.28,15.28 68.04,14.4 67.92,13.96 67.84,13.5 67.85,13.03 67.86,12.79 67.88,12.56 67.93,12.32 67.98,12.09 68.04,11.9 68.07,11.7 68.15,11.29 68.14,10.89 68.03,10.52 67.92,10.15 67.69,9.83 67.4,9.54 67.11,9.23 66.74,8.97 66.46,8.53 66.32,8.31 66.23,8.05 66.23,7.76 66.25,7.47 66.26,7.42 66.18,7.3 65.99,7.07 65.56,6.9 65.17,6.77 64.76,6.64 64.34,6.52 63.91,6.4 63.07,6.14 62.17,5.9 61.42,5.27 61.05,4.95 60.76,4.48 60.71,3.96 60.68,3.52 60.64,3.09 60.43,2.89 60.25,2.68 59.79,2.68 59.35,2.67 58.91,2.66 58.46,2.63 58,2.56 57.1,2.41 56.24,2.06 55.47,1.58 55.07,1.34 54.74,1.07 54.37,0.88 54,0.68 53.61,0.53 53.2,0.47 52.39,0.33 51.59,0.67 50.79,1.03 50,1.4 49.09,1.74 48.16,1.67 47.69,1.64 47.24,1.54 46.81,1.39 46.37,1.23 46.01,1.04 45.59,0.95 44.77,0.75 43.92,0.9 43.15,1.27 42.37,1.64 41.63,2.14 40.79,2.48 39.96,2.83 39.01,2.95 38.11,2.8 37.22,2.67 36.37,2.27 35.6,1.91 34.82,1.58 33.91,1.43 33.16,1.82 32.41,2.19 31.94,2.97 31.58,3.75 31.39,4.14 31.23,4.55 31.05,4.95 30.97,5.15 30.87,5.36 30.75,5.55 30.63,5.73 30.47,5.98 30.16,5.99 29.86,5.99 29.68,5.78 29.53,5.63 29.38,5.48 29.22,5.33 29.04,5.29 28.87,5.24 28.71,5.35 28.58,5.51 28.45,5.66 28.35,5.86 28.26,6.05 27.9,6.84 27.66,7.69 27.3,8.5 27.11,8.9 26.91,9.3 26.62,9.65 26.34,10 25.97,10.3 25.5,10.39 25.06,10.42 24.67,10.61 24.39,10.94 24.11,11.26 23.92,11.66 23.78,12.07 23.5,12.9 23.37,13.77 23.23,14.63 23.16,15.06 23.09,15.5 22.99,15.93 22.93,16.14 22.87,16.35 22.79,16.56 22.7,16.76 22.58,16.97 22.37,17.08 L 22.35,17.03 Z M 22.35,17.03" />
        <path id="joe04Canvas-bezier11" stroke="none" fill="rgb(51, 91, 113)" d="M 65.16,26.06 C 64.87,25.14 64.63,24.2 64.48,23.24 64.41,22.76 64.36,22.28 64.38,21.78 64.41,21.3 64.47,20.76 64.84,20.35 65.17,20.02 65.24,19.58 65.06,19.16 64.89,18.74 64.58,18.37 64.35,17.92 64.29,17.81 64.23,17.68 64.2,17.54 64.18,17.47 64.17,17.4 64.17,17.33 64.17,17.25 64.18,17.16 64.17,17.15 64.16,16.99 64.04,16.78 63.91,16.59 63.65,16.21 63.33,15.85 63.03,15.47 62.72,15.1 62.4,14.71 62.14,14.28 62.01,14.06 61.89,13.82 61.82,13.55 61.75,13.28 61.74,12.94 61.91,12.65 61.99,12.52 62.04,12.44 62.08,12.36 62.11,12.33 62.07,12.26 62.11,12.42 62.15,12.51 62.22,12.52 62.22,12.52 62.22,12.52 62.2,12.52 62.18,12.52 61.99,12.52 61.71,12.55 61.46,12.53 60.94,12.51 60.42,12.38 59.95,12.18 59.48,11.96 59.06,11.67 58.68,11.34 58.32,11.01 57.96,10.69 57.61,10.35 57.43,10.19 57.26,10.02 57.08,9.88 56.89,9.74 56.72,9.62 56.58,9.72 56.41,9.82 56.24,10.02 56.06,10.18 55.89,10.35 55.7,10.51 55.51,10.66 L 55.47,10.62 C 55.64,10.44 55.79,10.26 55.94,10.07 56.1,9.89 56.22,9.69 56.44,9.5 56.56,9.41 56.77,9.38 56.9,9.44 57.05,9.48 57.16,9.55 57.27,9.62 57.48,9.76 57.67,9.91 57.86,10.06 58.25,10.35 58.62,10.68 58.99,10.97 59.36,11.26 59.75,11.5 60.18,11.67 60.59,11.84 61.03,11.94 61.49,11.96 61.72,11.97 61.92,11.95 62.22,11.96 62.26,11.96 62.3,11.96 62.37,11.98 62.42,12 62.55,12.04 62.62,12.18 62.68,12.32 62.65,12.41 62.64,12.46 62.62,12.52 62.6,12.56 62.59,12.59 62.52,12.72 62.43,12.85 62.39,12.92 62.21,13.19 62.36,13.64 62.58,14.03 62.8,14.43 63.08,14.81 63.38,15.2 63.67,15.58 63.98,15.95 64.25,16.37 64.38,16.59 64.53,16.8 64.56,17.14 64.56,17.24 64.55,17.28 64.55,17.32 64.55,17.37 64.55,17.41 64.56,17.46 64.58,17.56 64.62,17.66 64.67,17.76 64.87,18.17 65.18,18.56 65.36,19.05 65.45,19.29 65.5,19.57 65.44,19.85 65.38,20.12 65.21,20.36 65.04,20.53 64.73,20.85 64.64,21.33 64.6,21.8 64.57,22.27 64.59,22.75 64.65,23.22 64.75,24.17 64.96,25.12 65.22,26.05 L 65.16,26.06 Z M 65.16,26.06" />
        <path id="joe04Canvas-bezier12" stroke="none" fill="rgb(51, 91, 113)" d="M 51.86,11.13 C 50.77,11.6 49.66,12.02 48.5,12.29 48.21,12.36 47.91,12.41 47.61,12.43 47.31,12.44 46.99,12.45 46.68,12.29 46.16,11.79 45.96,12.67 45.32,12.91 45,13.03 44.66,13.01 44.36,12.93 44.05,12.85 43.77,12.72 43.5,12.58 43.37,12.51 43.24,12.44 43.12,12.38 43,12.33 42.83,12.27 42.79,12.28 42.79,12.29 42.83,12.26 42.84,12.25 42.84,12.23 42.83,12.25 42.84,12.28 42.84,12.32 42.85,12.39 42.87,12.46 42.9,12.6 42.95,12.74 42.98,12.9 43,13.05 43.03,13.23 42.97,13.43 42.91,13.63 42.7,13.79 42.53,13.83 42.17,13.93 41.86,13.87 41.56,13.82 40.95,13.71 40.38,13.52 39.82,13.31 38.71,12.88 37.62,12.48 36.48,12.42 35.92,12.39 35.37,12.46 34.89,12.7 34.42,12.92 34.05,13.32 33.78,13.8 33.64,14.04 33.53,14.3 33.41,14.57 33.34,14.71 33.29,14.85 33.16,15.02 33.12,15.06 33.08,15.11 33,15.15 32.95,15.17 32.91,15.19 32.86,15.19 32.83,15.2 32.8,15.2 32.78,15.19 32.82,15.2 32.78,15.19 32.78,15.2 32.7,15.2 32.8,15.2 32.8,15.18 32.81,15.17 32.81,15.18 32.8,15.18 32.72,15.32 32.69,15.66 32.67,15.94 32.64,16.23 32.62,16.53 32.57,16.83 32.52,17.13 32.45,17.43 32.3,17.73 32.17,18.02 31.86,18.28 31.55,18.34 31.01,18.46 30.57,18.92 30.45,19.5 L 30.4,19.49 C 30.42,19.19 30.52,18.89 30.72,18.64 30.91,18.39 31.18,18.21 31.47,18.1 32.01,17.95 32.13,17.33 32.18,16.78 32.2,16.5 32.21,16.21 32.22,15.91 32.23,15.76 32.23,15.61 32.25,15.46 32.27,15.3 32.28,15.14 32.39,14.94 32.42,14.88 32.46,14.83 32.53,14.78 32.6,14.72 32.77,14.7 32.77,14.71 L 32.82,14.71 C 32.81,14.71 32.81,14.71 32.8,14.71 32.79,14.71 32.77,14.71 32.77,14.72 32.75,14.72 32.76,14.72 32.77,14.71 32.82,14.64 32.88,14.5 32.93,14.37 33.03,14.1 33.14,13.81 33.29,13.54 33.58,12.98 34.04,12.46 34.64,12.18 35.24,11.89 35.9,11.83 36.52,11.88 37.75,11.97 38.91,12.44 39.98,12.9 40.52,13.11 41.08,13.31 41.63,13.43 41.91,13.48 42.2,13.52 42.42,13.46 42.53,13.43 42.58,13.39 42.61,13.31 42.65,13.22 42.64,13.09 42.62,12.96 42.6,12.83 42.56,12.69 42.53,12.54 42.51,12.46 42.49,12.38 42.49,12.29 42.49,12.24 42.49,12.18 42.52,12.1 42.56,12.02 42.67,11.95 42.74,11.94 43,11.93 43.11,12.02 43.26,12.08 43.4,12.15 43.53,12.23 43.66,12.3 44.15,12.57 44.72,12.82 45.22,12.65 45.46,12.56 45.65,12.36 45.87,12.14 45.98,12.04 46.13,11.91 46.33,11.91 46.53,11.91 46.69,12.03 46.79,12.1 47.01,12.23 47.31,12.24 47.6,12.24 47.88,12.22 48.18,12.18 48.46,12.13 49.61,11.9 50.74,11.51 51.84,11.08 L 51.86,11.13 Z M 51.86,11.13" />
        <path id="joe04Canvas-bezier13" stroke="none" fill="rgb(51, 91, 113)" d="M 66.33,33.69 C 66.33,33.34 66.36,32.99 66.44,32.63 66.5,32.46 66.55,32.28 66.71,32.1 66.75,32.06 66.8,32.01 66.87,31.98 L 66.89,31.97 C 66.87,31.98 66.9,31.97 66.89,31.97 L 66.92,31.96 C 66.93,31.95 66.92,31.95 66.93,31.94 66.97,31.9 67.01,31.85 67.05,31.78 67.21,31.53 67.26,31.19 67.4,30.9 67.52,30.59 67.66,30.31 67.74,29.97 L 67.8,29.95 C 68.03,30.29 67.99,30.7 67.93,31.06 67.86,31.42 67.66,31.74 67.41,32.05 67.35,32.12 67.27,32.2 67.17,32.27 67.15,32.28 67.11,32.3 67.07,32.32 L 67.01,32.34 C 66.99,32.34 66.97,32.35 66.95,32.36 66.86,32.43 66.77,32.58 66.71,32.73 66.56,33.02 66.46,33.36 66.38,33.69 L 66.33,33.69 Z M 66.33,33.69" />
        <g id="joe04Canvas-group2">
            <path id="joe04Canvas-bezier14" stroke="none" fill="rgb(51, 91, 113)" d="M 31.55,58.85 C 31.78,59.45 32.08,60.03 32.43,60.57 32.78,61.1 33.19,61.61 33.73,61.95 34.25,62.3 34.94,62.39 35.52,62.14 35.81,62.03 36.06,61.83 36.36,61.68 36.65,61.53 36.94,61.39 37.24,61.27 38.44,60.77 39.7,60.44 40.97,60.19 42.24,59.94 43.53,59.78 44.83,59.73 45.48,59.71 46.13,59.72 46.78,59.79 47.43,59.85 48.09,59.97 48.7,60.24 49.31,60.5 49.89,60.82 50.4,61.24 50.92,61.66 51.36,62.21 51.59,62.85 51.83,63.5 51.81,64.22 51.61,64.87 51.41,65.52 51.08,66.1 50.66,66.62 50.23,67.15 49.62,67.57 48.93,67.7 48.25,67.84 47.57,67.75 46.93,67.64 46.29,67.54 45.67,67.42 45.06,67.43 44.45,67.47 43.8,67.58 43.18,67.69 41.91,67.91 40.66,68.2 39.43,68.55 38.2,68.9 36.98,69.3 35.86,69.87 35.58,70.02 35.31,70.17 35.05,70.34 34.8,70.51 34.57,70.71 34.31,70.92 33.8,71.33 33.28,71.72 32.75,72.09 30.61,73.56 28.32,74.85 25.83,75.65 24.59,76.05 23.3,76.32 22,76.37 20.7,76.41 19.38,76.22 18.18,75.73 L 18.2,75.68 C 19.41,76.11 20.72,76.23 21.99,76.12 23.26,76.02 24.51,75.72 25.71,75.29 28.12,74.42 30.36,73.14 32.43,71.64 32.95,71.27 33.46,70.89 33.96,70.49 34.2,70.3 34.46,70.07 34.75,69.89 35.03,69.7 35.32,69.54 35.61,69.38 36.79,68.79 38.03,68.38 39.29,68.02 40.54,67.68 41.81,67.41 43.09,67.2 43.74,67.1 44.36,67 45.05,66.97 45.73,66.96 46.38,67.1 47.01,67.21 47.64,67.32 48.26,67.4 48.85,67.29 49.44,67.18 49.96,66.84 50.35,66.37 51.12,65.43 51.67,64.14 51.26,62.97 50.85,61.81 49.71,61.03 48.58,60.53 48.01,60.27 47.38,60.15 46.75,60.08 46.12,60.01 45.48,60 44.84,60.01 43.56,60.04 42.28,60.18 41.01,60.41 39.75,60.64 38.5,60.95 37.3,61.42 37.01,61.54 36.71,61.67 36.43,61.82 36.15,61.95 35.88,62.15 35.57,62.27 34.95,62.53 34.21,62.42 33.67,62.04 33.12,61.68 32.7,61.16 32.36,60.61 32.01,60.06 31.73,59.48 31.5,58.87 L 31.55,58.85 Z M 31.55,58.85" />
            <path id="joe04Canvas-bezier15" stroke="none" fill="rgb(51, 91, 113)" d="M 3.11,71.83 C 2.2,69.88 1.68,67.77 1.38,65.64 1.09,63.51 1.06,61.34 1.28,59.19 1.5,57.05 1.92,54.91 2.66,52.87 3.4,50.85 4.35,48.89 5.54,47.11 L 5.59,47.13 C 4.67,49.07 3.82,51.02 3.18,53.05 2.53,55.07 1.99,57.13 1.72,59.24 1.45,61.35 1.42,63.49 1.65,65.61 1.88,67.72 2.32,69.84 3.16,71.81 L 3.11,71.83 Z M 3.11,71.83" />
            <path id="joe04Canvas-bezier16" stroke="none" fill="rgb(51, 91, 113)" d="M 6.25,45.7 C 6.84,44.04 7.34,42.32 7.39,40.57 7.4,40.14 7.34,39.68 7.42,39.24 7.48,38.79 7.59,38.35 7.74,37.93 8.02,37.09 8.4,36.28 8.68,35.46 8.83,35.05 8.95,34.63 9,34.21 9.02,34 9.03,33.78 9.02,33.58 9,33.38 8.96,33.13 8.95,32.91 8.92,32.01 9.03,31.12 9.22,30.24 9.4,29.37 9.67,28.5 10.08,27.69 10.3,27.29 10.55,26.9 10.88,26.56 11.2,26.23 11.63,25.94 12.12,25.85 12.37,25.81 12.63,25.81 12.86,25.86 13.07,25.89 13.34,25.96 13.55,26.05 14,26.24 14.39,26.58 14.65,26.98 15.18,27.81 15.28,28.78 15.23,29.69 15.2,30.15 15.13,30.6 14.97,31.06 14.84,31.45 14.74,31.88 14.64,32.31 14.45,33.16 14.28,34.02 14.14,34.89 13.84,36.63 13.53,38.35 13.62,40.1 13.63,40.98 13.63,41.89 13.45,42.77 13.26,43.65 12.88,44.49 12.34,45.19 L 12.29,45.16 C 12.77,44.42 13.08,43.59 13.2,42.73 13.33,41.87 13.29,41 13.23,40.12 13.16,39.24 13.16,38.32 13.26,37.44 13.34,36.56 13.46,35.68 13.59,34.8 13.73,33.92 13.89,33.05 14.08,32.18 14.18,31.74 14.28,31.31 14.44,30.87 14.58,30.5 14.65,30.07 14.69,29.65 14.75,28.82 14.66,27.94 14.24,27.25 14.02,26.91 13.72,26.64 13.36,26.48 13,26.32 12.57,26.23 12.2,26.29 11.42,26.42 10.84,27.14 10.44,27.88 10.03,28.63 9.76,29.47 9.57,30.32 9.38,31.17 9.25,32.04 9.27,32.9 9.27,33.12 9.3,33.31 9.32,33.56 9.34,33.79 9.32,34.02 9.29,34.25 9.23,34.7 9.1,35.13 8.94,35.55 8.63,36.39 8.24,37.18 7.95,38 7.8,38.42 7.67,38.84 7.61,39.26 7.53,39.69 7.57,40.12 7.56,40.57 7.52,41.47 7.34,42.34 7.12,43.2 6.9,44.05 6.62,44.89 6.3,45.72 L 6.25,45.7 Z M 6.25,45.7" />
            <path id="joe04Canvas-bezier17" stroke="none" fill="rgb(51, 91, 113)" d="M 15.58,27.19 C 15.67,25.45 15.88,23.71 16.39,22.02 16.67,21.2 17,20.33 17.72,19.71 18.07,19.4 18.6,19.23 19.07,19.31 19.51,19.36 19.96,19.43 20.39,19.59 20.83,19.75 21.26,20.02 21.55,20.43 21.84,20.82 21.98,21.3 22.04,21.75 22.17,22.67 22.04,23.56 21.88,24.43 21.51,26.15 20.96,27.81 20.28,29.42 L 20.22,29.4 C 20.6,27.7 21.07,26.02 21.34,24.33 21.47,23.49 21.58,22.63 21.5,21.82 21.46,21.42 21.36,21.02 21.14,20.71 20.93,20.39 20.61,20.16 20.23,20.01 19.86,19.85 19.44,19.76 19.02,19.7 18.63,19.63 18.26,19.74 17.94,19.99 17.31,20.49 16.94,21.32 16.65,22.11 16.08,23.73 15.8,25.47 15.64,27.19 L 15.58,27.19 Z M 15.58,27.19" />
            <path id="joe04Canvas-bezier18" stroke="none" fill="rgb(51, 91, 113)" d="M 20.49,29.98 C 20.49,31.08 20.47,32.18 20.42,33.28 20.36,34.38 20.29,35.48 20.08,36.59 20.03,36.86 19.97,37.14 19.86,37.42 19.83,37.49 19.8,37.56 19.77,37.64 19.75,37.67 19.73,37.71 19.7,37.75 L 19.65,37.83 C 19.59,37.94 19.55,38.03 19.51,38.15 19.36,38.62 19.3,39.16 19.23,39.7 19.16,40.24 19.1,40.8 18.96,41.35 18.82,41.89 18.62,42.46 18.21,42.86 L 18.17,42.82 C 18.68,41.85 18.6,40.75 18.69,39.65 18.73,39.1 18.78,38.53 19,37.96 19.05,37.83 19.13,37.67 19.22,37.55 L 19.28,37.46 C 19.29,37.44 19.31,37.42 19.32,37.39 19.35,37.34 19.38,37.29 19.4,37.23 19.51,37.01 19.58,36.75 19.65,36.49 19.9,35.44 20.03,34.35 20.15,33.26 20.27,32.17 20.36,31.07 20.43,29.98 L 20.49,29.98 Z M 20.49,29.98" />
            <path id="joe04Canvas-bezier19" stroke="none" fill="rgb(51, 91, 113)" d="M 22.07,19.43 C 22.16,18.73 22.55,18.05 23.16,17.67 23.78,17.28 24.54,17.21 25.24,17.27 25.94,17.33 26.69,17.55 27.2,18.1 27.72,18.64 27.9,19.4 27.93,20.11 27.96,20.83 27.86,21.55 27.72,22.24 27.6,22.92 27.51,23.61 27.45,24.31 27.34,25.7 27.31,27.1 27.34,28.49 L 27.34,28.53 27.33,28.56 C 26.89,29.96 26.5,31.37 26.22,32.79 26.15,33.15 26.08,33.51 26.03,33.86 26.01,34.04 25.99,34.21 25.98,34.4 25.96,34.59 25.93,34.79 25.89,34.97 25.73,35.72 25.49,36.42 25.25,37.12 24.76,38.51 24.21,39.87 23.8,41.26 23.69,41.61 23.6,41.96 23.54,42.31 23.49,42.66 23.45,43.02 23.59,43.31 23.72,43.64 23.92,43.94 24.21,44.12 24.51,44.31 24.88,44.32 25.24,44.23 L 25.25,44.29 C 24.91,44.42 24.49,44.45 24.13,44.26 23.78,44.09 23.53,43.76 23.36,43.42 23.16,43.05 23.19,42.63 23.22,42.27 23.26,41.89 23.33,41.52 23.42,41.16 23.77,39.71 24.28,38.33 24.73,36.94 24.95,36.25 25.18,35.55 25.33,34.86 25.36,34.68 25.39,34.52 25.41,34.34 25.43,34.16 25.45,33.97 25.48,33.79 25.54,33.41 25.61,33.05 25.69,32.68 26.02,31.23 26.45,29.83 26.92,28.43 L 26.91,28.5 C 26.9,27.09 26.96,25.68 27.1,24.27 27.18,23.57 27.27,22.87 27.42,22.18 27.57,21.49 27.68,20.81 27.66,20.12 27.65,19.44 27.5,18.74 27.04,18.24 26.6,17.74 25.9,17.51 25.23,17.44 24.54,17.36 23.82,17.41 23.22,17.76 22.63,18.11 22.23,18.76 22.12,19.44 L 22.07,19.43 Z M 22.07,19.43" />
            <path id="joe04Canvas-bezier20" stroke="none" fill="rgb(51, 91, 113)" d="M 25.23,42.53 C 25.46,40.49 25.72,38.46 26.25,36.46 26.32,36.21 26.39,35.96 26.48,35.71 26.56,35.46 26.7,35.2 26.78,34.99 26.95,34.56 27.05,34.08 27.12,33.59 27.26,32.61 27.28,31.59 27.3,30.57 L 27.35,30.56 C 27.64,31.56 27.74,32.6 27.67,33.65 27.62,34.18 27.52,34.71 27.28,35.22 27.16,35.47 27.03,35.66 26.94,35.89 26.84,36.12 26.75,36.35 26.67,36.59 26.36,37.55 26.12,38.54 25.9,39.54 25.67,40.53 25.47,41.53 25.29,42.54 L 25.23,42.53 Z M 25.23,42.53" />
            <path id="joe04Canvas-bezier21" stroke="none" fill="rgb(51, 91, 113)" d="M 28.82,21.29 C 29.6,20.99 30.45,20.83 31.29,20.99 31.7,21.08 32.11,21.26 32.42,21.55 32.74,21.84 32.97,22.22 33.12,22.61 33.27,23.01 33.35,23.43 33.39,23.85 33.43,24.26 33.46,24.68 33.49,25.1 33.54,25.93 33.56,26.76 33.53,27.6 33.5,28.43 33.44,29.26 33.31,30.09 L 32.88,32.55 C 32.6,34.18 32.34,35.82 32.1,37.46 31.86,39.1 31.65,40.75 31.49,42.39 31.41,43.22 31.35,44.04 31.31,44.86 31.3,45.27 31.28,45.68 31.3,46.09 31.31,46.48 31.34,46.91 31.35,47.33 31.36,49.01 31.25,50.67 31.07,52.33 30.98,53.16 30.88,53.98 30.77,54.8 30.66,55.63 30.52,56.45 30.45,57.27 L 30.4,57.27 C 30.49,53.94 30.94,50.64 30.8,47.35 30.79,46.93 30.75,46.54 30.73,46.1 30.72,45.68 30.73,45.26 30.74,44.84 30.78,44 30.86,43.17 30.95,42.34 31.14,40.68 31.39,39.04 31.66,37.4 31.93,35.75 32.22,34.12 32.53,32.49 L 33,30.04 C 33.14,29.23 33.21,28.41 33.26,27.59 33.3,26.76 33.3,25.93 33.27,25.11 33.22,24.28 33.23,23.44 32.96,22.67 32.83,22.29 32.62,21.93 32.33,21.66 32.04,21.38 31.66,21.19 31.27,21.1 30.47,20.93 29.61,21.06 28.84,21.34 L 28.82,21.29 Z M 28.82,21.29" />
            <path id="joe04Canvas-bezier22" stroke="none" fill="rgb(51, 91, 113)" d="M 20.29,58.97 C 19.53,59.84 18.83,60.76 18.18,61.71 17.51,62.65 16.9,63.63 16.38,64.65 15.86,65.67 15.45,66.74 15.16,67.82 14.86,68.89 14.77,70.03 15.15,71.13 L 15.1,71.16 C 14.42,70.17 14.39,68.84 14.62,67.69 14.86,66.51 15.41,65.45 15.99,64.44 17.17,62.41 18.63,60.59 20.25,58.93 L 20.29,58.97 Z M 20.29,58.97" />
        </g>
        <path id="joe04Canvas-bezier23" stroke="none" fill="rgb(51, 91, 113)" d="M 20.36,77.68 C 19.54,79.33 18.77,81.04 18.32,82.82 18.08,83.71 18.09,84.63 18.03,85.56 17.98,86.48 17.93,87.41 17.87,88.34 17.74,90.19 17.59,92.06 17.17,93.89 16.95,94.8 16.7,95.71 16.33,96.58 15.96,97.44 15.49,98.31 14.72,98.88 L 14.69,98.84 C 15.32,98.17 15.68,97.3 15.97,96.44 16.25,95.57 16.47,94.68 16.63,93.78 16.96,91.97 17.24,90.14 17.43,88.3 17.52,87.38 17.59,86.46 17.67,85.53 17.75,84.62 17.77,83.66 18.05,82.75 18.59,80.95 19.42,79.28 20.32,77.65 L 20.36,77.68 Z M 20.36,77.68" />
        <path id="joe04Canvas-bezier24" stroke="none" fill="rgb(51, 91, 113)" d="M 2.41,72.18 C 2.51,72.8 2.5,73.44 2.4,74.06 2.35,74.37 2.32,74.71 2.16,74.99 2.01,75.27 1.81,75.54 1.51,75.72 L 1.47,75.69 C 1.49,75.35 1.57,75.07 1.65,74.78 1.72,74.5 1.87,74.24 1.97,73.96 2.15,73.39 2.29,72.8 2.36,72.19 L 2.41,72.18 Z M 2.41,72.18" />
        <path id="joe04Canvas-bezier25" stroke="none" fill="rgb(51, 91, 113)" d="M 0.06,101.47 C 0.12,102.19 0.7,102.73 1.34,102.92 1.99,103.14 2.71,103.14 3.4,103.07 4.1,103 4.78,102.83 5.41,102.62 6.04,102.4 6.67,102.09 7.01,101.46 L 7.07,101.47 C 7.05,101.86 6.84,102.21 6.57,102.49 6.3,102.77 5.97,102.98 5.62,103.13 4.92,103.45 4.15,103.5 3.43,103.51 2.69,103.53 1.94,103.48 1.24,103.18 0.55,102.9 -0.02,102.22 0,101.47 L 0.06,101.47 Z M 0.06,101.47" />
        <path id="joe04Canvas-bezier26" stroke="none" fill="rgb(51, 91, 113)" d="M 8.61,101.9 C 9.19,101.89 9.76,101.82 10.32,101.73 10.88,101.63 11.43,101.5 11.96,101.31 12.49,101.12 12.96,100.84 13.42,100.56 13.88,100.29 14.29,99.94 14.68,99.5 L 14.73,99.52 C 14.62,100.12 14.22,100.64 13.74,101.02 13.26,101.41 12.66,101.59 12.09,101.74 10.94,102.03 9.76,102.07 8.61,101.95 L 8.61,101.9 Z M 8.61,101.9" />
        <path id="joe04Canvas-bezier27" stroke="none" fill="rgb(51, 91, 113)" d="M 20.82,79.67 C 21.61,81.05 22.04,82.6 22.34,84.15 22.62,85.7 22.72,87.3 22.56,88.88 22.48,89.67 22.32,90.46 22.06,91.22 21.82,91.99 21.4,92.69 21.01,93.37 20.24,94.74 19.45,96.11 18.69,97.49 17.94,98.87 17.22,100.27 16.62,101.71 16.31,102.43 16.05,103.15 15.85,103.9 15.63,104.67 15.36,105.45 14.86,106.14 14.6,106.48 14.27,106.79 13.87,106.98 13.47,107.18 13.03,107.26 12.61,107.26 11.76,107.24 10.98,107 10.23,106.7 8.74,106.1 7.38,105.1 6.56,103.72 L 6.6,103.7 C 7.05,104.34 7.65,104.86 8.29,105.3 8.93,105.74 9.64,106.09 10.36,106.34 11.1,106.58 11.86,106.8 12.6,106.78 13.35,106.78 14,106.42 14.41,105.82 14.84,105.22 15.09,104.49 15.3,103.75 15.5,102.98 15.79,102.22 16.11,101.49 16.76,100.03 17.52,98.65 18.3,97.28 19.09,95.9 19.9,94.55 20.7,93.19 21.1,92.51 21.51,91.85 21.76,91.12 22.02,90.39 22.19,89.62 22.28,88.85 22.48,87.3 22.41,85.72 22.17,84.18 21.91,82.63 21.52,81.09 20.77,79.7 L 20.82,79.67 Z M 20.82,79.67" />
        <path id="joe04Canvas-bezier28" stroke="none" fill="rgb(51, 91, 113)" d="M 69.13,73.63 C 68.88,72.78 68.95,71.88 68.99,71.01 69.04,70.14 69.14,69.27 69.26,68.41 69.49,66.67 69.8,64.95 70.14,63.24 L 70.24,63.3 C 69.17,63.98 68.14,64.73 67.26,65.63 66.83,66.08 66.42,66.58 66.2,67.15 66.02,67.73 66.02,68.38 65.98,69.01 65.93,71.53 66.09,74.06 66.31,76.57 66.43,77.83 66.57,79.09 66.79,80.33 66.89,80.94 67.1,81.55 67.17,82.19 67.25,82.83 67.29,83.46 67.3,84.1 67.32,85.37 67.25,86.64 67.12,87.9 66.99,89.17 66.81,90.43 66.49,91.67 66.32,92.28 66.13,92.91 65.8,93.48 65.52,93.99 65.41,94.62 65.33,95.24 65.18,96.47 65.2,97.74 65.26,99 65.33,100.25 65.44,101.52 65.62,102.75 65.85,104 66,105.27 66.1,106.53 66.47,111.61 65.88,116.72 64.62,121.65 64.46,122.26 64.29,122.87 64.11,123.48 63.93,124.08 63.8,124.69 63.67,125.31 63.42,126.54 63.21,127.78 63.01,129.03 62.62,131.53 62.27,134.03 61.94,136.54 61.29,141.55 60.74,146.58 60.2,151.61 59.65,156.64 59.16,161.67 58.76,166.72 58.56,169.24 58.39,171.76 58.25,174.28 58.18,175.55 58.13,176.81 58.1,178.07 58.09,179.33 58.06,180.61 58.24,181.85 L 58.18,181.86 C 57.97,180.61 57.97,179.34 57.95,178.07 57.95,176.81 57.97,175.54 58.01,174.27 58.1,171.74 58.25,169.22 58.42,166.69 58.76,161.64 59.19,156.6 59.67,151.56 60.16,146.52 60.75,141.49 61.4,136.47 61.72,133.96 62.07,131.45 62.49,128.95 62.69,127.7 62.91,126.45 63.18,125.2 63.31,124.58 63.45,123.96 63.64,123.34 63.82,122.74 64,122.13 64.16,121.53 65.44,116.66 66.04,111.59 65.7,106.56 65.62,105.3 65.47,104.06 65.25,102.81 65.07,101.54 64.97,100.28 64.91,99.01 64.85,97.74 64.83,96.47 64.99,95.19 65.08,94.56 65.19,93.91 65.51,93.31 65.83,92.79 66.01,92.19 66.18,91.59 66.5,90.38 66.69,89.13 66.82,87.87 66.96,86.62 67.03,85.36 67.02,84.1 67.01,83.47 66.98,82.85 66.91,82.22 66.85,81.61 66.64,81.01 66.54,80.37 66.32,79.12 66.19,77.86 66.08,76.59 65.88,74.07 65.73,71.54 65.81,69 65.84,68.37 65.84,67.73 66.05,67.1 66.28,66.48 66.71,65.98 67.15,65.52 68.05,64.62 69.09,63.87 70.17,63.2 L 70.3,63.12 70.27,63.26 C 69.91,64.97 69.6,66.69 69.35,68.42 69.23,69.28 69.12,70.15 69.06,71.02 69.02,71.88 68.94,72.78 69.18,73.61 L 69.13,73.63 Z M 69.13,73.63" />
        <path id="joe04Canvas-bezier29" stroke="none" fill="rgb(51, 91, 113)" d="M 70.19,63.27 C 68.88,62.38 67.57,61.49 66.26,60.63 65.59,60.2 64.91,59.81 64.27,59.35 63.62,58.91 63.01,58.42 62.33,58.02 L 62.35,57.97 C 62.76,58.01 63.14,58.17 63.51,58.33 63.88,58.49 64.23,58.69 64.57,58.88 65.26,59.28 65.88,59.78 66.51,60.26 67.78,61.22 69.01,62.21 70.22,63.23 L 70.19,63.27 Z M 70.19,63.27" />
        <path id="joe04Canvas-bezier30" stroke="none" fill="rgb(51, 91, 113)" d="M 61.12,53.2 C 61.37,54.77 61.47,56.36 61.48,57.95 61.47,59.54 61.35,61.14 61.05,62.71 60.92,63.5 60.69,64.28 60.54,65.04 60.4,65.8 60.29,66.57 60.25,67.34 60.15,68.88 60.31,70.47 60.95,71.91 L 60.9,71.94 C 59.96,70.61 59.69,68.93 59.69,67.32 59.71,66.51 59.82,65.71 60,64.92 60.2,64.12 60.45,63.39 60.62,62.62 60.96,61.09 61.13,59.52 61.2,57.95 61.27,56.37 61.24,54.78 61.07,53.21 L 61.12,53.2 Z M 61.12,53.2" />
        <path id="joe04Canvas-bezier31" stroke="none" fill="rgb(51, 91, 113)" d="M 62.04,65.59 C 62.45,66.17 62.87,66.75 63.31,67.31 63.52,67.59 63.79,67.83 63.97,68.12 64.18,68.4 64.33,68.69 64.58,68.96 L 64.56,69.02 C 64.14,69 63.81,68.72 63.55,68.47 63.28,68.21 63.12,67.87 62.94,67.56 62.57,66.93 62.26,66.28 61.99,65.61 L 62.04,65.59 Z M 62.04,65.59" />
        <path id="joe04Canvas-bezier32" stroke="none" fill="rgb(51, 91, 113)" d="M 53.11,65.19 C 54.15,65.86 54.98,66.82 55.67,67.84 56.34,68.88 56.89,70 57.28,71.18 57.46,71.77 57.61,72.38 57.68,73.01 57.75,73.64 57.72,74.25 57.76,74.85 57.82,76.07 57.99,77.28 58.46,78.38 58.92,79.48 59.7,80.42 60.65,81.13 60.9,81.31 61.13,81.46 61.4,81.64 61.68,81.83 61.92,82.04 62.15,82.27 62.6,82.73 62.98,83.26 63.29,83.8 63.9,84.91 64.32,86.1 64.61,87.3 64.9,88.51 65.09,89.73 65.12,90.97 L 65.07,90.97 C 64.88,89.76 64.59,88.56 64.24,87.4 63.87,86.24 63.44,85.1 62.81,84.08 62.5,83.57 62.15,83.09 61.74,82.67 61.53,82.47 61.31,82.27 61.08,82.11 60.84,81.94 60.56,81.75 60.32,81.56 59.32,80.78 58.5,79.73 58.04,78.55 57.57,77.37 57.43,76.1 57.4,74.87 57.37,74.25 57.42,73.62 57.36,73.04 57.31,72.44 57.18,71.84 57.01,71.26 56.67,70.1 56.16,68.97 55.52,67.93 54.88,66.9 54.09,65.93 53.08,65.23 L 53.11,65.19 Z M 53.11,65.19" />
        <path id="joe04Canvas-bezier33" stroke="none" fill="rgb(51, 91, 113)" d="M 31.87,57.65 C 32.24,55.94 32.71,54.24 33.22,52.57 L 33.29,52.36 33.48,52.49 35.69,53.99 37.93,55.47 C 38.67,55.97 39.38,56.5 40.1,57.04 40.81,57.58 41.51,58.13 42.2,58.71 L 42.17,58.76 C 41.37,58.34 40.6,57.89 39.84,57.41 39.08,56.94 38.33,56.46 37.6,55.94 36.87,55.42 36.16,54.88 35.44,54.35 L 33.28,52.75 33.54,52.67 C 32.96,54.32 32.38,55.97 31.93,57.66 L 31.87,57.65 Z M 31.87,57.65" />
        <path id="joe04Canvas-bezier34" stroke="none" fill="rgb(51, 91, 113)" d="M 70.2,68.67 C 71.41,68.61 72.65,68.83 73.74,69.39 74.29,69.66 74.76,70.07 75.22,70.44 75.69,70.82 76.17,71.18 76.65,71.54 77.62,72.25 78.61,72.93 79.67,73.48 79.8,73.55 79.93,73.62 80.06,73.68 80.2,73.75 80.33,73.78 80.5,73.91 80.77,74.13 80.95,74.39 81.12,74.65 81.46,75.17 81.71,75.73 81.94,76.29 82.85,78.55 83.46,80.9 83.82,83.29 84.13,85.68 84.33,88.14 83.86,90.52 L 83.8,90.51 C 83.95,88.11 83.68,85.73 83.27,83.38 82.84,81.04 82.36,78.68 81.53,76.46 81.31,75.9 81.08,75.36 80.78,74.86 80.63,74.62 80.46,74.37 80.26,74.21 80.19,74.15 80.04,74.08 79.9,74.01 79.76,73.94 79.63,73.87 79.49,73.8 78.42,73.21 77.44,72.5 76.48,71.76 76.01,71.39 75.54,71 75.08,70.61 74.62,70.22 74.18,69.81 73.66,69.54 72.62,68.96 71.4,68.7 70.2,68.72 L 70.2,68.67 Z M 70.2,68.67" />
        <path id="joe04Canvas-bezier35" stroke="none" fill="rgb(51, 91, 113)" d="M 84,92.47 C 83.98,95.67 83.47,98.86 82.83,101.99 82.51,103.56 82.16,105.12 81.78,106.68 81.39,108.23 81.04,109.79 80.83,111.37 80.62,112.95 80.54,114.54 80.61,116.13 80.67,117.72 80.92,119.29 81.24,120.85 81.4,121.64 81.59,122.41 81.72,123.22 81.82,124.03 81.86,124.83 81.89,125.63 81.94,127.24 81.95,128.84 81.95,130.44 81.93,133.64 81.86,136.84 81.73,140.04 81.66,141.64 81.57,143.24 81.46,144.84 81.34,146.44 81.24,148.04 80.96,149.65 80.92,149.85 80.88,150.05 80.8,150.27 80.78,150.32 80.76,150.38 80.72,150.45 80.7,150.48 80.68,150.52 80.63,150.57 L 80.57,150.62 C 80.57,150.62 80.5,150.72 80.47,150.79 80.33,151.11 80.24,151.5 80.17,151.88 80.01,152.65 79.91,153.44 79.83,154.23 79.65,155.82 79.56,157.41 79.48,159.01 79.41,160.6 79.36,162.2 79.42,163.79 79.49,165.38 79.78,166.96 80.04,168.54 L 79.99,168.55 C 79.66,166.98 79.3,165.42 79.17,163.81 79.06,162.2 79.06,160.6 79.09,158.99 79.12,157.39 79.2,155.79 79.35,154.19 79.42,153.39 79.51,152.59 79.66,151.79 79.73,151.38 79.81,150.99 79.98,150.57 80.04,150.46 80.06,150.37 80.2,150.22 L 80.25,150.18 C 80.24,150.19 80.24,150.19 80.25,150.18 80.26,150.16 80.27,150.12 80.29,150.08 80.34,149.93 80.38,149.73 80.41,149.54 80.68,148 80.79,146.39 80.91,144.8 81.02,143.21 81.11,141.62 81.18,140.02 81.34,136.83 81.45,133.63 81.5,130.44 81.52,128.84 81.53,127.24 81.48,125.64 81.46,124.85 81.43,124.05 81.34,123.27 81.22,122.5 81.03,121.71 80.89,120.93 80.57,119.35 80.34,117.75 80.29,116.14 80.23,114.53 80.33,112.92 80.56,111.33 80.78,109.74 81.15,108.17 81.56,106.63 81.96,105.08 82.33,103.52 82.67,101.96 83.34,98.83 83.88,95.67 83.95,92.47 L 84,92.47 Z M 84,92.47" />
        <path id="joe04Canvas-bezier36" stroke="none" fill="rgb(51, 91, 113)" d="M 69.91,182.4 C 67.44,183.13 64.91,183.73 62.31,183.95 61,184.05 59.73,184.1 58.45,184.16 57.81,184.18 57.17,184.22 56.54,184.29 56.23,184.33 55.91,184.37 55.63,184.47 55.49,184.52 55.35,184.6 55.35,184.68 55.35,184.79 55.48,184.92 55.6,185 L 55.58,185.05 C 55.43,184.99 55.25,184.93 55.19,184.7 55.17,184.58 55.23,184.47 55.3,184.41 55.37,184.34 55.44,184.29 55.52,184.24 55.83,184.08 56.15,183.99 56.47,183.91 57.11,183.75 57.76,183.68 58.41,183.61 59.7,183.47 61.01,183.55 62.28,183.51 63.56,183.45 64.83,183.3 66.1,183.09 67.37,182.89 68.64,182.64 69.9,182.35 L 69.91,182.4 Z M 69.91,182.4" />
        <path id="joe04Canvas-bezier37" stroke="none" fill="rgb(51, 91, 113)" d="M 12.34,106.98 C 13.77,106.59 15.22,106.29 16.71,106.13 17.45,106.05 18.2,106.02 18.95,106.06 19.7,106.12 20.48,106.23 21.18,106.64 21.52,106.84 21.84,107.15 22.02,107.52 22.19,107.85 22.36,108.17 22.55,108.49 22.91,109.12 23.28,109.76 23.63,110.41 23.96,111.08 24.31,111.74 24.55,112.46 24.66,112.82 24.76,113.19 24.78,113.58 24.79,113.96 24.7,114.39 24.42,114.66 L 24.38,114.63 C 24.57,114.31 24.59,113.95 24.52,113.61 24.46,113.26 24.33,112.93 24.18,112.6 23.88,111.94 23.52,111.31 23.14,110.68 22.77,110.05 22.4,109.41 22.06,108.75 21.89,108.42 21.72,108.07 21.57,107.74 21.44,107.44 21.23,107.2 20.94,107.01 20.37,106.65 19.64,106.5 18.92,106.42 18.2,106.35 17.46,106.36 16.73,106.4 15.26,106.49 13.79,106.72 12.35,107.04 L 12.34,106.98 Z M 12.34,106.98" />
        <path id="joe04Canvas-bezier38" stroke="none" fill="rgb(51, 91, 113)" d="M 15.78,108.39 C 15.59,110.54 15.56,112.72 15.77,114.86 15.87,115.94 16.04,117 16.36,118.02 16.52,118.53 16.72,119.02 16.99,119.47 17.25,119.91 17.63,120.29 17.99,120.7 19.44,122.29 21.02,123.82 22.25,125.66 22.86,126.58 23.41,127.55 23.75,128.6 24.1,129.65 24.24,130.79 24.04,131.86 L 23.98,131.86 C 24.07,129.67 23.05,127.69 21.8,125.97 20.54,124.24 19.08,122.64 17.65,120.99 17.31,120.58 16.92,120.17 16.64,119.67 16.36,119.18 16.16,118.66 16.01,118.13 15.71,117.06 15.57,115.97 15.49,114.89 15.36,112.71 15.47,110.53 15.73,108.38 L 15.78,108.39 Z M 15.78,108.39" />
        <path id="joe04Canvas-bezier39" stroke="none" fill="rgb(51, 91, 113)" d="M 16.43,123.63 C 17.4,125.82 18.23,128.06 18.87,130.37 19.19,131.52 19.46,132.69 19.63,133.88 19.78,135.06 19.86,136.29 19.58,137.48 18.62,139.71 18.18,142.02 17.77,144.37 17.38,146.72 17.07,149.09 16.8,151.45 16.52,153.82 16.29,156.19 16.06,158.57 L 15.87,160.35 C 15.84,160.64 15.8,160.95 15.74,161.26 15.68,161.56 15.61,161.85 15.54,162.14 L 14.68,165.61 C 14.09,167.92 13.57,170.25 13.23,172.6 13.07,173.77 12.95,174.95 12.96,176.14 12.97,177.31 13.06,178.53 13.62,179.59 L 13.57,179.62 C 12.95,178.57 12.78,177.34 12.7,176.14 12.65,174.94 12.72,173.74 12.85,172.55 13.11,170.16 13.6,167.82 14.13,165.49 L 15,162.01 C 15.07,161.72 15.14,161.44 15.2,161.15 15.26,160.87 15.29,160.59 15.32,160.29 L 15.51,158.51 C 15.78,156.14 16.05,153.77 16.35,151.4 16.66,149.03 16.99,146.67 17.42,144.31 17.63,143.14 17.87,141.96 18.16,140.8 18.31,140.22 18.47,139.64 18.67,139.07 18.77,138.79 18.89,138.5 19.01,138.23 19.14,137.97 19.24,137.7 19.31,137.42 19.59,136.28 19.54,135.08 19.41,133.91 19.26,132.73 19.01,131.56 18.71,130.41 18.1,128.11 17.31,125.85 16.38,123.66 L 16.43,123.63 Z M 16.43,123.63" />
        <path id="joe04Canvas-bezier40" stroke="none" fill="rgb(51, 91, 113)" d="M 13.59,180.88 C 17.24,180.74 20.91,180.83 24.54,181.34 26.35,181.62 28.17,181.99 29.87,182.73 30.29,182.92 30.72,183.14 31.1,183.38 31.47,183.61 31.89,183.77 32.31,183.89 33.17,184.14 34.07,184.26 34.97,184.33 36.77,184.46 38.59,184.39 40.4,184.24 42.21,184.09 44.02,183.87 45.82,183.6 47.62,183.35 49.41,183.02 51.19,182.64 52.08,182.45 52.97,182.23 53.84,181.98 54.28,181.86 54.71,181.73 55.14,181.57 55.35,181.49 55.56,181.4 55.76,181.3 55.94,181.19 56.18,181.07 56.22,180.87 L 56.28,180.87 C 56.23,181.14 55.99,181.26 55.81,181.39 55.61,181.51 55.41,181.61 55.2,181.71 54.78,181.9 54.35,182.07 53.92,182.22 53.05,182.52 52.17,182.78 51.28,183.01 49.51,183.48 47.71,183.84 45.91,184.15 44.1,184.44 42.27,184.67 40.44,184.79 38.61,184.9 36.77,184.94 34.93,184.77 34.01,184.69 33.09,184.55 32.19,184.28 31.75,184.14 31.3,183.96 30.9,183.71 30.52,183.46 30.13,183.25 29.72,183.06 28.08,182.32 26.29,181.92 24.5,181.62 20.9,181.04 17.24,180.87 13.59,180.93 L 13.59,180.88 Z M 13.59,180.88" />
        <path id="joe04Canvas-bezier41" stroke="none" fill="rgb(51, 91, 113)" d="M 38.07,31.58 C 38.9,30.77 39.97,30.16 41.15,29.96 41.74,29.85 42.36,29.85 42.94,30.01 43.51,30.18 44.06,30.46 44.5,30.85 L 44.48,30.87 C 43.96,30.61 43.43,30.39 42.87,30.28 42.32,30.16 41.75,30.11 41.18,30.17 40.62,30.24 40.06,30.42 39.54,30.67 39.02,30.91 38.52,31.22 38.09,31.6 L 38.07,31.58 Z M 38.07,31.58" />
        <path id="joe04Canvas-bezier42" stroke="none" fill="rgb(51, 91, 113)" d="M 38.84,31.68 C 39.25,31.96 39.74,32.11 40.22,32.16 40.71,32.23 41.19,32.19 41.68,32.09 42.17,32 42.65,31.88 43.13,31.78 43.38,31.74 43.62,31.69 43.87,31.66 44.12,31.63 44.38,31.58 44.64,31.67 L 44.63,31.69 C 44.39,31.69 44.15,31.78 43.91,31.85 L 43.2,32.05 C 42.71,32.18 42.21,32.25 41.71,32.31 41.22,32.38 40.7,32.4 40.2,32.3 39.7,32.2 39.22,32.02 38.82,31.7 L 38.84,31.68 Z M 38.84,31.68" />
        <path id="joe04Canvas-bezier43" stroke="none" fill="rgb(51, 91, 113)" d="M 37.8,30.78 C 38.76,29.97 39.95,29.41 41.22,29.24 41.85,29.15 42.51,29.15 43.13,29.32 43.75,29.49 44.34,29.77 44.84,30.16 L 44.82,30.19 C 44.25,29.93 43.67,29.71 43.07,29.59 42.47,29.47 41.86,29.4 41.24,29.46 40.63,29.51 40.03,29.67 39.45,29.9 38.87,30.13 38.32,30.42 37.82,30.8 L 37.8,30.78 Z M 37.8,30.78" />
        <path id="joe04Canvas-bezier44" stroke="none" fill="rgb(51, 91, 113)" d="M 60.24,28.83 C 59.69,28.58 59.1,28.4 58.51,28.29 57.92,28.17 57.32,28.12 56.72,28.16 56.13,28.19 55.55,28.33 54.98,28.51 54.42,28.69 53.88,28.96 53.36,29.27 L 53.34,29.25 C 53.77,28.81 54.31,28.49 54.89,28.25 55.47,28.03 56.1,27.94 56.72,27.94 57.95,27.92 59.17,28.24 60.25,28.81 L 60.24,28.83 Z M 60.24,28.83" />
        <path id="joe04Canvas-bezier45" stroke="none" fill="rgb(51, 91, 113)" d="M 53.24,30.02 C 54.1,29.22 55.28,28.78 56.48,28.75 57.07,28.73 57.68,28.79 58.25,28.98 58.81,29.17 59.35,29.43 59.83,29.79 L 59.81,29.81 C 59.27,29.6 58.73,29.38 58.17,29.25 57.62,29.1 57.05,28.98 56.48,28.97 55.91,28.96 55.33,29.05 54.78,29.23 54.23,29.41 53.7,29.67 53.26,30.04 L 53.24,30.02 Z M 53.24,30.02" />
        <path id="joe04Canvas-bezier46" stroke="none" fill="rgb(51, 91, 113)" d="M 53.66,30.54 C 54.09,30.42 54.55,30.46 54.99,30.51 55.2,30.53 55.43,30.59 55.63,30.61 55.84,30.63 56.06,30.63 56.27,30.61 56.7,30.57 57.11,30.45 57.53,30.35 57.94,30.24 58.35,30.11 58.75,29.91 L 58.76,29.94 C 58.45,30.27 58.02,30.45 57.61,30.61 57.18,30.76 56.73,30.82 56.28,30.83 56.06,30.84 55.83,30.82 55.61,30.79 55.38,30.75 55.18,30.68 54.96,30.64 54.54,30.56 54.1,30.49 53.67,30.57 L 53.66,30.54 Z M 53.66,30.54" />
        <path id="joe04Canvas-bezier47" stroke="none" fill="rgb(51, 91, 113)" d="M 57.35,29.07 C 57.47,29.42 57.42,29.82 57.21,30.14 57.01,30.47 56.64,30.69 56.25,30.73 55.85,30.77 55.43,30.64 55.16,30.33 54.9,30.03 54.79,29.6 54.92,29.24 L 54.95,29.24 C 54.98,29.6 55.12,29.92 55.36,30.14 55.59,30.36 55.91,30.52 56.23,30.51 56.56,30.5 56.89,30.34 57.1,30.06 57.31,29.8 57.4,29.43 57.33,29.08 L 57.35,29.07 Z M 57.35,29.07" />
        <path id="joe04Canvas-bezier48" stroke="none" fill="rgb(51, 91, 113)" d="M 42.64,30.22 C 42.84,30.57 42.86,31.03 42.66,31.42 42.47,31.8 42.08,32.08 41.64,32.13 41.2,32.19 40.73,32.04 40.44,31.68 40.17,31.33 40.09,30.83 40.28,30.45 L 40.31,30.46 C 40.28,30.86 40.4,31.24 40.66,31.5 40.89,31.76 41.26,31.93 41.62,31.91 41.99,31.89 42.35,31.68 42.54,31.35 42.74,31.03 42.78,30.59 42.61,30.23 L 42.64,30.22 Z M 42.64,30.22" />
        <path id="joe04Canvas-bezier49" stroke="none" fill="rgb(51, 91, 113)" d="M 14.67,181.86 C 14.58,185.36 14.59,188.87 14.73,192.36 14.79,194.11 14.9,195.86 15.08,197.59 15.17,198.46 15.28,199.33 15.44,200.18 15.6,201.03 15.79,201.89 16.11,202.67 16.19,202.86 16.28,203.05 16.39,203.22 16.5,203.4 16.63,203.6 16.73,203.8 16.95,204.19 17.13,204.6 17.3,205.02 17.62,205.85 17.86,206.71 18.05,207.58 18.43,209.31 18.61,211.07 18.72,212.83 18.8,214.58 18.8,216.35 18.77,218.09 18.79,218.93 19,219.79 19.48,220.49 19.94,221.2 20.68,221.74 21.53,221.97 L 21.51,222.02 C 20.64,221.85 19.83,221.35 19.27,220.64 18.72,219.91 18.45,219 18.39,218.1 18.33,216.34 18.31,214.6 18.16,212.86 18.04,211.12 17.85,209.39 17.51,207.69 17.34,206.84 17.12,206 16.83,205.2 16.68,204.79 16.52,204.4 16.32,204.02 16.22,203.83 16.12,203.66 16,203.46 15.88,203.26 15.78,203.05 15.7,202.84 15.36,201.99 15.19,201.12 15.04,200.25 14.9,199.38 14.8,198.5 14.72,197.63 14.56,195.88 14.49,194.12 14.45,192.37 14.38,188.86 14.45,185.36 14.61,181.86 L 14.67,181.86 Z M 14.67,181.86" />
        <path id="joe04Canvas-bezier50" stroke="none" fill="rgb(51, 91, 113)" d="M 19.98,222.68 C 20.01,225.62 20.08,228.56 20.17,231.5 20.26,234.44 20.37,237.38 20.54,240.32 20.7,243.25 20.94,246.18 21.19,249.1 21.31,250.57 21.47,252.02 21.68,253.47 21.79,254.2 21.92,254.92 22.1,255.62 22.19,255.97 22.29,256.32 22.43,256.66 22.58,256.97 22.76,257.33 23.1,257.45 L 23.09,257.5 C 22.69,257.41 22.47,257.04 22.29,256.73 22.11,256.4 21.98,256.05 21.85,255.69 21.62,254.99 21.45,254.26 21.3,253.54 21,252.09 20.81,250.62 20.64,249.16 20.31,246.23 20.2,243.28 20.09,240.34 19.88,234.45 19.84,228.56 19.92,222.68 L 19.98,222.68 19.98,222.68 Z M 19.98,222.68" />
        <path id="joe04Canvas-bezier51" stroke="none" fill="rgb(51, 91, 113)" d="M 25.06,251.97 C 26.37,252.15 27.5,252.97 28.37,253.94 29.24,254.91 29.94,256.02 30.61,257.12 L 32.63,260.4 C 33.28,261.5 33.99,262.55 34.78,263.58 L 34.74,263.62 C 33.72,262.8 32.9,261.76 32.16,260.7 31.43,259.62 30.85,258.46 30.23,257.34 29.6,256.22 28.96,255.1 28.16,254.12 27.37,253.13 26.33,252.28 25.05,252.02 L 25.06,251.97 Z M 25.06,251.97" />
        <path id="joe04Canvas-bezier52" stroke="none" fill="rgb(51, 91, 113)" d="M 25.08,258.66 C 24.62,259.94 24.27,261.27 24.12,262.63 24.05,263.31 24.04,263.99 24.17,264.66 24.3,265.31 24.61,265.95 25.17,266.33 25.46,266.54 25.69,266.84 25.79,267.19 25.91,267.53 25.91,267.9 25.87,268.25 25.77,268.95 25.51,269.59 25.25,270.23 25.12,270.54 24.98,270.86 24.87,271.17 24.76,271.48 24.64,271.85 24.74,272.07 24.8,272.17 24.92,272.21 25.09,272.22 25.17,272.22 25.31,272.25 25.4,272.32 25.5,272.4 25.55,272.54 25.56,272.64 25.55,273.06 25.37,273.36 25.23,273.68 24.62,274.91 23.94,276.1 23.59,277.41 23.23,278.69 23.25,280.11 23.93,281.26 24.08,281.54 24.31,281.82 24.47,282.14 24.63,282.46 24.76,282.78 24.89,283.1 25.13,283.76 25.32,284.42 25.5,285.09 25.84,286.42 26.1,287.77 26.33,289.12 27.24,294.54 27.68,300.02 27.82,305.51 27.84,308.25 27.84,311 27.5,313.74 27.41,314.42 27.28,315.12 27.1,315.77 26.93,316.43 26.77,317.1 26.64,317.77 26.51,318.43 26.4,319.11 26.41,319.78 26.42,320.11 26.46,320.47 26.67,320.72 26.88,320.97 27.25,321 27.58,321.1 L 27.56,321.15 C 27.24,321.07 26.85,321.07 26.59,320.79 26.34,320.51 26.28,320.13 26.25,319.79 26.21,319.09 26.29,318.41 26.39,317.72 26.5,317.04 26.64,316.37 26.78,315.7 26.95,315.03 27.05,314.37 27.11,313.7 27.37,310.99 27.34,308.25 27.26,305.52 27.2,302.79 27.04,300.06 26.81,297.34 26.6,294.61 26.31,291.89 25.89,289.2 25.68,287.85 25.43,286.51 25.11,285.19 24.76,283.87 24.41,282.56 23.61,281.44 23.27,280.81 23.07,280.11 23.03,279.4 22.99,278.7 23.1,277.99 23.28,277.32 23.66,275.97 24.36,274.76 24.98,273.56 25.12,273.26 25.29,272.93 25.29,272.66 25.29,272.53 25.23,272.49 25.06,272.47 24.9,272.46 24.64,272.41 24.53,272.19 24.42,271.98 24.46,271.78 24.49,271.6 24.53,271.42 24.59,271.26 24.65,271.09 24.77,270.77 24.91,270.46 25.05,270.14 25.31,269.51 25.58,268.88 25.68,268.22 25.72,267.89 25.72,267.55 25.62,267.24 25.53,266.93 25.33,266.66 25.07,266.46 24.48,266.06 24.15,265.36 24.04,264.68 23.91,264 23.93,263.3 24.01,262.62 24.18,261.25 24.55,259.92 25.03,258.64 L 25.08,258.66 Z M 25.08,258.66" />
        <path id="joe04Canvas-bezier53" stroke="none" fill="rgb(51, 91, 113)" d="M 27.59,323.6 C 28.31,326.48 28.98,329.38 29.61,332.28 30.22,335.19 30.8,338.11 31.23,341.05 31.44,342.53 31.64,344.01 31.64,345.52 31.64,345.9 31.62,346.29 31.54,346.68 31.5,346.89 31.44,347.06 31.41,347.23 31.38,347.4 31.35,347.57 31.33,347.75 31.26,348.45 31.31,349.18 31.41,349.9 31.6,351.34 32.01,352.76 32.48,354.16 32.95,355.56 33.5,356.94 34.12,358.29 L 34.07,358.32 C 33.3,357.04 32.67,355.68 32.11,354.3 31.56,352.91 31.11,351.47 30.86,349.98 30.75,349.23 30.68,348.46 30.76,347.69 30.78,347.49 30.81,347.3 30.85,347.11 30.89,346.9 30.95,346.72 30.99,346.57 31.06,346.24 31.08,345.87 31.09,345.51 31.12,344.06 30.96,342.58 30.79,341.11 30.41,338.17 29.89,335.25 29.33,332.34 28.78,329.42 28.18,326.51 27.54,323.61 L 27.59,323.6 Z M 27.59,323.6" />
        <path id="joe04Canvas-bezier54" stroke="none" fill="rgb(51, 91, 113)" d="M 39.45,354.4 C 39.34,354.1 39.42,353.75 39.59,353.49 39.76,353.23 40,353.01 40.24,352.82 40.74,352.44 41.3,352.17 41.87,351.93 43.03,351.48 44.24,351.2 45.48,351.06 46.09,350.99 46.72,350.96 47.34,350.98 47.97,350.99 48.62,351.1 49.22,351.35 49.82,351.61 50.38,352.01 50.73,352.57 51.08,353.12 51.24,353.77 51.16,354.39 L 51.11,354.39 C 51.03,353.79 50.78,353.23 50.41,352.8 50.04,352.36 49.56,352.04 49.02,351.86 47.94,351.49 46.71,351.45 45.52,351.5 44.31,351.59 43.11,351.8 41.97,352.19 41.4,352.39 40.84,352.62 40.34,352.95 40.09,353.12 39.86,353.31 39.68,353.55 39.51,353.79 39.42,354.09 39.5,354.38 L 39.45,354.4 Z M 39.45,354.4" />
        <path id="joe04Canvas-bezier55" stroke="none" fill="rgb(51, 91, 113)" d="M 41.57,355.54 L 52.2,356.62 52.78,356.68 52.22,356.85 43.2,359.65 43.14,359.29 52.18,359.23 53.47,359.22 52.28,359.71 C 49.98,360.64 47.69,361.57 45.39,362.48 L 45.29,361.93 C 47.59,361.93 49.89,361.96 52.19,361.99 L 53.78,362.01 52.25,362.43 C 50.87,362.81 49.48,363.17 48.1,363.53 46.72,363.9 45.32,364.24 43.94,364.59 L 43.92,364.54 C 45.29,364.11 46.65,363.66 48.02,363.25 49.39,362.83 50.75,362.4 52.12,362 L 52.19,362.44 C 49.89,362.47 47.59,362.5 45.29,362.5 L 43.8,362.5 45.18,361.95 C 47.48,361.03 49.79,360.14 52.09,359.25 L 52.19,359.72 43.14,359.66 41.9,359.65 43.09,359.3 52.15,356.62 52.17,356.85 41.57,355.59 41.57,355.54 Z M 41.57,355.54" />
        <path id="joe04Canvas-bezier56" stroke="none" fill="rgb(51, 91, 113)" d="M 32.54,358.33 C 32.36,358.52 32.33,358.84 32.3,359.12 32.27,359.4 32.26,359.69 32.27,359.98 32.27,360.56 32.32,361.14 32.38,361.72 32.44,362.29 32.56,362.86 32.59,363.45 32.61,364.03 32.63,364.61 32.55,365.21 L 32.5,365.22 C 32.27,364.66 32.13,364.09 32.03,363.51 31.93,362.93 31.95,362.33 31.94,361.74 31.93,361.15 31.94,360.56 31.99,359.97 32.02,359.68 32.06,359.38 32.13,359.09 32.21,358.81 32.26,358.49 32.52,358.28 L 32.54,358.33 Z M 32.54,358.33" />
        <path id="joe04Canvas-bezier57" stroke="none" fill="rgb(51, 91, 113)" d="M 34.13,363.14 C 33.51,364.98 33.05,366.91 33.02,368.85 33.02,369.8 33.13,370.8 33.61,371.62 33.84,372.04 34.21,372.34 34.6,372.64 34.98,372.93 35.38,373.22 35.78,373.48 37.41,374.54 39.24,375.27 41.11,375.78 42.99,376.28 44.93,376.55 46.88,376.69 48.82,376.82 50.78,376.82 52.73,376.72 53.7,376.66 54.7,376.68 55.54,376.37 55.96,376.22 56.27,375.96 56.43,375.56 56.59,375.17 56.65,374.7 56.68,374.22 56.74,373.27 56.8,372.27 56.81,371.32 56.81,370.36 56.74,369.39 56.56,368.45 56.37,367.52 56.06,366.59 55.46,365.85 54.88,365.1 53.95,364.64 52.97,364.59 L 52.97,364.54 C 53.96,364.52 54.98,364.92 55.65,365.68 56.33,366.44 56.7,367.41 56.94,368.37 57.18,369.33 57.26,370.33 57.29,371.31 57.3,372.31 57.27,373.27 57.24,374.26 57.2,374.76 57.16,375.27 56.95,375.79 56.75,376.31 56.25,376.73 55.75,376.91 54.72,377.27 53.72,377.21 52.75,377.27 50.78,377.33 48.81,377.3 46.84,377.13 44.88,376.97 42.92,376.66 41.02,376.12 39.12,375.59 37.27,374.81 35.63,373.71 35.22,373.44 34.82,373.14 34.44,372.83 34.25,372.67 34.06,372.53 33.88,372.34 33.7,372.16 33.54,371.95 33.42,371.73 32.92,370.84 32.84,369.82 32.85,368.84 32.93,366.87 33.42,364.96 34.07,363.12 L 34.13,363.14 Z M 34.13,363.14" />
        <path id="joe04Canvas-bezier58" stroke="none" fill="rgb(51, 91, 113)" d="M 52.17,353.32 C 52.68,352.93 53.11,352.42 53.38,351.85 53.66,351.28 53.72,350.62 53.51,350.04 53.31,349.47 52.82,349.03 52.35,348.6 51.87,348.17 51.37,347.75 50.89,347.29 49.94,346.38 49.08,345.31 48.59,344.06 48.1,342.81 47.88,341.48 47.96,340.17 L 48.02,340.17 C 48.26,341.45 48.55,342.7 49.1,343.84 49.63,344.98 50.33,346.05 51.21,346.98 51.65,347.44 52.13,347.88 52.6,348.34 53.05,348.8 53.57,349.28 53.77,349.96 53.97,350.62 53.86,351.35 53.53,351.93 53.21,352.51 52.74,352.99 52.2,353.37 L 52.17,353.32 Z M 52.17,353.32" />
        <path id="joe04Canvas-bezier59" stroke="none" fill="rgb(51, 91, 113)" d="M 52.16,345.12 C 52.72,342.71 53.14,340.25 53.2,337.79 53.22,336.56 53.17,335.3 52.74,334.18 52.63,333.91 52.49,333.64 52.31,333.42 52.15,333.2 51.89,333.02 51.67,332.76 51.24,332.28 50.9,331.73 50.61,331.18 49.46,328.92 48.84,326.47 48.43,324.01 48.06,321.54 47.86,319.05 47.96,316.56 L 48.02,316.56 C 48.24,319.03 48.52,321.49 48.98,323.91 49.45,326.33 49.95,328.77 51.01,330.97 51.28,331.52 51.59,332.04 51.98,332.5 52.08,332.61 52.17,332.71 52.28,332.82 52.39,332.92 52.52,333.05 52.62,333.19 52.82,333.45 52.97,333.75 53.08,334.05 53.51,335.28 53.52,336.55 53.48,337.79 53.34,340.29 52.85,342.74 52.21,345.13 L 52.16,345.12 Z M 52.16,345.12" />
        <path id="joe04Canvas-bezier60" stroke="none" fill="rgb(51, 91, 113)" d="M 46,316.55 C 46.66,314.78 47.19,312.95 47.55,311.1 47.92,309.24 48.07,307.35 47.71,305.49 47.13,301.74 46.45,298.01 45.9,294.26 45.62,292.38 45.36,290.5 45.16,288.61 44.96,286.72 44.82,284.82 44.91,282.9 44.94,282.42 44.98,281.93 45.06,281.45 45.15,280.97 45.27,280.51 45.39,280.05 45.65,279.12 45.96,278.22 46.31,277.33 46.63,276.45 47.05,275.57 47.19,274.67 47.21,274.45 47.2,274.23 47.1,274.05 46.99,273.88 46.79,273.77 46.57,273.72 46.12,273.61 45.64,273.64 45.17,273.67 L 45.16,273.62 C 45.63,273.55 46.11,273.48 46.6,273.57 46.84,273.61 47.11,273.71 47.27,273.94 47.43,274.17 47.45,274.45 47.44,274.69 47.41,275.19 47.26,275.65 47.12,276.11 L 46.67,277.46 C 46.37,278.36 46.08,279.25 45.86,280.16 45.75,280.62 45.65,281.08 45.58,281.53 45.51,281.99 45.48,282.45 45.46,282.92 45.4,284.79 45.55,286.68 45.71,288.56 45.87,290.44 46.09,292.32 46.34,294.2 46.84,297.95 47.46,301.69 47.98,305.45 48.11,306.38 48.2,307.35 48.13,308.3 48.07,309.26 47.92,310.2 47.72,311.13 47.32,312.99 46.75,314.81 46.05,316.57 L 46,316.55 Z M 46,316.55" />
        <path id="joe04Canvas-bezier61" stroke="none" fill="rgb(51, 91, 113)" d="M 46.57,270.51 C 47.37,268.29 48,266.02 48.45,263.71 48.88,261.41 49.17,259.04 48.8,256.74 48.71,256.16 48.52,255.62 48.35,255.05 48.18,254.47 48.06,253.89 47.97,253.31 47.79,252.13 47.75,250.94 47.78,249.75 47.86,247.38 48.26,245.04 48.71,242.73 L 49.38,239.27 C 49.6,238.12 49.7,236.96 49.81,235.79 50.03,233.45 50.19,231.1 50.38,228.75 50.61,226.41 50.83,224.06 51.18,221.73 51.36,220.56 51.57,219.4 51.85,218.25 52,217.67 52.17,217.1 52.39,216.55 52.51,216.28 52.64,216.01 52.8,215.76 52.97,215.51 53.18,215.26 53.49,215.18 L 53.5,215.24 C 53.23,215.32 53.04,215.57 52.89,215.81 52.74,216.06 52.63,216.33 52.54,216.61 52.35,217.16 52.21,217.73 52.1,218.3 51.86,219.45 51.7,220.61 51.57,221.78 51.3,224.11 51.11,226.45 50.94,228.8 50.74,231.14 50.58,233.49 50.36,235.84 50.23,237.01 50.11,238.19 49.87,239.36 L 49.15,242.82 C 48.67,245.12 48.25,247.43 48.15,249.77 48.1,250.93 48.12,252.11 48.29,253.26 48.37,253.84 48.48,254.41 48.64,254.97 48.8,255.53 48.99,256.1 49.07,256.7 49.41,259.06 49.08,261.44 48.61,263.75 48.12,266.06 47.45,268.32 46.63,270.53 L 46.57,270.51 Z M 46.57,270.51" />
        <path id="joe04Canvas-bezier62" stroke="none" fill="rgb(51, 91, 113)" d="M 54.7,217.94 L 67.84,238.19 71.18,243.21 C 72.29,244.9 73.44,246.51 74.76,248.03 76.04,249.57 77.42,251.03 78.77,252.53 79.44,253.28 80.11,254.03 80.75,254.82 81.06,255.21 81.37,255.62 81.64,256.05 81.78,256.26 81.9,256.49 82,256.72 82.09,256.96 82.17,257.22 82.09,257.48 L 82.04,257.47 C 82.1,257.23 82.01,256.99 81.9,256.77 81.8,256.54 81.66,256.34 81.51,256.13 81.22,255.73 80.89,255.35 80.56,254.98 79.89,254.23 79.19,253.51 78.48,252.79 77.07,251.36 75.67,249.91 74.33,248.39 73.67,247.62 73.03,246.84 72.42,246.03 71.82,245.2 71.28,244.36 70.72,243.52 L 67.47,238.43 C 63.14,231.64 58.89,224.81 54.65,217.97 L 54.7,217.94 Z M 54.7,217.94" />
        <path id="joe04Canvas-bezier63" stroke="none" fill="rgb(51, 91, 113)" d="M 80.12,255.92 C 79.46,257.28 79.04,258.81 79.16,260.31 79.22,261.05 79.45,261.77 79.85,262.38 80.26,263 80.84,263.48 81.49,263.84 81.81,264.02 82.15,264.15 82.51,264.3 82.87,264.45 83.23,264.61 83.58,264.79 84.27,265.14 84.95,265.56 85.54,266.11 86.11,266.66 86.6,267.38 86.74,268.19 86.89,268.99 86.71,269.76 86.68,270.51 L 86.62,270.52 C 86.5,269.75 86.58,268.97 86.36,268.27 86.16,267.58 85.72,266.99 85.16,266.52 84.61,266.04 83.97,265.64 83.32,265.27 82.99,265.09 82.65,264.91 82.31,264.75 81.97,264.59 81.6,264.43 81.26,264.22 80.58,263.81 79.97,263.26 79.55,262.58 79.13,261.9 78.92,261.1 78.88,260.32 78.83,258.75 79.34,257.24 80.07,255.89 L 80.12,255.92 Z M 80.12,255.92" />
        <path id="joe04Canvas-bezier64" stroke="none" fill="rgb(51, 91, 113)" d="M 83.93,267.91 C 83.89,269.69 83.99,271.51 84.51,273.22 84.64,273.64 84.81,274.05 85.04,274.43 85.25,274.82 85.62,275.1 85.8,275.55 86.01,275.98 85.91,276.5 85.68,276.89 85.47,277.3 85.21,277.66 85.01,278.05 84.58,278.83 84.48,279.75 84.69,280.61 84.88,281.48 85.06,282.36 85.23,283.24 85.56,285.01 85.85,286.78 86.1,288.55 86.58,292.11 86.97,295.69 86.84,299.29 86.71,301.07 86.9,302.85 87.12,304.62 87.36,306.39 87.66,308.15 88.01,309.91 88.7,313.42 89.53,316.9 90.51,320.34 91.01,322.06 91.53,323.78 92.2,325.41 92.29,325.61 92.38,325.81 92.47,326.01 92.56,326.2 92.68,326.36 92.79,326.62 92.97,327.07 93.07,327.53 93.15,327.98 93.3,328.88 93.37,329.78 93.42,330.68 93.72,337.88 93.17,345.04 92.59,352.18 L 92.38,352 C 93.46,351.88 94.47,352.06 95.47,352.29 96.46,352.54 97.43,352.89 98.37,353.28 99.29,353.66 100.29,353.89 101.29,353.83 102.29,353.77 103.3,353.44 104.06,352.79 L 104.1,352.83 C 103.34,353.52 102.32,353.89 101.3,353.98 100.27,354.07 99.23,353.88 98.27,353.51 97.33,353.14 96.38,352.81 95.4,352.59 94.43,352.37 93.4,352.22 92.45,352.34 L 92.22,352.37 92.24,352.16 C 92.49,348.58 92.68,345.01 92.8,341.43 92.91,337.85 93.05,334.27 92.86,330.71 92.81,329.82 92.74,328.93 92.6,328.07 92.53,327.64 92.44,327.2 92.29,326.83 92.23,326.67 92.09,326.45 91.99,326.24 91.89,326.03 91.8,325.82 91.71,325.61 91.03,323.93 90.53,322.2 90.04,320.47 89.09,317.01 88.28,313.51 87.61,309.98 87.28,308.22 86.98,306.45 86.76,304.66 86.55,302.88 86.36,301.07 86.51,299.27 86.66,295.71 86.29,292.13 85.85,288.59 85.61,286.81 85.34,285.04 85.03,283.28 84.87,282.4 84.7,281.52 84.51,280.64 84.31,279.75 84.43,278.78 84.87,277.98 85.08,277.58 85.35,277.21 85.56,276.82 85.77,276.44 85.87,275.99 85.69,275.59 85.53,275.19 85.16,274.9 84.94,274.49 84.71,274.1 84.54,273.67 84.41,273.24 83.9,271.51 83.81,269.69 83.87,267.9 L 83.93,267.91 Z M 83.93,267.91" />
        <path id="joe04Canvas-bezier65" stroke="none" fill="rgb(51, 91, 113)" d="M 119.26,346.05 C 118.98,345.67 118.51,345.49 118.06,345.38 117.6,345.27 117.12,345.24 116.65,345.26 115.7,345.31 114.72,345.37 113.78,345.45 112.83,345.55 111.87,345.69 111.04,345.98 110.62,346.14 110.3,346.37 110.34,346.76 110.37,347.16 110.65,347.58 110.91,347.98 L 110.87,348.01 C 110.49,347.71 110.11,347.37 109.95,346.82 109.87,346.55 109.95,346.19 110.15,345.96 110.34,345.73 110.58,345.58 110.82,345.47 111.79,345.05 112.78,345.05 113.75,345.01 114.72,344.98 115.67,344.98 116.65,344.98 117.14,345 117.63,345.07 118.1,345.22 118.56,345.37 119.04,345.59 119.31,346.03 L 119.26,346.05 Z M 119.26,346.05" />
        <path id="joe04Canvas-bezier66" stroke="none" fill="rgb(51, 91, 113)" d="M 111.81,349.14 L 122.29,349.06 122.71,349.06 122.35,349.26 118.62,351.39 116.74,352.44 C 116.42,352.61 116.11,352.78 115.78,352.94 115.74,352.96 115.71,352.98 115.63,353 L 115.61,353.01 C 115.61,353 115.61,353.02 115.52,353 115.45,352.97 115.42,352.94 115.41,352.85 115.41,352.81 115.43,352.77 115.44,352.75 L 115.45,352.74 C 115.47,352.71 115.49,352.7 115.5,352.69 115.54,352.66 115.54,352.67 115.57,352.65 115.68,352.58 115.76,352.56 115.85,352.53 116.03,352.47 116.21,352.42 116.38,352.38 117.8,352.06 119.21,351.84 120.63,351.62 122.05,351.4 123.47,351.2 124.89,351.02 L 125.97,350.87 125.02,351.42 119.41,354.61 119.25,354.13 C 122.26,353.75 125.28,353.42 128.29,353.07 L 129.44,352.93 128.48,353.57 123.07,357.17 122.95,356.78 127.08,356.86 131.21,356.97 131.21,357.02 127.08,357.13 122.95,357.21 122.26,357.22 122.83,356.82 128.17,353.11 128.36,353.62 C 125.34,353.96 122.33,354.33 119.31,354.64 L 118.03,354.78 119.15,354.16 124.81,351.04 124.94,351.44 C 123.52,351.61 122.1,351.8 120.68,352 119.27,352.2 117.85,352.4 116.46,352.7 116.29,352.74 116.12,352.78 115.96,352.83 115.88,352.86 115.79,352.89 115.74,352.91 115.74,352.92 115.69,352.95 115.7,352.94 115.69,352.95 115.69,352.95 115.7,352.94 L 115.7,352.94 C 115.72,352.92 115.73,352.88 115.73,352.84 115.72,352.76 115.69,352.73 115.63,352.7 115.54,352.68 115.55,352.7 115.55,352.69 L 115.55,352.69 115.65,352.65 C 115.96,352.5 116.28,352.33 116.59,352.17 L 118.48,351.14 122.24,349.08 122.29,349.28 111.81,349.2 111.81,349.14 Z M 111.81,349.14" />
        <path id="joe04Canvas-bezier67" stroke="none" fill="rgb(51, 91, 113)" d="M 132.52,358.27 C 134.1,358.19 135.7,358.16 137.29,358.19 138.88,358.23 140.48,358.31 142.05,358.59 142.83,358.73 143.62,358.91 144.35,359.28 144.7,359.47 145.06,359.74 145.24,360.12 L 145.83,361.15 C 146.23,361.83 146.62,362.54 146.89,363.3 147.16,364.05 147.32,364.88 147.17,365.69 147.04,366.5 146.59,367.24 146.02,367.81 145.44,368.39 144.76,368.84 144.06,369.22 142.62,369.98 141.02,370.32 139.44,370.56 136.27,371 133.06,370.95 129.88,370.75 126.7,370.52 123.53,370.09 120.4,369.47 118.84,369.15 117.28,368.78 115.75,368.32 114.23,367.87 112.7,367.46 111.15,367.15 109.61,366.85 108.03,366.65 106.49,366.8 105.72,366.87 104.97,367.06 104.23,367.31 103.85,367.43 103.52,367.61 103.04,367.67 102.61,367.73 102.2,367.72 101.8,367.69 100.17,367.55 98.62,367.17 97.07,366.77 95.53,366.36 94,365.9 92.49,365.39 L 92.36,365.35 92.36,365.22 C 92.33,363.22 92.37,361.23 92.5,359.24 92.57,358.24 92.67,357.25 92.82,356.26 92.96,355.28 93.14,354.29 93.44,353.34 L 93.49,353.35 C 93.23,354.31 93.09,355.3 92.98,356.29 92.87,357.27 92.81,358.26 92.77,359.26 92.67,361.24 92.66,363.23 92.73,365.21 L 92.61,365.04 C 94.12,365.51 95.65,365.95 97.18,366.32 98.72,366.69 100.28,367.04 101.83,367.14 102.22,367.17 102.6,367.17 102.96,367.12 103.28,367.09 103.67,366.91 104.05,366.79 104.81,366.52 105.62,366.32 106.43,366.25 108.07,366.09 109.68,366.31 111.26,366.61 112.83,366.92 114.37,367.35 115.9,367.82 117.41,368.29 118.95,368.67 120.5,369 123.6,369.65 126.75,370.1 129.91,370.35 133.07,370.58 136.26,370.65 139.4,370.23 140.95,370.01 142.53,369.68 143.92,368.96 144.61,368.6 145.27,368.17 145.82,367.62 146.37,367.08 146.79,366.4 146.92,365.64 147.07,364.89 146.93,364.1 146.68,363.37 146.42,362.63 146.05,361.93 145.66,361.25 L 145.07,360.21 C 144.91,359.86 144.6,359.62 144.26,359.44 143.58,359.07 142.79,358.89 142.02,358.73 140.46,358.45 138.87,358.35 137.28,358.29 135.7,358.25 134.1,358.26 132.52,358.33 L 132.52,358.27 Z M 132.52,358.27" />
        <path id="joe04Canvas-bezier68" stroke="none" fill="rgb(51, 91, 113)" d="M 106.54,350.47 C 106.54,350.17 106.69,349.9 106.83,349.65 107,349.4 107.21,349.17 107.47,348.99 107.72,348.82 108.04,348.65 108.38,348.69 108.71,348.73 109.02,348.88 109.2,349.15 L 109.18,349.2 C 108.86,349.21 108.61,349.21 108.38,349.25 108.16,349.29 107.92,349.28 107.69,349.38 107.46,349.48 107.24,349.63 107.05,349.82 106.86,350.01 106.67,350.22 106.6,350.48 L 106.54,350.47 Z M 106.54,350.47" />
        <path id="joe04Canvas-bezier69" stroke="none" fill="rgb(51, 91, 113)" d="M 120.97,345.11 C 120.12,345.24 119.33,344.72 118.8,344.1 118.26,343.47 117.9,342.72 117.61,341.95 117.02,340.4 116.84,338.76 116.52,337.17 115.9,333.97 115.2,330.78 114.42,327.62 114.03,326.03 113.62,324.46 113.17,322.89 112.95,322.11 112.72,321.33 112.47,320.56 112.23,319.79 111.97,319.01 111.65,318.29 111.49,317.96 111.28,317.54 111.15,317.16 111.01,316.76 110.89,316.36 110.79,315.96 110.59,315.16 110.44,314.35 110.33,313.53 110.11,311.91 110,310.27 109.99,308.64 L 110.05,308.64 C 110.12,309.45 110.22,310.26 110.33,311.06 110.44,311.87 110.56,312.68 110.72,313.47 111.03,315.06 111.35,316.65 112.15,318.06 112.84,319.59 113.27,321.17 113.7,322.75 114.12,324.33 114.5,325.92 114.86,327.51 115.58,330.7 116.23,333.9 116.79,337.12 117.08,338.73 117.23,340.36 117.77,341.89 118.03,342.66 118.37,343.4 118.89,344.03 119.38,344.64 120.14,345.16 120.96,345.06 L 120.97,345.11 Z M 120.97,345.11" />
        <path id="joe04Canvas-bezier70" stroke="none" fill="rgb(51, 91, 113)" d="M 111.78,312.12 C 111.97,310.37 112.03,308.56 111.68,306.84 111.44,306 110.66,305.48 109.97,304.92 109.27,304.37 108.6,303.72 108.21,302.88 107.81,302.05 107.68,301.12 107.69,300.22 107.73,299.32 107.81,298.44 107.85,297.55 107.95,295.78 108.02,294.01 108.06,292.24 108.14,288.69 108.1,285.14 107.88,281.61 107.77,279.85 107.6,278.08 107.16,276.39 107.04,275.97 106.9,275.56 106.7,275.18 106.6,274.99 106.48,274.81 106.37,274.61 106.25,274.41 106.17,274.14 106.18,273.91 106.19,273.43 106.31,273 106.43,272.57 106.54,272.14 106.67,271.72 106.8,271.29 L 106.86,271.31 C 106.76,271.74 106.66,272.17 106.58,272.61 106.5,273.04 106.41,273.48 106.43,273.9 106.43,274.31 106.75,274.62 106.98,275.03 107.22,275.42 107.39,275.85 107.53,276.28 108.07,278.01 108.26,279.8 108.44,281.57 108.73,285.13 108.64,288.7 108.51,292.25 108.44,294.03 108.34,295.8 108.21,297.58 108.15,298.46 108.06,299.36 108.01,300.23 107.99,301.1 108.09,301.98 108.46,302.76 108.81,303.55 109.43,304.19 110.11,304.75 110.45,305.04 110.81,305.31 111.13,305.64 111.45,305.96 111.72,306.35 111.84,306.8 112.02,307.69 112.05,308.58 112.04,309.47 112.03,310.36 111.96,311.25 111.84,312.13 L 111.78,312.12 Z M 111.78,312.12" />
        <path id="joe04Canvas-bezier71" stroke="none" fill="rgb(51, 91, 113)" d="M 107.99,274.54 C 108.52,274.04 108.99,273.48 109.37,272.87 109.75,272.26 110.05,271.58 110.1,270.86 110.17,270.15 109.9,269.43 109.41,268.91 108.92,268.43 108.25,267.95 108.08,267.17 107.99,266.8 108.06,266.41 108.16,266.06 108.26,265.7 108.4,265.36 108.53,265.02 108.78,264.35 109,263.66 109.11,262.95 109.36,261.53 109.24,260.07 108.95,258.66 108.35,255.83 107.53,253.04 106.71,250.25 105.88,247.47 105,244.7 104.11,241.93 102.32,236.4 100.43,230.91 98.67,225.36 96.97,219.8 95.28,214.23 93.95,208.57 L 94.01,208.55 C 95.64,214.13 97.4,219.67 99.2,225.19 100.08,227.96 101,230.72 101.9,233.48 L 104.54,241.8 C 105.4,244.57 106.25,247.36 107.06,250.15 107.86,252.95 108.65,255.75 109.22,258.61 109.5,260.04 109.6,261.53 109.33,262.99 109.2,263.71 108.98,264.41 108.71,265.09 108.46,265.76 108.1,266.45 108.24,267.14 108.31,267.48 108.51,267.78 108.74,268.05 108.97,268.33 109.26,268.54 109.51,268.82 110.02,269.37 110.29,270.13 110.21,270.87 110.15,271.61 109.83,272.3 109.44,272.91 109.05,273.53 108.57,274.09 108.03,274.58 L 107.99,274.54 Z M 107.99,274.54" />
        <path id="joe04Canvas-bezier72" stroke="none" fill="rgb(51, 91, 113)" d="M 90.97,208.53 C 91.93,208.16 92.88,207.73 93.74,207.18 94.17,206.89 94.59,206.58 94.85,206.17 94.98,205.97 95.05,205.74 94.98,205.53 94.92,205.32 94.75,205.14 94.56,205 94.36,204.86 94.14,204.75 93.9,204.64 93.67,204.54 93.42,204.39 93.21,204.23 92.78,203.91 92.41,203.52 92.08,203.12 91.41,202.3 90.88,201.39 90.4,200.46 89.45,198.61 88.69,196.66 88.16,194.64 87.91,193.63 87.69,192.62 87.55,191.58 87.43,190.55 87.29,189.49 87.54,188.47 L 87.59,188.48 C 87.54,188.99 87.59,189.5 87.66,190 87.73,190.51 87.82,191.01 87.93,191.52 88.15,192.52 88.4,193.51 88.7,194.49 89.29,196.46 89.92,198.42 90.8,200.27 91.7,202.09 92.75,203.94 94.73,204.78 94.94,204.95 95.15,205.17 95.23,205.46 95.31,205.76 95.19,206.07 95.04,206.29 94.72,206.74 94.27,207.04 93.83,207.32 92.93,207.85 91.96,208.25 90.98,208.58 L 90.97,208.53 Z M 90.97,208.53" />
        <path id="joe04Canvas-bezier73" stroke="none" fill="rgb(51, 91, 113)" d="M 86.65,185.76 C 85.08,186.03 83.48,186.08 81.89,186.01 81.09,185.98 80.28,185.95 79.5,185.79 78.71,185.62 77.94,185.4 77.21,185.06 L 77.22,185 C 78.03,185.05 78.81,185.15 79.59,185.24 80.37,185.33 81.14,185.48 81.92,185.57 82.7,185.66 83.49,185.72 84.28,185.74 85.07,185.77 85.86,185.77 86.65,185.71 L 86.65,185.76 Z M 86.65,185.76" />
        <path id="joe04Canvas-bezier74" stroke="none" fill="rgb(51, 91, 113)" d="M 77.23,182.78 C 76.72,183.36 76.36,184.06 76.03,184.77 75.71,185.48 75.45,186.22 75.23,186.96 75.01,187.71 74.82,188.47 74.63,189.23 74.43,189.99 74.27,190.76 73.94,191.48 73.77,191.84 73.52,192.2 73.13,192.38 72.75,192.58 72.31,192.54 71.94,192.55 71.55,192.56 71.17,192.62 70.77,192.66 70.39,192.69 69.93,192.75 69.56,192.46 69.21,192.15 69.15,191.7 69.12,191.31 69.09,190.91 69.12,190.51 69.16,190.12 69.25,189.33 69.39,188.56 69.58,187.79 69.76,187.03 70.01,186.27 70.31,185.55 L 70.78,184.47 C 70.92,184.11 71.06,183.76 71.03,183.4 71.08,182.56 71.3,181.83 71.52,181.06 71.74,180.31 72.01,179.56 72.3,178.83 72.91,177.38 73.65,175.97 74.61,174.7 75.09,174.07 75.62,173.47 76.23,172.95 76.83,172.42 77.55,171.99 78.25,171.66 78.93,171.31 79.58,170.88 80.05,170.32 80.53,169.76 80.78,169.05 80.86,168.3 80.94,167.55 80.92,166.77 80.92,165.98 80.92,165.2 80.93,164.41 80.99,163.62 81.06,162.83 81.17,162.04 81.33,161.27 81.48,160.51 81.58,159.75 81.66,158.97 81.83,157.43 81.92,155.87 81.99,154.31 82.15,151.2 82.21,148.07 82.28,144.95 L 82.39,140.26 82.48,137.91 C 82.53,137.13 82.52,136.35 82.69,135.57 L 82.74,135.59 C 82.62,136.34 82.65,137.14 82.63,137.92 L 82.64,140.26 82.67,144.95 C 82.68,148.08 82.65,151.21 82.54,154.34 82.47,155.9 82.38,157.47 82.22,159.03 82.13,159.81 82.03,160.6 81.87,161.38 81.71,162.13 81.61,162.9 81.54,163.67 81.47,164.43 81.45,165.21 81.44,165.99 81.43,166.77 81.45,167.55 81.35,168.36 81.26,169.16 80.97,169.99 80.41,170.62 79.86,171.25 79.17,171.69 78.46,172.06 77.02,172.67 75.87,173.72 74.93,174.94 73.99,176.17 73.24,177.54 72.64,178.97 72.34,179.69 72.07,180.42 71.84,181.16 71.62,181.89 71.4,182.67 71.34,183.39 71.38,183.82 71.21,184.23 71.06,184.59 L 70.59,185.66 C 70.28,186.37 70.04,187.11 69.84,187.86 69.65,188.61 69.51,189.38 69.41,190.15 69.37,190.53 69.34,190.92 69.35,191.3 69.37,191.67 69.44,192.07 69.7,192.29 69.96,192.51 70.37,192.49 70.75,192.46 71.14,192.42 71.53,192.36 71.93,192.35 72.34,192.35 72.71,192.39 73.05,192.22 73.38,192.07 73.62,191.75 73.79,191.41 74.12,190.72 74.29,189.95 74.49,189.2 74.69,188.44 74.89,187.68 75.12,186.93 75.35,186.18 75.63,185.45 75.95,184.74 76.29,184.03 76.66,183.33 77.19,182.74 L 77.23,182.78 Z M 77.23,182.78" />
        <path id="joe04Canvas-bezier75" stroke="none" fill="rgb(51, 91, 113)" d="M 87.47,184.63 C 87.82,182.36 88.16,180.09 88.59,177.84 88.76,176.69 89.25,175.62 89.56,174.53 89.89,173.43 90.11,172.31 90.27,171.18 90.42,170.05 90.51,168.91 90.55,167.76 90.58,166.6 90.74,165.46 90.9,164.32 91.23,162.04 91.66,159.78 92.1,157.53 92.54,155.27 93,153.02 93.48,150.78 L 95.01,144.06 95.84,140.71 C 95.97,140.16 96.14,139.59 96.25,139.05 L 96.57,137.36 C 96.77,136.24 96.94,135.1 97.07,133.97 97.13,133.4 97.18,132.83 97.2,132.26 97.21,131.69 97.22,131.11 97.04,130.57 L 97.09,130.55 C 97.31,131.09 97.33,131.68 97.35,132.26 97.37,132.83 97.35,133.41 97.32,133.99 97.24,135.14 97.11,136.28 96.95,137.42 96.87,137.99 96.78,138.56 96.68,139.13 96.58,139.72 96.43,140.26 96.31,140.82 L 95.55,144.18 94.02,150.89 C 93.51,153.13 93.01,155.37 92.53,157.62 92.07,159.86 91.62,162.11 91.26,164.37 91.08,165.51 90.91,166.64 90.87,167.78 90.82,168.93 90.71,170.08 90.54,171.22 90.37,172.36 90.12,173.49 89.77,174.59 89.44,175.7 88.94,176.74 88.75,177.87 88.29,180.12 87.91,182.38 87.52,184.64 L 87.47,184.63 Z M 87.47,184.63" />
        <path id="joe04Canvas-bezier76" stroke="none" fill="rgb(51, 91, 113)" d="M 96.58,128.87 C 95.65,124.51 94.71,120.15 93.73,115.81 93.23,113.64 92.7,111.47 92.22,109.3 92,108.21 91.75,107.13 91.5,106.04 91.38,105.5 91.25,104.96 91.11,104.42 90.97,103.89 90.85,103.33 90.59,102.86 L 90.64,102.82 C 90.98,103.28 91.14,103.83 91.35,104.35 91.54,104.88 91.71,105.41 91.88,105.94 92.2,107.01 92.48,108.09 92.77,109.17 93.31,111.34 93.73,113.53 94.17,115.72 95.05,120.09 95.87,124.47 96.64,128.86 L 96.58,128.87 Z M 96.58,128.87" />
        <path id="joe04Canvas-bezier77" stroke="none" fill="rgb(51, 91, 113)" d="M 91.97,101.96 C 91.84,101.88 91.63,101.92 91.46,101.93 91.28,101.96 91.1,101.99 90.92,102.03 90.57,102.12 90.22,102.21 89.87,102.32 89.18,102.54 88.49,102.79 87.83,103.08 87.16,103.38 86.54,103.73 85.9,104.05 85.25,104.38 84.63,104.72 83.99,105.11 L 83.96,105.07 C 84.39,104.45 84.99,103.97 85.62,103.57 86.26,103.17 86.96,102.91 87.66,102.67 88.37,102.42 89.08,102.22 89.8,102.06 90.16,101.98 90.53,101.92 90.9,101.87 91.08,101.85 91.26,101.83 91.45,101.82 91.63,101.83 91.83,101.79 92.01,101.92 L 91.97,101.96 Z M 91.97,101.96" />
        <path id="joe04Canvas-bezier78" stroke="none" fill="rgb(51, 91, 113)" d="M 90.98,100.73 C 90.57,99.06 90.11,97.39 89.64,95.73 89.16,94.07 88.66,92.42 88.12,90.79 87.57,89.16 86.95,87.55 86.33,85.96 86.02,85.16 85.68,84.37 85.31,83.6 84.93,82.84 84.53,82.08 83.96,81.43 L 83.99,81.39 C 84.69,81.93 85.2,82.68 85.65,83.42 86.11,84.17 86.48,84.95 86.84,85.74 87.54,87.34 88.05,89 88.54,90.66 89.53,93.97 90.35,97.33 91.03,100.72 L 90.98,100.73 Z M 90.98,100.73" />
        <path id="joe04Canvas-bezier79" stroke="none" fill="rgb(51, 91, 113)" d="M 68,96.84 C 67.99,97.15 67.97,97.47 67.92,97.78 67.89,97.94 67.85,98.1 67.77,98.25 67.69,98.39 67.58,98.58 67.32,98.61 67.23,98.62 67.08,98.55 67.01,98.49 66.93,98.43 66.88,98.36 66.82,98.28 66.72,98.13 66.66,97.97 66.61,97.82 66.51,97.5 66.46,97.17 66.44,96.84 66.43,96.52 66.44,96.17 66.52,95.84 66.56,95.67 66.61,95.5 66.71,95.33 66.81,95.18 66.97,94.95 67.32,94.93 L 67.36,94.93 67.36,94.94 67.37,94.94 67.38,94.94 67.41,94.95 C 67.43,94.95 67.5,94.97 67.53,94.99 67.61,95.02 67.66,95.06 67.7,95.1 67.79,95.18 67.83,95.27 67.88,95.36 67.96,95.53 67.98,95.7 68,95.87 68.04,96.21 68.01,96.52 68,96.84 Z M 67.95,96.84 C 67.94,96.53 67.85,96.22 67.72,95.95 67.65,95.82 67.57,95.69 67.48,95.6 67.44,95.55 67.4,95.51 67.36,95.49 67.35,95.48 67.33,95.48 67.34,95.48 67.34,95.49 67.36,95.49 67.34,95.49 L 67.32,95.48 67.3,95.48 67.29,95.48 67.29,95.48 67.29,95.48 C 67.3,95.48 67.25,95.48 67.32,95.49 67.34,95.48 67.27,95.52 67.21,95.63 67.15,95.72 67.09,95.85 67.05,95.98 66.95,96.25 66.91,96.54 66.89,96.84 66.88,97.13 66.89,97.43 66.96,97.72 67.01,97.99 67.16,98.31 67.32,98.33 67.39,98.34 67.51,98.26 67.59,98.14 67.68,98.03 67.75,97.89 67.8,97.75 67.91,97.46 67.96,97.15 67.95,96.84 Z M 67.95,96.84" />
        <path id="joe04Canvas-bezier80" stroke="none" fill="rgb(51, 91, 113)" d="M 67.67,120.97 C 67.64,121.28 67.6,121.59 67.53,121.9 67.49,122.06 67.44,122.21 67.36,122.36 67.27,122.5 67.14,122.68 66.88,122.69 66.79,122.69 66.64,122.62 66.58,122.56 66.5,122.49 66.46,122.41 66.41,122.34 66.32,122.18 66.26,122.02 66.22,121.86 66.14,121.53 66.11,121.21 66.12,120.87 66.12,120.55 66.16,120.21 66.25,119.88 66.3,119.71 66.37,119.55 66.48,119.38 66.6,119.24 66.73,119.01 67.14,119.03 L 67.2,119.04 C 67.22,119.05 67.28,119.07 67.32,119.09 67.4,119.13 67.44,119.17 67.48,119.21 67.56,119.3 67.6,119.39 67.64,119.48 67.71,119.66 67.72,119.83 67.73,120 67.75,120.34 67.7,120.65 67.67,120.97 Z M 67.62,120.96 C 67.63,120.65 67.56,120.34 67.44,120.06 67.34,119.79 67.11,119.52 67.04,119.57 67.13,119.58 67,119.61 66.95,119.71 66.89,119.8 66.82,119.93 66.77,120.06 66.66,120.32 66.6,120.59 66.56,120.9 66.53,121.19 66.53,121.49 66.58,121.78 66.61,122.05 66.74,122.39 66.9,122.41 66.98,122.43 67.1,122.36 67.19,122.24 67.28,122.14 67.36,122 67.42,121.86 67.55,121.58 67.61,121.27 67.62,120.96 Z M 67.62,120.96" />
        <path id="joe04Canvas-bezier81" stroke="none" fill="rgb(51, 91, 113)" d="M 64.79,142.69 C 64.75,143 64.7,143.31 64.62,143.62 64.57,143.77 64.52,143.93 64.43,144.07 64.34,144.21 64.2,144.38 63.95,144.38 63.85,144.38 63.71,144.31 63.65,144.24 63.57,144.17 63.53,144.09 63.48,144.01 63.4,143.85 63.35,143.69 63.31,143.53 63.24,143.2 63.23,142.87 63.24,142.54 63.26,142.22 63.31,141.88 63.41,141.55 63.47,141.39 63.54,141.22 63.65,141.06 63.77,140.92 63.95,140.71 64.3,140.72 L 64.34,140.73 64.34,140.73 64.35,140.73 64.36,140.74 64.39,140.75 C 64.41,140.75 64.47,140.78 64.5,140.8 64.58,140.84 64.62,140.88 64.66,140.93 64.74,141.02 64.78,141.11 64.81,141.2 64.87,141.38 64.88,141.56 64.89,141.73 64.89,142.06 64.83,142.38 64.79,142.69 Z M 64.74,142.68 C 64.76,142.37 64.7,142.06 64.59,141.78 64.54,141.64 64.47,141.5 64.4,141.4 64.36,141.35 64.32,141.31 64.29,141.29 64.28,141.28 64.25,141.27 64.26,141.28 64.26,141.28 64.29,141.28 64.27,141.28 L 64.24,141.27 64.23,141.27 64.22,141.27 64.21,141.27 64.21,141.27 C 64.23,141.27 64.18,141.27 64.24,141.28 64.26,141.27 64.19,141.31 64.12,141.41 64.05,141.5 63.98,141.62 63.93,141.75 63.81,142 63.73,142.28 63.68,142.58 63.64,142.87 63.63,143.17 63.67,143.46 63.69,143.74 63.81,144.07 63.97,144.11 64.04,144.13 64.17,144.06 64.26,143.95 64.36,143.84 64.44,143.71 64.51,143.58 64.65,143.3 64.72,142.99 64.74,142.68 Z M 64.74,142.68" />
        <path id="joe04Canvas-bezier82" stroke="none" fill="rgb(51, 91, 113)" d="M 62.48,166.03 C 62.46,166.34 62.44,166.65 62.39,166.97 62.36,167.13 62.32,167.29 62.24,167.44 62.16,167.58 62.06,167.77 61.78,167.79 61.74,167.79 61.7,167.79 61.63,167.76 61.56,167.74 61.52,167.71 61.48,167.68 61.4,167.62 61.35,167.54 61.3,167.47 61.2,167.32 61.13,167.16 61.08,167 60.98,166.68 60.93,166.36 60.91,166.02 60.9,165.71 60.92,165.36 60.99,165.02 61.03,164.86 61.08,164.69 61.18,164.52 61.3,164.36 61.41,164.13 61.83,164.12 L 61.89,164.13 C 61.91,164.14 61.97,164.16 62.01,164.17 62.09,164.21 62.13,164.25 62.17,164.29 62.26,164.37 62.31,164.46 62.35,164.55 62.43,164.72 62.46,164.89 62.48,165.06 62.51,165.39 62.48,165.71 62.48,166.03 Z M 62.42,166.03 C 62.41,165.72 62.32,165.41 62.19,165.14 62.07,164.88 61.83,164.61 61.76,164.67 61.85,164.67 61.72,164.71 61.68,164.81 61.62,164.91 61.56,165.04 61.52,165.17 61.43,165.44 61.38,165.72 61.36,166.03 61.35,166.32 61.37,166.62 61.43,166.91 61.49,167.17 61.62,167.5 61.81,167.52 61.85,167.53 61.99,167.45 62.06,167.33 62.15,167.22 62.22,167.08 62.28,166.94 62.39,166.65 62.43,166.34 62.42,166.03 Z M 62.42,166.03" />
    </g>
</svg>
