<?xml version="1.0" encoding="UTF-8"?>
<!DOCTYPE svg PUBLIC "-//W3C//DTD SVG 1.1//EN" "http://www.w3.org/Graphics/SVG/1.1/DTD/svg11.dtd">
<svg version="1.1" xmlns="http://www.w3.org/2000/svg" xmlns:xlink="http://www.w3.org/1999/xlink" width="104" height="378"  xml:space="preserve" id="joe06Canvas">
    <!-- Generated by PaintCode - http://www.paintcodeapp.com -->
    <g id="joe06Canvas-lines">
        <g id="joe06Canvas-group2">
            <path id="joe06Canvas-bezier" stroke="none" fill="rgb(51, 91, 113)" d="M 60.8,15.42 C 60.58,15.24 60.27,15.36 60.02,15.48 59.77,15.6 59.53,15.77 59.3,15.94 58.84,16.28 58.4,16.65 57.95,17.02 57.06,17.75 56.2,18.55 55.09,19 54.81,19.1 54.49,19.17 54.17,19.08 53.85,19 53.61,18.73 53.47,18.46 53.34,18.22 53.18,18 52.96,17.86 52.75,17.71 52.49,17.68 52.22,17.72 51.69,17.81 51.17,18.08 50.65,18.31 50.12,18.55 49.58,18.79 49.02,18.96 47.9,19.33 46.66,19.4 45.5,19.19 44.96,19.12 44.41,19.18 43.93,19.41 43.45,19.64 43.05,20.03 42.72,20.47 42.39,20.92 42.13,21.41 41.88,21.93 41.62,22.44 41.42,22.97 41.06,23.49 40.96,23.62 40.85,23.76 40.66,23.87 40.46,23.98 40.16,23.95 40,23.84 39.66,23.64 39.5,23.37 39.33,23.12 39.17,22.88 39.01,22.66 38.84,22.49 38.75,22.41 38.66,22.36 38.64,22.37 38.65,22.36 38.59,22.38 38.52,22.48 38.25,22.87 38.04,23.47 37.73,23.97 37.41,24.49 36.98,25 36.38,25.29 35.78,25.58 35.08,25.6 34.5,25.51 34.24,25.49 33.95,25.48 33.78,25.53 33.75,25.54 33.73,25.56 33.73,25.55 33.74,25.55 33.75,25.52 33.75,25.54 33.74,25.56 33.77,25.67 33.82,25.78 34.04,26.23 34.4,26.72 34.69,27.22 34.98,27.74 35.31,28.29 35.33,29.01 35.33,29.37 35.2,29.75 34.97,30.04 34.74,30.32 34.45,30.51 34.17,30.66 33.67,30.89 33.26,31.2 33.18,31.59 33.08,31.99 33.3,32.52 33.55,33 33.81,33.51 34.13,34 34.32,34.62 34.4,34.93 34.44,35.31 34.29,35.66 34.15,36.01 33.88,36.25 33.61,36.42 33.13,36.67 33.01,37.07 33.16,37.6 33.48,38.61 34.25,39.53 34.91,40.46 35.25,40.93 35.59,41.4 35.88,41.91 36.02,42.16 36.15,42.43 36.22,42.73 36.24,42.87 36.25,43.03 36.2,43.18 36.15,43.33 36.04,43.45 35.91,43.53 L 35.87,43.47 C 36.12,43.31 36.17,43.02 36.08,42.76 36.01,42.49 35.86,42.24 35.71,42.01 35.4,41.54 35.02,41.1 34.66,40.65 33.94,39.75 33.13,38.91 32.68,37.74 32.59,37.44 32.53,37.09 32.64,36.73 32.69,36.56 32.79,36.39 32.91,36.26 32.97,36.2 33.04,36.14 33.11,36.08 L 33.3,35.95 C 33.75,35.67 33.9,35.28 33.73,34.79 33.58,34.31 33.26,33.83 32.97,33.31 32.71,32.8 32.36,32.21 32.49,31.45 32.56,31.08 32.78,30.76 33.03,30.53 33.27,30.31 33.59,30.13 33.84,30.01 34.31,29.78 34.6,29.45 34.59,29.01 34.58,28.57 34.35,28.06 34.07,27.58 33.79,27.09 33.45,26.65 33.18,26.06 33.12,25.9 33.04,25.74 33.06,25.47 33.07,25.34 33.14,25.17 33.25,25.07 33.36,24.96 33.47,24.92 33.58,24.88 33.97,24.78 34.27,24.83 34.58,24.86 35.14,24.94 35.65,24.92 36.11,24.71 36.56,24.51 36.93,24.12 37.21,23.66 37.52,23.2 37.69,22.68 38.08,22.13 38.18,22 38.36,21.8 38.67,21.81 38.95,21.84 39.1,21.98 39.22,22.09 39.46,22.33 39.63,22.59 39.78,22.83 39.93,23.06 40.1,23.29 40.26,23.39 40.34,23.43 40.36,23.43 40.42,23.4 40.49,23.38 40.57,23.29 40.65,23.19 41.23,22.31 41.62,21.13 42.35,20.19 42.72,19.72 43.17,19.28 43.75,19.02 44.31,18.75 44.96,18.69 45.56,18.79 46.69,19.01 47.82,18.95 48.91,18.62 49.46,18.47 49.99,18.25 50.52,18.02 51.05,17.8 51.57,17.53 52.19,17.44 52.49,17.39 52.85,17.44 53.11,17.63 53.38,17.82 53.56,18.09 53.69,18.34 53.81,18.59 53.99,18.79 54.24,18.86 54.48,18.93 54.76,18.89 55.02,18.8 56.07,18.4 56.96,17.62 57.87,16.91 58.32,16.55 58.76,16.18 59.24,15.85 59.47,15.68 59.72,15.52 59.98,15.39 60.23,15.28 60.58,15.15 60.84,15.36 L 60.8,15.42 Z M 60.8,15.42" />
            <path id="joe06Canvas-bezier2" stroke="none" fill="rgb(51, 91, 113)" d="M 63.75,16.68 C 63.95,16.5 64.16,16.32 64.42,16.2 64.55,16.15 64.72,16.11 64.87,16.2 65.01,16.29 65.07,16.43 65.12,16.56 65.29,17.1 65.31,17.65 65.43,18.17 65.54,18.69 65.7,19.22 66.07,19.55 66.44,19.9 66.96,19.93 67.49,19.86 67.78,19.85 68.09,19.84 68.4,20.02 68.73,20.22 68.8,20.64 68.77,20.92 68.73,21.51 68.54,22.02 68.44,22.54 68.33,23.05 68.28,23.59 68.54,23.92 68.78,24.25 69.31,24.37 69.81,24.41 70.36,24.43 71.01,24.58 71.5,24.94 72.01,25.3 72.37,25.82 72.6,26.35 73.06,27.44 73.14,28.57 73.22,29.64 73.25,30.18 73.27,30.73 73.37,31.21 73.41,31.45 73.52,31.67 73.59,31.69 73.6,31.7 73.63,31.7 73.71,31.71 73.77,31.71 73.87,31.73 73.97,31.76 74.15,31.82 74.31,31.95 74.41,32.09 74.62,32.38 74.67,32.69 74.7,32.97 74.72,33.26 74.7,33.54 74.67,33.82 74.59,34.37 74.47,34.91 74.28,35.42 L 74.21,35.41 C 74.29,34.87 74.35,34.33 74.35,33.8 74.35,33.29 74.3,32.7 74.03,32.4 73.96,32.33 73.89,32.29 73.81,32.27 73.78,32.27 73.75,32.25 73.67,32.25 73.62,32.25 73.51,32.25 73.39,32.21 73.16,32.13 73.03,31.95 72.95,31.8 72.86,31.65 72.81,31.5 72.77,31.36 72.62,30.79 72.58,30.24 72.52,29.7 72.41,28.63 72.31,27.56 71.95,26.62 71.77,26.16 71.5,25.74 71.13,25.45 70.74,25.16 70.29,25.01 69.76,24.97 69.21,24.9 68.54,24.78 68.12,24.21 67.73,23.62 67.87,22.97 67.99,22.44 68.11,21.9 68.31,21.38 68.36,20.89 68.39,20.65 68.35,20.44 68.19,20.34 68.03,20.23 67.76,20.21 67.51,20.21 66.99,20.26 66.3,20.21 65.87,19.76 65.44,19.32 65.31,18.74 65.22,18.21 65.13,17.67 65.13,17.11 64.99,16.61 64.95,16.49 64.89,16.37 64.8,16.31 64.71,16.24 64.58,16.26 64.46,16.3 64.22,16.4 64,16.56 63.79,16.74 L 63.75,16.68 Z M 63.75,16.68" />
            <path id="joe06Canvas-bezier3" stroke="none" fill="rgb(51, 91, 113)" d="M 76.93,30.86 C 77.04,31.99 77.17,33.11 77.32,34.24 77.46,35.36 77.6,36.48 77.82,37.57 77.88,37.85 77.94,38.11 78.02,38.37 78.11,38.65 78.18,38.96 78.21,39.26 78.28,39.86 78.22,40.49 77.98,41.08 77.74,41.66 77.28,42.2 76.7,42.45 76.12,42.71 75.5,42.74 74.93,42.63 L 74.93,42.56 C 75.49,42.47 76.03,42.32 76.45,42.02 76.87,41.73 77.16,41.31 77.32,40.83 77.48,40.36 77.53,39.84 77.51,39.31 77.5,39.05 77.47,38.8 77.41,38.53 77.34,38.25 77.3,37.95 77.26,37.67 76.97,35.4 76.91,33.14 76.86,30.87 L 76.93,30.86 Z M 76.93,30.86" />
            <path id="joe06Canvas-bezier4" stroke="none" fill="rgb(51, 91, 113)" d="M 74.28,40.3 L 74.86,46.23 C 74.94,47.21 75.16,48.21 75.02,49.22 74.92,50.22 74.67,51.2 74.39,52.16 73.25,55.99 71.56,59.61 70.15,63.32 69.79,64.24 69.45,65.17 69.19,66.11 68.93,67.05 68.74,68.05 68.4,69.01 68.07,69.96 67.6,70.95 66.77,71.66 65.94,72.37 64.91,72.73 63.92,72.96 62.92,73.19 61.91,73.31 60.91,73.4 59.92,73.5 58.92,73.61 57.91,73.67 56.91,73.71 55.85,73.75 54.81,73.36 53.77,72.97 53.06,72.09 52.53,71.25 L 52.54,71.27 C 50.98,69.23 49.44,67.18 47.92,65.12 L 47.98,65.07 C 49.66,67.01 51.31,68.97 52.96,70.94 L 52.96,70.94 52.97,70.96 C 53.52,71.75 54.17,72.5 55.03,72.79 55.9,73.09 56.89,73.04 57.87,72.97 58.85,72.9 59.84,72.78 60.84,72.68 61.83,72.57 62.81,72.48 63.76,72.27 64.71,72.06 65.63,71.75 66.33,71.16 67.05,70.57 67.5,69.71 67.83,68.81 68.17,67.89 68.38,66.94 68.65,65.96 68.95,64.99 69.3,64.06 69.67,63.13 71.16,59.43 72.88,55.84 74.09,52.07 74.39,51.13 74.64,50.17 74.77,49.2 74.92,48.23 74.73,47.24 74.67,46.25 L 74.21,40.3 74.28,40.3 Z M 74.28,40.3" />
            <path id="joe06Canvas-bezier5" stroke="none" fill="rgb(51, 91, 113)" d="M 43.71,58.52 C 43.7,59.33 43.59,60.14 43.36,60.93 43.24,61.33 43.15,61.76 42.87,62.1 42.6,62.43 42.22,62.74 41.76,62.79 L 41.72,62.73 C 41.95,62.36 42.11,62.05 42.27,61.72 42.42,61.38 42.66,61.09 42.83,60.73 43.16,60.03 43.43,59.28 43.64,58.51 L 43.71,58.52 Z M 43.71,58.52" />
            <g id="joe06Canvas-group3">
                <path id="joe06Canvas-bezier6" stroke="none" fill="rgb(51, 91, 113)" d="M 46.72,69.34 C 47.6,70.13 48.38,71.03 49.06,72.01 49.71,73 50.25,74.09 50.57,75.27 50.88,76.43 50.99,77.71 50.63,78.91 50.28,80.1 49.59,81.15 48.69,81.94 L 48.63,81.89 C 49.23,80.87 49.72,79.83 49.95,78.74 50.18,77.65 50.24,76.51 50.02,75.39 49.79,74.28 49.34,73.2 48.76,72.2 48.18,71.19 47.48,70.24 46.67,69.39 L 46.72,69.34 Z M 46.72,69.34" />
                <path id="joe06Canvas-bezier7" stroke="none" fill="rgb(51, 91, 113)" d="M 47.57,83.47 C 46.82,84.94 46.41,86.55 45.97,88.14 45.56,89.73 45.21,91.34 44.88,92.96 44.23,96.19 43.68,99.45 43.21,102.71 42.74,105.97 42.34,109.25 42.06,112.53 41.91,114.17 41.84,115.8 41.75,117.46 41.64,119.12 41.47,120.76 41.26,122.41 40.41,128.97 38.99,135.46 36.93,141.76 35.86,144.9 34.64,147.99 33.12,150.94 31.61,153.88 29.81,156.72 27.49,159.09 L 27.44,159.05 C 28.53,157.81 29.48,156.46 30.34,155.06 31.21,153.66 31.98,152.21 32.68,150.72 34.09,147.75 35.27,144.68 36.26,141.54 37.29,138.42 38.15,135.24 38.87,132.03 39.62,128.83 40.24,125.59 40.7,122.33 40.93,120.7 41.12,119.07 41.24,117.43 41.35,115.8 41.44,114.13 41.61,112.49 41.92,109.2 42.36,105.92 42.87,102.66 43.38,99.4 43.98,96.15 44.68,92.92 45.03,91.3 45.4,89.7 45.84,88.1 46.3,86.52 46.73,84.91 47.51,83.44 L 47.57,83.47 Z M 47.57,83.47" />
                <path id="joe06Canvas-bezier8" stroke="none" fill="rgb(51, 91, 113)" d="M 26.02,160.15 C 24.87,160.75 23.59,161.16 22.24,161.23 21.58,161.26 20.86,161.26 20.22,160.97 19.58,160.69 19.01,160.22 18.7,159.61 L 18.75,159.57 C 19.33,159.89 19.88,160.15 20.46,160.31 21.03,160.47 21.62,160.64 22.24,160.67 22.86,160.71 23.5,160.66 24.13,160.55 24.76,160.45 25.39,160.3 25.99,160.08 L 26.02,160.15 Z M 26.02,160.15" />
                <path id="joe06Canvas-bezier9" stroke="none" fill="rgb(51, 91, 113)" d="M 16.98,159.72 C 15.5,158.78 14.22,157.57 13.08,156.24 11.96,154.9 11.01,153.41 10.25,151.82 9.5,150.24 8.9,148.55 8.64,146.81 8.39,145.07 8.35,143.3 8.62,141.57 L 8.69,141.57 C 8.82,143.31 8.97,145.02 9.33,146.69 9.68,148.36 10.1,150.02 10.77,151.6 11.44,153.17 12.31,154.66 13.36,156.02 14.4,157.39 15.61,158.65 17.01,159.66 L 16.98,159.72 Z M 16.98,159.72" />
                <path id="joe06Canvas-bezier10" stroke="none" fill="rgb(51, 91, 113)" d="M 9.56,138.58 C 11.05,134.27 13.1,130.14 15.75,126.4 17.08,124.54 18.59,122.78 20.31,121.25 20.73,120.87 21.19,120.5 21.63,120.15 22.07,119.81 22.48,119.42 22.86,119.01 23.63,118.2 24.3,117.29 24.9,116.34 26.09,114.42 27.02,112.35 27.81,110.23 28.61,108.11 29.28,105.94 29.88,103.76 30.5,101.57 31.01,99.36 31.49,97.13 31.73,96.02 31.95,94.9 32.15,93.78 32.36,92.67 32.57,91.54 32.7,90.42 L 32.77,90.42 C 32.49,94.98 31.66,99.49 30.56,103.94 29.4,108.35 27.86,112.74 25.37,116.64 24.74,117.6 24.04,118.53 23.23,119.37 22.83,119.78 22.39,120.18 21.93,120.53 21.47,120.88 21.04,121.22 20.61,121.59 18.89,123.07 17.38,124.78 16.03,126.6 13.33,130.26 11.2,134.33 9.63,138.6 L 9.56,138.58 Z M 9.56,138.58" />
                <path id="joe06Canvas-bezier11" stroke="none" fill="rgb(51, 91, 113)" d="M 32.57,88.21 C 32.75,87.29 33.01,86.38 33.42,85.52 33.62,85.1 33.87,84.68 34.21,84.33 34.29,84.24 34.39,84.16 34.47,84.08 34.53,84.01 34.59,83.92 34.64,83.83 34.74,83.64 34.8,83.42 34.85,83.2 35.01,82.31 34.93,81.37 34.81,80.46 34.68,79.55 34.47,78.64 34.2,77.76 33.92,76.88 33.58,76.01 33.16,75.21 32.94,74.8 32.71,74.42 32.44,74.04 32.17,73.64 31.92,73.24 31.68,72.83 30.72,71.19 29.98,69.44 29.46,67.6 L 29.47,67.62 C 29.33,67.18 29.25,66.77 29.21,66.33 29.18,65.9 29.19,65.46 29.28,65.03 29.36,64.6 29.53,64.17 29.79,63.82 30.05,63.47 30.4,63.19 30.78,63.01 L 30.81,63.07 C 30.48,63.31 30.19,63.61 30.01,63.96 29.82,64.31 29.71,64.7 29.67,65.09 29.63,65.48 29.66,65.88 29.73,66.27 29.79,66.66 29.89,67.06 30.03,67.41 L 30.02,67.4 30.04,67.43 C 30.65,69.16 31.41,70.87 32.27,72.5 32.49,72.9 32.72,73.3 32.96,73.69 33.22,74.09 33.47,74.52 33.67,74.95 34.08,75.81 34.41,76.71 34.66,77.62 34.91,78.54 35.1,79.47 35.21,80.41 35.31,81.35 35.35,82.31 35.14,83.26 35.08,83.5 35,83.74 34.88,83.96 34.81,84.07 34.74,84.17 34.64,84.27 34.55,84.35 34.46,84.42 34.38,84.5 34.06,84.81 33.8,85.2 33.58,85.6 33.15,86.42 32.85,87.32 32.64,88.22 L 32.57,88.21 Z M 32.57,88.21" />
                <path id="joe06Canvas-bezier12" stroke="none" fill="rgb(51, 91, 113)" d="M 31.1,62.05 C 31.77,59.9 32.45,57.76 33.23,55.64 33.42,55.12 33.63,54.59 33.86,54.07 33.99,53.81 34.1,53.56 34.29,53.29 34.5,53.04 34.7,52.87 34.91,52.67 35.73,51.89 36.57,51.15 37.42,50.4 39.12,48.92 40.81,47.43 42.67,46.13 43.61,45.5 44.52,44.83 45.64,44.4 45.79,44.35 45.94,44.31 46.13,44.3 46.17,44.3 46.23,44.31 46.28,44.32 46.34,44.33 46.42,44.36 46.44,44.38 46.49,44.41 46.57,44.46 46.63,44.5 46.89,44.69 47.09,44.93 47.23,45.19 47.51,45.72 47.64,46.3 47.64,46.87 L 47.57,46.87 C 47.46,46.33 47.28,45.79 46.96,45.36 46.81,45.15 46.62,44.97 46.41,44.84 46.36,44.81 46.31,44.79 46.24,44.76 46.2,44.74 46.21,44.75 46.2,44.75 46.18,44.75 46.17,44.74 46.14,44.75 46.05,44.76 45.93,44.8 45.82,44.86 44.87,45.33 43.96,46.02 43.08,46.69 41.31,48.05 39.52,49.41 37.78,50.83 36.92,51.54 36.06,52.26 35.21,53 35.01,53.19 34.78,53.39 34.63,53.55 34.48,53.74 34.35,54 34.23,54.24 33.99,54.74 33.77,55.25 33.55,55.77 32.7,57.84 31.92,59.95 31.17,62.07 L 31.1,62.05 Z M 31.1,62.05" />
                <path id="joe06Canvas-bezier13" stroke="none" fill="rgb(51, 91, 113)" d="M 32.73,64.38 C 33.07,64.08 33.25,63.6 33.46,63.18 33.66,62.74 33.85,62.3 34.03,61.85 34.38,60.96 34.71,60.05 35.01,59.14 35.32,58.23 35.61,57.31 35.83,56.39 35.89,56.16 35.92,55.92 36.02,55.66 36.12,55.42 36.24,55.2 36.38,54.98 36.66,54.56 36.99,54.2 37.33,53.85 38.72,52.48 40.16,51.22 41.37,49.74 41.96,49.01 42.57,48.2 43.31,47.54 43.68,47.2 44.07,46.87 44.55,46.63 44.79,46.51 45.05,46.41 45.35,46.37 45.65,46.35 45.96,46.31 46.34,46.62 L 46.26,46.56 C 47.02,47.07 47.16,47.99 46.99,48.69 46.82,49.41 46.45,50.01 46.04,50.55 45.19,51.62 44.17,52.49 43.09,53.26 L 43.05,53.21 C 43.99,52.28 44.92,51.33 45.63,50.26 45.97,49.72 46.29,49.15 46.39,48.57 46.44,48.28 46.43,47.99 46.35,47.75 46.27,47.5 46.07,47.27 45.91,47.17 L 45.88,47.15 45.84,47.11 C 45.86,47.13 45.76,47.07 45.7,47.07 45.63,47.06 45.54,47.06 45.45,47.08 45.27,47.1 45.07,47.18 44.88,47.28 44.5,47.48 44.13,47.76 43.79,48.06 43.08,48.68 42.49,49.4 41.84,50.14 40.55,51.61 39.05,52.87 37.66,54.17 36.97,54.84 36.34,55.53 36.2,56.48 35.94,57.42 35.61,58.33 35.28,59.23 34.94,60.14 34.58,61.03 34.19,61.92 34,62.36 33.79,62.8 33.58,63.23 33.47,63.45 33.35,63.66 33.23,63.87 33.1,64.07 32.98,64.29 32.76,64.44 L 32.73,64.38 Z M 32.73,64.38" />
                <path id="joe06Canvas-bezier14" stroke="none" fill="rgb(51, 91, 113)" d="M 42.58,53.46 C 42.53,54.22 42.37,54.97 42.11,55.7 41.98,56.06 41.88,56.45 41.63,56.75 41.38,57.06 41.08,57.33 40.69,57.48 L 40.64,57.44 C 40.74,57.03 40.88,56.71 41.03,56.38 41.18,56.05 41.42,55.78 41.6,55.46 41.95,54.83 42.26,54.16 42.51,53.45 L 42.58,53.46 Z M 42.58,53.46" />
                <path id="joe06Canvas-bezier15" stroke="none" fill="rgb(51, 91, 113)" d="M 40.91,61.07 C 40.99,61.17 41.09,61.25 41.2,61.27 41.3,61.28 41.38,61.23 41.45,61.14 41.59,60.96 41.66,60.71 41.71,60.47 41.83,59.96 41.97,59.45 42.11,58.95 42.25,58.44 42.34,57.92 42.56,57.45 42.74,56.98 43.04,56.5 43.21,56.08 L 43.26,56.03 C 43.44,56.34 43.37,56.61 43.36,56.88 43.34,57.16 43.28,57.42 43.22,57.67 43.1,58.19 42.84,58.65 42.64,59.13 42.44,59.61 42.23,60.09 42.05,60.58 41.94,60.82 41.82,61.08 41.6,61.29 41.5,61.39 41.31,61.46 41.16,61.4 41.01,61.34 40.92,61.23 40.85,61.11 L 40.91,61.07 Z M 40.91,61.07" />
                <path id="joe06Canvas-bezier16" stroke="none" fill="rgb(51, 91, 113)" d="M 43.19,55.68 L 44.58,53.55 C 44.81,53.2 44.98,52.81 45.25,52.49 45.51,52.17 45.82,51.89 46.08,51.57 L 46.15,51.57 C 46.22,51.82 46.16,52.06 46.1,52.27 46.03,52.49 45.94,52.69 45.84,52.88 45.64,53.27 45.31,53.57 45.03,53.89 44.46,54.53 43.87,55.14 43.24,55.73 L 43.19,55.68 Z M 43.19,55.68" />
                <path id="joe06Canvas-bezier17" stroke="none" fill="rgb(51, 91, 113)" d="M 41.49,62.38 C 41.76,62.82 41.98,63.27 42.16,63.76 42.32,64.25 42.47,64.77 42.34,65.37 42.3,65.65 42.06,65.99 41.83,66.16 41.61,66.32 41.5,66.44 41.32,66.59 41,66.89 40.72,67.24 40.46,67.69 L 40.39,67.69 C 40.26,67.15 40.46,66.57 40.8,66.12 40.96,65.91 41.23,65.69 41.43,65.58 41.63,65.49 41.72,65.4 41.8,65.2 41.95,64.83 41.91,64.32 41.82,63.85 41.74,63.37 41.61,62.88 41.43,62.42 L 41.49,62.38 Z M 41.49,62.38" />
                <path id="joe06Canvas-bezier18" stroke="none" fill="rgb(51, 91, 113)" d="M 46.4,68.57 C 46.82,67.5 47.1,66.35 47.03,65.23 47,64.67 46.86,64.15 46.55,63.69 46.25,63.22 45.9,62.78 45.49,62.41 45.29,62.23 45.07,62.08 44.85,61.97 44.63,61.86 44.4,61.83 44.28,61.9 44.16,61.95 44.04,62.11 43.97,62.34 L 43.7,63.16 C 43.3,64.25 42.85,65.32 42.29,66.35 L 42.22,66.33 C 42.42,65.17 42.72,64.05 43.03,62.94 L 43.28,62.11 C 43.38,61.8 43.6,61.41 44.03,61.25 44.47,61.11 44.86,61.26 45.14,61.42 45.43,61.58 45.66,61.79 45.88,62.01 46.31,62.45 46.65,62.94 46.94,63.47 47.25,63.99 47.39,64.63 47.38,65.23 47.36,66.43 46.97,67.56 46.46,68.6 L 46.4,68.57 Z M 46.4,68.57" />
                <path id="joe06Canvas-bezier19" stroke="none" fill="rgb(51, 91, 113)" d="M 43.09,70.49 C 43.68,71.43 44.31,72.34 45,73.19 45.17,73.4 45.35,73.61 45.53,73.81 45.71,74.01 45.92,74.18 46.1,74.45 46.44,74.94 46.64,75.49 46.79,76.04 47.08,77.15 47.17,78.34 46.86,79.47 46.55,80.59 45.84,81.65 44.82,82.18 L 44.78,82.12 C 45.53,81.3 45.98,80.33 46.17,79.3 46.37,78.29 46.44,77.21 46.24,76.17 46.14,75.65 45.98,75.13 45.72,74.69 45.61,74.49 45.4,74.29 45.23,74.07 45.05,73.85 44.88,73.62 44.72,73.39 44.09,72.47 43.54,71.51 43.03,70.53 L 43.09,70.49 Z M 43.09,70.49" />
            </g>
            <path id="joe06Canvas-bezier20" stroke="none" fill="rgb(51, 91, 113)" d="M 75.97,68.31 C 76.22,68.54 76.46,68.79 76.65,69.07 76.84,69.36 77.02,69.7 76.96,70.1 76.93,70.3 76.81,70.49 76.67,70.62 76.51,70.75 76.38,70.82 76.3,70.93 76.1,71.15 75.95,71.44 75.82,71.73 75.3,72.93 75.17,74.28 74.86,75.55 L 74.62,76.52 74.22,75.66 C 73.88,74.92 73.56,74.17 73.34,73.37 L 73.4,73.34 C 73.94,73.97 74.4,74.64 74.82,75.33 L 74.18,75.44 C 74.25,74.75 74.42,74.1 74.64,73.45 74.85,72.8 75.08,72.15 75.4,71.53 75.57,71.23 75.75,70.92 76.02,70.66 76.17,70.51 76.34,70.43 76.45,70.36 76.56,70.27 76.64,70.17 76.68,70.04 76.76,69.77 76.65,69.45 76.5,69.16 76.35,68.88 76.15,68.61 75.92,68.36 L 75.97,68.31 Z M 75.97,68.31" />
            <path id="joe06Canvas-bezier21" stroke="none" fill="rgb(51, 91, 113)" d="M 75.66,45.93 C 76.6,45.86 77.56,46.01 78.46,46.35 79.35,46.71 80.16,47.31 80.75,48.09 80.91,48.29 81.04,48.49 81.17,48.7 81.29,48.9 81.4,49.08 81.53,49.27 81.78,49.63 82.04,49.99 82.34,50.21 82.49,50.33 82.64,50.4 82.86,50.48 83.07,50.55 83.36,50.65 83.56,50.84 83.97,51.22 84.13,51.69 84.25,52.15 L 84.19,52.18 C 83.9,51.81 83.61,51.42 83.27,51.24 83.1,51.15 82.93,51.12 82.69,51.07 82.46,51.03 82.17,50.94 81.94,50.79 81,50.17 80.74,49.12 80.29,48.42 79.34,46.92 77.51,46.07 75.67,46 L 75.66,45.93 Z M 75.66,45.93" />
            <path id="joe06Canvas-bezier22" stroke="none" fill="rgb(51, 91, 113)" d="M 83.23,49.04 C 83.4,49.26 83.68,49.41 83.92,49.58 84.16,49.75 84.4,49.93 84.63,50.12 85.1,50.49 85.54,50.91 85.91,51.37 86.29,51.84 86.61,52.36 86.85,52.92 87.08,53.48 87.24,54.03 87.45,54.59 88.25,56.82 88.97,59.11 89.26,61.49 89.41,62.68 89.47,63.88 89.4,65.08 89.33,66.28 89.16,67.46 88.95,68.63 88.48,70.96 87.91,73.27 87.1,75.5 L 87.03,75.49 C 87.44,73.15 87.91,70.84 88.25,68.51 88.6,66.19 88.95,63.88 88.7,61.55 88.49,59.22 87.84,56.95 87.12,54.7 86.93,54.15 86.78,53.56 86.59,53.02 86.38,52.48 86.1,51.97 85.75,51.5 85.4,51.03 84.99,50.61 84.54,50.23 84.32,50.03 84.09,49.85 83.85,49.67 83.63,49.48 83.36,49.33 83.17,49.08 L 83.23,49.04 Z M 83.23,49.04" />
            <path id="joe06Canvas-bezier23" stroke="none" fill="rgb(51, 91, 113)" d="M 84.66,62.26 C 84.95,62.7 85.06,63.24 85.13,63.75 85.19,64.27 85.2,64.79 85.18,65.32 85.16,66.36 85.05,67.4 84.93,68.43 84.69,70.49 84.34,72.55 84.24,74.61 84.18,75.63 84.36,76.65 84.45,77.69 84.55,78.73 84.64,79.77 84.69,80.81 84.78,82.89 84.75,85 84.38,87.08 84.02,89.14 83.33,91.27 81.76,92.85 80.22,94.2 79.43,96.11 79.25,98.12 79.13,99.13 79.14,100.15 79.17,101.19 79.18,101.71 79.2,102.24 79.15,102.78 79.12,103.06 79.09,103.34 78.93,103.64 78.86,103.79 78.67,103.94 78.59,104 L 78.28,104.23 73.39,108.13 73.34,108.08 C 74.86,106.64 76.38,105.22 77.97,103.85 78.15,103.67 78.42,103.51 78.46,103.39 78.54,103.22 78.58,102.98 78.59,102.74 78.62,102.25 78.58,101.73 78.56,101.22 78.5,100.18 78.45,99.12 78.54,98.06 78.64,97 78.87,95.93 79.32,94.93 79.77,93.94 80.48,93.04 81.27,92.35 82.71,90.97 83.44,88.97 83.83,86.98 84.21,84.97 84.28,82.89 84.23,80.83 84.2,79.79 84.13,78.76 84.04,77.73 83.97,76.71 83.8,75.65 83.89,74.59 84.03,72.5 84.43,70.46 84.71,68.4 84.86,67.38 84.99,66.35 85.04,65.31 85.07,64.79 85.07,64.28 85.02,63.76 84.97,63.25 84.87,62.73 84.6,62.3 L 84.66,62.26 Z M 84.66,62.26" />
            <path id="joe06Canvas-bezier24" stroke="none" fill="rgb(51, 91, 113)" d="M 77.61,105.68 C 77.75,107.14 77.85,108.61 77.89,110.08 77.92,111.54 77.93,113.06 77.54,114.5 76.86,117.36 76.12,120.21 75.54,123.08 75.26,124.52 74.99,125.96 74.84,127.4 74.75,128.13 74.77,128.82 74.69,129.6 74.6,130.35 74.46,131.08 74.29,131.81 73.93,133.25 73.5,134.66 73.03,136.06 72.79,136.75 72.55,137.45 72.33,138.15 72.22,138.5 72.11,138.84 72.02,139.2 71.98,139.37 71.94,139.55 71.92,139.73 71.9,139.9 71.88,140.1 71.97,140.23 L 71.92,140.28 C 71.68,139.92 71.79,139.52 71.82,139.16 71.87,138.79 71.94,138.43 72.02,138.06 72.18,137.34 72.37,136.63 72.55,135.92 72.92,134.49 73.32,133.08 73.6,131.66 73.76,130.95 73.88,130.23 73.96,129.52 74.03,128.83 74.03,128.06 74.15,127.32 74.35,125.85 74.65,124.4 74.99,122.96 75.64,120.09 76.44,117.25 77.19,114.41 77.63,113.02 77.65,111.55 77.67,110.08 77.68,108.62 77.63,107.15 77.54,105.68 L 77.61,105.68 Z M 77.61,105.68" />
            <path id="joe06Canvas-bezier25" stroke="none" fill="rgb(51, 91, 113)" d="M 67.77,142.8 C 68.16,143.53 68.66,144.22 69.3,144.74 69.62,144.99 69.98,145.18 70.37,145.23 70.75,145.29 71.14,145.17 71.46,144.96 72.78,144.04 73.25,142.3 74.07,140.85 74.46,140.1 74.86,139.36 75.29,138.63 75.51,138.27 75.74,137.91 75.97,137.56 76.2,137.23 76.49,136.85 76.58,136.59 76.69,136.43 76.49,136.01 76.35,135.62 76.2,135.22 76.07,134.79 76.01,134.36 75.87,133.52 75.83,132.68 75.84,131.83 L 75.91,131.83 C 76.1,132.64 76.26,133.47 76.49,134.25 76.62,134.65 76.74,135.02 76.92,135.38 77,135.57 77.1,135.76 77.18,135.97 77.27,136.15 77.36,136.51 77.26,136.8 77.07,137.32 76.81,137.61 76.58,137.97 L 75.89,139 C 75.43,139.69 74.99,140.4 74.57,141.12 74.15,141.84 73.78,142.57 73.36,143.32 72.93,144.05 72.42,144.79 71.64,145.26 71.26,145.49 70.77,145.6 70.33,145.51 69.87,145.42 69.49,145.18 69.16,144.9 68.52,144.32 68.06,143.59 67.71,142.83 L 67.77,142.8 Z M 67.77,142.8" />
            <path id="joe06Canvas-bezier26" stroke="none" fill="rgb(51, 91, 113)" d="M 76.39,140.25 C 76.5,142.23 76.67,144.2 76.9,146.17 77.03,147.15 77.16,148.13 77.36,149.09 77.45,149.57 77.59,150.05 77.67,150.55 77.75,151.05 77.8,151.54 77.84,152.04 77.99,154.03 77.96,156.02 77.79,158.01 77.61,159.99 77.31,161.97 76.69,163.89 76.38,164.85 75.99,165.8 75.42,166.66 74.81,167.51 74.18,168.23 73.57,169.03 L 69.85,173.67 C 68.59,175.21 67.35,176.76 66.12,178.31 65.5,179.09 64.9,179.87 64.31,180.67 63.72,181.46 63.08,182.24 62.68,183.13 L 62.62,183.11 C 62.95,182.16 63.52,181.33 64.04,180.48 64.59,179.65 65.15,178.83 65.73,178.02 66.88,176.4 68.09,174.82 69.29,173.24 70.51,171.67 71.75,170.12 73.02,168.59 73.64,167.83 74.33,167.06 74.89,166.31 75.43,165.53 75.83,164.64 76.15,163.72 76.78,161.87 77.12,159.92 77.33,157.97 77.53,156.01 77.6,154.03 77.49,152.06 77.46,151.57 77.42,151.08 77.35,150.6 77.29,150.12 77.16,149.64 77.08,149.15 76.91,148.16 76.79,147.18 76.69,146.19 76.5,144.22 76.39,142.24 76.32,140.26 L 76.39,140.25 Z M 76.39,140.25" />
            <path id="joe06Canvas-bezier27" stroke="none" fill="rgb(51, 91, 113)" d="M 61.6,182.65 C 61.56,180.86 61.39,179.07 61.05,177.31 60.87,176.43 60.65,175.57 60.33,174.73 60.17,174.32 59.98,173.91 59.75,173.53 59.52,173.15 59.29,172.75 59.11,172.34 58.75,171.5 58.59,170.58 58.64,169.67 58.67,168.76 58.87,167.87 59.09,167 59.31,166.13 59.56,165.27 59.79,164.4 60.02,163.54 60.25,162.66 60.54,161.81 61.11,160.1 61.76,158.42 62.32,156.73 62.87,155.03 63.42,153.3 63.45,151.54 63.45,151.1 63.41,150.67 63.29,150.26 63.23,150.05 63.15,149.88 63.04,149.66 62.95,149.43 62.89,149.2 62.84,148.97 62.68,148.06 62.69,147.15 62.72,146.25 62.79,144.44 62.99,142.66 63.17,140.87 63.54,137.31 64.01,133.73 63.86,130.18 63.8,129.29 63.7,128.41 63.46,127.58 63.16,126.75 62.97,125.8 62.92,124.89 62.82,123.05 63.13,121.24 63.51,119.48 64.27,115.96 65.45,112.54 65.69,109 65.8,105.44 65.88,101.84 65.96,98.26 L 65.97,98.34 C 65.61,96.53 65.66,94.73 65.78,92.94 65.85,92.05 65.95,91.16 66.09,90.27 66.17,89.83 66.25,89.39 66.37,88.94 66.42,88.72 66.48,88.5 66.56,88.27 66.64,88.05 66.78,87.79 66.86,87.64 67.2,86.89 67.4,86.03 67.53,85.18 67.66,84.33 67.7,83.46 67.64,82.6 67.6,82.18 67.54,81.75 67.45,81.33 67.4,81.13 67.35,80.92 67.28,80.72 67.21,80.51 67.15,80.21 67.17,79.96 67.26,78.95 67.77,78.16 68.26,77.41 69.28,75.91 70.5,74.6 71.7,73.29 72.88,71.98 74.17,70.72 75.12,69.27 75.6,68.56 75.52,67.66 75.41,66.8 75.29,65.94 75.08,65.08 74.83,64.23 74.33,62.54 73.7,60.88 72.99,59.25 L 73.06,59.22 C 73.82,60.83 74.5,62.47 75.06,64.16 75.33,65.01 75.58,65.87 75.73,66.75 75.8,67.2 75.85,67.65 75.83,68.11 75.83,68.57 75.68,69.06 75.43,69.45 74.96,70.24 74.38,70.92 73.8,71.6 L 72.03,73.59 C 70.86,74.92 69.67,76.24 68.7,77.7 68.24,78.42 67.79,79.21 67.75,79.99 67.74,80.19 67.77,80.32 67.84,80.54 67.92,80.76 67.98,80.98 68.03,81.2 68.14,81.65 68.21,82.1 68.25,82.55 68.34,83.46 68.3,84.37 68.19,85.27 68.06,86.18 67.87,87.06 67.49,87.94 67.08,88.68 66.95,89.53 66.79,90.39 66.65,91.25 66.55,92.12 66.48,93 66.36,94.74 66.32,96.52 66.65,98.19 L 66.66,98.24 66.66,98.27 C 66.59,101.87 66.5,105.44 66.34,109.05 66.06,112.7 64.84,116.13 64.06,119.61 63.67,121.34 63.36,123.11 63.45,124.86 63.5,125.75 63.66,126.58 63.96,127.44 64.21,128.33 64.3,129.25 64.35,130.15 64.48,133.78 63.98,137.35 63.6,140.92 63.4,142.7 63.19,144.48 63.11,146.26 63.07,147.15 63.06,148.05 63.21,148.9 63.25,149.12 63.3,149.32 63.38,149.51 63.47,149.7 63.58,149.94 63.64,150.16 63.77,150.61 63.81,151.08 63.8,151.54 63.76,153.38 63.18,155.12 62.62,156.82 62.03,158.53 61.37,160.2 60.79,161.89 60.49,162.74 60.26,163.59 60.02,164.46 59.78,165.33 59.52,166.19 59.29,167.05 59.07,167.92 58.87,168.79 58.83,169.68 58.78,170.56 58.92,171.45 59.26,172.27 59.43,172.68 59.65,173.07 59.89,173.45 60.11,173.85 60.3,174.26 60.46,174.68 60.78,175.53 61,176.41 61.17,177.29 61.5,179.06 61.65,180.85 61.67,182.65 L 61.6,182.65 Z M 61.6,182.65" />
            <path id="joe06Canvas-bezier28" stroke="none" fill="rgb(51, 91, 113)" d="M 16.42,166.37 C 17.07,167.42 17.56,168.57 17.87,169.76 18.18,170.95 18.29,172.22 18.01,173.44 17.82,174.7 16.68,175.63 16.89,176.85 17.03,178.03 17.85,179.03 18.71,179.86 20.5,181.51 22.67,182.72 24.86,183.8 25.41,184.06 25.97,184.34 26.53,184.55 27.07,184.74 27.68,184.82 28.28,184.87 29.49,184.97 30.73,184.95 31.95,184.91 36.87,184.76 41.77,184.09 46.75,184.09 48,184.12 49.25,184.12 50.53,184.51 50.69,184.56 50.85,184.63 51,184.71 51.16,184.8 51.33,184.93 51.44,185.01 51.64,185.17 51.88,185.3 52.14,185.39 52.67,185.57 53.25,185.64 53.84,185.63 56.23,185.58 58.61,184.76 60.85,183.85 L 60.73,184.14 C 60.32,182.85 59.96,181.54 59.69,180.21 59.56,179.55 59.45,178.88 59.39,178.2 59.34,177.53 59.3,176.83 59.5,176.17 L 59.56,176.19 C 59.41,176.84 59.49,177.52 59.58,178.18 59.68,178.84 59.83,179.5 59.99,180.15 60.32,181.44 60.73,182.73 61.18,183.99 L 61.26,184.19 61.06,184.28 C 59.93,184.82 58.77,185.26 57.57,185.62 56.37,185.98 55.14,186.26 53.86,186.31 53.22,186.32 52.55,186.28 51.91,186.05 51.59,185.94 51.28,185.78 50.99,185.56 50.86,185.45 50.78,185.39 50.67,185.33 50.56,185.27 50.43,185.22 50.3,185.18 49.21,184.84 47.95,184.81 46.74,184.79 41.84,184.78 36.92,185.31 31.97,185.43 30.73,185.45 29.49,185.45 28.24,185.33 27.61,185.27 27,185.19 26.37,184.97 25.78,184.72 25.23,184.45 24.67,184.18 22.47,183.06 20.29,181.81 18.49,180.08 17.62,179.22 16.77,178.17 16.63,176.87 16.57,176.23 16.76,175.58 17.1,175.05 17.43,174.54 17.67,173.98 17.82,173.4 18.11,172.22 18.03,170.97 17.74,169.79 17.46,168.61 16.99,167.46 16.36,166.41 L 16.42,166.37 Z M 16.42,166.37" />
            <path id="joe06Canvas-bezier29" stroke="none" fill="rgb(51, 91, 113)" d="M 19.3,117.84 C 17.79,117.47 16.27,117.17 14.74,116.94 13.21,116.7 11.67,116.53 10.14,116.52 8.61,116.53 7.06,116.68 5.75,117.31 5.07,117.61 4.4,117.98 3.85,118.46 3.57,118.69 3.33,118.97 3.2,119.29 3.05,119.6 3.06,119.99 3.26,120.32 L 3.21,120.36 C 2.9,120.08 2.8,119.62 2.89,119.2 2.98,118.78 3.23,118.42 3.5,118.11 4.05,117.49 4.74,117.07 5.44,116.68 6.15,116.28 6.98,116.08 7.77,116 8.57,115.91 9.36,115.91 10.15,115.96 13.3,116.14 16.35,116.85 19.32,117.78 L 19.3,117.84 Z M 19.3,117.84" />
            <path id="joe06Canvas-bezier30" stroke="none" fill="rgb(51, 91, 113)" d="M 3.23,118.77 C 4.2,117.87 4.67,116.54 4.6,115.26 4.57,113.97 4.03,112.76 3.42,111.61 2.81,110.45 2.03,109.4 1.44,108.17 1.16,107.55 0.88,106.88 0.9,106.14 0.91,105.78 1.01,105.41 1.18,105.1 1.37,104.79 1.61,104.54 1.88,104.34 L 1.93,104.39 C 1.53,104.92 1.3,105.53 1.39,106.12 1.48,106.71 1.76,107.29 2.07,107.85 2.7,108.97 3.37,110.14 3.93,111.36 4.49,112.57 5,113.88 4.96,115.26 4.92,116.63 4.33,117.98 3.27,118.83 L 3.23,118.77 Z M 3.23,118.77" />
            <path id="joe06Canvas-bezier31" stroke="none" fill="rgb(51, 91, 113)" d="M 4.77,108.07 C 5.3,107.81 5.7,107.3 5.78,106.72 5.86,106.14 5.67,105.56 5.41,105.04 5.14,104.51 4.76,104.05 4.39,103.57 4.02,103.08 3.68,102.58 3.35,102.07 2.06,100.02 1.07,97.75 0.62,95.33 0.4,94.13 0.33,92.88 0.46,91.65 0.53,91.03 0.65,90.42 0.82,89.82 0.99,89.24 1.17,88.67 1.36,88.09 1.76,86.94 2.27,85.83 2.65,84.72 3.01,83.61 3.12,82.41 3.26,81.21 L 3.34,81.21 C 3.39,82.42 3.4,83.64 3.12,84.85 2.82,86.06 2.36,87.16 2.04,88.31 1.85,88.88 1.69,89.45 1.52,90.03 1.36,90.59 1.23,91.15 1.16,91.73 0.99,92.89 1.01,94.07 1.18,95.24 1.54,97.58 2.44,99.83 3.65,101.89 3.96,102.41 4.28,102.91 4.62,103.4 4.97,103.89 5.34,104.38 5.6,104.94 5.85,105.49 6.03,106.12 5.92,106.74 5.81,107.36 5.36,107.89 4.8,108.14 L 4.77,108.07 Z M 4.77,108.07" />
            <path id="joe06Canvas-bezier32" stroke="none" fill="rgb(51, 91, 113)" d="M 1.12,84.27 C 0.63,83.6 0.25,82.84 0.07,82.01 -0.11,81.2 0.04,80.24 0.66,79.59 1.26,78.93 2.11,78.6 2.91,78.38 3.7,78.16 4.43,77.86 5.15,77.47 6.56,76.69 7.76,75.59 8.88,74.44 10.01,73.28 11.02,72 11.85,70.58 L 11.91,70.61 C 11.45,72.22 10.48,73.63 9.41,74.92 8.3,76.19 6.93,77.23 5.41,77.97 4.66,78.34 3.83,78.64 3.03,78.82 2.24,79 1.47,79.28 0.92,79.83 0.35,80.36 0.16,81.19 0.28,81.98 0.4,82.77 0.73,83.54 1.17,84.23 L 1.12,84.27 Z M 1.12,84.27" />
            <path id="joe06Canvas-bezier33" stroke="none" fill="rgb(51, 91, 113)" d="M 8.18,73.35 C 8.32,72.05 8.53,70.75 8.82,69.46 9.12,68.18 9.49,66.9 10.08,65.7 10.39,65.11 10.75,64.53 11.26,64.05 11.75,63.57 12.48,63.23 13.22,63.31 14.54,63.53 15.81,63.57 17.11,63.44 18.4,63.3 19.68,63.01 20.9,62.58 21.51,62.38 22.11,62.13 22.68,61.85 23.26,61.59 23.78,61.23 24.38,60.89 26.73,59.65 29.15,58.56 31.65,57.71 L 31.68,57.77 C 29.34,58.99 26.98,60.17 24.73,61.5 24.19,61.81 23.62,62.22 23,62.51 22.39,62.8 21.76,63.04 21.12,63.25 19.83,63.65 18.5,63.9 17.16,64 15.84,64.11 14.44,64.02 13.17,63.76 12.58,63.69 12,63.94 11.54,64.35 11.07,64.77 10.71,65.3 10.4,65.87 9.78,67 9.37,68.25 9.03,69.51 8.69,70.78 8.43,72.06 8.25,73.36 L 8.18,73.35 Z M 8.18,73.35" />
            <path id="joe06Canvas-bezier34" stroke="none" fill="rgb(51, 91, 113)" d="M 34.73,42.19 C 34.74,42.73 34.84,43.25 35,43.72 35.08,43.96 35.24,44.16 35.29,44.4 35.35,44.64 35.41,44.88 35.41,45.21 L 35.35,45.26 C 35.03,45.15 34.81,44.94 34.65,44.69 34.48,44.44 34.47,44.12 34.44,43.84 34.39,43.27 34.46,42.7 34.66,42.18 L 34.73,42.19 Z M 34.73,42.19" />
            <path id="joe06Canvas-bezier35" stroke="none" fill="rgb(51, 91, 113)" d="M 31.6,38.91 C 31.57,39.39 31.56,39.88 31.58,40.37 31.58,40.85 31.61,41.33 31.69,41.79 31.77,42.24 31.98,42.68 32.15,42.86 32.17,42.89 32.32,42.98 32.4,43.04 L 32.69,43.23 C 32.87,43.34 33.08,43.51 33.27,43.48 L 33.33,43.52 C 33.24,43.69 33.06,43.7 32.93,43.72 32.78,43.73 32.64,43.72 32.51,43.7 32.38,43.68 32.25,43.63 32.12,43.59 31.99,43.54 31.91,43.53 31.73,43.42 31.42,43.21 31.29,42.9 31.22,42.64 31.16,42.36 31.14,42.1 31.13,41.84 31.1,40.82 31.28,39.85 31.53,38.89 L 31.6,38.91 Z M 31.6,38.91" />
            <path id="joe06Canvas-bezier36" stroke="none" fill="rgb(51, 91, 113)" d="M 30.78,37.61 C 30.64,37.36 30.35,37.24 30.1,37.37 29.85,37.48 29.64,37.66 29.41,37.82 29.18,37.98 28.93,38.15 28.63,38.18 28.32,38.21 28.04,38.02 27.86,37.8 27.49,37.36 27.32,36.81 27.11,36.29 L 26.48,34.75 C 26.05,33.71 25.62,32.68 25.26,31.62 24.92,30.56 24.57,29.46 24.68,28.31 24.71,28.02 24.79,27.73 24.95,27.47 25.04,27.35 25.12,27.24 25.19,27.13 25.25,27.02 25.3,26.9 25.33,26.77 25.45,26.26 25.38,25.7 25.28,25.17 25.07,24.08 24.65,23.04 24.51,21.9 24.48,21.61 24.47,21.32 24.55,21.01 24.6,20.87 24.66,20.71 24.78,20.59 24.83,20.52 24.91,20.48 24.97,20.43 25.02,20.39 25.07,20.36 25.1,20.32 25.41,19.94 25.55,19.37 25.69,18.85 25.95,17.77 26.14,16.67 26.39,15.58 26.65,14.49 26.94,13.38 27.55,12.38 27.86,11.9 28.31,11.43 28.92,11.25 29.23,11.16 29.55,11.16 29.84,11.21 30.17,11.28 30.37,11.34 30.63,11.32 31.13,11.3 31.6,11.02 31.97,10.65 32.35,10.28 32.66,9.83 32.95,9.36 33.51,8.42 33.97,7.4 34.51,6.41 34.78,5.91 35.06,5.42 35.4,4.95 35.75,4.49 36.15,4.04 36.72,3.76 37.28,3.47 38.01,3.51 38.54,3.75 39.04,3.95 39.55,4.02 40.05,3.92 41.07,3.71 41.88,2.91 42.68,2.14 43.48,1.39 44.32,0.52 45.51,0.17 46.1,-0.01 46.74,-0.01 47.32,0.13 47.61,0.2 47.91,0.31 48.16,0.42 48.42,0.53 48.66,0.6 48.92,0.68 49.96,0.95 51.07,0.97 52.16,0.88 53.26,0.78 54.35,0.58 55.45,0.37 56,0.26 56.56,0.16 57.13,0.08 57.7,0.01 58.29,-0.05 58.92,0.06 59.23,0.12 59.58,0.25 59.84,0.52 60.12,0.76 60.22,1.21 60.3,1.3 60.52,1.64 61,1.83 61.51,1.93 62.55,2.13 63.69,2.1 64.83,2.22 65.4,2.28 65.98,2.37 66.56,2.56 67.12,2.75 67.7,3.08 68.1,3.59 68.3,3.84 68.46,4.13 68.56,4.43 68.66,4.72 68.7,5.04 68.76,5.27 68.88,5.76 69.11,6.25 69.38,6.7 70.5,8.55 72.18,10.08 73.75,11.66 74.54,12.46 75.34,13.25 76.01,14.2 76.32,14.68 76.65,15.21 76.68,15.86 76.69,16.02 76.65,16.22 76.62,16.33 76.6,16.45 76.59,16.57 76.59,16.69 76.6,16.93 76.67,17.17 76.79,17.4 77.27,18.33 78.21,19.01 78.97,19.85 79.35,20.27 79.72,20.76 79.84,21.37 79.97,21.99 79.71,22.62 79.39,23.06 78.82,23.98 78.66,25.11 78.72,26.21 78.74,26.76 78.82,27.31 78.88,27.87 78.91,28.14 78.95,28.42 78.94,28.71 78.94,28.97 78.86,29.35 78.53,29.43 L 78.51,29.36 C 78.79,29.28 78.84,28.97 78.84,28.71 78.83,28.43 78.79,28.16 78.75,27.88 78.66,27.33 78.57,26.78 78.52,26.22 78.42,25.11 78.53,23.92 79.11,22.9 79.42,22.43 79.6,21.94 79.49,21.44 79.39,20.94 79.05,20.51 78.68,20.11 77.94,19.31 76.97,18.67 76.38,17.6 76.24,17.33 76.14,17.03 76.12,16.71 76.11,16.56 76.13,16.39 76.15,16.24 76.18,16.08 76.2,16.01 76.19,15.88 76.17,15.41 75.89,14.93 75.58,14.49 74.94,13.62 74.14,12.85 73.34,12.07 71.74,10.51 70.02,9.03 68.77,7.06 68.47,6.56 68.22,6.03 68.07,5.43 67.99,5.12 67.97,4.88 67.89,4.65 67.81,4.42 67.69,4.21 67.55,4.02 66.95,3.26 65.83,3.03 64.76,2.92 63.67,2.8 62.54,2.84 61.37,2.61 60.81,2.49 60.13,2.29 59.71,1.67 59.61,1.53 59.53,1.31 59.51,1.25 59.47,1.16 59.41,1.08 59.35,1.01 59.21,0.88 59.02,0.79 58.78,0.74 57.81,0.58 56.66,0.84 55.57,1.02 54.47,1.21 53.35,1.42 52.21,1.5 51.07,1.59 49.9,1.56 48.76,1.25 48.49,1.17 48.19,1.07 47.94,0.96 47.68,0.84 47.44,0.76 47.19,0.69 46.68,0.57 46.16,0.56 45.67,0.71 44.67,0.99 43.85,1.77 43.05,2.53 42.24,3.27 41.39,4.16 40.15,4.42 39.55,4.54 38.9,4.43 38.37,4.21 37.88,4 37.38,3.98 36.93,4.19 36.48,4.41 36.11,4.8 35.78,5.23 35.46,5.66 35.18,6.14 34.91,6.62 34.38,7.59 33.91,8.61 33.32,9.58 33.02,10.06 32.69,10.54 32.27,10.95 31.85,11.36 31.29,11.7 30.65,11.72 30.35,11.74 30,11.65 29.78,11.6 29.53,11.56 29.27,11.56 29.03,11.63 28.55,11.76 28.16,12.14 27.87,12.59 27.3,13.5 27,14.58 26.74,15.65 26.47,16.73 26.28,17.83 26,18.92 25.84,19.46 25.72,20.02 25.32,20.52 25.26,20.59 25.2,20.64 25.13,20.68 25.09,20.72 25.03,20.74 25,20.79 24.92,20.87 24.87,20.98 24.83,21.09 24.76,21.33 24.76,21.6 24.79,21.87 24.91,22.95 25.32,24.01 25.52,25.12 25.62,25.67 25.7,26.25 25.55,26.83 25.52,26.97 25.46,27.11 25.38,27.25 25.31,27.37 25.21,27.49 25.14,27.59 25,27.81 24.92,28.07 24.89,28.33 24.77,29.41 25.1,30.51 25.43,31.56 25.78,32.62 26.19,33.66 26.61,34.69 L 27.23,36.25 C 27.43,36.77 27.6,37.31 27.94,37.73 28.11,37.94 28.35,38.11 28.62,38.08 28.89,38.05 29.13,37.9 29.35,37.74 29.58,37.59 29.8,37.41 30.07,37.29 30.21,37.24 30.37,37.21 30.51,37.27 30.65,37.33 30.76,37.45 30.84,37.56 L 30.78,37.61 Z M 30.78,37.61" />
            <path id="joe06Canvas-bezier37" stroke="none" fill="rgb(51, 91, 113)" d="M 69.15,32.57 C 67.15,33.2 65.16,33.89 63.21,34.65 62.24,35.04 61.3,35.5 60.35,35.9 59.41,36.32 58.44,36.68 57.64,37.36 L 57.58,37.31 C 57.83,36.82 58.25,36.45 58.68,36.12 59.11,35.78 59.57,35.51 60.04,35.26 60.99,34.76 62.01,34.45 63.02,34.12 65.03,33.47 67.07,32.94 69.14,32.5 L 69.15,32.57 Z M 69.15,32.57" />
            <path id="joe06Canvas-bezier38" stroke="none" fill="rgb(51, 91, 113)" d="M 39.09,38.1 C 41.25,37.38 43.52,36.96 45.82,36.84 46.96,36.78 48.13,36.75 49.28,36.96 50.41,37.17 51.54,37.52 52.54,38.1 L 52.51,38.16 C 51.39,37.95 50.29,37.77 49.18,37.66 48.07,37.55 46.96,37.42 45.83,37.4 44.71,37.39 43.58,37.46 42.45,37.59 41.33,37.72 40.21,37.9 39.11,38.17 L 39.09,38.1 Z M 39.09,38.1" />
            <path id="joe06Canvas-bezier39" stroke="none" fill="rgb(51, 91, 113)" d="M 55.95,53.64 C 55.55,53.48 55.12,53.38 54.71,53.39 54.51,53.38 54.31,53.41 54.13,53.47 54.04,53.5 53.96,53.54 53.88,53.59 53.82,53.62 53.79,53.64 53.73,53.67 53.66,53.7 53.59,53.73 53.53,53.75 53.01,53.91 52.42,53.83 52.02,53.5 51.82,53.34 51.65,53.15 51.54,52.91 51.42,52.69 51.37,52.39 51.49,52.16 L 51.56,52.17 C 51.75,52.56 52.09,52.74 52.41,52.92 52.73,53.06 53.05,53.25 53.39,53.2 53.44,53.2 53.48,53.19 53.51,53.18 53.55,53.17 53.61,53.14 53.66,53.13 53.77,53.08 53.9,53.05 54.02,53.03 54.27,52.98 54.51,52.99 54.75,53.04 55.21,53.13 55.62,53.33 55.99,53.58 L 55.95,53.64 Z M 55.95,53.64" />
            <path id="joe06Canvas-bezier40" stroke="none" fill="rgb(51, 91, 113)" d="M 59.17,53.01 C 59.5,52.64 59.87,52.31 60.29,52.03 60.51,51.89 60.74,51.77 60.99,51.68 61.12,51.64 61.25,51.6 61.39,51.58 61.53,51.56 61.67,51.56 61.76,51.54 62.09,51.47 62.3,51.11 62.52,50.76 62.71,50.4 62.93,49.99 62.92,49.52 L 62.99,49.48 C 63.2,49.67 63.27,49.98 63.29,50.24 63.3,50.52 63.25,50.79 63.16,51.05 62.98,51.57 62.47,52.07 61.8,52.1 61.64,52.1 61.54,52.08 61.44,52.09 61.33,52.09 61.22,52.1 61.11,52.12 60.89,52.17 60.67,52.24 60.46,52.34 60.02,52.52 59.6,52.77 59.22,53.06 L 59.17,53.01 Z M 59.17,53.01" />
            <path id="joe06Canvas-bezier41" stroke="none" fill="rgb(51, 91, 113)" d="M 54.27,40.53 C 54.68,41.88 55.05,43.24 55.35,44.62 55.5,45.31 55.7,46 55.73,46.72 55.76,47.42 55.78,48.18 55.46,48.87 L 55.39,48.85 C 55.32,48.15 55.14,47.49 55.03,46.8 54.9,46.12 54.88,45.42 54.79,44.72 54.61,43.33 54.41,41.94 54.2,40.54 L 54.27,40.53 Z M 54.27,40.53" />
            <path id="joe06Canvas-bezier42" stroke="none" fill="rgb(51, 91, 113)" d="M 50.81,40.15 C 50.21,39.87 49.56,39.68 48.91,39.58 48.26,39.46 47.59,39.44 46.95,39.54 46.3,39.64 45.69,39.87 45.11,40.15 44.53,40.43 44.01,40.83 43.48,41.25 L 43.46,41.23 C 43.83,40.67 44.35,40.2 44.94,39.84 45.54,39.49 46.23,39.32 46.91,39.26 48.28,39.13 49.65,39.48 50.82,40.13 L 50.81,40.15 Z M 50.81,40.15" />
            <path id="joe06Canvas-bezier43" stroke="none" fill="rgb(51, 91, 113)" d="M 44.14,41.44 C 45.23,41.75 46.37,41.86 47.48,41.73 48.03,41.66 48.56,41.5 49.07,41.31 49.67,41.12 50.24,41.15 50.82,41.22 L 50.82,41.26 C 50.26,41.38 49.67,41.42 49.21,41.64 48.67,41.89 48.08,41.98 47.5,42.01 46.34,42.08 45.19,41.88 44.13,41.47 L 44.14,41.44 Z M 44.14,41.44" />
            <path id="joe06Canvas-bezier44" stroke="none" fill="rgb(51, 91, 113)" d="M 43,40.1 C 44.13,39.19 45.59,38.73 47.05,38.66 47.78,38.63 48.52,38.68 49.23,38.86 49.94,39.06 50.62,39.33 51.24,39.72 L 51.22,39.75 C 50.53,39.55 49.85,39.33 49.15,39.21 48.46,39.07 47.76,38.95 47.06,38.95 46.35,38.94 45.64,39.04 44.96,39.24 44.27,39.43 43.61,39.71 43.02,40.13 L 43,40.1 Z M 43,40.1" />
            <path id="joe06Canvas-bezier45" stroke="none" fill="rgb(51, 91, 113)" d="M 59.89,38.33 C 60.84,37.16 62.14,36.24 63.64,35.81 64.38,35.6 65.17,35.5 65.94,35.62 66.71,35.74 67.46,36 68.1,36.41 L 68.09,36.44 C 67.36,36.21 66.64,36.02 65.9,35.97 65.17,35.9 64.43,35.91 63.71,36.08 62.99,36.25 62.29,36.55 61.66,36.94 61.02,37.33 60.42,37.8 59.92,38.36 L 59.89,38.33 Z M 59.89,38.33" />
            <path id="joe06Canvas-bezier46" stroke="none" fill="rgb(51, 91, 113)" d="M 61.39,38.57 C 61.66,37.98 62.08,37.47 62.61,37.09 63.15,36.71 63.79,36.48 64.45,36.42 65.11,36.36 65.79,36.44 66.41,36.66 67.02,36.89 67.6,37.2 68.1,37.61 L 68.09,37.64 C 67.48,37.41 66.9,37.16 66.3,37 65.7,36.83 65.09,36.68 64.47,36.7 63.23,36.72 62.04,37.47 61.42,38.58 L 61.39,38.57 Z M 61.39,38.57" />
            <path id="joe06Canvas-bezier47" stroke="none" fill="rgb(51, 91, 113)" d="M 61.89,39.24 C 62.82,39.52 63.84,39.53 64.73,39.24 65.62,38.9 66.34,38.31 67.04,37.61 L 67.06,37.63 C 66.87,38.1 66.55,38.5 66.18,38.84 65.79,39.17 65.3,39.38 64.81,39.51 63.83,39.76 62.79,39.65 61.88,39.27 L 61.89,39.24 Z M 61.89,39.24" />
            <path id="joe06Canvas-bezier48" stroke="none" fill="rgb(51, 91, 113)" d="M 48.27,39.38 C 48.52,39.78 48.58,40.31 48.39,40.77 48.2,41.22 47.77,41.58 47.26,41.69 46.77,41.8 46.18,41.67 45.83,41.27 45.47,40.89 45.33,40.32 45.52,39.87 L 45.55,39.87 C 45.58,40.34 45.76,40.75 46.07,41.02 46.38,41.29 46.78,41.46 47.21,41.41 47.63,41.36 48.03,41.08 48.23,40.69 48.44,40.31 48.45,39.81 48.24,39.4 L 48.27,39.38 Z M 48.27,39.38" />
            <path id="joe06Canvas-bezier49" stroke="none" fill="rgb(51, 91, 113)" d="M 64.97,36.64 C 65.32,37 65.48,37.56 65.35,38.07 65.21,38.58 64.8,39.01 64.28,39.17 63.76,39.34 63.13,39.23 62.73,38.83 62.33,38.44 62.18,37.83 62.38,37.35 L 62.41,37.36 C 62.43,37.85 62.62,38.3 62.97,38.57 63.3,38.85 63.76,39 64.2,38.9 64.64,38.8 65.03,38.46 65.18,38.02 65.33,37.58 65.25,37.05 64.94,36.67 L 64.97,36.64 Z M 64.97,36.64" />
            <path id="joe06Canvas-bezier50" stroke="none" fill="rgb(51, 91, 113)" d="M 51.03,56.8 C 52.24,57.21 53.5,57.45 54.77,57.55 56.03,57.67 57.31,57.64 58.54,57.42 59.78,57.2 60.95,56.75 62.07,56.23 63.2,55.71 64.24,55.01 65.27,54.23 L 65.32,54.27 C 64.57,55.33 63.55,56.21 62.4,56.85 61.24,57.5 59.92,57.82 58.63,57.97 57.32,58.13 56.01,58.09 54.73,57.9 53.44,57.7 52.19,57.37 51,56.86 L 51.03,56.8 Z M 51.03,56.8" />
            <path id="joe06Canvas-bezier51" stroke="none" fill="rgb(51, 91, 113)" d="M 50.6,58.28 C 51.76,59.69 53.11,60.98 54.65,61.94 56.16,62.91 58.02,63.51 59.7,62.91 61.39,62.37 62.7,61.06 63.82,59.67 64.96,58.28 65.86,56.69 66.69,55.05 L 66.75,55.07 C 66.3,56.87 65.47,58.56 64.38,60.1 63.29,61.61 61.75,62.93 59.86,63.45 59.62,63.52 59.38,63.57 59.16,63.6 58.91,63.64 58.67,63.66 58.43,63.66 57.94,63.66 57.46,63.59 57,63.46 56.07,63.21 55.23,62.76 54.45,62.24 52.92,61.16 51.64,59.8 50.55,58.32 L 50.6,58.28 Z M 50.6,58.28" />
            <path id="joe06Canvas-bezier52" stroke="none" fill="rgb(51, 91, 113)" d="M 53.96,64.03 C 54.85,64.65 55.9,65.01 56.94,65.26 57.99,65.51 59.08,65.58 60.11,65.41 61.16,65.23 62.1,64.76 62.95,64.18 63.81,63.59 64.54,62.82 65.26,61.99 L 65.33,62.02 C 64.93,63.06 64.27,64.01 63.37,64.74 62.48,65.48 61.32,65.86 60.19,65.97 59.05,66.08 57.91,65.93 56.85,65.6 55.79,65.25 54.77,64.79 53.91,64.09 L 53.96,64.03 Z M 53.96,64.03" />
            <path id="joe06Canvas-bezier53" stroke="none" fill="rgb(51, 91, 113)" d="M 36.23,46.62 C 36.52,47 36.79,47.39 37.05,47.79 37.17,47.99 37.35,48.17 37.4,48.4 37.46,48.63 37.49,48.88 37.4,49.17 L 37.34,49.2 C 37.06,49.07 36.9,48.88 36.76,48.69 36.62,48.5 36.6,48.25 36.53,48.02 36.39,47.57 36.27,47.12 36.17,46.65 L 36.23,46.62 Z M 36.23,46.62" />
            <path id="joe06Canvas-bezier54" stroke="none" fill="rgb(51, 91, 113)" d="M 34.56,51.59 C 34.42,51.36 34.26,51.18 34.07,51.01 33.89,50.83 33.7,50.66 33.5,50.5 33.3,50.33 33.05,50.21 32.91,49.95 32.84,49.83 32.77,49.69 32.74,49.51 32.73,49.41 32.73,49.3 32.78,49.2 32.84,49.09 32.93,49.03 33.02,49.03 L 33.06,49.09 C 33.03,49.26 33.15,49.26 33.2,49.31 33.28,49.37 33.37,49.44 33.46,49.51 33.65,49.66 33.76,49.9 33.92,50.12 34.22,50.54 34.54,51.02 34.62,51.56 L 34.56,51.59 Z M 34.56,51.59" />
            <path id="joe06Canvas-bezier55" stroke="none" fill="rgb(51, 91, 113)" d="M 28.67,39.35 C 29.08,40.39 29.48,41.44 29.84,42.51 30.01,43.06 30.18,43.59 30.27,44.17 30.28,44.25 30.29,44.33 30.29,44.41 30.3,44.49 30.3,44.52 30.31,44.58 30.34,44.69 30.38,44.81 30.43,44.94 30.53,45.18 30.66,45.42 30.79,45.65 31.35,46.58 32.11,47.4 32.94,48.01 33.36,48.31 33.83,48.53 34.34,48.61 34.84,48.68 35.38,48.58 35.91,48.36 L 35.94,48.42 C 35.52,48.81 34.94,49.08 34.31,49.1 33.69,49.13 33.07,48.91 32.55,48.6 31.51,47.95 30.82,46.95 30.3,45.92 30.16,45.66 30.04,45.39 29.95,45.11 29.9,44.97 29.86,44.82 29.83,44.66 29.82,44.58 29.82,44.47 29.82,44.41 29.82,44.36 29.82,44.29 29.82,44.23 29.76,43.7 29.63,43.15 29.5,42.61 29.23,41.52 28.93,40.44 28.6,39.37 L 28.67,39.35 Z M 28.67,39.35" />
            <path id="joe06Canvas-bezier56" stroke="none" fill="rgb(51, 91, 113)" d="M 75.18,37.62 C 75.18,37.43 75.19,37.25 75.22,37.06 75.25,36.87 75.28,36.68 75.45,36.48 75.48,36.44 75.61,36.38 75.59,36.38 75.63,36.36 75.57,36.38 75.58,36.38 L 75.6,36.34 C 75.62,36.29 75.64,36.21 75.65,36.13 75.68,35.96 75.7,35.79 75.7,35.62 75.72,35.27 75.66,34.92 75.71,34.58 75.74,34.23 75.84,33.9 75.85,33.54 L 75.9,33.49 C 76.11,33.61 76.21,33.82 76.28,34 76.35,34.19 76.39,34.38 76.42,34.57 76.47,34.96 76.35,35.33 76.26,35.7 76.22,35.89 76.17,36.07 76.09,36.26 76.06,36.35 76.01,36.44 75.95,36.54 75.93,36.57 75.91,36.6 75.89,36.62 75.87,36.65 75.78,36.71 75.78,36.71 L 75.73,36.73 75.71,36.74 C 75.7,36.73 75.69,36.74 75.68,36.75 75.47,36.89 75.33,37.3 75.25,37.63 L 75.18,37.62 Z M 75.18,37.62" />
            <path id="joe06Canvas-bezier57" stroke="none" fill="rgb(51, 91, 113)" d="M 75.31,31.17 C 75.24,30.93 75.28,30.58 75.53,30.37 75.77,30.17 76.04,30.09 76.27,30 76.51,29.91 76.69,29.77 76.84,29.73 76.99,29.68 77.14,29.62 77.37,29.39 L 77.44,29.4 C 77.62,29.66 77.52,30.09 77.24,30.31 76.96,30.55 76.65,30.52 76.4,30.55 76.15,30.57 75.91,30.58 75.73,30.66 75.54,30.72 75.41,30.91 75.38,31.17 L 75.31,31.17 Z M 75.31,31.17" />
            <path id="joe06Canvas-bezier58" stroke="none" fill="rgb(51, 91, 113)" d="M 78.56,114.92 C 79.35,117.53 80.02,120.17 80.54,122.84 80.8,124.18 81,125.54 81.19,126.88 81.39,128.22 81.64,129.55 81.91,130.88 82.47,133.53 83.22,136.13 84.02,138.71 84.81,141.3 85.74,143.84 86.88,146.31 L 86.82,146.35 C 85.31,144.05 84.27,141.5 83.34,138.93 82.44,136.34 81.84,133.67 81.36,130.98 81.11,129.64 80.9,128.29 80.74,126.94 80.58,125.58 80.42,124.25 80.19,122.91 79.77,120.23 79.19,117.57 78.49,114.94 L 78.56,114.92 Z M 78.56,114.92" />
            <path id="joe06Canvas-bezier59" stroke="none" fill="rgb(51, 91, 113)" d="M 87.52,146.67 L 90.87,151.32 C 91.42,152.1 91.97,152.89 92.5,153.69 L 92.7,153.99 C 92.77,154.1 92.83,154.27 92.86,154.39 92.92,154.65 92.95,154.89 92.98,155.13 93.02,155.62 93.04,156.1 93.05,156.58 93.1,158.5 93.04,160.42 93.03,162.29 93.03,162.4 93.03,162.51 93.04,162.62 L 93.05,162.77 93.09,162.95 C 93.12,163.41 92.89,163.64 92.72,163.85 92.34,164.23 91.94,164.5 91.52,164.76 90.71,165.28 89.87,165.72 89.2,166.4 L 89.15,166.35 C 89.67,165.52 90.5,164.95 91.24,164.36 91.6,164.06 91.99,163.77 92.26,163.45 92.39,163.3 92.45,163.09 92.44,163.07 L 92.39,162.9 C 92.38,162.82 92.37,162.76 92.36,162.69 92.34,162.56 92.33,162.44 92.32,162.32 92.24,160.37 92.45,158.48 92.48,156.58 92.49,156.11 92.49,155.64 92.46,155.17 92.45,154.94 92.43,154.71 92.38,154.5 92.36,154.38 92.34,154.32 92.29,154.23 L 92.11,153.93 C 91.62,153.12 91.09,152.32 90.58,151.52 L 87.46,146.71 87.52,146.67 Z M 87.52,146.67" />
            <path id="joe06Canvas-bezier60" stroke="none" fill="rgb(51, 91, 113)" d="M 82.35,156.62 C 82.64,157.49 82.97,158.36 83.36,159.19 83.56,159.6 83.78,160.01 84.04,160.38 84.29,160.74 84.61,161.12 84.97,161.18 L 85.15,161.21 85.11,161.39 C 84.99,161.9 85.06,162.43 85.21,162.94 85.37,163.44 85.62,163.94 85.91,164.37 L 86,164.51 85.9,164.65 C 85.48,165.21 85.08,165.83 84.83,166.47 84.71,166.77 84.64,167.14 84.73,167.31 84.78,167.45 85.07,167.52 85.4,167.49 L 85.42,167.49 85.48,167.5 C 85.8,167.54 86.19,167.49 86.48,167.34 86.78,167.2 87.01,166.96 87.15,166.65 87.29,166.34 87.47,165.89 87.66,165.53 87.85,165.16 88.06,164.82 88.2,164.47 88.5,163.8 88.41,162.99 88.41,162.17 88.41,161.76 88.4,161.35 88.44,160.93 88.45,160.72 88.48,160.51 88.54,160.3 88.57,160.2 88.61,160.09 88.69,160 88.76,159.9 88.89,159.84 89,159.86 L 89,159.93 C 88.8,159.95 88.75,160.15 88.72,160.34 88.7,160.53 88.71,160.73 88.72,160.93 88.76,161.33 88.8,161.73 88.86,162.14 88.91,162.54 88.97,162.95 88.99,163.38 89,163.81 88.96,164.27 88.81,164.69 88.67,165.12 88.48,165.49 88.3,165.85 88.12,166.22 88,166.54 87.81,166.97 87.6,167.4 87.23,167.79 86.77,167.98 86.31,168.17 85.85,168.21 85.35,168.13 L 85.43,168.13 C 85.23,168.14 85.01,168.13 84.78,168.06 84.56,168 84.29,167.82 84.18,167.55 84,167.02 84.19,166.63 84.32,166.27 84.63,165.55 85.06,164.95 85.53,164.36 L 85.52,164.64 C 85.21,164.13 84.98,163.61 84.82,163.05 84.67,162.49 84.61,161.89 84.77,161.31 L 84.92,161.52 C 84.33,161.37 84.07,160.92 83.81,160.53 83.55,160.13 83.36,159.7 83.17,159.28 82.81,158.42 82.53,157.53 82.28,156.64 L 82.35,156.62 Z M 82.35,156.62" />
            <path id="joe06Canvas-bezier61" stroke="none" fill="rgb(51, 91, 113)" d="M 90.56,162.93 C 90.34,163.13 90.12,163.34 89.94,163.55 89.85,163.65 89.82,163.8 89.7,163.84 89.59,163.9 89.47,163.92 89.23,163.97 L 89.17,163.94 C 89.05,163.73 89.1,163.51 89.19,163.36 89.28,163.19 89.47,163.15 89.61,163.09 89.91,162.96 90.22,162.89 90.53,162.86 L 90.56,162.93 Z M 90.56,162.93" />
            <path id="joe06Canvas-bezier62" stroke="none" fill="rgb(51, 91, 113)" d="M 82.3,159.63 C 81.12,158.95 80.24,157.8 79.78,156.51 79.3,155.22 79.3,153.77 79.45,152.46 79.53,151.15 79.38,149.84 79.19,148.55 78.99,147.26 78.68,145.98 78.22,144.72 L 78.28,144.69 C 79.1,145.79 79.59,147.09 79.89,148.42 80.19,149.77 80.17,151.16 80.01,152.51 79.79,153.83 79.73,155.14 80.11,156.4 80.47,157.65 81.23,158.82 82.34,159.57 L 82.3,159.63 Z M 82.3,159.63" />
            <path id="joe06Canvas-bezier63" stroke="none" fill="rgb(51, 91, 113)" d="M 65.26,88 C 65.12,87.28 64.92,86.58 64.63,85.91 64.35,85.25 63.98,84.6 63.45,84.13 63.18,83.91 62.87,83.74 62.53,83.68 62.22,83.63 61.81,83.67 61.43,83.58 60.68,83.44 59.99,83.11 59.35,82.71 58.71,82.31 58.13,81.83 57.62,81.28 57.11,80.72 56.64,80.11 56.39,79.35 56.32,79.17 56.29,78.94 56.28,78.75 56.26,78.57 56.24,78.43 56.19,78.26 56.11,77.94 55.97,77.62 55.79,77.33 55.44,76.74 54.95,76.19 54.43,75.75 L 54.95,75.61 C 54.48,76.96 54.04,78.33 53.64,79.69 53.45,80.38 53.25,81.06 53.11,81.76 52.98,82.43 52.86,83.17 52.98,83.76 L 53.17,84.64 52.58,84.02 C 51.68,83.11 50.8,82.19 49.94,81.24 L 49.99,81.19 C 50.99,81.99 51.96,82.82 52.92,83.66 L 52.51,83.92 C 52.37,83.52 52.37,83.13 52.38,82.75 52.39,82.38 52.44,82.01 52.49,81.65 52.6,80.92 52.75,80.21 52.95,79.5 53.32,78.1 53.8,76.73 54.34,75.38 L 54.52,74.93 54.86,75.25 C 55.44,75.78 55.91,76.36 56.29,77.04 56.48,77.38 56.63,77.75 56.72,78.13 56.77,78.31 56.8,78.54 56.81,78.72 56.82,78.91 56.83,79.04 56.88,79.2 57.07,79.84 57.49,80.45 57.95,80.98 58.43,81.51 58.97,81.99 59.56,82.39 60.16,82.79 60.81,83.11 61.5,83.27 61.84,83.37 62.18,83.33 62.59,83.41 62.98,83.49 63.32,83.71 63.61,83.96 64.17,84.49 64.51,85.17 64.78,85.85 65.04,86.54 65.22,87.26 65.33,87.99 L 65.26,88 Z M 65.26,88" />
            <path id="joe06Canvas-bezier64" stroke="none" fill="rgb(51, 91, 113)" d="M 54.63,75.53 C 53.79,75.26 52.99,74.82 52.29,74.25 51.94,73.96 51.57,73.67 51.34,73.26 51.12,72.86 50.97,72.41 50.98,71.93 L 51.05,71.9 C 51.39,72.23 51.65,72.55 51.93,72.86 52.2,73.16 52.4,73.53 52.68,73.84 52.96,74.16 53.27,74.45 53.6,74.71 53.93,74.99 54.28,75.25 54.66,75.46 L 54.63,75.53 Z M 54.63,75.53" />
            <path id="joe06Canvas-bezier65" stroke="none" fill="rgb(51, 91, 113)" d="M 18.52,181.1 C 18.7,182.79 18.9,184.48 19.12,186.16 19.34,187.85 19.55,189.54 19.89,191.19 20.04,192.01 20.35,192.76 20.66,193.57 20.96,194.36 21.25,195.17 21.51,195.98 21.74,196.81 21.99,197.63 22.16,198.47 22.31,199.32 22.47,200.19 22.33,201.05 L 22.26,201.05 C 22.23,200.63 22.15,200.21 22.03,199.81 21.93,199.4 21.81,199 21.68,198.6 21.41,197.8 21.14,197 20.83,196.21 20.55,195.41 20.26,194.61 19.99,193.8 19.74,193 19.44,192.15 19.33,191.29 19.06,189.59 18.91,187.9 18.77,186.2 18.64,184.5 18.54,182.8 18.45,181.1 L 18.52,181.1 Z M 18.52,181.1" />
            <path id="joe06Canvas-bezier66" stroke="none" fill="rgb(51, 91, 113)" d="M 19.34,195.25 C 19.71,201.24 20.14,207.23 20.61,213.22 21.08,219.2 21.6,225.18 22.23,231.15 22.55,234.13 22.9,237.11 23.31,240.08 23.7,243.05 24.13,246.02 24.78,248.93 24.93,249.66 25.11,250.38 25.32,251.09 25.43,251.44 25.55,251.78 25.69,252.11 25.83,252.43 26.02,252.77 26.18,253.12 26.82,254.49 27.36,255.92 27.74,257.39 28.12,258.86 28.36,260.36 28.43,261.88 28.45,262.63 28.44,263.39 28.36,264.14 28.32,264.52 28.26,264.89 28.17,265.26 28.08,265.63 28,266.01 27.74,266.32 L 27.69,266.27 C 27.91,265.99 27.97,265.6 28.04,265.24 28.11,264.87 28.14,264.5 28.16,264.13 28.2,263.38 28.17,262.64 28.1,261.9 27.98,260.41 27.69,258.95 27.26,257.52 26.83,256.1 26.29,254.71 25.63,253.38 25.46,253.05 25.28,252.74 25.11,252.37 24.95,252.01 24.82,251.65 24.69,251.29 24.45,250.56 24.26,249.82 24.08,249.09 22.81,243.17 22.24,237.19 21.67,231.21 20.55,219.24 19.83,207.25 19.27,195.26 L 19.34,195.25 Z M 19.34,195.25" />
            <path id="joe06Canvas-bezier67" stroke="none" fill="rgb(51, 91, 113)" d="M 24.77,257.13 C 24.42,259.16 24.14,261.2 23.95,263.25 23.78,265.29 23.66,267.35 23.98,269.39 24.44,273.48 24.82,277.57 25.22,281.67 25.98,289.87 26.74,298.06 27.4,306.26 27.69,310.36 28.14,314.45 28.65,318.53 28.91,320.57 29.19,322.6 29.52,324.62 29.87,326.64 30.23,328.67 30.83,330.6 30.98,331.08 31.15,331.56 31.38,331.96 31.44,332.05 31.5,332.14 31.56,332.22 31.63,332.29 31.66,332.31 31.79,332.39 32.08,332.59 32.26,332.82 32.41,333.08 32.98,334.09 33.06,335.17 33.11,336.22 33.14,337.27 33.06,338.31 32.92,339.34 32.77,340.37 32.56,341.4 32.22,342.4 32.13,342.65 32.04,342.89 31.92,343.14 31.81,343.39 31.65,343.61 31.54,343.82 31.3,344.26 31.09,344.73 30.9,345.2 30.52,346.14 30.2,347.12 29.91,348.1 29.76,348.59 29.62,349.09 29.5,349.58 29.44,349.83 29.38,350.08 29.33,350.33 29.31,350.54 29.37,350.81 29.39,351.06 29.53,352.08 29.69,353.1 29.86,354.11 L 29.79,354.12 C 29.58,353.12 29.38,352.11 29.2,351.09 29.16,350.83 29.09,350.6 29.11,350.3 29.14,350.03 29.19,349.78 29.24,349.53 29.35,349.02 29.47,348.52 29.6,348.02 29.86,347.02 30.15,346.03 30.52,345.05 30.7,344.56 30.9,344.08 31.14,343.61 31.27,343.36 31.4,343.16 31.49,342.94 31.59,342.72 31.68,342.48 31.75,342.24 32.32,340.31 32.57,338.25 32.5,336.24 32.44,335.25 32.31,334.21 31.85,333.42 31.74,333.23 31.58,333.05 31.44,332.96 31.35,332.91 31.16,332.79 31.06,332.67 30.95,332.55 30.86,332.43 30.79,332.3 30.5,331.81 30.32,331.31 30.15,330.81 29.53,328.81 29.18,326.77 28.83,324.74 28.49,322.7 28.21,320.66 27.96,318.61 27.48,314.52 27.08,310.42 26.84,306.3 26.24,298.1 25.55,289.9 24.86,281.7 24.52,277.6 24.18,273.5 23.77,269.41 23.48,267.36 23.62,265.28 23.81,263.23 24.02,261.18 24.32,259.15 24.7,257.12 L 24.77,257.13 Z M 24.77,257.13" />
            <path id="joe06Canvas-bezier68" stroke="none" fill="rgb(51, 91, 113)" d="M 29.58,356.28 C 29.39,355.46 29.48,354.56 29.92,353.8 30.35,353.04 31.14,352.53 31.96,352.26 32.78,351.98 33.65,351.88 34.5,351.86 35.35,351.86 36.2,351.88 37.05,351.97 37.9,352.06 38.76,352.19 39.59,352.46 40.42,352.74 41.26,353.16 41.84,353.92 42.43,354.68 42.52,355.76 42.22,356.57 41.96,357.38 41.65,358.23 40.97,358.8 L 40.92,358.74 C 41.17,358.42 41.33,358.03 41.45,357.65 41.58,357.26 41.67,356.86 41.74,356.46 41.91,355.67 41.78,354.91 41.28,354.35 40.82,353.78 40.1,353.4 39.36,353.12 38.61,352.83 37.8,352.65 36.98,352.53 35.35,352.33 33.64,352.15 32.06,352.59 31.29,352.81 30.54,353.23 30.1,353.91 29.65,354.59 29.51,355.46 29.65,356.27 L 29.58,356.28 Z M 29.58,356.28" />
            <path id="joe06Canvas-bezier69" stroke="none" fill="rgb(51, 91, 113)" d="M 29.9,356.98 L 40.03,359.88 C 40.08,359.89 40.12,359.95 40.1,360.01 40.09,360.06 40.04,360.09 39.99,360.09 36.61,360.1 33.21,360.09 29.83,360.14 L 29.67,360.15 29.59,360.15 C 29.58,360.15 29.57,360.15 29.58,360.15 29.59,360.15 29.56,360.16 29.6,360.14 29.72,360.16 29.74,359.82 29.66,359.85 29.64,359.83 29.62,359.81 29.59,359.81 29.58,359.8 29.6,359.81 29.6,359.81 29.73,359.84 29.82,359.87 29.92,359.91 L 30.53,360.11 31.73,360.52 34.13,361.36 38.92,363.07 C 39.04,363.11 39.11,363.24 39.06,363.36 39.03,363.46 38.92,363.52 38.82,363.51 L 28.22,362.56 28.34,362 38.47,365.11 C 38.66,365.16 38.76,365.36 38.7,365.54 38.66,365.71 38.49,365.8 38.33,365.79 35.1,365.46 31.86,365.13 28.64,364.85 L 28.35,364.84 28.3,364.83 C 28.3,364.83 28.28,364.84 28.3,364.83 L 28.33,364.83 28.34,364.83 C 28.74,364.54 28.45,364.75 28.54,364.69 28.5,364.73 28.63,364.6 28.58,364.43 28.57,364.35 28.52,364.29 28.48,364.26 L 28.46,364.24 28.44,364.23 28.54,364.28 29.1,364.49 30.24,364.9 32.54,365.68 37.15,367.24 37.16,367.24 C 37.28,367.28 37.35,367.42 37.31,367.54 37.27,367.65 37.17,367.71 37.06,367.7 33.85,367.34 30.65,366.95 27.45,366.56 L 27.45,366.48 C 30.67,366.71 33.89,366.96 37.1,367.23 L 37.01,367.69 C 35.45,367.23 33.9,366.74 32.35,366.25 L 30.03,365.5 28.87,365.11 C 28.68,365.05 28.49,364.98 28.28,364.9 28.23,364.87 28.19,364.86 28.11,364.82 L 28.05,364.79 28.03,364.76 C 27.99,364.73 27.94,364.67 27.92,364.59 27.88,364.41 27.99,364.27 27.96,364.32 28.06,364.25 27.77,364.46 28.17,364.17 L 28.19,364.16 28.23,364.16 28.28,364.15 28.37,364.15 28.69,364.17 C 30.33,364.28 31.94,364.45 33.56,364.61 L 38.41,365.09 38.26,365.77 28.17,362.55 C 28.02,362.5 27.93,362.34 27.98,362.19 28.02,362.05 28.15,361.97 28.28,361.99 L 38.87,363.06 38.77,363.5 34,361.75 31.61,360.88 30.41,360.46 29.81,360.25 29.53,360.16 29.5,360.16 C 29.47,360.15 29.43,360.13 29.41,360.11 29.34,360.14 29.35,359.79 29.48,359.81 29.53,359.79 29.5,359.8 29.51,359.8 L 29.57,359.79 29.66,359.79 29.82,359.79 C 33.22,359.78 36.61,359.84 40,359.87 L 39.97,360.09 29.88,357.05 29.9,356.98 Z M 29.9,356.98" />
            <path id="joe06Canvas-bezier70" stroke="none" fill="rgb(51, 91, 113)" d="M 33.73,369.32 C 32.43,369.15 31.19,368.86 29.91,368.75 28.64,368.63 27.34,368.6 26.11,368.9 25.5,369.06 24.91,369.32 24.47,369.75 24.02,370.17 23.69,370.72 23.47,371.3 23.03,372.46 22.92,373.77 23.22,374.97 23.37,375.55 23.66,376.14 24.13,376.46 24.37,376.62 24.64,376.7 24.94,376.71 25.27,376.72 25.59,376.76 25.91,376.79 L 29.74,377.24 C 32.28,377.49 34.87,377.7 37.36,377.31 37.98,377.21 38.58,377.05 39.13,376.8 39.4,376.67 39.65,376.52 39.88,376.33 40.13,376.13 40.36,375.93 40.59,375.71 41.51,374.86 42.37,373.91 43.2,372.94 L 45.7,370.03 C 46.13,369.54 46.55,369.06 47.02,368.6 47.27,368.37 47.49,368.14 47.83,367.93 47.92,367.88 48.01,367.83 48.17,367.79 48.33,367.77 48.32,367.78 48.4,367.76 48.54,367.74 48.68,367.7 48.83,367.65 49.97,367.27 51.06,366.58 51.85,365.66 52.65,364.73 53.07,363.54 53.08,362.31 53.02,361.08 52.89,359.77 52.87,358.49 52.86,357.21 52.87,355.93 52.98,354.65 L 53.05,354.66 C 53.01,357.22 53.3,359.73 53.57,362.3 53.64,363.63 53.17,365 52.32,366.04 51.46,367.09 50.33,367.86 49.05,368.32 48.89,368.37 48.72,368.42 48.54,368.46 48.47,368.47 48.3,368.49 48.3,368.49 48.3,368.49 48.24,368.51 48.2,368.54 47.98,368.67 47.75,368.89 47.53,369.11 47.09,369.55 46.67,370.03 46.26,370.51 L 43.73,373.4 C 42.87,374.36 41.99,375.31 41.02,376.18 40.78,376.39 40.53,376.61 40.26,376.81 40,377.02 39.69,377.2 39.38,377.34 38.75,377.62 38.1,377.77 37.45,377.87 34.84,378.24 32.25,377.97 29.69,377.69 L 25.87,377.19 C 25.55,377.15 25.23,377.12 24.92,377.1 24.58,377.09 24.21,376.98 23.92,376.77 23.33,376.35 23.04,375.69 22.87,375.05 22.58,373.76 22.72,372.41 23.2,371.2 23.45,370.59 23.81,370.02 24.3,369.57 24.79,369.11 25.42,368.85 26.05,368.7 28.64,368.15 31.23,368.82 33.72,369.25 L 33.73,369.32 Z M 33.73,369.32" />
            <path id="joe06Canvas-bezier71" stroke="none" fill="rgb(51, 91, 113)" d="M 44,356.98 C 44.75,357.1 45.5,357.26 46.23,357.52 46.59,357.67 46.95,357.83 47.27,358.13 47.43,358.28 47.78,358.25 48.1,358.14 48.76,357.93 49.34,357.47 49.9,357.06 50.44,356.62 50.97,356.14 51.22,355.43 L 51.29,355.43 C 51.37,355.82 51.27,356.25 51.09,356.61 50.91,356.98 50.65,357.3 50.37,357.58 49.79,358.15 49.05,358.5 48.25,358.69 48.04,358.73 47.83,358.76 47.61,358.74 47.49,358.73 47.37,358.71 47.26,358.66 47.2,358.65 47.13,358.61 47.07,358.56 47,358.51 47.01,358.51 46.94,358.44 46.73,358.2 46.41,358.01 46.08,357.84 45.43,357.51 44.71,357.26 43.99,357.05 L 44,356.98 Z M 44,356.98" />
            <path id="joe06Canvas-bezier72" stroke="none" fill="rgb(51, 91, 113)" d="M 97.4,356.27 C 97.55,355.45 97.4,354.57 96.94,353.89 96.47,353.21 95.72,352.8 94.93,352.58 93.33,352.15 91.61,352.33 89.95,352.53 89.12,352.65 88.31,352.83 87.54,353.11 86.79,353.39 86.05,353.76 85.57,354.33 85.05,354.88 84.91,355.64 85.08,356.44 85.15,356.85 85.24,357.25 85.37,357.64 85.5,358.03 85.66,358.42 85.92,358.74 L 85.88,358.79 C 85.18,358.23 84.86,357.37 84.6,356.55 84.3,355.73 84.41,354.63 85.02,353.88 85.63,353.13 86.48,352.72 87.31,352.45 88.16,352.19 89.02,352.05 89.88,351.97 90.74,351.88 91.6,351.85 92.46,351.86 93.32,351.88 94.2,351.98 95.03,352.25 95.86,352.52 96.66,353.02 97.12,353.78 97.58,354.54 97.67,355.45 97.47,356.28 L 97.4,356.27 Z M 97.4,356.27" />
            <path id="joe06Canvas-bezier73" stroke="none" fill="rgb(51, 91, 113)" d="M 97.17,357.05 L 86.89,360.09 86.86,359.87 C 90.32,359.84 93.76,359.78 97.22,359.79 L 97.39,359.79 97.47,359.79 97.52,359.8 97.54,359.8 97.56,359.8 C 97.58,359.73 97.78,360.01 97.67,360.09 97.59,360.17 97.52,360.16 97.54,360.16 97.46,360.18 97.35,360.22 97.25,360.25 L 96.64,360.45 95.42,360.88 92.98,361.75 88.12,363.5 88.02,363.06 98.8,361.99 C 98.96,361.97 99.1,362.09 99.12,362.24 99.13,362.38 99.04,362.51 98.91,362.55 L 88.63,365.78 88.49,365.09 93.43,364.61 C 95.07,364.45 96.71,364.28 98.38,364.17 L 98.7,364.16 98.79,364.15 C 98.81,364.16 98.83,364.15 98.9,364.17 98.99,364.23 98.71,364.02 99.12,364.31 L 99.12,364.32 C 99.1,364.27 99.23,364.48 99.15,364.63 99.12,364.71 99.06,364.76 99.04,364.78 L 99.02,364.79 99,364.81 C 98.89,364.87 98.86,364.87 98.8,364.9 98.6,364.98 98.4,365.04 98.2,365.11 L 97.02,365.5 94.65,366.25 C 93.08,366.74 91.5,367.23 89.91,367.69 L 89.81,367.23 C 93.09,366.96 96.37,366.71 99.65,366.49 L 99.65,366.56 C 96.39,366.96 93.13,367.34 89.86,367.7 89.73,367.72 89.61,367.62 89.6,367.49 89.58,367.38 89.66,367.27 89.76,367.24 L 89.77,367.24 94.47,365.68 96.82,364.89 97.98,364.49 C 98.18,364.42 98.37,364.35 98.55,364.27 98.58,364.26 98.65,364.23 98.63,364.23 L 98.62,364.24 98.62,364.25 C 98.59,364.27 98.54,364.31 98.51,364.39 98.43,364.53 98.58,364.74 98.55,364.69 L 98.55,364.69 C 98.95,364.97 98.66,364.77 98.76,364.83 98.8,364.84 98.79,364.84 98.78,364.84 L 98.72,364.84 98.42,364.86 C 95.15,365.14 91.85,365.46 88.56,365.79 88.37,365.81 88.2,365.67 88.17,365.48 88.16,365.31 88.26,365.16 88.42,365.11 L 98.75,362 98.86,362.56 88.06,363.52 C 87.94,363.53 87.82,363.44 87.81,363.31 87.8,363.2 87.87,363.1 87.96,363.07 L 92.85,361.36 95.3,360.52 96.52,360.1 97.14,359.9 C 97.25,359.87 97.34,359.84 97.47,359.81 97.5,359.81 97.45,359.79 97.38,359.87 97.26,359.94 97.46,360.23 97.48,360.15 L 97.48,360.15 97.48,360.15 97.45,360.15 97.38,360.15 97.22,360.14 C 93.77,360.09 90.32,360.1 86.87,360.09 86.81,360.09 86.76,360.04 86.76,359.98 86.76,359.94 86.79,359.89 86.84,359.88 L 97.15,356.98 97.17,357.05 Z M 97.17,357.05" />
            <path id="joe06Canvas-bezier74" stroke="none" fill="rgb(51, 91, 113)" d="M 93.26,369.25 C 95.78,368.82 98.4,368.17 101.01,368.68 101.65,368.83 102.29,369.07 102.81,369.52 103.32,369.96 103.69,370.54 103.95,371.14 104.46,372.36 104.61,373.73 104.31,375.04 104.15,375.68 103.85,376.35 103.25,376.77 102.96,376.98 102.58,377.09 102.24,377.1 101.92,377.12 101.6,377.15 101.28,377.19 L 97.41,377.69 C 94.83,377.97 92.21,378.23 89.57,377.89 88.91,377.79 88.25,377.65 87.62,377.39 87.3,377.26 86.99,377.1 86.7,376.89 86.43,376.69 86.17,376.48 85.92,376.26 84.93,375.4 84.03,374.45 83.15,373.49 L 80.56,370.59 C 80.14,370.11 79.71,369.62 79.26,369.18 79.04,368.96 78.81,368.74 78.58,368.59 78.53,368.55 78.47,368.52 78.44,368.5 78.42,368.49 78.4,368.49 78.41,368.49 L 78.28,368.48 C 78.09,368.45 77.92,368.4 77.76,368.35 76.45,367.92 75.29,367.16 74.4,366.13 73.5,365.11 72.99,363.74 73.04,362.39 73.3,359.78 73.62,357.25 73.56,354.66 L 73.63,354.65 C 73.75,355.94 73.76,357.24 73.74,358.54 73.72,359.18 73.69,359.83 73.65,360.48 73.62,361.12 73.52,361.78 73.53,362.39 73.55,363.63 74.02,364.83 74.86,365.74 75.68,366.64 76.8,367.33 77.96,367.68 78.1,367.72 78.25,367.76 78.38,367.78 L 78.5,367.79 C 78.59,367.8 78.65,367.82 78.7,367.85 78.82,367.89 78.9,367.94 78.98,368 79.29,368.21 79.53,368.44 79.77,368.67 80.25,369.14 80.68,369.62 81.12,370.11 L 83.67,373.03 C 84.52,373.99 85.4,374.94 86.34,375.79 86.58,376.01 86.82,376.21 87.07,376.4 87.3,376.57 87.57,376.72 87.85,376.84 88.41,377.08 89.03,377.23 89.66,377.33 92.18,377.7 94.79,377.48 97.36,377.23 L 101.23,376.79 C 101.56,376.76 101.88,376.72 102.22,376.71 102.52,376.7 102.79,376.62 103.03,376.46 103.52,376.13 103.81,375.55 103.97,374.95 104.27,373.75 104.15,372.42 103.69,371.25 103.45,370.67 103.11,370.12 102.64,369.71 102.18,369.29 101.58,369.04 100.96,368.89 99.71,368.6 98.4,368.64 97.11,368.75 95.82,368.86 94.56,369.15 93.25,369.32 L 93.26,369.25 Z M 93.26,369.25" />
            <path id="joe06Canvas-bezier75" stroke="none" fill="rgb(51, 91, 113)" d="M 82.79,357.05 C 82.06,357.25 81.33,357.51 80.67,357.84 80.34,358 80.01,358.2 79.79,358.44 79.73,358.5 79.72,358.51 79.67,358.55 79.61,358.6 79.53,358.64 79.48,358.66 79.36,358.71 79.24,358.73 79.13,358.74 78.9,358.76 78.68,358.73 78.48,358.69 77.67,358.51 76.91,358.16 76.32,357.6 76.03,357.31 75.76,357 75.58,356.63 75.38,356.26 75.28,355.83 75.36,355.43 L 75.43,355.43 C 75.68,356.15 76.22,356.62 76.78,357.06 77.35,357.48 77.94,357.93 78.61,358.15 78.94,358.25 79.3,358.29 79.46,358.12 79.79,357.82 80.16,357.66 80.53,357.52 81.27,357.25 82.02,357.09 82.78,356.98 L 82.79,357.05 Z M 82.79,357.05" />
            <path id="joe06Canvas-bezier76" stroke="none" fill="rgb(51, 91, 113)" d="M 42.84,353.14 C 43.86,352.91 44.89,352.71 45.93,352.55 46.98,352.41 48.03,352.29 49.11,352.32 49.38,352.33 49.65,352.35 49.93,352.4 50.21,352.46 50.51,352.52 50.81,352.75 50.88,352.81 50.95,352.89 51.01,352.98 51.03,353.01 51.08,353.1 51.11,353.12 51.15,353.16 51.24,353.24 51.31,353.3 51.47,353.42 51.68,353.52 51.91,353.59 52.81,353.91 53.87,353.98 54.91,354.08 L 54.92,354.15 C 54.41,354.31 53.88,354.38 53.34,354.41 52.8,354.44 52.25,354.41 51.69,354.26 51.42,354.18 51.14,354.07 50.88,353.89 50.75,353.79 50.64,353.69 50.52,353.53 50.46,353.45 50.45,353.42 50.4,353.34 50.39,353.32 50.37,353.3 50.35,353.27 50.11,353.05 49.55,352.94 49.07,352.88 48.06,352.78 47.01,352.83 45.97,352.9 44.93,352.96 43.89,353.07 42.85,353.21 L 42.84,353.14 Z M 42.84,353.14" />
            <path id="joe06Canvas-bezier77" stroke="none" fill="rgb(51, 91, 113)" d="M 54.34,352.57 C 54.58,349.84 54.76,347.1 54.88,344.36 55,341.63 55.1,338.87 54.91,336.16 54.85,335.49 54.77,334.81 54.61,334.18 54.44,333.52 54.22,332.9 53.97,332.26 53.47,331 52.91,329.75 52.39,328.47 51.9,327.18 51.43,325.87 51.17,324.49 50.91,323.12 50.87,321.69 51.22,320.34 L 51.29,320.36 C 51,323.11 51.96,325.72 53.05,328.2 53.58,329.46 54.16,330.71 54.63,332.02 54.86,332.67 55.07,333.35 55.23,334.03 55.38,334.74 55.43,335.43 55.47,336.13 55.6,338.9 55.43,341.64 55.24,344.38 55.02,347.12 54.74,349.85 54.41,352.58 L 54.34,352.57 Z M 54.34,352.57" />
            <path id="joe06Canvas-bezier78" stroke="none" fill="rgb(51, 91, 113)" d="M 54,324.8 C 53.92,322.15 53.71,319.51 53.33,316.89 53.13,315.59 52.89,314.29 52.56,313.01 52.22,311.74 51.81,310.47 51.1,309.38 50.37,308.23 49.98,306.93 49.63,305.64 49.29,304.35 49.03,303.05 48.82,301.73 48.4,299.11 48.16,296.45 48.05,293.8 47.93,291.14 47.94,288.48 48.17,285.82 48.29,284.49 48.48,283.15 48.77,281.85 49.05,280.56 49.32,279.26 49.57,277.97 50.07,275.38 50.46,272.76 50.4,270.14 50.34,267.54 49.71,264.9 48.25,262.67 L 48.31,262.63 C 49.1,263.7 49.73,264.9 50.16,266.18 50.58,267.45 50.8,268.78 50.89,270.12 51.06,272.8 50.7,275.47 50.26,278.09 50.03,279.4 49.76,280.7 49.49,282 49.2,283.29 49,284.57 48.87,285.88 48.6,288.5 48.54,291.14 48.61,293.78 48.69,296.41 48.9,299.05 49.28,301.66 49.47,302.97 49.7,304.27 50.02,305.54 50.35,306.81 50.72,308.09 51.4,309.2 52.12,310.35 52.51,311.65 52.83,312.94 53.15,314.24 53.36,315.55 53.54,316.86 53.87,319.5 54.03,322.15 54.07,324.8 L 54,324.8 Z M 54,324.8" />
            <path id="joe06Canvas-bezier79" stroke="none" fill="rgb(51, 91, 113)" d="M 49.66,261.58 C 49.3,251.79 49.06,241.99 49.02,232.19 48.99,227.29 48.97,222.38 49.18,217.48 49.31,215.03 49.44,212.58 49.69,210.13 49.81,208.91 49.95,207.69 50.15,206.48 50.38,205.27 50.57,204.04 51.13,202.92 L 51.19,202.95 C 50.72,204.08 50.62,205.32 50.47,206.52 50.34,207.74 50.25,208.95 50.18,210.17 50.04,212.61 49.94,215.06 49.89,217.5 49.77,222.39 49.63,227.29 49.58,232.19 49.54,237.08 49.54,241.98 49.57,246.88 49.59,251.78 49.64,256.68 49.73,261.57 L 49.66,261.58 Z M 49.66,261.58" />
            <path id="joe06Canvas-bezier80" stroke="none" fill="rgb(51, 91, 113)" d="M 52.17,206.57 C 52.87,212.44 53.61,218.3 54.39,224.16 55.17,230.01 55.99,235.86 56.92,241.69 57.4,244.6 57.9,247.51 58.49,250.4 58.78,251.84 59.08,253.29 59.47,254.69 59.66,255.39 59.87,256.1 60.18,256.72 60.31,256.97 60.57,257.33 60.74,257.65 60.93,257.98 61.1,258.31 61.27,258.65 62.54,261.37 63.43,264.21 64.16,267.08 64.52,268.52 64.83,269.97 65.07,271.44 65.27,272.9 65.5,274.39 65.33,275.87 L 65.26,275.86 C 65.34,274.4 65.03,272.93 64.75,271.5 64.45,270.05 64.09,268.62 63.68,267.21 62.86,264.39 61.94,261.57 60.63,258.96 60.47,258.64 60.3,258.31 60.12,258 59.94,257.67 59.76,257.43 59.54,257.04 59.19,256.32 58.99,255.6 58.79,254.88 58.39,253.44 58.09,251.99 57.8,250.53 57.25,247.62 56.79,244.7 56.36,241.78 54.64,230.08 53.31,218.34 52.1,206.58 L 52.17,206.57 Z M 52.17,206.57" />
            <path id="joe06Canvas-bezier81" stroke="none" fill="rgb(51, 91, 113)" d="M 63.3,271.28 C 63.22,274.48 63.27,277.7 63.82,280.84 63.97,281.62 64.16,282.4 64.46,283.13 64.6,283.49 64.78,283.85 65.02,284.15 65.14,284.3 65.26,284.43 65.42,284.56 65.58,284.69 65.73,284.88 65.83,285.05 66.27,285.76 66.51,286.53 66.74,287.3 66.97,288.08 67.15,288.86 67.31,289.65 67.93,292.81 68.29,296 68.57,299.19 68.7,300.79 68.81,302.39 68.88,303.99 68.94,305.6 69.01,307.19 68.88,308.83 68.74,309.63 68.78,310.38 68.8,311.18 68.83,311.98 68.88,312.77 68.94,313.57 69.05,315.16 69.2,316.75 69.37,318.34 69.67,321.52 70.03,324.7 70.44,327.87 70.82,331.05 71.25,334.22 71.8,337.36 71.94,338.14 72.09,338.93 72.28,339.69 72.39,340.07 72.49,340.46 72.66,340.79 72.86,341.14 73.02,341.54 73.13,341.93 73.55,343.53 73.29,345.24 72.51,346.66 L 72.45,346.62 C 73.14,345.2 73.3,343.5 72.82,342.02 72.7,341.65 72.55,341.31 72.34,340.96 72.12,340.59 72.01,340.19 71.89,339.8 71.66,339.02 71.48,338.24 71.31,337.45 70.66,334.31 70.2,331.13 69.74,327.96 69.33,324.78 68.97,321.6 68.67,318.41 68.53,316.81 68.4,315.21 68.3,313.61 68.26,312.81 68.22,312.01 68.2,311.2 68.18,310.41 68.17,309.55 68.32,308.77 68.45,307.21 68.41,305.6 68.37,304.01 68.31,302.41 68.23,300.82 68.11,299.23 67.87,296.04 67.54,292.86 66.96,289.72 66.81,288.94 66.64,288.16 66.44,287.39 66.22,286.63 65.99,285.86 65.59,285.2 65.48,285.02 65.39,284.89 65.24,284.76 65.09,284.64 64.92,284.47 64.8,284.31 64.55,283.97 64.37,283.6 64.22,283.22 63.93,282.46 63.75,281.67 63.62,280.88 63.11,277.7 63.1,274.48 63.23,271.28 L 63.3,271.28 Z M 63.3,271.28" />
            <path id="joe06Canvas-bezier82" stroke="none" fill="rgb(51, 91, 113)" d="M 71.3,343.26 C 71.52,345.62 71.7,347.98 71.71,350.37 71.71,350.96 71.72,351.57 71.6,352.19 71.52,352.65 71.67,353.2 71.85,353.73 72.21,354.81 72.74,355.86 73.24,356.94 L 73.18,356.98 C 72.35,356.11 71.67,355.11 71.18,353.97 70.97,353.4 70.75,352.76 70.92,352.05 71.06,351.52 71.1,350.93 71.15,350.35 71.21,349.18 71.23,348 71.23,346.82 71.25,345.63 71.25,344.45 71.23,343.27 L 71.3,343.26 Z M 71.3,343.26" />
            <path id="joe06Canvas-bezier83" stroke="none" fill="rgb(51, 91, 113)" d="M 77.22,353.34 C 78.02,353.08 78.83,352.89 79.67,352.8 80.09,352.76 80.52,352.67 80.95,352.76 81.37,352.85 81.81,353.01 82.13,353.34 L 82.1,353.41 C 81.66,353.45 81.28,353.46 80.88,353.46 80.49,353.48 80.1,353.38 79.69,353.36 78.89,353.33 78.06,353.35 77.24,353.41 L 77.22,353.34 Z M 77.22,353.34" />
            <path id="joe06Canvas-bezier84" stroke="none" fill="rgb(51, 91, 113)" d="M 98.38,352.54 C 98.72,352.38 99.05,352.16 99.29,351.88 99.54,351.6 99.65,351.23 99.52,350.9 99.24,350.23 98.53,349.82 97.89,349.46 97.21,349.13 96.49,348.76 95.86,348.28 95.23,347.8 94.66,347.26 94.14,346.67 93.11,345.48 92.24,344.1 91.84,342.55 91.66,341.77 91.55,340.97 91.63,340.17 91.71,339.37 91.99,338.57 92.53,337.99 L 92.59,338.03 C 91.89,339.41 92.07,340.96 92.52,342.36 92.98,343.76 93.65,345.12 94.58,346.31 95.04,346.89 95.57,347.44 96.15,347.92 96.73,348.41 97.37,348.78 98.06,349.16 98.4,349.36 98.72,349.59 99.02,349.85 99.31,350.12 99.6,350.43 99.72,350.83 99.85,351.25 99.68,351.7 99.39,351.97 99.11,352.26 98.77,352.46 98.41,352.61 L 98.38,352.54 Z M 98.38,352.54" />
            <path id="joe06Canvas-bezier85" stroke="none" fill="rgb(51, 91, 113)" d="M 94.56,342.18 C 95.06,339.52 95.29,336.81 95.32,334.11 95.35,331.41 95.17,328.7 94.67,326.05 93.53,320.76 92.2,315.49 91.14,310.17 90.62,307.51 90.1,304.84 89.92,302.09 89.86,299.34 90,296.66 89.95,293.95 89.93,291.26 89.79,288.56 89.41,285.89 89.21,284.56 88.95,283.24 88.55,281.95 88.16,280.67 87.63,279.41 86.83,278.31 L 86.89,278.27 C 88.62,280.42 89.38,283.15 89.89,285.81 90.39,288.5 90.57,291.22 90.66,293.94 90.68,295.3 90.68,296.66 90.67,298.02 90.66,299.37 90.59,300.74 90.62,302.06 90.75,304.73 91.22,307.41 91.7,310.06 92.69,315.39 93.94,320.66 95.01,325.98 95.47,328.67 95.61,331.4 95.54,334.11 95.45,336.83 95.17,339.53 94.63,342.19 L 94.56,342.18 Z M 94.56,342.18" />
            <path id="joe06Canvas-bezier86" stroke="none" fill="rgb(51, 91, 113)" d="M 84.69,280.3 L 86.11,276.84 86.83,275.11 C 87.05,274.54 87.19,273.93 87.32,273.33 87.8,270.89 87.83,268.36 87.31,265.94 87.05,264.73 86.65,263.55 86.11,262.44 85.84,261.89 85.5,261.36 85.24,260.78 84.98,260.21 84.76,259.62 84.58,259.01 83.86,256.59 83.75,254.05 83.86,251.56 83.99,249.06 84.36,246.58 84.83,244.13 85.07,242.9 85.33,241.68 85.6,240.47 85.88,239.24 86.2,238.05 86.35,236.83 86.67,234.37 86.79,231.88 86.87,229.4 86.94,226.92 86.95,224.43 86.92,221.94 86.85,216.97 86.66,211.99 86.22,207.04 86.11,205.81 85.98,204.57 85.8,203.36 85.71,202.75 85.6,202.14 85.45,201.56 85.41,201.42 85.37,201.28 85.32,201.14 85.27,200.99 85.21,200.82 85.17,200.67 85.09,200.36 85.02,200.05 84.95,199.74 84.44,197.28 84.1,194.81 83.75,192.34 83.1,187.4 82.51,182.46 81.83,177.53 81.49,175.06 81.12,172.6 80.69,170.15 80.49,168.92 80.26,167.7 80,166.48 79.73,165.27 79.44,164.05 78.96,162.91 L 79.03,162.88 C 79.55,164.02 79.88,165.23 80.19,166.44 80.5,167.65 80.76,168.87 81.01,170.09 81.49,172.54 81.89,175 82.28,177.46 83.05,182.39 83.72,187.32 84.45,192.25 84.8,194.71 85.14,197.18 85.64,199.6 85.7,199.9 85.77,200.2 85.85,200.49 85.89,200.63 85.93,200.76 85.98,200.91 86.04,201.06 86.09,201.23 86.13,201.38 86.3,202.01 86.4,202.63 86.5,203.25 86.68,204.5 86.81,205.74 86.92,206.98 87.32,211.97 87.47,216.95 87.49,221.94 87.5,224.43 87.47,226.93 87.38,229.42 87.28,231.91 87.15,234.41 86.81,236.89 86.65,238.14 86.3,239.36 86.03,240.56 85.74,241.77 85.47,242.99 85.23,244.21 84.75,246.64 84.36,249.1 84.22,251.58 84.08,254.04 84.17,256.55 84.85,258.93 85.02,259.53 85.23,260.11 85.48,260.67 85.73,261.23 86.06,261.76 86.33,262.33 86.87,263.47 87.27,264.67 87.52,265.9 88.02,268.36 87.97,270.91 87.46,273.35 87.32,273.97 87.17,274.57 86.94,275.16 L 86.21,276.88 84.76,280.33 84.69,280.3 Z M 84.69,280.3" />
            <path id="joe06Canvas-bezier87" stroke="none" fill="rgb(51, 91, 113)" d="M 70.85,174.46 C 71.62,174.33 72.37,174.15 73.11,173.93 73.85,173.73 74.59,173.49 75.29,173.19 75.99,172.9 76.63,172.5 77.26,172.13 77.9,171.75 78.48,171.32 78.96,170.71 L 79.03,170.73 C 78.89,171.54 78.31,172.23 77.66,172.71 77.01,173.22 76.23,173.47 75.48,173.72 73.97,174.2 72.42,174.45 70.86,174.53 L 70.85,174.46 Z M 70.85,174.46" />
            <path id="joe06Canvas-bezier88" stroke="none" fill="rgb(51, 91, 113)" d="M 6.91,118.8 L 6.89,128.72 C 6.9,130.37 6.96,132.03 6.92,133.68 L 6.86,136.15 C 6.84,136.56 6.83,136.97 6.83,137.38 6.83,137.79 6.8,138.22 6.9,138.59 L 6.85,138.63 C 6.48,137.83 6.47,136.99 6.36,136.16 6.28,135.34 6.26,134.51 6.22,133.68 6.16,132.02 6.26,130.37 6.33,128.71 6.45,125.4 6.62,122.1 6.84,118.8 L 6.91,118.8 Z M 6.91,118.8" />
            <path id="joe06Canvas-bezier89" stroke="none" fill="rgb(51, 91, 113)" d="M 69.3,94.56 C 69.28,94.92 69.26,95.29 69.18,95.66 69.15,95.84 69.1,96.03 69,96.21 68.89,96.37 68.76,96.58 68.43,96.6 68.36,96.61 68.16,96.55 68.08,96.49 67.98,96.41 67.91,96.33 67.84,96.25 67.72,96.07 67.63,95.89 67.56,95.7 67.43,95.33 67.37,94.95 67.35,94.56 67.33,94.18 67.35,93.77 67.45,93.38 67.5,93.18 67.57,92.98 67.71,92.78 67.83,92.59 68.06,92.34 68.45,92.33 68.57,92.33 68.81,92.43 68.9,92.52 69.01,92.61 69.08,92.72 69.13,92.82 69.23,93.02 69.27,93.23 69.29,93.42 69.34,93.82 69.31,94.19 69.3,94.56 Z M 69.23,94.56 C 69.22,94.19 69.1,93.84 68.93,93.53 68.85,93.38 68.75,93.24 68.64,93.15 68.6,93.1 68.54,93.06 68.5,93.04 68.44,93.03 68.51,93.05 68.45,93.04 68.46,93.01 68.2,93.28 68.12,93.58 68,93.88 67.94,94.21 67.92,94.56 67.9,94.9 67.92,95.25 68.01,95.57 68.08,95.88 68.24,96.23 68.47,96.25 68.52,96.27 68.69,96.19 68.78,96.06 68.88,95.94 68.97,95.78 69.04,95.62 69.18,95.28 69.24,94.92 69.23,94.56 Z M 69.23,94.56" />
            <path id="joe06Canvas-bezier90" stroke="none" fill="rgb(51, 91, 113)" d="M 68.48,114.48 C 68.43,114.84 68.38,115.2 68.27,115.56 68.22,115.75 68.15,115.93 68.04,116.1 67.93,116.25 67.75,116.44 67.46,116.44 67.35,116.44 67.18,116.37 67.1,116.3 67.01,116.22 66.94,116.13 66.89,116.04 66.78,115.85 66.71,115.66 66.66,115.47 66.56,115.09 66.53,114.71 66.54,114.31 66.56,113.94 66.61,113.53 66.74,113.14 66.81,112.95 66.9,112.76 67.05,112.57 67.21,112.4 67.39,112.16 67.87,112.2 67.91,112.21 67.94,112.21 68.06,112.27 68.17,112.32 68.2,112.36 68.26,112.41 68.36,112.52 68.42,112.63 68.46,112.73 68.54,112.94 68.57,113.15 68.57,113.35 68.59,113.74 68.52,114.11 68.48,114.48 Z M 68.41,114.47 C 68.43,114.11 68.35,113.74 68.2,113.43 68.07,113.11 67.81,112.83 67.72,112.89 67.82,112.9 67.68,112.92 67.62,113.03 67.54,113.13 67.46,113.26 67.39,113.4 67.25,113.7 67.16,114.01 67.11,114.37 67.06,114.69 67.05,115.05 67.11,115.38 67.15,115.69 67.3,116.06 67.49,116.09 67.69,116.14 67.98,115.81 68.14,115.51 68.3,115.19 68.39,114.83 68.41,114.47 Z M 68.41,114.47" />
            <path id="joe06Canvas-bezier91" stroke="none" fill="rgb(51, 91, 113)" d="M 66.86,133.08 C 66.84,133.44 66.81,133.81 66.74,134.18 66.71,134.36 66.65,134.55 66.55,134.73 66.46,134.89 66.3,135.1 66.01,135.12 65.9,135.13 65.73,135.07 65.64,135 65.54,134.93 65.46,134.85 65.4,134.76 65.27,134.59 65.19,134.41 65.12,134.22 64.99,133.85 64.93,133.46 64.91,133.08 64.89,132.7 64.91,132.29 65.01,131.89 65.06,131.7 65.13,131.49 65.26,131.29 65.39,131.11 65.61,130.86 66.01,130.85 66.13,130.85 66.37,130.95 66.46,131.04 66.57,131.13 66.63,131.24 66.69,131.34 66.79,131.54 66.83,131.74 66.85,131.94 66.9,132.34 66.86,132.71 66.86,133.08 Z M 66.79,133.08 C 66.77,132.71 66.66,132.36 66.49,132.05 66.35,131.75 66.01,131.48 66.01,131.56 66.02,131.53 65.76,131.8 65.68,132.1 65.56,132.4 65.5,132.73 65.48,133.08 65.46,133.42 65.48,133.77 65.56,134.09 65.63,134.4 65.82,134.75 66.01,134.77 66.21,134.8 66.47,134.44 66.6,134.14 66.74,133.8 66.8,133.44 66.79,133.08 Z M 66.79,133.08" />
            <path id="joe06Canvas-bezier92" stroke="none" fill="rgb(51, 91, 113)" d="M 66.03,156.08 C 65.95,156.43 65.86,156.79 65.72,157.14 65.65,157.31 65.56,157.49 65.44,157.65 65.31,157.79 65.12,157.96 64.83,157.94 64.72,157.93 64.56,157.84 64.49,157.76 64.4,157.67 64.34,157.58 64.29,157.48 64.2,157.29 64.15,157.09 64.12,156.9 64.05,156.51 64.06,156.12 64.11,155.73 64.16,155.36 64.26,154.96 64.42,154.59 64.51,154.4 64.62,154.22 64.78,154.04 64.94,153.88 65.21,153.68 65.59,153.74 65.71,153.76 65.94,153.9 66.01,154 66.09,154.11 66.14,154.23 66.18,154.34 66.24,154.56 66.24,154.76 66.23,154.96 66.2,155.35 66.1,155.72 66.03,156.08 Z M 65.96,156.06 C 66.01,155.7 65.96,155.33 65.85,155 65.77,154.68 65.48,154.36 65.47,154.43 65.48,154.41 65.18,154.63 65.05,154.91 64.87,155.18 64.76,155.49 64.67,155.83 64.6,156.16 64.55,156.51 64.58,156.84 64.59,157.16 64.71,157.54 64.89,157.59 65.09,157.66 65.41,157.35 65.59,157.07 65.78,156.77 65.91,156.42 65.96,156.06 Z M 65.96,156.06" />
        </g>
    </g>
</svg>
