<?xml version="1.0" encoding="UTF-8"?>
<!DOCTYPE svg PUBLIC "-//W3C//DTD SVG 1.1//EN" "http://www.w3.org/Graphics/SVG/1.1/DTD/svg11.dtd">
<svg version="1.1" xmlns="http://www.w3.org/2000/svg" xmlns:xlink="http://www.w3.org/1999/xlink" width="127" height="378"  xml:space="preserve" id="joe09Canvas">
    <!-- Generated by PaintCode - http://www.paintcodeapp.com -->
    <g id="joe09Canvas-lines">
        <g id="joe09Canvas-group2">
            <path id="joe09Canvas-bezier" stroke="none" fill="rgb(51, 91, 113)" d="M 11.95,227.56 C 11.99,230.43 12.06,233.3 12.16,236.16 12.25,239.03 12.37,241.89 12.53,244.75 12.71,247.61 12.95,250.47 13.21,253.31 13.33,254.74 13.5,256.16 13.72,257.56 13.83,258.27 13.96,258.97 14.15,259.65 14.24,259.99 14.34,260.33 14.49,260.65 14.64,260.95 14.83,261.29 15.16,261.39 L 15.15,261.45 C 14.76,261.38 14.52,261.03 14.34,260.73 14.16,260.41 14.02,260.07 13.89,259.73 13.65,259.05 13.47,258.35 13.31,257.64 13,256.23 12.81,254.8 12.63,253.37 12.29,250.52 12.17,247.64 12.06,244.77 11.85,239.04 11.81,233.3 11.89,227.56 L 11.95,227.56 11.95,227.56 Z M 11.95,227.56" />
            <path id="joe09Canvas-bezier2" stroke="none" fill="rgb(51, 91, 113)" d="M 17.18,256.06 C 18.47,256.23 19.63,256.98 20.52,257.91 21.43,258.86 22.15,259.94 22.86,261.02 L 24.95,264.24 C 25.62,265.33 26.36,266.35 27.16,267.37 L 27.12,267.41 C 26.07,266.63 25.23,265.62 24.46,264.58 23.7,263.52 23.1,262.38 22.46,261.27 21.81,260.17 21.15,259.07 20.31,258.12 19.49,257.16 18.43,256.37 17.17,256.12 L 17.18,256.06 Z M 17.18,256.06" />
            <path id="joe09Canvas-bezier3" stroke="none" fill="rgb(51, 91, 113)" d="M 17.2,262.58 C 16.72,263.82 16.36,265.12 16.21,266.45 16.14,267.11 16.13,267.78 16.27,268.43 16.4,269.07 16.72,269.68 17.28,270.03 17.56,270.22 17.8,270.51 17.92,270.85 18.04,271.18 18.05,271.54 18.01,271.89 17.92,272.57 17.65,273.2 17.38,273.82 17.25,274.13 17.11,274.43 16.99,274.74 16.88,275.03 16.75,275.39 16.84,275.6 16.88,275.7 17,275.74 17.15,275.76 17.28,275.75 17.62,275.82 17.67,276.09 17.72,276.33 17.65,276.5 17.6,276.67 17.53,276.83 17.46,276.99 17.39,277.14 16.76,278.34 16.07,279.48 15.7,280.74 15.31,281.99 15.3,283.38 15.97,284.49 16.05,284.63 16.14,284.76 16.23,284.89 16.33,285.03 16.43,285.18 16.52,285.33 16.69,285.63 16.83,285.95 16.96,286.26 17.22,286.89 17.42,287.54 17.6,288.19 17.96,289.49 18.23,290.81 18.47,292.13 19.41,297.43 19.87,302.79 20.01,308.16 20.04,310.85 20.03,313.54 19.68,316.22 19.59,316.89 19.45,317.57 19.26,318.21 19.09,318.85 18.93,319.5 18.79,320.15 18.66,320.8 18.54,321.46 18.56,322.12 18.58,322.44 18.63,322.78 18.86,323 19.08,323.23 19.44,323.25 19.76,323.35 L 19.74,323.4 C 19.43,323.32 19.07,323.33 18.78,323.09 18.51,322.84 18.43,322.46 18.4,322.13 18.34,321.44 18.43,320.77 18.53,320.1 18.64,319.44 18.78,318.78 18.93,318.12 19.1,317.47 19.21,316.83 19.28,316.17 19.54,313.52 19.51,310.84 19.43,308.17 19.36,305.5 19.2,302.83 18.96,300.17 18.74,297.51 18.45,294.85 18.01,292.21 17.79,290.9 17.53,289.59 17.19,288.3 17.02,287.66 16.83,287.02 16.59,286.41 16.46,286.11 16.33,285.81 16.18,285.53 16.1,285.38 16.02,285.26 15.92,285.12 15.82,284.98 15.72,284.83 15.64,284.68 15.3,284.07 15.1,283.38 15.08,282.68 15.05,281.98 15.17,281.29 15.37,280.64 15.78,279.33 16.5,278.17 17.12,277.01 17.26,276.73 17.44,276.39 17.4,276.16 17.38,276.08 17.31,276.04 17.13,276.03 16.95,276.01 16.71,275.94 16.6,275.72 16.51,275.5 16.56,275.31 16.59,275.14 16.64,274.96 16.69,274.8 16.76,274.64 16.89,274.33 17.03,274.03 17.17,273.72 17.44,273.12 17.71,272.5 17.81,271.86 17.85,271.54 17.84,271.21 17.74,270.91 17.64,270.61 17.44,270.36 17.18,270.17 16.59,269.79 16.24,269.12 16.12,268.46 15.99,267.79 16.01,267.1 16.09,266.43 16.27,265.1 16.65,263.8 17.15,262.55 L 17.2,262.58 Z M 17.2,262.58" />
            <path id="joe09Canvas-bezier4" stroke="none" fill="rgb(51, 91, 113)" d="M 19.78,325.78 C 20.51,328.58 21.21,331.4 21.85,334.23 22.48,337.06 23.07,339.9 23.52,342.78 23.74,344.22 23.94,345.66 23.95,347.15 23.94,347.52 23.92,347.9 23.84,348.29 23.78,348.5 23.73,348.65 23.7,348.81 23.67,348.98 23.65,349.15 23.63,349.32 23.55,350 23.6,350.71 23.71,351.4 23.91,352.81 24.34,354.19 24.81,355.55 25.3,356.9 25.85,358.24 26.49,359.54 L 26.44,359.57 C 25.65,358.34 25.01,357.04 24.43,355.7 23.87,354.35 23.4,352.96 23.13,351.5 23.01,350.77 22.95,350.01 23.02,349.25 23.04,349.06 23.07,348.87 23.11,348.68 23.15,348.49 23.22,348.29 23.25,348.15 23.33,347.84 23.35,347.49 23.36,347.14 23.4,345.72 23.23,344.28 23.05,342.85 22.67,339.98 22.14,337.13 21.56,334.29 21,331.45 20.38,328.62 19.72,325.79 L 19.78,325.78 Z M 19.78,325.78" />
            <path id="joe09Canvas-bezier5" stroke="none" fill="rgb(51, 91, 113)" d="M 31.96,355.75 C 31.84,355.45 31.94,355.09 32.13,354.84 32.31,354.57 32.56,354.36 32.81,354.18 33.33,353.82 33.9,353.55 34.49,353.33 35.66,352.89 36.89,352.63 38.13,352.49 38.76,352.42 39.39,352.38 40.02,352.39 40.65,352.41 41.3,352.5 41.92,352.73 42.52,352.97 43.11,353.35 43.5,353.9 43.88,354.44 44.08,355.11 43.99,355.75 L 43.94,355.74 C 43.85,355.14 43.57,354.58 43.18,354.16 42.79,353.74 42.28,353.45 41.72,353.29 40.62,352.95 39.38,352.91 38.17,352.96 36.96,353.03 35.75,353.24 34.58,353.61 34,353.79 33.43,354.01 32.91,354.33 32.65,354.49 32.41,354.67 32.22,354.91 32.03,355.14 31.92,355.44 32.01,355.74 L 31.96,355.75 Z M 31.96,355.75" />
            <path id="joe09Canvas-bezier6" stroke="none" fill="rgb(51, 91, 113)" d="M 34.14,356.86 L 45.06,357.9 45.71,357.97 45.08,358.15 35.81,360.88 35.75,360.5 45.04,360.43 46.49,360.42 45.13,360.94 C 42.78,361.85 40.42,362.76 38.06,363.65 L 37.95,363.06 C 40.32,363.06 42.68,363.09 45.04,363.12 L 46.83,363.14 45.1,363.59 C 43.69,363.96 42.26,364.3 40.84,364.66 39.42,365.01 37.99,365.33 36.57,365.67 L 36.55,365.62 C 37.96,365.2 39.35,364.76 40.76,364.35 42.17,363.94 43.57,363.52 44.98,363.13 L 45.04,363.6 C 42.68,363.63 40.32,363.67 37.95,363.66 L 36.3,363.66 37.85,363.08 C 40.21,362.18 42.58,361.32 44.95,360.45 L 45.04,360.96 35.75,360.89 34.36,360.88 35.7,360.51 45.01,357.91 45.03,358.16 34.13,356.92 34.14,356.86 Z M 34.14,356.86" />
            <path id="joe09Canvas-bezier7" stroke="none" fill="rgb(51, 91, 113)" d="M 24.86,359.58 C 24.69,359.76 24.65,360.08 24.61,360.34 24.58,360.62 24.58,360.9 24.59,361.18 24.59,361.75 24.64,362.31 24.7,362.87 24.76,363.43 24.89,363.99 24.91,364.55 24.94,365.12 24.95,365.69 24.88,366.28 L 24.82,366.29 C 24.57,365.75 24.44,365.19 24.33,364.62 24.22,364.06 24.24,363.48 24.23,362.9 24.23,362.32 24.24,361.75 24.29,361.17 24.33,360.88 24.37,360.59 24.44,360.31 24.52,360.04 24.58,359.73 24.84,359.53 L 24.86,359.58 Z M 24.86,359.58" />
            <path id="joe09Canvas-bezier8" stroke="none" fill="rgb(51, 91, 113)" d="M 46.52,377.68 C 47.21,377.63 47.9,377.56 48.53,377.33 48.84,377.21 49.13,377.04 49.33,376.79 49.53,376.54 49.64,376.22 49.7,375.9 49.81,375.24 49.8,374.54 49.81,373.85 49.82,373.16 49.84,372.48 49.8,371.79 49.71,370.44 49.45,369.08 48.89,367.9 48.62,367.31 48.22,366.78 47.7,366.39 47.18,366 46.53,365.78 45.85,365.67 L 45.85,365.62 C 46.55,365.55 47.28,365.68 47.92,366.05 48.56,366.41 49.05,367 49.41,367.63 50.11,368.92 50.24,370.38 50.27,371.78 50.28,372.48 50.23,373.18 50.19,373.87 50.15,374.56 50.14,375.25 49.98,375.96 49.9,376.3 49.76,376.66 49.51,376.94 49.26,377.22 48.92,377.39 48.59,377.5 47.91,377.7 47.21,377.72 46.53,377.73 L 46.52,377.68 Z M 46.52,377.68" />
            <path id="joe09Canvas-bezier9" stroke="none" fill="rgb(51, 91, 113)" d="M 26.49,364.26 C 26.06,365.46 25.74,366.7 25.54,367.95 25.36,369.19 25.27,370.5 25.63,371.69 25.81,372.27 26.13,372.81 26.62,373.17 27.12,373.56 27.63,373.92 28.17,374.24 29.24,374.9 30.39,375.43 31.57,375.84 33.94,376.67 36.45,377.05 38.95,377.32 41.45,377.6 43.98,377.64 46.52,377.68 L 46.53,377.74 C 44,378.03 41.44,378.08 38.9,377.91 36.35,377.72 33.81,377.2 31.41,376.29 30.21,375.83 29.05,375.27 27.97,374.57 27.43,374.22 26.91,373.84 26.41,373.44 25.88,373.02 25.53,372.4 25.35,371.77 25.01,370.49 25.15,369.17 25.37,367.92 25.61,366.66 25.97,365.43 26.44,364.24 L 26.49,364.26 Z M 26.49,364.26" />
            <path id="joe09Canvas-bezier10" stroke="none" fill="rgb(51, 91, 113)" d="M 45.03,354.7 C 45.53,354.33 45.98,353.84 46.26,353.29 46.55,352.73 46.62,352.08 46.4,351.52 46.19,350.96 45.69,350.54 45.22,350.13 44.73,349.72 44.23,349.32 43.75,348.88 42.78,348.02 41.89,346.99 41.37,345.76 40.85,344.53 40.62,343.21 40.7,341.91 L 40.76,341.91 C 41.01,343.17 41.32,344.4 41.9,345.51 42.45,346.62 43.17,347.65 44.07,348.54 44.52,348.99 45,349.4 45.47,349.84 45.93,350.29 46.45,350.74 46.68,351.42 46.89,352.08 46.76,352.81 46.42,353.37 46.08,353.94 45.6,354.4 45.06,354.75 L 45.03,354.7 Z M 45.03,354.7" />
            <path id="joe09Canvas-bezier11" stroke="none" fill="rgb(51, 91, 113)" d="M 45.01,346.72 C 45.59,344.37 46.02,341.97 46.08,339.56 46.1,338.37 46.04,337.13 45.6,336.06 45.48,335.79 45.34,335.54 45.16,335.33 44.99,335.13 44.73,334.95 44.51,334.71 44.08,334.25 43.73,333.73 43.43,333.19 42.25,331.01 41.6,328.62 41.19,326.21 40.8,323.8 40.6,321.36 40.71,318.93 L 40.76,318.93 C 40.99,321.35 41.28,323.75 41.76,326.11 42.25,328.46 42.76,330.84 43.85,332.96 44.12,333.49 44.44,333.99 44.83,334.42 45.01,334.64 45.26,334.8 45.47,335.07 45.68,335.33 45.83,335.61 45.95,335.91 46.41,337.1 46.42,338.35 46.38,339.57 46.23,342.01 45.73,344.4 45.07,346.74 L 45.01,346.72 Z M 45.01,346.72" />
            <path id="joe09Canvas-bezier12" stroke="none" fill="rgb(51, 91, 113)" d="M 38.69,318.92 C 39.36,317.2 39.91,315.42 40.28,313.61 40.66,311.8 40.81,309.95 40.44,308.13 39.84,304.48 39.14,300.84 38.57,297.17 38.28,295.34 38.01,293.5 37.81,291.65 37.61,289.8 37.46,287.94 37.57,286.05 37.6,285.58 37.65,285.11 37.74,284.64 37.84,284.17 37.96,283.72 38.09,283.27 38.36,282.37 38.68,281.49 39.04,280.63 39.22,280.2 39.4,279.78 39.56,279.35 39.72,278.92 39.88,278.48 39.91,278.06 39.92,277.85 39.89,277.64 39.75,277.5 39.62,277.35 39.41,277.27 39.2,277.22 38.76,277.14 38.29,277.16 37.83,277.19 L 37.83,277.14 C 38.28,277.07 38.75,277.01 39.22,277.06 39.46,277.1 39.71,277.16 39.91,277.34 40.11,277.53 40.18,277.82 40.18,278.06 40.17,278.57 40.02,279.02 39.88,279.46 39.74,279.91 39.58,280.34 39.42,280.78 39.12,281.65 38.81,282.52 38.58,283.4 38.34,284.3 38.17,285.17 38.15,286.08 38.08,287.91 38.23,289.75 38.39,291.59 38.55,293.43 38.78,295.27 39.04,297.1 39.54,300.77 40.19,304.42 40.73,308.09 40.86,309 40.96,309.95 40.88,310.89 40.81,311.82 40.66,312.74 40.46,313.65 40.04,315.46 39.46,317.23 38.74,318.94 L 38.69,318.92 Z M 38.69,318.92" />
            <path id="joe09Canvas-bezier13" stroke="none" fill="rgb(51, 91, 113)" d="M 39.28,274.11 C 40.09,271.96 40.74,269.75 41.2,267.51 41.64,265.28 41.94,262.96 41.56,260.72 41.47,260.16 41.28,259.63 41.1,259.08 40.93,258.52 40.81,257.95 40.71,257.38 40.52,256.23 40.48,255.07 40.52,253.91 40.6,251.59 41.01,249.31 41.47,247.06 L 42.16,243.69 C 42.38,242.58 42.49,241.44 42.6,240.3 L 43.19,233.44 C 43.42,231.15 43.65,228.86 44.02,226.59 44.2,225.45 44.41,224.32 44.71,223.2 44.86,222.64 45.04,222.09 45.27,221.56 45.39,221.29 45.52,221.03 45.69,220.79 45.86,220.56 46.08,220.33 46.38,220.26 L 46.4,220.32 C 46.13,220.4 45.94,220.62 45.79,220.86 45.64,221.09 45.52,221.35 45.42,221.62 45.23,222.15 45.09,222.71 44.97,223.26 44.72,224.38 44.56,225.51 44.42,226.65 44.14,228.92 43.94,231.2 43.77,233.49 43.59,235.78 43.42,238.07 43.18,240.36 43.05,241.5 42.92,242.66 42.67,243.79 L 41.93,247.16 C 41.44,249.4 41.01,251.65 40.9,253.93 40.85,255.06 40.88,256.2 41.05,257.33 41.13,257.89 41.25,258.45 41.4,258.98 41.57,259.53 41.76,260.09 41.85,260.67 42.2,262.98 41.85,265.31 41.37,267.55 40.87,269.8 40.18,271.99 39.33,274.13 L 39.28,274.11 Z M 39.28,274.11" />
            <path id="joe09Canvas-bezier14" stroke="none" fill="rgb(51, 91, 113)" d="M 47.63,222.95 C 48.41,226.43 49.26,229.9 50.19,233.34 51.11,236.78 52.1,240.21 53.32,243.55 53.94,245.21 54.6,246.87 55.47,248.39 55.9,249.13 56.47,249.81 57,250.52 57.54,251.23 58.1,251.92 58.66,252.61 59.76,254 60.91,255.37 62,256.78 62.54,257.48 63.09,258.2 63.58,258.94 63.82,259.32 64.06,259.71 64.25,260.11 64.35,260.32 64.44,260.53 64.5,260.75 64.56,260.97 64.6,261.21 64.51,261.43 L 64.46,261.41 C 64.55,260.99 64.31,260.57 64.11,260.19 63.89,259.81 63.63,259.45 63.36,259.1 62.83,258.39 62.26,257.71 61.68,257.04 L 58.2,252.99 C 57.07,251.6 55.92,250.26 54.97,248.68 54.09,247.09 53.47,245.4 52.87,243.71 51.71,240.33 50.78,236.88 49.9,233.41 49.05,229.95 48.27,226.46 47.57,222.96 L 47.63,222.95 Z M 47.63,222.95" />
            <path id="joe09Canvas-bezier15" stroke="none" fill="rgb(51, 91, 113)" d="M 62.49,259.91 C 61.8,261.25 61.36,262.77 61.51,264.25 61.58,264.98 61.84,265.69 62.27,266.27 62.71,266.85 63.3,267.3 63.95,267.63 64.6,267.94 65.35,268.17 66.04,268.52 66.73,268.85 67.41,269.25 68.01,269.77 68.59,270.3 69.12,270.98 69.28,271.79 69.46,272.6 69.26,273.37 69.23,274.12 L 69.17,274.12 C 69.04,273.36 69.12,272.57 68.88,271.9 68.67,271.22 68.2,270.66 67.63,270.22 67.07,269.76 66.43,269.39 65.78,269.04 65.12,268.67 64.43,268.43 63.73,268.05 63.05,267.67 62.42,267.15 61.96,266.5 61.51,265.84 61.26,265.06 61.22,264.27 61.14,262.7 61.68,261.2 62.44,259.89 L 62.49,259.91 Z M 62.49,259.91" />
            <path id="joe09Canvas-bezier16" stroke="none" fill="rgb(51, 91, 113)" d="M 66.4,271.58 C 66.36,273.32 66.47,275.09 67,276.75 67.14,277.16 67.31,277.56 67.54,277.92 67.75,278.29 68.12,278.56 68.32,278.98 68.42,279.19 68.47,279.42 68.44,279.65 68.41,279.89 68.32,280.1 68.22,280.3 68.01,280.69 67.74,281.04 67.53,281.41 67.1,282.16 66.97,283.05 67.17,283.89 67.37,284.73 67.55,285.59 67.72,286.45 68.07,288.17 68.37,289.89 68.62,291.62 69.12,295.08 69.53,298.58 69.4,302.1 69.26,303.83 69.46,305.56 69.68,307.29 69.92,309.01 70.24,310.73 70.59,312.44 71.3,315.85 72.15,319.24 73.16,322.58 73.67,324.24 74.2,325.91 74.88,327.49 74.97,327.69 75.06,327.88 75.16,328.07 75.25,328.26 75.36,328.4 75.48,328.65 75.68,329.09 75.78,329.54 75.87,329.98 76.03,330.86 76.1,331.74 76.15,332.62 76.47,339.65 75.91,346.63 75.31,353.6 L 75.08,353.4 C 76.19,353.28 77.22,353.46 78.25,353.69 79.27,353.92 80.26,354.27 81.23,354.65 82.18,355.02 83.2,355.24 84.22,355.2 85.24,355.14 86.28,354.83 87.08,354.19 L 87.12,354.23 C 86.32,354.92 85.28,355.27 84.24,355.36 83.18,355.45 82.12,355.26 81.13,354.91 80.16,354.54 79.18,354.23 78.17,354.01 77.18,353.8 76.12,353.66 75.16,353.78 L 74.91,353.81 74.93,353.57 C 75.18,350.09 75.38,346.6 75.5,343.11 75.63,339.62 75.76,336.12 75.57,332.65 75.52,331.79 75.44,330.92 75.29,330.08 75.22,329.67 75.12,329.25 74.96,328.89 74.9,328.75 74.75,328.53 74.66,328.33 74.55,328.13 74.46,327.92 74.37,327.72 73.68,326.08 73.17,324.41 72.67,322.73 71.69,319.36 70.86,315.96 70.17,312.53 69.83,310.81 69.53,309.08 69.3,307.34 69.08,305.61 68.9,303.84 69.05,302.08 69.2,298.61 68.82,295.12 68.36,291.66 68.12,289.93 67.84,288.21 67.51,286.49 67.35,285.63 67.18,284.78 66.99,283.92 66.79,283.05 66.93,282.1 67.39,281.34 67.61,280.95 67.88,280.6 68.09,280.23 68.3,279.86 68.39,279.42 68.19,279.04 68.03,278.66 67.66,278.38 67.44,277.99 67.2,277.61 67.03,277.2 66.89,276.78 66.37,275.1 66.28,273.33 66.34,271.58 L 66.4,271.58 Z M 66.4,271.58" />
            <path id="joe09Canvas-bezier17" stroke="none" fill="rgb(51, 91, 113)" d="M 102.7,347.64 C 102.4,347.26 101.92,347.08 101.46,346.98 100.99,346.88 100.51,346.85 100.03,346.87 99.07,346.92 98.08,346.99 97.12,347.07 96.15,347.16 95.18,347.3 94.32,347.56 93.89,347.7 93.52,347.91 93.53,348.28 93.55,348.67 93.85,349.11 94.13,349.5 L 94.09,349.54 C 93.69,349.25 93.28,348.92 93.13,348.33 93.05,348.03 93.19,347.66 93.41,347.45 93.62,347.24 93.87,347.11 94.11,347.01 95.1,346.62 96.11,346.63 97.09,346.59 98.08,346.57 99.04,346.57 100.03,346.57 100.53,346.6 101.03,346.66 101.5,346.81 101.97,346.96 102.46,347.17 102.75,347.61 L 102.7,347.64 Z M 102.7,347.64" />
            <path id="joe09Canvas-bezier18" stroke="none" fill="rgb(51, 91, 113)" d="M 95.05,350.64 L 105.82,350.55 106.28,350.55 105.87,350.77 102.01,352.86 100.07,353.88 C 99.74,354.05 99.42,354.21 99.08,354.37 L 99,354.4 98.97,354.41 98.95,354.42 C 98.96,354.41 98.89,354.43 98.82,354.39 98.79,354.37 98.77,354.36 98.76,354.32 98.74,354.29 98.74,354.23 98.75,354.19 98.77,354.13 98.79,354.13 98.79,354.13 L 98.79,354.12 98.82,354.09 98.87,354.06 98.9,354.04 98.98,354 C 99.08,353.96 99.17,353.93 99.26,353.9 99.44,353.84 99.62,353.8 99.8,353.76 101.25,353.45 102.69,353.24 104.14,353.03 105.59,352.82 107.04,352.63 108.49,352.44 L 109.69,352.29 108.62,352.87 102.85,355.99 102.69,355.47 C 105.79,355.1 108.89,354.78 111.98,354.43 L 113.26,354.29 112.17,354.98 106.62,358.47 106.5,358.06 110.74,358.14 114.98,358.25 114.98,358.31 110.74,358.43 106.5,358.51 105.72,358.52 106.37,358.09 111.86,354.48 112.05,355.02 C 108.95,355.35 105.85,355.71 102.75,356.02 L 101.33,356.16 102.6,355.5 108.41,352.47 108.54,352.9 C 107.09,353.06 105.64,353.24 104.19,353.43 102.75,353.63 101.3,353.82 99.88,354.11 99.7,354.14 99.53,354.18 99.36,354.23 99.27,354.26 99.19,354.28 99.12,354.31 L 99.08,354.33 99.05,354.35 C 99.06,354.34 99.04,354.35 99.04,354.35 99.03,354.36 99.04,354.35 99.04,354.35 L 99.07,354.3 C 99.09,354.26 99.08,354.2 99.07,354.17 99.05,354.14 99.04,354.13 99.01,354.1 98.94,354.06 98.87,354.08 98.9,354.08 L 98.89,354.08 C 98.89,354.08 98.89,354.08 98.89,354.08 L 98.95,354.06 C 99.27,353.92 99.6,353.75 99.92,353.59 L 101.88,352.59 105.77,350.56 105.82,350.78 95.05,350.69 95.05,350.64 95.05,350.64 Z M 95.05,350.64" />
            <path id="joe09Canvas-bezier19" stroke="none" fill="rgb(51, 91, 113)" d="M 112.79,359.52 C 114.29,359.44 115.79,359.41 117.29,359.44 118.79,359.47 120.3,359.56 121.78,359.83 122.52,359.97 123.26,360.15 123.94,360.52 124.27,360.7 124.6,360.98 124.76,361.34 L 125.32,362.33 C 125.69,362.98 126.04,363.66 126.3,364.38 126.55,365.1 126.7,365.88 126.59,366.66 126.48,367.44 126.09,368.16 125.57,368.73 125.05,369.3 124.41,369.75 123.75,370.13 122.41,370.89 120.91,371.24 119.42,371.48 116.43,371.92 113.4,371.89 110.41,371.69 107.4,371.47 104.42,371.06 101.47,370.45 99.99,370.14 98.53,369.78 97.08,369.34 95.66,368.9 94.22,368.5 92.76,368.2 91.31,367.9 89.83,367.7 88.38,367.84 87.66,367.91 86.96,368.09 86.26,368.34 85.9,368.45 85.61,368.62 85.14,368.69 84.73,368.75 84.34,368.75 83.96,368.72 82.42,368.58 80.96,368.21 79.5,367.83 78.04,367.43 76.61,366.99 75.18,366.49 L 75.04,366.44 75.04,366.29 C 75.01,364.34 75.06,362.4 75.19,360.47 75.26,359.5 75.36,358.53 75.5,357.57 75.64,356.61 75.81,355.65 76.09,354.72 L 76.14,354.74 C 75.68,356.61 75.56,358.55 75.48,360.48 75.4,362.41 75.4,364.35 75.47,366.27 L 75.33,366.07 C 76.75,366.53 78.18,366.96 79.63,367.33 81.07,367.69 82.54,368.03 84,368.13 84.36,368.15 84.72,368.16 85.06,368.11 85.34,368.08 85.72,367.89 86.07,367.78 86.79,367.52 87.55,367.33 88.33,367.26 89.87,367.11 91.4,367.32 92.88,367.62 94.36,367.93 95.82,368.35 97.25,368.81 98.67,369.26 100.12,369.63 101.57,369.96 104.49,370.59 107.46,371.03 110.44,371.26 113.41,371.49 116.42,371.55 119.37,371.13 120.84,370.91 122.31,370.58 123.6,369.86 124.25,369.5 124.86,369.07 125.36,368.53 125.86,368 126.22,367.34 126.33,366.62 126.44,365.9 126.31,365.16 126.08,364.46 125.84,363.75 125.49,363.09 125.13,362.43 L 124.59,361.44 C 124.44,361.09 124.17,360.86 123.85,360.68 123.21,360.32 122.48,360.13 121.75,359.98 120.29,359.7 118.79,359.6 117.29,359.55 115.79,359.5 114.29,359.51 112.8,359.58 L 112.79,359.52 Z M 112.79,359.52" />
            <path id="joe09Canvas-bezier20" stroke="none" fill="rgb(51, 91, 113)" d="M 89.63,351.93 C 89.64,351.62 89.79,351.35 89.95,351.1 90.13,350.85 90.35,350.63 90.61,350.46 90.88,350.29 91.2,350.13 91.54,350.17 91.87,350.21 92.18,350.37 92.37,350.64 L 92.34,350.69 C 92.02,350.72 91.77,350.73 91.53,350.76 91.31,350.81 91.07,350.78 90.83,350.88 90.6,350.97 90.37,351.11 90.17,351.29 89.98,351.47 89.77,351.68 89.69,351.94 L 89.63,351.93 Z M 89.63,351.93" />
            <path id="joe09Canvas-bezier21" stroke="none" fill="rgb(51, 91, 113)" d="M 104.46,346.72 C 103.64,346.84 102.85,346.39 102.3,345.81 101.74,345.23 101.35,344.5 101.05,343.76 100.43,342.26 100.23,340.64 99.9,339.09 99.27,335.96 98.54,332.85 97.74,329.75 97.34,328.21 96.91,326.67 96.45,325.14 96.22,324.38 95.98,323.62 95.73,322.87 95.48,322.12 95.22,321.36 94.89,320.67 94.74,320.34 94.51,319.95 94.38,319.56 94.23,319.18 94.11,318.79 94,318.4 93.8,317.61 93.64,316.82 93.53,316.02 93.3,314.43 93.19,312.82 93.18,311.22 L 93.24,311.22 C 93.31,312.01 93.42,312.81 93.54,313.59 93.65,314.38 93.77,315.17 93.93,315.95 94.26,317.51 94.6,319.05 95.42,320.41 96.12,321.9 96.57,323.44 97.01,324.98 97.44,326.53 97.83,328.08 98.2,329.64 98.94,332.75 99.61,335.88 100.19,339.03 100.48,340.61 100.64,342.21 101.21,343.69 101.49,344.43 101.86,345.15 102.39,345.73 102.9,346.31 103.66,346.76 104.45,346.66 L 104.46,346.72 Z M 104.46,346.72" />
            <path id="joe09Canvas-bezier22" stroke="none" fill="rgb(51, 91, 113)" d="M 95.02,314.61 C 95.13,313.75 95.18,312.88 95.17,312.01 95.16,311.16 95.11,310.27 94.91,309.45 94.64,308.64 93.87,308.16 93.19,307.64 92.5,307.12 91.81,306.52 91.39,305.72 90.96,304.92 90.81,304.01 90.81,303.12 90.84,302.23 90.93,301.39 90.97,300.51 91.07,298.78 91.14,297.05 91.19,295.31 91.27,291.84 91.23,288.37 91.01,284.92 90.89,283.21 90.72,281.47 90.26,279.83 90.14,279.43 90,279.03 89.8,278.66 89.7,278.48 89.58,278.31 89.46,278.11 89.34,277.92 89.25,277.66 89.26,277.42 89.27,276.96 89.4,276.54 89.51,276.12 89.63,275.7 89.77,275.28 89.9,274.87 L 89.96,274.89 C 89.86,275.31 89.76,275.73 89.67,276.15 89.59,276.58 89.5,277.01 89.53,277.41 89.53,277.81 89.85,278.09 90.09,278.49 90.33,278.87 90.51,279.29 90.65,279.71 91.21,281.39 91.41,283.14 91.59,284.88 91.89,288.36 91.8,291.85 91.66,295.33 91.58,297.07 91.48,298.8 91.35,300.54 91.29,301.4 91.19,302.28 91.15,303.13 91.13,303.97 91.26,304.83 91.65,305.58 92.03,306.33 92.66,306.92 93.34,307.45 93.67,307.72 94.02,307.98 94.34,308.28 94.66,308.59 94.95,308.96 95.08,309.4 95.27,310.27 95.29,311.14 95.29,312.01 95.27,312.89 95.21,313.75 95.08,314.62 L 95.02,314.61 Z M 95.02,314.61" />
            <path id="joe09Canvas-bezier23" stroke="none" fill="rgb(51, 91, 113)" d="M 91.12,278.03 C 91.64,277.57 92.1,277.05 92.49,276.48 92.87,275.91 93.19,275.28 93.28,274.6 93.38,273.92 93.16,273.23 92.72,272.72 92.5,272.45 92.23,272.26 91.96,272.01 91.71,271.77 91.47,271.5 91.32,271.17 91.16,270.84 91.14,270.44 91.21,270.09 91.28,269.74 91.42,269.41 91.54,269.09 91.8,268.45 92.05,267.8 92.2,267.13 92.5,265.79 92.45,264.4 92.2,263.05 91.62,260.33 91.18,257.58 90.72,254.84 L 89.36,246.62 C 88.88,243.89 88.38,241.16 87.77,238.45 87.47,237.11 87.15,235.76 86.74,234.45 86.29,233.15 85.89,231.77 85.63,230.4 85.12,227.64 84.91,224.86 84.73,222.09 84.64,220.7 84.55,219.32 84.42,217.94 84.31,216.56 84.15,215.18 83.83,213.83 L 83.89,213.81 C 84.65,216.5 84.85,219.3 85.14,222.06 85.4,224.82 85.65,227.59 86.21,230.29 86.47,231.65 86.84,232.94 87.3,234.27 87.71,235.61 88.04,236.97 88.34,238.33 88.91,241.06 89.38,243.8 89.82,246.54 L 91.1,254.78 C 91.52,257.53 91.94,260.27 92.48,263 92.72,264.37 92.76,265.81 92.42,267.19 92.26,267.87 92,268.53 91.73,269.17 91.47,269.79 91.18,270.48 91.47,271.1 91.61,271.4 91.83,271.66 92.07,271.9 92.31,272.13 92.61,272.34 92.83,272.62 93.29,273.17 93.51,273.92 93.39,274.62 93.29,275.32 92.96,275.96 92.56,276.53 92.16,277.1 91.69,277.62 91.16,278.08 L 91.12,278.03 Z M 91.12,278.03" />
            <path id="joe09Canvas-bezier24" stroke="none" fill="rgb(51, 91, 113)" d="M 85.64,213.79 C 86.06,213.57 86.46,213.31 86.83,213.01 87.2,212.71 87.56,212.38 87.77,211.97 88,211.56 87.94,211.08 87.62,210.76 87.31,210.44 86.89,210.22 86.46,210.04 85.99,209.86 85.57,209.5 85.28,209.09 84.99,208.68 84.78,208.21 84.62,207.74 84.31,206.8 84.18,205.82 84.11,204.85 83.97,202.89 84.06,200.94 84.33,199.02 84.62,197.1 84.99,195.19 85.59,193.34 L 85.64,193.36 C 85.36,195.27 85.09,197.18 84.9,199.09 84.72,201 84.53,202.91 84.6,204.82 84.63,205.77 84.74,206.72 85.01,207.62 85.27,208.51 85.74,209.39 86.58,209.75 87.03,209.96 87.48,210.2 87.82,210.59 87.98,210.79 88.11,211.04 88.13,211.31 88.15,211.58 88.07,211.84 87.94,212.06 87.68,212.5 87.3,212.82 86.91,213.11 86.52,213.39 86.1,213.64 85.66,213.84 L 85.64,213.79 Z M 85.64,213.79" />
            <path id="joe09Canvas-bezier25" stroke="none" fill="rgb(51, 91, 113)" d="M 82.49,197.43 C 81.17,197.66 79.82,197.73 78.47,197.68 77.79,197.66 77.11,197.66 76.45,197.52 75.79,197.37 75.13,197.18 74.52,196.87 L 74.53,196.81 C 75.22,196.81 75.88,196.87 76.54,196.93 77.19,196.99 77.84,197.14 78.5,197.21 79.16,197.29 79.82,197.34 80.49,197.37 81.15,197.4 81.82,197.41 82.49,197.37 L 82.49,197.43 Z M 82.49,197.43" />
            <path id="joe09Canvas-bezier26" stroke="none" fill="rgb(51, 91, 113)" d="M 74.54,195.04 C 74.07,195.56 73.74,196.2 73.45,196.84 73.17,197.48 72.94,198.16 72.75,198.84 72.56,199.52 72.39,200.2 72.21,200.89 72.11,201.24 72.02,201.58 71.87,201.92 71.72,202.25 71.49,202.6 71.12,202.78 70.76,202.96 70.34,202.92 70.03,202.93 69.68,202.95 69.34,203.01 68.98,203.04 68.79,203.05 68.61,203.06 68.4,203.03 68.2,202.99 67.98,202.88 67.85,202.69 67.6,202.32 67.6,201.92 67.59,201.56 67.66,200.09 67.98,198.69 68.54,197.34 68.67,197.01 68.83,196.68 68.97,196.37 69.03,196.21 69.1,196.05 69.14,195.9 69.16,195.83 69.17,195.76 69.17,195.69 69.18,195.66 69.17,195.63 69.17,195.6 69.17,195.55 69.17,195.47 69.17,195.43 69.25,194.66 69.46,193.98 69.68,193.29 70.13,191.92 70.75,190.61 71.56,189.4 72.38,188.22 73.4,187.12 74.72,186.45 75.39,186.15 76.01,185.9 76.57,185.48 77.13,185.09 77.55,184.5 77.72,183.81 L 77.78,183.83 C 77.69,184.54 77.29,185.22 76.74,185.69 76.19,186.17 75.5,186.5 74.91,186.81 73.73,187.51 72.79,188.57 72.05,189.73 71.29,190.89 70.7,192.17 70.23,193.48 70,194.13 69.78,194.82 69.7,195.47 69.7,195.51 69.69,195.52 69.69,195.56 69.7,195.62 69.7,195.68 69.69,195.73 69.68,195.84 69.66,195.95 69.63,196.04 69.57,196.24 69.5,196.41 69.42,196.57 69.26,196.9 69.11,197.21 68.97,197.53 68.41,198.79 68.07,200.2 67.97,201.56 67.96,201.9 67.99,202.26 68.14,202.48 68.28,202.7 68.62,202.73 68.95,202.7 69.29,202.68 69.65,202.63 70.01,202.62 70.39,202.61 70.71,202.65 71,202.51 71.28,202.39 71.48,202.11 71.63,201.81 71.77,201.5 71.88,201.16 71.98,200.83 72.19,200.15 72.37,199.46 72.58,198.79 72.79,198.1 73.04,197.43 73.35,196.79 73.66,196.15 74,195.52 74.5,195 L 74.54,195.04 Z M 74.54,195.04" />
            <path id="joe09Canvas-bezier27" stroke="none" fill="rgb(51, 91, 113)" d="M 61.03,13.42 C 62.27,15.4 63.42,17.43 64.28,19.63 64.49,20.17 64.68,20.76 64.82,21.32 64.97,21.84 65.19,22.39 65.36,22.95 65.71,24.07 65.92,25.29 65.72,26.46 L 65.66,26.46 C 65.53,25.3 65.22,24.21 64.8,23.14 64.61,22.6 64.39,22.06 64.25,21.46 64.15,20.88 64.01,20.34 63.83,19.79 63.47,18.7 63.02,17.63 62.53,16.57 62.05,15.52 61.54,14.48 60.98,13.45 L 61.03,13.42 Z M 61.03,13.42" />
            <path id="joe09Canvas-bezier28" stroke="none" fill="rgb(51, 91, 113)" d="M 65.54,27.57 C 66.35,28.87 67.02,30.25 67.55,31.7 68.06,33.14 68.44,34.66 68.42,36.22 68.36,37.75 68.39,39.27 68.46,40.79 68.54,42.32 68.66,43.84 68.83,45.35 L 68.84,45.38 68.83,45.41 C 68.71,46.62 68.58,47.83 68.42,49.04 68.34,49.64 68.24,50.24 68.13,50.85 68.07,51.15 68.01,51.45 67.92,51.76 67.89,51.9 67.79,52.13 67.79,52.17 67.77,52.28 67.77,52.42 67.77,52.56 67.82,53.73 68.05,55.01 67.73,56.24 67.57,56.86 67.26,57.46 66.76,57.86 66.27,58.27 65.66,58.48 65.06,58.56 L 65.05,58.5 C 65.63,58.34 66.19,58.09 66.6,57.68 67.01,57.27 67.25,56.73 67.36,56.16 67.57,55 67.34,53.83 67.22,52.59 67.21,52.43 67.2,52.26 67.23,52.07 67.28,51.81 67.33,51.77 67.36,51.61 67.43,51.33 67.49,51.03 67.54,50.74 67.65,50.15 67.73,49.55 67.82,48.95 68,47.75 68.16,46.55 68.32,45.35 L 68.32,45.41 C 68.18,43.87 68.1,42.35 68.05,40.81 68.01,39.28 68.02,37.74 68.11,36.21 68.16,34.71 67.84,33.2 67.37,31.76 66.89,30.31 66.26,28.91 65.5,27.6 L 65.54,27.57 Z M 65.54,27.57" />
            <path id="joe09Canvas-bezier29" stroke="none" fill="rgb(51, 91, 113)" d="M 53.37,58.89 C 51.71,58.3 50.07,57.64 48.45,56.93 46.84,56.21 45.25,55.44 43.71,54.55 42.95,54.1 42.18,53.64 41.49,53.02 41.32,52.87 41.14,52.68 41.01,52.48 40.88,52.29 40.76,52.1 40.64,51.91 40.41,51.53 40.18,51.15 39.96,50.76 39.12,49.2 38.32,47.62 37.65,45.98 L 37.7,45.95 C 38.67,47.44 39.54,48.97 40.47,50.47 40.69,50.84 40.92,51.22 41.16,51.59 L 41.5,52.14 C 41.61,52.31 41.74,52.45 41.88,52.6 42.49,53.18 43.22,53.67 43.96,54.14 45.44,55.07 47,55.89 48.58,56.67 50.15,57.45 51.76,58.17 53.39,58.84 L 53.37,58.89 Z M 53.37,58.89" />
            <path id="joe09Canvas-bezier30" stroke="none" fill="rgb(51, 91, 113)" d="M 64.53,58.7 C 63.96,59.43 63.16,59.95 62.3,60.31 61.87,60.48 61.43,60.66 60.95,60.68 60.49,60.71 60.01,60.67 59.57,60.49 L 59.57,60.43 C 60.02,60.28 60.45,60.2 60.88,60.1 61.3,60 61.73,59.97 62.15,59.86 62.57,59.75 62.99,59.59 63.38,59.39 63.77,59.2 64.16,58.96 64.49,58.66 L 64.53,58.7 Z M 64.53,58.7" />
            <path id="joe09Canvas-bezier31" stroke="none" fill="rgb(51, 91, 113)" d="M 36.64,46.05 C 36.25,46.56 35.68,46.93 35.05,47.08 34.41,47.24 33.74,47.16 33.13,46.94 31.89,46.49 30.9,45.62 29.99,44.72 29.09,43.82 28.28,42.72 27.95,41.42 27.87,41.11 27.81,40.78 27.76,40.47 27.7,40.17 27.65,39.86 27.51,39.71 27.01,39.18 26.9,38.46 26.94,37.83 L 27,37.83 C 27.12,38.44 27.34,39.06 27.79,39.4 27.95,39.53 28.05,39.72 28.11,39.88 28.17,40.05 28.21,40.21 28.25,40.36 28.33,40.67 28.41,40.97 28.51,41.26 28.88,42.41 29.51,43.47 30.33,44.4 31.17,45.31 32.1,46.19 33.23,46.66 33.79,46.9 34.41,47.02 35.01,46.91 35.61,46.81 36.19,46.49 36.59,46.02 L 36.64,46.05 Z M 36.64,46.05" />
            <path id="joe09Canvas-bezier32" stroke="none" fill="rgb(51, 91, 113)" d="M 33.86,40.37 C 33.75,40.53 33.78,40.73 33.87,40.88 33.95,41.04 34.08,41.19 34.22,41.31 34.36,41.44 34.55,41.52 34.67,41.68 34.79,41.84 34.91,42.01 34.99,42.27 L 34.95,42.31 C 34.69,42.32 34.48,42.24 34.29,42.13 34.09,42.02 33.98,41.8 33.86,41.61 33.74,41.42 33.63,41.21 33.59,40.97 33.55,40.73 33.63,40.45 33.83,40.32 L 33.86,40.37 Z M 33.86,40.37" />
            <path id="joe09Canvas-bezier33" stroke="none" fill="rgb(51, 91, 113)" d="M 32.65,43.1 C 32.1,42.87 31.57,42.58 31.09,42.17 30.87,41.97 30.59,41.75 30.5,41.38 30.38,41.02 30.57,40.54 30.91,40.44 L 30.95,40.48 C 30.88,40.81 30.95,40.99 31.05,41.18 31.16,41.37 31.26,41.63 31.43,41.84 31.78,42.28 32.22,42.68 32.68,43.05 L 32.65,43.1 Z M 32.65,43.1" />
            <path id="joe09Canvas-bezier34" stroke="none" fill="rgb(51, 91, 113)" d="M 34.99,39.12 C 34.53,39.1 34.12,38.87 33.77,38.59 33.41,38.31 33.11,37.96 32.85,37.59 32.6,37.2 32.41,36.83 32.07,36.63 31.75,36.42 31.35,36.4 30.94,36.47 30.53,36.53 30.09,36.66 29.61,36.68 29.36,36.68 29.11,36.66 28.86,36.57 28.74,36.53 28.62,36.46 28.51,36.4 28.42,36.35 28.33,36.29 28.25,36.25 27.9,36.07 27.51,35.97 27.12,35.99 26.93,36 26.73,36.04 26.55,36.13 26.37,36.21 26.19,36.34 26.13,36.54 L 26.07,36.54 C 26.04,36.28 26.23,36.06 26.4,35.91 26.59,35.75 26.82,35.65 27.05,35.59 27.53,35.46 28.05,35.53 28.49,35.72 28.61,35.77 28.71,35.83 28.82,35.88 28.9,35.93 28.98,35.97 29.06,35.99 29.23,36.05 29.41,36.09 29.61,36.09 30,36.11 30.43,36.03 30.89,36 31.34,35.96 31.88,36 32.29,36.32 32.7,36.61 32.9,37.08 33.1,37.44 33.32,37.81 33.57,38.16 33.88,38.46 34.19,38.75 34.57,39.01 34.99,39.06 L 34.99,39.12 Z M 34.99,39.12" />
            <path id="joe09Canvas-bezier35" stroke="none" fill="rgb(51, 91, 113)" d="M 36.56,37.33 C 36.73,36.35 36.75,35.33 36.56,34.35 36.38,33.38 35.92,32.43 35.12,31.85 34.74,31.58 34.23,31.35 33.97,30.85 33.84,30.61 33.81,30.32 33.85,30.06 33.88,29.79 33.97,29.54 34.07,29.31 34.26,28.84 34.48,28.39 34.57,27.92 34.68,27.45 34.63,26.96 34.44,26.53 34.26,26.09 33.89,25.74 33.65,25.27 33.4,24.83 33.19,24.25 33.41,23.69 33.63,23.16 34.04,22.83 34.36,22.46 34.69,22.1 34.94,21.7 35.06,21.25 35.11,20.96 35.32,20.68 35.57,20.54 35.82,20.38 36.08,20.31 36.33,20.25 36.84,20.13 37.34,20.1 37.84,20.04 38.83,19.95 39.81,19.83 40.7,19.46 41.59,19.11 42.33,18.46 42.76,17.61 42.87,17.4 42.96,17.19 43.06,16.95 43.17,16.7 43.28,16.47 43.43,16.24 43.72,15.79 44.17,15.35 44.76,15.22 45.34,15.08 45.9,15.23 46.39,15.39 46.88,15.56 47.34,15.77 47.79,15.92 48.23,16.08 48.68,16.16 49.01,15.98 49.18,15.9 49.32,15.76 49.44,15.58 49.55,15.42 49.69,15.14 49.87,14.93 50.22,14.48 50.84,14.18 51.41,14.22 51.98,14.25 52.48,14.46 52.94,14.65 53.17,14.75 53.4,14.86 53.61,14.93 53.72,14.96 53.82,14.99 53.9,14.99 53.98,14.98 54,14.98 54.03,14.93 54.11,14.82 54.1,14.59 54.13,14.3 54.18,14.01 54.29,13.75 54.44,13.52 55.07,12.62 56.05,12.14 57.03,11.87 57.53,11.75 58.05,11.7 58.56,11.77 59.06,11.83 59.61,12.13 59.73,12.65 L 59.68,12.67 C 59.52,12.18 59.01,11.96 58.54,11.93 58.05,11.9 57.57,11.99 57.1,12.13 56.19,12.43 55.28,12.95 54.79,13.74 54.68,13.93 54.6,14.15 54.57,14.36 54.54,14.55 54.61,14.86 54.42,15.19 54.33,15.37 54.08,15.47 53.91,15.47 53.74,15.47 53.6,15.43 53.47,15.4 53.21,15.32 52.98,15.22 52.75,15.13 52.29,14.94 51.83,14.78 51.4,14.77 50.96,14.76 50.59,14.95 50.32,15.3 50.18,15.47 50.1,15.65 49.93,15.91 49.78,16.15 49.56,16.37 49.28,16.52 48.7,16.82 48.07,16.66 47.59,16.51 47.1,16.34 46.65,16.12 46.19,15.96 45.75,15.8 45.29,15.7 44.89,15.79 44.49,15.87 44.15,16.17 43.89,16.55 43.77,16.74 43.65,16.95 43.56,17.16 43.46,17.39 43.36,17.63 43.23,17.87 42.73,18.8 41.85,19.54 40.88,19.9 39.9,20.29 38.87,20.39 37.88,20.47 37.38,20.51 36.89,20.55 36.42,20.64 35.95,20.74 35.51,20.93 35.43,21.34 35.29,21.87 34.98,22.33 34.63,22.7 34.29,23.08 33.89,23.41 33.73,23.82 33.55,24.22 33.7,24.7 33.93,25.12 34.04,25.33 34.17,25.53 34.32,25.73 34.47,25.94 34.61,26.17 34.71,26.41 34.92,26.9 34.96,27.47 34.83,27.97 34.72,28.49 34.48,28.95 34.29,29.4 34.09,29.85 33.94,30.34 34.16,30.76 34.26,30.96 34.43,31.14 34.62,31.29 34.8,31.43 35.03,31.55 35.23,31.71 36.06,32.34 36.51,33.34 36.68,34.33 36.85,35.33 36.81,36.36 36.62,37.35 L 36.56,37.33 Z M 36.56,37.33" />
            <path id="joe09Canvas-bezier36" stroke="none" fill="rgb(51, 91, 113)" d="M 66.05,20.82 C 66.37,19.62 66.59,18.37 66.53,17.13 66.49,16.52 66.37,15.88 66,15.39 65.9,15.27 65.79,15.18 65.67,15.07 65.55,14.96 65.45,14.83 65.38,14.68 65.24,14.38 65.24,14.04 65.31,13.73 65.44,13.1 65.78,12.55 65.96,11.97 65.99,11.83 66.02,11.67 65.96,11.56 65.91,11.44 65.77,11.38 65.63,11.36 65.49,11.32 65.34,11.34 65.17,11.31 65,11.28 64.85,11.2 64.72,11.1 64.21,10.67 64,10.04 63.77,9.46 63.56,8.87 63.39,8.27 63.19,7.68 62.99,7.1 62.78,6.49 62.39,6.04 62.2,5.82 61.93,5.69 61.65,5.73 61.36,5.76 61.13,5.95 60.82,6.08 60.19,6.33 59.52,6.23 58.92,6.04 58.31,5.85 57.75,5.57 57.2,5.27 56.11,4.66 55.09,3.92 54.03,3.3 53.76,3.15 53.49,3.01 53.21,2.91 53.07,2.87 52.93,2.84 52.81,2.84 52.67,2.86 52.62,2.88 52.5,3.02 52.32,3.18 52.13,3.18 51.96,3.18 51.79,3.17 51.63,3.14 51.47,3.1 51.16,3.02 50.86,2.92 50.57,2.8 49.41,2.33 48.3,1.75 47.17,1.25 46.61,1 46.04,0.75 45.46,0.57 45.17,0.48 44.87,0.4 44.58,0.36 44.29,0.32 43.99,0.32 43.78,0.45 43.57,0.56 43.48,0.82 43.48,1.11 43.49,1.4 43.47,1.79 43.3,2.1 43.13,2.43 42.8,2.64 42.48,2.74 42.15,2.85 41.83,2.88 41.51,2.9 40.25,2.94 39.01,2.79 37.81,2.95 36.61,3.09 35.45,3.61 34.74,4.59 34.56,4.82 34.41,5.1 34.2,5.36 33.99,5.61 33.75,5.84 33.49,6.04 32.98,6.44 32.38,6.72 31.77,6.91 30.55,7.3 29.27,7.36 28.04,7.44 27.74,7.46 27.43,7.49 27.15,7.55 27.01,7.57 26.87,7.62 26.82,7.67 26.77,7.72 26.77,7.7 26.81,7.83 26.9,8.04 27.12,8.28 27.33,8.48 27.55,8.7 27.77,8.89 28.01,9.1 28.51,9.5 28.97,10.15 28.93,10.89 28.89,11.62 28.51,12.21 28.11,12.71 27.28,13.71 26.27,14.47 25.27,15.22 24.28,15.97 23.23,16.67 22.36,17.49 22.15,17.7 21.95,17.92 21.85,18.14 21.76,18.37 21.79,18.45 21.99,18.61 22.41,18.89 23.04,18.94 23.67,19.12 23.98,19.21 24.29,19.3 24.61,19.49 24.76,19.59 24.95,19.73 25.04,20.01 25.11,20.31 24.96,20.55 24.86,20.69 24.37,21.26 23.83,21.54 23.31,21.9 22.79,22.24 22.27,22.57 21.8,22.95 21.34,23.32 20.9,23.75 20.69,24.24 20.47,24.73 20.58,25.26 20.93,25.71 21.31,26.2 21.68,26.76 21.92,27.38 22.16,28.01 22.24,28.71 22.14,29.37 22.04,30.04 21.77,30.65 21.54,31.22 21.31,31.78 21.12,32.34 21.27,32.84 21.33,33.06 21.52,33.4 21.6,33.72 21.69,34.05 21.73,34.39 21.72,34.73 21.71,35.07 21.66,35.37 21.77,35.43 21.9,35.55 22.22,35.64 22.5,35.71 22.65,35.74 22.86,35.81 23.01,35.9 23.16,35.99 23.3,36.1 23.42,36.22 23.66,36.46 23.86,36.72 24.04,36.99 24.73,38.09 25.16,39.28 25.6,40.44 L 25.94,41.31 C 26.05,41.58 26.19,41.91 26.32,42.06 26.33,42.07 26.33,42.07 26.33,42.07 26.32,42.06 26.32,42.06 26.31,42.06 26.33,42.06 26.24,42.05 26.33,42.06 L 26.36,42.07 C 26.36,42.07 26.38,42.07 26.43,42.1 26.47,42.12 26.5,42.15 26.52,42.18 26.54,42.2 26.55,42.22 26.56,42.24 26.62,42.41 26.59,42.49 26.58,42.58 26.55,42.76 26.51,42.91 26.47,43.06 26.39,43.36 26.31,43.66 26.25,43.96 26.13,44.53 26.07,45.21 26.48,45.54 26.58,45.62 26.7,45.68 26.83,45.71 26.97,45.75 27.15,45.8 27.3,45.87 27.63,46.02 27.87,46.37 27.94,46.7 28.07,47.36 27.94,48 28.21,48.5 28.34,48.75 28.56,48.93 28.83,49.05 29.08,49.16 29.42,49.23 29.7,49.4 30.82,50.03 31.66,50.98 32.59,51.8 33.04,52.22 33.51,52.63 34.04,52.95 34.56,53.26 35.21,53.46 35.77,53.18 L 35.8,53.24 C 35.22,53.54 34.52,53.35 33.99,53.04 33.44,52.74 32.95,52.33 32.48,51.93 31.53,51.12 30.65,50.2 29.58,49.64 29.31,49.49 29.04,49.44 28.71,49.31 28.41,49.18 28.12,48.96 27.95,48.65 27.62,48.02 27.76,47.33 27.62,46.78 27.56,46.5 27.4,46.29 27.15,46.18 27.03,46.12 26.91,46.09 26.74,46.04 26.57,46.01 26.41,45.93 26.26,45.81 25.96,45.58 25.83,45.2 25.81,44.87 25.78,44.53 25.82,44.2 25.88,43.88 25.94,43.57 26.02,43.26 26.1,42.96 26.13,42.81 26.17,42.66 26.19,42.53 26.2,42.47 26.19,42.38 26.2,42.4 26.2,42.4 26.2,42.41 26.21,42.42 26.21,42.43 26.24,42.45 26.26,42.46 26.29,42.47 26.3,42.46 26.28,42.46 L 26.25,42.46 C 26.32,42.47 26.21,42.46 26.21,42.45 26.18,42.44 26.16,42.43 26.14,42.42 26.1,42.4 26.07,42.38 26.05,42.36 25.77,42.04 25.7,41.76 25.56,41.47 L 25.2,40.6 C 24.74,39.44 24.29,38.27 23.64,37.26 23.3,36.77 22.91,36.29 22.39,36.21 22.08,36.12 21.76,36.09 21.41,35.81 21.22,35.65 21.16,35.36 21.17,35.19 21.17,35.01 21.18,34.86 21.18,34.72 21.19,34.43 21.15,34.15 21.07,33.87 21,33.58 20.86,33.38 20.73,33 20.51,32.27 20.78,31.57 21,31 21.24,30.41 21.47,29.86 21.56,29.28 21.65,28.71 21.58,28.14 21.37,27.59 21.16,27.04 20.84,26.56 20.45,26.06 20.25,25.78 20.08,25.46 20.02,25.09 19.95,24.73 20.01,24.34 20.15,24.01 20.44,23.35 20.95,22.89 21.44,22.49 21.94,22.09 22.47,21.74 22.99,21.4 23.5,21.07 24.07,20.73 24.39,20.34 24.47,20.24 24.48,20.17 24.47,20.15 24.47,20.13 24.41,20.05 24.3,19.98 24.09,19.85 23.8,19.76 23.51,19.68 22.95,19.5 22.29,19.49 21.66,19.07 21.51,18.96 21.34,18.8 21.27,18.56 21.2,18.32 21.26,18.08 21.34,17.91 21.5,17.56 21.74,17.32 21.97,17.09 22.92,16.21 23.96,15.53 24.96,14.79 25.95,14.06 26.95,13.31 27.72,12.39 28.1,11.93 28.42,11.41 28.44,10.87 28.48,10.33 28.16,9.83 27.7,9.45 27.47,9.25 27.23,9.04 27,8.81 26.78,8.58 26.55,8.36 26.38,8 26.35,7.91 26.31,7.8 26.33,7.65 26.34,7.51 26.44,7.38 26.53,7.31 26.72,7.17 26.89,7.14 27.06,7.1 27.39,7.03 27.7,7.01 28.01,6.99 29.25,6.92 30.49,6.86 31.65,6.5 32.22,6.32 32.77,6.07 33.24,5.7 33.48,5.52 33.69,5.32 33.88,5.09 34.07,4.88 34.22,4.6 34.42,4.34 34.81,3.82 35.33,3.39 35.91,3.1 36.5,2.81 37.13,2.65 37.76,2.57 39.02,2.41 40.28,2.57 41.5,2.53 42.08,2.5 42.74,2.41 42.99,1.93 43.12,1.69 43.15,1.43 43.14,1.1 43.13,0.78 43.25,0.35 43.61,0.15 43.95,-0.04 44.3,-0.01 44.62,0.03 44.95,0.07 45.25,0.16 45.56,0.25 46.16,0.45 46.73,0.7 47.3,0.96 48.44,1.47 49.54,2.05 50.68,2.52 50.96,2.64 51.25,2.74 51.54,2.82 51.81,2.89 52.17,2.94 52.3,2.82 52.35,2.77 52.41,2.69 52.51,2.64 52.6,2.59 52.7,2.57 52.79,2.56 52.98,2.55 53.14,2.6 53.3,2.65 53.61,2.76 53.89,2.91 54.16,3.07 55.24,3.71 56.24,4.45 57.32,5.06 57.85,5.36 58.41,5.64 58.99,5.83 59.56,6.01 60.19,6.1 60.74,5.89 61,5.79 61.28,5.56 61.62,5.53 61.97,5.48 62.32,5.66 62.53,5.91 62.96,6.41 63.16,7.03 63.36,7.62 63.56,8.21 63.72,8.82 63.93,9.4 64.14,9.98 64.36,10.59 64.81,10.98 64.93,11.07 65.06,11.14 65.2,11.16 65.33,11.19 65.5,11.18 65.66,11.21 65.81,11.25 66,11.32 66.09,11.5 66.16,11.67 66.13,11.85 66.09,12 65.9,12.62 65.56,13.15 65.43,13.75 65.36,14.04 65.36,14.36 65.48,14.63 65.54,14.77 65.64,14.89 65.74,14.99 65.86,15.09 65.99,15.2 66.08,15.33 66.47,15.85 66.58,16.5 66.62,17.12 66.67,18.38 66.44,19.63 66.11,20.83 L 66.05,20.82 Z M 66.05,20.82" />
            <path id="joe09Canvas-bezier37" stroke="none" fill="rgb(51, 91, 113)" d="M 35.37,53.06 C 36.45,54.62 37.22,56.39 37.67,58.25 37.91,59.18 38.09,60.14 38.06,61.1 38.04,62.07 37.88,63.03 37.53,63.93 L 37.48,63.92 C 37.51,62.96 37.53,62.04 37.47,61.11 37.42,60.19 37.38,59.27 37.21,58.35 37.05,57.43 36.8,56.53 36.48,55.65 36.17,54.77 35.8,53.9 35.32,53.09 L 35.37,53.06 Z M 35.37,53.06" />
            <path id="joe09Canvas-bezier38" stroke="none" fill="rgb(51, 91, 113)" d="M 56.62,91.4 C 57.2,91.83 57.74,92.33 58.23,92.88 58.47,93.15 58.74,93.4 58.91,93.73 59.08,94.06 59.22,94.41 59.25,94.81 L 59.2,94.84 C 58.89,94.6 58.65,94.33 58.42,94.06 58.19,93.79 58.05,93.46 57.85,93.16 57.46,92.57 57.04,92 56.57,91.45 L 56.62,91.4 Z M 56.62,91.4" />
            <path id="joe09Canvas-bezier39" stroke="none" fill="rgb(51, 91, 113)" d="M 35.61,59.44 C 35.77,61.19 36.3,62.9 37.05,64.48 37.79,66.06 38.8,67.51 40.02,68.74 40.64,69.35 41.3,69.91 42.01,70.41 42.71,70.92 43.46,71.33 44.21,71.83 45.67,72.84 47.06,74.02 48.06,75.49 L 48.02,75.53 C 46.76,74.29 45.38,73.22 43.9,72.32 43.53,72.09 43.16,71.88 42.77,71.64 42.39,71.41 42.02,71.15 41.67,70.88 40.96,70.33 40.29,69.73 39.69,69.07 38.47,67.76 37.49,66.24 36.78,64.6 36.09,62.96 35.64,61.22 35.55,59.44 L 35.61,59.44 Z M 35.61,59.44" />
            <path id="joe09Canvas-bezier40" stroke="none" fill="rgb(51, 91, 113)" d="M 33.36,58.93 C 32.95,59.98 32.6,61.06 32.34,62.15 32.09,63.23 31.86,64.38 32.08,65.45 32.22,65.97 32.49,66.48 32.73,66.98 32.99,67.48 33.25,67.98 33.52,68.47 34.06,69.45 34.63,70.43 35.22,71.38 36.41,73.29 37.67,75.16 39.07,76.9 39.78,77.77 40.52,78.61 41.31,79.38 42.11,80.15 42.96,80.88 43.91,81.34 L 43.49,81.63 C 43.38,79.99 43.25,78.32 43.22,76.66 43.22,75.83 43.23,74.99 43.31,74.16 43.36,73.74 43.42,73.32 43.56,72.91 43.63,72.71 43.72,72.51 43.89,72.35 44.07,72.18 44.35,72.23 44.52,72.35 L 44.49,72.4 C 44.31,72.31 44.1,72.3 43.97,72.44 43.84,72.58 43.78,72.77 43.73,72.97 43.63,73.36 43.6,73.77 43.59,74.18 43.56,75 43.6,75.82 43.65,76.64 43.71,77.47 43.77,78.29 43.85,79.11 43.93,79.94 44.03,80.76 44.09,81.59 L 44.12,82.1 43.67,81.88 C 42.59,81.38 41.7,80.61 40.9,79.81 40.09,79 39.37,78.12 38.67,77.22 37.3,75.42 36.05,73.52 34.9,71.58 34.33,70.61 33.77,69.62 33.25,68.62 32.99,68.12 32.73,67.61 32.49,67.1 32.26,66.58 32,66.08 31.85,65.5 31.73,64.93 31.78,64.35 31.85,63.78 31.93,63.22 32.05,62.66 32.2,62.11 32.49,61.02 32.87,59.95 33.3,58.91 L 33.36,58.93 Z M 33.36,58.93" />
            <path id="joe09Canvas-bezier41" stroke="none" fill="rgb(51, 91, 113)" d="M 60.5,87.9 C 60.4,90.35 60.01,92.79 59.48,95.19 59.2,96.39 58.91,97.59 58.45,98.73 58.11,99.89 57.97,101.13 57.83,102.34 57.57,104.78 57.47,107.23 57.54,109.68 57.61,112.13 57.84,114.59 58.45,116.95 58.6,117.54 58.78,118.12 59,118.69 59.22,119.25 59.5,119.79 59.74,120.37 60.21,121.52 60.57,122.7 60.85,123.9 61.41,126.31 61.7,128.77 61.82,131.23 61.94,133.69 61.89,136.16 61.69,138.62 61.58,139.85 61.44,141.08 61.24,142.3 61.06,143.52 60.75,144.72 60.56,145.92 60.17,148.33 59.98,150.77 59.91,153.22 59.85,155.66 59.91,158.11 60.1,160.55 60.29,162.99 60.6,165.42 61.18,167.78 61.33,168.37 61.49,168.95 61.69,169.53 61.89,170.07 62.11,170.71 62.23,171.32 62.5,172.54 62.63,173.78 62.7,175.02 62.81,177.49 62.7,179.96 62.51,182.41 62.31,184.87 62.01,187.31 61.62,189.74 61.43,190.96 61.21,192.17 60.96,193.38 60.83,193.98 60.69,194.58 60.53,195.18 60.45,195.47 60.37,195.77 60.27,196.07 60.19,196.36 59.99,196.68 60.07,196.85 60.15,197.05 60.46,197.15 60.74,197.19 61.03,197.23 61.34,197.24 61.64,197.23 62.24,197.22 62.85,197.15 63.45,197.07 64.66,196.91 65.86,196.69 67.06,196.45 L 67.07,196.5 C 65.88,196.78 64.68,197.04 63.47,197.24 62.87,197.33 62.26,197.42 61.64,197.45 61.34,197.46 61.02,197.46 60.71,197.43 60.55,197.41 60.39,197.38 60.23,197.32 60.08,197.25 59.9,197.15 59.82,196.96 59.74,196.76 59.8,196.55 59.85,196.41 59.9,196.27 59.95,196.12 60,195.98 60.09,195.69 60.17,195.4 60.24,195.1 60.39,194.51 60.52,193.91 60.64,193.31 60.88,192.11 61.07,190.9 61.25,189.69 61.6,187.26 61.86,184.82 62.03,182.38 62.18,179.93 62.26,177.48 62.11,175.05 62.04,173.83 61.92,172.62 61.66,171.45 61.53,170.85 61.35,170.32 61.13,169.72 60.93,169.13 60.76,168.53 60.61,167.92 60.02,165.51 59.71,163.05 59.52,160.6 59.35,158.13 59.31,155.67 59.39,153.2 59.48,150.74 59.68,148.27 60.09,145.84 61.2,141.04 61.65,136.15 61.44,131.25 61.33,128.81 61.06,126.36 60.52,123.98 60.25,122.79 59.9,121.62 59.45,120.49 59.23,119.93 58.94,119.38 58.72,118.8 58.5,118.22 58.32,117.62 58.16,117.02 57.56,114.62 57.36,112.15 57.3,109.69 57.26,107.23 57.38,104.77 57.65,102.32 57.81,101.1 57.95,99.88 58.31,98.68 58.78,97.55 59.08,96.36 59.36,95.16 59.92,92.78 60.32,90.35 60.44,87.89 L 60.5,87.9 Z M 60.5,87.9" />
            <path id="joe09Canvas-bezier42" stroke="none" fill="rgb(51, 91, 113)" d="M 59.21,195 C 57.33,194.49 55.41,194.14 53.48,193.91 51.54,193.68 49.59,193.58 47.65,193.68 45.71,193.79 43.77,194.1 41.96,194.78 41.5,194.95 41.07,195.17 40.6,195.33 40.13,195.49 39.65,195.62 39.17,195.73 38.21,195.94 37.24,196.06 36.26,196.14 32.35,196.42 28.43,196.1 24.55,195.67 20.67,195.21 16.82,194.58 12.99,193.78 12.87,193.76 12.79,193.64 12.81,193.52 L 12.82,193.49 12.82,193.48 C 14.19,189.45 15.42,185.37 16.51,181.25 17.58,177.13 18.6,172.97 18.98,168.75 19.3,164.5 19.71,160.24 20.28,156 20.57,153.88 20.9,151.77 21.33,149.67 21.56,148.63 21.82,147.59 22.14,146.57 22.47,145.56 22.82,144.52 23.48,143.66 L 23.52,143.7 C 22.9,144.56 22.59,145.6 22.3,146.61 22.02,147.64 21.8,148.68 21.6,149.73 21.2,151.82 20.91,153.93 20.66,156.05 20.16,160.29 19.84,164.54 19.56,168.8 19.38,170.95 19.01,173.06 18.57,175.16 18.13,177.26 17.63,179.33 17.06,181.4 15.93,185.52 14.65,189.6 13.25,193.64 L 13.09,193.34 C 16.89,194.15 20.74,194.81 24.6,195.3 28.46,195.76 32.36,196.1 36.24,195.85 38.18,195.73 40.1,195.4 41.88,194.57 43.73,193.9 45.69,193.6 47.64,193.51 49.6,193.42 51.55,193.54 53.49,193.79 55.43,194.05 57.35,194.42 59.23,194.94 L 59.21,195 Z M 59.21,195" />
            <path id="joe09Canvas-bezier43" stroke="none" fill="rgb(51, 91, 113)" d="M 30.78,63.95 C 30.38,63.79 29.92,63.83 29.55,64.02 29.17,64.21 28.88,64.52 28.64,64.88 28.39,65.23 28.23,65.61 28.04,66.02 27.84,66.44 27.6,66.83 27.33,67.19 26.8,67.93 26.17,68.6 25.44,69.13 25.07,69.39 24.69,69.63 24.29,69.83 23.88,70.02 23.48,70.22 23.02,70.3 L 23,70.24 C 23.74,69.77 24.42,69.21 25.08,68.66 25.73,68.1 26.41,67.56 26.96,66.9 27.24,66.58 27.49,66.22 27.7,65.85 27.9,65.47 28.11,65.05 28.4,64.7 28.69,64.34 29.05,64.02 29.48,63.85 29.91,63.68 30.4,63.69 30.81,63.9 L 30.78,63.95 Z M 30.78,63.95" />
            <path id="joe09Canvas-bezier44" stroke="none" fill="rgb(51, 91, 113)" d="M 25.8,67.01 C 25.54,66.78 25.16,66.7 24.81,66.66 24.45,66.63 24.08,66.66 23.72,66.72 23.01,66.84 22.32,67.08 21.65,67.37 20.3,67.94 19.09,68.77 17.8,69.48 15.24,70.9 12.51,72.05 9.64,72.73 8.92,72.89 8.2,73.03 7.47,73.12 L 6.92,73.18 C 6.76,73.21 6.61,73.26 6.46,73.34 6.15,73.5 5.87,73.72 5.62,73.97 4.6,74.98 3.86,76.26 3.19,77.55 1.9,80.16 0.94,82.97 0.58,85.85 0.5,86.57 0.46,87.3 0.51,88.01 0.58,88.71 0.7,89.46 0.78,90.19 L 1.32,94.57 2.31,103.34 C 2.92,109.19 3.53,115.04 4.01,120.91 L 3.95,120.91 C 3.13,115.08 2.44,109.24 1.73,103.4 L 0.74,94.63 0.26,90.25 C 0.18,89.51 0.08,88.81 0.02,88.04 -0.03,87.29 0.02,86.54 0.11,85.8 0.3,84.32 0.67,82.87 1.14,81.47 1.61,80.06 2.18,78.69 2.85,77.38 3.54,76.07 4.31,74.78 5.39,73.72 5.66,73.46 5.96,73.22 6.31,73.05 6.48,72.96 6.68,72.89 6.88,72.86 L 7.43,72.8 C 8.15,72.72 8.87,72.6 9.58,72.44 12.42,71.81 15.15,70.7 17.72,69.32 19.01,68.64 20.24,67.81 21.6,67.26 22.28,66.98 22.98,66.75 23.71,66.63 24.07,66.57 24.45,66.55 24.81,66.59 25.18,66.63 25.56,66.71 25.85,66.97 L 25.8,67.01 Z M 25.8,67.01" />
            <path id="joe09Canvas-bezier45" stroke="none" fill="rgb(51, 91, 113)" d="M 24.13,112.15 C 21.66,111.46 19.01,111.49 16.55,112.1 14.08,112.72 11.77,113.97 9.9,115.69 9.43,116.12 8.99,116.58 8.54,117.04 8.08,117.49 7.62,117.98 7,118.33 6.69,118.5 6.33,118.62 5.96,118.64 L 5.71,118.64 C 5.63,118.65 5.54,118.64 5.49,118.66 5.37,118.67 5.23,118.71 5.11,118.75 4.63,118.95 4.29,119.46 4.27,120.01 4.23,120.55 4.51,121.09 5.01,121.35 5.52,121.64 6.12,121.65 6.77,121.64 7.4,121.63 8.04,121.59 8.67,121.51 9.3,121.43 9.94,121.32 10.52,121.07 L 10.55,121.12 C 9.4,121.76 8.07,121.92 6.79,122.05 6.17,122.11 5.42,122.13 4.77,121.8 4.45,121.65 4.16,121.38 3.96,121.06 3.77,120.74 3.67,120.36 3.69,119.98 3.7,119.23 4.16,118.49 4.88,118.19 5.06,118.12 5.23,118.06 5.44,118.05 5.55,118.04 5.62,118.04 5.7,118.04 L 5.93,118.04 C 6.2,118.03 6.47,117.95 6.72,117.81 7.24,117.54 7.7,117.1 8.17,116.66 8.63,116.22 9.1,115.76 9.59,115.34 11.55,113.61 13.95,112.39 16.48,111.81 19.01,111.26 21.68,111.32 24.15,112.1 L 24.13,112.15 Z M 24.13,112.15" />
            <path id="joe09Canvas-bezier46" stroke="none" fill="rgb(51, 91, 113)" d="M 9.24,116.44 C 10.51,118 11.71,119.63 12.59,121.46 12.8,121.92 12.99,122.39 13.08,122.9 13.13,123.15 13.15,123.41 13.12,123.67 13.07,123.92 13.07,124.15 13.09,124.41 13.17,125.4 13.44,126.38 13.73,127.34 14.32,129.26 15.08,131.13 15.96,132.93 16.41,133.82 16.89,134.71 17.43,135.55 17.98,136.37 18.58,137.2 19.35,137.78 21.05,138.79 22.81,139.81 24.6,140.67 25.5,141.1 26.42,141.49 27.37,141.77 28.3,142.03 29.31,142.23 30.21,141.91 31.09,141.58 31.76,140.81 32.34,140.01 32.92,139.21 33.44,138.34 34.06,137.53 34.38,137.13 34.71,136.74 35.09,136.38 35.45,136.02 35.9,135.71 36.29,135.43 37.07,134.84 37.76,134.12 38.42,133.38 41.02,130.35 43.03,126.83 44.7,123.2 46.37,119.56 47.66,115.74 48.64,111.85 49.58,107.94 50.68,104.03 52.08,100.25 53.49,96.47 55.11,92.74 57.38,89.4 L 57.43,89.43 C 56.34,91.12 55.46,92.94 54.65,94.77 53.83,96.61 53.09,98.48 52.43,100.38 51.1,104.17 50.08,108.06 49.2,111.99 48.22,115.92 46.91,119.77 45.23,123.45 43.51,127.1 41.45,130.63 38.77,133.69 38.09,134.45 37.38,135.17 36.56,135.8 35.7,136.34 35.01,137 34.4,137.79 33.79,138.57 33.26,139.43 32.66,140.25 32.06,141.06 31.36,141.9 30.32,142.27 29.83,142.45 29.28,142.48 28.77,142.43 28.25,142.38 27.75,142.26 27.26,142.11 26.29,141.82 25.36,141.41 24.45,140.98 22.64,140.08 20.92,139.08 19.18,138.02 18.35,137.38 17.76,136.54 17.21,135.69 16.66,134.83 16.19,133.94 15.75,133.03 14.88,131.21 14.14,129.32 13.56,127.39 13.28,126.42 13.02,125.44 12.94,124.42 12.92,124.17 12.93,123.89 12.98,123.65 13.01,123.41 13,123.16 12.95,122.92 12.86,122.43 12.69,121.96 12.48,121.51 11.63,119.69 10.44,118.04 9.2,116.47 L 9.24,116.44 Z M 9.24,116.44" />
            <path id="joe09Canvas-bezier47" stroke="none" fill="rgb(51, 91, 113)" d="M 17.17,121.85 C 17.93,120.02 19,118.33 20.29,116.83 20.95,116.08 21.67,115.39 22.46,114.79 22.85,114.49 23.27,114.21 23.7,113.96 24.14,113.71 24.54,113.49 24.93,113.18 26.49,112 27.87,110.59 29.22,109.17 30.58,107.74 31.88,106.26 33.16,104.77 35.72,101.77 38.14,98.66 40.55,95.55 41.76,93.99 42.93,92.41 44.07,90.81 44.64,90 45.2,89.19 45.73,88.36 46.26,87.54 46.79,86.7 47.19,85.8 L 47.24,85.82 C 46.54,87.69 45.47,89.37 44.41,91.04 43.33,92.7 42.18,94.31 41.02,95.9 38.66,99.08 36.13,102.11 33.52,105.08 32.21,106.56 30.88,108.02 29.5,109.43 28.11,110.84 26.71,112.24 25.11,113.42 24.71,113.72 24.25,113.97 23.83,114.19 23.4,114.43 22.99,114.69 22.6,114.98 21.81,115.55 21.09,116.22 20.43,116.95 19.11,118.4 18.02,120.07 17.22,121.87 L 17.17,121.85 Z M 17.17,121.85" />
            <path id="joe09Canvas-bezier48" stroke="none" fill="rgb(51, 91, 113)" d="M 47.79,84.68 C 48.28,80.8 48.75,76.93 49.11,73.05 49.19,72.07 49.28,71.11 49.25,70.14 49.26,69.16 49.31,68.15 49.64,67.19 49.94,66.23 50.59,65.38 51.23,64.69 51.79,63.95 52.21,63.05 52.63,62.19 53.05,61.31 53.46,60.42 53.93,59.55 54.4,58.69 54.89,57.81 55.67,57.1 55.86,56.93 56.09,56.77 56.34,56.65 56.62,56.53 56.81,56.48 57.03,56.38 57.48,56.21 57.91,56.01 58.35,55.8 59.23,55.4 60.09,54.97 60.96,54.54 61.85,54.12 62.69,53.67 63.67,53.35 63.74,53.33 63.81,53.32 63.88,53.3 63.98,53.29 64.04,53.29 64.09,53.29 64.18,53.29 64.31,53.27 64.42,53.25 64.66,53.22 64.9,53.17 65.17,53.16 65.42,53.14 65.71,53.16 65.97,53.27 66.25,53.37 66.47,53.57 66.63,53.8 66.78,54.02 66.88,54.27 66.95,54.52 67.03,54.79 67.01,55.1 66.89,55.36 66.65,55.87 66.22,56.17 65.79,56.43 64.92,56.91 63.98,57.19 63.03,57.39 L 63.01,57.34 C 63.94,57.06 64.86,56.71 65.65,56.2 66.04,55.94 66.42,55.62 66.58,55.23 66.65,55.03 66.66,54.83 66.59,54.63 66.52,54.41 66.42,54.21 66.3,54.04 66.05,53.69 65.64,53.58 65.2,53.63 64.97,53.64 64.74,53.69 64.5,53.74 64.38,53.76 64.26,53.78 64.11,53.79 64.04,53.79 63.98,53.8 63.96,53.8 63.91,53.81 63.86,53.82 63.81,53.84 62.95,54.14 62.08,54.63 61.22,55.06 60.36,55.5 59.49,55.95 58.61,56.36 58.16,56.57 57.71,56.76 57.25,56.94 57.03,57.03 56.75,57.12 56.58,57.19 56.39,57.27 56.21,57.4 56.04,57.54 55.37,58.14 54.86,58.98 54.38,59.8 53.91,60.65 53.49,61.52 53.05,62.4 52.61,63.26 52.19,64.15 51.56,64.96 50.88,65.68 50.31,66.41 50,67.32 49.68,68.21 49.61,69.18 49.59,70.14 49.6,71.12 49.49,72.11 49.4,73.08 48.96,76.96 48.41,80.82 47.85,84.68 L 47.79,84.68 Z M 47.79,84.68" />
            <path id="joe09Canvas-bezier49" stroke="none" fill="rgb(51, 91, 113)" d="M 62.57,57.53 C 62.02,58.08 61.44,58.6 60.83,59.09 60.53,59.33 60.25,59.62 59.9,59.8 59.56,59.98 59.18,60.13 58.77,60.17 L 58.74,60.12 C 59,59.8 59.28,59.54 59.58,59.3 59.88,59.06 60.23,58.9 60.56,58.7 L 62.53,57.48 62.57,57.53 Z M 62.57,57.53" />
            <path id="joe09Canvas-bezier50" stroke="none" fill="rgb(51, 91, 113)" d="M 58.59,61.06 C 58.44,61.65 58.27,62.24 58.07,62.83 57.97,63.12 57.91,63.43 57.74,63.69 57.66,63.83 57.57,63.95 57.46,64.07 57.33,64.19 57.26,64.32 57.01,64.38 L 57.02,64.32 C 57.04,64.05 57.12,63.72 57.21,63.44 57.3,63.15 57.49,62.91 57.64,62.64 57.93,62.1 58.23,61.57 58.54,61.03 L 58.59,61.06 Z M 58.59,61.06" />
            <path id="joe09Canvas-bezier51" stroke="none" fill="rgb(51, 91, 113)" d="M 51.59,67.6 C 51.56,66.8 51.95,66 52.63,65.54 52.96,65.31 53.34,65.15 53.72,65.05 54.11,64.96 54.47,64.86 54.84,64.75 56.31,64.27 57.76,63.71 59.21,63.15 59.94,62.87 60.67,62.59 61.41,62.35 61.78,62.23 62.16,62.11 62.55,62.03 62.75,61.98 62.94,61.94 63.16,61.92 63.27,61.92 63.37,61.9 63.53,61.94 63.65,61.96 63.79,62.04 63.87,62.1 64.57,62.6 65.02,63.24 65.51,63.85 65.99,64.48 66.42,65.13 66.84,65.79 L 66.79,65.83 C 66.29,65.23 65.78,64.64 65.26,64.07 64.74,63.51 64.2,62.91 63.61,62.52 63.53,62.47 63.5,62.45 63.43,62.43 63.4,62.43 63.3,62.43 63.22,62.45 63.05,62.48 62.87,62.53 62.69,62.58 62.33,62.69 61.96,62.8 61.6,62.93 L 59.38,63.64 C 57.9,64.12 56.44,64.64 54.93,65.05 54.17,65.28 53.36,65.28 52.73,65.7 52.09,66.08 51.66,66.82 51.65,67.6 L 51.59,67.6 Z M 51.59,67.6" />
            <path id="joe09Canvas-bezier52" stroke="none" fill="rgb(51, 91, 113)" d="M 53.11,69.01 C 53.69,68.56 54.33,68.19 55,67.89 55.68,67.6 56.4,67.39 57.16,67.35 58.61,67.42 60.01,67.02 61.42,66.69 L 63.55,66.15 C 63.9,66.06 64.26,65.98 64.64,65.93 64.82,65.9 65.01,65.88 65.22,65.88 65.32,65.88 65.43,65.88 65.56,65.91 65.59,65.92 65.63,65.93 65.67,65.94 L 65.73,65.97 65.76,65.99 65.89,66.07 C 66.52,66.5 67.08,66.97 67.61,67.49 67.88,67.75 68.14,68.02 68.38,68.3 68.49,68.45 68.61,68.59 68.71,68.75 68.8,68.91 68.92,69.08 68.91,69.29 L 68.86,69.29 C 68.75,68.97 68.44,68.73 68.18,68.49 67.92,68.25 67.63,68.02 67.35,67.8 66.77,67.37 66.19,66.92 65.59,66.57 L 65.48,66.51 65.45,66.49 C 65.46,66.5 65.45,66.49 65.45,66.49 L 65.43,66.49 C 65.38,66.48 65.31,66.48 65.23,66.48 65.07,66.48 64.9,66.51 64.72,66.53 64.38,66.58 64.02,66.65 63.67,66.72 L 61.53,67.15 C 60.81,67.3 60.09,67.44 59.36,67.55 58.65,67.66 57.87,67.72 57.16,67.65 55.74,67.65 54.34,68.26 53.14,69.06 L 53.11,69.01 Z M 53.11,69.01" />
            <path id="joe09Canvas-bezier53" stroke="none" fill="rgb(51, 91, 113)" d="M 56.22,70.54 C 57.24,70.65 58.31,70.7 59.28,70.4 59.52,70.33 59.7,70.19 59.95,70.05 60.19,69.93 60.43,69.83 60.67,69.73 61.16,69.54 61.65,69.38 62.15,69.23 63.16,68.96 64.17,68.7 65.25,68.68 65.52,68.69 65.81,68.69 66.11,68.88 66.33,69.04 66.53,69.21 66.73,69.39 67.12,69.74 67.5,70.1 67.86,70.48 68.23,70.86 68.58,71.24 68.92,71.66 69.08,71.87 69.24,72.08 69.39,72.32 69.46,72.45 69.54,72.57 69.58,72.77 69.6,72.87 69.59,72.85 69.59,72.9 69.59,72.95 69.59,73.01 69.58,73.05 69.57,73.13 69.56,73.21 69.54,73.27 69.25,74.35 68.78,75.27 68.28,76.2 68.15,76.43 68.01,76.66 67.87,76.88 67.71,77.11 67.58,77.32 67.34,77.55 67.33,77.57 67.3,77.59 67.27,77.6 67.25,77.62 67.23,77.63 67.17,77.65 67.03,77.69 67.06,77.67 66.99,77.67 66.9,77.67 66.83,77.65 66.76,77.64 66.61,77.6 66.47,77.55 66.34,77.49 66.07,77.37 65.84,77.17 65.67,76.93 65.32,76.45 65.26,75.84 65.33,75.31 65.41,74.78 65.59,74.28 65.82,73.81 L 65.87,73.83 C 65.73,74.33 65.61,74.83 65.6,75.33 65.58,75.83 65.69,76.33 65.99,76.68 66.14,76.84 66.32,76.98 66.53,77.06 66.64,77.11 66.74,77.14 66.85,77.16 66.9,77.17 66.96,77.17 67,77.17 67,77.17 67.09,77.17 67.01,77.17 66.97,77.19 67,77.18 67.01,77.17 67.13,77.04 67.28,76.8 67.4,76.59 67.53,76.37 67.65,76.15 67.76,75.92 68,75.47 68.23,75 68.43,74.54 68.64,74.07 68.85,73.59 68.98,73.13 69,73.08 69.01,73.02 69.02,72.97 69.02,72.95 69.02,72.94 69.03,72.93 69.03,72.92 69.02,72.83 69.02,72.87 69.02,72.81 68.97,72.7 68.91,72.6 68.8,72.39 68.65,72.19 68.5,71.98 68.2,71.58 67.87,71.19 67.52,70.8 67.18,70.42 66.82,70.05 66.45,69.7 66.26,69.53 66.07,69.36 65.88,69.21 65.74,69.11 65.48,69.07 65.25,69.06 64.25,69.05 63.23,69.27 62.23,69.52 61.74,69.64 61.24,69.79 60.76,69.96 60.51,70.04 60.27,70.13 60.04,70.24 59.83,70.34 59.59,70.51 59.33,70.57 58.29,70.84 57.24,70.74 56.22,70.6 L 56.22,70.54 Z M 56.22,70.54" />
            <path id="joe09Canvas-bezier54" stroke="none" fill="rgb(51, 91, 113)" d="M 67.48,74.38 C 67.1,74.53 66.68,74.59 66.26,74.55 66.05,74.53 65.81,74.53 65.63,74.39 65.45,74.26 65.29,74.08 65.25,73.83 L 65.28,73.78 C 65.54,73.78 65.71,73.82 65.88,73.86 66.05,73.89 66.19,74.02 66.36,74.09 66.7,74.21 67.08,74.3 67.47,74.32 L 67.48,74.38 Z M 67.48,74.38" />
            <path id="joe09Canvas-bezier55" stroke="none" fill="rgb(51, 91, 113)" d="M 65.68,71.71 C 65.65,72.25 65.51,72.8 65.19,73.3 65.03,73.54 64.84,73.81 64.53,73.92 64.23,74.02 63.89,74.01 63.63,73.83 L 63.63,73.78 C 63.9,73.62 64.09,73.51 64.27,73.38 64.44,73.26 64.65,73.17 64.83,73 65.16,72.66 65.43,72.19 65.62,71.7 L 65.68,71.71 Z M 65.68,71.71" />
            <path id="joe09Canvas-bezier56" stroke="none" fill="rgb(51, 91, 113)" d="M 62.58,72.83 C 62.87,73.48 63.07,74.17 63.08,74.92 63.07,75.29 63.07,75.71 62.83,76.06 62.61,76.4 62.23,76.65 61.84,76.64 L 61.81,76.59 C 62.06,76.3 62.21,76.05 62.32,75.77 62.42,75.5 62.55,75.22 62.61,74.89 62.7,74.24 62.65,73.53 62.52,72.85 L 62.58,72.83 Z M 62.58,72.83" />
            <path id="joe09Canvas-bezier57" stroke="none" fill="rgb(51, 91, 113)" d="M 61.01,76.61 C 61.33,77.82 61.55,79.07 61.6,80.34 61.61,80.98 61.57,81.62 61.42,82.25 61.35,82.56 61.2,82.9 61.09,83.16 60.98,83.44 60.89,83.73 60.81,84.03 60.51,85.22 60.39,86.5 59.81,87.7 59.52,88.28 59.11,88.86 58.5,89.19 57.9,89.53 57.21,89.57 56.59,89.43 L 56.6,89.37 C 57.22,89.34 57.83,89.2 58.28,88.85 58.74,88.5 59.06,88 59.28,87.45 59.74,86.35 59.99,85.12 60.36,83.9 60.46,83.6 60.56,83.29 60.7,82.99 60.85,82.69 60.97,82.45 61.05,82.15 61.22,81.58 61.29,80.96 61.3,80.34 61.34,79.1 61.2,77.85 60.95,76.62 L 61.01,76.61 Z M 61.01,76.61" />
            <path id="joe09Canvas-bezier58" stroke="none" fill="rgb(51, 91, 113)" d="M 68.84,64.32 C 70.08,64.46 71.31,64.69 72.51,65.06 73.11,65.26 73.71,65.49 74.25,65.85 74.52,66.03 74.79,66.25 74.99,66.54 75.09,66.69 75.16,66.87 75.21,67.01 75.27,67.15 75.33,67.27 75.4,67.41 75.98,68.46 76.83,69.37 77.65,70.29 78.47,71.2 79.34,72.07 80.34,72.81 L 80.31,72.86 C 79.12,72.41 78.14,71.56 77.22,70.7 76.33,69.8 75.55,68.78 74.98,67.62 74.91,67.47 74.84,67.31 74.79,67.16 74.73,67 74.7,66.89 74.63,66.77 74.49,66.54 74.27,66.34 74.04,66.16 73.56,65.82 72.99,65.56 72.42,65.34 71.27,64.9 70.06,64.6 68.83,64.38 L 68.84,64.32 Z M 68.84,64.32" />
            <path id="joe09Canvas-bezier59" stroke="none" fill="rgb(51, 91, 113)" d="M 77.43,68.57 C 77.94,68.08 78.53,67.66 79.2,67.42 79.86,67.16 80.66,67.16 81.28,67.56 81.59,67.75 81.85,68.01 82.06,68.3 82.28,68.59 82.45,68.89 82.7,69.13 83.18,69.63 83.8,69.98 84.44,70.24 85.74,70.76 87.14,70.97 88.46,71.54 89.11,71.83 89.74,72.25 90.17,72.86 90.38,73.16 90.54,73.5 90.65,73.84 L 90.96,74.86 C 92.57,80.29 94.1,85.73 95.65,91.17 L 97.96,99.34 100.17,107.53 100.68,109.6 100.8,110.12 C 100.82,110.21 100.84,110.29 100.85,110.41 L 100.86,110.44 C 100.85,110.48 100.86,110.41 100.85,110.53 L 100.84,110.56 C 100.82,110.65 100.74,110.74 100.72,110.75 100.65,110.81 100.6,110.83 100.55,110.86 100.17,111.04 99.83,111.1 99.48,111.18 98.09,111.47 96.7,111.7 95.32,111.95 93.94,112.2 92.56,112.47 91.21,112.84 90.54,113.03 89.87,113.24 89.23,113.51 88.61,113.8 87.93,114.13 87.61,114.76 L 87.56,114.73 C 87.86,114.06 88.54,113.69 89.16,113.36 89.8,113.05 90.46,112.8 91.14,112.58 92.49,112.16 93.86,111.84 95.24,111.54 96.62,111.24 98.01,111 99.37,110.68 99.69,110.6 100.06,110.52 100.31,110.39 100.34,110.38 100.37,110.36 100.36,110.36 100.38,110.34 100.32,110.4 100.32,110.45 L 100.33,110.41 100.32,110.47 C 100.32,110.47 100.33,110.48 100.32,110.47 100.32,110.41 100.29,110.32 100.28,110.24 L 100.15,109.73 99.6,107.68 95.19,91.3 C 93.71,85.84 92.22,80.38 90.68,74.95 90.46,74.27 90.34,73.56 89.95,73.01 89.57,72.45 88.99,72.05 88.36,71.76 87.1,71.18 85.69,70.95 84.37,70.4 83.72,70.13 83.08,69.76 82.59,69.23 82.34,68.98 82.15,68.65 81.96,68.38 81.75,68.1 81.51,67.85 81.21,67.66 80.64,67.28 79.88,67.26 79.23,67.5 78.57,67.73 77.98,68.14 77.47,68.62 L 77.43,68.57 Z M 77.43,68.57" />
            <path id="joe09Canvas-bezier60" stroke="none" fill="rgb(51, 91, 113)" d="M 89.05,94.25 C 88.67,95.26 88.34,96.3 88.08,97.35 87.83,98.41 87.64,99.48 87.63,100.55 87.63,101.09 87.67,101.63 87.84,102.13 87.91,102.39 88.06,102.59 88.16,102.87 88.25,103.15 88.28,103.43 88.3,103.71 88.35,104.81 88.23,105.9 88.09,106.98 87.49,111.3 86.51,115.53 85.69,119.8 85.49,120.86 85.29,121.93 85.12,122.99 84.97,124.05 84.78,125.15 84.88,126.16 85.09,128.35 85.14,130.51 85.18,132.69 85.2,137.04 85.1,141.4 84.62,145.73 L 84.57,145.72 C 84.7,141.38 84.72,137.04 84.59,132.7 84.57,131.62 84.54,130.54 84.49,129.45 84.44,128.37 84.4,127.28 84.3,126.22 84.24,125.64 84.3,125.08 84.36,124.53 84.42,123.99 84.51,123.45 84.6,122.91 84.79,121.83 85.01,120.77 85.23,119.7 86.11,115.44 87.14,111.22 87.8,106.94 87.95,105.87 88.1,104.79 88.07,103.72 88.05,103.45 88.03,103.19 87.95,102.94 87.88,102.72 87.71,102.46 87.64,102.19 87.47,101.66 87.44,101.1 87.45,100.55 87.48,99.45 87.7,98.38 87.97,97.32 88.25,96.27 88.59,95.24 88.99,94.23 L 89.05,94.25 Z M 89.05,94.25" />
            <path id="joe09Canvas-bezier61" stroke="none" fill="rgb(51, 91, 113)" d="M 94.99,112.61 C 94.77,116.01 94.63,119.42 94.61,122.83 94.61,124.53 94.63,126.23 94.74,127.93 94.86,129.63 95.01,131.33 95.66,132.89 96.28,134.47 97.08,135.99 97.66,137.6 98.26,139.21 98.67,140.89 98.88,142.6 99.31,146.02 98.99,149.48 98.37,152.84 97.75,156.21 96.78,159.5 95.77,162.75 94.72,166.01 93.54,169.21 92.25,172.37 90.93,175.52 89.51,178.62 88.09,181.72 87.38,183.26 86.69,184.82 86.07,186.4 85.45,187.98 84.91,189.6 84.61,191.28 L 84.55,191.27 C 85.03,187.87 86.4,184.68 87.71,181.55 89.06,178.41 90.45,175.31 91.71,172.15 92.99,169 94.17,165.81 95.22,162.57 96.26,159.34 97.26,156.08 97.91,152.75 98.56,149.42 98.89,146.01 98.5,142.64 98.31,140.96 97.92,139.31 97.34,137.72 96.78,136.12 96.01,134.6 95.39,133 94.74,131.39 94.6,129.64 94.5,127.95 94.41,126.24 94.41,124.53 94.44,122.83 94.5,119.41 94.68,116.01 94.93,112.6 L 94.99,112.61 Z M 94.99,112.61" />
            <path id="joe09Canvas-bezier62" stroke="none" fill="rgb(51, 91, 113)" d="M 13.57,196.1 C 13.09,198.38 12.71,200.67 12.39,202.97 12.05,205.27 11.79,207.58 11.61,209.89 11.44,212.2 11.39,214.52 11.4,216.83 11.39,219.14 11.54,221.45 11.95,223.74 L 11.89,223.76 C 11.15,221.54 10.91,219.17 10.81,216.84 10.73,214.5 10.91,212.17 11.14,209.85 11.62,205.21 12.42,200.61 13.51,196.09 L 13.57,196.1 Z M 13.57,196.1" />
            <path id="joe09Canvas-bezier63" stroke="none" fill="rgb(51, 91, 113)" d="M 64.27,24.01 C 63.71,24.15 63.16,24.34 62.63,24.56 62.1,24.77 61.58,25.01 61.09,25.29 60.6,25.57 60.17,25.92 59.73,26.24 59.28,26.57 58.88,26.93 58.49,27.38 L 58.44,27.35 C 58.54,26.75 58.91,26.21 59.35,25.79 59.79,25.36 60.35,25.11 60.88,24.87 61.97,24.38 63.1,24.09 64.26,23.95 L 64.27,24.01 Z M 64.27,24.01" />
            <path id="joe09Canvas-bezier64" stroke="none" fill="rgb(51, 91, 113)" d="M 43.29,32.93 C 44.98,31.7 46.77,30.58 48.66,29.65 49.6,29.18 50.56,28.72 51.61,28.48 52.13,28.37 52.67,28.29 53.22,28.3 53.75,28.31 54.32,28.41 54.77,28.71 L 54.75,28.76 C 53.73,28.52 52.73,28.78 51.76,29.05 50.79,29.35 49.81,29.68 48.85,30.08 47.9,30.48 46.96,30.94 46.04,31.43 45.12,31.92 44.21,32.43 43.32,32.98 L 43.29,32.93 Z M 43.29,32.93" />
            <path id="joe09Canvas-bezier65" stroke="none" fill="rgb(51, 91, 113)" d="M 58.76,43.37 C 58.67,43.16 58.6,42.92 58.67,42.64 58.74,42.37 59.01,42.15 59.26,42.08 59.4,42.03 59.51,42.01 59.63,41.98 59.75,41.96 59.87,41.95 60,41.98 60.23,42.03 60.54,42.14 60.63,42.45 L 60.58,42.49 C 60.34,42.49 60.17,42.55 59.96,42.57 59.87,42.58 59.76,42.57 59.67,42.56 59.56,42.55 59.44,42.54 59.36,42.54 59.18,42.55 59.03,42.6 58.94,42.76 58.83,42.91 58.8,43.14 58.82,43.36 L 58.76,43.37 Z M 58.76,43.37" />
            <path id="joe09Canvas-bezier66" stroke="none" fill="rgb(51, 91, 113)" d="M 63.4,41.06 C 63.41,41.05 63.36,41.12 63.34,41.17 63.32,41.23 63.3,41.29 63.28,41.36 63.23,41.48 63.2,41.6 63.17,41.72 63.13,41.85 63.15,41.99 63.08,42.07 63.04,42.12 63.01,42.16 62.96,42.19 62.94,42.2 62.92,42.22 62.89,42.22 62.85,42.22 62.81,42.24 62.84,42.29 L 62.84,42.35 C 62.81,42.4 62.69,42.38 62.64,42.32 62.59,42.26 62.56,42.2 62.55,42.15 62.52,42.05 62.52,41.96 62.52,41.88 62.53,41.72 62.66,41.62 62.75,41.51 62.84,41.4 62.93,41.29 63.04,41.19 63.09,41.15 63.15,41.1 63.21,41.06 63.24,41.04 63.27,41.02 63.31,41 63.33,40.99 63.35,40.98 63.37,40.98 63.4,40.96 63.46,41.01 63.45,41.02 L 63.4,41.06 Z M 63.4,41.06" />
            <path id="joe09Canvas-bezier67" stroke="none" fill="rgb(51, 91, 113)" d="M 55.89,42.56 C 55.78,42.83 55.88,43.13 56.06,43.33 56.24,43.54 56.49,43.69 56.74,43.81 57,43.94 57.27,44.01 57.54,44.12 57.8,44.24 58.07,44.33 58.33,44.49 L 58.33,44.51 C 58.02,44.53 57.73,44.47 57.44,44.4 57.15,44.32 56.88,44.18 56.63,44.02 56.37,43.87 56.12,43.68 55.94,43.42 55.77,43.17 55.7,42.81 55.87,42.55 L 55.89,42.56 Z M 55.89,42.56" />
            <path id="joe09Canvas-bezier68" stroke="none" fill="rgb(51, 91, 113)" d="M 58.25,30.15 C 58.72,31.25 59.24,32.34 59.8,33.39 60.08,33.92 60.42,34.4 60.69,34.93 60.97,35.45 61.24,35.96 61.56,36.48 L 61.52,36.53 C 60.96,36.22 60.55,35.73 60.19,35.24 59.83,34.73 59.62,34.16 59.37,33.6 58.9,32.48 58.51,31.33 58.19,30.17 L 58.25,30.15 Z M 58.25,30.15" />
            <path id="joe09Canvas-bezier69" stroke="none" fill="rgb(51, 91, 113)" d="M 53.13,33.67 C 52.28,34.27 51.35,34.75 50.35,35.07 49.85,35.23 49.34,35.36 48.81,35.37 48.28,35.37 47.74,35.31 47.26,35.09 L 47.27,35.06 C 47.78,35.11 48.29,35.13 48.79,35.08 49.29,35.03 49.79,34.97 50.29,34.84 51.27,34.58 52.23,34.17 53.11,33.64 L 53.13,33.67 Z M 53.13,33.67" />
            <path id="joe09Canvas-bezier70" stroke="none" fill="rgb(51, 91, 113)" d="M 52.99,32.96 C 52.61,32.39 51.96,32 51.29,31.98 50.61,31.93 49.97,32.21 49.4,32.58 48.82,32.95 48.31,33.41 47.78,33.85 47.25,34.29 46.75,34.76 46.22,35.22 L 46.2,35.2 C 46.61,34.63 47.09,34.12 47.59,33.63 48.1,33.15 48.67,32.73 49.28,32.38 49.88,32.03 50.58,31.75 51.3,31.83 52.02,31.9 52.66,32.34 53.02,32.94 L 52.99,32.96 Z M 52.99,32.96" />
            <path id="joe09Canvas-bezier71" stroke="none" fill="rgb(51, 91, 113)" d="M 45.92,34.68 C 46.87,33.55 47.97,32.52 49.29,31.8 49.61,31.62 49.96,31.47 50.32,31.35 50.5,31.3 50.69,31.24 50.9,31.25 51.1,31.25 51.29,31.28 51.48,31.31 51.85,31.4 52.21,31.52 52.54,31.7 52.87,31.88 53.18,32.13 53.38,32.46 L 53.35,32.47 C 52.84,31.95 52.12,31.72 51.42,31.6 51.25,31.57 51.07,31.56 50.9,31.56 50.74,31.54 50.58,31.58 50.4,31.63 50.06,31.72 49.72,31.85 49.39,32.01 48.74,32.33 48.13,32.74 47.56,33.2 46.99,33.66 46.44,34.16 45.94,34.7 L 45.92,34.68 Z M 45.92,34.68" />
            <path id="joe09Canvas-bezier72" stroke="none" fill="rgb(51, 91, 113)" d="M 59.83,30.21 C 60.31,29.43 60.89,28.69 61.64,28.11 62.01,27.82 62.44,27.55 62.95,27.51 63.45,27.47 63.96,27.71 64.23,28.1 L 64.21,28.12 C 63.82,27.87 63.39,27.73 62.98,27.81 62.56,27.87 62.15,28.05 61.78,28.3 61.04,28.81 60.4,29.5 59.85,30.23 L 59.83,30.21 Z M 59.83,30.21" />
            <path id="joe09Canvas-bezier73" stroke="none" fill="rgb(51, 91, 113)" d="M 60.07,31.39 C 61,31.3 61.93,31.14 62.79,30.83 63.22,30.67 63.63,30.45 63.95,30.17 64.29,29.89 64.46,29.47 64.42,28.99 L 64.45,28.98 C 64.54,29.2 64.58,29.46 64.53,29.71 64.48,29.97 64.33,30.19 64.16,30.38 63.79,30.74 63.32,30.92 62.87,31.05 61.95,31.33 61.01,31.42 60.07,31.42 L 60.07,31.39 Z M 60.07,31.39" />
            <path id="joe09Canvas-bezier74" stroke="none" fill="rgb(51, 91, 113)" d="M 59.92,29.1 C 60.48,28.43 61.11,27.83 61.87,27.37 62.25,27.14 62.66,26.93 63.14,26.92 63.6,26.91 64.09,27.13 64.32,27.51 L 64.3,27.53 C 63.94,27.27 63.55,27.16 63.15,27.22 62.76,27.26 62.36,27.39 61.98,27.57 61.24,27.97 60.56,28.52 59.94,29.12 L 59.92,29.1 Z M 59.92,29.1" />
            <path id="joe09Canvas-bezier75" stroke="none" fill="rgb(51, 91, 113)" d="M 50.55,32.02 C 50.86,32.22 51.07,32.58 51.13,32.94 51.19,33.3 51.12,33.76 50.75,34.01 50.56,34.13 50.34,34.14 50.13,34.08 49.92,34.02 49.76,33.88 49.63,33.72 49.4,33.4 49.3,32.98 49.42,32.62 L 49.45,32.62 C 49.5,32.98 49.64,33.3 49.86,33.53 50.07,33.76 50.36,33.94 50.63,33.8 50.9,33.67 51.02,33.29 50.99,32.96 50.96,32.62 50.81,32.28 50.54,32.05 L 50.55,32.02 Z M 50.55,32.02" />
            <path id="joe09Canvas-bezier76" stroke="none" fill="rgb(51, 91, 113)" d="M 62.85,27.82 C 63.17,28.02 63.39,28.37 63.46,28.74 63.53,29.11 63.46,29.57 63.09,29.83 62.89,29.95 62.67,29.96 62.45,29.9 62.25,29.84 62.08,29.7 61.95,29.53 61.72,29.2 61.63,28.77 61.76,28.41 L 61.79,28.42 C 61.83,28.78 61.96,29.11 62.18,29.35 62.39,29.58 62.69,29.76 62.97,29.62 63.24,29.48 63.36,29.1 63.32,28.76 63.28,28.42 63.13,28.07 62.84,27.85 L 62.85,27.82 Z M 62.85,27.82" />
            <path id="joe09Canvas-bezier77" stroke="none" fill="rgb(51, 91, 113)" d="M 56.93,50.08 C 58.48,49.66 60.02,49.23 61.6,48.89 61.82,48.85 61.96,48.82 62.14,48.73 62.32,48.64 62.49,48.55 62.67,48.45 L 63.71,47.87 C 64.06,47.68 64.41,47.49 64.77,47.31 65.14,47.14 65.49,46.93 65.91,46.87 L 65.9,46.9 C 65.72,46.94 65.55,47.07 65.38,47.17 L 64.87,47.49 63.86,48.13 C 63.51,48.33 63.16,48.53 62.8,48.71 62.62,48.8 62.44,48.89 62.25,48.97 62.07,49.06 61.82,49.11 61.64,49.12 60.86,49.26 60.07,49.43 59.29,49.6 L 56.94,50.11 56.93,50.08 Z M 56.93,50.08" />
            <path id="joe09Canvas-bezier78" stroke="none" fill="rgb(51, 91, 113)" d="M 58.38,51.04 C 59.09,51.14 59.8,51.15 60.5,51.09 61.2,51.04 61.9,50.89 62.5,50.59 62.79,50.45 63.08,50.23 63.37,50.02 63.66,49.82 63.95,49.62 64.24,49.42 64.81,49.02 65.41,48.67 65.8,48.07 L 65.85,48.09 C 65.82,48.48 65.61,48.82 65.38,49.11 65.14,49.41 64.87,49.66 64.59,49.9 64.3,50.14 63.99,50.33 63.68,50.52 L 63.21,50.78 C 63.05,50.87 62.87,50.95 62.69,51.02 61.99,51.3 61.24,51.39 60.51,51.39 59.78,51.37 59.07,51.27 58.37,51.09 L 58.38,51.04 Z M 58.38,51.04" />
            <path id="joe09Canvas-bezier79" stroke="none" fill="rgb(51, 91, 113)" d="M 61.21,53.56 C 61.68,53.11 62.21,52.72 62.8,52.41 63.09,52.26 63.39,52.08 63.74,52.05 64.08,52.01 64.44,52.04 64.75,52.23 L 64.75,52.29 C 64.42,52.43 64.15,52.52 63.86,52.62 63.58,52.73 63.27,52.75 62.98,52.85 62.39,53.04 61.8,53.3 61.24,53.61 L 61.21,53.56 Z M 61.21,53.56" />
            <path id="joe09Canvas-bezier80" stroke="none" fill="rgb(51, 91, 113)" d="M 27.77,106.71 C 26.95,105.11 26.09,103.53 25.18,101.99 L 23.76,99.73 C 23.3,98.98 22.86,98.22 22.27,97.53 L 22.31,97.49 C 22.72,97.7 23.06,98.02 23.38,98.35 23.7,98.68 23.98,99.04 24.25,99.41 24.78,100.15 25.18,100.96 25.59,101.76 26.42,103.37 27.15,105.01 27.82,106.68 L 27.77,106.71 Z M 27.77,106.71" />
            <path id="joe09Canvas-bezier81" stroke="none" fill="rgb(51, 91, 113)" d="M 61.65,99.29 C 61.59,99.62 61.52,99.95 61.39,100.26 61.33,100.42 61.24,100.58 61.12,100.72 60.99,100.85 60.83,100.98 60.57,100.97 60.5,100.96 60.35,100.91 60.28,100.84 60.19,100.78 60.12,100.7 60.07,100.62 59.96,100.46 59.9,100.28 59.85,100.1 59.76,99.75 59.75,99.4 59.78,99.03 59.81,98.69 59.89,98.32 60.04,97.98 60.12,97.81 60.22,97.64 60.38,97.48 60.54,97.34 60.75,97.19 61.1,97.24 61.14,97.24 61.36,97.33 61.43,97.41 61.52,97.5 61.58,97.6 61.62,97.69 61.71,97.88 61.74,98.07 61.75,98.25 61.76,98.61 61.7,98.95 61.65,99.29 Z M 61.59,99.28 C 61.63,98.95 61.57,98.61 61.44,98.32 61.32,98.03 61.11,97.79 60.97,97.81 60.98,97.83 60.87,97.85 60.8,97.93 60.71,98.01 60.62,98.12 60.55,98.25 60.4,98.5 60.3,98.78 60.24,99.1 60.19,99.4 60.17,99.72 60.23,100.02 60.28,100.31 60.39,100.63 60.63,100.68 60.82,100.73 61.12,100.47 61.28,100.21 61.46,99.93 61.56,99.61 61.59,99.28 Z M 61.59,99.28" />
            <path id="joe09Canvas-bezier82" stroke="none" fill="rgb(51, 91, 113)" d="M 64.28,124.24 C 64.3,124.58 64.31,124.92 64.27,125.26 64.24,125.43 64.2,125.6 64.11,125.77 64.02,125.93 63.9,126.09 63.64,126.14 63.58,126.15 63.41,126.14 63.33,126.09 63.23,126.05 63.14,125.99 63.07,125.93 62.93,125.79 62.82,125.64 62.74,125.48 62.56,125.16 62.46,124.82 62.4,124.46 62.35,124.12 62.33,123.74 62.4,123.37 62.44,123.19 62.49,123 62.61,122.81 62.73,122.63 62.89,122.43 63.25,122.4 63.29,122.39 63.52,122.42 63.61,122.48 63.72,122.55 63.8,122.62 63.86,122.7 63.99,122.87 64.07,123.04 64.12,123.22 64.23,123.57 64.25,123.91 64.28,124.24 Z M 64.22,124.25 C 64.17,123.92 64.03,123.61 63.84,123.36 63.65,123.11 63.39,122.93 63.26,122.99 63.24,122.99 63.02,123.23 62.96,123.51 62.88,123.79 62.85,124.09 62.87,124.41 62.89,124.71 62.96,125.03 63.08,125.31 63.2,125.58 63.39,125.86 63.63,125.85 63.83,125.85 64.05,125.52 64.15,125.23 64.25,124.92 64.27,124.58 64.22,124.25 Z M 64.22,124.25" />
            <path id="joe09Canvas-bezier83" stroke="none" fill="rgb(51, 91, 113)" d="M 63.47,147.66 C 63.43,147.99 63.38,148.33 63.27,148.65 63.22,148.82 63.15,148.98 63.03,149.13 62.92,149.27 62.74,149.41 62.51,149.41 62.42,149.41 62.28,149.36 62.2,149.3 62.11,149.24 62.04,149.17 61.98,149.09 61.86,148.94 61.78,148.77 61.73,148.59 61.61,148.25 61.58,147.89 61.58,147.53 61.59,147.18 61.65,146.81 61.78,146.46 61.85,146.28 61.94,146.11 62.09,145.94 62.22,145.79 62.46,145.63 62.76,145.65 62.86,145.66 63.04,145.73 63.13,145.81 63.22,145.89 63.29,145.98 63.34,146.07 63.44,146.25 63.48,146.44 63.5,146.62 63.54,146.98 63.5,147.32 63.47,147.66 Z M 63.41,147.65 C 63.42,147.32 63.34,146.99 63.2,146.71 63.07,146.43 62.81,146.2 62.72,146.24 62.65,146.23 62.43,146.43 62.31,146.69 62.17,146.95 62.09,147.25 62.05,147.56 62.02,147.87 62.02,148.19 62.09,148.48 62.16,148.77 62.31,149.08 62.53,149.11 62.75,149.15 63.01,148.87 63.16,148.6 63.32,148.32 63.4,147.99 63.41,147.65 Z M 63.41,147.65" />
            <path id="joe09Canvas-bezier84" stroke="none" fill="rgb(51, 91, 113)" d="M 65.75,172.36 C 65.76,172.7 65.75,173.03 65.69,173.37 65.66,173.54 65.61,173.71 65.52,173.87 65.42,174.03 65.29,174.19 65.03,174.23 64.96,174.24 64.8,174.22 64.72,174.17 64.62,174.12 64.54,174.06 64.47,173.99 64.33,173.85 64.24,173.69 64.15,173.53 63.99,173.2 63.91,172.86 63.86,172.5 63.83,172.16 63.82,171.78 63.9,171.41 63.95,171.23 64.01,171.04 64.14,170.86 64.25,170.68 64.47,170.49 64.76,170.47 64.87,170.47 65.05,170.51 65.15,170.57 65.26,170.64 65.34,170.72 65.4,170.8 65.52,170.97 65.58,171.15 65.63,171.33 65.72,171.68 65.73,172.03 65.75,172.36 Z M 65.69,172.36 C 65.66,172.03 65.53,171.72 65.35,171.46 65.18,171.2 64.89,171.01 64.81,171.06 64.73,171.06 64.54,171.3 64.46,171.57 64.36,171.85 64.33,172.14 64.33,172.47 64.34,172.77 64.39,173.09 64.5,173.37 64.61,173.65 64.79,173.93 65.03,173.93 65.23,173.94 65.47,173.63 65.57,173.34 65.69,173.03 65.72,172.7 65.69,172.36 Z M 65.69,172.36" />
            <path id="joe09Canvas-bezier85" stroke="none" fill="rgb(51, 91, 113)" d="M 78.48,181.79 C 79.21,178.75 79.9,175.7 80.53,172.64 80.84,171.1 81.15,169.57 81.41,168.03 81.66,166.49 81.91,164.95 81.98,163.4 82.1,160.28 82.21,157.13 82.83,154.03 83.15,152.49 83.55,150.94 84.2,149.5 84.85,148.07 85.77,146.64 87.19,145.92 L 87.22,145.97 C 86.58,146.39 86.04,146.96 85.62,147.6 85.19,148.24 84.85,148.94 84.58,149.66 84.02,151.09 83.66,152.61 83.4,154.14 82.88,157.19 82.63,160.31 82.45,163.43 82.35,165.01 82.07,166.56 81.78,168.1 81.49,169.64 81.16,171.17 80.82,172.7 80.11,175.75 79.35,178.78 78.54,181.8 L 78.48,181.79 Z M 78.48,181.79" />
        </g>
    </g>
</svg>
