<?xml version="1.0" encoding="UTF-8"?>
<!DOCTYPE svg PUBLIC "-//W3C//DTD SVG 1.1//EN" "http://www.w3.org/Graphics/SVG/1.1/DTD/svg11.dtd">
<svg version="1.1" xmlns="http://www.w3.org/2000/svg" xmlns:xlink="http://www.w3.org/1999/xlink" width="138" height="378"  xml:space="preserve" id="joe07Canvas">
    <!-- Generated by PaintCode - http://www.paintcodeapp.com -->
    <g id="joe07Canvas-lines">
        <path id="joe07Canvas-bezier" stroke="none" fill="rgb(51, 91, 113)" d="M 39.53,192.35 C 39.63,192.8 39.74,193.26 39.88,193.7 40.02,194.13 40.21,194.55 40.39,194.98 L 41.49,197.55 C 41.85,198.41 42.24,199.27 42.46,200.19 42.57,200.65 42.67,201.11 42.71,201.59 42.75,202.06 42.76,202.56 42.64,203.02 L 42.57,203.02 C 42.42,202.1 42.09,201.25 41.8,200.38 41.5,199.52 41.26,198.62 40.97,197.74 L 40.07,195.1 C 39.93,194.65 39.78,194.21 39.68,193.75 39.58,193.29 39.52,192.82 39.46,192.36 L 39.53,192.35 Z M 39.53,192.35" />
        <path id="joe07Canvas-bezier2" stroke="none" fill="rgb(51, 91, 113)" d="M 39.33,197.13 C 39.73,203.23 40.2,209.33 40.72,215.43 41.24,221.52 41.81,227.61 42.5,233.69 42.86,236.72 43.24,239.75 43.69,242.77 44.13,245.79 44.6,248.82 45.32,251.76 45.5,252.5 45.7,253.23 45.94,253.94 46.06,254.29 46.19,254.64 46.35,254.97 L 46.89,255.97 C 47.59,257.35 48.18,258.79 48.6,260.28 49.02,261.76 49.29,263.29 49.37,264.83 49.41,265.6 49.39,266.38 49.3,267.14 49.26,267.53 49.2,267.91 49.1,268.28 49,268.65 48.91,269.04 48.63,269.34 L 48.59,269.29 C 48.82,269.02 48.9,268.62 48.98,268.26 49.05,267.88 49.09,267.51 49.11,267.13 49.16,266.37 49.13,265.61 49.06,264.85 48.92,263.34 48.6,261.85 48.14,260.41 47.67,258.98 47.08,257.58 46.36,256.25 L 45.8,255.24 C 45.62,254.88 45.47,254.52 45.33,254.15 45.07,253.42 44.85,252.68 44.66,251.93 43.24,245.93 42.6,239.83 41.95,233.74 40.71,221.56 39.89,209.35 39.26,197.13 L 39.33,197.13 Z M 39.33,197.13" />
        <path id="joe07Canvas-bezier3" stroke="none" fill="rgb(51, 91, 113)" d="M 45.34,260.01 C 44.94,262.07 44.63,264.15 44.43,266.23 44.24,268.31 44.11,270.42 44.45,272.49 44.96,276.65 45.38,280.83 45.82,285 46.66,293.35 47.5,301.7 48.23,310.06 48.54,314.24 49.04,318.4 49.62,322.55 49.9,324.63 50.21,326.7 50.59,328.75 50.97,330.8 51.37,332.87 52.05,334.81 52.22,335.28 52.42,335.76 52.68,336.14 52.75,336.23 52.82,336.31 52.89,336.37 52.94,336.42 53.04,336.45 53.2,336.57 53.46,336.76 53.65,336.99 53.8,337.24 54.39,338.26 54.49,339.37 54.54,340.43 54.57,341.51 54.48,342.57 54.32,343.62 54.15,344.67 53.92,345.71 53.54,346.72 53.44,346.97 53.33,347.22 53.2,347.46 53.07,347.71 52.9,347.93 52.79,348.14 52.53,348.58 52.3,349.05 52.09,349.52 51.67,350.47 51.33,351.46 51.01,352.45 50.85,352.95 50.7,353.45 50.56,353.95 50.49,354.2 50.43,354.46 50.38,354.71 50.35,354.92 50.42,355.2 50.45,355.45 50.6,356.49 50.79,357.52 50.97,358.55 L 50.9,358.57 C 50.68,357.54 50.46,356.52 50.26,355.49 50.22,355.22 50.14,354.98 50.16,354.67 50.2,354.4 50.26,354.15 50.32,353.89 50.43,353.38 50.57,352.87 50.71,352.36 51,351.35 51.33,350.35 51.73,349.36 51.93,348.87 52.14,348.39 52.41,347.92 52.54,347.67 52.69,347.47 52.79,347.25 52.91,347.02 53,346.79 53.09,346.55 53.73,344.61 54.01,342.5 53.94,340.45 53.89,339.44 53.75,338.38 53.26,337.58 53.14,337.39 52.99,337.22 52.82,337.1 52.77,337.05 52.62,337 52.47,336.88 52.34,336.77 52.24,336.65 52.15,336.53 51.8,336.05 51.6,335.54 51.41,335.04 50.7,333.01 50.3,330.94 49.91,328.88 49.54,326.8 49.23,324.72 48.94,322.64 48.41,318.48 47.95,314.3 47.68,310.1 47.02,301.75 46.25,293.39 45.48,285.03 45.09,280.86 44.71,276.68 44.25,272.51 43.92,270.42 44.08,268.3 44.29,266.22 44.52,264.13 44.85,262.05 45.27,260 L 45.34,260.01 Z M 45.34,260.01" />
        <path id="joe07Canvas-bezier4" stroke="none" fill="rgb(51, 91, 113)" d="M 50.68,360.76 C 50.46,359.88 50.59,358.89 51.14,358.13 51.68,357.36 52.55,356.9 53.42,356.64 55.21,356.14 57.04,356.25 58.84,356.38 59.74,356.45 60.65,356.58 61.54,356.83 62.43,357.08 63.33,357.46 64.03,358.17 64.37,358.54 64.64,359 64.75,359.49 64.85,359.99 64.81,360.52 64.65,360.95 64.38,361.82 64.02,362.73 63.27,363.31 L 63.23,363.26 C 63.52,362.93 63.71,362.52 63.85,362.11 64.01,361.7 64.11,361.27 64.19,360.84 64.38,360.01 64.15,359.2 63.55,358.66 62.97,358.1 62.16,357.75 61.35,357.48 60.52,357.21 59.66,357.04 58.78,356.92 57.03,356.74 55.22,356.56 53.51,356.97 52.67,357.18 51.84,357.56 51.3,358.25 50.76,358.93 50.57,359.88 50.74,360.74 L 50.68,360.76 Z M 50.68,360.76" />
        <path id="joe07Canvas-bezier5" stroke="none" fill="rgb(51, 91, 113)" d="M 51.02,361.47 L 62.22,363.01 C 62.28,363.01 62.32,363.07 62.31,363.12 62.3,363.18 62.25,363.21 62.2,363.21 L 51.18,363.27 50.84,363.28 50.67,363.28 50.65,363.28 50.65,363.28 50.64,363.28 C 50.54,363.26 50.85,363.38 50.75,362.99 50.66,362.92 50.7,362.96 50.68,362.94 L 50.66,362.94 C 50.64,362.93 50.66,362.94 50.66,362.94 L 50.68,362.94 50.77,362.95 51.46,363.06 52.82,363.28 55.53,363.74 60.97,364.68 C 61.09,364.7 61.17,364.81 61.15,364.94 61.13,365.05 61.03,365.13 60.92,365.12 L 49.19,364.63 49.24,364.07 60.45,365.73 C 60.64,365.75 60.77,365.93 60.74,366.11 60.71,366.29 60.56,366.41 60.38,366.4 L 49.84,365.9 49.51,365.89 49.35,365.88 49.27,365.88 49.24,365.88 C 49.23,365.88 49.24,365.88 49.24,365.88 L 49.24,365.88 C 49.03,366.02 49.53,365.7 49.48,365.73 49.48,365.72 49.46,365.76 49.49,365.71 49.52,365.66 49.56,365.5 49.48,365.38 49.41,365.27 49.29,365.24 49.32,365.25 L 49.32,365.25 49.32,365.25 C 49.31,365.25 49.32,365.25 49.32,365.25 L 49.35,365.26 49.43,365.27 49.58,365.31 49.9,365.37 51.2,365.6 53.8,366.04 59.01,366.92 59.02,366.93 C 59.14,366.95 59.23,367.07 59.21,367.2 59.19,367.32 59.08,367.4 58.96,367.39 55.41,367.18 51.86,366.94 48.31,366.68 L 48.31,366.61 C 51.87,366.7 55.43,366.8 58.99,366.92 L 58.94,367.39 53.71,366.62 51.1,366.22 49.79,366.01 49.46,365.95 49.3,365.92 49.21,365.9 49.16,365.89 49.12,365.88 49.1,365.87 49.09,365.87 C 49.12,365.88 48.99,365.85 48.92,365.74 48.84,365.61 48.87,365.45 48.9,365.4 48.93,365.35 48.91,365.39 48.92,365.37 48.87,365.41 49.37,365.09 49.17,365.22 L 49.18,365.22 49.22,365.22 49.27,365.22 49.36,365.22 49.53,365.22 49.86,365.23 C 51.63,365.28 53.38,365.38 55.14,365.46 L 60.42,365.72 60.35,366.4 49.16,364.63 C 49.01,364.6 48.9,364.46 48.92,364.31 48.94,364.16 49.07,364.06 49.21,364.07 L 60.94,364.67 60.89,365.12 55.47,364.13 52.75,363.65 51.4,363.41 50.72,363.3 50.64,363.29 50.62,363.28 C 50.61,363.27 50.62,363.31 50.49,363.23 50.4,362.83 50.72,362.95 50.61,362.93 L 50.62,362.93 50.63,362.93 50.66,362.93 50.84,362.92 51.18,362.92 62.2,363 62.19,363.21 51.01,361.54 51.02,361.47 Z M 51.02,361.47" />
        <path id="joe07Canvas-bezier6" stroke="none" fill="rgb(51, 91, 113)" d="M 55.26,369.39 C 52.65,369.02 50.03,368.49 47.43,368.86 46.79,368.96 46.15,369.12 45.59,369.42 45.03,369.73 44.57,370.2 44.24,370.74 43.57,371.84 43.32,373.18 43.47,374.44 43.55,375.07 43.74,375.7 44.12,376.19 44.5,376.69 45.05,376.93 45.7,376.91 47.03,377.01 48.33,377.18 49.64,377.31 52.25,377.59 54.87,377.82 57.48,377.69 58.77,377.62 60.08,377.47 61.24,376.99 61.53,376.87 61.79,376.73 62.04,376.55 62.31,376.36 62.59,376.16 62.87,375.98 63.43,375.62 64.01,375.28 64.6,374.97 65.77,374.34 66.99,373.79 68.23,373.33 68.86,373.1 69.49,372.88 70.14,372.7 70.47,372.62 70.79,372.53 71.15,372.48 71.36,372.46 71.46,372.46 71.62,372.43 71.76,372.4 71.91,372.36 72.06,372.31 73.26,371.94 74.4,371.28 75.28,370.38 76.16,369.48 76.7,368.28 76.73,367.01 76.75,366.39 76.63,365.72 76.6,365.06 76.55,364.4 76.51,363.74 76.49,363.07 76.46,361.75 76.47,360.43 76.59,359.11 L 76.66,359.11 C 76.58,361.76 76.93,364.34 77.2,367.01 77.24,368.4 76.65,369.78 75.7,370.78 74.76,371.79 73.56,372.51 72.26,372.96 72.1,373.01 71.93,373.06 71.75,373.1 71.58,373.14 71.35,373.15 71.24,373.17 70.95,373.21 70.63,373.29 70.33,373.38 69.71,373.55 69.09,373.76 68.48,373.99 67.27,374.46 66.07,374.97 64.91,375.58 64.34,375.88 63.77,376.2 63.22,376.54 62.94,376.71 62.68,376.89 62.41,377.07 62.12,377.28 61.8,377.44 61.48,377.57 60.18,378.08 58.83,378.19 57.5,378.25 54.84,378.34 52.2,378.07 49.59,377.77 48.28,377.61 46.97,377.42 45.67,377.31 45.37,377.3 44.96,377.26 44.64,377.1 44.31,376.94 44.03,376.7 43.82,376.42 43.4,375.85 43.2,375.16 43.12,374.49 42.99,373.14 43.28,371.74 44,370.59 44.37,370.02 44.87,369.52 45.47,369.21 46.08,368.9 46.74,368.74 47.4,368.65 50.05,368.32 52.69,368.91 55.25,369.32 L 55.26,369.39 Z M 55.26,369.39" />
        <path id="joe07Canvas-bezier7" stroke="none" fill="rgb(51, 91, 113)" d="M 66.64,361.47 C 67.45,361.59 68.25,361.74 69.04,362 69.43,362.15 69.83,362.3 70.19,362.59 70.4,362.82 70.77,362.76 71.13,362.67 71.86,362.47 72.52,362.02 73.15,361.6 73.76,361.15 74.38,360.66 74.64,359.89 L 74.71,359.89 C 74.78,360.32 74.64,360.78 74.41,361.15 74.19,361.53 73.89,361.86 73.57,362.14 72.91,362.71 72.1,363.04 71.24,363.21 71.03,363.25 70.8,363.27 70.56,363.24 70.44,363.23 70.32,363.2 70.2,363.15 70.14,363.12 70.04,363.07 70.01,363.04 L 69.95,362.99 69.89,362.92 C 69.64,362.68 69.27,362.49 68.92,362.32 68.19,361.99 67.41,361.74 66.63,361.54 L 66.64,361.47 Z M 66.64,361.47" />
        <path id="joe07Canvas-bezier8" stroke="none" fill="rgb(51, 91, 113)" d="M 125.69,360.74 C 125.85,359.89 125.68,358.97 125.17,358.29 124.67,357.6 123.87,357.19 123.05,356.98 121.38,356.56 119.61,356.73 117.89,356.93 117.04,357.05 116.19,357.22 115.39,357.5 114.59,357.77 113.82,358.14 113.28,358.7 112.71,359.26 112.52,360.05 112.71,360.88 112.78,361.3 112.88,361.72 113.03,362.12 113.16,362.53 113.34,362.93 113.62,363.26 L 113.57,363.31 C 112.85,362.73 112.51,361.84 112.24,360.99 112.1,360.56 112.04,360.05 112.13,359.56 112.22,359.07 112.45,358.61 112.77,358.24 113.43,357.51 114.32,357.11 115.18,356.85 116.06,356.59 116.94,356.46 117.83,356.38 118.72,356.3 119.6,356.27 120.49,356.28 121.38,356.3 122.28,356.39 123.14,356.65 124,356.92 124.84,357.4 125.34,358.17 125.85,358.93 125.96,359.9 125.76,360.76 L 125.69,360.74 Z M 125.69,360.74" />
        <path id="joe07Canvas-bezier9" stroke="none" fill="rgb(51, 91, 113)" d="M 125.44,361.54 L 114.63,363.21 114.61,363 125.28,362.92 125.61,362.93 125.78,362.93 125.81,362.93 125.82,362.93 C 125.7,362.92 126.07,362.89 125.93,363.23 125.86,363.29 125.89,363.26 125.87,363.27 125.81,363.29 125.81,363.28 125.81,363.29 L 125.79,363.29 125.71,363.3 125.06,363.41 123.75,363.65 121.13,364.14 115.89,365.12 115.84,364.67 127.17,364.07 C 127.33,364.06 127.46,364.18 127.47,364.34 127.47,364.48 127.37,364.61 127.23,364.63 L 116.41,366.4 116.34,365.73 121.44,365.46 C 123.14,365.39 124.84,365.29 126.55,365.23 L 126.87,365.22 127.04,365.22 127.12,365.22 127.17,365.22 127.22,365.23 C 127.01,365.09 127.52,365.41 127.46,365.38 L 127.47,365.38 C 127.49,365.41 127.55,365.53 127.5,365.67 127.45,365.81 127.33,365.86 127.3,365.87 127.11,365.93 127.05,365.93 126.93,365.96 L 126.61,366.01 125.35,366.22 122.82,366.62 117.77,367.39 117.72,366.93 C 121.16,366.8 124.6,366.7 128.04,366.62 L 128.05,366.68 C 124.61,366.94 121.18,367.18 117.75,367.39 117.62,367.4 117.51,367.3 117.5,367.18 117.49,367.06 117.57,366.95 117.69,366.93 L 117.7,366.93 122.73,366.05 125.24,365.6 126.5,365.37 127.06,365.26 C 127.03,365.27 126.92,365.32 126.87,365.45 126.83,365.6 126.89,365.7 126.91,365.74 L 126.91,365.74 C 126.85,365.7 127.36,366.02 127.14,365.89 L 127.15,365.89 127.12,365.89 127.05,365.89 126.89,365.89 126.58,365.91 116.37,366.41 C 116.19,366.42 116.02,366.28 116.01,366.09 116,365.91 116.13,365.76 116.3,365.73 L 127.14,364.08 127.2,364.64 115.86,365.13 C 115.73,365.13 115.63,365.04 115.62,364.91 115.62,364.8 115.7,364.7 115.81,364.68 L 121.06,363.75 123.68,363.29 125,363.06 125.66,362.95 125.75,362.94 125.77,362.94 C 125.77,362.94 125.8,362.93 125.75,362.95 125.73,362.96 125.77,362.93 125.69,362.99 125.55,363.33 125.91,363.3 125.79,363.29 L 125.78,363.29 125.77,363.29 125.61,363.28 125.28,363.28 114.62,363.22 C 114.56,363.22 114.51,363.17 114.51,363.12 114.51,363.06 114.55,363.02 114.6,363.01 L 125.43,361.48 125.44,361.54 Z M 125.44,361.54" />
        <path id="joe07Canvas-bezier10" stroke="none" fill="rgb(51, 91, 113)" d="M 121.33,369.32 C 123.84,368.91 126.42,368.31 129.01,368.66 129.66,368.76 130.3,368.93 130.88,369.26 131.46,369.59 131.93,370.11 132.27,370.68 132.94,371.82 133.2,373.18 133.06,374.5 132.99,375.16 132.81,375.83 132.4,376.4 132.2,376.68 131.93,376.93 131.61,377.09 131.31,377.26 130.91,377.3 130.6,377.31 129.34,377.42 128.06,377.62 126.78,377.77 124.22,378.08 121.64,378.35 119.04,378.25 117.74,378.18 116.41,378.05 115.15,377.5 114.85,377.36 114.53,377.16 114.27,376.98 114.01,376.79 113.75,376.62 113.48,376.45 112.95,376.11 112.4,375.79 111.84,375.49 110.71,374.9 109.54,374.38 108.36,373.92 107.77,373.7 107.16,373.49 106.56,373.32 106.26,373.24 105.96,373.16 105.67,373.14 105.28,373.09 104.98,372.99 104.66,372.87 103.41,372.39 102.26,371.63 101.39,370.59 100.52,369.56 100.04,368.18 100.12,366.83 100.4,364.24 100.7,361.7 100.64,359.11 L 100.71,359.1 C 100.94,361.68 100.78,364.31 100.58,366.84 100.57,368.09 101.02,369.29 101.83,370.22 102.64,371.14 103.73,371.83 104.89,372.24 105.17,372.34 105.48,372.43 105.73,372.46 106.09,372.48 106.42,372.57 106.74,372.65 107.38,372.82 108,373.03 108.61,373.26 109.83,373.71 111.01,374.27 112.16,374.89 112.73,375.2 113.29,375.53 113.84,375.89 114.11,376.07 114.39,376.26 114.65,376.45 114.92,376.65 115.14,376.79 115.42,376.93 116.52,377.44 117.81,377.6 119.07,377.69 121.61,377.83 124.18,377.59 126.73,377.32 128.01,377.18 129.28,377.01 130.58,376.91 131.22,376.93 131.75,376.67 132.1,376.18 132.46,375.69 132.64,375.08 132.72,374.46 132.87,373.22 132.64,371.91 132.03,370.82 131.72,370.27 131.3,369.79 130.76,369.47 130.23,369.15 129.61,368.97 128.98,368.87 126.44,368.47 123.88,369.02 121.33,369.39 L 121.33,369.32 Z M 121.33,369.32" />
        <path id="joe07Canvas-bezier11" stroke="none" fill="rgb(51, 91, 113)" d="M 110.33,361.54 C 109.57,361.74 108.81,361.99 108.11,362.33 107.77,362.49 107.42,362.68 107.18,362.93 L 107.12,363 107.06,363.04 C 107.01,363.08 106.93,363.14 106.87,363.16 106.75,363.21 106.63,363.24 106.51,363.25 106.27,363.27 106.05,363.25 105.84,363.21 105,363.03 104.22,362.68 103.59,362.12 103.28,361.83 102.99,361.51 102.79,361.13 102.57,360.76 102.45,360.31 102.52,359.89 L 102.59,359.89 C 102.84,360.64 103.43,361.13 104.02,361.58 104.63,362 105.26,362.46 105.96,362.67 106.31,362.76 106.68,362.81 106.87,362.61 107.22,362.31 107.6,362.16 107.98,362.01 108.75,361.74 109.53,361.59 110.32,361.47 L 110.33,361.54 Z M 110.33,361.54" />
        <path id="joe07Canvas-bezier12" stroke="none" fill="rgb(51, 91, 113)" d="M 65.35,357.57 C 66.48,357.33 67.62,357.13 68.77,356.97 69.92,356.83 71.07,356.71 72.25,356.74 72.55,356.75 72.85,356.77 73.15,356.81 73.46,356.87 73.77,356.93 74.1,357.14 74.18,357.2 74.26,357.28 74.33,357.37 74.37,357.43 74.42,357.5 74.46,357.53 74.5,357.59 74.61,357.67 74.7,357.73 74.89,357.86 75.13,357.96 75.39,358.04 76.41,358.36 77.57,358.43 78.73,358.53 L 78.73,358.59 C 78.16,358.75 77.58,358.82 76.99,358.85 76.4,358.88 75.81,358.85 75.2,358.7 74.9,358.62 74.6,358.51 74.31,358.33 74.16,358.23 74.04,358.13 73.9,357.96 73.84,357.88 73.81,357.83 73.77,357.77 73.76,357.75 73.73,357.72 73.7,357.69 73.38,357.45 72.76,357.35 72.22,357.29 71.1,357.19 69.95,357.24 68.8,357.32 67.66,357.38 66.51,357.49 65.37,357.63 L 65.35,357.57 Z M 65.35,357.57" />
        <path id="joe07Canvas-bezier13" stroke="none" fill="rgb(51, 91, 113)" d="M 78.09,356.99 C 78.36,354.2 78.58,351.41 78.72,348.61 78.85,345.82 78.97,343.02 78.75,340.25 78.68,339.56 78.6,338.88 78.41,338.24 78.23,337.58 77.98,336.94 77.71,336.3 77.16,335.03 76.54,333.78 75.98,332.49 75.43,331.19 74.91,329.87 74.62,328.47 74.32,327.08 74.26,325.61 74.64,324.24 L 74.71,324.25 C 74.35,327.06 75.42,329.72 76.6,332.21 77.18,333.47 77.81,334.73 78.33,336.04 78.59,336.7 78.83,337.38 79.01,338.07 79.19,338.79 79.25,339.5 79.3,340.21 79.45,343.04 79.26,345.84 79.06,348.64 78.83,351.43 78.52,354.22 78.16,357 L 78.09,356.99 Z M 78.09,356.99" />
        <path id="joe07Canvas-bezier14" stroke="none" fill="rgb(51, 91, 113)" d="M 77.72,328.77 C 77.63,326.07 77.39,323.37 76.97,320.7 76.76,319.37 76.5,318.05 76.13,316.76 75.75,315.47 75.3,314.19 74.53,313.11 73.74,311.96 73.3,310.65 72.91,309.35 72.54,308.04 72.25,306.71 72.02,305.37 71.55,302.7 71.28,299.99 71.16,297.28 71.03,294.57 71.04,291.85 71.31,289.13 71.44,287.78 71.66,286.41 71.98,285.09 72.29,283.78 72.59,282.46 72.86,281.15 73.41,278.52 73.84,275.85 73.76,273.18 73.68,270.52 72.93,267.84 71.35,265.64 L 71.41,265.6 C 72.25,266.66 72.94,267.85 73.41,269.14 73.88,270.43 74.13,271.79 74.23,273.15 74.42,275.89 74.02,278.62 73.53,281.28 73.27,282.61 72.97,283.94 72.68,285.26 72.35,286.56 72.13,287.87 71.98,289.21 71.68,291.87 71.63,294.57 71.71,297.26 71.8,299.95 72.03,302.64 72.46,305.3 72.67,306.63 72.94,307.95 73.29,309.24 73.66,310.53 74.07,311.82 74.81,312.92 75.6,314.06 76.03,315.38 76.39,316.69 76.74,318 76.99,319.34 77.18,320.68 77.56,323.36 77.74,326.06 77.79,328.77 L 77.72,328.77 77.72,328.77 Z M 77.72,328.77" />
        <path id="joe07Canvas-bezier15" stroke="none" fill="rgb(51, 91, 113)" d="M 72.91,264.53 C 72.52,254.57 72.27,244.61 72.23,234.65 72.21,229.66 72.19,224.68 72.43,219.69 72.56,217.2 72.71,214.71 72.97,212.23 73.11,210.99 73.26,209.75 73.48,208.51 73.59,207.9 73.72,207.29 73.88,206.68 74.04,206.08 74.22,205.47 74.54,204.92 L 74.59,204.96 C 74.08,206.08 73.95,207.34 73.78,208.56 73.63,209.79 73.53,211.03 73.45,212.27 73.28,214.75 73.17,217.23 73.11,219.72 72.97,224.69 72.83,229.67 72.78,234.65 72.73,239.62 72.74,244.6 72.78,249.58 72.81,254.56 72.88,259.54 72.98,264.52 L 72.91,264.53 Z M 72.91,264.53" />
        <path id="joe07Canvas-bezier16" stroke="none" fill="rgb(51, 91, 113)" d="M 75.68,208.63 C 76.45,214.61 77.27,220.59 78.13,226.55 78.99,232.52 79.89,238.48 80.92,244.42 81.45,247.38 82,250.34 82.65,253.28 82.97,254.74 83.32,256.21 83.75,257.64 83.97,258.34 84.2,259.06 84.54,259.66 84.72,259.93 84.97,260.27 85.16,260.6 85.36,260.92 85.55,261.26 85.73,261.59 87.12,264.32 88.11,267.19 88.93,270.1 89.32,271.56 89.67,273.04 89.94,274.53 90.07,275.27 90.18,276.02 90.25,276.78 90.31,277.53 90.37,278.29 90.25,279.05 L 90.18,279.04 C 90.26,278.29 90.16,277.54 90.06,276.8 89.95,276.06 89.8,275.32 89.63,274.59 89.31,273.12 88.91,271.67 88.47,270.24 87.56,267.38 86.54,264.54 85.13,261.92 84.96,261.59 84.77,261.27 84.58,260.96 84.38,260.63 84.19,260.37 83.96,260.01 83.55,259.29 83.33,258.57 83.09,257.84 82.65,256.38 82.31,254.9 81.99,253.42 81.38,250.46 80.86,247.49 80.38,244.51 78.47,232.6 76.98,220.63 75.61,208.64 L 75.68,208.63 Z M 75.68,208.63" />
        <path id="joe07Canvas-bezier17" stroke="none" fill="rgb(51, 91, 113)" d="M 88,274.39 C 87.91,277.64 87.97,280.93 88.58,284.13 88.75,284.92 88.95,285.71 89.28,286.44 89.44,286.81 89.64,287.16 89.89,287.46 90.02,287.61 90.15,287.73 90.32,287.86 90.48,287.97 90.64,288.16 90.76,288.33 91.25,289.03 91.52,289.81 91.78,290.59 92.03,291.38 92.23,292.17 92.41,292.97 93.1,296.18 93.5,299.43 93.81,302.68 93.96,304.31 94.07,305.94 94.15,307.58 94.22,309.22 94.29,310.84 94.15,312.51 94.1,312.96 94.04,313.29 94.04,313.71 94.03,314.1 94.04,314.51 94.06,314.91 94.09,315.72 94.14,316.53 94.21,317.34 94.34,318.97 94.5,320.59 94.68,322.21 95.02,325.45 95.42,328.69 95.88,331.92 96.3,335.15 96.78,338.38 97.39,341.57 97.55,342.37 97.72,343.16 97.94,343.94 98.06,344.32 98.17,344.71 98.37,345.03 98.58,345.38 98.76,345.79 98.88,346.18 99.35,347.81 99.05,349.57 98.21,350.98 L 98.15,350.94 C 98.91,349.52 99.1,347.77 98.58,346.28 98.45,345.9 98.28,345.56 98.06,345.22 97.82,344.85 97.69,344.44 97.56,344.05 97.31,343.26 97.11,342.47 96.93,341.67 96.2,338.47 95.69,335.24 95.19,332.01 94.74,328.78 94.34,325.53 94,322.28 93.84,320.65 93.7,319.02 93.59,317.39 93.54,316.57 93.5,315.75 93.48,314.93 93.47,314.52 93.46,314.11 93.47,313.69 93.48,313.48 93.49,313.27 93.52,313.06 93.55,312.82 93.59,312.65 93.61,312.45 93.75,310.86 93.7,309.22 93.65,307.6 93.59,305.97 93.49,304.34 93.36,302.72 93.09,299.48 92.72,296.23 92.07,293.04 91.9,292.25 91.72,291.46 91.48,290.68 91.24,289.91 90.98,289.14 90.54,288.49 90.41,288.32 90.32,288.19 90.15,288.06 89.99,287.94 89.82,287.79 89.69,287.62 89.42,287.29 89.22,286.92 89.06,286.54 88.73,285.78 88.54,284.97 88.38,284.17 87.81,280.93 87.8,277.65 87.93,274.39 L 88,274.39 Z M 88,274.39" />
        <path id="joe07Canvas-bezier18" stroke="none" fill="rgb(51, 91, 113)" d="M 96.86,347.53 C 97.09,349.94 97.29,352.35 97.28,354.8 97.28,355.4 97.28,356.03 97.14,356.66 97.07,357.11 97.24,357.68 97.44,358.21 97.85,359.3 98.45,360.35 99.01,361.43 L 98.96,361.47 C 98.09,360.61 97.35,359.62 96.81,358.48 96.57,357.9 96.33,357.27 96.48,356.51 96.65,355.96 96.68,355.38 96.73,354.78 96.81,353.58 96.82,352.37 96.82,351.16 96.83,349.96 96.82,348.75 96.79,347.54 L 96.86,347.53 Z M 96.86,347.53" />
        <path id="joe07Canvas-bezier19" stroke="none" fill="rgb(51, 91, 113)" d="M 103.43,357.77 C 104.31,357.51 105.22,357.32 106.14,357.23 106.6,357.19 107.07,357.1 107.54,357.2 108,357.28 108.48,357.44 108.86,357.77 L 108.83,357.84 C 108.35,357.87 107.92,357.88 107.48,357.88 107.04,357.89 106.6,357.8 106.16,357.78 105.26,357.75 104.35,357.77 103.44,357.84 L 103.43,357.77 Z M 103.43,357.77" />
        <path id="joe07Canvas-bezier20" stroke="none" fill="rgb(51, 91, 113)" d="M 126.86,356.96 C 127.22,356.8 127.57,356.59 127.85,356.31 128.12,356.04 128.28,355.65 128.13,355.3 128,354.96 127.7,354.68 127.39,354.45 127.08,354.22 126.73,354.03 126.38,353.85 125.67,353.53 124.89,353.18 124.22,352.71 123.53,352.25 122.9,351.72 122.33,351.13 121.18,349.95 120.2,348.55 119.71,346.94 119.48,346.13 119.33,345.29 119.41,344.44 119.49,343.6 119.8,342.76 120.39,342.17 L 120.44,342.21 C 119.61,343.62 119.83,345.29 120.36,346.72 120.89,348.18 121.68,349.57 122.73,350.75 123.78,351.94 125.06,352.86 126.54,353.55 126.89,353.75 127.24,353.97 127.56,354.24 127.88,354.5 128.19,354.81 128.33,355.24 128.48,355.68 128.25,356.15 127.94,356.41 127.63,356.69 127.27,356.88 126.88,357.03 L 126.86,356.96 Z M 126.86,356.96" />
        <path id="joe07Canvas-bezier21" stroke="none" fill="rgb(51, 91, 113)" d="M 122.63,346.43 C 123.18,343.73 123.44,340.96 123.49,338.21 123.52,335.45 123.31,332.69 122.76,330 121.5,324.63 120.05,319.29 118.87,313.89 118.3,311.18 117.72,308.46 117.54,305.66 117.49,304.25 117.56,302.88 117.57,301.5 117.59,300.12 117.6,298.74 117.57,297.36 117.54,294.61 117.38,291.86 116.94,289.15 116.72,287.8 116.41,286.46 115.96,285.17 115.52,283.87 114.94,282.61 114.08,281.53 L 114.13,281.49 C 115.99,283.59 116.85,286.37 117.41,289.07 117.96,291.8 118.16,294.58 118.25,297.35 118.28,298.74 118.27,300.12 118.25,301.51 118.24,302.89 118.17,304.28 118.22,305.63 118.35,308.35 118.88,311.07 119.41,313.77 120.51,319.18 121.9,324.52 123.1,329.93 123.61,332.66 123.77,335.45 123.69,338.21 123.6,340.98 123.3,343.74 122.7,346.44 L 122.63,346.43 Z M 122.63,346.43" />
        <path id="joe07Canvas-bezier22" stroke="none" fill="rgb(51, 91, 113)" d="M 111.7,283.55 L 114.02,278.38 C 114.71,276.65 114.97,274.74 115.01,272.87 115.03,271 114.74,269.12 114.11,267.35 113.8,266.48 113.4,265.63 112.92,264.82 112.41,264.03 111.98,263.15 111.67,262.26 111.03,260.45 110.78,258.53 110.73,256.64 110.69,254.73 110.84,252.83 111.1,250.96 111.36,249.08 111.73,247.22 112.14,245.37 112.35,244.45 112.57,243.53 112.8,242.61 113.03,241.69 113.29,240.79 113.43,239.87 114,236.17 114.07,232.38 114.13,228.62 114.18,224.85 114.12,221.08 113.97,217.32 113.84,213.55 113.65,209.78 113.18,206.05 113.06,205.12 112.93,204.18 112.66,203.31 112.33,202.42 112.15,201.47 111.97,200.54 111.64,198.68 111.38,196.81 111.13,194.94 L 111.2,194.92 C 111.53,196.78 111.87,198.64 112.28,200.48 112.49,201.4 112.68,202.31 113.04,203.18 113.34,204.11 113.5,205.04 113.66,205.98 114.22,209.73 114.45,213.51 114.65,217.29 114.8,221.07 114.86,224.85 114.81,228.63 114.71,232.41 114.59,236.2 113.97,239.97 113.81,240.92 113.54,241.83 113.31,242.74 113.07,243.65 112.84,244.57 112.63,245.48 112.2,247.31 111.82,249.16 111.54,251.02 111.27,252.88 111.1,254.75 111.13,256.63 111.16,258.5 111.39,260.37 111.99,262.14 112.29,263.03 112.69,263.86 113.18,264.67 113.66,265.49 114.06,266.36 114.37,267.26 114.99,269.07 115.26,270.98 115.21,272.88 115.15,274.77 114.87,276.67 114.14,278.44 L 111.77,283.58 111.7,283.55 Z M 111.7,283.55" />
        <path id="joe07Canvas-bezier23" stroke="none" fill="rgb(51, 91, 113)" d="M 89.07,12.57 C 87.52,13.47 85.63,13.67 83.89,13.32 83.45,13.24 83.02,13.13 82.59,12.99 82.17,12.86 81.75,12.64 81.36,12.54 80.95,12.43 80.53,12.47 80.15,12.64 79.77,12.8 79.43,13.07 79.09,13.35 78.74,13.6 78.39,13.96 77.82,13.99 77.55,13.99 77.29,13.86 77.11,13.7 76.91,13.53 76.79,13.38 76.62,13.28 75.96,12.8 75.09,13.18 74.31,13.53 73.9,13.71 73.49,13.9 73.02,14 72.79,14.05 72.54,14.07 72.29,14.05 L 72.14,14.04 C 72.09,14.05 72.07,14.05 72.04,14.05 71.96,14.07 71.89,14.1 71.83,14.15 71.57,14.35 71.41,14.77 71.25,15.17 71.1,15.58 70.95,16.01 70.71,16.43 70.49,16.84 70.09,17.27 69.55,17.39 69.3,17.47 69.02,17.45 68.81,17.44 68.59,17.43 68.4,17.43 68.22,17.46 68.04,17.5 67.94,17.55 67.87,17.67 67.79,17.78 67.73,17.98 67.67,18.19 67.56,18.61 67.43,19.07 67.24,19.49 67.06,19.92 66.83,20.33 66.57,20.71 66.32,21.09 65.99,21.46 65.78,21.77 65.31,22.43 65.22,23.22 65.54,23.97 65.68,24.36 65.89,24.73 66.1,25.13 66.29,25.52 66.58,25.97 66.48,26.59 66.42,26.89 66.22,27.13 66.03,27.3 65.91,27.39 65.86,27.43 65.8,27.49 65.74,27.55 65.69,27.63 65.65,27.71 65.46,28.03 65.38,28.45 65.35,28.87 65.3,29.72 65.42,30.6 65.54,31.47 65.6,31.91 65.67,32.35 65.71,32.79 65.74,33.01 65.76,33.24 65.75,33.46 65.75,33.58 65.74,33.69 65.71,33.81 65.68,33.92 65.63,34.05 65.49,34.09 L 65.47,34.03 C 65.65,33.94 65.62,33.67 65.61,33.47 65.6,33.25 65.56,33.04 65.52,32.82 65.44,32.39 65.33,31.96 65.24,31.52 65.05,30.65 64.88,29.77 64.87,28.85 64.88,28.39 64.93,27.9 65.17,27.44 65.23,27.33 65.3,27.22 65.39,27.12 65.48,27.01 65.6,26.91 65.66,26.86 65.79,26.74 65.88,26.61 65.9,26.47 65.95,26.19 65.75,25.8 65.54,25.44 65.32,25.06 65.08,24.67 64.9,24.22 64.72,23.78 64.61,23.27 64.67,22.76 64.72,22.25 64.92,21.77 65.19,21.37 65.47,20.94 65.75,20.67 65.99,20.31 66.24,19.96 66.45,19.6 66.62,19.21 66.8,18.83 66.92,18.44 67.05,18.01 67.12,17.79 67.18,17.56 67.35,17.3 67.52,17.04 67.86,16.89 68.11,16.86 68.37,16.81 68.62,16.82 68.85,16.84 69.08,16.86 69.24,16.87 69.42,16.83 69.76,16.75 70.04,16.5 70.24,16.15 70.45,15.8 70.6,15.39 70.77,14.98 70.95,14.57 71.09,14.1 71.54,13.75 71.66,13.66 71.79,13.6 71.94,13.57 72.01,13.56 72.1,13.55 72.16,13.55 L 72.34,13.57 C 72.53,13.59 72.73,13.58 72.93,13.54 73.33,13.46 73.73,13.29 74.13,13.12 74.54,12.95 74.96,12.77 75.43,12.68 75.89,12.58 76.45,12.65 76.85,12.95 77.06,13.09 77.22,13.28 77.36,13.41 77.5,13.53 77.66,13.62 77.83,13.62 78.18,13.62 78.54,13.33 78.88,13.07 79.23,12.81 79.6,12.53 80.04,12.35 80.47,12.17 80.98,12.14 81.43,12.27 81.89,12.42 82.25,12.62 82.67,12.76 83.08,12.91 83.5,13.03 83.93,13.12 85.63,13.5 87.49,13.37 89.04,12.51 L 89.07,12.57 Z M 89.07,12.57" />
        <path id="joe07Canvas-bezier24" stroke="none" fill="rgb(51, 91, 113)" d="M 90.41,12.99 C 91.11,13.56 91.99,13.97 92.88,13.94 93.11,13.94 93.31,13.89 93.54,13.84 93.8,13.78 94.1,13.86 94.29,14.05 94.67,14.44 94.76,14.92 94.9,15.36 95.15,16.23 95.36,17.18 96.01,17.7 96.14,17.81 96.4,17.96 96.56,18.2 96.72,18.43 96.81,18.68 96.86,18.93 96.96,19.43 96.93,19.91 96.89,20.38 96.8,21.31 96.58,22.24 96.56,23.09 96.56,23.29 96.59,23.49 96.65,23.59 96.66,23.62 96.68,23.63 96.69,23.65 96.69,23.65 96.7,23.66 96.71,23.66 L 96.71,23.67 96.71,23.67 96.73,23.68 96.74,23.69 96.78,23.71 C 96.96,23.86 97.02,23.98 97.09,24.12 97.33,24.64 97.36,25.11 97.41,25.58 97.46,26.53 97.44,27.45 97.42,28.37 97.4,28.83 97.39,29.29 97.4,29.74 97.41,30.19 97.41,30.66 97.6,31.06 L 97.55,31.1 C 97.23,30.72 97.19,30.22 97.09,29.77 97.02,29.31 96.98,28.84 96.94,28.38 96.86,27.46 96.85,26.54 96.73,25.65 96.68,25.22 96.61,24.75 96.46,24.44 96.42,24.37 96.36,24.29 96.36,24.29 L 96.29,24.24 96.18,24.14 C 96.12,24.07 96.06,23.99 96.03,23.91 95.88,23.6 95.88,23.33 95.88,23.07 95.95,22.08 96.22,21.21 96.34,20.32 96.44,19.44 96.53,18.5 95.72,18.05 94.94,17.33 94.8,16.31 94.57,15.45 94.46,15.01 94.37,14.54 94.1,14.25 93.97,14.11 93.78,14.05 93.59,14.08 93.37,14.11 93.12,14.16 92.88,14.15 91.92,14.12 91.05,13.66 90.37,13.04 L 90.41,12.99 Z M 90.41,12.99" />
        <path id="joe07Canvas-bezier25" stroke="none" fill="rgb(51, 91, 113)" d="M 59.8,26.67 C 59.57,25.57 59.41,24.45 59.35,23.33 59.32,22.77 59.32,22.2 59.39,21.64 59.43,21.36 59.48,21.07 59.58,20.8 59.69,20.51 59.86,20.3 59.93,20.04 60.23,18.99 60.16,17.85 60.15,16.74 60.13,16.18 60.1,15.62 60.14,15.04 60.15,14.9 60.16,14.75 60.21,14.59 60.24,14.52 60.27,14.42 60.39,14.34 60.45,14.29 60.54,14.28 60.6,14.29 60.61,14.29 60.67,14.3 60.69,14.3 60.7,14.29 60.84,14.21 60.92,14.13 61.01,14.04 61.1,13.93 61.18,13.83 61.86,12.96 62.33,11.93 63.17,11.09 63.28,10.99 63.41,10.88 63.58,10.82 63.67,10.78 63.77,10.77 63.88,10.77 63.91,10.78 64.02,10.81 64,10.8 64.01,10.8 64.06,10.82 64.03,10.8 64,10.8 63.98,10.81 63.98,10.81 63.99,10.82 64.08,10.69 64.13,10.59 64.18,10.47 64.22,10.34 64.26,10.22 64.43,9.7 64.54,9.15 64.66,8.61 64.89,7.52 65.08,6.41 65.35,5.31 65.42,5.03 65.49,4.76 65.59,4.48 65.64,4.34 65.69,4.2 65.77,4.06 65.86,3.92 65.9,3.75 66.2,3.62 66.37,3.57 66.56,3.66 66.63,3.73 66.72,3.81 66.77,3.89 66.82,3.96 66.91,4.1 66.97,4.25 67.02,4.37 67.11,4.59 67.29,4.86 67.36,4.87 67.34,4.92 67.57,4.76 67.72,4.54 67.88,4.34 68.03,4.1 68.2,3.87 68.54,3.41 68.92,2.93 69.5,2.62 70.07,2.29 70.81,2.31 71.38,2.55 71.67,2.68 71.87,2.77 72.12,2.82 72.36,2.87 72.6,2.88 72.84,2.86 73.83,2.75 74.67,2 75.51,1.29 75.95,0.93 76.37,0.54 76.99,0.28 77.29,0.16 77.7,0.11 78.06,0.25 78.27,0.35 78.28,0.36 78.41,0.39 78.52,0.42 78.64,0.44 78.76,0.45 79.77,0.5 80.88,0.15 82.02,0.04 82.59,-0.01 83.19,-0.03 83.78,0.11 84.37,0.24 84.94,0.58 85.32,1.06 85.51,1.29 85.66,1.58 85.78,1.81 85.9,2.03 86.06,2.25 86.25,2.42 86.62,2.77 87.14,2.9 87.67,2.86 88.21,2.84 88.74,2.68 89.29,2.54 89.56,2.49 89.85,2.4 90.16,2.51 90.32,2.58 90.4,2.74 90.42,2.88 90.45,3.03 90.44,3.17 90.43,3.32 L 90.36,3.31 C 90.37,3.05 90.35,2.71 90.11,2.63 89.88,2.56 89.6,2.65 89.34,2.73 88.81,2.9 88.28,3.1 87.7,3.17 87.12,3.25 86.47,3.13 85.99,2.72 85.75,2.52 85.56,2.29 85.4,2.03 85.25,1.78 85.13,1.57 84.95,1.37 84.27,0.58 83.15,0.48 82.09,0.63 81,0.76 79.96,1.15 78.72,1.14 78.56,1.13 78.4,1.11 78.24,1.06 78.09,1.04 77.86,0.92 77.81,0.9 77.64,0.84 77.45,0.85 77.24,0.94 76.82,1.11 76.4,1.48 75.97,1.83 75.55,2.19 75.11,2.57 74.61,2.89 74.12,3.21 73.54,3.47 72.91,3.53 72.6,3.56 72.28,3.54 71.97,3.47 71.67,3.41 71.36,3.26 71.14,3.16 70.68,2.96 70.2,2.95 69.78,3.17 69.35,3.38 69,3.79 68.67,4.22 68.51,4.44 68.35,4.67 68.16,4.9 68.07,5.01 67.97,5.13 67.83,5.25 67.71,5.35 67.44,5.5 67.17,5.39 66.93,5.29 66.84,5.13 66.74,5 66.66,4.86 66.59,4.72 66.53,4.58 66.47,4.45 66.43,4.33 66.37,4.24 66.34,4.19 66.31,4.15 66.29,4.13 66.27,4.12 66.31,4.14 66.35,4.13 66.38,4.1 66.27,4.2 66.23,4.3 66.17,4.41 66.12,4.53 66.07,4.65 65.98,4.9 65.9,5.17 65.83,5.43 65.55,6.5 65.35,7.61 65.1,8.7 64.97,9.25 64.85,9.8 64.67,10.35 64.62,10.49 64.57,10.63 64.5,10.76 64.42,10.9 64.39,11.06 64.13,11.19 64.11,11.2 64.05,11.22 63.99,11.21 63.92,11.21 63.94,11.2 63.91,11.2 63.83,11.18 63.87,11.19 63.84,11.18 63.8,11.18 63.77,11.18 63.72,11.2 63.63,11.23 63.53,11.3 63.44,11.38 62.68,12.12 62.16,13.15 61.45,14.04 61.36,14.15 61.27,14.27 61.15,14.37 61.03,14.47 60.94,14.58 60.68,14.62 60.62,14.63 60.62,14.62 60.56,14.62 60.55,14.61 60.56,14.61 60.57,14.61 60.57,14.61 60.53,14.65 60.52,14.7 60.48,14.8 60.46,14.94 60.45,15.07 60.4,15.61 60.42,16.18 60.42,16.74 60.42,17.85 60.47,19 60.13,20.11 59.5,21.09 59.46,22.2 59.49,23.32 59.52,24.44 59.66,25.55 59.87,26.65 L 59.8,26.67 Z M 59.8,26.67" />
        <path id="joe07Canvas-bezier26" stroke="none" fill="rgb(51, 91, 113)" d="M 91.04,3.19 C 91.64,2.86 92.29,2.56 93.01,2.59 93.37,2.6 93.74,2.81 93.9,3.15 94.07,3.48 94.08,3.86 94.09,4.19 94.1,4.51 94.24,4.81 94.53,4.91 94.82,5.02 95.16,5.01 95.49,4.99 96.16,4.94 96.83,4.79 97.55,4.84 97.91,4.87 98.3,4.96 98.6,5.23 98.9,5.5 99.04,5.9 99.09,6.26 99.13,6.64 99.13,6.93 99.21,7.25 99.28,7.57 99.4,7.87 99.56,8.15 99.89,8.71 100.37,9.16 100.87,9.62 101.36,10.08 101.94,10.6 102.15,11.38 102.25,11.76 102.24,12.16 102.16,12.53 102.08,12.9 101.92,13.23 101.84,13.53 101.65,14.14 101.58,14.81 101.56,15.47 101.52,16.8 101.76,18.13 101.75,19.56 101.73,19.92 101.7,20.3 101.54,20.69 101.45,20.88 101.33,21.08 101.14,21.22 101.01,21.32 100.97,21.37 100.9,21.51 100.65,22.02 100.65,22.73 100.61,23.39 100.59,24.07 100.6,24.76 100.56,25.45 100.53,25.8 100.48,26.15 100.38,26.49 100.29,26.83 100.12,27.18 99.8,27.36 L 99.76,27.3 C 100.02,27.1 100.13,26.77 100.19,26.45 100.24,26.12 100.25,25.78 100.24,25.45 100.23,24.77 100.17,24.09 100.13,23.4 100.11,22.71 100.06,22 100.37,21.25 100.44,21.07 100.62,20.84 100.75,20.74 100.84,20.67 100.9,20.56 100.95,20.44 101.04,20.19 101.06,19.87 101.06,19.55 101.07,18.9 100.99,18.22 100.93,17.53 100.88,16.85 100.85,16.15 100.89,15.44 100.93,14.74 101.02,14.03 101.26,13.34 101.37,12.99 101.52,12.69 101.59,12.4 101.66,12.1 101.68,11.8 101.62,11.51 101.49,10.94 101.02,10.46 100.53,9.98 100.05,9.51 99.52,9.01 99.17,8.37 99,8.05 98.87,7.7 98.8,7.35 98.72,7 98.73,6.6 98.7,6.31 98.66,6 98.56,5.7 98.35,5.5 98.14,5.31 97.84,5.21 97.52,5.18 96.87,5.11 96.19,5.23 95.5,5.26 95.16,5.27 94.79,5.28 94.44,5.13 94.26,5.05 94.1,4.92 94.01,4.74 93.92,4.57 93.89,4.38 93.88,4.2 93.89,3.85 93.88,3.52 93.75,3.23 93.62,2.94 93.32,2.76 93,2.73 92.34,2.68 91.67,2.94 91.08,3.25 L 91.04,3.19 Z M 91.04,3.19" />
        <path id="joe07Canvas-bezier27" stroke="none" fill="rgb(51, 91, 113)" d="M 61,28.12 C 61.33,28.37 61.61,28.7 61.84,29.05 62.07,29.4 62.25,29.78 62.46,30.09 62.56,30.24 62.7,30.34 62.72,30.31 62.72,30.31 62.74,30.3 62.75,30.3 L 62.84,30.29 C 62.89,30.28 62.94,30.28 62.98,30.29 63.15,30.31 63.31,30.38 63.42,30.47 63.64,30.67 63.75,30.9 63.81,31.12 63.87,31.34 63.88,31.57 63.84,31.79 L 63.77,31.81 C 63.5,31.48 63.25,31.14 63.02,31.04 62.97,31.01 62.93,31.01 62.9,31 62.89,31 62.9,31 62.89,30.99 62.88,30.99 62.83,31 62.83,30.99 62.74,31 62.65,31 62.56,30.97 62.18,30.82 62.08,30.55 61.98,30.36 61.8,29.95 61.7,29.57 61.54,29.21 61.39,28.84 61.21,28.48 60.95,28.17 L 61,28.12 Z M 61,28.12" />
        <path id="joe07Canvas-bezier28" stroke="none" fill="rgb(51, 91, 113)" d="M 60,28.69 C 59.52,29.85 59.48,31.16 59.7,32.37 59.81,32.97 60.02,33.58 60.16,34.2 L 60.61,36.04 C 60.94,37.23 61.34,38.45 62.1,39.27 62.91,40 64.16,40.55 65.37,40.32 L 65.4,40.38 C 64.82,40.71 64.12,40.74 63.46,40.62 62.81,40.48 62.17,40.25 61.62,39.77 61.1,39.28 60.78,38.66 60.56,38.04 60.34,37.42 60.2,36.79 60.07,36.16 L 59.72,34.29 C 59.62,33.67 59.45,33.07 59.36,32.42 59.22,31.14 59.36,29.81 59.94,28.66 L 60,28.69 Z M 60,28.69" />
        <path id="joe07Canvas-bezier29" stroke="none" fill="rgb(51, 91, 113)" d="M 65.03,34.61 C 64.96,35.07 64.95,35.54 65,35.97 65.02,36.19 65.12,36.39 65.11,36.6 65.1,36.81 65.09,37.02 65.03,37.31 L 64.97,37.34 C 64.69,37.21 64.53,36.97 64.44,36.73 64.34,36.47 64.41,36.2 64.45,35.95 64.53,35.45 64.71,34.99 64.97,34.58 L 65.03,34.61 Z M 65.03,34.61" />
        <path id="joe07Canvas-bezier30" stroke="none" fill="rgb(51, 91, 113)" d="M 63.29,32.55 C 62.95,32.74 62.7,33.04 62.52,33.37 62.34,33.69 62.23,34.05 62.21,34.4 62.19,34.75 62.32,35.06 62.41,35.37 62.5,35.69 62.67,35.99 62.87,36.38 L 62.83,36.44 C 62.4,36.35 62.02,36.06 61.79,35.66 61.54,35.25 61.57,34.74 61.67,34.31 61.87,33.46 62.48,32.73 63.26,32.49 L 63.29,32.55 Z M 63.29,32.55" />
        <path id="joe07Canvas-bezier31" stroke="none" fill="rgb(51, 91, 113)" d="M 97.18,34.06 C 97.14,36.69 97.09,39.33 96.88,41.96 96.81,42.62 96.76,43.28 96.59,43.93 96.44,44.56 96.34,45.22 96.19,45.86 95.91,47.16 95.5,48.43 94.92,49.63 93.78,52.04 92.07,54.14 90.13,55.94 89.16,56.84 88.12,57.68 86.97,58.37 86.39,58.71 85.78,59.01 85.13,59.23 84.8,59.33 84.47,59.41 84.12,59.46 83.76,59.49 83.44,59.53 83.01,59.4 L 83.19,59.41 C 80.71,59.93 78.19,59.13 76.22,57.69 75.23,56.98 74.38,56.06 73.62,55.18 72.83,54.3 72.02,53.43 71.25,52.52 69.72,50.72 68.13,48.85 67.23,46.58 66.77,45.46 66.55,44.26 66.36,43.1 66.19,41.92 66,40.73 66.17,39.52 L 66.23,39.54 C 66.15,40.71 66.42,41.89 66.65,43.04 66.91,44.19 67.16,45.35 67.66,46.4 68.61,48.53 70.17,50.33 71.75,52.08 L 74.14,54.71 C 74.94,55.6 75.7,56.45 76.63,57.13 77.55,57.81 78.58,58.35 79.68,58.66 80.77,58.97 81.96,59.07 83.04,58.85 L 83.13,58.83 83.21,58.86 C 83.42,58.93 83.77,58.94 84.06,58.9 84.36,58.87 84.67,58.8 84.97,58.71 85.57,58.52 86.15,58.24 86.71,57.92 87.82,57.28 88.85,56.47 89.82,55.6 91.75,53.85 93.46,51.82 94.61,49.48 95.18,48.31 95.61,47.07 95.91,45.8 96.07,45.16 96.18,44.52 96.35,43.87 96.53,43.24 96.59,42.59 96.67,41.94 96.92,39.32 97.03,36.69 97.11,34.06 L 97.18,34.06 Z M 97.18,34.06" />
        <path id="joe07Canvas-bezier32" stroke="none" fill="rgb(51, 91, 113)" d="M 75.16,44.78 C 76.38,44.87 77.6,44.92 78.82,44.95 80.04,44.99 81.26,45 82.48,44.97 83.7,44.94 84.91,44.83 86.12,44.78 87.33,44.73 88.53,44.65 89.76,44.54 L 89.78,44.61 C 88.63,45.09 87.4,45.32 86.17,45.47 84.94,45.61 83.71,45.56 82.48,45.52 80.02,45.44 77.58,45.21 75.15,44.85 L 75.16,44.78 Z M 75.16,44.78" />
        <path id="joe07Canvas-bezier33" stroke="none" fill="rgb(51, 91, 113)" d="M 76.43,46.43 C 77.33,47.12 78.39,47.6 79.47,47.89 80.55,48.2 81.68,48.29 82.79,48.17 83.9,48.05 84.95,47.69 85.98,47.29 87.02,46.88 88.01,46.35 89.03,45.8 L 89.07,45.85 C 88.28,46.7 87.31,47.4 86.26,47.92 85.19,48.43 84,48.68 82.83,48.72 80.47,48.84 78.11,48.01 76.38,46.48 L 76.43,46.43 Z M 76.43,46.43" />
        <path id="joe07Canvas-bezier34" stroke="none" fill="rgb(51, 91, 113)" d="M 78.91,49.59 C 79.54,49.89 80.22,50.07 80.9,50.17 81.58,50.28 82.26,50.3 82.94,50.22 83.62,50.16 84.26,49.95 84.92,49.8 85.57,49.64 86.22,49.43 86.93,49.26 L 86.96,49.32 C 86.44,49.83 85.8,50.19 85.12,50.45 84.44,50.72 83.69,50.77 82.97,50.77 81.52,50.79 80.07,50.42 78.88,49.65 L 78.91,49.59 Z M 78.91,49.59" />
        <path id="joe07Canvas-bezier35" stroke="none" fill="rgb(51, 91, 113)" d="M 77.66,38.44 C 77.21,38.81 76.87,39.29 76.5,39.73 L 75.39,41.07 C 75.02,41.52 74.66,41.98 74.25,42.39 73.83,42.8 73.41,43.2 72.92,43.53 L 72.89,43.51 C 73.25,43.03 73.63,42.6 74,42.16 74.38,41.72 74.79,41.31 75.19,40.89 L 76.37,39.61 C 76.78,39.2 77.16,38.75 77.64,38.41 L 77.66,38.44 Z M 77.66,38.44" />
        <path id="joe07Canvas-bezier36" stroke="none" fill="rgb(51, 91, 113)" d="M 89.06,40.24 C 89.62,40.51 90.14,40.87 90.57,41.34 90.79,41.58 91,41.84 91.1,42.16 91.19,42.48 91.21,42.84 91.08,43.14 L 91.04,43.13 C 90.98,42.82 90.91,42.54 90.78,42.29 90.66,42.03 90.54,41.76 90.36,41.52 90,41.04 89.55,40.62 89.04,40.27 L 89.06,40.24 Z M 89.06,40.24" />
        <path id="joe07Canvas-bezier37" stroke="none" fill="rgb(51, 91, 113)" d="M 79.03,41.4 C 79.28,41.09 79.61,40.83 80.05,40.72 80.27,40.68 80.55,40.62 80.76,40.77 80.97,40.91 81.11,41.13 81.09,41.4 L 81.04,41.44 C 80.78,41.43 80.62,41.41 80.48,41.4 80.36,41.4 80.25,41.29 80.1,41.27 79.79,41.23 79.42,41.31 79.07,41.45 L 79.03,41.4 Z M 79.03,41.4" />
        <path id="joe07Canvas-bezier38" stroke="none" fill="rgb(51, 91, 113)" d="M 83.93,41.18 C 84.2,40.98 84.49,40.83 84.85,40.77 85.02,40.74 85.23,40.67 85.43,40.8 85.62,40.91 85.78,41.17 85.66,41.41 L 85.6,41.44 C 85.36,41.39 85.27,41.43 85.17,41.44 85.08,41.45 84.99,41.35 84.85,41.32 84.58,41.26 84.27,41.24 83.95,41.24 L 83.93,41.18 Z M 83.93,41.18" />
        <path id="joe07Canvas-bezier39" stroke="none" fill="rgb(51, 91, 113)" d="M 81.29,30.37 C 81.49,31.62 81.63,32.88 81.71,34.15 81.75,34.79 81.83,35.43 81.74,36.07 81.64,36.7 81.53,37.38 81.1,37.92 L 81.03,37.89 C 81.1,37.26 81.05,36.65 81.05,36.03 81.04,35.41 81.13,34.79 81.16,34.16 81.2,32.9 81.22,31.64 81.22,30.38 L 81.29,30.37 Z M 81.29,30.37" />
        <path id="joe07Canvas-bezier40" stroke="none" fill="rgb(51, 91, 113)" d="M 69.65,29.32 C 71.29,28.67 73.02,28.3 74.79,28.19 75.68,28.14 76.58,28.12 77.46,28.3 78.33,28.49 79.19,28.81 79.93,29.32 L 79.9,29.38 C 79.03,29.22 78.2,29.08 77.35,28.99 76.51,28.89 75.67,28.77 74.81,28.75 73.95,28.73 73.09,28.78 72.23,28.89 71.37,28.99 70.51,29.15 69.68,29.38 L 69.65,29.32 Z M 69.65,29.32" />
        <path id="joe07Canvas-bezier41" stroke="none" fill="rgb(51, 91, 113)" d="M 93.58,27.85 C 92.79,27.77 91.99,27.73 91.2,27.71 90.41,27.69 89.62,27.7 88.83,27.75 88.05,27.8 87.28,27.96 86.53,28.06 85.77,28.19 85.03,28.33 84.32,28.7 L 84.27,28.65 C 84.77,27.96 85.6,27.6 86.39,27.39 87.19,27.17 88.02,27.2 88.82,27.2 90.44,27.23 92.03,27.44 93.59,27.78 L 93.58,27.85 Z M 93.58,27.85" />
        <path id="joe07Canvas-bezier42" stroke="none" fill="rgb(51, 91, 113)" d="M 100.19,28.45 C 100.67,29.43 100.7,30.56 100.63,31.63 100.59,32.17 100.5,32.71 100.39,33.24 100.28,33.76 100.22,34.26 100.18,34.79 100.11,35.83 100.23,36.89 100.05,38 99.95,38.54 99.78,39.15 99.32,39.58 98.85,40.01 98.24,40.1 97.71,40.05 L 97.7,39.98 C 98.21,39.84 98.7,39.63 98.96,39.25 99.23,38.88 99.33,38.41 99.37,37.9 99.45,36.9 99.49,35.81 99.63,34.73 99.7,34.2 99.81,33.65 99.96,33.13 100.1,32.62 100.22,32.11 100.29,31.59 100.45,30.57 100.51,29.47 100.13,28.48 L 100.19,28.45 Z M 100.19,28.45" />
        <path id="joe07Canvas-bezier43" stroke="none" fill="rgb(51, 91, 113)" d="M 98.15,35.48 C 98.23,35.15 98.28,34.81 98.27,34.48 98.28,34.16 98.23,33.83 98.07,33.65 98.02,33.59 98.02,33.61 97.92,33.52 97.83,33.44 97.74,33.33 97.69,33.22 97.58,32.98 97.58,32.71 97.65,32.51 97.8,32.1 98.07,31.82 98.44,31.66 L 98.49,31.71 C 98.43,32.08 98.33,32.4 98.32,32.66 98.32,32.79 98.31,32.89 98.32,32.97 98.33,33.02 98.34,33.05 98.36,33.1 98.38,33.14 98.5,33.27 98.54,33.36 98.74,33.78 98.69,34.18 98.61,34.53 98.52,34.88 98.38,35.2 98.21,35.51 L 98.15,35.48 Z M 98.15,35.48" />
        <path id="joe07Canvas-bezier44" stroke="none" fill="rgb(51, 91, 113)" d="M 71.84,31.93 C 72.77,31.28 73.85,30.81 75,30.66 75.57,30.59 76.18,30.58 76.74,30.76 77.3,30.94 77.82,31.25 78.21,31.67 L 78.19,31.7 C 77.69,31.43 77.19,31.2 76.65,31.09 76.13,30.97 75.58,30.9 75.03,30.93 73.93,31.02 72.84,31.4 71.86,31.96 L 71.84,31.93 Z M 71.84,31.93" />
        <path id="joe07Canvas-bezier45" stroke="none" fill="rgb(51, 91, 113)" d="M 72.91,32.02 C 73.67,32.3 74.48,32.44 75.28,32.46 75.68,32.45 76.07,32.4 76.46,32.35 76.85,32.31 77.23,32.22 77.64,32.14 L 77.66,32.18 C 77.32,32.43 76.92,32.59 76.52,32.69 76.1,32.79 75.68,32.77 75.26,32.73 74.43,32.66 73.63,32.43 72.9,32.05 L 72.91,32.02 Z M 72.91,32.02" />
        <path id="joe07Canvas-bezier46" stroke="none" fill="rgb(51, 91, 113)" d="M 72.23,31.06 C 73.15,30.45 74.23,30.05 75.37,29.99 75.93,29.96 76.52,30.01 77.05,30.22 77.58,30.44 78.07,30.78 78.43,31.21 L 78.4,31.24 C 77.92,30.96 77.45,30.69 76.94,30.55 76.43,30.39 75.91,30.27 75.37,30.27 74.84,30.26 74.29,30.34 73.77,30.49 73.24,30.63 72.73,30.82 72.25,31.09 L 72.23,31.06 Z M 72.23,31.06" />
        <path id="joe07Canvas-bezier47" stroke="none" fill="rgb(51, 91, 113)" d="M 86.48,30.66 C 87.39,29.94 88.59,29.59 89.77,29.66 90.36,29.69 90.96,29.81 91.5,30.06 92.03,30.32 92.53,30.64 92.94,31.06 L 92.92,31.09 C 92.4,30.83 91.9,30.57 91.36,30.38 90.84,30.18 90.31,30 89.75,29.94 89.19,29.87 88.62,29.9 88.07,30.03 87.52,30.15 86.97,30.36 86.5,30.69 L 86.48,30.66 Z M 86.48,30.66" />
        <path id="joe07Canvas-bezier48" stroke="none" fill="rgb(51, 91, 113)" d="M 86.33,31.57 C 87.17,30.91 88.21,30.46 89.32,30.44 89.87,30.42 90.44,30.51 90.94,30.75 91.43,31.01 91.87,31.35 92.2,31.79 L 92.18,31.81 C 91.72,31.52 91.28,31.25 90.8,31.07 90.33,30.88 89.83,30.74 89.32,30.71 88.29,30.68 87.24,31.02 86.35,31.6 L 86.33,31.57 Z M 86.33,31.57" />
        <path id="joe07Canvas-bezier49" stroke="none" fill="rgb(51, 91, 113)" d="M 86.8,31.93 C 87.56,32.04 88.33,32.1 89.09,32.09 89.47,32.08 89.84,32.03 90.21,31.99 90.58,31.96 90.94,31.9 91.31,31.78 L 91.33,31.81 C 91.05,32.11 90.65,32.24 90.26,32.33 89.87,32.42 89.47,32.39 89.08,32.36 88.3,32.31 87.54,32.17 86.79,31.96 L 86.8,31.93 Z M 86.8,31.93" />
        <path id="joe07Canvas-bezier50" stroke="none" fill="rgb(51, 91, 113)" d="M 76.41,30.9 C 76.58,31.23 76.58,31.67 76.38,32.02 76.19,32.37 75.81,32.62 75.39,32.65 74.99,32.7 74.52,32.54 74.28,32.18 74.03,31.83 74,31.35 74.2,31.01 L 74.23,31.03 C 74.23,31.4 74.32,31.73 74.55,31.97 74.76,32.2 75.04,32.38 75.38,32.38 75.71,32.39 76.04,32.21 76.23,31.93 76.44,31.65 76.5,31.26 76.38,30.91 L 76.41,30.9 Z M 76.41,30.9" />
        <path id="joe07Canvas-bezier51" stroke="none" fill="rgb(51, 91, 113)" d="M 89.98,30.72 C 90.15,31.03 90.17,31.45 89.99,31.79 89.82,32.13 89.47,32.39 89.08,32.45 88.7,32.52 88.23,32.39 87.98,32.07 87.72,31.75 87.64,31.3 87.82,30.96 L 87.85,30.96 C 87.88,31.32 88,31.63 88.23,31.83 88.45,32.04 88.72,32.19 89.05,32.18 89.36,32.16 89.67,31.98 89.84,31.71 90.03,31.43 90.07,31.06 89.95,30.73 L 89.98,30.72 Z M 89.98,30.72" />
        <path id="joe07Canvas-bezier52" stroke="none" fill="rgb(51, 91, 113)" d="M 67.34,49.28 C 67.51,51.6 67.69,53.92 67.89,56.23 68,57.39 68.15,58.54 68.21,59.69 68.28,60.85 68.29,62 68.39,63.16 L 68.32,63.18 C 68.07,62.63 67.94,62.06 67.81,61.48 67.69,60.91 67.6,60.33 67.53,59.75 67.38,58.59 67.37,57.43 67.34,56.26 67.26,53.94 67.24,51.61 67.27,49.29 L 67.34,49.28 Z M 67.34,49.28" />
        <path id="joe07Canvas-bezier53" stroke="none" fill="rgb(51, 91, 113)" d="M 93.68,52.93 C 93.8,54 93.89,55.06 93.96,56.13 93.99,56.66 94.08,57.2 94.02,57.73 93.97,58.26 93.89,58.8 93.69,59.32 L 93.62,59.32 C 93.44,58.79 93.38,58.25 93.33,57.72 93.29,57.19 93.38,56.66 93.41,56.13 93.47,55.07 93.54,54 93.61,52.94 L 93.68,52.93 Z M 93.68,52.93" />
        <path id="joe07Canvas-bezier54" stroke="none" fill="rgb(51, 91, 113)" d="M 92.82,76.99 C 93.53,75.4 94.2,73.8 94.8,72.17 95.4,70.55 95.95,68.9 96.29,67.22 96.45,66.38 96.49,65.54 96.5,64.67 96.52,63.81 96.52,62.95 96.51,62.08 96.53,60.36 96.44,58.63 96.39,56.88 L 96.46,56.87 C 96.9,58.57 97.09,60.31 97.2,62.06 97.24,62.94 97.24,63.82 97.18,64.7 97.13,65.57 97.04,66.47 96.82,67.33 96.41,69.05 95.78,70.69 95.11,72.3 94.43,73.9 93.67,75.47 92.88,77.02 L 92.82,76.99 Z M 92.82,76.99" />
        <path id="joe07Canvas-bezier55" stroke="none" fill="rgb(51, 91, 113)" d="M 94.99,55.16 C 95.29,55.16 95.61,55.31 95.75,55.6 95.9,55.88 95.88,56.21 95.83,56.5 95.71,57.09 95.46,57.64 95.18,58.16 L 93.48,61.23 90.04,67.36 89.77,66.89 C 90.28,66.9 90.74,67.02 91.19,67.24 91.63,67.46 92.02,67.81 92.28,68.24 92.8,69.13 92.78,70.15 92.6,71.04 92.41,71.91 92.27,72.75 92.15,73.62 92.03,74.48 91.95,75.35 91.88,76.23 L 91.81,76.24 C 91.71,75.36 91.68,74.47 91.71,73.58 91.73,72.7 91.85,71.79 91.98,70.94 92.08,70.11 92.06,69.26 91.67,68.61 91.31,67.96 90.52,67.57 89.77,67.52 L 89.23,67.48 89.5,67.04 93.15,61.04 94.98,58.04 C 95.28,57.55 95.55,57.02 95.68,56.47 95.74,56.19 95.77,55.9 95.65,55.64 95.55,55.39 95.27,55.24 94.99,55.23 L 94.99,55.16 Z M 94.99,55.16" />
        <path id="joe07Canvas-bezier56" stroke="none" fill="rgb(51, 91, 113)" d="M 66.74,55.85 C 66.56,55.95 66.5,56.18 66.45,56.39 66.4,56.6 66.38,56.82 66.37,57.04 66.35,57.48 66.38,57.92 66.43,58.35 66.54,59.23 66.74,60.09 67.03,60.92 67.6,62.57 68.52,64.11 69.8,65.28 71.1,66.53 72.26,67.91 73.24,69.41 74.2,70.92 75.1,72.48 75.72,74.16 L 75.66,74.19 C 74.69,72.7 73.73,71.22 72.68,69.8 71.64,68.38 70.62,66.94 69.41,65.67 68.11,64.39 67.22,62.74 66.71,61.02 66.45,60.16 66.29,59.27 66.22,58.37 66.19,57.93 66.19,57.47 66.23,57.03 66.25,56.8 66.29,56.58 66.35,56.36 66.42,56.15 66.48,55.9 66.71,55.79 L 66.74,55.85 Z M 66.74,55.85" />
        <path id="joe07Canvas-bezier57" stroke="none" fill="rgb(51, 91, 113)" d="M 66.59,55.99 C 65.73,57.57 65.03,59.26 64.68,61 64.51,61.87 64.44,62.76 64.63,63.61 64.81,64.48 65.06,65.34 65.32,66.2 65.87,67.9 66.54,69.57 67.19,71.24 67.5,72.07 67.86,72.89 68.24,73.7 68.43,74.1 68.63,74.5 68.85,74.88 69.07,75.27 69.32,75.64 69.62,75.97 L 69.58,76.02 C 68.82,75.49 68.3,74.69 67.82,73.93 67.34,73.15 66.94,72.33 66.56,71.5 65.81,69.84 65.28,68.1 64.8,66.35 64.56,65.48 64.34,64.6 64.19,63.69 64.02,62.76 64.14,61.81 64.35,60.93 64.8,59.15 65.59,57.5 66.53,55.96 L 66.59,55.99 Z M 66.59,55.99" />
        <path id="joe07Canvas-bezier58" stroke="none" fill="rgb(51, 91, 113)" d="M 69.57,76.18 C 69.57,74.59 69.64,73 69.83,71.41 69.93,70.62 69.99,69.81 70.29,69.03 70.46,68.64 70.61,68.24 71,67.91 71.1,67.84 71.24,67.76 71.39,67.75 71.54,67.74 71.69,67.8 71.78,67.87 71.97,68.03 72.08,68.22 72.15,68.41 L 72.09,68.45 C 71.94,68.32 71.79,68.19 71.63,68.15 71.48,68.11 71.42,68.16 71.33,68.27 71.16,68.51 71.04,68.89 70.94,69.25 70.76,69.98 70.53,70.73 70.37,71.5 70.06,73.04 69.83,74.61 69.64,76.19 L 69.57,76.18 Z M 69.57,76.18" />
        <path id="joe07Canvas-bezier59" stroke="none" fill="rgb(51, 91, 113)" d="M 63.79,77.35 C 67.04,76.91 70.28,76.41 73.49,75.74 75.1,75.42 76.66,75.01 78.23,74.51 79.02,74.27 79.8,74.02 80.63,73.86 81.05,73.79 81.49,73.75 81.93,73.8 82.37,73.85 82.79,73.97 83.19,74.12 83.98,74.42 84.7,74.84 85.44,75.15 86.18,75.46 86.95,75.74 87.72,76.02 89.26,76.56 90.81,77.07 92.37,77.57 93.92,78.09 95.49,78.58 97.05,79.03 98.65,79.39 100.24,79.9 101.72,80.66 L 101.67,80.71 C 100.94,80.41 100.12,80.2 99.34,80 98.94,79.9 98.55,79.8 98.15,79.71 97.76,79.63 97.35,79.58 96.94,79.49 95.32,79.14 93.75,78.68 92.16,78.23 90.59,77.75 89.02,77.24 87.48,76.66 86.71,76.36 85.94,76.06 85.19,75.71 84.41,75.36 83.72,74.93 82.98,74.63 81.54,73.91 79.93,74.52 78.36,74.94 76.79,75.41 75.17,75.79 73.55,76.08 70.31,76.66 67.06,77.07 63.79,77.42 L 63.79,77.35 Z M 63.79,77.35" />
        <path id="joe07Canvas-bezier60" stroke="none" fill="rgb(51, 91, 113)" d="M 84.4,76.97 L 94.04,79.4 C 95.65,79.79 97.27,80.13 98.86,80.54 99.26,80.64 99.66,80.74 100.05,80.81 100.4,80.88 100.86,80.88 101.26,80.95 101.68,81.01 102.09,81.08 102.51,81.17 102.71,81.23 102.91,81.28 103.11,81.36 103.21,81.4 103.31,81.43 103.41,81.49 103.5,81.54 103.63,81.59 103.65,81.74 L 103.58,81.74 C 103.5,81.62 103.25,81.59 103.06,81.55 102.86,81.52 102.66,81.5 102.46,81.49 102.05,81.45 101.64,81.43 101.23,81.43 100.8,81.42 100.44,81.44 99.97,81.4 99.54,81.35 99.13,81.28 98.71,81.21 97.07,80.89 95.49,80.39 93.89,79.93 90.71,79.02 87.54,78.04 84.38,77.04 L 84.4,76.97 Z M 84.4,76.97" />
        <path id="joe07Canvas-bezier61" stroke="none" fill="rgb(51, 91, 113)" d="M 83.88,79.85 C 85.02,80.06 86.16,80.26 87.3,80.42 88.44,80.57 89.59,80.74 90.73,80.72 93.06,80.77 95.35,81.05 97.64,81.32 98.79,81.46 99.94,81.62 101.08,81.81 101.66,81.91 102.23,82.01 102.8,82.14 103.09,82.22 103.37,82.28 103.67,82.41 103.75,82.45 103.82,82.47 103.93,82.56 103.95,82.58 103.98,82.61 104.01,82.65 104.04,82.69 104.07,82.8 104.07,82.79 L 104.09,82.92 C 104.12,83.08 104.12,83.26 104.1,83.43 104.05,83.78 103.84,84.13 103.56,84.34 103.29,84.55 102.97,84.67 102.67,84.74 102.05,84.88 101.45,84.88 100.85,84.85 99.67,84.76 98.52,84.52 97.39,84.23 L 97.53,84.24 C 95.16,84.59 92.76,84.71 90.37,84.65 89.78,84.63 89.18,84.61 88.58,84.55 87.98,84.49 87.41,84.43 86.81,84.39 86.21,84.34 85.61,84.27 85.03,84.14 84.45,84.01 83.82,83.87 83.37,83.43 L 83.42,83.38 C 83.88,83.74 84.49,83.83 85.06,83.91 85.65,83.97 86.24,84 86.83,84.01 87.41,84.02 88.03,84.05 88.61,84.07 89.2,84.08 89.79,84.09 90.38,84.08 92.74,84.05 95.09,83.85 97.43,83.54 L 97.5,83.53 97.57,83.55 C 98.67,83.85 99.79,84.11 100.9,84.22 101.46,84.26 102.02,84.28 102.54,84.17 103.05,84.07 103.5,83.8 103.56,83.35 103.58,83.23 103.58,83.12 103.56,83 L 103.54,82.91 C 103.54,82.86 103.55,82.94 103.57,82.95 103.57,82.95 103.58,82.96 103.58,82.96 103.57,82.95 103.51,82.92 103.46,82.89 103.23,82.79 102.95,82.71 102.68,82.64 102.13,82.5 101.56,82.39 101,82.28 99.87,82.07 98.73,81.89 97.59,81.72 96.45,81.56 95.31,81.41 94.16,81.28 93.02,81.15 91.86,81.01 90.73,80.97 89.56,80.96 88.41,80.76 87.27,80.58 86.13,80.39 85,80.16 83.87,79.92 L 83.88,79.85 Z M 83.88,79.85" />
        <path id="joe07Canvas-bezier62" stroke="none" fill="rgb(51, 91, 113)" d="M 82.49,84.14 C 82.11,84.43 81.68,84.64 81.25,84.81 80.81,84.99 80.35,85.12 79.89,85.22 78.96,85.43 78.01,85.51 77.07,85.5 L 77.18,85.47 C 76.33,86 75.49,86.53 74.61,87.02 73.74,87.51 72.83,87.98 71.86,88.31 70.9,88.65 69.86,88.82 68.84,88.79 67.81,88.77 66.79,88.53 65.89,88.08 L 65.91,88.02 C 66.89,88.22 67.86,88.3 68.82,88.23 69.78,88.16 70.72,87.93 71.65,87.65 72.57,87.36 73.48,86.98 74.36,86.54 75.24,86.1 76.1,85.61 76.97,85.12 L 77.03,85.09 77.08,85.1 C 78,85.15 78.93,85.12 79.84,84.98 80.3,84.91 80.75,84.81 81.19,84.66 81.63,84.52 82.07,84.34 82.45,84.08 L 82.49,84.14 Z M 82.49,84.14" />
        <path id="joe07Canvas-bezier63" stroke="none" fill="rgb(51, 91, 113)" d="M 64.3,87.78 C 63.18,87.47 61.99,87.46 60.83,87.56 59.67,87.66 58.52,87.9 57.41,88.23 55.19,88.94 53.03,89.86 50.87,90.77 48.72,91.7 46.59,92.67 44.49,93.69 42.39,94.72 40.3,95.79 38.32,97.01 34.27,99.43 30.05,101.52 25.69,103.27 23.49,104.12 21.27,104.91 19.01,105.54 16.74,106.17 14.42,106.66 12.08,106.82 L 12.07,106.75 C 13.23,106.59 14.37,106.34 15.51,106.05 16.64,105.77 17.76,105.44 18.87,105.08 21.09,104.36 23.28,103.54 25.43,102.63 29.72,100.82 34,98.87 38.04,96.54 40.06,95.33 42.17,94.29 44.29,93.29 46.42,92.29 48.57,91.35 50.74,90.46 52.92,89.58 55.09,88.71 57.35,88.03 58.48,87.72 59.65,87.5 60.82,87.42 61.99,87.35 63.19,87.37 64.32,87.71 L 64.3,87.78 Z M 64.3,87.78" />
        <path id="joe07Canvas-bezier64" stroke="none" fill="rgb(51, 91, 113)" d="M 10.92,107.04 C 8.8,107.38 6.5,107.18 4.58,106.05 4.1,105.77 3.66,105.4 3.27,105.04 2.86,104.68 2.46,104.32 2.07,103.93 1.31,103.17 0.53,102.31 0.18,101.18 -0.17,100.06 0.04,98.86 0.38,97.82 0.71,96.77 1.15,95.75 1.7,94.79 2.26,93.84 2.92,92.94 3.73,92.18 4.54,91.42 5.49,90.81 6.54,90.5 L 6.57,90.57 C 4.64,91.55 3.27,93.26 2.3,95.13 1.8,96.06 1.38,97.03 1.02,98.04 0.66,99.02 0.45,100.06 0.71,101.03 0.97,102.01 1.66,102.85 2.39,103.62 2.76,104 3.14,104.38 3.53,104.75 3.93,105.13 4.31,105.47 4.76,105.75 6.53,106.91 8.79,107.22 10.91,106.97 L 10.92,107.04 Z M 10.92,107.04" />
        <path id="joe07Canvas-bezier65" stroke="none" fill="rgb(51, 91, 113)" d="M 11.15,87.23 C 11.85,86.65 12.69,86.3 13.5,85.93 14.33,85.58 15.17,85.28 16.02,85 17.72,84.43 19.45,83.95 21.19,83.51 24.66,82.65 28.18,81.95 31.7,81.32 35.22,80.69 38.76,80.1 42.31,79.68 45.87,79.28 49.43,78.91 53,78.73 L 53.01,78.8 C 49.48,79.37 45.93,79.84 42.4,80.36 38.86,80.87 35.32,81.31 31.79,81.86 28.27,82.42 24.75,83.05 21.27,83.85 19.53,84.24 17.79,84.67 16.09,85.19 15.23,85.45 14.39,85.74 13.56,86.06 12.74,86.4 11.89,86.73 11.2,87.28 L 11.15,87.23 Z M 11.15,87.23" />
        <path id="joe07Canvas-bezier66" stroke="none" fill="rgb(51, 91, 113)" d="M 53.75,78.51 C 55.33,77.77 57.02,77.22 58.76,76.9 59.63,76.74 60.52,76.59 61.42,76.67 62.31,76.74 63.21,76.94 63.99,77.39 L 63.97,77.45 C 63.09,77.37 62.25,77.33 61.4,77.35 60.55,77.37 59.69,77.36 58.84,77.45 57.98,77.54 57.13,77.69 56.28,77.88 55.44,78.07 54.59,78.29 53.77,78.58 L 53.75,78.51 Z M 53.75,78.51" />
        <path id="joe07Canvas-bezier67" stroke="none" fill="rgb(51, 91, 113)" d="M 80.35,104.35 C 80.09,103.64 79.86,102.91 79.67,102.18 79.58,101.81 79.5,101.44 79.44,101.06 79.39,100.68 79.35,100.3 79.41,99.9 L 79.43,99.98 C 79.18,99.61 79.05,99.2 78.93,98.8 78.81,98.39 78.73,97.98 78.66,97.57 78.52,96.74 78.42,95.91 78.37,95.07 L 78.38,95.11 C 78.23,94.49 78.12,93.87 78.05,93.24 77.98,92.61 77.96,91.97 78.03,91.33 78.11,90.69 78.28,90 78.79,89.48 79.05,89.22 79.39,89.05 79.74,88.98 80.08,88.91 80.43,88.93 80.76,88.98 L 80.91,89 80.97,89.15 C 81.33,90.07 81.48,91.01 81.61,91.95 81.74,92.89 81.81,93.82 81.83,94.77 L 81.82,94.67 C 82.08,95.5 82.31,96.33 82.54,97.16 82.64,97.58 82.74,98.01 82.83,98.43 82.91,98.86 83,99.29 83.03,99.76 L 82.92,99.55 C 83.35,99.92 83.63,100.36 83.86,100.81 84.1,101.26 84.29,101.73 84.47,102.19 84.65,102.66 84.81,103.13 84.96,103.6 85.13,104.05 85.25,104.56 85.53,104.94 L 85.48,104.99 C 85.11,104.61 84.96,104.13 84.73,103.69 L 84.12,102.34 C 83.91,101.9 83.69,101.47 83.43,101.06 83.18,100.66 82.9,100.26 82.56,100 L 82.47,99.93 82.46,99.79 C 82.41,99.4 82.31,98.98 82.21,98.58 82.11,98.16 81.99,97.75 81.87,97.34 81.65,96.52 81.39,95.7 81.14,94.88 L 81.13,94.83 81.13,94.78 C 81.11,93.87 81.06,92.94 80.98,92.02 80.88,91.11 80.75,90.19 80.46,89.36 L 80.67,89.53 C 80.1,89.41 79.53,89.47 79.15,89.85 78.76,90.21 78.58,90.8 78.49,91.39 78.34,92.58 78.49,93.83 78.74,95.02 L 78.74,95.04 78.74,95.06 C 78.78,95.88 78.84,96.71 78.95,97.52 79.01,97.93 79.08,98.34 79.18,98.73 79.28,99.13 79.4,99.53 79.61,99.86 L 79.63,99.9 79.62,99.94 C 79.56,100.29 79.58,100.67 79.62,101.04 79.66,101.41 79.73,101.78 79.81,102.15 79.97,102.88 80.17,103.61 80.41,104.33 L 80.35,104.35 Z M 80.35,104.35" />
        <path id="joe07Canvas-bezier68" stroke="none" fill="rgb(51, 91, 113)" d="M 80.59,88.02 C 80.36,87.64 80.16,87.25 79.97,86.86 79.88,86.67 79.73,86.49 79.72,86.27 79.7,86.05 79.7,85.83 79.82,85.56 L 79.89,85.54 C 80.13,85.69 80.26,85.87 80.37,86.06 80.48,86.25 80.46,86.48 80.5,86.7 80.57,87.12 80.62,87.56 80.65,87.99 L 80.59,88.02 Z M 80.59,88.02" />
        <path id="joe07Canvas-bezier69" stroke="none" fill="rgb(51, 91, 113)" d="M 76.83,85.99 C 76.91,86.69 77.02,87.39 77.17,88.07 77.24,88.41 77.39,88.72 77.43,89.06 77.47,89.4 77.5,89.73 77.49,90.12 L 77.43,90.16 C 77.09,89.92 76.9,89.58 76.76,89.23 76.62,88.88 76.64,88.5 76.63,88.14 76.59,87.41 76.64,86.69 76.76,85.98 L 76.83,85.99 Z M 76.83,85.99" />
        <path id="joe07Canvas-bezier70" stroke="none" fill="rgb(51, 91, 113)" d="M 77.09,94.6 C 76.92,94.25 76.84,93.87 76.77,93.49 76.72,93.12 76.69,92.74 76.67,92.36 76.65,91.98 76.59,91.6 76.67,91.23 76.74,90.85 76.86,90.49 77.09,90.14 L 77.16,90.15 C 77.3,90.54 77.34,90.91 77.35,91.28 77.37,91.65 77.26,92.01 77.22,92.38 77.17,92.74 77.13,93.11 77.12,93.48 77.09,93.84 77.08,94.21 77.16,94.57 L 77.09,94.6 Z M 77.09,94.6" />
        <path id="joe07Canvas-bezier71" stroke="none" fill="rgb(51, 91, 113)" d="M 77.16,95.11 C 77.37,95.95 77.58,96.79 77.8,97.62 77.91,98.03 78.09,98.43 78.14,98.84 78.21,99.27 78.24,99.68 78.24,100.14 L 78.18,100.17 C 77.83,99.85 77.63,99.43 77.48,99.02 77.32,98.6 77.32,98.15 77.26,97.72 77.16,96.85 77.1,95.99 77.09,95.12 L 77.16,95.11 Z M 77.16,95.11" />
        <path id="joe07Canvas-bezier72" stroke="none" fill="rgb(51, 91, 113)" d="M 78.24,100.98 C 78.26,101.84 78.29,102.71 78.36,103.57 78.42,104.42 78.47,105.32 78.72,106.07 78.78,106.21 78.91,106.51 78.93,106.76 78.95,107.01 78.94,107.25 78.92,107.48 78.86,107.95 78.73,108.38 78.59,108.79 78.27,109.62 77.88,110.38 77.49,111.17 L 77.42,111.15 C 77.45,110.25 77.72,109.4 77.93,108.58 78.05,108.17 78.16,107.77 78.25,107.38 78.29,107.18 78.31,106.99 78.31,106.8 78.32,106.61 78.28,106.51 78.19,106.24 77.98,105.31 78.02,104.46 78.02,103.58 78.04,102.71 78.1,101.84 78.18,100.97 L 78.24,100.98 Z M 78.24,100.98" />
        <path id="joe07Canvas-bezier73" stroke="none" fill="rgb(51, 91, 113)" d="M 77.43,107.38 C 76.45,105.89 75.49,104.33 74.49,102.91 73.93,102.31 73.07,101.81 72.32,101.99 71.59,102.18 71.21,103.12 71.13,103.9 71.05,104.73 71.3,105.57 71.66,106.35 72.02,107.13 72.48,107.87 73,108.58 73.5,109.28 74.11,109.98 74.61,110.72 74.87,111.09 75.12,111.46 75.37,111.84 75.49,112.03 75.6,112.23 75.71,112.43 75.81,112.63 75.94,112.82 75.96,113.08 L 75.89,113.08 C 75.72,112.7 75.39,112.36 75.11,112.03 74.83,111.68 74.53,111.35 74.24,111.02 L 73.35,110.01 C 73.06,109.68 72.74,109.36 72.45,108.99 71.89,108.27 71.39,107.48 71.04,106.62 70.69,105.76 70.45,104.81 70.58,103.84 70.65,103.33 70.81,102.91 71.05,102.48 71.29,102.06 71.7,101.66 72.22,101.55 72.74,101.44 73.24,101.59 73.66,101.8 74.08,102.03 74.45,102.32 74.75,102.69 75.74,104.24 76.58,105.79 77.49,107.35 L 77.43,107.38 Z M 77.43,107.38" />
        <path id="joe07Canvas-bezier74" stroke="none" fill="rgb(51, 91, 113)" d="M 76.1,114.05 C 75.98,114.95 75.99,115.87 76.08,116.76 76.17,117.66 76.36,118.54 76.68,119.37 77,120.2 77.47,120.94 77.97,121.65 78.46,122.38 79.07,123.02 79.73,123.67 L 79.69,123.73 C 78.82,123.39 78.04,122.8 77.42,122.08 76.8,121.35 76.42,120.44 76.16,119.54 75.63,117.73 75.62,115.82 76.03,114.03 L 76.1,114.05 Z M 76.1,114.05" />
        <path id="joe07Canvas-bezier75" stroke="none" fill="rgb(51, 91, 113)" d="M 80.5,123.67 C 81.18,124.38 81.94,125.03 82.78,125.53 83.2,125.77 83.65,125.98 84.12,126.07 84.61,126.14 85.1,126.26 85.56,126.44 86.49,126.81 87.33,127.35 88.17,127.86 L 90.7,129.4 C 94.05,131.48 97.37,133.61 100.64,135.82 101.46,136.37 102.27,136.93 103.07,137.51 103.89,138.08 104.64,138.73 105.46,139.25 107.1,140.31 108.87,141.18 110.66,141.97 114.26,143.53 118.03,144.72 121.9,145.36 122.38,145.44 122.86,145.51 123.35,145.57 123.57,145.58 123.91,145.67 124.14,145.77 124.38,145.87 124.6,145.99 124.83,146.11 125.7,146.6 126.53,147.13 127.38,147.59 128.23,148.06 129.12,148.49 130.02,148.68 130.48,148.77 130.91,148.79 131.34,148.67 131.78,148.56 132.21,148.38 132.61,148.14 134.23,147.18 135.35,145.51 136.08,143.74 136.82,141.96 137.18,140.02 137.34,138.08 137.68,134.19 137.11,130.25 136.47,126.37 136.14,124.43 135.75,122.5 135.32,120.57 134.89,118.64 134.44,116.72 133.92,114.82 L 133.98,114.8 C 135.17,118.57 136.17,122.4 136.95,126.29 137.34,128.23 137.65,130.19 137.86,132.16 138.07,134.14 138.18,136.14 138.02,138.14 137.86,140.13 137.49,142.13 136.71,144.01 135.94,145.86 134.76,147.65 132.95,148.73 132.5,148.99 132.02,149.2 131.49,149.32 130.97,149.45 130.4,149.42 129.89,149.31 128.86,149.08 127.96,148.62 127.09,148.13 126.22,147.65 125.39,147.1 124.54,146.62 124.33,146.5 124.12,146.39 123.91,146.3 123.68,146.2 123.54,146.16 123.28,146.13 122.78,146.07 122.29,145.99 121.8,145.91 117.89,145.22 114.1,143.98 110.48,142.38 108.68,141.57 106.9,140.67 105.24,139.58 104.39,139.04 103.66,138.38 102.86,137.81 102.06,137.23 101.26,136.66 100.45,136.1 97.21,133.86 93.91,131.69 90.59,129.58 L 88.08,128.01 C 87.24,127.49 86.42,126.94 85.51,126.57 85.06,126.39 84.59,126.27 84.1,126.19 83.6,126.09 83.15,125.87 82.72,125.62 81.88,125.1 81.13,124.44 80.45,123.72 L 80.5,123.67 Z M 80.5,123.67" />
        <path id="joe07Canvas-bezier76" stroke="none" fill="rgb(51, 91, 113)" d="M 82.28,91.51 C 82.48,92.88 82.74,94.25 83.06,95.6 83.23,96.27 83.41,96.94 83.64,97.59 83.87,98.23 84.13,98.9 84.57,99.36 85.1,99.83 85.5,100.46 85.82,101.08 86.14,101.71 86.4,102.37 86.62,103.04 86.83,103.72 87,104.4 87.08,105.13 87.1,105.31 87.11,105.49 87.1,105.69 87.09,105.84 87.1,106 87.11,106.17 87.14,106.51 87.18,106.85 87.22,107.19 87.61,109.93 88.22,112.65 89.07,115.25 89.28,115.9 89.52,116.53 89.84,117.12 90,117.42 90.17,117.68 90.39,117.94 L 91.06,118.73 C 91.96,119.77 92.91,120.78 93.91,121.75 L 93.87,121.8 C 92.73,120.98 91.7,120.04 90.71,119.05 90.46,118.81 90.21,118.56 89.98,118.3 89.73,118.04 89.51,117.73 89.32,117.42 88.95,116.8 88.67,116.14 88.42,115.48 87.46,112.82 87,110.04 86.68,107.26 86.64,106.91 86.61,106.56 86.59,106.21 86.58,106.03 86.58,105.84 86.59,105.65 86.6,105.5 86.6,105.33 86.59,105.17 86.53,104.5 86.38,103.83 86.19,103.17 86,102.52 85.76,101.87 85.47,101.26 85.17,100.64 84.82,100.06 84.32,99.6 83.82,99.02 83.6,98.34 83.38,97.68 83.17,97.01 83,96.33 82.86,95.64 82.58,94.28 82.37,92.9 82.21,91.52 L 82.28,91.51 Z M 82.28,91.51" />
        <path id="joe07Canvas-bezier77" stroke="none" fill="rgb(51, 91, 113)" d="M 94.38,119.26 C 96.6,120.53 99.07,121.4 101.59,121.69 104.14,121.88 106.71,122.18 109.26,122.52 111.81,122.86 114.36,123.2 116.88,123.74 118.14,124.02 119.39,124.31 120.63,124.68 121.25,124.86 121.87,125.06 122.48,125.29 123.07,125.55 123.7,125.77 124.18,126.24 L 124.13,126.29 C 123.62,125.93 122.99,125.76 122.38,125.59 121.76,125.42 121.14,125.27 120.52,125.14 119.27,124.88 118.01,124.63 116.75,124.42 114.23,123.97 111.71,123.48 109.18,123.07 106.64,122.66 104.11,122.3 101.55,122.03 98.98,121.64 96.53,120.67 94.35,119.32 L 94.38,119.26 Z M 94.38,119.26" />
        <path id="joe07Canvas-bezier78" stroke="none" fill="rgb(51, 91, 113)" d="M 114.31,122.41 C 113.93,121.21 113.61,120 113.35,118.77 113.22,118.15 113.05,117.54 113.05,116.89 113.05,116.26 113.08,115.59 113.4,114.99 L 113.47,115.01 C 113.52,115.64 113.65,116.23 113.73,116.84 113.83,117.44 113.83,118.06 113.89,118.68 114.03,119.91 114.19,121.15 114.37,122.39 L 114.31,122.41 Z M 114.31,122.41" />
        <path id="joe07Canvas-bezier79" stroke="none" fill="rgb(51, 91, 113)" d="M 63.17,61.79 C 61.69,62.75 60.21,63.69 58.72,64.62 57.98,65.08 57.23,65.6 56.32,65.84 55.87,65.96 55.35,66.01 54.88,65.87 54.41,65.73 54.07,65.51 53.63,65.41 L 53.63,65.34 C 54.09,65.24 54.57,65.37 54.96,65.39 55.36,65.41 55.73,65.32 56.12,65.18 56.89,64.9 57.67,64.54 58.45,64.14 60,63.32 61.56,62.51 63.13,61.73 L 63.17,61.79 Z M 63.17,61.79" />
        <path id="joe07Canvas-bezier80" stroke="none" fill="rgb(51, 91, 113)" d="M 56.5,64.03 C 55.98,63.98 55.46,64.06 54.97,64.2 54.47,64.32 54,64.54 53.57,64.8 53.14,65.06 52.79,65.42 52.38,65.72 51.97,66.02 51.58,66.35 51.11,66.65 L 51.05,66.61 C 51.23,66.07 51.54,65.61 51.93,65.2 52.31,64.8 52.82,64.54 53.32,64.31 54.32,63.85 55.47,63.68 56.52,63.97 L 56.5,64.03 Z M 56.5,64.03" />
        <path id="joe07Canvas-bezier81" stroke="none" fill="rgb(51, 91, 113)" d="M 51.06,64.35 C 50.39,64.06 49.61,64.08 48.89,64.17 48.15,64.26 47.43,64.46 46.73,64.7 45.34,65.2 44.02,65.9 42.7,66.59 40.09,68.02 37.52,69.59 35.27,71.5 34.72,71.98 34.18,72.48 33.75,73.04 33.55,73.32 33.35,73.61 33.27,73.9 33.24,73.98 33.24,74 33.22,74.13 33.21,74.2 33.15,74.4 33.11,74.48 33.01,74.69 32.9,74.86 32.77,75.03 32.26,75.67 31.66,76.14 31.06,76.6 30.45,77.06 29.82,77.48 29.19,77.89 26.66,79.52 23.97,80.85 21.34,82.25 L 21.29,82.19 C 22.54,81.35 23.84,80.61 25.11,79.82 26.38,79.03 27.64,78.23 28.87,77.4 30.08,76.56 31.33,75.67 32.22,74.6 32.32,74.47 32.41,74.33 32.47,74.2 32.5,74.11 32.5,74.13 32.52,74.01 32.53,73.95 32.56,73.79 32.59,73.69 32.72,73.26 32.95,72.92 33.2,72.6 33.69,71.99 34.26,71.47 34.85,70.99 37.24,69.11 39.85,67.61 42.51,66.23 43.85,65.56 45.21,64.89 46.65,64.45 47.38,64.23 48.12,64.07 48.87,64 49.62,63.95 50.4,63.95 51.1,64.29 L 51.06,64.35 Z M 51.06,64.35" />
        <path id="joe07Canvas-bezier82" stroke="none" fill="rgb(51, 91, 113)" d="M 98.37,62.19 C 98.77,62.83 99.41,63.3 100.09,63.55 100.77,63.83 101.5,63.81 102.28,63.86 102.66,63.88 103.06,63.9 103.47,63.99 103.87,64.09 104.3,64.3 104.6,64.64 105.17,65.33 105.32,66.15 105.34,66.93 L 105.27,66.95 C 104.9,66.27 104.59,65.56 104.1,65.12 103.65,64.7 102.97,64.51 102.22,64.4 101.84,64.34 101.48,64.31 101.08,64.24 100.69,64.16 100.3,64.04 99.95,63.86 99.24,63.5 98.64,62.93 98.31,62.22 L 98.37,62.19 Z M 98.37,62.19" />
        <path id="joe07Canvas-bezier83" stroke="none" fill="rgb(51, 91, 113)" d="M 106.15,65.25 C 107.18,65.65 108.2,66.09 109.21,66.58 110.2,67.09 111.18,67.63 112.07,68.36 112.29,68.55 112.51,68.75 112.7,68.99 112.89,69.23 113.08,69.52 113.12,69.91 113.16,70.44 113.25,70.95 113.4,71.45 113.53,71.96 113.74,72.45 113.99,72.91 114.26,73.36 114.58,73.8 115.08,74.02 L 115.07,74.09 C 114.47,74.05 113.97,73.63 113.6,73.19 113.22,72.74 112.95,72.21 112.74,71.67 112.55,71.12 112.44,70.53 112.44,69.94 112.44,69.59 112.07,69.13 111.7,68.77 110.93,68.04 109.99,67.44 109.04,66.88 108.1,66.32 107.12,65.79 106.12,65.31 L 106.15,65.25 Z M 106.15,65.25" />
        <path id="joe07Canvas-bezier84" stroke="none" fill="rgb(51, 91, 113)" d="M 114.12,69.64 C 115.12,69.75 116.07,70.02 117.02,70.35 117.48,70.53 117.95,70.74 118.39,71.02 118.6,71.16 118.82,71.32 119,71.52 119.1,71.63 119.19,71.74 119.26,71.88 119.29,71.94 119.32,72.02 119.35,72.09 L 119.41,72.26 C 119.54,72.55 119.96,72.75 120.41,72.87 120.86,73 121.34,73.12 121.82,73.28 122.77,73.61 123.78,74.23 124.17,75.19 L 124.12,75.23 C 123.41,74.52 122.55,74.18 121.62,73.94 121.16,73.81 120.68,73.7 120.19,73.52 119.73,73.33 119.14,73.09 118.89,72.43 L 118.83,72.24 C 118.82,72.2 118.81,72.15 118.79,72.11 118.75,72.02 118.69,71.94 118.63,71.85 118.49,71.68 118.32,71.53 118.13,71.39 117.76,71.11 117.32,70.88 116.88,70.67 116.01,70.27 115.06,69.91 114.12,69.71 L 114.12,69.64 Z M 114.12,69.64" />
        <path id="joe07Canvas-bezier85" stroke="none" fill="rgb(51, 91, 113)" d="M 116.96,86.23 C 116.36,89.05 115.83,91.9 115.48,94.75 115.31,96.18 115.17,97.62 115.24,99.03 115.25,99.39 115.32,99.71 115.35,100.11 115.37,100.49 115.35,100.86 115.33,101.22 115.27,101.95 115.17,102.68 115.05,103.39 114.56,106.26 113.9,109.07 113.22,111.87 112.87,113.26 112.54,114.67 112.24,116.07 112.09,116.77 111.96,117.48 111.86,118.19 111.75,118.9 111.68,119.61 111.69,120.33 L 111.62,120.34 C 111.41,118.89 111.58,117.42 111.77,115.99 111.97,114.55 112.27,113.13 112.55,111.72 113.15,108.89 113.95,106.11 114.51,103.3 114.64,102.59 114.76,101.89 114.83,101.18 114.87,100.83 114.89,100.48 114.88,100.13 114.87,99.81 114.8,99.42 114.79,99.05 114.76,97.58 114.94,96.14 115.14,94.71 115.59,91.84 116.2,89.02 116.9,86.22 L 116.96,86.23 Z M 116.96,86.23" />
        <path id="joe07Canvas-bezier86" stroke="none" fill="rgb(51, 91, 113)" d="M 114.1,114.06 C 115.91,113.14 117.78,112.34 119.71,111.69 121.65,111.07 123.65,110.52 125.76,110.64 126.27,110.67 126.83,110.79 127.31,110.97 127.78,111.12 128.26,111.25 128.75,111.38 L 131.69,112.09 C 132.67,112.35 133.66,112.59 134.62,112.94 135.11,113.13 135.59,113.32 136.03,113.63 136.24,113.79 136.48,113.99 136.54,114.3 136.59,114.61 136.39,114.86 136.21,115.03 L 136.16,114.98 C 136.31,114.78 136.42,114.54 136.34,114.34 136.28,114.15 136.07,114 135.87,113.89 135.45,113.67 134.96,113.53 134.48,113.4 133.51,113.16 132.53,112.95 131.53,112.76 130.54,112.55 129.55,112.32 128.57,112.03 128.08,111.89 127.59,111.73 127.1,111.55 126.63,111.36 126.2,111.25 125.7,111.19 123.75,111.01 121.74,111.47 119.81,112.02 117.88,112.58 115.98,113.29 114.13,114.12 L 114.1,114.06 Z M 114.1,114.06" />
        <path id="joe07Canvas-bezier87" stroke="none" fill="rgb(51, 91, 113)" d="M 136.42,113.52 C 135.79,110.29 135.1,107.08 134.33,103.88 133.94,102.29 133.54,100.7 133.07,99.13 132.84,98.34 132.59,97.56 132.3,96.81 132.15,96.42 132,96.07 131.8,95.71 131.6,95.32 131.47,94.9 131.36,94.5 130.93,92.87 130.77,91.22 130.56,89.59 130.36,87.96 130.19,86.33 129.94,84.72 129.72,83.1 129.4,81.5 128.87,79.97 128.34,78.46 127.57,76.96 126.2,76.02 L 126.24,75.96 C 126.98,76.34 127.6,76.94 128.11,77.6 128.61,78.28 129,79.03 129.32,79.8 129.96,81.34 130.32,82.98 130.62,84.61 130.9,86.24 131.08,87.88 131.23,89.52 131.4,91.15 131.53,92.79 131.89,94.36 131.99,94.75 132.1,95.12 132.27,95.47 132.46,95.84 132.63,96.24 132.77,96.63 133.05,97.41 133.28,98.21 133.5,99 133.94,100.59 134.31,102.2 134.66,103.81 135.35,107.03 135.95,110.26 136.49,113.51 L 136.42,113.52 Z M 136.42,113.52" />
        <path id="joe07Canvas-bezier88" stroke="none" fill="rgb(51, 91, 113)" d="M 24.27,106.09 C 25.26,106.39 26.31,106.56 27.32,106.52 28.33,106.5 29.37,106.17 29.89,105.37 30.02,105.18 30.11,104.97 30.21,104.72 30.32,104.48 30.44,104.23 30.56,103.99 30.81,103.52 31.1,103.07 31.43,102.64 32.1,101.81 32.88,101.05 33.82,100.53 L 33.86,100.59 C 33.18,101.39 32.55,102.2 31.99,103.05 31.7,103.47 31.42,103.9 31.15,104.33 31.02,104.55 30.89,104.77 30.77,104.99 30.65,105.21 30.51,105.48 30.33,105.7 29.97,106.16 29.47,106.49 28.94,106.66 28.41,106.83 27.86,106.88 27.32,106.86 26.25,106.81 25.22,106.54 24.25,106.15 L 24.27,106.09 Z M 24.27,106.09" />
        <path id="joe07Canvas-bezier89" stroke="none" fill="rgb(51, 91, 113)" d="M 39.35,97.25 C 40.24,98.08 40.78,99.21 41.14,100.36 41.49,101.52 41.64,102.73 41.67,103.94 41.68,104.54 41.64,105.16 41.61,105.74 41.6,106.32 41.64,106.92 41.7,107.5 41.84,108.68 42.09,109.84 42.4,110.99 43.02,113.28 43.88,115.51 44.69,117.76 L 45.92,121.12 C 46.31,122.25 46.76,123.37 47.03,124.55 L 46.96,124.57 C 46.75,124.02 46.49,123.48 46.23,122.94 L 45.48,121.31 C 44.97,120.22 44.51,119.11 44.05,118 43.15,115.77 42.42,113.47 41.87,111.12 41.59,109.95 41.37,108.76 41.26,107.55 41.21,106.94 41.18,106.34 41.22,105.72 41.26,105.11 41.32,104.54 41.32,103.94 41.34,102.76 41.24,101.56 40.94,100.41 40.63,99.28 40.15,98.14 39.3,97.3 L 39.35,97.25 Z M 39.35,97.25" />
        <path id="joe07Canvas-bezier90" stroke="none" fill="rgb(51, 91, 113)" d="M 43.96,121.44 C 43.97,124.04 44.06,126.65 44.35,129.23 44.51,130.53 44.68,131.79 45.22,132.99 45.61,134.28 45.75,135.58 45.91,136.88 46.21,139.48 46.41,142.09 46.44,144.7 46.43,146.01 46.43,147.32 46.36,148.63 46.28,149.93 46.24,151.25 45.9,152.53 L 45.83,152.51 C 45.92,151.87 45.92,151.22 45.91,150.57 45.92,149.92 45.9,149.27 45.89,148.62 45.85,147.32 45.82,146.02 45.75,144.72 45.64,142.13 45.58,139.52 45.37,136.94 45.24,135.65 45.13,134.34 44.79,133.12 44.28,131.92 44.13,130.55 44.01,129.27 43.81,126.66 43.81,124.04 43.89,121.44 L 43.96,121.44 Z M 43.96,121.44" />
        <path id="joe07Canvas-bezier91" stroke="none" fill="rgb(51, 91, 113)" d="M 45.06,149.07 C 43.39,155.1 41.85,161.17 40.48,167.28 39.79,170.33 39.14,173.39 38.6,176.47 38.07,179.54 37.56,182.64 37.53,185.74 37.53,186.51 37.57,187.29 37.76,187.99 37.94,188.7 38.4,189.25 39.01,189.67 40.23,190.49 41.78,190.82 43.29,191.05 46.34,191.49 49.47,191.47 52.58,191.48 54.14,191.5 55.71,191.51 57.27,191.56 58.83,191.61 60.41,191.67 61.97,191.92 62.75,192.05 63.53,192.21 64.28,192.5 65.03,192.82 65.69,193.19 66.41,193.5 67.11,193.82 67.84,194.11 68.58,194.34 68.95,194.45 69.32,194.54 69.71,194.59 70.07,194.63 70.51,194.66 70.8,194.45 L 70.86,194.49 C 70.51,194.77 70.08,194.73 69.69,194.72 69.3,194.69 68.91,194.61 68.53,194.52 67.76,194.33 67.02,194.08 66.29,193.79 65.56,193.52 64.84,193.14 64.14,192.87 63.43,192.63 62.67,192.49 61.9,192.4 58.83,192.05 55.7,192.16 52.58,192.17 49.46,192.16 46.32,192.18 43.19,191.72 41.64,191.46 40.03,191.12 38.65,190.17 37.98,189.71 37.39,188.97 37.2,188.15 36.99,187.33 36.98,186.53 36.98,185.74 37.05,182.57 37.59,179.47 38.16,176.39 38.74,173.31 39.42,170.25 40.14,167.2 41.61,161.11 43.24,155.06 44.99,149.05 L 45.06,149.07 Z M 45.06,149.07" />
        <path id="joe07Canvas-bezier92" stroke="none" fill="rgb(51, 91, 113)" d="M 113.38,147.47 C 112.86,151.07 112.87,154.75 113.37,158.35 113.5,159.25 113.66,160.14 113.86,161.02 114.08,161.89 114.3,162.8 114.45,163.71 114.75,165.52 114.92,167.35 115.04,169.17 115.28,172.83 115.37,176.49 115.25,180.14 115.09,183.79 114.92,187.45 114.31,191.06 L 114.24,191.05 C 114.46,187.41 114.52,183.77 114.56,180.13 114.59,176.48 114.66,172.84 114.49,169.2 114.4,167.39 114.27,165.57 114.01,163.78 113.88,162.88 113.68,162.01 113.48,161.11 113.29,160.21 113.14,159.3 113.03,158.39 112.61,154.75 112.7,151.06 113.31,147.45 L 113.38,147.47 Z M 113.38,147.47" />
        <path id="joe07Canvas-bezier93" stroke="none" fill="rgb(51, 91, 113)" d="M 113.91,192.92 C 110.45,192.72 106.97,192.68 103.51,192.86 100.05,193.06 96.57,193.4 93.28,194.54 91.6,195.02 89.86,195.28 88.13,195.46 86.4,195.64 84.66,195.73 82.92,195.76 79.44,195.83 75.96,195.72 72.48,195.46 L 72.27,195.44 72.28,195.23 C 72.57,189.17 73.23,183.15 74.17,177.16 74.41,175.66 74.67,174.17 74.95,172.68 L 75.82,168.23 C 76.36,165.26 76.84,162.28 77.19,159.28 77.54,156.28 77.77,153.27 77.88,150.26 77.99,147.25 77.96,144.23 77.53,141.26 77.42,140.52 77.28,139.78 77.1,139.06 76.93,138.33 76.64,137.65 76.45,136.89 76.08,135.39 75.93,133.87 75.84,132.36 75.68,129.32 75.85,126.29 76.08,123.27 L 76.15,123.28 C 76.01,126.3 75.98,129.33 76.19,132.34 76.3,133.84 76.48,135.34 76.86,136.78 77.05,137.48 77.37,138.19 77.55,138.94 77.75,139.68 77.91,140.43 78.03,141.18 78.94,147.23 78.55,153.34 77.86,159.36 77.5,162.37 77.05,165.37 76.47,168.35 L 75.56,172.8 C 75.26,174.28 74.99,175.76 74.74,177.25 73.75,183.21 73.05,189.22 72.72,195.25 L 72.52,195.02 C 75.97,195.31 79.45,195.44 82.91,195.4 86.37,195.33 89.87,195.17 93.21,194.29 96.52,193.17 100.04,192.85 103.5,192.69 106.97,192.55 110.45,192.62 113.92,192.85 L 113.91,192.92 Z M 113.91,192.92" />
        <path id="joe07Canvas-bezier94" stroke="none" fill="rgb(51, 91, 113)" d="M 81.8,163.33 C 81.79,163.67 81.67,164.02 81.44,164.3 81.22,164.58 80.86,164.77 80.47,164.8 79.7,164.85 78.92,164.19 78.91,163.31 78.89,162.93 79.04,162.48 79.32,162.17 79.62,161.85 80.03,161.66 80.49,161.69 80.89,161.7 81.31,161.96 81.52,162.28 81.74,162.61 81.81,162.99 81.8,163.33 Z M 81.73,163.33 C 81.73,162.99 81.52,162.69 81.26,162.54 80.99,162.38 80.74,162.36 80.46,162.38 80.01,162.42 79.48,162.75 79.46,163.34 79.41,163.86 79.87,164.44 80.47,164.45 80.77,164.48 81.08,164.39 81.34,164.19 81.59,163.99 81.75,163.66 81.73,163.33 Z M 81.73,163.33" />
        <path id="joe07Canvas-bezier95" stroke="none" fill="rgb(51, 91, 113)" d="M 81.8,135.68 C 81.79,136.03 81.67,136.37 81.44,136.65 81.22,136.93 80.86,137.12 80.47,137.15 79.7,137.21 78.92,136.53 78.91,135.68 78.89,135.27 79.04,134.84 79.32,134.52 79.62,134.21 80.03,134.01 80.49,134.04 80.89,134.05 81.31,134.31 81.52,134.63 81.74,134.96 81.81,135.34 81.8,135.68 Z M 81.73,135.68 C 81.73,135.34 81.52,135.05 81.26,134.89 80.99,134.74 80.74,134.71 80.46,134.73 80.01,134.76 79.48,135.12 79.46,135.68 79.41,136.22 79.87,136.79 80.47,136.81 80.77,136.83 81.08,136.75 81.34,136.55 81.59,136.35 81.75,136.02 81.73,135.68 Z M 81.73,135.68" />
    </g>
</svg>
