<?xml version="1.0" encoding="UTF-8"?>
<!DOCTYPE svg PUBLIC "-//W3C//DTD SVG 1.1//EN" "http://www.w3.org/Graphics/SVG/1.1/DTD/svg11.dtd">
<svg version="1.1" xmlns="http://www.w3.org/2000/svg" xmlns:xlink="http://www.w3.org/1999/xlink" width="131" height="378"  xml:space="preserve" id="joe02Canvas">
    <!-- Generated by PaintCode - http://www.paintcodeapp.com -->
    <g id="joe02Canvas-lines">
        <g id="joe02Canvas-group2">
            <g id="joe02Canvas-group3">
                <path id="joe02Canvas-bezier" stroke="none" fill="rgb(51, 91, 113)" d="M 80.96,134.64 L 82.53,141.12 C 83.03,143.29 83.52,145.46 83.8,147.68 83.86,148.23 83.91,148.79 83.91,149.36 83.91,149.92 83.89,150.51 83.65,151.06 83.27,152.05 83.18,153.19 83.06,154.28 82.87,156.48 82.83,158.7 82.81,160.92 82.79,165.36 82.96,169.8 83.1,174.24 83.15,176.46 83.25,178.68 83.34,180.9 83.38,182.01 83.44,183.12 83.5,184.23 83.57,185.34 83.61,186.46 83.78,187.55 L 83.72,187.56 C 83.27,185.37 83.12,183.15 82.92,180.93 82.74,178.71 82.61,176.49 82.49,174.27 82.28,169.82 82.24,165.37 82.33,160.92 82.37,158.69 82.45,156.46 82.67,154.24 82.81,153.13 82.9,152.01 83.33,150.92 83.54,150.45 83.58,149.9 83.59,149.36 83.6,148.81 83.56,148.26 83.5,147.71 83.27,145.51 82.81,143.33 82.35,141.16 L 80.9,134.65 80.96,134.64 Z M 80.96,134.64" />
                <path id="joe02Canvas-bezier2" stroke="none" fill="rgb(51, 91, 113)" d="M 117.88,178.58 C 118.03,181.06 118.25,183.54 118.69,185.98 118.89,187.21 119.31,188.36 119.68,189.56 120.05,190.75 120.36,191.98 120.45,193.25 120.56,194.52 120.43,195.84 119.89,197.04 119.63,197.64 119.27,198.19 118.83,198.68 118.41,199.16 117.88,199.58 117.39,199.94 116.37,200.66 115.34,201.4 114.17,201.91 113.59,202.16 112.95,202.36 112.29,202.32 111.62,202.26 111.05,201.88 110.61,201.44 L 110.65,201.4 C 111.15,201.76 111.71,202.06 112.3,202.04 112.89,202.03 113.46,201.81 113.99,201.53 115.06,200.96 116.06,200.22 117.02,199.46 118.02,198.73 118.84,197.87 119.35,196.79 119.87,195.72 120.03,194.5 119.97,193.28 119.91,192.07 119.64,190.86 119.31,189.67 118.97,188.48 118.56,187.28 118.39,186.03 118.03,183.56 117.89,181.07 117.82,178.58 L 117.88,178.58 Z M 117.88,178.58" />
                <path id="joe02Canvas-bezier3" stroke="none" fill="rgb(51, 91, 113)" d="M 110.19,191.36 C 110.03,192.38 109.86,193.41 109.66,194.43 109.56,194.94 109.44,195.45 109.31,195.95 109.17,196.46 109.04,196.97 108.77,197.46 108.6,197.85 108.55,198.39 108.5,198.89 108.45,199.4 108.39,199.92 108.29,200.44 108.17,200.96 108.05,201.49 107.72,201.97 107.55,202.21 107.31,202.43 107.02,202.5 106.72,202.57 106.43,202.5 106.2,202.38 L 106.22,202.32 C 106.47,202.36 106.73,202.35 106.92,202.24 107.12,202.15 107.26,201.97 107.36,201.76 107.55,201.33 107.63,200.84 107.7,200.34 107.77,199.84 107.82,199.33 107.91,198.81 108.01,198.29 108.06,197.77 108.35,197.23 108.61,196.82 108.77,196.32 108.93,195.84 109.09,195.35 109.23,194.86 109.37,194.36 109.65,193.36 109.9,192.36 110.13,191.35 L 110.19,191.36 Z M 110.19,191.36" />
                <path id="joe02Canvas-bezier4" stroke="none" fill="rgb(51, 91, 113)" d="M 117.73,194.67 C 116.63,196.14 115.51,197.58 114.3,198.98 114,199.33 113.7,199.67 113.36,200.01 113.18,200.18 112.93,200.35 112.7,200.44 112.45,200.54 112.2,200.59 111.95,200.61 111.45,200.65 110.97,200.59 110.51,200.46 110.06,200.33 109.62,200.16 109.22,199.92 L 109.24,199.86 C 110.14,200.02 111.05,200.14 111.88,200.01 112.3,199.95 112.66,199.82 112.96,199.56 113.3,199.28 113.63,198.97 113.95,198.65 114.59,198 115.21,197.33 115.83,196.65 116.45,195.99 117.07,195.31 117.69,194.63 L 117.73,194.67 Z M 117.73,194.67" />
                <path id="joe02Canvas-bezier5" stroke="none" fill="rgb(51, 91, 113)" d="M 38.33,190.69 C 37.7,194.61 37.22,198.55 36.89,202.5 36.59,206.45 36.38,210.43 36.79,214.35 36.85,214.84 36.92,215.33 37.01,215.81 37.09,216.29 37.21,216.76 37.31,217.27 37.49,218.25 37.62,219.25 37.69,220.25 37.84,222.25 37.79,224.25 37.62,226.24 37.44,228.23 37.17,230.21 36.78,232.16 36.39,234.11 35.96,236.06 35.27,237.94 L 35.22,237.91 C 35.5,236.97 35.68,235.99 35.87,235.02 36.06,234.05 36.22,233.07 36.37,232.09 36.66,230.13 36.9,228.17 37.02,226.2 37.16,224.23 37.21,222.25 37.1,220.29 37.04,219.31 36.94,218.33 36.78,217.36 36.7,216.89 36.58,216.4 36.5,215.9 36.42,215.4 36.36,214.9 36.31,214.41 35.96,210.41 36.23,206.43 36.59,202.48 37,198.52 37.56,194.59 38.27,190.68 L 38.33,190.69 Z M 38.33,190.69" />
                <path id="joe02Canvas-bezier6" stroke="none" fill="rgb(51, 91, 113)" d="M 46.09,225.55 L 40.67,234.72 C 38.85,237.75 36.96,240.8 35.09,243.76 34.32,245.3 34.04,247.07 33.9,248.81 33.76,250.56 33.77,252.33 33.81,254.09 33.87,257.63 34.17,261.18 34.13,264.74 L 34.07,264.74 C 33.77,261.2 33.37,257.67 33.21,254.11 33.14,252.33 33.13,250.54 33.3,248.75 33.49,246.98 33.8,245.16 34.66,243.53 36.63,240.53 38.53,237.58 40.41,234.56 L 46.04,225.52 46.09,225.55 Z M 46.09,225.55" />
                <path id="joe02Canvas-bezier7" stroke="none" fill="rgb(51, 91, 113)" d="M 42.53,252.11 C 40.98,255.53 40.04,259.19 39.4,262.88 L 38.48,268.43 C 38.14,270.27 37.76,272.17 36.88,273.87 36.1,275.54 35.57,277.35 35.12,279.15 34.68,280.96 34.31,282.8 34.03,284.64 33.89,285.56 33.77,286.49 33.69,287.41 33.62,288.34 33.56,289.28 33.69,290.17 33.83,291.09 34.07,291.99 34.22,292.93 34.29,293.4 34.33,293.89 34.21,294.37 34.1,294.85 33.78,295.26 33.4,295.53 L 33.36,295.49 C 33.71,295.19 33.98,294.79 34.05,294.34 34.12,293.89 34.05,293.43 33.95,292.98 33.76,292.08 33.47,291.17 33.28,290.25 33.08,289.28 33.13,288.33 33.17,287.38 33.22,286.43 33.32,285.49 33.44,284.56 33.69,282.68 34.06,280.83 34.54,279 35.03,277.18 35.6,275.37 36.45,273.66 37.33,272.03 37.73,270.19 38.1,268.36 L 39.11,262.82 C 39.82,259.13 40.85,255.48 42.47,252.09 L 42.53,252.11 Z M 42.53,252.11" />
                <path id="joe02Canvas-bezier8" stroke="none" fill="rgb(51, 91, 113)" d="M 40.73,301.67 C 40.45,301.73 40.22,301.6 39.98,301.53 L 39.28,301.26 C 38.82,301.07 38.35,300.9 37.87,300.77 36.93,300.49 35.93,300.37 34.97,300.54 34.49,300.62 34.03,300.78 33.6,301 33.39,301.11 33.15,301.24 32.91,301.33 32.79,301.38 32.66,301.42 32.52,301.45 32.45,301.47 32.37,301.48 32.28,301.47 32.19,301.46 32.04,301.4 31.98,301.27 31.87,301.01 31.97,300.88 32,300.74 32.05,300.61 32.11,300.49 32.18,300.38 32.31,300.15 32.46,299.94 32.61,299.73 32.91,299.32 33.24,298.93 33.57,298.56 34.24,297.8 34.96,297.08 35.71,296.41 36.39,295.8 36.79,294.9 37.07,293.98 37.66,292.11 37.7,290.1 37.91,288.1 L 37.97,288.11 C 38.11,290.09 38.17,292.14 37.65,294.15 37.38,295.13 36.94,296.15 36.1,296.86 35.33,297.49 34.61,298.16 33.93,298.88 33.59,299.24 33.26,299.61 32.96,300 32.81,300.19 32.66,300.39 32.54,300.59 32.48,300.69 32.42,300.79 32.38,300.89 32.33,300.98 32.32,301.11 32.33,301.09 32.27,301.06 32.35,301.1 32.46,301.08 32.56,301.06 32.67,301.03 32.78,300.99 33.01,300.9 33.22,300.8 33.45,300.69 33.92,300.46 34.42,300.31 34.93,300.24 35.95,300.1 36.98,300.28 37.93,300.59 38.41,300.75 38.87,300.94 39.33,301.14 L 40.02,301.44 C 40.24,301.53 40.49,301.65 40.71,301.61 L 40.73,301.67 Z M 40.73,301.67" />
                <path id="joe02Canvas-bezier9" stroke="none" fill="rgb(51, 91, 113)" d="M 33.5,302.91 C 34.26,306.17 34.92,309.46 35.39,312.79 35.6,314.46 35.8,316.13 35.73,317.83 35.7,318.26 35.66,318.69 35.55,319.12 35.5,319.34 35.4,319.55 35.34,319.73 35.28,319.92 35.23,320.11 35.18,320.31 34.99,321.11 34.88,321.94 34.81,322.76 34.67,324.42 34.67,326.09 34.76,327.74 34.87,329.4 35.04,331.06 35.47,332.64 35.69,333.41 35.97,334.23 36.51,334.7 36.66,334.81 36.88,335 37,335.19 37.14,335.39 37.24,335.61 37.3,335.83 37.43,336.28 37.42,336.73 37.38,337.16 37.29,338.03 37.03,338.85 36.73,339.63 L 36.49,340.22 36.43,340.36 36.4,340.42 C 36.4,340.43 36.4,340.42 36.4,340.42 36.44,340.45 36.32,340.28 36.3,340.33 36.27,340.32 36.24,340.35 36.24,340.35 36.24,340.35 36.25,340.34 36.26,340.33 36.32,340.26 36.38,340.17 36.43,340.08 L 37.13,339.03 37.18,339.06 36.58,340.17 C 36.52,340.26 36.48,340.35 36.42,340.45 36.41,340.46 36.4,340.47 36.38,340.49 36.38,340.49 36.34,340.53 36.31,340.52 36.29,340.58 36.16,340.39 36.2,340.42 36.2,340.4 36.2,340.38 36.21,340.38 L 36.23,340.29 36.28,340.14 36.47,339.54 C 36.72,338.75 36.92,337.94 36.96,337.13 36.99,336.33 36.86,335.51 36.19,335.11 35.8,334.81 35.56,334.42 35.36,334.03 35.16,333.63 35.02,333.22 34.89,332.81 34.41,331.16 34.24,329.46 34.16,327.78 34.1,326.09 34.15,324.4 34.33,322.71 34.42,321.87 34.54,321.03 34.75,320.2 34.81,320 34.87,319.79 34.94,319.59 35.02,319.37 35.1,319.2 35.15,319.01 35.26,318.63 35.31,318.22 35.34,317.81 35.43,316.16 35.27,314.49 35.09,312.83 34.71,309.51 34.12,306.2 33.44,302.92 L 33.5,302.91 Z M 33.5,302.91" />
                <path id="joe02Canvas-bezier10" stroke="none" fill="rgb(51, 91, 113)" d="M 38.97,333.56 C 39.04,336.19 38.98,338.83 38.64,341.45 38.54,342.1 38.42,342.75 38.26,343.4 38.08,344.05 37.9,344.65 37.82,345.3 37.62,346.58 37.62,347.89 37.62,349.2 37.62,350.51 37.68,351.84 37.43,353.19 37.31,353.85 37.04,354.58 36.54,355.09 L 36.38,355.28 36.32,355.34 36.33,355.32 C 36.2,355.4 36.62,355.27 36.1,354.87 36,354.86 35.98,354.87 35.93,354.89 L 35.9,354.91 C 35.89,354.91 35.9,354.91 35.91,354.9 L 35.95,354.87 36.34,354.56 C 36.61,354.36 36.88,354.17 37.16,353.98 38.29,353.26 39.5,352.67 40.8,352.33 42.09,351.99 43.46,351.9 44.75,352.17 L 44.74,352.23 C 42.12,352.05 39.59,353.01 37.49,354.48 37.23,354.67 36.97,354.85 36.72,355.05 L 36.34,355.36 36.28,355.4 36.24,355.43 C 36.22,355.44 36.25,355.43 36.2,355.45 36.14,355.48 36.12,355.49 36.02,355.49 35.49,355.08 35.91,354.94 35.79,355.02 L 35.81,354.98 C 35.86,354.91 35.88,354.9 35.91,354.86 L 36.07,354.68 C 36.5,354.24 36.71,353.69 36.85,353.07 37.11,351.83 37.1,350.51 37.14,349.2 37.17,347.88 37.2,346.55 37.43,345.24 37.53,344.58 37.75,343.92 37.93,343.31 38.1,342.68 38.23,342.05 38.34,341.4 38.76,338.82 38.9,336.18 38.91,333.56 L 38.97,333.56 Z M 38.97,333.56" />
                <path id="joe02Canvas-bezier11" stroke="none" fill="rgb(51, 91, 113)" d="M 43.53,354.21 C 44.8,354.62 46.13,354.89 47.46,354.96 48.77,355.01 50.18,354.87 51.23,354.1 51.49,353.9 51.71,353.67 51.9,353.41 52.09,353.13 52.33,352.86 52.58,352.63 53.1,352.15 53.69,351.8 54.3,351.49 55.51,350.87 56.81,350.44 57.8,349.63 58.3,349.23 58.67,348.71 58.84,348.11 59.02,347.52 59.01,346.87 58.92,346.23 58.7,344.93 58.41,343.62 58.09,342.32 57.8,341.01 57.44,339.67 57.47,338.28 57.49,336.89 57.86,335.55 58.39,334.31 L 58.45,334.33 C 58.08,335.63 57.82,336.95 57.89,338.27 57.95,339.58 58.32,340.87 58.67,342.17 59.02,343.47 59.32,344.79 59.51,346.15 59.59,346.85 59.58,347.58 59.36,348.27 59.14,348.97 58.67,349.58 58.11,350.01 56.98,350.87 55.66,351.26 54.47,351.84 53.88,352.13 53.3,352.46 52.81,352.88 52.57,353.1 52.36,353.33 52.16,353.6 51.95,353.89 51.69,354.13 51.41,354.34 50.23,355.15 48.78,355.23 47.45,355.14 46.1,355.03 44.78,354.72 43.51,354.27 L 43.53,354.21 Z M 43.53,354.21" />
                <path id="joe02Canvas-bezier12" stroke="none" fill="rgb(51, 91, 113)" d="M 59.25,331.75 C 59.36,331.51 59.2,331.24 59.05,331.03 58.89,330.81 58.7,330.61 58.49,330.42 58.28,330.23 58.03,330.09 57.85,329.87 57.67,329.65 57.5,329.42 57.38,329.11 L 57.42,329.07 C 57.75,329.12 58.01,329.26 58.26,329.43 58.51,329.59 58.67,329.86 58.85,330.1 59.02,330.34 59.19,330.6 59.31,330.88 59.41,331.16 59.53,331.53 59.29,331.79 L 59.25,331.75 Z M 59.25,331.75" />
                <path id="joe02Canvas-bezier13" stroke="none" fill="rgb(51, 91, 113)" d="M 51.37,331.11 C 52.4,329.92 53.44,328.73 54.49,327.56 55.54,326.39 56.59,325.22 57.73,324.1 57.87,323.96 58.01,323.82 58.17,323.69 58.32,323.56 58.36,323.48 58.41,323.33 58.49,323.03 58.45,322.65 58.39,322.29 58.24,321.55 58.01,320.8 57.77,320.06 57.34,318.56 56.76,317.04 56.73,315.43 L 56.79,315.42 C 57.15,316.95 57.8,318.38 58.34,319.87 58.6,320.62 58.85,321.37 58.97,322.19 59.02,322.6 59.07,323.03 58.92,323.49 58.86,323.72 58.66,323.98 58.49,324.09 58.35,324.2 58.2,324.33 58.05,324.45 56.9,325.51 55.8,326.64 54.7,327.76 53.6,328.88 52.51,330.01 51.42,331.15 L 51.37,331.11 Z M 51.37,331.11" />
                <path id="joe02Canvas-bezier14" stroke="none" fill="rgb(51, 91, 113)" d="M 58.71,316.72 C 57.66,314.97 57.27,312.88 57.39,310.86 57.45,309.85 57.64,308.84 57.94,307.87 58.09,307.38 58.28,306.91 58.45,306.43 58.61,305.96 58.76,305.48 58.88,304.99 59.35,303.03 59.57,301.01 59.7,299 59.82,296.99 59.83,294.96 59.75,292.95 59.56,288.91 59.1,284.9 57.58,281.08 57.4,280.06 57.42,279.03 57.48,278.01 57.54,276.99 57.66,275.98 57.81,274.97 58.12,272.96 58.53,270.98 58.99,269 59.91,265.05 61,261.15 62.1,257.26 62.66,255.31 63.23,253.37 63.75,251.42 63.88,250.93 63.98,250.45 64.13,249.95 64.28,249.45 64.45,248.96 64.63,248.49 65,247.53 65.42,246.6 65.87,245.69 67.69,242.05 69.79,238.59 71.82,235.1 72.84,233.35 73.85,231.6 74.8,229.82 75.28,228.93 75.75,228.04 76.17,227.12 76.57,226.2 76.98,225.26 77.1,224.26 L 77.16,224.27 C 77.07,225.29 76.7,226.25 76.32,227.19 75.94,228.12 75.5,229.04 75.05,229.95 74.13,231.75 73.14,233.52 72.16,235.29 70.19,238.82 68.15,242.32 66.41,245.95 65.97,246.86 65.56,247.77 65.19,248.7 65.01,249.17 64.85,249.64 64.71,250.11 64.57,250.58 64.46,251.08 64.33,251.57 63.8,253.54 63.23,255.48 62.67,257.42 61.53,261.3 60.41,265.19 59.46,269.11 58.99,271.08 58.56,273.05 58.24,275.04 58.09,276.04 57.96,277.03 57.89,278.03 57.83,279.03 57.81,280.04 57.97,281.01 58.05,281.51 58.21,281.93 58.42,282.42 58.61,282.9 58.76,283.39 58.89,283.88 59.16,284.87 59.35,285.87 59.5,286.87 59.81,288.88 59.98,290.91 60.05,292.93 60.11,294.96 60.09,296.99 59.94,299.02 59.79,301.04 59.55,303.06 59.05,305.03 58.92,305.52 58.78,306.01 58.61,306.49 58.43,306.97 58.24,307.43 58.09,307.91 57.78,308.87 57.58,309.87 57.51,310.87 57.37,312.87 57.74,314.95 58.76,316.69 L 58.71,316.72 Z M 58.71,316.72" />
                <path id="joe02Canvas-bezier15" stroke="none" fill="rgb(51, 91, 113)" d="M 105.24,186.72 C 105.53,190.31 105.52,193.91 105.35,197.5 105.17,201.09 104.79,204.67 104.19,208.22 103.9,210 103.49,211.75 103.14,213.51 102.79,215.27 102.49,217.04 102.23,218.81 101.72,222.36 101.38,225.93 101.27,229.51 101.19,233.09 101.29,236.69 101.99,240.18 102.16,241.05 102.38,241.9 102.68,242.74 102.98,243.63 103.11,244.54 103.21,245.44 103.41,247.25 103.43,249.06 103.42,250.86 103.35,254.46 103.09,258.05 102.71,261.63 102.52,263.42 102.3,265.2 102.05,266.98 101.92,267.87 101.77,268.76 101.62,269.65 101.45,270.53 101.31,271.42 101.02,272.28 L 100.97,272.26 C 101.21,271.4 101.32,270.51 101.45,269.62 101.57,268.73 101.68,267.84 101.78,266.95 101.98,265.17 102.15,263.38 102.29,261.59 102.58,258.02 102.81,254.43 102.82,250.85 102.83,249.07 102.8,247.27 102.62,245.51 102.52,244.63 102.38,243.75 102.11,242.93 101.8,242.08 101.58,241.19 101.4,240.3 100.73,236.72 100.67,233.09 100.79,229.5 100.92,225.89 101.3,222.31 101.84,218.75 102.12,216.97 102.44,215.2 102.8,213.44 103.17,211.68 103.59,209.94 103.89,208.17 104.53,204.64 104.95,201.07 105.17,197.49 105.38,193.91 105.43,190.31 105.18,186.73 L 105.24,186.72 Z M 105.24,186.72" />
                <path id="joe02Canvas-bezier16" stroke="none" fill="rgb(51, 91, 113)" d="M 99.83,266.53 C 99.37,268.15 98.99,269.79 98.68,271.44 98.37,273.09 98.11,274.76 98.16,276.41 98.18,276.82 98.23,277.22 98.33,277.6 98.42,277.98 98.58,278.34 98.83,278.54 98.99,278.67 99.16,278.82 99.32,278.99 99.47,279.16 99.61,279.34 99.74,279.52 99.98,279.9 100.17,280.32 100.31,280.74 100.78,282.47 100.48,284.26 99.83,285.81 L 99.77,285.8 C 100.09,284.16 100.26,282.44 99.73,280.93 99.48,280.17 99.05,279.51 98.44,278.99 98.05,278.63 97.9,278.16 97.8,277.73 97.71,277.29 97.68,276.85 97.68,276.42 97.69,274.69 98.02,273.03 98.38,271.38 98.77,269.74 99.24,268.11 99.77,266.52 L 99.83,266.53 Z M 99.83,266.53" />
                <path id="joe02Canvas-bezier17" stroke="none" fill="rgb(51, 91, 113)" d="M 97.28,284.28 C 97.07,285.87 97.35,287.5 97.98,288.94 98.3,289.67 98.71,290.35 99.2,290.96 99.7,291.59 100.21,292.23 100.61,292.95 101.03,293.67 101.31,294.5 101.36,295.35 101.41,296.2 101.25,297.03 101.03,297.82 100.55,299.39 99.9,300.86 99.13,302.29 L 99.08,302.27 C 99.52,300.71 100.09,299.2 100.45,297.67 100.64,296.9 100.77,296.13 100.76,295.37 100.76,294.62 100.55,293.87 100.19,293.18 99.83,292.49 99.37,291.84 98.89,291.2 98.4,290.54 98,289.82 97.7,289.06 97.13,287.53 96.93,285.86 97.22,284.27 L 97.28,284.28 Z M 97.28,284.28" />
                <path id="joe02Canvas-bezier18" stroke="none" fill="rgb(51, 91, 113)" d="M 100.32,303.82 C 99.14,306.07 98.45,308.62 98.57,311.14 98.62,312.41 98.95,313.61 99.46,314.79 99.9,316.03 100.04,317.35 100.01,318.64 99.99,321.24 99.35,323.77 99.55,326.24 99.6,326.85 99.74,327.45 99.97,328.01 100.19,328.58 100.58,329.05 100.92,329.62 101.26,330.17 101.58,330.75 101.77,331.38 101.86,331.7 101.93,332.04 101.84,332.39 101.76,332.74 101.39,332.97 101.06,332.95 L 101.06,332.89 C 101.37,332.86 101.63,332.63 101.67,332.35 101.71,332.06 101.63,331.75 101.51,331.47 101.29,330.9 100.94,330.37 100.57,329.85 100.21,329.36 99.77,328.85 99.49,328.23 99.21,327.62 99.04,326.96 98.95,326.31 98.79,324.99 98.94,323.68 99.11,322.42 99.28,321.15 99.48,319.89 99.53,318.63 99.58,317.38 99.48,316.11 99.09,314.92 98.88,314.34 98.63,313.72 98.5,313.08 98.36,312.45 98.28,311.8 98.27,311.15 98.22,308.55 99.01,306.02 100.27,303.79 L 100.32,303.82 Z M 100.32,303.82" />
                <path id="joe02Canvas-bezier19" stroke="none" fill="rgb(51, 91, 113)" d="M 99.11,332.95 C 97.2,333.47 95.35,334.25 93.64,335.23 92.79,335.73 91.97,336.28 91.2,336.9 90.46,337.55 89.6,338.14 88.72,338.61 86.94,339.57 85.03,340.28 83.06,340.68 82.07,340.87 81.07,341.01 80.06,341.03 79.55,341.04 79.05,341.03 78.54,340.96 78.05,340.87 77.52,340.77 77.12,340.45 L 77.15,340.4 C 77.58,340.63 78.08,340.67 78.57,340.69 79.06,340.7 79.55,340.67 80.03,340.61 81.01,340.5 81.98,340.33 82.93,340.09 84.83,339.62 86.73,339.06 88.49,338.19 89.38,337.74 90.19,337.23 90.96,336.59 91.76,335.98 92.61,335.44 93.5,334.97 95.27,334.04 97.16,333.33 99.1,332.89 L 99.11,332.95 Z M 99.11,332.95" />
                <path id="joe02Canvas-bezier20" stroke="none" fill="rgb(51, 91, 113)" d="M 77.11,338.55 C 76.51,337.23 76.05,335.84 75.77,334.41 75.5,332.98 75.4,331.48 75.82,330.02 75.93,329.66 76.07,329.3 76.26,328.97 L 76.8,328.02 C 77.16,327.39 77.57,326.79 77.95,326.19 78.34,325.6 78.66,324.99 78.8,324.32 78.94,323.65 78.92,322.92 78.89,322.2 L 78.95,322.19 C 79.15,322.89 79.28,323.62 79.22,324.38 79.15,325.15 78.81,325.87 78.46,326.5 78.09,327.14 77.7,327.74 77.3,328.34 L 76.72,329.24 C 76.54,329.53 76.39,329.84 76.28,330.17 75.83,331.49 75.86,332.95 76.06,334.36 76.27,335.78 76.64,337.18 77.16,338.52 L 77.11,338.55 Z M 77.11,338.55" />
                <path id="joe02Canvas-bezier21" stroke="none" fill="rgb(51, 91, 113)" d="M 77.11,324.5 C 76.49,323.09 75.94,321.65 75.46,320.19 75.01,318.71 74.59,317.21 74.49,315.63 74.47,315.24 74.47,314.84 74.54,314.43 74.57,314.23 74.62,314.02 74.7,313.82 74.77,313.63 74.85,313.45 74.93,313.27 75.27,312.54 75.75,311.9 76.17,311.29 77.08,310.1 77.12,308.54 77.11,307 L 77.17,307 C 77.34,307.75 77.44,308.53 77.4,309.32 77.38,310.12 77.09,310.93 76.68,311.61 75.85,312.94 74.84,314.08 74.98,315.62 75.01,317.12 75.36,318.63 75.75,320.1 76.15,321.58 76.62,323.04 77.16,324.48 L 77.11,324.5 Z M 77.11,324.5" />
                <path id="joe02Canvas-bezier22" stroke="none" fill="rgb(51, 91, 113)" d="M 75.7,309.82 C 74.77,306.26 73.93,302.69 73.18,299.08 72.47,295.48 71.82,291.85 71.53,288.17 71.47,287.25 71.42,286.32 71.44,285.39 71.46,284.45 71.57,283.53 71.71,282.61 71.99,280.78 72.45,278.98 72.96,277.21 73.48,275.45 74.05,273.7 74.47,271.93 74.68,271.05 74.85,270.15 74.91,269.24 74.98,268.34 74.94,267.42 74.7,266.53 L 74.76,266.52 C 75.06,267.39 75.18,268.32 75.18,269.25 75.17,270.18 75.05,271.11 74.88,272.02 74.54,273.84 74,275.6 73.54,277.38 72.59,280.91 71.69,284.47 72.02,288.13 72.24,291.78 72.82,295.42 73.48,299.03 74.14,302.64 74.9,306.23 75.76,309.8 L 75.7,309.82 Z M 75.7,309.82" />
                <path id="joe02Canvas-bezier23" stroke="none" fill="rgb(51, 91, 113)" d="M 71.67,274.57 C 71.8,271.96 71.87,269.35 71.91,266.74 71.96,264.14 71.96,261.53 71.91,258.92 71.84,256.32 71.69,253.72 71.49,251.13 71.4,249.83 71.26,248.54 71.04,247.27 70.93,246.63 70.79,246 70.6,245.39 70.41,244.78 70.17,244.16 69.73,243.69 L 69.77,243.65 C 70.3,244.07 70.6,244.69 70.86,245.29 71.11,245.91 71.29,246.54 71.45,247.18 71.76,248.47 71.94,249.77 72.09,251.07 72.37,253.68 72.39,256.3 72.39,258.92 72.38,264.15 72.14,269.37 71.73,274.57 L 71.67,274.57 Z M 71.67,274.57" />
                <path id="joe02Canvas-bezier24" stroke="none" fill="rgb(51, 91, 113)" d="M 49.93,194.48 C 48.35,195.56 46.61,196.43 44.81,197.13 43.92,197.48 43.01,197.83 42.07,198.04 41.12,198.25 40.17,198.39 39.2,198.41 L 39.18,198.35 C 40.09,198.01 41.01,197.74 41.91,197.46 42.82,197.17 43.75,196.96 44.65,196.67 46.46,196.09 48.23,195.36 49.9,194.43 L 49.93,194.48 Z M 49.93,194.48" />
                <path id="joe02Canvas-bezier25" stroke="none" fill="rgb(51, 91, 113)" d="M 39.12,355.07 C 39.11,357.39 38.8,359.7 38.87,362.01 38.9,362.58 38.93,363.17 39.1,363.69 39.14,363.82 39.22,363.93 39.28,364.08 39.34,364.23 39.37,364.37 39.4,364.52 39.45,364.82 39.47,365.11 39.47,365.41 39.47,366.57 39.33,367.74 39.67,368.81 39.83,369.35 40.13,369.82 40.55,370.18 41,370.59 41.35,371.05 41.71,371.51 42.43,372.42 43.14,373.32 43.96,374.11 44.78,374.91 45.71,375.58 46.73,376.08 47.74,376.57 48.85,376.88 49.97,377.02 51.09,377.17 52.23,377.1 53.38,377.03 54.53,376.96 55.67,376.86 56.8,376.67 57.92,376.49 59.03,376.22 60.02,375.73 61.01,375.25 61.84,374.47 62.23,373.46 62.64,372.45 62.68,371.29 62.56,370.17 62.44,369.05 62.17,367.92 61.83,366.84 61.47,365.75 61.04,364.68 60.52,363.65 60.02,362.62 59.44,361.61 58.72,360.71 L 58.76,360.67 C 60.31,362.41 61.4,364.51 62.22,366.7 62.64,367.8 62.91,368.94 63.08,370.11 63.22,371.28 63.23,372.52 62.79,373.68 62.35,374.85 61.38,375.77 60.3,376.29 59.21,376.83 58.04,377.08 56.89,377.26 55.73,377.43 54.57,377.52 53.41,377.57 52.26,377.62 51.07,377.67 49.91,377.5 48.74,377.34 47.59,377 46.53,376.47 45.48,375.94 44.52,375.22 43.69,374.4 42.85,373.57 42.14,372.64 41.44,371.72 41.09,371.27 40.74,370.81 40.34,370.42 39.88,370.03 39.54,369.48 39.38,368.9 39.04,367.74 39.21,366.55 39.23,365.41 39.23,365.12 39.22,364.83 39.18,364.56 39.16,364.43 39.13,364.28 39.08,364.17 39.03,364.04 38.95,363.91 38.9,363.76 38.72,363.18 38.71,362.59 38.69,362.01 38.66,359.68 39.01,357.38 39.06,355.07 L 39.12,355.07 Z M 39.12,355.07" />
                <path id="joe02Canvas-bezier26" stroke="none" fill="rgb(51, 91, 113)" d="M 56.1,355.06 C 56.25,354.52 56.31,353.93 56.12,353.49 56.03,353.26 55.84,353.16 55.69,353 55.52,352.84 55.31,352.7 55.06,352.48 L 55.07,352.42 C 55.38,352.31 55.72,352.34 56.02,352.5 56.34,352.65 56.53,353.02 56.58,353.35 56.71,354.02 56.46,354.6 56.15,355.08 L 56.1,355.06 Z M 56.1,355.06" />
                <path id="joe02Canvas-bezier27" stroke="none" fill="rgb(51, 91, 113)" d="M 55.38,355.2 C 54.66,355.51 53.91,355.64 53.17,355.85 L 50.94,356.39 46.47,357.41 46.45,357.2 56.42,357.38 C 56.52,357.38 56.6,357.47 56.6,357.57 56.6,357.65 56.53,357.72 56.45,357.74 L 47,359.58 46.96,359.11 C 50.27,359.09 53.58,359.04 56.89,359.05 57.05,359.05 57.19,359.18 57.19,359.35 57.19,359.49 57.09,359.61 56.95,359.64 L 52.21,360.67 47.46,361.64 47.42,361.14 C 49.09,361.27 50.75,361.43 52.41,361.58 54.08,361.72 55.74,361.9 57.4,362.06 L 57.4,362.13 C 55.73,362.05 54.06,362 52.39,361.91 50.72,361.82 49.05,361.75 47.39,361.64 47.25,361.63 47.14,361.52 47.15,361.38 47.16,361.26 47.24,361.17 47.34,361.15 L 47.35,361.15 52.08,360.08 56.83,359.06 56.89,359.65 C 53.58,359.66 50.27,359.61 46.96,359.59 46.82,359.59 46.72,359.48 46.72,359.35 46.72,359.24 46.8,359.14 46.91,359.12 L 56.38,357.39 56.41,357.74 46.44,357.41 C 46.39,357.41 46.34,357.36 46.34,357.31 46.34,357.26 46.38,357.21 46.43,357.2 L 50.91,356.25 53.15,355.75 C 53.88,355.57 54.66,355.43 55.34,355.15 L 55.38,355.2 Z M 55.38,355.2" />
                <path id="joe02Canvas-bezier28" stroke="none" fill="rgb(51, 91, 113)" d="M 77.99,342.02 C 77.77,343.66 77.6,345.31 77.51,346.96 77.48,347.78 77.45,348.61 77.53,349.43 77.57,349.83 77.61,350.26 77.81,350.59 77.86,350.67 77.92,350.73 77.99,350.75 78.09,350.77 78.18,350.78 78.28,350.79 78.48,350.8 78.69,350.8 78.89,350.8 82.19,350.67 85.48,350.31 88.78,350.21 89.61,350.19 90.44,350.18 91.27,350.21 92.1,350.26 92.94,350.28 93.77,350.57 94.5,350.96 95.29,351.09 96.1,351.25 96.91,351.39 97.73,351.5 98.54,351.6 101.82,351.98 105.11,352.22 108.4,352.44 111.69,352.64 115,352.84 118.28,353 119.92,353.06 121.57,353.04 123.2,352.9 124.82,352.75 126.46,352.51 127.94,351.91 128.66,351.62 129.37,351.2 129.76,350.58 129.95,350.27 130.03,349.92 130.02,349.54 130.01,349.13 130.01,348.72 129.98,348.31 129.93,347.51 129.79,346.71 129.37,346.07 128.95,345.41 128.29,344.94 127.57,344.61 126.1,343.95 124.44,343.7 122.82,343.53 121.18,343.36 119.53,343.31 117.88,343.29 L 117.88,343.23 C 119.53,343.17 121.18,343.16 122.84,343.26 124.49,343.38 126.16,343.57 127.74,344.22 128.52,344.55 129.28,345.05 129.77,345.8 130.27,346.55 130.44,347.44 130.5,348.28 130.54,348.7 130.55,349.12 130.56,349.53 130.59,349.98 130.48,350.47 130.24,350.87 129.75,351.68 128.95,352.13 128.17,352.47 126.58,353.12 124.9,353.35 123.25,353.5 121.59,353.64 119.92,353.66 118.26,353.6 114.95,353.4 111.67,353.16 108.37,352.92 105.07,352.67 101.78,352.41 98.5,351.99 97.67,351.88 96.85,351.76 96.04,351.61 95.63,351.53 95.22,351.45 94.82,351.34 94.61,351.29 94.41,351.23 94.21,351.15 94,351.08 93.8,350.96 93.64,350.89 92.91,350.63 92.07,350.58 91.26,350.54 90.44,350.5 89.61,350.5 88.79,350.52 85.49,350.57 82.21,350.89 78.9,350.98 78.69,350.98 78.48,350.98 78.27,350.96 78.17,350.95 78.05,350.94 77.95,350.91 77.82,350.87 77.73,350.78 77.67,350.68 77.45,350.28 77.42,349.86 77.38,349.44 77.31,348.61 77.35,347.78 77.39,346.95 77.5,345.3 77.69,343.65 77.93,342.01 L 77.99,342.02 Z M 77.99,342.02" />
                <path id="joe02Canvas-bezier29" stroke="none" fill="rgb(51, 91, 113)" d="M 115.41,342.05 L 109.32,344.46 C 109.27,344.48 109.21,344.46 109.19,344.4 109.18,344.37 109.19,344.33 109.21,344.31 L 111.02,341.93 111.93,340.74 112.15,340.45 112.2,340.37 112.2,340.36 112.2,340.36 C 112.2,340.36 112.21,340.35 112.2,340.38 112.14,340.35 112.22,340.63 112.36,340.58 112.42,340.56 112.41,340.56 112.41,340.56 L 112.41,340.56 112.4,340.57 112.35,340.59 112.18,340.67 111.5,340.97 106.02,343.36 C 105.92,343.41 105.79,343.36 105.75,343.25 105.71,343.17 105.74,343.07 105.8,343.01 L 105.81,343.01 110.5,338.85 110.76,339.3 C 108.36,340.21 105.97,341.13 103.56,342 103.4,342.06 103.23,341.98 103.17,341.82 103.13,341.7 103.16,341.56 103.25,341.48 104.65,340.21 106.08,338.97 107.5,337.72 L 107.74,338.13 C 106.59,338.54 105.43,338.92 104.28,339.31 103.12,339.71 101.95,340.07 100.79,340.46 L 100.77,340.4 C 101.91,339.94 103.03,339.46 104.17,339.01 105.3,338.57 106.44,338.11 107.58,337.67 107.7,337.62 107.84,337.69 107.89,337.81 107.93,337.91 107.9,338.01 107.83,338.08 L 107.82,338.08 C 106.44,339.37 105.07,340.67 103.67,341.94 L 103.35,341.42 C 105.75,340.52 108.17,339.67 110.58,338.8 L 110.58,338.8 C 110.72,338.75 110.87,338.82 110.92,338.96 110.95,339.07 110.92,339.18 110.84,339.25 L 106.08,343.32 105.86,342.98 111.37,340.68 112.06,340.39 112.23,340.31 112.26,340.3 112.26,340.3 112.27,340.29 C 112.27,340.3 112.26,340.29 112.32,340.28 112.46,340.24 112.54,340.51 112.48,340.48 L 112.47,340.51 112.47,340.52 112.45,340.54 112.39,340.63 112.16,340.92 111.23,342.1 109.36,344.43 109.25,344.27 115.39,341.99 115.41,342.05 Z M 115.41,342.05" />
                <path id="joe02Canvas-bezier30" stroke="none" fill="rgb(51, 91, 113)" d="M 104.86,335.89 C 104.79,335.43 104.74,334.96 104.62,334.52 104.51,334.08 104.3,333.66 103.93,333.48 103.57,333.28 103.11,333.31 102.68,333.39 102.24,333.48 101.82,333.63 101.39,333.8 L 100.09,334.33 C 99.67,334.5 99.21,334.64 98.88,334.83 98.8,334.88 98.74,334.92 98.72,334.95 98.71,334.97 98.7,335.01 98.71,335.09 98.74,335.25 98.86,335.46 98.96,335.65 99.19,336.05 99.45,336.45 99.66,336.87 L 99.62,336.9 C 99.26,336.59 98.93,336.26 98.62,335.9 98.46,335.71 98.31,335.52 98.2,335.24 98.15,335.1 98.13,334.89 98.21,334.7 98.3,334.52 98.43,334.41 98.55,334.33 99.01,334.03 99.45,333.91 99.9,333.76 L 101.23,333.35 C 101.67,333.2 102.14,333.06 102.62,333 103.09,332.94 103.63,332.93 104.08,333.21 104.55,333.5 104.72,334.02 104.8,334.48 104.88,334.95 104.89,335.42 104.92,335.88 L 104.86,335.89 Z M 104.86,335.89" />
                <path id="joe02Canvas-bezier31" stroke="none" fill="rgb(51, 91, 113)" d="M 84.85,341.11 C 85.97,341.85 87.21,342.42 88.51,342.64 89.16,342.74 89.82,342.74 90.43,342.56 91.04,342.38 91.58,342.01 91.99,341.53 92.19,341.29 92.37,341.02 92.52,340.74 92.67,340.44 92.85,340.13 93.03,339.84 93.39,339.26 93.82,338.71 94.33,338.22 94.84,337.75 95.41,337.33 96.07,337.06 96.71,336.8 97.44,336.66 98.12,336.86 L 98.1,336.92 C 97.44,336.9 96.81,337.13 96.25,337.44 95.69,337.76 95.19,338.17 94.75,338.65 94.3,339.12 93.9,339.64 93.53,340.17 93.34,340.45 93.16,340.72 92.99,341.01 92.8,341.31 92.59,341.59 92.35,341.85 91.86,342.38 91.22,342.77 90.53,342.94 89.84,343.11 89.13,343.07 88.46,342.93 87.11,342.63 85.9,341.96 84.82,341.16 L 84.85,341.11 Z M 84.85,341.11" />
                <path id="joe02Canvas-bezier32" stroke="none" fill="rgb(51, 91, 113)" d="M 86.4,156.63 C 86.39,156.93 86.36,157.23 86.27,157.53 86.19,157.8 86.03,158.17 85.59,158.23 85.51,158.23 85.39,158.21 85.3,158.16 85.22,158.12 85.14,158.06 85.08,158 84.96,157.87 84.87,157.72 84.8,157.57 84.66,157.26 84.6,156.95 84.59,156.61 84.58,156.31 84.6,155.96 84.71,155.63 84.78,155.47 84.86,155.3 84.99,155.15 85.12,155 85.35,154.86 85.61,154.87 85.71,154.88 85.68,154.87 85.78,154.9 85.86,154.92 85.91,154.95 85.96,154.98 86.05,155.04 86.12,155.12 86.18,155.2 86.29,155.36 86.34,155.53 86.37,155.69 86.43,156.02 86.41,156.33 86.4,156.63 Z M 86.34,156.63 C 86.33,156.33 86.23,156.04 86.07,155.81 85.92,155.58 85.67,155.43 85.61,155.47 85.54,155.48 85.37,155.63 85.27,155.86 85.15,156.09 85.09,156.34 85.07,156.63 85.06,156.89 85.08,157.17 85.16,157.42 85.24,157.67 85.4,157.91 85.59,157.92 85.79,157.96 86.02,157.72 86.15,157.48 86.29,157.22 86.35,156.92 86.34,156.63 Z M 86.34,156.63" />
                <path id="joe02Canvas-bezier33" stroke="none" fill="rgb(51, 91, 113)" d="M 40.97,164.43 C 40.94,166.74 40.88,169.05 40.79,171.36 40.69,173.67 40.56,175.98 40.34,178.28 40.23,179.44 40.09,180.59 39.86,181.73 39.74,182.3 39.62,182.88 39.33,183.42 39.05,183.89 39.02,184.45 39.11,184.99 39.31,186.09 39.89,187.11 40.51,188.06 41.15,189 41.87,189.9 42.65,190.73 L 42.58,190.69 C 45.84,191.96 49.23,192.95 52.66,193.73 56.08,194.5 59.56,195.06 63.05,195.35 66.54,195.61 70.07,195.65 73.55,195.25 77.03,194.86 80.48,194.06 83.74,192.72 L 83.77,192.78 C 80.57,194.29 77.12,195.23 73.61,195.72 70.1,196.19 66.53,196.25 63,195.95 59.47,195.68 55.97,195.08 52.54,194.25 49.1,193.41 45.71,192.39 42.42,191.06 L 42.38,191.05 42.36,191.01 C 41.56,190.15 40.84,189.24 40.2,188.26 39.58,187.28 38.99,186.24 38.78,185.05 38.69,184.46 38.73,183.8 39.05,183.27 39.32,182.79 39.45,182.22 39.57,181.67 39.81,180.55 39.96,179.4 40.09,178.26 40.35,175.97 40.5,173.66 40.63,171.35 40.76,169.05 40.85,166.74 40.91,164.43 L 40.97,164.43 Z M 40.97,164.43" />
                <path id="joe02Canvas-bezier34" stroke="none" fill="rgb(51, 91, 113)" d="M 86.37,192.06 C 88.37,191.89 90.37,191.63 92.35,191.31 94.33,191 96.29,190.61 98.23,190.11 100.17,189.6 102.06,188.96 103.89,188.2 105.71,187.44 107.5,186.49 108.79,184.93 L 108.84,184.97 C 108.34,185.86 107.59,186.59 106.77,187.21 105.95,187.83 105.05,188.32 104.13,188.76 102.28,189.61 100.31,190.13 98.34,190.58 94.4,191.46 90.39,191.93 86.38,192.12 L 86.37,192.06 Z M 86.37,192.06" />
            </g>
            <path id="joe02Canvas-bezier35" stroke="none" fill="rgb(51, 91, 113)" d="M 93.74,14.79 C 93.44,15.3 92.93,15.75 92.3,15.8 91.68,15.87 91.1,15.67 90.53,15.53 89.96,15.38 89.36,15.26 88.84,15.46 88.58,15.56 88.37,15.74 88.17,15.95 87.96,16.18 87.73,16.38 87.46,16.55 86.92,16.88 86.3,17.01 85.72,17.12 85.14,17.24 84.58,17.37 84.04,17.58 82.95,18 81.99,18.68 81.09,19.45 80.17,20.21 79.24,20.97 78.15,21.56 77.6,21.85 77,22.09 76.35,22.13 75.69,22.18 75.03,22 74.47,21.69 73.92,21.39 73.44,20.94 73.02,20.57 72.59,20.22 72.08,19.95 71.54,19.79 70.46,19.47 69.25,19.81 68.26,20.44 L 68.22,20.39 C 68.68,20 69.21,19.69 69.79,19.5 70.38,19.31 71.02,19.26 71.64,19.38 72.26,19.5 72.83,19.79 73.34,20.17 73.83,20.55 74.25,20.91 74.75,21.16 75.24,21.42 75.77,21.55 76.3,21.51 76.84,21.47 77.37,21.28 77.88,21.03 78.91,20.52 79.86,19.8 80.79,19.07 81.72,18.32 82.75,17.62 83.9,17.21 84.48,17.01 85.08,16.88 85.66,16.78 86.25,16.68 86.82,16.58 87.31,16.29 87.55,16.15 87.78,15.97 87.98,15.76 88.19,15.54 88.46,15.34 88.76,15.24 89.38,15.02 90.01,15.19 90.58,15.35 91.14,15.52 91.71,15.73 92.29,15.68 92.88,15.65 93.37,15.25 93.69,14.76 L 93.74,14.79 Z M 93.74,14.79" />
            <path id="joe02Canvas-bezier36" stroke="none" fill="rgb(51, 91, 113)" d="M 67.59,22.54 C 67.42,22.69 67.26,22.88 67.27,23.1 67.28,23.32 67.44,23.5 67.61,23.65 67.94,23.96 68.34,24.21 68.7,24.51 69.05,24.81 69.44,25.2 69.46,25.74 69.47,26.01 69.39,26.26 69.26,26.48 69.13,26.71 68.99,26.86 68.9,27.07 68.52,27.87 68.71,28.81 68.89,29.72 68.97,30.18 69.08,30.64 69.04,31.17 69.02,31.42 68.94,31.71 68.75,31.93 68.56,32.16 68.3,32.29 68.06,32.38 67.81,32.46 67.56,32.5 67.32,32.52 67.08,32.54 66.9,32.57 66.72,32.65 66.38,32.79 66.21,33.12 66.17,33.54 66.13,33.95 66.19,34.4 66.27,34.85 L 66.51,36.23 C 66.55,36.7 66.65,37.19 66.47,37.75 66.39,38.04 66.08,38.31 65.78,38.34 65.5,38.4 65.22,38.33 65.01,38.29 64.57,38.2 64.11,38.14 63.67,38.18 63.45,38.19 63.24,38.24 63.07,38.37 62.99,38.43 62.92,38.51 62.88,38.61 L 62.81,38.77 C 62.79,38.8 62.77,38.85 62.7,38.85 62.66,38.84 62.64,38.82 62.61,38.8 L 62.65,38.75 C 62.67,38.76 62.7,38.78 62.71,38.77 62.71,38.78 62.71,38.77 62.72,38.74 L 62.76,38.57 C 62.8,38.45 62.86,38.33 62.96,38.24 63.14,38.05 63.39,37.96 63.63,37.91 64.11,37.81 64.6,37.83 65.07,37.87 65.31,37.9 65.51,37.92 65.68,37.87 65.85,37.83 65.93,37.74 65.98,37.58 66.08,37.24 66,36.76 65.91,36.33 65.76,35.42 65.48,34.5 65.58,33.46 65.62,33.21 65.7,32.93 65.85,32.69 66.01,32.44 66.26,32.25 66.52,32.15 66.77,32.05 67.06,32.02 67.28,32.01 67.5,32 67.72,31.97 67.91,31.92 68.32,31.8 68.57,31.54 68.61,31.12 68.66,30.71 68.57,30.24 68.5,29.79 68.36,28.88 68.17,27.85 68.63,26.93 68.74,26.7 68.92,26.51 69.03,26.34 69.15,26.16 69.22,25.95 69.22,25.75 69.23,25.33 68.91,24.95 68.58,24.65 68.25,24.34 67.86,24.07 67.52,23.74 67.36,23.57 67.19,23.37 67.18,23.1 67.18,22.83 67.38,22.64 67.55,22.5 L 67.59,22.54 Z M 67.59,22.54" />
            <path id="joe02Canvas-bezier37" stroke="none" fill="rgb(51, 91, 113)" d="M 59.3,35.27 C 58.73,35.26 58.14,35.32 57.65,35.56 57.15,35.78 56.87,36.24 56.82,36.77 56.8,36.91 56.79,37.04 56.78,37.19 56.78,37.27 56.77,37.35 56.76,37.44 56.75,37.49 56.74,37.54 56.7,37.61 56.68,37.67 56.6,37.79 56.45,37.83 56.31,37.87 56.22,37.84 56.16,37.82 56.13,37.81 56.08,37.79 56.07,37.79 56.02,37.78 55.96,37.77 55.91,37.76 55.81,37.75 55.7,37.75 55.59,37.76 55.38,37.79 55.18,37.89 55.03,38.07 54.89,38.25 54.8,38.51 54.77,38.81 L 54.71,38.82 C 54.58,38.54 54.53,38.2 54.66,37.87 54.79,37.53 55.11,37.27 55.46,37.18 55.63,37.13 55.82,37.11 55.99,37.14 56.09,37.15 56.17,37.17 56.26,37.21 56.32,37.23 56.34,37.24 56.38,37.25 56.38,37.26 56.36,37.24 56.29,37.26 56.13,37.35 56.21,37.36 56.21,37.31 56.23,37.26 56.24,37.19 56.25,37.12 56.28,36.98 56.31,36.83 56.35,36.68 56.42,36.38 56.54,36.07 56.75,35.81 56.96,35.56 57.25,35.38 57.54,35.28 58.13,35.09 58.73,35.13 59.3,35.21 L 59.3,35.27 Z M 59.3,35.27" />
            <path id="joe02Canvas-bezier38" stroke="none" fill="rgb(51, 91, 113)" d="M 55.15,39.63 C 55.54,40.74 56,41.82 56.51,42.87 57.02,43.93 57.59,44.95 58.27,45.9 58.95,46.83 59.75,47.68 60.68,48.24 61.15,48.53 61.67,48.7 62.21,48.71 62.76,48.72 63.31,48.55 63.85,48.31 L 63.88,48.36 C 63.43,48.75 62.87,49.05 62.24,49.13 61.61,49.22 60.95,49.06 60.39,48.78 59.26,48.18 58.52,47.17 57.87,46.17 56.59,44.15 55.73,41.92 55.09,39.65 L 55.15,39.63 Z M 55.15,39.63" />
            <path id="joe02Canvas-bezier39" stroke="none" fill="rgb(51, 91, 113)" d="M 63.16,40.42 C 62.9,40.93 62.77,41.5 62.74,42.06 62.71,42.61 62.8,43.18 63.09,43.6 63.17,43.7 63.25,43.78 63.35,43.87 L 63.68,44.18 C 63.89,44.4 64.1,44.58 64.25,44.97 64.27,45.02 64.29,45.09 64.29,45.2 64.28,45.28 64.25,45.36 64.18,45.43 64.11,45.5 64.03,45.53 63.98,45.53 63.78,45.55 63.72,45.5 63.63,45.47 63.47,45.4 63.35,45.32 63.22,45.23 62.97,45.06 62.76,44.86 62.55,44.63 L 62.58,44.58 C 62.87,44.67 63.15,44.76 63.41,44.86 63.55,44.9 63.68,44.95 63.8,44.97 63.84,44.98 63.93,44.98 63.87,44.97 63.86,44.97 63.81,44.99 63.77,45.03 63.72,45.08 63.71,45.12 63.7,45.16 63.7,45.2 63.71,45.2 63.69,45.18 63.61,45.04 63.41,44.79 63.24,44.58 63.15,44.47 63.07,44.36 62.97,44.25 62.87,44.14 62.76,44 62.69,43.85 62.36,43.27 62.35,42.61 62.45,42.03 62.56,41.44 62.78,40.87 63.11,40.39 L 63.16,40.42 Z M 63.16,40.42" />
            <path id="joe02Canvas-bezier40" stroke="none" fill="rgb(51, 91, 113)" d="M 57.04,38.81 C 57.05,39.33 57.14,39.83 57.27,40.31 57.39,40.8 57.55,41.28 57.76,41.73 57.97,42.18 58.26,42.58 58.49,43 58.74,43.42 59.01,43.82 59.32,44.26 L 59.28,44.3 C 58.77,44.13 58.34,43.77 58,43.35 57.66,42.93 57.48,42.41 57.31,41.91 56.99,40.9 56.85,39.84 56.98,38.81 L 57.04,38.81 Z M 57.04,38.81" />
            <path id="joe02Canvas-bezier41" stroke="none" fill="rgb(51, 91, 113)" d="M 58.16,36.23 C 58.53,36.38 58.91,36.51 59.29,36.62 59.67,36.74 60.05,36.83 60.43,36.88 60.82,36.93 61.19,36.89 61.53,36.88 61.87,36.87 62.19,36.8 62.54,36.56 L 62.59,36.59 C 62.52,37.04 62.06,37.39 61.62,37.48 61.17,37.59 60.73,37.46 60.33,37.35 59.53,37.12 58.81,36.74 58.13,36.28 L 58.16,36.23 Z M 58.16,36.23" />
            <path id="joe02Canvas-bezier42" stroke="none" fill="rgb(51, 91, 113)" d="M 77.12,36.24 C 77.85,35.33 78.88,34.75 79.93,34.28 80.99,33.83 82.12,33.55 83.27,33.41 84.41,33.27 85.59,33.24 86.73,33.47 87.87,33.7 88.97,34.1 89.96,34.7 L 89.93,34.75 C 88.83,34.46 87.74,34.21 86.63,34.07 85.53,33.93 84.43,33.82 83.31,33.89 82.2,33.96 81.09,34.18 80.04,34.56 78.99,34.95 77.94,35.44 77.17,36.28 L 77.12,36.24 Z M 77.12,36.24" />
            <path id="joe02Canvas-bezier43" stroke="none" fill="rgb(51, 91, 113)" d="M 99.91,29.85 C 99.37,30.13 98.84,30.45 98.33,30.79 97.81,31.13 97.32,31.49 96.84,31.87 96.36,32.26 95.94,32.7 95.47,33.08 95,33.46 94.54,33.86 94.03,34.24 L 93.98,34.2 C 94.24,33.61 94.63,33.1 95.07,32.64 95.5,32.17 96.04,31.83 96.56,31.48 97.61,30.79 98.72,30.21 99.89,29.79 L 99.91,29.85 Z M 99.91,29.85" />
            <path id="joe02Canvas-bezier44" stroke="none" fill="rgb(51, 91, 113)" d="M 94.46,48.95 C 93.92,48.62 93.24,48.64 92.64,48.75 92.33,48.81 92.03,48.89 91.74,49 91.45,49.1 91.15,49.24 90.82,49.33 90.18,49.51 89.45,49.66 88.75,49.34 88.42,49.19 88.1,48.92 87.95,48.57 87.79,48.22 87.8,47.83 87.94,47.52 L 88,47.53 C 88.06,48.2 88.46,48.63 88.98,48.78 89.49,48.94 90.1,48.98 90.71,48.86 91,48.81 91.3,48.71 91.63,48.63 91.95,48.54 92.27,48.48 92.6,48.46 93.26,48.42 93.97,48.48 94.5,48.9 L 94.46,48.95 Z M 94.46,48.95" />
            <path id="joe02Canvas-bezier45" stroke="none" fill="rgb(51, 91, 113)" d="M 94.47,49.84 C 95.84,49.6 97.21,48.84 97.78,47.57 98.06,46.95 98.2,46.25 97.98,45.62 97.78,44.98 97.38,44.4 96.96,43.85 96.1,42.74 95.09,41.71 94.36,40.44 93.64,39.18 93.15,37.71 93.31,36.26 L 93.37,36.26 C 93.56,37.67 94.1,38.97 94.87,40.12 95.63,41.29 96.52,42.38 97.35,43.56 97.76,44.15 98.16,44.78 98.36,45.52 98.45,45.88 98.48,46.28 98.41,46.65 98.34,47.02 98.22,47.38 98.05,47.71 97.7,48.37 97.15,48.89 96.52,49.25 95.89,49.6 95.19,49.82 94.48,49.9 L 94.47,49.84 Z M 94.47,49.84" />
            <path id="joe02Canvas-bezier46" stroke="none" fill="rgb(51, 91, 113)" d="M 83.55,53.66 C 84.63,53.8 85.72,53.88 86.81,53.93 87.89,53.99 88.98,54.01 90.06,53.96 91.15,53.9 92.21,53.76 93.25,53.56 94.27,53.34 95.35,53.06 95.97,52.15 L 96.03,52.17 C 95.87,52.73 95.44,53.18 94.96,53.49 94.47,53.8 93.93,54 93.39,54.15 92.29,54.44 91.17,54.45 90.07,54.44 87.87,54.41 85.69,54.14 83.54,53.72 L 83.55,53.66 Z M 83.55,53.66" />
            <path id="joe02Canvas-bezier47" stroke="none" fill="rgb(51, 91, 113)" d="M 82.76,55.01 C 83.7,55.83 84.74,56.52 85.84,57.09 86.93,57.66 88.1,58.09 89.31,58.25 89.91,58.32 90.51,58.32 91.1,58.24 91.67,58.18 92.19,57.93 92.63,57.57 93.53,56.84 94.07,55.69 94.45,54.5 L 94.51,54.51 C 94.45,55.77 94.02,57.1 93.02,58.03 92.52,58.48 91.85,58.8 91.17,58.83 90.52,58.89 89.87,58.84 89.23,58.73 87.97,58.5 86.78,57.99 85.69,57.36 84.61,56.7 83.61,55.94 82.71,55.05 L 82.76,55.01 Z M 82.76,55.01" />
            <path id="joe02Canvas-bezier48" stroke="none" fill="rgb(51, 91, 113)" d="M 86.55,59.88 C 87.43,60.33 88.37,60.63 89.33,60.77 90.28,60.93 91.26,60.91 92.17,60.65 93.09,60.38 93.89,59.88 94.45,59.17 95.02,58.46 95.32,57.53 95.4,56.54 L 95.46,56.54 C 95.71,57.52 95.54,58.64 94.93,59.53 94.32,60.44 93.27,60.91 92.29,61.12 91.28,61.33 90.25,61.29 89.27,61.07 88.3,60.84 87.37,60.46 86.52,59.93 L 86.55,59.88 Z M 86.55,59.88" />
            <path id="joe02Canvas-bezier49" stroke="none" fill="rgb(51, 91, 113)" d="M 95.48,60.71 C 95.66,61.59 95.79,62.48 95.87,63.38 95.94,64.28 95.98,65.18 95.82,66.09 95.74,66.53 95.61,66.99 95.29,67.36 94.92,67.7 94.5,67.85 94.07,68.02 93.22,68.32 92.32,68.46 91.47,68.69 91.05,68.8 90.63,68.93 90.3,69.17 90.22,69.23 90.14,69.3 90.08,69.37 90.01,69.46 89.91,69.56 89.8,69.63 89.6,69.78 89.37,69.87 89.13,69.92 88.19,70.11 87.27,69.91 86.4,69.68 84.66,69.18 83.04,68.37 81.47,67.51 78.34,65.77 75.26,63.87 72.54,61.5 71.2,60.3 69.91,59.01 68.88,57.51 68.37,56.76 67.91,55.96 67.59,55.11 67.27,54.26 67.09,53.35 67.11,52.45 L 67.17,52.45 C 67.22,53.34 67.47,54.21 67.84,55.01 68.2,55.81 68.68,56.56 69.22,57.26 70.29,58.66 71.57,59.91 72.93,61.04 75.65,63.31 78.62,65.3 81.7,67.08 83.24,67.97 84.83,68.79 86.51,69.3 87.35,69.54 88.23,69.74 89.06,69.58 89.26,69.54 89.45,69.47 89.61,69.35 89.69,69.3 89.76,69.24 89.83,69.16 89.92,69.06 90.01,68.98 90.11,68.91 90.51,68.63 90.96,68.51 91.4,68.39 92.28,68.18 93.16,68.07 94,67.79 94.4,67.65 94.84,67.48 95.14,67.21 95.42,66.91 95.56,66.48 95.65,66.05 95.82,65.18 95.8,64.28 95.75,63.39 95.69,62.5 95.58,61.61 95.42,60.73 L 95.48,60.71 Z M 95.48,60.71" />
            <path id="joe02Canvas-bezier50" stroke="none" fill="rgb(51, 91, 113)" d="M 95.47,15.9 C 96.75,17.66 97.69,19.68 98.21,21.83 98.34,22.36 98.44,22.91 98.51,23.46 98.54,23.73 98.57,24.01 98.58,24.29 98.58,24.56 98.6,24.78 98.64,25.05 98.8,26.09 98.97,27.18 99.3,28.19 L 99.26,28.23 C 98.89,27.78 98.71,27.26 98.51,26.75 98.32,26.23 98.17,25.7 98.05,25.15 98.03,25.02 98,24.88 97.99,24.73 97.97,24.59 97.96,24.43 97.95,24.3 97.95,24.04 97.94,23.78 97.92,23.51 97.89,22.98 97.83,22.45 97.74,21.92 97.55,20.87 97.24,19.84 96.85,18.84 96.46,17.83 96,16.85 95.42,15.94 L 95.47,15.9 Z M 95.47,15.9" />
            <path id="joe02Canvas-bezier51" stroke="none" fill="rgb(51, 91, 113)" d="M 99.93,31.28 C 99.51,32.62 99.4,34.05 99.54,35.43 99.61,36.12 99.75,36.8 99.96,37.46 L 100.68,39.44 C 101.15,40.76 101.56,42.23 101.3,43.71 101.03,45.17 100.3,46.47 99.38,47.54 L 99.33,47.51 C 99.97,46.25 100.56,44.97 100.7,43.63 100.87,42.29 100.62,40.93 100.22,39.59 L 99.59,37.57 C 99.39,36.88 99.28,36.16 99.24,35.45 99.17,34.02 99.38,32.58 99.87,31.26 L 99.93,31.28 Z M 99.93,31.28" />
            <path id="joe02Canvas-bezier52" stroke="none" fill="rgb(51, 91, 113)" d="M 98.83,48.38 C 98.55,49.63 98.25,50.86 97.92,52.09 97.75,52.7 97.63,53.33 97.38,53.92 97.13,54.51 96.86,55.1 96.45,55.62 L 96.4,55.59 C 96.5,54.95 96.64,54.34 96.81,53.73 96.97,53.11 97.24,52.54 97.46,51.94 L 98.78,48.37 98.83,48.38 Z M 98.83,48.38" />
            <path id="joe02Canvas-bezier53" stroke="none" fill="rgb(51, 91, 113)" d="M 86.83,37.41 C 86.48,36.85 85.91,36.45 85.29,36.28 84.67,36.11 84.01,36.19 83.4,36.38 82.78,36.58 82.22,36.91 81.66,37.24 81.09,37.56 80.56,37.95 80,38.31 L 79.98,38.29 C 80.43,37.79 80.95,37.36 81.5,36.98 82.06,36.61 82.68,36.33 83.33,36.15 83.98,35.97 84.69,35.93 85.34,36.14 85.98,36.35 86.54,36.81 86.85,37.4 L 86.83,37.41 Z M 86.83,37.41" />
            <path id="joe02Canvas-bezier54" stroke="none" fill="rgb(51, 91, 113)" d="M 80.76,38.29 C 81.17,38.58 81.66,38.76 82.14,38.85 82.63,38.95 83.13,38.96 83.62,38.89 84.12,38.82 84.59,38.66 85.05,38.5 85.53,38.34 85.98,38.13 86.45,37.93 L 86.47,37.96 C 86.08,38.3 85.63,38.56 85.16,38.78 84.68,38.98 84.17,39.09 83.65,39.13 82.62,39.22 81.54,38.97 80.75,38.31 L 80.76,38.29 Z M 80.76,38.29" />
            <path id="joe02Canvas-bezier55" stroke="none" fill="rgb(51, 91, 113)" d="M 87.65,37.2 C 87.34,36.69 86.87,36.29 86.33,36.04 85.8,35.78 85.21,35.69 84.62,35.72 84.04,35.75 83.47,35.92 82.91,36.1 82.35,36.28 81.8,36.52 81.24,36.75 L 81.22,36.72 C 81.7,36.34 82.24,36.05 82.81,35.82 83.38,35.59 84,35.48 84.62,35.48 85.24,35.47 85.86,35.6 86.4,35.9 86.94,36.2 87.4,36.65 87.68,37.19 L 87.65,37.2 Z M 87.65,37.2" />
            <path id="joe02Canvas-bezier56" stroke="none" fill="rgb(51, 91, 113)" d="M 94,36.08 C 94.78,36.16 95.58,36.17 96.32,36 96.69,35.91 97.03,35.74 97.31,35.53 97.61,35.32 97.77,34.98 97.89,34.6 L 97.91,34.6 C 97.98,35 97.83,35.46 97.51,35.75 97.19,36.06 96.76,36.17 96.37,36.24 95.57,36.36 94.77,36.28 94,36.11 L 94,36.08 Z M 94,36.08" />
            <path id="joe02Canvas-bezier57" stroke="none" fill="rgb(51, 91, 113)" d="M 94.47,34 C 95.06,33.66 95.71,33.39 96.4,33.28 96.75,33.23 97.12,33.19 97.47,33.32 97.82,33.44 98.14,33.68 98.28,34.01 L 98.26,34.03 C 97.98,33.82 97.7,33.66 97.39,33.61 97.08,33.54 96.76,33.5 96.43,33.52 95.77,33.57 95.11,33.76 94.48,34.03 L 94.47,34 Z M 94.47,34" />
            <path id="joe02Canvas-bezier58" stroke="none" fill="rgb(51, 91, 113)" d="M 95.95,32.9 C 96.37,32.73 96.81,32.61 97.28,32.58 97.51,32.56 97.77,32.55 98.01,32.69 98.25,32.83 98.38,33.15 98.28,33.38 L 98.25,33.38 C 98.16,33.15 98.04,33.02 97.87,32.96 97.7,32.89 97.5,32.83 97.28,32.82 96.85,32.79 96.4,32.85 95.96,32.93 L 95.95,32.9 Z M 95.95,32.9" />
            <path id="joe02Canvas-bezier59" stroke="none" fill="rgb(51, 91, 113)" d="M 82.93,36.52 C 83.23,36.76 83.42,37.16 83.4,37.56 83.37,37.98 83.14,38.36 82.78,38.58 82.43,38.81 81.94,38.86 81.56,38.65 81.19,38.44 80.93,38.04 80.95,37.63 L 80.98,37.63 C 81.13,37.98 81.38,38.25 81.69,38.38 81.99,38.5 82.35,38.53 82.66,38.37 82.97,38.22 83.2,37.9 83.25,37.55 83.31,37.19 83.18,36.81 82.91,36.54 L 82.93,36.52 Z M 82.93,36.52" />
            <path id="joe02Canvas-bezier60" stroke="none" fill="rgb(51, 91, 113)" d="M 95.01,33.83 C 95.32,33.94 95.6,34.2 95.73,34.53 95.85,34.86 95.83,35.26 95.65,35.58 95.48,35.91 95.16,36.18 94.78,36.22 94.41,36.27 94.03,36.13 93.81,35.85 L 93.83,35.83 C 94.14,35.96 94.45,36 94.73,35.93 95.01,35.86 95.28,35.71 95.44,35.46 95.61,35.22 95.67,34.89 95.58,34.58 95.51,34.28 95.29,34 94.99,33.86 L 95.01,33.83 Z M 95.01,33.83" />
            <path id="joe02Canvas-bezier61" stroke="none" fill="rgb(51, 91, 113)" d="M 49.07,39.92 C 49.52,39.9 49.96,40.23 50.15,40.64 50.36,41.05 50.45,41.5 50.53,41.93 50.66,42.81 50.68,43.7 50.79,44.55 50.84,44.98 50.92,45.4 51.05,45.77 51.19,46.15 51.38,46.45 51.66,46.56 51.7,46.58 51.74,46.59 51.78,46.6 L 51.94,46.64 C 52.06,46.67 52.21,46.74 52.31,46.81 52.54,46.96 52.71,47.14 52.83,47.35 53.08,47.75 53.22,48.19 53.29,48.63 L 53.24,48.65 C 53,48.27 52.78,47.9 52.5,47.61 52.36,47.46 52.21,47.34 52.05,47.27 51.97,47.23 51.91,47.21 51.83,47.2 L 51.66,47.18 C 51.6,47.17 51.53,47.15 51.46,47.13 51.2,47.04 50.96,46.85 50.8,46.64 50.65,46.42 50.56,46.18 50.49,45.95 50.36,45.49 50.33,45.04 50.31,44.59 50.26,43.7 50.3,42.83 50.23,41.97 50.19,41.54 50.14,41.11 49.98,40.72 49.84,40.33 49.5,40.01 49.06,39.98 L 49.07,39.92 Z M 49.07,39.92" />
            <path id="joe02Canvas-bezier62" stroke="none" fill="rgb(51, 91, 113)" d="M 98.78,19.48 C 99.16,18.73 99.47,17.95 99.71,17.14 99.94,16.34 100.1,15.5 100.01,14.68 99.96,14.27 99.85,13.86 99.62,13.52 99.4,13.18 99.07,12.93 98.69,12.76 98.3,12.56 97.97,12.24 97.81,11.82 97.64,11.42 97.61,10.97 97.62,10.55 97.65,9.7 97.85,8.86 97.74,8.05 97.68,7.65 97.51,7.28 97.19,7.04 96.89,6.8 96.49,6.68 96.09,6.61 95.69,6.54 95.28,6.56 94.84,6.48 94.42,6.41 94,6.27 93.62,6.07 92.84,5.66 92.26,5 91.75,4.33 91.24,3.65 90.79,2.94 90.21,2.37 89.63,1.8 88.89,1.43 88.08,1.36 87.28,1.28 86.47,1.44 85.68,1.67 84.87,1.93 84.01,2.05 83.17,2.09 79.76,2.22 76.47,1.4 73.18,0.88 71.54,0.64 69.86,0.37 68.28,0.63 67.5,0.76 66.76,1.11 66.38,1.75 66.22,2.04 66.03,2.53 65.77,2.87 65.52,3.24 65.23,3.58 64.9,3.87 63.58,5.06 61.92,5.62 60.38,6.23 59.62,6.55 58.84,6.86 58.28,7.37 58.01,7.62 57.83,7.93 57.79,8.27 57.77,8.46 57.78,8.6 57.81,8.84 57.82,9.09 57.8,9.32 57.74,9.56 57.63,10.04 57.32,10.46 56.96,10.75 56.61,11.05 56.22,11.25 55.82,11.43 55.04,11.79 54.23,12.02 53.53,12.4 53.19,12.58 52.89,12.83 52.81,13.13 52.77,13.28 52.78,13.45 52.83,13.62 52.86,13.72 52.89,13.82 52.91,13.95 52.93,14.07 52.94,14.19 52.93,14.31 52.89,15.27 52.37,16.02 51.89,16.71 51.38,17.4 50.82,18.03 50.29,18.68 50.03,19 49.77,19.32 49.55,19.67 49.33,20 49.12,20.39 49.16,20.73 49.18,20.91 49.29,20.99 49.46,21.2 49.6,21.42 49.62,21.67 49.6,21.89 49.54,22.33 49.37,22.73 49.2,23.11 48.85,23.88 48.44,24.61 48.07,25.37 L 48.01,25.34 C 48.35,24.57 48.74,23.82 49.05,23.05 49.2,22.66 49.35,22.26 49.38,21.87 49.39,21.67 49.36,21.48 49.26,21.34 49.23,21.28 49.12,21.22 49.05,21.12 48.97,21.02 48.92,20.9 48.89,20.78 48.82,20.27 49.08,19.87 49.28,19.5 49.51,19.13 49.77,18.79 50.02,18.46 50.54,17.79 51.08,17.15 51.55,16.47 52,15.79 52.44,15.05 52.46,14.3 52.46,14.21 52.45,14.12 52.44,14.03 52.42,13.96 52.39,13.86 52.36,13.76 52.29,13.53 52.26,13.26 52.33,13 52.47,12.47 52.91,12.16 53.28,11.94 54.05,11.51 54.86,11.28 55.59,10.92 56.31,10.58 57.01,10.11 57.16,9.42 57.2,9.25 57.22,9.06 57.21,8.89 57.19,8.71 57.16,8.43 57.2,8.2 57.25,7.7 57.53,7.24 57.88,6.93 58.57,6.3 59.39,6 60.16,5.68 61.72,5.06 63.31,4.51 64.51,3.43 64.8,3.16 65.07,2.87 65.3,2.54 65.54,2.21 65.65,1.9 65.9,1.46 66.14,1.05 66.51,0.72 66.91,0.51 67.32,0.29 67.75,0.17 68.18,0.1 69.92,-0.16 71.6,0.14 73.26,0.41 76.56,0.96 79.83,1.8 83.15,1.7 83.97,1.67 84.79,1.56 85.57,1.32 86.39,1.09 87.25,0.93 88.12,1.02 88.99,1.09 89.83,1.52 90.43,2.14 91.04,2.75 91.49,3.48 91.99,4.15 92.48,4.81 93.03,5.44 93.75,5.83 94.1,6.03 94.49,6.16 94.89,6.23 95.28,6.31 95.71,6.3 96.13,6.38 96.55,6.45 96.98,6.59 97.33,6.87 97.69,7.15 97.89,7.59 97.95,8.02 98.05,8.9 97.83,9.73 97.8,10.56 97.79,10.97 97.81,11.39 97.96,11.76 98.1,12.14 98.4,12.44 98.76,12.63 99.14,12.81 99.5,13.08 99.73,13.45 99.97,13.81 100.09,14.24 100.13,14.67 100.21,15.52 100.03,16.37 99.79,17.17 99.55,17.98 99.22,18.76 98.83,19.51 L 98.78,19.48 Z M 98.78,19.48" />
            <path id="joe02Canvas-bezier63" stroke="none" fill="rgb(51, 91, 113)" d="M 36.68,65.92 C 36.27,65.32 36.05,64.62 35.86,63.93 35.67,63.23 35.53,62.53 35.42,61.82 35.19,60.4 35.05,58.97 34.95,57.53 34.74,54.67 34.67,51.79 34.69,48.92 L 34.7,48.99 C 34.28,47.95 34.11,46.85 34,45.76 33.89,44.67 33.88,43.55 33.89,42.47 L 33.89,39.21 33.86,37.58 C 33.86,37.04 33.79,36.51 33.75,35.96 33.67,34.87 33.6,33.77 33.67,32.65 33.69,32.37 33.72,32.09 33.78,31.8 33.86,31.52 33.9,31.22 34.2,30.9 34.24,30.87 34.29,30.83 34.35,30.8 L 34.46,30.75 C 34.53,30.72 34.61,30.69 34.69,30.66 34.84,30.62 35,30.59 35.17,30.59 35.49,30.59 35.83,30.68 36.1,30.85 36.66,31.19 36.98,31.73 37.21,32.26 37.43,32.8 37.57,33.35 37.66,33.9 37.84,35.01 37.86,36.11 37.84,37.21 L 37.84,37.17 C 37.94,38.04 38.11,38.92 38.24,39.81 38.31,40.25 38.36,40.7 38.38,41.16 38.4,41.61 38.39,42.08 38.27,42.55 L 38.26,42.42 C 38.44,42.83 38.56,43.26 38.66,43.68 38.77,44.1 38.84,44.52 38.9,44.95 39.02,45.8 39.13,46.66 39.13,47.52 L 39.07,47.52 C 39.01,46.67 38.86,45.83 38.68,44.99 38.49,44.16 38.3,43.32 37.94,42.58 L 37.91,42.53 37.93,42.46 C 38.02,42.05 38.01,41.62 37.97,41.19 37.94,40.75 37.86,40.32 37.79,39.88 37.64,39.01 37.44,38.14 37.31,37.24 L 37.31,37.23 37.31,37.2 C 37.31,36.13 37.26,35.05 37.07,34 36.98,33.48 36.85,32.97 36.65,32.5 36.45,32.04 36.16,31.61 35.78,31.38 35.59,31.27 35.39,31.21 35.17,31.21 35.07,31.21 34.96,31.23 34.85,31.26 34.8,31.27 34.75,31.29 34.7,31.31 L 34.62,31.35 C 34.62,31.35 34.61,31.35 34.61,31.36 34.52,31.44 34.42,31.69 34.37,31.93 34.32,32.18 34.28,32.44 34.26,32.7 34.18,33.76 34.22,34.84 34.28,35.92 34.31,36.45 34.38,37.01 34.37,37.57 L 34.37,39.2 34.33,42.47 C 34.3,43.57 34.3,44.64 34.39,45.72 34.49,46.79 34.64,47.87 35.03,48.85 L 35.04,48.89 35.04,48.92 C 34.99,51.79 35.01,54.66 35.16,57.52 35.24,58.95 35.35,60.38 35.55,61.79 35.65,62.5 35.78,63.21 35.95,63.9 36.12,64.59 36.33,65.29 36.73,65.88 L 36.68,65.92 Z M 36.68,65.92" />
            <path id="joe02Canvas-bezier64" stroke="none" fill="rgb(51, 91, 113)" d="M 38.26,35.39 C 38.78,33.9 39.31,32.4 39.87,30.92 40.16,30.17 40.44,29.43 40.75,28.7 40.91,28.33 41.07,27.97 41.25,27.61 41.34,27.43 41.43,27.25 41.57,27.07 41.73,26.84 41.97,26.8 42.17,26.74 42.59,26.65 43.01,26.64 43.43,26.73 43.84,26.82 44.25,27.03 44.54,27.38 44.82,27.74 44.95,28.19 44.96,28.61 44.97,29.04 44.9,29.46 44.79,29.86 44.57,30.62 44.34,31.39 44.07,32.14 43.8,32.9 43.53,33.64 43.1,34.38 L 43.15,34.24 C 43.06,35.18 42.95,36.11 42.76,37.03 42.58,37.96 42.36,38.88 41.9,39.76 L 41.93,39.62 C 41.97,40.68 41.88,41.73 41.75,42.76 41.68,43.28 41.62,43.8 41.53,44.31 41.45,44.82 41.33,45.35 41.31,45.84 L 41.26,45.86 C 41.2,45.32 41.28,44.81 41.29,44.29 L 41.39,42.73 C 41.43,41.7 41.47,40.66 41.4,39.65 L 41.39,39.58 41.43,39.51 C 41.62,39.12 41.75,38.69 41.86,38.25 41.98,37.81 42.08,37.37 42.16,36.92 42.32,36.02 42.47,35.1 42.56,34.19 L 42.57,34.12 42.61,34.05 C 42.99,33.43 43.31,32.68 43.59,31.96 43.87,31.23 44.13,30.48 44.35,29.73 44.57,29.01 44.65,28.19 44.23,27.63 43.8,27.08 42.95,26.94 42.25,27.08 42.08,27.12 41.89,27.17 41.83,27.28 41.72,27.41 41.62,27.59 41.53,27.76 41.35,28.1 41.18,28.46 41.01,28.82 40.68,29.53 40.37,30.26 40.07,30.99 39.46,32.46 38.88,33.93 38.32,35.41 L 38.26,35.39 Z M 38.26,35.39" />
            <path id="joe02Canvas-bezier65" stroke="none" fill="rgb(51, 91, 113)" d="M 45.68,27.92 C 45.88,27.5 46.14,27.11 46.46,26.77 46.78,26.43 47.18,26.13 47.66,26.05 48.15,25.98 48.64,26.16 49.01,26.51 49.37,26.88 49.44,27.41 49.43,27.88 49.38,28.85 49.04,29.74 48.64,30.58 48.44,31.01 48.21,31.42 47.95,31.81 47.69,32.2 47.43,32.59 47.04,32.92 L 47.12,32.75 C 47.1,33.85 46.82,34.86 46.52,35.87 46.37,36.37 46.2,36.87 46.01,37.36 45.92,37.6 45.82,37.85 45.7,38.09 45.58,38.34 45.5,38.56 45.26,38.85 45.29,38.82 45.22,38.9 45.25,38.87 45.26,38.86 45.25,38.88 45.24,38.9 45.23,38.94 45.21,39 45.2,39.05 45.18,39.16 45.16,39.28 45.14,39.41 45.11,39.65 45.09,39.91 45.07,40.17 L 44.94,41.72 C 44.83,42.75 44.71,43.82 44.27,44.81 L 44.27,44.82 44.26,44.83 C 44.14,45.02 44.14,45.33 44.19,45.61 44.24,45.89 44.33,46.18 44.45,46.46 L 44.39,46.49 C 44.23,46.23 44.1,45.95 44.01,45.65 43.92,45.36 43.84,45.02 44.01,44.67 L 44,44.69 C 44.32,43.74 44.35,42.7 44.41,41.68 L 44.47,40.12 C 44.49,39.86 44.51,39.6 44.53,39.33 44.55,39.2 44.57,39.06 44.6,38.92 44.61,38.85 44.63,38.78 44.66,38.69 44.67,38.66 44.68,38.61 44.72,38.54 44.77,38.46 44.75,38.49 44.82,38.41 44.91,38.3 45.05,38.04 45.15,37.83 45.26,37.6 45.37,37.37 45.47,37.13 45.67,36.66 45.85,36.18 46.02,35.7 46.34,34.74 46.64,33.73 46.69,32.75 L 46.69,32.64 46.77,32.58 C 47.41,32.03 47.9,31.21 48.32,30.42 48.73,29.62 49.08,28.76 49.16,27.87 49.19,27.43 49.13,26.97 48.85,26.65 48.56,26.36 48.11,26.16 47.69,26.22 47.25,26.27 46.86,26.53 46.54,26.85 46.22,27.17 45.95,27.54 45.73,27.94 L 45.68,27.92 Z M 45.68,27.92" />
            <path id="joe02Canvas-bezier66" stroke="none" fill="rgb(51, 91, 113)" d="M 49.63,30.2 C 49.96,30.61 50.13,31.13 50.2,31.65 50.27,32.18 50.24,32.71 50.15,33.23 49.95,34.27 49.53,35.25 49.02,36.17 L 49.04,36.11 C 48.92,37.07 48.67,37.98 48.43,38.9 48.18,39.81 47.92,40.72 47.63,41.62 L 47.65,41.53 C 47.75,42.58 47.83,43.62 47.88,44.68 47.9,45.2 47.91,45.73 47.9,46.27 47.89,46.8 47.86,47.33 47.71,47.9 L 47.64,47.61 C 48.08,48.12 48.28,48.7 48.47,49.27 48.65,49.83 48.79,50.41 48.9,50.99 48.99,51.57 49.07,52.16 49.11,52.75 49.14,53.33 49.16,53.93 49.06,54.51 L 49,54.5 C 49,53.92 48.92,53.35 48.82,52.78 48.72,52.21 48.6,51.64 48.45,51.09 48.31,50.53 48.16,49.98 47.96,49.45 47.75,48.92 47.51,48.39 47.19,48.02 L 47.08,47.89 47.12,47.73 C 47.24,47.28 47.26,46.75 47.29,46.25 47.31,45.73 47.31,45.21 47.31,44.69 47.3,43.65 47.26,42.61 47.19,41.57 L 47.18,41.52 47.2,41.48 C 47.5,40.59 47.79,39.69 48.06,38.79 48.33,37.9 48.6,36.99 48.74,36.08 L 48.75,36.04 48.76,36.02 C 49.29,35.14 49.74,34.2 49.97,33.2 50.08,32.7 50.13,32.18 50.08,31.67 50.03,31.16 49.89,30.64 49.58,30.24 L 49.63,30.2 Z M 49.63,30.2" />
            <path id="joe02Canvas-bezier67" stroke="none" fill="rgb(51, 91, 113)" d="M 49.29,55.24 C 49.89,54.99 50.58,54.88 51.27,55.1 51.61,55.2 51.98,55.38 52.18,55.7 52.37,56.02 52.46,56.39 52.39,56.74 L 52.33,56.76 C 52.09,56.5 51.91,56.27 51.71,56.08 51.51,55.9 51.35,55.68 51.09,55.54 50.84,55.41 50.55,55.33 50.24,55.3 49.94,55.25 49.62,55.25 49.3,55.3 L 49.29,55.24 Z M 49.29,55.24" />
            <path id="joe02Canvas-bezier68" stroke="none" fill="rgb(51, 91, 113)" d="M 51.71,53.92 C 52.13,52.31 52.68,50.73 53.52,49.27 53.95,48.56 54.46,47.85 55.23,47.43 55.98,47.02 56.96,46.96 57.74,47.4 58.51,47.82 59.06,48.63 59.17,49.51 59.23,49.95 59.12,50.43 58.98,50.81 58.84,51.21 58.69,51.6 58.54,51.99 L 56.66,56.61 C 56.36,57.38 56.05,58.15 55.81,58.93 55.68,59.33 55.61,59.67 55.62,60.08 L 55.62,61.32 C 55.62,62.99 55.5,64.7 54.98,66.34 54.71,67.15 54.34,67.94 53.82,68.63 53.3,69.33 52.66,69.89 52,70.41 51.33,70.92 50.59,71.35 49.83,71.69 49.46,71.87 49.09,72.04 48.79,72.31 48.49,72.57 48.28,72.93 48.11,73.31 L 48.05,73.28 C 48.19,72.89 48.38,72.5 48.68,72.19 48.97,71.87 49.35,71.66 49.71,71.45 50.44,71.06 51.12,70.62 51.73,70.08 52.34,69.53 52.96,68.98 53.4,68.33 53.85,67.67 54.18,66.93 54.41,66.16 54.88,64.61 54.99,62.96 55.02,61.31 L 55.05,60.06 C 55.06,59.84 55.07,59.63 55.12,59.39 55.16,59.17 55.23,58.97 55.3,58.76 55.57,57.96 55.9,57.19 56.22,56.43 L 58.18,51.84 C 58.34,51.46 58.49,51.08 58.63,50.69 58.78,50.3 58.86,49.94 58.82,49.55 58.74,48.78 58.27,48.05 57.59,47.67 56.92,47.26 56.05,47.28 55.34,47.64 54.63,48 54.11,48.68 53.67,49.37 52.81,50.77 52.23,52.35 51.77,53.94 L 51.71,53.92 Z M 51.71,53.92" />
            <path id="joe02Canvas-bezier69" stroke="none" fill="rgb(51, 91, 113)" d="M 47.53,73.84 C 46.7,74.99 46.06,76.27 45.42,77.53 44.8,78.81 44.21,80.1 43.65,81.41 42.54,84.03 41.51,86.68 40.54,89.35 38.58,94.7 36.81,100.11 35.14,105.55 L 30.14,121.88 C 29.26,124.59 28.4,127.31 27.36,129.97 26.84,131.3 26.28,132.62 25.54,133.86 24.8,135.08 23.77,136.21 22.42,136.72 L 22.4,136.67 C 23.71,136.09 24.64,134.95 25.3,133.72 25.98,132.49 26.49,131.16 26.97,129.82 27.92,127.15 28.74,124.43 29.56,121.7 L 32.08,113.54 34.68,105.4 C 36.42,99.98 38.24,94.58 40.25,89.25 41.27,86.59 42.33,83.94 43.49,81.34 44.07,80.04 44.67,78.75 45.32,77.48 45.98,76.22 46.63,74.95 47.49,73.8 L 47.53,73.84 Z M 47.53,73.84" />
            <path id="joe02Canvas-bezier70" stroke="none" fill="rgb(51, 91, 113)" d="M 21.58,137.77 C 21.09,138.29 20.81,138.98 20.52,139.64 20.24,140.3 19.95,140.98 19.56,141.6 19.18,142.22 18.67,142.79 18.04,143.18 17.4,143.58 16.66,143.78 15.93,143.84 15.19,143.91 14.46,143.82 13.74,143.75 13.02,143.67 12.3,143.57 11.59,143.45 10.16,143.2 8.74,142.87 7.35,142.41 5.97,141.94 4.6,141.37 3.41,140.45 2.82,139.98 2.28,139.41 1.94,138.69 1.6,137.95 1.58,137.15 1.61,136.41 1.73,134.91 2.14,133.49 2.65,132.12 3.17,130.75 3.78,129.43 4.51,128.17 L 4.56,128.2 C 3.99,129.53 3.47,130.88 3.04,132.25 2.63,133.63 2.26,135.03 2.21,136.44 2.19,137.13 2.22,137.84 2.5,138.42 2.78,139.02 3.24,139.54 3.78,139.98 4.86,140.86 6.17,141.46 7.51,141.95 8.85,142.43 10.25,142.79 11.65,143.06 12.36,143.2 13.07,143.31 13.78,143.4 14.49,143.49 15.2,143.59 15.91,143.54 16.61,143.5 17.31,143.33 17.91,142.97 18.52,142.62 19.02,142.1 19.41,141.5 19.81,140.91 20.11,140.25 20.41,139.59 20.72,138.94 21.02,138.25 21.53,137.72 L 21.58,137.77 Z M 21.58,137.77" />
            <path id="joe02Canvas-bezier71" stroke="none" fill="rgb(51, 91, 113)" d="M 1.88,130.66 C 0.96,129.38 0.44,127.86 0.18,126.31 -0.08,124.76 -0.05,123.17 0.22,121.62 0.75,118.5 2.16,115.61 3.87,112.99 5.59,110.36 7.77,108.07 9.99,105.88 12.21,103.69 14.43,101.5 16.43,99.12 18.45,96.75 20.28,94.23 21.95,91.6 23.63,88.98 25.25,86.31 26.81,83.61 29.96,78.22 32.9,72.71 35.6,67.07 L 35.65,67.09 C 33.27,72.88 30.39,78.45 27.33,83.91 25.76,86.62 24.14,89.3 22.45,91.93 20.74,94.56 18.86,97.08 16.8,99.44 14.75,101.81 12.5,104 10.26,106.16 8.02,108.33 5.84,110.57 4.11,113.16 2.39,115.74 0.96,118.57 0.4,121.65 0.11,123.18 0.06,124.75 0.29,126.29 0.53,127.82 1.03,129.35 1.92,130.63 L 1.88,130.66 Z M 1.88,130.66" />
            <path id="joe02Canvas-bezier72" stroke="none" fill="rgb(51, 91, 113)" d="M 31.84,119.9 C 32.47,118.59 33.07,117.27 33.66,115.95 34.26,114.64 34.85,113.32 35.4,111.98 35.67,111.31 35.94,110.64 36.17,109.97 36.28,109.63 36.39,109.29 36.47,108.96 36.55,108.66 36.57,108.29 36.59,107.95 36.66,106.54 36.52,105.09 36.42,103.64 L 36.48,103.63 C 36.91,105.03 37.16,106.47 37.19,107.96 37.18,108.34 37.17,108.71 37.08,109.11 36.98,109.48 36.85,109.83 36.72,110.17 36.45,110.85 36.15,111.52 35.84,112.18 34.62,114.81 33.28,117.38 31.9,119.92 L 31.84,119.9 Z M 31.84,119.9" />
            <path id="joe02Canvas-bezier73" stroke="none" fill="rgb(51, 91, 113)" d="M 36.1,114.78 C 37.83,118.54 39.03,122.53 39.82,126.6 40.58,130.66 40.82,134.86 40.48,138.99 40.26,143.11 40.26,147.24 40.26,151.36 40.25,155.49 40.35,159.62 40.45,163.75 L 40.39,163.76 C 39.95,159.64 39.76,155.51 39.66,151.37 39.58,147.23 39.71,143.09 40,138.96 40.4,134.85 40.23,130.71 39.52,126.65 38.82,122.59 37.7,118.59 36.04,114.81 L 36.1,114.78 Z M 36.1,114.78" />
            <path id="joe02Canvas-bezier74" stroke="none" fill="rgb(51, 91, 113)" d="M 17.82,95.42 C 17.38,93.04 17.07,90.62 17.04,88.18 17.05,86.96 17.11,85.72 17.47,84.52 17.57,84.22 17.68,83.93 17.84,83.65 17.99,83.37 18.25,83.1 18.43,82.91 18.81,82.48 19.1,81.96 19.35,81.42 19.85,80.34 20.22,79.19 20.63,78.04 21.06,76.91 21.51,75.74 22.34,74.74 22.75,74.26 23.31,73.83 23.96,73.67 24.27,73.58 24.64,73.57 24.93,73.58 25.23,73.59 25.54,73.6 25.84,73.63 26.45,73.69 27.06,73.79 27.65,73.96 28.23,74.14 28.83,74.36 29.28,74.8 L 29.23,74.84 C 28.76,74.49 28.17,74.33 27.59,74.23 27.01,74.11 26.41,74.07 25.82,74.05 25.23,74.07 24.6,74.01 24.1,74.17 23.58,74.32 23.15,74.69 22.8,75.13 22.44,75.57 22.15,76.08 21.9,76.61 21.64,77.15 21.41,77.7 21.19,78.26 20.74,79.38 20.34,80.53 19.78,81.64 19.5,82.19 19.19,82.73 18.75,83.2 18.52,83.44 18.35,83.61 18.2,83.86 18.05,84.1 17.94,84.37 17.84,84.65 17.47,85.76 17.38,86.98 17.34,88.18 17.29,90.59 17.52,93.02 17.88,95.41 L 17.82,95.42 Z M 17.82,95.42" />
            <path id="joe02Canvas-bezier75" stroke="none" fill="rgb(51, 91, 113)" d="M 24.59,72.22 C 25.85,71.54 27.14,70.91 28.46,70.37 29.13,70.1 29.79,69.79 30.51,69.65 30.87,69.58 31.23,69.53 31.6,69.52 31.97,69.52 32.38,69.55 32.69,69.79 L 32.66,69.84 C 32.33,69.77 31.99,69.87 31.66,69.95 31.32,70.03 30.99,70.13 30.66,70.24 29.99,70.46 29.3,70.61 28.63,70.82 27.28,71.26 25.94,71.75 24.61,72.27 L 24.59,72.22 Z M 24.59,72.22" />
            <path id="joe02Canvas-bezier76" stroke="none" fill="rgb(51, 91, 113)" d="M 31.14,68.31 C 31.64,67.65 32.17,67.02 32.76,66.43 33.05,66.13 33.32,65.8 33.69,65.59 33.87,65.48 34.07,65.38 34.28,65.31 34.49,65.25 34.75,65.18 34.97,65.33 L 34.95,65.39 C 34.6,65.5 34.35,65.83 34.04,66.07 33.75,66.34 33.39,66.54 33.07,66.79 32.44,67.29 31.81,67.82 31.18,68.35 L 31.14,68.31 Z M 31.14,68.31" />
            <path id="joe02Canvas-bezier77" stroke="none" fill="rgb(51, 91, 113)" d="M 42.12,56.52 C 43.27,57.94 44.33,59.45 45.21,61.07 45.65,61.88 46.09,62.71 46.32,63.63 46.43,64.08 46.52,64.56 46.51,65.04 46.51,65.51 46.44,66 46.21,66.42 L 46.15,66.4 C 46.26,65.49 46.02,64.64 45.75,63.8 45.46,62.96 45.16,62.11 44.78,61.29 44.4,60.47 43.97,59.66 43.51,58.88 43.06,58.09 42.58,57.31 42.07,56.56 L 42.12,56.52 Z M 42.12,56.52" />
            <path id="joe02Canvas-bezier78" stroke="none" fill="rgb(51, 91, 113)" d="M 81.05,133.92 C 80.58,131.22 80.05,128.53 79.7,125.8 79.35,123.08 79.09,120.33 79.23,117.56 79.3,116.19 79.51,114.78 80.03,113.5 80.47,112.22 80.75,110.88 80.92,109.53 81.26,106.82 81.19,104.07 80.75,101.39 80.52,100.05 80.19,98.72 79.7,97.47 79.18,96.16 78.88,94.8 78.68,93.42 78.5,92.04 78.42,90.64 78.59,89.24 78.67,88.54 78.83,87.83 79.12,87.17 79.27,86.83 79.47,86.51 79.71,86.22 79.94,85.93 80.31,85.69 80.53,85.52 80.99,85.13 81.38,84.56 81.73,83.99 82.08,83.42 82.39,82.82 82.68,82.2 83.27,80.98 83.78,79.71 84.28,78.44 84.77,77.16 85.23,75.87 85.65,74.57 85.87,73.92 86.07,73.26 86.27,72.61 86.45,71.95 86.67,71.29 86.75,70.62 L 86.81,70.62 C 86.76,71.32 86.58,71.98 86.43,72.65 86.27,73.32 86.09,73.98 85.91,74.65 85.53,75.97 85.12,77.28 84.67,78.58 84.23,79.88 83.72,81.17 83.15,82.43 82.86,83.05 82.56,83.68 82.21,84.28 81.85,84.88 81.48,85.48 80.91,85.99 79.73,86.68 79.36,88 79.18,89.31 79.02,90.64 79.09,92 79.27,93.34 79.45,94.68 79.73,96.02 80.2,97.27 80.69,98.58 81.01,99.94 81.22,101.31 81.64,104.05 81.68,106.84 81.31,109.58 81.12,110.95 80.82,112.3 80.36,113.62 79.83,114.88 79.62,116.22 79.53,117.58 79.35,120.31 79.57,123.06 79.88,125.78 80.19,128.5 80.68,131.2 81.11,133.92 L 81.05,133.92 Z M 81.05,133.92" />
            <path id="joe02Canvas-bezier79" stroke="none" fill="rgb(51, 91, 113)" d="M 57.71,57.78 C 59.69,59.92 61.7,62.03 63.73,64.12 65.76,66.22 67.79,68.31 69.92,70.28 70.46,70.77 71,71.25 71.56,71.69 72.11,72.1 72.77,72.52 73.33,73 73.89,73.49 74.43,74.03 74.86,74.67 75.27,75.31 75.58,76.08 75.59,76.89 75.6,77.69 75.31,78.47 74.91,79.09 74.85,79.21 74.83,79.3 74.87,79.41 74.91,79.53 75,79.65 75.11,79.77 75.35,80.01 75.64,80.22 75.93,80.43 76.51,80.85 77.13,81.26 77.69,81.75 78.24,82.24 78.75,82.82 79.01,83.51 L 78.95,83.54 C 78.62,82.9 78.09,82.39 77.52,81.96 76.94,81.53 76.32,81.17 75.7,80.78 75.38,80.59 75.07,80.39 74.78,80.11 74.64,79.97 74.49,79.81 74.4,79.58 74.31,79.35 74.34,79.05 74.46,78.84 74.82,78.22 75.02,77.57 74.99,76.9 74.98,76.23 74.72,75.59 74.34,75.02 73.96,74.44 73.47,73.92 72.94,73.45 72.41,72.97 71.83,72.59 71.23,72.11 70.66,71.64 70.12,71.14 69.6,70.63 67.49,68.6 65.5,66.47 63.51,64.33 61.54,62.18 59.59,60.01 57.66,57.82 L 57.71,57.78 Z M 57.71,57.78" />
            <path id="joe02Canvas-bezier80" stroke="none" fill="rgb(51, 91, 113)" d="M 73.55,73.85 C 72.88,74.38 72.31,75.04 71.76,75.69 71.21,76.35 70.69,77.04 70.21,77.75 69.73,78.46 69.29,79.2 68.92,79.97 68.57,80.73 68.24,81.57 68.32,82.36 L 68.37,82.81 68.03,82.52 C 66.7,81.38 65.55,80.07 64.44,78.75 63.33,77.42 62.26,76.06 61.23,74.66 60.21,73.27 59.25,71.83 58.32,70.37 57.39,68.92 56.49,67.43 55.66,65.92 L 55.71,65.88 61.73,74.3 C 62.73,75.7 63.74,77.1 64.81,78.44 65.88,79.78 66.99,81.1 68.26,82.24 L 67.96,82.4 C 67.9,81.45 68.28,80.62 68.65,79.84 69.05,79.06 69.53,78.33 70.03,77.62 70.54,76.92 71.08,76.24 71.65,75.6 72.23,74.96 72.82,74.32 73.52,73.8 L 73.55,73.85 Z M 73.55,73.85" />
            <path id="joe02Canvas-bezier81" stroke="none" fill="rgb(51, 91, 113)" d="M 89.09,70.96 C 89.56,72.14 89.93,73.35 90.19,74.6 90.31,75.22 90.39,75.86 90.41,76.5 90.42,77.14 90.37,77.8 90.15,78.44 L 89.79,78.21 C 90.32,77.63 90.75,76.94 91.1,76.22 91.46,75.5 91.73,74.74 92,73.99 92.26,73.22 92.52,72.45 92.71,71.66 92.94,70.87 93.12,70.08 93.31,69.28 L 93.37,69.28 C 93.38,70.11 93.28,70.94 93.16,71.76 93.01,72.57 92.85,73.39 92.58,74.18 92.34,74.98 91.99,75.75 91.59,76.48 91.18,77.21 90.7,77.91 90.1,78.51 L 89.34,79.29 89.74,78.29 C 89.96,77.74 90.04,77.12 90.05,76.5 90.06,75.88 90.01,75.26 89.92,74.64 89.74,73.4 89.43,72.18 89.03,70.98 L 89.09,70.96 Z M 89.09,70.96" />
            <path id="joe02Canvas-bezier82" stroke="none" fill="rgb(51, 91, 113)" d="M 100.22,49.84 C 101.72,50.03 103.25,50.29 104.65,50.97 105.35,51.3 105.97,51.77 106.57,52.25 106.87,52.48 107.17,52.72 107.48,52.93 107.79,53.14 108.11,53.39 108.38,53.68 109.45,54.83 110.19,56.2 110.87,57.58 111.54,58.97 112.11,60.4 112.62,61.85 113.1,63.31 113.6,64.78 113.84,66.33 114.08,67.87 114.13,69.42 114.08,70.97 114,72.52 113.84,74.06 113.54,75.57 113.22,77.08 112.83,78.59 112.09,79.95 L 112.04,79.93 C 112.33,79.22 112.54,78.49 112.71,77.75 112.88,77 113.02,76.25 113.12,75.5 113.34,73.99 113.47,72.47 113.48,70.96 113.51,69.44 113.45,67.92 113.25,66.42 113.06,64.93 112.61,63.47 112.16,62.01 111.69,60.56 111.15,59.13 110.52,57.75 109.87,56.38 109.16,55 108.17,53.88 107.92,53.61 107.64,53.37 107.32,53.15 107.01,52.93 106.71,52.68 106.42,52.44 105.83,51.95 105.24,51.48 104.57,51.13 103.22,50.44 101.71,50.13 100.21,49.9 L 100.22,49.84 Z M 100.22,49.84" />
            <path id="joe02Canvas-bezier83" stroke="none" fill="rgb(51, 91, 113)" d="M 115.23,69.28 C 115.2,71.65 115.24,74.02 115.39,76.38 115.47,77.56 115.57,78.74 115.75,79.9 115.84,80.48 115.96,81.06 116.12,81.61 116.27,82.16 116.55,82.67 116.79,83.22 117.03,83.76 117.28,84.31 117.47,84.9 117.66,85.47 117.8,86.13 117.63,86.8 117.46,87.47 116.98,88 116.48,88.37 115.98,88.74 115.41,89 114.89,89.25 112.78,90.26 110.76,91.48 108.76,92.73 L 108.72,92.68 C 110.53,91.15 112.52,89.84 114.62,88.71 115.16,88.44 115.67,88.2 116.11,87.86 116.55,87.54 116.92,87.13 117.05,86.64 117.2,86.16 117.12,85.6 116.96,85.05 116.8,84.51 116.58,83.96 116.35,83.42 116.13,82.88 115.85,82.33 115.7,81.73 115.54,81.14 115.44,80.55 115.36,79.96 115.21,78.77 115.14,77.58 115.09,76.4 115.02,74.02 115.06,71.65 115.17,69.28 L 115.23,69.28 Z M 115.23,69.28" />
            <path id="joe02Canvas-bezier84" stroke="none" fill="rgb(51, 91, 113)" d="M 108.77,73.3 C 108.79,74.84 108.82,76.38 108.9,77.91 108.98,79.45 109.08,80.99 109.36,82.49 109.51,83.23 109.69,83.98 110.08,84.61 110.16,84.8 110.31,84.95 110.26,85.29 110.21,85.46 110.09,85.54 110.01,85.6 L 109.78,85.77 C 109.5,85.98 109.28,86.27 109.11,86.59 108.43,87.92 108.38,89.5 108.1,91.01 107.6,94.06 107.01,97.1 106.1,100.06 105.62,101.53 105.11,103 104.43,104.4 104.09,105.1 103.72,105.78 103.27,106.42 102.81,107.05 102.29,107.66 101.6,108.03 L 101.57,107.98 C 102.19,107.54 102.65,106.92 103.04,106.27 103.43,105.62 103.76,104.93 104.05,104.23 104.64,102.82 105.11,101.36 105.52,99.89 106.35,96.94 107.07,93.95 107.63,90.93 107.93,89.44 108,87.84 108.77,86.41 108.96,86.05 109.23,85.72 109.56,85.47 109.71,85.36 109.93,85.23 109.92,85.19 109.94,85.14 109.86,84.93 109.77,84.78 109.38,84.09 109.2,83.3 109.07,82.54 108.82,81.01 108.76,79.46 108.72,77.92 108.68,76.38 108.69,74.84 108.71,73.3 L 108.77,73.3 Z M 108.77,73.3" />
            <path id="joe02Canvas-bezier85" stroke="none" fill="rgb(51, 91, 113)" d="M 102.53,108.67 C 102.7,110.23 102.48,111.83 101.92,113.28 101.51,114.78 101.24,116.32 100.97,117.85 100.47,120.92 100.06,124.02 99.98,127.12 99.96,127.9 99.97,128.67 100.06,129.44 100.11,129.82 100.17,130.2 100.29,130.54 100.35,130.72 100.42,130.88 100.53,131.01 100.58,131.07 100.63,131.13 100.69,131.16 100.77,131.2 100.86,131.25 100.96,131.33 101.3,131.62 101.49,131.98 101.68,132.33 101.86,132.69 102.01,133.06 102.14,133.43 102.41,134.17 102.63,134.93 102.82,135.69 103.57,138.73 104,141.83 104.27,144.95 104.41,146.51 104.49,148.07 104.49,149.64 104.49,150.43 104.46,151.21 104.4,152 104.38,152.39 104.34,152.79 104.29,153.18 104.23,153.57 104.18,153.95 104.16,154.32 104.08,155.84 104.25,157.39 104.47,158.92 104.69,160.45 104.99,161.97 105.32,163.49 105.94,166.54 106.69,169.56 107.39,172.6 107.74,174.12 108.09,175.64 108.39,177.18 108.67,178.71 108.98,180.26 108.93,181.83 L 108.87,181.83 C 108.84,180.27 108.47,178.75 108.12,177.23 107.77,175.72 107.38,174.21 106.99,172.7 106.2,169.69 105.41,166.67 104.73,163.62 104.4,162.09 104.1,160.56 103.88,159 103.66,157.45 103.48,155.88 103.57,154.28 104.06,151.17 104.02,148.1 103.8,144.99 103.56,141.89 103.15,138.8 102.44,135.78 102.26,135.03 102.05,134.28 101.8,133.55 101.67,133.19 101.53,132.83 101.36,132.5 101.19,132.16 101,131.82 100.74,131.6 100.7,131.56 100.61,131.51 100.52,131.46 100.41,131.4 100.33,131.31 100.26,131.22 100.12,131.05 100.04,130.85 99.97,130.65 99.84,130.26 99.78,129.87 99.74,129.47 99.65,128.69 99.65,127.9 99.67,127.12 99.8,123.98 100.25,120.89 100.79,117.82 101.08,116.28 101.37,114.75 101.81,113.25 102.38,111.8 102.61,110.23 102.47,108.68 L 102.53,108.67 Z M 102.53,108.67" />
            <path id="joe02Canvas-bezier86" stroke="none" fill="rgb(51, 91, 113)" d="M 113.11,92.13 C 113.25,95.31 113.26,98.49 113.09,101.67 113,103.26 112.91,104.86 112.59,106.44 112.42,107.22 112.23,108.01 111.95,108.77 111.66,109.51 111.31,110.29 110.66,110.8 L 110.62,110.76 C 110.87,110.46 111.06,110.11 111.19,109.75 111.34,109.39 111.46,109.02 111.55,108.64 111.74,107.88 111.89,107.11 112,106.33 112.24,104.78 112.46,103.22 112.61,101.64 112.76,100.06 112.86,98.48 112.92,96.89 113,95.31 113.04,93.72 113.05,92.13 L 113.11,92.13 Z M 113.11,92.13" />
            <path id="joe02Canvas-bezier87" stroke="none" fill="rgb(51, 91, 113)" d="M 113.13,109.24 C 113.96,111.92 114.65,114.64 115.2,117.4 115.74,120.15 116.15,122.94 116.14,125.77 116.02,128.58 116.07,131.37 116.11,134.18 116.16,136.98 116.23,139.79 116.32,142.59 L 116.63,151 116.97,159.4 C 117.07,162.2 117.19,165.01 117.33,167.81 117.39,169.21 117.47,170.61 117.56,172 117.66,173.4 117.72,174.81 117.99,176.18 L 117.93,176.19 C 117.32,173.44 117.16,170.63 116.91,167.83 116.69,165.03 116.53,162.23 116.37,159.43 L 116.04,151.02 115.84,142.6 C 115.78,139.8 115.74,136.99 115.72,134.18 115.71,131.38 115.69,128.56 115.84,125.77 115.9,122.98 115.52,120.18 115.03,117.43 114.51,114.68 113.86,111.95 113.07,109.26 L 113.13,109.24 Z M 113.13,109.24" />
            <path id="joe02Canvas-bezier88" stroke="none" fill="rgb(51, 91, 113)" d="M 82.56,90.13 C 82.55,90.39 82.52,90.66 82.44,90.92 82.37,91.17 82.24,91.5 81.82,91.55 81.77,91.55 81.64,91.53 81.57,91.5 81.49,91.46 81.42,91.41 81.36,91.35 81.25,91.24 81.17,91.11 81.1,90.98 80.97,90.7 80.91,90.42 80.9,90.12 80.88,89.85 80.91,89.53 81.01,89.23 81.06,89.09 81.14,88.94 81.26,88.8 81.4,88.67 81.57,88.54 81.86,88.55 81.89,88.55 82.08,88.59 82.15,88.65 82.24,88.7 82.31,88.77 82.36,88.84 82.46,88.99 82.51,89.14 82.54,89.29 82.59,89.58 82.57,89.86 82.56,90.13 Z M 82.5,90.12 C 82.49,89.86 82.39,89.61 82.24,89.41 82.09,89.21 81.9,89.12 81.81,89.15 81.82,89.16 81.63,89.27 81.55,89.47 81.45,89.66 81.39,89.87 81.37,90.13 81.36,90.35 81.38,90.61 81.46,90.82 81.54,91.04 81.66,91.23 81.85,91.25 81.98,91.28 82.21,91.09 82.33,90.87 82.46,90.65 82.51,90.39 82.5,90.12 Z M 82.5,90.12" />
            <path id="joe02Canvas-bezier89" stroke="none" fill="rgb(51, 91, 113)" d="M 83.51,113.13 C 83.47,113.39 83.41,113.65 83.31,113.91 83.21,114.15 83.03,114.46 82.64,114.47 82.25,114.42 82.07,114.08 81.97,113.82 81.87,113.54 81.84,113.24 81.85,112.95 81.87,112.67 81.92,112.36 82.05,112.08 82.12,111.94 82.21,111.8 82.35,111.67 82.5,111.55 82.68,111.45 82.97,111.49 83,111.49 83.18,111.55 83.25,111.61 83.33,111.68 83.39,111.75 83.44,111.83 83.52,111.98 83.55,112.14 83.57,112.29 83.59,112.59 83.54,112.86 83.51,113.13 Z M 83.45,113.12 C 83.46,112.86 83.39,112.59 83.26,112.38 83.13,112.17 82.96,112.05 82.86,112.08 82.87,112.09 82.67,112.18 82.57,112.37 82.45,112.55 82.37,112.76 82.33,113 82.29,113.24 82.29,113.48 82.34,113.71 82.39,113.93 82.51,114.14 82.67,114.17 82.83,114.22 83.06,114.05 83.2,113.85 83.35,113.64 83.43,113.38 83.45,113.12 Z M 83.45,113.12" />
            <path id="joe02Canvas-bezier90" stroke="none" fill="rgb(51, 91, 113)" d="M 84.68,133.06 C 84.7,133.32 84.71,133.59 84.67,133.87 84.63,134.12 84.54,134.47 84.14,134.57 84.09,134.58 83.96,134.58 83.88,134.55 83.8,134.53 83.72,134.48 83.66,134.44 83.53,134.34 83.43,134.22 83.35,134.1 83.18,133.85 83.09,133.58 83.03,133.28 82.98,133.01 82.96,132.69 83.02,132.39 83.06,132.23 83.11,132.07 83.22,131.92 83.33,131.77 83.49,131.62 83.78,131.59 83.8,131.59 84,131.6 84.08,131.65 84.17,131.69 84.25,131.75 84.31,131.82 84.43,131.95 84.49,132.09 84.54,132.23 84.64,132.52 84.65,132.79 84.68,133.06 Z M 84.62,133.07 C 84.58,132.81 84.44,132.57 84.27,132.4 84.09,132.22 83.9,132.15 83.8,132.19 83.82,132.2 83.65,132.34 83.6,132.54 83.52,132.75 83.49,132.97 83.51,133.23 83.53,133.45 83.58,133.7 83.68,133.9 83.79,134.1 83.94,134.28 84.12,134.27 84.26,134.28 84.47,134.06 84.55,133.83 84.65,133.6 84.67,133.32 84.62,133.07 Z M 84.62,133.07" />
            <path id="joe02Canvas-bezier91" stroke="none" fill="rgb(51, 91, 113)" d="M 61.89,49.89 C 61.52,50.37 61.38,50.97 61.34,51.56 61.31,51.86 61.3,52.16 61.26,52.49 61.22,52.64 61.25,52.84 60.99,53.04 60.85,53.12 60.69,53.11 60.59,53.08 60.49,53.05 60.41,53.01 60.33,52.97 59.82,52.63 59.4,52.76 59,53.08 58.61,53.41 58.27,53.9 58.18,54.5 L 58.12,54.51 C 57.99,54.21 58,53.85 58.09,53.53 58.18,53.2 58.35,52.9 58.59,52.64 58.83,52.38 59.19,52.19 59.59,52.18 59.78,52.18 59.97,52.22 60.14,52.29 60.22,52.33 60.32,52.38 60.39,52.42 L 60.58,52.55 C 60.68,52.64 60.8,52.66 60.77,52.66 60.78,52.69 60.86,52.54 60.88,52.41 60.94,52.14 60.98,51.82 61.04,51.52 61.17,50.91 61.4,50.29 61.84,49.85 L 61.89,49.89 Z M 61.89,49.89" />
        </g>
    </g>
</svg>
