<?xml version="1.0" encoding="UTF-8"?>
<!DOCTYPE svg PUBLIC "-//W3C//DTD SVG 1.1//EN" "http://www.w3.org/Graphics/SVG/1.1/DTD/svg11.dtd">
<svg version="1.1" xmlns="http://www.w3.org/2000/svg" xmlns:xlink="http://www.w3.org/1999/xlink" width="130" height="378"  xml:space="preserve" id="joe05Canvas">
    <!-- Generated by PaintCode - http://www.paintcodeapp.com -->
    <g id="joe05Canvas-lines">
        <g id="joe05Canvas-group2">
            <g id="joe05Canvas-group3">
                <path id="joe05Canvas-bezier" stroke="none" fill="rgb(51, 91, 113)" d="M 31.1,179.12 C 30.77,183.15 30.49,187.19 30.3,191.23 L 30.09,197.29 C 29.99,199.3 29.93,201.32 29.91,203.34 L 29.84,203.35 C 29.47,201.34 29.43,199.3 29.41,197.27 29.42,195.24 29.59,193.22 29.75,191.2 30.07,187.16 30.5,183.13 31.03,179.11 L 31.1,179.12 Z M 31.1,179.12" />
                <path id="joe05Canvas-bezier2" stroke="none" fill="rgb(51, 91, 113)" d="M 29.91,205.1 L 29.21,224.04 C 28.99,230.35 28.79,236.66 28.62,242.98 L 28.43,252.45 C 28.36,255.61 28.3,258.76 28.28,261.92 28.25,265.07 28.19,268.24 28.39,271.36 28.43,271.75 28.46,272.14 28.54,272.51 28.63,272.85 28.78,273.25 28.86,273.65 29.04,274.44 29.1,275.25 29.02,276.05 28.94,276.86 28.72,277.64 28.44,278.38 28.31,278.75 28.15,279.12 28.03,279.49 27.91,279.85 27.8,280.28 28.07,280.57 L 28.02,280.62 C 27.7,280.3 27.81,279.82 27.9,279.45 28.01,279.07 28.15,278.7 28.26,278.32 28.5,277.57 28.68,276.81 28.71,276.03 28.76,275.26 28.67,274.48 28.48,273.74 28.38,273.36 28.24,273.02 28.12,272.61 28.02,272.2 27.97,271.81 27.92,271.41 27.62,268.24 27.64,265.08 27.6,261.91 27.62,258.75 27.68,255.59 27.75,252.43 L 28.08,242.96 C 28.54,230.33 29.15,217.71 29.84,205.09 L 29.91,205.1 Z M 29.91,205.1" />
                <path id="joe05Canvas-bezier3" stroke="none" fill="rgb(51, 91, 113)" d="M 100.33,179.11 C 100.88,183.12 101.34,187.15 101.67,191.19 101.84,193.21 102.03,195.24 102.03,197.27 102.02,199.3 101.98,201.34 101.6,203.35 L 101.53,203.34 C 101.52,201.32 101.46,199.3 101.35,197.29 L 101.13,191.23 C 100.91,187.19 100.62,183.15 100.26,179.12 L 100.33,179.11 Z M 100.33,179.11" />
                <path id="joe05Canvas-bezier4" stroke="none" fill="rgb(51, 91, 113)" d="M 101.6,205.1 C 102.33,217.72 102.98,230.34 103.47,242.98 L 103.82,252.46 C 103.89,255.62 103.96,258.78 103.97,261.94 103.97,263.52 103.95,265.11 103.91,266.69 103.86,268.27 103.82,269.86 103.63,271.44 103.59,271.84 103.53,272.24 103.42,272.64 103.28,273.06 103.14,273.38 103.04,273.77 102.83,274.51 102.75,275.28 102.8,276.05 102.84,276.83 103.03,277.59 103.29,278.33 103.42,278.71 103.56,279.08 103.67,279.46 103.73,279.65 103.78,279.85 103.78,280.06 103.79,280.26 103.71,280.48 103.55,280.62 L 103.5,280.57 C 103.8,280.29 103.67,279.85 103.55,279.5 103.42,279.13 103.26,278.77 103.11,278.4 102.81,277.66 102.58,276.89 102.49,276.08 102.4,275.28 102.47,274.46 102.66,273.67 102.74,273.28 102.91,272.87 103,272.53 103.09,272.17 103.13,271.78 103.16,271.39 103.38,268.27 103.33,265.1 103.29,261.95 103.28,258.79 103.22,255.63 103.14,252.47 L 102.93,243 C 102.75,236.68 102.53,230.36 102.29,224.05 L 101.53,205.1 101.6,205.1 Z M 101.6,205.1" />
                <path id="joe05Canvas-bezier5" stroke="none" fill="rgb(51, 91, 113)" d="M 103.3,281.63 C 102.96,290.42 102.6,299.22 102.18,308.01 101.95,312.41 101.73,316.8 101.39,321.2 100.87,325.57 100.75,329.96 100.62,334.36 100.52,338.76 100.48,343.16 100.5,347.55 100.52,351.95 100.53,356.35 100.82,360.73 100.86,361.27 100.9,361.82 100.96,362.35 101.02,362.88 101.09,363.46 101.25,363.88 101.29,363.97 101.3,363.98 101.34,364.11 101.37,364.23 101.37,364.35 101.35,364.46 101.3,364.7 101.15,364.87 101.01,364.97 100.72,365.19 100.43,365.28 100.15,365.36 99.57,365.51 99.01,365.57 98.44,365.62 96.19,365.77 93.95,365.6 91.73,365.34 89.52,365.06 87.31,364.68 85.18,363.97 84.65,363.78 84.13,363.56 83.63,363.28 83.13,363 82.73,362.61 82.28,362.29 81.84,361.96 81.39,361.64 80.93,361.33 80.7,361.18 80.46,361.04 80.22,360.9 79.99,360.78 79.71,360.63 79.48,360.62 L 79.45,360.56 C 79.78,360.55 80.01,360.71 80.27,360.82 80.52,360.94 80.76,361.08 81,361.23 81.47,361.51 81.93,361.82 82.39,362.14 82.86,362.45 83.28,362.82 83.75,363.06 84.24,363.31 84.75,363.5 85.28,363.67 87.38,364.33 89.58,364.67 91.78,364.91 93.98,365.13 96.21,365.25 98.39,365.06 98.94,365.01 99.48,364.94 99.98,364.79 100.23,364.72 100.47,364.62 100.63,364.5 100.7,364.44 100.74,364.38 100.74,364.34 100.75,364.33 100.74,364.3 100.74,364.29 100.75,364.28 100.69,364.16 100.68,364.14 100.43,363.52 100.39,362.99 100.31,362.43 100.24,361.88 100.18,361.33 100.14,360.77 99.64,351.95 99.83,343.15 100.08,334.34 100.24,329.95 100.4,325.52 100.95,321.16 101.32,316.78 101.58,312.38 101.84,307.99 102.35,299.21 102.8,290.41 103.23,281.62 L 103.3,281.63 Z M 103.3,281.63" />
                <path id="joe05Canvas-bezier6" stroke="none" fill="rgb(51, 91, 113)" d="M 78.11,358.72 C 77.52,351.52 77.07,344.31 76.86,337.09 76.76,333.47 76.66,329.86 76.94,326.23 77.01,325.33 77.11,324.42 77.26,323.52 77.42,322.63 77.57,321.69 78.06,320.86 78.3,320.46 78.54,320.06 78.85,319.7 79.16,319.36 79.54,318.99 80.08,318.92 80.35,318.89 80.61,318.96 80.82,319.07 81.02,319.16 81.25,319.34 81.37,319.32 81.48,319.29 81.56,319.01 81.59,318.81 81.63,318.59 81.65,318.37 81.68,318.14 L 81.74,318.15 C 81.75,318.37 81.74,318.6 81.73,318.83 81.72,318.94 81.7,319.06 81.67,319.18 81.64,319.28 81.61,319.44 81.43,319.51 81.25,319.55 81.13,319.48 81.03,319.44 80.92,319.39 80.82,319.34 80.72,319.3 80.52,319.22 80.32,319.19 80.13,319.22 79.74,319.29 79.42,319.61 79.16,319.95 78.9,320.29 78.68,320.68 78.49,321.08 78.09,321.84 77.96,322.72 77.84,323.61 77.73,324.49 77.66,325.38 77.62,326.28 77.44,329.86 77.38,333.47 77.41,337.08 77.44,340.68 77.54,344.29 77.68,347.9 77.81,351.5 77.98,355.11 78.18,358.71 L 78.11,358.72 Z M 78.11,358.72" />
                <path id="joe05Canvas-bezier7" stroke="none" fill="rgb(51, 91, 113)" d="M 80.62,255.68 C 79.93,258.15 79.1,260.59 77.93,262.88 77.33,264.01 76.65,265.13 75.75,266.07 75.29,266.54 74.74,266.89 74.35,267.38 73.95,267.86 73.65,268.43 73.49,269.03 73.16,270.24 73.39,271.53 73.82,272.71 74.25,273.9 74.88,275.02 75.57,276.09 L 76.64,277.69 C 76.72,277.83 76.81,277.98 76.88,278.13 76.95,278.27 77.02,278.4 77.1,278.55 77.25,278.82 77.42,279.1 77.56,279.4 77.86,280 77.98,280.71 77.88,281.37 77.79,282.04 77.54,282.66 77.24,283.24 77.1,283.52 76.88,283.83 76.78,284.07 76.66,284.34 76.59,284.65 76.53,284.95 76.42,285.56 76.37,286.2 76.33,286.83 76.26,288.1 76.27,289.37 76.29,290.65 76.35,293.2 76.51,295.75 76.7,298.3 77.09,303.39 77.64,308.48 78.22,313.55 L 78.2,313.47 C 78.44,314.05 78.74,314.65 79.12,315.1 79.3,315.34 79.55,315.47 79.58,315.41 79.68,315.39 79.86,315.1 79.95,314.82 80.05,314.54 80.13,314.22 80.19,313.91 80.25,313.6 80.29,313.25 80.42,312.89 80.66,312.21 81.05,311.62 81.48,311.08 82.35,310.02 83.37,309.14 84.35,308.24 85.34,307.34 86.32,306.45 87.23,305.49 89.06,303.59 90.64,301.43 91.65,299 92.66,296.57 93.14,293.93 93.16,291.28 L 93.22,291.28 C 93.31,293.93 92.97,296.63 91.99,299.13 91.03,301.64 89.48,303.91 87.65,305.87 86.73,306.86 85.76,307.78 84.78,308.69 83.81,309.6 82.83,310.5 82.02,311.5 81.61,312 81.26,312.54 81.06,313.11 80.96,313.38 80.92,313.69 80.86,314.04 80.79,314.37 80.71,314.71 80.59,315.05 80.53,315.22 80.46,315.39 80.35,315.56 80.24,315.73 80.1,315.92 79.83,316.04 79.55,316.16 79.23,316.06 79.05,315.94 78.86,315.82 78.72,315.68 78.6,315.54 78.13,314.96 77.84,314.35 77.57,313.71 L 77.55,313.68 77.55,313.63 C 76.96,308.54 76.51,303.44 76.16,298.33 76,295.78 75.86,293.22 75.82,290.65 75.81,289.37 75.81,288.09 75.89,286.8 75.94,286.16 76,285.52 76.12,284.87 76.18,284.55 76.26,284.23 76.4,283.91 76.56,283.57 76.73,283.35 76.88,283.06 77.17,282.51 77.41,281.92 77.5,281.32 77.59,280.72 77.49,280.11 77.23,279.56 77.1,279.27 76.94,279 76.78,278.72 76.71,278.58 76.63,278.43 76.56,278.28 76.49,278.14 76.42,278.01 76.34,277.88 L 75.29,276.26 C 74.61,275.17 73.98,274.03 73.55,272.81 73.12,271.59 72.89,270.24 73.25,268.96 73.43,268.33 73.75,267.74 74.18,267.24 74.6,266.72 75.17,266.37 75.6,265.92 76.5,265.02 77.18,263.92 77.79,262.8 78.98,260.54 79.84,258.12 80.56,255.66 L 80.62,255.68 Z M 80.62,255.68" />
                <path id="joe05Canvas-bezier8" stroke="none" fill="rgb(51, 91, 113)" d="M 72.13,255.48 C 71.23,250.93 70.37,246.37 69.54,241.81 69.12,239.53 68.67,237.25 68.34,234.96 68.03,232.66 67.71,230.36 67.54,228.04 L 67.61,228.03 C 68.16,230.29 68.58,232.57 69.01,234.85 69.43,237.13 69.73,239.43 70.08,241.72 L 72.19,255.46 72.13,255.48 Z M 72.13,255.48" />
                <path id="joe05Canvas-bezier9" stroke="none" fill="rgb(51, 91, 113)" d="M 72.99,182.58 C 72.96,186.07 72.86,189.56 72.66,193.06 72.57,194.8 72.5,196.55 72.25,198.29 72.11,199.15 71.98,200.02 71.78,200.88 71.56,201.73 71.38,202.62 70.86,203.37 L 70.8,203.33 C 70.98,202.94 71.06,202.51 71.13,202.09 71.21,201.66 71.26,201.23 71.31,200.8 71.41,199.94 71.51,199.08 71.57,198.21 71.73,196.48 71.96,194.75 72.12,193.02 72.44,189.54 72.69,186.06 72.92,182.58 L 72.99,182.58 Z M 72.99,182.58" />
                <path id="joe05Canvas-bezier10" stroke="none" fill="rgb(51, 91, 113)" d="M 93.41,180.82 C 93.74,181.46 94.28,181.98 94.79,182.5 95.31,183.02 95.86,183.5 96.44,183.93 97.02,184.37 97.66,184.7 98.26,185.06 98.88,185.42 99.51,185.72 100.23,185.94 L 100.23,186 C 99.46,186.16 98.66,185.97 97.95,185.67 97.24,185.36 96.65,184.85 96.09,184.35 95.53,183.84 95.01,183.3 94.54,182.73 94.09,182.13 93.61,181.55 93.35,180.84 L 93.41,180.82 Z M 93.41,180.82" />
                <path id="joe05Canvas-bezier11" stroke="none" fill="rgb(51, 91, 113)" d="M 49.1,180.86 C 47.93,181.87 46.63,182.72 45.29,183.51 43.94,184.29 42.54,184.97 41.1,185.57 39.66,186.18 38.19,186.73 36.67,187.09 35.15,187.43 33.6,187.69 32.04,187.73 L 32.03,187.66 C 33.53,187.24 35.02,186.89 36.5,186.44 37.97,186 39.45,185.6 40.9,185.07 42.34,184.54 43.76,183.93 45.12,183.22 46.49,182.52 47.83,181.74 49.05,180.8 L 49.1,180.86 Z M 49.1,180.86" />
                <path id="joe05Canvas-bezier12" stroke="none" fill="rgb(51, 91, 113)" d="M 74.16,251.89 C 74.89,253 75.55,254.21 75.69,255.6 75.74,256.29 75.52,257.09 74.91,257.55 74.63,257.79 74.24,257.92 73.99,258.05 73.72,258.19 73.47,258.38 73.27,258.6 72.45,259.54 72.22,260.87 72.24,262.11 72.26,262.73 72.37,263.36 72.64,263.9 72.9,264.45 73.44,264.85 74.13,264.81 L 74.14,264.88 C 73.81,264.99 73.43,264.99 73.08,264.85 72.73,264.71 72.45,264.44 72.24,264.15 71.81,263.55 71.63,262.84 71.56,262.15 71.45,260.75 71.86,259.28 72.88,258.23 73.13,257.98 73.43,257.76 73.77,257.61 74.12,257.46 74.39,257.39 74.64,257.2 75.14,256.86 75.36,256.25 75.35,255.61 75.32,254.33 74.75,253.07 74.1,251.93 L 74.16,251.89 Z M 74.16,251.89" />
                <path id="joe05Canvas-bezier13" stroke="none" fill="rgb(51, 91, 113)" d="M 78.26,319.15 C 77.92,319.08 77.59,318.91 77.32,318.64 77.07,318.37 76.91,317.98 76.89,317.59 76.87,317.22 76.9,316.81 77.09,316.5 77.28,316.18 77.53,315.91 77.87,315.74 L 77.93,315.78 C 77.89,316.16 77.8,316.47 77.72,316.77 77.64,317.06 77.48,317.32 77.44,317.61 77.34,318.17 77.68,318.78 78.28,319.09 L 78.26,319.15 Z M 78.26,319.15" />
                <path id="joe05Canvas-bezier14" stroke="none" fill="rgb(51, 91, 113)" d="M 79.43,362.09 C 79.36,362.96 79.33,363.84 79.34,364.71 79.36,365.57 79.4,366.46 79.67,367.27 79.74,367.46 79.84,367.66 79.98,367.78 80.05,367.85 80.13,367.86 80.26,367.94 80.36,368.01 80.44,368.08 80.53,368.16 80.85,368.47 81.13,368.82 81.41,369.16 81.96,369.85 82.47,370.56 83,371.26 84.06,372.66 85.11,374.07 86.36,375.27 86.99,375.85 87.67,376.42 88.47,376.6 89.3,376.79 90.18,376.88 91.05,376.94 92.8,377.07 94.56,377.08 96.31,376.97 97.18,376.91 98.06,376.83 98.9,376.68 99.33,376.6 99.74,376.5 100.13,376.37 100.51,376.25 100.92,376.04 101.01,375.84 101.04,375.82 101.04,375.53 101.06,375.32 L 101.09,374.68 C 101.1,374.25 101.11,373.83 101.09,373.4 101.05,372.54 100.94,371.69 100.7,370.88 100.48,370.06 100.13,369.27 99.64,368.56 99.16,367.85 98.54,367.23 97.92,366.61 L 97.96,366.56 C 98.66,367.09 99.35,367.67 99.91,368.37 100.48,369.07 100.91,369.88 101.2,370.73 101.48,371.58 101.64,372.47 101.71,373.36 101.75,373.81 101.76,374.25 101.77,374.7 L 101.75,375.36 101.73,375.69 C 101.73,375.77 101.72,375.99 101.64,376.14 101.49,376.45 101.25,376.61 101.03,376.74 100.81,376.87 100.59,376.96 100.37,377.04 99.92,377.19 99.47,377.28 99.02,377.35 98.13,377.5 97.24,377.57 96.35,377.61 94.56,377.68 92.78,377.62 91.01,377.46 90.12,377.37 89.24,377.27 88.35,377.05 87.41,376.82 86.7,376.18 86.06,375.57 84.8,374.3 83.77,372.87 82.74,371.45 82.23,370.74 81.73,370.02 81.2,369.32 80.94,368.97 80.67,368.62 80.37,368.32 80.29,368.25 80.21,368.18 80.13,368.12 80.08,368.07 79.93,368.03 79.84,367.94 79.66,367.76 79.56,367.55 79.48,367.33 79.21,366.47 79.21,365.58 79.21,364.71 79.21,363.83 79.27,362.96 79.36,362.09 L 79.43,362.09 Z M 79.43,362.09" />
                <path id="joe05Canvas-bezier15" stroke="none" fill="rgb(51, 91, 113)" d="M 30.26,360.83 C 30.17,361.8 30.13,362.78 30.15,363.75 30.18,364.71 30.22,365.72 30.59,366.59 30.69,366.79 30.83,366.99 31.02,367.08 31.26,367.17 31.46,367.36 31.64,367.52 32,367.87 32.32,368.25 32.63,368.62 33.26,369.38 33.86,370.15 34.47,370.92 35.69,372.44 36.92,373.98 38.37,375.26 39.11,375.88 39.89,376.45 40.83,376.59 41.77,376.78 42.75,376.87 43.73,376.94 45.68,377.07 47.65,377.08 49.6,376.97 50.58,376.91 51.55,376.83 52.51,376.68 52.98,376.6 53.46,376.5 53.91,376.37 54.34,376.25 54.81,376.07 55.05,375.82 55.1,375.77 55.13,375.71 55.14,375.66 L 55.15,375.63 55.16,375.53 55.17,375.35 C 55.19,375.11 55.2,374.87 55.2,374.63 55.22,374.16 55.23,373.68 55.21,373.2 55.17,372.25 55.04,371.3 54.77,370.39 54.5,369.48 54.1,368.6 53.52,367.84 52.96,367.06 52.25,366.38 51.52,365.72 L 51.56,365.67 C 52.35,366.26 53.14,366.86 53.79,367.63 54.43,368.39 54.93,369.28 55.27,370.23 55.59,371.18 55.77,372.17 55.84,373.16 55.88,373.66 55.9,374.16 55.89,374.65 55.88,374.9 55.87,375.15 55.86,375.39 L 55.85,375.58 55.84,375.67 C 55.84,375.71 55.83,375.76 55.82,375.81 55.78,376 55.68,376.16 55.57,376.29 55.11,376.75 54.6,376.89 54.11,377.05 53.61,377.19 53.11,377.28 52.62,377.35 51.62,377.5 50.63,377.57 49.63,377.61 47.65,377.68 45.67,377.62 43.69,377.46 42.7,377.37 41.71,377.27 40.73,377.05 40.24,376.96 39.71,376.76 39.29,376.49 38.86,376.22 38.46,375.9 38.09,375.57 36.62,374.23 35.41,372.67 34.21,371.12 33.01,369.56 31.93,367.95 30.41,366.67 30.03,365.72 30.03,364.72 30.02,363.75 30.02,362.77 30.09,361.8 30.2,360.83 L 30.26,360.83 Z M 30.26,360.83" />
                <path id="joe05Canvas-bezier16" stroke="none" fill="rgb(51, 91, 113)" d="M 32.06,358.69 C 33.38,359.97 34.89,361.07 36.49,361.98 38.09,362.89 39.82,363.6 41.62,364 43.42,364.44 45.29,364.36 47.14,364.4 48.99,364.41 50.87,364.45 52.68,364.31 L 52.56,364.44 C 53.49,357.77 53.99,351.04 53.98,344.31 53.97,342.63 53.92,340.95 53.83,339.27 53.72,337.6 53.67,335.89 53.65,334.21 53.62,330.83 53.71,327.46 53.82,324.09 53.94,320.72 54.12,317.35 54.32,313.98 54.51,310.62 54.76,307.25 55.05,303.89 55.33,300.53 55.63,297.18 55.96,293.82 56.13,292.14 56.29,290.46 56.5,288.79 56.73,287.12 56.89,285.44 57.26,283.78 L 57.32,283.8 C 57.02,285.45 56.92,287.14 56.76,288.82 L 56.34,293.85 C 56.08,297.21 55.84,300.57 55.62,303.94 55.22,310.66 54.75,317.38 54.48,324.11 54.33,327.48 54.21,330.84 54.21,334.21 54.2,335.89 54.25,337.56 54.34,339.25 54.42,340.94 54.45,342.62 54.45,344.31 54.4,351.07 53.86,357.81 52.85,364.48 L 52.84,364.6 52.73,364.61 C 50.84,364.74 49,364.67 47.14,364.64 45.29,364.58 43.4,364.64 41.58,364.18 39.76,363.76 38.03,363.02 36.42,362.09 34.82,361.15 33.32,360.04 32.01,358.74 L 32.06,358.69 Z M 32.06,358.69" />
                <path id="joe05Canvas-bezier17" stroke="none" fill="rgb(51, 91, 113)" d="M 54.94,281.15 C 55.23,277.96 55.57,274.77 55.98,271.6 56.39,268.42 56.86,265.25 57.51,262.11 57.86,260.54 58.22,258.97 58.82,257.46 58.98,257.08 59.15,256.71 59.38,256.35 59.59,256.03 59.74,255.68 59.89,255.31 60.17,254.57 60.41,253.81 60.63,253.05 61.5,249.98 62.19,246.85 62.87,243.72 63.53,240.59 64.15,237.45 64.74,234.31 65.36,231.17 65.95,228.02 66.52,224.87 L 68.27,215.43 69.11,210.71 C 69.39,209.13 69.69,207.56 69.86,205.97 L 69.93,205.97 C 69.7,209.18 69.2,212.34 68.74,215.51 68.26,218.68 67.73,221.84 67.19,224.99 66.62,228.14 66.02,231.29 65.41,234.43 64.77,237.57 64.11,240.71 63.4,243.84 62.69,246.96 61.97,250.08 61.06,253.17 60.82,253.94 60.58,254.7 60.28,255.46 60.12,255.83 59.96,256.22 59.72,256.57 59.51,256.89 59.34,257.24 59.19,257.6 58.59,259.07 58.21,260.63 57.85,262.18 57.15,265.3 56.64,268.46 56.18,271.63 55.73,274.79 55.34,277.97 55.01,281.15 L 54.94,281.15 Z M 54.94,281.15" />
                <path id="joe05Canvas-bezier18" stroke="none" fill="rgb(51, 91, 113)" d="M 34.4,278.52 C 33.8,279.66 33.1,280.74 32.29,281.75 31.47,282.74 30.54,283.71 29.3,284.3 28.66,284.56 28.1,284.75 27.54,285.06 27,285.35 26.47,285.67 26.04,286.07 25.61,286.46 25.31,286.96 25.28,287.53 25.25,288.1 25.49,288.69 25.8,289.25 L 25.75,289.29 C 25.28,288.84 24.88,288.26 24.81,287.54 24.72,286.81 25.08,286.09 25.56,285.59 26.54,284.58 27.9,284.17 29.08,283.8 30.21,283.34 31.18,282.46 32.03,281.53 32.89,280.6 33.66,279.57 34.34,278.49 L 34.4,278.52 Z M 34.4,278.52" />
                <path id="joe05Canvas-bezier19" stroke="none" fill="rgb(51, 91, 113)" d="M 30.97,288.14 C 30.72,289.63 30.22,291.09 29.42,292.38 29.01,293.02 28.52,293.61 27.94,294.11 27.78,294.23 27.65,294.33 27.57,294.49 27.48,294.64 27.43,294.82 27.39,295 27.3,295.35 27.25,295.72 27.22,296.09 27.11,297.58 27.2,299.09 27.29,300.58 27.39,302.08 27.52,303.57 27.67,305.07 28.26,311.05 29.03,317.01 29.54,323.01 29.78,326.01 30,329.02 29.9,332.05 29.87,332.81 29.81,333.57 29.69,334.33 29.63,334.71 29.56,335.09 29.45,335.47 29.35,335.85 29.18,336.23 29.04,336.57 28.52,337.9 28.31,339.4 28.2,340.87 27.98,343.83 28.2,346.83 28.52,349.81 28.68,351.3 28.89,352.79 29.12,354.27 29.35,355.75 29.61,357.23 29.91,358.71 L 29.84,358.72 C 29.08,355.81 28.48,352.85 28.05,349.87 27.63,346.88 27.36,343.86 27.52,340.82 27.63,339.31 27.84,337.78 28.42,336.31 29.04,335 29.14,333.5 29.23,332.02 29.37,329.05 29.2,326.04 28.99,323.05 28.56,317.06 27.85,311.09 27.33,305.1 27.2,303.6 27.09,302.1 27.01,300.6 26.95,299.09 26.89,297.58 27.02,296.08 27.06,295.7 27.1,295.32 27.2,294.95 27.25,294.76 27.31,294.58 27.41,294.4 27.51,294.22 27.69,294.08 27.83,293.97 28.4,293.5 28.89,292.93 29.3,292.3 30.11,291.04 30.64,289.6 30.9,288.13 L 30.97,288.14 Z M 30.97,288.14" />
                <path id="joe05Canvas-bezier20" stroke="none" fill="rgb(51, 91, 113)" d="M 59.6,263.99 C 59.53,264.06 59.53,264.26 59.51,264.4 59.5,264.56 59.5,264.72 59.5,264.87 L 59.51,265.81 59.56,267.69 C 59.6,268.95 59.63,270.21 59.65,271.47 59.65,273.98 59.63,276.51 59.21,279.02 59.1,279.65 58.96,280.28 58.72,280.9 58.61,281.21 58.46,281.51 58.26,281.81 58.15,281.95 58.03,282.09 57.88,282.21 57.81,282.28 57.72,282.33 57.64,282.38 L 57.43,282.5 C 56.33,283.13 55.21,283.71 54.16,284.38 53.09,285.02 52.09,285.77 51.29,286.69 50.49,287.61 49.97,288.78 49.88,290.03 L 49.81,290.03 C 49.76,289.4 49.84,288.75 50.02,288.13 50.22,287.51 50.53,286.93 50.92,286.41 51.69,285.35 52.73,284.54 53.78,283.81 54.86,283.1 55.99,282.51 57.1,281.92 L 57.32,281.81 C 57.36,281.77 57.42,281.75 57.46,281.71 57.56,281.64 57.65,281.53 57.74,281.43 57.9,281.21 58.04,280.95 58.16,280.67 58.39,280.12 58.54,279.52 58.67,278.92 59.15,276.49 59.24,273.96 59.3,271.46 59.34,270.21 59.35,268.95 59.35,267.7 L 59.37,265.81 59.39,264.87 C 59.4,264.71 59.41,264.55 59.43,264.4 59.43,264.32 59.44,264.24 59.46,264.16 59.48,264.09 59.47,263.98 59.57,263.93 L 59.6,263.99 Z M 59.6,263.99" />
            </g>
            <path id="joe05Canvas-bezier21" stroke="none" fill="rgb(51, 91, 113)" d="M 52.9,6.56 C 53.38,6.52 53.8,6.73 54.2,6.94 54.6,7.15 54.97,7.42 55.33,7.7 56.02,8.27 56.66,8.91 57.25,9.58 57.85,10.25 58.45,10.93 58.92,11.69 59.39,12.45 59.82,13.24 60.13,14.1 L 60.07,14.13 C 59.44,13.47 58.9,12.77 58.36,12.08 57.83,11.38 57.36,10.63 56.83,9.93 56.3,9.23 55.74,8.55 55.1,7.95 54.79,7.64 54.46,7.36 54.1,7.11 53.74,6.88 53.34,6.64 52.91,6.62 L 52.9,6.56 Z M 52.9,6.56" />
            <path id="joe05Canvas-bezier22" stroke="none" fill="rgb(51, 91, 113)" d="M 60.62,14.79 C 60.95,15.47 61.21,16.18 61.38,16.92 61.47,17.29 61.53,17.66 61.54,18.05 61.57,18.43 61.46,18.82 61.51,19.16 61.6,19.88 61.94,20.56 62.33,21.19 62.72,21.82 63.17,22.41 63.65,22.99 63.88,23.28 64.14,23.56 64.35,23.9 64.56,24.24 64.71,24.6 64.83,24.97 65.07,25.7 65.19,26.46 65.29,27.21 65.47,28.71 65.55,30.21 65.63,31.72 65.77,34.72 65.86,37.78 65.11,40.77 64.91,41.51 64.65,42.25 64.29,42.94 63.93,43.64 63.47,44.26 62.92,44.81 62.38,45.36 61.66,45.85 60.85,45.91 60.05,45.97 59.33,45.71 58.6,45.91 L 58.57,45.85 C 59.3,45.54 60.12,45.74 60.81,45.6 61.52,45.49 62.1,45.04 62.57,44.49 63.04,43.94 63.47,43.33 63.77,42.68 64.08,42.03 64.29,41.32 64.45,40.61 65.09,37.74 65.15,34.72 65.09,31.74 65.04,30.24 65,28.74 64.85,27.26 64.77,26.52 64.67,25.78 64.46,25.08 64.36,24.73 64.22,24.4 64.04,24.09 63.86,23.79 63.61,23.5 63.38,23.2 62.92,22.6 62.48,21.99 62.09,21.33 61.72,20.67 61.38,19.96 61.31,19.18 61.27,18.77 61.39,18.41 61.37,18.05 61.37,17.68 61.33,17.31 61.25,16.95 61.11,16.22 60.87,15.5 60.56,14.82 L 60.62,14.79 Z M 60.62,14.79" />
            <path id="joe05Canvas-bezier23" stroke="none" fill="rgb(51, 91, 113)" d="M 61.38,45.58 C 61.71,46.78 62.02,47.99 62.31,49.2 62.45,49.81 62.65,50.4 62.72,51.02 62.8,51.64 62.84,52.26 62.78,52.91 L 62.71,52.92 C 62.41,52.35 62.22,51.75 62.06,51.15 61.89,50.55 61.86,49.92 61.77,49.3 61.6,48.07 61.45,46.83 61.31,45.59 L 61.38,45.58 Z M 61.38,45.58" />
            <path id="joe05Canvas-bezier24" stroke="none" fill="rgb(51, 91, 113)" d="M 61.32,57.34 C 61.87,56.7 62.14,55.89 62.35,55.08 62.55,54.27 62.67,53.44 62.74,52.6 62.89,50.94 62.89,49.25 62.8,47.58 L 62.76,46.81 63.14,47.48 C 63.88,48.77 64.59,50.06 65.25,51.38 65.41,51.72 65.57,52.05 65.72,52.4 65.86,52.75 66.02,53.08 66.09,53.5 66.14,54.32 66.05,55.02 66,55.77 65.86,57.24 65.68,58.71 65.45,60.17 65.35,60.9 65.21,61.63 65.06,62.35 64.98,62.72 64.9,63.08 64.81,63.45 64.76,63.63 64.71,63.81 64.65,63.99 64.57,64.18 64.54,64.35 64.38,64.59 L 63.83,65.42 63.81,64.42 C 63.78,63.17 63.48,61.92 63.09,60.71 62.89,60.11 62.65,59.51 62.38,58.93 62.25,58.64 62.1,58.36 61.94,58.08 61.86,57.95 61.77,57.81 61.67,57.69 61.58,57.57 61.47,57.42 61.35,57.39 L 61.28,57.38 61.32,57.34 Z M 61.4,57.34 C 61.57,57.38 61.66,57.51 61.78,57.6 61.89,57.72 61.99,57.85 62.09,57.98 62.29,58.25 62.46,58.52 62.63,58.8 62.96,59.37 63.24,59.96 63.5,60.56 64,61.77 64.34,63.06 64.44,64.39 L 63.87,64.22 C 63.91,64.15 63.98,63.96 64.02,63.8 64.07,63.63 64.11,63.46 64.15,63.28 64.24,62.93 64.31,62.58 64.38,62.22 L 64.78,60.06 C 65.02,58.61 65.25,57.16 65.43,55.71 65.51,55 65.61,54.23 65.58,53.57 65.47,52.94 65.12,52.24 64.83,51.59 64.21,50.26 63.52,48.95 62.83,47.66 L 63.17,47.56 C 63.23,49.26 63.16,50.95 62.97,52.63 62.86,53.47 62.72,54.3 62.49,55.12 62.26,55.91 61.96,56.72 61.4,57.34 Z M 61.4,57.34" />
            <path id="joe05Canvas-bezier25" stroke="none" fill="rgb(51, 91, 113)" d="M 51.49,6.43 C 50.87,6.96 49.93,7.17 49.16,6.81 48.96,6.72 48.79,6.61 48.61,6.58 48.42,6.54 48.22,6.54 48.02,6.55 47.63,6.58 47.23,6.65 46.84,6.75 45.27,7.13 43.77,7.75 42.14,8.06 41.74,8.14 41.31,8.18 40.89,8.14 40.5,8.1 40.13,8.15 39.81,8.32 39.15,8.66 38.71,9.38 38.08,9.94 37.77,10.23 37.42,10.48 37.03,10.66 L 35.91,11.16 C 35.18,11.5 34.43,11.83 33.86,12.3 33.57,12.54 33.36,12.83 33.37,13.11 33.37,13.36 33.6,13.79 33.72,14.17 33.99,14.95 34.2,15.77 34.22,16.63 34.25,17.48 34.06,18.39 33.58,19.14 33.15,19.83 32.6,20.48 32.38,21.13 32.15,21.74 32.62,22.39 33.18,22.93 33.47,23.19 33.78,23.53 34.01,23.89 34.25,24.24 34.44,24.62 34.59,25.01 34.88,25.79 35.05,26.61 35.09,27.44 35.11,27.85 35.1,28.26 35.04,28.67 34.98,29.07 34.89,29.5 34.61,29.83 L 34.56,29.78 C 34.78,29.46 34.82,29.04 34.85,28.65 34.87,28.26 34.84,27.86 34.79,27.46 34.69,26.68 34.48,25.9 34.15,25.19 33.81,24.48 33.4,23.86 32.78,23.35 32.47,23.07 32.17,22.76 31.93,22.36 31.69,21.97 31.59,21.41 31.73,20.94 31.87,20.48 32.11,20.12 32.33,19.78 L 32.99,18.77 C 33.39,18.14 33.57,17.4 33.56,16.64 33.55,15.88 33.38,15.11 33.14,14.36 L 32.95,13.79 C 32.89,13.63 32.78,13.37 32.8,13.1 32.81,12.55 33.18,12.15 33.51,11.89 34.2,11.35 34.97,11.04 35.72,10.72 L 36.83,10.24 C 37.18,10.08 37.5,9.87 37.79,9.61 38.39,9.12 38.82,8.39 39.63,7.97 40.04,7.77 40.5,7.73 40.92,7.78 41.31,7.83 41.69,7.79 42.09,7.73 43.67,7.47 45.2,6.89 46.8,6.55 47.2,6.47 47.6,6.4 48.02,6.38 48.23,6.38 48.44,6.38 48.64,6.43 48.87,6.48 49.04,6.6 49.21,6.68 49.93,7.04 50.83,6.88 51.44,6.38 L 51.49,6.43 Z M 51.49,6.43" />
            <path id="joe05Canvas-bezier26" stroke="none" fill="rgb(51, 91, 113)" d="M 31.68,28.72 C 31.33,29.12 30.92,29.48 30.42,29.75 29.94,30 29.26,30.14 28.68,29.8 28.19,29.46 27.84,29.41 27.49,29.5 27.13,29.6 26.77,29.96 26.52,30.43 L 26.45,30.43 C 26.34,29.86 26.61,29.2 27.23,28.88 27.55,28.71 27.95,28.73 28.25,28.86 28.55,28.97 28.81,29.22 28.97,29.35 29.31,29.61 29.81,29.61 30.29,29.44 30.77,29.28 31.23,29 31.64,28.67 L 31.68,28.72 Z M 31.68,28.72" />
            <path id="joe05Canvas-bezier27" stroke="none" fill="rgb(51, 91, 113)" d="M 34.21,38.94 C 34.8,39.29 35.36,39.71 35.82,40.26 36.27,40.79 36.63,41.56 36.4,42.36 36.09,43.08 36.17,43.47 36.5,44.01 36.65,44.28 36.88,44.55 37.03,44.93 37.1,45.11 37.14,45.34 37.08,45.55 37.01,45.75 36.89,45.91 36.75,46.02 L 36.69,45.98 C 37,45.27 36.4,45 35.94,44.39 35.71,44.11 35.52,43.69 35.54,43.26 35.55,42.84 35.77,42.43 35.88,42.19 36.11,41.65 35.91,40.99 35.55,40.45 35.2,39.9 34.71,39.41 34.17,38.99 L 34.21,38.94 Z M 34.21,38.94" />
            <path id="joe05Canvas-bezier28" stroke="none" fill="rgb(51, 91, 113)" d="M 36.11,48.43 C 35.29,48.39 34.46,48.25 33.67,47.98 32.91,47.71 32.08,47.25 31.82,46.39 31.69,45.98 31.78,45.52 31.86,45.14 31.89,44.95 31.9,44.73 31.81,44.59 31.72,44.46 31.51,44.45 31.31,44.47 30.92,44.5 30.5,44.6 30.08,44.61 29.65,44.62 29.2,44.51 28.86,44.22 28.18,43.62 28.02,42.71 27.9,41.91 27.79,41.1 27.59,40.31 27.26,39.57 26.94,38.82 26.49,38.15 25.96,37.52 25.45,36.89 24.85,36.29 24.47,35.5 24.29,35.11 24.18,34.69 24.13,34.26 24.1,33.82 24.13,33.44 24.01,33.07 23.9,32.7 23.7,32.38 23.41,32.12 23.12,31.86 22.77,31.65 22.42,31.42 22.08,31.18 21.72,30.9 21.48,30.51 21.23,30.13 21.13,29.67 21.11,29.24 21.09,28.8 21.16,28.37 21.22,27.97 21.28,27.57 21.32,27.16 21.35,26.76 21.47,25.13 21.42,23.48 21.45,21.83 21.46,21 21.49,20.17 21.62,19.33 21.7,18.91 21.79,18.48 22.02,18.07 22.13,17.87 22.33,17.65 22.53,17.54 22.64,17.46 22.71,17.35 22.74,17.2 22.8,16.89 22.72,16.48 22.64,16.09 22.55,15.69 22.45,15.29 22.38,14.86 22.32,14.44 22.28,13.99 22.37,13.53 22.46,13.07 22.73,12.62 23.1,12.32 23.47,12.02 23.9,11.85 24.32,11.72 24.77,11.61 25.1,11.55 25.45,11.37 26.13,11.05 26.68,10.48 27.1,9.82 27.54,9.16 27.87,8.42 28.17,7.67 28.49,6.91 28.76,6.13 29.2,5.37 29.42,4.99 29.7,4.59 30.18,4.35 30.42,4.23 30.7,4.19 30.95,4.2 31.23,4.23 31.4,4.29 31.56,4.29 32.27,4.34 33,3.98 33.66,3.55 34.33,3.12 34.96,2.59 35.64,2.1 35.98,1.85 36.33,1.61 36.74,1.42 37.14,1.23 37.68,1.08 38.19,1.32 38.45,1.44 38.58,1.61 38.69,1.62 38.84,1.68 39.03,1.69 39.22,1.7 39.6,1.71 40,1.67 40.4,1.61 41.2,1.48 42.01,1.3 42.81,1.13 44.42,0.76 46.03,0.36 47.68,0.12 48.51,0.02 49.35,-0.05 50.19,0.05 50.6,0.11 51.02,0.21 51.39,0.44 51.75,0.67 52.01,1.05 52.09,1.47 L 52.02,1.48 C 51.92,1.09 51.67,0.75 51.32,0.55 50.97,0.35 50.57,0.27 50.16,0.24 49.35,0.18 48.54,0.29 47.73,0.43 46.11,0.71 44.52,1.17 42.92,1.58 42.12,1.79 41.32,2 40.49,2.14 40.07,2.21 39.65,2.26 39.2,2.26 38.98,2.25 38.75,2.24 38.51,2.16 38.21,2.06 38.07,1.88 37.95,1.85 37.68,1.72 37.34,1.8 37,1.96 36.66,2.13 36.34,2.36 36.01,2.6 35.37,3.09 34.74,3.64 34.03,4.11 33.32,4.57 32.49,5.02 31.52,4.97 31.27,4.95 31.04,4.88 30.9,4.87 30.75,4.87 30.61,4.89 30.47,4.96 30.2,5.08 29.97,5.38 29.78,5.71 29.02,7.07 28.62,8.75 27.66,10.19 27.19,10.9 26.54,11.57 25.72,11.95 25.32,12.15 24.83,12.24 24.48,12.32 24.11,12.42 23.76,12.57 23.48,12.79 22.91,13.22 22.82,14 22.95,14.78 23,15.17 23.1,15.57 23.18,15.98 23.26,16.39 23.36,16.81 23.27,17.31 23.22,17.56 23.06,17.84 22.82,17.98 22.65,18.08 22.57,18.17 22.48,18.33 22.3,18.64 22.2,19.03 22.13,19.42 21.99,20.2 21.96,21.02 21.94,21.84 21.89,23.48 21.92,25.13 21.79,26.79 21.75,27.21 21.71,27.62 21.64,28.03 21.57,28.45 21.51,28.83 21.53,29.22 21.54,29.61 21.62,29.99 21.82,30.3 22.01,30.62 22.31,30.87 22.64,31.1 22.97,31.33 23.34,31.54 23.66,31.84 23.99,32.14 24.24,32.54 24.36,32.97 24.49,33.39 24.45,33.85 24.48,34.23 24.52,34.62 24.62,35 24.78,35.36 25.11,36.08 25.68,36.68 26.2,37.33 26.72,37.97 27.19,38.69 27.51,39.46 27.84,40.24 28.03,41.06 28.14,41.88 28.24,42.67 28.4,43.53 28.99,44.06 29.28,44.32 29.68,44.42 30.07,44.42 30.48,44.42 30.88,44.33 31.3,44.3 31.5,44.29 31.78,44.28 31.94,44.5 32.07,44.72 32.04,44.95 32.01,45.16 31.92,45.58 31.84,45.96 31.95,46.35 32.17,47.14 32.96,47.61 33.71,47.88 34.48,48.16 35.3,48.31 36.12,48.37 L 36.11,48.43 Z M 36.11,48.43" />
            <path id="joe05Canvas-bezier29" stroke="none" fill="rgb(51, 91, 113)" d="M 54.44,1.99 C 55.2,1.91 56.1,1.7 56.95,1.82 57.38,1.88 57.84,2.03 58.15,2.41 58.45,2.78 58.5,3.28 58.45,3.72 58.41,4.17 58.23,4.57 58.21,4.95 58.18,5.34 58.27,5.71 58.53,5.95 59.07,6.44 59.97,6.5 60.8,6.7 61.22,6.8 61.68,6.91 62.08,7.27 62.28,7.45 62.43,7.71 62.48,7.97 62.5,8.11 62.52,8.24 62.51,8.36 L 62.51,8.68 C 62.51,9.47 62.62,10.31 62.72,11.14 62.8,11.97 62.92,12.82 62.95,13.67 62.96,14.1 62.95,14.54 62.9,14.97 62.82,15.4 62.72,15.85 62.43,16.18 L 62.37,16.14 C 62.56,15.77 62.6,15.36 62.59,14.95 62.59,14.54 62.54,14.13 62.48,13.72 62.35,12.89 62.2,12.07 62.05,11.23 61.92,10.39 61.8,9.55 61.84,8.65 L 61.86,8.34 C 61.87,8.25 61.86,8.17 61.85,8.09 61.83,7.94 61.77,7.81 61.66,7.7 61.44,7.47 61.05,7.33 60.66,7.22 60.27,7.11 59.85,7.03 59.43,6.91 59.01,6.78 58.56,6.62 58.21,6.26 57.85,5.9 57.77,5.35 57.83,4.91 57.87,4.45 58.07,4.06 58.12,3.67 58.18,3.28 58.16,2.87 57.93,2.57 57.71,2.26 57.32,2.1 56.92,2.02 56.52,1.95 56.09,1.94 55.67,1.96 55.46,1.97 55.26,1.99 55.04,2.01 L 54.73,2.05 C 54.61,2.04 54.53,2.1 54.38,2.03 L 54.44,1.99 Z M 54.44,1.99" />
            <path id="joe05Canvas-bezier30" stroke="none" fill="rgb(51, 91, 113)" d="M 39.45,20.73 C 40.68,19.46 42.09,18.34 43.69,17.51 44.49,17.09 45.34,16.71 46.27,16.61 47.19,16.52 48.17,16.65 48.95,17.13 L 48.92,17.2 C 48.04,17.07 47.2,17.11 46.37,17.28 45.55,17.45 44.72,17.66 43.92,17.99 43.13,18.33 42.36,18.75 41.63,19.23 40.89,19.69 40.17,20.21 39.5,20.78 L 39.45,20.73 Z M 39.45,20.73" />
            <path id="joe05Canvas-bezier31" stroke="none" fill="rgb(51, 91, 113)" d="M 54.19,16.15 C 55.02,15.57 55.95,15.14 56.95,14.89 57.45,14.76 57.97,14.63 58.5,14.7 59.02,14.76 59.54,14.93 59.97,15.25 L 59.95,15.32 58.48,15.37 C 58.01,15.4 57.53,15.36 57.05,15.42 56.57,15.47 56.09,15.57 55.62,15.71 55.15,15.83 54.68,16 54.23,16.2 L 54.19,16.15 Z M 54.19,16.15" />
            <path id="joe05Canvas-bezier32" stroke="none" fill="rgb(51, 91, 113)" d="M 55.59,25.13 C 55.22,25.1 54.85,25.3 54.53,25.47 54.2,25.65 53.88,25.87 53.63,26.12 53.52,26.23 53.42,26.4 53.45,26.44 L 53.45,26.45 53.45,26.45 C 53.45,26.4 53.45,26.44 53.45,26.43 L 53.45,26.45 C 53.45,26.49 53.46,26.47 53.46,26.45 53.46,26.44 53.45,26.41 53.44,26.4 53.41,26.38 53.43,26.41 53.49,26.42 53.75,26.48 54.18,26.48 54.55,26.45 L 54.6,26.49 C 54.48,26.71 54.29,26.83 54.1,26.93 53.9,27.02 53.69,27.09 53.42,27.09 53.29,27.08 53.11,27.06 52.94,26.9 52.86,26.82 52.8,26.7 52.78,26.59 52.77,26.53 52.77,26.46 52.77,26.45 L 52.77,26.43 52.78,26.4 52.78,26.38 52.79,26.31 C 52.91,25.97 53.11,25.85 53.28,25.71 53.64,25.45 54.01,25.29 54.4,25.16 54.78,25.06 55.2,24.94 55.61,25.07 L 55.59,25.13 Z M 55.59,25.13" />
            <path id="joe05Canvas-bezier33" stroke="none" fill="rgb(51, 91, 113)" d="M 57.56,26.02 C 57.36,25.84 57.26,25.58 57.24,25.28 57.24,25.14 57.27,24.95 57.44,24.8 57.62,24.65 57.85,24.66 58,24.7 L 58.06,24.71 58.13,24.73 58.22,24.76 C 58.3,24.79 58.39,24.83 58.46,24.88 58.6,24.97 58.71,25.1 58.77,25.25 58.88,25.55 58.87,25.86 58.69,26.13 L 58.63,26.13 C 58.43,25.9 58.3,25.72 58.18,25.58 58.12,25.52 58.08,25.45 58.02,25.39 58,25.35 57.98,25.33 57.96,25.3 L 57.88,25.24 C 57.88,25.24 57.84,25.22 57.86,25.23 L 57.84,25.21 C 57.76,25.17 57.72,25.16 57.69,25.16 57.66,25.15 57.6,25.23 57.58,25.32 57.51,25.51 57.51,25.77 57.62,25.98 L 57.56,26.02 Z M 57.56,26.02" />
            <path id="joe05Canvas-bezier34" stroke="none" fill="rgb(51, 91, 113)" d="M 58.3,23.29 C 57.86,22.83 57.36,22.42 56.83,22.11 56.56,21.93 56.29,21.85 55.97,21.64 55.68,21.45 55.44,21.22 55.21,20.98 54.76,20.49 54.32,19.96 54.09,19.32 53.98,19.01 53.89,18.67 53.86,18.33 53.83,17.99 53.87,17.62 54.04,17.32 L 54.11,17.34 C 54.16,17.98 54.44,18.51 54.71,19.05 55,19.58 55.25,20.14 55.62,20.63 55.81,20.87 56.01,21.1 56.24,21.29 56.44,21.46 56.77,21.62 57.02,21.83 57.53,22.24 57.98,22.72 58.35,23.25 L 58.3,23.29 Z M 58.3,23.29" />
            <path id="joe05Canvas-bezier35" stroke="none" fill="rgb(51, 91, 113)" d="M 51.91,27.65 C 51.54,27.68 51.13,27.59 50.81,27.26 50.66,27.1 50.49,26.89 50.51,26.65 50.53,26.43 50.63,26.22 50.86,26.09 L 50.92,26.1 C 51.06,26.31 51.13,26.46 51.19,26.58 51.25,26.69 51.2,26.82 51.25,26.94 51.35,27.19 51.61,27.43 51.92,27.58 L 51.91,27.65 Z M 51.91,27.65" />
            <path id="joe05Canvas-bezier36" stroke="none" fill="rgb(51, 91, 113)" d="M 48.52,33.83 C 49.5,33.13 50.53,32.49 51.62,31.94 52.16,31.67 52.72,31.43 53.3,31.24 53.88,31.06 54.51,30.92 55.14,31 56.32,31.12 57.5,30.84 58.58,30.36 58.71,30.3 58.84,30.24 58.97,30.17 59.13,30.07 59.34,30.05 59.5,30.08 59.85,30.13 60.13,30.29 60.38,30.49 60.87,30.87 61.25,31.36 61.58,31.86 L 61.55,31.88 C 61.15,31.43 60.73,31 60.24,30.68 60,30.52 59.73,30.39 59.47,30.37 59.34,30.36 59.22,30.37 59.13,30.44 59,30.52 58.86,30.59 58.72,30.66 57.61,31.21 56.34,31.44 55.11,31.27 54.53,31.18 53.94,31.29 53.37,31.45 52.79,31.62 52.24,31.84 51.69,32.09 50.6,32.6 49.55,33.2 48.54,33.86 L 48.52,33.83 Z M 48.52,33.83" />
            <path id="joe05Canvas-bezier37" stroke="none" fill="rgb(51, 91, 113)" d="M 49.26,34.49 C 50.2,35.21 51.41,35.46 52.57,35.58 53.74,35.69 54.93,35.61 56.09,35.44 57.26,35.25 58.43,35.04 59.56,34.76 60.11,34.61 60.69,34.43 61.06,34.03 61.42,33.62 61.48,32.98 61.65,32.42 L 61.68,32.43 C 61.6,33 61.63,33.64 61.25,34.18 60.84,34.7 60.21,34.89 59.65,35.08 58.49,35.42 57.31,35.55 56.13,35.71 54.94,35.85 53.74,35.89 52.55,35.75 51.38,35.58 50.16,35.28 49.23,34.52 L 49.26,34.49 Z M 49.26,34.49" />
            <path id="joe05Canvas-bezier38" stroke="none" fill="rgb(51, 91, 113)" d="M 52.64,36.91 C 54.26,37.05 55.87,36.85 57.46,36.54 58.25,36.39 59.04,36.22 59.81,36.02 60.57,35.83 61.38,35.56 61.65,34.75 L 61.68,34.76 C 61.63,35.16 61.4,35.57 61.04,35.82 60.69,36.07 60.3,36.21 59.91,36.35 59.12,36.59 58.3,36.7 57.5,36.81 56.69,36.92 55.88,37.03 55.07,37.06 54.25,37.09 53.44,37.06 52.63,36.94 L 52.64,36.91 Z M 52.64,36.91" />
            <path id="joe05Canvas-bezier39" stroke="none" fill="rgb(51, 91, 113)" d="M 55.82,41.19 C 56.54,40.79 57.29,40.46 58.08,40.2 58.48,40.08 58.88,39.91 59.31,39.92 59.74,39.93 60.21,40 60.57,40.29 L 60.55,40.36 59.38,40.59 C 59,40.68 58.6,40.66 58.21,40.73 57.42,40.86 56.63,41.04 55.84,41.25 L 55.82,41.19 Z M 55.82,41.19" />
            <path id="joe05Canvas-bezier40" stroke="none" fill="rgb(51, 91, 113)" d="M 26.46,30.92 C 26.79,31.96 27.17,32.99 27.63,33.97 27.86,34.46 28.11,34.95 28.43,35.33 28.78,35.7 29.22,35.95 29.71,36.2 30.66,36.66 31.75,36.95 32.71,37.45 33.12,37.63 33.64,37.65 34.12,37.54 34.59,37.42 35.06,37.13 35.23,36.61 L 35.3,36.62 C 35.31,36.91 35.19,37.2 35,37.44 34.81,37.68 34.56,37.85 34.28,37.98 33.73,38.23 33.08,38.28 32.46,38.08 31.44,37.65 30.44,37.24 29.45,36.67 28.98,36.4 28.47,36.07 28.09,35.61 27.74,35.13 27.53,34.62 27.32,34.1 26.94,33.06 26.64,32.01 26.39,30.94 L 26.46,30.92 Z M 26.46,30.92" />
            <path id="joe05Canvas-bezier41" stroke="none" fill="rgb(51, 91, 113)" d="M 33.33,31.74 C 33.46,32.21 33.53,32.7 33.52,33.2 33.53,33.55 33.92,33.9 34.24,34.25 34.33,34.34 34.41,34.42 34.51,34.58 34.53,34.63 34.56,34.68 34.57,34.79 34.59,34.88 34.52,35.06 34.42,35.13 34.24,35.25 34.14,35.23 34.06,35.25 33.75,35.27 33.47,35.2 33.24,35.1 32.75,34.89 32.52,34.63 32.03,34.86 L 31.98,34.81 C 32.07,34.57 32.36,34.34 32.68,34.34 32.98,34.33 33.23,34.41 33.46,34.46 33.68,34.51 33.87,34.57 34.04,34.58 34.08,34.6 34.11,34.57 34.03,34.62 33.98,34.66 33.94,34.77 33.95,34.81 33.96,34.85 33.96,34.84 33.96,34.84 33.95,34.79 33.88,34.68 33.82,34.59 33.69,34.4 33.53,34.2 33.4,33.97 33.28,33.75 33.14,33.49 33.18,33.16 33.28,32.71 33.31,32.23 33.27,31.76 L 33.33,31.74 Z M 33.33,31.74" />
            <path id="joe05Canvas-bezier42" stroke="none" fill="rgb(51, 91, 113)" d="M 31.98,31.9 C 31.65,31.59 31.28,31.32 30.91,31.12 30.72,31.02 30.51,31.01 30.35,30.91 30.19,30.8 30.03,30.7 29.79,30.54 L 29.78,30.47 C 30,30.26 30.3,30.22 30.57,30.27 30.85,30.31 31.04,30.52 31.22,30.68 31.59,31.02 31.85,31.43 32.04,31.86 L 31.98,31.9 Z M 31.98,31.9" />
            <path id="joe05Canvas-bezier43" stroke="none" fill="rgb(51, 91, 113)" d="M 48.72,21.01 C 48.34,20.55 47.87,20.15 47.34,19.9 46.81,19.64 46.21,19.57 45.66,19.75 45.12,19.92 44.64,20.27 44.19,20.64 43.73,21.01 43.32,21.44 42.91,21.88 L 42.88,21.87 C 43.14,21.31 43.52,20.82 43.96,20.39 44.42,19.96 44.98,19.64 45.6,19.49 46.21,19.33 46.89,19.45 47.42,19.75 47.96,20.06 48.4,20.49 48.75,20.99 L 48.72,21.01 Z M 48.72,21.01" />
            <path id="joe05Canvas-bezier44" stroke="none" fill="rgb(51, 91, 113)" d="M 43.65,21.73 C 44.45,21.54 45.26,21.38 46.08,21.26 46.49,21.2 46.9,21.13 47.32,21.13 47.73,21.15 48.15,21.17 48.56,21.32 L 48.55,21.35 47.33,21.47 C 46.92,21.51 46.52,21.5 46.11,21.53 45.29,21.58 44.47,21.67 43.66,21.77 L 43.65,21.73 Z M 43.65,21.73" />
            <path id="joe05Canvas-bezier45" stroke="none" fill="rgb(51, 91, 113)" d="M 48.98,20.26 C 48.03,19.4 46.65,18.96 45.45,19.38 44.85,19.58 44.31,19.91 43.8,20.28 43.29,20.65 42.84,21.1 42.45,21.61 L 42.41,21.6 C 42.64,20.97 43.09,20.45 43.59,20.02 44.11,19.58 44.73,19.3 45.38,19.12 46.03,18.94 46.73,18.97 47.36,19.18 47.99,19.4 48.55,19.76 49.01,20.23 L 48.98,20.26 Z M 48.98,20.26" />
            <path id="joe05Canvas-bezier46" stroke="none" fill="rgb(51, 91, 113)" d="M 55.65,19.6 C 56.19,18.93 56.9,18.33 57.81,18.15 58.26,18.06 58.77,18.11 59.17,18.36 59.56,18.61 59.87,18.96 60.05,19.36 L 60.03,19.38 C 59.69,19.1 59.37,18.82 59,18.66 58.65,18.49 58.26,18.38 57.85,18.42 57.45,18.46 57.05,18.62 56.69,18.83 56.32,19.05 55.98,19.31 55.68,19.62 L 55.65,19.6 Z M 55.65,19.6" />
            <path id="joe05Canvas-bezier47" stroke="none" fill="rgb(51, 91, 113)" d="M 56.06,20.29 C 56.73,20.22 57.39,20.12 58.05,20 58.38,19.94 58.7,19.85 59.02,19.79 59.35,19.74 59.66,19.68 60,19.61 L 60.02,19.64 C 59.76,19.89 59.42,20.01 59.1,20.12 58.77,20.22 58.42,20.24 58.09,20.27 57.41,20.33 56.73,20.35 56.06,20.32 L 56.06,20.29 Z M 56.06,20.29" />
            <path id="joe05Canvas-bezier48" stroke="none" fill="rgb(51, 91, 113)" d="M 55.46,18.91 C 55.9,18.31 56.49,17.77 57.26,17.56 57.64,17.45 58.07,17.43 58.44,17.57 58.82,17.72 59.15,17.95 59.37,18.26 L 59.35,18.29 C 59,18.13 58.68,17.97 58.34,17.89 58.01,17.81 57.67,17.76 57.32,17.82 56.63,17.95 55.99,18.39 55.49,18.93 L 55.46,18.91 Z M 55.46,18.91" />
            <path id="joe05Canvas-bezier49" stroke="none" fill="rgb(51, 91, 113)" d="M 45.54,21.34 C 45.31,21.09 45.15,20.72 45.2,20.35 45.23,19.97 45.57,19.61 45.99,19.6 46.39,19.57 46.79,19.77 47.01,20.1 47.21,20.41 47.3,20.85 47.12,21.18 L 47.09,21.17 C 47.07,20.82 46.95,20.54 46.74,20.3 46.54,20.08 46.29,19.88 46,19.87 45.71,19.85 45.43,20.07 45.36,20.38 45.29,20.69 45.37,21.04 45.57,21.32 L 45.54,21.34 Z M 45.54,21.34" />
            <path id="joe05Canvas-bezier50" stroke="none" fill="rgb(51, 91, 113)" d="M 57.42,20.17 C 57.11,19.95 56.87,19.59 56.85,19.18 56.8,18.78 57.09,18.3 57.55,18.23 58,18.15 58.45,18.38 58.69,18.74 58.91,19.08 58.99,19.58 58.76,19.92 L 58.72,19.91 C 58.76,19.52 58.63,19.2 58.41,18.94 58.21,18.69 57.91,18.48 57.59,18.5 57.27,18.52 57.02,18.82 57.02,19.18 57,19.53 57.16,19.9 57.44,20.15 L 57.42,20.17 Z M 57.42,20.17" />
            <path id="joe05Canvas-bezier51" stroke="none" fill="rgb(51, 91, 113)" d="M 37.45,50.05 C 38.01,51.48 39.16,52.61 40.48,53.35 41.14,53.73 41.86,54.01 42.59,54.21 43.32,54.41 44.09,54.52 44.84,54.72 46.34,55.1 47.81,55.61 49.21,56.26 49.92,56.59 50.6,56.95 51.27,57.36 51.6,57.57 51.92,57.78 52.23,58.03 52.54,58.28 52.85,58.51 53.09,58.92 L 53.14,59.01 53.09,59.11 C 52.52,60.3 51.99,61.52 51.53,62.75 51.3,63.37 51.08,64 50.91,64.62 50.75,65.24 50.59,65.93 50.7,66.44 L 50.89,67.3 50.24,66.72 C 48.78,65.44 47.08,64.39 45.42,63.31 43.76,62.23 42.08,61.16 40.46,59.99 39.66,59.4 38.86,58.79 38.11,58.12 37.73,57.78 37.37,57.43 37.03,57.04 36.71,56.65 36.39,56.22 36.24,55.67 36.01,53.61 36.15,51.67 36.37,49.68 L 36.44,49.69 C 36.39,50.67 36.4,51.66 36.43,52.65 36.45,53.14 36.47,53.64 36.51,54.13 L 36.57,54.86 C 36.6,55.1 36.62,55.37 36.68,55.55 36.81,55.96 37.11,56.34 37.43,56.7 37.75,57.05 38.11,57.38 38.48,57.69 39.23,58.32 40.03,58.9 40.84,59.46 42.47,60.58 44.15,61.63 45.8,62.74 47.45,63.85 49.12,64.94 50.62,66.31 L 50.15,66.59 C 50.06,66.18 50.11,65.83 50.16,65.48 50.22,65.14 50.31,64.81 50.4,64.48 50.59,63.83 50.82,63.2 51.06,62.58 51.55,61.33 52.11,60.12 52.7,58.92 L 52.7,59.1 C 52.56,58.85 52.26,58.58 51.98,58.35 51.68,58.11 51.37,57.9 51.06,57.69 50.42,57.28 49.75,56.92 49.06,56.59 47.68,55.92 46.25,55.38 44.77,54.98 44.04,54.76 43.28,54.64 42.53,54.42 41.79,54.19 41.06,53.89 40.4,53.49 39.07,52.7 37.92,51.53 37.38,50.07 L 37.45,50.05 Z M 37.45,50.05" />
            <path id="joe05Canvas-bezier52" stroke="none" fill="rgb(51, 91, 113)" d="M 61.08,57.71 C 59.73,59.48 58.79,61.64 58.74,63.87 58.72,64.43 58.8,64.98 58.87,65.54 L 59.05,67.21 C 59.17,68.33 59.28,69.44 59.37,70.56 59.55,72.8 59.68,75.05 59.66,77.3 59.64,78.42 59.59,79.55 59.43,80.67 59.35,81.23 59.23,81.79 59.04,82.34 58.94,82.62 58.78,82.87 58.72,83.11 58.65,83.36 58.59,83.63 58.55,83.91 58.27,86.1 58.38,88.36 58.5,90.59 58.63,92.82 58.84,95.05 59.1,97.28 59.62,101.73 60.3,106.17 61.22,110.54 61.46,111.64 61.72,112.73 62,113.8 62.29,114.88 62.63,115.96 62.89,117.06 63.43,119.24 63.9,121.44 64.34,123.65 65.19,128.06 65.93,132.49 66.6,136.93 67.22,141.38 67.77,145.84 68.17,150.31 68.38,152.55 68.55,154.79 68.64,157.03 68.68,159.27 68.75,161.54 68.36,163.76 L 68.3,163.75 C 68.6,161.53 68.46,159.28 68.33,157.05 68.19,154.81 67.99,152.58 67.74,150.35 67.25,145.9 66.63,141.46 65.93,137.03 64.59,128.15 63.01,119.35 60.69,110.65 59.79,106.25 59.15,101.8 58.66,97.33 58.42,95.09 58.23,92.86 58.11,90.61 58.01,88.37 57.91,86.11 58.22,83.85 58.26,83.57 58.32,83.29 58.41,83.01 58.5,82.7 58.65,82.48 58.74,82.23 58.93,81.72 59.04,81.17 59.13,80.63 59.3,79.53 59.36,78.41 59.39,77.29 59.43,75.06 59.32,72.82 59.17,70.58 59.09,69.46 58.99,68.34 58.88,67.23 L 58.72,65.56 C 58.66,65 58.58,64.44 58.6,63.87 58.68,61.6 59.65,59.44 61.03,57.67 L 61.08,57.71 Z M 61.08,57.71" />
            <path id="joe05Canvas-bezier53" stroke="none" fill="rgb(51, 91, 113)" d="M 52.91,58.98 C 53.65,59.3 54.31,59.82 54.77,60.49 55.24,61.16 55.47,62 55.44,62.82 55.44,63.23 55.34,63.65 55.29,64.01 55.24,64.39 55.22,64.78 55.23,65.17 55.25,65.95 55.35,66.73 55.49,67.5 55.78,69.04 56.26,70.54 56.75,72.03 56.98,72.78 57.26,73.51 57.57,74.23 57.72,74.59 57.89,74.94 58.08,75.28 58.26,75.63 58.47,75.96 58.74,76.25 L 58.69,76.3 C 58.01,75.83 57.56,75.13 57.15,74.44 56.74,73.74 56.41,73 56.11,72.26 55.52,70.75 55.18,69.17 54.96,67.58 54.85,66.79 54.78,65.98 54.79,65.17 54.8,64.77 54.83,64.36 54.9,63.96 54.98,63.54 55.08,63.19 55.1,62.8 55.17,62.04 55.01,61.26 54.6,60.6 54.2,59.94 53.59,59.4 52.88,59.05 L 52.91,58.98 Z M 52.91,58.98" />
            <path id="joe05Canvas-bezier54" stroke="none" fill="rgb(51, 91, 113)" d="M 35.32,55.08 C 34.58,55.31 33.93,55.79 33.3,56.24 32.67,56.7 32.06,57.2 31.46,57.71 L 27.87,60.78 C 26.67,61.81 25.46,62.82 24.17,63.74 23.53,64.2 22.89,64.67 22.21,65.09 21.87,65.3 21.54,65.51 21.18,65.69 20.82,65.86 20.48,66.09 20.05,66.11 L 20.05,66.04 C 20.4,65.94 20.72,65.69 21.04,65.46 21.35,65.23 21.66,64.99 21.97,64.74 L 23.79,63.25 C 24.99,62.24 26.23,61.26 27.47,60.3 L 31.19,57.37 C 31.82,56.9 32.47,56.44 33.15,56.02 33.83,55.62 34.51,55.19 35.31,55.01 L 35.32,55.08 Z M 35.32,55.08" />
            <path id="joe05Canvas-bezier55" stroke="none" fill="rgb(51, 91, 113)" d="M 67.02,53.82 C 69.68,55.16 72.64,56 75.61,55.96 76.35,55.96 77.07,55.86 77.82,55.74 78.57,55.64 79.33,55.59 80.09,55.57 81.6,55.55 83.11,55.65 84.61,55.86 86.11,56.07 87.59,56.38 89.05,56.82 90.5,57.27 91.92,57.86 93.2,58.74 93.83,59.19 94.42,59.73 94.87,60.38 95.31,61.01 95.69,61.69 95.94,62.42 96.2,63.15 96.31,63.92 96.4,64.65 96.45,65.01 96.5,65.38 96.72,65.64 96.94,65.91 97.32,66 97.68,66.04 L 97.68,66.11 C 97.31,66.11 96.89,66.08 96.58,65.78 96.27,65.48 96.19,65.07 96.1,64.71 95.95,63.97 95.79,63.26 95.5,62.59 95.21,61.93 94.84,61.3 94.39,60.73 93.97,60.15 93.42,59.7 92.81,59.3 91.61,58.5 90.24,57.93 88.84,57.46 87.44,56.99 85.99,56.64 84.53,56.4 83.06,56.16 81.58,56.02 80.09,56.01 79.35,56.01 78.6,56.04 77.87,56.13 77.14,56.23 76.36,56.31 75.61,56.3 72.57,56.25 69.62,55.3 66.99,53.88 L 67.02,53.82 Z M 67.02,53.82" />
            <path id="joe05Canvas-bezier56" stroke="none" fill="rgb(51, 91, 113)" d="M 98.6,64.95 C 98.58,65.11 98.68,65.27 98.76,65.42 L 99.02,65.89 C 99.19,66.2 99.33,66.54 99.42,66.89 99.6,67.6 99.44,68.37 99.09,69 98.79,69.62 98.77,70.35 99,71 99.22,71.65 99.62,72.24 100.1,72.75 100.57,73.28 101.11,73.7 101.69,74.15 102.24,74.64 102.69,75.2 103.14,75.76 104.01,76.9 104.79,78.1 105.53,79.33 L 105.61,79.46 105.5,79.59 C 104.35,80.95 103.36,82.47 102.51,84.03 101.65,85.61 100.95,87.26 100.41,88.96 99.88,90.66 99.5,92.41 99.34,94.18 99.15,95.95 99.23,97.74 99.48,99.51 L 99.47,99.48 C 99.69,100.24 100.1,100.95 100.75,101.39 101.39,101.84 102.25,101.98 103.05,101.85 L 103.06,101.91 C 102.26,102.14 101.35,102.07 100.6,101.63 99.83,101.2 99.34,100.41 99.05,99.62 L 99.05,99.61 99.04,99.59 C 98.29,96.01 98.59,92.22 99.77,88.75 100.35,87.02 101.12,85.35 102.02,83.76 102.93,82.18 103.95,80.67 105.16,79.29 L 105.14,79.55 C 104.43,78.33 103.67,77.12 102.84,75.99 102.42,75.42 101.97,74.86 101.47,74.4 100.93,73.96 100.35,73.48 99.89,72.94 99.41,72.39 99,71.77 98.78,71.07 98.55,70.37 98.6,69.57 98.94,68.92 99.29,68.31 99.46,67.6 99.3,66.91 99.23,66.57 99.09,66.25 98.93,65.93 L 98.68,65.46 C 98.61,65.3 98.5,65.13 98.53,64.94 L 98.6,64.95 Z M 98.6,64.95" />
            <path id="joe05Canvas-bezier57" stroke="none" fill="rgb(51, 91, 113)" d="M 100.42,98.7 L 108.75,103.45 C 110.15,104.23 111.56,104.97 112.93,105.79 L 114.99,107.02 C 115.33,107.22 115.67,107.43 116.02,107.62 116.36,107.82 116.71,108.02 117.07,108.15 L 117.06,108.22 C 116.24,108.11 115.51,107.74 114.77,107.43 114.03,107.11 113.32,106.73 112.6,106.37 111.18,105.63 109.84,104.76 108.47,103.92 105.75,102.24 103.05,100.52 100.38,98.76 L 100.42,98.7 Z M 100.42,98.7" />
            <path id="joe05Canvas-bezier58" stroke="none" fill="rgb(51, 91, 113)" d="M 118.75,108.72 C 119.35,108.99 119.98,109.19 120.61,109.33 121.24,109.48 121.88,109.56 122.51,109.53 123.15,109.51 123.73,109.32 124.3,109.11 124.86,108.91 125.38,108.58 125.93,108.17 L 125.98,108.21 C 125.73,108.85 125.21,109.39 124.58,109.73 123.94,110.08 123.19,110.11 122.51,110.07 121.12,109.98 119.84,109.48 118.72,108.78 L 118.75,108.72 Z M 118.75,108.72" />
            <path id="joe05Canvas-bezier59" stroke="none" fill="rgb(51, 91, 113)" d="M 126.79,107.03 C 127.58,106.24 128.09,105.21 128.49,104.18 128.89,103.14 129.17,102.05 129.35,100.95 129.72,98.75 129.75,96.5 129.61,94.27 129.31,89.81 128.67,85.37 128.09,80.92 127.49,76.48 126.84,72.03 126.45,67.56 126.09,63.08 125.79,58.57 126.18,54.09 L 126.25,54.09 C 126.24,58.58 126.64,63.04 127.12,67.49 127.6,71.94 128.1,76.4 128.62,80.85 129.14,85.31 129.72,89.76 129.95,94.26 130.05,96.5 129.97,98.77 129.55,100.99 129.34,102.09 129.05,103.19 128.62,104.23 128.18,105.27 127.66,106.29 126.83,107.08 L 126.79,107.03 Z M 126.79,107.03" />
            <path id="joe05Canvas-bezier60" stroke="none" fill="rgb(51, 91, 113)" d="M 125.92,53.08 C 126.04,51.3 125.61,49.49 124.64,48 124.2,47.14 124.13,46.21 124.04,45.31 123.98,44.41 123.98,43.5 124,42.6 124.05,40.79 124.17,38.99 124.46,37.21 L 124.7,35.88 C 124.8,35.45 124.81,35.04 124.81,34.6 124.79,33.76 124.57,32.85 123.84,32.31 L 123.88,32.25 C 124.3,32.44 124.64,32.81 124.87,33.22 125.09,33.64 125.21,34.1 125.28,34.56 125.35,35.02 125.35,35.51 125.28,35.97 L 125.13,37.3 C 124.93,39.08 124.67,40.84 124.54,42.62 124.49,43.51 124.45,44.4 124.48,45.29 124.52,46.16 124.58,47.08 124.94,47.84 125.86,49.42 126.2,51.3 125.99,53.09 L 125.92,53.08 Z M 125.92,53.08" />
            <path id="joe05Canvas-bezier61" stroke="none" fill="rgb(51, 91, 113)" d="M 122.94,31.85 C 122.89,31.21 122.47,30.59 121.85,30.42 121.24,30.24 120.59,30.42 119.94,30.54 118.63,30.79 117.33,31.08 116.03,31.37 114.73,31.67 113.44,32.01 112.13,32.24 111.48,32.35 110.81,32.46 110.16,32.55 109.84,32.6 109.52,32.67 109.22,32.76 108.92,32.86 108.61,32.99 108.46,33.27 L 108.4,33.25 C 108.46,32.88 108.81,32.65 109.1,32.48 109.4,32.32 109.73,32.2 110.05,32.1 110.7,31.9 111.34,31.74 111.99,31.58 113.29,31.26 114.61,31.07 115.93,30.84 117.24,30.62 118.56,30.4 119.88,30.21 120.53,30.13 121.24,29.98 121.92,30.23 122.61,30.47 123,31.18 123.01,31.85 L 122.94,31.85 Z M 122.94,31.85" />
            <path id="joe05Canvas-bezier62" stroke="none" fill="rgb(51, 91, 113)" d="M 115.07,32.55 C 113.9,32.75 112.73,32.98 111.57,33.24 110.99,33.37 110.41,33.51 109.85,33.68 109.3,33.86 108.7,34.01 108.33,34.36 108.1,34.56 107.86,34.74 107.71,34.93 107.55,35.12 107.5,35.28 107.54,35.5 107.63,35.94 107.96,36.45 108.28,36.92 108.94,37.86 109.61,38.86 110.61,39.45 L 110.6,39.52 C 109.97,39.42 109.45,39.03 108.98,38.65 108.51,38.25 108.1,37.79 107.73,37.32 107.37,36.82 106.98,36.32 106.87,35.58 106.81,35.21 107,34.76 107.25,34.52 107.5,34.28 107.76,34.11 107.99,33.94 108.09,33.86 108.27,33.73 108.41,33.67 108.56,33.6 108.71,33.55 108.85,33.5 109.15,33.4 109.44,33.33 109.74,33.26 110.33,33.12 110.91,33.01 111.5,32.91 112.69,32.73 113.87,32.59 115.06,32.48 L 115.07,32.55 Z M 115.07,32.55" />
            <path id="joe05Canvas-bezier63" stroke="none" fill="rgb(51, 91, 113)" d="M 110.32,35.18 C 110.19,35.61 110.12,36.05 110.17,36.43 110.19,36.63 110.3,36.77 110.32,36.93 110.35,37.09 110.39,37.26 110.47,37.54 L 110.43,37.59 C 110.14,37.62 109.87,37.46 109.71,37.21 109.54,36.97 109.58,36.66 109.63,36.41 109.71,35.91 109.96,35.5 110.26,35.15 L 110.32,35.18 Z M 110.32,35.18" />
            <path id="joe05Canvas-bezier64" stroke="none" fill="rgb(51, 91, 113)" d="M 111.67,36.93 C 111.18,38.06 110.93,39.29 110.95,40.49 110.99,41.69 111.28,42.9 111.59,44.08 111.9,45.26 112.33,46.43 112.62,47.61 112.77,48.12 113.11,48.59 113.57,48.9 114.04,49.21 114.64,49.33 115.24,49.2 L 115.27,49.27 C 114.71,49.59 113.97,49.6 113.35,49.31 112.72,49.03 112.23,48.48 111.98,47.82 111.59,46.63 111.31,45.43 111.06,44.21 110.82,42.98 110.59,41.76 110.62,40.49 110.69,39.23 111.04,38 111.61,36.9 L 111.67,36.93 Z M 111.67,36.93" />
            <path id="joe05Canvas-bezier65" stroke="none" fill="rgb(51, 91, 113)" d="M 114.91,50.21 C 115.64,54.19 116.06,58.23 116.29,62.28 116.5,66.33 116.47,70.39 116.15,74.44 115.83,78.49 115.25,82.54 114.1,86.45 113.41,88.4 112.68,90.25 112.24,92.21 112.02,93.18 111.88,94.18 111.91,95.17 111.93,96.16 112.15,97.17 112.69,98.02 L 112.64,98.06 C 112.01,97.24 111.71,96.21 111.61,95.19 111.51,94.16 111.61,93.13 111.78,92.12 112.12,90.1 112.85,88.15 113.45,86.27 114.49,82.38 115.22,78.41 115.61,74.39 116,70.38 116.09,66.33 115.95,62.29 115.82,58.26 115.49,54.22 114.85,50.22 L 114.91,50.21 Z M 114.91,50.21" />
            <path id="joe05Canvas-bezier66" stroke="none" fill="rgb(51, 91, 113)" d="M 105.8,80.61 C 106.93,81.65 108.03,82.72 109.1,83.81 109.63,84.36 110.21,84.88 110.66,85.5 110.89,85.81 111.12,86.13 111.31,86.47 111.51,86.8 111.7,87.16 111.77,87.56 L 111.71,87.58 C 111.23,87.01 110.65,86.5 110.14,85.94 109.62,85.39 109.18,84.76 108.69,84.18 L 105.75,80.66 105.8,80.61 Z M 105.8,80.61" />
            <path id="joe05Canvas-bezier67" stroke="none" fill="rgb(51, 91, 113)" d="M 17.17,47.06 C 16.99,47.05 16.92,46.95 16.81,46.92 16.7,46.88 16.59,46.86 16.48,46.87 16.27,46.86 16.06,46.91 15.85,46.99 15.64,47.07 15.46,47.23 15.23,47.28 15,47.33 14.76,47.37 14.46,47.33 L 14.42,47.27 C 14.55,46.99 14.74,46.81 14.96,46.66 15.18,46.51 15.46,46.5 15.73,46.47 16,46.44 16.28,46.45 16.55,46.54 16.68,46.58 16.81,46.66 16.91,46.75 17.01,46.82 17.1,46.96 17.16,46.99 L 17.17,47.06 Z M 17.17,47.06" />
            <path id="joe05Canvas-bezier68" stroke="none" fill="rgb(51, 91, 113)" d="M 12.59,46.55 C 11.95,46.38 11.33,46.32 10.74,46.44 10.45,46.5 10.2,46.66 9.91,46.72 9.63,46.79 9.34,46.87 8.97,46.91 L 8.93,46.86 C 9.08,46.52 9.35,46.27 9.65,46.1 9.97,45.91 10.34,45.91 10.69,45.9 11.04,45.9 11.39,45.96 11.71,46.06 12.03,46.16 12.33,46.33 12.61,46.48 L 12.59,46.55 Z M 12.59,46.55" />
            <path id="joe05Canvas-bezier69" stroke="none" fill="rgb(51, 91, 113)" d="M 7.3,46.54 C 6.96,46.35 6.56,46.24 6.19,46.25 5.82,46.24 5.48,46.36 5.22,46.59 4.95,46.82 4.81,47.15 4.58,47.44 4.36,47.74 4.16,48.07 3.86,48.39 L 3.79,48.37 C 3.74,47.93 3.82,47.51 3.99,47.11 4.17,46.7 4.52,46.38 4.91,46.15 5.31,45.91 5.8,45.82 6.23,45.91 6.66,46.01 7.03,46.22 7.34,46.49 L 7.3,46.54 Z M 7.3,46.54" />
            <path id="joe05Canvas-bezier70" stroke="none" fill="rgb(51, 91, 113)" d="M 2.21,48.13 C 1.42,48.32 0.67,48.82 0.34,49.57 0.01,50.32 0.08,51.19 0.35,51.95 0.62,52.73 1.14,53.38 1.52,54.13 1.71,54.51 1.85,54.92 1.89,55.35 1.91,55.57 1.88,55.78 1.88,55.98 1.88,56.17 1.91,56.37 1.95,56.57 2.14,57.35 2.56,58.08 3,58.77 3.44,59.46 3.94,60.13 4.43,60.8 4.67,61.13 4.92,61.47 5.15,61.81 5.26,61.99 5.4,62.16 5.47,62.39 5.54,62.59 5.59,62.8 5.64,63 5.84,63.81 5.99,64.63 6.13,65.45 7.23,71.99 8.01,78.57 8.7,85.17 9.36,91.76 10.01,98.38 9.82,105.03 9.74,108.34 9.7,111.65 10.12,114.91 10.34,116.53 10.7,118.15 11.4,119.63 12.08,121.12 13.15,122.43 14.48,123.42 L 14.44,123.47 C 13.06,122.54 11.9,121.27 11.13,119.77 10.36,118.27 9.93,116.62 9.66,114.98 9.13,111.68 9.13,108.34 9.14,105.02 9.26,101.72 9.11,98.42 8.9,95.12 8.72,91.82 8.46,88.52 8.16,85.22 7.53,78.63 6.82,72.04 5.8,65.5 5.67,64.69 5.53,63.87 5.35,63.07 5.3,62.87 5.25,62.67 5.19,62.48 5.14,62.31 5.02,62.15 4.91,61.97 4.69,61.63 4.45,61.29 4.21,60.95 3.73,60.28 3.24,59.6 2.8,58.9 2.37,58.19 1.95,57.45 1.75,56.61 1.71,56.4 1.68,56.19 1.68,55.97 1.69,55.76 1.72,55.56 1.7,55.36 1.68,54.96 1.55,54.57 1.37,54.21 1.01,53.48 0.49,52.8 0.22,52 -0.04,51.21 -0.11,50.31 0.25,49.53 0.61,48.75 1.39,48.24 2.2,48.06 L 2.21,48.13 Z M 2.21,48.13" />
            <path id="joe05Canvas-bezier71" stroke="none" fill="rgb(51, 91, 113)" d="M 16,124.32 C 17.13,124.59 18.27,124.85 19.41,125.11 20.53,125.36 21.71,125.65 22.79,125.78 23.28,125.79 23.82,125.57 24.32,125.32 24.82,125.08 25.31,124.79 25.78,124.49 26.75,123.89 27.66,123.19 28.55,122.43 L 28.6,122.47 C 27.99,123.48 27.12,124.34 26.16,125.05 25.67,125.39 25.15,125.7 24.59,125.93 24.03,126.15 23.44,126.37 22.75,126.32 21.53,126.1 20.46,125.75 19.32,125.43 18.2,125.09 17.09,124.74 15.98,124.38 L 16,124.32 Z M 16,124.32" />
            <path id="joe05Canvas-bezier72" stroke="none" fill="rgb(51, 91, 113)" d="M 29.84,117.45 C 30.51,115.36 30.68,113.14 30.56,110.96 30.43,108.78 29.96,106.62 29.21,104.57 28.83,103.55 28.38,102.56 27.89,101.58 27.41,100.58 26.96,99.57 26.54,98.56 25.69,96.52 24.93,94.45 24.24,92.36 22.86,88.18 21.68,83.93 20.82,79.61 19.98,75.29 19.33,70.92 19.13,66.52 L 19.19,66.52 C 19.78,70.87 20.53,75.19 21.48,79.47 22.43,83.75 23.45,88.01 24.76,92.19 25.41,94.29 26.13,96.36 26.94,98.39 27.35,99.41 27.78,100.42 28.24,101.41 28.72,102.4 29.17,103.42 29.53,104.46 30.25,106.55 30.68,108.74 30.76,110.95 30.84,113.15 30.62,115.38 29.91,117.47 L 29.84,117.45 Z M 29.84,117.45" />
            <path id="joe05Canvas-bezier73" stroke="none" fill="rgb(51, 91, 113)" d="M 19.03,65.57 C 19.26,64.87 19.5,64.19 19.79,63.51 19.94,63.18 20.09,62.84 20.28,62.52 L 20.43,62.29 C 20.46,62.23 20.49,62.14 20.51,62.07 20.56,61.9 20.6,61.73 20.62,61.55 20.83,60.14 20.81,58.68 20.75,57.24 20.66,55.8 20.47,54.37 20.21,52.98 20.15,52.63 20.07,52.28 19.97,51.95 19.86,51.61 19.73,51.26 19.65,50.9 19.56,50.54 19.48,50.18 19.42,49.81 19.4,49.62 19.39,49.43 19.39,49.24 19.4,49.15 19.4,49.05 19.43,48.95 19.46,48.87 19.48,48.74 19.63,48.71 L 19.63,48.78 C 19.54,48.85 19.56,49.07 19.59,49.23 19.62,49.4 19.67,49.57 19.72,49.74 19.83,50.08 19.96,50.42 20.1,50.75 20.37,51.4 20.69,52.1 20.87,52.83 21.23,54.28 21.28,55.76 21.29,57.23 21.29,58.69 21.24,60.16 20.96,61.62 20.92,61.8 20.87,61.98 20.8,62.16 20.77,62.26 20.73,62.34 20.67,62.44 L 20.51,62.66 C 20.31,62.96 20.14,63.28 19.98,63.6 19.65,64.25 19.36,64.91 19.1,65.59 L 19.03,65.57 Z M 19.03,65.57" />
            <path id="joe05Canvas-bezier74" stroke="none" fill="rgb(51, 91, 113)" d="M 20.27,49.45 C 20.36,49.01 20.41,48.56 20.39,48.13 20.39,47.71 20.29,47.26 20.04,47.07 19.94,46.99 19.71,46.93 19.51,46.87 19.31,46.8 19.1,46.74 18.9,46.65 18.5,46.47 18.1,46.3 17.69,46.03 L 17.7,45.97 C 18.18,45.87 18.65,45.91 19.11,46.01 19.34,46.06 19.56,46.15 19.77,46.25 19.97,46.37 20.19,46.45 20.42,46.69 20.82,47.16 20.78,47.7 20.73,48.15 20.66,48.62 20.52,49.05 20.34,49.47 L 20.27,49.45 Z M 20.27,49.45" />
            <path id="joe05Canvas-bezier75" stroke="none" fill="rgb(51, 91, 113)" d="M 17,45.56 C 16.25,45.42 15.48,45.36 14.74,45.38 14.37,45.39 14.01,45.49 13.65,45.48 13.28,45.48 12.92,45.49 12.5,45.45 L 12.48,45.39 C 12.77,45.08 13.17,44.91 13.56,44.81 13.96,44.71 14.37,44.79 14.77,44.84 15.56,44.94 16.32,45.16 17.02,45.5 L 17,45.56 Z M 17,45.56" />
            <path id="joe05Canvas-bezier76" stroke="none" fill="rgb(51, 91, 113)" d="M 12.11,44.89 C 11.27,44.95 10.44,45.04 9.64,45.18 9.23,45.25 8.85,45.39 8.45,45.44 8.06,45.49 7.68,45.53 7.25,45.62 L 7.21,45.56 C 7.45,45.15 7.88,44.93 8.29,44.78 8.71,44.63 9.16,44.65 9.58,44.64 10.44,44.62 11.28,44.69 12.11,44.83 L 12.11,44.89 Z M 12.11,44.89" />
            <path id="joe05Canvas-bezier77" stroke="none" fill="rgb(51, 91, 113)" d="M 26.45,126.04 C 27.62,128.87 28.65,131.77 29.43,134.74 29.82,136.23 30.14,137.74 30.27,139.28 30.33,140.05 30.34,140.84 30.22,141.62 L 29.86,143.89 C 29.36,146.91 28.96,149.94 28.72,152.97 28.61,154.49 28.5,156.01 28.59,157.52 28.63,158.27 28.7,159.02 28.88,159.75 29.06,160.48 29.32,161.2 29.84,161.76 L 29.79,161.81 C 29.18,161.32 28.8,160.58 28.55,159.85 28.3,159.1 28.15,158.33 28.06,157.56 27.9,156.01 27.91,154.46 28.02,152.92 28.27,149.84 28.86,146.82 29.41,143.81 L 29.83,141.55 C 29.95,140.82 29.96,140.06 29.91,139.31 29.81,137.8 29.52,136.29 29.17,134.81 28.46,131.84 27.5,128.92 26.39,126.07 L 26.45,126.04 Z M 26.45,126.04" />
            <path id="joe05Canvas-bezier78" stroke="none" fill="rgb(51, 91, 113)" d="M 26.87,159.39 C 27.16,161.9 27.38,164.41 27.52,166.93 27.65,169.46 27.75,171.99 27.48,174.52 27.4,175.15 27.3,175.79 27.09,176.41 26.97,176.72 26.87,176.98 26.91,177.24 26.94,177.5 27.09,177.74 27.3,177.93 27.73,178.31 28.33,178.54 28.91,178.71 29.51,178.89 30.12,179.01 30.74,179.1 33.22,179.45 35.76,179.48 38.27,179.39 L 38.24,179.39 C 43.12,178.65 48.02,178.03 52.95,177.75 55.42,177.63 57.89,177.55 60.36,177.68 61.6,177.74 62.83,177.85 64.06,178.08 64.67,178.2 65.27,178.35 65.85,178.58 66.42,178.82 67.02,179.12 67.35,179.67 L 67.29,179.71 C 66.95,179.2 66.36,178.95 65.79,178.76 65.21,178.57 64.61,178.46 64.01,178.38 62.8,178.21 61.57,178.16 60.35,178.14 57.9,178.12 55.44,178.23 52.99,178.42 50.54,178.59 48.09,178.82 45.65,179.07 43.2,179.31 40.76,179.6 38.32,179.93 L 38.31,179.93 38.29,179.93 C 35.75,179.99 33.2,179.93 30.67,179.54 30.04,179.43 29.41,179.3 28.79,179.11 28.18,178.92 27.55,178.68 27.03,178.22 26.78,177.98 26.57,177.66 26.53,177.28 26.52,177.1 26.53,176.92 26.58,176.74 26.63,176.57 26.69,176.43 26.74,176.29 26.95,175.71 27.05,175.09 27.14,174.48 27.45,171.99 27.4,169.46 27.32,166.94 27.22,164.42 27.05,161.9 26.8,159.39 L 26.87,159.39 Z M 26.87,159.39" />
            <path id="joe05Canvas-bezier79" stroke="none" fill="rgb(51, 91, 113)" d="M 67.28,174.88 C 67.19,173.28 67.14,171.67 67.13,170.07 67.13,169.27 67.07,168.46 67.18,167.66 67.29,166.86 67.4,166.04 67.79,165.29 L 67.86,165.31 C 67.83,166.11 67.87,166.91 67.85,167.7 67.85,168.5 67.73,169.29 67.67,170.09 L 67.35,174.88 67.28,174.88 Z M 67.28,174.88" />
            <path id="joe05Canvas-bezier80" stroke="none" fill="rgb(51, 91, 113)" d="M 94.31,73.15 C 94.68,77.71 94.84,82.3 94.7,86.88 94.61,89.17 94.45,91.47 94.12,93.74 93.95,94.88 93.74,96.02 93.44,97.14 93.3,97.69 93.13,98.25 92.93,98.8 92.74,99.34 92.56,99.87 92.4,100.41 91.77,102.6 91.34,104.84 91.02,107.09 90.7,109.35 90.47,111.61 90.36,113.89 90.22,116.16 90.22,118.44 90.42,120.7 90.53,121.83 90.69,122.96 91,124.05 91.31,125.11 91.72,126.26 92.7,126.88 L 92.67,126.94 C 92.14,126.67 91.75,126.21 91.44,125.72 91.13,125.22 90.89,124.69 90.7,124.14 90.33,123.04 90.11,121.9 89.95,120.76 89.65,118.47 89.62,116.16 89.68,113.86 89.87,109.26 90.56,104.68 91.89,100.26 93.63,95.99 94.12,91.43 94.36,86.87 94.59,82.3 94.53,77.72 94.24,73.15 L 94.31,73.15 Z M 94.31,73.15" />
            <path id="joe05Canvas-bezier81" stroke="none" fill="rgb(51, 91, 113)" d="M 92.32,130.09 C 93,130.95 93.59,131.88 94.09,132.86 94.58,133.84 94.99,134.89 95.04,136.01 95.06,136.56 94.98,137.13 94.72,137.64 94.59,137.89 94.41,138.1 94.32,138.35 94.22,138.59 94.15,138.85 94.09,139.11 93.89,140.17 93.88,141.27 93.91,142.36 93.99,144.54 94.26,146.71 94.61,148.86 94.97,151.01 95.41,153.15 95.96,155.27 96.51,157.38 97.13,159.45 98.14,161.41 98.96,163.5 99.26,165.69 99.55,167.87 100.06,172.23 100.23,176.61 100.25,181 L 100.25,181.44 99.83,181.32 C 97.36,180.67 94.87,180.07 92.37,179.51 89.87,178.96 87.37,178.41 84.85,177.96 82.34,177.51 79.81,177.1 77.27,176.87 76,176.76 74.72,176.69 73.45,176.71 72.18,176.76 70.87,176.84 69.74,177.44 L 69.7,177.38 C 70.83,176.72 72.16,176.58 73.43,176.47 74.72,176.38 76.01,176.41 77.3,176.48 79.87,176.63 82.42,176.97 84.95,177.39 87.49,177.81 90.01,178.28 92.52,178.85 95.02,179.41 97.52,180.01 100,180.68 L 99.58,181 C 99.6,176.64 99.5,172.26 99.03,167.93 98.77,165.77 98.48,163.58 97.72,161.58 96.73,159.63 96.11,157.48 95.57,155.36 95.05,153.23 94.62,151.08 94.29,148.91 93.97,146.74 93.72,144.56 93.67,142.37 93.66,141.27 93.68,140.16 93.9,139.07 93.96,138.8 94.03,138.53 94.15,138.27 94.25,138 94.44,137.79 94.56,137.56 94.81,137.09 94.9,136.55 94.88,136.01 94.85,134.93 94.46,133.88 93.99,132.91 93.51,131.93 92.92,131 92.26,130.13 L 92.32,130.09 Z M 92.32,130.09" />
            <path id="joe05Canvas-bezier82" stroke="none" fill="rgb(51, 91, 113)" d="M 25.66,93.06 C 25.53,91.55 25.46,90.05 25.47,88.53 25.48,87.78 25.44,87.01 25.58,86.26 25.72,85.51 25.89,84.72 26.39,84.09 L 26.45,84.12 C 26.31,84.86 26.31,85.59 26.25,86.33 26.22,87.07 26.08,87.81 26.01,88.56 25.89,90.05 25.8,91.55 25.73,93.06 L 25.66,93.06 Z M 25.66,93.06" />
            <path id="joe05Canvas-bezier83" stroke="none" fill="rgb(51, 91, 113)" d="M 62.6,82.11 C 62.56,82.4 62.51,82.68 62.42,82.97 62.32,83.23 62.16,83.59 61.71,83.62 61.63,83.61 61.5,83.57 61.42,83.52 61.34,83.47 61.27,83.4 61.22,83.34 61.11,83.2 61.03,83.05 60.98,82.89 60.88,82.59 60.84,82.27 60.85,81.96 60.86,81.65 60.91,81.32 61.04,81.01 61.11,80.86 61.2,80.7 61.34,80.55 61.48,80.41 61.72,80.28 62,80.31 62.11,80.33 62.06,80.32 62.17,80.36 62.25,80.39 62.3,80.43 62.35,80.46 62.44,80.53 62.5,80.62 62.55,80.7 62.63,80.88 62.66,81.05 62.67,81.21 62.69,81.53 62.64,81.83 62.6,82.11 Z M 62.54,82.11 C 62.55,81.82 62.47,81.54 62.33,81.31 62.2,81.07 61.96,80.93 61.94,80.98 61.93,80.97 61.75,81.09 61.64,81.3 61.51,81.51 61.44,81.74 61.39,82.01 61.35,82.26 61.35,82.53 61.4,82.77 61.45,83.01 61.58,83.25 61.74,83.28 61.9,83.33 62.14,83.13 62.29,82.9 62.44,82.67 62.52,82.39 62.54,82.11 Z M 62.54,82.11" />
            <path id="joe05Canvas-bezier84" stroke="none" fill="rgb(51, 91, 113)" d="M 63.34,107.51 C 63.35,107.8 63.36,108.09 63.32,108.38 63.27,108.66 63.21,109.04 62.74,109.16 62.69,109.17 62.53,109.16 62.45,109.12 62.36,109.09 62.28,109.04 62.22,108.98 62.08,108.87 61.98,108.73 61.9,108.59 61.74,108.31 61.64,108.02 61.59,107.69 61.54,107.4 61.52,107.06 61.59,106.73 61.63,106.57 61.68,106.39 61.79,106.23 61.91,106.06 62.08,105.88 62.42,105.85 62.45,105.85 62.68,105.88 62.76,105.94 62.86,105.99 62.94,106.07 63,106.14 63.12,106.29 63.18,106.45 63.23,106.61 63.31,106.92 63.31,107.22 63.34,107.51 Z M 63.27,107.51 C 63.23,107.23 63.09,106.97 62.91,106.77 62.72,106.57 62.5,106.47 62.43,106.53 62.49,106.52 62.28,106.68 62.23,106.9 62.15,107.13 62.12,107.37 62.13,107.65 62.14,107.89 62.19,108.16 62.29,108.39 62.39,108.62 62.54,108.83 62.73,108.82 62.87,108.84 63.09,108.59 63.18,108.35 63.29,108.09 63.31,107.8 63.27,107.51 Z M 63.27,107.51" />
            <path id="joe05Canvas-bezier85" stroke="none" fill="rgb(51, 91, 113)" d="M 69.32,128.19 C 69.35,128.47 69.37,128.76 69.35,129.06 69.31,129.34 69.27,129.73 68.81,129.87 68.77,129.88 68.61,129.88 68.53,129.85 68.43,129.82 68.35,129.77 68.28,129.72 68.14,129.61 68.03,129.48 67.94,129.35 67.76,129.08 67.65,128.78 67.58,128.48 67.52,128.18 67.48,127.85 67.53,127.51 67.56,127.34 67.6,127.17 67.7,126.99 67.81,126.82 67.97,126.64 68.31,126.59 68.34,126.58 68.57,126.6 68.65,126.65 68.76,126.7 68.84,126.77 68.91,126.84 69.04,126.98 69.11,127.14 69.16,127.3 69.26,127.6 69.28,127.9 69.32,128.19 Z M 69.25,128.2 C 69.19,127.92 69.04,127.67 68.85,127.48 68.65,127.29 68.43,127.2 68.36,127.26 68.41,127.25 68.22,127.42 68.18,127.65 68.11,127.87 68.09,128.12 68.12,128.39 68.14,128.65 68.21,128.9 68.32,129.13 68.44,129.35 68.6,129.55 68.79,129.53 68.92,129.55 69.13,129.29 69.21,129.03 69.3,128.77 69.31,128.48 69.25,128.2 Z M 69.25,128.2" />
            <path id="joe05Canvas-bezier86" stroke="none" fill="rgb(51, 91, 113)" d="M 71.4,150.87 C 71.36,151.15 71.31,151.44 71.22,151.72 71.12,151.98 70.96,152.35 70.51,152.37 70.43,152.37 70.3,152.33 70.22,152.28 70.14,152.23 70.07,152.16 70.02,152.09 69.9,151.95 69.83,151.8 69.78,151.65 69.68,151.35 69.64,151.03 69.65,150.72 69.66,150.41 69.71,150.08 69.84,149.77 69.91,149.61 70,149.45 70.14,149.31 70.29,149.17 70.49,149.03 70.83,149.07 70.86,149.07 71.08,149.15 71.15,149.22 71.24,149.29 71.3,149.38 71.35,149.46 71.43,149.64 71.46,149.81 71.47,149.97 71.49,150.29 71.44,150.58 71.4,150.87 Z M 71.34,150.86 C 71.35,150.58 71.27,150.29 71.13,150.06 70.99,149.83 70.79,149.69 70.71,149.73 70.77,149.74 70.53,149.85 70.44,150.06 70.31,150.26 70.24,150.5 70.19,150.76 70.15,151.02 70.15,151.28 70.2,151.53 70.25,151.77 70.38,152.01 70.54,152.04 70.7,152.09 70.94,151.88 71.09,151.66 71.24,151.43 71.32,151.15 71.34,150.86 Z M 71.34,150.86" />
        </g>
    </g>
</svg>
