<?xml version="1.0" encoding="UTF-8"?>
<!DOCTYPE svg PUBLIC "-//W3C//DTD SVG 1.1//EN" "http://www.w3.org/Graphics/SVG/1.1/DTD/svg11.dtd">
<svg version="1.1" xmlns="http://www.w3.org/2000/svg" xmlns:xlink="http://www.w3.org/1999/xlink" width="149" height="378"  xml:space="preserve" id="joe03Canvas">
    <!-- Generated by PaintCode - http://www.paintcodeapp.com -->
    <g id="joe03Canvas-lines">
        <g id="joe03Canvas-group2">
            <path id="joe03Canvas-bezier" stroke="none" fill="rgb(51, 91, 113)" d="M 67.14,28.28 C 67.28,27.72 67.7,27.29 68.11,26.93 68.54,26.56 69.03,26.27 69.55,26.03 70.58,25.57 71.72,25.34 72.85,25.29 73.98,25.25 75.14,25.29 76.22,25.65 77.29,26 78.31,26.5 79.19,27.21 L 79.15,27.31 C 78.04,27.11 77,26.84 75.96,26.64 74.92,26.44 73.91,26.16 72.85,26.11 71.8,26.06 70.74,26.17 69.74,26.51 69.23,26.67 68.74,26.88 68.3,27.17 67.87,27.46 67.43,27.81 67.24,28.31 L 67.14,28.28 Z M 67.14,28.28" />
            <path id="joe03Canvas-bezier2" stroke="none" fill="rgb(51, 91, 113)" d="M 55.04,31.39 C 55.26,30.55 55.94,29.93 56.64,29.48 57.37,29.03 58.2,28.74 59.05,28.63 59.91,28.53 60.8,28.61 61.63,28.87 62.47,29.08 63.32,29.67 63.81,30.43 64.83,31.94 65.08,33.75 64.98,35.44 64.86,37.14 64.45,38.81 63.69,40.31 L 63.59,40.28 C 63.81,38.63 63.97,37.02 63.96,35.41 63.92,33.84 63.88,32.19 63.12,30.87 62.73,30.22 62.18,29.76 61.42,29.5 60.69,29.23 59.89,29.1 59.1,29.15 58.31,29.18 57.51,29.38 56.8,29.75 56.1,30.12 55.41,30.65 55.14,31.42 L 55.04,31.39 Z M 55.04,31.39" />
            <path id="joe03Canvas-bezier3" stroke="none" fill="rgb(51, 91, 113)" d="M 63.91,43.35 L 64.49,43.36 C 64.69,43.39 64.85,43.39 65.11,43.48 65.35,43.61 65.68,43.7 65.71,44.18 65.71,44.42 65.56,44.67 65.39,44.74 65.22,44.82 65.06,44.78 64.92,44.7 L 64.87,44.61 C 64.89,44.44 64.89,44.32 64.84,44.26 64.79,44.19 64.71,44.26 64.69,44.32 64.66,44.44 64.71,44.24 64.66,44.17 64.61,44.08 64.43,43.95 64.3,43.84 L 63.87,43.45 63.91,43.35 Z M 63.91,43.35" />
            <path id="joe03Canvas-bezier4" stroke="none" fill="rgb(51, 91, 113)" d="M 66.95,43.41 C 66.88,43.22 67.03,42.99 67.13,42.86 67.24,42.7 67.38,42.57 67.52,42.45 67.84,42.23 68.14,42 68.68,41.98 69.03,42.02 69.13,42.09 69.34,42.15 69.52,42.22 69.7,42.31 69.84,42.45 69.97,42.6 70.1,42.76 70.19,42.98 70.28,43.17 70.32,43.52 70.11,43.69 L 70.01,43.66 C 69.91,43.49 69.76,43.51 69.63,43.44 69.49,43.39 69.36,43.33 69.22,43.28 69.09,43.22 68.97,43.13 68.85,43.03 68.76,42.93 68.56,42.81 68.57,42.8 68.42,42.72 68.06,42.79 67.78,42.89 67.5,42.99 67.12,43.12 67.06,43.4 L 66.95,43.41 Z M 66.95,43.41" />
            <path id="joe03Canvas-bezier5" stroke="none" fill="rgb(51, 91, 113)" d="M 70.62,40.41 C 71.17,40.78 71.67,41.25 72.02,41.88 72.19,42.19 72.41,42.56 72.33,42.98 72.25,43.38 71.99,43.77 71.57,43.89 L 71.48,43.83 C 71.41,43.42 71.36,43.18 71.3,42.94 71.23,42.72 71.32,42.46 71.25,42.18 71.14,41.62 70.87,41.04 70.54,40.49 L 70.62,40.41 Z M 70.62,40.41" />
            <path id="joe03Canvas-bezier6" stroke="none" fill="rgb(51, 91, 113)" d="M 64.11,50.23 C 64.86,49.5 65.98,49.2 67.03,49.35 67.51,49.4 67.99,49.08 68.44,48.87 68.9,48.63 69.37,48.36 69.88,48.23 70.89,47.92 71.93,47.74 72.99,47.75 74.04,47.78 75.13,48.01 75.99,48.61 L 75.98,48.63 C 75.05,48.16 74.01,48 72.99,48.01 71.96,48.01 70.94,48.16 69.94,48.42 68.94,48.62 68.13,49.47 67.01,49.47 66,49.3 64.9,49.55 64.13,50.25 L 64.11,50.23 Z M 64.11,50.23" />
            <path id="joe03Canvas-bezier7" stroke="none" fill="rgb(51, 91, 113)" d="M 65.34,50.95 C 65.89,51.13 66.5,51.06 67.06,50.95 67.64,50.86 68.18,50.69 68.76,50.49 69.32,50.3 69.85,50.02 70.42,49.9 70.99,49.78 71.52,49.65 72.18,49.56 L 72.23,49.65 C 71.89,50.22 71.33,50.6 70.76,50.87 70.19,51.15 69.56,51.18 68.95,51.29 68.37,51.38 67.72,51.47 67.1,51.46 66.48,51.44 65.83,51.37 65.28,51.04 L 65.34,50.95 Z M 65.34,50.95" />
            <path id="joe03Canvas-bezier8" stroke="none" fill="rgb(51, 91, 113)" d="M 67.51,54.04 C 67.7,53.61 67.92,53.13 68.36,52.79 68.79,52.47 69.3,52.3 69.78,52.17 70.27,52.05 70.75,51.87 71.29,51.96 71.78,52.03 72.42,52.25 72.66,52.81 L 72.59,52.89 C 72.07,52.84 71.7,52.94 71.26,52.98 70.84,53.05 70.36,52.96 69.91,52.98 69.46,53 69.01,53.05 68.63,53.22 68.23,53.37 67.91,53.72 67.6,54.09 L 67.51,54.04 Z M 67.51,54.04" />
            <path id="joe03Canvas-bezier9" stroke="none" fill="rgb(51, 91, 113)" d="M 64.81,55.66 C 65.36,57.03 65.88,58.52 67.08,59.38 67.67,59.81 68.37,59.95 69.12,59.92 69.87,59.93 70.61,59.94 71.35,59.89 74.31,59.77 77.2,58.79 79.52,57.01 81.88,55.27 83.53,52.75 85.35,50.41 86.24,49.23 87.07,48.01 87.65,46.69 88.26,45.37 88.36,43.89 88.47,42.39 L 88.57,42.38 C 88.66,43.13 88.72,43.88 88.72,44.65 88.7,45.42 88.56,46.19 88.32,46.94 87.84,48.42 87.01,49.73 86.19,51 85.33,52.25 84.4,53.43 83.42,54.58 82.41,55.74 81.27,56.8 80.01,57.67 77.5,59.47 74.41,60.39 71.37,60.41 70.61,60.42 69.85,60.38 69.1,60.33 68.35,60.33 67.51,60.12 66.9,59.63 65.64,58.63 65.21,57.08 64.71,55.7 L 64.81,55.66 Z M 64.81,55.66" />
            <path id="joe03Canvas-bezier10" stroke="none" fill="rgb(51, 91, 113)" d="M 63.86,54.53 C 62.28,53.38 60.95,51.89 59.87,50.24 59.33,49.41 58.77,48.57 58.48,47.61 58.19,46.66 58.01,45.67 58.09,44.66 L 58.19,44.64 C 58.67,45.53 59.04,46.39 59.44,47.24 59.85,48.09 60.13,48.99 60.57,49.83 61.01,50.67 61.51,51.48 62.07,52.25 62.62,53.03 63.23,53.78 63.92,54.45 L 63.86,54.53 Z M 63.86,54.53" />
            <path id="joe03Canvas-bezier11" stroke="none" fill="rgb(51, 91, 113)" d="M 57.55,43.71 C 56.63,42.58 56.08,41.22 55.59,39.87 55.35,39.19 55.05,38.52 54.98,37.8 54.9,37.08 54.87,36.36 55.04,35.61 L 55.14,35.6 C 55.53,36.25 55.77,36.92 55.98,37.59 56.2,38.25 56.24,38.96 56.38,39.65 56.52,40.33 56.68,41.02 56.89,41.69 57.08,42.36 57.29,43.04 57.63,43.64 L 57.55,43.71 Z M 57.55,43.71" />
            <path id="joe03Canvas-bezier12" stroke="none" fill="rgb(51, 91, 113)" d="M 53.21,31.69 C 52.68,31.31 52.17,30.9 51.72,30.42 51.3,29.95 50.83,29.4 50.84,28.67 50.84,28.5 50.93,28.31 50.99,28.18 51.05,28.04 51.06,27.91 51.02,27.79 50.92,27.54 50.64,27.37 50.37,27.21 50.1,27.05 49.81,26.89 49.53,26.69 49.26,26.5 48.98,26.22 48.92,25.84 48.84,25.45 49.04,25.1 49.1,24.84 49.16,24.55 49.16,24.24 49.12,23.93 49.04,23.32 48.82,22.71 48.65,22.08 48.49,21.45 48.35,20.76 48.53,20.05 48.61,19.7 48.83,19.39 48.96,19.13 49.06,18.91 49.1,18.61 49.08,18.32 49.04,17.72 48.82,17.12 48.6,16.53 48.37,15.93 48.08,15.36 47.95,14.63 47.93,14.45 47.92,14.24 48.01,14 48.11,13.75 48.37,13.58 48.57,13.54 48.72,13.49 48.76,13.45 48.87,13.36 48.96,13.27 49.05,13.17 49.13,13.05 49.45,12.56 49.67,11.96 49.88,11.36 50.09,10.75 50.27,10.14 50.54,9.5 50.62,9.34 50.7,9.18 50.82,9.01 50.89,8.93 50.97,8.84 51.11,8.75 51.25,8.67 51.48,8.65 51.65,8.72 51.81,8.8 51.87,8.83 51.8,8.8 51.79,8.8 51.82,8.8 51.87,8.78 51.96,8.75 52.09,8.68 52.2,8.6 53.17,7.9 54.05,6.9 54.97,6 55.43,5.54 55.9,5.08 56.41,4.65 56.67,4.43 56.94,4.22 57.25,4.03 57.41,3.94 57.58,3.85 57.79,3.78 57.98,3.71 58.32,3.69 58.56,3.8 58.85,3.97 59.43,3.66 59.95,3.34 60.48,3.01 61.03,2.63 61.64,2.31 62.24,2 62.96,1.71 63.78,1.78 64.16,1.8 64.63,2 64.87,2.13 65.11,2.24 65.38,2.32 65.64,2.36 66.17,2.44 66.72,2.32 67.36,2.15 67.97,1.99 68.81,1.84 69.57,2.12 69.73,2.18 69.97,2.31 70.04,2.34 70.14,2.39 70.16,2.38 70.18,2.39 70.21,2.4 70.26,2.41 70.3,2.41 70.46,2.41 70.68,2.32 70.9,2.16 71.33,1.83 71.72,1.33 72.14,0.82 72.39,0.57 72.5,0.29 73.05,0.03 73.21,-0.03 73.49,-0.01 73.66,0.12 73.81,0.24 73.88,0.37 73.93,0.47 L 74.04,0.7 C 74.07,0.74 74.06,0.74 74.1,0.78 74.31,1.04 75.02,1.03 75.62,0.96 76.26,0.91 76.91,0.77 77.65,0.9 77.84,0.94 78.04,1 78.21,1.13 78.39,1.25 78.53,1.48 78.58,1.62 78.7,1.88 78.88,2.1 79.11,2.31 79.56,2.71 80.15,3.14 80.47,3.75 80.8,4.34 80.93,5 80.99,5.65 L 80.89,5.66 C 80.76,5.04 80.56,4.42 80.21,3.91 79.87,3.38 79.34,3.07 78.8,2.66 78.53,2.45 78.28,2.18 78.11,1.86 77.98,1.6 77.83,1.53 77.55,1.48 77,1.41 76.36,1.57 75.72,1.67 75.39,1.73 75.05,1.78 74.69,1.77 74.33,1.77 73.88,1.7 73.52,1.36 73.44,1.29 73.34,1.15 73.29,1.05 L 73.19,0.85 C 73.17,0.8 73.14,0.79 73.17,0.81 73.2,0.85 73.31,0.85 73.32,0.84 73.27,0.85 73,1.14 72.83,1.37 72.44,1.87 72.06,2.43 71.48,2.91 71.19,3.14 70.81,3.38 70.32,3.4 70.2,3.41 70.09,3.39 69.96,3.37 69.82,3.34 69.69,3.29 69.63,3.27 69.41,3.17 69.37,3.14 69.22,3.09 68.74,2.92 68.23,3 67.61,3.17 67.01,3.33 66.26,3.52 65.49,3.41 65.11,3.36 64.75,3.25 64.41,3.08 64.08,2.92 63.94,2.86 63.67,2.82 63.19,2.76 62.63,2.95 62.1,3.22 61.55,3.48 61.02,3.83 60.45,4.17 60.16,4.34 59.86,4.51 59.5,4.64 59.32,4.7 59.13,4.76 58.9,4.77 58.79,4.78 58.68,4.78 58.54,4.76 58.36,4.72 58.29,4.69 58.22,4.66 58.18,4.6 57.94,4.66 57.7,4.81 57.45,4.94 57.2,5.13 56.96,5.32 56.48,5.71 56.01,6.15 55.55,6.59 54.6,7.47 53.75,8.43 52.61,9.23 52.45,9.33 52.29,9.42 52.08,9.49 51.96,9.52 51.83,9.55 51.67,9.52 51.43,9.46 51.36,9.37 51.38,9.39 51.39,9.41 51.46,9.39 51.45,9.39 51.45,9.38 51.42,9.41 51.38,9.45 51.32,9.54 51.25,9.67 51.18,9.8 50.93,10.35 50.73,10.97 50.51,11.58 50.28,12.19 50.05,12.82 49.65,13.41 49.55,13.55 49.42,13.7 49.28,13.83 49.14,13.95 48.9,14.08 48.74,14.12 48.63,14.15 48.59,14.18 48.56,14.24 48.53,14.3 48.52,14.43 48.54,14.56 48.74,15.71 49.51,16.9 49.59,18.29 49.6,18.64 49.56,19 49.39,19.36 49.22,19.68 49.05,19.89 48.98,20.18 48.81,20.74 48.91,21.37 49.05,21.98 49.2,22.6 49.4,23.22 49.48,23.89 49.51,24.23 49.51,24.58 49.42,24.92 49.32,25.27 49.17,25.52 49.22,25.79 49.31,26.34 49.98,26.65 50.51,26.99 50.77,27.17 51.09,27.35 51.24,27.72 51.3,27.9 51.26,28.12 51.19,28.27 51.11,28.43 51.06,28.54 51.04,28.69 51.01,29.29 51.43,29.85 51.84,30.32 52.26,30.8 52.75,31.23 53.27,31.61 L 53.21,31.69 Z M 53.21,31.69" />
            <path id="joe03Canvas-bezier13" stroke="none" fill="rgb(51, 91, 113)" d="M 76.21,13.52 C 75.83,13.93 75.42,14.3 74.95,14.62 74.49,14.93 73.98,15.23 73.34,15.2 73.03,15.19 72.71,14.98 72.52,14.81 72.33,14.67 72.17,14.64 71.97,14.76 71.57,15.02 71.05,15.43 70.46,15.55 69.87,15.68 69.27,15.64 68.7,15.54 68.13,15.43 67.61,15.22 67.13,15.22 66.13,15.15 65.31,15.79 64.59,16.58 64.21,16.98 63.85,17.42 63.31,17.78 62.78,18.17 61.93,18.28 61.31,18.02 60.31,17.6 59.45,17.64 58.38,17.92 58.11,17.98 57.82,18.05 57.48,18.06 57.14,18.08 56.71,17.98 56.41,17.75 56.26,17.64 56.14,17.51 56.03,17.38 L 55.92,17.24 C 55.89,17.22 55.88,17.19 55.84,17.17 55.71,17.07 55.57,17.03 55.36,17.06 54.95,17.13 54.51,17.47 54.16,17.84 53.79,18.22 53.44,18.66 53.29,19.16 L 53.19,19.15 C 53.19,18.55 53.49,18.04 53.79,17.55 54.13,17.09 54.52,16.62 55.17,16.37 55.5,16.25 55.96,16.26 56.29,16.49 56.37,16.53 56.45,16.6 56.53,16.67 L 56.69,16.84 C 56.76,16.92 56.84,16.98 56.91,17.03 57.18,17.21 57.59,17.1 58.13,16.93 58.65,16.79 59.26,16.64 59.89,16.65 60.21,16.65 60.52,16.7 60.83,16.78 61.13,16.85 61.45,16.99 61.66,17.07 62.07,17.25 62.42,17.23 62.82,17 63.22,16.77 63.6,16.39 64,16.01 64.41,15.63 64.84,15.22 65.39,14.93 65.92,14.63 66.57,14.5 67.18,14.55 67.81,14.6 68.32,14.85 68.82,14.96 69.34,15.08 69.86,15.14 70.35,15.05 70.86,14.97 71.25,14.7 71.78,14.39 71.92,14.33 72.11,14.27 72.31,14.3 72.5,14.34 72.63,14.43 72.76,14.54 72.97,14.75 73.12,14.86 73.38,14.9 73.86,14.96 74.39,14.72 74.84,14.45 75.31,14.17 75.74,13.83 76.13,13.45 L 76.21,13.52 Z M 76.21,13.52" />
            <path id="joe03Canvas-bezier14" stroke="none" fill="rgb(51, 91, 113)" d="M 52.91,20.42 C 52.76,20.52 52.72,20.76 52.68,20.96 52.64,21.18 52.62,21.39 52.61,21.61 52.59,22.04 52.59,22.48 52.61,22.91 52.62,23.13 52.64,23.34 52.67,23.54 52.69,23.71 52.77,23.96 52.8,24.17 L 53.06,25.48 C 53.23,26.32 53.48,27.23 53.64,27.94 53.61,27.97 53.82,28.29 53.89,28.5 53.97,28.73 54.05,28.95 54.09,29.19 54.18,29.66 54.19,30.18 53.98,30.62 L 53.88,30.6 C 53.8,30.16 53.6,29.79 53.41,29.43 53.3,29.25 53.2,29.07 53.08,28.91 52.97,28.71 52.88,28.7 52.68,28.32 52.28,27.35 52.34,26.49 52.24,25.59 L 52.14,24.27 C 52.13,24.05 52.09,23.87 52.08,23.59 52.07,23.35 52.08,23.13 52.1,22.9 52.14,22.45 52.21,22.01 52.3,21.57 52.35,21.35 52.41,21.13 52.48,20.91 52.56,20.71 52.62,20.46 52.86,20.33 L 52.91,20.42 Z M 52.91,20.42" />
            <path id="joe03Canvas-bezier15" stroke="none" fill="rgb(51, 91, 113)" d="M 77.66,12.41 C 78.05,12.55 78.46,12.67 78.84,12.87 79.23,13.07 79.57,13.39 79.79,13.79 80.23,14.58 80.25,15.51 80.28,16.32 80.31,16.69 80.43,17.07 80.66,17.25 80.9,17.46 81.26,17.49 81.72,17.59 81.94,17.65 82.27,17.76 82.45,18.08 82.62,18.38 82.6,18.67 82.58,18.91 82.51,19.4 82.43,19.71 82.45,20.11 82.47,20.88 82.69,21.65 83.04,22.34 83.2,22.69 83.41,23.01 83.64,23.31 83.85,23.6 84.13,23.87 84.35,23.97 84.98,24.28 85.18,24.8 85.36,25.2 85.52,25.62 85.64,26.04 85.73,26.45 L 86.01,27.68 C 86.1,28.09 86.19,28.49 86.41,28.83 L 86.34,28.9 C 85.63,28.31 85.41,27.42 85.05,26.68 84.88,26.3 84.73,25.91 84.54,25.58 84.36,25.24 84.13,24.95 83.96,24.92 82.91,24.41 82.49,23.58 82.11,22.75 81.77,21.92 81.59,21.01 81.63,20.1 81.63,19.66 81.77,19.14 81.84,18.81 81.87,18.64 81.87,18.48 81.83,18.42 81.82,18.36 81.72,18.29 81.54,18.23 81.19,18.12 80.67,18.07 80.26,17.69 79.86,17.3 79.78,16.78 79.77,16.33 79.8,15.48 79.84,14.66 79.51,13.93 79.21,13.17 78.38,12.83 77.62,12.5 L 77.66,12.41 Z M 77.66,12.41" />
            <path id="joe03Canvas-bezier16" stroke="none" fill="rgb(51, 91, 113)" d="M 82,3.39 C 83.16,3.18 84.41,3.57 85.26,4.43 85.7,4.85 85.94,5.43 86.42,5.5 86.65,5.56 86.9,5.51 87.18,5.44 87.43,5.39 87.82,5.23 88.22,5.5 88.55,5.78 88.61,6.12 88.69,6.41 88.75,6.71 88.78,7.01 88.81,7.31 88.86,7.89 88.86,8.48 88.86,9.05 88.88,10.14 89.07,11.3 89.79,11.97 90.14,12.31 90.61,12.5 91.16,12.75 91.43,12.87 91.74,13.02 92.02,13.3 92.31,13.58 92.48,13.99 92.53,14.34 92.58,14.69 92.54,15.05 92.51,15.33 92.47,15.63 92.47,15.84 92.46,16.13 92.45,16.67 92.49,17.22 92.56,17.77 92.65,18.89 92.88,20.01 93.06,21.14 93.15,21.71 93.24,22.28 93.31,22.86 93.34,23.15 93.37,23.44 93.37,23.74 93.35,24.02 93.4,24.37 93.13,24.62 L 93.07,24.54 C 93.2,24.34 93.12,24.03 93.08,23.77 93.02,23.49 92.94,23.22 92.85,22.95 L 92.36,21.3 C 92.03,20.2 91.75,19.07 91.54,17.91 91.46,17.32 91.4,16.73 91.4,16.12 91.39,15.48 91.57,14.87 91.52,14.47 91.49,14.05 91.27,13.84 90.75,13.57 90.27,13.32 89.66,13.04 89.2,12.55 87.34,10.41 88.79,7.55 87.9,5.9 87.69,5.68 86.97,6.09 86.32,5.9 85.98,5.81 85.72,5.57 85.54,5.32 85.36,5.07 85.22,4.85 85.03,4.64 84.31,3.81 83.14,3.36 82.02,3.49 L 82,3.39 Z M 82,3.39" />
            <path id="joe03Canvas-bezier17" stroke="none" fill="rgb(51, 91, 113)" d="M 88.96,27.49 C 89.19,26.66 89.7,25.9 90.42,25.38 91.15,24.88 92,24.59 92.97,24.66 93.48,24.74 93.91,25.13 94.13,25.54 94.37,25.96 94.49,26.4 94.56,26.84 94.72,27.71 94.72,28.59 94.68,29.45 94.57,31.17 94.4,32.88 93.87,34.54 93.6,35.36 93.28,36.18 92.8,36.93 92.55,37.3 92.28,37.67 91.91,37.96 91.55,38.25 91,38.41 90.58,38.21 L 90.61,38.11 C 91.02,38.13 91.36,37.93 91.59,37.62 91.83,37.33 92.01,36.97 92.16,36.6 92.46,35.85 92.69,35.06 92.88,34.26 93.26,32.66 93.65,31.02 93.86,29.38 93.95,28.56 93.99,27.73 93.9,26.94 93.82,26.16 93.55,25.31 92.87,25.16 92.15,25.05 91.26,25.23 90.59,25.64 89.89,26.06 89.34,26.74 89.05,27.52 L 88.96,27.49 Z M 88.96,27.49" />
            <path id="joe03Canvas-bezier18" stroke="none" fill="rgb(51, 91, 113)" d="M 89.35,29.6 C 89.76,29.92 90.24,30.19 90.7,30.29 90.82,30.31 90.93,30.33 91.03,30.33 91.08,30.32 91.14,30.33 91.18,30.31 L 91.25,30.29 91.37,30.27 C 91.73,30.24 91.96,30.5 92.04,30.67 92.13,30.86 92.17,31.02 92.2,31.18 92.29,31.79 92.31,32.38 92.09,32.93 91.87,33.44 91.55,34.01 90.93,34.24 L 90.86,34.17 C 90.99,33.62 91.02,33.14 91.1,32.65 91.16,32.17 91.37,31.7 91.38,31.25 91.39,31.15 91.38,31.04 91.36,30.98 91.35,30.91 91.35,30.96 91.43,30.93 91.41,30.93 91.33,30.93 91.36,30.93 L 91.23,30.93 C 91.14,30.94 91.06,30.92 90.98,30.91 90.81,30.88 90.67,30.83 90.53,30.77 89.99,30.49 89.61,30.09 89.27,29.67 L 89.35,29.6 Z M 89.35,29.6" />
            <path id="joe03Canvas-bezier19" stroke="none" fill="rgb(51, 91, 113)" d="M 88.58,31.63 C 89.01,32.42 89.4,33.25 89.46,34.26 89.44,34.86 89.47,35.14 89.44,35.5 89.42,35.66 89.42,35.8 89.42,35.88 89.39,35.97 89.52,36.12 89.78,36.17 L 89.82,36.26 C 89.68,36.47 89.29,36.65 88.93,36.42 88.59,36.2 88.49,35.87 88.42,35.6 88.27,35.07 88.58,34.48 88.64,34.21 88.71,33.83 88.7,33.4 88.66,32.97 88.63,32.54 88.57,32.1 88.48,31.66 L 88.58,31.63 Z M 88.58,31.63" />
            <path id="joe03Canvas-bezier20" stroke="none" fill="rgb(51, 91, 113)" d="M 91.06,26.66 C 91.36,26.39 91.7,26.16 92.14,26.03 92.35,25.98 92.66,25.85 92.96,26.09 93.27,26.32 93.32,26.8 93.03,26.99 L 92.92,27 C 92.62,26.82 92.49,26.93 92.46,26.98 92.43,27.04 92.35,26.89 92.19,26.85 91.88,26.78 91.49,26.76 91.1,26.76 L 91.06,26.66 Z M 91.06,26.66" />
            <path id="joe03Canvas-bezier21" stroke="none" fill="rgb(51, 91, 113)" d="M 70.21,32.79 C 70.45,32.58 70.67,32.35 70.84,32.1 70.93,31.97 70.99,31.85 71,31.74 71.04,31.53 71.12,31.38 71.21,31.22 71.58,30.62 72.17,30.15 72.85,29.9 73.53,29.65 74.31,29.55 74.98,29.79 75.66,30.02 76.24,30.41 76.67,30.96 L 76.62,31.05 C 75.92,30.99 75.33,30.85 74.75,30.79 74.18,30.73 73.64,30.58 73.08,30.69 72.54,30.79 72.01,31.08 71.63,31.52 71.54,31.62 71.44,31.74 71.4,31.84 71.33,32.04 71.2,32.18 71.08,32.3 70.83,32.53 70.55,32.71 70.27,32.87 L 70.21,32.79 Z M 70.21,32.79" />
            <path id="joe03Canvas-bezier22" stroke="none" fill="rgb(51, 91, 113)" d="M 70.96,33.15 C 71.98,33.18 73,33.1 73.93,32.86 74.4,32.73 74.78,32.48 75.17,32.33 75.58,32.16 75.93,31.96 76.4,31.62 L 76.49,31.66 C 76.55,32.26 76.19,32.85 75.7,33.2 75.22,33.58 74.61,33.62 74.07,33.67 72.97,33.75 71.93,33.57 70.94,33.25 L 70.96,33.15 Z M 70.96,33.15" />
            <path id="joe03Canvas-bezier23" stroke="none" fill="rgb(51, 91, 113)" d="M 63.43,33.57 C 62.49,32.99 61.36,32.82 60.42,33.13 59.97,33.28 59.51,33.61 59.11,33.8 58.69,34.03 58.3,34.26 57.95,34.72 L 57.85,34.72 C 57.63,34.07 58.03,33.37 58.51,32.97 59.03,32.53 59.62,32.43 60.25,32.33 60.87,32.24 61.5,32.32 62.06,32.52 62.61,32.75 63.1,33.08 63.49,33.49 L 63.43,33.57 Z M 63.43,33.57" />
            <path id="joe03Canvas-bezier24" stroke="none" fill="rgb(51, 91, 113)" d="M 58.41,34.95 C 58.83,35.05 59.28,35.07 59.7,35.05 60.13,35.04 60.55,34.99 60.94,34.88 61.35,34.78 61.7,34.55 62.1,34.48 62.5,34.4 62.91,34.32 63.43,34.31 L 63.49,34.4 C 63.27,34.88 62.89,35.2 62.47,35.44 62.04,35.68 61.53,35.68 61.05,35.69 60.1,35.72 59.15,35.51 58.37,35.04 L 58.41,34.95 Z M 58.41,34.95" />
            <path id="joe03Canvas-bezier25" stroke="none" fill="rgb(51, 91, 113)" d="M 62.41,33.97 C 62.39,34.21 62.31,34.48 62.16,34.7 62.01,34.94 61.73,35.12 61.41,35.16 60.78,35.21 60.09,34.73 60.06,33.92 59.99,33.3 60.54,32.39 61.47,32.51 L 61.65,32.56 C 61.75,32.59 61.85,32.65 61.94,32.7 62.09,32.81 62.2,32.96 62.28,33.1 62.43,33.41 62.43,33.71 62.41,33.96 L 62.41,33.97 Z M 62.31,33.96 C 62.29,33.72 62.09,33.53 61.89,33.49 61.79,33.46 61.69,33.47 61.61,33.48 61.58,33.49 61.57,33.51 61.55,33.51 L 61.36,33.53 C 61.27,33.61 60.92,33.61 60.87,34 60.82,34.2 61.04,34.62 61.41,34.65 61.59,34.69 61.8,34.66 62,34.55 62.2,34.43 62.33,34.21 62.31,33.96 L 62.31,33.96 62.31,33.96 Z M 62.31,33.96" />
            <path id="joe03Canvas-bezier26" stroke="none" fill="rgb(51, 91, 113)" d="M 75.6,31.5 C 75.57,32.08 75.2,32.83 74.39,32.9 73.66,32.97 72.86,32.36 72.84,31.48 72.81,31.11 72.94,30.65 73.23,30.33 73.52,30 73.93,29.8 74.43,29.84 74.81,29.86 75.24,30.16 75.41,30.49 75.6,30.84 75.62,31.2 75.6,31.5 Z M 75.5,31.5 C 75.49,31.2 75.26,30.97 75.02,30.88 74.76,30.79 74.59,30.84 74.37,30.86 74.13,30.93 73.71,31.06 73.66,31.52 73.6,31.87 73.9,32.36 74.41,32.39 74.62,32.43 74.9,32.38 75.14,32.23 75.37,32.08 75.52,31.79 75.5,31.5 Z M 75.5,31.5" />
            <path id="joe03Canvas-bezier27" stroke="none" fill="rgb(51, 91, 113)" d="M 56.57,50.44 C 56.41,50.22 56.23,50 56.03,49.82 55.85,49.65 55.6,49.5 55.45,49.51 55.31,49.54 55.29,49.61 55.09,49.92 54.76,50.32 54.26,50.3 53.95,50.25 53.31,50.13 52.76,49.96 52.31,49.7 52.08,49.57 51.87,49.46 51.67,49.36 51.46,49.28 51.26,49.2 50.97,49.29 L 50.89,49.22 C 50.99,48.9 51.38,48.66 51.73,48.65 52.08,48.61 52.4,48.68 52.69,48.75 53.27,48.9 53.71,49.3 54.14,49.45 54.36,49.54 54.51,49.53 54.57,49.5 54.68,49.39 55.04,48.89 55.51,49.01 55.92,49.12 56.09,49.39 56.27,49.63 56.43,49.87 56.56,50.13 56.66,50.39 L 56.57,50.44 Z M 56.57,50.44" />
            <path id="joe03Canvas-bezier28" stroke="none" fill="rgb(51, 91, 113)" d="M 52.35,54.5 C 52.03,52.77 51.65,51.01 50.98,49.4 50.81,49.01 50.6,48.59 50.31,48.38 50.1,48.19 49.68,48.52 49.46,48.82 49.21,49.14 49.05,49.56 48.74,49.95 48.45,50.36 47.85,50.59 47.36,50.52 46.45,50.37 45.62,50.38 44.7,50.33 43.8,50.27 42.88,50.13 42.01,49.83 41.58,49.69 41.14,49.49 40.75,49.31 40.34,49.12 40,49.03 39.57,48.97 38.75,48.85 37.89,48.92 37.07,49.11 35.42,49.51 33.86,50.36 32.7,51.55 31.51,52.72 30.99,54.34 30.5,56.03 30,57.7 29.65,59.44 29.21,61.16 28.99,62.02 28.77,62.88 28.5,63.74 28.2,64.57 27.94,65.47 27.32,66.16 L 27.25,66.1 C 27.7,65.36 27.87,64.48 28.05,63.62 28.23,62.76 28.37,61.89 28.51,61.02 28.79,59.27 29.1,57.52 29.51,55.76 29.74,54.89 29.99,54.02 30.36,53.16 30.74,52.27 31.3,51.5 31.98,50.84 33.35,49.53 35.08,48.69 36.89,48.31 37.8,48.13 38.75,48.07 39.69,48.23 40.14,48.31 40.65,48.47 41.04,48.67 41.45,48.88 41.82,49.06 42.23,49.2 43.03,49.5 43.88,49.66 44.75,49.74 45.6,49.82 46.56,49.84 47.41,50.01 47.8,50.07 48.13,49.96 48.39,49.65 48.65,49.35 48.84,48.94 49.14,48.57 49.29,48.38 49.47,48.2 49.7,48.09 49.84,48.02 49.9,47.98 50.09,47.96 50.25,47.94 50.41,48 50.52,48.09 50.94,48.43 51.09,48.87 51.27,49.28 51.89,50.97 52.19,52.73 52.45,54.49 L 52.35,54.5 Z M 52.35,54.5" />
            <path id="joe03Canvas-bezier29" stroke="none" fill="rgb(51, 91, 113)" d="M 29.29,64.2 C 28.69,65.67 28,67.12 26.99,68.4 26.74,68.71 26.45,69.01 26.11,69.26 25.81,69.48 25.59,69.77 25.37,70.09 24.95,70.74 24.63,71.46 24.34,72.18 23.76,73.64 23.3,75.15 22.93,76.68 22.83,77.06 22.75,77.45 22.68,77.82 22.69,77.8 22.68,77.9 22.68,77.93 22.69,77.95 22.69,77.94 22.69,77.95 22.7,77.97 22.71,78 22.75,78.03 22.83,78.09 22.98,78.16 23.15,78.21 23.85,78.4 24.67,78.49 25.46,78.66 27.05,78.96 28.68,79.56 29.98,80.65 30.31,80.92 30.61,81.23 30.89,81.54 L 31.67,82.45 33.17,84.3 C 34.14,85.55 35.15,86.74 36.31,87.75 37.48,88.77 38.86,89.54 40.37,90.03 L 40.35,90.13 C 38.76,89.92 37.2,89.28 35.87,88.32 34.54,87.36 33.44,86.15 32.38,84.96 L 30.85,83.13 30.1,82.22 C 29.85,81.94 29.6,81.66 29.32,81.42 28.22,80.42 26.79,79.81 25.28,79.46 24.52,79.27 23.75,79.17 22.92,78.92 22.71,78.84 22.49,78.76 22.26,78.56 22.15,78.47 22.05,78.32 22,78.15 21.98,78.07 21.97,77.96 21.97,77.88 L 21.99,77.69 C 22.07,77.29 22.18,76.9 22.28,76.52 22.71,74.97 23.22,73.46 23.87,71.99 24.2,71.25 24.56,70.53 25.03,69.86 25.27,69.54 25.56,69.2 25.91,68.96 26.22,68.76 26.51,68.49 26.76,68.2 27.78,67.02 28.54,65.6 29.19,64.16 L 29.29,64.2 Z M 29.29,64.2" />
            <path id="joe03Canvas-bezier30" stroke="none" fill="rgb(51, 91, 113)" d="M 12.61,162.48 C 12.48,162.92 12.32,163.37 12.12,163.8 11.91,164.25 11.59,164.61 11.3,164.97 10.71,165.71 10.06,166.4 9.36,167.04 8.66,167.68 7.89,168.24 7.22,168.85 6.9,169.16 6.61,169.48 6.4,169.85 6.16,170.25 5.94,170.65 5.71,171.06 4.81,172.7 3.98,174.39 2.89,175.94 2.33,176.7 1.81,177.51 0.97,178.13 0.64,178.36 0.45,178.64 0.58,178.99 0.7,179.34 1.07,179.7 1.49,179.81 L 1.49,179.92 C 0.97,179.94 0.49,179.66 0.17,179.2 0.01,178.96 -0.05,178.62 0.04,178.32 0.13,178.02 0.32,177.78 0.51,177.59 1.08,176.99 1.55,176.16 2.03,175.38 2.98,173.8 4,172.24 5,170.65 5.25,170.25 5.5,169.85 5.77,169.46 6.05,169.03 6.41,168.66 6.78,168.35 7.54,167.74 8.31,167.24 9.03,166.65 9.75,166.08 10.43,165.45 11.07,164.77 11.39,164.43 11.72,164.1 11.94,163.71 12.16,163.31 12.35,162.88 12.52,162.44 L 12.61,162.48 Z M 12.61,162.48" />
            <path id="joe03Canvas-bezier31" stroke="none" fill="rgb(51, 91, 113)" d="M 24.83,79.73 C 23.88,83.06 23.33,86.51 23.19,89.96 23.13,91.69 23.19,93.42 23.43,95.12 23.68,96.85 23.78,98.59 23.83,100.33 23.92,103.81 23.8,107.29 23.56,110.76 23.44,112.5 23.29,114.23 23.09,115.96 22.88,117.69 22.66,119.42 22.22,121.15 22.11,121.57 21.97,122.04 21.7,122.46 21.48,122.83 21.26,123.2 21.06,123.57 20.65,124.32 20.29,125.09 19.96,125.88 19.31,127.46 18.83,129.1 18.45,130.77 17.67,134.11 17.34,137.55 16.92,141 16.47,144.44 16.06,147.89 15.51,151.32 14.95,154.75 14.41,158.21 13.24,161.5 L 13.15,161.47 C 13.63,159.81 13.89,158.09 14.14,156.38 14.4,154.67 14.61,152.95 14.8,151.23 15.2,147.78 15.56,144.34 15.9,140.88 16.09,139.16 16.27,137.43 16.49,135.7 16.73,133.97 17.04,132.24 17.46,130.54 17.88,128.83 18.41,127.15 19.11,125.52 19.46,124.71 19.86,123.92 20.3,123.15 20.52,122.77 20.75,122.39 20.98,122.02 21.19,121.71 21.31,121.34 21.43,120.93 22.25,117.64 22.58,114.14 22.89,110.71 23.18,107.26 23.35,103.8 23.32,100.34 23.3,98.61 23.24,96.89 23.02,95.17 22.81,93.44 22.79,91.69 22.88,89.95 23.09,86.47 23.71,83.02 24.73,79.7 L 24.83,79.73 Z M 24.83,79.73" />
            <path id="joe03Canvas-bezier32" stroke="none" fill="rgb(51, 91, 113)" d="M 39.89,74.41 C 40.33,77.84 40.71,81.27 41.01,84.72 41.29,88.16 41.53,91.61 41.52,95.09 41.52,95.96 41.5,96.83 41.43,97.71 41.35,98.61 41.23,99.43 41.18,100.29 41.06,101.99 40.98,103.7 40.94,105.42 40.87,107.13 40.88,108.85 40.89,110.57 40.89,111.43 40.91,112.29 40.95,113.15 40.98,114 40.98,114.9 41.17,115.7 L 41.08,115.75 C 40.47,114.07 40.38,112.33 40.18,110.61 40.01,108.88 39.95,107.15 39.92,105.41 39.91,103.67 39.98,101.93 40.17,100.19 40.25,99.33 40.41,98.44 40.52,97.62 40.61,96.78 40.67,95.93 40.7,95.07 40.81,91.65 40.68,88.19 40.5,84.75 40.33,81.31 40.09,77.86 39.79,74.42 L 39.89,74.41 Z M 39.89,74.41" />
            <path id="joe03Canvas-bezier33" stroke="none" fill="rgb(51, 91, 113)" d="M 43.22,110.61 C 42.99,113.92 42.66,117.22 42.26,120.52 41.85,123.81 41.36,127.1 40.7,130.36 L 40.7,130.35 C 39.89,136.81 39.15,143.29 38.67,149.78 38.43,153.02 38.24,156.27 38.28,159.51 38.3,160.32 38.33,161.12 38.41,161.92 L 38.69,164.34 C 38.86,165.97 38.98,167.61 38.99,169.27 38.99,170.92 38.93,172.58 38.47,174.26 38.35,174.67 38.19,175.1 37.91,175.52 37.76,175.72 37.58,175.94 37.3,176.09 37.22,176.13 37.15,176.17 37.07,176.19 L 36.94,176.22 36.91,176.23 C 36.89,176.23 36.96,176.22 36.93,176.23 36.93,176.23 36.9,176.24 36.92,176.23 37.01,176.19 37,176.23 37.15,176.09 37.4,175.7 37.22,175.5 37.11,175.38 37.04,175.32 37.05,175.34 37.01,175.32 L 36.98,175.3 37.02,175.31 37.14,175.34 C 37.91,175.47 38.73,175.56 39.54,175.66 L 49.27,176.73 C 55.77,177.42 62.27,178.16 68.76,178.96 L 68.75,179.07 C 62.22,178.68 55.7,178.22 49.19,177.64 45.93,177.36 42.67,177.06 39.42,176.67 38.6,176.57 37.8,176.49 36.95,176.34 L 36.78,176.3 36.67,176.27 C 36.63,176.26 36.62,176.26 36.56,176.23 36.52,176.2 36.52,176.21 36.44,176.15 36.31,176.02 36.13,175.8 36.39,175.41 36.55,175.26 36.55,175.29 36.65,175.25 L 36.68,175.24 36.73,175.23 36.74,175.23 36.76,175.22 C 36.78,175.22 36.79,175.2 36.81,175.2 36.89,175.16 36.99,175.06 37.07,174.94 37.25,174.68 37.39,174.33 37.49,173.97 37.9,172.49 37.98,170.86 38.01,169.26 38.02,167.65 37.94,166.04 37.79,164.43 L 37.55,161.99 C 37.48,161.16 37.46,160.34 37.45,159.52 37.45,156.23 37.69,152.97 37.97,149.72 38.55,143.22 39.33,136.74 40.27,130.29 L 40.27,130.28 40.27,130.27 C 40.98,127.04 41.53,123.77 41.99,120.48 42.45,117.2 42.83,113.9 43.12,110.6 L 43.22,110.61 Z M 43.22,110.61" />
            <path id="joe03Canvas-bezier34" stroke="none" fill="rgb(51, 91, 113)" d="M 92.69,48.1 C 92.81,47.9 93.11,47.67 93.41,47.83 93.68,47.98 93.8,48.23 93.91,48.46 94.12,48.92 94.25,49.41 94.36,49.89 L 94.49,50.62 94.55,50.98 94.57,51.05 C 94.57,51.06 94.57,51.04 94.56,51.02 L 94.55,51 C 94.56,51.02 94.53,50.93 94.45,50.88 94.37,50.82 94.24,50.82 94.19,50.84 94.11,50.86 94.09,50.88 94.04,50.92 94.03,50.94 94.01,50.96 94,50.98 L 94,50.98 94,50.99 94.05,50.82 C 94.21,50.31 94.49,49.83 94.87,49.43 95.25,49.03 95.71,48.72 96.2,48.48 96.42,48.38 96.74,48.26 97.06,48.24 97.38,48.21 97.85,48.32 98.13,48.62 98.63,49.25 98.56,49.81 98.59,50.3 98.59,50.54 98.58,50.78 98.59,51 98.6,51.23 98.62,51.44 98.8,51.58 L 98.77,51.68 C 98.45,51.67 98.26,51.36 98.14,51.13 98.02,50.88 97.94,50.64 97.87,50.4 97.74,49.95 97.59,49.46 97.41,49.36 97.34,49.31 97.28,49.3 97.13,49.3 96.96,49.31 96.8,49.34 96.58,49.42 96.16,49.55 95.77,49.75 95.44,50.02 95.11,50.3 94.85,50.65 94.67,51.06 L 94.6,51.23 94.57,51.28 94.57,51.29 C 94.55,51.31 94.54,51.34 94.52,51.36 94.47,51.4 94.44,51.43 94.36,51.46 94.3,51.48 94.17,51.47 94.09,51.41 94,51.35 93.97,51.27 93.98,51.28 L 93.96,51.24 C 93.95,51.2 93.94,51.17 93.94,51.17 L 93.93,51.05 93.91,50.69 93.85,49.97 C 93.81,49.49 93.76,49.01 93.62,48.57 93.56,48.35 93.46,48.12 93.31,48.01 93.16,47.88 92.92,47.99 92.77,48.16 L 92.69,48.1 Z M 92.69,48.1" />
            <path id="joe03Canvas-bezier35" stroke="none" fill="rgb(51, 91, 113)" d="M 99.72,49.01 C 101.09,49.47 102.53,49.8 103.97,49.83 104.68,49.83 105.41,49.75 106.05,49.46 106.72,49.14 107.44,48.95 108.17,48.81 109.62,48.53 111.09,48.46 112.56,48.51 113.3,48.53 114.03,48.6 114.76,48.72 L 115.05,48.78 C 115.15,48.81 115.22,48.82 115.32,48.86 115.53,48.94 115.7,49.03 115.86,49.13 116.2,49.32 116.49,49.56 116.78,49.8 117.9,50.78 118.83,51.92 119.72,53.09 120.6,54.27 121.41,55.49 122.13,56.77 122.49,57.42 122.83,58.07 123.1,58.78 123.4,59.49 123.52,60.25 123.64,60.96 123.87,62.41 124.03,63.86 124.2,65.31 L 125.15,73.97 C 125.31,75.41 125.47,76.86 125.71,78.26 125.76,78.6 125.83,78.97 125.92,79.22 126,79.41 126.05,79.81 125.97,80.07 125.9,80.35 125.76,80.56 125.62,80.75 125.03,81.44 124.35,81.78 123.69,82.14 121,83.47 118.23,84.25 115.99,86.08 114.84,86.94 113.73,87.88 112.65,88.85 111.57,89.82 110.48,90.79 109.52,91.87 L 109.44,91.81 C 111.25,89.51 113.3,87.43 115.55,85.52 116.65,84.56 117.96,83.74 119.29,83.12 120.61,82.48 121.96,81.91 123.21,81.24 123.82,80.91 124.45,80.53 124.8,80.1 124.88,80 124.93,79.9 124.95,79.82 124.96,79.73 124.97,79.75 124.93,79.6 124.78,79.16 124.73,78.81 124.65,78.44 124.42,76.97 124.28,75.53 124.13,74.08 L 123.38,65.39 C 123.24,63.95 123.1,62.5 122.9,61.08 122.79,60.36 122.7,59.67 122.45,59.03 122.2,58.37 121.88,57.73 121.54,57.09 120.86,55.83 120.09,54.61 119.24,53.44 118.4,52.28 117.49,51.14 116.44,50.19 116.17,49.95 115.9,49.72 115.61,49.54 115.46,49.45 115.31,49.37 115.18,49.31 115.11,49.28 115.01,49.26 114.93,49.23 L 114.68,49.18 C 113.98,49.04 113.26,48.96 112.54,48.92 111.1,48.83 109.65,48.87 108.22,49.11 107.52,49.23 106.81,49.4 106.16,49.69 105.46,50 104.7,50.06 103.97,50.04 102.49,49.97 101.06,49.61 99.68,49.11 L 99.72,49.01 Z M 99.72,49.01" />
            <path id="joe03Canvas-bezier36" stroke="none" fill="rgb(51, 91, 113)" d="M 81.23,63.05 C 82.03,62.74 82.66,62.13 83.22,61.5 83.78,60.85 84.26,60.14 84.7,59.41 85.58,57.95 86.32,56.4 87.01,54.84 88.36,51.69 89.48,48.45 90.45,45.17 L 90.58,44.71 90.74,45.17 91.87,48.52 91.88,48.54 91.88,48.57 C 91.86,50.53 91.31,52.4 90.7,54.21 90.07,56.03 89.32,57.79 88.51,59.53 86.89,63 85.07,66.37 83.08,69.66 L 82.73,70.25 82.58,69.57 C 82.32,68.33 82.03,67.08 81.65,65.88 81.46,65.3 81.25,64.64 80.94,64.24 80.9,64.19 80.87,64.18 80.88,64.18 80.89,64.18 80.9,64.19 80.91,64.18 80.87,64.19 80.97,64.17 80.95,64.18 L 80.92,64.18 C 80.86,64.19 80.87,64.2 80.87,64.2 80.81,64.24 80.69,64.35 80.59,64.45 80.4,64.66 80.22,64.92 80.04,65.17 79.36,66.22 78.81,67.37 78.36,68.54 77.9,69.73 77.59,70.9 77.54,72.18 77.04,77.27 76.58,82.35 76.3,87.45 76.17,90 76.07,92.55 76.07,95.09 76.07,97.64 76.14,100.19 76.49,102.68 77.33,107.74 77.67,112.89 77.76,118.01 77.8,120.58 77.77,123.15 77.62,125.72 77.45,128.28 77.24,130.86 76.52,133.41 76.34,134.05 76.04,134.69 75.81,135.24 75.57,135.83 75.35,136.42 75.14,137.01 74.71,138.2 74.35,139.41 74.02,140.64 73.37,143.09 72.88,145.58 72.49,148.1 71.73,153.13 71.35,158.23 71.18,163.33 71.04,168.43 70.99,173.55 71.24,178.65 L 71.14,178.66 C 70.73,173.56 70.53,168.44 70.62,163.32 70.7,158.2 70.99,153.07 71.68,147.98 72.02,145.44 72.47,142.9 73.09,140.4 73.4,139.15 73.76,137.9 74.17,136.68 74.38,136.07 74.62,135.46 74.86,134.86 75.12,134.23 75.37,133.71 75.54,133.12 76.21,130.74 76.43,128.18 76.6,125.66 76.75,123.12 76.78,120.57 76.75,118.03 76.66,112.94 76.4,107.84 75.6,102.81 75.26,100.23 75.23,97.66 75.24,95.09 75.27,92.52 75.38,89.96 75.54,87.41 75.85,82.29 76.35,77.2 76.88,72.11 76.94,70.83 77.3,69.5 77.77,68.31 78.25,67.1 78.82,65.94 79.54,64.84 79.73,64.57 79.92,64.3 80.16,64.04 80.29,63.92 80.4,63.8 80.62,63.67 80.69,63.64 80.77,63.61 80.79,63.61 L 80.82,63.6 C 80.82,63.6 80.93,63.59 80.92,63.6 80.97,63.6 81.02,63.61 81.07,63.62 81.23,63.68 81.32,63.77 81.38,63.85 81.85,64.48 81.99,65.08 82.2,65.71 82.58,66.95 82.87,68.2 83.12,69.46 L 82.62,69.37 C 84.61,66.12 86.46,62.78 88.11,59.34 88.93,57.62 89.7,55.87 90.33,54.08 90.95,52.3 91.52,50.45 91.55,48.57 L 91.55,48.62 90.46,45.26 90.75,45.26 C 89.74,48.54 88.58,51.77 87.2,54.92 86.5,56.48 85.74,58.03 84.84,59.49 84.38,60.22 83.89,60.93 83.32,61.58 82.75,62.22 82.09,62.83 81.27,63.14 L 81.23,63.05 Z M 81.23,63.05" />
            <path id="joe03Canvas-bezier37" stroke="none" fill="rgb(51, 91, 113)" d="M 75.13,77.55 C 74.05,75.95 73.11,74.18 72.85,72.21 72.78,71.71 72.85,71.19 72.83,70.75 72.81,70.28 72.74,69.81 72.65,69.34 72.45,68.41 72.14,67.5 71.76,66.62 71.38,65.75 70.94,64.89 70.36,64.18 70.1,63.84 69.67,63.48 69.48,63.56 69.2,63.64 68.87,64.03 68.63,64.4 68.14,65.18 67.79,66.07 67.54,66.97 67.31,67.84 67.12,68.87 67.37,69.57 L 67.82,70.87 66.76,70.04 C 65.07,68.73 63.61,67.22 62.36,65.5 61.74,64.64 61.2,63.72 60.75,62.76 60.29,61.78 60,60.76 59.69,59.79 59.09,57.81 58.47,55.84 58.03,53.79 57.93,53.27 57.83,52.77 57.83,52.18 57.91,51.62 57.94,51.17 57.96,50.64 58.02,49.61 58.04,48.58 58.08,47.55 L 58.19,47.54 C 58.3,48.57 58.38,49.6 58.44,50.64 58.46,51.14 58.47,51.72 58.44,52.18 58.47,52.64 58.61,53.14 58.74,53.62 59.3,55.58 60,57.52 60.67,59.47 61,60.46 61.3,61.42 61.72,62.32 62.12,63.23 62.62,64.1 63.19,64.93 64.31,66.59 65.69,68.14 67.24,69.4 L 66.62,69.87 C 66.42,69.28 66.47,68.76 66.52,68.25 66.58,67.74 66.7,67.25 66.84,66.77 67.13,65.81 67.52,64.89 68.09,64.04 68.4,63.64 68.69,63.17 69.35,62.96 69.77,62.88 70.05,63.08 70.27,63.24 70.49,63.42 70.66,63.61 70.82,63.82 71.44,64.63 71.86,65.52 72.23,66.44 72.59,67.35 72.87,68.29 73.04,69.26 73.13,69.75 73.18,70.24 73.19,70.74 73.19,71.26 73.1,71.71 73.15,72.18 73.33,74.07 74.2,75.87 75.22,77.49 L 75.13,77.55 Z M 75.13,77.55" />
            <path id="joe03Canvas-bezier38" stroke="none" fill="rgb(51, 91, 113)" d="M 69.55,62.58 C 67.85,61.72 66.28,60.66 64.82,59.43 64.1,58.8 63.33,58.19 62.81,57.34 62.3,56.52 61.87,55.5 62.06,54.5 L 62.17,54.49 C 62.54,55.37 63.07,56.05 63.64,56.74 64.22,57.41 64.75,58.16 65.38,58.83 66.02,59.5 66.7,60.13 67.41,60.74 68.11,61.35 68.83,61.96 69.59,62.49 L 69.55,62.58 Z M 69.55,62.58" />
            <path id="joe03Canvas-bezier39" stroke="none" fill="rgb(51, 91, 113)" d="M 79.25,88.58 C 79.2,89.03 78.97,89.67 78.25,89.75 77.68,89.8 76.97,89.33 76.96,88.54 L 76.95,88.36 C 76.96,88.26 76.98,88.16 77.01,88.06 77.07,87.88 77.16,87.72 77.27,87.57 77.54,87.29 77.85,87.11 78.33,87.16 L 78.51,87.21 C 78.6,87.24 78.71,87.29 78.79,87.34 78.94,87.46 79.04,87.6 79.12,87.74 79.27,88.04 79.26,88.33 79.25,88.58 L 79.25,88.58 79.25,88.58 Z M 79.14,88.58 C 79.13,88.35 78.93,88.17 78.73,88.13 78.64,88.11 78.54,88.11 78.47,88.13 78.44,88.14 78.43,88.16 78.41,88.16 L 78.23,88.18 C 78.16,88.27 77.82,88.24 77.77,88.62 77.73,88.81 77.89,89.21 78.31,89.24 78.43,89.27 78.67,89.26 78.85,89.15 79.04,89.04 79.17,88.82 79.14,88.58 L 79.14,88.58 Z M 79.14,88.58" />
            <path id="joe03Canvas-bezier40" stroke="none" fill="rgb(51, 91, 113)" d="M 81.16,67 C 81.09,67.19 81.01,67.4 80.9,67.6 80.79,67.8 80.55,68 80.21,67.97 80.08,67.93 80.1,67.95 80.01,67.91 79.93,67.87 79.83,67.81 79.79,67.76 79.68,67.65 79.6,67.52 79.55,67.39 79.44,67.13 79.42,66.86 79.46,66.59 79.48,66.37 79.59,66.03 79.78,65.8 79.97,65.56 80.37,65.31 80.82,65.45 81.01,65.53 80.92,65.5 81.05,65.58 81.14,65.65 81.25,65.76 81.27,65.83 81.36,66 81.37,66.16 81.36,66.3 81.33,66.58 81.22,66.8 81.16,67 Z M 81.06,66.97 C 81.09,66.77 80.98,66.57 80.83,66.46 80.77,66.4 80.68,66.38 80.63,66.39 80.6,66.37 80.61,66.43 80.63,66.44 80.68,66.46 80.48,66.41 80.58,66.44 80.69,66.49 80.38,66.46 80.26,66.78 80.14,67.04 80.17,67.39 80.33,67.47 80.4,67.54 80.57,67.54 80.74,67.45 80.91,67.35 81.03,67.18 81.06,66.97 Z M 81.06,66.97" />
            <path id="joe03Canvas-bezier41" stroke="none" fill="rgb(51, 91, 113)" d="M 81.08,110.61 C 81.06,110.84 80.99,111.1 80.84,111.33 80.69,111.56 80.42,111.73 80.11,111.77 79.49,111.85 78.82,111.32 78.79,110.6 L 78.78,110.38 C 78.79,110.29 78.82,110.18 78.85,110.08 78.9,109.91 78.99,109.75 79.11,109.6 79.35,109.32 79.74,109.14 80.11,109.18 80.28,109.2 80.26,109.21 80.34,109.23 80.43,109.26 80.54,109.32 80.63,109.37 80.77,109.48 80.88,109.62 80.96,109.76 81.1,110.06 81.1,110.36 81.08,110.6 L 81.08,110.61 Z M 80.98,110.6 C 80.96,110.37 80.76,110.19 80.57,110.15 80.47,110.13 80.37,110.14 80.3,110.15 80.27,110.17 80.27,110.18 80.24,110.18 80.21,110.19 80.07,110.19 80.11,110.2 79.94,110.27 79.67,110.31 79.61,110.6 79.54,110.87 79.75,111.21 80.11,111.26 80.29,111.3 80.49,111.28 80.68,111.17 80.88,111.06 81,110.85 80.98,110.6 L 80.98,110.6 Z M 80.98,110.6" />
            <path id="joe03Canvas-bezier42" stroke="none" fill="rgb(51, 91, 113)" d="M 80.16,128.43 C 80.14,128.66 80.07,128.92 79.92,129.15 79.78,129.38 79.51,129.56 79.2,129.6 78.58,129.67 77.91,129.14 77.87,128.43 L 77.87,128.2 C 77.88,128.11 77.9,128 77.93,127.9 77.99,127.73 78.07,127.57 78.19,127.42 78.43,127.14 78.82,126.96 79.2,127 79.36,127.02 79.34,127.04 79.42,127.05 79.52,127.09 79.62,127.14 79.71,127.19 79.86,127.3 79.96,127.44 80.04,127.59 80.19,127.88 80.18,128.18 80.16,128.43 L 80.16,128.43 Z M 80.06,128.42 C 80.05,128.19 79.84,128.01 79.65,127.97 79.55,127.95 79.46,127.96 79.39,127.97 79.36,127.99 79.35,128 79.33,128 79.29,128.01 79.15,128.01 79.2,128.02 79.02,128.09 78.76,128.13 78.69,128.42 78.63,128.69 78.84,129.03 79.2,129.08 79.37,129.12 79.57,129.1 79.77,128.99 79.96,128.88 80.08,128.67 80.06,128.42 L 80.06,128.42 Z M 80.06,128.42" />
            <path id="joe03Canvas-bezier43" stroke="none" fill="rgb(51, 91, 113)" d="M 76.76,145.73 C 76.73,145.96 76.66,146.22 76.51,146.45 76.37,146.68 76.1,146.85 75.79,146.89 75.17,146.95 74.5,146.48 74.46,145.68 L 74.46,145.5 C 74.47,145.41 74.49,145.3 74.52,145.2 74.58,145.03 74.67,144.87 74.78,144.72 75.05,144.44 75.36,144.26 75.84,144.3 L 76.02,144.35 C 76.11,144.38 76.21,144.44 76.3,144.49 76.45,144.6 76.55,144.74 76.63,144.88 76.78,145.18 76.77,145.48 76.76,145.72 L 76.76,145.73 Z M 76.65,145.72 C 76.64,145.49 76.44,145.31 76.24,145.27 76.14,145.25 76.05,145.26 75.98,145.27 75.95,145.29 75.94,145.3 75.92,145.3 L 75.74,145.32 C 75.66,145.41 75.33,145.39 75.28,145.77 75.22,145.95 75.43,146.35 75.79,146.38 75.96,146.42 76.17,146.4 76.36,146.29 76.55,146.18 76.67,145.97 76.65,145.72 L 76.65,145.72 Z M 76.65,145.72" />
            <path id="joe03Canvas-bezier44" stroke="none" fill="rgb(51, 91, 113)" d="M 108.31,77.13 C 108.32,88.82 108.26,100.6 106.88,112.22 106.28,123.91 106.12,135.63 106.31,147.33 106.38,150.26 106.47,153.18 106.64,156.09 106.83,159 106.99,161.95 107.61,164.73 108.35,167.58 108.8,170.53 108.95,173.49 109.02,174.97 109.01,176.45 108.93,177.93 108.89,178.67 108.82,179.42 108.76,180.14 108.75,180.21 108.75,180.34 108.75,180.32 108.74,180.3 108.75,180.31 108.73,180.26 108.8,179.09 107.21,180.75 108.15,180.92 L 108.11,180.91 107.98,180.9 107.44,180.84 106.34,180.74 C 100.5,180.18 94.65,179.74 88.79,179.33 85.86,179.13 82.93,178.95 80,178.82 77.07,178.69 74.13,178.56 71.2,178.71 L 71.19,178.61 C 77.07,178.14 82.96,178.4 88.83,178.62 94.71,178.88 100.57,179.27 106.43,179.72 L 107.53,179.82 108.09,179.88 108.23,179.89 108.33,179.91 C 109.3,180.08 107.7,181.75 107.75,180.55 107.73,180.48 107.73,180.47 107.73,180.42 107.72,180.21 107.73,180.17 107.74,180.06 107.8,179.31 107.87,178.6 107.91,177.88 107.99,176.43 107.99,174.98 107.93,173.54 107.79,170.65 107.35,167.78 106.62,164.96 106,162 105.88,159.08 105.72,156.14 105.58,153.21 105.52,150.28 105.49,147.34 105.41,135.62 105.67,123.9 106.37,112.19 107.89,100.55 108.08,88.84 108.2,77.13 L 108.31,77.13 108.31,77.13 Z M 108.31,77.13" />
            <path id="joe03Canvas-bezier45" stroke="none" fill="rgb(51, 91, 113)" d="M 39.19,105.8 C 38.99,108.36 38.69,110.9 38.27,113.44 38.06,114.71 37.9,116 37.48,117.23 37.06,118.44 36.59,119.72 35.64,120.68 L 35.55,120.63 C 35.99,119.42 36.2,118.19 36.49,116.96 36.75,115.72 37.16,114.52 37.46,113.28 38.06,110.8 38.59,108.3 39.09,105.79 L 39.19,105.8 Z M 39.19,105.8" />
            <path id="joe03Canvas-bezier46" stroke="none" fill="rgb(51, 91, 113)" d="M 37.42,120.66 C 37.3,125.81 36.56,130.94 35.3,135.95 34,140.94 32.11,145.83 29.31,150.23 26.46,154.5 24.2,159.1 22.19,163.8 20.16,168.5 18.48,173.36 17.08,178.3 L 16.98,178.28 C 17.81,173.18 19.36,168.23 21.24,163.41 23.15,158.6 25.66,154.01 28.62,149.78 31.44,145.53 33.41,140.74 34.8,135.81 36.19,130.88 37.07,125.78 37.32,120.65 L 37.42,120.66 Z M 37.42,120.66" />
            <path id="joe03Canvas-bezier47" stroke="none" fill="rgb(51, 91, 113)" d="M 2.83,179 C 3.65,178.28 4.44,177.53 5.16,176.72 5.52,176.32 5.87,175.91 6.12,175.47 6.19,175.37 6.23,175.26 6.27,175.16 6.29,175.11 6.31,175.05 6.31,175.01 L 6.34,174.9 6.36,174.79 C 6.57,174.34 6.8,174.19 7.03,173.98 7.98,173.27 8.95,172.74 9.95,172.32 10.45,172.11 10.94,171.91 11.42,171.69 11.88,171.46 12.4,171.27 12.63,170.81 L 12.73,170.82 C 12.76,171.47 12.23,171.94 11.81,172.3 11.37,172.67 10.89,172.96 10.41,173.24 9.45,173.8 8.37,174.11 7.52,174.64 7.32,174.76 7.12,174.97 7.08,175.01 L 7.04,175.11 7.03,175.13 C 7.05,175.06 7.03,175.13 7.03,175.12 L 7.02,175.19 C 6.99,175.28 6.96,175.35 6.92,175.43 6.85,175.58 6.77,175.71 6.68,175.83 6.34,176.32 5.93,176.7 5.52,177.08 4.69,177.82 3.8,178.47 2.89,179.08 L 2.83,179 Z M 2.83,179" />
            <path id="joe03Canvas-bezier48" stroke="none" fill="rgb(51, 91, 113)" d="M 17.08,179.87 C 16.93,181.94 16.72,184 16.38,186.06 16.19,187.08 15.99,188.11 15.67,189.13 15.49,189.63 15.32,190.14 14.93,190.65 14.82,190.77 14.7,190.9 14.51,191 14.27,191.11 14.17,191.11 14.03,191.15 13.89,191.18 13.75,191.21 13.58,191.22 13.49,191.22 13.4,191.23 13.26,191.2 13.19,191.18 13.08,191.16 12.95,191.04 12.81,190.91 12.77,190.67 12.8,190.56 L 13.26,191.09 C 12.98,191.05 13.03,191.02 12.96,190.99 12.93,190.96 12.91,190.93 12.9,190.92 12.86,190.88 12.85,190.86 12.84,190.84 12.82,190.8 12.81,190.78 12.8,190.76 L 12.77,190.67 12.75,190.55 12.73,190.37 12.7,190.05 12.69,189.43 C 12.69,189.03 12.71,188.62 12.73,188.23 12.79,187.43 12.86,186.63 12.98,185.84 13.2,184.27 13.49,182.7 13.91,181.15 L 14.01,181.16 C 14.07,182.77 14.01,184.35 13.94,185.93 13.9,186.72 13.84,187.51 13.79,188.3 L 13.7,189.47 13.67,190.04 13.67,190.31 13.68,190.43 13.68,190.46 C 13.68,190.46 13.68,190.45 13.67,190.44 L 13.65,190.39 C 13.64,190.38 13.63,190.36 13.6,190.33 13.59,190.32 13.57,190.29 13.54,190.27 13.47,190.24 13.52,190.2 13.25,190.17 L 13.88,190.24 13.71,190.7 C 13.73,190.65 13.7,190.48 13.61,190.4 13.53,190.32 13.48,190.32 13.48,190.32 13.46,190.32 13.5,190.33 13.54,190.33 13.63,190.33 13.75,190.32 13.87,190.3 13.98,190.29 14.14,190.26 14.14,190.25 14.18,190.24 14.25,190.19 14.31,190.12 14.58,189.82 14.8,189.34 14.98,188.89 15.34,187.95 15.6,186.95 15.83,185.95 16.3,183.95 16.67,181.91 16.97,179.87 L 17.08,179.87 Z M 17.08,179.87" />
            <path id="joe03Canvas-bezier49" stroke="none" fill="rgb(51, 91, 113)" d="M 5.64,184.67 C 5,185.87 4.36,187.06 3.59,188.2 3.39,188.48 3.19,188.76 2.95,189.03 2.82,189.16 2.7,189.29 2.51,189.41 2.42,189.46 2.3,189.53 2.11,189.53 2.02,189.52 1.95,189.52 1.84,189.51 1.43,189.46 1.01,189.25 0.77,188.86 0.54,188.46 0.46,188.06 0.65,187.56 L 0.65,187.56 0.66,187.53 C 1.13,186.7 1.58,185.84 2,184.98 2.21,184.55 2.41,184.12 2.58,183.69 2.67,183.48 2.76,183.26 2.82,183.07 2.83,183.02 2.84,182.98 2.85,182.94 L 2.87,182.8 C 2.9,182.64 2.95,182.48 2.99,182.36 3.34,181.38 3.82,180.55 4.33,179.7 4.88,178.89 5.36,178.04 6.15,177.37 L 6.21,177.45 C 5.97,177.83 5.79,178.3 5.6,178.74 5.4,179.17 5.22,179.62 5.04,180.06 4.67,180.94 4.28,181.84 3.99,182.69 3.96,182.8 3.94,182.88 3.93,182.95 L 3.91,183.03 C 3.91,183.08 3.9,183.13 3.89,183.17 3.87,183.25 3.85,183.32 3.82,183.39 3.73,183.65 3.63,183.88 3.52,184.11 3.3,184.56 3.05,184.99 2.81,185.41 2.31,186.25 1.8,187.08 1.27,187.9 L 1.29,187.88 C 1.22,188.01 1.21,188.35 1.33,188.53 1.43,188.74 1.66,188.87 1.91,188.93 1.98,188.94 2.08,188.95 2.16,188.96 2.14,188.96 2.18,188.96 2.23,188.93 2.34,188.88 2.46,188.77 2.57,188.67 2.81,188.45 3.02,188.2 3.23,187.94 4.07,186.89 4.82,185.76 5.55,184.62 L 5.64,184.67 Z M 5.64,184.67" />
            <path id="joe03Canvas-bezier50" stroke="none" fill="rgb(51, 91, 113)" d="M 12.62,191.29 C 12.7,191.6 12.48,191.92 12.22,192.06 11.95,192.21 11.66,192.27 11.37,192.31 11.09,192.35 10.76,192.38 10.44,192.19 10.12,192 9.97,191.65 9.91,191.36 9.71,190.15 9.92,189.05 9.97,187.94 10.06,186.84 10.02,185.71 10.26,184.6 10.48,183.5 10.8,182.36 11.46,181.4 L 11.55,181.44 C 11.44,182.57 11.36,183.64 11.27,184.74 11.19,185.84 10.97,186.92 10.79,188.04 10.63,189.13 10.34,190.25 10.41,191.27 10.43,191.51 10.51,191.73 10.67,191.85 10.82,191.98 11.08,192.01 11.35,192.01 11.62,192 11.89,191.98 12.12,191.88 12.36,191.79 12.55,191.57 12.51,191.31 L 12.62,191.29 Z M 12.62,191.29" />
            <path id="joe03Canvas-bezier51" stroke="none" fill="rgb(51, 91, 113)" d="M 9.08,188.58 C 8.83,189.36 8.55,190.13 8.21,190.88 7.85,191.62 7.51,192.38 6.85,193.01 6.68,193.16 6.47,193.31 6.19,193.36 6.06,193.39 5.88,193.37 5.77,193.34 5.67,193.31 5.57,193.3 5.45,193.24 4.99,193.09 4.57,192.7 4.42,192.21 4.14,191.25 4.42,190.39 4.62,189.59 5.08,188.01 5.5,186.43 6.1,184.91 6.71,183.39 7.34,181.88 8.2,180.45 L 8.3,180.49 C 7.97,182.11 7.54,183.68 7.07,185.24 6.6,186.81 5.96,188.31 5.41,189.84 5.15,190.58 4.9,191.37 5.06,192.01 5.13,192.32 5.35,192.56 5.66,192.69 5.72,192.73 5.82,192.76 5.92,192.79 6.01,192.82 6.04,192.82 6.11,192.81 6.23,192.81 6.39,192.73 6.53,192.62 7.1,192.16 7.54,191.43 7.93,190.74 8.33,190.03 8.68,189.29 8.99,188.54 L 9.08,188.58 Z M 9.08,188.58" />
            <path id="joe03Canvas-bezier52" stroke="none" fill="rgb(51, 91, 113)" d="M 136.97,162.44 C 137.14,162.88 137.32,163.31 137.55,163.71 137.77,164.1 138.1,164.43 138.42,164.77 139.05,165.45 139.73,166.08 140.46,166.65 141.17,167.24 141.95,167.74 142.71,168.35 143.08,168.66 143.44,169.03 143.72,169.46 143.99,169.85 144.24,170.25 144.49,170.65 145.48,172.24 146.51,173.8 147.45,175.38 147.94,176.16 148.4,176.99 148.98,177.59 149.17,177.78 149.36,178.02 149.44,178.32 149.54,178.62 149.47,178.97 149.32,179.2 149,179.66 148.52,179.94 148,179.92 L 148,179.82 C 148.41,179.7 148.78,179.35 148.9,178.99 149.04,178.64 148.85,178.36 148.52,178.14 147.68,177.51 147.16,176.7 146.59,175.94 145.51,174.39 144.67,172.7 143.78,171.06 143.55,170.66 143.33,170.25 143.09,169.85 142.87,169.49 142.59,169.16 142.26,168.85 141.6,168.25 140.82,167.69 140.12,167.04 139.42,166.4 138.78,165.71 138.18,164.98 137.89,164.61 137.57,164.25 137.37,163.8 137.17,163.37 137.01,162.92 136.87,162.48 L 136.97,162.44 Z M 136.97,162.44" />
            <path id="joe03Canvas-bezier53" stroke="none" fill="rgb(51, 91, 113)" d="M 124.76,79.7 C 125.78,83.03 126.4,86.47 126.6,89.95 126.7,91.69 126.67,93.44 126.47,95.17 126.25,96.89 126.18,98.61 126.17,100.34 126.13,103.8 126.31,107.26 126.59,110.71 126.91,114.15 127.23,117.64 128.06,120.93 128.18,121.34 128.29,121.71 128.51,122.02 128.74,122.39 128.97,122.77 129.19,123.15 129.63,123.92 130.02,124.71 130.37,125.53 131.08,127.15 131.6,128.83 132.03,130.54 132.44,132.25 132.76,133.97 133,135.7 133.22,137.43 133.4,139.16 133.59,140.88 133.93,144.34 134.29,147.79 134.68,151.23 134.88,152.95 135.09,154.67 135.35,156.38 135.59,158.09 135.86,159.81 136.34,161.47 L 136.24,161.5 C 135.08,158.21 134.54,154.75 133.97,151.32 133.43,147.89 133.01,144.44 132.57,141 132.15,137.55 131.82,134.11 131.04,130.77 130.65,129.1 130.17,127.46 129.52,125.88 129.2,125.09 128.84,124.32 128.43,123.57 128.22,123.2 128.01,122.83 127.79,122.47 127.51,122.05 127.38,121.57 127.27,121.15 126.83,119.42 126.61,117.69 126.4,115.96 126.2,114.23 126.04,112.5 125.92,110.76 125.69,107.29 125.57,103.82 125.65,100.34 125.7,98.6 125.81,96.85 126.06,95.13 126.29,93.42 126.35,91.69 126.29,89.96 126.16,86.51 125.61,83.06 124.66,79.73 L 124.76,79.7 Z M 124.76,79.7" />
            <path id="joe03Canvas-bezier54" stroke="none" fill="rgb(51, 91, 113)" d="M 110.4,105.79 C 110.9,108.3 111.43,110.8 112.02,113.28 112.32,114.52 112.73,115.72 112.99,116.96 113.28,118.19 113.5,119.42 113.93,120.63 L 113.85,120.68 C 112.9,119.72 112.43,118.44 112,117.23 111.59,116 111.43,114.71 111.22,113.44 110.8,110.9 110.5,108.36 110.3,105.8 L 110.4,105.79 Z M 110.4,105.79" />
            <path id="joe03Canvas-bezier55" stroke="none" fill="rgb(51, 91, 113)" d="M 112.17,120.66 C 112.42,125.79 113.3,130.88 114.69,135.81 116.08,140.74 118.05,145.53 120.87,149.78 123.83,154.01 126.34,158.6 128.25,163.41 130.13,168.23 131.68,173.18 132.51,178.28 L 132.41,178.3 C 131.01,173.35 129.33,168.5 127.3,163.8 125.28,159.1 123.04,154.5 120.18,150.23 117.38,145.83 115.49,140.94 114.19,135.95 112.93,130.94 112.18,125.81 112.07,120.66 L 112.17,120.66 Z M 112.17,120.66" />
            <path id="joe03Canvas-bezier56" stroke="none" fill="rgb(51, 91, 113)" d="M 146.6,179.08 C 145.69,178.47 144.8,177.81 143.96,177.08 143.55,176.7 143.15,176.31 142.8,175.83 142.72,175.71 142.64,175.57 142.57,175.43 142.53,175.35 142.5,175.28 142.47,175.18 L 142.45,175.12 142.45,175.1 C 142.45,175.12 142.44,175.05 142.46,175.13 L 142.46,175.13 142.45,175.1 C 142.44,175.08 142.42,175.03 142.41,175.01 142.37,174.97 142.17,174.76 141.97,174.64 141.11,174.11 140.03,173.8 139.08,173.24 138.6,172.96 138.12,172.67 137.67,172.3 137.26,171.94 136.73,171.47 136.75,170.82 L 136.85,170.81 C 137.09,171.27 137.61,171.46 138.07,171.69 138.54,171.91 139.04,172.11 139.54,172.32 140.54,172.74 141.5,173.27 142.45,173.98 142.69,174.19 142.92,174.34 143.12,174.79 L 143.15,174.9 143.18,175.01 C 143.18,175.05 143.2,175.11 143.22,175.16 143.26,175.26 143.3,175.37 143.37,175.47 143.62,175.91 143.97,176.32 144.33,176.72 145.04,177.53 145.84,178.28 146.66,179 L 146.6,179.08 Z M 146.6,179.08" />
            <path id="joe03Canvas-bezier57" stroke="none" fill="rgb(51, 91, 113)" d="M 132.51,179.86 C 132.81,181.91 133.19,183.94 133.65,185.95 133.89,186.95 134.15,187.95 134.51,188.88 134.69,189.34 134.9,189.82 135.17,190.12 135.24,190.19 135.31,190.24 135.35,190.25 135.34,190.25 135.51,190.28 135.62,190.3 135.73,190.31 135.85,190.33 135.94,190.33 135.98,190.33 136.03,190.32 136.01,190.32 136.01,190.32 135.95,190.32 135.88,190.4 135.78,190.48 135.76,190.65 135.77,190.69 L 135.61,190.24 136.24,190.17 C 135.96,190.2 136.01,190.24 135.94,190.27 135.92,190.29 135.89,190.31 135.88,190.33 135.86,190.36 135.85,190.37 135.84,190.39 L 135.82,190.44 C 135.81,190.45 135.81,190.46 135.81,190.46 L 135.81,190.43 135.82,190.31 135.81,190.04 135.79,189.47 135.7,188.3 C 135.65,187.51 135.58,186.73 135.55,185.93 135.48,184.35 135.42,182.77 135.47,181.16 L 135.58,181.15 C 136,182.7 136.28,184.27 136.51,185.84 136.63,186.63 136.7,187.43 136.76,188.23 136.77,188.63 136.79,189.03 136.79,189.43 L 136.78,190.05 136.76,190.37 136.74,190.55 136.71,190.67 136.69,190.76 C 136.68,190.78 136.67,190.8 136.65,190.84 136.63,190.86 136.62,190.88 136.59,190.92 136.58,190.93 136.55,190.96 136.52,190.99 136.45,191.02 136.5,191.06 136.22,191.09 L 136.69,190.56 C 136.71,190.67 136.67,190.91 136.53,191.04 136.41,191.16 136.29,191.19 136.23,191.2 136.08,191.23 135.99,191.22 135.91,191.22 135.74,191.21 135.6,191.18 135.46,191.15 135.31,191.11 135.22,191.12 134.98,191.01 134.78,190.9 134.66,190.77 134.56,190.65 134.16,190.15 134,189.64 133.82,189.13 133.49,188.11 133.29,187.09 133.11,186.06 132.76,184 132.56,181.94 132.41,179.87 L 132.51,179.86 Z M 132.51,179.86" />
            <path id="joe03Canvas-bezier58" stroke="none" fill="rgb(51, 91, 113)" d="M 143.94,184.62 C 144.67,185.76 145.41,186.89 146.25,187.94 146.46,188.19 146.68,188.45 146.91,188.66 147.02,188.77 147.15,188.88 147.25,188.93 147.3,188.96 147.35,188.96 147.33,188.96 147.41,188.95 147.51,188.94 147.57,188.92 147.83,188.87 148.06,188.73 148.16,188.53 148.28,188.34 148.27,188 148.2,187.87 L 148.21,187.9 C 147.69,187.08 147.18,186.25 146.68,185.41 146.44,184.99 146.19,184.56 145.97,184.11 145.86,183.88 145.76,183.65 145.66,183.39 145.64,183.32 145.62,183.25 145.6,183.17 145.59,183.13 145.58,183.07 145.57,183.03 L 145.56,182.95 C 145.55,182.87 145.53,182.8 145.49,182.69 145.21,181.84 144.82,180.94 144.45,180.06 144.27,179.62 144.09,179.17 143.89,178.73 143.7,178.3 143.52,177.83 143.27,177.45 L 143.33,177.37 C 144.13,178.03 144.61,178.88 145.16,179.7 145.66,180.55 146.15,181.38 146.5,182.36 146.54,182.47 146.59,182.64 146.62,182.79 L 146.64,182.94 C 146.65,182.98 146.66,183.02 146.67,183.07 146.73,183.26 146.81,183.48 146.9,183.69 147.08,184.12 147.28,184.55 147.49,184.98 147.9,185.84 148.36,186.69 148.83,187.53 L 148.84,187.56 148.84,187.56 C 149.02,188.06 148.95,188.46 148.72,188.86 148.48,189.25 148.06,189.46 147.64,189.51 147.54,189.52 147.47,189.52 147.38,189.52 147.19,189.53 147.07,189.46 146.98,189.41 146.79,189.29 146.66,189.16 146.54,189.03 146.29,188.76 146.09,188.48 145.9,188.2 145.13,187.06 144.49,185.87 143.85,184.67 L 143.94,184.62 Z M 143.94,184.62" />
            <path id="joe03Canvas-bezier59" stroke="none" fill="rgb(51, 91, 113)" d="M 136.97,191.31 C 136.94,191.57 137.13,191.79 137.36,191.88 137.6,191.97 137.87,192 138.14,192 138.4,192.01 138.67,191.98 138.82,191.85 138.98,191.73 139.05,191.51 139.07,191.27 139.15,190.25 138.86,189.13 138.7,188.04 138.52,186.92 138.29,185.84 138.21,184.74 138.13,183.64 138.05,182.57 137.93,181.44 L 138.03,181.4 C 138.69,182.36 139.01,183.5 139.23,184.6 139.46,185.71 139.42,186.84 139.51,187.94 139.57,189.05 139.77,190.15 139.58,191.36 139.51,191.65 139.37,192 139.05,192.19 138.72,192.38 138.4,192.35 138.11,192.31 137.82,192.27 137.53,192.21 137.27,192.06 137,191.92 136.78,191.6 136.87,191.29 L 136.97,191.31 Z M 136.97,191.31" />
            <path id="joe03Canvas-bezier60" stroke="none" fill="rgb(51, 91, 113)" d="M 140.5,188.54 C 140.81,189.29 141.16,190.03 141.55,190.74 141.95,191.43 142.39,192.16 142.96,192.62 143.1,192.73 143.26,192.8 143.38,192.81 143.45,192.82 143.48,192.82 143.57,192.79 143.66,192.76 143.77,192.73 143.83,192.69 144.14,192.56 144.36,192.32 144.43,192.01 144.59,191.37 144.34,190.58 144.08,189.84 143.53,188.31 142.89,186.8 142.42,185.24 141.95,183.68 141.52,182.11 141.19,180.49 L 141.29,180.45 C 142.15,181.88 142.78,183.39 143.39,184.91 143.99,186.43 144.41,188.01 144.86,189.59 145.07,190.39 145.35,191.25 145.07,192.21 144.92,192.7 144.5,193.09 144.04,193.24 143.92,193.3 143.82,193.31 143.72,193.34 143.61,193.37 143.43,193.39 143.3,193.36 143.02,193.31 142.81,193.16 142.64,193.01 141.98,192.38 141.63,191.62 141.28,190.88 140.94,190.13 140.65,189.36 140.41,188.57 L 140.5,188.54 Z M 140.5,188.54" />
            <path id="joe03Canvas-bezier61" stroke="none" fill="rgb(51, 91, 113)" d="M 38.59,174.54 C 38.32,178.47 38.09,182.41 37.92,186.35 37.86,188.32 37.87,190.29 37.76,192.25 L 37.42,198.15 37.31,198.16 C 36.86,196.21 36.76,194.21 36.73,192.23 36.71,190.24 36.92,188.27 37.1,186.3 37.45,182.36 37.92,178.43 38.49,174.52 L 38.59,174.54 Z M 38.59,174.54" />
            <path id="joe03Canvas-bezier62" stroke="none" fill="rgb(51, 91, 113)" d="M 37.42,199.86 C 36.97,212.17 36.57,224.49 36.26,236.8 L 35.96,255.26 C 35.9,258.33 35.85,261.42 36.02,264.46 36.05,264.83 36.08,265.21 36.15,265.56 36.23,265.87 36.38,266.28 36.46,266.67 36.63,267.45 36.69,268.26 36.6,269.05 36.51,269.84 36.28,270.6 35.99,271.32 35.85,271.68 35.69,272.04 35.56,272.39 35.44,272.74 35.33,273.15 35.58,273.42 L 35.51,273.49 C 35.18,273.18 35.28,272.69 35.38,272.34 35.48,271.96 35.61,271.59 35.72,271.23 35.94,270.5 36.11,269.76 36.13,269.01 36.17,268.27 36.08,267.52 35.88,266.81 35.79,266.45 35.65,266.14 35.51,265.71 35.41,265.3 35.36,264.92 35.31,264.53 34.98,261.42 34.99,258.34 34.93,255.26 34.91,249.09 35.19,242.93 35.44,236.77 35.93,224.46 36.57,212.15 37.32,199.86 L 37.42,199.86 Z M 37.42,199.86" />
            <path id="joe03Canvas-bezier63" stroke="none" fill="rgb(51, 91, 113)" d="M 35.84,274.46 C 35.58,283.27 35.36,292.07 35.28,300.88 35.25,305.28 35.18,309.69 35.43,314.06 35.93,318.44 36.01,322.87 36.14,327.27 36.32,336.09 36.5,344.88 35.83,353.74 35.76,354.3 35.7,354.84 35.53,355.45 35.5,355.6 35.41,355.79 35.37,355.89 35.37,355.89 35.37,355.9 35.36,355.87 35.32,355.86 35.52,356 35.74,356.04 36.67,356.25 37.81,356.16 38.87,356.06 41.03,355.82 43.18,355.34 45.25,354.7 46.29,354.36 47.32,353.98 48.22,353.44 48.64,353.17 49.12,352.77 49.63,352.53 50.14,352.27 50.67,352.07 51.21,351.91 53.39,351.3 55.64,351.22 57.84,351.39 L 57.83,351.5 C 55.64,351.44 53.41,351.65 51.36,352.35 50.85,352.53 50.35,352.74 49.88,353 49.4,353.25 49.05,353.58 48.54,353.93 47.58,354.56 46.54,354.99 45.48,355.37 43.38,356.13 41.2,356.63 38.97,356.94 37.85,357.06 36.74,357.21 35.51,356.97 35.21,356.88 34.82,356.83 34.5,356.33 34.35,356.05 34.36,355.77 34.46,355.52 34.52,355.36 34.55,355.29 34.58,355.18 34.69,354.72 34.75,354.16 34.81,353.63 35.2,349.3 35.23,344.87 35.29,340.48 35.36,336.09 35.36,331.68 35.32,327.28 35.24,322.88 35.21,318.49 34.77,314.11 34.57,309.68 34.69,305.28 34.76,300.87 34.98,292.06 35.34,283.26 35.74,274.46 L 35.84,274.46 Z M 35.84,274.46" />
            <path id="joe03Canvas-bezier64" stroke="none" fill="rgb(51, 91, 113)" d="M 59.01,349.61 C 59.17,346.1 59.3,342.6 59.39,339.09 59.5,335.59 59.58,332.08 59.59,328.57 59.59,325.07 59.5,321.57 59.36,318.09 59.33,317.22 59.28,316.35 59.19,315.5 59.09,314.64 58.98,313.79 58.66,313.06 58.49,312.67 58.3,312.29 58.07,311.94 57.85,311.61 57.57,311.29 57.25,311.2 57.09,311.16 56.92,311.17 56.73,311.24 56.64,311.28 56.54,311.32 56.44,311.37 56.33,311.41 56.22,311.49 56.01,311.45 55.79,311.35 55.78,311.19 55.74,311.08 55.72,310.96 55.71,310.85 55.7,310.73 55.69,310.51 55.7,310.29 55.71,310.07 L 55.81,310.06 C 55.84,310.28 55.87,310.5 55.91,310.71 55.94,310.9 56.04,311.18 56.09,311.16 56.27,311.13 56.78,310.63 57.34,310.75 57.9,310.85 58.26,311.24 58.55,311.59 58.85,311.96 59.09,312.34 59.3,312.74 59.78,313.59 59.9,314.51 60.07,315.38 60.21,316.26 60.3,317.15 60.38,318.03 60.66,321.56 60.52,325.08 60.41,328.59 60.18,335.62 59.71,342.62 59.11,349.62 L 59.01,349.61 Z M 59.01,349.61" />
            <path id="joe03Canvas-bezier65" stroke="none" fill="rgb(51, 91, 113)" d="M 59.99,311.58 C 60.19,310.9 60.31,310.2 60.3,309.51 60.29,308.83 60.08,308.12 59.56,307.83 59.3,307.69 58.99,307.63 58.67,307.63 58.33,307.64 57.94,307.64 57.58,307.61 56.85,307.56 56.13,307.46 55.41,307.32 53.99,307.04 52.54,306.68 51.26,305.88 50.63,305.47 50.02,304.98 49.59,304.31 49.39,303.97 49.22,303.6 49.17,303.2 49.13,302.81 49.19,302.41 49.36,302.08 L 49.46,302.1 C 49.39,303.58 50.62,304.37 51.78,304.99 52.97,305.6 54.26,306.15 55.6,306.52 56.27,306.71 56.96,306.85 57.65,306.95 58,307 58.31,307.02 58.69,307.04 59.08,307.07 59.49,307.16 59.84,307.4 60.56,307.92 60.66,308.81 60.6,309.52 60.55,310.25 60.35,310.95 60.09,311.61 L 59.99,311.58 Z M 59.99,311.58" />
            <path id="joe03Canvas-bezier66" stroke="none" fill="rgb(51, 91, 113)" d="M 59.25,305.62 C 59.83,299.69 60.31,293.76 60.57,287.81 60.69,284.85 60.8,281.86 60.57,278.93 60.5,278.21 60.41,277.45 60.16,276.86 59.83,276.28 59.41,275.53 59.22,274.77 59,274.01 59.02,273.1 59.34,272.35 59.49,271.97 59.69,271.63 59.85,271.31 59.94,271.14 59.99,271.02 60.08,270.82 60.19,270.61 60.28,270.46 60.38,270.29 61.17,269.02 61.94,267.77 62.47,266.43 63.01,265.11 63.34,263.67 63.02,262.37 62.86,261.73 62.54,261.14 62.09,260.65 61.87,260.4 61.61,260.2 61.31,259.93 60.99,259.64 60.73,259.36 60.49,259.04 59.53,257.8 58.85,256.42 58.25,255.03 57.11,252.23 56.32,249.32 55.76,246.38 55.49,244.9 55.27,243.42 55.14,241.93 55.05,240.43 54.93,238.92 55.28,237.44 L 55.38,237.46 C 55.16,238.92 55.4,240.41 55.6,241.87 55.82,243.33 56.11,244.79 56.46,246.23 57.16,249.1 57.99,251.95 59.19,254.63 59.78,255.97 60.45,257.28 61.33,258.38 61.54,258.65 61.79,258.93 62.02,259.14 62.27,259.38 62.6,259.64 62.87,259.95 63.42,260.56 63.83,261.33 64.01,262.14 64.36,263.78 63.92,265.38 63.32,266.78 62.72,268.2 61.88,269.48 61.08,270.72 60.98,270.87 60.88,271.04 60.81,271.17 60.75,271.3 60.65,271.52 60.56,271.68 60.38,272.02 60.2,272.32 60.07,272.64 59.8,273.26 59.77,273.92 59.94,274.59 60.02,274.92 60.14,275.25 60.29,275.58 60.44,275.91 60.6,276.17 60.8,276.57 61.11,277.37 61.16,278.11 61.23,278.87 61.42,281.89 61.25,284.86 61.08,287.84 60.68,293.79 60.07,299.72 59.36,305.63 L 59.25,305.62 Z M 59.25,305.62" />
            <path id="joe03Canvas-bezier67" stroke="none" fill="rgb(51, 91, 113)" d="M 63.59,259 C 64.07,257.27 64.4,255.48 64.35,253.71 64.32,252.84 64.18,251.95 63.76,251.25 63.56,250.9 63.27,250.62 62.94,250.44 62.76,250.36 62.5,250.21 62.31,250.05 62.11,249.9 61.93,249.72 61.77,249.53 60.52,248.01 59.95,246.18 59.61,244.38 59.3,242.57 59.19,240.74 59.36,238.92 L 59.46,238.91 C 59.85,240.69 60.18,242.45 60.61,244.17 61.06,245.87 61.42,247.66 62.4,249.01 62.52,249.17 62.66,249.32 62.81,249.45 62.96,249.59 63.09,249.67 63.31,249.8 63.76,250.08 64.11,250.48 64.34,250.93 64.8,251.82 64.88,252.79 64.86,253.71 64.77,255.56 64.3,257.33 63.69,259.04 L 63.59,259 Z M 63.59,259" />
            <path id="joe03Canvas-bezier68" stroke="none" fill="rgb(51, 91, 113)" d="M 64.55,248.96 L 67.88,225.92 C 68.41,222.08 68.87,218.23 69.47,214.4 L 70.38,208.66 70.81,205.79 C 70.96,204.83 71.1,203.87 71.15,202.91 L 71.25,202.9 C 71.41,204.86 71.22,206.81 71.09,208.74 70.93,210.68 70.7,212.61 70.49,214.54 70.02,218.4 69.33,222.22 68.69,226.05 67.43,233.7 66.07,241.34 64.65,248.97 L 64.55,248.96 Z M 64.55,248.96" />
            <path id="joe03Canvas-bezier69" stroke="none" fill="rgb(51, 91, 113)" d="M 107.29,174.52 C 107.89,178.43 108.38,182.35 108.75,186.29 108.94,188.26 109.16,190.24 109.14,192.22 109.11,194.2 109.01,196.21 108.55,198.16 L 108.44,198.15 108.11,192.25 C 108,190.29 108.01,188.32 107.93,186.35 107.75,182.41 107.49,178.47 107.19,174.54 L 107.29,174.52 Z M 107.29,174.52" />
            <path id="joe03Canvas-bezier70" stroke="none" fill="rgb(51, 91, 113)" d="M 108.55,199.86 C 109.33,212.16 110.01,224.47 110.53,236.79 110.79,242.95 111.09,249.11 111.07,255.28 111.01,258.37 111.03,261.46 110.67,264.56 110.62,264.96 110.56,265.34 110.45,265.75 110.3,266.17 110.16,266.48 110.06,266.84 109.85,267.55 109.76,268.29 109.8,269.03 109.83,269.78 110.01,270.52 110.26,271.24 110.38,271.6 110.52,271.97 110.62,272.34 110.73,272.69 110.83,273.2 110.48,273.5 L 110.41,273.42 C 110.68,273.15 110.57,272.74 110.44,272.4 110.31,272.05 110.14,271.7 109.99,271.34 109.68,270.63 109.43,269.87 109.33,269.08 109.24,268.28 109.3,267.47 109.48,266.69 109.57,266.3 109.72,265.89 109.81,265.58 109.89,265.24 109.93,264.86 109.96,264.49 110.15,261.46 110.09,258.36 110.04,255.29 L 109.71,236.82 C 109.37,224.5 108.93,212.18 108.44,199.86 L 108.55,199.86 Z M 108.55,199.86" />
            <path id="joe03Canvas-bezier71" stroke="none" fill="rgb(51, 91, 113)" d="M 110.23,274.46 C 109.92,283.17 109.58,291.88 109.17,300.59 108.95,304.94 108.74,309.29 108.38,313.65 107.86,317.97 107.84,322.31 107.74,326.67 107.68,331.02 107.68,335.37 107.75,339.73 107.79,344.07 107.84,348.44 108.18,352.75 108.22,353.28 108.27,353.82 108.34,354.34 108.38,354.6 108.42,354.86 108.48,355.09 108.51,355.22 108.53,355.29 108.59,355.39 L 108.63,355.49 108.69,355.65 C 108.72,355.76 108.74,355.87 108.73,356.01 108.73,356.28 108.55,356.57 108.37,356.71 108.18,356.85 108,356.92 107.84,356.96 107.51,357.05 107.21,357.08 106.91,357.09 106.32,357.1 105.76,357.04 105.2,356.97 102.99,356.63 100.86,356.02 98.81,355.15 97.8,354.71 96.78,354.19 95.91,353.51 95.06,352.9 94.05,352.5 93.02,352.21 90.95,351.63 88.75,351.44 86.58,351.49 L 86.57,351.39 C 88.75,351.22 90.97,351.28 93.14,351.76 94.22,352.01 95.29,352.39 96.25,353.02 97.12,353.65 98.08,354.09 99.09,354.48 101.1,355.24 103.2,355.82 105.32,356.09 105.84,356.15 106.37,356.19 106.88,356.16 107.13,356.15 107.37,356.12 107.57,356.06 107.67,356.04 107.74,355.99 107.77,355.97 107.8,355.93 107.77,355.97 107.77,355.97 107.78,355.96 107.77,355.94 107.77,355.92 107.76,355.91 107.76,355.91 107.76,355.89 L 107.71,355.8 C 107.64,355.66 107.58,355.48 107.54,355.34 107.46,355.04 107.41,354.76 107.36,354.49 107.27,353.93 107.21,353.38 107.16,352.83 106.56,344.08 106.7,335.37 106.92,326.65 107.07,322.3 107.15,317.91 107.72,313.58 108.13,309.26 108.39,304.9 108.66,300.56 109.21,291.86 109.68,283.16 110.13,274.46 L 110.23,274.46 Z M 110.23,274.46" />
            <path id="joe03Canvas-bezier72" stroke="none" fill="rgb(51, 91, 113)" d="M 85.21,349.62 C 84.57,342.59 84.08,335.55 83.84,328.5 83.73,324.97 83.59,321.43 83.89,317.88 83.98,317 84.08,316.11 84.24,315.22 84.41,314.35 84.57,313.4 85.1,312.6 85.34,312.2 85.6,311.82 85.92,311.47 86.24,311.14 86.65,310.78 87.21,310.73 87.75,310.67 88.25,311.13 88.45,311.16 88.51,311.17 88.61,310.9 88.64,310.71 88.69,310.5 88.72,310.28 88.75,310.06 L 88.85,310.07 C 88.86,310.29 88.86,310.51 88.85,310.74 88.84,310.85 88.83,310.96 88.8,311.08 88.77,311.19 88.74,311.36 88.53,311.44 88.14,311.49 88.01,311.3 87.8,311.26 87.61,311.19 87.43,311.16 87.26,311.2 86.92,311.25 86.62,311.53 86.38,311.86 86.13,312.18 85.92,312.56 85.74,312.94 85.36,313.66 85.23,314.5 85.12,315.36 85.01,316.21 84.96,317.08 84.92,317.95 84.76,321.44 84.66,324.96 84.67,328.48 84.68,332 84.77,335.52 84.89,339.05 85,342.57 85.13,346.09 85.32,349.61 L 85.21,349.62 Z M 85.21,349.62" />
            <path id="joe03Canvas-bezier73" stroke="none" fill="rgb(51, 91, 113)" d="M 87.73,249.18 C 87.06,251.59 86.24,253.97 85.08,256.2 84.49,257.31 83.83,258.4 82.94,259.32 82.49,259.79 81.95,260.12 81.57,260.58 81.17,261.04 80.88,261.57 80.72,262.15 80.39,263.31 80.6,264.56 81.02,265.7 81.45,266.85 82.07,267.93 82.75,268.97 L 83.8,270.52 C 83.89,270.66 83.98,270.79 84.06,270.96 84.13,271.1 84.19,271.22 84.27,271.35 84.42,271.62 84.59,271.89 84.74,272.18 85.04,272.77 85.2,273.49 85.11,274.16 85.03,274.83 84.78,275.46 84.48,276.03 84.34,276.31 84.15,276.61 84.02,276.85 83.92,277.06 83.84,277.37 83.78,277.66 83.67,278.25 83.62,278.86 83.58,279.48 83.51,280.71 83.51,281.96 83.54,283.2 83.61,285.69 83.77,288.18 83.96,290.67 84.36,295.64 84.92,300.61 85.52,305.56 L 85.49,305.43 C 85.72,305.98 86.02,306.56 86.37,306.97 86.46,307.07 86.55,307.14 86.61,307.18 86.69,307.22 86.65,307.2 86.62,307.21 86.59,307.26 86.79,307.02 86.87,306.76 87.09,306.22 87.1,305.65 87.34,304.88 87.59,304.18 88,303.59 88.44,303.06 89.32,302.01 90.33,301.16 91.3,300.29 92.28,299.43 93.24,298.57 94.14,297.65 95.95,295.82 97.53,293.77 98.55,291.41 99.57,289.05 100.1,286.48 100.14,283.88 L 100.24,283.88 C 100.35,286.48 100.05,289.15 99.07,291.62 98.12,294.09 96.58,296.33 94.76,298.24 92.98,300.18 90.85,301.81 89.24,303.71 88.85,304.19 88.51,304.7 88.33,305.23 88.16,305.7 88.13,306.46 87.86,307.13 87.7,307.46 87.63,307.89 86.98,308.21 86.64,308.35 86.25,308.22 86.06,308.09 85.84,307.96 85.7,307.81 85.57,307.66 85.07,307.07 84.79,306.47 84.52,305.82 L 84.49,305.76 84.48,305.69 C 83.92,300.71 83.48,295.72 83.15,290.73 82.99,288.23 82.86,285.72 82.83,283.21 82.82,281.96 82.83,280.7 82.92,279.44 82.97,278.8 83.03,278.17 83.16,277.53 83.23,277.21 83.3,276.91 83.47,276.55 83.64,276.25 83.8,276.03 83.94,275.75 84.53,274.7 84.8,273.48 84.23,272.43 84.1,272.16 83.95,271.9 83.79,271.62 83.72,271.48 83.63,271.33 83.57,271.19 83.52,271.07 83.43,270.94 83.35,270.81 L 82.32,269.24 C 81.65,268.18 81.03,267.06 80.61,265.85 80.19,264.66 79.98,263.31 80.36,262.05 80.55,261.42 80.88,260.84 81.31,260.36 81.74,259.86 82.3,259.53 82.72,259.1 83.59,258.24 84.27,257.18 84.87,256.09 86.06,253.9 86.92,251.54 87.64,249.15 L 87.73,249.18 Z M 87.73,249.18" />
            <path id="joe03Canvas-bezier74" stroke="none" fill="rgb(51, 91, 113)" d="M 79.27,248.97 C 77.77,241.35 76.33,233.71 74.98,226.06 74.29,222.23 73.57,218.41 73.06,214.55 72.83,212.62 72.58,210.69 72.41,208.75 72.26,206.81 72.05,204.87 72.21,202.9 L 72.32,202.91 C 72.36,203.87 72.51,204.83 72.66,205.79 72.8,206.75 72.96,207.71 73.12,208.66 L 74.08,214.41 C 74.72,218.23 75.21,222.09 75.79,225.93 L 79.37,248.96 79.27,248.97 Z M 79.27,248.97" />
            <path id="joe03Canvas-bezier75" stroke="none" fill="rgb(51, 91, 113)" d="M 68.81,180.47 L 69.54,190.6 C 69.68,192.29 69.9,193.97 69.97,195.66 70.06,197.34 70,199.04 70.23,200.69 L 70.14,200.73 C 69.69,199.96 69.53,199.1 69.34,198.27 69.16,197.43 69.05,196.58 68.94,195.74 68.74,194.04 68.75,192.34 68.72,190.65 68.64,187.25 68.64,183.86 68.71,180.47 L 68.81,180.47 Z M 68.81,180.47" />
            <path id="joe03Canvas-bezier76" stroke="none" fill="rgb(51, 91, 113)" d="M 96.02,180.45 C 96.7,181.17 97.68,181.66 98.57,182.15 99.47,182.65 100.41,183.08 101.37,183.45 102.32,183.83 103.32,184.05 104.28,184.38 105.24,184.7 106.2,184.97 107.24,185.27 L 107.24,185.37 C 106.18,185.64 105.07,185.58 104.01,185.37 102.95,185.17 101.98,184.67 101.03,184.2 100.08,183.73 99.17,183.18 98.3,182.59 97.45,181.96 96.56,181.38 95.92,180.5 L 96.02,180.45 Z M 96.02,180.45" />
            <path id="joe03Canvas-bezier77" stroke="none" fill="rgb(51, 91, 113)" d="M 51.88,178.7 C 50.13,180.06 48.12,181.05 46.05,181.85 45.01,182.24 43.97,182.66 42.86,182.83 41.76,183 40.64,183.09 39.51,182.95 L 39.5,182.84 C 40.55,182.43 41.59,182.13 42.63,181.83 43.67,181.53 44.74,181.36 45.79,181.07 46.83,180.77 47.86,180.43 48.87,180.02 49.88,179.63 50.88,179.18 51.82,178.62 L 51.88,178.7 Z M 51.88,178.7" />
            <path id="joe03Canvas-bezier78" stroke="none" fill="rgb(51, 91, 113)" d="M 81.32,245.46 C 82.07,246.54 82.75,247.71 82.91,249.11 82.97,249.79 82.73,250.63 82.1,251.1 81.79,251.35 81.44,251.47 81.17,251.61 80.94,251.74 80.72,251.91 80.53,252.13 79.77,253 79.58,254.27 79.58,255.44 79.58,256.03 79.68,256.62 79.91,257.13 80.14,257.64 80.6,258.04 81.27,258.06 L 81.29,258.16 C 80.97,258.29 80.58,258.31 80.22,258.2 79.85,258.07 79.55,257.81 79.31,257.52 78.83,256.93 78.64,256.21 78.55,255.5 78.42,254.09 78.88,252.6 79.94,251.55 80.21,251.3 80.51,251.09 80.88,250.93 81.2,250.8 81.48,250.72 81.7,250.57 82.16,250.28 82.39,249.73 82.39,249.12 82.4,247.9 81.86,246.64 81.24,245.52 L 81.32,245.46 Z M 81.32,245.46" />
            <path id="joe03Canvas-bezier79" stroke="none" fill="rgb(51, 91, 113)" d="M 85.37,311.07 C 85.02,311.02 84.68,310.88 84.38,310.62 84.1,310.35 83.92,309.94 83.88,309.53 83.84,309.13 83.83,308.7 84.05,308.38 84.27,308.07 84.55,307.82 84.97,307.71 L 85.06,307.77 C 85.11,308.2 85.05,308.51 85,308.8 84.95,309.08 84.75,309.29 84.7,309.55 84.57,310.03 84.83,310.61 85.4,310.97 L 85.37,311.07 Z M 85.37,311.07" />
            <path id="joe03Canvas-bezier80" stroke="none" fill="rgb(51, 91, 113)" d="M 86.56,352.91 C 86.46,355.38 86.41,357.87 86.68,360.32 86.76,360.92 86.85,361.55 87.11,362.05 87.14,362.11 87.18,362.16 87.22,362.21 87.24,362.23 87.26,362.24 87.27,362.26 87.32,362.3 87.34,362.3 87.38,362.34 87.52,362.48 87.61,362.61 87.7,362.75 87.88,363.02 88.03,363.29 88.18,363.57 88.76,364.68 89.27,365.81 89.8,366.93 90.84,369.18 91.86,371.45 93.1,373.56 93.41,374.09 93.74,374.61 94.1,375.09 94.46,375.56 94.87,376.03 95.31,376.28 96.3,376.74 97.59,376.88 98.79,376.98 101.22,377.13 103.73,377.07 106.04,376.48 106.6,376.33 107.17,376.12 107.55,375.83 107.74,375.68 107.83,375.53 107.83,375.42 107.83,375.35 107.83,375.31 107.79,375.17 L 107.65,374.73 106.57,371.17 C 105.9,368.78 105.21,366.39 104.63,363.97 104.05,361.55 103.48,359.12 103.25,356.64 L 103.36,356.62 C 103.87,359.05 104.6,361.41 105.32,363.78 106.05,366.15 106.78,368.51 107.55,370.87 L 108.67,374.42 108.81,374.86 C 108.86,375.02 108.92,375.29 108.88,375.53 108.83,376.05 108.49,376.42 108.2,376.65 107.57,377.11 106.93,377.29 106.3,377.46 103.76,378.03 101.23,378.01 98.72,377.8 97.45,377.65 96.21,377.54 94.94,376.92 94.31,376.54 93.92,376.02 93.53,375.5 93.16,374.98 92.83,374.44 92.52,373.89 91.3,371.7 90.32,369.41 89.33,367.14 88.84,366 88.36,364.86 87.81,363.75 87.68,363.48 87.53,363.21 87.38,362.95 87.3,362.83 87.21,362.7 87.13,362.62 87.12,362.6 87.07,362.56 87.06,362.55 87.02,362.52 86.98,362.48 86.95,362.45 86.88,362.37 86.83,362.3 86.79,362.22 86.5,361.6 86.45,360.97 86.37,360.35 86.17,357.85 86.3,355.37 86.46,352.9 L 86.56,352.91 Z M 86.56,352.91" />
            <path id="joe03Canvas-bezier81" stroke="none" fill="rgb(51, 91, 113)" d="M 56.82,352.9 C 57,355.46 57.15,358.03 56.87,360.61 56.83,360.93 56.77,361.25 56.69,361.57 56.59,361.89 56.5,362.23 56.2,362.51 55.74,362.86 55.47,363.48 55.15,364.02 54.55,365.15 54.01,366.31 53.45,367.46 52.33,369.77 51.22,372.1 49.81,374.29 49.45,374.83 49.07,375.37 48.63,375.87 48.2,376.36 47.66,376.88 46.96,377.11 45.66,377.55 44.37,377.69 43.07,377.81 40.47,378.01 37.86,378.01 35.25,377.56 34.59,377.43 33.94,377.27 33.28,376.96 32.96,376.81 32.62,376.62 32.32,376.27 32.17,376.1 32.04,375.86 32,375.59 31.95,375.34 32.01,375.05 32.07,374.87 L 33.34,371.23 C 34.22,368.82 35.05,366.4 35.87,363.97 36.29,362.76 36.69,361.55 37.06,360.32 37.45,359.1 37.8,357.87 38.07,356.62 L 38.18,356.64 C 37.9,359.21 37.22,361.7 36.56,364.18 35.87,366.66 35.09,369.11 34.31,371.56 L 33.08,375.21 C 33.03,375.42 33.03,375.44 33.14,375.61 33.25,375.75 33.48,375.91 33.73,376.03 34.24,376.27 34.84,376.44 35.45,376.57 37.89,377.06 40.48,377.13 43,376.99 44.26,376.91 45.56,376.78 46.7,376.41 47.25,376.25 47.68,375.85 48.1,375.4 48.52,374.95 48.89,374.44 49.25,373.92 50.67,371.82 51.82,369.52 52.99,367.24 53.58,366.1 54.16,364.95 54.79,363.82 55.13,363.28 55.4,362.67 55.97,362.23 56.34,361.88 56.46,361.16 56.56,360.57 56.91,358.05 56.83,355.46 56.72,352.91 L 56.82,352.9 Z M 56.82,352.9" />
            <path id="joe03Canvas-bezier82" stroke="none" fill="rgb(51, 91, 113)" d="M 36.66,367.08 C 39.79,366.53 42.91,365.97 46.06,365.47 L 46.21,365.45 46.29,365.44 46.36,365.43 46.41,365.44 C 46.25,365.35 46.74,365.52 46.49,365.85 46.34,365.93 46.45,365.87 46.41,365.89 L 46.36,365.9 C 46.12,365.88 46.11,365.85 45.98,365.83 L 45.4,365.66 44.26,365.31 41.99,364.58 37.46,363.08 35.75,362.52 37.56,362.38 46.33,361.69 46.2,362.67 C 43.44,361.77 40.7,360.8 37.99,359.77 L 36.23,359.11 38.08,358.92 C 40.83,358.65 43.59,358.44 46.36,358.3 L 46.37,358.4 C 43.65,358.94 40.92,359.4 38.19,359.79 L 38.28,358.94 C 41.05,359.81 43.8,360.72 46.53,361.71 L 48.9,362.58 46.39,362.69 37.61,363.1 37.7,362.4 42.18,364.01 44.43,364.81 45.55,365.19 46.11,365.37 C 46.18,365.4 46.36,365.43 46.31,365.44 46.29,365.44 46.29,365.45 46.3,365.44 46.27,365.46 46.38,365.41 46.23,365.48 45.98,365.81 46.47,365.98 46.31,365.89 L 46.34,365.89 C 46.36,365.89 46.34,365.89 46.33,365.89 L 46.26,365.9 46.12,365.91 C 42.97,366.3 39.82,366.75 36.68,367.18 L 36.66,367.08 Z M 36.66,367.08" />
            <path id="joe03Canvas-bezier83" stroke="none" fill="rgb(51, 91, 113)" d="M 104.94,367.18 C 103.47,366.96 101.98,366.79 100.49,366.6 L 96.03,366.06 95.28,365.97 95.97,365.65 104.35,361.78 104.46,362.45 94.83,361.78 92.55,361.63 94.7,360.81 C 97.37,359.79 100.07,358.84 102.79,357.94 L 102.82,358.78 C 100.14,357.97 97.49,357.08 94.86,356.12 L 94.88,356.02 C 97.63,356.59 100.35,357.23 103.06,357.93 L 104.35,358.27 103.09,358.77 C 100.43,359.83 97.75,360.83 95.04,361.76 L 94.91,360.78 104.52,361.75 105.89,361.89 104.64,362.42 96.15,366.05 96.09,365.64 100.53,366.34 C 102.01,366.58 103.48,366.8 104.97,367.08 L 104.94,367.18 Z M 104.94,367.18" />
        </g>
    </g>
</svg>
