<?xml version="1.0" encoding="UTF-8"?>
<!DOCTYPE svg PUBLIC "-//W3C//DTD SVG 1.1//EN" "http://www.w3.org/Graphics/SVG/1.1/DTD/svg11.dtd">
<svg version="1.1" xmlns="http://www.w3.org/2000/svg" xmlns:xlink="http://www.w3.org/1999/xlink" width="91" height="378"  xml:space="preserve" id="mel02Canvas">
    <!-- Generated by PaintCode - http://www.paintcodeapp.com -->
    <g id="mel02Canvas-lines">
        <g id="mel02Canvas-group2">
            <path id="mel02Canvas-bezier" stroke="none" fill="rgb(51, 91, 113)" d="M 49.59,2.14 C 46.51,0.6 42.97,-0.05 39.57,0.38 36.15,0.79 32.97,2.44 30.48,4.78 29.22,5.96 28.12,7.28 27.14,8.7 26.21,10.09 25.66,11.74 25.34,13.42 25,15.1 24.92,16.83 24.95,18.55 24.96,19.42 25.02,20.28 25.1,21.14 25.18,22.01 25.28,22.87 25.44,23.73 L 25.38,23.74 C 24.94,22.05 24.67,20.32 24.55,18.57 24.43,16.82 24.49,15.06 24.77,13.31 25.08,11.57 25.65,9.85 26.68,8.37 27.71,6.95 28.86,5.61 30.17,4.44 32.75,2.08 36.05,0.45 39.53,0.09 43.01,-0.27 46.55,0.47 49.62,2.09 L 49.59,2.14 Z M 49.59,2.14" />
            <path id="mel02Canvas-bezier2" stroke="none" fill="rgb(51, 91, 113)" d="M 27.28,26.7 C 27.04,26.59 26.8,26.75 26.67,26.95 26.52,27.15 26.43,27.39 26.35,27.64 26.21,28.12 26.16,28.64 26.15,29.15 26.13,30.17 26.3,31.19 26.6,32.16 26.91,33.13 27.37,34.06 27.9,34.88 28.17,35.28 28.5,35.65 28.9,35.89 29.3,36.13 29.81,36.21 30.29,36.03 L 30.33,36.08 C 29.9,36.42 29.26,36.47 28.73,36.26 28.19,36.05 27.78,35.64 27.44,35.22 26.77,34.34 26.42,33.31 26.16,32.29 25.9,31.26 25.78,30.19 25.86,29.13 25.91,28.61 26,28.08 26.19,27.58 26.29,27.33 26.4,27.09 26.58,26.88 26.73,26.67 27.05,26.5 27.3,26.64 L 27.28,26.7 Z M 27.28,26.7" />
            <path id="mel02Canvas-bezier3" stroke="none" fill="rgb(51, 91, 113)" d="M 34.2,43.44 C 35.2,44.89 36.42,46.2 37.76,47.33 39.11,48.45 40.63,49.39 42.28,49.9 43.94,50.42 45.69,50.43 47.37,50.03 48.23,49.86 49.07,49.63 49.87,49.31 50.65,48.98 51.43,48.53 51.89,47.77 L 51.94,47.79 C 51.62,48.66 50.82,49.25 50.04,49.67 49.23,50.1 48.36,50.36 47.5,50.59 45.75,51.09 43.83,50.94 42.14,50.34 40.43,49.74 38.91,48.73 37.58,47.55 36.26,46.34 35.1,44.97 34.15,43.47 L 34.2,43.44 Z M 34.2,43.44" />
            <path id="mel02Canvas-bezier4" stroke="none" fill="rgb(51, 91, 113)" d="M 52.53,47.01 C 53.36,46.14 54.06,45.15 54.67,44.13 55.29,43.11 55.81,42.03 56.23,40.91 56.65,39.79 56.93,38.63 57.2,37.48 57.49,36.32 57.66,35.14 57.86,33.94 L 57.91,33.94 C 58.05,35.15 57.96,36.38 57.77,37.59 57.56,38.8 57.15,39.97 56.66,41.08 56.18,42.2 55.59,43.28 54.91,44.29 54.23,45.28 53.46,46.23 52.57,47.05 L 52.53,47.01 Z M 52.53,47.01" />
            <path id="mel02Canvas-bezier5" stroke="none" fill="rgb(51, 91, 113)" d="M 59.07,33.91 C 59.98,33.38 60.54,32.39 60.77,31.4 60.9,30.89 60.94,30.37 60.97,29.84 61.01,29.31 61.03,28.78 61.04,28.25 61.05,27.19 61,26.14 60.97,25.09 60.95,24.56 60.92,24.04 60.86,23.53 60.83,23.27 60.78,23.01 60.71,22.77 60.64,22.53 60.54,22.28 60.32,22.15 L 60.34,22.09 C 60.63,22.16 60.81,22.43 60.95,22.67 61.08,22.92 61.17,23.18 61.25,23.44 61.41,23.97 61.48,24.51 61.54,25.05 61.65,26.13 61.57,27.21 61.49,28.27 61.46,28.81 61.41,29.34 61.34,29.88 61.28,30.4 61.21,30.95 61.05,31.47 60.72,32.51 60.06,33.48 59.09,33.97 L 59.07,33.91 Z M 59.07,33.91" />
            <path id="mel02Canvas-bezier6" stroke="none" fill="rgb(51, 91, 113)" d="M 59.05,23.45 C 59.16,21.47 59.02,19.49 58.73,17.54 58.44,15.59 57.96,13.67 57.25,11.84 56.53,10.01 55.56,8.31 54.39,6.75 53.24,5.19 51.8,3.84 50.21,2.68 L 50.24,2.63 C 52.01,3.52 53.57,4.84 54.84,6.4 56.11,7.96 57.01,9.79 57.68,11.68 58.35,13.56 58.78,15.52 59.02,17.5 59.24,19.48 59.29,21.47 59.11,23.45 L 59.05,23.45 Z M 59.05,23.45" />
            <path id="mel02Canvas-bezier7" stroke="none" fill="rgb(51, 91, 113)" d="M 28.46,28.03 C 28.44,26.71 28.47,25.39 28.6,24.07 28.67,23.41 28.76,22.75 28.94,22.1 28.99,21.94 29.04,21.78 29.11,21.62 29.17,21.47 29.21,21.33 29.25,21.17 29.32,20.86 29.35,20.53 29.38,20.21 29.5,18.9 29.54,17.58 29.68,16.25 29.83,14.94 30.02,13.59 30.65,12.35 30.96,11.75 31.46,11.16 32.16,10.89 32.5,10.76 32.89,10.73 33.2,10.71 33.52,10.68 33.84,10.64 34.16,10.6 35.44,10.42 36.72,10.16 37.99,9.86 39.27,9.58 40.53,9.23 41.77,8.85 42.4,8.65 43.01,8.44 43.62,8.2 43.92,8.08 44.22,7.95 44.5,7.79 44.78,7.63 45.08,7.47 45.23,7.2 L 45.29,7.21 C 45.16,7.55 44.86,7.74 44.59,7.94 44.31,8.12 44.02,8.28 43.73,8.44 43.13,8.73 42.52,8.99 41.91,9.23 40.67,9.7 39.4,10.08 38.13,10.42 36.85,10.75 35.55,11.01 34.23,11.17 33.9,11.2 33.57,11.23 33.24,11.25 32.89,11.27 32.62,11.28 32.34,11.38 31.79,11.57 31.35,12.03 31.05,12.58 30.45,13.69 30.23,15.01 30.05,16.3 29.88,17.6 29.82,18.92 29.67,20.24 29.63,20.57 29.58,20.9 29.5,21.23 29.46,21.39 29.4,21.57 29.33,21.72 29.27,21.86 29.21,22.01 29.17,22.17 28.97,22.79 28.86,23.44 28.77,24.09 28.6,25.39 28.53,26.71 28.52,28.03 L 28.46,28.03 Z M 28.46,28.03" />
            <path id="mel02Canvas-bezier8" stroke="none" fill="rgb(51, 91, 113)" d="M 47.16,7.18 C 48.4,7.71 49.61,8.32 50.78,9.01 51.94,9.71 53.07,10.49 54.05,11.48 54.54,11.97 54.95,12.57 55.26,13.19 55.58,13.81 55.81,14.48 55.96,15.16 56.11,15.84 56.2,16.52 56.28,17.19 56.37,17.85 56.43,18.52 56.84,19.07 L 56.8,19.11 C 56.24,18.65 56.05,17.91 55.88,17.26 55.72,16.6 55.6,15.94 55.41,15.3 55.23,14.66 55.02,14.04 54.75,13.44 54.48,12.83 54.15,12.29 53.71,11.79 52.83,10.81 51.74,10 50.63,9.26 49.51,8.51 48.34,7.83 47.13,7.23 L 47.16,7.18 Z M 47.16,7.18" />
            <path id="mel02Canvas-bezier9" stroke="none" fill="rgb(51, 91, 113)" d="M 54.68,21.83 C 54.06,21.87 53.45,22.01 52.86,22.18 52.27,22.35 51.7,22.57 51.15,22.84 50.6,23.11 50.1,23.47 49.58,23.77 49.05,24.08 48.54,24.42 47.98,24.73 L 47.94,24.69 C 48.28,24.14 48.75,23.68 49.26,23.29 49.77,22.9 50.37,22.65 50.97,22.42 52.16,21.96 53.43,21.71 54.69,21.78 L 54.68,21.83 Z M 54.68,21.83" />
            <path id="mel02Canvas-bezier10" stroke="none" fill="rgb(51, 91, 113)" d="M 41.85,33.95 C 41.79,34.41 41.78,34.89 41.86,35.33 41.9,35.54 41.98,35.75 42.1,35.88 42.22,36.01 42.37,36.05 42.56,36.02 42.99,35.95 43.5,35.81 43.99,35.88 44.23,35.91 44.48,35.96 44.72,36.07 44.96,36.18 45.19,36.36 45.28,36.61 L 45.24,36.64 C 44.83,36.41 44.4,36.46 43.96,36.46 43.51,36.48 43.09,36.45 42.59,36.49 42.31,36.51 41.97,36.37 41.8,36.12 41.64,35.87 41.6,35.61 41.58,35.36 41.56,34.86 41.66,34.39 41.79,33.93 L 41.85,33.95 Z M 41.85,33.95" />
            <path id="mel02Canvas-bezier11" stroke="none" fill="rgb(51, 91, 113)" d="M 47.94,35.94 C 48.07,35.73 48.22,35.53 48.4,35.36 48.49,35.28 48.57,35.15 48.71,35.13 48.84,35.11 49,35.12 49.15,35.25 L 49.16,35.31 C 49.08,35.49 49.03,35.58 48.95,35.66 48.88,35.74 48.75,35.72 48.64,35.76 48.43,35.83 48.21,35.91 47.98,35.98 L 47.94,35.94 Z M 47.94,35.94" />
            <path id="mel02Canvas-bezier12" stroke="none" fill="rgb(51, 91, 113)" d="M 40.66,24.74 C 40.03,24.52 39.36,24.38 38.7,24.29 38.04,24.2 37.37,24.16 36.71,24.18 36.05,24.2 35.4,24.33 34.75,24.41 34.1,24.49 33.45,24.62 32.77,24.74 L 32.75,24.69 C 33.31,24.27 33.97,24 34.64,23.84 35.32,23.67 36.03,23.68 36.72,23.72 38.1,23.79 39.45,24.11 40.68,24.69 L 40.66,24.74 Z M 40.66,24.74" />
            <path id="mel02Canvas-bezier13" stroke="none" fill="rgb(51, 91, 113)" d="M 39.68,40.67 C 41.67,40.07 43.71,39.65 45.76,39.32 46.79,39.15 47.81,38.96 48.85,38.9 49.89,38.84 50.93,38.82 51.98,38.92 L 51.98,38.98 C 50.96,39.2 49.93,39.34 48.91,39.48 47.88,39.61 46.85,39.67 45.82,39.78 44.8,39.89 43.77,40.02 42.75,40.18 41.72,40.33 40.7,40.5 39.69,40.73 L 39.68,40.67 Z M 39.68,40.67" />
            <path id="mel02Canvas-bezier14" stroke="none" fill="rgb(51, 91, 113)" d="M 41.72,42.06 C 42.06,42.33 42.43,42.58 42.82,42.74 43.02,42.83 43.22,42.89 43.43,42.9 L 44.08,42.92 C 44.95,42.93 45.83,42.9 46.62,42.63 46.81,42.55 47,42.47 47.17,42.36 47.34,42.25 47.54,42.12 47.73,42.01 48.11,41.78 48.5,41.59 48.88,41.38 49.64,40.97 50.38,40.55 50.87,39.81 L 50.92,39.84 C 50.82,40.28 50.56,40.69 50.24,41.02 49.92,41.37 49.55,41.63 49.17,41.88 48.79,42.12 48.39,42.32 48,42.52 47.8,42.61 47.63,42.71 47.42,42.82 47.2,42.93 46.98,43.01 46.75,43.07 45.85,43.31 44.94,43.28 44.06,43.2 43.84,43.18 43.63,43.16 43.4,43.13 43.16,43.09 42.95,43.01 42.75,42.9 42.35,42.69 42,42.41 41.68,42.1 L 41.72,42.06 Z M 41.72,42.06" />
            <path id="mel02Canvas-bezier15" stroke="none" fill="rgb(51, 91, 113)" d="M 40.69,43.06 C 41.42,43.74 42.25,44.31 43.15,44.68 44.05,45.07 45.03,45.23 45.96,44.99 46.91,44.78 47.81,44.41 48.61,43.92 49.42,43.43 50.08,42.72 50.64,41.88 L 50.69,41.9 C 50.42,42.88 49.79,43.79 48.93,44.4 48.07,45.02 47.04,45.29 46.04,45.45 45.01,45.65 43.94,45.4 43.03,44.95 42.13,44.48 41.33,43.84 40.65,43.1 L 40.69,43.06 Z M 40.69,43.06" />
            <path id="mel02Canvas-bezier16" stroke="none" fill="rgb(51, 91, 113)" d="M 32.36,44.72 C 33.21,46.76 33.98,48.83 34.65,50.94 34.99,51.99 35.34,53.05 35.53,54.15 35.63,54.7 35.7,55.25 35.72,55.81 35.74,56.37 35.74,56.96 35.52,57.49 L 35.46,57.47 C 35.52,56.38 35.2,55.33 34.97,54.27 34.71,53.21 34.49,52.13 34.21,51.07 33.64,48.95 33,46.84 32.31,44.74 L 32.36,44.72 Z M 32.36,44.72" />
            <path id="mel02Canvas-bezier17" stroke="none" fill="rgb(51, 91, 113)" d="M 55.45,44.73 C 55.7,45.95 55.93,47.18 56.13,48.42 56.23,49.03 56.37,49.65 56.38,50.28 56.39,50.9 56.4,51.55 56.2,52.18 L 56.14,52.17 C 56.03,51.55 55.9,50.95 55.81,50.33 55.71,49.72 55.72,49.09 55.67,48.47 L 55.39,44.73 55.45,44.73 Z M 55.45,44.73" />
            <path id="mel02Canvas-bezier18" stroke="none" fill="rgb(51, 91, 113)" d="M 56.9,48.88 C 57.62,49.37 58.35,49.83 59.09,50.26 59.46,50.47 59.86,50.63 60.21,50.86 60.57,51.07 60.9,51.3 61.3,51.48 L 61.3,51.54 C 60.84,51.68 60.36,51.53 59.95,51.37 59.53,51.21 59.19,50.91 58.83,50.65 58.13,50.12 57.48,49.54 56.86,48.92 L 56.9,48.88 Z M 56.9,48.88" />
            <path id="mel02Canvas-bezier19" stroke="none" fill="rgb(51, 91, 113)" d="M 78.52,51.09 C 78.6,50.91 78.66,50.7 78.64,50.5 78.64,50.3 78.52,50.13 78.33,50.09 77.95,50 77.53,50.13 77.15,50.26 76.36,50.57 75.48,50.57 74.65,50.5 72.98,50.33 71.35,49.96 69.74,50.18 68.13,50.39 66.64,51.16 65.59,52.35 64.49,53.54 63.85,55.1 63.06,56.58 L 63.01,56.55 C 63.49,54.96 64.05,53.33 65.15,51.97 65.71,51.31 66.41,50.75 67.2,50.38 67.99,50.01 68.83,49.8 69.68,49.72 71.4,49.55 73.05,49.99 74.68,50.21 75.49,50.32 76.32,50.36 77.1,50.1 77.5,49.99 77.92,49.86 78.36,49.98 78.59,50.03 78.74,50.28 78.73,50.5 78.73,50.72 78.67,50.92 78.58,51.12 L 78.52,51.09 Z M 78.52,51.09" />
            <path id="mel02Canvas-bezier20" stroke="none" fill="rgb(51, 91, 113)" d="M 77.31,51.86 C 78.59,52.53 79.79,53.36 80.85,54.37 81.37,54.89 81.85,55.46 82.22,56.1 82.59,56.75 82.85,57.49 82.86,58.26 82.94,59.68 83.28,61.07 83.6,62.47 83.91,63.87 84.31,65.26 84.67,66.67 L 84.61,66.69 C 83.94,65.39 83.46,64.01 83.04,62.62 82.65,61.21 82.41,59.75 82.4,58.27 82.42,56.88 81.6,55.6 80.64,54.58 79.67,53.53 78.51,52.65 77.28,51.91 L 77.31,51.86 Z M 77.31,51.86" />
            <path id="mel02Canvas-bezier21" stroke="none" fill="rgb(51, 91, 113)" d="M 64.39,64.83 C 65.29,63.11 66.69,61.67 68.28,60.56 69.89,59.46 71.77,58.74 73.72,58.5 74.69,58.38 75.68,58.33 76.67,58.5 77.65,58.65 78.61,59.03 79.44,59.58 81.1,60.71 82.28,62.45 82.78,64.33 L 82.73,64.35 C 81.93,62.61 80.72,61.04 79.13,60.07 78.35,59.57 77.48,59.24 76.57,59.06 75.66,58.87 74.71,58.88 73.77,58.96 71.89,59.14 70.05,59.78 68.44,60.8 66.84,61.82 65.4,63.18 64.44,64.86 L 64.39,64.83 Z M 64.39,64.83" />
            <path id="mel02Canvas-bezier22" stroke="none" fill="rgb(51, 91, 113)" d="M 83.1,72.69 C 82.42,74.25 81.48,75.68 80.36,76.97 79.81,77.62 79.22,78.25 78.52,78.75 77.82,79.25 77.06,79.67 76.24,79.91 L 76.21,79.86 C 76.88,79.33 77.54,78.83 78.16,78.29 78.79,77.76 79.44,77.24 80.03,76.66 80.61,76.07 81.16,75.43 81.66,74.77 82.17,74.1 82.65,73.41 83.05,72.67 L 83.1,72.69 Z M 83.1,72.69" />
            <path id="mel02Canvas-bezier23" stroke="none" fill="rgb(51, 91, 113)" d="M 77.32,76.81 C 76.63,77.9 76.02,79.05 75.48,80.22 75.21,80.8 74.96,81.4 74.74,82 L 74.09,83.83 C 73.64,85.05 73.13,86.3 72.27,87.34 71.41,88.37 70.27,89.17 69.01,89.52 L 68.99,89.47 C 70.11,88.82 71.09,88 71.82,86.98 72.56,85.98 73.16,84.85 73.66,83.66 L 74.39,81.86 C 74.64,81.26 74.93,80.67 75.23,80.09 75.84,78.94 76.52,77.83 77.27,76.77 L 77.32,76.81 Z M 77.32,76.81" />
            <path id="mel02Canvas-bezier24" stroke="none" fill="rgb(51, 91, 113)" d="M 59.55,74.44 C 60.48,72.5 61.48,70.59 62.59,68.74 63.13,67.82 63.68,66.88 64.37,66.04 64.71,65.62 65.07,65.21 65.47,64.83 65.86,64.46 66.29,64.11 66.79,63.87 L 66.82,63.92 C 66.04,64.66 65.44,65.53 64.82,66.39 64.22,67.26 63.57,68.11 62.97,68.99 61.79,70.77 60.67,72.6 59.61,74.46 L 59.55,74.44 Z M 59.55,74.44" />
            <path id="mel02Canvas-bezier25" stroke="none" fill="rgb(51, 91, 113)" d="M 64.42,92.67 C 65.01,92.7 65.62,92.61 66.13,92.35 66.39,92.23 66.61,92.06 66.79,91.85 66.95,91.64 67.1,91.37 67.23,91.11 67.5,90.59 67.66,90.03 67.83,89.49 67.99,88.94 68.1,88.39 68.02,87.78 L 68.07,87.76 C 68.47,88.28 68.49,89 68.39,89.62 68.28,90.26 67.96,90.82 67.63,91.34 67.46,91.6 67.3,91.86 67.06,92.1 66.83,92.34 66.54,92.51 66.24,92.62 65.64,92.83 65.01,92.83 64.41,92.73 L 64.42,92.67 Z M 64.42,92.67" />
            <path id="mel02Canvas-bezier26" stroke="none" fill="rgb(51, 91, 113)" d="M 66.56,85.65 C 66.29,85.33 66.06,84.98 65.85,84.6 65.75,84.41 65.66,84.21 65.6,83.99 65.57,83.89 65.54,83.76 65.52,83.67 65.5,83.59 65.47,83.52 65.43,83.43 65.26,83.09 64.97,82.8 64.76,82.45 64.55,82.11 64.33,81.75 64.16,81.34 L 64.2,81.3 C 64.6,81.5 64.93,81.78 65.22,82.1 65.51,82.42 65.7,82.82 65.85,83.25 65.89,83.36 65.92,83.49 65.93,83.61 65.94,83.73 65.95,83.8 65.96,83.91 65.99,84.1 66.05,84.29 66.11,84.48 66.24,84.87 66.41,85.25 66.61,85.62 L 66.56,85.65 Z M 66.56,85.65" />
            <path id="mel02Canvas-bezier27" stroke="none" fill="rgb(51, 91, 113)" d="M 64.15,80.44 C 63.75,79.78 63.29,79.17 62.78,78.62 62.52,78.34 62.21,78.13 61.97,77.87 61.71,77.61 61.45,77.37 61.16,77.08 L 61.18,77.03 C 61.6,77.02 62,77.19 62.33,77.43 62.68,77.65 62.9,78 63.13,78.33 63.59,78.97 63.95,79.68 64.21,80.41 L 64.15,80.44 Z M 64.15,80.44" />
            <path id="mel02Canvas-bezier28" stroke="none" fill="rgb(51, 91, 113)" d="M 59.78,76.3 C 59.38,75.87 58.96,75.46 58.52,75.12 58.3,74.94 58.04,74.84 57.84,74.67 57.63,74.51 57.44,74.36 57.16,74.2 L 57.16,74.14 C 57.47,73.98 57.84,74.04 58.13,74.17 58.43,74.3 58.63,74.55 58.83,74.78 59.24,75.23 59.56,75.73 59.82,76.27 L 59.78,76.3 Z M 59.78,76.3" />
            <path id="mel02Canvas-bezier29" stroke="none" fill="rgb(51, 91, 113)" d="M 56.86,73.01 C 56.18,72.61 55.55,72.11 55,71.53 54.46,70.96 53.99,70.28 53.74,69.51 53.6,69.13 53.53,68.72 53.53,68.32 53.53,67.91 53.54,67.52 53.52,67.13 53.49,66.34 53.38,65.56 53.23,64.79 52.92,63.26 52.43,61.72 52.16,60.17 51.98,59.43 51.56,58.74 50.85,58.62 50.52,58.55 50.09,58.56 49.78,58.64 49.49,58.73 49.22,59 49.03,59.31 48.65,59.93 48.47,60.7 48.37,61.46 48.28,62.22 48.27,63 48.32,63.78 48.37,64.56 48.47,65.34 48.61,66.11 48.74,66.87 48.92,67.65 49.03,68.45 49.15,69.25 49.21,70.06 49.2,70.86 49.18,71.68 49.07,72.46 49.07,73.23 49.07,74.01 49.19,74.78 49.36,75.55 49.51,76.33 49.72,77.09 49.93,77.86 L 49.88,77.87 C 49.32,76.39 48.78,74.88 48.67,73.25 48.61,72.43 48.72,71.64 48.7,70.86 48.69,70.09 48.6,69.31 48.47,68.54 48.35,67.77 48.16,67.01 48.02,66.21 47.88,65.42 47.79,64.62 47.75,63.81 47.72,63.01 47.74,62.2 47.86,61.39 47.98,60.59 48.18,59.77 48.65,59.05 48.88,58.7 49.19,58.36 49.66,58.21 49.89,58.15 50.1,58.15 50.3,58.14 50.51,58.14 50.73,58.16 50.94,58.21 51.37,58.3 51.77,58.57 52.02,58.92 52.28,59.28 52.42,59.68 52.52,60.08 52.77,61.66 53.23,63.16 53.51,64.74 53.65,65.53 53.74,66.32 53.75,67.12 53.76,67.52 53.74,67.93 53.73,68.32 53.72,68.7 53.78,69.09 53.9,69.46 54.38,70.95 55.58,72.13 56.89,72.96 L 56.86,73.01 Z M 56.86,73.01" />
            <path id="mel02Canvas-bezier30" stroke="none" fill="rgb(51, 91, 113)" d="M 53.41,76.31 C 51.78,77.25 50.17,78.23 48.73,79.41 48.37,79.71 48.02,80.02 47.75,80.38 47.61,80.56 47.53,80.72 47.45,80.96 L 47.2,81.62 C 47.04,82.05 46.95,82.48 47.04,82.9 47.11,83.32 47.33,83.72 47.59,84.09 47.85,84.46 48.15,84.81 48.47,85.14 L 48.72,85.39 C 48.73,85.4 48.78,85.45 48.76,85.43 48.78,85.45 48.81,85.48 48.8,85.46 48.78,85.45 48.83,85.47 48.86,85.47 49.01,85.48 49.23,85.43 49.44,85.36 50.26,85.07 51.06,84.58 51.81,84.06 52.58,83.54 53.28,82.93 53.99,82.32 54.35,82.01 54.7,81.7 55.05,81.39 55.39,81.07 55.74,80.75 56.05,80.41 L 56.1,80.44 C 55.58,81.25 54.92,81.93 54.26,82.61 53.61,83.29 52.91,83.94 52.15,84.53 51.38,85.09 50.56,85.61 49.6,85.91 49.36,85.98 49.11,86.04 48.79,86.01 48.71,85.99 48.64,85.99 48.52,85.92 48.45,85.88 48.45,85.87 48.42,85.85 48.36,85.79 48.37,85.79 48.34,85.76 L 48.09,85.5 C 47.78,85.14 47.47,84.76 47.21,84.35 46.94,83.94 46.7,83.49 46.62,82.97 46.54,82.45 46.67,81.93 46.85,81.49 L 47.12,80.83 C 47.2,80.63 47.33,80.35 47.49,80.18 47.8,79.79 48.17,79.48 48.55,79.19 50.07,78.05 51.71,77.13 53.38,76.26 L 53.41,76.31 Z M 53.41,76.31" />
            <path id="mel02Canvas-bezier31" stroke="none" fill="rgb(51, 91, 113)" d="M 48.76,86.58 C 48.96,87.06 49.2,87.53 49.47,87.97 49.75,88.41 50.07,88.84 50.47,89.11 50.65,89.25 50.87,89.22 51.12,89.19 51.37,89.15 51.61,89.07 51.85,88.99 52.34,88.82 52.81,88.61 53.28,88.38 54.2,87.91 55.07,87.34 55.95,86.8 56.83,86.24 57.69,85.68 58.46,84.96 L 58.5,84.99 C 58.25,85.47 57.88,85.87 57.5,86.25 57.12,86.63 56.7,86.96 56.27,87.28 55.4,87.9 54.44,88.38 53.47,88.8 52.98,89.01 52.48,89.2 51.96,89.35 51.71,89.42 51.44,89.49 51.17,89.52 51.03,89.53 50.89,89.54 50.74,89.52 50.6,89.52 50.4,89.44 50.31,89.35 49.86,88.99 49.58,88.53 49.32,88.06 49.08,87.59 48.87,87.1 48.7,86.59 L 48.76,86.58 Z M 48.76,86.58" />
            <path id="mel02Canvas-bezier32" stroke="none" fill="rgb(51, 91, 113)" d="M 51.91,90.24 C 52.22,91.24 52.52,92.49 53.58,92.74 54.07,92.89 54.59,92.84 54.98,92.51 55.43,92.19 55.89,91.91 56.36,91.63 57.3,91.07 58.23,90.5 59.24,90.08 59.75,89.87 60.26,89.66 60.79,89.52 61.32,89.38 61.88,89.22 62.44,89.34 L 62.43,89.4 C 62.17,89.42 61.92,89.5 61.67,89.59 61.42,89.68 61.17,89.78 60.93,89.9 60.44,90.12 59.96,90.36 59.48,90.6 58.53,91.09 57.54,91.53 56.59,92.03 56.11,92.29 55.63,92.55 55.18,92.82 54.97,92.98 54.64,93.12 54.35,93.14 54.06,93.16 53.76,93.11 53.49,93.01 52.95,92.82 52.48,92.37 52.31,91.84 52.11,91.32 51.95,90.8 51.86,90.26 L 51.91,90.24 Z M 51.91,90.24" />
            <path id="mel02Canvas-bezier33" stroke="none" fill="rgb(51, 91, 113)" d="M 56.62,92.97 C 56.99,93.58 57.53,94.12 58.18,94.34 58.5,94.45 58.83,94.47 59.17,94.4 59.52,94.34 59.87,94.25 60.22,94.17 60.91,93.99 61.59,93.74 62.27,93.55 62.61,93.46 62.95,93.35 63.28,93.24 63.45,93.18 63.61,93.12 63.76,93.03 63.92,92.96 64.06,92.87 64.15,92.72 L 64.21,92.74 C 64.13,93.15 63.76,93.39 63.46,93.6 63.14,93.81 62.8,93.96 62.46,94.1 61.76,94.38 61.03,94.5 60.31,94.62 59.95,94.68 59.59,94.73 59.22,94.77 58.84,94.82 58.42,94.77 58.07,94.61 57.36,94.28 56.88,93.65 56.57,92.99 L 56.62,92.97 Z M 56.62,92.97" />
            <path id="mel02Canvas-bezier34" stroke="none" fill="rgb(51, 91, 113)" d="M 62.66,72.66 C 63.72,71.81 64.91,71.13 66.18,70.61 66.81,70.35 67.46,70.09 68.15,70 68.83,69.9 69.54,69.9 70.21,70.06 L 70.21,70.12 C 69.54,70.28 68.89,70.4 68.26,70.57 67.62,70.73 66.97,70.84 66.34,71.04 65.7,71.24 65.08,71.49 64.47,71.77 63.86,72.04 63.26,72.35 62.69,72.7 L 62.66,72.66 Z M 62.66,72.66" />
            <path id="mel02Canvas-bezier35" stroke="none" fill="rgb(51, 91, 113)" d="M 63.09,51.56 C 62.09,52.51 61.15,53.53 60.26,54.58 59.36,55.63 58.52,56.72 57.77,57.87 57.02,59.02 56.39,60.24 55.87,61.49 55.34,62.78 54.71,64.04 53.91,65.19 L 53.86,65.16 C 54.37,63.86 54.91,62.6 55.33,61.28 55.81,59.94 56.58,58.74 57.39,57.61 59.02,55.34 60.95,53.32 63.05,51.51 L 63.09,51.56 Z M 63.09,51.56" />
            <path id="mel02Canvas-bezier36" stroke="none" fill="rgb(51, 91, 113)" d="M 28.12,59.31 C 26.62,59.93 25.07,60.43 23.47,60.75 22.68,60.92 21.83,60.98 21.05,61 20.26,61.08 19.48,61.26 18.71,61.48 17.17,61.92 15.69,62.56 14.26,63.26 13.54,63.6 12.85,64 12.21,64.46 11.89,64.69 11.58,64.95 11.31,65.23 11.03,65.51 10.8,65.84 10.65,66.21 L 10.59,66.2 C 10.75,65.36 11.35,64.7 11.96,64.15 12.58,63.6 13.29,63.15 14,62.74 15.44,61.95 17.01,61.43 18.59,61.03 19.39,60.84 20.19,60.68 21.02,60.63 21.86,60.63 22.62,60.6 23.43,60.47 25.01,60.23 26.58,59.8 28.1,59.26 L 28.12,59.31 Z M 28.12,59.31" />
            <path id="mel02Canvas-bezier37" stroke="none" fill="rgb(51, 91, 113)" d="M 15.06,61.78 C 12.98,62.56 11.14,63.88 9.54,65.39 7.94,66.92 6.59,68.69 5.49,70.61 4.39,72.53 3.58,74.59 2.88,76.69 2.17,78.79 1.68,80.96 1.23,83.14 L 1.17,83.14 C 1.29,80.9 1.71,78.68 2.34,76.52 2.97,74.36 3.92,72.29 5.09,70.37 6.26,68.45 7.68,66.68 9.35,65.18 11.02,63.7 12.92,62.43 15.04,61.72 L 15.06,61.78 Z M 15.06,61.78" />
            <path id="mel02Canvas-bezier38" stroke="none" fill="rgb(51, 91, 113)" d="M 1.19,84.95 C 3.1,84.17 5.09,83.56 7.15,83.21 8.18,83.04 9.23,82.9 10.29,83.04 10.82,83.1 11.35,83.22 11.84,83.43 12.34,83.64 12.81,83.94 13.14,84.35 L 13.1,84.4 C 12.23,83.83 11.23,83.67 10.24,83.61 9.24,83.56 8.23,83.57 7.21,83.67 6.2,83.78 5.19,83.97 4.19,84.2 3.18,84.42 2.19,84.68 1.21,85 L 1.19,84.95 Z M 1.19,84.95" />
            <path id="mel02Canvas-bezier39" stroke="none" fill="rgb(51, 91, 113)" d="M 16.45,78.75 C 15.4,80.85 14.59,83.07 13.95,85.33 13.31,87.59 12.88,89.91 12.73,92.24 12.58,94.58 12.7,96.94 13.24,99.21 13.5,100.34 13.86,101.46 14.33,102.52 14.8,103.57 15.35,104.64 15.8,105.73 16.71,107.9 17.53,110.18 17.62,112.61 17.65,113.82 17.39,115.08 16.79,116.15 16.5,116.69 16.14,117.17 15.82,117.65 15.5,118.14 15.21,118.58 15.3,119.08 15.36,119.59 15.62,120.1 15.91,120.6 16.2,121.09 16.53,121.57 16.86,122.06 17.52,123.03 18.19,124 18.79,125.02 19.39,126.04 19.94,127.09 20.41,128.17 20.87,129.26 21.26,130.38 21.58,131.51 L 21.52,131.53 C 20.76,129.3 19.71,127.2 18.45,125.23 17.81,124.25 17.14,123.3 16.45,122.35 16.11,121.87 15.76,121.39 15.45,120.88 15.14,120.36 14.83,119.82 14.73,119.15 14.68,118.82 14.73,118.44 14.87,118.14 15.01,117.83 15.17,117.58 15.34,117.33 15.67,116.83 16.01,116.37 16.28,115.87 16.84,114.89 17.07,113.76 17.05,112.62 17,110.33 16.24,108.07 15.38,105.91 14.94,104.82 14.42,103.78 13.94,102.69 13.48,101.59 13.13,100.45 12.87,99.29 12.36,96.97 12.26,94.58 12.44,92.22 12.64,89.86 13.11,87.54 13.78,85.28 14.46,83.02 15.31,80.81 16.4,78.73 L 16.45,78.75 Z M 16.45,78.75" />
            <path id="mel02Canvas-bezier40" stroke="none" fill="rgb(51, 91, 113)" d="M 18.37,127.27 C 17.61,129.2 17.56,131.46 18.44,133.33 18.86,134.27 19.56,135.05 20.18,135.9 L 22.06,138.42 C 23.3,140.12 24.54,141.83 25.53,143.7 26.01,144.65 26.47,145.61 26.74,146.66 26.87,147.18 26.97,147.72 26.9,148.28 26.87,148.55 26.78,148.83 26.62,149.06 26.46,149.29 26.23,149.46 25.99,149.56 L 25.96,149.51 C 26.18,149.37 26.37,149.19 26.48,148.97 26.59,148.75 26.64,148.5 26.64,148.26 26.65,147.76 26.52,147.26 26.36,146.77 26.02,145.81 25.55,144.88 25.03,143.98 23.99,142.18 22.87,140.41 21.69,138.69 L 19.88,136.12 C 19.29,135.26 18.6,134.45 18.18,133.44 17.34,131.46 17.48,129.17 18.32,127.24 L 18.37,127.27 Z M 18.37,127.27" />
            <path id="mel02Canvas-bezier41" stroke="none" fill="rgb(51, 91, 113)" d="M 17.3,158.72 C 17.25,160.62 17.11,162.52 16.73,164.39 16.64,164.85 16.52,165.32 16.36,165.77 16.28,165.99 16.18,166.22 16.06,166.43 15.94,166.65 15.72,166.8 15.65,166.99 15.49,167.41 15.63,167.89 15.81,168.31 16,168.74 16.26,169.13 16.55,169.5 17.73,170.96 19.3,172.06 20.93,172.98 22.58,173.89 24.32,174.61 26.11,175.2 29.68,176.38 33.4,177.06 37.15,177.44 39.02,177.63 40.9,177.76 42.77,177.79 44.65,177.8 46.52,177.62 48.36,177.29 52.05,176.61 55.61,175.32 59,173.71 62.4,172.1 65.65,170.18 68.83,168.15 72.03,166.15 75.15,164.01 78.38,162.04 80.01,161.07 81.66,160.12 83.44,159.44 84.34,159.12 85.27,158.86 86.22,158.81 87.17,158.76 88.17,158.98 88.93,159.56 L 88.9,159.61 C 88.12,159.06 87.16,158.89 86.23,158.97 85.3,159.05 84.4,159.34 83.54,159.69 81.8,160.39 80.17,161.36 78.58,162.36 75.39,164.37 72.31,166.57 69.14,168.64 65.95,170.68 62.68,172.61 59.24,174.22 55.8,175.82 52.19,177.1 48.44,177.74 46.57,178.07 44.67,178.23 42.77,178.21 40.87,178.16 38.99,178.02 37.11,177.82 33.35,177.4 29.61,176.69 26.02,175.48 24.22,174.86 22.47,174.12 20.82,173.18 19.18,172.24 17.6,171.11 16.41,169.61 16.12,169.23 15.85,168.82 15.66,168.38 15.48,167.94 15.33,167.43 15.52,166.94 16.18,166.21 16.41,165.29 16.62,164.36 17.02,162.51 17.17,160.61 17.24,158.72 L 17.3,158.72 Z M 17.3,158.72" />
            <path id="mel02Canvas-bezier42" stroke="none" fill="rgb(51, 91, 113)" d="M 19.06,137.32 C 18.68,138.22 18.32,139.14 17.98,140.05 17.81,140.51 17.7,140.98 17.48,141.42 17.27,141.86 17.05,142.29 16.74,142.71 L 16.69,142.69 C 16.69,142.17 16.8,141.69 16.95,141.21 17.09,140.73 17.34,140.31 17.56,139.86 18,138.98 18.48,138.12 19.01,137.29 L 19.06,137.32 Z M 19.06,137.32" />
            <path id="mel02Canvas-bezier43" stroke="none" fill="rgb(51, 91, 113)" d="M 90.71,158.7 C 88.68,156.84 86.88,154.73 85.24,152.5 84.42,151.39 83.62,150.25 82.96,149.03 82.31,147.8 81.7,146.55 81.28,145.23 L 81.33,145.2 C 82.06,146.38 82.72,147.58 83.45,148.74 84.17,149.9 84.86,151.09 85.62,152.23 86.38,153.37 87.19,154.48 88.05,155.55 88.9,156.63 89.79,157.68 90.75,158.66 L 90.71,158.7 Z M 90.71,158.7" />
            <path id="mel02Canvas-bezier44" stroke="none" fill="rgb(51, 91, 113)" d="M 83.99,149.52 C 84.46,147.92 84.78,146.26 84.85,144.6 84.92,142.94 84.71,141.21 83.57,139.94 82.68,138.49 82.07,136.92 81.47,135.35 80.88,133.77 80.35,132.18 79.84,130.58 78.84,127.37 77.89,124.16 77.17,120.86 76.84,119.19 76.75,117.47 76.91,115.79 76.97,114.95 77.1,114.11 77.15,113.29 77.17,112.88 77.17,112.46 77.06,112.07 76.96,111.68 76.72,111.33 76.4,111.07 L 76.44,111.02 C 76.79,111.26 77.07,111.61 77.22,112.02 77.36,112.43 77.4,112.87 77.41,113.29 77.41,114.15 77.33,114.98 77.31,115.81 77.24,117.47 77.36,119.13 77.73,120.75 78.52,123.98 79.35,127.24 80.28,130.44 80.76,132.05 81.26,133.65 81.82,135.22 82.39,136.79 82.97,138.37 83.82,139.79 84.02,140.13 84.31,140.45 84.49,140.85 84.69,141.24 84.81,141.66 84.9,142.07 85.06,142.91 85.08,143.77 85.03,144.61 84.91,146.29 84.56,147.94 84.05,149.54 L 83.99,149.52 Z M 83.99,149.52" />
            <path id="mel02Canvas-bezier45" stroke="none" fill="rgb(51, 91, 113)" d="M 79.77,116.59 C 80.72,114.12 81.15,111.41 80.9,108.78 80.78,107.47 80.46,106.17 79.94,104.97 79.37,103.76 78.89,102.5 78.46,101.23 77.6,98.7 76.85,96.13 76.25,93.52 75.66,90.91 75.12,88.29 74.75,85.64 L 74.81,85.63 76.8,93.38 C 77.48,95.96 78.1,98.55 78.9,101.09 79.3,102.36 79.74,103.6 80.28,104.82 80.8,106.07 81.09,107.41 81.19,108.76 81.36,111.45 80.85,114.15 79.82,116.62 L 79.77,116.59 Z M 79.77,116.59" />
            <path id="mel02Canvas-bezier46" stroke="none" fill="rgb(51, 91, 113)" d="M 76.24,80.99 C 77.09,81.52 78.01,81.94 78.96,82.22 79.44,82.36 79.93,82.45 80.42,82.48 80.92,82.51 81.39,82.45 81.83,82.24 82.71,81.82 83.46,81.13 84.08,80.37 84.7,79.61 85.2,78.74 85.46,77.8 85.58,77.34 85.63,76.86 85.57,76.4 85.54,76.17 85.48,75.95 85.39,75.74 85.3,75.53 85.17,75.36 85.03,75.12 84.5,74.2 84.18,73.22 83.91,72.23 83.42,70.25 83.21,68.21 83.04,66.21 L 83.1,66.19 C 83.6,68.17 83.88,70.16 84.47,72.08 84.74,73.03 85.06,73.98 85.52,74.83 85.63,75.03 85.79,75.27 85.89,75.53 85.99,75.79 86.05,76.07 86.08,76.34 86.13,76.89 86.05,77.43 85.9,77.93 85.59,78.94 85.03,79.84 84.36,80.62 83.69,81.39 82.9,82.08 81.94,82.5 81.7,82.6 81.45,82.68 81.18,82.71 80.92,82.74 80.66,82.73 80.41,82.71 79.89,82.66 79.4,82.55 78.91,82.39 77.95,82.07 77.04,81.6 76.21,81.04 L 76.24,80.99 Z M 76.24,80.99" />
            <path id="mel02Canvas-bezier47" stroke="none" fill="rgb(51, 91, 113)" d="M 80.64,83.46 C 81.32,84.19 81.96,84.96 82.42,85.87 82.53,86.11 82.63,86.35 82.68,86.62 82.72,86.88 82.72,87.19 82.56,87.46 82.39,87.74 82.1,87.88 81.83,87.95 81.56,88.01 81.4,88.06 81.22,88.19 80.89,88.43 80.72,88.86 80.63,89.31 80.54,89.76 80.51,90.24 80.51,90.72 80.49,91.69 80.57,92.67 80.65,93.67 L 80.59,93.68 C 80.21,92.75 79.99,91.75 79.93,90.73 79.91,90.22 79.94,89.7 80.07,89.18 80.21,88.67 80.47,88.13 80.97,87.8 81.19,87.64 81.52,87.57 81.74,87.54 81.95,87.5 82.14,87.41 82.24,87.26 82.46,86.94 82.33,86.42 82.16,85.99 81.79,85.09 81.21,84.27 80.6,83.5 L 80.64,83.46 Z M 80.64,83.46" />
            <path id="mel02Canvas-bezier48" stroke="none" fill="rgb(51, 91, 113)" d="M 0.05,118.23 C 2.79,121.78 5.43,125.4 7.95,129.12 9.21,130.98 10.47,132.84 11.56,134.82 12.09,135.81 12.61,136.81 13.05,137.85 13.47,138.89 13.94,139.97 13.9,141.13 L 13.84,141.13 C 13.8,140.57 13.61,140.04 13.4,139.53 13.19,139.02 12.95,138.52 12.69,138.02 12.18,137.03 11.63,136.06 11.06,135.11 9.91,133.19 8.77,131.26 7.57,129.38 6.36,127.49 5.12,125.63 3.85,123.78 2.59,121.93 1.31,120.09 0,118.27 L 0.05,118.23 Z M 0.05,118.23" />
            <path id="mel02Canvas-bezier49" stroke="none" fill="rgb(51, 91, 113)" d="M 14.03,171.53 C 13.31,176.54 12.78,181.58 12.35,186.63 11.92,191.67 11.6,196.73 11.43,201.78 11.34,204.31 11.29,206.84 11.27,209.37 11.24,211.9 11.25,214.43 11.3,216.96 11.34,222.02 11.55,227.08 11.87,232.13 L 11.82,232.14 C 11.17,227.11 10.87,222.04 10.72,216.97 10.67,214.44 10.67,211.9 10.7,209.37 10.76,206.83 10.84,204.3 10.97,201.76 11.2,196.7 11.57,191.64 12.06,186.6 12.57,181.56 13.17,176.52 13.97,171.52 L 14.03,171.53 Z M 14.03,171.53" />
            <path id="mel02Canvas-bezier50" stroke="none" fill="rgb(51, 91, 113)" d="M 12.51,233.65 C 13.26,236.13 13.87,238.67 14.14,241.26 14.2,241.91 14.23,242.57 14.21,243.22 14.18,243.87 14.11,244.54 13.87,245.17 13.75,245.48 13.58,245.78 13.33,246.03 L 13.15,246.19 C 13.13,246.2 13.12,246.23 13.12,246.21 13.12,246.17 13.1,246.16 13.13,246.17 13.22,246.21 13.4,246.22 13.55,246.22 14.18,246.22 14.82,246.14 15.46,246.07 20.57,245.39 25.65,244.47 30.76,243.71 33.31,243.31 35.87,242.94 38.43,242.59 40.99,242.27 43.56,241.97 46.14,241.74 48.71,241.54 51.3,241.38 53.89,241.36 56.47,241.35 59.08,241.45 61.61,241.97 L 61.6,242.03 C 60.33,241.83 59.04,241.76 57.76,241.73 56.47,241.7 55.18,241.72 53.89,241.77 51.32,241.86 48.75,242.06 46.19,242.32 43.62,242.55 41.06,242.84 38.5,243.16 35.94,243.47 33.38,243.81 30.83,244.16 25.71,244.87 20.63,245.73 15.49,246.35 14.85,246.42 14.21,246.49 13.54,246.48 13.37,246.47 13.22,246.48 13.01,246.4 12.97,246.38 12.87,246.32 12.88,246.19 12.89,246.09 12.94,246.05 12.98,246.01 L 13.16,245.85 C 13.38,245.64 13.54,245.37 13.66,245.08 14.1,243.89 14.05,242.56 13.97,241.28 13.74,238.7 13.17,236.15 12.46,233.66 L 12.51,233.65 Z M 12.51,233.65" />
            <path id="mel02Canvas-bezier51" stroke="none" fill="rgb(51, 91, 113)" d="M 63.85,241.97 C 65.28,241.82 66.7,241.61 68.11,241.35 69.52,241.11 70.92,240.81 72.29,240.43 73.67,240.05 75.01,239.56 76.3,239 76.95,238.73 77.57,238.4 78.16,238.02 78.74,237.63 79.27,237.16 79.65,236.55 L 79.71,236.57 C 79.46,237.27 78.96,237.86 78.4,238.34 77.83,238.82 77.19,239.19 76.54,239.53 75.23,240.18 73.81,240.55 72.41,240.88 69.59,241.53 66.72,241.88 63.85,242.03 L 63.85,241.97 Z M 63.85,241.97" />
            <path id="mel02Canvas-bezier52" stroke="none" fill="rgb(51, 91, 113)" d="M 78.86,235.45 C 79.32,229.34 80.02,223.25 80.92,217.19 81.37,214.16 81.89,211.14 82.48,208.13 83.06,205.12 83.85,202.16 84.35,199.15 84.87,196.14 85.26,193.1 85.54,190.06 85.83,187.02 86.03,183.97 86.12,180.91 86.24,177.86 86.24,174.8 86.13,171.75 86.08,170.22 85.99,168.69 85.83,167.17 85.69,165.66 85.5,164.13 85.1,162.66 L 85.15,162.64 C 86.05,165.58 86.32,168.67 86.53,171.73 86.73,174.79 86.75,177.86 86.69,180.93 86.6,184 86.4,187.06 86.1,190.12 85.79,193.17 85.36,196.21 84.8,199.23 84.26,202.26 83.45,205.21 82.85,208.21 82.23,211.2 81.68,214.22 81.2,217.24 80.23,223.28 79.45,229.36 78.91,235.46 L 78.86,235.45 Z M 78.86,235.45" />
            <path id="mel02Canvas-bezier53" stroke="none" fill="rgb(51, 91, 113)" d="M 42.49,243.39 C 42.17,246.68 41.7,249.95 41.02,253.19 40.68,254.81 40.32,256.44 39.73,258 39.42,258.78 39.1,259.55 38.68,260.28 38.26,260.99 37.77,261.71 37.06,262.18 L 37.03,262.14 C 37.61,261.55 37.99,260.83 38.32,260.09 38.65,259.35 38.94,258.59 39.19,257.81 39.69,256.26 40.17,254.68 40.57,253.09 40.96,251.49 41.3,249.88 41.61,248.26 41.92,246.64 42.2,245.02 42.43,243.38 L 42.49,243.39 Z M 42.49,243.39" />
            <path id="mel02Canvas-bezier54" stroke="none" fill="rgb(51, 91, 113)" d="M 35.87,261.32 C 36.21,264.19 36.15,267.11 35.71,269.99 35.49,271.42 35.19,272.86 34.65,274.22 34.11,275.58 33.42,276.89 32.47,277.99 L 32.43,277.96 C 33.09,276.68 33.67,275.38 34.11,274.02 34.56,272.68 34.98,271.31 35.26,269.91 35.53,268.5 35.71,267.08 35.8,265.64 35.89,264.21 35.91,262.76 35.82,261.33 L 35.87,261.32 Z M 35.87,261.32" />
            <path id="mel02Canvas-bezier55" stroke="none" fill="rgb(51, 91, 113)" d="M 33.15,280.68 C 32.94,286.55 32.74,292.42 32.61,298.29 32.64,299.77 32.39,301.26 32.09,302.69 31.79,304.13 31.44,305.56 31.06,306.98 30.31,309.82 29.48,312.64 28.68,315.46 27.88,318.28 27.07,321.11 26.4,323.96 26.07,325.38 25.75,326.81 25.59,328.24 25.5,328.96 25.52,329.67 25.55,330.4 25.57,331.13 25.62,331.86 25.68,332.59 25.89,335.51 26.25,338.42 26.57,341.34 26.73,342.8 26.89,344.26 27.01,345.73 27.07,346.46 27.13,347.19 27.16,347.93 27.18,348.66 27.22,349.4 27.1,350.14 L 27.05,350.13 C 27.12,349.4 27.06,348.67 27,347.94 26.93,347.21 26.85,346.48 26.75,345.76 26.58,344.3 26.37,342.85 26.17,341.39 25.77,338.48 25.38,335.57 25.1,332.63 25.05,331.9 25,331.16 24.97,330.42 24.94,329.69 24.93,328.93 25.02,328.18 25.19,326.7 25.51,325.25 25.85,323.82 26.56,320.96 27.4,318.15 28.23,315.33 29.07,312.52 29.92,309.71 30.7,306.88 31.09,305.47 31.46,304.05 31.77,302.62 32.08,301.18 32.33,299.76 32.32,298.29 32.53,292.41 32.81,286.55 33.09,280.68 L 33.15,280.68 Z M 33.15,280.68" />
            <path id="mel02Canvas-bezier56" stroke="none" fill="rgb(51, 91, 113)" d="M 16.21,248.35 C 16.15,251.35 16.12,254.34 16.12,257.34 16.13,258.83 16.18,260.33 16.17,261.82 16.16,263.32 16.15,264.81 16.21,266.3 L 16.15,266.31 C 15.76,264.85 15.69,263.33 15.6,261.83 15.53,260.33 15.61,258.83 15.66,257.33 15.76,254.33 15.93,251.34 16.15,248.35 L 16.21,248.35 Z M 16.21,248.35" />
            <path id="mel02Canvas-bezier57" stroke="none" fill="rgb(51, 91, 113)" d="M 16.05,268.87 C 16.01,272.27 15.69,275.68 14.83,278.99 14.4,280.65 13.7,282.21 13.13,283.8 12.54,285.4 12.02,287.01 11.6,288.65 9.87,295.22 9.82,302.14 10.77,308.84 11.24,312.19 12.03,315.5 12.7,318.84 13.37,322.17 14.05,325.51 14.67,328.85 15.26,332.21 15.83,335.57 16.18,338.96 16.51,342.34 16.72,345.82 15.9,349.15 L 15.84,349.13 C 16.2,347.47 16.26,345.76 16.21,344.07 16.16,342.38 16,340.69 15.79,339.01 15.36,335.64 14.76,332.3 14.11,328.96 13.48,325.62 12.81,322.29 12.14,318.95 11.51,315.61 10.75,312.29 10.32,308.9 9.41,302.15 9.53,295.18 11.32,288.58 11.77,286.93 12.31,285.31 12.92,283.72 13.51,282.12 14.22,280.58 14.67,278.94 15.56,275.67 15.92,272.26 16,268.87 L 16.05,268.87 Z M 16.05,268.87" />
            <path id="mel02Canvas-bezier58" stroke="none" fill="rgb(51, 91, 113)" d="M 50.57,242 C 50.57,244.79 50.68,247.59 50.85,250.38 51.02,253.17 51.27,255.96 51.63,258.73 52,261.49 52.5,264.24 53.12,266.95 53.73,269.66 54.51,272.35 55.77,274.85 L 55.72,274.88 C 54.17,272.52 53.27,269.8 52.56,267.09 51.86,264.36 51.48,261.57 51.17,258.78 50.57,253.21 50.37,247.59 50.51,242 L 50.57,242 Z M 50.57,242" />
            <path id="mel02Canvas-bezier59" stroke="none" fill="rgb(51, 91, 113)" d="M 56.2,277.97 C 56.47,280.78 56.65,283.6 56.7,286.43 56.71,287.84 56.7,289.25 56.58,290.67 56.52,291.37 56.43,292.08 56.27,292.77 56.16,293.45 56.16,294.15 56.18,294.85 56.28,297.66 56.67,300.46 57.04,303.25 L 58.25,311.63 C 58.67,314.42 59.07,317.21 59.39,320.02 59.54,321.43 59.67,322.84 59.71,324.26 59.74,324.97 59.71,325.7 59.68,326.4 L 59.61,328.51 C 59.49,331.33 59.4,334.15 59.2,336.97 59.09,338.38 58.96,339.79 58.76,341.19 58.55,342.59 58.31,344 57.76,345.31 L 57.71,345.29 C 58.19,343.96 58.35,342.55 58.5,341.16 58.65,339.76 58.73,338.35 58.8,336.95 58.92,334.13 58.98,331.31 59.04,328.49 L 59.11,326.38 C 59.14,325.66 59.17,324.98 59.14,324.28 59.1,322.88 58.97,321.48 58.82,320.08 58.54,317.28 58.17,314.49 57.8,311.69 L 56.67,303.3 C 56.32,300.5 55.96,297.7 55.89,294.86 55.88,294.15 55.89,293.44 56.02,292.72 56.18,292.04 56.28,291.35 56.35,290.65 56.48,289.25 56.52,287.84 56.52,286.43 56.52,283.61 56.37,280.79 56.14,277.98 L 56.2,277.97 Z M 56.2,277.97" />
            <path id="mel02Canvas-bezier60" stroke="none" fill="rgb(51, 91, 113)" d="M 76.57,240.01 C 75.89,243.29 75.16,246.56 74.36,249.81 73.96,251.44 73.59,253.07 73.08,254.67 72.54,256.26 72.03,257.87 71.19,259.34 L 71.14,259.32 C 71.66,257.73 72.09,256.12 72.52,254.51 72.96,252.9 73.46,251.3 73.92,249.69 74.81,246.47 75.67,243.24 76.51,240 L 76.57,240.01 Z M 76.57,240.01" />
            <path id="mel02Canvas-bezier61" stroke="none" fill="rgb(51, 91, 113)" d="M 73.88,258.05 C 73.87,261.21 73.82,264.37 73.72,267.53 73.68,269.11 73.67,270.7 73.54,272.27 73.38,273.85 73.24,275.43 72.89,276.98 L 72.83,276.98 C 72.86,275.39 72.91,273.82 72.96,272.24 73.02,270.66 73.16,269.09 73.27,267.51 L 73.82,258.05 73.88,258.05 Z M 73.88,258.05" />
            <path id="mel02Canvas-bezier62" stroke="none" fill="rgb(51, 91, 113)" d="M 73.88,276.97 C 75.07,282.84 76.01,288.76 76.5,294.74 76.61,296.23 76.69,297.73 76.7,299.23 76.7,300.75 76.54,302.24 76.36,303.73 75.97,306.71 75.42,309.65 74.85,312.59 L 73.12,321.4 C 72.52,324.33 71.94,327.26 71.42,330.21 70.88,333.15 70.4,336.1 70.04,339.06 69.86,340.54 69.72,342.03 69.64,343.52 69.55,345.01 69.53,346.5 69.64,348 L 69.58,348 C 69.22,345.02 69.37,342 69.64,339.02 69.92,336.03 70.37,333.06 70.86,330.11 71.38,327.16 71.96,324.22 72.56,321.28 L 74.4,312.5 C 75.54,306.64 76.89,300.75 76.21,294.76 75.8,288.79 74.94,282.86 73.82,276.99 L 73.88,276.97 Z M 73.88,276.97" />
            <path id="mel02Canvas-bezier63" stroke="none" fill="rgb(51, 91, 113)" d="M 25.58,355.99 C 25.45,355.41 25.35,354.82 25.17,354.26 24.99,353.7 24.62,353.24 24.11,352.98 23.1,352.46 21.89,352.33 20.73,352.19 19.59,352.07 18.4,352.24 17.62,352.97 17.23,353.34 16.95,353.83 16.71,354.36 16.47,354.89 16.33,355.49 15.98,356 L 15.93,355.97 C 16.03,355.7 16.08,355.41 16.13,355.11 16.19,354.82 16.26,354.52 16.34,354.23 16.49,353.64 16.77,353.04 17.22,352.56 17.68,352.08 18.31,351.79 18.94,351.7 19.57,351.6 20.19,351.64 20.79,351.73 21.38,351.82 21.97,351.93 22.56,352.08 23.14,352.23 23.72,352.41 24.26,352.73 24.8,353.05 25.19,353.62 25.33,354.21 25.49,354.8 25.54,355.39 25.64,355.98 L 25.58,355.99 Z M 25.58,355.99" />
            <path id="mel02Canvas-bezier64" stroke="none" fill="rgb(51, 91, 113)" d="M 15.96,357.81 L 25.63,359.06 C 25.68,359.07 25.73,359.13 25.72,359.19 25.71,359.23 25.68,359.27 25.63,359.28 L 15.99,361.57 15.95,361.21 25,361.15 C 25.13,361.15 25.24,361.26 25.24,361.39 25.24,361.5 25.16,361.59 25.06,361.62 L 25.06,361.62 20.55,362.88 16.03,364.11 15.99,363.55 C 17.47,363.75 18.96,363.94 20.44,364.17 L 24.87,364.83 24.88,364.83 C 25,364.85 25.08,364.96 25.07,365.08 25.05,365.18 24.97,365.26 24.88,365.27 L 20.88,365.91 16.86,366.52 16.85,366.46 20.82,365.63 24.8,364.83 24.81,365.27 20.36,364.71 C 18.88,364.54 17.4,364.31 15.91,364.12 15.76,364.09 15.65,363.95 15.67,363.79 15.68,363.67 15.77,363.58 15.88,363.55 L 20.4,362.34 24.93,361.16 25,361.63 15.95,361.57 C 15.85,361.57 15.77,361.49 15.77,361.39 15.77,361.3 15.83,361.23 15.91,361.21 L 25.58,359.06 25.59,359.28 15.95,357.87 15.96,357.81 Z M 15.96,357.81" />
            <path id="mel02Canvas-bezier65" stroke="none" fill="rgb(51, 91, 113)" d="M 25.6,368.99 C 24.8,368.82 23.99,368.69 23.17,368.6 22.36,368.49 21.55,368.42 20.74,368.4 19.92,368.39 19.12,368.45 18.32,368.51 17.52,368.58 16.74,368.7 15.97,368.99 L 15.94,368.94 C 16.57,368.36 17.42,368.08 18.25,367.94 19.09,367.8 19.93,367.86 20.76,367.94 22.42,368.1 24.04,368.45 25.62,368.94 L 25.6,368.99 Z M 25.6,368.99" />
            <path id="mel02Canvas-bezier66" stroke="none" fill="rgb(51, 91, 113)" d="M 28.4,370.35 C 28.67,371.21 28.84,372.11 28.87,373.03 28.9,373.93 28.8,374.88 28.34,375.71 27.88,376.55 26.99,377.11 26.08,377.28 25.16,377.42 24.29,377.5 23.39,377.61 21.6,377.81 19.8,378.04 17.98,377.97 17.08,377.92 16.16,377.84 15.27,377.57 14.83,377.43 14.39,377.24 14.01,376.95 13.64,376.66 13.35,376.23 13.3,375.77 L 13.35,375.76 C 13.49,376.18 13.79,376.52 14.16,376.73 14.52,376.96 14.94,377.09 15.37,377.18 16.22,377.35 17.11,377.4 17.99,377.39 19.77,377.38 21.55,377.29 23.34,377.15 24.23,377.07 25.15,377.01 26.01,376.91 26.86,376.77 27.65,376.32 28.09,375.57 28.55,374.83 28.69,373.92 28.7,373.03 28.7,372.13 28.58,371.23 28.35,370.37 L 28.4,370.35 Z M 28.4,370.35" />
            <path id="mel02Canvas-bezier67" stroke="none" fill="rgb(51, 91, 113)" d="M 13.3,372.21 C 13.53,370.68 13.66,369.12 13.45,367.61 13.4,367.24 13.31,366.88 13.16,366.53 13.01,366.18 12.88,365.8 12.77,365.43 12.54,364.67 12.38,363.91 12.27,363.13 12.06,361.58 12.01,359.99 12.23,358.44 12.46,356.89 12.84,355.36 13.47,353.93 L 13.52,353.95 C 13.22,355.47 12.92,356.98 12.8,358.5 12.66,360.02 12.58,361.55 12.73,363.07 12.81,363.83 12.93,364.59 13.13,365.32 13.22,365.69 13.33,366.05 13.47,366.41 13.62,366.79 13.7,367.18 13.74,367.58 13.88,369.15 13.66,370.7 13.35,372.22 L 13.3,372.21 Z M 13.3,372.21" />
            <path id="mel02Canvas-bezier68" stroke="none" fill="rgb(51, 91, 113)" d="M 28.76,367.57 C 28.89,366.67 28.98,365.77 29.04,364.86 29.11,363.96 29.15,363.06 29.14,362.15 29.13,361.25 29.05,360.36 29,359.46 28.96,358.57 28.87,357.68 28.76,356.77 L 28.82,356.75 C 29.23,357.58 29.45,358.49 29.58,359.41 29.7,360.32 29.66,361.25 29.6,362.16 29.5,364 29.24,365.81 28.82,367.58 L 28.76,367.57 Z M 28.76,367.57" />
            <path id="mel02Canvas-bezier69" stroke="none" fill="rgb(51, 91, 113)" d="M 58.57,355.96 C 58.53,355.67 58.64,355.37 58.82,355.14 59.01,354.91 59.25,354.74 59.5,354.59 60,354.31 60.54,354.13 61.09,353.98 62.2,353.71 63.33,353.57 64.46,353.51 65.03,353.48 65.6,353.46 66.17,353.48 66.74,353.5 67.31,353.52 67.91,353.71 68.2,353.82 68.49,353.98 68.72,354.21 68.95,354.45 69.12,354.74 69.18,355.05 69.32,355.67 69.19,356.27 68.93,356.79 L 68.88,356.77 C 68.98,356.22 68.98,355.64 68.8,355.17 68.61,354.7 68.21,354.4 67.73,354.26 67.61,354.23 67.5,354.2 67.36,354.18 67.24,354.16 67.09,354.14 66.96,354.13 66.69,354.1 66.42,354.07 66.14,354.05 65.59,354 65.03,353.98 64.48,353.97 63.36,353.98 62.25,354.05 61.16,354.26 60.61,354.37 60.07,354.51 59.57,354.75 59.1,354.98 58.6,355.37 58.62,355.96 L 58.57,355.96 Z M 58.57,355.96" />
            <path id="mel02Canvas-bezier70" stroke="none" fill="rgb(51, 91, 113)" d="M 58.62,358.02 C 59.33,358.15 60.14,358.19 60.89,358.26 L 63.2,358.42 67.82,358.72 C 67.88,358.72 67.92,358.77 67.92,358.83 67.92,358.88 67.88,358.92 67.84,358.93 L 59.43,361.03 59.41,360.7 69.1,361.58 C 69.23,361.59 69.32,361.7 69.31,361.83 69.3,361.95 69.2,362.04 69.09,362.04 L 69.08,362.04 C 67.47,362.09 65.85,362.15 64.24,362.23 62.63,362.33 61,362.4 59.43,362.64 59.24,362.68 59.05,362.72 58.89,362.77 58.85,362.78 58.81,362.8 58.79,362.81 58.78,362.82 58.78,362.82 58.78,362.82 L 58.77,362.82 58.77,362.82 58.77,362.82 C 58.77,362.83 58.83,362.77 58.8,362.8 L 58.77,362.82 C 58.79,362.81 58.82,362.76 58.83,362.73 58.85,362.59 58.79,362.58 58.81,362.59 58.82,362.61 58.85,362.63 58.88,362.65 59.17,362.83 59.56,362.97 59.93,363.1 60.68,363.37 61.46,363.58 62.23,363.81 63.79,364.25 65.36,364.65 66.93,365.03 L 66.93,365.03 C 67.05,365.06 67.13,365.18 67.1,365.3 67.07,365.41 66.98,365.48 66.88,365.48 L 62.74,365.4 58.59,365.28 58.59,365.22 62.74,365.1 66.88,365.02 66.83,365.47 C 65.24,365.13 63.66,364.76 62.09,364.35 61.3,364.15 60.52,363.92 59.74,363.65 59.35,363.5 58.97,363.38 58.57,363.13 58.51,363.09 58.46,363.06 58.4,362.99 58.36,362.94 58.23,362.83 58.27,362.59 58.28,362.53 58.33,362.46 58.36,362.43 L 58.38,362.4 58.42,362.37 58.42,362.36 58.44,362.35 58.47,362.33 C 58.49,362.32 58.5,362.31 58.52,362.3 58.59,362.27 58.65,362.24 58.7,362.23 58.93,362.15 59.13,362.11 59.34,362.08 60.98,361.82 62.59,361.76 64.21,361.69 65.83,361.63 67.45,361.6 69.08,361.58 L 69.06,362.04 59.38,361.04 C 59.28,361.03 59.21,360.95 59.22,360.85 59.23,360.78 59.28,360.72 59.35,360.7 L 67.79,358.72 67.81,358.93 63.19,358.56 60.88,358.35 59.73,358.24 59.16,358.17 C 58.96,358.13 58.79,358.15 58.57,358.05 L 58.62,358.02 Z M 58.62,358.02" />
            <path id="mel02Canvas-bezier71" stroke="none" fill="rgb(51, 91, 113)" d="M 66.87,367.97 C 65.38,367.67 63.86,367.49 62.34,367.46 60.83,367.44 59.28,367.55 57.89,368.1 57.21,368.38 56.56,368.79 56.13,369.37 55.91,369.66 55.75,369.99 55.61,370.34 55.46,370.69 55.34,371.04 55.26,371.4 55.09,372.12 55.08,372.87 55.33,373.54 55.57,374.2 56.09,374.78 56.68,375.09 L 56.59,375.07 C 57.71,375.16 58.83,375.24 59.95,375.3 61.08,375.37 62.2,375.41 63.32,375.45 64.44,375.48 65.56,375.46 66.68,375.4 67.24,375.36 67.79,375.29 68.33,375.19 68.87,375.07 69.44,374.93 69.82,374.53 L 69.87,374.56 C 69.51,375.04 68.93,375.24 68.39,375.42 67.84,375.58 67.28,375.68 66.71,375.76 65.59,375.92 64.45,375.96 63.32,375.98 61.05,376.01 58.79,375.86 56.54,375.6 L 56.52,375.59 C 56.5,375.59 56.47,375.58 56.45,375.57 55.7,375.15 55.17,374.48 54.89,373.7 54.62,372.92 54.66,372.07 54.86,371.3 54.95,370.92 55.09,370.55 55.25,370.19 55.41,369.83 55.59,369.47 55.84,369.15 56.35,368.51 57.05,368.09 57.78,367.81 59.25,367.26 60.82,367.21 62.35,367.27 63.88,367.34 65.4,367.57 66.89,367.91 L 66.87,367.97 Z M 66.87,367.97" />
            <path id="mel02Canvas-bezier72" stroke="none" fill="rgb(51, 91, 113)" d="M 70.46,372.64 C 71.25,371.38 71.84,369.97 72.16,368.52 72.48,367.07 72.47,365.56 71.9,364.19 71.64,363.45 71.5,362.68 71.5,361.89 71.49,361.11 71.64,360.33 71.84,359.6 72.05,358.86 72.29,358.16 72.47,357.44 72.65,356.73 72.72,356 72.53,355.27 L 72.58,355.25 C 72.94,355.93 72.98,356.76 72.87,357.52 72.76,358.29 72.54,359.01 72.39,359.74 72.22,360.46 72.1,361.18 72.07,361.9 72.04,362.62 72.13,363.35 72.34,364.04 72.88,365.5 72.83,367.13 72.44,368.59 72.04,370.06 71.37,371.44 70.51,372.68 L 70.46,372.64 Z M 70.46,372.64" />
            <path id="mel02Canvas-bezier73" stroke="none" fill="rgb(51, 91, 113)" d="M 70.49,354.15 C 70.64,353.79 70.73,353.41 70.76,353.04 70.8,352.66 70.78,352.29 70.68,351.95 70.57,351.6 70.35,351.33 70.17,351.05 69.97,350.76 69.72,350.49 69.46,350.16 L 69.49,350.11 C 69.91,350.16 70.29,350.37 70.6,350.67 70.92,350.98 71.06,351.43 71.13,351.85 71.25,352.71 70.98,353.52 70.54,354.18 L 70.49,354.15 Z M 70.49,354.15" />
            <path id="mel02Canvas-bezier74" stroke="none" fill="rgb(51, 91, 113)" d="M 55.6,367.36 C 55.36,366.06 55.24,364.74 55.21,363.42 55.18,362.1 55.28,360.76 55.46,359.46 55.58,358.18 55.37,356.91 55.14,355.62 55.04,354.98 54.91,354.32 54.92,353.63 54.93,352.94 55.15,352.23 55.6,351.73 L 55.65,351.77 C 55.01,352.96 55.41,354.24 55.7,355.51 56.01,356.8 56.11,358.18 55.91,359.52 55.68,360.82 55.53,362.1 55.49,363.42 55.45,364.73 55.49,366.04 55.66,367.35 L 55.6,367.36 Z M 55.6,367.36" />
            <path id="mel02Canvas-bezier75" stroke="none" fill="rgb(51, 91, 113)" d="M 57.71,352.93 C 57.26,352.05 56.91,351.12 56.73,350.13 56.65,349.64 56.56,349.11 56.71,348.59 56.84,348.08 57.2,347.56 57.72,347.41 L 57.75,347.45 C 57.45,347.86 57.33,348.27 57.27,348.71 57.23,349.14 57.16,349.6 57.19,350.08 57.22,350.55 57.29,351.02 57.39,351.5 57.49,351.97 57.61,352.44 57.76,352.9 L 57.71,352.93 Z M 57.71,352.93" />
            <path id="mel02Canvas-bezier76" stroke="none" fill="rgb(51, 91, 113)" d="M 25.83,347.99 C 26.3,348.95 26.68,349.96 26.91,351.02 27.03,351.55 27.16,352.1 27.09,352.66 27.02,353.21 26.83,353.81 26.39,354.18 L 26.34,354.15 C 26.5,353.63 26.52,353.14 26.51,352.63 26.5,352.13 26.52,351.62 26.46,351.1 26.4,350.58 26.31,350.06 26.19,349.55 26.08,349.03 25.94,348.52 25.78,348.01 L 25.83,347.99 Z M 25.83,347.99" />
            <path id="mel02Canvas-bezier77" stroke="none" fill="rgb(51, 91, 113)" d="M 48.09,26.81 C 48.76,25.86 49.63,25 50.77,24.54 51.34,24.32 52,24.19 52.62,24.39 53.23,24.58 53.74,24.98 54.07,25.48 L 54.03,25.52 C 53.5,25.26 53,25.04 52.48,24.95 51.98,24.87 51.45,24.83 50.92,24.98 50.39,25.13 49.89,25.39 49.43,25.72 48.96,26.04 48.52,26.42 48.14,26.85 L 48.09,26.81 Z M 48.09,26.81" />
            <path id="mel02Canvas-bezier78" stroke="none" fill="rgb(51, 91, 113)" d="M 49.16,26.99 C 49.9,26.97 50.64,26.88 51.34,26.7 51.69,26.62 52.01,26.45 52.34,26.36 52.68,26.27 53,26.15 53.37,26.02 L 53.41,26.06 C 53.25,26.44 52.91,26.71 52.56,26.9 52.2,27.09 51.8,27.12 51.42,27.16 50.65,27.24 49.89,27.2 49.15,27.05 L 49.16,26.99 Z M 49.16,26.99" />
            <path id="mel02Canvas-bezier79" stroke="none" fill="rgb(51, 91, 113)" d="M 41.1,27.67 C 40.65,27.36 40.17,27.11 39.68,26.91 39.19,26.7 38.68,26.55 38.17,26.49 37.66,26.42 37.16,26.5 36.67,26.58 36.18,26.66 35.71,26.85 35.2,27.08 L 35.16,27.03 C 35.47,26.55 35.97,26.2 36.53,26.02 37.1,25.83 37.7,25.91 38.25,26.03 39.36,26.29 40.33,26.89 41.13,27.63 L 41.1,27.67 Z M 41.1,27.67" />
            <path id="mel02Canvas-bezier80" stroke="none" fill="rgb(51, 91, 113)" d="M 35.59,27.63 C 35.98,27.81 36.4,27.91 36.82,27.95 37.23,28.01 37.65,28 38.06,27.93 38.48,27.86 38.92,27.75 39.36,27.77 39.8,27.79 40.24,27.83 40.67,28 L 40.67,28.06 C 40.24,28.21 39.82,28.29 39.39,28.35 38.96,28.41 38.54,28.37 38.1,28.39 37.2,28.42 36.28,28.19 35.56,27.68 L 35.59,27.63 Z M 35.59,27.63" />
            <path id="mel02Canvas-bezier81" stroke="none" fill="rgb(51, 91, 113)" d="M 38.59,26.4 C 38.86,26.74 38.9,27.26 38.69,27.66 38.48,28.06 38.01,28.32 37.55,28.29 37.08,28.27 36.62,27.96 36.47,27.49 36.32,27.03 36.48,26.49 36.86,26.25 L 36.88,26.27 C 36.64,26.62 36.59,27.04 36.74,27.39 36.88,27.73 37.19,28.01 37.56,28.06 37.95,28.12 38.35,27.92 38.56,27.58 38.78,27.25 38.8,26.78 38.57,26.42 L 38.59,26.4 Z M 38.59,26.4" />
            <path id="mel02Canvas-bezier82" stroke="none" fill="rgb(51, 91, 113)" d="M 52.22,25.93 C 52.22,26.52 51.74,27.12 51.08,27.13 50.45,27.16 49.85,26.59 49.85,25.93 49.84,25.6 49.96,25.27 50.19,25.03 50.42,24.78 50.75,24.64 51.09,24.65 51.42,24.66 51.73,24.83 51.93,25.07 52.13,25.32 52.23,25.63 52.22,25.93 Z M 52.19,25.93 C 52.19,25.63 52.04,25.35 51.82,25.18 51.61,25.01 51.34,24.93 51.08,24.94 50.57,24.95 50.09,25.38 50.08,25.93 50.05,26.47 50.52,26.98 51.09,26.98 51.36,26.99 51.64,26.89 51.86,26.7 52.07,26.51 52.19,26.22 52.19,25.93 Z M 52.19,25.93" />
            <path id="mel02Canvas-bezier83" stroke="none" fill="rgb(51, 91, 113)" d="M 26.75,36.64 C 26.32,37.15 26.39,37.87 26.58,38.46 26.77,39.08 27.07,39.66 27.37,40.23 27.67,40.8 28,41.37 28.27,41.97 28.4,42.27 28.53,42.58 28.6,42.91 28.66,43.24 28.67,43.64 28.44,43.96 28.21,44.27 27.85,44.4 27.52,44.48 27.19,44.55 26.83,44.56 26.54,44.58 26.24,44.6 25.94,44.68 25.75,44.87 25.56,45.04 25.51,45.33 25.53,45.62 25.59,46.22 25.85,46.82 26.11,47.4 26.38,47.99 26.68,48.56 26.98,49.15 27.26,49.73 27.56,50.32 27.76,50.98 27.84,51.31 27.93,51.67 27.82,52.09 27.76,52.3 27.61,52.51 27.42,52.62 27.24,52.75 27.04,52.8 26.86,52.83 26.13,52.94 25.45,52.72 24.86,52.65 24.56,52.61 24.23,52.59 24.03,52.65 23.94,52.71 23.98,52.66 23.96,52.73 23.96,52.8 24.01,52.94 24.08,53.06 24.68,54.12 25.65,55.07 26.33,56.2 26.51,56.49 26.66,56.79 26.77,57.12 26.87,57.45 26.9,57.88 26.63,58.19 26.38,58.48 26.02,58.57 25.7,58.63 25.38,58.69 25.05,58.69 24.72,58.68 L 24.72,58.62 C 25.04,58.59 25.36,58.55 25.67,58.47 25.97,58.38 26.27,58.25 26.43,58.03 26.59,57.81 26.56,57.51 26.45,57.23 26.34,56.95 26.18,56.68 26,56.42 25.63,55.91 25.22,55.41 24.8,54.92 24.38,54.42 23.94,53.95 23.58,53.34 23.49,53.18 23.4,53.01 23.38,52.76 23.37,52.64 23.4,52.47 23.5,52.34 23.6,52.21 23.73,52.14 23.83,52.1 24.26,51.97 24.59,52.03 24.93,52.06 25.27,52.1 25.6,52.18 25.89,52.23 26.19,52.27 26.5,52.3 26.77,52.26 27.05,52.23 27.24,52.13 27.3,51.93 27.37,51.72 27.33,51.41 27.26,51.12 27.1,50.52 26.83,49.93 26.56,49.35 26.29,48.76 26,48.18 25.73,47.58 25.48,46.97 25.21,46.36 25.16,45.65 25.14,45.31 25.21,44.88 25.51,44.61 25.8,44.34 26.17,44.27 26.51,44.24 26.86,44.23 27.15,44.23 27.46,44.17 27.75,44.11 28.04,44 28.21,43.79 28.38,43.58 28.39,43.26 28.34,42.96 28.29,42.66 28.18,42.36 28.06,42.06 27.81,41.47 27.51,40.89 27.22,40.31 26.93,39.72 26.65,39.13 26.47,38.5 26.38,38.18 26.32,37.85 26.35,37.52 26.36,37.19 26.49,36.85 26.71,36.61 L 26.75,36.64 Z M 26.75,36.64" />
            <path id="mel02Canvas-bezier84" stroke="none" fill="rgb(51, 91, 113)" d="M 30.34,39.82 C 30.7,41.63 31.02,43.44 31.12,45.3 31.14,45.76 31.14,46.23 31.08,46.7 31.04,46.94 31,47.18 30.88,47.42 30.82,47.54 30.73,47.67 30.58,47.75 30.44,47.84 30.2,47.82 30.24,47.84 30.23,47.85 30.26,47.81 30.26,47.81 30.26,47.82 30.26,47.86 30.28,47.9 30.31,47.99 30.36,48.08 30.41,48.17 30.52,48.36 30.66,48.54 30.79,48.72 L 31.65,49.8 C 31.93,50.16 32.22,50.52 32.48,50.92 32.61,51.12 32.73,51.33 32.83,51.57 32.88,51.69 32.92,51.83 32.94,51.99 32.96,52.14 32.92,52.37 32.76,52.52 32.44,52.8 32.14,52.76 31.89,52.77 31.62,52.75 31.44,52.72 31.27,52.75 31.19,52.75 31.16,52.79 31.2,52.74 31.21,52.69 31.19,52.76 31.23,52.83 31.29,53 31.41,53.19 31.54,53.37 32.02,54.12 32.66,54.82 33.02,55.74 33.1,55.97 33.17,56.22 33.14,56.5 33.12,56.77 32.95,57.04 32.74,57.18 32.3,57.46 31.82,57.49 31.37,57.51 L 31.36,57.45 C 31.8,57.36 32.27,57.25 32.58,56.97 32.9,56.7 32.84,56.27 32.65,55.89 32.26,55.12 31.63,54.45 31.06,53.7 30.93,53.5 30.79,53.31 30.68,53.05 30.64,52.91 30.55,52.73 30.67,52.47 30.82,52.21 31.05,52.18 31.18,52.15 31.47,52.11 31.74,52.17 31.92,52.18 32.12,52.2 32.33,52.16 32.36,52.12 32.39,52.13 32.4,51.96 32.33,51.77 32.26,51.58 32.16,51.38 32.04,51.2 31.82,50.82 31.55,50.45 31.28,50.08 L 30.46,48.97 C 30.32,48.78 30.19,48.58 30.07,48.37 30.01,48.26 29.95,48.16 29.91,48.02 29.89,47.95 29.87,47.88 29.88,47.77 29.88,47.66 29.99,47.52 30.09,47.49 30.34,47.42 30.35,47.47 30.41,47.43 30.47,47.4 30.52,47.34 30.57,47.26 30.66,47.09 30.71,46.87 30.75,46.65 30.82,46.22 30.83,45.76 30.83,45.31 30.81,43.48 30.57,41.64 30.28,39.83 L 30.34,39.82 Z M 30.34,39.82" />
            <path id="mel02Canvas-bezier85" stroke="none" fill="rgb(51, 91, 113)" d="M 24.74,34.66 C 24.18,35.19 23.66,35.78 23.21,36.42 22.76,37.05 22.36,37.74 22.24,38.5 22.18,38.87 22.22,39.26 22.39,39.59 22.56,39.92 22.84,40.17 23.17,40.36 23.34,40.45 23.53,40.58 23.66,40.76 23.79,40.95 23.84,41.2 23.8,41.41 23.73,41.86 23.48,42.19 23.23,42.51 22.22,43.74 20.91,44.67 20.07,45.93 19.87,46.25 19.72,46.59 19.76,46.91 19.78,47.23 20.02,47.5 20.32,47.7 20.62,47.89 20.97,48.03 21.33,48.15 21.68,48.26 22.09,48.36 22.46,48.54 22.65,48.62 22.84,48.72 23.02,48.87 23.19,49.02 23.37,49.26 23.36,49.57 23.35,49.86 23.2,50.08 23.06,50.24 22.91,50.41 22.75,50.55 22.59,50.68 21.93,51.17 21.23,51.53 20.52,51.89 L 18.42,52.91 C 18.08,53.08 17.73,53.26 17.46,53.47 17.39,53.52 17.33,53.57 17.31,53.61 17.29,53.63 17.29,53.64 17.29,53.63 17.3,53.61 17.29,53.56 17.28,53.55 17.26,53.53 17.31,53.58 17.38,53.61 17.45,53.63 17.53,53.66 17.62,53.68 18.3,53.85 19.17,53.8 19.95,54.28 20.14,54.4 20.34,54.62 20.39,54.89 20.44,55.16 20.37,55.41 20.29,55.61 20.1,56.01 19.84,56.32 19.59,56.62 19.07,57.22 18.51,57.77 18.05,58.38 17.82,58.69 17.61,59.02 17.57,59.38 17.51,59.75 17.75,60.1 18.08,60.3 L 18.05,60.35 C 17.7,60.18 17.38,59.82 17.41,59.37 17.42,58.95 17.63,58.57 17.83,58.23 18.27,57.56 18.81,56.98 19.28,56.37 19.51,56.06 19.73,55.75 19.86,55.43 20,55.09 19.95,54.86 19.68,54.7 19.41,54.53 19.03,54.45 18.67,54.39 18.3,54.34 17.9,54.33 17.48,54.24 17.38,54.22 17.27,54.19 17.16,54.14 17.05,54.09 16.92,54.05 16.79,53.87 16.72,53.77 16.69,53.62 16.72,53.51 16.74,53.4 16.79,53.32 16.83,53.26 16.92,53.14 17.01,53.07 17.1,53 17.45,52.73 17.8,52.55 18.15,52.37 18.86,52.01 19.58,51.7 20.28,51.37 20.97,51.04 21.68,50.7 22.28,50.26 22.57,50.06 22.86,49.77 22.87,49.55 22.91,49.35 22.59,49.1 22.26,48.95 21.93,48.79 21.58,48.7 21.19,48.57 20.81,48.44 20.43,48.28 20.08,48.04 19.74,47.81 19.4,47.43 19.36,46.95 19.33,46.47 19.54,46.07 19.75,45.73 20.69,44.39 22.01,43.5 23.01,42.32 23.25,42.03 23.48,41.71 23.55,41.37 23.62,41.03 23.39,40.74 23.05,40.56 22.71,40.35 22.39,40.06 22.21,39.68 22.02,39.3 22,38.87 22.07,38.47 22.22,37.67 22.65,36.98 23.11,36.35 23.59,35.72 24.12,35.14 24.7,34.61 L 24.74,34.66 Z M 24.74,34.66" />
            <path id="mel02Canvas-bezier86" stroke="none" fill="rgb(51, 91, 113)" d="M 15.48,151.98 C 16.2,153.17 16.98,154.32 17.84,155.39 18.27,155.92 18.73,156.42 19.24,156.85 19.75,157.25 20.31,157.66 20.84,157.63 L 20.67,157.76 21.14,156.98 21.36,156.58 C 21.43,156.45 21.51,156.31 21.52,156.18 L 21.57,156.16 C 21.63,156.34 21.58,156.5 21.56,156.65 21.53,156.81 21.49,156.96 21.44,157.11 21.34,157.41 21.24,157.71 21.11,157.99 L 21.06,158.09 20.93,158.12 C 20.51,158.22 20.09,158.1 19.76,157.93 19.41,157.75 19.13,157.51 18.87,157.27 18.36,156.76 17.93,156.2 17.52,155.63 16.71,154.49 16.04,153.26 15.43,152.01 L 15.48,151.98 Z M 15.48,151.98" />
            <path id="mel02Canvas-bezier87" stroke="none" fill="rgb(51, 91, 113)" d="M 14.69,148.66 C 15.51,149.4 16.34,150.12 17.18,150.84 18.02,151.55 18.86,152.26 19.73,152.94 20.16,153.27 20.61,153.6 21.05,153.91 21.5,154.21 21.95,154.53 22.4,154.73 22.5,154.78 22.62,154.81 22.65,154.81 22.67,154.8 22.62,154.83 22.62,154.85 22.63,154.83 22.67,154.73 22.7,154.68 22.82,154.42 22.94,154.17 23.08,153.93 L 23.49,153.21 C 23.61,152.98 23.79,152.71 23.69,152.49 L 23.73,152.45 C 23.86,152.56 23.85,152.75 23.83,152.89 23.81,153.04 23.77,153.17 23.73,153.31 23.64,153.58 23.54,153.84 23.45,154.1 L 23.17,154.87 C 23.14,154.94 23.14,154.98 23.09,155.09 23.04,155.23 22.86,155.34 22.73,155.35 22.49,155.38 22.34,155.32 22.19,155.27 21.62,155.04 21.17,154.71 20.72,154.37 20.28,154.02 19.86,153.66 19.44,153.3 17.76,151.84 16.19,150.29 14.65,148.7 L 14.69,148.66 Z M 14.69,148.66" />
            <path id="mel02Canvas-bezier88" stroke="none" fill="rgb(51, 91, 113)" d="M 14.69,145.53 C 15.81,146.66 16.97,147.75 18.18,148.77 18.78,149.28 19.4,149.77 20.06,150.19 20.39,150.4 20.73,150.59 21.07,150.7 21.25,150.75 21.4,150.78 21.54,150.73 21.73,150.68 21.92,150.63 22.1,150.57 22.45,150.46 22.87,150.28 22.87,150.11 22.89,150.02 22.84,149.85 22.77,149.68 22.75,149.58 22.61,149.47 22.47,149.35 21.88,148.89 21.19,148.47 20.53,148.04 19.88,147.59 19.21,147.16 18.57,146.66 18.26,146.41 17.95,146.16 17.65,145.88 17.51,145.73 17.37,145.58 17.25,145.41 17.13,145.25 17.01,145.06 17,144.85 L 17.06,144.84 C 17.18,145.2 17.52,145.44 17.83,145.67 18.14,145.91 18.47,146.12 18.8,146.33 19.47,146.74 20.15,147.15 20.84,147.55 21.51,147.97 22.2,148.37 22.84,148.91 22.99,149.05 23.18,149.2 23.28,149.49 23.35,149.69 23.43,149.92 23.37,150.22 23.29,150.55 23.02,150.72 22.83,150.8 22.63,150.9 22.43,150.96 22.23,151.01 22.04,151.07 21.84,151.11 21.65,151.16 21.4,151.23 21.14,151.17 20.94,151.1 20.53,150.95 20.19,150.73 19.85,150.51 19.19,150.05 18.58,149.52 17.99,148.99 16.82,147.9 15.71,146.76 14.65,145.57 L 14.69,145.53 Z M 14.69,145.53" />
            <path id="mel02Canvas-bezier89" stroke="none" fill="rgb(51, 91, 113)" d="M 18.49,158.28 C 17.58,157.86 16.69,157.4 15.83,156.85 15.4,156.58 14.95,156.33 14.59,155.95 14.41,155.76 14.23,155.56 14.1,155.33 13.96,155.11 13.84,154.84 13.84,154.56 L 13.9,154.55 C 14.2,154.95 14.59,155.22 14.97,155.52 15.36,155.81 15.7,156.17 16.09,156.48 16.87,157.09 17.69,157.67 18.52,158.23 L 18.49,158.28 Z M 18.49,158.28" />
            <path id="mel02Canvas-bezier90" stroke="none" fill="rgb(51, 91, 113)" d="M 12.49,153.44 C 11.9,152.6 11.78,151.54 11.76,150.54 11.77,149.52 11.95,148.54 12.07,147.55 L 12.47,144.62 C 12.5,144.37 12.52,144.15 12.54,143.89 12.58,143.56 12.73,143.29 12.93,143.09 13.33,142.7 13.83,142.52 14.33,142.44 L 14.35,142.5 C 13.91,142.72 13.49,143 13.23,143.36 13.11,143.53 13.04,143.73 13.04,143.91 13.05,144.14 13.05,144.42 13.04,144.67 12.97,145.69 12.71,146.65 12.53,147.63 12.35,148.61 12.11,149.58 12.05,150.55 11.99,151.52 12.03,152.56 12.53,153.4 L 12.49,153.44 Z M 12.49,153.44" />
            <path id="mel02Canvas-bezier91" stroke="none" fill="rgb(51, 91, 113)" d="M 14.06,114.36 C 13.99,112.74 13.98,111.12 14.04,109.5 14.06,108.68 14.06,107.87 14.18,107.06 14.31,106.26 14.48,105.45 14.8,104.69 L 14.86,104.7 C 14.85,105.52 14.81,106.32 14.76,107.12 14.71,107.92 14.58,108.72 14.49,109.52 14.34,111.13 14.22,112.75 14.11,114.36 L 14.06,114.36 Z M 14.06,114.36" />
            <path id="mel02Canvas-bezier92" stroke="none" fill="rgb(51, 91, 113)" d="M 13.89,115.01 C 14.23,115.27 14.54,115.58 14.81,115.94 14.94,116.11 15.11,116.29 15.16,116.52 15.21,116.74 15.21,117 15.08,117.24 L 15.02,117.24 C 14.84,117.05 14.73,116.9 14.62,116.73 14.51,116.57 14.49,116.36 14.41,116.17 14.25,115.8 14.06,115.42 13.85,115.05 L 13.89,115.01 Z M 13.89,115.01" />
            <path id="mel02Canvas-bezier93" stroke="none" fill="rgb(51, 91, 113)" d="M 31.55,60.33 C 30.7,63.49 30.05,66.7 29.72,69.95 29.56,71.57 29.47,73.2 29.57,74.82 29.69,76.42 29.95,78.07 30.76,79.42 31.16,80.09 31.73,80.65 32.42,80.97 33.12,81.3 33.88,81.35 34.69,81.35 36.29,81.35 37.88,81.1 39.4,80.61 42.44,79.65 45.17,77.71 47.25,75.21 L 47.29,75.24 C 45.46,77.96 42.7,80.06 39.57,81.16 38,81.7 36.34,81.96 34.68,81.92 33.88,81.91 32.97,81.84 32.2,81.44 31.41,81.05 30.79,80.4 30.36,79.66 29.52,78.17 29.29,76.48 29.2,74.84 29.13,73.19 29.24,71.54 29.43,69.92 29.85,66.66 30.57,63.46 31.49,60.32 L 31.55,60.33 Z M 31.55,60.33" />
            <path id="mel02Canvas-bezier94" stroke="none" fill="rgb(51, 91, 113)" d="M 1.23,85.74 C 1.37,90.45 1.44,95.16 1.4,99.87 1.38,102.22 1.37,104.58 1.19,106.93 1.09,108.11 0.99,109.28 0.83,110.45 0.66,111.62 0.48,112.8 0.05,113.91 L 0,113.9 C 0.14,113.33 0.22,112.75 0.28,112.16 0.34,111.58 0.39,111 0.43,110.41 0.51,109.24 0.58,108.07 0.62,106.9 0.72,104.55 0.85,102.21 0.94,99.86 1.08,95.16 1.15,90.45 1.17,85.74 L 1.23,85.74 Z M 1.23,85.74" />
        </g>
    </g>
</svg>
