<?xml version="1.0" encoding="UTF-8"?>
<!DOCTYPE svg PUBLIC "-//W3C//DTD SVG 1.1//EN" "http://www.w3.org/Graphics/SVG/1.1/DTD/svg11.dtd">
<svg version="1.1" xmlns="http://www.w3.org/2000/svg" xmlns:xlink="http://www.w3.org/1999/xlink" width="148" height="378"  xml:space="preserve" id="mel01Canvas">
    <!-- Generated by PaintCode - http://www.paintcodeapp.com -->
    <g id="mel01Canvas-lines">
        <g id="mel01Canvas-group2">
            <path id="mel01Canvas-bezier" stroke="none" fill="rgb(51, 91, 113)" d="M 123.71,14.43 C 123.63,13.76 123.37,13.12 123.09,12.5 122.81,11.89 122.49,11.29 122.14,10.71 121.43,9.55 120.61,8.46 119.71,7.45 117.9,5.44 115.73,3.73 113.31,2.54 108.47,0.09 102.65,-0.1 97.58,1.62 95.05,2.51 92.73,3.99 90.92,5.95 89.1,7.9 87.76,10.27 86.86,12.79 85.03,17.85 84.9,23.44 85.8,28.78 L 85.73,28.8 C 84.42,23.51 84.41,17.81 86.17,12.55 87.07,9.94 88.46,7.46 90.4,5.46 92.32,3.44 94.76,1.94 97.39,1.07 102.64,-0.63 108.57,-0.35 113.47,2.21 115.92,3.48 118.08,5.24 119.87,7.31 120.77,8.35 121.57,9.46 122.26,10.64 122.61,11.23 122.92,11.83 123.19,12.46 123.46,13.09 123.71,13.74 123.78,14.42 L 123.71,14.43 Z M 123.71,14.43" />
            <path id="mel01Canvas-bezier2" stroke="none" fill="rgb(51, 91, 113)" d="M 120.46,14.55 C 119.17,14.35 117.83,14.31 116.59,14.6 115.36,14.95 114.13,15.48 112.9,15.92 111.67,16.37 110.44,16.86 109.15,17.17 107.87,17.47 106.53,17.73 105.19,17.61 L 105.19,17.54 C 106.48,17.27 107.71,16.86 108.95,16.47 110.19,16.07 111.46,15.75 112.71,15.36 113.98,14.99 115.19,14.54 116.51,14.25 117.85,14.04 119.19,14.18 120.47,14.48 L 120.46,14.55 Z M 120.46,14.55" />
            <path id="mel01Canvas-bezier3" stroke="none" fill="rgb(51, 91, 113)" d="M 103.33,18.23 C 102.24,19.48 101.13,20.7 99.9,21.83 99.59,22.11 99.27,22.38 98.92,22.63 98.74,22.75 98.56,22.87 98.32,22.95 98.31,22.96 98.22,22.99 98.2,23 98.18,23.02 98.15,23.04 98.11,23.06 98.05,23.11 97.98,23.17 97.93,23.24 97.47,23.81 97.23,24.64 96.94,25.4 96.65,26.18 96.36,26.97 95.93,27.72 95.72,28.1 95.43,28.45 95.22,28.76 95.04,29.04 94.9,29.4 94.83,29.77 94.64,30.51 94.68,31.34 94.55,32.19 94.47,32.61 94.35,33.09 93.97,33.42 93.58,33.72 93.11,33.73 92.7,33.67 L 92.7,33.6 C 93.11,33.55 93.52,33.45 93.74,33.17 93.97,32.91 94.03,32.53 94.04,32.14 94.06,31.35 93.98,30.51 94.11,29.63 94.2,29.19 94.33,28.75 94.6,28.34 94.85,27.96 95.11,27.69 95.31,27.35 95.74,26.69 96.07,25.94 96.39,25.19 96.73,24.43 96.97,23.63 97.57,22.92 97.66,22.84 97.74,22.75 97.85,22.69 97.9,22.65 97.96,22.62 98.02,22.59 98.1,22.56 98.11,22.55 98.19,22.53 98.35,22.48 98.52,22.38 98.69,22.28 99.03,22.07 99.35,21.81 99.67,21.56 100.93,20.51 102.12,19.36 103.27,18.18 L 103.33,18.23 Z M 103.33,18.23" />
            <path id="mel01Canvas-bezier4" stroke="none" fill="rgb(51, 91, 113)" d="M 89.36,32.08 C 88.88,31.29 88.28,30.52 87.49,30.07 87.1,29.85 86.65,29.75 86.24,29.88 85.83,30.01 85.46,30.31 85.18,30.64 84.61,31.31 84.4,32.23 84.42,33.13 84.43,34.03 84.64,34.92 84.98,35.78 85.64,37.49 86.54,39.15 87.78,40.42 88.4,41.05 89.16,41.53 90.03,41.68 90.89,41.85 91.82,41.65 92.68,41.29 L 92.72,41.35 C 91.95,41.9 90.98,42.26 89.97,42.19 88.95,42.13 88.01,41.6 87.28,40.95 85.81,39.58 85.04,37.76 84.43,35.97 84.11,35.06 83.92,34.1 83.94,33.12 83.96,32.16 84.23,31.14 84.91,30.39 85.26,30.03 85.66,29.73 86.16,29.6 86.67,29.46 87.2,29.62 87.6,29.88 88.42,30.42 88.97,31.22 89.42,32.05 L 89.36,32.08 Z M 89.36,32.08" />
            <path id="mel01Canvas-bezier5" stroke="none" fill="rgb(51, 91, 113)" d="M 85.76,31.46 C 86.21,31.33 86.7,31.4 87.14,31.58 87.58,31.78 87.96,32.08 88.29,32.42 88.61,32.76 88.94,33.12 89.1,33.57 89.27,34 89.37,34.46 89.33,34.95 L 89.26,34.97 C 88.92,34.62 88.69,34.25 88.45,33.89 88.22,33.54 88.08,33.13 87.84,32.79 87.6,32.44 87.32,32.13 86.97,31.9 86.63,31.66 86.21,31.5 85.77,31.53 L 85.76,31.46 Z M 85.76,31.46" />
            <path id="mel01Canvas-bezier6" stroke="none" fill="rgb(51, 91, 113)" d="M 90.46,35.84 C 90.27,36.42 90.38,37.04 90.68,37.46 90.77,37.6 90.87,37.74 90.95,37.94 90.98,38.03 91.01,38.14 91.01,38.28 91,38.42 90.94,38.61 90.77,38.74 90.42,38.95 90.18,38.82 90.02,38.73 89.86,38.64 89.74,38.49 89.65,38.33 L 89.69,38.27 90.16,38.24 C 90.29,38.24 90.41,38.16 90.3,38.18 90.21,38.27 90.27,38.23 90.25,38.12 90.26,38.01 90.21,37.88 90.17,37.74 90.04,37.41 89.98,37.05 90.02,36.71 90.07,36.37 90.2,36.06 90.4,35.81 L 90.46,35.84 Z M 90.46,35.84" />
            <path id="mel01Canvas-bezier7" stroke="none" fill="rgb(51, 91, 113)" d="M 102.72,31.97 C 104.32,31.25 106.09,30.91 107.87,30.94 108.76,30.96 109.67,31.01 110.52,31.3 111.37,31.59 112.18,32.01 112.85,32.6 L 112.81,32.66 C 111.96,32.43 111.15,32.18 110.32,32 109.5,31.83 108.69,31.6 107.84,31.52 106.99,31.44 106.13,31.44 105.28,31.53 104.43,31.61 103.57,31.76 102.75,32.04 L 102.72,31.97 Z M 102.72,31.97" />
            <path id="mel01Canvas-bezier8" stroke="none" fill="rgb(51, 91, 113)" d="M 125.41,28.38 C 123.95,29.36 122.53,30.4 121.21,31.54 120.55,32.11 119.9,32.71 119.4,33.38 119.34,33.47 119.28,33.55 119.23,33.64 L 119.17,33.76 119.1,33.91 C 119.04,34.09 118.99,34.27 118.97,34.48 118.92,34.88 118.96,35.3 119.02,35.72 119.29,37.4 119.99,39.01 120.57,40.66 120.71,41.07 120.87,41.49 120.99,41.93 121.1,42.33 121.28,42.73 121.39,43.19 121.51,43.63 121.54,44.17 121.31,44.62 121.07,45.05 120.7,45.34 120.31,45.56 L 120.27,45.5 C 121.98,44.27 120.37,42.49 119.89,40.92 119.22,39.3 118.65,37.6 118.44,35.79 118.39,35.34 118.37,34.88 118.45,34.41 118.48,34.18 118.54,33.93 118.64,33.7 L 118.72,33.55 C 118.76,33.47 118.78,33.44 118.82,33.39 118.88,33.28 118.95,33.19 119.02,33.1 119.6,32.38 120.28,31.82 120.98,31.26 122.38,30.18 123.86,29.22 125.37,28.32 L 125.41,28.38 Z M 125.41,28.38" />
            <path id="mel01Canvas-bezier9" stroke="none" fill="rgb(51, 91, 113)" d="M 113.7,42.85 C 113.66,43.34 113.65,43.84 113.71,44.29 113.74,44.52 113.86,44.71 113.88,44.88 113.91,45.06 113.91,45.21 114.06,45.49 L 114.03,45.56 C 113.71,45.67 113.35,45.44 113.2,45.15 113.03,44.87 113.1,44.55 113.13,44.29 113.2,43.75 113.38,43.27 113.63,42.82 L 113.7,42.85 Z M 113.7,42.85" />
            <path id="mel01Canvas-bezier10" stroke="none" fill="rgb(51, 91, 113)" d="M 114.98,45.49 C 115.79,45.27 116.64,45.13 117.54,45.39 118.07,45.61 118.25,45.66 118.6,45.72 118.93,45.78 119.31,45.78 119.75,45.78 L 119.79,45.84 C 119.5,46.22 119.05,46.42 118.56,46.44 118.31,46.45 118.07,46.4 117.82,46.26 117.69,46.19 117.65,46.15 117.54,46.07 117.47,46.01 117.4,45.97 117.32,45.93 117,45.76 116.61,45.67 116.22,45.62 115.82,45.56 115.41,45.54 115,45.56 L 114.98,45.49 Z M 114.98,45.49" />
            <path id="mel01Canvas-bezier11" stroke="none" fill="rgb(51, 91, 113)" d="M 119.73,49.88 C 119.62,49.52 119.21,49.37 118.85,49.35 118.48,49.33 118.1,49.39 117.73,49.48 116.99,49.65 116.25,49.92 115.53,50.2 114.8,50.47 114.1,50.82 113.36,51.05 112.62,51.29 111.86,51.5 111.08,51.65 L 111.05,51.59 C 111.67,51.07 112.38,50.71 113.1,50.37 113.81,50.04 114.59,49.86 115.35,49.64 116.11,49.43 116.87,49.23 117.67,49.12 118.07,49.07 118.48,49.06 118.88,49.13 119.27,49.21 119.73,49.42 119.81,49.87 L 119.73,49.88 Z M 119.73,49.88" />
            <path id="mel01Canvas-bezier12" stroke="none" fill="rgb(51, 91, 113)" d="M 111.79,52.44 C 112.16,52.7 112.52,52.96 112.87,53.24 113.22,53.52 113.58,53.78 113.89,54.15 L 113.74,54.07 C 114.81,54.05 115.9,54 116.97,53.91 L 116.7,54.03 C 117.06,53.56 117.48,53.16 117.94,52.79 118.17,52.61 118.41,52.43 118.67,52.28 118.93,52.13 119.21,51.98 119.52,51.96 L 119.54,52.04 C 119.31,52.19 119.13,52.4 118.94,52.61 L 118.38,53.25 C 118.02,53.67 117.65,54.11 117.25,54.5 L 117.12,54.64 116.99,54.63 C 115.9,54.58 114.81,54.55 113.72,54.46 L 113.62,54.46 113.57,54.38 C 113.34,54.05 113.02,53.73 112.71,53.42 112.4,53.1 112.08,52.8 111.75,52.5 L 111.79,52.44 Z M 111.79,52.44" />
            <path id="mel01Canvas-bezier13" stroke="none" fill="rgb(51, 91, 113)" d="M 111.09,53.54 C 111.76,54.46 112.52,55.32 113.4,56.01 113.83,56.35 114.31,56.65 114.82,56.77 115.32,56.87 115.91,56.92 116.44,56.88 117.54,56.82 118.44,56.26 119.01,55.4 119.61,54.53 119.91,53.44 120.21,52.33 L 120.28,52.33 C 120.37,53.48 120.24,54.7 119.63,55.79 119.31,56.32 118.85,56.8 118.27,57.08 117.7,57.36 117.06,57.47 116.46,57.46 115.85,57.46 115.29,57.39 114.69,57.23 114.09,57.03 113.6,56.67 113.16,56.29 112.3,55.49 111.62,54.56 111.03,53.58 L 111.09,53.54 Z M 111.09,53.54" />
            <path id="mel01Canvas-bezier14" stroke="none" fill="rgb(51, 91, 113)" d="M 118.95,57.44 C 118.6,58.81 117.48,59.99 116.08,60.36 115.37,60.57 114.65,60.54 113.96,60.62 113.26,60.67 112.56,60.75 111.85,60.76 110.39,60.8 108.98,60.23 107.75,59.57 106.5,58.89 105.3,58.16 104.12,57.37 101.78,55.79 99.53,54.01 97.71,51.8 95.92,49.61 94.46,47.01 94.08,44.19 L 94.16,44.17 C 94.94,46.87 96.42,49.27 98.26,51.33 100.09,53.4 102.18,55.27 104.45,56.89 105.59,57.7 106.77,58.45 107.98,59.15 109.18,59.84 110.47,60.4 111.85,60.4 112.54,60.41 113.24,60.36 113.94,60.32 114.65,60.27 115.36,60.32 116.02,60.15 117.37,59.85 118.48,58.76 118.88,57.42 L 118.95,57.44 Z M 118.95,57.44" />
            <path id="mel01Canvas-bezier15" stroke="none" fill="rgb(51, 91, 113)" d="M 123.78,16.5 C 124.35,18.17 124.81,19.87 125.18,21.6 125.36,22.47 125.58,23.34 125.62,24.23 125.66,25.12 125.64,26.02 125.42,26.9 L 125.35,26.9 C 125.16,26.02 125.03,25.16 124.89,24.3 124.75,23.45 124.72,22.57 124.6,21.7 124.37,19.97 124.07,18.24 123.71,16.52 L 123.78,16.5 Z M 123.78,16.5" />
            <path id="mel01Canvas-bezier16" stroke="none" fill="rgb(51, 91, 113)" d="M 119.77,34.03 C 120.49,34.05 121.21,34.06 121.91,34.03 122.27,34.01 122.62,33.96 122.96,33.93 123.13,33.93 123.3,33.9 123.46,33.87 123.62,33.84 123.78,33.8 123.85,33.64 L 123.89,33.64 C 123.92,33.86 123.71,34.03 123.55,34.11 123.38,34.2 123.19,34.25 123.01,34.29 122.64,34.37 122.27,34.34 121.91,34.32 121.19,34.29 120.48,34.2 119.77,34.07 L 119.77,34.03 Z M 119.77,34.03" />
            <path id="mel01Canvas-bezier17" stroke="none" fill="rgb(51, 91, 113)" d="M 120.16,34.79 C 120.62,35.05 121.16,35.17 121.65,35.08 121.89,35.04 122.11,34.92 122.33,34.82 122.57,34.73 122.78,34.6 123.04,34.48 L 123.07,34.5 C 122.95,34.77 122.75,34.97 122.51,35.14 122.27,35.31 121.97,35.36 121.68,35.37 121.1,35.4 120.55,35.17 120.14,34.82 L 120.16,34.79 Z M 120.16,34.79" />
            <path id="mel01Canvas-bezier18" stroke="none" fill="rgb(51, 91, 113)" d="M 104.79,35.39 C 105.98,35.7 107.22,35.85 108.42,35.74 109.03,35.7 109.58,35.49 110.21,35.38 110.52,35.33 110.83,35.28 111.14,35.26 111.45,35.26 111.78,35.23 112.08,35.39 L 112.06,35.42 C 111.78,35.37 111.47,35.46 111.17,35.52 110.88,35.58 110.58,35.65 110.29,35.73 109.71,35.88 109.07,36.03 108.44,36.03 107.18,36.08 105.94,35.84 104.78,35.42 L 104.79,35.39 Z M 104.79,35.39" />
            <path id="mel01Canvas-bezier19" stroke="none" fill="rgb(51, 91, 113)" d="M 106.31,36.46 C 106.58,36.76 106.96,36.93 107.34,37.01 107.72,37.08 108.12,37.06 108.5,36.97 108.89,36.88 109.23,36.73 109.57,36.56 109.92,36.39 110.24,36.17 110.54,35.9 L 110.57,35.92 C 110.43,36.32 110.11,36.63 109.76,36.87 109.4,37.11 108.96,37.21 108.55,37.26 108.13,37.31 107.7,37.3 107.3,37.18 106.9,37.06 106.52,36.82 106.28,36.48 L 106.31,36.46 Z M 106.31,36.46" />
            <path id="mel01Canvas-bezier20" stroke="none" fill="rgb(51, 91, 113)" d="M 90.19,43.27 C 90.46,45.81 90.77,48.34 91.14,50.86 91.33,52.11 91.58,53.36 91.74,54.62 91.9,55.88 92.05,57.13 92.17,58.42 L 92.1,58.43 C 91.59,57.24 91.28,55.99 91.02,54.73 90.77,53.48 90.67,52.2 90.56,50.93 90.32,48.38 90.17,45.83 90.11,43.28 L 90.19,43.27 Z M 90.19,43.27" />
            <path id="mel01Canvas-bezier21" stroke="none" fill="rgb(51, 91, 113)" d="M 89.3,44.67 C 87.83,44.93 86.35,45.17 84.87,45.37 84.14,45.48 83.4,45.64 82.65,45.65 81.91,45.66 81.15,45.64 80.39,45.48 L 80.39,45.4 C 81.12,45.17 81.85,45.03 82.59,44.92 83.33,44.81 84.08,44.83 84.82,44.79 86.31,44.72 87.8,44.65 89.29,44.59 L 89.3,44.67 Z M 89.3,44.67" />
            <path id="mel01Canvas-bezier22" stroke="none" fill="rgb(51, 91, 113)" d="M 79.96,44.63 C 79.63,50.53 79.67,56.45 80.16,62.32 80.41,65.26 80.78,68.19 81.4,71.06 82.04,73.92 82.88,76.78 84.38,79.27 85.14,80.5 86.09,81.62 87.29,82.37 88.52,83.1 89.89,83.63 91.29,83.78 92.7,83.95 94.12,83.66 95.38,83 96.65,82.36 97.75,81.4 98.73,80.33 100.72,78.21 102.28,75.69 103.81,73.17 105.33,70.65 106.78,68.07 108.4,65.59 L 108.46,65.63 C 107.01,68.2 105.69,70.84 104.25,73.43 102.8,76.01 101.27,78.57 99.27,80.83 98.25,81.93 97.09,82.94 95.71,83.65 94.35,84.36 92.75,84.69 91.21,84.5 89.67,84.31 88.23,83.71 86.94,82.92 85.63,82.08 84.65,80.86 83.88,79.57 82.36,76.96 81.55,74.05 80.94,71.16 80.35,68.25 80.01,65.3 79.79,62.35 79.4,56.44 79.46,50.52 79.89,44.63 L 79.96,44.63 Z M 79.96,44.63" />
            <path id="mel01Canvas-bezier23" stroke="none" fill="rgb(51, 91, 113)" d="M 78.57,44.21 C 77.96,43.84 77.28,43.53 76.6,43.39 76.26,43.32 75.92,43.3 75.63,43.39 75.33,43.49 75.15,43.67 75,43.98 74.64,44.7 73.91,45.28 73.11,45.42 72.33,45.56 71.51,45.5 70.85,45.07 L 70.88,45 C 71.6,45.03 72.3,44.91 72.93,44.71 73.54,44.5 74.13,44.24 74.5,43.68 74.69,43.34 75.09,43 75.51,42.93 75.93,42.85 76.33,42.93 76.7,43.04 77.42,43.29 78.04,43.7 78.62,44.15 L 78.57,44.21 Z M 78.57,44.21" />
            <path id="mel01Canvas-bezier24" stroke="none" fill="rgb(51, 91, 113)" d="M 70.19,44.12 C 70.28,44.17 70.38,44.24 70.39,44.36 70.41,44.49 70.33,44.58 70.27,44.66 70.12,44.8 69.94,44.89 69.77,44.98 69.42,45.16 69.05,45.29 68.68,45.41 67.95,45.64 67.2,45.84 66.44,45.99 64.92,46.28 63.41,46.48 61.98,47 61.28,47.25 60.55,47.53 59.9,47.86 59.24,48.19 58.64,48.6 58.09,49.09 57.8,49.33 57.51,49.59 57.16,49.83 56.81,50.07 56.39,50.24 55.97,50.28 55.14,50.36 54.37,50.17 53.63,49.93 L 53.65,49.85 C 54.41,49.9 55.19,49.95 55.88,49.78 56.57,49.63 57.04,49.12 57.6,48.55 58.17,48 58.85,47.53 59.59,47.21 60.33,46.89 61.05,46.66 61.81,46.44 63.31,45.98 64.87,45.85 66.38,45.63 67.13,45.53 67.89,45.38 68.62,45.2 68.99,45.1 69.36,45 69.71,44.85 69.88,44.78 70.05,44.69 70.19,44.58 70.25,44.52 70.31,44.44 70.3,44.37 70.3,44.3 70.23,44.23 70.16,44.19 L 70.19,44.12 Z M 70.19,44.12" />
            <path id="mel01Canvas-bezier25" stroke="none" fill="rgb(51, 91, 113)" d="M 55.31,48.51 C 55.17,48.06 54.93,47.59 54.5,47.38 54.06,47.17 53.56,47.39 53.19,47.68 52.8,47.96 52.48,48.33 52.16,48.71 51.84,49.08 51.48,49.42 51.08,49.72 50.28,50.31 49.34,50.7 48.36,50.89 47.38,51.09 46.39,51.11 45.4,51.08 44.42,51.07 43.44,50.93 42.48,51 41.51,51.06 40.55,51.23 39.59,51.44 37.69,51.86 35.8,52.41 33.96,53.04 L 34.09,52.83 C 34.5,57.31 35.07,61.79 35.9,66.21 36.32,68.41 36.81,70.61 37.5,72.73 37.85,73.78 38.25,74.83 38.81,75.76 39.08,76.22 39.41,76.65 39.79,76.94 40.2,77.23 40.69,77.41 41.2,77.5 42.22,77.68 43.31,77.45 44.34,77.09 45.37,76.73 46.37,76.22 47.37,75.71 47.87,75.45 48.38,75.19 48.92,74.96 49.19,74.85 49.47,74.75 49.77,74.67 50.07,74.61 50.43,74.53 50.82,74.7 51.02,74.78 51.19,74.95 51.28,75.11 L 51.5,75.46 51.96,76.17 C 52.27,76.63 52.59,77.09 52.92,77.55 54.22,79.38 55.58,81.18 57.06,82.86 57.8,83.7 58.58,84.52 59.41,85.27 60.24,86.02 61.13,86.73 62.17,87.15 L 62.15,87.22 C 61.06,86.85 60.12,86.17 59.24,85.47 58.36,84.75 57.54,83.96 56.76,83.13 55.2,81.49 53.77,79.73 52.42,77.91 52.09,77.45 51.76,76.99 51.43,76.53 L 50.95,75.82 50.71,75.47 C 50.66,75.38 50.62,75.35 50.55,75.32 50.26,75.2 49.67,75.41 49.2,75.62 48.7,75.84 48.21,76.1 47.7,76.36 46.7,76.87 45.68,77.39 44.58,77.78 43.49,78.16 42.29,78.42 41.07,78.21 40.48,78.11 39.88,77.89 39.36,77.52 38.84,77.13 38.5,76.62 38.2,76.12 37.62,75.1 37.23,74.02 36.88,72.93 36.2,70.75 35.75,68.53 35.34,66.31 34.56,61.86 34.04,57.37 33.68,52.87 L 33.67,52.71 33.82,52.66 C 35.69,52.04 37.59,51.5 39.52,51.11 40.49,50.92 41.47,50.76 42.46,50.71 43.46,50.65 44.44,50.81 45.41,50.83 46.39,50.87 47.37,50.87 48.32,50.69 49.28,50.52 50.19,50.16 50.98,49.59 51.38,49.31 51.73,48.98 52.06,48.62 52.38,48.25 52.71,47.87 53.12,47.58 53.51,47.3 54.05,47.05 54.54,47.29 55.01,47.54 55.24,48.03 55.38,48.5 L 55.31,48.51 Z M 55.31,48.51" />
            <path id="mel01Canvas-bezier26" stroke="none" fill="rgb(51, 91, 113)" d="M 51.56,79.13 C 51.82,79.29 51.89,79.55 52.02,79.77 52.12,80 52.21,80.25 52.28,80.49 52.42,80.99 52.5,81.5 52.48,82.02 52.48,83.06 52.03,84.11 51.25,84.83 50.87,85.2 50.39,85.46 49.98,85.72 49.57,85.99 49.16,86.29 48.83,86.63 48.5,86.98 48.26,87.38 48.24,87.81 48.22,88.23 48.4,88.67 48.64,89.08 49.14,89.93 49.82,90.65 50.43,91.52 51.01,92.39 51.46,93.32 51.87,94.25 52.26,95.2 52.62,96.16 52.91,97.14 53.05,97.63 53.18,98.13 53.29,98.63 53.34,98.88 53.39,99.13 53.42,99.38 53.45,99.64 53.51,99.89 53.42,100.17 L 53.35,100.14 C 53.35,99.68 53.13,99.18 52.97,98.72 52.81,98.24 52.62,97.77 52.43,97.31 52.04,96.38 51.65,95.45 51.21,94.55 50.78,93.65 50.33,92.75 49.82,91.91 49.31,91.09 48.63,90.3 48.13,89.37 47.88,88.9 47.66,88.36 47.71,87.76 47.76,87.16 48.11,86.67 48.49,86.3 48.88,85.92 49.31,85.64 49.76,85.37 50.21,85.1 50.64,84.89 51,84.56 52.55,83.33 52.63,80.77 51.55,79.2 L 51.56,79.13 Z M 51.56,79.13" />
            <path id="mel01Canvas-bezier27" stroke="none" fill="rgb(51, 91, 113)" d="M 56.33,98.71 C 56.18,99.37 55.96,99.98 55.73,100.6 55.48,101.21 55.2,101.81 54.85,102.38 54.67,102.67 54.48,102.96 54.23,103.23 53.99,103.48 53.66,103.77 53.17,103.79 52.65,103.81 52.28,103.44 52.12,103.13 51.94,102.81 51.87,102.46 51.84,102.12 L 51.91,102.1 C 52.12,102.36 52.32,102.62 52.53,102.82 52.75,103.02 52.96,103.11 53.12,103.06 53.47,102.99 54,102.54 54.37,102.05 54.75,101.56 55.09,101.01 55.4,100.44 55.71,99.88 56.02,99.29 56.25,98.7 L 56.33,98.71 Z M 56.33,98.71" />
            <path id="mel01Canvas-bezier28" stroke="none" fill="rgb(51, 91, 113)" d="M 51.02,96.21 C 50.18,97.7 49.56,99.31 49.15,100.96 48.94,101.78 48.8,102.62 48.74,103.46 48.71,103.88 48.71,104.3 48.72,104.72 48.75,105.14 48.76,105.61 48.69,106.06 48.57,106.96 48.19,107.82 47.69,108.56 47.18,109.31 46.57,109.94 45.97,110.55 44.75,111.73 43.57,112.97 43.33,114.71 L 43.25,114.71 C 43.17,113.83 43.41,112.93 43.85,112.15 44.28,111.36 44.88,110.7 45.44,110.05 46.58,108.79 47.82,107.59 48.11,105.96 48.19,105.56 48.2,105.17 48.19,104.73 48.19,104.29 48.22,103.85 48.27,103.42 48.36,102.55 48.55,101.7 48.8,100.86 49.31,99.21 50.03,97.62 50.96,96.17 L 51.02,96.21 Z M 51.02,96.21" />
            <path id="mel01Canvas-bezier29" stroke="none" fill="rgb(51, 91, 113)" d="M 32.63,53.58 C 30.17,54.02 27.72,54.52 25.28,55.04 22.84,55.56 20.4,56.11 17.98,56.72 15.56,57.33 13.17,58.04 10.79,58.74 9.59,59.08 8.41,59.47 7.24,59.89 6.08,60.32 4.93,60.78 3.87,61.45 L 3.83,61.39 C 4.77,60.54 5.91,59.95 7.05,59.42 8.2,58.89 9.38,58.46 10.57,58.05 12.95,57.24 15.4,56.69 17.85,56.15 22.74,55.07 27.67,54.21 32.62,53.51 L 32.63,53.58 Z M 32.63,53.58" />
            <path id="mel01Canvas-bezier30" stroke="none" fill="rgb(51, 91, 113)" d="M 3.11,61.45 C 2.62,61.73 2.15,62.07 1.74,62.44 1.33,62.8 0.95,63.22 0.79,63.68 0.75,63.8 0.72,63.91 0.72,64.02 0.71,64.08 0.72,64.13 0.72,64.19 L 0.74,64.4 C 0.76,64.69 0.77,64.97 0.74,65.25 0.7,65.82 0.62,66.39 0.42,66.96 L 0.34,66.96 C 0.14,66.39 0.06,65.82 0.01,65.25 -0.01,64.97 0,64.69 0.02,64.4 L 0.04,64.19 C 0.05,64.1 0.06,64.01 0.08,63.93 0.11,63.76 0.18,63.6 0.25,63.45 0.56,62.86 1.04,62.48 1.52,62.15 2.01,61.83 2.54,61.58 3.08,61.38 L 3.11,61.45 Z M 3.11,61.45" />
            <path id="mel01Canvas-bezier31" stroke="none" fill="rgb(51, 91, 113)" d="M 0.42,68.03 C 1.02,72.42 2.14,76.73 3.44,80.96 4.75,85.19 6.32,89.35 8.1,93.4 9.91,97.45 11.81,101.46 13.65,105.49 15.49,109.53 17.37,113.55 19.28,117.56 L 19.22,117.59 C 16.93,113.77 14.95,109.79 12.99,105.8 11.06,101.8 9.3,97.72 7.56,93.63 5.84,89.53 4.34,85.33 3.09,81.07 1.88,76.79 0.85,72.45 0.34,68.04 L 0.42,68.03 Z M 0.42,68.03" />
            <path id="mel01Canvas-bezier32" stroke="none" fill="rgb(51, 91, 113)" d="M 19.94,118.78 C 20.97,119.89 21.96,121.04 22.87,122.27 23.09,122.58 23.31,122.9 23.5,123.24 23.68,123.57 23.89,123.84 24.14,124.12 24.62,124.68 25.18,125.18 25.76,125.65 26.93,126.59 28.22,127.35 29.49,128.12 30.78,128.89 32.11,129.59 33.46,130.3 L 33.44,130.36 C 31.94,130.03 30.5,129.46 29.14,128.76 27.77,128.04 26.53,127.12 25.38,126.09 24.81,125.58 24.26,125.04 23.77,124.42 23.54,124.13 23.3,123.78 23.13,123.44 22.96,123.11 22.77,122.79 22.57,122.48 21.76,121.21 20.84,120 19.88,118.83 L 19.94,118.78 Z M 19.94,118.78" />
            <path id="mel01Canvas-bezier33" stroke="none" fill="rgb(51, 91, 113)" d="M 38.39,124.19 C 39.14,124.63 39.89,125.08 40.62,125.57 41.35,126.04 42.08,126.59 42.7,127.18 44.06,128.26 45.65,129.02 47.05,130.15 48.35,131.32 49.62,132.54 51.12,133.34 51.49,133.53 51.89,133.68 52.25,133.69 52.43,133.7 52.59,133.65 52.71,133.57 52.9,133.45 53,133.35 53.13,133.2 53.58,132.61 53.58,131.7 53.38,130.96 L 53.49,131.12 C 52.49,130.29 51.47,129.46 50.55,128.54 49.63,127.67 48.62,126.84 47.63,126.02 47.14,125.62 46.62,125.21 46.11,124.9 45.52,124.62 44.97,124.19 44.46,123.8 43.95,123.39 43.45,122.97 42.99,122.5 42.54,122.03 42.04,121.58 41.77,120.96 L 41.84,120.93 C 42.17,121.47 42.69,121.88 43.18,122.28 43.69,122.68 44.2,123.07 44.74,123.43 45.28,123.79 45.79,124.13 46.39,124.38 47,124.72 47.51,125.11 48.05,125.49 49.1,126.27 50.1,127.09 51.08,127.99 51.97,128.92 52.95,129.75 53.92,130.61 L 54,130.69 54.02,130.77 C 54.14,131.26 54.17,131.71 54.12,132.2 54.07,132.67 53.91,133.16 53.59,133.56 53.44,133.75 53.21,133.94 53.03,134.05 52.78,134.21 52.49,134.26 52.23,134.24 51.72,134.21 51.28,134.01 50.88,133.8 49.3,132.91 48.05,131.63 46.78,130.45 45.48,129.34 43.9,128.5 42.55,127.37 41.92,126.73 41.26,126.2 40.54,125.7 39.82,125.19 39.09,124.71 38.35,124.25 L 38.39,124.19 Z M 38.39,124.19" />
            <path id="mel01Canvas-bezier34" stroke="none" fill="rgb(51, 91, 113)" d="M 52.22,127.93 C 52.56,127.91 52.91,127.73 53.09,127.45 53.27,127.16 53.31,126.81 53.28,126.46 53.23,125.76 52.93,125.12 52.45,124.62 51.98,124.11 51.38,123.75 50.77,123.33 50.46,123.13 50.18,122.85 49.92,122.65 49.65,122.42 49.36,122.21 49.07,122 L 47.31,120.74 C 47.02,120.52 46.73,120.3 46.44,120.05 46.14,119.77 45.94,119.51 45.68,119.26 45.19,118.73 44.7,118.19 44.25,117.61 44.03,117.32 43.82,117.02 43.62,116.71 43.45,116.39 43.22,116.06 43.25,115.65 L 43.33,115.66 C 43.4,115.98 43.66,116.25 43.89,116.51 44.12,116.77 44.37,117.03 44.63,117.27 L 46.2,118.75 C 46.46,118.99 46.72,119.29 46.95,119.49 47.2,119.72 47.48,119.95 47.76,120.17 L 49.43,121.54 C 49.71,121.77 49.99,122 50.26,122.24 50.56,122.5 50.77,122.74 51.06,122.95 51.62,123.38 52.24,123.8 52.73,124.38 53.22,124.95 53.5,125.72 53.5,126.46 53.51,126.82 53.44,127.22 53.21,127.53 52.98,127.85 52.59,128.01 52.22,128 L 52.22,127.93 Z M 52.22,127.93" />
            <path id="mel01Canvas-bezier35" stroke="none" fill="rgb(51, 91, 113)" d="M 51.02,134.36 C 51.02,134.75 50.84,135.18 50.45,135.36 50.06,135.53 49.63,135.46 49.26,135.36 48.5,135.15 47.79,134.83 47.09,134.5 45.7,133.84 44.36,133.02 43.05,132.25 41.71,131.5 40.32,130.8 39.1,129.8 38.8,129.53 38.5,129.26 38.24,128.94 38.09,128.75 38.02,128.63 37.9,128.52 37.78,128.42 37.65,128.32 37.5,128.24 36.89,127.92 36.1,127.9 35.35,128 L 35.33,127.93 C 36.04,127.63 36.88,127.49 37.7,127.77 37.91,127.84 38.11,127.95 38.28,128.09 38.46,128.22 38.62,128.42 38.71,128.53 38.96,128.78 39.25,129.01 39.55,129.22 40.76,130.1 42.05,130.93 43.35,131.75 44.66,132.6 45.9,133.45 47.26,134.18 47.92,134.55 48.61,134.91 49.32,135.15 49.67,135.27 50.05,135.35 50.39,135.22 50.73,135.1 50.93,134.73 50.95,134.36 L 51.02,134.36 Z M 51.02,134.36" />
            <path id="mel01Canvas-bezier36" stroke="none" fill="rgb(51, 91, 113)" d="M 45.06,134.23 C 45.07,134.5 45.01,134.77 44.84,134.99 44.68,135.22 44.39,135.35 44.12,135.38 43.57,135.45 43.04,135.24 42.57,135.13 42.09,135 41.58,134.93 41.07,134.81 40.56,134.69 40.05,134.52 39.57,134.32 38.6,133.92 37.67,133.46 36.82,132.87 35.97,132.28 35.16,131.64 34.44,130.89 L 34.48,130.83 C 35.43,131.25 36.32,131.76 37.21,132.25 38.09,132.75 38.92,133.33 39.81,133.79 40.26,134.01 40.72,134.21 41.19,134.35 41.67,134.5 42.18,134.61 42.67,134.78 43.18,134.95 43.61,135.18 44.1,135.16 44.34,135.15 44.57,135.07 44.73,134.9 44.89,134.73 44.98,134.48 44.99,134.24 L 45.06,134.23 Z M 45.06,134.23" />
            <path id="mel01Canvas-bezier37" stroke="none" fill="rgb(51, 91, 113)" d="M 44.79,109.7 C 44.16,109.95 43.55,110.23 42.96,110.55 42.67,110.72 42.39,110.89 42.14,111.09 41.85,111.33 41.49,111.44 41.16,111.52 39.8,111.8 38.46,111.86 37.14,112.07 36.47,112.17 35.82,112.29 35.17,112.43 34.52,112.57 33.82,112.7 33.11,112.69 32.4,112.67 31.67,112.54 31.03,112.21 30.71,112.05 30.42,111.85 30.15,111.64 29.89,111.43 29.65,111.18 29.33,111.24 L 29.3,111.18 C 29.46,111.08 29.68,111.08 29.85,111.15 30.02,111.2 30.17,111.28 30.33,111.36 30.63,111.51 30.92,111.65 31.22,111.74 31.83,111.93 32.46,111.99 33.1,111.96 33.73,111.94 34.36,111.82 35.04,111.72 35.71,111.62 36.39,111.55 37.07,111.49 38.41,111.35 39.78,111.36 41.08,111.16 41.4,111.11 41.72,111.03 41.96,110.86 42.25,110.66 42.56,110.5 42.86,110.36 43.48,110.07 44.12,109.84 44.76,109.63 L 44.79,109.7 Z M 44.79,109.7" />
            <path id="mel01Canvas-bezier38" stroke="none" fill="rgb(51, 91, 113)" d="M 28.68,110.53 C 27.3,107.8 26.02,105.01 24.84,102.17 23.69,99.33 22.61,96.44 21.92,93.42 21.74,92.67 21.62,91.89 21.52,91.14 21.41,90.39 21.27,89.64 21.12,88.89 20.83,87.4 20.49,85.91 20.14,84.43 19.45,81.45 18.63,78.5 17.84,75.54 L 17.91,75.52 C 19.1,78.35 20.02,81.28 20.84,84.25 21.23,85.74 21.58,87.24 21.83,88.76 21.96,89.52 22.07,90.28 22.16,91.05 22.24,91.82 22.34,92.55 22.49,93.3 23.1,96.28 24.1,99.18 25.18,102.04 26.26,104.9 27.45,107.73 28.74,110.5 L 28.68,110.53 Z M 28.68,110.53" />
            <path id="mel01Canvas-bezier39" stroke="none" fill="rgb(51, 91, 113)" d="M 12.68,73.84 C 13.38,74 14.08,74.18 14.76,74.39 15.1,74.5 15.47,74.55 15.78,74.74 16.09,74.93 16.4,75.13 16.62,75.5 L 16.58,75.55 C 16.19,75.56 15.83,75.5 15.49,75.41 15.15,75.32 14.86,75.09 14.54,74.93 13.91,74.61 13.28,74.26 12.66,73.91 L 12.68,73.84 Z M 12.68,73.84" />
            <path id="mel01Canvas-bezier40" stroke="none" fill="rgb(51, 91, 113)" d="M 18.4,74.66 C 19.88,74.74 21.35,74.77 22.83,74.76 24.31,74.77 25.78,74.74 27.25,74.67 28.73,74.6 30.19,74.46 31.66,74.39 33.13,74.32 34.6,74.24 36.09,74.22 L 36.1,74.29 C 34.67,74.71 33.2,74.95 31.72,75.12 30.24,75.28 28.75,75.27 27.27,75.26 24.3,75.25 21.33,75.09 18.39,74.74 L 18.4,74.66 Z M 18.4,74.66" />
            <path id="mel01Canvas-bezier41" stroke="none" fill="rgb(51, 91, 113)" d="M 125.42,29.69 C 125.22,30.6 125.35,31.54 125.48,32.46 125.61,33.38 125.83,34.28 125.98,35.22 126.25,37.11 125.9,39.06 125.23,40.83 124.9,41.73 124.47,42.57 124.11,43.42 L 122.99,45.97 C 122.59,46.82 122.22,47.67 121.84,48.52 121.65,48.95 121.46,49.38 121.29,49.81 121.11,50.23 120.91,50.67 120.8,51.1 L 120.73,51.1 C 120.79,50.14 121.1,49.25 121.37,48.34 121.65,47.45 121.98,46.57 122.31,45.69 122.66,44.82 123.04,43.96 123.46,43.12 123.87,42.27 124.34,41.46 124.69,40.62 125.4,38.93 125.8,37.09 125.62,35.26 125.52,34.35 125.34,33.42 125.26,32.48 125.18,31.55 125.1,30.59 125.35,29.67 L 125.42,29.69 Z M 125.42,29.69" />
            <path id="mel01Canvas-bezier42" stroke="none" fill="rgb(51, 91, 113)" d="M 116.06,62.9 C 115.7,62.89 115.24,62.91 114.85,62.8 114.45,62.7 114.06,62.55 113.69,62.38 112.97,61.99 112.2,61.73 111.42,61.49 109.87,61.01 108.27,60.64 106.67,60.42 105.87,60.32 105.05,60.24 104.27,60.32 103.89,60.37 103.49,60.46 103.25,60.66 103.02,60.91 102.77,61.26 102.63,61.59 102.49,61.93 102.46,62.28 102.62,62.56 102.78,62.84 103.09,63.05 103.44,63.2 104.14,63.51 104.94,63.58 105.76,63.76 107.38,64.1 108.97,64.56 110.51,65.21 111.27,65.55 112.02,65.93 112.72,66.43 113.07,66.68 113.4,66.97 113.69,67.31 113.83,67.48 113.97,67.69 114.07,67.86 114.18,68.05 114.26,68.18 114.39,68.34 115.34,69.58 116.6,70.65 117.82,71.71 118.43,72.24 119.06,72.76 119.71,73.26 120.34,73.76 120.99,74.26 121.68,74.69 L 121.65,74.76 C 120.16,74.04 118.82,73.08 117.5,72.11 116.19,71.11 114.91,70.09 113.81,68.78 113.68,68.62 113.53,68.41 113.44,68.24 113.33,68.06 113.24,67.94 113.12,67.79 112.88,67.52 112.59,67.27 112.27,67.04 111.65,66.58 110.94,66.2 110.21,65.87 108.76,65.21 107.21,64.71 105.64,64.33 104.87,64.14 104.02,64.06 103.22,63.68 102.83,63.5 102.42,63.24 102.18,62.8 101.93,62.34 102.01,61.8 102.2,61.4 102.39,60.99 102.62,60.66 102.96,60.33 103.36,60.01 103.81,59.95 104.23,59.91 105.08,59.84 105.9,59.94 106.72,60.06 108.35,60.33 109.93,60.76 111.49,61.28 113.09,61.69 114.38,62.93 116.09,62.84 L 116.06,62.9 Z M 116.06,62.9" />
            <path id="mel01Canvas-bezier43" stroke="none" fill="rgb(51, 91, 113)" d="M 117.03,62.69 C 117.94,62.59 118.62,61.85 119.05,61.09 119.51,60.32 119.78,59.46 119.99,58.58 120.2,57.68 120.38,56.76 120.71,55.89 121.05,55.03 121.42,54.16 122,53.4 L 122.06,53.43 C 121.86,54.34 121.65,55.23 121.41,56.12 121.17,57 120.84,57.86 120.55,58.73 120.27,59.62 119.91,60.51 119.36,61.29 118.81,62.04 118.01,62.76 117.02,62.76 L 117.03,62.69 Z M 117.03,62.69" />
            <path id="mel01Canvas-bezier44" stroke="none" fill="rgb(51, 91, 113)" d="M 122,52.7 C 122.55,50.18 123.17,47.68 123.91,45.21 124.28,43.97 124.64,42.73 125.12,41.52 125.37,40.92 125.64,40.32 125.98,39.75 126.14,39.46 126.33,39.18 126.55,38.92 126.66,38.78 126.79,38.66 126.94,38.54 127.09,38.43 127.28,38.31 127.53,38.31 L 127.42,38.35 C 127.7,38.21 127.98,38.13 128.29,38.13 128.59,38.14 128.9,38.27 129.07,38.5 L 129.02,38.55 C 128.8,38.4 128.55,38.36 128.31,38.41 128.07,38.46 127.83,38.57 127.65,38.7 L 127.63,38.72 127.54,38.74 C 127.38,38.77 127.17,39.02 127.01,39.26 126.85,39.51 126.71,39.79 126.57,40.06 126.3,40.63 126.06,41.21 125.82,41.8 125.33,42.97 124.84,44.16 124.42,45.37 123.58,47.8 122.8,50.25 122.07,52.72 L 122,52.7 Z M 122,52.7" />
            <path id="mel01Canvas-bezier45" stroke="none" fill="rgb(51, 91, 113)" d="M 125.5,53.42 C 125.39,51.78 125.36,50.12 125.55,48.47 125.6,48.06 125.67,47.64 125.79,47.23 125.92,46.81 126.06,46.46 126.18,46.06 L 126.87,43.69 C 127.34,42.11 127.78,40.51 128.59,39.01 128.8,38.65 129.03,38.28 129.32,37.94 129.6,37.62 129.94,37.24 130.49,37.16 130.98,37.16 131.41,37.23 131.82,37.5 132.01,37.64 132.16,37.87 132.19,38.1 132.22,38.33 132.16,38.55 132.06,38.74 L 131.99,38.71 C 132.09,38.32 131.97,37.91 131.64,37.78 131.34,37.63 130.9,37.62 130.57,37.67 130.3,37.75 130.03,38.02 129.81,38.33 129.6,38.64 129.41,38.99 129.24,39.35 128.56,40.79 127.97,42.32 127.43,43.87 L 126.62,46.21 C 126.5,46.59 126.32,47 126.19,47.36 126.07,47.73 125.98,48.13 125.91,48.53 125.63,50.13 125.56,51.78 125.57,53.42 L 125.5,53.42 Z M 125.5,53.42" />
            <path id="mel01Canvas-bezier46" stroke="none" fill="rgb(51, 91, 113)" d="M 128.02,54.28 C 128.23,52.16 128.61,50.01 129.36,48.01 129.94,45.97 130.3,43.85 130.9,41.77 131.05,41.25 131.22,40.73 131.43,40.22 131.53,39.96 131.65,39.71 131.81,39.45 131.97,39.21 132.14,38.93 132.53,38.75 132.64,38.72 132.75,38.69 132.87,38.69 132.99,38.7 133.01,38.7 133.1,38.71 133.26,38.73 133.41,38.76 133.57,38.8 133.87,38.89 134.19,39.07 134.41,39.35 134.86,39.93 134.83,40.62 134.74,41.18 134.68,41.47 134.6,41.74 134.5,42 134.41,42.26 134.33,42.48 134.26,42.74 134.12,43.24 134.01,43.76 133.89,44.28 133.66,45.32 133.46,46.37 133.25,47.42 L 133.17,47.41 C 133.18,46.34 133.26,45.27 133.39,44.2 133.44,43.66 133.54,43.13 133.65,42.59 133.7,42.33 133.78,42.04 133.86,41.79 133.93,41.54 133.99,41.3 134.02,41.06 134.1,40.58 134.06,40.1 133.82,39.82 133.71,39.68 133.55,39.57 133.34,39.51 133.24,39.48 133.12,39.45 133.02,39.44 132.98,39.43 132.87,39.42 132.85,39.42 132.84,39.42 132.82,39.42 132.79,39.43 132.68,39.46 132.51,39.63 132.38,39.83 132.25,40.02 132.13,40.25 132.02,40.48 131.81,40.95 131.63,41.44 131.46,41.95 130.8,43.96 130.36,46.06 129.71,48.12 128.86,50.09 128.4,52.18 128.09,54.29 L 128.02,54.28 Z M 128.02,54.28" />
            <path id="mel01Canvas-bezier47" stroke="none" fill="rgb(51, 91, 113)" d="M 131.2,58.43 C 130.94,56.88 131.09,55.22 131.66,53.76 132.02,52.24 131.97,50.65 132.36,49.07 132.41,48.87 132.48,48.68 132.58,48.48 132.69,48.3 132.84,48.09 133.09,47.99 133.2,47.93 133.37,47.93 133.45,47.93 133.54,47.92 133.65,47.92 133.76,47.93 133.97,47.94 134.18,47.96 134.39,48.02 134.82,48.12 135.23,48.47 135.38,48.92 135.52,49.35 135.5,49.79 135.44,50.2 135.33,50.94 135.37,51.73 135.41,52.5 135.46,53.29 135.53,54.07 135.6,54.85 135.75,56.41 135.87,58.02 135.92,59.58 136.01,61.15 136.07,62.74 136,64.33 135.92,65.92 135.77,67.52 135.34,69.07 135.12,69.84 134.84,70.6 134.42,71.3 134,71.98 133.44,72.62 132.71,72.96 L 132.67,72.9 C 133.33,72.46 133.8,71.83 134.13,71.14 134.47,70.45 134.69,69.7 134.85,68.94 135.16,67.43 135.27,65.87 135.27,64.31 135.3,62.75 135.24,61.18 135.2,59.61 135.19,58.02 135.12,56.48 135.01,54.9 134.96,54.11 134.91,53.32 134.88,52.53 134.86,51.74 134.83,50.94 134.97,50.12 135.03,49.75 135.05,49.38 134.95,49.06 134.85,48.75 134.61,48.52 134.27,48.42 134.1,48.37 133.92,48.34 133.74,48.33 133.57,48.32 133.32,48.31 133.23,48.35 132.98,48.44 132.81,48.82 132.7,49.17 132.29,50.65 132.29,52.27 131.87,53.81 131.26,55.27 131.06,56.85 131.27,58.42 L 131.2,58.43 Z M 131.2,58.43" />
            <path id="mel01Canvas-bezier48" stroke="none" fill="rgb(51, 91, 113)" d="M 134.29,72.93 C 134.8,77.47 135.46,82.01 136.33,86.49 136.77,88.74 137.27,90.97 137.91,93.16 138.57,95.34 139.28,97.51 140.69,99.3 143.26,103.11 145.59,107.13 147.13,111.5 147.86,113.68 148.47,115.97 148.4,118.32 148.18,120.66 147.71,122.86 147.35,125.14 L 147.28,125.13 147.6,121.71 147.78,120 C 147.84,119.42 147.9,118.87 147.89,118.31 147.85,116.07 147.23,113.86 146.44,111.74 144.84,107.5 142.69,103.45 140.21,99.63 139.9,99.16 139.55,98.69 139.27,98.16 138.98,97.65 138.75,97.11 138.53,96.58 138.1,95.5 137.76,94.4 137.45,93.29 136.84,91.07 136.38,88.82 135.97,86.56 135.19,82.04 134.63,77.49 134.22,72.93 L 134.29,72.93 Z M 134.29,72.93" />
            <path id="mel01Canvas-bezier49" stroke="none" fill="rgb(51, 91, 113)" d="M 147.25,126.15 C 147.83,127.27 147.9,128.63 147.44,129.81 146.98,131 146.06,131.94 145.06,132.68 144.07,133.44 143.13,134.24 142.13,135 141.63,135.37 141.12,135.74 140.53,136.02 139.97,136.3 139.23,136.45 138.59,136.15 137.95,135.87 137.55,135.33 137.14,134.88 L 135.92,133.47 C 135.1,132.54 134.25,131.65 133.28,130.9 132.8,130.53 132.29,130.19 131.76,129.89 131.49,129.74 131.23,129.62 130.94,129.48 130.64,129.33 130.36,129.14 130.11,128.93 129.11,128.07 128.45,126.95 127.9,125.82 126.82,123.53 126.18,121.08 125.77,118.6 125.67,117.98 125.59,117.36 125.53,116.73 125.47,116.11 125.45,115.47 125.38,114.89 125.25,113.68 125.01,112.46 124.75,111.26 123.7,106.42 122.26,101.66 120.87,96.89 L 120.94,96.87 C 122.72,101.51 124.27,106.25 125.46,111.1 125.74,112.32 125.99,113.54 126.14,114.8 126.21,115.45 126.22,116.06 126.27,116.67 126.33,117.28 126.4,117.89 126.49,118.5 126.84,120.92 127.42,123.34 128.43,125.57 128.94,126.67 129.57,127.75 130.46,128.53 130.68,128.72 130.92,128.89 131.17,129.02 131.44,129.15 131.74,129.3 132.01,129.46 132.56,129.77 133.08,130.13 133.58,130.53 134.57,131.32 135.43,132.25 136.24,133.2 L 137.44,134.62 C 137.85,135.09 138.22,135.59 138.74,135.82 139.25,136.07 139.86,135.97 140.4,135.72 140.94,135.47 141.46,135.13 141.96,134.76 142.96,134.04 143.92,133.25 144.92,132.51 145.93,131.8 146.83,130.9 147.3,129.76 147.77,128.63 147.73,127.29 147.19,126.19 L 147.25,126.15 Z M 147.25,126.15" />
            <path id="mel01Canvas-bezier50" stroke="none" fill="rgb(51, 91, 113)" d="M 122.63,75.5 C 123.04,75.87 123.27,76.36 123.53,76.82 123.78,77.29 124,77.77 124.21,78.25 124.63,79.23 125,80.22 125.33,81.23 125.99,83.24 126.51,85.3 126.85,87.4 127.2,89.49 127.31,91.64 127.3,93.74 127.34,95.85 127.39,97.96 127.47,100.07 127.64,104.29 127.92,108.5 128.22,112.71 128.36,114.81 128.56,116.91 128.81,119 128.94,120.04 129.09,121.09 129.3,122.12 129.51,123.14 129.72,124.18 130.21,125.11 L 130.15,125.15 C 129.58,124.25 129.27,123.21 128.98,122.19 128.71,121.16 128.5,120.12 128.31,119.07 127.94,116.98 127.71,114.88 127.49,112.77 127.09,108.55 126.98,104.32 126.89,100.09 126.85,97.98 126.82,95.86 126.83,93.75 126.87,91.63 126.8,89.54 126.49,87.45 126.2,85.37 125.73,83.31 125.12,81.29 124.82,80.28 124.47,79.29 124.08,78.31 123.88,77.82 123.67,77.34 123.43,76.87 123.19,76.41 122.96,75.91 122.59,75.56 L 122.63,75.5 Z M 122.63,75.5" />
            <path id="mel01Canvas-bezier51" stroke="none" fill="rgb(51, 91, 113)" d="M 125.88,92.29 C 125,92.65 124.15,93.09 123.34,93.58 122.53,94.06 121.75,94.6 121.09,95.25 120.77,95.57 120.47,95.92 120.24,96.3 120.01,96.67 119.85,97.06 119.7,97.49 119.56,97.91 119.45,98.35 119.47,98.74 119.48,99.13 119.77,99.48 120.24,99.58 L 120.25,99.66 C 120,99.71 119.72,99.67 119.47,99.53 119.23,99.38 119.06,99.12 118.97,98.85 118.8,98.31 118.89,97.78 119,97.29 119.08,97.02 119.14,96.83 119.25,96.56 119.36,96.32 119.5,96.1 119.65,95.89 119.96,95.48 120.32,95.13 120.7,94.81 122.23,93.56 124.03,92.79 125.85,92.22 L 125.88,92.29 Z M 125.88,92.29" />
            <path id="mel01Canvas-bezier52" stroke="none" fill="rgb(51, 91, 113)" d="M 119.19,100.37 C 118.97,100.44 118.73,100.46 118.49,100.39 118.25,100.33 118.04,100.15 117.9,99.94 117.64,99.5 117.6,98.99 117.59,98.55 117.58,98.12 117.5,97.68 117.55,97.25 117.6,96.82 117.68,96.39 117.84,95.94 L 117.91,95.93 C 118.15,96.36 118.23,96.81 118.28,97.25 118.33,97.7 118.23,98.14 118.18,98.58 118.11,99 118.09,99.41 118.22,99.77 118.33,100.13 118.74,100.35 119.17,100.29 L 119.19,100.37 Z M 119.19,100.37" />
            <path id="mel01Canvas-bezier53" stroke="none" fill="rgb(51, 91, 113)" d="M 123.88,86.31 C 123.63,87.39 123.3,88.46 122.89,89.49 122.48,90.53 121.99,91.54 121.31,92.45 120.97,92.89 120.58,93.31 120.1,93.63 119.86,93.79 119.59,93.92 119.31,94.01 119.03,94.1 118.74,94.11 118.5,94.19 117.46,94.47 116.72,95.37 116.36,96.38 115.99,97.39 115.86,98.49 115.82,99.58 115.77,100.68 115.82,101.78 115.89,102.89 115.96,104.04 115.72,105.19 115.31,106.25 114.9,107.31 114.33,108.3 113.68,109.22 111.06,112.91 107.48,115.72 103.99,118.43 102.23,119.78 100.48,121.15 98.79,122.58 97.95,123.3 97.12,124.03 96.35,124.82 95.59,125.6 94.79,126.42 94.44,127.47 L 94.37,127.45 C 94.65,126.34 95.4,125.45 96.11,124.59 96.84,123.75 97.64,122.97 98.46,122.2 100.09,120.68 101.82,119.27 103.53,117.86 105.26,116.46 107.02,115.11 108.68,113.66 110.33,112.2 111.91,110.65 113.21,108.88 114.48,107.13 115.5,105.08 115.42,102.91 115.37,101.81 115.34,100.68 115.4,99.56 115.47,98.45 115.61,97.31 116.02,96.24 116.23,95.71 116.52,95.2 116.93,94.78 117.33,94.36 117.86,94.05 118.43,93.91 118.71,93.83 118.99,93.82 119.24,93.74 119.49,93.67 119.73,93.56 119.96,93.42 120.41,93.13 120.8,92.74 121.14,92.31 121.82,91.45 122.33,90.46 122.76,89.44 123.18,88.42 123.53,87.37 123.81,86.29 L 123.88,86.31 Z M 123.88,86.31" />
            <path id="mel01Canvas-bezier54" stroke="none" fill="rgb(51, 91, 113)" d="M 109.96,115.22 C 108.91,118.42 107.66,121.56 106.13,124.57 105.35,126.07 104.49,127.54 103.45,128.89 102.93,129.56 102.36,130.21 101.69,130.77 101.34,131.05 101,131.28 100.7,131.55 100.4,131.82 100.11,132.11 99.84,132.42 98.74,133.65 97.86,135.07 97.05,136.53 96.25,137.99 95.5,139.49 94.77,141 L 92.6,145.55 C 91.85,147.06 91.12,148.59 90.18,150 L 90.12,149.96 C 90.87,148.46 91.49,146.9 92.13,145.34 92.77,143.79 93.43,142.24 94.11,140.69 94.82,139.16 95.56,137.64 96.42,136.17 97.29,134.71 98.23,133.28 99.4,132.02 99.7,131.71 100.01,131.41 100.34,131.13 100.67,130.84 101.04,130.6 101.35,130.36 101.99,129.85 102.56,129.24 103.08,128.6 104.12,127.3 105,125.87 105.81,124.4 107.41,121.46 108.75,118.36 109.89,115.2 L 109.96,115.22 Z M 109.96,115.22" />
            <path id="mel01Canvas-bezier55" stroke="none" fill="rgb(51, 91, 113)" d="M 88.95,152.27 C 88.19,153.58 87.08,154.79 85.57,155.29 84.83,155.54 84,155.54 83.25,155.33 82.49,155.12 81.79,154.72 81.17,154.25 79.93,153.29 78.99,152.05 78.06,150.85 77.12,149.64 76.27,148.36 75.28,147.25 74.29,146.13 73.01,145.38 71.58,144.98 70.16,144.57 68.66,144.36 67.16,144.18 64.15,143.82 61.1,143.68 58.06,143.41 L 58.06,143.33 C 61.11,143.2 64.17,143.22 67.23,143.46 68.76,143.6 70.3,143.81 71.8,144.29 72.55,144.54 73.28,144.86 73.95,145.29 74.62,145.73 75.21,146.27 75.72,146.87 76.73,148.06 77.53,149.35 78.44,150.57 79.34,151.79 80.23,153.03 81.4,153.96 81.98,154.43 82.62,154.83 83.33,155.05 84.03,155.27 84.8,155.3 85.51,155.09 86.95,154.66 88.09,153.51 88.88,152.23 L 88.95,152.27 Z M 88.95,152.27" />
            <path id="mel01Canvas-bezier56" stroke="none" fill="rgb(51, 91, 113)" d="M 62.18,144.53 C 60.76,145.72 59.03,146.55 57.21,146.97 55.4,147.38 53.4,147.35 51.68,146.5 51.25,146.29 50.84,146.01 50.49,145.73 50.15,145.49 49.72,145.35 49.28,145.26 48.4,145.09 47.48,145.1 46.56,145.13 44.73,145.2 42.89,145.42 41.04,145.58 39.19,145.74 37.32,145.87 35.45,145.82 33.58,145.77 31.66,145.52 29.89,144.75 29.01,144.36 28.19,143.82 27.5,143.14 27.15,142.8 26.86,142.42 26.57,142.07 26.27,141.71 25.99,141.34 25.72,140.96 25.17,140.2 24.65,139.42 24.22,138.59 24.01,138.16 23.82,137.72 23.74,137.25 23.7,137.01 23.68,136.76 23.77,136.52 23.86,136.27 24.11,136.1 24.36,136.11 L 24.36,136.18 C 24.14,136.21 23.96,136.36 23.91,136.57 23.86,136.77 23.89,136.99 23.94,137.2 24.06,137.63 24.28,138.04 24.51,138.43 24.98,139.21 25.54,139.94 26.12,140.65 26.71,141.33 27.3,142.1 27.93,142.69 28.59,143.29 29.36,143.75 30.18,144.08 31.83,144.77 33.66,145.01 35.48,145.1 37.3,145.2 39.15,145.12 40.99,145 42.84,144.88 44.68,144.7 46.55,144.66 47.48,144.64 48.43,144.66 49.37,144.85 49.83,144.96 50.31,145.11 50.72,145.42 51.09,145.71 51.44,145.96 51.85,146.17 53.44,147.03 55.38,147.11 57.16,146.76 58.96,146.4 60.69,145.62 62.14,144.47 L 62.18,144.53 Z M 62.18,144.53" />
            <path id="mel01Canvas-bezier57" stroke="none" fill="rgb(51, 91, 113)" d="M 24.91,135.25 C 25.84,134.39 26.75,133.5 27.6,132.57 28.02,132.1 28.38,131.59 28.81,131.14 29.23,130.69 29.65,130.25 30.07,129.75 L 30.14,129.78 C 30.08,130.46 29.74,131.06 29.38,131.6 29,132.14 28.49,132.55 28.01,132.98 27.05,133.84 26.02,134.61 24.95,135.3 L 24.91,135.25 Z M 24.91,135.25" />
            <path id="mel01Canvas-bezier58" stroke="none" fill="rgb(51, 91, 113)" d="M 84.18,24.35 C 82.77,24.65 81.37,25.46 80.76,26.77 80.45,27.42 80.36,28.15 80.43,28.87 80.45,29.22 80.54,29.57 80.6,29.94 80.65,30.33 80.64,30.76 80.41,31.13 80.18,31.51 79.77,31.7 79.4,31.8 79.01,31.89 78.63,31.91 78.25,31.92 77.5,31.92 76.76,31.84 76.03,31.8 75.67,31.78 75.31,31.77 74.96,31.8 74.63,31.83 74.29,31.92 74.17,32.11 74.04,32.29 74.09,32.62 74.2,32.94 74.31,33.26 74.48,33.56 74.66,33.89 74.84,34.22 75.01,34.58 75.1,34.99 75.19,35.38 75.17,35.92 74.83,36.31 74.51,36.68 74.09,36.82 73.71,36.93 73.32,37.03 72.94,37.08 72.57,37.13 71.83,37.22 71.1,37.26 70.41,37.4 69.73,37.52 69.1,37.79 68.99,38.32 68.91,38.58 68.94,38.91 69.01,39.23 69.09,39.55 69.24,39.88 69.34,40.27 69.44,40.65 69.52,41.04 69.5,41.45 69.5,41.86 69.34,42.35 68.96,42.63 68.6,42.91 68.17,42.97 67.79,42.99 67.4,43.01 67.02,42.96 66.65,42.91 66.28,42.84 65.92,42.76 65.56,42.68 65.38,42.64 65.2,42.6 65.03,42.59 64.94,42.58 64.84,42.59 64.83,42.61 64.8,42.64 64.85,42.75 64.9,42.81 L 64.84,42.86 C 64.79,42.78 64.7,42.72 64.72,42.57 64.81,42.43 64.94,42.46 65.03,42.44 65.22,42.43 65.41,42.45 65.59,42.47 65.96,42.51 66.33,42.55 66.69,42.58 67.39,42.62 68.19,42.63 68.64,42.24 69.05,41.85 68.95,41.1 68.74,40.45 68.53,39.82 68.08,39.06 68.28,38.14 68.38,37.68 68.73,37.27 69.11,37.06 69.49,36.84 69.88,36.74 70.26,36.66 71.03,36.51 71.77,36.49 72.5,36.41 73.19,36.35 73.98,36.26 74.34,35.88 74.7,35.53 74.46,34.76 74.14,34.16 73.98,33.84 73.79,33.49 73.67,33.11 73.57,32.75 73.44,32.27 73.74,31.81 74.07,31.38 74.55,31.34 74.92,31.3 75.31,31.28 75.69,31.3 76.06,31.33 76.81,31.38 77.53,31.48 78.25,31.5 78.95,31.51 79.75,31.46 80.11,30.94 80.28,30.68 80.31,30.33 80.28,29.99 80.23,29.64 80.15,29.26 80.14,28.89 80.1,28.14 80.21,27.36 80.56,26.68 81.27,25.3 82.73,24.54 84.17,24.28 L 84.18,24.35 Z M 84.18,24.35" />
            <path id="mel01Canvas-bezier59" stroke="none" fill="rgb(51, 91, 113)" d="M 84.2,28.38 C 83.57,28.93 82.92,29.57 82.62,30.33 82.55,30.52 82.52,30.72 82.57,30.9 82.59,31.07 82.8,31.18 82.82,31.52 82.82,31.82 82.63,32.02 82.49,32.18 82.33,32.35 82.16,32.49 81.99,32.63 81.66,32.9 81.33,33.17 81.1,33.49 80.86,33.8 80.78,34.16 80.89,34.51 80.92,34.67 81.08,34.84 81.11,35.17 81.14,35.48 80.96,35.77 80.77,35.94 80.39,36.28 79.96,36.45 79.55,36.61 78.73,36.92 77.87,37.13 77.13,37.45 76.95,37.53 76.78,37.62 76.68,37.71 76.63,37.76 76.61,37.8 76.62,37.79 76.62,37.78 76.62,37.78 76.64,37.83 76.66,37.87 76.71,37.93 76.77,37.99 76.84,38.07 76.96,38.19 77.03,38.33 77.11,38.47 77.17,38.66 77.15,38.85 77.13,39.04 77.05,39.21 76.97,39.33 76.58,39.78 76.17,39.94 75.76,40.14 75.36,40.32 74.96,40.49 74.55,40.63 74.15,40.78 73.74,40.92 73.39,41.12 73.22,41.22 73.05,41.34 73.02,41.48 72.99,41.62 73.16,41.8 73.31,41.93 L 73.28,41.99 C 73.09,41.9 72.84,41.78 72.81,41.47 72.82,41.17 73.04,41 73.2,40.85 73.57,40.57 73.96,40.37 74.34,40.16 74.72,39.96 75.12,39.79 75.48,39.58 75.84,39.39 76.22,39.15 76.37,38.91 76.47,38.69 76.43,38.8 75.97,38.19 75.89,38.05 75.83,37.83 75.89,37.61 75.95,37.39 76.08,37.26 76.19,37.16 76.42,36.97 76.64,36.88 76.85,36.79 77.72,36.47 78.56,36.32 79.36,36.06 79.75,35.93 80.15,35.78 80.42,35.55 80.55,35.44 80.61,35.32 80.61,35.19 80.63,35.08 80.5,34.89 80.43,34.63 80.29,34.14 80.46,33.58 80.77,33.23 81.06,32.87 81.43,32.6 81.77,32.34 82.09,32.09 82.5,31.81 82.53,31.51 82.57,31.39 82.36,31.21 82.32,30.95 82.27,30.7 82.33,30.46 82.41,30.25 82.8,29.43 83.48,28.85 84.16,28.32 L 84.2,28.38 Z M 84.2,28.38" />
            <path id="mel01Canvas-bezier60" stroke="none" fill="rgb(51, 91, 113)" d="M 83.53,36.57 C 82.97,36.9 82.42,37.27 81.93,37.69 81.69,37.9 81.46,38.12 81.28,38.36 81.11,38.61 81.01,38.88 81.08,39.05 81.12,39.15 81.16,39.17 81.32,39.37 81.38,39.47 81.45,39.59 81.47,39.74 81.49,39.9 81.45,40.07 81.37,40.2 81.05,40.65 80.7,40.74 80.37,40.86 80.04,40.96 79.71,41.03 79.39,41.08 79.24,41.11 79.07,41.15 78.98,41.18 78.95,41.21 78.92,41.13 78.94,41.21 78.97,41.26 79.03,41.33 79.09,41.39 L 79.05,41.45 C 78.96,41.44 78.88,41.42 78.79,41.35 78.75,41.32 78.69,41.27 78.68,41.17 78.67,41.07 78.71,41 78.75,40.95 78.91,40.77 79.06,40.69 79.22,40.6 79.52,40.44 79.83,40.31 80.11,40.18 80.38,40.06 80.69,39.91 80.76,39.82 80.78,39.8 80.81,39.82 80.77,39.71 80.74,39.65 80.54,39.41 80.51,39.19 80.42,38.7 80.69,38.32 80.91,38.07 81.16,37.8 81.43,37.59 81.71,37.4 82.29,37.04 82.89,36.75 83.5,36.51 L 83.53,36.57 Z M 83.53,36.57" />
            <path id="mel01Canvas-bezier61" stroke="none" fill="rgb(51, 91, 113)" d="M 84.2,39.74 C 83.88,40.15 83.57,40.61 83.46,41.08 83.4,41.31 83.42,41.53 83.54,41.65 83.59,41.71 83.67,41.75 83.82,41.87 83.96,42 84.07,42.18 84.09,42.39 84.13,42.82 83.89,43.15 83.65,43.37 83.39,43.59 83.09,43.72 82.77,43.75 82.14,43.82 81.52,43.58 81.15,43.15 L 81.18,43.08 C 81.74,43.16 82.22,43.16 82.64,43.04 82.84,42.97 83.04,42.9 83.21,42.8 83.38,42.7 83.5,42.55 83.51,42.43 83.52,42.38 83.49,42.31 83.45,42.25 83.4,42.19 83.25,42.08 83.15,41.92 82.94,41.61 83,41.23 83.11,40.97 83.36,40.43 83.75,40.05 84.15,39.69 L 84.2,39.74 Z M 84.2,39.74" />
            <path id="mel01Canvas-bezier62" stroke="none" fill="rgb(51, 91, 113)" d="M 24.96,143.38 C 23.04,148.12 22.06,153.22 21.82,158.32 21.71,160.87 21.82,163.42 22.15,165.95 22.32,167.22 22.54,168.47 22.83,169.72 23.1,170.95 23.47,172.19 23.73,173.45 24.78,178.48 25.33,183.59 25.79,188.69 26.24,193.79 26.55,198.91 26.78,204.02 27,209.14 27.16,214.26 27.2,219.39 L 27.2,223.23 27.17,225.16 27.14,226.12 27.11,226.61 27.09,226.86 C 27.08,226.96 27.09,227.01 27.03,227.19 27.1,227.08 26.82,227.57 27.03,227.15 27.1,226.93 26.47,226.56 26.71,226.73 26.69,226.73 26.71,226.73 26.72,226.73 L 26.82,226.72 27.05,226.68 27.52,226.58 28.46,226.39 30.34,225.99 C 31.59,225.73 32.84,225.45 34.1,225.21 39.14,224.23 44.2,223.32 49.29,222.65 51.84,222.33 54.39,222.05 56.97,221.96 58.25,221.93 59.54,221.94 60.83,222.07 61.47,222.14 62.11,222.25 62.73,222.43 63.33,222.63 63.98,222.9 64.33,223.47 L 64.27,223.51 C 63.92,222.98 63.29,222.73 62.69,222.56 62.08,222.4 61.44,222.32 60.81,222.27 59.53,222.18 58.25,222.21 56.98,222.28 54.43,222.43 51.88,222.74 49.35,223.11 44.29,223.85 39.26,224.85 34.25,225.91 L 30.49,226.7 28.6,227.1 27.66,227.3 27.18,227.39 26.94,227.43 26.8,227.45 C 26.77,227.45 26.75,227.46 26.69,227.46 26.91,227.64 26.25,227.27 26.32,227.02 26.54,226.59 26.27,227.06 26.35,226.93 26.34,226.96 26.37,226.85 26.37,226.79 L 26.39,226.56 26.41,226.09 26.45,225.14 26.48,223.22 26.48,219.39 C 26.46,214.28 26.36,209.16 26.18,204.05 25.99,198.93 25.72,193.83 25.31,188.73 24.88,183.63 24.36,178.53 23.35,173.53 20.49,163.68 21,152.84 24.89,143.35 L 24.96,143.38 Z M 24.96,143.38" />
            <path id="mel01Canvas-bezier63" stroke="none" fill="rgb(51, 91, 113)" d="M 65.28,224.71 C 67.08,225.2 68.9,225.6 70.73,225.93 72.56,226.27 74.41,226.53 76.26,226.66 78.11,226.79 79.96,226.76 81.77,226.57 83.58,226.39 85.41,225.95 86.82,224.72 L 86.88,224.77 C 86.32,225.54 85.5,226.11 84.63,226.51 83.75,226.91 82.81,227.13 81.87,227.3 79.97,227.58 78.07,227.45 76.2,227.24 72.47,226.82 68.81,225.94 65.26,224.78 L 65.28,224.71 Z M 65.28,224.71" />
            <path id="mel01Canvas-bezier64" stroke="none" fill="rgb(51, 91, 113)" d="M 87.74,222.17 C 88.24,216.39 88.77,210.61 89.38,204.84 89.68,201.96 90,199.07 90.39,196.2 90.58,194.76 90.81,193.31 91.08,191.9 91.29,190.48 91.38,189.03 91.45,187.59 91.7,181.81 91.48,176.01 91.38,170.22 91.25,164.42 91.13,158.62 91.15,152.82 L 91.22,152.82 C 91.66,158.6 91.98,164.4 92.11,170.2 92.19,173.1 92.22,176 92.19,178.91 92.16,181.81 92.11,184.71 91.94,187.62 91.85,189.07 91.74,190.52 91.5,191.97 91.21,193.4 90.98,194.81 90.77,196.25 90.36,199.12 90,201.99 89.66,204.87 88.99,210.63 88.38,216.4 87.82,222.17 L 87.74,222.17 Z M 87.74,222.17" />
            <path id="mel01Canvas-bezier65" stroke="none" fill="rgb(51, 91, 113)" d="M 66.23,167.91 C 66.4,168.34 66.4,168.76 66.46,169.19 66.5,169.62 66.54,170.04 66.57,170.47 66.62,171.32 66.67,172.18 66.7,173.03 66.78,174.75 66.82,176.46 66.86,178.17 66.91,181.59 66.91,185.01 66.85,188.44 66.79,191.86 66.72,195.29 66.4,198.71 66.23,200.42 66.05,202.12 65.76,203.82 65.44,205.5 65.17,207.24 64.33,208.77 L 64.27,208.74 C 64.61,207.96 64.77,207.11 64.91,206.28 65.06,205.44 65.17,204.6 65.25,203.75 65.43,202.05 65.58,200.36 65.68,198.65 65.89,195.25 66.12,191.84 66.26,188.42 66.4,185.01 66.47,181.59 66.49,178.17 66.51,176.46 66.51,174.75 66.49,173.04 66.47,172.19 66.45,171.33 66.42,170.48 66.4,170.05 66.38,169.62 66.35,169.2 66.31,168.78 66.31,168.33 66.16,167.95 L 66.23,167.91 Z M 66.23,167.91" />
            <path id="mel01Canvas-bezier66" stroke="none" fill="rgb(51, 91, 113)" d="M 30.58,227.76 C 30.89,230.19 31.24,232.62 31.69,235.03 31.92,236.23 32.16,237.43 32.46,238.61 32.78,239.79 33.03,241.02 33.19,242.25 33.51,244.7 33.61,247.18 33.45,249.65 33.26,252.11 32.96,254.56 32.34,256.95 L 32.27,256.93 C 32.47,254.49 32.67,252.05 32.72,249.61 32.79,247.18 32.85,244.74 32.61,242.31 32.48,241.1 32.29,239.91 32,238.72 31.73,237.52 31.52,236.3 31.33,235.09 30.97,232.65 30.72,230.21 30.5,227.77 L 30.58,227.76 Z M 30.58,227.76" />
            <path id="mel01Canvas-bezier67" stroke="none" fill="rgb(51, 91, 113)" d="M 62.76,224.03 C 62.19,228.39 61.57,232.75 60.88,237.1 60.55,239.27 60.24,241.45 59.77,243.61 59.52,244.68 59.28,245.76 58.99,246.82 58.69,247.88 58.4,248.96 57.9,249.96 L 57.83,249.93 C 57.99,249.41 58.1,248.87 58.2,248.33 58.3,247.8 58.4,247.26 58.49,246.71 L 59.05,243.47 C 59.43,241.31 59.89,239.16 60.31,237 L 62.69,224.02 62.76,224.03 Z M 62.76,224.03" />
            <path id="mel01Canvas-bezier68" stroke="none" fill="rgb(51, 91, 113)" d="M 57.9,251.27 C 58.17,253.67 57.98,256.11 57.43,258.48 57.16,259.67 56.82,260.86 56.26,261.95 55.69,263.03 54.99,264.05 54.11,264.9 L 54.05,264.86 C 54.61,263.78 55.14,262.73 55.6,261.64 56.05,260.55 56.53,259.47 56.87,258.33 57.21,257.2 57.45,256.03 57.61,254.85 57.78,253.67 57.87,252.47 57.83,251.27 L 57.9,251.27 Z M 57.9,251.27" />
            <path id="mel01Canvas-bezier69" stroke="none" fill="rgb(51, 91, 113)" d="M 62.18,352.38 C 59.07,338.41 56.35,324.34 54.39,310.15 53.9,306.6 53.45,303.05 53.07,299.49 52.72,295.92 52.42,292.35 52.22,288.77 52.05,285.19 51.96,281.6 52.05,278.02 52.16,274.44 52.34,270.84 53.1,267.32 L 53.17,267.34 C 52.85,269.1 52.75,270.89 52.66,272.67 52.58,274.45 52.55,276.24 52.56,278.02 52.57,281.59 52.71,285.17 52.95,288.73 53.15,292.29 53.44,295.86 53.79,299.41 54.12,302.97 54.52,306.52 54.97,310.07 55.88,317.17 56.98,324.24 58.21,331.28 59.44,338.33 60.8,345.36 62.25,352.36 L 62.18,352.38 Z M 62.18,352.38" />
            <path id="mel01Canvas-bezier70" stroke="none" fill="rgb(51, 91, 113)" d="M 47.04,357.09 C 47.2,355.17 47.01,353.23 46.76,351.33 46.5,349.41 46.11,347.52 45.65,345.65 44.73,341.9 43.51,338.23 42.11,334.64 41.42,332.83 40.66,331.07 39.91,329.28 39.16,327.5 38.43,325.7 37.74,323.9 36.34,320.29 35.05,316.64 33.89,312.95 32.73,309.25 31.7,305.52 30.84,301.74 30.01,297.95 29.35,294.12 28.96,290.26 28.61,286.4 28.49,282.5 28.83,278.63 29.16,274.77 29.94,270.92 31.37,267.32 L 31.44,267.35 C 30.19,271 29.57,274.84 29.34,278.67 29.11,282.51 29.26,286.37 29.69,290.19 30.07,294.02 30.72,297.82 31.55,301.58 32.35,305.35 33.34,309.08 34.45,312.78 35.57,316.47 36.82,320.12 38.18,323.73 38.86,325.54 39.56,327.34 40.29,329.12 41.03,330.91 41.78,332.69 42.45,334.51 43.81,338.13 44.99,341.83 45.87,345.6 46.3,347.48 46.66,349.39 46.9,351.31 47.13,353.23 47.29,355.17 47.11,357.1 L 47.04,357.09 Z M 47.04,357.09" />
            <path id="mel01Canvas-bezier71" stroke="none" fill="rgb(51, 91, 113)" d="M 83.64,229.1 C 82.95,233.39 82.21,237.68 81.4,241.96 81,244.1 80.62,246.24 80.08,248.36 79.8,249.41 79.52,250.46 79.19,251.51 78.84,252.54 78.52,253.59 77.96,254.55 L 77.89,254.52 C 78.08,254.01 78.21,253.49 78.34,252.96 78.47,252.43 78.59,251.9 78.7,251.37 78.92,250.31 79.16,249.26 79.37,248.19 79.81,246.07 80.35,243.96 80.83,241.84 81.77,237.59 82.67,233.34 83.57,229.08 L 83.64,229.1 Z M 83.64,229.1" />
            <path id="mel01Canvas-bezier72" stroke="none" fill="rgb(51, 91, 113)" d="M 77.96,255.85 C 78.23,258.25 78.04,260.7 77.49,263.07 77.22,264.25 76.88,265.44 76.32,266.53 75.76,267.62 75.05,268.64 74.17,269.49 L 74.11,269.44 C 74.67,268.36 75.2,267.31 75.66,266.22 76.11,265.14 76.59,264.06 76.93,262.92 77.27,261.78 77.51,260.62 77.67,259.44 77.84,258.26 77.93,257.06 77.89,255.86 L 77.96,255.85 Z M 77.96,255.85" />
            <path id="mel01Canvas-bezier73" stroke="none" fill="rgb(51, 91, 113)" d="M 72.7,271.93 C 71.79,277.98 71.42,284.11 71.26,290.22 71.1,296.34 71.22,302.47 71.58,308.57 71.77,311.63 72.01,314.68 72.32,317.72 72.6,320.77 72.94,323.81 73.34,326.84 74.07,332.91 75.05,338.96 76.09,344.99 L 76.02,345.01 C 74.57,339.05 73.48,333.01 72.62,326.93 72.22,323.89 71.88,320.84 71.6,317.79 71.34,314.73 71.14,311.67 71,308.61 70.71,302.48 70.67,296.34 70.89,290.21 71.16,284.09 71.62,277.96 72.63,271.92 L 72.7,271.93 Z M 72.7,271.93" />
            <path id="mel01Canvas-bezier74" stroke="none" fill="rgb(51, 91, 113)" d="M 80.26,348.4 C 80.3,347.62 79.86,346.82 79.23,346.47 78.92,346.3 78.56,346.29 78.24,346.42 77.91,346.56 77.65,346.8 77.38,347.1 77.08,347.41 76.73,347.68 76.34,347.89 75.97,348.09 75.45,348.23 75.36,348.31 75.25,348.33 75.24,348.81 75.29,349.17 75.33,349.56 75.38,349.96 75.41,350.38 L 75.34,350.4 C 75.12,350.05 74.93,349.68 74.79,349.29 74.71,349.09 74.66,348.88 74.62,348.65 74.59,348.43 74.58,348.11 74.82,347.82 75.07,347.56 75.31,347.5 75.49,347.43 75.69,347.37 75.86,347.31 76.03,347.24 76.37,347.11 76.69,346.92 76.98,346.68 77.27,346.41 77.64,346.11 78.08,345.98 78.52,345.83 79.05,345.9 79.42,346.16 80.14,346.7 80.47,347.6 80.34,348.41 L 80.26,348.4 Z M 80.26,348.4" />
            <path id="mel01Canvas-bezier75" stroke="none" fill="rgb(51, 91, 113)" d="M 76.06,350.35 L 81.53,350.27 81.83,350.26 81.61,350.47 77.76,354.12 77.6,353.79 85.18,352.57 86.42,352.37 85.38,353.08 81.25,355.87 81.06,355.24 C 83.52,355.2 85.98,355.19 88.44,355.25 L 89.7,355.28 88.61,355.87 85.92,357.33 85.77,356.83 C 87.51,356.73 89.25,356.63 90.99,356.59 L 91,356.66 C 89.27,356.93 87.54,357.14 85.81,357.36 L 84.58,357.51 85.66,356.86 88.27,355.29 88.44,355.92 C 85.98,355.98 83.52,355.96 81.06,355.93 L 79.9,355.91 80.87,355.29 85.07,352.61 85.26,353.12 77.66,354.17 77.03,354.25 77.5,353.83 81.45,350.3 81.53,350.5 76.06,350.42 76.06,350.35 76.06,350.35 Z M 76.06,350.35" />
            <path id="mel01Canvas-bezier76" stroke="none" fill="rgb(51, 91, 113)" d="M 92.91,357.54 C 94.2,358.29 95.56,358.99 97.02,359.28 97.38,359.35 97.74,359.33 98.13,359.35 98.51,359.37 98.89,359.4 99.26,359.45 100.01,359.53 100.76,359.64 101.5,359.76 102.99,360.02 104.47,360.35 105.93,360.78 107.37,361.22 108.81,361.75 110.15,362.53 110.81,362.93 111.45,363.39 111.97,364.01 112.5,364.61 112.88,365.43 112.84,366.29 112.81,367.05 112.76,367.83 112.56,368.61 112.36,369.37 111.93,370.17 111.23,370.67 110.54,371.16 109.74,371.36 108.98,371.48 108.21,371.59 107.44,371.63 106.68,371.61 105.16,371.6 103.66,371.48 102.16,371.31 L 102.17,371.23 C 103.67,371.19 105.18,371.2 106.67,371.11 107.41,371.05 108.16,371 108.87,370.86 109.58,370.72 110.28,370.5 110.8,370.09 111.33,369.69 111.65,369.09 111.83,368.41 112.01,367.73 112.08,367 112.12,366.26 112.17,365.61 111.91,364.96 111.47,364.42 111.03,363.87 110.45,363.42 109.84,363.03 108.6,362.25 107.2,361.7 105.78,361.24 104.36,360.78 102.91,360.41 101.44,360.12 99.96,359.81 98.5,359.62 96.98,359.49 95.48,359.14 94.14,358.4 92.87,357.6 L 92.91,357.54 Z M 92.91,357.54" />
            <path id="mel01Canvas-bezier77" stroke="none" fill="rgb(51, 91, 113)" d="M 100.94,370.83 C 98,371 95.06,371.04 92.12,370.94 90.65,370.88 89.17,370.84 87.71,370.58 86.98,370.45 86.25,370.29 85.54,370.06 84.83,369.84 84.12,369.56 83.51,369.13 L 83.54,369.06 C 84.93,369.53 86.37,369.68 87.81,369.86 89.26,370.02 90.7,370.22 92.16,370.35 93.61,370.48 95.07,370.56 96.54,370.62 98,370.7 99.47,370.74 100.93,370.76 L 100.94,370.83 Z M 100.94,370.83" />
            <path id="mel01Canvas-bezier78" stroke="none" fill="rgb(51, 91, 113)" d="M 57.23,356.46 C 56.78,356.05 56.37,355.6 56.04,355.06 55.88,354.8 55.75,354.51 55.7,354.17 55.65,353.84 55.77,353.45 56.03,353.21 56.29,352.97 56.63,352.85 56.9,352.76 L 57.76,352.45 C 58.34,352.25 58.93,352.07 59.52,351.91 60.12,351.75 60.73,351.62 61.37,351.56 61.99,351.53 62.73,351.52 63.35,352.07 63.66,352.35 63.77,352.8 63.79,353.1 63.81,353.39 63.86,353.67 63.91,353.96 63.97,354.24 64.06,354.51 64.19,354.77 64.3,355.03 64.47,355.28 64.69,355.46 L 64.67,355.52 C 64.04,355.3 63.68,354.69 63.43,354.11 63.3,353.82 63.22,353.51 63.15,353.2 63.09,352.9 63.02,352.74 62.86,352.61 62.55,352.34 61.96,352.28 61.4,352.29 60.83,352.29 60.24,352.37 59.65,352.48 59.07,352.6 58.48,352.74 57.9,352.9 L 57.04,353.15 C 56.73,353.24 56.48,353.31 56.28,353.48 55.85,353.79 55.97,354.45 56.24,354.96 56.5,355.49 56.87,355.97 57.28,356.41 L 57.23,356.46 Z M 57.23,356.46" />
            <path id="mel01Canvas-bezier79" stroke="none" fill="rgb(51, 91, 113)" d="M 58.53,356.4 L 66.48,356.29 67.02,356.28 66.55,356.56 63.32,358.48 C 62.78,358.8 62.25,359.12 61.72,359.46 61.47,359.63 61.2,359.8 60.97,359.98 60.95,360 60.92,360.02 60.91,360.03 60.91,360.03 60.92,360.03 60.92,360.01 60.94,359.99 60.95,359.96 60.95,359.93 60.97,359.85 60.86,359.74 60.84,359.74 60.75,359.7 60.76,359.72 60.75,359.71 60.73,359.72 60.75,359.71 60.75,359.71 L 60.98,359.67 61.46,359.6 C 62.7,359.42 63.95,359.28 65.19,359.13 L 67.06,358.91 67.99,358.8 68.46,358.74 68.69,358.71 68.81,358.69 68.86,358.69 68.88,358.68 68.87,358.68 C 68.77,358.78 69.09,358.48 68.65,358.89 68.9,359.59 68.81,359.14 68.89,359.29 68.96,359.3 68.98,359.29 68.96,359.29 L 68.62,359.44 68.2,359.63 67.36,360.04 65.7,360.89 C 65.15,361.19 64.59,361.48 64.07,361.79 63.94,361.87 63.81,361.95 63.69,362.03 63.64,362.06 63.57,362.11 63.57,362.12 63.57,362.09 63.58,362.16 63.64,361.96 63.67,362.06 63.6,361.73 63.61,361.77 L 63.62,361.78 C 63.63,361.81 63.6,361.71 63.56,361.68 63.53,361.64 63.44,361.59 63.45,361.59 L 63.44,361.59 C 63.41,361.58 63.45,361.59 63.48,361.59 63.73,361.63 64.06,361.64 64.36,361.65 66.85,361.69 69.36,361.67 71.87,361.67 L 73.27,361.66 71.97,362.14 C 70.37,362.72 68.77,363.3 67.16,363.84 L 67.13,363.77 C 68.67,363.05 70.22,362.36 71.78,361.68 L 71.88,362.16 C 70.63,362.24 69.38,362.28 68.12,362.34 66.87,362.39 65.61,362.42 64.35,362.4 64.02,362.39 63.72,362.39 63.36,362.34 63.31,362.33 63.27,362.33 63.17,362.3 L 63.13,362.28 C 63.13,362.28 63.03,362.23 62.99,362.18 62.95,362.14 62.9,362.05 62.91,362.06 L 62.91,362.06 C 62.92,362.1 62.86,361.75 62.89,361.86 62.95,361.61 62.99,361.65 63.02,361.6 63.13,361.49 63.19,361.46 63.27,361.4 63.41,361.31 63.55,361.23 63.69,361.14 64.25,360.83 64.81,360.54 65.37,360.26 L 67.07,359.44 67.93,359.05 68.37,358.86 68.6,358.77 C 68.69,358.74 68.71,358.71 68.91,358.68 68.89,358.68 68.92,358.67 68.99,358.68 69.08,358.83 69,358.38 69.24,359.08 68.8,359.5 69.11,359.19 69,359.29 L 68.99,359.29 68.95,359.3 68.88,359.31 68.77,359.32 68.53,359.34 68.06,359.39 67.12,359.48 65.25,359.66 C 64.01,359.78 62.76,359.9 61.52,360.05 L 61.06,360.11 60.83,360.15 C 60.81,360.15 60.81,360.16 60.78,360.16 60.74,360.15 60.74,360.17 60.62,360.12 60.6,360.13 60.49,360 60.5,359.91 60.51,359.87 60.52,359.84 60.53,359.8 60.55,359.77 60.57,359.75 60.58,359.74 60.63,359.69 60.66,359.66 60.7,359.63 60.97,359.43 61.23,359.27 61.5,359.1 62.04,358.77 62.58,358.46 63.13,358.15 64.21,357.52 65.31,356.91 66.41,356.31 L 66.48,356.58 58.53,356.47 58.53,356.4 58.53,356.4 Z M 58.53,356.4" />
            <path id="mel01Canvas-bezier80" stroke="none" fill="rgb(51, 91, 113)" d="M 73.54,363.3 C 74.76,364.2 76,365.09 77.24,365.96 78.49,366.82 79.74,367.71 81.06,368.42 82.5,368.99 83.64,370.32 84.04,371.84 84.47,373.37 84.23,374.99 83.75,376.45 L 83.75,376.46 83.74,376.47 C 83.57,376.84 83.24,377.06 82.94,377.21 82.63,377.36 82.31,377.46 81.99,377.54 81.36,377.69 80.72,377.76 80.08,377.81 78.8,377.9 77.52,377.88 76.25,377.82 75.62,377.79 74.98,377.75 74.35,377.7 73.7,377.63 73.13,377.6 72.5,377.64 71.27,377.71 70,377.89 68.72,377.94 66.16,378.07 63.57,377.69 61.13,376.91 58.7,376.14 56.4,374.99 54.25,373.66 L 54.29,373.6 C 56.55,374.72 58.88,375.7 61.3,376.36 63.71,377.03 66.2,377.3 68.69,377.18 69.94,377.14 71.18,376.99 72.47,376.94 73.11,376.91 73.8,376.96 74.41,377.04 75.03,377.11 75.66,377.16 76.29,377.2 77.54,377.29 78.8,377.33 80.04,377.27 80.66,377.23 81.28,377.17 81.88,377.04 82.45,376.91 83.1,376.7 83.31,376.28 L 83.3,376.3 C 83.79,374.9 84.03,373.37 83.66,371.95 83.3,370.53 82.31,369.27 80.93,368.68 79.58,367.92 78.37,367 77.14,366.11 75.91,365.21 74.7,364.29 73.49,363.36 L 73.54,363.3 Z M 73.54,363.3" />
            <path id="mel01Canvas-bezier81" stroke="none" fill="rgb(51, 91, 113)" d="M 51.72,372.63 C 49.91,372.82 48.01,372.78 46.26,372.08 45.4,371.71 44.59,371.11 44.11,370.25 43.62,369.4 43.53,368.37 43.59,367.46 43.63,365.63 43.73,363.79 44.06,361.98 44.25,361.08 44.44,360.17 44.74,359.29 44.9,358.85 45.06,358.42 45.29,358 45.42,357.8 45.55,357.59 45.75,357.43 45.85,357.35 45.99,357.28 46.14,357.31 46.28,357.35 46.37,357.45 46.44,357.54 L 46.39,357.59 C 46.22,357.42 46.02,357.43 45.89,357.59 45.76,357.74 45.67,357.94 45.59,358.15 45.43,358.55 45.33,358.99 45.23,359.43 45.05,360.31 44.89,361.2 44.79,362.09 44.55,363.88 44.29,365.68 44.17,367.49 44.08,368.39 44.13,369.25 44.53,370.02 44.91,370.79 45.61,371.37 46.41,371.74 48.03,372.5 49.91,372.65 51.71,372.55 L 51.72,372.63 Z M 51.72,372.63" />
            <path id="mel01Canvas-bezier82" stroke="none" fill="rgb(51, 91, 113)" d="M 48.34,360.1 C 48.97,361.16 49.77,362.14 50.74,362.86 51.7,363.6 52.9,364.02 54.04,363.76 55.13,363.49 56.29,362.8 56.5,361.8 56.62,361.3 56.52,360.71 56.41,360.11 56.35,359.81 56.28,359.5 56.24,359.18 56.22,359.01 56.22,358.84 56.27,358.66 56.3,358.48 56.46,358.33 56.62,358.29 L 56.65,358.36 C 56.39,358.53 56.47,358.84 56.56,359.11 56.65,359.39 56.78,359.67 56.9,359.97 57.12,360.55 57.32,361.22 57.21,361.94 57.15,362.3 57,362.65 56.79,362.94 56.57,363.24 56.29,363.46 56.01,363.65 55.43,364 54.81,364.23 54.14,364.34 52.79,364.56 51.46,363.98 50.51,363.15 49.56,362.3 48.83,361.25 48.27,360.14 L 48.34,360.1 Z M 48.34,360.1" />
            <path id="mel01Canvas-bezier83" stroke="none" fill="rgb(51, 91, 113)" d="M 73.86,351.36 C 73.24,351.78 72.82,352.51 72.92,353.2 72.96,353.55 73.09,353.86 73.28,354.2 73.37,354.39 73.45,354.61 73.47,354.84 73.49,355.08 73.42,355.35 73.27,355.56 72.96,355.97 72.54,356.14 72.16,356.29 71.77,356.43 71.38,356.51 70.99,356.54 70.21,356.61 69.44,356.59 68.66,356.47 L 68.65,356.4 C 69.4,356.12 70.15,355.98 70.88,355.82 71.25,355.74 71.61,355.69 71.95,355.6 72.3,355.53 72.63,355.4 72.81,355.21 72.98,355.03 72.98,354.71 72.85,354.4 72.7,354.06 72.55,353.63 72.56,353.22 72.55,352.35 73.14,351.65 73.83,351.3 L 73.86,351.36 Z M 73.86,351.36" />
            <path id="mel01Canvas-bezier84" stroke="none" fill="rgb(51, 91, 113)" d="M 108.16,37.05 C 108.02,36.91 107.92,36.72 107.9,36.5 107.88,36.4 107.87,36.27 107.93,36.17 108,36.08 108.1,36 108.23,36 L 108.26,36.02 C 108.28,36.16 108.26,36.23 108.27,36.31 108.26,36.38 108.21,36.44 108.19,36.51 108.15,36.66 108.15,36.85 108.2,37.03 L 108.16,37.05 Z M 108.16,37.05" />
            <path id="mel01Canvas-bezier85" stroke="none" fill="rgb(51, 91, 113)" d="M 121.72,35.21 C 121.59,35.07 121.48,34.89 121.46,34.67 121.44,34.56 121.43,34.43 121.49,34.34 121.56,34.24 121.66,34.17 121.79,34.16 L 121.82,34.19 C 121.84,34.32 121.82,34.4 121.83,34.48 121.83,34.55 121.77,34.6 121.75,34.68 121.71,34.83 121.71,35.01 121.76,35.19 L 121.72,35.21 Z M 121.72,35.21" />
        </g>
    </g>
</svg>
