<?xml version="1.0" encoding="UTF-8"?>
<!DOCTYPE svg PUBLIC "-//W3C//DTD SVG 1.1//EN" "http://www.w3.org/Graphics/SVG/1.1/DTD/svg11.dtd">
<svg version="1.1" xmlns="http://www.w3.org/2000/svg" xmlns:xlink="http://www.w3.org/1999/xlink" width="182" height="378"  xml:space="preserve" id="mel05Canvas">
    <!-- Generated by PaintCode - http://www.paintcodeapp.com -->
    <g id="mel05Canvas-lines">
        <path id="mel05Canvas-bezier" stroke="none" fill="rgb(51, 91, 113)" d="M 118.82,158.72 C 119.88,160.02 120.49,161.59 121.02,163.15 121.54,164.72 121.9,166.34 122.17,167.98 122.71,171.24 122.89,174.56 122.89,177.86 122.87,184.48 122.13,191.08 121.04,197.6 119.95,204.12 118.5,210.58 116.85,216.98 114.81,223.27 114.69,229.93 115,236.47 L 115.02,236.86 114.64,236.91 C 109.43,237.55 104.23,238.27 99.04,239.04 96.45,239.44 93.87,239.86 91.29,240.34 90.01,240.59 88.73,240.85 87.47,241.15 86.22,241.47 84.89,241.74 83.87,242.34 83.19,242.74 82.48,242.83 81.81,242.91 81.14,242.98 80.47,242.99 79.8,242.99 78.47,242.98 77.16,242.9 75.84,242.79 73.22,242.58 70.61,242.28 68,241.99 65.39,241.7 62.78,241.43 60.17,241.23 58.86,241.13 57.56,241.05 56.25,241.04 54.94,241.04 53.62,241.07 52.35,241.37 L 52.33,241.28 C 53.6,240.93 54.93,240.85 56.24,240.8 57.56,240.76 58.88,240.79 60.19,240.84 62.82,240.95 65.44,241.2 68.05,241.44 70.67,241.67 73.28,241.93 75.89,242.09 77.2,242.17 78.51,242.23 79.8,242.21 80.45,242.2 81.09,242.18 81.72,242.1 82.34,242.02 82.98,241.9 83.42,241.61 84.03,241.21 84.69,241 85.32,240.79 85.96,240.59 86.6,240.41 87.25,240.25 88.54,239.94 89.83,239.68 91.12,239.43 93.71,238.94 96.31,238.52 98.91,238.12 104.11,237.33 109.32,236.68 114.54,236.09 L 114.18,236.53 C 114.02,233.2 114.06,229.89 114.32,226.57 114.45,224.92 114.65,223.27 114.97,221.63 115.29,219.98 115.81,218.41 116.21,216.81 117.92,210.44 119.41,204.01 120.55,197.51 121.68,191.02 122.51,184.45 122.59,177.86 122.63,174.57 122.48,171.26 121.98,168.01 121.72,166.38 121.38,164.76 120.88,163.19 120.38,161.64 119.78,160.06 118.75,158.78 L 118.82,158.72 Z M 118.82,158.72" />
        <path id="mel05Canvas-bezier2" stroke="none" fill="rgb(51, 91, 113)" d="M 51,241.62 C 50.74,241.83 50.38,241.96 50.03,241.86 49.68,241.75 49.45,241.45 49.3,241.16 48.99,240.55 48.86,239.88 48.77,239.23 48.6,237.91 48.61,236.58 48.65,235.25 48.78,232.62 48.69,229.98 48.5,227.35 48.11,222.1 47.39,216.85 46.14,211.75 45.47,209.2 44.76,206.7 43.34,204.47 42.14,202 41.53,199.4 40.92,196.82 39.82,191.62 39.04,186.38 38.59,181.11 L 38.69,181.1 C 39.66,186.29 40.58,191.5 41.83,196.61 42.13,197.89 42.46,199.16 42.84,200.41 43.21,201.66 43.61,202.91 44.17,204.05 44.43,204.58 44.83,205.2 45.09,205.82 45.36,206.44 45.6,207.08 45.81,207.71 46.23,208.98 46.57,210.27 46.87,211.57 48.04,216.76 48.67,222.03 48.96,227.32 49.09,229.97 49.12,232.62 48.93,235.26 48.86,236.58 48.82,237.9 48.96,239.2 49.03,239.85 49.14,240.51 49.42,241.09 49.56,241.38 49.77,241.65 50.06,241.75 50.36,241.85 50.7,241.74 50.94,241.55 L 51,241.62 Z M 51,241.62" />
        <path id="mel05Canvas-bezier3" stroke="none" fill="rgb(51, 91, 113)" d="M 85.72,245.51 C 85.79,247.64 85.93,249.77 86.11,251.9 86.28,254.02 86.49,256.14 86.77,258.24 87.06,260.35 87.47,262.43 87.85,264.51 88.22,266.58 88.68,268.64 89.48,270.61 L 89.4,270.66 C 88.1,268.9 87.48,266.77 86.93,264.7 86.43,262.6 86.22,260.46 86.03,258.33 85.65,254.06 85.53,249.78 85.63,245.52 L 85.72,245.52 85.72,245.51 Z M 85.72,245.51" />
        <path id="mel05Canvas-bezier4" stroke="none" fill="rgb(51, 91, 113)" d="M 89.49,272.51 C 89.91,277.32 90.22,282.14 90.23,286.97 90.21,289.38 90.14,291.84 89.63,294.2 89.34,296.55 89.37,298.98 89.39,301.38 89.46,306.19 89.77,311 89.91,315.82 90.02,320.64 90.28,325.46 90.05,330.29 L 89.96,330.29 88.98,315.86 C 88.71,311.04 88.61,306.21 88.64,301.38 88.67,298.96 88.68,296.55 89.03,294.11 89.58,291.76 89.69,289.38 89.76,286.96 89.87,282.16 89.69,277.33 89.4,272.52 L 89.49,272.51 Z M 89.49,272.51" />
        <path id="mel05Canvas-bezier5" stroke="none" fill="rgb(51, 91, 113)" d="M 78.64,365.63 C 78.01,367.13 77.48,368.68 77.1,370.25 76.74,371.81 76.46,373.46 76.78,375 76.93,375.75 77.31,376.46 77.95,376.83 78.57,377.2 79.41,377.26 80.19,377.35 81.79,377.48 83.41,377.41 85,377.22 88.2,376.81 91.33,375.91 94.12,374.41 95.52,373.66 96.8,372.69 97.8,371.48 98.81,370.27 99.49,368.78 99.77,367.18 L 99.87,367.19 C 99.85,368.83 99.29,370.49 98.32,371.87 97.35,373.26 96.01,374.34 94.59,375.21 91.68,376.92 88.35,377.64 85.08,377.96 83.44,378.11 81.78,378.14 80.13,377.95 79.31,377.83 78.46,377.77 77.66,377.28 76.88,376.79 76.46,375.91 76.32,375.09 76.05,373.4 76.41,371.75 76.83,370.18 77.28,368.6 77.86,367.07 78.56,365.59 L 78.64,365.63 Z M 78.64,365.63" />
        <path id="mel05Canvas-bezier6" stroke="none" fill="rgb(51, 91, 113)" d="M 99.79,363.7 C 100.57,362.74 101.25,361.7 101.77,360.6 102.29,359.5 102.62,358.35 102.41,357.17 102.27,355.95 102.05,354.73 101.98,353.49 101.92,352.26 101.87,351.02 101.97,349.76 L 102.07,349.75 C 102.47,350.95 102.71,352.17 102.91,353.4 103.1,354.62 103.12,355.87 103.15,357.12 103.2,357.72 103.14,358.46 102.95,359.06 102.76,359.69 102.49,360.27 102.18,360.82 101.53,361.91 100.74,362.88 99.86,363.76 L 99.79,363.7 Z M 99.79,363.7" />
        <path id="mel05Canvas-bezier7" stroke="none" fill="rgb(51, 91, 113)" d="M 80.17,362.43 L 90.86,362.26 90.75,362.65 81.56,357.03 80.57,356.42 81.74,356.4 90.86,356.28 90.61,357.13 C 88.23,355.61 85.87,354.06 83.56,352.46 L 82.61,351.8 83.74,351.7 C 85.37,351.55 87,351.4 88.63,351.28 90.26,351.15 91.89,351.05 93.53,350.96 L 93.54,351.06 C 91.93,351.34 90.31,351.6 88.69,351.84 87.07,352.09 85.45,352.31 83.83,352.52 L 84.01,351.76 C 86.41,353.25 88.77,354.79 91.11,356.36 L 92.41,357.23 90.86,357.2 81.74,357.08 81.92,356.46 90.97,362.3 91.59,362.69 90.86,362.68 80.17,362.52 80.17,362.43 Z M 80.17,362.43" />
        <path id="mel05Canvas-bezier8" stroke="none" fill="rgb(51, 91, 113)" d="M 84.68,348.51 C 84.59,347.82 84.59,347.12 84.7,346.43 84.82,345.75 85.06,345.04 85.55,344.48 86.04,343.91 86.79,343.59 87.52,343.51 88.27,343.43 88.92,343.49 89.62,343.49 91,343.55 92.42,343.57 93.79,344.11 94.45,344.4 95.19,344.81 95.53,345.59 95.86,346.4 95.55,347.19 95.15,347.73 L 95.06,347.69 C 95.23,347.03 95.28,346.34 94.96,345.89 94.63,345.45 94.07,345.17 93.47,344.99 92.26,344.62 90.92,344.39 89.57,344.24 88.91,344.18 88.19,344.09 87.58,344.11 86.95,344.14 86.34,344.35 85.89,344.8 84.98,345.7 84.73,347.17 84.77,348.49 L 84.68,348.51 Z M 84.68,348.51" />
        <path id="mel05Canvas-bezier9" stroke="none" fill="rgb(51, 91, 113)" d="M 96.41,351.01 C 96.64,352.08 96.93,353.22 97.44,354.14 97.5,354.24 97.58,354.35 97.65,354.4 97.74,354.45 97.69,354.43 97.72,354.41 97.82,354.34 97.95,354.07 98.03,353.83 98.19,353.33 98.33,352.77 98.47,352.23 98.75,351.15 98.93,350.04 99.34,348.97 99.54,348.44 99.75,347.91 100.06,347.39 100.23,347.14 100.34,346.87 100.73,346.66 100.84,346.6 101.03,346.62 101.12,346.71 101.21,346.79 101.25,346.87 101.28,346.94 101.34,347.1 101.35,347.24 101.36,347.39 L 101.27,347.41 C 101.2,347.29 101.13,347.17 101.05,347.08 101.01,347.04 100.96,347 100.93,347 100.9,347 100.94,347.02 100.92,347.04 100.84,347.13 100.73,347.43 100.66,347.67 100.5,348.18 100.37,348.72 100.23,349.25 99.96,350.33 99.55,351.38 99.18,352.45 99,352.98 98.82,353.51 98.59,354.05 98.46,354.33 98.37,354.61 98.01,354.87 97.91,354.93 97.76,354.97 97.62,354.94 97.48,354.91 97.39,354.84 97.31,354.77 97.18,354.64 97.1,354.5 97.03,354.36 96.57,353.25 96.44,352.15 96.32,351.01 L 96.41,351.01 Z M 96.41,351.01" />
        <path id="mel05Canvas-bezier10" stroke="none" fill="rgb(51, 91, 113)" d="M 76.44,365.66 C 74.07,366.16 71.65,366.46 69.2,366.44 67.98,366.4 66.75,366.29 65.55,365.94 64.37,365.59 63.12,364.95 62.45,363.75 62.1,363.17 61.98,362.46 61.9,361.88 61.81,361.25 61.77,360.64 61.78,360.01 61.8,358.75 62.06,357.48 62.56,356.32 63.6,353.99 65.46,352.18 67.57,350.97 L 67.62,351.05 C 65.84,352.68 64.22,354.49 63.42,356.67 63,357.74 62.77,358.88 62.7,360.04 62.67,360.61 62.68,361.21 62.73,361.78 62.79,362.4 62.85,362.91 63.1,363.39 63.59,364.36 64.63,364.99 65.73,365.36 66.84,365.73 68.03,365.89 69.22,365.97 71.61,366.12 74.04,365.94 76.42,365.56 L 76.44,365.66 Z M 76.44,365.66" />
        <path id="mel05Canvas-bezier11" stroke="none" fill="rgb(51, 91, 113)" d="M 69.34,349.71 L 77.85,351.46 77.69,351.78 71.33,346.37 70.63,345.77 71.55,345.84 79.26,346.42 78.93,347.09 74.63,342.55 73.86,341.74 74.98,341.74 C 77.39,341.73 79.8,341.78 82.21,341.84 L 82,342.54 C 80.94,341.82 79.9,341.05 78.85,340.31 77.8,339.57 76.77,338.8 75.75,338.02 L 75.8,337.94 C 76.92,338.58 78.03,339.22 79.13,339.89 80.23,340.56 81.34,341.21 82.42,341.9 L 83.47,342.57 82.21,342.6 C 79.8,342.66 77.39,342.71 74.98,342.7 L 75.33,341.89 79.52,346.55 80.21,347.32 79.19,347.22 71.49,346.44 71.72,345.92 77.93,351.5 78.48,351.99 77.77,351.82 69.32,349.8 69.34,349.71 Z M 69.34,349.71" />
        <path id="mel05Canvas-bezier12" stroke="none" fill="rgb(51, 91, 113)" d="M 78.39,336.41 C 78.35,335.95 78.36,335.49 78.44,335.03 78.52,334.57 78.65,334.07 79.08,333.7 79.53,333.32 80.18,333.39 80.63,333.56 81.12,333.74 81.49,333.98 81.9,334.2 82.7,334.65 83.58,335.1 84.17,335.95 84.77,336.79 84.93,337.85 84.74,338.76 L 84.65,338.77 C 84.32,337.89 84,337.11 83.44,336.52 82.89,335.94 82.24,335.34 81.5,334.83 81.14,334.58 80.76,334.3 80.4,334.12 80.04,333.94 79.65,333.88 79.35,334.08 79.04,334.26 78.84,334.68 78.71,335.09 78.58,335.51 78.51,335.96 78.49,336.41 L 78.39,336.41 Z M 78.39,336.41" />
        <path id="mel05Canvas-bezier13" stroke="none" fill="rgb(51, 91, 113)" d="M 86.81,341.41 C 87.47,339.93 88.07,338.42 88.58,336.9 88.83,336.14 88.98,335.35 89.25,334.61 89.51,333.86 89.76,333.13 90.01,332.33 L 90.11,332.33 C 90.37,333.16 90.3,334.03 90.15,334.85 90,335.68 89.61,336.42 89.27,337.17 88.59,338.67 87.79,340.1 86.89,341.46 L 86.81,341.41 Z M 86.81,341.41" />
        <path id="mel05Canvas-bezier14" stroke="none" fill="rgb(51, 91, 113)" d="M 102.77,343.17 C 102.67,341.56 102.52,339.95 102.3,338.36 102.05,336.78 101.83,335.16 101.17,333.71 100.87,332.87 101.02,332.04 101.12,331.24 101.24,330.43 101.41,329.64 101.6,328.85 101.99,327.28 102.47,325.73 102.97,324.2 103.98,321.13 105.11,318.1 106.32,315.1 L 107.24,312.87 C 107.54,312.14 107.77,311.38 107.99,310.61 108.42,309.07 108.78,307.5 109.1,305.93 110.38,299.63 111.12,293.23 111.5,286.82 111.85,280.43 111.77,273.95 110.31,267.66 L 110.4,267.64 C 112.39,273.82 112.62,280.42 112.43,286.87 112.17,293.34 111.22,299.77 109.83,306.09 109.48,307.66 109.1,309.24 108.64,310.8 108.4,311.57 108.16,312.35 107.83,313.11 L 106.88,315.34 C 105.64,318.3 104.46,321.3 103.41,324.35 102.88,325.86 102.38,327.39 101.97,328.94 101.76,329.72 101.57,330.5 101.44,331.29 101.33,332.06 101.19,332.9 101.43,333.6 102.08,335.11 102.27,336.74 102.48,338.34 102.67,339.94 102.79,341.55 102.86,343.16 L 102.77,343.17 Z M 102.77,343.17" />
        <path id="mel05Canvas-bezier15" stroke="none" fill="rgb(51, 91, 113)" d="M 109.21,264.66 C 109.39,260.48 109.68,256.31 110.08,252.14 110.28,250.05 110.45,247.96 110.85,245.89 111.29,243.85 111.7,241.75 112.67,239.85 L 112.75,239.88 C 112.31,241.92 112.04,243.98 111.77,246.04 111.5,248.11 111.12,250.16 110.82,252.23 110.25,256.36 109.75,260.51 109.3,264.67 L 109.21,264.66 Z M 109.21,264.66" />
        <path id="mel05Canvas-bezier16" stroke="none" fill="rgb(51, 91, 113)" d="M 51.29,244.38 C 51.84,247.09 52.54,249.76 53.29,252.42 54.03,255.08 54.85,257.71 55.76,260.32 56.67,262.92 57.73,265.46 58.77,268 59.8,270.55 60.98,273.03 62.27,275.47 L 62.19,275.53 C 60.44,273.36 59.11,270.88 57.92,268.37 56.75,265.84 55.88,263.2 55.05,260.55 54.22,257.9 53.49,255.23 52.84,252.54 52.21,249.84 51.62,247.13 51.19,244.4 L 51.29,244.38 Z M 51.29,244.38" />
        <path id="mel05Canvas-bezier17" stroke="none" fill="rgb(51, 91, 113)" d="M 82.26,245.51 C 82.84,251.41 83.27,257.33 83.5,263.27 83.62,266.23 83.75,269.21 83.6,272.18 83.41,275.14 83.24,278.16 82.26,281.01 L 82.17,280.98 C 82.62,278.06 82.64,275.11 82.67,272.15 82.69,269.2 82.77,266.24 82.75,263.28 82.69,257.36 82.48,251.44 82.17,245.52 L 82.26,245.51 Z M 82.26,245.51" />
        <path id="mel05Canvas-bezier18" stroke="none" fill="rgb(51, 91, 113)" d="M 84.74,280.5 C 85.63,281.96 86.45,283.45 87.2,284.98 87.57,285.75 88.01,286.5 88.23,287.34 88.46,288.17 88.64,289.05 88.5,289.94 L 88.41,289.95 C 88.04,289.16 87.69,288.42 87.35,287.65 87.01,286.89 86.81,286.07 86.52,285.27 85.93,283.69 85.3,282.11 84.66,280.55 L 84.74,280.5 Z M 84.74,280.5" />
        <path id="mel05Canvas-bezier19" stroke="none" fill="rgb(51, 91, 113)" d="M 60.25,275.49 C 60.79,277.1 61.41,278.68 62.11,280.2 62.47,280.96 62.92,281.66 63.27,282.4 63.63,283.14 63.98,283.86 64.48,284.57 L 64.42,284.64 C 63.56,284.31 62.95,283.58 62.46,282.87 61.96,282.13 61.71,281.29 61.42,280.48 60.85,278.85 60.44,277.19 60.16,275.51 L 60.25,275.49 Z M 60.25,275.49" />
        <path id="mel05Canvas-bezier20" stroke="none" fill="rgb(51, 91, 113)" d="M 64.49,286.34 C 64.26,288.41 64.49,290.55 65.19,292.5 65.55,293.47 66.04,294.4 66.66,295.22 67.31,296.01 68,296.87 68.56,297.75 70.89,301.27 72.94,304.95 74.92,308.66 76.9,312.38 78.82,316.13 80.37,320.06 81.13,322.03 81.85,324.02 82.4,326.07 82.66,327.09 82.89,328.13 83.02,329.19 83.12,330.23 83.22,331.36 82.74,332.35 L 82.66,332.31 C 82.98,331.32 82.8,330.26 82.6,329.26 82.4,328.24 82.1,327.24 81.77,326.25 81.11,324.28 80.35,322.33 79.51,320.41 77.86,316.57 76.14,312.75 74.26,309 72.37,305.26 70.4,301.55 68.17,298 67.62,297.1 67.02,296.29 66.36,295.44 65.74,294.57 65.27,293.6 64.93,292.59 64.26,290.57 64.1,288.41 64.4,286.33 L 64.49,286.34 Z M 64.49,286.34" />
        <path id="mel05Canvas-bezier21" stroke="none" fill="rgb(51, 91, 113)" d="M 66.19,16.08 C 66.12,14.88 65.73,13.71 65.31,12.58 64.88,11.46 64.35,10.37 63.73,9.34 62.49,7.28 60.88,5.43 58.95,4.01 55.11,1.09 50.04,0.22 45.35,0.91 43,1.27 40.73,2.09 38.72,3.34 36.7,4.58 34.93,6.2 33.47,8.06 30.51,11.78 28.69,16.42 28.22,21.22 L 28.12,21.22 C 28.06,16.34 29.79,11.46 32.73,7.49 34.23,5.52 36.09,3.8 38.24,2.55 40.39,1.29 42.79,0.48 45.25,0.18 47.7,-0.14 50.2,-0.04 52.6,0.51 55.01,1.07 57.3,2.13 59.24,3.64 61.18,5.15 62.77,7.08 63.97,9.2 64.57,10.26 65.08,11.37 65.49,12.52 65.88,13.67 66.24,14.85 66.29,16.07 L 66.19,16.08 Z M 66.19,16.08" />
        <path id="mel05Canvas-bezier22" stroke="none" fill="rgb(51, 91, 113)" d="M 29.81,24.74 C 29.37,24.04 28.68,23.41 27.88,23.31 27.07,23.21 26.34,23.71 25.78,24.29 25.24,24.85 25.02,25.68 24.9,26.48 24.79,27.3 24.81,28.14 24.9,28.97 25.1,30.62 25.61,32.23 26.37,33.64 26.75,34.34 27.25,34.98 27.9,35.39 28.55,35.81 29.39,35.88 30.22,35.66 L 30.26,35.75 C 29.88,35.98 29.45,36.14 28.99,36.19 28.53,36.24 28.05,36.16 27.61,35.98 26.71,35.61 26.06,34.88 25.57,34.12 24.59,32.57 24.26,30.77 24.15,29.03 24.11,28.15 24.14,27.26 24.3,26.39 24.48,25.53 24.76,24.62 25.45,23.96 26.1,23.37 26.99,22.85 27.93,23.03 28.85,23.23 29.49,23.95 29.9,24.7 L 29.81,24.74 Z M 29.81,24.74" />
        <path id="mel05Canvas-bezier23" stroke="none" fill="rgb(51, 91, 113)" d="M 29.26,37.41 C 29.83,39.76 30.22,42.16 30.46,44.57 30.69,46.98 30.76,49.42 30.57,51.85 30.37,54.27 29.97,56.76 28.84,59 28.26,60.1 27.55,61.15 26.65,62.02 25.75,62.88 24.67,63.55 23.51,63.95 L 23.47,63.87 C 25.55,62.62 27.08,60.75 28,58.6 28.94,56.46 29.53,54.14 29.82,51.78 30.11,49.41 30.13,47 30,44.6 29.88,42.2 29.62,39.8 29.17,37.43 L 29.26,37.41 Z M 29.26,37.41" />
        <path id="mel05Canvas-bezier24" stroke="none" fill="rgb(51, 91, 113)" d="M 35.24,46.99 C 36.32,48.55 37.67,49.93 39.15,51.11 40.62,52.29 42.28,53.24 44.04,53.84 45.82,54.45 47.67,54.63 49.54,54.6 50.42,54.58 51.35,54.42 52.21,54.13 53.07,53.83 53.92,53.4 54.5,52.64 L 54.58,52.69 C 54.21,53.62 53.34,54.27 52.46,54.73 51.57,55.19 50.59,55.43 49.57,55.53 47.6,55.69 45.6,55.27 43.79,54.54 41.96,53.82 40.3,52.74 38.85,51.46 37.41,50.16 36.15,48.68 35.16,47.03 L 35.24,46.99 Z M 35.24,46.99" />
        <path id="mel05Canvas-bezier25" stroke="none" fill="rgb(51, 91, 113)" d="M 55.33,52.19 C 56.47,50.68 57.56,49.14 58.61,47.57 59.14,46.78 59.65,45.99 60.14,45.19 60.62,44.38 61.09,43.57 61.43,42.73 L 61.44,42.7 61.47,42.67 C 61.93,41.93 62.4,41.21 62.78,40.48 63.17,39.74 63.49,38.98 63.73,38.19 64.23,36.6 64.41,34.89 64.6,33.16 L 64.7,33.16 C 64.99,34.88 65.02,36.67 64.61,38.43 64.4,39.3 64.07,40.16 63.6,40.93 63.16,41.71 62.61,42.4 62.11,43.1 L 62.14,43.04 C 61.27,44.79 60.13,46.32 59,47.84 57.84,49.35 56.64,50.81 55.4,52.25 L 55.33,52.19 Z M 55.33,52.19" />
        <path id="mel05Canvas-bezier26" stroke="none" fill="rgb(51, 91, 113)" d="M 65.24,30.93 C 65.5,29.79 65.71,28.63 65.88,27.48 66.06,26.33 66.2,25.17 66.28,24.01 66.35,22.85 66.32,21.7 66.34,20.56 66.37,19.42 66.34,18.29 66.2,17.11 L 66.29,17.08 C 66.92,18.11 67.17,19.34 67.27,20.53 67.37,21.73 67.2,22.92 67.02,24.09 66.67,26.44 66.1,28.73 65.33,30.95 L 65.24,30.93 Z M 65.24,30.93" />
        <path id="mel05Canvas-bezier27" stroke="none" fill="rgb(51, 91, 113)" d="M 50.34,29.14 C 49.78,28.78 49.22,28.45 48.73,27.91 48.38,27.42 47.81,27.14 47.24,26.98 46.66,26.81 46.06,26.87 45.45,26.84 44.84,26.81 44.22,26.84 43.52,26.79 L 43.49,26.7 C 44.04,26.26 44.7,26.01 45.4,25.91 46.11,25.8 46.84,26 47.49,26.28 48.14,26.56 48.77,27 49.11,27.64 49.42,28.15 49.92,28.63 50.4,29.06 L 50.34,29.14 Z M 50.34,29.14" />
        <path id="mel05Canvas-bezier28" stroke="none" fill="rgb(51, 91, 113)" d="M 43.83,27.22 C 43.98,27.63 44.37,27.9 44.76,28.07 45.14,28.25 45.57,28.36 46.01,28.42 46.44,28.49 46.89,28.44 47.32,28.56 47.76,28.67 48.2,28.79 48.65,29.05 L 48.65,29.15 C 48.19,29.39 47.71,29.47 47.22,29.48 46.74,29.5 46.27,29.3 45.82,29.14 45.36,28.97 44.91,28.76 44.51,28.46 44.13,28.15 43.77,27.74 43.74,27.23 L 43.83,27.22 Z M 43.83,27.22" />
        <path id="mel05Canvas-bezier29" stroke="none" fill="rgb(51, 91, 113)" d="M 57.78,31.21 C 58.21,31.12 58.65,31.09 59.12,31.15 59.34,31.18 59.61,31.28 59.79,31.35 59.97,31.41 60.14,31.44 60.34,31.46 60.73,31.5 61.11,31.39 61.5,31.43 61.89,31.45 62.27,31.48 62.76,31.53 L 62.8,31.62 C 62.51,32.04 62.04,32.26 61.58,32.36 61.11,32.46 60.63,32.32 60.18,32.19 59.96,32.11 59.72,32.02 59.51,31.89 59.31,31.76 59.19,31.68 58.99,31.6 58.63,31.43 58.21,31.34 57.79,31.31 L 57.78,31.21 Z M 57.78,31.21" />
        <path id="mel05Canvas-bezier30" stroke="none" fill="rgb(51, 91, 113)" d="M 57.25,30.39 C 58.19,29.83 59.22,29.4 60.38,29.29 60.95,29.25 61.62,29.22 62.17,29.62 62.72,29.99 63.04,30.64 62.98,31.23 L 62.89,31.26 C 62.46,30.85 62.11,30.58 61.71,30.43 61.32,30.27 60.89,30.08 60.39,30.04 59.39,29.97 58.32,30.17 57.29,30.47 L 57.25,30.39 Z M 57.25,30.39" />
        <path id="mel05Canvas-bezier31" stroke="none" fill="rgb(51, 91, 113)" d="M 44.49,28.22 C 44.37,28.13 44.23,28 44.13,27.83 44.04,27.67 43.98,27.47 43.94,27.3 43.91,27.1 43.85,26.85 43.98,26.69 44.12,26.52 44.32,26.39 44.62,26.43 L 44.69,26.49 C 44.79,26.77 44.84,26.91 44.85,27.03 44.88,27.16 44.74,27.21 44.69,27.33 44.63,27.46 44.6,27.58 44.58,27.72 44.55,27.85 44.55,28.01 44.58,28.18 L 44.49,28.22 Z M 44.49,28.22" />
        <path id="mel05Canvas-bezier32" stroke="none" fill="rgb(51, 91, 113)" d="M 47.08,26.5 C 47.26,26.64 47.43,26.86 47.54,27.1 47.58,27.23 47.62,27.35 47.63,27.5 47.65,27.61 47.66,27.74 47.64,27.91 47.6,28.19 47.56,28.53 47.31,28.72 47.07,28.9 46.75,28.99 46.43,28.85 L 46.39,28.76 C 46.49,28.44 46.54,28.26 46.61,28.1 46.66,27.95 46.83,27.87 46.92,27.72 L 46.98,27.62 47.03,27.46 C 47.06,27.39 47.07,27.28 47.08,27.18 47.1,26.98 47.09,26.77 47,26.55 L 47.08,26.5 Z M 47.08,26.5" />
        <path id="mel05Canvas-bezier33" stroke="none" fill="rgb(51, 91, 113)" d="M 58.63,31.23 C 58.52,31.16 58.42,31.11 58.31,31 58.22,30.88 58.15,30.77 58.09,30.64 58.06,30.57 58.02,30.52 57.99,30.42 57.97,30.36 57.95,30.32 58,30.23 58.08,30.07 58.22,29.97 58.5,29.95 L 58.58,29.98 C 58.79,30.17 58.87,30.27 58.93,30.33 58.95,30.34 58.93,30.41 58.91,30.46 58.88,30.47 58.85,30.53 58.83,30.56 58.79,30.64 58.76,30.74 58.75,30.83 58.71,30.92 58.71,31.06 58.71,31.18 L 58.63,31.23 Z M 58.63,31.23" />
        <path id="mel05Canvas-bezier34" stroke="none" fill="rgb(51, 91, 113)" d="M 61,29.68 C 61.16,29.81 61.3,30.01 61.4,30.23 L 61.45,30.4 61.46,30.45 61.47,30.46 61.47,30.46 61.47,30.48 61.47,30.49 61.47,30.51 61.48,30.58 C 61.51,30.67 61.5,30.82 61.49,30.96 61.45,31.21 61.42,31.52 61.18,31.68 60.96,31.84 60.66,31.91 60.37,31.76 L 60.33,31.68 C 60.41,31.36 60.44,31.2 60.49,31.06 60.52,30.92 60.68,30.88 60.77,30.75 60.8,30.7 60.85,30.65 60.88,30.54 L 60.9,30.46 60.91,30.44 60.91,30.44 60.91,30.44 C 60.91,30.42 60.91,30.46 60.91,30.46 L 60.91,30.46 60.91,30.46 60.91,30.45 60.92,30.42 60.94,30.29 C 60.97,30.12 60.98,29.94 60.92,29.73 L 61,29.68 Z M 61,29.68" />
        <path id="mel05Canvas-bezier35" stroke="none" fill="rgb(51, 91, 113)" d="M 41.47,23.11 C 42.26,22.55 43.21,22.24 44.18,22.12 45.16,22.02 46.17,22.15 47.11,22.44 48.06,22.74 48.99,23.14 49.75,23.78 50.5,24.41 51.15,25.15 51.61,26.02 L 51.55,26.08 C 50.71,25.57 49.97,25.01 49.2,24.53 48.42,24.05 47.7,23.49 46.86,23.14 46.02,22.79 45.13,22.59 44.21,22.59 43.3,22.57 42.35,22.75 41.52,23.18 L 41.47,23.11 Z M 41.47,23.11" />
        <path id="mel05Canvas-bezier36" stroke="none" fill="rgb(51, 91, 113)" d="M 65.02,27.27 C 64.43,27.12 63.83,27.05 63.24,27.04 62.65,27.01 62.06,27.05 61.49,27.16 60.92,27.27 60.41,27.52 59.87,27.67 59.32,27.82 58.79,28.02 58.16,28.2 L 58.1,28.13 C 58.42,27.55 58.94,27.11 59.52,26.81 60.1,26.49 60.78,26.45 61.41,26.42 62.69,26.37 63.94,26.64 65.05,27.18 L 65.02,27.27 Z M 65.02,27.27" />
        <path id="mel05Canvas-bezier37" stroke="none" fill="rgb(51, 91, 113)" d="M 56.97,29.11 C 56.75,29.92 56.68,30.78 56.71,31.61 56.72,32.45 56.83,33.27 57.03,34.09 57.21,34.92 57.48,35.74 57.55,36.61 57.58,37.04 57.6,37.48 57.56,37.93 57.54,38.16 57.5,38.39 57.42,38.62 57.34,38.83 57.21,39.12 56.94,39.18 L 56.9,39.09 C 57.03,38.94 57.02,38.76 57,38.56 56.98,38.37 56.94,38.17 56.9,37.97 L 56.62,36.75 C 56.43,35.93 56.39,35.06 56.29,34.21 56.07,32.48 56.2,30.67 56.88,29.07 L 56.97,29.11 Z M 56.97,29.11" />
        <path id="mel05Canvas-bezier38" stroke="none" fill="rgb(51, 91, 113)" d="M 55.08,40.02 C 55.22,39.7 55.39,39.4 55.64,39.13 55.77,39 55.88,38.79 56.15,38.78 56.27,38.78 56.45,38.78 56.62,38.91 56.8,39.03 56.81,39.26 56.71,39.37 L 56.62,39.4 C 56.47,39.36 56.38,39.45 56.41,39.53 56.42,39.6 56.43,39.63 56.41,39.67 56.37,39.75 56.2,39.71 56.06,39.75 55.77,39.84 55.46,39.97 55.14,40.09 L 55.08,40.02 Z M 55.08,40.02" />
        <path id="mel05Canvas-bezier39" stroke="none" fill="rgb(51, 91, 113)" d="M 49.21,37.42 C 49.32,37.82 49.61,38.15 49.94,38.2 50.27,38.29 50.6,38.13 51.09,38.04 51.54,37.96 52.03,37.86 52.5,38.03 52.73,38.12 52.96,38.23 53.16,38.42 53.26,38.51 53.35,38.64 53.41,38.77 53.46,38.92 53.47,39.1 53.38,39.21 L 53.28,39.19 C 53.16,39 53,39.03 52.83,38.99 52.65,38.97 52.48,38.95 52.29,38.94 51.93,38.93 51.55,38.79 51.15,38.78 50.8,38.75 50.26,38.88 49.77,38.64 49.28,38.38 49.11,37.86 49.12,37.42 L 49.21,37.42 Z M 49.21,37.42" />
        <path id="mel05Canvas-bezier40" stroke="none" fill="rgb(51, 91, 113)" d="M 44.86,42.33 C 46.86,41.99 48.91,42.04 50.94,42.29 51.95,42.41 52.97,42.52 53.94,42.86 54.91,43.2 55.84,43.63 56.68,44.24 L 56.65,44.32 C 55.62,44.19 54.66,43.97 53.69,43.76 52.72,43.56 51.78,43.23 50.81,43.02 49.84,42.81 48.86,42.65 47.87,42.55 46.88,42.44 45.87,42.37 44.88,42.42 L 44.86,42.33 Z M 44.86,42.33" />
        <path id="mel05Canvas-bezier41" stroke="none" fill="rgb(51, 91, 113)" d="M 45.23,43.25 C 46.05,43.76 46.89,44.24 47.76,44.66 48.61,45.09 49.5,45.49 50.39,45.72 50.84,45.83 51.27,45.88 51.69,45.81 52.14,45.76 52.59,45.68 53.05,45.61 53.97,45.46 54.89,45.24 55.87,45.05 L 55.91,45.13 C 55.15,45.79 54.23,46.23 53.26,46.52 52.77,46.66 52.26,46.72 51.74,46.73 51.19,46.74 50.65,46.6 50.17,46.43 49.21,46.08 48.36,45.59 47.53,45.07 46.71,44.52 45.93,43.94 45.17,43.32 L 45.23,43.25 Z M 45.23,43.25" />
        <path id="mel05Canvas-bezier42" stroke="none" fill="rgb(51, 91, 113)" d="M 48.33,47.91 C 48.86,48.11 49.41,48.25 49.96,48.34 50.51,48.45 51.07,48.49 51.6,48.46 52.15,48.43 52.64,48.25 53.13,48.15 53.64,48.04 54.12,47.87 54.71,47.68 L 54.78,47.74 C 54.53,48.33 54.02,48.77 53.44,49.03 52.85,49.31 52.18,49.26 51.58,49.21 50.37,49.08 49.25,48.63 48.28,47.99 L 48.33,47.91 Z M 48.33,47.91" />
        <path id="mel05Canvas-bezier43" stroke="none" fill="rgb(51, 91, 113)" d="M 26.94,24.15 C 27.44,24.18 27.88,24.48 28.24,24.83 28.58,25.19 28.84,25.63 29.05,26.07 29.25,26.52 29.48,26.98 29.49,27.47 29.51,27.96 29.45,28.45 29.22,28.92 L 29.13,28.93 C 28.84,28.48 28.7,28.05 28.57,27.62 28.43,27.2 28.45,26.75 28.34,26.32 28.24,25.9 28.1,25.48 27.87,25.11 27.66,24.75 27.35,24.39 26.93,24.24 L 26.94,24.15 Z M 26.94,24.15" />
        <path id="mel05Canvas-bezier44" stroke="none" fill="rgb(51, 91, 113)" d="M 30.02,29.35 C 29.84,29.82 29.8,30.32 29.83,30.77 29.85,31 29.96,31.21 29.92,31.44 29.88,31.67 29.83,31.9 29.65,32.21 L 29.56,32.24 C 29.24,32.06 29.08,31.8 28.99,31.53 28.89,31.25 29.02,30.95 29.09,30.68 29.24,30.14 29.53,29.63 29.95,29.29 L 30.02,29.35 Z M 30.02,29.35" />
        <path id="mel05Canvas-bezier45" stroke="none" fill="rgb(51, 91, 113)" d="M 30.95,25.86 C 31.93,26.18 33.12,25.97 33.73,25.16 34.05,24.76 34.24,24.29 34.37,23.8 34.5,23.31 34.52,22.78 34.69,22.24 34.97,21.17 35.71,20.23 36.57,19.57 37.42,18.9 38.32,18.35 38.77,17.52 38.88,17.31 38.98,17.1 39.04,16.87 39.08,16.76 39.1,16.64 39.12,16.52 39.16,16.37 39.17,16.27 39.22,16.12 39.38,15.55 39.6,15.04 39.88,14.55 40.42,13.59 41.14,12.75 41.94,12 42.76,11.29 43.64,10.64 44.61,10.15 45.58,9.67 46.64,9.29 47.73,9.31 L 47.74,9.41 C 46.71,9.65 45.79,10.14 44.94,10.71 44.09,11.29 43.29,11.94 42.59,12.68 41.86,13.4 41.21,14.18 40.67,15.02 40.41,15.44 40.18,15.9 40.03,16.34 39.99,16.44 39.95,16.6 39.92,16.7 39.88,16.84 39.85,16.98 39.79,17.11 39.7,17.39 39.57,17.65 39.41,17.9 38.78,18.92 37.75,19.45 36.94,20.05 36.11,20.64 35.44,21.41 35.13,22.38 34.95,22.84 34.9,23.38 34.73,23.9 34.56,24.42 34.32,24.93 33.95,25.34 33.19,26.21 31.9,26.34 30.92,25.95 L 30.95,25.86 Z M 30.95,25.86" />
        <path id="mel05Canvas-bezier46" stroke="none" fill="rgb(51, 91, 113)" d="M 49.68,8.88 C 52.36,8.64 55.09,8.79 57.74,9.44 59.06,9.77 60.4,10.19 61.56,10.98 62.7,11.76 63.71,12.82 64.23,14.1 L 64.15,14.15 C 63.22,13.17 62.19,12.4 61.07,11.77 59.95,11.15 58.78,10.57 57.53,10.16 56.28,9.75 54.98,9.48 53.67,9.29 52.36,9.09 51.02,8.97 49.69,8.98 L 49.68,8.88 Z M 49.68,8.88" />
        <path id="mel05Canvas-bezier47" stroke="none" fill="rgb(51, 91, 113)" d="M 26.49,36.77 C 25.73,36.94 24.98,37.23 24.36,37.7 23.73,38.15 23.36,38.92 23.56,39.65 23.64,40.02 23.81,40.36 24.02,40.68 24.21,41.01 24.5,41.29 24.69,41.69 24.88,42.06 24.95,42.58 24.73,43 24.52,43.42 24.18,43.7 23.84,43.93 23.14,44.38 22.39,44.68 21.69,45.02 21.34,45.19 20.99,45.37 20.7,45.58 20.4,45.79 20.19,46.05 20.21,46.29 20.22,46.54 20.43,46.84 20.69,47.1 20.94,47.36 21.27,47.56 21.58,47.9 21.87,48.22 22.16,48.65 22.14,49.21 22.11,49.76 21.78,50.17 21.47,50.47 20.83,51.06 20.11,51.44 19.42,51.84 18.76,52.24 18.03,52.63 17.64,53.11 17.46,53.37 17.44,53.47 17.56,53.69 17.69,53.91 17.97,54.14 18.27,54.34 L 18.52,54.53 C 18.62,54.61 18.72,54.69 18.8,54.78 18.96,54.96 19.12,55.16 19.23,55.42 19.45,55.94 19.34,56.55 19.11,56.95 18.64,57.78 17.98,58.28 17.34,58.78 16.68,59.27 16.02,59.71 15.34,60.12 14.67,60.53 13.98,60.93 13.4,61.41 13.25,61.53 13.12,61.66 13.05,61.79 12.98,61.92 12.99,62.01 13.13,62.11 13.42,62.31 13.83,62.39 14.21,62.47 L 14.2,62.56 C 13.8,62.54 13.4,62.54 12.99,62.34 12.89,62.29 12.78,62.21 12.72,62.07 12.66,61.93 12.68,61.78 12.73,61.66 12.82,61.43 12.96,61.26 13.1,61.11 13.69,60.52 14.34,60.06 14.97,59.58 15.6,59.1 16.25,58.65 16.84,58.16 17.42,57.67 18,57.12 18.28,56.54 18.42,56.25 18.45,56 18.35,55.79 18.3,55.67 18.22,55.56 18.11,55.45 18.06,55.39 18,55.35 17.94,55.3 L 17.72,55.14 C 17.37,54.89 17.01,54.62 16.74,54.15 16.6,53.92 16.51,53.6 16.56,53.29 16.61,52.97 16.76,52.73 16.92,52.53 17.58,51.81 18.32,51.51 19.02,51.12 19.71,50.74 20.42,50.39 20.96,49.92 21.22,49.69 21.42,49.42 21.43,49.17 21.46,48.92 21.3,48.62 21.07,48.35 20.65,47.83 19.72,47.4 19.61,46.3 19.61,45.72 20.04,45.34 20.37,45.11 20.73,44.87 21.1,44.7 21.46,44.53 22.19,44.21 22.94,43.93 23.58,43.54 23.9,43.34 24.2,43.11 24.36,42.82 24.52,42.53 24.5,42.18 24.35,41.85 24.21,41.52 23.94,41.21 23.74,40.86 23.53,40.5 23.36,40.12 23.28,39.71 23.21,39.3 23.25,38.85 23.43,38.47 23.62,38.09 23.92,37.79 24.25,37.55 24.92,37.09 25.69,36.83 26.48,36.68 L 26.49,36.77 Z M 26.49,36.77" />
        <path id="mel05Canvas-bezier48" stroke="none" fill="rgb(51, 91, 113)" d="M 28.08,41.71 C 27.57,42.1 27.09,42.52 26.65,42.98 26.22,43.43 25.8,43.93 25.61,44.5 25.53,44.78 25.55,45.07 25.72,45.26 25.9,45.46 26.18,45.59 26.47,45.67 26.61,45.71 26.78,45.75 26.95,45.83 27.03,45.87 27.12,45.92 27.2,46 27.29,46.08 27.37,46.24 27.34,46.39 27.29,46.67 27.13,46.79 27.01,46.91 26.88,47.03 26.74,47.13 26.6,47.22 26.06,47.59 25.5,47.9 24.97,48.24 24.47,48.57 23.89,48.96 23.72,49.39 23.56,49.74 24.09,50.12 24.64,50.37 24.92,50.51 25.29,50.7 25.53,51.04 25.82,51.38 25.83,51.94 25.66,52.3 25.33,53.02 24.81,53.45 24.31,53.89 23.81,54.32 23.28,54.7 22.76,55.07 22.24,55.44 21.71,55.81 21.24,56.18 21.02,56.35 20.77,56.6 20.74,56.69 20.72,56.71 20.75,56.66 20.72,56.59 20.7,56.52 20.67,56.51 20.68,56.52 20.72,56.55 20.84,56.6 20.97,56.62 21.23,56.68 21.64,56.73 22.01,56.95 22.19,57.05 22.39,57.23 22.51,57.47 22.62,57.72 22.63,57.99 22.58,58.19 22.36,59 21.89,59.47 21.45,59.96 20.99,60.43 20.52,60.86 20.05,61.3 19.82,61.51 19.58,61.72 19.37,61.95 19.27,62.06 19.17,62.19 19.13,62.3 19.06,62.4 19.19,62.45 19.36,62.47 L 19.36,62.56 C 19.28,62.57 19.19,62.58 19.1,62.55 18.98,62.53 18.91,62.36 18.94,62.27 18.98,62.07 19.07,61.93 19.16,61.79 19.34,61.51 19.54,61.26 19.74,61.01 20.15,60.51 20.58,60.03 20.95,59.53 21.31,59.05 21.72,58.51 21.79,58.05 21.8,57.84 21.77,57.81 21.59,57.71 21.39,57.61 21.15,57.59 20.78,57.53 20.6,57.49 20.41,57.45 20.17,57.31 20.05,57.23 19.9,57.1 19.83,56.88 19.75,56.66 19.8,56.45 19.86,56.32 20.1,55.83 20.37,55.67 20.63,55.43 21.17,55.01 21.71,54.67 22.24,54.31 22.77,53.96 23.3,53.62 23.79,53.24 24.27,52.87 24.76,52.45 24.97,52.01 25.07,51.78 25.07,51.62 24.95,51.45 24.83,51.26 24.62,51.12 24.33,50.97 24.05,50.82 23.73,50.64 23.46,50.38 23.33,50.24 23.2,50.07 23.13,49.85 23.05,49.63 23.08,49.38 23.16,49.18 23.53,48.43 24.15,48.14 24.69,47.78 25.25,47.45 25.82,47.16 26.35,46.83 26.59,46.69 26.9,46.45 26.93,46.33 26.95,46.33 26.9,46.25 26.77,46.18 26.65,46.12 26.51,46.08 26.35,46.02 26.04,45.91 25.71,45.76 25.47,45.46 25.22,45.16 25.23,44.72 25.35,44.41 25.6,43.76 26.06,43.29 26.52,42.84 26.99,42.4 27.5,42 28.02,41.64 L 28.08,41.71 Z M 28.08,41.71" />
        <path id="mel05Canvas-bezier49" stroke="none" fill="rgb(51, 91, 113)" d="M 28.87,49.9 C 28.61,50.18 28.38,50.47 28.2,50.79 28.02,51.11 27.87,51.47 27.92,51.79 27.98,52.12 28.22,52.28 28.6,52.44 28.69,52.49 28.87,52.61 28.85,52.85 28.81,53.05 28.7,53.13 28.62,53.21 28.45,53.35 28.28,53.45 28.11,53.54 27.43,53.91 26.72,54.19 26.12,54.58 25.82,54.75 25.59,55.07 25.67,55.06 25.69,55.1 25.8,55.21 25.93,55.28 26.06,55.36 26.27,55.46 26.46,55.63 26.55,55.71 26.65,55.81 26.73,55.96 26.81,56.11 26.83,56.34 26.78,56.51 26.66,56.86 26.46,57.01 26.3,57.16 25.96,57.43 25.62,57.62 25.31,57.82 25,58.01 24.68,58.22 24.54,58.4 24.47,58.49 24.49,58.48 24.48,58.48 24.48,58.5 24.55,58.61 24.67,58.7 24.77,58.78 24.98,58.94 25.13,59.13 25.28,59.32 25.42,59.55 25.47,59.83 25.56,60.39 25.3,60.85 25.03,61.16 24.76,61.48 24.46,61.73 24.17,61.97 24.02,62.08 23.86,62.2 23.77,62.31 23.74,62.39 23.69,62.33 23.76,62.39 23.82,62.42 23.92,62.45 24.01,62.46 L 24.01,62.56 C 23.91,62.57 23.81,62.59 23.69,62.57 23.64,62.55 23.55,62.53 23.51,62.42 23.48,62.32 23.51,62.25 23.53,62.19 23.63,61.98 23.75,61.83 23.86,61.67 24.1,61.37 24.34,61.09 24.5,60.79 24.85,60.13 24.74,59.83 24.08,59.42 23.9,59.27 23.69,59.1 23.57,58.75 23.44,58.39 23.62,57.97 23.79,57.78 24.15,57.39 24.51,57.22 24.84,57.02 25.18,56.85 25.52,56.68 25.79,56.5 25.92,56.41 26.01,56.3 26.02,56.28 26.03,56.31 26.06,56.29 25.95,56.17 25.81,55.97 25.31,55.89 25.04,55.29 24.91,54.94 25.12,54.59 25.28,54.45 25.45,54.28 25.63,54.17 25.8,54.07 26.51,53.67 27.23,53.44 27.9,53.13 28.06,53.05 28.23,52.97 28.36,52.88 28.42,52.84 28.46,52.78 28.46,52.79 28.47,52.84 28.47,52.8 28.41,52.76 28.11,52.63 27.65,52.28 27.64,51.82 27.62,51.37 27.83,51.01 28.04,50.69 28.26,50.38 28.52,50.09 28.8,49.84 L 28.87,49.9 Z M 28.87,49.9" />
        <path id="mel05Canvas-bezier50" stroke="none" fill="rgb(51, 91, 113)" d="M 54.58,54.83 C 54.59,55.95 54.62,57.07 54.67,58.17 54.7,58.72 54.82,59.26 54.8,59.8 54.79,60.34 54.7,60.85 54.78,61.4 L 54.71,61.46 C 54.42,61.3 54.24,61 54.12,60.73 53.99,60.44 53.92,60.15 53.87,59.87 53.75,59.29 53.87,58.71 53.93,58.15 54.04,57.02 54.23,55.92 54.49,54.82 L 54.58,54.83 Z M 54.58,54.83" />
        <path id="mel05Canvas-bezier51" stroke="none" fill="rgb(51, 91, 113)" d="M 57.22,57.45 C 57.64,57.29 58.17,57.22 58.59,57.47 59.01,57.7 59.31,58.07 59.58,58.44 60.14,59.18 60.47,60.07 60.75,60.93 61.33,62.66 61.82,64.43 62.27,66.2 63.16,69.74 63.89,73.34 64.32,76.98 64.52,78.8 64.64,80.64 64.59,82.48 64.51,84.31 64.35,86.21 63.46,87.93 63.24,88.35 62.96,88.76 62.6,89.11 62.42,89.28 62.22,89.43 62.01,89.57 61.82,89.69 61.61,89.82 61.4,89.92 60.55,90.37 59.65,90.66 58.73,90.86 56.9,91.25 55.01,91.27 53.16,91.09 49.47,90.72 45.88,89.57 42.58,87.9 39.27,86.22 36.25,83.94 33.82,81.12 31.49,78.27 29.24,75.41 27.04,72.48 25.95,71.01 24.86,69.54 23.81,68.04 23.29,67.29 22.77,66.53 22.28,65.77 22.03,65.38 21.78,64.99 21.55,64.6 21.34,64.19 21.05,63.84 20.97,63.33 L 21.06,63.35 C 21.15,63.73 21.46,64.13 21.7,64.51 21.95,64.88 22.22,65.25 22.49,65.62 23.03,66.35 23.59,67.07 24.15,67.79 25.27,69.24 26.4,70.67 27.55,72.08 29.85,74.91 32.16,77.76 34.52,80.51 36.9,83.2 39.82,85.4 43,87.08 46.18,88.76 49.66,89.94 53.24,90.35 55.03,90.55 56.85,90.55 58.59,90.2 59.47,90.02 60.32,89.75 61.1,89.36 61.3,89.26 61.48,89.16 61.67,89.03 61.85,88.92 62.01,88.8 62.17,88.65 62.47,88.37 62.72,88.02 62.93,87.64 63.75,86.1 63.96,84.25 64.05,82.46 64.13,80.66 64.03,78.84 63.85,77.03 63.49,73.41 62.83,69.82 62,66.26 61.58,64.49 61.12,62.72 60.57,60.99 60.3,60.11 60.01,59.26 59.46,58.52 59.21,58.15 58.92,57.79 58.53,57.57 58.15,57.34 57.67,57.39 57.25,57.54 L 57.22,57.45 Z M 57.22,57.45" />
        <path id="mel05Canvas-bezier52" stroke="none" fill="rgb(51, 91, 113)" d="M 19.66,63.7 C 19.32,63.82 18.96,63.96 18.76,64.14 18.65,64.24 18.75,64.34 18.7,64.28 18.64,64.25 18.53,64.38 18.38,64.65 L 18.3,64.69 C 18,64.65 17.78,64.42 17.8,64.04 17.81,63.85 17.94,63.69 18.08,63.6 18.22,63.51 18.35,63.48 18.47,63.45 18.93,63.36 19.31,63.47 19.67,63.61 L 19.66,63.7 Z M 19.66,63.7" />
        <path id="mel05Canvas-bezier53" stroke="none" fill="rgb(51, 91, 113)" d="M 19.64,68.01 C 18.63,67.42 17.67,66.72 16.84,65.84 16.64,65.62 16.45,65.39 16.28,65.14 16.1,64.88 15.96,64.62 15.79,64.49 15.45,64.16 14.94,64.08 14.43,64.15 13.41,64.34 12.44,65.01 11.76,65.73 11.64,65.86 11.56,65.94 11.43,66.06 11.3,66.18 11.16,66.3 11.02,66.38 10.74,66.56 10.44,66.7 10.12,66.77 9.5,66.94 8.87,66.9 8.3,66.81 L 8.28,66.72 C 8.87,66.54 9.42,66.42 9.89,66.16 10.13,66.03 10.34,65.89 10.53,65.72 10.63,65.64 10.71,65.55 10.78,65.47 10.85,65.39 10.96,65.24 11.03,65.14 11.86,64.1 13.06,63.54 14.35,63.41 14.99,63.36 15.75,63.53 16.23,64.06 16.48,64.33 16.58,64.62 16.72,64.85 16.87,65.09 17.03,65.32 17.2,65.54 17.89,66.45 18.76,67.24 19.69,67.93 L 19.64,68.01 Z M 19.64,68.01" />
        <path id="mel05Canvas-bezier54" stroke="none" fill="rgb(51, 91, 113)" d="M 26.45,80.33 C 24.72,78.4 22.67,76.8 20.6,75.26 18.53,73.72 16.37,72.28 14.14,71 13.02,70.37 11.88,69.78 10.71,69.28 10.13,69.03 9.53,68.81 8.94,68.65 8.36,68.47 7.77,68.39 7.23,68.48 6.08,68.62 5.04,69.38 4.18,70.28 3.32,71.19 2.59,72.26 1.97,73.39 L 1.88,73.36 C 2.27,72.1 2.87,70.92 3.69,69.85 4.5,68.81 5.63,67.85 7.08,67.57 7.82,67.43 8.54,67.53 9.21,67.72 9.86,67.91 10.48,68.16 11.08,68.44 12.28,69.01 13.41,69.67 14.52,70.36 16.74,71.74 18.85,73.27 20.89,74.89 22.89,76.54 24.88,78.25 26.52,80.27 L 26.45,80.33 Z M 26.45,80.33" />
        <path id="mel05Canvas-bezier55" stroke="none" fill="rgb(51, 91, 113)" d="M 4.81,71.7 C 3.3,72.56 2.22,74.04 1.59,75.61 0.94,77.2 0.71,78.93 0.76,80.64 0.8,82.36 1.16,84.04 1.49,85.73 1.83,87.43 2.27,89.1 2.67,90.82 L 2.59,90.86 C 1.71,89.32 1.06,87.66 0.58,85.95 0.12,84.23 -0.04,82.43 0.01,80.64 0.06,78.86 0.39,77.05 1.16,75.43 1.94,73.82 3.16,72.39 4.77,71.62 L 4.81,71.7 Z M 4.81,71.7" />
        <path id="mel05Canvas-bezier56" stroke="none" fill="rgb(51, 91, 113)" d="M 3.76,89.76 C 3.92,91.99 4.05,94.21 4.14,96.44 4.17,97.56 4.19,98.68 4.17,99.8 4.16,100.37 4.15,100.92 4.05,101.52 3.96,102.03 3.98,102.56 4.02,103.09 4.13,104.16 4.39,105.23 4.78,106.21 5.18,107.2 5.7,108.15 6.45,108.78 6.82,109.11 7.25,109.34 7.72,109.43 7.96,109.48 8.21,109.49 8.46,109.47 8.73,109.45 9.01,109.43 9.29,109.42 9.86,109.4 10.42,109.39 10.99,109.41 11.28,109.43 11.56,109.45 11.84,109.5 12.12,109.57 12.43,109.54 12.66,109.86 L 12.57,109.87 C 12.41,109.77 12.08,109.76 11.82,109.77 11.55,109.77 11.28,109.8 11,109.83 10.46,109.89 9.91,109.97 9.36,110.07 L 8.54,110.21 C 8.23,110.25 7.92,110.26 7.6,110.23 6.97,110.16 6.36,109.89 5.86,109.51 4.88,108.72 4.3,107.63 3.92,106.54 3.54,105.43 3.33,104.3 3.28,103.14 3.25,102.57 3.25,101.97 3.39,101.39 3.49,100.89 3.53,100.32 3.57,99.78 3.63,98.67 3.65,97.56 3.67,96.45 3.7,94.22 3.69,91.99 3.66,89.76 L 3.76,89.76 Z M 3.76,89.76" />
        <path id="mel05Canvas-bezier57" stroke="none" fill="rgb(51, 91, 113)" d="M 4.75,103.72 C 5.69,101.19 6.88,98.75 8.28,96.43 9.7,94.12 11.36,91.92 13.42,90.09 15.44,88.27 18.01,86.76 20.87,86.63 23.72,86.5 26.46,87.62 28.55,89.34 L 28.49,89.42 C 26.12,88.16 23.52,87.28 20.94,87.56 18.37,87.79 15.94,88.97 13.9,90.65 11.86,92.35 10.16,94.45 8.67,96.68 7.19,98.91 5.89,101.28 4.84,103.75 L 4.75,103.72 Z M 4.75,103.72" />
        <path id="mel05Canvas-bezier58" stroke="none" fill="rgb(51, 91, 113)" d="M 29.64,90.81 C 31.84,93.07 33.94,95.42 35.92,97.89 36.91,99.12 37.92,100.35 38.73,101.71 39.53,103.08 40.27,104.53 40.6,106.11 L 40.52,106.14 C 39.72,104.77 38.84,103.5 37.95,102.22 37.05,100.95 36.23,99.62 35.32,98.34 33.49,95.79 31.56,93.31 29.57,90.87 L 29.64,90.81 Z M 29.64,90.81" />
        <path id="mel05Canvas-bezier59" stroke="none" fill="rgb(51, 91, 113)" d="M 38.84,108.76 C 42.49,106.86 46.13,104.94 49.75,102.98 50.64,102.49 51.58,102.01 52.43,101.49 53.28,100.94 54.09,100.32 54.9,99.68 56.5,98.41 58.05,97.06 59.58,95.69 62.63,92.95 65.57,90.07 68.56,87.26 70.06,85.86 71.54,84.43 73.01,82.99 73.75,82.28 74.47,81.56 75.19,80.82 75.9,80.09 76.62,79.35 77.22,78.52 L 77.3,78.57 C 76.26,80.38 74.83,81.89 73.48,83.44 72.1,84.98 70.65,86.45 69.21,87.92 66.29,90.84 63.2,93.57 60.07,96.25 58.5,97.59 56.91,98.91 55.27,100.16 54.44,100.78 53.61,101.39 52.71,101.94 51.79,102.47 50.88,102.91 49.96,103.39 46.29,105.25 42.59,107.06 38.88,108.85 L 38.84,108.76 Z M 38.84,108.76" />
        <path id="mel05Canvas-bezier60" stroke="none" fill="rgb(51, 91, 113)" d="M 77.88,77.1 C 78.65,75.64 79.39,74.17 80.1,72.68 80.46,71.94 80.82,71.2 81.13,70.45 81.31,70.07 81.36,69.74 81.59,69.27 81.81,68.84 82.16,68.5 82.52,68.24 83.26,67.72 84.03,67.42 84.63,66.96 84.94,66.74 85.15,66.51 85.39,66.19 85.67,65.83 85.99,65.52 86.34,65.24 87.05,64.7 87.91,64.29 88.84,64.3 89.3,64.3 89.76,64.41 90.16,64.62 90.55,64.85 90.87,65.15 91.11,65.49 L 91.05,65.56 C 90.39,65.06 89.61,64.81 88.89,64.94 88.16,65.07 87.49,65.46 86.93,65.96 86.64,66.2 86.38,66.48 86.15,66.78 85.91,67.12 85.52,67.48 85.16,67.72 84.39,68.21 83.59,68.46 82.94,68.86 82.63,69.06 82.36,69.3 82.18,69.6 82.02,69.86 81.87,70.34 81.68,70.7 81.32,71.45 80.92,72.18 80.52,72.9 79.69,74.33 78.84,75.74 77.96,77.15 L 77.88,77.1 Z M 77.88,77.1" />
        <path id="mel05Canvas-bezier61" stroke="none" fill="rgb(51, 91, 113)" d="M 91.32,67.86 C 92.59,67.42 93.88,67.05 95.21,66.84 95.55,66.79 95.88,66.75 96.23,66.74 96.58,66.72 96.91,66.78 97.22,66.74 97.86,66.68 98.5,66.51 99.13,66.33 100.4,65.95 101.64,65.47 102.94,65.07 103.26,64.98 103.59,64.88 103.93,64.81 104.27,64.73 104.63,64.7 104.93,64.64 105.57,64.52 106.22,64.37 106.88,64.23 108.19,63.95 109.5,63.66 110.87,63.52 111.56,63.47 112.25,63.42 113.01,63.57 113.37,63.67 113.84,63.82 114.14,64.3 114.36,64.75 114.43,65.09 114.4,65.56 114.35,66.01 114.11,66.42 113.82,66.69 113.52,66.97 113.21,67.17 112.88,67.33 112.24,67.64 111.59,67.85 110.92,68.01 109.6,68.33 108.27,68.52 106.93,68.64 L 106.92,68.55 C 108.2,68.17 109.5,67.83 110.74,67.39 111.35,67.15 111.97,66.93 112.5,66.62 113.04,66.31 113.48,65.9 113.47,65.47 113.5,65.27 113.41,64.94 113.33,64.79 113.28,64.69 113.06,64.58 112.79,64.52 112.24,64.4 111.58,64.4 110.94,64.44 109.65,64.52 108.33,64.74 107.02,64.96 106.36,65.08 105.71,65.21 105.04,65.31 104.68,65.36 104.36,65.38 104.05,65.44 103.74,65.5 103.42,65.57 103.1,65.66 101.83,66 100.56,66.44 99.25,66.77 98.6,66.93 97.93,67.08 97.24,67.11 96.87,67.13 96.55,67.07 96.23,67.07 95.9,67.06 95.57,67.08 95.25,67.11 93.93,67.26 92.63,67.57 91.35,67.95 L 91.32,67.86 Z M 91.32,67.86" />
        <path id="mel05Canvas-bezier62" stroke="none" fill="rgb(51, 91, 113)" d="M 106.24,68.78 C 104.97,69.4 103.66,69.95 102.33,70.43 101.67,70.66 101.01,70.97 100.31,71.07 99.61,71.19 98.89,71.25 98.15,71.14 L 98.14,71.05 C 98.77,70.65 99.42,70.4 100.08,70.17 100.74,69.94 101.44,69.87 102.12,69.71 103.48,69.4 104.85,69.06 106.2,68.69 L 106.24,68.78 Z M 106.24,68.78" />
        <path id="mel05Canvas-bezier63" stroke="none" fill="rgb(51, 91, 113)" d="M 96.4,70.73 C 96.68,71.12 96.96,71.51 97.24,71.88 97.38,72.07 97.52,72.26 97.67,72.43 97.74,72.52 97.81,72.6 97.88,72.66 97.91,72.69 97.96,72.72 97.92,72.68 97.89,72.67 98.03,72.71 98.08,72.73 98.36,72.83 98.67,73.02 98.85,73.36 99.03,73.7 99.01,74.08 98.91,74.35 98.69,74.91 98.31,75.28 97.83,75.51 L 97.75,75.46 C 97.82,74.93 97.98,74.49 98,74.13 98.02,73.95 98.03,73.82 98.01,73.73 98,73.62 97.92,73.5 97.77,73.41 97.71,73.37 97.74,73.38 97.61,73.32 97.45,73.23 97.43,73.17 97.38,73.11 97.29,72.99 97.23,72.88 97.17,72.77 97.05,72.55 96.94,72.33 96.84,72.12 96.65,71.67 96.48,71.22 96.32,70.77 L 96.4,70.73 Z M 96.4,70.73" />
        <path id="mel05Canvas-bezier64" stroke="none" fill="rgb(51, 91, 113)" d="M 97.35,76.57 C 97.83,76.65 98.34,76.86 98.67,77.34 98.83,77.58 98.9,77.88 98.9,78.17 98.9,78.32 98.88,78.44 98.85,78.6 98.82,78.73 98.8,78.83 98.76,78.97 98.6,79.48 98.42,79.99 98.09,80.35 97.92,80.54 97.76,80.7 97.6,80.85 97.46,81.01 97.31,81.12 97.25,81.37 L 97.16,81.4 C 96.94,81.19 96.94,80.81 97.02,80.54 97.09,80.27 97.21,80.04 97.31,79.83 97.53,79.4 97.86,79.09 98.06,78.71 98.11,78.63 98.15,78.5 98.2,78.39 98.23,78.32 98.27,78.21 98.29,78.12 98.33,77.93 98.32,77.74 98.25,77.55 98.13,77.17 97.75,76.84 97.32,76.66 L 97.35,76.57 Z M 97.35,76.57" />
        <path id="mel05Canvas-bezier65" stroke="none" fill="rgb(51, 91, 113)" d="M 98.22,81.55 C 98.55,82.12 98.65,82.82 98.5,83.47 98.34,84.13 97.95,84.71 97.47,85.18 96.97,85.63 96.47,85.99 95.97,86.4 95.47,86.8 94.93,87.19 94.35,87.52 93.2,88.17 91.96,88.64 90.7,88.92 89.43,89.18 88.16,89.35 86.86,89.36 L 86.84,89.27 C 88.04,88.76 89.26,88.39 90.46,88.01 91.66,87.63 92.89,87.38 94.01,86.86 95.1,86.34 96.16,85.54 97.16,84.83 97.63,84.45 98.03,83.97 98.23,83.39 98.43,82.83 98.4,82.16 98.14,81.6 L 98.22,81.55 Z M 98.22,81.55" />
        <path id="mel05Canvas-bezier66" stroke="none" fill="rgb(51, 91, 113)" d="M 85.43,89.71 C 85.24,89.55 84.92,89.63 84.68,89.75 84.43,89.87 84.21,90.05 83.99,90.23 83.57,90.6 83.2,91.03 82.84,91.48 82.14,92.37 81.52,93.32 80.92,94.29 79.75,96.24 78.58,98.21 77.37,100.15 74.95,104.03 72.4,107.83 69.65,111.49 66.9,115.14 63.99,118.72 60.63,121.86 57.27,124.97 53.55,127.85 49.29,129.59 L 49.25,129.5 C 53.25,127.3 56.77,124.39 59.98,121.19 63.21,118 66.24,114.61 69.06,111.03 71.87,107.45 74.49,103.72 76.98,99.9 78.24,98 79.45,96.07 80.69,94.14 81.31,93.18 81.96,92.24 82.7,91.36 83.07,90.92 83.46,90.49 83.9,90.12 84.13,89.94 84.36,89.77 84.63,89.65 84.89,89.53 85.23,89.42 85.5,89.65 L 85.43,89.71 Z M 85.43,89.71" />
        <path id="mel05Canvas-bezier67" stroke="none" fill="rgb(51, 91, 113)" d="M 48.09,130.18 C 47.33,131.37 46.05,132.29 44.55,132.52 43.81,132.64 43.01,132.66 42.31,132.38 41.62,132.11 40.99,131.68 40.54,131.1 L 40.59,131.02 C 41.31,131.17 41.95,131.36 42.58,131.49 43.21,131.61 43.82,131.81 44.47,131.78 45.12,131.77 45.77,131.6 46.36,131.31 46.97,131.03 47.54,130.63 48.01,130.13 L 48.09,130.18 Z M 48.09,130.18" />
        <path id="mel05Canvas-bezier68" stroke="none" fill="rgb(51, 91, 113)" d="M 40.01,131.47 C 36.8,129.61 33.74,127.51 30.76,125.29 27.8,123.05 24.94,120.67 22.21,118.15 19.47,115.64 16.82,113.02 14.45,110.14 12.09,107.26 9.89,104.24 8.08,101 L 8.16,100.95 C 10.41,103.89 12.69,106.79 15.16,109.54 17.59,112.3 20.07,115.04 22.72,117.61 25.38,120.18 28.16,122.62 31.05,124.92 33.94,127.23 36.92,129.43 40.06,131.39 L 40.01,131.47 Z M 40.01,131.47" />
        <path id="mel05Canvas-bezier69" stroke="none" fill="rgb(51, 91, 113)" d="M 59.77,56.96 C 60.13,56.66 60.62,56.45 61.16,56.5 61.69,56.56 62.17,56.9 62.5,57.28 62.83,57.67 63.16,58.08 63.26,58.57 63.36,59.04 63.38,59.53 63.22,60.03 L 63.13,60.05 C 62.78,59.66 62.58,59.26 62.38,58.88 62.17,58.5 62.11,58.08 61.9,57.73 61.7,57.38 61.43,57.08 61.06,56.96 60.7,56.81 60.23,56.85 59.83,57.04 L 59.77,56.96 Z M 59.77,56.96" />
        <path id="mel05Canvas-bezier70" stroke="none" fill="rgb(51, 91, 113)" d="M 64.35,58.91 C 65.65,59.13 66.94,59.32 68.24,59.46 68.89,59.53 69.55,59.58 70.19,59.6 70.52,59.62 70.84,59.62 71.15,59.6 71.45,59.59 71.82,59.54 71.94,59.44 L 72,59.39 72.09,59.38 C 73.37,59.28 74.64,59.28 75.91,59.36 77.19,59.44 78.47,59.58 79.72,59.9 80.97,60.24 82.2,60.75 83.26,61.54 84.31,62.31 85.18,63.41 85.51,64.65 L 85.42,64.69 C 84.78,63.6 83.87,62.77 82.83,62.17 81.79,61.57 80.65,61.16 79.47,60.83 77.12,60.15 74.6,59.88 72.13,59.95 L 72.28,59.9 C 71.84,60.15 71.52,60.1 71.17,60.13 70.83,60.13 70.49,60.11 70.16,60.08 69.5,60.01 68.85,59.91 68.2,59.8 66.9,59.58 65.61,59.3 64.33,59 L 64.35,58.91 Z M 64.35,58.91" />
        <path id="mel05Canvas-bezier71" stroke="none" fill="rgb(51, 91, 113)" d="M 95.3,87.81 L 97.92,93.74 C 98.79,95.71 99.66,97.69 100.57,99.64 101.03,100.63 101.54,101.51 102.14,102.41 102.74,103.3 103.32,104.2 103.9,105.12 104.45,106.05 105.02,106.97 105.54,107.93 106.02,108.9 106.63,109.83 106.75,110.98 L 106.65,110.98 C 106.52,110.49 106.2,110.03 105.9,109.59 105.61,109.15 105.3,108.7 104.99,108.27 L 103.12,105.63 C 102.51,104.73 101.91,103.83 101.36,102.89 100.8,101.97 100.29,100.94 99.89,99.94 98.22,95.94 96.72,91.9 95.22,87.84 L 95.3,87.81 Z M 95.3,87.81" />
        <path id="mel05Canvas-bezier72" stroke="none" fill="rgb(51, 91, 113)" d="M 106.81,118.6 C 108.3,115.17 110.97,112.31 114.16,110.34 114.96,109.85 115.82,109.43 116.65,109.04 117.47,108.63 118.27,108.17 119.06,107.69 120.63,106.73 122.16,105.69 123.66,104.6 126.65,102.43 129.51,100.06 132.37,97.72 133.81,96.55 135.2,95.34 136.58,94.11 137.27,93.5 137.95,92.86 138.6,92.21 139.24,91.56 139.9,90.89 140.37,90.11 L 140.46,90.15 C 139.65,91.87 138.29,93.21 137.03,94.58 135.74,95.92 134.36,97.18 132.97,98.43 130.17,100.89 127.16,103.1 124.09,105.21 122.55,106.27 120.99,107.28 119.37,108.22 118.56,108.68 117.73,109.13 116.88,109.52 116.02,109.91 115.2,110.28 114.4,110.74 111.23,112.56 108.48,115.29 106.9,118.64 L 106.81,118.6 Z M 106.81,118.6" />
        <path id="mel05Canvas-bezier73" stroke="none" fill="rgb(51, 91, 113)" d="M 142.09,87.18 C 143.9,85.23 145.77,83.35 147.8,81.61 148.83,80.77 149.87,79.93 151.15,79.35 151.84,79.06 152.49,79.02 153.14,78.85 L 155.08,78.44 C 156.37,78.15 157.66,77.86 158.92,77.51 159.56,77.34 160.19,77.16 160.79,76.95 161.09,76.84 161.39,76.73 161.65,76.6 161.78,76.54 161.89,76.47 161.96,76.41 161.93,76.47 162.16,76.1 162.46,75.99 162.62,75.92 162.83,75.91 163.01,75.96 163.19,76.01 163.31,76.12 163.41,76.21 163.6,76.42 163.69,76.63 163.74,76.84 163.86,77.25 163.83,77.65 163.75,78.02 163.58,78.77 163.16,79.41 162.62,79.88 162.11,80.32 161.56,80.75 160.92,81.04 160.28,81.33 159.52,81.39 158.89,81.17 L 158.9,81.08 C 160.26,81.27 161.31,80.34 162.16,79.41 162.57,78.96 162.88,78.43 162.96,77.87 163.01,77.59 162.99,77.31 162.91,77.09 162.88,76.98 162.81,76.88 162.77,76.85 162.71,76.81 162.79,76.86 162.82,76.85 162.8,76.86 162.86,76.8 162.6,77.09 162.42,77.26 162.25,77.36 162.09,77.45 161.75,77.62 161.43,77.74 161.11,77.86 160.46,78.08 159.8,78.24 159.15,78.4 157.84,78.7 156.53,78.94 155.22,79.17 L 153.26,79.52 C 152.62,79.65 151.92,79.7 151.38,79.91 150.21,80.38 149.13,81.18 148.09,81.98 146.01,83.59 144.05,85.38 142.16,87.24 L 142.09,87.18 Z M 142.09,87.18" />
        <path id="mel05Canvas-bezier74" stroke="none" fill="rgb(51, 91, 113)" d="M 164.38,78.48 C 166.82,78.01 169.27,77.6 171.74,77.3 172.98,77.17 174.22,77.06 175.48,77.04 176.11,77.04 176.74,77.05 177.39,77.17 177.72,77.24 178.06,77.3 178.41,77.58 178.62,77.77 178.64,77.85 178.77,78.01 178.86,78.16 178.95,78.31 179.02,78.48 179.17,78.8 179.28,79.24 179.09,79.68 178.9,80.11 178.53,80.35 178.2,80.5 177.53,80.78 176.86,80.83 176.23,80.86 175.07,80.96 173.82,81.17 172.61,81.34 170.16,81.67 167.71,82.07 165.23,82.3 L 165.21,82.21 C 167.59,81.46 170.01,80.92 172.45,80.42 173.69,80.21 174.89,79.99 176.2,79.94 177.34,79.96 178.83,79.74 178.33,78.76 178.29,78.65 178.22,78.52 178.15,78.41 178.1,78.32 177.97,78.12 177.94,78.11 177.82,77.99 177.53,77.89 177.26,77.83 176.69,77.71 176.08,77.67 175.47,77.65 174.25,77.62 173.01,77.68 171.78,77.77 169.32,77.94 166.85,78.22 164.4,78.57 L 164.38,78.48 Z M 164.38,78.48" />
        <path id="mel05Canvas-bezier75" stroke="none" fill="rgb(51, 91, 113)" d="M 158.34,81.86 C 157.58,82.03 156.84,82.25 156.11,82.51 155.38,82.75 154.67,83.04 154.01,83.39 153.34,83.74 152.78,84.22 152.27,84.66 151.75,85.11 151.4,85.66 151.27,86.46 L 151.18,86.48 C 150.75,85.74 151,84.67 151.59,84.02 152.15,83.33 152.96,83.01 153.7,82.72 155.2,82.13 156.76,81.87 158.33,81.77 L 158.34,81.86 Z M 158.34,81.86" />
        <path id="mel05Canvas-bezier76" stroke="none" fill="rgb(51, 91, 113)" d="M 162.45,83.88 C 161.78,84.38 161.06,84.79 160.29,85.14 159.9,85.31 159.53,85.54 159.09,85.57 158.67,85.61 158.22,85.58 157.79,85.38 L 157.78,85.28 C 158.15,84.98 158.51,84.82 158.88,84.66 159.25,84.51 159.66,84.52 160.05,84.43 160.84,84.26 161.63,84.05 162.41,83.8 L 162.45,83.88 Z M 162.45,83.88" />
        <path id="mel05Canvas-bezier77" stroke="none" fill="rgb(51, 91, 113)" d="M 163.25,85.75 C 161.67,85.48 160.05,85.7 158.5,85.98 157.71,86.12 156.94,86.31 156.16,86.51 155.37,86.71 154.58,86.87 153.79,87.03 153,87.2 152.2,87.35 151.5,87.59 150.77,87.85 150.38,88.17 150.33,88.85 150.31,89.02 150.31,89.2 150.31,89.38 L 150.31,89.41 150.31,89.43 150.32,89.44 150.32,89.44 C 150.33,89.5 150.3,89.38 150.31,89.39 L 150.32,89.46 C 150.34,89.5 150.29,89.41 150.31,89.44 150.31,89.46 150.35,89.49 150.4,89.53 150.63,89.68 151.03,89.76 151.4,89.83 152.16,89.96 152.97,90 153.77,90.05 L 153.78,90.15 C 152.99,90.36 152.18,90.47 151.34,90.48 150.92,90.48 150.5,90.46 150,90.25 149.88,90.18 149.75,90.1 149.63,89.95 149.58,89.91 149.49,89.73 149.48,89.67 L 149.46,89.59 149.44,89.46 C 149.41,89.24 149.4,89.01 149.4,88.78 149.42,88.32 149.58,87.77 149.97,87.39 150.35,87.01 150.81,86.84 151.22,86.71 152.06,86.49 152.86,86.41 153.66,86.3 154.46,86.19 155.25,86.07 156.03,85.92 156.82,85.77 157.62,85.62 158.43,85.52 160.04,85.36 161.68,85.26 163.27,85.66 L 163.25,85.75 Z M 163.25,85.75" />
        <path id="mel05Canvas-bezier78" stroke="none" fill="rgb(51, 91, 113)" d="M 162.13,89.87 C 161.46,89.61 160.76,89.41 160.07,89.32 159.71,89.28 159.39,89.28 159.03,89.35 158.65,89.4 158.3,89.41 157.93,89.42 157.22,89.45 156.51,89.48 155.84,89.63 155.18,89.78 154.56,90.09 154.48,90.61 L 154.47,90.66 154.47,90.67 C 154.48,90.62 154.47,90.67 154.47,90.67 L 154.47,90.69 C 154.47,90.74 154.46,90.79 154.46,90.82 154.47,90.86 154.47,90.91 154.49,90.96 154.52,91.06 154.57,91.15 154.66,91.22 154.84,91.38 155.13,91.5 155.44,91.58 156.06,91.73 156.76,91.79 157.46,91.84 157.8,91.88 158.19,91.88 158.6,91.99 158.98,92.1 159.32,92.23 159.65,92.39 160.32,92.68 160.97,93.01 161.59,93.4 L 161.56,93.49 C 160.84,93.35 160.14,93.16 159.45,93 159.1,92.93 158.76,92.84 158.43,92.79 158.13,92.75 157.79,92.77 157.42,92.77 156.69,92.75 155.94,92.71 155.17,92.46 154.8,92.33 154.4,92.16 154.06,91.81 153.9,91.63 153.77,91.39 153.72,91.14 153.7,91.02 153.69,90.88 153.7,90.75 153.7,90.68 153.71,90.65 153.72,90.6 L 153.73,90.57 153.73,90.53 153.74,90.51 153.76,90.43 C 153.87,89.97 154.23,89.6 154.6,89.4 154.96,89.2 155.35,89.1 155.73,89.04 156.48,88.92 157.21,88.94 157.93,88.96 158.29,88.97 158.66,88.99 159,88.98 159.35,88.94 159.76,88.97 160.11,89.05 160.83,89.2 161.51,89.46 162.16,89.78 L 162.13,89.87 Z M 162.13,89.87" />
        <path id="mel05Canvas-bezier79" stroke="none" fill="rgb(51, 91, 113)" d="M 162.61,89.9 C 163,90.06 163.36,90.29 163.62,90.65 163.88,91 163.92,91.52 163.77,91.92 163.55,92.71 163.26,93.5 162.84,94.23 162.42,94.96 161.87,95.63 161.18,96.16 160.84,96.42 160.47,96.64 160.08,96.83 L 158.97,97.36 C 157.49,98.06 155.97,98.78 154.33,99.15 152.7,99.52 150.99,99.65 149.35,99.34 L 149.35,99.25 C 150.99,99.05 152.56,98.72 154.09,98.25 155.62,97.79 157.15,97.29 158.67,96.68 L 159.8,96.22 C 160.16,96.07 160.5,95.89 160.82,95.67 161.46,95.23 162.01,94.65 162.45,93.99 162.89,93.33 163.23,92.59 163.5,91.83 163.66,91.47 163.66,91.08 163.46,90.75 163.26,90.42 162.93,90.16 162.57,89.98 L 162.61,89.9 Z M 162.61,89.9" />
        <path id="mel05Canvas-bezier80" stroke="none" fill="rgb(51, 91, 113)" d="M 148.13,99.73 C 147.65,99.59 147.12,99.83 146.68,100.07 146.23,100.33 145.82,100.65 145.43,100.99 144.64,101.68 143.95,102.47 143.29,103.28 142,104.92 140.77,106.63 139.49,108.3 136.94,111.63 134.27,114.9 131.42,118 128.57,121.11 125.57,124.11 122.21,126.68 118.84,129.22 115.19,131.49 111.2,132.89 L 111.17,132.8 C 114.92,130.92 118.4,128.59 121.63,125.95 124.87,123.32 127.97,120.51 130.88,117.49 133.78,114.47 136.5,111.28 139.12,108.01 140.45,106.38 141.72,104.71 143.08,103.1 143.77,102.3 144.49,101.53 145.31,100.85 145.71,100.51 146.14,100.2 146.61,99.95 147.08,99.72 147.61,99.47 148.17,99.64 L 148.13,99.73 Z M 148.13,99.73" />
        <path id="mel05Canvas-bezier81" stroke="none" fill="rgb(51, 91, 113)" d="M 109.96,133.73 C 109.59,134.19 109.11,134.57 108.56,134.84 108,135.09 107.35,135.21 106.71,135.16 106.08,135.1 105.42,134.95 104.92,134.56 104.43,134.17 104.03,133.69 103.81,133.1 L 103.87,133.03 C 104.46,133.26 104.94,133.54 105.42,133.77 105.89,133.99 106.32,134.3 106.83,134.42 107.83,134.67 108.99,134.37 109.89,133.66 L 109.96,133.73 Z M 109.96,133.73" />
        <path id="mel05Canvas-bezier82" stroke="none" fill="rgb(51, 91, 113)" d="M 94.24,88.41 C 93.11,88.94 92.06,89.74 91.06,90.51 90.06,91.3 89.11,92.16 88.36,93.14 88,93.63 87.69,94.16 87.53,94.7 87.44,94.98 87.41,95.2 87.41,95.51 87.39,95.82 87.35,96.21 87.27,96.54 86.97,97.9 85.88,99.17 84.51,99.35 L 84.49,99.26 C 85.6,98.59 86.2,97.5 86.36,96.35 86.41,96.05 86.44,95.8 86.44,95.47 86.44,95.14 86.53,94.72 86.66,94.4 86.93,93.72 87.34,93.17 87.79,92.67 88.67,91.66 89.71,90.86 90.79,90.14 91.89,89.44 92.98,88.76 94.23,88.32 L 94.24,88.41 Z M 94.24,88.41" />
        <path id="mel05Canvas-bezier83" stroke="none" fill="rgb(51, 91, 113)" d="M 83.46,93.66 C 83.98,94.7 84.31,95.82 84.58,96.95 84.84,98.08 85.01,99.23 85.12,100.39 85.23,101.55 85.35,102.71 85.24,103.88 85.13,105.03 84.94,106.19 84.55,107.3 L 84.45,107.29 C 84.33,106.12 84.33,104.98 84.31,103.84 84.28,102.7 84.4,101.57 84.38,100.43 84.36,99.3 84.28,98.16 84.12,97.03 83.97,95.9 83.77,94.77 83.38,93.7 L 83.46,93.66 Z M 83.46,93.66" />
        <path id="mel05Canvas-bezier84" stroke="none" fill="rgb(51, 91, 113)" d="M 84.51,110.93 C 85.38,111.13 86.23,111.38 87.04,111.75 87.44,111.95 87.85,112.17 88.16,112.52 88.32,112.7 88.45,112.93 88.45,113.19 88.46,113.46 88.34,113.7 88.2,113.88 87.62,114.59 86.86,115.11 86.35,115.76 86.09,116.09 86.18,116.37 86.51,116.64 86.83,116.89 87.22,117.09 87.61,117.27 89.18,117.95 90.98,118.54 92.25,119.95 92.88,120.66 93.26,121.55 93.52,122.4 93.65,122.83 93.77,123.27 93.87,123.7 L 93.96,124.04 C 93.98,124.13 94,124.29 94,124.43 94.01,124.69 93.97,124.93 93.92,125.17 93.71,126.1 93.31,126.92 92.89,127.71 92.46,128.51 92,129.27 91.51,130.02 90.54,131.51 89.49,132.93 88.41,134.33 L 85.13,138.48 C 84.58,139.17 84.04,139.86 83.52,140.57 82.99,141.27 82.49,141.99 82.06,142.76 L 81.98,142.72 C 82.62,141.05 83.63,139.57 84.61,138.1 85.6,136.63 86.65,135.22 87.67,133.78 88.71,132.35 89.75,130.94 90.75,129.5 91.71,128.07 92.74,126.58 93.19,125 93.29,124.59 93.3,124.28 93.18,123.86 93.09,123.43 92.99,123.01 92.87,122.59 92.64,121.77 92.33,120.98 91.79,120.35 91.27,119.71 90.55,119.22 89.79,118.81 89.03,118.39 88.22,118.08 87.41,117.69 87,117.48 86.6,117.27 86.24,116.95 86.06,116.8 85.87,116.6 85.82,116.3 85.76,115.99 85.9,115.72 86.05,115.54 86.67,114.82 87.41,114.36 87.98,113.71 88.26,113.41 88.27,112.99 87.99,112.67 87.72,112.36 87.34,112.12 86.96,111.92 86.18,111.53 85.34,111.25 84.49,111.03 L 84.51,110.93 Z M 84.51,110.93" />
        <path id="mel05Canvas-bezier85" stroke="none" fill="rgb(51, 91, 113)" d="M 94.23,126.43 C 95.96,126.42 97.72,126.94 99.09,128.02 100.48,129.1 101.31,130.76 101.62,132.46 102.03,135.88 103.35,139.14 105.33,141.93 106.32,143.32 107.48,144.59 108.81,145.65 109.47,146.18 110.18,146.65 110.94,147.02 111.32,147.21 111.71,147.36 112.11,147.49 112.54,147.62 112.96,147.83 113.32,148.08 114.82,149.15 115.62,150.83 116.17,152.46 116.72,154.13 117.02,155.84 117.15,157.59 L 117.16,157.7 117.08,157.79 C 114.59,160.55 112.11,163.34 109.7,166.17 109.1,166.88 108.5,167.59 107.92,168.31 107.63,168.68 107.36,169.03 107.09,169.42 106.79,169.82 106.46,170.16 106.13,170.5 104.8,171.83 103.38,173.05 101.92,174.23 99,176.57 95.92,178.72 92.71,180.65 89.49,182.57 86.13,184.28 82.62,185.62 79.11,186.96 75.45,187.96 71.69,188.38 69.81,188.59 67.92,188.59 66.05,188.56 64.17,188.53 62.3,188.41 60.43,188.2 56.7,187.8 53.01,186.98 49.48,185.7 47.72,185.06 46,184.28 44.38,183.34 43.57,182.88 42.78,182.37 42.03,181.8 41.29,181.23 40.56,180.63 40,179.87 L 40.07,179.81 C 41.27,181.22 42.92,182.19 44.53,183.06 46.18,183.92 47.9,184.62 49.65,185.22 53.17,186.4 56.83,187.08 60.51,187.44 64.19,187.77 67.94,187.82 71.59,187.45 75.25,187.05 78.84,186.07 82.29,184.76 89.18,182.08 95.63,178.23 101.46,173.66 102.91,172.51 104.33,171.31 105.64,170.02 105.97,169.69 106.29,169.36 106.55,169.02 106.82,168.64 107.12,168.26 107.41,167.9 108,167.18 108.61,166.46 109.22,165.76 111.66,162.94 114.16,160.18 116.68,157.43 L 116.61,157.62 C 116.5,155.94 116.21,154.23 115.7,152.62 115.18,151.03 114.41,149.43 113.07,148.45 112.73,148.22 112.37,148.03 111.98,147.9 111.56,147.76 111.15,147.6 110.75,147.4 109.97,147 109.24,146.51 108.56,145.96 107.21,144.86 106.05,143.54 105.06,142.12 103.08,139.28 101.78,135.94 101.42,132.51 101.13,130.84 100.34,129.21 99,128.14 97.67,127.07 95.94,126.54 94.23,126.53 L 94.23,126.43 Z M 94.23,126.43" />
        <path id="mel05Canvas-bezier86" stroke="none" fill="rgb(51, 91, 113)" d="M 38.23,178.36 C 37.09,177.65 36.56,176.33 36.26,175.09 35.96,173.82 35.91,172.51 35.97,171.22 36.08,168.63 36.74,166.08 37.32,163.61 37.85,161.13 38.26,158.6 38.12,156.14 38.06,153.68 36.63,151.4 36.11,148.85 L 36.2,148.83 C 36.72,150 37.31,151.12 37.89,152.28 38.47,153.43 38.9,154.73 39.05,156.06 39.32,158.74 38.68,161.3 38.05,163.79 37.73,165.05 37.34,166.26 37.06,167.5 36.77,168.73 36.54,169.99 36.43,171.25 36.32,172.51 36.3,173.79 36.53,175.03 36.76,176.25 37.22,177.55 38.27,178.27 L 38.23,178.36 Z M 38.23,178.36" />
        <path id="mel05Canvas-bezier87" stroke="none" fill="rgb(51, 91, 113)" d="M 43.42,159.91 C 42.15,156.61 40.78,153.35 39.28,150.15 38.53,148.55 37.75,146.97 36.9,145.43 36.04,143.91 35.14,142.36 33.96,141.15 32.67,139.88 31.61,138.42 30.6,136.95 29.61,135.47 28.71,133.92 27.88,132.35 27.08,130.76 26.31,129.16 25.64,127.51 24.98,125.86 24.34,124.19 24.03,122.42 L 24.12,122.4 C 24.68,124.08 25.46,125.66 26.23,127.24 27.02,128.82 27.83,130.38 28.7,131.91 29.56,133.44 30.44,134.96 31.38,136.45 32.31,137.92 33.3,139.38 34.5,140.63 35.75,142 36.6,143.58 37.44,145.14 38.26,146.72 39,148.34 39.71,149.96 41.1,153.22 42.36,156.53 43.51,159.88 L 43.42,159.91 Z M 43.42,159.91" />
        <path id="mel05Canvas-bezier88" stroke="none" fill="rgb(51, 91, 113)" d="M 164.08,89.44 C 164.24,88.78 164.34,88.09 164.34,87.44 164.34,87.11 164.31,86.78 164.21,86.52 164.16,86.39 164.1,86.28 164.02,86.21 164,86.19 163.98,86.17 163.96,86.16 L 163.93,86.14 163.85,86.09 C 163.83,86.07 163.77,86.02 163.7,85.95 163.64,85.88 163.62,85.82 163.58,85.75 163.38,85.18 163.57,84.8 163.65,84.45 163.76,84.1 163.89,83.8 164.01,83.52 164.14,83.24 164.23,82.99 164.22,82.78 164.22,82.58 164.01,82.32 163.73,82.1 L 163.75,82.01 C 164.1,81.99 164.58,82.09 164.83,82.54 165.07,82.99 164.98,83.45 164.9,83.81 164.81,84.18 164.64,84.5 164.5,84.79 164.35,85.06 164.25,85.37 164.27,85.47 164.27,85.47 164.28,85.5 164.27,85.5 164.26,85.49 164.26,85.5 164.3,85.54 164.31,85.55 164.36,85.59 164.33,85.57 L 164.4,85.63 C 164.45,85.67 164.48,85.71 164.52,85.76 164.67,85.94 164.75,86.16 164.8,86.35 164.88,86.75 164.85,87.12 164.8,87.47 164.67,88.18 164.44,88.83 164.16,89.47 L 164.08,89.44 Z M 164.08,89.44" />
    </g>
</svg>
