<?xml version="1.0" encoding="UTF-8"?>
<!DOCTYPE svg PUBLIC "-//W3C//DTD SVG 1.1//EN" "http://www.w3.org/Graphics/SVG/1.1/DTD/svg11.dtd">
<svg version="1.1" xmlns="http://www.w3.org/2000/svg" xmlns:xlink="http://www.w3.org/1999/xlink" width="123" height="378"  xml:space="preserve" id="mel08Canvas">
    <!-- Generated by PaintCode - http://www.paintcodeapp.com -->
    <g id="mel08Canvas-lines">
        <g id="mel08Canvas-group2">
            <path id="mel08Canvas-bezier" stroke="none" fill="rgb(51, 91, 113)" d="M 38.39,110.9 C 38.55,111.15 38.52,111.44 38.52,111.71 38.51,111.99 38.47,112.26 38.43,112.53 38.34,113.07 38.22,113.6 38.08,114.13 37.81,115.19 37.47,116.23 37.08,117.25 36.69,118.27 36.25,119.28 35.74,120.25 35.21,121.2 34.64,122.17 33.76,122.9 32.89,123.54 32.17,124.34 31.5,125.18 30.83,126.03 30.22,126.92 29.66,127.84 29.11,128.77 28.6,129.72 28.18,130.71 27.97,131.2 27.78,131.7 27.65,132.21 27.58,132.46 27.53,132.72 27.52,132.96 L 27.48,133.77 C 27.38,135.95 27.26,138.13 27.07,140.31 26.96,141.4 26.85,142.49 26.67,143.58 26.57,144.11 26.44,144.71 26.24,145.22 L 25.68,146.76 C 24.92,148.8 24.21,150.85 23.58,152.92 23.27,153.96 22.98,155.01 22.77,156.07 22.66,156.6 22.57,157.13 22.54,157.67 22.52,158.19 22.51,158.77 22.81,159.21 L 22.76,159.25 C 22.39,158.81 22.36,158.2 22.33,157.66 22.32,157.11 22.37,156.56 22.44,156.01 22.59,154.92 22.82,153.85 23.08,152.79 23.62,150.66 24.3,148.58 24.99,146.51 L 25.53,144.97 C 25.72,144.46 25.82,143.99 25.91,143.45 26.1,142.4 26.23,141.32 26.34,140.24 26.57,138.08 26.75,135.91 26.89,133.74 L 26.94,132.92 C 26.97,132.62 27.03,132.34 27.1,132.07 27.26,131.52 27.46,131 27.69,130.49 28.14,129.49 28.67,128.52 29.25,127.59 29.84,126.66 30.47,125.77 31.17,124.92 31.87,124.07 32.63,123.25 33.53,122.61 34.34,121.97 34.94,121.03 35.48,120.1 36.01,119.16 36.47,118.18 36.87,117.17 37.28,116.17 37.64,115.14 37.94,114.1 38.09,113.57 38.22,113.05 38.32,112.51 38.37,112.25 38.41,111.98 38.43,111.71 38.44,111.45 38.46,111.15 38.33,110.94 L 38.39,110.9 Z M 38.39,110.9" />
            <path id="mel08Canvas-bezier2" stroke="none" fill="rgb(51, 91, 113)" d="M 77.92,55.04 C 79.29,55.57 80.76,56 82.2,55.84 82.94,55.8 83.67,55.65 84.49,55.85 84.7,55.91 84.92,56.03 85.08,56.23 85.23,56.43 85.29,56.68 85.31,56.89 85.32,57.29 85.35,57.62 85.39,58 85.55,59.47 85.83,60.92 86.08,62.37 86.35,63.81 86.6,65.26 87.23,66.6 L 87.17,66.65 C 86.65,66.08 86.32,65.38 86.03,64.68 85.74,63.98 85.54,63.25 85.36,62.52 85.01,61.05 84.89,59.54 84.8,58.05 84.78,57.68 84.77,57.27 84.77,56.92 84.77,56.6 84.65,56.41 84.35,56.31 83.73,56.11 82.95,56.19 82.22,56.21 80.68,56.27 79.23,55.73 77.89,55.11 L 77.92,55.04 Z M 77.92,55.04" />
            <path id="mel08Canvas-bezier3" stroke="none" fill="rgb(51, 91, 113)" d="M 86.75,56.46 C 88.02,56.63 89.3,56.83 90.56,57.12 91.18,57.27 91.82,57.41 92.41,57.72 92.95,58.01 93.61,58.11 94.23,58.26 95.49,58.52 96.76,58.76 98.01,59.09 98.63,59.26 99.26,59.44 99.86,59.7 100.46,59.96 101.08,60.25 101.53,60.81 101.64,60.95 101.73,61.14 101.78,61.28 101.84,61.42 101.91,61.56 101.98,61.7 L 102.44,62.55 103.39,64.23 105.32,67.59 C 106.61,69.84 107.87,72.09 109.07,74.38 110.28,76.67 111.45,78.99 112.43,81.4 112.92,82.61 113.37,83.84 113.62,85.16 113.73,85.83 113.83,86.51 113.64,87.26 113.58,87.45 113.5,87.64 113.37,87.81 113.32,87.9 113.23,87.98 113.15,88.05 L 112.95,88.21 C 112.68,88.42 112.4,88.6 112.12,88.77 110.99,89.46 109.81,89.99 108.63,90.53 L 105.09,92.08 C 103.92,92.6 102.76,93.15 101.64,93.78 101.09,94.09 100.55,94.43 100.05,94.83 99.56,95.23 99.09,95.69 98.86,96.29 L 98.79,96.27 C 98.99,95.63 99.45,95.12 99.92,94.68 100.4,94.24 100.93,93.86 101.48,93.5 102.57,92.8 103.73,92.21 104.88,91.64 107.18,90.47 109.6,89.51 111.74,88.17 112,88 112.27,87.82 112.5,87.63 112.55,87.59 112.63,87.53 112.67,87.49 112.71,87.45 112.75,87.42 112.78,87.37 112.84,87.29 112.89,87.18 112.92,87.05 113.06,86.55 112.99,85.91 112.88,85.31 112.63,84.09 112.21,82.87 111.75,81.68 110.81,79.29 109.7,76.96 108.54,74.66 107.38,72.36 106.15,70.09 104.9,67.83 L 103.02,64.45 102.09,62.74 101.64,61.88 C 101.57,61.73 101.49,61.58 101.43,61.42 101.37,61.26 101.32,61.16 101.23,61.04 100.88,60.57 100.3,60.26 99.73,60.01 99.15,59.75 98.54,59.56 97.93,59.38 96.7,59.02 95.44,58.77 94.18,58.48 93.56,58.31 92.91,58.22 92.32,57.88 91.78,57.58 91.14,57.42 90.52,57.26 89.28,56.95 88.01,56.73 86.74,56.54 L 86.75,56.46 Z M 86.75,56.46" />
            <path id="mel08Canvas-bezier4" stroke="none" fill="rgb(51, 91, 113)" d="M 95.95,87.77 C 96.56,89.53 96.96,91.36 97.22,93.21 97.46,95.07 97.54,96.95 97.4,98.83 97.27,100.7 96.96,102.59 96.25,104.35 95.53,106.1 94.55,107.75 93.23,109.08 L 93.17,109.04 C 94.15,107.45 94.99,105.82 95.56,104.09 96.15,102.37 96.61,100.59 96.82,98.77 97.02,96.95 97.02,95.09 96.86,93.25 96.7,91.42 96.4,89.58 95.88,87.8 L 95.95,87.77 Z M 95.95,87.77" />
            <path id="mel08Canvas-bezier5" stroke="none" fill="rgb(51, 91, 113)" d="M 89.04,114.2 C 86.4,118.09 83.42,121.73 80.32,125.26 77.19,128.76 73.89,132.11 70.43,135.29 68.71,136.89 66.91,138.4 65.16,139.95 63.41,141.5 61.66,143.06 59.95,144.65 58.22,146.23 56.55,147.86 54.93,149.54 54.12,150.38 53.32,151.24 52.57,152.13 51.81,153.02 51.05,153.92 50.46,154.92 L 50.4,154.89 C 51.48,152.78 53.02,150.97 54.55,149.19 56.11,147.42 57.77,145.75 59.45,144.11 61.15,142.49 62.9,140.92 64.68,139.39 66.48,137.87 68.29,136.41 70.04,134.85 73.53,131.74 76.88,128.45 80.05,125.01 83.22,121.56 86.26,117.98 88.98,114.16 L 89.04,114.2 Z M 89.04,114.2" />
            <path id="mel08Canvas-bezier6" stroke="none" fill="rgb(51, 91, 113)" d="M 93.23,110.91 C 93.48,112.82 93.59,114.74 93.56,116.67 93.51,118.59 93.33,120.53 92.8,122.4 92.52,123.33 92.15,124.25 91.6,125.07 91.31,125.49 91.03,125.84 90.79,126.25 90.55,126.65 90.32,127.07 90.1,127.49 89.22,129.18 88.46,130.94 87.7,132.7 86.2,136.22 84.81,139.8 83.17,143.28 82.34,145.02 81.5,146.75 80.53,148.42 80.04,149.25 79.53,150.07 78.96,150.85 78.37,151.61 77.75,152.39 76.91,152.89 L 76.87,152.83 C 77.62,152.25 78.17,151.46 78.68,150.66 79.19,149.86 79.65,149.02 80.08,148.17 80.94,146.47 81.74,144.73 82.5,142.98 L 87.16,132.46 C 87.95,130.71 88.75,128.96 89.67,127.26 89.91,126.84 90.15,126.42 90.41,126.01 90.66,125.59 90.99,125.2 91.25,124.83 91.78,124.07 92.16,123.19 92.44,122.29 93.01,120.48 93.24,118.57 93.33,116.66 93.42,114.75 93.36,112.83 93.16,110.92 L 93.23,110.91 Z M 93.23,110.91" />
            <path id="mel08Canvas-bezier7" stroke="none" fill="rgb(51, 91, 113)" d="M 90.86,128.74 C 91.33,131.95 91.76,135.18 92.16,138.41 92.36,140.02 92.6,141.63 92.71,143.25 92.79,144.88 92.89,146.5 92.81,148.14 L 92.74,148.15 C 92.39,146.55 92.19,144.93 91.97,143.32 91.77,141.71 91.69,140.09 91.57,138.47 L 90.78,128.74 90.86,128.74 Z M 90.86,128.74" />
            <path id="mel08Canvas-bezier8" stroke="none" fill="rgb(51, 91, 113)" d="M 114.18,89.02 C 115.71,93.45 117.11,97.92 118.38,102.43 119.02,104.68 119.67,106.94 120.14,109.24 120.58,111.54 120.99,113.87 121.08,116.22 L 121.01,116.23 C 120.5,113.94 119.99,111.67 119.42,109.4 L 117.81,102.58 C 116.67,98.05 115.43,93.54 114.11,89.05 L 114.18,89.02 Z M 114.18,89.02" />
            <path id="mel08Canvas-bezier9" stroke="none" fill="rgb(51, 91, 113)" d="M 121.44,126.37 C 119.85,130.42 118.11,134.41 116.13,138.3 115.15,140.24 114.1,142.15 112.97,144.02 111.83,145.88 110.62,147.73 109.12,149.35 L 109.16,149.3 C 108.26,150.73 107.33,152.14 106.46,153.6 106.01,154.32 105.58,155.04 105.17,155.78 104.77,156.52 104.31,157.26 104.14,158.07 L 104.06,158.06 C 104.07,157.62 104.22,157.21 104.36,156.81 104.51,156.4 104.67,156.01 104.85,155.62 105.2,154.84 105.58,154.08 105.98,153.32 106.79,151.82 107.62,150.34 108.53,148.89 L 108.54,148.87 108.57,148.84 C 111.4,145.63 113.66,141.89 115.72,138.08 117.77,134.25 119.66,130.34 121.37,126.34 L 121.44,126.37 Z M 121.44,126.37" />
            <path id="mel08Canvas-bezier10" stroke="none" fill="rgb(51, 91, 113)" d="M 97.19,151.75 C 98.27,149.36 99.33,146.96 100.36,144.55 101.39,142.14 102.43,139.72 103.24,137.25 103.34,136.94 103.43,136.63 103.49,136.33 103.55,136.05 103.59,135.68 103.67,135.36 103.81,134.7 103.99,134.06 104.18,133.43 104.56,132.16 105.01,130.92 105.48,129.69 105.98,128.47 106.47,127.25 107.03,126.06 107.6,124.87 108.11,123.66 108.9,122.57 L 108.96,122.62 C 108.65,123.18 108.42,123.81 108.19,124.42 107.95,125.03 107.72,125.64 107.5,126.26 107.05,127.49 106.59,128.71 106.17,129.95 105.73,131.18 105.29,132.42 104.87,133.65 104.67,134.27 104.47,134.89 104.31,135.51 104.22,135.82 104.19,136.11 104.1,136.47 104.02,136.81 103.91,137.12 103.8,137.44 102.9,139.94 101.79,142.31 100.7,144.7 99.58,147.08 98.43,149.44 97.25,151.79 L 97.19,151.75 Z M 97.19,151.75" />
            <path id="mel08Canvas-bezier11" stroke="none" fill="rgb(51, 91, 113)" d="M 108.9,121.13 C 107.18,117.15 105.5,113.15 103.85,109.14 103.02,107.14 102.15,105.15 101.41,103.11 100.69,101.06 99.95,99.02 99.42,96.9 L 99.49,96.87 C 100.42,98.84 101.25,100.84 102.09,102.84 102.92,104.84 103.64,106.89 104.4,108.92 L 108.96,121.1 108.9,121.13 Z M 108.9,121.13" />
            <path id="mel08Canvas-bezier12" stroke="none" fill="rgb(51, 91, 113)" d="M 99.98,150.88 C 99.58,151.58 99.18,152.31 98.57,152.87 97.96,153.44 97.15,153.76 96.34,153.85 95.55,153.97 94.8,154.27 94.07,154.58 93.33,154.9 92.61,155.27 91.91,155.66 90.51,156.45 89.16,157.34 87.92,158.35 87.3,158.86 86.71,159.4 86.17,159.98 85.64,160.58 85.08,161.2 84.53,161.78 83.98,162.38 83.42,162.97 82.91,163.57 82.4,164.17 81.89,164.82 81.77,165.48 81.63,166.08 82.05,166.91 82.54,167 82.8,167.06 83.14,166.98 83.47,166.83 83.8,166.68 84.13,166.47 84.44,166.24 85.09,165.79 85.66,165.25 86.27,164.7 86.92,164.15 87.61,163.7 88.34,163.32 89.06,162.92 89.79,162.58 90.5,162.21 91.2,161.84 91.96,161.48 92.36,160.78 L 92.43,160.81 C 92.29,161.21 91.98,161.52 91.67,161.78 91.35,162.05 91.01,162.28 90.67,162.5 89.98,162.93 89.27,163.33 88.6,163.76 87.93,164.2 87.27,164.65 86.7,165.17 86.14,165.72 85.54,166.33 84.88,166.83 84.54,167.08 84.19,167.32 83.78,167.51 83.39,167.69 82.91,167.86 82.37,167.75 81.81,167.64 81.43,167.17 81.24,166.75 81.03,166.35 80.95,165.81 81.05,165.34 81.28,164.39 81.88,163.75 82.41,163.13 82.96,162.52 83.54,161.95 84.11,161.37 84.68,160.79 85.22,160.22 85.78,159.61 86.36,159.02 86.98,158.48 87.62,157.98 88.91,156.97 90.3,156.1 91.74,155.34 92.46,154.96 93.19,154.61 93.95,154.31 94.71,154.01 95.48,153.73 96.31,153.63 97.1,153.56 97.87,153.29 98.47,152.76 99.08,152.24 99.5,151.53 99.91,150.84 L 99.98,150.88 Z M 99.98,150.88" />
            <path id="mel08Canvas-bezier13" stroke="none" fill="rgb(51, 91, 113)" d="M 88.73,164.41 C 89.1,164.87 89.49,165.3 89.91,165.71 90.31,166.12 90.74,166.51 91.19,166.86 91.64,167.21 92.15,167.46 92.6,167.74 93.07,168.02 93.54,168.25 94.13,168.4 L 94.14,168.48 C 93.56,168.74 92.86,168.64 92.28,168.41 91.69,168.17 91.24,167.72 90.81,167.31 89.95,166.46 89.25,165.49 88.67,164.45 L 88.73,164.41 Z M 88.73,164.41" />
            <path id="mel08Canvas-bezier14" stroke="none" fill="rgb(51, 91, 113)" d="M 94.79,166.83 C 96.36,165.38 97.92,163.92 99.46,162.45 100.23,161.7 100.95,160.92 101.74,160.21 102.52,159.49 103.34,158.83 104.07,158.05 L 104.13,158.08 C 103.95,158.61 103.62,159.06 103.3,159.5 102.98,159.94 102.62,160.34 102.25,160.74 101.52,161.53 100.68,162.2 99.86,162.89 98.22,164.27 96.55,165.6 94.84,166.89 L 94.79,166.83 Z M 94.79,166.83" />
            <path id="mel08Canvas-bezier15" stroke="none" fill="rgb(51, 91, 113)" d="M 90.11,151.78 C 89.49,149.56 88.93,147.32 88.42,145.07 88.16,143.95 87.86,142.83 87.72,141.68 87.59,140.53 87.48,139.36 87.62,138.19 L 87.69,138.19 C 87.95,139.32 88.21,140.43 88.45,141.56 88.68,142.68 88.81,143.82 89,144.96 89.38,147.22 89.77,149.49 90.18,151.76 L 90.11,151.78 Z M 90.11,151.78" />
            <path id="mel08Canvas-bezier16" stroke="none" fill="rgb(51, 91, 113)" d="M 76.88,159.17 C 74.66,158.77 72.42,158.49 70.18,158.27 67.94,158.05 65.7,157.91 63.45,157.9 61.21,157.89 58.97,158.05 56.77,158.33 54.57,158.62 52.36,159.12 50.45,160.32 L 50.4,160.26 C 51.24,159.47 52.27,158.92 53.34,158.5 54.41,158.08 55.53,157.81 56.65,157.6 58.91,157.21 61.2,157.22 63.46,157.31 68,157.49 72.48,158.13 76.9,159.1 L 76.88,159.17 Z M 76.88,159.17" />
            <path id="mel08Canvas-bezier17" stroke="none" fill="rgb(51, 91, 113)" d="M 47.21,158.39 C 45.45,159.65 43.47,160.55 41.42,161.23 39.37,161.9 37.24,162.31 35.08,162.48 32.92,162.65 30.74,162.62 28.6,162.24 26.47,161.84 24.38,161.24 22.42,160.33 L 22.45,160.26 C 24.53,160.77 26.61,161.25 28.71,161.51 30.81,161.79 32.92,161.98 35.04,161.89 37.16,161.8 39.27,161.46 41.32,160.88 43.36,160.3 45.37,159.5 47.16,158.33 L 47.21,158.39 Z M 47.21,158.39" />
            <path id="mel08Canvas-bezier18" stroke="none" fill="rgb(51, 91, 113)" d="M 24.2,162.46 C 24.66,165.79 24.83,169.16 24.61,172.52 24.49,174.2 24.26,175.88 23.81,177.5 23.7,177.91 23.58,178.31 23.44,178.71 23.3,179.11 23.12,179.49 23.01,179.89 22.77,180.69 22.65,181.52 22.56,182.35 22.25,185.69 22.42,189.05 22.52,192.41 22.64,195.77 22.78,199.13 22.73,202.49 22.68,205.85 22.51,209.24 21.65,212.53 21.24,214.16 20.53,215.77 19.55,217.13 18.67,218.55 17.86,220.01 17.1,221.5 14.08,227.48 11.62,233.75 9.43,240.08 L 9.23,239.76 C 15.88,240.67 22.51,241.71 29.11,242.92 32.41,243.53 35.7,244.19 38.97,244.93 40.61,245.31 42.24,245.7 43.87,246.15 44.68,246.37 45.49,246.6 46.29,246.85 47.1,247.11 47.87,247.33 48.69,247.51 51.94,248.21 55.28,248.45 58.62,248.57 61.95,248.68 65.3,248.65 68.64,248.52 75.33,248.27 82.01,247.71 88.65,246.92 L 88.34,247.23 C 89.64,238.89 90.75,230.51 91.64,222.12 92.08,217.92 92.45,213.72 92.71,209.5 92.96,205.29 93.15,201.07 92.88,196.85 L 92.96,196.84 C 93.3,201.06 93.21,205.3 93.03,209.52 92.83,213.74 92.49,217.96 92.1,222.17 91.3,230.58 90.27,238.97 89.05,247.34 L 89.01,247.61 88.74,247.64 C 82.07,248.46 75.38,249 68.67,249.26 65.31,249.37 61.95,249.42 58.59,249.29 55.23,249.15 51.86,248.89 48.55,248.16 47.72,247.98 46.89,247.74 46.1,247.48 45.3,247.22 44.5,246.99 43.7,246.76 42.09,246.32 40.47,245.91 38.84,245.53 35.58,244.77 32.29,244.1 29,243.48 22.42,242.25 15.8,241.18 9.17,240.24 L 8.88,240.2 8.97,239.92 C 11.2,233.58 13.69,227.32 16.75,221.32 17.52,219.83 18.34,218.36 19.24,216.93 20.22,215.56 20.89,214.06 21.32,212.44 22.18,209.21 22.37,205.83 22.44,202.49 22.5,199.13 22.39,195.77 22.29,192.42 22.21,189.06 22.06,185.69 22.38,182.33 22.48,181.49 22.61,180.66 22.85,179.84 22.97,179.43 23.15,179.05 23.29,178.66 23.43,178.27 23.56,177.87 23.67,177.46 24.12,175.85 24.35,174.18 24.48,172.51 24.72,169.17 24.57,165.79 24.12,162.47 L 24.2,162.46 Z M 24.2,162.46" />
            <path id="mel08Canvas-bezier19" stroke="none" fill="rgb(51, 91, 113)" d="M 93.07,194.74 C 92.55,194.03 92.11,193.24 91.94,192.33 91.87,191.88 91.89,191.38 92.09,190.92 92.27,190.46 92.68,190.09 93.04,189.86 93.37,189.62 93.61,189.32 93.63,189.04 93.66,188.75 93.51,188.4 93.34,188.02 93,187.29 92.44,186.42 92.56,185.48 L 92.63,185.47 C 92.92,186.31 93.51,186.88 93.98,187.67 94.22,188.06 94.45,188.56 94.34,189.16 94.21,189.76 93.76,190.12 93.37,190.35 92.98,190.56 92.7,190.78 92.52,191.13 92.33,191.47 92.27,191.88 92.31,192.29 92.36,193.12 92.7,193.95 93.13,194.7 L 93.07,194.74 Z M 93.07,194.74" />
            <path id="mel08Canvas-bezier20" stroke="none" fill="rgb(51, 91, 113)" d="M 93.02,183.49 C 93.49,180.99 93.91,178.49 94.28,175.98 94.45,174.72 94.56,173.46 94.76,172.21 L 95.34,168.45 95.42,168.45 C 95.62,169.73 95.59,171.02 95.49,172.3 95.39,173.58 95.11,174.83 94.86,176.08 94.36,178.58 93.77,181.05 93.09,183.51 L 93.02,183.49 Z M 93.02,183.49" />
            <path id="mel08Canvas-bezier21" stroke="none" fill="rgb(51, 91, 113)" d="M 52.95,250.09 C 53.01,254.21 52.88,258.34 52.5,262.46 52.31,264.52 52.1,266.58 51.62,268.61 51.11,270.61 50.53,272.66 49.32,274.38 L 49.26,274.34 C 50.07,272.45 50.53,270.46 50.9,268.45 51.28,266.45 51.65,264.43 51.92,262.39 52.18,260.36 52.38,258.31 52.53,256.26 52.69,254.2 52.81,252.15 52.87,250.09 L 52.95,250.09 52.95,250.09 Z M 52.95,250.09" />
            <path id="mel08Canvas-bezier22" stroke="none" fill="rgb(51, 91, 113)" d="M 49.32,276.18 C 49.03,280.83 48.84,285.49 48.94,290.14 49.01,292.47 49.11,294.78 49.63,297.05 49.96,299.4 49.97,301.73 49.99,304.07 50.01,308.73 49.9,313.4 49.65,318.05 L 48.79,332 48.71,332 C 48.54,327.33 48.8,322.67 48.91,318.02 49.07,313.36 49.34,308.71 49.4,304.06 49.41,301.75 49.44,299.4 49.16,297.13 48.67,294.85 48.6,292.47 48.57,290.15 48.57,285.48 48.86,280.82 49.25,276.18 L 49.32,276.18 Z M 49.32,276.18" />
            <path id="mel08Canvas-bezier23" stroke="none" fill="rgb(51, 91, 113)" d="M 59.74,366.11 C 60.4,367.54 60.95,369.02 61.38,370.55 61.78,372.07 62.12,373.66 61.85,375.28 61.72,376.07 61.32,376.9 60.58,377.36 60.22,377.6 59.79,377.73 59.42,377.8 59.02,377.89 58.63,377.95 58.23,378 56.65,378.17 55.06,378.14 53.49,377.99 50.35,377.68 47.18,376.96 44.39,375.34 43.02,374.51 41.74,373.47 40.81,372.14 39.87,370.82 39.33,369.23 39.29,367.65 L 39.36,367.64 C 39.61,369.19 40.25,370.65 41.22,371.83 42.18,373.02 43.41,373.97 44.76,374.69 47.45,376.16 50.48,377.02 53.55,377.41 55.09,377.58 56.65,377.65 58.18,377.52 58.56,377.48 58.95,377.43 59.32,377.36 59.71,377.29 60.04,377.19 60.35,377 60.98,376.64 61.35,375.94 61.49,375.2 61.79,373.7 61.52,372.11 61.17,370.6 60.79,369.08 60.29,367.59 59.67,366.14 L 59.74,366.11 Z M 59.74,366.11" />
            <path id="mel08Canvas-bezier24" stroke="none" fill="rgb(51, 91, 113)" d="M 39.3,364.33 C 38.46,363.48 37.7,362.53 37.09,361.48 36.8,360.95 36.54,360.38 36.37,359.79 36.29,359.49 36.22,359.18 36.19,358.86 36.16,358.54 36.18,358.22 36.19,357.93 36.23,356.72 36.26,355.52 36.44,354.33 36.61,353.15 36.83,351.97 37.17,350.8 L 37.25,350.81 C 37.3,352.02 37.24,353.22 37.17,354.41 37.09,355.6 36.9,356.78 36.78,357.97 36.58,359.12 36.91,360.24 37.42,361.31 37.93,362.37 38.59,363.37 39.35,364.28 L 39.3,364.33 Z M 39.3,364.33" />
            <path id="mel08Canvas-bezier25" stroke="none" fill="rgb(51, 91, 113)" d="M 58.19,363.13 L 47.93,363.26 47.35,363.27 47.84,362.95 56.54,357.33 56.69,357.83 47.93,357.93 46.71,357.94 47.73,357.25 C 49.98,355.74 52.25,354.25 54.54,352.81 L 54.69,353.41 C 53.13,353.21 51.57,353.01 50.02,352.77 48.46,352.56 46.91,352.32 45.36,352.06 L 45.37,351.98 C 46.94,352.08 48.5,352.2 50.07,352.33 51.63,352.45 53.2,352.6 54.76,352.76 L 55.65,352.84 54.9,353.36 C 52.67,354.9 50.41,356.39 48.13,357.86 L 47.93,357.19 56.69,357.29 57.61,357.3 56.83,357.79 48.02,363.24 47.93,362.93 58.19,363.06 58.19,363.13 58.19,363.13 Z M 58.19,363.13" />
            <path id="mel08Canvas-bezier26" stroke="none" fill="rgb(51, 91, 113)" d="M 53.78,349.59 C 53.83,348.31 53.61,346.88 52.73,345.99 52.3,345.55 51.7,345.33 51.09,345.3 50.49,345.27 49.8,345.36 49.16,345.41 47.87,345.55 46.57,345.76 45.39,346.12 44.81,346.31 44.25,346.59 43.95,347.05 43.63,347.51 43.7,348.19 43.89,348.82 L 43.82,348.85 C 43.63,348.58 43.48,348.26 43.39,347.91 43.32,347.57 43.34,347.17 43.49,346.81 43.81,346.08 44.51,345.69 45.14,345.43 46.44,344.92 47.8,344.88 49.12,344.82 49.79,344.81 50.42,344.75 51.13,344.82 51.82,344.9 52.53,345.2 52.99,345.74 53.46,346.27 53.7,346.94 53.82,347.6 53.93,348.27 53.94,348.94 53.85,349.6 L 53.78,349.59 Z M 53.78,349.59" />
            <path id="mel08Canvas-bezier27" stroke="none" fill="rgb(51, 91, 113)" d="M 42.68,352.02 C 42.55,353.11 42.42,354.18 41.97,355.24 41.9,355.37 41.83,355.5 41.7,355.63 41.64,355.69 41.55,355.75 41.43,355.77 41.31,355.8 41.18,355.76 41.09,355.71 40.76,355.47 40.68,355.2 40.55,354.94 40.34,354.41 40.17,353.91 39.99,353.39 39.65,352.36 39.28,351.33 39.01,350.3 38.87,349.78 38.73,349.26 38.57,348.76 38.5,348.53 38.39,348.25 38.28,348.15 38.26,348.13 38.27,348.11 38.24,348.12 38.21,348.13 38.17,348.17 38.13,348.21 38.05,348.3 37.98,348.42 37.92,348.54 L 37.85,348.52 C 37.86,348.38 37.89,348.24 37.94,348.1 37.98,348.03 38.01,347.96 38.09,347.89 38.17,347.81 38.34,347.79 38.43,347.84 38.78,348.05 38.88,348.31 39.04,348.55 39.32,349.04 39.52,349.56 39.71,350.07 40.08,351.11 40.29,352.17 40.56,353.22 40.7,353.74 40.83,354.27 40.99,354.76 41.07,355 41.19,355.26 41.31,355.35 41.36,355.38 41.35,355.39 41.44,355.33 41.51,355.27 41.58,355.17 41.65,355.06 42.13,354.16 42.39,353.06 42.61,352.02 L 42.68,352.02 Z M 42.68,352.02" />
            <path id="mel08Canvas-bezier28" stroke="none" fill="rgb(51, 91, 113)" d="M 61.79,366.09 C 64.08,366.47 66.41,366.65 68.71,366.52 69.86,366.45 71,366.29 72.08,365.93 73.14,365.58 74.16,364.97 74.64,364.02 74.89,363.54 74.96,363.03 75.01,362.43 75.07,361.88 75.08,361.3 75.05,360.74 74.98,359.62 74.76,358.51 74.35,357.46 73.57,355.34 71.99,353.59 70.25,352.05 L 70.3,351.99 C 72.29,353.19 74.06,354.95 75.03,357.18 75.51,358.3 75.76,359.51 75.78,360.71 75.79,361.32 75.75,361.91 75.67,362.52 75.59,363.08 75.49,363.75 75.16,364.3 74.53,365.44 73.35,366.05 72.22,366.39 71.08,366.73 69.9,366.85 68.73,366.88 66.38,366.92 64.06,366.64 61.78,366.16 L 61.79,366.09 Z M 61.79,366.09" />
            <path id="mel08Canvas-bezier29" stroke="none" fill="rgb(51, 91, 113)" d="M 68.61,350.84 L 60.49,352.77 59.93,352.91 60.36,352.52 66.34,347.14 66.52,347.55 59.13,348.29 58.32,348.37 58.87,347.75 62.9,343.27 63.18,343.91 C 60.86,343.92 58.55,343.88 56.23,343.83 L 55.24,343.81 56.07,343.27 C 57.11,342.6 58.16,341.97 59.21,341.31 60.26,340.66 61.33,340.03 62.4,339.4 L 62.44,339.46 C 61.44,340.2 60.44,340.93 59.43,341.65 58.42,342.36 57.42,343.09 56.4,343.78 L 56.23,343.22 C 58.55,343.18 60.86,343.14 63.18,343.14 L 64.06,343.15 63.46,343.79 59.33,348.19 59.07,347.65 66.48,347.08 67.2,347.02 66.65,347.5 60.56,352.74 60.43,352.48 68.59,350.77 68.61,350.84 Z M 68.61,350.84" />
            <path id="mel08Canvas-bezier30" stroke="none" fill="rgb(51, 91, 113)" d="M 59.82,337.91 C 59.8,337.48 59.74,337.04 59.62,336.63 59.5,336.23 59.31,335.82 59,335.62 58.7,335.42 58.31,335.48 57.95,335.65 57.6,335.82 57.23,336.09 56.88,336.33 56.17,336.82 55.52,337.39 54.99,337.97 54.45,338.56 54.15,339.34 53.88,340.19 L 53.81,340.19 C 53.67,339.31 53.84,338.3 54.41,337.52 54.98,336.72 55.81,336.28 56.56,335.83 56.95,335.61 57.31,335.38 57.77,335.21 58.19,335.04 58.8,334.98 59.22,335.33 59.62,335.67 59.75,336.15 59.83,336.58 59.91,337.03 59.92,337.47 59.89,337.92 L 59.82,337.91 Z M 59.82,337.91" />
            <path id="mel08Canvas-bezier31" stroke="none" fill="rgb(51, 91, 113)" d="M 51.75,342.79 C 50.9,341.46 50.15,340.07 49.51,338.63 49.19,337.9 48.84,337.18 48.69,336.38 48.53,335.6 48.45,334.77 48.66,333.97 L 48.73,333.97 C 48.93,334.75 49.16,335.46 49.4,336.19 49.65,336.92 49.81,337.67 50.06,338.41 50.57,339.88 51.16,341.33 51.81,342.75 L 51.75,342.79 Z M 51.75,342.79" />
            <path id="mel08Canvas-bezier32" stroke="none" fill="rgb(51, 91, 113)" d="M 36.41,344.44 C 36.48,342.88 36.6,341.32 36.78,339.77 36.99,338.24 37.18,336.66 37.8,335.2 38.04,334.51 37.9,333.71 37.8,332.96 37.67,332.19 37.49,331.44 37.29,330.69 36.89,329.19 36.42,327.71 35.91,326.24 34.9,323.3 33.78,320.4 32.59,317.53 L 31.68,315.38 C 31.37,314.65 31.13,313.9 30.91,313.15 30.47,311.64 30.1,310.12 29.77,308.6 29.1,305.55 28.56,302.47 28.13,299.37 27.73,296.28 27.44,293.16 27.29,290.04 27.18,286.92 27.19,283.78 27.46,280.67 27.73,277.55 28.23,274.44 29.17,271.47 L 29.24,271.49 C 28.86,273 28.59,274.53 28.39,276.07 28.18,277.6 28.05,279.15 27.97,280.7 27.82,283.8 27.84,286.91 28.02,290 28.17,293.1 28.46,296.2 28.86,299.28 29.23,302.36 29.72,305.43 30.34,308.47 30.66,309.99 31,311.51 31.42,313 31.63,313.74 31.86,314.48 32.14,315.19 L 33.03,317.35 C 34.19,320.24 35.28,323.16 36.26,326.12 36.74,327.6 37.2,329.1 37.58,330.61 37.76,331.37 37.93,332.14 38.05,332.92 38.14,333.69 38.28,334.49 38,335.29 37.37,336.7 37.16,338.26 36.93,339.79 36.72,341.33 36.58,342.88 36.48,344.44 L 36.41,344.44 Z M 36.41,344.44" />
            <path id="mel08Canvas-bezier33" stroke="none" fill="rgb(51, 91, 113)" d="M 30.23,268.6 C 29.81,264.58 29.35,260.57 28.82,256.57 L 27.92,250.59 C 27.65,248.59 27.38,246.6 26.91,244.64 L 26.98,244.62 C 27.86,246.47 28.24,248.49 28.65,250.47 29.02,252.46 29.2,254.48 29.4,256.5 29.81,260.52 30.1,264.55 30.3,268.59 L 30.23,268.6 Z M 30.23,268.6" />
            <path id="mel08Canvas-bezier34" stroke="none" fill="rgb(51, 91, 113)" d="M 86.01,249.01 C 85.59,251.65 85.02,254.26 84.4,256.86 83.77,259.46 83.06,262.04 82.26,264.59 81.46,267.15 80.61,269.7 79.49,272.14 78.36,274.57 77.09,276.96 75.45,279.08 L 75.39,279.04 C 76.67,276.7 77.81,274.3 78.82,271.84 79.83,269.39 80.83,266.93 81.7,264.41 82.56,261.89 83.34,259.34 84.04,256.77 84.75,254.2 85.42,251.61 85.94,248.99 L 86.01,249.01 Z M 86.01,249.01" />
            <path id="mel08Canvas-bezier35" stroke="none" fill="rgb(51, 91, 113)" d="M 56.27,250.09 C 56.1,252.95 55.97,255.81 55.87,258.67 55.76,261.53 55.68,264.39 55.65,267.26 55.62,270.12 55.68,272.98 55.71,275.83 55.71,277.26 55.76,278.68 55.83,280.11 55.91,281.53 56.01,282.95 56.27,284.36 L 56.2,284.38 C 55.73,283.01 55.5,281.58 55.32,280.15 55.14,278.72 55.06,277.29 54.98,275.85 54.85,272.98 54.95,270.11 55.06,267.24 55.27,261.51 55.66,255.79 56.2,250.09 L 56.27,250.09 Z M 56.27,250.09" />
            <path id="mel08Canvas-bezier36" stroke="none" fill="rgb(51, 91, 113)" d="M 53.88,283.93 C 53.24,285.44 52.62,286.96 52.04,288.48 51.75,289.24 51.54,290.03 51.22,290.77 L 50.27,293.02 50.2,293.01 C 50.11,292.16 50.3,291.32 50.53,290.52 50.75,289.72 51.15,288.99 51.5,288.25 52.21,286.76 52.98,285.31 53.81,283.9 L 53.88,283.93 Z M 53.88,283.93" />
            <path id="mel08Canvas-bezier37" stroke="none" fill="rgb(51, 91, 113)" d="M 77.41,279.07 C 77.11,280.69 76.7,282.29 76.14,283.85 75.86,284.63 75.6,285.43 75.13,286.14 74.68,286.83 74.11,287.54 73.31,287.89 L 73.27,287.83 C 73.78,287.18 74.14,286.48 74.5,285.77 74.84,285.06 75.26,284.37 75.59,283.63 76.26,282.15 76.83,280.61 77.33,279.05 L 77.41,279.07 Z M 77.41,279.07" />
            <path id="mel08Canvas-bezier38" stroke="none" fill="rgb(51, 91, 113)" d="M 73.33,289.52 C 73.61,291.54 73.45,293.62 72.81,295.57 72.48,296.54 72.03,297.47 71.43,298.31 71.13,298.74 70.8,299.11 70.52,299.52 70.23,299.93 69.95,300.35 69.68,300.78 67.54,304.2 65.64,307.79 63.81,311.4 62,315.02 60.33,318.71 58.76,322.43 57.96,324.28 57.23,326.17 56.6,328.08 56.29,329.04 56.01,330.01 55.82,330.99 55.64,331.97 55.46,333 55.8,333.95 L 55.73,333.99 C 55.29,333.03 55.39,331.95 55.49,330.94 55.62,329.92 55.85,328.92 56.11,327.94 56.64,325.96 57.34,324.04 58.08,322.15 59.58,318.36 61.4,314.72 63.29,311.13 65.19,307.54 67.15,303.98 69.37,300.58 69.66,300.15 69.94,299.73 70.25,299.32 70.55,298.91 70.9,298.53 71.19,298.14 71.79,297.33 72.26,296.44 72.6,295.49 73.27,293.6 73.49,291.54 73.26,289.53 L 73.33,289.52 Z M 73.33,289.52" />
            <path id="mel08Canvas-bezier39" stroke="none" fill="rgb(51, 91, 113)" d="M 76.93,56.15 C 78.17,60.41 79.11,64.76 79.66,69.18 79.92,71.39 80.08,73.61 80.02,75.85 79.95,78.07 79.7,80.34 78.88,82.47 78.47,83.52 77.9,84.55 77.1,85.39 76.31,86.24 75.26,86.87 74.15,87.19 72,87.87 69.67,88.06 67.44,87.66 65.21,87.26 63.1,86.35 61.25,85.09 59.4,83.82 57.76,82.26 56.46,80.45 L 56.52,80.41 C 57.23,81.25 58.03,82.02 58.87,82.72 59.71,83.43 60.59,84.08 61.52,84.65 63.38,85.79 65.43,86.63 67.56,86.94 69.69,87.28 71.87,87.1 73.94,86.48 74.97,86.21 75.89,85.68 76.63,84.93 77.37,84.18 77.93,83.24 78.33,82.24 79.15,80.23 79.44,78.02 79.54,75.83 79.63,73.63 79.52,71.42 79.3,69.22 78.84,64.82 78,60.45 76.85,56.17 L 76.93,56.15 Z M 76.93,56.15" />
            <path id="mel08Canvas-bezier40" stroke="none" fill="rgb(51, 91, 113)" d="M 51.68,51.55 C 51.79,52.86 51.87,54.17 51.91,55.48 51.93,56.14 52.01,56.79 51.93,57.45 51.85,58.1 51.78,58.77 51.42,59.4 L 51.36,59.37 C 51.3,58.73 51.21,58.07 51.2,57.42 51.17,56.77 51.28,56.12 51.32,55.47 51.41,54.17 51.5,52.86 51.6,51.55 L 51.68,51.55 Z M 51.68,51.55" />
            <path id="mel08Canvas-bezier41" stroke="none" fill="rgb(51, 91, 113)" d="M 121.44,117.32 C 122.27,118.46 122.78,119.85 122.87,121.3 122.91,122.02 122.9,122.78 122.64,123.48 122.38,124.16 121.99,124.8 121.44,125.28 L 121.37,125.24 C 121.58,124.54 121.79,123.91 121.93,123.26 122.07,122.62 122.26,121.98 122.28,121.31 122.31,120.64 122.24,119.96 122.08,119.3 121.93,118.63 121.71,117.97 121.38,117.36 L 121.44,117.32 Z M 121.44,117.32" />
            <path id="mel08Canvas-bezier42" stroke="none" fill="rgb(51, 91, 113)" d="M 28.91,62.48 C 27.93,62.07 26.96,61.62 26.03,61.08 25.8,60.93 25.57,60.78 25.35,60.61 25.12,60.41 24.96,60.25 24.75,60.1 24.35,59.8 23.9,59.61 23.47,59.69 23.25,59.73 23.08,59.83 22.85,59.97 22.64,60.11 22.42,60.25 22.2,60.4 21.77,60.7 21.33,60.99 20.88,61.28 20.01,61.85 19.04,62.34 18.22,62.97 L 18.16,62.94 C 18.42,62.42 18.84,62.07 19.22,61.69 19.62,61.32 20.04,60.99 20.47,60.66 20.9,60.35 21.35,60.05 21.82,59.78 22.05,59.65 22.29,59.52 22.53,59.39 22.77,59.27 23.09,59.13 23.39,59.11 24.05,59.03 24.63,59.36 25.04,59.72 25.26,59.9 25.46,60.12 25.63,60.28 25.81,60.46 26.02,60.61 26.23,60.77 27.08,61.38 28.01,61.91 28.94,62.41 L 28.91,62.48 Z M 28.91,62.48" />
            <path id="mel08Canvas-bezier43" stroke="none" fill="rgb(51, 91, 113)" d="M 23.43,62.36 C 23.82,62.75 24.23,63.11 24.64,63.42 24.85,63.58 25.1,63.65 25.27,63.82 25.45,63.98 25.6,64.14 25.85,64.36 L 25.85,64.43 C 25.55,64.63 25.18,64.57 24.89,64.45 24.6,64.34 24.42,64.07 24.24,63.85 23.87,63.41 23.59,62.92 23.37,62.4 L 23.43,62.36 Z M 23.43,62.36" />
            <path id="mel08Canvas-bezier44" stroke="none" fill="rgb(51, 91, 113)" d="M 26.11,63.75 C 26.27,64.66 26.51,65.56 26.88,66.38 27.07,66.79 27.29,67.19 27.6,67.43 27.68,67.48 27.75,67.53 27.83,67.55 27.91,67.58 27.98,67.58 28.11,67.59 28.32,67.6 28.55,67.6 28.74,67.57 29.17,67.5 29.37,67.34 29.41,66.99 29.46,66.63 29.41,66.2 29.34,65.76 29.22,64.84 29.13,63.91 29.15,62.96 L 29.22,62.95 C 29.59,63.82 29.84,64.72 30.06,65.62 30.16,66.08 30.26,66.58 30.12,67.15 30.06,67.42 29.89,67.73 29.62,67.92 29.35,68.1 29.05,68.15 28.8,68.16 28.54,68.17 28.3,68.15 28.05,68.12 27.96,68.11 27.79,68.09 27.65,68.03 27.51,67.97 27.4,67.89 27.29,67.8 26.9,67.42 26.71,66.97 26.54,66.52 26.24,65.61 26.11,64.69 26.03,63.76 L 26.11,63.75 Z M 26.11,63.75" />
            <path id="mel08Canvas-bezier45" stroke="none" fill="rgb(51, 91, 113)" d="M 24.25,63.97 C 23.89,64.53 23.43,65.02 22.89,65.43 22.63,65.63 22.36,65.88 22.02,65.96 21.68,66.05 21.32,66.07 20.96,65.93 L 20.95,65.85 C 21.22,65.59 21.48,65.43 21.74,65.27 21.99,65.11 22.3,65.06 22.58,64.92 23.14,64.66 23.69,64.32 24.2,63.92 L 24.25,63.97 Z M 24.25,63.97" />
            <path id="mel08Canvas-bezier46" stroke="none" fill="rgb(51, 91, 113)" d="M 20.7,65.88 C 20.79,66.08 20.85,66.31 20.83,66.55 20.81,66.68 20.77,66.8 20.69,66.92 20.66,66.97 20.58,67.03 20.57,67.05 L 20.52,67.11 C 20.52,67.13 20.51,67.14 20.51,67.15 20.38,67.44 20.46,67.92 20.26,68.42 20.21,68.55 20.13,68.68 20.02,68.79 19.97,68.85 19.91,68.9 19.85,68.94 19.83,68.95 19.76,69 19.78,68.99 L 19.71,69.04 C 19.59,69.13 19.48,69.25 19.34,69.38 19.06,69.64 18.79,69.96 18.45,70.28 L 18.38,70.25 C 18.36,69.77 18.5,69.32 18.77,68.91 18.9,68.71 19.11,68.52 19.36,68.4 L 19.5,68.34 C 19.53,68.33 19.56,68.32 19.59,68.3 19.64,68.27 19.69,68.21 19.74,68.15 19.94,67.88 19.91,67.42 20.2,66.95 20.26,66.87 20.31,66.83 20.35,66.8 20.42,66.75 20.43,66.76 20.47,66.72 20.53,66.67 20.58,66.6 20.61,66.51 20.67,66.33 20.67,66.11 20.63,65.9 L 20.7,65.88 Z M 20.7,65.88" />
            <path id="mel08Canvas-bezier47" stroke="none" fill="rgb(51, 91, 113)" d="M 19.78,69.57 L 21.43,71.23 C 21.7,71.5 22.03,71.72 22.25,72.03 22.49,72.33 22.66,72.66 22.9,72.97 L 22.88,73.04 C 22.4,73.06 22.04,72.78 21.72,72.55 21.4,72.29 21.21,71.93 20.98,71.61 20.52,70.97 20.1,70.3 19.72,69.62 L 19.78,69.57 Z M 19.78,69.57" />
            <path id="mel08Canvas-bezier48" stroke="none" fill="rgb(51, 91, 113)" d="M 23.53,72.57 C 23.9,72.18 24.28,71.82 24.68,71.47 25.09,71.14 25.55,70.78 26.06,70.59 26.35,70.42 26.56,69.91 26.84,69.51 26.98,69.3 27.12,69.07 27.29,68.86 27.46,68.66 27.63,68.42 27.92,68.29 L 27.96,68.35 C 27.8,68.83 27.72,69.36 27.49,69.86 27.25,70.35 26.94,70.84 26.27,71.14 25.77,71.25 25.35,71.5 24.9,71.77 24.45,72.03 24.01,72.32 23.59,72.62 L 23.53,72.57 Z M 23.53,72.57" />
            <path id="mel08Canvas-bezier49" stroke="none" fill="rgb(51, 91, 113)" d="M 30.58,66.53 C 31.1,66.48 31.71,66.55 32.09,67 32.27,67.23 32.36,67.51 32.34,67.8 32.32,68.09 32.23,68.36 32.12,68.61 31.9,69.11 31.6,69.55 31.35,70.02 31.23,70.24 31.12,70.48 31.1,70.7 31.08,70.89 31.18,71.17 31.25,71.42 31.32,71.67 31.4,71.95 31.41,72.24 31.43,72.53 31.36,72.87 31.17,73.13 30.99,73.39 30.72,73.56 30.46,73.68 30.2,73.79 29.99,73.89 29.76,74.02 28.85,74.52 27.98,75.13 27.14,75.76 26.31,76.4 25.48,77.08 24.8,77.83 24.5,78.18 24.18,78.68 23.82,79.08 23.47,79.48 23.1,79.88 22.73,80.26 21.19,81.76 19.56,83.19 17.67,84.21 L 17.63,84.15 C 19.27,82.79 20.78,81.32 22.19,79.75 22.55,79.37 22.9,78.97 23.24,78.57 23.6,78.18 23.86,77.79 24.27,77.34 25.05,76.54 25.91,75.9 26.79,75.28 27.67,74.67 28.57,74.08 29.54,73.59 29.78,73.47 30.05,73.36 30.28,73.27 30.5,73.18 30.7,73.05 30.83,72.88 31.11,72.54 31.03,72.02 30.89,71.51 30.84,71.25 30.74,71.01 30.77,70.66 30.82,70.35 30.96,70.11 31.1,69.87 31.38,69.41 31.69,68.98 31.92,68.51 32.16,68.06 32.29,67.51 31.98,67.09 31.67,66.69 31.09,66.58 30.58,66.6 L 30.58,66.53 Z M 30.58,66.53" />
            <path id="mel08Canvas-bezier50" stroke="none" fill="rgb(51, 91, 113)" d="M 16.53,85.2 C 16.01,86 15.84,86.99 15.66,87.94 15.49,88.89 15.4,89.86 15.34,90.83 15.22,92.77 15.23,94.72 15.3,96.67 15.43,100.56 15.8,104.44 16.26,108.3 L 16.64,111.2 16.84,112.64 C 16.91,113.07 17.05,113.56 17.18,114.02 17.71,115.89 18.18,117.81 18.47,119.76 19.04,123.64 19.01,127.7 17.75,131.43 L 17.68,131.41 C 18.52,127.6 18.43,123.67 17.75,119.88 17.43,117.97 16.96,116.1 16.47,114.21 16.36,113.73 16.23,113.27 16.15,112.74 L 15.98,111.28 15.68,108.37 C 15.29,104.48 14.99,100.58 14.93,96.67 14.91,94.72 14.95,92.76 15.12,90.81 15.2,89.84 15.32,88.87 15.51,87.91 15.72,86.96 15.91,85.97 16.48,85.14 L 16.53,85.2 Z M 16.53,85.2" />
            <path id="mel08Canvas-bezier51" stroke="none" fill="rgb(51, 91, 113)" d="M 17.62,61.75 C 18.22,60.56 18.72,59.31 19.07,58.03 19.24,57.38 19.37,56.73 19.41,56.07 19.43,55.75 19.41,55.42 19.43,55.07 19.44,54.73 19.48,54.39 19.53,54.05 19.72,52.71 20.02,51.4 20.27,50.09 20.52,48.78 20.79,47.45 20.8,46.16 20.79,45.85 20.76,45.53 20.67,45.26 20.63,45.13 20.57,45.02 20.5,44.94 L 20.17,44.59 C 19.94,44.36 19.7,44.15 19.46,44 19.2,43.84 18.98,43.8 18.89,43.88 18.75,43.95 18.61,44.22 18.52,44.5 18.43,44.79 18.38,45.09 18.32,45.43 18.2,46.1 18.05,46.76 17.9,47.41 17.58,48.72 17.25,50.02 16.86,51.31 16.45,52.59 16.12,53.91 15.44,55.1 L 15.38,55.05 C 15.64,54.46 15.77,53.79 15.93,53.14 16.08,52.49 16.23,51.84 16.37,51.18 16.65,49.87 16.94,48.57 17.18,47.25 17.32,46.6 17.46,45.95 17.57,45.29 17.62,44.98 17.69,44.61 17.81,44.26 17.94,43.92 18.07,43.53 18.52,43.24 18.75,43.11 19.05,43.09 19.27,43.15 19.49,43.2 19.67,43.3 19.83,43.41 20.15,43.62 20.4,43.87 20.64,44.13 L 20.98,44.51 C 21.13,44.69 21.22,44.89 21.27,45.08 21.38,45.45 21.39,45.81 21.39,46.16 21.34,47.56 21.03,48.87 20.74,50.19 20.45,51.5 20.12,52.8 19.89,54.11 19.84,54.44 19.79,54.76 19.76,55.09 19.73,55.41 19.74,55.75 19.7,56.1 19.64,56.78 19.48,57.44 19.29,58.09 18.89,59.38 18.34,60.61 17.68,61.79 L 17.62,61.75 Z M 17.62,61.75" />
            <path id="mel08Canvas-bezier52" stroke="none" fill="rgb(51, 91, 113)" d="M 14.04,62.95 C 14.32,61.5 14.53,60.04 14.65,58.58 14.79,57.11 14.7,55.64 14.74,54.16 14.78,52.68 14.86,51.2 14.96,49.73 15.01,49 15.08,48.24 15.15,47.53 15.18,46.94 14.68,46.35 14.13,46.03 13.86,45.87 13.5,45.79 13.36,45.87 13.36,45.87 13.33,45.9 13.36,45.87 13.34,45.89 13.33,45.9 13.35,45.89 13.35,45.88 13.33,45.92 13.32,45.94 13.29,46 13.26,46.07 13.23,46.15 13.17,46.31 13.12,46.48 13.08,46.65 12.91,47.34 12.79,48.07 12.67,48.79 12.45,50.24 12.25,51.7 12.06,53.15 11.95,53.89 11.88,54.59 11.74,55.36 11.6,56.09 11.43,56.82 11.24,57.53 10.86,58.96 10.44,60.38 9.97,61.78 L 9.89,61.76 10.74,57.42 C 10.86,56.69 11.01,55.97 11.11,55.25 11.21,54.56 11.25,53.79 11.33,53.06 11.49,51.6 11.69,50.13 11.95,48.67 12.09,47.94 12.24,47.21 12.44,46.48 12.5,46.29 12.55,46.11 12.63,45.92 12.67,45.83 12.71,45.73 12.77,45.63 12.8,45.57 12.82,45.53 12.89,45.45 12.94,45.4 12.96,45.39 12.98,45.38 13.05,45.33 13.05,45.33 13.1,45.31 13.66,45.1 14.07,45.33 14.42,45.52 14.78,45.73 15.08,46.01 15.32,46.35 15.55,46.68 15.72,47.12 15.68,47.57 15.59,48.32 15.51,49.03 15.44,49.77 15.3,51.23 15.18,52.7 15.11,54.17 15.02,55.63 15.06,57.12 14.87,58.6 14.7,60.07 14.45,61.52 14.11,62.96 L 14.04,62.95 Z M 14.04,62.95" />
            <path id="mel08Canvas-bezier53" stroke="none" fill="rgb(51, 91, 113)" d="M 9.89,66.26 C 9.56,64.37 9.23,62.47 8.86,60.59 L 8.57,59.17 C 8.49,58.69 8.45,58.2 8.43,57.72 8.38,56.75 8.38,55.79 8.31,54.84 8.27,54.37 8.22,53.89 8.05,53.5 7.96,53.3 7.85,53.18 7.69,53.18 7.45,53.15 7.21,53.11 6.99,53.11 6.53,53.07 6.3,53.3 6.21,53.75 6.11,54.18 6.12,54.66 6.14,55.13 6.19,56.07 6.36,57.01 6.48,57.97 6.61,58.93 6.73,59.88 6.83,60.84 6.94,61.8 7.03,62.77 7.09,63.73 7.14,64.7 7.2,65.66 7.09,66.68 6.92,67.64 6.83,68.58 6.72,69.54 L 6.4,72.4 C 6.17,74.31 5.98,76.22 5.78,78.13 5.69,79.09 5.6,80.04 5.53,81 5.45,81.96 5.38,82.91 5.39,83.87 L 5.32,83.88 C 5.11,81.95 5.2,80.02 5.27,78.09 5.36,76.17 5.51,74.24 5.66,72.32 5.86,70.41 6.03,68.48 6.37,66.58 6.49,65.69 6.46,64.72 6.43,63.77 6.39,62.81 6.33,61.86 6.25,60.9 6.17,59.94 6.07,58.99 5.96,58.04 5.85,57.09 5.7,56.13 5.66,55.15 5.65,54.66 5.65,54.16 5.77,53.65 5.84,53.4 5.94,53.12 6.18,52.91 6.43,52.7 6.76,52.67 7.01,52.68 7.27,52.7 7.51,52.74 7.74,52.76 7.88,52.78 8.07,52.86 8.18,52.97 8.29,53.08 8.36,53.21 8.41,53.33 8.61,53.84 8.64,54.33 8.68,54.81 8.73,55.79 8.7,56.75 8.72,57.71 8.74,58.18 8.76,58.66 8.83,59.13 L 9.08,60.55 C 9.4,62.45 9.69,64.35 9.97,66.25 L 9.89,66.26 Z M 9.89,66.26" />
            <path id="mel08Canvas-bezier54" stroke="none" fill="rgb(51, 91, 113)" d="M 4.91,86.14 C 4.04,88.16 3.7,90.41 4.07,92.58 4.19,94.81 3.97,97.01 3.8,99.21 3.39,103.61 2.84,107.99 2.15,112.36 1.97,113.46 1.79,114.54 1.55,115.64 1.43,116.2 1.28,116.71 1.19,117.24 1.1,117.77 1.03,118.31 0.97,118.85 0.75,121.02 0.71,123.22 0.8,125.4 0.87,127.59 1.09,129.77 1.5,131.93 1.91,134.07 2.5,136.2 3.48,138.17 L 3.42,138.21 C 2.26,136.32 1.51,134.19 0.99,132.03 0.48,129.87 0.21,127.65 0.06,125.44 -0.05,123.21 -0.02,120.98 0.25,118.77 0.32,118.21 0.4,117.66 0.51,117.11 0.61,116.55 0.79,116 0.91,115.49 1.16,114.43 1.37,113.34 1.57,112.26 2.33,107.93 2.95,103.56 3.43,99.18 3.65,96.99 3.92,94.78 3.85,92.6 3.52,90.4 3.92,88.11 4.84,86.11 L 4.91,86.14 Z M 4.91,86.14" />
            <path id="mel08Canvas-bezier55" stroke="none" fill="rgb(51, 91, 113)" d="M 4.91,139.25 C 5.48,139.93 6.19,140.53 7,140.88 7.81,141.25 8.75,141.3 9.56,140.94 11.15,140.17 12.54,138.98 13.86,137.77 14.52,137.15 15.15,136.52 15.77,135.87 L 16.7,134.88 C 17.02,134.54 17.34,134.24 17.64,133.9 18.83,132.58 19.79,131.05 20.67,129.49 22.42,126.35 23.81,123.01 25.22,119.69 26.65,116.37 27.93,112.99 29.31,109.64 L 29.38,109.66 C 28.4,113.16 27.21,116.58 25.91,119.97 24.57,123.35 23.03,126.65 21.18,129.79 20.25,131.35 19.25,132.89 17.99,134.23 17.68,134.57 17.33,134.88 17.02,135.19 L 16.08,136.16 C 15.44,136.81 14.78,137.44 14.11,138.04 12.74,139.23 11.32,140.39 9.64,141.15 8.77,141.5 7.77,141.42 6.94,141.02 6.11,140.62 5.41,140.01 4.85,139.29 L 4.91,139.25 Z M 4.91,139.25" />
            <path id="mel08Canvas-bezier56" stroke="none" fill="rgb(51, 91, 113)" d="M 16.46,94.55 C 18.23,95.48 19.93,96.52 21.59,97.65 23.23,98.79 24.81,100.02 26.27,101.41 27.72,102.8 29.11,104.33 30,106.2 30.41,107.14 30.73,108.15 30.79,109.19 30.86,110.22 30.66,111.27 30.2,112.17 L 30.13,112.15 C 30.67,110.21 30.26,108.22 29.33,106.53 28.43,104.82 27.22,103.25 25.85,101.83 24.48,100.42 22.96,99.14 21.37,97.95 19.79,96.75 18.14,95.63 16.43,94.62 L 16.46,94.55 Z M 16.46,94.55" />
            <path id="mel08Canvas-bezier57" stroke="none" fill="rgb(51, 91, 113)" d="M 31.95,111.23 C 32.77,109.61 33.23,107.82 33.7,106.06 33.81,105.63 33.9,105.17 34.09,104.72 34.27,104.28 34.51,103.87 34.77,103.48 35.3,102.7 35.95,102.02 36.66,101.41 38.08,100.21 39.73,99.23 41.57,98.78 42.49,98.58 43.44,98.47 44.39,98.61 45.33,98.75 46.27,99.18 46.84,99.92 L 46.79,99.97 C 46.08,99.4 45.21,99.15 44.34,99.12 43.47,99.1 42.6,99.24 41.76,99.5 40.08,100 38.44,100.78 37.03,101.87 35.64,102.97 34.43,104.38 34.05,106.16 33.49,107.91 32.93,109.67 32.01,111.27 L 31.95,111.23 Z M 31.95,111.23" />
            <path id="mel08Canvas-bezier58" stroke="none" fill="rgb(51, 91, 113)" d="M 32.29,112.92 C 32.1,113.76 31.94,114.62 31.8,115.47 31.65,116.32 31.53,117.18 31.46,118.04 31.39,118.89 31.41,119.75 31.44,120.56 31.48,121.35 31.57,122.25 32.51,122.32 L 32.52,122.39 C 32.31,122.48 32.07,122.5 31.81,122.43 31.57,122.36 31.34,122.18 31.2,121.98 30.89,121.56 30.78,121.09 30.7,120.64 30.56,119.72 30.74,118.83 30.88,117.96 31.17,116.23 31.65,114.54 32.22,112.9 L 32.29,112.92 Z M 32.29,112.92" />
            <path id="mel08Canvas-bezier59" stroke="none" fill="rgb(51, 91, 113)" d="M 31.81,62.96 C 31.83,63.12 31.91,63.28 32.04,63.33 32.18,63.37 32.34,63.33 32.48,63.27 32.78,63.13 33.05,62.91 33.3,62.69 33.83,62.25 34.27,61.74 34.76,61.22 35.25,60.71 35.73,60.17 36.36,59.79 36.68,59.61 37.01,59.44 37.37,59.34 37.72,59.24 38.13,59.16 38.5,59.35 L 38.47,59.42 C 37.82,59.54 37.31,60.01 36.78,60.41 36.26,60.83 35.69,61.2 35.17,61.65 34.65,62.09 34.12,62.59 33.53,62.99 33.23,63.18 32.92,63.37 32.56,63.48 32.38,63.52 32.17,63.56 31.98,63.46 31.79,63.35 31.73,63.14 31.74,62.96 L 31.81,62.96 31.81,62.96 Z M 31.81,62.96" />
            <path id="mel08Canvas-bezier60" stroke="none" fill="rgb(51, 91, 113)" d="M 39.41,61.14 C 41.3,61.93 43.04,63.06 44.57,64.44 45.32,65.14 46.02,65.92 46.62,66.77 47.23,67.6 47.7,68.58 48.12,69.47 49.04,71.27 50.26,72.89 51.49,74.48 52.72,76.09 54.08,77.6 55.46,79.11 L 55.41,79.17 C 53.74,77.96 52.28,76.5 50.92,74.95 49.59,73.38 48.46,71.62 47.59,69.73 46.85,67.82 45.76,66.14 44.31,64.71 42.89,63.28 41.21,62.08 39.38,61.21 L 39.41,61.14 Z M 39.41,61.14" />
            <path id="mel08Canvas-bezier61" stroke="none" fill="rgb(51, 91, 113)" d="M 41.56,59.95 C 43.05,59.05 44.54,58.15 46.02,57.23 46.76,56.77 47.46,56.25 48.22,55.83 48.96,55.4 49.78,55.06 50.45,54.55 L 50.52,54.58 C 50.33,55.03 49.98,55.34 49.66,55.64 49.33,55.94 48.97,56.21 48.61,56.46 47.89,56.98 47.09,57.34 46.31,57.74 44.76,58.55 43.18,59.3 41.59,60.02 L 41.56,59.95 Z M 41.56,59.95" />
            <path id="mel08Canvas-bezier62" stroke="none" fill="rgb(51, 91, 113)" d="M 46.84,12.87 C 47.56,9.59 49.33,6.54 51.84,4.28 54.36,2.01 57.65,0.7 60.98,0.24 64.32,-0.25 67.81,-0.01 70.99,1.2 74.14,2.43 77.07,4.37 79.12,7.05 L 79.06,7.09 C 78.5,6.49 77.86,5.94 77.21,5.43 76.56,4.92 75.88,4.44 75.18,4.01 73.78,3.15 72.3,2.42 70.74,1.9 67.66,0.83 64.33,0.43 61.06,0.83 57.8,1.2 54.6,2.4 52.08,4.56 49.57,6.69 47.72,9.65 46.91,12.89 L 46.84,12.87 Z M 46.84,12.87" />
            <path id="mel08Canvas-bezier63" stroke="none" fill="rgb(51, 91, 113)" d="M 79.63,7.62 C 80.64,8.79 81.34,10.2 81.89,11.65 82.43,13.11 82.79,14.63 83,16.17 83.22,17.71 83.34,19.27 83.22,20.83 83.09,22.38 82.83,23.91 82.37,25.39 L 82.3,25.38 C 82.36,23.83 82.46,22.31 82.48,20.79 82.5,19.27 82.55,17.75 82.41,16.24 82.28,14.72 82,13.22 81.55,11.77 81.1,10.32 80.5,8.88 79.57,7.67 L 79.63,7.62 Z M 79.63,7.62" />
            <path id="mel08Canvas-bezier64" stroke="none" fill="rgb(51, 91, 113)" d="M 79.06,27.68 C 79.35,26.82 80.12,26.11 81.06,26.01 81.52,25.94 81.98,25.99 82.42,26.11 82.91,26.25 83.28,26.62 83.51,27.04 83.95,27.89 84.01,28.84 84,29.74 83.98,30.66 83.85,31.56 83.64,32.44 83.44,33.33 83.17,34.2 82.76,35.04 82.34,35.87 81.7,36.61 80.97,37.18 80.23,37.74 79.39,38.2 78.45,38.36 77.99,38.43 77.49,38.43 77.04,38.27 76.58,38.1 76.21,37.76 76.01,37.35 L 76.07,37.31 C 76.64,38.02 77.56,38.1 78.34,37.85 79.14,37.61 79.88,37.17 80.51,36.61 81.15,36.06 81.69,35.43 82.11,34.69 82.53,33.95 82.83,33.13 83.07,32.29 83.3,31.45 83.47,30.59 83.52,29.72 83.57,28.86 83.54,27.97 83.18,27.21 83.01,26.84 82.71,26.53 82.34,26.39 81.94,26.26 81.51,26.19 81.08,26.22 80.23,26.27 79.46,26.89 79.13,27.7 L 79.06,27.68 Z M 79.06,27.68" />
            <path id="mel08Canvas-bezier65" stroke="none" fill="rgb(51, 91, 113)" d="M 77.16,39.44 C 76.32,43.26 75.51,47.09 74.73,50.91 74.35,52.83 74.03,54.76 73.61,56.66 73.18,58.56 72.76,60.46 72.39,62.38 L 72.32,62.38 C 72.27,60.4 72.59,58.45 72.89,56.52 73.21,54.59 73.7,52.69 74.16,50.79 75.07,46.98 76.05,43.19 77.09,39.42 L 77.16,39.44 Z M 77.16,39.44" />
            <path id="mel08Canvas-bezier66" stroke="none" fill="rgb(51, 91, 113)" d="M 75.32,50.9 C 75.55,52.03 75.79,53.14 76.04,54.25 76.16,54.81 76.36,55.34 76.43,55.9 76.53,56.44 76.52,57.03 76.7,57.53 L 76.65,57.59 C 76.34,57.44 76.19,57.15 76.04,56.89 75.9,56.62 75.8,56.34 75.71,56.07 75.53,55.51 75.52,54.92 75.45,54.35 75.33,53.21 75.26,52.06 75.24,50.91 L 75.32,50.9 Z M 75.32,50.9" />
            <path id="mel08Canvas-bezier67" stroke="none" fill="rgb(51, 91, 113)" d="M 47.99,42.99 C 48.58,44.33 49.21,45.64 49.88,46.94 50.55,48.23 51.25,49.52 52.09,50.68 52.3,50.97 52.53,51.25 52.78,51.49 53.03,51.75 53.28,51.85 53.64,51.93 54.32,52.08 55.04,52.13 55.75,52.13 57.18,52.13 58.6,51.88 59.97,51.46 62.71,50.62 65.17,49.05 67.37,47.23 69.6,45.41 71.52,43.22 73.34,40.94 L 73.4,40.99 C 71.92,43.51 70.05,45.82 67.85,47.79 65.64,49.75 62.99,51.24 60.13,52.03 58.71,52.43 57.23,52.65 55.75,52.61 55.01,52.6 54.26,52.52 53.53,52.34 53.34,52.29 53.18,52.25 52.97,52.15 52.78,52.04 52.64,51.91 52.5,51.77 52.23,51.5 52,51.2 51.79,50.9 50.96,49.67 50.31,48.35 49.68,47.04 49.06,45.72 48.47,44.38 47.92,43.02 L 47.99,42.99 Z M 47.99,42.99" />
            <path id="mel08Canvas-bezier68" stroke="none" fill="rgb(51, 91, 113)" d="M 46.91,13.78 C 46.8,15 46.67,16.23 46.53,17.44 46.45,18.05 46.44,18.67 46.29,19.27 46.14,19.86 45.96,20.45 45.66,21.02 L 45.59,21.01 C 45.48,20.37 45.51,19.75 45.56,19.14 45.61,18.53 45.81,17.94 45.95,17.34 46.22,16.14 46.52,14.95 46.84,13.77 L 46.91,13.78 Z M 46.91,13.78" />
            <path id="mel08Canvas-bezier69" stroke="none" fill="rgb(51, 91, 113)" d="M 45.62,23.61 C 46.4,23.44 47.21,23.44 48.02,23.6 48.42,23.67 48.85,23.73 49.19,23.97 49.54,24.2 49.85,24.51 50.03,24.91 L 49.98,24.97 C 49.56,24.88 49.21,24.75 48.86,24.63 48.52,24.52 48.21,24.3 47.86,24.17 47.16,23.91 46.4,23.73 45.63,23.69 L 45.62,23.61 Z M 45.62,23.61" />
            <path id="mel08Canvas-bezier70" stroke="none" fill="rgb(51, 91, 113)" d="M 51.9,27.09 C 52.07,28.09 52.16,29.09 52.18,30.1 52.18,30.61 52.23,31.13 52.1,31.63 51.98,32.13 51.79,32.64 51.42,33.04 L 51.35,33.02 C 51.33,32.49 51.35,32.01 51.37,31.52 51.39,31.04 51.53,30.56 51.59,30.07 51.71,29.1 51.78,28.1 51.83,27.1 L 51.9,27.09 Z M 51.9,27.09" />
            <path id="mel08Canvas-bezier71" stroke="none" fill="rgb(51, 91, 113)" d="M 53.25,37.48 C 53.64,37.27 54.06,37.09 54.5,36.96 54.94,36.85 55.41,36.77 55.92,36.86 56.04,36.87 56.2,36.93 56.28,36.95 56.37,36.97 56.44,36.98 56.52,36.98 56.68,36.98 56.81,36.95 56.95,36.9 57.24,36.8 57.57,36.56 57.8,36.18 L 57.87,36.18 C 58.04,36.68 57.77,37.25 57.29,37.56 57.04,37.72 56.71,37.76 56.43,37.7 56.29,37.67 56.15,37.62 56.04,37.56 55.91,37.5 55.87,37.47 55.77,37.43 55.42,37.3 54.99,37.28 54.56,37.32 54.14,37.35 53.7,37.43 53.28,37.55 L 53.25,37.48 Z M 53.25,37.48" />
            <path id="mel08Canvas-bezier72" stroke="none" fill="rgb(51, 91, 113)" d="M 50.6,36.83 C 50.87,37.23 51.24,37.55 51.61,37.71 51.81,37.8 52.01,37.77 52.18,37.85 52.37,37.93 52.57,38 52.84,38.15 L 52.86,38.22 C 52.66,38.47 52.37,38.58 52.08,38.58 51.77,38.59 51.51,38.39 51.3,38.21 50.86,37.85 50.62,37.36 50.53,36.86 L 50.6,36.83 Z M 50.6,36.83" />
            <path id="mel08Canvas-bezier73" stroke="none" fill="rgb(51, 91, 113)" d="M 50.24,42.05 C 52,41.64 53.79,41.36 55.6,41.18 56.5,41.09 57.41,40.97 58.32,41.02 59.22,41.08 60.13,41.19 61.02,41.47 L 61.01,41.54 C 60.1,41.67 59.21,41.72 58.31,41.77 57.42,41.82 56.53,41.75 55.63,41.77 53.84,41.81 52.04,41.92 50.25,42.12 L 50.24,42.05 Z M 50.24,42.05" />
            <path id="mel08Canvas-bezier74" stroke="none" fill="rgb(51, 91, 113)" d="M 51.01,42.92 C 51.52,43.53 52.31,43.84 53.07,43.94 53.84,44.06 54.62,43.99 55.39,43.82 56.16,43.66 56.88,43.35 57.63,43.12 58.39,42.89 59.14,42.62 59.95,42.43 L 59.98,42.5 C 59.36,43.05 58.65,43.47 57.89,43.81 57.14,44.15 56.31,44.3 55.48,44.41 54.66,44.51 53.81,44.51 52.99,44.31 52.19,44.09 51.4,43.67 50.95,42.96 L 51.01,42.92 Z M 51.01,42.92" />
            <path id="mel08Canvas-bezier75" stroke="none" fill="rgb(51, 91, 113)" d="M 50.6,44.78 C 51.03,45.45 51.67,45.97 52.37,46.26 53.08,46.57 53.86,46.61 54.6,46.46 55.35,46.32 56.03,45.96 56.74,45.64 57.45,45.32 58.14,44.94 58.89,44.61 L 58.94,44.66 C 58.43,45.32 57.8,45.86 57.08,46.3 56.37,46.74 55.53,46.96 54.69,47.05 53.84,47.14 52.96,47 52.21,46.59 51.48,46.18 50.89,45.55 50.53,44.81 L 50.6,44.78 Z M 50.6,44.78" />
            <path id="mel08Canvas-bezier76" stroke="none" fill="rgb(51, 91, 113)" d="M 47.4,42.1 C 46.71,40.87 46.07,39.61 45.52,38.3 45.25,37.65 45,36.98 44.81,36.28 44.61,35.6 44.54,34.82 44.6,34.1 44.7,32.67 44.88,31.27 45.14,29.89 L 45.5,27.83 C 45.56,27.49 45.6,27.14 45.63,26.8 45.66,26.45 45.66,26.11 45.59,25.77 L 45.66,25.74 C 46,26.4 46,27.16 46.01,27.87 46.01,28.59 45.94,29.3 45.86,30 45.7,31.41 45.36,32.78 45.19,34.16 44.96,35.5 45.42,36.85 45.86,38.17 46.32,39.49 46.87,40.79 47.47,42.07 L 47.4,42.1 Z M 47.4,42.1" />
            <path id="mel08Canvas-bezier77" stroke="none" fill="rgb(51, 91, 113)" d="M 57.27,24.92 C 58.6,23.63 60.45,22.92 62.33,22.87 63.27,22.84 64.23,22.91 65.12,23.25 66,23.57 66.82,24.04 67.51,24.67 L 67.48,24.73 C 66.59,24.46 65.75,24.17 64.9,23.95 64.05,23.75 63.21,23.5 62.33,23.46 61.45,23.42 60.56,23.52 59.71,23.78 58.86,24.03 58.03,24.41 57.32,24.97 L 57.27,24.92 Z M 57.27,24.92" />
            <path id="mel08Canvas-bezier78" stroke="none" fill="rgb(51, 91, 113)" d="M 46.64,27.31 C 46.94,26.96 47.3,26.67 47.72,26.45 48.14,26.25 48.63,26.14 49.13,26.17 49.62,26.2 50.14,26.32 50.52,26.64 50.89,26.95 51.18,27.34 51.32,27.81 L 51.27,27.86 C 50.83,27.66 50.47,27.44 50.11,27.26 49.75,27.09 49.44,26.85 49.05,26.76 48.28,26.58 47.4,26.84 46.7,27.36 L 46.64,27.31 Z M 46.64,27.31" />
            <path id="mel08Canvas-bezier79" stroke="none" fill="rgb(51, 91, 113)" d="M 47.02,27.98 C 47.22,28.28 47.55,28.48 47.88,28.59 48.22,28.71 48.57,28.75 48.93,28.75 49.28,28.75 49.63,28.65 49.99,28.66 50.36,28.67 50.73,28.68 51.14,28.8 L 51.16,28.87 C 50.84,29.15 50.46,29.31 50.07,29.4 49.68,29.49 49.26,29.41 48.87,29.34 48.47,29.26 48.07,29.13 47.72,28.92 47.38,28.7 47.08,28.39 46.95,28.01 L 47.02,27.98 Z M 47.02,27.98" />
            <path id="mel08Canvas-bezier80" stroke="none" fill="rgb(51, 91, 113)" d="M 51.15,27.82 C 51.15,28.24 50.91,28.68 50.52,28.93 50.11,29.17 49.57,29.2 49.12,28.98 48.67,28.77 48.26,28.3 48.28,27.75 48.29,27.24 48.65,26.71 49.11,26.63 L 49.16,26.69 C 48.97,27.11 48.96,27.4 49.02,27.7 49.09,27.97 49.16,28.27 49.41,28.47 49.66,28.66 50.03,28.72 50.35,28.6 50.68,28.49 50.98,28.2 51.08,27.81 L 51.15,27.82 Z M 51.15,27.82" />
            <path id="mel08Canvas-bezier81" stroke="none" fill="rgb(51, 91, 113)" d="M 58.26,28.34 C 58.64,27.78 59.12,27.29 59.69,26.9 60.27,26.52 60.94,26.26 61.65,26.19 62.36,26.12 63.11,26.19 63.74,26.53 64.37,26.85 64.91,27.31 65.3,27.9 L 65.25,27.95 C 64.61,27.69 64.04,27.41 63.45,27.2 62.87,27.01 62.3,26.79 61.68,26.78 61.07,26.78 60.44,26.93 59.88,27.22 59.3,27.5 58.76,27.89 58.32,28.38 L 58.26,28.34 Z M 58.26,28.34" />
            <path id="mel08Canvas-bezier82" stroke="none" fill="rgb(51, 91, 113)" d="M 58.78,28.78 C 59.27,28.63 59.78,28.53 60.32,28.54 60.58,28.54 60.86,28.6 61.1,28.64 61.32,28.67 61.57,28.67 61.8,28.66 62.28,28.64 62.74,28.49 63.21,28.42 63.68,28.36 64.13,28.25 64.66,28.15 L 64.7,28.21 C 64.39,28.67 63.9,28.96 63.39,29.14 62.87,29.33 62.32,29.29 61.79,29.25 61.52,29.23 61.26,29.18 60.99,29.11 60.73,29.03 60.52,28.94 60.28,28.91 59.81,28.81 59.3,28.8 58.8,28.86 L 58.78,28.78 Z M 58.78,28.78" />
            <path id="mel08Canvas-bezier83" stroke="none" fill="rgb(51, 91, 113)" d="M 64.14,27.42 C 64.19,27.86 64.02,28.36 63.65,28.68 63.26,29 62.75,29.13 62.22,29 61.72,28.87 61.21,28.49 61.09,27.93 60.97,27.4 61.19,26.8 61.63,26.57 L 61.69,26.62 C 61.6,27.07 61.67,27.42 61.8,27.71 61.94,27.98 62.09,28.29 62.41,28.44 62.69,28.58 63.12,28.57 63.43,28.38 63.77,28.21 64.02,27.84 64.07,27.42 L 64.14,27.42 Z M 64.14,27.42" />
            <path id="mel08Canvas-bezier84" stroke="none" fill="rgb(51, 91, 113)" d="M 68.26,10.91 C 68.78,11 69.3,11.14 69.77,11.41 70.25,11.68 70.66,12.1 70.9,12.6 71.41,13.61 71.35,14.78 71.32,15.81 71.31,16.86 71.29,17.93 71.5,18.83 71.6,19.28 71.84,19.67 72.18,20.03 72.52,20.38 72.95,20.67 73.39,20.98 L 73.36,21.05 C 72.84,20.93 72.32,20.74 71.85,20.42 71.38,20.12 70.98,19.61 70.79,19.05 70.43,17.9 70.65,16.82 70.73,15.78 70.84,14.72 70.96,13.69 70.57,12.76 70.39,12.29 70.07,11.89 69.66,11.6 69.24,11.31 68.75,11.12 68.24,10.98 L 68.26,10.91 Z M 68.26,10.91" />
            <path id="mel08Canvas-bezier85" stroke="none" fill="rgb(51, 91, 113)" d="M 49.39,10.26 C 50.87,10.12 52.36,9.91 53.82,9.62 55.29,9.33 56.71,8.99 58.02,8.26 58.82,7.93 59.66,7.97 60.43,8.11 61.21,8.26 61.93,8.54 62.62,8.85 64.01,9.47 65.25,10.29 66.69,10.69 L 66.68,10.76 C 65.91,10.78 65.16,10.56 64.44,10.33 63.72,10.09 63.03,9.8 62.33,9.54 61.65,9.26 60.96,9 60.27,8.83 59.59,8.65 58.87,8.59 58.25,8.8 56.9,9.47 55.35,9.77 53.88,9.99 52.39,10.19 50.89,10.29 49.39,10.33 L 49.39,10.26 Z M 49.39,10.26" />
            <path id="mel08Canvas-bezier86" stroke="none" fill="rgb(51, 91, 113)" d="M 74.77,22.14 C 74.71,22.77 74.82,23.48 74.92,24.13 75.02,24.8 75.16,25.45 75.37,26.08 75.57,26.7 75.9,27.28 76.24,27.71 76.41,27.93 76.62,28.08 76.88,28.16 77.15,28.23 77.48,28.21 77.82,28.15 L 77.85,28.21 C 77.6,28.45 77.26,28.66 76.84,28.67 76.43,28.7 76,28.5 75.71,28.23 75.11,27.66 74.96,26.91 74.8,26.24 74.65,25.54 74.59,24.85 74.56,24.17 74.56,23.47 74.52,22.8 74.71,22.09 L 74.77,22.14 Z M 74.77,22.14" />
            <path id="mel08Canvas-bezier87" stroke="none" fill="rgb(51, 91, 113)" d="M 79.36,39.65 C 79.41,39.65 79.52,39.66 79.55,39.75 79.58,39.82 79.56,39.89 79.55,39.95 79.52,40.07 79.46,40.18 79.41,40.29 79.3,40.5 79.19,40.71 79.07,40.91 78.84,41.33 78.61,41.74 78.45,42.17 78.29,42.59 78.19,43.1 78.46,43.39 78.72,43.69 79.21,43.75 79.65,43.76 79.88,43.76 80.13,43.75 80.39,43.81 80.52,43.85 80.66,43.89 80.79,43.98 80.92,44.07 81.03,44.25 81.06,44.41 81.1,44.74 80.99,44.99 80.89,45.22 80.78,45.46 80.65,45.67 80.52,45.87 80,46.68 79.38,47.42 79,48.22 78.91,48.41 78.84,48.62 78.83,48.78 78.83,48.95 78.87,49.03 78.99,49.12 79.25,49.29 79.72,49.33 80.16,49.33 80.39,49.33 80.64,49.32 80.9,49.35 81.16,49.38 81.42,49.4 81.72,49.55 81.87,49.63 82.04,49.77 82.14,49.99 82.23,50.22 82.2,50.44 82.15,50.6 82.04,50.91 81.88,51.12 81.72,51.33 81.05,52.08 80.31,52.66 79.65,53.31 79.48,53.47 79.32,53.63 79.2,53.8 79.08,53.98 79.02,54.14 79.1,54.22 79.2,54.34 79.45,54.41 79.66,54.45 79.89,54.49 80.12,54.51 80.36,54.53 L 80.36,54.6 C 80.13,54.64 79.89,54.66 79.64,54.66 79.4,54.65 79.14,54.66 78.87,54.47 78.74,54.37 78.67,54.15 78.7,53.99 78.72,53.83 78.78,53.7 78.84,53.58 78.96,53.35 79.11,53.15 79.27,52.96 79.88,52.21 80.61,51.58 81.14,50.86 81.27,50.7 81.39,50.51 81.43,50.38 81.45,50.31 81.44,50.28 81.44,50.28 81.44,50.28 81.42,50.26 81.36,50.23 81.24,50.17 81.03,50.12 80.82,50.09 80.61,50.07 80.39,50.06 80.15,50.06 79.65,50.02 79.13,50.01 78.59,49.65 78.32,49.46 78.16,49.04 78.21,48.74 78.24,48.43 78.35,48.18 78.47,47.95 78.95,47.06 79.59,46.36 80.12,45.6 80.37,45.24 80.66,44.79 80.64,44.48 80.63,44.35 80.51,44.25 80.3,44.2 80.1,44.14 79.88,44.14 79.64,44.12 79.16,44.08 78.61,44.02 78.23,43.58 78.05,43.35 78.01,43.05 78.04,42.8 78.07,42.55 78.15,42.31 78.25,42.09 78.44,41.64 78.69,41.24 78.95,40.83 79.07,40.63 79.2,40.43 79.32,40.23 79.37,40.13 79.43,40.03 79.46,39.92 79.5,39.81 79.49,39.71 79.36,39.72 L 79.36,39.65 Z M 79.36,39.65" />
            <path id="mel08Canvas-bezier88" stroke="none" fill="rgb(51, 91, 113)" d="M 82.58,38.85 C 82.03,39.7 81.51,40.61 81.28,41.59 81.18,42.06 81.2,42.62 81.59,42.84 81.97,43.07 82.49,43.03 82.97,42.96 83.22,42.92 83.46,42.85 83.74,42.82 84,42.8 84.29,42.77 84.61,42.92 84.78,43 84.91,43.2 84.93,43.38 84.96,43.56 84.94,43.71 84.9,43.85 84.83,44.13 84.72,44.38 84.61,44.62 84.38,45.09 84.12,45.53 83.88,45.98 83.65,46.42 83.42,46.89 83.36,47.31 83.35,47.52 83.39,47.64 83.49,47.71 83.61,47.79 83.84,47.82 84.06,47.83 84.29,47.83 84.53,47.81 84.77,47.77 85.02,47.73 85.31,47.7 85.6,47.72 85.89,47.74 86.24,47.8 86.54,48.07 86.85,48.35 86.91,48.77 86.9,49.07 86.85,49.69 86.63,50.18 86.42,50.67 85.97,51.62 85.44,52.5 85.01,53.4 84.81,53.84 84.6,54.35 84.72,54.72 84.78,54.89 85,54.99 85.23,55.03 85.47,55.07 85.73,55.06 85.98,55.04 L 85.99,55.11 C 85.75,55.18 85.49,55.24 85.22,55.24 84.96,55.24 84.61,55.18 84.43,54.87 84.26,54.58 84.29,54.27 84.33,54 84.37,53.72 84.45,53.46 84.54,53.21 84.88,52.21 85.39,51.31 85.75,50.37 85.94,49.92 86.11,49.44 86.13,49.03 86.14,48.83 86.11,48.69 86.02,48.62 85.94,48.53 85.76,48.47 85.54,48.45 85.33,48.43 85.11,48.44 84.85,48.46 84.59,48.49 84.31,48.51 84.03,48.49 83.75,48.46 83.44,48.43 83.13,48.21 82.98,48.11 82.85,47.93 82.8,47.74 82.75,47.56 82.76,47.39 82.78,47.23 82.89,46.63 83.16,46.18 83.42,45.72 83.67,45.27 83.95,44.84 84.18,44.4 84.3,44.18 84.41,43.95 84.47,43.74 84.53,43.51 84.52,43.35 84.4,43.29 84.27,43.21 84.01,43.2 83.78,43.22 83.54,43.23 83.29,43.29 83.02,43.32 82.51,43.37 81.93,43.41 81.42,43.09 81.17,42.92 81.02,42.62 81,42.34 80.96,42.06 81.01,41.79 81.07,41.54 81.36,40.52 81.92,39.64 82.52,38.8 L 82.58,38.85 Z M 82.58,38.85" />
            <path id="mel08Canvas-bezier89" stroke="none" fill="rgb(51, 91, 113)" d="M 83.76,36.97 C 84.43,36.87 85.11,36.82 85.79,36.87 86.46,36.93 87.2,37.02 87.71,37.59 87.96,37.87 88.04,38.28 87.99,38.63 87.95,38.99 87.82,39.33 87.67,39.64 87.37,40.27 86.89,40.81 86.87,41.4 86.86,41.67 87.05,41.82 87.36,41.9 87.65,41.98 87.98,42 88.31,42.01 88.98,42.04 89.65,41.98 90.38,42.15 90.56,42.2 90.75,42.27 90.93,42.42 91.1,42.57 91.22,42.82 91.22,43.04 91.24,43.48 91.06,43.82 90.9,44.14 90.74,44.46 90.53,44.74 90.36,45.02 90.19,45.28 90.05,45.57 89.98,45.85 89.91,46.13 89.94,46.39 90.08,46.58 90.22,46.79 90.47,46.95 90.74,47.07 91.31,47.33 91.97,47.46 92.62,47.62 93.28,47.79 93.96,47.91 94.64,48.32 94.97,48.52 95.33,48.94 95.34,49.44 95.35,49.92 95.16,50.28 94.98,50.6 94.76,50.94 94.59,51.15 94.46,51.43 94.32,51.7 94.28,51.94 94.38,52.04 94.47,52.17 94.79,52.27 95.1,52.32 95.41,52.37 95.74,52.4 96.08,52.43 96.41,52.46 96.76,52.5 97.11,52.57 97.44,52.66 97.87,52.76 98.08,53.18 98.24,53.62 98.03,53.97 97.87,54.27 97.7,54.57 97.48,54.84 97.26,55.1 L 97.2,55.05 C 97.38,54.77 97.55,54.47 97.68,54.17 97.81,53.88 97.9,53.53 97.77,53.33 97.66,53.12 97.34,53.03 97.03,52.99 96.72,52.95 96.38,52.95 96.05,52.95 95.71,52.94 95.37,52.94 95.02,52.9 94.67,52.84 94.27,52.82 93.89,52.45 93.71,52.26 93.65,51.96 93.67,51.74 93.69,51.51 93.76,51.32 93.83,51.14 93.98,50.8 94.21,50.47 94.35,50.22 94.5,49.97 94.61,49.69 94.59,49.48 94.58,49.28 94.46,49.12 94.22,48.97 93.75,48.67 93.09,48.5 92.44,48.33 91.8,48.15 91.12,47.99 90.46,47.67 90.14,47.51 89.79,47.29 89.56,46.93 89.31,46.55 89.3,46.07 89.41,45.7 89.52,45.32 89.69,45.01 89.89,44.7 90.08,44.42 90.28,44.16 90.43,43.88 90.59,43.61 90.72,43.3 90.72,43.06 90.72,42.83 90.55,42.7 90.25,42.61 89.66,42.45 88.97,42.47 88.29,42.43 87.95,42.41 87.6,42.39 87.24,42.28 87.07,42.23 86.88,42.14 86.72,41.99 86.56,41.83 86.49,41.59 86.5,41.39 86.58,40.58 87.13,40.08 87.41,39.5 87.71,38.94 87.93,38.23 87.54,37.73 87.14,37.24 86.42,37.09 85.78,37.01 85.12,36.94 84.44,36.96 83.77,37.04 L 83.76,36.97 Z M 83.76,36.97" />
        </g>
    </g>
</svg>
