<?xml version="1.0" encoding="UTF-8"?>
<!DOCTYPE svg PUBLIC "-//W3C//DTD SVG 1.1//EN" "http://www.w3.org/Graphics/SVG/1.1/DTD/svg11.dtd">
<svg version="1.1" xmlns="http://www.w3.org/2000/svg" xmlns:xlink="http://www.w3.org/1999/xlink" width="99" height="378"  xml:space="preserve" id="mel09Canvas">
    <!-- Generated by PaintCode - http://www.paintcodeapp.com -->
    <g id="mel09Canvas-lines">
        <g id="mel09Canvas-group2">
            <path id="mel09Canvas-bezier" stroke="none" fill="rgb(51, 91, 113)" d="M 15.77,169.13 C 15.04,174.21 14.51,179.31 14.08,184.42 13.64,189.53 13.33,194.65 13.16,199.77 12.98,204.89 12.99,210.01 13.03,215.13 13.07,220.26 13.28,225.38 13.57,230.5 L 13.5,230.51 C 12.81,225.42 12.5,220.28 12.34,215.15 12.2,210.01 12.35,204.87 12.6,199.74 12.84,194.62 13.23,189.49 13.73,184.39 14.26,179.28 14.88,174.19 15.7,169.12 L 15.77,169.13 Z M 15.77,169.13" />
            <path id="mel09Canvas-bezier2" stroke="none" fill="rgb(51, 91, 113)" d="M 14.23,232.03 C 14.99,234.55 15.62,237.11 15.9,239.74 16,241.05 16.09,242.41 15.63,243.7 15.5,244.02 15.33,244.33 15.07,244.58 L 14.89,244.75 C 14.87,244.76 14.86,244.79 14.87,244.76 14.87,244.7 14.83,244.68 14.86,244.7 14.94,244.73 15.13,244.74 15.28,244.74 15.92,244.74 16.57,244.66 17.22,244.58 22.43,243.89 27.62,242.95 32.83,242.17 38.04,241.38 43.26,240.6 48.52,240.17 51.15,239.97 53.79,239.81 56.43,239.8 59.07,239.8 61.73,239.91 64.32,240.45 L 64.31,240.52 C 63.01,240.33 61.69,240.26 60.38,240.24 59.07,240.21 57.76,240.24 56.44,240.29 53.82,240.4 51.2,240.6 48.59,240.86 43.36,241.38 38.13,242 32.91,242.72 27.7,243.43 22.51,244.3 17.26,244.93 16.61,244.99 15.95,245.06 15.27,245.06 15.1,245.05 14.94,245.06 14.72,244.97 14.68,244.95 14.56,244.88 14.57,244.73 14.59,244.61 14.64,244.58 14.68,244.53 L 14.87,244.37 C 15.08,244.16 15.25,243.89 15.37,243.6 15.82,242.41 15.78,241.05 15.69,239.76 15.46,237.15 14.88,234.57 14.16,232.05 L 14.23,232.03 Z M 14.23,232.03" />
            <path id="mel09Canvas-bezier3" stroke="none" fill="rgb(51, 91, 113)" d="M 66.6,240.45 C 68.05,240.29 69.5,240.07 70.94,239.81 72.38,239.55 73.8,239.24 75.2,238.86 76.6,238.46 77.96,237.96 79.28,237.41 80.59,236.85 81.88,236.17 82.72,234.97 L 82.78,235 C 82.55,235.71 82.04,236.32 81.47,236.81 80.89,237.31 80.24,237.69 79.57,238.04 78.23,238.71 76.78,239.07 75.34,239.4 72.46,240.04 69.53,240.39 66.6,240.52 L 66.6,240.45 Z M 66.6,240.45" />
            <path id="mel09Canvas-bezier4" stroke="none" fill="rgb(51, 91, 113)" d="M 81.91,233.86 C 82.37,227.67 83.08,221.5 83.99,215.36 84.45,212.29 84.97,209.23 85.58,206.19 86.16,203.13 86.96,200.13 87.47,197.09 88,194.04 88.39,190.97 88.68,187.89 88.98,184.81 89.17,181.72 89.26,178.63 89.39,175.54 89.4,172.44 89.3,169.35 89.25,167.8 89.16,166.26 89.01,164.72 88.86,163.18 88.67,161.64 88.27,160.15 L 88.34,160.13 C 89.27,163.1 89.55,166.23 89.78,169.33 89.99,172.43 90.02,175.54 89.96,178.65 89.87,181.76 89.67,184.86 89.36,187.96 89.03,191.05 88.6,194.13 88.02,197.19 87.47,200.26 86.64,203.25 86.02,206.28 85.39,209.31 84.83,212.36 84.33,215.42 83.33,221.54 82.54,227.69 81.98,233.87 L 81.91,233.86 Z M 81.91,233.86" />
            <path id="mel09Canvas-bezier5" stroke="none" fill="rgb(51, 91, 113)" d="M 44.82,241.9 C 44.5,245.23 44.04,248.55 43.35,251.83 43.01,253.48 42.65,255.13 42.04,256.71 41.72,257.49 41.39,258.28 40.95,259.01 40.52,259.74 40,260.46 39.28,260.93 L 39.23,260.87 C 39.81,260.27 40.19,259.54 40.52,258.79 40.85,258.04 41.14,257.27 41.38,256.48 41.89,254.91 42.39,253.32 42.8,251.71 43.21,250.1 43.57,248.46 43.88,246.82 44.21,245.19 44.5,243.54 44.75,241.89 L 44.82,241.9 Z M 44.82,241.9" />
            <path id="mel09Canvas-bezier6" stroke="none" fill="rgb(51, 91, 113)" d="M 38.06,260.05 C 38.42,262.96 38.37,265.92 37.93,268.84 37.71,270.29 37.42,271.76 36.86,273.14 36.29,274.51 35.58,275.84 34.59,276.94 L 34.53,276.9 C 35.19,275.59 35.77,274.27 36.21,272.9 36.66,271.54 37.09,270.16 37.38,268.74 37.67,267.32 37.85,265.88 37.95,264.43 38.05,262.98 38.08,261.52 37.99,260.06 L 38.06,260.05 Z M 38.06,260.05" />
            <path id="mel09Canvas-bezier7" stroke="none" fill="rgb(51, 91, 113)" d="M 35.28,279.66 C 35.08,285.61 34.88,291.55 34.75,297.5 34.78,298.99 34.53,300.5 34.23,301.95 33.92,303.41 33.56,304.86 33.18,306.3 32.41,309.18 31.57,312.03 30.75,314.89 29.94,317.75 29.12,320.61 28.44,323.49 28.1,324.93 27.78,326.38 27.62,327.83 27.53,328.55 27.54,329.26 27.57,330.01 27.6,330.74 27.65,331.48 27.71,332.22 27.92,335.17 28.28,338.12 28.6,341.08 28.76,342.56 28.91,344.04 29.04,345.52 29.1,346.27 29.15,347.01 29.18,347.76 29.2,348.5 29.23,349.25 29.11,349.99 L 29.04,349.98 C 29.12,349.25 29.05,348.51 28.98,347.77 28.91,347.03 28.82,346.29 28.72,345.56 28.54,344.08 28.33,342.61 28.12,341.14 27.7,338.19 27.3,335.25 27.01,332.27 26.95,331.53 26.9,330.78 26.88,330.03 26.85,329.29 26.83,328.51 26.93,327.75 27.1,326.25 27.43,324.78 27.77,323.33 28.5,320.43 29.36,317.58 30.22,314.73 31.07,311.88 31.95,309.04 32.74,306.18 33.14,304.75 33.52,303.31 33.84,301.87 34.15,300.41 34.41,298.98 34.4,297.49 34.62,291.54 34.92,285.6 35.21,279.66 L 35.28,279.66 Z M 35.28,279.66" />
            <path id="mel09Canvas-bezier8" stroke="none" fill="rgb(51, 91, 113)" d="M 18,246.92 C 17.96,249.96 17.93,252.99 17.95,256.02 17.96,257.54 18.03,259.05 18.01,260.56 17.99,262.07 17.97,263.58 18,265.1 L 17.93,265.11 C 17.5,263.63 17.42,262.09 17.31,260.57 17.24,259.05 17.33,257.53 17.39,256.01 17.5,252.98 17.68,249.95 17.93,246.92 L 18,246.92 Z M 18,246.92" />
            <path id="mel09Canvas-bezier9" stroke="none" fill="rgb(51, 91, 113)" d="M 17.84,267.7 C 17.8,271.14 17.48,274.6 16.6,277.95 16.17,279.63 15.45,281.21 14.87,282.83 14.28,284.44 13.75,286.08 13.32,287.74 11.56,294.39 11.51,301.39 12.49,308.16 12.97,311.56 13.78,314.91 14.47,318.29 15.15,321.66 15.84,325.04 16.48,328.43 17.08,331.82 17.66,335.23 18.01,338.67 18.33,342.09 18.54,345.62 17.68,348.99 L 17.61,348.97 C 17.97,347.29 18.02,345.56 17.97,343.85 17.92,342.14 17.75,340.43 17.52,338.72 17.07,335.32 16.46,331.93 15.79,328.56 15.16,325.17 14.48,321.8 13.79,318.42 13.15,315.04 12.38,311.68 11.94,308.24 11.02,301.4 11.14,294.34 12.98,287.65 13.44,285.98 13.99,284.34 14.61,282.73 15.22,281.11 15.95,279.55 16.4,277.9 17.32,274.58 17.69,271.13 17.77,267.7 L 17.84,267.7 17.84,267.7 Z M 17.84,267.7" />
            <path id="mel09Canvas-bezier10" stroke="none" fill="rgb(51, 91, 113)" d="M 53.06,240.49 C 53.06,243.32 53.18,246.15 53.37,248.98 53.54,251.8 53.8,254.62 54.18,257.42 54.56,260.22 55.08,263 55.7,265.74 56.32,268.49 57.11,271.2 58.36,273.75 L 58.3,273.78 C 56.69,271.41 55.77,268.65 55.03,265.91 54.31,263.14 53.93,260.31 53.62,257.49 53.02,251.84 52.83,246.15 52.99,240.48 L 53.06,240.49 Z M 53.06,240.49" />
            <path id="mel09Canvas-bezier11" stroke="none" fill="rgb(51, 91, 113)" d="M 58.8,276.92 C 59.08,279.76 59.27,282.62 59.32,285.48 59.34,286.91 59.32,288.34 59.2,289.77 59.14,290.48 59.05,291.21 58.9,291.91 58.78,292.59 58.78,293.3 58.8,294.01 58.9,296.85 59.3,299.68 59.69,302.51 L 60.93,310.99 C 61.36,313.81 61.78,316.64 62.11,319.49 62.26,320.92 62.39,322.35 62.43,323.79 62.46,324.51 62.43,325.25 62.4,325.95 L 62.33,328.09 C 62.2,330.95 62.11,333.81 61.89,336.66 61.78,338.09 61.64,339.52 61.44,340.94 61.21,342.35 60.96,343.78 60.39,345.1 L 60.33,345.08 C 60.81,343.74 60.97,342.31 61.12,340.9 61.26,339.48 61.35,338.06 61.41,336.63 61.52,333.78 61.58,330.93 61.63,328.07 L 61.71,325.93 C 61.74,325.21 61.76,324.52 61.74,323.81 61.69,322.4 61.57,320.98 61.42,319.56 61.14,316.73 60.76,313.9 60.38,311.07 L 59.24,302.57 C 58.89,299.73 58.52,296.89 58.45,294.02 58.45,293.3 58.45,292.57 58.59,291.85 58.75,291.15 58.85,290.46 58.92,289.75 59.06,288.33 59.1,286.9 59.11,285.48 59.1,282.62 58.96,279.77 58.73,276.92 L 58.8,276.92 Z M 58.8,276.92" />
            <path id="mel09Canvas-bezier12" stroke="none" fill="rgb(51, 91, 113)" d="M 79.58,238.48 C 78.91,241.8 78.17,245.11 77.37,248.41 76.97,250.06 76.59,251.72 76.07,253.34 75.51,254.94 74.98,256.58 74.09,258.06 L 74.03,258.03 C 74.54,256.41 74.97,254.78 75.4,253.14 75.83,251.51 76.36,249.9 76.83,248.27 77.75,245.01 78.64,241.74 79.52,238.46 L 79.58,238.48 Z M 79.58,238.48" />
            <path id="mel09Canvas-bezier13" stroke="none" fill="rgb(51, 91, 113)" d="M 76.84,256.74 C 76.84,259.95 76.8,263.15 76.72,266.35 76.68,267.95 76.68,269.55 76.54,271.15 76.37,272.74 76.22,274.35 75.83,275.92 L 75.76,275.91 C 75.75,274.3 75.8,272.71 75.84,271.11 75.89,269.51 76.05,267.92 76.16,266.32 L 76.77,256.74 76.84,256.74 Z M 76.84,256.74" />
            <path id="mel09Canvas-bezier14" stroke="none" fill="rgb(51, 91, 113)" d="M 76.84,275.9 C 78.07,281.84 79.03,287.84 79.53,293.89 79.65,295.41 79.73,296.92 79.75,298.45 79.75,299.98 79.59,301.5 79.4,303 79,306.02 78.44,309 77.87,311.98 L 76.11,320.9 C 75.5,323.87 74.91,326.84 74.38,329.82 73.82,332.79 73.33,335.78 72.95,338.78 72.76,340.28 72.62,341.78 72.53,343.29 72.43,344.8 72.4,346.31 72.51,347.82 L 72.44,347.83 C 72.07,344.81 72.2,341.75 72.47,338.73 72.74,335.7 73.2,332.69 73.7,329.7 74.23,326.71 74.82,323.74 75.43,320.77 L 77.32,311.87 C 78.49,305.94 79.87,299.98 79.18,293.92 78.78,287.88 77.91,281.87 76.77,275.92 L 76.84,275.9 Z M 76.84,275.9" />
            <path id="mel09Canvas-bezier15" stroke="none" fill="rgb(51, 91, 113)" d="M 27.55,355.92 C 27.41,355.33 27.31,354.73 27.12,354.17 26.93,353.61 26.56,353.15 26.04,352.9 25.01,352.38 23.78,352.25 22.61,352.11 21.44,352 20.26,352.18 19.48,352.9 19.08,353.26 18.79,353.75 18.54,354.28 18.29,354.81 18.14,355.42 17.76,355.93 L 17.7,355.9 C 17.8,355.62 17.85,355.32 17.89,355.02 17.95,354.72 18.01,354.42 18.09,354.12 18.24,353.52 18.52,352.9 18.99,352.41 19.46,351.92 20.12,351.61 20.76,351.52 21.41,351.42 22.07,351.47 22.67,351.56 23.28,351.66 23.87,351.77 24.47,351.92 25.07,352.08 25.67,352.26 26.22,352.6 26.77,352.93 27.17,353.51 27.31,354.11 27.47,354.71 27.53,355.31 27.62,355.91 L 27.55,355.92 Z M 27.55,355.92" />
            <path id="mel09Canvas-bezier16" stroke="none" fill="rgb(51, 91, 113)" d="M 17.74,357.76 L 27.6,359.01 C 27.67,359.02 27.73,359.08 27.72,359.16 27.71,359.21 27.67,359.26 27.61,359.27 L 17.78,361.6 17.73,361.17 26.96,361.1 C 27.12,361.1 27.25,361.23 27.25,361.39 27.25,361.52 27.16,361.63 27.04,361.67 L 27.03,361.67 17.82,364.21 17.78,363.5 C 19.29,363.72 20.8,363.91 22.31,364.15 L 26.84,364.83 26.85,364.83 C 26.99,364.85 27.09,364.99 27.07,365.13 27.05,365.25 26.96,365.34 26.85,365.36 L 22.76,366 18.66,366.59 18.65,366.52 22.7,365.65 26.75,364.83 26.76,365.36 22.22,364.81 C 20.7,364.63 19.19,364.41 17.68,364.22 17.48,364.19 17.34,364.01 17.37,363.81 17.39,363.66 17.5,363.55 17.64,363.51 L 26.88,361.11 26.96,361.68 17.73,361.6 17.73,361.6 C 17.61,361.6 17.51,361.5 17.51,361.39 17.51,361.28 17.58,361.2 17.68,361.17 L 27.55,359.01 27.56,359.27 17.73,357.83 17.74,357.76 Z M 17.74,357.76" />
            <path id="mel09Canvas-bezier17" stroke="none" fill="rgb(51, 91, 113)" d="M 27.57,369.09 C 26.75,368.92 25.92,368.8 25.09,368.71 24.27,368.61 23.43,368.55 22.61,368.53 21.78,368.52 20.96,368.61 20.15,368.66 19.34,368.71 18.55,368.82 17.75,369.09 L 17.71,369.03 C 18.34,368.41 19.22,368.11 20.07,367.96 20.93,367.81 21.8,367.9 22.64,367.98 24.34,368.15 25.99,368.51 27.59,369.02 L 27.57,369.09 Z M 27.57,369.09" />
            <path id="mel09Canvas-bezier18" stroke="none" fill="rgb(51, 91, 113)" d="M 30.44,370.46 C 30.72,371.33 30.89,372.24 30.93,373.17 30.96,374.09 30.86,375.06 30.39,375.91 29.93,376.77 29.01,377.33 28.07,377.51 27.12,377.66 26.24,377.74 25.32,377.85 23.5,378.07 21.66,378.3 19.8,378.23 18.87,378.17 17.93,378.09 17.02,377.8 16.57,377.66 16.12,377.46 15.74,377.16 15.36,376.86 15.06,376.42 15.02,375.95 L 15.08,375.94 C 15.23,376.36 15.54,376.7 15.92,376.9 16.29,377.12 16.71,377.25 17.15,377.33 18.01,377.5 18.91,377.55 19.82,377.53 21.62,377.52 23.44,377.44 25.27,377.3 26.17,377.22 27.12,377.17 27.98,377.07 28.84,376.93 29.64,376.48 30.09,375.73 30.56,374.99 30.71,374.07 30.72,373.17 30.73,372.27 30.6,371.36 30.37,370.48 L 30.44,370.46 Z M 30.44,370.46" />
            <path id="mel09Canvas-bezier19" stroke="none" fill="rgb(51, 91, 113)" d="M 15.02,372.34 C 15.24,370.8 15.37,369.21 15.15,367.69 15.09,367.31 15,366.95 14.85,366.61 14.7,366.25 14.56,365.86 14.44,365.48 14.21,364.72 14.04,363.94 13.93,363.15 13.7,361.58 13.64,359.97 13.88,358.39 14.12,356.82 14.52,355.27 15.19,353.83 L 15.26,353.85 C 14.97,355.4 14.68,356.93 14.57,358.47 14.43,360 14.34,361.55 14.49,363.08 14.56,363.85 14.69,364.61 14.88,365.36 14.98,365.73 15.09,366.1 15.23,366.46 15.38,366.84 15.46,367.25 15.5,367.65 15.63,369.25 15.4,370.81 15.08,372.35 L 15.02,372.34 Z M 15.02,372.34" />
            <path id="mel09Canvas-bezier20" stroke="none" fill="rgb(51, 91, 113)" d="M 30.79,367.64 C 30.92,366.73 31.01,365.82 31.06,364.9 31.13,363.99 31.16,363.07 31.15,362.16 31.13,361.25 31.03,360.34 30.99,359.44 30.95,358.53 30.88,357.64 30.79,356.71 L 30.86,356.69 C 31.32,357.52 31.55,358.45 31.69,359.37 31.82,360.31 31.76,361.25 31.7,362.17 31.59,364.03 31.31,365.87 30.86,367.66 L 30.79,367.64 Z M 30.79,367.64" />
            <path id="mel09Canvas-bezier21" stroke="none" fill="rgb(51, 91, 113)" d="M 61.21,355.89 C 61.17,355.6 61.28,355.28 61.46,355.05 61.65,354.82 61.9,354.64 62.15,354.49 62.66,354.2 63.22,354.01 63.78,353.86 64.91,353.57 66.07,353.43 67.23,353.36 67.81,353.33 68.39,353.31 68.97,353.32 69.56,353.34 70.14,353.36 70.76,353.56 71.06,353.68 71.37,353.84 71.61,354.09 71.84,354.33 72.01,354.64 72.08,354.96 72.21,355.6 72.07,356.21 71.79,356.73 L 71.73,356.71 C 71.81,356.15 71.8,355.57 71.61,355.1 71.42,354.64 71.03,354.35 70.55,354.23 70.07,354.09 69.49,354.06 68.94,354.01 68.37,353.96 67.81,353.93 67.24,353.92 66.11,353.92 64.97,353.99 63.86,354.2 63.31,354.3 62.75,354.44 62.25,354.67 61.76,354.9 61.25,355.3 61.27,355.89 L 61.21,355.89 Z M 61.21,355.89" />
            <path id="mel09Canvas-bezier22" stroke="none" fill="rgb(51, 91, 113)" d="M 61.27,357.98 C 61.98,358.1 62.81,358.14 63.58,358.2 L 65.94,358.37 70.66,358.66 C 70.73,358.67 70.78,358.73 70.78,358.8 70.77,358.85 70.73,358.9 70.68,358.91 L 62.1,361.06 62.07,360.65 71.96,361.54 C 72.12,361.55 72.23,361.68 72.22,361.84 72.2,361.98 72.09,362.09 71.95,362.09 L 71.94,362.09 C 70.29,362.14 68.64,362.2 67,362.29 65.36,362.39 63.69,362.47 62.11,362.73 61.91,362.76 61.71,362.8 61.56,362.85 61.52,362.87 61.49,362.88 61.47,362.89 61.46,362.89 61.46,362.89 61.46,362.89 L 61.46,362.89 61.46,362.89 61.46,362.89 C 61.45,362.9 61.53,362.83 61.5,362.86 L 61.47,362.89 C 61.5,362.86 61.53,362.8 61.54,362.76 61.57,362.57 61.48,362.55 61.51,362.56 61.51,362.56 61.54,362.59 61.57,362.61 61.85,362.78 62.25,362.93 62.62,363.06 63.39,363.33 64.18,363.56 64.97,363.79 66.55,364.24 68.15,364.65 69.75,365.03 L 69.76,365.03 C 69.9,365.07 69.99,365.22 69.96,365.36 69.93,365.49 69.81,365.57 69.69,365.57 L 65.46,365.47 61.23,365.33 61.23,365.26 65.46,365.12 69.69,365.03 69.63,365.56 C 68.01,365.22 66.4,364.85 64.79,364.44 63.98,364.24 63.18,364 62.39,363.73 61.98,363.59 61.6,363.47 61.17,363.21 61.11,363.17 61.06,363.13 60.99,363.06 60.94,363 60.79,362.88 60.84,362.59 60.85,362.52 60.9,362.44 60.94,362.39 L 60.97,362.36 61.01,362.32 61.02,362.32 61.04,362.31 61.07,362.29 C 61.09,362.27 61.11,362.26 61.13,362.25 61.2,362.21 61.26,362.19 61.32,362.17 61.56,362.09 61.77,362.05 61.98,362.01 63.66,361.77 65.31,361.71 66.97,361.64 68.62,361.58 70.28,361.55 71.93,361.53 L 71.91,362.09 62.03,361.06 C 61.92,361.05 61.83,360.95 61.84,360.84 61.85,360.75 61.92,360.68 62,360.66 L 70.61,358.66 70.64,358.92 65.93,358.53 63.57,358.32 62.4,358.2 C 62,358.14 61.63,358.15 61.2,358.01 L 61.27,357.98 Z M 61.27,357.98" />
            <path id="mel09Canvas-bezier23" stroke="none" fill="rgb(51, 91, 113)" d="M 69.68,368.06 C 68.16,367.75 66.61,367.58 65.06,367.55 63.52,367.53 61.95,367.66 60.53,368.21 59.84,368.5 59.19,368.91 58.75,369.49 58.33,370.07 58.05,370.82 57.87,371.53 57.7,372.25 57.7,373.01 57.95,373.68 58.19,374.33 58.72,374.92 59.3,375.22 L 59.2,375.19 C 61.48,375.37 63.77,375.49 66.06,375.57 67.2,375.61 68.34,375.6 69.48,375.54 70.05,375.51 70.61,375.44 71.17,375.34 71.72,375.23 72.29,375.09 72.69,374.69 L 72.75,374.73 C 72.39,375.22 71.78,375.43 71.24,375.61 70.68,375.79 70.1,375.89 69.53,375.97 68.37,376.14 67.21,376.19 66.05,376.21 63.74,376.26 61.43,376.1 59.13,375.82 L 59.11,375.82 C 59.08,375.82 59.05,375.81 59.03,375.79 58.25,375.36 57.7,374.67 57.42,373.87 57.14,373.06 57.18,372.2 57.39,371.42 57.49,371.02 57.63,370.64 57.79,370.28 57.95,369.92 58.14,369.55 58.4,369.22 58.92,368.57 59.65,368.14 60.39,367.86 61.9,367.3 63.51,367.25 65.07,367.32 66.63,367.4 68.18,367.63 69.7,367.99 L 69.68,368.06 Z M 69.68,368.06" />
            <path id="mel09Canvas-bezier24" stroke="none" fill="rgb(51, 91, 113)" d="M 73.34,372.78 C 74.14,371.49 74.74,370.07 75.05,368.6 75.37,367.14 75.35,365.62 74.78,364.23 74.5,363.49 74.36,362.69 74.35,361.89 74.34,361.09 74.49,360.31 74.7,359.56 75.11,358.08 75.81,356.7 75.45,355.19 L 75.51,355.17 C 75.89,355.85 75.94,356.7 75.84,357.48 75.74,358.26 75.52,358.99 75.37,359.73 75.03,361.18 74.86,362.65 75.31,364.06 75.84,365.54 75.8,367.2 75.39,368.69 74.97,370.18 74.28,371.57 73.4,372.82 L 73.34,372.78 Z M 73.34,372.78" />
            <path id="mel09Canvas-bezier25" stroke="none" fill="rgb(51, 91, 113)" d="M 73.37,354.05 C 73.65,353.32 73.73,352.51 73.52,351.83 73.41,351.49 73.18,351.24 73,350.95 72.81,350.66 72.57,350.38 72.32,350.02 L 72.36,349.96 C 72.8,349.98 73.2,350.19 73.53,350.5 73.87,350.81 74.01,351.28 74.07,351.71 74.19,352.6 73.89,353.43 73.43,354.09 L 73.37,354.05 Z M 73.37,354.05" />
            <path id="mel09Canvas-bezier26" stroke="none" fill="rgb(51, 91, 113)" d="M 58.18,367.43 C 57.92,366.12 57.79,364.78 57.75,363.44 57.72,362.1 57.82,360.74 57.99,359.43 58.11,358.13 57.88,356.86 57.66,355.56 57.56,354.91 57.43,354.23 57.45,353.53 57.46,352.83 57.71,352.1 58.18,351.6 L 58.24,351.64 C 57.6,352.87 58.05,354.13 58.34,355.42 58.66,356.73 58.76,358.13 58.55,359.5 58.31,360.82 58.14,362.11 58.1,363.44 58.05,364.76 58.08,366.1 58.25,367.42 L 58.18,367.43 Z M 58.18,367.43" />
            <path id="mel09Canvas-bezier27" stroke="none" fill="rgb(51, 91, 113)" d="M 60.33,352.82 C 59.86,351.94 59.48,351 59.29,349.99 59.2,349.49 59.1,348.95 59.26,348.41 59.41,347.89 59.8,347.35 60.34,347.22 L 60.38,347.28 C 60.1,347.72 60,348.12 59.95,348.56 59.91,348.99 59.82,349.45 59.85,349.93 59.87,350.4 59.94,350.88 60.04,351.36 60.13,351.84 60.24,352.32 60.39,352.79 L 60.33,352.82 Z M 60.33,352.82" />
            <path id="mel09Canvas-bezier28" stroke="none" fill="rgb(51, 91, 113)" d="M 27.81,347.81 C 28.31,348.78 28.71,349.8 28.96,350.88 29.08,351.42 29.22,351.97 29.15,352.55 29.07,353.11 28.86,353.73 28.39,354.09 L 28.33,354.05 C 28.46,353.51 28.46,353.02 28.45,352.52 28.42,352.02 28.47,351.5 28.41,350.97 28.29,349.93 28.06,348.87 27.75,347.84 L 27.81,347.81 Z M 27.81,347.81" />
            <path id="mel09Canvas-bezier29" stroke="none" fill="rgb(51, 91, 113)" d="M 37.71,7.2 C 39.2,6.42 40.79,5.81 42.46,5.46 43.29,5.3 44.16,5.2 45.04,5.32 45.25,5.35 45.48,5.4 45.69,5.47 45.88,5.54 46.08,5.59 46.28,5.64 L 47.5,5.94 C 49.14,6.32 50.8,6.67 52.39,7.33 53.17,7.67 53.95,8.03 54.66,8.54 55.34,9.04 56.05,9.73 56.15,10.62 L 56.08,10.63 C 55.79,9.84 55.09,9.35 54.4,8.95 53.68,8.56 52.92,8.24 52.14,7.98 50.58,7.43 48.98,6.94 47.36,6.48 L 46.14,6.13 C 45.94,6.07 45.73,6 45.53,5.92 45.34,5.85 45.16,5.8 44.96,5.76 44.18,5.62 43.34,5.68 42.52,5.8 40.88,6.05 39.26,6.57 37.74,7.26 L 37.71,7.2 Z M 37.71,7.2" />
            <path id="mel09Canvas-bezier30" stroke="none" fill="rgb(51, 91, 113)" d="M 56.12,11.68 C 56.51,11.92 56.75,12.25 57.06,12.54 57.36,12.84 57.65,13.14 57.95,13.43 58.27,13.73 58.55,13.96 58.92,14.26 59.09,14.48 59.11,14.72 59.14,14.93 59.15,15.15 59.15,15.37 59.15,15.58 59.06,17.27 58.68,18.96 58.94,20.54 59.02,20.92 59.17,21.27 59.41,21.47 59.46,21.52 59.53,21.56 59.6,21.59 59.63,21.61 59.67,21.62 59.71,21.63 L 59.87,21.68 C 60.15,21.79 60.39,22 60.51,22.27 60.75,22.81 60.65,23.3 60.57,23.73 60.46,24.17 60.32,24.57 60.17,24.97 59.85,25.76 59.51,26.52 59.23,27.29 59.09,27.68 58.97,28.07 58.93,28.46 58.89,28.85 58.96,29.26 59.28,29.54 L 59.24,29.6 C 58.83,29.4 58.64,28.9 58.61,28.46 58.59,28.01 58.67,27.58 58.76,27.16 58.95,26.32 59.27,25.53 59.51,24.73 59.65,24.34 59.77,23.95 59.86,23.57 59.95,23.2 59.99,22.8 59.89,22.56 59.84,22.44 59.75,22.35 59.64,22.3 L 59.5,22.25 C 59.44,22.22 59.38,22.2 59.32,22.17 59.2,22.1 59.09,22.03 58.99,21.94 58.6,21.56 58.46,21.07 58.39,20.64 58.18,18.86 58.65,17.21 58.8,15.56 58.83,15.17 58.87,14.7 58.71,14.43 58.44,14.2 58.08,13.88 57.81,13.58 57.52,13.27 57.24,12.95 56.96,12.64 56.68,12.34 56.41,11.97 56.11,11.75 L 56.12,11.68 Z M 56.12,11.68" />
            <path id="mel09Canvas-bezier31" stroke="none" fill="rgb(51, 91, 113)" d="M 36.09,8.03 C 37.49,5.57 39.44,3.37 41.87,1.82 43.09,1.06 44.44,0.49 45.86,0.22 47.3,-0.07 48.75,-0.02 50.17,0.08 53.03,0.29 55.89,0.96 58.48,2.24 59.77,2.89 61,3.66 62.09,4.62 63.16,5.57 64.12,6.71 64.67,8.03 L 64.61,8.06 C 63.88,6.85 62.88,5.84 61.78,4.99 60.67,4.15 59.46,3.43 58.18,2.86 55.64,1.71 52.92,0.92 50.12,0.63 48.73,0.5 47.31,0.42 45.95,0.66 44.57,0.89 43.25,1.41 42.05,2.12 39.63,3.54 37.62,5.66 36.15,8.07 L 36.09,8.03 Z M 36.09,8.03" />
            <path id="mel09Canvas-bezier32" stroke="none" fill="rgb(51, 91, 113)" d="M 65.24,8.75 C 66.28,10.07 66.93,11.67 67.33,13.31 67.7,14.96 67.79,16.67 67.64,18.36 67.49,20.05 67.15,21.73 66.53,23.31 65.89,24.87 65.1,26.38 64.09,27.73 L 64.03,27.69 C 64.69,26.15 65.37,24.64 65.87,23.07 66.39,21.51 66.87,19.93 67.09,18.3 67.3,16.67 67.29,15 66.98,13.38 66.69,11.76 66.14,10.15 65.19,8.79 L 65.24,8.75 Z M 65.24,8.75" />
            <path id="mel09Canvas-bezier33" stroke="none" fill="rgb(51, 91, 113)" d="M 60.64,30.31 C 61.11,29.93 61.59,29.56 62.09,29.23 62.6,28.9 63.1,28.57 63.73,28.42 63.89,28.38 64.09,28.38 64.25,28.46 64.41,28.52 64.55,28.62 64.67,28.72 64.92,28.93 65.12,29.18 65.28,29.45 65.59,30.01 65.74,30.64 65.74,31.27 65.75,32.54 65.25,33.73 64.62,34.78 63.98,35.83 63.2,36.78 62.33,37.63 L 62.36,37.6 C 61.99,38.05 61.52,38.37 61.01,38.58 60.51,38.8 59.98,38.92 59.44,38.95 58.9,38.97 58.34,38.89 57.85,38.64 57.36,38.39 56.99,37.9 56.91,37.39 L 56.98,37.37 C 57.17,37.83 57.55,38.17 58,38.32 58.43,38.48 58.92,38.48 59.39,38.41 59.86,38.35 60.32,38.21 60.73,37.99 61.15,37.77 61.53,37.5 61.79,37.15 L 61.81,37.14 61.83,37.12 C 62.66,36.29 63.47,35.44 64.13,34.47 64.77,33.5 65.27,32.41 65.31,31.27 65.33,30.7 65.22,30.13 64.96,29.63 64.83,29.38 64.67,29.15 64.46,28.95 64.25,28.76 64.04,28.62 63.78,28.68 63.23,28.77 62.69,29.08 62.18,29.37 61.67,29.68 61.17,30.01 60.69,30.36 L 60.64,30.31 Z M 60.64,30.31" />
            <path id="mel09Canvas-bezier34" stroke="none" fill="rgb(51, 91, 113)" d="M 55.18,38.29 C 54.19,39.61 53.02,40.78 51.75,41.84 50.47,42.89 49.07,43.81 47.57,44.53 46.08,45.26 44.48,45.84 42.81,46.05 41.14,46.24 39.45,46.17 37.85,45.73 L 37.86,45.66 C 39.5,45.71 41.12,45.66 42.71,45.36 44.29,45.08 45.85,44.67 47.34,44.03 48.82,43.38 50.23,42.54 51.53,41.57 52.84,40.6 54.07,39.5 55.13,38.25 L 55.18,38.29 Z M 55.18,38.29" />
            <path id="mel09Canvas-bezier35" stroke="none" fill="rgb(51, 91, 113)" d="M 37.47,45.41 C 36.19,45.57 34.85,45.42 33.68,44.83 33.1,44.53 32.57,44.1 32.17,43.57 31.78,43.03 31.51,42.44 31.24,41.85 30.24,39.47 29.58,36.96 29.13,34.42 28.92,33.14 28.76,31.85 28.75,30.54 28.74,29.88 28.81,29.23 28.84,28.61 L 28.95,26.69 C 29.05,25.39 29.37,24.06 29.94,22.89 30.49,21.71 31.18,20.62 31.92,19.57 L 31.98,19.6 C 30.85,21.9 29.64,24.21 29.65,26.73 L 29.56,28.65 C 29.52,29.31 29.44,29.93 29.44,30.55 29.41,31.81 29.52,33.07 29.68,34.33 30.05,36.85 30.64,39.35 31.57,41.72 31.8,42.3 32.05,42.89 32.4,43.4 32.76,43.91 33.23,44.33 33.78,44.64 34.88,45.26 36.2,45.45 37.46,45.34 L 37.47,45.41 Z M 37.47,45.41" />
            <path id="mel09Canvas-bezier36" stroke="none" fill="rgb(51, 91, 113)" d="M 33.59,13.56 C 33.71,12.67 33.92,11.79 34.21,10.92 34.36,10.49 34.48,10.04 34.76,9.66 35.03,9.28 35.38,8.92 35.84,8.74 L 35.89,8.79 C 35.71,9.24 35.54,9.62 35.36,10.01 35.19,10.4 34.93,10.75 34.73,11.14 34.33,11.92 33.97,12.74 33.66,13.58 L 33.59,13.56 Z M 33.59,13.56" />
            <path id="mel09Canvas-bezier37" stroke="none" fill="rgb(51, 91, 113)" d="M 33.44,15.4 C 33.85,14.99 34.44,14.73 35.07,14.74 35.69,14.77 36.28,15.06 36.75,15.43 37.23,15.81 37.67,16.24 37.95,16.77 38.23,17.29 38.43,17.85 38.49,18.45 L 38.43,18.48 C 38.02,18.04 37.69,17.58 37.36,17.14 37.02,16.71 36.76,16.23 36.38,15.85 36.01,15.48 35.55,15.18 35.03,15.09 34.52,14.99 33.94,15.13 33.48,15.45 L 33.44,15.4 Z M 33.44,15.4" />
            <path id="mel09Canvas-bezier38" stroke="none" fill="rgb(51, 91, 113)" d="M 54.2,23.09 C 53.62,22.51 52.98,22 52.3,21.55 51.63,21.1 50.92,20.71 50.17,20.44 49.42,20.17 48.64,20.08 47.88,20.04 47.11,20 46.34,20.11 45.52,20.32 L 45.49,20.26 C 46.14,19.7 47,19.39 47.87,19.34 48.76,19.28 49.61,19.58 50.38,19.93 51.93,20.64 53.22,21.76 54.25,23.05 L 54.2,23.09 Z M 54.2,23.09" />
            <path id="mel09Canvas-bezier39" stroke="none" fill="rgb(51, 91, 113)" d="M 35.33,29.54 C 35.62,29.56 35.89,29.63 36.16,29.75 36.29,29.82 36.47,29.86 36.54,30.02 36.61,30.17 36.65,30.41 36.48,30.59 L 36.41,30.6 C 36.2,30.51 36.1,30.51 36,30.46 35.91,30.43 35.89,30.29 35.82,30.19 35.67,30 35.49,29.8 35.31,29.6 L 35.33,29.54 Z M 35.33,29.54" />
            <path id="mel09Canvas-bezier40" stroke="none" fill="rgb(51, 91, 113)" d="M 38.45,30.75 C 38.85,30.58 39.27,30.48 39.73,30.5 39.96,30.52 40.24,30.51 40.44,30.7 40.64,30.88 40.77,31.17 40.67,31.44 L 40.61,31.47 C 40.35,31.36 40.21,31.33 40.06,31.28 39.92,31.25 39.8,31.11 39.63,31.05 39.29,30.92 38.88,30.85 38.47,30.82 L 38.45,30.75 Z M 38.45,30.75" />
            <path id="mel09Canvas-bezier41" stroke="none" fill="rgb(51, 91, 113)" d="M 40.93,31.71 C 41.35,31.62 41.79,31.42 41.94,31.15 42.02,31.01 41.97,30.87 42.02,30.72 42.07,30.56 42.1,30.36 42.21,30.09 L 42.27,30.07 C 42.53,30.21 42.67,30.45 42.72,30.73 42.78,31.02 42.58,31.33 42.36,31.52 41.89,31.91 41.37,31.87 40.93,31.78 L 40.93,31.71 Z M 40.93,31.71" />
            <path id="mel09Canvas-bezier42" stroke="none" fill="rgb(51, 91, 113)" d="M 39,19.41 C 39.43,20.16 39.62,21.07 39.43,21.96 39.33,22.4 39.13,22.82 38.86,23.18 38.6,23.52 38.36,23.86 38.13,24.22 37.67,24.92 37.3,25.68 36.83,26.39 L 36.14,27.45 C 35.93,27.8 35.64,28.15 35.51,28.53 L 35.45,28.54 C 35.39,28.06 35.57,27.64 35.7,27.23 35.85,26.82 36.03,26.43 36.23,26.04 36.62,25.26 37.15,24.58 37.68,23.9 37.94,23.55 38.22,23.21 38.5,22.89 38.77,22.6 38.97,22.25 39.1,21.86 39.35,21.1 39.28,20.21 38.94,19.44 L 39,19.41 Z M 39,19.41" />
            <path id="mel09Canvas-bezier43" stroke="none" fill="rgb(51, 91, 113)" d="M 33.01,33.97 C 33.96,33.96 34.9,34.06 35.84,34.19 36.77,34.33 37.7,34.51 38.63,34.73 39.55,34.94 40.47,35.18 41.36,35.49 42.25,35.81 43.13,36.16 43.98,36.59 L 43.97,36.62 C 43.05,36.38 42.16,36.08 41.25,35.82 40.35,35.55 39.46,35.25 38.56,35 37.65,34.75 36.73,34.53 35.81,34.36 34.89,34.19 33.95,34.04 33.01,34 L 33.01,33.97 Z M 33.01,33.97" />
            <path id="mel09Canvas-bezier44" stroke="none" fill="rgb(51, 91, 113)" d="M 33.48,35.03 C 33.95,35.75 34.69,36.24 35.45,36.6 36.22,36.96 37.05,37.17 37.89,37.29 38.73,37.4 39.59,37.4 40.44,37.4 41.29,37.4 42.14,37.33 43.01,37.29 L 43.01,37.33 C 42.18,37.56 41.32,37.68 40.45,37.74 39.58,37.79 38.7,37.72 37.85,37.57 36.99,37.41 36.15,37.16 35.37,36.76 34.61,36.35 33.89,35.8 33.44,35.05 L 33.48,35.03 Z M 33.48,35.03" />
            <path id="mel09Canvas-bezier45" stroke="none" fill="rgb(51, 91, 113)" d="M 33.31,37.16 C 33.75,37.64 34.27,38.03 34.82,38.35 35.37,38.68 35.96,38.92 36.57,39.07 37.18,39.23 37.8,39.24 38.41,39.29 39.04,39.34 39.66,39.33 40.34,39.36 L 40.36,39.43 C 39.77,39.78 39.09,39.94 38.41,39.99 37.72,40.03 37.04,39.84 36.4,39.61 35.12,39.14 34.01,38.29 33.25,37.21 L 33.31,37.16 Z M 33.31,37.16" />
            <path id="mel09Canvas-bezier46" stroke="none" fill="rgb(51, 91, 113)" d="M 64.3,29.82 C 63.97,29.97 63.66,30.17 63.38,30.39 63.09,30.6 62.83,30.84 62.6,31.11 62.37,31.37 62.22,31.69 62,31.94 61.78,32.21 61.57,32.48 61.27,32.77 L 61.2,32.75 C 61.14,32.33 61.24,31.93 61.41,31.57 61.58,31.21 61.91,30.95 62.22,30.7 62.83,30.21 63.54,29.88 64.28,29.75 L 64.3,29.82 Z M 64.3,29.82" />
            <path id="mel09Canvas-bezier47" stroke="none" fill="rgb(51, 91, 113)" d="M 60.19,32.17 C 60.08,32.66 60.15,33.13 60.06,33.67 60,33.93 59.88,34.19 59.75,34.41 59.62,34.63 59.51,34.83 59.43,35.03 59.39,35.14 59.37,35.24 59.38,35.3 59.41,35.37 59.38,35.26 59.37,35.26 59.42,35.27 59.68,35.24 59.89,35.21 60.14,35.17 60.44,35.14 60.73,35.22 60.87,35.25 61.03,35.32 61.15,35.44 61.27,35.56 61.33,35.74 61.27,35.88 L 61.2,35.88 C 61.08,35.66 60.88,35.68 60.69,35.71 60.48,35.74 60.28,35.81 60.05,35.89 59.78,35.96 59.53,36.05 59.1,35.89 59,35.84 58.87,35.74 58.81,35.6 58.75,35.47 58.75,35.35 58.76,35.25 58.79,35.06 58.86,34.93 58.92,34.8 59.05,34.56 59.22,34.35 59.37,34.16 59.52,33.97 59.65,33.78 59.72,33.57 59.88,33.15 59.93,32.61 60.13,32.15 L 60.19,32.17 Z M 60.19,32.17" />
            <path id="mel09Canvas-bezier48" stroke="none" fill="rgb(51, 91, 113)" d="M 33.92,19.2 C 34.25,18.83 34.81,18.75 35.29,18.85 35.77,18.95 36.21,19.2 36.6,19.47 36.99,19.75 37.39,20.04 37.66,20.43 37.93,20.82 38.16,21.24 38.26,21.72 L 38.21,21.76 C 37.79,21.5 37.46,21.19 37.13,20.88 36.81,20.58 36.57,20.2 36.25,19.9 35.93,19.6 35.58,19.33 35.19,19.18 34.81,19.02 34.33,18.98 33.97,19.25 L 33.92,19.2 Z M 33.92,19.2" />
            <path id="mel09Canvas-bezier49" stroke="none" fill="rgb(51, 91, 113)" d="M 35.47,18.21 C 35.84,18.07 36.26,18.13 36.63,18.28 37,18.44 37.33,18.69 37.61,18.98 37.88,19.26 38.17,19.55 38.31,19.92 38.45,20.28 38.54,20.67 38.49,21.08 L 38.43,21.11 C 38.12,20.83 37.9,20.54 37.69,20.25 37.48,19.96 37.38,19.62 37.18,19.33 36.98,19.04 36.75,18.78 36.47,18.59 36.19,18.39 35.85,18.24 35.49,18.27 L 35.47,18.21 Z M 35.47,18.21" />
            <path id="mel09Canvas-bezier50" stroke="none" fill="rgb(51, 91, 113)" d="M 33.3,20.31 C 33.75,20.56 34.26,20.7 34.75,20.82 35.25,20.94 35.75,21.03 36.26,21.06 L 36.23,21.06 C 36.69,21.07 37.05,21.22 37.38,21.43 37.71,21.63 38.01,21.87 38.25,22.19 L 38.22,22.25 C 37.82,22.21 37.46,22.11 37.12,22.01 36.77,21.92 36.44,21.78 36.17,21.7 L 36.39,21.77 36.14,21.7 C 35.12,21.41 34.08,21.05 33.26,20.37 L 33.3,20.31 Z M 33.3,20.31" />
            <path id="mel09Canvas-bezier51" stroke="none" fill="rgb(51, 91, 113)" d="M 51.07,25.29 C 50.68,24.83 50.24,24.41 49.76,24.06 49.28,23.7 48.76,23.41 48.22,23.25 47.67,23.09 47.12,23.12 46.59,23.19 46.05,23.26 45.51,23.46 44.92,23.69 L 44.88,23.64 C 45.23,23.1 45.79,22.69 46.44,22.51 47.1,22.31 47.82,22.47 48.41,22.73 49.61,23.25 50.49,24.21 51.13,25.25 L 51.07,25.29 Z M 51.07,25.29" />
            <path id="mel09Canvas-bezier52" stroke="none" fill="rgb(51, 91, 113)" d="M 45.07,24.37 C 45.63,24.42 46.18,24.49 46.73,24.63 47,24.7 47.27,24.78 47.54,24.9 47.67,24.96 47.83,25.06 47.92,25.1 48.01,25.14 48.13,25.17 48.25,25.2 48.74,25.29 49.28,25.21 49.81,25.26 50.34,25.29 50.89,25.33 51.46,25.45 L 51.47,25.52 C 50.94,25.78 50.38,25.9 49.82,25.95 49.25,26.01 48.68,25.91 48.1,25.74 47.95,25.69 47.81,25.63 47.66,25.53 47.52,25.44 47.45,25.38 47.33,25.31 47.11,25.17 46.87,25.06 46.62,24.96 46.12,24.74 45.6,24.58 45.06,24.44 L 45.07,24.37 Z M 45.07,24.37" />
            <path id="mel09Canvas-bezier53" stroke="none" fill="rgb(51, 91, 113)" d="M 46.27,22.19 C 46.61,21.95 47.04,21.86 47.46,21.83 47.87,21.82 48.29,21.88 48.7,21.98 49.1,22.08 49.52,22.17 49.86,22.41 50.2,22.64 50.51,22.92 50.74,23.3 L 50.7,23.36 C 50.26,23.29 49.89,23.16 49.54,23.02 49.18,22.89 48.87,22.65 48.52,22.51 48.17,22.35 47.81,22.24 47.44,22.18 47.07,22.12 46.67,22.11 46.31,22.25 L 46.27,22.19 Z M 46.27,22.19" />
            <path id="mel09Canvas-bezier54" stroke="none" fill="rgb(51, 91, 113)" d="M 35.32,20.26 C 35.25,20.44 35.16,20.63 35.04,20.8 34.92,20.97 34.71,21.16 34.39,21.09 34.11,21.02 33.95,20.73 33.9,20.51 33.85,20.26 33.86,20.03 33.92,19.79 33.96,19.58 34.07,19.33 34.24,19.13 34.41,18.95 34.71,18.71 35.15,18.88 L 35.23,18.92 C 35.28,18.96 35.33,18.99 35.35,19.02 35.42,19.08 35.45,19.16 35.49,19.22 35.54,19.37 35.54,19.51 35.53,19.63 35.49,19.87 35.39,20.07 35.32,20.26 Z M 35.26,20.23 C 35.31,20.04 35.26,19.83 35.16,19.69 35.11,19.62 35.05,19.56 35,19.54 34.98,19.52 34.95,19.52 34.94,19.52 34.93,19.51 34.93,19.52 34.94,19.53 34.95,19.54 34.9,19.52 34.88,19.52 34.93,19.55 34.82,19.53 34.72,19.62 34.61,19.7 34.52,19.81 34.44,19.98 34.32,20.24 34.3,20.66 34.52,20.77 34.59,20.82 34.79,20.8 34.94,20.7 35.1,20.59 35.21,20.42 35.26,20.23 Z M 35.26,20.23" />
            <path id="mel09Canvas-bezier55" stroke="none" fill="rgb(51, 91, 113)" d="M 47.51,23.99 C 47.43,24.17 47.35,24.36 47.22,24.54 47.11,24.71 46.89,24.89 46.58,24.83 46.29,24.75 46.14,24.47 46.09,24.24 46.03,24 46.04,23.77 46.1,23.53 46.15,23.32 46.25,23.07 46.42,22.87 46.6,22.68 46.89,22.45 47.33,22.61 L 47.41,22.66 C 47.46,22.69 47.51,22.72 47.54,22.75 47.6,22.82 47.64,22.89 47.67,22.96 47.72,23.1 47.72,23.24 47.71,23.36 47.68,23.61 47.57,23.8 47.51,23.99 Z M 47.44,23.97 C 47.49,23.78 47.44,23.57 47.34,23.42 47.3,23.35 47.23,23.29 47.18,23.27 47.16,23.26 47.13,23.25 47.12,23.26 47.11,23.25 47.11,23.26 47.12,23.27 47.13,23.27 47.08,23.26 47.07,23.25 47.11,23.29 47,23.27 46.9,23.36 46.79,23.44 46.7,23.54 46.62,23.71 46.49,23.98 46.49,24.41 46.69,24.5 46.78,24.57 46.97,24.54 47.12,24.43 47.28,24.33 47.39,24.16 47.44,23.97 Z M 47.44,23.97" />
            <path id="mel09Canvas-bezier56" stroke="none" fill="rgb(51, 91, 113)" d="M 32.2,45.41 C 32.49,46.7 32.41,48.06 32.05,49.34 31.66,50.63 30.95,51.81 30.02,52.78 29.1,53.77 28,54.59 26.78,55.14 25.55,55.69 24.26,56.05 22.94,56.19 L 22.93,56.12 C 24.14,55.61 25.34,55.12 26.47,54.51 27.59,53.91 28.7,53.27 29.63,52.39 30.55,51.52 31.28,50.44 31.72,49.23 32.15,48.04 32.33,46.71 32.13,45.43 L 32.2,45.41 Z M 32.2,45.41" />
            <path id="mel09Canvas-bezier57" stroke="none" fill="rgb(51, 91, 113)" d="M 23.84,54.47 C 23.44,54.42 23.04,54.61 22.73,54.88 22.43,55.14 22.2,55.5 22.05,55.88 21.74,56.64 21.71,57.49 21.82,58.3 22.05,59.94 22.77,61.47 23.61,62.89 25.32,65.74 27.57,68.21 29.92,70.56 32.26,72.94 34.48,75.42 36.74,77.85 37.88,79.06 39.04,80.26 40.31,81.3 41.58,82.33 43.02,83.17 44.6,83.5 46.19,83.84 47.84,83.72 49.46,83.44 50.25,83.28 51.11,83.14 51.82,82.86 52.55,82.57 53.22,82.13 53.8,81.59 54.98,80.5 55.8,79.07 56.43,77.56 57.05,76.06 57.47,74.46 57.79,72.84 58.43,69.61 58.63,66.29 58.58,62.98 58.55,61.33 58.45,59.67 58.24,58.03 58.14,57.21 58.01,56.39 57.82,55.58 57.62,54.79 57.43,53.95 56.92,53.3 L 56.97,53.26 C 57.54,53.91 57.76,54.74 58.01,55.53 58.24,56.34 58.41,57.16 58.55,57.98 58.82,59.63 58.98,61.3 59.07,62.97 59.22,66.3 59.06,69.67 58.47,72.98 58.15,74.63 57.72,76.26 57.07,77.83 56.42,79.39 55.55,80.91 54.27,82.1 53.63,82.68 52.87,83.16 52.05,83.47 51.64,83.63 51.2,83.74 50.8,83.82 50.39,83.9 49.98,83.98 49.56,84.05 47.9,84.32 46.17,84.43 44.48,84.04 42.79,83.67 41.28,82.77 39.99,81.69 38.69,80.61 37.54,79.39 36.41,78.16 34.17,75.7 31.97,73.2 29.67,70.8 27.35,68.42 25.11,65.9 23.43,63 22.61,61.55 21.9,60 21.68,58.32 21.58,57.49 21.62,56.62 21.95,55.84 22.11,55.45 22.35,55.09 22.68,54.81 23,54.54 23.42,54.34 23.85,54.4 L 23.84,54.47 Z M 23.84,54.47" />
            <path id="mel09Canvas-bezier58" stroke="none" fill="rgb(51, 91, 113)" d="M 55.8,52.32 C 56.92,52.49 58.03,52.78 59.04,53.36 59.53,53.67 60.01,54.07 60.27,54.65 60.4,54.97 60.43,55.22 60.55,55.45 60.65,55.69 60.79,55.92 60.94,56.14 61.56,57.01 62.43,57.7 63.27,58.4 64.13,59.09 65.04,59.72 66,60.32 L 65.97,60.38 C 64.85,60.13 63.81,59.6 62.86,58.95 61.91,58.3 61.09,57.44 60.47,56.44 60.32,56.18 60.18,55.92 60.08,55.64 59.96,55.35 59.93,55.04 59.85,54.82 59.68,54.36 59.29,53.96 58.85,53.65 57.96,53.03 56.87,52.64 55.79,52.39 L 55.8,52.32 Z M 55.8,52.32" />
            <path id="mel09Canvas-bezier59" stroke="none" fill="rgb(51, 91, 113)" d="M 62.69,56.33 C 63.19,55.77 63.86,55.37 64.62,55.23 65.37,55.09 66.17,55.27 66.84,55.64 67.51,56 68.08,56.55 68.58,57.06 69.1,57.56 69.67,58 70.3,58.3 70.93,58.59 71.61,58.71 72.28,58.63 72.96,58.56 73.62,58.34 74.3,58.08 74.99,57.83 75.7,57.56 76.44,57.4 76.62,57.36 76.81,57.33 77.01,57.31 77.21,57.3 77.42,57.28 77.65,57.4 77.77,57.47 77.86,57.59 77.88,57.71 77.9,57.83 77.89,57.93 77.88,58.03 77.84,58.23 77.76,58.4 77.68,58.57 L 77.62,58.55 C 77.65,58.37 77.68,58.18 77.68,58.01 77.67,57.84 77.61,57.7 77.51,57.69 77.28,57.62 76.89,57.75 76.57,57.87 75.89,58.12 75.23,58.4 74.56,58.72 73.88,59.01 73.14,59.28 72.34,59.32 71.54,59.37 70.73,59.16 70.05,58.79 69.36,58.43 68.78,57.93 68.26,57.38 67.76,56.82 67.28,56.31 66.66,55.94 66.07,55.56 65.36,55.35 64.65,55.44 63.94,55.52 63.26,55.87 62.74,56.37 L 62.69,56.33 Z M 62.69,56.33" />
            <path id="mel09Canvas-bezier60" stroke="none" fill="rgb(51, 91, 113)" d="M 77.78,59.42 C 78.03,59.52 78.14,59.71 78.31,59.86 L 78.77,60.36 79.64,61.38 81.35,63.46 84.69,67.66 86.39,69.74 C 86.95,70.45 87.54,71.07 88.08,71.86 89.08,73.43 89.57,75.31 89.35,77.12 L 89.28,77.12 C 89.1,75.35 88.52,73.64 87.51,72.25 87.26,71.9 86.98,71.58 86.68,71.23 86.4,70.88 86.12,70.52 85.85,70.17 L 84.25,68 81.07,63.67 79.48,61.51 78.66,60.45 C 78.38,60.12 78.1,59.71 77.77,59.49 L 77.78,59.42 Z M 77.78,59.42" />
            <path id="mel09Canvas-bezier61" stroke="none" fill="rgb(51, 91, 113)" d="M 88.27,77.15 C 87.21,76.67 86,76.61 84.86,76.76 83.72,76.9 82.61,77.28 81.58,77.79 80.55,78.3 79.61,78.98 78.66,79.63 77.7,80.28 76.78,81 75.81,81.69 L 75.77,81.64 C 76.47,80.67 77.31,79.83 78.24,79.07 79.17,78.32 80.24,77.75 81.35,77.28 82.45,76.82 83.63,76.49 84.83,76.41 86.02,76.35 87.26,76.51 88.3,77.09 L 88.27,77.15 Z M 88.27,77.15" />
            <path id="mel09Canvas-bezier62" stroke="none" fill="rgb(51, 91, 113)" d="M 87.46,101.15 C 83.28,101.69 79.18,102.7 75.16,103.91 73.14,104.52 71.15,105.19 69.18,105.92 67.2,106.66 65.17,107.28 63.12,107.78 59.01,108.8 54.81,109.46 50.58,109.65 48.46,109.73 46.34,109.73 44.23,109.56 42.13,109.37 39.99,109.09 38.03,108.25 L 38.06,108.19 C 39.05,108.54 40.09,108.71 41.12,108.84 42.16,108.97 43.21,109.04 44.26,109.07 46.35,109.14 48.45,109.1 50.54,108.96 54.72,108.68 58.9,108.17 62.99,107.24 67.09,106.38 70.97,104.67 75.06,103.58 79.12,102.46 83.25,101.53 87.45,101.08 L 87.46,101.15 Z M 87.46,101.15" />
            <path id="mel09Canvas-bezier63" stroke="none" fill="rgb(51, 91, 113)" d="M 37.26,107.87 C 34.39,106.43 31.5,105.03 28.55,103.78 27.81,103.47 27.07,103.17 26.32,102.9 25.56,102.64 24.84,102.38 24.03,102.39 23.17,102.29 22.42,101.94 21.69,101.58 20.96,101.23 20.26,100.84 19.54,100.5 18.83,100.16 18.1,99.86 17.36,99.77 17.18,99.76 17,99.75 16.83,99.77 L 16.23,99.83 15.03,99.95 C 13.44,100.12 11.85,100.29 10.31,100.6 9.54,100.76 8.77,100.94 8.09,101.27 7.75,101.43 7.43,101.64 7.25,101.9 7.16,102.02 7.12,102.17 7.09,102.35 7.07,102.49 7.08,102.65 7.14,102.78 7.26,103.06 7.59,103.25 7.94,103.35 8.3,103.46 8.69,103.49 9.08,103.49 9.86,103.49 10.67,103.37 11.38,103.02 L 11.42,103.08 C 10.73,103.53 9.91,103.73 9.1,103.81 8.68,103.84 8.27,103.83 7.84,103.74 7.44,103.64 6.97,103.46 6.71,103 6.58,102.78 6.55,102.53 6.57,102.27 6.59,102.05 6.65,101.81 6.79,101.6 7.06,101.18 7.44,100.94 7.81,100.73 8.57,100.34 9.37,100.11 10.16,99.92 11.76,99.56 13.37,99.39 14.97,99.27 L 16.17,99.18 16.78,99.13 C 17,99.11 17.22,99.13 17.44,99.16 18.3,99.28 19.07,99.63 19.79,100 20.52,100.36 21.21,100.77 21.92,101.14 22.62,101.5 23.35,101.84 24.08,101.94 24.25,101.97 24.47,101.96 24.69,102 24.9,102.03 25.1,102.08 25.3,102.13 25.7,102.25 26.08,102.38 26.46,102.52 27.22,102.81 27.95,103.13 28.69,103.46 31.62,104.8 34.46,106.28 37.29,107.81 L 37.26,107.87 Z M 37.26,107.87" />
            <path id="mel09Canvas-bezier64" stroke="none" fill="rgb(51, 91, 113)" d="M 11.79,103.07 C 12.54,103.06 13.3,103.04 14.04,103.02 14.41,103 14.78,102.92 15.14,102.96 15.51,102.98 15.85,103.06 16.23,103.07 L 16.27,103.13 C 15.99,103.5 15.54,103.59 15.17,103.65 14.78,103.72 14.39,103.62 14.02,103.57 13.26,103.48 12.51,103.33 11.78,103.14 L 11.79,103.07 Z M 11.79,103.07" />
            <path id="mel09Canvas-bezier65" stroke="none" fill="rgb(51, 91, 113)" d="M 8.82,109.66 C 8.4,110 7.94,110.31 7.45,110.55 6.96,110.78 6.41,110.99 5.82,110.89 5.53,110.85 5.26,110.69 5.06,110.47 4.86,110.24 4.74,109.99 4.64,109.71 4.56,109.44 4.52,109.11 4.64,108.82 4.75,108.51 4.98,108.29 5.22,108.13 5.7,107.8 6.23,107.63 6.68,107.38 6.8,107.32 6.9,107.25 6.99,107.18 7.09,107.1 7.1,107.04 7.24,106.89 7.46,106.67 7.69,106.52 7.93,106.36 8.87,105.77 9.84,105.28 10.83,104.81 11.83,104.35 12.82,103.91 13.88,103.55 14.14,103.46 14.41,103.38 14.7,103.32 14.84,103.29 14.99,103.26 15.18,103.26 15.22,103.26 15.27,103.26 15.34,103.27 15.36,103.27 15.4,103.28 15.44,103.29 L 15.49,103.31 15.64,103.35 C 16.12,103.43 16.68,103.47 17.21,103.5 18.28,103.58 19.37,103.61 20.45,103.64 20.99,103.65 21.53,103.66 22.07,103.66 22.61,103.67 23.16,103.66 23.69,103.61 L 23.71,103.67 C 22.64,103.97 21.54,104.04 20.46,104.12 19.37,104.19 18.27,104.21 17.17,104.2 16.62,104.17 16.09,104.15 15.5,104.06 15.42,104.04 15.35,104.03 15.25,103.99 15.25,103.99 15.19,103.97 15.21,103.98 15.21,103.98 15.22,103.98 15.21,103.98 15.21,103.98 15.19,103.97 15.17,103.97 15.08,103.97 14.96,103.99 14.84,104.01 14.59,104.06 14.34,104.13 14.08,104.2 13.07,104.51 12.05,104.9 11.06,105.32 10.07,105.75 9.08,106.21 8.17,106.75 7.94,106.88 7.71,107.03 7.54,107.19 7.5,107.23 7.37,107.42 7.25,107.5 7.13,107.59 7,107.67 6.87,107.73 6.36,107.99 5.84,108.14 5.41,108.42 5.2,108.55 5.02,108.72 4.93,108.93 4.83,109.14 4.84,109.39 4.91,109.63 5.04,110.12 5.35,110.59 5.86,110.69 6.36,110.79 6.9,110.63 7.39,110.42 7.88,110.21 8.35,109.93 8.78,109.6 L 8.82,109.66 Z M 8.82,109.66" />
            <path id="mel09Canvas-bezier66" stroke="none" fill="rgb(51, 91, 113)" d="M 9.61,109.36 C 10.31,109.1 11.01,108.81 11.68,108.51 12.02,108.36 12.32,108.14 12.67,108.04 13.02,107.94 13.37,107.85 13.78,107.81 L 13.82,107.87 C 13.61,108.23 13.29,108.48 12.96,108.68 12.62,108.88 12.23,108.94 11.86,109.03 11.13,109.23 10.38,109.36 9.63,109.43 L 9.61,109.36 Z M 9.61,109.36" />
            <path id="mel09Canvas-bezier67" stroke="none" fill="rgb(51, 91, 113)" d="M 9.15,114.7 C 8.71,114.89 8.24,115.02 7.75,115.07 7.27,115.11 6.75,115.07 6.3,114.82 5.85,114.57 5.54,114.12 5.39,113.64 5.31,113.4 5.29,113.09 5.43,112.83 5.57,112.57 5.79,112.41 6.02,112.28 6.92,111.82 7.87,111.68 8.68,111.21 9.51,110.76 10.36,110.29 11.21,109.84 12.06,109.39 12.93,108.96 13.82,108.58 14.72,108.22 15.65,107.87 16.71,107.83 17,107.84 17.22,107.88 17.45,107.9 17.68,107.92 17.92,107.93 18.15,107.94 18.62,107.95 19.09,107.92 19.56,107.9 20.03,107.87 20.5,107.82 20.97,107.74 21.44,107.67 21.9,107.57 22.34,107.39 L 22.38,107.45 C 21.54,107.98 20.57,108.21 19.62,108.38 19.14,108.47 18.65,108.51 18.16,108.54 17.91,108.55 17.67,108.55 17.42,108.55 17.17,108.55 16.91,108.52 16.72,108.53 15.87,108.58 14.95,108.91 14.08,109.22 13.19,109.55 12.32,109.94 11.46,110.34 10.6,110.75 9.75,111.19 8.88,111.62 8,112.08 7,112.21 6.18,112.59 5.21,112.91 5.68,114.19 6.41,114.64 7.2,115.11 8.25,114.95 9.13,114.64 L 9.15,114.7 Z M 9.15,114.7" />
            <path id="mel09Canvas-bezier68" stroke="none" fill="rgb(51, 91, 113)" d="M 22.36,111.68 C 21.22,111.83 20.09,112.02 18.98,112.29 18.42,112.43 17.88,112.59 17.36,112.82 16.82,113.05 16.26,113.22 15.7,113.37 14.58,113.65 13.43,113.85 12.27,113.96 11.98,113.99 11.67,113.98 11.46,114.04 11.21,114.11 10.97,114.22 10.77,114.37 10.56,114.52 10.4,114.72 10.32,114.91 10.25,115.11 10.28,115.29 10.42,115.45 10.72,115.78 11.27,115.94 11.8,116.06 12.33,116.16 12.89,116.2 13.44,116.18 14.55,116.14 15.66,115.93 16.82,115.78 17.4,115.72 17.99,115.68 18.59,115.71 18.89,115.72 19.21,115.76 19.48,115.81 19.75,115.85 20.03,115.88 20.31,115.9 21.43,115.98 22.57,115.89 23.69,115.65 L 23.71,115.71 C 22.64,116.15 21.47,116.37 20.3,116.39 20,116.4 19.7,116.39 19.41,116.36 19.11,116.33 18.86,116.31 18.58,116.31 18.03,116.31 17.47,116.39 16.91,116.48 15.79,116.64 14.64,116.87 13.45,116.87 12.85,116.87 12.26,116.8 11.66,116.66 11.1,116.51 10.47,116.35 9.99,115.8 9.74,115.53 9.67,115.06 9.83,114.72 9.97,114.39 10.21,114.15 10.48,113.97 10.74,113.78 11.03,113.65 11.34,113.58 11.69,113.5 11.96,113.53 12.24,113.51 13.37,113.44 14.51,113.28 15.62,113.03 16.18,112.91 16.73,112.76 17.26,112.56 17.8,112.35 18.37,112.21 18.93,112.09 20.07,111.86 21.21,111.72 22.36,111.61 L 22.36,111.68 Z M 22.36,111.68" />
            <path id="mel09Canvas-bezier69" stroke="none" fill="rgb(51, 91, 113)" d="M 24.53,116.22 C 25.77,116.7 27.03,117.13 28.29,117.55 29.54,117.97 30.81,118.36 32.08,118.71 33.36,119.05 34.65,119.31 35.92,119.58 36.56,119.71 37.2,119.82 37.85,119.89 38.49,119.95 39.14,119.98 39.77,119.77 L 39.8,119.83 C 39.23,120.24 38.51,120.34 37.84,120.38 37.15,120.41 36.47,120.35 35.81,120.26 34.47,120.07 33.19,119.66 31.92,119.24 29.38,118.41 26.92,117.4 24.51,116.29 L 24.53,116.22 Z M 24.53,116.22" />
            <path id="mel09Canvas-bezier70" stroke="none" fill="rgb(51, 91, 113)" d="M 40.86,119.29 C 42.99,119.43 45.11,119.62 47.22,119.86 49.33,120.11 51.45,120.4 53.53,120.88 57.66,121.85 61.88,122.4 66.1,122.76 70.33,123.09 74.58,123.12 78.79,122.82 83,122.51 87.22,121.79 91.12,120.1 L 91.15,120.17 C 87.39,122.23 83.09,123.08 78.85,123.51 74.59,123.9 70.3,123.72 66.06,123.31 61.81,122.89 57.59,122.26 53.45,121.22 51.4,120.7 49.3,120.36 47.19,120.07 45.09,119.78 42.98,119.54 40.86,119.36 L 40.86,119.29 Z M 40.86,119.29" />
            <path id="mel09Canvas-bezier71" stroke="none" fill="rgb(51, 91, 113)" d="M 93.05,118.96 C 93.93,118.69 94.8,118.43 95.68,118.19 96.11,118.07 96.62,118.01 96.95,117.84 97.32,117.66 97.61,117.36 97.82,117.01 98.23,116.29 98.27,115.4 98.32,114.54 98.37,113.66 98.31,112.77 98.31,111.84 L 98.38,111.83 C 98.75,112.68 98.97,113.6 99.02,114.54 99.06,115.48 98.86,116.48 98.29,117.31 98.01,117.72 97.61,118.07 97.14,118.26 96.91,118.35 96.63,118.4 96.43,118.43 L 95.76,118.54 C 94.86,118.68 93.96,118.85 93.07,119.02 L 93.05,118.96 Z M 93.05,118.96" />
            <path id="mel09Canvas-bezier72" stroke="none" fill="rgb(51, 91, 113)" d="M 89.35,78.07 C 90.07,80.79 90.88,83.49 91.78,86.15 92.23,87.48 92.71,88.81 93.24,90.1 93.75,91.41 94.42,92.64 94.96,93.96 96.04,96.58 96.95,99.27 97.59,102.03 97.89,103.42 98.16,104.81 98.33,106.22 98.49,107.62 98.6,109.06 98.38,110.46 L 98.31,110.46 C 98.33,109.05 98.1,107.67 97.85,106.29 97.58,104.92 97.28,103.55 96.91,102.2 96.19,99.49 95.44,96.79 94.44,94.17 93.95,92.87 93.3,91.61 92.82,90.27 92.32,88.95 91.87,87.61 91.45,86.26 90.63,83.56 89.91,80.83 89.28,78.09 L 89.35,78.07 Z M 89.35,78.07" />
            <path id="mel09Canvas-bezier73" stroke="none" fill="rgb(51, 91, 113)" d="M 71.88,103.62 C 72.37,102.75 72.81,101.86 73.18,100.94 73.36,100.47 73.52,100 73.64,99.53 73.77,99.06 73.77,98.58 73.86,98.06 74.26,96.04 75.3,94.27 76.23,92.52 77.21,90.78 77.98,88.94 79.22,87.28 79.38,87.08 79.55,86.88 79.75,86.69 79.85,86.6 79.96,86.51 80.09,86.42 80.16,86.38 80.21,86.35 80.31,86.3 80.36,86.28 80.43,86.26 80.53,86.23 81.19,86.06 81.84,86.52 82.05,87.04 82.5,88.12 82.12,89.19 81.65,90.06 L 81.59,90.03 C 81.74,89.55 81.86,89.07 81.88,88.59 81.91,88.12 81.85,87.63 81.62,87.27 81.4,86.9 81.02,86.7 80.68,86.81 80.36,86.91 80.04,87.32 79.77,87.7 78.69,89.3 77.76,91.09 76.72,92.79 75.72,94.51 74.64,96.22 74.2,98.13 74.1,98.59 74.07,99.12 73.91,99.6 73.76,100.09 73.57,100.56 73.37,101.02 72.95,101.93 72.47,102.81 71.94,103.66 L 71.88,103.62 Z M 71.88,103.62" />
            <path id="mel09Canvas-bezier74" stroke="none" fill="rgb(51, 91, 113)" d="M 74.09,102.65 C 75.09,100.97 75.99,99.23 76.68,97.41 77.28,95.49 78.71,93.97 80.05,92.57 80.38,92.22 80.72,91.86 81.02,91.5 81.17,91.33 81.31,91.13 81.36,90.99 81.47,90.71 81.63,90.48 81.77,90.27 82.38,89.45 83.08,88.75 83.85,88.1 84.24,87.79 84.65,87.49 85.1,87.24 85.55,87 86.01,86.72 86.64,86.77 86.79,86.78 86.95,86.84 87.09,86.94 87.18,87.01 87.3,87.12 87.39,87.22 87.57,87.43 87.7,87.68 87.75,87.95 87.85,88.48 87.72,89 87.48,89.44 L 87.42,89.41 C 87.56,88.95 87.6,88.45 87.44,88.03 87.37,87.82 87.25,87.64 87.09,87.49 87.01,87.42 86.94,87.37 86.83,87.3 86.77,87.28 86.69,87.24 86.6,87.25 86.23,87.26 85.79,87.5 85.41,87.75 85.02,88.01 84.65,88.31 84.3,88.63 83.59,89.26 82.91,89.96 82.33,90.69 82.18,90.87 82.05,91.05 81.97,91.22 81.84,91.53 81.66,91.72 81.5,91.91 81.15,92.29 80.79,92.62 80.44,92.97 79.05,94.32 77.65,95.71 77,97.54 76.22,99.35 75.23,101.05 74.15,102.69 L 74.09,102.65 Z M 74.09,102.65" />
            <path id="mel09Canvas-bezier75" stroke="none" fill="rgb(51, 91, 113)" d="M 78.08,101.69 C 78.73,100.33 79.46,99 80.31,97.74 80.75,97.12 81.23,96.51 81.76,95.97 82.26,95.43 82.73,94.84 83.2,94.25 84.13,93.07 84.92,91.8 86.02,90.68 86.16,90.55 86.31,90.41 86.49,90.29 L 86.98,89.97 C 87.31,89.78 87.66,89.55 88.11,89.49 88.34,89.45 88.61,89.5 88.81,89.65 89.01,89.79 89.12,89.99 89.2,90.18 89.33,90.57 89.36,90.96 89.35,91.34 L 89.28,91.35 C 89.18,90.98 89.09,90.61 88.91,90.32 88.73,90 88.49,89.87 88.2,89.97 87.91,90.06 87.61,90.25 87.32,90.47 L 86.88,90.81 C 86.76,90.91 86.64,91.04 86.52,91.17 85.56,92.26 84.62,93.47 83.63,94.61 83.13,95.18 82.63,95.75 82.08,96.29 81.53,96.8 81.05,97.36 80.59,97.95 79.68,99.13 78.87,100.41 78.14,101.73 L 78.08,101.69 Z M 78.08,101.69" />
            <path id="mel09Canvas-bezier76" stroke="none" fill="rgb(51, 91, 113)" d="M 89.01,92.13 C 88.75,92.82 88.45,93.5 88.1,94.16 87.92,94.49 87.78,94.85 87.51,95.12 87.24,95.39 86.92,95.65 86.5,95.74 L 86.45,95.68 C 86.61,95.31 86.77,95 86.95,94.7 87.13,94.39 87.41,94.15 87.63,93.86 88.08,93.29 88.51,92.69 88.94,92.09 L 89.01,92.13 Z M 89.01,92.13" />
            <path id="mel09Canvas-bezier77" stroke="none" fill="rgb(51, 91, 113)" d="M 82.99,100.73 C 83.43,99.91 83.87,99.08 84.37,98.28 84.62,97.88 84.88,97.49 85.17,97.11 85.47,96.73 85.75,96.35 86.22,96.04 86.34,95.97 86.48,95.89 86.7,95.89 86.84,95.9 86.84,95.91 86.91,95.92 86.96,95.92 87.05,95.95 87.12,95.96 87.39,96.03 87.69,96.19 87.88,96.5 88.06,96.82 88.03,97.18 87.95,97.45 87.86,97.73 87.72,97.95 87.57,98.16 87.25,98.55 86.99,98.86 86.72,99.25 86.46,99.62 86.22,100.01 85.98,100.42 L 85.91,100.4 C 86.02,99.46 86.47,98.51 87,97.77 87.23,97.42 87.37,97.02 87.27,96.83 87.23,96.73 87.11,96.62 86.93,96.56 86.89,96.54 86.86,96.53 86.8,96.51 86.76,96.5 86.65,96.47 86.67,96.48 86.65,96.47 86.57,96.49 86.49,96.53 86.15,96.71 85.82,97.06 85.52,97.39 85.22,97.74 84.93,98.1 84.65,98.47 84.09,99.21 83.57,99.99 83.05,100.77 L 82.99,100.73 Z M 82.99,100.73" />
            <path id="mel09Canvas-bezier78" stroke="none" fill="rgb(51, 91, 113)" d="M 75.41,83.08 C 75.64,84.54 75.84,85.99 75.99,87.46 76.07,88.19 76.2,88.92 76.18,89.66 76.15,90.4 76.12,91.15 75.82,91.88 L 75.76,91.86 C 75.67,91.13 75.54,90.41 75.48,89.69 75.4,88.96 75.45,88.23 75.44,87.49 L 75.34,83.09 75.41,83.08 Z M 75.41,83.08" />
            <path id="mel09Canvas-bezier79" stroke="none" fill="rgb(51, 91, 113)" d="M 74.92,81.67 C 74.55,80.32 74.31,78.94 74.22,77.54 74.16,76.13 74.23,74.69 74.74,73.32 74.87,72.98 75.03,72.64 75.22,72.33 75.43,72.02 75.62,71.75 75.79,71.46 76.15,70.88 76.48,70.29 76.77,69.68 77.37,68.46 77.8,67.16 78.08,65.79 L 78.15,65.79 C 78.25,67.2 77.95,68.64 77.41,69.96 77.13,70.62 76.78,71.25 76.37,71.84 76.17,72.13 75.94,72.42 75.74,72.68 75.55,72.94 75.39,73.23 75.25,73.53 74.72,74.76 74.57,76.15 74.57,77.52 74.57,78.9 74.71,80.29 74.99,81.65 L 74.92,81.67 Z M 74.92,81.67" />
            <path id="mel09Canvas-bezier80" stroke="none" fill="rgb(51, 91, 113)" d="M 19.88,133.95 C 20,138.54 19.96,143.13 19.58,147.72 19.37,150.01 19.18,152.32 18.42,154.56 18.21,155.11 17.97,155.66 17.61,156.17 17.24,156.64 16.92,157.07 16.64,157.55 16.37,158.02 16.15,158.55 16.21,159.06 16.25,159.57 16.74,159.97 17.28,160.1 L 17.27,160.17 C 16.7,160.14 16.05,159.77 15.89,159.12 15.75,158.48 15.97,157.87 16.2,157.33 16.44,156.79 16.8,156.28 17.11,155.83 17.4,155.39 17.59,154.86 17.76,154.33 18.39,152.2 18.75,149.92 19.03,147.66 19.29,145.39 19.45,143.11 19.57,140.82 19.7,138.53 19.78,136.24 19.81,133.95 L 19.88,133.95 Z M 19.88,133.95" />
            <path id="mel09Canvas-bezier81" stroke="none" fill="rgb(51, 91, 113)" d="M 17.97,160.13 C 18.08,160.87 18.05,161.63 17.82,162.34 17.7,162.7 17.52,163.04 17.28,163.33 17.16,163.47 17.01,163.6 16.88,163.72 16.76,163.82 16.81,164 16.91,164.14 17.32,164.72 17.98,165.11 18.6,165.49 19.24,165.85 19.9,166.17 20.58,166.46 23.3,167.61 26.17,168.36 29.06,168.94 34.85,170.07 40.78,170.42 46.68,170.31 49.63,170.24 52.58,170.06 55.51,169.77 58.45,169.5 61.38,169.13 64.26,168.55 65.7,168.28 67.14,167.94 68.53,167.5 69.92,167.05 71.28,166.49 72.47,165.67 73.06,165.26 73.59,164.78 73.98,164.19 74.37,163.6 74.59,162.91 74.63,162.19 74.68,161.48 74.54,160.75 74.46,160.01 74.44,159.65 74.4,159.21 74.7,158.9 75.01,158.62 75.43,158.62 75.79,158.62 L 75.79,158.69 C 75.43,158.7 75.03,158.74 74.8,158.99 74.57,159.24 74.61,159.64 74.66,159.99 74.77,160.7 74.96,161.44 74.95,162.21 74.94,162.97 74.73,163.74 74.32,164.4 73.92,165.06 73.36,165.61 72.76,166.07 71.53,166.99 70.13,167.57 68.72,168.07 67.31,168.55 65.86,168.92 64.4,169.24 58.55,170.38 52.62,170.8 46.69,170.86 40.76,170.91 34.8,170.49 28.99,169.28 26.09,168.66 23.22,167.85 20.5,166.65 19.82,166.35 19.15,166.02 18.51,165.64 17.89,165.24 17.23,164.86 16.79,164.21 16.69,164.07 16.6,163.79 16.79,163.63 16.94,163.5 17.07,163.39 17.19,163.25 17.42,162.98 17.6,162.66 17.72,162.31 17.96,161.62 18,160.87 17.9,160.14 L 17.97,160.13 Z M 17.97,160.13" />
            <path id="mel09Canvas-bezier82" stroke="none" fill="rgb(51, 91, 113)" d="M 73.4,166.56 C 75.65,164.51 78.05,162.62 80.64,160.99 81.93,160.18 83.26,159.38 84.74,158.88 85.48,158.65 86.23,158.44 87.02,158.36 87.79,158.29 88.6,158.33 89.32,158.62 L 89.31,158.69 C 87.8,158.52 86.35,158.97 84.98,159.53 83.61,160.1 82.24,160.73 80.92,161.47 79.61,162.21 78.34,163.03 77.09,163.9 75.85,164.76 74.62,165.66 73.44,166.61 L 73.4,166.56 Z M 73.4,166.56" />
            <path id="mel09Canvas-bezier83" stroke="none" fill="rgb(51, 91, 113)" d="M 91.14,160.79 C 91.52,160.73 91.76,160.35 91.81,159.98 91.87,159.6 91.82,159.21 91.74,158.83 91.57,158.06 91.25,157.34 90.92,156.62 90.31,155.15 89.84,153.64 89.37,152.13 88.46,149.1 87.65,146.05 86.9,142.97 86.17,139.9 85.41,136.82 85.08,133.64 85.04,133.24 85.02,132.84 85.02,132.43 85.02,132.03 85.02,131.65 85.01,131.26 84.98,130.49 84.89,129.71 84.78,128.94 84.55,127.39 84.19,125.86 83.68,124.36 L 83.75,124.34 C 84.44,125.77 84.92,127.29 85.26,128.85 85.43,129.63 85.54,130.43 85.61,131.23 85.64,131.62 85.65,132.04 85.67,132.42 85.68,132.8 85.72,133.19 85.77,133.57 86.18,136.66 86.79,139.77 87.45,142.85 88.13,145.93 88.87,149 89.71,152.04 90.13,153.55 90.56,155.08 91.12,156.54 91.42,157.27 91.72,158.01 91.87,158.8 91.95,159.19 91.99,159.6 91.91,160 91.85,160.39 91.58,160.81 91.14,160.86 L 91.14,160.79 Z M 91.14,160.79" />
            <path id="mel09Canvas-bezier84" stroke="none" fill="rgb(51, 91, 113)" d="M 21.05,54.73 C 21.12,54.7 21.19,54.8 21.17,54.85 21.17,54.89 21.16,54.94 21.14,54.98 21.12,55.06 21.08,55.13 21.04,55.21 20.97,55.36 20.89,55.5 20.8,55.64 20.63,55.91 20.44,56.18 20.25,56.45 19.86,56.96 19.49,57.48 19,57.97 18.76,58.21 18.49,58.43 18.16,58.61 17.83,58.78 17.42,58.88 17.04,58.81 16.25,58.68 15.86,58.18 15.21,58.21 L 15.18,58.14 C 15.47,57.93 15.89,57.91 16.22,57.98 16.55,58.03 16.85,58.11 17.11,58.11 17.61,58.13 18.14,57.94 18.63,57.55 19.1,57.18 19.55,56.68 19.98,56.22 20.21,55.99 20.42,55.76 20.63,55.51 20.73,55.39 20.83,55.27 20.92,55.14 20.97,55.07 21.01,55.01 21.05,54.94 21.08,54.87 21.1,54.79 21.07,54.8 L 21.05,54.73 Z M 21.05,54.73" />
            <path id="mel09Canvas-bezier85" stroke="none" fill="rgb(51, 91, 113)" d="M 17.26,57.39 C 16.45,57.39 15.64,57.44 14.84,57.57 14.44,57.63 14.05,57.72 13.68,57.87 13.5,57.94 13.32,58.03 13.18,58.15 13.11,58.22 13.04,58.28 13,58.36 12.95,58.43 12.96,58.51 12.88,58.64 12.58,59.02 12.19,59.16 11.82,59.34 11.44,59.51 11.06,59.65 10.68,59.79 L 8.38,60.6 C 7.62,60.88 6.85,61.16 6.18,61.56 5.86,61.75 5.51,62.04 5.54,62.27 5.55,62.32 5.57,62.38 5.61,62.44 5.63,62.47 5.66,62.5 5.69,62.53 5.75,62.61 5.76,62.61 5.8,62.68 5.94,62.95 5.96,63.15 5.99,63.37 6.04,64.24 5.89,65.05 5.76,65.86 5.61,66.66 5.43,67.46 5.23,68.25 4.46,71.42 3.56,74.54 2.59,77.64 2.09,79.18 1.61,80.73 1.15,82.29 0.91,83.06 0.69,83.84 0.49,84.62 0.3,85.4 0.1,86.2 0.09,87 L 0.02,87.01 C -0.1,85.35 0.34,83.75 0.68,82.16 1.05,80.57 1.49,79.01 1.92,77.44 2.8,74.31 3.85,71.24 4.69,68.11 4.9,67.33 5.1,66.55 5.26,65.76 5.41,64.98 5.56,64.17 5.53,63.41 5.52,63.23 5.48,63.02 5.43,62.93 5.43,62.91 5.37,62.83 5.37,62.83 5.33,62.78 5.29,62.74 5.25,62.68 5.18,62.57 5.12,62.44 5.12,62.29 5.1,61.98 5.28,61.75 5.44,61.6 5.61,61.44 5.79,61.32 5.98,61.21 6.72,60.8 7.49,60.54 8.26,60.27 L 10.59,59.53 C 10.97,59.4 11.35,59.27 11.72,59.12 12.08,58.96 12.49,58.79 12.7,58.52 12.74,58.49 12.76,58.35 12.83,58.25 12.89,58.15 12.97,58.07 13.06,58 13.23,57.87 13.42,57.78 13.62,57.7 14.01,57.56 14.41,57.48 14.82,57.43 15.63,57.32 16.45,57.3 17.26,57.32 L 17.26,57.39 Z M 17.26,57.39" />
            <path id="mel09Canvas-bezier86" stroke="none" fill="rgb(51, 91, 113)" d="M 1.8,85.86 C 2.41,84.16 4.04,82.95 5.81,82.58 7.59,82.2 9.43,82.45 11.16,82.92 12.89,83.39 14.57,84.14 16.01,85.24 16.72,85.79 17.4,86.39 18,87.07 18.29,87.41 18.57,87.76 18.83,88.12 18.96,88.31 19.08,88.5 19.19,88.69 19.3,88.9 19.43,89.05 19.46,89.34 L 19.39,89.31 C 19.2,88.99 18.88,88.63 18.59,88.32 18.29,88 17.98,87.7 17.65,87.41 17,86.83 16.33,86.28 15.61,85.8 14.18,84.83 12.66,83.98 11,83.45 9.35,82.94 7.59,82.63 5.88,82.92 4.19,83.18 2.56,84.25 1.87,85.88 L 1.8,85.86 Z M 1.8,85.86" />
            <path id="mel09Canvas-bezier87" stroke="none" fill="rgb(51, 91, 113)" d="M 10.28,65.78 C 11.06,67.63 11.89,69.47 12.79,71.26 13.24,72.15 13.7,73.04 14.22,73.89 14.48,74.31 14.76,74.74 15.05,75.1 15.36,75.45 15.76,75.73 16.17,76.02 17.81,77.15 19.55,78.27 20.95,79.78 22.34,81.27 23.5,83.06 23.98,85.04 L 23.91,85.07 C 23.06,83.24 21.88,81.63 20.45,80.27 19.04,78.88 17.46,77.68 15.84,76.47 15.44,76.16 15.02,75.85 14.67,75.43 14.34,74.99 14.08,74.57 13.83,74.12 13.33,73.23 12.89,72.32 12.47,71.41 11.65,69.56 10.91,67.69 10.21,65.8 L 10.28,65.78 Z M 10.28,65.78" />
            <path id="mel09Canvas-bezier88" stroke="none" fill="rgb(51, 91, 113)" d="M 21.09,86.5 C 20.87,87.65 20.76,88.82 20.71,89.98 20.65,91.15 20.67,92.31 20.78,93.47 20.9,94.62 21.15,95.75 21.39,96.87 21.64,97.99 21.98,99.09 22.39,100.2 L 22.33,100.24 C 21.58,99.3 21.07,98.19 20.72,97.05 20.37,95.9 20.27,94.69 20.22,93.51 20.13,91.13 20.41,88.76 21.03,86.48 L 21.09,86.5 Z M 21.09,86.5" />
            <path id="mel09Canvas-bezier89" stroke="none" fill="rgb(51, 91, 113)" d="M 1.87,87 C 2.14,90.34 2.5,93.67 2.93,97 3.34,100.32 3.83,103.63 4.41,106.93 5,110.22 5.72,113.49 6.51,116.73 7.3,119.97 8.23,123.19 9.65,126.22 L 9.59,126.25 C 7.8,123.39 6.75,120.13 5.83,116.91 4.95,113.65 4.38,110.34 3.86,107.02 2.83,100.39 2.17,93.7 1.8,87.01 L 1.87,87 Z M 1.87,87" />
            <path id="mel09Canvas-bezier90" stroke="none" fill="rgb(51, 91, 113)" d="M 10.28,126.91 C 10.41,127.61 10.78,128.25 11.28,128.73 11.77,129.21 12.39,129.54 13.05,129.74 13.72,129.93 14.42,129.95 15.11,130.03 15.81,130.1 16.52,130.13 17.26,130.23 L 17.27,130.3 C 16.57,130.58 15.83,130.71 15.08,130.72 14.33,130.74 13.58,130.54 12.87,130.26 12.16,129.98 11.51,129.55 11.02,128.96 10.55,128.37 10.25,127.65 10.21,126.91 L 10.28,126.91 Z M 10.28,126.91" />
            <path id="mel09Canvas-bezier91" stroke="none" fill="rgb(51, 91, 113)" d="M 18.67,130.35 C 20.88,131.03 23.18,131.4 25.47,131.67 27.77,131.94 30.08,132.06 32.39,132.08 37.02,132.12 41.64,131.73 46.21,131.02 50.78,130.31 55.28,129.23 59.73,128.02 64.2,126.82 68.59,125.35 72.96,123.8 L 72.98,123.87 C 68.76,125.78 64.38,127.36 59.92,128.68 55.46,130 50.89,130.93 46.29,131.57 41.69,132.22 37.04,132.54 32.39,132.42 30.07,132.36 27.75,132.19 25.45,131.88 23.15,131.56 20.85,131.14 18.65,130.42 L 18.67,130.35 Z M 18.67,130.35" />
            <path id="mel09Canvas-bezier92" stroke="none" fill="rgb(51, 91, 113)" d="M 57.23,38.72 C 56.49,39.92 55.85,41.19 55.32,42.49 54.77,43.79 54.33,45.13 54.1,46.5 53.88,47.87 53.91,49.27 54.26,50.55 54.44,51.2 54.73,51.81 55.12,52.37 55.51,52.93 56,53.42 56.55,53.87 L 56.51,53.93 C 55.19,53.37 54.08,52.19 53.6,50.76 53.11,49.33 53.25,47.8 53.56,46.4 53.86,44.98 54.38,43.64 55,42.35 55.63,41.07 56.35,39.84 57.18,38.68 L 57.23,38.72 Z M 57.23,38.72" />
            <path id="mel09Canvas-bezier93" stroke="none" fill="rgb(51, 91, 113)" d="M 57.23,40.97 C 56.77,41.39 56.34,41.84 55.99,42.34 55.83,42.59 55.68,42.87 55.65,43.13 55.62,43.4 55.79,43.56 56.06,43.64 56.33,43.74 56.6,43.7 56.97,43.78 57.14,43.83 57.36,43.9 57.48,44.14 57.6,44.38 57.53,44.6 57.48,44.77 57.2,45.42 56.78,45.87 56.46,46.39 56.3,46.64 56.15,46.9 56.1,47.13 56.07,47.37 56.1,47.4 56.3,47.5 56.52,47.6 56.79,47.62 57.1,47.65 57.44,47.7 57.77,47.75 58.13,47.95 58.31,48.05 58.52,48.26 58.57,48.54 58.61,48.81 58.52,49.02 58.44,49.19 58.25,49.51 58.03,49.75 57.8,49.97 57.57,50.19 57.33,50.39 57.13,50.61 57.03,50.71 56.93,50.84 56.92,50.91 56.89,50.98 57.06,51.06 57.21,51.08 L 57.2,51.15 C 57.12,51.16 57.04,51.17 56.95,51.15 56.87,51.14 56.75,51.08 56.72,50.94 56.69,50.7 56.81,50.56 56.88,50.42 57.05,50.14 57.25,49.9 57.43,49.65 57.61,49.4 57.79,49.15 57.88,48.92 57.93,48.81 57.94,48.7 57.92,48.67 57.91,48.64 57.88,48.6 57.78,48.55 57.6,48.45 57.3,48.4 57.02,48.37 56.72,48.34 56.36,48.3 56.01,48.13 55.83,48.04 55.63,47.89 55.52,47.65 55.41,47.4 55.45,47.16 55.5,46.97 55.62,46.6 55.81,46.34 56,46.07 56.37,45.56 56.82,45.09 57.05,44.6 57.15,44.34 57.14,44.27 56.86,44.17 56.63,44.09 56.26,44.1 55.95,43.97 55.79,43.9 55.62,43.81 55.5,43.65 55.37,43.49 55.34,43.27 55.37,43.09 55.44,42.74 55.63,42.47 55.83,42.22 56.22,41.72 56.69,41.3 57.18,40.92 L 57.23,40.97 Z M 57.23,40.97" />
            <path id="mel09Canvas-bezier94" stroke="none" fill="rgb(51, 91, 113)" d="M 58.88,40.38 C 58.72,41.14 58.63,41.94 58.69,42.71 58.72,43.09 58.8,43.48 58.97,43.8 59.15,44.12 59.44,44.35 59.79,44.39 59.97,44.43 60.14,44.42 60.33,44.4 60.54,44.39 60.78,44.37 61.03,44.5 61.15,44.57 61.26,44.7 61.3,44.84 61.35,44.97 61.35,45.1 61.34,45.22 61.32,45.45 61.26,45.65 61.19,45.85 60.93,46.61 60.52,47.33 60.42,48.02 60.39,48.39 60.46,48.48 60.78,48.53 60.94,48.56 61.09,48.55 61.31,48.53 61.53,48.52 61.8,48.54 62.05,48.66 62.32,48.78 62.53,49.05 62.6,49.3 62.68,49.56 62.7,49.79 62.69,50.02 62.66,50.46 62.56,50.86 62.47,51.25 62.25,52.02 61.98,52.77 61.87,53.5 61.83,53.86 61.85,54.22 62.12,54.38 62.39,54.56 62.82,54.53 63.21,54.49 L 63.22,54.56 C 62.85,54.69 62.44,54.82 61.98,54.66 61.75,54.57 61.57,54.35 61.49,54.13 61.41,53.91 61.39,53.69 61.39,53.47 61.4,52.62 61.65,51.85 61.79,51.09 61.88,50.71 61.95,50.33 61.96,49.98 61.98,49.63 61.92,49.35 61.74,49.27 61.64,49.22 61.5,49.19 61.33,49.19 61.15,49.19 60.9,49.2 60.67,49.15 60.45,49.1 60.15,48.99 59.98,48.72 59.81,48.44 59.83,48.17 59.86,47.94 60.05,47.07 60.49,46.41 60.77,45.69 60.91,45.36 61,44.93 60.82,44.85 60.61,44.7 60.16,44.85 59.72,44.73 59.28,44.65 58.9,44.31 58.73,43.93 58.55,43.54 58.49,43.12 58.48,42.72 58.46,41.91 58.61,41.12 58.82,40.36 L 58.88,40.38 Z M 58.88,40.38" />
            <path id="mel09Canvas-bezier95" stroke="none" fill="rgb(51, 91, 113)" d="M 61.8,40.1 C 61.42,40.9 61.13,41.79 61.18,42.67 61.21,43.1 61.37,43.52 61.67,43.8 61.98,44.08 62.4,44.22 62.82,44.28 63.25,44.34 63.69,44.33 64.14,44.29 64.6,44.26 65.08,44.25 65.57,44.4 65.81,44.48 66.06,44.62 66.24,44.85 66.41,45.08 66.49,45.36 66.51,45.62 66.54,46.13 66.41,46.59 66.3,47.04 66.08,47.87 65.73,48.97 66.44,48.89 66.62,48.92 66.84,48.87 67.15,48.92 67.42,48.97 67.74,49.12 67.94,49.37 68.32,49.89 68.31,50.43 68.32,50.9 68.26,51.85 68.06,52.73 68,53.6 67.98,54.02 68,54.47 68.26,54.73 68.52,55 69.02,54.98 69.45,54.93 L 69.47,54.99 C 69.05,55.14 68.54,55.28 68.06,54.97 67.6,54.61 67.55,54.05 67.52,53.6 67.47,52.65 67.64,51.75 67.62,50.89 67.62,50.47 67.56,50.04 67.38,49.83 67.29,49.72 67.18,49.65 67.01,49.62 66.88,49.58 66.64,49.61 66.36,49.58 66.1,49.54 65.75,49.43 65.54,49.12 65.35,48.8 65.37,48.49 65.4,48.25 65.47,47.74 65.64,47.32 65.76,46.89 65.89,46.46 66.01,46.03 66,45.64 66,45.25 65.8,44.97 65.42,44.83 64.65,44.54 63.7,44.82 62.76,44.62 62.3,44.53 61.83,44.35 61.48,44 61.12,43.64 60.98,43.14 60.97,42.68 60.96,41.73 61.31,40.86 61.74,40.06 L 61.8,40.1 Z M 61.8,40.1" />
        </g>
    </g>
</svg>
