<?xml version="1.0" encoding="UTF-8"?>
<!DOCTYPE svg PUBLIC "-//W3C//DTD SVG 1.1//EN" "http://www.w3.org/Graphics/SVG/1.1/DTD/svg11.dtd">
<svg version="1.1" xmlns="http://www.w3.org/2000/svg" xmlns:xlink="http://www.w3.org/1999/xlink" width="138" height="378"  xml:space="preserve" id="mel07Canvas">
    <!-- Generated by PaintCode - http://www.paintcodeapp.com -->
    <g id="mel07Canvas-lines">
        <g id="mel07Canvas-group2">
            <path id="mel07Canvas-bezier" stroke="none" fill="rgb(51, 91, 113)" d="M 28.24,60.97 C 26.74,61.6 25.18,62.11 23.57,62.44 22.78,62.61 21.92,62.67 21.14,62.7 20.35,62.78 19.57,62.96 18.8,63.18 17.27,63.64 15.79,64.28 14.36,64.97 13.64,65.3 12.94,65.7 12.3,66.15 11.66,66.6 11.03,67.12 10.7,67.85 L 10.63,67.83 C 10.77,66.99 11.37,66.31 11.98,65.75 12.6,65.19 13.3,64.74 14.02,64.32 15.47,63.52 17.05,63.01 18.65,62.62 19.45,62.43 20.27,62.27 21.1,62.23 21.95,62.23 22.71,62.21 23.51,62.08 25.1,61.85 26.68,61.44 28.21,60.9 L 28.24,60.97 Z M 28.24,60.97" />
            <path id="mel07Canvas-bezier2" stroke="none" fill="rgb(51, 91, 113)" d="M 15.12,63.43 C 13.04,64.22 11.21,65.55 9.61,67.06 8.01,68.59 6.66,70.36 5.57,72.27 4.48,74.19 3.68,76.25 2.97,78.33 2.25,80.42 1.74,82.57 1.24,84.75 L 1.17,84.74 C 1.25,82.5 1.67,80.28 2.28,78.11 2.91,75.95 3.88,73.89 5.07,71.97 6.25,70.05 7.68,68.29 9.37,66.8 11.06,65.32 12.97,64.07 15.1,63.36 L 15.12,63.43 Z M 15.12,63.43" />
            <path id="mel07Canvas-bezier3" stroke="none" fill="rgb(51, 91, 113)" d="M 1.2,86.54 C 3.11,85.74 5.11,85.12 7.17,84.76 8.21,84.58 9.27,84.42 10.34,84.56 11.39,84.7 12.53,85.08 13.2,85.95 L 13.15,86 C 12.25,85.48 11.27,85.34 10.28,85.29 9.29,85.25 8.27,85.24 7.25,85.34 6.24,85.44 5.22,85.62 4.22,85.84 3.21,86.05 2.21,86.3 1.22,86.61 L 1.2,86.54 Z M 1.2,86.54" />
            <path id="mel07Canvas-bezier4" stroke="none" fill="rgb(51, 91, 113)" d="M 16.53,80.37 C 15.48,82.47 14.66,84.68 14.03,86.93 13.4,89.19 12.97,91.5 12.82,93.83 12.67,96.16 12.8,98.51 13.34,100.77 13.61,101.9 13.97,103 14.44,104.06 14.92,105.11 15.47,106.17 15.92,107.26 16.84,109.43 17.67,111.7 17.76,114.15 17.8,115.37 17.55,116.65 16.94,117.73 16.64,118.27 16.27,118.76 15.95,119.23 15.63,119.72 15.36,120.13 15.44,120.6 15.49,121.08 15.75,121.6 16.03,122.08 16.32,122.58 16.65,123.06 16.98,123.54 17.64,124.51 18.32,125.48 18.91,126.51 19.51,127.53 20.06,128.58 20.52,129.67 20.98,130.76 21.36,131.88 21.67,133.01 L 21.6,133.03 C 20.82,130.82 19.75,128.73 18.48,126.78 17.83,125.81 17.16,124.85 16.46,123.91 16.12,123.43 15.77,122.95 15.45,122.44 15.14,121.92 14.82,121.38 14.72,120.69 14.67,120.35 14.72,119.95 14.86,119.64 15.01,119.32 15.16,119.07 15.33,118.81 15.67,118.31 16.01,117.85 16.27,117.36 16.82,116.4 17.06,115.29 17.04,114.16 17,111.89 16.25,109.64 15.38,107.49 14.95,106.4 14.43,105.37 13.95,104.27 13.49,103.18 13.13,102.03 12.88,100.87 12.36,98.55 12.27,96.16 12.46,93.8 12.66,91.45 13.14,89.13 13.82,86.87 14.5,84.62 15.37,82.42 16.46,80.34 L 16.53,80.37 Z M 16.53,80.37" />
            <path id="mel07Canvas-bezier5" stroke="none" fill="rgb(51, 91, 113)" d="M 18.45,128.78 C 17.7,130.72 17.67,132.96 18.55,134.81 18.97,135.74 19.68,136.52 20.3,137.36 L 22.2,139.87 C 23.45,141.56 24.71,143.26 25.7,145.14 26.17,146.09 26.64,147.06 26.9,148.11 27.02,148.64 27.12,149.19 27.05,149.75 27,150.03 26.91,150.3 26.75,150.54 26.58,150.77 26.35,150.94 26.1,151.03 L 26.06,150.97 C 26.52,150.69 26.73,150.21 26.71,149.72 26.72,149.23 26.58,148.74 26.41,148.26 26.07,147.3 25.59,146.39 25.06,145.5 24.02,143.71 22.91,141.94 21.73,140.21 L 19.92,137.65 C 19.33,136.79 18.64,135.97 18.22,134.96 17.38,132.96 17.54,130.67 18.39,128.75 L 18.45,128.78 Z M 18.45,128.78" />
            <path id="mel07Canvas-bezier6" stroke="none" fill="rgb(51, 91, 113)" d="M 17.38,160.17 C 17.33,162.06 17.19,163.96 16.82,165.83 16.72,166.29 16.6,166.75 16.44,167.2 16.36,167.43 16.26,167.65 16.14,167.87 16.02,168.09 15.79,168.25 15.73,168.43 15.58,168.84 15.71,169.32 15.89,169.73 16.08,170.15 16.34,170.54 16.63,170.91 17.82,172.36 19.39,173.45 21.03,174.37 22.68,175.27 24.43,175.99 26.22,176.58 29.81,177.75 33.54,178.42 37.3,178.8 39.17,178.98 41.06,179.11 42.94,179.14 44.82,179.15 46.69,178.97 48.54,178.63 52.23,177.96 55.8,176.66 59.2,175.05 62.61,173.45 65.87,171.54 69.05,169.51 72.26,167.52 75.38,165.36 78.65,163.42 80.28,162.46 81.95,161.52 83.75,160.85 84.65,160.53 85.59,160.27 86.55,160.23 87.51,160.18 88.51,160.41 89.27,161 L 89.23,161.06 C 88.45,160.52 87.49,160.35 86.56,160.43 85.63,160.52 84.73,160.81 83.87,161.16 82.13,161.87 80.51,162.85 78.91,163.85 75.73,165.88 72.63,168.06 69.44,170.12 66.24,172.16 62.95,174.09 59.5,175.7 56.04,177.29 52.41,178.57 48.64,179.21 46.76,179.53 44.85,179.69 42.93,179.67 41.02,179.62 39.14,179.47 37.25,179.27 33.47,178.85 29.71,178.14 26.11,176.92 24.31,176.31 22.55,175.56 20.89,174.62 19.24,173.67 17.66,172.55 16.46,171.04 16.17,170.66 15.9,170.26 15.71,169.81 15.53,169.37 15.38,168.86 15.57,168.36 16.23,167.62 16.46,166.72 16.68,165.79 17.07,163.95 17.23,162.05 17.31,160.17 L 17.38,160.17 Z M 17.38,160.17" />
            <path id="mel07Canvas-bezier7" stroke="none" fill="rgb(51, 91, 113)" d="M 19.14,138.81 C 18.78,139.72 18.44,140.64 18.11,141.56 17.95,142.02 17.85,142.5 17.63,142.93 17.4,143.37 17.17,143.79 16.82,144.19 L 16.75,144.17 C 16.72,143.64 16.81,143.15 16.95,142.67 17.08,142.19 17.35,141.77 17.58,141.33 18.03,140.45 18.53,139.59 19.08,138.78 L 19.14,138.81 Z M 19.14,138.81" />
            <path id="mel07Canvas-bezier8" stroke="none" fill="rgb(51, 91, 113)" d="M 91.06,160.15 C 89,158.31 87.17,156.21 85.52,153.99 84.69,152.88 83.87,151.76 83.21,150.53 82.56,149.31 81.98,148.04 81.58,146.7 L 81.65,146.67 C 82.41,147.84 83.11,149.01 83.84,150.17 84.57,151.32 85.24,152.51 86,153.66 86.75,154.8 87.56,155.91 88.41,156.98 89.26,158.06 90.15,159.12 91.11,160.1 L 91.06,160.15 Z M 91.06,160.15" />
            <path id="mel07Canvas-bezier9" stroke="none" fill="rgb(51, 91, 113)" d="M 84.31,150.99 C 84.77,149.39 85.09,147.73 85.16,146.07 85.22,144.42 85.01,142.71 83.86,141.44 82.96,139.99 82.34,138.42 81.73,136.86 81.14,135.29 80.6,133.7 80.09,132.1 79.08,128.9 78.11,125.7 77.39,122.41 77.07,120.72 76.98,119.01 77.15,117.32 77.22,116.48 77.36,115.65 77.41,114.83 77.44,114.42 77.43,114.01 77.33,113.62 77.23,113.24 77,112.89 76.69,112.62 L 76.74,112.56 C 77.09,112.8 77.38,113.15 77.54,113.56 77.69,113.97 77.73,114.41 77.74,114.84 77.75,115.69 77.67,116.52 77.66,117.35 77.6,119.01 77.73,120.66 78.1,122.25 78.91,125.48 79.72,128.73 80.65,131.93 81.12,133.53 81.62,135.13 82.18,136.7 82.75,138.26 83.33,139.84 84.17,141.25 84.37,141.59 84.66,141.92 84.85,142.32 85.04,142.71 85.16,143.13 85.25,143.55 85.42,144.39 85.43,145.24 85.38,146.08 85.26,147.76 84.89,149.41 84.38,151.01 L 84.31,150.99 Z M 84.31,150.99" />
            <path id="mel07Canvas-bezier10" stroke="none" fill="rgb(51, 91, 113)" d="M 0.06,119.76 C 2.83,123.29 5.5,126.89 8.04,130.59 9.31,132.44 10.59,134.3 11.67,136.27 12.2,137.27 12.72,138.27 13.16,139.32 13.56,140.36 14.02,141.45 13.96,142.61 L 13.89,142.61 C 13.83,142.06 13.64,141.54 13.42,141.03 13.2,140.52 12.96,140.02 12.7,139.53 12.17,138.55 11.63,137.59 11.04,136.64 9.89,134.73 8.75,132.8 7.55,130.92 6.35,129.03 5.1,127.17 3.84,125.32 2.59,123.47 1.31,121.62 0.01,119.8 L 0.06,119.76 Z M 0.06,119.76" />
            <path id="mel07Canvas-bezier11" stroke="none" fill="rgb(51, 91, 113)" d="M 14.1,172.95 C 13.38,177.95 12.86,182.98 12.44,188.02 12.01,193.05 11.71,198.09 11.54,203.14 11.37,208.19 11.38,213.24 11.42,218.28 11.45,223.33 11.65,228.38 11.93,233.42 L 11.86,233.43 C 11.17,228.42 10.85,223.36 10.69,218.3 10.55,213.23 10.71,208.17 10.95,203.12 11.2,198.06 11.58,193.02 12.08,187.98 12.6,182.95 13.21,177.93 14.03,172.94 L 14.1,172.95 Z M 14.1,172.95" />
            <path id="mel07Canvas-bezier12" stroke="none" fill="rgb(51, 91, 113)" d="M 12.57,234.93 C 13.33,237.41 13.95,239.94 14.22,242.53 14.33,243.82 14.41,245.16 13.96,246.44 13.83,246.76 13.66,247.06 13.41,247.31 L 13.23,247.47 C 13.21,247.48 13.21,247.51 13.21,247.48 13.21,247.41 13.17,247.39 13.2,247.41 13.28,247.44 13.46,247.45 13.61,247.45 14.23,247.44 14.88,247.37 15.52,247.29 20.64,246.6 25.75,245.68 30.88,244.91 36,244.13 41.13,243.36 46.31,242.93 48.9,242.74 51.49,242.58 54.09,242.58 56.69,242.58 59.31,242.69 61.85,243.23 L 61.84,243.3 C 60.56,243.12 59.27,243.05 57.98,243.04 56.69,243.01 55.4,243.03 54.1,243.09 51.52,243.2 48.95,243.39 46.38,243.66 41.23,244.18 36.09,244.78 30.96,245.49 25.83,246.19 20.72,247.04 15.56,247.65 14.91,247.72 14.27,247.79 13.6,247.78 13.43,247.77 13.27,247.78 13.06,247.69 13.01,247.68 12.89,247.6 12.9,247.45 12.92,247.33 12.97,247.29 13.01,247.25 L 13.19,247.09 C 13.41,246.88 13.57,246.62 13.69,246.33 14.13,245.16 14.09,243.83 14,242.55 13.78,239.98 13.21,237.44 12.5,234.95 L 12.57,234.93 Z M 12.57,234.93" />
            <path id="mel07Canvas-bezier13" stroke="none" fill="rgb(51, 91, 113)" d="M 64.09,243.23 C 65.53,243.07 66.95,242.85 68.36,242.59 69.77,242.33 71.18,242.03 72.56,241.64 73.93,241.25 75.27,240.76 76.56,240.21 77.84,239.65 79.13,239.01 79.95,237.83 L 80.02,237.86 C 79.79,238.57 79.29,239.17 78.73,239.66 78.17,240.15 77.53,240.54 76.87,240.87 75.54,241.54 74.11,241.89 72.7,242.21 69.86,242.84 66.98,243.18 64.1,243.3 L 64.09,243.23 Z M 64.09,243.23" />
            <path id="mel07Canvas-bezier14" stroke="none" fill="rgb(51, 91, 113)" d="M 79.15,236.74 C 79.61,230.64 80.3,224.56 81.19,218.51 81.64,215.48 82.16,212.47 82.75,209.47 83.32,206.45 84.11,203.5 84.61,200.5 85.13,197.49 85.51,194.47 85.79,191.43 86.09,188.4 86.28,185.36 86.37,182.31 86.5,179.26 86.51,176.21 86.41,173.17 86.36,171.64 86.28,170.12 86.13,168.61 85.99,167.09 85.81,165.57 85.42,164.1 L 85.49,164.07 C 86.4,167.01 86.69,170.09 86.92,173.14 87.13,176.2 87.15,179.27 87.1,182.33 87.01,185.39 86.81,188.45 86.51,191.5 86.19,194.55 85.76,197.59 85.19,200.6 84.64,203.63 83.82,206.58 83.22,209.56 82.59,212.55 82.04,215.55 81.55,218.57 80.56,224.59 79.78,230.66 79.22,236.74 L 79.15,236.74 Z M 79.15,236.74" />
            <path id="mel07Canvas-bezier15" stroke="none" fill="rgb(51, 91, 113)" d="M 42.67,244.66 C 42.37,247.94 41.91,251.21 41.24,254.45 40.9,256.07 40.56,257.7 39.96,259.26 39.64,260.03 39.31,260.81 38.88,261.53 38.45,262.24 37.94,262.96 37.22,263.41 L 37.17,263.36 C 37.73,262.76 38.1,262.03 38.43,261.3 38.75,260.56 39.03,259.8 39.27,259.02 39.76,257.47 40.26,255.91 40.67,254.32 41.07,252.73 41.42,251.12 41.73,249.51 42.06,247.9 42.35,246.28 42.59,244.65 L 42.67,244.66 Z M 42.67,244.66" />
            <path id="mel07Canvas-bezier16" stroke="none" fill="rgb(51, 91, 113)" d="M 36.02,262.55 C 36.38,265.42 36.34,268.33 35.91,271.21 35.69,272.64 35.41,274.09 34.86,275.45 34.31,276.81 33.59,278.11 32.61,279.19 L 32.55,279.15 C 33.19,277.85 33.74,276.55 34.18,275.2 34.62,273.86 35.05,272.51 35.33,271.11 35.62,269.71 35.8,268.29 35.9,266.86 36,265.43 36.04,263.99 35.95,262.56 L 36.02,262.55 Z M 36.02,262.55" />
            <path id="mel07Canvas-bezier17" stroke="none" fill="rgb(51, 91, 113)" d="M 33.29,281.87 C 33.09,287.73 32.9,293.59 32.78,299.45 32.81,300.92 32.56,302.41 32.26,303.84 31.96,305.28 31.61,306.71 31.23,308.13 30.48,310.96 29.66,313.78 28.85,316.59 28.05,319.41 27.25,322.23 26.58,325.07 26.24,326.49 25.93,327.92 25.77,329.34 25.68,330.05 25.7,330.75 25.72,331.48 25.75,332.21 25.8,332.94 25.86,333.66 26.06,336.57 26.42,339.48 26.73,342.4 26.88,343.85 27.03,345.31 27.16,346.78 27.24,348.24 27.41,349.71 27.22,351.18 L 27.15,351.17 C 27.25,349.72 27,348.26 26.83,346.81 26.64,345.36 26.43,343.91 26.22,342.46 25.81,339.56 25.41,336.65 25.13,333.72 25.07,332.99 25.02,332.25 24.99,331.51 24.97,330.78 24.95,330.01 25.05,329.26 25.21,327.77 25.54,326.33 25.88,324.9 26.59,322.05 27.44,319.24 28.29,316.43 29.13,313.62 29.99,310.82 30.77,308 31.16,306.59 31.54,305.18 31.85,303.75 32.16,302.32 32.42,300.91 32.42,299.44 32.63,293.58 32.92,287.72 33.22,281.87 L 33.29,281.87 Z M 33.29,281.87" />
            <path id="mel07Canvas-bezier18" stroke="none" fill="rgb(51, 91, 113)" d="M 16.29,249.61 C 16.25,252.6 16.23,255.59 16.25,258.58 16.26,260.07 16.34,261.56 16.32,263.05 16.3,264.54 16.26,266.02 16.29,267.52 L 16.21,267.53 C 15.79,266.07 15.68,264.56 15.59,263.06 15.51,261.56 15.6,260.06 15.66,258.57 15.78,255.58 15.97,252.59 16.22,249.61 L 16.29,249.61 Z M 16.29,249.61" />
            <path id="mel07Canvas-bezier19" stroke="none" fill="rgb(51, 91, 113)" d="M 16.13,270.08 C 16.09,273.48 15.78,276.89 14.92,280.19 14.49,281.85 13.78,283.4 13.22,285 12.63,286.59 12.11,288.2 11.69,289.83 9.96,296.39 9.92,303.28 10.88,309.96 11.35,313.3 12.15,316.6 12.83,319.93 13.5,323.26 14.18,326.59 14.81,329.93 15.39,333.27 15.96,336.63 16.31,340.02 16.62,343.4 16.82,346.87 15.97,350.19 L 15.9,350.18 C 16.25,348.52 16.3,346.82 16.24,345.13 16.19,343.44 16.02,341.76 15.8,340.08 15.36,336.72 14.75,333.39 14.09,330.06 13.47,326.73 12.79,323.4 12.12,320.08 11.49,316.75 10.73,313.43 10.3,310.04 9.4,303.29 9.53,296.33 11.34,289.74 11.78,288.1 12.33,286.48 12.94,284.89 13.54,283.3 14.26,281.76 14.71,280.13 15.61,276.87 15.97,273.47 16.06,270.08 L 16.13,270.08 16.13,270.08 Z M 16.13,270.08" />
            <path id="mel07Canvas-bezier20" stroke="none" fill="rgb(51, 91, 113)" d="M 50.78,243.27 C 50.79,246.06 50.9,248.85 51.09,251.63 51.26,254.42 51.52,257.19 51.89,259.95 52.27,262.71 52.79,265.45 53.4,268.15 54,270.86 54.77,273.53 55.99,276.04 L 55.93,276.08 C 54.33,273.75 53.42,271.03 52.69,268.33 51.98,265.6 51.61,262.81 51.31,260.03 50.72,254.45 50.54,248.85 50.7,243.27 L 50.78,243.27 Z M 50.78,243.27" />
            <path id="mel07Canvas-bezier21" stroke="none" fill="rgb(51, 91, 113)" d="M 56.42,279.17 C 56.7,281.97 56.89,284.78 56.94,287.6 56.96,289.01 56.94,290.43 56.83,291.84 56.77,292.54 56.68,293.25 56.53,293.94 56.41,294.61 56.42,295.32 56.43,296.01 56.54,298.81 56.93,301.6 57.31,304.39 L 58.54,312.74 C 58.96,315.53 59.37,318.31 59.69,321.12 59.85,322.53 59.99,323.93 60.03,325.36 60.06,326.07 60.03,326.8 60,327.49 L 59.92,329.6 C 59.79,332.41 59.7,335.23 59.48,338.05 59.36,339.45 59.23,340.86 59.02,342.26 58.8,343.65 58.55,345.06 57.99,346.37 L 57.92,346.34 C 58.4,345.02 58.55,343.61 58.69,342.22 58.83,340.82 58.91,339.42 58.97,338.02 59.08,335.21 59.14,332.4 59.19,329.58 59.21,328.17 59.32,326.75 59.27,325.38 59.23,323.99 59.12,322.59 58.98,321.2 58.7,318.4 58.33,315.61 57.96,312.82 L 56.84,304.45 C 56.49,301.65 56.14,298.85 56.07,296.02 56.06,295.31 56.07,294.6 56.2,293.88 56.36,293.19 56.46,292.51 56.53,291.81 56.68,290.42 56.71,289.01 56.72,287.61 56.72,284.79 56.58,281.98 56.35,279.18 L 56.42,279.17 Z M 56.42,279.17" />
            <path id="mel07Canvas-bezier22" stroke="none" fill="rgb(51, 91, 113)" d="M 76.87,241.29 C 76.21,244.56 75.5,247.83 74.71,251.08 74.32,252.71 73.95,254.35 73.43,255.94 72.88,257.52 72.35,259.13 71.47,260.58 L 71.4,260.55 C 71.89,258.95 72.31,257.34 72.73,255.73 73.16,254.12 73.67,252.54 74.14,250.93 75.05,247.72 75.93,244.5 76.8,241.27 L 76.87,241.29 Z M 76.87,241.29" />
            <path id="mel07Canvas-bezier23" stroke="none" fill="rgb(51, 91, 113)" d="M 74.17,259.29 C 74.18,262.45 74.15,265.6 74.07,268.76 74.04,270.33 74.04,271.91 73.89,273.49 73.73,275.06 73.58,276.64 73.18,278.18 L 73.1,278.17 C 73.09,276.59 73.13,275.02 73.17,273.44 73.21,271.87 73.37,270.3 73.49,268.73 L 74.1,259.29 74.17,259.29 Z M 74.17,259.29" />
            <path id="mel07Canvas-bezier24" stroke="none" fill="rgb(51, 91, 113)" d="M 74.17,278.17 C 75.38,284.02 76.33,289.93 76.83,295.9 76.94,297.39 77.03,298.88 77.04,300.38 77.04,301.9 76.89,303.39 76.7,304.88 76.31,307.85 75.76,310.79 75.2,313.73 L 73.47,322.52 C 72.88,325.44 72.29,328.37 71.77,331.31 71.22,334.24 70.73,337.18 70.36,340.13 70.17,341.61 70.03,343.09 69.94,344.58 69.84,346.06 69.81,347.55 69.91,349.04 L 69.84,349.05 C 69.47,346.08 69.59,343.06 69.85,340.08 70.12,337.09 70.57,334.13 71.06,331.18 71.58,328.23 72.16,325.3 72.76,322.37 L 74.63,313.61 C 75.78,307.77 77.14,301.89 76.46,295.92 76.07,289.97 75.21,284.05 74.1,278.18 L 74.17,278.17 Z M 74.17,278.17" />
            <path id="mel07Canvas-bezier25" stroke="none" fill="rgb(51, 91, 113)" d="M 25.68,357.03 C 25.54,356.45 25.44,355.85 25.25,355.3 25.06,354.75 24.69,354.31 24.19,354.05 23.18,353.55 21.96,353.42 20.81,353.29 19.66,353.18 18.51,353.37 17.75,354.07 17.36,354.41 17.08,354.89 16.83,355.42 16.58,355.93 16.43,356.53 16.05,357.04 L 15.99,357 C 16.08,356.72 16.13,356.43 16.17,356.14 16.22,355.84 16.28,355.55 16.35,355.24 16.5,354.65 16.77,354.04 17.24,353.55 17.71,353.06 18.36,352.75 19,352.66 19.64,352.56 20.29,352.62 20.88,352.71 21.48,352.81 22.07,352.92 22.66,353.07 23.24,353.23 23.83,353.41 24.38,353.74 24.92,354.06 25.32,354.64 25.46,355.24 25.61,355.83 25.66,356.42 25.75,357.01 L 25.68,357.03 Z M 25.68,357.03" />
            <path id="mel07Canvas-bezier26" stroke="none" fill="rgb(51, 91, 113)" d="M 16.02,358.83 L 25.73,360.06 C 25.81,360.07 25.86,360.14 25.85,360.22 25.84,360.27 25.8,360.32 25.74,360.33 L 16.07,362.63 16.02,362.18 25.1,362.11 C 25.26,362.11 25.4,362.24 25.4,362.41 25.4,362.55 25.31,362.67 25.18,362.7 L 25.17,362.7 16.12,365.21 16.07,364.47 C 17.56,364.68 19.05,364.88 20.53,365.11 L 24.98,365.78 24.99,365.78 C 25.14,365.81 25.25,365.95 25.23,366.1 25.21,366.23 25.11,366.32 24.99,366.34 L 20.97,366.96 16.93,367.54 16.92,367.47 20.9,366.6 24.89,365.78 24.9,366.34 20.43,365.8 C 18.94,365.63 17.46,365.41 15.97,365.22 15.76,365.19 15.62,365.01 15.64,364.8 15.66,364.64 15.78,364.52 15.92,364.48 L 25.02,362.12 25.1,362.71 16.02,362.64 16.02,362.64 C 15.89,362.64 15.79,362.53 15.79,362.41 15.79,362.3 15.87,362.21 15.97,362.19 L 25.68,360.06 25.69,360.33 16.02,358.9 16.02,358.83 Z M 16.02,358.83" />
            <path id="mel07Canvas-bezier27" stroke="none" fill="rgb(51, 91, 113)" d="M 25.7,370.01 C 24.89,369.84 24.08,369.73 23.26,369.64 22.45,369.54 21.63,369.48 20.82,369.47 20,369.46 19.2,369.55 18.41,369.59 17.61,369.65 16.84,369.75 16.04,370 L 16,369.94 C 16.61,369.32 17.48,369.02 18.32,368.87 19.16,368.71 20.02,368.81 20.85,368.89 22.52,369.06 24.14,369.42 25.72,369.93 L 25.7,370.01 Z M 25.7,370.01" />
            <path id="mel07Canvas-bezier28" stroke="none" fill="rgb(51, 91, 113)" d="M 28.52,371.35 C 28.8,372.21 28.97,373.11 29.01,374.02 29.05,374.93 28.95,375.88 28.49,376.72 28.03,377.57 27.12,378.14 26.19,378.31 25.26,378.46 24.39,378.54 23.49,378.66 21.7,378.87 19.89,379.11 18.06,379.03 17.14,378.97 16.22,378.89 15.32,378.6 14.87,378.46 14.43,378.26 14.05,377.97 13.68,377.67 13.39,377.23 13.35,376.76 L 13.42,376.75 C 13.57,377.17 13.87,377.49 14.24,377.69 14.6,377.91 15.02,378.03 15.45,378.11 16.3,378.27 17.18,378.32 18.07,378.3 19.84,378.28 21.64,378.21 23.43,378.07 24.32,378 25.25,377.95 26.1,377.85 26.95,377.72 27.73,377.28 28.17,376.54 28.63,375.81 28.78,374.91 28.79,374.02 28.8,373.14 28.68,372.24 28.45,371.37 L 28.52,371.35 Z M 28.52,371.35" />
            <path id="mel07Canvas-bezier29" stroke="none" fill="rgb(51, 91, 113)" d="M 13.35,373.2 C 13.56,371.68 13.69,370.12 13.47,368.63 13.42,368.25 13.33,367.89 13.18,367.56 13.02,367.2 12.89,366.82 12.77,366.45 12.54,365.7 12.38,364.93 12.27,364.15 12.04,362.6 11.97,361.01 12.21,359.45 12.45,357.9 12.85,356.38 13.52,354.97 L 13.59,354.99 C 13.32,356.52 13.04,358.02 12.93,359.54 12.8,361.05 12.7,362.57 12.85,364.08 12.92,364.84 13.04,365.59 13.23,366.32 13.32,366.69 13.43,367.04 13.57,367.4 13.71,367.78 13.79,368.18 13.83,368.58 13.96,370.16 13.73,371.7 13.42,373.21 L 13.35,373.2 Z M 13.35,373.2" />
            <path id="mel07Canvas-bezier30" stroke="none" fill="rgb(51, 91, 113)" d="M 28.87,368.58 C 28.99,367.68 29.07,366.77 29.12,365.87 29.18,364.97 29.21,364.07 29.2,363.17 29.19,362.27 29.07,361.38 29.04,360.49 29.01,359.6 28.94,358.72 28.87,357.8 L 28.94,357.78 C 29.4,358.59 29.64,359.51 29.77,360.42 29.91,361.34 29.84,362.27 29.78,363.18 29.67,365.02 29.38,366.82 28.94,368.59 L 28.87,368.58 Z M 28.87,368.58" />
            <path id="mel07Canvas-bezier31" stroke="none" fill="rgb(51, 91, 113)" d="M 58.79,356.99 C 58.75,356.7 58.85,356.39 59.04,356.16 59.23,355.93 59.47,355.75 59.72,355.61 60.22,355.32 60.77,355.13 61.32,354.98 62.43,354.7 63.57,354.56 64.71,354.49 65.28,354.45 65.85,354.43 66.43,354.44 67.01,354.46 67.58,354.48 68.2,354.68 68.5,354.79 68.8,354.96 69.03,355.2 69.27,355.44 69.44,355.75 69.5,356.07 69.63,356.71 69.48,357.31 69.21,357.82 L 69.14,357.8 C 69.22,357.24 69.21,356.67 69.01,356.22 68.82,355.77 68.44,355.5 67.97,355.37 67.5,355.25 66.94,355.22 66.39,355.16 65.84,355.11 65.29,355.08 64.73,355.07 63.62,355.07 62.49,355.13 61.4,355.34 60.86,355.44 60.32,355.57 59.82,355.8 59.34,356.02 58.84,356.41 58.86,356.99 L 58.79,356.99 Z M 58.79,356.99" />
            <path id="mel07Canvas-bezier32" stroke="none" fill="rgb(51, 91, 113)" d="M 58.85,359.05 C 59.55,359.16 60.37,359.21 61.13,359.27 L 63.45,359.43 68.09,359.72 C 68.16,359.72 68.22,359.78 68.21,359.86 68.21,359.92 68.16,359.97 68.11,359.98 L 59.67,362.1 59.64,361.68 69.37,362.54 C 69.53,362.55 69.65,362.7 69.64,362.86 69.63,363.01 69.5,363.12 69.36,363.12 L 69.35,363.12 C 67.73,363.17 66.11,363.23 64.49,363.32 62.88,363.42 61.24,363.5 59.68,363.75 59.49,363.79 59.3,363.83 59.14,363.88 59.11,363.89 59.07,363.9 59.06,363.91 59.05,363.91 59.05,363.91 59.05,363.91 L 59.09,363.88 59.07,363.9 C 59.1,363.88 59.14,363.82 59.14,363.77 59.17,363.57 59.08,363.54 59.11,363.55 59.11,363.55 59.13,363.57 59.16,363.59 59.43,363.76 59.82,363.91 60.19,364.04 60.94,364.31 61.72,364.53 62.49,364.76 64.05,365.2 65.62,365.61 67.2,365.99 L 67.21,365.99 C 67.36,366.03 67.45,366.18 67.42,366.33 67.38,366.46 67.26,366.55 67.13,366.55 L 62.98,366.45 58.82,366.3 58.82,366.23 62.98,366.08 67.13,365.98 67.07,366.54 C 65.48,366.2 63.89,365.84 62.31,365.44 61.51,365.24 60.73,365.01 59.94,364.74 59.55,364.6 59.17,364.48 58.74,364.22 58.69,364.18 58.63,364.15 58.56,364.07 58.51,364.02 58.36,363.89 58.41,363.59 58.42,363.52 58.47,363.43 58.51,363.39 L 58.54,363.36 58.58,363.32 58.59,363.31 58.61,363.3 58.64,363.28 C 58.67,363.26 58.68,363.25 58.7,363.24 58.78,363.2 58.84,363.18 58.9,363.16 59.13,363.08 59.34,363.05 59.55,363.01 61.21,362.76 62.82,362.71 64.46,362.64 66.09,362.59 67.71,362.55 69.34,362.54 L 69.32,363.12 59.6,362.1 59.6,362.1 C 59.48,362.09 59.39,361.99 59.4,361.87 59.41,361.77 59.48,361.7 59.57,361.68 L 68.04,359.72 68.07,359.98 63.43,359.6 61.12,359.39 59.96,359.27 C 59.57,359.21 59.21,359.23 58.79,359.08 L 58.85,359.05 Z M 58.85,359.05" />
            <path id="mel07Canvas-bezier33" stroke="none" fill="rgb(51, 91, 113)" d="M 67.13,368.98 C 65.63,368.68 64.1,368.51 62.58,368.49 61.06,368.47 59.52,368.6 58.13,369.15 57.45,369.43 56.81,369.83 56.38,370.41 55.97,370.97 55.7,371.71 55.52,372.41 55.36,373.12 55.35,373.86 55.6,374.52 55.83,375.16 56.35,375.73 56.92,376.02 L 56.82,375.99 C 59.06,376.16 61.32,376.28 63.56,376.37 64.69,376.4 65.81,376.4 66.93,376.34 67.49,376.31 68.04,376.25 68.59,376.15 69.12,376.04 69.69,375.91 70.08,375.52 L 70.14,375.56 C 69.79,376.05 69.2,376.25 68.66,376.44 68.11,376.61 67.54,376.71 66.97,376.8 65.84,376.97 64.7,377.01 63.56,377.04 61.28,377.09 59.01,376.93 56.75,376.66 L 56.72,376.65 C 56.69,376.65 56.66,376.64 56.64,376.63 55.86,376.19 55.32,375.51 55.04,374.71 54.77,373.92 54.81,373.06 55.01,372.29 55.23,371.52 55.51,370.79 56.02,370.13 56.53,369.48 57.25,369.06 57.98,368.78 59.47,368.23 61.05,368.18 62.58,368.25 64.12,368.33 65.65,368.56 67.14,368.91 L 67.13,368.98 Z M 67.13,368.98" />
            <path id="mel07Canvas-bezier34" stroke="none" fill="rgb(51, 91, 113)" d="M 70.72,373.63 C 71.51,372.36 72.09,370.96 72.4,369.52 72.71,368.07 72.69,366.58 72.12,365.22 71.85,364.49 71.71,363.7 71.7,362.91 71.69,362.12 71.84,361.34 72.04,360.6 72.44,359.13 73.15,357.79 72.8,356.3 L 72.87,356.28 C 73.25,356.95 73.3,357.79 73.2,358.56 73.11,359.33 72.9,360.06 72.75,360.78 72.41,362.2 72.24,363.64 72.68,365.04 73.2,366.5 73.16,368.14 72.75,369.6 72.34,371.08 71.66,372.45 70.78,373.68 L 70.72,373.63 Z M 70.72,373.63" />
            <path id="mel07Canvas-bezier35" stroke="none" fill="rgb(51, 91, 113)" d="M 70.75,355.18 C 71.02,354.46 71.1,353.66 70.89,353 70.78,352.67 70.55,352.42 70.38,352.14 L 69.72,351.21 69.76,351.15 C 70.2,351.16 70.6,351.36 70.93,351.67 71.27,351.97 71.4,352.45 71.46,352.88 71.57,353.75 71.27,354.57 70.82,355.22 L 70.75,355.18 Z M 70.75,355.18" />
            <path id="mel07Canvas-bezier36" stroke="none" fill="rgb(51, 91, 113)" d="M 55.81,368.36 C 55.55,367.07 55.43,365.75 55.38,364.43 55.35,363.11 55.45,361.77 55.61,360.47 55.73,359.2 55.49,357.95 55.28,356.67 55.18,356.03 55.05,355.36 55.08,354.66 55.09,353.97 55.34,353.25 55.81,352.77 L 55.87,352.81 C 55.26,354.02 55.7,355.25 55.99,356.53 56.31,357.81 56.4,359.21 56.19,360.55 55.95,361.85 55.79,363.12 55.75,364.43 55.69,365.74 55.72,367.05 55.88,368.35 L 55.81,368.36 Z M 55.81,368.36" />
            <path id="mel07Canvas-bezier37" stroke="none" fill="rgb(51, 91, 113)" d="M 57.92,353.97 C 57.45,353.1 57.08,352.18 56.89,351.18 56.8,350.69 56.69,350.15 56.86,349.62 57,349.1 57.39,348.57 57.94,348.45 L 57.98,348.51 C 57.71,348.95 57.62,349.34 57.57,349.77 57.54,350.19 57.45,350.64 57.47,351.11 57.52,352.05 57.72,353.01 57.99,353.94 L 57.92,353.97 Z M 57.92,353.97" />
            <path id="mel07Canvas-bezier38" stroke="none" fill="rgb(51, 91, 113)" d="M 25.94,349.03 C 26.44,349.98 26.83,350.99 27.08,352.05 27.2,352.58 27.35,353.13 27.27,353.7 27.19,354.26 26.98,354.87 26.5,355.22 L 26.44,355.18 C 26.56,354.64 26.56,354.16 26.54,353.67 26.51,353.18 26.56,352.67 26.51,352.15 26.39,351.12 26.17,350.08 25.87,349.06 L 25.94,349.03 Z M 25.94,349.03" />
            <path id="mel07Canvas-bezier39" stroke="none" fill="rgb(51, 91, 113)" d="M 15.56,153.44 C 16.28,154.62 17.09,155.75 17.95,156.81 18.39,157.33 18.85,157.83 19.37,158.24 19.88,158.63 20.42,159.03 20.92,159.01 L 20.69,159.17 21.18,158.41 21.42,158.02 C 21.5,157.9 21.58,157.76 21.6,157.63 L 21.67,157.61 C 21.74,157.79 21.69,157.95 21.68,158.11 21.65,158.27 21.61,158.43 21.57,158.58 21.48,158.89 21.37,159.18 21.25,159.47 L 21.2,159.6 21.03,159.64 C 20.58,159.74 20.14,159.62 19.8,159.45 19.45,159.27 19.16,159.02 18.9,158.77 18.39,158.25 17.95,157.69 17.55,157.11 16.74,155.96 16.08,154.73 15.49,153.48 L 15.56,153.44 Z M 15.56,153.44" />
            <path id="mel07Canvas-bezier40" stroke="none" fill="rgb(51, 91, 113)" d="M 14.76,150.12 C 16.43,151.57 18.11,153 19.85,154.35 20.72,154.99 21.65,155.66 22.52,156.11 22.62,156.16 22.73,156.19 22.73,156.19 22.73,156.19 22.66,156.24 22.65,156.27 22.66,156.26 22.7,156.16 22.73,156.11 22.86,155.85 22.98,155.6 23.13,155.36 L 23.55,154.65 C 23.68,154.42 23.86,154.17 23.78,153.96 L 23.84,153.9 C 23.97,154.02 23.97,154.21 23.95,154.35 23.93,154.5 23.9,154.64 23.86,154.78 23.78,155.05 23.68,155.31 23.59,155.58 L 23.33,156.34 C 23.3,156.42 23.3,156.45 23.25,156.57 23.19,156.73 22.98,156.86 22.84,156.87 22.57,156.91 22.41,156.84 22.25,156.79 21.66,156.56 21.21,156.23 20.76,155.89 20.32,155.54 19.89,155.17 19.48,154.8 17.8,153.34 16.23,151.78 14.71,150.17 L 14.76,150.12 Z M 14.76,150.12" />
            <path id="mel07Canvas-bezier41" stroke="none" fill="rgb(51, 91, 113)" d="M 14.76,147 C 15.89,148.12 17.05,149.2 18.28,150.21 18.89,150.71 19.51,151.2 20.17,151.62 20.49,151.82 20.84,152.01 21.17,152.11 21.35,152.16 21.48,152.18 21.61,152.14 21.8,152.08 21.99,152.03 22.17,151.97 22.52,151.87 22.93,151.66 22.89,151.56 22.9,151.49 22.87,151.33 22.8,151.17 22.78,151.1 22.65,150.98 22.51,150.87 21.92,150.42 21.23,150.01 20.57,149.57 19.92,149.12 19.25,148.68 18.62,148.18 18.3,147.92 17.99,147.66 17.7,147.37 17.44,147.07 17.11,146.77 17.06,146.32 L 17.14,146.31 C 17.27,146.66 17.61,146.9 17.92,147.12 18.23,147.35 18.57,147.56 18.91,147.76 19.58,148.16 20.27,148.56 20.96,148.95 21.64,149.37 22.33,149.77 22.98,150.32 23.13,150.47 23.33,150.61 23.44,150.93 23.51,151.14 23.59,151.37 23.53,151.7 23.49,151.87 23.39,152.02 23.28,152.12 23.17,152.21 23.06,152.28 22.95,152.32 22.74,152.42 22.54,152.48 22.34,152.53 22.14,152.59 21.94,152.63 21.75,152.68 21.48,152.75 21.21,152.69 21.01,152.62 20.59,152.46 20.24,152.24 19.91,152.01 19.24,151.55 18.63,151.02 18.04,150.48 16.87,149.39 15.76,148.24 14.7,147.05 L 14.76,147 Z M 14.76,147" />
            <path id="mel07Canvas-bezier42" stroke="none" fill="rgb(51, 91, 113)" d="M 18.57,159.73 C 17.64,159.34 16.73,158.88 15.86,158.35 15.42,158.09 14.95,157.85 14.6,157.46 14.26,157.08 13.88,156.6 13.89,156.02 L 13.96,156 C 14.31,156.38 14.7,156.62 15.08,156.92 15.47,157.19 15.81,157.56 16.19,157.88 16.97,158.5 17.78,159.09 18.6,159.67 L 18.57,159.73 Z M 18.57,159.73" />
            <path id="mel07Canvas-bezier43" stroke="none" fill="rgb(51, 91, 113)" d="M 12.54,154.9 C 11.93,154.06 11.8,153 11.77,152 11.77,150.98 11.95,150 12.06,149.01 12.18,148.02 12.3,147.03 12.44,146.08 12.48,145.84 12.5,145.63 12.52,145.36 12.57,145.01 12.73,144.74 12.94,144.54 13.37,144.14 13.88,143.97 14.39,143.91 L 14.41,143.99 C 13.98,144.23 13.56,144.51 13.33,144.87 13.22,145.04 13.15,145.23 13.16,145.39 13.18,145.61 13.18,145.9 13.17,146.15 13.11,147.18 12.83,148.13 12.64,149.11 12.45,150.08 12.2,151.05 12.14,152.01 12.07,152.97 12.1,154.01 12.59,154.85 L 12.54,154.9 Z M 12.54,154.9" />
            <path id="mel07Canvas-bezier44" stroke="none" fill="rgb(51, 91, 113)" d="M 14.11,115.9 C 14.02,114.28 13.99,112.66 14.03,111.04 14.05,110.23 14.03,109.41 14.17,108.61 14.31,107.8 14.49,107 14.86,106.24 L 14.93,106.26 C 14.96,107.09 14.93,107.88 14.89,108.69 14.86,109.49 14.7,110.28 14.62,111.08 14.45,112.68 14.3,114.29 14.18,115.9 L 14.11,115.9 Z M 14.11,115.9" />
            <path id="mel07Canvas-bezier45" stroke="none" fill="rgb(51, 91, 113)" d="M 13.96,116.54 C 14.32,116.79 14.64,117.09 14.92,117.44 15.06,117.62 15.25,117.78 15.29,118.02 15.33,118.26 15.32,118.53 15.15,118.77 L 15.07,118.78 C 14.85,118.59 14.72,118.45 14.61,118.29 14.5,118.14 14.49,117.93 14.42,117.74 14.27,117.36 14.1,116.97 13.9,116.59 L 13.96,116.54 Z M 13.96,116.54" />
            <path id="mel07Canvas-bezier46" stroke="none" fill="rgb(51, 91, 113)" d="M 1.24,87.34 C 1.41,92.04 1.5,96.73 1.47,101.44 1.46,103.79 1.47,106.14 1.28,108.49 1.17,109.66 1.07,110.84 0.89,112.01 0.71,113.17 0.52,114.35 0.07,115.46 L 0,115.43 C 0.24,114.29 0.31,113.12 0.39,111.95 0.45,110.79 0.52,109.62 0.55,108.45 L 0.88,101.42 C 1.04,96.73 1.13,92.04 1.17,87.34 L 1.24,87.34 Z M 1.24,87.34" />
            <path id="mel07Canvas-bezier47" stroke="none" fill="rgb(51, 91, 113)" d="M 37.31,24.96 C 37.84,24.1 38.77,23.52 39.78,23.34 40.29,23.26 40.81,23.26 41.31,23.33 41.81,23.41 42.29,23.5 42.78,23.6 43.74,23.79 44.73,23.98 45.66,24.41 46.11,24.63 46.57,24.87 46.96,25.22 47.35,25.55 47.72,26 47.78,26.52 L 47.71,26.54 C 47.18,25.73 46.25,25.42 45.38,25.08 44.48,24.77 43.58,24.43 42.64,24.17 41.69,23.92 40.77,23.6 39.83,23.7 38.9,23.77 37.96,24.22 37.38,24.99 L 37.31,24.96 Z M 37.31,24.96" />
            <path id="mel07Canvas-bezier48" stroke="none" fill="rgb(51, 91, 113)" d="M 59.66,22.74 C 58.99,22.74 58.33,22.81 57.68,22.93 57.03,23.05 56.39,23.22 55.79,23.47 55.19,23.71 54.67,24.08 54.15,24.42 53.63,24.77 53.15,25.18 52.65,25.66 L 52.59,25.62 C 52.74,24.93 53.17,24.31 53.71,23.84 54.25,23.36 54.94,23.11 55.6,22.92 56.94,22.53 58.33,22.47 59.67,22.67 L 59.66,22.74 Z M 59.66,22.74" />
            <path id="mel07Canvas-bezier49" stroke="none" fill="rgb(51, 91, 113)" d="M 44.13,41.48 C 45.97,40.86 47.88,40.44 49.81,40.13 50.77,39.97 51.74,39.8 52.72,39.79 53.69,39.78 54.67,39.83 55.65,40.03 L 55.65,40.1 C 54.68,40.3 53.72,40.41 52.76,40.52 51.81,40.63 50.84,40.63 49.88,40.71 48.92,40.79 47.96,40.91 47.01,41.05 46.05,41.18 45.09,41.33 44.15,41.55 L 44.13,41.48 Z M 44.13,41.48" />
            <path id="mel07Canvas-bezier50" stroke="none" fill="rgb(51, 91, 113)" d="M 44.95,42.33 C 45.75,42.77 46.62,43.11 47.49,43.36 48.36,43.61 49.27,43.75 50.15,43.7 51.04,43.66 51.85,43.36 52.59,42.94 53.34,42.53 53.96,41.89 54.57,41.18 L 54.64,41.22 C 54.38,42.12 53.8,42.98 52.98,43.56 52.16,44.15 51.11,44.32 50.16,44.29 49.19,44.26 48.26,44.03 47.38,43.7 46.5,43.36 45.67,42.92 44.91,42.4 L 44.95,42.33 Z M 44.95,42.33" />
            <path id="mel07Canvas-bezier51" stroke="none" fill="rgb(51, 91, 113)" d="M 47.27,45.39 C 47.89,45.6 48.52,45.73 49.16,45.8 49.79,45.88 50.43,45.9 51.04,45.81 51.66,45.72 52.21,45.48 52.74,45.23 53.27,44.98 53.76,44.62 54.27,44.18 L 54.33,44.21 C 54.16,44.88 53.7,45.47 53.1,45.86 52.5,46.27 51.77,46.37 51.09,46.39 49.72,46.43 48.41,46.05 47.24,45.46 L 47.27,45.39 Z M 47.27,45.39" />
            <path id="mel07Canvas-bezier52" stroke="none" fill="rgb(51, 91, 113)" d="M 34.77,43.97 C 36.08,45.61 37.57,47.09 39.2,48.39 40.83,49.68 42.62,50.79 44.57,51.43 45.55,51.74 46.56,51.93 47.57,51.95 48.07,51.97 48.58,51.94 49.07,51.87 49.32,51.84 49.57,51.8 49.82,51.75 50.04,51.7 50.38,51.64 50.63,51.61 51.65,51.54 52.63,51.31 53.48,50.78 54.33,50.26 54.98,49.43 55.45,48.5 L 55.52,48.53 C 55.24,49.54 54.66,50.52 53.77,51.2 52.89,51.89 51.76,52.19 50.72,52.34 50.44,52.37 50.27,52.4 49.98,52.48 49.71,52.54 49.44,52.59 49.17,52.62 48.63,52.69 48.08,52.7 47.54,52.67 46.45,52.6 45.39,52.35 44.38,51.98 42.36,51.24 40.57,50.04 38.97,48.67 37.38,47.28 35.95,45.72 34.72,44.02 L 34.77,43.97 Z M 34.77,43.97" />
            <path id="mel07Canvas-bezier53" stroke="none" fill="rgb(51, 91, 113)" d="M 56.11,47.33 C 56.87,45.45 57.6,43.55 58.27,41.64 58.95,39.73 59.6,37.8 60.08,35.85 60.3,34.87 60.51,33.89 60.5,32.91 60.51,31.92 60.46,30.92 60.38,29.92 60.32,28.91 60.19,27.91 60.09,26.9 60,25.89 59.85,24.87 59.96,23.84 L 60.03,23.84 C 60.14,24.84 60.39,25.83 60.59,26.82 60.8,27.82 60.97,28.83 61.1,29.85 61.22,30.87 61.27,31.9 61.22,32.94 61.18,34 60.92,35.02 60.64,36 60.08,37.97 59.36,39.88 58.61,41.77 57.84,43.66 57.03,45.52 56.18,47.36 L 56.11,47.33 Z M 56.11,47.33" />
            <path id="mel07Canvas-bezier54" stroke="none" fill="rgb(51, 91, 113)" d="M 59.96,20.96 C 59.64,18.35 59.09,15.76 58.28,13.27 57.46,10.79 56.39,8.33 54.67,6.38 52.95,4.43 50.51,3.26 48,2.65 45.47,2.03 42.83,1.93 40.23,2.13 38.94,2.24 37.64,2.42 36.38,2.72 35.17,3.02 34.01,3.65 32.95,4.35 30.81,5.79 28.99,7.7 27.66,9.91 26.3,12.1 25.48,14.62 25.16,17.19 24.82,19.77 24.97,22.42 25.42,25.01 L 25.35,25.02 C 24.71,22.47 24.4,19.8 24.65,17.14 24.88,14.48 25.68,11.86 27.03,9.53 28.39,7.22 30.29,5.21 32.55,3.75 33.68,3.03 34.89,2.4 36.24,2.08 37.55,1.8 38.87,1.64 40.19,1.55 42.84,1.38 45.53,1.52 48.11,2.19 50.68,2.85 53.19,4.09 54.95,6.14 56.68,8.19 57.71,10.69 58.49,13.2 59.26,15.73 59.77,18.33 60.03,20.95 L 59.96,20.96 Z M 59.96,20.96" />
            <path id="mel07Canvas-bezier55" stroke="none" fill="rgb(51, 91, 113)" d="M 29.97,29.72 C 30.5,29.49 30.86,29 31.08,28.49 31.31,27.97 31.41,27.41 31.45,26.84 31.49,26.27 31.48,25.7 31.42,25.13 31.35,24.57 31.28,23.96 31.32,23.35 31.35,22.74 31.48,22.11 31.75,21.54 32.01,20.96 32.43,20.47 32.86,20.06 33.3,19.65 33.74,19.29 34.14,18.9 34.53,18.51 34.85,18.05 35.07,17.51 L 35.14,17.52 C 35.13,18.12 34.88,18.73 34.53,19.23 34.19,19.74 33.76,20.15 33.38,20.57 32.6,21.38 32.02,22.28 31.9,23.4 31.83,23.95 31.86,24.51 31.9,25.1 31.92,25.69 31.9,26.29 31.82,26.88 31.72,27.47 31.57,28.06 31.28,28.59 31,29.11 30.58,29.6 30,29.79 L 29.97,29.72 Z M 29.97,29.72" />
            <path id="mel07Canvas-bezier56" stroke="none" fill="rgb(51, 91, 113)" d="M 35.87,15 C 35.75,13.91 36.13,12.75 36.94,11.96 37.73,11.17 38.83,10.76 39.91,10.55 41,10.32 42.11,10.4 43.17,10.3 44.24,10.2 45.29,10.01 46.31,9.7 47.33,9.39 48.3,8.94 49.34,8.55 49.87,8.37 50.44,8.2 51.06,8.22 51.68,8.23 52.27,8.45 52.77,8.74 53.73,9.32 54.61,10.02 55.37,10.82 55.75,11.22 56.11,11.64 56.44,12.07 56.78,12.5 57.07,12.99 57.43,13.35 L 57.39,13.42 C 56.51,12.72 55.86,11.87 55.02,11.19 54.21,10.49 53.35,9.86 52.42,9.37 51.53,8.86 50.58,8.88 49.57,9.24 48.57,9.56 47.54,9.99 46.47,10.26 45.4,10.55 44.3,10.71 43.2,10.77 42.09,10.84 41.02,10.73 39.97,10.91 38.92,11.06 37.87,11.41 37.09,12.12 36.3,12.83 35.87,13.92 35.95,14.99 L 35.87,15 Z M 35.87,15" />
            <path id="mel07Canvas-bezier57" stroke="none" fill="rgb(51, 91, 113)" d="M 27.69,28.62 C 27.2,27.96 26.7,27.31 25.98,27.01 25.62,26.86 25.22,26.79 24.9,26.93 24.57,27.07 24.31,27.36 24.13,27.69 23.75,28.35 23.63,29.14 23.65,29.91 23.67,30.69 23.84,31.46 24.1,32.19 24.64,33.67 25.46,35.04 26.4,36.27 26.87,36.89 27.42,37.45 28.05,37.85 28.68,38.25 29.48,38.39 30.18,37.95 L 30.23,38.01 C 29.94,38.3 29.53,38.51 29.09,38.55 28.65,38.59 28.21,38.47 27.82,38.3 27.03,37.94 26.4,37.35 25.84,36.74 24.75,35.47 24.04,33.95 23.54,32.37 23.3,31.58 23.16,30.75 23.18,29.91 23.2,29.08 23.36,28.23 23.82,27.5 24.05,27.14 24.37,26.81 24.8,26.66 25.24,26.5 25.7,26.63 26.07,26.81 26.83,27.18 27.31,27.91 27.74,28.56 L 27.69,28.62 Z M 27.69,28.62" />
            <path id="mel07Canvas-bezier58" stroke="none" fill="rgb(51, 91, 113)" d="M 25.14,27.92 C 25.98,28.2 26.78,28.75 27.21,29.63 27.42,30.12 27.55,30.44 27.67,30.82 27.8,31.2 27.91,31.58 28.11,31.98 L 28.07,32.05 C 27.58,31.93 27.24,31.52 27.01,31.12 26.89,30.92 26.82,30.69 26.77,30.45 L 26.73,30.13 C 26.71,30.03 26.69,29.94 26.67,29.85 26.44,29.11 25.84,28.44 25.12,27.99 L 25.14,27.92 Z M 25.14,27.92" />
            <path id="mel07Canvas-bezier59" stroke="none" fill="rgb(51, 91, 113)" d="M 28.63,32.02 C 28.63,32.43 28.67,32.83 28.76,33.19 28.8,33.37 28.92,33.51 28.93,33.66 28.94,33.83 28.94,33.99 28.94,34.27 L 28.89,34.32 C 28.6,34.33 28.37,34.14 28.24,33.92 28.1,33.71 28.16,33.45 28.17,33.23 28.21,32.78 28.35,32.37 28.56,32 L 28.63,32.02 Z M 28.63,32.02" />
            <path id="mel07Canvas-bezier60" stroke="none" fill="rgb(51, 91, 113)" d="M 46.07,27.98 C 45.58,27.62 45.05,27.32 44.51,27.07 43.98,26.82 43.4,26.63 42.86,26.64 42.32,26.65 41.83,26.92 41.32,27.15 40.8,27.39 40.3,27.69 39.74,27.98 L 39.68,27.93 C 39.97,27.35 40.42,26.88 40.96,26.51 41.5,26.15 42.21,25.99 42.89,26.06 43.57,26.14 44.15,26.43 44.69,26.75 45.21,27.1 45.69,27.49 46.12,27.93 L 46.07,27.98 Z M 46.07,27.98" />
            <path id="mel07Canvas-bezier61" stroke="none" fill="rgb(51, 91, 113)" d="M 40.17,28.3 C 41.03,28.4 41.89,28.4 42.73,28.35 43.15,28.32 43.56,28.2 43.98,28.21 44.4,28.21 44.81,28.21 45.28,28.3 L 45.3,28.37 C 44.93,28.67 44.5,28.83 44.06,28.93 43.62,29.04 43.16,28.96 42.72,28.93 41.84,28.85 40.97,28.68 40.15,28.37 L 40.17,28.3 Z M 40.17,28.3" />
            <path id="mel07Canvas-bezier62" stroke="none" fill="rgb(51, 91, 113)" d="M 53.01,27.13 C 53.63,26.43 54.39,25.82 55.32,25.48 55.78,25.31 56.32,25.17 56.84,25.33 57.36,25.48 57.8,25.85 57.99,26.32 L 57.94,26.37 C 57.47,26.2 57.08,26.08 56.69,26.04 56.31,26.02 55.91,25.95 55.48,26.04 55.06,26.12 54.64,26.28 54.24,26.48 53.83,26.67 53.43,26.9 53.06,27.18 L 53.01,27.13 Z M 53.01,27.13" />
            <path id="mel07Canvas-bezier63" stroke="none" fill="rgb(51, 91, 113)" d="M 53.57,27.75 C 54.34,27.76 55.12,27.72 55.85,27.59 56.22,27.53 56.55,27.37 56.87,27.31 57.2,27.22 57.49,27.15 57.81,26.88 L 57.88,26.9 C 57.94,27.38 57.53,27.8 57.14,27.98 56.74,28.2 56.3,28.17 55.9,28.18 55.09,28.18 54.31,28.04 53.56,27.83 L 53.57,27.75 Z M 53.57,27.75" />
            <path id="mel07Canvas-bezier64" stroke="none" fill="rgb(51, 91, 113)" d="M 41.81,28.52 C 41.67,28.5 41.49,28.43 41.34,28.33 41.2,28.23 41.06,28.09 40.97,27.92 40.87,27.76 40.75,27.58 40.8,27.35 40.83,27.29 40.87,27.18 40.94,27.09 41.01,27.01 41.11,26.95 41.23,26.91 L 41.29,26.94 C 41.36,27.05 41.41,27.13 41.44,27.2 41.49,27.26 41.51,27.3 41.53,27.39 41.58,27.47 41.5,27.6 41.51,27.72 41.52,27.84 41.55,27.97 41.61,28.09 41.66,28.22 41.74,28.34 41.85,28.46 L 41.81,28.52 Z M 41.81,28.52" />
            <path id="mel07Canvas-bezier65" stroke="none" fill="rgb(51, 91, 113)" d="M 43.24,26.48 C 43.41,26.58 43.59,26.74 43.71,26.93 43.76,27.04 43.8,27.15 43.84,27.26 43.85,27.32 43.86,27.36 43.87,27.45 L 43.88,27.6 C 43.88,27.87 43.86,28.15 43.66,28.33 43.48,28.51 43.21,28.62 42.94,28.53 L 42.91,28.46 43.08,27.9 C 43.11,27.77 43.25,27.67 43.3,27.56 L 43.34,27.41 C 43.35,27.4 43.36,27.34 43.36,27.31 43.37,27.22 43.38,27.14 43.36,27.06 43.35,26.88 43.3,26.71 43.19,26.53 L 43.24,26.48 Z M 43.24,26.48" />
            <path id="mel07Canvas-bezier66" stroke="none" fill="rgb(51, 91, 113)" d="M 56.36,25.69 C 56.73,25.95 56.96,26.43 56.91,26.93 56.85,27.43 56.52,27.9 56.02,28.11 55.78,28.22 55.49,28.27 55.23,28.25 54.94,28.22 54.67,28.1 54.47,27.91 54.06,27.52 53.94,26.88 54.22,26.46 L 54.29,26.47 C 54.43,26.92 54.66,27.18 54.93,27.34 55.06,27.42 55.2,27.5 55.34,27.54 55.5,27.59 55.66,27.6 55.82,27.56 56.15,27.49 56.45,27.22 56.55,26.86 56.67,26.5 56.6,26.07 56.31,25.74 L 56.36,25.69 Z M 56.36,25.69" />
            <path id="mel07Canvas-bezier67" stroke="none" fill="rgb(51, 91, 113)" d="M 30.02,39.38 C 31.2,41.28 32.14,43.33 32.9,45.44 33.64,47.56 34.16,49.77 34.39,52.02 34.5,53.14 34.54,54.28 34.48,55.41 34.45,55.98 34.4,56.55 34.31,57.11 34.27,57.39 34.22,57.67 34.16,57.95 34.13,58.03 34.15,58.05 34.08,58.23 34.01,58.37 33.95,58.43 33.89,58.5 33.77,58.62 33.65,58.72 33.53,58.81 32.55,59.47 31.55,59.96 30.53,60.43 29.51,60.89 28.48,61.33 27.42,61.7 L 27.39,61.63 30.3,59.98 C 31.25,59.42 32.25,58.88 33.08,58.23 33.18,58.15 33.28,58.07 33.35,57.99 33.38,57.96 33.41,57.91 33.4,57.92 33.39,57.98 33.42,57.85 33.43,57.8 33.48,57.53 33.52,57.26 33.56,56.99 33.65,56.45 33.72,55.91 33.76,55.36 33.86,54.27 33.87,53.17 33.8,52.06 33.66,49.86 33.21,47.68 32.55,45.56 31.89,43.44 31.05,41.36 29.95,39.42 L 30.02,39.38 Z M 30.02,39.38" />
            <path id="mel07Canvas-bezier68" stroke="none" fill="rgb(51, 91, 113)" d="M 56.18,49.8 L 57.11,52.87 C 57.27,53.38 57.49,53.87 57.58,54.39 57.69,54.91 57.75,55.42 57.82,55.97 L 57.76,56.01 C 57.31,55.61 57.08,55.09 56.88,54.59 56.68,54.08 56.64,53.54 56.54,53.01 56.35,51.95 56.21,50.88 56.1,49.81 L 56.18,49.8 Z M 56.18,49.8" />
            <path id="mel07Canvas-bezier69" stroke="none" fill="rgb(51, 91, 113)" d="M 57.8,52.29 C 58.27,52.36 58.73,52.46 59.19,52.57 59.41,52.62 59.66,52.62 59.86,52.75 60.05,52.88 60.24,53.04 60.39,53.31 L 60.36,53.37 C 60.07,53.48 59.83,53.47 59.59,53.43 59.36,53.4 59.18,53.22 58.97,53.11 58.56,52.88 58.16,52.63 57.77,52.36 L 57.8,52.29 Z M 57.8,52.29" />
            <path id="mel07Canvas-bezier70" stroke="none" fill="rgb(51, 91, 113)" d="M 61.67,52.84 C 61.25,55.9 60.59,58.93 59.75,61.92 58.91,64.9 57.88,67.83 56.58,70.65 55.26,73.46 53.67,76.17 51.65,78.55 49.64,80.92 47.13,82.96 44.19,84.12 42.73,84.71 41.18,85.07 39.61,85.21 38.05,85.35 36.45,85.31 34.89,84.96 33.34,84.61 31.84,83.94 30.58,82.95 29.32,81.96 28.31,80.67 27.56,79.28 26.09,76.46 25.52,73.3 25.35,70.2 25.19,67.09 25.43,63.97 26.01,60.93 L 26.08,60.94 C 25.87,62.47 25.77,64.02 25.73,65.56 25.69,67.1 25.72,68.64 25.85,70.17 26.12,73.21 26.73,76.28 28.2,78.93 28.91,80.26 29.86,81.46 31.03,82.37 32.2,83.3 33.59,83.93 35.05,84.26 36.51,84.6 38.04,84.67 39.56,84.56 41.07,84.45 42.56,84.12 43.98,83.58 46.82,82.49 49.29,80.54 51.29,78.23 53.31,75.92 54.91,73.26 56.25,70.49 57.59,67.72 58.66,64.81 59.54,61.85 60.42,58.9 61.13,55.88 61.6,52.83 L 61.67,52.84 Z M 61.67,52.84" />
            <path id="mel07Canvas-bezier71" stroke="none" fill="rgb(51, 91, 113)" d="M 63.12,53.57 C 63.46,53.2 64.02,53.27 64.44,53.39 64.88,53.53 65.29,53.74 65.67,54 65.85,54.12 66.04,54.27 66.21,54.4 66.36,54.51 66.54,54.6 66.74,54.67 67.13,54.81 67.55,54.88 67.98,54.94 68.83,55.04 69.71,54.98 70.58,55.04 71.45,55.09 72.33,55.13 73.23,55.26 L 73.24,55.33 C 72.37,55.61 71.48,55.72 70.58,55.77 69.68,55.82 68.78,55.69 67.88,55.51 67.44,55.42 66.99,55.31 66.56,55.11 66.34,55.01 66.13,54.89 65.94,54.72 65.77,54.57 65.62,54.43 65.45,54.29 65.12,54.01 64.76,53.77 64.37,53.6 63.99,53.45 63.5,53.33 63.17,53.62 L 63.12,53.57 Z M 63.12,53.57" />
            <path id="mel07Canvas-bezier72" stroke="none" fill="rgb(51, 91, 113)" d="M 72.03,53.62 C 72.7,53.51 73.37,53.45 74.05,53.46 74.71,53.48 75.42,53.52 76.04,53.9 76.35,54.09 76.57,54.45 76.59,54.83 76.59,55.2 76.52,55.51 76.47,55.86 76.42,56.17 76.31,56.56 76.37,56.77 76.4,56.93 76.81,56.98 77.11,57.01 78.44,57.15 79.77,57.17 81.12,57.21 82.46,57.25 83.81,57.32 85.15,57.43 87.83,57.64 90.54,57.98 93.14,58.79 95.71,59.61 98.29,60.8 100.12,62.84 L 100.07,62.89 C 97.98,61.19 95.49,60.18 92.94,59.49 90.38,58.79 87.75,58.3 85.1,58.01 83.77,57.86 82.43,57.76 81.1,57.68 79.76,57.61 78.41,57.55 77.07,57.37 76.9,57.35 76.73,57.32 76.55,57.27 76.39,57.23 76.13,57.14 76.05,56.87 75.99,56.63 76.05,56.46 76.08,56.29 L 76.18,55.8 C 76.24,55.48 76.32,55.13 76.33,54.84 76.33,54.53 76.17,54.26 75.91,54.08 75.39,53.73 74.69,53.64 74.04,53.6 73.38,53.57 72.7,53.61 72.04,53.69 L 72.03,53.62 Z M 72.03,53.62" />
            <path id="mel07Canvas-bezier73" stroke="none" fill="rgb(51, 91, 113)" d="M 97.4,63.27 C 99.11,64.19 100.82,65.13 102.51,66.09 104.19,67.08 105.87,68.06 107.48,69.18 107.89,69.45 108.29,69.82 108.64,70.03 109.03,70.27 109.46,70.46 109.9,70.64 110.78,70.98 111.7,71.26 112.63,71.53 114.47,72.08 116.37,72.5 118.25,72.98 L 118.24,73.05 C 116.29,72.98 114.35,72.67 112.44,72.23 111.49,71.99 110.54,71.71 109.62,71.3 109.17,71.1 108.72,70.87 108.29,70.58 107.83,70.27 107.53,69.94 107.14,69.65 105.6,68.5 103.96,67.45 102.32,66.41 100.68,65.36 99.03,64.34 97.36,63.34 L 97.4,63.27 Z M 97.4,63.27" />
            <path id="mel07Canvas-bezier74" stroke="none" fill="rgb(51, 91, 113)" d="M 120.74,84.44 C 119.82,80.97 119.48,77.36 119.6,73.76 119.63,72.86 119.7,71.96 119.81,71.07 119.93,70.17 120.01,69.3 120.03,68.41 120.08,66.63 119.99,64.85 119.84,63.07 119.52,59.52 118.92,55.99 118.28,52.48 117.97,50.73 117.59,48.98 117.19,47.24 116.98,46.38 116.76,45.51 116.51,44.66 116.27,43.8 115.99,42.95 115.63,42.13 L 115.7,42.1 C 116.59,43.67 117.15,45.4 117.68,47.11 118.19,48.83 118.61,50.59 118.99,52.34 119.73,55.86 120.18,59.44 120.42,63.03 120.54,64.82 120.59,66.62 120.5,68.43 120.46,69.33 120.36,70.24 120.22,71.12 120.1,72 120.02,72.89 119.96,73.78 119.75,77.33 119.99,80.94 120.81,84.42 L 120.74,84.44 Z M 120.74,84.44" />
            <path id="mel07Canvas-bezier75" stroke="none" fill="rgb(51, 91, 113)" d="M 107.28,28.53 C 106.19,28.37 105.21,27.8 104.36,27.13 103.94,26.78 103.55,26.39 103.2,25.96 102.86,25.54 102.51,25.22 102.08,24.92 101.23,24.34 100.24,24.01 99.26,23.74 98.77,23.6 98.26,23.52 97.76,23.49 97.26,23.47 96.73,23.51 96.34,23.86 L 96.28,23.82 C 96.4,23.55 96.64,23.36 96.9,23.22 97.16,23.1 97.45,23.03 97.73,22.98 98.29,22.89 98.87,22.93 99.42,23.02 100.53,23.22 101.55,23.75 102.42,24.45 102.85,24.79 103.28,25.23 103.57,25.67 103.88,26.1 104.22,26.49 104.6,26.85 105.35,27.57 106.26,28.21 107.28,28.45 L 107.28,28.53 Z M 107.28,28.53" />
            <path id="mel07Canvas-bezier76" stroke="none" fill="rgb(51, 91, 113)" d="M 95.9,24.44 C 96.48,25.37 97.19,26.22 98,26.96 98.4,27.31 98.86,27.66 99.22,28.09 99.6,28.51 99.9,28.98 100.27,29.36 100.63,29.74 101.07,30.06 101.52,30.35 101.98,30.64 102.48,30.87 102.95,31.2 103.89,31.82 104.72,32.57 105.54,33.31 107.18,34.81 108.78,36.26 110.65,37.37 111.59,37.99 112.45,38.72 113.32,39.33 113.76,39.63 114.23,39.86 114.75,39.91 115.27,39.98 115.81,39.87 116.35,39.74 L 116.37,39.81 C 115.87,40.05 115.32,40.22 114.74,40.24 114.15,40.25 113.56,40.04 113.06,39.77 112.07,39.2 111.22,38.53 110.27,38 108.28,36.93 106.7,35.27 105.14,33.74 104.35,32.97 103.56,32.22 102.68,31.59 102.26,31.27 101.76,31.02 101.3,30.7 100.83,30.39 100.38,30.03 100,29.6 99.62,29.17 99.34,28.69 99,28.28 98.67,27.85 98.25,27.51 97.85,27.11 97.06,26.33 96.38,25.44 95.84,24.47 L 95.9,24.44 Z M 95.9,24.44" />
            <path id="mel07Canvas-bezier77" stroke="none" fill="rgb(51, 91, 113)" d="M 108.13,28.19 C 108.04,26 107.9,23.8 107.6,21.64 107.52,21.1 107.43,20.56 107.3,20.04 107.24,19.77 107.17,19.52 107.06,19.28 106.96,19.02 106.86,18.76 106.77,18.5 106.4,17.46 106.07,16.41 105.75,15.35 105.13,13.24 104.53,11.1 104.22,8.9 104.09,7.8 103.97,6.69 104.04,5.56 104.09,5 104.15,4.42 104.39,3.88 104.52,3.62 104.7,3.35 104.98,3.21 105.25,3.05 105.57,3.08 105.84,3.17 L 105.82,3.24 C 105.56,3.21 105.28,3.24 105.09,3.39 104.89,3.53 104.78,3.76 104.7,4 104.55,4.49 104.53,5.04 104.55,5.57 104.59,6.64 104.74,7.72 104.94,8.79 105.33,10.93 105.77,13.07 106.32,15.19 106.59,16.25 106.89,17.31 107.22,18.35 107.3,18.61 107.38,18.87 107.48,19.12 107.58,19.39 107.66,19.67 107.71,19.94 107.83,20.49 107.9,21.04 107.96,21.59 108.17,23.79 108.21,25.99 108.2,28.19 L 108.13,28.19 Z M 108.13,28.19" />
            <path id="mel07Canvas-bezier78" stroke="none" fill="rgb(51, 91, 113)" d="M 109.96,15.69 C 108.82,12.88 107.76,10.03 106.86,7.13 106.41,5.68 105.92,4.22 105.77,2.66 105.74,2.27 105.71,1.88 105.78,1.45 105.8,1.34 105.83,1.22 105.88,1.1 105.9,1.05 105.94,0.98 105.97,0.92 L 106.06,0.8 C 106.19,0.64 106.33,0.48 106.49,0.35 106.66,0.21 106.85,0.09 107.08,0.03 107.31,-0.03 107.58,0.01 107.77,0.12 108.15,0.37 108.34,0.72 108.51,1.06 L 108.45,1.1 C 108.2,0.82 107.93,0.53 107.63,0.43 107.33,0.31 107.07,0.46 106.85,0.72 106.74,0.84 106.64,0.99 106.55,1.13 L 106.48,1.25 C 106.47,1.27 106.46,1.29 106.45,1.32 106.43,1.38 106.43,1.45 106.42,1.53 106.4,1.85 106.44,2.22 106.49,2.58 106.73,4.02 107.05,5.51 107.42,6.97 107.8,8.43 108.22,9.88 108.67,11.33 109.1,12.78 109.55,14.23 110.03,15.66 L 109.96,15.69 Z M 109.96,15.69" />
            <path id="mel07Canvas-bezier79" stroke="none" fill="rgb(51, 91, 113)" d="M 114.75,16.71 C 113.47,14.01 112.22,11.3 111.08,8.53 110.51,7.15 109.95,5.76 109.49,4.32 109.37,3.96 109.26,3.59 109.18,3.21 109.14,3.02 109.1,2.83 109.08,2.61 109.08,2.5 109.08,2.38 109.1,2.24 109.11,2.17 109.15,2.07 109.21,1.98 L 109.29,1.86 C 109.82,1.16 110.61,0.74 111.5,0.7 L 111.63,0.7 111.73,0.77 C 112.32,1.28 112.68,1.81 113.05,2.39 113.4,2.96 113.7,3.56 113.97,4.16 114.51,5.38 114.91,6.64 115.2,7.92 L 115.13,7.95 C 114.61,6.74 114.08,5.55 113.46,4.42 113.16,3.85 112.83,3.29 112.46,2.77 112.1,2.27 111.69,1.72 111.28,1.38 L 111.5,1.46 C 110.91,1.49 110.24,1.79 109.86,2.28 109.7,2.35 109.77,2.74 109.82,3.08 109.88,3.43 109.97,3.79 110.07,4.15 110.47,5.57 110.98,6.97 111.5,8.37 112.55,11.15 113.65,13.93 114.82,16.68 L 114.75,16.71 Z M 114.75,16.71" />
            <path id="mel07Canvas-bezier80" stroke="none" fill="rgb(51, 91, 113)" d="M 119.6,18.16 C 118.79,16.44 117.99,14.71 117.22,12.97 116.83,12.1 116.45,11.23 116.1,10.34 115.92,9.89 115.75,9.45 115.61,8.98 115.57,8.87 115.54,8.75 115.51,8.63 115.5,8.56 115.49,8.5 115.48,8.42 115.47,8.36 115.51,8.21 115.53,8.18 115.64,7.92 115.79,7.72 115.98,7.53 116.32,7.17 116.93,6.91 117.47,7.14 118,7.35 118.32,7.78 118.58,8.2 119.08,9.05 119.44,9.92 119.83,10.8 120.6,12.54 121.35,14.29 122.18,15.99 122.6,16.83 123.04,17.68 123.55,18.44 123.68,18.63 123.82,18.81 123.96,18.98 124.03,19.06 124.1,19.14 124.18,19.21 124.22,19.24 124.25,19.27 124.29,19.3 124.37,19.36 124.38,19.37 124.45,19.44 124.88,19.93 125,20.37 125.2,20.83 125.85,22.68 126.19,24.57 126.48,26.46 126.74,28.36 126.93,30.27 126.97,32.18 126.99,33.14 126.97,34.1 126.88,35.06 126.83,35.54 126.75,36.02 126.63,36.49 126.5,36.94 126.35,37.46 125.9,37.73 L 125.86,37.67 C 126.23,37.39 126.33,36.89 126.42,36.44 126.5,35.98 126.53,35.51 126.55,35.04 126.58,34.1 126.54,33.15 126.46,32.21 126.32,30.32 126.09,28.44 125.76,26.57 125.61,25.64 125.44,24.71 125.23,23.79 125.03,22.87 124.82,21.95 124.52,21.08 124.38,20.66 124.18,20.17 123.98,19.94 123.97,19.92 123.89,19.85 123.87,19.84 123.82,19.8 123.76,19.75 123.71,19.7 123.61,19.61 123.53,19.51 123.45,19.41 123.28,19.21 123.14,19.01 123.01,18.8 122.48,17.97 122.06,17.11 121.65,16.24 120.84,14.5 120.13,12.73 119.4,10.98 119.02,10.11 118.67,9.21 118.22,8.41 118,8.02 117.7,7.66 117.33,7.5 116.96,7.34 116.54,7.49 116.23,7.79 116.08,7.94 115.94,8.13 115.85,8.31 115.78,8.4 115.87,8.68 115.92,8.89 116.05,9.34 116.21,9.79 116.37,10.23 116.7,11.12 117.06,12 117.42,12.88 118.14,14.64 118.9,16.39 119.67,18.13 L 119.6,18.16 Z M 119.6,18.16" />
            <path id="mel07Canvas-bezier81" stroke="none" fill="rgb(51, 91, 113)" d="M 127.36,38.64 C 128.45,42.78 129.58,46.9 130.77,51.01 131.95,55.13 133.2,59.2 134.73,63.21 136.14,67.26 137.31,71.44 137.73,75.74 138.14,80.01 137.92,84.47 136.32,88.48 L 136.25,88.46 C 137.45,84.34 137.53,80.02 137.01,75.82 136.49,71.61 135.51,67.45 134.18,63.39 132.72,59.38 131.52,55.24 130.42,51.11 129.32,46.97 128.28,42.82 127.29,38.65 L 127.36,38.64 Z M 127.36,38.64" />
            <path id="mel07Canvas-bezier82" stroke="none" fill="rgb(51, 91, 113)" d="M 136.4,89.51 C 136.36,89.54 136.32,89.73 136.27,89.84 136.22,89.97 136.16,90.1 136.1,90.22 135.96,90.47 135.79,90.7 135.58,90.9 135.17,91.3 134.66,91.58 134.14,91.8 133.62,92.01 133.08,92.21 132.52,92.24 131.96,92.27 131.41,92.22 130.86,92.04 L 130.86,91.96 C 131.39,91.75 131.91,91.63 132.42,91.52 132.93,91.39 133.45,91.38 133.95,91.24 134.45,91.11 134.93,90.92 135.35,90.62 135.56,90.48 135.75,90.3 135.91,90.1 136,90 136.07,89.89 136.14,89.78 L 136.24,89.6 C 136.29,89.55 136.28,89.46 136.41,89.44 L 136.4,89.51 Z M 136.4,89.51" />
            <path id="mel07Canvas-bezier83" stroke="none" fill="rgb(51, 91, 113)" d="M 129.47,92.04 C 123.64,91.39 117.83,90.62 112.03,89.7 109.14,89.24 106.24,88.79 103.37,88.12 101.95,87.77 100.52,87.42 99.11,86.98 97.71,86.52 96.3,86.06 95.03,85.28 L 95.07,85.22 C 95.73,85.51 96.43,85.74 97.13,85.93 97.83,86.14 98.54,86.32 99.25,86.48 100.67,86.82 102.09,87.13 103.53,87.41 106.39,87.98 109.25,88.59 112.13,89.13 115.01,89.66 117.9,90.15 120.79,90.61 123.68,91.09 126.58,91.54 129.48,91.96 L 129.47,92.04 Z M 129.47,92.04" />
            <path id="mel07Canvas-bezier84" stroke="none" fill="rgb(51, 91, 113)" d="M 96.85,62.24 C 96,66.51 95.22,70.8 94.58,75.1 94.28,77.25 94.05,79.41 93.82,81.56 93.7,82.63 93.62,83.71 93.6,84.78 93.59,85.32 93.6,85.85 93.68,86.38 93.76,86.87 93.89,87.48 94.42,87.61 L 94.41,87.69 C 94.12,87.69 93.85,87.47 93.7,87.23 93.54,86.99 93.44,86.72 93.36,86.45 93.21,85.91 93.14,85.35 93.09,84.8 93,83.69 93.04,82.59 93.09,81.5 93.23,79.31 93.62,77.15 94,75 94.77,70.71 95.73,66.45 96.78,62.23 L 96.85,62.24 Z M 96.85,62.24" />
            <path id="mel07Canvas-bezier85" stroke="none" fill="rgb(51, 91, 113)" d="M 92.11,87.27 C 91.91,86.44 91.48,85.63 91.03,84.88 90.56,84.14 90,83.45 89.34,82.9 88.68,82.34 87.9,81.94 87.07,81.8 86.24,81.66 85.38,81.79 84.59,82.09 82.97,82.71 81.54,83.71 80.27,84.88 78.99,86.04 77.92,87.45 77.05,88.99 L 76.98,88.96 C 77.48,87.22 78.51,85.67 79.76,84.35 81.04,83.04 82.67,82.1 84.4,81.54 85.27,81.24 86.24,81.14 87.16,81.34 88.08,81.53 88.91,82.01 89.58,82.63 90.25,83.25 90.78,83.99 91.21,84.77 91.63,85.57 92.02,86.37 92.19,87.27 L 92.11,87.27 Z M 92.11,87.27" />
            <path id="mel07Canvas-bezier86" stroke="none" fill="rgb(51, 91, 113)" d="M 85.82,83.66 L 86.33,85.15 C 86.49,85.65 86.68,86.15 86.69,86.7 86.69,87.26 86.37,87.74 86.06,88.16 85.75,88.59 85.41,88.99 85.09,89.4 83.78,91.03 82.45,92.66 81.46,94.48 80.96,95.39 80.56,96.35 80.42,97.35 80.26,98.36 80.43,99.37 80.76,100.35 81.07,101.33 81.52,102.27 81.84,103.3 82.15,104.32 82.39,105.34 82.61,106.38 83.03,108.44 83.36,110.52 83.55,112.62 83.64,113.68 83.7,114.74 83.64,115.81 83.61,116.35 83.56,116.89 83.41,117.44 83.34,117.72 83.24,118 83.04,118.28 82.93,118.42 82.79,118.56 82.59,118.65 82.5,118.69 82.39,118.72 82.29,118.72 L 82.18,118.73 C 82.16,118.73 82.09,118.73 82.11,118.74 82.15,118.73 82.08,118.75 82.04,118.81 82,118.87 81.96,118.96 81.93,119.06 81.86,119.27 81.82,119.51 81.8,119.76 81.76,120.25 81.76,120.77 81.79,121.29 81.83,122.32 81.95,123.35 82.06,124.39 L 82.39,127.52 C 82.44,128.05 82.48,128.57 82.47,129.11 82.46,129.24 82.45,129.37 82.42,129.51 82.41,129.58 82.39,129.65 82.33,129.73 82.28,129.82 82.12,129.81 82.07,129.76 81.83,129.57 81.72,129.33 81.59,129.1 L 81.65,129.06 C 81.79,129.27 81.95,129.51 82.14,129.64 82.19,129.66 82.2,129.66 82.21,129.63 82.23,129.6 82.25,129.54 82.26,129.48 82.27,129.36 82.27,129.23 82.26,129.11 82.23,128.59 82.15,128.08 82.06,127.56 L 81.55,124.46 C 81.38,123.43 81.24,122.38 81.16,121.32 81.12,120.79 81.09,120.26 81.12,119.71 81.14,119.43 81.17,119.15 81.25,118.86 81.3,118.71 81.35,118.56 81.45,118.4 81.57,118.24 81.71,118.08 82,118.02 82.09,118 82.08,118.01 82.13,118 L 82.22,117.99 C 82.25,117.99 82.27,117.99 82.29,117.98 82.34,117.96 82.39,117.91 82.45,117.84 82.55,117.69 82.64,117.48 82.69,117.25 82.81,116.79 82.86,116.28 82.89,115.77 82.94,114.75 82.91,113.71 82.83,112.68 82.69,110.61 82.41,108.54 82.03,106.49 81.84,105.47 81.62,104.45 81.33,103.45 81.06,102.47 80.61,101.51 80.3,100.49 79.98,99.48 79.82,98.37 80,97.29 80.17,96.22 80.62,95.22 81.14,94.3 82.2,92.47 83.58,90.86 84.92,89.26 85.26,88.86 85.6,88.46 85.92,88.05 86.23,87.64 86.54,87.2 86.54,86.69 86.55,86.19 86.37,85.68 86.22,85.18 L 85.75,83.69 85.82,83.66 Z M 85.82,83.66" />
            <path id="mel07Canvas-bezier87" stroke="none" fill="rgb(51, 91, 113)" d="M 47.03,35.05 C 47.04,35.52 47.11,36 47.29,36.38 47.38,36.58 47.51,36.73 47.65,36.77 47.71,36.79 47.79,36.79 47.87,36.78 47.96,36.76 48.09,36.73 48.19,36.7 48.63,36.59 49.06,36.38 49.55,36.34 49.8,36.32 50.05,36.31 50.32,36.37 50.46,36.39 50.6,36.44 50.73,36.53 50.85,36.62 50.95,36.76 50.95,36.9 L 50.88,36.93 C 50.69,36.78 50.51,36.85 50.31,36.88 50.11,36.93 49.9,36.99 49.69,37.06 49.26,37.19 48.78,37.23 48.29,37.28 48.16,37.29 48.06,37.3 47.91,37.3 47.76,37.31 47.59,37.28 47.45,37.2 47.15,37.04 47.02,36.75 46.95,36.51 46.83,36 46.88,35.52 46.96,35.05 L 47.03,35.05 Z M 47.03,35.05" />
            <path id="mel07Canvas-bezier88" stroke="none" fill="rgb(51, 91, 113)" d="M 53.32,36.4 C 53.36,36.18 53.44,35.97 53.58,35.78 53.65,35.68 53.72,35.53 53.89,35.52 54.04,35.51 54.26,35.59 54.31,35.82 L 54.29,35.89 C 54.14,36.06 54.16,36.16 54.13,36.21 54.12,36.27 54.02,36.22 53.93,36.24 53.77,36.29 53.58,36.36 53.38,36.44 L 53.32,36.4 Z M 53.32,36.4" />
            <path id="mel07Canvas-bezier89" stroke="none" fill="rgb(51, 91, 113)" d="M 51.68,28.17 L 52.62,30.8 C 52.78,31.23 53.01,31.65 53.11,32.09 53.22,32.54 53.28,32.98 53.38,33.45 L 53.32,33.5 C 52.87,33.21 52.63,32.76 52.42,32.33 52.21,31.9 52.16,31.42 52.06,30.96 51.86,30.04 51.72,29.12 51.61,28.18 L 51.68,28.17 Z M 51.68,28.17" />
            <path id="mel07Canvas-bezier90" stroke="none" fill="rgb(51, 91, 113)" d="M 26.3,38.37 C 26.46,38.63 26.4,39.01 26.18,39.23 25.97,39.46 25.71,39.62 25.46,39.77 24.96,40.07 24.43,40.33 24,40.7 23.57,41.07 23.35,41.62 23.52,42.15 23.59,42.41 23.71,42.66 23.86,42.9 24.01,43.14 24.2,43.36 24.34,43.66 24.48,43.94 24.56,44.28 24.51,44.62 24.47,44.96 24.3,45.26 24.11,45.5 23.71,46 23.22,46.35 22.75,46.7 22.28,47.05 21.81,47.39 21.4,47.78 20.99,48.16 20.66,48.6 20.54,49.09 20.43,49.59 20.55,50.11 20.79,50.59 21.04,51.08 21.38,51.5 21.76,51.96 22.14,52.44 22.5,52.97 22.67,53.62 22.85,54.28 22.71,55.06 22.3,55.6 21.9,56.14 21.37,56.5 20.86,56.81 20.33,57.11 19.8,57.37 19.27,57.61 18.75,57.86 18.2,58.1 17.8,58.46 17.6,58.63 17.47,58.85 17.53,59.11 17.58,59.36 17.77,59.6 17.97,59.81 L 17.92,59.86 C 17.68,59.69 17.44,59.48 17.33,59.17 17.2,58.84 17.35,58.46 17.56,58.23 18,57.75 18.53,57.47 19.03,57.16 20.03,56.57 21.12,56.04 21.7,55.18 22.32,54.36 21.87,53.27 21.19,52.41 20.84,51.95 20.46,51.44 20.2,50.87 19.94,50.3 19.79,49.61 19.98,48.95 20.15,48.3 20.59,47.79 21.04,47.38 21.5,46.98 21.99,46.65 22.47,46.32 22.95,45.98 23.43,45.65 23.78,45.24 24.14,44.83 24.25,44.3 24.01,43.81 23.91,43.57 23.73,43.34 23.58,43.07 23.43,42.8 23.3,42.52 23.23,42.21 23.16,41.91 23.17,41.57 23.29,41.27 23.41,40.97 23.62,40.73 23.86,40.53 24.33,40.15 24.88,39.91 25.39,39.64 25.64,39.5 25.9,39.36 26.1,39.16 26.31,38.96 26.36,38.66 26.23,38.4 L 26.3,38.37 Z M 26.3,38.37" />
            <path id="mel07Canvas-bezier91" stroke="none" fill="rgb(51, 91, 113)" d="M 28.93,40.82 C 28.42,41.14 27.93,41.57 27.73,42.13 27.52,42.7 27.87,43.27 28.33,43.65 28.45,43.75 28.57,43.9 28.61,44.09 28.66,44.27 28.6,44.47 28.51,44.62 28.33,44.91 28.08,45.12 27.83,45.31 27.33,45.69 26.8,46.01 26.33,46.38 25.87,46.73 25.4,47.23 25.67,47.65 25.79,47.87 26.01,48.06 26.25,48.22 26.47,48.36 26.81,48.53 27.03,48.82 27.28,49.1 27.37,49.54 27.29,49.89 27.22,50.25 27.05,50.55 26.88,50.82 26.51,51.36 26.08,51.82 25.65,52.27 25.22,52.71 24.78,53.15 24.4,53.6 24.03,54.03 23.67,54.61 23.8,54.9 23.9,55.21 24.52,55.46 25.06,55.58 25.35,55.65 25.67,55.73 25.99,55.84 26.15,55.9 26.31,55.97 26.48,56.08 26.62,56.18 26.9,56.34 26.91,56.75 26.87,57.12 26.66,57.27 26.53,57.39 26.39,57.51 26.24,57.6 26.09,57.68 25.8,57.84 25.51,57.96 25.22,58.08 24.64,58.31 24.06,58.53 23.47,58.72 22.9,58.93 22.3,59.12 21.82,59.41 21.7,59.48 21.61,59.59 21.62,59.62 21.62,59.67 21.75,59.78 21.88,59.83 22.14,59.95 22.44,60.04 22.74,60.11 L 22.73,60.19 C 22.42,60.16 22.11,60.12 21.8,60.03 21.65,59.97 21.46,59.93 21.36,59.69 21.3,59.39 21.51,59.26 21.62,59.15 22.15,58.74 22.72,58.51 23.29,58.25 L 24.97,57.5 C 25.24,57.37 25.51,57.24 25.75,57.09 25.87,57.01 25.99,56.93 26.07,56.86 26.17,56.78 26.2,56.68 26.18,56.74 26.2,56.82 26.18,56.75 26.08,56.7 25.99,56.64 25.87,56.59 25.74,56.54 25.47,56.45 25.19,56.39 24.88,56.32 24.56,56.24 24.25,56.14 23.93,55.98 23.63,55.82 23.27,55.59 23.11,55.13 22.97,54.67 23.15,54.26 23.31,53.97 23.49,53.66 23.7,53.41 23.91,53.17 24.34,52.7 24.79,52.28 25.23,51.85 25.67,51.43 26.1,51 26.44,50.52 26.78,50.06 26.98,49.51 26.66,49.11 26.51,48.91 26.28,48.78 26,48.59 25.73,48.4 25.47,48.18 25.29,47.85 25.1,47.51 25.19,47.04 25.4,46.77 25.6,46.48 25.86,46.28 26.11,46.09 26.62,45.72 27.16,45.42 27.66,45.07 27.9,44.9 28.14,44.71 28.29,44.48 28.45,44.26 28.4,44 28.18,43.8 27.96,43.59 27.73,43.34 27.61,43.03 27.48,42.73 27.47,42.37 27.59,42.07 27.84,41.47 28.36,41.06 28.89,40.75 L 28.93,40.82 Z M 28.93,40.82" />
            <path id="mel07Canvas-bezier92" stroke="none" fill="rgb(51, 91, 113)" d="M 31.7,46.81 C 31.84,46.86 32.01,46.97 32.04,47.16 32.06,47.34 31.97,47.49 31.89,47.62 31.72,47.89 31.5,48.12 31.29,48.34 30.88,48.79 30.44,49.22 30.11,49.7 29.77,50.17 29.58,50.75 29.88,51.16 30.03,51.38 30.23,51.52 30.49,51.72 30.78,51.94 31.01,52.29 31.05,52.68 31.1,53.47 30.7,54.05 30.36,54.58 30,55.1 29.59,55.56 29.19,56.01 28.79,56.46 28.37,56.91 28.14,57.37 28.04,57.61 28.03,57.82 28.2,58.01 28.37,58.21 28.65,58.35 28.92,58.48 L 28.91,58.55 C 28.6,58.52 28.28,58.46 27.98,58.26 27.66,58.06 27.55,57.56 27.66,57.22 27.85,56.53 28.26,56.04 28.63,55.54 29.01,55.06 29.41,54.61 29.78,54.15 30.13,53.7 30.48,53.19 30.47,52.73 30.46,52.51 30.34,52.3 30.16,52.13 29.95,51.96 29.65,51.72 29.48,51.41 29.29,51.1 29.24,50.69 29.35,50.36 29.44,50.02 29.62,49.74 29.82,49.49 30.22,48.99 30.69,48.6 31.14,48.19 31.36,47.98 31.59,47.78 31.77,47.54 31.86,47.43 31.94,47.3 31.93,47.17 31.93,47.04 31.81,46.94 31.67,46.88 L 31.7,46.81 Z M 31.7,46.81" />
        </g>
    </g>
</svg>
