<?xml version="1.0" encoding="UTF-8"?>
<!DOCTYPE svg PUBLIC "-//W3C//DTD SVG 1.1//EN" "http://www.w3.org/Graphics/SVG/1.1/DTD/svg11.dtd">
<svg version="1.1" xmlns="http://www.w3.org/2000/svg" xmlns:xlink="http://www.w3.org/1999/xlink" width="157" height="378"  xml:space="preserve" id="mel06Canvas">
    <!-- Generated by PaintCode - http://www.paintcodeapp.com -->
    <g id="mel06Canvas-lines">
        <g id="mel06Canvas-group2">
            <g id="mel06Canvas-group3">
                <path id="mel06Canvas-bezier" stroke="none" fill="rgb(51, 91, 113)" d="M 68.17,265.63 C 68.8,263.59 69.37,261.53 69.91,259.46 70.47,257.39 70.98,255.32 71.47,253.24 71.95,251.16 72.36,249.06 72.86,246.99 73.4,244.92 73.87,242.84 74.49,240.77 L 74.57,240.79 C 74.43,242.94 74.06,245.05 73.68,247.17 73.28,249.27 72.69,251.34 72.12,253.41 70.98,257.54 69.72,261.64 68.25,265.66 L 68.17,265.63 Z M 68.17,265.63" />
                <path id="mel06Canvas-bezier2" stroke="none" fill="rgb(51, 91, 113)" d="M 86.11,348.96 C 84.89,346.35 84.32,343.49 83.9,340.65 83.49,337.8 83.28,334.93 83.19,332.05 83.09,329.17 83.21,326.3 83.25,323.43 L 83.43,314.82 C 83.55,309.08 83.64,303.33 83.88,297.59 84.14,291.86 84.38,286.12 84.81,280.39 L 84.89,280.39 C 84.94,286.14 84.82,291.88 84.71,297.62 84.58,303.36 84.31,309.1 84.1,314.84 L 83.79,323.44 C 83.71,326.31 83.55,329.18 83.61,332.04 83.64,334.91 83.79,337.77 84.14,340.62 84.51,343.45 85.03,346.3 86.19,348.93 L 86.11,348.96 Z M 86.11,348.96" />
                <path id="mel06Canvas-bezier3" stroke="none" fill="rgb(51, 91, 113)" d="M 72.68,354.2 C 70.97,351.56 69.94,348.56 68.95,345.59 68,342.61 67.19,339.58 66.46,336.53 65.75,333.48 65.09,330.42 64.56,327.32 64.1,324.2 63.89,321.07 63.73,317.94 63.42,311.68 63.33,305.41 63.47,299.14 63.56,296.01 63.66,292.88 63.83,289.75 64.01,286.63 64.18,283.5 64.6,280.39 L 64.69,280.4 C 64.56,281.95 64.54,283.52 64.51,285.08 L 64.41,289.78 C 64.37,292.9 64.31,296.03 64.31,299.16 64.27,305.41 64.18,311.67 64.39,317.91 64.52,321.03 64.68,324.16 65.1,327.24 65.58,330.31 66.2,333.39 66.87,336.44 67.54,339.49 68.29,342.53 69.19,345.52 70.12,348.49 71.1,351.5 72.75,354.15 L 72.68,354.2 Z M 72.68,354.2" />
                <path id="mel06Canvas-bezier4" stroke="none" fill="rgb(51, 91, 113)" d="M 56.35,359.48 C 55.94,360.94 55.56,362.41 55.22,363.89 55.06,364.62 54.9,365.37 54.77,366.11 54.66,366.84 54.51,367.63 54.62,368.31 54.7,368.6 55.03,368.85 55.31,369.06 55.61,369.28 55.93,369.47 56.26,369.66 56.91,370.02 57.59,370.35 58.28,370.66 59.65,371.28 61.05,371.85 62.47,372.38 L 62.48,372.39 62.5,372.4 C 65.69,374.04 69.26,374.94 72.81,375.52 76.39,376.08 80,376.42 83.62,376.62 85.42,376.71 87.23,376.79 89.03,376.74 89.93,376.71 90.82,376.67 91.69,376.53 92.12,376.46 92.55,376.37 92.93,376.22 93.11,376.15 93.28,376.06 93.4,375.95 93.45,375.9 93.49,375.85 93.51,375.8 93.54,375.75 93.58,375.6 93.61,375.51 93.89,374.67 93.95,373.84 93.64,373.04 93.35,372.23 92.84,371.48 92.3,370.77 91.19,369.36 89.95,368.02 88.67,366.72 L 88.73,366.66 C 90.09,367.87 91.47,369.07 92.66,370.48 93.26,371.18 93.83,371.92 94.21,372.82 94.4,373.27 94.51,373.77 94.51,374.27 94.51,374.77 94.41,375.25 94.28,375.71 94.24,375.83 94.23,375.91 94.17,376.07 94.11,376.23 94.01,376.36 93.9,376.47 93.68,376.68 93.45,376.8 93.22,376.91 92.75,377.11 92.29,377.22 91.82,377.31 90.9,377.48 89.98,377.55 89.06,377.59 87.22,377.65 85.39,377.6 83.57,377.47 79.92,377.21 76.31,376.77 72.7,376.16 69.11,375.5 65.54,374.55 62.27,372.8 L 62.31,372.82 C 60.89,372.26 59.49,371.67 58.12,371.01 57.44,370.68 56.76,370.33 56.1,369.95 55.77,369.75 55.44,369.54 55.13,369.31 54.84,369.06 54.49,368.84 54.35,368.38 54.24,367.56 54.42,366.83 54.55,366.07 54.69,365.32 54.87,364.58 55.05,363.85 55.42,362.37 55.83,360.91 56.28,359.46 L 56.35,359.48 Z M 56.35,359.48" />
                <path id="mel06Canvas-bezier5" stroke="none" fill="rgb(51, 91, 113)" d="M 58.4,357.68 C 58.7,351.12 57.24,344.37 53.52,338.92 51.82,336.07 50.3,333.13 49.09,330.03 47.93,326.92 46.95,323.76 46.07,320.57 44.34,314.19 42.99,307.67 42.48,301.05 42.25,297.75 42.18,294.42 42.45,291.11 42.72,287.8 43.32,284.5 44.47,281.4 L 44.55,281.43 C 43.61,284.59 43.19,287.87 43.03,291.14 42.89,294.42 43,297.71 43.31,300.98 43.93,307.52 45.09,314.02 46.72,320.4 47.55,323.58 48.49,326.75 49.6,329.84 50.75,332.91 52.23,335.86 53.88,338.7 54.28,339.42 54.73,340.11 55.12,340.85 55.52,341.58 55.88,342.33 56.2,343.09 56.85,344.62 57.34,346.21 57.71,347.83 58.43,351.06 58.72,354.39 58.48,357.69 L 58.4,357.68 Z M 58.4,357.68" />
                <path id="mel06Canvas-bezier6" stroke="none" fill="rgb(51, 91, 113)" d="M 57.54,357.69 C 57.48,359.01 57.91,360.36 58.66,361.4 59.04,361.91 59.55,362.32 60.13,362.45 60.71,362.58 61.32,362.43 61.87,362.15 62.44,361.87 62.92,361.47 63.42,361.02 63.92,360.57 64.46,360.15 65.02,359.76 65.58,359.38 66.16,359.01 66.83,358.75 67.16,358.63 67.52,358.5 67.94,358.57 68.16,358.62 68.35,358.78 68.43,358.95 68.52,359.12 68.55,359.29 68.6,359.45 L 68.52,359.49 C 68.33,359.2 68.14,358.9 67.89,358.95 67.64,358.96 67.35,359.11 67.08,359.27 66.55,359.62 66.02,360.02 65.51,360.43 L 63.94,361.66 C 63.41,362.08 62.81,362.49 62.15,362.76 61.5,363.05 60.72,363.19 59.99,362.97 59.25,362.76 58.69,362.23 58.31,361.64 57.94,361.04 57.7,360.38 57.56,359.71 57.42,359.04 57.35,358.35 57.46,357.68 L 57.54,357.69 Z M 57.54,357.69" />
                <path id="mel06Canvas-bezier7" stroke="none" fill="rgb(51, 91, 113)" d="M 68,357.7 C 68.25,357.1 68.73,356.62 69.25,356.23 69.79,355.86 70.4,355.58 71.02,355.38 71.64,355.19 72.28,354.99 72.93,355.01 73.58,355.03 74.22,355.13 74.84,355.4 L 74.83,355.49 C 74.19,355.68 73.58,355.76 72.98,355.85 72.38,355.95 71.78,355.92 71.18,356.03 70.59,356.14 70.01,356.31 69.47,356.59 68.93,356.85 68.41,357.22 68.08,357.73 L 68,357.7 Z M 68,357.7" />
                <path id="mel06Canvas-bezier8" stroke="none" fill="rgb(51, 91, 113)" d="M 71.94,359.43 L 79.22,358.71 79.81,358.65 79.31,358.97 73.2,362.99 73.07,362.55 82.38,362.45 83.64,362.44 82.55,363.08 78.22,365.63 77.96,364.88 C 80.47,364.47 82.98,364.09 85.5,363.75 L 87,363.55 85.81,364.46 C 84.48,365.48 83.16,366.52 81.81,367.53 L 81.56,367.02 C 83.53,366.62 85.49,366.23 87.47,365.9 L 87.49,365.98 C 85.57,366.55 83.63,367.07 81.69,367.59 L 80.46,367.92 81.44,367.07 C 82.72,365.98 84.02,364.92 85.31,363.83 L 85.62,364.55 C 83.11,364.97 80.6,365.34 78.08,365.68 L 75.94,365.97 77.82,364.93 82.22,362.5 82.38,363.13 73.07,363.03 72.25,363.02 72.94,362.59 79.16,358.73 79.25,359 71.94,359.51 71.94,359.43 Z M 71.94,359.43" />
                <path id="mel06Canvas-bezier9" stroke="none" fill="rgb(51, 91, 113)" d="M 82.49,351.12 C 83.78,350.21 85.19,349.45 86.75,349 87.53,348.79 88.37,348.57 89.23,348.76 90.07,348.93 90.9,349.47 91.22,350.25 L 91.16,350.3 C 90.48,349.85 89.81,349.64 89.1,349.59 88.4,349.55 87.65,349.52 86.9,349.65 86.15,349.78 85.41,350 84.68,350.27 83.95,350.53 83.23,350.83 82.53,351.19 L 82.49,351.12 Z M 82.49,351.12" />
                <path id="mel06Canvas-bezier10" stroke="none" fill="rgb(51, 91, 113)" d="M 85.56,353.26 C 86.14,353.2 86.73,353.09 87.31,352.99 L 89.06,352.68 92.55,352.02 93.14,351.91 92.66,352.28 89.6,354.7 88.08,355.9 87.33,356.51 87.15,356.67 87.08,356.73 87.09,356.72 C 87.11,356.69 87.13,356.64 87.13,356.6 87.12,356.63 87.17,356.45 86.99,356.36 86.81,356.31 86.83,356.36 86.83,356.35 L 86.81,356.35 C 86.79,356.36 86.81,356.35 86.81,356.35 L 86.88,356.32 C 87.06,356.23 87.2,356.19 87.37,356.13 88.62,355.72 89.87,355.39 91.12,355.04 L 94.89,354.05 96.32,353.67 95.18,354.63 89.83,359.18 89.51,358.42 C 91.12,358.21 92.74,358.04 94.35,357.87 95.97,357.71 97.59,357.53 99.21,357.39 L 100.87,357.25 99.38,357.95 C 97.66,358.74 95.94,359.53 94.2,360.27 L 94.16,360.2 C 95.8,359.24 97.45,358.33 99.11,357.42 L 99.28,357.98 C 97.67,358.23 96.06,358.44 94.45,358.67 92.84,358.89 91.23,359.1 89.61,359.27 L 88.15,359.43 89.29,358.52 94.75,354.11 95.05,354.7 91.27,355.61 C 90.01,355.93 88.75,356.24 87.52,356.6 87.37,356.65 87.21,356.7 87.09,356.75 L 87.05,356.77 87,356.8 86.97,356.81 C 86.97,356.8 86.98,356.85 86.8,356.8 86.61,356.7 86.66,356.53 86.65,356.55 86.66,356.51 86.68,356.46 86.7,356.43 L 86.72,356.41 C 86.78,356.35 86.8,356.33 86.84,356.3 L 87.03,356.14 87.8,355.54 89.36,354.37 92.49,352.05 92.6,352.31 89.09,352.86 87.34,353.12 C 86.75,353.2 86.17,353.3 85.57,353.34 L 85.56,353.26 Z M 85.56,353.26" />
                <path id="mel06Canvas-bezier11" stroke="none" fill="rgb(51, 91, 113)" d="M 100.51,358.81 C 101.18,358.91 101.79,359.23 102.38,359.56 102.96,359.89 103.52,360.27 104.05,360.68 105.12,361.51 106.1,362.45 106.91,363.55 107.7,364.64 108.36,365.95 108.31,367.41 108.29,368.11 108.09,368.87 107.59,369.44 107.11,370.02 106.42,370.36 105.74,370.55 104.36,370.92 102.97,370.87 101.62,370.76 100.27,370.63 98.94,370.35 97.63,370.02 95.03,369.32 92.49,368.44 90.04,367.34 L 90.07,367.26 C 92.67,367.91 95.23,368.66 97.83,369.21 99.12,369.5 100.42,369.76 101.71,369.93 103.01,370.1 104.34,370.19 105.57,369.9 106.17,369.75 106.74,369.48 107.14,369.04 107.54,368.61 107.73,368.01 107.77,367.38 107.86,366.12 107.3,364.87 106.57,363.79 105.84,362.7 104.91,361.73 103.9,360.88 103.39,360.45 102.85,360.06 102.29,359.7 101.73,359.36 101.14,359.02 100.49,358.89 L 100.51,358.81 Z M 100.51,358.81" />
                <path id="mel06Canvas-bezier12" stroke="none" fill="rgb(51, 91, 113)" d="M 84.73,278.37 C 84.99,277.71 85.2,277.04 85.37,276.36 85.56,275.68 85.7,275 85.79,274.32 85.89,273.63 85.86,272.94 85.93,272.27 L 86.11,270.18 86.19,270.16 C 86.57,270.81 86.73,271.55 86.77,272.28 86.82,273.02 86.62,273.74 86.44,274.44 86.09,275.85 85.53,277.18 84.8,278.41 L 84.73,278.37 Z M 84.73,278.37" />
                <path id="mel06Canvas-bezier13" stroke="none" fill="rgb(51, 91, 113)" d="M 85.52,267.48 L 87.77,260.67 88.92,257.28 C 89.36,256.14 89.77,255.05 90.17,253.92 90.96,251.67 91.63,249.38 92.37,247.12 93.14,244.87 93.82,242.58 94.63,240.32 L 94.71,240.34 C 94.37,242.72 93.8,245.05 93.17,247.37 92.53,249.68 91.67,251.92 90.79,254.15 90.36,255.26 89.89,256.39 89.43,257.46 L 88.17,260.82 85.6,267.51 85.52,267.48 Z M 85.52,267.48" />
                <path id="mel06Canvas-bezier14" stroke="none" fill="rgb(51, 91, 113)" d="M 65.74,278.37 C 66.08,277.49 66.39,276.59 66.66,275.69 66.94,274.8 67.19,273.89 67.38,272.98 67.57,272.06 67.65,271.14 67.77,270.24 67.88,269.34 67.95,268.45 67.75,267.51 L 67.83,267.48 C 68.47,268.25 68.61,269.33 68.6,270.3 68.6,271.29 68.3,272.23 68.03,273.14 67.47,274.98 66.71,276.73 65.81,278.4 L 65.74,278.37 Z M 65.74,278.37" />
                <path id="mel06Canvas-bezier15" stroke="none" fill="rgb(51, 91, 113)" d="M 45.52,277.74 C 45.81,276.16 46.08,274.58 46.33,273 46.45,272.21 46.48,271.41 46.65,270.64 46.8,269.86 46.99,269.1 47.11,268.3 L 47.2,268.29 C 47.54,269.08 47.52,269.94 47.48,270.75 47.43,271.57 47.18,272.35 46.98,273.13 46.59,274.7 46.12,276.24 45.6,277.76 L 45.52,277.74 Z M 45.52,277.74" />
                <path id="mel06Canvas-bezier16" stroke="none" fill="rgb(51, 91, 113)" d="M 43.42,238.38 C 44.33,242.87 45.15,247.38 45.8,251.92 46.13,254.18 46.47,256.46 46.59,258.75 46.69,261.05 46.75,263.36 46.42,265.65 L 46.34,265.65 C 46.18,263.35 46.01,261.09 45.76,258.82 L 45.13,252 C 44.63,247.46 44.01,242.92 43.34,238.39 L 43.42,238.38 Z M 43.42,238.38" />
            </g>
            <path id="mel06Canvas-bezier17" stroke="none" fill="rgb(51, 91, 113)" d="M 110.84,9.04 C 110.82,8.48 110.44,7.95 110.1,7.49 109.74,7.02 109.33,6.59 108.91,6.17 108.05,5.35 107.11,4.61 106.12,3.97 104.12,2.69 101.9,1.76 99.6,1.2 94.99,0.06 90.11,0.45 85.56,1.72 83.28,2.38 81.04,3.18 79.04,4.39 77.04,5.58 75.26,7.15 73.93,9.05 72.57,10.94 71.72,13.16 71.23,15.45 70.98,16.6 70.83,17.77 70.73,18.95 L 70.57,20.73 C 70.51,21.32 70.5,21.93 70.26,22.51 L 70.18,22.47 C 70.36,21.92 70.32,21.31 70.34,20.72 L 70.35,18.93 C 70.38,17.74 70.47,16.54 70.66,15.34 71.03,12.96 71.87,10.62 73.24,8.58 73.93,7.56 74.74,6.64 75.64,5.81 76.56,4.99 77.56,4.28 78.62,3.68 80.74,2.46 83.06,1.69 85.39,1.08 90.04,-0.14 95.02,-0.45 99.7,0.8 102.03,1.42 104.26,2.41 106.25,3.76 107.25,4.43 108.18,5.2 109.02,6.05 109.44,6.48 109.85,6.92 110.2,7.41 110.53,7.9 110.91,8.41 110.92,9.06 L 110.84,9.04 Z M 110.84,9.04" />
            <path id="mel06Canvas-bezier18" stroke="none" fill="rgb(51, 91, 113)" d="M 73.22,31.67 C 74.06,32.35 74.79,33.16 75.38,34.09 75.67,34.56 75.99,35.03 76.1,35.6 76.2,36.15 76.2,36.75 75.95,37.28 L 75.87,37.28 75.29,35.83 C 75.09,35.38 75,34.88 74.79,34.41 74.36,33.47 73.81,32.57 73.16,31.73 L 73.22,31.67 Z M 73.22,31.67" />
            <path id="mel06Canvas-bezier19" stroke="none" fill="rgb(51, 91, 113)" d="M 108.25,25.08 C 108.1,24.72 107.81,24.4 107.49,24.34 107.18,24.26 106.84,24.4 106.5,24.56 106.16,24.73 105.87,25 105.51,25.14 105.14,25.29 104.77,25.43 104.31,25.48 L 104.25,25.41 C 104.45,24.99 104.75,24.68 105.08,24.42 105.42,24.16 105.85,24.05 106.27,23.94 106.67,23.83 107.18,23.72 107.64,23.96 108.09,24.2 108.28,24.65 108.33,25.06 L 108.25,25.08 Z M 108.25,25.08" />
            <path id="mel06Canvas-bezier20" stroke="none" fill="rgb(51, 91, 113)" d="M 104.56,25.92 C 105.11,26.15 105.68,26.36 106.23,26.5 106.51,26.57 106.79,26.54 107.02,26.63 107.26,26.71 107.44,26.82 107.8,26.85 L 107.85,26.92 C 107.72,27.32 107.25,27.46 106.91,27.46 106.54,27.48 106.26,27.27 105.98,27.12 105.42,26.81 104.94,26.43 104.51,25.99 L 104.56,25.92 Z M 104.56,25.92" />
            <path id="mel06Canvas-bezier21" stroke="none" fill="rgb(51, 91, 113)" d="M 110.91,9.72 C 111.71,10.41 112.32,11.26 112.88,12.15 113.42,13.04 113.87,13.99 114.26,14.96 114.65,15.93 115.03,16.91 115.2,17.95 115.38,18.98 115.46,20.02 115.36,21.07 L 115.28,21.09 C 114.92,20.09 114.66,19.11 114.38,18.13 114.1,17.16 113.94,16.15 113.63,15.18 113.33,14.21 112.97,13.26 112.51,12.35 112.07,11.44 111.55,10.53 110.86,9.79 L 110.91,9.72 Z M 110.91,9.72" />
            <path id="mel06Canvas-bezier22" stroke="none" fill="rgb(51, 91, 113)" d="M 115.35,21.9 C 114.66,22.8 114.21,23.9 114.18,25 114.16,25.55 114.25,26.1 114.44,26.61 114.62,27.11 114.93,27.58 115.23,28.07 115.85,29.03 116.57,29.91 117.16,30.93 117.44,31.43 117.73,31.96 117.92,32.53 118.11,33.09 118.24,33.77 117.97,34.33 L 117.88,34.31 C 117.9,33.74 117.66,33.25 117.39,32.77 117.1,32.3 116.78,31.84 116.45,31.37 115.79,30.45 115.2,29.44 114.65,28.41 114.38,27.9 114.09,27.37 113.92,26.78 113.75,26.19 113.7,25.57 113.77,24.97 113.92,23.77 114.49,22.69 115.29,21.84 L 115.35,21.9 Z M 115.35,21.9" />
            <path id="mel06Canvas-bezier23" stroke="none" fill="rgb(51, 91, 113)" d="M 115.74,35.71 C 115.34,35.57 114.9,35.58 114.5,35.64 114.09,35.7 113.68,35.81 113.3,35.97 112.91,36.12 112.45,36.35 111.96,36.33 111.49,36.3 110.93,36.18 110.64,35.71 L 110.7,35.64 C 111.15,35.66 111.51,35.56 111.9,35.49 112.28,35.4 112.67,35.42 113.11,35.33 113.56,35.24 114.03,35.2 114.49,35.22 114.94,35.27 115.4,35.38 115.78,35.64 L 115.74,35.71 Z M 115.74,35.71" />
            <path id="mel06Canvas-bezier24" stroke="none" fill="rgb(51, 91, 113)" d="M 118.02,34.84 C 118.02,35.47 117.81,36.15 117.28,36.66 117.03,36.9 116.7,37.16 116.32,37.17 115.95,37.19 115.59,37.09 115.32,36.82 L 115.33,36.73 C 115.66,36.55 115.93,36.45 116.16,36.35 116.39,36.25 116.64,36.26 116.87,36.13 117.32,35.88 117.71,35.39 117.94,34.82 L 118.02,34.84 Z M 118.02,34.84" />
            <path id="mel06Canvas-bezier25" stroke="none" fill="rgb(51, 91, 113)" d="M 107.8,42.74 C 108.95,42.03 110.11,41.32 111.2,40.57 111.48,40.37 111.71,40.18 111.96,39.94 112.24,39.72 112.54,39.51 112.87,39.37 113.2,39.23 113.55,39.11 113.94,39.08 114.14,39.07 114.35,39.08 114.55,39.17 114.76,39.26 114.92,39.47 114.91,39.66 L 114.83,39.69 C 114.6,39.42 114.33,39.56 114.06,39.65 113.8,39.78 113.53,39.93 113.26,40.11 L 112.46,40.61 C 112.18,40.78 111.85,40.98 111.56,41.13 110.35,41.79 109.1,42.32 107.84,42.81 L 107.8,42.74 Z M 107.8,42.74" />
            <path id="mel06Canvas-bezier26" stroke="none" fill="rgb(51, 91, 113)" d="M 108.08,44.24 C 108.77,44.63 109.47,44.99 110.18,45.27 110.53,45.4 110.91,45.43 111.18,45.51 111.32,45.55 111.42,45.57 111.53,45.56 111.64,45.55 111.8,45.45 111.94,45.28 L 112.03,45.29 C 112.1,45.5 112.1,45.79 111.89,46.03 111.69,46.26 111.37,46.34 111.12,46.35 110.6,46.36 110.23,46.07 109.88,45.86 109.17,45.43 108.57,44.89 108.02,44.3 L 108.08,44.24 Z M 108.08,44.24" />
            <path id="mel06Canvas-bezier27" stroke="none" fill="rgb(51, 91, 113)" d="M 108.18,45.7 C 108.56,46.07 108.87,46.41 109.24,46.73 109.59,47.06 109.95,47.37 110.34,47.62 110.72,47.87 111.16,47.99 111.45,48.05 111.75,48.13 112.1,47.99 112.54,47.66 L 112.61,47.7 C 112.6,47.97 112.51,48.24 112.31,48.48 112.11,48.71 111.77,48.87 111.44,48.89 110.74,48.91 110.3,48.48 109.92,48.15 109.54,47.79 109.22,47.41 108.92,47.01 108.64,46.61 108.38,46.16 108.14,45.77 L 108.18,45.7 Z M 108.18,45.7" />
            <path id="mel06Canvas-bezier28" stroke="none" fill="rgb(51, 91, 113)" d="M 109.88,49.26 C 109.9,50.15 109.8,51.06 109.49,51.93 109.19,52.78 108.57,53.63 107.61,53.92 106.7,54.19 105.78,54.21 104.86,54.16 103.95,54.11 103.04,53.96 102.15,53.73 100.38,53.29 98.64,52.58 97.14,51.52 95.66,50.44 94.35,49.13 93.4,47.58 L 93.47,47.52 C 94.78,48.76 96.11,49.91 97.61,50.82 99.09,51.74 100.65,52.57 102.33,53.09 104,53.57 105.82,53.89 107.49,53.52 108.31,53.33 108.92,52.63 109.26,51.83 109.6,51.03 109.76,50.14 109.79,49.26 L 109.88,49.26 Z M 109.88,49.26" />
            <path id="mel06Canvas-bezier29" stroke="none" fill="rgb(51, 91, 113)" d="M 95.98,51.86 C 96.15,53.17 96.17,54.5 96.04,55.83 95.97,56.49 95.93,57.18 95.68,57.81 95.43,58.44 95.09,59.06 94.58,59.53 L 94.5,59.49 C 94.61,58.81 94.75,58.2 94.88,57.57 95,56.95 95.24,56.36 95.37,55.73 95.65,54.47 95.82,53.17 95.9,51.87 L 95.98,51.86 Z M 95.98,51.86" />
            <path id="mel06Canvas-bezier30" stroke="none" fill="rgb(51, 91, 113)" d="M 83.97,25.67 C 83.32,24.98 82.39,24.55 81.46,24.58 80.53,24.61 79.65,25.06 79.05,25.75 78.44,26.43 78.09,27.32 78.03,28.22 77.96,29.13 78.15,30.05 78.49,30.91 78.82,31.77 79.29,32.59 79.84,33.34 80.38,34.08 81.01,34.76 81.73,35.31 82.44,35.88 83.28,36.28 84.16,36.47 84.61,36.56 85.07,36.6 85.52,36.53 85.96,36.47 86.44,36.32 86.65,35.91 L 86.73,35.93 C 86.62,36.47 86.07,36.74 85.6,36.9 85.11,37.05 84.59,37.08 84.08,37.05 83.06,36.96 82.08,36.55 81.24,35.99 80.4,35.39 79.71,34.65 79.15,33.8 78.61,32.98 78.16,32.08 77.85,31.14 77.54,30.19 77.37,29.18 77.49,28.17 77.6,27.17 78.03,26.18 78.74,25.46 79.45,24.74 80.45,24.3 81.46,24.33 82.47,24.36 83.41,24.87 84.03,25.62 L 83.97,25.67 Z M 83.97,25.67" />
            <path id="mel06Canvas-bezier31" stroke="none" fill="rgb(51, 91, 113)" d="M 79.53,26.48 C 80,26.11 80.48,25.75 81.09,25.54 81.25,25.49 81.42,25.46 81.62,25.48 81.82,25.5 81.94,25.55 82.1,25.6 82.4,25.71 82.7,25.86 82.96,26.07 83.49,26.48 83.91,27.1 83.96,27.76 84.03,28.42 83.9,29.05 83.59,29.6 L 83.51,29.58 C 83.36,28.97 83.29,28.42 83.14,27.92 82.98,27.43 82.87,26.94 82.51,26.57 82.34,26.38 82.12,26.22 81.89,26.1 81.62,25.97 81.46,25.89 81.18,25.95 80.65,26.02 80.09,26.27 79.58,26.54 L 79.53,26.48 Z M 79.53,26.48" />
            <path id="mel06Canvas-bezier32" stroke="none" fill="rgb(51, 91, 113)" d="M 85.09,30.02 C 85.04,30.36 85.05,30.71 85.11,31.02 85.14,31.17 85.19,31.31 85.26,31.42 85.29,31.48 85.33,31.52 85.37,31.56 85.41,31.59 85.46,31.62 85.56,31.72 85.86,32.03 86.17,32.45 85.96,33.03 85.9,33.16 85.79,33.31 85.63,33.4 85.47,33.48 85.3,33.5 85.17,33.47 84.91,33.41 84.77,33.24 84.66,33.06 L 84.7,32.99 C 84.9,32.97 85.08,32.94 85.17,32.88 85.26,32.8 85.16,32.8 85.16,32.76 85.14,32.67 85.19,32.36 85.06,32.16 85.04,32.12 84.96,32.04 84.89,31.94 84.83,31.84 84.78,31.73 84.75,31.63 84.69,31.42 84.68,31.22 84.69,31.03 84.74,30.66 84.86,30.32 85.01,30 L 85.09,30.02 Z M 85.09,30.02" />
            <path id="mel06Canvas-bezier33" stroke="none" fill="rgb(51, 91, 113)" d="M 82.61,28.89 C 82.24,29.33 81.92,29.8 81.71,30.26 81.61,30.5 81.63,30.75 81.54,30.94 81.45,31.14 81.38,31.33 81.29,31.68 L 81.22,31.72 C 80.88,31.57 80.7,31.18 80.71,30.82 80.7,30.44 80.95,30.16 81.14,29.92 81.54,29.42 82.03,29.08 82.56,28.83 L 82.61,28.89 Z M 82.61,28.89" />
            <path id="mel06Canvas-bezier34" stroke="none" fill="rgb(51, 91, 113)" d="M 102.51,21.5 C 103.81,20.55 105.33,19.81 107.05,19.72 107.88,19.68 108.83,19.81 109.55,20.35 110.27,20.88 110.75,21.66 110.92,22.47 L 110.85,22.51 C 110.27,21.92 109.72,21.4 109.09,21.05 108.47,20.72 107.8,20.43 107.04,20.39 106.29,20.34 105.51,20.47 104.76,20.69 104,20.89 103.26,21.19 102.56,21.57 L 102.51,21.5 Z M 102.51,21.5" />
            <path id="mel06Canvas-bezier35" stroke="none" fill="rgb(51, 91, 113)" d="M 76.2,38.72 C 76.02,40.98 75.49,43.23 74.48,45.3 73.97,46.33 73.3,47.3 72.44,48.11 72.01,48.51 71.54,48.86 71.02,49.15 70.48,49.45 69.96,49.64 69.42,49.86 67.27,50.69 65.02,51.24 62.77,51.59 61.64,51.75 60.52,51.92 59.41,52.11 58.3,52.3 57.2,52.53 56.15,52.96 L 56.11,52.88 C 57.07,52.24 58.18,51.86 59.28,51.54 60.39,51.23 61.51,51.01 62.62,50.76 64.84,50.31 67.06,49.95 69.19,49.23 69.71,49.05 70.25,48.86 70.73,48.62 71.21,48.37 71.66,48.06 72.08,47.7 72.9,46.99 73.57,46.08 74.11,45.11 75.19,43.16 75.83,40.95 76.12,38.71 L 76.2,38.72 Z M 76.2,38.72" />
            <path id="mel06Canvas-bezier36" stroke="none" fill="rgb(51, 91, 113)" d="M 63.7,51 C 63.69,54.69 63.88,58.37 64.22,62.05 64.58,65.72 65.1,69.37 65.9,72.97 66.69,76.55 67.74,80.11 69.36,83.4 70.18,85.03 71.14,86.6 72.33,87.97 73.52,89.35 74.95,90.51 76.6,91.23 78.24,91.95 80.08,92.2 81.86,92.05 83.65,91.89 85.37,91.26 86.88,90.29 89.95,88.37 92.21,85.37 94.03,82.22 95.89,79.07 97.32,75.67 98.55,72.2 99.16,70.47 99.71,68.71 100.21,66.94 100.72,65.17 101.19,63.38 101.57,61.58 L 101.65,61.59 C 101.08,65.24 100.22,68.85 99.1,72.39 97.98,75.92 96.58,79.38 94.76,82.64 92.89,85.85 90.57,88.96 87.32,91 85.7,91.99 83.84,92.65 81.92,92.79 80.02,92.93 78.07,92.64 76.32,91.84 74.58,91.05 73.08,89.8 71.87,88.37 70.65,86.93 69.68,85.31 68.87,83.64 67.26,80.27 66.25,76.67 65.48,73.06 64.74,69.43 64.27,65.75 63.97,62.07 63.68,58.39 63.55,54.69 63.62,51 L 63.7,51 Z M 63.7,51" />
            <path id="mel06Canvas-bezier37" stroke="none" fill="rgb(51, 91, 113)" d="M 97.36,56.44 C 98.19,57.37 99.2,58.17 100.31,58.69 100.86,58.95 101.45,59.14 102.04,59.2 102.34,59.23 102.63,59.24 102.93,59.21 103.24,59.18 103.57,59.15 103.89,59.14 105.17,59.07 106.46,59.04 107.75,59.33 108.38,59.49 109.03,59.67 109.61,60.07 109.89,60.27 110.19,60.55 110.27,60.95 110.32,61.36 110.11,61.69 109.87,61.9 L 109.8,61.85 C 109.94,61.57 110.02,61.26 109.9,61.05 109.8,60.84 109.57,60.69 109.31,60.58 108.79,60.36 108.19,60.24 107.59,60.15 106.38,59.99 105.15,59.83 103.9,59.8 103.59,59.8 103.28,59.81 102.97,59.82 102.63,59.83 102.29,59.8 101.96,59.74 101.3,59.63 100.69,59.38 100.12,59.06 98.99,58.41 98.05,57.51 97.29,56.49 L 97.36,56.44 Z M 97.36,56.44" />
            <path id="mel06Canvas-bezier38" stroke="none" fill="rgb(51, 91, 113)" d="M 107.86,61.89 C 107.97,62.02 108.28,62.2 108.5,62.33 L 109.22,62.74 110.69,63.52 C 111.68,64.03 112.68,64.52 113.68,65.01 114.68,65.5 115.68,65.98 116.69,66.44 117.73,66.92 118.67,67.54 119.59,68.18 121.43,69.47 123.2,70.88 124.71,72.56 125.44,73.41 126.16,74.3 126.72,75.29 126.99,75.79 127.24,76.31 127.41,76.86 127.56,77.41 127.64,78.01 127.47,78.57 L 127.39,78.55 C 127.42,78 127.28,77.48 127.05,76.99 126.83,76.5 126.54,76.04 126.22,75.6 125.59,74.72 124.87,73.9 124.09,73.13 122.55,71.58 120.94,70.06 119.2,68.72 118.32,68.06 117.42,67.41 116.45,66.93 115.45,66.43 114.47,65.91 113.48,65.38 112.51,64.84 111.54,64.3 110.57,63.74 L 109.13,62.89 108.43,62.44 108.08,62.2 107.92,62.07 C 107.87,62.01 107.78,62.01 107.78,61.86 L 107.86,61.89 Z M 107.86,61.89" />
            <path id="mel06Canvas-bezier39" stroke="none" fill="rgb(51, 91, 113)" d="M 126.33,79.15 C 125.02,80.36 123.87,81.75 122.93,83.24 121.98,84.72 121.23,86.35 120.96,88.06 120.86,88.87 120.8,89.87 120.5,90.75 120.22,91.65 119.77,92.49 119.2,93.22 118.61,93.95 117.94,94.59 117.23,95.15 L 116.17,95.97 C 115.83,96.24 115.46,96.52 115.36,96.93 L 115.28,96.93 C 115.26,96.42 115.63,96.04 115.91,95.69 116.21,95.36 116.53,95.04 116.84,94.72 117.45,94.08 118.05,93.44 118.52,92.73 119.01,92.03 119.42,91.28 119.71,90.48 120.03,89.68 120.13,88.88 120.3,87.94 120.68,86.13 121.54,84.48 122.58,83 123.64,81.54 124.88,80.22 126.27,79.09 L 126.33,79.15 Z M 126.33,79.15" />
            <path id="mel06Canvas-bezier40" stroke="none" fill="rgb(51, 91, 113)" d="M 117.17,77.1 C 116.88,79.48 116.42,81.84 115.75,84.16 115.4,85.31 114.99,86.45 114.46,87.55 113.92,88.64 113.28,89.72 112.31,90.56 110.44,92.06 108.82,93.78 107.29,95.59 106.52,96.49 105.83,97.44 105.2,98.44 104.59,99.45 104.05,100.51 103.76,101.67 L 103.68,101.65 C 103.74,100.44 104.16,99.26 104.69,98.16 105.23,97.06 105.91,96.05 106.63,95.07 108.11,93.14 109.95,91.48 111.88,90.04 112.76,89.34 113.42,88.34 113.97,87.3 114.52,86.26 114.96,85.16 115.35,84.03 116.12,81.78 116.69,79.44 117.09,77.09 L 117.17,77.1 Z M 117.17,77.1" />
            <path id="mel06Canvas-bezier41" stroke="none" fill="rgb(51, 91, 113)" d="M 112.62,92.64 C 112.86,93.29 113.1,93.94 113.36,94.57 113.49,94.89 113.69,95.17 113.76,95.48 113.85,95.8 113.85,96.1 113.98,96.44 L 113.95,96.51 C 113.72,96.53 113.5,96.4 113.35,96.26 113.2,96.13 113.09,95.97 112.99,95.81 112.78,95.48 112.78,95.11 112.71,94.76 112.59,94.06 112.54,93.36 112.54,92.65 L 112.62,92.64 Z M 112.62,92.64" />
            <path id="mel06Canvas-bezier42" stroke="none" fill="rgb(51, 91, 113)" d="M 109.85,53.45 C 110.53,53.78 111.26,54.03 111.99,54.17 112.72,54.3 113.49,54.33 114.15,54.06 114.81,53.81 115.28,53.25 115.51,52.57 115.76,51.91 115.86,51.16 115.9,50.43 115.98,48.95 115.79,47.45 115.68,45.96 L 115.28,41.44 115.36,41.41 C 115.95,42.84 116.28,44.35 116.51,45.86 116.74,47.38 116.74,48.94 116.57,50.48 116.48,51.26 116.34,52.03 116.02,52.78 115.72,53.52 115.09,54.21 114.29,54.45 113.5,54.71 112.68,54.61 111.94,54.42 111.18,54.21 110.48,53.91 109.81,53.52 L 109.85,53.45 Z M 109.85,53.45" />
            <path id="mel06Canvas-bezier43" stroke="none" fill="rgb(51, 91, 113)" d="M 119.59,42.79 C 119.05,41.89 118.6,40.94 118.22,39.95 118.04,39.46 117.8,38.97 117.75,38.43 117.7,37.9 117.72,37.34 117.94,36.81 L 118.02,36.81 C 118.27,37.31 118.42,37.79 118.58,38.27 118.73,38.75 118.76,39.26 118.87,39.76 119.09,40.76 119.36,41.77 119.66,42.76 L 119.59,42.79 Z M 119.59,42.79" />
            <path id="mel06Canvas-bezier44" stroke="none" fill="rgb(51, 91, 113)" d="M 115.51,27.63 C 115.61,27.16 115.8,26.68 116.2,26.3 116.61,25.92 117.27,25.81 117.81,25.94 L 117.8,25.94 117.84,25.95 C 118.13,26.05 118.31,26.21 118.45,26.37 118.6,26.54 118.69,26.72 118.76,26.91 118.91,27.28 118.98,27.66 118.93,28.08 L 118.85,28.11 C 118.53,27.84 118.3,27.56 118.08,27.3 117.86,27.05 117.67,26.74 117.55,26.64 L 117.58,26.65 C 117.23,26.47 116.83,26.46 116.47,26.67 116.11,26.87 115.79,27.24 115.59,27.66 L 115.51,27.63 Z M 115.51,27.63" />
            <path id="mel06Canvas-bezier45" stroke="none" fill="rgb(51, 91, 113)" d="M 123.15,42.56 C 122.94,41.53 122.63,40.52 122.22,39.55 121.85,38.57 121.19,37.74 120.76,36.73 120.33,35.74 120.11,34.66 120,33.6 119.95,33.07 119.91,32.53 119.88,32.01 119.83,31.51 119.72,31.02 119.55,30.55 119.47,30.31 119.37,30.08 119.26,29.83 119.17,29.58 119.02,29.34 119.02,28.92 119.02,28.71 119.13,28.47 119.27,28.33 119.4,28.18 119.55,28.08 119.68,28.01 119.97,27.86 120.21,27.75 120.56,27.69 121.24,27.56 121.96,27.93 122.35,28.39 122.75,28.87 122.99,29.39 123.17,29.93 123.34,30.5 123.39,30.98 123.54,31.49 L 123.94,33.02 C 124.07,33.53 124.21,34.03 124.35,34.54 124.5,35.04 124.63,35.56 124.86,36.01 L 124.8,36.07 C 124.13,35.19 123.79,34.18 123.38,33.19 123.18,32.7 123.01,32.2 122.84,31.69 122.66,31.2 122.54,30.63 122.38,30.2 122.06,29.29 121.44,28.39 120.67,28.51 120.3,28.54 119.71,28.84 119.77,28.96 119.76,29.08 119.84,29.34 119.93,29.57 120.02,29.82 120.11,30.08 120.19,30.34 120.36,30.87 120.46,31.42 120.48,31.97 120.5,32.51 120.51,33.03 120.55,33.55 120.61,34.59 120.78,35.61 121.15,36.57 121.5,37.54 122.12,38.43 122.46,39.46 122.82,40.46 123.07,41.5 123.23,42.54 L 123.15,42.56 Z M 123.15,42.56" />
            <path id="mel06Canvas-bezier46" stroke="none" fill="rgb(51, 91, 113)" d="M 127.79,44.15 C 126.88,42.76 126.4,41.11 126.13,39.5 125.94,38.7 125.65,37.95 125.35,37.17 125.19,36.79 125.1,36.35 125,35.97 124.89,35.58 124.76,35.18 124.71,34.74 124.69,34.52 124.68,34.28 124.77,34.03 124.86,33.78 125.09,33.57 125.33,33.48 125.77,33.32 126.29,33.34 126.72,33.54 127.58,33.94 128.07,34.81 128.31,35.6 128.88,37.14 129.47,38.68 130.08,40.2 130.4,40.96 130.72,41.72 131.05,42.46 131.22,42.83 131.4,43.2 131.59,43.56 131.68,43.73 131.78,43.9 131.88,44.05 L 132.06,44.3 C 132.13,44.39 132.19,44.49 132.24,44.58 133.09,46.09 133.63,47.66 134.08,49.28 134.91,52.5 135.29,55.91 134.64,59.18 L 134.56,59.17 C 134.72,55.88 134.22,52.62 133.27,49.5 133.05,48.72 132.79,47.95 132.49,47.19 132.21,46.44 131.9,45.68 131.52,44.99 L 131.38,44.75 131.2,44.5 C 131.08,44.3 130.98,44.11 130.88,43.91 130.69,43.53 130.53,43.15 130.37,42.76 130.04,41.99 129.75,41.22 129.46,40.45 128.88,38.9 128.32,37.34 127.8,35.77 127.58,35.01 127.17,34.31 126.51,33.98 126.19,33.82 125.82,33.8 125.49,33.9 125.18,34 125.09,34.31 125.12,34.7 125.15,35.08 125.26,35.48 125.36,35.88 125.46,36.3 125.52,36.68 125.66,37.06 125.93,37.83 126.21,38.63 126.37,39.45 126.53,40.27 126.61,41.08 126.88,41.86 127.12,42.64 127.44,43.4 127.86,44.1 L 127.79,44.15 Z M 127.79,44.15" />
            <path id="mel06Canvas-bezier47" stroke="none" fill="rgb(51, 91, 113)" d="M 101.53,53.96 C 101.45,54.09 101.42,54.26 101.48,54.41 101.53,54.56 101.66,54.67 101.8,54.76 102.08,54.93 102.42,55.02 102.75,55.08 103.43,55.2 104.12,55.22 104.81,55.22 L 104.88,55.22 104.94,55.29 C 105.3,55.74 105.92,56.02 106.49,56.27 107.08,56.52 107.69,56.73 108.3,56.92 109.53,57.29 110.79,57.6 112.05,57.85 L 112.11,57.86 112.17,57.91 C 114.07,59.23 116.07,60.42 118.04,61.62 119.02,62.22 120.01,62.82 121.03,63.34 121.54,63.61 122.06,63.86 122.59,64.07 123.12,64.27 123.67,64.46 124.24,64.42 L 124.26,64.5 C 123.67,64.68 123.05,64.56 122.47,64.45 121.89,64.31 121.33,64.11 120.78,63.9 119.68,63.45 118.63,62.93 117.61,62.35 115.56,61.19 113.68,59.8 111.8,58.41 L 111.92,58.47 C 110.64,58.16 109.39,57.8 108.15,57.37 107.53,57.15 106.92,56.92 106.32,56.63 105.74,56.33 105.12,56.04 104.69,55.45 L 104.81,55.52 C 104.11,55.48 103.41,55.43 102.71,55.26 102.37,55.18 102.03,55.08 101.72,54.87 101.57,54.77 101.43,54.63 101.37,54.44 101.31,54.26 101.36,54.06 101.47,53.9 L 101.53,53.96 Z M 101.53,53.96" />
            <path id="mel06Canvas-bezier48" stroke="none" fill="rgb(51, 91, 113)" d="M 123.05,65.28 C 125.41,68.46 127.46,71.86 129.3,75.37 131.12,78.89 132.7,82.55 133.94,86.32 134.57,88.2 135.11,90.12 135.54,92.06 135.96,94 136.37,95.92 136.83,97.83 137.26,99.75 137.77,101.65 138.35,103.53 138.64,104.46 138.97,105.39 139.35,106.29 139.54,106.74 139.74,107.19 139.98,107.61 140.23,108.03 140.48,108.47 140.86,108.75 L 140.83,108.83 C 140.36,108.57 140.07,108.15 139.78,107.74 139.49,107.33 139.24,106.89 139,106.45 138.55,105.56 138.16,104.65 137.8,103.72 137.08,101.86 136.53,99.95 136.01,98.03 135.52,96.11 135.1,94.17 134.73,92.23 134.35,90.31 133.87,88.4 133.3,86.52 132.15,82.76 130.66,79.1 128.92,75.56 127.19,72.02 125.24,68.57 122.98,65.33 L 123.05,65.28 Z M 123.05,65.28" />
            <path id="mel06Canvas-bezier49" stroke="none" fill="rgb(51, 91, 113)" d="M 135.62,60.76 C 137.26,64.49 138.91,68.22 140.68,71.87 141.13,72.78 141.58,73.71 142.11,74.53 142.69,75.4 143.17,76.29 143.68,77.18 144.68,78.95 145.66,80.74 146.63,82.53 148.57,86.12 150.52,89.7 152.28,93.38 153.15,95.22 154.02,97.07 154.83,98.94 155.23,99.88 155.62,100.82 155.99,101.78 156.32,102.74 156.73,103.69 156.84,104.73 L 156.76,104.73 C 156.53,103.76 156.06,102.84 155.63,101.93 155.2,101.01 154.75,100.1 154.3,99.19 153.38,97.37 152.47,95.55 151.53,93.75 L 146.04,82.85 C 145.1,81.04 144.16,79.23 143.2,77.44 142.72,76.55 142.24,75.63 141.71,74.8 141.15,73.9 140.74,72.98 140.3,72.05 138.62,68.34 137.07,64.57 135.54,60.8 L 135.62,60.76 Z M 135.62,60.76" />
            <path id="mel06Canvas-bezier50" stroke="none" fill="rgb(51, 91, 113)" d="M 156.84,106.75 C 157.01,107.59 157.11,108.43 157.13,109.29 157.15,110.14 157.11,111.01 156.81,111.86 156.65,112.27 156.41,112.7 156,112.98 155.91,113.06 155.8,113.11 155.68,113.17 155.58,113.21 155.49,113.26 155.38,113.29 155.17,113.38 154.96,113.44 154.75,113.5 153.91,113.73 153.06,113.89 152.21,114 150.5,114.22 148.76,114.33 147.04,114.11 145.34,113.87 143.57,113.42 142.18,112.37 L 142.22,112.3 C 143.81,112.93 145.46,113.15 147.12,113.28 148.78,113.38 150.46,113.46 152.14,113.33 152.97,113.26 153.8,113.16 154.61,112.97 154.81,112.93 155.02,112.87 155.2,112.81 155.29,112.79 155.4,112.75 155.5,112.71 155.57,112.67 155.66,112.64 155.73,112.59 156.04,112.4 156.26,112.07 156.42,111.7 156.74,110.97 156.84,110.12 156.88,109.29 156.91,108.45 156.87,107.6 156.76,106.77 L 156.84,106.75 Z M 156.84,106.75" />
            <path id="mel06Canvas-bezier51" stroke="none" fill="rgb(51, 91, 113)" d="M 140.22,111.87 C 136.44,109.19 132.64,106.54 128.8,103.95 126.87,102.66 124.91,101.43 123,100.13 122.05,99.47 121.09,98.84 120.12,98.21 119.64,97.89 119.15,97.58 118.66,97.29 118.17,96.99 117.66,96.71 117.13,96.52 L 117.14,96.43 C 118.32,96.63 119.37,97.19 120.42,97.7 121.46,98.24 122.46,98.84 123.46,99.43 125.44,100.64 127.31,102.03 129.18,103.4 132.95,106.12 136.64,108.92 140.28,111.8 L 140.22,111.87 Z M 140.22,111.87" />
            <path id="mel06Canvas-bezier52" stroke="none" fill="rgb(51, 91, 113)" d="M 127.89,79.1 C 128.57,79.77 129.22,80.46 129.86,81.16 130.18,81.51 130.56,81.81 130.8,82.22 131.05,82.63 131.26,83.06 131.37,83.57 L 131.3,83.63 C 130.83,83.39 130.47,83.08 130.13,82.74 129.8,82.4 129.59,81.96 129.33,81.57 128.81,80.77 128.31,79.97 127.82,79.15 L 127.89,79.1 Z M 127.89,79.1" />
            <path id="mel06Canvas-bezier53" stroke="none" fill="rgb(51, 91, 113)" d="M 101.67,104.75 C 100.8,107.11 99.34,109.3 97.34,110.95 96.35,111.77 95.21,112.5 93.94,112.84 92.68,113.19 91.34,113.25 90.08,112.97 L 90.08,112.89 C 91.35,112.71 92.55,112.47 93.68,112.05 94.82,111.63 95.93,111.13 96.93,110.42 97.93,109.71 98.82,108.84 99.59,107.87 100.38,106.91 101.07,105.85 101.59,104.72 L 101.67,104.75 Z M 101.67,104.75" />
            <path id="mel06Canvas-bezier54" stroke="none" fill="rgb(51, 91, 113)" d="M 38.81,92.63 C 40.61,96.58 41.94,100.75 42.67,105.04 42.85,106.11 42.98,107.2 43.06,108.29 43.17,109.37 43.11,110.49 43.23,111.52 43.48,113.63 44.14,115.69 44.94,117.68 46.58,121.66 48.83,125.37 51.25,128.92 52.46,130.71 53.77,132.43 55.17,134.06 55.87,134.88 56.6,135.67 57.39,136.41 58.16,137.16 58.99,137.86 59.91,138.42 L 59.87,138.49 C 57.89,137.54 56.26,136.01 54.74,134.45 53.22,132.88 51.86,131.16 50.56,129.41 48.02,125.86 45.9,122 44.32,117.93 43.54,115.89 42.9,113.77 42.69,111.57 42.58,110.45 42.67,109.39 42.58,108.31 42.52,107.24 42.41,106.17 42.26,105.1 41.64,100.84 40.43,96.64 38.74,92.66 L 38.81,92.63 Z M 38.81,92.63" />
            <path id="mel06Canvas-bezier55" stroke="none" fill="rgb(51, 91, 113)" d="M 110.35,94.85 C 109.97,98.45 109.63,102.05 109.32,105.65 109.02,109.25 108.72,112.86 108.67,116.46 108.67,116.9 108.67,117.35 108.7,117.79 108.71,118.01 108.73,118.23 108.75,118.44 108.77,118.66 108.84,118.81 108.85,119.16 108.84,119.74 108.55,120.25 108.23,120.63 107.91,121.01 107.53,121.32 107.15,121.6 105.59,122.68 103.9,123.38 102.24,124.11 100.55,124.8 98.88,125.49 97.24,126.24 95.6,126.98 93.98,127.79 92.51,128.85 L 92.46,128.79 C 93.79,127.53 95.37,126.58 96.98,125.71 98.59,124.85 100.26,124.12 101.9,123.35 102.72,122.98 103.55,122.61 104.35,122.21 105.15,121.81 105.95,121.41 106.67,120.92 107.37,120.45 108.07,119.83 108.09,119.15 108.11,119.04 108.04,118.76 108.02,118.52 108,118.28 107.99,118.05 107.98,117.82 107.97,117.36 107.98,116.9 107.99,116.44 108.13,112.8 108.52,109.21 108.91,105.61 109.32,102.01 109.77,98.42 110.27,94.84 L 110.35,94.85 Z M 110.35,94.85" />
            <path id="mel06Canvas-bezier56" stroke="none" fill="rgb(51, 91, 113)" d="M 106.33,124.13 C 106.43,133.16 106.59,142.19 106.89,151.21 107.06,155.71 107.17,160.24 107.67,164.7 107.76,165.24 107.81,165.84 108.06,166.22 108.13,166.38 108.23,166.51 108.22,166.79 108.22,166.93 108.11,167.1 108.01,167.17 107.9,167.24 107.8,167.27 107.72,167.3 107.37,167.38 107.09,167.36 106.79,167.37 105.64,167.34 104.52,167.26 103.4,167.27 101.15,167.27 98.91,167.5 96.71,167.97 88.02,170.51 78.91,171.71 69.85,172.28 65.31,172.5 60.75,172.54 56.22,172.13 53.95,171.92 51.69,171.6 49.47,171.05 47.28,170.48 45.07,169.73 43.24,168.36 L 43.29,168.29 C 45.16,169.57 47.37,170.21 49.56,170.68 51.77,171.15 54.01,171.4 56.26,171.55 60.77,171.83 65.3,171.75 69.81,171.44 74.32,171.18 78.82,170.71 83.29,170.05 85.53,169.72 87.76,169.35 89.97,168.9 91.07,168.67 92.18,168.43 93.26,168.14 94.34,167.83 95.46,167.53 96.58,167.31 98.82,166.86 101.11,166.64 103.4,166.67 104.54,166.67 105.69,166.75 106.8,166.79 107.07,166.79 107.36,166.8 107.57,166.75 107.62,166.74 107.66,166.72 107.67,166.71 107.68,166.7 107.65,166.73 107.65,166.73 107.67,166.72 107.63,166.59 107.57,166.5 107.51,166.41 107.4,166.2 107.37,166.06 107.32,165.91 107.29,165.77 107.27,165.62 107.21,165.34 107.17,165.05 107.13,164.77 106.66,160.25 106.6,155.74 106.47,151.22 106.28,142.19 106.23,133.16 106.24,124.13 L 106.33,124.13 Z M 106.33,124.13" />
            <path id="mel06Canvas-bezier57" stroke="none" fill="rgb(51, 91, 113)" d="M 41.22,139.52 C 41.64,136.39 42.05,133.25 42.4,130.12 42.56,128.55 42.66,126.98 42.85,125.42 43.01,123.86 43.32,122.3 43.22,120.75 L 43.3,120.72 C 43.63,121.48 43.66,122.3 43.71,123.1 43.76,123.9 43.73,124.7 43.69,125.49 43.6,127.08 43.32,128.64 43.06,130.21 42.56,133.34 41.96,136.44 41.31,139.54 L 41.22,139.52 Z M 41.22,139.52" />
            <path id="mel06Canvas-bezier58" stroke="none" fill="rgb(51, 91, 113)" d="M 40.42,167.23 C 39.4,167.64 38.43,168.31 37.23,168.48 36.93,168.51 36.6,168.51 36.27,168.37 35.95,168.24 35.69,167.94 35.58,167.62 35.35,166.99 35.42,166.38 35.5,165.79 35.58,165.21 35.74,164.65 35.85,164.11 35.97,163.56 36.1,163.02 36.25,162.48 36.57,161.4 36.91,160.32 37.37,159.26 L 37.46,159.28 C 37.44,160.43 37.28,161.56 37.07,162.67 36.95,163.23 36.82,163.78 36.65,164.32 36.48,164.88 36.28,165.39 36.16,165.92 36.04,166.44 35.96,166.99 36.09,167.44 36.21,167.9 36.66,168.09 37.19,168.06 38.28,168.03 39.31,167.47 40.41,167.15 L 40.42,167.23 Z M 40.42,167.23" />
            <path id="mel06Canvas-bezier59" stroke="none" fill="rgb(51, 91, 113)" d="M 103.42,169.09 C 102.77,171.98 102.49,174.94 102.48,177.89 102.46,179.37 102.61,180.84 102.63,182.33 102.67,183.81 102.67,185.3 102.67,186.78 102.67,192.71 102.53,198.63 102.36,204.56 102.18,210.48 101.97,216.4 101.61,222.33 101.51,223.81 101.42,225.29 101.27,226.77 101.2,227.51 101.12,228.25 101.02,228.99 100.92,229.72 100.79,230.51 100.54,231.23 99.73,234.01 99.49,236.98 99.58,239.87 L 99.59,240.41 99.09,240.28 C 95.82,239.49 92.51,238.77 89.21,238.08 87.56,237.74 85.9,237.43 84.23,237.16 83.4,237.02 82.57,236.9 81.73,236.81 80.89,236.73 80.04,236.64 79.22,236.78 L 79.2,236.7 C 80.04,236.51 80.9,236.56 81.75,236.59 82.59,236.64 83.44,236.72 84.28,236.81 85.97,237 87.64,237.27 89.31,237.55 92.65,238.11 95.96,238.8 99.28,239.52 L 98.79,239.93 C 98.61,236.91 98.91,233.91 99.75,230.99 100.18,229.64 100.28,228.15 100.45,226.69 100.59,225.22 100.72,223.75 100.83,222.27 101.28,216.37 101.56,210.45 101.81,204.54 102.04,198.62 102.23,192.7 102.33,186.78 102.35,185.3 102.37,183.82 102.36,182.34 102.36,180.86 102.23,179.38 102.26,177.89 102.32,174.92 102.65,171.96 103.35,169.07 L 103.42,169.09 Z M 103.42,169.09" />
            <path id="mel06Canvas-bezier60" stroke="none" fill="rgb(51, 91, 113)" d="M 79.25,232.78 C 79.32,233.71 79.31,234.66 79.16,235.59 78.99,236.52 78.67,237.45 78.03,238.18 77.4,238.91 76.44,239.33 75.48,239.35 74.52,239.39 73.57,239.12 72.71,238.71 71.13,237.6 69.24,237.41 67.38,237.19 65.51,236.99 63.63,236.89 61.75,236.82 57.99,236.69 54.22,236.69 50.46,236.73 46.69,236.77 42.92,236.87 39.16,237.02 L 38.87,237.03 38.87,236.73 C 38.91,231.05 38.66,225.35 37.88,219.73 37.48,216.93 36.95,214.13 36.03,211.47 35.8,210.81 35.55,210.16 35.25,209.53 34.97,208.9 34.58,208.34 34.26,207.63 33.65,206.3 33.24,204.9 32.93,203.48 32.33,200.65 32.1,197.78 32.11,194.91 32.11,192.04 32.31,189.17 32.7,186.34 33.09,183.5 33.69,180.69 34.52,177.95 35.38,175.22 36.48,172.53 38.17,170.21 L 38.24,170.26 C 36.65,172.63 35.7,175.35 34.93,178.07 34.18,180.8 33.68,183.61 33.35,186.42 33.01,189.23 32.86,192.07 32.9,194.9 32.96,197.73 33.17,200.56 33.75,203.31 34.05,204.68 34.44,206.03 35.02,207.29 35.29,207.89 35.7,208.51 36,209.18 36.32,209.85 36.58,210.52 36.82,211.21 37.73,213.96 38.23,216.8 38.61,219.63 39.32,225.32 39.53,231.03 39.44,236.75 L 39.14,236.46 C 42.91,236.34 46.68,236.28 50.45,236.26 54.22,236.25 58,236.29 61.77,236.47 63.65,236.56 65.53,236.69 67.41,236.91 68.35,237.02 69.29,237.16 70.21,237.38 70.67,237.49 71.14,237.62 71.58,237.83 72.01,238.07 72.37,238.33 72.81,238.52 73.64,238.93 74.55,239.2 75.48,239.17 76.4,239.16 77.31,238.78 77.92,238.08 78.54,237.39 78.87,236.49 79.04,235.58 79.21,234.66 79.22,233.72 79.17,232.79 L 79.25,232.78 Z M 79.25,232.78" />
            <path id="mel06Canvas-bezier61" stroke="none" fill="rgb(51, 91, 113)" d="M 70.26,24.09 C 70.08,24.64 69.98,25.22 69.95,25.79 69.9,26.36 69.94,26.92 70.09,27.45 70.22,27.98 70.53,28.41 70.78,28.86 71.05,29.32 71.39,29.74 71.77,30.24 L 71.73,30.31 C 71.1,30.2 70.53,29.85 70.1,29.36 69.67,28.86 69.5,28.19 69.43,27.57 69.27,26.31 69.61,25.09 70.18,24.05 L 70.26,24.09 Z M 70.26,24.09" />
            <path id="mel06Canvas-bezier62" stroke="none" fill="rgb(51, 91, 113)" d="M 68.77,26 C 67.94,25.93 67.1,25.94 66.27,26.03 65.45,26.13 64.62,26.3 63.92,26.72 63.58,26.93 63.28,27.21 63.12,27.56 62.95,27.91 62.91,28.31 62.96,28.7 63,29.1 63.16,29.45 63.29,29.87 63.4,30.28 63.53,30.77 63.24,31.26 62.91,31.72 62.37,31.77 61.95,31.81 61.51,31.84 61.09,31.82 60.67,31.81 60.26,31.8 59.85,31.79 59.46,31.85 59.08,31.91 58.74,32.06 58.59,32.32 58.44,32.59 58.44,32.98 58.5,33.36 58.57,33.75 58.69,34.11 58.84,34.52 59.13,35.32 59.21,36.39 58.64,37.21 58.08,38.01 57.23,38.42 56.45,38.76 55.65,39.09 54.83,39.32 54.06,39.6 53.33,39.87 52.49,40.24 52.37,40.74 52.29,40.97 52.38,41.3 52.55,41.62 52.71,41.96 52.96,42.25 53.22,42.62 53.46,43.01 53.7,43.42 53.75,43.96 53.83,44.52 53.46,45.11 53.04,45.36 52.2,45.88 51.34,45.99 50.5,46.11 49.66,46.22 48.82,46.28 48.02,46.44 47.64,46.52 47.18,46.63 47.04,46.91 46.92,47.21 47.24,47.61 47.5,47.9 L 47.44,47.96 C 47.28,47.82 47.12,47.68 46.99,47.5 46.86,47.34 46.73,47.1 46.81,46.83 46.89,46.57 47.12,46.42 47.31,46.32 47.51,46.21 47.72,46.14 47.92,46.07 48.75,45.83 49.59,45.71 50.4,45.54 51.19,45.35 52.05,45.19 52.62,44.77 52.9,44.56 53.02,44.33 52.97,44.04 52.93,43.74 52.74,43.4 52.53,43.1 52.31,42.78 52.01,42.44 51.79,42.02 51.58,41.62 51.37,41.09 51.53,40.5 51.7,39.91 52.17,39.57 52.56,39.34 52.97,39.12 53.38,38.97 53.79,38.82 54.61,38.55 55.41,38.35 56.17,38.06 56.92,37.78 57.66,37.42 58.09,36.83 58.52,36.25 58.5,35.45 58.26,34.71 58.13,34.32 57.99,33.89 57.93,33.45 57.87,33.01 57.85,32.51 58.13,32.04 58.42,31.57 58.96,31.4 59.39,31.35 59.84,31.29 60.27,31.31 60.69,31.33 61.11,31.35 61.53,31.38 61.93,31.36 62.32,31.35 62.73,31.27 62.9,31.02 63.08,30.78 63.03,30.35 62.93,29.98 62.82,29.6 62.66,29.17 62.63,28.73 62.58,28.3 62.64,27.83 62.85,27.43 63.07,27.03 63.42,26.72 63.79,26.51 64.56,26.08 65.42,25.94 66.26,25.86 67.1,25.8 67.95,25.82 68.78,25.91 L 68.77,26 Z M 68.77,26" />
            <path id="mel06Canvas-bezier63" stroke="none" fill="rgb(51, 91, 113)" d="M 68.78,30.05 C 67.98,30.07 67.18,30.16 66.41,30.34 66.02,30.44 65.65,30.56 65.31,30.75 64.97,30.93 64.67,31.2 64.6,31.55 64.52,31.9 64.65,32.27 64.85,32.59 65.05,32.91 65.31,33.21 65.58,33.49 65.85,33.78 66.19,34.07 66.27,34.59 66.32,34.87 66.09,35.16 65.88,35.25 65.67,35.37 65.46,35.42 65.26,35.47 63.61,35.74 61.98,35.49 60.45,35.7 60.27,35.73 60.09,35.78 59.95,35.84 59.81,35.93 59.81,35.94 59.82,36.01 59.87,36.22 60.17,36.54 60.44,36.79 60.72,37.03 61.06,37.29 61.35,37.61 61.5,37.77 61.64,37.95 61.75,38.18 61.86,38.4 61.93,38.71 61.83,39.01 61.58,39.6 61.09,39.76 60.71,39.94 60.31,40.1 59.91,40.21 59.52,40.31 58.73,40.5 57.93,40.65 57.21,40.87 56.87,40.97 56.47,41.16 56.42,41.28 56.41,41.3 56.4,41.29 56.46,41.41 56.52,41.51 56.63,41.64 56.76,41.76 57.26,42.25 58.03,42.58 58.67,43.23 58.83,43.4 58.98,43.58 59.09,43.83 59.21,44.06 59.27,44.4 59.16,44.7 58.92,45.29 58.46,45.49 58.09,45.7 57.32,46.06 56.54,46.28 55.76,46.49 54.99,46.7 54.21,46.89 53.51,47.21 53.18,47.36 52.81,47.58 52.78,47.9 52.76,48.23 53.05,48.56 53.33,48.83 L 53.27,48.89 C 52.96,48.66 52.58,48.39 52.53,47.89 52.55,47.37 53,47.09 53.33,46.87 54.06,46.46 54.83,46.21 55.58,45.93 56.33,45.65 57.1,45.41 57.76,45.06 58.07,44.89 58.38,44.64 58.42,44.46 58.47,44.32 58.33,44.06 58.07,43.82 57.58,43.31 56.83,43 56.16,42.39 56,42.24 55.84,42.07 55.7,41.82 55.63,41.71 55.57,41.55 55.55,41.37 55.53,41.18 55.59,40.97 55.69,40.82 55.89,40.52 56.13,40.42 56.34,40.31 56.55,40.21 56.76,40.14 56.96,40.08 57.78,39.85 58.57,39.74 59.34,39.58 59.73,39.49 60.11,39.4 60.45,39.28 60.8,39.16 61.13,38.96 61.19,38.78 61.27,38.63 61.11,38.3 60.87,38.03 60.64,37.75 60.34,37.52 60.03,37.23 59.73,36.92 59.4,36.67 59.25,36.1 59.22,35.95 59.26,35.74 59.37,35.6 59.47,35.47 59.6,35.39 59.71,35.34 59.94,35.23 60.16,35.2 60.37,35.16 62.03,34.99 63.64,35.27 65.18,35.06 65.54,35 65.93,34.86 65.89,34.61 65.87,34.32 65.6,34 65.34,33.72 65.06,33.42 64.8,33.1 64.59,32.73 64.39,32.38 64.23,31.93 64.35,31.49 64.47,31.04 64.84,30.75 65.21,30.57 65.58,30.38 65.97,30.26 66.37,30.18 67.16,30.02 67.97,29.96 68.78,29.97 L 68.78,30.05 Z M 68.78,30.05" />
            <path id="mel06Canvas-bezier64" stroke="none" fill="rgb(51, 91, 113)" d="M 71.76,34.36 C 70.78,34.67 69.82,35.05 68.94,35.57 68.52,35.83 68.1,36.14 67.82,36.52 67.53,36.91 67.5,37.37 67.76,37.75 67.88,37.95 68.05,38.09 68.24,38.3 68.42,38.51 68.64,38.84 68.5,39.23 68.36,39.59 68.08,39.75 67.84,39.89 67.59,40.02 67.34,40.12 67.09,40.2 66.09,40.54 65.06,40.74 64.16,41.11 63.94,41.2 63.73,41.32 63.6,41.44 63.48,41.59 63.49,41.6 63.54,41.73 63.6,41.86 63.76,42.03 63.93,42.17 64.12,42.32 64.37,42.53 64.55,42.81 64.73,43.08 64.84,43.45 64.8,43.8 64.77,44.15 64.63,44.46 64.47,44.7 64.13,45.2 63.72,45.56 63.31,45.9 62.46,46.55 61.59,47.09 60.75,47.67 60.34,47.95 59.93,48.25 59.65,48.62 59.51,48.8 59.42,49.01 59.47,49.21 59.53,49.42 59.72,49.6 59.91,49.76 L 59.87,49.83 C 59.64,49.72 59.39,49.57 59.25,49.3 59.1,49.01 59.19,48.67 59.32,48.42 59.6,47.92 60,47.57 60.39,47.21 61.18,46.52 62.03,45.93 62.77,45.26 63.5,44.64 64.25,43.82 63.85,43.24 63.71,42.93 63.14,42.68 62.84,42.02 62.77,41.85 62.74,41.62 62.8,41.4 62.86,41.18 63,41.03 63.13,40.92 63.39,40.7 63.65,40.59 63.91,40.49 64.93,40.12 65.95,39.98 66.92,39.69 67.37,39.55 67.92,39.35 68.05,39.07 68.11,38.96 68.04,38.77 67.9,38.59 67.75,38.42 67.54,38.21 67.4,37.96 67.26,37.71 67.17,37.41 67.2,37.11 67.24,36.8 67.38,36.54 67.55,36.32 67.91,35.89 68.36,35.6 68.82,35.35 69.75,34.86 70.74,34.54 71.74,34.28 L 71.76,34.36 Z M 71.76,34.36" />
            <path id="mel06Canvas-bezier65" stroke="none" fill="rgb(51, 91, 113)" d="M 73.72,35.96 C 73.07,36.37 72.44,36.84 71.93,37.41 71.68,37.68 71.45,38.02 71.44,38.33 71.42,38.64 71.69,38.87 72.01,39.01 72.18,39.08 72.35,39.12 72.56,39.21 72.66,39.26 72.76,39.31 72.87,39.4 72.97,39.48 73.09,39.63 73.08,39.82 73.06,40.19 72.84,40.34 72.7,40.49 72.54,40.63 72.37,40.75 72.2,40.86 71.52,41.3 70.83,41.66 70.16,42.05 69.83,42.25 69.51,42.45 69.23,42.67 69.08,42.78 68.95,42.9 68.86,43.01 68.76,43.13 68.74,43.24 68.75,43.23 68.75,43.22 68.79,43.3 68.92,43.38 69.04,43.45 69.3,43.59 69.47,43.8 69.66,44.01 69.79,44.33 69.77,44.63 69.75,44.93 69.64,45.17 69.53,45.37 69.03,46.14 68.38,46.6 67.76,47.08 67.45,47.32 67.14,47.55 66.88,47.8 66.75,47.92 66.62,48.07 66.63,48.16 66.62,48.26 66.83,48.37 67,48.43 L 66.99,48.51 C 66.8,48.49 66.54,48.52 66.39,48.23 66.32,47.93 66.48,47.73 66.58,47.56 66.82,47.22 67.1,46.94 67.37,46.65 67.9,46.08 68.49,45.54 68.8,44.96 68.95,44.66 68.95,44.51 68.81,44.36 68.73,44.28 68.65,44.21 68.44,44.08 68.25,43.94 67.98,43.73 67.93,43.32 67.9,42.91 68.11,42.66 68.27,42.49 68.43,42.32 68.61,42.19 68.78,42.07 69.13,41.83 69.48,41.64 69.84,41.46 70.54,41.1 71.25,40.78 71.91,40.4 72.07,40.31 72.23,40.21 72.36,40.1 72.5,40 72.61,39.85 72.6,39.82 72.63,39.81 72.53,39.69 72.37,39.62 72.22,39.55 72.02,39.48 71.83,39.38 71.64,39.28 71.45,39.16 71.31,38.98 71.15,38.8 71.07,38.54 71.1,38.3 71.17,37.83 71.47,37.52 71.74,37.23 72.32,36.68 72.99,36.26 73.68,35.88 L 73.72,35.96 Z M 73.72,35.96" />
            <path id="mel06Canvas-bezier66" stroke="none" fill="rgb(51, 91, 113)" d="M 109.35,9.35 C 108.01,9.19 106.67,9.09 105.33,9.11 104.67,9.13 103.99,9.16 103.37,9.33 103.08,9.41 102.76,9.57 102.73,9.76 102.71,9.91 102.62,10.15 102.51,10.29 102.41,10.45 102.28,10.58 102.15,10.7 101.09,11.62 99.87,12.2 98.88,13.05 98.39,13.47 97.95,13.95 97.71,14.5 L 97.54,14.95 C 97.45,15.14 97.36,15.31 97.26,15.46 97.04,15.77 96.78,16.03 96.51,16.25 95.42,17.14 94.19,17.73 93.58,18.78 93.27,19.29 93.11,19.87 93.08,20.49 93.05,20.78 93.07,21.11 93.07,21.45 93.05,21.82 93.04,22.17 92.98,22.52 92.76,23.9 92.23,25.26 91.28,26.32 90.8,26.83 90.23,27.29 89.54,27.52 88.86,27.74 88.06,27.65 87.51,27.21 L 87.56,27.14 C 88.15,27.45 88.84,27.44 89.4,27.16 89.98,26.9 90.45,26.45 90.83,25.94 91.59,24.92 92.03,23.67 92.15,22.41 92.19,22.1 92.2,21.78 92.21,21.47 92.21,21.14 92.18,20.8 92.2,20.43 92.25,19.71 92.47,18.97 92.88,18.34 93.72,17.06 95.09,16.51 96.08,15.74 96.33,15.54 96.55,15.33 96.73,15.09 96.82,14.97 96.89,14.85 96.95,14.73 L 97.15,14.25 C 97.47,13.58 97.99,13.06 98.53,12.63 99.61,11.77 100.88,11.21 101.87,10.39 101.99,10.29 102.1,10.18 102.18,10.06 102.27,9.93 102.32,9.86 102.36,9.67 102.42,9.43 102.61,9.28 102.77,9.19 102.94,9.1 103.12,9.05 103.29,9.01 103.98,8.85 104.66,8.85 105.33,8.86 106.69,8.9 108.03,9.06 109.36,9.26 L 109.35,9.35 Z M 109.35,9.35" />
            <path id="mel06Canvas-bezier67" stroke="none" fill="rgb(51, 91, 113)" d="M 76.97,35.68 C 76.73,34.02 76.47,32.36 76.16,30.73 76.01,29.9 75.71,29.17 75.64,28.26 75.62,27.81 75.63,27.33 75.84,26.88 75.93,26.65 76.1,26.43 76.31,26.29 76.53,26.16 76.78,26.1 77.01,26.17 L 77.01,26.25 C 76.6,26.38 76.44,26.72 76.4,27.05 76.35,27.4 76.4,27.78 76.47,28.16 76.54,28.53 76.63,28.94 76.69,29.37 L 76.82,30.63 C 76.99,32.31 77.06,33.99 77.05,35.67 L 76.97,35.68 Z M 76.97,35.68" />
            <path id="mel06Canvas-bezier68" stroke="none" fill="rgb(51, 91, 113)" d="M 44.94,55.1 C 44.79,54.56 44.47,53.95 43.9,53.85 43.32,53.77 42.82,54.2 42.41,54.6 42,55.01 41.66,55.5 41.24,55.93 40.83,56.36 40.4,56.77 39.93,57.13 38.06,58.62 35.64,59.44 33.23,59.34 32.07,59.26 30.92,59.59 29.8,59.91 28.67,60.24 27.55,60.64 26.45,61.06 24.25,61.92 22.08,62.86 19.94,63.87 L 20.08,63.64 C 20.48,68.22 21.05,72.81 21.86,77.33 22.28,79.59 22.76,81.85 23.43,84.03 23.77,85.12 24.16,86.19 24.68,87.17 24.94,87.66 25.25,88.12 25.61,88.47 25.95,88.8 26.46,89.02 26.95,89.15 27.96,89.4 29.08,89.2 30.12,88.84 31.18,88.47 32.19,87.94 33.21,87.4 33.72,87.13 34.23,86.85 34.78,86.61 35.06,86.49 35.34,86.37 35.65,86.29 35.96,86.21 36.32,86.12 36.75,86.26 36.96,86.33 37.16,86.5 37.27,86.68 L 37.5,87.06 37.96,87.78 38.91,89.22 C 40.21,91.12 41.56,92.98 43.04,94.74 43.79,95.62 44.56,96.47 45.39,97.26 46.22,98.04 47.12,98.8 48.18,99.24 L 48.15,99.32 C 47.04,98.94 46.09,98.22 45.19,97.48 44.3,96.73 43.48,95.91 42.69,95.05 41.12,93.33 39.68,91.51 38.33,89.62 L 37.34,88.19 36.86,87.46 36.63,87.11 C 36.59,87.05 36.55,87.02 36.49,87 36.2,86.9 35.6,87.13 35.12,87.36 34.62,87.6 34.12,87.87 33.6,88.14 32.58,88.68 31.53,89.23 30.4,89.62 29.27,90.01 28.01,90.26 26.75,89.96 26.13,89.79 25.54,89.54 25.03,89.07 24.56,88.61 24.25,88.08 23.97,87.55 23.42,86.48 23.05,85.36 22.71,84.25 22.06,82 21.62,79.73 21.23,77.45 20.47,72.88 19.96,68.29 19.61,63.68 L 19.59,63.51 19.74,63.45 C 21.9,62.45 24.08,61.52 26.31,60.69 27.42,60.28 28.55,59.89 29.69,59.57 30.84,59.26 32.02,58.93 33.25,59.03 35.58,59.17 37.94,58.41 39.81,56.99 40.28,56.64 40.72,56.24 41.13,55.82 41.55,55.41 41.89,54.93 42.32,54.51 42.74,54.11 43.26,53.66 43.91,53.75 44.56,53.88 44.86,54.53 45.02,55.08 L 44.94,55.1 Z M 44.94,55.1" />
            <path id="mel06Canvas-bezier69" stroke="none" fill="rgb(51, 91, 113)" d="M 18.64,66.6 C 15.89,68.14 13.16,69.72 10.53,71.44 9.22,72.3 7.97,73.25 6.7,74.15 5.44,75.06 4.19,75.98 3.11,77.12 L 3.04,77.07 C 3.39,76.35 3.89,75.71 4.44,75.12 4.98,74.53 5.57,73.99 6.19,73.48 7.43,72.47 8.81,71.67 10.18,70.87 12.91,69.27 15.74,67.85 18.6,66.53 L 18.64,66.6 Z M 18.64,66.6" />
            <path id="mel06Canvas-bezier70" stroke="none" fill="rgb(51, 91, 113)" d="M 2.36,77.29 C 1.91,77.77 1.51,78.3 1.21,78.86 0.9,79.42 0.67,80.02 0.69,80.6 0.69,80.88 0.79,81.13 0.89,81.47 0.98,81.79 1.06,82.11 1.1,82.44 1.19,83.09 1.24,83.76 1.16,84.45 L 1.07,84.47 C 0.71,83.87 0.48,83.25 0.28,82.61 0.19,82.3 0.13,81.97 0.08,81.65 L 0.02,81.14 C -0.01,80.95 -0,80.75 0.02,80.57 0.1,79.81 0.46,79.18 0.86,78.63 1.28,78.09 1.77,77.63 2.3,77.22 L 2.36,77.29 Z M 2.36,77.29" />
            <path id="mel06Canvas-bezier71" stroke="none" fill="rgb(51, 91, 113)" d="M 1.38,86.34 C 1.29,88.78 1.65,91.21 2.09,93.61 2.54,96 3.14,98.37 3.83,100.71 5.2,105.39 6.93,109.96 8.87,114.44 L 14.7,127.9 C 16.63,132.39 18.58,136.87 20.57,141.34 L 20.5,141.38 C 18.12,137.09 16.02,132.66 13.97,128.22 11.92,123.77 10.04,119.25 8.21,114.72 6.35,110.18 4.69,105.56 3.4,100.83 2.76,98.46 2.22,96.07 1.82,93.65 1.45,91.23 1.15,88.79 1.3,86.34 L 1.38,86.34 Z M 1.38,86.34" />
            <path id="mel06Canvas-bezier72" stroke="none" fill="rgb(51, 91, 113)" d="M 21.1,142.39 C 21.94,143.48 22.75,144.58 23.48,145.75 23.66,146.05 23.83,146.35 23.99,146.66 24.15,146.99 24.29,147.25 24.48,147.53 24.84,148.08 25.29,148.58 25.75,149.06 26.7,150.01 27.79,150.8 28.86,151.61 29.92,152.43 31.05,153.17 32.2,153.94 L 32.17,154.02 C 30.82,153.66 29.55,153.05 28.37,152.3 27.2,151.54 26.18,150.56 25.26,149.51 24.8,148.98 24.37,148.43 24.01,147.82 23.83,147.52 23.67,147.16 23.55,146.87 23.42,146.56 23.27,146.26 23.11,145.96 22.49,144.75 21.78,143.58 21.03,142.44 L 21.1,142.39 Z M 21.1,142.39" />
            <path id="mel06Canvas-bezier73" stroke="none" fill="rgb(51, 91, 113)" d="M 36.25,147.81 C 37.52,148.73 38.84,149.66 39.87,150.86 40.99,151.93 42.36,152.72 43.5,153.89 44.56,155.04 45.6,156.26 46.87,157.04 47.18,157.22 47.54,157.35 47.77,157.3 47.83,157.29 47.87,157.26 47.92,157.23 47.92,157.23 47.98,157.18 48.01,157.16 L 48.09,157.08 C 48.2,156.96 48.29,156.83 48.36,156.68 48.63,156.08 48.6,155.28 48.45,154.6 L 48.55,154.78 C 47.72,153.95 46.88,153.12 46.13,152.21 45.4,151.35 44.57,150.52 43.76,149.69 43.36,149.29 42.93,148.86 42.52,148.55 42,148.25 41.55,147.81 41.14,147.4 40.72,146.98 40.31,146.56 39.94,146.09 39.59,145.62 39.19,145.16 39.01,144.58 L 39.09,144.55 C 39.36,145.05 39.79,145.46 40.19,145.86 40.62,146.26 41.04,146.65 41.49,147.01 41.95,147.38 42.38,147.72 42.89,147.99 43.43,148.35 43.85,148.74 44.3,149.13 45.18,149.92 46,150.75 46.8,151.65 47.52,152.55 48.31,153.39 49.1,154.25 L 49.18,154.34 49.2,154.43 C 49.34,155.28 49.36,156.13 48.96,156.97 48.86,157.17 48.73,157.37 48.56,157.54 L 48.43,157.66 C 48.38,157.7 48.37,157.71 48.29,157.76 48.17,157.84 48.03,157.9 47.9,157.92 47.34,158 46.92,157.76 46.57,157.56 45.17,156.63 44.19,155.37 43.16,154.19 42.13,153.07 40.78,152.19 39.67,151.05 38.69,149.81 37.44,148.86 36.2,147.88 L 36.25,147.81 Z M 36.25,147.81" />
            <path id="mel06Canvas-bezier74" stroke="none" fill="rgb(51, 91, 113)" d="M 47.61,151.57 C 47.92,151.54 48.2,151.33 48.32,151.04 48.45,150.76 48.47,150.43 48.44,150.12 48.39,149.48 48.19,148.85 47.81,148.35 47.45,147.84 46.94,147.45 46.41,147.02 46.15,146.82 45.88,146.52 45.68,146.32 45.45,146.09 45.2,145.87 44.96,145.65 L 43.45,144.35 C 43.2,144.12 42.95,143.9 42.71,143.63 42.65,143.56 42.59,143.49 42.53,143.41 L 42.38,143.22 42.08,142.83 C 41.69,142.29 41.29,141.75 40.95,141.17 40.63,140.58 40.2,139.99 40.23,139.25 L 40.32,139.26 C 40.39,139.56 40.59,139.82 40.79,140.07 40.99,140.33 41.2,140.58 41.42,140.83 L 42.74,142.3 C 43.18,142.84 43.53,143.28 44.02,143.75 L 45.42,145.17 C 45.65,145.41 45.89,145.65 46.12,145.9 46.36,146.18 46.52,146.39 46.77,146.62 47.25,147.06 47.79,147.52 48.16,148.12 48.53,148.72 48.7,149.42 48.69,150.11 48.69,150.45 48.64,150.81 48.47,151.12 48.3,151.43 47.96,151.66 47.6,151.65 L 47.61,151.57 Z M 47.61,151.57" />
            <path id="mel06Canvas-bezier75" stroke="none" fill="rgb(51, 91, 113)" d="M 46.64,158.02 C 46.63,158.36 46.56,158.74 46.25,158.98 45.94,159.21 45.52,159.16 45.2,159.05 44.53,158.84 43.94,158.51 43.35,158.18 42.18,157.51 41.07,156.68 40,155.92 38.89,155.17 37.72,154.47 36.74,153.47 36.5,153.22 36.27,152.96 36.06,152.65 35.86,152.31 35.77,152.13 35.54,151.94 35.1,151.6 34.41,151.54 33.76,151.65 L 33.73,151.57 C 34.32,151.24 35.11,151.08 35.84,151.45 36.21,151.6 36.49,152 36.66,152.21 36.85,152.44 37.08,152.66 37.32,152.87 38.3,153.71 39.33,154.56 40.39,155.38 41.46,156.24 42.45,157.08 43.57,157.82 44.12,158.2 44.68,158.57 45.28,158.81 45.57,158.94 45.9,159 46.16,158.84 46.41,158.68 46.53,158.34 46.55,158.02 L 46.64,158.02 Z M 46.64,158.02" />
            <path id="mel06Canvas-bezier76" stroke="none" fill="rgb(51, 91, 113)" d="M 41.74,157.89 C 41.75,158.12 41.72,158.36 41.62,158.57 41.53,158.79 41.31,158.99 41.06,159.04 40.56,159.17 40.07,158.94 39.68,158.82 39.28,158.69 38.85,158.63 38.4,158.5 37.95,158.37 37.52,158.19 37.11,157.98 36.3,157.56 35.5,157.11 34.83,156.52 34.15,155.93 33.52,155.29 32.99,154.55 L 33.04,154.48 C 33.87,154.88 34.61,155.37 35.34,155.86 36.07,156.34 36.71,156.94 37.44,157.4 37.8,157.63 38.17,157.83 38.57,157.98 38.96,158.14 39.4,158.25 39.83,158.43 40.26,158.63 40.61,158.84 41.01,158.8 41.4,158.77 41.64,158.32 41.66,157.9 L 41.74,157.89 Z M 41.74,157.89" />
            <path id="mel06Canvas-bezier77" stroke="none" fill="rgb(51, 91, 113)" d="M 41.51,133.29 C 41,133.54 40.51,133.82 40.05,134.13 39.83,134.29 39.61,134.46 39.41,134.64 39.22,134.85 38.9,135.03 38.62,135.11 37.47,135.42 36.36,135.48 35.26,135.7 34.71,135.8 34.17,135.93 33.63,136.07 33.1,136.21 32.5,136.35 31.88,136.33 31.26,136.31 30.62,136.16 30.1,135.8 29.85,135.63 29.62,135.43 29.42,135.22 29.22,135.02 29.07,134.78 28.81,134.83 L 28.77,134.76 C 28.9,134.65 29.11,134.66 29.25,134.72 29.4,134.78 29.53,134.86 29.66,134.92 29.9,135.07 30.13,135.2 30.38,135.29 30.86,135.47 31.36,135.53 31.87,135.5 32.38,135.48 32.89,135.36 33.46,135.26 34.02,135.16 34.59,135.09 35.16,135.03 36.29,134.89 37.45,134.91 38.5,134.71 38.77,134.64 38.97,134.58 39.19,134.39 39.42,134.21 39.67,134.06 39.92,133.92 40.42,133.64 40.94,133.41 41.47,133.21 L 41.51,133.29 Z M 41.51,133.29" />
            <path id="mel06Canvas-bezier78" stroke="none" fill="rgb(51, 91, 113)" d="M 27.84,132.38 C 26.4,129.01 25.05,125.61 23.79,122.17 22.55,118.72 21.4,115.24 20.52,111.67 20.3,110.78 20.1,109.88 19.94,108.97 19.77,108.06 19.65,107.15 19.5,106.25 19.21,104.45 18.92,102.65 18.66,100.84 18.15,97.22 17.63,93.6 17.25,89.96 L 17.33,89.94 C 18.22,93.5 18.89,97.1 19.51,100.71 19.81,102.51 20.05,104.33 20.28,106.14 20.49,107.97 20.73,109.75 21.14,111.53 21.94,115.08 23.02,118.57 24.17,122.04 25.32,125.5 26.57,128.94 27.92,132.34 L 27.84,132.38 Z M 27.84,132.38" />
            <path id="mel06Canvas-bezier79" stroke="none" fill="rgb(51, 91, 113)" d="M 13.02,86.72 C 13.77,86.78 14.51,86.86 15.25,86.97 15.61,87.02 16,87.01 16.35,87.17 16.69,87.33 17.04,87.5 17.31,87.88 L 17.26,87.95 C 16.87,88.02 16.49,88.02 16.12,87.98 15.75,87.94 15.43,87.74 15.08,87.62 14.38,87.36 13.69,87.09 13,86.81 L 13.02,86.72 Z M 13.02,86.72" />
            <path id="mel06Canvas-bezier80" stroke="none" fill="rgb(51, 91, 113)" d="M 18.14,86.3 C 18.6,86.13 19.05,85.97 19.5,85.84 19.72,85.77 19.94,85.63 20.18,85.66 20.42,85.68 20.66,85.73 20.93,85.93 L 20.94,86.01 C 20.75,86.27 20.53,86.4 20.3,86.48 20.08,86.58 19.83,86.5 19.59,86.5 19.11,86.49 18.63,86.45 18.15,86.38 L 18.14,86.3 Z M 18.14,86.3" />
            <path id="mel06Canvas-bezier81" stroke="none" fill="rgb(51, 91, 113)" d="M 43.82,56.43 C 44.94,56.02 45.97,55.26 46.47,54.23 46.62,53.96 46.63,53.72 46.84,53.37 47.03,53.07 47.29,52.85 47.55,52.67 48.09,52.3 48.68,52.06 49.27,51.86 50.45,51.47 51.67,51.2 52.91,51.16 53.53,51.15 54.16,51.16 54.77,51.26 55.38,51.35 56.02,51.46 56.56,51.82 L 56.52,51.9 C 55.35,51.71 54.15,51.89 52.97,51.99 51.8,52.13 50.61,52.22 49.46,52.5 48.89,52.65 48.33,52.84 47.85,53.12 47.61,53.27 47.39,53.44 47.24,53.64 47.11,53.8 47.01,54.17 46.84,54.42 46.16,55.52 45.02,56.2 43.84,56.51 L 43.82,56.43 Z M 43.82,56.43" />
            <path id="mel06Canvas-bezier82" stroke="none" fill="rgb(51, 91, 113)" d="M 107.86,25.57 C 107.85,25.79 107.84,26.02 107.81,26.25 107.79,26.37 107.77,26.49 107.71,26.61 107.64,26.73 107.56,26.88 107.29,26.9 107.26,26.91 107.08,26.87 107.03,26.82 106.95,26.78 106.89,26.72 106.85,26.66 106.75,26.55 106.69,26.43 106.64,26.31 106.54,26.07 106.49,25.82 106.46,25.57 106.44,25.33 106.44,25.06 106.5,24.79 106.54,24.65 106.58,24.51 106.69,24.36 106.78,24.23 106.98,24.03 107.31,24.03 107.4,24.03 107.62,24.11 107.69,24.18 107.78,24.26 107.83,24.34 107.86,24.41 107.93,24.57 107.94,24.71 107.94,24.85 107.94,25.11 107.87,25.35 107.86,25.57 Z M 107.78,25.57 C 107.77,25.35 107.65,25.14 107.51,24.99 107.4,24.82 107.11,24.76 107.31,24.87 107.52,24.82 107.33,24.88 107.29,25.04 107.21,25.2 107.16,25.37 107.13,25.57 107.11,25.76 107.12,25.96 107.15,26.14 107.19,26.32 107.27,26.48 107.33,26.48 107.32,26.54 107.56,26.38 107.64,26.2 107.75,26.01 107.8,25.79 107.78,25.57 Z M 107.78,25.57" />
            <path id="mel06Canvas-bezier83" stroke="none" fill="rgb(51, 91, 113)" d="M 114.91,40.1 C 114.79,40.89 114.41,41.62 113.95,42.27 113.72,42.6 113.51,42.96 113.17,43.18 112.83,43.41 112.46,43.58 112.01,43.62 L 111.96,43.55 C 112.14,43.14 112.37,42.84 112.61,42.56 112.84,42.27 113.17,42.09 113.44,41.84 113.71,41.58 113.97,41.31 114.2,41.02 114.44,40.73 114.66,40.42 114.82,40.08 L 114.91,40.1 Z M 114.91,40.1" />
        </g>
    </g>
</svg>
