<?xml version="1.0" encoding="UTF-8"?>
<!DOCTYPE svg PUBLIC "-//W3C//DTD SVG 1.1//EN" "http://www.w3.org/Graphics/SVG/1.1/DTD/svg11.dtd">
<svg version="1.1" xmlns="http://www.w3.org/2000/svg" xmlns:xlink="http://www.w3.org/1999/xlink" width="147" height="378"  xml:space="preserve" id="mel04Canvas">
    <!-- Generated by PaintCode - http://www.paintcodeapp.com -->
    <g id="mel04Canvas-lines">
        <g id="mel04Canvas-group2">
            <g id="mel04Canvas-group3">
                <path id="mel04Canvas-bezier" stroke="none" fill="rgb(51, 91, 113)" d="M 46.17,177.46 C 45.48,182.32 44.99,187.2 44.58,192.09 44.18,196.98 43.89,201.88 43.72,206.78 43.57,211.69 43.58,216.59 43.62,221.49 43.64,226.39 43.83,231.29 44.08,236.2 L 44,236.2 C 43.3,231.34 42.99,226.42 42.82,221.5 42.68,216.59 42.84,211.67 43.09,206.76 43.33,201.85 43.7,196.95 44.19,192.06 44.7,187.17 45.3,182.29 46.09,177.45 L 46.17,177.46 Z M 46.17,177.46" />
                <path id="mel04Canvas-bezier2" stroke="none" fill="rgb(51, 91, 113)" d="M 44.7,237.66 C 45.43,240.07 46.03,242.52 46.3,245.04 46.4,246.3 46.49,247.6 46.05,248.85 45.93,249.16 45.76,249.46 45.51,249.7 L 45.34,249.86 C 45.33,249.86 45.32,249.89 45.33,249.85 45.33,249.77 45.28,249.75 45.3,249.76 45.37,249.79 45.55,249.8 45.69,249.8 46.3,249.79 46.92,249.72 47.54,249.64 52.5,248.97 57.44,248.07 62.4,247.32 67.36,246.55 72.34,245.79 77.35,245.39 79.86,245.21 82.37,245.05 84.89,245.06 87.4,245.07 89.94,245.18 92.4,245.72 L 92.39,245.8 C 91.15,245.62 89.9,245.56 88.65,245.55 87.4,245.53 86.15,245.56 84.9,245.62 82.4,245.73 79.91,245.92 77.42,246.19 72.44,246.69 67.47,247.27 62.5,247.95 57.53,248.62 52.58,249.45 47.59,250.04 46.96,250.1 46.33,250.17 45.69,250.16 45.52,250.15 45.37,250.16 45.15,250.08 45.1,250.06 44.97,249.98 44.99,249.81 45.01,249.69 45.06,249.66 45.1,249.61 L 45.28,249.45 C 45.48,249.26 45.64,249 45.75,248.73 46.18,247.6 46.14,246.3 46.06,245.06 45.85,242.57 45.3,240.1 44.62,237.68 L 44.7,237.66 Z M 44.7,237.66" />
                <path id="mel04Canvas-bezier3" stroke="none" fill="rgb(51, 91, 113)" d="M 94.57,245.72 C 95.96,245.56 97.34,245.34 98.7,245.07 100.07,244.82 101.43,244.52 102.76,244.14 104.09,243.76 105.37,243.27 106.63,242.75 107.86,242.21 109.1,241.61 109.92,240.47 L 110,240.51 C 109.79,241.2 109.31,241.8 108.77,242.28 108.22,242.77 107.6,243.15 106.96,243.47 105.68,244.12 104.29,244.46 102.91,244.77 100.16,245.37 97.37,245.69 94.58,245.8 L 94.57,245.72 Z M 94.57,245.72" />
                <path id="mel04Canvas-bezier4" stroke="none" fill="rgb(51, 91, 113)" d="M 109.15,239.41 C 109.58,233.49 110.25,227.59 111.1,221.71 111.54,218.77 112.04,215.84 112.61,212.92 113.16,209.99 113.92,207.12 114.41,204.21 115.41,198.37 115.86,192.46 116.1,186.55 116.23,183.59 116.24,180.63 116.15,177.67 116.11,176.19 116.03,174.71 115.89,173.24 115.76,171.77 115.59,170.29 115.21,168.86 L 115.29,168.83 C 116.19,171.68 116.48,174.68 116.7,177.64 116.91,180.61 116.94,183.59 116.89,186.57 116.76,192.52 116.12,198.46 115.03,204.32 114.5,207.26 113.7,210.12 113.12,213.02 112.51,215.92 111.97,218.84 111.5,221.77 110.54,227.62 109.77,233.51 109.23,239.42 L 109.15,239.41 Z M 109.15,239.41" />
                <path id="mel04Canvas-bezier5" stroke="none" fill="rgb(51, 91, 113)" d="M 73.83,247.11 C 73.55,250.3 73.12,253.48 72.48,256.63 72.16,258.21 71.83,259.79 71.25,261.31 70.95,262.06 70.62,262.81 70.19,263.51 69.76,264.2 69.26,264.9 68.55,265.33 L 68.5,265.27 C 69.54,264.06 69.99,262.52 70.49,261.04 70.97,259.54 71.46,258.03 71.86,256.49 72.25,254.94 72.6,253.39 72.9,251.82 73.22,250.25 73.51,248.68 73.75,247.1 L 73.83,247.11 Z M 73.83,247.11" />
                <path id="mel04Canvas-bezier6" stroke="none" fill="rgb(51, 91, 113)" d="M 67.4,264.49 C 67.76,267.27 67.73,270.11 67.32,272.9 67.12,274.3 66.85,275.71 66.31,277.04 65.77,278.35 65.06,279.62 64.09,280.66 L 64.03,280.61 C 64.63,279.33 65.14,278.07 65.56,276.76 65.98,275.46 66.41,274.15 66.69,272.79 66.97,271.44 67.15,270.06 67.25,268.67 67.36,267.29 67.4,265.89 67.32,264.5 L 67.4,264.49 Z M 67.4,264.49" />
                <path id="mel04Canvas-bezier7" stroke="none" fill="rgb(51, 91, 113)" d="M 64.75,283.25 C 64.57,288.94 64.39,294.64 64.28,300.33 64.3,301.75 64.06,303.21 63.78,304.6 63.49,306 63.15,307.38 62.79,308.76 62.06,311.52 61.26,314.25 60.48,316.99 59.71,319.73 58.94,322.47 58.3,325.22 57.98,326.6 57.68,327.99 57.53,329.37 57.38,330.71 57.51,332.15 57.6,333.55 57.79,336.38 58.14,339.21 58.43,342.04 58.57,343.46 58.72,344.87 58.83,346.29 58.91,347.72 59.06,349.15 58.88,350.58 L 58.8,350.57 C 58.89,349.16 58.64,347.74 58.47,346.33 58.29,344.92 58.08,343.52 57.88,342.11 57.47,339.29 57.08,336.47 56.8,333.62 56.7,332.19 56.55,330.77 56.7,329.28 56.87,327.83 57.19,326.43 57.53,325.04 58.23,322.26 59.05,319.54 59.87,316.81 60.69,314.08 61.52,311.36 62.29,308.63 62.66,307.26 63.03,305.88 63.33,304.5 63.63,303.11 63.88,301.74 63.88,300.32 64.1,294.62 64.38,288.94 64.67,283.25 L 64.75,283.25 Z M 64.75,283.25" />
                <path id="mel04Canvas-bezier8" stroke="none" fill="rgb(51, 91, 113)" d="M 48.29,251.92 C 48.27,254.82 48.26,257.73 48.28,260.63 48.31,262.08 48.39,263.52 48.36,264.97 48.34,266.42 48.29,267.85 48.29,269.31 L 48.21,269.33 C 47.77,267.91 47.66,266.44 47.56,264.98 47.49,263.53 47.58,262.07 47.65,260.62 47.76,257.71 47.96,254.81 48.21,251.91 L 48.29,251.92 Z M 48.29,251.92" />
                <path id="mel04Canvas-bezier9" stroke="none" fill="rgb(51, 91, 113)" d="M 48.14,271.8 C 48.11,275.1 47.8,278.41 46.97,281.62 46.56,283.23 45.88,284.75 45.33,286.3 44.76,287.84 44.26,289.4 43.86,290.99 42.19,297.36 42.15,304.05 43.09,310.53 43.55,313.78 44.32,316.98 44.98,320.21 45.64,323.44 46.29,326.68 46.9,329.92 47.46,333.18 48.01,336.44 48.33,339.73 48.63,343.01 48.82,346.39 47.98,349.62 L 47.91,349.6 C 48.24,347.98 48.28,346.33 48.22,344.7 48.17,343.06 48,341.42 47.78,339.79 47.34,336.54 46.76,333.3 46.11,330.07 45.51,326.83 44.86,323.6 44.21,320.37 43.6,317.14 42.87,313.91 42.45,310.62 41.59,304.06 41.71,297.3 43.47,290.89 43.9,289.29 44.44,287.72 45.03,286.18 45.61,284.63 46.31,283.14 46.74,281.56 47.61,278.39 47.97,275.09 48.06,271.8 L 48.14,271.8 Z M 48.14,271.8" />
                <path id="mel04Canvas-bezier10" stroke="none" fill="rgb(51, 91, 113)" d="M 81.68,245.76 C 81.7,248.47 81.82,251.18 82,253.88 82.18,256.58 82.43,259.28 82.8,261.96 83.16,264.64 83.68,267.29 84.26,269.92 84.83,272.55 85.58,275.14 86.73,277.59 L 86.66,277.63 C 85.09,275.38 84.2,272.73 83.49,270.11 82.79,267.46 82.45,264.74 82.16,262.04 81.6,256.62 81.43,251.18 81.61,245.76 L 81.68,245.76 Z M 81.68,245.76" />
                <path id="mel04Canvas-bezier11" stroke="none" fill="rgb(51, 91, 113)" d="M 87.15,280.63 C 87.42,283.35 87.61,286.08 87.66,288.82 87.68,290.19 87.67,291.56 87.56,292.94 87.5,293.62 87.41,294.31 87.27,294.98 87.16,295.63 87.16,296.31 87.18,296.99 87.28,299.7 87.67,302.41 88.03,305.12 L 89.23,313.23 C 89.64,315.94 90.04,318.64 90.36,321.37 90.51,322.74 90.64,324.1 90.69,325.49 90.73,326.9 90.6,328.25 90.58,329.62 90.45,332.35 90.36,335.08 90.14,337.82 90.02,339.18 89.89,340.55 89.69,341.91 89.46,343.26 89.22,344.63 88.67,345.9 L 88.59,345.87 C 89.05,344.58 89.2,343.21 89.33,341.86 89.46,340.51 89.53,339.15 89.58,337.78 89.68,335.06 89.73,332.32 89.78,329.59 89.8,328.22 89.91,326.84 89.86,325.51 89.82,324.17 89.71,322.81 89.58,321.45 89.31,318.74 88.96,316.03 88.6,313.32 L 87.52,305.19 C 87.19,302.47 86.84,299.75 86.78,297 86.78,296.31 86.78,295.61 86.92,294.91 87.07,294.25 87.17,293.58 87.24,292.91 87.38,291.55 87.41,290.19 87.42,288.82 87.42,286.09 87.29,283.36 87.07,280.64 L 87.15,280.63 Z M 87.15,280.63" />
                <path id="mel04Canvas-bezier12" stroke="none" fill="rgb(51, 91, 113)" d="M 106.95,243.83 C 106.32,247.02 105.64,250.2 104.88,253.36 104.51,254.94 104.17,256.53 103.66,258.08 103.4,258.85 103.13,259.62 102.81,260.38 102.5,261.13 102.17,261.88 101.72,262.58 L 101.65,262.54 C 102.11,260.98 102.47,259.41 102.89,257.85 103.3,256.29 103.81,254.75 104.27,253.19 105.16,250.08 106.02,246.95 106.87,243.82 L 106.95,243.83 Z M 106.95,243.83" />
                <path id="mel04Canvas-bezier13" stroke="none" fill="rgb(51, 91, 113)" d="M 104.34,261.32 C 104.36,264.39 104.34,267.45 104.27,270.52 104.24,272.05 104.25,273.58 104.11,275.11 103.96,276.64 103.77,278.17 103.37,279.67 L 103.29,279.66 C 103.26,278.12 103.27,276.59 103.31,275.06 103.35,273.54 103.52,272.01 103.63,270.48 L 104.26,261.32 104.34,261.32 Z M 104.34,261.32" />
                <path id="mel04Canvas-bezier14" stroke="none" fill="rgb(51, 91, 113)" d="M 104.34,279.66 C 105.51,285.34 106.44,291.08 106.93,296.88 107.04,298.33 107.12,299.78 107.14,301.24 107.14,302.71 106.99,304.16 106.81,305.6 106.44,308.49 105.91,311.35 105.36,314.2 L 102.06,331.28 C 101.51,334.12 101.04,336.98 100.67,339.85 100.49,341.28 100.34,342.72 100.26,344.16 100.16,345.6 100.12,347.05 100.21,348.5 L 100.13,348.51 C 99.76,345.62 99.87,342.68 100.12,339.79 100.37,336.89 100.81,334.01 101.27,331.14 102.23,325.4 103.56,319.75 104.74,314.08 105.85,308.4 107.17,302.7 106.53,296.9 106.15,291.12 105.33,285.37 104.26,279.67 L 104.34,279.66 Z M 104.34,279.66" />
                <path id="mel04Canvas-bezier15" stroke="none" fill="rgb(51, 91, 113)" d="M 57.37,356.25 C 57.24,355.69 57.13,355.11 56.95,354.58 56.77,354.05 56.41,353.63 55.93,353.38 54.96,352.9 53.78,352.78 52.67,352.66 51.55,352.56 50.46,352.75 49.74,353.41 49.36,353.74 49.09,354.2 48.85,354.7 48.59,355.2 48.44,355.78 48.06,356.27 L 47.99,356.23 C 48.14,355.68 48.17,355.1 48.32,354.51 48.46,353.93 48.72,353.33 49.18,352.84 49.64,352.36 50.28,352.06 50.9,351.97 51.53,351.88 52.17,351.93 52.74,352.02 53.89,352.24 55.06,352.42 56.13,353.04 56.66,353.36 57.05,353.93 57.18,354.51 57.32,355.09 57.37,355.67 57.45,356.24 L 57.37,356.25 Z M 57.37,356.25" />
                <path id="mel04Canvas-bezier16" stroke="none" fill="rgb(51, 91, 113)" d="M 48.03,358 L 57.43,359.18 C 57.52,359.19 57.58,359.27 57.56,359.35 57.56,359.42 57.51,359.47 57.45,359.48 L 48.08,361.73 48.03,361.23 56.82,361.15 C 57,361.15 57.15,361.3 57.15,361.48 57.15,361.63 57.05,361.76 56.91,361.8 L 56.9,361.8 48.14,364.25 48.08,363.44 C 49.52,363.64 50.96,363.83 52.4,364.06 L 56.71,364.72 56.72,364.72 C 56.89,364.75 57,364.91 56.98,365.08 56.96,365.21 56.85,365.31 56.72,365.33 L 52.82,365.92 C 51.52,366.12 50.22,366.28 48.91,366.47 L 48.9,366.39 C 50.18,366.1 51.47,365.8 52.75,365.53 L 56.61,364.72 56.63,365.34 52.3,364.82 C 50.85,364.65 49.41,364.44 47.97,364.26 47.75,364.23 47.59,364.02 47.61,363.79 47.64,363.62 47.76,363.49 47.92,363.45 L 56.73,361.16 56.82,361.81 48.03,361.73 48.02,361.73 C 47.88,361.73 47.77,361.62 47.77,361.48 47.78,361.36 47.86,361.26 47.97,361.24 L 57.38,359.18 57.39,359.48 48.02,358.08 48.03,358 Z M 48.03,358" />
                <path id="mel04Canvas-bezier17" stroke="none" fill="rgb(51, 91, 113)" d="M 57.4,368.86 C 56.62,368.71 55.82,368.6 55.04,368.53 54.25,368.44 53.46,368.38 52.67,368.37 51.88,368.36 51.11,368.47 50.34,368.51 49.58,368.55 48.83,368.63 48.05,368.86 L 48.01,368.79 C 48.59,368.17 49.44,367.86 50.25,367.71 51.07,367.55 51.9,367.65 52.71,367.73 54.32,367.91 55.9,368.27 57.42,368.79 L 57.4,368.86 Z M 57.4,368.86" />
                <path id="mel04Canvas-bezier18" stroke="none" fill="rgb(51, 91, 113)" d="M 60.14,370.16 C 60.41,371 60.58,371.87 60.62,372.76 60.66,373.64 60.57,374.57 60.12,375.4 59.67,376.23 58.79,376.78 57.88,376.96 56.97,377.1 56.14,377.18 55.26,377.3 53.53,377.51 51.78,377.75 50,377.67 49.11,377.61 48.21,377.52 47.34,377.24 46.91,377.09 46.48,376.9 46.11,376.61 45.75,376.31 45.47,375.88 45.43,375.42 L 45.51,375.41 C 45.82,376.24 46.68,376.55 47.48,376.7 48.3,376.85 49.16,376.89 50.01,376.87 51.73,376.85 53.46,376.78 55.2,376.66 56.06,376.59 56.97,376.54 57.79,376.45 58.6,376.32 59.35,375.9 59.78,375.19 60.21,374.49 60.37,373.62 60.38,372.76 60.39,371.9 60.28,371.03 60.06,370.18 L 60.14,370.16 Z M 60.14,370.16" />
                <path id="mel04Canvas-bezier19" stroke="none" fill="rgb(51, 91, 113)" d="M 45.43,371.96 C 45.64,370.49 45.76,368.97 45.54,367.52 45.48,367.16 45.4,366.82 45.25,366.49 45.1,366.15 44.97,365.78 44.86,365.41 44.63,364.68 44.47,363.93 44.36,363.18 44.13,361.67 44.06,360.12 44.29,358.6 44.52,357.09 44.94,355.62 45.6,354.25 L 45.68,354.28 C 45.43,355.77 45.2,357.23 45.08,358.7 44.96,360.16 44.86,361.63 44.99,363.1 45.06,363.83 45.18,364.56 45.35,365.27 45.45,365.63 45.55,365.97 45.68,366.32 45.82,366.69 45.9,367.09 45.93,367.47 46.05,369.01 45.82,370.51 45.51,371.98 L 45.43,371.96 Z M 45.43,371.96" />
                <path id="mel04Canvas-bezier20" stroke="none" fill="rgb(51, 91, 113)" d="M 60.46,367.47 C 60.68,365.72 60.77,363.96 60.75,362.22 60.74,361.35 60.62,360.48 60.59,359.62 L 60.46,357 60.54,356.98 C 61.01,357.77 61.25,358.66 61.39,359.55 61.53,360.44 61.45,361.35 61.39,362.23 61.27,364.01 60.98,365.77 60.54,367.48 L 60.46,367.47 Z M 60.46,367.47" />
                <path id="mel04Canvas-bezier21" stroke="none" fill="rgb(51, 91, 113)" d="M 89.43,356.22 C 89.39,355.94 89.49,355.63 89.67,355.41 89.85,355.18 90.09,355.01 90.33,354.86 90.82,354.58 91.35,354.39 91.88,354.24 92.96,353.96 94.07,353.82 95.17,353.75 95.72,353.71 96.28,353.69 96.84,353.69 97.4,353.71 97.95,353.73 98.56,353.93 98.85,354.04 99.15,354.21 99.38,354.45 99.61,354.69 99.78,355 99.84,355.32 99.96,355.94 99.81,356.53 99.53,357.03 L 99.45,357 C 99.51,356.46 99.49,355.91 99.3,355.48 99.11,355.05 98.76,354.8 98.31,354.69 97.87,354.57 97.32,354.54 96.79,354.49 96.26,354.43 95.73,354.4 95.19,354.39 94.11,354.38 93.03,354.44 91.97,354.63 91.45,354.73 90.92,354.85 90.44,355.08 89.97,355.29 89.49,355.66 89.51,356.22 L 89.43,356.22 Z M 89.43,356.22" />
                <path id="mel04Canvas-bezier22" stroke="none" fill="rgb(51, 91, 113)" d="M 89.5,358.21 C 90.17,358.32 90.97,358.36 91.7,358.42 L 93.95,358.58 98.44,358.85 C 98.52,358.85 98.58,358.92 98.58,359 98.57,359.07 98.52,359.12 98.46,359.14 L 90.3,361.2 90.27,360.74 99.69,361.57 C 99.87,361.59 100,361.74 99.98,361.92 99.97,362.08 99.83,362.2 99.67,362.21 L 99.66,362.21 C 98.1,362.26 96.52,362.32 94.96,362.41 93.4,362.51 91.81,362.59 90.31,362.83 90.13,362.86 89.94,362.9 89.8,362.95 89.76,362.96 89.73,362.97 89.72,362.98 89.72,362.98 89.72,362.98 89.72,362.98 L 89.77,362.94 89.74,362.96 C 89.78,362.93 89.82,362.86 89.82,362.81 89.86,362.59 89.76,362.55 89.78,362.56 89.77,362.55 89.8,362.57 89.82,362.59 90.07,362.75 90.46,362.9 90.81,363.02 91.53,363.28 92.29,363.49 93.04,363.72 94.54,364.15 96.06,364.55 97.58,364.92 L 97.6,364.92 C 97.77,364.96 97.87,365.13 97.83,365.3 97.79,365.44 97.66,365.54 97.52,365.54 L 93.49,365.43 C 92.15,365.39 90.81,365.32 89.47,365.26 L 89.47,365.18 C 90.81,365.13 92.15,365.06 93.49,365.02 L 97.52,364.91 97.45,365.53 C 95.9,365.2 94.37,364.86 92.83,364.47 92.06,364.27 91.3,364.05 90.54,363.79 90.15,363.65 89.79,363.54 89.37,363.28 89.31,363.24 89.25,363.2 89.18,363.13 89.14,363.07 88.97,362.94 89.02,362.61 89.04,362.54 89.09,362.44 89.14,362.39 L 89.16,362.37 89.21,362.32 89.22,362.32 89.24,362.31 89.27,362.28 C 89.3,362.27 89.32,362.26 89.33,362.25 89.41,362.2 89.47,362.18 89.53,362.16 89.76,362.08 89.96,362.05 90.17,362.01 91.78,361.78 93.34,361.73 94.92,361.66 96.5,361.61 98.08,361.58 99.65,361.57 L 99.63,362.21 90.22,361.21 90.22,361.21 C 90.09,361.19 89.99,361.08 90.01,360.95 90.02,360.85 90.09,360.77 90.19,360.75 L 98.4,358.85 98.42,359.14 93.93,358.76 91.69,358.55 90.57,358.44 C 90.19,358.38 89.85,358.39 89.43,358.25 L 89.5,358.21 Z M 89.5,358.21" />
                <path id="mel04Canvas-bezier23" stroke="none" fill="rgb(51, 91, 113)" d="M 97.51,367.87 C 96.06,367.59 94.58,367.42 93.11,367.4 91.64,367.39 90.15,367.52 88.81,368.05 88.15,368.32 87.54,368.72 87.13,369.27 86.92,369.54 86.78,369.85 86.64,370.19 86.5,370.52 86.39,370.86 86.31,371.2 86.15,371.89 86.15,372.6 86.39,373.23 86.61,373.84 87.11,374.39 87.65,374.66 L 87.54,374.63 C 89.71,374.79 91.89,374.91 94.06,375 95.15,375.04 96.24,375.03 97.32,374.98 97.86,374.96 98.39,374.9 98.92,374.81 99.44,374.71 99.99,374.58 100.37,374.21 L 100.44,374.26 C 100.1,374.74 99.52,374.94 99,375.12 98.47,375.3 97.92,375.4 97.37,375.48 96.27,375.66 95.16,375.7 94.06,375.73 91.85,375.79 89.65,375.63 87.46,375.36 L 87.43,375.35 C 87.4,375.35 87.37,375.34 87.34,375.32 86.58,374.89 86.05,374.23 85.78,373.44 85.52,372.66 85.56,371.82 85.76,371.07 85.86,370.69 85.98,370.33 86.15,369.97 86.3,369.64 86.48,369.26 86.74,368.95 87.24,368.32 87.94,367.91 88.65,367.64 90.1,367.11 91.63,367.07 93.12,367.14 94.61,367.22 96.08,367.44 97.53,367.79 L 97.51,367.87 Z M 97.51,367.87" />
                <path id="mel04Canvas-bezier24" stroke="none" fill="rgb(51, 91, 113)" d="M 100.99,372.38 C 101.74,371.15 102.31,369.78 102.59,368.38 102.89,366.98 102.86,365.54 102.31,364.22 101.76,362.79 101.78,361.14 102.22,359.71 102.62,358.28 103.31,357 103,355.55 L 103.07,355.52 C 103.46,356.18 103.51,357 103.42,357.74 103.34,358.5 103.14,359.21 103,359.91 102.68,361.29 102.51,362.67 102.92,364.02 103.43,365.45 103.38,367.06 102.98,368.48 102.58,369.91 101.91,371.24 101.05,372.43 L 100.99,372.38 Z M 100.99,372.38" />
                <path id="mel04Canvas-bezier25" stroke="none" fill="rgb(51, 91, 113)" d="M 101.02,354.46 C 101.26,353.75 101.33,352.98 101.12,352.35 101.01,352.03 100.78,351.81 100.62,351.53 100.45,351.26 100.24,350.98 100.02,350.61 L 100.06,350.54 C 100.5,350.53 100.9,350.72 101.23,351.02 101.56,351.32 101.69,351.79 101.74,352.21 101.85,353.08 101.54,353.87 101.09,354.5 L 101.02,354.46 Z M 101.02,354.46" />
                <path id="mel04Canvas-bezier26" stroke="none" fill="rgb(51, 91, 113)" d="M 86.54,367.27 C 86.29,366.01 86.16,364.73 86.12,363.45 86.08,362.17 86.17,360.85 86.33,359.6 86.43,358.37 86.2,357.16 85.99,355.92 85.9,355.29 85.78,354.64 85.82,353.96 85.83,353.28 86.08,352.58 86.55,352.11 L 86.62,352.16 C 86.05,353.35 86.49,354.52 86.77,355.76 87.09,357.01 87.17,358.37 86.96,359.68 86.72,360.94 86.56,362.18 86.51,363.45 86.46,364.71 86.48,365.99 86.62,367.25 L 86.54,367.27 Z M 86.54,367.27" />
                <path id="mel04Canvas-bezier27" stroke="none" fill="rgb(51, 91, 113)" d="M 88.59,353.28 C 88.13,352.45 87.76,351.55 87.56,350.58 87.47,350.1 87.36,349.57 87.52,349.05 87.67,348.54 88.07,348.01 88.61,347.92 L 88.65,347.98 C 88.41,348.43 88.34,348.8 88.3,349.21 88.28,349.62 88.18,350.05 88.2,350.5 88.24,351.41 88.42,352.34 88.67,353.25 L 88.59,353.28 Z M 88.59,353.28" />
                <path id="mel04Canvas-bezier28" stroke="none" fill="rgb(51, 91, 113)" d="M 57.64,348.49 C 58.13,349.41 58.52,350.38 58.77,351.41 58.9,351.93 59.05,352.47 58.97,353.03 58.89,353.57 58.67,354.17 58.18,354.5 L 58.12,354.46 C 58.2,353.92 58.19,353.47 58.17,352.99 58.13,352.52 58.19,352.02 58.15,351.52 58.05,350.52 57.84,349.51 57.56,348.52 L 57.64,348.49 Z M 57.64,348.49" />
            </g>
            <path id="mel04Canvas-bezier29" stroke="none" fill="rgb(51, 91, 113)" d="M 91.94,51.9 C 92.09,49.22 91.95,46.52 91.5,43.88 91.02,41.26 90.2,38.63 88.53,36.54 86.91,34.44 84.88,32.63 82.53,31.38 80.2,30.15 77.54,29.49 74.92,29.67 69.68,30.15 64.57,32.91 61.77,37.37 60.33,39.58 59.47,42.13 59.02,44.75 58.57,47.37 58.51,50.07 58.67,52.75 L 58.59,52.76 C 58.41,51.43 58.29,50.08 58.25,48.73 58.23,47.37 58.3,46.02 58.47,44.67 58.81,41.97 59.65,39.3 61.09,36.95 61.82,35.78 62.7,34.7 63.7,33.75 64.71,32.81 65.84,32 67.04,31.33 69.46,30.02 72.13,29.22 74.88,29.04 77.64,28.88 80.39,29.61 82.78,30.93 85.18,32.25 87.23,34.13 88.85,36.31 90.53,38.49 91.31,41.19 91.73,43.84 92.14,46.51 92.22,49.22 92.02,51.91 L 91.94,51.9 Z M 91.94,51.9" />
            <path id="mel04Canvas-bezier30" stroke="none" fill="rgb(51, 91, 113)" d="M 60.69,56.25 C 61.18,55.44 61.52,54.52 61.58,53.59 61.61,53.12 61.56,52.65 61.42,52.21 61.24,51.78 61.14,51.25 61.14,50.77 61.17,48.79 61.87,46.97 62.13,45.1 62.2,44.64 62.25,44.17 62.25,43.71 62.23,43.24 62.31,42.67 62.49,42.21 62.84,41.25 63.46,40.44 64.13,39.72 64.82,39.01 65.57,38.38 66.41,37.85 66.63,37.71 66.84,37.59 67.08,37.47 67.3,37.38 67.58,37.23 67.93,37.24 L 69.36,37.24 69.26,37.25 C 70.87,36.85 72.49,36.53 74.12,36.23 74.93,36.08 75.75,35.97 76.57,35.86 77.39,35.76 78.22,35.68 79.05,35.71 L 79.06,35.79 C 77.43,36.03 75.84,36.45 74.24,36.84 72.65,37.22 71.06,37.65 69.47,38.05 L 69.42,38.06 69.36,38.06 67.93,38.05 C 67.67,38.04 67.19,38.3 66.81,38.51 66.02,38.97 65.28,39.55 64.61,40.19 63.96,40.84 63.37,41.58 63.04,42.41 62.86,42.84 62.79,43.23 62.79,43.72 62.77,44.22 62.7,44.71 62.62,45.18 62.29,47.1 61.54,48.9 61.44,50.77 61.43,51.25 61.49,51.67 61.66,52.14 61.79,52.62 61.82,53.12 61.77,53.6 61.66,54.58 61.29,55.49 60.75,56.3 L 60.69,56.25 Z M 60.69,56.25" />
            <path id="mel04Canvas-bezier31" stroke="none" fill="rgb(51, 91, 113)" d="M 80.79,35.72 C 82.31,36.84 83.82,37.97 85.3,39.17 85.65,39.48 86.04,39.79 86.34,40.16 86.6,40.42 87.13,40.63 87.47,41.03 88.16,41.84 88.39,42.83 88.6,43.76 88.78,44.71 88.95,45.59 89.43,46.3 89.65,46.66 89.98,46.89 90.35,47.34 90.52,47.57 90.65,47.88 90.69,48.16 90.74,48.45 90.73,48.71 90.71,48.97 90.33,50.82 90.6,52.64 91.16,54.45 L 91.09,54.49 C 90.58,53.67 90.24,52.76 90.03,51.81 89.92,51.33 89.87,50.84 89.85,50.35 89.82,49.87 89.89,49.32 89.91,48.91 89.94,48.47 89.89,48.1 89.68,47.83 89.46,47.55 89.03,47.18 88.76,46.72 88.21,45.82 88.1,44.78 87.97,43.87 87.82,42.97 87.61,42.04 87.08,41.37 86.82,41.03 86.41,40.88 86,40.47 85.72,40.09 85.38,39.8 85.03,39.47 83.64,38.2 82.19,36.99 80.74,35.78 L 80.79,35.72 Z M 80.79,35.72" />
            <path id="mel04Canvas-bezier32" stroke="none" fill="rgb(51, 91, 113)" d="M 59.11,54.15 C 59,53.86 58.82,53.59 58.59,53.4 58.36,53.22 58.05,53.17 57.78,53.26 57.23,53.44 56.99,54.08 56.89,54.66 56.69,55.87 56.89,57.13 57.17,58.34 57.47,59.55 57.96,60.69 58.51,61.78 58.78,62.32 59.1,62.84 59.49,63.28 59.88,63.7 60.41,64.05 61.01,63.78 L 61.06,63.85 C 60.82,64.08 60.44,64.19 60.08,64.14 59.72,64.07 59.4,63.9 59.13,63.69 58.57,63.28 58.17,62.73 57.81,62.17 57.12,61.03 56.77,59.75 56.54,58.47 56.34,57.19 56.2,55.88 56.5,54.58 56.58,54.26 56.7,53.94 56.89,53.65 57.07,53.36 57.37,53.1 57.71,53.03 58.06,52.94 58.45,53.04 58.69,53.28 58.94,53.51 59.09,53.81 59.19,54.12 L 59.11,54.15 Z M 59.11,54.15" />
            <path id="mel04Canvas-bezier33" stroke="none" fill="rgb(51, 91, 113)" d="M 57.89,54.56 C 58.46,54.84 58.97,55.25 59.4,55.76 59.61,56.01 59.87,56.26 59.94,56.59 60.03,56.92 60.04,57.28 59.87,57.63 L 59.79,57.64 C 59.52,57.38 59.36,57.14 59.21,56.9 59.05,56.67 59,56.37 58.87,56.11 58.61,55.59 58.26,55.08 57.85,54.63 L 57.89,54.56 Z M 57.89,54.56" />
            <path id="mel04Canvas-bezier34" stroke="none" fill="rgb(51, 91, 113)" d="M 59.87,58.15 C 59.87,58.39 59.88,58.64 59.92,58.86 59.95,59.08 60.01,59.31 60.11,59.41 60.26,59.63 60.46,59.98 60.33,60.34 60.29,60.43 60.24,60.53 60.15,60.62 60.06,60.71 59.9,60.79 59.77,60.78 59.49,60.76 59.41,60.57 59.36,60.42 L 59.41,60.36 C 59.56,60.34 59.71,60.28 59.67,60.23 59.61,60.18 59.55,60.22 59.55,60.16 59.51,60.05 59.6,59.9 59.54,59.7 59.43,59.36 59.48,59.09 59.52,58.84 59.59,58.59 59.68,58.36 59.79,58.13 L 59.87,58.15 Z M 59.87,58.15" />
            <path id="mel04Canvas-bezier35" stroke="none" fill="rgb(51, 91, 113)" d="M 91.8,53.09 C 91.97,52.8 92.19,52.53 92.54,52.4 92.9,52.27 93.29,52.49 93.51,52.75 93.98,53.27 94.17,53.96 94.28,54.61 94.48,55.95 94.37,57.29 94.2,58.59 94.12,59.25 94.01,59.9 93.89,60.55 93.81,60.88 93.8,61.17 93.64,61.58 93.48,61.93 93.27,62.22 93.04,62.49 92.58,63.01 92.03,63.48 91.33,63.71 90.98,63.82 90.56,63.87 90.2,63.68 89.85,63.47 89.68,63.12 89.61,62.8 L 89.69,62.77 C 89.86,63.04 90.08,63.28 90.34,63.34 90.59,63.41 90.86,63.33 91.12,63.2 91.62,62.91 92.07,62.47 92.42,61.99 92.61,61.75 92.77,61.5 92.88,61.25 92.97,61.05 93.04,60.68 93.12,60.38 93.29,59.75 93.44,59.12 93.57,58.49 93.81,57.23 94,55.93 93.89,54.66 93.84,54.04 93.7,53.39 93.33,52.9 93.14,52.66 92.88,52.48 92.59,52.55 92.3,52.63 92.05,52.87 91.87,53.13 L 91.8,53.09 Z M 91.8,53.09" />
            <path id="mel04Canvas-bezier36" stroke="none" fill="rgb(51, 91, 113)" d="M 93.08,53.8 C 92.79,54.2 92.58,54.64 92.41,55.07 92.32,55.29 92.32,55.53 92.18,55.72 92.05,55.91 91.91,56.09 91.64,56.28 L 91.56,56.27 C 91.4,55.98 91.39,55.69 91.44,55.43 91.48,55.15 91.7,54.95 91.86,54.75 92.18,54.33 92.57,53.98 93.03,53.74 L 93.08,53.8 Z M 93.08,53.8" />
            <path id="mel04Canvas-bezier37" stroke="none" fill="rgb(51, 91, 113)" d="M 91.16,57.61 C 91.41,57.82 91.61,58.12 91.68,58.48 91.72,58.65 91.8,58.86 91.68,59.03 91.59,59.19 91.42,59.33 91.16,59.35 L 91.09,59.3 C 90.97,59.06 90.94,58.93 90.92,58.81 90.89,58.69 91.01,58.61 91.04,58.48 91.11,58.25 91.13,57.96 91.09,57.66 L 91.16,57.61 Z M 91.16,57.61" />
            <path id="mel04Canvas-bezier38" stroke="none" fill="rgb(51, 91, 113)" d="M 70.82,67.4 C 72.55,67.03 74.29,66.67 76.07,66.53 76.96,66.47 77.85,66.41 78.74,66.45 79.62,66.52 80.53,66.55 81.37,66.9 L 81.36,66.93 C 80.49,66.82 79.61,66.85 78.73,66.85 77.85,66.86 76.97,66.83 76.08,66.85 75.21,66.87 74.33,66.97 73.45,67.08 72.57,67.18 71.7,67.3 70.82,67.44 L 70.82,67.4 Z M 70.82,67.4" />
            <path id="mel04Canvas-bezier39" stroke="none" fill="rgb(51, 91, 113)" d="M 81.38,68.03 C 80.79,69.05 80.01,69.96 79.08,70.69 78.15,71.42 77,71.93 75.81,72.03 75.24,72.12 74.6,72.17 74,72 73.4,71.85 72.86,71.52 72.39,71.14 71.47,70.35 70.77,69.39 70.2,68.35 L 70.24,68.33 C 70.99,69.23 71.73,70.14 72.64,70.83 73.09,71.17 73.58,71.46 74.1,71.63 74.64,71.8 75.19,71.78 75.78,71.72 76.93,71.66 78.03,71.22 78.96,70.54 79.9,69.86 80.72,68.99 81.35,68.01 L 81.38,68.03 Z M 81.38,68.03" />
            <path id="mel04Canvas-bezier40" stroke="none" fill="rgb(51, 91, 113)" d="M 70.84,70.27 C 71.24,71.51 72,72.71 73.13,73.35 74.27,74.01 75.67,73.82 76.91,73.49 78.16,73.13 79.24,72.36 80.1,71.4 80.99,70.45 81.65,69.3 82.3,68.14 L 82.34,68.16 C 81.89,69.41 81.27,70.62 80.4,71.67 79.54,72.71 78.31,73.47 76.99,73.79 76.34,73.96 75.66,74.05 74.99,74.05 74.3,74.05 73.62,73.87 73.03,73.52 71.86,72.79 71.15,71.55 70.8,70.28 L 70.84,70.27 Z M 70.84,70.27" />
            <path id="mel04Canvas-bezier41" stroke="none" fill="rgb(51, 91, 113)" d="M 74.05,75.11 C 74.61,74.91 75.19,74.74 75.78,74.61 76.07,74.55 76.36,74.42 76.67,74.47 76.97,74.52 77.32,74.59 77.58,74.89 L 77.55,74.97 C 77.24,75.11 76.99,75.21 76.7,75.27 76.42,75.34 76.13,75.26 75.84,75.25 75.25,75.24 74.66,75.22 74.06,75.19 L 74.05,75.11 Z M 74.05,75.11" />
            <path id="mel04Canvas-bezier42" stroke="none" fill="rgb(51, 91, 113)" d="M 61.26,62.25 C 62.08,65.05 63.16,67.78 64.51,70.35 65.19,71.64 65.95,72.87 66.85,73.99 67.75,75.11 68.81,76.12 70.06,76.73 L 70.08,76.74 70.11,76.76 C 71,77.42 71.76,78.16 72.67,78.56 73.56,78.99 74.59,79.11 75.63,79.1 76.68,79.08 77.73,78.97 78.74,78.72 79.74,78.46 80.73,77.99 81.33,77.1 L 81.4,77.14 C 80.95,78.16 79.92,78.83 78.89,79.2 77.85,79.59 76.75,79.75 75.66,79.83 74.56,79.92 73.38,79.81 72.32,79.31 71.25,78.81 70.47,77.99 69.66,77.34 L 69.72,77.38 C 68.36,76.64 67.3,75.53 66.4,74.35 65.5,73.16 64.77,71.87 64.12,70.55 63.47,69.23 62.93,67.86 62.44,66.48 61.96,65.1 61.53,63.69 61.18,62.27 L 61.26,62.25 Z M 61.26,62.25" />
            <path id="mel04Canvas-bezier43" stroke="none" fill="rgb(51, 91, 113)" d="M 81.95,76.51 C 83.04,75.63 83.93,74.54 84.7,73.39 85.49,72.24 86.14,71 86.66,69.72 87.19,68.44 87.55,67.1 87.94,65.77 88.34,64.44 88.66,63.09 89.02,61.72 L 89.1,61.73 C 89.17,63.15 89.01,64.57 88.72,65.97 88.42,67.37 87.87,68.7 87.25,69.98 86.63,71.27 85.89,72.49 85.03,73.62 84.15,74.73 83.16,75.77 81.99,76.58 L 81.95,76.51 Z M 81.95,76.51" />
            <path id="mel04Canvas-bezier44" stroke="none" fill="rgb(51, 91, 113)" d="M 85.98,73.64 C 85.66,75.68 85.25,77.7 84.75,79.71 84.51,80.72 84.29,81.74 83.9,82.7 83.5,83.66 83.05,84.63 82.35,85.43 L 82.28,85.39 83.14,82.44 C 83.43,81.46 83.81,80.51 84.14,79.54 84.77,77.58 85.35,75.61 85.91,73.62 L 85.98,73.64 Z M 85.98,73.64" />
            <path id="mel04Canvas-bezier45" stroke="none" fill="rgb(51, 91, 113)" d="M 66.93,79.07 C 67.68,80.81 68.47,82.53 69.33,84.2 69.77,85.04 70.28,85.83 70.7,86.65 71.14,87.48 71.55,88.29 72.12,89.06 L 72.07,89.12 C 71.18,88.66 70.56,87.85 70.02,87.06 69.47,86.26 69.13,85.35 68.76,84.47 68.01,82.72 67.39,80.92 66.86,79.09 L 66.93,79.07 Z M 66.93,79.07" />
            <path id="mel04Canvas-bezier46" stroke="none" fill="rgb(51, 91, 113)" d="M 64.21,71.94 C 64.66,73.38 64.93,74.9 64.82,76.46 64.76,77.23 64.66,78.07 64.16,78.76 63.69,79.45 62.89,79.94 62.09,79.94 L 62.07,79.86 C 62.72,79.43 63.18,78.94 63.48,78.34 63.78,77.75 64.07,77.1 64.19,76.38 64.32,75.67 64.35,74.93 64.33,74.19 64.32,73.45 64.26,72.7 64.13,71.96 L 64.21,71.94 Z M 64.21,71.94" />
            <path id="mel04Canvas-bezier47" stroke="none" fill="rgb(51, 91, 113)" d="M 61.26,79.47 C 62.79,84.07 64.9,88.52 67.74,92.45 69.17,94.4 70.8,96.21 72.73,97.64 74.65,99.07 76.9,100.08 79.27,100.32 81.6,100.53 84.14,100.17 85.9,98.69 87.68,97.2 88.37,94.77 88.5,92.43 88.66,90.05 88.34,87.64 87.86,85.28 87.63,84.09 87.33,82.91 87,81.75 86.68,80.58 86.33,79.41 85.91,78.27 L 85.98,78.24 C 86.99,80.46 87.8,82.78 88.41,85.15 89,87.53 89.38,89.98 89.3,92.47 89.23,93.72 89.04,94.97 88.6,96.17 88.15,97.36 87.41,98.48 86.4,99.29 85.4,100.11 84.17,100.6 82.93,100.84 81.69,101.07 80.44,101.1 79.19,100.95 76.7,100.66 74.37,99.56 72.42,98.06 70.46,96.55 68.83,94.68 67.42,92.68 64.63,88.64 62.62,84.14 61.19,79.49 L 61.26,79.47 Z M 61.26,79.47" />
            <path id="mel04Canvas-bezier48" stroke="none" fill="rgb(51, 91, 113)" d="M 85.95,76.5 C 87.21,76.61 88.48,76.93 89.61,77.59 90.17,77.93 90.68,78.38 91.05,78.94 91.44,79.5 91.64,80.2 91.71,80.83 91.91,82.08 92.18,83.3 92.39,84.53 92.5,85.14 92.62,85.75 92.76,86.35 92.84,86.64 92.92,86.94 93.04,87.22 93.15,87.5 93.29,87.77 93.52,87.97 L 93.48,88.04 C 92.84,87.77 92.52,87.1 92.24,86.53 91.96,85.94 91.78,85.32 91.61,84.7 91.29,83.45 91.19,82.18 91.08,80.91 91.06,79.69 90.41,78.62 89.39,77.92 88.4,77.21 87.18,76.79 85.94,76.58 L 85.95,76.5 Z M 85.95,76.5" />
            <path id="mel04Canvas-bezier49" stroke="none" fill="rgb(51, 91, 113)" d="M 92.34,78.22 C 93.05,78.41 93.79,78.53 94.52,78.54 95.24,78.56 95.97,78.49 96.59,78.21 96.9,78.08 97.18,77.89 97.39,77.66 L 98.12,76.88 C 98.39,76.62 98.59,76.38 98.93,76.08 98.98,76.06 99.03,75.93 99.31,75.97 99.53,76.07 99.51,76.15 99.54,76.2 99.58,76.32 99.6,76.41 99.62,76.5 99.65,76.69 99.69,76.87 99.71,77.07 L 99.64,77.1 C 99.5,76.96 99.4,76.8 99.28,76.64 99.23,76.57 99.18,76.48 99.13,76.43 99.12,76.41 99.05,76.4 99.18,76.47 99.36,76.49 99.33,76.43 99.32,76.48 99.18,76.73 98.95,77.11 98.73,77.4 98.49,77.72 98.24,77.98 97.92,78.25 97.58,78.51 97.2,78.7 96.81,78.81 96.03,79.06 95.24,79.04 94.48,78.94 93.73,78.81 93,78.59 92.31,78.29 L 92.34,78.22 Z M 92.34,78.22" />
            <path id="mel04Canvas-bezier50" stroke="none" fill="rgb(51, 91, 113)" d="M 99.66,78.73 C 100.86,77.96 101.9,76.96 102.84,75.89 103.83,74.83 104.83,73.79 105.99,72.87 106.29,72.64 106.57,72.42 106.98,72.24 107.08,72.2 107.2,72.16 107.36,72.16 107.52,72.14 107.81,72.25 107.92,72.46 108.09,72.84 108,73.04 107.98,73.25 107.9,73.68 107.75,73.99 107.75,74.23 107.74,74.36 107.76,74.43 107.79,74.45 107.81,74.48 107.89,74.53 108.01,74.55 108.56,74.63 109.29,74.43 109.96,74.25 110.64,74.06 111.32,73.82 112.01,73.6 L 112.04,73.67 C 111.46,74.1 110.82,74.46 110.15,74.77 109.48,75.07 108.81,75.38 107.91,75.34 107.69,75.31 107.4,75.23 107.18,74.99 106.95,74.74 106.91,74.43 106.92,74.2 106.93,73.97 107,73.74 107.06,73.56 107.12,73.38 107.18,73.24 107.21,73.09 107.26,72.96 107.24,72.78 107.26,72.83 107.28,72.88 107.39,72.91 107.36,72.89 107.35,72.89 107.29,72.9 107.22,72.92 106.96,73 106.65,73.2 106.37,73.39 105.22,74.2 104.16,75.18 103.13,76.17 102.1,77.18 100.97,78.12 99.69,78.8 L 99.66,78.73 Z M 99.66,78.73" />
            <path id="mel04Canvas-bezier51" stroke="none" fill="rgb(51, 91, 113)" d="M 114.61,72.56 C 113.25,73.81 112.33,75.47 111.71,77.19 111.08,78.91 110.77,80.74 110.7,82.57 110.63,84.41 110.85,86.23 111.09,88.05 111.31,89.87 111.71,91.67 112.06,93.51 L 111.99,93.54 C 111.2,91.83 110.67,90.02 110.3,88.17 109.95,86.32 109.91,84.41 110.06,82.53 110.21,80.65 110.61,78.79 111.34,77.04 112.08,75.32 113.11,73.68 114.57,72.49 L 114.61,72.56 Z M 114.61,72.56" />
            <path id="mel04Canvas-bezier52" stroke="none" fill="rgb(51, 91, 113)" d="M 112.5,94.46 C 112.96,95.51 113.38,96.58 113.72,97.68 113.89,98.24 114.04,98.8 114.1,99.4 114.11,99.56 114.12,99.71 114.11,99.88 L 114.1,99.98 114.11,100.04 C 114.11,100.08 114.12,100.12 114.14,100.14 114.19,100.24 114.34,100.27 114.54,100.21 114.95,100.07 115.32,99.65 115.57,99.21 115.83,98.76 116.04,98.26 116.22,97.75 116.58,96.72 116.78,95.61 117.02,94.47 L 117.1,94.47 C 117.3,95.62 117.27,96.81 116.98,97.98 116.83,98.56 116.6,99.13 116.24,99.64 115.87,100.14 115.42,100.64 114.71,100.83 114.53,100.87 114.33,100.88 114.12,100.82 113.92,100.77 113.71,100.6 113.62,100.39 113.57,100.29 113.55,100.19 113.54,100.09 113.54,100.04 113.54,99.98 113.55,99.93 L 113.56,99.82 C 113.58,99.7 113.58,99.57 113.58,99.43 113.56,98.9 113.46,98.33 113.34,97.78 113.1,96.67 112.78,95.57 112.43,94.49 L 112.5,94.46 Z M 112.5,94.46" />
            <path id="mel04Canvas-bezier53" stroke="none" fill="rgb(51, 91, 113)" d="M 115.52,73.06 C 117.8,71.88 120.09,70.72 122.39,69.58 123.53,69 124.66,68.38 125.85,67.89 127.03,67.41 128.23,66.95 129.49,66.61 L 129.53,66.68 C 128.45,67.42 127.32,68.03 126.18,68.62 125.04,69.2 123.84,69.66 122.66,70.16 120.3,71.17 117.93,72.16 115.56,73.13 L 115.52,73.06 Z M 115.52,73.06" />
            <path id="mel04Canvas-bezier54" stroke="none" fill="rgb(51, 91, 113)" d="M 114.57,94.91 C 117.09,93.64 119.56,92.27 122,90.86 124.45,89.45 126.85,87.99 129.2,86.44 131.55,84.88 133.81,83.21 136.04,81.51 138.28,79.82 140.42,78 142.3,75.9 L 142.37,75.95 C 140.83,78.35 138.71,80.32 136.54,82.14 134.34,83.95 131.95,85.49 129.55,86.98 124.73,89.96 119.74,92.61 114.61,94.99 L 114.57,94.91 Z M 114.57,94.91" />
            <path id="mel04Canvas-bezier55" stroke="none" fill="rgb(51, 91, 113)" d="M 142.33,74.83 C 142.79,74.67 143.24,74.46 143.65,74.21 144.06,73.97 144.45,73.69 144.78,73.37 145.11,73.04 145.31,72.64 145.54,72.29 145.79,71.93 145.96,71.52 146.19,71.04 L 146.27,71.04 C 146.49,71.54 146.46,72.12 146.26,72.64 146.06,73.18 145.61,73.55 145.19,73.86 144.33,74.48 143.34,74.79 142.34,74.91 L 142.33,74.83 Z M 142.33,74.83" />
            <path id="mel04Canvas-bezier56" stroke="none" fill="rgb(51, 91, 113)" d="M 59.99,80.43 C 59.88,80.79 59.52,81.05 59.15,81.16 58.97,81.22 58.77,81.31 58.58,81.23 58.41,81.16 58.24,81.03 58.14,80.78 L 58.16,80.7 C 58.38,80.53 58.53,80.47 58.68,80.44 58.81,80.39 58.94,80.51 59.08,80.52 59.21,80.55 59.36,80.56 59.49,80.53 59.64,80.52 59.79,80.48 59.92,80.39 L 59.99,80.43 Z M 59.99,80.43" />
            <path id="mel04Canvas-bezier57" stroke="none" fill="rgb(51, 91, 113)" d="M 59.03,79.11 C 58.08,78.35 56.71,77.96 55.68,78.55 54.68,79.14 53.93,80.26 52.67,80.83 52.04,81.12 51.3,81.16 50.64,81.07 49.98,80.97 49.36,80.75 48.77,80.5 48.19,80.23 47.62,79.93 47.1,79.55 46.84,79.35 46.59,79.14 46.36,78.92 46.31,78.87 46.25,78.81 46.21,78.77 46.16,78.75 46.23,78.72 46.16,78.75 46.07,78.84 45.97,78.98 45.87,79.1 L 45.8,79.06 C 45.85,78.91 45.89,78.77 45.99,78.61 46.02,78.57 46.06,78.51 46.14,78.49 46.23,78.46 46.31,78.49 46.35,78.51 46.45,78.55 46.51,78.59 46.58,78.63 46.85,78.8 47.11,78.94 47.39,79.07 47.94,79.33 48.5,79.56 49.07,79.76 50.21,80.15 51.37,80.63 52.43,80.24 52.96,80.05 53.45,79.68 53.94,79.3 54.43,78.93 54.88,78.48 55.51,78.19 56.12,77.92 56.83,77.9 57.45,78.09 58.07,78.28 58.62,78.62 59.08,79.05 L 59.03,79.11 Z M 59.03,79.11" />
            <path id="mel04Canvas-bezier58" stroke="none" fill="rgb(51, 91, 113)" d="M 45.82,80.45 C 43.68,80.07 41.53,79.76 39.37,79.52 38.3,79.42 37.22,79.38 36.15,79.27 35.08,79.18 34.03,79.06 32.94,79.12 L 32.92,79.04 C 33.42,78.78 33.98,78.66 34.53,78.58 35.08,78.49 35.64,78.48 36.19,78.48 37.3,78.48 38.39,78.7 39.46,78.89 41.62,79.27 43.75,79.77 45.84,80.37 L 45.82,80.45 Z M 45.82,80.45" />
            <path id="mel04Canvas-bezier59" stroke="none" fill="rgb(51, 91, 113)" d="M 34.15,79.62 C 35.35,83.15 36.02,86.86 36.11,90.61 36.15,92.49 36.09,94.39 35.66,96.24 35.21,98.07 34.55,99.88 33.49,101.43 L 33.41,101.39 C 34.06,99.64 34.58,97.88 34.87,96.08 35.19,94.28 35.43,92.46 35.47,90.62 35.51,88.77 35.39,86.93 35.15,85.09 34.92,83.26 34.58,81.43 34.08,79.64 L 34.15,79.62 Z M 34.15,79.62" />
            <path id="mel04Canvas-bezier60" stroke="none" fill="rgb(51, 91, 113)" d="M 32.97,102.56 C 32.92,102.96 32.86,103.36 32.69,103.77 32.58,103.94 32.49,104.23 32.07,104.29 31.65,104.27 31.5,104 31.36,103.84 31.09,103.46 30.87,103.09 30.8,102.68 30.73,102.27 30.72,101.86 30.85,101.42 L 30.92,101.4 C 31.23,101.74 31.4,102.1 31.56,102.45 31.73,102.79 31.76,103.19 31.9,103.5 31.96,103.66 32.08,103.77 32.08,103.77 32.08,103.81 32.25,103.71 32.34,103.56 32.57,103.28 32.74,102.91 32.89,102.54 L 32.97,102.56 Z M 32.97,102.56" />
            <path id="mel04Canvas-bezier61" stroke="none" fill="rgb(51, 91, 113)" d="M 31.87,100.57 C 30.01,99.64 28.01,98.75 26.1,97.8 24.18,96.85 22.27,95.87 20.39,94.83 18.51,93.8 16.62,92.76 14.87,91.5 13.16,90.2 11.39,88.85 10.24,86.99 L 10.3,86.94 C 11.78,88.48 13.54,89.67 15.32,90.84 17.1,92 18.88,93.18 20.71,94.28 22.54,95.37 24.4,96.42 26.28,97.44 L 29.11,98.98 C 30.05,99.5 30.99,99.94 31.94,100.54 L 31.87,100.57 Z M 31.87,100.57" />
            <path id="mel04Canvas-bezier62" stroke="none" fill="rgb(51, 91, 113)" d="M 11.12,85.87 C 10.14,85.83 9.16,85.58 8.29,85 7.87,84.72 7.41,84.36 7.22,83.84 7.01,83.34 6.99,82.77 7.19,82.28 L 7.27,82.28 C 7.51,82.74 7.69,83.13 7.93,83.48 8.16,83.82 8.36,84.2 8.69,84.5 9.01,84.81 9.39,85.06 9.81,85.27 10.22,85.49 10.67,85.67 11.13,85.79 L 11.12,85.87 Z M 11.12,85.87" />
            <path id="mel04Canvas-bezier63" stroke="none" fill="rgb(51, 91, 113)" d="M 5.99,80.89 C 5.36,80.73 5.03,80.14 4.76,79.62 4.5,79.08 4.32,78.51 4.18,77.93 3.89,76.78 3.75,75.59 3.66,74.41 3.49,72.03 3.54,69.65 3.66,67.28 3.91,62.54 4.62,57.84 5.09,53.13 5.58,48.42 5.95,43.71 6.33,38.99 6.72,34.28 7.07,29.55 7.19,24.82 L 7.27,24.82 C 7.61,29.56 7.37,34.31 7.13,39.05 6.85,43.78 6.31,48.5 5.73,53.21 5.17,57.92 4.39,62.59 4.06,67.31 3.89,69.67 3.79,72.03 3.9,74.39 3.97,75.57 4.08,76.75 4.33,77.9 4.46,78.47 4.62,79.04 4.87,79.57 5.12,80.08 5.45,80.66 5.99,80.82 L 5.99,80.89 Z M 5.99,80.89" />
            <path id="mel04Canvas-bezier64" stroke="none" fill="rgb(51, 91, 113)" d="M 5.82,25.55 C 5.27,24.79 4.71,24.04 4.15,23.29 3.6,22.54 3.03,21.79 2.44,21.08 2.15,20.72 1.84,20.37 1.52,20.07 1.45,19.99 1.37,19.92 1.29,19.86 1.23,19.81 1.14,19.76 1.02,19.67 0.8,19.49 0.63,19.29 0.48,19.06 0.19,18.62 0,18.11 0,17.57 -0.02,17.05 0.23,16.46 0.69,16.24 L 0.74,16.3 C 0.22,17.09 0.64,17.98 1.12,18.59 1.25,18.75 1.4,18.9 1.54,19.01 1.6,19.06 1.71,19.14 1.82,19.24 1.93,19.34 2.01,19.43 2.1,19.53 2.42,19.91 2.68,20.3 2.95,20.69 4.03,22.25 4.97,23.87 5.88,25.51 L 5.82,25.55 Z M 5.82,25.55" />
            <path id="mel04Canvas-bezier65" stroke="none" fill="rgb(51, 91, 113)" d="M 1.98,14.95 C 2.67,14.51 3.32,13.99 3.83,13.36 3.96,13.2 4.06,13.05 4.17,12.86 4.27,12.68 4.44,12.5 4.58,12.36 4.89,12.06 5.22,11.8 5.55,11.55 6.91,10.58 8.32,9.72 9.84,8.98 10.04,8.89 10.22,8.8 10.47,8.73 10.55,8.72 10.57,8.68 10.81,8.72 10.82,8.71 11.01,8.81 11.05,8.86 11.17,8.95 11.24,9.03 11.32,9.12 11.61,9.46 11.85,9.81 12.08,10.16 12.55,10.85 12.96,11.58 13.34,12.31 L 13.89,13.43 14.02,13.72 C 14.07,13.82 14.12,13.99 14.13,14.1 14.17,14.34 14.16,14.57 14.13,14.79 14.08,15.23 13.97,15.64 13.82,16.05 13.65,16.43 13.46,16.85 13.1,17.1 L 13.04,17.04 C 13.29,16.73 13.39,16.33 13.47,15.94 13.55,15.55 13.59,15.15 13.58,14.76 13.57,14.57 13.55,14.38 13.51,14.22 13.48,14.13 13.47,14.1 13.42,14.02 L 13.27,13.76 12.64,12.7 11.41,10.58 C 11.21,10.23 11,9.88 10.77,9.58 10.71,9.51 10.65,9.43 10.61,9.39 10.58,9.37 10.68,9.41 10.58,9.37 10.73,9.4 10.64,9.38 10.62,9.39 10.47,9.42 10.27,9.49 10.09,9.57 8.61,10.2 7.15,10.99 5.78,11.88 5.44,12.1 5.1,12.33 4.8,12.59 4.64,12.73 4.52,12.84 4.4,13.02 4.29,13.18 4.15,13.36 4.01,13.52 3.44,14.14 2.75,14.62 2.02,15.02 L 1.98,14.95 Z M 1.98,14.95" />
            <path id="mel04Canvas-bezier66" stroke="none" fill="rgb(51, 91, 113)" d="M 6.4,12.29 C 7.27,11.77 8.16,11.28 9.09,10.87 9.33,10.77 9.57,10.67 9.83,10.59 10.09,10.53 10.33,10.43 10.68,10.48 10.77,10.49 10.89,10.54 10.99,10.62 11.03,10.66 11.09,10.72 11.14,10.78 11.23,10.88 11.31,10.98 11.39,11.09 11.55,11.3 11.7,11.51 11.84,11.72 12.4,12.59 12.99,13.43 13.23,14.54 13.25,14.69 13.27,14.83 13.26,15.02 13.25,15.11 13.24,15.21 13.18,15.33 13.17,15.38 13.11,15.46 13.07,15.51 13.02,15.56 12.91,15.63 12.9,15.63 12.72,15.7 12.55,15.85 12.37,16 12,16.33 11.75,16.71 11.31,17.12 L 11.31,17.04 C 11.42,16.6 11.66,16.08 11.95,15.64 12.09,15.42 12.29,15.2 12.55,15.02 12.57,14.99 12.5,15.06 12.51,15.05 12.51,15.05 12.51,15.02 12.51,14.99 12.5,14.92 12.48,14.82 12.45,14.72 12.17,13.87 11.76,12.92 11.29,12.06 11.17,11.84 11.05,11.63 10.92,11.42 10.85,11.32 10.78,11.22 10.72,11.13 10.68,11.09 10.66,11.06 10.61,11 10.61,11.01 10.61,11 10.58,10.99 10.23,10.93 9.69,11.1 9.23,11.24 8.29,11.55 7.35,11.94 6.44,12.36 L 6.4,12.29 Z M 6.4,12.29" />
            <path id="mel04Canvas-bezier67" stroke="none" fill="rgb(51, 91, 113)" d="M 10.04,15.35 C 10.02,15.11 10.08,14.86 10.27,14.64 10.36,14.53 10.48,14.37 10.66,14.4 10.82,14.41 10.98,14.52 11.03,14.76 L 11.02,14.83 C 10.88,15.04 10.83,15.12 10.8,15.18 10.78,15.25 10.71,15.16 10.63,15.17 10.49,15.18 10.3,15.25 10.11,15.38 L 10.04,15.35 Z M 10.04,15.35" />
            <path id="mel04Canvas-bezier68" stroke="none" fill="rgb(51, 91, 113)" d="M 10.52,14.44 C 10.53,14.15 10.51,13.86 10.46,13.62 10.43,13.5 10.32,13.42 10.36,13.33 10.38,13.22 10.43,13.12 10.52,12.87 L 10.58,12.82 C 10.85,12.8 11.03,12.95 11.13,13.12 11.24,13.3 11.14,13.51 11.1,13.67 11,14 10.82,14.27 10.59,14.48 L 10.52,14.44 Z M 10.52,14.44" />
            <path id="mel04Canvas-bezier69" stroke="none" fill="rgb(51, 91, 113)" d="M 10.05,14.26 C 9.64,14.07 9.22,13.91 8.82,13.79 8.62,13.73 8.41,13.76 8.26,13.66 8.09,13.58 8,13.46 7.72,13.36 L 7.68,13.29 C 7.8,12.96 8.18,12.87 8.43,12.88 8.72,12.89 8.91,13.08 9.11,13.22 9.5,13.49 9.82,13.83 10.1,14.19 L 10.05,14.26 Z M 10.05,14.26" />
            <path id="mel04Canvas-bezier70" stroke="none" fill="rgb(51, 91, 113)" d="M 9.66,14.5 C 9.39,14.66 9.13,14.82 8.94,15 8.84,15.09 8.82,15.23 8.72,15.25 8.63,15.28 8.51,15.28 8.26,15.37 L 8.19,15.36 C 8,15.16 8.04,14.88 8.14,14.7 8.25,14.5 8.48,14.48 8.65,14.43 9,14.34 9.33,14.35 9.65,14.42 L 9.66,14.5 Z M 9.66,14.5" />
            <path id="mel04Canvas-bezier71" stroke="none" fill="rgb(51, 91, 113)" d="M 9.68,15.77 C 10.38,16.45 11.04,17.17 11.66,17.92 11.98,18.3 12.34,18.64 12.55,19.09 12.77,19.54 12.96,20.03 12.92,20.58 L 12.84,20.6 C 12.48,20.24 12.17,19.9 11.88,19.52 11.58,19.15 11.39,18.7 11.14,18.29 L 9.62,15.82 9.68,15.77 Z M 9.68,15.77" />
            <path id="mel04Canvas-bezier72" stroke="none" fill="rgb(51, 91, 113)" d="M 13.52,21.18 C 14.17,21.48 14.75,21.97 15.14,22.64 15.34,22.97 15.55,23.34 15.52,23.75 15.5,24.15 15.36,24.55 15.06,24.83 L 14.98,24.81 C 14.85,24.42 14.8,24.11 14.72,23.81 14.64,23.53 14.67,23.21 14.56,22.91 14.36,22.31 13.98,21.72 13.48,21.24 L 13.52,21.18 Z M 13.52,21.18" />
            <path id="mel04Canvas-bezier73" stroke="none" fill="rgb(51, 91, 113)" d="M 13.51,19.22 C 14.62,19.67 15.64,20.44 16.3,21.52 16.63,22.05 16.93,22.66 16.93,23.31 16.94,23.95 16.79,24.59 16.43,25.11 L 16.36,25.1 C 16.28,24.47 16.24,23.92 16.14,23.39 16.02,22.87 15.97,22.33 15.74,21.82 15.52,21.31 15.19,20.84 14.8,20.42 14.42,20 13.98,19.61 13.48,19.3 L 13.51,19.22 Z M 13.51,19.22" />
            <path id="mel04Canvas-bezier74" stroke="none" fill="rgb(51, 91, 113)" d="M 16.29,25.54 C 16.13,29.48 16.1,33.43 16.19,37.37 16.3,41.31 16.5,45.25 17.19,49.13 17.85,53.01 18.63,56.89 19.12,60.82 19.57,64.74 19.95,68.74 19.49,72.68 L 19.41,72.68 C 19.41,68.73 18.92,64.82 18.32,60.93 L 16.56,49.23 C 15.94,45.3 15.82,41.33 15.79,37.38 15.8,33.42 15.95,29.47 16.21,25.53 L 16.29,25.54 Z M 16.29,25.54" />
            <path id="mel04Canvas-bezier75" stroke="none" fill="rgb(51, 91, 113)" d="M 19.81,73.92 C 20.03,74.27 20.26,74.61 20.51,74.9 20.64,75.05 20.82,75.14 20.89,75.29 20.97,75.45 21.01,75.61 21.1,75.89 L 21.07,75.96 C 20.78,76.08 20.5,75.98 20.3,75.84 20.09,75.69 20.04,75.43 19.96,75.22 19.8,74.8 19.73,74.37 19.73,73.94 L 19.81,73.92 Z M 19.81,73.92" />
            <path id="mel04Canvas-bezier76" stroke="none" fill="rgb(51, 91, 113)" d="M 21.87,75.89 C 23.8,76.29 25.71,76.76 27.61,77.32 28.55,77.6 29.52,77.83 30.43,78.25 31.32,78.67 32.23,79.14 32.95,79.87 L 32.9,79.93 C 31.97,79.59 31.05,79.31 30.13,78.99 29.21,78.69 28.32,78.27 27.4,77.92 25.57,77.24 23.71,76.59 21.85,75.96 L 21.87,75.89 Z M 21.87,75.89" />
            <path id="mel04Canvas-bezier77" stroke="none" fill="rgb(51, 91, 113)" d="M 32.08,103.99 C 34.05,104.44 36.02,104.89 37.99,105.31 38.97,105.52 39.97,105.67 40.94,105.93 L 42.38,106.32 C 42.62,106.39 42.87,106.46 43.11,106.51 43.34,106.57 43.59,106.63 43.82,106.6 L 43.86,106.67 C 43.35,106.94 42.81,106.87 42.3,106.87 41.78,106.86 41.28,106.79 40.77,106.71 39.77,106.55 38.8,106.22 37.83,105.93 35.89,105.37 33.97,104.74 32.06,104.07 L 32.08,103.99 Z M 32.08,103.99" />
            <path id="mel04Canvas-bezier78" stroke="none" fill="rgb(51, 91, 113)" d="M 44.64,102.71 C 45.26,104.43 45.76,106.2 46.03,108.03 46.15,108.95 46.2,109.89 46.07,110.83 45.97,111.72 45.93,112.63 45.91,113.54 45.87,115.36 45.95,117.18 45.98,118.99 45.98,119.9 46.02,120.81 46.08,121.71 46.1,122.16 46.15,122.61 46.22,123.05 46.29,123.48 46.36,123.96 46.65,124.28 L 46.6,124.34 C 46.17,124.06 46.04,123.56 45.87,123.14 45.72,122.69 45.62,122.24 45.52,121.78 45.35,120.87 45.26,119.95 45.18,119.03 45.05,117.19 45.14,115.35 45.27,113.51 45.34,112.59 45.41,111.68 45.56,110.76 45.72,109.88 45.71,108.98 45.63,108.08 45.48,106.28 45.08,104.48 44.56,102.73 L 44.64,102.71 Z M 44.64,102.71" />
            <path id="mel04Canvas-bezier79" stroke="none" fill="rgb(51, 91, 113)" d="M 105.89,90.52 C 105.67,93.6 105.57,96.68 105.6,99.76 105.61,102.85 105.82,105.89 106.32,108.96 106.66,112.05 106.6,115.24 105.69,118.28 105.22,119.78 104.57,121.25 103.58,122.5 102.6,123.75 101.22,124.72 99.69,125.05 L 99.66,124.97 C 101.11,124.43 102.29,123.41 103.13,122.17 103.97,120.93 104.55,119.52 104.92,118.06 105.69,115.14 105.93,112.06 105.68,109.02 105.27,105.98 105.13,102.84 105.2,99.76 105.28,96.67 105.48,93.58 105.81,90.51 L 105.89,90.52 Z M 105.89,90.52" />
            <path id="mel04Canvas-bezier80" stroke="none" fill="rgb(51, 91, 113)" d="M 55.6,124.31 C 55.71,126.84 55.93,129.37 56.21,131.89 56.48,134.41 56.82,136.93 57.26,139.42 57.71,141.91 58.29,144.37 58.91,146.81 59.51,149.26 60.27,151.66 61.26,154 L 61.19,154.04 C 59.78,151.9 58.88,149.46 58.14,147.02 57.41,144.57 56.99,142.04 56.63,139.52 55.9,134.48 55.55,129.39 55.52,124.31 L 55.6,124.31 Z M 55.6,124.31" />
            <path id="mel04Canvas-bezier81" stroke="none" fill="rgb(51, 91, 113)" d="M 72.09,127.25 C 75.64,126.71 79.2,126.27 82.78,125.94 84.57,125.77 86.37,125.59 88.17,125.61 89.08,125.64 89.98,125.67 90.88,125.78 91.77,125.9 92.71,126.01 93.52,126.49 L 93.48,126.56 C 93.06,126.42 92.62,126.38 92.18,126.36 91.74,126.33 91.3,126.32 90.85,126.33 89.96,126.34 89.07,126.36 88.18,126.41 L 82.83,126.58 C 79.25,126.76 75.68,127.02 72.1,127.33 L 72.09,127.25 Z M 72.09,127.25" />
            <path id="mel04Canvas-bezier82" stroke="none" fill="rgb(51, 91, 113)" d="M 104.87,124.33 C 104.56,125.25 104.49,126.25 104.45,127.23 104.43,128.21 104.5,129.19 104.7,130.14 104.89,131.1 105.21,132.02 105.66,132.87 105.89,133.29 106.16,133.68 106.45,134.08 106.76,134.5 107.01,134.94 107.23,135.41 108.08,137.28 108.36,139.36 108.27,141.37 108.11,143.37 107.8,145.39 106.9,147.19 L 106.83,147.16 C 107.08,146.21 107.21,145.23 107.31,144.26 107.41,143.29 107.48,142.32 107.47,141.34 107.46,139.41 107.36,137.45 106.64,135.67 106.46,135.23 106.24,134.8 105.98,134.41 105.7,134.01 105.42,133.56 105.2,133.11 104.75,132.19 104.46,131.21 104.31,130.21 104.16,129.22 104.13,128.21 104.21,127.22 104.3,126.23 104.43,125.23 104.8,124.29 L 104.87,124.33 Z M 104.87,124.33" />
            <path id="mel04Canvas-bezier83" stroke="none" fill="rgb(51, 91, 113)" d="M 109.68,144.51 C 109.94,146.73 110.24,148.93 110.59,151.13 110.94,153.32 111.31,155.52 111.88,157.65 112.03,158.18 112.19,158.7 112.39,159.19 112.5,159.43 112.61,159.67 112.74,159.85 L 113.26,160.49 C 113.95,161.36 114.63,162.26 115.25,163.2 115.84,164.16 116.45,165.12 116.79,166.25 116.87,166.54 116.93,166.84 116.9,167.17 116.89,167.49 116.64,167.89 116.3,167.98 115.65,168.13 115.11,167.93 114.58,167.74 L 114.6,167.67 C 115.14,167.74 115.74,167.84 116.16,167.64 116.57,167.46 116.45,166.9 116.26,166.43 115.86,165.45 115.23,164.53 114.59,163.65 113.95,162.75 113.28,161.87 112.63,160.97 L 112.13,160.28 C 111.94,160 111.83,159.73 111.73,159.45 111.53,158.9 111.39,158.35 111.26,157.8 110.76,155.61 110.47,153.39 110.2,151.18 109.95,148.96 109.75,146.74 109.6,144.52 L 109.68,144.51 Z M 109.68,144.51" />
            <path id="mel04Canvas-bezier84" stroke="none" fill="rgb(51, 91, 113)" d="M 49.64,115.77 C 49.27,118.26 49.03,120.78 48.92,123.29 48.83,125.81 48.84,128.35 49.31,130.8 49.56,132.02 49.92,133.22 50.69,134.19 51.43,135.27 51.93,136.46 52.33,137.68 53.09,140.12 53.43,142.67 53.51,145.21 53.55,146.49 53.52,147.77 53.36,149.05 53.28,149.69 53.17,150.33 52.99,150.96 52.9,151.28 52.75,151.61 52.66,151.87 L 52.37,152.76 C 51.63,155.15 50.98,157.59 50.32,160.03 49.64,162.46 49.01,164.9 48.36,167.34 L 47.41,171 C 47.09,172.22 46.75,173.44 46.54,174.68 L 46.46,174.67 C 46.75,172.15 47.3,169.68 47.82,167.21 48.35,164.73 48.95,162.28 49.55,159.82 50.18,157.37 50.82,154.93 51.61,152.51 51.72,152.21 51.82,151.91 51.93,151.61 52.06,151.28 52.18,151.03 52.26,150.74 52.45,150.17 52.56,149.56 52.65,148.95 52.83,147.73 52.89,146.48 52.87,145.23 52.83,142.73 52.54,140.22 51.83,137.83 51.47,136.64 50.99,135.47 50.31,134.46 49.52,133.41 49.15,132.12 48.92,130.88 48.49,128.35 48.53,125.8 48.68,123.28 48.84,120.76 49.14,118.24 49.56,115.75 L 49.64,115.77 Z M 49.64,115.77" />
            <path id="mel04Canvas-bezier85" stroke="none" fill="rgb(51, 91, 113)" d="M 47.96,176.03 C 53.36,177.18 58.88,177.83 64.39,177.84 67.15,177.83 69.91,177.65 72.6,177.13 73.95,176.87 75.28,176.52 76.56,176.05 77.83,175.57 79.11,175.02 80.39,174.5 85.5,172.41 90.63,170.28 96,168.81 98.69,168.1 101.42,167.5 104.19,167.25 106.96,167 109.8,167.07 112.48,167.85 L 112.46,167.93 C 111.11,167.64 109.73,167.52 108.36,167.52 106.99,167.51 105.61,167.62 104.26,167.8 101.54,168.17 98.85,168.8 96.22,169.58 90.94,171.13 85.77,173.08 80.63,175.1 79.33,175.6 78.07,176.12 76.75,176.6 75.43,177.06 74.07,177.39 72.69,177.64 69.95,178.13 67.16,178.27 64.39,178.24 58.84,178.12 53.33,177.36 47.94,176.11 L 47.96,176.03 Z M 47.96,176.03" />
            <path id="mel04Canvas-bezier86" stroke="none" fill="rgb(51, 91, 113)" d="M 70.41,137.14 C 72.67,139.14 74.99,141.08 77.34,142.98 79.68,144.89 82.06,146.76 84.48,148.56 86.91,150.35 89.41,152.05 91.9,153.73 94.4,155.42 96.95,157.01 99.69,158.29 L 99.66,158.37 C 96.73,157.5 94.06,155.98 91.47,154.4 88.89,152.79 86.48,150.94 84.1,149.07 79.33,145.32 74.75,141.35 70.35,137.2 L 70.41,137.14 Z M 70.41,137.14" />
            <path id="mel04Canvas-bezier87" stroke="none" fill="rgb(51, 91, 113)" d="M 62.12,133.1 C 63.27,135.49 64.5,137.84 65.76,140.16 67.02,142.5 68.32,144.8 69.7,147.06 71.09,149.31 72.57,151.5 74.08,153.66 75.58,155.81 77.17,157.92 79.14,159.69 L 79.1,159.75 C 76.82,158.33 75.07,156.22 73.43,154.13 71.82,152 70.47,149.69 69.15,147.38 66.52,142.76 64.17,138 62.05,133.13 L 62.12,133.1 Z M 62.12,133.1" />
            <path id="mel04Canvas-bezier88" stroke="none" fill="rgb(51, 91, 113)" d="M 138,20.63 C 140.64,28.52 142.9,36.54 144.67,44.68 145.55,48.75 146.36,52.85 146.74,57.01 146.92,59.09 147.04,61.18 147,63.27 146.95,65.36 146.78,67.46 146.27,69.49 L 146.19,69.47 C 146.72,65.35 146.42,61.2 145.95,57.09 145.46,52.98 144.84,48.88 144.05,44.81 143.25,40.73 142.31,36.68 141.27,32.66 140.25,28.63 139.15,24.62 137.92,20.65 L 138,20.63 Z M 138,20.63" />
            <path id="mel04Canvas-bezier89" stroke="none" fill="rgb(51, 91, 113)" d="M 130.4,24.25 C 130.57,30.3 130.76,36.36 131,42.4 131.13,45.43 131.32,48.45 131.43,51.47 131.47,52.98 131.54,54.49 131.61,56 131.64,56.75 131.68,57.51 131.74,58.26 131.79,59.01 131.85,59.77 132.02,60.5 L 131.94,60.52 C 131.41,59.07 131.26,57.55 131.05,56.04 130.87,54.54 130.75,53.02 130.63,51.51 130.42,48.48 130.4,45.45 130.36,42.42 130.26,36.36 130.25,30.31 130.32,24.25 L 130.4,24.25 Z M 130.4,24.25" />
            <path id="mel04Canvas-bezier90" stroke="none" fill="rgb(51, 91, 113)" d="M 132.02,61.73 C 131.97,62.54 131.88,63.35 131.72,64.15 131.63,64.55 131.6,64.98 131.39,65.35 131.28,65.54 131.16,65.72 131,65.88 130.85,66.04 130.63,66.2 130.38,66.22 L 130.34,66.15 C 130.5,65.78 130.54,65.42 130.65,65.05 130.74,64.68 130.96,64.34 131.1,63.97 131.4,63.23 131.67,62.48 131.94,61.71 L 132.02,61.73 Z M 132.02,61.73" />
            <path id="mel04Canvas-bezier91" stroke="none" fill="rgb(51, 91, 113)" d="M 132.33,3.75 C 132.19,4.1 132.11,4.46 132.09,4.79 132.08,4.95 132.17,5.1 132.11,5.24 132.06,5.38 132,5.52 131.86,5.77 L 131.78,5.8 C 131.51,5.7 131.37,5.48 131.31,5.25 131.25,5.02 131.39,4.8 131.48,4.61 131.66,4.23 131.94,3.92 132.26,3.7 L 132.33,3.75 Z M 132.33,3.75" />
            <path id="mel04Canvas-bezier92" stroke="none" fill="rgb(51, 91, 113)" d="M 130.4,4.08 L 131.11,4.53 C 131.22,4.6 131.38,4.61 131.42,4.72 131.48,4.83 131.46,4.94 131.54,5.17 L 131.53,5.25 C 131.33,5.45 131.07,5.4 130.92,5.34 130.75,5.28 130.71,5.1 130.64,4.97 130.49,4.7 130.39,4.42 130.33,4.13 L 130.4,4.08 Z M 130.4,4.08" />
            <path id="mel04Canvas-bezier93" stroke="none" fill="rgb(51, 91, 113)" d="M 132.04,6.06 C 131.57,7.02 131.2,8.01 130.88,9.02 130.57,10.03 130.33,11.06 130.25,12.09 L 130.25,12.19 130.15,12.3 C 129.58,12.94 129.28,13.78 129.09,14.64 128.9,15.51 128.9,16.43 128.94,17.4 L 128.87,17.42 C 128.43,16.55 128.22,15.54 128.32,14.52 128.38,14.02 128.51,13.51 128.74,13.05 128.97,12.59 129.3,12.17 129.68,11.81 L 129.58,12.02 C 129.95,9.84 130.85,7.85 131.97,6.02 L 132.04,6.06 Z M 132.04,6.06" />
            <path id="mel04Canvas-bezier94" stroke="none" fill="rgb(51, 91, 113)" d="M 129.07,18.13 L 129.87,20.85 C 130,21.3 130.2,21.73 130.26,22.19 130.34,22.65 130.36,23.11 130.39,23.59 L 130.33,23.64 C 129.88,23.32 129.67,22.84 129.49,22.4 129.31,21.94 129.31,21.45 129.24,20.98 129.11,20.04 129.03,19.09 128.99,18.14 L 129.07,18.13 Z M 129.07,18.13" />
            <path id="mel04Canvas-bezier95" stroke="none" fill="rgb(51, 91, 113)" d="M 130.32,7.72 C 129.98,7.73 129.63,7.62 129.37,7.38 129.11,7.13 128.96,6.79 128.91,6.44 128.81,5.78 128.81,5.1 128.86,4.43 128.92,3.76 129.02,3.08 129.35,2.43 129.44,2.26 129.55,2.1 129.7,1.96 129.77,1.89 129.86,1.82 129.96,1.77 130.01,1.75 130.05,1.72 130.11,1.7 130.15,1.69 130.19,1.68 130.24,1.66 130.63,1.56 130.96,1.56 131.31,1.55 132.66,1.54 134.01,1.72 135.25,1.81 135.4,1.82 135.53,1.81 135.75,1.82 135.93,1.83 136.12,1.85 136.3,1.89 136.65,1.98 137,2.11 137.3,2.31 137.61,2.5 137.89,2.75 138.08,3.07 138.26,3.39 138.34,3.77 138.26,4.11 L 138.18,4.1 C 138.1,3.44 137.59,3.02 137.04,2.8 136.76,2.69 136.47,2.61 136.18,2.59 136.03,2.57 135.89,2.56 135.74,2.57 135.63,2.58 135.43,2.61 135.25,2.61 133.85,2.62 132.58,2.27 131.29,2.19 130.98,2.17 130.65,2.17 130.39,2.22 130.13,2.26 129.97,2.43 129.8,2.68 129.5,3.19 129.35,3.84 129.25,4.48 129.15,5.11 129.11,5.77 129.15,6.42 129.17,6.73 129.27,7.03 129.48,7.26 129.69,7.49 130,7.62 130.32,7.64 L 130.32,7.72 130.32,7.72 Z M 130.32,7.72" />
            <path id="mel04Canvas-bezier96" stroke="none" fill="rgb(51, 91, 113)" d="M 129.37,1.37 C 129.5,0.8 129.93,0.29 130.52,0.11 131.1,-0.09 131.73,0.03 132.27,0.12 133.39,0.32 134.5,0.55 135.61,0.77 L 137.27,1.07 C 137.55,1.12 137.83,1.17 138.08,1.2 138.15,1.21 138.19,1.22 138.26,1.22 138.32,1.23 138.43,1.24 138.5,1.25 138.66,1.28 138.82,1.31 138.97,1.36 139.55,1.55 140.19,1.91 140.46,2.56 140.73,3.22 140.51,3.88 140.19,4.34 L 140.11,4.31 C 140.23,3.76 140.24,3.19 139.97,2.82 139.71,2.45 139.24,2.23 138.76,2.13 138.63,2.1 138.51,2.07 138.39,2.06 138.32,2.05 138.29,2.05 138.21,2.05 138.14,2.04 138.04,2.03 137.97,2.03 137.66,1.98 137.39,1.91 137.11,1.84 L 135.46,1.39 C 134.37,1.09 133.28,0.79 132.19,0.51 131.64,0.36 131.11,0.21 130.58,0.34 130.07,0.45 129.62,0.87 129.45,1.39 L 129.37,1.37 Z M 129.37,1.37" />
            <path id="mel04Canvas-bezier97" stroke="none" fill="rgb(51, 91, 113)" d="M 141.36,3.11 C 141.91,3.25 142.36,3.71 142.53,4.26 142.71,4.81 142.66,5.41 142.54,5.95 142.26,7.04 141.8,8.03 141.35,9.03 140.9,10.02 140.47,11.02 139.92,11.95 139.39,12.89 138.71,13.78 138.26,14.71 L 138.18,14.72 C 138.15,14.12 138.39,13.61 138.57,13.09 138.75,12.57 138.98,12.08 139.21,11.58 139.67,10.6 140.26,9.69 140.78,8.74 141.29,7.79 141.82,6.84 142.15,5.85 142.31,5.35 142.41,4.83 142.3,4.33 142.2,3.83 141.84,3.38 141.34,3.19 L 141.36,3.11 Z M 141.36,3.11" />
            <path id="mel04Canvas-bezier98" stroke="none" fill="rgb(51, 91, 113)" d="M 142.52,7.28 C 142.9,7.77 142.8,8.45 142.57,8.98 L 141.81,10.5 C 141.3,11.51 140.83,12.54 140.38,13.58 139.95,14.62 139.59,15.68 139.18,16.71 138.79,17.76 138.36,18.78 138.26,19.9 L 138.18,19.92 C 137.99,19.35 138.01,18.74 138.07,18.16 138.12,17.58 138.26,17.01 138.42,16.46 138.75,15.34 139.28,14.32 139.8,13.31 140.32,12.29 140.88,11.29 141.45,10.31 L 142.35,8.87 C 142.61,8.41 142.76,7.8 142.46,7.33 L 142.52,7.28 Z M 142.52,7.28" />
            <path id="mel04Canvas-bezier99" stroke="none" fill="rgb(51, 91, 113)" d="M 64.35,51.11 C 65.37,50.29 66.75,49.93 68.1,50.06 68.77,50.12 69.46,50.23 70.05,50.58 70.63,50.91 71.15,51.35 71.53,51.92 L 71.48,51.98 C 70.84,51.77 70.28,51.51 69.71,51.3 69.14,51.1 68.6,50.81 68,50.69 67.41,50.56 66.79,50.53 66.18,50.62 65.57,50.69 64.95,50.86 64.4,51.17 L 64.35,51.11 Z M 64.35,51.11" />
            <path id="mel04Canvas-bezier100" stroke="none" fill="rgb(51, 91, 113)" d="M 79.03,51.92 C 80.08,51.05 81.26,50.32 82.6,49.88 83.26,49.66 83.98,49.46 84.71,49.56 85.43,49.65 86.15,49.95 86.63,50.49 L 86.59,50.56 C 85.9,50.41 85.29,50.34 84.66,50.35 84.04,50.38 83.4,50.36 82.76,50.5 82.13,50.62 81.49,50.83 80.88,51.09 80.26,51.34 79.66,51.64 79.08,51.98 L 79.03,51.92 Z M 79.03,51.92" />
            <path id="mel04Canvas-bezier101" stroke="none" fill="rgb(51, 91, 113)" d="M 66.4,54.17 C 66.72,53.73 67.18,53.38 67.71,53.19 68.23,52.99 68.82,52.97 69.37,53.08 69.92,53.18 70.46,53.38 70.92,53.7 71.37,54.02 71.79,54.38 72.11,54.83 L 72.09,54.86 C 71.61,54.59 71.18,54.28 70.71,54.04 70.25,53.78 69.8,53.52 69.3,53.39 68.31,53.1 67.15,53.38 66.44,54.19 L 66.4,54.17 Z M 66.4,54.17" />
            <path id="mel04Canvas-bezier102" stroke="none" fill="rgb(51, 91, 113)" d="M 66.87,54.83 C 67.57,54.94 68.28,54.98 68.98,54.98 69.33,54.97 69.68,54.93 70.03,54.93 70.38,54.95 70.73,54.94 71.1,55 L 71.11,55.04 C 70.77,55.21 70.41,55.28 70.05,55.33 69.69,55.38 69.33,55.33 68.97,55.3 68.25,55.23 67.54,55.09 66.86,54.87 L 66.87,54.83 Z M 66.87,54.83" />
            <path id="mel04Canvas-bezier103" stroke="none" fill="rgb(51, 91, 113)" d="M 78.82,54.83 C 79.61,53.93 80.58,53.12 81.78,52.73 82.37,52.52 83.04,52.51 83.65,52.65 83.95,52.73 84.26,52.83 84.53,53.02 84.79,53.2 85.03,53.47 85.06,53.8 L 85.02,53.8 C 84.72,53.29 84.12,53.13 83.57,53.04 83,52.96 82.42,52.89 81.86,53.04 81.3,53.17 80.76,53.43 80.26,53.75 79.75,54.07 79.28,54.44 78.85,54.86 L 78.82,54.83 Z M 78.82,54.83" />
            <path id="mel04Canvas-bezier104" stroke="none" fill="rgb(51, 91, 113)" d="M 80.2,54.83 C 80.95,54.89 81.7,54.88 82.44,54.79 82.8,54.74 83.15,54.63 83.5,54.56 83.86,54.49 84.19,54.37 84.55,54.23 L 84.58,54.26 C 84.35,54.59 83.98,54.79 83.62,54.94 83.25,55.08 82.85,55.1 82.46,55.11 81.69,55.13 80.93,55.04 80.19,54.87 L 80.2,54.83 Z M 80.2,54.83" />
            <path id="mel04Canvas-bezier105" stroke="none" fill="rgb(51, 91, 113)" d="M 67.99,55.01 C 67.88,54.91 67.77,54.77 67.7,54.61 67.63,54.47 67.6,54.26 67.6,54.11 67.59,53.93 67.61,53.73 67.72,53.58 67.83,53.44 67.97,53.31 68.17,53.29 L 68.2,53.32 C 68.15,53.51 68.1,53.63 68.07,53.77 68.03,53.89 67.95,54 67.91,54.13 67.88,54.29 67.87,54.4 67.89,54.56 67.91,54.71 67.95,54.85 68.02,54.99 L 67.99,55.01 Z M 67.99,55.01" />
            <path id="mel04Canvas-bezier106" stroke="none" fill="rgb(51, 91, 113)" d="M 70.09,53.65 C 70.18,53.76 70.26,53.91 70.31,54.07 70.34,54.24 70.36,54.38 70.34,54.56 70.32,54.73 70.29,54.92 70.17,55.05 70.05,55.17 69.9,55.27 69.71,55.27 L 69.68,55.24 C 69.73,55.06 69.8,54.95 69.84,54.82 69.89,54.71 69.98,54.61 70.03,54.49 70.08,54.38 70.1,54.22 70.11,54.09 70.11,53.95 70.1,53.81 70.05,53.66 L 70.09,53.65 Z M 70.09,53.65" />
            <path id="mel04Canvas-bezier107" stroke="none" fill="rgb(51, 91, 113)" d="M 81.69,54.94 C 81.53,54.93 81.34,54.89 81.18,54.79 81.02,54.69 80.88,54.56 80.76,54.39 80.65,54.23 80.51,54.03 80.56,53.81 80.58,53.73 80.6,53.72 80.61,53.68 80.64,53.63 80.67,53.57 80.71,53.53 80.78,53.44 80.88,53.37 81.01,53.34 L 81.09,53.37 C 81.23,53.61 81.31,53.67 81.36,53.81 81.43,53.9 81.33,54.02 81.35,54.14 81.36,54.26 81.39,54.39 81.46,54.51 81.51,54.64 81.59,54.75 81.72,54.87 L 81.69,54.94 Z M 81.69,54.94" />
            <path id="mel04Canvas-bezier108" stroke="none" fill="rgb(51, 91, 113)" d="M 82.98,52.9 C 83.3,53.11 83.52,53.51 83.51,53.92 83.51,54.12 83.48,54.37 83.35,54.53 83.21,54.69 83.03,54.83 82.8,54.83 L 82.78,54.8 C 82.87,54.61 82.96,54.47 83.01,54.32 83.06,54.18 83.15,54.06 83.19,53.9 83.26,53.58 83.18,53.22 82.95,52.93 L 82.98,52.9 Z M 82.98,52.9" />
            <path id="mel04Canvas-bezier109" stroke="none" fill="rgb(51, 91, 113)" d="M 75.37,63.82 C 75.08,63.79 74.76,63.66 74.51,63.47 74.26,63.29 74.04,63.14 73.82,63.15 73.59,63.15 73.29,63.23 73.01,63.31 72.86,63.35 72.7,63.39 72.5,63.4 72.3,63.42 72.05,63.34 71.87,63.21 L 71.98,63.27 C 71.62,63.16 71.41,62.9 71.3,62.59 71.21,62.28 71.27,61.99 71.36,61.76 71.54,61.29 71.86,60.96 72.24,60.72 L 72.31,60.76 C 72.22,61.2 72.1,61.6 72.07,61.94 72.05,62.11 72.07,62.26 72.1,62.35 72.11,62.44 72.19,62.53 72.22,62.57 L 72.07,62.35 72.33,62.63 C 72.38,62.69 72.42,62.73 72.52,62.75 72.62,62.76 72.75,62.75 72.9,62.73 73.21,62.7 73.5,62.66 73.87,62.71 74.25,62.77 74.5,63.07 74.68,63.27 74.88,63.49 75.1,63.65 75.39,63.74 L 75.37,63.82 Z M 75.37,63.82" />
            <path id="mel04Canvas-bezier110" stroke="none" fill="rgb(51, 91, 113)" d="M 77.46,62.89 C 77.7,62.66 77.96,62.47 78.28,62.34 78.43,62.27 78.61,62.14 78.85,62.23 78.96,62.27 79.12,62.35 79.2,62.52 79.29,62.69 79.21,62.86 79.09,62.93 L 79.01,62.92 C 78.91,62.83 78.81,62.84 78.79,62.9 78.77,62.96 78.77,62.99 78.73,63.02 78.67,63.07 78.54,62.97 78.4,62.96 78.12,62.95 77.81,62.95 77.49,62.96 L 77.46,62.89 Z M 77.46,62.89" />
            <path id="mel04Canvas-bezier111" stroke="none" fill="rgb(51, 91, 113)" d="M 72.49,52.42 C 73.18,52.73 73.74,53.38 74,54.15 74.12,54.54 74.25,54.96 74.15,55.36 74.06,55.76 73.89,56.13 73.56,56.41 L 73.49,56.39 C 73.39,55.97 73.38,55.62 73.36,55.29 73.33,54.96 73.41,54.64 73.37,54.3 73.29,53.65 72.98,52.98 72.45,52.49 L 72.49,52.42 Z M 72.49,52.42" />
            <path id="mel04Canvas-bezier112" stroke="none" fill="rgb(51, 91, 113)" d="M 59.7,64.99 C 59.78,65.04 59.88,65.17 59.82,65.3 59.78,65.41 59.69,65.48 59.6,65.55 59.43,65.67 59.25,65.77 59.06,65.86 58.7,66.05 58.33,66.23 58,66.45 57.68,66.66 57.37,66.97 57.43,67.28 57.5,67.61 57.8,67.85 58.13,68.12 58.3,68.28 58.46,68.48 58.5,68.76 58.54,69.04 58.42,69.31 58.28,69.49 58,69.87 57.64,70.11 57.3,70.35 L 56.28,71.02 C 55.97,71.23 55.61,71.54 55.61,71.69 55.56,71.76 55.89,72.03 56.24,72.16 56.57,72.31 56.99,72.39 57.42,72.66 57.62,72.8 57.88,73 57.97,73.38 58.04,73.77 57.86,74.09 57.71,74.28 57.38,74.68 57.02,74.91 56.66,75.14 55.93,75.58 55.18,75.92 54.45,76.26 54.27,76.35 54.09,76.44 53.93,76.54 53.85,76.59 53.77,76.64 53.71,76.69 53.64,76.74 53.65,76.78 53.63,76.73 53.61,76.77 53.87,76.88 54.04,76.92 54.24,76.97 54.44,77 54.64,77.04 L 54.64,77.12 C 54.43,77.14 54.22,77.16 54.01,77.15 53.9,77.14 53.8,77.14 53.68,77.12 53.57,77.08 53.44,77.08 53.31,76.91 53.24,76.81 53.26,76.66 53.29,76.59 53.33,76.51 53.37,76.46 53.41,76.41 53.49,76.31 53.57,76.23 53.66,76.16 53.83,76.02 54,75.9 54.17,75.78 54.86,75.31 55.58,74.92 56.23,74.47 56.55,74.25 56.87,74.01 57.05,73.77 57.15,73.65 57.17,73.56 57.17,73.53 57.18,73.51 57.11,73.4 56.98,73.31 56.73,73.12 56.34,73.01 55.93,72.8 55.74,72.7 55.54,72.59 55.35,72.43 55.17,72.28 54.91,71.99 54.98,71.6 55.05,71.25 55.26,71.07 55.42,70.92 55.6,70.77 55.78,70.65 55.96,70.54 L 57.02,69.91 C 57.68,69.52 58.47,68.94 57.85,68.41 57.59,68.14 57.19,67.83 57.12,67.32 57.09,67.06 57.21,66.81 57.36,66.64 57.51,66.47 57.69,66.35 57.88,66.24 58.24,66.03 58.62,65.88 59,65.71 59.18,65.63 59.37,65.55 59.54,65.45 59.71,65.35 59.84,65.18 59.65,65.04 L 59.7,64.99 Z M 59.7,64.99" />
            <path id="mel04Canvas-bezier113" stroke="none" fill="rgb(51, 91, 113)" d="M 61.25,67.06 C 60.79,67.52 60.35,68 59.95,68.5 59.57,69 59.16,69.55 59.05,70.1 59,70.38 59.1,70.51 59.37,70.58 59.62,70.65 59.93,70.6 60.3,70.64 60.39,70.65 60.48,70.66 60.59,70.7 60.68,70.73 60.88,70.78 60.94,71.06 60.96,71.31 60.86,71.41 60.81,71.5 60.74,71.58 60.68,71.65 60.61,71.71 60.36,71.95 60.1,72.15 59.86,72.36 59.62,72.56 59.38,72.78 59.25,72.98 59.18,73.08 59.2,73.15 59.2,73.11 59.19,73.09 59.25,73.15 59.37,73.19 59.47,73.24 59.63,73.27 59.84,73.39 59.94,73.45 60.08,73.51 60.2,73.76 60.25,73.88 60.25,74.05 60.2,74.17 60.16,74.28 60.11,74.35 60.06,74.4 59.68,74.75 59.39,74.82 59.07,74.98 58.47,75.22 57.83,75.41 57.34,75.69 56.77,75.81 57.62,76.26 58.16,76.51 L 58.14,76.58 C 57.81,76.55 57.49,76.5 57.15,76.37 57,76.28 56.78,76.21 56.7,75.89 56.66,75.54 56.88,75.37 57,75.25 57.57,74.77 58.18,74.54 58.75,74.25 59.02,74.13 59.35,73.95 59.44,73.85 59.44,73.84 59.43,73.85 59.42,73.88 59.4,73.92 59.41,74 59.43,74.06 59.48,74.15 59.48,74.11 59.44,74.09 59.37,74.05 59.21,74 59.02,73.91 58.85,73.81 58.61,73.69 58.49,73.35 58.39,72.99 58.55,72.73 58.67,72.57 58.92,72.25 59.19,72.06 59.46,71.86 59.72,71.66 60,71.47 60.22,71.28 60.27,71.24 60.33,71.19 60.36,71.15 60.4,71.11 60.4,71.06 60.4,71.14 60.44,71.25 60.47,71.22 60.41,71.2 60.37,71.18 60.3,71.17 60.23,71.15 59.96,71.1 59.61,71.14 59.23,71.02 59.06,70.96 58.85,70.85 58.72,70.64 58.6,70.43 58.61,70.2 58.66,70.02 58.87,69.31 59.34,68.83 59.77,68.34 60.22,67.86 60.7,67.42 61.2,67 L 61.25,67.06 Z M 61.25,67.06" />
            <path id="mel04Canvas-bezier114" stroke="none" fill="rgb(51, 91, 113)" d="M 62.85,68.62 C 62.77,68.97 62.55,69.18 62.4,69.46 62.24,69.72 62.08,69.98 61.93,70.25 61.65,70.77 61.36,71.37 61.43,71.88 61.46,72.13 61.61,72.29 61.86,72.38 62.08,72.48 62.43,72.42 62.81,72.71 62.91,72.79 63,72.95 63,73.11 62.99,73.26 62.94,73.37 62.89,73.46 62.79,73.64 62.68,73.76 62.57,73.88 62.34,74.12 62.12,74.32 61.93,74.54 61.5,75.09 61.54,75.04 62.14,75.27 62.29,75.32 62.5,75.39 62.7,75.56 62.81,75.65 62.94,75.86 62.92,76.09 62.91,76.3 62.81,76.44 62.74,76.53 62.42,76.87 62.14,76.98 61.85,77.14 61.26,77.42 60.67,77.62 60.09,77.81 59.82,77.9 59.48,78.02 59.33,78.12 59.32,78.14 59.34,78.06 59.3,78.02 59.28,78 59.3,78.03 59.32,78.04 59.37,78.07 59.44,78.09 59.51,78.11 59.65,78.15 59.8,78.18 59.96,78.22 L 59.96,78.3 C 59.8,78.32 59.64,78.34 59.48,78.34 59.4,78.34 59.32,78.34 59.22,78.32 59.17,78.3 59.11,78.3 59.04,78.22 58.94,78.12 59,77.95 59.04,77.91 59.33,77.57 59.59,77.49 59.86,77.3 60.41,76.99 60.97,76.73 61.48,76.44 61.72,76.3 62,76.13 62.1,76 62.12,75.98 62.11,75.97 62.1,76.03 62.1,76.11 62.15,76.17 62.14,76.15 62.11,76.12 62.03,76.07 61.89,76.02 61.73,75.96 61.56,75.89 61.39,75.78 61.24,75.67 61.03,75.5 60.95,75.2 60.89,74.89 61.02,74.65 61.12,74.5 61.23,74.33 61.35,74.21 61.47,74.09 61.7,73.86 61.95,73.67 62.16,73.47 62.26,73.37 62.36,73.27 62.42,73.18 62.45,73.14 62.46,73.1 62.46,73.1 62.46,73.1 62.48,73.12 62.46,73.09 62.35,72.97 62.03,72.94 61.69,72.8 61.35,72.68 61.04,72.31 61.03,71.92 61.02,71.18 61.4,70.65 61.73,70.12 61.9,69.86 62.09,69.61 62.27,69.37 62.44,69.12 62.68,68.87 62.77,68.63 L 62.85,68.62 Z M 62.85,68.62" />
            <path id="mel04Canvas-bezier115" stroke="none" fill="rgb(51, 91, 113)" d="M 86.94,72.38 C 86.82,72.72 86.72,73.08 86.67,73.42 86.63,73.59 86.61,73.77 86.61,73.92 86.6,74.07 86.67,74.22 86.68,74.17 86.68,74.17 86.68,74.16 86.68,74.16 86.69,74.15 86.69,74.15 86.69,74.15 L 86.78,74.16 C 86.95,74.18 87.13,74.27 87.25,74.41 87.47,74.7 87.48,74.97 87.45,75.18 87.42,75.4 87.36,75.58 87.28,75.75 87.21,75.92 87.07,76.1 87.06,76.18 L 87.05,76.26 C 86.97,76.29 86.88,76.2 86.86,76.14 86.83,76.08 86.8,76.03 86.79,75.98 86.75,75.87 86.73,75.77 86.72,75.68 L 86.65,75.16 C 86.63,75.02 86.61,74.9 86.62,74.89 86.63,74.88 86.64,74.87 86.64,74.85 86.62,74.85 86.58,74.84 86.59,74.83 L 86.47,74.8 C 86.38,74.76 86.3,74.71 86.24,74.64 85.99,74.33 86.06,74.06 86.09,73.86 86.14,73.65 86.21,73.47 86.29,73.3 86.46,72.96 86.65,72.64 86.87,72.34 L 86.94,72.38 Z M 86.94,72.38" />
            <path id="mel04Canvas-bezier116" stroke="none" fill="rgb(51, 91, 113)" d="M 88.3,69.51 C 87.91,69.9 87.54,70.33 87.34,70.81 87.25,71.05 87.24,71.3 87.38,71.45 87.52,71.6 87.78,71.67 88.03,71.71 88.27,71.75 88.58,71.72 88.91,71.9 89.07,71.98 89.25,72.2 89.25,72.41 89.26,72.62 89.21,72.79 89.15,72.94 88.89,73.5 88.52,73.93 88.27,74.38 88.22,74.48 88.17,74.6 88.17,74.65 88.17,74.68 88.18,74.66 88.16,74.62 88.15,74.59 88.13,74.58 88.15,74.59 88.26,74.62 88.56,74.6 88.8,74.56 89.04,74.53 89.34,74.46 89.64,74.44 89.72,74.44 89.8,74.44 89.89,74.45 89.94,74.45 89.99,74.45 90.06,74.47 90.13,74.5 90.22,74.46 90.41,74.69 90.5,74.81 90.49,75.01 90.46,75.08 90.43,75.18 90.39,75.21 90.37,75.25 90.32,75.32 90.28,75.35 90.24,75.38 90.17,75.45 90.1,75.49 90.04,75.53 89.54,75.84 89.01,76.07 88.65,76.33 88.62,76.35 88.61,76.39 88.61,76.32 88.58,76.22 88.53,76.23 88.58,76.26 88.64,76.31 88.78,76.34 88.91,76.37 89.16,76.43 89.44,76.46 89.72,76.5 L 89.72,76.58 C 89.45,76.66 89.17,76.7 88.88,76.73 88.73,76.73 88.59,76.74 88.4,76.68 88.32,76.66 88.12,76.58 88.1,76.33 88.1,76.12 88.19,76.05 88.24,75.96 88.68,75.44 89.17,75.21 89.58,74.88 89.63,74.84 89.68,74.81 89.71,74.78 89.72,74.77 89.73,74.75 89.72,74.76 89.72,74.77 89.7,74.78 89.68,74.84 89.66,74.88 89.65,75.04 89.73,75.14 89.87,75.3 89.89,75.25 89.89,75.27 L 89.85,75.27 C 89.81,75.27 89.75,75.27 89.69,75.27 89.44,75.29 89.19,75.32 88.88,75.35 88.58,75.35 88.3,75.4 87.89,75.25 87.78,75.21 87.64,75.12 87.56,74.96 87.47,74.8 87.48,74.64 87.5,74.53 87.55,74.31 87.64,74.18 87.72,74.05 88.05,73.55 88.45,73.16 88.67,72.72 88.73,72.62 88.76,72.51 88.76,72.44 88.76,72.38 88.75,72.35 88.67,72.29 88.52,72.18 88.25,72.17 87.95,72.1 87.67,72.02 87.36,71.93 87.13,71.65 86.91,71.35 86.99,70.96 87.13,70.72 87.4,70.19 87.82,69.81 88.25,69.45 L 88.3,69.51 Z M 88.3,69.51" />
            <path id="mel04Canvas-bezier117" stroke="none" fill="rgb(51, 91, 113)" d="M 113.16,100.75 C 112.46,100.97 111.77,101.24 111.1,101.53 110.42,101.82 109.77,102.14 109.14,102.51 108.52,102.87 107.98,103.34 107.44,103.76 106.91,104.19 106.45,104.66 106.18,105.37 L 106.1,105.36 C 105.91,104.57 106.36,103.73 106.89,103.17 107.44,102.58 108.17,102.26 108.85,101.94 110.23,101.31 111.68,100.92 113.14,100.67 L 113.16,100.75 Z M 113.16,100.75" />
        </g>
    </g>
</svg>
