<?xml version="1.0" encoding="UTF-8"?>
<!DOCTYPE svg PUBLIC "-//W3C//DTD SVG 1.1//EN" "http://www.w3.org/Graphics/SVG/1.1/DTD/svg11.dtd">
<svg version="1.1" xmlns="http://www.w3.org/2000/svg" xmlns:xlink="http://www.w3.org/1999/xlink" width="107" height="378"  xml:space="preserve" id="sue06Canvas">
    <!-- Generated by PaintCode - http://www.paintcodeapp.com -->
    <g id="sue06Canvas-lines">
        <g id="sue06Canvas-group2">
            <path id="sue06Canvas-bezier" stroke="none" fill="rgb(51, 91, 113)" d="M 93.41,259.1 C 94.17,260.5 94.71,262.01 95.1,263.55 95.47,265.11 95.66,266.71 95.65,268.31 95.64,269.91 95.46,271.54 94.96,273.08 94.44,274.6 93.73,276.07 92.75,277.33 L 92.69,277.29 C 93.31,275.83 93.89,274.38 94.27,272.88 94.66,271.38 94.99,269.85 95.07,268.3 95.15,266.74 95.04,265.17 94.75,263.63 94.46,262.09 94.02,260.56 93.34,259.14 L 93.41,259.1 Z M 93.41,259.1" />
            <path id="sue06Canvas-bezier2" stroke="none" fill="rgb(51, 91, 113)" d="M 92.49,281.18 C 91.9,289.91 90.96,298.62 89.51,307.26 88.79,311.57 87.93,315.87 86.87,320.12 85.8,324.37 84.55,328.59 82.93,332.67 L 82.83,332.93 82.57,332.8 C 81.15,332.05 79.54,331.57 77.97,331.1 76.38,330.64 74.78,330.23 73.16,329.85 69.94,329.09 66.69,328.42 63.44,327.82 L 63.14,327.77 63.16,327.46 C 63.38,322.83 63.6,318.19 63.74,313.55 63.81,311.23 63.87,308.91 63.89,306.59 63.91,304.27 63.96,301.96 63.75,299.66 63.66,297.27 64.01,294.97 64.36,292.66 64.73,290.36 65.2,288.08 65.72,285.81 66.25,283.55 66.81,281.29 67.51,279.07 67.85,277.96 68.22,276.85 68.63,275.76 69.05,274.68 69.47,273.58 70.13,272.61 L 70.19,272.65 C 69.57,273.63 69.18,274.73 68.8,275.82 68.42,276.92 68.09,278.03 67.78,279.15 67.17,281.38 66.61,283.64 66.12,285.9 65.64,288.17 65.21,290.45 64.88,292.74 64.56,295.03 64.26,297.35 64.37,299.61 64.79,304.27 64.57,308.93 64.46,313.57 64.3,318.22 64.11,322.86 63.84,327.5 L 63.56,327.15 C 66.83,327.79 70.07,328.49 73.3,329.28 74.92,329.68 76.52,330.1 78.12,330.58 79.71,331.07 81.31,331.55 82.82,332.36 L 82.46,332.48 C 84.1,328.44 85.38,324.25 86.47,320.02 87.55,315.79 88.44,311.51 89.21,307.21 90.72,298.59 91.75,289.9 92.42,281.17 L 92.49,281.18 Z M 92.49,281.18" />
            <path id="sue06Canvas-bezier3" stroke="none" fill="rgb(51, 91, 113)" d="M 70.74,270.76 C 71.42,270.01 72.37,269.52 73.37,269.27 74.37,269.04 75.44,269.07 76.44,269.26 77.41,269.42 78.37,269.4 79.31,269.28 80.23,269.15 81.21,268.9 81.92,268.24 L 81.98,268.27 C 81.8,268.79 81.35,269.12 80.91,269.41 80.46,269.69 79.95,269.87 79.43,269.99 78.39,270.22 77.32,270.06 76.33,269.82 75.38,269.57 74.4,269.48 73.44,269.63 72.48,269.77 71.52,270.14 70.79,270.81 L 70.74,270.76 Z M 70.74,270.76" />
            <path id="sue06Canvas-bezier4" stroke="none" fill="rgb(51, 91, 113)" d="M 72.56,265.75 C 73.52,266.04 74.55,266.15 75.49,265.91 75.95,265.8 76.39,265.59 76.73,265.27 76.9,265.12 77.05,264.94 77.18,264.75 77.32,264.53 77.49,264.31 77.67,264.12 78.38,263.33 79.24,262.7 80.17,262.26 81.11,261.84 82.1,261.51 83.12,261.39 L 83.14,261.46 C 82.25,261.95 81.36,262.4 80.5,262.9 79.66,263.39 78.78,263.85 78.08,264.51 77.91,264.68 77.76,264.85 77.6,265.04 77.44,265.26 77.24,265.46 77.03,265.63 76.6,265.97 76.08,266.17 75.56,266.26 74.51,266.42 73.47,266.2 72.54,265.82 L 72.56,265.75 Z M 72.56,265.75" />
            <path id="sue06Canvas-bezier5" stroke="none" fill="rgb(51, 91, 113)" d="M 41.41,250.79 C 41.31,253.6 41.09,256.4 40.76,259.19 40.6,260.59 40.45,261.99 40.15,263.37 39.84,264.74 39.47,266.11 38.94,267.42 L 38.87,267.41 C 39.02,266 39.23,264.62 39.44,263.24 39.65,261.86 39.95,260.49 40.19,259.11 40.64,256.35 41.03,253.57 41.34,250.79 L 41.41,250.79 Z M 41.41,250.79" />
            <path id="sue06Canvas-bezier6" stroke="none" fill="rgb(51, 91, 113)" d="M 38.33,269.4 C 38.06,274 37.96,278.61 38.2,283.21 38.34,285.5 38.54,287.81 39.14,290.02 39.72,292.28 39.87,294.59 40.06,296.89 40.38,301.5 40.46,306.11 40.5,310.72 40.51,315.34 40.52,319.93 40.3,324.57 L 40.29,324.91 39.95,324.79 C 39.29,324.54 38.52,324.51 37.77,324.54 37.01,324.58 36.26,324.68 35.51,324.82 34,325.1 32.51,325.5 31.04,325.95 28.1,326.85 25.21,327.94 22.38,329.15 L 22.03,329.29 21.93,328.94 C 20.6,324.61 19.56,320.22 18.66,315.79 17.76,311.37 17.01,306.91 16.52,302.42 16.02,297.93 15.71,293.42 15.64,288.91 15.57,284.4 15.81,279.88 16.39,275.41 L 16.46,275.41 C 16.02,279.9 15.95,284.41 16.06,288.9 16.19,293.4 16.58,297.88 17.15,302.34 17.74,306.8 18.47,311.24 19.36,315.65 20.26,320.05 21.3,324.44 22.56,328.74 L 22.11,328.54 C 24.98,327.35 27.9,326.28 30.87,325.39 32.36,324.95 33.87,324.56 35.41,324.29 36.18,324.15 36.96,324.05 37.75,324.02 38.53,323.99 39.35,324.01 40.14,324.31 L 39.79,324.52 C 40.03,319.96 40.06,315.32 40.07,310.73 40.07,306.12 40.01,301.51 39.74,296.91 39.57,294.63 39.44,292.31 38.88,290.09 38.3,287.84 38.12,285.52 38,283.22 37.8,278.61 37.95,273.99 38.26,269.39 L 38.33,269.4 Z M 38.33,269.4" />
            <path id="sue06Canvas-bezier7" stroke="none" fill="rgb(51, 91, 113)" d="M 17.57,272.53 C 17.26,271.94 16.99,271.33 16.85,270.66 16.77,270.34 16.76,269.92 16.81,269.62 L 16.88,268.65 C 16.96,267.34 16.99,266.02 17.03,264.71 17.07,263.39 17.16,262.08 17.24,260.77 17.31,259.47 17.48,258.15 17.45,256.85 L 17.52,256.83 C 17.71,257.48 17.75,258.15 17.79,258.81 17.84,259.47 17.86,260.13 17.87,260.79 17.88,262.11 17.85,263.43 17.75,264.75 17.65,266.06 17.53,267.37 17.41,268.69 L 17.3,269.68 C 17.27,269.87 17.23,269.99 17.23,270.14 17.21,270.29 17.22,270.45 17.23,270.61 17.27,271.24 17.42,271.88 17.63,272.5 L 17.57,272.53 Z M 17.57,272.53" />
            <path id="sue06Canvas-bezier8" stroke="none" fill="rgb(51, 91, 113)" d="M 16.57,253.13 C 15.65,245.41 14.78,237.69 13.98,229.97 13.58,226.1 13.14,222.24 12.88,218.37 12.76,216.43 12.62,214.49 12.55,212.54 12.5,210.6 12.4,208.65 12.6,206.71 L 12.67,206.71 C 12.66,207.68 12.73,208.65 12.81,209.61 12.88,210.58 12.96,211.55 13.05,212.51 L 13.59,218.31 C 13.95,222.17 14.23,226.05 14.55,229.91 L 16.65,253.12 16.57,253.13 Z M 16.57,253.13" />
            <path id="sue06Canvas-bezier9" stroke="none" fill="rgb(51, 91, 113)" d="M 24.55,329.78 C 25.65,333.54 26.68,337.32 27.6,341.13 28.07,343.04 28.56,344.94 28.87,346.88 29.01,347.86 29.16,348.83 29.24,349.81 29.31,350.79 29.38,351.79 29.23,352.77 L 29.16,352.77 C 29.1,351.79 28.92,350.84 28.74,349.88 28.56,348.92 28.38,347.96 28.16,347.01 27.76,345.1 27.43,343.18 27.04,341.26 26.24,337.43 25.38,333.61 24.48,329.8 L 24.55,329.78 Z M 24.55,329.78" />
            <path id="sue06Canvas-bezier10" stroke="none" fill="rgb(51, 91, 113)" d="M 30.13,353.79 C 30.06,355.77 29.89,357.76 29.62,359.73 29.49,360.72 29.37,361.72 29.08,362.68 28.79,363.64 28.43,364.61 27.8,365.42 L 27.74,365.39 C 28,364.42 28.19,363.47 28.39,362.51 28.58,361.55 28.85,360.6 29.05,359.63 29.45,357.7 29.78,355.74 30.06,353.78 L 30.13,353.79 Z M 30.13,353.79" />
            <path id="sue06Canvas-bezier11" stroke="none" fill="rgb(51, 91, 113)" d="M 39,326.71 C 39.25,330.77 39.45,334.84 39.58,338.91 39.65,340.95 39.75,342.99 39.7,345.03 39.61,347.06 39.56,349.11 39.14,351.13 L 39.07,351.12 C 39.08,349.08 39.02,347.06 38.98,345.02 38.94,342.99 39,340.96 39.01,338.92 39,334.85 38.97,330.78 38.93,326.71 L 39,326.71 Z M 39,326.71" />
            <path id="sue06Canvas-bezier12" stroke="none" fill="rgb(51, 91, 113)" d="M 40.82,351.17 C 41.4,351.93 41.79,352.87 41.86,353.88 41.9,354.38 41.9,354.93 41.66,355.4 41.43,355.86 41.08,356.27 40.62,356.5 L 40.57,356.46 C 40.72,355.97 40.88,355.56 40.99,355.14 41.09,354.73 41.26,354.33 41.29,353.88 41.33,353.44 41.29,352.98 41.19,352.53 41.1,352.08 40.96,351.63 40.75,351.2 L 40.82,351.17 Z M 40.82,351.17" />
            <path id="sue06Canvas-bezier13" stroke="none" fill="rgb(51, 91, 113)" d="M 40.54,358.89 C 40.28,360.78 39.88,362.65 39.27,364.48 38.95,365.39 38.57,366.28 38.06,367.12 37.55,367.93 36.89,368.78 35.84,369.12 35.6,369.21 35.29,369.24 35.07,369.25 L 34.36,369.31 32.93,369.42 C 31.97,369.49 31,369.52 30.02,369.43 29.53,369.37 29.03,369.29 28.55,369.13 28.07,368.97 27.57,368.75 27.21,368.31 26.85,367.89 26.74,367.31 26.81,366.81 26.89,366.31 27.07,365.85 27.3,365.43 L 27.37,365.46 C 27.1,366.34 26.96,367.4 27.58,367.98 28.2,368.54 29.17,368.67 30.07,368.71 31,368.77 31.94,368.74 32.89,368.71 L 34.32,368.67 35.04,368.64 C 35.3,368.64 35.47,368.63 35.68,368.57 36.5,368.35 37.16,367.63 37.67,366.87 38.19,366.09 38.58,365.23 38.93,364.35 39.62,362.59 40.12,360.74 40.47,358.87 L 40.54,358.89 Z M 40.54,358.89" />
            <path id="sue06Canvas-bezier14" stroke="none" fill="rgb(51, 91, 113)" d="M 25.14,368.97 C 24.57,370.44 24.2,372 24.15,373.56 24.14,373.96 24.16,374.35 24.2,374.73 24.23,374.93 24.26,375.12 24.3,375.3 24.34,375.5 24.42,375.63 24.53,375.78 25.01,376.34 25.79,376.6 26.53,376.78 28.05,377.14 29.64,377.18 31.2,377.08 32.76,376.97 34.33,376.72 35.77,376.18 36.48,375.89 37.18,375.53 37.56,374.96 37.98,374.35 38.3,373.63 38.58,372.91 39.15,371.46 39.6,369.94 40.08,368.44 40.33,367.68 40.57,366.93 40.86,366.17 41.01,365.8 41.14,365.42 41.39,365.04 41.45,364.95 41.52,364.85 41.65,364.75 41.69,364.72 41.73,364.7 41.78,364.68 41.76,364.69 41.81,364.66 41.82,364.65 41.88,364.63 41.84,364.64 41.88,364.62 41.97,364.53 42.07,364.37 42.15,364.21 42.46,363.54 42.62,362.75 42.74,361.98 42.81,361.6 42.85,361.21 42.87,360.82 42.88,360.44 42.92,360.01 42.76,359.68 L 42.81,359.64 C 43.06,360 43.04,360.42 43.08,360.82 43.1,361.22 43.09,361.62 43.07,362.02 43,362.82 42.9,363.62 42.61,364.41 42.53,364.61 42.44,364.81 42.26,365 42.21,365.05 42.11,365.13 42.07,365.15 L 41.99,365.19 C 41.99,365.19 41.99,365.19 41.98,365.2 41.96,365.21 41.91,365.28 41.87,365.35 41.7,365.64 41.56,366.02 41.44,366.38 41.19,367.12 40.98,367.89 40.77,368.65 40.32,370.16 39.87,371.69 39.24,373.18 38.92,373.92 38.58,374.65 38.08,375.33 37.54,376.08 36.73,376.43 35.98,376.72 34.43,377.26 32.83,377.47 31.23,377.55 29.63,377.61 28.01,377.54 26.44,377.13 25.68,376.91 24.86,376.64 24.3,375.95 24.18,375.79 24.07,375.56 24.04,375.36 24,375.16 23.97,374.96 23.95,374.76 23.91,374.36 23.91,373.96 23.93,373.56 24.03,371.96 24.46,370.41 25.07,368.94 L 25.14,368.97 Z M 25.14,368.97" />
            <path id="sue06Canvas-bezier15" stroke="none" fill="rgb(51, 91, 113)" d="M 64.38,329.85 C 63.9,334.31 63.26,338.76 62.42,343.18 62,345.38 61.57,347.6 60.89,349.75 60.54,350.83 60.17,351.9 59.7,352.93 59.22,353.95 58.7,355 57.85,355.78 L 57.79,355.73 C 58.14,355.29 58.4,354.8 58.62,354.29 58.86,353.79 59.06,353.27 59.24,352.75 59.6,351.7 59.92,350.63 60.2,349.55 60.78,347.4 61.36,345.24 61.85,343.06 62.34,340.88 62.78,338.68 63.18,336.47 63.59,334.27 63.98,332.06 64.31,329.84 L 64.38,329.85 Z M 64.38,329.85" />
            <path id="sue06Canvas-bezier16" stroke="none" fill="rgb(51, 91, 113)" d="M 56.05,358.59 C 55.93,359.91 55.94,361.26 56.1,362.57 56.28,363.88 56.61,365.22 57.4,366.27 57.79,366.79 58.32,367.21 58.92,367.43 59.54,367.67 60.18,367.67 60.86,367.65 62.21,367.65 63.55,367.75 64.89,367.89 67.56,368.2 70.2,368.69 72.81,369.38 74.11,369.72 75.39,370.12 76.65,370.62 77.28,370.87 77.9,371.14 78.51,371.47 79.12,371.82 79.63,372.16 80.25,372.42 82.67,373.47 85.28,374.12 87.89,374.55 89.19,374.76 90.51,374.9 91.83,374.95 93.15,375 94.47,374.95 95.74,374.69 97,374.44 98.26,373.96 99.07,373.02 99.47,372.55 99.75,371.98 99.82,371.37 99.9,370.77 99.79,370.14 99.55,369.55 99.05,368.38 98.11,367.39 97.02,366.68 95.93,365.96 94.62,365.48 93.29,365.58 L 93.28,365.51 C 94.63,365.32 96.01,365.73 97.19,366.4 98.36,367.09 99.4,368.08 100,369.35 100.3,369.99 100.47,370.71 100.39,371.44 100.32,372.16 100,372.85 99.55,373.41 98.62,374.55 97.22,375.09 95.89,375.39 93.17,375.94 90.43,375.7 87.77,375.25 85.11,374.76 82.49,374.06 80.01,372.94 79.39,372.67 78.78,372.27 78.24,371.95 77.67,371.63 77.07,371.35 76.46,371.1 75.23,370.6 73.96,370.19 72.68,369.83 70.11,369.11 67.49,368.59 64.84,368.25 63.52,368.08 62.19,367.96 60.86,367.93 60.21,367.94 59.47,367.94 58.83,367.67 58.18,367.42 57.63,366.95 57.23,366.4 56.42,365.28 56.12,363.91 55.96,362.59 55.82,361.26 55.83,359.91 55.98,358.58 L 56.05,358.59 Z M 56.05,358.59" />
            <path id="sue06Canvas-bezier17" stroke="none" fill="rgb(51, 91, 113)" d="M 60.58,358.51 C 63.27,359.28 65.95,360.1 68.61,360.99 71.26,361.92 73.91,362.84 76.42,364.16 77.63,364.89 78.86,365.45 80.17,365.94 81.46,366.43 82.78,366.87 84.11,367.23 85.44,367.61 86.8,367.9 88.17,367.98 88.84,368.01 89.54,368 90.13,367.73 90.42,367.59 90.66,367.37 90.76,367.06 90.86,366.75 90.84,366.4 90.77,366.06 L 90.84,366.04 C 90.96,366.37 91.04,366.74 90.96,367.11 90.89,367.49 90.61,367.82 90.29,368.01 89.62,368.39 88.87,368.45 88.16,368.48 86.72,368.5 85.31,368.24 83.93,367.93 82.56,367.58 81.21,367.14 79.91,366.6 78.61,366.06 77.31,365.41 76.14,364.66 73.73,363.31 71.1,362.31 68.49,361.33 65.87,360.35 63.22,359.43 60.56,358.58 L 60.58,358.51 Z M 60.58,358.51" />
            <path id="sue06Canvas-bezier18" stroke="none" fill="rgb(51, 91, 113)" d="M 81.17,333.82 C 79.53,336.32 78.27,339.07 77.45,341.92 76.63,344.77 76.3,347.8 76.85,350.69 77.39,353.59 78.92,356.2 80.97,358.29 83.01,360.42 85.58,361.99 88.24,363.36 L 88.22,363.42 C 85.38,362.43 82.68,360.91 80.47,358.8 78.25,356.68 76.76,353.81 76.29,350.79 75.78,347.77 76.21,344.69 77.11,341.82 78.03,338.95 79.39,336.24 81.11,333.78 L 81.17,333.82 Z M 81.17,333.82" />
            <path id="sue06Canvas-bezier19" stroke="none" fill="rgb(51, 91, 113)" d="M 54.26,6.28 C 53.7,5.26 53.09,4.27 52.42,3.35 52.08,2.88 51.68,2.48 51.35,2.05 51,1.63 50.68,1.2 50.16,0.93 L 50.17,0.86 C 50.48,0.79 50.82,0.88 51.11,1.02 51.4,1.16 51.65,1.35 51.87,1.56 52.33,1.98 52.61,2.53 52.91,3.04 53.49,4.07 53.95,5.15 54.33,6.25 L 54.26,6.28 Z M 54.26,6.28" />
            <path id="sue06Canvas-bezier20" stroke="none" fill="rgb(51, 91, 113)" d="M 48.54,0.07 C 44.27,1 40.17,2.83 36.7,5.48 34.98,6.81 33.43,8.38 32.17,10.15 30.89,11.91 30.07,13.96 28.98,15.87 L 25.77,21.59 C 24.73,23.5 23.78,25.48 23.34,27.6 22.89,29.71 22.99,31.9 23.38,34.02 23.79,36.15 24.43,38.25 25.02,40.35 25.32,41.4 25.62,42.46 25.88,43.53 26.13,44.61 26.32,45.72 26.28,46.87 26.24,48.01 25.92,49.13 25.45,50.15 24.98,51.18 24.39,52.12 23.77,53.03 23.14,53.95 22.42,54.79 21.88,55.69 21.33,56.6 20.89,57.58 20.6,58.6 20.02,60.64 20.07,62.85 20.68,64.88 21.27,66.91 22.39,68.84 23.96,70.25 24.36,70.61 24.79,70.92 25.24,71.17 25.46,71.29 25.74,71.41 25.99,71.62 26.23,71.8 26.43,72.03 26.6,72.26 27.29,73.22 27.59,74.34 27.8,75.42 28.18,77.61 28.18,79.83 28.04,82.02 27.96,83.11 27.84,84.21 27.68,85.29 27.59,85.83 27.49,86.37 27.37,86.91 27.24,87.44 27.15,87.99 26.84,88.47 L 26.79,88.43 C 27.05,87.98 27.13,87.41 27.24,86.88 27.34,86.35 27.41,85.81 27.48,85.26 27.6,84.18 27.68,83.09 27.71,82 27.79,79.83 27.74,77.63 27.3,75.52 27.08,74.48 26.75,73.43 26.15,72.6 25.99,72.4 25.82,72.22 25.63,72.07 25.45,71.93 25.22,71.83 24.96,71.69 24.45,71.42 23.98,71.09 23.55,70.72 21.85,69.23 20.65,67.23 19.99,65.09 19.34,62.93 19.29,60.58 19.92,58.41 20.22,57.32 20.69,56.29 21.27,55.33 21.86,54.35 22.58,53.53 23.18,52.63 24.41,50.87 25.55,48.96 25.64,46.84 25.71,44.73 25.01,42.61 24.46,40.51 23.89,38.39 23.27,36.29 22.87,34.12 22.49,31.94 22.4,29.68 22.89,27.5 23.35,25.32 24.34,23.31 25.4,21.39 L 28.67,15.69 C 29.2,14.74 29.72,13.78 30.22,12.81 30.72,11.83 31.29,10.88 31.94,9.99 33.23,8.2 34.82,6.64 36.57,5.31 38.33,3.98 40.25,2.89 42.26,2 44.27,1.12 46.37,0.42 48.52,-0 L 48.54,0.07 Z M 48.54,0.07" />
            <path id="sue06Canvas-bezier21" stroke="none" fill="rgb(51, 91, 113)" d="M 53.83,0.86 C 56.21,1.5 58.5,2.45 60.62,3.71 62.72,4.97 64.7,6.62 65.86,8.86 66.15,9.41 66.38,10 66.54,10.6 L 67.06,12.36 68.13,15.88 C 68.84,18.22 69.53,20.58 70.14,22.96 70.74,25.34 71.29,27.75 71.53,30.22 71.63,31.46 71.69,32.73 71.35,34.01 71.17,34.63 70.84,35.31 70.18,35.71 69.81,35.91 69.62,35.96 69.36,36.13 69.12,36.27 68.88,36.44 68.65,36.63 66.84,38.14 65.56,40.3 64.51,42.46 63.99,43.56 63.55,44.69 63.22,45.86 63.06,46.44 62.92,47.04 62.86,47.64 62.8,48.23 62.78,48.87 63.07,49.4 L 63.01,49.44 C 62.66,48.9 62.65,48.24 62.66,47.63 62.68,47 62.78,46.39 62.9,45.78 63.18,44.57 63.58,43.4 64.05,42.26 64.53,41.11 65.11,40.01 65.78,38.96 66.45,37.92 67.22,36.91 68.2,36.08 68.44,35.87 68.71,35.68 68.99,35.51 69.24,35.34 69.64,35.18 69.8,35.09 70.21,34.84 70.48,34.34 70.63,33.8 70.93,32.71 70.91,31.48 70.82,30.28 70.63,27.87 70.13,25.47 69.58,23.1 69.01,20.72 68.36,18.36 67.69,16.01 L 66.67,12.47 C 66.3,11.3 66.09,10.08 65.54,9.02 64.47,6.85 62.56,5.18 60.51,3.89 58.43,2.6 56.16,1.62 53.81,0.93 L 53.83,0.86 Z M 53.83,0.86" />
            <path id="sue06Canvas-bezier22" stroke="none" fill="rgb(51, 91, 113)" d="M 69.9,38.78 C 69.76,41 69.36,43.19 68.77,45.34 68.18,47.48 67.37,49.57 66.26,51.52 65.1,53.44 63.81,55.23 62.77,57.17 62.25,58.14 61.78,59.14 61.48,60.18 61.19,61.21 61.1,62.3 61.35,63.33 61.59,64.36 62.14,65.29 62.82,66.14 63.52,67.05 64.03,68.07 64.49,69.1 65.4,71.15 66.05,73.3 66.57,75.47 67.05,77.65 67.42,79.86 67.53,82.1 67.57,83.22 67.56,84.34 67.4,85.46 67.32,86.01 67.2,86.57 66.99,87.1 66.79,87.62 66.5,88.14 66.04,88.48 L 66,88.42 C 66.41,88.06 66.65,87.55 66.8,87.03 66.96,86.51 67.04,85.97 67.08,85.42 67.17,84.33 67.13,83.23 67.03,82.14 66.82,79.95 66.42,77.77 65.87,75.64 65.34,73.51 64.69,71.4 63.84,69.38 63.41,68.38 62.94,67.38 62.3,66.53 61.62,65.64 61.03,64.59 60.79,63.45 60.53,62.31 60.65,61.12 60.98,60.03 61.31,58.94 61.81,57.92 62.36,56.95 63.45,55 64.79,53.2 65.95,51.34 67.08,49.45 67.93,47.39 68.57,45.28 69.2,43.16 69.64,40.98 69.83,38.77 L 69.9,38.78 Z M 69.9,38.78" />
            <path id="sue06Canvas-bezier23" stroke="none" fill="rgb(51, 91, 113)" d="M 51.69,7.64 C 49.97,8.78 48.19,9.86 46.25,10.64 45.76,10.83 45.26,10.99 44.73,11.09 44.48,11.14 44.15,11.14 43.95,11.16 43.74,11.19 43.51,11.28 43.3,11.39 42.46,11.87 41.76,12.65 41.08,13.4 L 39.09,15.77 C 38.4,16.54 37.67,17.32 36.73,17.91 36.49,18.05 36.23,18.17 35.95,18.26 35.67,18.35 35.39,18.36 35.2,18.43 34.76,18.56 34.38,18.84 34.1,19.21 33.55,19.97 33.41,21.04 33.45,22.05 L 33.38,22.06 C 33.14,21.06 33.12,19.93 33.68,18.93 33.97,18.43 34.46,18.05 35,17.85 35.29,17.73 35.53,17.71 35.74,17.63 35.95,17.55 36.15,17.43 36.35,17.3 37.15,16.77 37.86,16.02 38.56,15.29 L 40.66,13.01 C 41.38,12.27 42.11,11.49 43.09,10.98 43.34,10.86 43.6,10.76 43.9,10.73 44.21,10.71 44.4,10.72 44.67,10.68 45.16,10.61 45.65,10.47 46.13,10.3 48.06,9.63 49.89,8.64 51.65,7.58 L 51.69,7.64 Z M 51.69,7.64" />
            <path id="sue06Canvas-bezier24" stroke="none" fill="rgb(51, 91, 113)" d="M 31.72,19.34 C 31.12,18.98 30.43,18.64 29.76,18.7 29.43,18.72 29.22,18.99 28.98,19.25 28.76,19.52 28.55,19.81 28.36,20.1 27.61,21.28 27.1,22.65 27.1,24.01 27.1,25.39 27.75,26.63 28.7,27.59 29.16,28.08 29.74,28.48 30.3,28.92 30.58,29.14 30.87,29.35 31.16,29.55 31.45,29.75 31.74,29.96 32.07,30.08 L 32.06,30.15 C 31.3,30.07 30.67,29.68 30.03,29.34 29.4,28.99 28.76,28.62 28.2,28.1 27.05,27.1 26.42,25.5 26.53,24 26.61,22.49 27.23,21.09 28.07,19.9 28.28,19.61 28.51,19.32 28.77,19.06 28.9,18.93 29.03,18.8 29.19,18.69 29.34,18.56 29.55,18.49 29.74,18.48 30.53,18.48 31.17,18.88 31.77,19.28 L 31.72,19.34 Z M 31.72,19.34" />
            <path id="sue06Canvas-bezier25" stroke="none" fill="rgb(51, 91, 113)" d="M 31.33,24.37 C 31.17,24.87 31.08,25.39 31.11,25.86 31.12,26.11 31.23,26.31 31.24,26.52 L 31.32,27.28 31.27,27.32 C 30.94,27.26 30.69,27.02 30.56,26.73 30.41,26.44 30.48,26.1 30.53,25.82 30.64,25.24 30.92,24.75 31.27,24.33 L 31.33,24.37 Z M 31.33,24.37" />
            <path id="sue06Canvas-bezier26" stroke="none" fill="rgb(51, 91, 113)" d="M 29.44,19.91 C 29.75,19.88 30.06,19.91 30.38,20.03 30.68,20.16 30.96,20.41 31.13,20.72 31.29,21.04 31.41,21.4 31.34,21.73 31.27,22.05 31.12,22.35 30.85,22.58 L 30.78,22.56 C 30.67,22.22 30.65,21.94 30.62,21.68 30.58,21.42 30.66,21.18 30.6,20.94 30.49,20.48 30.01,20.11 29.44,19.98 L 29.44,19.91 Z M 29.44,19.91" />
            <path id="sue06Canvas-bezier27" stroke="none" fill="rgb(51, 91, 113)" d="M 42.96,19.02 C 44.43,18.92 45.93,19.06 47.38,19.45 48.11,19.66 48.85,19.88 49.49,20.33 50.11,20.76 50.68,21.33 50.99,22.03 L 50.94,22.08 C 50.32,21.64 49.74,21.26 49.11,20.94 48.49,20.62 47.88,20.25 47.21,20 46.54,19.74 45.84,19.55 45.13,19.4 44.42,19.25 43.69,19.13 42.96,19.09 L 42.96,19.02 Z M 42.96,19.02" />
            <path id="sue06Canvas-bezier28" stroke="none" fill="rgb(51, 91, 113)" d="M 62.5,27.31 C 62.27,26.9 61.93,26.55 61.56,26.28 61.19,26 60.78,25.8 60.34,25.67 59.91,25.54 59.45,25.54 59.01,25.46 58.56,25.38 58.1,25.32 57.6,25.19 L 57.59,25.12 C 58.04,24.86 58.55,24.75 59.06,24.74 59.58,24.73 60.08,24.92 60.55,25.13 61.49,25.56 62.26,26.34 62.57,27.29 L 62.5,27.31 Z M 62.5,27.31" />
            <path id="sue06Canvas-bezier29" stroke="none" fill="rgb(51, 91, 113)" d="M 56.36,25.86 C 55.62,26.24 55.06,26.91 54.78,27.66 54.48,28.41 54.51,29.2 54.62,30.04 54.7,30.86 54.91,31.68 54.92,32.54 54.92,32.97 54.91,33.41 54.78,33.86 54.72,34.09 54.62,34.32 54.45,34.5 54.28,34.68 54.06,34.79 53.84,34.81 L 53.81,34.75 C 54.18,34.51 54.27,34.15 54.29,33.78 54.3,33.4 54.25,32.99 54.2,32.59 54.09,31.78 54.07,30.92 54.04,30.08 54,29.25 54.05,28.3 54.45,27.51 54.85,26.72 55.53,26.1 56.33,25.79 L 56.36,25.86 Z M 56.36,25.86" />
            <path id="sue06Canvas-bezier30" stroke="none" fill="rgb(51, 91, 113)" d="M 50.65,34.36 C 50.31,34.19 49.95,34.07 49.64,34.03 49.47,34.02 49.35,34.1 49.24,34.07 49.12,34.04 48.99,34.01 48.72,34.01 L 48.66,33.96 C 48.65,33.68 48.85,33.45 49.1,33.36 49.36,33.26 49.62,33.39 49.81,33.49 50.21,33.68 50.48,33.98 50.7,34.31 L 50.65,34.36 Z M 50.65,34.36" />
            <path id="sue06Canvas-bezier31" stroke="none" fill="rgb(51, 91, 113)" d="M 52.17,35.64 C 52.28,35.49 52.4,35.36 52.57,35.27 52.64,35.22 52.74,35.11 52.88,35.18 52.95,35.21 53.04,35.26 53.11,35.38 53.14,35.43 53.15,35.51 53.13,35.57 53.1,35.62 53.07,35.66 53.02,35.68 L 52.95,35.67 C 52.84,35.62 52.77,35.69 52.78,35.76 52.79,35.84 52.81,35.86 52.8,35.89 52.79,35.94 52.74,35.85 52.67,35.83 52.53,35.79 52.37,35.75 52.19,35.71 L 52.17,35.64 Z M 52.17,35.64" />
            <path id="sue06Canvas-bezier32" stroke="none" fill="rgb(51, 91, 113)" d="M 47.18,32.05 C 47.07,32.42 47.07,32.81 47.19,33.08 47.25,33.22 47.39,33.28 47.43,33.42 47.49,33.56 47.56,33.72 47.62,33.98 L 47.58,34.05 C 47.31,34.12 47.07,34.03 46.88,33.87 46.68,33.72 46.64,33.42 46.63,33.19 46.6,32.69 46.83,32.29 47.12,32.01 L 47.18,32.05 Z M 47.18,32.05" />
            <path id="sue06Canvas-bezier33" stroke="none" fill="rgb(51, 91, 113)" d="M 42.21,36.58 C 42.9,37.21 43.75,37.64 44.62,37.88 45.05,37.99 45.54,38.11 45.99,38.28 46.44,38.45 46.87,38.65 47.29,38.86 47.72,39.05 48.14,39.26 48.55,39.41 48.76,39.5 48.96,39.55 49.14,39.58 49.33,39.61 49.63,39.64 49.85,39.7 50.33,39.82 50.79,39.98 51.22,40.24 51.63,40.48 52.1,40.8 52.21,41.32 L 52.15,41.35 C 51.87,40.98 51.44,40.83 51.02,40.69 50.59,40.57 50.15,40.47 49.71,40.4 49.47,40.36 49.3,40.34 49.03,40.31 48.75,40.27 48.5,40.17 48.28,40.07 47.82,39.85 47.43,39.6 47.03,39.36 46.62,39.13 46.22,38.9 45.81,38.71 45.39,38.51 44.98,38.39 44.51,38.22 43.61,37.87 42.79,37.34 42.16,36.63 L 42.21,36.58 Z M 42.21,36.58" />
            <path id="sue06Canvas-bezier34" stroke="none" fill="rgb(51, 91, 113)" d="M 44.49,39.77 C 44.96,40.17 45.47,40.52 46,40.84 46.51,41.17 47.05,41.45 47.61,41.69 48.16,41.94 48.75,42.06 49.3,42.26 49.87,42.45 50.43,42.6 51.06,42.77 L 51.06,42.84 C 50.45,43.07 49.77,43.07 49.13,42.96 48.48,42.84 47.9,42.52 47.35,42.21 46.24,41.57 45.26,40.76 44.44,39.82 L 44.49,39.77 Z M 44.49,39.77" />
            <path id="sue06Canvas-bezier35" stroke="none" fill="rgb(51, 91, 113)" d="M 64.52,21.62 C 64.38,23.28 64.15,24.94 63.8,26.59 63.63,27.41 63.48,28.25 63.15,29.04 62.83,29.82 62.43,30.6 61.82,31.22 L 61.76,31.18 C 62.02,30.37 62.25,29.59 62.47,28.8 62.69,28.01 63.01,27.25 63.24,26.45 63.71,24.86 64.1,23.24 64.44,21.6 L 64.52,21.62 Z M 64.52,21.62" />
            <path id="sue06Canvas-bezier36" stroke="none" fill="rgb(51, 91, 113)" d="M 61.25,32.03 C 61.26,33.67 61.21,35.31 61,36.95 60.87,37.76 60.75,38.58 60.34,39.38 59.86,40.13 59.28,40.69 58.71,41.3 57.57,42.49 56.43,43.66 55.19,44.74 53.95,45.81 52.68,46.86 51.37,47.84 L 51.32,47.8 C 52.36,46.5 53.55,45.38 54.71,44.22 55.87,43.07 57.13,42.02 58.31,40.89 58.88,40.33 59.51,39.76 59.94,39.15 60.31,38.49 60.49,37.67 60.64,36.89 60.95,35.29 61.09,33.66 61.18,32.03 L 61.25,32.03 Z M 61.25,32.03" />
            <path id="sue06Canvas-bezier37" stroke="none" fill="rgb(51, 91, 113)" d="M 50.35,48.42 C 49.48,49.31 48.21,49.78 46.96,49.78 45.7,49.79 44.47,49.35 43.38,48.76 41.2,47.54 39.31,45.91 37.51,44.22 36.61,43.37 35.74,42.49 34.89,41.58 34.07,40.66 33.21,39.77 32.58,38.61 31.99,37.43 31.86,36.1 31.92,34.87 31.98,33.61 32.19,32.39 32.48,31.19 L 32.55,31.21 C 32.46,32.43 32.37,33.66 32.42,34.87 32.46,36.07 32.64,37.27 33.22,38.27 33.49,38.78 33.85,39.25 34.24,39.71 34.63,40.18 35.02,40.65 35.42,41.11 36.22,42.03 37.05,42.93 37.91,43.81 39.64,45.53 41.46,47.2 43.55,48.44 44.59,49.06 45.75,49.52 46.96,49.56 48.16,49.61 49.41,49.21 50.3,48.37 L 50.35,48.42 Z M 50.35,48.42" />
            <path id="sue06Canvas-bezier38" stroke="none" fill="rgb(51, 91, 113)" d="M 40.55,35.53 C 40.55,35.17 40.7,34.81 40.93,34.52 41.16,34.22 41.47,33.99 41.8,33.81 42.12,33.64 42.46,33.45 42.83,33.44 43.2,33.43 43.57,33.48 43.92,33.66 L 43.92,33.73 C 43.58,33.94 43.27,34.05 42.96,34.15 42.65,34.25 42.33,34.25 42.02,34.34 41.72,34.43 41.43,34.57 41.19,34.77 40.94,34.95 40.72,35.22 40.62,35.54 L 40.55,35.53 Z M 40.55,35.53" />
            <path id="sue06Canvas-bezier39" stroke="none" fill="rgb(51, 91, 113)" d="M 43.37,21.57 C 44.31,21.35 45.29,21.26 46.28,21.35 46.77,21.4 47.3,21.44 47.76,21.72 48.21,21.98 48.61,22.41 48.72,22.93 L 48.66,22.97 C 48.23,22.7 47.86,22.51 47.45,22.37 47.04,22.23 46.64,22.02 46.19,21.92 45.74,21.81 45.27,21.74 44.8,21.7 44.33,21.65 43.86,21.63 43.38,21.65 L 43.37,21.57 Z M 43.37,21.57" />
            <path id="sue06Canvas-bezier40" stroke="none" fill="rgb(51, 91, 113)" d="M 42.95,22.54 C 44.07,22.14 45.38,22.06 46.55,22.58 47.12,22.83 47.67,23.23 48,23.77 48.34,24.31 48.53,24.92 48.56,25.53 L 48.5,25.55 C 48.2,25.02 47.92,24.52 47.57,24.08 47.22,23.65 46.84,23.24 46.35,22.96 45.86,22.69 45.3,22.53 44.72,22.48 44.14,22.43 43.54,22.46 42.97,22.59 L 42.95,22.54 Z M 42.95,22.54" />
            <path id="sue06Canvas-bezier41" stroke="none" fill="rgb(51, 91, 113)" d="M 43.94,23.46 C 44.12,23.78 44.46,23.99 44.78,24.17 45.11,24.35 45.46,24.5 45.82,24.62 46.17,24.74 46.55,24.82 46.9,24.97 47.24,25.12 47.59,25.28 47.93,25.52 L 47.92,25.57 C 47.51,25.61 47.11,25.56 46.73,25.48 46.34,25.39 45.99,25.2 45.64,25.02 45.29,24.83 44.95,24.63 44.64,24.39 44.33,24.14 44.02,23.86 43.89,23.47 L 43.94,23.46 Z M 43.94,23.46" />
            <path id="sue06Canvas-bezier42" stroke="none" fill="rgb(51, 91, 113)" d="M 55.73,27.63 C 56.57,27.16 57.61,27.02 58.59,27.23 59.07,27.33 59.57,27.49 59.98,27.79 60.38,28.09 60.72,28.46 60.95,28.91 L 60.91,28.95 59.69,28.24 C 59.29,28.03 58.91,27.79 58.48,27.65 58.05,27.5 57.59,27.44 57.13,27.44 56.66,27.44 56.19,27.51 55.75,27.67 L 55.73,27.63 Z M 55.73,27.63" />
            <path id="sue06Canvas-bezier43" stroke="none" fill="rgb(51, 91, 113)" d="M 55.47,28.52 C 56.44,28.07 57.55,27.79 58.67,28.03 59.22,28.15 59.79,28.42 60.16,28.89 60.52,29.35 60.71,29.9 60.73,30.46 L 60.68,30.47 C 60.38,30.01 60.1,29.58 59.75,29.24 59.41,28.91 59.03,28.61 58.55,28.45 58.08,28.29 57.56,28.25 57.04,28.28 56.52,28.31 55.99,28.41 55.49,28.57 L 55.47,28.52 Z M 55.47,28.52" />
            <path id="sue06Canvas-bezier44" stroke="none" fill="rgb(51, 91, 113)" d="M 55.63,29.27 C 56.24,29.75 56.94,30.14 57.66,30.36 58.03,30.47 58.39,30.49 58.75,30.54 59.11,30.59 59.47,30.6 59.89,30.6 L 59.91,30.65 C 59.59,30.93 59.16,31.06 58.73,31.08 58.29,31.1 57.88,30.94 57.51,30.77 56.75,30.42 56.11,29.91 55.59,29.31 L 55.63,29.27 Z M 55.63,29.27" />
            <path id="sue06Canvas-bezier45" stroke="none" fill="rgb(51, 91, 113)" d="M 46.96,23.21 C 47.09,23.63 46.98,24.14 46.63,24.48 46.29,24.82 45.77,24.96 45.27,24.81 44.79,24.69 44.34,24.26 44.28,23.73 44.21,23.22 44.51,22.66 44.95,22.51 L 44.98,22.55 C 44.76,22.94 44.72,23.29 44.81,23.63 44.9,23.94 45.08,24.26 45.41,24.41 45.73,24.55 46.16,24.51 46.46,24.28 46.77,24.06 46.96,23.64 46.91,23.22 L 46.96,23.21 Z M 46.96,23.21" />
            <path id="sue06Canvas-bezier46" stroke="none" fill="rgb(51, 91, 113)" d="M 58.7,28.4 C 58.92,28.74 58.95,29.22 58.73,29.61 58.52,30 58.07,30.27 57.6,30.26 57.13,30.28 56.62,30.01 56.43,29.55 56.23,29.1 56.37,28.54 56.72,28.29 L 56.77,28.32 C 56.68,28.72 56.75,29.05 56.91,29.31 57.07,29.55 57.3,29.78 57.62,29.83 57.94,29.88 58.29,29.74 58.51,29.46 58.73,29.19 58.8,28.78 58.65,28.42 L 58.7,28.4 Z M 58.7,28.4" />
            <path id="sue06Canvas-bezier47" stroke="none" fill="rgb(51, 91, 113)" d="M 29.48,32.03 C 29.28,34.1 29.46,36.17 29.85,38.2 30.22,40.23 30.78,42.23 31.05,44.3 31.18,45.34 31.22,46.4 31.13,47.44 31.08,47.97 31.01,48.49 30.89,49.01 30.77,49.51 30.71,49.99 30.7,50.5 30.65,52.53 31.49,54.45 32.15,56.42 32.48,57.41 32.78,58.44 32.84,59.52 32.9,60.61 32.67,61.73 32.14,62.7 31.89,63.18 31.57,63.63 31.22,64.04 L 30.71,64.63 C 30.57,64.81 30.43,65 30.31,65.21 29.82,66.03 29.67,67.01 29.82,67.97 30.09,69.92 31.25,71.71 32.48,73.32 33.74,74.95 35.18,76.43 36.7,77.84 L 36.65,77.9 C 35.01,76.63 33.45,75.23 32.09,73.64 31.4,72.85 30.78,71.99 30.25,71.07 29.72,70.16 29.28,69.16 29.11,68.07 28.93,66.99 29.09,65.81 29.66,64.83 29.8,64.59 29.97,64.37 30.15,64.14 L 30.67,63.56 C 30.99,63.19 31.28,62.79 31.52,62.36 32,61.51 32.23,60.54 32.19,59.55 32.16,58.56 31.91,57.57 31.6,56.6 30.99,54.65 30.14,52.65 30.23,50.49 30.25,49.96 30.33,49.41 30.46,48.91 30.58,48.41 30.66,47.91 30.72,47.41 30.82,46.39 30.8,45.37 30.69,44.35 30.47,42.3 29.96,40.29 29.63,38.23 29.29,36.19 29.16,34.09 29.4,32.03 L 29.48,32.03 Z M 29.48,32.03" />
            <path id="sue06Canvas-bezier48" stroke="none" fill="rgb(51, 91, 113)" d="M 59.58,43.94 C 58.63,45.56 57.89,47.4 58.03,49.28 58.09,50.21 58.39,51.11 58.73,51.99 59.06,52.87 59.44,53.81 59.34,54.82 57.56,58.36 58.27,62.18 58.36,65.98 58.38,66.94 58.39,67.9 58.24,68.88 58.16,69.37 58.05,69.86 57.8,70.34 57.74,70.46 57.67,70.57 57.59,70.68 57.55,70.74 57.5,70.79 57.46,70.85 L 57.36,70.97 C 57.29,71.08 57.22,71.28 57.19,71.47 57.1,72.29 57.37,73.22 57.63,74.11 57.89,75 58.2,75.9 58.51,76.79 59.1,78.6 59.71,80.42 59.96,82.35 60.08,83.3 60.11,84.29 59.89,85.25 59.68,86.2 59.16,87.1 58.39,87.68 L 58.34,87.62 C 59.03,86.97 59.45,86.1 59.57,85.18 59.72,84.27 59.63,83.34 59.47,82.42 59.12,80.59 58.49,78.81 57.83,77.03 57.52,76.14 57.19,75.24 56.91,74.32 56.66,73.39 56.36,72.45 56.49,71.37 56.54,71.09 56.61,70.83 56.82,70.54 L 57.04,70.28 C 57.1,70.2 57.15,70.11 57.2,70.02 57.4,69.66 57.52,69.22 57.61,68.77 57.77,67.88 57.78,66.93 57.78,65.99 57.77,64.11 57.62,62.21 57.68,60.3 57.71,59.34 57.78,58.37 58.02,57.43 58.14,56.96 58.3,56.48 58.54,56.06 58.76,55.65 58.92,55.23 58.98,54.78 59.1,53.88 58.77,52.98 58.46,52.09 58.14,51.2 57.85,50.26 57.81,49.29 57.72,47.34 58.53,45.51 59.52,43.9 L 59.58,43.94 Z M 59.58,43.94" />
            <path id="sue06Canvas-bezier49" stroke="none" fill="rgb(51, 91, 113)" d="M 67.72,51.34 C 67.22,54.14 67.75,57.04 69.04,59.53 69.67,60.78 70.47,61.95 71.4,62.99 71.86,63.52 72.37,64.01 72.85,64.56 73.33,65.1 73.77,65.79 73.86,66.57 73.97,67.34 73.83,68.09 73.65,68.79 73.47,69.5 73.23,70.18 72.97,70.85 72.71,71.51 72.41,72.17 72.13,72.81 71.86,73.43 71.64,74.09 71.51,74.75 71.22,76.08 71.32,77.48 71.83,78.75 72.33,80.03 73.21,81.17 74.3,82.06 L 74.26,82.12 C 73.03,81.39 72.01,80.28 71.37,78.95 70.72,77.63 70.56,76.08 70.8,74.62 70.94,73.89 71.16,73.19 71.44,72.51 71.74,71.85 72.04,71.23 72.31,70.58 72.58,69.93 72.84,69.28 73.03,68.62 73.22,67.96 73.36,67.29 73.29,66.64 73.17,65.34 71.93,64.4 71.05,63.3 70.12,62.2 69.33,60.99 68.71,59.69 67.48,57.1 67.05,54.12 67.65,51.33 L 67.72,51.34 Z M 67.72,51.34" />
            <path id="sue06Canvas-bezier50" stroke="none" fill="rgb(51, 91, 113)" d="M 21.98,40.87 C 21.25,42.56 21.06,44.41 21.15,46.22 21.2,47.12 21.37,48.01 21.48,48.91 21.61,49.79 21.7,50.73 21.96,51.56 L 21.92,51.62 C 21.53,51.27 21.38,50.82 21.19,50.38 21.01,49.95 20.88,49.49 20.77,49.03 20.56,48.11 20.55,47.16 20.57,46.23 20.6,44.36 20.99,42.45 21.91,40.84 L 21.98,40.87 Z M 21.98,40.87" />
            <path id="sue06Canvas-bezier51" stroke="none" fill="rgb(51, 91, 113)" d="M 18.09,65.82 C 16.63,66.69 15.15,67.52 13.6,68.23 12.83,68.57 12.02,68.94 11.16,69 10.34,69.14 9.54,69.45 8.77,69.78 7.22,70.45 5.76,71.32 4.46,72.39 3.17,73.46 2.05,74.76 1.33,76.26 0.59,77.75 0.29,79.44 0.44,81.1 0.65,82.76 0.82,84.47 0.95,86.15 1.21,89.53 1.53,92.9 2.09,96.23 2.64,99.56 3.39,102.86 4.27,106.13 5.13,109.39 6.12,112.63 7.21,115.83 9.33,122.26 11.82,128.56 14.35,134.85 L 14.29,134.88 C 11.37,128.75 8.78,122.47 6.53,116.06 5.44,112.84 4.44,109.59 3.58,106.31 2.74,103.01 2.03,99.68 1.52,96.32 1,92.96 0.71,89.57 0.48,86.19 0.37,84.49 0.23,82.83 0.03,81.13 -0.11,79.41 0.22,77.64 1,76.1 1.78,74.55 2.95,73.24 4.28,72.17 5.62,71.09 7.11,70.24 8.69,69.58 9.48,69.26 10.28,68.96 11.14,68.82 11.98,68.78 12.76,68.43 13.54,68.1 15.09,67.42 16.58,66.6 18.05,65.75 L 18.09,65.82 Z M 18.09,65.82" />
            <path id="sue06Canvas-bezier52" stroke="none" fill="rgb(51, 91, 113)" d="M 15.02,136.57 C 16.05,137.8 17.05,139.07 18,140.36 18.93,141.68 19.88,142.98 20.54,144.52 20.7,144.96 20.79,145.25 20.99,145.59 21.18,145.91 21.41,146.22 21.66,146.52 22.16,147.1 22.72,147.64 23.33,148.11 23.93,148.6 24.6,149 25.32,149.27 26.03,149.54 26.83,149.64 27.56,149.31 L 27.6,149.37 C 27.28,149.64 26.87,149.78 26.44,149.84 26.02,149.89 25.59,149.84 25.18,149.75 24.35,149.56 23.6,149.15 22.91,148.69 22.23,148.2 21.61,147.63 21.11,146.96 20.85,146.63 20.62,146.27 20.43,145.89 20.23,145.53 20.1,145.04 20,144.72 19.46,143.28 18.56,141.91 17.71,140.57 16.83,139.22 15.92,137.9 14.96,136.61 L 15.02,136.57 Z M 15.02,136.57" />
            <path id="sue06Canvas-bezier53" stroke="none" fill="rgb(51, 91, 113)" d="M 29.4,149.06 C 33.4,146.84 37.43,144.68 41.5,142.59 43.54,141.55 45.56,140.48 47.66,139.57 48.72,139.12 49.78,138.67 50.86,138.28 51.94,137.91 53.03,137.5 54.18,137.36 L 54.2,137.44 C 53.65,137.6 53.13,137.81 52.61,138.04 52.08,138.27 51.56,138.5 51.05,138.74 50.02,139.23 48.99,139.71 47.96,140.22 45.91,141.21 43.82,142.13 41.76,143.11 37.63,145.08 33.53,147.09 29.44,149.13 L 29.4,149.06 Z M 29.4,149.06" />
            <path id="sue06Canvas-bezier54" stroke="none" fill="rgb(51, 91, 113)" d="M 53.05,117.71 C 51.82,119.41 50.81,121.27 50.07,123.22 49.32,125.16 48.85,127.23 48.95,129.29 49.05,131.34 49.83,133.3 51.08,134.89 51.23,135.1 51.4,135.3 51.57,135.49 51.74,135.69 51.88,135.86 52.06,135.95 52.4,136.17 52.82,136.05 53.22,135.77 53.62,135.49 53.96,135.1 54.27,134.68 54.59,134.27 54.86,133.83 55.13,133.38 L 55.19,133.4 C 54.83,134.4 54.37,135.38 53.53,136.16 53.32,136.35 53.06,136.52 52.75,136.6 52.43,136.69 52.06,136.65 51.77,136.5 51.47,136.36 51.26,136.12 51.07,135.94 50.89,135.75 50.7,135.55 50.52,135.34 49.09,133.68 48.39,131.46 48.38,129.31 48.34,127.14 48.91,125.03 49.73,123.08 50.58,121.14 51.68,119.31 53,117.66 L 53.05,117.71 Z M 53.05,117.71" />
            <path id="sue06Canvas-bezier55" stroke="none" fill="rgb(51, 91, 113)" d="M 54.04,115.99 C 53.43,116.18 52.88,116.56 52.35,116.93 51.82,117.31 51.32,117.73 50.83,118.16 49.86,119.02 48.94,119.97 47.9,120.78 46.87,121.6 45.73,122.33 44.48,122.81 43.24,123.31 41.89,123.53 40.57,123.58 38,123.76 35.44,124.36 33.05,125.28 31.86,125.75 30.72,126.36 29.79,127.21 28.86,128.05 28.22,129.24 28.2,130.55 L 28.13,130.55 C 28.04,129.9 28.12,129.21 28.35,128.57 28.59,127.93 28.98,127.36 29.44,126.86 30.37,125.86 31.56,125.18 32.78,124.62 35.24,123.57 37.89,123.11 40.55,123.01 41.84,123 43.11,122.82 44.32,122.38 45.53,121.95 46.64,121.28 47.68,120.5 49.77,118.99 51.51,116.85 54.03,115.92 L 54.04,115.99 Z M 54.04,115.99" />
            <path id="sue06Canvas-bezier56" stroke="none" fill="rgb(51, 91, 113)" d="M 27.6,122.72 C 26.64,123.27 25.72,123.88 24.83,124.52 23.94,125.15 23.07,125.83 22.26,126.56 21.44,127.29 20.71,128.09 20,128.89 19.27,129.69 18.63,130.54 18.1,131.52 L 18.03,131.5 C 18.19,130.37 18.76,129.33 19.44,128.43 20.13,127.53 21.01,126.8 21.89,126.12 23.65,124.74 25.56,123.6 27.56,122.65 L 27.6,122.72 Z M 27.6,122.72" />
            <path id="sue06Canvas-bezier57" stroke="none" fill="rgb(51, 91, 113)" d="M 28.32,121.76 C 28.78,120.97 28.95,119.89 28.33,119.19 28.04,118.84 27.64,118.63 27.21,118.43 26.99,118.32 26.79,118.23 26.56,118.08 26.51,118.04 26.43,117.98 26.39,117.86 26.36,117.74 26.39,117.67 26.39,117.62 26.4,117.51 26.4,117.42 26.38,117.31 26.3,116.9 26.09,116.47 25.86,116.07 25.64,115.66 25.38,115.3 25.11,114.88 24.6,114.03 24.34,113.07 24.21,112.11 23.96,110.19 24.05,108.3 23.95,106.45 23.9,104.6 23.52,102.77 22.79,101.03 L 22.85,100.99 C 23.96,102.56 24.49,104.49 24.67,106.4 24.86,108.31 24.61,110.21 24.78,112.04 24.87,112.96 25.08,113.86 25.52,114.65 25.98,115.45 26.55,116.25 26.73,117.26 26.75,117.39 26.75,117.53 26.73,117.66 26.71,117.83 26.68,117.74 26.76,117.82 26.92,117.95 27.14,118.06 27.34,118.18 27.75,118.39 28.2,118.65 28.5,119.06 28.81,119.45 28.93,119.97 28.87,120.45 28.82,120.94 28.64,121.39 28.38,121.79 L 28.32,121.76 Z M 28.32,121.76" />
            <path id="sue06Canvas-bezier58" stroke="none" fill="rgb(51, 91, 113)" d="M 22.79,99.67 C 22.66,97.56 22.49,95.46 22.26,93.38 22.13,92.34 21.94,91.31 21.82,90.28 21.68,89.25 21.6,88.21 21.26,87.22 L 21.32,87.18 C 21.69,87.59 21.91,88.1 22.1,88.61 22.29,89.11 22.41,89.64 22.53,90.16 22.74,91.21 22.78,92.27 22.83,93.33 22.94,95.45 22.94,97.56 22.86,99.67 L 22.79,99.67 22.79,99.67 Z M 22.79,99.67" />
            <path id="sue06Canvas-bezier59" stroke="none" fill="rgb(51, 91, 113)" d="M 31.32,65.75 C 33.55,66.97 35.98,67.8 38.45,68.33 40.93,68.87 43.48,69.07 45.99,68.88 47.25,68.78 48.49,68.58 49.71,68.28 50.02,68.21 50.32,68.13 50.63,68.05 L 50.85,67.99 50.94,67.96 51.05,67.92 C 51.21,67.87 51.33,67.81 51.48,67.76 52.03,67.52 52.54,67.21 52.99,66.81 53.92,66.05 54.54,64.95 54.92,63.78 55.3,62.6 55.46,61.33 55.44,60.07 L 55.52,60.06 C 55.74,61.33 55.7,62.64 55.4,63.91 55.11,65.18 54.47,66.42 53.47,67.35 52.97,67.8 52.39,68.17 51.77,68.44 51.62,68.51 51.44,68.57 51.3,68.62 L 51.19,68.66 51.05,68.7 50.81,68.76 C 50.5,68.84 50.18,68.91 49.87,68.98 48.6,69.23 47.31,69.39 46.03,69.45 43.45,69.58 40.86,69.3 38.37,68.68 35.89,68.05 33.48,67.13 31.28,65.82 L 31.32,65.75 Z M 31.32,65.75" />
            <path id="sue06Canvas-bezier60" stroke="none" fill="rgb(51, 91, 113)" d="M 51.1,49.42 C 51.23,51.7 51.44,53.99 51.76,56.24 51.94,57.37 52.18,58.47 52.39,59.58 52.63,60.67 52.79,61.8 53.45,62.72 L 53.41,62.78 C 52.89,62.46 52.57,61.92 52.3,61.39 52.03,60.86 51.85,60.3 51.69,59.74 51.38,58.61 51.29,57.45 51.19,56.31 51,54.01 50.95,51.71 51.02,49.42 L 51.1,49.42 Z M 51.1,49.42" />
            <path id="sue06Canvas-bezier61" stroke="none" fill="rgb(51, 91, 113)" d="M 95.81,101.73 L 98.4,111.81 C 99.27,115.17 100.14,118.53 101.07,121.87 101.3,122.7 101.54,123.54 101.8,124.36 101.93,124.77 102.06,125.19 102.21,125.57 L 102.34,125.86 C 102.38,125.98 102.42,126.09 102.45,126.19 102.52,126.41 102.58,126.62 102.64,126.83 103.09,128.54 103.38,130.25 103.62,131.98 103.84,133.71 104.01,135.45 104.02,137.2 104.03,138.08 104.01,138.95 103.91,139.82 103.8,140.69 103.66,141.58 103.24,142.36 L 103.18,142.33 C 103.49,141.52 103.56,140.66 103.59,139.8 103.62,138.94 103.59,138.08 103.52,137.22 103.4,135.5 103.2,133.79 102.91,132.09 102.65,130.38 102.34,128.68 101.95,127.01 101.9,126.8 101.85,126.6 101.79,126.4 101.73,126.18 101.68,126.06 101.58,125.81 101.42,125.38 101.3,124.96 101.18,124.54 100.94,123.7 100.72,122.86 100.51,122.02 98.8,115.28 97.26,108.52 95.73,101.75 L 95.81,101.73 Z M 95.81,101.73" />
            <path id="sue06Canvas-bezier62" stroke="none" fill="rgb(51, 91, 113)" d="M 69.86,58.78 C 70.87,58.77 71.88,58.72 72.88,58.81 73.89,58.89 74.89,59.07 75.86,59.37 77.8,59.96 79.59,61.02 81.12,62.35 84.19,65.04 86.32,68.59 88,72.25 89.67,75.92 90.94,79.78 91.85,83.7 92.71,87.62 93.58,91.54 94.31,95.49 L 94.24,95.51 C 93.11,91.65 92.14,87.75 91.15,83.87 90.15,80 89.06,76.15 87.47,72.48 85.88,68.84 83.84,65.3 80.88,62.62 79.41,61.28 77.69,60.2 75.79,59.57 74.85,59.26 73.87,59.05 72.87,58.95 71.87,58.84 70.87,58.87 69.86,58.85 L 69.86,58.78 Z M 69.86,58.78" />
            <path id="sue06Canvas-bezier63" stroke="none" fill="rgb(51, 91, 113)" d="M 102,134.87 C 101.82,136.91 101.7,138.96 101.63,141 101.58,143.04 101.53,145.11 101.81,147.1 101.89,147.59 102,148.1 102.21,148.46 102.52,148.93 102.65,149.52 102.72,150.03 102.86,151.1 102.8,152.15 102.7,153.18 102.45,155.24 102.04,157.26 101.4,159.23 L 101.33,159.21 C 101.56,157.17 101.86,155.14 101.99,153.12 102.06,152.11 102.1,151.09 102.02,150.12 101.97,149.63 101.89,149.17 101.65,148.78 101.37,148.23 101.31,147.71 101.24,147.18 101.02,145.09 101.15,143.04 101.28,140.99 101.43,138.94 101.65,136.89 101.92,134.86 L 102,134.87 Z M 102,134.87" />
            <path id="sue06Canvas-bezier64" stroke="none" fill="rgb(51, 91, 113)" d="M 87.42,156.54 C 87.34,156.39 87.41,156.17 87.52,156.05 87.63,155.91 87.76,155.8 87.9,155.71 88.18,155.52 88.48,155.38 88.8,155.26 89.43,155.03 90.09,154.9 90.75,154.83 92.08,154.69 93.43,154.81 94.74,155.09 96.04,155.39 97.34,155.77 98.5,156.5 99.07,156.87 99.62,157.29 100.06,157.83 100.48,158.36 100.85,159 100.84,159.7 L 100.77,159.7 C 100.33,158.48 99.22,157.72 98.14,157.12 97.03,156.53 95.84,156.01 94.6,155.65 93.36,155.31 92.07,155.13 90.78,155.18 90.13,155.21 89.49,155.29 88.87,155.47 88.56,155.56 88.25,155.67 87.98,155.83 87.72,155.98 87.39,156.22 87.48,156.53 L 87.42,156.54 Z M 87.42,156.54" />
            <path id="sue06Canvas-bezier65" stroke="none" fill="rgb(51, 91, 113)" d="M 87.39,154.35 C 86.9,153.39 86.55,152.34 86.51,151.24 86.5,150.97 86.52,150.69 86.58,150.42 86.63,150.14 86.74,149.88 86.81,149.64 86.96,149.14 87.07,148.61 87.16,148.09 87.35,147.05 87.47,145.99 87.52,144.93 87.57,143.87 87.57,142.8 87.36,141.8 87.3,141.55 87.23,141.32 87.13,141.09 87.01,140.82 86.93,140.54 86.87,140.27 86.76,139.71 86.71,139.17 86.68,138.62 86.62,137.53 86.67,136.45 86.78,135.37 86.84,134.83 86.91,134.3 86.99,133.76 87.04,133.51 87.09,133.19 87.14,132.99 87.15,133.07 87.14,132.99 87.12,132.96 87.1,132.91 87.06,132.86 87.03,132.81 L 86.81,132.49 C 86.65,132.26 86.5,132.03 86.38,131.76 86.26,131.49 86.18,131.14 86.33,130.83 86.47,130.53 86.75,130.37 87,130.25 87.25,130.14 87.52,130.08 87.79,130.03 L 87.81,130.1 C 87.33,130.29 86.77,130.53 86.63,130.95 86.51,131.36 86.87,131.8 87.21,132.18 L 87.47,132.5 C 87.52,132.55 87.56,132.61 87.6,132.69 87.64,132.77 87.7,132.82 87.71,133.03 87.66,133.35 87.64,133.56 87.61,133.84 87.56,134.37 87.52,134.9 87.49,135.43 87.42,136.49 87.37,137.55 87.39,138.6 87.4,139.12 87.42,139.64 87.51,140.15 87.55,140.4 87.6,140.64 87.69,140.86 87.8,141.12 87.88,141.41 87.92,141.69 88.11,142.79 88.07,143.88 87.99,144.96 87.9,146.04 87.74,147.11 87.52,148.16 87.4,148.69 87.26,149.21 87.08,149.73 86.99,150 86.88,150.23 86.82,150.48 86.76,150.73 86.73,150.99 86.73,151.25 86.71,152.3 87.01,153.35 87.45,154.31 L 87.39,154.35 Z M 87.39,154.35" />
            <path id="sue06Canvas-bezier66" stroke="none" fill="rgb(51, 91, 113)" d="M 86.39,128.54 L 84.86,122.76 C 84.59,121.8 84.29,120.85 84.1,119.88 83.91,118.9 83.75,117.92 83.69,116.9 L 83.75,116.89 C 84.2,117.8 84.51,118.75 84.8,119.71 85.08,120.67 85.23,121.66 85.42,122.64 85.8,124.59 86.15,126.56 86.46,128.53 L 86.39,128.54 Z M 86.39,128.54" />
            <path id="sue06Canvas-bezier67" stroke="none" fill="rgb(51, 91, 113)" d="M 76.24,82.58 C 77.15,83.89 77.82,85.35 78.48,86.8 79.11,88.27 79.68,89.76 80.18,91.28 80.68,92.8 81.16,94.33 81.43,95.91 81.69,97.49 81.88,99.09 81.82,100.69 L 81.74,100.7 C 81.4,99.14 81.1,97.59 80.73,96.05 80.36,94.52 80.05,92.97 79.63,91.44 79.2,89.92 78.71,88.42 78.15,86.94 77.58,85.46 77,83.97 76.18,82.62 L 76.24,82.58 Z M 76.24,82.58" />
            <path id="sue06Canvas-bezier68" stroke="none" fill="rgb(51, 91, 113)" d="M 78.71,118.68 C 78.4,120.78 78.12,122.88 77.99,124.99 77.94,126.04 77.87,127.13 78.09,128.09 78.13,128.2 78.17,128.31 78.22,128.38 78.29,128.48 78.38,128.6 78.45,128.72 78.6,128.95 78.74,129.18 78.87,129.42 79.13,129.89 79.36,130.38 79.57,130.87 80,131.87 80.38,132.88 80.56,133.99 80.6,134.26 80.62,134.55 80.61,134.85 80.59,135.15 80.54,135.48 80.33,135.79 80.28,135.87 80.2,135.94 80.13,136.01 80.09,136.04 80.05,136.07 80.01,136.1 L 79.92,136.15 C 79.88,136.18 79.84,136.22 79.8,136.3 79.73,136.45 79.69,136.69 79.68,136.93 79.63,137.91 79.86,138.97 80.04,140 L 80.32,141.57 C 80.36,141.84 80.39,142.1 80.42,142.37 80.43,142.51 80.44,142.64 80.43,142.78 80.43,142.85 80.43,142.92 80.41,142.99 80.39,143.05 80.36,143.16 80.25,143.17 L 80.24,143.1 C 80.32,143.07 80.3,142.9 80.29,142.79 80.27,142.66 80.24,142.53 80.21,142.41 80.15,142.15 80.07,141.9 80,141.64 L 79.55,140.11 C 79.27,139.08 78.99,138.05 78.96,136.9 78.97,136.61 78.99,136.31 79.14,135.98 79.21,135.82 79.35,135.64 79.53,135.53 L 79.59,135.49 79.61,135.47 79.65,135.45 C 79.67,135.42 79.7,135.4 79.72,135.37 79.9,135.1 79.91,134.56 79.85,134.07 79.73,133.07 79.41,132.06 79.04,131.09 78.85,130.6 78.64,130.12 78.41,129.66 78.29,129.43 78.17,129.2 78.03,128.98 77.97,128.87 77.9,128.77 77.82,128.65 77.72,128.5 77.68,128.35 77.64,128.21 77.42,127.09 77.55,126.03 77.63,124.96 77.86,122.84 78.23,120.75 78.64,118.66 L 78.71,118.68 Z M 78.71,118.68" />
            <path id="sue06Canvas-bezier69" stroke="none" fill="rgb(51, 91, 113)" d="M 79.8,144.44 C 80.25,145.57 80.68,146.72 81.07,147.88 81.46,149.04 81.84,150.21 82.05,151.43 82.1,151.73 82.14,152.04 82.11,152.37 82.09,152.53 82.07,152.71 81.9,152.87 81.88,152.88 81.83,152.91 81.85,152.9 81.84,152.91 81.81,152.93 81.81,152.94 81.81,152.94 81.8,152.95 81.79,152.99 81.77,153.04 81.76,153.11 81.75,153.18 81.7,153.75 81.79,154.37 81.87,154.97 82.04,156.17 82.28,157.37 82.5,158.57 82.94,160.97 83.43,163.37 83.6,165.84 83.64,166.46 83.65,167.09 83.54,167.73 83.5,167.9 83.46,168.06 83.38,168.23 83.34,168.31 83.3,168.39 83.24,168.48 83.22,168.52 83.18,168.55 83.14,168.59 L 83.06,168.67 C 82.85,168.88 82.71,169.08 82.6,169.34 82.18,170.35 82.56,171.61 83.1,172.59 L 83.33,172.99 82.88,173.04 C 81.77,173.17 80.66,173.09 79.6,172.67 79.08,172.46 78.58,172.14 78.18,171.72 77.77,171.3 77.49,170.75 77.31,170.25 76.92,169.27 76.6,168.26 76.2,167.32 76,166.86 75.76,166.39 75.46,166.15 75.31,166.03 75.17,166 75,166.02 74.8,166.03 74.68,166.18 74.26,166.27 73.62,166.35 73.09,166.22 72.56,166.11 72.03,165.98 71.52,165.83 71.02,165.66 70.01,165.32 69.02,164.92 68.06,164.49 66.11,163.66 64.23,162.7 62.35,161.74 L 62.38,161.68 C 64.33,162.49 66.27,163.3 68.24,164.05 69.22,164.42 70.2,164.78 71.2,165.09 71.7,165.24 72.2,165.38 72.7,165.48 73.19,165.58 73.72,165.66 74.13,165.59 74.24,165.6 74.54,165.37 74.88,165.32 75.23,165.25 75.64,165.36 75.9,165.58 76.42,166.01 76.64,166.53 76.88,167.02 77.31,168.02 77.63,169.02 77.99,169.99 78.29,170.95 78.96,171.66 79.86,172.05 80.76,172.43 81.82,172.53 82.79,172.44 L 82.57,172.9 C 82.26,172.31 82.04,171.72 81.93,171.08 81.81,170.44 81.82,169.75 82.1,169.12 82.23,168.81 82.45,168.51 82.69,168.29 82.7,168.27 82.76,168.22 82.77,168.21 82.78,168.19 82.8,168.18 82.82,168.16 82.85,168.12 82.88,168.06 82.9,168.01 82.96,167.9 82.99,167.76 83.03,167.63 83.14,167.07 83.14,166.47 83.11,165.87 82.99,163.46 82.53,161.04 82.13,158.64 81.93,157.43 81.72,156.22 81.57,155.01 81.5,154.39 81.42,153.79 81.49,153.14 81.5,153.06 81.52,152.98 81.55,152.89 81.57,152.85 81.59,152.8 81.64,152.74 81.67,152.72 81.68,152.71 81.69,152.7 L 81.74,152.67 C 81.81,152.62 81.85,152.48 81.87,152.34 81.9,152.06 81.87,151.76 81.83,151.46 81.65,150.26 81.29,149.09 80.93,147.92 80.56,146.76 80.16,145.61 79.73,144.47 L 79.8,144.44 Z M 79.8,144.44" />
            <path id="sue06Canvas-bezier70" stroke="none" fill="rgb(51, 91, 113)" d="M 60.29,161.33 C 60.22,162.33 60.17,163.32 60.15,164.31 60.14,164.81 60.14,165.31 60.16,165.8 60.19,166.28 60.2,166.82 60.37,167.21 L 60.45,167.39 60.27,167.41 C 58.26,167.63 56.23,167.58 54.22,167.33 53.22,167.2 52.22,167.03 51.24,166.8 50.25,166.57 49.28,166.31 48.32,165.91 L 48.19,165.86 48.15,165.72 C 47.84,164.65 47.91,163.53 48.15,162.48 48.27,161.96 48.44,161.44 48.65,160.95 48.85,160.45 49.07,159.97 49.37,159.5 L 49.5,159.29 49.74,159.33 C 50.62,159.48 51.5,159.61 52.38,159.77 L 55.01,160.24 C 56.77,160.56 58.52,160.9 60.26,161.29 L 60.29,161.3 60.29,161.33 Z M 60.21,161.36 C 58.45,161.21 56.68,161.01 54.93,160.79 L 52.27,160.45 C 51.39,160.34 50.51,160.19 49.63,160.07 L 50,159.9 C 49.75,160.31 49.51,160.77 49.32,161.23 49.12,161.69 48.95,162.17 48.82,162.65 48.57,163.61 48.48,164.62 48.72,165.57 L 48.56,165.37 C 49.44,165.77 50.4,166.06 51.36,166.31 52.32,166.55 53.3,166.75 54.28,166.89 56.25,167.18 58.25,167.29 60.24,167.14 L 60.14,167.34 C 59.92,166.8 59.96,166.31 59.94,165.81 59.93,165.31 59.95,164.81 59.98,164.31 60.03,163.32 60.11,162.34 60.21,161.36 Z M 60.21,161.36" />
            <path id="sue06Canvas-bezier71" stroke="none" fill="rgb(51, 91, 113)" d="M 48.27,159.25 C 47.53,159.54 46.75,159.72 45.95,159.8 45.55,159.84 45.13,159.92 44.73,159.82 44.33,159.72 43.93,159.56 43.62,159.25 L 43.64,159.19 C 44.07,159.11 44.44,159.11 44.82,159.11 45.19,159.1 45.55,159.21 45.94,159.23 46.69,159.28 47.47,159.27 48.25,159.18 L 48.27,159.25 Z M 48.27,159.25" />
            <path id="sue06Canvas-bezier72" stroke="none" fill="rgb(51, 91, 113)" d="M 45.93,158.65 C 44.68,158.17 43.24,158.17 42.01,158.69 40.81,159.25 39.69,160.05 38.52,160.73 37.35,161.42 36.17,162.1 34.87,162.6 34.23,162.84 33.55,163.06 32.81,163.06 32.44,163.06 32.05,162.99 31.7,162.78 31.61,162.73 31.53,162.67 31.45,162.61 31.4,162.57 31.32,162.5 31.28,162.48 31.16,162.41 31.02,162.34 30.88,162.29 29.67,161.9 28.28,161.9 26.96,161.91 25.62,161.94 24.28,162.02 22.93,162.15 21.59,162.25 20.25,162.42 18.92,162.62 18.25,162.72 17.59,162.84 16.93,162.98 16.28,163.12 15.62,163.28 15.01,163.57 L 14.97,163.51 C 16.15,162.77 17.51,162.46 18.82,162.13 20.16,161.82 21.5,161.61 22.86,161.43 24.22,161.28 25.58,161.18 26.95,161.2 28.32,161.24 29.71,161.26 31.08,161.75 31.25,161.82 31.42,161.9 31.59,162.01 31.69,162.08 31.74,162.12 31.82,162.19 31.87,162.24 31.92,162.28 31.98,162.31 32.21,162.46 32.51,162.53 32.82,162.54 33.44,162.55 34.09,162.38 34.71,162.17 35.96,161.72 37.16,161.08 38.34,160.42 39.53,159.78 40.66,159.03 41.93,158.49 43.23,157.99 44.7,158.06 45.96,158.59 L 45.93,158.65 Z M 45.93,158.65" />
            <path id="sue06Canvas-bezier73" stroke="none" fill="rgb(51, 91, 113)" d="M 14,163.54 C 13.78,161.8 13.74,160.03 14.03,158.27 14.18,157.4 14.46,156.52 14.9,155.74 15.27,154.98 15.57,154.16 15.83,153.34 16.35,151.68 16.7,149.98 17.05,148.28 17.24,147.44 17.37,146.58 17.48,145.73 17.59,144.87 17.67,144.01 17.55,143.14 L 17.62,143.13 C 17.94,143.96 17.99,144.88 17.98,145.76 17.98,146.65 17.87,147.53 17.76,148.41 17.49,150.16 16.98,151.86 16.38,153.52 16.07,154.35 15.74,155.17 15.31,155.97 14.85,156.7 14.57,157.5 14.38,158.34 14.01,160.03 13.95,161.79 14.07,163.53 L 14,163.54 Z M 14,163.54" />
            <path id="sue06Canvas-bezier74" stroke="none" fill="rgb(51, 91, 113)" d="M 47.1,164.62 C 46.22,164.59 45.4,164.42 44.55,164.31 L 42.03,163.87 C 41.19,163.73 40.34,163.64 39.52,163.41 38.7,163.19 37.89,162.94 37.09,162.61 L 37.1,162.54 C 37.98,162.48 38.83,162.59 39.67,162.71 40.52,162.83 41.33,163.1 42.15,163.31 L 44.62,163.95 C 45.44,164.16 46.27,164.43 47.08,164.55 L 47.1,164.62 Z M 47.1,164.62" />
            <path id="sue06Canvas-bezier75" stroke="none" fill="rgb(51, 91, 113)" d="M 61.7,166.19 C 62.81,166.43 63.92,166.64 65.03,166.82 66.14,167.01 67.25,167.16 68.37,167.27 69.49,167.38 70.6,167.4 71.71,167.45 72.82,167.5 73.92,167.52 75.04,167.34 L 75.06,167.41 C 74.04,167.97 72.85,168.12 71.71,168.17 70.55,168.21 69.42,168.03 68.29,167.84 66.05,167.48 63.84,166.94 61.68,166.26 L 61.7,166.19 Z M 61.7,166.19" />
            <path id="sue06Canvas-bezier76" stroke="none" fill="rgb(51, 91, 113)" d="M 13.96,165.07 C 13.69,168.2 13.47,171.33 13.27,174.46 13.06,177.6 12.89,180.73 12.77,183.86 12.64,187 12.61,190.13 12.54,193.26 12.46,196.39 12.45,199.52 12.63,202.66 L 12.55,202.67 C 11.96,199.57 11.87,196.4 11.82,193.26 11.8,190.11 11.99,186.97 12.19,183.83 12.59,177.56 13.16,171.3 13.89,165.07 L 13.96,165.07 Z M 13.96,165.07" />
            <path id="sue06Canvas-bezier77" stroke="none" fill="rgb(51, 91, 113)" d="M 75.36,188.06 C 76.46,187.35 77.59,186.67 78.74,186.02 79.31,185.7 79.87,185.33 80.49,185.11 80.8,184.99 81.12,184.88 81.45,184.81 81.62,184.77 81.79,184.74 81.96,184.72 82.05,184.72 82.13,184.71 82.23,184.71 82.31,184.72 82.42,184.7 82.51,184.81 L 82.46,184.85 C 82.35,184.86 82.19,184.95 82.06,185.03 L 81.64,185.28 C 81.36,185.45 81.07,185.6 80.79,185.76 80.22,186.07 79.59,186.27 78.99,186.54 L 75.39,188.12 75.36,188.06 Z M 75.36,188.06" />
            <path id="sue06Canvas-bezier78" stroke="none" fill="rgb(51, 91, 113)" d="M 82.64,178.98 C 81.4,179.64 80.17,180.33 78.96,181.03 78.36,181.38 77.8,181.8 77.18,182.11 76.56,182.43 75.95,182.74 75.28,183.03 L 75.24,182.98 C 75.66,182.37 76.23,181.91 76.81,181.5 77.39,181.09 78.06,180.82 78.7,180.52 79.98,179.92 81.28,179.39 82.61,178.92 L 82.64,178.98 Z M 82.64,178.98" />
            <path id="sue06Canvas-bezier79" stroke="none" fill="rgb(51, 91, 113)" d="M 77.26,191.82 C 77.87,191.59 78.43,191.27 78.99,190.94 79.55,190.62 80.11,190.28 80.66,189.94 81.21,189.59 81.74,189.19 82.35,188.93 82.65,188.8 82.96,188.68 83.29,188.59 83.61,188.51 83.97,188.4 84.33,188.53 L 84.31,188.6 C 84.02,188.67 83.76,188.89 83.49,189.05 L 82.68,189.57 C 82.14,189.91 81.52,190.15 80.94,190.44 79.76,191 78.57,191.59 77.28,191.89 L 77.26,191.82 Z M 77.26,191.82" />
            <path id="sue06Canvas-bezier80" stroke="none" fill="rgb(51, 91, 113)" d="M 79.85,194.79 C 80.2,194.7 80.46,194.51 80.75,194.3 L 81.62,193.71 C 82.21,193.33 82.8,192.96 83.4,192.59 84,192.23 84.58,191.82 85.23,191.55 85.56,191.42 85.89,191.29 86.24,191.2 86.59,191.13 86.95,190.99 87.35,191.13 L 87.32,191.2 C 87.03,191.27 86.73,191.51 86.44,191.67 86.15,191.85 85.85,192.02 85.55,192.2 84.96,192.55 84.3,192.79 83.67,193.09 83.05,193.39 82.42,193.7 81.8,194.02 L 80.87,194.49 C 80.57,194.65 80.22,194.82 79.87,194.86 L 79.85,194.79 Z M 79.85,194.79" />
            <path id="sue06Canvas-bezier81" stroke="none" fill="rgb(51, 91, 113)" d="M 73.59,184.16 C 72.14,184.71 70.7,185.32 69.33,186.04 68.64,186.4 67.96,186.78 67.37,187.24 67.09,187.47 66.8,187.74 66.7,188.01 66.68,188.08 66.67,188.12 66.67,188.2 L 66.68,188.49 C 66.68,188.68 66.69,188.87 66.71,189.06 66.74,189.42 66.81,189.79 66.96,190.04 67.11,190.28 67.33,190.36 67.66,190.33 68.31,190.27 68.99,189.88 69.74,189.6 71.23,189.06 72.76,188.64 74.33,188.52 L 74.35,188.59 C 72.87,189.11 71.41,189.62 70.01,190.26 69.32,190.54 68.62,190.99 67.69,191.04 67.46,191.05 67.21,191.02 66.96,190.9 66.72,190.79 66.52,190.58 66.4,190.36 66.18,189.92 66.15,189.49 66.13,189.09 66.13,188.89 66.13,188.69 66.13,188.49 L 66.14,188.2 C 66.14,188.08 66.17,187.93 66.22,187.82 66.43,187.37 66.77,187.12 67.09,186.87 67.75,186.4 68.46,186.05 69.17,185.72 70.6,185.08 72.08,184.55 73.57,184.09 L 73.59,184.16 Z M 73.59,184.16" />
            <path id="sue06Canvas-bezier82" stroke="none" fill="rgb(51, 91, 113)" d="M 66.41,191.51 C 66.17,191.56 65.94,191.66 65.79,191.84 65.63,192.01 65.57,192.24 65.56,192.48 65.54,192.95 65.71,193.42 65.91,193.86 66.11,194.3 66.38,194.7 66.76,194.94 67.12,195.18 67.61,195.19 67.97,195.02 L 67.97,195.02 67.98,195.02 C 69.35,194.46 70.7,193.85 72.08,193.33 72.78,193.08 73.48,192.86 74.2,192.65 74.92,192.47 75.62,192.25 76.4,192.2 L 76.4,192.28 C 75.73,192.55 75.06,192.89 74.39,193.18 73.71,193.48 73.03,193.77 72.34,194.03 70.96,194.54 69.55,194.97 68.16,195.48 L 68.18,195.47 C 67.62,195.69 66.99,195.61 66.53,195.27 66.07,194.94 65.8,194.45 65.63,193.98 65.46,193.5 65.32,192.99 65.37,192.46 65.4,192.2 65.5,191.94 65.7,191.75 65.89,191.56 66.15,191.47 66.4,191.44 L 66.41,191.51 Z M 66.41,191.51" />
            <path id="sue06Canvas-bezier83" stroke="none" fill="rgb(51, 91, 113)" d="M 69.13,195.84 C 69.1,196.38 69.17,196.92 69.33,197.42 69.5,197.9 69.79,198.41 70.23,198.54 70.34,198.58 70.43,198.59 70.54,198.56 70.66,198.54 70.78,198.51 70.91,198.47 71.16,198.39 71.41,198.29 71.66,198.19 72.15,197.99 72.65,197.78 73.14,197.55 74.13,197.11 75.09,196.6 76.11,196.21 76.62,196.02 77.13,195.83 77.65,195.68 78.18,195.53 78.71,195.35 79.27,195.32 L 79.29,195.4 C 78.32,195.87 77.37,196.42 76.39,196.87 75.41,197.34 74.38,197.71 73.36,198.08 72.85,198.28 72.34,198.46 71.81,198.63 71.55,198.72 71.29,198.8 71.02,198.86 70.88,198.9 70.74,198.93 70.59,198.94 70.43,198.97 70.24,198.94 70.1,198.88 69.49,198.6 69.26,198 69.13,197.48 69,196.93 68.98,196.37 69.06,195.83 L 69.13,195.84 Z M 69.13,195.84" />
            <path id="sue06Canvas-bezier84" stroke="none" fill="rgb(51, 91, 113)" d="M 74.99,198.47 C 74.92,198.49 75.06,198.57 75.14,198.6 75.23,198.64 75.33,198.67 75.43,198.7 75.62,198.75 75.83,198.8 76.03,198.84 76.43,198.91 76.84,198.96 77.25,198.99 77.45,199 77.67,199.02 77.85,199 77.99,198.98 78.2,198.91 78.37,198.83 78.73,198.68 79.09,198.47 79.44,198.27 80.15,197.85 80.81,197.34 81.56,196.97 81.94,196.78 82.32,196.6 82.73,196.46 83.13,196.33 83.57,196.17 84.03,196.3 L 84.01,196.37 C 83.63,196.44 83.3,196.7 82.95,196.91 L 81.92,197.59 C 81.23,198.04 80.47,198.4 79.72,198.77 79.33,198.95 78.95,199.13 78.53,199.27 78.32,199.34 78.13,199.4 77.85,199.41 77.62,199.41 77.42,199.37 77.21,199.34 76.79,199.27 76.38,199.17 75.98,199.04 75.77,198.98 75.57,198.91 75.38,198.83 75.28,198.79 75.18,198.75 75.09,198.69 75.04,198.67 75,198.64 74.95,198.6 74.93,198.58 74.91,198.56 74.9,198.52 74.88,198.47 74.93,198.42 74.94,198.41 L 74.99,198.47 Z M 74.99,198.47" />
            <path id="sue06Canvas-bezier85" stroke="none" fill="rgb(51, 91, 113)" d="M 81.49,173.95 C 81.67,174.68 81.8,175.42 81.9,176.16 81.94,176.53 82.05,176.91 81.99,177.29 81.96,177.48 81.92,177.67 81.85,177.86 81.77,178.05 81.68,178.25 81.49,178.39 L 81.43,178.35 C 81.39,177.98 81.29,177.63 81.27,177.27 81.22,176.91 81.31,176.55 81.32,176.18 L 81.42,173.96 81.49,173.95 Z M 81.49,173.95" />
            <path id="sue06Canvas-bezier86" stroke="none" fill="rgb(51, 91, 113)" d="M 86.3,196.64 C 88.1,206.37 89.78,216.12 91.3,225.89 92.06,230.78 92.82,235.67 93.37,240.59 93.88,245.5 94.42,250.44 94.27,255.4 L 94.2,255.4 C 94.15,254.17 94.05,252.94 93.94,251.71 93.83,250.48 93.7,249.25 93.56,248.02 93.28,245.57 92.99,243.12 92.66,240.67 92.02,235.77 91.41,230.87 90.73,225.97 90.04,221.08 89.31,216.19 88.55,211.31 87.81,206.42 87.04,201.53 86.23,196.66 L 86.3,196.64 Z M 86.3,196.64" />
            <path id="sue06Canvas-bezier87" stroke="none" fill="rgb(51, 91, 113)" d="M 49.33,206.11 C 50.02,208.47 50.9,210.8 51.72,213.13 L 54.24,220.11 C 55.94,224.77 57.66,229.41 59.42,234.03 61.18,238.66 63.02,243.25 64.82,247.86 65.71,250.17 66.63,252.47 67.58,254.75 68.05,255.89 68.53,257.03 69.05,258.15 69.57,259.27 70.06,260.41 70.79,261.4 L 70.74,261.45 C 69.93,260.49 69.35,259.38 68.75,258.29 68.18,257.19 67.64,256.07 67.12,254.95 66.07,252.7 65.11,250.41 64.15,248.13 62.26,243.55 60.57,238.89 58.88,234.23 57.19,229.58 55.53,224.91 53.9,220.23 L 51.51,213.2 C 50.74,210.84 49.91,208.52 49.26,206.11 L 49.33,206.11 Z M 49.33,206.11" />
            <path id="sue06Canvas-bezier88" stroke="none" fill="rgb(51, 91, 113)" d="M 50.66,193.45 C 49.63,194.08 48.63,194.87 48.03,195.92 47.74,196.44 47.6,197.06 47.76,197.62 47.83,197.91 47.96,198.17 48.13,198.41 48.22,198.54 48.31,198.63 48.42,198.77 48.52,198.93 48.57,199.08 48.61,199.24 48.89,200.48 48.83,201.71 48.82,202.94 48.79,204.17 48.71,205.4 48.62,206.62 48.23,211.52 47.62,216.39 46.99,221.26 46.35,226.13 45.67,230.99 44.85,235.83 44.02,240.66 43.16,245.49 42.13,250.29 L 42.06,250.28 C 42.71,245.42 43.44,240.57 44.16,235.72 L 46.39,221.18 C 47.1,216.33 47.77,211.47 48.23,206.59 48.34,205.37 48.43,204.15 48.49,202.93 48.53,201.72 48.59,200.47 48.36,199.3 48.32,199.16 48.27,199.02 48.21,198.92 48.14,198.81 48.02,198.68 47.94,198.55 47.76,198.28 47.62,197.99 47.54,197.67 47.39,197.04 47.56,196.37 47.88,195.84 48.54,194.76 49.56,194 50.63,193.39 L 50.66,193.45 Z M 50.66,193.45" />
            <path id="sue06Canvas-bezier89" stroke="none" fill="rgb(51, 91, 113)" d="M 27.62,163.54 C 27.28,165.39 26.76,167.2 26.12,168.97 25.46,170.73 24.67,172.45 23.68,174.07 22.71,175.69 21.56,177.25 20.08,178.48 18.6,179.69 16.87,180.65 15,181.01 L 14.98,180.94 C 16.7,180.19 18.27,179.2 19.61,177.94 20.95,176.7 22.17,175.31 23.2,173.76 24.22,172.22 25.07,170.56 25.79,168.84 26.51,167.12 27.12,165.35 27.55,163.53 L 27.62,163.54 Z M 27.62,163.54" />
            <path id="sue06Canvas-bezier90" stroke="none" fill="rgb(51, 91, 113)" d="M 72.91,169.57 C 73.52,171.44 74.18,173.29 74.92,175.09 75.31,175.99 75.75,176.86 76.15,177.73 76.34,178.17 76.56,178.6 76.79,179.01 76.91,179.21 77.04,179.41 77.19,179.58 77.34,179.76 77.51,179.91 77.74,179.99 L 77.73,180.06 C 77.17,180.09 76.73,179.66 76.39,179.31 76.04,178.93 75.76,178.5 75.51,178.06 75.01,177.19 74.7,176.23 74.39,175.3 73.75,173.42 73.25,171.51 72.84,169.59 L 72.91,169.57 Z M 72.91,169.57" />
            <path id="sue06Canvas-bezier91" stroke="none" fill="rgb(51, 91, 113)" d="M 82.93,173.94 C 83.17,174.32 83.45,174.68 83.76,175 84.07,175.3 84.46,175.62 84.86,175.58 85.24,175.5 85.53,175.11 85.75,174.74 85.97,174.36 86.13,173.94 86.27,173.52 86.84,171.81 86.94,170.01 87.05,168.19 87.16,166.38 87.21,164.56 87.39,162.75 87.58,160.94 87.76,159.13 88.09,157.33 L 88.16,157.34 C 88.24,159.17 88.17,160.99 88.1,162.8 88.02,164.62 87.81,166.43 87.62,168.24 87.45,170.04 87.27,171.9 86.61,173.64 86.44,174.07 86.25,174.5 85.99,174.89 85.73,175.26 85.43,175.7 84.88,175.79 84.33,175.81 83.97,175.42 83.66,175.1 83.35,174.75 83.09,174.37 82.87,173.97 L 82.93,173.94 Z M 82.93,173.94" />
            <path id="sue06Canvas-bezier92" stroke="none" fill="rgb(51, 91, 113)" d="M 98.47,159.23 C 97.89,162.71 97.38,166.21 96.96,169.72 96.75,171.48 96.57,173.23 96.46,174.99 96.4,175.87 96.37,176.75 96.38,177.62 96.38,178.06 96.4,178.5 96.45,178.92 96.48,179.13 96.51,179.34 96.55,179.54 L 96.59,179.69 96.63,179.87 96.7,180.2 C 97.03,181.96 97.17,183.77 97,185.58 96.82,187.36 96.27,189.24 94.91,190.6 94.57,190.93 94.19,191.21 93.78,191.45 L 92.62,192.11 C 91.84,192.53 91.06,192.96 90.26,193.35 89.47,193.74 88.67,194.13 87.86,194.5 L 86.66,195.05 C 86.46,195.15 86.26,195.24 86.06,195.35 85.88,195.45 85.65,195.55 85.55,195.7 L 85.48,195.68 C 85.6,195.45 85.81,195.35 85.99,195.22 86.17,195.1 86.37,194.98 86.56,194.87 L 87.71,194.21 90.03,192.91 92.31,191.57 93.44,190.88 C 93.79,190.65 94.11,190.39 94.4,190.09 95.56,188.9 96.09,187.19 96.3,185.5 96.5,183.78 96.41,182.02 96.14,180.3 L 96.08,179.98 96.05,179.84 96.01,179.67 C 95.96,179.43 95.93,179.2 95.9,178.98 95.86,178.52 95.86,178.07 95.86,177.63 95.86,176.73 95.92,175.84 95.99,174.96 96.14,173.19 96.36,171.43 96.61,169.68 97.12,166.17 97.73,162.69 98.4,159.21 L 98.47,159.23 Z M 98.47,159.23" />
            <path id="sue06Canvas-bezier93" stroke="none" fill="rgb(51, 91, 113)" d="M 54.07,117.62 C 56.62,115.55 59.24,113.56 61.93,111.68 63.29,110.75 64.66,109.84 66.09,109.01 67.52,108.19 68.99,107.36 70.64,106.97 73.76,106.11 76.69,104.59 79.55,103.05 80.99,102.27 82.39,101.43 83.74,100.52 84.41,100.07 85.06,99.56 85.7,99.06 86.36,98.57 87,98.01 87.82,97.77 L 87.84,97.83 C 87.1,98.17 86.52,98.76 85.91,99.31 85.3,99.86 84.69,100.41 84.04,100.92 82.73,101.94 81.32,102.82 79.91,103.67 77.05,105.32 74.02,106.71 70.78,107.53 69.21,107.86 67.75,108.64 66.32,109.41 64.89,110.2 63.5,111.08 62.13,111.98 59.39,113.77 56.72,115.69 54.11,117.67 L 54.07,117.62 Z M 54.07,117.62" />
            <path id="sue06Canvas-bezier94" stroke="none" fill="rgb(51, 91, 113)" d="M 89.76,100.35 C 90.69,101.25 91.67,102.12 92.7,102.91 93.21,103.31 93.73,103.69 94.29,103.98 94.56,104.14 94.84,104.22 95.17,104.37 95.47,104.5 95.78,104.66 96.07,104.84 96.64,105.21 97.23,105.75 97.4,106.53 97.56,107.31 97.32,108.07 96.83,108.67 96.56,108.96 96.18,109.16 95.8,109.23 95.43,109.29 95.06,109.27 94.73,109.19 94.05,109.06 93.45,108.75 92.86,108.47 L 92.88,108.4 C 93.54,108.49 94.17,108.68 94.79,108.7 95.41,108.73 95.99,108.6 96.29,108.2 96.37,108.09 96.42,108.02 96.5,107.85 96.54,107.74 96.61,107.59 96.64,107.46 96.72,107.19 96.75,106.92 96.7,106.67 96.63,106.15 96.24,105.68 95.74,105.32 95.5,105.14 95.22,104.98 94.94,104.84 94.68,104.7 94.34,104.57 94.05,104.39 93.47,104.04 92.96,103.62 92.47,103.19 91.49,102.31 90.58,101.37 89.7,100.4 L 89.76,100.35 Z M 89.76,100.35" />
            <path id="sue06Canvas-bezier95" stroke="none" fill="rgb(51, 91, 113)" d="M 92.61,106.96 C 92.45,106.79 92.17,106.64 91.94,106.5 91.7,106.37 91.45,106.24 91.2,106.12 90.95,106.01 90.69,105.91 90.43,105.84 90.31,105.8 90.18,105.77 90.06,105.77 89.94,105.77 89.88,105.81 89.88,105.83 L 89.9,105.74 C 89.95,106.03 90.12,106.35 90.34,106.59 90.57,106.85 90.84,107 91.18,107.21 91.8,107.64 92.41,108.1 92.95,108.66 93.47,109.21 93.94,109.93 93.97,110.81 93.97,111.03 93.94,111.25 93.86,111.45 93.77,111.67 93.69,111.8 93.6,111.97 93.51,112.14 93.41,112.3 93.3,112.46 93.25,112.54 93.19,112.61 93.12,112.69 93.09,112.73 93.06,112.76 93.01,112.8 92.99,112.81 92.96,112.84 92.9,112.83 92.83,112.8 92.84,112.76 92.84,112.73 L 92.91,112.72 C 92.95,112.76 92.89,112.73 92.92,112.71 92.94,112.67 92.96,112.63 92.98,112.59 93.01,112.51 93.04,112.43 93.07,112.34 L 93.22,111.82 C 93.33,111.45 93.41,111.15 93.35,110.85 93.26,110.24 92.84,109.68 92.41,109.13 91.96,108.59 91.44,108.09 90.87,107.65 90.6,107.45 90.23,107.21 89.99,106.89 89.74,106.56 89.56,106.2 89.52,105.76 L 89.51,105.72 89.53,105.67 C 89.59,105.56 89.7,105.47 89.81,105.44 89.91,105.41 90,105.42 90.08,105.43 90.25,105.44 90.39,105.49 90.53,105.54 90.81,105.65 91.06,105.78 91.31,105.92 91.55,106.06 91.79,106.22 92.02,106.38 92.25,106.56 92.49,106.67 92.68,106.95 L 92.61,106.96 Z M 92.61,106.96" />
            <path id="sue06Canvas-bezier96" stroke="none" fill="rgb(51, 91, 113)" d="M 88.81,109.47 C 88.62,109.53 88.42,109.77 88.39,109.98 88.36,110.2 88.54,110.39 88.74,110.51 89.17,110.71 89.69,110.94 90.12,111.21 90.57,111.48 90.99,111.78 91.4,112.12 91.8,112.47 92.19,112.84 92.46,113.38 92.58,113.65 92.67,114.02 92.52,114.37 92.5,114.41 92.47,114.48 92.46,114.5 92.44,114.53 92.43,114.54 92.4,114.59 92.35,114.66 92.3,114.73 92.24,114.79 92.13,114.91 92.01,115.01 91.88,115.09 91.34,115.42 90.76,115.48 90.22,115.5 89.14,115.48 88.11,115.21 87.15,114.79 L 87.17,114.72 C 88.21,114.76 89.23,114.86 90.2,114.78 90.68,114.75 91.15,114.67 91.52,114.48 91.7,114.38 91.83,114.28 91.93,114.11 92,113.99 92,113.81 91.93,113.61 91.77,113.2 91.43,112.81 91.08,112.47 90.73,112.12 90.33,111.8 89.92,111.51 89.51,111.19 89.09,110.97 88.62,110.68 88.41,110.54 88.17,110.27 88.25,109.96 88.33,109.67 88.53,109.46 88.82,109.4 L 88.81,109.47 Z M 88.81,109.47" />
            <path id="sue06Canvas-bezier97" stroke="none" fill="rgb(51, 91, 113)" d="M 89.32,114.07 C 88.95,113.84 88.53,113.65 88.1,113.55 87.67,113.46 87.19,113.49 86.88,113.79 86.6,114.15 86.17,114.38 85.79,114.61 85.39,114.84 84.99,115.04 84.58,115.24 82.95,116.04 81.28,116.73 79.57,117.34 78.71,117.64 77.85,117.91 76.96,118.14 76.52,118.25 76.07,118.34 75.61,118.41 75.37,118.43 75.14,118.45 74.9,118.45 74.78,118.45 74.63,118.43 74.54,118.42 74.44,118.41 74.34,118.41 74.24,118.41 73.4,118.46 72.56,118.83 71.77,119.21 70.98,119.61 70.21,120.07 69.46,120.56 66.46,122.53 63.69,124.85 60.88,127.1 L 52.48,133.95 52.44,133.9 C 54.99,131.34 57.68,128.91 60.42,126.55 63.18,124.22 66.06,122.01 69.15,120.08 69.92,119.6 70.71,119.14 71.54,118.75 72.37,118.37 73.24,117.99 74.22,117.95 74.34,117.94 74.47,117.95 74.59,117.96 74.73,117.98 74.8,117.99 74.91,118 75.12,118.01 75.34,117.99 75.55,117.97 75.99,117.92 76.43,117.83 76.86,117.74 77.73,117.53 78.6,117.28 79.45,117 81.16,116.44 82.85,115.8 84.49,115.05 84.9,114.86 85.3,114.67 85.7,114.46 86.09,114.23 86.49,114.03 86.78,113.69 87.15,113.35 87.69,113.34 88.12,113.45 88.57,113.56 88.98,113.76 89.36,114.01 L 89.32,114.07 Z M 89.32,114.07" />
            <path id="sue06Canvas-bezier98" stroke="none" fill="rgb(51, 91, 113)" d="M 88.56,97.4 C 90.06,97.39 91.56,97.32 93.03,97.07 93.76,96.95 94.46,96.71 95.18,96.5 L 97.34,95.86 C 98.78,95.44 100.23,95.06 101.7,94.74 102.44,94.59 103.18,94.45 103.94,94.37 104.32,94.33 104.7,94.3 105.09,94.31 105.49,94.32 105.89,94.34 106.31,94.53 106.42,94.58 106.52,94.65 106.62,94.74 106.71,94.82 106.8,94.99 106.83,95.05 106.91,95.22 107,95.41 107.06,95.6 107.2,95.98 107.28,96.42 107.17,96.88 107.06,97.34 106.73,97.72 106.38,97.95 106.03,98.19 105.65,98.34 105.28,98.46 103.79,98.9 102.35,99.18 100.87,99.5 L 96.47,100.39 C 95.74,100.53 95.01,100.68 94.28,100.84 93.91,100.92 93.55,101 93.19,101.09 92.84,101.19 92.43,101.25 92.16,101.43 L 92.09,101.4 C 92.41,101.12 92.77,101.03 93.12,100.89 93.48,100.76 93.84,100.64 94.19,100.53 94.91,100.31 95.64,100.1 96.36,99.9 97.81,99.51 99.26,99.16 100.72,98.8 L 102.91,98.3 C 103.63,98.13 104.38,97.98 105.06,97.79 105.73,97.59 106.4,97.27 106.55,96.72 106.62,96.44 106.59,96.11 106.48,95.79 106.43,95.62 106.37,95.47 106.29,95.3 106.25,95.2 106.24,95.2 106.2,95.15 106.17,95.11 106.12,95.07 106.05,95.04 105.5,94.79 104.7,94.84 103.99,94.89 103.26,94.95 102.52,95.07 101.79,95.2 100.33,95.47 98.87,95.83 97.43,96.2 L 95.26,96.77 C 94.54,96.96 93.81,97.19 93.06,97.28 91.56,97.48 90.06,97.51 88.56,97.47 L 88.56,97.4 Z M 88.56,97.4" />
            <path id="sue06Canvas-bezier99" stroke="none" fill="rgb(51, 91, 113)" d="M 55.51,8.16 C 56.34,8.86 57.33,9.39 58.25,10 59.18,10.61 60.1,11.23 60.98,11.91 61.86,12.6 62.71,13.33 63.43,14.2 63.8,14.63 64.13,15.11 64.38,15.63 64.51,15.89 64.61,16.17 64.68,16.46 64.72,16.61 64.74,16.75 64.76,16.9 L 64.81,17.31 C 65.1,19.45 65.79,21.63 65.66,23.92 65.55,26.19 64.85,28.39 63.75,30.32 L 63.68,30.29 C 64.4,28.2 64.96,26.06 64.94,23.9 64.97,21.75 64.46,19.62 64.23,17.37 64.24,16.28 63.74,15.35 63.07,14.49 62.4,13.64 61.6,12.89 60.76,12.19 59.92,11.48 59.03,10.82 58.13,10.18 57.24,9.52 56.28,8.97 55.45,8.21 L 55.51,8.16 Z M 55.51,8.16" />
        </g>
    </g>
</svg>
