<?xml version="1.0" encoding="UTF-8"?>
<!DOCTYPE svg PUBLIC "-//W3C//DTD SVG 1.1//EN" "http://www.w3.org/Graphics/SVG/1.1/DTD/svg11.dtd">
<svg version="1.1" xmlns="http://www.w3.org/2000/svg" xmlns:xlink="http://www.w3.org/1999/xlink" width="169" height="378"  xml:space="preserve" id="sue07Canvas">
    <!-- Generated by PaintCode - http://www.paintcodeapp.com -->
    <g id="sue07Canvas-lines">
        <g id="sue07Canvas-group2">
            <path id="sue07Canvas-bezier" stroke="none" fill="rgb(51, 91, 113)" d="M 61.71,19.58 C 62.58,17.08 63.03,14.48 64.06,11.99 64.32,11.37 64.62,10.75 65.02,10.18 65.4,9.62 65.83,9.06 66.26,8.53 67.13,7.45 68.09,6.43 68.95,5.37 69.16,5.1 69.35,4.85 69.55,4.55 69.64,4.43 69.82,4.24 69.97,4.13 70.14,4.01 70.31,3.9 70.49,3.82 71.21,3.48 71.96,3.32 72.71,3.17 73.46,3.03 74.2,2.93 74.93,2.81 75.29,2.75 75.65,2.69 75.99,2.6 76.16,2.56 76.32,2.51 76.47,2.45 76.55,2.42 76.59,2.4 76.68,2.35 L 76.74,2.31 76.85,2.26 C 76.91,2.24 76.98,2.22 77.05,2.21 77.6,2.12 78.04,2.34 78.37,2.59 78.7,2.85 78.93,3.2 79.01,3.58 79.19,4.37 78.67,5.09 78.09,5.53 76.87,6.43 75.37,6.82 73.91,7.11 L 73.89,7.05 C 74.6,6.83 75.3,6.6 75.96,6.3 76.62,6.01 77.25,5.66 77.75,5.22 78.24,4.79 78.58,4.22 78.42,3.68 78.36,3.42 78.18,3.18 77.94,3.01 77.71,2.84 77.4,2.75 77.2,2.8 77.17,2.81 77.15,2.81 77.13,2.82 77.12,2.82 77.12,2.83 77.11,2.83 L 77.06,2.86 C 76.99,2.9 76.87,2.97 76.78,3 76.58,3.08 76.39,3.15 76.2,3.2 75.82,3.3 75.44,3.36 75.07,3.43 74.32,3.55 73.57,3.64 72.85,3.76 72.13,3.88 71.4,4.02 70.79,4.3 70.63,4.36 70.49,4.45 70.36,4.53 70.23,4.63 70.16,4.69 70.04,4.84 69.86,5.1 69.62,5.4 69.4,5.66 68.5,6.72 67.52,7.71 66.63,8.76 66.18,9.28 65.76,9.81 65.36,10.36 64.96,10.9 64.66,11.49 64.39,12.1 63.29,14.52 62.74,17.11 61.77,19.6 L 61.71,19.58 Z M 61.71,19.58" />
            <path id="sue07Canvas-bezier2" stroke="none" fill="rgb(51, 91, 113)" d="M 73.71,7.79 C 73.51,8.48 73.25,9.16 72.93,9.82 72.76,10.15 72.63,10.51 72.34,10.79 72.19,10.93 72.03,11.07 71.84,11.18 71.65,11.28 71.41,11.37 71.18,11.35 L 71.16,11.29 C 71.44,11.02 71.57,10.73 71.77,10.44 71.94,10.14 72.22,9.89 72.43,9.59 72.85,9.01 73.26,8.39 73.64,7.76 L 73.71,7.79 Z M 73.71,7.79" />
            <path id="sue07Canvas-bezier3" stroke="none" fill="rgb(51, 91, 113)" d="M 73.36,11.58 C 74.3,10.62 75.43,9.8 76.71,9.19 77.34,8.88 78.02,8.64 78.72,8.46 79.41,8.29 80.09,8.09 80.76,7.86 L 84.78,6.48 C 86.14,6.05 87.51,5.59 89.03,5.52 90.44,5.5 91.86,5.23 93.32,5.13 94.05,5.09 94.81,5.05 95.59,5.25 95.97,5.34 96.38,5.54 96.65,5.86 96.91,6.19 97.03,6.57 96.98,6.97 96.92,7.39 96.62,7.73 96.32,7.95 96,8.19 95.66,8.35 95.31,8.49 94.62,8.76 93.9,8.94 93.19,9.07 91.75,9.33 90.3,9.48 88.84,9.53 L 88.93,9.52 C 87.31,10.05 85.69,10.58 84.06,11.07 L 84.03,11.01 C 85.59,10.35 87.16,9.73 88.73,9.11 L 88.76,9.1 88.81,9.1 C 90.23,8.98 91.66,8.8 93.03,8.5 93.71,8.34 94.39,8.17 95.01,7.92 95.61,7.68 96.22,7.32 96.28,6.89 96.31,6.66 96.23,6.4 96.09,6.21 95.94,6.02 95.69,5.88 95.39,5.8 94.78,5.63 94.06,5.63 93.36,5.66 91.95,5.72 90.52,5.96 89.04,5.96 87.66,5.99 86.27,6.41 84.93,6.81 83.57,7.23 82.23,7.71 80.87,8.12 79.51,8.58 78.05,8.74 76.79,9.34 75.53,9.91 74.37,10.69 73.41,11.62 L 73.36,11.58 Z M 73.36,11.58" />
            <path id="sue07Canvas-bezier4" stroke="none" fill="rgb(51, 91, 113)" d="M 81.98,11.57 C 83.56,11.31 85.13,11.13 86.67,10.77 87.42,10.59 88.21,10.4 88.85,10.05 89.19,9.83 89.6,9.72 89.99,9.63 90.38,9.54 90.78,9.47 91.17,9.42 92.76,9.2 94.36,9.12 95.96,9.11 96.76,9.11 97.56,9.13 98.37,9.19 98.77,9.22 99.17,9.26 99.58,9.34 99.79,9.38 99.99,9.42 100.2,9.5 100.31,9.54 100.42,9.59 100.54,9.69 100.61,9.76 100.68,9.83 100.75,9.91 101.02,10.21 101.24,10.55 101.33,10.94 101.43,11.33 101.32,11.83 100.96,12.14 100.62,12.46 100.18,12.6 99.76,12.7 99.34,12.79 98.93,12.82 98.51,12.84 96.91,12.85 95.36,12.95 93.78,13.12 L 92.58,13.21 C 92.38,13.23 92.17,13.24 91.96,13.24 91.85,13.23 91.74,13.23 91.63,13.22 91.59,13.22 91.48,13.2 91.49,13.2 91.44,13.2 91.39,13.19 91.38,13.2 91.12,13.23 90.71,13.38 90.38,13.52 90.02,13.67 89.67,13.83 89.32,13.99 L 87.23,14.99 C 86.88,15.15 86.52,15.31 86.16,15.46 85.8,15.6 85.44,15.77 85.01,15.8 L 85.01,15.74 C 85.38,15.67 85.73,15.47 86.07,15.3 86.4,15.13 86.74,14.94 87.07,14.75 L 89.08,13.62 C 89.42,13.43 89.77,13.25 90.13,13.09 90.5,12.93 90.82,12.75 91.35,12.68 91.44,12.67 91.48,12.67 91.53,12.67 L 91.69,12.69 C 91.77,12.69 91.87,12.69 91.96,12.69 92.14,12.68 92.33,12.67 92.53,12.65 L 93.7,12.51 C 95.28,12.32 96.91,12.21 98.49,12.24 99.24,12.23 100.06,12.14 100.51,11.77 100.97,11.41 100.75,10.7 100.31,10.21 100.26,10.15 100.2,10.09 100.14,10.02 100.12,10 100.05,9.96 99.98,9.93 99.83,9.87 99.65,9.83 99.47,9.79 99.1,9.71 98.71,9.67 98.32,9.63 97.54,9.55 96.75,9.52 95.96,9.51 94.38,9.49 92.79,9.54 91.22,9.72 90.46,9.83 89.63,9.9 89,10.25 88.28,10.62 87.49,10.78 86.72,10.95 85.16,11.27 83.56,11.41 82.01,11.63 L 81.98,11.57 Z M 81.98,11.57" />
            <path id="sue07Canvas-bezier5" stroke="none" fill="rgb(51, 91, 113)" d="M 84.22,16.13 C 85.64,16.26 87.08,16.36 88.51,16.35 89.22,16.32 89.95,16.35 90.57,16 91.29,15.83 92.01,15.81 92.73,15.77 94.17,15.72 95.61,15.73 97.05,15.78 97.77,15.81 98.48,15.84 99.21,15.91 99.39,15.92 99.57,15.94 99.75,15.97 99.94,16 100.16,16.09 100.3,16.18 100.62,16.37 100.88,16.62 101.09,16.9 101.29,17.17 101.46,17.5 101.44,17.87 101.42,18.26 101.06,18.58 100.69,18.7 99.98,18.95 99.25,19.02 98.53,19.08 97.08,19.18 95.63,19.16 94.19,19.09 92.78,18.92 91.4,19.2 89.99,19.44 88.59,19.7 87.21,20.01 85.84,20.36 85.5,20.45 85.16,20.54 84.83,20.64 84.67,20.69 84.49,20.75 84.36,20.8 84.25,20.86 84.17,20.93 84.11,21.02 84,21.2 84.06,21.34 84.3,21.48 84.53,21.6 84.86,21.68 85.19,21.71 85.86,21.8 86.55,21.73 87.29,21.71 88.02,21.7 88.74,21.7 89.46,21.71 90.9,21.74 92.34,21.81 93.78,21.93 95.22,22.07 96.65,22.18 98.1,22.58 98.28,22.64 98.47,22.7 98.66,22.8 98.75,22.85 98.85,22.92 98.95,23.02 99,23.07 99.04,23.15 99.07,23.23 L 99.1,23.33 C 99.15,23.46 99.23,23.62 99.27,23.81 99.32,23.99 99.31,24.25 99.18,24.46 98.89,24.86 98.49,24.98 98.13,25.1 97.77,25.22 97.41,25.29 97.05,25.36 95.61,25.59 94.16,25.68 92.73,25.72 89.85,25.82 86.97,25.77 84.1,25.68 L 84.1,25.62 C 86.97,25.55 89.84,25.48 92.7,25.3 94.12,25.2 95.55,25.1 96.93,24.84 97.27,24.78 97.6,24.7 97.91,24.59 98.22,24.49 98.52,24.34 98.6,24.19 98.7,24.06 98.6,23.84 98.46,23.51 L 98.42,23.39 C 98.42,23.4 98.42,23.4 98.41,23.39 98.4,23.37 98.35,23.34 98.3,23.31 98.18,23.25 98.03,23.2 97.87,23.15 96.58,22.79 95.12,22.66 93.72,22.53 92.3,22.42 90.87,22.35 89.44,22.31 88.73,22.29 88.02,22.28 87.31,22.29 86.61,22.29 85.86,22.36 85.1,22.25 84.73,22.2 84.34,22.13 83.96,21.92 83.78,21.81 83.6,21.66 83.51,21.43 83.41,21.2 83.47,20.95 83.59,20.77 83.7,20.59 83.9,20.44 84.1,20.35 84.3,20.27 84.46,20.22 84.64,20.17 84.99,20.07 85.34,19.98 85.68,19.89 87.07,19.55 88.47,19.25 89.89,19.01 90.6,18.88 91.31,18.77 92.03,18.7 92.4,18.66 92.76,18.63 93.13,18.63 93.53,18.64 93.86,18.68 94.22,18.7 95.65,18.78 97.08,18.81 98.5,18.73 99.2,18.68 99.92,18.62 100.55,18.4 100.84,18.3 101.06,18.1 101.08,17.85 101.1,17.59 100.97,17.31 100.79,17.06 100.61,16.81 100.38,16.59 100.11,16.42 99.97,16.33 99.86,16.28 99.69,16.25 99.52,16.22 99.35,16.2 99.17,16.18 98.47,16.1 97.75,16.06 97.04,16.02 95.61,15.96 94.17,15.92 92.74,15.96 92.03,15.98 91.3,16 90.63,16.15 90.54,16.17 90.48,16.19 90.41,16.23 90.32,16.28 90.23,16.31 90.14,16.34 89.96,16.39 89.78,16.41 89.6,16.43 89.23,16.46 88.87,16.47 88.51,16.47 87.07,16.46 85.64,16.34 84.21,16.2 L 84.22,16.13 Z M 84.22,16.13" />
            <path id="sue07Canvas-bezier6" stroke="none" fill="rgb(51, 91, 113)" d="M 34.23,48.8 C 32.05,50.23 29.72,51.51 27.18,52.45 25.91,52.92 24.59,53.34 23.21,53.51 21.84,53.68 20.42,53.67 19.08,53.37 L 19.09,53.31 C 20.46,53.28 21.78,53.15 23.09,52.91 24.4,52.67 25.7,52.4 26.97,52 29.5,51.18 31.89,50.03 34.19,48.75 L 34.23,48.8 Z M 34.23,48.8" />
            <path id="sue07Canvas-bezier7" stroke="none" fill="rgb(51, 91, 113)" d="M 83.49,26.07 C 81.63,27.23 79.63,28.24 77.56,29.11 75.48,29.97 73.31,30.67 71.03,31.06 66.46,31.49 62.19,33.02 58.06,34.71 53.93,36.43 49.97,38.44 46.05,40.49 42.15,42.58 38.16,44.57 34.23,46.62 L 34.19,46.57 C 37.91,44.22 41.84,42.16 45.68,39.97 49.58,37.84 53.64,35.94 57.82,34.27 59.91,33.44 62.04,32.67 64.23,32.04 65.33,31.73 66.44,31.45 67.57,31.23 68.13,31.12 68.7,31.03 69.28,30.96 69.84,30.89 70.41,30.84 70.97,30.76 73.21,30.42 75.39,29.76 77.47,28.94 79.55,28.12 81.56,27.15 83.45,26.02 L 83.49,26.07 Z M 83.49,26.07" />
            <path id="sue07Canvas-bezier8" stroke="none" fill="rgb(51, 91, 113)" d="M 36.21,46.4 C 36.04,46.94 35.76,47.48 35.27,47.86 35.02,48.05 34.7,48.17 34.36,48.17 34.03,48.18 33.71,48.09 33.42,47.95 L 33.42,47.95 33.41,47.95 C 32.67,47.48 32.09,46.83 31.7,46.11 31.3,45.39 31.07,44.61 30.95,43.83 30.7,42.25 30.83,40.65 31.09,39.09 31.36,37.52 31.78,35.98 32.29,34.46 32.8,32.94 33.39,31.44 34.09,29.97 L 34.24,30.13 C 29.7,31.37 25.19,32.7 20.79,34.27 18.59,35.06 16.42,35.91 14.33,36.88 12.25,37.86 10.2,38.95 8.52,40.37 L 8.49,40.4 8.45,40.41 7.17,40.89 C 6.74,41.05 6.32,41.2 5.93,41.39 5.13,41.78 4.37,42.23 3.67,42.74 2.27,43.75 1.1,45.06 0.67,46.58 0.24,48.1 0.73,49.72 1.59,51.1 2.46,52.48 3.66,53.75 5.11,54.66 L 5.16,54.7 5.19,54.74 6.39,56.53 6.97,57.42 7.26,57.89 C 7.27,57.9 7.3,57.93 7.31,57.95 L 7.4,58.04 7.59,58.22 C 8.66,59.22 9.79,60.19 10.9,61.16 13.14,63.09 15.4,65 17.68,66.91 19.95,68.8 22.22,70.72 24.59,72.5 24.89,72.72 25.2,72.9 25.52,73.17 25.83,73.41 26.1,73.68 26.35,73.96 26.86,74.5 27.31,75.08 27.74,75.67 28.58,76.86 29.31,78.09 29.98,79.35 31.28,81.87 32.38,84.48 33.03,87.2 33.28,88.56 33.7,89.86 34.17,91.17 34.64,92.48 35.16,93.78 35.68,95.07 36.72,97.67 37.79,100.25 38.76,102.87 39.24,104.18 39.68,105.5 40.06,106.84 40.43,108.18 40.77,109.54 40.77,110.92 L 40.7,110.92 C 40.66,109.55 40.28,108.21 39.87,106.88 39.46,105.56 38.97,104.26 38.46,102.96 37.45,100.36 36.34,97.79 35.26,95.2 34.72,93.91 34.18,92.61 33.69,91.31 33.2,90 32.74,88.65 32.47,87.3 31.8,84.64 30.67,82.07 29.34,79.6 28.68,78.36 27.96,77.15 27.14,75.99 26.73,75.42 26.3,74.86 25.81,74.34 25.57,74.08 25.32,73.83 25.05,73.61 24.8,73.4 24.45,73.19 24.15,72.96 21.74,71.15 19.48,69.24 17.2,67.34 14.93,65.42 12.68,63.49 10.46,61.54 9.34,60.56 8.23,59.59 7.15,58.57 L 6.95,58.37 6.85,58.27 C 6.8,58.21 6.77,58.18 6.73,58.12 L 6.46,57.67 5.88,56.77 4.71,54.99 4.79,55.07 C 3.23,54.07 2.03,52.77 1.12,51.32 0.23,49.87 -0.3,48.14 0.18,46.47 0.66,44.83 1.92,43.47 3.36,42.42 4.09,41.9 4.88,41.44 5.71,41.05 6.12,40.84 6.58,40.68 7,40.53 L 8.28,40.06 8.21,40.1 C 9.96,38.63 12.04,37.55 14.14,36.57 16.26,35.6 18.44,34.76 20.65,33.98 25.08,32.43 29.61,31.13 34.17,29.91 L 34.43,29.84 34.32,30.06 C 33.62,31.51 33.02,33 32.5,34.51 31.98,36.02 31.55,37.55 31.27,39.11 30.99,40.66 30.85,42.25 31.08,43.81 31.3,45.35 31.99,46.94 33.47,47.88 L 33.46,47.88 C 33.74,48.01 34.05,48.1 34.36,48.09 34.67,48.1 34.97,47.98 35.21,47.8 35.69,47.44 35.97,46.91 36.14,46.39 L 36.21,46.4 Z M 36.21,46.4" />
            <path id="sue07Canvas-bezier9" stroke="none" fill="rgb(51, 91, 113)" d="M 61.13,20.76 C 60.61,21.58 59.74,22.16 58.87,22.67 57.99,23.18 57.06,23.62 56.11,24.02 54.2,24.8 52.23,25.46 50.25,26.07 48.27,26.68 46.27,27.28 44.24,27.75 42.21,28.21 40.18,28.67 38.11,29.02 L 38.09,28.96 C 40.05,28.27 42.05,27.73 44.05,27.16 46.05,26.62 48.08,26.16 50.07,25.61 52.07,25.06 54.05,24.46 55.96,23.74 56.92,23.38 57.87,22.99 58.76,22.52 59.64,22.05 60.52,21.51 61.07,20.73 L 61.13,20.76 Z M 61.13,20.76" />
            <path id="sue07Canvas-bezier10" stroke="none" fill="rgb(51, 91, 113)" d="M 44.3,113.88 C 45.47,115.11 46.82,116.18 48.18,117.24 49.55,118.3 50.96,119.31 52.39,120.3 55.24,122.29 58.17,124.2 61.15,126.04 64.14,127.87 67.2,129.62 70.27,131.33 71.8,132.2 73.36,133.02 74.95,133.8 75.74,134.19 76.54,134.56 77.37,134.89 78.19,135.21 79.04,135.54 79.94,135.61 L 79.94,135.67 C 79,135.69 78.11,135.41 77.25,135.14 76.39,134.86 75.55,134.52 74.72,134.17 73.07,133.47 71.48,132.66 69.9,131.85 66.76,130.19 63.78,128.33 60.83,126.43 57.88,124.54 54.99,122.58 52.17,120.54 50.77,119.51 49.38,118.46 48.04,117.38 46.71,116.29 45.38,115.18 44.24,113.92 L 44.3,113.88 Z M 44.3,113.88" />
            <path id="sue07Canvas-bezier11" stroke="none" fill="rgb(51, 91, 113)" d="M 41.57,112.91 C 41.64,113.8 41.87,114.7 42.29,115.52 42.51,115.92 42.78,116.31 43.12,116.64 43.29,116.81 43.47,116.96 43.68,117.09 43.9,117.22 44.09,117.43 44.18,117.64 44.39,118.07 44.42,118.54 44.41,119 44.41,119.45 44.36,119.9 44.3,120.35 44.18,121.26 44.01,122.15 43.87,123.04 43.74,123.94 43.63,124.83 43.63,125.73 43.64,126.62 43.75,127.53 44.23,128.3 44.83,129.04 45.21,129.95 45.36,130.85 45.54,131.76 45.55,132.68 45.47,133.59 45.37,134.5 45.18,135.41 44.83,136.28 44.64,136.71 44.43,137.15 44.09,137.53 43.91,137.72 43.7,137.91 43.38,137.99 43.22,138.03 43.04,138.04 42.88,138 42.9,138 42.83,137.99 42.81,137.99 42.8,137.99 42.8,137.99 42.79,137.99 42.76,138 42.72,138.02 42.68,138.04 42.34,138.25 42.08,138.67 41.86,139.06 41.64,139.46 41.45,139.87 41.27,140.29 40.92,141.14 40.63,142 40.36,142.87 39.83,144.61 39.4,146.37 39.1,148.15 38.96,149.03 38.82,149.95 38.89,150.8 38.9,150.9 38.92,151 38.95,151.08 38.96,151.12 38.98,151.16 38.99,151.16 L 39.11,151.29 C 39.2,151.41 39.33,151.55 39.28,151.81 39.19,152.06 38.97,152.13 38.84,152.18 38.27,152.36 37.78,152.39 37.27,152.49 36.76,152.57 36.27,152.67 35.79,152.8 35.55,152.87 35.32,152.94 35.09,153.03 34.85,153.13 34.84,153.17 34.82,153.29 34.84,153.58 35.19,153.97 35.5,154.28 35.84,154.61 36.21,154.91 36.59,155.21 37.36,155.8 38.17,156.35 38.99,156.9 L 40.23,157.73 C 40.44,157.88 40.64,158.01 40.85,158.2 40.91,158.25 40.96,158.27 41.04,158.41 41.06,158.44 41.07,158.48 41.08,158.52 41.09,158.54 41.08,158.68 41.02,158.74 41.17,158.54 41.03,158.42 40.92,158.33 40.91,158.33 40.89,158.32 40.89,158.32 L 40.94,158.33 C 41.04,158.35 41.17,158.36 41.3,158.38 45.4,158.77 49.55,159.07 53.68,159.48 57.8,159.91 61.92,160.38 66.02,161.03 68.06,161.35 70.1,161.71 72.12,162.15 74.13,162.61 76.15,163.11 78.02,163.91 L 77.99,163.96 C 76.09,163.23 74.07,162.81 72.05,162.42 70.02,162.03 67.98,161.72 65.94,161.44 61.84,160.89 57.72,160.46 53.6,160.09 49.47,159.67 45.35,159.38 41.2,158.97 41.07,158.96 40.94,158.94 40.79,158.91 40.76,158.91 40.72,158.9 40.66,158.88 40.64,158.88 40.61,158.86 40.58,158.85 40.45,158.75 40.3,158.63 40.45,158.41 40.4,158.46 40.39,158.58 40.4,158.59 40.4,158.62 40.41,158.64 40.42,158.66 40.45,158.7 40.4,158.64 40.37,158.61 40.21,158.48 40.01,158.33 39.81,158.19 L 38.59,157.35 C 37.77,156.79 36.96,156.23 36.18,155.61 35.79,155.31 35.41,154.99 35.05,154.63 34.87,154.46 34.7,154.27 34.55,154.06 34.41,153.85 34.25,153.63 34.23,153.3 34.23,153.14 34.3,152.95 34.43,152.82 34.5,152.75 34.57,152.7 34.66,152.66 34.7,152.63 34.72,152.62 34.75,152.61 L 34.81,152.58 34.86,152.57 C 35.11,152.47 35.36,152.39 35.62,152.32 36.13,152.18 36.65,152.09 37.17,152.01 37.67,151.93 38.22,151.88 38.63,151.75 38.73,151.72 38.78,151.66 38.76,151.69 38.76,151.72 38.75,151.64 38.69,151.58 L 38.56,151.44 C 38.49,151.36 38.47,151.29 38.44,151.22 38.4,151.09 38.37,150.96 38.36,150.84 38.29,149.88 38.45,148.99 38.6,148.09 38.92,146.29 39.37,144.52 39.92,142.77 40.2,141.89 40.51,141.02 40.87,140.17 41.06,139.74 41.26,139.32 41.49,138.9 41.74,138.49 41.95,138.07 42.46,137.74 42.54,137.7 42.61,137.67 42.71,137.65 42.76,137.64 42.82,137.64 42.88,137.64 L 43,137.66 C 43.09,137.69 43.18,137.69 43.27,137.66 43.46,137.62 43.63,137.48 43.78,137.32 44.09,136.99 44.3,136.58 44.48,136.17 44.82,135.34 45.02,134.45 45.12,133.57 45.29,131.8 45.16,129.92 43.99,128.42 43.48,127.58 43.39,126.64 43.39,125.73 43.39,124.82 43.52,123.91 43.67,123.02 43.81,122.12 43.99,121.23 44.13,120.34 44.19,119.89 44.25,119.44 44.26,118.99 44.26,118.55 44.24,118.09 44.06,117.69 43.9,117.26 43.35,117.09 43.03,116.71 42.68,116.37 42.41,115.97 42.2,115.55 41.78,114.72 41.56,113.82 41.5,112.91 L 41.57,112.91 Z M 41.57,112.91" />
            <path id="sue07Canvas-bezier12" stroke="none" fill="rgb(51, 91, 113)" d="M 76.98,164.9 C 79.38,164.89 81.79,164.85 84.19,164.75 85.38,164.69 86.58,164.63 87.77,164.52 88.37,164.47 88.96,164.4 89.54,164.31 89.83,164.26 90.12,164.21 90.4,164.13 90.53,164.1 90.67,164.06 90.79,164.01 90.9,163.96 91,163.88 91.01,163.86 91.04,163.76 91.17,163.7 91.28,163.72 91.37,163.74 91.43,163.81 91.44,163.88 L 91.45,163.91 C 91.59,164.67 91.67,165.44 91.68,166.22 91.69,167 91.65,167.76 91.51,168.55 91.49,168.65 91.4,168.73 91.3,168.75 L 91.28,168.75 C 89.09,169.17 86.89,169.52 84.65,169.71 83.54,169.8 82.41,169.87 81.28,169.83 80.15,169.78 78.99,169.74 77.9,169.3 77.82,169.26 77.76,169.2 77.75,169.12 77.68,168.44 77.52,167.73 77.37,167.04 L 76.94,164.94 C 76.94,164.92 76.95,164.9 76.97,164.9 76.97,164.9 76.98,164.9 76.98,164.9 Z M 77.02,164.96 C 77.26,165.63 77.48,166.3 77.69,166.98 77.89,167.67 78.11,168.35 78.25,169.08 L 78.11,168.9 C 79.07,169.23 80.2,169.27 81.29,169.27 82.38,169.25 83.49,169.19 84.58,169.09 86.78,168.9 88.99,168.62 91.16,168.26 L 90.94,168.45 C 91.1,167.74 91.16,166.97 91.17,166.22 91.18,165.47 91.12,164.71 91,163.97 L 91.44,164.01 C 91.31,164.23 91.13,164.29 90.98,164.36 90.83,164.42 90.67,164.46 90.52,164.5 90.22,164.57 89.92,164.62 89.62,164.67 89.01,164.75 88.41,164.81 87.81,164.85 86.61,164.93 85.4,164.97 84.2,164.99 81.8,165.03 79.41,165.02 77.02,164.96 Z M 77.02,164.96" />
            <path id="sue07Canvas-bezier13" stroke="none" fill="rgb(51, 91, 113)" d="M 92.35,162.32 C 93.34,161.76 94.35,161.24 95.41,160.77 95.93,160.54 96.45,160.26 97.03,160.13 97.33,160.06 97.62,160 97.94,159.99 98.24,159.97 98.59,159.96 98.87,160.14 L 98.84,160.19 C 98.29,160.25 97.79,160.52 97.27,160.7 96.75,160.91 96.18,161.03 95.63,161.21 94.55,161.58 93.46,161.97 92.38,162.38 L 92.35,162.32 Z M 92.35,162.32" />
            <path id="sue07Canvas-bezier14" stroke="none" fill="rgb(51, 91, 113)" d="M 93.03,166.72 C 95.66,165.64 98.29,164.57 100.89,163.46 102.18,162.9 103.48,162.31 104.71,161.73 105.04,161.58 105.15,161.46 105.3,161.19 105.43,160.94 105.51,160.64 105.58,160.34 105.71,159.74 105.75,159.11 105.78,158.48 L 105.85,158.47 C 106.02,159.09 106.09,159.73 106.07,160.39 106.05,160.72 106,161.05 105.87,161.38 105.8,161.56 105.72,161.71 105.56,161.89 105.52,161.94 105.4,162.05 105.32,162.1 105.24,162.15 105.16,162.2 105.08,162.25 103.8,162.95 102.46,163.39 101.12,163.9 98.46,164.91 95.77,165.86 93.06,166.77 L 93.03,166.72 Z M 93.03,166.72" />
            <path id="sue07Canvas-bezier15" stroke="none" fill="rgb(51, 91, 113)" d="M 76.97,168.34 C 70.09,167.8 63.22,167.1 56.39,166.17 52.97,165.7 49.56,165.21 46.19,164.48 44.51,164.1 42.84,163.71 41.2,163.21 39.57,162.7 37.92,162.14 36.5,161.26 L 36.54,161.21 C 37.29,161.58 38.08,161.87 38.89,162.12 39.7,162.37 40.52,162.6 41.34,162.8 43,163.21 44.67,163.58 46.35,163.89 49.71,164.54 53.09,165.15 56.48,165.68 59.88,166.21 63.29,166.67 66.71,167.1 70.13,167.53 73.55,167.93 76.98,168.27 L 76.97,168.34 Z M 76.97,168.34" />
            <path id="sue07Canvas-bezier16" stroke="none" fill="rgb(51, 91, 113)" d="M 36.48,160.12 C 36.38,159.61 36.34,159.09 36.39,158.56 36.41,158.3 36.4,158.01 36.58,157.76 36.73,157.52 37.03,157.24 37.41,157.26 L 37.45,157.31 C 37.31,157.57 37.29,157.77 37.22,157.99 37.17,158.21 37.02,158.41 36.94,158.65 36.78,159.12 36.65,159.62 36.55,160.12 L 36.48,160.12 Z M 36.48,160.12" />
            <path id="sue07Canvas-bezier17" stroke="none" fill="rgb(51, 91, 113)" d="M 35.75,161.77 C 33.81,164.39 32.4,167.28 31.27,170.23 30.15,173.18 29.37,176.23 28.92,179.31 28.47,182.39 28.4,185.51 28.52,188.6 28.61,191.71 29.05,194.8 29.6,197.88 L 29.53,197.9 C 28.59,194.88 28.04,191.76 27.82,188.63 27.61,185.5 27.84,182.35 28.37,179.24 28.89,176.14 29.74,173.08 30.94,170.13 32.17,167.19 33.67,164.32 35.69,161.73 L 35.75,161.77 Z M 35.75,161.77" />
            <path id="sue07Canvas-bezier18" stroke="none" fill="rgb(51, 91, 113)" d="M 30.28,198.82 C 30.15,199.19 29.91,199.49 29.73,199.82 29.53,200.13 29.34,200.45 29.2,200.77 29.05,201.09 29.01,201.44 29.01,201.64 29.02,201.74 29.04,201.83 29.16,201.93 29.27,202.03 29.45,202.13 29.65,202.23 L 29.64,202.29 C 29.42,202.35 29.18,202.38 28.93,202.31 28.67,202.25 28.41,202.03 28.33,201.77 28.18,201.25 28.49,200.89 28.69,200.56 28.92,200.23 29.17,199.93 29.44,199.65 29.7,199.36 30.02,199.1 30.21,198.81 L 30.28,198.82 Z M 30.28,198.82" />
            <path id="sue07Canvas-bezier19" stroke="none" fill="rgb(51, 91, 113)" d="M 30.28,203.65 C 30,209.54 29.85,215.45 29.81,221.35 29.76,227.24 29.82,233.15 30.14,239.04 30.3,241.98 30.53,244.92 30.9,247.85 31.06,249.31 31.31,250.76 31.48,252.24 31.66,253.72 31.78,255.2 31.83,256.68 31.91,259.64 31.74,262.62 31.12,265.55 30.48,268.44 29.46,271.38 27.39,273.75 L 27.34,273.72 C 28.31,272.51 28.97,271.14 29.49,269.75 30.01,268.36 30.38,266.92 30.64,265.47 31.15,262.58 31.28,259.63 31.13,256.7 31.08,255.23 30.96,253.77 30.79,252.3 30.63,250.85 30.37,249.38 30.21,247.91 29.89,244.96 29.7,242.01 29.58,239.05 29.34,233.15 29.34,227.24 29.46,221.34 29.6,215.44 29.84,209.54 30.21,203.65 L 30.28,203.65 Z M 30.28,203.65" />
            <path id="sue07Canvas-bezier20" stroke="none" fill="rgb(51, 91, 113)" d="M 26.48,276.13 C 24.88,279.72 23.94,283.5 23.29,287.3 22.66,291.1 22.41,294.95 22.48,298.79 22.56,302.63 22.98,306.46 23.7,310.25 24.43,314.04 25.5,317.76 26.78,321.43 L 26.53,321.23 C 28.67,321.66 30.9,321.85 33.12,321.98 35.33,322.12 37.56,322.18 39.79,322.16 42.01,322.13 44.24,322.05 46.45,321.81 47.55,321.68 48.65,321.53 49.72,321.27 50.25,321.14 50.78,320.99 51.27,320.77 51.75,320.55 52.24,320.25 52.4,319.79 L 52.47,319.81 C 52.32,320.31 51.82,320.64 51.34,320.89 50.85,321.13 50.32,321.31 49.79,321.47 48.72,321.78 47.61,321.98 46.5,322.13 44.28,322.44 42.04,322.6 39.8,322.66 37.56,322.71 35.31,322.7 33.07,322.59 30.83,322.45 28.59,322.26 26.37,321.82 26.25,321.79 26.16,321.71 26.12,321.61 L 26.12,321.61 C 24.81,317.92 23.84,314.14 23.15,310.33 22.47,306.51 22.09,302.65 22.06,298.79 22.03,294.94 22.34,291.07 23.04,287.27 23.75,283.46 24.75,279.68 26.42,276.11 L 26.48,276.13 Z M 26.48,276.13" />
            <path id="sue07Canvas-bezier21" stroke="none" fill="rgb(51, 91, 113)" d="M 52.4,318.34 C 52.52,315.73 52.58,313.12 52.6,310.5 52.63,307.89 52.62,305.28 52.53,302.67 52.45,300.05 52.25,297.46 52.02,294.86 51.93,293.55 51.86,292.24 51.88,290.92 51.89,290.26 51.92,289.6 52,288.95 52.05,288.62 52.11,288.29 52.2,287.97 52.25,287.8 52.3,287.64 52.38,287.49 52.43,287.41 52.48,287.34 52.55,287.27 52.62,287.21 52.75,287.15 52.86,287.21 L 52.82,287.26 C 52.68,287.22 52.57,287.4 52.52,287.54 52.46,287.68 52.42,287.84 52.4,288 52.34,288.32 52.33,288.64 52.32,288.97 52.3,289.61 52.32,290.26 52.36,290.91 52.44,292.21 52.56,293.51 52.71,294.81 53.03,297.41 53.08,300.04 53.09,302.66 53.12,307.9 52.88,313.13 52.47,318.35 L 52.4,318.34 Z M 52.4,318.34" />
            <path id="sue07Canvas-bezier22" stroke="none" fill="rgb(51, 91, 113)" d="M 52.81,284.05 C 53.19,283.25 53.5,282.42 53.74,281.58 53.96,280.75 54.12,279.88 53.98,279.05 53.94,278.84 53.89,278.64 53.8,278.46 53.69,278.26 53.62,277.98 53.65,277.74 53.72,277.25 54,276.85 54.24,276.47 54.75,275.72 55.26,274.98 55.68,274.2 56.53,272.65 57.03,270.99 57.47,269.32 57.93,267.64 58.18,265.93 58.48,264.2 L 58.55,264.21 C 58.65,265.95 58.49,267.71 58.16,269.44 57.8,271.17 57.12,272.86 56.18,274.42 55.72,275.21 55.16,275.95 54.63,276.67 54.38,277.04 54.12,277.41 54.05,277.78 54.02,277.98 54.05,278.14 54.14,278.34 54.24,278.55 54.29,278.78 54.33,279.01 54.43,279.91 54.21,280.79 53.94,281.63 53.66,282.47 53.3,283.29 52.87,284.08 L 52.81,284.05 Z M 52.81,284.05" />
            <path id="sue07Canvas-bezier23" stroke="none" fill="rgb(51, 91, 113)" d="M 59.39,261.81 C 61.05,257.05 62.59,252.26 64.06,247.46 65.53,242.65 66.93,237.83 68.21,232.98 68.84,230.56 69.45,228.13 70.02,225.7 70.61,223.27 71.17,220.83 71.67,218.38 72.74,213.5 73.63,208.59 74.21,203.64 L 74.28,203.65 C 74.1,208.63 73.3,213.58 72.36,218.49 71.85,220.94 71.29,223.39 70.7,225.82 70.08,228.25 69.43,230.68 68.75,233.1 66.04,242.77 62.93,252.35 59.46,261.83 L 59.39,261.81 Z M 59.39,261.81" />
            <path id="sue07Canvas-bezier24" stroke="none" fill="rgb(51, 91, 113)" d="M 76.95,199.66 C 77.25,198.92 77.81,198.25 78.54,197.74 78.9,197.48 79.28,197.21 79.74,197.11 80.2,197 80.68,196.96 81.15,197.07 L 81.16,197.13 C 80.75,197.35 80.37,197.51 79.99,197.67 79.63,197.85 79.22,197.94 78.86,198.13 78.49,198.32 78.15,198.55 77.84,198.81 77.53,199.07 77.24,199.36 77.01,199.69 L 76.95,199.66 Z M 76.95,199.66" />
            <path id="sue07Canvas-bezier25" stroke="none" fill="rgb(51, 91, 113)" d="M 105.91,163.93 C 106.7,167.18 107.23,170.48 107.66,173.79 108.06,177.1 108.33,180.42 108.46,183.74 108.59,187.07 108.63,190.41 108.4,193.73 108.15,197.06 107.77,200.37 107.1,203.65 L 107.03,203.64 C 107.31,200.33 107.58,197.02 107.7,193.7 107.84,190.39 107.96,187.07 107.9,183.76 107.84,180.44 107.65,177.12 107.31,173.82 106.98,170.51 106.54,167.21 105.84,163.94 L 105.91,163.93 Z M 105.91,163.93" />
            <path id="sue07Canvas-bezier26" stroke="none" fill="rgb(51, 91, 113)" d="M 59.39,318.35 C 58.02,314.15 57.29,309.8 56.91,305.43 56.57,301.07 56.67,296.67 57.23,292.31 57.5,290.14 57.9,287.97 58.41,285.82 58.54,285.28 58.68,284.75 58.82,284.21 L 59.05,283.42 C 59.11,283.18 59.16,282.91 59.2,282.65 59.36,281.59 59.41,280.5 59.45,279.41 59.62,275.06 59.46,270.69 59.39,266.33 L 59.46,266.32 C 59.93,270.67 60.19,275.04 60.15,279.43 60.12,280.52 60.08,281.62 59.92,282.73 59.88,283.01 59.83,283.28 59.75,283.57 L 59.52,284.36 59.09,285.95 C 58.53,288.07 58.1,290.21 57.78,292.37 57.16,296.69 56.99,301.06 57.26,305.41 57.54,309.76 58.18,314.12 59.46,318.34 L 59.39,318.35 Z M 59.39,318.35" />
            <path id="sue07Canvas-bezier27" stroke="none" fill="rgb(51, 91, 113)" d="M 59.84,319.51 C 64.2,320.07 68.59,320.55 72.99,320.89 75.18,321.05 77.39,321.19 79.59,321.22 80.69,321.24 81.8,321.23 82.89,321.16 83.44,321.13 83.99,321.07 84.52,320.98 85.05,320.89 85.6,320.77 86.01,320.51 L 85.96,320.63 C 85.77,319.81 85.77,319.03 85.73,318.23 85.7,317.44 85.68,316.64 85.67,315.85 85.66,314.26 85.66,312.68 85.67,311.09 L 85.81,301.58 85.98,292.07 86.03,287.32 C 86.02,285.73 86.05,284.15 85.89,282.58 85.76,280.98 85.86,279.38 85.99,277.8 86.13,276.21 86.34,274.63 86.6,273.06 86.74,272.27 86.88,271.48 87.06,270.7 L 87.21,270.11 C 87.27,269.91 87.31,269.72 87.45,269.48 87.61,269.19 87.75,268.78 87.88,268.41 88.4,266.9 88.85,265.37 89.25,263.83 89.43,263.05 89.66,262.3 89.66,261.53 89.73,260.69 89.98,259.9 90.32,259.14 90.68,258.38 91.15,257.66 91.74,257.01 92.02,256.69 92.37,256.38 92.69,256.12 92.96,255.88 93.15,255.57 93.24,255.23 93.42,254.54 93.28,253.76 93.09,253.01 92.89,252.25 92.6,251.51 92.4,250.7 92.35,250.5 92.31,250.29 92.3,250.07 92.29,249.84 92.29,249.59 92.47,249.32 92.58,249.17 92.67,249.12 92.73,249.05 92.78,249 92.85,248.92 92.9,248.85 93.01,248.7 93.11,248.54 93.2,248.37 93.55,247.69 93.76,246.92 93.88,246.17 L 93.88,246.16 C 93.88,246.13 93.89,246.1 93.91,246.07 95.64,242.88 97.11,239.59 98.46,236.25 99.8,232.92 100.98,229.53 102.03,226.11 103.08,222.69 104.01,219.25 104.83,215.78 105.65,212.31 106.43,208.83 107.02,205.33 L 107.09,205.34 C 106.08,212.37 104.51,219.34 102.51,226.22 100.48,233.08 98.04,239.9 94.54,246.33 L 94.57,246.24 C 94.44,247.06 94.23,247.85 93.84,248.62 93.74,248.81 93.62,249 93.48,249.18 93.41,249.27 93.34,249.36 93.25,249.45 93.16,249.54 93.08,249.61 93.06,249.64 92.94,249.81 92.99,250.23 93.08,250.58 93.26,251.33 93.56,252.09 93.76,252.87 93.96,253.66 94.13,254.5 93.91,255.37 93.79,255.8 93.55,256.22 93.18,256.54 92.84,256.82 92.55,257.08 92.27,257.38 91.72,257.98 91.27,258.65 90.94,259.35 90.61,260.06 90.37,260.82 90.3,261.56 90.29,262.38 90.05,263.18 89.86,263.95 89.45,265.5 88.99,267.04 88.45,268.56 88.3,268.95 88.19,269.31 87.96,269.73 87.81,270 87.72,270.43 87.62,270.8 87.44,271.57 87.29,272.35 87.15,273.13 86.88,274.69 86.67,276.26 86.52,277.83 86.38,279.41 86.27,280.99 86.39,282.55 86.55,284.15 86.5,285.73 86.5,287.32 L 86.42,292.08 86.2,301.59 86,311.1 C 85.98,312.68 85.96,314.27 85.96,315.85 85.97,316.64 85.97,317.43 86,318.22 86.04,319.01 86.03,319.82 86.21,320.56 L 86.21,320.58 C 86.22,320.62 86.2,320.66 86.16,320.68 85.67,320.99 85.11,321.09 84.57,321.19 84.02,321.28 83.46,321.33 82.91,321.36 81.8,321.43 80.69,321.42 79.59,321.4 77.38,321.35 75.17,321.21 72.97,321.03 68.57,320.66 64.19,320.16 59.83,319.57 L 59.84,319.51 Z M 59.84,319.51" />
            <path id="sue07Canvas-bezier28" stroke="none" fill="rgb(51, 91, 113)" d="M 28.46,323.17 C 29.63,326.19 30.84,329.21 32.08,332.22 33.32,335.22 34.58,338.22 35.98,341.17 36.33,341.9 36.69,342.63 37.09,343.35 37.28,343.7 37.49,344.05 37.71,344.4 37.93,344.76 38.13,345.13 38.31,345.51 39.02,347.02 39.46,348.59 39.8,350.18 40.1,351.76 40.32,353.36 40.39,354.97 40.42,355.77 40.42,356.58 40.36,357.38 40.33,357.78 40.28,358.19 40.2,358.59 40.11,358.98 40.04,359.39 39.74,359.73 L 39.68,359.69 C 39.92,359.36 39.95,358.95 40,358.56 40.04,358.17 40.05,357.77 40.04,357.38 40.04,356.58 39.99,355.79 39.9,355 39.73,353.42 39.48,351.84 39.11,350.29 38.76,348.74 38.31,347.2 37.67,345.73 37.51,345.37 37.33,345.01 37.13,344.67 36.92,344.31 36.71,343.94 36.52,343.58 36.14,342.84 35.8,342.1 35.46,341.35 34.12,338.37 32.93,335.35 31.75,332.32 30.6,329.28 29.48,326.24 28.39,323.19 L 28.46,323.17 Z M 28.46,323.17" />
            <path id="sue07Canvas-bezier29" stroke="none" fill="rgb(51, 91, 113)" d="M 51.71,323.18 C 51.68,325.81 51.7,328.44 51.75,331.06 51.8,333.69 51.88,336.32 52.03,338.94 52.18,341.56 52.43,344.18 52.7,346.79 52.83,348.09 53.01,349.39 53.24,350.68 53.36,351.33 53.5,351.97 53.68,352.6 53.86,353.23 54.08,353.85 54.44,354.43 L 54.38,354.46 C 53.5,353.36 53.12,352.04 52.76,350.76 52.42,349.47 52.21,348.16 52.01,346.85 51.64,344.23 51.55,341.59 51.47,338.96 51.31,333.69 51.39,328.43 51.64,323.17 L 51.71,323.18 Z M 51.71,323.18" />
            <path id="sue07Canvas-bezier30" stroke="none" fill="rgb(51, 91, 113)" d="M 54.48,356.46 C 56.02,357.56 57.57,358.66 59.14,359.73 60.69,360.82 62.26,361.89 63.86,362.93 64.66,363.44 65.47,363.95 66.29,364.42 66.7,364.66 67.12,364.88 67.53,365.07 67.64,365.12 67.74,365.16 67.83,365.19 67.95,365.23 68.06,365.26 68.19,365.31 68.44,365.4 68.67,365.49 68.9,365.6 69.8,366.05 70.61,366.57 71.39,367.11 L 72.56,367.93 C 72.95,368.19 73.34,368.47 73.79,368.61 L 73.78,368.67 C 73.26,368.62 72.82,368.36 72.38,368.16 71.95,367.93 71.53,367.69 71.11,367.46 70.27,366.99 69.45,366.5 68.58,366.14 68.37,366.05 68.14,365.96 67.93,365.89 67.83,365.85 67.71,365.82 67.59,365.78 67.44,365.74 67.32,365.69 67.2,365.63 66.73,365.42 66.32,365.17 65.9,364.92 65.08,364.4 64.3,363.86 63.52,363.31 60.39,361.13 57.39,358.84 54.43,356.5 L 54.48,356.46 Z M 54.48,356.46" />
            <path id="sue07Canvas-bezier31" stroke="none" fill="rgb(51, 91, 113)" d="M 39.02,361.65 C 38.45,362.78 37.98,363.96 37.66,365.16 37.51,365.77 37.4,366.38 37.39,366.99 37.38,367.6 37.47,368.22 37.64,368.81 37.82,369.4 38.15,369.96 38.65,370.36 39.15,370.78 39.79,371.05 40.45,371.24 41.79,371.62 43.21,371.73 44.63,371.8 46.04,371.87 47.46,371.86 48.88,371.81 49.6,371.79 50.3,371.75 51.05,371.8 51.24,371.82 51.43,371.84 51.63,371.91 51.73,371.95 51.83,371.99 51.92,372.06 51.96,372.1 52.01,372.14 52.04,372.18 L 52.09,372.25 C 52.11,372.28 52.08,372.24 52.09,372.25 L 52.1,372.26 C 52.11,372.27 52.1,372.25 52.1,372.25 52.16,372.29 52.35,372.38 52.5,372.43 L 52.98,372.61 C 55.64,373.45 58.39,374.1 61.14,374.73 63.9,375.34 66.68,375.88 69.47,376.31 72.26,376.75 75.08,377.14 77.89,377.14 78.59,377.14 79.29,377.11 79.96,377.01 80.62,376.91 81.31,376.73 81.7,376.35 81.8,376.26 81.87,376.16 81.92,376.04 81.96,375.93 82.01,375.75 82.05,375.61 82.13,375.32 82.2,375.03 82.25,374.73 82.34,374.14 82.35,373.53 82.2,372.96 82.07,372.38 81.74,371.85 81.3,371.4 80.85,370.95 80.29,370.57 79.7,370.25 78.51,369.6 77.18,369.13 75.86,368.67 L 75.88,368.61 C 77.23,369 78.59,369.41 79.86,370.01 80.49,370.32 81.09,370.69 81.6,371.16 82.1,371.64 82.5,372.22 82.68,372.86 82.87,373.49 82.88,374.15 82.8,374.79 82.76,375.11 82.69,375.42 82.61,375.74 82.56,375.9 82.54,376.02 82.47,376.21 82.41,376.39 82.29,376.56 82.16,376.7 81.57,377.26 80.79,377.43 80.08,377.57 79.35,377.69 78.62,377.73 77.89,377.75 75,377.74 72.16,377.35 69.34,376.91 66.54,376.43 63.76,375.85 61,375.2 58.25,374.54 55.5,373.86 52.82,372.97 L 52.31,372.79 C 52.14,372.71 52,372.67 51.78,372.52 51.77,372.51 51.74,372.48 51.73,372.47 L 51.7,372.43 51.68,372.4 C 51.67,372.38 51.65,372.36 51.63,372.35 51.59,372.31 51.53,372.29 51.46,372.26 51.33,372.21 51.17,372.19 51,372.17 50.33,372.11 49.6,372.15 48.9,372.16 47.47,372.19 46.03,372.19 44.61,372.1 43.18,372.01 41.74,371.88 40.36,371.47 39.68,371.26 39.01,370.97 38.48,370.52 37.95,370.07 37.61,369.47 37.44,368.86 37.27,368.24 37.19,367.62 37.21,366.99 37.24,366.36 37.36,365.74 37.53,365.14 37.87,363.92 38.36,362.75 38.96,361.62 L 39.02,361.65 Z M 39.02,361.65" />
            <path id="sue07Canvas-bezier32" stroke="none" fill="rgb(51, 91, 113)" d="M 74.26,369.74 C 73.14,370.41 71.71,370.54 70.38,370.44 69.7,370.39 69.04,370.26 68.39,370.1 67.74,369.93 67.13,369.7 66.49,369.57 63.92,369.01 61.27,368.69 58.64,368.29 56.01,367.91 53.36,367.55 50.76,366.94 49.47,366.62 48.18,366.27 46.95,365.78 46.33,365.53 45.73,365.26 45.17,364.9 44.64,364.55 44.1,364.09 43.97,363.49 L 44.04,363.47 C 44.27,364.01 44.8,364.39 45.35,364.67 45.91,364.97 46.52,365.19 47.13,365.39 48.37,365.78 49.65,366.09 50.94,366.35 53.52,366.88 56.12,367.37 58.74,367.81 61.36,368.27 63.99,368.65 66.59,369.28 67.24,369.43 67.86,369.69 68.48,369.87 69.1,370.05 69.74,370.19 70.4,370.26 71.69,370.4 73.1,370.31 74.22,369.69 L 74.26,369.74 Z M 74.26,369.74" />
            <path id="sue07Canvas-bezier33" stroke="none" fill="rgb(51, 91, 113)" d="M 61.37,321.4 C 62.39,324.47 63.44,327.53 64.53,330.58 65.62,333.63 66.72,336.68 67.97,339.67 68.29,340.42 68.61,341.16 68.97,341.89 69.15,342.26 69.33,342.61 69.54,342.97 69.74,343.34 69.92,343.72 70.08,344.1 70.71,345.64 71.08,347.23 71.33,348.82 71.56,350.42 71.69,352.03 71.68,353.63 71.67,354.44 71.63,355.24 71.53,356.04 71.48,356.44 71.41,356.84 71.31,357.24 71.2,357.62 71.11,358.04 70.79,358.36 L 70.74,358.32 C 70.99,358 71.04,357.59 71.11,357.21 71.17,356.81 71.2,356.42 71.22,356.02 71.25,355.23 71.24,354.44 71.19,353.64 71.1,352.06 70.93,350.47 70.64,348.91 70.36,347.34 70,345.79 69.43,344.3 69.29,343.93 69.13,343.57 68.94,343.21 68.75,342.85 68.56,342.47 68.39,342.1 68.05,341.35 67.74,340.6 67.45,339.84 66.26,336.81 65.22,333.74 64.2,330.67 63.2,327.59 62.23,324.51 61.31,321.42 L 61.37,321.4 Z M 61.37,321.4" />
            <path id="sue07Canvas-bezier34" stroke="none" fill="rgb(51, 91, 113)" d="M 84.6,322.3 C 84.43,324.93 84.32,327.56 84.24,330.18 84.15,332.81 84.1,335.44 84.12,338.06 84.14,340.69 84.26,343.31 84.4,345.93 84.46,347.24 84.57,348.54 84.74,349.84 84.82,350.49 84.93,351.14 85.08,351.77 85.23,352.41 85.42,353.04 85.75,353.63 L 85.69,353.66 C 84.86,352.53 84.55,351.19 84.26,349.9 83.98,348.6 83.83,347.28 83.7,345.97 83.47,343.33 83.51,340.69 83.56,338.06 83.67,332.8 84.01,327.54 84.53,322.3 L 84.6,322.3 Z M 84.6,322.3" />
            <path id="sue07Canvas-bezier35" stroke="none" fill="rgb(51, 91, 113)" d="M 85.56,355.52 C 87.07,356.66 88.59,357.78 90.12,358.89 91.65,360.01 93.19,361.12 94.76,362.18 95.54,362.71 96.34,363.24 97.15,363.72 97.55,363.97 97.96,364.21 98.37,364.4 98.47,364.45 98.58,364.5 98.67,364.53 98.78,364.57 98.89,364.6 99.02,364.65 99.27,364.75 99.5,364.85 99.72,364.96 100.61,365.43 101.41,365.97 102.17,366.53 L 103.32,367.36 C 103.7,367.64 104.08,367.93 104.53,368.08 L 104.52,368.14 C 104,368.07 103.57,367.8 103.13,367.59 102.71,367.36 102.29,367.11 101.88,366.86 101.06,366.38 100.25,365.87 99.39,365.49 99.18,365.4 98.96,365.3 98.75,365.23 98.65,365.19 98.53,365.15 98.41,365.11 98.27,365.07 98.15,365.01 98.03,364.96 97.56,364.73 97.16,364.47 96.75,364.21 95.94,363.68 95.17,363.13 94.4,362.56 91.34,360.32 88.41,357.96 85.51,355.56 L 85.56,355.52 Z M 85.56,355.52" />
            <path id="sue07Canvas-bezier36" stroke="none" fill="rgb(51, 91, 113)" d="M 83.92,371.92 C 87.23,372.98 90.63,373.81 94.04,374.58 97.45,375.34 100.9,376.02 104.37,376.43 106.11,376.62 107.87,376.77 109.58,376.66 110.43,376.61 111.31,376.49 111.93,376.13 112.08,376.04 112.21,375.93 112.3,375.81 112.39,375.7 112.42,375.56 112.49,375.36 112.6,374.99 112.7,374.64 112.76,374.27 112.89,373.55 112.88,372.81 112.6,372.13 112.34,371.46 111.8,370.88 111.15,370.4 110.5,369.91 109.75,369.52 108.98,369.17 108.2,368.81 107.4,368.5 106.59,368.18 L 106.62,368.12 C 108.29,368.6 109.99,369.12 111.46,370.06 112.19,370.53 112.83,371.18 113.17,371.95 113.52,372.72 113.56,373.56 113.45,374.36 113.39,374.75 113.29,375.15 113.17,375.53 L 113.08,375.82 C 113.04,375.93 112.98,376.04 112.9,376.15 112.76,376.35 112.56,376.52 112.34,376.65 111.47,377.13 110.53,377.2 109.63,377.27 107.82,377.34 106.05,377.15 104.29,376.91 100.79,376.43 97.35,375.7 93.95,374.87 90.55,374.03 87.18,373.11 83.89,371.97 L 83.92,371.92 Z M 83.92,371.92" />
            <path id="sue07Canvas-bezier37" stroke="none" fill="rgb(51, 91, 113)" d="M 69.96,360.38 C 69.78,360.91 69.61,361.43 69.45,361.95 69.36,362.21 69.34,362.48 69.2,362.72 69.05,362.96 68.89,363.19 68.62,363.41 L 68.55,363.39 C 68.45,363.08 68.48,362.8 68.54,362.52 68.59,362.25 68.78,362.02 68.93,361.77 69.21,361.28 69.53,360.81 69.9,360.36 L 69.96,360.38 Z M 69.96,360.38" />
            <path id="sue07Canvas-bezier38" stroke="none" fill="rgb(51, 91, 113)" d="M 104.97,369.21 C 103.82,369.86 102.39,369.96 101.06,369.83 100.39,369.76 99.73,369.63 99.09,369.45 98.44,369.27 97.84,369.02 97.21,368.88 94.65,368.26 92.01,367.89 89.39,367.44 86.77,367 84.13,366.59 81.55,365.92 80.27,365.57 78.99,365.2 77.77,364.68 77.16,364.42 76.56,364.13 76.02,363.77 75.5,363.4 74.98,362.93 74.86,362.33 L 74.93,362.31 C 75.14,362.86 75.66,363.24 76.21,363.54 76.76,363.85 77.36,364.09 77.97,364.3 79.19,364.71 80.46,365.05 81.74,365.33 84.31,365.92 86.9,366.46 89.5,366.96 92.11,367.47 94.73,367.9 97.31,368.59 97.96,368.76 98.57,369.03 99.18,369.22 99.8,369.41 100.44,369.56 101.09,369.65 102.38,369.82 103.79,369.76 104.93,369.16 L 104.97,369.21 Z M 104.97,369.21" />
            <path id="sue07Canvas-bezier39" stroke="none" fill="rgb(51, 91, 113)" d="M 62.73,12.53 C 64.27,7.88 68.14,3.8 73.25,1.76 75.79,0.73 78.57,0.19 81.36,0.04 84.15,-0.12 87,0.23 89.62,1.12 92.25,2 94.63,3.42 96.6,5.18 98.56,6.95 100.07,9.07 101.13,11.34 103.19,15.9 103.29,21.13 101.29,25.66 L 101.23,25.64 C 102.81,21.01 102.56,15.98 100.48,11.57 98.46,7.16 94.53,3.34 89.42,1.55 86.89,0.66 84.12,0.28 81.38,0.41 78.63,0.53 75.9,1.04 73.38,2.02 68.33,3.95 64.42,7.94 62.8,12.55 L 62.73,12.53 Z M 62.73,12.53" />
            <path id="sue07Canvas-bezier40" stroke="none" fill="rgb(51, 91, 113)" d="M 97.09,32.65 C 96.49,32.27 95.73,32.19 95.01,32.23 94.29,32.27 93.57,32.42 92.89,32.63 92.2,32.84 91.57,33.16 90.9,33.41 90.23,33.66 89.57,33.94 88.85,34.17 L 88.81,34.13 C 89.31,33.61 89.92,33.2 90.58,32.87 91.24,32.52 91.99,32.34 92.73,32.17 93.47,32 94.24,31.9 95.01,31.93 95.77,31.97 96.57,32.14 97.13,32.6 L 97.09,32.65 Z M 97.09,32.65" />
            <path id="sue07Canvas-bezier41" stroke="none" fill="rgb(51, 91, 113)" d="M 81.14,31.46 C 80.4,31.2 79.66,30.97 78.92,30.77 78.55,30.66 78.16,30.63 77.82,30.5 77.46,30.37 77.12,30.24 76.75,30.05 L 76.75,29.99 C 77.16,29.84 77.6,29.85 78,29.91 78.42,29.96 78.77,30.16 79.13,30.31 79.85,30.63 80.53,30.99 81.17,31.41 L 81.14,31.46 Z M 81.14,31.46" />
            <path id="sue07Canvas-bezier42" stroke="none" fill="rgb(51, 91, 113)" d="M 86.43,36.74 C 86.26,37.69 86.14,38.64 86.05,39.59 86,40.06 86.03,40.54 85.94,41.01 85.85,41.48 85.75,41.95 85.56,42.42 L 85.49,42.42 C 85.3,41.94 85.25,41.45 85.24,40.96 85.23,40.47 85.39,40 85.49,39.52 85.71,38.57 85.99,37.63 86.36,36.72 L 86.43,36.74 Z M 86.43,36.74" />
            <path id="sue07Canvas-bezier43" stroke="none" fill="rgb(51, 91, 113)" d="M 78.74,46.12 C 79.08,46.03 79.42,45.99 79.77,45.98 79.95,45.98 80.13,45.99 80.31,46.03 80.49,46.08 80.7,46.17 80.8,46.36 80.86,46.45 80.86,46.59 80.87,46.63 80.89,46.68 80.9,46.72 80.94,46.78 81,46.88 81.1,46.98 81.21,47.07 81.44,47.26 81.71,47.4 82,47.5 82.58,47.72 83.19,47.69 83.63,47.48 83.74,47.44 83.85,47.35 84,47.25 84.15,47.16 84.3,47.07 84.46,47 84.63,46.93 84.8,46.86 85,46.83 85.18,46.81 85.45,46.81 85.56,47 L 85.5,47.03 C 85.37,46.97 85.23,47.02 85.1,47.09 84.98,47.16 84.86,47.26 84.75,47.35 84.5,47.55 84.37,47.74 84.01,47.99 83.67,48.21 83.23,48.29 82.83,48.25 82.44,48.22 82.08,48.1 81.75,47.94 81.43,47.79 81.13,47.59 80.88,47.35 80.76,47.23 80.65,47.09 80.57,46.93 80.54,46.85 80.5,46.74 80.5,46.65 80.49,46.55 80.5,46.54 80.48,46.48 80.43,46.3 80.07,46.19 79.76,46.16 79.43,46.13 79.09,46.13 78.76,46.18 L 78.74,46.12 Z M 78.74,46.12" />
            <path id="sue07Canvas-bezier44" stroke="none" fill="rgb(51, 91, 113)" d="M 78.03,43.48 C 77.91,43.93 77.81,44.38 77.75,44.82 77.72,45.04 77.78,45.26 77.73,45.45 77.7,45.64 77.61,45.78 77.68,46.04 L 77.64,46.09 C 77.47,46.09 77.3,45.99 77.2,45.86 77.1,45.73 77.06,45.59 77.03,45.45 76.98,45.18 77.12,44.94 77.21,44.71 77.4,44.25 77.66,43.84 77.97,43.45 L 78.03,43.48 Z M 78.03,43.48" />
            <path id="sue07Canvas-bezier45" stroke="none" fill="rgb(51, 91, 113)" d="M 99.86,26.63 C 100.23,28.01 100.26,29.5 99.7,30.86 99.56,31.2 99.37,31.53 99.16,31.83 98.96,32.14 98.79,32.45 98.62,32.78 98.3,33.42 98.03,34.09 97.81,34.76 97.37,36.11 97.01,37.51 96.98,38.89 97.02,39.61 96.86,40.35 96.65,41.05 96.44,41.74 96.15,42.42 95.8,43.08 95.11,44.39 94.18,45.62 93.03,46.67 92.46,47.19 91.81,47.68 91.16,48.1 90.53,48.52 89.94,48.99 89.4,49.5 87.19,51.52 85.49,53.96 84.02,56.48 L 83.95,56.46 C 85.07,53.79 86.69,51.25 88.89,49.08 89.45,48.55 90.05,48.05 90.72,47.6 91.37,47.18 91.98,46.75 92.54,46.25 93.66,45.27 94.59,44.12 95.3,42.87 95.65,42.25 95.94,41.59 96.16,40.93 96.38,40.25 96.55,39.58 96.52,38.89 96.59,37.43 96.99,36.04 97.47,34.67 97.73,33.99 98.02,33.32 98.37,32.67 98.54,32.35 98.74,32.03 98.95,31.72 99.17,31.42 99.36,31.12 99.51,30.8 100.09,29.49 100.12,28.02 99.79,26.65 L 99.86,26.63 Z M 99.86,26.63" />
            <path id="sue07Canvas-bezier46" stroke="none" fill="rgb(51, 91, 113)" d="M 83.5,56.98 C 82.58,58.32 81.36,59.54 79.81,60.37 79.04,60.78 78.16,61.07 77.24,61.14 76.31,61.22 75.4,61.03 74.54,60.78 72.81,60.25 71.29,59.32 69.98,58.23 68.67,57.13 67.56,55.86 66.64,54.5 65.71,53.14 64.98,51.68 64.41,50.19 63.84,48.71 63.27,47.22 62.88,45.67 62.5,44.12 62.39,42.51 62.56,40.94 62.72,39.37 63.07,37.83 63.5,36.31 L 63.56,36.32 C 63.11,39.41 62.65,42.55 63.56,45.54 63.96,47.04 64.54,48.51 65.07,50 65.59,51.48 66.26,52.91 67.13,54.26 68,55.6 69.05,56.86 70.3,57.95 71.55,59.03 73.01,59.96 74.66,60.49 75.48,60.75 76.35,60.95 77.22,60.89 78.09,60.85 78.94,60.59 79.71,60.21 81.24,59.44 82.49,58.26 83.44,56.95 L 83.5,56.98 Z M 83.5,56.98" />
            <path id="sue07Canvas-bezier47" stroke="none" fill="rgb(51, 91, 113)" d="M 73.12,49.84 C 75.13,49.91 77.14,50.05 79.13,50.26 80.13,50.36 81.14,50.44 82.12,50.65 83.1,50.86 84.08,51.11 85,51.49 L 84.98,51.55 C 83.97,51.49 82.98,51.37 81.99,51.25 81,51.12 80.03,50.91 79.05,50.75 77.08,50.43 75.1,50.15 73.12,49.9 L 73.12,49.84 Z M 73.12,49.84" />
            <path id="sue07Canvas-bezier48" stroke="none" fill="rgb(51, 91, 113)" d="M 72.91,50.68 C 73.52,51.53 74.24,52.32 75.05,53.02 75.86,53.71 76.79,54.33 77.83,54.61 78.88,54.91 79.96,54.73 80.89,54.27 81.84,53.82 82.64,53.1 83.44,52.37 L 83.5,52.4 C 83.01,53.32 82.29,54.19 81.25,54.79 80.73,55.08 80.12,55.29 79.48,55.32 78.85,55.37 78.22,55.27 77.65,55.07 76.5,54.68 75.58,53.98 74.8,53.23 74.03,52.45 73.38,51.61 72.84,50.71 L 72.91,50.68 Z M 72.91,50.68" />
            <path id="sue07Canvas-bezier49" stroke="none" fill="rgb(51, 91, 113)" d="M 73.89,55.03 C 74.32,55.64 74.96,56.12 75.62,56.53 76.27,56.94 77.02,57.24 77.78,57.33 78.56,57.43 79.29,57.23 79.97,56.95 80.66,56.66 81.28,56.21 81.93,55.74 L 81.98,55.78 C 81.63,56.45 81.07,57.06 80.3,57.48 79.54,57.91 78.54,57.99 77.68,57.81 76.81,57.64 76.05,57.24 75.4,56.77 74.77,56.28 74.19,55.72 73.83,55.06 L 73.89,55.03 Z M 73.89,55.03" />
            <path id="sue07Canvas-bezier50" stroke="none" fill="rgb(51, 91, 113)" d="M 72.91,34.7 C 73.19,35.16 73.65,35.5 74.16,35.74 74.66,35.99 75.22,36.12 75.78,36.16 76.35,36.21 76.92,36.12 77.49,36.1 78.07,36.07 78.65,36.01 79.28,36.01 L 79.31,36.07 C 78.79,36.39 78.2,36.59 77.59,36.7 76.97,36.82 76.32,36.76 75.7,36.64 75.08,36.53 74.48,36.32 73.97,35.99 73.47,35.66 73.05,35.23 72.84,34.72 L 72.91,34.7 Z M 72.91,34.7" />
            <path id="sue07Canvas-bezier51" stroke="none" fill="rgb(51, 91, 113)" d="M 89.27,37.83 C 89.63,38.04 90.02,38.21 90.41,38.33 90.8,38.46 91.21,38.55 91.6,38.56 92,38.57 92.34,38.44 92.67,38.34 93.01,38.24 93.34,38.05 93.74,37.84 L 93.8,37.87 C 93.71,38.28 93.42,38.65 92.99,38.89 92.55,39.13 91.99,39.12 91.54,39.04 90.6,38.88 89.84,38.42 89.23,37.88 L 89.27,37.83 Z M 89.27,37.83" />
            <path id="sue07Canvas-bezier52" stroke="none" fill="rgb(51, 91, 113)" d="M 60.52,35.26 C 60.69,35.56 60.63,35.89 60.6,36.2 60.56,36.51 60.5,36.82 60.44,37.13 60.3,37.74 60.14,38.35 59.99,38.96 59.68,40.18 59.37,41.4 59.14,42.63 58.91,43.86 58.74,45.09 58.74,46.33 58.74,47.56 58.9,48.82 59.5,49.93 59.79,50.48 60.21,50.96 60.74,51.37 61.28,51.83 61.64,52.46 61.71,53.13 61.79,53.79 61.64,54.43 61.43,55.04 61.21,55.65 60.92,56.23 60.61,56.8 59.99,57.94 59.28,59.02 58.65,60.13 58.02,61.24 57.43,62.38 57.17,63.57 56.9,64.75 57.08,66 57.87,66.96 58.25,67.45 58.76,67.83 59.3,68.26 59.84,68.68 60.37,69.11 60.88,69.55 62.91,71.33 64.81,73.27 66.24,75.48 66.94,76.59 67.51,77.78 67.84,79.03 68.16,80.27 68.24,81.59 67.9,82.84 67.58,84.1 66.89,85.26 65.98,86.25 65.07,87.23 63.96,88.06 62.78,88.77 L 62.74,88.72 C 64.98,87.21 66.92,85.18 67.42,82.76 67.95,80.34 67.04,77.88 65.63,75.78 64.25,73.63 62.39,71.73 60.39,69.98 59.89,69.53 59.38,69.1 58.86,68.68 58.35,68.27 57.76,67.82 57.35,67.27 56.93,66.72 56.64,66.08 56.53,65.43 56.42,64.77 56.48,64.11 56.62,63.48 56.92,62.21 57.54,61.05 58.19,59.94 58.85,58.82 59.58,57.74 60.21,56.63 60.81,55.53 61.42,54.35 61.31,53.16 61.26,52.57 60.95,52.02 60.48,51.61 59.94,51.18 59.48,50.64 59.18,50.05 58.57,48.88 58.44,47.58 58.46,46.33 58.48,45.07 58.68,43.83 58.93,42.6 59.19,41.37 59.52,40.15 59.85,38.93 60.02,38.33 60.19,37.72 60.33,37.11 60.41,36.81 60.47,36.5 60.52,36.19 60.55,35.89 60.61,35.56 60.46,35.29 L 60.52,35.26 Z M 60.52,35.26" />
            <path id="sue07Canvas-bezier53" stroke="none" fill="rgb(51, 91, 113)" d="M 57.95,38.34 C 57.23,40.36 56.61,42.4 56.24,44.48 56.08,45.52 55.93,46.59 56.17,47.59 56.24,47.83 56.35,48.07 56.53,48.24 56.74,48.44 56.91,48.71 57.01,48.96 57.23,49.49 57.29,50.03 57.31,50.56 57.34,51.64 57.18,52.7 56.94,53.75 56.68,54.79 56.38,55.82 55.79,56.8 55.71,56.92 55.62,57.04 55.5,57.16 55.44,57.22 55.38,57.28 55.28,57.33 55.26,57.34 55.21,57.37 55.2,57.38 L 55.15,57.42 C 54.97,57.58 54.81,57.81 54.66,58.03 54.37,58.47 54.12,58.94 53.89,59.42 53.45,60.39 53.1,61.39 52.87,62.41 52.41,64.45 52.39,66.59 53.14,68.53 53.5,69.5 54.08,70.4 54.81,71.19 55.18,71.59 55.59,71.95 56.03,72.28 56.46,72.61 56.98,72.91 57.45,73.28 58.36,74.01 59.22,74.97 59.32,76.15 59.43,77.33 58.72,78.39 57.87,79.16 56.14,80.73 53.92,81.73 51.67,82.51 L 51.65,82.45 C 52.75,82 53.8,81.48 54.8,80.9 55.79,80.31 56.74,79.66 57.51,78.88 58.26,78.11 58.85,77.16 58.72,76.19 58.61,75.23 57.86,74.39 56.99,73.74 56.56,73.4 56.06,73.12 55.57,72.75 55.09,72.4 54.65,72.01 54.25,71.59 53.46,70.74 52.86,69.76 52.48,68.72 51.73,66.63 51.81,64.4 52.32,62.31 52.58,61.27 52.95,60.24 53.42,59.26 53.67,58.76 53.93,58.28 54.25,57.81 54.41,57.58 54.58,57.35 54.82,57.13 54.85,57.11 54.89,57.08 54.93,57.04 54.98,57.01 55,57.01 55.04,56.98 55.07,56.97 55.12,56.93 55.16,56.89 55.24,56.81 55.32,56.71 55.4,56.6 55.95,55.72 56.28,54.68 56.55,53.67 56.8,52.65 56.97,51.61 56.96,50.57 56.95,50.05 56.9,49.53 56.72,49.06 56.62,48.81 56.5,48.61 56.3,48.41 56.08,48.19 55.97,47.91 55.9,47.64 55.67,46.56 55.85,45.5 56.04,44.45 56.46,42.37 57.12,40.33 57.88,38.33 L 57.95,38.34 Z M 57.95,38.34" />
            <path id="sue07Canvas-bezier54" stroke="none" fill="rgb(51, 91, 113)" d="M 62.78,53.39 C 64.16,54.36 65.18,55.81 65.26,57.46 65.3,58.27 65.05,59.14 64.43,59.78 63.82,60.42 62.99,60.85 62.12,61.05 L 62.09,61 C 62.78,60.51 63.42,60.01 63.87,59.42 64.33,58.84 64.66,58.18 64.7,57.45 64.74,56.73 64.54,55.99 64.2,55.3 63.85,54.62 63.37,53.97 62.74,53.44 L 62.78,53.39 Z M 62.78,53.39" />
            <path id="sue07Canvas-bezier55" stroke="none" fill="rgb(51, 91, 113)" d="M 89.28,51.51 C 89.59,51.92 89.6,52.45 89.48,52.91 89.35,53.38 89.13,53.82 88.88,54.24 88.38,55.09 87.78,55.89 87.25,56.7 86.98,57.11 86.73,57.52 86.54,57.95 86.35,58.37 86.21,58.82 86.32,59.22 86.41,59.61 86.8,59.89 87.26,60.05 87.48,60.14 87.74,60.19 88.02,60.29 88.29,60.38 88.55,60.49 88.79,60.63 89.77,61.17 90.47,62.02 90.94,62.91 91.41,63.81 91.65,64.78 91.71,65.75 91.75,66.73 91.64,67.72 91.23,68.64 91.02,69.1 90.75,69.54 90.34,69.9 89.94,70.25 89.39,70.5 88.83,70.5 L 88.83,70.44 C 89.35,70.34 89.8,70.08 90.11,69.71 90.42,69.36 90.63,68.94 90.77,68.51 91.05,67.63 91.12,66.7 91.02,65.79 90.93,64.89 90.7,63.98 90.31,63.15 89.91,62.32 89.32,61.54 88.48,61.03 88.05,60.76 87.62,60.65 87.05,60.46 86.53,60.26 85.98,59.86 85.87,59.3 85.76,58.76 85.95,58.26 86.16,57.81 86.39,57.37 86.67,56.95 86.95,56.55 87.53,55.74 88.17,54.97 88.7,54.16 88.96,53.75 89.2,53.33 89.34,52.88 89.48,52.44 89.5,51.94 89.22,51.54 L 89.28,51.51 Z M 89.28,51.51" />
            <path id="sue07Canvas-bezier56" stroke="none" fill="rgb(51, 91, 113)" d="M 91.41,53.39 C 93.47,54.63 95.74,55.7 98.18,56.19 98.8,56.31 99.42,56.37 100.04,56.36 L 101.93,56.31 C 103.2,56.29 104.47,56.33 105.74,56.49 108.25,56.8 110.76,57.63 112.68,59.14 114.63,60.64 115.9,62.69 116.64,64.81 117.42,66.95 117.62,69.18 117.88,71.37 118.11,73.57 118.25,75.77 118.27,77.98 118.28,80.19 118.22,82.4 118.02,84.6 117.93,85.7 117.8,86.79 117.66,87.89 117.52,88.98 117.29,90.07 117.24,91.16 L 117.17,91.17 C 117.19,88.95 117.48,86.77 117.54,84.57 117.63,82.38 117.66,80.18 117.58,77.99 117.52,75.8 117.38,73.61 117.19,71.42 116.98,69.23 116.81,67.04 116.1,64.95 115.42,62.88 114.22,60.89 112.38,59.44 110.55,57.97 108.15,57.12 105.68,56.79 104.45,56.62 103.19,56.56 101.93,56.56 L 100.04,56.57 C 99.39,56.57 98.76,56.5 98.13,56.37 95.65,55.83 93.41,54.72 91.36,53.44 L 91.41,53.39 Z M 91.41,53.39" />
            <path id="sue07Canvas-bezier57" stroke="none" fill="rgb(51, 91, 113)" d="M 112.19,77.7 C 112.08,79.42 111.32,81.07 111.46,82.77 111.5,83.2 111.61,83.61 111.82,83.99 112.01,84.39 112.16,84.8 112.31,85.21 112.61,86.02 112.87,86.85 113.12,87.68 114.06,91.01 114.81,94.39 114.97,97.83 115,98.7 115,99.56 114.87,100.42 114.74,101.29 114.47,102.12 114.16,102.94 113.52,104.58 112.71,106.15 111.87,107.7 110.18,110.79 108.23,113.78 106.61,116.88 106.23,117.66 105.84,118.45 105.65,119.24 105.49,120.06 105.45,120.9 105.48,121.75 105.5,122.59 105.59,123.43 105.67,124.29 105.71,124.72 105.74,125.16 105.73,125.6 105.7,126.05 105.68,126.53 105.34,127 105.25,127.11 105.14,127.21 105.01,127.3 L 104.87,127.4 104.77,127.48 C 104.62,127.62 104.48,127.78 104.35,127.94 104.08,128.28 103.85,128.64 103.65,129.02 103.24,129.77 102.93,130.56 102.75,131.37 102.58,132.17 102.55,133.02 102.87,133.73 102.95,133.91 103.05,134.07 103.18,134.22 103.29,134.35 103.5,134.51 103.66,134.74 103.96,135.17 104.09,135.61 104.2,136.04 104.56,137.79 104.48,139.52 104.45,141.23 104.39,142.94 104.28,144.66 104.32,146.35 104.36,147.2 104.37,148.04 104.84,148.78 105.22,149.59 105.49,150.42 105.73,151.25 106.17,152.93 106.55,154.61 106.72,156.33 L 106.65,156.33 C 106.4,154.64 105.94,152.97 105.42,151.32 105.15,150.5 104.86,149.69 104.47,148.92 104.38,148.73 104.25,148.55 104.16,148.32 104.08,148.1 104.02,147.89 103.98,147.67 103.9,147.23 103.86,146.8 103.83,146.37 103.73,144.64 103.83,142.93 103.84,141.22 103.85,139.52 103.89,137.79 103.52,136.17 103.42,135.77 103.29,135.37 103.07,135.06 102.98,134.92 102.81,134.8 102.62,134.59 102.46,134.4 102.32,134.18 102.22,133.96 101.82,133.06 101.89,132.13 102.07,131.26 102.26,130.39 102.59,129.55 103.02,128.76 103.24,128.36 103.49,127.97 103.78,127.6 103.93,127.42 104.09,127.23 104.28,127.06 L 104.44,126.93 104.59,126.82 C 104.66,126.77 104.72,126.73 104.77,126.66 104.97,126.4 105.04,125.99 105.05,125.59 105.07,125.18 105.04,124.76 105.01,124.33 104.95,123.48 104.86,122.62 104.85,121.76 104.84,120.89 104.88,120.01 105.07,119.14 105.3,118.26 105.7,117.47 106.1,116.68 107.77,113.56 109.74,110.6 111.46,107.52 112.32,105.99 113.14,104.44 113.77,102.83 114.09,102.03 114.36,101.21 114.5,100.38 114.63,99.55 114.64,98.69 114.62,97.84 114.51,94.44 113.81,91.05 112.91,87.73 112.68,86.9 112.43,86.07 112.15,85.25 112,84.84 111.86,84.44 111.67,84.04 111.46,83.65 111.35,83.21 111.32,82.78 111.21,81.04 111.99,79.4 112.12,77.7 L 112.19,77.7 Z M 112.19,77.7" />
            <path id="sue07Canvas-bezier58" stroke="none" fill="rgb(51, 91, 113)" d="M 116.94,115.82 C 117.11,111.92 117.26,108.02 117.34,104.13 117.38,102.18 117.35,100.23 117.4,98.28 117.44,97.31 117.45,96.34 117.45,95.37 117.46,94.88 117.45,94.4 117.43,93.91 117.42,93.43 117.39,92.94 117.29,92.47 L 117.36,92.45 C 117.74,93.39 117.83,94.38 117.94,95.35 118.04,96.33 118.07,97.31 118.1,98.28 118.14,100.24 118.01,102.19 117.9,104.14 117.69,108.04 117.39,111.94 117.01,115.82 L 116.94,115.82 Z M 116.94,115.82" />
            <path id="sue07Canvas-bezier59" stroke="none" fill="rgb(51, 91, 113)" d="M 109.47,128.53 C 109.23,127.02 109.16,125.49 109.28,123.96 109.42,122.44 109.74,120.89 110.61,119.49 111.05,118.81 111.65,118.16 112.44,117.71 112.63,117.6 112.84,117.5 113.05,117.41 L 113.63,117.17 C 114.02,117.01 114.41,116.85 114.79,116.67 115.56,116.35 116.32,115.98 116.98,115.54 117.32,115.32 117.62,115.07 117.84,114.77 118.07,114.47 118.16,114.1 118.25,113.73 L 118.32,113.73 C 118.34,114.11 118.31,114.52 118.12,114.9 117.93,115.27 117.63,115.58 117.3,115.86 116.65,116.41 115.88,116.82 115.12,117.21 114.73,117.39 114.34,117.57 113.94,117.74 113.54,117.91 113.14,118.04 112.81,118.22 112.11,118.58 111.54,119.12 111.1,119.74 110.23,121 109.84,122.5 109.63,123.99 109.42,125.48 109.4,127.01 109.54,128.52 L 109.47,128.53 Z M 109.47,128.53" />
            <path id="sue07Canvas-bezier60" stroke="none" fill="rgb(51, 91, 113)" d="M 121.02,125.57 C 120.21,122.63 119.54,119.66 119.29,116.62 119.22,115.87 119.19,115.1 119.24,114.33 119.28,113.94 119.32,113.55 119.43,113.16 119.49,112.96 119.56,112.77 119.66,112.57 119.71,112.48 119.76,112.38 119.83,112.29 L 119.99,112.05 C 120.45,111.42 120.87,110.76 121.26,110.1 121.46,109.77 121.64,109.44 121.8,109.09 121.96,108.75 122.12,108.39 122.11,108.03 L 122.18,108.02 C 122.31,108.41 122.18,108.8 122.11,109.18 122,109.55 121.86,109.91 121.71,110.28 121.4,111 121,111.68 120.6,112.35 L 120.44,112.6 C 120.39,112.67 120.35,112.74 120.31,112.82 120.24,112.97 120.18,113.14 120.14,113.31 120.04,113.65 119.97,114.01 119.93,114.38 119.84,115.11 119.83,115.86 119.84,116.6 119.89,118.1 120.07,119.6 120.29,121.09 120.51,122.58 120.77,124.08 121.09,125.56 L 121.02,125.57 Z M 121.02,125.57" />
            <path id="sue07Canvas-bezier61" stroke="none" fill="rgb(51, 91, 113)" d="M 126.23,117.49 C 125.83,115.32 125.39,113.16 124.86,111.02 124.59,109.95 124.31,108.88 123.95,107.84 123.86,107.58 123.76,107.32 123.65,107.07 123.54,106.84 123.41,106.53 123.37,106.25 123.27,105.67 123.29,105.11 123.33,104.55 123.56,102.32 124.2,100.17 125.04,98.09 125.48,97.05 125.95,96.02 126.5,95.03 126.78,94.53 127.07,94.04 127.4,93.56 127.57,93.33 127.74,93.09 127.94,92.87 128.13,92.65 128.33,92.42 128.63,92.28 L 128.66,92.33 C 128.21,92.69 127.95,93.21 127.68,93.69 127.41,94.18 127.17,94.69 126.95,95.2 126.5,96.21 126.07,97.24 125.7,98.28 124.96,100.36 124.19,102.45 123.89,104.59 123.83,105.13 123.79,105.67 123.87,106.18 123.9,106.44 123.98,106.65 124.1,106.93 124.21,107.2 124.3,107.46 124.38,107.73 124.72,108.8 124.97,109.88 125.2,110.96 125.64,113.13 125.99,115.3 126.3,117.48 L 126.23,117.49 Z M 126.23,117.49" />
            <path id="sue07Canvas-bezier62" stroke="none" fill="rgb(51, 91, 113)" d="M 129.4,94.56 C 130.54,96.36 131.73,98.13 132.96,99.88 134.19,101.63 135.46,103.36 136.9,104.96 137.26,105.36 137.64,105.75 138.04,106.1 138.25,106.27 138.46,106.44 138.67,106.58 138.88,106.72 139.13,106.83 139.29,106.84 139.57,106.86 139.88,106.44 140,106 140.14,105.55 140.19,105.05 140.2,104.55 140.27,102.54 139.9,100.5 139.59,98.47 L 139.66,98.45 C 140.36,100.42 140.84,102.45 140.9,104.56 140.9,105.09 140.86,105.62 140.7,106.16 140.62,106.43 140.49,106.71 140.28,106.96 140.07,107.2 139.71,107.49 139.22,107.44 138.8,107.38 138.53,107.2 138.27,107.03 138.02,106.86 137.8,106.67 137.59,106.48 137.18,106.09 136.81,105.68 136.45,105.26 135.04,103.59 133.83,101.82 132.66,100.03 131.5,98.24 130.4,96.42 129.34,94.59 L 129.4,94.56 Z M 129.4,94.56" />
            <path id="sue07Canvas-bezier63" stroke="none" fill="rgb(51, 91, 113)" d="M 137.59,104.23 C 138.06,101.62 138.64,99.02 139.35,96.44 139.7,95.15 140.05,93.86 140.6,92.61 140.89,91.99 141.18,91.37 141.56,90.78 141.94,90.21 142.35,89.57 143.08,89.26 L 143.12,89.32 C 142.82,89.51 142.63,89.79 142.46,90.08 142.28,90.36 142.13,90.66 142,90.96 141.72,91.57 141.47,92.18 141.26,92.81 140.81,94.06 140.31,95.3 139.89,96.57 139.06,99.1 138.33,101.67 137.65,104.25 L 137.59,104.23 Z M 137.59,104.23" />
            <path id="sue07Canvas-bezier64" stroke="none" fill="rgb(51, 91, 113)" d="M 145.32,88.71 L 151.32,87.36 154.33,86.71 155.08,86.55 C 155.13,86.54 155.13,86.54 155.16,86.53 155.19,86.53 155.23,86.52 155.25,86.51 155.29,86.49 155.33,86.48 155.38,86.45 155.48,86.41 155.57,86.35 155.67,86.29 156.04,86.02 156.36,85.68 156.66,85.33 157.84,83.9 158.72,82.27 159.72,80.7 160.24,79.92 160.72,79.13 161.25,78.35 161.52,77.97 161.79,77.58 162.08,77.2 162.4,76.84 162.66,76.43 163.13,76.18 L 163.17,76.23 C 162.81,76.53 162.59,76.95 162.36,77.34 162.12,77.74 161.9,78.15 161.68,78.55 L 160.34,80.98 C 159.41,82.59 158.39,84.17 157.1,85.63 156.77,85.99 156.42,86.34 155.98,86.64 155.86,86.71 155.74,86.78 155.61,86.83 155.55,86.86 155.47,86.89 155.39,86.92 155.35,86.93 155.33,86.93 155.29,86.94 155.26,86.95 155.21,86.96 155.19,86.96 L 154.43,87.1 151.4,87.66 145.34,88.77 145.32,88.71 Z M 145.32,88.71" />
            <path id="sue07Canvas-bezier65" stroke="none" fill="rgb(51, 91, 113)" d="M 156.33,80.56 C 158.06,78.96 159.82,77.38 161.64,75.84 162.57,75.09 163.48,74.33 164.52,73.65 164.77,73.5 165.08,73.32 165.4,73.23 165.66,73.14 165.92,73.01 166.14,72.85 166.58,72.54 166.96,72.06 166.94,71.65 166.92,71.46 166.82,71.38 166.57,71.35 166.31,71.32 166.02,71.34 165.73,71.39 165.15,71.48 164.58,71.68 164.03,71.91 162.94,72.38 161.92,73.01 160.97,73.7 159.02,75.06 157.33,76.69 155.65,78.34 L 155.6,78.3 C 156.96,76.44 158.6,74.72 160.52,73.23 161.49,72.5 162.55,71.84 163.74,71.37 164.33,71.13 164.96,70.94 165.63,70.85 165.96,70.81 166.31,70.79 166.67,70.84 166.85,70.87 167.08,70.93 167.25,71.08 167.43,71.24 167.5,71.45 167.5,71.63 167.51,71.99 167.34,72.28 167.16,72.53 166.97,72.79 166.73,73.01 166.46,73.19 166.18,73.37 165.89,73.52 165.56,73.62 165.27,73.7 165.04,73.82 164.78,73.98 163.77,74.6 162.82,75.34 161.88,76.07 160,77.53 158.18,79.06 156.38,80.6 L 156.33,80.56 Z M 156.33,80.56" />
            <path id="sue07Canvas-bezier66" stroke="none" fill="rgb(51, 91, 113)" d="M 159.6,73.34 C 160.39,72.25 161.22,71.19 162.09,70.15 162.98,69.12 163.91,68.11 164.98,67.18 165.52,66.73 166.07,66.28 166.81,65.95 166.99,65.88 167.2,65.81 167.43,65.78 167.66,65.74 167.93,65.78 168.1,65.82 168.34,65.88 168.54,65.96 168.74,66.09 168.94,66.23 169.09,66.44 169.15,66.64 169.27,67.07 169.14,67.44 169,67.76 168.84,68.08 168.65,68.38 168.41,68.65 167.95,69.17 167.39,69.65 166.71,69.94 L 166.67,69.88 C 167.22,69.47 167.65,68.95 168.01,68.41 168.17,68.14 168.33,67.87 168.43,67.59 168.53,67.31 168.57,67.01 168.48,66.81 168.42,66.62 168.21,66.5 167.94,66.44 167.75,66.4 167.66,66.38 167.52,66.4 167.39,66.41 167.24,66.45 167.09,66.5 166.48,66.73 165.9,67.13 165.36,67.54 164.28,68.39 163.31,69.35 162.37,70.34 161.42,71.32 160.52,72.33 159.66,73.37 L 159.6,73.34 Z M 159.6,73.34" />
            <path id="sue07Canvas-bezier67" stroke="none" fill="rgb(51, 91, 113)" d="M 154.4,78.93 L 150.26,80.4 C 149.58,80.65 148.91,80.95 148.21,81.15 147.51,81.36 146.8,81.53 146.08,81.72 L 146.04,81.67 C 146.59,81.18 147.28,80.87 147.95,80.59 148.63,80.3 149.36,80.14 150.07,79.95 151.49,79.55 152.93,79.19 154.38,78.87 L 154.4,78.93 Z M 154.4,78.93" />
            <path id="sue07Canvas-bezier68" stroke="none" fill="rgb(51, 91, 113)" d="M 141.77,80.57 C 141.6,80.7 141.4,80.72 141.22,80.78 L 140.66,80.94 C 140.29,81.04 139.93,81.15 139.57,81.28 138.86,81.52 138.17,81.82 137.59,82.22 137,82.62 136.6,83.15 136.32,83.69 136.03,84.25 135.94,84.89 135.91,85.59 L 135.84,85.6 C 135.49,84.97 135.4,84.2 135.66,83.48 135.91,82.75 136.58,82.21 137.26,81.82 137.95,81.43 138.7,81.18 139.46,80.99 139.84,80.9 140.22,80.82 140.61,80.76 140.98,80.69 141.41,80.66 141.72,80.53 L 141.77,80.57 Z M 141.77,80.57" />
            <path id="sue07Canvas-bezier69" stroke="none" fill="rgb(51, 91, 113)" d="M 147.22,79.24 C 144.88,79.02 142.5,78.94 140.18,79.23 139.04,79.38 137.87,79.63 136.95,80.19 136.48,80.46 136.18,80.85 135.92,81.3 135.65,81.75 135.41,82.22 135.18,82.69 134.29,84.58 133.58,86.54 132.78,88.47 131.96,90.4 131.2,92.35 130.33,94.27 L 130.27,94.25 C 130.75,92.23 131.42,90.25 132.11,88.28 132.83,86.31 133.69,84.38 134.67,82.49 134.92,82.02 135.18,81.55 135.47,81.09 135.63,80.86 135.77,80.64 135.98,80.42 136.19,80.2 136.43,80.02 136.69,79.86 137.74,79.26 138.96,79.06 140.14,78.93 142.52,78.72 144.9,78.87 147.24,79.18 L 147.22,79.24 Z M 147.22,79.24" />
            <path id="sue07Canvas-bezier70" stroke="none" fill="rgb(51, 91, 113)" d="M 139.86,108.14 C 139.3,110.76 138.37,113.31 137.28,115.79 136.13,118.25 134.93,120.7 134.12,123.26 133.72,124.53 133.41,125.83 133.16,127.14 L 132.98,128.12 C 132.91,128.46 132.81,128.78 132.71,129.11 132.51,129.75 132.27,130.39 132.02,131.02 131.01,133.54 129.82,136 128.46,138.39 127.77,139.58 127.04,140.76 126.23,141.89 125.41,143.02 124.53,144.14 123.44,145.11 122.89,145.59 122.28,146.05 121.55,146.37 120.83,146.7 119.86,146.82 119.06,146.47 117.66,145.84 116.4,145.1 115.16,144.29 113.93,143.48 112.76,142.61 111.64,141.69 110.54,140.76 109.49,139.78 108.52,138.73 107.54,137.7 106.67,136.58 105.94,135.4 105.23,134.22 104.66,132.92 104.63,131.57 L 104.7,131.57 C 104.83,132.9 105.52,134.11 106.27,135.24 107.04,136.37 107.98,137.41 108.95,138.42 109.94,139.42 111,140.36 112.12,141.25 113.22,142.15 114.37,143.01 115.58,143.8 116.78,144.59 118.06,145.34 119.35,145.96 119.93,146.22 120.64,146.15 121.27,145.88 121.91,145.61 122.49,145.2 123.01,144.74 124.07,143.83 124.95,142.75 125.77,141.64 126.58,140.53 127.32,139.37 128.01,138.19 129.39,135.83 130.61,133.39 131.63,130.9 132.14,129.64 132.6,128.41 132.8,127.08 133.06,125.77 133.39,124.46 133.82,123.18 134.68,120.62 135.92,118.17 137.1,115.73 138.23,113.27 139.19,110.73 139.79,108.13 L 139.86,108.14 Z M 139.86,108.14" />
            <path id="sue07Canvas-bezier71" stroke="none" fill="rgb(51, 91, 113)" d="M 55.35,50.73 C 53.56,50.69 51.72,50.93 50.16,51.66 49.77,51.84 49.41,52.06 49.08,52.31 48.75,52.55 48.53,52.84 48.4,53.19 48.16,53.89 48.21,54.68 48.3,55.44 48.5,56.98 48.98,58.5 49.23,60.07 49.34,60.85 49.45,61.65 49.44,62.45 49.41,63.24 49.32,64.11 48.75,64.76 L 48.69,64.73 C 48.88,64.38 48.97,64 48.99,63.62 49.02,63.23 49,62.85 48.95,62.47 48.87,61.7 48.72,60.93 48.54,60.17 48.21,58.63 47.88,57.08 47.74,55.48 47.69,54.69 47.66,53.87 47.97,53.06 48.12,52.66 48.44,52.28 48.82,52.04 49.19,51.78 49.59,51.57 50,51.39 51.68,50.7 53.55,50.55 55.35,50.67 L 55.35,50.73 Z M 55.35,50.73" />
            <path id="sue07Canvas-bezier72" stroke="none" fill="rgb(51, 91, 113)" d="M 46.26,52.88 C 45.9,54.01 45.59,55.16 45.33,56.3 45.07,57.45 44.83,58.61 44.82,59.75 44.83,60.03 44.85,60.31 44.93,60.56 44.98,60.68 45.01,60.76 45.11,60.86 45.2,60.97 45.32,61.14 45.4,61.27 45.73,61.84 45.88,62.44 45.98,63.04 46.06,63.64 46.09,64.25 46.03,64.85 46,65.15 45.95,65.45 45.87,65.75 45.78,66.03 45.69,66.35 45.41,66.57 L 45.36,66.52 C 45.52,66.29 45.55,65.99 45.56,65.71 45.58,65.42 45.57,65.13 45.54,64.85 45.49,64.27 45.42,63.7 45.29,63.14 45.17,62.58 45.01,62.03 44.77,61.53 44.7,61.4 44.66,61.32 44.56,61.18 44.45,61.05 44.36,60.84 44.33,60.69 44.25,60.36 44.25,60.05 44.26,59.74 44.34,58.53 44.66,57.38 44.99,56.24 45.34,55.1 45.75,53.97 46.19,52.86 L 46.26,52.88 Z M 46.26,52.88" />
            <path id="sue07Canvas-bezier73" stroke="none" fill="rgb(51, 91, 113)" d="M 31.24,51.49 C 33.48,51.54 35.71,51.63 37.95,51.76 39.06,51.83 40.19,51.86 41.3,52.03 41.85,52.12 42.4,52.21 42.95,52.34 43.49,52.47 44.04,52.6 44.55,52.84 L 44.53,52.9 C 43.42,52.78 42.31,52.73 41.2,52.63 40.1,52.55 39,52.38 37.89,52.25 35.68,52 33.46,51.78 31.24,51.55 L 31.24,51.49 Z M 31.24,51.49" />
            <path id="sue07Canvas-bezier74" stroke="none" fill="rgb(51, 91, 113)" d="M 67.41,66.14 C 69.27,66.56 71.13,66.97 73.01,67.25 74.89,67.54 76.79,67.73 78.68,67.67 80.56,67.61 82.45,67.28 84.04,66.5 84.84,66.13 85.54,65.59 86.09,64.94 86.65,64.3 87.04,63.55 87.35,62.75 L 87.42,62.77 C 87.31,63.6 87.01,64.43 86.5,65.18 85.99,65.93 85.24,66.55 84.4,67.03 82.67,67.96 80.62,68.16 78.69,68.16 76.74,68.15 74.82,67.9 72.94,67.55 71.06,67.19 69.22,66.7 67.4,66.19 L 67.41,66.14 Z M 67.41,66.14" />
            <path id="sue07Canvas-bezier75" stroke="none" fill="rgb(51, 91, 113)" d="M 53.64,37.73 C 53.86,38.24 54.09,38.74 54.38,39.21 54.52,39.45 54.72,39.66 54.83,39.95 54.94,40.22 54.99,40.5 55.01,40.78 55.08,41.9 54.85,43 54.57,44.07 54.29,45.14 53.95,46.2 53.43,47.21 53.16,47.71 52.88,48.2 52.53,48.67 52.18,49.12 51.84,49.63 51.24,49.9 L 51.21,49.84 C 51.43,49.67 51.58,49.43 51.71,49.19 51.86,48.96 51.99,48.72 52.11,48.47 52.34,47.97 52.57,47.48 52.79,46.97 53.21,45.97 53.68,44.97 54.04,43.94 54.37,42.91 54.66,41.85 54.66,40.79 54.66,40.53 54.64,40.27 54.56,40.02 54.5,39.78 54.32,39.55 54.19,39.29 53.94,38.79 53.74,38.27 53.58,37.74 L 53.64,37.73 Z M 53.64,37.73" />
            <path id="sue07Canvas-bezier76" stroke="none" fill="rgb(51, 91, 113)" d="M 59.95,16.81 C 59.55,16.97 59.51,17.38 59.5,17.73 59.49,18.1 59.53,18.47 59.59,18.84 59.64,19.21 59.76,19.58 59.75,19.96 59.74,20.34 59.71,20.72 59.55,21.11 L 59.48,21.12 C 59.26,20.76 59.14,20.39 59.05,20.01 58.96,19.64 59.02,19.25 59.03,18.86 59.04,18.48 59.07,18.09 59.15,17.7 59.2,17.5 59.27,17.31 59.39,17.13 59.5,16.95 59.7,16.79 59.93,16.76 L 59.95,16.81 Z M 59.95,16.81" />
        </g>
    </g>
</svg>
