<?xml version="1.0" encoding="UTF-8"?>
<!DOCTYPE svg PUBLIC "-//W3C//DTD SVG 1.1//EN" "http://www.w3.org/Graphics/SVG/1.1/DTD/svg11.dtd">
<svg version="1.1" xmlns="http://www.w3.org/2000/svg" xmlns:xlink="http://www.w3.org/1999/xlink" width="125" height="378"  xml:space="preserve" id="sue09Canvas">
    <!-- Generated by PaintCode - http://www.paintcodeapp.com -->
    <g id="sue09Canvas-lines">
        <g id="sue09Canvas-group2">
            <path id="sue09Canvas-bezier" stroke="none" fill="rgb(51, 91, 113)" d="M 77.18,27.3 C 76.13,26.92 74.95,26.89 73.95,27.32 73.45,27.53 73.02,27.87 72.63,28.23 72.22,28.6 71.89,29.03 71.54,29.48 L 71.51,29.46 C 71.7,28.93 72.02,28.44 72.4,28.01 72.8,27.59 73.31,27.28 73.86,27.09 74.95,26.69 76.17,26.8 77.19,27.27 L 77.18,27.3 Z M 77.18,27.3" />
            <path id="sue09Canvas-bezier2" stroke="none" fill="rgb(51, 91, 113)" d="M 72.14,29.78 C 72.95,29.7 73.75,29.49 74.48,29.15 74.84,28.98 75.17,28.76 75.49,28.54 75.82,28.32 76.11,28.06 76.42,27.78 L 76.44,27.79 C 76.28,28.18 76,28.51 75.68,28.79 75.36,29.06 74.96,29.24 74.57,29.38 73.79,29.68 72.96,29.82 72.14,29.81 L 72.14,29.78 Z M 72.14,29.78" />
            <path id="sue09Canvas-bezier3" stroke="none" fill="rgb(51, 91, 113)" d="M 63.77,31.76 C 63.29,31.41 62.75,31.15 62.2,30.97 61.64,30.79 61.05,30.71 60.48,30.76 59.9,30.81 59.36,31.01 58.85,31.27 58.33,31.52 57.87,31.89 57.41,32.26 L 57.39,32.24 C 57.72,31.74 58.17,31.32 58.7,31 59.23,30.68 59.85,30.53 60.46,30.51 61.7,30.47 62.88,30.98 63.79,31.74 L 63.77,31.76 Z M 63.77,31.76" />
            <path id="sue09Canvas-bezier4" stroke="none" fill="rgb(51, 91, 113)" d="M 57.85,32.38 C 58.78,32.51 59.72,32.49 60.64,32.41 61.1,32.36 61.56,32.28 62.02,32.23 62.49,32.19 62.95,32.12 63.42,32.1 L 63.43,32.13 C 63,32.33 62.53,32.44 62.07,32.54 61.61,32.63 61.13,32.65 60.66,32.66 59.71,32.68 58.76,32.63 57.84,32.41 L 57.85,32.38 Z M 57.85,32.38" />
            <path id="sue09Canvas-bezier5" stroke="none" fill="rgb(51, 91, 113)" d="M 55.18,30.02 C 56.12,29.32 57.23,28.83 58.39,28.54 58.97,28.4 59.56,28.26 60.17,28.29 60.77,28.33 61.37,28.44 61.92,28.7 L 61.91,28.77 C 61.31,28.84 60.74,28.87 60.18,28.92 59.62,28.98 59.05,28.95 58.48,29.03 57.92,29.11 57.36,29.24 56.81,29.42 56.27,29.58 55.72,29.79 55.22,30.07 L 55.18,30.02 Z M 55.18,30.02" />
            <path id="sue09Canvas-bezier6" stroke="none" fill="rgb(51, 91, 113)" d="M 77.5,24.48 C 76.9,24.41 76.3,24.44 75.71,24.51 75.12,24.58 74.55,24.7 74,24.91 73.46,25.11 72.98,25.43 72.49,25.71 72,26 71.55,26.36 71.05,26.73 L 71,26.7 C 71.22,26.11 71.63,25.6 72.13,25.2 72.63,24.8 73.25,24.59 73.85,24.43 75.07,24.12 76.33,24.13 77.51,24.42 L 77.5,24.48 Z M 77.5,24.48" />
            <path id="sue09Canvas-bezier7" stroke="none" fill="rgb(51, 91, 113)" d="M 64.93,29.99 C 65.35,30.39 65.65,30.89 65.92,31.4 66.17,31.93 66.36,32.47 66.52,33.03 66.67,33.59 66.83,34.16 66.83,34.74 66.84,35.32 66.78,35.9 66.6,36.46 L 66.54,36.46 C 66.37,35.89 66.29,35.34 66.2,34.79 66.11,34.24 66.12,33.69 66.03,33.14 65.94,32.59 65.81,32.05 65.63,31.53 65.45,31 65.23,30.48 64.88,30.03 L 64.93,29.99 Z M 64.93,29.99" />
            <path id="sue09Canvas-bezier8" stroke="none" fill="rgb(51, 91, 113)" d="M 64.94,38.84 C 65.2,39.29 65.59,39.68 66.04,39.86 66.27,39.96 66.5,39.99 66.75,39.98 67.03,39.97 67.3,39.99 67.57,40.01 68.11,40.06 68.63,40.07 69.11,40.11 69.6,40.14 70.04,40.1 70.51,39.8 L 70.56,39.84 C 70.37,40.4 69.69,40.71 69.13,40.73 68.54,40.79 68.01,40.61 67.5,40.51 67.24,40.46 66.99,40.41 66.74,40.38 66.46,40.37 66.15,40.29 65.9,40.14 65.4,39.84 65.08,39.36 64.89,38.87 L 64.94,38.84 Z M 64.94,38.84" />
            <path id="sue09Canvas-bezier9" stroke="none" fill="rgb(51, 91, 113)" d="M 72.67,35.51 C 73.97,35.78 75.18,36.36 76.27,37.11 76.82,37.48 77.37,37.86 77.84,38.33 78.07,38.57 78.3,38.81 78.49,39.09 78.67,39.37 78.85,39.68 78.83,40.03 L 78.8,40.03 C 78.73,39.72 78.52,39.47 78.32,39.23 78.1,38.99 77.87,38.76 77.62,38.56 77.14,38.13 76.65,37.71 76.13,37.32 75.61,36.92 75.06,36.57 74.48,36.27 73.9,35.97 73.3,35.71 72.67,35.54 L 72.67,35.51 Z M 72.67,35.51" />
            <path id="sue09Canvas-bezier10" stroke="none" fill="rgb(51, 91, 113)" d="M 63.05,43.7 C 64.26,43.79 65.48,43.76 66.7,43.66 67.91,43.55 69.11,43.37 70.29,43.09 72.65,42.53 74.93,41.59 76.86,40.15 76.96,40.07 77.11,40.09 77.19,40.2 77.24,40.27 77.25,40.36 77.22,40.43 L 77.21,40.44 C 76.62,41.76 75.82,43 74.8,44.06 73.79,45.11 72.5,45.97 71.05,46.34 69.59,46.73 68.04,46.57 66.67,46.07 65.29,45.54 64.08,44.72 63.02,43.76 63.01,43.74 63.01,43.72 63.02,43.71 63.03,43.7 63.04,43.7 63.05,43.7 Z M 63.17,43.77 C 64.31,44.55 65.52,45.24 66.82,45.63 68.15,46.05 69.57,46.11 70.88,45.73 72.2,45.36 73.39,44.6 74.38,43.64 75.37,42.67 76.19,41.5 76.78,40.24 L 77.14,40.53 C 75.11,41.97 72.76,42.87 70.36,43.37 69.15,43.62 67.93,43.77 66.71,43.83 65.53,43.89 64.34,43.89 63.17,43.77 Z M 63.17,43.77" />
            <path id="sue09Canvas-bezier11" stroke="none" fill="rgb(51, 91, 113)" d="M 49.1,28.98 C 48.87,29.05 48.73,29.3 48.64,29.52 48.54,29.75 48.5,30 48.49,30.24 48.48,30.74 48.6,31.23 48.79,31.69 49.15,32.62 49.8,33.42 50.38,34.26 50.99,35.08 51.66,35.85 52.28,36.65 52.59,37.05 52.91,37.44 53.24,37.81 53.41,38 53.58,38.18 53.77,38.34 53.95,38.5 54.15,38.67 54.39,38.67 L 54.41,38.73 C 54.12,38.83 53.84,38.69 53.61,38.58 53.37,38.45 53.15,38.29 52.94,38.13 52.52,37.81 52.15,37.44 51.8,37.05 51.09,36.29 50.53,35.41 49.97,34.54 49.43,33.67 48.83,32.81 48.49,31.8 48.34,31.29 48.25,30.76 48.31,30.23 48.34,29.97 48.4,29.71 48.52,29.47 48.65,29.24 48.8,28.99 49.08,28.91 L 49.1,28.98 Z M 49.1,28.98" />
            <path id="sue09Canvas-bezier12" stroke="none" fill="rgb(51, 91, 113)" d="M 54.52,36.36 C 54.87,38.64 55.4,40.94 56.44,43.01 56.7,43.52 57.01,44.01 57.39,44.43 57.58,44.65 57.78,44.83 58.01,45.01 58.24,45.2 58.45,45.4 58.66,45.61 59.49,46.44 60.26,47.31 61.06,48.16 62.64,49.85 64.29,51.51 66.25,52.72 67.23,53.31 68.3,53.77 69.41,53.94 70.52,54.12 71.67,53.92 72.7,53.48 74.79,52.57 76.43,50.85 77.72,48.98 79.02,47.09 80.02,45 80.75,42.83 81.12,41.75 81.42,40.63 81.63,39.51 81.85,38.38 81.9,37.24 81.97,36.08 82.03,34.92 82.06,33.77 82.03,32.61 82.01,31.46 81.98,30.29 81.71,29.17 L 81.77,29.15 C 82.4,31.41 82.41,33.77 82.41,36.09 82.45,38.42 82.06,40.79 81.35,43.02 80.62,45.26 79.6,47.41 78.23,49.34 76.86,51.24 75.14,53.01 72.89,53.94 71.78,54.4 70.54,54.59 69.34,54.39 68.15,54.19 67.04,53.69 66.04,53.06 64.03,51.79 62.39,50.09 60.82,48.37 60.04,47.51 59.29,46.62 58.49,45.79 58.28,45.58 58.08,45.38 57.86,45.19 57.64,45.01 57.41,44.8 57.22,44.58 56.83,44.12 56.53,43.61 56.27,43.09 55.75,42.04 55.4,40.92 55.11,39.79 54.82,38.67 54.6,37.52 54.46,36.37 L 54.52,36.36 Z M 54.52,36.36" />
            <path id="sue09Canvas-bezier13" stroke="none" fill="rgb(51, 91, 113)" d="M 81.75,21.68 C 81.88,21.41 82.05,21.16 82.29,20.97 82.51,20.77 82.84,20.64 83.16,20.7 83.48,20.74 83.76,20.92 83.98,21.13 84.21,21.34 84.41,21.55 84.57,21.83 85.18,22.93 85.17,24.18 85.12,25.35 85.09,25.94 85.02,26.53 84.94,27.11 L 84.89,27.54 C 84.87,27.67 84.86,27.83 84.88,27.84 84.91,28.03 84.88,28.1 84.88,28.18 84.87,28.27 84.85,28.34 84.84,28.42 84.81,28.57 84.77,28.72 84.74,28.86 84.57,29.44 84.37,30 84.11,30.54 83.98,30.8 83.84,31.07 83.68,31.32 83.49,31.56 83.34,31.85 83.01,31.96 L 83,31.9 C 83.21,31.74 83.32,31.45 83.42,31.19 83.53,30.93 83.62,30.66 83.7,30.38 83.86,29.83 84.01,29.27 84.12,28.72 84.16,28.58 84.19,28.44 84.21,28.31 L 84.24,28.11 C 84.24,28.05 84.24,27.98 84.25,28.02 84.18,27.74 84.24,27.6 84.25,27.45 L 84.33,27.01 C 84.44,26.44 84.55,25.88 84.62,25.31 84.74,24.18 84.79,22.98 84.3,21.98 84.05,21.51 83.65,21.01 83.13,20.88 82.59,20.75 82.08,21.22 81.8,21.7 L 81.75,21.68 Z M 81.75,21.68" />
            <path id="sue09Canvas-bezier14" stroke="none" fill="rgb(51, 91, 113)" d="M 82.67,27.97 C 82.77,27.74 82.8,27.48 82.77,27.25 82.75,27.02 82.67,26.8 82.56,26.6 82.45,26.4 82.26,26.25 82.15,26.05 82.03,25.84 81.91,25.63 81.82,25.33 L 81.86,25.28 C 82.17,25.32 82.42,25.46 82.63,25.65 82.85,25.84 82.95,26.14 83.02,26.41 83.11,26.69 83.13,26.99 83.08,27.27 83.02,27.55 82.9,27.8 82.72,28.01 L 82.67,27.97 Z M 82.67,27.97" />
            <path id="sue09Canvas-bezier15" stroke="none" fill="rgb(51, 91, 113)" d="M 50.81,5.39 C 51.99,3.95 53.45,2.74 55.1,1.85 56.74,0.95 58.57,0.42 60.43,0.17 64.15,-0.3 68,0.19 71.48,1.66 73.21,2.39 74.85,3.39 76.23,4.71 77.61,6.05 78.55,7.73 79.3,9.45 80.73,12.92 81.49,16.61 81.76,20.31 L 81.7,20.31 C 81.56,19.4 81.38,18.49 81.19,17.59 80.99,16.68 80.78,15.79 80.54,14.9 80.05,13.12 79.49,11.36 78.72,9.7 77.97,8.04 77.06,6.43 75.79,5.15 74.51,3.87 72.94,2.87 71.27,2.12 67.92,0.63 64.14,0.08 60.47,0.48 58.64,0.68 56.83,1.16 55.19,2.02 53.54,2.86 52.07,4.03 50.85,5.43 L 50.81,5.39 Z M 50.81,5.39" />
            <path id="sue09Canvas-bezier16" stroke="none" fill="rgb(51, 91, 113)" d="M 50.46,29.98 C 49.09,26.39 48.03,22.68 47.44,18.87 47.17,16.96 46.92,15.03 47.18,13.07 47.46,11.14 48.13,9.25 49.23,7.65 L 49.28,7.69 C 48.5,9.44 47.97,11.27 47.81,13.14 47.63,14.99 47.73,16.92 47.94,18.8 48.16,20.69 48.52,22.57 48.96,24.43 49.4,26.29 49.91,28.14 50.52,29.96 L 50.46,29.98 Z M 50.46,29.98" />
            <path id="sue09Canvas-bezier17" stroke="none" fill="rgb(51, 91, 113)" d="M 51.66,26.85 C 51.06,24.77 50.69,22.62 50.71,20.43 50.72,19.34 50.79,18.21 51.2,17.16 51.6,16.12 52.32,15.13 53.32,14.64 L 53.36,14.69 C 52.58,15.45 52.1,16.37 51.8,17.36 51.5,18.35 51.29,19.39 51.21,20.45 51.14,21.51 51.17,22.58 51.26,23.64 51.35,24.71 51.5,25.78 51.72,26.83 L 51.66,26.85 Z M 51.66,26.85" />
            <path id="sue09Canvas-bezier18" stroke="none" fill="rgb(51, 91, 113)" d="M 56.36,12.31 C 57.79,12.23 59.21,12.05 60.6,11.74 61.29,11.59 61.98,11.4 62.64,11.14 63.3,10.88 63.93,10.56 64.43,10.08 64.99,9.57 65.69,9.29 66.38,9.07 67.08,8.86 67.8,8.73 68.53,8.67 69.98,8.54 71.45,8.62 72.87,9.05 73.57,9.26 74.27,9.57 74.86,10.07 75.15,10.32 75.41,10.63 75.6,10.98 75.78,11.3 75.94,11.62 76.09,11.95 76.68,13.27 77.17,14.61 77.66,15.95 78.13,17.29 78.62,18.63 79.12,19.96 79.38,20.62 79.64,21.28 79.95,21.91 80.1,22.23 80.26,22.55 80.45,22.84 80.65,23.13 80.85,23.43 81.17,23.58 L 81.15,23.64 C 80.78,23.52 80.53,23.22 80.3,22.95 80.08,22.66 79.88,22.36 79.7,22.05 79.34,21.42 79.02,20.78 78.72,20.13 78.12,18.83 77.61,17.49 77.07,16.17 76.56,14.84 76.07,13.5 75.52,12.2 75.38,11.88 75.24,11.56 75.08,11.26 74.93,10.97 74.73,10.72 74.49,10.49 74,10.05 73.37,9.74 72.72,9.52 71.4,9.1 69.96,8.98 68.56,9.07 67.86,9.12 67.16,9.23 66.48,9.42 65.82,9.61 65.15,9.87 64.63,10.31 64.09,10.81 63.41,11.13 62.73,11.38 62.05,11.62 61.34,11.79 60.64,11.93 59.23,12.19 57.79,12.33 56.36,12.37 L 56.36,12.31 Z M 56.36,12.31" />
            <path id="sue09Canvas-bezier19" stroke="none" fill="rgb(51, 91, 113)" d="M 54.75,12.22 C 53.76,11.42 52.82,10.57 51.93,9.65 51.5,9.19 51.02,8.75 50.68,8.19 50.51,7.92 50.36,7.63 50.24,7.32 50.12,7.01 50.04,6.67 50.08,6.34 L 50.14,6.33 C 50.41,6.9 50.82,7.35 51.2,7.83 51.59,8.3 51.92,8.83 52.31,9.32 53.1,10.3 53.93,11.25 54.79,12.17 L 54.75,12.22 Z M 54.75,12.22" />
            <path id="sue09Canvas-bezier20" stroke="none" fill="rgb(51, 91, 113)" d="M 57.88,47.34 C 58.65,49.54 59.28,51.79 59.68,54.11 59.88,55.26 60.06,56.44 59.97,57.63 59.92,58.23 59.83,58.83 59.62,59.4 59.42,59.97 59.09,60.53 58.58,60.86 L 58.54,60.81 C 59.27,59.9 59.32,58.72 59.35,57.61 59.35,56.47 59.31,55.32 59.19,54.18 59.05,53.03 58.85,51.89 58.62,50.75 58.39,49.61 58.13,48.48 57.82,47.36 L 57.88,47.34 Z M 57.88,47.34" />
            <path id="sue09Canvas-bezier21" stroke="none" fill="rgb(51, 91, 113)" d="M 61.18,64.03 C 64.23,64.89 67.42,65.13 70.56,64.9 72.13,64.78 73.68,64.52 75.2,64.19 76.74,63.88 78.22,63.38 79.67,62.74 L 79.71,62.79 C 78.42,63.76 76.9,64.37 75.35,64.8 73.79,65.22 72.18,65.35 70.59,65.4 67.39,65.52 64.17,65.13 61.16,64.1 L 61.18,64.03 Z M 61.18,64.03" />
            <path id="sue09Canvas-bezier22" stroke="none" fill="rgb(51, 91, 113)" d="M 87.25,58.86 C 88.24,58.72 89.26,58.77 90.24,58.99 90.73,59.1 91.21,59.26 91.66,59.48 91.89,59.59 92.11,59.71 92.33,59.85 92.54,59.98 92.73,60.14 92.95,60.24 93.85,60.62 94.87,60.66 95.86,60.71 96.85,60.75 97.85,60.75 98.85,60.75 100.85,60.75 102.85,60.74 104.85,61.02 105.84,61.16 106.84,61.38 107.77,61.81 108.23,62.03 108.67,62.3 109.05,62.65 109.42,63 109.74,63.41 110.03,63.82 111.16,65.49 111.99,67.32 112.79,69.14 113.57,70.98 114.28,72.84 114.94,74.72 115.59,76.6 116.2,78.5 116.74,80.42 117,81.39 117.27,82.34 117.42,83.35 117.53,84.32 117.77,85.29 117.97,86.26 118.84,90.14 119.75,94.01 120.55,97.91 120.94,99.86 121.31,101.82 121.61,103.79 121.76,104.77 121.9,105.76 122,106.76 122.09,107.76 122.18,108.76 122.1,109.79 122.08,110.05 122.04,110.31 121.98,110.58 121.89,110.87 121.81,111.05 121.76,111.28 121.66,111.73 121.63,112.21 121.64,112.69 121.67,113.65 121.86,114.62 122.11,115.56 122.62,117.46 123.39,119.29 124.17,121.12 125.05,122.9 125.48,125.02 125.09,127 124.71,129.01 123.51,130.75 122.02,132.06 L 121.97,132.02 C 123.41,130.66 124.52,128.9 124.82,126.95 124.97,125.99 124.95,125 124.77,124.04 124.68,123.56 124.58,123.08 124.4,122.64 124.22,122.18 124.01,121.73 123.81,121.28 122.99,119.46 122.18,117.63 121.62,115.7 121.34,114.73 121.12,113.74 121.08,112.71 121.05,112.2 121.08,111.67 121.18,111.16 121.23,110.9 121.34,110.61 121.39,110.43 121.44,110.21 121.47,109.98 121.48,109.74 121.58,107.82 121.28,105.83 120.99,103.88 120.69,101.93 120.32,99.98 119.93,98.03 119.17,94.14 118.3,90.26 117.47,86.37 117.28,85.39 117.04,84.42 116.94,83.41 116.8,82.46 116.54,81.5 116.29,80.54 115.77,78.63 115.18,76.73 114.54,74.86 113.9,72.98 113.21,71.12 112.45,69.29 111.67,67.47 110.85,65.64 109.76,64.01 109.48,63.6 109.19,63.22 108.84,62.88 108.49,62.55 108.08,62.29 107.64,62.08 106.76,61.66 105.78,61.44 104.81,61.28 102.85,60.98 100.84,60.97 98.85,60.95 97.85,60.94 96.85,60.94 95.85,60.89 94.86,60.82 93.83,60.78 92.89,60.37 92.65,60.26 92.46,60.09 92.25,59.96 92.05,59.82 91.83,59.71 91.61,59.59 91.17,59.38 90.7,59.21 90.22,59.09 89.25,58.86 88.24,58.8 87.26,58.92 L 87.25,58.86 Z M 87.25,58.86" />
            <path id="sue09Canvas-bezier23" stroke="none" fill="rgb(51, 91, 113)" d="M 102.39,137.12 C 102.26,136.46 102.45,135.78 102.73,135.19 103.02,134.59 103.42,134.05 103.95,133.62 104.47,133.2 105.14,132.91 105.85,132.98 106.2,133.01 106.53,133.12 106.83,133.32 107.12,133.5 107.37,133.72 107.62,133.94 108.59,134.86 109.42,135.88 110.23,136.93 111.02,137.98 111.77,139.06 112.49,140.17 113.89,142.39 115.25,144.68 116.08,147.22 116.27,147.86 116.43,148.51 116.5,149.19 116.56,149.86 116.58,150.61 116.14,151.25 115.92,151.56 115.58,151.78 115.23,151.87 114.88,151.97 114.53,151.97 114.19,151.93 113.51,151.83 112.88,151.61 112.29,151.3 L 112.32,151.24 C 112.93,151.46 113.58,151.62 114.21,151.64 114.84,151.68 115.49,151.51 115.77,151.01 116.06,150.52 116.05,149.87 115.96,149.26 115.87,148.64 115.69,148.02 115.48,147.41 114.61,145 113.4,142.67 112.06,140.43 111.38,139.32 110.66,138.23 109.9,137.17 109.13,136.12 108.33,135.08 107.41,134.17 106.94,133.72 106.45,133.29 105.82,133.22 105.21,133.14 104.57,133.39 104.07,133.77 103.56,134.16 103.14,134.67 102.84,135.24 102.55,135.81 102.34,136.46 102.46,137.11 L 102.39,137.12 Z M 102.39,137.12" />
            <path id="sue09Canvas-bezier24" stroke="none" fill="rgb(51, 91, 113)" d="M 103.18,133.94 C 103.14,133.13 103.16,132.31 103.26,131.49 103.33,131.08 103.41,130.68 103.55,130.27 103.7,129.88 103.9,129.46 104.33,129.17 105.05,128.84 105.26,128.12 105.73,127.41 105.96,127.07 106.23,126.7 106.61,126.45 106.98,126.2 107.44,126.09 107.86,126.14 L 107.87,126.2 C 107.47,126.33 107.14,126.52 106.89,126.79 106.64,127.06 106.45,127.38 106.27,127.73 106.08,128.07 105.9,128.45 105.63,128.8 105.49,128.97 105.34,129.14 105.15,129.28 104.98,129.43 104.72,129.55 104.58,129.61 104.3,129.75 104.09,130.08 103.93,130.43 103.77,130.78 103.66,131.16 103.57,131.55 103.39,132.33 103.29,133.13 103.24,133.94 L 103.18,133.94 103.18,133.94 Z M 103.18,133.94" />
            <path id="sue09Canvas-bezier25" stroke="none" fill="rgb(51, 91, 113)" d="M 104.39,127.56 C 104.53,126.79 104.69,126.02 104.9,125.25 105.01,124.87 105.13,124.49 105.28,124.12 105.44,123.74 105.58,123.37 105.94,123.02 106.03,122.94 106.16,122.85 106.33,122.83 106.53,122.81 106.64,122.87 106.69,122.86 106.81,122.86 106.99,122.82 107.15,122.77 107.48,122.65 107.81,122.49 108.14,122.3 108.47,122.13 108.79,121.92 109.1,121.71 109.26,121.6 109.4,121.48 109.54,121.35 109.67,121.23 109.81,121.09 109.81,120.92 L 109.87,120.89 C 109.99,121.12 109.85,121.34 109.77,121.53 109.66,121.71 109.53,121.87 109.4,122.03 109.13,122.34 108.81,122.61 108.47,122.84 108.12,123.06 107.75,123.26 107.32,123.36 107.1,123.41 106.89,123.45 106.61,123.41 106.46,123.39 106.38,123.35 106.38,123.36 106.36,123.35 106.31,123.37 106.25,123.41 106.02,123.59 105.82,123.95 105.65,124.28 105.48,124.62 105.33,124.98 105.19,125.35 104.91,126.07 104.67,126.82 104.46,127.58 L 104.39,127.56 Z M 104.39,127.56" />
            <path id="sue09Canvas-bezier26" stroke="none" fill="rgb(51, 91, 113)" d="M 107.51,120.29 C 107.13,119.2 106.73,118.11 106.3,117.04 106.08,116.5 105.85,115.97 105.58,115.46 105.51,115.33 105.44,115.23 105.36,115.09 105.28,114.95 105.23,114.82 105.17,114.68 105.07,114.4 104.97,114.13 104.88,113.85 104.16,111.64 103.53,109.4 102.9,107.17 102.26,104.94 101.61,102.71 101.06,100.45 100.52,98.2 100,95.94 99.53,93.66 L 99.59,93.64 C 100.41,95.83 101.02,98.07 101.67,100.3 102.29,102.53 102.82,104.79 103.38,107.04 103.96,109.29 104.52,111.54 105.18,113.76 105.26,114.03 105.34,114.31 105.44,114.58 105.48,114.71 105.54,114.85 105.59,114.96 105.66,115.08 105.74,115.22 105.8,115.35 106.06,115.88 106.27,116.42 106.47,116.97 106.87,118.06 107.23,119.16 107.57,120.27 L 107.51,120.29 Z M 107.51,120.29" />
            <path id="sue09Canvas-bezier27" stroke="none" fill="rgb(51, 91, 113)" d="M 103.01,85.18 C 102.85,85.97 102.73,86.76 102.43,87.53 102.28,87.91 102,88.25 101.67,88.49 101.35,88.74 101,88.96 100.68,89.18 100.06,89.66 99.69,90.4 99.35,91.11 99.02,91.83 98.75,92.59 98.52,93.35 98.29,94.11 98.09,94.89 97.95,95.67 97.89,96.07 97.83,96.43 97.89,96.82 L 98,98.02 C 98.15,99.62 98.22,101.24 98.21,102.85 98.18,106.07 97.85,109.33 96.91,112.45 95.96,115.54 94.49,118.53 92.31,120.93 L 92.26,120.89 C 94.14,118.28 95.48,115.35 96.31,112.27 97.14,109.21 97.61,106.03 97.7,102.84 97.75,101.24 97.71,99.65 97.6,98.05 L 97.51,96.85 C 97.45,96.44 97.52,95.99 97.6,95.6 97.75,94.8 97.97,94.03 98.22,93.26 98.47,92.49 98.77,91.73 99.12,91 99.49,90.29 99.89,89.54 100.57,89.03 101.23,88.57 102.01,88.23 102.31,87.48 102.62,86.75 102.77,85.95 102.95,85.17 L 103.01,85.18 Z M 103.01,85.18" />
            <path id="sue09Canvas-bezier28" stroke="none" fill="rgb(51, 91, 113)" d="M 91.77,121.57 C 92.06,122.36 92.28,123.17 92.41,124 92.48,124.42 92.51,124.84 92.48,125.27 92.45,125.69 92.35,126.15 92.01,126.47 91.84,126.64 91.64,126.71 91.52,126.85 91.38,126.99 91.28,127.16 91.21,127.35 91.06,127.72 91.01,128.13 90.98,128.54 90.92,129.37 91.02,130.2 90.85,131.07 90.8,131.28 90.73,131.51 90.57,131.71 90.5,131.79 90.43,131.87 90.39,131.94 90.35,132.01 90.31,132.1 90.29,132.19 90.18,132.55 90.18,132.97 90.18,133.38 90.19,134.21 90.26,135.06 90.15,135.92 90.1,136.35 90,136.78 89.82,137.19 89.62,137.6 89.45,137.92 89.33,138.32 89.07,139.1 88.92,139.91 88.81,140.73 88.71,141.55 88.66,142.38 88.67,143.2 88.67,143.61 88.69,144.02 88.75,144.42 88.78,144.62 88.82,144.79 88.89,144.97 88.97,145.23 88.98,145.44 89.01,145.66 89.16,147.36 89.14,149.03 89.11,150.71 89.06,152.39 88.99,154.07 88.84,155.74 88.77,156.58 88.69,157.41 88.57,158.25 88.51,158.66 88.44,159.08 88.36,159.49 88.31,159.7 88.26,159.91 88.2,160.11 88.13,160.31 88.1,160.53 87.89,160.68 L 87.86,160.62 C 88,160.51 88.03,160.27 88.08,160.08 88.12,159.88 88.15,159.67 88.18,159.46 88.23,159.05 88.26,158.64 88.29,158.22 88.35,157.39 88.38,156.55 88.41,155.72 88.46,154.05 88.49,152.37 88.48,150.7 88.49,149.87 88.49,149.03 88.47,148.2 88.46,147.37 88.46,146.53 88.39,145.72 88.37,145.52 88.35,145.3 88.31,145.16 88.23,144.95 88.19,144.71 88.16,144.49 88.11,144.06 88.1,143.63 88.1,143.2 88.12,142.35 88.19,141.5 88.31,140.66 88.44,139.82 88.61,138.99 88.9,138.17 89.03,137.77 89.25,137.35 89.42,137.01 89.59,136.66 89.69,136.26 89.74,135.86 89.86,135.06 89.81,134.23 89.82,133.38 89.82,132.96 89.83,132.53 89.96,132.09 90,131.98 90.05,131.87 90.11,131.76 90.18,131.65 90.25,131.57 90.32,131.5 90.43,131.37 90.5,131.19 90.54,131 90.72,130.22 90.65,129.36 90.73,128.52 90.77,128.1 90.83,127.67 91.01,127.26 91.09,127.06 91.21,126.86 91.37,126.71 91.54,126.53 91.75,126.46 91.89,126.33 92.17,126.07 92.28,125.66 92.33,125.25 92.37,124.85 92.34,124.43 92.29,124.02 92.18,123.19 91.98,122.38 91.71,121.59 L 91.77,121.57 Z M 91.77,121.57" />
            <path id="sue09Canvas-bezier29" stroke="none" fill="rgb(51, 91, 113)" d="M 46.05,59.54 C 43.02,60.72 39.98,61.9 36.92,63.03 36.16,63.31 35.39,63.59 34.62,63.86 34.24,63.99 33.84,64.12 33.46,64.24 33.08,64.37 32.71,64.54 32.36,64.73 30.94,65.5 29.66,66.53 28.48,67.62 26.11,69.83 24.08,72.4 22.44,75.18 21.63,76.57 20.92,78.03 20.34,79.53 19.79,81.06 19.12,82.56 18.41,84.02 15.57,89.88 12.32,95.52 8.95,101.08 7.26,103.85 5.52,106.6 3.69,109.3 3.45,109.64 3.25,109.96 2.95,110.31 2.67,110.6 2.4,110.89 2.14,111.2 1.63,111.82 1.15,112.47 0.79,113.18 0.43,113.88 0.16,114.66 0.2,115.45 0.23,116.24 0.65,116.99 1.26,117.51 L 1.22,117.56 C 0.57,117.06 0.09,116.3 0.02,115.46 -0.07,114.62 0.18,113.79 0.52,113.05 0.88,112.3 1.34,111.61 1.85,110.96 2.1,110.64 2.37,110.33 2.65,110.03 2.87,109.75 3.1,109.38 3.32,109.05 5.07,106.33 6.74,103.54 8.42,100.76 10.1,97.98 11.73,95.18 13.35,92.37 14.97,89.55 16.55,86.72 17.98,83.81 18.7,82.36 19.37,80.9 19.94,79.37 20.54,77.85 21.28,76.39 22.12,74.99 23.8,72.19 25.87,69.62 28.29,67.42 29.51,66.34 30.81,65.32 32.26,64.55 32.63,64.37 33,64.2 33.4,64.07 33.79,63.95 34.18,63.83 34.56,63.7 35.33,63.44 36.1,63.17 36.87,62.89 39.93,61.79 42.98,60.64 46.02,59.48 L 46.05,59.54 Z M 46.05,59.54" />
            <path id="sue09Canvas-bezier30" stroke="none" fill="rgb(51, 91, 113)" d="M 52.94,157.33 L 51.96,162.89 51.86,162.75 C 54.59,163.02 57.33,163.32 60.06,163.65 60.74,163.73 61.42,163.81 62.11,163.92 L 62.63,164 C 62.72,164.02 62.8,164.03 62.91,164.07 62.93,164.08 62.93,164.07 62.97,164.09 L 63.01,164.11 C 63.05,164.14 62.96,164.09 62.97,164.09 L 62.97,164.1 62.98,164.1 C 63.01,164.11 62.95,164.08 62.91,164.08 62.86,164.08 62.84,164.09 62.83,164.09 62.79,164.11 62.79,164.12 62.78,164.12 62.76,164.14 62.78,164.11 62.79,164.09 62.91,163.84 63,163.49 63.08,163.17 63.4,161.85 63.64,160.5 63.88,159.16 L 64.16,159.54 C 62.25,159.33 60.36,159.06 58.47,158.74 57.52,158.59 56.58,158.4 55.64,158.19 55.17,158.1 54.7,157.98 54.24,157.85 54.01,157.79 53.78,157.72 53.55,157.64 53.34,157.55 53.12,157.49 52.94,157.33 Z M 52.95,157.26 C 53.12,157.39 53.37,157.43 53.59,157.5 53.82,157.55 54.05,157.6 54.29,157.64 L 55.7,157.86 C 56.64,158 57.59,158.1 58.54,158.23 L 64.23,158.9 64.24,158.9 C 64.41,158.93 64.53,159.08 64.51,159.26 L 64.51,159.28 C 64.25,160.63 63.97,161.97 63.6,163.3 63.5,163.64 63.42,163.96 63.24,164.33 63.21,164.38 63.19,164.42 63.11,164.5 63.09,164.52 63.07,164.54 63.01,164.56 62.99,164.57 62.96,164.58 62.9,164.58 62.84,164.59 62.78,164.56 62.79,164.56 L 62.73,164.54 62.75,164.54 C 62.76,164.55 62.74,164.54 62.74,164.54 62.7,164.53 62.6,164.5 62.53,164.49 L 62.03,164.39 C 61.36,164.28 60.68,164.18 60,164.08 57.28,163.69 54.55,163.34 51.83,162.98 L 51.83,162.98 C 51.76,162.97 51.72,162.92 51.73,162.85 L 51.73,162.85 52.89,157.27 C 52.89,157.25 52.91,157.24 52.93,157.25 52.93,157.25 52.94,157.25 52.94,157.25 L 52.95,157.26 Z M 52.95,157.26" />
            <path id="sue09Canvas-bezier31" stroke="none" fill="rgb(51, 91, 113)" d="M 51.84,156.09 C 50.5,155.8 49.14,155.61 47.78,155.55 46.42,155.5 45.03,155.56 43.75,156 42.49,156.6 41.05,156.65 39.69,156.64 38.31,156.61 36.94,156.48 35.58,156.32 L 31.5,155.83 C 30.14,155.69 28.79,155.53 27.48,155.84 26.15,156.11 24.86,156.55 23.58,157.02 22.31,157.5 21.05,158.03 19.82,158.6 19.69,158.66 19.54,158.61 19.48,158.48 19.46,158.43 19.45,158.38 19.46,158.34 19.83,155.71 20.33,153.12 21,150.55 21.35,149.27 21.74,148 22.23,146.76 22.73,145.52 23.28,144.28 24.16,143.21 25.86,141.2 27.48,139.12 29.06,137.02 29.85,135.96 30.62,134.89 31.36,133.8 32.09,132.72 32.84,131.62 33.35,130.41 L 33.41,130.43 C 32.96,131.68 32.27,132.82 31.6,133.96 30.91,135.08 30.17,136.18 29.41,137.27 27.9,139.44 26.3,141.54 24.64,143.6 23.84,144.59 23.29,145.78 22.81,146.98 22.34,148.2 21.95,149.45 21.61,150.71 20.91,153.24 20.37,155.82 19.96,158.4 L 19.6,158.14 C 20.86,157.57 22.13,157.06 23.42,156.59 24.72,156.13 26.03,155.7 27.4,155.44 28.08,155.31 28.79,155.23 29.49,155.28 30.18,155.31 30.86,155.38 31.55,155.47 L 35.62,156.01 C 36.97,156.18 38.33,156.34 39.69,156.38 41.05,156.42 42.43,156.39 43.69,155.82 45.01,155.39 46.42,155.36 47.78,155.42 49.16,155.51 50.52,155.71 51.85,156.03 L 51.84,156.09 Z M 51.84,156.09" />
            <path id="sue09Canvas-bezier32" stroke="none" fill="rgb(51, 91, 113)" d="M 33.95,128.84 C 35.08,126.18 36.03,123.44 36.72,120.65 37.38,117.86 37.88,114.95 37.19,112.16 36.61,109.34 35.84,106.56 35.2,103.74 34.89,102.32 34.57,100.91 34.3,99.49 34.17,98.78 34.05,98.06 33.95,97.34 33.91,96.98 33.87,96.62 33.85,96.25 33.84,95.89 33.8,95.52 33.95,95.16 L 34,95.19 C 33.91,95.52 33.99,95.89 34.03,96.24 34.08,96.59 34.15,96.94 34.23,97.29 34.38,98 34.55,98.7 34.73,99.4 L 35.81,103.59 C 36.53,106.39 37.17,109.22 37.68,112.07 37.81,112.78 37.94,113.51 37.96,114.25 37.98,114.99 37.94,115.72 37.86,116.45 37.7,117.9 37.4,119.32 37.02,120.72 36.25,123.52 35.22,126.24 34.01,128.87 L 33.95,128.84 Z M 33.95,128.84" />
            <path id="sue09Canvas-bezier33" stroke="none" fill="rgb(51, 91, 113)" d="M 35.21,88.28 C 34.12,90.81 32.88,93.29 31.52,95.7 30.14,98.09 28.64,100.43 26.86,102.58 25.97,103.65 25.01,104.67 23.9,105.55 23.36,105.99 22.74,106.39 22.14,106.72 21.55,107.06 20.98,107.43 20.43,107.83 19.32,108.61 18.31,109.54 17.49,110.61 17.07,111.15 16.71,111.72 16.44,112.34 16.15,112.95 15.94,113.61 15.88,114.29 L 15.82,114.29 C 15.77,112.88 16.36,111.53 17.13,110.36 17.91,109.18 18.94,108.19 20.05,107.33 20.62,106.91 21.2,106.52 21.81,106.16 22.42,105.82 22.98,105.49 23.52,105.06 24.6,104.25 25.57,103.28 26.48,102.25 28.28,100.19 29.83,97.89 31.25,95.54 32.68,93.18 33.99,90.75 35.16,88.25 L 35.21,88.28 Z M 35.21,88.28" />
            <path id="sue09Canvas-bezier34" stroke="none" fill="rgb(51, 91, 113)" d="M 10.54,114.95 C 11.41,114.88 12.29,114.87 13.16,114.99 13.59,115.06 14.03,115.16 14.44,115.35 14.65,115.43 14.85,115.58 15.01,115.71 15.19,115.83 15.36,115.95 15.54,116.07 15.9,116.32 16.27,116.56 16.6,116.88 16.93,117.19 17.2,117.64 17.24,118.12 17.27,118.36 17.25,118.6 17.21,118.83 17.16,119.08 17.12,119.23 17.12,119.44 17.12,119.84 17.16,120.27 17.23,120.69 17.49,122.37 17.98,124.03 18.44,125.68 18.66,126.51 18.92,127.33 19.19,128.14 19.33,128.55 19.48,128.95 19.65,129.34 19.82,129.72 20,130.14 20.32,130.39 L 20.29,130.45 C 20.07,130.36 19.92,130.18 19.78,130.01 19.64,129.84 19.51,129.66 19.4,129.47 19.17,129.09 18.97,128.7 18.79,128.3 18.42,127.51 18.12,126.69 17.83,125.86 17.29,124.21 16.93,122.5 16.73,120.75 16.68,120.32 16.64,119.88 16.67,119.42 16.67,119.19 16.74,118.92 16.78,118.75 16.83,118.55 16.85,118.36 16.83,118.16 16.8,117.37 16.05,116.83 15.36,116.33 15.19,116.2 15.01,116.07 14.84,115.93 14.67,115.78 14.52,115.67 14.33,115.57 13.96,115.38 13.55,115.26 13.13,115.18 12.28,115.02 11.41,114.98 10.55,115.01 L 10.54,114.95 Z M 10.54,114.95" />
            <path id="sue09Canvas-bezier35" stroke="none" fill="rgb(51, 91, 113)" d="M 18.73,130.44 C 17.84,130.01 16.83,129.82 15.83,129.79 15.58,129.79 15.32,129.76 15.15,129.88 14.96,129.99 14.8,130.18 14.65,130.37 14.37,130.76 14.16,131.21 13.96,131.67 13.21,133.5 12.76,135.47 12.45,137.43 12.3,138.41 12.19,139.4 12.15,140.39 12.11,141.37 12.1,142.37 12.26,143.31 12.33,143.79 12.46,144.21 12.72,144.61 12.96,145 13.31,145.28 13.73,145.3 14.15,145.32 14.6,145.09 14.98,144.8 15.38,144.51 15.72,144.14 16.04,143.76 L 16.09,143.79 C 15.85,144.24 15.54,144.65 15.17,145.01 14.79,145.36 14.33,145.69 13.73,145.73 13.11,145.78 12.57,145.35 12.27,144.91 12.19,144.8 12.11,144.68 12.05,144.57 11.98,144.45 11.92,144.32 11.87,144.2 11.77,143.94 11.7,143.69 11.64,143.43 11.44,142.39 11.45,141.36 11.53,140.35 11.61,139.34 11.76,138.34 11.95,137.34 12.34,135.36 12.84,133.39 13.68,131.54 13.9,131.08 14.13,130.63 14.45,130.22 14.62,130.02 14.8,129.82 15.05,129.68 15.17,129.62 15.33,129.58 15.46,129.58 L 15.84,129.6 C 16.85,129.68 17.87,129.9 18.76,130.39 L 18.73,130.44 Z M 18.73,130.44" />
            <path id="sue09Canvas-bezier36" stroke="none" fill="rgb(51, 91, 113)" d="M 19.74,131.65 C 20.41,133.3 21.11,134.94 21.85,136.55 22.23,137.35 22.66,138.12 23.03,138.91 23.22,139.31 23.41,139.7 23.62,140.09 23.72,140.28 23.83,140.46 23.95,140.64 24.07,140.81 24.2,140.98 24.39,141.08 L 24.38,141.14 C 23.88,141.07 23.55,140.66 23.25,140.33 22.95,139.98 22.71,139.59 22.48,139.21 22.02,138.42 21.71,137.58 21.39,136.74 20.74,135.08 20.18,133.38 19.68,131.67 L 19.74,131.65 Z M 19.74,131.65" />
            <path id="sue09Canvas-bezier37" stroke="none" fill="rgb(51, 91, 113)" d="M 13.21,136.73 C 14.58,138.88 15.92,141.06 17.05,143.37 17.59,144.53 18.14,145.7 18.34,147.02 18.38,147.36 18.35,147.71 18.33,148.02 L 18.25,148.98 C 18.2,149.61 18.12,150.25 18.04,150.89 17.88,152.16 17.68,153.42 17.47,154.68 17.36,155.31 17.25,155.94 17.17,156.55 17.15,156.7 17.13,156.86 17.13,156.99 17.12,157.05 17.14,157.13 17.13,157.09 17.12,157.08 17.12,157.05 17.05,157.01 16.99,156.96 16.89,156.96 16.86,156.97 L 16.84,156.97 C 16.86,156.97 16.76,157 16.9,156.96 L 16.9,156.96 C 16.92,156.96 16.9,156.95 17.02,156.95 17.06,156.96 17.1,156.97 17.14,156.99 17.17,157 17.18,157.01 17.2,157.02 17.23,157.05 17.26,157.08 17.28,157.09 17.4,157.26 17.41,157.34 17.44,157.43 17.47,157.52 17.49,157.61 17.5,157.69 17.53,157.86 17.56,158.02 17.58,158.19 17.7,159.48 17.73,160.75 17.78,162.03 17.8,162.67 17.82,163.3 17.86,163.93 17.87,164.25 17.89,164.57 17.93,164.88 17.95,165.04 17.97,165.2 18,165.35 18.03,165.5 18.07,165.67 18.17,165.76 L 18.14,165.81 C 17.98,165.7 17.94,165.53 17.88,165.38 17.83,165.23 17.79,165.07 17.75,164.91 17.68,164.6 17.62,164.28 17.57,163.96 17.48,163.33 17.41,162.69 17.34,162.06 17.2,160.79 17.13,159.51 16.95,158.27 16.93,158.11 16.91,157.96 16.88,157.81 16.86,157.74 16.85,157.67 16.83,157.61 16.82,157.55 16.77,157.48 16.8,157.52 16.8,157.52 16.82,157.54 16.83,157.55 L 16.87,157.57 C 16.9,157.58 16.93,157.59 16.96,157.59 17.06,157.59 17.02,157.58 17.02,157.59 L 17.01,157.59 C 17.14,157.55 17.03,157.58 17.05,157.58 L 17,157.59 C 16.93,157.61 16.79,157.61 16.7,157.54 16.59,157.47 16.57,157.4 16.54,157.35 16.47,157.17 16.49,157.09 16.48,156.99 16.48,156.8 16.5,156.64 16.52,156.47 16.61,155.82 16.74,155.2 16.85,154.57 17.1,153.32 17.35,152.07 17.54,150.81 17.64,150.19 17.73,149.56 17.8,148.93 L 17.9,147.98 C 17.93,147.66 17.97,147.36 17.93,147.06 17.79,145.85 17.28,144.65 16.77,143.5 15.72,141.18 14.46,138.95 13.16,136.76 L 13.21,136.73 Z M 13.21,136.73" />
            <path id="sue09Canvas-bezier38" stroke="none" fill="rgb(51, 91, 113)" d="M 0.76,118.02 C 1.57,120.22 2.41,122.41 3.28,124.59 4.13,126.77 5.02,128.93 5.94,131.09 6.86,133.24 7.85,135.36 8.81,137.49 9.75,139.63 10.76,141.73 11.83,143.82 L 11.78,143.85 C 10.39,141.94 9.29,139.85 8.24,137.75 7.2,135.64 6.34,133.46 5.47,131.28 3.74,126.92 2.16,122.5 0.71,118.04 L 0.76,118.02 Z M 0.76,118.02" />
            <path id="sue09Canvas-bezier39" stroke="none" fill="rgb(51, 91, 113)" d="M 20.34,159.23 C 19.5,161.91 18.89,164.65 18.38,167.41 17.87,170.16 17.5,172.94 17.26,175.73 17.03,178.53 16.96,181.32 16.95,184.12 16.91,186.92 17.05,189.71 17.22,192.52 L 17.16,192.53 C 16.63,189.76 16.4,186.94 16.32,184.12 16.25,181.3 16.46,178.49 16.76,175.69 17.06,172.89 17.5,170.1 18.07,167.35 18.66,164.6 19.36,161.87 20.28,159.21 L 20.34,159.23 Z M 20.34,159.23" />
            <path id="sue09Canvas-bezier40" stroke="none" fill="rgb(51, 91, 113)" d="M 17.45,193.39 C 17.23,193.66 17.02,193.93 16.83,194.22 16.64,194.5 16.46,194.79 16.37,195.08 16.33,195.22 16.32,195.36 16.36,195.42 16.39,195.46 16.41,195.48 16.52,195.55 16.73,195.67 17.08,195.75 17.43,195.89 L 17.43,195.95 C 17.1,196.15 16.73,196.24 16.29,196.13 16.18,196.1 16.06,196.04 15.95,195.94 15.85,195.84 15.78,195.69 15.75,195.55 15.72,195.26 15.82,195.06 15.91,194.88 16.1,194.53 16.34,194.27 16.59,194.02 16.85,193.78 17.12,193.55 17.41,193.35 L 17.45,193.39 Z M 17.45,193.39" />
            <path id="sue09Canvas-bezier41" stroke="none" fill="rgb(51, 91, 113)" d="M 18.19,197.38 C 18.85,201.59 19.8,205.75 20.8,209.9 21.79,214.05 22.87,218.18 24.02,222.29 25.17,226.4 26.41,230.48 27.6,234.57 L 28.48,237.65 28.93,239.18 C 29.08,239.69 29.25,240.21 29.35,240.74 29.78,242.87 29.86,245.02 29.81,247.15 L 29.75,247.15 C 29.7,246.09 29.61,245.02 29.48,243.97 29.35,242.91 29.19,241.86 28.93,240.84 28.31,238.83 27.62,236.79 27,234.75 25.73,230.67 24.62,226.55 23.53,222.42 22.45,218.29 21.42,214.14 20.49,209.97 19.58,205.8 18.71,201.62 18.12,197.39 L 18.19,197.38 Z M 18.19,197.38" />
            <path id="sue09Canvas-bezier42" stroke="none" fill="rgb(51, 91, 113)" d="M 29.8,249 C 29.43,249.24 29.08,249.49 28.75,249.77 28.59,249.9 28.42,250.05 28.33,250.21 28.31,250.24 28.3,250.29 28.3,250.28 28.3,250.26 28.29,250.26 28.33,250.27 28.4,250.29 28.47,250.27 28.62,250.28 28.94,250.32 29.12,250.58 29.22,250.79 29.32,251.01 29.38,251.24 29.42,251.46 29.51,251.9 29.55,252.34 29.58,252.77 29.63,253.2 29.66,253.64 29.74,254.03 29.76,254.12 29.79,254.21 29.82,254.27 29.85,254.34 29.88,254.33 29.8,254.3 29.8,254.3 29.79,254.3 29.78,254.3 L 29.86,254.31 C 29.86,254.31 29.95,254.32 30.03,254.36 30.16,254.42 30.24,254.51 30.29,254.6 30.38,254.78 30.39,254.92 30.41,255.05 30.41,255.55 30.32,255.96 30.24,256.39 30.2,256.6 30.16,256.81 30.15,257.01 30.14,257.21 30.14,257.41 30.33,257.51 L 30.31,257.57 C 30.19,257.57 30.07,257.48 30,257.37 29.93,257.27 29.9,257.15 29.87,257.03 29.82,256.8 29.81,256.58 29.8,256.36 29.78,255.92 29.83,255.47 29.78,255.1 29.77,255.02 29.75,254.94 29.74,254.92 29.73,254.92 29.73,254.93 29.77,254.95 29.79,254.96 29.83,254.95 29.78,254.95 29.78,254.95 29.72,254.95 29.78,254.95 29.74,254.95 29.71,254.94 29.67,254.94 29.53,254.92 29.42,254.82 29.36,254.74 29.29,254.66 29.25,254.59 29.23,254.52 29.17,254.38 29.15,254.26 29.13,254.14 29.07,253.67 29.09,253.23 29.08,252.8 29.08,252.37 29.07,251.94 29.02,251.52 28.98,251.13 28.86,250.65 28.58,250.6 28.51,250.58 28.36,250.59 28.23,250.53 28.16,250.51 28.05,250.44 28.04,250.3 28.03,250.19 28.08,250.13 28.12,250.07 28.27,249.87 28.46,249.75 28.64,249.62 29,249.37 29.38,249.15 29.77,248.95 L 29.8,249 Z M 29.8,249" />
            <path id="sue09Canvas-bezier43" stroke="none" fill="rgb(51, 91, 113)" d="M 55.47,195.95 C 54.97,196.89 54.92,197.97 54.93,199.01 54.95,200.06 55.04,201.11 55.1,202.16 55.16,203.22 55.2,204.27 55.19,205.33 55.2,206.39 55.11,207.44 55.09,208.49 55.03,212.7 55.14,216.91 55.25,221.12 L 55.7,233.75 55.91,240.06 C 55.95,241.11 56,242.16 56.05,243.21 56.11,244.26 56.14,245.32 56.31,246.35 L 56.25,246.37 C 55.8,244.3 55.66,242.18 55.48,240.08 55.31,237.98 55.19,235.88 55.07,233.77 54.86,229.56 54.8,225.34 54.75,221.13 54.7,216.92 54.65,212.7 54.78,208.48 54.82,207.42 54.92,206.38 54.94,205.33 54.96,204.28 54.95,203.23 54.91,202.17 54.88,201.12 54.81,200.07 54.81,199.01 54.82,197.97 54.89,196.86 55.41,195.93 L 55.47,195.95 Z M 55.47,195.95" />
            <path id="sue09Canvas-bezier44" stroke="none" fill="rgb(51, 91, 113)" d="M 55.61,247.93 C 56.1,250.08 56.46,252.26 56.64,254.46 56.73,255.57 56.81,256.68 56.69,257.8 56.62,258.35 56.52,258.91 56.35,259.45 56.18,259.99 55.96,260.52 55.6,260.96 L 55.55,260.93 C 55.93,259.9 56,258.82 56.06,257.75 56.1,256.67 56.16,255.58 56.14,254.49 56.11,253.4 56.04,252.31 55.93,251.22 55.83,250.12 55.71,249.03 55.54,247.95 L 55.61,247.93 Z M 55.61,247.93" />
            <path id="sue09Canvas-bezier45" stroke="none" fill="rgb(51, 91, 113)" d="M 66.11,157.73 C 68.05,157.51 70.03,157.39 72,157.68 72.49,157.77 72.98,157.89 73.45,158.11 73.9,158.36 74.31,158.57 74.75,158.79 75.63,159.22 76.52,159.62 77.41,160.02 79.2,160.8 81.02,161.49 82.84,162.2 83.74,162.57 84.66,162.89 85.58,163.19 86.04,163.34 86.51,163.47 86.98,163.57 87.45,163.68 87.93,163.76 88.41,163.69 L 88.42,163.75 C 87.94,163.92 87.43,163.89 86.93,163.86 86.44,163.81 85.95,163.72 85.46,163.61 84.5,163.4 83.56,163.1 82.62,162.79 80.75,162.15 78.97,161.32 77.2,160.47 76.31,160.05 75.44,159.61 74.57,159.15 74.14,158.93 73.69,158.67 73.29,158.43 72.88,158.22 72.41,158.09 71.94,157.99 70.04,157.62 68.06,157.66 66.12,157.79 L 66.11,157.73 Z M 66.11,157.73" />
            <path id="sue09Canvas-bezier46" stroke="none" fill="rgb(51, 91, 113)" d="M 87.9,172.39 C 88.31,173.52 88.77,174.61 89.21,175.72 89.43,176.28 89.7,176.82 89.8,177.43 89.9,178.03 89.94,178.71 89.64,179.28 L 89.58,179.27 C 89.53,178.66 89.36,178.13 89.19,177.58 89.01,177.03 88.9,176.45 88.74,175.88 88.4,174.74 88.07,173.58 87.84,172.41 L 87.9,172.39 Z M 87.9,172.39" />
            <path id="sue09Canvas-bezier47" stroke="none" fill="rgb(51, 91, 113)" d="M 86.34,164.83 C 86.53,165.11 86.7,165.39 86.85,165.68 86.93,165.82 87.06,165.95 87.06,166.12 87.08,166.29 87.06,166.46 86.95,166.67 L 86.88,166.69 C 86.67,166.58 86.56,166.45 86.47,166.31 86.37,166.17 86.4,166 86.38,165.84 86.33,165.51 86.3,165.18 86.28,164.85 L 86.34,164.83 Z M 86.34,164.83" />
            <path id="sue09Canvas-bezier48" stroke="none" fill="rgb(51, 91, 113)" d="M 76.3,180.58 C 77.58,180.53 78.84,180.63 80.12,180.64 81.38,180.68 82.65,180.7 83.91,180.66 84.54,180.63 85.17,180.59 85.77,180.49 86.08,180.44 86.34,180.38 86.62,180.26 86.93,180.15 87.23,180.05 87.54,179.96 88.17,179.79 88.81,179.64 89.49,179.65 89.82,179.66 90.18,179.7 90.5,179.87 90.82,180.05 91,180.43 90.96,180.75 L 90.9,180.76 C 90.83,180.45 90.64,180.21 90.37,180.13 90.11,180.04 89.81,180.05 89.51,180.09 88.92,180.17 88.32,180.35 87.73,180.55 87.44,180.65 87.14,180.76 86.85,180.87 86.55,181 86.18,181.06 85.86,181.1 85.2,181.17 84.56,181.17 83.92,181.16 82.64,181.14 81.37,181.05 80.1,180.95 78.83,180.86 77.56,180.68 76.31,180.64 L 76.3,180.58 Z M 76.3,180.58" />
            <path id="sue09Canvas-bezier49" stroke="none" fill="rgb(51, 91, 113)" d="M 88.14,182.28 C 88.72,182.05 89.31,181.84 89.92,181.65 90.23,181.57 90.54,181.49 90.86,181.44 91.18,181.4 91.5,181.32 91.91,181.45 92.01,181.48 92.14,181.56 92.23,181.7 92.31,181.85 92.3,182.01 92.28,182.12 92.22,182.35 92.13,182.49 92.07,182.62 91.96,182.86 91.88,183.13 91.83,183.39 91.72,183.92 91.8,184.5 92.04,185.09 L 92,185.13 C 91.46,184.74 91.15,184.03 91.2,183.32 91.22,182.96 91.35,182.63 91.53,182.32 91.62,182.18 91.71,182.06 91.74,181.99 91.74,181.9 91.79,181.98 91.72,181.91 91.53,181.82 91.2,181.82 90.91,181.84 90.6,181.86 90.3,181.91 89.99,181.96 89.38,182.06 88.77,182.19 88.16,182.34 L 88.14,182.28 Z M 88.14,182.28" />
            <path id="sue09Canvas-bezier50" stroke="none" fill="rgb(51, 91, 113)" d="M 92.52,188.74 C 93.91,191.21 95.08,193.79 96.2,196.39 97.3,198.99 98.32,201.64 99.27,204.3 101.15,209.64 102.75,215.08 104.14,220.56 104.83,223.31 105.47,226.06 106.07,228.83 106.64,231.6 107.16,234.38 107.64,237.17 108.53,242.76 109.24,248.38 109.66,254.02 L 109.6,254.03 C 108.83,248.43 108.02,242.83 107.02,237.28 106.55,234.5 106.03,231.72 105.46,228.96 104.91,226.19 104.3,223.43 103.65,220.68 102.32,215.19 100.79,209.75 98.97,204.4 98.06,201.73 97.09,199.08 96.02,196.46 94.95,193.85 93.81,191.25 92.46,188.77 L 92.52,188.74 Z M 92.52,188.74" />
            <path id="sue09Canvas-bezier51" stroke="none" fill="rgb(51, 91, 113)" d="M 109.55,254.43 C 110.4,257.54 110.92,260.74 111,263.98 111.04,265.59 110.99,267.23 110.62,268.83 110.24,270.41 109.62,271.99 108.54,273.22 L 108.49,273.19 C 109.26,271.77 109.74,270.26 110.01,268.7 110.29,267.15 110.47,265.57 110.5,263.98 110.53,262.39 110.43,260.79 110.25,259.2 110.08,257.6 109.84,256.02 109.49,254.45 L 109.55,254.43 Z M 109.55,254.43" />
            <path id="sue09Canvas-bezier52" stroke="none" fill="rgb(51, 91, 113)" d="M 83.49,261.79 C 83.09,262.19 82.77,262.74 82.82,263.29 82.87,263.84 83.33,264.25 83.8,264.53 84.27,264.82 84.89,264.93 85.36,265.47 85.47,265.6 85.56,265.81 85.55,266.01 85.54,266.21 85.46,266.38 85.38,266.52 85.21,266.8 85.02,267.02 84.88,267.25 84.75,267.48 84.68,267.7 84.73,267.9 84.77,268.09 84.92,268.29 85.11,268.46 85.28,268.63 85.57,268.81 85.78,269.12 85.88,269.27 85.99,269.48 85.96,269.74 85.93,270.01 85.76,270.19 85.63,270.31 85.04,270.73 84.47,270.82 83.96,271.05 83.7,271.16 83.45,271.29 83.38,271.48 83.3,271.68 83.46,271.96 83.62,272.19 L 83.58,272.24 C 83.35,272.06 83.08,271.83 83.1,271.42 83.18,271.03 83.51,270.83 83.75,270.67 84.26,270.34 84.87,270.14 85.21,269.84 85.37,269.67 85.35,269.69 85.24,269.48 85.12,269.3 84.92,269.15 84.67,268.9 84.45,268.67 84.23,268.38 84.17,267.99 84.11,267.6 84.28,267.24 84.46,266.98 84.81,266.48 85.32,266.05 85.03,265.71 84.74,265.31 84.14,265.13 83.64,264.79 83.14,264.46 82.65,263.96 82.63,263.3 82.62,262.66 83.01,262.13 83.45,261.75 L 83.49,261.79 Z M 83.49,261.79" />
            <path id="sue09Canvas-bezier53" stroke="none" fill="rgb(51, 91, 113)" d="M 54.53,200.16 C 59.87,209.82 65.04,219.56 70.01,229.41 71.25,231.87 72.48,234.34 73.69,236.82 74.88,239.31 76.05,241.81 77.19,244.32 78.29,246.85 79.38,249.39 80.36,251.97 81.33,254.55 82.27,257.16 82.83,259.87 L 82.76,259.88 C 82.42,258.55 81.96,257.25 81.48,255.96 81,254.67 80.49,253.4 79.95,252.13 78.89,249.59 77.77,247.07 76.61,244.58 75.48,242.07 74.32,239.57 73.13,237.09 71.96,234.59 70.77,232.11 69.56,229.63 67.13,224.68 64.65,219.76 62.13,214.86 59.62,209.95 57.07,205.06 54.48,200.19 L 54.53,200.16 Z M 54.53,200.16" />
            <path id="sue09Canvas-bezier54" stroke="none" fill="rgb(51, 91, 113)" d="M 64.85,163.76 C 68.16,163.69 71.47,163.67 74.78,163.72 76.44,163.74 78.09,163.74 79.75,163.89 80.57,163.98 81.4,164.06 82.22,164.19 83.04,164.33 83.88,164.46 84.65,164.81 L 84.62,164.87 C 84.23,164.77 83.82,164.73 83.41,164.7 83,164.67 82.59,164.64 82.18,164.62 81.35,164.58 80.53,164.54 79.71,164.51 78.06,164.45 76.41,164.31 74.76,164.22 71.46,164.06 68.16,163.93 64.85,163.82 L 64.85,163.76 64.85,163.76 Z M 64.85,163.76" />
            <path id="sue09Canvas-bezier55" stroke="none" fill="rgb(51, 91, 113)" d="M 50.82,161.95 C 47.14,161.28 43.48,160.55 39.82,159.76 38,159.37 36.16,159.01 34.36,158.51 32.56,157.98 30.75,157.48 29.05,156.67 L 29.07,156.61 C 30.88,157.08 32.7,157.48 34.51,157.9 36.33,158.32 38.13,158.82 39.94,159.27 43.56,160.17 47.19,161.04 50.83,161.89 L 50.82,161.95 Z M 50.82,161.95" />
            <path id="sue09Canvas-bezier56" stroke="none" fill="rgb(51, 91, 113)" d="M 66.13,155.2 C 65.61,155.71 65.03,156.17 64.42,156.57 64.11,156.77 63.82,157.02 63.47,157.13 63.11,157.25 62.75,157.34 62.35,157.3 L 62.32,157.25 C 62.6,156.96 62.89,156.76 63.2,156.57 63.5,156.37 63.85,156.29 64.17,156.14 64.82,155.84 65.47,155.52 66.09,155.15 L 66.13,155.2 Z M 66.13,155.2" />
            <path id="sue09Canvas-bezier57" stroke="none" fill="rgb(51, 91, 113)" d="M 59.43,32.57 C 59.17,32.38 58.98,32.07 58.94,31.73 58.92,31.56 58.91,31.38 58.99,31.21 59.07,31.06 59.18,30.91 59.36,30.85 L 59.38,30.87 C 59.35,31.05 59.3,31.18 59.28,31.32 59.26,31.45 59.21,31.57 59.2,31.72 59.18,32 59.26,32.3 59.46,32.54 L 59.43,32.57 Z M 59.43,32.57" />
            <path id="sue09Canvas-bezier58" stroke="none" fill="rgb(51, 91, 113)" d="M 60.9,30.62 C 61.23,30.77 61.5,31.1 61.58,31.49 61.62,31.68 61.64,31.89 61.56,32.08 61.47,32.26 61.34,32.43 61.15,32.51 L 61.13,32.49 C 61.18,32.3 61.24,32.15 61.26,31.99 61.29,31.84 61.33,31.69 61.33,31.52 61.31,31.2 61.16,30.87 60.88,30.64 L 60.9,30.62 Z M 60.9,30.62" />
            <path id="sue09Canvas-bezier59" stroke="none" fill="rgb(51, 91, 113)" d="M 74.04,29.46 C 73.68,29.44 73.31,29.23 73.1,28.89 72.99,28.73 72.9,28.53 72.91,28.33 72.93,28.13 72.99,27.93 73.14,27.79 L 73.17,27.8 C 73.19,28 73.19,28.15 73.23,28.31 73.25,28.47 73.26,28.62 73.32,28.77 73.45,29.07 73.71,29.32 74.05,29.43 L 74.04,29.46 Z M 74.04,29.46" />
            <path id="sue09Canvas-bezier60" stroke="none" fill="rgb(51, 91, 113)" d="M 74.27,27.02 C 74.5,27 74.75,27.05 74.97,27.18 75.19,27.3 75.37,27.49 75.48,27.72 75.6,27.94 75.67,28.23 75.6,28.48 75.54,28.73 75.39,28.97 75.16,29.08 L 75.14,29.06 C 75.22,28.84 75.29,28.63 75.29,28.43 75.31,28.22 75.32,28.03 75.25,27.82 75.12,27.42 74.73,27.1 74.27,27.05 L 74.27,27.02 Z M 74.27,27.02" />
            <g id="sue09Canvas-group3">
                <path id="sue09Canvas-bezier61" stroke="none" fill="rgb(51, 91, 113)" d="M 108.21,274.62 C 107.87,279.59 107.39,284.54 106.83,289.48 106.27,294.42 105.62,299.36 104.85,304.27 104.07,309.19 103.18,314.08 102.08,318.94 100.98,323.79 99.7,328.62 97.87,333.27 L 97.78,333.5 97.56,333.38 C 96.15,332.64 94.57,332.17 93.01,331.7 91.45,331.25 89.87,330.84 88.28,330.47 85.1,329.72 81.9,329.05 78.69,328.46 L 78.43,328.41 78.44,328.14 C 78.66,323.57 78.88,318.98 79.02,314.4 79.09,312.11 79.15,309.82 79.17,307.53 79.19,305.24 79.23,302.95 79.02,300.68 78.94,298.33 79.28,296.05 79.62,293.77 79.99,291.5 80.44,289.25 80.96,287.01 81.47,284.77 82.03,282.54 82.71,280.35 83.05,279.25 83.41,278.16 83.81,277.08 84.23,276.01 84.64,274.93 85.29,273.97 L 85.34,274 C 84.72,274.97 84.34,276.06 83.96,277.13 83.58,278.22 83.25,279.31 82.95,280.42 82.34,282.63 81.79,284.85 81.31,287.09 80.82,289.33 80.4,291.58 80.07,293.84 79.76,296.1 79.45,298.4 79.57,300.64 79.81,302.93 79.8,305.24 79.8,307.53 79.77,309.83 79.72,312.13 79.64,314.42 79.49,319.01 79.3,323.59 79.04,328.18 L 78.8,327.87 C 82.01,328.5 85.21,329.19 88.4,329.97 89.99,330.36 91.58,330.78 93.15,331.25 94.72,331.73 96.29,332.2 97.78,333 L 97.46,333.11 C 99.3,328.51 100.6,323.69 101.73,318.86 102.85,314.02 103.77,309.13 104.58,304.23 105.38,299.32 106.07,294.4 106.67,289.46 107.26,284.52 107.78,279.58 108.15,274.62 L 108.21,274.62 Z M 108.21,274.62" />
                <path id="sue09Canvas-bezier62" stroke="none" fill="rgb(51, 91, 113)" d="M 85.88,272.14 C 86.56,271.4 87.49,270.93 88.48,270.69 89.46,270.46 90.51,270.5 91.5,270.68 92.45,270.85 93.41,270.84 94.34,270.72 95.25,270.58 96.22,270.33 96.9,269.65 L 96.96,269.67 C 96.77,270.18 96.33,270.5 95.89,270.78 95.45,271.05 94.95,271.22 94.44,271.33 93.42,271.55 92.37,271.41 91.4,271.18 90.46,270.94 89.49,270.84 88.54,271 87.59,271.14 86.65,271.52 85.93,272.18 L 85.88,272.14 Z M 85.88,272.14" />
                <path id="sue09Canvas-bezier63" stroke="none" fill="rgb(51, 91, 113)" d="M 87.68,267.19 C 88.61,267.48 89.64,267.6 90.57,267.37 91.03,267.26 91.46,267.05 91.8,266.74 91.97,266.58 92.12,266.41 92.25,266.21 92.39,266 92.56,265.79 92.73,265.6 93.44,264.83 94.28,264.22 95.2,263.78 96.12,263.36 97.08,263.03 98.09,262.89 L 98.11,262.95 C 97.21,263.41 96.33,263.85 95.49,264.34 94.65,264.82 93.79,265.29 93.09,265.95 92.92,266.11 92.77,266.28 92.62,266.47 92.46,266.69 92.27,266.88 92.06,267.05 91.65,267.39 91.14,267.59 90.63,267.68 89.6,267.84 88.58,267.62 87.65,267.25 L 87.68,267.19 Z M 87.68,267.19" />
                <path id="sue09Canvas-bezier64" stroke="none" fill="rgb(51, 91, 113)" d="M 56.96,252.41 C 56.85,255.19 56.62,257.95 56.29,260.71 56.13,262.09 55.98,263.47 55.68,264.83 55.37,266.19 55.04,267.54 54.52,268.84 L 54.46,268.83 C 54.63,267.44 54.87,266.09 55.07,264.72 55.28,263.35 55.57,262 55.79,260.64 56.24,257.91 56.61,255.16 56.9,252.41 L 56.96,252.41 Z M 56.96,252.41" />
                <path id="sue09Canvas-bezier65" stroke="none" fill="rgb(51, 91, 113)" d="M 53.93,270.79 C 53.66,275.33 53.55,279.89 53.79,284.43 53.93,286.7 54.12,288.98 54.71,291.17 55.02,292.27 55.17,293.41 55.31,294.54 55.44,295.68 55.53,296.81 55.61,297.95 55.92,302.5 56.01,307.05 56.04,311.61 56.05,316.17 56.06,320.7 55.84,325.28 L 55.83,325.58 55.54,325.47 C 54.88,325.22 54.12,325.2 53.37,325.23 52.63,325.26 51.88,325.37 51.14,325.5 49.65,325.77 48.18,326.17 46.73,326.61 43.83,327.51 40.98,328.58 38.19,329.77 L 37.89,329.89 37.8,329.59 C 36.49,325.31 35.47,320.97 34.57,316.6 33.69,312.24 32.96,307.83 32.47,303.4 31.97,298.97 31.65,294.52 31.59,290.06 31.51,285.61 31.74,281.14 32.3,276.73 L 32.37,276.73 C 31.92,281.16 31.84,285.61 31.95,290.05 32.08,294.5 32.45,298.93 33.02,303.34 33.59,307.74 34.31,312.13 35.19,316.48 36.08,320.83 37.1,325.16 38.35,329.42 L 37.96,329.24 C 40.79,328.06 43.65,327.01 46.59,326.13 48.06,325.69 49.54,325.3 51.06,325.03 51.81,324.9 52.58,324.8 53.36,324.77 54.13,324.74 54.93,324.76 55.7,325.05 L 55.4,325.24 C 55.64,320.73 55.66,316.15 55.67,311.61 55.67,307.06 55.61,302.51 55.34,297.97 55.26,296.83 55.18,295.7 55.05,294.57 54.93,293.44 54.78,292.31 54.49,291.23 53.91,289 53.74,286.71 53.62,284.44 53.42,279.89 53.56,275.33 53.87,270.79 L 53.93,270.79 Z M 53.93,270.79" />
                <path id="sue09Canvas-bezier66" stroke="none" fill="rgb(51, 91, 113)" d="M 33.46,273.89 C 33.16,273.3 32.9,272.7 32.77,272.03 32.7,271.72 32.69,271.32 32.74,271.02 L 32.81,270.05 C 32.89,268.76 32.93,267.46 32.97,266.16 33.01,264.86 33.09,263.57 33.17,262.27 33.24,260.98 33.39,259.68 33.34,258.4 L 33.41,258.38 C 33.58,259.02 33.61,259.68 33.66,260.33 33.7,260.99 33.72,261.64 33.72,262.29 33.72,263.59 33.69,264.9 33.59,266.19 33.5,267.49 33.39,268.79 33.27,270.09 33.24,270.41 33.2,270.74 33.16,271.07 33.14,271.25 33.1,271.38 33.1,271.53 33.08,271.68 33.09,271.83 33.1,271.99 33.15,272.61 33.31,273.25 33.52,273.86 L 33.46,273.89 Z M 33.46,273.89" />
                <path id="sue09Canvas-bezier67" stroke="none" fill="rgb(51, 91, 113)" d="M 40.34,330.43 C 41.41,334.15 42.41,337.89 43.32,341.65 43.78,343.53 44.25,345.41 44.56,347.33 44.7,348.29 44.85,349.25 44.94,350.22 45.01,351.18 45.09,352.16 44.96,353.14 L 44.89,353.13 C 44.84,352.17 44.67,351.22 44.5,350.28 44.33,349.33 44.15,348.38 43.94,347.44 L 42.83,341.76 C 42.04,337.98 41.18,334.21 40.28,330.45 L 40.34,330.43 Z M 40.34,330.43" />
                <path id="sue09Canvas-bezier68" stroke="none" fill="rgb(51, 91, 113)" d="M 45.84,354.14 C 45.75,356.1 45.58,358.06 45.31,360.01 45.17,360.98 45.05,361.97 44.77,362.92 44.49,363.86 44.14,364.82 43.54,365.63 L 43.49,365.6 C 43.77,364.66 43.97,363.72 44.16,362.77 44.36,361.82 44.61,360.88 44.81,359.92 45.19,358.01 45.51,356.08 45.78,354.14 L 45.84,354.14 Z M 45.84,354.14" />
                <path id="sue09Canvas-bezier69" stroke="none" fill="rgb(51, 91, 113)" d="M 54.58,327.4 C 54.82,331.41 55,335.43 55.13,339.45 55.19,341.46 55.28,343.47 55.23,345.49 55.16,347.5 55.12,349.52 54.73,351.52 L 54.66,351.51 C 54.69,349.5 54.65,347.49 54.61,345.49 54.58,343.48 54.63,341.47 54.63,339.46 54.61,335.44 54.58,331.42 54.52,327.4 L 54.58,327.4 Z M 54.58,327.4" />
                <path id="sue09Canvas-bezier70" stroke="none" fill="rgb(51, 91, 113)" d="M 56.37,351.56 C 56.94,352.32 57.32,353.24 57.38,354.23 57.41,354.72 57.4,355.25 57.17,355.72 56.96,356.18 56.62,356.58 56.18,356.82 L 56.14,356.78 C 56.31,356.32 56.47,355.91 56.59,355.5 56.7,355.08 56.85,354.68 56.88,354.23 56.91,353.79 56.87,353.34 56.77,352.9 56.67,352.45 56.53,352 56.32,351.59 L 56.37,351.56 Z M 56.37,351.56" />
                <path id="sue09Canvas-bezier71" stroke="none" fill="rgb(51, 91, 113)" d="M 56.11,359.17 C 55.84,361.04 55.44,362.89 54.83,364.69 54.52,365.59 54.15,366.47 53.64,367.29 53.14,368.09 52.48,368.92 51.47,369.26 51.23,369.34 50.93,369.37 50.71,369.38 L 50.01,369.43 48.6,369.54 C 47.65,369.61 46.7,369.64 45.73,369.55 45.25,369.49 44.77,369.41 44.29,369.26 43.83,369.11 43.33,368.89 42.99,368.47 42.64,368.05 42.53,367.49 42.59,367 42.66,366.51 42.84,366.06 43.06,365.64 L 43.12,365.66 C 42.99,366.11 42.87,366.57 42.88,367.02 42.87,367.47 43.01,367.89 43.31,368.17 43.92,368.74 44.89,368.87 45.78,368.92 46.7,368.98 47.63,368.95 48.57,368.92 L 49.98,368.87 50.69,368.85 C 50.94,368.84 51.11,368.83 51.33,368.78 52.15,368.55 52.8,367.83 53.3,367.07 53.81,366.3 54.2,365.45 54.54,364.58 55.21,362.84 55.7,361.01 56.04,359.17 L 56.11,359.17 Z M 56.11,359.17" />
                <path id="sue09Canvas-bezier72" stroke="none" fill="rgb(51, 91, 113)" d="M 40.92,369.13 C 40.36,370.59 39.98,372.13 39.93,373.67 39.92,374.06 39.94,374.45 39.99,374.83 40.01,375.02 40.04,375.21 40.08,375.4 40.12,375.59 40.2,375.72 40.31,375.87 40.79,376.43 41.56,376.69 42.29,376.88 43.79,377.23 45.36,377.27 46.9,377.18 48.44,377.07 49.99,376.83 51.42,376.29 52.12,376.01 52.82,375.65 53.2,375.07 53.62,374.46 53.93,373.75 54.22,373.04 54.78,371.6 55.22,370.11 55.69,368.62 55.94,367.88 56.17,367.13 56.45,366.39 56.6,366.02 56.74,365.65 56.97,365.28 57.04,365.18 57.1,365.09 57.23,364.99 57.26,364.97 57.3,364.95 57.34,364.93 57.33,364.93 57.37,364.91 57.39,364.9 57.44,364.88 57.42,364.88 57.45,364.86 57.55,364.77 57.64,364.61 57.72,364.45 58.03,363.77 58.18,363 58.3,362.24 58.36,361.86 58.4,361.47 58.42,361.08 58.43,360.89 58.43,360.7 58.42,360.51 58.41,360.32 58.39,360.11 58.3,359.96 L 58.34,359.92 C 58.58,360.28 58.57,360.7 58.6,361.08 58.62,361.48 58.61,361.88 58.58,362.27 58.52,363.06 58.41,363.84 58.12,364.62 58.04,364.81 57.95,365.01 57.78,365.2 57.74,365.24 57.64,365.31 57.61,365.33 L 57.52,365.38 C 57.53,365.38 57.52,365.38 57.51,365.38 57.48,365.41 57.43,365.47 57.39,365.54 57.22,365.84 57.09,366.21 56.96,366.57 56.71,367.3 56.51,368.05 56.29,368.81 55.85,370.3 55.4,371.81 54.79,373.28 54.48,374.01 54.14,374.73 53.66,375.4 53.13,376.13 52.34,376.47 51.6,376.76 50.08,377.29 48.5,377.5 46.92,377.58 45.35,377.64 43.76,377.58 42.21,377.18 41.46,376.96 40.65,376.69 40.12,376.02 39.99,375.86 39.89,375.64 39.85,375.44 39.82,375.25 39.79,375.05 39.77,374.85 39.73,374.46 39.73,374.06 39.75,373.67 39.84,372.09 40.26,370.56 40.86,369.11 L 40.92,369.13 Z M 40.92,369.13" />
                <path id="sue09Canvas-bezier73" stroke="none" fill="rgb(51, 91, 113)" d="M 79.61,330.5 C 79.12,334.9 78.48,339.29 77.64,343.65 77.22,345.83 76.79,348.02 76.13,350.15 75.79,351.21 75.43,352.26 74.97,353.29 74.5,354.29 74,355.33 73.17,356.1 L 73.12,356.06 C 73.46,355.63 73.73,355.15 73.95,354.65 74.18,354.15 74.38,353.64 74.57,353.12 74.93,352.09 75.25,351.04 75.53,349.97 76.11,347.85 76.67,345.71 77.15,343.55 77.63,341.39 78.06,339.22 78.45,337.04 78.85,334.87 79.22,332.68 79.55,330.49 L 79.61,330.5 Z M 79.61,330.5" />
                <path id="sue09Canvas-bezier74" stroke="none" fill="rgb(51, 91, 113)" d="M 71.4,358.88 C 71.27,360.19 71.28,361.52 71.44,362.82 71.62,364.11 71.94,365.43 72.72,366.48 73.11,367 73.63,367.41 74.23,367.63 74.83,367.87 75.47,367.86 76.14,367.85 77.47,367.85 78.79,367.95 80.11,368.09 82.74,368.4 85.35,368.89 87.91,369.57 89.19,369.91 90.46,370.3 91.7,370.79 92.32,371.04 92.93,371.31 93.52,371.63 93.82,371.79 94.11,371.99 94.38,372.14 94.65,372.3 94.95,372.44 95.24,372.58 97.63,373.61 100.2,374.26 102.78,374.69 105.35,375.11 108.01,375.33 110.54,374.83 111.78,374.58 113.04,374.1 113.84,373.16 114.24,372.69 114.51,372.12 114.59,371.52 114.66,370.91 114.55,370.28 114.31,369.7 113.81,368.54 112.88,367.56 111.8,366.86 110.72,366.16 109.43,365.68 108.11,365.79 L 108.1,365.73 C 109.43,365.54 110.79,365.95 111.95,366.62 113.09,367.3 114.12,368.27 114.71,369.53 115,370.15 115.16,370.86 115.08,371.57 115.01,372.28 114.7,372.96 114.26,373.5 113.35,374.62 111.98,375.14 110.67,375.44 108,375.97 105.3,375.72 102.68,375.3 100.06,374.82 97.48,374.14 95.03,373.03 94.73,372.89 94.43,372.74 94.13,372.57 93.83,372.39 93.58,372.21 93.29,372.05 92.73,371.73 92.14,371.46 91.53,371.21 90.32,370.72 89.07,370.31 87.8,369.96 85.27,369.26 82.68,368.74 80.07,368.41 78.77,368.24 77.45,368.12 76.14,368.1 75.5,368.11 74.78,368.11 74.15,367.84 73.51,367.59 72.97,367.14 72.57,366.59 71.78,365.49 71.48,364.14 71.32,362.84 71.18,361.52 71.19,360.19 71.33,358.88 L 71.4,358.88 Z M 71.4,358.88" />
                <path id="sue09Canvas-bezier75" stroke="none" fill="rgb(51, 91, 113)" d="M 75.86,358.81 C 78.52,359.57 81.15,360.39 83.77,361.28 86.38,362.19 88.99,363.11 91.47,364.41 92.66,365.13 93.88,365.69 95.16,366.18 96.44,366.67 97.74,367.1 99.06,367.46 100.37,367.83 101.71,368.12 103.06,368.19 103.73,368.22 104.42,368.2 105.01,367.92 105.29,367.79 105.53,367.56 105.63,367.25 105.73,366.95 105.71,366.6 105.64,366.26 L 105.7,366.25 C 105.81,366.57 105.89,366.94 105.81,367.3 105.73,367.67 105.46,367.98 105.14,368.17 104.49,368.54 103.76,368.6 103.06,368.63 101.64,368.64 100.26,368.38 98.9,368.07 97.55,367.73 96.22,367.29 94.93,366.76 93.65,366.23 92.37,365.6 91.22,364.85 88.84,363.52 86.24,362.54 83.67,361.57 81.08,360.61 78.47,359.71 75.84,358.87 L 75.86,358.81 Z M 75.86,358.81" />
                <path id="sue09Canvas-bezier76" stroke="none" fill="rgb(51, 91, 113)" d="M 96.16,334.42 C 94.54,336.88 93.3,339.6 92.48,342.42 91.66,345.23 91.33,348.22 91.87,351.09 92.4,353.96 93.91,356.55 95.94,358.62 97.96,360.72 100.5,362.27 103.14,363.6 L 103.11,363.65 C 100.33,362.65 97.67,361.15 95.5,359.06 93.32,356.97 91.85,354.15 91.38,351.18 90.88,348.2 91.3,345.16 92.18,342.33 93.09,339.5 94.41,336.81 96.11,334.38 L 96.16,334.42 Z M 96.16,334.42" />
            </g>
            <path id="sue09Canvas-bezier77" stroke="none" fill="rgb(51, 91, 113)" d="M 104.59,134.32 C 104.15,135.73 103.79,137.15 103.52,138.6 103.38,139.31 103.29,140.04 103.15,140.77 103.01,141.5 102.85,142.22 102.67,142.93 101.96,145.8 101.11,148.62 100.2,151.42 99.29,154.22 98.34,157.02 97.22,159.75 96.65,161.11 96.07,162.47 95.42,163.79 95.09,164.46 94.76,165.12 94.39,165.76 94.2,166.08 94.01,166.4 93.8,166.71 93.58,167.01 93.38,167.33 93.04,167.53 L 93.01,167.48 C 93.29,167.26 93.46,166.92 93.65,166.61 93.82,166.29 93.98,165.96 94.14,165.63 94.45,164.97 94.74,164.3 95.02,163.62 95.58,162.26 96.13,160.9 96.64,159.52 97.68,156.77 98.75,154.04 99.72,151.26 100.69,148.49 101.6,145.69 102.37,142.86 102.56,142.15 102.74,141.44 102.9,140.72 103.06,140.01 103.18,139.28 103.34,138.56 103.65,137.12 104.05,135.7 104.52,134.3 L 104.59,134.32 Z M 104.59,134.32" />
            <path id="sue09Canvas-bezier78" stroke="none" fill="rgb(51, 91, 113)" d="M 90.93,167.54 C 89.87,167.42 88.8,167.38 87.74,167.46 87.22,167.5 86.69,167.57 86.2,167.74 85.96,167.83 85.73,167.94 85.55,168.09 85.38,168.26 85.19,168.47 85,168.66 84.26,169.43 83.5,170.18 82.69,170.89 82.29,171.25 81.88,171.59 81.44,171.91 81,172.23 80.55,172.55 79.99,172.74 79.02,172.86 78.97,174.28 79.46,174.89 79.59,175.03 79.72,175.09 79.88,175.07 79.95,175.06 80.08,175.02 80.21,174.98 L 80.6,174.87 82.15,174.46 C 83.17,174.18 84.18,173.86 85.16,173.48 86.13,173.09 87.12,172.65 87.85,171.88 L 87.9,171.92 C 87.27,172.81 86.29,173.38 85.33,173.85 84.36,174.34 83.33,174.68 82.32,175.02 81.81,175.19 81.29,175.34 80.78,175.48 L 80.4,175.6 C 80.28,175.63 80.15,175.68 79.96,175.71 79.58,175.78 79.17,175.57 78.97,175.3 78.55,174.75 78.5,174.12 78.6,173.53 78.66,173.23 78.78,172.93 79.01,172.68 79.12,172.56 79.26,172.45 79.41,172.38 79.49,172.34 79.59,172.3 79.64,172.29 L 79.83,172.24 C 80.29,172.11 80.74,171.82 81.17,171.53 81.6,171.23 82.01,170.91 82.42,170.57 83.23,169.9 84.01,169.17 84.77,168.43 84.97,168.24 85.14,168.07 85.36,167.87 85.59,167.69 85.86,167.58 86.12,167.49 86.65,167.34 87.19,167.29 87.73,167.26 88.81,167.23 89.88,167.32 90.94,167.47 L 90.93,167.54 Z M 90.93,167.54" />
            <path id="sue09Canvas-bezier79" stroke="none" fill="rgb(51, 91, 113)" d="M 114.06,147.18 C 110.53,152.71 106.85,158.15 103.2,163.59 101.38,166.32 99.59,169.07 97.81,171.81 97.37,172.49 96.93,173.18 96.53,173.88 96.34,174.23 96.13,174.61 96.05,174.92 95.99,175.33 95.85,175.77 95.68,176.14 95.35,176.91 94.92,177.63 94.45,178.31 94.21,178.65 93.96,178.97 93.69,179.29 93.42,179.6 93.15,179.92 92.79,180.15 L 92.76,180.1 C 93.35,179.56 93.78,178.84 94.21,178.15 94.63,177.46 95,176.73 95.27,175.98 95.41,175.6 95.51,175.24 95.56,174.84 95.67,174.36 95.87,174.01 96.05,173.63 96.43,172.89 96.85,172.18 97.28,171.48 99,168.67 100.91,166 102.78,163.31 106.53,157.92 110.33,152.58 114.01,147.15 L 114.06,147.18 Z M 114.06,147.18" />
            <path id="sue09Canvas-bezier80" stroke="none" fill="rgb(51, 91, 113)" d="M 48.41,36.48 C 48.13,36.66 48,36.98 48.02,37.3 48.03,37.62 48.12,37.94 48.23,38.24 48.46,38.85 48.77,39.42 49.08,39.99 49.72,41.14 50.4,42.26 50.96,43.45 51.24,44.04 51.49,44.66 51.65,45.3 51.8,45.94 51.88,46.63 51.72,47.3 51.56,47.97 51.12,48.56 50.57,48.95 50.29,49.16 49.99,49.29 49.77,49.5 49.54,49.7 49.35,49.95 49.23,50.23 48.98,50.79 48.97,51.44 49.04,52.07 49.12,52.71 49.28,53.33 49.46,53.95 49.83,55.2 50.3,56.42 50.73,57.66 51.16,58.89 51.56,60.15 51.84,61.44 52.12,62.73 52.26,64.08 52.11,65.41 51.97,66.75 51.47,68.07 50.66,69.16 50.26,69.71 49.79,70.2 49.28,70.64 48.76,71.09 48.2,71.42 47.75,71.86 46.82,72.7 46.12,73.79 45.81,75 45.5,76.21 45.55,77.5 45.79,78.75 46.24,81.28 47.36,83.66 48.39,86.06 48.9,87.27 49.44,88.47 49.76,89.76 49.9,90.41 50,91.09 49.82,91.76 49.73,92.08 49.54,92.39 49.28,92.61 49.03,92.84 48.72,92.98 48.4,93.08 L 48.38,93.02 C 49,92.81 49.53,92.34 49.65,91.71 49.79,91.1 49.66,90.45 49.48,89.83 49.12,88.6 48.55,87.42 47.99,86.24 46.88,83.88 45.71,81.49 45.17,78.87 44.92,77.56 44.86,76.17 45.21,74.84 45.54,73.51 46.32,72.31 47.33,71.4 47.84,70.93 48.42,70.59 48.89,70.19 49.38,69.78 49.83,69.33 50.21,68.82 50.98,67.82 51.45,66.61 51.61,65.35 51.92,62.81 51.16,60.24 50.34,57.79 49.93,56.55 49.47,55.32 49.11,54.05 48.94,53.42 48.78,52.77 48.71,52.11 48.64,51.45 48.65,50.74 48.94,50.1 49.09,49.78 49.31,49.5 49.57,49.27 49.84,49.04 50.16,48.91 50.4,48.72 50.92,48.37 51.32,47.85 51.47,47.24 51.64,46.63 51.58,45.98 51.43,45.35 51.29,44.73 51.05,44.12 50.79,43.53 50.26,42.34 49.59,41.21 48.97,40.05 48.67,39.48 48.36,38.89 48.14,38.27 48.03,37.96 47.95,37.64 47.94,37.3 47.93,36.97 48.08,36.61 48.37,36.43 L 48.41,36.48 Z M 48.41,36.48" />
            <path id="sue09Canvas-bezier81" stroke="none" fill="rgb(51, 91, 113)" d="M 56.39,44.57 C 56.9,45.91 57.3,47.31 57.49,48.74 57.58,49.45 57.62,50.18 57.49,50.91 57.38,51.62 57.02,52.37 56.35,52.73 56.12,52.92 56.1,53.31 56.12,53.65 56.15,53.99 56.23,54.34 56.32,54.68 56.51,55.37 56.75,56.04 57.01,56.71 57.53,58.05 58.1,59.37 58.65,60.7 59.73,63.36 60.87,66.03 61.34,68.92 61.45,69.64 61.5,70.38 61.42,71.12 61.33,71.85 61.08,72.62 60.54,73.2 60.01,73.78 59.23,74.08 58.51,74.21 57.82,74.36 57.15,74.56 56.51,74.85 55.24,75.43 54.15,76.38 53.53,77.61 52.9,78.83 52.74,80.27 52.98,81.63 53.21,82.99 53.8,84.29 54.64,85.4 55.48,86.52 56.56,87.43 57.79,88.14 59.06,88.95 60.09,90.19 60.49,91.66 60.89,93.12 60.71,94.67 60.21,96.04 59.71,97.42 58.93,98.69 57.95,99.77 56.97,100.84 55.79,101.77 54.41,102.24 L 54.39,102.18 C 55.73,101.64 56.83,100.67 57.74,99.58 58.65,98.49 59.36,97.24 59.79,95.9 60.22,94.57 60.36,93.13 59.96,91.81 59.58,90.49 58.63,89.39 57.46,88.67 54.91,87.23 52.86,84.69 52.37,81.73 52.13,80.26 52.31,78.69 53.03,77.35 53.73,76.01 54.94,74.99 56.3,74.4 56.98,74.09 57.7,73.88 58.42,73.75 59.11,73.63 59.75,73.37 60.21,72.89 60.67,72.41 60.9,71.75 60.99,71.07 61.07,70.38 61.03,69.67 60.94,68.97 60.51,66.17 59.41,63.48 58.36,60.81 57.83,59.48 57.27,58.15 56.77,56.8 56.52,56.12 56.29,55.44 56.11,54.74 56.02,54.39 55.94,54.03 55.92,53.66 55.91,53.31 55.89,52.87 56.25,52.58 56.88,52.24 57.21,51.57 57.34,50.88 57.47,50.18 57.44,49.46 57.37,48.75 57.2,47.33 56.82,45.94 56.33,44.59 L 56.39,44.57 Z M 56.39,44.57" />
            <path id="sue09Canvas-bezier82" stroke="none" fill="rgb(51, 91, 113)" d="M 54.52,49.49 C 54.12,50.29 54.03,51.19 54.05,52.07 54.08,52.94 54.23,53.82 54.53,54.64 54.68,55.04 54.87,55.45 55.15,55.72 55.22,55.8 55.28,55.76 55.44,55.97 55.53,56.12 55.54,56.24 55.55,56.37 55.57,56.61 55.56,56.84 55.54,57.07 55.47,57.97 55.32,58.85 55.2,59.73 54.96,61.49 54.8,63.25 54.87,64.99 54.9,65.85 55.03,66.72 55.33,67.51 55.63,68.31 56.17,69.03 56.92,69.51 L 56.89,69.56 C 56.47,69.4 56.08,69.14 55.74,68.82 55.41,68.49 55.15,68.1 54.93,67.69 54.51,66.86 54.34,65.93 54.24,65.03 54.09,63.2 54.4,61.41 54.7,59.65 54.85,58.77 55.03,57.9 55.14,57.03 55.16,56.81 55.18,56.6 55.17,56.4 55.16,56.3 55.14,56.2 55.12,56.15 55.16,56.17 54.99,56.06 54.9,55.98 54.55,55.61 54.38,55.17 54.23,54.74 53.95,53.87 53.85,52.97 53.86,52.07 53.88,51.17 54.02,50.25 54.46,49.46 L 54.52,49.49 Z M 54.52,49.49" />
            <path id="sue09Canvas-bezier83" stroke="none" fill="rgb(51, 91, 113)" d="M 47.79,43.75 C 46.99,44.52 46.55,45.58 46.41,46.65 46.27,47.73 46.38,48.83 46.64,49.88 46.77,50.41 46.94,50.93 47.15,51.43 47.25,51.67 47.37,51.92 47.51,52.13 47.69,52.38 47.76,52.7 47.83,52.96 48.09,54.06 48.2,55.16 48.27,56.27 48.41,58.48 48.41,60.73 47.93,62.93 47.67,64.02 47.34,65.11 46.73,66.08 46.43,66.56 46.05,67.01 45.59,67.36 45.13,67.7 44.58,67.92 44.02,67.96 L 44.01,67.9 C 45.09,67.65 45.87,66.81 46.35,65.87 46.84,64.92 47.13,63.87 47.32,62.8 47.7,60.67 47.84,58.48 47.77,56.3 47.73,55.21 47.65,54.11 47.43,53.05 47.37,52.78 47.33,52.54 47.19,52.34 47.03,52.09 46.92,51.83 46.81,51.56 46.61,51.04 46.45,50.5 46.33,49.95 46.11,48.86 46.04,47.73 46.22,46.62 46.41,45.53 46.91,44.46 47.74,43.71 L 47.79,43.75 Z M 47.79,43.75" />
            <path id="sue09Canvas-bezier84" stroke="none" fill="rgb(51, 91, 113)" d="M 82.95,43.29 C 83.37,44.04 83.72,44.83 83.98,45.64 84.24,46.46 84.43,47.32 84.36,48.19 84.33,48.62 84.22,49.06 84,49.45 83.89,49.65 83.75,49.83 83.59,49.98 83.42,50.15 83.27,50.26 83.16,50.43 82.69,51.1 82.48,51.94 82.3,52.76 81.97,54.42 81.87,56.12 81.88,57.81 81.9,59.51 82.03,61.2 82.36,62.86 82.53,63.68 82.74,64.5 83.05,65.27 83.36,66.02 83.78,66.78 84.41,67.17 84.58,67.28 84.81,67.44 84.97,67.61 85.14,67.77 85.29,67.96 85.41,68.16 85.66,68.55 85.84,68.98 85.96,69.41 86.2,70.27 86.29,71.15 86.3,72.02 86.29,73.77 86.04,75.49 85.57,77.15 85.33,77.98 85.04,78.79 84.66,79.57 84.46,79.96 84.24,80.33 83.98,80.68 83.71,81.02 83.41,81.36 82.99,81.52 L 82.97,81.47 C 83.34,81.27 83.61,80.93 83.83,80.58 84.06,80.23 84.24,79.84 84.4,79.45 84.72,78.67 84.96,77.86 85.14,77.04 85.51,75.4 85.73,73.71 85.67,72.04 85.65,71.2 85.56,70.37 85.33,69.59 85.11,68.82 84.74,68.08 84.08,67.7 83.25,67.13 82.85,66.28 82.53,65.47 82.22,64.65 82.02,63.8 81.86,62.95 81.56,61.25 81.46,59.53 81.47,57.81 81.49,56.1 81.62,54.38 81.99,52.69 82.2,51.86 82.43,51.01 82.95,50.28 83.09,50.09 83.28,49.94 83.43,49.81 83.57,49.68 83.7,49.52 83.81,49.34 84.02,48.99 84.13,48.58 84.17,48.17 84.26,47.34 84.1,46.49 83.86,45.68 83.62,44.87 83.3,44.07 82.9,43.32 L 82.95,43.29 Z M 82.95,43.29" />
            <path id="sue09Canvas-bezier85" stroke="none" fill="rgb(51, 91, 113)" d="M 78.29,51.94 C 77.98,52.49 77.73,53.08 77.59,53.7 77.44,54.31 77.4,54.96 77.6,55.54 77.79,56.13 78.25,56.59 78.8,56.86 79.43,57.14 79.84,57.73 80.13,58.31 80.7,59.49 80.94,60.78 81.07,62.06 81.18,63.35 81.16,64.64 80.96,65.93 80.77,67.21 80.43,68.5 79.69,69.64 79.32,70.19 78.82,70.71 78.18,71.03 77.87,71.2 77.49,71.27 77.25,71.37 76.99,71.47 76.74,71.61 76.55,71.79 76.15,72.14 76.04,72.72 76.13,73.3 76.22,73.89 76.47,74.46 76.74,75.02 77.31,76.14 78.05,77.18 78.84,78.18 L 78.8,78.22 C 77.86,77.34 77.03,76.35 76.35,75.23 76.02,74.67 75.74,74.07 75.6,73.39 75.54,73.06 75.51,72.7 75.59,72.33 75.65,71.97 75.84,71.62 76.11,71.35 76.37,71.08 76.7,70.9 77.02,70.77 77.38,70.64 77.64,70.59 77.89,70.45 78.4,70.2 78.84,69.78 79.18,69.29 79.87,68.3 80.24,67.07 80.47,65.85 80.69,64.61 80.74,63.35 80.66,62.09 80.57,60.84 80.36,59.58 79.85,58.44 79.59,57.88 79.24,57.35 78.68,57.08 78.1,56.77 77.6,56.24 77.42,55.6 77.23,54.96 77.3,54.28 77.47,53.67 77.64,53.04 77.9,52.45 78.24,51.91 L 78.29,51.94 Z M 78.29,51.94" />
            <path id="sue09Canvas-bezier86" stroke="none" fill="rgb(51, 91, 113)" d="M 83.85,54.72 C 84.65,55.21 85.19,56.05 85.56,56.9 85.92,57.76 86.14,58.68 86.26,59.6 86.38,60.53 86.44,61.48 86.26,62.42 86.17,62.88 86.04,63.34 85.82,63.78 85.6,64.2 85.29,64.66 84.79,64.78 L 84.77,64.72 C 85.14,64.46 85.29,64.03 85.41,63.62 85.52,63.2 85.59,62.76 85.64,62.32 85.73,61.44 85.81,60.55 85.76,59.65 85.7,58.75 85.55,57.86 85.27,57.01 84.98,56.16 84.55,55.32 83.81,54.78 L 83.85,54.72 Z M 83.85,54.72" />
            <path id="sue09Canvas-bezier87" stroke="none" fill="rgb(51, 91, 113)" d="M 121.63,132.49 C 121.2,133.14 121.1,133.94 120.99,134.7 120.9,135.47 120.85,136.25 120.82,137.03 120.75,138.59 120.75,140.15 120.69,141.72 120.66,142.51 120.63,143.29 120.54,144.09 120.48,144.49 120.42,144.89 120.28,145.29 120.2,145.5 120.11,145.71 119.92,145.92 119.67,146.14 119.58,146.16 119.44,146.29 118.89,146.76 118.45,147.41 118.03,148.05 117.6,148.7 117.22,149.38 116.84,150.06 L 116.78,150.04 C 117,149.28 117.29,148.55 117.64,147.84 118,147.13 118.42,146.44 119.02,145.83 119.15,145.69 119.42,145.52 119.45,145.48 119.53,145.4 119.6,145.24 119.66,145.08 119.78,144.75 119.86,144.37 119.92,144 120.05,143.25 120.12,142.47 120.19,141.69 120.31,140.14 120.38,138.58 120.51,137.01 120.58,136.23 120.67,135.45 120.81,134.68 120.96,133.91 121.1,133.1 121.58,132.45 L 121.63,132.49 Z M 121.63,132.49" />
        </g>
    </g>
</svg>
