<?xml version="1.0" encoding="UTF-8"?>
<!DOCTYPE svg PUBLIC "-//W3C//DTD SVG 1.1//EN" "http://www.w3.org/Graphics/SVG/1.1/DTD/svg11.dtd">
<svg version="1.1" xmlns="http://www.w3.org/2000/svg" xmlns:xlink="http://www.w3.org/1999/xlink" width="192" height="378"  xml:space="preserve" id="sue01Canvas">
    <!-- Generated by PaintCode - http://www.paintcodeapp.com -->
    <g id="sue01Canvas-lines">
        <g id="sue01Canvas-group2">
            <path id="sue01Canvas-bezier" stroke="none" fill="rgb(51, 91, 113)" d="M 86.12,1.84 C 89.15,0.27 92.68,-0.23 96.08,0.09 97.78,0.27 99.5,0.61 101.08,1.34 102.67,2.06 104.12,3.03 105.41,4.18 108,6.47 110.04,9.44 111.07,12.77 112.09,16.09 112.22,19.68 111.31,22.98 L 111.21,22.96 C 111.55,19.59 111.26,16.2 110.12,13.09 109.02,9.98 107.29,7.06 104.87,4.77 103.67,3.63 102.3,2.66 100.81,1.93 99.32,1.19 97.69,0.81 96.03,0.59 92.72,0.14 89.23,0.5 86.17,1.92 L 86.12,1.84 Z M 86.12,1.84" />
            <path id="sue01Canvas-bezier2" stroke="none" fill="rgb(51, 91, 113)" d="M 86.84,2.72 L 87.75,5.78 C 87.89,6.29 88.13,6.77 88.19,7.29 88.26,7.81 88.27,8.32 88.26,8.89 L 88.18,8.94 C 87.67,8.57 87.43,8.03 87.22,7.53 87.02,7.03 87.03,6.47 86.96,5.94 86.83,4.88 86.76,3.81 86.74,2.74 L 86.84,2.72 Z M 86.84,2.72" />
            <path id="sue01Canvas-bezier3" stroke="none" fill="rgb(51, 91, 113)" d="M 88.7,9.48 C 88.93,9.22 89.2,9.18 89.46,9.05 89.73,8.95 89.99,8.86 90.27,8.78 90.81,8.62 91.36,8.49 91.91,8.38 93.03,8.17 94.16,8.07 95.31,8.11 97.57,8.18 99.94,8.9 101.7,10.46 103.44,11.9 105.1,13.46 106.58,15.16 107.3,16.03 108.02,16.89 108.71,17.77 L 109.75,19.09 C 110.1,19.51 110.44,20.03 110.86,20.25 L 110.88,20.35 C 110.52,20.34 110.32,20.11 110.08,19.95 109.86,19.78 109.64,19.59 109.42,19.41 109,19.02 108.6,18.63 108.19,18.24 L 105.84,15.84 C 104.28,14.24 102.81,12.56 101.17,11.07 99.61,9.55 97.47,8.78 95.28,8.61 94.18,8.51 93.06,8.54 91.96,8.68 91.41,8.75 90.86,8.85 90.32,8.97 89.8,9.11 89.19,9.25 88.79,9.51 L 88.7,9.48 Z M 88.7,9.48" />
            <path id="sue01Canvas-bezier4" stroke="none" fill="rgb(51, 91, 113)" d="M 85.05,2.06 C 83.24,2.81 81.76,4.2 80.54,5.71 79.31,7.23 78.35,8.96 77.57,10.75 76.01,14.35 75.26,18.24 74.67,22.11 74.1,25.98 73.89,29.92 74.32,33.8 74.54,35.74 74.92,37.66 75.44,39.53 75.71,40.47 76.01,41.4 76.34,42.32 L 76.86,43.7 C 77.02,44.2 77.14,44.69 77.24,45.19 77.61,47.17 77.66,49.17 77.63,51.15 77.6,53.14 77.45,55.12 77.25,57.09 76.83,61.02 76.16,64.92 75.17,68.77 74.91,69.72 74.63,70.68 74.31,71.62 73.98,72.56 73.64,73.52 73.09,74.4 72.62,75.13 72.52,76.09 72.52,77.03 72.52,77.98 72.63,78.95 72.79,79.9 73.11,81.82 73.63,83.71 74.21,85.59 74.79,87.46 75.44,89.32 76.17,91.14 L 76.07,91.19 C 74.41,87.61 72.95,83.93 72.1,80.03 71.9,79.06 71.74,78.06 71.72,77.04 71.7,76.04 71.77,74.94 72.34,73.97 73.25,72.34 73.72,70.39 74.2,68.52 75.13,64.73 75.79,60.86 76.27,56.97 76.5,55.03 76.67,53.08 76.74,51.13 76.79,49.19 76.77,47.23 76.45,45.34 76.37,44.87 76.26,44.39 76.12,43.96 L 75.62,42.57 C 75.3,41.63 75,40.68 74.74,39.73 74.23,37.81 73.87,35.85 73.68,33.87 73.28,29.91 73.55,25.93 74.17,22.03 74.84,18.15 75.66,14.25 77.29,10.63 78.11,8.83 79.11,7.1 80.38,5.58 81.65,4.08 83.16,2.7 85.02,1.96 L 85.05,2.06 Z M 85.05,2.06" />
            <path id="sue01Canvas-bezier5" stroke="none" fill="rgb(51, 91, 113)" d="M 74.34,43.03 C 73.76,44.73 74.07,46.56 74.36,48.29 74.67,50.05 75.09,51.8 75.39,53.59 75.69,55.36 75.97,57.23 75.54,59.1 75.16,60.95 73.86,62.69 72.14,63.36 L 72.09,63.27 C 72.78,62.68 73.36,62.03 73.77,61.29 74.18,60.54 74.43,59.74 74.56,58.9 74.82,57.23 74.79,55.46 74.6,53.7 74.4,51.93 74.08,50.16 73.87,48.37 73.7,46.59 73.53,44.69 74.25,42.99 L 74.34,43.03 Z M 74.34,43.03" />
            <path id="sue01Canvas-bezier6" stroke="none" fill="rgb(51, 91, 113)" d="M 79.48,13.23 C 78.4,15.52 76.62,17.51 76.21,20.01 75.78,22.49 76.58,24.99 77.55,27.28 78.55,29.61 79.54,31.96 80.37,34.38 81.17,36.79 81.88,39.29 81.93,41.91 81.95,43.22 81.77,44.56 81.28,45.81 81.16,46.12 81.02,46.42 80.87,46.72 80.72,47 80.61,47.24 80.52,47.52 80.33,48.09 80.2,48.69 80.1,49.3 79.73,51.74 79.68,54.27 79.74,56.78 79.78,59.3 79.98,61.82 80.37,64.3 80.56,65.54 80.81,66.77 81.21,67.96 81.41,68.54 81.64,69.13 82,69.62 82.18,69.86 82.39,70.08 82.66,70.2 82.92,70.32 83.24,70.3 83.51,70.17 L 83.56,70.26 C 83.29,70.43 82.92,70.5 82.58,70.39 82.26,70.28 81.99,70.05 81.77,69.8 81.34,69.3 81.04,68.71 80.78,68.12 80.29,66.92 79.96,65.68 79.68,64.43 79.14,61.92 78.88,59.37 78.74,56.82 78.64,54.26 78.67,51.69 79.13,49.13 79.25,48.49 79.4,47.85 79.63,47.21 79.74,46.9 79.9,46.55 80.06,46.28 80.21,46.02 80.34,45.75 80.45,45.47 80.92,44.37 81.12,43.15 81.13,41.92 81.13,39.45 80.5,36.98 79.75,34.58 78.98,32.18 78.04,29.83 77.09,27.48 76.16,25.12 75.4,22.53 75.92,19.96 76.42,17.36 78.27,15.43 79.4,13.18 L 79.48,13.23 Z M 79.48,13.23" />
            <path id="sue01Canvas-bezier7" stroke="none" fill="rgb(51, 91, 113)" d="M 86.19,11.17 C 85.46,13.53 84.59,15.85 83.51,18.09 82.97,19.21 82.45,20.36 81.65,21.35 81.25,21.85 80.82,22.32 80.31,22.73 79.82,23.13 79.23,23.48 78.59,23.6 L 78.56,23.51 C 79.54,22.76 80.17,21.76 80.84,20.77 81.47,19.76 82.19,18.78 82.8,17.72 83.42,16.66 83.99,15.58 84.53,14.48 85.08,13.38 85.61,12.27 86.09,11.14 L 86.19,11.17 Z M 86.19,11.17" />
            <path id="sue01Canvas-bezier8" stroke="none" fill="rgb(51, 91, 113)" d="M 86.11,22.02 C 87.21,20.97 88.88,20.62 90.4,20.82 91.17,20.91 91.96,21.04 92.63,21.42 93.31,21.8 93.91,22.29 94.37,22.93 L 94.31,23.01 C 93.55,22.83 92.89,22.56 92.22,22.34 91.55,22.12 90.94,21.77 90.26,21.6 89.59,21.43 88.89,21.36 88.19,21.44 87.49,21.5 86.77,21.69 86.17,22.09 L 86.11,22.02 Z M 86.11,22.02" />
            <path id="sue01Canvas-bezier9" stroke="none" fill="rgb(51, 91, 113)" d="M 107.77,22.41 C 107.31,22.04 106.72,21.82 106.16,21.77 105.59,21.7 105.02,21.8 104.5,22 103.97,22.2 103.53,22.57 103.01,22.82 102.49,23.08 101.97,23.37 101.34,23.59 L 101.27,23.52 C 101.53,22.89 101.96,22.4 102.46,21.98 102.97,21.56 103.64,21.37 104.28,21.23 104.93,21.09 105.63,21.09 106.26,21.28 106.89,21.48 107.45,21.85 107.85,22.35 L 107.77,22.41 Z M 107.77,22.41" />
            <path id="sue01Canvas-bezier10" stroke="none" fill="rgb(51, 91, 113)" d="M 99.39,26.18 C 99.08,26.85 99.04,27.61 99.16,28.3 99.22,28.66 99.32,28.99 99.44,29.34 99.57,29.69 99.68,30.07 99.78,30.44 99.97,31.18 100.21,31.93 100.17,32.71 100.16,33.11 100.12,33.5 100.01,33.89 99.91,34.27 99.75,34.7 99.39,34.96 L 99.31,34.89 C 99.43,34.18 99.25,33.48 99.18,32.76 99.07,32.06 99.1,31.32 99,30.59 98.95,30.23 98.89,29.87 98.81,29.51 98.73,29.14 98.67,28.74 98.66,28.34 98.67,27.55 98.86,26.76 99.31,26.13 L 99.39,26.18 Z M 99.39,26.18" />
            <path id="sue01Canvas-bezier11" stroke="none" fill="rgb(51, 91, 113)" d="M 96.25,35.29 C 96.21,35.2 96.2,35.34 96.18,35.33 96.14,35.36 96.11,35.38 96.08,35.41 96.01,35.46 95.94,35.51 95.89,35.57 95.84,35.62 95.83,35.77 95.85,35.68 95.84,35.65 95.94,35.51 95.85,35.35 95.77,35.24 95.66,35.32 95.6,35.45 L 95.54,35.52 C 95.42,35.59 95.24,35.6 95.15,35.39 95.06,35.14 95.23,34.93 95.29,34.85 95.46,34.66 95.64,34.77 95.76,34.78 95.89,34.81 96,34.86 96.12,34.92 96.17,34.95 96.23,35 96.28,35.05 96.34,35.08 96.42,35.28 96.35,35.29 L 96.25,35.29 Z M 96.25,35.29" />
            <path id="sue01Canvas-bezier12" stroke="none" fill="rgb(51, 91, 113)" d="M 93.52,34.08 C 93.46,34.49 93.53,34.91 93.69,35.23 93.79,35.39 93.92,35.49 94.02,35.62 94.12,35.77 94.26,35.89 94.41,36.1 L 94.39,36.14 C 94.14,36.2 93.91,36.13 93.69,36 93.48,35.85 93.38,35.6 93.32,35.37 93.2,34.91 93.27,34.44 93.47,34.06 L 93.52,34.08 Z M 93.52,34.08" />
            <path id="sue01Canvas-bezier13" stroke="none" fill="rgb(51, 91, 113)" d="M 102.98,39.63 C 100.97,40.03 98.92,40.19 96.88,40.27 94.79,40.35 92.7,40.32 90.6,40.23 L 90.95,39.65 C 91.62,40.56 92.6,41.32 93.63,41.81 94.68,42.3 95.83,42.52 96.98,42.52 98.16,42.5 99.32,42.33 100.38,41.83 101.41,41.38 102.34,40.62 102.98,39.63 Z M 103.14,39.58 C 102.76,40.8 101.83,41.81 100.73,42.48 99.61,43.14 98.28,43.48 97,43.53 95.69,43.59 94.36,43.27 93.21,42.65 92.05,42.02 91.07,41.16 90.32,40.06 L 89.87,39.41 90.66,39.48 C 92.72,39.67 94.8,39.77 96.87,39.81 98.94,39.84 101.03,39.81 103.08,39.51 L 103.16,39.5 103.14,39.58 Z M 103.14,39.58" />
            <path id="sue01Canvas-bezier14" stroke="none" fill="rgb(51, 91, 113)" d="M 94.42,44.85 C 94.92,45 95.45,45.04 95.97,45.02 96.48,45.02 96.99,44.96 97.49,44.86 97.99,44.75 98.45,44.52 98.95,44.45 99.46,44.37 99.97,44.3 100.57,44.33 L 100.61,44.42 C 100.23,44.89 99.75,45.19 99.23,45.41 98.72,45.64 98.13,45.63 97.58,45.65 96.47,45.68 95.33,45.5 94.38,44.94 L 94.42,44.85 Z M 94.42,44.85" />
            <path id="sue01Canvas-bezier15" stroke="none" fill="rgb(51, 91, 113)" d="M 109.41,21.46 C 109.17,22.66 109.2,23.9 109.2,25.13 109.21,26.36 109.27,27.59 109.34,28.82 L 109.56,32.51 C 109.55,33.81 109.19,34.99 108.85,36.19 108.48,37.38 108.03,38.55 107.48,39.67 107.2,40.23 106.89,40.77 106.55,41.3 106.2,41.82 105.94,42.32 105.69,42.88 104.72,45.08 104.11,47.59 102.4,49.58 101.55,50.57 100.4,51.32 99.13,51.68 97.88,52.05 96.56,52.1 95.27,51.9 92.7,51.49 90.41,50.14 88.53,48.45 84.81,45 82.59,40.11 82.31,35.17 L 82.41,35.16 C 83.26,39.98 85.56,44.56 89.2,47.7 90.99,49.27 93.13,50.5 95.44,50.92 97.7,51.37 100.26,50.83 101.8,49.05 103.39,47.29 104.06,44.87 105.1,42.61 105.36,42.05 105.68,41.46 106.04,40.96 106.38,40.47 106.68,39.94 106.96,39.4 107.53,38.33 107.99,37.2 108.38,36.04 108.74,34.89 109.12,33.68 109.16,32.52 L 109.04,28.83 C 109,27.6 108.98,26.36 109,25.13 109.03,23.9 109.04,22.65 109.31,21.44 L 109.41,21.46 Z M 109.41,21.46" />
            <path id="sue01Canvas-bezier16" stroke="none" fill="rgb(51, 91, 113)" d="M 78.35,26.12 C 78.83,26.49 79.27,26.94 79.6,27.49 79.91,28.04 80.08,28.71 80.13,29.33 80.19,29.89 80.42,30.4 80.52,30.95 80.64,31.5 80.7,32.08 80.88,32.64 L 80.83,32.72 C 80.47,32.61 80.24,32.34 80.04,32.09 79.84,31.83 79.69,31.55 79.56,31.25 79.3,30.66 79.3,29.99 79.33,29.36 79.38,28.77 79.33,28.24 79.14,27.7 78.97,27.16 78.66,26.65 78.28,26.19 L 78.35,26.12 Z M 78.35,26.12" />
            <path id="sue01Canvas-bezier17" stroke="none" fill="rgb(51, 91, 113)" d="M 110.86,24.43 C 111.24,24.33 111.56,24.67 111.73,24.95 111.91,25.25 112.02,25.59 112.09,25.93 112.2,26.61 112.13,27.33 111.9,28 111.61,28.68 111.47,29.19 111.22,29.77 110.97,30.32 110.73,30.89 110.43,31.51 L 110.33,31.51 C 110.08,30.84 110.12,30.13 110.27,29.46 110.39,28.78 110.88,28.17 111.16,27.69 111.44,27.17 111.59,26.58 111.59,25.97 111.59,25.67 111.56,25.37 111.46,25.08 111.36,24.81 111.19,24.52 110.88,24.53 L 110.86,24.43 Z M 110.86,24.43" />
            <path id="sue01Canvas-bezier18" stroke="none" fill="rgb(51, 91, 113)" d="M 87.39,26.14 C 87.77,25.57 88.36,25.14 89.02,24.92 89.69,24.7 90.43,24.72 91.11,24.88 L 91.12,24.88 91.15,24.89 C 91.72,25.14 92.28,25.47 92.72,25.91 92.94,26.14 93.16,26.36 93.34,26.61 93.53,26.85 93.68,27.12 93.9,27.3 L 93.89,27.35 C 93.56,27.27 93.34,27.02 93.1,26.84 92.86,26.65 92.64,26.45 92.4,26.28 91.94,25.92 91.48,25.56 90.96,25.27 L 91,25.28 C 90.39,25.09 89.72,25.02 89.09,25.17 88.46,25.31 87.86,25.66 87.43,26.17 L 87.39,26.14 Z M 87.39,26.14" />
            <path id="sue01Canvas-bezier19" stroke="none" fill="rgb(51, 91, 113)" d="M 87.71,26.98 C 88.56,26.99 89.42,27.02 90.28,27.06 90.7,27.08 91.13,27.06 91.55,27.13 91.98,27.22 92.4,27.29 92.81,27.46 L 92.81,27.51 C 92.37,27.63 91.94,27.63 91.51,27.63 91.08,27.63 90.66,27.53 90.24,27.46 89.39,27.33 88.54,27.19 87.7,27.03 L 87.71,26.98 Z M 87.71,26.98" />
            <path id="sue01Canvas-bezier20" stroke="none" fill="rgb(51, 91, 113)" d="M 101.29,26.72 C 102.05,25.99 102.91,25.32 104,25.02 104.27,24.94 104.56,24.9 104.85,24.93 105.14,24.96 105.41,25.02 105.68,25.15 106.19,25.39 106.67,25.86 106.7,26.44 L 106.65,26.46 C 106.36,26.02 105.94,25.75 105.49,25.61 105.27,25.52 105.02,25.47 104.79,25.42 104.57,25.37 104.32,25.38 104.08,25.41 103.59,25.49 103.11,25.69 102.65,25.93 102.18,26.16 101.74,26.44 101.32,26.76 L 101.29,26.72 Z M 101.29,26.72" />
            <path id="sue01Canvas-bezier21" stroke="none" fill="rgb(51, 91, 113)" d="M 101.47,26.98 C 102.32,27.1 103.18,27.18 104.02,27.2 104.45,27.2 104.86,27.15 105.27,27.14 105.69,27.14 106.08,27.11 106.49,26.98 L 106.53,27.02 C 106.24,27.41 105.75,27.55 105.32,27.64 104.88,27.72 104.43,27.65 104,27.6 103.13,27.49 102.28,27.29 101.46,27.03 L 101.47,26.98 Z M 101.47,26.98" />
            <path id="sue01Canvas-bezier22" stroke="none" fill="rgb(51, 91, 113)" d="M 93.64,26.14 C 92.8,25.25 91.71,24.52 90.54,24.37 89.95,24.3 89.38,24.42 88.83,24.62 88.28,24.8 87.77,25.13 87.23,25.46 L 87.2,25.42 C 87.54,24.88 88.05,24.45 88.64,24.15 89.25,23.86 89.96,23.84 90.6,23.97 91.9,24.25 92.93,25.12 93.68,26.11 L 93.64,26.14 Z M 93.64,26.14" />
            <path id="sue01Canvas-bezier23" stroke="none" fill="rgb(51, 91, 113)" d="M 101.29,25.78 C 102.04,25.05 102.95,24.42 104.03,24.15 104.55,24.02 105.16,23.97 105.7,24.19 106.23,24.41 106.68,24.8 106.92,25.29 L 106.88,25.32 C 106.43,25.03 106.01,24.77 105.54,24.66 105.08,24.54 104.6,24.47 104.1,24.54 103.11,24.7 102.16,25.2 101.32,25.82 L 101.29,25.78 Z M 101.29,25.78" />
            <path id="sue01Canvas-bezier24" stroke="none" fill="rgb(51, 91, 113)" d="M 89.44,27.06 C 89.09,26.76 88.94,26.22 89.13,25.74 89.31,25.28 89.83,24.94 90.35,24.97 90.89,24.97 91.43,25.35 91.55,25.91 91.66,26.46 91.36,27.03 90.89,27.18 L 90.86,27.14 C 91.13,26.78 91.2,26.36 91.06,26.04 90.95,25.72 90.69,25.42 90.33,25.37 89.95,25.3 89.55,25.5 89.36,25.85 89.15,26.19 89.19,26.69 89.48,27.02 L 89.44,27.06 Z M 89.44,27.06" />
            <path id="sue01Canvas-bezier25" stroke="none" fill="rgb(51, 91, 113)" d="M 103.92,25.32 C 104.29,25.43 104.62,25.79 104.66,26.22 104.7,26.65 104.46,27.12 104.05,27.33 103.86,27.44 103.61,27.5 103.38,27.48 103.12,27.46 102.9,27.35 102.73,27.18 102.39,26.85 102.32,26.26 102.59,25.94 L 102.64,25.96 C 102.66,26.37 102.82,26.64 103.06,26.81 103.17,26.9 103.31,26.96 103.44,26.99 103.59,27.03 103.74,27.02 103.88,26.97 104.17,26.87 104.4,26.57 104.41,26.23 104.43,25.9 104.24,25.53 103.89,25.37 L 103.92,25.32 Z M 103.92,25.32" />
            <path id="sue01Canvas-bezier26" stroke="none" fill="rgb(51, 91, 113)" d="M 113.78,27.49 C 114,32.07 114.06,36.66 113.93,41.25 113.84,43.54 113.71,45.84 113.47,48.13 113.34,49.27 113.19,50.42 112.99,51.56 112.78,52.71 112.55,53.79 112.47,54.92 112.11,59.43 112.73,63.99 113.47,68.47 113.83,70.71 114.33,72.94 114.93,75.14 115.22,76.23 115.56,77.32 115.96,78.38 116.37,79.44 116.8,80.52 117.54,81.37 L 117.48,81.44 C 116.58,80.66 116.07,79.59 115.54,78.56 115.05,77.51 114.64,76.43 114.26,75.34 113.51,73.15 112.96,70.91 112.48,68.65 111.6,64.12 111.2,59.47 111.67,54.84 111.78,53.68 112.05,52.52 112.28,51.42 112.5,50.31 112.68,49.18 112.82,48.05 113.11,45.79 113.3,43.51 113.43,41.22 113.69,36.66 113.77,32.07 113.68,27.49 L 113.78,27.49 Z M 113.78,27.49" />
            <path id="sue01Canvas-bezier27" stroke="none" fill="rgb(51, 91, 113)" d="M 115.73,48.46 C 117.16,52.47 118.3,56.6 118.94,60.83 119.23,62.95 119.41,65.1 119.21,67.26 119.11,68.34 118.91,69.42 118.51,70.46 118.14,71.4 118.01,72.43 117.98,73.46 117.94,75.54 118.28,77.63 118.73,79.68 119.19,81.73 119.76,83.76 120.4,85.77 121.01,87.8 121.74,89.79 122.51,91.76 122.9,92.74 123.31,93.72 123.75,94.68 123.97,95.16 124.2,95.63 124.45,96.1 124.71,96.55 124.96,97.04 125.34,97.37 L 125.29,97.46 C 124.81,97.15 124.52,96.68 124.21,96.25 123.9,95.8 123.62,95.35 123.35,94.89 122.82,93.95 122.34,93 121.87,92.03 120.95,90.1 120.17,88.11 119.45,86.09 118.76,84.06 118.17,81.99 117.76,79.88 117.36,77.77 117.07,75.61 117.18,73.43 117.24,72.34 117.41,71.23 117.84,70.19 118.22,69.25 118.44,68.23 118.56,67.19 118.8,65.12 118.69,62.99 118.45,60.89 117.94,56.69 116.94,52.54 115.64,48.49 L 115.73,48.46 Z M 115.73,48.46" />
            <path id="sue01Canvas-bezier28" stroke="none" fill="rgb(51, 91, 113)" d="M 106.95,42.35 C 107.83,46.12 108.41,49.96 108.64,53.83 108.82,57.69 108.72,61.66 107.44,65.43 107.12,66.36 106.69,67.28 106.16,68.12 105.66,68.93 105.27,69.75 104.98,70.64 104.39,72.4 104.19,74.29 104.25,76.17 104.36,79.94 105.46,83.69 106.94,87.24 L 106.86,87.28 C 104.85,83.96 103.56,80.17 103.25,76.21 103.14,74.24 103.35,72.21 104.04,70.32 104.38,69.38 104.86,68.46 105.4,67.64 105.93,66.86 106.35,66.03 106.69,65.15 108.01,61.6 108.22,57.68 108.14,53.85 108.04,50.01 107.6,46.16 106.85,42.37 L 106.95,42.35 Z M 106.95,42.35" />
            <path id="sue01Canvas-bezier29" stroke="none" fill="rgb(51, 91, 113)" d="M 110.43,72.95 C 110.21,75.48 110.2,78.04 110.41,80.56 110.62,83.07 111.04,85.6 112,87.89 112.25,88.46 112.53,89 112.86,89.52 113.17,90.04 113.58,90.46 113.97,91.05 114.34,91.61 114.68,92.22 114.86,92.92 115.04,93.61 115.04,94.4 114.76,95.1 114.17,96.49 112.96,97.27 111.85,97.89 111.27,98.2 110.69,98.47 110.12,98.75 109.55,99.02 108.98,99.3 108.47,99.66 L 108.4,99.59 C 109.3,98.63 110.47,98.03 111.48,97.3 112.49,96.59 113.5,95.79 113.83,94.75 114.19,93.75 113.77,92.6 113.14,91.59 112.86,91.1 112.41,90.56 112.09,89.98 111.76,89.4 111.49,88.8 111.26,88.19 110.34,85.73 110.03,83.14 109.91,80.59 109.83,78.02 109.98,75.47 110.33,72.94 L 110.43,72.95 Z M 110.43,72.95" />
            <path id="sue01Canvas-bezier30" stroke="none" fill="rgb(51, 91, 113)" d="M 70.15,63.36 C 67.83,64.12 65.54,64.99 63.37,66.05 62.28,66.58 61.21,67.16 60.27,67.88 59.81,68.23 59.38,68.65 59.12,69.09 58.85,69.59 58.67,70.15 58.5,70.73 57.86,73.04 57.57,75.46 57.09,77.85 56.83,79.04 56.61,80.24 56.34,81.43 56.04,82.62 55.8,83.83 55.28,84.97 L 55.18,84.93 C 55.32,84.34 55.38,83.74 55.45,83.13 L 55.65,81.32 C 55.78,80.1 55.95,78.89 56.1,77.68 56.46,75.26 56.97,72.86 57.73,70.49 57.94,69.9 58.15,69.3 58.49,68.74 58.87,68.13 59.37,67.73 59.88,67.36 60.92,66.63 62.03,66.09 63.16,65.59 65.43,64.64 67.76,63.89 70.12,63.26 L 70.15,63.36 Z M 70.15,63.36" />
            <path id="sue01Canvas-bezier31" stroke="none" fill="rgb(51, 91, 113)" d="M 59.37,83.22 C 58.37,84.8 57.34,86.35 56.09,87.79 55.75,88.14 55.49,88.51 54.92,88.83 L 53.72,89.4 C 53.35,89.57 53.01,89.79 52.88,90.03 52.74,90.26 52.88,90.72 53.12,91.13 L 53.05,91.2 C 52.83,91.09 52.63,90.94 52.45,90.73 52.28,90.52 52.15,90.21 52.2,89.87 52.31,89.19 52.81,88.82 53.22,88.53 53.64,88.24 54.1,88.08 54.54,87.92 54.81,87.84 55.2,87.51 55.52,87.22 56.19,86.61 56.82,85.93 57.44,85.25 58.07,84.57 58.69,83.87 59.29,83.17 L 59.37,83.22 Z M 59.37,83.22" />
            <path id="sue01Canvas-bezier32" stroke="none" fill="rgb(51, 91, 113)" d="M 54.5,90.72 C 54.28,93.11 54.01,95.5 53.59,97.88 53.49,98.48 53.39,99.07 53.25,99.68 53.17,99.97 53.07,100.31 52.95,100.59 52.85,100.84 52.75,101.1 52.67,101.37 52.49,101.9 52.35,102.46 52.25,103.02 52.21,103.3 52.17,103.59 52.17,103.86 52.19,104.13 52.19,104.41 52.49,104.33 L 52.54,104.42 C 52.48,104.47 52.4,104.53 52.29,104.53 52.18,104.54 52.08,104.48 52,104.41 51.86,104.27 51.79,104.11 51.73,103.95 51.62,103.63 51.57,103.31 51.55,102.99 51.51,102.36 51.57,101.73 51.7,101.11 51.77,100.8 51.87,100.49 51.99,100.19 52.11,99.92 52.21,99.68 52.3,99.4 52.49,98.86 52.66,98.28 52.81,97.71 53.4,95.4 53.9,93.05 54.4,90.7 L 54.5,90.72 Z M 54.5,90.72" />
            <path id="sue01Canvas-bezier33" stroke="none" fill="rgb(51, 91, 113)" d="M 53.81,103.71 C 53.66,104.81 53.48,105.91 53.28,107.01 53.18,107.55 53.17,108.12 52.96,108.64 52.77,109.16 52.52,109.66 52.15,110.14 L 52.06,110.13 C 51.89,109.52 51.92,108.95 51.99,108.39 52.06,107.83 52.32,107.33 52.51,106.8 52.88,105.75 53.28,104.71 53.72,103.68 L 53.81,103.71 Z M 53.81,103.71" />
            <path id="sue01Canvas-bezier34" stroke="none" fill="rgb(51, 91, 113)" d="M 52.04,111.5 C 52.53,111.28 53.1,111.24 53.65,111.33 54.19,111.43 54.71,111.66 55.18,111.97 55.64,112.27 56.12,112.6 56.4,113.08 56.68,113.55 56.88,114.07 56.88,114.65 L 56.8,114.7 C 56.31,114.38 55.96,114.03 55.61,113.69 55.26,113.36 55.03,112.93 54.68,112.59 54.34,112.27 53.95,111.98 53.51,111.81 53.07,111.62 52.57,111.51 52.07,111.6 L 52.04,111.5 Z M 52.04,111.5" />
            <path id="sue01Canvas-bezier35" stroke="none" fill="rgb(51, 91, 113)" d="M 52.97,113.81 C 53.75,114.7 54.53,115.59 55.36,116.4 55.77,116.81 56.2,117.19 56.67,117.5 L 57.02,117.73 57.21,117.83 C 57.33,117.92 57.33,117.9 57.44,118.01 57.76,118.34 57.85,118.65 57.95,118.97 58.26,120.2 58.39,121.34 58.56,122.45 58.73,123.55 59.02,124.6 59.79,125.52 L 59.73,125.6 C 58.56,125.11 57.87,123.83 57.58,122.66 57.24,121.46 57.37,120.23 57.17,119.16 57.13,118.91 57.03,118.64 56.94,118.54 56.96,118.53 56.83,118.44 56.84,118.43 L 56.65,118.3 56.28,118.02 C 55.8,117.64 55.38,117.2 54.99,116.74 54.23,115.82 53.57,114.84 52.9,113.88 L 52.97,113.81 Z M 52.97,113.81" />
            <path id="sue01Canvas-bezier36" stroke="none" fill="rgb(51, 91, 113)" d="M 52.23,112.61 C 50.87,110.68 49.51,108.74 48.18,106.78 47.53,105.8 46.88,104.81 46.25,103.8 45.93,103.3 45.62,102.79 45.35,102.25 45.21,101.97 45.07,101.71 44.97,101.34 44.92,101.17 44.93,100.88 45,100.71 45.05,100.54 45.08,100.45 45.1,100.33 45.21,99.34 44.87,98.12 44.58,97.04 44.26,95.92 43.9,94.81 43.51,93.71 43.15,92.6 42.73,91.51 42.29,90.43 42.07,89.89 41.83,89.36 41.56,88.84 41.29,88.34 41.03,87.77 40.56,87.49 L 40.58,87.4 C 40.91,87.46 41.14,87.69 41.36,87.9 41.57,88.12 41.76,88.36 41.95,88.6 42.3,89.09 42.61,89.6 42.91,90.12 43.5,91.17 43.98,92.26 44.45,93.36 44.88,94.48 45.26,95.62 45.53,96.79 45.67,97.38 45.78,97.97 45.87,98.57 45.94,99.18 46.02,99.79 45.89,100.49 45.85,100.66 45.78,100.84 45.74,100.95 45.7,101.06 45.7,101.07 45.72,101.19 45.76,101.4 45.88,101.67 46,101.93 46.24,102.45 46.52,102.96 46.81,103.47 47.39,104.49 47.99,105.5 48.61,106.51 49.82,108.54 51.06,110.55 52.32,112.55 L 52.23,112.61 Z M 52.23,112.61" />
            <path id="sue01Canvas-bezier37" stroke="none" fill="rgb(51, 91, 113)" d="M 39.72,88.67 C 39.31,90.21 38.57,91.59 37.87,92.99 37.12,94.37 36.32,95.72 35.38,97.01 34.89,97.64 34.42,98.28 33.66,98.81 33.45,98.93 33.22,99.06 32.88,99.09 32.52,99.12 32.12,98.91 31.93,98.61 31.84,98.47 31.69,98.23 31.61,98.03 31.51,97.82 31.45,97.6 31.4,97.39 31.22,96.52 31.3,95.68 31.49,94.89 31.69,94.11 31.98,93.36 32.4,92.67 L 32.49,92.71 C 32.21,94.24 31.99,95.82 32.37,97.14 32.41,97.31 32.47,97.47 32.54,97.61 32.61,97.76 32.67,97.85 32.79,98.04 32.83,98.06 32.8,98.07 32.84,98.07 32.89,98.07 33.02,98.04 33.15,97.96 33.71,97.65 34.26,97.07 34.75,96.51 35.74,95.34 36.61,94.06 37.43,92.74 38.24,91.43 39.1,90.1 39.62,88.65 L 39.72,88.67 Z M 39.72,88.67" />
            <path id="sue01Canvas-bezier38" stroke="none" fill="rgb(51, 91, 113)" d="M 32.7,99.15 C 33.35,101.02 33.91,102.91 34.2,104.91 34.27,105.39 34.31,105.95 34.26,106.49 34.2,107.02 34.06,107.53 33.91,107.97 33.83,108.18 33.78,108.39 33.77,108.53 33.75,108.68 33.76,108.73 33.89,108.86 34.17,109.09 34.68,109.25 35.15,109.42 L 35.14,109.52 C 34.64,109.61 34.13,109.7 33.54,109.47 33.23,109.37 32.92,108.97 32.89,108.61 32.84,108.26 32.9,107.99 32.94,107.73 33.15,106.7 33.48,105.97 33.4,104.98 33.37,104.02 33.25,103.05 33.1,102.08 32.97,101.11 32.8,100.14 32.61,99.18 L 32.7,99.15 Z M 32.7,99.15" />
            <path id="sue01Canvas-bezier39" stroke="none" fill="rgb(51, 91, 113)" d="M 36.63,106.9 C 36.72,108.49 36.26,110.05 35.59,111.47 35.22,112.15 35.25,112.93 35.39,113.69 35.53,114.44 35.78,115.18 36.07,115.9 36.65,117.35 37.37,118.73 38,120.17 38.3,120.89 38.66,121.66 38.64,122.49 38.77,123.13 39.24,123.83 39.66,124.45 40.55,125.71 41.55,126.92 42.5,128.17 43.42,129.44 44.42,130.68 44.94,132.29 44.99,132.5 45.04,132.71 45.05,132.94 L 45.08,133.52 C 45.11,133.89 45.17,134.26 45.26,134.62 45.44,135.34 45.73,136.04 46.12,136.68 46.88,137.95 48.07,138.98 49.47,139.41 49.56,139.44 49.65,139.46 49.73,139.48 49.76,139.49 49.85,139.51 49.84,139.51 L 49.98,139.53 C 50.08,139.53 50.25,139.52 50.42,139.48 50.76,139.41 51.11,139.28 51.45,139.13 52.13,138.83 52.8,138.45 53.45,138.04 54.75,137.22 55.99,136.29 57.19,135.31 59.59,133.35 61.85,131.21 63.95,128.92 66.07,126.66 68,124.21 69.67,121.6 71.31,118.98 72.72,116.16 73.41,113.11 L 73.5,113.13 C 73.07,116.25 71.83,119.22 70.26,121.96 68.69,124.7 66.77,127.22 64.69,129.6 62.59,131.95 60.3,134.13 57.81,136.09 56.57,137.06 55.28,137.98 53.92,138.8 53.23,139.21 52.53,139.59 51.78,139.91 51.4,140.07 51.01,140.21 50.58,140.29 50.36,140.33 50.14,140.36 49.85,140.33 L 49.71,140.31 49.52,140.26 C 49.42,140.23 49.32,140.2 49.23,140.17 47.63,139.64 46.31,138.46 45.5,137.05 45.08,136.34 44.78,135.57 44.6,134.78 44.5,134.38 44.44,133.98 44.41,133.57 44.38,133.12 44.41,132.8 44.31,132.46 43.89,131.06 42.93,129.77 42.04,128.52 41.12,127.26 40.14,126.04 39.25,124.73 38.83,124.05 38.35,123.43 38.2,122.51 38.23,121.76 37.92,121.05 37.64,120.33 37.04,118.89 36.34,117.48 35.79,116.01 35.52,115.27 35.28,114.52 35.14,113.73 35.02,112.96 35.01,112.09 35.41,111.38 36.11,110 36.59,108.46 36.53,106.91 L 36.63,106.9 Z M 36.63,106.9" />
            <path id="sue01Canvas-bezier40" stroke="none" fill="rgb(51, 91, 113)" d="M 33.58,95.23 C 33.02,93.37 32.42,91.52 31.76,89.71 31.43,88.8 30.99,87.94 30.69,87.06 30.53,86.61 30.36,86.17 30.18,85.75 29.97,85.36 29.82,84.88 29.39,84.74 L 29.38,84.64 C 29.66,84.54 29.96,84.69 30.18,84.83 30.41,84.98 30.6,85.17 30.77,85.37 31.11,85.77 31.37,86.21 31.6,86.65 32.07,87.55 32.27,88.52 32.52,89.47 33.02,91.36 33.4,93.28 33.68,95.21 L 33.58,95.23 Z M 33.58,95.23" />
            <path id="sue01Canvas-bezier41" stroke="none" fill="rgb(51, 91, 113)" d="M 30.3,83.49 C 27.69,83.68 25.03,83.9 22.55,84.64 21.95,84.82 21.39,85.19 20.74,85.41 20.11,85.64 19.46,85.82 18.79,85.92 17.47,86.13 16.04,86.07 14.76,85.5 14.13,85.21 13.54,84.8 13.06,84.3 12.56,83.79 12.23,83.2 11.82,82.74 10.98,81.78 10.01,80.91 9,80.1 7.99,79.28 6.93,78.53 5.84,77.81 5.3,77.45 4.75,77.1 4.2,76.77 L 3.36,76.3 2.95,76.08 C 2.83,76.02 2.63,75.95 2.65,75.95 L 2.39,75.91 2.28,75.72 C 2.11,75.42 1.97,75.17 1.93,74.74 1.91,74.54 1.96,74.22 2.18,73.99 2.4,73.77 2.65,73.71 2.83,73.68 3.56,73.62 4.07,73.85 4.6,74.02 5.62,74.39 6.59,74.83 7.55,75.3 8.51,75.78 9.44,76.29 10.35,76.84 11.25,77.42 12.17,77.99 12.91,78.78 L 12.84,78.85 C 12.01,78.21 11.06,77.74 10.12,77.28 9.17,76.81 8.21,76.39 7.24,75.99 6.27,75.58 5.29,75.2 4.31,74.9 3.83,74.75 3.31,74.62 2.97,74.67 2.9,74.68 2.88,74.71 2.91,74.68 2.95,74.65 2.93,74.61 2.94,74.67 2.94,74.77 3.04,75.01 3.14,75.16 L 2.77,74.93 C 3.11,75 3.21,75.07 3.39,75.15 3.56,75.22 3.71,75.3 3.86,75.38 4.16,75.54 4.45,75.71 4.73,75.89 5.3,76.24 5.85,76.61 6.4,76.99 7.48,77.76 8.54,78.57 9.54,79.44 10.55,80.31 11.53,81.22 12.38,82.27 12.84,82.8 13.14,83.39 13.56,83.83 13.97,84.29 14.47,84.66 15.03,84.93 16.15,85.47 17.46,85.57 18.72,85.41 19.35,85.32 19.98,85.18 20.59,84.97 21.2,84.8 21.77,84.45 22.44,84.27 25.03,83.6 27.67,83.49 30.3,83.39 L 30.3,83.49 Z M 30.3,83.49" />
            <path id="sue01Canvas-bezier42" stroke="none" fill="rgb(51, 91, 113)" d="M 1.51,73.75 C 0.84,73.54 0.15,73.02 0.02,72.21 -0.04,71.82 0.04,71.43 0.16,71.07 0.22,70.88 0.45,70.64 0.66,70.59 0.88,70.51 1.09,70.51 1.29,70.52 2.07,70.61 2.74,70.91 3.41,71.2 4.07,71.5 4.71,71.83 5.35,72.18 6.61,72.86 7.88,73.54 9.05,74.35 10.22,75.17 11.35,76.02 12.48,76.92 L 12.43,77.01 C 11.03,76.59 9.76,75.9 8.51,75.2 7.27,74.49 6.13,73.63 4.94,72.87 4.34,72.49 3.74,72.12 3.12,71.78 2.51,71.46 1.87,71.14 1.23,71.02 0.91,70.97 0.63,70.99 0.53,71.23 0.39,71.53 0.3,71.85 0.32,72.18 0.35,72.84 0.91,73.39 1.55,73.66 L 1.51,73.75 Z M 1.51,73.75" />
            <path id="sue01Canvas-bezier43" stroke="none" fill="rgb(51, 91, 113)" d="M 14.1,77.32 C 14.84,77.23 15.58,77.19 16.33,77.24 16.71,77.26 17.11,77.22 17.47,77.41 17.81,77.59 18.23,77.87 18.31,78.37 L 18.23,78.43 C 17.81,78.38 17.51,78.41 17.17,78.36 16.84,78.33 16.53,78.13 16.19,78.02 15.51,77.81 14.81,77.62 14.09,77.42 L 14.1,77.32 Z M 14.1,77.32" />
            <path id="sue01Canvas-bezier44" stroke="none" fill="rgb(51, 91, 113)" d="M 19.58,78.39 C 20.14,77.94 20.82,77.65 21.57,77.53 21.93,77.47 22.33,77.37 22.7,77.51 23.06,77.65 23.4,77.87 23.61,78.26 L 23.57,78.35 C 23.15,78.47 22.83,78.49 22.51,78.49 22.2,78.51 21.92,78.36 21.6,78.33 20.97,78.27 20.29,78.3 19.62,78.47 L 19.58,78.39 Z M 19.58,78.39" />
            <path id="sue01Canvas-bezier45" stroke="none" fill="rgb(51, 91, 113)" d="M 27.91,76.71 C 29.35,76.37 30.91,76.31 32.4,76.88 33.12,77.17 33.91,77.61 34.31,78.36 34.72,79.08 34.84,79.93 34.65,80.69 L 34.55,80.7 C 34.19,80.01 33.89,79.4 33.48,78.91 33.08,78.43 32.66,77.94 32.06,77.6 31.47,77.27 30.79,77.07 30.09,76.95 29.39,76.82 28.66,76.77 27.93,76.81 L 27.91,76.71 Z M 27.91,76.71" />
            <path id="sue01Canvas-bezier46" stroke="none" fill="rgb(51, 91, 113)" d="M 20,76.71 C 22.09,75.77 24.28,75.02 26.56,74.56 27.7,74.34 28.87,74.1 30.08,74.26 30.67,74.34 31.28,74.48 31.83,74.76 32.39,75.03 32.89,75.46 33.17,75.99 L 33.09,76.06 C 32.14,75.4 31.08,75.29 30,75.25 28.92,75.25 27.8,75.21 26.68,75.35 25.57,75.47 24.45,75.68 23.34,75.93 22.23,76.17 21.12,76.46 20.03,76.8 L 20,76.71 Z M 20,76.71" />
            <path id="sue01Canvas-bezier47" stroke="none" fill="rgb(51, 91, 113)" d="M 38.64,87.99 C 38.49,87 38.27,86.03 37.99,85.07 37.74,84.11 37.42,83.17 37.03,82.27 36.65,81.36 36.12,80.54 35.66,79.7 35.19,78.87 34.66,78.09 34,77.3 L 34.06,77.22 C 35.06,77.57 35.88,78.32 36.5,79.16 37.14,80.01 37.47,81.02 37.78,81.99 38.4,83.95 38.7,85.97 38.74,87.99 L 38.64,87.99 Z M 38.64,87.99" />
            <path id="sue01Canvas-bezier48" stroke="none" fill="rgb(51, 91, 113)" d="M 119.56,58.06 C 122.55,58.33 125.53,58.77 128.47,59.45 129.94,59.8 131.4,60.22 132.82,60.78 134.21,61.36 135.66,62.02 136.71,63.31 137.63,64.63 138.23,66 138.85,67.39 139.44,68.78 139.95,70.21 140.42,71.64 140.86,73.08 141.31,74.51 141.71,75.96 L 142.33,78.12 C 142.53,78.84 142.72,79.57 143.03,80.24 L 142.94,80.29 C 142.1,79.01 141.62,77.57 141.05,76.18 L 139.48,71.96 C 138.97,70.56 138.46,69.15 137.93,67.76 137.39,66.39 136.82,64.98 136.07,63.79 135.26,62.7 133.89,61.97 132.56,61.38 131.21,60.79 129.79,60.33 128.35,59.93 125.47,59.14 122.52,58.57 119.55,58.16 L 119.56,58.06 Z M 119.56,58.06" />
            <path id="sue01Canvas-bezier49" stroke="none" fill="rgb(51, 91, 113)" d="M 143.03,81.39 C 143.51,82.92 144.03,84.44 144.6,85.93 145.15,87.44 145.76,88.89 146.46,90.34 147.14,91.79 147.87,93.23 148.36,94.78 148.61,95.55 148.84,96.34 148.96,97.16 149.02,97.57 149.07,97.98 149.04,98.42 149.01,98.64 148.99,98.88 148.79,99.09 148.53,99.32 148.25,99.17 148.1,99.07 L 148.14,98.98 C 148.33,99.02 148.53,99.01 148.57,98.9 148.63,98.8 148.62,98.61 148.59,98.43 148.53,98.07 148.41,97.69 148.28,97.32 148.02,96.59 147.73,95.85 147.43,95.12 146.82,93.66 146.31,92.14 145.72,90.65 145.12,89.17 144.57,87.63 144.12,86.09 143.68,84.54 143.28,82.98 142.93,81.42 L 143.03,81.39 Z M 143.03,81.39" />
            <path id="sue01Canvas-bezier50" stroke="none" fill="rgb(51, 91, 113)" d="M 139.97,117.07 C 139.74,115.59 139.65,114.08 139.72,112.57 139.83,111.06 140.08,109.52 140.82,108.11 141.2,107.41 141.72,106.74 142.42,106.26 143.17,105.8 143.78,105.59 144.45,105.23 145.11,104.92 145.75,104.59 146.33,104.19 146.92,103.8 147.33,103.28 147.48,102.51 L 147.58,102.52 C 147.63,102.9 147.62,103.31 147.47,103.71 147.32,104.1 147.06,104.43 146.79,104.72 146.23,105.3 145.57,105.72 144.92,106.12 144.58,106.3 144.25,106.48 143.9,106.65 143.55,106.82 143.21,106.93 142.95,107.1 142.38,107.42 141.9,107.92 141.52,108.51 140.77,109.7 140.41,111.16 140.22,112.61 140.02,114.07 139.97,115.57 140.07,117.06 L 139.97,117.07 Z M 139.97,117.07" />
            <path id="sue01Canvas-bezier51" stroke="none" fill="rgb(51, 91, 113)" d="M 149.86,114.16 C 149.11,111.29 148.49,108.37 148.23,105.37 148.16,104.62 148.12,103.86 148.16,103.09 148.18,102.7 148.22,102.31 148.31,101.9 148.37,101.7 148.43,101.5 148.52,101.3 148.57,101.2 148.62,101.1 148.68,101 L 148.82,100.76 C 149.22,100.14 149.59,99.53 149.96,98.9 150.14,98.58 150.31,98.26 150.46,97.93 150.61,97.61 150.77,97.26 150.79,96.92 L 150.89,96.89 C 151.08,97.7 150.81,98.45 150.59,99.18 150.36,99.9 150.03,100.59 149.69,101.26 L 149.55,101.51 C 149.52,101.57 149.49,101.63 149.46,101.7 149.4,101.84 149.36,102 149.32,102.16 149.24,102.48 149.18,102.82 149.14,103.17 149.05,103.88 149.03,104.6 149.03,105.34 149.05,106.8 149.18,108.27 149.35,109.74 149.51,111.21 149.71,112.68 149.95,114.14 L 149.86,114.16 Z M 149.86,114.16" />
            <path id="sue01Canvas-bezier52" stroke="none" fill="rgb(51, 91, 113)" d="M 154.32,106.22 C 153.95,104.09 153.54,101.97 153.06,99.87 152.83,98.83 152.57,97.78 152.26,96.77 152.18,96.51 152.09,96.26 152,96.02 151.91,95.81 151.78,95.47 151.74,95.18 151.65,94.6 151.66,94.03 151.7,93.48 151.88,91.26 152.38,89.12 153.13,87.07 153.53,86.06 153.94,85.04 154.44,84.07 154.98,83.13 155.43,82.08 156.38,81.41 L 156.43,81.5 C 156.08,81.86 155.87,82.38 155.66,82.86 155.45,83.35 155.26,83.85 155.08,84.35 154.72,85.36 154.37,86.37 154.07,87.39 153.47,89.43 152.76,91.47 152.49,93.55 152.43,94.07 152.4,94.59 152.46,95.07 152.49,95.49 152.77,96.06 152.88,96.58 153.16,97.64 153.36,98.71 153.55,99.78 153.91,101.91 154.18,104.05 154.41,106.2 L 154.32,106.22 Z M 154.32,106.22" />
            <path id="sue01Canvas-bezier53" stroke="none" fill="rgb(51, 91, 113)" d="M 157.08,83.66 C 158.07,85.41 159.11,87.15 160.19,88.85 161.26,90.55 162.36,92.25 163.6,93.8 163.92,94.18 164.24,94.56 164.58,94.89 164.9,95.2 165.36,95.55 165.55,95.54 165.57,95.58 165.84,95.29 165.93,94.86 166.05,94.45 166.09,93.97 166.11,93.49 166.18,91.54 165.93,89.53 165.76,87.51 L 165.86,87.49 C 166.23,88.44 166.49,89.43 166.71,90.43 166.94,91.43 167.08,92.45 167.11,93.5 167.1,94.03 167.08,94.57 166.93,95.13 166.86,95.41 166.74,95.7 166.54,95.98 166.42,96.13 166.32,96.25 166.11,96.38 L 166.01,96.43 C 165.93,96.47 165.88,96.48 165.81,96.51 165.68,96.54 165.55,96.54 165.45,96.53 165.01,96.45 164.77,96.26 164.54,96.08 164.31,95.9 164.12,95.71 163.94,95.51 163.59,95.12 163.27,94.71 162.97,94.29 161.76,92.62 160.75,90.87 159.76,89.1 158.79,87.32 157.87,85.52 156.99,83.7 L 157.08,83.66 Z M 157.08,83.66" />
            <path id="sue01Canvas-bezier54" stroke="none" fill="rgb(51, 91, 113)" d="M 164.04,93.18 C 164.4,90.6 164.84,88.03 165.42,85.48 165.7,84.2 165.96,82.91 166.45,81.68 166.71,81.07 166.98,80.46 167.34,79.89 167.7,79.34 168.08,78.71 168.76,78.44 L 168.81,78.53 C 168.58,78.75 168.44,79.02 168.31,79.31 168.18,79.59 168.07,79.89 167.97,80.19 167.77,80.79 167.58,81.4 167.4,82.01 167.04,83.24 166.58,84.45 166.19,85.68 165.45,88.16 164.78,90.67 164.14,93.2 L 164.04,93.18 Z M 164.04,93.18" />
            <path id="sue01Canvas-bezier55" stroke="none" fill="rgb(51, 91, 113)" d="M 170.69,77.9 L 175.81,76.49 178.38,75.82 179.02,75.66 C 179.07,75.65 179.05,75.65 179.08,75.64 179.11,75.63 179.15,75.62 179.15,75.62 L 179.24,75.57 C 179.31,75.53 179.39,75.48 179.46,75.42 179.76,75.17 180.02,74.84 180.27,74.5 181.25,73.09 181.97,71.47 182.85,69.95 183.29,69.18 183.73,68.41 184.21,67.67 184.72,66.94 185.14,66.12 185.94,65.58 L 185.98,65.67 C 185.71,65.97 185.54,66.39 185.36,66.79 185.18,67.18 185,67.59 184.83,67.99 184.49,68.81 184.12,69.61 183.74,70.41 182.96,72.01 182.04,73.55 180.91,74.98 180.62,75.34 180.31,75.69 179.91,75.99 179.8,76.07 179.69,76.14 179.57,76.2 179.51,76.23 179.44,76.26 179.36,76.28 179.31,76.3 179.3,76.3 179.27,76.31 L 179.17,76.33 178.52,76.46 175.92,76.98 170.71,78 170.69,77.9 Z M 170.69,77.9" />
            <path id="sue01Canvas-bezier56" stroke="none" fill="rgb(51, 91, 113)" d="M 180.1,69.89 C 181.57,68.3 183.06,66.72 184.6,65.19 185.39,64.44 186.16,63.69 187.06,63.01 187.17,62.92 187.29,62.84 187.42,62.76 187.55,62.68 187.72,62.61 187.83,62.57 188.08,62.47 188.23,62.36 188.43,62.2 188.78,61.92 189.07,61.45 189.05,61.15 189.01,61.03 189.04,61.06 188.86,61.02 188.67,60.99 188.43,61.01 188.2,61.06 187.73,61.16 187.25,61.35 186.8,61.58 185.9,62.05 185.04,62.65 184.22,63.31 182.55,64.61 181.08,66.19 179.55,67.73 L 179.47,67.67 C 180.56,65.77 181.94,64.05 183.57,62.54 184.41,61.82 185.33,61.15 186.38,60.68 186.9,60.45 187.46,60.26 188.05,60.18 188.36,60.14 188.66,60.12 189.01,60.18 189.18,60.21 189.41,60.29 189.59,60.47 189.78,60.66 189.84,60.91 189.85,61.11 189.81,61.91 189.35,62.38 188.88,62.77 188.66,62.95 188.34,63.12 188.08,63.21 187.93,63.26 187.85,63.29 187.75,63.35 187.64,63.4 187.54,63.47 187.43,63.54 186.57,64.13 185.75,64.85 184.94,65.56 183.32,66.98 181.74,68.46 180.18,69.96 L 180.1,69.89 Z M 180.1,69.89" />
            <path id="sue01Canvas-bezier57" stroke="none" fill="rgb(51, 91, 113)" d="M 182.9,62.79 C 184.22,60.63 185.61,58.51 187.42,56.63 187.88,56.17 188.34,55.71 189.01,55.36 189.18,55.28 189.37,55.21 189.6,55.17 189.82,55.13 190.11,55.17 190.24,55.21 190.48,55.27 190.68,55.36 190.88,55.52 191.08,55.68 191.23,55.92 191.29,56.16 191.41,56.66 191.28,57.05 191.14,57.38 190.99,57.71 190.81,58.01 190.58,58.26 190.15,58.78 189.64,59.23 189.02,59.47 L 188.97,59.39 C 189.4,58.93 189.73,58.41 190,57.88 190.26,57.38 190.46,56.73 190.33,56.44 190.3,56.34 190.2,56.27 190.02,56.22 189.85,56.19 189.82,56.17 189.73,56.18 189.64,56.19 189.53,56.22 189.41,56.26 188.93,56.45 188.43,56.83 187.96,57.22 187.04,58.02 186.19,58.96 185.37,59.91 184.54,60.86 183.75,61.84 182.99,62.85 L 182.9,62.79 Z M 182.9,62.79" />
            <path id="sue01Canvas-bezier58" stroke="none" fill="rgb(51, 91, 113)" d="M 178.47,68.32 C 177.31,68.86 176.14,69.38 174.98,69.9 174.4,70.16 173.85,70.5 173.24,70.67 172.63,70.85 172.02,70.98 171.35,71.06 L 171.29,70.97 C 171.72,70.4 172.3,70.05 172.86,69.74 173.44,69.43 174.09,69.33 174.7,69.15 175.94,68.79 177.18,68.49 178.44,68.22 L 178.47,68.32 Z M 178.47,68.32" />
            <path id="sue01Canvas-bezier59" stroke="none" fill="rgb(51, 91, 113)" d="M 167.66,69.93 C 167.02,70.28 166.39,70.4 165.8,70.7 165.2,70.96 164.63,71.27 164.16,71.67 163.68,72.06 163.42,72.58 163.17,73.05 162.91,73.55 162.79,74.14 162.64,74.84 L 162.55,74.86 C 162.15,74.26 162.01,73.47 162.23,72.71 162.44,71.93 163.09,71.38 163.69,71.02 164.31,70.64 164.98,70.4 165.64,70.23 166.29,70.06 167.01,70.03 167.59,69.86 L 167.66,69.93 Z M 167.66,69.93" />
            <path id="sue01Canvas-bezier60" stroke="none" fill="rgb(51, 91, 113)" d="M 172.32,68.62 C 170.31,68.43 168.27,68.39 166.3,68.7 165.33,68.85 164.34,69.11 163.59,69.64 163.21,69.91 162.99,70.26 162.76,70.71 162.54,71.14 162.34,71.6 162.15,72.06 161.41,73.92 160.85,75.86 160.14,77.75 159.43,79.64 158.71,81.53 157.87,83.39 L 157.78,83.36 C 158.09,81.34 158.61,79.37 159.19,77.43 159.78,75.48 160.56,73.6 161.42,71.74 161.64,71.27 161.86,70.81 162.13,70.36 162.37,69.91 162.74,69.4 163.22,69.11 164.16,68.51 165.22,68.32 166.24,68.2 168.29,68.02 170.33,68.2 172.33,68.53 L 172.32,68.62 Z M 172.32,68.62" />
            <path id="sue01Canvas-bezier61" stroke="none" fill="rgb(51, 91, 113)" d="M 166.03,97.02 C 165.48,100 164.54,102.9 163.4,105.7 162.25,108.49 161.19,111.32 160.63,114.27 160.49,115.01 160.37,115.75 160.25,116.49 160.13,117.27 159.91,118 159.68,118.73 159.21,120.18 158.66,121.59 158.06,122.99 156.85,125.77 155.47,128.5 153.68,131 152.77,132.23 151.78,133.45 150.37,134.31 149.69,134.72 148.77,135 147.92,134.84 147.03,134.68 146.35,134.34 145.65,133.97 142.93,132.43 140.65,130.4 138.44,128.3 136.28,126.17 134.22,123.93 132.34,121.53 131.41,120.33 130.52,119.1 129.72,117.81 129.32,117.16 128.95,116.49 128.63,115.8 128.32,115.1 128.03,114.38 128,113.6 L 128.1,113.59 C 128.18,114.33 128.53,115.02 128.88,115.67 129.24,116.32 129.66,116.95 130.1,117.56 130.96,118.79 131.9,119.95 132.88,121.09 134.85,123.37 136.92,125.55 139.13,127.58 140.22,128.61 141.34,129.6 142.51,130.54 143.67,131.47 144.86,132.38 146.13,133.1 146.75,133.46 147.44,133.79 148.05,133.91 148.7,134.04 149.32,133.87 149.93,133.53 151.14,132.83 152.14,131.69 153.04,130.52 154.81,128.13 156.22,125.46 157.46,122.73 158.08,121.36 158.65,119.96 159.13,118.55 159.37,117.84 159.6,117.12 159.72,116.41 159.85,115.66 159.98,114.91 160.14,114.17 160.77,111.18 161.91,108.35 163.12,105.58 164.32,102.82 165.32,99.96 165.93,97 L 166.03,97.02 Z M 166.03,97.02" />
            <path id="sue01Canvas-bezier62" stroke="none" fill="rgb(51, 91, 113)" d="M 132.59,78.56 C 133.55,81.59 134.06,84.75 134.24,87.93 134.41,91.1 134.18,94.32 133.47,97.43 133.11,98.99 132.62,100.52 132,101.99 131.34,103.46 130.69,104.87 130.21,106.37 129.22,109.36 128.59,112.46 128.18,115.58 127.4,121.83 127.45,128.18 128.06,134.44 128.22,136 128.43,137.56 128.75,139.09 129.09,140.59 129.57,142.16 129.83,143.73 130.41,146.86 130.71,150.05 130.66,153.23 L 130.56,153.23 C 130.47,151.65 130.28,150.08 130.03,148.52 129.8,146.95 129.51,145.4 129.14,143.87 128.96,143.11 128.76,142.34 128.55,141.59 128.35,140.84 128.09,140.07 127.91,139.28 127.53,137.72 127.27,136.14 127.07,134.55 126.31,128.21 126.48,121.78 127.39,115.47 127.85,112.32 128.53,109.18 129.6,106.16 130.1,104.65 130.81,103.18 131.47,101.77 132.1,100.33 132.6,98.84 132.98,97.31 133.75,94.26 134.04,91.09 133.94,87.94 133.83,84.78 133.38,81.62 132.49,78.59 L 132.59,78.56 Z M 132.59,78.56" />
            <path id="sue01Canvas-bezier63" stroke="none" fill="rgb(51, 91, 113)" d="M 128.04,153.28 C 124.4,152.62 120.74,152.06 117.08,151.64 115.25,151.43 113.41,151.34 111.59,151.14 109.77,150.95 107.95,150.78 106.09,150.69 L 106.08,150.59 C 107.91,150.14 109.8,150.09 111.66,150.14 113.53,150.21 115.37,150.53 117.19,150.84 120.86,151.45 124.48,152.24 128.06,153.18 L 128.04,153.28 Z M 128.04,153.28" />
            <path id="sue01Canvas-bezier64" stroke="none" fill="rgb(51, 91, 113)" d="M 97.74,150.59 L 97.88,155.04 97.68,154.85 C 99.16,154.71 100.64,154.6 102.13,154.53 102.88,154.5 103.62,154.47 104.37,154.47 105.14,154.48 105.84,154.44 106.71,154.64 L 106.16,155.02 C 106.16,154.39 106.14,153.76 106.06,153.14 106.03,152.84 105.97,152.53 105.91,152.24 105.88,152.1 105.84,151.96 105.79,151.83 105.76,151.71 105.67,151.53 105.67,151.54 L 106.04,151.74 C 104.64,151.64 103.25,151.47 101.86,151.28 101.16,151.2 100.46,151.07 99.77,150.97 99.09,150.86 98.42,150.73 97.74,150.59 Z M 97.7,150.48 C 98.4,150.45 99.11,150.43 99.81,150.44 100.52,150.45 101.22,150.44 101.92,150.48 103.33,150.53 104.73,150.59 106.13,150.72 L 106.39,150.74 106.5,150.92 C 106.67,151.2 106.69,151.33 106.76,151.52 106.82,151.7 106.86,151.87 106.89,152.04 106.95,152.38 106.98,152.72 107.01,153.06 107.05,153.73 107.03,154.39 106.99,155.05 L 106.96,155.59 106.44,155.43 C 105.87,155.25 105.07,155.23 104.36,155.19 103.62,155.16 102.88,155.15 102.15,155.15 100.67,155.15 99.18,155.19 97.7,155.23 L 97.5,155.23 97.5,155.04 97.64,150.48 97.7,150.48 Z M 97.7,150.48" />
            <path id="sue01Canvas-bezier65" stroke="none" fill="rgb(51, 91, 113)" d="M 96.42,150.58 C 94.86,150.73 93.31,150.96 91.79,151.26 91.03,151.4 90.29,151.66 89.52,151.75 88.76,151.85 87.99,151.94 87.17,151.93 L 87.13,151.83 C 87.79,151.32 88.55,151.01 89.31,150.78 90.08,150.53 90.89,150.53 91.68,150.46 93.27,150.34 94.85,150.34 96.42,150.48 L 96.42,150.58 Z M 96.42,150.58" />
            <path id="sue01Canvas-bezier66" stroke="none" fill="rgb(51, 91, 113)" d="M 87.19,150.56 C 86.43,151.22 85.52,151.6 84.62,151.98 83.71,152.34 82.78,152.64 81.84,152.91 79.95,153.42 78.05,153.84 76.16,154.34 72.39,155.3 68.62,156.31 64.86,157.34 L 64.54,157.42 64.54,157.09 C 64.56,154.26 65,151.47 65.74,148.74 66.11,147.39 66.56,146.05 67.12,144.75 67.71,143.44 68.29,142.23 68.7,140.91 70.4,135.65 70.72,130.01 70.48,124.49 70.36,121.72 70.07,118.96 69.67,116.22 69.23,113.46 68.93,110.66 68.72,107.86 68.52,105.07 68.45,102.26 68.61,99.45 68.77,96.66 69.15,93.84 70.09,91.19 L 70.18,91.22 C 69.41,93.9 69.25,96.7 69.19,99.47 69.16,102.25 69.33,105.03 69.58,107.79 69.84,110.56 70.24,113.31 70.67,116.06 71.12,118.84 71.38,121.64 71.48,124.45 71.63,130.06 71.2,135.76 69.4,141.14 68.96,142.48 68.31,143.79 67.74,145.02 67.19,146.28 66.72,147.58 66.34,148.91 65.58,151.57 65.11,154.34 65.06,157.09 L 64.74,156.84 C 68.51,155.88 72.3,154.94 76.09,154.04 77.99,153.57 79.9,153.18 81.79,152.71 82.73,152.46 83.66,152.18 84.56,151.84 85.46,151.48 86.39,151.11 87.12,150.49 L 87.19,150.56 Z M 87.19,150.56" />
            <path id="sue01Canvas-bezier67" stroke="none" fill="rgb(51, 91, 113)" d="M 111.44,112.82 C 108.78,112.39 106.01,112.96 103.66,114.18 102.47,114.79 101.41,115.58 100.4,116.48 99.38,117.37 98.33,118.23 97.27,119.09 95.16,120.79 93.03,122.49 90.75,123.98 88.45,125.43 86.12,126.87 83.56,127.85 L 83.52,127.76 C 85.79,126.28 88,124.74 90.18,123.15 92.37,121.57 94.61,120.07 96.78,118.46 97.86,117.65 98.93,116.82 99.99,115.98 101.03,115.11 102.19,114.31 103.44,113.73 105.94,112.59 108.79,112.16 111.47,112.72 L 111.44,112.82 Z M 111.44,112.82" />
            <path id="sue01Canvas-bezier68" stroke="none" fill="rgb(51, 91, 113)" d="M 107.94,154.37 C 111.34,154.12 114.75,153.93 118.17,153.83 119.88,153.76 121.59,153.66 123.3,153.76 124.15,153.82 125.01,153.89 125.86,154.02 126.71,154.15 127.58,154.28 128.39,154.63 L 128.36,154.73 C 126.67,154.64 124.97,154.76 123.27,154.76 121.58,154.79 119.88,154.67 118.17,154.62 L 107.94,154.47 107.94,154.37 Z M 107.94,154.37" />
            <path id="sue01Canvas-bezier69" stroke="none" fill="rgb(51, 91, 113)" d="M 96.75,154.73 L 85.82,155.63 C 84.01,155.79 82.19,156.01 80.37,156.07 78.55,156.15 76.71,156.11 74.9,156.16 L 74.87,156.06 C 75.75,155.72 76.67,155.59 77.57,155.43 78.48,155.27 79.39,155.17 80.3,155.07 82.12,154.88 83.95,154.88 85.78,154.84 89.43,154.72 93.09,154.65 96.75,154.63 L 96.75,154.73 Z M 96.75,154.73" />
            <path id="sue01Canvas-bezier70" stroke="none" fill="rgb(51, 91, 113)" d="M 129.76,155.02 C 131.33,158.46 132.5,162.07 133.47,165.72 134.43,169.38 135.13,173.11 135.57,176.88 136.44,184.4 136.23,192.07 134.76,199.53 133.21,206.94 131.54,214.31 129.54,221.6 127.48,228.88 125.4,236.15 122.63,243.21 L 122.54,243.16 C 123.15,241.39 123.64,239.56 124.16,237.74 L 125.68,232.29 C 126.67,228.65 127.65,225.01 128.57,221.35 130.44,214.04 132.33,206.73 133.98,199.37 135.53,192.02 135.84,184.42 135.08,176.93 134.7,173.18 134.07,169.46 133.18,165.8 132.28,162.14 131.17,158.52 129.67,155.06 L 129.76,155.02 Z M 129.76,155.02" />
            <path id="sue01Canvas-bezier71" stroke="none" fill="rgb(51, 91, 113)" d="M 121.72,245.42 C 121.41,246.08 121.15,246.77 120.95,247.46 120.75,248.15 120.59,248.88 120.66,249.55 120.68,249.71 120.71,249.87 120.77,250 120.8,250.07 120.84,250.13 120.88,250.18 L 121.05,250.37 C 121.4,250.84 121.26,251.37 121.13,251.72 120.83,252.48 120.39,253.08 119.98,253.69 119.78,254 119.58,254.3 119.4,254.6 119.23,254.89 119.06,255.23 119.05,255.42 119.04,255.46 119.05,255.48 119.05,255.48 119.06,255.47 119.04,255.47 119.05,255.46 119.04,255.46 119.04,255.45 119.04,255.45 L 119.11,255.53 C 119.13,255.54 119.32,255.85 119.33,255.93 119.38,256.07 119.4,256.19 119.41,256.3 119.44,256.77 119.37,257.15 119.31,257.53 119.14,258.28 118.92,258.98 118.7,259.67 118.59,260.01 118.49,260.36 118.43,260.7 118.36,261.03 118.31,261.4 118.57,261.62 L 118.53,261.71 C 118.32,261.66 118.16,261.46 118.1,261.27 118.02,261.08 117.99,260.88 117.97,260.68 117.95,260.29 117.98,259.91 118.01,259.53 118.09,258.79 118.24,258.07 118.32,257.37 118.37,257.03 118.41,256.68 118.37,256.41 118.36,256.35 118.36,256.29 118.35,256.25 118.34,256.22 118.33,256.21 118.34,256.22 118.34,256.22 118.35,256.23 118.36,256.22 L 118.31,256.17 C 118.31,256.16 118.26,256.11 118.29,256.14 L 118.2,256.02 C 118.14,255.94 118.12,255.84 118.08,255.75 118.04,255.57 118.04,255.4 118.07,255.27 118.19,254.74 118.43,254.44 118.65,254.11 118.87,253.8 119.1,253.51 119.33,253.22 119.78,252.65 120.25,252.08 120.53,251.48 120.67,251.19 120.71,250.88 120.6,250.73 L 120.42,250.5 C 120.36,250.4 120.31,250.3 120.27,250.2 120.2,249.99 120.17,249.78 120.16,249.58 120.16,248.78 120.4,248.06 120.66,247.37 120.93,246.68 121.26,246.01 121.63,245.37 L 121.72,245.42 Z M 121.72,245.42" />
            <path id="sue01Canvas-bezier72" stroke="none" fill="rgb(51, 91, 113)" d="M 117.51,323.94 C 116.83,328.85 115.82,333.7 115.15,338.59 114.82,341.03 114.65,343.48 114.5,345.92 114.33,348.36 114.39,350.81 114.55,353.28 L 114.45,353.3 C 113.72,350.91 113.51,348.38 113.5,345.89 113.52,343.38 113.92,340.91 114.36,338.46 115.22,333.57 116.45,328.78 117.41,323.92 L 117.51,323.94 Z M 117.51,323.94" />
            <path id="sue01Canvas-bezier73" stroke="none" fill="rgb(51, 91, 113)" d="M 121.24,366.69 C 120.13,368.2 118.31,369.16 116.41,369.34 114.5,369.51 112.6,369.12 110.82,368.46 110.36,368.28 109.97,368.15 109.47,367.86 109.04,367.57 108.67,367.25 108.33,366.89 107.65,366.18 107.12,365.36 106.7,364.49 105.89,362.75 105.48,360.87 105.43,359 L 105.53,358.98 C 106.11,360.75 106.72,362.48 107.59,364.04 108.02,364.82 108.5,365.56 109.06,366.23 109.34,366.56 109.65,366.88 109.98,367.12 110.26,367.32 110.73,367.54 111.12,367.72 112.77,368.43 114.57,368.91 116.37,368.84 118.17,368.8 119.95,368.03 121.17,366.63 L 121.24,366.69 Z M 121.24,366.69" />
            <path id="sue01Canvas-bezier74" stroke="none" fill="rgb(51, 91, 113)" d="M 120.6,365.07 C 120.14,364.3 119.66,363.54 119.15,362.8 118.65,362.05 118.14,361.31 117.57,360.65 117.29,360.33 116.98,360.01 116.66,359.8 116.27,359.53 115.86,359.08 115.67,358.62 115.26,357.69 115.21,356.68 115.49,355.77 L 115.59,355.77 C 115.86,356.66 116.13,357.49 116.55,358.15 116.78,358.49 116.96,358.75 117.28,359.03 117.67,359.39 117.94,359.78 118.21,360.16 119.24,361.71 120,363.35 120.69,365.03 L 120.6,365.07 Z M 120.6,365.07" />
            <path id="sue01Canvas-bezier75" stroke="none" fill="rgb(51, 91, 113)" d="M 105.29,357.91 C 104.81,357.59 104.39,357.19 104.08,356.66 103.93,356.39 103.72,356.09 103.78,355.73 103.83,355.39 104.03,355.04 104.4,354.91 L 104.49,354.96 104.78,355.7 C 104.86,355.89 104.78,356.12 104.82,356.37 104.92,356.84 105.11,357.35 105.36,357.84 L 105.29,357.91 Z M 105.29,357.91" />
            <path id="sue01Canvas-bezier76" stroke="none" fill="rgb(51, 91, 113)" d="M 103.81,361.5 C 104.41,363.04 104.91,364.62 105.15,366.26 105.25,367.08 105.3,367.95 105.06,368.77 104.89,369.52 104.96,370.34 105.14,371.11 105.52,372.64 106.48,374.01 107.78,374.89 109.07,375.79 110.65,376.2 112.23,376.32 113.81,376.4 115.5,376.33 117.11,376.27 118.71,376.18 120.36,376.09 121.79,375.58 122.5,375.33 123.14,374.94 123.5,374.34 123.87,373.75 123.93,372.98 123.88,372.21 123.72,370.65 123.09,369.11 122.45,367.61 L 122.54,367.56 C 123.43,368.94 124.24,370.42 124.57,372.12 124.73,372.96 124.7,373.92 124.24,374.77 123.79,375.63 122.96,376.18 122.15,376.51 120.49,377.15 118.79,377.23 117.13,377.26 116.3,377.27 115.48,377.26 114.66,377.24 113.84,377.22 113.01,377.22 112.16,377.12 110.49,376.94 108.79,376.45 107.4,375.42 106.01,374.42 105.01,372.88 104.66,371.22 104.49,370.38 104.44,369.52 104.67,368.67 104.93,367.91 104.92,367.11 104.85,366.3 104.68,364.68 104.25,363.09 103.72,361.54 L 103.81,361.5 Z M 103.81,361.5" />
            <path id="sue01Canvas-bezier77" stroke="none" fill="rgb(51, 91, 113)" d="M 90.58,354.99 C 90.61,355.75 90.53,356.52 90.31,357.26 90.2,357.63 90.04,357.99 89.83,358.32 89.63,358.66 89.29,358.92 89.09,359.19 88.19,360.37 87.56,361.76 86.93,363.13 L 86.48,364.16 86.26,364.68 86.2,364.81 86.18,364.91 86.11,365.17 C 85.98,365.87 85.99,366.61 86.28,367.2 86.55,367.81 87.13,368.21 87.79,368.4 88.46,368.61 89.16,368.62 89.92,368.61 91.43,368.59 92.94,368.58 94.39,368.35 95.81,368.13 97.22,367.67 97.95,366.56 98.33,366.02 98.55,365.35 98.67,364.65 98.79,363.9 98.91,363.14 99.1,362.4 99.28,361.66 99.49,360.91 99.75,360.19 99.89,359.83 100.05,359.47 100.24,359.13 100.44,358.82 100.63,358.4 101.08,358.32 L 101.09,358.42 C 100.78,358.53 100.64,358.94 100.5,359.26 100.37,359.6 100.27,359.96 100.19,360.32 100.01,361.05 99.89,361.79 99.79,362.53 99.7,363.28 99.59,364.01 99.52,364.76 99.44,365.56 99.24,366.38 98.78,367.11 98.32,367.84 97.61,368.4 96.86,368.74 96.09,369.08 95.3,369.24 94.52,369.34 92.96,369.51 91.43,369.46 89.92,369.41 89.17,369.4 88.34,369.37 87.56,369.09 86.79,368.84 86.02,368.28 85.69,367.47 85.35,366.68 85.38,365.83 85.55,365.05 L 85.63,364.76 85.69,364.59 85.75,364.46 85.99,363.94 86.48,362.91 C 87.18,361.56 87.86,360.2 88.86,359 90.09,358.05 90.45,356.48 90.48,355 L 90.58,354.99 Z M 90.58,354.99" />
            <path id="sue01Canvas-bezier78" stroke="none" fill="rgb(51, 91, 113)" d="M 100.27,369.45 C 100.4,371.95 99.27,374.6 97.07,376.03 95.98,376.74 94.71,377.12 93.43,377.26 92.13,377.38 90.92,377.37 89.65,377.39 88.39,377.39 87.11,377.36 85.82,377.09 85.18,376.94 84.53,376.74 83.93,376.36 83.33,375.98 82.82,375.41 82.54,374.73 82.02,373.36 82.28,371.98 82.64,370.77 83.04,369.55 83.59,368.41 84.24,367.33 L 84.33,367.38 C 83.94,368.56 83.55,369.75 83.32,370.94 83.1,372.12 82.98,373.37 83.45,374.33 83.88,375.3 84.92,375.84 86.06,376.13 87.2,376.43 88.43,376.53 89.66,376.59 90.89,376.62 92.18,376.68 93.37,376.62 94.57,376.53 95.76,376.22 96.8,375.61 98.91,374.4 100.16,371.93 100.17,369.46 L 100.27,369.45 Z M 100.27,369.45" />
            <path id="sue01Canvas-bezier79" stroke="none" fill="rgb(51, 91, 113)" d="M 98.42,267.37 C 99.01,268.39 99.19,269.57 99.39,270.71 99.58,271.86 99.69,273.01 99.79,274.17 99.98,276.48 100.06,278.8 100.11,281.12 100.19,285.76 100.13,290.4 99.92,295.04 99.88,296.2 99.72,297.36 99.72,298.5 99.72,299.65 99.77,300.81 99.84,301.96 99.98,304.27 100.2,306.57 100.44,308.88 100.93,313.48 101.55,318.07 102.24,322.65 L 101.85,322.36 C 104.79,322.06 107.73,321.88 110.69,321.88 112.17,321.88 113.65,321.93 115.13,322.1 115.87,322.2 116.61,322.32 117.36,322.52 118.08,322.74 118.86,322.98 119.49,323.64 L 118.74,323.98 C 118.44,321.43 118.56,318.87 118.8,316.35 119.04,313.82 119.45,311.32 120.06,308.84 121.54,304.05 121.81,299.03 122.02,294.03 122.11,291.52 122.1,289.01 122,286.51 121.95,285.26 121.88,284.01 121.76,282.77 121.7,282.15 121.63,281.53 121.52,280.92 121.47,280.62 121.41,280.33 121.33,280.03 121.24,279.72 121.18,279.4 121.12,279.09 120.29,274.07 120.11,269.04 119.89,264.01 L 119.99,264 C 120.19,266.51 120.42,269.02 120.7,271.52 120.99,274.01 121.25,276.52 121.75,278.96 122.51,281.37 122.67,283.97 122.83,286.47 122.97,288.99 123.01,291.52 122.97,294.05 122.94,296.58 122.79,299.11 122.51,301.62 122.24,304.12 121.76,306.7 121.03,309.08 120.43,311.49 120.04,313.97 119.75,316.45 119.49,318.92 119.36,321.43 119.61,323.88 L 119.74,325.21 118.85,324.22 C 118.47,323.8 117.79,323.53 117.13,323.34 116.45,323.14 115.75,323.02 115.03,322.92 113.6,322.73 112.14,322.67 110.69,322.65 107.77,322.63 104.84,322.78 101.93,323.05 L 101.59,323.09 101.55,322.76 C 100.9,318.16 100.33,313.55 99.87,308.93 99.65,306.62 99.45,304.31 99.33,301.99 99.27,300.83 99.23,299.66 99.25,298.49 99.27,297.31 99.44,296.17 99.49,295.01 99.76,290.39 99.87,285.76 99.85,281.12 99.83,278.81 99.77,276.49 99.61,274.18 99.53,273.02 99.42,271.87 99.26,270.73 99.07,269.59 98.9,268.42 98.34,267.41 L 98.42,267.37 Z M 98.42,267.37" />
            <path id="sue01Canvas-bezier80" stroke="none" fill="rgb(51, 91, 113)" d="M 104.77,352.9 C 104.8,350.42 104.75,347.94 104.65,345.47 104.57,343 104.44,340.53 104.26,338.06 104.07,335.59 103.77,333.14 103.57,330.68 103.4,328.22 103.12,325.76 103.05,323.26 L 103.15,323.25 C 103.79,325.66 104.21,328.11 104.57,330.57 104.89,333.04 104.97,335.53 105.06,338.01 105.23,342.98 105.19,347.95 104.87,352.9 L 104.77,352.9 Z M 104.77,352.9" />
            <path id="sue01Canvas-bezier81" stroke="none" fill="rgb(51, 91, 113)" d="M 97.55,264.79 C 97.53,263.81 97.56,262.82 97.66,261.84 97.72,261.35 97.8,260.85 97.94,260.36 98.1,259.82 98.24,259.45 98.28,259 98.34,258.56 98.31,258.11 98.18,257.73 98.13,257.53 98.05,257.36 97.95,257.24 97.84,257.1 97.85,257.1 97.57,256.93 97.3,256.75 97.08,256.55 96.91,256.26 96.74,255.98 96.66,255.63 96.7,255.32 96.79,254.69 97.17,254.28 97.56,253.96 L 97.64,254.02 C 97.47,254.48 97.34,254.96 97.41,255.32 97.47,255.67 97.73,255.89 98.06,256.06 98.15,256.11 98.26,256.15 98.44,256.27 98.58,256.38 98.71,256.51 98.8,256.64 98.99,256.92 99.09,257.22 99.14,257.5 99.24,258.07 99.19,258.62 99.07,259.13 98.97,259.65 98.72,260.18 98.55,260.56 98.39,260.99 98.26,261.46 98.15,261.93 97.92,262.86 97.76,263.83 97.64,264.79 L 97.55,264.79 Z M 97.55,264.79" />
            <path id="sue01Canvas-bezier82" stroke="none" fill="rgb(51, 91, 113)" d="M 97.85,251.51 C 97.7,240.71 97.68,229.9 97.82,219.09 97.88,213.68 97.92,208.28 98.23,202.88 98.4,200.18 98.57,197.48 98.85,194.78 99.13,192.09 99.42,189.39 100.08,186.75 L 100.18,186.77 C 99.98,188.11 99.86,189.45 99.78,190.79 99.67,192.14 99.6,193.48 99.54,194.83 99.42,197.53 99.3,200.22 99.23,202.92 L 98.62,219.11 C 98.3,229.9 98.09,240.71 97.95,251.51 L 97.85,251.51 Z M 97.85,251.51" />
            <path id="sue01Canvas-bezier83" stroke="none" fill="rgb(51, 91, 113)" d="M 66.45,158.86 C 66.03,161.5 65.72,164.17 65.46,166.83 65.18,169.49 64.98,172.16 64.85,174.83 64.73,177.51 64.75,180.18 64.72,182.84 64.66,185.51 64.74,188.17 64.85,190.86 L 64.75,190.87 C 64.08,188.25 63.85,185.54 63.72,182.85 63.62,180.15 63.82,177.46 64.05,174.78 64.5,169.42 65.27,164.09 66.35,158.84 L 66.45,158.86 Z M 66.45,158.86" />
            <path id="sue01Canvas-bezier84" stroke="none" fill="rgb(51, 91, 113)" d="M 65.35,193.2 C 65.74,197.78 66.3,202.34 66.95,206.88 67.59,211.42 68.34,215.94 69.23,220.44 70.12,224.94 71.2,229.39 72.29,233.84 73.37,238.29 74.64,242.69 76.02,247.07 L 75.93,247.11 C 74.01,242.92 72.58,238.52 71.33,234.09 70.1,229.65 69.23,225.12 68.44,220.59 66.87,211.53 65.78,202.38 65.25,193.21 L 65.35,193.2 Z M 65.35,193.2" />
            <path id="sue01Canvas-bezier85" stroke="none" fill="rgb(51, 91, 113)" d="M 74.41,251.5 C 74.57,252.24 74.34,252.96 74.26,253.67 74.2,254.02 74.15,254.38 74.13,254.72 74.11,255.05 74.12,255.44 74.25,255.62 74.28,255.66 74.3,255.69 74.34,255.69 74.36,255.71 74.39,255.7 74.4,255.71 L 74.55,255.74 C 74.73,255.78 75,255.85 75.18,256.07 75.53,256.55 75.38,257 75.34,257.36 75.19,258.1 74.98,258.78 74.79,259.47 74.44,260.76 74.92,262.04 75.44,263.32 75.57,263.64 75.72,263.96 75.85,264.34 75.99,264.76 76,265.15 75.97,265.56 75.93,265.95 75.83,266.35 75.63,266.7 75.42,267.05 75.11,267.33 74.74,267.44 L 74.69,267.35 C 75.25,266.89 75.34,266.19 75.27,265.56 75.22,265.25 75.16,264.91 75.03,264.67 L 74.53,263.73 C 73.85,262.45 73.47,260.75 74.03,259.24 74.26,258.56 74.52,257.88 74.7,257.22 74.79,256.9 74.83,256.56 74.73,256.43 74.68,256.36 74.59,256.31 74.43,256.26 L 74.31,256.23 C 74.25,256.21 74.18,256.2 74.12,256.17 73.99,256.11 73.89,256 73.82,255.89 73.6,255.43 73.69,255.05 73.73,254.68 73.79,254.31 73.87,253.96 73.96,253.61 74.11,252.91 74.39,252.21 74.31,251.53 L 74.41,251.5 Z M 74.41,251.5" />
            <path id="sue01Canvas-bezier86" stroke="none" fill="rgb(51, 91, 113)" d="M 98.72,323.27 C 98.09,322.92 97.33,322.92 96.61,322.91 95.88,322.91 95.15,322.96 94.43,323.04 92.98,323.19 91.54,323.42 90.1,323.68 88.66,323.94 87.23,324.23 85.8,324.53 84.37,324.83 82.95,325.15 81.49,325.42 L 81.26,325.46 81.22,325.21 C 80.47,320.65 79.57,316.1 78.51,311.59 77.99,309.34 77.34,307.1 76.93,304.8 76.49,302.51 76.13,300.21 75.81,297.91 75.18,293.3 74.74,288.67 74.43,284.04 74.09,279.41 73.91,274.77 73.85,270.13 L 73.95,270.12 75.3,283.97 C 75.78,288.58 76.24,293.19 76.79,297.78 77.06,300.08 77.36,302.37 77.75,304.65 78.11,306.92 78.73,309.15 79.21,311.43 80.19,315.97 81.03,320.54 81.7,325.14 L 81.42,324.94 C 82.85,324.71 84.29,324.42 85.73,324.15 87.16,323.88 88.61,323.62 90.05,323.39 91.5,323.16 92.95,322.96 94.41,322.84 95.14,322.78 95.88,322.74 96.61,322.76 97.34,322.79 98.11,322.8 98.77,323.18 L 98.72,323.27 Z M 98.72,323.27" />
            <path id="sue01Canvas-bezier87" stroke="none" fill="rgb(51, 91, 113)" d="M 98.69,320.62 C 98.71,316.12 98.67,311.61 98.57,307.1 98.49,302.6 98.36,298.1 98.07,293.61 97.92,291.37 97.73,289.13 97.4,286.92 97.06,284.68 96.86,282.42 96.73,280.16 96.54,275.64 96.55,271.11 97,266.61 L 97.11,266.61 C 97.22,271.12 97.36,275.62 97.73,280.09 97.89,282.33 98.11,284.56 98.38,286.79 98.65,289.05 98.78,291.31 98.87,293.57 99.23,302.59 99.08,311.61 98.79,320.62 L 98.69,320.62 Z M 98.69,320.62" />
            <path id="sue01Canvas-bezier88" stroke="none" fill="rgb(51, 91, 113)" d="M 98.79,324.66 C 98.94,329.99 99.1,335.32 99.35,340.64 99.5,343.29 99.69,345.96 99.96,348.56 99.99,348.88 100.03,349.2 100.1,349.49 100.12,349.62 100.19,349.79 100.17,349.77 100.28,349.89 100.4,350.04 100.5,350.19 100.92,350.77 101.24,351.46 101.34,352.18 101.55,353.63 101.06,355 100.38,356.14 L 100.28,356.1 C 100.71,354.85 100.98,353.51 100.65,352.32 100.49,351.73 100.21,351.18 99.82,350.71 99.72,350.59 99.63,350.49 99.51,350.37 99.28,350.08 99.26,349.92 99.2,349.73 99.09,349.37 99.03,349.04 98.96,348.7 98.56,346 98.6,343.34 98.55,340.66 98.48,335.32 98.55,329.99 98.7,324.66 L 98.79,324.66 Z M 98.79,324.66" />
            <path id="sue01Canvas-bezier89" stroke="none" fill="rgb(51, 91, 113)" d="M 84.07,325.17 C 85.62,330.52 87.02,335.92 88.22,341.36 88.83,344.09 89.45,346.82 89.78,349.6 89.93,350.99 90.07,352.39 90.09,353.8 90.1,355.19 90.1,356.64 89.64,357.99 L 89.54,357.97 C 89.63,357.28 89.63,356.59 89.58,355.9 89.55,355.21 89.48,354.53 89.4,353.84 89.23,352.47 89.04,351.1 88.79,349.74 88.34,347.01 87.94,344.26 87.44,341.52 86.41,336.06 85.24,330.61 83.98,325.19 L 84.07,325.17 Z M 84.07,325.17" />
            <path id="sue01Canvas-bezier90" stroke="none" fill="rgb(51, 91, 113)" d="M 120.94,157.07 C 121.44,158.58 122.05,160.05 122.73,161.47 123.4,162.91 124.15,164.3 125,165.61 125.87,166.92 126.88,168.1 127.94,169.2 129,170.3 130.21,171.23 131.71,171.81 L 131.69,171.91 C 130.04,171.86 128.47,171.01 127.25,169.92 126,168.82 125.11,167.42 124.32,166.03 122.73,163.21 121.61,160.19 120.84,157.1 L 120.94,157.07 Z M 120.94,157.07" />
            <path id="sue01Canvas-bezier91" stroke="none" fill="rgb(51, 91, 113)" d="M 76.56,158.21 C 75.89,161.22 74.93,164.17 73.59,166.99 72.91,168.39 72.18,169.8 71.09,170.98 70.03,172.13 68.62,173.18 67.02,173.34 L 66.99,173.24 C 68.38,172.56 69.42,171.5 70.33,170.33 71.24,169.16 72.13,167.94 72.88,166.62 73.62,165.3 74.27,163.91 74.86,162.5 75.46,161.09 76,159.65 76.46,158.18 L 76.56,158.21 Z M 76.56,158.21" />
        </g>
    </g>
</svg>
