<?xml version="1.0" encoding="UTF-8"?>
<!DOCTYPE svg PUBLIC "-//W3C//DTD SVG 1.1//EN" "http://www.w3.org/Graphics/SVG/1.1/DTD/svg11.dtd">
<svg version="1.1" xmlns="http://www.w3.org/2000/svg" xmlns:xlink="http://www.w3.org/1999/xlink" width="110" height="378"  xml:space="preserve" id="sue02Canvas">
    <!-- Generated by PaintCode - http://www.paintcodeapp.com -->
    <g id="sue02Canvas-lines">
        <g id="sue02Canvas-sue02">
            <path id="sue02Canvas-bezier" stroke="none" fill="rgb(51, 91, 113)" d="M 31.25,2.46 C 30.55,3.82 29.86,5.2 29.23,6.58 28.92,7.28 28.68,8 28.36,8.68 28.21,9.02 28.06,9.37 27.93,9.71 27.82,10.06 27.65,10.41 27.74,10.77 L 27.68,10.8 C 27.41,10.45 27.45,9.99 27.49,9.61 27.54,9.21 27.64,8.83 27.76,8.45 28,7.7 28.41,7.03 28.77,6.36 29.51,5 30.33,3.7 31.2,2.43 L 31.25,2.46 Z M 31.25,2.46" />
            <path id="sue02Canvas-bezier2" stroke="none" fill="rgb(51, 91, 113)" d="M 32.34,0.89 C 34.34,0.29 36.42,0.02 38.5,-0 40.58,-0.01 42.67,0.29 44.65,0.97 46.63,1.66 48.47,2.74 50.02,4.16 51.57,5.58 52.83,7.29 53.8,9.15 54.3,10.07 54.7,11.03 55.1,11.99 55.5,12.95 55.87,13.92 56.22,14.9 56.91,16.86 57.47,18.87 57.87,20.92 58.25,22.96 58.5,25.04 58.49,27.13 58.47,29.2 58.27,31.32 57.5,33.26 L 57.45,33.24 C 57.76,32.26 57.9,31.23 57.98,30.21 58.07,29.19 58.09,28.16 58.04,27.13 57.96,25.09 57.68,23.05 57.24,21.04 56.82,19.04 56.26,17.06 55.61,15.11 55.29,14.13 54.94,13.16 54.57,12.2 54.19,11.24 53.81,10.29 53.35,9.38 52.43,7.56 51.23,5.87 49.74,4.47 48.25,3.06 46.47,1.97 44.55,1.27 42.62,0.56 40.56,0.23 38.5,0.19 36.43,0.16 34.36,0.4 32.36,0.95 L 32.34,0.89 Z M 32.34,0.89" />
            <path id="sue02Canvas-bezier3" stroke="none" fill="rgb(51, 91, 113)" d="M 59.1,21.72 C 60.09,23.75 60.73,25.93 61.22,28.13 61.7,30.34 61.98,32.58 62.1,34.84 62.22,37.1 62.17,39.36 61.98,41.61 61.88,42.74 61.75,43.86 61.59,44.98 61.42,46.09 61.25,47.2 61.11,48.31 60.57,52.77 60.42,57.26 60.47,61.75 60.49,63.99 60.61,66.23 60.8,68.47 60.89,69.58 61.01,70.7 61.18,71.81 61.26,72.36 61.35,72.92 61.46,73.47 61.52,73.74 61.58,74.01 61.66,74.28 61.75,74.54 61.82,74.84 62.01,75.01 L 61.97,75.07 C 61.73,74.86 61.66,74.58 61.55,74.32 61.45,74.05 61.37,73.78 61.29,73.51 61.14,72.96 61.01,72.41 60.89,71.86 60.67,70.75 60.5,69.63 60.35,68.51 60.07,66.27 59.92,64.02 59.83,61.76 59.69,57.24 59.99,52.72 60.6,48.25 60.75,47.13 60.94,46.01 61.13,44.91 61.31,43.8 61.45,42.69 61.56,41.57 61.78,39.34 61.87,37.1 61.78,34.85 61.7,32.61 61.46,30.38 61.03,28.17 60.59,25.98 59.99,23.79 59.04,21.75 L 59.1,21.72 Z M 59.1,21.72" />
            <path id="sue02Canvas-bezier4" stroke="none" fill="rgb(51, 91, 113)" d="M 62.49,49.13 C 63.23,53.12 64.12,57.09 65.21,61 65.75,62.96 66.35,64.9 67.06,66.79 67.42,67.74 67.81,68.67 68.27,69.56 68.5,70.01 68.74,70.45 69.01,70.87 69.28,71.27 69.61,71.69 69.86,72.15 70.88,73.97 71.44,75.97 71.91,77.96 72.36,79.96 72.64,81.99 72.84,84.02 73.01,86.05 73.11,88.09 73.08,90.14 73.07,91.16 73.03,92.18 72.94,93.19 72.82,94.2 72.73,95.24 72.34,96.2 L 72.28,96.17 C 72.59,95.21 72.61,94.18 72.64,93.17 72.68,92.16 72.67,91.15 72.64,90.14 72.57,88.12 72.44,86.09 72.2,84.08 71.98,82.07 71.69,80.07 71.28,78.1 70.87,76.13 70.35,74.15 69.41,72.4 69.18,71.96 68.89,71.58 68.6,71.13 68.32,70.69 68.08,70.23 67.85,69.77 67.4,68.85 67.02,67.9 66.67,66.94 65.98,65.01 65.41,63.05 64.9,61.08 63.89,57.14 63.09,53.15 62.42,49.14 L 62.49,49.13 Z M 62.49,49.13" />
            <path id="sue02Canvas-bezier5" stroke="none" fill="rgb(51, 91, 113)" d="M 28.93,1.9 C 28.05,2.89 27.25,3.93 26.49,5 25.72,6.07 25.01,7.17 24.38,8.31 23.75,9.45 23.24,10.65 22.75,11.84 22.27,13.04 21.89,14.28 21.67,15.58 L 21.6,15.58 C 21.47,14.25 21.73,12.89 22.15,11.63 22.57,10.35 23.24,9.18 23.94,8.05 25.34,5.79 27.01,3.72 28.88,1.86 L 28.93,1.9 Z M 28.93,1.9" />
            <path id="sue02Canvas-bezier6" stroke="none" fill="rgb(51, 91, 113)" d="M 26.96,13.48 C 26.68,13.47 26.42,13.65 26.19,13.81 25.95,13.97 25.73,14.16 25.52,14.36 25.09,14.76 24.71,15.2 24.36,15.66 23.65,16.57 23.07,17.58 22.68,18.66 22.3,19.73 22.16,20.87 22.26,21.97 22.35,23.08 22.77,24.14 23.4,25.14 L 23.35,25.18 C 22.45,24.41 21.81,23.27 21.62,22.05 21.42,20.81 21.73,19.57 22.2,18.47 22.67,17.36 23.33,16.35 24.11,15.45 24.51,15.01 24.93,14.59 25.39,14.22 25.62,14.03 25.86,13.85 26.12,13.7 26.37,13.56 26.65,13.39 26.97,13.41 L 26.96,13.48 Z M 26.96,13.48" />
            <path id="sue02Canvas-bezier7" stroke="none" fill="rgb(51, 91, 113)" d="M 35.64,45.03 C 36.19,45.18 36.77,45.24 37.33,45.23 37.9,45.23 38.46,45.15 38.99,45 39.53,44.85 40.01,44.57 40.5,44.35 41,44.11 41.48,43.83 42.01,43.55 L 42.06,43.6 C 41.77,44.13 41.33,44.56 40.82,44.9 40.31,45.24 39.7,45.39 39.11,45.5 37.91,45.7 36.69,45.56 35.61,45.09 L 35.64,45.03 Z M 35.64,45.03" />
            <path id="sue02Canvas-bezier8" stroke="none" fill="rgb(51, 91, 113)" d="M 40.31,33.48 C 41.01,33.57 41.68,33.86 42.29,34.23 42.9,34.61 43.45,35.08 43.91,35.63 44.33,36.18 44.93,36.53 45.5,36.94 45.78,37.15 46.08,37.35 46.35,37.59 46.6,37.83 46.93,38.12 46.89,38.51 L 46.86,38.51 C 46.8,38.17 46.48,37.97 46.21,37.77 45.92,37.58 45.62,37.39 45.32,37.21 44.73,36.83 44.13,36.39 43.71,35.79 43.29,35.24 42.78,34.76 42.2,34.37 41.63,33.97 40.99,33.65 40.3,33.51 L 40.31,33.48 Z M 40.31,33.48" />
            <path id="sue02Canvas-bezier9" stroke="none" fill="rgb(51, 91, 113)" d="M 31.81,36.78 C 31.64,37.49 31.23,38.13 30.89,38.75 30.72,39.06 30.59,39.39 30.54,39.7 30.48,40.02 30.57,40.34 30.71,40.68 L 30.68,40.7 C 30.39,40.47 30.2,40.08 30.22,39.67 30.25,39.25 30.47,38.92 30.67,38.62 31.07,38.01 31.52,37.45 31.78,36.77 L 31.81,36.78 Z M 31.81,36.78" />
            <path id="sue02Canvas-bezier10" stroke="none" fill="rgb(51, 91, 113)" d="M 26.96,25.57 C 28.34,25.53 29.72,25.59 31.1,25.83 31.78,25.96 32.47,26.13 33.11,26.49 33.42,26.67 33.73,26.9 33.94,27.25 34.16,27.62 34.17,28 34.22,28.34 34.33,29.75 34.26,31.13 34.11,32.5 L 33.87,34.53 C 33.83,34.87 33.8,35.21 33.78,35.54 33.77,35.87 33.74,36.24 33.9,36.5 L 33.86,36.55 C 33.71,36.43 33.65,36.24 33.6,36.08 33.55,35.9 33.52,35.73 33.49,35.56 33.45,35.21 33.43,34.86 33.42,34.51 33.41,33.82 33.45,33.13 33.47,32.44 33.53,31.08 33.75,29.71 33.71,28.38 33.68,28.05 33.67,27.72 33.54,27.48 33.4,27.23 33.16,27.02 32.89,26.85 32.34,26.51 31.69,26.3 31.03,26.14 29.71,25.82 28.33,25.68 26.96,25.64 L 26.96,25.57 Z M 26.96,25.57" />
            <path id="sue02Canvas-bezier11" stroke="none" fill="rgb(51, 91, 113)" d="M 40.82,35.26 C 40.03,36.07 38.92,36.49 38.15,37.18 37.95,37.36 37.88,37.54 37.65,37.81 37.41,38.07 37.12,38.24 36.8,38.31 36.17,38.45 35.53,38.3 35.07,37.95 L 35.09,37.88 C 35.66,37.9 36.18,37.87 36.62,37.7 36.83,37.62 37.04,37.51 37.19,37.37 37.35,37.25 37.57,36.95 37.82,36.79 38.31,36.44 38.82,36.22 39.33,35.98 39.83,35.75 40.34,35.55 40.78,35.21 L 40.82,35.26 Z M 40.82,35.26" />
            <path id="sue02Canvas-bezier12" stroke="none" fill="rgb(51, 91, 113)" d="M 38.29,25.58 C 39.2,24.83 40.19,24.18 41.27,23.66 41.81,23.4 42.36,23.12 42.97,23.03 43.57,22.94 44.22,22.95 44.79,23.19 L 44.78,23.26 C 44.18,23.37 43.65,23.49 43.11,23.66 42.57,23.82 42.01,23.93 41.47,24.13 40.93,24.32 40.4,24.55 39.88,24.81 39.35,25.06 38.83,25.33 38.33,25.63 L 38.29,25.58 Z M 38.29,25.58" />
            <path id="sue02Canvas-bezier13" stroke="none" fill="rgb(51, 91, 113)" d="M 29.68,11.73 C 30.97,10.98 32.47,10.62 33.96,10.63 35.46,10.64 36.94,11.07 38.24,11.8 40.86,13.29 42.75,15.74 44.22,18.29 45.7,20.9 46.42,23.84 46.94,26.75 47.44,29.67 47.69,32.63 47.8,35.59 47.92,38.55 47.9,41.51 47.79,44.46 47.66,47.42 47.44,50.37 47.13,53.32 46.79,56.26 46.39,59.19 45.84,62.1 45.28,65 44.69,67.92 43.62,70.68 L 43.56,70.66 C 44.04,69.27 44.35,67.82 44.64,66.38 44.93,64.93 45.18,63.48 45.4,62.02 45.85,59.11 46.22,56.18 46.49,53.25 46.8,50.32 47.03,47.38 47.16,44.44 47.31,41.49 47.37,38.55 47.29,35.6 47.2,32.66 46.99,29.72 46.53,26.81 46.05,23.93 45.36,21.02 43.94,18.45 42.52,15.9 40.69,13.46 38.14,11.97 36.87,11.23 35.43,10.79 33.96,10.76 32.49,10.73 31,11.07 29.72,11.79 L 29.68,11.73 Z M 29.68,11.73" />
            <path id="sue02Canvas-bezier14" stroke="none" fill="rgb(51, 91, 113)" d="M 52.53,43.09 C 53.06,44.1 53.22,45.23 53.39,46.34 53.53,47.45 53.61,48.57 53.66,49.7 53.76,51.94 53.75,54.19 53.68,56.43 53.52,60.92 53.16,65.39 52.59,69.85 52.3,72.08 51.98,74.31 51.42,76.51 51.29,77.06 51.05,77.62 50.94,78.11 50.82,78.63 50.77,79.17 50.76,79.71 50.74,80.79 50.89,81.89 51.12,82.97 51.57,85.13 52.35,87.23 53.29,89.25 53.76,90.26 54.27,91.25 54.87,92.19 55.16,92.67 55.47,93.13 55.82,93.56 55.99,93.78 56.17,93.99 56.38,94.17 56.58,94.35 56.81,94.54 57.08,94.56 L 57.08,94.63 C 56.77,94.62 56.52,94.44 56.3,94.27 56.07,94.09 55.87,93.89 55.68,93.68 55.29,93.26 54.95,92.81 54.62,92.35 53.98,91.43 53.41,90.45 52.88,89.45 51.85,87.44 51.02,85.32 50.49,83.1 50.25,81.99 50.08,80.85 50.09,79.69 50.1,79.12 50.17,78.53 50.31,77.96 50.46,77.35 50.67,76.89 50.81,76.34 51.39,74.21 51.75,71.99 52.08,69.78 52.71,65.35 53.13,60.89 53.36,56.42 53.47,54.18 53.53,51.94 53.47,49.7 53.44,48.58 53.38,47.47 53.26,46.35 53.12,45.25 52.97,44.12 52.47,43.12 L 52.53,43.09 Z M 52.53,43.09" />
            <path id="sue02Canvas-bezier15" stroke="none" fill="rgb(51, 91, 113)" d="M 21.67,26.8 C 21.78,31.33 22.1,35.86 22.65,40.35 22.93,42.6 23.27,44.84 23.73,47.05 24.19,49.26 24.75,51.46 25.59,53.54 26.01,54.58 26.51,55.59 27.15,56.48 27.85,57.41 28.38,58.45 28.84,59.51 29.73,61.63 30.29,63.86 30.71,66.1 31.49,70.6 31.78,75.17 31.47,79.7 L 31.4,79.7 C 31.35,75.17 30.97,70.64 30.08,66.22 29.64,64.02 29.08,61.82 28.25,59.75 27.83,58.71 27.33,57.72 26.68,56.81 26.01,55.85 25.52,54.8 25.11,53.73 24.28,51.59 23.75,49.37 23.32,47.13 22.89,44.9 22.58,42.64 22.33,40.39 21.87,35.87 21.63,31.33 21.6,26.8 L 21.67,26.8 Z M 21.67,26.8" />
            <path id="sue02Canvas-bezier16" stroke="none" fill="rgb(51, 91, 113)" d="M 35.1,51.72 C 37.11,53.93 38.86,56.39 40.2,59.08 40.86,60.43 41.45,61.84 41.69,63.35 41.92,64.85 41.89,66.44 41.28,67.84 L 41.22,67.82 C 41.46,66.35 41.39,64.89 41.06,63.47 40.75,62.05 40.32,60.65 39.73,59.3 39.14,57.95 38.42,56.65 37.63,55.4 36.85,54.14 35.99,52.92 35.05,51.77 L 35.1,51.72 Z M 35.1,51.72" />
            <path id="sue02Canvas-bezier17" stroke="none" fill="rgb(51, 91, 113)" d="M 26.43,29.27 C 26.87,28.83 27.4,28.47 27.98,28.21 28.27,28.08 28.57,27.95 28.89,27.92 29.21,27.89 29.54,27.89 29.85,28 L 29.85,28.03 C 29.54,28.11 29.24,28.15 28.95,28.23 28.66,28.31 28.37,28.36 28.08,28.45 27.5,28.65 26.95,28.93 26.45,29.29 L 26.43,29.27 Z M 26.43,29.27" />
            <path id="sue02Canvas-bezier18" stroke="none" fill="rgb(51, 91, 113)" d="M 26.28,28.8 C 27.1,27.91 28.34,27.4 29.58,27.48 30.19,27.51 30.83,27.63 31.37,27.94 31.9,28.26 32.39,28.7 32.63,29.27 L 32.6,29.29 C 32.21,28.83 31.74,28.47 31.22,28.23 30.7,27.98 30.15,27.8 29.56,27.73 28.4,27.61 27.18,28.01 26.3,28.82 L 26.28,28.8 Z M 26.28,28.8" />
            <path id="sue02Canvas-bezier19" stroke="none" fill="rgb(51, 91, 113)" d="M 26.74,29.49 C 27.67,29.64 28.61,29.72 29.54,29.74 30.01,29.75 30.48,29.72 30.94,29.71 L 32.35,29.71 32.36,29.74 C 31.91,29.91 31.43,29.99 30.96,30.04 30.48,30.08 30,30.04 29.53,30 28.58,29.92 27.65,29.76 26.73,29.52 L 26.74,29.49 Z M 26.74,29.49" />
            <path id="sue02Canvas-bezier20" stroke="none" fill="rgb(51, 91, 113)" d="M 39.92,26.64 C 40.64,25.93 41.63,25.51 42.64,25.34 43.14,25.26 43.66,25.22 44.17,25.3 44.68,25.38 45.18,25.51 45.63,25.74 L 45.62,25.77 C 45.12,25.71 44.63,25.64 44.14,25.61 43.65,25.58 43.16,25.55 42.67,25.6 42.18,25.65 41.69,25.75 41.23,25.93 40.77,26.11 40.32,26.34 39.94,26.66 L 39.92,26.64 Z M 39.92,26.64" />
            <path id="sue02Canvas-bezier21" stroke="none" fill="rgb(51, 91, 113)" d="M 39.91,27.81 C 40.35,26.91 41.16,26.19 42.13,25.88 42.62,25.72 43.14,25.64 43.65,25.71 44.15,25.77 44.65,25.91 45.09,26.16 L 45.08,26.19 C 44.58,26.12 44.1,26.03 43.62,26.03 43.15,26.01 42.67,26.01 42.21,26.12 41.28,26.36 40.45,26.98 39.94,27.82 L 39.91,27.81 Z M 39.91,27.81" />
            <path id="sue02Canvas-bezier22" stroke="none" fill="rgb(51, 91, 113)" d="M 40.53,27.8 C 41.34,27.85 42.15,27.82 42.94,27.7 43.34,27.63 43.72,27.51 44.08,27.39 44.45,27.27 44.78,27.08 45.07,26.79 L 45.1,26.81 C 44.96,27.22 44.58,27.5 44.2,27.69 43.81,27.87 43.39,27.92 42.98,27.95 42.15,28.03 41.33,27.97 40.53,27.83 L 40.53,27.8 Z M 40.53,27.8" />
            <path id="sue02Canvas-bezier23" stroke="none" fill="rgb(51, 91, 113)" d="M 31.39,28.81 C 31.39,29.38 30.92,29.97 30.27,29.98 29.65,30.02 29.04,29.46 29.05,28.81 29,28.16 29.59,27.51 30.27,27.55 30.6,27.56 30.92,27.73 31.11,27.97 31.31,28.21 31.39,28.52 31.39,28.81 Z M 31.36,28.81 C 31.35,28.52 31.2,28.26 30.99,28.09 30.78,27.93 30.52,27.87 30.27,27.87 29.78,27.88 29.31,28.29 29.3,28.81 29.27,29.32 29.72,29.82 30.28,29.82 30.54,29.84 30.82,29.74 31.03,29.56 31.24,29.37 31.36,29.09 31.36,28.81 Z M 31.36,28.81" />
            <path id="sue02Canvas-bezier24" stroke="none" fill="rgb(51, 91, 113)" d="M 43.88,26.65 C 43.88,27.2 43.43,27.77 42.8,27.78 42.2,27.81 41.62,27.29 41.62,26.64 41.58,26.03 42.13,25.39 42.81,25.43 43.12,25.44 43.43,25.61 43.61,25.84 43.8,26.08 43.88,26.37 43.88,26.65 Z M 43.85,26.65 C 43.84,26.37 43.7,26.12 43.49,25.96 43.28,25.81 43.05,25.75 42.8,25.75 42.34,25.77 41.88,26.14 41.87,26.65 41.85,27.14 42.28,27.62 42.81,27.62 43.06,27.64 43.33,27.55 43.53,27.37 43.73,27.19 43.85,26.92 43.85,26.65 Z M 43.85,26.65" />
            <path id="sue02Canvas-bezier25" stroke="none" fill="rgb(51, 91, 113)" d="M 64.37,78.1 C 66.05,80.51 67.52,83.06 68.73,85.74 69.92,88.42 70.9,91.25 71.05,94.22 71.09,94.96 71.06,95.7 70.95,96.44 70.83,97.18 70.67,97.89 70.51,98.61 70.19,100.04 69.84,101.47 69.48,102.89 L 67.28,111.4 C 66.57,114.24 65.86,117.08 65.29,119.94 65,121.37 64.73,122.81 64.6,124.24 64.55,124.96 64.51,125.69 64.67,126.32 64.85,127.05 65,127.77 65.14,128.49 66.15,134.28 66.94,140.08 67.6,145.91 L 67.54,145.92 C 66.51,140.15 65.63,134.35 64.51,128.61 64.37,127.9 64.22,127.18 64.05,126.48 63.85,125.69 63.91,124.93 63.96,124.19 64.09,122.71 64.37,121.26 64.66,119.82 65.28,116.94 66.03,114.1 66.79,111.27 L 69.08,102.78 C 69.45,101.37 69.82,99.95 70.15,98.53 70.32,97.82 70.48,97.1 70.61,96.39 70.72,95.68 70.76,94.95 70.73,94.23 70.62,91.33 69.7,88.5 68.55,85.82 67.38,83.14 65.96,80.56 64.32,78.14 L 64.37,78.1 Z M 64.37,78.1" />
            <path id="sue02Canvas-bezier26" stroke="none" fill="rgb(51, 91, 113)" d="M 66.43,145.95 C 65.41,145.73 64.38,145.6 63.36,145.51 62.33,145.42 61.3,145.38 60.27,145.42 59.25,145.47 58.24,145.63 57.25,145.8 56.25,145.98 55.28,146.24 54.31,146.64 L 54.27,146.58 C 55.07,145.88 56.08,145.45 57.11,145.18 58.14,144.91 59.22,144.89 60.27,144.91 62.37,144.95 64.45,145.3 66.44,145.88 L 66.43,145.95 Z M 66.43,145.95" />
            <path id="sue02Canvas-bezier27" stroke="none" fill="rgb(51, 91, 113)" d="M 23.24,54.49 C 19.77,55.68 16.38,57.13 13.18,58.9 11.58,59.79 10.03,60.77 8.61,61.9 7.2,63.04 5.87,64.33 5.01,65.9 4.19,67.48 3.73,69.26 3.4,71.04 3.07,72.82 2.88,74.64 2.75,76.45 2.61,78.27 2.56,80.1 2.53,81.92 L 2.49,84.67 2.45,86.05 C 2.43,86.51 2.44,86.97 2.32,87.43 L 2.26,87.41 C 2.33,86.97 2.29,86.5 2.28,86.05 L 2.2,84.68 2.08,81.93 C 2.02,80.09 2.03,78.25 2.11,76.41 2.21,74.57 2.4,72.73 2.77,70.92 3.15,69.11 3.66,67.31 4.56,65.65 5.5,64 6.89,62.71 8.35,61.57 9.81,60.45 11.4,59.49 13.02,58.62 16.29,56.91 19.71,55.54 23.22,54.43 L 23.24,54.49 Z M 23.24,54.49" />
            <path id="sue02Canvas-bezier28" stroke="none" fill="rgb(51, 91, 113)" d="M 5.64,85.45 C 4.55,87.29 3.47,89.13 2.34,90.95 L 1.9,91.63 C 1.77,91.86 1.56,92.09 1.5,92.27 1.33,92.68 1.61,93.16 1.83,93.64 2.06,94.13 2.27,94.65 2.39,95.19 2.53,95.74 2.53,96.29 2.6,96.8 2.88,98.91 3.3,101.02 3.4,103.18 3.44,104.25 3.45,105.34 3.32,106.42 3.19,107.48 2.96,108.6 2.32,109.49 L 2.26,109.45 C 2.73,108.5 2.84,107.43 2.88,106.38 2.91,105.33 2.86,104.27 2.76,103.22 2.58,101.11 2.31,99 2.09,96.86 2.03,96.31 2.05,95.79 1.94,95.29 1.84,94.78 1.66,94.3 1.45,93.82 1.35,93.57 1.23,93.33 1.14,93.05 1.06,92.78 1.02,92.43 1.15,92.14 1.3,91.82 1.47,91.67 1.62,91.44 L 2.07,90.78 C 3.27,89.01 4.43,87.21 5.58,85.41 L 5.64,85.45 Z M 5.64,85.45" />
            <path id="sue02Canvas-bezier29" stroke="none" fill="rgb(51, 91, 113)" d="M 6.67,106.51 C 6.55,106.53 6.44,106.68 6.35,106.79 6.25,106.9 6.16,107.03 6.07,107.15 5.89,107.41 5.73,107.67 5.57,107.93 5.24,108.45 4.94,108.99 4.64,109.53 4.05,110.61 3.5,111.72 3.05,112.86 2.83,113.43 2.63,114 2.5,114.58 2.44,114.87 2.4,115.16 2.41,115.41 2.41,115.53 2.43,115.64 2.47,115.71 2.47,115.74 2.61,115.85 2.73,115.97 3.17,116.44 3.57,116.96 3.83,117.57 3.95,117.88 4.05,118.21 4.03,118.56 4.01,118.91 3.76,119.25 3.45,119.34 L 3.42,119.28 C 3.67,119.1 3.78,118.83 3.74,118.56 3.71,118.28 3.58,118.02 3.43,117.77 3.12,117.28 2.72,116.83 2.28,116.43 2.19,116.33 2.05,116.27 1.9,116.03 1.78,115.82 1.75,115.62 1.74,115.44 1.73,115.07 1.81,114.75 1.88,114.43 2.06,113.81 2.31,113.22 2.57,112.65 3.1,111.52 3.71,110.43 4.36,109.37 4.7,108.84 5.04,108.33 5.4,107.82 5.59,107.57 5.77,107.32 5.97,107.08 6.07,106.96 6.17,106.84 6.28,106.72 6.39,106.62 6.48,106.47 6.67,106.44 L 6.67,106.51 Z M 6.67,106.51" />
            <path id="sue02Canvas-bezier30" stroke="none" fill="rgb(51, 91, 113)" d="M 5.58,126.37 C 5,124.72 4.87,122.92 5.14,121.17 5.43,119.43 6.2,117.76 7.28,116.36 8.34,114.94 9.63,113.68 11.08,112.68 11.81,112.18 12.55,111.72 13.27,111.25 13.97,110.76 14.7,110.27 15.03,109.46 L 15.1,109.48 C 15.02,109.92 14.78,110.32 14.5,110.68 14.21,111.02 13.88,111.32 13.54,111.6 12.85,112.17 12.13,112.65 11.46,113.19 10.09,114.23 8.77,115.34 7.69,116.67 6.59,117.99 5.8,119.55 5.46,121.23 5.11,122.91 5.15,124.69 5.64,126.35 L 5.58,126.37 Z M 5.58,126.37" />
            <path id="sue02Canvas-bezier31" stroke="none" fill="rgb(51, 91, 113)" d="M 15.93,116.83 C 16.15,115.33 16.34,113.84 16.48,112.34 16.62,110.85 16.77,109.33 16.67,107.87 16.65,107.69 16.63,107.51 16.6,107.34 16.58,107.26 16.56,107.17 16.53,107.1 L 16.43,106.84 C 16.31,106.34 16.4,105.93 16.52,105.54 16.78,104.76 17.23,104.1 17.73,103.5 18.24,102.92 18.81,102.38 19.46,101.95 20.1,101.54 20.84,101.12 21.64,101.21 L 21.63,101.28 C 21.26,101.32 20.93,101.46 20.61,101.66 20.3,101.84 20,102.06 19.73,102.3 19.17,102.79 18.66,103.32 18.22,103.91 17.78,104.48 17.37,105.1 17.13,105.74 17,106.05 16.94,106.42 16.98,106.66 L 17.07,106.93 C 17.1,107.04 17.11,107.14 17.13,107.24 17.16,107.44 17.18,107.64 17.18,107.84 17.22,109.39 17,110.88 16.8,112.38 16.57,113.87 16.3,115.36 15.99,116.84 L 15.93,116.83 Z M 15.93,116.83" />
            <path id="sue02Canvas-bezier32" stroke="none" fill="rgb(51, 91, 113)" d="M 21.67,102.63 C 22,104.69 22.42,106.73 22.94,108.74 23.2,109.74 23.49,110.74 23.84,111.71 24.19,112.68 24.59,113.64 25.14,114.48 25.42,114.89 25.75,115.28 26.14,115.49 26.51,115.71 26.98,115.69 27.38,115.52 27.79,115.35 28.14,115.01 28.43,114.63 28.72,114.25 28.97,113.81 29.17,113.35 29.61,112.44 29.91,111.45 30.17,110.45 30.3,109.96 30.4,109.45 30.49,108.94 30.58,108.43 30.67,107.92 30.66,107.41 L 30.73,107.4 C 30.89,108.45 30.76,109.5 30.61,110.54 30.44,111.58 30.17,112.61 29.76,113.61 29.55,114.1 29.29,114.58 28.96,115.03 28.62,115.47 28.19,115.88 27.62,116.11 27.06,116.32 26.38,116.32 25.85,115.99 25.33,115.67 25,115.21 24.71,114.75 24.14,113.83 23.77,112.84 23.44,111.84 23.12,110.84 22.86,109.83 22.63,108.81 22.18,106.77 21.85,104.71 21.6,102.64 L 21.67,102.63 Z M 21.67,102.63" />
            <path id="sue02Canvas-bezier33" stroke="none" fill="rgb(51, 91, 113)" d="M 27.38,114.14 C 28.63,110.95 29.93,107.78 31.3,104.63 31.98,103.06 32.64,101.47 33.45,99.95 33.86,99.2 34.26,98.44 34.72,97.71 34.95,97.34 35.19,96.98 35.44,96.63 35.72,96.3 35.95,95.91 36.37,95.7 L 36.4,95.76 C 36.09,96.02 35.89,96.42 35.69,96.78 35.49,97.16 35.3,97.54 35.11,97.92 34.74,98.69 34.37,99.46 34.02,100.24 33.3,101.79 32.51,103.3 31.77,104.85 30.3,107.94 28.86,111.05 27.44,114.16 L 27.38,114.14 Z M 27.38,114.14" />
            <g id="sue02Canvas-group3">
                <path id="sue02Canvas-bezier34" stroke="none" fill="rgb(51, 91, 113)" d="M 28.12,94.31 C 27.6,92.29 27.23,90.2 27.42,88.07 27.48,87.55 27.54,87.03 27.62,86.51 27.71,86 27.75,85.45 28.08,84.93 28.24,84.68 28.46,84.49 28.66,84.32 28.87,84.15 29.04,83.98 29.23,83.79 29.61,83.43 29.99,83.04 30.42,82.7 30.64,82.53 30.87,82.37 31.14,82.24 31.4,82.11 31.72,82 32.08,82.05 32.76,82.2 33.18,82.64 33.54,83.06 33.89,83.5 34.17,83.97 34.42,84.44 L 34.78,85.15 C 34.91,85.39 35.01,85.7 35.06,85.98 35.15,86.57 34.96,87.17 34.83,87.63 34.79,87.84 34.78,88.11 34.75,88.38 34.73,88.52 34.7,88.67 34.64,88.83 34.57,88.98 34.43,89.16 34.24,89.23 34.04,89.3 33.91,89.29 33.76,89.29 33.61,89.29 33.46,89.27 33.32,89.23 33.02,89.16 32.75,88.99 32.56,88.77 32.2,88.31 32.1,87.75 32.08,87.23 L 32.15,87.22 C 32.26,87.73 32.43,88.24 32.78,88.57 32.96,88.73 33.17,88.84 33.4,88.87 33.51,88.89 33.63,88.89 33.75,88.88 33.87,88.87 34.01,88.85 34.05,88.82 34.16,88.77 34.21,88.58 34.23,88.33 34.25,88.08 34.24,87.83 34.28,87.52 34.4,86.97 34.5,86.53 34.41,86.08 34.37,85.85 34.3,85.66 34.18,85.43 L 33.81,84.75 C 33.57,84.29 33.33,83.84 33.03,83.45 32.74,83.07 32.35,82.71 31.99,82.62 31.62,82.55 31.14,82.81 30.75,83.1 30.34,83.41 29.96,83.77 29.57,84.13 29.19,84.5 28.69,84.81 28.43,85.16 28.18,85.54 28.09,86.07 27.99,86.57 27.9,87.08 27.82,87.6 27.74,88.11 27.48,90.15 27.75,92.26 28.18,94.29 L 28.12,94.31 Z M 28.12,94.31" />
                <path id="sue02Canvas-bezier35" stroke="none" fill="rgb(51, 91, 113)" d="M 32.41,86.98 C 31.95,86.88 31.53,86.63 31.19,86.27 31.02,86.1 30.82,85.91 30.77,85.66 30.72,85.42 30.73,85.16 30.88,84.91 L 30.94,84.9 C 31.15,85.1 31.27,85.26 31.38,85.43 31.5,85.59 31.51,85.79 31.61,85.97 31.8,86.32 32.08,86.66 32.44,86.92 L 32.41,86.98 Z M 32.41,86.98" />
                <path id="sue02Canvas-bezier36" stroke="none" fill="rgb(51, 91, 113)" d="M 30.65,86.46 C 30.44,86.56 30.21,86.61 29.96,86.61 29.84,86.61 29.68,86.64 29.58,86.53 29.48,86.43 29.4,86.27 29.48,86.08 L 29.53,86.04 C 29.74,86.01 29.82,85.97 29.9,85.97 29.98,85.96 30.02,86.06 30.1,86.11 30.25,86.21 30.44,86.31 30.64,86.39 L 30.65,86.46 Z M 30.65,86.46" />
                <path id="sue02Canvas-bezier37" stroke="none" fill="rgb(51, 91, 113)" d="M 31.53,81.58 C 31.87,81.13 32.25,80.71 32.68,80.35 32.9,80.16 33.14,79.99 33.41,79.87 33.68,79.74 34,79.65 34.34,79.74 34.67,79.84 34.89,80.09 35.08,80.32 35.26,80.55 35.41,80.8 35.54,81.05 35.81,81.55 36.03,82.08 36.22,82.61 36.42,83.13 36.59,83.67 36.72,84.22 36.84,84.79 36.97,85.33 36.86,85.99 36.74,86.48 36.75,87.04 36.64,87.61 36.58,87.89 36.52,88.18 36.35,88.45 36.19,88.73 35.87,88.91 35.57,88.89 L 35.56,88.83 C 36.13,88.66 36.18,88.08 36.18,87.56 36.19,87.03 36.13,86.47 36.22,85.87 36.25,85.67 36.23,85.4 36.2,85.14 36.17,84.88 36.13,84.61 36.09,84.35 35.99,83.82 35.87,83.28 35.72,82.76 35.57,82.24 35.39,81.72 35.16,81.23 34.93,80.76 34.67,80.23 34.24,80.05 33.79,79.9 33.24,80.19 32.81,80.5 32.36,80.82 31.95,81.2 31.58,81.62 L 31.53,81.58 Z M 31.53,81.58" />
                <path id="sue02Canvas-bezier38" stroke="none" fill="rgb(51, 91, 113)" d="M 34.87,79.07 C 35.14,78.78 35.45,78.53 35.82,78.33 36.18,78.15 36.63,78.03 37.1,78.13 37.56,78.22 38,78.5 38.2,78.89 38.41,79.27 38.5,79.68 38.44,80.1 L 38.38,80.12 C 38.09,79.81 37.89,79.5 37.66,79.25 37.43,79 37.26,78.74 36.95,78.62 36.66,78.5 36.29,78.52 35.94,78.63 35.58,78.73 35.23,78.9 34.92,79.12 L 34.87,79.07 Z M 34.87,79.07" />
                <path id="sue02Canvas-bezier39" stroke="none" fill="rgb(51, 91, 113)" d="M 38.82,85.34 C 39.06,86.01 39.25,86.72 39.12,87.51 39.09,87.7 39.03,87.91 38.91,88.11 38.79,88.3 38.58,88.48 38.34,88.54 37.85,88.65 37.44,88.47 37.16,88.2 L 37.18,88.14 C 37.57,88.08 37.91,88.06 38.11,87.93 38.3,87.83 38.5,87.69 38.62,87.38 38.73,87.08 38.77,86.74 38.78,86.4 38.8,86.06 38.8,85.7 38.76,85.35 L 38.82,85.34 Z M 38.82,85.34" />
                <path id="sue02Canvas-bezier40" stroke="none" fill="rgb(51, 91, 113)" d="M 41.06,82.86 C 40.66,82.05 40.58,81.13 40.13,80.42 40.02,80.24 39.89,80.09 39.74,80.04 39.59,79.99 39.43,80.03 39.26,80.13 38.95,80.32 38.71,80.67 38.56,81.04 38.27,81.8 38.36,82.64 38.6,83.4 38.84,84.18 39.32,84.89 39.9,85.57 L 39.86,85.62 C 39.05,85.21 38.36,84.5 37.98,83.62 37.6,82.74 37.66,81.7 38.08,80.84 38.29,80.41 38.59,80 39.06,79.76 39.29,79.64 39.61,79.58 39.88,79.7 40.15,79.83 40.3,80.05 40.41,80.26 40.83,81.11 40.8,82.02 41.11,82.83 L 41.06,82.86 Z M 41.06,82.86" />
                <path id="sue02Canvas-bezier41" stroke="none" fill="rgb(51, 91, 113)" d="M 41.43,82.97 C 41.97,83.27 42.22,83.9 42.21,84.48 42.2,85.08 41.99,85.62 41.91,86.18 41.8,86.73 41.7,87.29 41.64,87.84 41.62,88.12 41.6,88.4 41.62,88.66 41.62,88.72 41.63,88.78 41.64,88.83 41.65,88.87 41.69,88.99 41.67,89.13 41.63,89.35 41.54,89.48 41.45,89.62 41.1,90.12 40.69,90.52 40.42,90.97 40.29,91.19 40.19,91.42 40.16,91.62 40.15,91.7 40.15,91.9 40.12,92.05 40.1,92.2 40.07,92.35 40.03,92.5 39.87,93.08 39.63,93.62 39.32,94.12 39.01,94.6 38.66,95.14 38.07,95.37 L 38.04,95.31 C 38.27,95.14 38.42,94.91 38.55,94.67 38.69,94.43 38.81,94.18 38.91,93.92 39.12,93.41 39.29,92.88 39.39,92.35 39.42,92.22 39.45,92.09 39.46,91.96 39.48,91.83 39.47,91.75 39.49,91.54 39.54,91.18 39.7,90.88 39.88,90.63 40.24,90.12 40.69,89.73 41.02,89.32 41.1,89.22 41.17,89.11 41.18,89.05 41.2,89.07 41.14,88.81 41.14,88.68 41.14,88.37 41.18,88.08 41.22,87.79 41.31,87.22 41.44,86.66 41.59,86.11 41.72,85.55 41.96,85.02 42.01,84.48 42.06,83.94 41.88,83.35 41.4,83.03 L 41.43,82.97 Z M 41.43,82.97" />
                <path id="sue02Canvas-bezier42" stroke="none" fill="rgb(51, 91, 113)" d="M 28.11,94.73 C 27.5,96.19 26.83,97.64 26.1,99.05 25.73,99.76 25.4,100.49 24.92,101.14 24.69,101.47 24.44,101.79 24.15,102.08 23.87,102.37 23.56,102.67 23.16,102.83 L 23.12,102.78 C 23.63,102.18 23.96,101.47 24.37,100.8 24.75,100.12 25.23,99.48 25.64,98.8 26.47,97.45 27.27,96.08 28.05,94.7 L 28.11,94.73 Z M 28.11,94.73" />
                <path id="sue02Canvas-bezier43" stroke="none" fill="rgb(51, 91, 113)" d="M 35.49,77.69 C 35.51,75.8 35.53,73.9 35.52,72.01 35.51,71.06 35.52,70.11 35.47,69.18 35.46,69.06 35.45,68.95 35.43,68.83 35.42,68.71 35.42,68.55 35.45,68.42 35.49,68.15 35.6,67.9 35.74,67.68 35.89,67.45 36.09,67.24 36.37,67.11 36.65,66.97 37.04,66.99 37.3,67.16 37.83,67.5 38.03,68 38.22,68.46 38.4,68.92 38.52,69.4 38.61,69.88 38.79,70.84 38.86,71.79 38.91,72.74 38.94,73.69 38.97,74.64 38.95,75.59 38.91,76.54 38.91,77.51 38.62,78.44 L 38.56,78.42 C 38.62,77.96 38.6,77.49 38.58,77.02 38.56,76.54 38.53,76.07 38.49,75.6 38.42,74.66 38.35,73.72 38.26,72.78 38.18,71.84 38.1,70.9 37.97,69.98 37.9,69.53 37.81,69.07 37.67,68.65 37.53,68.23 37.33,67.8 37.03,67.6 36.76,67.4 36.38,67.59 36.14,67.94 36.02,68.1 35.93,68.3 35.89,68.5 35.87,68.6 35.86,68.69 35.87,68.79 35.88,68.91 35.89,69.04 35.89,69.16 35.91,70.12 35.87,71.06 35.85,72.01 35.77,73.91 35.66,75.8 35.55,77.7 L 35.49,77.69 Z M 35.49,77.69" />
            </g>
            <path id="sue02Canvas-bezier44" stroke="none" fill="rgb(51, 91, 113)" d="M 52.76,145.94 C 51.12,145.71 49.47,145.51 47.82,145.36 46.99,145.28 46.15,145.22 45.32,145.19 44.91,145.17 44.49,145.16 44.08,145.18 43.68,145.19 43.24,145.22 42.92,145.35 L 43.04,145.2 C 42.82,146.59 42.58,147.97 42.3,149.35 L 42.05,149.04 C 43.77,149.05 45.48,149.06 47.2,149.12 48.05,149.17 48.91,149.2 49.77,149.28 50.2,149.32 50.63,149.36 51.06,149.42 51.5,149.48 51.9,149.5 52.39,149.66 L 52.06,149.82 C 52.46,148.58 52.69,147.27 52.76,145.94 Z M 52.83,145.91 C 52.9,146.59 52.89,147.26 52.84,147.94 52.79,148.61 52.68,149.29 52.53,149.95 L 52.48,150.18 52.21,150.11 C 51.88,150.02 51.41,149.99 51.01,149.96 L 49.73,149.9 47.17,149.79 42.04,149.55 41.73,149.53 41.79,149.23 C 42.11,147.88 42.39,146.51 42.65,145.13 L 42.67,145.02 42.76,144.98 C 43.23,144.82 43.65,144.83 44.07,144.81 44.5,144.81 44.92,144.83 45.34,144.86 46.18,144.91 47.01,145.01 47.84,145.11 49.5,145.33 51.16,145.59 52.8,145.88 L 52.83,145.89 52.83,145.91 Z M 52.83,145.91" />
            <path id="sue02Canvas-bezier45" stroke="none" fill="rgb(51, 91, 113)" d="M 41.24,148.23 C 38.93,148.03 36.63,147.84 34.32,147.67 33.16,147.59 32.01,147.56 30.86,147.43 L 27.41,147.04 27.41,146.97 C 28.57,146.74 29.74,146.76 30.9,146.79 32.07,146.83 33.22,147.01 34.37,147.16 36.67,147.45 38.97,147.79 41.25,148.17 L 41.24,148.23 Z M 41.24,148.23" />
            <path id="sue02Canvas-bezier46" stroke="none" fill="rgb(51, 91, 113)" d="M 40.05,145.02 C 37.32,144.3 34.57,143.67 31.82,143.09 L 29.75,142.67 C 29.06,142.52 28.38,142.45 27.68,142.45 26.29,142.44 24.9,142.64 23.53,142.92 20.79,143.49 18.11,144.39 15.52,145.44 14.22,145.97 12.94,146.54 11.68,147.15 10.44,147.77 9.18,148.42 8.08,149.22 L 7.61,149.56 7.61,149 C 7.6,147.46 8.06,145.99 8.72,144.66 9.38,143.33 10.25,142.11 11.26,141.03 L 11.31,141.07 C 10.85,141.65 10.45,142.26 10.08,142.89 9.71,143.52 9.36,144.16 9.08,144.83 8.52,146.16 8.13,147.57 8.19,148.98 L 7.72,148.76 C 8.86,147.86 10.12,147.2 11.39,146.56 12.66,145.93 13.97,145.38 15.29,144.88 17.94,143.88 20.66,143.03 23.44,142.5 24.84,142.24 26.26,142.06 27.69,142.09 28.4,142.1 29.13,142.19 29.81,142.36 L 31.88,142.82 C 34.62,143.47 37.35,144.18 40.06,144.96 L 40.05,145.02 Z M 40.05,145.02" />
            <path id="sue02Canvas-bezier47" stroke="none" fill="rgb(51, 91, 113)" d="M 3.46,125.85 C 4.08,127.71 4.55,129.64 4.52,131.63 4.52,132.13 4.4,132.6 4.51,133.07 4.59,133.53 4.77,133.99 4.98,134.42 5.41,135.28 5.99,136.07 6.66,136.77 7.32,137.47 8.07,138.1 8.9,138.56 9.73,139.02 10.7,139.32 11.58,139.09 12.02,138.98 12.39,138.71 12.78,138.41 13.16,138.12 13.52,137.8 13.88,137.47 14.6,136.82 15.29,136.12 15.96,135.42 18.64,132.57 21.04,129.48 23.32,126.32 25.61,123.16 27.67,119.83 29.41,116.32 L 29.47,116.35 C 28.06,120.02 26.05,123.44 23.85,126.69 21.61,129.93 19.08,132.95 16.33,135.77 15.64,136.48 14.93,137.16 14.19,137.82 13.82,138.14 13.45,138.47 13.05,138.76 12.65,139.06 12.21,139.37 11.68,139.49 10.63,139.74 9.58,139.37 8.72,138.88 7.85,138.38 7.09,137.72 6.42,136.99 5.76,136.25 5.18,135.43 4.75,134.53 4.54,134.08 4.37,133.6 4.29,133.11 4.25,132.86 4.23,132.6 4.26,132.35 4.29,132.1 4.32,131.86 4.33,131.62 4.4,129.68 3.98,127.73 3.4,125.88 L 3.46,125.85 Z M 3.46,125.85" />
            <path id="sue02Canvas-bezier48" stroke="none" fill="rgb(51, 91, 113)" d="M 67.57,63.43 C 68.58,63.55 69.49,64.06 70.26,64.7 71.03,65.34 71.66,66.14 72.18,67 73.21,68.73 73.8,70.68 74.19,72.63 74.58,74.59 74.8,76.59 74.78,78.58 74.75,80.57 74.61,82.56 74.27,84.52 L 74.2,84.51 C 74.18,82.53 74.23,80.55 74.14,78.59 74.07,76.63 74,74.66 73.69,72.72 73.37,70.79 72.85,68.87 71.9,67.16 71.44,66.3 70.86,65.5 70.13,64.84 69.41,64.19 68.54,63.65 67.57,63.49 L 67.57,63.43 Z M 67.57,63.43" />
            <path id="sue02Canvas-bezier49" stroke="none" fill="rgb(51, 91, 113)" d="M 72.9,98.82 C 73.21,101.52 73.45,104.23 73.6,106.94 73.72,109.65 73.79,112.38 73.56,115.1 73.42,116.47 73.28,117.84 72.7,119.17 72.55,119.5 72.36,119.83 72.06,120.11 71.9,120.25 71.78,120.33 71.66,120.44 71.54,120.54 71.42,120.66 71.3,120.77 70.84,121.22 70.43,121.74 70.05,122.29 68.52,124.48 67.46,126.99 66.47,129.51 L 66.41,129.49 C 67.05,126.85 68.03,124.27 69.52,121.93 69.9,121.35 70.33,120.8 70.83,120.29 71.07,120.05 71.41,119.8 71.62,119.63 71.82,119.44 71.99,119.18 72.13,118.9 72.68,117.74 72.88,116.38 73.05,115.05 73.33,112.38 73.34,109.66 73.28,106.95 73.21,104.24 73.06,101.53 72.83,98.83 L 72.9,98.82 Z M 72.9,98.82" />
            <path id="sue02Canvas-bezier50" stroke="none" fill="rgb(51, 91, 113)" d="M 54.29,148.96 C 56.17,149.06 58.04,149.2 59.92,149.42 60.85,149.52 61.79,149.6 62.72,149.83 63.18,149.95 63.63,150.07 64.08,150.24 64.53,150.42 64.98,150.6 65.36,150.92 L 65.32,150.97 C 64.43,150.7 63.5,150.62 62.59,150.46 61.67,150.32 60.76,150.1 59.84,149.93 58,149.6 56.14,149.3 54.29,149.02 L 54.29,148.96 Z M 54.29,148.96" />
            <path id="sue02Canvas-bezier51" stroke="none" fill="rgb(51, 91, 113)" d="M 66.47,152.13 C 66.75,154.01 67,155.9 67.23,157.79 67.44,159.68 67.66,161.57 67.73,163.48 67.74,163.96 67.75,164.43 67.69,164.92 67.59,165.39 67.63,165.84 67.69,166.31 67.82,167.25 68.05,168.17 68.29,169.08 68.79,170.91 69.4,172.72 70.07,174.5 70.73,176.27 71.46,178.03 72.3,179.73 72.71,180.59 73.17,181.4 73.67,182.22 74.14,183.06 74.56,183.91 74.98,184.77 76.64,188.21 78.16,191.7 79.63,195.21 82.58,202.24 85.32,209.35 87.69,216.59 88.87,220.22 89.93,223.88 90.85,227.58 91.75,231.28 92.52,235.03 92.85,238.82 L 92.79,238.83 C 92.54,236.95 92.18,235.08 91.76,233.22 91.36,231.37 90.9,229.53 90.4,227.69 89.41,224.02 88.27,220.4 87.08,216.79 84.69,209.58 82.06,202.44 79.19,195.39 77.74,191.87 76.26,188.37 74.64,184.93 74.23,184.08 73.82,183.22 73.36,182.39 72.88,181.59 72.4,180.74 72,179.88 71.17,178.15 70.46,176.38 69.8,174.59 69.15,172.8 68.56,170.99 68.08,169.14 67.84,168.22 67.62,167.29 67.49,166.34 67.44,165.87 67.4,165.36 67.5,164.89 67.56,164.43 67.56,163.95 67.55,163.48 67.5,161.59 67.31,159.69 67.11,157.8 66.9,155.91 66.67,154.02 66.41,152.14 L 66.47,152.13 Z M 66.47,152.13" />
            <path id="sue02Canvas-bezier52" stroke="none" fill="rgb(51, 91, 113)" d="M 92.85,241.06 C 93.68,242.87 94.26,244.78 94.69,246.73 95.1,248.67 95.33,250.66 95.37,252.66 95.42,254.65 95.31,256.67 94.88,258.63 94.43,260.58 93.79,262.49 92.85,264.25 L 92.79,264.23 C 93.39,262.33 93.93,260.44 94.25,258.5 94.59,256.58 94.84,254.63 94.86,252.66 94.88,250.7 94.72,248.73 94.37,246.79 94.03,244.85 93.54,242.92 92.79,241.09 L 92.85,241.06 Z M 92.85,241.06" />
            <path id="sue02Canvas-bezier53" stroke="none" fill="rgb(51, 91, 113)" d="M 92.85,266.09 C 92.83,270.92 92.64,275.75 92.35,280.57 92.05,285.39 91.64,290.21 91.07,295.01 90.5,299.81 89.78,304.59 88.83,309.33 87.87,314.07 86.69,318.78 85.07,323.34 L 84.98,323.58 84.75,323.47 C 83.3,322.77 81.69,322.36 80.11,321.94 78.52,321.54 76.91,321.2 75.29,320.88 72.07,320.24 68.82,319.69 65.56,319.21 L 65.3,319.17 65.3,318.9 C 65.36,314.29 65.41,309.68 65.38,305.07 65.37,302.76 65.35,300.46 65.28,298.16 65.22,295.86 65.18,293.56 64.89,291.28 64.71,288.92 64.97,286.62 65.24,284.32 65.52,282.03 65.9,279.75 66.34,277.48 66.78,275.21 67.26,272.95 67.86,270.72 68.16,269.61 68.49,268.5 68.85,267.4 69.23,266.31 69.61,265.21 70.23,264.22 L 70.28,264.26 C 69.7,265.24 69.35,266.36 69,267.45 68.67,268.55 68.38,269.67 68.11,270.79 67.58,273.03 67.1,275.28 66.7,277.55 66.3,279.81 65.95,282.09 65.7,284.38 65.47,286.66 65.25,288.97 65.44,291.22 65.77,293.51 65.84,295.84 65.93,298.14 65.99,300.45 66.01,302.76 66.02,305.07 66.04,309.68 66.01,314.29 65.92,318.91 L 65.65,318.6 C 68.92,319.11 72.17,319.69 75.4,320.36 77.02,320.7 78.63,321.06 80.23,321.47 81.83,321.9 83.43,322.32 84.96,323.07 L 84.64,323.19 C 86.28,318.66 87.48,313.98 88.47,309.26 89.44,304.54 90.19,299.76 90.79,294.98 91.4,290.19 91.85,285.38 92.18,280.56 92.5,275.75 92.73,270.92 92.79,266.09 L 92.85,266.09 Z M 92.85,266.09" />
            <path id="sue02Canvas-bezier54" stroke="none" fill="rgb(51, 91, 113)" d="M 70.76,262.37 C 71.41,261.6 72.34,261.08 73.32,260.81 74.31,260.55 75.37,260.54 76.36,260.69 77.33,260.82 78.29,260.77 79.22,260.62 80.13,260.45 81.11,260.16 81.77,259.46 L 81.83,259.48 C 81.66,260 81.22,260.34 80.8,260.63 80.36,260.93 79.86,261.12 79.36,261.25 78.33,261.51 77.27,261.4 76.28,261.2 75.32,260.99 74.35,260.93 73.39,261.12 72.45,261.3 71.51,261.71 70.81,262.41 L 70.76,262.37 Z M 70.76,262.37" />
            <path id="sue02Canvas-bezier55" stroke="none" fill="rgb(51, 91, 113)" d="M 72.39,257.33 C 73.34,257.58 74.38,257.66 75.3,257.4 75.77,257.27 76.19,257.04 76.52,256.72 76.69,256.56 76.83,256.37 76.96,256.18 77.09,255.96 77.25,255.74 77.42,255.54 78.1,254.74 78.93,254.09 79.84,253.62 80.75,253.16 81.71,252.8 82.72,252.63 L 82.74,252.69 C 81.86,253.19 80.99,253.66 80.15,254.18 79.33,254.7 78.48,255.19 77.8,255.88 77.63,256.05 77.49,256.23 77.35,256.43 77.19,256.65 77.01,256.85 76.81,257.03 76.4,257.38 75.89,257.6 75.38,257.71 74.35,257.91 73.31,257.73 72.37,257.39 L 72.39,257.33 Z M 72.39,257.33" />
            <path id="sue02Canvas-bezier56" stroke="none" fill="rgb(51, 91, 113)" d="M 70.75,255.64 C 70.43,253.11 69.98,250.6 69.39,248.12 68.79,245.64 68.06,243.18 66.98,240.89 66.43,239.75 65.79,238.64 64.94,237.72 64.07,236.78 63.23,235.82 62.39,234.85 60.72,232.92 59.08,230.95 57.47,228.97 54.24,225 51.09,220.96 48.18,216.75 46.73,214.64 45.34,212.49 44.09,210.25 43.47,209.13 42.88,207.99 42.37,206.81 41.9,205.62 41.42,204.39 41.42,203.09 L 41.48,203.09 C 41.56,204.36 42.11,205.54 42.65,206.68 43.19,207.83 43.82,208.93 44.49,210.02 45.8,212.2 47.23,214.31 48.71,216.39 50.16,218.48 51.67,220.54 53.2,222.58 54.72,224.63 56.28,226.65 57.86,228.65 59.45,230.65 61.05,232.64 62.69,234.59 63.52,235.57 64.34,236.54 65.2,237.49 66.08,238.45 66.71,239.6 67.25,240.76 68.31,243.11 69,245.58 69.57,248.08 70.12,250.57 70.54,253.09 70.82,255.63 L 70.75,255.64 Z M 70.75,255.64" />
            <path id="sue02Canvas-bezier57" stroke="none" fill="rgb(51, 91, 113)" d="M 40.09,183.24 C 39.24,193.54 38.31,203.83 37.27,214.11 L 36.48,221.83 35.57,229.52 C 35.22,232.08 34.87,234.65 34.44,237.2 34.01,239.75 33.58,242.3 32.85,244.79 L 32.79,244.78 C 33.09,243.52 33.28,242.24 33.47,240.97 33.66,239.69 33.84,238.41 34,237.13 34.33,234.57 34.65,232.01 34.93,229.45 L 36.76,214.06 C 37.91,203.79 38.99,193.52 40.02,183.24 L 40.09,183.24 Z M 40.09,183.24" />
            <path id="sue02Canvas-bezier58" stroke="none" fill="rgb(51, 91, 113)" d="M 32.59,245.8 C 32.58,248.59 32.45,251.37 32.21,254.16 32.1,255.55 32,256.94 31.75,258.32 31.49,259.69 31.2,261.07 30.73,262.39 L 30.66,262.38 C 30.78,260.98 30.97,259.61 31.12,258.23 31.28,256.85 31.52,255.48 31.7,254.1 32.05,251.35 32.33,248.58 32.52,245.8 L 32.59,245.8 Z M 32.59,245.8" />
            <path id="sue02Canvas-bezier59" stroke="none" fill="rgb(51, 91, 113)" d="M 30.2,264.37 C 30.09,268.94 30.15,273.53 30.55,278.08 30.78,280.35 31.05,282.64 31.73,284.81 32.08,285.91 32.27,287.05 32.45,288.18 32.63,289.32 32.76,290.45 32.89,291.59 33.36,296.15 33.61,300.73 33.81,305.3 33.99,309.88 34.16,314.44 34.11,319.05 L 34.11,319.35 33.81,319.25 C 33.13,319.02 32.36,319.02 31.62,319.08 30.87,319.14 30.12,319.28 29.38,319.44 27.89,319.77 26.43,320.22 24.98,320.72 22.09,321.72 19.26,322.9 16.49,324.2 L 16.19,324.34 16.08,324.03 C 14.61,319.78 13.42,315.46 12.36,311.1 11.31,306.74 10.41,302.35 9.76,297.91 9.09,293.48 8.62,289.02 8.39,284.54 8.15,280.07 8.22,275.58 8.63,271.12 L 8.69,271.12 C 8.41,275.59 8.49,280.07 8.76,284.52 9.05,288.98 9.59,293.42 10.32,297.83 11.06,302.23 11.94,306.61 12.98,310.95 14.04,315.29 15.23,319.61 16.64,323.83 L 16.23,323.66 C 19.04,322.38 21.89,321.22 24.81,320.23 26.28,319.74 27.76,319.29 29.27,318.97 30.03,318.8 30.8,318.67 31.58,318.61 32.36,318.56 33.17,318.55 33.96,318.82 L 33.65,319.02 C 33.73,314.48 33.58,309.88 33.43,305.32 33.26,300.75 33.03,296.17 32.6,291.62 32.48,290.49 32.36,289.35 32.19,288.22 32.02,287.09 31.83,285.97 31.5,284.88 30.84,282.67 30.58,280.38 30.37,278.1 30.01,273.53 29.99,268.95 30.13,264.37 L 30.2,264.37 Z M 30.2,264.37" />
            <path id="sue02Canvas-bezier60" stroke="none" fill="rgb(51, 91, 113)" d="M 9.69,268.22 C 9.37,267.65 9.09,267.05 8.93,266.39 8.85,266.07 8.82,265.67 8.86,265.37 L 8.89,264.39 C 8.93,263.09 8.92,261.79 8.91,260.48 8.91,259.18 8.94,257.87 8.98,256.57 8.99,255.27 9.11,253.96 9.02,252.67 L 9.08,252.65 C 9.28,253.29 9.34,253.95 9.4,254.6 9.47,255.26 9.51,255.91 9.54,256.57 9.59,257.88 9.61,259.18 9.56,260.49 9.51,261.8 9.44,263.11 9.37,264.42 L 9.3,265.4 C 9.28,265.59 9.25,265.71 9.25,265.87 9.24,266.02 9.25,266.18 9.27,266.33 9.34,266.96 9.52,267.59 9.75,268.2 L 9.69,268.22 Z M 9.69,268.22" />
            <path id="sue02Canvas-bezier61" stroke="none" fill="rgb(51, 91, 113)" d="M 8.01,249.01 C 6.83,241.38 5.69,233.76 4.63,226.12 4.09,222.3 3.53,218.48 3.12,214.64 2.93,212.72 2.73,210.81 2.58,208.88 2.45,206.96 2.28,205.03 2.39,203.09 L 2.45,203.09 C 2.46,204.05 2.58,205.01 2.69,205.97 2.79,206.92 2.9,207.88 3.03,208.84 L 3.76,214.57 C 4.25,218.39 4.67,222.22 5.14,226.05 6.09,233.7 7.07,241.35 8.07,249 L 8.01,249.01 Z M 8.01,249.01" />
            <path id="sue02Canvas-bezier62" stroke="none" fill="rgb(51, 91, 113)" d="M 18.68,324.78 C 19.9,328.48 21.04,332.19 22.1,335.94 22.62,337.81 23.17,339.69 23.55,341.6 23.73,342.56 23.91,343.52 24.03,344.49 24.15,345.46 24.26,346.44 24.16,347.42 L 24.09,347.42 C 24.01,346.46 23.8,345.51 23.59,344.57 23.38,343.62 23.17,342.68 22.93,341.74 L 21.6,336.07 C 20.66,332.3 19.66,328.55 18.62,324.8 L 18.68,324.78 Z M 18.68,324.78" />
            <path id="sue02Canvas-bezier63" stroke="none" fill="rgb(51, 91, 113)" d="M 25.15,350.3 C 25.14,352.28 25.04,354.25 24.83,356.22 24.73,357.2 24.65,358.19 24.4,359.16 24.15,360.12 23.83,361.09 23.26,361.93 L 23.2,361.9 C 23.45,360.94 23.61,359.99 23.77,359.03 23.93,358.07 24.16,357.11 24.32,356.15 24.64,354.21 24.89,352.26 25.09,350.3 L 25.15,350.3 Z M 25.15,350.3" />
            <path id="sue02Canvas-bezier64" stroke="none" fill="rgb(51, 91, 113)" d="M 32.92,321.21 C 33.3,325.24 33.64,329.27 33.91,333.31 34.05,335.32 34.21,337.34 34.24,339.37 34.23,341.39 34.26,343.43 33.94,345.44 L 33.87,345.43 C 33.83,343.41 33.7,341.4 33.59,339.39 33.49,337.37 33.47,335.35 33.39,333.33 33.24,329.3 33.05,325.26 32.85,321.22 L 32.92,321.21 Z M 32.92,321.21" />
            <path id="sue02Canvas-bezier65" stroke="none" fill="rgb(51, 91, 113)" d="M 35.6,345.42 C 36.2,346.16 36.61,347.08 36.71,348.07 36.76,348.57 36.77,349.1 36.56,349.57 36.36,350.04 36.03,350.46 35.6,350.72 L 35.55,350.68 C 35.7,350.2 35.85,349.79 35.95,349.37 36.04,348.95 36.19,348.54 36.2,348.09 36.22,347.65 36.16,347.2 36.04,346.75 35.93,346.31 35.77,345.87 35.55,345.46 L 35.6,345.42 Z M 35.6,345.42" />
            <path id="sue02Canvas-bezier66" stroke="none" fill="rgb(51, 91, 113)" d="M 35.61,353.08 C 35.45,355.62 35.19,358.15 34.8,360.67 34.6,361.92 34.36,363.18 34.04,364.41 33.72,365.65 33.35,366.89 32.74,368.05 32.42,368.62 32.05,369.2 31.42,369.6 31.12,369.81 30.69,369.87 30.41,369.9 L 29.47,370.06 C 28.22,370.27 26.94,370.48 25.61,370.4 24.95,370.34 24.26,370.21 23.66,369.85 23.05,369.5 22.59,368.89 22.41,368.23 22.06,366.91 22.34,365.6 22.7,364.39 L 22.76,364.4 C 22.67,365.03 22.58,365.66 22.58,366.29 22.57,366.91 22.63,367.53 22.84,368.09 23.05,368.64 23.42,369.11 23.93,369.37 24.44,369.64 25.04,369.74 25.65,369.76 26.87,369.81 28.12,369.61 29.37,369.43 L 30.33,369.3 C 30.67,369.26 30.89,369.25 31.13,369.1 31.61,368.83 31.98,368.32 32.29,367.8 32.89,366.73 33.29,365.52 33.64,364.31 33.98,363.09 34.25,361.86 34.48,360.61 34.96,358.12 35.3,355.61 35.54,353.08 L 35.61,353.08 Z M 35.61,353.08" />
            <path id="sue02Canvas-bezier67" stroke="none" fill="rgb(51, 91, 113)" d="M 20.67,366.99 C 20.2,368.82 19.9,370.72 19.86,372.61 19.84,373.56 19.89,374.51 20.06,375.43 20.2,376.35 21.04,376.94 21.9,377.25 23.66,377.86 25.62,377.8 27.47,377.53 28.4,377.37 29.31,377.14 30.19,376.81 31.06,376.48 31.9,376.05 32.56,375.43 32.89,375.11 33.13,374.77 33.31,374.35 33.5,373.93 33.66,373.49 33.81,373.04 34.1,372.15 34.33,371.23 34.54,370.31 34.96,368.46 35.32,366.6 35.7,364.73 35.91,363.8 36.11,362.87 36.37,361.93 36.44,361.7 36.52,361.47 36.61,361.23 36.66,361.11 36.71,361 36.78,360.87 36.82,360.81 36.86,360.75 36.94,360.67 37.05,360.59 37.07,360.58 37.08,360.57 37.18,360.47 37.28,360.25 37.35,360.05 37.43,359.84 37.49,359.61 37.54,359.39 37.76,358.48 37.87,357.54 37.94,356.59 37.98,356.12 38,355.65 38.01,355.18 37.99,354.71 38.02,354.21 37.84,353.79 L 37.89,353.76 C 38.13,354.2 38.13,354.7 38.18,355.17 38.22,355.65 38.23,356.13 38.23,356.61 38.21,357.56 38.15,358.52 37.98,359.48 37.94,359.72 37.89,359.96 37.81,360.2 37.73,360.44 37.66,360.68 37.44,360.93 37.36,361.01 37.27,361.06 37.29,361.05 37.28,361.06 37.25,361.1 37.23,361.14 37.19,361.22 37.14,361.32 37.11,361.42 37.03,361.63 36.97,361.86 36.91,362.08 36.68,362.99 36.51,363.92 36.33,364.86 35.97,366.72 35.62,368.6 35.16,370.46 34.92,371.39 34.67,372.31 34.35,373.22 34.19,373.68 34.02,374.13 33.81,374.58 33.61,375.02 33.28,375.48 32.91,375.8 32.16,376.48 31.26,376.91 30.35,377.25 29.43,377.58 28.49,377.8 27.53,377.94 26.57,378.08 25.6,378.13 24.64,378.09 23.67,378.04 22.7,377.9 21.78,377.54 21.33,377.36 20.88,377.12 20.51,376.78 20.14,376.45 19.87,375.97 19.81,375.47 19.65,374.52 19.62,373.56 19.66,372.6 19.75,370.69 20.09,368.8 20.61,366.97 L 20.67,366.99 Z M 20.67,366.99" />
            <path id="sue02Canvas-bezier68" stroke="none" fill="rgb(51, 91, 113)" d="M 66.57,321.22 C 66.48,324.74 66.22,328.26 65.73,331.76 65.49,333.51 65.23,335.27 64.72,336.97 64.45,337.82 64.17,338.67 63.78,339.48 63.4,340.28 62.94,341.08 62.28,341.69 L 62.23,341.64 C 62.74,340.93 63.08,340.12 63.37,339.31 63.65,338.49 63.9,337.65 64.1,336.8 64.52,335.11 64.92,333.41 65.23,331.68 65.53,329.95 65.78,328.21 65.98,326.47 66.2,324.72 66.38,322.97 66.5,321.22 L 66.57,321.22 Z M 66.57,321.22" />
            <path id="sue02Canvas-bezier69" stroke="none" fill="rgb(51, 91, 113)" d="M 58.85,347.19 C 58.42,348.44 58.11,349.74 57.97,351.06 57.84,352.36 57.85,353.73 58.36,354.93 58.62,355.52 59.03,356.05 59.57,356.41 60.1,356.78 60.73,356.93 61.39,357.07 62.69,357.38 63.97,357.78 65.22,358.23 67.73,359.15 70.17,360.24 72.53,361.5 73.7,362.14 74.85,362.81 75.96,363.58 76.5,363.97 77.04,364.38 77.54,364.84 77.8,365.06 78.03,365.32 78.26,365.53 78.5,365.75 78.75,365.96 79.01,366.16 81.1,367.73 83.47,368.96 85.9,369.99 88.32,371 90.88,371.84 93.47,371.94 94.75,371.99 96.09,371.82 97.09,371.08 97.59,370.72 98,370.23 98.21,369.65 98.43,369.08 98.46,368.44 98.36,367.82 98.15,366.56 97.46,365.39 96.57,364.45 95.68,363.51 94.53,362.74 93.21,362.54 L 93.22,362.48 C 94.57,362.6 95.8,363.32 96.78,364.24 97.74,365.18 98.52,366.37 98.8,367.74 98.94,368.42 98.93,369.15 98.69,369.83 98.45,370.51 97.99,371.1 97.43,371.52 96.27,372.4 94.8,372.6 93.45,372.58 90.71,372.47 88.12,371.6 85.65,370.57 83.19,369.49 80.82,368.21 78.69,366.56 78.42,366.35 78.17,366.13 77.92,365.89 77.66,365.65 77.45,365.41 77.21,365.2 76.73,364.75 76.22,364.35 75.68,363.96 74.61,363.2 73.48,362.51 72.32,361.87 70.01,360.59 67.59,359.47 65.11,358.54 63.87,358.07 62.61,357.65 61.33,357.32 60.7,357.17 60,357 59.44,356.59 58.87,356.2 58.44,355.63 58.18,355.01 57.67,353.74 57.69,352.36 57.84,351.04 58.01,349.72 58.33,348.42 58.79,347.17 L 58.85,347.19 Z M 58.85,347.19" />
            <path id="sue02Canvas-bezier70" stroke="none" fill="rgb(51, 91, 113)" d="M 63.24,348.17 C 65.67,349.53 68.06,350.95 70.42,352.43 72.76,353.94 75.1,355.44 77.23,357.3 78.22,358.28 79.28,359.11 80.43,359.89 81.57,360.67 82.74,361.39 83.95,362.05 85.15,362.72 86.4,363.32 87.7,363.7 88.34,363.89 89.03,364.03 89.67,363.9 89.98,363.83 90.27,363.67 90.44,363.39 90.61,363.12 90.67,362.77 90.67,362.43 L 90.74,362.43 C 90.78,362.77 90.77,363.14 90.6,363.48 90.44,363.82 90.1,364.07 89.74,364.18 89.02,364.39 88.28,364.28 87.59,364.14 86.2,363.82 84.9,363.24 83.65,362.62 82.4,361.97 81.2,361.23 80.06,360.41 78.93,359.59 77.83,358.67 76.88,357.67 74.85,355.82 72.54,354.25 70.24,352.7 67.94,351.15 65.59,349.66 63.21,348.23 L 63.24,348.17 Z M 63.24,348.17" />
            <path id="sue02Canvas-bezier71" stroke="none" fill="rgb(51, 91, 113)" d="M 82.69,323.95 C 81.23,326.88 80.24,330.04 79.67,333.26 79.11,336.48 79.02,339.78 79.57,342.99 80.12,346.2 81.36,349.25 83.11,351.98 84.83,354.74 87.13,357.11 89.65,359.21 L 89.61,359.26 C 86.86,357.44 84.43,355.09 82.57,352.33 80.7,349.57 79.55,346.35 79.06,343.07 78.56,339.79 78.72,336.44 79.36,333.2 80.02,329.97 81.09,326.82 82.64,323.91 L 82.69,323.95 Z M 82.69,323.95" />
            <path id="sue02Canvas-bezier72" stroke="none" fill="rgb(51, 91, 113)" d="M 8.07,150.96 C 6.35,154.74 5.03,158.7 3.93,162.71 2.83,166.71 1.99,170.79 1.44,174.9 0.89,179.01 0.67,183.16 0.65,187.3 0.62,191.44 0.92,195.59 1.46,199.71 L 1.4,199.72 C 0.5,195.65 0.09,191.48 0.01,187.3 -0.06,183.13 0.31,178.95 0.93,174.83 1.55,170.7 2.46,166.62 3.62,162.62 4.81,158.63 6.21,154.69 8.02,150.93 L 8.07,150.96 Z M 8.07,150.96" />
            <path id="sue02Canvas-bezier73" stroke="none" fill="rgb(51, 91, 113)" d="M 31.8,40.4 C 32.88,40.58 33.98,40.61 35.07,40.58 36.16,40.55 37.24,40.44 38.31,40.26 39.38,40.07 40.43,39.78 41.48,39.53 42.54,39.28 43.58,38.98 44.65,38.7 L 44.68,38.76 C 43.74,39.36 42.71,39.8 41.66,40.14 40.6,40.49 39.49,40.65 38.38,40.77 37.28,40.89 36.17,40.93 35.06,40.9 33.96,40.84 32.86,40.72 31.78,40.46 L 31.8,40.4 Z M 31.8,40.4" />
            <path id="sue02Canvas-bezier74" stroke="none" fill="rgb(51, 91, 113)" d="M 32.51,40.97 C 33.3,41.82 34.34,42.41 35.44,42.69 36.54,42.97 37.7,42.9 38.78,42.58 39.86,42.25 40.84,41.67 41.81,41.07 42.78,40.47 43.69,39.77 44.64,39.08 L 44.69,39.13 C 43.98,40.07 43.13,40.9 42.17,41.6 41.2,42.3 40.08,42.8 38.91,43.08 37.75,43.36 36.49,43.36 35.35,42.99 34.21,42.62 33.19,41.93 32.46,41.01 L 32.51,40.97 Z M 32.51,40.97" />
            <path id="sue02Canvas-bezier75" stroke="none" fill="rgb(51, 91, 113)" d="M 46.67,44.49 C 46.41,46.33 45.51,48.13 44.02,49.32 42.53,50.5 40.55,50.97 38.66,50.81 36.74,50.64 34.98,49.72 33.51,48.55 32.02,47.38 30.76,45.96 29.59,44.5 29.01,43.76 28.45,43.01 27.9,42.26 27.36,41.49 26.8,40.76 26.31,39.92 25.83,39.09 25.44,38.2 25.21,37.26 24.97,36.32 24.93,35.35 24.93,34.41 24.94,33.47 24.95,32.59 24.74,31.69 24.59,30.74 24.53,29.81 24.49,28.88 24.44,27.94 24.41,27.02 24.34,26.09 24.3,25.63 24.26,25.17 24.18,24.72 24.09,24.27 23.99,23.8 23.7,23.45 L 23.75,23.4 C 24.08,23.76 24.22,24.23 24.35,24.68 24.47,25.13 24.56,25.6 24.63,26.06 24.76,26.99 24.84,27.92 24.93,28.84 25.03,29.77 25.11,30.7 25.29,31.58 25.53,32.49 25.56,33.5 25.57,34.41 25.54,36.26 25.94,38.02 26.86,39.61 27.3,40.39 27.86,41.16 28.37,41.93 28.9,42.69 29.44,43.45 30,44.18 31.13,45.65 32.34,47.06 33.77,48.23 35.18,49.39 36.86,50.3 38.69,50.49 40.5,50.69 42.43,50.28 43.9,49.17 45.38,48.06 46.31,46.3 46.61,44.48 L 46.67,44.49 Z M 46.67,44.49" />
            <path id="sue02Canvas-bezier76" stroke="none" fill="rgb(51, 91, 113)" d="M 21.67,149.98 C 21.05,151.33 20.29,152.61 19.43,153.82 18.57,155.03 17.6,156.17 16.52,157.21 15.44,158.24 14.27,159.21 12.93,159.91 11.59,160.6 10.16,161.13 8.67,161.3 L 8.65,161.24 C 10.04,160.71 11.38,160.12 12.62,159.36 13.86,158.61 15.07,157.79 16.17,156.83 17.26,155.86 18.27,154.79 19.18,153.63 20.09,152.48 20.92,151.26 21.61,149.95 L 21.67,149.98 Z M 21.67,149.98" />
            <path id="sue02Canvas-bezier77" stroke="none" fill="rgb(51, 91, 113)" d="M 63.38,153.33 C 63.41,154.21 63.47,155.09 63.55,155.97 63.62,156.85 63.71,157.73 63.85,158.6 63.99,159.46 64.2,160.31 64.39,161.15 64.6,161.98 64.78,162.83 65.36,163.49 L 65.32,163.54 C 64.89,163.35 64.58,162.97 64.34,162.58 64.09,162.18 63.92,161.75 63.77,161.32 63.49,160.45 63.41,159.55 63.34,158.66 63.19,156.88 63.2,155.1 63.32,153.33 L 63.38,153.33 Z M 63.38,153.33" />
        </g>
    </g>
</svg>
