<?xml version="1.0" encoding="UTF-8"?>
<!DOCTYPE svg PUBLIC "-//W3C//DTD SVG 1.1//EN" "http://www.w3.org/Graphics/SVG/1.1/DTD/svg11.dtd">
<svg version="1.1" xmlns="http://www.w3.org/2000/svg" xmlns:xlink="http://www.w3.org/1999/xlink" width="179" height="378"  xml:space="preserve" id="sue03Canvas">
    <!-- Generated by PaintCode - http://www.paintcodeapp.com -->
    <g id="sue03Canvas-lines">
        <g id="sue03Canvas-group2">
            <path id="sue03Canvas-bezier" stroke="none" fill="rgb(51, 91, 113)" d="M 62.27,47.43 C 60.57,48.21 58.84,48.94 57.09,49.63 55.32,50.28 53.59,50.97 51.65,51.29 51.14,51.33 50.83,51.41 50.43,51.61 50.05,51.8 49.69,52.05 49.35,52.33 48.67,52.89 48.03,53.54 47.42,54.22 46.18,55.56 45.05,57.04 43.93,58.55 L 43.85,58.5 C 44.5,56.72 45.48,55.08 46.67,53.58 47.29,52.84 47.96,52.14 48.76,51.56 49.17,51.28 49.6,51.02 50.07,50.82 50.52,50.61 51.14,50.51 51.57,50.51 53.34,50.32 55.16,49.72 56.93,49.17 58.71,48.61 60.48,47.99 62.24,47.34 L 62.27,47.43 Z M 62.27,47.43" />
            <path id="sue03Canvas-bezier2" stroke="none" fill="rgb(51, 91, 113)" d="M 42.85,59.39 C 42.25,59.29 41.63,59.47 41.13,59.81 40.62,60.15 40.23,60.63 39.91,61.15 39.59,61.67 39.39,62.25 39.15,62.82 39.04,63.11 38.92,63.4 38.77,63.68 38.64,63.95 38.42,64.24 38.13,64.39 37.05,64.98 36.17,65.86 35.32,66.74 34.48,67.65 33.61,68.53 32.72,69.39 29.18,72.84 25.61,76.25 22.25,79.86 18.91,83.48 15.68,87.25 13.24,91.51 11.95,93.64 10.44,95.66 8.64,97.4 7.73,98.27 6.75,99.07 5.69,99.75 4.61,100.42 3.5,101 2.17,101.28 L 2.38,101.18 C 1.48,102.24 0.93,103.69 0.81,105.12 0.68,106.56 0.98,108.03 1.54,109.38 2.77,112.17 3.7,115.11 4.53,118.04 5.36,120.98 6.07,123.94 6.53,126.99 6.64,127.75 6.73,128.52 6.75,129.32 6.75,129.52 6.75,129.72 6.73,129.93 6.72,130.14 6.66,130.4 6.66,130.49 6.65,130.72 6.74,131.02 6.9,131.31 7.6,132.47 8.82,133.46 9.95,134.44 11.09,135.44 12.29,136.4 13.28,137.7 13.52,138.03 13.74,138.39 13.89,138.82 13.96,139.03 13.99,139.31 14.01,139.46 14.03,139.6 14.08,139.78 14.13,139.95 14.33,140.63 14.63,141.32 14.95,142 15.59,143.35 16.34,144.66 17.17,145.9 17.59,146.52 18.04,147.13 18.51,147.69 18.75,147.97 19.01,148.23 19.27,148.46 19.53,148.69 19.85,148.89 20.04,148.89 20.17,148.93 20.32,148.69 20.38,148.34 20.45,148.02 20.45,147.63 20.5,147.24 20.57,146.48 20.67,145.72 20.79,144.96 21.03,143.46 21.32,141.96 21.66,140.47 21.99,138.99 22.36,137.51 22.78,136.05 22.98,135.31 23.2,134.58 23.44,133.86 23.56,133.5 23.69,133.14 23.83,132.79 23.99,132.44 24.09,132.07 24.39,131.77 L 24.45,131.85 C 24.21,132.1 24.1,132.49 23.96,132.83 23.84,133.19 23.72,133.55 23.62,133.92 23.4,134.64 23.21,135.38 23.03,136.11 22.68,137.59 22.36,139.07 22.08,140.56 21.8,142.05 21.53,143.54 21.34,145.04 21.24,145.79 21.15,146.54 21.1,147.29 21.07,147.66 21.08,148.03 21.01,148.46 20.98,148.66 20.92,148.88 20.79,149.11 20.67,149.33 20.37,149.56 20.06,149.56 19.47,149.54 19.15,149.24 18.82,149 18.51,148.74 18.23,148.46 17.96,148.17 17.44,147.59 16.97,146.97 16.53,146.34 15.65,145.07 14.87,143.75 14.18,142.37 13.84,141.67 13.52,140.97 13.27,140.2 13.21,140.01 13.16,139.82 13.12,139.59 13.09,139.36 13.08,139.25 13.02,139.11 12.92,138.82 12.74,138.53 12.53,138.25 11.65,137.13 10.44,136.18 9.31,135.18 8.17,134.16 6.94,133.23 6.05,131.78 5.85,131.4 5.66,130.96 5.69,130.42 5.71,130.14 5.75,130.03 5.76,129.85 5.77,129.69 5.78,129.51 5.78,129.33 5.76,128.61 5.67,127.87 5.57,127.13 5.12,124.16 4.41,121.2 3.64,118.28 2.84,115.36 1.97,112.47 0.77,109.69 0.19,108.23 -0.11,106.63 0.04,105.04 0.2,103.46 0.77,101.93 1.85,100.67 L 1.92,100.59 2.06,100.56 C 3.16,100.34 4.3,99.78 5.31,99.16 6.34,98.52 7.29,97.76 8.17,96.92 9.94,95.25 11.44,93.28 12.72,91.2 15.24,86.91 18.52,83.14 21.91,79.55 25.32,75.96 28.95,72.59 32.53,69.19 33.42,68.34 34.3,67.48 35.15,66.58 36.02,65.7 36.92,64.82 38.03,64.23 38.56,63.95 38.74,63.3 39,62.76 39.23,62.19 39.46,61.6 39.79,61.07 40.12,60.54 40.53,60.05 41.06,59.71 41.58,59.37 42.23,59.17 42.87,59.29 L 42.85,59.39 Z M 42.85,59.39" />
            <path id="sue03Canvas-bezier3" stroke="none" fill="rgb(51, 91, 113)" d="M 25.75,131.61 C 25.09,129.62 24.61,127.56 24.32,125.46 24.06,123.36 23.99,121.21 24.44,119.09 24.95,117 25.56,115.02 25.99,113.02 26.22,112.04 26.33,111.03 26.12,110.09 25.93,109.15 25.25,108.34 24.4,107.74 L 24.44,107.65 C 24.95,107.84 25.42,108.12 25.84,108.49 26.25,108.86 26.57,109.36 26.78,109.89 27.18,110.98 27.09,112.13 26.96,113.2 26.62,115.33 25.79,117.3 25.2,119.27 24.68,121.24 24.65,123.34 24.8,125.41 24.96,127.49 25.31,129.56 25.85,131.58 L 25.75,131.61 Z M 25.75,131.61" />
            <path id="sue03Canvas-bezier4" stroke="none" fill="rgb(51, 91, 113)" d="M 26.61,105.48 C 28.18,104.07 29.71,102.62 31.19,101.12 32.65,99.62 34.11,98.08 35.32,96.39 35.62,95.97 35.91,95.53 36.13,95.08 36.24,94.86 36.3,94.64 36.44,94.36 36.57,94.1 36.72,93.87 36.87,93.65 37.5,92.76 38.22,91.97 38.95,91.21 40.42,89.68 41.98,88.24 43.54,86.82 46.66,83.98 49.88,81.23 52.95,78.4 54.45,77.02 55.61,75.28 56.6,73.46 57.09,72.54 57.53,71.59 57.9,70.62 58.28,69.65 58.65,68.65 58.8,67.62 L 58.9,67.62 C 58.79,69.77 58.05,71.8 57.21,73.75 56.33,75.7 55.16,77.55 53.63,79.1 50.58,82.09 47.24,84.64 44.06,87.41 42.47,88.79 40.89,90.18 39.4,91.65 38.67,92.39 37.94,93.15 37.33,93.97 37.18,94.18 37.04,94.39 36.93,94.6 36.82,94.79 36.73,95.07 36.6,95.32 36.34,95.81 36.04,96.25 35.72,96.68 34.41,98.37 32.91,99.86 31.39,101.33 29.86,102.78 28.29,104.19 26.68,105.55 L 26.61,105.48 Z M 26.61,105.48" />
            <path id="sue03Canvas-bezier5" stroke="none" fill="rgb(51, 91, 113)" d="M 37,97.64 C 37.49,103.5 37.75,109.37 37.71,115.26 37.69,118.2 37.66,121.16 37.31,124.09 36.9,127.01 36.43,129.99 35.16,132.68 L 35.07,132.65 C 35.8,129.81 36.11,126.91 36.33,124 36.56,121.09 36.81,118.17 36.93,115.24 37.04,112.32 37.08,109.38 37.07,106.45 37.07,103.51 37.02,100.58 36.91,97.65 L 37,97.64 Z M 37,97.64" />
            <path id="sue03Canvas-bezier6" stroke="none" fill="rgb(51, 91, 113)" d="M 32.87,133.5 C 33.88,133.55 34.93,133.34 35.79,132.82 36.23,132.56 36.56,132.23 36.88,131.81 37.26,131.37 37.78,131.13 38.28,130.94 40.32,130.28 42.43,130.25 44.49,130.1 45.53,130.02 46.55,129.97 47.54,129.79 48.58,129.61 49.63,129.53 50.69,129.53 51.75,129.58 52.83,129.62 53.89,130.05 54.15,130.16 54.41,130.31 54.63,130.53 54.87,130.73 55.01,131.13 55,131.39 55.01,131.89 55.12,132.41 55.07,132.95 L 54.97,132.95 C 54.87,132.45 54.69,131.97 54.55,131.45 54.49,130.99 54.11,130.82 53.65,130.69 52.74,130.46 51.71,130.45 50.71,130.51 49.7,130.54 48.68,130.63 47.67,130.75 46.6,130.87 45.56,130.86 44.52,130.87 42.46,130.92 40.37,130.87 38.43,131.4 37.96,131.54 37.49,131.74 37.17,132.06 36.84,132.45 36.41,132.84 35.93,133.08 34.97,133.57 33.89,133.71 32.85,133.6 L 32.87,133.5 Z M 32.87,133.5" />
            <path id="sue03Canvas-bezier7" stroke="none" fill="rgb(51, 91, 113)" d="M 43.16,133.61 C 42.75,133.95 42.34,134.3 41.97,134.68 41.8,134.87 41.6,135.09 41.53,135.28 41.43,135.36 41.79,135.35 42.01,135.28 43.03,134.97 44.08,134.69 45.12,134.43 47.22,133.94 49.29,133.45 51.48,133.18 53.69,133.08 55.83,133.16 58,133.58 58.53,133.7 59.07,133.84 59.6,134.02 59.86,134.12 60.13,134.22 60.4,134.36 60.66,134.5 60.93,134.67 61.15,135.01 61.25,135.15 61.29,135.48 61.26,135.59 61.24,135.73 61.21,135.9 61.16,136.04 61.06,136.34 60.89,136.6 60.69,136.82 60.26,137.24 59.74,137.48 59.19,137.58 L 59.17,137.48 C 59.64,137.26 60.08,136.94 60.35,136.53 60.48,136.34 60.58,136.12 60.61,135.9 60.65,135.67 60.65,135.41 60.57,135.38 60.36,135.15 59.83,134.95 59.35,134.83 58.86,134.7 58.34,134.61 57.82,134.54 55.76,134.26 53.6,133.97 51.53,133.96 49.46,134.12 47.32,134.52 45.22,134.91 44.17,135.1 43.14,135.32 42.08,135.57 41.94,135.59 41.8,135.61 41.65,135.61 41.57,135.6 41.48,135.6 41.38,135.53 41.26,135.45 41.27,135.28 41.3,135.21 41.44,134.91 41.64,134.74 41.84,134.55 42.24,134.18 42.66,133.85 43.1,133.54 L 43.16,133.61 Z M 43.16,133.61" />
            <path id="sue03Canvas-bezier8" stroke="none" fill="rgb(51, 91, 113)" d="M 41.39,138.63 L 46.9,137.39 C 47.83,137.19 48.7,136.96 49.69,136.79 50.66,136.67 51.63,136.71 52.58,136.8 53.54,136.89 54.48,137.04 55.41,137.19 55.87,137.27 56.34,137.36 56.77,137.41 56.87,137.42 56.98,137.44 57.03,137.43 L 57.14,137.43 C 57.17,137.43 57.26,137.44 57.31,137.45 57.42,137.47 57.49,137.49 57.57,137.52 57.88,137.64 58.11,137.81 58.32,137.99 58.72,138.37 59.03,138.8 59.21,139.36 59.29,139.63 59.34,139.95 59.24,140.29 59.14,140.63 58.88,140.88 58.58,141.02 58.39,141.11 58.09,141.22 57.84,141.25 57.58,141.29 57.32,141.3 57.07,141.27 56.57,141.2 56.09,141.04 55.69,140.76 L 55.74,140.67 C 56.63,140.94 57.58,140.91 58.27,140.42 58.79,140.11 58.29,139.21 57.68,138.73 57.53,138.61 57.36,138.5 57.23,138.46 57.2,138.45 57.17,138.44 57.16,138.44 57.15,138.44 57.18,138.43 57.15,138.43 57.13,138.43 57.06,138.44 57.09,138.44 56.9,138.45 56.78,138.43 56.64,138.42 56.14,138.35 55.69,138.23 55.22,138.14 54.31,137.92 53.4,137.72 52.49,137.58 51.58,137.44 50.65,137.35 49.76,137.42 48.88,137.52 47.91,137.72 47,137.86 L 41.42,138.73 41.39,138.63 Z M 41.39,138.63" />
            <path id="sue03Canvas-bezier9" stroke="none" fill="rgb(51, 91, 113)" d="M 41.4,142.37 C 43.51,142.12 45.58,141.82 47.58,141.02 48.64,140.82 49.71,140.78 50.78,140.78 51.31,140.79 51.84,140.8 52.38,140.84 52.64,140.86 52.91,140.89 53.18,140.92 53.46,140.97 53.7,140.97 54.04,141.14 54.27,141.29 54.52,141.44 54.72,141.71 54.82,141.84 54.91,142.03 54.89,142.25 54.88,142.46 54.77,142.63 54.66,142.75 54.19,143.21 53.67,143.37 53.16,143.56 52.12,143.91 51.07,144.1 50.04,144.32 L 46.93,144.96 C 45.91,145.19 44.87,145.42 43.95,145.81 43.5,146.02 43.08,146.27 42.74,146.59 42.32,146.99 41.85,147.29 41.41,147.58 40.5,148.16 39.57,148.69 38.63,149.2 36.74,150.2 34.79,151.08 32.77,151.79 31.75,152.12 30.71,152.42 29.63,152.61 29.09,152.71 28.55,152.77 27.98,152.77 27.43,152.77 26.81,152.69 26.28,152.38 24.36,151.3 22.88,149.57 22.07,147.6 L 22.16,147.56 C 23.2,149.37 24.75,150.9 26.59,151.78 27.41,152.15 28.48,151.99 29.47,151.79 30.47,151.57 31.46,151.24 32.44,150.87 34.39,150.14 36.3,149.27 38.18,148.34 39.12,147.87 40.05,147.38 40.94,146.84 41.38,146.57 41.82,146.3 42.18,145.98 42.62,145.59 43.13,145.3 43.65,145.1 44.69,144.68 45.74,144.48 46.79,144.27 L 49.91,143.7 C 50.95,143.51 52,143.34 52.98,143.03 53.45,142.88 53.97,142.69 54.27,142.4 54.4,142.24 54.41,142.17 54.31,142 54.2,141.84 53.99,141.7 53.78,141.56 53.65,141.47 53.35,141.42 53.11,141.38 52.86,141.34 52.6,141.31 52.34,141.28 51.82,141.23 51.29,141.19 50.77,141.17 49.72,141.14 48.66,141.14 47.63,141.31 45.67,142.03 43.5,142.29 41.41,142.47 L 41.4,142.37 Z M 41.4,142.37" />
            <path id="sue03Canvas-bezier10" stroke="none" fill="rgb(51, 91, 113)" d="M 24.48,133.13 C 24.81,134.35 25.2,135.56 25.67,136.73 25.9,137.31 26.15,137.89 26.46,138.4 L 27.5,139.99 C 28.2,141.07 28.88,142.23 29.15,143.54 29.42,144.84 29.39,146.21 28.97,147.45 L 28.87,147.43 C 28.76,146.15 28.57,144.95 28.2,143.79 27.84,142.64 27.41,141.49 26.82,140.39 L 25.9,138.71 C 25.61,138.11 25.4,137.5 25.21,136.89 24.85,135.65 24.59,134.41 24.38,133.15 L 24.48,133.13 Z M 24.48,133.13" />
            <path id="sue03Canvas-bezier11" stroke="none" fill="rgb(51, 91, 113)" d="M 26.97,139.04 C 27.38,137.95 27.81,136.87 28.28,135.8 28.78,134.74 29.23,133.69 29.97,132.68 30.74,131.84 31.19,130.74 32.2,129.93 33.16,129.1 34.57,128.74 35.72,129.12 L 35.71,129.22 C 34.54,129.4 33.59,129.89 32.86,130.66 32.12,131.39 31.43,132.37 30.57,133.18 29.86,133.99 29.28,135.03 28.71,136.02 28.13,137.02 27.58,138.04 27.05,139.07 L 26.97,139.04 Z M 26.97,139.04" />
            <path id="sue03Canvas-bezier12" stroke="none" fill="rgb(51, 91, 113)" d="M 96.44,19.3 C 95.75,20.37 95.19,21.5 94.55,22.6 93.9,23.69 93.16,24.77 92.21,25.69 91.28,26.61 90.14,27.41 88.86,27.78 87.58,28.15 86.25,28.23 84.97,28.01 L 84.97,27.92 C 86.22,27.6 87.42,27.31 88.54,26.85 89.65,26.41 90.74,25.89 91.69,25.11 93.58,23.54 94.78,21.24 96.35,19.25 L 96.44,19.3 Z M 96.44,19.3" />
            <path id="sue03Canvas-bezier13" stroke="none" fill="rgb(51, 91, 113)" d="M 92.83,19.32 C 92.64,19.17 92.71,18.95 92.68,18.8 92.67,18.63 92.61,18.49 92.46,18.46 92.15,18.42 91.81,18.55 91.5,18.67 90.86,18.92 90.26,19.25 89.66,19.58 88.46,20.24 87.29,20.97 86.14,21.71 83.84,23.18 81.71,24.97 80.24,27.25 78.74,29.51 78.07,32.22 78.04,34.92 77.99,37.62 78.49,40.32 79.19,42.95 79.54,44.27 79.96,45.55 80.4,46.86 80.83,48.19 81.19,49.52 81.49,50.88 82.1,53.59 82.4,56.37 82.4,59.15 82.37,61.93 82.07,64.72 81.31,67.4 80.92,68.74 80.44,70.05 79.78,71.28 79.1,72.49 78.26,73.66 77.11,74.46 L 77.05,74.38 C 78.11,73.51 78.82,72.31 79.38,71.08 79.94,69.85 80.35,68.55 80.65,67.23 81.25,64.59 81.49,61.87 81.42,59.16 81.38,56.45 81.08,53.74 80.55,51.08 80.28,49.75 79.95,48.43 79.56,47.13 79.16,45.82 78.75,44.49 78.43,43.14 77.77,40.46 77.3,37.69 77.4,34.9 77.48,32.12 78.24,29.3 79.83,26.98 81.41,24.66 83.63,22.89 85.98,21.46 87.16,20.75 88.34,20.05 89.56,19.41 90.17,19.09 90.79,18.78 91.44,18.53 91.77,18.43 92.1,18.29 92.48,18.35 92.7,18.38 92.8,18.63 92.79,18.8 92.81,18.96 92.77,19.17 92.89,19.23 L 92.83,19.32 Z M 92.83,19.32" />
            <path id="sue03Canvas-bezier14" stroke="none" fill="rgb(51, 91, 113)" d="M 94.58,15.62 C 93.74,12.92 92.79,10.24 91.65,7.66 91.07,6.37 90.44,5.1 89.67,3.93 89.28,3.35 88.86,2.79 88.35,2.35 88.09,2.13 87.81,1.96 87.52,1.88 87.24,1.8 86.92,1.88 86.6,1.98 85.32,2.41 84.17,3.28 83.1,4.17 82.04,5.08 81.05,6.08 80.13,7.14 78.31,9.27 76.75,11.64 75.59,14.18 75.01,15.45 74.55,16.77 74.21,18.12 73.85,19.47 73.75,20.82 73.61,22.26 73.3,25.1 72.76,27.92 71.99,30.67 71.17,33.41 70.18,36.14 68.63,38.58 67.84,39.79 66.91,40.94 65.71,41.79 64.52,42.63 62.97,43.02 61.57,42.68 L 61.58,42.59 C 62.99,42.8 64.39,42.31 65.45,41.43 66.53,40.57 67.35,39.43 68.04,38.23 69.42,35.8 70.34,33.13 71.05,30.42 71.77,27.7 72.29,24.93 72.65,22.15 72.82,20.78 72.96,19.29 73.37,17.9 73.74,16.5 74.26,15.15 74.88,13.85 76.12,11.26 77.76,8.87 79.66,6.73 80.61,5.66 81.63,4.65 82.74,3.74 83.86,2.84 85.03,1.97 86.46,1.51 86.81,1.41 87.22,1.32 87.64,1.43 88.03,1.55 88.36,1.77 88.64,2.02 89.19,2.52 89.62,3.11 90,3.72 90.76,4.93 91.36,6.23 91.92,7.54 93.01,10.17 93.9,12.86 94.68,15.59 L 94.58,15.62 Z M 94.58,15.62" />
            <path id="sue03Canvas-bezier15" stroke="none" fill="rgb(51, 91, 113)" d="M 72.23,40.21 C 71.11,43.13 69.87,46 68.39,48.78 67.64,50.16 66.83,51.52 65.83,52.76 65.32,53.38 64.77,53.98 64.03,54.43 63.37,54.75 63.06,55.33 62.9,56.04 62.63,57.46 62.89,59.02 63.16,60.52 63.45,62.04 63.8,63.56 64.12,65.08 64.72,68.14 65.39,71.26 65.3,74.41 L 65.2,74.42 C 64.73,71.33 63.94,68.33 63.17,65.3 62.8,63.78 62.45,62.25 62.21,60.69 62,59.12 61.77,57.52 62.14,55.86 62.24,55.45 62.4,55.03 62.67,54.66 62.79,54.48 62.95,54.31 63.13,54.16 63.21,54.09 63.33,54.02 63.42,53.96 L 63.68,53.81 C 64.3,53.47 64.85,52.93 65.34,52.35 66.34,51.19 67.18,49.88 67.97,48.54 69.54,45.86 70.91,43.04 72.14,40.17 L 72.23,40.21 Z M 72.23,40.21" />
            <path id="sue03Canvas-bezier16" stroke="none" fill="rgb(51, 91, 113)" d="M 72.91,53.92 C 72.04,56.92 71.39,59.98 71.01,63.06 70.63,66.14 70.46,69.29 71.12,72.27 71.29,73.01 71.52,73.73 71.84,74.41 72,74.74 72.18,75.06 72.38,75.37 72.58,75.66 72.83,76 73.04,76.37 73.46,77.08 73.77,77.88 73.92,78.71 74.06,79.54 74.04,80.39 73.9,81.21 73.57,82.84 72.8,84.31 71.83,85.58 70.85,86.84 69.71,87.96 68.41,88.85 L 68.35,88.78 C 69.45,87.68 70.45,86.48 71.27,85.19 72.08,83.9 72.74,82.5 72.93,81.05 73.16,79.6 72.9,78.12 72.2,76.84 72.03,76.52 71.83,76.23 71.6,75.86 71.38,75.51 71.2,75.14 71.04,74.76 70.72,74.01 70.5,73.22 70.35,72.44 69.76,69.27 70.04,66.09 70.52,63 71.05,59.9 71.82,56.86 72.82,53.89 L 72.91,53.92 Z M 72.91,53.92" />
            <path id="sue03Canvas-bezier17" stroke="none" fill="rgb(51, 91, 113)" d="M 90.67,1.03 C 93.72,-0.06 97.09,-0.29 100.3,0.36 101.91,0.7 103.46,1.27 104.91,2.06 106.35,2.86 107.67,3.85 108.88,4.96 111.3,7.17 113.34,9.81 114.81,12.74 115.52,14.22 116.15,15.73 116.59,17.31 117.01,18.89 117.33,20.53 117.12,22.17 L 117.02,22.16 C 116.95,20.56 116.48,19.01 115.94,17.52 115.38,16.03 114.73,14.58 113.94,13.19 112.41,10.42 110.62,7.75 108.34,5.52 107.21,4.42 105.96,3.42 104.59,2.61 103.23,1.81 101.74,1.21 100.19,0.84 97.1,0.08 93.77,0.17 90.7,1.12 L 90.67,1.03 Z M 90.67,1.03" />
            <path id="sue03Canvas-bezier18" stroke="none" fill="rgb(51, 91, 113)" d="M 98.52,18.39 C 98.45,17.43 98.54,16.45 98.91,15.54 99.26,14.62 100.06,13.84 101.05,13.62 102.04,13.38 103.05,13.56 103.98,13.81 104.92,14.06 105.83,14.4 106.72,14.8 108.48,15.61 110.14,16.64 111.64,17.88 113.13,19.12 114.49,20.58 115.43,22.33 116.39,24.06 116.84,26.17 116.44,28.17 116.1,30.04 115.8,31.92 115.58,33.81 115.33,35.69 115.19,37.58 115.24,39.47 115.27,40.41 115.36,41.35 115.61,42.25 115.84,43.13 116.26,44.03 117.1,44.49 L 117.06,44.58 C 116.1,44.24 115.53,43.28 115.18,42.38 114.84,41.45 114.67,40.48 114.56,39.51 114.36,37.57 114.46,35.63 114.61,33.7 114.79,31.78 115.09,29.87 115.49,27.98 115.91,26.21 115.57,24.34 114.74,22.69 113.9,21.04 112.64,19.6 111.23,18.36 109.8,17.12 108.2,16.07 106.5,15.24 105.65,14.82 104.78,14.45 103.87,14.18 102.97,13.91 102.03,13.72 101.12,13.91 100.21,14.08 99.45,14.75 99.09,15.61 98.71,16.47 98.58,17.44 98.62,18.38 L 98.52,18.39 Z M 98.52,18.39" />
            <path id="sue03Canvas-bezier19" stroke="none" fill="rgb(51, 91, 113)" d="M 106.77,48.73 C 106.5,49.47 106.25,50.2 106.02,50.92 105.91,51.29 105.89,51.68 105.69,52.01 105.51,52.34 105.3,52.66 104.95,52.97 L 104.85,52.95 C 104.69,52.5 104.7,52.08 104.77,51.68 104.84,51.28 105.11,50.95 105.3,50.61 105.7,49.92 106.17,49.27 106.69,48.68 L 106.77,48.73 Z M 106.77,48.73" />
            <path id="sue03Canvas-bezier20" stroke="none" fill="rgb(51, 91, 113)" d="M 111.99,36.58 C 112.32,38.39 112.41,40.28 111.89,42.14 111.75,42.61 111.58,43.07 111.34,43.51 111.09,43.96 110.73,44.34 110.41,44.64 109.75,45.25 109.1,45.87 108.33,46.43 L 108.25,46.37 C 108.59,45.48 109.12,44.7 109.7,43.97 110,43.59 110.29,43.32 110.52,42.99 110.78,42.66 110.98,42.29 111.15,41.89 111.48,41.08 111.67,40.2 111.77,39.31 111.89,38.42 111.93,37.51 111.89,36.6 L 111.99,36.58 Z M 111.99,36.58" />
            <path id="sue03Canvas-bezier21" stroke="none" fill="rgb(51, 91, 113)" d="M 104.92,49.54 C 104.09,50 103.15,50.17 102.22,50.25 101.28,50.32 100.33,50.26 99.4,50.12 97.55,49.82 95.75,49.19 94.05,48.42 L 94.57,47.91 C 94.99,48.7 95.53,49.47 96.13,50.14 96.74,50.82 97.39,51.44 98.13,51.95 98.85,52.47 99.66,52.85 100.54,53.06 101.29,53.42 102,52.56 102.47,51.78 L 102.56,51.82 C 102.45,52.29 102.25,52.74 101.93,53.16 101.76,53.36 101.55,53.55 101.28,53.66 101.13,53.72 100.99,53.75 100.82,53.76 100.66,53.76 100.56,53.75 100.43,53.74 99.42,53.66 98.44,53.3 97.59,52.77 96.73,52.23 96,51.53 95.39,50.75 94.79,49.97 94.28,49.15 93.87,48.23 L 93.41,47.21 94.39,47.72 C 96.01,48.56 97.71,49.26 99.49,49.65 100.38,49.84 101.29,49.97 102.2,49.96 103.11,49.95 104.05,49.84 104.87,49.45 L 104.92,49.54 Z M 104.92,49.54" />
            <path id="sue03Canvas-bezier22" stroke="none" fill="rgb(51, 91, 113)" d="M 96.38,52.95 C 96.84,53.96 97.77,54.65 98.76,54.83 99.26,54.93 99.77,54.83 100.29,54.88 100.81,54.91 101.35,54.91 101.96,55.02 L 101.99,55.11 C 101.52,55.52 100.95,55.75 100.35,55.85 99.75,55.96 99.12,55.8 98.54,55.58 97.96,55.36 97.43,55.01 97.03,54.55 96.65,54.08 96.39,53.54 96.28,52.97 L 96.38,52.95 Z M 96.38,52.95" />
            <path id="sue03Canvas-bezier23" stroke="none" fill="rgb(51, 91, 113)" d="M 81.62,35.63 C 82.19,38.91 82.99,42.15 84.05,45.29 85.12,48.41 86.41,51.55 88.55,54 89.09,54.59 89.7,55.12 90.37,55.52 L 92.55,56.71 94.74,57.89 C 95.46,58.27 96.19,58.66 96.9,58.82 97.59,59 98.48,58.96 99.27,58.98 99.95,58.97 100.62,58.53 101.19,57.99 101.76,57.45 102.24,56.78 102.67,56.08 103.12,55.39 103.49,54.65 103.84,53.89 L 103.93,53.92 C 103.48,55.54 102.82,57.12 101.68,58.46 101.12,59.12 100.33,59.73 99.32,59.82 98.45,59.84 97.65,59.94 96.7,59.78 94.89,59.3 93.54,58.36 92.07,57.55 L 89.91,56.26 C 89.16,55.78 88.52,55.17 87.96,54.51 85.77,51.84 84.58,48.62 83.58,45.44 82.64,42.23 81.96,38.95 81.52,35.65 L 81.62,35.63 Z M 81.62,35.63" />
            <path id="sue03Canvas-bezier24" stroke="none" fill="rgb(51, 91, 113)" d="M 112.95,32.76 C 111.72,33.79 110.31,34.64 108.75,35.14 107.98,35.34 107.25,35.64 106.94,36.23 106.63,36.82 106.73,37.61 106.85,38.37 107.09,39.94 107.58,41.45 107.74,43.08 107.82,43.89 107.88,44.72 107.76,45.56 107.7,45.98 107.61,46.4 107.41,46.8 107.21,47.19 106.83,47.54 106.39,47.57 L 106.37,47.48 C 106.72,47.3 106.92,46.99 107,46.63 107.09,46.28 107.1,45.9 107.08,45.52 107.04,44.76 106.92,43.99 106.78,43.22 106.5,41.69 106.21,40.09 106.07,38.47 106.01,37.68 105.9,36.76 106.39,35.92 106.91,35.08 107.87,34.83 108.62,34.67 110.14,34.32 111.6,33.6 112.89,32.68 L 112.95,32.76 Z M 112.95,32.76" />
            <path id="sue03Canvas-bezier25" stroke="none" fill="rgb(51, 91, 113)" d="M 101,46.45 C 100.72,46.4 100.39,46.41 100.07,46.3 99.75,46.19 99.43,45.97 99.21,45.64 99,45.32 98.83,44.93 98.92,44.58 98.99,44.23 99.17,43.92 99.51,43.71 L 99.61,43.73 C 99.78,44.09 99.84,44.37 99.89,44.62 99.95,44.86 99.86,45.08 99.91,45.29 99.96,45.51 100.09,45.71 100.3,45.87 100.5,46.07 100.77,46.18 101.04,46.36 L 101,46.45 Z M 101,46.45" />
            <path id="sue03Canvas-bezier26" stroke="none" fill="rgb(51, 91, 113)" d="M 102.35,34.11 C 101.66,33.48 100.84,33 99.99,32.67 99.14,32.33 98.25,32.18 97.34,32.22 96.41,32.22 95.47,32.34 94.54,32.28 93.6,32.22 92.66,32.19 91.7,31.89 L 91.71,31.79 C 92.63,31.55 93.58,31.37 94.52,31.31 95.47,31.22 96.42,31.35 97.37,31.43 98.34,31.5 99.34,31.77 100.2,32.23 101.05,32.7 101.81,33.31 102.42,34.04 L 102.35,34.11 Z M 102.35,34.11" />
            <path id="sue03Canvas-bezier27" stroke="none" fill="rgb(51, 91, 113)" d="M 94.26,35.4 C 94.66,35.71 95.16,35.89 95.65,36.01 96.13,36.15 96.63,36.22 97.13,36.24 97.64,36.27 98.14,36.16 98.64,36.23 99.14,36.29 99.65,36.35 100.2,36.54 L 100.22,36.64 C 99.73,36.98 99.2,37.13 98.65,37.21 98.11,37.29 97.56,37.13 97.02,37.01 95.96,36.77 94.89,36.32 94.19,35.47 L 94.26,35.4 Z M 94.26,35.4" />
            <path id="sue03Canvas-bezier28" stroke="none" fill="rgb(51, 91, 113)" d="M 107.82,37.09 C 108.39,36.99 108.95,36.9 109.5,36.83 109.77,36.8 110.04,36.67 110.31,36.73 110.58,36.79 110.83,36.88 111.14,37.09 L 111.17,37.18 C 110.94,37.51 110.62,37.63 110.34,37.71 110.05,37.79 109.76,37.66 109.48,37.61 108.91,37.51 108.36,37.37 107.82,37.18 L 107.82,37.09 Z M 107.82,37.09" />
            <path id="sue03Canvas-bezier29" stroke="none" fill="rgb(51, 91, 113)" d="M 82.55,29.13 C 82.18,28.88 81.76,28.66 81.42,28.62 81.23,28.6 81.13,28.72 81.03,28.68 80.91,28.64 80.73,28.63 80.38,28.61 L 80.31,28.55 C 80.26,28.2 80.44,27.89 80.77,27.74 81.1,27.57 81.47,27.75 81.7,27.89 82.2,28.2 82.45,28.63 82.63,29.07 L 82.55,29.13 Z M 82.55,29.13" />
            <path id="sue03Canvas-bezier30" stroke="none" fill="rgb(51, 91, 113)" d="M 80.3,33.63 C 79.9,33.24 79.54,32.8 79.33,32.2 79.23,31.92 79.08,31.53 79.31,31.15 79.52,30.78 79.98,30.6 80.33,30.77 L 80.36,30.86 C 80.2,31.22 80.2,31.39 80.21,31.53 80.24,31.65 80.1,31.82 80.1,32.06 80.1,32.52 80.23,33.06 80.39,33.58 L 80.3,33.63 Z M 80.3,33.63" />
            <path id="sue03Canvas-bezier31" stroke="none" fill="rgb(51, 91, 113)" d="M 113.83,57.39 C 116.13,59.2 118.27,61.24 120.01,63.61 120.88,64.8 121.63,66.08 122.19,67.45 122.74,68.84 123.08,70.25 123.58,71.62 125.47,77.12 127.71,82.56 130.82,87.46 131.61,88.66 132.46,89.83 133.45,90.85 133.95,91.36 134.47,91.82 135.05,92.19 135.32,92.37 135.66,92.53 136,92.78 136.32,93.01 136.62,93.25 136.89,93.51 139.08,95.63 140.64,98.15 142.15,100.67 143.6,103.23 144.94,105.84 146.14,108.51 147.33,111.19 148.48,113.9 149.22,116.75 L 149.13,116.77 C 148.67,115.39 148.06,114.06 147.44,112.74 146.83,111.42 146.19,110.1 145.53,108.81 144.2,106.21 142.83,103.64 141.31,101.17 140.56,99.93 139.78,98.7 138.94,97.53 138.11,96.35 137.24,95.19 136.23,94.22 135.98,93.97 135.72,93.75 135.45,93.54 135.2,93.35 134.88,93.19 134.54,92.96 133.89,92.53 133.33,92 132.82,91.46 131.79,90.35 130.94,89.13 130.16,87.88 128.59,85.37 127.32,82.72 126.16,80.02 125.01,77.32 124,74.57 123.11,71.78 122.65,70.39 122.32,68.94 121.83,67.6 121.31,66.25 120.6,64.98 119.77,63.79 118.11,61.4 116.02,59.33 113.77,57.47 L 113.83,57.39 Z M 113.83,57.39" />
            <path id="sue03Canvas-bezier32" stroke="none" fill="rgb(51, 91, 113)" d="M 146.14,117.33 C 146.98,117.83 147.87,118.23 148.79,118.55 149.26,118.72 149.7,118.82 150.2,118.97 150.75,119.19 151.08,119.62 151.37,120.04 152.44,121.78 152.97,123.69 153.67,125.51 154.02,126.41 154.39,127.32 154.84,128.14 155.05,128.55 155.3,128.94 155.58,129.26 155.73,129.42 155.9,129.61 156.07,129.83 156.23,130.04 156.39,130.25 156.53,130.46 157.07,131.34 157.47,132.28 157.73,133.26 157.86,133.74 157.96,134.24 158.03,134.73 158.05,134.99 158.07,135.24 158.07,135.49 158.04,135.74 158.11,136.01 157.87,136.26 L 157.82,136.17 C 157.89,136.03 157.83,135.74 157.79,135.52 157.74,135.29 157.67,135.05 157.59,134.83 157.45,134.37 157.28,133.92 157.09,133.48 156.7,132.61 156.26,131.76 155.71,131.01 155.44,130.6 155.19,130.3 154.82,129.92 154.45,129.5 154.2,129.04 153.97,128.58 153.54,127.65 153.23,126.7 152.94,125.76 152.32,123.9 151.87,121.96 150.96,120.3 150.73,119.9 150.43,119.51 150.06,119.33 149.64,119.18 149.13,119.02 148.69,118.83 147.77,118.44 146.9,117.98 146.09,117.41 L 146.14,117.33 Z M 146.14,117.33" />
            <path id="sue03Canvas-bezier33" stroke="none" fill="rgb(51, 91, 113)" d="M 156.18,134.72 C 155.27,133.96 154,133.71 152.91,134.01 151.82,134.28 150.81,135 150.06,135.82 149.29,136.66 148.86,137.72 148.61,138.77 148.39,139.81 148.36,141.01 149.2,141.88 L 149.15,141.96 C 148.54,141.76 148.07,141.18 147.85,140.56 147.61,139.93 147.57,139.26 147.65,138.6 147.8,137.28 148.59,136.14 149.5,135.27 150.45,134.41 151.54,133.76 152.82,133.53 154.08,133.33 155.4,133.76 156.25,134.65 L 156.18,134.72 Z M 156.18,134.72" />
            <path id="sue03Canvas-bezier34" stroke="none" fill="rgb(51, 91, 113)" d="M 148.01,142.64 C 147.76,141.73 147.27,140.89 146.8,140.07 146.31,139.25 145.78,138.46 145.23,137.68 144.13,136.12 142.93,134.63 141.65,133.22 139.09,130.38 136.4,127.65 133.8,124.84 132.49,123.43 131.19,122.02 129.97,120.52 129.36,119.76 128.77,118.99 128.26,118.13 128.01,117.72 127.76,117.19 127.62,116.75 127.47,116.32 127.27,115.94 127.03,115.55 126.11,113.97 124.72,112.6 123.62,110.99 123.06,110.19 122.56,109.34 122.23,108.41 121.91,107.48 121.78,106.48 121.89,105.52 L 121.98,105.52 C 122.03,107.45 122.97,109.15 124.16,110.59 125.34,112.06 126.75,113.36 127.87,115.04 128.13,115.45 128.38,115.93 128.56,116.4 128.72,116.86 128.89,117.21 129.13,117.62 129.6,118.4 130.15,119.17 130.73,119.92 131.88,121.42 133.12,122.88 134.38,124.31 136.9,127.18 139.52,129.98 142.02,132.9 143.26,134.36 144.42,135.91 145.47,137.51 146,138.31 146.51,139.13 146.97,139.97 147.42,140.82 147.88,141.67 148.11,142.62 L 148.01,142.64 Z M 148.01,142.64" />
            <path id="sue03Canvas-bezier35" stroke="none" fill="rgb(51, 91, 113)" d="M 120.88,104.3 C 118.15,101.05 115.57,97.68 113.2,94.15 112.02,92.38 110.83,90.6 109.92,88.65 109.49,87.67 109.07,86.68 108.77,85.64 108.49,84.6 108.26,83.51 108.42,82.43 L 108.52,82.43 C 108.64,83.48 109.01,84.46 109.42,85.41 109.83,86.36 110.29,87.3 110.8,88.22 111.79,90.06 112.77,91.92 113.86,93.72 114.95,95.53 116.11,97.3 117.3,99.05 118.48,100.8 119.69,102.54 120.95,104.24 L 120.88,104.3 Z M 120.88,104.3" />
            <path id="sue03Canvas-bezier36" stroke="none" fill="rgb(51, 91, 113)" d="M 111.17,46.36 C 112.82,46.81 114.35,48.15 114.68,49.96 115.04,51.76 114.35,53.55 113.7,55.08 113.13,56.65 112.75,58.31 112.74,59.88 112.74,60.66 112.9,61.47 113.41,61.88 113.92,62.32 114.84,62.1 115.58,61.71 L 115.64,61.79 C 115.33,62.1 114.96,62.36 114.52,62.53 114.09,62.7 113.53,62.72 113.05,62.46 112.56,62.21 112.27,61.75 112.08,61.31 111.89,60.85 111.8,60.39 111.76,59.93 111.65,58.07 112.29,56.37 112.98,54.78 113.34,53.98 113.73,53.25 113.96,52.46 114.19,51.67 114.31,50.85 114.2,50.04 114.04,48.41 112.73,47.02 111.14,46.45 L 111.17,46.36 Z M 111.17,46.36" />
            <path id="sue03Canvas-bezier37" stroke="none" fill="rgb(51, 91, 113)" d="M 108.52,50.22 C 109.41,52.7 109.78,55.36 109.65,58 109.5,60.64 108.74,63.29 107.38,65.59 106.12,67.82 105.52,70.37 105.83,72.83 105.96,74.07 106.36,75.28 106.97,76.38 107.58,77.48 108.4,78.51 109.49,79.23 L 109.44,79.32 C 108.19,78.83 107.17,77.85 106.39,76.74 105.61,75.63 105.11,74.32 104.86,72.97 104.38,70.23 105.3,67.45 106.7,65.2 108.1,63.03 108.92,60.54 109.16,57.96 109.42,55.4 109.19,52.75 108.43,50.26 L 108.52,50.22 Z M 108.52,50.22" />
            <path id="sue03Canvas-bezier38" stroke="none" fill="rgb(51, 91, 113)" d="M 101.06,60.09 C 102.81,61.95 103.74,64.75 102.98,67.33 102.8,67.97 102.52,68.58 102.2,69.15 101.9,69.7 101.64,70.26 101.4,70.85 100.93,72.02 100.56,73.23 100.26,74.46 99.68,76.92 99.4,79.44 99.25,81.95 99.17,83.2 99.18,84.46 99.3,85.71 99.42,86.95 99.65,88.2 100.25,89.33 L 100.17,89.39 C 99.32,88.38 98.89,87.08 98.62,85.81 98.36,84.53 98.29,83.22 98.28,81.92 98.3,79.31 98.81,76.75 99.51,74.26 99.86,73.02 100.28,71.79 100.82,70.6 101.08,70.01 101.38,69.42 101.72,68.87 102.05,68.33 102.32,67.78 102.51,67.19 103.35,64.83 102.62,62.09 100.99,60.16 L 101.06,60.09 Z M 101.06,60.09" />
            <path id="sue03Canvas-bezier39" stroke="none" fill="rgb(51, 91, 113)" d="M 91.23,57.93 C 90.92,58.05 90.63,58.24 90.37,58.44 90.1,58.63 89.85,58.84 89.61,59.07 89.37,59.29 89.2,59.59 88.91,59.75 88.63,59.92 88.33,60.08 87.9,60.15 L 87.83,60.09 C 87.85,59.65 88.03,59.32 88.26,59.03 88.48,58.74 88.84,58.6 89.16,58.43 89.8,58.09 90.49,57.84 91.22,57.83 L 91.23,57.93 Z M 91.23,57.93" />
            <path id="sue03Canvas-bezier40" stroke="none" fill="rgb(51, 91, 113)" d="M 83.19,60.08 C 84.29,60.44 85.41,60.78 86.53,61.09 87.64,61.43 88.76,61.74 89.88,62 90.44,62.12 91,62.23 91.56,62.29 91.83,62.34 92.11,62.36 92.37,62.37 92.49,62.38 92.62,62.37 92.71,62.36 92.88,62.35 92.94,62.34 93.06,62.31 93.97,62.11 94.68,61.17 95.16,60.11 L 95.25,60.13 C 95.27,60.73 95.15,61.35 94.84,61.92 94.55,62.48 94.02,63 93.35,63.24 93.2,63.3 92.97,63.34 92.85,63.36 92.65,63.39 92.48,63.39 92.32,63.38 91.99,63.36 91.69,63.31 91.39,63.24 90.8,63.1 90.23,62.93 89.67,62.75 87.43,62.03 85.28,61.13 83.15,60.16 L 83.19,60.08 Z M 83.19,60.08" />
            <path id="sue03Canvas-bezier41" stroke="none" fill="rgb(51, 91, 113)" d="M 103.1,81.22 C 102.83,83.22 102.6,85.22 102.41,87.23 102.26,89.23 102.01,91.26 102.27,93.23 102.71,97.23 102.52,101.54 100.46,105.22 99.95,106.12 99.33,106.98 98.6,107.73 97.88,108.5 96.98,109.1 96.31,109.75 94.89,111.09 93.74,112.7 92.86,114.47 91.02,117.98 90.41,122.03 89.24,125.9 L 89.14,125.88 C 89.77,121.91 90.22,117.82 91.98,114.04 92.87,112.17 94.09,110.43 95.66,109.04 96.47,108.31 97.29,107.81 97.97,107.11 98.67,106.44 99.28,105.66 99.78,104.83 101.81,101.42 102.13,97.24 101.78,93.28 101.66,92.26 101.73,91.22 101.8,90.22 101.88,89.21 102,88.2 102.12,87.2 102.37,85.19 102.67,83.2 103,81.2 L 103.1,81.22 Z M 103.1,81.22" />
            <path id="sue03Canvas-bezier42" stroke="none" fill="rgb(51, 91, 113)" d="M 86.62,126.84 C 85.67,127.41 84.79,128.13 83.86,128.77 82.93,129.41 81.98,130.02 80.98,130.58 79.99,131.14 78.97,131.72 77.82,131.97 76.69,132.22 75.37,132.29 74.35,131.64 L 74.38,131.55 C 75.51,131.65 76.53,131.37 77.55,131.03 78.56,130.67 79.62,130.35 80.63,129.89 81.64,129.43 82.63,128.91 83.61,128.36 84.6,127.83 85.55,127.22 86.58,126.75 L 86.62,126.84 Z M 86.62,126.84" />
            <path id="sue03Canvas-bezier43" stroke="none" fill="rgb(51, 91, 113)" d="M 87.9,128.53 C 86.76,130.41 86.05,132.64 86.32,134.79 86.45,135.87 86.85,136.87 87.49,137.75 88.14,138.73 88.54,139.81 88.87,140.89 89.52,143.07 89.91,145.31 90.01,147.56 90.06,149.81 90.09,152.06 89.59,154.29 L 89.5,154.27 C 89.43,152.05 89.26,149.83 89.04,147.63 88.81,145.44 88.65,143.23 88.12,141.1 87.85,140.05 87.5,139 86.95,138.09 86.33,137.14 85.91,135.99 85.83,134.84 85.69,132.52 86.56,130.31 87.82,128.47 L 87.9,128.53 Z M 87.9,128.53" />
            <path id="sue03Canvas-bezier44" stroke="none" fill="rgb(51, 91, 113)" d="M 31.39,153.77 C 31.2,153.92 31.01,154.1 30.87,154.3 30.73,154.49 30.63,154.74 30.73,154.94 30.97,155.32 31.54,155.41 32.01,155.48 33.01,155.61 34.03,155.56 35.03,155.5 37.05,155.36 39.06,155.08 41.07,154.76 L 53.09,152.79 C 57.1,152.13 61.11,151.41 65.16,150.99 67.19,150.8 69.22,150.61 71.27,150.56 73.3,150.54 75.39,150.48 77.36,151.11 L 77.34,151.2 C 76.35,151.01 75.33,151 74.33,151.04 73.32,151.07 72.31,151.14 71.31,151.24 69.29,151.43 67.28,151.67 65.28,151.96 L 53.21,153.56 41.13,155.24 C 39.11,155.5 37.09,155.72 35.05,155.79 34.03,155.82 33,155.83 31.98,155.68 31.5,155.57 30.91,155.51 30.59,155 30.47,154.71 30.62,154.42 30.77,154.23 30.93,154.02 31.12,153.85 31.33,153.69 L 31.39,153.77 Z M 31.39,153.77" />
            <path id="sue03Canvas-bezier45" stroke="none" fill="rgb(51, 91, 113)" d="M 78.37,151.34 L 82.86,151.19 83.08,151.18 83.06,151.41 82.7,156.62 82.67,156.95 82.32,156.93 77.41,156.62 C 75.77,156.52 74.15,156.31 72.52,156.06 L 72.06,155.99 72.19,155.59 C 72.54,154.51 72.9,153.43 73.33,152.37 L 73.42,152.4 C 73.31,153.54 73.12,154.66 72.93,155.78 L 72.59,155.31 C 74.23,155.36 75.87,155.45 77.5,155.65 L 82.38,156.24 82.01,156.55 82.66,151.37 82.86,151.59 78.37,151.44 78.37,151.34 Z M 78.37,151.34" />
            <path id="sue03Canvas-bezier46" stroke="none" fill="rgb(51, 91, 113)" d="M 70.92,155.01 C 68.09,154.91 65.27,154.9 62.45,154.95 61.04,154.98 59.63,155.11 58.23,155.1 56.82,155.09 55.42,155.08 53.99,155 L 53.98,154.91 C 55.35,154.45 56.77,154.25 58.19,154.12 59.61,154 61.04,154.1 62.46,154.16 65.29,154.29 68.12,154.53 70.93,154.91 L 70.92,155.01 Z M 70.92,155.01" />
            <path id="sue03Canvas-bezier47" stroke="none" fill="rgb(51, 91, 113)" d="M 83.65,156.1 L 85.93,155.93 87.07,155.83 C 87.44,155.8 87.85,155.76 88.15,155.7 L 87.91,155.97 88.04,154.04 C 88.09,153.4 88.11,152.75 88.18,152.11 L 88.91,152.62 C 88.64,152.74 88.6,152.71 88.48,152.74 L 88.19,152.77 C 88.01,152.79 87.82,152.79 87.64,152.79 87.27,152.79 86.91,152.78 86.55,152.75 85.83,152.7 85.11,152.61 84.39,152.43 L 84.39,152.34 C 85.1,152.15 85.82,152.03 86.53,151.94 L 87.59,151.81 88.11,151.76 88.35,151.73 C 88.41,151.73 88.55,151.69 88.44,151.74 L 89.34,151.33 89.17,152.25 88.83,154.14 88.52,156.03 88.48,156.28 88.28,156.3 C 87.84,156.35 87.48,156.34 87.09,156.34 86.7,156.34 86.32,156.32 85.94,156.31 L 83.65,156.2 83.65,156.1 83.65,156.1 Z M 83.65,156.1" />
            <path id="sue03Canvas-bezier48" stroke="none" fill="rgb(51, 91, 113)" d="M 27.61,154.01 C 26.15,158.27 25.25,162.73 24.83,167.21 24.42,171.69 24.56,176.24 25.53,180.63 27.73,189.39 29.09,198.38 29.89,207.39 30.07,209.65 30.24,211.91 30.22,214.2 30.2,214.78 30.2,215.34 30.07,215.98 29.95,216.39 30.04,216.95 30.11,217.49 30.27,218.58 30.5,219.69 30.73,220.79 31.66,225.2 32.67,229.62 33.38,234.1 33.72,236.34 33.98,238.6 34.1,240.88 34.21,243.15 34.22,245.46 33.72,247.72 33.47,248.86 33.05,249.92 32.67,250.98 32.28,252.05 31.87,253.1 31.44,254.15 31.22,254.67 31,255.19 30.81,255.71 30.62,256.23 30.42,256.77 30.5,257.28 30.58,257.79 31.04,258.17 31.49,258.5 31.94,258.82 32.42,259.12 32.9,259.43 L 32.85,259.51 C 32.35,259.23 31.86,258.96 31.38,258.65 30.92,258.34 30.38,257.97 30.23,257.34 30.11,256.71 30.31,256.14 30.46,255.6 30.64,255.05 30.83,254.52 31.02,253.99 31.41,252.93 31.79,251.87 32.14,250.8 32.47,249.72 32.86,248.66 33.05,247.58 33.44,245.41 33.41,243.16 33.26,240.93 33.09,238.69 32.79,236.47 32.41,234.25 31.71,229.81 30.71,225.41 29.78,220.98 29.56,219.87 29.34,218.76 29.19,217.62 29.14,217.05 29.01,216.45 29.2,215.77 29.3,215.3 29.32,214.72 29.34,214.18 29.39,211.95 29.26,209.7 29.1,207.45 28.41,198.47 27.15,189.51 25.05,180.73 24.13,176.27 24.06,171.68 24.53,167.18 25.02,162.68 25.99,158.23 27.52,153.97 L 27.61,154.01 Z M 27.61,154.01" />
            <path id="sue03Canvas-bezier49" stroke="none" fill="rgb(51, 91, 113)" d="M 31.69,260.92 C 31.41,261.61 31.15,262.32 30.96,263.04 30.86,263.39 30.77,263.75 30.75,264.08 30.74,264.24 30.76,264.41 30.8,264.45 30.81,264.46 30.81,264.46 30.81,264.45 30.8,264.45 30.8,264.44 30.8,264.44 L 30.8,264.44 30.8,264.44 30.84,264.46 30.84,264.46 30.87,264.48 C 30.89,264.47 31.05,264.61 31.08,264.67 31.14,264.74 31.17,264.81 31.2,264.88 31.38,265.4 31.34,265.78 31.36,266.17 31.36,266.55 31.34,266.91 31.31,267.26 31.26,267.96 31.21,268.58 31.67,269.21 L 31.62,269.29 C 31.22,269.2 30.84,268.88 30.65,268.48 30.44,268.09 30.37,267.66 30.33,267.26 30.3,266.86 30.35,266.47 30.39,266.1 30.46,265.75 30.51,265.35 30.47,265.15 L 30.46,265.11 C 30.43,265.1 30.54,265.16 30.46,265.11 L 30.44,265.08 30.43,265.08 C 30.45,265.09 30.39,265.06 30.46,265.1 L 30.45,265.09 30.42,265.07 C 30.38,265.04 30.33,265.01 30.3,264.98 30.23,264.9 30.18,264.82 30.15,264.74 30.04,264.43 30.09,264.21 30.12,264 30.21,263.59 30.35,263.23 30.5,262.87 30.82,262.17 31.2,261.52 31.61,260.87 L 31.69,260.92 Z M 31.69,260.92" />
            <path id="sue03Canvas-bezier50" stroke="none" fill="rgb(51, 91, 113)" d="M 30.47,270.48 C 29.53,274.84 29.05,279.3 28.84,283.75 28.66,288.2 28.8,292.67 29.36,297.08 29.65,299.29 30.04,301.48 30.54,303.65 31.06,305.81 31.58,307.99 32.07,310.17 32.55,312.35 33.01,314.54 33.41,316.74 33.61,317.84 33.79,318.95 33.94,320.06 34.01,320.62 34.08,321.18 34.12,321.75 34.15,322.03 34.16,322.31 34.17,322.6 34.16,322.92 34.2,323.13 34.1,323.56 L 33.76,323.08 44.54,322.86 49.93,322.81 C 51.75,322.83 53.5,322.78 55.39,322.97 L 54.84,323.5 C 54.37,319.74 54.04,315.96 53.76,312.19 53.46,308.42 53.28,304.64 53.08,300.86 L 52.51,289.53 C 52.3,285.76 52.12,281.99 51.8,278.22 L 51.9,278.21 C 52.87,285.71 53.41,293.27 53.92,300.81 L 54.73,312.12 C 55.01,315.88 55.34,319.64 55.8,323.38 L 55.87,323.99 55.24,323.92 C 53.55,323.74 51.71,323.75 49.93,323.71 L 44.55,323.7 C 40.95,323.7 37.36,323.74 33.77,323.8 L 33.33,323.81 33.43,323.32 C 33.45,323.21 33.47,322.86 33.46,322.61 33.46,322.35 33.44,322.07 33.42,321.8 33.39,321.25 33.33,320.7 33.26,320.15 33.13,319.05 32.96,317.95 32.77,316.85 32.4,314.66 31.96,312.48 31.49,310.29 31.03,308.11 30.53,305.94 30.03,303.76 29.54,301.58 29.18,299.36 28.92,297.14 28.41,292.69 28.32,288.2 28.57,283.73 28.83,279.27 29.38,274.82 30.37,270.46 L 30.47,270.48 Z M 30.47,270.48" />
            <path id="sue03Canvas-bezier51" stroke="none" fill="rgb(51, 91, 113)" d="M 52.3,276.34 C 52.96,275.91 53.62,275.37 53.94,274.72 54.3,274.06 53.79,273.54 53.13,273.21 52.77,273.04 52.37,272.83 52,272.55 51.83,272.4 51.64,272.22 51.5,271.97 51.35,271.72 51.29,271.34 51.39,271.03 51.6,270.43 51.99,270.19 52.31,269.93 52.64,269.68 52.97,269.49 53.29,269.22 L 53.37,269.27 C 53.27,269.7 53.03,270.08 52.8,270.41 52.58,270.74 52.34,271.07 52.34,271.26 52.25,271.47 52.87,272.14 53.52,272.54 53.88,272.79 54.25,273.08 54.48,273.54 54.73,274 54.62,274.6 54.36,274.96 53.83,275.69 53.08,276.09 52.34,276.42 L 52.3,276.34 Z M 52.3,276.34" />
            <path id="sue03Canvas-bezier52" stroke="none" fill="rgb(51, 91, 113)" d="M 54.31,267.51 C 55.23,266.7 56.17,265.74 56.49,264.63 56.55,264.36 56.56,264.09 56.45,263.88 56.41,263.77 56.32,263.67 56.24,263.58 L 55.89,263.29 C 55.29,262.6 55.4,261.82 55.49,261.17 55.72,259.85 56.17,258.65 56.7,257.52 L 57.51,255.85 C 57.64,255.57 57.76,255.29 57.85,255 57.95,254.72 58.01,254.43 57.99,254.12 L 58.08,254.09 C 58.41,254.71 58.28,255.43 58.16,256.06 58.03,256.7 57.82,257.3 57.61,257.9 57.18,259.09 56.55,260.18 56.25,261.33 56.1,261.88 56.09,262.51 56.33,262.83 L 56.67,263.17 C 56.8,263.32 56.91,263.48 56.97,263.67 57.12,264.04 57.07,264.44 56.96,264.76 56.72,265.42 56.28,265.92 55.84,266.38 55.38,266.83 54.89,267.23 54.37,267.59 L 54.31,267.51 Z M 54.31,267.51" />
            <path id="sue03Canvas-bezier53" stroke="none" fill="rgb(51, 91, 113)" d="M 58.06,251.51 C 59.52,246.23 60.59,240.85 61.57,235.46 62.54,230.07 63.35,224.65 64.05,219.22 64.74,213.78 65.25,208.33 65.83,202.89 L 67.51,186.53 67.61,186.54 C 67.57,192.03 67.23,197.51 66.8,202.98 66.35,208.45 65.62,213.89 64.83,219.32 64.03,224.75 63.12,230.17 62.05,235.55 60.95,240.92 59.74,246.28 58.16,251.54 L 58.06,251.51 Z M 58.06,251.51" />
            <path id="sue03Canvas-bezier54" stroke="none" fill="rgb(51, 91, 113)" d="M 87.9,157.39 C 88.48,159.59 88.96,161.81 89.33,164.06 89.67,166.31 89.95,168.59 89.8,170.91 89.76,171.5 89.68,172.08 89.53,172.67 89.4,173.26 89.04,173.86 88.83,174.31 88.42,175.25 88.2,176.33 88.12,177.42 87.99,178.51 88.03,179.62 88.06,180.75 L 88.12,182.45 C 88.12,182.74 88.12,183.03 88.1,183.32 88.08,183.6 88.07,183.91 87.9,184.18 L 87.81,184.13 C 87.93,183.62 87.77,183.04 87.68,182.5 L 87.39,180.81 C 87.21,179.68 87.11,178.53 87.14,177.35 87.2,176.18 87.41,174.99 87.97,173.88 88.27,173.31 88.54,172.95 88.69,172.43 88.85,171.92 88.95,171.39 89.02,170.84 89.26,168.64 89.09,166.36 88.85,164.13 88.61,161.88 88.26,159.64 87.81,157.41 L 87.9,157.39 Z M 87.9,157.39" />
            <path id="sue03Canvas-bezier55" stroke="none" fill="rgb(51, 91, 113)" d="M 88.59,185.79 C 88.55,190.99 88.26,196.18 87.83,201.36 87.38,206.54 86.76,211.71 85.96,216.85 85.17,221.99 84.23,227.13 82.89,232.16 81.52,237.19 79.93,242.17 77.81,246.92 L 77.72,246.89 C 79.31,241.94 80.75,236.97 81.94,231.92 83.15,226.89 84.29,221.83 85.19,216.72 86.08,211.62 86.8,206.47 87.34,201.31 87.9,196.16 88.32,190.98 88.49,185.79 L 88.59,185.79 Z M 88.59,185.79" />
            <path id="sue03Canvas-bezier56" stroke="none" fill="rgb(51, 91, 113)" d="M 76.89,248.88 C 76.93,250.47 76.96,252.07 77.06,253.65 L 77.08,253.94 C 77.08,254.01 77.14,254.15 77.07,254.34 76.98,254.59 76.88,254.75 76.78,254.93 76.58,255.27 76.39,255.61 76.24,255.96 75.93,256.66 75.75,257.4 75.81,258.11 75.84,258.47 75.93,258.82 76.07,259.15 76.22,259.49 76.39,259.94 76.47,260.36 76.66,261.21 76.63,262.07 76.49,262.9 76.33,263.72 76.08,264.52 75.7,265.26 75.31,265.98 74.88,266.75 74.11,267.15 L 74.06,267.07 C 74.33,266.79 74.51,266.45 74.66,266.09 74.83,265.74 74.96,265.38 75.06,265 75.28,264.26 75.44,263.51 75.52,262.76 75.61,262.01 75.62,261.25 75.52,260.53 75.47,260.16 75.38,259.86 75.24,259.45 75.11,259.03 75.03,258.59 75.03,258.15 75.01,257.27 75.28,256.42 75.66,255.69 75.86,255.32 76.08,254.97 76.3,254.64 76.4,254.47 76.52,254.3 76.57,254.17 76.59,254.17 76.58,254.11 76.57,253.98 L 76.57,253.67 C 76.6,252.06 76.7,250.47 76.79,248.88 L 76.89,248.88 Z M 76.89,248.88" />
            <path id="sue03Canvas-bezier57" stroke="none" fill="rgb(51, 91, 113)" d="M 73.42,268.46 C 73.19,268.96 73,269.5 72.89,270.04 72.79,270.58 72.75,271.19 73.06,271.62 73.2,271.84 73.47,271.93 73.71,272.09 73.97,272.26 74.17,272.47 74.35,272.71 74.69,273.19 74.85,273.79 74.8,274.38 74.77,274.97 74.5,275.55 74.18,275.99 74.02,276.45 73.99,277.06 73.95,277.6 73.88,278.72 73.85,279.85 73.84,280.98 73.81,285.49 73.9,290.01 74.04,294.52 74.19,299.03 74.37,303.55 74.7,308.05 74.78,309.17 74.87,310.29 75,311.4 75.13,312.48 75.4,313.59 75.57,314.72 75.96,316.95 76.26,319.19 76.52,321.45 L 76.59,322.08 75.96,321.99 C 72.82,321.56 69.65,321.22 66.48,320.98 64.89,320.86 63.31,320.77 61.72,320.75 60.13,320.72 58.54,320.73 56.96,320.94 L 56.94,320.85 C 60.09,320.2 63.32,320.21 66.52,320.28 68.12,320.32 69.72,320.44 71.31,320.55 72.91,320.68 74.5,320.82 76.09,321.02 L 75.54,321.56 C 75.26,319.33 74.93,317.1 74.59,314.87 74.44,313.76 74.19,312.67 74.08,311.5 73.97,310.36 73.9,309.23 73.84,308.1 73.61,303.58 73.49,299.06 73.41,294.54 73.35,290.02 73.31,285.5 73.45,280.97 73.49,279.84 73.54,278.71 73.63,277.58 73.7,277 73.7,276.47 73.94,275.85 74.28,275.39 74.51,274.91 74.56,274.36 74.61,273.83 74.48,273.27 74.18,272.82 74.03,272.6 73.83,272.4 73.62,272.25 73.4,272.1 73.1,271.99 72.92,271.72 72.57,271.2 72.65,270.56 72.76,270.02 72.88,269.46 73.08,268.92 73.33,268.41 L 73.42,268.46 Z M 73.42,268.46" />
            <path id="sue03Canvas-bezier58" stroke="none" fill="rgb(51, 91, 113)" d="M 71.99,322.42 C 71.93,326.53 72.08,330.63 72.49,334.71 72.7,336.74 72.97,338.77 73.38,340.77 73.79,342.76 74.32,344.75 75.17,346.56 75.6,347.46 76.12,348.32 76.78,349 77.13,349.35 77.47,349.61 77.91,349.87 L 79.23,350.67 C 80.99,351.73 82.73,352.82 84.47,353.92 87.91,356.16 91.37,358.38 94.72,360.78 L 94.67,360.87 C 91.02,358.94 87.49,356.84 83.95,354.75 82.2,353.68 80.45,352.6 78.72,351.49 L 77.42,350.65 C 76.98,350.38 76.51,350.01 76.15,349.61 75.4,348.79 74.88,347.85 74.45,346.89 73.61,344.95 73.13,342.92 72.75,340.89 72.39,338.85 72.16,336.8 72.01,334.75 71.72,330.64 71.7,326.52 71.9,322.42 L 71.99,322.42 Z M 71.99,322.42" />
            <path id="sue03Canvas-bezier59" stroke="none" fill="rgb(51, 91, 113)" d="M 53.53,324.76 C 54.25,328.62 55.09,332.46 56.04,336.27 56.99,340.07 58.03,343.86 59.43,347.51 60.14,349.31 60.93,351.13 62.06,352.62 63.23,354.16 64.54,355.6 65.91,356.99 68.62,359.79 71.6,362.35 74.63,364.86 L 74.57,364.94 C 71.21,362.87 68.1,360.4 65.22,357.68 63.8,356.3 62.45,354.82 61.28,353.2 60.1,351.5 59.37,349.64 58.69,347.78 57.37,344.05 56.42,340.22 55.56,336.38 54.74,332.53 54.03,328.66 53.43,324.77 L 53.53,324.76 Z M 53.53,324.76" />
            <path id="sue03Canvas-bezier60" stroke="none" fill="rgb(51, 91, 113)" d="M 76.08,364.89 C 76.09,365.29 75.85,365.62 75.58,365.86 75.31,366.1 74.98,366.27 74.65,366.41 73.98,366.68 73.27,366.82 72.56,366.91 71.14,367.09 69.71,367.08 68.29,367.01 65.44,366.85 62.61,366.37 59.86,365.61 57.11,364.82 54.38,363.86 51.95,362.23 51.65,362.02 51.36,361.8 51.07,361.56 50.78,361.32 50.52,361.01 50.3,360.81 49.8,360.35 49.24,359.93 48.69,359.49 L 47,358.2 C 46.73,357.97 46.45,357.74 46.19,357.48 46.07,357.35 45.94,357.22 45.83,357.06 45.79,356.97 45.73,356.88 45.73,356.77 45.72,356.64 45.82,356.54 45.91,356.5 L 45.96,356.59 C 45.82,356.69 45.88,356.82 46,356.94 46.11,357.06 46.24,357.17 46.38,357.27 46.66,357.47 46.96,357.65 47.26,357.83 L 49.08,358.93 C 49.69,359.3 50.28,359.71 50.85,360.18 51.17,360.43 51.38,360.66 51.65,360.85 51.91,361.05 52.2,361.24 52.49,361.42 54.84,362.84 57.42,363.99 60.08,364.86 62.75,365.7 65.52,366.27 68.32,366.52 69.72,366.66 71.13,366.73 72.53,366.62 73.23,366.56 73.93,366.46 74.58,366.23 74.91,366.11 75.22,365.96 75.49,365.74 75.75,365.54 75.98,365.23 75.98,364.9 L 76.08,364.89 Z M 76.08,364.89" />
            <path id="sue03Canvas-bezier61" stroke="none" fill="rgb(51, 91, 113)" d="M 44.65,357.88 C 44.25,359.43 43.88,360.98 43.55,362.55 43.25,364.1 42.87,365.69 42.89,367.24 42.88,367.62 43.13,367.85 43.42,368.12 43.71,368.37 44.04,368.6 44.37,368.81 45.04,369.22 45.75,369.6 46.46,369.95 47.89,370.65 49.35,371.29 50.83,371.89 L 50.46,372.11 C 50.52,371.59 50.58,371.1 50.78,370.58 50.84,370.45 50.89,370.32 51.01,370.18 51.1,370.04 51.41,369.88 51.65,369.99 52.05,370.18 52.14,370.43 52.3,370.65 52.76,371.56 53.22,372.36 53.97,372.94 55.46,374.07 57.45,374.5 59.34,374.92 63.2,375.68 67.14,376.1 71.06,376.39 73.03,376.52 75,376.63 76.95,376.61 77.93,376.59 78.9,376.56 79.85,376.44 80.32,376.37 80.79,376.29 81.22,376.15 81.64,376.01 82.02,375.79 82.07,375.54 82.37,374.61 82.51,373.73 82.26,372.84 82.02,371.95 81.51,371.11 80.97,370.31 79.83,368.72 78.54,367.21 77.22,365.75 L 77.29,365.68 C 78.72,367.04 80.17,368.4 81.41,369.99 82.01,370.78 82.61,371.62 82.94,372.64 83.31,373.66 83.14,374.82 82.86,375.77 82.78,376.11 82.51,376.42 82.27,376.58 82.02,376.75 81.76,376.87 81.51,376.96 81,377.15 80.49,377.26 79.99,377.34 78.98,377.51 77.97,377.58 76.97,377.59 74.96,377.64 72.97,377.54 70.99,377.37 67.02,377.01 63.09,376.47 59.19,375.64 58.21,375.42 57.24,375.17 56.29,374.85 55.34,374.51 54.38,374.1 53.56,373.43 52.73,372.77 52.2,371.79 51.79,370.94 51.69,370.75 51.52,370.55 51.46,370.53 51.45,370.53 51.5,370.51 51.44,370.55 51.39,370.6 51.34,370.7 51.3,370.79 51.13,371.2 51.05,371.69 50.99,372.15 L 50.95,372.51 50.63,372.38 C 49.14,371.75 47.69,371.08 46.26,370.33 45.55,369.96 44.85,369.57 44.17,369.12 43.83,368.9 43.5,368.66 43.19,368.38 43.04,368.24 42.89,368.09 42.76,367.91 42.62,367.72 42.57,367.46 42.57,367.26 42.59,365.6 43,364.06 43.34,362.5 43.71,360.94 44.12,359.39 44.56,357.86 L 44.65,357.88 Z M 44.65,357.88" />
            <path id="sue03Canvas-bezier62" stroke="none" fill="rgb(51, 91, 113)" d="M 70.85,359.66 C 73.47,360.99 76.36,361.74 79.25,362.18 82.16,362.62 85.1,362.61 88.04,362.45 90.98,362.32 93.89,362 96.8,361.5 97.16,361.44 97.53,361.38 97.91,361.34 98.1,361.33 98.3,361.31 98.5,361.32 98.69,361.31 98.99,361.38 99.11,361.42 L 101.27,361.83 C 102.73,362.11 104.18,362.43 105.61,362.88 107.02,363.36 108.48,363.86 109.68,364.99 109.97,365.29 110.23,365.64 110.39,366.07 110.52,366.46 110.61,366.84 110.65,367.26 110.69,367.67 110.65,368.12 110.5,368.55 110.35,368.97 110.08,369.35 109.76,369.64 109.12,370.22 108.37,370.53 107.63,370.76 106.89,370.99 106.15,371.15 105.4,371.25 103.9,371.46 102.41,371.52 100.92,371.53 94.98,371.46 89.1,370.73 83.29,369.74 L 83.3,369.64 C 89.18,370.08 95.06,370.66 100.91,370.55 102.37,370.53 103.83,370.45 105.26,370.25 106.65,370.04 108.15,369.75 109.11,368.92 109.57,368.52 109.78,367.97 109.73,367.33 109.71,367.02 109.64,366.67 109.54,366.37 109.45,366.1 109.28,365.84 109.05,365.6 108.12,364.66 106.72,364.1 105.37,363.63 103.99,363.17 102.57,362.83 101.14,362.52 L 98.96,362.07 C 98.36,361.86 97.62,362.05 96.89,362.13 93.98,362.58 91.01,362.86 88.06,362.94 82.18,363.2 76.08,362.49 70.8,359.75 L 70.85,359.66 Z M 70.85,359.66" />
            <path id="sue03Canvas-bezier63" stroke="none" fill="rgb(51, 91, 113)" d="M 46.7,355.93 C 46.8,353.23 46.58,350.52 46.12,347.87 45.68,345.22 44.96,342.61 43.91,340.15 43.38,338.92 42.76,337.75 42.06,336.6 41.36,335.42 40.73,334.21 40.16,332.97 39.05,330.48 38.05,327.94 37.36,325.3 L 37.45,325.27 C 38.66,327.71 39.78,330.16 41.04,332.54 41.64,333.75 42.27,334.93 42.9,336.12 43.56,337.31 44.16,338.57 44.64,339.85 45.62,342.42 46.25,345.1 46.61,347.8 46.93,350.5 47.03,353.23 46.8,355.94 L 46.7,355.93 Z M 46.7,355.93" />
            <path id="sue03Canvas-bezier64" stroke="none" fill="rgb(51, 91, 113)" d="M 156.9,135.45 C 157.44,136.56 158,137.66 158.6,138.73 159.18,139.8 159.78,140.9 160.52,141.81 160.72,142.03 160.87,142.19 161.11,142.31 161.48,142.54 161.69,142.83 161.89,143.11 162.27,143.68 162.5,144.28 162.7,144.88 163.09,146.08 163.23,147.31 163.57,148.48 L 163.48,148.53 C 163.02,148.06 162.78,147.46 162.51,146.9 162.24,146.34 162.02,145.77 161.78,145.21 161.56,144.66 161.33,144.1 161.07,143.62 160.94,143.38 160.78,143.15 160.64,143.05 160.33,142.86 160.07,142.54 159.9,142.28 159.16,141.21 158.66,140.08 158.15,138.95 157.67,137.8 157.23,136.65 156.81,135.49 L 156.9,135.45 Z M 156.9,135.45" />
            <path id="sue03Canvas-bezier65" stroke="none" fill="rgb(51, 91, 113)" d="M 166.41,154.44 C 167.84,155.64 169.23,156.87 170.41,158.35 170.69,158.72 170.97,159.11 171.15,159.58 171.25,159.81 171.25,160.11 171.29,160.28 171.34,160.49 171.42,160.71 171.49,160.92 171.82,161.78 172.22,162.61 172.62,163.44 173.44,165.1 174.32,166.73 175.23,168.34 175.69,169.14 176.16,169.94 176.64,170.72 176.89,171.11 177.13,171.5 177.39,171.88 177.52,172.06 177.66,172.25 177.78,172.39 177.93,172.54 178.11,172.74 178.26,172.93 178.57,173.31 178.85,173.71 179.07,174.17 179.18,174.4 179.28,174.65 179.33,174.94 179.38,175.21 179.39,175.61 179.12,175.94 178.85,176.27 178.48,176.35 178.2,176.38 177.78,176.42 177.53,176.27 177.28,176.16 176.81,175.91 176.43,175.61 176.06,175.31 174.59,174.06 173.36,172.65 172.17,171.21 171.01,169.77 169.88,168.2 168.9,166.68 167.84,165.18 166.48,163.91 165.45,162.31 L 165.54,162.27 C 166.1,162.97 166.83,163.58 167.49,164.23 168.16,164.88 168.82,165.54 169.43,166.26 170.07,167 170.54,167.76 171.14,168.47 171.72,169.19 172.31,169.89 172.92,170.58 174.12,171.97 175.35,173.36 176.69,174.57 177.02,174.87 177.37,175.15 177.71,175.34 177.88,175.44 178.07,175.5 178.12,175.49 178.29,175.48 178.41,175.43 178.44,175.39 178.54,175.34 178.5,174.88 178.32,174.52 178.15,174.13 177.91,173.76 177.64,173.41 177.5,173.23 177.38,173.08 177.21,172.89 177.03,172.69 176.91,172.49 176.77,172.29 176.51,171.89 176.27,171.49 176.04,171.09 175.56,170.28 175.11,169.46 174.67,168.64 173.8,167 172.96,165.34 172.18,163.65 171.8,162.8 171.42,161.94 171.12,161.05 171.05,160.82 170.98,160.6 170.93,160.36 170.88,160.07 170.9,159.9 170.82,159.69 170.68,159.28 170.43,158.89 170.17,158.52 169.08,157.05 167.72,155.75 166.35,154.52 L 166.41,154.44 Z M 166.41,154.44" />
            <path id="sue03Canvas-bezier66" stroke="none" fill="rgb(51, 91, 113)" d="M 165.54,161.03 C 165.06,161.89 164.58,162.75 164.1,163.59 163.86,164.02 163.7,164.49 163.38,164.85 163.08,165.23 162.73,165.55 162.35,165.9 L 162.25,165.88 C 162.15,165.29 162.35,164.79 162.55,164.33 162.76,163.87 163.14,163.53 163.46,163.15 164.09,162.39 164.76,161.67 165.46,160.97 L 165.54,161.03 Z M 165.54,161.03" />
            <path id="sue03Canvas-bezier67" stroke="none" fill="rgb(51, 91, 113)" d="M 161.47,163.99 C 161.52,165.21 161.61,166.44 161.75,167.66 161.83,168.26 161.9,168.89 162.11,169.43 162.36,170.04 162.36,170.67 162.42,171.28 162.49,172.52 162.49,173.76 162.4,174.99 162.31,176.23 162.18,177.47 161.73,178.68 161.61,178.98 161.46,179.28 161.22,179.55 160.99,179.83 160.55,180 160.18,179.95 159.76,179.92 159.42,179.63 159.24,179.33 159.06,179.03 158.95,178.71 158.87,178.4 158.56,177.15 158.53,175.91 158.42,174.69 158.37,174.08 158.31,173.47 158.19,172.9 158.06,172.31 157.9,171.73 157.73,171.14 157.38,169.97 157,168.79 156.67,167.6 156.35,166.4 156.06,165.19 155.89,163.94 155.8,163.32 155.77,162.67 155.71,162.1 155.64,161.52 155.51,160.94 155.35,160.36 155.03,159.21 154.6,158.04 154.31,156.81 154.01,155.58 153.85,154.32 153.82,153.06 153.82,152.43 153.84,151.8 153.89,151.17 L 153.97,150.28 C 153.98,149.96 153.97,149.7 153.93,149.42 153.79,148.26 153.36,147.13 152.88,146.02 151.87,143.82 150.52,141.75 149.07,139.78 L 149.14,139.71 C 150.82,141.52 152.32,143.52 153.49,145.73 154.08,146.83 154.55,148.02 154.77,149.3 154.82,149.62 154.84,149.99 154.85,150.28 L 154.8,151.23 C 154.78,151.83 154.77,152.43 154.8,153.03 154.84,155.45 155.6,157.69 156.29,160.12 156.44,160.73 156.56,161.36 156.63,162 156.68,162.66 156.68,163.23 156.76,163.83 156.89,165.03 157.14,166.22 157.43,167.4 157.73,168.58 158.08,169.76 158.41,170.95 158.57,171.55 158.73,172.15 158.85,172.77 158.96,173.4 159.01,174.03 159.05,174.64 159.14,175.87 159.15,177.11 159.41,178.26 159.54,178.81 159.8,179.4 160.23,179.43 160.71,179.52 161.05,179.03 161.28,178.49 161.72,177.4 161.89,176.17 162.01,174.96 162.13,173.75 162.17,172.52 162.13,171.3 162.09,170.7 162.09,170.06 161.88,169.53 161.67,168.91 161.63,168.3 161.56,167.68 161.44,166.45 161.39,165.22 161.37,163.99 L 161.47,163.99 Z M 161.47,163.99" />
            <path id="sue03Canvas-bezier68" stroke="none" fill="rgb(51, 91, 113)" d="M 164.24,149.63 C 165.32,150.76 166.42,151.87 167.54,152.96 168.65,154.06 169.77,155.14 170.95,156.14 171.53,156.62 172.17,157.14 172.75,157.4 173.44,157.65 174.31,158 174.9,158.75 175.52,159.52 175.53,160.58 175.27,161.35 175.02,162.15 174.6,162.84 174.11,163.47 L 174.02,163.42 C 174.27,162.67 174.52,161.93 174.6,161.21 174.69,160.48 174.58,159.81 174.15,159.37 173.73,158.89 173.09,158.61 172.35,158.28 171.54,157.82 171.01,157.27 170.42,156.72 168.15,154.51 166.14,152.12 164.16,149.69 L 164.24,149.63 Z M 164.24,149.63" />
            <path id="sue03Canvas-bezier69" stroke="none" fill="rgb(51, 91, 113)" d="M 170.71,170.19 C 170.47,170.95 170.19,171.7 169.83,172.44 169.64,172.8 169.43,173.16 169.15,173.5 169,173.66 168.84,173.83 168.59,173.96 168.48,174.02 168.27,174.07 168.17,174.07 168.07,174.08 167.94,174.09 167.84,174.09 167,174.08 166.19,174.07 165.41,173.87 164.63,173.7 163.85,173.4 163.14,173.13 L 163.1,173.05 C 163.55,172.87 163.94,172.88 164.36,172.86 164.76,172.85 165.16,172.88 165.56,172.91 166.36,172.96 167.12,173.22 167.88,173.31 168.46,173.54 168.96,172.79 169.41,172.19 169.86,171.55 170.26,170.86 170.62,170.15 L 170.71,170.19 Z M 170.71,170.19" />
            <path id="sue03Canvas-bezier70" stroke="none" fill="rgb(51, 91, 113)" d="M 162.94,169.51 C 163.57,169.28 164.24,169.16 164.94,169.15 165.28,169.15 165.67,169.1 166,169.28 166.32,169.45 166.63,169.71 166.75,170.13 L 166.69,170.21 C 166.28,170.25 165.99,170.24 165.69,170.21 165.4,170.19 165.15,170.01 164.84,169.93 164.25,169.77 163.61,169.66 162.95,169.61 L 162.94,169.51 Z M 162.94,169.51" />
            <path id="sue03Canvas-bezier71" stroke="none" fill="rgb(51, 91, 113)" d="M 166.16,168.77 C 166.11,168.17 166.12,167.58 166.19,166.98 166.22,166.69 166.19,166.35 166.37,166.08 166.54,165.83 166.8,165.51 167.23,165.48 L 167.29,165.56 C 167.3,165.92 167.33,166.16 167.28,166.43 167.26,166.7 167.06,166.92 166.94,167.18 166.72,167.7 166.49,168.24 166.26,168.79 L 166.16,168.77 Z M 166.16,168.77" />
            <path id="sue03Canvas-bezier72" stroke="none" fill="rgb(51, 91, 113)" d="M 164.78,168.06 C 164.72,167.35 164.7,166.65 164.73,165.94 164.74,165.59 164.68,165.22 164.83,164.88 164.99,164.56 165.16,164.17 165.63,163.99 L 165.7,164.06 C 165.75,164.43 165.81,164.76 165.78,165.1 165.78,165.43 165.6,165.74 165.5,166.07 165.3,166.73 165.1,167.4 164.88,168.07 L 164.78,168.06 Z M 164.78,168.06" />
            <path id="sue03Canvas-bezier73" stroke="none" fill="rgb(51, 91, 113)" d="M 35.09,175.08 C 36.7,174.02 38.12,172.69 39.41,171.26 40.7,169.84 41.84,168.3 42.83,166.66 43.81,165.02 44.58,163.27 45.34,161.53 46.11,159.78 46.75,157.98 47.41,156.14 L 47.51,156.16 C 47.37,158.12 46.92,160.04 46.25,161.89 45.58,163.74 44.58,165.46 43.49,167.08 42.39,168.71 41.15,170.23 39.76,171.6 38.35,172.96 36.84,174.21 35.14,175.17 L 35.09,175.08 Z M 35.09,175.08" />
        </g>
    </g>
</svg>
