<?xml version="1.0" encoding="UTF-8"?>
<!DOCTYPE svg PUBLIC "-//W3C//DTD SVG 1.1//EN" "http://www.w3.org/Graphics/SVG/1.1/DTD/svg11.dtd">
<svg version="1.1" xmlns="http://www.w3.org/2000/svg" xmlns:xlink="http://www.w3.org/1999/xlink" width="134" height="378"  xml:space="preserve" id="sue08Canvas">
    <!-- Generated by PaintCode - http://www.paintcodeapp.com -->
    <g id="sue08Canvas-lines">
        <g id="sue08Canvas-group2">
            <path id="sue08Canvas-bezier" stroke="none" fill="rgb(51, 91, 113)" d="M 64.89,164.24 C 66.99,164.24 69.1,164.2 71.2,164.1 72.25,164.05 73.3,163.98 74.34,163.87 74.86,163.82 75.38,163.76 75.89,163.66 76.15,163.62 76.4,163.56 76.64,163.49 76.76,163.45 76.88,163.41 76.99,163.36 77.09,163.31 77.18,163.23 77.19,163.2 77.23,163.11 77.33,163.06 77.42,163.09 77.48,163.12 77.53,163.17 77.54,163.23 L 77.54,163.24 C 77.66,164.01 77.73,164.79 77.74,165.57 77.75,166.35 77.71,167.12 77.58,167.9 77.57,167.99 77.5,168.06 77.42,168.08 L 77.41,168.08 C 75.49,168.5 73.56,168.84 71.61,169.04 70.63,169.13 69.65,169.2 68.66,169.16 67.67,169.12 66.66,169.07 65.7,168.63 65.64,168.6 65.6,168.54 65.59,168.48 65.52,167.79 65.38,167.08 65.25,166.38 L 64.86,164.28 C 64.86,164.26 64.87,164.25 64.88,164.24 64.89,164.24 64.89,164.24 64.89,164.24 Z M 64.93,164.3 C 65.13,164.97 65.31,165.65 65.5,166.33 65.67,167.02 65.86,167.7 65.98,168.43 L 65.87,168.28 C 66.72,168.61 67.71,168.65 68.66,168.65 69.62,168.64 70.59,168.57 71.55,168.48 73.48,168.28 75.41,168 77.31,167.64 L 77.14,167.81 C 77.27,167.09 77.33,166.32 77.33,165.57 77.34,164.81 77.29,164.05 77.18,163.3 L 77.53,163.34 C 77.42,163.55 77.27,163.61 77.14,163.68 77,163.74 76.87,163.78 76.74,163.82 76.48,163.89 76.21,163.94 75.95,163.99 75.42,164.07 74.9,164.13 74.37,164.17 73.32,164.26 72.26,164.3 71.21,164.32 69.11,164.36 67.02,164.35 64.93,164.3 Z M 64.93,164.3" />
            <path id="sue08Canvas-bezier2" stroke="none" fill="rgb(51, 91, 113)" d="M 78.34,161.65 C 79.21,161.1 80.11,160.58 81.03,160.11 81.49,159.88 81.94,159.61 82.45,159.48 82.71,159.41 82.97,159.35 83.24,159.32 83.5,159.31 83.81,159.29 84.05,159.46 L 84.03,159.51 C 83.55,159.55 83.1,159.82 82.64,159.99 82.18,160.2 81.69,160.33 81.21,160.52 80.26,160.89 79.31,161.29 78.37,161.7 L 78.34,161.65 Z M 78.34,161.65" />
            <path id="sue08Canvas-bezier3" stroke="none" fill="rgb(51, 91, 113)" d="M 78.94,166.06 C 81.25,164.99 83.55,163.92 85.83,162.82 86.96,162.25 88.1,161.67 89.18,161.08 89.47,160.93 89.58,160.8 89.71,160.52 89.83,160.26 89.89,159.96 89.95,159.66 90.05,159.06 90.09,158.42 90.1,157.79 L 90.15,157.78 C 90.3,158.41 90.36,159.05 90.33,159.71 90.32,160.04 90.26,160.37 90.15,160.7 90.09,160.87 90.02,161.02 89.89,161.19 89.85,161.25 89.75,161.35 89.68,161.4 89.61,161.45 89.54,161.5 89.47,161.55 88.36,162.24 87.18,162.7 86.01,163.22 83.68,164.24 81.33,165.19 78.97,166.12 L 78.94,166.06 Z M 78.94,166.06" />
            <path id="sue08Canvas-bezier4" stroke="none" fill="rgb(51, 91, 113)" d="M 64.89,167.69 C 58.86,167.14 52.85,166.42 46.87,165.48 43.89,165.01 40.89,164.52 37.95,163.79 36.48,163.41 35.01,163.01 33.58,162.52 32.15,162.01 30.71,161.45 29.46,160.58 L 29.49,160.54 C 30.14,160.91 30.84,161.2 31.55,161.46 32.25,161.72 32.97,161.95 33.69,162.15 35.14,162.57 36.6,162.93 38.08,163.25 41.02,163.91 43.97,164.52 46.95,165.05 49.92,165.58 52.91,166.04 55.9,166.46 58.89,166.89 61.89,167.29 64.89,167.63 L 64.89,167.69 Z M 64.89,167.69" />
            <path id="sue08Canvas-bezier5" stroke="none" fill="rgb(51, 91, 113)" d="M 29.45,159.44 C 29.37,158.93 29.34,158.41 29.39,157.88 29.41,157.61 29.41,157.33 29.56,157.07 29.69,156.84 29.94,156.56 30.26,156.57 L 30.29,156.62 C 30.15,156.86 30.13,157.06 30.06,157.29 30.02,157.51 29.89,157.72 29.82,157.96 29.68,158.43 29.58,158.93 29.51,159.44 L 29.45,159.44 Z M 29.45,159.44" />
            <path id="sue08Canvas-bezier6" stroke="none" fill="rgb(51, 91, 113)" d="M 28.8,161.09 C 27.1,163.72 25.86,166.63 24.87,169.59 23.88,172.55 23.2,175.61 22.8,178.71 22.41,181.81 22.33,184.93 22.44,188.05 22.53,191.17 22.92,194.27 23.42,197.36 L 23.36,197.38 C 22.55,194.34 22.08,191.22 21.89,188.07 21.71,184.92 21.91,181.76 22.36,178.65 22.82,175.53 23.56,172.46 24.61,169.5 25.68,166.54 26.99,163.66 28.76,161.06 L 28.8,161.09 Z M 28.8,161.09" />
            <path id="sue08Canvas-bezier7" stroke="none" fill="rgb(51, 91, 113)" d="M 24.02,198.31 C 23.9,198.67 23.68,198.97 23.52,199.3 23.34,199.61 23.18,199.93 23.05,200.25 22.92,200.57 22.87,200.93 22.88,201.15 22.88,201.25 22.92,201.34 23.03,201.45 23.13,201.55 23.29,201.64 23.46,201.73 L 23.46,201.78 C 23.27,201.84 23.06,201.86 22.84,201.79 22.62,201.73 22.41,201.51 22.34,201.26 22.22,200.75 22.48,200.39 22.65,200.06 22.85,199.73 23.07,199.43 23.29,199.14 23.52,198.86 23.79,198.59 23.96,198.29 L 24.02,198.31 Z M 24.02,198.31" />
            <path id="sue08Canvas-bezier8" stroke="none" fill="rgb(51, 91, 113)" d="M 24.02,203.15 C 23.77,209.08 23.63,215 23.59,220.93 23.54,226.85 23.6,232.78 23.87,238.7 24.01,241.65 24.21,244.61 24.53,247.55 24.67,249.02 24.89,250.48 25.04,251.96 25.19,253.44 25.3,254.93 25.34,256.41 25.41,259.39 25.27,262.38 24.73,265.32 24.17,268.23 23.29,271.17 21.49,273.56 L 21.44,273.53 C 22.3,272.32 22.88,270.94 23.34,269.55 23.8,268.15 24.13,266.71 24.35,265.25 24.81,262.34 24.92,259.38 24.8,256.43 24.75,254.96 24.64,253.49 24.5,252.02 24.35,250.55 24.13,249.08 23.99,247.6 23.7,244.64 23.54,241.68 23.43,238.71 23.21,232.78 23.22,226.85 23.31,220.92 23.43,215 23.64,209.07 23.96,203.15 L 24.02,203.15 Z M 24.02,203.15" />
            <path id="sue08Canvas-bezier9" stroke="none" fill="rgb(51, 91, 113)" d="M 20.69,275.95 C 19.97,277.74 19.44,279.6 18.98,281.48 18.52,283.36 18.16,285.25 17.88,287.16 17.33,290.99 17.11,294.85 17.17,298.71 17.24,302.56 17.6,306.42 18.24,310.22 18.87,314.02 19.8,317.77 20.93,321.46 L 20.73,321.27 C 22.61,321.7 24.56,321.89 26.5,322.03 28.44,322.17 30.39,322.23 32.34,322.2 34.29,322.17 36.24,322.09 38.17,321.84 39.14,321.71 40.1,321.56 41.04,321.3 41.5,321.17 41.96,321.01 42.39,320.79 42.81,320.57 43.24,320.27 43.38,319.8 L 43.44,319.82 C 43.31,320.32 42.87,320.65 42.45,320.89 42.02,321.14 41.56,321.32 41.09,321.48 40.15,321.78 39.18,321.98 38.22,322.14 36.27,322.44 34.31,322.6 32.35,322.65 30.39,322.71 28.42,322.69 26.46,322.58 24.5,322.44 22.54,322.25 20.6,321.8 20.51,321.78 20.43,321.71 20.41,321.62 19.26,317.91 18.41,314.12 17.8,310.29 17.2,306.46 16.87,302.59 16.84,298.71 16.81,294.84 17.08,290.96 17.69,287.13 17.99,285.22 18.37,283.32 18.85,281.45 19.34,279.58 19.89,277.72 20.64,275.93 L 20.69,275.95 Z M 20.69,275.95" />
            <path id="sue08Canvas-bezier10" stroke="none" fill="rgb(51, 91, 113)" d="M 43.38,318.34 C 43.49,315.72 43.55,313.1 43.57,310.47 43.6,307.85 43.59,305.22 43.52,302.6 43.45,299.98 43.28,297.37 43.07,294.75 43,293.44 42.93,292.12 42.94,290.8 42.95,290.14 42.98,289.48 43.04,288.82 43.08,288.49 43.13,288.16 43.21,287.84 43.25,287.68 43.3,287.51 43.37,287.36 43.41,287.28 43.45,287.21 43.52,287.14 43.58,287.08 43.69,287.02 43.78,287.08 L 43.75,287.13 C 43.62,287.08 43.52,287.27 43.48,287.4 43.42,287.55 43.39,287.71 43.37,287.87 43.32,288.19 43.3,288.52 43.29,288.84 43.27,289.49 43.29,290.15 43.33,290.8 43.39,292.1 43.49,293.41 43.62,294.71 43.9,297.33 43.95,299.97 43.96,302.6 43.99,307.85 43.79,313.11 43.44,318.35 L 43.38,318.34 Z M 43.38,318.34" />
            <path id="sue08Canvas-bezier11" stroke="none" fill="rgb(51, 91, 113)" d="M 43.74,283.9 C 44.07,283.1 44.35,282.27 44.56,281.43 44.75,280.59 44.9,279.71 44.78,278.88 44.74,278.67 44.7,278.47 44.61,278.28 44.52,278.08 44.46,277.81 44.49,277.57 44.55,277.08 44.8,276.68 45.01,276.3 45.46,275.54 45.9,274.81 46.27,274.03 47.01,272.47 47.47,270.8 47.85,269.11 48.24,267.43 48.46,265.7 48.7,263.97 L 48.76,263.97 C 48.83,265.73 48.69,267.49 48.39,269.22 48.07,270.96 47.48,272.65 46.66,274.22 46.26,275.01 45.78,275.76 45.31,276.49 45.09,276.85 44.86,277.22 44.81,277.61 44.78,277.8 44.81,277.97 44.89,278.17 44.97,278.39 45.02,278.62 45.05,278.84 45.14,279.75 44.95,280.62 44.71,281.47 44.47,282.31 44.16,283.13 43.79,283.93 L 43.74,283.9 Z M 43.74,283.9" />
            <path id="sue08Canvas-bezier12" stroke="none" fill="rgb(51, 91, 113)" d="M 49.5,261.57 C 50.95,256.79 52.31,251.98 53.6,247.16 54.89,242.33 56.11,237.49 57.24,232.62 57.8,230.19 58.33,227.75 58.83,225.3 59.35,222.86 59.83,220.41 60.28,217.96 61.2,213.06 61.98,208.13 62.47,203.15 L 62.52,203.16 C 62.35,208.16 61.65,213.13 60.82,218.06 60.37,220.52 59.88,222.97 59.36,225.42 58.83,227.86 58.26,230.3 57.66,232.72 55.3,242.44 52.59,252.07 49.55,261.59 L 49.5,261.57 Z M 49.5,261.57" />
            <path id="sue08Canvas-bezier13" stroke="none" fill="rgb(51, 91, 113)" d="M 64.86,199.15 C 65.14,198.41 65.63,197.75 66.27,197.24 66.58,196.98 66.92,196.72 67.32,196.61 67.72,196.5 68.13,196.45 68.54,196.55 L 68.55,196.6 C 68.19,196.81 67.85,196.96 67.52,197.12 67.2,197.29 66.84,197.4 66.52,197.6 66.2,197.79 65.91,198.02 65.64,198.29 65.36,198.55 65.11,198.84 64.92,199.18 L 64.86,199.15 Z M 64.86,199.15" />
            <path id="sue08Canvas-bezier14" stroke="none" fill="rgb(51, 91, 113)" d="M 90.21,163.27 C 90.9,166.53 91.36,169.85 91.73,173.17 92.08,176.49 92.31,179.82 92.42,183.17 92.53,186.51 92.56,189.85 92.36,193.19 92.15,196.53 91.83,199.86 91.25,203.16 L 91.2,203.15 C 91.46,199.82 91.7,196.5 91.81,193.17 91.94,189.84 92.03,186.51 91.98,183.18 91.93,179.84 91.75,176.51 91.46,173.19 91.16,169.87 90.77,166.55 90.16,163.28 L 90.21,163.27 Z M 90.21,163.27" />
            <path id="sue08Canvas-bezier15" stroke="none" fill="rgb(51, 91, 113)" d="M 49.5,318.35 C 48.3,314.13 47.67,309.76 47.34,305.38 47.05,300.99 47.13,296.58 47.63,292.21 47.87,290.02 48.22,287.84 48.67,285.69 48.79,285.15 48.91,284.61 49.04,284.08 L 49.24,283.28 C 49.3,283.04 49.34,282.76 49.37,282.5 49.51,281.43 49.55,280.34 49.58,279.25 49.72,274.88 49.58,270.49 49.5,266.1 L 49.56,266.1 C 49.95,270.47 50.17,274.86 50.13,279.26 50.1,280.36 50.06,281.46 49.92,282.57 49.88,282.85 49.84,283.12 49.77,283.41 L 49.57,284.21 C 49.44,284.74 49.32,285.27 49.2,285.8 48.72,287.93 48.34,290.09 48.06,292.26 47.52,296.6 47.38,300.99 47.62,305.36 47.87,309.73 48.43,314.1 49.55,318.34 L 49.5,318.35 Z M 49.5,318.35" />
            <path id="sue08Canvas-bezier16" stroke="none" fill="rgb(51, 91, 113)" d="M 49.89,319.52 C 53.71,320.08 57.55,320.56 61.4,320.91 63.32,321.08 65.25,321.21 67.18,321.25 68.14,321.26 69.11,321.26 70.07,321.19 70.55,321.15 71.03,321.1 71.5,321.01 71.96,320.91 72.44,320.8 72.8,320.53 L 72.77,320.63 C 72.6,319.82 72.6,319.03 72.56,318.23 72.54,317.44 72.52,316.64 72.52,315.84 72.5,314.25 72.51,312.66 72.52,311.06 72.54,307.88 72.59,304.69 72.64,301.51 L 72.79,291.96 72.83,287.18 C 72.82,285.6 72.86,284 72.72,282.43 72.6,280.82 72.69,279.22 72.8,277.63 72.93,276.03 73.11,274.45 73.34,272.87 73.46,272.07 73.58,271.29 73.74,270.5 73.78,270.3 73.82,270.1 73.87,269.91 73.93,269.71 73.96,269.51 74.08,269.28 74.22,268.98 74.35,268.57 74.46,268.2 74.91,266.69 75.31,265.15 75.66,263.6 75.81,262.82 76.02,262.06 76.02,261.28 76.08,260.45 76.3,259.65 76.6,258.89 76.91,258.13 77.32,257.41 77.83,256.77 78.08,256.45 78.38,256.14 78.67,255.87 78.9,255.63 79.07,255.31 79.15,254.96 79.32,254.26 79.19,253.48 79.02,252.72 78.85,251.96 78.59,251.21 78.42,250.41 78.38,250.2 78.34,249.99 78.33,249.77 78.33,249.55 78.33,249.3 78.48,249.04 78.57,248.9 78.65,248.84 78.7,248.78 78.75,248.72 78.81,248.64 78.86,248.57 78.96,248.41 79.04,248.25 79.12,248.08 79.43,247.39 79.61,246.62 79.71,245.86 L 79.71,245.85 C 79.72,245.83 79.73,245.8 79.74,245.78 81.26,242.57 82.54,239.26 83.72,235.91 84.89,232.56 85.92,229.15 86.84,225.72 87.76,222.29 88.57,218.82 89.29,215.34 90,211.86 90.67,208.36 91.19,204.84 L 91.24,204.85 C 90.35,211.91 88.97,218.92 87.22,225.82 86.33,229.27 85.34,232.7 84.21,236.08 83.07,239.46 81.76,242.78 80.23,246.01 L 80.26,245.92 C 80.14,246.74 79.96,247.53 79.62,248.3 79.53,248.5 79.43,248.68 79.31,248.87 79.25,248.96 79.19,249.04 79.11,249.14 79.04,249.23 78.96,249.29 78.95,249.32 78.83,249.52 78.87,249.94 78.95,250.3 79.11,251.05 79.37,251.81 79.55,252.6 79.73,253.39 79.88,254.23 79.68,255.09 79.58,255.52 79.37,255.93 79.05,256.26 78.75,256.53 78.5,256.8 78.25,257.1 77.77,257.7 77.38,258.37 77.08,259.09 76.79,259.8 76.59,260.56 76.53,261.32 76.52,262.14 76.3,262.93 76.14,263.71 75.78,265.27 75.38,266.81 74.91,268.34 74.78,268.73 74.68,269.09 74.48,269.51 74.35,269.78 74.27,270.22 74.18,270.59 74.02,271.36 73.89,272.15 73.77,272.93 73.54,274.5 73.35,276.08 73.22,277.66 73.1,279.24 73.01,280.83 73.11,282.4 73.25,284 73.2,285.59 73.21,287.19 L 73.14,291.97 72.95,301.52 72.77,311.07 C 72.75,312.66 72.74,314.25 72.74,315.84 72.75,316.64 72.75,317.43 72.78,318.23 72.81,319.01 72.81,319.83 72.96,320.58 L 72.96,320.59 C 72.97,320.63 72.95,320.66 72.93,320.68 72.5,320.99 72.01,321.1 71.53,321.19 71.05,321.28 70.57,321.33 70.08,321.37 69.11,321.43 68.14,321.43 67.18,321.41 65.24,321.36 63.31,321.21 61.39,321.03 57.54,320.67 53.7,320.16 49.88,319.57 L 49.89,319.52 Z M 49.89,319.52" />
            <path id="sue08Canvas-bezier17" stroke="none" fill="rgb(51, 91, 113)" d="M 22.42,323.19 C 23.44,326.23 24.5,329.26 25.58,332.28 26.66,335.3 27.76,338.32 28.98,341.28 29.29,342.02 29.61,342.75 29.95,343.47 30.12,343.83 30.3,344.17 30.49,344.53 30.69,344.89 30.86,345.26 31.02,345.64 31.63,347.15 32.02,348.73 32.32,350.32 32.59,351.91 32.78,353.52 32.84,355.13 32.87,355.94 32.87,356.75 32.83,357.55 32.8,357.96 32.76,358.36 32.69,358.76 32.61,359.15 32.55,359.57 32.29,359.91 L 32.25,359.87 C 32.46,359.54 32.49,359.13 32.54,358.74 32.57,358.34 32.58,357.94 32.58,357.55 32.58,356.75 32.53,355.95 32.46,355.16 32.31,353.57 32.1,351.98 31.78,350.42 31.47,348.86 31.08,347.31 30.51,345.84 30.37,345.47 30.21,345.12 30.03,344.77 29.85,344.41 29.67,344.04 29.5,343.67 29.17,342.93 28.87,342.19 28.57,341.44 27.4,338.45 26.35,335.41 25.32,332.37 24.3,329.33 23.32,326.27 22.37,323.21 L 22.42,323.19 Z M 22.42,323.19" />
            <path id="sue08Canvas-bezier18" stroke="none" fill="rgb(51, 91, 113)" d="M 42.77,323.2 C 42.74,325.84 42.75,328.48 42.79,331.12 42.83,333.76 42.9,336.4 43.03,339.03 43.16,341.67 43.37,344.29 43.61,346.91 43.73,348.22 43.88,349.53 44.09,350.83 44.2,351.47 44.32,352.12 44.49,352.75 44.65,353.39 44.84,354.01 45.16,354.59 L 45.12,354.62 C 44.35,353.51 44.03,352.18 43.72,350.9 43.43,349.6 43.24,348.29 43.07,346.97 42.75,344.34 42.66,341.69 42.59,339.05 42.45,333.76 42.51,328.48 42.72,323.2 L 42.77,323.2 Z M 42.77,323.2" />
            <path id="sue08Canvas-bezier19" stroke="none" fill="rgb(51, 91, 113)" d="M 45.2,356.63 C 46.54,357.74 47.9,358.84 49.26,359.93 50.62,361.02 51.99,362.1 53.39,363.14 54.09,363.66 54.8,364.17 55.52,364.64 55.88,364.88 56.24,365.11 56.61,365.3 56.7,365.35 56.79,365.39 56.87,365.43 56.97,365.46 57.07,365.49 57.18,365.54 57.4,365.63 57.6,365.73 57.8,365.83 58.59,366.28 59.3,366.8 59.99,367.34 L 61.01,368.16 C 61.36,368.42 61.7,368.7 62.1,368.84 L 62.09,368.89 C 61.64,368.83 61.26,368.57 60.87,368.36 60.5,368.13 60.13,367.89 59.76,367.65 59.03,367.18 58.32,366.69 57.55,366.32 57.37,366.23 57.17,366.14 56.98,366.06 56.9,366.03 56.79,365.99 56.68,365.96 56.56,365.91 56.45,365.86 56.35,365.81 55.94,365.59 55.58,365.34 55.21,365.09 54.49,364.58 53.8,364.04 53.12,363.49 50.38,361.31 47.76,359.01 45.16,356.67 L 45.2,356.63 Z M 45.2,356.63" />
            <path id="sue08Canvas-bezier20" stroke="none" fill="rgb(51, 91, 113)" d="M 31.66,361.84 C 31.16,362.97 30.75,364.16 30.47,365.37 30.34,365.97 30.24,366.59 30.23,367.21 30.22,367.82 30.3,368.44 30.45,369.04 30.61,369.63 30.89,370.19 31.34,370.6 31.78,371.02 32.34,371.29 32.92,371.48 34.09,371.87 35.34,371.98 36.57,372.05 37.81,372.12 39.06,372.11 40.3,372.06 40.92,372.05 41.54,372 42.19,372.05 42.35,372.07 42.52,372.1 42.69,372.16 42.78,372.2 42.86,372.24 42.94,372.31 42.98,372.34 43.02,372.39 43.05,372.43 L 43.09,372.5 C 43.09,372.49 43.11,372.53 43.09,372.49 L 43.1,372.5 C 43.11,372.52 43.1,372.5 43.1,372.5 43.16,372.55 43.32,372.63 43.45,372.69 43.59,372.75 43.74,372.81 43.88,372.86 46.2,373.71 48.62,374.37 51.02,375 53.44,375.61 55.87,376.16 58.31,376.6 60.75,377.04 63.23,377.42 65.69,377.42 66.3,377.42 66.91,377.39 67.5,377.29 68.09,377.19 68.69,377.01 69.04,376.62 69.13,376.53 69.19,376.42 69.24,376.3 69.27,376.19 69.32,376.01 69.35,375.87 69.42,375.58 69.49,375.28 69.53,374.98 69.61,374.38 69.61,373.77 69.49,373.19 69.36,372.61 69.08,372.07 68.69,371.62 68.29,371.16 67.8,370.79 67.28,370.47 66.23,369.81 65.07,369.34 63.91,368.89 L 63.93,368.84 C 65.11,369.23 66.3,369.64 67.41,370.25 67.96,370.56 68.48,370.93 68.92,371.41 69.36,371.88 69.7,372.47 69.86,373.1 70.02,373.74 70.03,374.4 69.96,375.03 69.92,375.35 69.86,375.67 69.8,375.98 69.75,376.14 69.73,376.27 69.68,376.45 69.62,376.63 69.52,376.8 69.4,376.93 68.9,377.49 68.22,377.66 67.6,377.8 66.96,377.92 66.33,377.96 65.69,377.97 63.16,377.97 60.68,377.58 58.21,377.13 55.76,376.65 53.33,376.07 50.91,375.42 48.5,374.76 46.1,374.08 43.75,373.19 43.6,373.13 43.46,373.07 43.31,373.01 43.16,372.93 43.03,372.89 42.85,372.74 42.81,372.69 42.81,372.7 42.79,372.66 L 42.77,372.63 C 42.75,372.61 42.74,372.59 42.72,372.57 42.68,372.53 42.62,372.5 42.57,372.48 42.45,372.43 42.3,372.4 42.16,372.39 41.56,372.33 40.93,372.37 40.31,372.38 39.06,372.41 37.81,372.41 36.56,372.32 35.31,372.23 34.05,372.1 32.85,371.69 32.25,371.48 31.67,371.19 31.21,370.74 30.74,370.29 30.44,369.69 30.29,369.08 30.15,368.46 30.08,367.83 30.09,367.2 30.12,366.57 30.22,365.95 30.37,365.34 30.66,364.13 31.09,362.95 31.61,361.81 L 31.66,361.84 Z M 31.66,361.84" />
            <path id="sue08Canvas-bezier21" stroke="none" fill="rgb(51, 91, 113)" d="M 62.51,369.96 C 61.53,370.63 60.28,370.76 59.11,370.66 58.52,370.6 57.94,370.48 57.38,370.31 56.81,370.15 56.28,369.91 55.72,369.78 53.47,369.21 51.14,368.89 48.84,368.49 46.54,368.1 44.22,367.74 41.95,367.12 40.82,366.8 39.69,366.46 38.61,365.97 38.07,365.72 37.54,365.45 37.06,365.09 36.59,364.74 36.12,364.28 36,363.69 L 36.05,363.67 C 36.25,364.22 36.72,364.6 37.2,364.89 37.69,365.19 38.22,365.42 38.76,365.62 39.84,366.02 40.96,366.33 42.09,366.59 44.35,367.13 46.63,367.61 48.92,368.05 51.21,368.51 53.52,368.88 55.79,369.51 56.36,369.67 56.9,369.93 57.45,370.1 57.99,370.28 58.56,370.42 59.13,370.49 60.26,370.63 61.5,370.54 62.48,369.91 L 62.51,369.96 Z M 62.51,369.96" />
            <path id="sue08Canvas-bezier22" stroke="none" fill="rgb(51, 91, 113)" d="M 51.23,321.42 C 52.11,324.5 53.03,327.58 53.98,330.64 54.93,333.7 55.89,336.77 56.98,339.78 57.26,340.53 57.54,341.27 57.86,342.01 58.01,342.37 58.17,342.73 58.35,343.09 58.53,343.46 58.69,343.84 58.82,344.22 59.38,345.76 59.69,347.36 59.92,348.96 60.12,350.56 60.24,352.17 60.23,353.79 60.22,354.59 60.19,355.4 60.11,356.21 60.06,356.61 60,357.01 59.92,357.4 59.82,357.79 59.74,358.21 59.47,358.53 L 59.43,358.5 C 59.65,358.18 59.71,357.76 59.77,357.38 59.82,356.98 59.85,356.59 59.86,356.19 59.89,355.39 59.88,354.59 59.85,353.8 59.77,352.2 59.63,350.61 59.37,349.04 59.13,347.47 58.81,345.9 58.31,344.41 58.18,344.03 58.04,343.67 57.88,343.31 57.71,342.95 57.55,342.57 57.4,342.19 57.1,341.44 56.83,340.68 56.57,339.92 55.53,336.88 54.61,333.8 53.72,330.72 52.84,327.63 51.99,324.54 51.17,321.43 L 51.23,321.42 Z M 51.23,321.42" />
            <path id="sue08Canvas-bezier23" stroke="none" fill="rgb(51, 91, 113)" d="M 71.56,322.32 C 71.41,324.96 71.3,327.6 71.23,330.24 71.15,332.87 71.11,335.51 71.12,338.15 71.13,340.79 71.23,343.42 71.35,346.05 71.41,347.37 71.51,348.68 71.66,349.98 71.74,350.63 71.83,351.28 71.97,351.92 72.1,352.56 72.27,353.2 72.56,353.79 L 72.52,353.82 C 71.8,352.67 71.54,351.33 71.28,350.04 71.05,348.73 70.92,347.41 70.81,346.09 70.61,343.44 70.63,340.79 70.68,338.15 70.77,332.86 71.06,327.58 71.5,322.32 L 71.56,322.32 Z M 71.56,322.32" />
            <path id="sue08Canvas-bezier24" stroke="none" fill="rgb(51, 91, 113)" d="M 72.4,355.68 C 73.72,356.83 75.05,357.96 76.39,359.08 77.72,360.21 79.07,361.32 80.44,362.4 81.12,362.93 81.82,363.46 82.53,363.95 82.88,364.19 83.24,364.43 83.6,364.63 83.69,364.68 83.78,364.73 83.86,364.76 83.96,364.8 84.06,364.83 84.17,364.89 84.39,364.98 84.59,365.08 84.79,365.19 85.56,365.65 86.26,366.19 86.93,366.75 L 87.94,367.59 C 88.27,367.86 88.61,368.15 89.01,368.3 L 89,368.35 C 88.54,368.28 88.17,368.01 87.79,367.79 87.42,367.55 87.06,367.3 86.7,367.06 85.98,366.57 85.27,366.06 84.52,365.67 84.34,365.57 84.14,365.48 83.96,365.4 83.87,365.36 83.76,365.33 83.66,365.29 83.54,365.24 83.43,365.19 83.33,365.13 82.93,364.91 82.57,364.65 82.21,364.39 81.5,363.86 80.83,363.3 80.16,362.74 77.48,360.49 74.9,358.12 72.36,355.72 L 72.4,355.68 Z M 72.4,355.68" />
            <path id="sue08Canvas-bezier25" stroke="none" fill="rgb(51, 91, 113)" d="M 70.97,372.15 C 73.86,373.23 76.84,374.07 79.82,374.84 82.81,375.61 85.82,376.29 88.87,376.71 90.39,376.9 91.93,377.05 93.43,376.95 94.17,376.89 94.95,376.77 95.5,376.41 95.64,376.31 95.75,376.21 95.83,376.08 95.91,375.96 95.94,375.82 96,375.62 96.1,375.25 96.19,374.89 96.24,374.52 96.35,373.79 96.34,373.04 96.1,372.36 95.86,371.67 95.39,371.09 94.82,370.61 94.25,370.12 93.58,369.73 92.9,369.38 92.23,369.02 91.52,368.7 90.81,368.39 L 90.83,368.34 C 92.29,368.84 93.78,369.35 95.06,370.31 95.69,370.78 96.25,371.42 96.54,372.19 96.85,372.96 96.88,373.81 96.78,374.6 96.73,374.99 96.64,375.39 96.54,375.77 L 96.46,376.06 C 96.43,376.17 96.37,376.28 96.31,376.38 96.18,376.58 96.01,376.75 95.83,376.87 95.08,377.36 94.25,377.43 93.47,377.49 91.89,377.56 90.34,377.37 88.81,377.14 85.74,376.66 82.73,375.93 79.75,375.11 76.78,374.26 73.82,373.35 70.95,372.21 L 70.97,372.15 Z M 70.97,372.15" />
            <path id="sue08Canvas-bezier26" stroke="none" fill="rgb(51, 91, 113)" d="M 58.75,360.57 C 58.58,361.09 58.43,361.61 58.27,362.13 58.2,362.39 58.17,362.67 58.05,362.91 57.93,363.15 57.79,363.38 57.57,363.6 L 57.52,363.59 C 57.45,363.28 57.48,363 57.53,362.73 57.58,362.45 57.74,362.22 57.86,361.97 58.11,361.48 58.38,361 58.7,360.54 L 58.75,360.57 Z M 58.75,360.57" />
            <path id="sue08Canvas-bezier27" stroke="none" fill="rgb(51, 91, 113)" d="M 89.39,369.43 C 88.39,370.08 87.14,370.18 85.97,370.04 85.39,369.98 84.81,369.84 84.25,369.66 83.68,369.48 83.16,369.23 82.6,369.08 80.36,368.46 78.05,368.08 75.76,367.63 73.47,367.18 71.16,366.77 68.9,366.1 67.78,365.75 66.66,365.38 65.59,364.86 65.06,364.6 64.54,364.32 64.06,363.95 63.61,363.59 63.15,363.12 63.04,362.52 L 63.09,362.51 C 63.28,363.06 63.73,363.45 64.21,363.75 64.69,364.06 65.21,364.3 65.75,364.52 66.82,364.94 67.93,365.28 69.06,365.57 71.3,366.16 73.57,366.7 75.85,367.2 78.13,367.71 80.43,368.14 82.68,368.82 83.25,368.99 83.78,369.26 84.32,369.45 84.87,369.64 85.43,369.8 86,369.88 87.13,370.05 88.36,369.99 89.36,369.39 L 89.39,369.43 Z M 89.39,369.43" />
            <path id="sue08Canvas-bezier28" stroke="none" fill="rgb(51, 91, 113)" d="M 73.7,12.05 C 74.64,11.92 75.58,11.72 76.51,11.52 77.45,11.32 78.39,11.12 79.29,10.84 79.76,10.66 80.25,10.64 80.72,10.6 81.2,10.56 81.68,10.55 82.17,10.56 83.13,10.57 84.09,10.61 85.05,10.86 85.28,10.94 85.52,11.01 85.75,11.19 85.85,11.28 85.96,11.42 85.97,11.59 85.98,11.71 85.98,11.84 85.99,11.96 85.99,12.44 85.94,13 85.55,13.41 85.17,13.81 84.61,13.91 84.14,13.95 L 82.71,14.09 C 81.77,14.18 80.77,14.27 79.84,14.24 78.93,14.32 78,14.6 77.15,14.96 76.3,15.34 75.48,15.84 74.98,16.59 74.45,17.37 73.92,18.17 73.36,18.96 72.25,20.52 71.05,22.04 69.71,23.43 68.36,24.8 66.88,26.09 65.14,26.99 64.28,27.43 63.35,27.77 62.38,27.9 61.41,28.03 60.42,27.93 59.52,27.59 L 59.54,27.54 C 61.39,28.1 63.35,27.59 64.96,26.65 66.6,25.71 68.02,24.43 69.31,23.05 70.61,21.67 71.79,20.17 72.92,18.64 73.49,17.87 74.02,17.09 74.58,16.3 75.17,15.45 76.08,14.94 76.97,14.56 77.88,14.19 78.82,13.92 79.81,13.84 80.8,13.89 81.71,13.81 82.68,13.73 L 84.11,13.61 C 84.57,13.59 85.03,13.49 85.32,13.19 85.62,12.89 85.69,12.42 85.69,11.96 85.69,11.84 85.69,11.73 85.68,11.61 85.68,11.54 85.64,11.47 85.56,11.41 85.41,11.28 85.19,11.19 84.97,11.13 84.07,10.87 83.11,10.81 82.16,10.78 81.69,10.76 81.21,10.77 80.73,10.79 80.26,10.82 79.78,10.83 79.34,10.99 78.41,11.27 77.48,11.44 76.54,11.63 75.59,11.81 74.66,11.99 73.7,12.1 L 73.7,12.05 Z M 73.7,12.05" />
            <path id="sue08Canvas-bezier29" stroke="none" fill="rgb(51, 91, 113)" d="M 58.56,27.82 C 53.58,28.63 48.6,29.46 43.63,30.33 41.15,30.77 38.67,31.25 36.19,31.67 34.95,31.88 33.71,32.1 32.47,32.32 31.85,32.43 31.23,32.55 30.61,32.68 30,32.81 29.38,32.93 28.79,33.14 L 28.77,33.09 C 29.92,32.55 31.17,32.27 32.39,31.95 33.62,31.65 34.85,31.39 36.09,31.13 38.57,30.64 41.07,30.28 43.56,29.89 48.55,29.12 53.55,28.42 58.55,27.77 L 58.56,27.82 Z M 58.56,27.82" />
            <path id="sue08Canvas-bezier30" stroke="none" fill="rgb(51, 91, 113)" d="M 31.42,18.65 C 33.34,19.02 35.27,19.33 37.21,19.59 39.15,19.85 41.09,20.07 43.04,20.2 44.98,20.32 46.93,20.34 48.86,20.25 49.83,20.21 50.79,20.11 51.73,19.91 52.2,19.81 52.66,19.68 53.1,19.48 53.54,19.3 53.96,19.05 54.3,18.7 L 54.34,18.74 C 53.75,19.56 52.77,19.99 51.83,20.28 50.87,20.57 49.88,20.7 48.9,20.8 46.93,20.96 44.95,20.82 43,20.64 39.09,20.26 35.23,19.58 31.41,18.7 L 31.42,18.65 Z M 31.42,18.65" />
            <path id="sue08Canvas-bezier31" stroke="none" fill="rgb(51, 91, 113)" d="M 54.23,17.06 C 54.22,15.56 54.23,14.05 54.13,12.56 54.12,12.36 54.1,12.21 54.06,12 54.08,11.71 54.2,11.57 54.29,11.39 54.5,11.06 54.74,10.76 54.98,10.47 55.45,9.88 55.95,9.31 56.41,8.73 56.64,8.43 56.86,8.13 57.04,7.83 57.13,7.68 57.22,7.52 57.25,7.38 L 57.28,7.25 C 57.29,7.22 57.32,7.14 57.35,7.07 57.41,6.95 57.49,6.85 57.57,6.77 58.25,6.18 59.02,6.03 59.76,5.84 60.51,5.68 61.25,5.57 62,5.46 L 63.12,5.3 C 63.3,5.28 63.49,5.26 63.69,5.25 63.79,5.25 63.89,5.25 63.99,5.28 64.1,5.31 64.17,5.39 64.24,5.44 L 64.21,5.49 C 64.04,5.38 63.89,5.37 63.7,5.41 63.52,5.45 63.34,5.5 63.16,5.55 L 62.07,5.84 C 61.34,6.02 60.6,6.17 59.89,6.37 59.53,6.46 59.18,6.57 58.84,6.69 58.51,6.81 58.17,6.96 57.95,7.16 57.89,7.21 57.85,7.27 57.82,7.31 57.82,7.32 57.8,7.33 57.79,7.39 L 57.75,7.53 C 57.68,7.76 57.57,7.92 57.46,8.09 57.24,8.42 57,8.72 56.75,9.01 56.26,9.58 55.74,10.13 55.25,10.7 55,10.98 54.76,11.26 54.56,11.56 54.46,11.7 54.36,11.89 54.36,11.98 54.38,12.14 54.4,12.36 54.41,12.54 54.43,14.06 54.35,15.56 54.28,17.07 L 54.23,17.06 Z M 54.23,17.06" />
            <path id="sue08Canvas-bezier32" stroke="none" fill="rgb(51, 91, 113)" d="M 61.32,9.09 C 61.93,8.66 62.52,8.19 63.08,7.69 63.63,7.19 64.16,6.66 64.55,6.05 64.65,5.89 64.73,5.73 64.78,5.57 64.84,5.38 64.96,5.18 65.08,5.04 65.34,4.73 65.65,4.49 65.95,4.26 66.57,3.81 67.23,3.44 67.89,3.07 68.54,2.69 69.2,2.33 69.8,1.93 69.95,1.83 70.1,1.72 70.2,1.61 70.26,1.56 70.3,1.5 70.3,1.49 70.3,1.52 70.31,1.4 70.4,1.29 70.46,1.2 70.54,1.16 70.6,1.13 70.86,1.01 71.05,1 71.26,0.98 71.46,0.97 71.66,0.97 71.85,0.98 73.38,1.1 74.85,1.42 76.3,1.86 L 76.29,1.91 C 74.79,1.78 73.3,1.55 71.83,1.53 71.65,1.53 71.47,1.53 71.3,1.54 71.13,1.56 70.95,1.59 70.86,1.63 70.84,1.64 70.84,1.65 70.85,1.64 70.87,1.6 70.87,1.58 70.83,1.7 70.76,1.86 70.67,1.94 70.59,2.02 70.43,2.17 70.27,2.28 70.1,2.38 69.44,2.79 68.76,3.11 68.1,3.45 67.43,3.8 66.77,4.15 66.16,4.55 65.86,4.76 65.56,4.98 65.32,5.24 65.21,5.38 65.12,5.5 65.06,5.67 64.99,5.86 64.89,6.03 64.78,6.2 64.33,6.83 63.76,7.34 63.18,7.82 62.6,8.29 61.99,8.73 61.35,9.14 L 61.32,9.09 Z M 61.32,9.09" />
            <path id="sue08Canvas-bezier33" stroke="none" fill="rgb(51, 91, 113)" d="M 66.82,8.01 C 67.29,7.36 67.88,6.8 68.52,6.33 69.18,5.86 69.87,5.48 70.54,5.05 71.91,4.24 73.28,3.42 74.76,2.78 75.13,2.62 75.51,2.48 75.93,2.38 76.14,2.34 76.36,2.3 76.62,2.35 76.83,2.39 77,2.42 77.2,2.46 77.98,2.59 78.76,2.73 79.54,2.9 80.32,3.08 81.1,3.25 81.86,3.5 82.25,3.62 82.63,3.76 83,3.93 83.18,4.03 83.36,4.12 83.52,4.26 83.6,4.33 83.68,4.41 83.73,4.52 83.77,4.63 83.73,4.76 83.65,4.84 L 83.61,4.8 C 83.73,4.63 83.58,4.48 83.43,4.39 83.27,4.29 83.08,4.22 82.9,4.16 82.53,4.04 82.15,3.95 81.77,3.87 81,3.71 80.22,3.56 79.44,3.43 78.66,3.29 77.88,3.16 77.1,2.99 76.9,2.95 76.69,2.9 76.51,2.85 76.39,2.82 76.2,2.83 76.02,2.86 75.66,2.93 75.29,3.05 74.92,3.19 73.47,3.76 72.07,4.53 70.68,5.29 69.99,5.68 69.27,6.04 68.62,6.46 67.96,6.9 67.36,7.42 66.87,8.04 L 66.82,8.01 Z M 66.82,8.01" />
            <path id="sue08Canvas-bezier34" stroke="none" fill="rgb(51, 91, 113)" d="M 72.68,7.99 C 73.38,7.34 74.09,6.7 74.83,6.09 75.57,5.49 76.31,4.88 77.15,4.39 77.36,4.27 77.57,4.15 77.83,4.08 77.89,4.07 77.96,4.05 78.04,4.05 78.11,4.05 78.2,4.07 78.25,4.08 L 78.59,4.16 79.99,4.45 C 80.93,4.65 81.86,4.85 82.79,5.08 83.26,5.2 83.72,5.32 84.19,5.51 84.25,5.54 84.31,5.57 84.38,5.61 84.41,5.63 84.44,5.65 84.48,5.68 L 84.55,5.74 C 84.62,5.81 84.72,5.89 84.81,5.96 84.99,6.11 85.19,6.25 85.37,6.41 85.56,6.57 85.75,6.74 85.92,6.95 86,7.06 86.08,7.18 86.13,7.34 86.18,7.49 86.18,7.7 86.09,7.87 85.92,8.13 85.75,8.31 85.51,8.48 85.27,8.63 84.98,8.72 84.71,8.73 84.16,8.76 83.66,8.62 83.2,8.45 82.96,8.37 82.75,8.27 82.53,8.18 82.34,8.1 82.11,8.04 81.9,8 81.04,7.86 80.09,8.03 79.31,8.45 L 79.28,8.46 79.29,8.46 C 78.56,8.79 77.83,9.12 77.11,9.46 76.75,9.64 76.4,9.81 76.04,10 75.87,10.09 75.69,10.19 75.53,10.29 75.44,10.34 75.36,10.4 75.29,10.46 75.22,10.51 75.12,10.6 75.14,10.65 L 75.1,10.68 C 75.05,10.61 75.1,10.55 75.12,10.51 75.15,10.46 75.19,10.42 75.22,10.39 75.29,10.31 75.37,10.25 75.45,10.18 75.61,10.06 75.78,9.94 75.95,9.83 76.28,9.6 76.62,9.4 76.97,9.2 77.67,8.8 78.37,8.41 79.09,8.05 L 79.07,8.06 C 79.95,7.55 80.97,7.29 81.99,7.45 82.25,7.49 82.49,7.56 82.74,7.65 L 83.4,7.92 C 83.82,8.09 84.26,8.21 84.68,8.19 84.88,8.19 85.07,8.14 85.23,8.04 85.39,7.95 85.56,7.77 85.65,7.64 85.7,7.57 85.66,7.41 85.53,7.24 85.41,7.07 85.25,6.91 85.08,6.75 84.9,6.6 84.72,6.45 84.54,6.3 84.44,6.22 84.35,6.15 84.25,6.05 L 84.19,5.99 C 84.18,5.99 84.17,5.97 84.15,5.96 84.11,5.94 84.07,5.91 84.02,5.89 83.61,5.71 83.15,5.58 82.69,5.45 81.78,5.2 80.85,4.98 79.92,4.76 L 78.53,4.43 78.18,4.34 C 78.11,4.33 78.08,4.31 78.04,4.31 77.99,4.31 77.94,4.32 77.89,4.33 77.68,4.38 77.47,4.49 77.26,4.59 76.44,5.05 75.67,5.63 74.92,6.21 74.17,6.79 73.44,7.4 72.72,8.03 L 72.68,7.99 Z M 72.68,7.99" />
            <path id="sue08Canvas-bezier35" stroke="none" fill="rgb(51, 91, 113)" d="M 75.2,16.36 C 75.47,16.54 75.7,16.79 75.94,16.99 76.18,17.2 76.43,17.4 76.69,17.59 77.21,17.96 77.78,18.26 78.38,18.45 78.98,18.64 79.61,18.72 80.24,18.7 80.55,18.71 80.86,18.63 81.24,18.69 81.59,18.75 81.91,18.87 82.21,19.02 83.41,19.65 84.38,20.57 85.22,21.58 85.62,22.09 86.01,22.62 86.35,23.18 86.51,23.46 86.67,23.75 86.81,24.05 86.93,24.36 87.09,24.66 87.06,25.01 L 87.01,25.01 C 86.95,24.71 86.76,24.43 86.59,24.17 86.42,23.91 86.23,23.65 86.03,23.4 85.64,22.89 85.24,22.4 84.8,21.93 83.94,21.01 83.08,20.04 82.01,19.41 81.74,19.26 81.46,19.14 81.17,19.08 80.91,19.02 80.57,19.08 80.24,19.06 79.58,19.05 78.91,18.94 78.29,18.71 77.67,18.48 77.1,18.13 76.59,17.72 76.34,17.52 76.09,17.3 75.86,17.07 75.63,16.84 75.43,16.6 75.17,16.4 L 75.2,16.36 Z M 75.2,16.36" />
            <path id="sue08Canvas-bezier36" stroke="none" fill="rgb(51, 91, 113)" d="M 88.17,20.46 C 89.03,20.74 89.83,21.24 90.43,21.93 91.02,22.62 91.36,23.55 91.25,24.47 91.16,25.39 90.67,26.22 90.11,26.92 89.57,27.64 88.99,28.34 88.45,29.06 87.38,30.49 86.47,32.08 86.05,33.83 85.63,35.56 85.69,37.39 86.1,39.13 86.3,40 86.6,40.85 86.82,41.73 87.06,42.61 87.26,43.49 87.41,44.39 87.71,46.18 87.82,48.02 87.52,49.83 87.22,51.64 86.44,53.38 85.26,54.79 84.68,55.5 84.01,56.13 83.29,56.7 82.93,56.99 82.55,57.22 82.28,57.54 82.01,57.86 81.79,58.23 81.66,58.63 81.38,59.44 81.38,60.34 81.48,61.21 81.58,62.09 81.78,62.96 82.03,63.82 82.51,65.54 83.15,67.23 83.74,68.94 84.32,70.65 84.91,72.38 85.17,74.2 85.3,75.11 85.34,76.07 85.09,77 84.97,77.46 84.77,77.92 84.47,78.31 84.19,78.71 83.76,79.01 83.43,79.27 82.07,80.36 81.03,81.87 80.27,83.47 79.52,85.08 79.03,86.82 78.81,88.59 78.59,90.36 78.65,92.18 79.09,93.91 79.52,95.63 80.41,97.28 81.81,98.43 L 81.78,98.47 C 80.32,97.37 79.35,95.72 78.85,93.97 78.36,92.21 78.27,90.36 78.46,88.55 78.65,86.74 79.12,84.95 79.86,83.28 80.62,81.62 81.65,80.04 83.09,78.84 83.46,78.55 83.79,78.32 84.03,77.98 84.28,77.65 84.45,77.27 84.56,76.86 84.78,76.04 84.75,75.15 84.63,74.28 84.38,72.53 83.8,70.82 83.22,69.12 82.65,67.41 82.03,65.71 81.55,63.95 81.31,63.08 81.11,62.18 81.01,61.27 80.92,60.35 80.93,59.4 81.24,58.49 81.4,58.04 81.64,57.61 81.96,57.26 82.12,57.08 82.31,56.91 82.49,56.77 L 83.03,56.37 C 83.73,55.83 84.39,55.22 84.95,54.54 86.1,53.18 86.86,51.52 87.16,49.77 87.47,48.02 87.38,46.21 87.1,44.44 86.95,43.56 86.76,42.68 86.54,41.81 86.32,40.94 86.02,40.09 85.83,39.19 85.43,37.42 85.38,35.54 85.84,33.77 86.28,32 87.22,30.39 88.32,28.96 88.87,28.24 89.45,27.55 90,26.84 90.57,26.15 91.04,25.35 91.14,24.46 91.25,23.57 90.94,22.67 90.36,21.99 89.79,21.3 89,20.8 88.15,20.51 L 88.17,20.46 Z M 88.17,20.46" />
            <path id="sue08Canvas-bezier37" stroke="none" fill="rgb(51, 91, 113)" d="M 85.43,9.62 C 85.92,9.93 86.38,10.29 86.8,10.69 87.22,11.1 87.61,11.55 87.95,12.02 88.3,12.49 88.65,12.97 88.87,13.52 89.09,14.06 89.26,14.63 89.29,15.23 L 89.24,15.25 C 88.92,14.75 88.65,14.25 88.38,13.76 88.1,13.27 87.88,12.75 87.59,12.26 87,11.3 86.28,10.4 85.4,9.67 L 85.43,9.62 Z M 85.43,9.62" />
            <path id="sue08Canvas-bezier38" stroke="none" fill="rgb(51, 91, 113)" d="M 91.09,13.23 C 90.43,12.4 89.76,11.58 89.08,10.77 88.73,10.37 88.35,10.01 88.03,9.61 87.87,9.42 87.7,9.22 87.53,9.06 87.48,9.01 87.47,9 87.4,8.95 87.33,8.91 87.28,8.87 87.22,8.82 87.12,8.73 87.02,8.64 86.93,8.53 L 86.96,8.49 C 87.09,8.52 87.22,8.57 87.34,8.6 87.41,8.62 87.47,8.64 87.52,8.66 87.58,8.66 87.68,8.7 87.74,8.73 88.02,8.87 88.22,9.05 88.43,9.24 88.83,9.61 89.11,10.07 89.42,10.51 90.04,11.38 90.6,12.28 91.13,13.2 L 91.09,13.23 Z M 91.09,13.23" />
            <path id="sue08Canvas-bezier39" stroke="none" fill="rgb(51, 91, 113)" d="M 81.95,3.1 C 82.09,2.88 82.34,2.74 82.59,2.7 82.84,2.65 83.1,2.69 83.34,2.75 83.83,2.89 84.25,3.17 84.67,3.43 85.51,3.97 86.31,4.54 87.12,5.11 87.92,5.68 88.72,6.26 89.53,6.82 89.73,6.95 89.94,7.09 90.14,7.21 90.24,7.27 90.36,7.34 90.43,7.36 90.66,7.44 90.71,7.59 90.8,7.69 91.08,8.14 91.27,8.59 91.48,9.04 92.29,10.85 92.99,12.71 93.76,14.49 93.81,14.6 93.86,14.7 93.91,14.8 93.94,14.85 93.97,14.9 93.99,14.94 94.01,14.96 94.05,15.01 94.09,15.06 94.27,15.28 94.4,15.5 94.52,15.73 94.75,16.2 94.92,16.69 95,17.19 95.18,18.2 95.04,19.26 94.6,20.15 L 94.55,20.13 C 94.84,19.19 94.86,18.2 94.63,17.27 94.5,16.81 94.34,16.36 94.1,15.96 93.99,15.76 93.85,15.56 93.71,15.4 93.68,15.36 93.63,15.32 93.57,15.25 93.52,15.18 93.49,15.13 93.45,15.07 93.38,14.95 93.32,14.84 93.26,14.73 92.4,12.91 91.82,11.03 91.07,9.21 90.88,8.77 90.69,8.3 90.46,7.91 90.4,7.81 90.33,7.71 90.31,7.73 90.15,7.67 90.06,7.6 89.94,7.53 89.73,7.4 89.53,7.25 89.33,7.11 88.52,6.53 87.74,5.93 86.95,5.33 86.17,4.73 85.39,4.13 84.58,3.57 84.17,3.29 83.77,3.01 83.31,2.86 83.08,2.79 82.84,2.75 82.6,2.78 82.37,2.81 82.13,2.93 82,3.13 L 81.95,3.1 Z M 81.95,3.1" />
            <path id="sue08Canvas-bezier40" stroke="none" fill="rgb(51, 91, 113)" d="M 94.64,30.25 C 94.41,28.67 94.22,27.08 94.1,25.49 94.03,24.69 93.94,23.89 93.98,23.09 94.02,22.29 94.09,21.48 94.35,20.7 L 94.41,20.71 94.53,23.09 C 94.56,23.88 94.53,24.67 94.54,25.47 94.57,27.06 94.62,28.65 94.69,30.24 L 94.64,30.25 Z M 94.64,30.25" />
            <path id="sue08Canvas-bezier41" stroke="none" fill="rgb(51, 91, 113)" d="M 93.73,30.54 C 94.38,32.15 95.19,33.7 96.07,35.19 96.96,36.68 97.94,38.11 99.02,39.45 100.11,40.8 101.32,42.03 102.57,43.22 103.81,44.41 105.17,45.48 106.59,46.49 L 106.56,46.54 C 104.97,45.79 103.53,44.77 102.2,43.62 100.87,42.47 99.73,41.12 98.67,39.72 97.62,38.33 96.67,36.85 95.83,35.32 95,33.79 94.26,32.2 93.68,30.56 L 93.73,30.54 Z M 93.73,30.54" />
            <path id="sue08Canvas-bezier42" stroke="none" fill="rgb(51, 91, 113)" d="M 86.57,37.66 C 90.1,41.82 93.62,46 97.12,50.19 98.87,52.29 100.65,54.36 102.35,56.5 104.03,58.65 105.73,60.79 107.31,63.03 L 107.26,63.06 C 105.44,61.02 103.68,58.93 101.92,56.85 100.17,54.76 98.48,52.6 96.78,50.47 L 86.53,37.69 86.57,37.66 Z M 86.57,37.66" />
            <path id="sue08Canvas-bezier43" stroke="none" fill="rgb(51, 91, 113)" d="M 107.72,46.3 C 107.85,46.38 107.86,46.5 107.9,46.61 107.94,46.72 107.97,46.83 108,46.94 108.05,47.17 108.1,47.39 108.14,47.62 108.22,48.07 108.29,48.53 108.36,48.98 108.49,49.89 108.59,50.81 108.69,51.72 108.86,53.55 109,55.39 109.08,57.23 109.15,59.07 109.23,60.91 109,62.77 108.92,63.24 108.85,63.7 108.67,64.17 108.62,64.29 108.57,64.4 108.48,64.52 108.44,64.58 108.38,64.64 108.31,64.7 108.23,64.76 108.11,64.79 108.08,64.79 107.84,64.86 107.54,64.87 107.29,64.79 106.77,64.64 106.43,64.24 106.18,63.84 105.94,63.43 105.76,63 105.66,62.54 L 105.71,62.53 C 105.89,62.95 106.11,63.35 106.38,63.7 106.65,64.05 106.99,64.35 107.38,64.42 107.58,64.46 107.76,64.44 107.96,64.38 108.03,64.35 108.03,64.35 108.04,64.34 108.06,64.33 108.08,64.3 108.11,64.26 108.15,64.19 108.19,64.1 108.22,64 108.35,63.61 108.41,63.15 108.45,62.71 108.61,60.91 108.65,59.07 108.64,57.24 108.61,55.41 108.54,53.58 108.41,51.74 108.36,50.83 108.29,49.91 108.19,49 108.15,48.55 108.1,48.09 108.03,47.64 108,47.41 107.96,47.18 107.92,46.96 107.86,46.75 107.84,46.48 107.7,46.35 L 107.72,46.3 Z M 107.72,46.3" />
            <path id="sue08Canvas-bezier44" stroke="none" fill="rgb(51, 91, 113)" d="M 108.9,47.13 C 110.34,48.35 111.83,49.52 113.36,50.63 114.12,51.18 114.9,51.72 115.7,52.21 116.5,52.7 117.33,53.17 118.2,53.47 118.41,53.54 118.67,53.62 118.88,53.73 119.1,53.83 119.31,53.95 119.52,54.08 119.92,54.33 120.31,54.6 120.69,54.89 121.45,55.46 122.18,56.08 122.89,56.7 124.31,57.96 125.67,59.28 126.99,60.64 128.32,61.99 129.61,63.38 130.84,64.83 131.45,65.55 132.05,66.29 132.61,67.07 132.89,67.47 133.15,67.86 133.38,68.31 133.61,68.77 133.76,69.21 133.9,69.68 134.41,71.54 134.45,73.61 133.6,75.39 133.18,76.27 132.54,77.04 131.79,77.63 131.03,78.23 130.16,78.65 129.27,78.97 L 129.25,78.92 C 130.98,78.19 132.54,76.94 133.25,75.23 133.98,73.53 133.91,71.59 133.37,69.84 133.24,69.4 133.08,68.95 132.89,68.56 132.68,68.17 132.42,67.78 132.15,67.4 131.61,66.64 131.02,65.9 130.42,65.18 129.23,63.72 127.97,62.32 126.68,60.94 125.38,59.58 124.04,58.24 122.65,56.97 121.95,56.34 121.24,55.72 120.5,55.14 119.75,54.58 119,53.99 118.11,53.74 117.2,53.4 116.38,52.91 115.58,52.4 114.79,51.88 114.01,51.33 113.26,50.76 111.75,49.62 110.29,48.42 108.87,47.17 L 108.9,47.13 Z M 108.9,47.13" />
            <path id="sue08Canvas-bezier45" stroke="none" fill="rgb(51, 91, 113)" d="M 122.34,76.31 C 121.38,75.98 120.38,75.75 119.38,75.58 118.38,75.41 117.37,75.3 116.37,75.29 115.86,75.28 115.36,75.3 114.86,75.34 114.36,75.39 113.82,75.41 113.29,75.35 113.02,75.32 112.75,75.27 112.48,75.14 112.34,75.08 112.2,74.99 112.09,74.85 111.98,74.71 111.92,74.53 111.93,74.37 111.93,74.06 112.04,73.82 112.12,73.58 112.2,73.34 112.28,73.11 112.19,72.88 L 112.24,72.85 C 112.42,73.07 112.39,73.38 112.36,73.63 112.33,73.89 112.27,74.15 112.31,74.34 112.35,74.7 112.87,74.78 113.34,74.81 113.83,74.84 114.32,74.81 114.83,74.8 115.35,74.79 115.87,74.81 116.38,74.85 118.45,74.99 120.47,75.48 122.36,76.26 L 122.34,76.31 Z M 122.34,76.31" />
            <path id="sue08Canvas-bezier46" stroke="none" fill="rgb(51, 91, 113)" d="M 120.58,72.51 L 116.12,72.46 C 114.64,72.42 113.16,72.4 111.66,72.26 111.29,72.22 110.92,72.17 110.54,72.1 110.16,72.01 109.78,71.95 109.39,71.65 109.29,71.56 109.2,71.43 109.16,71.27 109.12,71.1 109.16,70.95 109.22,70.83 109.31,70.6 109.52,70.4 109.5,70.4 109.55,70.23 109.41,69.85 109.24,69.56 108.91,68.94 108.45,68.36 108,67.79 107.54,67.22 107.05,66.66 106.55,66.1 L 106.59,66.06 C 107.2,66.5 107.75,67 108.28,67.53 108.81,68.07 109.3,68.63 109.72,69.29 109.82,69.47 109.91,69.64 109.98,69.84 110.05,70.04 110.11,70.27 110.04,70.56 110.02,70.64 109.96,70.75 109.94,70.77 109.92,70.8 109.93,70.78 109.88,70.85 L 109.84,70.89 C 109.79,70.95 109.75,71.01 109.73,71.06 109.69,71.17 109.68,71.16 109.76,71.25 109.94,71.42 110.31,71.54 110.65,71.62 111,71.71 111.36,71.77 111.72,71.83 113.17,72.01 114.66,72.09 116.14,72.19 L 120.58,72.46 120.58,72.51 Z M 120.58,72.51" />
            <path id="sue08Canvas-bezier47" stroke="none" fill="rgb(51, 91, 113)" d="M 104.51,61.47 C 104.21,62.29 104.31,63.2 104.72,63.89 104.92,64.24 105.23,64.49 105.53,64.74 105.83,65 106.18,65.2 106.58,65.42 L 106.57,65.48 C 106.11,65.55 105.63,65.44 105.21,65.19 104.79,64.95 104.51,64.51 104.32,64.09 103.94,63.22 104.01,62.21 104.46,61.45 L 104.51,61.47 Z M 104.51,61.47" />
            <path id="sue08Canvas-bezier48" stroke="none" fill="rgb(51, 91, 113)" d="M 128.7,78.97 C 126.4,79.5 124.07,79.89 121.73,80.17 119.39,80.44 117.03,80.6 114.67,80.57 112.31,80.55 109.92,80.38 107.61,79.8 106.47,79.51 105.33,79.22 104.19,78.9 103.63,78.73 103.06,78.56 102.5,78.38 102.22,78.28 101.94,78.19 101.66,78.08 101.53,78.03 101.39,77.97 101.25,77.91 101.22,77.89 101.18,77.87 101.15,77.85 101.14,77.84 101.13,77.84 101.11,77.8 101.1,77.78 101.11,77.75 101.13,77.74 101.14,77.74 101.15,77.73 101.16,77.73 101.17,77.73 101.17,77.73 101.18,77.73 101.21,77.74 101.22,77.74 101.24,77.75 101.28,77.76 101.32,77.78 101.35,77.81 101.37,77.83 101.39,77.86 101.38,77.9 101.37,77.93 101.35,77.94 101.33,77.95 L 101.3,77.91 C 101.35,77.87 101.28,77.85 101.22,77.83 101.2,77.83 101.19,77.82 101.17,77.82 101.17,77.82 101.17,77.82 101.17,77.82 101.17,77.82 101.18,77.82 101.18,77.82 101.2,77.81 101.21,77.79 101.2,77.77 101.19,77.75 101.2,77.76 101.2,77.76 101.23,77.78 101.26,77.79 101.3,77.8 101.43,77.85 101.57,77.89 101.71,77.93 102,78 102.28,78.07 102.57,78.14 103.14,78.27 103.71,78.4 104.29,78.52 L 107.73,79.27 C 110.01,79.77 112.33,80.05 114.68,80.13 117.02,80.21 119.37,80.11 121.7,79.9 124.04,79.69 126.38,79.38 128.68,78.91 L 128.7,78.97 Z M 128.7,78.97" />
            <path id="sue08Canvas-bezier49" stroke="none" fill="rgb(51, 91, 113)" d="M 104.49,74.6 C 103.74,74.91 102.95,75.11 102.16,75.26 101.37,75.42 100.56,75.53 99.82,75.8 99.07,76.04 98.43,76.54 98.07,77.22 97.98,77.39 97.92,77.56 97.79,77.76 97.67,77.95 97.53,78.12 97.37,78.26 97.05,78.56 96.69,78.78 96.32,78.98 94.83,79.72 93.25,80.11 91.73,80.6 90.22,81.07 88.7,81.65 87.58,82.82 L 87.54,82.79 C 87.97,82.09 88.63,81.54 89.33,81.11 90.03,80.68 90.8,80.37 91.56,80.08 93.09,79.51 94.7,79.23 96.13,78.58 96.48,78.41 96.82,78.22 97.1,77.97 97.24,77.85 97.37,77.71 97.47,77.56 97.57,77.43 97.65,77.22 97.76,77.04 98.18,76.3 98.94,75.76 99.73,75.53 100.52,75.29 101.33,75.22 102.13,75.1 102.92,74.98 103.71,74.82 104.47,74.55 L 104.49,74.6 Z M 104.49,74.6" />
            <path id="sue08Canvas-bezier50" stroke="none" fill="rgb(51, 91, 113)" d="M 87.56,52.5 C 89.79,52.5 92.01,52.78 94.19,53.32 95.27,53.58 96.36,53.89 97.38,54.38 98.39,54.88 99.36,55.49 100.16,56.27 L 100.12,56.32 C 99.15,55.78 98.17,55.3 97.15,54.89 96.14,54.47 95.13,54.06 94.07,53.74 93.02,53.42 91.94,53.17 90.85,52.98 89.77,52.78 88.67,52.63 87.56,52.56 L 87.56,52.5 Z M 87.56,52.5" />
            <path id="sue08Canvas-bezier51" stroke="none" fill="rgb(51, 91, 113)" d="M 91.99,82.15 C 91.75,83.27 91.59,84.41 91.52,85.55 91.45,86.7 91.47,87.85 91.67,88.97 91.77,89.54 91.93,90.07 92.14,90.62 92.33,91.17 92.44,91.74 92.54,92.31 92.73,93.45 92.84,94.6 92.9,95.75 93.02,98.06 92.96,100.37 92.72,102.67 92.47,104.96 92.07,107.26 91.22,109.43 91,109.97 90.75,110.51 90.46,111.02 90.15,111.51 89.93,112 89.74,112.53 89.36,113.59 89.14,114.71 89,115.84 88.7,118.09 88.71,120.39 88.84,122.67 88.96,124.95 89.22,127.24 89.67,129.48 89.78,130.04 89.91,130.6 90.1,131.12 90.14,131.25 90.2,131.38 90.26,131.49 90.32,131.58 90.45,131.73 90.46,131.94 90.48,132.17 90.29,132.33 90.16,132.4 90.02,132.48 89.88,132.53 89.74,132.57 89.17,132.74 88.6,132.8 88.09,133.04 87.84,133.15 87.61,133.34 87.6,133.62 87.59,133.89 87.74,134.15 87.9,134.38 L 87.86,134.41 C 87.68,134.19 87.51,133.93 87.5,133.61 87.49,133.28 87.76,133.03 88.02,132.9 88.55,132.62 89.13,132.52 89.66,132.34 89.91,132.26 90.21,132.1 90.18,131.96 90.17,131.87 90.1,131.79 90,131.65 89.92,131.51 89.86,131.37 89.8,131.24 89.58,130.69 89.43,130.13 89.29,129.56 88.76,127.31 88.47,125.01 88.29,122.71 88.16,120.4 88.15,118.08 88.46,115.77 88.62,114.62 88.86,113.47 89.27,112.37 89.48,111.82 89.75,111.26 90.05,110.78 90.34,110.3 90.59,109.79 90.81,109.27 91.66,107.17 92.09,104.9 92.37,102.63 92.63,100.35 92.71,98.06 92.63,95.77 92.58,94.62 92.5,93.48 92.32,92.35 92.24,91.78 92.13,91.22 91.96,90.68 91.76,90.15 91.59,89.57 91.5,89 91.32,87.86 91.32,86.7 91.41,85.55 91.5,84.4 91.67,83.26 91.94,82.14 L 91.99,82.15 Z M 91.99,82.15" />
            <path id="sue08Canvas-bezier52" stroke="none" fill="rgb(51, 91, 113)" d="M 89.71,134.4 C 89.68,135.19 89.62,135.98 89.53,136.77 89.47,137.16 89.41,137.56 89.31,137.95 89.27,138.14 89.21,138.34 89.14,138.54 89.06,138.73 88.99,138.93 88.8,139.13 88.71,139.22 88.52,139.32 88.34,139.28 88.25,139.27 88.24,139.26 88.2,139.26 88.16,139.26 88.12,139.26 88.09,139.26 87.93,139.27 87.78,139.31 87.64,139.39 87.37,139.55 87.2,139.8 87.21,140.09 87.2,140.38 87.38,140.71 87.59,141.01 87.81,141.31 88.09,141.59 88.37,141.88 L 88.34,141.92 C 87.97,141.77 87.62,141.55 87.31,141.27 87,140.99 86.71,140.62 86.66,140.12 86.64,139.87 86.7,139.6 86.84,139.38 86.98,139.17 87.18,139.01 87.39,138.91 87.61,138.81 87.85,138.76 88.09,138.77 88.15,138.77 88.21,138.78 88.27,138.79 88.33,138.8 88.42,138.82 88.43,138.83 88.43,138.83 88.45,138.84 88.5,138.8 88.71,138.61 88.85,138.21 88.97,137.85 89.08,137.48 89.17,137.1 89.25,136.72 89.42,135.95 89.55,135.17 89.66,134.39 L 89.71,134.4 Z M 89.71,134.4" />
            <path id="sue08Canvas-bezier53" stroke="none" fill="rgb(51, 91, 113)" d="M 90.19,139.5 C 90.29,139.55 90.27,139.65 90.29,139.72 90.31,139.79 90.31,139.86 90.32,139.94 L 90.34,140.38 90.36,141.27 C 90.38,141.86 90.4,142.44 90.44,143.03 90.53,144.2 90.68,145.38 90.98,146.5 91.13,147.07 91.31,147.62 91.56,148.15 91.8,148.66 92.13,149.18 92.36,149.73 92.83,150.83 93.17,151.97 93.44,153.13 93.7,154.29 93.9,155.47 93.98,156.67 93.99,156.97 94,157.27 93.99,157.58 93.97,157.89 93.97,158.19 93.83,158.55 93.79,158.64 93.75,158.76 93.56,158.86 93.52,158.89 93.46,158.9 93.41,158.91 L 93.35,158.91 93.22,158.91 C 93.06,158.91 92.91,158.9 92.76,158.89 L 91.87,158.81 C 90.7,158.68 89.53,158.57 88.36,158.48 87.77,158.44 87.18,158.4 86.6,158.41 86.02,158.42 85.42,158.41 84.89,158.65 L 84.86,158.6 C 85.38,158.28 86,158.23 86.59,158.16 87.18,158.11 87.78,158.1 88.37,158.1 89.56,158.1 90.74,158.19 91.92,158.27 L 92.8,158.33 C 92.94,158.34 93.09,158.35 93.22,158.35 L 93.31,158.35 93.36,158.34 C 93.35,158.34 93.32,158.35 93.31,158.35 93.26,158.39 93.3,158.37 93.31,158.32 93.38,158.13 93.42,157.83 93.43,157.56 93.45,157.27 93.44,156.98 93.43,156.7 93.39,155.54 93.24,154.37 93.01,153.23 92.77,152.08 92.46,150.95 92.03,149.87 91.82,149.32 91.52,148.83 91.27,148.28 91.03,147.72 90.85,147.15 90.71,146.57 90.44,145.41 90.33,144.22 90.28,143.04 90.26,142.45 90.25,141.86 90.25,141.27 L 90.26,140.38 90.25,139.94 C 90.24,139.81 90.24,139.61 90.18,139.55 L 90.19,139.5 Z M 90.19,139.5" />
            <path id="sue08Canvas-bezier54" stroke="none" fill="rgb(51, 91, 113)" d="M 60.58,163.29 C 60.02,162.88 59.33,162.7 58.65,162.64 57.96,162.58 57.27,162.62 56.58,162.69 55.2,162.83 53.84,163.09 52.46,163.28 51.09,163.47 49.69,163.61 48.3,163.52 46.9,163.44 45.49,163.08 44.3,162.31 43.7,161.92 43.17,161.44 42.72,160.9 42.28,160.35 41.85,159.83 41.34,159.37 40.34,158.44 39.17,157.7 37.92,157.12 35.42,155.98 32.66,155.46 29.92,155.38 29.23,155.36 28.55,155.38 27.87,155.44 27.53,155.48 27.19,155.53 26.87,155.6 26.72,155.64 26.55,155.69 26.46,155.75 L 26.43,155.78 C 26.42,155.76 26.37,155.88 26.16,155.85 26.05,155.81 25.99,155.73 25.98,155.69 25.96,155.65 25.95,155.62 25.95,155.6 25.94,155.55 25.94,155.52 25.94,155.49 25.95,155.37 25.96,155.28 25.98,155.19 26.26,153.79 26.68,152.49 27.05,151.15 27.83,148.48 28.62,145.83 29.26,143.14 29.59,141.8 29.91,140.45 30.04,139.1 30.06,138.76 30.08,138.43 30.04,138.1 30.01,137.75 29.99,137.4 29.97,137.05 29.93,136.36 29.91,135.66 29.91,134.97 29.9,133.57 29.93,132.18 30.02,130.8 30.07,130.1 30.12,129.41 30.21,128.72 30.26,128.37 30.31,128.03 30.38,127.69 30.42,127.52 30.46,127.35 30.52,127.18 30.55,127.1 30.58,127.01 30.62,126.94 30.67,126.86 30.73,126.76 30.85,126.77 L 30.84,126.82 C 30.7,126.84 30.64,127.06 30.59,127.2 30.55,127.37 30.51,127.54 30.49,127.71 30.43,128.05 30.39,128.39 30.37,128.74 30.31,129.42 30.28,130.12 30.27,130.81 30.23,132.19 30.24,133.58 30.29,134.96 30.32,135.65 30.35,136.34 30.4,137.03 30.43,137.37 30.46,137.71 30.49,138.05 30.54,138.41 30.53,138.78 30.51,139.13 30.4,140.55 30.1,141.91 29.8,143.27 29.14,145.98 28.35,148.64 27.57,151.3 27.18,152.62 26.75,153.96 26.46,155.28 26.44,155.36 26.43,155.44 26.43,155.5 26.43,155.51 26.43,155.52 26.43,155.52 26.43,155.52 26.43,155.51 26.42,155.49 26.41,155.47 26.37,155.4 26.28,155.38 26.12,155.35 26.1,155.43 26.13,155.39 L 26.2,155.34 C 26.41,155.22 26.58,155.18 26.76,155.14 27.12,155.06 27.47,155.01 27.82,154.98 28.53,154.92 29.23,154.91 29.93,154.94 32.73,155.05 35.52,155.61 38.07,156.8 39.34,157.4 40.53,158.17 41.56,159.14 42.07,159.62 42.53,160.17 42.94,160.71 43.37,161.24 43.88,161.7 44.45,162.08 45.58,162.83 46.94,163.2 48.31,163.3 49.68,163.41 51.07,163.29 52.44,163.12 53.81,162.95 55.18,162.71 56.57,162.58 57.26,162.52 57.96,162.49 58.66,162.56 59.35,162.63 60.05,162.82 60.61,163.25 L 60.58,163.29 Z M 60.58,163.29" />
            <path id="sue08Canvas-bezier55" stroke="none" fill="rgb(51, 91, 113)" d="M 32.91,128.9 C 32.31,127.52 31.65,126.17 30.88,124.88 30.49,124.24 30.08,123.6 29.57,123.06 28.98,122.56 28.7,121.78 28.58,121.05 28.32,119.55 28.39,118.04 28.22,116.55 28.11,115.05 27.52,113.65 26.97,112.26 26.4,110.87 25.79,109.49 25.28,108.07 24.75,106.65 24.38,105.19 23.96,103.75 23.12,100.86 22.3,97.97 21.51,95.06 20.72,92.16 19.97,89.25 19.28,86.32 18.6,83.38 17.96,80.44 17.55,77.45 17.44,76.7 17.38,75.94 17.31,75.2 17.23,74.46 17.1,73.72 16.94,73 16.62,71.54 16.16,70.11 15.62,68.72 14.53,65.93 13.11,63.28 11.53,60.73 10.74,59.46 9.9,58.22 9.02,57 8.58,56.39 8.14,55.79 7.68,55.2 7.46,54.9 7.21,54.61 6.99,54.29 6.76,53.97 6.58,53.64 6.4,53.3 5.7,51.93 5.2,50.5 4.73,49.06 4.27,47.62 3.87,46.17 3.49,44.71 2.75,41.79 2.13,38.84 1.58,35.87 1.31,34.39 1.06,32.91 0.84,31.41 0.72,30.67 0.65,29.9 0.56,29.18 0.45,28.45 0.3,27.71 0.17,26.96 0.06,26.21 -0.03,25.44 0.01,24.66 0.05,23.88 0.24,23.08 0.64,22.39 1.43,20.98 2.85,20.14 4.25,19.56 5.67,18.99 7.15,18.64 8.64,18.37 10.13,18.1 11.63,17.92 13.14,17.83 14.65,17.75 16.17,17.77 17.67,17.89 19.18,18.01 20.67,18.26 22.16,18.45 22.9,18.55 23.65,18.62 24.38,18.57 24.75,18.54 25.12,18.48 25.47,18.37 25.82,18.26 26.15,18.08 26.5,17.93 27.19,17.62 27.9,17.35 28.62,17.14 29.34,16.93 30.08,16.75 30.85,16.75 L 30.84,16.8 C 30.1,16.82 29.36,17.01 28.65,17.24 27.94,17.46 27.24,17.75 26.56,18.07 26.22,18.22 25.89,18.41 25.53,18.53 25.16,18.66 24.78,18.73 24.4,18.77 23.64,18.84 22.88,18.78 22.13,18.7 20.63,18.53 19.14,18.3 17.65,18.2 16.16,18.09 14.66,18.08 13.16,18.18 11.67,18.28 10.18,18.49 8.71,18.77 7.24,19.05 5.79,19.41 4.42,19.98 3.07,20.55 1.76,21.37 1.07,22.63 0.37,23.89 0.46,25.42 0.72,26.87 0.83,27.61 0.99,28.34 1.1,29.1 1.2,29.87 1.27,30.59 1.38,31.34 1.6,32.82 1.85,34.3 2.12,35.78 2.67,38.73 3.29,41.67 4.02,44.58 4.38,46.03 4.78,47.48 5.22,48.91 5.68,50.33 6.17,51.75 6.83,53.07 7,53.4 7.19,53.72 7.39,54.01 7.6,54.32 7.83,54.6 8.06,54.91 8.52,55.51 8.96,56.12 9.4,56.73 10.27,57.96 11.11,59.22 11.9,60.5 13.49,63.07 14.9,65.75 15.99,68.58 16.53,69.99 16.99,71.44 17.31,72.92 17.47,73.66 17.59,74.41 17.67,75.16 17.74,75.92 17.8,76.66 17.9,77.4 18.3,80.37 18.92,83.32 19.59,86.25 20.26,89.18 21,92.09 21.77,95 22.54,97.9 23.35,100.8 24.17,103.69 24.58,105.14 24.95,106.6 25.46,108.01 25.96,109.42 26.56,110.8 27.12,112.2 27.67,113.59 28.25,115.02 28.36,116.54 28.52,118.04 28.44,119.55 28.69,121.03 28.81,121.76 29.07,122.5 29.64,122.99 30.16,123.55 30.56,124.19 30.95,124.84 31.72,126.14 32.37,127.49 32.96,128.88 L 32.91,128.9 Z M 32.91,128.9" />
            <path id="sue08Canvas-bezier56" stroke="none" fill="rgb(51, 91, 113)" d="M 30.3,17.73 C 29.77,19.25 29.3,20.79 28.89,22.34 28.47,23.89 28.11,25.45 27.86,27.03 27.62,28.61 27.49,30.21 27.62,31.77 27.68,32.55 27.77,33.36 28.08,34.03 28.23,34.36 28.49,34.62 28.84,34.51 29.19,34.43 29.51,34.15 29.78,33.86 L 29.82,33.89 C 29.61,34.24 29.34,34.57 28.92,34.75 28.71,34.84 28.43,34.83 28.22,34.71 28,34.59 27.86,34.4 27.74,34.22 27.3,33.46 27.19,32.63 27.07,31.82 26.87,30.18 27.13,28.54 27.43,26.96 28.05,23.78 29.06,20.7 30.25,17.71 L 30.3,17.73 Z M 30.3,17.73" />
            <path id="sue08Canvas-bezier57" stroke="none" fill="rgb(51, 91, 113)" d="M 27.26,35.5 C 27.13,35.2 26.86,34.96 26.56,34.82 26.26,34.68 25.93,34.63 25.6,34.63 24.94,34.63 24.27,34.82 23.66,35.05 23.35,35.17 23.07,35.33 22.84,35.55 22.61,35.77 22.34,36.05 22.01,36.21 21.36,36.52 20.65,36.68 19.94,36.66 18.53,36.64 17.16,36.28 15.91,35.67 14.67,35.05 13.51,34.23 12.67,33.13 L 12.71,33.1 C 13.76,33.96 14.91,34.66 16.14,35.18 17.35,35.69 18.63,36.14 19.95,36.22 20.6,36.26 21.26,36.15 21.85,35.89 22.14,35.76 22.36,35.55 22.63,35.31 22.9,35.07 23.23,34.91 23.56,34.79 24.22,34.58 24.9,34.43 25.6,34.47 25.95,34.49 26.3,34.56 26.61,34.73 26.92,34.89 27.19,35.15 27.31,35.48 L 27.26,35.5 Z M 27.26,35.5" />
            <path id="sue08Canvas-bezier58" stroke="none" fill="rgb(51, 91, 113)" d="M 22.39,37.7 C 21.16,37.86 19.93,37.95 18.7,37.99 18.08,38 17.45,38.05 16.83,37.95 16.22,37.84 15.58,37.71 15.05,37.32 L 15.08,37.27 C 15.69,37.37 16.28,37.37 16.89,37.4 17.49,37.42 18.09,37.51 18.7,37.55 19.92,37.61 21.15,37.64 22.38,37.65 L 22.39,37.7 Z M 22.39,37.7" />
            <path id="sue08Canvas-bezier59" stroke="none" fill="rgb(51, 91, 113)" d="M 47.79,63.58 C 49.08,65.99 50.38,68.4 51.81,70.72 52.53,71.88 53.3,73 54.07,74.11 54.83,75.23 55.66,76.3 56.62,77.27 L 56.59,77.32 C 55.41,76.58 54.48,75.51 53.63,74.44 52.78,73.34 52.1,72.14 51.43,70.95 50.08,68.55 48.89,66.09 47.74,63.61 L 47.79,63.58 Z M 47.79,63.58" />
            <path id="sue08Canvas-bezier60" stroke="none" fill="rgb(51, 91, 113)" d="M 23.44,37.74 C 23.95,37.72 24.43,38.05 24.68,38.48 24.94,38.92 25.04,39.42 25.08,39.92 25.13,40.41 25.11,40.91 25.06,41.41 25.01,41.9 24.91,42.38 24.91,42.86 24.89,43.82 25.14,44.77 25.63,45.59 26.12,46.41 26.8,47.1 27.57,47.68 29.13,48.81 30.97,49.52 32.85,49.89 34.76,50.31 36.74,50.64 38.55,51.45 L 38.53,51.5 C 36.63,50.99 34.7,50.76 32.75,50.43 30.77,50.11 28.89,49.25 27.3,48.02 26.52,47.4 25.81,46.65 25.32,45.77 24.83,44.88 24.58,43.86 24.64,42.85 24.65,42.34 24.78,41.86 24.84,41.38 24.91,40.9 24.94,40.41 24.92,39.93 24.9,39.45 24.81,38.96 24.58,38.54 24.36,38.12 23.93,37.79 23.44,37.8 L 23.44,37.74 Z M 23.44,37.74" />
            <path id="sue08Canvas-bezier61" stroke="none" fill="rgb(51, 91, 113)" d="M 51.26,56.88 C 52.79,58.68 54.59,60.24 56.55,61.55 58.5,62.86 60.66,63.91 62.95,64.35 64.09,64.57 65.26,64.62 66.4,64.46 66.97,64.38 67.55,64.25 68.09,64.09 68.65,63.93 69.18,63.72 69.67,63.44 70.16,63.16 70.6,62.81 70.92,62.36 71.24,61.91 71.4,61.37 71.44,60.81 71.47,60.25 71.37,59.68 71.19,59.12 71.02,58.58 70.77,58.02 70.45,57.56 L 70.47,57.51 C 71.27,58.42 71.78,59.57 71.82,60.82 71.83,61.45 71.66,62.09 71.31,62.62 70.97,63.16 70.48,63.59 69.95,63.91 67.78,65.12 65.21,65.31 62.86,64.78 60.5,64.27 58.34,63.14 56.39,61.78 54.45,60.4 52.7,58.77 51.21,56.91 L 51.26,56.88 Z M 51.26,56.88" />
            <path id="sue08Canvas-bezier62" stroke="none" fill="rgb(51, 91, 113)" d="M 46.65,53.06 C 47.02,52.91 47.43,52.83 47.84,52.87 48.25,52.91 48.65,53.09 48.97,53.36 49.29,53.62 49.56,53.95 49.73,54.32 49.9,54.7 50.03,55.05 50.18,55.43 L 50.16,55.44 C 49.88,55.15 49.68,54.77 49.49,54.45 49.29,54.12 49.1,53.79 48.82,53.52 48.55,53.26 48.2,53.07 47.82,53 47.44,52.93 47.04,52.97 46.66,53.09 L 46.65,53.06 Z M 46.65,53.06" />
            <path id="sue08Canvas-bezier63" stroke="none" fill="rgb(51, 91, 113)" d="M 72.55,56.29 C 72.9,55 73.36,53.71 74.19,52.61 74.6,52.08 75.2,51.55 75.97,51.54 76.35,51.53 76.72,51.66 77.02,51.84 L 77.89,52.35 C 78.18,52.52 78.47,52.69 78.76,52.84 79.04,52.99 79.35,53.15 79.6,53.2 79.73,53.21 79.79,53.21 79.85,53.15 79.92,53.1 79.99,52.97 80.05,52.84 80.12,52.7 80.17,52.57 80.25,52.39 80.27,52.32 80.32,52.22 80.38,52.13 80.44,52.05 80.5,51.97 80.56,51.89 81.1,51.34 81.8,51.09 82.49,50.99 82.84,50.95 83.2,50.95 83.55,51.03 83.72,51.07 83.89,51.13 84.04,51.24 84.2,51.35 84.3,51.53 84.29,51.71 L 84.24,51.72 C 84.16,51.39 83.81,51.29 83.51,51.27 83.19,51.25 82.87,51.29 82.56,51.37 81.95,51.52 81.34,51.8 80.98,52.25 80.93,52.31 80.89,52.37 80.85,52.42 80.82,52.47 80.79,52.52 80.76,52.61 80.71,52.74 80.64,52.92 80.57,53.09 80.49,53.25 80.39,53.43 80.2,53.59 80,53.76 79.69,53.78 79.5,53.73 79.1,53.63 78.81,53.44 78.51,53.27 78.22,53.09 77.94,52.91 77.66,52.73 L 76.82,52.18 C 76.56,52.01 76.27,51.9 75.97,51.89 75.37,51.88 74.81,52.29 74.4,52.78 73.56,53.78 73.02,55.04 72.6,56.31 L 72.55,56.29 Z M 72.55,56.29" />
            <path id="sue08Canvas-bezier64" stroke="none" fill="rgb(51, 91, 113)" d="M 49.3,31.14 C 48.51,31.93 47.81,32.83 47.22,33.78 46.63,34.74 46.16,35.78 45.93,36.87 45.7,37.96 45.76,39.12 46.19,40.14 46.39,40.66 46.69,41.12 47.03,41.57 47.37,42.03 47.67,42.51 47.96,43 49.08,44.98 49.88,47.13 50.42,49.33 50.93,51.54 51.22,53.85 50.81,56.13 50.59,57.25 50.16,58.4 49.32,59.27 49.11,59.49 48.87,59.66 48.66,59.84 48.48,60 48.29,60.21 48.14,60.42 47.81,60.85 47.56,61.34 47.35,61.84 46.5,63.87 46.25,66.14 46.28,68.36 46.29,70.59 46.62,72.83 47.34,74.94 47.7,75.99 48.17,77.02 48.79,77.95 49.4,78.88 50.17,79.72 51.11,80.34 L 51.08,80.39 C 50.1,79.82 49.26,79.01 48.58,78.09 47.91,77.16 47.39,76.13 46.98,75.07 46.17,72.93 45.8,70.65 45.73,68.37 45.71,66.09 45.95,63.78 46.85,61.63 47.08,61.09 47.36,60.58 47.73,60.11 47.91,59.87 48.1,59.66 48.34,59.45 48.57,59.26 48.79,59.11 48.97,58.92 49.73,58.17 50.15,57.11 50.38,56.04 50.8,53.87 50.55,51.59 50.07,49.41 49.57,47.23 48.8,45.1 47.72,43.14 47.45,42.65 47.15,42.17 46.83,41.71 46.5,41.26 46.19,40.76 45.99,40.22 45.56,39.15 45.52,37.95 45.77,36.84 46.02,35.72 46.52,34.68 47.13,33.73 47.74,32.77 48.45,31.89 49.27,31.1 L 49.3,31.14 Z M 49.3,31.14" />
            <path id="sue08Canvas-bezier65" stroke="none" fill="rgb(51, 91, 113)" d="M 45.73,43.59 C 45.07,44.3 44.51,45.1 44.09,45.97 43.67,46.84 43.4,47.8 43.53,48.75 43.64,49.71 44.22,50.53 44.98,51.11 45.74,51.75 46.32,52.63 46.54,53.61 46.77,54.59 46.67,55.61 46.42,56.57 46.17,57.53 45.77,58.44 45.29,59.3 44.82,60.16 44.27,60.98 43.68,61.76 43.39,62.15 43.03,62.52 42.8,62.9 42.55,63.29 42.36,63.73 42.19,64.17 41.54,65.97 41.25,67.9 41.11,69.82 40.97,71.74 40.99,73.68 41.2,75.59 41.4,77.5 41.81,79.4 42.5,81.2 43.2,82.98 44.22,84.67 45.72,85.92 L 45.69,85.96 C 44.9,85.39 44.2,84.69 43.61,83.9 43.02,83.11 42.54,82.24 42.14,81.34 41.36,79.53 40.91,77.6 40.66,75.65 40.42,73.7 40.39,71.73 40.57,69.77 40.75,67.82 41.08,65.87 41.78,64.02 41.96,63.56 42.17,63.1 42.45,62.67 42.74,62.23 43.07,61.9 43.36,61.51 43.96,60.76 44.51,59.96 44.98,59.12 45.45,58.29 45.86,57.41 46.11,56.49 46.37,55.57 46.47,54.6 46.27,53.67 46.08,52.75 45.56,51.9 44.84,51.28 44.07,50.67 43.46,49.77 43.36,48.77 43.25,47.77 43.55,46.79 43.99,45.92 44.43,45.05 45.01,44.25 45.69,43.55 L 45.73,43.59 Z M 45.73,43.59" />
            <path id="sue08Canvas-bezier66" stroke="none" fill="rgb(51, 91, 113)" d="M 42.28,33.11 C 42.79,35 42.91,36.98 42.72,38.93 42.62,39.91 42.43,40.88 42.1,41.82 41.94,42.28 41.74,42.74 41.48,43.17 41.36,43.38 41.22,43.59 41.07,43.79 40.91,43.99 40.75,44.17 40.64,44.36 40.18,45.16 40.1,46.16 40.08,47.11 40.07,48.07 40.16,49.04 40.3,49.99 40.58,51.91 41.03,53.81 41.56,55.66 L 41.58,55.72 41.57,55.78 C 41.44,56.88 41.26,57.97 41.05,59.06 40.84,60.15 40.57,61.22 40.27,62.29 39.97,63.36 39.61,64.41 39.15,65.43 38.92,65.94 38.67,66.43 38.36,66.9 38.05,67.36 37.69,67.8 37.23,68.13 L 37.2,68.08 C 38.03,67.35 38.46,66.31 38.87,65.31 39.26,64.29 39.55,63.23 39.82,62.17 40.09,61.11 40.29,60.03 40.5,58.95 40.7,57.88 40.88,56.79 41.03,55.71 L 41.04,55.82 C 40.52,53.92 40.12,52 39.88,50.05 39.76,49.08 39.68,48.09 39.71,47.1 39.74,46.12 39.84,45.1 40.36,44.19 41.7,42.72 42.28,40.84 42.52,38.91 42.76,36.99 42.69,35.01 42.22,33.12 L 42.28,33.11 Z M 42.28,33.11" />
            <path id="sue08Canvas-bezier67" stroke="none" fill="rgb(51, 91, 113)" d="M 82.87,40.63 C 82.63,41.36 82.42,42.1 82.25,42.84 82.06,43.58 81.9,44.32 81.78,45.07 81.67,45.82 81.63,46.57 81.58,47.31 81.54,48.06 81.53,48.79 81.72,49.54 L 81.68,49.57 C 81.19,48.92 81.06,48.08 81.03,47.31 81.01,46.51 81.18,45.74 81.35,44.99 81.7,43.48 82.2,42.02 82.81,40.61 L 82.87,40.63 Z M 82.87,40.63" />
            <path id="sue08Canvas-bezier68" stroke="none" fill="rgb(51, 91, 113)" d="M 75.92,54.86 C 77.16,56.61 78.25,58.49 78.85,60.58 79.12,61.62 79.27,62.77 78.87,63.84 78.77,64.1 78.63,64.36 78.45,64.59 78.28,64.82 78.05,65 77.91,65.19 77.59,65.57 77.36,66.04 77.2,66.53 76.9,67.51 76.83,68.58 76.87,69.62 76.92,70.67 77.06,71.72 77.3,72.74 77.52,73.77 77.85,74.78 78.31,75.72 78.54,76.19 78.82,76.64 79.17,77.02 79.51,77.41 79.96,77.72 80.49,77.75 L 80.49,77.81 C 79.93,77.87 79.39,77.56 78.99,77.2 78.58,76.82 78.26,76.37 77.97,75.9 77.42,74.96 77.05,73.92 76.76,72.87 76.5,71.81 76.34,70.73 76.33,69.64 76.32,68.55 76.42,67.44 76.79,66.39 76.97,65.86 77.23,65.35 77.61,64.92 77.81,64.7 78,64.55 78.15,64.35 78.31,64.16 78.44,63.94 78.54,63.71 78.93,62.76 78.82,61.66 78.58,60.65 78.07,58.59 77.05,56.67 75.88,54.89 L 75.92,54.86 Z M 75.92,54.86" />
            <path id="sue08Canvas-bezier69" stroke="none" fill="rgb(51, 91, 113)" d="M 75.92,73.32 C 75.15,74.28 74.46,75.3 73.85,76.36 73.25,77.42 72.73,78.54 72.43,79.72 72.13,80.88 72.08,82.16 72.67,83.19 72.96,83.69 73.39,84.11 73.89,84.42 74.42,84.76 74.92,85.19 75.31,85.69 76.12,86.69 76.55,87.94 76.72,89.19 76.89,90.45 76.79,91.72 76.53,92.95 76.24,94.17 75.81,95.36 75.18,96.44 74.55,97.51 73.73,98.55 72.59,99.08 L 72.56,99.03 C 73.08,98.71 73.52,98.28 73.89,97.8 74.26,97.32 74.58,96.8 74.84,96.26 75.38,95.18 75.77,94.02 75.99,92.84 76.22,91.66 76.3,90.44 76.18,89.26 76.05,88.07 75.68,86.9 74.97,85.96 74.61,85.48 74.17,85.09 73.67,84.76 73.14,84.41 72.67,83.93 72.36,83.36 71.72,82.2 71.83,80.83 72.16,79.65 72.51,78.45 73.07,77.33 73.71,76.28 74.35,75.22 75.08,74.22 75.88,73.29 L 75.92,73.32 Z M 75.92,73.32" />
            <path id="sue08Canvas-bezier70" stroke="none" fill="rgb(51, 91, 113)" d="M 65.15,26.51 C 66.33,27.32 67.51,28.14 68.7,28.93 69.3,29.33 69.92,29.69 70.49,30.11 71.07,30.51 71.61,30.98 72.23,31.33 L 72.22,31.38 C 71.84,31.37 71.49,31.21 71.15,31.07 70.82,30.93 70.5,30.75 70.19,30.57 69.56,30.2 69.01,29.73 68.44,29.29 67.3,28.41 66.19,27.49 65.11,26.55 L 65.15,26.51 Z M 65.15,26.51" />
            <path id="sue08Canvas-bezier71" stroke="none" fill="rgb(51, 91, 113)" d="M 73.19,32.41 C 73.69,32.11 74.16,31.77 74.54,31.39 74.74,31.19 74.86,30.95 75.02,30.77 75.18,30.57 75.31,30.38 75.44,30.09 L 75.5,30.08 C 75.67,30.37 75.63,30.76 75.49,31.05 75.35,31.36 75.07,31.54 74.83,31.72 74.33,32.07 73.78,32.31 73.21,32.46 L 73.19,32.41 Z M 73.19,32.41" />
            <path id="sue08Canvas-bezier72" stroke="none" fill="rgb(51, 91, 113)" d="M 75.42,32.97 C 75.71,32.77 75.96,32.54 76.15,32.29 76.24,32.16 76.27,32.01 76.36,31.91 L 76.69,31.53 76.74,31.52 C 76.9,31.7 76.91,31.94 76.86,32.14 76.8,32.36 76.61,32.48 76.46,32.6 76.15,32.83 75.8,32.96 75.44,33.02 L 75.42,32.97 Z M 75.42,32.97" />
            <path id="sue08Canvas-bezier73" stroke="none" fill="rgb(51, 91, 113)" d="M 77.14,34.17 C 78.08,34.37 79.03,34.52 79.97,34.58 80.44,34.61 80.9,34.56 81.36,34.57 81.81,34.56 82.25,34.55 82.71,34.38 L 82.74,34.42 C 82.44,34.86 81.89,35.04 81.4,35.12 80.9,35.2 80.4,35.1 79.92,35.02 78.95,34.86 78.03,34.58 77.13,34.23 L 77.14,34.17 Z M 77.14,34.17" />
            <path id="sue08Canvas-bezier74" stroke="none" fill="rgb(51, 91, 113)" d="M 75.56,34.42 C 75.55,34.66 75.53,34.89 75.46,35.13 75.39,35.35 75.3,35.61 75.06,35.75 74.9,35.84 74.81,36.09 74.73,36.29 74.66,36.51 74.6,36.73 74.54,36.96 74.33,37.86 74.21,38.8 74.24,39.7 74.25,39.93 74.27,40.15 74.33,40.36 74.39,40.59 74.45,40.82 74.5,41.06 74.59,41.53 74.64,42.03 74.58,42.53 74.52,43.04 74.32,43.56 73.94,43.92 73.57,44.29 73.08,44.48 72.61,44.55 L 72.59,44.49 C 73.02,44.28 73.4,44.02 73.65,43.67 73.9,43.32 74.01,42.91 74.04,42.48 74.07,42.05 74.02,41.6 73.96,41.15 73.93,40.92 73.89,40.69 73.85,40.46 73.8,40.21 73.79,39.95 73.8,39.71 73.82,38.74 74.01,37.8 74.28,36.88 74.35,36.66 74.43,36.43 74.53,36.21 74.64,36 74.72,35.75 74.98,35.6 75.16,35.52 75.28,35.3 75.36,35.09 75.44,34.88 75.48,34.65 75.5,34.42 L 75.56,34.42 Z M 75.56,34.42" />
            <path id="sue08Canvas-bezier75" stroke="none" fill="rgb(51, 91, 113)" d="M 69.61,42.89 C 69.35,42.76 69.07,42.64 68.82,42.56 68.69,42.52 68.55,42.54 68.47,42.49 68.38,42.45 68.35,42.36 68.14,42.37 L 68.1,42.33 C 68.06,42.1 68.36,41.93 68.55,41.95 68.76,41.94 68.9,42.08 69.02,42.17 69.28,42.36 69.48,42.59 69.65,42.84 L 69.61,42.89 Z M 69.61,42.89" />
            <path id="sue08Canvas-bezier76" stroke="none" fill="rgb(51, 91, 113)" d="M 66.98,39.96 C 66.92,40.44 66.93,40.92 67.01,41.35 67.06,41.58 67.18,41.76 67.22,41.96 L 67.4,42.63 67.36,42.67 C 67.08,42.62 66.85,42.42 66.71,42.18 66.57,41.94 66.58,41.65 66.58,41.39 66.58,40.88 66.71,40.39 66.93,39.95 L 66.98,39.96 Z M 66.98,39.96" />
            <path id="sue08Canvas-bezier77" stroke="none" fill="rgb(51, 91, 113)" d="M 61.82,44.77 C 63.51,45.46 65.21,46.13 66.92,46.76 67.77,47.06 68.64,47.33 69.49,47.64 70.34,47.94 71.17,48.31 72.06,48.45 L 72.07,48.5 C 71.6,48.61 71.12,48.54 70.67,48.48 70.21,48.41 69.76,48.29 69.32,48.16 68.43,47.91 67.59,47.53 66.75,47.16 65.07,46.44 63.42,45.66 61.8,44.82 L 61.82,44.77 Z M 61.82,44.77" />
            <path id="sue08Canvas-bezier78" stroke="none" fill="rgb(51, 91, 113)" d="M 64.22,48.26 C 64.69,48.47 65.19,48.63 65.68,48.79 66.17,48.96 66.67,49.11 67.16,49.26 67.66,49.4 68.17,49.48 68.65,49.64 69.14,49.79 69.6,49.96 70.12,50.04 L 70.13,50.1 C 69.61,50.32 69.04,50.26 68.52,50.18 67.99,50.09 67.51,49.86 67.02,49.67 66.53,49.48 66.05,49.27 65.58,49.04 65.11,48.81 64.64,48.59 64.19,48.31 L 64.22,48.26 Z M 64.22,48.26" />
            <path id="sue08Canvas-bezier79" stroke="none" fill="rgb(51, 91, 113)" d="M 63.7,29.95 C 64.6,30.5 65.53,31.01 66.47,31.46 66.95,31.68 67.44,31.84 67.9,32.06 68.37,32.28 68.83,32.49 69.34,32.69 L 69.33,32.75 C 68.78,32.85 68.22,32.74 67.7,32.58 67.18,32.41 66.73,32.11 66.27,31.84 65.35,31.3 64.48,30.67 63.67,30 L 63.7,29.95 Z M 63.7,29.95" />
            <path id="sue08Canvas-bezier80" stroke="none" fill="rgb(51, 91, 113)" d="M 77.04,35.99 C 77.72,36.36 78.43,36.69 79.14,36.96 79.5,37.08 79.88,37.15 80.22,37.26 80.57,37.36 80.9,37.47 81.3,37.47 L 81.33,37.52 C 81,37.82 80.51,37.85 80.11,37.8 79.68,37.75 79.32,37.54 78.97,37.36 78.26,36.99 77.61,36.54 77.01,36.03 L 77.04,35.99 Z M 77.04,35.99" />
            <path id="sue08Canvas-bezier81" stroke="none" fill="rgb(51, 91, 113)" d="M 40.76,91.71 C 44.07,94.09 47.06,96.86 50.16,99.5 51.7,100.82 53.25,102.14 54.85,103.38 56.45,104.63 58.1,105.82 59.86,106.81 60.74,107.3 61.64,107.74 62.59,108.08 63.55,108.43 64.49,108.84 65.42,109.28 67.26,110.17 69.03,111.21 70.73,112.34 72.42,113.49 74.07,114.71 75.61,116.04 76.38,116.72 77.13,117.41 77.84,118.15 78.52,118.9 79.21,119.68 79.66,120.61 L 79.62,120.63 C 79.11,119.75 78.38,119.03 77.66,118.33 76.93,117.63 76.16,116.97 75.36,116.34 73.78,115.08 72.13,113.89 70.43,112.8 68.73,111.7 66.98,110.67 65.18,109.77 64.27,109.31 63.36,108.9 62.41,108.54 61.45,108.18 60.52,107.71 59.64,107.19 57.86,106.16 56.22,104.93 54.63,103.66 53.04,102.39 51.5,101.05 49.98,99.7 46.93,97.01 43.99,94.19 40.72,91.76 L 40.76,91.71 Z M 40.76,91.71" />
            <path id="sue08Canvas-bezier82" stroke="none" fill="rgb(51, 91, 113)" d="M 39.11,106.16 C 41.18,109.21 43.75,111.88 46.52,114.29 47.91,115.49 49.37,116.62 50.91,117.61 52.45,118.6 54.07,119.47 55.8,120.03 56.23,120.17 56.67,120.28 57.11,120.36 57.56,120.44 58.05,120.56 58.48,120.73 59.38,121.05 60.2,121.53 60.97,122.06 62.51,123.14 63.83,124.47 65.06,125.85 66.28,127.25 67.42,128.7 68.53,130.17 69.08,130.91 69.63,131.65 70.2,132.37 70.77,133.08 71.33,133.83 72.07,134.37 L 72.04,134.42 C 71.25,133.92 70.63,133.2 70.01,132.53 69.4,131.83 68.81,131.12 68.23,130.41 67.05,128.99 65.9,127.56 64.65,126.21 63.42,124.86 62.12,123.57 60.66,122.5 59.92,121.97 59.14,121.51 58.31,121.19 57.89,121.02 57.48,120.91 57.02,120.82 56.56,120.72 56.11,120.6 55.66,120.45 53.89,119.85 52.25,118.93 50.71,117.91 49.17,116.88 47.72,115.73 46.34,114.5 43.6,112.02 41.08,109.29 39.06,106.19 L 39.11,106.16 Z M 39.11,106.16" />
            <path id="sue08Canvas-bezier83" stroke="none" fill="rgb(51, 91, 113)" d="M 20.01,61.95 C 21.01,63.25 21.85,64.67 22.62,66.12 23.37,67.58 24.03,69.09 24.58,70.64 25.13,72.19 25.6,73.79 25.8,75.44 25.97,77.08 25.98,78.77 25.55,80.37 L 25.49,80.36 C 25.61,78.73 25.52,77.11 25.25,75.51 24.99,73.92 24.65,72.33 24.16,70.78 23.67,69.23 23.07,67.71 22.37,66.24 21.67,64.77 20.9,63.32 19.96,61.98 L 20.01,61.95 Z M 20.01,61.95" />
            <path id="sue08Canvas-bezier84" stroke="none" fill="rgb(51, 91, 113)" d="M 49.77,18.67 C 50.35,15.36 51.64,12.19 53.49,9.37 55.36,6.57 57.9,4.18 60.89,2.59 63.88,0.98 67.26,0.14 70.64,0.02 74.02,-0.1 77.4,0.35 80.64,1.22 L 80.63,1.28 C 77.33,0.71 73.99,0.35 70.67,0.57 67.36,0.76 64.05,1.46 61.1,2.98 58.14,4.49 55.61,6.79 53.72,9.53 51.83,12.27 50.47,15.4 49.82,18.68 L 49.77,18.67 Z M 49.77,18.67" />
            <path id="sue08Canvas-bezier85" stroke="none" fill="rgb(51, 91, 113)" d="M 53.25,31.71 C 53.04,33.32 52.85,34.93 52.73,36.55 52.67,37.36 52.6,38.18 52.69,38.96 52.83,39.75 53.02,40.55 53.22,41.33 54.05,44.45 55.18,47.54 56.93,50.24 57.81,51.58 58.87,52.82 60.16,53.72 61.45,54.63 62.99,55.18 64.56,55.21 66.14,55.27 67.71,54.81 69.13,54.1 69.85,53.74 70.54,53.31 71.19,52.84 71.85,52.37 72.48,51.86 73.05,51.28 L 73.09,51.32 C 72.03,52.56 70.75,53.62 69.31,54.43 67.88,55.24 66.24,55.77 64.55,55.76 62.86,55.75 61.2,55.16 59.85,54.17 58.49,53.18 57.43,51.87 56.56,50.48 54.81,47.68 53.73,44.56 52.95,41.4 52.77,40.6 52.6,39.81 52.47,39 52.39,38.16 52.49,37.35 52.56,36.54 52.72,34.92 52.95,33.31 53.2,31.7 L 53.25,31.71 Z M 53.25,31.71" />
            <path id="sue08Canvas-bezier86" stroke="none" fill="rgb(51, 91, 113)" d="M 74.16,50.87 L 76.75,48.42 C 77.18,48.01 77.62,47.6 78.03,47.19 78.39,46.75 78.69,46.22 78.98,45.71 80.12,43.65 81.08,41.46 81.77,39.21 81.94,38.65 82.05,38.08 82.2,37.49 82.35,36.91 82.53,36.34 82.71,35.77 83.07,34.63 83.48,33.51 83.92,32.41 84.82,30.2 85.76,28.02 86.85,25.9 L 86.9,25.92 C 86.1,28.16 85.24,30.37 84.43,32.6 84.02,33.71 83.61,34.83 83.22,35.94 83.03,36.5 82.84,37.06 82.68,37.62 82.52,38.18 82.38,38.78 82.19,39.34 81.44,41.62 80.42,43.79 79.22,45.85 78.91,46.36 78.6,46.87 78.19,47.34 77.75,47.76 77.31,48.14 76.87,48.54 L 74.2,50.91 74.16,50.87 Z M 74.16,50.87" />
        </g>
    </g>
</svg>
