<?xml version="1.0" encoding="UTF-8"?>
<!DOCTYPE svg PUBLIC "-//W3C//DTD SVG 1.1//EN" "http://www.w3.org/Graphics/SVG/1.1/DTD/svg11.dtd">
<svg version="1.1" xmlns="http://www.w3.org/2000/svg" xmlns:xlink="http://www.w3.org/1999/xlink" width="98" height="378"  xml:space="preserve" id="sue04Canvas">
    <!-- Generated by PaintCode - http://www.paintcodeapp.com -->
    <g id="sue04Canvas-lines">
        <g id="sue04Canvas-group2">
            <path id="sue04Canvas-bezier" stroke="none" fill="rgb(51, 91, 113)" d="M 31.04,2.44 C 30.32,3.79 29.63,5.15 29,6.53 28.69,7.23 28.42,7.94 28.12,8.62 27.97,8.97 27.83,9.31 27.7,9.66 27.63,9.83 27.58,10.01 27.54,10.19 27.5,10.37 27.48,10.55 27.54,10.72 L 27.49,10.75 C 27.23,10.41 27.29,9.95 27.33,9.57 27.38,9.18 27.49,8.8 27.61,8.43 27.86,7.69 28.24,7.01 28.6,6.34 29.33,4.99 30.13,3.68 30.99,2.41 L 31.04,2.44 Z M 31.04,2.44" />
            <path id="sue04Canvas-bezier2" stroke="none" fill="rgb(51, 91, 113)" d="M 32.13,0.88 C 34.1,0.28 36.17,0.01 38.24,-0 40.31,-0 42.39,0.29 44.36,0.98 46.32,1.66 48.15,2.75 49.69,4.16 51.23,5.57 52.47,7.28 53.43,9.12 53.92,10.04 54.32,11 54.72,11.96 55.11,12.91 55.48,13.88 55.82,14.86 56.51,16.81 57.07,18.81 57.47,20.85 57.85,22.89 58.1,24.96 58.1,27.03 58.08,29.1 57.89,31.2 57.14,33.15 L 57.09,33.12 C 57.42,32.15 57.56,31.13 57.65,30.11 57.74,29.09 57.76,28.06 57.71,27.04 57.64,24.99 57.36,22.96 56.93,20.96 56.51,18.95 55.95,16.98 55.31,15.03 54.99,14.06 54.64,13.09 54.26,12.14 53.89,11.18 53.51,10.23 53.04,9.32 52.12,7.5 50.93,5.82 49.44,4.42 47.96,3.02 46.19,1.93 44.27,1.23 42.35,0.53 40.29,0.2 38.24,0.16 36.19,0.14 34.12,0.38 32.14,0.93 L 32.13,0.88 Z M 32.13,0.88" />
            <path id="sue04Canvas-bezier3" stroke="none" fill="rgb(51, 91, 113)" d="M 58.73,21.64 C 59.71,23.67 60.34,25.84 60.83,28.04 61.3,30.24 61.58,32.47 61.7,34.72 61.81,36.97 61.76,39.23 61.57,41.47 61.47,42.59 61.34,43.71 61.17,44.82 61,45.93 60.83,47.04 60.7,48.15 60.43,50.37 60.25,52.6 60.15,54.84 60.03,57.07 60,59.31 60.05,61.55 60.08,63.78 60.19,66.02 60.39,68.25 60.49,69.36 60.61,70.47 60.78,71.58 60.86,72.13 60.95,72.68 61.07,73.23 61.13,73.5 61.2,73.78 61.27,74.04 61.36,74.3 61.43,74.59 61.62,74.77 L 61.59,74.82 C 61.36,74.62 61.28,74.33 61.18,74.07 61.08,73.81 61,73.54 60.92,73.27 60.77,72.72 60.65,72.17 60.53,71.62 60.32,70.52 60.15,69.4 60.01,68.29 59.73,66.05 59.58,63.81 59.5,61.56 59.45,59.31 59.49,57.06 59.6,54.81 59.74,52.56 59.96,50.32 60.26,48.09 60.41,46.98 60.6,45.86 60.78,44.76 60.96,43.66 61.1,42.55 61.21,41.43 61.43,39.21 61.51,36.97 61.42,34.73 61.34,32.5 61.1,30.27 60.66,28.07 60.22,25.88 59.63,23.7 58.68,21.67 L 58.73,21.64 Z M 58.73,21.64" />
            <path id="sue04Canvas-bezier4" stroke="none" fill="rgb(51, 91, 113)" d="M 62.1,48.96 C 62.83,52.95 63.71,56.91 64.79,60.81 65.32,62.76 65.91,64.7 66.62,66.58 66.98,67.53 67.37,68.46 67.82,69.36 68.05,69.8 68.29,70.24 68.56,70.66 68.83,71.06 69.16,71.48 69.41,71.93 70.41,73.75 70.97,75.74 71.43,77.72 71.87,79.71 72.16,81.73 72.35,83.76 72.53,85.78 72.63,87.82 72.61,89.85 72.6,90.87 72.56,91.88 72.48,92.9 72.43,93.4 72.37,93.91 72.28,94.41 72.2,94.91 72.1,95.42 71.9,95.89 L 71.85,95.87 C 72.02,95.4 72.08,94.89 72.13,94.39 72.18,93.89 72.21,93.39 72.23,92.88 72.26,91.87 72.26,90.86 72.23,89.85 72.17,87.83 72.04,85.82 71.81,83.81 71.59,81.81 71.3,79.81 70.9,77.84 70.48,75.88 69.96,73.9 69.02,72.15 68.8,71.71 68.49,71.33 68.21,70.88 67.93,70.45 67.69,69.99 67.47,69.53 67.02,68.61 66.64,67.67 66.29,66.71 65.6,64.8 65.03,62.84 64.52,60.88 63.52,56.95 62.71,52.97 62.04,48.97 L 62.1,48.96 Z M 62.1,48.96" />
            <path id="sue04Canvas-bezier5" stroke="none" fill="rgb(51, 91, 113)" d="M 28.72,1.88 C 27.85,2.86 27.04,3.89 26.28,4.96 25.52,6.02 24.8,7.11 24.17,8.25 23.54,9.39 23.02,10.58 22.54,11.78 22.05,12.98 21.7,14.22 21.5,15.52 L 21.44,15.52 C 21.33,14.19 21.61,12.85 22.02,11.59 22.45,10.32 23.1,9.16 23.79,8.03 25.18,5.78 26.83,3.71 28.68,1.84 L 28.72,1.88 Z M 28.72,1.88" />
            <path id="sue04Canvas-bezier6" stroke="none" fill="rgb(51, 91, 113)" d="M 26.77,13.42 C 26.49,13.41 26.23,13.59 26,13.74 25.76,13.91 25.54,14.1 25.32,14.29 24.9,14.69 24.52,15.12 24.16,15.58 23.45,16.49 22.87,17.5 22.48,18.57 22.09,19.65 21.94,20.79 22.05,21.89 22.13,23.01 22.59,24.07 23.23,25.05 L 23.19,25.09 C 22.3,24.3 21.69,23.17 21.5,21.96 21.31,20.74 21.61,19.51 22.07,18.41 22.53,17.31 23.18,16.3 23.95,15.41 24.34,14.96 24.76,14.54 25.22,14.17 25.45,13.98 25.68,13.81 25.94,13.65 26.19,13.51 26.46,13.34 26.77,13.37 L 26.77,13.42 Z M 26.77,13.42" />
            <path id="sue04Canvas-bezier7" stroke="none" fill="rgb(51, 91, 113)" d="M 35.4,44.89 C 35.94,45.04 36.52,45.1 37.08,45.1 37.65,45.1 38.21,45.03 38.74,44.88 39.28,44.74 39.77,44.47 40.26,44.24 40.76,44 41.23,43.7 41.74,43.41 L 41.78,43.45 C 41.48,43.96 41.04,44.38 40.53,44.71 40.02,45.05 39.42,45.2 38.84,45.31 37.66,45.52 36.45,45.39 35.38,44.94 L 35.4,44.89 Z M 35.4,44.89" />
            <path id="sue04Canvas-bezier8" stroke="none" fill="rgb(51, 91, 113)" d="M 40.04,33.37 C 40.74,33.46 41.41,33.75 42.01,34.12 42.61,34.5 43.16,34.97 43.61,35.52 44.03,36.07 44.63,36.43 45.2,36.83 45.48,37.04 45.77,37.24 46.04,37.48 46.29,37.71 46.62,37.99 46.59,38.38 L 46.56,38.38 C 46.55,38.21 46.44,38.06 46.32,37.95 46.2,37.83 46.06,37.73 45.92,37.63 45.64,37.43 45.34,37.25 45.04,37.06 44.46,36.68 43.86,36.25 43.44,35.66 43.02,35.11 42.51,34.63 41.93,34.24 41.36,33.84 40.73,33.53 40.04,33.4 L 40.04,33.37 Z M 40.04,33.37" />
            <path id="sue04Canvas-bezier9" stroke="none" fill="rgb(51, 91, 113)" d="M 31.59,36.65 C 31.42,37.36 31,37.99 30.66,38.61 30.49,38.92 30.36,39.24 30.31,39.56 30.24,39.89 30.34,40.22 30.49,40.55 L 30.47,40.56 C 30.19,40.33 30.01,39.94 30.04,39.54 30.06,39.13 30.28,38.8 30.47,38.5 30.87,37.89 31.31,37.33 31.56,36.64 L 31.59,36.65 Z M 31.59,36.65" />
            <path id="sue04Canvas-bezier10" stroke="none" fill="rgb(51, 91, 113)" d="M 26.77,25.5 C 28.14,25.49 29.51,25.56 30.86,25.82 31.54,25.96 32.21,26.15 32.82,26.5 33.12,26.67 33.41,26.9 33.6,27.22 33.79,27.55 33.8,27.92 33.84,28.25 33.94,29.64 33.81,31.01 33.7,32.37 33.63,33.05 33.57,33.73 33.51,34.41 33.49,34.75 33.47,35.08 33.47,35.42 33.48,35.75 33.46,36.13 33.66,36.39 L 33.64,36.41 C 33.39,36.14 33.39,35.76 33.35,35.43 33.32,35.08 33.32,34.74 33.32,34.4 33.33,33.71 33.38,33.03 33.43,32.35 33.48,31.66 33.54,30.98 33.58,30.3 33.62,29.63 33.66,28.94 33.62,28.27 33.59,27.94 33.58,27.59 33.42,27.32 33.27,27.04 33.01,26.82 32.73,26.65 32.16,26.3 31.5,26.11 30.84,25.96 29.51,25.66 28.14,25.55 26.77,25.53 L 26.77,25.5 Z M 26.77,25.5" />
            <path id="sue04Canvas-bezier11" stroke="none" fill="rgb(51, 91, 113)" d="M 40.54,35.12 C 40.14,35.51 39.65,35.78 39.17,36.06 38.7,36.33 38.21,36.6 37.8,36.94 37.59,37.11 37.48,37.33 37.27,37.56 37.06,37.78 36.79,37.93 36.5,38.01 35.93,38.15 35.33,38.06 34.84,37.8 L 34.85,37.77 C 35.38,37.89 35.94,37.91 36.43,37.74 36.67,37.67 36.9,37.54 37.08,37.37 37.25,37.2 37.43,36.94 37.66,36.77 38.12,36.43 38.62,36.19 39.11,35.94 39.6,35.69 40.1,35.46 40.53,35.1 L 40.54,35.12 Z M 40.54,35.12" />
            <path id="sue04Canvas-bezier12" stroke="none" fill="rgb(51, 91, 113)" d="M 38.05,25.5 C 38.98,24.8 39.99,24.19 41.06,23.71 41.59,23.46 42.14,23.24 42.73,23.13 43.31,23.02 43.92,22.98 44.5,23.13 L 44.49,23.15 C 43.91,23.16 43.34,23.24 42.79,23.39 42.24,23.53 41.68,23.7 41.14,23.91 40.07,24.34 39.04,24.89 38.07,25.53 L 38.05,25.5 Z M 38.05,25.5" />
            <path id="sue04Canvas-bezier13" stroke="none" fill="rgb(51, 91, 113)" d="M 29.48,11.69 C 30.76,10.94 32.25,10.58 33.73,10.59 35.21,10.6 36.68,11.03 37.98,11.76 39.27,12.49 40.4,13.49 41.37,14.6 42.35,15.72 43.18,16.95 43.92,18.23 45.38,20.83 46.1,23.76 46.61,26.66 47.11,29.57 47.35,32.52 47.46,35.47 47.58,38.41 47.56,41.37 47.44,44.31 47.32,47.26 47.09,50.2 46.79,53.14 46.45,56.07 46.05,58.99 45.52,61.89 44.97,64.78 44.39,67.69 43.33,70.45 L 43.28,70.43 C 43.76,69.05 44.08,67.61 44.37,66.17 44.66,64.73 44.92,63.28 45.14,61.83 45.59,58.92 45.96,56.01 46.24,53.08 46.55,50.16 46.77,47.23 46.9,44.29 47.05,41.36 47.1,38.42 47.02,35.48 46.94,32.55 46.72,29.61 46.26,26.71 45.78,23.83 45.09,20.93 43.68,18.37 42.97,17.09 42.16,15.86 41.21,14.75 40.26,13.64 39.16,12.64 37.89,11.91 36.63,11.17 35.19,10.73 33.73,10.7 32.27,10.68 30.78,11.01 29.51,11.73 L 29.48,11.69 Z M 29.48,11.69" />
            <path id="sue04Canvas-bezier14" stroke="none" fill="rgb(51, 91, 113)" d="M 52.19,42.95 C 52.72,43.95 52.88,45.08 53.04,46.18 53.19,47.3 53.26,48.41 53.31,49.53 53.41,51.77 53.39,54.01 53.32,56.24 53.16,60.71 52.8,65.18 52.23,69.62 51.93,71.84 51.61,74.06 51.05,76.25 50.92,76.8 50.68,77.35 50.57,77.85 50.44,78.37 50.39,78.91 50.38,79.45 50.36,80.54 50.52,81.63 50.75,82.71 51.21,84.87 51.99,86.97 52.92,88.98 53.39,89.99 53.91,90.97 54.5,91.91 54.8,92.38 55.11,92.84 55.46,93.27 55.63,93.49 55.82,93.7 56.02,93.88 56.22,94.06 56.45,94.25 56.72,94.27 L 56.72,94.32 C 56.42,94.31 56.18,94.13 55.95,93.96 55.73,93.78 55.53,93.58 55.34,93.37 54.96,92.96 54.62,92.51 54.3,92.05 53.66,91.12 53.1,90.15 52.58,89.15 51.56,87.14 50.74,85.03 50.22,82.83 49.98,81.72 49.82,80.59 49.83,79.44 49.85,78.87 49.9,78.29 50.04,77.72 50.19,77.13 50.4,76.65 50.53,76.11 51.11,73.98 51.46,71.76 51.79,69.56 52.42,65.14 52.83,60.69 53.04,56.23 53.15,54 53.21,51.77 53.15,49.54 53.12,48.42 53.06,47.31 52.93,46.2 52.79,45.1 52.64,43.97 52.14,42.97 L 52.19,42.95 Z M 52.19,42.95" />
            <path id="sue04Canvas-bezier15" stroke="none" fill="rgb(51, 91, 113)" d="M 21.5,26.7 C 21.59,30.23 21.81,33.75 22.16,37.25 22.51,40.76 22.97,44.25 23.73,47.69 24.51,51.11 25.51,54.49 27.63,57.35 28.5,58.92 29.08,60.62 29.54,62.33 29.98,64.05 30.29,65.79 30.49,67.55 L 30.44,67.55 C 30.09,65.83 29.68,64.11 29.17,62.44 28.65,60.76 28.04,59.11 27.15,57.62 26.93,57.24 26.7,56.9 26.44,56.54 26.18,56.16 25.94,55.78 25.73,55.38 25.31,54.59 24.97,53.76 24.67,52.92 24.08,51.24 23.65,49.51 23.3,47.78 22.59,44.31 22.18,40.79 21.89,37.28 21.61,33.76 21.46,30.23 21.44,26.7 L 21.5,26.7 21.5,26.7 Z M 21.5,26.7" />
            <path id="sue04Canvas-bezier16" stroke="none" fill="rgb(51, 91, 113)" d="M 34.86,51.56 C 36.22,53.63 37.35,55.86 38.18,58.22 38.59,59.39 38.95,60.6 39.07,61.86 39.17,63.11 39.14,64.4 38.72,65.59 L 38.67,65.58 C 38.77,64.34 38.72,63.13 38.52,61.93 38.34,60.73 38.11,59.53 37.76,58.35 37.41,57.18 36.97,56.03 36.47,54.9 35.98,53.77 35.44,52.66 34.82,51.59 L 34.86,51.56 Z M 34.86,51.56" />
            <path id="sue04Canvas-bezier17" stroke="none" fill="rgb(51, 91, 113)" d="M 26.24,29.17 C 26.69,28.73 27.22,28.38 27.79,28.13 28.08,28 28.38,27.88 28.7,27.84 29.01,27.81 29.34,27.81 29.64,27.9 L 29.64,27.93 C 29.33,27.99 29.04,28.03 28.74,28.11 28.45,28.18 28.16,28.24 27.87,28.33 27.3,28.53 26.75,28.82 26.26,29.19 L 26.24,29.17 Z M 26.24,29.17" />
            <path id="sue04Canvas-bezier18" stroke="none" fill="rgb(51, 91, 113)" d="M 26.09,28.7 C 26.91,27.82 28.15,27.32 29.37,27.4 29.98,27.43 30.6,27.56 31.14,27.87 31.67,28.18 32.15,28.61 32.4,29.17 L 32.38,29.18 C 32,28.72 31.53,28.36 31.01,28.11 30.5,27.85 29.94,27.68 29.36,27.62 28.2,27.5 26.98,27.9 26.11,28.72 L 26.09,28.7 Z M 26.09,28.7" />
            <path id="sue04Canvas-bezier19" stroke="none" fill="rgb(51, 91, 113)" d="M 26.55,29.39 C 27.47,29.55 28.41,29.63 29.34,29.66 29.8,29.66 30.27,29.64 30.73,29.63 31.2,29.64 31.66,29.61 32.13,29.61 L 32.14,29.64 C 31.69,29.79 31.21,29.86 30.74,29.91 30.27,29.95 29.8,29.91 29.33,29.87 28.39,29.8 27.45,29.65 26.55,29.41 L 26.55,29.39 Z M 26.55,29.39" />
            <path id="sue04Canvas-bezier20" stroke="none" fill="rgb(51, 91, 113)" d="M 39.66,26.54 C 40.38,25.84 41.36,25.43 42.36,25.27 42.86,25.19 43.38,25.16 43.88,25.23 44.39,25.31 44.88,25.43 45.34,25.65 L 45.33,25.68 C 44.83,25.61 44.35,25.53 43.86,25.5 43.37,25.47 42.88,25.44 42.39,25.49 41.9,25.54 41.42,25.65 40.96,25.83 40.5,26.01 40.05,26.24 39.68,26.56 L 39.66,26.54 Z M 39.66,26.54" />
            <path id="sue04Canvas-bezier21" stroke="none" fill="rgb(51, 91, 113)" d="M 39.65,27.71 C 40.09,26.82 40.89,26.1 41.87,25.8 42.35,25.65 42.86,25.58 43.37,25.63 43.87,25.7 44.36,25.84 44.8,26.07 L 44.79,26.1 C 44.3,26.01 43.82,25.92 43.34,25.91 42.87,25.89 42.39,25.89 41.93,26.01 41,26.25 40.18,26.88 39.68,27.72 L 39.65,27.71 Z M 39.65,27.71" />
            <path id="sue04Canvas-bezier22" stroke="none" fill="rgb(51, 91, 113)" d="M 40.26,27.7 C 41.07,27.76 41.88,27.74 42.67,27.62 43.06,27.55 43.44,27.44 43.8,27.31 44.17,27.19 44.51,27 44.78,26.69 L 44.8,26.71 C 44.66,27.11 44.28,27.39 43.91,27.57 43.52,27.74 43.1,27.8 42.7,27.84 41.88,27.91 41.06,27.86 40.26,27.73 L 40.26,27.7 Z M 40.26,27.7" />
            <path id="sue04Canvas-bezier23" stroke="none" fill="rgb(51, 91, 113)" d="M 31.17,28.71 C 31.17,29.28 30.7,29.86 30.06,29.87 29.45,29.9 28.86,29.36 28.86,28.7 28.82,28.07 29.39,27.44 30.07,27.48 30.38,27.48 30.7,27.65 30.89,27.88 31.09,28.12 31.18,28.42 31.17,28.71 Z M 31.14,28.71 C 31.14,28.42 30.99,28.15 30.78,27.99 30.57,27.82 30.32,27.74 30.06,27.75 29.57,27.76 29.09,28.17 29.08,28.71 29.05,29.22 29.51,29.73 30.07,29.73 30.33,29.74 30.61,29.64 30.82,29.46 31.02,29.27 31.15,28.99 31.14,28.71 Z M 31.14,28.71" />
            <path id="sue04Canvas-bezier24" stroke="none" fill="rgb(51, 91, 113)" d="M 43.59,26.55 C 43.59,27.11 43.14,27.66 42.52,27.67 41.93,27.7 41.36,27.18 41.37,26.55 41.35,26.25 41.47,25.94 41.69,25.71 41.9,25.49 42.21,25.36 42.53,25.37 42.84,25.37 43.14,25.53 43.32,25.76 43.51,25.99 43.6,26.28 43.59,26.55 Z M 43.56,26.55 C 43.56,26.28 43.42,26.02 43.22,25.86 43.01,25.7 42.77,25.63 42.53,25.64 42.05,25.64 41.59,26.05 41.58,26.55 41.56,27.06 42,27.54 42.53,27.54 42.78,27.55 43.05,27.46 43.25,27.28 43.45,27.1 43.57,26.83 43.56,26.55 Z M 43.56,26.55" />
            <path id="sue04Canvas-bezier25" stroke="none" fill="rgb(51, 91, 113)" d="M 63.97,77.85 C 65.64,80.25 67.09,82.8 68.3,85.47 69.48,88.14 70.45,90.96 70.6,93.92 70.63,94.66 70.6,95.4 70.5,96.13 70.37,96.86 70.22,97.57 70.06,98.29 69.74,99.72 69.39,101.14 69.03,102.55 L 66.84,111.04 C 66.12,113.87 65.42,116.7 64.84,119.56 64.55,120.98 64.28,122.42 64.16,123.85 64.1,124.56 64.06,125.29 64.23,125.94 64.41,126.66 64.55,127.38 64.69,128.1 65.71,133.86 66.5,139.65 67.18,145.46 L 67.13,145.46 C 66.14,139.71 65.27,133.92 64.16,128.2 64.02,127.49 63.87,126.77 63.7,126.08 63.51,125.3 63.56,124.54 63.61,123.81 63.75,122.33 64.02,120.89 64.31,119.45 64.92,116.58 65.66,113.75 66.41,110.93 L 68.69,102.47 C 69.06,101.05 69.42,99.64 69.75,98.22 69.92,97.51 70.08,96.8 70.2,96.09 70.32,95.38 70.35,94.65 70.33,93.93 70.21,91.03 69.29,88.21 68.15,85.54 66.98,82.87 65.56,80.3 63.93,77.88 L 63.97,77.85 Z M 63.97,77.85" />
            <path id="sue04Canvas-bezier26" stroke="none" fill="rgb(51, 91, 113)" d="M 66.02,145.48 C 65.02,145.27 63.99,145.12 62.97,145.03 61.95,144.93 60.92,144.89 59.9,144.93 58.88,144.97 57.87,145.12 56.88,145.3 55.89,145.48 54.92,145.76 53.96,146.17 L 53.93,146.13 C 54.74,145.45 55.74,145.03 56.76,144.77 57.79,144.51 58.85,144.48 59.89,144.49 61.98,144.53 64.05,144.86 66.04,145.43 L 66.02,145.48 Z M 66.02,145.48" />
            <path id="sue04Canvas-bezier27" stroke="none" fill="rgb(51, 91, 113)" d="M 23.07,54.31 C 19.61,55.48 16.24,56.93 13.05,58.69 11.46,59.57 9.91,60.55 8.49,61.68 7.09,62.81 5.77,64.1 4.91,65.67 4.09,67.25 3.62,69.03 3.29,70.8 2.96,72.58 2.77,74.39 2.64,76.2 2.51,78.02 2.46,79.84 2.44,81.66 L 2.41,84.4 2.38,85.77 C 2.36,86.23 2.37,86.69 2.26,87.14 L 2.2,87.13 C 2.28,86.69 2.24,86.22 2.23,85.77 L 2.16,84.4 2.05,81.66 C 2,79.84 2.01,78 2.1,76.17 2.2,74.34 2.39,72.51 2.75,70.7 3.13,68.9 3.63,67.1 4.52,65.45 5.46,63.82 6.83,62.52 8.27,61.4 9.73,60.27 11.3,59.31 12.92,58.45 16.16,56.74 19.57,55.36 23.05,54.25 L 23.07,54.31 Z M 23.07,54.31" />
            <path id="sue04Canvas-bezier28" stroke="none" fill="rgb(51, 91, 113)" d="M 5.56,85.17 C 4.47,87.01 3.39,88.84 2.26,90.65 L 1.83,91.33 C 1.69,91.55 1.49,91.78 1.42,91.97 1.25,92.39 1.53,92.88 1.75,93.36 1.98,93.84 2.18,94.36 2.3,94.9 2.44,95.44 2.44,95.99 2.5,96.5 2.78,98.6 3.19,100.71 3.29,102.85 3.33,103.92 3.35,105 3.23,106.08 3.1,107.14 2.89,108.25 2.26,109.14 L 2.21,109.11 C 2.45,108.64 2.6,108.13 2.69,107.61 2.78,107.1 2.83,106.57 2.85,106.05 2.88,105 2.84,103.94 2.74,102.89 2.57,100.78 2.29,98.68 2.07,96.55 2.01,96 2.03,95.48 1.91,94.98 1.82,94.47 1.64,93.99 1.42,93.51 1.32,93.26 1.2,93.02 1.12,92.75 1.03,92.48 1,92.14 1.13,91.86 1.26,91.55 1.44,91.39 1.59,91.16 L 2.03,90.5 C 3.22,88.74 4.37,86.94 5.51,85.14 L 5.56,85.17 Z M 5.56,85.17" />
            <path id="sue04Canvas-bezier29" stroke="none" fill="rgb(51, 91, 113)" d="M 6.59,106.16 C 6.47,106.19 6.36,106.34 6.26,106.44 6.17,106.56 6.07,106.68 5.99,106.81 5.81,107.06 5.64,107.32 5.48,107.58 5.15,108.1 4.85,108.63 4.55,109.17 3.96,110.25 3.41,111.35 2.95,112.49 2.73,113.05 2.53,113.63 2.4,114.21 2.34,114.49 2.29,114.79 2.3,115.05 2.31,115.17 2.33,115.29 2.37,115.37 2.38,115.41 2.52,115.52 2.64,115.64 3.07,116.11 3.47,116.62 3.74,117.21 3.86,117.52 3.96,117.84 3.94,118.18 3.92,118.53 3.69,118.86 3.38,118.96 L 3.36,118.91 C 3.61,118.74 3.73,118.46 3.69,118.18 3.66,117.91 3.54,117.64 3.4,117.39 3.09,116.89 2.7,116.43 2.25,116.03 2.16,115.93 2.03,115.87 1.88,115.64 1.77,115.45 1.74,115.25 1.73,115.07 1.72,114.71 1.79,114.39 1.87,114.08 2.05,113.46 2.29,112.88 2.55,112.31 3.07,111.18 3.67,110.09 4.31,109.04 4.64,108.51 4.98,107.99 5.34,107.49 5.52,107.23 5.7,106.98 5.9,106.74 6,106.62 6.1,106.5 6.2,106.39 6.32,106.29 6.4,106.14 6.59,106.11 L 6.59,106.16 Z M 6.59,106.16" />
            <path id="sue04Canvas-bezier30" stroke="none" fill="rgb(51, 91, 113)" d="M 5.51,125.97 C 4.94,124.32 4.81,122.53 5.09,120.8 5.38,119.06 6.15,117.4 7.23,116.02 8.28,114.6 9.56,113.36 11,112.36 11.72,111.86 12.46,111.4 13.17,110.92 13.87,110.43 14.6,109.93 14.91,109.12 L 14.97,109.13 C 14.89,109.57 14.65,109.97 14.36,110.31 14.07,110.65 13.74,110.94 13.4,111.22 12.72,111.78 12,112.26 11.33,112.8 9.96,113.83 8.65,114.94 7.58,116.28 6.48,117.6 5.7,119.16 5.36,120.84 5.02,122.52 5.06,124.3 5.56,125.95 L 5.51,125.97 Z M 5.51,125.97" />
            <path id="sue04Canvas-bezier31" stroke="none" fill="rgb(51, 91, 113)" d="M 15.8,116.46 C 16.03,114.97 16.22,113.48 16.37,111.99 16.51,110.5 16.66,108.99 16.57,107.53 16.56,107.34 16.53,107.16 16.5,106.99 16.47,106.81 16.41,106.71 16.33,106.47 16.22,106.02 16.31,105.6 16.43,105.22 16.69,104.45 17.13,103.8 17.62,103.2 18.13,102.62 18.69,102.09 19.32,101.65 19.95,101.24 20.68,100.82 21.47,100.9 L 21.47,100.95 C 21.1,100.98 20.76,101.13 20.45,101.31 20.13,101.5 19.83,101.72 19.55,101.95 19,102.43 18.48,102.96 18.04,103.55 17.6,104.12 17.19,104.74 16.94,105.39 16.82,105.72 16.75,106.06 16.81,106.35 16.84,106.47 16.94,106.72 16.96,106.91 16.99,107.11 17,107.31 17.01,107.5 17.05,109.04 16.84,110.53 16.64,112.02 16.42,113.51 16.15,114.99 15.86,116.47 L 15.8,116.46 Z M 15.8,116.46" />
            <path id="sue04Canvas-bezier32" stroke="none" fill="rgb(51, 91, 113)" d="M 21.5,102.31 C 21.82,104.36 22.23,106.39 22.75,108.4 23.01,109.4 23.29,110.39 23.64,111.36 23.98,112.33 24.38,113.29 24.93,114.14 25.21,114.55 25.53,114.94 25.93,115.16 26.31,115.38 26.8,115.37 27.2,115.2 27.62,115.02 27.97,114.68 28.26,114.3 28.56,113.91 28.8,113.47 29.01,113.01 29.45,112.09 29.74,111.11 29.99,110.11 30.11,109.61 30.22,109.11 30.3,108.6 30.39,108.09 30.47,107.58 30.45,107.06 L 30.51,107.06 C 30.66,108.1 30.52,109.15 30.36,110.19 30.19,111.22 29.92,112.24 29.51,113.23 29.3,113.72 29.05,114.2 28.72,114.64 28.38,115.07 27.96,115.48 27.41,115.7 26.86,115.91 26.19,115.91 25.68,115.59 25.18,115.27 24.84,114.82 24.56,114.37 24,113.46 23.63,112.47 23.3,111.48 22.98,110.49 22.71,109.48 22.48,108.46 22.03,106.43 21.69,104.38 21.44,102.31 L 21.5,102.31 Z M 21.5,102.31" />
            <path id="sue04Canvas-bezier33" stroke="none" fill="rgb(51, 91, 113)" d="M 52.43,145.48 C 50.8,145.24 49.16,145.04 47.51,144.88 46.69,144.8 45.86,144.74 45.03,144.71 44.62,144.69 44.21,144.68 43.8,144.7 43.39,144.71 42.96,144.74 42.63,144.87 L 42.73,144.74 C 42.51,146.12 42.27,147.5 41.99,148.87 L 41.78,148.61 C 43.48,148.62 45.19,148.64 46.89,148.71 47.75,148.75 48.6,148.78 49.45,148.86 49.88,148.9 50.3,148.94 50.73,148.99 51.17,149.05 51.57,149.07 52.05,149.23 L 51.77,149.36 C 52.15,148.11 52.38,146.8 52.43,145.48 Z M 52.49,145.46 C 52.56,146.13 52.54,146.8 52.49,147.47 52.43,148.14 52.32,148.81 52.17,149.47 L 52.12,149.67 51.89,149.61 C 51.56,149.52 51.09,149.49 50.69,149.45 50.26,149.42 49.84,149.4 49.42,149.38 L 46.87,149.27 41.77,149.04 41.5,149.03 41.56,148.78 C 41.87,147.42 42.14,146.05 42.39,144.68 L 42.41,144.58 42.49,144.55 C 42.95,144.39 43.36,144.4 43.79,144.38 44.21,144.38 44.63,144.4 45.05,144.43 45.88,144.48 46.71,144.57 47.53,144.67 49.19,144.88 50.83,145.14 52.47,145.43 L 52.49,145.43 52.49,145.46 Z M 52.49,145.46" />
            <path id="sue04Canvas-bezier34" stroke="none" fill="rgb(51, 91, 113)" d="M 40.97,147.76 C 38.68,147.55 36.38,147.35 34.09,147.17 32.94,147.09 31.79,147.04 30.65,146.93 29.51,146.8 28.37,146.68 27.22,146.57 L 27.21,146.52 C 28.37,146.31 29.53,146.35 30.69,146.38 31.84,146.43 32.99,146.59 34.13,146.74 36.42,147.01 38.71,147.34 40.98,147.71 L 40.97,147.76 Z M 40.97,147.76" />
            <path id="sue04Canvas-bezier35" stroke="none" fill="rgb(51, 91, 113)" d="M 39.78,144.56 C 37.08,143.84 34.35,143.2 31.6,142.62 L 29.55,142.2 C 28.86,142.05 28.18,141.98 27.49,141.97 26.1,141.97 24.71,142.17 23.35,142.44 20.62,143.01 17.96,143.9 15.37,144.94 14.08,145.47 12.8,146.04 11.55,146.65 10.31,147.27 9.06,147.92 7.96,148.72 L 7.56,149.01 7.56,148.53 C 7.55,147.01 8,145.54 8.65,144.22 9.31,142.89 10.16,141.67 11.16,140.59 L 11.2,140.63 C 10.74,141.19 10.33,141.8 9.96,142.43 9.59,143.06 9.24,143.69 8.96,144.36 8.39,145.68 8,147.1 8.06,148.52 L 7.65,148.33 C 8.79,147.44 10.04,146.78 11.3,146.14 12.57,145.52 13.87,144.97 15.18,144.46 17.81,143.46 20.51,142.61 23.28,142.08 24.66,141.82 26.07,141.64 27.49,141.67 28.2,141.68 28.92,141.77 29.6,141.93 L 31.65,142.39 C 34.39,143.04 37.1,143.73 39.8,144.51 L 39.78,144.56 Z M 39.78,144.56" />
            <path id="sue04Canvas-bezier36" stroke="none" fill="rgb(51, 91, 113)" d="M 3.39,125.46 C 4.01,127.31 4.47,129.24 4.44,131.21 4.43,131.71 4.31,132.19 4.42,132.65 4.51,133.12 4.68,133.57 4.89,134 5.32,134.86 5.9,135.65 6.56,136.35 7.22,137.06 7.96,137.69 8.8,138.15 9.62,138.6 10.59,138.91 11.48,138.68 11.92,138.58 12.3,138.3 12.68,138 13.06,137.71 13.43,137.39 13.78,137.07 14.5,136.41 15.19,135.72 15.85,135.02 18.52,132.18 20.92,129.11 23.19,125.95 25.45,122.79 27.5,119.47 29.21,115.96 L 29.26,115.98 C 27.84,119.63 25.84,123.03 23.64,126.26 21.41,129.49 18.9,132.51 16.17,135.32 15.49,136.02 14.78,136.71 14.05,137.36 13.68,137.69 13.31,138.01 12.91,138.3 12.52,138.6 12.09,138.91 11.57,139.03 10.53,139.27 9.5,138.91 8.64,138.42 7.78,137.93 7.02,137.27 6.36,136.54 5.7,135.81 5.12,134.99 4.7,134.1 4.49,133.65 4.32,133.18 4.23,132.68 4.19,132.44 4.18,132.18 4.21,131.93 4.24,131.68 4.27,131.45 4.27,131.21 4.34,129.27 3.92,127.33 3.34,125.48 L 3.39,125.46 Z M 3.39,125.46" />
            <path id="sue04Canvas-bezier37" stroke="none" fill="rgb(51, 91, 113)" d="M 67.16,63.23 C 68.16,63.35 69.06,63.86 69.82,64.5 70.59,65.14 71.21,65.94 71.72,66.79 72.74,68.52 73.32,70.45 73.71,72.4 74.09,74.35 74.29,76.34 74.29,78.33 74.26,80.31 74.13,82.29 73.81,84.24 L 73.76,84.24 C 73.76,82.26 73.82,80.3 73.74,78.33 73.67,76.38 73.59,74.41 73.28,72.48 72.95,70.55 72.43,68.64 71.49,66.93 71.02,66.07 70.44,65.27 69.71,64.62 68.99,63.97 68.12,63.43 67.15,63.28 L 67.16,63.23 Z M 67.16,63.23" />
            <path id="sue04Canvas-bezier38" stroke="none" fill="rgb(51, 91, 113)" d="M 72.45,98.51 C 72.76,101.2 72.99,103.9 73.13,106.6 73.25,109.31 73.31,112.02 73.08,114.74 72.94,116.09 72.79,117.46 72.22,118.78 72.07,119.1 71.88,119.42 71.59,119.69 71.44,119.84 71.31,119.92 71.19,120.03 71.07,120.13 70.95,120.24 70.84,120.36 70.37,120.81 69.96,121.33 69.58,121.88 68.82,122.96 68.19,124.16 67.61,125.37 67.04,126.59 66.53,127.84 66.06,129.1 L 66,129.09 C 66.32,127.77 66.76,126.48 67.26,125.22 67.78,123.96 68.38,122.73 69.13,121.57 69.51,121 69.94,120.45 70.44,119.95 70.56,119.83 70.69,119.71 70.83,119.59 70.96,119.48 71.12,119.37 71.21,119.29 71.42,119.09 71.59,118.83 71.73,118.54 72.28,117.38 72.48,116.02 72.64,114.7 72.92,112.02 72.92,109.31 72.85,106.62 72.79,103.91 72.63,101.21 72.39,98.52 L 72.45,98.51 Z M 72.45,98.51" />
            <path id="sue04Canvas-bezier39" stroke="none" fill="rgb(51, 91, 113)" d="M 53.95,148.5 C 55.82,148.61 57.68,148.76 59.54,148.99 60.47,149.1 61.4,149.19 62.32,149.41 62.78,149.52 63.23,149.64 63.68,149.8 64.12,149.97 64.58,150.14 64.95,150.45 L 64.92,150.5 C 64.05,150.21 63.12,150.11 62.21,149.94 61.3,149.8 60.39,149.59 59.47,149.42 57.64,149.1 55.79,148.82 53.95,148.55 L 53.95,148.5 Z M 53.95,148.5" />
            <path id="sue04Canvas-bezier40" stroke="none" fill="rgb(51, 91, 113)" d="M 66.06,151.66 C 66.33,153.53 66.58,155.41 66.81,157.3 67.02,159.18 67.23,161.07 67.3,162.97 67.31,163.44 67.32,163.92 67.26,164.4 67.16,164.87 67.21,165.33 67.27,165.8 67.39,166.73 67.62,167.65 67.86,168.56 68.36,170.39 68.96,172.19 69.62,173.96 70.28,175.73 71.01,177.49 71.84,179.19 72.25,180.04 72.7,180.85 73.2,181.67 73.67,182.5 74.09,183.35 74.5,184.21 76.15,187.63 77.66,191.12 79.12,194.62 82.04,201.62 84.77,208.71 87.12,215.94 88.3,219.55 89.34,223.2 90.27,226.89 90.72,228.73 91.14,230.58 91.5,232.45 91.84,234.31 92.12,236.2 92.3,238.09 L 92.24,238.09 C 91.17,230.58 88.97,223.29 86.6,216.11 84.23,208.91 81.6,201.8 78.74,194.77 77.3,191.27 75.82,187.78 74.21,184.35 73.81,183.49 73.4,182.64 72.94,181.82 72.45,181.01 71.99,180.16 71.58,179.31 70.76,177.59 70.05,175.83 69.4,174.04 68.75,172.26 68.16,170.45 67.68,168.61 67.44,167.69 67.22,166.77 67.1,165.82 67.04,165.35 67,164.85 67.1,164.38 67.16,163.92 67.16,163.44 67.15,162.97 67.1,161.08 66.91,159.19 66.71,157.31 66.5,155.42 66.26,153.54 66,151.66 L 66.06,151.66 Z M 66.06,151.66" />
            <path id="sue04Canvas-bezier41" stroke="none" fill="rgb(51, 91, 113)" d="M 92.29,240.32 C 93.11,242.12 93.68,244.03 94.1,245.97 94.51,247.91 94.74,249.89 94.77,251.88 94.81,253.87 94.69,255.87 94.27,257.82 93.84,259.77 93.21,261.67 92.29,263.43 L 92.24,263.41 C 92.87,261.54 93.4,259.65 93.73,257.72 94.08,255.79 94.32,253.84 94.34,251.88 94.35,249.92 94.18,247.96 93.83,246.02 93.49,244.09 93,242.17 92.24,240.34 L 92.29,240.32 Z M 92.29,240.32" />
            <path id="sue04Canvas-bezier42" stroke="none" fill="rgb(51, 91, 113)" d="M 92.29,265.27 C 92.27,270.09 92.08,274.9 91.79,279.71 91.49,284.51 91.08,289.31 90.51,294.1 89.94,298.88 89.22,303.65 88.28,308.38 87.32,313.1 86.15,317.79 84.53,322.34 L 84.46,322.54 84.26,322.45 C 82.81,321.75 81.21,321.33 79.64,320.92 78.05,320.52 76.45,320.17 74.85,319.85 71.64,319.21 68.4,318.66 65.17,318.18 L 64.94,318.14 64.94,317.91 C 65,313.32 65.05,308.72 65.03,304.13 65.01,301.83 64.99,299.53 64.93,297.24 64.86,294.94 64.82,292.65 64.53,290.38 64.35,288.04 64.61,285.74 64.87,283.45 65.15,281.16 65.52,278.89 65.95,276.63 66.39,274.37 66.87,272.12 67.47,269.89 67.76,268.78 68.08,267.67 68.44,266.58 68.82,265.49 69.19,264.39 69.8,263.41 L 69.85,263.44 C 69.26,264.42 68.92,265.53 68.57,266.62 68.23,267.72 67.94,268.83 67.67,269.94 67.14,272.18 66.67,274.43 66.26,276.69 65.86,278.95 65.52,281.22 65.26,283.5 65.03,285.77 64.81,288.08 65,290.33 65.32,292.61 65.4,294.93 65.48,297.22 65.54,299.53 65.56,301.83 65.57,304.13 65.59,308.73 65.56,313.33 65.47,317.93 L 65.24,317.66 C 68.49,318.17 71.72,318.75 74.94,319.41 76.55,319.75 78.15,320.1 79.74,320.52 81.33,320.95 82.93,321.36 84.44,322.1 L 84.17,322.21 C 85.8,317.69 86.99,313.02 87.97,308.31 88.94,303.6 89.67,298.84 90.27,294.07 90.87,289.3 91.31,284.5 91.64,279.7 91.97,274.9 92.19,270.09 92.24,265.27 L 92.29,265.27 92.29,265.27 Z M 92.29,265.27" />
            <path id="sue04Canvas-bezier43" stroke="none" fill="rgb(51, 91, 113)" d="M 70.33,261.56 C 70.99,260.8 71.91,260.29 72.88,260.03 73.86,259.77 74.91,259.77 75.9,259.92 76.86,260.06 77.83,260.02 78.76,259.86 79.22,259.78 79.68,259.65 80.12,259.46 80.34,259.37 80.55,259.26 80.75,259.13 80.95,259 81.15,258.86 81.28,258.67 L 81.34,258.68 C 81.15,259.19 80.72,259.52 80.3,259.8 79.86,260.08 79.37,260.27 78.87,260.4 77.86,260.65 76.81,260.55 75.83,260.36 74.87,260.15 73.9,260.1 72.94,260.29 72,260.48 71.07,260.9 70.37,261.59 L 70.33,261.56 Z M 70.33,261.56" />
            <path id="sue04Canvas-bezier44" stroke="none" fill="rgb(51, 91, 113)" d="M 71.95,256.54 C 72.9,256.8 73.92,256.88 74.86,256.63 75.32,256.5 75.75,256.27 76.08,255.95 76.25,255.78 76.4,255.6 76.52,255.4 76.65,255.18 76.81,254.97 76.98,254.77 77.66,253.99 78.48,253.35 79.38,252.88 80.28,252.42 81.23,252.05 82.23,251.85 L 82.24,251.9 C 81.36,252.38 80.49,252.84 79.65,253.36 78.82,253.87 77.98,254.37 77.31,255.07 77.14,255.24 76.99,255.42 76.85,255.62 76.7,255.84 76.52,256.04 76.32,256.21 75.92,256.56 75.42,256.78 74.92,256.89 73.9,257.09 72.87,256.92 71.93,256.59 L 71.95,256.54 Z M 71.95,256.54" />
            <path id="sue04Canvas-bezier45" stroke="none" fill="rgb(51, 91, 113)" d="M 70.33,254.85 C 70.01,252.33 69.56,249.82 68.98,247.35 68.38,244.88 67.66,242.43 66.59,240.13 66.04,239 65.41,237.89 64.56,236.97 63.69,236.03 62.86,235.07 62.03,234.11 60.37,232.17 58.74,230.21 57.14,228.23 53.93,224.28 50.81,220.25 47.91,216.06 46.47,213.95 45.08,211.81 43.83,209.58 43.21,208.47 42.62,207.33 42.12,206.16 41.64,204.98 41.16,203.75 41.15,202.46 L 41.21,202.46 C 41.28,203.73 41.82,204.91 42.35,206.05 42.89,207.2 43.52,208.3 44.17,209.39 45.47,211.56 46.9,213.67 48.36,215.75 49.8,217.83 51.31,219.88 52.83,221.92 54.35,223.96 55.9,225.97 57.47,227.97 59.05,229.96 60.65,231.94 62.29,233.89 63.11,234.86 63.93,235.83 64.78,236.77 65.65,237.73 66.29,238.87 66.82,240.03 67.88,242.36 68.57,244.83 69.13,247.31 69.68,249.8 70.1,252.31 70.38,254.84 L 70.33,254.85 Z M 70.33,254.85" />
            <path id="sue04Canvas-bezier46" stroke="none" fill="rgb(51, 91, 113)" d="M 39.82,182.67 C 38.96,192.94 38.03,203.2 36.99,213.45 L 36.2,221.13 35.29,228.81 C 34.94,231.36 34.59,233.91 34.18,236.46 33.75,239 33.34,241.55 32.62,244.03 L 32.57,244.02 C 32.88,242.77 33.07,241.5 33.26,240.22 33.46,238.95 33.64,237.68 33.8,236.4 34.13,233.85 34.45,231.3 34.74,228.74 L 35.66,221.07 36.55,213.4 C 37.69,203.16 38.75,192.92 39.76,182.67 L 39.82,182.67 Z M 39.82,182.67" />
            <path id="sue04Canvas-bezier47" stroke="none" fill="rgb(51, 91, 113)" d="M 32.36,245.04 C 32.34,247.82 32.2,250.6 31.96,253.37 31.84,254.75 31.73,256.14 31.49,257.52 31.23,258.89 30.96,260.25 30.51,261.58 L 30.46,261.57 C 30.59,260.18 30.79,258.81 30.95,257.44 31.12,256.06 31.35,254.7 31.52,253.32 31.69,251.95 31.84,250.57 31.97,249.19 32.1,247.81 32.22,246.42 32.31,245.04 L 32.36,245.04 Z M 32.36,245.04" />
            <path id="sue04Canvas-bezier48" stroke="none" fill="rgb(51, 91, 113)" d="M 29.98,263.56 C 29.87,268.11 29.93,272.68 30.33,277.22 30.55,279.49 30.82,281.77 31.49,283.94 31.84,285.04 32.03,286.17 32.21,287.3 32.38,288.43 32.52,289.56 32.64,290.7 33.11,295.24 33.36,299.8 33.56,304.36 33.65,306.64 33.73,308.92 33.78,311.2 33.83,313.49 33.9,315.76 33.85,318.06 L 33.84,318.32 33.59,318.23 C 32.91,318.01 32.14,318.01 31.4,318.07 30.65,318.13 29.9,318.26 29.17,318.42 27.69,318.75 26.23,319.2 24.79,319.69 21.91,320.69 19.09,321.87 16.34,323.16 L 16.08,323.28 15.99,323.02 C 14.53,318.78 13.35,314.47 12.3,310.13 11.25,305.79 10.36,301.41 9.7,296.99 9.04,292.57 8.56,288.12 8.33,283.66 8.09,279.2 8.14,274.73 8.54,270.28 L 8.6,270.29 C 8.31,274.74 8.37,279.2 8.65,283.65 8.93,288.09 9.46,292.52 10.18,296.91 10.91,301.31 11.79,305.67 12.83,310 13.88,314.33 15.06,318.63 16.47,322.85 L 16.12,322.7 C 18.91,321.42 21.74,320.26 24.65,319.27 26.1,318.79 27.57,318.34 29.08,318.02 29.83,317.86 30.59,317.72 31.37,317.66 32.14,317.61 32.94,317.6 33.72,317.87 L 33.46,318.04 C 33.52,315.78 33.46,313.49 33.43,311.21 33.38,308.93 33.32,306.65 33.24,304.37 33.06,299.82 32.83,295.26 32.4,290.72 32.28,289.59 32.16,288.46 31.99,287.33 31.82,286.21 31.63,285.08 31.3,284 30.64,281.79 30.38,279.51 30.18,277.24 29.81,272.69 29.79,268.11 29.93,263.55 L 29.98,263.56 Z M 29.98,263.56" />
            <path id="sue04Canvas-bezier49" stroke="none" fill="rgb(51, 91, 113)" d="M 9.6,267.39 C 9.29,266.82 9.01,266.22 8.86,265.56 8.82,265.39 8.79,265.23 8.78,265.05 8.77,264.88 8.79,264.69 8.8,264.55 8.81,264.23 8.82,263.9 8.83,263.58 8.87,262.28 8.87,260.98 8.87,259.68 8.86,258.38 8.89,257.07 8.93,255.77 8.93,254.48 9.04,253.17 8.92,251.88 L 8.98,251.87 C 9.17,252.51 9.22,253.16 9.28,253.81 9.34,254.47 9.38,255.12 9.4,255.77 9.45,257.08 9.46,258.38 9.41,259.69 9.37,260.99 9.31,262.29 9.24,263.6 9.22,263.92 9.2,264.25 9.17,264.58 9.15,264.76 9.12,264.89 9.12,265.05 9.12,265.2 9.13,265.35 9.15,265.51 9.22,266.14 9.41,266.77 9.65,267.37 L 9.6,267.39 Z M 9.6,267.39" />
            <path id="sue04Canvas-bezier50" stroke="none" fill="rgb(51, 91, 113)" d="M 7.93,248.23 C 6.76,240.64 5.64,233.03 4.59,225.41 4.07,221.6 3.52,217.8 3.1,213.97 2.91,212.06 2.7,210.15 2.55,208.23 2.41,206.31 2.24,204.39 2.34,202.46 L 2.39,202.46 C 2.39,203.42 2.51,204.38 2.61,205.33 2.71,206.29 2.82,207.24 2.93,208.19 L 3.65,213.91 5.03,225.36 C 5.98,232.98 6.97,240.61 7.98,248.23 L 7.93,248.23 Z M 7.93,248.23" />
            <path id="sue04Canvas-bezier51" stroke="none" fill="rgb(51, 91, 113)" d="M 18.53,323.78 C 19.73,327.47 20.86,331.18 21.89,334.92 22.42,336.79 22.95,338.65 23.33,340.56 23.52,341.51 23.7,342.47 23.83,343.44 23.95,344.4 24.06,345.38 23.98,346.35 L 23.92,346.35 C 23.85,345.39 23.65,344.44 23.45,343.5 23.25,342.56 23.04,341.61 22.8,340.68 L 21.47,335.03 C 20.53,331.27 19.52,327.53 18.48,323.8 L 18.53,323.78 Z M 18.53,323.78" />
            <path id="sue04Canvas-bezier52" stroke="none" fill="rgb(51, 91, 113)" d="M 24.97,349.23 C 24.94,351.19 24.83,353.16 24.62,355.12 24.51,356.1 24.42,357.08 24.18,358.05 23.93,359 23.63,359.97 23.08,360.81 L 23.03,360.79 C 23.3,359.84 23.47,358.89 23.64,357.93 23.81,356.98 24.02,356.02 24.18,355.06 24.49,353.13 24.73,351.18 24.91,349.22 L 24.97,349.23 Z M 24.97,349.23" />
            <path id="sue04Canvas-bezier53" stroke="none" fill="rgb(51, 91, 113)" d="M 32.69,320.23 C 33.06,324.24 33.38,328.26 33.64,332.28 33.78,334.29 33.93,336.31 33.96,338.32 33.96,340.34 34,342.37 33.7,344.38 L 33.65,344.37 C 33.63,342.36 33.51,340.35 33.41,338.34 33.31,336.33 33.28,334.32 33.2,332.3 33.04,328.28 32.84,324.25 32.63,320.23 L 32.69,320.23 Z M 32.69,320.23" />
            <path id="sue04Canvas-bezier54" stroke="none" fill="rgb(51, 91, 113)" d="M 35.36,344.36 C 35.94,345.11 36.34,346.02 36.43,347 36.47,347.49 36.48,348.02 36.27,348.48 36.08,348.95 35.77,349.36 35.36,349.64 L 35.31,349.6 C 35.49,349.14 35.65,348.73 35.76,348.31 35.86,347.89 35.99,347.47 35.99,347.02 36.01,346.57 35.94,346.12 35.82,345.68 35.71,345.23 35.54,344.8 35.31,344.39 L 35.36,344.36 Z M 35.36,344.36" />
            <path id="sue04Canvas-bezier55" stroke="none" fill="rgb(51, 91, 113)" d="M 35.36,352 C 35.2,354.52 34.94,357.05 34.54,359.55 34.34,360.8 34.1,362.05 33.78,363.29 33.46,364.52 33.09,365.75 32.48,366.9 32.17,367.46 31.8,368.04 31.19,368.43 31.04,368.52 30.87,368.6 30.69,368.64 30.49,368.69 30.35,368.7 30.2,368.72 L 29.26,368.88 C 28.01,369.09 26.74,369.3 25.43,369.22 24.78,369.16 24.1,369.03 23.5,368.68 22.9,368.34 22.45,367.74 22.28,367.09 21.92,365.78 22.19,364.48 22.54,363.27 L 22.59,363.28 C 22.49,363.91 22.4,364.53 22.4,365.16 22.38,365.78 22.43,366.41 22.64,366.97 22.85,367.53 23.22,368 23.74,368.27 24.25,368.54 24.85,368.65 25.46,368.67 26.68,368.73 27.93,368.52 29.18,368.34 L 30.12,368.21 C 30.47,368.17 30.7,368.15 30.94,368 31.42,367.72 31.8,367.21 32.1,366.68 32.7,365.61 33.1,364.4 33.44,363.19 33.78,361.98 34.04,360.75 34.27,359.51 34.74,357.02 35.08,354.51 35.31,351.99 L 35.36,352 Z M 35.36,352" />
            <path id="sue04Canvas-bezier56" stroke="none" fill="rgb(51, 91, 113)" d="M 20.51,365.86 C 20.03,367.69 19.74,369.58 19.69,371.46 19.67,372.41 19.72,373.36 19.89,374.28 19.96,374.73 20.2,375.13 20.54,375.43 20.88,375.73 21.29,375.95 21.72,376.11 22.59,376.43 23.54,376.55 24.47,376.58 25.41,376.61 26.35,376.54 27.28,376.4 28.2,376.25 29.12,376.02 29.99,375.69 30.86,375.35 31.7,374.92 32.36,374.3 32.7,373.99 32.94,373.64 33.12,373.21 33.31,372.79 33.47,372.35 33.62,371.91 33.91,371.02 34.14,370.1 34.35,369.18 34.77,367.34 35.12,365.48 35.51,363.62 35.71,362.69 35.9,361.76 36.17,360.83 36.23,360.6 36.31,360.37 36.4,360.14 36.45,360.02 36.5,359.9 36.57,359.78 36.61,359.72 36.65,359.66 36.72,359.59 36.82,359.51 36.85,359.51 36.85,359.49 36.97,359.38 37.06,359.16 37.14,358.95 37.21,358.74 37.27,358.52 37.33,358.29 37.53,357.38 37.64,356.44 37.71,355.5 37.74,355.03 37.77,354.56 37.76,354.08 37.75,353.62 37.77,353.12 37.59,352.7 L 37.63,352.67 C 37.77,352.89 37.8,353.13 37.84,353.36 37.88,353.6 37.9,353.84 37.92,354.08 37.95,354.55 37.96,355.03 37.96,355.51 37.94,356.46 37.87,357.42 37.7,358.37 37.65,358.61 37.6,358.84 37.53,359.08 37.45,359.32 37.38,359.56 37.16,359.8 37.09,359.87 37.01,359.92 37.02,359.91 37,359.93 36.97,359.97 36.95,360.01 36.9,360.09 36.86,360.2 36.82,360.3 36.75,360.51 36.68,360.73 36.62,360.96 36.39,361.86 36.22,362.8 36.05,363.73 35.68,365.59 35.34,367.46 34.88,369.31 34.65,370.23 34.4,371.16 34.08,372.06 33.93,372.52 33.75,372.97 33.54,373.41 33.35,373.85 33.03,374.3 32.66,374.62 31.92,375.29 31.03,375.72 30.13,376.06 29.22,376.39 28.28,376.61 27.33,376.75 26.38,376.89 25.42,376.94 24.46,376.9 23.5,376.85 22.54,376.72 21.63,376.36 21.18,376.19 20.74,375.95 20.37,375.61 20.01,375.28 19.74,374.81 19.67,374.32 19.51,373.37 19.48,372.41 19.52,371.46 19.61,369.56 19.95,367.67 20.46,365.84 L 20.51,365.86 Z M 20.51,365.86" />
            <path id="sue04Canvas-bezier57" stroke="none" fill="rgb(51, 91, 113)" d="M 66.15,320.23 C 66.05,323.74 65.79,327.25 65.3,330.73 65.05,332.47 64.78,334.22 64.28,335.92 64.02,336.77 63.74,337.61 63.36,338.42 62.98,339.22 62.54,340.02 61.89,340.63 L 61.85,340.6 C 62.37,339.89 62.71,339.09 63.01,338.28 63.3,337.46 63.55,336.63 63.75,335.78 64.17,334.09 64.56,332.39 64.86,330.67 65.16,328.94 65.4,327.21 65.6,325.46 65.81,323.72 65.98,321.98 66.1,320.23 L 66.15,320.23 Z M 66.15,320.23" />
            <path id="sue04Canvas-bezier58" stroke="none" fill="rgb(51, 91, 113)" d="M 58.48,346.12 C 58.05,347.37 57.75,348.67 57.6,349.98 57.47,351.28 57.47,352.64 57.99,353.85 58.25,354.44 58.65,354.97 59.19,355.33 59.46,355.51 59.75,355.65 60.05,355.75 60.36,355.85 60.68,355.91 61.01,355.99 62.3,356.3 63.57,356.71 64.81,357.16 67.31,358.07 69.73,359.16 72.07,360.42 73.24,361.05 74.39,361.73 75.48,362.5 76.02,362.88 76.55,363.29 77.05,363.74 77.31,363.96 77.54,364.22 77.77,364.44 78,364.65 78.25,364.86 78.51,365.06 80.6,366.64 82.95,367.87 85.37,368.89 86.58,369.41 87.81,369.86 89.07,370.21 90.33,370.55 91.62,370.81 92.92,370.84 94.19,370.89 95.53,370.72 96.54,369.97 97.04,369.61 97.45,369.11 97.66,368.53 97.88,367.95 97.91,367.31 97.81,366.68 97.6,365.42 96.91,364.25 96.01,363.32 95.12,362.38 93.97,361.62 92.66,361.42 L 92.67,361.37 C 94,361.5 95.23,362.22 96.19,363.14 97.15,364.08 97.91,365.26 98.19,366.61 98.32,367.29 98.31,368.01 98.07,368.68 97.84,369.35 97.38,369.93 96.83,370.35 95.69,371.22 94.24,371.41 92.9,371.39 91.54,371.35 90.22,371.09 88.93,370.73 87.64,370.37 86.38,369.91 85.16,369.39 82.72,368.32 80.36,367.05 78.24,365.41 77.98,365.2 77.72,364.98 77.47,364.75 77.22,364.51 77.01,364.27 76.77,364.05 76.3,363.61 75.78,363.2 75.25,362.82 74.18,362.06 73.05,361.37 71.9,360.73 69.59,359.46 67.19,358.35 64.72,357.42 63.49,356.95 62.23,356.53 60.96,356.2 60.64,356.12 60.31,356.06 59.99,355.95 59.67,355.83 59.36,355.68 59.08,355.49 58.52,355.1 58.1,354.53 57.84,353.91 57.32,352.65 57.34,351.27 57.49,349.97 57.66,348.65 57.98,347.35 58.43,346.11 L 58.48,346.12 Z M 58.48,346.12" />
            <path id="sue04Canvas-bezier59" stroke="none" fill="rgb(51, 91, 113)" d="M 62.85,347.1 C 65.26,348.47 67.64,349.89 69.98,351.36 72.3,352.87 74.63,354.37 76.74,356.23 77.72,357.21 78.78,358.04 79.92,358.82 81.05,359.6 82.22,360.32 83.42,360.98 84.62,361.64 85.87,362.24 87.17,362.62 87.81,362.8 88.5,362.94 89.14,362.8 89.45,362.73 89.74,362.56 89.91,362.28 90.08,362 90.13,361.66 90.14,361.31 L 90.2,361.31 C 90.23,361.66 90.22,362.03 90.05,362.36 89.89,362.69 89.56,362.94 89.21,363.04 88.49,363.25 87.76,363.13 87.08,362.99 85.7,362.67 84.41,362.09 83.17,361.46 81.93,360.82 80.74,360.08 79.61,359.27 78.48,358.45 77.39,357.54 76.44,356.55 74.42,354.7 72.11,353.14 69.83,351.59 67.53,350.06 65.19,348.58 62.82,347.15 L 62.85,347.1 Z M 62.85,347.1" />
            <path id="sue04Canvas-bezier60" stroke="none" fill="rgb(51, 91, 113)" d="M 82.19,322.95 C 80.73,325.87 79.74,329.02 79.17,332.23 78.6,335.44 78.51,338.74 79.05,341.94 79.6,345.14 80.83,348.2 82.57,350.92 84.3,353.67 86.59,356.03 89.12,358.11 L 89.08,358.15 C 86.36,356.32 83.96,353.97 82.11,351.22 80.26,348.47 79.11,345.27 78.62,342.01 78.12,338.74 78.27,335.4 78.9,332.18 79.55,328.96 80.61,325.82 82.14,322.92 L 82.19,322.95 Z M 82.19,322.95" />
            <path id="sue04Canvas-bezier61" stroke="none" fill="rgb(51, 91, 113)" d="M 7.98,150.48 C 6.26,154.26 4.94,158.2 3.84,162.19 2.74,166.18 1.9,170.25 1.35,174.35 0.8,178.45 0.56,182.58 0.56,186.72 0.53,190.85 0.84,194.98 1.4,199.09 L 1.35,199.1 C 0.48,195.04 0.08,190.88 0.01,186.72 -0.06,182.56 0.3,178.4 0.92,174.29 1.53,170.17 2.42,166.11 3.58,162.12 4.75,158.13 6.14,154.21 7.93,150.46 L 7.98,150.48 Z M 7.98,150.48" />
            <path id="sue04Canvas-bezier62" stroke="none" fill="rgb(51, 91, 113)" d="M 31.58,40.28 C 32.65,40.48 33.74,40.54 34.83,40.53 35.92,40.52 37,40.43 38.08,40.27 39.15,40.1 40.21,39.85 41.26,39.57 42.31,39.3 43.34,38.95 44.37,38.59 L 44.38,38.61 C 43.41,39.12 42.38,39.51 41.33,39.83 40.28,40.15 39.2,40.35 38.11,40.48 37.02,40.62 35.93,40.69 34.83,40.67 33.74,40.64 32.64,40.54 31.57,40.31 L 31.58,40.28 Z M 31.58,40.28" />
            <path id="sue04Canvas-bezier63" stroke="none" fill="rgb(51, 91, 113)" d="M 32.28,40.85 C 33.04,41.71 34.07,42.33 35.17,42.63 36.28,42.94 37.46,42.89 38.56,42.58 39.66,42.26 40.69,41.72 41.64,41.09 42.6,40.46 43.49,39.72 44.37,38.96 L 44.39,38.98 C 43.62,39.85 42.74,40.64 41.79,41.31 40.83,41.97 39.76,42.51 38.62,42.79 37.48,43.08 36.26,43.11 35.14,42.76 34.02,42.42 33,41.76 32.25,40.86 L 32.28,40.85 Z M 32.28,40.85" />
            <path id="sue04Canvas-bezier64" stroke="none" fill="rgb(51, 91, 113)" d="M 46.37,44.34 C 46.11,46.18 45.21,47.97 43.73,49.15 42.24,50.32 40.28,50.78 38.41,50.62 36.51,50.45 34.76,49.53 33.3,48.37 31.83,47.2 30.57,45.79 29.41,44.33 28.83,43.59 28.28,42.85 27.74,42.09 27.2,41.33 26.64,40.59 26.16,39.76 25.69,38.94 25.3,38.06 25.07,37.13 24.84,36.19 24.79,35.23 24.79,34.3 24.8,33.35 24.82,32.47 24.6,31.57 24.45,30.63 24.38,29.7 24.34,28.77 24.29,27.84 24.26,26.92 24.18,26 24.14,25.54 24.1,25.08 24.01,24.62 23.92,24.18 23.82,23.71 23.53,23.36 L 23.57,23.32 C 23.9,23.67 24.04,24.15 24.16,24.59 24.28,25.05 24.36,25.51 24.43,25.97 24.55,26.89 24.63,27.82 24.72,28.75 24.82,29.67 24.89,30.59 25.06,31.48 25.31,32.39 25.33,33.38 25.34,34.29 25.35,35.22 25.4,36.12 25.62,36.99 25.83,37.86 26.18,38.7 26.63,39.49 27.07,40.28 27.62,41.04 28.14,41.81 28.66,42.57 29.2,43.32 29.76,44.06 30.89,45.52 32.1,46.92 33.52,48.09 34.93,49.25 36.61,50.16 38.43,50.35 40.24,50.54 42.16,50.13 43.63,49.02 45.09,47.9 46.02,46.15 46.32,44.33 L 46.37,44.34 Z M 46.37,44.34" />
            <path id="sue04Canvas-bezier65" stroke="none" fill="rgb(51, 91, 113)" d="M 21.5,149.51 C 20.88,150.85 20.11,152.12 19.26,153.33 18.4,154.53 17.43,155.66 16.36,156.69 15.28,157.72 14.11,158.67 12.79,159.38 11.47,160.07 10.05,160.6 8.58,160.79 L 8.56,160.74 C 9.95,160.24 11.28,159.66 12.52,158.9 13.77,158.16 14.97,157.33 16.06,156.37 17.15,155.4 18.14,154.32 19.04,153.17 19.95,152.01 20.77,150.79 21.45,149.49 L 21.5,149.51 Z M 21.5,149.51" />
            <path id="sue04Canvas-bezier66" stroke="none" fill="rgb(51, 91, 113)" d="M 62.99,152.85 C 63.01,153.73 63.06,154.61 63.13,155.49 63.2,156.36 63.29,157.24 63.42,158.1 63.55,158.97 63.76,159.82 63.95,160.66 64.16,161.48 64.36,162.34 64.96,162.98 L 64.92,163.03 C 64.51,162.83 64.2,162.44 63.97,162.05 63.73,161.66 63.56,161.23 63.42,160.8 63.15,159.94 63.06,159.04 62.98,158.16 62.83,156.38 62.83,154.61 62.93,152.85 L 62.99,152.85 Z M 62.99,152.85" />
            <g id="sue04Canvas-group3">
                <path id="sue04Canvas-bezier67" stroke="none" fill="rgb(51, 91, 113)" d="M 26.95,92.56 C 26.73,90.92 26.55,89.27 26.52,87.61 26.52,87.19 26.53,86.77 26.58,86.35 26.64,85.92 26.74,85.51 26.85,85.11 27.08,84.31 27.36,83.52 27.68,82.76 28.01,81.99 28.37,81.23 28.81,80.51 29.25,79.81 29.76,79.09 30.55,78.63 31.42,78.16 32.43,78.49 33.05,79.08 33.69,79.67 34.11,80.42 34.38,81.21 L 34.33,81.23 C 33.92,80.52 33.43,79.85 32.82,79.38 32.5,79.15 32.17,78.97 31.81,78.92 31.72,78.91 31.64,78.91 31.55,78.9 31.47,78.91 31.39,78.91 31.28,78.93 31.12,78.95 30.96,79.02 30.81,79.11 30.5,79.29 30.22,79.56 29.97,79.86 29.71,80.15 29.47,80.47 29.25,80.81 28.81,81.48 28.42,82.2 28.08,82.94 27.74,83.68 27.43,84.44 27.18,85.22 27.06,85.61 26.95,86 26.89,86.39 26.83,86.79 26.81,87.2 26.79,87.61 26.75,89.25 26.86,90.91 27,92.56 L 26.95,92.56 Z M 26.95,92.56" />
                <path id="sue04Canvas-bezier68" stroke="none" fill="rgb(51, 91, 113)" d="M 38.97,82.68 C 38.55,82.45 38.26,82.06 37.96,81.71 37.66,81.35 37.38,80.98 37.05,80.67 36.75,80.35 36.35,80.04 36.03,80.21 35.64,80.37 35.3,80.67 35.08,81.02 34.62,81.75 34.78,82.66 35.11,83.47 35.45,84.29 35.97,85.05 36.49,85.84 L 36.45,85.87 C 35.72,85.3 35.07,84.58 34.62,83.7 34.41,83.25 34.26,82.76 34.26,82.24 34.26,81.72 34.42,81.19 34.72,80.77 35.02,80.36 35.43,80.04 35.91,79.88 36.02,79.83 36.19,79.8 36.33,79.83 36.47,79.86 36.59,79.92 36.7,79.98 36.92,80.12 37.09,80.3 37.25,80.48 37.56,80.84 37.82,81.23 38.09,81.61 38.36,81.98 38.62,82.38 39,82.63 L 38.97,82.68 Z M 38.97,82.68" />
                <path id="sue04Canvas-bezier69" stroke="none" fill="rgb(51, 91, 113)" d="M 36.78,86.06 C 36.76,86.32 36.79,86.58 36.84,86.83 36.89,87.08 36.97,87.31 37.08,87.53 37.19,87.74 37.37,87.9 37.49,88.11 37.61,88.32 37.74,88.52 37.86,88.8 L 37.83,88.85 C 37.53,88.81 37.28,88.66 37.07,88.46 36.86,88.26 36.76,87.96 36.68,87.69 36.52,87.14 36.54,86.55 36.73,86.05 L 36.78,86.06 Z M 36.78,86.06" />
                <path id="sue04Canvas-bezier70" stroke="none" fill="rgb(51, 91, 113)" d="M 39.27,82.92 C 39.45,83.5 39.64,84.08 39.87,84.64 39.98,84.93 40.11,85.2 40.25,85.46 40.33,85.59 40.41,85.71 40.5,85.82 40.54,85.86 40.59,85.91 40.64,85.93 40.7,85.97 40.79,86.03 40.85,86.09 41.31,86.58 41.5,87.23 41.52,87.88 41.52,88.21 41.46,88.55 41.32,88.86 41.19,89.17 40.9,89.43 40.73,89.62 40.37,90.06 40.12,90.6 39.92,91.15 39.82,91.43 39.74,91.72 39.65,92.01 39.61,92.15 39.57,92.29 39.51,92.46 39.41,92.7 39.31,92.79 39.21,92.92 38.78,93.38 38.32,93.8 37.82,94.17 37.32,94.51 36.78,94.88 36.15,94.92 L 36.14,94.87 C 36.42,94.78 36.68,94.62 36.91,94.44 37.15,94.27 37.37,94.07 37.59,93.87 38.02,93.46 38.44,93.03 38.79,92.56 38.88,92.46 38.99,92.32 39,92.27 L 39.12,91.84 C 39.21,91.55 39.31,91.25 39.43,90.96 39.67,90.37 39.97,89.8 40.41,89.32 40.66,89.07 40.85,88.93 40.97,88.68 41.09,88.44 41.16,88.16 41.17,87.88 41.18,87.32 41.02,86.69 40.66,86.28 40.61,86.23 40.58,86.2 40.51,86.16 40.43,86.11 40.37,86.04 40.31,85.98 40.21,85.85 40.14,85.71 40.06,85.57 39.93,85.28 39.82,84.99 39.72,84.7 39.52,84.12 39.36,83.53 39.22,82.93 L 39.27,82.92 Z M 39.27,82.92" />
                <path id="sue04Canvas-bezier71" stroke="none" fill="rgb(51, 91, 113)" d="M 35.65,95.58 C 34.15,98.42 32.71,101.29 31.34,104.19 30.67,105.64 30.04,107.12 29.39,108.58 29.06,109.31 28.76,110.05 28.47,110.79 28.32,111.17 28.19,111.54 28.07,111.92 27.95,112.3 27.85,112.69 27.8,113.09 L 27.75,113.09 C 27.7,112.26 27.91,111.45 28.11,110.67 28.33,109.89 28.62,109.13 28.9,108.37 29.49,106.86 30.23,105.43 30.96,103.99 32.41,101.12 33.97,98.31 35.6,95.55 L 35.65,95.58 Z M 35.65,95.58" />
                <path id="sue04Canvas-bezier72" stroke="none" fill="rgb(51, 91, 113)" d="M 35.94,86.44 C 35.99,86.58 35.93,86.73 35.84,86.83 35.75,86.93 35.63,87 35.52,87.05 35.29,87.16 35.04,87.23 34.8,87.27 34.53,87.34 34.21,87.24 34,87.07 33.78,86.91 33.61,86.7 33.46,86.49 33.17,86.05 32.94,85.59 32.76,85.12 32.58,84.64 32.49,84.13 32.45,83.62 L 32.45,83.57 32.45,83.57 C 32.49,83.43 32.53,83.33 32.59,83.21 32.65,83.11 32.71,83 32.79,82.91 L 32.84,82.93 C 32.82,83.05 32.8,83.16 32.8,83.28 32.79,83.39 32.78,83.51 32.79,83.6 L 32.79,83.55 C 32.96,84.01 33.13,84.47 33.28,84.93 33.42,85.39 33.56,85.86 33.8,86.27 34.02,86.67 34.34,87.07 34.77,87.02 35,87.01 35.24,86.98 35.46,86.91 35.67,86.84 35.92,86.7 35.89,86.46 L 35.94,86.44 Z M 35.94,86.44" />
                <path id="sue04Canvas-bezier73" stroke="none" fill="rgb(51, 91, 113)" d="M 30.69,81.31 C 30.88,81.78 31.11,82.22 31.37,82.62 31.5,82.83 31.68,82.99 31.79,83.19 31.9,83.4 32.01,83.6 32.12,83.86 L 32.08,83.91 C 31.79,83.88 31.55,83.72 31.36,83.53 31.17,83.34 31.09,83.07 30.99,82.83 30.8,82.34 30.68,81.84 30.64,81.32 L 30.69,81.31 Z M 30.69,81.31" />
                <path id="sue04Canvas-bezier74" stroke="none" fill="rgb(51, 91, 113)" d="M 29.34,83.36 C 29.63,83.41 29.92,83.45 30.18,83.44 30.31,83.44 30.42,83.37 30.5,83.39 30.59,83.4 30.67,83.44 30.87,83.37 L 30.92,83.4 C 31,83.6 30.83,83.85 30.64,83.92 30.44,84.01 30.26,83.93 30.11,83.88 29.8,83.78 29.54,83.61 29.31,83.41 L 29.34,83.36 Z M 29.34,83.36" />
                <path id="sue04Canvas-bezier75" stroke="none" fill="rgb(51, 91, 113)" d="M 34.12,88 C 33.85,88.86 33.62,89.73 33.46,90.61 33.37,91.04 33.36,91.49 33.27,91.91 33.19,92.34 33.12,92.76 33.07,93.22 L 33.02,93.23 C 32.77,92.82 32.72,92.32 32.74,91.85 32.75,91.38 32.91,90.94 33.04,90.5 33.3,89.62 33.65,88.78 34.07,87.98 L 34.12,88 Z M 34.12,88" />
                <path id="sue04Canvas-bezier76" stroke="none" fill="rgb(51, 91, 113)" d="M 28.55,79.22 C 28.31,76.56 28.02,73.9 27.63,71.27 27.53,70.61 27.42,69.95 27.3,69.3 27.16,68.66 27.03,67.99 26.79,67.42 26.5,66.8 26.32,66.04 26.57,65.33 26.82,64.62 27.51,64.12 28.24,64.06 28.4,64.04 28.64,64.04 28.84,64.16 29.02,64.26 29.15,64.4 29.27,64.54 29.5,64.83 29.65,65.14 29.8,65.45 30.08,66.08 30.28,66.73 30.46,67.38 30.64,68.03 30.76,68.71 30.9,69.34 L 31.33,71.29 C 31.59,72.6 31.88,73.91 32.09,75.23 32.15,75.56 32.19,75.9 32.23,76.23 32.24,76.32 32.24,76.41 32.25,76.5 32.25,76.58 32.23,76.71 32.24,76.72 32.25,76.73 32.23,76.71 32.22,76.71 32.22,76.71 32.24,76.72 32.27,76.71 32.32,76.69 32.39,76.66 32.45,76.62 32.71,76.46 32.95,76.23 33.15,75.98 33.34,75.73 33.55,75.43 33.5,75.12 L 33.56,75.1 C 33.65,75.46 33.45,75.79 33.28,76.07 33.09,76.36 32.87,76.62 32.59,76.83 32.51,76.88 32.44,76.93 32.34,76.96 32.29,76.98 32.22,76.99 32.14,76.98 32.05,76.95 31.98,76.86 31.97,76.79 31.94,76.63 31.96,76.59 31.95,76.51 31.94,76.44 31.93,76.36 31.92,76.27 31.87,75.95 31.8,75.63 31.73,75.3 31.43,74.01 31.12,72.71 30.8,71.42 L 30.36,69.47 C 30.21,68.8 30.11,68.16 29.94,67.52 29.79,66.88 29.6,66.25 29.36,65.65 29.23,65.36 29.09,65.07 28.91,64.83 28.82,64.72 28.72,64.61 28.62,64.55 28.53,64.5 28.43,64.48 28.27,64.49 27.7,64.53 27.14,64.91 26.94,65.47 26.72,66.03 26.85,66.69 27.1,67.26 27.37,67.92 27.47,68.58 27.6,69.24 27.72,69.9 27.81,70.56 27.89,71.23 28.22,73.88 28.43,76.55 28.6,79.21 L 28.55,79.22 Z M 28.55,79.22" />
                <path id="sue04Canvas-bezier77" stroke="none" fill="rgb(51, 91, 113)" d="M 32.59,73.64 C 32.64,71.39 32.67,69.13 32.6,66.88 32.57,66.32 32.57,65.75 32.46,65.22 32.35,64.67 32.19,64.13 32.13,63.54 32.1,63.25 32.1,62.94 32.2,62.63 32.29,62.32 32.53,62.05 32.81,61.9 33.09,61.75 33.37,61.69 33.69,61.66 34.03,61.65 34.35,61.82 34.57,62.04 35.01,62.49 35.23,63.05 35.42,63.59 35.61,64.14 35.73,64.7 35.83,65.27 35.94,65.82 35.99,66.42 36.06,66.96 36.13,67.52 36.19,68.08 36.24,68.65 36.33,69.78 36.37,70.92 36.34,72.06 36.31,73.19 36.24,74.34 35.89,75.45 L 35.89,75.47 35.89,75.47 C 35.81,75.63 35.82,75.74 35.95,75.83 36.09,75.92 36.28,75.96 36.47,75.98 36.65,75.99 36.85,75.99 37.04,75.96 37.22,75.92 37.43,75.89 37.56,75.76 L 37.6,75.8 C 37.46,75.97 37.26,76.03 37.06,76.08 36.87,76.13 36.66,76.16 36.46,76.17 36.25,76.17 36.04,76.15 35.83,76.04 35.72,75.99 35.62,75.88 35.58,75.74 35.55,75.59 35.58,75.46 35.62,75.35 L 35.62,75.37 C 36.05,73.2 35.83,70.92 35.68,68.7 35.63,68.14 35.59,67.58 35.53,67.02 35.46,66.44 35.44,65.91 35.35,65.35 35.27,64.8 35.16,64.26 35,63.73 34.84,63.22 34.63,62.69 34.29,62.34 34.12,62.17 33.91,62.06 33.69,62.06 33.46,62.07 33.19,62.12 32.98,62.23 32.53,62.44 32.41,62.98 32.46,63.51 32.5,64.05 32.65,64.6 32.75,65.16 32.85,65.74 32.84,66.3 32.85,66.87 32.86,69.13 32.76,71.39 32.65,73.64 L 32.59,73.64 Z M 32.59,73.64" />
                <path id="sue04Canvas-bezier78" stroke="none" fill="rgb(51, 91, 113)" d="M 37.02,75.24 C 37.73,73.16 38.41,71.07 39.02,68.95 39.32,67.9 39.63,66.84 39.8,65.76 39.9,65.21 40.11,64.61 40.63,64.24 40.89,64.06 41.23,63.99 41.54,64.06 41.85,64.14 42.12,64.34 42.31,64.58 42.69,65.07 42.78,65.7 42.78,66.26 42.79,66.83 42.76,67.39 42.72,67.94 42.62,69.05 42.47,70.15 42.26,71.24 41.84,73.41 41.28,75.59 40.17,77.55 L 40.2,77.45 C 40.15,78.17 40.01,78.86 39.86,79.54 39.69,80.22 39.52,80.89 39.31,81.56 L 39.25,81.54 C 39.38,80.86 39.5,80.18 39.6,79.49 39.71,78.81 39.8,78.12 39.8,77.44 L 39.8,77.4 39.83,77.35 C 40.33,76.4 40.67,75.36 40.96,74.31 41.27,73.27 41.5,72.2 41.73,71.13 41.94,70.06 42.13,68.98 42.25,67.89 42.31,67.35 42.36,66.81 42.36,66.27 42.37,65.74 42.29,65.21 42,64.82 41.73,64.43 41.21,64.27 40.82,64.54 40.42,64.8 40.2,65.31 40.11,65.82 39.92,66.92 39.58,67.98 39.25,69.03 38.58,71.13 37.84,73.2 37.07,75.26 L 37.02,75.24 Z M 37.02,75.24" />
            </g>
            <path id="sue04Canvas-bezier79" stroke="none" fill="rgb(51, 91, 113)" d="M 26.6,93.71 C 26.08,95.32 25.49,96.92 24.83,98.49 24.51,99.27 24.19,100.07 23.75,100.81 23.53,101.18 23.3,101.54 23.03,101.88 22.77,102.22 22.48,102.55 22.13,102.81 L 22.09,102.77 C 22.54,102.05 22.9,101.3 23.27,100.55 23.64,99.79 24.06,99.06 24.43,98.31 25.18,96.79 25.88,95.25 26.55,93.69 L 26.6,93.71 Z M 26.6,93.71" />
        </g>
    </g>
</svg>
