<?xml version="1.0" encoding="UTF-8"?>
<!DOCTYPE svg PUBLIC "-//W3C//DTD SVG 1.1//EN" "http://www.w3.org/Graphics/SVG/1.1/DTD/svg11.dtd">
<svg version="1.1" xmlns="http://www.w3.org/2000/svg" xmlns:xlink="http://www.w3.org/1999/xlink" width="98" height="378"  xml:space="preserve" id="sue05Canvas">
    <!-- Generated by PaintCode - http://www.paintcodeapp.com -->
    <g id="sue05Canvas-lines">
        <g id="sue05Canvas-group2">
            <path id="sue05Canvas-bezier" stroke="none" fill="rgb(51, 91, 113)" d="M 30.94,2.44 C 30.23,3.79 29.54,5.16 28.91,6.54 28.6,7.24 28.34,7.95 28.04,8.64 27.89,8.98 27.75,9.33 27.62,9.67 27.55,9.85 27.5,10.02 27.46,10.2 27.42,10.38 27.4,10.56 27.45,10.73 L 27.4,10.76 C 27.14,10.42 27.2,9.96 27.24,9.58 27.29,9.18 27.4,8.81 27.52,8.44 27.76,7.7 28.14,7.02 28.51,6.34 29.24,4.99 30.04,3.68 30.89,2.41 L 30.94,2.44 Z M 30.94,2.44" />
            <path id="sue05Canvas-bezier2" stroke="none" fill="rgb(51, 91, 113)" d="M 32.02,0.88 C 34,0.29 36.06,0.01 38.12,-0 40.18,-0.01 42.26,0.29 44.22,0.98 46.17,1.66 48,2.75 49.53,4.16 51.06,5.57 52.3,7.28 53.26,9.13 53.75,10.05 54.15,11.01 54.55,11.97 54.94,12.92 55.31,13.89 55.65,14.87 56.33,16.83 56.89,18.83 57.29,20.87 57.67,22.91 57.92,24.98 57.91,27.06 57.9,29.13 57.7,31.23 56.96,33.18 L 56.91,33.16 C 57.23,32.18 57.37,31.15 57.45,30.14 57.54,29.12 57.56,28.09 57.52,27.07 57.44,25.02 57.17,22.98 56.74,20.98 56.32,18.97 55.77,17 55.12,15.05 54.8,14.08 54.45,13.11 54.08,12.15 53.71,11.2 53.33,10.24 52.87,9.34 51.95,7.52 50.76,5.83 49.28,4.43 47.8,3.03 46.04,1.94 44.12,1.24 42.21,0.53 40.16,0.2 38.12,0.17 36.08,0.14 34.01,0.38 32.04,0.94 L 32.02,0.88 Z M 32.02,0.88" />
            <path id="sue05Canvas-bezier3" stroke="none" fill="rgb(51, 91, 113)" d="M 58.53,21.66 C 59.52,23.69 60.15,25.87 60.63,28.06 61.1,30.26 61.38,32.51 61.5,34.75 61.61,37 61.56,39.26 61.37,41.51 61.27,42.63 61.14,43.75 60.98,44.86 60.81,45.98 60.64,47.08 60.5,48.19 60.23,50.42 60.05,52.65 59.96,54.89 59.84,57.12 59.81,59.36 59.86,61.6 59.88,63.84 60,66.08 60.2,68.31 60.29,69.43 60.42,70.54 60.58,71.65 60.66,72.2 60.76,72.75 60.87,73.3 60.93,73.57 61,73.84 61.07,74.11 61.16,74.37 61.23,74.66 61.42,74.84 L 61.39,74.89 C 61.16,74.69 61.08,74.4 60.97,74.14 60.88,73.88 60.8,73.61 60.72,73.34 60.57,72.79 60.45,72.24 60.33,71.69 60.12,70.58 59.95,69.47 59.81,68.35 59.53,66.12 59.38,63.87 59.3,61.62 59.25,59.36 59.29,57.11 59.4,54.86 59.54,52.61 59.75,50.37 60.06,48.14 60.21,47.02 60.39,45.91 60.58,44.8 60.76,43.7 60.9,42.59 61.01,41.47 61.23,39.25 61.3,37 61.22,34.77 61.14,32.53 60.9,30.3 60.46,28.1 60.02,25.9 59.43,23.72 58.49,21.69 L 58.53,21.66 Z M 58.53,21.66" />
            <path id="sue05Canvas-bezier4" stroke="none" fill="rgb(51, 91, 113)" d="M 61.89,49.01 C 62.63,53 63.51,56.96 64.58,60.86 65.11,62.82 65.7,64.75 66.41,66.64 66.77,67.59 67.15,68.52 67.6,69.42 67.83,69.86 68.07,70.3 68.34,70.72 68.6,71.12 68.93,71.54 69.18,72 70.19,73.81 70.74,75.81 71.2,77.79 71.64,79.78 71.93,81.8 72.12,83.83 72.29,85.86 72.4,87.89 72.38,89.93 72.36,90.95 72.32,91.96 72.24,92.98 72.19,93.49 72.13,93.99 72.05,94.5 71.96,95 71.86,95.5 71.66,95.98 L 71.61,95.95 C 71.92,95 71.94,93.97 71.98,92.96 72.02,91.96 72.02,90.94 71.98,89.93 71.92,87.91 71.79,85.89 71.56,83.89 71.35,81.88 71.06,79.88 70.66,77.91 70.24,75.95 69.72,73.97 68.79,72.22 68.56,71.78 68.26,71.4 67.98,70.95 67.7,70.51 67.46,70.06 67.24,69.6 66.79,68.68 66.41,67.73 66.07,66.77 65.38,64.86 64.82,62.9 64.31,60.94 63.3,57 62.5,53.02 61.84,49.02 L 61.89,49.01 Z M 61.89,49.01" />
            <path id="sue05Canvas-bezier5" stroke="none" fill="rgb(51, 91, 113)" d="M 28.63,1.89 C 27.76,2.86 26.96,3.9 26.2,4.96 25.44,6.03 24.73,7.12 24.1,8.26 23.47,9.4 22.95,10.6 22.48,11.79 21.99,12.99 21.64,14.24 21.44,15.54 L 21.38,15.53 C 21.26,14.2 21.54,12.87 21.95,11.6 22.37,10.33 23.02,9.16 23.71,8.04 25.1,5.78 26.75,3.71 28.59,1.85 L 28.63,1.89 Z M 28.63,1.89" />
            <path id="sue05Canvas-bezier6" stroke="none" fill="rgb(51, 91, 113)" d="M 26.69,13.43 C 26.41,13.43 26.15,13.61 25.92,13.76 25.68,13.92 25.46,14.11 25.25,14.31 24.83,14.7 24.44,15.14 24.09,15.6 23.39,16.51 22.8,17.52 22.41,18.59 22.03,19.67 21.88,20.81 21.99,21.91 22.08,23.03 22.52,24.09 23.16,25.08 L 23.11,25.11 C 22.23,24.33 21.61,23.2 21.43,21.98 21.24,20.76 21.54,19.53 22,18.43 22.46,17.32 23.11,16.32 23.88,15.42 24.26,14.98 24.68,14.56 25.14,14.18 25.36,14 25.6,13.82 25.85,13.67 26.11,13.53 26.38,13.35 26.69,13.38 L 26.69,13.43 Z M 26.69,13.43" />
            <path id="sue05Canvas-bezier7" stroke="none" fill="rgb(51, 91, 113)" d="M 35.28,44.93 C 35.83,45.08 36.4,45.14 36.96,45.14 37.53,45.14 38.09,45.07 38.62,44.92 39.15,44.77 39.64,44.51 40.13,44.27 40.62,44.03 41.1,43.74 41.61,43.45 L 41.65,43.49 C 41.35,44.01 40.91,44.43 40.4,44.76 39.9,45.1 39.3,45.25 38.72,45.36 37.54,45.57 36.33,45.43 35.26,44.98 L 35.28,44.93 Z M 35.28,44.93" />
            <path id="sue05Canvas-bezier8" stroke="none" fill="rgb(51, 91, 113)" d="M 39.91,33.4 C 40.61,33.5 41.28,33.78 41.88,34.15 42.47,34.53 43.02,35 43.47,35.55 43.89,36.1 44.49,36.46 45.05,36.87 45.33,37.08 45.62,37.28 45.89,37.51 46.14,37.74 46.47,38.03 46.44,38.42 L 46.41,38.42 C 46.4,38.24 46.29,38.1 46.17,37.99 46.05,37.87 45.91,37.76 45.77,37.67 45.49,37.47 45.19,37.29 44.9,37.1 44.31,36.72 43.71,36.29 43.3,35.69 42.88,35.14 42.37,34.66 41.8,34.27 41.23,33.88 40.59,33.56 39.91,33.43 L 39.91,33.4 Z M 39.91,33.4" />
            <path id="sue05Canvas-bezier9" stroke="none" fill="rgb(51, 91, 113)" d="M 31.49,36.69 C 31.32,37.4 30.91,38.03 30.56,38.65 30.4,38.96 30.27,39.28 30.22,39.6 30.15,39.92 30.25,40.25 30.4,40.59 L 30.38,40.6 C 30.1,40.37 29.91,39.98 29.94,39.57 29.96,39.17 30.18,38.83 30.37,38.53 30.77,37.92 31.21,37.36 31.46,36.68 L 31.49,36.69 Z M 31.49,36.69" />
            <path id="sue05Canvas-bezier10" stroke="none" fill="rgb(51, 91, 113)" d="M 26.69,25.53 C 28.05,25.51 29.42,25.59 30.77,25.85 31.44,25.99 32.11,26.17 32.72,26.52 33.02,26.7 33.31,26.93 33.49,27.25 33.68,27.57 33.7,27.94 33.74,28.28 33.84,29.67 33.7,31.03 33.6,32.4 33.53,33.08 33.46,33.76 33.41,34.44 33.38,34.78 33.36,35.12 33.37,35.46 33.38,35.79 33.35,36.16 33.56,36.43 L 33.54,36.45 C 33.29,36.18 33.29,35.8 33.24,35.46 33.21,35.12 33.21,34.77 33.22,34.43 33.23,33.74 33.28,33.06 33.32,32.38 33.37,31.69 33.43,31.01 33.47,30.33 33.51,29.65 33.55,28.97 33.51,28.3 33.48,27.96 33.47,27.62 33.32,27.35 33.16,27.07 32.91,26.85 32.62,26.68 32.05,26.33 31.4,26.14 30.74,25.98 29.41,25.69 28.05,25.58 26.69,25.55 L 26.69,25.53 26.69,25.53 Z M 26.69,25.53" />
            <path id="sue05Canvas-bezier11" stroke="none" fill="rgb(51, 91, 113)" d="M 40.41,35.16 C 40.01,35.55 39.52,35.81 39.05,36.09 38.57,36.37 38.09,36.63 37.68,36.98 37.47,37.15 37.36,37.37 37.15,37.6 36.94,37.82 36.67,37.97 36.39,38.05 35.81,38.19 35.22,38.1 34.72,37.84 L 34.73,37.81 C 35.27,37.92 35.82,37.95 36.31,37.78 36.55,37.7 36.77,37.57 36.95,37.4 37.13,37.24 37.3,36.97 37.54,36.81 37.99,36.46 38.49,36.22 38.98,35.97 39.47,35.72 39.97,35.49 40.39,35.14 L 40.41,35.16 Z M 40.41,35.16" />
            <path id="sue05Canvas-bezier12" stroke="none" fill="rgb(51, 91, 113)" d="M 37.93,25.53 C 38.86,24.82 39.86,24.21 40.93,23.73 41.46,23.48 42.01,23.26 42.59,23.15 43.17,23.04 43.78,23 44.35,23.15 L 44.35,23.18 C 43.77,23.19 43.2,23.27 42.65,23.42 42.1,23.56 41.55,23.72 41.01,23.93 39.94,24.36 38.92,24.92 37.94,25.55 L 37.93,25.53 Z M 37.93,25.53" />
            <path id="sue05Canvas-bezier13" stroke="none" fill="rgb(51, 91, 113)" d="M 29.39,11.7 C 30.66,10.95 32.15,10.59 33.62,10.6 35.1,10.61 36.57,11.04 37.86,11.77 39.15,12.5 40.27,13.5 41.24,14.62 42.22,15.73 43.05,16.97 43.78,18.25 45.24,20.85 45.95,23.78 46.46,26.68 46.96,29.6 47.2,32.55 47.31,35.5 47.43,38.45 47.41,41.41 47.3,44.36 47.17,47.31 46.95,50.25 46.64,53.19 46.31,56.12 45.91,59.05 45.38,61.95 44.82,64.84 44.24,67.76 43.19,70.52 L 43.14,70.5 C 43.62,69.11 43.93,67.67 44.22,66.23 44.52,64.79 44.77,63.34 44.99,61.88 45.44,58.98 45.81,56.06 46.09,53.13 46.39,50.2 46.61,47.27 46.74,44.33 46.89,41.4 46.94,38.45 46.87,35.52 46.78,32.58 46.57,29.64 46.11,26.74 45.63,23.86 44.94,20.95 43.54,18.39 42.12,15.85 40.31,13.41 37.77,11.92 36.52,11.19 35.08,10.75 33.62,10.72 32.17,10.69 30.69,11.03 29.42,11.75 L 29.39,11.7 Z M 29.39,11.7" />
            <path id="sue05Canvas-bezier14" stroke="none" fill="rgb(51, 91, 113)" d="M 52.02,42.99 C 52.55,43.99 52.71,45.13 52.87,46.23 53.02,47.34 53.09,48.46 53.14,49.58 53.24,51.82 53.22,54.06 53.15,56.3 52.99,60.77 52.63,65.24 52.06,69.69 51.77,71.91 51.45,74.13 50.9,76.32 50.77,76.87 50.53,77.43 50.41,77.92 50.29,78.44 50.24,78.98 50.22,79.52 50.21,80.61 50.36,81.71 50.6,82.78 51.05,84.95 51.83,87.04 52.76,89.06 53.22,90.07 53.74,91.05 54.33,91.99 54.62,92.47 54.93,92.93 55.28,93.36 55.45,93.57 55.64,93.78 55.84,93.97 56.04,94.14 56.27,94.33 56.54,94.35 L 56.54,94.41 C 56.24,94.4 55.99,94.22 55.77,94.05 55.55,93.87 55.35,93.67 55.16,93.46 54.78,93.05 54.44,92.59 54.12,92.14 53.48,91.21 52.92,90.23 52.41,89.23 51.39,87.23 50.57,85.11 50.05,82.91 49.81,81.8 49.65,80.66 49.67,79.51 49.68,78.94 49.73,78.36 49.87,77.79 50.02,77.19 50.23,76.72 50.36,76.18 50.94,74.05 51.29,71.83 51.62,69.63 52.24,65.21 52.65,60.75 52.87,56.29 52.98,54.05 53.03,51.82 52.97,49.59 52.94,48.47 52.88,47.35 52.76,46.24 52.62,45.14 52.47,44.01 51.97,43.01 L 52.02,42.99 Z M 52.02,42.99" />
            <path id="sue05Canvas-bezier15" stroke="none" fill="rgb(51, 91, 113)" d="M 21.44,26.73 C 21.51,29.82 21.71,32.91 21.99,35.99 22.26,39.07 22.63,42.15 23.17,45.19 23.74,48.22 24.45,51.24 25.62,54.06 25.91,54.76 26.24,55.45 26.65,56.09 27.07,56.71 27.51,57.4 27.83,58.1 28.51,59.52 28.96,61.02 29.31,62.53 L 29.26,62.54 C 28.77,61.07 28.21,59.63 27.49,58.28 27.3,57.95 27.11,57.62 26.9,57.3 26.7,56.98 26.47,56.68 26.24,56.35 25.8,55.7 25.43,55 25.1,54.28 23.84,51.4 23.24,48.32 22.73,45.26 22.24,42.19 21.93,39.11 21.71,36.01 21.5,32.92 21.38,29.82 21.38,26.73 L 21.44,26.73 21.44,26.73 Z M 21.44,26.73" />
            <path id="sue05Canvas-bezier16" stroke="none" fill="rgb(51, 91, 113)" d="M 34.75,51.6 C 36.37,53.38 37.81,55.34 39.01,57.44 39.62,58.49 40.19,59.58 40.57,60.74 40.93,61.9 41.2,63.12 41.16,64.34 L 41.1,64.34 C 40.83,63.17 40.49,62.03 40.04,60.93 39.61,59.83 39.16,58.72 38.62,57.66 38.08,56.6 37.47,55.56 36.81,54.56 36.16,53.56 35.46,52.57 34.71,51.64 L 34.75,51.6 Z M 34.75,51.6" />
            <path id="sue05Canvas-bezier17" stroke="none" fill="rgb(51, 91, 113)" d="M 26.15,29.18 C 26.57,28.72 27.09,28.33 27.66,28.05 27.95,27.91 28.25,27.74 28.58,27.73 28.91,27.7 29.25,27.75 29.55,27.91 L 29.55,27.97 C 29.23,28.11 28.96,28.19 28.68,28.28 28.41,28.37 28.11,28.38 27.83,28.47 27.26,28.64 26.7,28.89 26.19,29.23 L 26.15,29.18 Z M 26.15,29.18" />
            <path id="sue05Canvas-bezier18" stroke="none" fill="rgb(51, 91, 113)" d="M 26.01,28.72 C 26.83,27.84 28.06,27.35 29.28,27.42 29.88,27.45 30.51,27.58 31.05,27.89 31.58,28.2 32.05,28.64 32.3,29.2 L 32.27,29.21 C 31.9,28.75 31.43,28.39 30.91,28.14 30.4,27.88 29.85,27.71 29.26,27.65 28.11,27.53 26.9,27.93 26.03,28.74 L 26.01,28.72 Z M 26.01,28.72" />
            <path id="sue05Canvas-bezier19" stroke="none" fill="rgb(51, 91, 113)" d="M 26.47,29.41 C 27.39,29.57 28.32,29.66 29.25,29.68 29.71,29.69 30.17,29.66 30.63,29.66 31.1,29.66 31.56,29.64 32.03,29.64 L 32.03,29.66 C 31.59,29.82 31.12,29.89 30.65,29.94 30.17,29.98 29.7,29.95 29.23,29.91 28.3,29.83 27.37,29.68 26.46,29.44 L 26.47,29.41 Z M 26.47,29.41" />
            <path id="sue05Canvas-bezier20" stroke="none" fill="rgb(51, 91, 113)" d="M 39.53,26.57 C 40.25,25.87 41.23,25.45 42.22,25.29 42.72,25.21 43.24,25.18 43.74,25.25 44.24,25.33 44.74,25.45 45.19,25.67 L 45.18,25.7 C 44.69,25.64 44.2,25.55 43.71,25.53 43.23,25.49 42.74,25.47 42.25,25.51 41.77,25.57 41.29,25.68 40.83,25.86 40.37,26.03 39.93,26.27 39.55,26.59 L 39.53,26.57 Z M 39.53,26.57" />
            <path id="sue05Canvas-bezier21" stroke="none" fill="rgb(51, 91, 113)" d="M 39.53,27.74 C 39.96,26.85 40.76,26.13 41.73,25.82 42.21,25.67 42.72,25.6 43.23,25.66 43.73,25.72 44.21,25.86 44.65,26.1 L 44.64,26.12 C 44.16,26.04 43.68,25.95 43.2,25.94 42.73,25.92 42.25,25.92 41.79,26.04 40.87,26.28 40.05,26.91 39.55,27.75 L 39.53,27.74 Z M 39.53,27.74" />
            <path id="sue05Canvas-bezier22" stroke="none" fill="rgb(51, 91, 113)" d="M 40.13,27.73 C 40.94,27.78 41.75,27.77 42.53,27.64 42.92,27.58 43.3,27.46 43.66,27.34 44.02,27.21 44.36,27.02 44.63,26.72 L 44.66,26.73 C 44.52,27.14 44.14,27.42 43.77,27.6 43.38,27.77 42.96,27.83 42.56,27.87 41.74,27.94 40.93,27.89 40.13,27.76 L 40.13,27.73 Z M 40.13,27.73" />
            <path id="sue05Canvas-bezier23" stroke="none" fill="rgb(51, 91, 113)" d="M 31.07,28.73 C 31.07,29.31 30.6,29.89 29.96,29.9 29.35,29.93 28.76,29.38 28.77,28.73 28.76,28.42 28.88,28.1 29.1,27.86 29.32,27.63 29.65,27.49 29.97,27.5 30.29,27.5 30.6,27.67 30.79,27.91 30.99,28.14 31.08,28.45 31.07,28.73 Z M 31.04,28.73 C 31.04,28.45 30.89,28.18 30.69,28.01 30.47,27.84 30.22,27.77 29.97,27.78 29.47,27.79 29,28.21 28.99,28.73 28.96,29.26 29.42,29.76 29.97,29.76 30.23,29.77 30.51,29.67 30.72,29.49 30.93,29.3 31.05,29.02 31.04,28.73 Z M 31.04,28.73" />
            <path id="sue05Canvas-bezier24" stroke="none" fill="rgb(51, 91, 113)" d="M 43.45,26.58 C 43.45,27.13 43,27.69 42.39,27.7 41.8,27.73 41.23,27.2 41.23,26.58 41.22,26.28 41.34,25.96 41.55,25.74 41.76,25.51 42.08,25.38 42.39,25.39 42.7,25.39 43,25.55 43.18,25.78 43.37,26.01 43.46,26.3 43.45,26.58 Z M 43.42,26.58 C 43.42,26.3 43.28,26.05 43.08,25.89 42.87,25.73 42.63,25.66 42.39,25.67 41.91,25.67 41.46,26.07 41.45,26.58 41.43,27.08 41.86,27.56 42.39,27.56 42.64,27.57 42.91,27.48 43.11,27.3 43.31,27.12 43.43,26.85 43.42,26.58 Z M 43.42,26.58" />
            <path id="sue05Canvas-bezier25" stroke="none" fill="rgb(51, 91, 113)" d="M 63.76,77.92 C 65.43,80.32 66.87,82.88 68.08,85.55 69.25,88.22 70.22,91.04 70.37,94.01 70.4,94.74 70.37,95.48 70.27,96.22 70.15,96.95 69.99,97.66 69.83,98.38 69.52,99.81 69.16,101.23 68.81,102.65 L 66.62,111.14 C 65.91,113.97 65.21,116.81 64.63,119.67 64.35,121.09 64.08,122.53 63.95,123.96 63.9,124.67 63.86,125.41 64.02,126.05 64.21,126.77 64.35,127.49 64.49,128.21 65.5,133.98 66.29,139.78 66.96,145.59 L 66.91,145.59 C 65.92,139.83 65.05,134.05 63.94,128.32 63.8,127.6 63.66,126.89 63.48,126.19 63.29,125.41 63.35,124.66 63.4,123.92 63.53,122.44 63.8,120.99 64.09,119.56 64.7,116.69 65.44,113.85 66.19,111.03 L 68.46,102.56 C 68.82,101.14 69.19,99.73 69.52,98.31 69.68,97.6 69.85,96.88 69.97,96.17 70.08,95.46 70.12,94.74 70.09,94.02 69.98,91.11 69.06,88.29 67.92,85.62 66.76,82.94 65.35,80.37 63.72,77.95 L 63.76,77.92 Z M 63.76,77.92" />
            <path id="sue05Canvas-bezier26" stroke="none" fill="rgb(51, 91, 113)" d="M 65.81,145.62 C 64.8,145.4 63.78,145.26 62.76,145.17 61.74,145.07 60.72,145.03 59.7,145.07 58.69,145.11 57.68,145.26 56.7,145.44 55.71,145.62 54.74,145.9 53.79,146.31 L 53.76,146.26 C 54.56,145.58 55.56,145.15 56.58,144.89 57.6,144.63 58.66,144.6 59.7,144.62 61.78,144.65 63.84,144.99 65.82,145.56 L 65.81,145.62 Z M 65.81,145.62" />
            <path id="sue05Canvas-bezier27" stroke="none" fill="rgb(51, 91, 113)" d="M 22.99,54.36 C 19.55,55.54 16.19,56.98 13.01,58.75 11.43,59.63 9.89,60.61 8.48,61.74 7.08,62.87 5.76,64.16 4.9,65.73 4.08,67.32 3.62,69.09 3.29,70.87 2.97,72.65 2.77,74.46 2.65,76.27 2.51,78.09 2.47,79.91 2.44,81.74 L 2.41,84.48 2.38,85.85 C 2.36,86.31 2.37,86.77 2.26,87.22 L 2.2,87.21 C 2.28,86.77 2.24,86.3 2.23,85.85 L 2.16,84.48 2.05,81.74 C 1.99,79.91 2.01,78.07 2.09,76.24 2.19,74.41 2.38,72.57 2.75,70.76 3.12,68.96 3.62,67.16 4.51,65.51 5.44,63.87 6.81,62.58 8.25,61.45 9.7,60.32 11.27,59.37 12.88,58.5 16.11,56.79 19.51,55.41 22.98,54.3 L 22.99,54.36 Z M 22.99,54.36" />
            <path id="sue05Canvas-bezier28" stroke="none" fill="rgb(51, 91, 113)" d="M 5.54,85.25 C 4.47,87.09 3.39,88.92 2.27,90.74 L 1.83,91.41 C 1.7,91.63 1.49,91.87 1.43,92.06 1.26,92.48 1.54,92.96 1.75,93.44 1.98,93.92 2.19,94.44 2.31,94.98 2.44,95.52 2.44,96.08 2.51,96.59 2.78,98.68 3.19,100.8 3.29,102.94 3.33,104.02 3.35,105.1 3.23,106.17 3.1,107.24 2.88,108.35 2.26,109.24 L 2.21,109.21 C 2.45,108.73 2.6,108.23 2.68,107.71 2.78,107.19 2.82,106.67 2.84,106.14 2.88,105.09 2.83,104.03 2.73,102.98 2.56,100.87 2.28,98.77 2.06,96.63 2.01,96.09 2.02,95.57 1.91,95.07 1.81,94.56 1.64,94.07 1.42,93.59 1.32,93.35 1.2,93.1 1.12,92.83 1.03,92.56 1,92.23 1.13,91.94 1.26,91.63 1.44,91.47 1.58,91.24 L 2.03,90.58 C 3.21,88.82 4.36,87.02 5.5,85.22 L 5.54,85.25 Z M 5.54,85.25" />
            <path id="sue05Canvas-bezier29" stroke="none" fill="rgb(51, 91, 113)" d="M 6.57,106.26 C 6.45,106.28 6.35,106.43 6.25,106.54 6.15,106.66 6.06,106.78 5.97,106.91 5.8,107.16 5.63,107.42 5.47,107.68 5.14,108.2 4.84,108.73 4.55,109.27 3.96,110.35 3.41,111.46 2.95,112.59 2.73,113.16 2.53,113.74 2.41,114.31 2.34,114.6 2.3,114.89 2.31,115.15 2.31,115.28 2.34,115.39 2.37,115.47 2.39,115.51 2.52,115.62 2.64,115.74 3.07,116.21 3.47,116.72 3.74,117.32 3.86,117.62 3.96,117.94 3.94,118.29 3.92,118.64 3.69,118.97 3.38,119.07 L 3.35,119.02 C 3.61,118.84 3.72,118.57 3.68,118.29 3.66,118.01 3.53,117.74 3.39,117.49 3.09,116.99 2.69,116.54 2.25,116.14 2.15,116.04 2.02,115.98 1.88,115.75 1.77,115.55 1.74,115.36 1.73,115.18 1.72,114.82 1.79,114.49 1.87,114.18 2.04,113.56 2.28,112.98 2.54,112.41 3.06,111.28 3.66,110.19 4.3,109.13 4.63,108.61 4.97,108.09 5.33,107.58 5.51,107.33 5.69,107.08 5.88,106.84 5.98,106.72 6.08,106.6 6.19,106.48 6.3,106.38 6.38,106.24 6.57,106.2 L 6.57,106.26 Z M 6.57,106.26" />
            <path id="sue05Canvas-bezier30" stroke="none" fill="rgb(51, 91, 113)" d="M 5.49,126.09 C 4.93,124.44 4.8,122.64 5.08,120.9 5.37,119.17 6.13,117.51 7.21,116.12 8.25,114.7 9.53,113.45 10.97,112.45 11.69,111.96 12.42,111.49 13.13,111.02 13.82,110.53 14.55,110.03 14.87,109.21 L 14.92,109.23 C 14.84,109.67 14.6,110.07 14.32,110.41 14.03,110.75 13.7,111.05 13.37,111.33 12.69,111.89 11.97,112.37 11.3,112.91 9.94,113.94 8.63,115.05 7.56,116.39 6.47,117.71 5.69,119.27 5.36,120.96 5.01,122.63 5.06,124.41 5.55,126.07 L 5.49,126.09 Z M 5.49,126.09" />
            <path id="sue05Canvas-bezier31" stroke="none" fill="rgb(51, 91, 113)" d="M 15.76,116.56 C 15.98,115.08 16.17,113.58 16.32,112.09 16.46,110.6 16.61,109.09 16.52,107.62 16.5,107.44 16.48,107.26 16.44,107.09 16.41,106.9 16.36,106.81 16.28,106.57 16.17,106.12 16.26,105.69 16.37,105.31 16.63,104.54 17.07,103.89 17.56,103.29 18.07,102.71 18.63,102.17 19.26,101.74 19.89,101.33 20.62,100.9 21.41,100.99 L 21.41,101.04 C 21.04,101.07 20.7,101.22 20.39,101.41 20.07,101.59 19.78,101.81 19.5,102.05 18.94,102.53 18.43,103.06 18,103.65 17.55,104.22 17.15,104.84 16.9,105.49 16.78,105.81 16.7,106.16 16.77,106.45 16.8,106.56 16.89,106.82 16.91,107.01 16.94,107.21 16.95,107.4 16.96,107.6 17,109.14 16.79,110.63 16.59,112.12 16.37,113.61 16.11,115.1 15.81,116.57 L 15.76,116.56 Z M 15.76,116.56" />
            <path id="sue05Canvas-bezier32" stroke="none" fill="rgb(51, 91, 113)" d="M 21.44,102.4 C 21.76,104.45 22.17,106.49 22.68,108.49 22.94,109.5 23.23,110.49 23.57,111.46 23.92,112.43 24.31,113.39 24.86,114.24 25.13,114.65 25.46,115.04 25.85,115.26 26.23,115.48 26.72,115.47 27.12,115.29 27.53,115.12 27.88,114.78 28.17,114.4 28.47,114.01 28.71,113.57 28.92,113.11 29.35,112.2 29.64,111.21 29.89,110.21 30.02,109.71 30.12,109.21 30.2,108.7 30.29,108.19 30.37,107.68 30.36,107.16 L 30.42,107.15 C 30.57,108.2 30.43,109.25 30.27,110.29 30.1,111.33 29.83,112.35 29.43,113.34 29.21,113.83 28.96,114.31 28.63,114.75 28.3,115.18 27.88,115.59 27.32,115.81 26.78,116.02 26.11,116.02 25.6,115.7 25.1,115.38 24.77,114.93 24.48,114.48 23.92,113.56 23.55,112.58 23.22,111.58 22.9,110.59 22.64,109.58 22.41,108.56 21.96,106.53 21.63,104.47 21.38,102.41 L 21.44,102.4 Z M 21.44,102.4" />
            <path id="sue05Canvas-bezier33" stroke="none" fill="rgb(51, 91, 113)" d="M 52.26,145.62 C 50.63,145.38 49,145.17 47.36,145.02 46.53,144.94 45.71,144.88 44.89,144.84 44.47,144.83 44.06,144.82 43.65,144.83 43.25,144.85 42.82,144.87 42.5,145 L 42.6,144.87 C 42.38,146.25 42.14,147.63 41.86,149.01 L 41.64,148.73 C 43.34,148.75 45.04,148.77 46.74,148.83 47.59,148.87 48.44,148.91 49.29,148.99 49.72,149.02 50.14,149.07 50.57,149.11 51,149.18 51.4,149.2 51.88,149.36 L 51.6,149.5 C 51.98,148.25 52.2,146.94 52.26,145.62 Z M 52.32,145.59 C 52.39,146.26 52.37,146.93 52.32,147.61 52.26,148.28 52.16,148.95 52.01,149.61 L 51.96,149.82 51.72,149.75 C 51.39,149.66 50.93,149.63 50.52,149.6 50.1,149.57 49.68,149.54 49.26,149.53 L 46.72,149.41 41.63,149.18 41.36,149.17 41.42,148.91 C 41.73,147.55 42,146.18 42.25,144.81 L 42.27,144.71 42.36,144.68 C 42.81,144.52 43.22,144.53 43.65,144.51 44.07,144.51 44.48,144.53 44.9,144.55 45.73,144.61 46.56,144.7 47.38,144.8 49.03,145.01 50.67,145.27 52.3,145.56 L 52.32,145.57 52.32,145.59 Z M 52.32,145.59" />
            <path id="sue05Canvas-bezier34" stroke="none" fill="rgb(51, 91, 113)" d="M 40.84,147.9 C 38.56,147.69 36.27,147.49 33.98,147.31 32.84,147.23 31.69,147.18 30.55,147.06 29.41,146.95 28.28,146.81 27.13,146.71 L 27.13,146.65 C 28.28,146.44 29.44,146.47 30.59,146.5 31.74,146.55 32.88,146.72 34.03,146.86 36.31,147.14 38.58,147.47 40.85,147.84 L 40.84,147.9 Z M 40.84,147.9" />
            <path id="sue05Canvas-bezier35" stroke="none" fill="rgb(51, 91, 113)" d="M 39.66,144.7 C 36.96,143.98 34.23,143.33 31.5,142.75 L 29.45,142.33 C 28.77,142.18 28.09,142.11 27.4,142.11 26.02,142.1 24.64,142.3 23.28,142.58 20.56,143.15 17.91,144.03 15.33,145.08 14.04,145.61 12.77,146.18 11.52,146.79 10.29,147.41 9.04,148.06 7.95,148.86 L 7.54,149.16 7.54,148.67 C 7.52,147.14 7.97,145.67 8.63,144.35 9.28,143.02 10.13,141.8 11.12,140.72 L 11.17,140.76 C 10.71,141.32 10.31,141.93 9.94,142.56 9.57,143.19 9.22,143.83 8.94,144.49 8.38,145.82 7.99,147.24 8.04,148.65 L 7.63,148.46 C 8.76,147.56 10.01,146.9 11.27,146.27 12.53,145.64 13.82,145.09 15.13,144.59 17.76,143.59 20.44,142.74 23.21,142.21 24.59,141.95 25.99,141.76 27.4,141.79 28.11,141.8 28.83,141.89 29.51,142.06 L 31.55,142.52 C 34.28,143.16 36.98,143.86 39.67,144.64 L 39.66,144.7 Z M 39.66,144.7" />
            <path id="sue05Canvas-bezier36" stroke="none" fill="rgb(51, 91, 113)" d="M 3.39,125.57 C 4,127.42 4.46,129.36 4.43,131.33 4.43,131.83 4.31,132.31 4.42,132.77 4.5,133.24 4.68,133.69 4.89,134.12 5.31,134.98 5.89,135.77 6.55,136.48 7.2,137.18 7.95,137.81 8.78,138.27 9.6,138.73 10.56,139.03 11.45,138.8 11.89,138.7 12.26,138.42 12.64,138.12 13.02,137.83 13.38,137.51 13.74,137.19 14.45,136.53 15.14,135.84 15.8,135.14 18.46,132.3 20.85,129.22 23.11,126.06 25.37,122.9 27.41,119.57 29.12,116.06 L 29.17,116.08 C 27.75,119.74 25.76,123.14 23.57,126.38 21.35,129.61 18.85,132.63 16.13,135.45 15.45,136.15 14.75,136.83 14.01,137.49 13.65,137.81 13.27,138.13 12.88,138.43 12.49,138.73 12.06,139.04 11.54,139.16 10.5,139.4 9.47,139.04 8.62,138.55 7.76,138.05 7,137.4 6.34,136.67 5.68,135.93 5.11,135.12 4.69,134.22 4.48,133.77 4.31,133.3 4.23,132.8 4.19,132.56 4.17,132.3 4.2,132.05 4.23,131.8 4.26,131.57 4.27,131.33 4.33,129.39 3.91,127.45 3.34,125.59 L 3.39,125.57 Z M 3.39,125.57" />
            <path id="sue05Canvas-bezier37" stroke="none" fill="rgb(51, 91, 113)" d="M 66.94,63.28 C 67.93,63.4 68.83,63.92 69.59,64.55 70.36,65.2 70.98,66 71.49,66.85 72.5,68.58 73.09,70.52 73.47,72.47 73.85,74.42 74.06,76.41 74.05,78.4 74.02,80.39 73.89,82.37 73.57,84.32 L 73.51,84.32 C 73.52,82.34 73.57,80.37 73.49,78.41 73.42,76.45 73.34,74.48 73.03,72.55 72.71,70.62 72.19,68.71 71.25,66.99 70.78,66.14 70.2,65.34 69.48,64.68 68.77,64.03 67.9,63.49 66.93,63.34 L 66.94,63.28 Z M 66.94,63.28" />
            <path id="sue05Canvas-bezier38" stroke="none" fill="rgb(51, 91, 113)" d="M 72.21,98.6 C 72.52,101.29 72.75,103.99 72.89,106.7 73.01,109.41 73.07,112.12 72.84,114.84 72.7,116.2 72.56,117.57 71.99,118.89 71.84,119.21 71.65,119.53 71.36,119.81 71.21,119.95 71.08,120.03 70.96,120.14 70.84,120.24 70.72,120.36 70.61,120.47 70.14,120.92 69.74,121.45 69.36,121.99 68.59,123.08 67.97,124.27 67.4,125.49 66.82,126.7 66.31,127.95 65.84,129.22 L 65.79,129.21 C 66.1,127.88 66.53,126.59 67.04,125.33 67.55,124.07 68.15,122.84 68.9,121.68 69.28,121.1 69.7,120.55 70.2,120.05 70.32,119.93 70.45,119.81 70.59,119.7 70.73,119.58 70.88,119.47 70.97,119.39 71.18,119.2 71.35,118.93 71.49,118.65 72.03,117.48 72.23,116.12 72.39,114.8 72.68,112.12 72.68,109.41 72.61,106.71 72.54,104.01 72.39,101.3 72.15,98.61 L 72.21,98.6 Z M 72.21,98.6" />
            <path id="sue05Canvas-bezier39" stroke="none" fill="rgb(51, 91, 113)" d="M 53.78,148.63 C 55.64,148.74 57.49,148.9 59.34,149.12 60.27,149.23 61.2,149.31 62.12,149.54 62.57,149.65 63.03,149.77 63.47,149.93 63.91,150.1 64.37,150.28 64.74,150.58 L 64.71,150.63 C 63.84,150.34 62.92,150.25 62.01,150.09 61.1,149.94 60.19,149.73 59.28,149.56 57.45,149.24 55.61,148.95 53.77,148.69 L 53.78,148.63 Z M 53.78,148.63" />
            <path id="sue05Canvas-bezier40" stroke="none" fill="rgb(51, 91, 113)" d="M 65.84,151.79 C 66.11,153.67 66.37,155.55 66.59,157.44 66.8,159.32 67.01,161.21 67.08,163.12 67.09,163.59 67.1,164.07 67.04,164.55 66.94,165.02 66.99,165.47 67.05,165.94 67.17,166.88 67.4,167.8 67.64,168.71 68.14,170.54 68.74,172.34 69.39,174.12 70.06,175.89 70.78,177.64 71.6,179.34 72.01,180.2 72.46,181.01 72.97,181.83 73.43,182.66 73.85,183.52 74.26,184.37 75.9,187.8 77.4,191.29 78.87,194.79 81.78,201.8 84.5,208.9 86.84,216.13 88.01,219.74 89.05,223.4 89.97,227.09 90.42,228.93 90.84,230.79 91.2,232.66 91.54,234.52 91.82,236.41 91.99,238.3 L 91.93,238.31 C 90.86,230.79 88.67,223.5 86.31,216.3 83.94,209.1 81.32,201.98 78.48,194.95 77.04,191.44 75.57,187.95 73.96,184.52 73.56,183.66 73.15,182.81 72.7,181.98 72.21,181.18 71.75,180.33 71.34,179.47 70.52,177.75 69.81,175.99 69.16,174.2 68.52,172.41 67.93,170.61 67.45,168.77 67.21,167.84 66.99,166.92 66.87,165.97 66.81,165.5 66.78,164.99 66.88,164.53 66.94,164.07 66.94,163.59 66.93,163.12 66.88,161.23 66.68,159.34 66.48,157.45 66.28,155.56 66.04,153.68 65.78,151.8 L 65.84,151.79 Z M 65.84,151.79" />
            <path id="sue05Canvas-bezier41" stroke="none" fill="rgb(51, 91, 113)" d="M 91.99,240.53 C 92.81,242.34 93.37,244.25 93.79,246.19 94.2,248.13 94.43,250.11 94.46,252.11 94.5,254.09 94.39,256.1 93.97,258.06 93.53,260 92.9,261.91 91.99,263.67 L 91.94,263.65 C 92.55,261.77 93.09,259.88 93.42,257.95 93.76,256.02 94,254.07 94.02,252.11 94.04,250.15 93.86,248.18 93.52,246.24 93.17,244.31 92.68,242.38 91.94,240.56 L 91.99,240.53 Z M 91.99,240.53" />
            <path id="sue05Canvas-bezier42" stroke="none" fill="rgb(51, 91, 113)" d="M 91.99,265.51 C 91.97,270.33 91.78,275.15 91.49,279.96 91.19,284.77 90.78,289.57 90.21,294.36 89.65,299.15 88.93,303.92 87.99,308.65 87.04,313.38 85.86,318.07 84.25,322.63 L 84.18,322.84 83.98,322.74 C 82.54,322.04 80.94,321.63 79.37,321.21 77.79,320.81 76.2,320.46 74.6,320.14 71.4,319.51 68.18,318.95 64.95,318.47 L 64.72,318.43 64.72,318.2 C 64.78,313.6 64.83,309 64.81,304.4 64.79,302.1 64.77,299.8 64.71,297.5 64.64,295.21 64.6,292.91 64.31,290.64 64.14,288.29 64.39,285.99 64.65,283.7 64.93,281.41 65.3,279.14 65.73,276.88 66.17,274.61 66.64,272.36 67.24,270.13 67.54,269.02 67.85,267.91 68.22,266.82 68.59,265.73 68.96,264.63 69.57,263.64 L 69.62,263.67 C 69.04,264.66 68.69,265.77 68.35,266.86 68.01,267.96 67.72,269.07 67.45,270.19 66.92,272.42 66.45,274.67 66.05,276.93 65.65,279.2 65.31,281.47 65.05,283.75 64.82,286.03 64.6,288.34 64.79,290.59 65.11,292.87 65.19,295.19 65.27,297.49 65.33,299.79 65.35,302.1 65.36,304.4 65.38,309 65.35,313.6 65.26,318.21 L 65.03,317.94 C 68.27,318.45 71.48,319.03 74.69,319.69 76.29,320.03 77.89,320.38 79.48,320.8 81.06,321.23 82.65,321.65 84.16,322.39 L 83.88,322.5 C 85.51,317.97 86.7,313.3 87.67,308.59 88.64,303.87 89.37,299.11 89.97,294.33 90.56,289.55 91.01,284.75 91.34,279.95 91.66,275.14 91.88,270.33 91.93,265.51 L 91.99,265.51 Z M 91.99,265.51" />
            <path id="sue05Canvas-bezier43" stroke="none" fill="rgb(51, 91, 113)" d="M 70.1,261.79 C 70.75,261.03 71.67,260.52 72.64,260.26 73.62,260 74.66,260 75.65,260.15 76.61,260.28 77.57,260.25 78.5,260.09 78.96,260.01 79.41,259.88 79.85,259.69 80.07,259.6 80.28,259.49 80.48,259.36 80.68,259.23 80.88,259.09 81.02,258.9 L 81.07,258.91 C 80.89,259.42 80.46,259.75 80.03,260.04 79.6,260.32 79.11,260.51 78.61,260.64 77.6,260.89 76.56,260.79 75.58,260.59 74.62,260.39 73.65,260.34 72.7,260.53 71.76,260.71 70.83,261.13 70.14,261.83 L 70.1,261.79 Z M 70.1,261.79" />
            <path id="sue05Canvas-bezier44" stroke="none" fill="rgb(51, 91, 113)" d="M 71.71,256.77 C 72.66,257.03 73.68,257.11 74.61,256.85 75.07,256.72 75.5,256.5 75.83,256.17 76,256.01 76.14,255.83 76.26,255.63 76.4,255.41 76.56,255.19 76.72,255 77.4,254.21 78.22,253.57 79.11,253.1 80.01,252.64 80.96,252.27 81.95,252.08 L 81.97,252.13 C 81.09,252.61 80.22,253.08 79.39,253.59 78.56,254.1 77.72,254.61 77.05,255.3 76.89,255.47 76.74,255.65 76.6,255.85 76.45,256.07 76.27,256.27 76.07,256.44 75.67,256.8 75.18,257.02 74.67,257.12 73.66,257.33 72.63,257.15 71.69,256.82 L 71.71,256.77 Z M 71.71,256.77" />
            <path id="sue05Canvas-bezier45" stroke="none" fill="rgb(51, 91, 113)" d="M 70.09,255.08 C 69.78,252.55 69.33,250.04 68.75,247.57 68.15,245.1 67.44,242.65 66.37,240.35 65.82,239.21 65.19,238.1 64.34,237.19 63.48,236.25 62.65,235.29 61.82,234.32 60.17,232.39 58.55,230.42 56.95,228.44 53.75,224.48 50.64,220.45 47.75,216.25 46.31,214.15 44.93,212 43.69,209.77 43.07,208.66 42.48,207.52 41.98,206.34 41.5,205.16 41.02,203.94 41.02,202.64 L 41.07,202.64 C 41.15,203.91 41.68,205.09 42.21,206.23 42.76,207.38 43.38,208.48 44.03,209.57 45.33,211.75 46.75,213.85 48.21,215.93 49.65,218.02 51.15,220.07 52.66,222.11 54.18,224.15 55.72,226.17 57.29,228.17 58.86,230.16 60.46,232.14 62.09,234.09 62.9,235.06 63.72,236.04 64.57,236.98 65.44,237.94 66.07,239.08 66.6,240.24 67.66,242.58 68.34,245.05 68.9,247.53 69.45,250.02 69.87,252.54 70.15,255.07 L 70.09,255.08 Z M 70.09,255.08" />
            <path id="sue05Canvas-bezier46" stroke="none" fill="rgb(51, 91, 113)" d="M 39.69,182.84 C 38.84,193.11 37.91,203.38 36.88,213.64 L 36.09,221.33 35.18,229.01 C 34.84,231.57 34.49,234.13 34.08,236.67 33.65,239.21 33.23,241.77 32.52,244.25 L 32.47,244.24 C 32.77,242.99 32.96,241.71 33.15,240.44 33.35,239.17 33.53,237.89 33.69,236.61 34.02,234.06 34.34,231.5 34.63,228.94 L 35.54,221.27 36.43,213.59 C 37.57,203.35 38.63,193.09 39.64,182.83 L 39.69,182.84 Z M 39.69,182.84" />
            <path id="sue05Canvas-bezier47" stroke="none" fill="rgb(51, 91, 113)" d="M 32.26,245.26 C 32.24,248.04 32.1,250.82 31.86,253.6 31.75,254.98 31.64,256.37 31.4,257.75 31.14,259.12 30.86,260.49 30.42,261.82 L 30.36,261.8 C 30.49,260.41 30.69,259.04 30.84,257.67 31.01,256.29 31.24,254.93 31.41,253.55 31.59,252.17 31.74,250.79 31.86,249.41 32,248.03 32.12,246.64 32.2,245.26 L 32.26,245.26 Z M 32.26,245.26" />
            <path id="sue05Canvas-bezier48" stroke="none" fill="rgb(51, 91, 113)" d="M 29.89,263.79 C 29.78,268.35 29.84,272.93 30.24,277.47 30.46,279.74 30.73,282.02 31.39,284.19 31.74,285.29 31.93,286.42 32.11,287.55 32.28,288.68 32.42,289.82 32.54,290.96 33.01,295.5 33.26,300.07 33.45,304.63 33.55,306.92 33.62,309.2 33.68,311.48 33.73,313.77 33.79,316.04 33.74,318.35 L 33.74,318.61 33.48,318.52 C 32.8,318.3 32.04,318.3 31.3,318.36 30.55,318.42 29.81,318.55 29.07,318.71 27.6,319.04 26.15,319.49 24.71,319.99 21.85,320.99 19.03,322.17 16.29,323.46 L 16.03,323.58 15.93,323.31 C 14.48,319.07 13.3,314.76 12.25,310.41 11.21,306.07 10.32,301.68 9.67,297.26 9,292.84 8.53,288.39 8.3,283.92 8.06,279.46 8.12,274.98 8.52,270.53 L 8.57,270.53 C 8.29,274.99 8.35,279.45 8.63,283.9 8.91,288.35 9.44,292.78 10.16,297.18 10.89,301.58 11.76,305.95 12.79,310.28 13.84,314.61 15.02,318.92 16.42,323.14 L 16.07,322.99 C 18.85,321.71 21.67,320.55 24.57,319.56 26.02,319.07 27.48,318.62 28.98,318.3 29.73,318.14 30.49,318 31.27,317.95 32.04,317.89 32.84,317.89 33.61,318.15 L 33.35,318.32 C 33.41,316.07 33.35,313.77 33.32,311.49 33.27,309.21 33.21,306.93 33.12,304.65 32.95,300.09 32.72,295.53 32.29,290.98 32.18,289.85 32.05,288.72 31.88,287.59 31.72,286.46 31.53,285.34 31.2,284.25 30.54,282.05 30.28,279.76 30.08,277.49 29.71,272.93 29.69,268.36 29.83,263.79 L 29.89,263.79 Z M 29.89,263.79" />
            <path id="sue05Canvas-bezier49" stroke="none" fill="rgb(51, 91, 113)" d="M 9.57,267.63 C 9.26,267.06 8.98,266.46 8.83,265.8 8.79,265.63 8.77,265.47 8.75,265.29 8.74,265.12 8.76,264.93 8.77,264.79 8.79,264.47 8.8,264.14 8.8,263.82 8.84,262.52 8.84,261.21 8.84,259.91 8.83,258.61 8.86,257.31 8.9,256.01 8.9,254.71 9.01,253.4 8.9,252.11 L 8.95,252.1 C 9.15,252.73 9.2,253.39 9.26,254.04 9.32,254.7 9.36,255.35 9.38,256 9.43,257.31 9.44,258.61 9.39,259.92 9.35,261.22 9.29,262.53 9.22,263.83 9.2,264.16 9.18,264.49 9.15,264.82 9.13,265 9.1,265.13 9.1,265.28 9.1,265.44 9.11,265.59 9.13,265.75 9.2,266.38 9.38,267.01 9.63,267.61 L 9.57,267.63 Z M 9.57,267.63" />
            <path id="sue05Canvas-bezier50" stroke="none" fill="rgb(51, 91, 113)" d="M 7.91,248.46 C 6.74,240.85 5.63,233.24 4.58,225.62 4.05,221.8 3.51,217.99 3.09,214.17 2.9,212.25 2.7,210.34 2.55,208.42 2.41,206.5 2.24,204.57 2.34,202.64 L 2.39,202.65 C 2.4,203.6 2.51,204.56 2.61,205.52 2.71,206.47 2.82,207.42 2.94,208.38 L 3.65,214.1 5.02,225.56 C 5.97,233.19 6.96,240.82 7.96,248.45 L 7.91,248.46 Z M 7.91,248.46" />
            <path id="sue05Canvas-bezier51" stroke="none" fill="rgb(51, 91, 113)" d="M 18.47,324.07 C 19.67,327.76 20.8,331.47 21.83,335.22 22.35,337.09 22.88,338.96 23.27,340.86 23.45,341.82 23.63,342.78 23.76,343.74 23.88,344.71 23.99,345.69 23.9,346.66 L 23.85,346.66 C 23.77,345.7 23.57,344.75 23.37,343.81 23.17,342.87 22.96,341.92 22.72,340.98 L 21.4,335.33 C 20.46,331.57 19.46,327.82 18.42,324.09 L 18.47,324.07 Z M 18.47,324.07" />
            <path id="sue05Canvas-bezier52" stroke="none" fill="rgb(51, 91, 113)" d="M 24.89,349.54 C 24.86,351.51 24.76,353.47 24.55,355.43 24.44,356.42 24.35,357.4 24.11,358.37 23.86,359.33 23.56,360.3 23.01,361.14 L 22.96,361.11 C 23.22,360.16 23.39,359.21 23.56,358.25 23.73,357.29 23.94,356.34 24.1,355.37 24.41,353.44 24.65,351.49 24.83,349.54 L 24.89,349.54 Z M 24.89,349.54" />
            <path id="sue05Canvas-bezier53" stroke="none" fill="rgb(51, 91, 113)" d="M 32.59,320.51 C 32.96,324.53 33.28,328.55 33.54,332.58 33.68,334.59 33.83,336.61 33.86,338.63 33.86,340.65 33.9,342.68 33.6,344.69 L 33.54,344.68 C 33.52,342.67 33.4,340.66 33.3,338.64 33.2,336.63 33.17,334.62 33.09,332.6 32.93,328.57 32.74,324.55 32.53,320.52 L 32.59,320.51 Z M 32.59,320.51" />
            <path id="sue05Canvas-bezier54" stroke="none" fill="rgb(51, 91, 113)" d="M 35.25,344.67 C 35.83,345.41 36.23,346.33 36.32,347.31 36.36,347.8 36.37,348.33 36.16,348.8 35.97,349.26 35.66,349.68 35.24,349.95 L 35.2,349.92 C 35.37,349.46 35.53,349.04 35.63,348.62 35.73,348.2 35.86,347.78 35.87,347.33 35.89,346.89 35.82,346.43 35.7,345.99 35.59,345.55 35.43,345.11 35.2,344.7 L 35.25,344.67 Z M 35.25,344.67" />
            <path id="sue05Canvas-bezier55" stroke="none" fill="rgb(51, 91, 113)" d="M 35.25,352.31 C 35.09,354.84 34.83,357.37 34.44,359.88 34.23,361.13 33.99,362.38 33.68,363.61 33.36,364.84 32.99,366.08 32.38,367.23 32.07,367.8 31.7,368.37 31.09,368.76 30.94,368.85 30.77,368.93 30.59,368.98 30.4,369.02 30.26,369.03 30.1,369.06 L 29.17,369.22 C 27.93,369.42 26.66,369.64 25.35,369.55 24.7,369.5 24.02,369.36 23.43,369.01 22.83,368.67 22.38,368.07 22.2,367.42 21.85,366.11 22.12,364.81 22.47,363.6 L 22.52,363.61 C 22.42,364.23 22.34,364.86 22.33,365.48 22.31,366.11 22.37,366.73 22.57,367.3 22.78,367.85 23.15,368.33 23.66,368.59 24.17,368.87 24.78,368.97 25.38,368.99 26.6,369.05 27.84,368.84 29.08,368.67 L 30.03,368.54 C 30.37,368.5 30.6,368.48 30.84,368.33 31.32,368.05 31.69,367.54 31.99,367.01 32.59,365.94 32.99,364.73 33.33,363.52 33.66,362.31 33.93,361.07 34.16,359.83 34.63,357.34 34.96,354.83 35.19,352.31 L 35.25,352.31 Z M 35.25,352.31" />
            <path id="sue05Canvas-bezier56" stroke="none" fill="rgb(51, 91, 113)" d="M 20.45,366.19 C 19.97,368.02 19.68,369.91 19.63,371.8 19.61,372.74 19.66,373.69 19.83,374.61 19.97,375.54 20.81,376.14 21.66,376.44 22.53,376.76 23.47,376.88 24.4,376.92 25.33,376.95 26.27,376.88 27.19,376.73 28.11,376.58 29.02,376.35 29.89,376.02 30.76,375.68 31.6,375.25 32.26,374.63 32.59,374.32 32.83,373.97 33.01,373.54 33.2,373.13 33.36,372.68 33.51,372.24 33.79,371.35 34.02,370.43 34.23,369.51 34.65,367.67 35.01,365.81 35.39,363.94 35.59,363.01 35.79,362.08 36.05,361.15 36.12,360.92 36.19,360.69 36.28,360.46 36.33,360.34 36.38,360.22 36.45,360.1 36.49,360.04 36.53,359.98 36.6,359.91 36.7,359.83 36.73,359.82 36.73,359.81 36.84,359.7 36.94,359.48 37.01,359.27 37.09,359.06 37.15,358.84 37.2,358.61 37.41,357.7 37.52,356.76 37.58,355.82 37.62,355.34 37.64,354.87 37.64,354.4 37.63,353.94 37.65,353.43 37.47,353.02 L 37.52,352.99 C 37.65,353.2 37.68,353.45 37.72,353.68 37.76,353.92 37.78,354.16 37.8,354.39 37.83,354.87 37.84,355.35 37.84,355.83 37.82,356.78 37.75,357.74 37.58,358.69 37.54,358.93 37.49,359.17 37.41,359.4 37.33,359.64 37.26,359.88 37.05,360.12 36.98,360.2 36.89,360.24 36.9,360.24 36.89,360.25 36.86,360.29 36.84,360.33 36.79,360.42 36.75,360.52 36.71,360.62 36.64,360.83 36.57,361.06 36.51,361.28 36.28,362.19 36.11,363.12 35.94,364.05 35.58,365.91 35.23,367.79 34.77,369.64 34.54,370.57 34.29,371.49 33.98,372.4 33.82,372.85 33.65,373.3 33.44,373.75 33.25,374.19 32.93,374.63 32.56,374.96 31.83,375.63 30.94,376.06 30.04,376.4 29.13,376.73 28.19,376.95 27.25,377.09 26.3,377.23 25.34,377.28 24.38,377.24 23.43,377.19 22.47,377.06 21.56,376.7 21.11,376.53 20.67,376.29 20.31,375.95 19.95,375.62 19.68,375.14 19.61,374.65 19.45,373.7 19.42,372.74 19.46,371.79 19.55,369.88 19.89,368 20.4,366.17 L 20.45,366.19 Z M 20.45,366.19" />
            <path id="sue05Canvas-bezier57" stroke="none" fill="rgb(51, 91, 113)" d="M 65.94,320.52 C 65.84,324.03 65.58,327.54 65.09,331.03 64.84,332.77 64.57,334.52 64.07,336.23 63.81,337.07 63.53,337.92 63.16,338.72 62.78,339.53 62.34,340.32 61.69,340.94 L 61.65,340.9 C 62.16,340.19 62.5,339.39 62.8,338.58 63.09,337.76 63.33,336.92 63.53,336.08 63.95,334.39 64.34,332.68 64.64,330.96 64.94,329.24 65.18,327.5 65.38,325.75 65.59,324.01 65.76,322.27 65.88,320.51 L 65.94,320.52 Z M 65.94,320.52" />
            <path id="sue05Canvas-bezier58" stroke="none" fill="rgb(51, 91, 113)" d="M 58.29,346.43 C 57.86,347.68 57.56,348.98 57.41,350.29 57.28,351.59 57.29,352.96 57.8,354.16 58.06,354.76 58.46,355.29 59,355.64 59.26,355.82 59.55,355.96 59.86,356.07 60.16,356.17 60.49,356.22 60.81,356.3 62.1,356.62 63.36,357.02 64.6,357.47 67.09,358.39 69.51,359.47 71.84,360.74 73,361.37 74.14,362.05 75.23,362.82 75.78,363.2 76.31,363.61 76.8,364.06 77.06,364.29 77.29,364.54 77.52,364.76 77.75,364.98 78,365.19 78.26,365.38 80.34,366.96 82.69,368.19 85.09,369.22 87.49,370.22 90.03,371.07 92.61,371.17 93.88,371.21 95.21,371.04 96.22,370.3 96.72,369.93 97.12,369.44 97.34,368.86 97.55,368.28 97.59,367.64 97.49,367.01 97.27,365.75 96.59,364.58 95.7,363.64 94.81,362.71 93.66,361.94 92.35,361.75 L 92.36,361.69 C 93.69,361.82 94.91,362.54 95.88,363.46 96.83,364.4 97.59,365.59 97.87,366.94 98,367.62 97.99,368.34 97.75,369.01 97.52,369.68 97.07,370.26 96.51,370.69 95.38,371.55 93.93,371.75 92.59,371.73 91.24,371.69 89.92,371.42 88.63,371.07 87.35,370.71 86.1,370.25 84.87,369.73 82.44,368.65 80.09,367.38 77.98,365.74 77.72,365.53 77.46,365.31 77.21,365.08 76.96,364.83 76.76,364.6 76.52,364.38 76.04,363.94 75.53,363.53 75,363.15 73.94,362.38 72.81,361.7 71.66,361.05 69.37,359.78 66.97,358.67 64.51,357.74 63.28,357.27 62.03,356.85 60.76,356.52 60.44,356.44 60.11,356.38 59.79,356.26 59.47,356.15 59.17,356 58.89,355.8 58.33,355.42 57.91,354.85 57.65,354.23 57.14,352.97 57.15,351.59 57.3,350.28 57.47,348.96 57.79,347.66 58.24,346.41 L 58.29,346.43 Z M 58.29,346.43" />
            <path id="sue05Canvas-bezier59" stroke="none" fill="rgb(51, 91, 113)" d="M 62.65,347.41 C 65.04,348.78 67.42,350.2 69.75,351.68 72.07,353.18 74.39,354.69 76.49,356.54 77.47,357.52 78.53,358.36 79.66,359.14 80.79,359.91 81.95,360.64 83.15,361.3 84.34,361.96 85.58,362.55 86.88,362.94 87.52,363.12 88.21,363.26 88.84,363.12 89.16,363.05 89.44,362.89 89.61,362.61 89.78,362.33 89.83,361.98 89.84,361.64 L 89.9,361.64 C 89.93,361.98 89.92,362.35 89.75,362.68 89.59,363.02 89.26,363.26 88.91,363.37 88.19,363.57 87.47,363.46 86.78,363.32 85.41,363 84.13,362.42 82.89,361.79 81.65,361.15 80.47,360.41 79.34,359.59 78.22,358.78 77.13,357.87 76.18,356.87 74.17,355.02 71.87,353.46 69.6,351.91 67.31,350.37 64.98,348.89 62.62,347.46 L 62.65,347.41 Z M 62.65,347.41" />
            <path id="sue05Canvas-bezier60" stroke="none" fill="rgb(51, 91, 113)" d="M 81.92,323.24 C 80.47,326.16 79.48,329.32 78.92,332.53 78.35,335.74 78.25,339.04 78.8,342.25 79.34,345.45 80.57,348.51 82.3,351.24 84.02,353.98 86.31,356.35 88.82,358.43 L 88.79,358.47 C 86.07,356.64 83.68,354.3 81.83,351.54 79.99,348.78 78.84,345.58 78.36,342.32 77.86,339.05 78.01,335.7 78.64,332.48 79.29,329.26 80.35,326.11 81.87,323.21 L 81.92,323.24 Z M 81.92,323.24" />
            <path id="sue05Canvas-bezier61" stroke="none" fill="rgb(51, 91, 113)" d="M 7.96,150.62 C 6.25,154.4 4.94,158.35 3.84,162.34 2.74,166.34 1.91,170.4 1.36,174.51 0.81,178.61 0.58,182.75 0.57,186.88 0.54,191.02 0.85,195.16 1.4,199.27 L 1.35,199.28 C 0.48,195.22 0.09,191.05 0.01,186.89 -0.06,182.72 0.3,178.56 0.91,174.44 1.52,170.33 2.42,166.25 3.57,162.26 4.74,158.28 6.12,154.35 7.91,150.6 L 7.96,150.62 Z M 7.96,150.62" />
            <path id="sue05Canvas-bezier62" stroke="none" fill="rgb(51, 91, 113)" d="M 31.48,40.32 C 32.54,40.52 33.63,40.57 34.72,40.57 35.8,40.56 36.89,40.47 37.96,40.3 39.03,40.14 40.08,39.88 41.12,39.6 42.17,39.33 43.2,38.98 44.23,38.63 L 44.24,38.65 C 43.27,39.16 42.25,39.55 41.2,39.87 40.15,40.19 39.07,40.39 37.99,40.53 36.9,40.66 35.81,40.73 34.72,40.71 33.63,40.68 32.54,40.58 31.47,40.34 L 31.48,40.32 Z M 31.48,40.32" />
            <path id="sue05Canvas-bezier63" stroke="none" fill="rgb(51, 91, 113)" d="M 32.17,40.88 C 32.94,41.75 33.96,42.37 35.06,42.67 36.17,42.98 37.34,42.93 38.44,42.62 39.53,42.3 40.55,41.75 41.5,41.12 42.46,40.5 43.35,39.76 44.22,39 L 44.24,39.02 C 43.48,39.89 42.61,40.68 41.66,41.35 40.7,42.02 39.63,42.54 38.49,42.83 37.36,43.13 36.15,43.15 35.02,42.8 33.91,42.46 32.89,41.8 32.15,40.9 L 32.17,40.88 Z M 32.17,40.88" />
            <path id="sue05Canvas-bezier64" stroke="none" fill="rgb(51, 91, 113)" d="M 46.22,44.38 C 45.96,46.22 45.07,48.01 43.59,49.19 42.11,50.37 40.15,50.83 38.28,50.67 36.39,50.5 34.65,49.58 33.19,48.42 31.72,47.24 30.47,45.83 29.32,44.37 28.74,43.64 28.18,42.89 27.64,42.13 27.11,41.37 26.56,40.63 26.07,39.8 25.6,38.98 25.21,38.1 24.99,37.16 24.76,36.23 24.71,35.26 24.71,34.33 24.72,33.39 24.73,32.51 24.52,31.6 24.36,30.66 24.3,29.73 24.26,28.8 24.22,27.87 24.18,26.94 24.1,26.02 24.07,25.56 24.02,25.1 23.94,24.65 23.85,24.2 23.75,23.73 23.46,23.38 L 23.5,23.34 C 23.83,23.69 23.96,24.17 24.09,24.62 24.21,25.07 24.29,25.53 24.36,25.99 24.48,26.92 24.56,27.85 24.65,28.77 24.75,29.7 24.82,30.62 24.99,31.51 25.24,32.42 25.26,33.41 25.27,34.33 25.27,35.25 25.33,36.15 25.55,37.02 25.76,37.9 26.11,38.74 26.55,39.53 26.99,40.32 27.54,41.08 28.05,41.84 28.58,42.61 29.11,43.36 29.67,44.1 30.79,45.56 32,46.97 33.42,48.13 34.82,49.29 36.49,50.2 38.31,50.39 40.11,50.58 42.03,50.18 43.49,49.06 44.95,47.94 45.87,46.19 46.16,44.38 L 46.22,44.38 Z M 46.22,44.38" />
            <path id="sue05Canvas-bezier65" stroke="none" fill="rgb(51, 91, 113)" d="M 21.43,149.65 C 20.82,150.99 20.06,152.26 19.21,153.47 18.35,154.67 17.38,155.8 16.31,156.83 15.24,157.86 14.08,158.82 12.76,159.52 11.44,160.22 10.02,160.74 8.55,160.94 L 8.54,160.88 C 9.92,160.38 11.25,159.79 12.48,159.04 13.72,158.29 14.92,157.47 16.01,156.5 17.09,155.54 18.09,154.46 18.98,153.3 19.88,152.15 20.71,150.93 21.38,149.62 L 21.43,149.65 Z M 21.43,149.65" />
            <path id="sue05Canvas-bezier66" stroke="none" fill="rgb(51, 91, 113)" d="M 62.78,152.99 C 62.8,153.87 62.85,154.75 62.93,155.63 62.99,156.51 63.09,157.38 63.22,158.25 63.35,159.11 63.56,159.96 63.75,160.8 63.96,161.63 64.15,162.48 64.74,163.13 L 64.71,163.18 C 64.29,162.98 63.99,162.59 63.75,162.2 63.51,161.81 63.35,161.38 63.21,160.95 62.93,160.08 62.85,159.19 62.77,158.3 62.62,156.53 62.62,154.75 62.73,152.98 L 62.78,152.99 Z M 62.78,152.99" />
            <path id="sue05Canvas-bezier67" stroke="none" fill="rgb(51, 91, 113)" d="M 26.52,93.8 C 26,95.41 25.42,97.01 24.76,98.58 24.44,99.37 24.12,100.17 23.69,100.9 23.46,101.27 23.23,101.64 22.97,101.97 22.7,102.31 22.42,102.65 22.06,102.91 L 22.02,102.87 C 22.47,102.14 22.82,101.39 23.19,100.64 23.56,99.88 23.98,99.15 24.35,98.39 25.1,96.88 25.8,95.33 26.47,93.78 L 26.52,93.8 Z M 26.52,93.8" />
            <g id="sue05Canvas-group3">
                <path id="sue05Canvas-bezier68" stroke="none" fill="rgb(51, 91, 113)" d="M 35.73,84.75 C 34.87,84.61 33.99,84.25 33.4,83.54 32.81,82.84 32.59,81.86 32.7,80.95 32.75,80.49 32.86,80.03 33.14,79.62 33.21,79.52 33.3,79.42 33.43,79.36 33.46,79.34 33.5,79.33 33.54,79.32 33.57,79.32 33.59,79.31 33.63,79.31 33.7,79.3 33.77,79.31 33.83,79.32 34.09,79.37 34.29,79.5 34.48,79.63 35.2,80.17 35.8,80.88 36.6,81.05 L 36.51,81.05 C 36.93,80.9 37.41,80.94 37.79,81.21 38.16,81.48 38.36,81.9 38.48,82.3 38.59,82.73 38.64,83.08 38.77,83.45 38.9,83.81 39.05,84.17 39.2,84.53 39.51,85.26 39.86,85.98 40.09,86.78 40.2,87.18 40.29,87.61 40.22,88.07 40.19,88.29 40.12,88.53 40.01,88.73 39.95,88.84 39.88,88.93 39.8,89.02 L 39.61,89.24 C 39.11,89.83 38.71,90.44 38.56,91.18 L 38.41,91.77 C 38.36,91.97 38.27,92.18 38.18,92.36 38,92.74 37.78,93.09 37.52,93.41 36.47,94.69 34.93,95.41 33.4,95.61 L 33.39,95.56 C 34.88,95.16 36.27,94.35 37.17,93.12 37.4,92.82 37.59,92.49 37.74,92.15 37.82,91.98 37.88,91.81 37.92,91.63 L 38.03,91.06 C 38.11,90.65 38.26,90.23 38.47,89.86 38.67,89.49 38.92,89.17 39.18,88.86 L 39.38,88.63 C 39.43,88.57 39.48,88.51 39.52,88.44 39.6,88.31 39.65,88.15 39.68,87.99 39.73,87.65 39.67,87.28 39.59,86.92 39.4,86.18 39.08,85.46 38.78,84.72 38.63,84.35 38.49,83.97 38.37,83.59 38.24,83.2 38.17,82.76 38.09,82.42 38,82.06 37.83,81.72 37.57,81.53 37.31,81.33 36.94,81.29 36.63,81.39 L 36.57,81.41 36.53,81.4 C 35.57,81.16 34.98,80.39 34.31,79.87 33.98,79.62 33.56,79.41 33.34,79.78 33.1,80.11 32.97,80.55 32.91,80.98 32.78,81.84 32.96,82.77 33.5,83.46 34.04,84.15 34.89,84.53 35.74,84.69 L 35.73,84.75 Z M 35.73,84.75" />
                <path id="sue05Canvas-bezier69" stroke="none" fill="rgb(51, 91, 113)" d="M 35.29,85.3 C 35.48,85.82 35.72,86.31 36,86.75 36.15,86.97 36.34,87.14 36.46,87.37 36.59,87.59 36.72,87.81 36.83,88.1 L 36.8,88.14 C 36.49,88.1 36.24,87.92 36.03,87.72 35.82,87.51 35.72,87.22 35.62,86.96 35.4,86.43 35.27,85.87 35.24,85.32 L 35.29,85.3 Z M 35.29,85.3" />
                <path id="sue05Canvas-bezier70" stroke="none" fill="rgb(51, 91, 113)" d="M 26.44,92.83 C 26.27,91.36 26.19,89.87 26.28,88.38 26.3,88.01 26.36,87.63 26.41,87.26 26.45,86.9 26.46,86.53 26.45,86.17 26.44,85.43 26.35,84.7 26.22,83.98 25.96,82.53 25.51,81.12 24.92,79.78 24.34,78.44 23.56,77.19 22.87,75.87 22.52,75.22 22.17,74.56 21.87,73.88 21.57,73.19 21.27,72.48 21.21,71.66 21.18,71.26 21.26,70.77 21.59,70.42 21.67,70.33 21.76,70.26 21.85,70.19 21.92,70.15 22.03,70.09 22.12,70.04 22.3,69.95 22.53,69.87 22.77,69.88 23.27,69.91 23.62,70.23 23.89,70.5 24.16,70.79 24.37,71.11 24.58,71.42 25.37,72.7 26.01,74.04 26.64,75.37 27.27,76.72 27.87,78.07 28.44,79.43 L 28.39,79.46 C 27.68,78.16 27,76.85 26.3,75.55 25.6,74.26 24.93,72.94 24.12,71.74 23.92,71.44 23.72,71.15 23.48,70.9 23.25,70.66 22.99,70.47 22.75,70.47 22.63,70.47 22.5,70.5 22.36,70.57 22.29,70.6 22.23,70.63 22.15,70.69 22.1,70.73 22.04,70.77 21.99,70.82 21.81,71 21.74,71.3 21.75,71.64 21.79,72.31 22.05,73.01 22.32,73.67 22.6,74.34 22.92,75 23.25,75.66 23.91,76.97 24.68,78.25 25.25,79.63 25.82,81.01 26.25,82.45 26.49,83.93 26.61,84.67 26.68,85.42 26.67,86.17 26.67,86.54 26.65,86.92 26.6,87.29 26.54,87.66 26.48,88.02 26.44,88.39 26.32,89.86 26.37,91.35 26.49,92.83 L 26.44,92.83 Z M 26.44,92.83" />
                <path id="sue05Canvas-bezier71" stroke="none" fill="rgb(51, 91, 113)" d="M 28.69,78.08 C 28.59,75.68 28.48,73.27 28.32,70.88 28.24,69.68 28.16,68.48 28.01,67.3 27.97,67 27.92,66.72 27.86,66.42 27.8,66.12 27.76,65.81 27.74,65.5 27.72,65.19 27.73,64.87 27.78,64.55 27.84,64.24 27.95,63.89 28.24,63.63 28.54,63.37 28.96,63.36 29.27,63.43 29.43,63.47 29.58,63.53 29.73,63.59 L 29.84,63.64 C 29.9,63.68 29.91,63.68 29.95,63.71 30.05,63.78 30.11,63.84 30.17,63.91 30.6,64.46 30.76,65.06 30.94,65.64 31.27,66.82 31.45,68.02 31.6,69.22 31.87,71.62 32.02,74.03 31.99,76.44 L 31.93,76.44 C 31.65,74.05 31.42,71.66 31.06,69.3 30.88,68.12 30.7,66.93 30.41,65.79 30.27,65.24 30.09,64.64 29.79,64.24 29.71,64.09 29.39,63.97 29.16,63.9 28.92,63.83 28.68,63.85 28.52,63.98 28.35,64.11 28.25,64.37 28.19,64.63 28.14,64.9 28.13,65.19 28.14,65.48 28.15,65.77 28.18,66.06 28.23,66.35 28.28,66.64 28.33,66.95 28.36,67.25 28.49,68.46 28.54,69.66 28.59,70.86 28.68,73.27 28.72,75.67 28.74,78.08 L 28.69,78.08 Z M 28.69,78.08" />
                <path id="sue05Canvas-bezier72" stroke="none" fill="rgb(51, 91, 113)" d="M 32.74,74.67 C 32.99,72.24 33.19,69.81 33.3,67.38 33.34,66.18 33.4,64.94 33.24,63.77 33.19,63.48 33.13,63.15 33.17,62.81 33.19,62.64 33.24,62.46 33.34,62.29 33.45,62.13 33.62,62 33.81,61.95 34.18,61.86 34.52,61.97 34.81,62.11 35.1,62.27 35.36,62.47 35.58,62.73 35.68,62.85 35.79,63.02 35.85,63.18 35.91,63.34 35.95,63.49 35.99,63.64 36.06,63.95 36.12,64.25 36.17,64.55 36.28,65.16 36.36,65.77 36.42,66.38 36.55,67.6 36.61,68.83 36.61,70.06 36.57,71.28 36.51,72.52 36.25,73.73 36.18,74.04 36.1,74.34 36,74.63 35.87,74.94 35.78,75.17 35.78,75.46 35.78,75.74 35.86,76.02 36.05,76.23 36.23,76.43 36.53,76.55 36.8,76.45 L 36.83,76.5 C 36.54,76.66 36.18,76.57 35.94,76.35 35.7,76.13 35.56,75.8 35.53,75.47 35.49,75.15 35.61,74.79 35.69,74.53 35.77,74.25 35.83,73.96 35.87,73.66 36.05,72.48 36.08,71.27 36.06,70.06 36.04,68.85 35.98,67.64 35.88,66.44 35.83,65.83 35.77,65.23 35.69,64.64 35.64,64.34 35.6,64.04 35.54,63.75 35.5,63.61 35.47,63.47 35.43,63.34 35.38,63.22 35.32,63.13 35.24,63.01 34.92,62.61 34.35,62.26 33.91,62.35 33.71,62.39 33.58,62.59 33.55,62.86 33.51,63.13 33.55,63.41 33.6,63.72 33.73,64.97 33.64,66.18 33.57,67.4 33.39,69.84 33.11,72.26 32.8,74.67 L 32.74,74.67 Z M 32.74,74.67" />
                <path id="sue05Canvas-bezier73" stroke="none" fill="rgb(51, 91, 113)" d="M 36.59,75.51 C 37.41,73.49 38.19,71.45 38.82,69.37 38.97,68.85 39.12,68.32 39.23,67.8 39.29,67.53 39.34,67.27 39.37,67 39.39,66.76 39.4,66.45 39.46,66.17 39.53,65.89 39.63,65.6 39.82,65.35 40,65.1 40.31,64.89 40.66,64.91 41,64.92 41.3,65.13 41.49,65.37 41.69,65.61 41.81,65.9 41.87,66.2 41.98,66.79 41.96,67.34 41.95,67.89 41.93,68.45 41.89,69 41.84,69.55 41.73,70.65 41.54,71.74 41.29,72.81 40.77,74.95 40.05,77.07 38.86,78.91 L 38.81,78.88 C 39.71,76.9 40.33,74.81 40.76,72.69 40.98,71.63 41.16,70.56 41.3,69.48 41.37,68.95 41.43,68.41 41.46,67.87 41.49,67.34 41.52,66.78 41.44,66.29 41.36,65.82 41.05,65.35 40.64,65.32 40.23,65.29 39.92,65.77 39.81,66.26 39.75,66.51 39.73,66.75 39.7,67.05 39.66,67.33 39.6,67.6 39.54,67.87 39.41,68.41 39.25,68.93 39.08,69.45 38.37,71.53 37.53,73.54 36.64,75.53 L 36.59,75.51 Z M 36.59,75.51" />
                <path id="sue05Canvas-bezier74" stroke="none" fill="rgb(51, 91, 113)" d="M 39.07,79.26 C 39.21,79.71 39.32,80.16 39.39,80.63 39.42,80.86 39.5,81.1 39.44,81.34 39.39,81.58 39.3,81.84 39.07,82.01 L 39.02,81.98 C 38.96,81.73 38.92,81.53 38.89,81.31 38.87,81.09 38.94,80.87 38.95,80.65 38.98,80.2 39,79.74 39.02,79.27 L 39.07,79.26 Z M 39.07,79.26" />
                <path id="sue05Canvas-bezier75" stroke="none" fill="rgb(51, 91, 113)" d="M 34.18,85.32 C 33.78,86.43 33.44,87.56 33.2,88.7 33.08,89.27 33.04,89.85 32.95,90.42 32.86,90.98 32.79,91.54 32.8,92.14 L 32.74,92.16 C 32.44,91.62 32.38,90.97 32.4,90.36 32.42,89.75 32.61,89.16 32.77,88.59 33.12,87.44 33.58,86.34 34.13,85.3 L 34.18,85.32 Z M 34.18,85.32" />
                <path id="sue05Canvas-bezier76" stroke="none" fill="rgb(51, 91, 113)" d="M 29.07,85.28 C 29.6,84.93 30.11,84.56 30.61,84.18 30.86,83.99 31.07,83.75 31.32,83.59 31.58,83.42 31.83,83.28 32.09,83.07 L 32.14,83.1 C 32.13,83.48 31.9,83.79 31.67,84.03 31.44,84.28 31.13,84.41 30.85,84.56 30.28,84.87 29.69,85.12 29.09,85.33 L 29.07,85.28 Z M 29.07,85.28" />
            </g>
            <path id="sue05Canvas-bezier77" stroke="none" fill="rgb(51, 91, 113)" d="M 28.01,113.18 C 28.65,110.31 29.34,107.45 30.09,104.6 30.46,103.18 30.82,101.75 31.3,100.35 31.55,99.66 31.8,98.96 32.09,98.28 32.39,97.61 32.68,96.92 33.15,96.32 L 33.19,96.36 C 32.88,97.01 32.68,97.72 32.46,98.42 32.25,99.12 32.03,99.82 31.83,100.52 31.42,101.93 30.95,103.32 30.52,104.73 29.67,107.54 28.86,110.36 28.07,113.2 L 28.01,113.18 Z M 28.01,113.18" />
        </g>
    </g>
</svg>
