<?xml version="1.0" encoding="UTF-8"?>
<!DOCTYPE svg PUBLIC "-//W3C//DTD SVG 1.1//EN" "http://www.w3.org/Graphics/SVG/1.1/DTD/svg11.dtd">
<svg version="1.1" xmlns="http://www.w3.org/2000/svg" xmlns:xlink="http://www.w3.org/1999/xlink" width="200" height="300"  xml:space="preserve" id="jonnieSideRight6">
    <!-- Generated by PaintCode - http://www.paintcodeapp.com -->
    <g id="jonnieSideRight6-group2">
        <g id="jonnieSideRight6-group109">
            <path id="jonnieSideRight6-bezier108" stroke="none" fill="rgb(0, 0, 0)" d="M 123.59,31.28 C 123.67,33.78 123.6,36.29 123.1,38.77 122.8,39.99 122.47,41.28 121.45,42.27 121.19,42.51 120.87,42.7 120.51,42.8 120.33,42.85 120.15,42.88 119.97,42.88 L 119.49,42.9 C 118.89,42.92 118.28,42.98 117.69,43.08 115.3,43.49 113.19,44.81 111.82,46.73 111.11,47.67 110.6,48.78 110.25,49.93 110.07,50.51 109.93,51.1 109.86,51.71 109.78,52.3 109.73,52.94 109.9,53.51 L 109.82,53.56 C 109.23,52.37 109.38,51.02 109.57,49.77 109.8,48.5 110.29,47.27 111,46.16 111.73,45.07 112.71,44.13 113.87,43.48 115.02,42.84 116.29,42.46 117.57,42.29 118.21,42.2 118.84,42.17 119.49,42.17 L 119.96,42.18 C 120.08,42.18 120.21,42.16 120.33,42.14 120.58,42.08 120.81,41.96 121.02,41.78 121.86,41.05 122.29,39.82 122.61,38.66 123.23,36.27 123.44,33.77 123.49,31.28 L 123.59,31.28 Z M 123.59,31.28" />
        </g>
        <g id="jonnieSideRight6-group110">
            <path id="jonnieSideRight6-bezier109" stroke="none" fill="rgb(0, 0, 0)" d="M 87.22,53.13 C 88.31,51.52 89.42,49.91 90.59,48.36 91.18,47.59 91.76,46.78 92.53,46.16 93.24,45.51 93.91,44.81 94.47,44.03 95.03,43.25 95.46,42.39 95.68,41.47 95.9,40.54 95.89,39.58 95.69,38.65 95.3,36.78 94.36,35.07 93.47,33.35 92.56,31.62 91.66,29.88 91.03,28.01 90.39,26.14 90.03,24.16 90.08,22.17 90.13,20.19 90.52,18.2 91.35,16.38 92.17,14.55 93.38,12.91 94.84,11.56 97.78,8.84 101.54,7.19 105.41,6.38 109.28,5.62 113.4,5.6 117.2,7.01 119.15,7.82 120.63,9.34 121.71,11.01 122.8,12.69 123.57,14.53 124.14,16.41 125.27,20.19 125.77,24.09 125.83,27.99 L 125.73,27.99 C 125.59,26.06 125.31,24.13 124.94,22.23 124.58,20.33 124.11,18.45 123.48,16.63 122.84,14.82 122.07,13.05 121,11.49 119.94,9.93 118.53,8.59 116.84,7.94 115.09,7.28 113.19,6.99 111.29,6.92 109.39,6.85 107.48,6.99 105.6,7.35 101.87,8.07 98.22,9.6 95.38,12.15 93.97,13.42 92.81,14.96 92.01,16.68 91.2,18.39 90.8,20.28 90.73,22.19 90.66,24.09 90.97,26 91.57,27.82 92.17,29.65 93.03,31.38 93.91,33.12 94.77,34.85 95.71,36.61 96.09,38.58 96.27,39.55 96.27,40.58 96.02,41.55 95.77,42.52 95.3,43.42 94.71,44.21 94.12,45 93.43,45.7 92.69,46.35 91.93,46.94 91.35,47.72 90.74,48.48 89.55,50.01 88.42,51.59 87.3,53.19 L 87.22,53.13 Z M 87.22,53.13" />
        </g>
        <g id="jonnieSideRight6-group111">
            <path id="jonnieSideRight6-bezier110" stroke="none" fill="rgb(0, 0, 0)" d="M 105.06,193.17 L 111.36,201.03 C 112.41,202.37 113.39,203.79 114.06,205.37 114.72,206.94 115.23,208.6 115.31,210.32 L 115.22,210.33 C 114.61,208.76 113.92,207.26 113.16,205.8 112.4,204.34 111.65,202.87 110.72,201.51 L 107.8,197.4 104.98,193.23 105.06,193.17 Z M 105.06,193.17" />
        </g>
        <g id="jonnieSideRight6-group112">
            <path id="jonnieSideRight6-bezier111" stroke="none" fill="rgb(0, 0, 0)" d="M 113.23,209.59 C 112.7,211.65 112.13,213.71 111.44,215.73 111.09,216.74 110.73,217.76 110.17,218.68 109.71,219.61 109.44,220.66 109.16,221.68 108.12,225.8 107.52,230.04 107.37,234.29 107.3,236.41 107.37,238.54 107.71,240.64 108.04,242.75 108.23,244.88 108.4,247.01 108.73,251.26 108.93,255.52 109.06,259.79 109.17,264.06 109.23,268.32 109.04,272.6 108.98,273.67 108.91,274.74 108.72,275.82 108.5,276.9 108.18,277.9 107.89,278.93 107.32,280.98 106.69,283.03 106.53,285.1 106.47,286.11 106.54,287.2 107.15,287.89 107.79,288.54 108.86,288.76 109.87,288.86 111.94,289.03 114.08,288.79 116.23,288.79 117.3,288.79 118.39,288.83 119.47,288.98 120.56,289.14 121.58,289.42 122.62,289.63 124.7,290.07 126.79,290.47 128.89,290.78 130.98,291.08 133.1,291.33 135.18,291.28 136.22,291.25 137.27,291.12 138.29,290.92 139.29,290.72 140.34,290.45 141.14,289.95 141.54,289.68 141.75,289.39 141.64,289.17 141.54,288.88 141.14,288.54 140.73,288.29 139.87,287.78 138.88,287.35 137.92,286.92 135.97,286.08 133.99,285.26 132.05,284.36 130.11,283.45 128.19,282.47 126.36,281.29 125.45,280.7 124.57,280.06 123.75,279.32 122.93,278.58 122.21,277.76 121.55,276.87 120.24,275.12 119.28,273.1 118.7,270.99 118.12,268.87 117.92,266.68 117.95,264.52 118.06,260.15 119.19,255.99 120.09,251.83 L 122.98,239.37 C 123.44,237.29 123.89,235.21 124.28,233.12 124.47,232.08 124.65,231.03 124.79,229.98 124.92,228.94 125.01,227.85 125.26,226.8 126.24,222.6 128.11,218.7 130.31,215.05 L 130.39,215.1 C 128.3,218.8 126.56,222.75 125.71,226.89 125.49,227.93 125.41,228.96 125.29,230.04 125.16,231.11 125,232.16 124.82,233.22 124.46,235.32 124.04,237.42 123.6,239.51 L 120.89,252.01 C 120.05,256.18 118.99,260.34 118.95,264.53 118.85,268.7 119.83,272.96 122.35,276.28 122.97,277.1 123.65,277.9 124.42,278.58 125.18,279.27 126.03,279.89 126.9,280.46 128.66,281.6 130.55,282.56 132.47,283.46 134.38,284.37 136.34,285.19 138.3,286.06 139.28,286.5 140.25,286.93 141.22,287.51 141.68,287.83 142.22,288.16 142.5,288.88 142.64,289.25 142.56,289.74 142.34,290.03 142.13,290.34 141.87,290.53 141.62,290.7 137.46,292.73 132.96,292.19 128.77,291.57 126.65,291.24 124.55,290.83 122.46,290.37 121.42,290.16 120.37,289.87 119.36,289.72 118.33,289.56 117.28,289.52 116.23,289.52 114.11,289.5 111.99,289.73 109.8,289.55 108.73,289.42 107.54,289.23 106.65,288.34 105.83,287.36 105.82,286.12 105.88,285.06 106.07,282.86 106.72,280.81 107.31,278.76 107.6,277.74 107.92,276.71 108.14,275.71 108.32,274.69 108.4,273.62 108.46,272.57 108.68,268.32 108.64,264.06 108.56,259.8 108.47,255.54 108.3,251.28 108,247.03 107.84,244.91 107.67,242.79 107.37,240.69 107.03,238.57 106.99,236.41 107.07,234.28 107.26,230.01 107.89,225.76 108.97,221.63 109.25,220.6 109.53,219.56 110.02,218.59 110.58,217.69 110.94,216.68 111.3,215.68 112,213.67 112.59,211.62 113.13,209.56 L 113.23,209.59 Z M 113.23,209.59" />
        </g>
        <g id="jonnieSideRight6-group113">
            <path id="jonnieSideRight6-bezier112" stroke="none" fill="rgb(0, 0, 0)" d="M 131.22,213.55 C 131.61,212.75 131.85,211.89 132.02,211.03 132.21,210.18 132.31,209.3 132.33,208.43 132.35,207.56 132.22,206.7 132.21,205.84 132.2,204.97 132.16,204.1 132.22,203.17 L 132.31,203.14 C 132.8,203.95 133.06,204.84 133.21,205.75 133.37,206.66 133.24,207.59 133.13,208.5 132.88,210.31 132.32,212.09 131.31,213.6 L 131.22,213.55 Z M 131.22,213.55" />
        </g>
        <g id="jonnieSideRight6-group114">
            <path id="jonnieSideRight6-bezier113" stroke="none" fill="rgb(0, 0, 0)" d="M 83.19,168.73 C 82.49,172.05 81.83,175.38 81.38,178.73 81.15,180.41 80.99,182.07 81.03,183.76 L 81,188.85 C 80.96,192.25 80.96,195.65 80.69,199.04 80.53,200.73 80.38,202.43 80.12,204.12 79.82,205.78 79.62,207.53 78.77,209.06 L 78.68,209.01 C 79,208.24 79.1,207.39 79.2,206.56 79.3,205.72 79.37,204.88 79.43,204.04 79.54,202.35 79.64,200.67 79.69,198.98 L 80.2,188.83 80.38,183.75 C 80.39,182.05 80.61,180.32 80.89,178.65 81.48,175.3 82.26,172 83.1,168.71 L 83.19,168.73 Z M 83.19,168.73" />
        </g>
        <g id="jonnieSideRight6-group115">
            <path id="jonnieSideRight6-bezier114" stroke="none" fill="rgb(0, 0, 0)" d="M 77.39,207.05 C 75.37,211.39 73.4,215.76 71.08,219.95 69.75,221.95 68.78,224.14 67.91,226.36 67.05,228.59 66.34,230.87 65.8,233.2 65.27,235.52 64.9,237.89 64.8,240.27 64.74,242.66 64.54,245.06 64.24,247.44 63.64,252.2 62.75,256.92 61.56,261.57 60.95,263.89 60.28,266.2 59.38,268.44 58.93,269.55 58.37,270.67 57.69,271.66 L 55.79,274.69 C 54.57,276.72 53.34,278.81 52.84,281.09 52.72,281.66 52.66,282.22 52.65,282.82 52.64,283.4 52.63,284 52.77,284.51 52.98,285.56 54.29,285.77 55.42,285.93 56.59,286.08 57.78,286.14 58.98,286.21 60.2,286.31 61.39,286.53 62.57,286.8 64.93,287.35 67.22,288.1 69.47,288.93 71.73,289.76 73.95,290.68 76.13,291.67 L 77.77,292.42 C 78.29,292.66 78.84,292.86 79.4,293.02 80.51,293.34 81.68,293.53 82.84,293.59 85.19,293.66 87.62,293.6 90,293.61 L 91.79,293.6 92.69,293.6 92.89,293.6 C 93,293.59 92.95,293.59 93.01,293.58 93.09,293.55 93.18,293.5 93.27,293.44 93.64,293.17 93.88,292.67 93.76,292.36 93.67,292.04 93.21,291.77 92.68,291.63 91.61,291.35 90.36,291.26 89.18,290.99 87.98,290.73 86.8,290.35 85.68,289.86 83.41,288.89 81.4,287.49 79.52,285.96 75.79,282.91 72.58,278.87 71.39,274.05 70.78,271.66 70.73,269.15 71.01,266.74 71.28,264.33 71.78,261.96 72.4,259.63 73.69,254.98 75.37,250.46 77.52,246.13 77.79,245.6 78.08,245.06 78.37,244.54 78.67,244.03 78.91,243.51 79.15,242.96 79.62,241.88 80.04,240.77 80.45,239.65 81.27,237.4 82.03,235.13 82.81,232.87 83.59,230.61 84.38,228.34 85.27,226.11 85.71,225 86.18,223.89 86.71,222.8 87.24,221.72 87.8,220.64 88.63,219.7 89.06,219.22 89.57,218.92 89.99,218.5 90.43,218.11 90.84,217.69 91.23,217.24 92.02,216.36 92.73,215.4 93.36,214.39 94.6,212.37 95.64,210.17 96.05,207.81 L 96.15,207.83 C 95.8,210.22 94.81,212.46 93.6,214.53 92.99,215.57 92.29,216.56 91.51,217.48 91.12,217.94 90.71,218.39 90.27,218.81 89.84,219.24 89.32,219.58 88.97,220 88.22,220.88 87.67,221.95 87.16,223.02 86.66,224.09 86.21,225.2 85.78,226.31 84.93,228.54 84.17,230.8 83.41,233.07 82.66,235.35 81.93,237.62 81.14,239.89 80.74,241.02 80.33,242.15 79.86,243.27 79.63,243.82 79.37,244.39 79.07,244.92 78.78,245.45 78.51,245.97 78.25,246.5 76.19,250.78 74.58,255.29 73.37,259.88 72.76,262.18 72.26,264.5 72,266.85 71.73,269.19 71.78,271.55 72.35,273.8 73.47,278.36 76.52,282.23 80.15,285.19 81.97,286.69 83.92,288.07 86.05,289 87.12,289.47 88.23,289.84 89.37,290.09 90.52,290.36 91.68,290.44 92.92,290.77 93.51,290.95 94.3,291.24 94.61,292.1 94.74,292.51 94.65,292.95 94.49,293.29 94.33,293.63 94.09,293.91 93.79,294.13 93.64,294.25 93.47,294.34 93.26,294.41 93.18,294.44 92.98,294.46 92.94,294.46 L 92.69,294.46 91.79,294.46 90,294.45 C 87.59,294.43 85.23,294.47 82.79,294.39 81.57,294.31 80.36,294.12 79.18,293.77 78.59,293.59 78.01,293.38 77.44,293.12 L 75.82,292.36 C 73.65,291.37 71.45,290.45 69.22,289.61 66.99,288.77 64.72,288.02 62.42,287.47 61.26,287.2 60.1,286.97 58.93,286.88 57.74,286.79 56.54,286.73 55.34,286.57 54.73,286.48 54.12,286.39 53.51,286.15 52.9,285.94 52.29,285.34 52.16,284.67 51.99,284.02 52.02,283.4 52.03,282.79 52.04,282.19 52.11,281.56 52.24,280.96 52.79,278.53 54.06,276.43 55.3,274.39 L 57.23,271.35 C 57.91,270.37 58.43,269.33 58.88,268.23 59.78,266.03 60.46,263.74 61.08,261.43 62.29,256.82 63.21,252.12 63.84,247.38 64.16,245.01 64.38,242.64 64.45,240.25 64.57,237.84 64.96,235.46 65.51,233.13 66.07,230.79 66.8,228.5 67.67,226.26 68.56,224.04 69.56,221.84 70.9,219.85 73.25,215.69 75.26,211.33 77.3,207.01 L 77.39,207.05 Z M 77.39,207.05" />
        </g>
        <g id="jonnieSideRight6-group136">
            <path id="jonnieSideRight6-bezier135" stroke="none" fill="rgb(0, 0, 0)" d="M 118.33,138.93 C 117.45,136.02 116.72,133.04 116.35,129.99 116.15,128.47 115.98,126.94 116.02,125.41 116.06,123.88 116.17,122.35 116.45,120.83 L 116.55,120.83 C 116.82,122.36 116.92,123.88 117.02,125.39 117.11,126.9 117.06,128.41 117.15,129.92 117.33,132.93 117.83,135.93 118.42,138.91 L 118.33,138.93 Z M 118.33,138.93" />
        </g>
        <g id="jonnieSideRight6-group137">
            <path id="jonnieSideRight6-bezier136" stroke="none" fill="rgb(0, 0, 0)" d="M 96.79,205.52 C 98.77,202.09 100.54,198.54 102.18,194.94 103.83,191.34 105.33,187.67 106.64,183.94 107.94,180.21 109,176.41 109.96,172.59 110.95,168.77 111.64,164.89 112.12,160.95 L 112.22,160.95 C 112.32,164.94 111.75,168.92 110.94,172.82 110.09,176.72 108.8,180.5 107.39,184.22 105.98,187.94 104.38,191.58 102.63,195.15 100.86,198.71 98.97,202.2 96.88,205.57 L 96.79,205.52 Z M 96.79,205.52" />
        </g>
        <g id="jonnieSideRight6-group138">
            <path id="jonnieSideRight6-bezier137" stroke="none" fill="rgb(0, 0, 0)" d="M 78.55,79.21 C 78.95,81.8 79.84,84.28 80.61,86.79 81.41,89.29 82.22,91.79 82.94,94.32 84.36,99.36 85.61,104.56 85.42,109.89 85.07,115.16 84.18,120.36 82.99,125.5 81.75,130.62 80.28,135.7 78.09,140.54 L 77.65,139.85 C 81.11,139.8 84.56,139.83 88.02,139.86 91.48,139.89 94.94,139.96 98.4,140.23 99.28,140.31 100.13,140.36 101.04,140.57 101.82,140.78 102.67,140.8 103.52,140.82 105.23,140.85 106.95,140.79 108.67,140.71 112.11,140.5 115.58,140.29 118.98,139.89 L 119.02,139.98 C 115.58,140.58 112.17,140.99 108.72,141.3 106.99,141.45 105.26,141.59 103.52,141.6 102.65,141.59 101.75,141.6 100.85,141.37 100.07,141.22 99.19,141.17 98.34,141.11 96.63,141.02 94.91,140.98 93.18,140.95 L 88.01,140.86 77.66,140.81 76.9,140.81 77.22,140.13 C 79.43,135.42 80.99,130.39 82.27,125.32 83.51,120.24 84.45,115.06 84.86,109.86 85.1,104.65 83.95,99.46 82.62,94.41 81.93,91.88 81.17,89.37 80.4,86.85 79.67,84.33 78.81,81.83 78.45,79.22 L 78.55,79.21 Z M 78.55,79.21" />
        </g>
        <g id="jonnieSideRight6-group139">
            <path id="jonnieSideRight6-bezier138" stroke="none" fill="rgb(0, 0, 0)" d="M 83.45,165.63 C 83.47,164.61 83.26,163.61 82.99,162.64 82.71,161.66 82.37,160.71 81.99,159.77 81.25,157.86 80.34,156.08 79.5,154.17 78.7,152.26 78.07,150.25 77.84,148.18 77.63,146.11 77.7,143.99 78.25,142 L 78.35,142.01 C 78.34,144.06 78.49,146.06 78.84,148.04 79.18,150.01 79.57,151.98 80.24,153.88 80.96,155.75 81.81,157.65 82.46,159.59 82.78,160.57 83.06,161.56 83.28,162.57 83.49,163.57 83.64,164.61 83.55,165.63 L 83.45,165.63 Z M 83.45,165.63" />
        </g>
        <g id="jonnieSideRight6-group140">
            <path id="jonnieSideRight6-bezier139" stroke="none" fill="rgb(0, 0, 0)" d="M 78.06,71.37 C 78.31,68.26 79.1,65.19 80.36,62.29 80.99,60.85 81.71,59.41 82.72,58.17 83.73,56.95 84.93,55.85 86.32,55.09 L 86.38,55.17 C 85.35,56.35 84.38,57.52 83.52,58.78 82.66,60.02 81.79,61.28 81.08,62.64 80.38,64 79.79,65.42 79.31,66.89 78.82,68.35 78.41,69.85 78.16,71.38 L 78.06,71.37 Z M 78.06,71.37" />
        </g>
        <g id="jonnieSideRight6-group141">
            <path id="jonnieSideRight6-bezier140" stroke="none" fill="rgb(0, 0, 0)" d="M 76.38,74.64 C 75.73,77.16 75.11,79.68 74.52,82.21 73.92,84.73 73.33,87.27 72.92,89.8 72.57,92.35 72.35,94.96 71.85,97.52 71.58,98.8 71.31,100.08 70.95,101.34 70.54,102.57 70.23,103.92 69.29,104.91 L 69.22,104.84 C 69.57,104.33 69.73,103.69 69.88,103.07 70.04,102.45 70.16,101.82 70.27,101.18 70.49,99.91 70.69,98.64 70.86,97.36 71.23,94.79 71.67,92.25 72.13,89.67 72.65,87.09 73.34,84.59 74.04,82.08 74.76,79.58 75.51,77.1 76.29,74.62 L 76.38,74.64 Z M 76.38,74.64" />
        </g>
        <g id="jonnieSideRight6-group142">
            <path id="jonnieSideRight6-bezier141" stroke="none" fill="rgb(0, 0, 0)" d="M 68.3,105.98 C 68.24,106.73 68.19,107.48 68.16,108.21 68.15,108.58 68.23,108.95 68.14,109.3 68.05,109.65 67.93,109.97 67.72,110.37 L 67.62,110.39 C 67.28,110.05 67.18,109.62 67.14,109.23 67.09,108.83 67.27,108.46 67.37,108.09 67.59,107.35 67.86,106.64 68.2,105.95 L 68.3,105.98 Z M 68.3,105.98" />
        </g>
        <g id="jonnieSideRight6-group143">
            <path id="jonnieSideRight6-bezier142" stroke="none" fill="rgb(0, 0, 0)" d="M 66.88,113.48 C 66.02,115.58 65.32,117.73 64.77,119.92 64.22,122.11 63.84,124.34 63.79,126.59 63.63,131.11 63.51,135.64 63.16,140.17 62.98,142.44 62.76,144.7 62.36,146.97 62.13,148.09 61.9,149.23 61.42,150.34 61.29,150.62 61.15,150.9 60.96,151.17 60.75,151.46 60.55,151.65 60.38,151.86 60.02,152.27 59.67,152.71 59.33,153.16 57.94,154.92 56.65,156.77 55.37,158.63 54.72,159.56 54.1,160.5 53.49,161.45 53.18,161.92 52.88,162.4 52.59,162.88 52.33,163.37 51.98,163.87 51.88,164.37 L 51.78,164.39 C 51.81,163.77 52.11,163.28 52.33,162.75 52.57,162.23 52.83,161.72 53.09,161.22 53.63,160.22 54.2,159.23 54.78,158.25 55.95,156.3 57.2,154.41 58.54,152.55 58.88,152.09 59.23,151.64 59.6,151.2 59.79,150.97 60,150.75 60.12,150.58 60.25,150.39 60.36,150.16 60.47,149.92 60.89,148.96 61.16,147.86 61.39,146.78 61.84,144.59 62.12,142.35 62.36,140.1 62.81,135.61 63.03,131.09 63.3,126.56 63.41,124.28 63.86,122.03 64.48,119.84 65.1,117.66 65.87,115.52 66.79,113.44 L 66.88,113.48 Z M 66.88,113.48" />
        </g>
        <g id="jonnieSideRight6-group144">
            <path id="jonnieSideRight6-bezier143" stroke="none" fill="rgb(0, 0, 0)" d="M 64.71,158.03 C 65.11,159.21 65.51,160.39 65.94,161.55 66.15,162.13 66.36,162.71 66.59,163.28 66.71,163.56 66.83,163.84 66.96,164.1 67.03,164.25 67.07,164.31 67.18,164.46 67.21,164.49 67.3,164.69 67.32,164.76 67.35,164.85 67.37,164.94 67.39,165.02 67.64,166.33 67.77,167.52 67.89,168.73 67.94,169.33 68.02,169.92 68.16,170.47 68.32,171.02 68.52,171.57 69.09,171.83 L 69.07,171.93 C 68.37,171.95 67.8,171.32 67.51,170.74 67.19,170.14 67.03,169.5 66.9,168.88 66.63,167.63 66.75,166.33 66.61,165.18 66.59,165.11 66.58,165.05 66.57,164.99 66.54,164.91 66.59,164.97 66.53,164.86 66.46,164.76 66.35,164.54 66.3,164.41 66.18,164.1 66.08,163.8 65.98,163.5 65.79,162.9 65.63,162.3 65.47,161.7 65.16,160.49 64.88,159.28 64.62,158.06 L 64.71,158.03 Z M 64.71,158.03" />
        </g>
        <g id="jonnieSideRight6-group145">
            <path id="jonnieSideRight6-bezier144" stroke="none" fill="rgb(0, 0, 0)" d="M 69.67,171.83 C 69.84,171.69 69.91,171.29 69.95,171 70,170.68 70.03,170.36 70.04,170.04 70.07,169.39 70.07,168.75 70.06,168.1 70.03,166.81 69.94,165.52 69.84,164.23 69.63,161.65 69.5,159.06 69.31,156.49 69.22,155.2 68.99,153.96 68.73,152.68 68.5,151.37 68.44,150.06 68.49,148.74 68.59,146.12 69.13,143.53 69.93,141.04 70.32,139.79 70.82,138.56 71.3,137.38 71.77,136.18 72.22,134.97 72.64,133.75 73.49,131.32 74.29,128.87 74.99,126.39 75.72,123.93 76.33,121.42 76.8,118.89 77.26,116.37 77.58,113.8 77.53,111.22 L 77.63,111.21 C 77.96,113.79 77.81,116.42 77.49,119 77.16,121.59 76.59,124.14 75.96,126.66 75.28,129.17 74.49,131.65 73.58,134.09 73.12,135.31 72.64,136.52 72.13,137.72 71.61,138.91 71.11,140.07 70.69,141.29 69.86,143.71 69.29,146.23 69.14,148.77 69.07,150.04 69.1,151.33 69.29,152.58 69.53,153.84 69.75,155.15 69.81,156.45 69.93,159.05 69.99,161.63 70.14,164.21 70.21,165.51 70.26,166.8 70.26,168.1 70.26,168.75 70.24,169.4 70.19,170.05 70.17,170.37 70.13,170.69 70.08,171.02 70.05,171.18 70.01,171.34 69.97,171.5 69.9,171.65 69.9,171.83 69.67,171.93 L 69.67,171.83 Z M 69.67,171.83" />
        </g>
        <g id="jonnieSideRight6-group146">
            <path id="jonnieSideRight6-bezier145" stroke="none" fill="rgb(0, 0, 0)" d="M 75.88,111.6 C 77.27,109.73 78.6,107.83 79.84,105.88 80.46,104.9 80.97,103.87 81.59,102.91 82.21,101.94 82.81,100.99 83.37,99.95 L 83.47,99.98 C 83.43,101.19 82.98,102.34 82.47,103.4 81.95,104.47 81.2,105.39 80.5,106.33 79.1,108.21 77.57,109.98 75.95,111.66 L 75.88,111.6 Z M 75.88,111.6" />
        </g>
        <g id="jonnieSideRight6-group147">
            <path id="jonnieSideRight6-bezier146" stroke="none" fill="rgb(0, 0, 0)" d="M 51.61,166.24 C 51.87,167 52.52,167.62 53.26,167.62 53.97,167.62 54.81,167.39 55.43,167.03 55.74,166.84 56.01,166.6 56.15,166.33 56.31,166.06 56.36,165.83 56.37,165.48 56.39,164.87 56.16,164.14 55.38,163.87 L 55.37,163.77 C 55.81,163.59 56.35,163.76 56.72,164.1 57.09,164.44 57.31,164.93 57.37,165.44 57.45,165.9 57.29,166.52 56.96,166.91 56.62,167.31 56.21,167.56 55.79,167.75 54.93,168.09 54.11,168.22 53.19,168.11 52.24,167.94 51.64,167.08 51.51,166.26 L 51.61,166.24 Z M 51.61,166.24" />
        </g>
        <g id="jonnieSideRight6-group148">
            <path id="jonnieSideRight6-bezier147" stroke="none" fill="rgb(0, 0, 0)" d="M 52.79,169.54 C 52.99,170.04 53.02,170.52 53.22,170.96 53.38,171.41 53.7,171.76 54.06,171.65 54.94,171.41 55.9,171.05 56.73,170.61 57.55,170.17 58.32,169.51 58.54,168.92 58.56,168.84 58.58,168.79 58.59,168.67 L 58.63,168.3 C 58.66,168.04 58.69,167.8 58.73,167.55 58.77,167.31 58.83,167.06 58.85,166.84 58.89,166.61 58.89,166.45 58.67,166.3 L 58.7,166.21 C 58.83,166.21 58.99,166.26 59.1,166.39 59.21,166.52 59.26,166.66 59.31,166.8 59.38,167.07 59.41,167.32 59.43,167.57 L 59.51,168.3 59.53,168.67 C 59.54,168.8 59.54,169 59.51,169.15 59.37,169.83 58.9,170.28 58.47,170.6 58.02,170.91 57.54,171.13 57.07,171.33 56.1,171.71 55.17,171.97 54.12,172.15 53.81,172.18 53.46,172.03 53.27,171.79 53.09,171.56 53,171.3 52.93,171.05 52.79,170.56 52.81,170.03 52.71,169.59 L 52.79,169.54 Z M 52.79,169.54" />
        </g>
        <g id="jonnieSideRight6-group149">
            <path id="jonnieSideRight6-bezier148" stroke="none" fill="rgb(0, 0, 0)" d="M 55.54,173.1 C 55.82,173.47 56.21,173.8 56.63,173.88 57.04,173.96 57.45,173.7 57.87,173.49 58.68,173.04 59.45,172.45 60.01,171.77 60.14,171.59 60.26,171.41 60.33,171.24 60.37,171.15 60.4,171.06 60.41,170.98 L 60.47,170.64 C 60.56,170.18 60.63,169.72 60.73,169.27 60.82,168.82 60.9,168.36 60.94,167.92 60.95,167.5 61.02,167.03 60.56,166.86 L 60.56,166.76 C 60.83,166.67 61.17,166.85 61.33,167.09 61.5,167.34 61.59,167.61 61.64,167.87 61.76,168.39 61.75,168.9 61.72,169.4 61.68,169.91 61.57,170.39 61.43,170.87 L 61.31,171.24 C 61.26,171.39 61.19,171.52 61.12,171.65 60.97,171.9 60.79,172.1 60.61,172.29 59.86,173.04 59,173.54 58.08,173.94 57.85,174.03 57.61,174.11 57.36,174.17 57.12,174.24 56.81,174.27 56.56,174.17 56.04,173.98 55.7,173.58 55.46,173.15 L 55.54,173.1 Z M 55.54,173.1" />
        </g>
        <g id="jonnieSideRight6-group150">
            <path id="jonnieSideRight6-bezier149" stroke="none" fill="rgb(0, 0, 0)" d="M 59.12,174.83 C 59.6,175.04 60.11,175.2 60.62,175.25 61.12,175.31 61.65,175.2 61.81,174.82 62.23,173.88 62.67,172.89 63.03,171.91 63.38,170.94 63.65,169.88 63.72,169.03 63.74,168.87 63.67,168.57 63.66,168.29 63.65,168.01 63.64,167.74 63.65,167.47 63.65,167.23 63.64,166.93 63.61,166.83 63.67,166.71 63.32,166.75 63.09,166.86 L 63.03,166.77 C 63.12,166.67 63.22,166.56 63.36,166.48 63.47,166.4 63.75,166.34 63.94,166.52 64.23,166.84 64.25,167.12 64.34,167.38 L 64.53,168.15 C 64.58,168.4 64.67,168.61 64.72,168.99 64.77,170.28 64.2,171.23 63.76,172.22 63.29,173.21 62.78,174.12 62.23,175.08 62.05,175.36 61.73,175.54 61.43,175.59 61.13,175.64 60.84,175.6 60.57,175.54 60.03,175.42 59.53,175.19 59.07,174.92 L 59.12,174.83 Z M 59.12,174.83" />
        </g>
        <g id="jonnieSideRight6-group151">
            <path id="jonnieSideRight6-bezier150" stroke="none" fill="rgb(0, 0, 0)" d="M 94.55,69.49 C 96.09,74.6 97.7,79.7 99.33,84.78 100.15,87.32 100.98,89.86 101.87,92.37 102.31,93.63 102.77,94.88 103.25,96.12 103.73,97.34 104.21,98.62 104.81,99.69 L 104.87,99.8 104.88,99.89 C 105.17,101.94 105.32,104 105.68,106.01 105.84,107.02 106.03,108.02 106.38,108.96 106.71,109.88 107.24,110.86 108.26,111.1 L 108.24,111.2 C 107.71,111.17 107.19,110.88 106.82,110.49 106.45,110.1 106.16,109.64 105.93,109.16 105.48,108.19 105.19,107.17 104.94,106.16 104.49,104.12 104.17,102.07 103.87,100.03 L 103.94,100.23 C 103.21,98.98 102.79,97.73 102.32,96.46 101.87,95.2 101.46,93.92 101.05,92.65 100.25,90.09 99.47,87.53 98.72,84.97 97.21,79.84 95.82,74.68 94.45,69.52 L 94.55,69.49 Z M 94.55,69.49" />
        </g>
        <g id="jonnieSideRight6-group152">
            <path id="jonnieSideRight6-bezier151" stroke="none" fill="rgb(0, 0, 0)" d="M 110.16,112.34 C 111.99,114.12 113.89,115.83 115.85,117.46 117.82,119.06 119.85,120.66 122.09,121.8 124.46,122.71 126.72,124.03 128.92,125.32 131.12,126.62 133.29,127.99 135.43,129.38 137.58,130.77 139.71,132.19 141.8,133.67 142.85,134.42 143.89,135.17 144.9,135.96 145.9,136.8 146.92,137.53 147.8,138.66 149.15,140.62 151.72,141.6 153.59,143.46 154.06,143.93 154.49,144.44 154.84,145.01 155.2,145.59 155.41,146.2 155.69,146.76 155.96,147.33 156.24,147.9 156.55,148.46 L 157.01,149.31 C 157.14,149.58 157.34,149.94 157.17,150.27 L 157.08,150.24 C 157.18,149.95 156.99,149.67 156.83,149.41 L 156.3,148.61 C 155.95,148.08 155.61,147.53 155.29,146.97 154.96,146.41 154.71,145.82 154.35,145.33 154,144.83 153.58,144.38 153.12,143.97 152.18,143.17 151.11,142.51 150.02,141.82 148.96,141.12 147.81,140.38 146.99,139.25 146.3,138.36 145.22,137.56 144.26,136.78 143.26,135.99 142.25,135.22 141.22,134.47 139.18,132.95 137.09,131.48 134.99,130.05 132.88,128.61 130.74,127.22 128.58,125.87 126.4,124.53 124.25,123.22 121.87,122.24 119.58,121 117.6,119.35 115.66,117.69 113.73,116 111.88,114.24 110.09,112.41 L 110.16,112.34 Z M 110.16,112.34" />
        </g>
        <g id="jonnieSideRight6-group153">
            <path id="jonnieSideRight6-bezier152" stroke="none" fill="rgb(0, 0, 0)" d="M 158.65,152.08 C 159.28,152.24 159.65,151.63 159.77,151.08 159.93,150.52 159.97,149.91 159.97,149.3 159.98,148.7 159.85,148.11 159.86,147.52 159.84,146.93 159.89,146.31 159.79,145.74 L 159.84,145.65 C 160.21,145.82 160.38,146.15 160.53,146.45 160.69,146.76 160.78,147.08 160.85,147.41 161,148.06 160.87,148.73 160.77,149.37 160.66,150.01 160.52,150.65 160.24,151.26 160.08,151.56 159.89,151.86 159.6,152.07 159.31,152.29 158.91,152.34 158.6,152.18 L 158.65,152.08 Z M 158.65,152.08" />
        </g>
        <g id="jonnieSideRight6-group154">
            <path id="jonnieSideRight6-bezier153" stroke="none" fill="rgb(0, 0, 0)" d="M 161.23,151.09 C 161.71,150.8 162.13,150.39 162.35,149.93 162.59,149.46 162.59,149 162.4,148.5 162.23,147.94 162.06,147.28 162.15,146.71 L 162.26,145.93 C 162.29,145.72 162.29,145.53 162.05,145.3 L 162.08,145.21 C 162.24,145.19 162.42,145.21 162.59,145.32 162.76,145.43 162.89,145.61 162.95,145.78 163.09,146.12 163.11,146.43 163.15,146.71 163.21,147.28 163.1,147.77 163.18,148.33 163.31,148.93 163.18,149.71 162.77,150.19 162.36,150.69 161.82,151 161.27,151.18 L 161.23,151.09 Z M 161.23,151.09" />
        </g>
        <g id="jonnieSideRight6-group155">
            <path id="jonnieSideRight6-bezier154" stroke="none" fill="rgb(0, 0, 0)" d="M 163.92,150.75 C 164.31,150.46 164.58,150.02 164.71,149.58 164.86,149.14 164.9,148.67 164.86,148.2 164.82,147.73 164.63,147.29 164.6,146.81 164.55,146.34 164.51,145.84 164.58,145.27 L 164.67,145.24 C 165.11,145.61 165.38,146.08 165.57,146.59 165.76,147.1 165.71,147.67 165.65,148.22 165.59,148.76 165.44,149.31 165.16,149.79 164.87,150.26 164.46,150.65 163.96,150.84 L 163.92,150.75 Z M 163.92,150.75" />
        </g>
        <g id="jonnieSideRight6-group156">
            <path id="jonnieSideRight6-bezier155" stroke="none" fill="rgb(0, 0, 0)" d="M 166.7,148.55 C 167.02,147.19 167.28,145.76 167,144.39 166.86,143.7 166.72,143.01 166.44,142.37 166.17,141.74 165.76,141.17 165.28,140.67 164.32,139.65 163.1,138.96 161.87,138.26 160.64,137.58 159.38,136.94 158.12,136.29 155.61,135 153.06,133.69 150.75,132.02 148.42,130.4 146.16,128.69 143.95,126.9 141.75,125.11 139.59,123.26 137.6,121.19 137.11,120.67 136.63,120.12 136.18,119.55 L 134.87,117.9 C 133.99,116.81 133.08,115.73 132.15,114.68 130.31,112.54 128.38,110.49 126.34,108.56 125.32,107.59 124.26,106.67 123.14,105.83 122.02,104.99 120.85,104.18 119.49,103.8 L 119.51,103.71 C 120.93,103.97 122.2,104.7 123.4,105.45 124.6,106.24 125.72,107.12 126.8,108.04 128.97,109.89 130.96,111.93 132.9,114.01 133.85,115.07 134.78,116.15 135.68,117.25 136.13,117.8 136.56,118.37 136.99,118.93 137.41,119.47 137.86,120 138.33,120.52 140.21,122.58 142.32,124.46 144.46,126.29 146.62,128.1 148.85,129.84 151.13,131.49 153.38,133.18 155.86,134.51 158.36,135.85 159.6,136.52 160.84,137.2 162.07,137.91 163.28,138.64 164.54,139.39 165.5,140.47 165.98,141 166.4,141.61 166.68,142.28 166.95,142.95 167.08,143.66 167.2,144.35 167.45,145.79 167.15,147.22 166.8,148.58 L 166.7,148.55 Z M 166.7,148.55" />
        </g>
        <g id="jonnieSideRight6-group157">
            <path id="jonnieSideRight6-bezier156" stroke="none" fill="rgb(0, 0, 0)" d="M 118.33,102.13 C 118.14,99.76 117.85,97.39 117.52,95.04 117.2,92.68 116.83,90.33 116.37,88 115.92,85.67 115.33,83.38 114.82,81.07 114.32,78.75 113.71,76.47 113.12,74.15 L 113.21,74.11 C 114.34,76.23 115.11,78.52 115.79,80.82 116.44,83.13 116.81,85.5 117.16,87.87 117.88,92.6 118.31,97.36 118.42,102.13 L 118.33,102.13 Z M 118.33,102.13" />
        </g>
        <g id="jonnieSideRight6-group158">
            <path id="jonnieSideRight6-bezier157" stroke="none" fill="rgb(0, 0, 0)" d="M 111.21,55.1 C 113.8,58.3 116.16,61.69 118.19,65.29 119.19,67.1 120.11,68.97 120.82,70.93 121.18,71.9 121.48,72.9 121.7,73.93 121.93,74.96 122.02,76.02 122.1,77.04 122.37,81.19 122.3,85.32 122.01,89.44 121.67,93.55 121.26,97.65 120.55,101.72 L 120.45,101.71 121.01,89.38 C 121.17,85.28 121.45,81.17 121.3,77.09 121.26,73.01 119.62,69.16 117.75,65.53 115.86,61.9 113.61,58.43 111.13,55.16 L 111.21,55.1 Z M 111.21,55.1" />
        </g>
        <g id="jonnieSideRight6-group211">
            <path id="jonnieSideRight6-bezier210" stroke="none" fill="rgb(0, 0, 0)" d="M 60.52,266.7 C 62.18,267.06 63.86,267.38 65.53,267.65 66.36,267.78 67.21,267.8 68.02,267.99 68.85,268.17 69.65,268.35 70.5,268.62 L 70.5,268.72 C 69.65,269.01 68.75,269.03 67.89,268.98 67.02,268.94 66.19,268.65 65.36,268.43 63.7,267.98 62.08,267.44 60.49,266.8 L 60.52,266.7 Z M 60.52,266.7" />
        </g>
        <g id="jonnieSideRight6-group212">
            <path id="jonnieSideRight6-bezier211" stroke="none" fill="rgb(0, 0, 0)" d="M 109.33,270.45 C 110.73,270.28 112.14,270.13 113.53,269.99 114.23,269.92 114.93,269.76 115.62,269.8 116.33,269.82 117.02,269.9 117.74,270.04 L 117.76,270.13 C 117.1,270.55 116.38,270.68 115.68,270.8 114.98,270.91 114.27,270.81 113.56,270.79 112.15,270.75 110.74,270.67 109.33,270.55 L 109.33,270.45 Z M 109.33,270.45" />
        </g>
        <g id="jonnieSideRight6-group213">
            <path id="jonnieSideRight6-bezier212" stroke="none" fill="rgb(0, 0, 0)" d="M 92.03,47.87 C 93.47,48.68 94.95,49.43 96.43,50.16 97.91,50.89 99.4,51.6 100.91,52.24 102.43,52.87 103.98,53.4 105.51,53.93 106.27,54.19 107.04,54.41 107.82,54.56 108.58,54.67 109.42,54.75 110.04,54.22 L 110.12,54.28 C 109.92,54.68 109.49,54.93 109.07,55.08 108.64,55.2 108.2,55.25 107.76,55.25 106.89,55.26 106.04,55.09 105.22,54.88 103.58,54.46 102.07,53.71 100.58,52.97 97.59,51.49 94.74,49.79 91.97,47.96 L 92.03,47.87 Z M 92.03,47.87" />
        </g>
        <g id="jonnieSideRight6-group220">
            <path id="jonnieSideRight6-bezier219" stroke="none" fill="rgb(0, 0, 0)" d="M 100.05,84.89 C 102.44,84.31 104.82,83.7 107.18,83.05 108.36,82.72 109.51,82.29 110.7,82.03 111.88,81.75 113.06,81.49 114.29,81.27 L 114.33,81.36 C 113.31,82.1 112.14,82.58 110.97,82.99 109.8,83.4 108.57,83.58 107.37,83.83 104.95,84.31 102.52,84.69 100.07,84.99 L 100.05,84.89 Z M 100.05,84.89" />
        </g>
        <g id="jonnieSideRight6-group221">
            <path id="jonnieSideRight6-bezier220" stroke="none" fill="rgb(0, 0, 0)" d="M 75.38,80.51 C 75.94,80.45 76.49,80.44 77.04,80.46 77.32,80.47 77.62,80.41 77.88,80.55 78.12,80.69 78.4,80.87 78.53,81.27 L 78.47,81.35 C 78.13,81.47 77.89,81.53 77.62,81.52 77.35,81.52 77.13,81.34 76.88,81.24 76.38,81.05 75.87,80.84 75.37,80.61 L 75.38,80.51 Z M 75.38,80.51" />
        </g>
        <g id="jonnieSideRight6-group223">
            <path id="jonnieSideRight6-bezier222" stroke="none" fill="rgb(0, 0, 0)" d="M 117.74,141.22 C 117.63,143.78 117.55,146.35 117.59,148.91 117.6,149.55 117.62,150.19 117.67,150.82 117.73,151.47 117.79,152.06 118.07,152.64 118.56,153.8 119.17,154.94 119.77,156.06 120.37,157.19 120.99,158.32 121.63,159.43 122.24,160.6 122.75,161.76 123.27,162.94 124.3,165.3 125.24,167.71 126.07,170.15 126.91,172.59 127.65,175.06 128.28,177.57 128.89,180.08 129.42,182.6 129.58,185.24 129.55,187.82 129.8,190.34 130.01,192.9 L 130.73,200.57 130.63,200.58 C 130.11,198.06 129.69,195.53 129.32,192.98 128.96,190.44 128.65,187.85 128.59,185.29 128.51,184.05 128.31,182.79 128.08,181.54 127.86,180.29 127.61,179.04 127.32,177.79 126.76,175.31 126.08,172.84 125.31,170.4 124.53,167.97 123.65,165.56 122.68,163.2 122.18,162.03 121.69,160.82 121.12,159.71 120.51,158.58 119.91,157.44 119.33,156.3 118.75,155.14 118.17,154 117.69,152.79 117.42,152.19 117.35,151.47 117.32,150.85 117.29,150.2 117.28,149.56 117.29,148.91 117.31,146.34 117.46,143.77 117.64,141.21 L 117.74,141.22 Z M 117.74,141.22" />
        </g>
    </g>
</svg>
