<?xml version="1.0" encoding="UTF-8"?>
<!DOCTYPE svg PUBLIC "-//W3C//DTD SVG 1.1//EN" "http://www.w3.org/Graphics/SVG/1.1/DTD/svg11.dtd">
<svg version="1.1" xmlns="http://www.w3.org/2000/svg" xmlns:xlink="http://www.w3.org/1999/xlink" width="200" height="100"  xml:space="preserve" id="jonnieTop1">
    <!-- Generated by PaintCode - http://www.paintcodeapp.com -->
    <g id="jonnieTop1-group2">
        <g id="jonnieTop1-group224">
            <path id="jonnieTop1-bezier223" stroke="none" fill="rgb(0, 0, 0)" d="M 86.55,43.24 C 86.7,38.82 88.72,34.52 91.99,31.52 95.24,28.5 99.72,26.84 104.19,26.98 108.65,27.1 113.06,29.03 116.16,32.29 119.29,35.5 121.06,40.03 120.89,44.54 120.78,49.06 118.72,53.49 115.36,56.53 112,59.59 107.43,61.23 102.89,61.04 100.64,60.92 98.39,60.38 96.35,59.43 94.31,58.47 92.47,57.09 90.97,55.44 87.95,52.14 86.32,47.65 86.55,43.24 Z M 86.65,43.24 C 86.59,45.44 86.97,47.64 87.78,49.67 88.59,51.7 89.83,53.54 91.36,55.07 94.42,58.15 98.65,59.94 102.94,60.04 107.2,60.22 111.53,58.68 114.69,55.8 117.91,52.97 119.92,48.82 120.09,44.51 120.3,40.21 118.67,35.87 115.69,32.73 112.74,29.57 108.51,27.65 104.17,27.48 99.83,27.24 95.41,28.77 92.13,31.68 90.5,33.13 89.14,34.91 88.2,36.89 87.26,38.87 86.73,41.05 86.65,43.24 Z M 86.65,43.24" />
        </g>
        <g id="jonnieTop1-group225">
            <path id="jonnieTop1-bezier224" stroke="none" fill="rgb(0, 0, 0)" d="M 121.04,42.46 C 121.6,42.61 122.15,42.81 122.67,43.11 123.16,43.43 123.73,43.86 123.87,44.64 123.94,45.01 123.85,45.46 123.61,45.78 123.37,46.11 123.06,46.31 122.74,46.42 122.11,46.62 121.48,46.62 120.88,46.38 L 120.88,46.28 C 121.41,45.97 121.92,45.76 122.33,45.5 122.73,45.24 123.05,45.11 123.08,44.71 123.1,44.32 122.78,43.86 122.38,43.51 121.98,43.14 121.5,42.82 121,42.56 L 121.04,42.46 Z M 121.04,42.46" />
        </g>
        <g id="jonnieTop1-group226">
            <path id="jonnieTop1-bezier225" stroke="none" fill="rgb(0, 0, 0)" d="M 110.03,86.31 C 110.98,84.49 111.93,82.68 112.85,80.86 113.31,79.95 113.68,78.99 114.19,78.13 L 114.96,76.82 C 115.08,76.6 115.21,76.39 115.32,76.17 115.42,75.97 115.58,75.7 115.45,75.61 L 115.45,75.51 C 115.53,75.49 115.66,75.54 115.69,75.63 115.74,75.71 115.75,75.79 115.76,75.86 115.78,76.01 115.77,76.15 115.76,76.29 115.73,76.57 115.68,76.83 115.61,77.09 115.48,77.6 115.29,78.09 115.09,78.57 114.69,79.53 114.09,80.37 113.55,81.25 112.46,83 111.31,84.69 110.12,86.36 L 110.03,86.31 Z M 110.03,86.31" />
        </g>
        <g id="jonnieTop1-group227">
            <path id="jonnieTop1-bezier226" stroke="none" fill="rgb(0, 0, 0)" d="M 87.46,60.44 C 88.39,63.54 89.32,66.63 90.19,69.75 90.65,71.3 91,72.89 91.58,74.38 92.19,75.87 92.59,77.4 92.82,79.06 L 92.73,79.1 C 91.68,77.78 91.03,76.24 90.72,74.64 90.39,73.03 90.03,71.46 89.65,69.89 L 87.37,60.47 87.46,60.44 Z M 87.46,60.44" />
        </g>
        <g id="jonnieTop1-group228">
            <path id="jonnieTop1-bezier227" stroke="none" fill="rgb(0, 0, 0)" d="M 111.82,76.76 C 112.73,75.71 113.14,74.32 113.44,72.98 113.74,71.62 113.86,70.24 113.9,68.85 113.93,67.46 113.81,66.07 113.8,64.68 113.8,63.28 113.78,61.89 113.87,60.46 L 113.97,60.44 C 114.42,61.81 114.66,63.21 114.8,64.63 114.94,66.05 114.84,67.48 114.7,68.9 114.56,70.32 114.33,71.73 113.92,73.1 113.48,74.45 112.94,75.83 111.89,76.83 L 111.82,76.76 Z M 111.82,76.76" />
        </g>
        <g id="jonnieTop1-group229">
            <path id="jonnieTop1-bezier228" stroke="none" fill="rgb(0, 0, 0)" d="M 81.69,14.76 C 81.69,15.22 81.73,15.67 81.82,16.11 81.92,16.55 82.04,17 82.13,17.46 82.3,18.37 82.41,19.29 82.5,20.21 L 82.91,25.71 C 83.08,27.53 83.36,29.32 83.67,31.1 83.98,32.87 84.44,34.61 85.18,36.3 L 85.09,36.35 C 83.87,34.93 83.15,33.12 82.69,31.3 82.24,29.48 82.17,27.6 82.11,25.76 L 82,20.24 C 81.98,19.33 81.94,18.41 81.83,17.51 81.78,17.06 81.69,16.61 81.62,16.15 81.56,15.69 81.56,15.21 81.59,14.76 L 81.69,14.76 Z M 81.69,14.76" />
        </g>
        <g id="jonnieTop1-group230">
            <path id="jonnieTop1-bezier229" stroke="none" fill="rgb(0, 0, 0)" d="M 112.8,27.34 C 111.42,25.2 110,23.08 108.5,21.03 107,18.97 105.43,16.97 103.64,15.2 101.85,13.43 99.77,12.02 97.47,11.15 95.17,10.24 92.63,10.01 90.09,9.72 L 90.09,9.62 C 92.64,9.34 95.27,9.41 97.81,10.21 100.35,11.02 102.47,12.76 104.21,14.64 105.98,16.53 107.49,18.62 108.91,20.74 110.31,22.88 111.62,25.08 112.89,27.29 L 112.8,27.34 Z M 112.8,27.34" />
        </g>
        <g id="jonnieTop1-group231">
            <path id="jonnieTop1-bezier230" stroke="none" fill="rgb(0, 0, 0)" d="M 95.03,83.46 C 95.75,84.02 96.62,84.4 97.47,84.75 98.33,85.1 99.2,85.4 100.09,85.67 101.86,86.22 103.66,86.67 105.47,87.06 107.28,87.45 109.11,87.72 110.92,88.13 112.73,88.54 114.55,88.95 116.34,89.5 L 116.33,89.6 C 114.45,89.59 112.59,89.39 110.74,89.11 108.89,88.83 107.08,88.33 105.28,87.84 103.47,87.34 101.68,86.8 99.92,86.14 99.05,85.8 98.19,85.44 97.35,85.03 96.51,84.6 95.67,84.17 94.96,83.53 L 95.03,83.46 Z M 95.03,83.46" />
        </g>
        <g id="jonnieTop1-group232">
            <path id="jonnieTop1-bezier231" stroke="none" fill="rgb(0, 0, 0)" d="M 116.36,89.51 C 117.53,90.25 118.88,90.67 120.23,90.97 121.58,91.26 122.96,91.4 124.35,91.44 127.12,91.51 129.87,91.09 132.6,90.54 138.08,89.54 143.58,88.66 149.11,87.93 154.64,87.22 160.19,86.51 165.82,86.62 167.24,86.65 168.64,86.84 170,86.89 171.37,86.96 172.75,86.93 174.11,86.82 175.47,86.69 176.84,86.46 178.1,85.95 178.72,85.7 179.33,85.38 179.79,84.9 180.26,84.43 180.51,83.74 180.34,83.06 L 180.44,83.04 C 180.68,83.72 180.48,84.52 180,85.08 179.54,85.65 178.92,86.05 178.29,86.37 176.99,86.99 175.59,87.3 174.19,87.51 172.79,87.72 171.38,87.77 169.97,87.75 168.54,87.74 167.18,87.6 165.8,87.62 160.29,87.64 154.73,88.12 149.21,88.72 143.68,89.35 138.17,90.14 132.68,91.03 129.94,91.52 127.13,91.88 124.33,91.73 122.94,91.67 121.54,91.49 120.18,91.16 118.83,90.82 117.48,90.37 116.3,89.59 L 116.36,89.51 Z M 116.36,89.51" />
        </g>
        <g id="jonnieTop1-group233">
            <path id="jonnieTop1-bezier232" stroke="none" fill="rgb(0, 0, 0)" d="M 169.69,79.34 C 171.04,79.67 172.41,79.94 173.79,80.05 174.48,80.1 175.18,80.12 175.84,79.98 176.16,79.91 176.49,79.79 176.7,79.57 176.8,79.45 176.85,79.35 176.9,79.17 176.92,79.04 176.9,78.89 176.84,78.76 176.57,78.21 175.9,77.88 175.29,77.59 174.67,77.31 174.02,77.07 173.36,76.83 172.71,76.58 172.05,76.35 171.41,76 171.26,75.93 171.07,75.79 170.96,75.72 170.88,75.65 170.83,75.65 170.79,75.64 170.73,75.64 170.67,75.62 170.6,75.63 170.33,75.65 170.02,75.79 169.72,75.95 168.53,76.6 167.37,77.43 166.13,78.08 164.89,78.75 163.58,79.31 162.22,79.72 160.87,80.13 159.47,80.39 158.05,80.51 156.64,80.63 155.23,80.61 153.83,80.58 148.24,80.42 142.68,79.99 137.13,79.6 134.36,79.37 131.58,79.21 128.81,79.13 127.42,79.1 126.04,79.09 124.66,79.19 123.97,79.23 123.28,79.3 122.61,79.43 121.94,79.57 121.25,79.76 120.76,80.23 L 120.68,80.17 C 121.16,79.62 121.87,79.37 122.54,79.16 123.22,78.97 123.91,78.84 124.61,78.74 126.01,78.55 127.41,78.48 128.81,78.44 131.61,78.36 134.4,78.48 137.19,78.6 142.77,78.87 148.31,79.51 153.86,79.78 155.25,79.84 156.63,79.88 158,79.79 159.37,79.69 160.72,79.47 162.04,79.1 163.36,78.72 164.64,78.2 165.86,77.57 167.1,76.95 168.23,76.18 169.49,75.5 169.82,75.35 170.16,75.19 170.58,75.16 170.68,75.15 170.79,75.17 170.91,75.19 171.04,75.22 171.15,75.28 171.21,75.33 171.39,75.45 171.48,75.52 171.64,75.61 172.21,75.95 172.86,76.2 173.51,76.46 174.15,76.72 174.81,76.97 175.44,77.28 176.06,77.6 176.76,77.91 177.12,78.64 177.2,78.83 177.22,79.04 177.17,79.25 177.14,79.41 177.03,79.64 176.9,79.77 176.61,80.05 176.24,80.16 175.89,80.23 175.18,80.35 174.47,80.32 173.77,80.25 172.38,80.11 171.01,79.81 169.66,79.43 L 169.69,79.34 Z M 169.69,79.34" />
        </g>
        <g id="jonnieTop1-group234">
            <path id="jonnieTop1-bezier233" stroke="none" fill="rgb(0, 0, 0)" d="M 122.72,78.06 C 121.36,77.37 119.97,76.72 118.57,76.18 117.87,75.91 117.13,75.75 116.46,75.48 115.77,75.22 115.12,74.96 114.34,74.81 L 114.32,74.71 C 115.07,74.3 115.96,74.37 116.73,74.52 117.53,74.68 118.21,75.09 118.9,75.45 120.28,76.18 121.56,77.03 122.78,77.98 L 122.72,78.06 Z M 122.72,78.06" />
        </g>
        <g id="jonnieTop1-group235">
            <path id="jonnieTop1-bezier234" stroke="none" fill="rgb(0, 0, 0)" d="M 120.9,40.15 L 123.91,39.03 C 124.41,38.84 124.87,38.57 125.38,38.46 125.88,38.33 126.38,38.27 126.95,38.18 L 127.01,38.26 C 126.73,38.82 126.2,39.14 125.72,39.4 125.22,39.66 124.66,39.69 124.13,39.8 123.07,40.01 122,40.15 120.92,40.25 L 120.9,40.15 Z M 120.9,40.15" />
        </g>
        <g id="jonnieTop1-group236">
            <path id="jonnieTop1-bezier235" stroke="none" fill="rgb(0, 0, 0)" d="M 126.11,36.29 C 126.51,35.62 126.74,34.86 126.86,34.1 126.99,33.34 127,32.57 126.92,31.81 126.85,31.05 126.6,30.33 126.47,29.58 126.34,28.83 126.18,28.07 126.1,27.24 L 126.19,27.2 C 126.77,27.81 127.16,28.55 127.44,29.32 127.72,30.11 127.74,30.96 127.72,31.78 127.7,33.43 127.24,35.11 126.19,36.36 L 126.11,36.29 Z M 126.11,36.29" />
        </g>
        <g id="jonnieTop1-group237">
            <path id="jonnieTop1-bezier236" stroke="none" fill="rgb(0, 0, 0)" d="M 125.47,23.77 C 123.17,23.41 120.87,23.04 118.58,22.65 117.43,22.45 116.27,22.34 115.15,22.03 114.02,21.72 112.91,21.38 111.82,20.88 L 111.84,20.78 C 113.04,20.75 114.2,20.88 115.35,21.05 116.5,21.21 117.62,21.58 118.74,21.86 121,22.43 123.25,23.03 125.49,23.67 L 125.47,23.77 Z M 125.47,23.77" />
        </g>
        <g id="jonnieTop1-group238">
            <path id="jonnieTop1-bezier237" stroke="none" fill="rgb(0, 0, 0)" d="M 143.83,25.12 C 141.4,25.2 138.99,25.04 136.57,24.9 135.37,24.82 134.15,24.82 132.96,24.62 131.77,24.42 130.58,24.18 129.42,23.77 L 129.43,23.67 C 130.66,23.53 131.87,23.56 133.07,23.62 134.28,23.68 135.46,23.94 136.66,24.1 L 140.24,24.6 C 141.43,24.76 142.63,24.94 143.83,25.02 L 143.83,25.12 143.83,25.12 Z M 143.83,25.12" />
        </g>
        <g id="jonnieTop1-group239">
            <path id="jonnieTop1-bezier238" stroke="none" fill="rgb(0, 0, 0)" d="M 141.01,33.72 C 141.09,33.09 141.08,32.45 141.06,31.82 141.04,31.19 141,30.56 140.93,29.93 140.88,29.3 140.71,28.68 140.74,28.05 140.75,27.42 140.79,26.79 140.94,26.12 L 141.04,26.1 C 141.43,26.68 141.61,27.33 141.73,27.97 141.86,28.61 141.76,29.27 141.73,29.91 141.66,31.2 141.53,32.51 141.11,33.74 L 141.01,33.72 Z M 141.01,33.72" />
        </g>
        <g id="jonnieTop1-group240">
            <path id="jonnieTop1-bezier239" stroke="none" fill="rgb(0, 0, 0)" d="M 129.72,37.5 C 131.76,36.86 133.81,36.23 135.86,35.63 136.89,35.33 137.89,34.94 138.94,34.75 140,34.55 141.05,34.39 142.15,34.37 L 142.18,34.46 C 141.22,35.02 140.21,35.39 139.19,35.72 138.17,36.05 137.1,36.19 136.05,36.41 133.95,36.84 131.85,37.23 129.74,37.6 L 129.72,37.5 Z M 129.72,37.5" />
        </g>
        <g id="jonnieTop1-group241">
            <path id="jonnieTop1-bezier240" stroke="none" fill="rgb(0, 0, 0)" d="M 142.16,34.37 C 145.43,33.93 148.74,33.65 152.06,33.8 155.37,34.18 158.62,34.41 161.93,34.54 165.22,34.68 168.52,34.67 171.79,34.61 172.61,34.58 173.42,34.56 174.23,34.51 174.63,34.48 175.03,34.44 175.42,34.38 175.79,34.31 176.21,34.21 176.41,34.07 176.46,34.04 176.45,34.03 176.46,34.06 176.47,34.09 176.47,33.88 176.47,33.82 176.47,33.64 176.46,33.44 176.43,33.27 176.37,32.91 176.23,32.6 175.94,32.4 175.35,31.99 174.46,31.94 173.66,31.82 L 173.66,31.72 C 174.08,31.69 174.49,31.67 174.91,31.69 175.33,31.71 175.78,31.75 176.2,31.98 176.64,32.21 176.93,32.68 177.05,33.12 177.11,33.35 177.15,33.57 177.17,33.79 177.18,33.94 177.2,33.94 177.18,34.18 177.15,34.41 177.01,34.57 176.9,34.66 176.43,35.02 176.01,35.09 175.58,35.2 175.16,35.3 174.74,35.37 174.32,35.43 173.49,35.55 172.65,35.6 171.82,35.63 168.49,35.73 165.19,35.46 161.89,35.24 160.24,35.12 158.59,34.98 156.94,34.8 156.12,34.71 155.3,34.61 154.48,34.48 153.66,34.33 152.86,34.23 152.04,34.16 148.76,33.93 145.45,34.12 142.17,34.47 L 142.16,34.37 Z M 142.16,34.37" />
        </g>
        <g id="jonnieTop1-group242">
            <path id="jonnieTop1-bezier241" stroke="none" fill="rgb(0, 0, 0)" d="M 175.78,29.72 C 175.56,28.54 175.19,27.38 174.69,26.29 174.19,25.2 173.53,24.17 172.65,23.42 171.78,22.65 170.65,22.24 169.51,22.3 168.95,22.32 168.36,22.46 167.76,22.57 L 165.97,22.91 C 163.59,23.38 161.21,23.89 158.78,24.14 157.57,24.25 156.35,24.35 155.12,24.34 153.9,24.31 152.62,24.29 151.48,23.76 L 151.51,23.67 C 152.1,23.8 152.69,23.81 153.29,23.78 153.89,23.77 154.49,23.72 155.08,23.65 156.27,23.51 157.47,23.35 158.66,23.15 161.04,22.78 163.44,22.48 165.84,22.12 L 167.64,21.85 C 168.23,21.77 168.84,21.65 169.49,21.65 170.79,21.63 172.07,22.17 172.98,23.04 173.9,23.92 174.51,25.03 174.97,26.17 175.41,27.31 175.72,28.5 175.88,29.71 L 175.78,29.72 Z M 175.78,29.72" />
        </g>
        <g id="jonnieTop1-group243">
            <path id="jonnieTop1-bezier242" stroke="none" fill="rgb(0, 0, 0)" d="M 148.31,23.77 C 147.54,23.69 146.78,23.67 146.05,23.72 145.68,23.75 145.34,23.89 144.99,23.87 144.64,23.85 144.31,23.83 143.85,23.76 L 143.8,23.67 C 144.02,23.24 144.44,23 144.84,22.88 145.26,22.74 145.69,22.86 146.08,22.92 146.89,23.05 147.64,23.31 148.34,23.67 L 148.31,23.77 Z M 148.31,23.77" />
        </g>
        <g id="jonnieTop1-group244">
            <path id="jonnieTop1-bezier243" stroke="none" fill="rgb(0, 0, 0)" d="M 87.41,75.43 C 82.52,75.04 77.64,74.4 72.81,73.4 70.4,72.9 67.97,72.37 65.66,71.43 64.52,70.94 63.38,70.42 62.33,69.71 61.31,69.01 60.26,68.13 59.87,66.9 L 59.96,66.86 C 60.28,67.39 60.69,67.82 61.17,68.17 61.64,68.53 62.15,68.84 62.69,69.11 63.75,69.66 64.87,70.11 66.02,70.5 68.3,71.28 70.62,72.02 72.99,72.62 75.36,73.21 77.76,73.71 80.17,74.15 82.57,74.61 84.99,75.01 87.42,75.33 L 87.41,75.43 Z M 87.41,75.43" />
        </g>
        <g id="jonnieTop1-group245">
            <path id="jonnieTop1-bezier244" stroke="none" fill="rgb(0, 0, 0)" d="M 68.05,52.22 C 66.77,52.63 65.5,53.08 64.32,53.65 63.73,53.93 63.21,54.32 62.65,54.6 62.08,54.89 61.56,55.19 60.96,55.58 L 60.88,55.52 C 61.03,54.8 61.54,54.2 62.1,53.76 62.67,53.31 63.37,53.12 64.02,52.9 65.34,52.48 66.68,52.26 68.03,52.12 L 68.05,52.22 Z M 68.05,52.22" />
        </g>
        <g id="jonnieTop1-group246">
            <path id="jonnieTop1-bezier245" stroke="none" fill="rgb(0, 0, 0)" d="M 38.36,54.34 C 39.21,54.62 40.13,54.56 41.02,54.52 41.91,54.46 42.8,54.34 43.69,54.21 L 49.06,53.42 C 50.85,53.16 52.65,52.87 54.47,52.83 56.29,52.79 58.12,52.87 59.92,53.23 L 59.91,53.33 C 58.1,53.52 56.31,53.66 54.53,53.83 52.74,54 50.94,54.06 49.15,54.21 L 43.75,54.71 C 42.84,54.77 41.94,54.82 41.02,54.82 40.12,54.8 39.18,54.78 38.33,54.43 L 38.36,54.34 Z M 38.36,54.34" />
        </g>
        <g id="jonnieTop1-group247">
            <path id="jonnieTop1-bezier246" stroke="none" fill="rgb(0, 0, 0)" d="M 38.67,64.23 C 38.14,62.94 37.85,61.55 37.73,60.15 37.67,59.45 37.56,58.73 37.7,58.03 37.83,57.34 38.04,56.64 38.48,56.03 L 38.57,56.05 C 38.68,56.78 38.69,57.45 38.69,58.12 38.71,58.79 38.56,59.45 38.53,60.13 38.47,61.48 38.52,62.84 38.76,64.2 L 38.67,64.23 Z M 38.67,64.23" />
        </g>
        <g id="jonnieTop1-group248">
            <path id="jonnieTop1-bezier247" stroke="none" fill="rgb(0, 0, 0)" d="M 59.02,69.76 C 55.59,68.88 52.16,68.04 48.72,67.27 47,66.89 45.26,66.6 43.56,66.2 41.84,65.83 40.15,65.34 38.41,65.21 L 38.39,65.11 C 39.27,64.86 40.19,64.89 41.08,64.92 41.98,64.96 42.87,65.08 43.75,65.22 45.51,65.5 47.21,66.01 48.92,66.49 52.33,67.44 55.7,68.51 59.05,69.67 L 59.02,69.76 Z M 59.02,69.76" />
        </g>
        <g id="jonnieTop1-group249">
            <path id="jonnieTop1-bezier248" stroke="none" fill="rgb(0, 0, 0)" d="M 38.41,63.6 C 37.27,63.63 36.13,63.71 35,63.8 34.44,63.85 33.88,63.99 33.31,63.94 32.75,63.9 32.18,63.83 31.59,63.6 L 31.58,63.5 C 32.13,63.18 32.7,63.04 33.27,62.94 33.84,62.85 34.43,62.96 35,63 36.15,63.09 37.3,63.24 38.42,63.5 L 38.41,63.6 Z M 38.41,63.6" />
        </g>
        <g id="jonnieTop1-group250">
            <path id="jonnieTop1-bezier249" stroke="none" fill="rgb(0, 0, 0)" d="M 38.42,55.6 C 37.29,55.82 36.15,55.98 35.01,56.09 34.43,56.15 33.86,56.28 33.28,56.19 32.7,56.1 32.11,55.96 31.58,55.6 L 31.59,55.5 C 32.19,55.32 32.74,55.23 33.31,55.19 33.87,55.13 34.43,55.26 34.99,55.29 L 38.42,55.5 38.42,55.6 Z M 38.42,55.6" />
        </g>
        <g id="jonnieTop1-group251">
            <path id="jonnieTop1-bezier250" stroke="none" fill="rgb(0, 0, 0)" d="M 37,53.23 C 34.4,53.14 31.76,53.27 29.28,53.93 28.06,54.27 26.83,54.77 26.02,55.67 25.62,56.11 25.38,56.66 25.33,57.23 25.26,57.86 25.26,58.49 25.32,59.11 25.45,60.35 25.86,61.55 26.58,62.51 27.31,63.47 28.31,64.19 29.45,64.65 31.74,65.61 34.4,65.6 36.99,65.5 L 37.01,65.6 C 34.48,66.26 31.72,66.47 29.09,65.58 27.8,65.11 26.58,64.26 25.78,63.09 24.98,61.92 24.59,60.53 24.52,59.18 24.48,58.5 24.51,57.82 24.61,57.15 24.7,56.43 25.05,55.74 25.54,55.23 26.55,54.21 27.88,53.76 29.16,53.45 31.76,52.9 34.4,52.91 37,53.13 L 37,53.23 Z M 37,53.23" />
        </g>
        <g id="jonnieTop1-group273">
            <path id="jonnieTop1-bezier269" stroke="none" fill="rgb(0, 0, 0)" d="M 49.33,25.02 L 64.94,24.61 C 67.54,24.52 70.14,24.38 72.74,24.38 L 76.64,24.41 78.59,24.42 C 79.23,24.43 79.9,24.45 80.52,24.36 L 80.55,24.45 C 79.27,24.88 77.97,24.95 76.67,25.1 75.37,25.23 74.06,25.29 72.77,25.38 70.16,25.51 67.56,25.43 64.95,25.4 59.74,25.37 54.54,25.27 49.33,25.12 L 49.33,25.02 Z M 49.33,25.02" />
        </g>
        <g id="jonnieTop1-group274">
            <path id="jonnieTop1-bezier270" stroke="none" fill="rgb(0, 0, 0)" d="M 45.39,18.76 C 43.32,19.89 41.17,20.83 39.01,21.76 36.83,22.66 34.63,23.51 32.36,24.19 31.21,24.52 30.07,24.84 28.8,24.91 28.12,24.92 27.61,24.86 27.02,24.85 26.44,24.82 25.86,24.81 25.29,24.81 24.13,24.79 22.98,24.85 21.86,25.03 21.3,25.12 20.75,25.25 20.24,25.48 19.73,25.7 19.27,26.05 19.09,26.6 L 19,26.58 C 19.02,25.95 19.51,25.42 20.02,25.08 20.54,24.75 21.12,24.53 21.7,24.35 22.87,24.01 24.07,23.89 25.27,23.81 25.86,23.79 26.46,23.79 27.06,23.81 27.63,23.82 28.3,23.92 28.78,23.93 29.87,23.92 31.03,23.68 32.15,23.42 34.4,22.85 36.63,22.1 38.83,21.3 41.02,20.49 43.23,19.68 45.34,18.67 L 45.39,18.76 Z M 45.39,18.76" />
        </g>
        <g id="jonnieTop1-group275">
            <path id="jonnieTop1-bezier271" stroke="none" fill="rgb(0, 0, 0)" d="M 33.7,28.54 C 32.8,29.59 31.59,30.39 30.21,30.81 29.52,31.01 28.78,31.19 28.04,31.05 27.32,30.91 26.63,30.61 26.11,30.09 L 26.14,30 C 26.87,30 27.51,30.06 28.14,30.05 28.76,30.04 29.39,30.13 30.03,30.03 30.67,29.93 31.3,29.74 31.9,29.47 32.51,29.22 33.1,28.89 33.63,28.47 L 33.7,28.54 Z M 33.7,28.54" />
        </g>
        <g id="jonnieTop1-group276">
            <path id="jonnieTop1-bezier272" stroke="none" fill="rgb(0, 0, 0)" d="M 35.67,27.1 C 38.3,27.13 40.93,27.12 43.55,27.05 44.86,27 46.16,26.86 47.45,26.84 48.75,26.79 50.05,26.85 51.31,26.55 L 51.36,26.63 C 50.82,27.08 50.15,27.29 49.5,27.48 48.85,27.66 48.18,27.76 47.52,27.84 46.2,27.99 44.87,27.91 43.55,27.85 40.9,27.75 38.28,27.52 35.66,27.2 L 35.67,27.1 Z M 35.67,27.1" />
        </g>
        <g id="jonnieTop1-group277">
            <path id="jonnieTop1-bezier273" stroke="none" fill="rgb(0, 0, 0)" d="M 87.63,8.81 L 82.3,9.42 C 80.53,9.66 78.73,9.79 77.01,10.21 73.54,11.01 70.09,11.98 66.65,12.95 L 56.37,16 C 54.65,16.47 52.94,16.98 51.23,17.49 50.37,17.74 49.52,18.01 48.68,18.29 48.25,18.43 47.83,18.57 47.42,18.73 47.03,18.9 46.56,19.05 46.3,19.34 L 46.2,19.31 C 46.48,18.87 46.91,18.7 47.3,18.47 47.7,18.25 48.1,18.05 48.51,17.86 49.33,17.5 50.17,17.16 51,16.83 52.68,16.18 54.38,15.61 56.08,15.04 59.49,13.93 62.97,13.06 66.44,12.18 69.92,11.3 73.39,10.43 76.91,9.72 78.69,9.36 80.49,9.3 82.27,9.12 L 87.62,8.71 87.63,8.81 Z M 87.63,8.81" />
        </g>
        <g id="jonnieTop1-group281">
            <path id="jonnieTop1-bezier277" stroke="none" fill="rgb(0, 0, 0)" d="M 70.75,12.02 C 71.06,12.07 71.23,12.32 71.37,12.54 71.5,12.77 71.6,13.01 71.68,13.26 71.83,13.76 71.92,14.28 71.98,14.79 72.08,15.82 72.08,16.85 72.04,17.88 71.99,18.9 71.99,19.94 71.77,20.94 71.55,21.94 71.26,22.93 70.8,23.87 L 70.7,23.85 C 70.62,22.81 70.69,21.8 70.78,20.79 70.86,19.79 71.11,18.81 71.24,17.81 71.38,16.82 71.48,15.82 71.48,14.82 71.49,14.32 71.47,13.82 71.39,13.34 71.3,12.88 71.17,12.3 70.75,12.12 L 70.75,12.02 Z M 70.75,12.02" />
        </g>
        <g id="jonnieTop1-group282">
            <path id="jonnieTop1-bezier278" stroke="none" fill="rgb(0, 0, 0)" d="M 86.6,71.93 C 84.35,72.52 81.95,72.06 79.85,71.17 77.72,70.25 75.82,68.85 74.26,67.14 72.71,65.41 71.52,63.37 70.74,61.18 69.93,59 69.62,56.64 69.47,54.38 69.08,49.81 68.81,45.23 68.97,40.64 69.08,38.35 69.22,36.05 69.55,33.77 69.89,31.51 70.31,29.21 71.26,27.11 L 71.36,27.14 C 70.69,29.32 70.43,31.59 70.24,33.85 70.07,36.12 69.97,38.39 69.97,40.66 69.94,45.21 69.99,49.77 70.26,54.32 70.37,56.61 70.62,58.83 71.35,60.97 72.06,63.1 73.17,65.1 74.64,66.81 76.1,68.52 77.92,69.94 79.97,70.89 82.01,71.82 84.34,72.35 86.57,71.84 L 86.6,71.93 Z M 86.6,71.93" />
        </g>
        <g id="jonnieTop1-group283">
            <path id="jonnieTop1-bezier279" stroke="none" fill="rgb(0, 0, 0)" d="M 80.59,25.85 C 80.27,29.17 80.18,32.52 80.22,35.85 80.25,39.18 80.43,42.51 80.81,45.82 81.19,49.13 81.82,52.39 82.54,55.62 83.25,58.86 84.24,62.03 85.46,65.14 L 85.37,65.19 C 83.62,62.31 82.46,59.1 81.57,55.86 80.7,52.6 80.29,49.24 80.01,45.9 79.73,42.55 79.64,39.2 79.72,35.85 79.81,32.5 80.04,29.16 80.49,25.84 L 80.59,25.85 Z M 80.59,25.85" />
        </g>
        <g id="jonnieTop1-group284">
            <path id="jonnieTop1-bezier280" stroke="none" fill="rgb(0, 0, 0)" d="M 111.88,79.11 C 110.72,80.03 109.3,80.55 107.88,80.9 106.43,81.23 104.95,81.34 103.47,81.32 101.99,81.29 100.5,81.18 99.07,80.79 97.65,80.4 96.26,79.87 94.98,79.12 L 95.02,79.03 C 96.47,79.26 97.88,79.57 99.29,79.81 100.69,80.06 102.09,80.39 103.51,80.52 104.93,80.64 106.37,80.63 107.78,80.41 109.19,80.2 110.61,79.82 111.82,79.04 L 111.88,79.11 Z M 111.88,79.11" />
        </g>
        <g id="jonnieTop1-group428">
            <path id="jonnieTop1-bezier424" stroke="none" fill="rgb(0, 0, 0)" d="M 26.36,27.04 C 25.77,26.82 25.15,26.68 24.53,26.62 23.92,26.57 23.28,26.62 22.83,26.97 22.28,27.36 21.62,27.58 20.95,27.63 20.3,27.69 19.59,27.6 19.04,27.24 L 19.06,27.19 C 19.68,27.33 20.29,27.29 20.89,27.17 21.48,27.04 22.06,26.87 22.59,26.58 23.21,26.22 23.94,26.23 24.57,26.35 25.21,26.47 25.81,26.71 26.39,27 L 26.36,27.04 Z M 26.36,27.04" />
        </g>
        <g id="jonnieTop1-group429">
            <path id="jonnieTop1-bezier425" stroke="none" fill="rgb(0, 0, 0)" d="M 23.91,28.08 C 23.44,28.36 22.91,28.55 22.35,28.64 22.08,28.69 21.79,28.74 21.5,28.67 21.22,28.59 20.94,28.48 20.74,28.25 L 20.76,28.2 C 21.06,28.17 21.3,28.19 21.56,28.17 21.81,28.17 22.06,28.23 22.32,28.24 22.84,28.24 23.37,28.18 23.89,28.03 L 23.91,28.08 Z M 23.91,28.08" />
        </g>
        <g id="jonnieTop1-group430">
            <path id="jonnieTop1-bezier426" stroke="none" fill="rgb(0, 0, 0)" d="M 24.55,29.45 C 24.22,29.58 23.85,29.67 23.48,29.69 23.3,29.71 23.1,29.74 22.92,29.67 22.74,29.59 22.56,29.49 22.45,29.29 L 22.47,29.25 C 22.69,29.18 22.85,29.19 23.02,29.18 23.18,29.18 23.34,29.26 23.5,29.29 23.84,29.36 24.18,29.39 24.55,29.4 L 24.55,29.45 Z M 24.55,29.45" />
        </g>
        <g id="jonnieTop1-group431">
            <path id="jonnieTop1-bezier427" stroke="none" fill="rgb(0, 0, 0)" d="M 25.48,29.56 C 25.18,29.29 24.91,28.99 24.7,28.63 24.6,28.46 24.47,28.26 24.48,28.02 24.49,27.79 24.6,27.49 24.86,27.43 L 24.89,27.47 C 24.88,27.7 24.92,27.82 24.97,27.97 25.02,28.12 25.02,28.29 25.07,28.47 25.18,28.82 25.34,29.18 25.52,29.53 L 25.48,29.56 Z M 25.48,29.56" />
        </g>
    </g>
</svg>
