<?xml version="1.0" encoding="UTF-8"?>
<!DOCTYPE svg PUBLIC "-//W3C//DTD SVG 1.1//EN" "http://www.w3.org/Graphics/SVG/1.1/DTD/svg11.dtd">
<svg version="1.1" xmlns="http://www.w3.org/2000/svg" xmlns:xlink="http://www.w3.org/1999/xlink" width="200" height="100"  xml:space="preserve" id="jonnieTop2">
    <!-- Generated by PaintCode - http://www.paintcodeapp.com -->
    <g id="jonnieTop2-group2">
        <g id="jonnieTop2-group316">
            <path id="jonnieTop2-bezier312" stroke="none" fill="rgb(0, 0, 0)" d="M 104.76,42.87 C 104.49,38.46 106.1,33.98 109.06,30.69 112.01,27.37 116.3,25.28 120.77,25 125.22,24.69 129.79,26.19 133.19,29.13 136.62,32.04 138.82,36.36 139.08,40.88 139.4,45.38 137.77,49.99 134.72,53.34 131.67,56.71 127.27,58.78 122.74,59.02 120.48,59.13 118.2,58.8 116.07,58.04 113.95,57.28 111.99,56.1 110.34,54.59 107.02,51.59 104.96,47.29 104.76,42.87 Z M 104.86,42.86 C 105.01,45.05 105.61,47.21 106.6,49.15 107.61,51.09 109.02,52.81 110.69,54.19 114.03,56.96 118.41,58.34 122.68,58.02 126.96,57.8 131.11,55.85 133.98,52.67 136.91,49.55 138.52,45.23 138.28,40.92 138.08,36.63 136.03,32.45 132.77,29.62 129.53,26.75 125.13,25.25 120.79,25.49 116.45,25.68 112.2,27.61 109.22,30.83 107.73,32.43 106.54,34.33 105.79,36.39 105.05,38.46 104.74,40.67 104.86,42.86 Z M 104.86,42.86" />
        </g>
        <g id="jonnieTop2-group317">
            <path id="jonnieTop2-bezier313" stroke="none" fill="rgb(0, 0, 0)" d="M 139.02,38.79 C 139.59,38.88 140.16,39.03 140.71,39.28 141.23,39.55 141.83,39.92 142.05,40.69 142.15,41.05 142.1,41.5 141.9,41.85 141.69,42.19 141.4,42.43 141.09,42.57 140.48,42.83 139.85,42.88 139.24,42.71 L 139.22,42.61 C 139.73,42.25 140.21,41.99 140.6,41.7 140.97,41.39 141.28,41.24 141.26,40.83 141.25,40.45 140.89,40.02 140.45,39.71 140.02,39.38 139.52,39.1 139,38.89 L 139.02,38.79 Z M 139.02,38.79" />
        </g>
        <g id="jonnieTop2-group318">
            <path id="jonnieTop2-bezier314" stroke="none" fill="rgb(0, 0, 0)" d="M 102.99,57.29 C 103.91,60.39 104.84,63.49 105.72,66.61 106.17,68.15 106.52,69.75 107.1,71.24 107.71,72.73 108.11,74.26 108.34,75.91 L 108.25,75.95 C 107.21,74.63 106.55,73.1 106.25,71.49 105.91,69.88 105.56,68.32 105.17,66.75 L 102.89,57.32 102.99,57.29 Z M 102.99,57.29" />
        </g>
        <g id="jonnieTop2-group319">
            <path id="jonnieTop2-bezier315" stroke="none" fill="rgb(0, 0, 0)" d="M 129.42,71.45 C 130.89,70.7 132.08,69.47 132.93,68.09 133.8,66.7 134.31,65.13 134.55,63.52 134.78,61.91 134.69,60.28 134.6,58.66 134.52,57.02 134.3,55.39 134.13,53.71 L 134.23,53.69 C 134.93,55.23 135.37,56.88 135.6,58.56 135.82,60.26 135.69,61.99 135.33,63.67 134.99,65.34 134.34,66.97 133.35,68.36 132.34,69.74 131.02,70.9 129.46,71.55 L 129.42,71.45 Z M 129.42,71.45" />
        </g>
        <g id="jonnieTop2-group320">
            <path id="jonnieTop2-bezier316" stroke="none" fill="rgb(0, 0, 0)" d="M 93.63,23.4 C 94.01,23.73 94.44,23.91 94.91,24.03 95.36,24.17 95.84,24.25 96.32,24.31 96.79,24.37 97.29,24.33 97.76,24.47 98.23,24.6 98.7,24.76 99.17,25.07 L 99.16,25.17 C 98.64,25.41 98.13,25.46 97.62,25.46 97.11,25.46 96.62,25.25 96.14,25.09 95.65,24.93 95.17,24.74 94.71,24.49 94.26,24.24 93.83,23.89 93.56,23.47 L 93.63,23.4 Z M 93.63,23.4" />
        </g>
        <g id="jonnieTop2-group321">
            <path id="jonnieTop2-bezier317" stroke="none" fill="rgb(0, 0, 0)" d="M 134,25.34 L 130.63,20.26 C 129.51,18.56 128.4,16.85 127.13,15.31 125.85,13.76 124.32,12.54 122.52,11.85 120.71,11.13 118.69,10.91 116.67,10.63 L 116.67,10.53 C 118.69,10.27 120.81,10.26 122.85,10.91 123.87,11.25 124.83,11.79 125.64,12.48 126.45,13.18 127.14,13.98 127.76,14.81 128.99,16.47 130.02,18.24 131.05,19.99 L 134.09,25.29 134,25.34 Z M 134,25.34" />
        </g>
        <g id="jonnieTop2-group322">
            <path id="jonnieTop2-bezier318" stroke="none" fill="rgb(0, 0, 0)" d="M 110.83,78.93 C 111.26,79.92 111.93,80.79 112.65,81.59 113.36,82.39 114.15,83.11 115,83.77 115.84,84.43 116.79,84.94 117.64,85.58 118.51,86.21 119.4,86.82 120.25,87.55 L 120.21,87.64 C 119.11,87.4 118.08,86.96 117.11,86.42 116.13,85.89 115.29,85.13 114.48,84.38 113.67,83.62 112.92,82.79 112.26,81.9 111.62,80.99 111.05,80.03 110.74,78.96 L 110.83,78.93 Z M 110.83,78.93" />
        </g>
        <g id="jonnieTop2-group323">
            <path id="jonnieTop2-bezier319" stroke="none" fill="rgb(0, 0, 0)" d="M 120.27,87.52 C 121.43,88.75 123.14,89.35 124.8,89.43 126.49,89.53 128.11,89.08 129.72,88.53 132.98,87.51 136.28,86.6 139.61,85.86 141.28,85.48 142.96,85.15 144.67,84.9 146.37,84.66 148.1,84.51 149.87,84.67 151.56,84.95 153.19,85.04 154.76,84.57 155.52,84.34 156.25,83.94 156.76,83.33 157.3,82.73 157.54,81.9 157.48,81.06 L 157.58,81.04 C 157.8,81.88 157.65,82.85 157.13,83.6 156.61,84.36 155.82,84.89 154.99,85.23 153.32,85.9 151.43,85.84 149.78,85.66 148.15,85.56 146.46,85.7 144.79,85.88 143.12,86.06 141.44,86.33 139.78,86.64 136.45,87.28 133.14,88.09 129.87,89.01 128.25,89.49 126.51,89.9 124.78,89.73 123.06,89.58 121.34,88.89 120.19,87.58 L 120.27,87.52 Z M 120.27,87.52" />
        </g>
        <g id="jonnieTop2-group324">
            <path id="jonnieTop2-bezier320" stroke="none" fill="rgb(0, 0, 0)" d="M 151.31,77.34 C 151.99,77.63 152.69,77.87 153.4,78 153.76,78.06 154.12,78.1 154.47,78.06 154.81,78.03 155.15,77.89 155.29,77.62 155.61,77 155.31,76.3 154.78,75.85 154.26,75.38 153.61,75.02 152.99,74.62 152.67,74.41 152.36,74.19 152.07,73.89 152.04,73.85 152,73.81 151.97,73.77 151.96,73.76 151.91,73.7 151.94,73.74 L 151.89,73.69 C 151.85,73.63 151.85,73.66 151.87,73.66 151.87,73.67 151.86,73.67 151.86,73.67 151.81,73.67 151.66,73.75 151.54,73.85 151.03,74.3 150.55,74.9 150.03,75.43 149,76.51 147.79,77.5 146.34,78.09 145.62,78.38 144.86,78.57 144.07,78.64 143.32,78.71 142.55,78.69 141.8,78.66 140.31,78.59 138.83,78.4 137.37,78.2 134.45,77.75 131.55,77.27 128.62,76.85 L 128.63,76.75 C 131.6,76.59 134.56,76.94 137.49,77.21 138.96,77.37 140.42,77.54 141.87,77.67 142.6,77.73 143.3,77.78 144.02,77.75 144.7,77.72 145.4,77.58 146.05,77.34 147.37,76.86 148.53,75.98 149.57,74.97 150.1,74.47 150.57,73.91 151.18,73.4 151.35,73.29 151.52,73.14 151.84,73.11 151.92,73.11 152.02,73.13 152.1,73.17 152.19,73.21 152.28,73.29 152.29,73.31 L 152.34,73.36 152.4,73.43 C 152.42,73.47 152.44,73.5 152.47,73.53 152.69,73.77 152.97,73.99 153.27,74.2 153.86,74.63 154.5,75.02 155.05,75.56 155.33,75.84 155.57,76.17 155.69,76.57 155.8,76.97 155.76,77.4 155.55,77.77 155.32,78.15 154.87,78.29 154.49,78.31 154.1,78.34 153.72,78.28 153.36,78.19 152.63,78.02 151.94,77.75 151.27,77.43 L 151.31,77.34 Z M 151.31,77.34" />
        </g>
        <g id="jonnieTop2-group325">
            <path id="jonnieTop2-bezier321" stroke="none" fill="rgb(0, 0, 0)" d="M 127.28,81.06 C 126.82,79.45 126.36,77.85 125.88,76.26 125.64,75.47 125.31,74.7 125.14,73.91 L 124.87,72.72 C 124.82,72.53 124.77,72.33 124.71,72.16 124.69,72.07 124.65,71.99 124.62,71.95 124.61,71.9 124.55,71.89 124.46,71.96 L 124.38,71.9 C 124.38,71.8 124.53,71.62 124.73,71.68 124.9,71.73 124.99,71.82 125.08,71.9 125.26,72.07 125.39,72.25 125.51,72.44 125.75,72.81 125.93,73.21 126.09,73.6 126.41,74.4 126.5,75.25 126.66,76.07 126.97,77.72 127.21,79.38 127.38,81.04 L 127.28,81.06 Z M 127.28,81.06" />
        </g>
        <g id="jonnieTop2-group326">
            <path id="jonnieTop2-bezier322" stroke="none" fill="rgb(0, 0, 0)" d="M 140.31,34.29 C 140.71,33.62 140.94,32.86 141.06,32.1 141.19,31.34 141.2,30.57 141.12,29.81 141.05,29.05 140.8,28.33 140.67,27.58 140.54,26.83 140.38,26.07 140.3,25.24 L 140.39,25.2 C 140.97,25.81 141.36,26.55 141.64,27.32 141.92,28.11 141.94,28.96 141.92,29.78 141.9,31.43 141.44,33.11 140.39,34.36 L 140.31,34.29 Z M 140.31,34.29" />
        </g>
        <g id="jonnieTop2-group327">
            <path id="jonnieTop2-bezier323" stroke="none" fill="rgb(0, 0, 0)" d="M 140.32,24.21 C 138.55,23.43 136.78,22.64 135.02,21.82 134.14,21.42 133.22,21.09 132.39,20.59 131.56,20.09 130.75,19.55 130.01,18.87 L 130.06,18.78 C 131.04,18.97 131.96,19.32 132.85,19.7 133.75,20.07 134.55,20.63 135.39,21.12 137.07,22.09 138.73,23.09 140.37,24.12 L 140.32,24.21 Z M 140.32,24.21" />
        </g>
        <g id="jonnieTop2-group328">
            <path id="jonnieTop2-bezier324" stroke="none" fill="rgb(0, 0, 0)" d="M 140.92,35.1 C 141.92,35.01 142.91,34.88 143.9,34.77 144.88,34.67 145.87,34.47 146.77,34.24 147.21,34.16 147.73,34.04 147.66,33.98 147.68,33.52 147.64,33.05 147.43,32.71 147.23,32.37 146.79,32.18 146.33,32.06 145.86,31.94 145.36,31.89 144.86,31.82 L 144.86,31.72 C 145.37,31.68 145.87,31.66 146.38,31.71 146.89,31.75 147.49,31.89 147.88,32.38 148.27,32.86 148.35,33.45 148.39,33.97 L 148.39,34.06 C 148.4,34.14 148.4,34.21 148.38,34.27 148.35,34.41 148.28,34.52 148.21,34.6 148.08,34.77 147.94,34.86 147.8,34.94 147.53,35.1 147.27,35.19 147.01,35.26 146.48,35.38 145.96,35.38 145.45,35.39 144.94,35.4 144.43,35.4 143.93,35.39 142.92,35.38 141.92,35.28 140.92,35.2 L 140.92,35.1 Z M 140.92,35.1" />
        </g>
        <g id="jonnieTop2-group329">
            <path id="jonnieTop2-bezier325" stroke="none" fill="rgb(0, 0, 0)" d="M 146.98,29.73 C 146.76,28.94 146.44,28.18 146.05,27.48 145.67,26.77 145.2,26.11 144.66,25.56 144.1,25.01 143.43,24.66 142.79,24.31 142.13,23.94 141.4,23.72 140.58,23.46 L 140.58,23.36 C 141.39,23.07 142.33,23.08 143.18,23.39 144.06,23.67 144.72,24.36 145.25,25.03 146.33,26.41 146.88,28.06 147.08,29.71 L 146.98,29.73 Z M 146.98,29.73" />
        </g>
        <g id="jonnieTop2-group330">
            <path id="jonnieTop2-bezier326" stroke="none" fill="rgb(0, 0, 0)" d="M 105.61,73.43 C 100.72,73.04 95.84,72.4 91.01,71.4 88.6,70.9 86.17,70.37 83.86,69.43 82.72,68.94 81.58,68.42 80.53,67.71 79.51,67.01 78.46,66.13 78.07,64.9 L 78.16,64.86 C 78.47,65.39 78.89,65.82 79.37,66.17 79.84,66.53 80.35,66.84 80.89,67.11 81.95,67.66 83.07,68.11 84.21,68.5 86.5,69.28 88.82,70.02 91.19,70.62 93.56,71.21 95.96,71.71 98.37,72.15 100.77,72.61 103.19,73.01 105.62,73.33 L 105.61,73.43 Z M 105.61,73.43" />
        </g>
        <g id="jonnieTop2-group331">
            <path id="jonnieTop2-bezier327" stroke="none" fill="rgb(0, 0, 0)" d="M 86.25,50.22 C 84.96,50.63 83.7,51.08 82.52,51.65 81.93,51.93 81.41,52.32 80.85,52.6 80.28,52.89 79.76,53.19 79.16,53.58 L 79.07,53.52 C 79.23,52.8 79.74,52.2 80.3,51.76 80.87,51.31 81.57,51.12 82.22,50.9 83.54,50.48 84.88,50.26 86.23,50.12 L 86.25,50.22 Z M 86.25,50.22" />
        </g>
        <g id="jonnieTop2-group332">
            <path id="jonnieTop2-bezier328" stroke="none" fill="rgb(0, 0, 0)" d="M 56.54,52.33 C 60.1,51.73 63.68,51.3 67.29,51 69.09,50.85 70.89,50.66 72.7,50.7 74.51,50.75 76.33,50.87 78.12,51.23 L 78.11,51.33 C 76.3,51.52 74.51,51.61 72.72,51.7 70.93,51.79 69.13,51.75 67.33,51.8 63.74,51.92 60.14,52.12 56.55,52.43 L 56.54,52.33 Z M 56.54,52.33" />
        </g>
        <g id="jonnieTop2-group333">
            <path id="jonnieTop2-bezier329" stroke="none" fill="rgb(0, 0, 0)" d="M 56.59,61.19 C 56.21,60.06 55.99,58.86 55.9,57.66 55.86,57.05 55.76,56.44 55.9,55.84 56.02,55.24 56.23,54.64 56.63,54.13 L 56.73,54.15 C 56.86,54.79 56.88,55.36 56.89,55.94 56.91,56.51 56.75,57.08 56.7,57.66 56.61,58.81 56.59,59.99 56.68,61.17 L 56.59,61.19 Z M 56.59,61.19" />
        </g>
        <g id="jonnieTop2-group334">
            <path id="jonnieTop2-bezier330" stroke="none" fill="rgb(0, 0, 0)" d="M 77.22,67.77 L 66.71,65.36 C 64.96,64.97 63.19,64.65 61.46,64.17 59.73,63.7 58.02,63.18 56.29,62.65 L 56.31,62.55 C 58.14,62.54 59.92,62.86 61.69,63.2 63.46,63.55 65.18,64.09 66.91,64.58 70.37,65.56 73.82,66.59 77.25,67.67 L 77.22,67.77 Z M 77.22,67.77" />
        </g>
        <g id="jonnieTop2-group335">
            <path id="jonnieTop2-bezier331" stroke="none" fill="rgb(0, 0, 0)" d="M 55.8,61.6 C 54.66,61.63 53.53,61.71 52.4,61.8 51.84,61.85 51.28,61.99 50.72,61.94 50.16,61.9 49.59,61.83 49,61.6 L 49,61.5 C 49.54,61.18 50.11,61.04 50.68,60.94 51.25,60.84 51.83,60.96 52.4,61 53.55,61.09 54.69,61.24 55.81,61.5 L 55.8,61.6 Z M 55.8,61.6" />
        </g>
        <g id="jonnieTop2-group336">
            <path id="jonnieTop2-bezier332" stroke="none" fill="rgb(0, 0, 0)" d="M 55.81,53.6 C 54.68,53.82 53.55,53.98 52.41,54.09 51.84,54.15 51.26,54.28 50.68,54.19 50.11,54.1 49.52,53.96 48.99,53.6 L 49.01,53.5 C 49.6,53.32 50.15,53.23 50.71,53.19 51.27,53.13 51.83,53.26 52.39,53.29 L 55.8,53.5 55.81,53.6 Z M 55.81,53.6" />
        </g>
        <g id="jonnieTop2-group337">
            <path id="jonnieTop2-bezier333" stroke="none" fill="rgb(0, 0, 0)" d="M 54.2,51.23 C 51.6,51.14 48.96,51.27 46.48,51.93 45.26,52.27 44.02,52.77 43.22,53.67 42.82,54.11 42.58,54.66 42.53,55.23 42.46,55.86 42.46,56.49 42.52,57.11 42.65,58.35 43.05,59.55 43.79,60.51 44.51,61.47 45.51,62.19 46.65,62.65 48.94,63.61 51.6,63.6 54.19,63.5 L 54.21,63.6 C 51.68,64.26 48.92,64.47 46.29,63.58 45,63.11 43.78,62.26 42.98,61.09 42.18,59.92 41.79,58.53 41.72,57.18 41.68,56.5 41.71,55.82 41.81,55.15 41.9,54.43 42.25,53.74 42.74,53.23 43.75,52.21 45.08,51.76 46.36,51.45 48.96,50.9 51.6,50.91 54.21,51.13 L 54.2,51.23 Z M 54.2,51.23" />
        </g>
        <g id="jonnieTop2-group338">
            <path id="jonnieTop2-bezier334" stroke="none" fill="rgb(0, 0, 0)" d="M 115.25,10.63 C 112.84,10.69 110.44,10.9 108.06,11.23 105.69,11.54 103.32,11.99 101.04,12.67 98.78,13.38 96.57,14.34 94.79,15.76 93.89,16.46 93.16,17.36 92.73,18.41 92.3,19.46 92.23,20.66 92.37,21.85 L 92.28,21.87 C 91.85,20.73 91.73,19.43 92.07,18.18 92.4,16.94 93.21,15.86 94.14,15 96.06,13.3 98.49,12.52 100.83,11.9 103.19,11.3 105.6,10.95 108.01,10.73 110.42,10.53 112.84,10.46 115.25,10.53 L 115.25,10.63 Z M 115.25,10.63" />
        </g>
        <g id="jonnieTop2-group339">
            <path id="jonnieTop2-bezier335" stroke="none" fill="rgb(0, 0, 0)" d="M 103.72,68.91 C 100.1,67.25 97.18,64.15 95.53,60.49 94.71,58.65 94.18,56.69 93.93,54.69 93.72,52.7 93.57,50.73 93.44,48.75 93.19,44.78 93.01,40.8 93.23,36.82 93.37,34.83 93.53,32.84 93.86,30.87 94.19,28.9 94.62,26.92 95.46,25.11 L 95.56,25.14 C 94.99,27.04 94.74,29 94.55,30.95 94.37,32.92 94.26,34.88 94.23,36.86 94.14,40.8 94.1,44.75 94.24,48.7 94.32,50.68 94.42,52.66 94.58,54.62 94.77,56.56 95.23,58.48 95.99,60.29 97.47,63.9 100.22,67.04 103.77,68.81 L 103.72,68.91 Z M 103.72,68.91" />
        </g>
        <g id="jonnieTop2-group340">
            <path id="jonnieTop2-bezier336" stroke="none" fill="rgb(0, 0, 0)" d="M 99.79,23.85 C 99.47,27.17 99.38,30.52 99.42,33.85 99.45,37.18 99.63,40.51 100.01,43.82 100.39,47.13 101.02,50.39 101.74,53.62 102.45,56.86 103.44,60.03 104.66,63.14 L 104.57,63.19 C 102.82,60.31 101.66,57.1 100.77,53.86 99.9,50.6 99.49,47.24 99.21,43.9 98.93,40.55 98.85,37.2 98.92,33.85 99.01,30.5 99.24,27.16 99.69,23.84 L 99.79,23.85 Z M 99.79,23.85" />
        </g>
        <g id="jonnieTop2-group341">
            <path id="jonnieTop2-bezier337" stroke="none" fill="rgb(0, 0, 0)" d="M 125.56,77.12 C 124.38,78.03 122.94,78.55 121.5,78.9 120.04,79.23 118.54,79.34 117.04,79.32 115.55,79.29 114.04,79.18 112.59,78.79 111.15,78.4 109.75,77.87 108.45,77.12 L 108.49,77.03 C 109.96,77.26 111.38,77.57 112.81,77.81 114.23,78.06 115.64,78.39 117.08,78.52 118.52,78.64 119.97,78.63 121.4,78.41 122.83,78.2 124.27,77.82 125.5,77.04 L 125.56,77.12 Z M 125.56,77.12" />
        </g>
        <g id="jonnieTop2-group342">
            <path id="jonnieTop2-bezier338" stroke="none" fill="rgb(0, 0, 0)" d="M 93.6,14.11 C 92.01,14.66 90.42,15.23 88.88,15.87 88.1,16.18 87.38,16.6 86.62,16.89 85.87,17.21 85.08,17.41 84.48,17.97 L 84.39,17.93 C 84.44,17.45 84.78,17.06 85.1,16.76 85.44,16.45 85.81,16.2 86.19,15.99 86.94,15.54 87.8,15.35 88.61,15.11 90.25,14.64 91.91,14.28 93.58,14.01 L 93.6,14.11 Z M 93.6,14.11" />
        </g>
        <g id="jonnieTop2-group343">
            <path id="jonnieTop2-bezier339" stroke="none" fill="rgb(0, 0, 0)" d="M 92.11,23.49 C 90.77,23.58 89.42,23.58 88.07,23.45 87.4,23.39 86.7,23.38 86.04,23.11 85.42,22.84 84.7,22.47 84.4,21.75 L 84.48,21.68 C 85.11,21.95 85.7,22.01 86.33,22.15 86.95,22.26 87.56,22.51 88.2,22.66 89.48,22.96 90.79,23.19 92.11,23.39 L 92.11,23.49 Z M 92.11,23.49" />
        </g>
        <g id="jonnieTop2-group344">
            <path id="jonnieTop2-bezier340" stroke="none" fill="rgb(0, 0, 0)" d="M 83.59,18.48 C 83.23,18.88 82.97,19.43 83.07,19.76 83.11,19.94 83.29,20.01 83.34,20.2 83.41,20.4 83.52,20.64 83.59,21.02 L 83.53,21.1 C 83.15,21.17 82.82,21.06 82.55,20.82 82.27,20.59 82.2,20.12 82.27,19.75 82.33,19.36 82.54,19.06 82.76,18.85 83,18.64 83.26,18.5 83.53,18.39 L 83.59,18.48 Z M 83.59,18.48" />
        </g>
    </g>
</svg>
