<?xml version="1.0" encoding="UTF-8"?>
<!DOCTYPE svg PUBLIC "-//W3C//DTD SVG 1.1//EN" "http://www.w3.org/Graphics/SVG/1.1/DTD/svg11.dtd">
<svg version="1.1" xmlns="http://www.w3.org/2000/svg" xmlns:xlink="http://www.w3.org/1999/xlink" width="200" height="300"  xml:space="preserve" id="jonnieSideRight2">
    <!-- Generated by PaintCode - http://www.paintcodeapp.com -->
    <g id="jonnieSideRight2-group2">
        <g id="jonnieSideRight2-group39">
            <path id="jonnieSideRight2-bezier38" stroke="none" fill="rgb(0, 0, 0)" d="M 120.37,33.23 C 120.17,29.75 119.62,26.27 118.64,22.93 118.15,21.26 117.53,19.62 116.71,18.1 115.89,16.58 114.86,15.15 113.51,14.1 112.19,13.01 110.51,12.53 108.81,12.23 107.11,11.94 105.38,11.88 103.65,11.99 100.21,12.22 96.8,13.13 93.77,14.76 90.76,16.38 88.16,18.84 86.78,21.94 86.07,23.48 85.71,25.13 85.58,26.84 85.43,28.53 85.52,30.24 85.87,31.91 86.21,33.58 86.8,35.19 87.49,36.79 88.16,38.39 88.94,39.99 89.36,41.75 89.81,43.49 89.81,45.36 89.32,47.08 88.82,48.8 87.95,50.36 86.96,51.8 L 86.88,51.75 C 87.77,50.25 88.51,48.65 88.88,46.97 89.27,45.29 89.19,43.56 88.69,41.93 88.2,40.29 87.43,38.74 86.7,37.14 85.96,35.54 85.29,33.87 84.9,32.12 84.51,30.36 84.4,28.54 84.54,26.75 84.68,24.97 85.11,23.16 85.88,21.52 87.42,18.21 90.24,15.68 93.4,14.05 96.57,12.41 100.08,11.53 103.62,11.34 105.39,11.25 107.17,11.34 108.92,11.67 109.79,11.83 110.66,12.06 111.49,12.36 112.34,12.68 113.13,13.14 113.83,13.71 115.23,14.85 116.26,16.34 117.07,17.91 117.87,19.48 118.46,21.15 118.93,22.84 119.85,26.24 120.33,29.73 120.47,33.23 L 120.37,33.23 Z M 120.37,33.23" />
        </g>
        <g id="jonnieSideRight2-group40">
            <path id="jonnieSideRight2-bezier39" stroke="none" fill="rgb(0, 0, 0)" d="M 118.22,36.52 C 118.3,39.02 118.24,41.53 117.73,44.01 117.43,45.23 117.1,46.52 116.08,47.51 115.83,47.75 115.5,47.94 115.15,48.04 114.97,48.09 114.78,48.12 114.6,48.12 L 114.13,48.14 C 113.53,48.16 112.92,48.22 112.33,48.32 109.94,48.73 107.83,50.05 106.46,51.97 105.74,52.91 105.24,54.02 104.88,55.17 104.7,55.75 104.57,56.34 104.5,56.95 104.42,57.54 104.36,58.18 104.54,58.75 L 104.45,58.8 C 103.86,57.61 104.01,56.26 104.2,55.01 104.43,53.74 104.93,52.51 105.63,51.4 106.36,50.31 107.35,49.37 108.5,48.72 109.65,48.08 110.93,47.7 112.2,47.53 112.84,47.44 113.48,47.41 114.13,47.41 L 114.59,47.42 C 114.72,47.42 114.85,47.4 114.97,47.38 115.22,47.32 115.45,47.2 115.66,47.02 116.5,46.29 116.93,45.06 117.25,43.9 117.87,41.51 118.07,39.01 118.12,36.52 L 118.22,36.52 Z M 118.22,36.52" />
        </g>
        <g id="jonnieSideRight2-group53">
            <path id="jonnieSideRight2-bezier52" stroke="none" fill="rgb(0, 0, 0)" d="M 103.68,69.69 C 104.5,75.91 105.21,82.14 105.76,88.39 106.04,91.52 106.34,94.65 106.38,97.79 106.37,100.93 106.42,104.12 105.67,107.21 L 105.58,107.19 C 105.69,105.63 105.65,104.07 105.6,102.51 105.54,100.95 105.49,99.39 105.38,97.83 L 104.96,88.45 C 104.59,82.2 104.11,75.95 103.57,69.7 L 103.68,69.69 Z M 103.68,69.69" />
        </g>
        <g id="jonnieSideRight2-group54">
            <path id="jonnieSideRight2-bezier53" stroke="none" fill="rgb(0, 0, 0)" d="M 105.99,110.04 C 108.05,112.54 109.87,115.25 111.28,118.18 111.63,118.91 111.95,119.66 112.22,120.43 112.48,121.21 112.74,121.94 113.06,122.69 113.69,124.17 114.37,125.64 115.07,127.1 117.84,132.93 120.8,138.68 123.84,144.38 125.37,147.23 126.92,150.06 128.53,152.86 129.32,154.26 130.14,155.65 130.97,157.03 131.38,157.72 131.8,158.4 132.24,159.07 132.69,159.72 133.13,160.4 133.65,160.89 134.92,162.13 135.58,163.72 136.13,165.26 136.66,166.83 137.03,168.43 137.22,170.06 137.32,170.88 137.37,171.7 137.36,172.52 137.36,172.94 137.33,173.35 137.26,173.77 137.23,173.99 137.18,174.18 137.1,174.42 137.03,174.59 136.91,174.83 136.77,174.99 136.19,175.7 135.35,176 134.56,176.18 133.75,176.36 132.94,176.41 132.12,176.37 L 132.13,176.27 C 132.93,176.25 133.73,176.14 134.49,175.91 135.24,175.69 135.99,175.32 136.41,174.72 136.51,174.56 136.57,174.44 136.65,174.23 136.69,174.08 136.73,173.88 136.75,173.7 136.79,173.32 136.8,172.92 136.79,172.53 136.76,171.74 136.66,170.95 136.53,170.16 136.25,168.59 135.87,167.03 135.32,165.55 134.76,164.09 134.07,162.62 132.96,161.62 132.3,161 131.86,160.3 131.39,159.63 130.94,158.95 130.51,158.26 130.08,157.57 129.24,156.18 128.45,154.76 127.66,153.35 126.1,150.5 124.6,147.64 123.13,144.75 120.18,139 117.3,133.2 114.61,127.31 113.95,125.83 113.3,124.35 112.69,122.84 112.39,122.1 112.12,121.3 111.89,120.54 111.64,119.78 111.34,119.04 111.01,118.3 109.67,115.38 107.92,112.63 105.92,110.11 L 105.99,110.04 Z M 105.99,110.04" />
        </g>
        <g id="jonnieSideRight2-group55">
            <path id="jonnieSideRight2-bezier54" stroke="none" fill="rgb(0, 0, 0)" d="M 134.77,173.74 C 133.88,174.38 132.93,174.93 131.88,175.35 131.36,175.55 130.82,175.81 130.21,175.78 129.64,175.77 128.9,175.57 128.59,174.99 L 128.66,174.91 C 129.23,174.98 129.65,174.88 130.14,174.79 130.61,174.68 131.13,174.69 131.65,174.58 132.67,174.36 133.71,174.03 134.73,173.65 L 134.77,173.74 Z M 134.77,173.74" />
        </g>
        <g id="jonnieSideRight2-group56">
            <path id="jonnieSideRight2-bezier55" stroke="none" fill="rgb(0, 0, 0)" d="M 132.53,171.49 C 131.68,172.19 130.71,172.73 129.62,173.07 129.08,173.23 128.5,173.42 127.91,173.32 127.32,173.22 126.74,172.97 126.35,172.49 L 126.39,172.4 127.96,172.32 C 128.44,172.27 128.94,172.35 129.45,172.29 130.46,172.15 131.49,171.85 132.47,171.41 L 132.53,171.49 Z M 132.53,171.49" />
        </g>
        <g id="jonnieSideRight2-group57">
            <path id="jonnieSideRight2-bezier56" stroke="none" fill="rgb(0, 0, 0)" d="M 130.17,169.73 C 129.99,170.05 129.73,170.34 129.4,170.56 129.07,170.77 128.67,170.9 128.25,170.93 127.84,170.95 127.39,170.95 127.05,170.71 126.72,170.48 126.45,170.17 126.34,169.74 L 126.41,169.66 C 126.85,169.66 127.17,169.74 127.48,169.8 127.77,169.86 128,170.07 128.3,170.13 128.86,170.26 129.54,170.11 130.08,169.67 L 130.17,169.73 Z M 130.17,169.73" />
        </g>
        <g id="jonnieSideRight2-group58">
            <path id="jonnieSideRight2-bezier57" stroke="none" fill="rgb(0, 0, 0)" d="M 127.08,165.85 C 124.92,162.12 122.34,158.63 119.62,155.3 116.93,151.94 113.85,148.89 111.11,145.52 108.34,142.19 105.65,138.79 103.24,135.18 102.06,133.36 100.9,131.53 99.86,129.63 99.34,128.67 98.84,127.7 98.4,126.71 97.99,125.7 97.55,124.68 97.45,123.58 L 97.55,123.57 C 97.79,124.61 98.3,125.57 98.81,126.5 99.32,127.45 99.88,128.37 100.46,129.27 101.61,131.08 102.81,132.87 104.07,134.62 106.56,138.13 109.06,141.64 111.73,145.02 114.37,148.42 117.37,151.54 120.01,154.99 122.64,158.42 125.11,161.99 127.17,165.8 L 127.08,165.85 Z M 127.08,165.85" />
        </g>
        <g id="jonnieSideRight2-group59">
            <path id="jonnieSideRight2-bezier58" stroke="none" fill="rgb(0, 0, 0)" d="M 96.85,120.61 C 95.93,120.08 95.19,119.24 94.7,118.25 94.46,117.77 94.19,117.25 94.18,116.69 94.17,116.13 94.27,115.57 94.58,115.07 L 94.68,115.08 C 94.92,115.61 95.04,116.08 95.18,116.55 95.31,117 95.31,117.49 95.45,117.96 95.58,118.43 95.77,118.88 96.02,119.31 96.25,119.75 96.54,120.17 96.91,120.53 L 96.85,120.61 Z M 96.85,120.61" />
        </g>
        <g id="jonnieSideRight2-group60">
            <path id="jonnieSideRight2-bezier59" stroke="none" fill="rgb(0, 0, 0)" d="M 93.58,111.83 C 92.84,108.38 92,104.94 91,101.56 90.5,99.87 89.96,98.18 89.25,96.59 88.9,95.83 88.43,95.03 88.1,94.2 87.74,93.38 87.42,92.55 87.11,91.71 85.9,88.37 84.82,84.98 84.09,81.5 83.75,79.75 83.43,77.99 83.27,76.21 83.2,75.32 83.16,74.43 83.19,73.53 83.26,72.65 83.3,71.69 83.83,70.92 L 83.92,70.98 C 83.55,71.76 83.59,72.66 83.64,73.53 83.7,74.39 83.81,75.26 83.97,76.13 84.26,77.85 84.63,79.57 85.06,81.28 85.91,84.68 86.77,88.11 87.87,91.45 88.15,92.28 88.44,93.11 88.77,93.92 89.07,94.74 89.49,95.49 89.85,96.33 90.53,98 91.02,99.71 91.48,101.42 92.36,104.86 93.07,108.33 93.67,111.82 L 93.58,111.83 Z M 93.58,111.83" />
        </g>
        <g id="jonnieSideRight2-group61">
            <path id="jonnieSideRight2-bezier60" stroke="none" fill="rgb(0, 0, 0)" d="M 79.3,65.71 C 78.9,67.21 78.66,68.75 78.51,70.28 78.34,71.81 78.28,73.36 78.32,74.89 78.36,76.43 78.57,77.95 78.72,79.46 78.87,80.98 79.09,82.5 79.3,84.06 L 79.2,84.09 C 78.47,82.69 78.02,81.16 77.73,79.6 77.44,78.05 77.45,76.46 77.52,74.89 77.64,71.75 78.16,68.63 79.2,65.68 L 79.3,65.71 Z M 79.3,65.71" />
        </g>
        <g id="jonnieSideRight2-group62">
            <path id="jonnieSideRight2-bezier61" stroke="none" fill="rgb(0, 0, 0)" d="M 85.03,54.11 C 81.68,57.94 78.57,62.03 76.11,66.47 74.91,68.69 73.83,71.03 73.44,73.49 73.34,74.11 73.33,74.69 73.34,75.35 73.33,75.99 73.31,76.65 73.26,77.28 73.18,78.57 73.01,79.85 72.78,81.12 72.33,83.66 71.62,86.14 70.95,88.59 70.61,89.82 70.28,91.04 70.02,92.27 69.73,93.49 69.62,94.72 69.42,96.01 69,98.55 68.49,101.06 67.88,103.54 67.57,104.78 67.25,106.02 66.9,107.25 66.71,107.87 66.52,108.48 66.32,109.08 66.09,109.69 65.95,110.31 65.53,110.86 L 65.47,110.78 C 65.76,110.27 65.87,109.6 66.04,109 66.19,108.39 66.33,107.76 66.45,107.14 66.72,105.9 66.97,104.65 67.2,103.39 67.66,100.89 68.12,98.38 68.43,95.87 68.61,94.64 68.71,93.32 69,92.05 69.28,90.78 69.64,89.55 70,88.32 70.74,85.87 71.49,83.45 71.99,80.97 72.24,79.73 72.43,78.49 72.54,77.23 72.6,76.6 72.63,75.98 72.65,75.34 72.65,74.72 72.68,74.03 72.8,73.39 73.26,70.8 74.41,68.45 75.67,66.22 78.28,61.8 81.5,57.79 84.96,54.04 L 85.03,54.11 Z M 85.03,54.11" />
        </g>
        <g id="jonnieSideRight2-group63">
            <path id="jonnieSideRight2-bezier62" stroke="none" fill="rgb(0, 0, 0)" d="M 64.55,111.81 C 64.98,113.21 65.38,114.63 65.62,116.08 65.67,116.45 65.72,116.82 65.72,117.2 65.71,117.38 65.71,117.58 65.65,117.77 65.57,117.96 65.56,118.1 65.53,118.29 65.44,119.01 65.4,119.74 65.36,120.47 65.23,123.39 65.22,126.32 65.24,129.25 65.25,132.18 65.31,135.11 65.43,138.03 65.56,140.96 65.72,143.88 66.03,146.78 L 66.03,146.8 66.03,146.82 C 66.06,149.41 66.02,151.99 65.88,154.57 65.81,155.87 65.72,157.16 65.52,158.46 65.42,159.11 65.33,159.75 65.06,160.46 65.03,160.53 64.95,160.67 64.93,160.72 64.88,160.8 64.89,160.8 64.85,160.88 64.8,161.01 64.76,161.15 64.71,161.3 64.61,161.59 64.53,161.9 64.45,162.2 63.83,164.66 63.42,167.21 63.03,169.74 62.84,171.01 62.68,172.28 62.57,173.56 62.51,174.19 62.46,174.83 62.46,175.47 62.46,175.79 62.47,176.11 62.5,176.42 62.54,176.73 62.59,177.06 62.78,177.28 L 62.72,177.36 C 62.46,177.11 62.4,176.76 62.32,176.45 62.26,176.13 62.22,175.8 62.2,175.48 62.14,174.83 62.13,174.18 62.14,173.53 62.15,172.24 62.25,170.95 62.36,169.66 62.6,167.08 62.98,164.53 63.51,161.98 63.59,161.66 63.66,161.34 63.75,161.01 63.8,160.85 63.85,160.69 63.92,160.51 63.94,160.45 64.01,160.3 64.04,160.24 64.09,160.14 64.09,160.14 64.13,160.07 64.31,159.57 64.42,158.92 64.51,158.31 64.67,157.06 64.78,155.78 64.87,154.51 65.04,151.95 65.16,149.38 65.18,146.82 L 65.18,146.86 C 64.73,140.99 64.65,135.12 64.72,129.25 64.76,126.31 64.85,123.38 65.05,120.45 65.1,119.71 65.16,118.98 65.27,118.25 65.3,118.08 65.35,117.85 65.41,117.7 65.46,117.55 65.48,117.37 65.49,117.19 65.49,116.83 65.46,116.47 65.41,116.11 65.21,114.67 64.85,113.24 64.45,111.84 L 64.55,111.81 Z M 64.55,111.81" />
        </g>
        <g id="jonnieSideRight2-group64">
            <path id="jonnieSideRight2-bezier63" stroke="none" fill="rgb(0, 0, 0)" d="M 64.15,173.65 C 65.15,174 66.17,174.29 67.18,174.44 67.69,174.52 68.19,174.47 68.64,174.52 69.11,174.56 69.53,174.6 70.09,174.46 L 70.16,174.53 C 69.94,175.14 69.26,175.45 68.68,175.52 68.07,175.62 67.52,175.39 66.99,175.22 65.94,174.87 64.98,174.35 64.1,173.74 L 64.15,173.65 Z M 64.15,173.65" />
        </g>
        <g id="jonnieSideRight2-group65">
            <path id="jonnieSideRight2-bezier64" stroke="none" fill="rgb(0, 0, 0)" d="M 69.4,167.66 L 72.09,169.53 C 72.54,169.86 72.98,170.16 73.42,170.52 73.84,170.91 74.2,171.32 74.57,171.72 75.29,172.54 76,173.37 76.77,174.12 77.51,174.83 78.42,175.67 79.18,175.42 79.31,175.36 79.31,175.35 79.33,175.17 79.33,175 79.26,174.78 79.16,174.56 78.97,174.12 78.68,173.69 78.35,173.29 77.56,172.33 77.3,171.17 76.99,170.14 76.74,169.07 76.49,168.02 76.17,167.01 76.01,166.5 75.82,166 75.56,165.55 75.32,165.08 74.99,164.67 74.54,164.37 L 74.58,164.28 C 75.69,164.66 76.34,165.77 76.81,166.75 77.29,167.77 77.6,168.83 77.95,169.86 78.11,170.38 78.27,170.89 78.46,171.37 78.55,171.62 78.65,171.85 78.75,172.07 78.86,172.3 78.95,172.43 79.15,172.69 79.48,173.16 79.78,173.66 80,174.23 80.1,174.52 80.19,174.83 80.17,175.21 80.16,175.4 80.11,175.62 79.97,175.81 79.83,176.01 79.61,176.13 79.42,176.19 78.69,176.37 78.03,176.08 77.56,175.73 77.08,175.38 76.69,174.98 76.3,174.58 75.55,173.76 74.87,172.9 74.19,172.05 73.85,171.63 73.51,171.19 73.15,170.82 72.77,170.46 72.33,170.12 71.91,169.77 L 69.35,167.74 69.4,167.66 Z M 69.4,167.66" />
        </g>
        <g id="jonnieSideRight2-group66">
            <path id="jonnieSideRight2-bezier65" stroke="none" fill="rgb(0, 0, 0)" d="M 71.55,173.69 C 71.79,175.54 71.94,177.39 71.95,179.26 71.96,180.19 72.02,181.14 71.8,182.08 71.69,182.55 71.56,183.02 71.32,183.47 71.21,183.69 71.07,183.91 70.88,184.1 70.69,184.28 70.39,184.46 70.12,184.37 L 70.12,184.27 C 70.53,184.1 70.56,183.64 70.66,183.23 70.73,182.81 70.78,182.37 70.81,181.92 70.88,181.03 71.07,180.14 71.15,179.22 71.31,177.4 71.4,175.55 71.45,173.7 L 71.55,173.69 Z M 71.55,173.69" />
        </g>
        <g id="jonnieSideRight2-group67">
            <path id="jonnieSideRight2-bezier66" stroke="none" fill="rgb(0, 0, 0)" d="M 69.43,177.32 C 69.54,178.11 69.59,178.9 69.54,179.71 69.51,180.11 69.56,180.55 69.34,180.95 69.23,181.14 69.1,181.34 68.89,181.51 68.72,181.68 68.34,181.8 68.12,181.62 L 68.13,181.52 C 68.32,181.39 68.29,181.24 68.32,181.09 L 68.4,180.61 C 68.44,180.27 68.64,179.94 68.75,179.58 68.97,178.85 69.15,178.09 69.32,177.32 L 69.43,177.32 Z M 69.43,177.32" />
        </g>
        <g id="jonnieSideRight2-group68">
            <path id="jonnieSideRight2-bezier67" stroke="none" fill="rgb(0, 0, 0)" d="M 66.18,175.84 C 66.39,176.44 66.56,177.04 66.63,177.68 66.67,178 66.78,178.35 66.61,178.71 66.53,178.88 66.42,179.09 66.16,179.24 66.03,179.31 65.85,179.35 65.73,179.29 65.6,179.24 65.52,179.16 65.48,179.06 L 65.52,178.97 C 65.74,178.91 65.75,178.76 65.69,178.72 65.65,178.66 65.65,178.57 65.65,178.45 65.63,178.22 65.78,177.95 65.84,177.67 65.93,177.09 66.01,176.48 66.08,175.86 L 66.18,175.84 Z M 66.18,175.84" />
        </g>
        <g id="jonnieSideRight2-group69">
            <path id="jonnieSideRight2-bezier68" stroke="none" fill="rgb(0, 0, 0)" d="M 64.17,175.56 C 64.41,175.92 64.59,176.31 64.67,176.77 64.7,176.99 64.81,177.27 64.63,177.53 64.49,177.78 64.06,178.03 63.76,177.79 L 63.74,177.69 C 63.84,177.36 63.7,177.28 63.7,177.16 63.67,177.05 63.82,176.93 63.87,176.75 63.96,176.4 64.03,176 64.08,175.59 L 64.17,175.56 Z M 64.17,175.56" />
        </g>
        <g id="jonnieSideRight2-group70">
            <path id="jonnieSideRight2-bezier69" stroke="none" fill="rgb(0, 0, 0)" d="M 74.36,141.84 C 74.19,143.35 74.13,144.86 74.08,146.38 74.03,147.9 74.02,149.4 74.29,150.88 74.8,153.85 75.88,156.69 77.02,159.49 78.17,162.29 79.46,165.04 80.57,167.89 81.12,169.31 81.64,170.77 81.92,172.3 82.2,173.81 82.41,175.31 82.62,176.82 L 83.85,185.84 C 84.31,188.81 84.73,191.84 85.64,194.65 86.16,196.1 86.49,197.63 86.74,199.14 86.99,200.65 87.15,202.17 87.22,203.7 87.3,205.23 87.33,206.75 87.25,208.28 87.2,209.04 87.13,209.8 87.02,210.56 86.89,211.31 86.76,212.08 86.38,212.77 L 86.29,212.72 C 86.61,212.04 86.68,211.27 86.76,210.53 86.82,209.78 86.83,209.02 86.82,208.27 86.81,206.76 86.72,205.25 86.57,203.75 86.22,200.76 85.8,197.75 84.73,194.97 84.19,193.5 83.87,191.99 83.57,190.49 83.27,188.99 83.04,187.49 82.84,185.98 82.42,182.96 82.13,179.93 81.77,176.92 81.59,175.42 81.41,173.91 81.16,172.43 80.92,170.97 80.44,169.55 79.91,168.13 78.85,165.31 77.61,162.53 76.5,159.7 75.39,156.87 74.35,153.98 73.89,150.94 73.64,149.42 73.72,147.87 73.82,146.36 73.92,144.85 74.04,143.33 74.26,141.82 L 74.36,141.84 Z M 74.36,141.84" />
        </g>
        <g id="jonnieSideRight2-group71">
            <path id="jonnieSideRight2-bezier70" stroke="none" fill="rgb(0, 0, 0)" d="M 74.63,86.47 C 76.37,90.76 77.95,95.12 79.22,99.58 79.84,101.81 80.39,104.07 80.66,106.4 80.91,108.72 80.81,111.07 80.52,113.38 79.94,118.01 78.72,122.49 78.04,127.04 L 77.8,128.75 C 77.76,129.04 77.75,129.31 77.66,129.65 L 77.44,130.5 76.5,133.85 C 75.88,136.07 75.24,138.31 74.81,140.53 L 74.27,139.93 C 79.43,139.42 84.6,139.07 89.79,138.91 92.37,138.81 95,138.84 97.58,139.04 100.16,139.18 102.74,139.35 105.33,139.44 L 105.33,139.54 C 102.74,139.61 100.15,139.65 97.56,139.6 94.96,139.51 92.41,139.61 89.82,139.75 84.67,140.05 79.51,140.52 74.36,140.94 L 73.69,140.99 73.82,140.35 C 74.29,138.02 74.99,135.83 75.65,133.6 L 76.65,130.28 76.88,129.46 C 76.94,129.24 76.97,128.93 77.01,128.65 L 77.28,126.92 C 78.03,122.33 79.31,117.86 79.95,113.31 80.26,111.03 80.38,108.73 80.18,106.45 79.96,104.17 79.45,101.91 78.88,99.67 77.69,95.21 76.2,90.82 74.54,86.51 L 74.63,86.47 Z M 74.63,86.47" />
        </g>
        <g id="jonnieSideRight2-group72">
            <path id="jonnieSideRight2-bezier71" stroke="none" fill="rgb(0, 0, 0)" d="M 84.2,212.78 C 82.39,214.14 80.44,215.34 78.29,216.09 77.75,216.27 77.19,216.42 76.64,216.51 76.1,216.63 75.57,216.83 75.05,217.03 74,217.45 72.98,217.93 71.97,218.43 67.93,220.45 64.03,222.75 60.24,225.19 56.45,227.64 52.76,230.25 49.34,233.19 47.64,234.67 46.06,236.29 44.36,237.78 42.67,239.29 40.93,240.75 39.09,242.09 37.26,243.41 35.33,244.66 33.18,245.5 32.12,245.92 30.97,246.22 29.82,246.28 28.73,246.39 27.64,246.67 26.61,247.06 25.58,247.46 24.59,247.98 23.73,248.65 22.88,249.32 22.16,250.18 21.87,251.19 21.72,251.69 21.7,252.22 21.78,252.73 21.86,253.26 21.99,253.83 22.1,254.38 22.31,255.5 22.51,256.61 22.69,257.73 23.03,259.98 23.27,262.25 23.27,264.53 23.27,265.67 23.18,266.83 23.06,267.95 22.96,269.04 22.98,270.16 23.09,271.26 23.56,275.68 25.32,279.97 28.25,283.32 28.97,284.15 29.75,285.01 30.62,285.51 30.83,285.63 31.06,285.71 31.22,285.71 31.37,285.7 31.43,285.66 31.54,285.49 31.73,285.13 31.74,284.59 31.76,284.02 31.84,281.76 31.93,279.49 32.09,277.23 32.44,272.72 32.93,268.17 34.29,263.77 34.65,262.68 35.07,261.59 35.65,260.57 36.24,259.52 36.94,258.64 37.65,257.73 39.09,255.95 40.66,254.29 42.31,252.73 45.63,249.61 49.28,246.83 53.28,244.61 55.28,243.52 57.41,242.59 59.56,241.89 61.66,241.13 63.72,240.22 65.75,239.24 69.8,237.28 73.73,235.05 77.7,232.89 79.69,231.81 81.68,230.73 83.78,229.83 85.92,229.03 87.98,228.19 90.06,227.28 92.13,226.39 94.2,225.48 96.29,224.62 97.34,224.2 98.39,223.78 99.46,223.4 100.53,223.03 101.61,222.66 102.74,222.52 L 102.76,222.62 C 101.65,222.79 100.58,223.18 99.53,223.58 98.47,223.98 97.44,224.43 96.4,224.88 94.34,225.79 92.3,226.75 90.24,227.69 88.19,228.63 86.08,229.52 84,230.34 81.95,231.24 79.98,232.35 78.01,233.45 74.08,235.66 70.17,237.95 66.11,239.98 64.08,240.99 62.01,241.94 59.87,242.74 57.74,243.47 55.72,244.39 53.77,245.48 49.86,247.65 46.26,250.39 43,253.45 41.37,254.99 39.82,256.62 38.43,258.35 37.74,259.22 37.04,260.12 36.51,261.05 35.99,261.99 35.58,263.03 35.24,264.08 33.89,268.31 33.36,272.82 32.99,277.3 32.81,279.54 32.7,281.79 32.61,284.05 32.58,284.6 32.61,285.24 32.27,285.89 32.12,286.23 31.65,286.56 31.23,286.54 30.82,286.53 30.5,286.38 30.23,286.23 29.14,285.59 28.39,284.71 27.64,283.84 24.63,280.36 22.82,275.89 22.37,271.33 22.26,270.18 22.25,269.03 22.36,267.87 22.48,266.75 22.57,265.65 22.58,264.53 22.6,262.29 22.37,260.05 22.05,257.83 21.88,256.72 21.69,255.61 21.48,254.5 21.38,253.94 21.26,253.41 21.16,252.82 21.07,252.23 21.11,251.6 21.28,251.02 21.64,249.84 22.45,248.89 23.37,248.18 24.29,247.46 25.33,246.93 26.41,246.52 27.49,246.12 28.62,245.83 29.77,245.73 30.89,245.67 31.95,245.4 32.99,245 35.07,244.2 36.98,242.98 38.81,241.68 40.63,240.37 42.37,238.93 44.06,237.45 45.77,235.97 47.36,234.37 49.08,232.89 52.54,229.95 56.27,227.37 60.08,224.93 63.9,222.52 67.82,220.25 71.88,218.25 72.9,217.76 73.93,217.28 74.99,216.87 75.51,216.67 76.05,216.47 76.61,216.35 77.17,216.26 77.71,216.12 78.25,215.95 80.37,215.22 82.33,214.04 84.14,212.7 L 84.2,212.78 Z M 84.2,212.78" />
        </g>
        <g id="jonnieSideRight2-group73">
            <path id="jonnieSideRight2-bezier72" stroke="none" fill="rgb(0, 0, 0)" d="M 105.94,222.15 C 107.13,221.84 108.28,221.38 109.29,220.74 110.31,220.11 111.15,219.25 111.23,218.1 111.4,216.94 111.28,215.72 111.31,214.52 111.34,213.3 111.34,212.08 111.45,210.83 L 111.55,210.81 C 111.99,212 112.2,213.23 112.32,214.48 112.43,215.73 112.29,216.99 112.02,218.25 111.9,218.86 111.58,219.58 111.11,220.04 110.65,220.53 110.1,220.88 109.54,221.18 108.4,221.73 107.19,222.06 105.96,222.24 L 105.94,222.15 Z M 105.94,222.15" />
        </g>
        <g id="jonnieSideRight2-group74">
            <path id="jonnieSideRight2-bezier73" stroke="none" fill="rgb(0, 0, 0)" d="M 109.95,157 C 109.77,155.12 109.63,153.24 109.54,151.35 109.49,150.41 109.36,149.46 109.45,148.52 109.53,147.57 109.65,146.62 109.98,145.7 L 110.08,145.7 C 110.3,146.66 110.39,147.59 110.45,148.53 110.51,149.47 110.38,150.41 110.34,151.35 110.25,153.23 110.16,155.12 110.05,157 L 109.95,157 Z M 109.95,157" />
        </g>
        <g id="jonnieSideRight2-group75">
            <path id="jonnieSideRight2-bezier74" stroke="none" fill="rgb(0, 0, 0)" d="M 110.96,207.07 C 110.89,200 110.8,192.93 110.65,185.86 110.56,182.32 110.4,178.79 110.38,175.26 110.38,171.72 110.33,168.19 110.42,164.65 L 110.52,164.64 C 111,168.16 111.2,171.7 111.38,175.23 111.53,178.77 111.47,182.31 111.45,185.85 111.42,192.93 111.28,200 111.06,207.07 L 110.96,207.07 Z M 110.96,207.07" />
        </g>
        <g id="jonnieSideRight2-group76">
            <path id="jonnieSideRight2-bezier75" stroke="none" fill="rgb(0, 0, 0)" d="M 111.3,116.15 C 112.45,111.52 113.41,106.84 114.07,102.12 114.73,97.41 115.15,92.63 114.76,87.92 114.57,85.56 114.03,83.27 113.34,81 112.66,78.74 111.85,76.51 110.96,74.31 109.21,69.91 107.08,65.64 104.75,61.48 L 104.83,61.42 C 107.65,65.3 109.94,69.54 111.89,73.93 112.83,76.14 113.65,78.41 114.29,80.73 114.93,83.05 115.43,85.44 115.56,87.86 115.85,92.68 115.33,97.48 114.57,102.2 113.77,106.92 112.68,111.57 111.4,116.18 L 111.3,116.15 Z M 111.3,116.15" />
        </g>
        <g id="jonnieSideRight2-group77">
            <path id="jonnieSideRight2-bezier76" stroke="none" fill="rgb(0, 0, 0)" d="M 110.8,148.1 C 112.91,152.34 114.89,156.66 116.64,161.07 117.51,163.28 118.31,165.51 119.01,167.79 119.7,170.07 120.29,172.39 120.56,174.78 121.11,179.5 121.54,184.23 121.74,188.97 121.81,191.34 121.89,193.71 121.89,196.09 121.87,198.46 121.93,200.84 121.56,203.21 L 121.47,203.19 C 121.54,202.02 121.45,200.83 121.4,199.65 L 121.2,196.11 120.74,189.02 C 120.42,184.31 120.2,179.58 119.76,174.87 119.56,172.54 119.02,170.24 118.39,167.97 117.75,165.7 116.99,163.47 116.17,161.25 114.55,156.8 112.7,152.44 110.71,148.14 L 110.8,148.1 Z M 110.8,148.1" />
        </g>
        <g id="jonnieSideRight2-group78">
            <path id="jonnieSideRight2-bezier77" stroke="none" fill="rgb(0, 0, 0)" d="M 121.68,205.19 C 121.9,206.26 122.01,207.35 122,208.44 121.99,209.53 121.86,210.63 121.45,211.66 120.98,212.66 120.35,213.54 119.84,214.5 119.31,215.45 118.82,216.42 118.39,217.41 117.51,219.39 116.85,221.46 116.37,223.57 115.86,225.67 115.7,227.85 115.23,229.98 113.4,238.51 110.29,246.69 107.11,254.75 105.69,258.83 104.58,263.05 104.09,267.34 103.88,269.47 103.78,271.67 104.36,273.69 104.67,274.7 105.19,275.56 106.09,276.13 106.96,276.77 107.87,277.35 108.79,277.9 112.51,280.09 116.43,282.02 120.48,283.46 121.49,283.8 122.54,284.13 123.54,284.2 124.62,284.27 125.72,284.27 126.85,284.54 127.4,284.68 128.04,284.93 128.44,285.5 128.64,285.77 128.75,286.09 128.82,286.39 128.85,286.55 128.87,286.7 128.88,286.85 128.88,287 128.92,287.12 128.85,287.39 128.63,287.92 128.26,288 127.99,288.13 127.69,288.23 127.41,288.29 127.13,288.34 126.57,288.44 126.02,288.48 125.46,288.51 123.26,288.62 121.06,288.46 118.91,288.32 116.74,288.2 114.57,288.1 112.41,288.01 110.24,287.93 108.07,287.88 105.91,287.87 103.74,287.87 101.57,287.88 99.45,288.11 97.31,288.34 95.17,288.72 92.99,288.97 91.9,289.09 90.8,289.19 89.67,289.15 89.1,289.13 88.53,289.08 87.95,288.93 87.38,288.78 86.76,288.52 86.29,288.02 85.81,287.53 85.61,286.83 85.59,286.22 85.57,285.64 85.65,285.02 85.77,284.47 86.02,283.36 86.41,282.32 86.82,281.3 87.64,279.27 88.52,277.3 89.3,275.28 90.89,271.27 92.05,267.1 92.61,262.82 93.16,258.54 93.3,254.19 93.52,249.85 93.74,245.51 93.97,241.16 94.68,236.85 95.05,234.7 95.55,232.56 96.35,230.52 97.15,228.5 98.29,226.53 100.05,225.2 L 100.12,225.28 C 98.41,226.64 97.34,228.6 96.61,230.62 95.87,232.65 95.44,234.78 95.13,236.92 94.49,241.2 94.32,245.54 94.16,249.88 94,254.22 93.93,258.58 93.42,262.92 92.91,267.28 91.79,271.55 90.23,275.64 89.45,277.69 88.55,279.68 87.75,281.68 87.35,282.67 86.97,283.68 86.75,284.69 86.54,285.68 86.44,286.78 87.02,287.34 87.6,287.95 88.69,288.12 89.71,288.16 90.75,288.19 91.82,288.1 92.88,287.98 95.02,287.74 97.16,287.36 99.35,287.13 101.55,286.9 103.74,286.91 105.91,286.92 108.1,286.95 110.27,287.02 112.44,287.12 114.62,287.22 116.79,287.34 118.96,287.48 121.14,287.63 123.28,287.8 125.43,287.71 125.96,287.68 126.49,287.64 127,287.56 127.25,287.52 127.5,287.46 127.72,287.39 127.94,287.32 128.14,287.16 128.11,287.16 128.12,287.18 128.11,287.02 128.1,286.9 128.1,286.78 128.08,286.66 128.06,286.55 128.01,286.32 127.94,286.11 127.82,285.94 127.58,285.6 127.15,285.4 126.67,285.27 125.68,285.04 124.58,285.01 123.51,284.94 122.33,284.85 121.29,284.49 120.25,284.14 116.12,282.64 112.22,280.69 108.46,278.46 107.53,277.89 106.61,277.29 105.72,276.63 105.29,276.33 104.8,275.91 104.5,275.42 104.17,274.94 103.95,274.4 103.78,273.86 103.17,271.68 103.3,269.44 103.52,267.27 104.04,262.92 105.19,258.69 106.65,254.58 109.89,246.51 113.05,238.4 114.95,229.92 115.42,227.81 115.6,225.63 116.13,223.51 116.63,221.39 117.31,219.31 118.21,217.32 118.66,216.33 119.16,215.36 119.69,214.41 120.21,213.46 120.86,212.56 121.31,211.6 121.72,210.6 121.86,209.51 121.88,208.43 121.89,207.35 121.79,206.27 121.58,205.21 L 121.68,205.19 Z M 121.68,205.19" />
        </g>
        <g id="jonnieSideRight2-group79">
            <path id="jonnieSideRight2-bezier78" stroke="none" fill="rgb(0, 0, 0)" d="M 79.79,105.69 C 78.81,107.41 77.81,109.11 76.79,110.81 76.28,111.66 75.85,112.55 75.25,113.34 74.66,114.13 74.02,114.89 73.3,115.6 L 73.21,115.55 C 73.47,114.55 73.93,113.66 74.41,112.79 74.89,111.92 75.54,111.17 76.13,110.37 77.29,108.77 78.49,107.19 79.71,105.63 L 79.79,105.69 Z M 79.79,105.69" />
        </g>
        <g id="jonnieSideRight2-group80">
            <path id="jonnieSideRight2-bezier79" stroke="none" fill="rgb(0, 0, 0)" d="M 75.3,116.16 C 75.42,120.1 75.45,124.04 75.26,127.99 75.16,129.95 74.97,131.95 74.56,133.88 74.18,135.82 73.73,137.74 73.32,139.66 72.53,143.5 71.83,147.39 72.03,151.22 72.36,155.09 73.08,158.97 73.92,162.81 L 73.82,162.84 C 72.43,159.13 71.55,155.27 71.03,151.3 70.69,147.24 71.65,143.32 72.54,139.49 73.46,135.64 74.57,131.88 74.77,127.95 75.08,124.04 75.18,120.1 75.2,116.16 L 75.3,116.16 Z M 75.3,116.16" />
        </g>
        <g id="jonnieSideRight2-group200">
            <path id="jonnieSideRight2-bezier199" stroke="none" fill="rgb(0, 0, 0)" d="M 103.63,83.13 C 100.78,83.42 97.94,83.78 95.15,84.27 93.75,84.54 92.38,84.89 91.01,85.18 89.65,85.5 88.24,85.73 87.08,86.52 L 87.01,86.46 C 87.39,85.8 88.07,85.38 88.71,85.03 89.36,84.68 90.06,84.43 90.75,84.21 92.15,83.78 93.6,83.64 95.03,83.48 97.89,83.16 100.76,83.03 103.62,83.04 L 103.63,83.13 Z M 103.63,83.13" />
        </g>
        <g id="jonnieSideRight2-group201">
            <path id="jonnieSideRight2-bezier200" stroke="none" fill="rgb(0, 0, 0)" d="M 71.48,90.45 C 72.37,90.51 73.26,90.62 74.14,90.77 74.58,90.85 75.05,90.86 75.46,91.07 75.85,91.29 76.29,91.53 76.53,92.04 L 76.47,92.12 C 75.99,92.12 75.56,92.1 75.14,92.02 74.71,91.95 74.33,91.71 73.92,91.54 73.11,91.22 72.28,90.89 71.46,90.55 L 71.48,90.45 Z M 71.48,90.45" />
        </g>
        <g id="jonnieSideRight2-group202">
            <path id="jonnieSideRight2-bezier201" stroke="none" fill="rgb(0, 0, 0)" d="M 36.72,244.49 C 37.23,245.97 37.9,247.39 38.67,248.72 39.06,249.39 39.56,249.98 39.93,250.64 40.3,251.31 40.69,251.96 41.04,252.71 L 40.96,252.78 C 40.22,252.41 39.61,251.84 39.1,251.21 38.58,250.58 38.28,249.81 37.96,249.08 37.32,247.61 36.86,246.08 36.62,244.51 L 36.72,244.49 Z M 36.72,244.49" />
        </g>
        <g id="jonnieSideRight2-group203">
            <path id="jonnieSideRight2-bezier202" stroke="none" fill="rgb(0, 0, 0)" d="M 92.74,270.03 C 94.31,269.72 95.9,269.51 97.5,269.39 98.3,269.33 99.1,269.21 99.91,269.33 100.71,269.44 101.52,269.62 102.26,270.03 L 102.24,270.13 C 101.42,270.26 100.64,270.3 99.86,270.33 99.08,270.36 98.3,270.22 97.51,270.19 95.93,270.13 94.35,270.11 92.76,270.13 L 92.74,270.03 Z M 92.74,270.03" />
        </g>
        <g id="jonnieSideRight2-group204">
            <path id="jonnieSideRight2-bezier203" stroke="none" fill="rgb(0, 0, 0)" d="M 85.94,53.62 C 87.44,54.48 88.97,55.28 90.51,56.05 92.04,56.83 93.59,57.57 95.17,58.23 96.75,58.89 98.37,59.43 99.97,59.95 100.77,60.2 101.58,60.41 102.4,60.53 102.8,60.58 103.22,60.61 103.61,60.55 104.02,60.52 104.41,60.38 104.75,60.13 L 104.83,60.2 C 104.29,60.97 103.25,61.19 102.37,61.22 101.46,61.26 100.57,61.11 99.71,60.91 97.98,60.5 96.4,59.73 94.84,58.96 91.72,57.43 88.75,55.65 85.89,53.71 L 85.94,53.62 Z M 85.94,53.62" />
        </g>
    </g>
</svg>
