<?xml version="1.0" encoding="UTF-8"?>
<!DOCTYPE svg PUBLIC "-//W3C//DTD SVG 1.1//EN" "http://www.w3.org/Graphics/SVG/1.1/DTD/svg11.dtd">
<svg version="1.1" xmlns="http://www.w3.org/2000/svg" xmlns:xlink="http://www.w3.org/1999/xlink" width="200" height="100"  xml:space="preserve" id="jonnieTop4">
    <!-- Generated by PaintCode - http://www.paintcodeapp.com -->
    <g id="jonnieTop4-group2">
        <g id="jonnieTop4-group266">
            <g id="jonnieTop4-group267">
                <path id="jonnieTop4-bezier263" stroke="none" fill="rgb(0, 0, 0)" d="M 34.43,45.56 C 35.36,45.21 36.36,45.19 37.33,45.18 38.31,45.17 39.28,45.22 40.25,45.29 L 46.04,45.78 C 47.97,45.94 49.9,46 51.82,46.17 L 57.6,46.67 57.6,46.77 C 55.67,47.12 53.71,47.2 51.76,47.17 49.81,47.13 47.88,46.84 45.96,46.58 L 40.2,45.79 C 39.24,45.66 38.28,45.54 37.32,45.48 36.36,45.43 35.38,45.38 34.46,45.66 L 34.43,45.56 Z M 34.43,45.56" />
            </g>
            <g id="jonnieTop4-group268">
                <path id="jonnieTop4-bezier264" stroke="none" fill="rgb(0, 0, 0)" d="M 34.9,35.79 C 34.62,37.15 34.56,38.51 34.62,39.86 34.64,40.54 34.8,41.2 34.79,41.87 34.79,42.54 34.78,43.21 34.69,43.94 L 34.6,43.97 C 34.15,43.36 33.93,42.66 33.79,41.97 33.65,41.26 33.76,40.54 33.82,39.84 33.94,38.44 34.25,37.04 34.8,35.76 L 34.9,35.79 Z M 34.9,35.79" />
            </g>
            <g id="jonnieTop4-group269">
                <path id="jonnieTop4-bezier265" stroke="none" fill="rgb(0, 0, 0)" d="M 56.67,30.33 C 53.07,31.49 49.44,32.56 45.77,33.51 43.94,33.99 42.11,34.5 40.22,34.78 39.28,34.92 38.33,35.04 37.38,35.07 36.42,35.11 35.44,35.13 34.5,34.88 L 34.51,34.78 C 36.39,34.66 38.2,34.17 40.04,33.8 41.88,33.4 43.74,33.1 45.59,32.73 49.28,31.95 52.96,31.11 56.64,30.23 L 56.67,30.33 Z M 56.67,30.33" />
            </g>
            <g id="jonnieTop4-group270">
                <path id="jonnieTop4-bezier266" stroke="none" fill="rgb(0, 0, 0)" d="M 34.53,36.49 C 33.32,36.75 32.1,36.9 30.86,36.99 30.25,37.03 29.62,37.15 29.01,37.05 28.39,36.96 27.78,36.82 27.19,36.49 L 27.2,36.39 C 27.83,36.17 28.44,36.09 29.05,36.05 29.65,36 30.26,36.15 30.86,36.19 32.08,36.28 33.3,36.36 34.52,36.39 L 34.53,36.49 Z M 34.53,36.49" />
            </g>
            <g id="jonnieTop4-group271">
                <path id="jonnieTop4-bezier267" stroke="none" fill="rgb(0, 0, 0)" d="M 34.53,44.49 L 30.85,44.7 C 30.24,44.74 29.64,44.87 29.04,44.81 28.43,44.76 27.84,44.68 27.2,44.49 L 27.19,44.39 C 27.76,44.03 28.39,43.89 29.01,43.81 29.63,43.72 30.25,43.85 30.86,43.9 32.09,44.01 33.32,44.18 34.53,44.39 L 34.53,44.49 Z M 34.53,44.49" />
            </g>
            <g id="jonnieTop4-group272">
                <path id="jonnieTop4-bezier268" stroke="none" fill="rgb(0, 0, 0)" d="M 33.01,46.86 C 30.28,47.08 27.5,47.1 24.76,46.58 23.41,46.29 22.02,45.89 20.88,44.92 20.33,44.43 19.89,43.74 19.75,42.98 19.64,42.26 19.6,41.56 19.65,40.84 19.72,39.41 20.18,37.94 21.1,36.77 22.01,35.59 23.33,34.79 24.7,34.36 27.48,33.53 30.35,33.75 33.01,34.39 L 33,34.49 C 30.27,34.41 27.49,34.38 25.02,35.3 23.8,35.74 22.68,36.43 21.87,37.4 21.05,38.35 20.58,39.6 20.44,40.9 20.38,41.55 20.39,42.22 20.47,42.86 20.55,43.46 20.87,44.01 21.32,44.44 22.25,45.31 23.57,45.77 24.87,46.1 27.51,46.73 30.27,46.85 33,46.76 L 33.01,46.86 Z M 33.01,46.86" />
            </g>
        </g>
        <g id="jonnieTop4-group285">
            <path id="jonnieTop4-bezier281" stroke="none" fill="rgb(0, 0, 0)" d="M 87.96,58.1 C 88.17,60.29 88.82,62.43 89.87,64.36 90.93,66.28 92.39,67.97 94.11,69.33 97.54,72.05 102.05,73.31 106.36,72.82 110.69,72.4 114.8,70.24 117.56,66.91 120.35,63.61 121.73,59.17 121.27,54.9 120.85,50.6 118.6,46.58 115.23,43.94 111.9,41.25 107.49,39.96 103.24,40.39 98.96,40.73 94.85,42.77 91.97,46.02 90.53,47.64 89.4,49.55 88.71,51.62 88.03,53.7 87.77,55.92 87.96,58.1 Z M 87.86,58.11 C 87.37,53.72 88.74,49.14 91.56,45.67 92.97,43.93 94.72,42.46 96.7,41.38 98.69,40.31 100.89,39.64 103.13,39.39 107.66,38.94 112.32,40.31 115.85,43.17 119.38,46.01 121.69,50.32 122.07,54.81 122.5,59.32 121,63.93 118.06,67.33 115.15,70.75 110.86,72.94 106.41,73.32 101.96,73.72 97.39,72.32 93.97,69.49 90.54,66.69 88.27,62.52 87.86,58.11 Z M 87.86,58.11" />
        </g>
        <g id="jonnieTop4-group286">
            <path id="jonnieTop4-bezier282" stroke="none" fill="rgb(0, 0, 0)" d="M 122.3,56.79 C 122.78,56.5 123.24,56.15 123.61,55.76 123.99,55.38 124.29,54.9 124.24,54.52 124.19,54.12 123.87,54.01 123.45,53.77 123.02,53.54 122.5,53.36 121.95,53.08 L 121.95,52.98 C 122.53,52.71 123.16,52.67 123.8,52.84 124.13,52.92 124.45,53.11 124.71,53.42 124.96,53.73 125.08,54.17 125.04,54.54 124.94,55.33 124.4,55.79 123.93,56.14 123.42,56.47 122.89,56.7 122.33,56.88 L 122.3,56.79 Z M 122.3,56.79" />
        </g>
        <g id="jonnieTop4-group287">
            <path id="jonnieTop4-bezier283" stroke="none" fill="rgb(0, 0, 0)" d="M 106.94,10.21 C 108.61,11.54 110.23,12.9 111.8,14.34 112.59,15.06 113.42,15.74 114.09,16.59 114.42,17.02 114.74,17.45 115.01,17.94 115.15,18.18 115.27,18.43 115.37,18.71 115.4,18.85 115.45,18.99 115.44,19.17 115.43,19.26 115.39,19.38 115.3,19.44 115.2,19.49 115.12,19.48 115.05,19.47 L 115.05,19.37 C 115.19,19.32 115.19,19.27 115.15,19.19 115.12,19.11 115.04,19.01 114.96,18.92 114.81,18.73 114.62,18.54 114.45,18.36 L 113.34,17.26 C 112.59,16.53 111.95,15.69 111.24,14.91 109.81,13.36 108.34,11.82 106.88,10.29 L 106.94,10.21 Z M 106.94,10.21" />
        </g>
        <g id="jonnieTop4-group288">
            <path id="jonnieTop4-bezier284" stroke="none" fill="rgb(0, 0, 0)" d="M 88.61,39.9 L 90.89,30.47 C 91.28,28.9 91.63,27.34 91.97,25.73 92.27,24.12 92.92,22.59 93.97,21.27 L 94.06,21.31 C 93.83,22.96 93.43,24.49 92.82,25.98 92.24,27.47 91.89,29.07 91.44,30.61 90.56,33.73 89.63,36.83 88.71,39.93 L 88.61,39.9 Z M 88.61,39.9" />
        </g>
        <g id="jonnieTop4-group289">
            <path id="jonnieTop4-bezier285" stroke="none" fill="rgb(0, 0, 0)" d="M 113.16,23.52 C 114.44,24.3 115.31,25.58 115.95,26.91 116.57,28.26 116.94,29.72 117.14,31.19 117.35,32.66 117.46,34.15 117.29,35.63 117.11,37.1 116.8,38.54 116.25,39.92 L 116.16,39.9 C 116.16,38.42 116.26,36.99 116.29,35.55 116.33,34.12 116.44,32.7 116.35,31.27 116.25,29.85 116,28.44 115.49,27.1 115,25.78 114.27,24.47 113.11,23.61 L 113.16,23.52 Z M 113.16,23.52" />
        </g>
        <g id="jonnieTop4-group290">
            <path id="jonnieTop4-bezier286" stroke="none" fill="rgb(0, 0, 0)" d="M 82.83,85.61 C 82.8,85.15 82.81,84.68 82.86,84.22 82.93,83.75 83.02,83.31 83.08,82.86 83.18,81.95 83.22,81.04 83.24,80.12 L 83.35,74.6 C 83.41,72.76 83.48,70.89 83.94,69.06 84.39,67.25 85.11,65.43 86.33,64.01 L 86.42,64.06 C 85.68,65.76 85.22,67.49 84.91,69.27 84.61,71.04 84.32,72.83 84.15,74.65 L 83.74,80.15 C 83.65,81.07 83.54,81.99 83.37,82.9 83.28,83.36 83.16,83.81 83.06,84.25 82.97,84.69 82.93,85.14 82.93,85.6 L 82.83,85.61 Z M 82.83,85.61" />
        </g>
        <g id="jonnieTop4-group291">
            <path id="jonnieTop4-bezier287" stroke="none" fill="rgb(0, 0, 0)" d="M 114.13,73.07 C 112.86,75.28 111.55,77.48 110.15,79.62 108.73,81.75 107.23,83.84 105.46,85.73 103.71,87.61 101.59,89.34 99.05,90.15 96.52,90.95 93.88,91.03 91.34,90.75 L 91.34,90.65 C 93.88,90.36 96.42,90.12 98.72,89.21 101.02,88.35 103.09,86.93 104.89,85.17 106.68,83.4 108.25,81.39 109.74,79.34 111.24,77.28 112.66,75.16 114.05,73.02 L 114.13,73.07 Z M 114.13,73.07" />
        </g>
        <g id="jonnieTop4-group292">
            <path id="jonnieTop4-bezier288" stroke="none" fill="rgb(0, 0, 0)" d="M 96.19,16.85 C 96.6,15.76 97.31,14.82 98.07,13.95 98.85,13.09 99.72,12.32 100.65,11.62 101.57,10.92 102.51,10.22 103.57,9.75 104.63,9.27 105.73,8.89 106.89,8.72 L 106.93,8.81 C 105.98,9.49 105,10.06 104.03,10.63 103.08,11.22 102.05,11.67 101.1,12.28 100.15,12.87 99.25,13.54 98.42,14.3 97.6,15.05 96.8,15.89 96.29,16.89 L 96.19,16.85 Z M 96.19,16.85" />
        </g>
        <g id="jonnieTop4-group293">
            <path id="jonnieTop4-bezier289" stroke="none" fill="rgb(0, 0, 0)" d="M 107.55,10.77 C 109.79,9.28 112.51,8.79 115.15,8.63 117.81,8.48 120.48,8.85 123.07,9.33 128.28,10.23 133.51,11.02 138.76,11.65 144,12.25 149.28,12.73 154.52,12.74 155.82,12.75 157.12,12.61 158.48,12.6 159.82,12.6 161.16,12.65 162.5,12.87 163.82,13.08 165.15,13.41 166.36,14.05 166.96,14.37 167.53,14.79 167.94,15.35 168.36,15.91 168.51,16.68 168.29,17.32 L 168.19,17.3 C 168.33,16.66 168.13,16.01 167.71,15.53 167.3,15.06 166.75,14.72 166.16,14.46 164.99,13.93 163.7,13.69 162.41,13.56 161.11,13.44 159.8,13.41 158.5,13.47 157.21,13.52 155.88,13.71 154.54,13.74 149.18,13.87 143.91,13.15 138.66,12.44 133.41,11.71 128.19,10.82 122.98,9.83 120.4,9.27 117.8,8.86 115.16,8.93 112.55,9.02 109.84,9.45 107.61,10.85 L 107.55,10.77 Z M 107.55,10.77" />
        </g>
        <g id="jonnieTop4-group294">
            <path id="jonnieTop4-bezier290" stroke="none" fill="rgb(0, 0, 0)" d="M 158.08,20.93 C 159.21,20.6 160.36,20.32 161.54,20.16 162.12,20.08 162.72,20.03 163.32,20.05 163.9,20.1 164.59,20.15 165.03,20.71 165.09,20.78 165.11,20.85 165.16,20.95 165.18,21.02 165.21,21.07 165.22,21.17 165.25,21.36 165.22,21.53 165.17,21.7 165.05,22.02 164.82,22.26 164.59,22.46 164.1,22.85 163.56,23.11 163.02,23.37 161.95,23.87 160.8,24.24 159.86,24.84 159.8,24.88 159.74,24.92 159.69,24.96 L 159.59,25.04 159.5,25.11 C 159.31,25.21 159.08,25.25 158.91,25.23 158.54,25.2 158.25,25.06 157.98,24.92 157.43,24.64 156.94,24.31 156.44,24 155.45,23.37 154.44,22.77 153.39,22.28 151.3,21.29 149.02,20.7 146.72,20.59 144.4,20.5 142.05,20.69 139.71,20.86 L 132.66,21.38 C 127.95,21.64 123.22,21.96 118.49,21.62 L 118.5,21.52 C 123.21,21.29 127.89,20.82 132.58,20.38 134.93,20.18 137.28,19.99 139.64,19.87 142,19.76 144.37,19.63 146.77,19.79 149.17,19.96 151.54,20.62 153.68,21.69 154.75,22.22 155.77,22.86 156.75,23.51 157.24,23.83 157.73,24.17 158.22,24.44 158.47,24.57 158.73,24.69 158.95,24.71 159.07,24.73 159.14,24.7 159.22,24.68 L 159.31,24.62 159.33,24.6 C 159.29,24.63 159.34,24.6 159.33,24.6 L 159.38,24.56 C 159.45,24.51 159.51,24.47 159.58,24.43 160.65,23.79 161.78,23.47 162.86,23 163.39,22.77 163.92,22.52 164.37,22.18 164.82,21.85 165.1,21.35 164.79,20.88 164.49,20.46 163.86,20.35 163.31,20.3 162.73,20.26 162.14,20.3 161.56,20.36 160.4,20.49 159.24,20.73 158.1,21.03 L 158.08,20.93 Z M 158.08,20.93" />
        </g>
        <g id="jonnieTop4-group295">
            <path id="jonnieTop4-bezier291" stroke="none" fill="rgb(0, 0, 0)" d="M 117.33,20.9 C 117.28,21.76 117.19,22.62 117.04,23.47 116.96,23.89 116.96,24.35 116.73,24.74 116.62,24.94 116.5,25.13 116.32,25.31 116.24,25.4 116.14,25.49 116.01,25.57 115.94,25.6 115.86,25.65 115.74,25.65 115.61,25.65 115.54,25.54 115.53,25.48 L 115.61,25.42 C 115.76,25.42 115.64,25.33 115.67,25.26 L 115.7,24.99 C 115.72,24.79 115.76,24.59 115.79,24.39 115.87,23.99 116.11,23.64 116.27,23.24 L 117.24,20.88 117.33,20.9 Z M 117.33,20.9" />
        </g>
        <g id="jonnieTop4-group296">
            <path id="jonnieTop4-bezier292" stroke="none" fill="rgb(0, 0, 0)" d="M 122.21,60.11 C 124.65,60.2 127.09,60.33 129.52,60.53 130.74,60.63 131.97,60.66 133.18,60.92 134.37,61.18 135.6,61.46 136.7,62.1 L 136.66,62.19 C 135.44,62.1 134.23,62.03 133.03,61.91 131.82,61.8 130.63,61.51 129.43,61.33 L 122.19,60.22 122.21,60.11 Z M 122.21,60.11" />
        </g>
        <g id="jonnieTop4-group297">
            <path id="jonnieTop4-bezier293" stroke="none" fill="rgb(0, 0, 0)" d="M 135.41,64 C 136.1,64.51 136.65,65.19 137.05,65.98 137.43,66.77 137.62,67.66 137.62,68.56 137.61,69.45 137.5,70.37 137.09,71.16 136.68,71.95 136.14,72.65 135.42,73.18 L 135.34,73.12 C 135.6,72.28 135.92,71.53 136.16,70.77 136.4,70.02 136.73,69.3 136.82,68.51 136.92,67.73 136.84,66.93 136.59,66.17 136.35,65.4 135.93,64.67 135.35,64.07 L 135.41,64 Z M 135.41,64" />
        </g>
        <g id="jonnieTop4-group298">
            <path id="jonnieTop4-bezier294" stroke="none" fill="rgb(0, 0, 0)" d="M 134.35,76.7 C 130.83,77.33 127.3,77.93 123.77,78.51 122,78.8 120.25,79.15 118.46,79.32 116.68,79.49 114.89,79.62 113.09,79.58 L 113.07,79.48 C 114.81,78.98 116.57,78.64 118.33,78.33 120.09,78.03 121.88,77.9 123.66,77.71 127.22,77.32 130.77,76.95 134.34,76.6 L 134.35,76.7 Z M 134.35,76.7" />
        </g>
        <g id="jonnieTop4-group299">
            <path id="jonnieTop4-bezier295" stroke="none" fill="rgb(0, 0, 0)" d="M 137.29,62.76 C 139.55,63.21 141.81,63.69 144.01,64.45 144.56,64.65 145.11,64.86 145.64,65.21 145.9,65.36 146.18,65.69 146.28,66.01 146.39,66.32 146.44,66.61 146.5,66.91 146.69,68.08 146.72,69.24 146.74,70.41 146.75,71.57 146.72,72.73 146.61,73.91 146.58,74.2 146.54,74.5 146.48,74.81 146.45,74.97 146.42,75.11 146.34,75.32 L 146.33,75.36 146.3,75.42 146.29,75.43 C 146.28,75.44 146.28,75.45 146.24,75.51 146.16,75.61 146.11,75.64 146.07,75.69 145.97,75.76 145.88,75.82 145.8,75.86 145.15,76.17 144.59,76.25 144,76.37 141.67,76.71 139.36,76.82 137.04,76.7 L 137.03,76.6 C 139.31,76.15 141.6,75.89 143.81,75.39 144.34,75.28 144.92,75.14 145.31,74.94 145.36,74.92 145.39,74.89 145.41,74.88 145.41,74.88 145.42,74.87 145.39,74.91 145.37,74.94 145.39,74.92 145.4,74.9 L 145.41,74.89 C 145.4,74.91 145.43,74.84 145.39,74.93 L 145.39,74.92 145.39,74.91 C 145.42,74.85 145.46,74.71 145.49,74.59 145.55,74.34 145.59,74.06 145.63,73.79 145.79,72.68 145.88,71.53 145.94,70.39 145.97,69.26 145.98,68.11 145.85,67 145.82,66.73 145.77,66.45 145.7,66.21 145.63,65.97 145.53,65.84 145.31,65.68 144.88,65.37 144.35,65.13 143.83,64.91 141.73,64.05 139.49,63.43 137.27,62.86 L 137.29,62.76 Z M 137.29,62.76" />
        </g>
        <g id="jonnieTop4-group300">
            <path id="jonnieTop4-bezier296" stroke="none" fill="rgb(0, 0, 0)" d="M 147.22,65.9 C 150.15,66.25 153.13,66.44 156.06,66.19 156.8,66.13 157.5,66.02 158.24,65.87 158.98,65.74 159.72,65.64 160.45,65.55 161.93,65.38 163.41,65.23 164.89,65.11 167.85,64.9 170.81,64.62 173.81,64.75 174.56,64.77 175.31,64.84 176.06,64.97 176.44,65.03 176.82,65.11 177.2,65.22 177.39,65.28 177.58,65.34 177.78,65.44 177.97,65.56 178.21,65.65 178.38,65.99 178.42,66.08 178.43,66.17 178.44,66.27 178.44,66.35 178.43,66.37 178.43,66.43 L 178.4,66.72 C 178.37,66.92 178.34,67.12 178.28,67.32 178.17,67.71 177.93,68.14 177.54,68.37 176.77,68.79 175.99,68.68 175.26,68.64 L 175.25,68.54 C 175.97,68.43 176.77,68.37 177.27,67.97 177.5,67.78 177.63,67.5 177.68,67.18 177.71,67.02 177.72,66.85 177.72,66.67 L 177.72,66.42 C 177.71,66.38 177.71,66.3 177.71,66.3 177.7,66.3 177.7,66.31 177.7,66.31 177.68,66.26 177.3,66.08 176.99,66.03 176.65,65.96 176.3,65.91 175.94,65.88 175.23,65.82 174.5,65.79 173.77,65.77 170.84,65.7 167.88,65.68 164.93,65.83 161.96,65.95 159.06,66.18 156.09,66.56 153.11,66.72 150.14,66.44 147.21,66 L 147.22,65.9 Z M 147.22,65.9" />
        </g>
        <g id="jonnieTop4-group301">
            <path id="jonnieTop4-bezier297" stroke="none" fill="rgb(0, 0, 0)" d="M 177.23,70.65 C 177.02,71.99 176.62,73.29 176.02,74.52 175.42,75.73 174.58,76.88 173.42,77.68 172.26,78.48 170.79,78.8 169.4,78.68 168.03,78.54 166.72,78.34 165.38,78.17 L 157.4,77.19 C 156.08,76.99 154.75,76.84 153.42,76.71 152.76,76.65 152.1,76.6 151.43,76.58 150.77,76.55 150.1,76.57 149.45,76.69 L 149.42,76.6 C 150.7,76.08 152.1,76.05 153.45,76.02 154.81,76 156.16,76.1 157.51,76.19 160.2,76.43 162.85,76.93 165.5,77.38 166.82,77.6 168.17,77.85 169.46,78.04 170.73,78.19 172.05,77.95 173.15,77.26 174.25,76.58 175.11,75.53 175.75,74.38 176.39,73.22 176.86,71.94 177.13,70.64 L 177.23,70.65 Z M 177.23,70.65" />
        </g>
        <g id="jonnieTop4-group302">
            <path id="jonnieTop4-bezier298" stroke="none" fill="rgb(0, 0, 0)" d="M 148.61,76.69 C 147.9,77.05 147.15,77.31 146.35,77.44 145.95,77.51 145.52,77.63 145.11,77.49 144.7,77.36 144.28,77.12 144.07,76.69 L 144.12,76.6 C 144.57,76.53 144.9,76.51 145.26,76.5 145.6,76.48 145.94,76.62 146.31,76.64 147.04,76.7 147.81,76.68 148.58,76.6 L 148.61,76.69 Z M 148.61,76.69" />
        </g>
        <g id="jonnieTop4-group303">
            <path id="jonnieTop4-bezier299" stroke="none" fill="rgb(0, 0, 0)" d="M 88.66,25.03 C 85.88,25.35 83.1,25.75 80.33,26.2 77.56,26.63 74.8,27.12 72.06,27.71 69.33,28.3 66.63,29.03 63.97,29.8 62.63,30.17 61.32,30.62 60.05,31.16 59.42,31.44 58.8,31.74 58.23,32.11 57.65,32.47 57.11,32.92 56.74,33.5 L 56.65,33.46 C 57.21,32.09 58.53,31.25 59.74,30.54 60.99,29.84 62.33,29.33 63.66,28.85 66.35,27.93 69.14,27.41 71.91,26.92 77.46,25.94 83.05,25.32 88.66,24.93 L 88.66,25.03 Z M 88.66,25.03" />
        </g>
        <g id="jonnieTop4-group304">
            <path id="jonnieTop4-bezier300" stroke="none" fill="rgb(0, 0, 0)" d="M 66.12,48.24 C 64.6,48.12 63.08,47.9 61.59,47.49 60.84,47.29 60.06,47.11 59.38,46.66 58.72,46.23 58.08,45.63 57.82,44.84 L 57.9,44.78 C 58.57,45.2 59.2,45.49 59.86,45.78 60.52,46.06 61.15,46.45 61.84,46.74 63.22,47.3 64.68,47.74 66.14,48.15 L 66.12,48.24 Z M 66.12,48.24" />
        </g>
        <g id="jonnieTop4-group305">
            <path id="jonnieTop4-bezier301" stroke="none" fill="rgb(0, 0, 0)" d="M 50.58,75.24 C 55.78,75.09 60.99,74.99 66.2,74.96 68.8,74.93 71.4,74.86 74.01,74.98 75.31,75.07 76.61,75.13 77.91,75.26 79.21,75.41 80.52,75.48 81.8,75.91 L 81.76,76 C 81.14,75.91 80.48,75.93 79.83,75.94 L 77.88,75.95 73.98,75.98 C 71.38,75.99 68.79,75.84 66.19,75.76 L 50.58,75.34 50.58,75.24 Z M 50.58,75.24" />
        </g>
        <g id="jonnieTop4-group306">
            <path id="jonnieTop4-bezier302" stroke="none" fill="rgb(0, 0, 0)" d="M 46.58,81.69 C 44.48,80.69 42.26,79.87 40.07,79.07 37.87,78.26 35.64,77.51 33.39,76.95 32.27,76.69 31.11,76.44 30.03,76.44 29.54,76.44 28.88,76.54 28.3,76.55 27.7,76.57 27.11,76.57 26.51,76.55 25.32,76.47 24.11,76.35 22.94,76.01 22.36,75.84 21.79,75.62 21.26,75.28 20.76,74.94 20.26,74.42 20.24,73.78 L 20.34,73.76 C 20.51,74.32 20.98,74.67 21.48,74.88 21.99,75.11 22.54,75.24 23.1,75.33 24.22,75.51 25.38,75.58 26.53,75.55 27.1,75.56 27.68,75.54 28.26,75.52 28.86,75.51 29.36,75.44 30.05,75.45 31.31,75.53 32.46,75.85 33.6,76.18 35.88,76.85 38.07,77.7 40.25,78.6 42.41,79.54 44.56,80.47 46.63,81.61 L 46.58,81.69 Z M 46.58,81.69" />
        </g>
        <g id="jonnieTop4-group307">
            <path id="jonnieTop4-bezier303" stroke="none" fill="rgb(0, 0, 0)" d="M 20.86,72.06 C 22.04,72.38 23.23,72.65 24.41,72.86 25,72.96 25.6,72.96 26.17,73.11 26.75,73.26 27.3,73.42 27.92,73.66 L 27.92,73.76 C 27.32,74.07 26.66,74.13 26.03,74.1 25.39,74.09 24.8,73.83 24.21,73.64 23.03,73.24 21.9,72.75 20.82,72.16 L 20.86,72.06 Z M 20.86,72.06" />
        </g>
        <g id="jonnieTop4-group308">
            <path id="jonnieTop4-bezier304" stroke="none" fill="rgb(0, 0, 0)" d="M 22.92,69.97 C 24.1,70.29 25.29,70.56 26.47,70.77 27.06,70.87 27.66,70.87 28.23,71.02 28.81,71.17 29.37,71.32 29.98,71.57 L 29.99,71.67 C 29.38,71.97 28.72,72.03 28.09,72.01 27.45,71.99 26.86,71.74 26.27,71.54 25.09,71.15 23.96,70.65 22.88,70.06 L 22.92,69.97 Z M 22.92,69.97" />
        </g>
        <g id="jonnieTop4-group309">
            <path id="jonnieTop4-bezier305" stroke="none" fill="rgb(0, 0, 0)" d="M 34.88,71.89 C 34.34,71.48 33.75,71.15 33.14,70.89 32.54,70.62 31.91,70.43 31.27,70.34 30.63,70.24 30.01,70.33 29.38,70.31 28.75,70.31 28.12,70.36 27.39,70.37 L 27.35,70.28 C 27.87,69.76 28.57,69.46 29.29,69.32 30.02,69.17 30.76,69.36 31.45,69.56 32.84,69.97 34.04,70.78 34.95,71.82 L 34.88,71.89 Z M 34.88,71.89" />
        </g>
        <g id="jonnieTop4-group310">
            <path id="jonnieTop4-bezier306" stroke="none" fill="rgb(0, 0, 0)" d="M 36.91,73.17 C 39.52,72.84 42.15,72.62 44.79,72.52 46.11,72.46 47.44,72.37 48.76,72.53 49.43,72.61 50.09,72.71 50.74,72.89 51.39,73.07 52.06,73.28 52.6,73.73 L 52.55,73.82 C 51.29,73.52 49.99,73.57 48.7,73.52 47.4,73.5 46.1,73.37 44.79,73.32 42.17,73.24 39.54,73.23 36.91,73.27 L 36.91,73.17 Z M 36.91,73.17" />
        </g>
        <g id="jonnieTop4-group311">
            <path id="jonnieTop4-bezier307" stroke="none" fill="rgb(0, 0, 0)" d="M 88.86,91.65 L 83.51,91.24 C 81.73,91.06 79.93,91 78.16,90.64 74.63,89.93 71.16,89.07 67.69,88.19 64.21,87.3 60.74,86.43 57.32,85.32 55.63,84.75 53.92,84.18 52.25,83.53 51.41,83.2 50.58,82.87 49.75,82.5 49.35,82.31 48.94,82.11 48.54,81.89 48.16,81.66 47.72,81.49 47.45,81.06 L 47.54,81.02 C 47.8,81.31 48.27,81.46 48.66,81.63 49.08,81.79 49.5,81.94 49.92,82.07 50.77,82.36 51.62,82.62 52.47,82.87 54.19,83.38 55.9,83.89 57.62,84.36 L 67.9,87.41 C 71.33,88.39 74.78,89.35 78.26,90.15 79.98,90.57 81.77,90.7 83.54,90.94 L 88.87,91.55 88.86,91.65 Z M 88.86,91.65" />
        </g>
        <g id="jonnieTop4-group312">
            <path id="jonnieTop4-bezier308" stroke="none" fill="rgb(0, 0, 0)" d="M 71.99,88.24 C 72.41,88.06 72.54,87.49 72.63,87.03 72.71,86.54 72.73,86.04 72.72,85.55 72.72,84.55 72.62,83.55 72.49,82.55 72.36,81.56 72.1,80.58 72.02,79.57 71.93,78.57 71.87,77.56 71.95,76.51 L 72.04,76.49 C 72.51,77.44 72.79,78.42 73.01,79.42 73.24,80.43 73.24,81.46 73.28,82.49 73.32,83.51 73.32,84.54 73.22,85.57 73.16,86.09 73.08,86.6 72.92,87.1 72.84,87.35 72.75,87.6 72.61,87.83 72.47,88.05 72.3,88.29 72,88.35 L 71.99,88.24 Z M 71.99,88.24" />
        </g>
        <g id="jonnieTop4-group313">
            <path id="jonnieTop4-bezier309" stroke="none" fill="rgb(0, 0, 0)" d="M 87.82,28.53 C 85.59,28.01 83.25,28.54 81.21,29.47 79.16,30.42 77.34,31.84 75.88,33.56 74.41,35.26 73.3,37.27 72.59,39.4 71.86,41.54 71.61,43.76 71.5,46.05 71.23,50.6 71.18,55.15 71.22,59.7 71.22,61.98 71.31,64.25 71.48,66.51 71.67,68.77 71.93,71.04 72.6,73.22 L 72.5,73.26 C 71.56,71.15 71.13,68.86 70.79,66.59 70.47,64.31 70.32,62.02 70.22,59.72 70.05,55.13 70.33,50.55 70.71,45.99 70.86,43.72 71.17,41.36 71.98,39.18 72.76,37 73.95,34.95 75.5,33.23 77.06,31.51 78.97,30.11 81.09,29.2 83.2,28.31 85.59,27.84 87.84,28.43 L 87.82,28.53 Z M 87.82,28.53" />
        </g>
        <g id="jonnieTop4-group314">
            <path id="jonnieTop4-bezier310" stroke="none" fill="rgb(0, 0, 0)" d="M 81.73,74.52 C 81.28,71.21 81.05,67.87 80.96,64.52 80.89,61.17 80.97,57.81 81.25,54.46 81.53,51.12 81.94,47.77 82.81,44.5 83.71,41.26 84.87,38.06 86.62,35.18 L 86.71,35.22 C 85.48,38.34 84.49,41.5 83.79,44.75 83.06,47.98 82.43,51.24 82.05,54.55 81.67,57.85 81.49,61.18 81.46,64.51 81.42,67.85 81.51,71.19 81.83,74.51 L 81.73,74.52 Z M 81.73,74.52" />
        </g>
        <g id="jonnieTop4-group315">
            <path id="jonnieTop4-bezier311" stroke="none" fill="rgb(0, 0, 0)" d="M 113.07,21.33 C 111.86,20.54 110.43,20.16 109.02,19.95 107.61,19.73 106.17,19.72 104.75,19.85 103.33,19.98 101.94,20.3 100.53,20.55 99.12,20.79 97.72,21.1 96.26,21.33 L 96.23,21.24 C 97.5,20.49 98.89,19.96 100.31,19.57 101.74,19.18 103.23,19.07 104.71,19.05 106.19,19.02 107.68,19.13 109.12,19.46 110.55,19.81 111.97,20.33 113.13,21.25 L 113.07,21.33 Z M 113.07,21.33" />
        </g>
    </g>
</svg>
