<?xml version="1.0" encoding="UTF-8"?>
<!DOCTYPE svg PUBLIC "-//W3C//DTD SVG 1.1//EN" "http://www.w3.org/Graphics/SVG/1.1/DTD/svg11.dtd">
<svg version="1.1" xmlns="http://www.w3.org/2000/svg" xmlns:xlink="http://www.w3.org/1999/xlink" width="200" height="100"  xml:space="preserve" id="jonnieTop7">
    <!-- Generated by PaintCode - http://www.paintcodeapp.com -->
    <g id="jonnieTop7-group2">
        <g id="jonnieTop7-group432">
            <path id="jonnieTop7-bezier428" stroke="none" fill="rgb(0, 0, 0)" d="M 86.43,43.28 C 86.57,38.86 88.58,34.55 91.84,31.55 95.08,28.52 99.56,26.85 104.03,26.98 108.5,27.09 112.9,29.01 116.01,32.25 119.16,35.46 120.94,39.98 120.78,44.49 120.68,49.01 118.63,53.45 115.28,56.5 111.93,59.56 107.35,61.22 102.82,61.04 100.56,60.93 98.33,60.39 96.28,59.44 94.23,58.49 92.39,57.12 90.88,55.48 87.86,52.18 86.21,47.7 86.43,43.28 Z M 86.53,43.29 C 86.48,45.48 86.87,47.68 87.68,49.71 88.49,51.74 89.74,53.57 91.27,55.11 94.34,58.17 98.58,59.96 102.86,60.04 107.13,60.21 111.45,58.66 114.61,55.77 117.82,52.93 119.82,48.77 119.98,44.47 120.18,40.17 118.53,35.83 115.54,32.7 112.58,29.55 108.35,27.63 104.01,27.48 99.67,27.25 95.25,28.79 91.98,31.71 90.35,33.16 89,34.94 88.06,36.93 87.13,38.92 86.6,41.09 86.53,43.29 Z M 86.53,43.29" />
        </g>
        <g id="jonnieTop7-group433">
            <path id="jonnieTop7-bezier429" stroke="none" fill="rgb(0, 0, 0)" d="M 120.92,42.42 C 121.48,42.56 122.03,42.76 122.56,43.06 123.05,43.38 123.61,43.8 123.76,44.59 123.82,44.95 123.73,45.4 123.5,45.73 123.26,46.05 122.95,46.26 122.63,46.37 122,46.57 121.37,46.57 120.77,46.34 L 120.77,46.24 C 121.3,45.92 121.81,45.71 122.22,45.46 122.62,45.19 122.94,45.06 122.96,44.66 122.99,44.27 122.66,43.81 122.26,43.46 121.86,43.09 121.39,42.77 120.88,42.51 L 120.92,42.42 Z M 120.92,42.42" />
        </g>
        <g id="jonnieTop7-group434">
            <path id="jonnieTop7-bezier430" stroke="none" fill="rgb(0, 0, 0)" d="M 109.91,86.31 C 110.87,84.49 111.81,82.68 112.73,80.86 113.19,79.95 113.56,78.99 114.08,78.13 L 114.84,76.82 C 114.97,76.6 115.09,76.39 115.2,76.17 115.31,75.97 115.46,75.7 115.34,75.61 L 115.34,75.51 C 115.41,75.49 115.54,75.54 115.57,75.63 115.62,75.71 115.63,75.79 115.64,75.86 115.66,76.01 115.65,76.15 115.64,76.29 115.62,76.57 115.56,76.83 115.49,77.09 115.36,77.6 115.17,78.09 114.97,78.57 114.58,79.53 113.97,80.37 113.43,81.25 112.35,83 111.2,84.69 110,86.36 L 109.91,86.31 Z M 109.91,86.31" />
        </g>
        <g id="jonnieTop7-group435">
            <path id="jonnieTop7-bezier431" stroke="none" fill="rgb(0, 0, 0)" d="M 87.35,60.44 C 88.27,63.54 89.2,66.63 90.08,69.75 90.53,71.3 90.89,72.89 91.46,74.38 92.08,75.87 92.47,77.4 92.7,79.06 L 92.61,79.1 C 91.57,77.78 90.91,76.24 90.61,74.64 90.27,73.03 89.92,71.46 89.53,69.89 L 87.25,60.47 87.35,60.44 Z M 87.35,60.44" />
        </g>
        <g id="jonnieTop7-group436">
            <path id="jonnieTop7-bezier432" stroke="none" fill="rgb(0, 0, 0)" d="M 111.71,76.76 C 112.62,75.71 113.02,74.32 113.32,72.98 113.62,71.62 113.75,70.24 113.78,68.85 113.82,67.46 113.69,66.07 113.69,64.68 113.69,63.28 113.66,61.89 113.75,60.46 L 113.85,60.44 C 114.3,61.81 114.55,63.21 114.69,64.63 114.83,66.05 114.72,67.48 114.58,68.9 114.44,70.32 114.21,71.73 113.81,73.1 113.37,74.45 112.82,75.83 111.77,76.83 L 111.71,76.76 Z M 111.71,76.76" />
        </g>
        <g id="jonnieTop7-group437">
            <path id="jonnieTop7-bezier433" stroke="none" fill="rgb(0, 0, 0)" d="M 81.57,14.76 C 81.57,15.22 81.61,15.67 81.7,16.11 81.8,16.55 81.93,17 82.01,17.46 82.19,18.37 82.29,19.29 82.38,20.21 L 82.79,25.71 C 82.96,27.53 83.25,29.32 83.56,31.1 83.87,32.87 84.32,34.61 85.06,36.3 L 84.98,36.35 C 83.75,34.93 83.03,33.12 82.58,31.31 82.13,29.48 82.06,27.6 81.99,25.76 L 81.88,20.24 C 81.86,19.33 81.82,18.41 81.72,17.51 81.66,17.06 81.57,16.61 81.5,16.15 81.45,15.69 81.44,15.21 81.47,14.76 L 81.57,14.76 Z M 81.57,14.76" />
        </g>
        <g id="jonnieTop7-group438">
            <path id="jonnieTop7-bezier434" stroke="none" fill="rgb(0, 0, 0)" d="M 112.69,27.34 C 111.3,25.2 109.88,23.08 108.38,21.03 106.89,18.97 105.32,16.97 103.53,15.2 101.73,13.43 99.66,12.02 97.36,11.15 95.06,10.24 92.52,10.01 89.98,9.72 L 89.98,9.62 C 92.52,9.34 95.16,9.41 97.69,10.21 100.23,11.02 102.35,12.76 104.1,14.64 105.87,16.53 107.37,18.62 108.79,20.74 110.19,22.88 111.5,25.08 112.77,27.29 L 112.69,27.34 Z M 112.69,27.34" />
        </g>
        <g id="jonnieTop7-group439">
            <path id="jonnieTop7-bezier435" stroke="none" fill="rgb(0, 0, 0)" d="M 94.92,83.46 C 95.64,84.02 96.51,84.4 97.35,84.75 98.21,85.1 99.09,85.4 99.97,85.67 101.74,86.22 103.54,86.67 105.35,87.06 107.16,87.45 109,87.72 110.81,88.13 112.62,88.54 114.43,88.95 116.23,89.5 L 116.21,89.6 C 114.33,89.59 112.47,89.39 110.62,89.11 108.77,88.83 106.96,88.33 105.16,87.84 103.35,87.34 101.56,86.8 99.81,86.14 98.93,85.8 98.07,85.44 97.23,85.03 96.39,84.6 95.55,84.17 94.85,83.53 L 94.92,83.46 Z M 94.92,83.46" />
        </g>
        <g id="jonnieTop7-group440">
            <path id="jonnieTop7-bezier436" stroke="none" fill="rgb(0, 0, 0)" d="M 116.25,89.51 C 117.42,90.25 118.77,90.67 120.11,90.97 121.46,91.26 122.85,91.4 124.23,91.44 127.01,91.51 129.75,91.09 132.48,90.54 137.96,89.54 143.47,88.66 149,87.93 154.53,87.22 160.08,86.51 165.71,86.62 167.12,86.65 168.53,86.84 169.88,86.89 171.26,86.96 172.63,86.93 174,86.82 175.36,86.69 176.73,86.46 177.98,85.95 178.61,85.7 179.22,85.38 179.68,84.9 180.15,84.43 180.4,83.74 180.23,83.06 L 180.33,83.04 C 180.57,83.72 180.36,84.52 179.89,85.08 179.43,85.65 178.81,86.05 178.17,86.37 176.87,86.99 175.47,87.3 174.08,87.51 172.68,87.72 171.26,87.77 169.86,87.75 168.42,87.74 167.06,87.6 165.69,87.62 160.17,87.64 154.62,88.12 149.09,88.72 143.57,89.35 138.06,90.14 132.56,91.03 129.83,91.52 127.02,91.88 124.22,91.73 122.82,91.67 121.42,91.49 120.06,91.16 118.71,90.82 117.36,90.37 116.19,89.59 L 116.25,89.51 Z M 116.25,89.51" />
        </g>
        <g id="jonnieTop7-group441">
            <path id="jonnieTop7-bezier437" stroke="none" fill="rgb(0, 0, 0)" d="M 169.57,79.34 C 170.92,79.67 172.29,79.94 173.67,80.05 174.36,80.1 175.06,80.12 175.72,79.98 176.05,79.91 176.37,79.79 176.58,79.57 176.69,79.45 176.74,79.35 176.78,79.17 176.8,79.04 176.79,78.89 176.73,78.76 176.46,78.21 175.78,77.88 175.18,77.59 174.55,77.31 173.9,77.07 173.25,76.83 172.59,76.58 171.93,76.35 171.29,76 171.14,75.93 170.95,75.79 170.85,75.72 170.76,75.65 170.71,75.65 170.68,75.64 170.62,75.64 170.56,75.62 170.49,75.63 170.21,75.65 169.9,75.79 169.61,75.95 168.42,76.6 167.26,77.43 166.01,78.08 164.77,78.75 163.46,79.31 162.11,79.72 160.75,80.13 159.35,80.39 157.94,80.51 156.52,80.63 155.12,80.61 153.72,80.58 148.12,80.42 142.57,79.99 137.02,79.6 134.24,79.37 131.47,79.21 128.69,79.13 127.31,79.1 125.92,79.09 124.54,79.19 123.85,79.23 123.16,79.3 122.49,79.43 121.83,79.57 121.13,79.76 120.64,80.23 L 120.56,80.17 C 121.05,79.62 121.75,79.37 122.42,79.16 123.1,78.97 123.8,78.84 124.49,78.74 125.89,78.55 127.29,78.48 128.69,78.44 131.49,78.36 134.29,78.48 137.08,78.6 142.65,78.87 148.2,79.51 153.75,79.78 155.13,79.84 156.52,79.88 157.88,79.79 159.25,79.69 160.61,79.47 161.92,79.1 163.24,78.72 164.52,78.2 165.74,77.57 166.98,76.95 168.11,76.18 169.38,75.5 169.7,75.35 170.04,75.19 170.46,75.16 170.57,75.15 170.68,75.17 170.79,75.19 170.92,75.22 171.04,75.28 171.09,75.33 171.27,75.45 171.36,75.52 171.52,75.61 172.1,75.95 172.75,76.2 173.39,76.46 174.04,76.72 174.69,76.97 175.33,77.28 175.94,77.6 176.65,77.91 177.01,78.64 177.08,78.83 177.11,79.04 177.06,79.25 177.02,79.41 176.92,79.64 176.78,79.77 176.49,80.05 176.12,80.16 175.77,80.23 175.06,80.35 174.35,80.32 173.66,80.25 172.26,80.11 170.89,79.81 169.55,79.43 L 169.57,79.34 Z M 169.57,79.34" />
        </g>
        <g id="jonnieTop7-group442">
            <path id="jonnieTop7-bezier438" stroke="none" fill="rgb(0, 0, 0)" d="M 122.61,78.06 C 121.24,77.37 119.86,76.72 118.45,76.18 117.75,75.91 117.01,75.75 116.34,75.48 115.65,75.22 115,74.96 114.23,74.81 L 114.21,74.71 C 114.95,74.3 115.85,74.37 116.62,74.52 117.41,74.68 118.1,75.09 118.78,75.45 120.16,76.18 121.45,77.03 122.66,77.98 L 122.61,78.06 Z M 122.61,78.06" />
        </g>
        <g id="jonnieTop7-group443">
            <path id="jonnieTop7-bezier439" stroke="none" fill="rgb(0, 0, 0)" d="M 120.79,40.15 L 123.8,39.03 C 124.29,38.84 124.75,38.57 125.26,38.46 125.77,38.33 126.26,38.27 126.83,38.18 L 126.89,38.26 C 126.61,38.82 126.09,39.14 125.61,39.4 125.11,39.66 124.55,39.69 124.02,39.8 122.95,40.01 121.88,40.15 120.81,40.25 L 120.79,40.15 Z M 120.79,40.15" />
        </g>
        <g id="jonnieTop7-group444">
            <path id="jonnieTop7-bezier440" stroke="none" fill="rgb(0, 0, 0)" d="M 125.99,36.29 C 126.39,35.62 126.62,34.86 126.74,34.1 126.87,33.34 126.89,32.57 126.81,31.81 126.73,31.05 126.48,30.33 126.36,29.58 126.22,28.83 126.06,28.07 125.98,27.24 L 126.08,27.2 C 126.66,27.81 127.05,28.55 127.32,29.32 127.61,30.11 127.62,30.96 127.61,31.78 127.58,33.43 127.12,35.11 126.07,36.36 L 125.99,36.29 Z M 125.99,36.29" />
        </g>
        <g id="jonnieTop7-group445">
            <path id="jonnieTop7-bezier441" stroke="none" fill="rgb(0, 0, 0)" d="M 125.35,23.77 C 123.05,23.41 120.75,23.04 118.46,22.65 117.32,22.45 116.15,22.34 115.03,22.03 113.91,21.72 112.79,21.38 111.71,20.88 L 111.73,20.78 C 112.92,20.75 114.08,20.88 115.24,21.05 116.39,21.21 117.5,21.58 118.63,21.86 120.89,22.43 123.13,23.03 125.38,23.67 L 125.35,23.77 Z M 125.35,23.77" />
        </g>
        <g id="jonnieTop7-group446">
            <path id="jonnieTop7-bezier442" stroke="none" fill="rgb(0, 0, 0)" d="M 143.71,25.12 C 141.29,25.2 138.87,25.04 136.46,24.9 135.25,24.82 134.04,24.82 132.85,24.62 131.65,24.42 130.47,24.18 129.3,23.77 L 129.31,23.67 C 130.54,23.53 131.75,23.56 132.96,23.62 134.16,23.68 135.35,23.94 136.54,24.1 L 140.12,24.6 C 141.32,24.76 142.51,24.94 143.71,25.02 L 143.71,25.12 Z M 143.71,25.12" />
        </g>
        <g id="jonnieTop7-group447">
            <path id="jonnieTop7-bezier443" stroke="none" fill="rgb(0, 0, 0)" d="M 140.89,33.72 C 140.98,33.09 140.97,32.45 140.94,31.82 140.93,31.19 140.88,30.56 140.82,29.93 140.76,29.3 140.6,28.68 140.62,28.05 140.63,27.42 140.67,26.79 140.82,26.12 L 140.92,26.1 C 141.31,26.68 141.49,27.33 141.62,27.97 141.74,28.61 141.65,29.27 141.62,29.91 141.54,31.2 141.42,32.51 140.99,33.74 L 140.89,33.72 Z M 140.89,33.72" />
        </g>
        <g id="jonnieTop7-group448">
            <path id="jonnieTop7-bezier444" stroke="none" fill="rgb(0, 0, 0)" d="M 129.6,37.5 C 131.64,36.86 133.69,36.23 135.74,35.63 136.77,35.33 137.77,34.94 138.83,34.75 139.88,34.55 140.94,34.39 142.04,34.37 L 142.07,34.46 C 141.11,35.02 140.09,35.39 139.07,35.72 138.05,36.05 136.99,36.19 135.94,36.41 133.84,36.84 131.74,37.23 129.62,37.6 L 129.6,37.5 Z M 129.6,37.5" />
        </g>
        <g id="jonnieTop7-group449">
            <path id="jonnieTop7-bezier445" stroke="none" fill="rgb(0, 0, 0)" d="M 142.04,34.37 C 145.32,33.93 148.62,33.65 151.94,33.8 155.26,34.18 158.5,34.41 161.81,34.54 165.1,34.68 168.4,34.67 171.67,34.61 172.49,34.58 173.31,34.56 174.11,34.51 174.51,34.48 174.91,34.44 175.3,34.38 175.67,34.31 176.09,34.21 176.29,34.07 176.34,34.04 176.34,34.03 176.34,34.06 176.35,34.09 176.35,33.88 176.35,33.82 176.36,33.64 176.35,33.44 176.32,33.27 176.26,32.91 176.11,32.6 175.83,32.4 175.23,31.99 174.35,31.94 173.54,31.82 L 173.55,31.72 C 173.96,31.69 174.38,31.67 174.8,31.69 175.22,31.71 175.66,31.75 176.09,31.98 176.52,32.21 176.82,32.68 176.93,33.12 177,33.35 177.03,33.57 177.05,33.79 177.06,33.94 177.08,33.94 177.07,34.18 177.03,34.41 176.89,34.57 176.78,34.66 176.31,35.02 175.89,35.09 175.47,35.2 175.05,35.3 174.63,35.37 174.21,35.43 173.37,35.55 172.54,35.6 171.71,35.63 168.37,35.73 165.07,35.46 161.77,35.24 160.12,35.12 158.47,34.98 156.83,34.8 156.01,34.71 155.18,34.61 154.36,34.48 153.54,34.33 152.74,34.23 151.92,34.16 148.64,33.93 145.33,34.12 142.06,34.47 L 142.04,34.37 Z M 142.04,34.37" />
        </g>
        <g id="jonnieTop7-group450">
            <path id="jonnieTop7-bezier446" stroke="none" fill="rgb(0, 0, 0)" d="M 175.66,29.72 C 175.44,28.54 175.07,27.38 174.58,26.29 174.07,25.2 173.42,24.17 172.53,23.42 171.66,22.65 170.53,22.24 169.39,22.3 168.83,22.32 168.25,22.46 167.64,22.57 L 165.86,22.91 C 163.48,23.38 161.1,23.89 158.67,24.14 157.45,24.25 156.23,24.35 155,24.34 153.78,24.31 152.51,24.29 151.36,23.76 L 151.39,23.67 C 151.98,23.8 152.58,23.81 153.18,23.78 153.77,23.77 154.37,23.72 154.97,23.65 156.16,23.51 157.35,23.35 158.54,23.15 160.92,22.78 163.32,22.48 165.72,22.12 L 167.52,21.85 C 168.12,21.77 168.72,21.65 169.38,21.65 170.67,21.63 171.96,22.17 172.87,23.04 173.78,23.92 174.4,25.03 174.85,26.17 175.3,27.31 175.6,28.5 175.76,29.71 L 175.66,29.72 Z M 175.66,29.72" />
        </g>
        <g id="jonnieTop7-group451">
            <path id="jonnieTop7-bezier447" stroke="none" fill="rgb(0, 0, 0)" d="M 148.2,23.77 C 147.43,23.69 146.66,23.67 145.93,23.72 145.56,23.75 145.22,23.89 144.88,23.87 144.52,23.85 144.19,23.83 143.73,23.76 L 143.69,23.67 C 143.9,23.24 144.32,23 144.73,22.88 145.14,22.74 145.57,22.86 145.97,22.92 146.77,23.05 147.52,23.31 148.22,23.67 L 148.2,23.77 Z M 148.2,23.77" />
        </g>
        <g id="jonnieTop7-group452">
            <path id="jonnieTop7-bezier448" stroke="none" fill="rgb(0, 0, 0)" d="M 87.3,75.43 C 82.4,75.04 77.52,74.4 72.69,73.4 70.28,72.9 67.86,72.37 65.55,71.43 64.4,70.94 63.26,70.42 62.21,69.71 61.19,69.01 60.14,68.13 59.75,66.9 L 59.85,66.86 C 60.16,67.39 60.57,67.82 61.06,68.17 61.52,68.53 62.04,68.84 62.57,69.11 63.63,69.66 64.75,70.11 65.9,70.5 68.18,71.28 70.51,72.02 72.88,72.62 75.24,73.21 77.64,73.71 80.05,74.15 82.46,74.61 84.88,75.01 87.31,75.33 L 87.3,75.43 Z M 87.3,75.43" />
        </g>
        <g id="jonnieTop7-group453">
            <path id="jonnieTop7-bezier449" stroke="none" fill="rgb(0, 0, 0)" d="M 67.93,52.22 C 66.65,52.63 65.38,53.08 64.2,53.65 63.61,53.93 63.09,54.32 62.53,54.6 61.97,54.89 61.44,55.19 60.84,55.58 L 60.76,55.52 C 60.91,54.8 61.43,54.2 61.99,53.76 62.55,53.31 63.25,53.12 63.91,52.9 65.22,52.48 66.57,52.26 67.91,52.12 L 67.93,52.22 Z M 67.93,52.22" />
        </g>
        <g id="jonnieTop7-group454">
            <path id="jonnieTop7-bezier450" stroke="none" fill="rgb(0, 0, 0)" d="M 38.24,54.34 C 39.1,54.62 40.01,54.56 40.9,54.52 41.8,54.46 42.69,54.34 43.58,54.21 L 48.94,53.42 C 50.73,53.16 52.53,52.87 54.36,52.83 56.17,52.79 58.01,52.87 59.8,53.23 L 59.8,53.33 C 57.98,53.52 56.2,53.66 54.41,53.83 52.63,54 50.83,54.06 49.03,54.21 L 43.63,54.71 C 42.73,54.77 41.82,54.82 40.91,54.82 40.01,54.8 39.07,54.78 38.21,54.43 L 38.24,54.34 Z M 38.24,54.34" />
        </g>
        <g id="jonnieTop7-group455">
            <path id="jonnieTop7-bezier451" stroke="none" fill="rgb(0, 0, 0)" d="M 38.55,64.23 C 38.02,62.94 37.73,61.55 37.61,60.15 37.55,59.45 37.44,58.73 37.58,58.03 37.71,57.34 37.93,56.64 38.36,56.03 L 38.46,56.05 C 38.56,56.78 38.57,57.45 38.58,58.12 38.59,58.79 38.44,59.45 38.41,60.13 38.35,61.48 38.4,62.84 38.65,64.2 L 38.55,64.23 Z M 38.55,64.23" />
        </g>
        <g id="jonnieTop7-group456">
            <path id="jonnieTop7-bezier452" stroke="none" fill="rgb(0, 0, 0)" d="M 58.9,69.76 C 55.48,68.88 52.05,68.04 48.61,67.27 46.88,66.89 45.14,66.6 43.44,66.2 41.73,65.83 40.04,65.34 38.29,65.21 L 38.27,65.11 C 39.15,64.86 40.07,64.89 40.97,64.92 41.86,64.96 42.75,65.08 43.63,65.22 45.39,65.5 47.09,66.01 48.8,66.49 52.21,67.44 55.59,68.51 58.93,69.67 L 58.9,69.76 Z M 58.9,69.76" />
        </g>
        <g id="jonnieTop7-group457">
            <path id="jonnieTop7-bezier453" stroke="none" fill="rgb(0, 0, 0)" d="M 38.3,63.6 C 37.15,63.63 36.02,63.71 34.89,63.8 34.32,63.85 33.76,63.99 33.2,63.94 32.63,63.9 32.06,63.83 31.47,63.6 L 31.46,63.5 C 32.01,63.18 32.58,63.04 33.15,62.94 33.73,62.85 34.31,62.96 34.88,63 36.03,63.09 37.18,63.24 38.31,63.5 L 38.3,63.6 Z M 38.3,63.6" />
        </g>
        <g id="jonnieTop7-group458">
            <path id="jonnieTop7-bezier454" stroke="none" fill="rgb(0, 0, 0)" d="M 38.31,55.6 C 37.17,55.82 36.04,55.98 34.89,56.09 34.32,56.15 33.74,56.28 33.16,56.19 32.59,56.1 31.99,55.96 31.46,55.6 L 31.48,55.5 C 32.08,55.32 32.62,55.23 33.19,55.19 33.75,55.13 34.31,55.26 34.88,55.29 L 38.3,55.5 38.31,55.6 Z M 38.31,55.6" />
        </g>
        <g id="jonnieTop7-group459">
            <path id="jonnieTop7-bezier455" stroke="none" fill="rgb(0, 0, 0)" d="M 36.88,53.23 C 34.29,53.14 31.65,53.27 29.16,53.93 27.94,54.27 26.71,54.77 25.9,55.67 25.51,56.11 25.26,56.66 25.21,57.23 25.15,57.86 25.14,58.49 25.2,59.11 25.33,60.35 25.74,61.55 26.47,62.51 27.19,63.47 28.2,64.19 29.33,64.65 31.63,65.61 34.28,65.6 36.88,65.5 L 36.89,65.6 C 34.36,66.26 31.61,66.47 28.97,65.58 27.68,65.11 26.46,64.26 25.66,63.09 24.86,61.92 24.48,60.53 24.41,59.18 24.37,58.5 24.4,57.82 24.49,57.15 24.58,56.43 24.93,55.74 25.42,55.23 26.43,54.21 27.76,53.76 29.04,53.45 31.64,52.9 34.29,52.91 36.89,53.13 L 36.88,53.23 Z M 36.88,53.23" />
        </g>
        <g id="jonnieTop7-group460">
            <path id="jonnieTop7-bezier456" stroke="none" fill="rgb(0, 0, 0)" d="M 49.22,25.02 L 64.83,24.61 C 67.43,24.52 70.03,24.38 72.62,24.38 L 76.52,24.41 78.47,24.42 C 79.12,24.43 79.78,24.45 80.4,24.36 L 80.44,24.45 C 79.16,24.88 77.85,24.95 76.55,25.1 75.25,25.23 73.95,25.29 72.65,25.38 70.05,25.51 67.44,25.43 64.84,25.4 59.63,25.37 54.42,25.27 49.22,25.12 L 49.22,25.02 Z M 49.22,25.02" />
        </g>
        <g id="jonnieTop7-group461">
            <path id="jonnieTop7-bezier457" stroke="none" fill="rgb(0, 0, 0)" d="M 45.28,18.76 C 43.21,19.89 41.05,20.83 38.89,21.76 36.72,22.66 34.52,23.51 32.24,24.19 31.1,24.52 29.95,24.84 28.69,24.91 28,24.92 27.5,24.86 26.9,24.85 26.32,24.82 25.75,24.81 25.17,24.81 24.02,24.79 22.87,24.85 21.74,25.03 21.18,25.12 20.63,25.25 20.13,25.48 19.62,25.7 19.15,26.05 18.98,26.6 L 18.88,26.58 C 18.91,25.95 19.4,25.42 19.9,25.08 20.43,24.75 21.01,24.53 21.59,24.35 22.76,24.01 23.96,23.89 25.15,23.81 25.75,23.79 26.35,23.79 26.94,23.81 27.52,23.82 28.18,23.92 28.67,23.93 29.76,23.92 30.91,23.68 32.03,23.42 34.29,22.85 36.51,22.1 38.71,21.3 40.91,20.49 43.12,19.68 45.23,18.67 L 45.28,18.76 Z M 45.28,18.76" />
        </g>
        <g id="jonnieTop7-group462">
            <path id="jonnieTop7-bezier458" stroke="none" fill="rgb(0, 0, 0)" d="M 33.59,28.54 C 32.68,29.59 31.48,30.39 30.09,30.81 29.4,31.01 28.66,31.19 27.93,31.05 27.21,30.91 26.51,30.61 25.99,30.09 L 26.03,30 C 26.76,30 27.39,30.06 28.02,30.05 28.65,30.04 29.27,30.13 29.91,30.03 30.55,29.93 31.18,29.74 31.78,29.47 32.39,29.22 32.98,28.89 33.52,28.47 L 33.59,28.54 Z M 33.59,28.54" />
        </g>
        <g id="jonnieTop7-group463">
            <path id="jonnieTop7-bezier459" stroke="none" fill="rgb(0, 0, 0)" d="M 35.56,27.1 C 38.19,27.13 40.82,27.12 43.43,27.05 44.74,27 46.04,26.86 47.34,26.84 48.63,26.79 49.93,26.85 51.19,26.55 L 51.24,26.63 C 50.71,27.08 50.03,27.29 49.38,27.48 48.73,27.66 48.07,27.76 47.41,27.84 46.08,27.99 44.75,27.91 43.43,27.85 40.79,27.75 38.16,27.52 35.55,27.2 L 35.56,27.1 Z M 35.56,27.1" />
        </g>
        <g id="jonnieTop7-group464">
            <path id="jonnieTop7-bezier460" stroke="none" fill="rgb(0, 0, 0)" d="M 87.51,8.81 L 82.18,9.42 C 80.41,9.66 78.62,9.79 76.9,10.21 73.42,11.01 69.97,11.98 66.54,12.95 L 56.26,16 C 54.53,16.47 52.82,16.98 51.11,17.49 50.26,17.74 49.41,18.01 48.56,18.29 48.14,18.43 47.72,18.57 47.3,18.73 46.91,18.9 46.44,19.05 46.18,19.34 L 46.09,19.31 C 46.36,18.87 46.8,18.7 47.18,18.47 47.58,18.25 47.99,18.05 48.39,17.86 49.22,17.5 50.05,17.16 50.89,16.83 52.56,16.18 54.27,15.61 55.96,15.04 59.38,13.93 62.85,13.06 66.33,12.18 69.8,11.3 73.27,10.43 76.8,9.72 78.57,9.36 80.37,9.3 82.15,9.12 L 87.5,8.71 87.51,8.81 Z M 87.51,8.81" />
        </g>
        <g id="jonnieTop7-group465">
            <path id="jonnieTop7-bezier461" stroke="none" fill="rgb(0, 0, 0)" d="M 70.64,12.02 C 70.94,12.07 71.11,12.32 71.25,12.54 71.39,12.77 71.48,13.01 71.56,13.26 71.72,13.76 71.8,14.28 71.86,14.79 71.96,15.82 71.96,16.85 71.92,17.88 71.88,18.9 71.88,19.94 71.65,20.94 71.43,21.94 71.15,22.93 70.68,23.87 L 70.59,23.85 C 70.51,22.81 70.57,21.8 70.66,20.79 70.74,19.79 71,18.81 71.13,17.81 71.26,16.82 71.36,15.82 71.37,14.82 71.37,14.32 71.35,13.82 71.27,13.34 71.18,12.88 71.05,12.3 70.63,12.12 L 70.64,12.02 Z M 70.64,12.02" />
        </g>
        <g id="jonnieTop7-group466">
            <path id="jonnieTop7-bezier462" stroke="none" fill="rgb(0, 0, 0)" d="M 86.48,71.93 C 84.23,72.52 81.84,72.06 79.73,71.17 77.61,70.25 75.7,68.85 74.15,67.14 72.59,65.41 71.4,63.37 70.62,61.18 69.81,59 69.5,56.64 69.35,54.38 68.97,49.81 68.69,45.23 68.86,40.64 68.96,38.35 69.11,36.05 69.43,33.77 69.77,31.51 70.2,29.21 71.15,27.11 L 71.24,27.14 C 70.57,29.32 70.32,31.59 70.13,33.85 69.95,36.12 69.86,38.39 69.86,40.66 69.83,45.21 69.87,49.77 70.15,54.32 70.25,56.61 70.5,58.83 71.23,60.97 71.95,63.1 73.05,65.1 74.52,66.81 75.98,68.52 77.8,69.94 79.85,70.89 81.89,71.82 84.23,72.35 86.46,71.84 L 86.48,71.93 Z M 86.48,71.93" />
        </g>
        <g id="jonnieTop7-group467">
            <path id="jonnieTop7-bezier463" stroke="none" fill="rgb(0, 0, 0)" d="M 80.47,25.85 C 80.15,29.17 80.06,32.52 80.1,35.85 80.13,39.18 80.31,42.51 80.69,45.82 81.07,49.13 81.7,52.39 82.43,55.62 83.13,58.86 84.12,62.03 85.35,65.14 L 85.26,65.19 C 83.51,62.31 82.35,59.1 81.46,55.86 80.59,52.6 80.17,49.24 79.89,45.9 79.61,42.55 79.53,39.2 79.6,35.85 79.7,32.5 79.92,29.16 80.37,25.84 L 80.47,25.85 Z M 80.47,25.85" />
        </g>
        <g id="jonnieTop7-group468">
            <path id="jonnieTop7-bezier464" stroke="none" fill="rgb(0, 0, 0)" d="M 111.77,79.11 C 110.61,80.03 109.19,80.55 107.76,80.9 106.32,81.23 104.83,81.34 103.35,81.32 101.87,81.29 100.38,81.18 98.95,80.79 97.53,80.4 96.15,79.87 94.87,79.12 L 94.9,79.03 C 96.36,79.26 97.76,79.57 99.17,79.81 100.58,80.06 101.97,80.39 103.39,80.52 104.82,80.64 106.25,80.63 107.66,80.41 109.07,80.2 110.5,79.82 111.7,79.04 L 111.77,79.11 Z M 111.77,79.11" />
        </g>
        <g id="jonnieTop7-group469">
            <path id="jonnieTop7-bezier465" stroke="none" fill="rgb(0, 0, 0)" d="M 26.25,27.04 C 25.65,26.82 25.03,26.68 24.42,26.62 23.8,26.57 23.16,26.62 22.71,26.97 22.16,27.36 21.5,27.58 20.84,27.63 20.18,27.69 19.48,27.6 18.92,27.24 L 18.94,27.19 C 19.56,27.33 20.18,27.29 20.78,27.17 21.37,27.04 21.95,26.87 22.47,26.58 23.1,26.22 23.82,26.23 24.45,26.35 25.1,26.47 25.7,26.71 26.27,27 L 26.25,27.04 Z M 26.25,27.04" />
        </g>
        <g id="jonnieTop7-group470">
            <path id="jonnieTop7-bezier466" stroke="none" fill="rgb(0, 0, 0)" d="M 23.8,28.08 C 23.33,28.36 22.8,28.55 22.24,28.64 21.96,28.69 21.67,28.74 21.38,28.67 21.11,28.59 20.82,28.48 20.62,28.25 L 20.64,28.2 C 20.94,28.17 21.19,28.19 21.45,28.17 21.7,28.17 21.95,28.23 22.21,28.24 22.73,28.24 23.26,28.18 23.78,28.03 L 23.8,28.08 Z M 23.8,28.08" />
        </g>
        <g id="jonnieTop7-group471">
            <path id="jonnieTop7-bezier467" stroke="none" fill="rgb(0, 0, 0)" d="M 24.44,29.45 C 24.11,29.58 23.74,29.67 23.37,29.69 23.18,29.71 22.98,29.74 22.8,29.67 22.62,29.59 22.45,29.49 22.34,29.29 L 22.36,29.25 C 22.57,29.18 22.73,29.19 22.9,29.18 23.07,29.18 23.22,29.26 23.39,29.29 23.72,29.36 24.06,29.39 24.43,29.4 L 24.44,29.45 Z M 24.44,29.45" />
        </g>
        <g id="jonnieTop7-group472">
            <path id="jonnieTop7-bezier468" stroke="none" fill="rgb(0, 0, 0)" d="M 25.36,29.56 C 25.07,29.29 24.8,28.99 24.59,28.63 24.48,28.46 24.35,28.26 24.36,28.02 24.37,27.79 24.48,27.49 24.74,27.43 L 24.78,27.47 C 24.77,27.7 24.8,27.82 24.86,27.97 24.9,28.12 24.91,28.29 24.95,28.47 25.06,28.82 25.22,29.18 25.4,29.53 L 25.36,29.56 Z M 25.36,29.56" />
        </g>
    </g>
</svg>
