<?xml version="1.0" encoding="UTF-8"?>
<!DOCTYPE svg PUBLIC "-//W3C//DTD SVG 1.1//EN" "http://www.w3.org/Graphics/SVG/1.1/DTD/svg11.dtd">
<svg version="1.1" xmlns="http://www.w3.org/2000/svg" xmlns:xlink="http://www.w3.org/1999/xlink" width="200" height="100"  xml:space="preserve" id="jonnieTop6">
    <!-- Generated by PaintCode - http://www.paintcodeapp.com -->
    <g id="jonnieTop6-group2">
        <g id="jonnieTop6-group259">
            <g id="jonnieTop6-group260">
                <path id="jonnieTop6-bezier257" stroke="none" fill="rgb(0, 0, 0)" d="M 53.66,52.37 C 54.32,52.65 55.05,52.6 55.75,52.56 56.45,52.49 57.15,52.38 57.86,52.25 L 62.08,51.46 C 63.49,51.2 64.91,50.91 66.37,50.87 67.81,50.83 69.28,50.91 70.69,51.26 L 70.69,51.36 C 69.25,51.56 67.84,51.69 66.44,51.87 65.03,52.03 63.61,52.1 62.19,52.25 L 57.92,52.74 C 57.2,52.81 56.48,52.86 55.76,52.85 55.04,52.84 54.28,52.81 53.62,52.47 L 53.66,52.37 Z M 53.66,52.37" />
            </g>
            <g id="jonnieTop6-group261">
                <path id="jonnieTop6-bezier258" stroke="none" fill="rgb(0, 0, 0)" d="M 53.89,62.26 C 53.44,60.96 53.19,59.57 53.07,58.18 53.02,57.49 52.91,56.78 53.03,56.08 53.15,55.39 53.34,54.69 53.74,54.07 L 53.84,54.09 C 53.98,54.81 54.01,55.48 54.03,56.15 54.05,56.82 53.91,57.49 53.87,58.17 53.81,59.52 53.82,60.88 53.99,62.24 L 53.89,62.26 Z M 53.89,62.26" />
            </g>
            <g id="jonnieTop6-group262">
                <path id="jonnieTop6-bezier259" stroke="none" fill="rgb(0, 0, 0)" d="M 69.98,67.8 C 67.28,66.93 64.57,66.09 61.85,65.31 60.49,64.94 59.1,64.64 57.76,64.24 56.41,63.87 55.09,63.37 53.7,63.25 L 53.68,63.15 C 54.39,62.9 55.14,62.93 55.86,62.97 56.59,63.01 57.3,63.13 58,63.27 59.41,63.55 60.75,64.07 62.09,64.55 64.78,65.5 67.41,66.56 70.01,67.71 L 69.98,67.8 Z M 69.98,67.8" />
            </g>
            <g id="jonnieTop6-group263">
                <path id="jonnieTop6-bezier260" stroke="none" fill="rgb(0, 0, 0)" d="M 53.7,61.64 C 52.79,61.67 51.89,61.75 51.01,61.84 50.56,61.89 50.12,62.03 49.68,61.98 49.23,61.94 48.79,61.87 48.31,61.64 L 48.3,61.54 C 48.72,61.22 49.17,61.07 49.62,60.98 50.08,60.88 50.55,61 51,61.04 51.92,61.13 52.83,61.28 53.71,61.54 L 53.7,61.64 Z M 53.7,61.64" />
            </g>
            <g id="jonnieTop6-group264">
                <path id="jonnieTop6-bezier261" stroke="none" fill="rgb(0, 0, 0)" d="M 53.71,53.64 C 52.82,53.86 51.92,54.02 51.01,54.13 50.56,54.18 50.09,54.31 49.63,54.22 49.17,54.14 48.7,54 48.3,53.64 L 48.32,53.54 C 48.8,53.36 49.23,53.27 49.67,53.22 50.11,53.17 50.55,53.3 51,53.33 L 53.7,53.54 53.71,53.64 Z M 53.71,53.64" />
            </g>
            <g id="jonnieTop6-group265">
                <path id="jonnieTop6-bezier262" stroke="none" fill="rgb(0, 0, 0)" d="M 52.58,51.27 C 50.37,51.17 48.08,51.32 46.06,52.13 45.06,52.53 44.15,53.18 43.72,54.1 43.5,54.57 43.42,55.05 43.41,55.6 43.39,56.15 43.4,56.68 43.44,57.22 43.62,59.37 44.57,61.42 46.32,62.5 48.06,63.63 50.36,63.67 52.57,63.54 L 52.59,63.64 C 50.48,64.32 47.99,64.52 45.81,63.36 44.74,62.76 43.89,61.79 43.4,60.7 42.9,59.6 42.69,58.43 42.65,57.28 42.62,56.7 42.64,56.12 42.69,55.55 42.72,54.99 42.85,54.35 43.14,53.81 43.72,52.71 44.81,52.04 45.88,51.66 48.07,50.93 50.37,50.94 52.59,51.17 L 52.58,51.27 Z M 52.58,51.27" />
            </g>
        </g>
        <g id="jonnieTop6-group384">
            <path id="jonnieTop6-bezier380" stroke="none" fill="rgb(0, 0, 0)" d="M 59,15.93 C 57.67,16.65 56.29,17.21 54.9,17.77 53.49,18.31 52.08,18.81 50.59,19.17 49.84,19.34 49.1,19.52 48.23,19.48 48.13,19.47 48.01,19.45 47.89,19.43 L 47.63,19.37 47.1,19.27 C 46.74,19.2 46.39,19.14 46.03,19.1 45.33,18.99 44.61,18.94 43.92,18.99 43.24,19.05 42.52,19.22 42.18,19.89 L 42.08,19.87 C 42.11,19.47 42.36,19.09 42.68,18.82 43.02,18.57 43.4,18.41 43.79,18.3 44.57,18.08 45.36,18.07 46.13,18.1 46.52,18.14 46.91,18.19 47.29,18.25 47.64,18.31 48.11,18.46 48.34,18.49 48.97,18.58 49.72,18.49 50.43,18.38 51.87,18.13 53.31,17.74 54.73,17.3 56.15,16.87 57.59,16.43 58.95,15.84 L 59,15.93 Z M 59,15.93" />
        </g>
        <g id="jonnieTop6-group385">
            <path id="jonnieTop6-bezier381" stroke="none" fill="rgb(0, 0, 0)" d="M 50.86,22.62 C 50.3,23.32 49.55,23.9 48.6,24.17 48.14,24.29 47.6,24.41 47.12,24.21 46.64,24.02 46.24,23.68 46.04,23.2 L 46.1,23.12 C 46.61,23.15 46.99,23.22 47.37,23.24 47.72,23.26 48.07,23.4 48.47,23.38 49.24,23.33 50.07,23.02 50.79,22.55 L 50.86,22.62 Z M 50.86,22.62" />
        </g>
        <g id="jonnieTop6-group386">
            <path id="jonnieTop6-bezier382" stroke="none" fill="rgb(0, 0, 0)" d="M 48.6,22.4 C 50.8,22.45 53.01,22.47 55.2,22.47 56.3,22.46 57.4,22.35 58.48,22.4 59.58,22.43 60.65,22.54 61.75,22.49 L 61.79,22.59 C 60.77,23.19 59.61,23.3 58.51,23.4 57.39,23.5 56.28,23.35 55.18,23.26 52.97,23.1 50.77,22.84 48.59,22.5 L 48.6,22.4 Z M 48.6,22.4" />
        </g>
        <g id="jonnieTop6-group387">
            <path id="jonnieTop6-bezier383" stroke="none" fill="rgb(0, 0, 0)" d="M 80.54,41.88 C 80.53,37.46 82.39,33.09 85.54,29.97 88.67,26.83 93.08,24.99 97.55,24.97 102.02,24.92 106.5,26.68 109.72,29.82 112.97,32.92 114.92,37.36 114.91,41.89 114.97,46.4 113.08,50.91 109.84,54.08 106.6,57.26 102.09,59.07 97.55,59.05 95.3,59.02 93.03,58.56 90.95,57.69 88.88,56.81 86.99,55.51 85.43,53.91 82.29,50.73 80.48,46.31 80.54,41.88 Z M 80.64,41.88 C 80.67,44.08 81.14,46.26 82.02,48.26 82.91,50.26 84.22,52.05 85.8,53.53 88.98,56.48 93.27,58.12 97.56,58.05 101.83,58.07 106.1,56.36 109.15,53.37 112.25,50.42 114.11,46.2 114.11,41.88 114.16,37.58 112.36,33.3 109.27,30.28 106.2,27.23 101.9,25.47 97.55,25.47 93.21,25.4 88.85,27.09 85.69,30.12 84.11,31.64 82.82,33.46 81.95,35.48 81.09,37.5 80.64,39.69 80.64,41.88 Z M 80.64,41.88" />
        </g>
        <g id="jonnieTop6-group388">
            <path id="jonnieTop6-bezier384" stroke="none" fill="rgb(0, 0, 0)" d="M 114.98,39.8 C 115.55,39.92 116.1,40.1 116.64,40.38 117.14,40.68 117.72,41.09 117.9,41.87 117.97,42.23 117.9,42.68 117.68,43.02 117.45,43.35 117.15,43.57 116.83,43.69 116.21,43.91 115.58,43.93 114.97,43.72 L 114.96,43.62 C 115.48,43.29 115.99,43.06 116.39,42.79 116.78,42.51 117.09,42.37 117.1,41.96 117.11,41.58 116.77,41.13 116.36,40.8 115.95,40.44 115.46,40.14 114.95,39.89 L 114.98,39.8 Z M 114.98,39.8" />
        </g>
        <g id="jonnieTop6-group389">
            <path id="jonnieTop6-bezier385" stroke="none" fill="rgb(0, 0, 0)" d="M 80.8,57.29 C 81.72,60.39 82.65,63.49 83.53,66.61 83.98,68.15 84.33,69.75 84.91,71.24 85.52,72.73 85.92,74.26 86.15,75.91 L 86.06,75.95 C 85.01,74.63 84.36,73.1 84.06,71.49 83.72,69.88 83.37,68.32 82.98,66.75 L 80.7,57.32 80.8,57.29 Z M 80.8,57.29" />
        </g>
        <g id="jonnieTop6-group390">
            <path id="jonnieTop6-bezier386" stroke="none" fill="rgb(0, 0, 0)" d="M 105.23,71.45 C 106.7,70.7 107.89,69.47 108.74,68.09 109.6,66.7 110.12,65.13 110.36,63.52 110.59,61.91 110.5,60.28 110.41,58.66 110.33,57.02 110.11,55.39 109.94,53.71 L 110.04,53.69 C 110.74,55.23 111.18,56.88 111.41,58.56 111.63,60.26 111.5,61.99 111.14,63.67 110.8,65.34 110.15,66.97 109.16,68.36 108.15,69.74 106.83,70.9 105.27,71.55 L 105.23,71.45 Z M 105.23,71.45" />
        </g>
        <g id="jonnieTop6-group391">
            <path id="jonnieTop6-bezier387" stroke="none" fill="rgb(0, 0, 0)" d="M 70.28,21.3 C 70.73,23.55 71.28,25.79 72.23,27.83 72.71,28.85 73.35,29.75 73.98,30.64 74.61,31.54 75.35,32.34 76.21,33.14 L 76.16,33.23 C 75.01,32.9 74,32.16 73.2,31.26 72.38,30.37 71.91,29.24 71.49,28.14 70.66,25.93 70.35,23.61 70.18,21.32 L 70.28,21.3 Z M 70.28,21.3" />
        </g>
        <g id="jonnieTop6-group392">
            <path id="jonnieTop6-bezier388" stroke="none" fill="rgb(0, 0, 0)" d="M 109.81,25.34 L 106.44,20.26 C 105.32,18.56 104.21,16.85 102.94,15.31 101.66,13.76 100.13,12.54 98.33,11.85 96.52,11.13 94.5,10.91 92.48,10.63 L 92.48,10.53 C 94.5,10.27 96.62,10.26 98.66,10.91 99.68,11.25 100.64,11.79 101.45,12.48 102.26,13.18 102.95,13.98 103.57,14.81 104.8,16.47 105.83,18.24 106.86,19.99 L 109.9,25.29 109.81,25.34 Z M 109.81,25.34" />
        </g>
        <g id="jonnieTop6-group393">
            <path id="jonnieTop6-bezier389" stroke="none" fill="rgb(0, 0, 0)" d="M 86.64,78.93 C 87.07,79.92 87.74,80.79 88.46,81.59 89.17,82.39 89.96,83.11 90.81,83.77 91.65,84.43 92.59,84.94 93.45,85.58 94.32,86.21 95.21,86.82 96.06,87.55 L 96.02,87.64 C 94.92,87.4 93.89,86.96 92.92,86.42 91.94,85.89 91.1,85.13 90.29,84.38 89.48,83.62 88.73,82.79 88.07,81.9 87.43,80.99 86.86,80.03 86.55,78.96 L 86.64,78.93 Z M 86.64,78.93" />
        </g>
        <g id="jonnieTop6-group394">
            <path id="jonnieTop6-bezier390" stroke="none" fill="rgb(0, 0, 0)" d="M 98.63,87.51 C 100.78,88.91 103.42,89.35 105.95,89.43 108.52,89.51 111.04,89.09 113.56,88.54 118.61,87.54 123.69,86.65 128.79,85.92 133.9,85.21 139.03,84.49 144.24,84.62 145.56,84.66 146.84,84.85 148.1,84.9 149.36,84.96 150.63,84.92 151.89,84.8 153.14,84.66 154.4,84.41 155.53,83.88 156.09,83.61 156.62,83.27 157,82.8 157.39,82.32 157.57,81.69 157.44,81.06 L 157.54,81.04 C 157.75,81.67 157.63,82.41 157.24,82.97 156.86,83.53 156.31,83.95 155.74,84.28 154.57,84.93 153.28,85.26 151.99,85.49 150.69,85.71 149.38,85.76 148.08,85.76 146.75,85.76 145.48,85.61 144.22,85.62 139.13,85.62 134,86.11 128.9,86.71 123.8,87.34 118.71,88.13 113.65,89.03 111.13,89.51 108.53,89.88 105.94,89.73 103.37,89.58 100.72,89.07 98.56,87.59 L 98.63,87.51 Z M 98.63,87.51" />
        </g>
        <g id="jonnieTop6-group395">
            <path id="jonnieTop6-bezier391" stroke="none" fill="rgb(0, 0, 0)" d="M 147.65,77.34 C 148.83,77.66 150.03,77.91 151.23,78.03 151.83,78.09 152.44,78.11 153.03,78.03 153.6,77.95 154.22,77.7 154.26,77.13 154.33,76.61 153.81,76.18 153.32,75.89 152.82,75.58 152.26,75.35 151.7,75.12 151.13,74.88 150.56,74.67 150,74.41 149.72,74.28 149.43,74.15 149.16,73.98 149.03,73.9 148.86,73.76 148.78,73.71 148.7,73.65 148.68,73.67 148.65,73.65 148.6,73.65 148.56,73.63 148.5,73.64 148.03,73.7 147.49,74.08 146.99,74.4 L 145.47,75.42 C 144.44,76.09 143.36,76.71 142.21,77.2 139.93,78.19 137.41,78.63 134.94,78.62 130.01,78.6 125.15,78.19 120.28,77.78 117.86,77.54 115.43,77.35 113,77.19 110.57,77.04 108.13,76.9 105.7,77.08 L 105.69,76.98 C 108.11,76.52 110.58,76.49 113.02,76.49 115.47,76.51 117.92,76.65 120.36,76.78 125.24,77.06 130.1,77.7 134.94,77.82 137.35,77.88 139.74,77.51 141.96,76.6 143.08,76.15 144.14,75.57 145.16,74.94 L 146.7,73.95 C 147.24,73.64 147.72,73.24 148.47,73.14 148.57,73.13 148.67,73.15 148.77,73.17 148.89,73.2 149.01,73.26 149.05,73.3 149.22,73.43 149.28,73.49 149.42,73.57 149.66,73.73 149.92,73.87 150.19,74 150.73,74.26 151.29,74.5 151.85,74.74 152.41,74.99 152.98,75.25 153.51,75.59 153.77,75.76 154.03,75.96 154.25,76.21 154.46,76.46 154.62,76.81 154.56,77.18 154.55,77.28 154.52,77.34 154.5,77.42 154.45,77.52 154.43,77.59 154.37,77.66 154.27,77.81 154.13,77.92 153.98,78 153.69,78.17 153.37,78.24 153.06,78.28 152.44,78.35 151.82,78.3 151.21,78.23 149.99,78.07 148.8,77.78 147.62,77.43 L 147.65,77.34 Z M 147.65,77.34" />
        </g>
        <g id="jonnieTop6-group396">
            <path id="jonnieTop6-bezier392" stroke="none" fill="rgb(0, 0, 0)" d="M 105.09,81.06 C 104.63,79.45 104.17,77.85 103.69,76.26 103.45,75.47 103.12,74.7 102.95,73.91 L 102.68,72.72 C 102.63,72.53 102.58,72.33 102.52,72.16 102.5,72.07 102.46,71.99 102.43,71.95 102.42,71.9 102.36,71.89 102.27,71.96 L 102.18,71.9 C 102.19,71.8 102.34,71.62 102.54,71.68 102.7,71.73 102.8,71.82 102.89,71.9 103.07,72.07 103.2,72.25 103.32,72.44 103.56,72.81 103.74,73.21 103.9,73.6 104.22,74.4 104.31,75.25 104.47,76.07 104.78,77.72 105.01,79.38 105.19,81.04 L 105.09,81.06 Z M 105.09,81.06" />
        </g>
        <g id="jonnieTop6-group397">
            <path id="jonnieTop6-bezier393" stroke="none" fill="rgb(0, 0, 0)" d="M 123.2,34.29 C 124.42,33.12 125.03,31.42 124.82,29.86 124.72,29.06 124.38,28.34 124.11,27.59 123.84,26.83 123.49,26.08 123.19,25.25 L 123.27,25.18 C 124.01,25.69 124.59,26.38 125.02,27.17 125.47,27.96 125.61,28.9 125.62,29.81 125.63,30.72 125.41,31.63 125,32.42 124.57,33.2 123.98,33.87 123.26,34.36 L 123.2,34.29 Z M 123.2,34.29" />
        </g>
        <g id="jonnieTop6-group398">
            <path id="jonnieTop6-bezier394" stroke="none" fill="rgb(0, 0, 0)" d="M 123.21,24.21 C 120.28,23.44 117.35,22.65 114.43,21.85 112.96,21.45 111.48,21.12 110.05,20.62 108.62,20.11 107.2,19.57 105.83,18.88 L 105.86,18.78 C 107.39,18.95 108.87,19.29 110.34,19.66 111.81,20.04 113.23,20.59 114.66,21.08 117.53,22.06 120.4,23.07 123.24,24.12 L 123.21,24.21 Z M 123.21,24.21" />
        </g>
        <g id="jonnieTop6-group399">
            <path id="jonnieTop6-bezier395" stroke="none" fill="rgb(0, 0, 0)" d="M 122.65,35.1 C 121.35,35.57 120,35.85 118.63,36.03 117.95,36.12 117.27,36.28 116.58,36.21 115.89,36.15 115.2,36.03 114.53,35.72 L 114.54,35.62 C 115.23,35.38 115.9,35.28 116.57,35.21 117.23,35.13 117.91,35.24 118.58,35.23 119.25,35.24 119.92,35.22 120.6,35.18 121.27,35.15 121.95,35.11 122.62,35.01 L 122.65,35.1 Z M 122.65,35.1" />
        </g>
        <g id="jonnieTop6-group400">
            <path id="jonnieTop6-bezier396" stroke="none" fill="rgb(0, 0, 0)" d="M 126.73,35.1 C 127.73,35.01 128.72,34.88 129.71,34.77 130.69,34.67 131.68,34.47 132.58,34.24 133.02,34.16 133.54,34.04 133.47,33.98 133.49,33.52 133.45,33.05 133.24,32.71 133.04,32.37 132.6,32.18 132.14,32.06 131.67,31.94 131.17,31.89 130.67,31.82 L 130.67,31.72 C 131.17,31.68 131.68,31.66 132.19,31.71 132.7,31.75 133.3,31.89 133.69,32.38 134.08,32.86 134.16,33.45 134.2,33.97 L 134.2,34.06 C 134.21,34.14 134.21,34.21 134.19,34.27 134.16,34.41 134.09,34.52 134.02,34.6 133.89,34.77 133.75,34.86 133.61,34.94 133.34,35.1 133.08,35.19 132.82,35.26 132.29,35.38 131.77,35.38 131.26,35.39 130.75,35.4 130.24,35.4 129.74,35.39 128.73,35.38 127.73,35.28 126.73,35.2 L 126.73,35.1 Z M 126.73,35.1" />
        </g>
        <g id="jonnieTop6-group401">
            <path id="jonnieTop6-bezier397" stroke="none" fill="rgb(0, 0, 0)" d="M 132.79,29.73 C 132.57,28.94 132.25,28.18 131.86,27.48 131.48,26.77 131.01,26.11 130.46,25.56 129.91,25.01 129.24,24.66 128.6,24.31 127.94,23.94 127.21,23.72 126.39,23.46 L 126.39,23.36 C 127.2,23.07 128.14,23.08 128.99,23.39 129.87,23.67 130.52,24.36 131.06,25.03 132.14,26.41 132.69,28.06 132.88,29.71 L 132.79,29.73 Z M 132.79,29.73" />
        </g>
        <g id="jonnieTop6-group402">
            <path id="jonnieTop6-bezier398" stroke="none" fill="rgb(0, 0, 0)" d="M 82.87,72.69 C 80.23,72.19 77.6,71.51 75.08,70.46 73.82,69.94 72.55,69.37 71.47,68.46 70.43,67.57 69.47,66.31 69.38,64.89 L 69.48,64.87 C 70.09,66.08 71.04,66.93 72.09,67.67 73.14,68.4 74.24,69.13 75.42,69.74 77.79,70.92 80.33,71.81 82.9,72.59 L 82.87,72.69 Z M 82.87,72.69" />
        </g>
        <g id="jonnieTop6-group403">
            <path id="jonnieTop6-bezier399" stroke="none" fill="rgb(0, 0, 0)" d="M 91.06,10.63 C 88.65,10.69 86.25,10.9 83.87,11.23 81.49,11.54 79.13,11.99 76.85,12.67 74.59,13.38 72.38,14.34 70.59,15.76 69.69,16.46 68.97,17.36 68.54,18.41 68.11,19.46 68.04,20.66 68.18,21.85 L 68.08,21.87 C 67.66,20.73 67.54,19.43 67.88,18.18 68.21,16.94 69.02,15.86 69.95,15 71.87,13.3 74.29,12.52 76.64,11.9 79,11.3 81.41,10.95 83.82,10.73 86.23,10.53 88.65,10.46 91.06,10.53 L 91.06,10.63 Z M 91.06,10.63" />
        </g>
        <g id="jonnieTop6-group404">
            <path id="jonnieTop6-bezier400" stroke="none" fill="rgb(0, 0, 0)" d="M 82.36,69.9 C 78.2,69 74.59,66.15 72.37,62.51 71.26,60.69 70.48,58.66 70.03,56.57 69.59,54.46 69.51,52.34 69.33,50.24 69.03,46.03 68.81,41.8 69.01,37.57 69.13,35.45 69.29,33.34 69.62,31.24 69.96,29.15 70.38,27.04 71.27,25.11 L 71.37,25.14 C 70.75,27.15 70.5,29.24 70.31,31.32 70.13,33.41 70.03,35.5 70.01,37.6 69.94,41.79 69.94,46 70.13,50.2 70.26,52.29 70.29,54.41 70.67,56.44 71.06,58.48 71.76,60.46 72.8,62.26 74.85,65.86 78.29,68.77 82.38,69.8 L 82.36,69.9 Z M 82.36,69.9" />
        </g>
        <g id="jonnieTop6-group405">
            <path id="jonnieTop6-bezier401" stroke="none" fill="rgb(0, 0, 0)" d="M 75.03,33.18 C 75.11,38.3 75.52,43.42 76.41,48.44 76.86,50.95 77.51,53.41 78.15,55.86 78.78,58.32 79.59,60.72 80.47,63.14 L 80.38,63.18 C 78.98,61.01 78,58.59 77.19,56.14 76.4,53.67 75.97,51.11 75.62,48.56 74.89,43.46 74.72,38.31 74.93,33.18 L 75.03,33.18 Z M 75.03,33.18" />
        </g>
        <g id="jonnieTop6-group406">
            <path id="jonnieTop6-bezier402" stroke="none" fill="rgb(0, 0, 0)" d="M 103.37,77.12 C 102.19,78.03 100.75,78.55 99.31,78.9 97.85,79.23 96.34,79.34 94.85,79.32 93.35,79.29 91.85,79.18 90.4,78.79 88.96,78.4 87.56,77.87 86.26,77.12 L 86.29,77.03 C 87.77,77.26 89.19,77.57 90.62,77.81 92.04,78.06 93.45,78.39 94.89,78.52 96.33,78.64 97.78,78.63 99.21,78.41 100.63,78.2 102.08,77.82 103.31,77.04 L 103.37,77.12 Z M 103.37,77.12" />
        </g>
        <g id="jonnieTop6-group407">
            <path id="jonnieTop6-bezier403" stroke="none" fill="rgb(0, 0, 0)" d="M 69.41,14.11 C 67.81,14.66 66.23,15.23 64.68,15.87 63.91,16.18 63.19,16.6 62.43,16.89 61.68,17.21 60.88,17.41 60.29,17.97 L 60.2,17.93 C 60.25,17.45 60.59,17.06 60.91,16.76 61.24,16.45 61.61,16.2 61.99,15.99 62.75,15.54 63.6,15.35 64.42,15.11 66.06,14.64 67.71,14.28 69.39,14.01 L 69.41,14.11 Z M 69.41,14.11" />
        </g>
        <g id="jonnieTop6-group408">
            <path id="jonnieTop6-bezier404" stroke="none" fill="rgb(0, 0, 0)" d="M 67.92,23.49 C 66.58,23.58 65.23,23.58 63.88,23.45 63.21,23.39 62.51,23.38 61.85,23.11 61.23,22.84 60.5,22.47 60.21,21.75 L 60.28,21.68 C 60.91,21.95 61.51,22.01 62.14,22.15 62.76,22.26 63.37,22.51 64.01,22.66 65.29,22.96 66.6,23.19 67.92,23.39 L 67.92,23.49 Z M 67.92,23.49" />
        </g>
        <g id="jonnieTop6-group409">
            <path id="jonnieTop6-bezier405" stroke="none" fill="rgb(0, 0, 0)" d="M 59.4,18.48 C 59.04,18.88 58.78,19.43 58.87,19.76 58.92,19.94 59.09,20.01 59.15,20.2 59.22,20.4 59.33,20.64 59.4,21.02 L 59.34,21.1 C 58.96,21.17 58.63,21.06 58.36,20.82 58.08,20.59 58.01,20.12 58.07,19.75 58.14,19.36 58.35,19.06 58.57,18.85 58.81,18.64 59.07,18.5 59.34,18.39 L 59.4,18.48 Z M 59.4,18.48" />
        </g>
        <g id="jonnieTop6-group410">
            <path id="jonnieTop6-bezier406" stroke="none" fill="rgb(0, 0, 0)" d="M 47.01,21.36 C 46.3,21.42 45.59,21.48 44.91,21.59 44.58,21.64 44.26,21.8 43.96,21.79 L 43.52,21.78 C 43.39,21.79 43.25,21.76 43.07,21.87 L 42.97,21.85 C 42.88,21.62 43.01,21.32 43.19,21.17 43.36,20.99 43.55,20.89 43.74,20.81 44.13,20.65 44.53,20.76 44.9,20.79 45.63,20.86 46.34,21.03 47.03,21.26 L 47.01,21.36 Z M 47.01,21.36" />
        </g>
    </g>
</svg>
