<?xml version="1.0" encoding="UTF-8"?>
<!DOCTYPE svg PUBLIC "-//W3C//DTD SVG 1.1//EN" "http://www.w3.org/Graphics/SVG/1.1/DTD/svg11.dtd">
<svg version="1.1" xmlns="http://www.w3.org/2000/svg" xmlns:xlink="http://www.w3.org/1999/xlink" width="200" height="300"  xml:space="preserve" id="jonnieSideRight5">
    <!-- Generated by PaintCode - http://www.paintcodeapp.com -->
    <g id="jonnieSideRight5-group2">
        <g id="jonnieSideRight5-group81">
            <path id="jonnieSideRight5-bezier80" stroke="none" fill="rgb(0, 0, 0)" d="M 126.33,30.23 C 126.12,26.75 125.57,23.27 124.6,19.93 124.1,18.26 123.49,16.62 122.67,15.1 121.85,13.58 120.81,12.15 119.47,11.1 118.15,10.01 116.46,9.53 114.77,9.23 113.07,8.94 111.33,8.88 109.61,8.99 106.17,9.22 102.75,10.13 99.73,11.76 96.72,13.38 94.11,15.84 92.74,18.94 92.03,20.48 91.66,22.13 91.53,23.84 91.39,25.53 91.47,27.24 91.83,28.91 92.16,30.58 92.76,32.19 93.44,33.79 94.11,35.39 94.89,36.99 95.32,38.75 95.76,40.49 95.77,42.36 95.27,44.08 94.78,45.8 93.91,47.36 92.92,48.8 L 92.83,48.75 C 93.72,47.25 94.47,45.65 94.83,43.97 95.22,42.29 95.14,40.56 94.64,38.93 94.16,37.29 93.38,35.74 92.65,34.14 91.92,32.54 91.25,30.87 90.85,29.12 90.46,27.36 90.35,25.54 90.5,23.75 90.64,21.97 91.06,20.16 91.84,18.52 93.38,15.21 96.2,12.68 99.35,11.05 102.52,9.41 106.04,8.53 109.57,8.34 111.34,8.25 113.12,8.34 114.87,8.67 115.74,8.83 116.61,9.06 117.45,9.36 118.29,9.68 119.09,10.14 119.78,10.71 121.18,11.85 122.21,13.34 123.02,14.91 123.83,16.48 124.42,18.15 124.89,19.84 125.81,23.24 126.29,26.73 126.42,30.23 L 126.33,30.23 Z M 126.33,30.23" />
        </g>
        <g id="jonnieSideRight5-group82">
            <path id="jonnieSideRight5-bezier81" stroke="none" fill="rgb(0, 0, 0)" d="M 124.18,33.52 C 124.26,36.02 124.19,38.53 123.69,41.01 123.39,42.23 123.05,43.53 122.04,44.51 121.78,44.75 121.46,44.94 121.1,45.04 120.92,45.09 120.74,45.12 120.55,45.12 L 120.08,45.14 C 119.48,45.16 118.87,45.22 118.28,45.32 115.89,45.73 113.78,47.05 112.41,48.97 111.69,49.91 111.19,51.02 110.83,52.17 110.65,52.75 110.52,53.34 110.45,53.95 110.37,54.54 110.31,55.18 110.49,55.75 L 110.41,55.8 C 109.82,54.61 109.97,53.26 110.16,52.01 110.39,50.74 110.88,49.51 111.59,48.4 112.32,47.31 113.3,46.37 114.46,45.72 115.61,45.08 116.88,44.7 118.16,44.53 118.8,44.44 119.43,44.41 120.08,44.41 L 120.54,44.42 C 120.67,44.42 120.8,44.4 120.92,44.38 121.17,44.32 121.4,44.2 121.61,44.02 122.45,43.29 122.88,42.06 123.2,40.9 123.82,38.51 124.03,36.01 124.08,33.52 L 124.18,33.52 Z M 124.18,33.52" />
        </g>
        <g id="jonnieSideRight5-group83">
            <path id="jonnieSideRight5-bezier82" stroke="none" fill="rgb(0, 0, 0)" d="M 90.99,51.11 C 87.63,54.94 84.53,59.03 82.07,63.47 80.86,65.69 79.78,68.03 79.4,70.49 79.3,71.11 79.29,71.69 79.29,72.35 79.29,72.99 79.26,73.65 79.22,74.28 79.13,75.57 78.96,76.85 78.73,78.12 78.28,80.66 77.58,83.14 76.9,85.59 76.56,86.82 76.24,88.04 75.97,89.27 75.68,90.49 75.57,91.72 75.38,93.01 74.95,95.55 74.44,98.06 73.84,100.54 73.52,101.78 73.2,103.02 72.85,104.25 72.67,104.87 72.48,105.48 72.27,106.08 72.04,106.69 71.9,107.31 71.48,107.86 L 71.42,107.78 C 71.71,107.27 71.83,106.6 71.99,106 72.14,105.39 72.28,104.76 72.41,104.14 72.68,102.9 72.92,101.65 73.15,100.39 73.62,97.89 74.07,95.38 74.39,92.87 74.56,91.64 74.67,90.32 74.96,89.05 75.23,87.78 75.59,86.55 75.95,85.32 76.69,82.87 77.44,80.45 77.94,77.97 78.19,76.73 78.38,75.49 78.49,74.23 78.55,73.6 78.59,72.98 78.6,72.34 78.61,71.72 78.64,71.03 78.75,70.39 79.21,67.8 80.36,65.45 81.63,63.22 84.23,58.8 87.45,54.79 90.91,51.04 L 90.99,51.11 Z M 90.99,51.11" />
        </g>
        <g id="jonnieSideRight5-group84">
            <path id="jonnieSideRight5-bezier83" stroke="none" fill="rgb(0, 0, 0)" d="M 117.25,113.15 C 118.41,108.52 119.37,103.84 120.03,99.12 120.68,94.41 121.1,89.63 120.71,84.92 120.52,82.56 119.98,80.27 119.29,78 118.61,75.74 117.81,73.51 116.92,71.31 115.16,66.91 113.03,62.64 110.7,58.48 L 110.79,58.42 C 113.61,62.3 115.9,66.54 117.84,70.93 118.78,73.14 119.61,75.41 120.25,77.73 120.88,80.05 121.38,82.44 121.51,84.86 121.81,89.68 121.28,94.48 120.52,99.2 119.73,103.92 118.63,108.57 117.35,113.18 L 117.25,113.15 Z M 117.25,113.15" />
        </g>
        <g id="jonnieSideRight5-group116">
            <path id="jonnieSideRight5-bezier115" stroke="none" fill="rgb(0, 0, 0)" d="M 70.38,110.9 C 70.01,111.84 69.78,112.82 69.66,113.79 69.61,114.27 69.67,114.76 69.58,115.22 69.49,115.7 69.41,116.17 69.22,116.7 L 69.12,116.72 C 68.77,116.26 68.62,115.72 68.58,115.18 68.53,114.64 68.73,114.12 68.88,113.62 69.19,112.61 69.66,111.67 70.29,110.85 L 70.38,110.9 Z M 70.38,110.9" />
        </g>
        <g id="jonnieSideRight5-group117">
            <path id="jonnieSideRight5-bezier116" stroke="none" fill="rgb(0, 0, 0)" d="M 69.12,121.48 C 67.91,124.13 66.94,126.91 66.5,129.78 66.4,130.5 66.33,131.22 66.34,131.94 66.36,132.66 66.38,133.4 66.38,134.13 66.38,135.59 66.34,137.06 66.29,138.52 66.03,144.36 65.63,150.2 64.69,156 64.44,157.45 64.16,158.9 63.75,160.33 63.53,161.05 63.3,161.76 62.93,162.46 62.76,162.81 62.49,163.16 62.31,163.42 62.12,163.71 61.94,164.01 61.77,164.32 61.09,165.56 60.59,166.9 60.17,168.27 59.74,169.64 59.41,171.04 59.19,172.46 58.96,173.87 58.83,175.31 58.92,176.72 58.97,177.42 59.07,178.12 59.29,178.76 59.4,179.08 59.55,179.38 59.73,179.64 L 60.38,180.5 C 60.82,181.08 61.25,181.68 61.72,182.19 61.96,182.44 62.2,182.64 62.49,182.72 62.79,182.8 63.16,182.8 63.52,182.82 64.25,182.85 64.98,182.87 65.7,182.86 66.06,182.86 66.43,182.84 66.78,182.8 66.96,182.78 67.14,182.75 67.3,182.7 67.46,182.64 67.64,182.55 67.54,182.4 L 67.63,182.35 C 67.7,182.43 67.69,182.59 67.61,182.67 67.53,182.75 67.44,182.79 67.35,182.83 67.18,182.9 67,182.95 66.81,182.98 66.45,183.06 66.08,183.1 65.72,183.14 64.98,183.21 64.25,183.24 63.52,183.27 63.15,183.28 62.78,183.31 62.37,183.22 61.94,183.13 61.58,182.86 61.31,182.59 60.76,182.06 60.31,181.49 59.84,180.93 L 59.12,180.08 C 58.87,179.76 58.69,179.39 58.55,179.03 58.27,178.29 58.14,177.54 58.06,176.78 57.92,175.28 58.01,173.78 58.2,172.31 58.64,169.37 59.44,166.48 60.9,163.83 61.09,163.5 61.29,163.18 61.52,162.87 61.76,162.53 61.95,162.31 62.1,162.01 62.43,161.42 62.67,160.74 62.89,160.07 63.32,158.7 63.63,157.28 63.9,155.86 64.93,150.14 65.44,144.31 65.79,138.49 65.87,137.04 65.94,135.58 65.98,134.12 66,133.39 65.99,132.68 65.99,131.93 66,131.19 66.08,130.46 66.2,129.73 66.72,126.83 67.76,124.07 69.03,121.44 L 69.12,121.48 Z M 69.12,121.48" />
        </g>
        <g id="jonnieSideRight5-group118">
            <path id="jonnieSideRight5-bezier117" stroke="none" fill="rgb(0, 0, 0)" d="M 65.71,178.99 C 65.35,178.47 65.08,177.88 64.96,177.22 64.85,176.57 64.95,175.84 65.31,175.22 65.69,174.65 65.92,174.13 66.4,173.66 66.63,173.43 66.89,173.18 67.28,173.04 67.48,172.96 67.72,172.95 67.91,173.01 68.11,173.08 68.25,173.2 68.36,173.34 L 68.31,173.42 C 67.96,173.39 67.75,173.5 67.62,173.65 67.48,173.82 67.32,174.05 67.16,174.3 66.86,174.78 66.35,175.25 65.97,175.67 65.28,176.47 65.33,177.82 65.79,178.94 L 65.71,178.99 Z M 65.71,178.99" />
        </g>
        <g id="jonnieSideRight5-group119">
            <path id="jonnieSideRight5-bezier118" stroke="none" fill="rgb(0, 0, 0)" d="M 70.72,172.55 C 70.63,174 70.6,175.46 70.69,176.91 70.75,177.62 70.8,178.37 71.07,179.01 71.14,179.17 71.22,179.3 71.35,179.37 71.51,179.46 71.66,179.55 71.82,179.63 72.13,179.78 72.49,179.9 72.71,179.73 72.93,179.57 73.02,179.19 73.06,178.86 73.1,178.51 73.1,178.15 73.09,177.79 73.04,177.08 73.04,176.32 73.09,175.59 73.18,174.12 73.38,172.67 73.57,171.23 73.68,170.51 73.78,169.79 73.86,169.07 73.89,168.72 73.93,168.35 73.92,168.02 73.92,167.74 73.77,167.39 73.66,167.04 73.2,165.66 72.78,164.24 72.47,162.81 71.82,159.94 71.53,156.98 71.71,154.02 71.89,151.05 72.59,148.19 73.3,145.35 74.04,142.52 74.91,139.73 75.74,136.94 76.56,134.17 77.43,131.36 77.65,128.53 L 77.81,124.17 C 77.87,122.71 77.92,121.26 77.95,119.8 L 78.05,119.8 C 78.24,122.71 78.33,125.62 78.35,128.55 78.34,130.06 78.06,131.52 77.76,132.95 77.45,134.39 77.08,135.81 76.7,137.22 L 74.26,145.61 C 73.49,148.4 72.75,151.22 72.51,154.08 72.28,156.94 72.52,159.85 73.1,162.67 73.39,164.09 73.78,165.48 74.21,166.87 74.3,167.22 74.47,167.55 74.48,168.01 74.48,168.4 74.43,168.77 74.39,169.13 74.3,169.87 74.18,170.59 74.07,171.31 73.84,172.74 73.61,174.18 73.49,175.62 73.43,176.35 73.41,177.05 73.44,177.79 73.45,178.16 73.44,178.53 73.38,178.9 73.31,179.27 73.26,179.69 72.88,179.98 72.45,180.25 72.02,180.03 71.7,179.88 71.53,179.79 71.37,179.69 71.22,179.6 71.03,179.48 70.91,179.29 70.84,179.11 70.56,178.39 70.53,177.65 70.49,176.92 70.43,175.46 70.5,174 70.62,172.54 L 70.72,172.55 Z M 70.72,172.55" />
        </g>
        <g id="jonnieSideRight5-group120">
            <path id="jonnieSideRight5-bezier119" stroke="none" fill="rgb(0, 0, 0)" d="M 77.13,117.93 C 79.39,115.04 81.58,112.09 83.7,109.09 85.83,106.11 87.9,103.07 89.77,99.93 90.69,98.35 91.57,96.75 92.29,95.09 93.03,93.41 93.8,91.74 94.6,90.09 95.42,88.44 96.24,86.79 97.16,85.19 97.63,84.39 98.11,83.6 98.65,82.84 98.93,82.47 99.22,82.1 99.55,81.76 99.88,81.43 100.25,81.08 100.74,81 L 100.76,81.09 C 100.34,81.24 100.04,81.6 99.77,81.95 99.5,82.31 99.26,82.69 99.04,83.09 98.58,83.87 98.17,84.69 97.78,85.51 97,87.16 96.23,88.83 95.5,90.51 94.74,92.18 93.98,93.85 93.19,95.51 92.39,97.19 91.44,98.79 90.45,100.35 86.48,106.57 81.92,112.36 77.21,118 L 77.13,117.93 Z M 77.13,117.93" />
        </g>
        <g id="jonnieSideRight5-group121">
            <path id="jonnieSideRight5-bezier120" stroke="none" fill="rgb(0, 0, 0)" d="M 83.38,158.58 C 84.24,161 85.57,163.31 87.59,164.87 88.09,165.26 88.63,165.6 89.19,165.9 L 90.06,166.35 C 90.39,166.58 90.59,166.84 90.79,167.11 91.56,168.19 92.14,169.34 92.76,170.48 95.13,175.07 97.45,179.68 100.01,184.15 102.56,188.62 105.3,192.98 108.09,197.3 108.79,198.39 109.5,199.46 110.22,200.53 110.92,201.59 111.73,202.63 112.33,203.8 112.95,204.95 113.5,206.14 113.96,207.35 114.38,208.58 114.85,209.81 114.92,211.13 L 114.83,211.13 C 114.61,209.88 114.07,208.69 113.55,207.52 113.02,206.36 112.43,205.22 111.76,204.14 111.1,203.05 110.28,202.08 109.53,201.01 108.77,199.96 108.02,198.9 107.29,197.84 104.35,193.58 101.73,189.11 99.27,184.56 96.8,180.01 94.55,175.36 92.27,170.74 91.68,169.59 91.11,168.43 90.4,167.39 90.23,167.14 90.03,166.88 89.82,166.74 L 88.99,166.27 C 88.42,165.94 87.87,165.57 87.37,165.15 85.33,163.46 84.07,161.06 83.29,158.62 L 83.38,158.58 Z M 83.38,158.58" />
        </g>
        <g id="jonnieSideRight5-group122">
            <path id="jonnieSideRight5-bezier121" stroke="none" fill="rgb(0, 0, 0)" d="M 77.22,148.8 C 77.39,152.09 77.72,155.38 78.45,158.55 78.83,160.14 79.37,161.66 79.94,163.16 80.51,164.66 81.22,166.08 82.2,167.43 L 82.13,167.5 C 80.75,166.53 79.74,165.07 79.02,163.55 78.29,162.01 77.94,160.35 77.66,158.71 77.09,155.42 77,152.1 77.12,148.8 L 77.22,148.8 Z M 77.22,148.8" />
        </g>
        <g id="jonnieSideRight5-group123">
            <path id="jonnieSideRight5-bezier122" stroke="none" fill="rgb(0, 0, 0)" d="M 114.92,215.52 C 112.76,220.55 110.64,225.62 108.96,230.82 108.56,232.13 108.16,233.44 108.02,234.79 107.89,236.15 107.89,237.52 107.91,238.88 107.96,241.62 108.12,244.35 108.26,247.09 108.39,249.82 108.54,252.56 108.5,255.31 108.48,256.68 108.39,258.1 108.06,259.43 L 107.24,263.46 C 106.68,266.14 106.09,268.82 105.38,271.48 105.03,272.81 104.65,274.13 104.2,275.43 103.72,276.73 103.3,278.05 102.34,279.2 L 102.39,279.13 C 101.79,280.44 101.3,281.82 100.96,283.22 100.63,284.62 100.41,286.09 100.68,287.45 100.81,288.12 101.1,288.76 101.59,289.18 102.08,289.6 102.75,289.78 103.44,289.8 104.89,289.8 106.38,289.85 107.84,289.93 110.78,290.08 113.71,290.3 116.64,290.56 119.55,290.81 122.52,291.12 125.4,291.57 128.3,291.88 131.23,292.06 134.15,292.15 135.61,292.18 137.07,292.19 138.52,292.11 139.23,292.06 139.96,292 140.62,291.85 140.93,291.8 141.32,291.63 141.34,291.58 L 141.7,290.65 C 141.83,290.33 141.93,290 141.89,289.84 141.88,289.7 141.71,289.55 141.41,289.41 140.84,289.16 140.08,288.98 139.39,288.77 137.97,288.36 136.56,287.9 135.17,287.39 132.39,286.36 129.7,285.06 127.18,283.49 124.77,281.82 122.07,280.78 119.49,279.19 118.22,278.39 116.99,277.39 116.15,276.05 115.3,274.71 114.95,273.11 114.96,271.59 114.98,268.5 116.08,265.66 117.14,262.92 118.23,260.18 119.47,257.51 120.69,254.84 123.16,249.52 125.54,244.15 127.19,238.53 128.84,232.92 129.89,227.12 130.2,221.25 L 130.3,221.26 C 130.12,227.13 129.32,233.01 127.69,238.68 126.11,244.36 123.79,249.8 121.4,255.16 120.21,257.84 119.02,260.52 117.98,263.25 116.95,265.97 115.96,268.76 115.96,271.58 115.96,272.98 116.26,274.37 117,275.52 117.72,276.68 118.82,277.59 120.02,278.35 122.44,279.85 125.27,280.96 127.7,282.65 130.16,284.19 132.8,285.44 135.51,286.47 136.87,286.99 138.26,287.44 139.66,287.86 140.36,288.09 141.04,288.23 141.82,288.57 142.01,288.66 142.2,288.77 142.39,288.95 142.58,289.11 142.76,289.39 142.8,289.67 142.87,290.25 142.68,290.63 142.55,290.99 L 142.34,291.5 142.24,291.75 C 142.19,291.84 142.2,291.88 142.07,292.1 141.84,292.39 141.61,292.47 141.41,292.55 141.21,292.63 141.02,292.68 140.82,292.73 140.05,292.89 139.31,292.95 138.56,292.99 137.07,293.06 135.6,293.04 134.12,292.99 131.17,292.89 128.24,292.68 125.31,292.35 122.38,291.88 119.51,291.57 116.57,291.29 113.65,291.02 110.73,290.78 107.81,290.61 106.34,290.53 104.89,290.47 103.41,290.46 102.64,290.43 101.8,290.22 101.17,289.67 100.53,289.12 100.2,288.33 100.05,287.58 99.78,286.04 100.03,284.53 100.37,283.08 100.73,281.63 101.23,280.23 101.86,278.88 L 101.88,278.85 101.91,278.81 C 102.73,277.85 103.21,276.51 103.67,275.25 104.12,273.97 104.51,272.66 104.87,271.34 105.58,268.71 106.19,266.04 106.77,263.36 L 107.62,259.34 C 107.96,258.01 108.05,256.68 108.08,255.31 108.14,252.58 108.01,249.84 107.9,247.11 107.79,244.37 107.65,241.63 107.62,238.89 107.61,237.52 107.62,236.14 107.76,234.77 107.91,233.38 108.33,232.07 108.74,230.76 110.47,225.55 112.63,220.5 114.83,215.49 L 114.92,215.52 Z M 114.92,215.52" />
        </g>
        <g id="jonnieSideRight5-group124">
            <path id="jonnieSideRight5-bezier123" stroke="none" fill="rgb(0, 0, 0)" d="M 130.83,219.23 C 131.77,217.72 132.46,216.06 132.95,214.36 133.43,212.65 133.67,210.88 133.6,209.11 133.53,207.34 133.25,205.58 132.88,203.85 132.5,202.12 132.04,200.39 131.49,198.72 L 131.47,198.67 131.47,198.62 C 131.43,194.31 131.14,189.99 130.71,185.7 130.49,183.55 130.22,181.4 129.91,179.27 129.59,177.14 129.29,174.97 128.79,172.92 127.73,168.78 126.12,164.77 124.37,160.83 122.59,156.9 120.67,153.02 118.75,149.14 L 118.84,149.09 C 121.07,152.8 123.23,156.57 125.13,160.48 127.02,164.38 128.76,168.41 129.77,172.69 130.28,174.85 130.5,176.99 130.79,179.15 131.06,181.3 131.28,183.46 131.47,185.63 131.83,189.95 132.05,194.28 132.02,198.63 L 132.01,198.54 C 132.54,200.26 132.98,202 133.32,203.76 133.65,205.52 133.9,207.3 133.93,209.1 133.96,210.9 133.68,212.7 133.15,214.42 132.62,216.13 131.89,217.78 130.91,219.28 L 130.83,219.23 Z M 130.83,219.23" />
        </g>
        <g id="jonnieSideRight5-group125">
            <path id="jonnieSideRight5-bezier124" stroke="none" fill="rgb(0, 0, 0)" d="M 116.67,114.38 C 116.26,119.88 116.22,125.41 116.65,130.89 116.88,133.64 117.21,136.37 117.71,139.07 118.22,141.77 118.83,144.47 119.76,147.02 L 119.91,147.42 119.49,147.41 C 112.5,147.15 105.5,147.18 98.52,147.52 95.01,147.7 91.49,147.71 87.98,147.59 84.47,147.48 80.97,147.22 77.47,146.8 L 76.97,146.73 77.04,146.24 C 77.44,143.34 78.03,140.46 78.87,137.66 79.69,134.86 80.79,132.13 81.8,129.45 82.22,128.14 82.39,126.68 82.56,125.26 82.71,123.83 82.82,122.38 82.91,120.94 83.08,118.05 83.22,115.15 83.28,112.25 L 83.38,112.25 C 83.46,115.15 83.51,118.06 83.43,120.96 83.39,122.41 83.33,123.87 83.23,125.32 83.1,126.78 83,128.23 82.56,129.7 81.58,132.47 80.57,135.15 79.81,137.93 79.04,140.7 78.41,143.52 78.03,146.37 L 77.6,145.81 C 81.05,146.23 84.54,146.48 88.02,146.66 91.51,146.82 95,146.87 98.48,146.73 105.5,146.46 112.51,146.51 119.51,146.84 L 119.24,147.23 C 118.3,144.58 117.72,141.88 117.26,139.15 116.8,136.42 116.5,133.67 116.32,130.92 115.96,125.4 116.09,119.87 116.58,114.38 L 116.67,114.38 Z M 116.67,114.38" />
        </g>
        <g id="jonnieSideRight5-group126">
            <path id="jonnieSideRight5-bezier125" stroke="none" fill="rgb(0, 0, 0)" d="M 117.66,126.03 C 120.39,128.97 123.18,131.86 126.08,134.64 127.52,136.02 128.99,137.39 130.55,138.62 131.34,139.22 132.12,139.84 133.01,140.14 L 135.83,141.21 C 137.71,141.94 139.58,142.68 141.41,143.57 142.32,144.03 143.23,144.48 144.09,145.19 144.29,145.37 144.52,145.59 144.69,145.85 144.76,145.97 144.82,146.06 144.87,146.12 144.94,146.21 145.02,146.3 145.09,146.38 145.41,146.72 145.77,147.05 146.14,147.38 146.88,148.05 147.67,148.67 148.38,149.48 148.55,149.69 148.72,149.92 148.86,150.2 148.99,150.46 149.09,150.95 148.84,151.31 148.6,151.64 148.31,151.79 147.96,151.86 147.64,151.92 147.33,151.88 147.06,151.81 145.98,151.49 145.17,150.84 144.38,150.2 143.61,149.53 142.89,148.83 142.22,148.08 L 142.28,148.01 C 143.07,148.64 143.84,149.28 144.66,149.84 145.46,150.4 146.33,150.96 147.21,151.13 147.65,151.22 148.02,151.11 148.17,150.89 148.27,150.81 148.05,150.38 147.73,150.06 147.08,149.38 146.27,148.78 145.49,148.13 145.1,147.8 144.71,147.47 144.34,147.07 144.25,146.97 144.16,146.87 144.07,146.76 143.97,146.63 143.89,146.51 143.82,146.41 143.72,146.25 143.58,146.12 143.41,145.97 142.72,145.39 141.84,144.9 140.97,144.45 139.21,143.53 137.37,142.73 135.53,141.95 L 132.75,140.81 C 131.74,140.43 130.93,139.76 130.14,139.13 128.58,137.83 127.15,136.42 125.73,134.99 122.92,132.11 120.22,129.13 117.59,126.1 L 117.66,126.03 Z M 117.66,126.03" />
        </g>
        <g id="jonnieSideRight5-group127">
            <path id="jonnieSideRight5-bezier126" stroke="none" fill="rgb(0, 0, 0)" d="M 119.53,140.56 C 121.18,141.57 122.8,142.64 124.32,143.86 125.08,144.47 125.83,145.11 126.5,145.84 126.84,146.21 127.16,146.6 127.43,147.06 127.7,147.58 127.82,147.98 128.03,148.42 128.82,150.16 129.7,151.88 130.54,153.6 130.96,154.46 131.4,155.31 131.85,156.16 132.32,156.98 132.76,157.85 133.45,158.51 L 133.39,158.59 C 132.5,158.1 131.9,157.28 131.3,156.51 130.71,155.72 130.19,154.89 129.7,154.05 128.71,152.36 127.91,150.59 127.22,148.76 127.04,148.32 126.89,147.78 126.73,147.43 126.54,147.04 126.27,146.66 125.97,146.3 125.38,145.58 124.69,144.91 123.98,144.27 122.55,142.98 121.04,141.77 119.48,140.64 L 119.53,140.56 Z M 119.53,140.56" />
        </g>
        <g id="jonnieSideRight5-group128">
            <path id="jonnieSideRight5-bezier127" stroke="none" fill="rgb(0, 0, 0)" d="M 135.32,161.91 C 136.15,161.63 136.95,161.19 137.51,160.57 137.79,160.26 137.98,159.91 138.05,159.54 138.1,159.21 138.09,158.68 138.03,158.34 137.99,158.16 137.91,158.06 137.89,158.08 137.86,158.06 137.66,158.05 137.43,158.03 137.22,158.02 136.81,157.92 136.87,157.96 136.78,157.97 136.61,158.01 136.45,158.09 135.8,158.42 135.05,158.96 134.55,159.64 L 134.45,159.62 C 134.43,159.11 134.67,158.66 134.93,158.27 135.2,157.87 135.53,157.51 135.97,157.22 136.2,157.08 136.46,156.95 136.81,156.92 137.32,156.93 137.33,157.03 137.57,157.05 137.77,157.11 138.03,157.11 138.39,157.34 138.74,157.61 138.8,157.99 138.82,158.24 138.84,158.78 138.81,159.16 138.68,159.7 138.53,160.2 138.22,160.62 137.86,160.93 137.11,161.54 136.23,161.84 135.35,162.01 L 135.32,161.91 Z M 135.32,161.91" />
        </g>
        <g id="jonnieSideRight5-group129">
            <path id="jonnieSideRight5-bezier128" stroke="none" fill="rgb(0, 0, 0)" d="M 139.13,161.95 C 139.19,162.16 139.3,162.38 139.47,162.43 139.62,162.48 139.81,162.35 139.96,162.21 140.26,161.91 140.5,161.52 140.72,161.14 141.18,160.37 141.57,159.55 141.76,158.72 141.99,157.91 141.74,157.01 141.4,156.87 141.17,156.75 140.71,156.74 140.31,156.78 139.91,156.84 139.41,156.87 139.13,157.14 L 139.04,157.12 C 139.05,156.81 139.29,156.64 139.47,156.47 139.67,156.32 139.89,156.2 140.12,156.1 140.59,155.91 141.09,155.76 141.73,155.92 142.49,156.19 142.72,156.87 142.78,157.41 142.81,157.98 142.69,158.48 142.53,158.94 142.2,159.87 141.69,160.67 141.14,161.41 140.84,161.78 140.54,162.15 140.14,162.44 139.95,162.57 139.69,162.74 139.39,162.61 139.12,162.47 139.07,162.2 139.03,161.97 L 139.13,161.95 Z M 139.13,161.95" />
        </g>
        <g id="jonnieSideRight5-group130">
            <path id="jonnieSideRight5-bezier129" stroke="none" fill="rgb(0, 0, 0)" d="M 142.73,161.92 C 143.39,161.5 143.93,160.9 144.29,160.23 144.67,159.57 144.87,158.84 144.92,158.09 144.98,157.34 144.81,156.61 144.54,156.15 144.29,155.66 143.61,155.45 142.77,155.43 L 142.74,155.33 C 143.08,155.09 143.5,154.91 143.98,154.91 144.46,154.9 145,155.14 145.34,155.54 146.02,156.39 145.86,157.4 145.71,158.2 145.56,159.03 145.22,159.84 144.71,160.51 144.19,161.16 143.52,161.69 142.77,162.01 L 142.73,161.92 Z M 142.73,161.92" />
        </g>
        <g id="jonnieSideRight5-group131">
            <path id="jonnieSideRight5-bezier130" stroke="none" fill="rgb(0, 0, 0)" d="M 146.18,160.5 C 146.56,160.54 146.96,160.47 147.26,160.27 147.56,160.07 147.74,159.75 147.83,159.41 148.01,158.73 147.93,157.89 147.92,157.12 147.88,156.36 147.72,155.55 147.5,155.09 147.39,154.88 147.26,154.77 146.91,154.73 146.58,154.72 146.18,154.77 145.78,154.84 L 145.73,154.75 C 146.02,154.44 146.36,154.17 146.82,154.04 147.05,153.96 147.33,153.95 147.61,154.02 147.9,154.1 148.15,154.31 148.32,154.52 148.95,155.45 148.74,156.33 148.72,157.13 148.69,157.54 148.64,157.94 148.59,158.34 148.54,158.74 148.48,159.18 148.3,159.58 148.12,159.98 147.81,160.35 147.4,160.53 146.99,160.71 146.55,160.71 146.16,160.59 L 146.18,160.5 Z M 146.18,160.5" />
        </g>
        <g id="jonnieSideRight5-group132">
            <path id="jonnieSideRight5-bezier131" stroke="none" fill="rgb(0, 0, 0)" d="M 142.32,149.35 C 141.15,149.6 139.96,149.74 138.74,149.73 138.14,149.72 137.5,149.77 136.9,149.52 136.33,149.29 135.69,148.9 135.46,148.25 L 135.54,148.18 C 136.12,148.4 136.63,148.47 137.17,148.56 137.71,148.64 138.24,148.84 138.81,148.94 139.95,149.12 141.13,149.21 142.31,149.25 L 142.32,149.35 Z M 142.32,149.35" />
        </g>
        <g id="jonnieSideRight5-group133">
            <path id="jonnieSideRight5-bezier132" stroke="none" fill="rgb(0, 0, 0)" d="M 143.55,150.7 C 143.88,151.18 144.23,151.63 144.59,152.05 144.77,152.26 145.03,152.39 145.13,152.63 145.25,152.87 145.34,153.12 145.4,153.51 L 145.34,153.59 C 144.94,153.63 144.62,153.47 144.37,153.28 144.11,153.08 144.03,152.75 143.91,152.47 143.67,151.91 143.52,151.32 143.45,150.73 L 143.55,150.7 Z M 143.55,150.7" />
        </g>
        <g id="jonnieSideRight5-group134">
            <path id="jonnieSideRight5-bezier133" stroke="none" fill="rgb(0, 0, 0)" d="M 83.38,169.38 C 83.2,172.01 83.08,174.64 83,177.26 82.9,179.89 82.85,182.52 82.86,185.14 82.88,187.77 83.01,190.39 83.06,193.01 83.1,195.63 83.23,198.23 83.38,200.87 L 83.28,200.89 C 82.57,198.33 82.28,195.69 82.06,193.05 81.88,190.41 81.97,187.77 82.06,185.13 82.23,179.86 82.65,174.6 83.28,169.37 L 83.38,169.38 Z M 83.38,169.38" />
        </g>
        <g id="jonnieSideRight5-group135">
            <path id="jonnieSideRight5-bezier134" stroke="none" fill="rgb(0, 0, 0)" d="M 83.38,203.04 C 83.5,204.27 83.26,205.55 82.62,206.62 81.98,207.7 80.91,208.48 79.74,208.88 78.56,209.31 77.31,209.36 76.12,209.61 74.91,209.83 73.71,210.09 72.52,210.41 67.78,211.65 63.22,213.63 59.15,216.36 57.11,217.72 55.21,219.29 53.46,221 51.75,222.75 50.02,224.52 48.2,226.18 44.57,229.51 40.71,232.61 36.5,235.21 34.4,236.49 32.2,237.66 29.85,238.5 28.68,238.91 27.47,239.23 26.21,239.36 24.93,239.46 23.73,239.39 22.49,239.4 21.27,239.39 20.03,239.36 18.84,239.46 18.25,239.53 17.65,239.63 17.22,239.91 16.78,240.18 16.61,240.69 16.6,241.26 16.58,241.83 16.69,242.43 16.76,243.05 L 17,244.87 17.48,248.53 C 17.79,250.97 18.09,253.42 18.32,255.87 18.43,257.1 18.53,258.33 18.54,259.58 18.55,259.89 18.54,260.22 18.52,260.53 18.5,260.82 18.51,261.1 18.54,261.4 18.59,261.98 18.7,262.58 18.84,263.16 19.42,265.5 20.33,267.8 21.57,269.86 21.88,270.37 22.22,270.86 22.61,271.31 22.98,271.74 23.42,272.15 23.88,272.33 23.99,272.37 24.1,272.4 24.21,272.4 24.32,272.41 24.51,272.4 24.64,272.39 24.93,272.38 25.22,272.36 25.44,272.29 25.68,272.2 25.75,272.14 25.8,271.94 25.86,271.74 25.85,271.45 25.82,271.16 25.72,269.96 25.46,268.77 25.48,267.45 25.52,266.18 25.71,264.94 25.95,263.72 26.46,261.28 27.21,258.9 28.18,256.61 29.16,254.32 30.36,252.12 31.86,250.11 33.33,248.1 35.18,246.3 37.23,244.89 41.28,242.02 45.62,239.62 50.04,237.43 54.45,235.26 59.04,233.27 63.69,231.76 65.94,230.88 68.13,229.75 70.33,228.66 72.53,227.56 74.73,226.46 76.99,225.44 79.24,224.43 81.54,223.49 83.95,222.85 85.15,222.52 86.43,222.35 87.63,222.23 88.85,222.08 90.06,221.92 91.23,221.62 93.57,221.06 95.66,219.71 97.17,217.82 98.7,215.94 99.78,213.72 100.67,211.45 102.46,206.89 103.54,202.07 104.45,197.24 L 104.55,197.26 C 103.75,202.11 102.79,206.96 101.1,211.61 100.23,213.93 99.16,216.2 97.6,218.17 96.82,219.14 95.9,220.03 94.84,220.72 93.78,221.42 92.6,221.92 91.39,222.24 90.18,222.57 88.94,222.75 87.72,222.91 86.49,223.05 85.31,223.22 84.14,223.56 81.81,224.21 79.55,225.16 77.33,226.19 75.11,227.22 72.93,228.35 70.74,229.47 68.55,230.59 66.38,231.75 64.06,232.69 59.35,234.22 54.89,236.16 50.48,238.32 46.09,240.49 41.79,242.87 37.81,245.7 33.76,248.38 30.93,252.52 29.01,256.96 28.04,259.19 27.29,261.52 26.79,263.89 26.54,265.08 26.35,266.28 26.31,267.47 26.27,268.62 26.52,269.85 26.62,271.1 26.64,271.42 26.67,271.75 26.57,272.15 26.52,272.35 26.41,272.57 26.24,272.73 26.06,272.89 25.86,272.98 25.68,273.04 25.32,273.15 24.99,273.17 24.66,273.18 24.49,273.19 24.37,273.19 24.17,273.18 23.97,273.17 23.78,273.13 23.6,273.06 22.91,272.78 22.44,272.29 22.02,271.81 21.6,271.32 21.25,270.79 20.92,270.26 19.64,268.09 18.73,265.76 18.14,263.33 18,262.71 17.88,262.09 17.83,261.46 17.8,261.14 17.79,260.81 17.81,260.49 17.83,260.18 17.84,259.89 17.84,259.58 17.83,258.38 17.74,257.15 17.64,255.93 17.42,253.49 17.13,251.05 16.83,248.61 L 16.37,244.96 16.14,243.12 C 16.07,242.52 15.96,241.91 15.98,241.24 16,240.91 16.04,240.56 16.18,240.23 16.32,239.89 16.58,239.6 16.88,239.4 17.5,239.02 18.16,238.94 18.78,238.87 20.04,238.77 21.27,238.81 22.5,238.82 23.72,238.82 24.98,238.9 26.15,238.8 27.35,238.69 28.53,238.38 29.67,237.99 31.97,237.19 34.15,236.04 36.24,234.78 40.42,232.23 44.29,229.17 47.93,225.88 49.76,224.24 51.48,222.5 53.21,220.74 54.99,219.03 56.91,217.47 58.98,216.11 63.1,213.39 67.7,211.43 72.47,210.21 73.66,209.91 74.87,209.65 76.08,209.43 77.29,209.19 78.54,209.15 79.69,208.74 80.83,208.35 81.88,207.61 82.51,206.56 83.14,205.52 83.39,204.26 83.28,203.05 L 83.38,203.04 Z M 83.38,203.04" />
        </g>
        <g id="jonnieSideRight5-group209">
            <path id="jonnieSideRight5-bezier208" stroke="none" fill="rgb(0, 0, 0)" d="M 33.29,237.56 C 33.99,238.74 34.59,239.98 35.07,241.29 35.3,241.94 35.59,242.6 35.62,243.32 35.65,244.03 35.58,244.81 35.13,245.43 L 35.03,245.4 C 34.94,244.7 34.78,244.1 34.63,243.46 34.47,242.83 34.44,242.17 34.3,241.51 34.01,240.21 33.63,238.9 33.2,237.61 L 33.29,237.56 Z M 33.29,237.56" />
        </g>
        <g id="jonnieSideRight5-group210">
            <path id="jonnieSideRight5-bezier209" stroke="none" fill="rgb(0, 0, 0)" d="M 105.83,271.28 C 107.25,271.11 108.68,271.01 110.12,270.99 110.84,270.99 111.57,270.91 112.29,271.07 113,271.21 113.71,271.43 114.35,271.87 L 114.32,271.97 C 113.57,272.07 112.88,272.07 112.17,272.06 111.47,272.06 110.78,271.87 110.08,271.79 108.68,271.63 107.26,271.49 105.84,271.38 L 105.83,271.28 Z M 105.83,271.28" />
        </g>
        <g id="jonnieSideRight5-group214">
            <path id="jonnieSideRight5-bezier213" stroke="none" fill="rgb(0, 0, 0)" d="M 92.28,50.04 C 93.66,50.99 95.07,51.88 96.51,52.72 97.95,53.58 99.41,54.38 100.91,55.08 102.41,55.78 103.96,56.35 105.5,56.84 107.03,57.29 108.67,57.7 110.18,56.96 L 110.24,57.04 C 109.64,57.68 108.72,57.98 107.85,58.04 106.96,58.12 106.08,57.99 105.24,57.8 103.55,57.41 102.02,56.61 100.55,55.8 97.58,54.17 94.83,52.24 92.22,50.12 L 92.28,50.04 Z M 92.28,50.04" />
        </g>
        <g id="jonnieSideRight5-group219">
            <path id="jonnieSideRight5-bezier218" stroke="none" fill="rgb(0, 0, 0)" d="M 78.46,82.39 C 79.4,83.45 80.52,84.35 81.67,85.17 82.82,86.01 84.03,86.74 85.28,87.39 86.54,88.04 87.86,88.55 89.14,89.14 90.42,89.74 91.71,90.3 93.01,90.95 L 92.99,91.05 C 91.54,90.92 90.12,90.55 88.76,90.07 87.39,89.59 86.12,88.85 84.89,88.09 83.66,87.33 82.47,86.5 81.36,85.57 80.27,84.62 79.24,83.61 78.38,82.45 L 78.46,82.39 Z M 78.46,82.39" />
        </g>
    </g>
</svg>
