<?xml version="1.0" encoding="UTF-8"?>
<!DOCTYPE svg PUBLIC "-//W3C//DTD SVG 1.1//EN" "http://www.w3.org/Graphics/SVG/1.1/DTD/svg11.dtd">
<svg version="1.1" xmlns="http://www.w3.org/2000/svg" xmlns:xlink="http://www.w3.org/1999/xlink" width="200" height="300"  xml:space="preserve" id="jonnieSideRight3">
    <!-- Generated by PaintCode - http://www.paintcodeapp.com -->
    <g id="jonnieSideRight3-group2">
        <g id="jonnieSideRight3-group41">
            <path id="jonnieSideRight3-bezier40" stroke="none" fill="rgb(0, 0, 0)" d="M 121.49,30.45 C 121.57,32.94 121.51,35.46 121,37.94 120.7,39.15 120.37,40.45 119.35,41.44 119.09,41.67 118.77,41.86 118.41,41.97 118.23,42.02 118.05,42.05 117.87,42.05 L 117.4,42.06 C 116.8,42.08 116.19,42.14 115.59,42.25 113.2,42.65 111.09,43.98 109.72,45.89 109.01,46.84 108.5,47.94 108.15,49.09 107.97,49.67 107.83,50.27 107.76,50.87 107.69,51.47 107.63,52.1 107.8,52.67 L 107.72,52.72 C 107.13,51.53 107.28,50.19 107.47,48.93 107.7,47.66 108.2,46.44 108.9,45.33 109.63,44.23 110.62,43.29 111.77,42.65 112.92,42 114.19,41.63 115.47,41.46 116.11,41.37 116.75,41.33 117.39,41.34 L 117.86,41.34 C 117.99,41.35 118.11,41.33 118.24,41.3 118.48,41.24 118.72,41.12 118.92,40.95 119.77,40.21 120.19,38.98 120.51,37.82 121.13,35.44 121.34,32.93 121.39,30.45 L 121.49,30.45 Z M 121.49,30.45" />
        </g>
        <g id="jonnieSideRight3-group85">
            <path id="jonnieSideRight3-bezier84" stroke="none" fill="rgb(0, 0, 0)" d="M 85.13,52.29 C 86.21,50.68 87.32,49.08 88.49,47.52 89.08,46.76 89.66,45.95 90.43,45.32 91.15,44.68 91.81,43.97 92.37,43.19 92.93,42.42 93.36,41.55 93.58,40.63 93.8,39.71 93.79,38.75 93.6,37.82 93.21,35.95 92.26,34.23 91.37,32.51 90.47,30.79 89.56,29.04 88.93,27.17 88.29,25.31 87.93,23.32 87.98,21.33 88.03,19.36 88.43,17.36 89.25,15.54 90.07,13.72 91.28,12.08 92.75,10.73 95.68,8 99.45,6.36 103.31,5.55 107.18,4.79 111.3,4.76 115.1,6.17 117.05,6.99 118.53,8.5 119.62,10.17 120.71,11.86 121.48,13.7 122.04,15.58 123.18,19.35 123.67,23.26 123.74,27.15 L 123.64,27.16 C 123.49,25.22 123.21,23.3 122.84,21.4 122.48,19.49 122.01,17.61 121.38,15.79 120.74,13.98 119.97,12.21 118.9,10.65 117.85,9.1 116.43,7.76 114.75,7.11 112.99,6.44 111.09,6.15 109.19,6.08 107.29,6.01 105.38,6.16 103.5,6.52 99.77,7.23 96.12,8.77 93.28,11.31 91.88,12.59 90.71,14.12 89.91,15.84 89.1,17.56 88.7,19.45 88.63,21.35 88.56,23.26 88.87,25.17 89.47,26.99 90.07,28.81 90.93,30.55 91.81,32.28 92.67,34.02 93.61,35.77 93.99,37.74 94.17,38.72 94.17,39.74 93.92,40.71 93.67,41.68 93.2,42.58 92.61,43.37 92.02,44.16 91.33,44.87 90.59,45.51 89.83,46.11 89.25,46.89 88.64,47.64 87.45,49.18 86.32,50.76 85.21,52.35 L 85.13,52.29 Z M 85.13,52.29" />
        </g>
        <g id="jonnieSideRight3-group86">
            <path id="jonnieSideRight3-bezier85" stroke="none" fill="rgb(0, 0, 0)" d="M 89.6,52.75 C 85.58,54.35 82.12,57.32 79.87,60.97 78.73,62.79 77.9,64.8 77.38,66.88 76.93,68.97 76.4,71.14 75.7,73.21 74.33,77.37 72.57,81.39 70.68,85.3 69.71,87.25 68.78,89.21 67.9,91.19 67.05,93.17 66.25,95.19 65.88,97.33 L 65.78,97.32 C 65.86,95.12 66.52,92.98 67.26,90.93 68,88.87 68.9,86.87 69.77,84.88 71.55,80.91 73.49,77.03 74.94,72.95 75.68,70.9 76.24,68.85 76.75,66.71 77.33,64.58 78.24,62.54 79.44,60.7 81.88,57.03 85.46,54.15 89.57,52.65 L 89.6,52.75 Z M 89.6,52.75" />
        </g>
        <g id="jonnieSideRight3-group87">
            <path id="jonnieSideRight3-bezier86" stroke="none" fill="rgb(0, 0, 0)" d="M 64.71,98.51 C 64.36,99.62 64.04,100.74 63.78,101.86 63.65,102.42 63.63,103 63.44,103.53 63.26,104.07 63.08,104.59 62.8,105.16 L 62.7,105.16 C 62.43,104.56 62.41,103.93 62.46,103.33 62.51,102.72 62.8,102.17 63.02,101.62 63.46,100.52 64,99.47 64.62,98.47 L 64.71,98.51 Z M 64.71,98.51" />
        </g>
        <g id="jonnieSideRight3-group88">
            <path id="jonnieSideRight3-bezier87" stroke="none" fill="rgb(0, 0, 0)" d="M 62.8,106.93 C 61.61,109.21 60.62,111.58 59.81,114.01 59,116.43 58.37,118.93 58.13,121.46 57.99,122.72 58.02,124 58,125.29 L 57.96,129.14 C 57.92,131.71 57.83,134.29 57.61,136.86 57.4,139.43 57.09,142.01 56.49,144.55 56.18,145.81 55.82,147.07 55.3,148.29 54.8,149.49 54.11,150.7 53.32,151.71 51.8,153.74 50.47,155.92 49.38,158.22 48.84,159.36 48.37,160.55 48.05,161.77 47.74,162.98 47.51,164.29 47.92,165.49 L 47.83,165.53 C 47.25,164.33 47.4,162.94 47.61,161.67 47.86,160.39 48.26,159.15 48.74,157.94 49.72,155.53 51.04,153.27 52.51,151.13 54.04,149.14 54.88,146.76 55.53,144.31 56.17,141.86 56.55,139.33 56.82,136.79 57.08,134.25 57.22,131.69 57.31,129.13 L 57.43,125.28 C 57.47,124 57.46,122.7 57.63,121.41 57.95,118.83 58.65,116.33 59.52,113.91 60.41,111.49 61.46,109.14 62.71,106.88 L 62.8,106.93 Z M 62.8,106.93" />
        </g>
        <g id="jonnieSideRight3-group89">
            <path id="jonnieSideRight3-bezier88" stroke="none" fill="rgb(0, 0, 0)" d="M 49.11,165.51 C 49.29,166.21 49.49,166.89 49.73,167.53 49.86,167.86 50.07,168.13 50.13,168.46 50.19,168.79 50.23,169.1 50.23,169.54 L 50.15,169.6 C 49.7,169.49 49.41,169.17 49.2,168.83 48.98,168.5 49,168.09 48.96,167.72 48.87,166.97 48.9,166.24 49.01,165.51 L 49.11,165.51 Z M 49.11,165.51" />
        </g>
        <g id="jonnieSideRight3-group90">
            <path id="jonnieSideRight3-bezier89" stroke="none" fill="rgb(0, 0, 0)" d="M 51.3,168.13 C 51.59,168.82 51.89,169.51 52.19,170.18 52.34,170.52 52.58,170.81 52.65,171.15 52.74,171.5 52.74,171.82 52.84,172.22 L 52.79,172.31 C 52.26,172.28 51.95,171.87 51.73,171.55 51.5,171.21 51.5,170.8 51.43,170.42 51.28,169.67 51.21,168.91 51.2,168.15 L 51.3,168.13 Z M 51.3,168.13" />
        </g>
        <g id="jonnieSideRight3-group91">
            <path id="jonnieSideRight3-bezier90" stroke="none" fill="rgb(0, 0, 0)" d="M 54.11,170.19 C 54.41,170.89 54.74,171.57 55.1,172.21 55.28,172.53 55.55,172.78 55.67,173.09 55.81,173.4 55.88,173.69 56.08,174.09 L 56.04,174.18 C 55.54,174.27 55.11,173.95 54.83,173.64 54.53,173.33 54.47,172.89 54.36,172.52 54.14,171.75 54.03,170.98 54.01,170.21 L 54.11,170.19 Z M 54.11,170.19" />
        </g>
        <g id="jonnieSideRight3-group92">
            <path id="jonnieSideRight3-bezier91" stroke="none" fill="rgb(0, 0, 0)" d="M 57.73,168.65 C 57.66,169.26 57.61,169.87 57.6,170.44 57.6,170.73 57.7,171.02 57.63,171.28 57.56,171.55 57.47,171.79 57.3,172.15 L 57.2,172.18 C 56.84,171.97 56.69,171.61 56.63,171.27 56.55,170.93 56.72,170.61 56.82,170.31 57.01,169.7 57.29,169.14 57.64,168.62 L 57.73,168.65 Z M 57.73,168.65" />
        </g>
        <g id="jonnieSideRight3-group93">
            <path id="jonnieSideRight3-bezier92" stroke="none" fill="rgb(0, 0, 0)" d="M 59.3,169 C 59.51,169.73 59.78,170.46 60.17,171.1 60.36,171.41 60.62,171.75 60.95,171.79 61.09,171.83 61.18,171.66 61.25,171.5 61.32,171.33 61.37,171.14 61.41,170.96 61.69,169.47 61.74,167.92 61.9,166.39 61.98,165.63 62.06,164.86 62.24,164.09 62.29,163.9 62.34,163.71 62.42,163.52 62.49,163.32 62.61,163.15 62.68,162.99 62.8,162.7 62.86,162.3 62.89,161.94 62.98,160.43 62.85,158.9 62.75,157.37 62.54,154.31 62.29,151.23 62.44,148.13 62.64,145 63.48,142 64.38,139.05 65.29,136.1 66.36,133.21 67.46,130.34 68.01,128.91 68.62,127.48 69.1,126.06 69.6,124.63 70.02,123.16 70.41,121.69 71.22,118.74 71.87,115.75 72.44,112.74 72.73,111.24 72.98,109.73 73.18,108.21 73.4,106.69 73.58,105.17 73.64,103.64 L 73.74,103.64 C 73.85,106.72 73.55,109.8 73.13,112.85 72.7,115.91 72.1,118.93 71.38,121.94 71,123.43 70.58,124.92 70.09,126.4 69.57,127.89 68.94,129.27 68.38,130.71 67.22,133.55 66.1,136.4 65.14,139.3 64.2,142.2 63.33,145.16 63.09,148.17 62.9,151.2 63.09,154.28 63.25,157.34 63.31,158.88 63.42,160.41 63.29,161.98 63.24,162.37 63.19,162.75 63.01,163.17 62.8,163.52 62.68,163.8 62.58,164.18 62.39,164.91 62.29,165.67 62.2,166.43 62,167.95 61.93,169.49 61.6,171.01 61.56,171.2 61.5,171.39 61.43,171.57 61.38,171.67 61.34,171.76 61.26,171.84 61.19,171.93 61.05,172 60.93,171.97 60.48,171.88 60.24,171.5 60.04,171.18 59.65,170.51 59.4,169.77 59.2,169.03 L 59.3,169 Z M 59.3,169" />
        </g>
        <g id="jonnieSideRight3-group94">
            <path id="jonnieSideRight3-bezier93" stroke="none" fill="rgb(0, 0, 0)" d="M 70.72,105.47 C 73,103.44 75.16,101.26 77.22,99 79.3,96.75 81.27,94.41 83.09,91.97 84.92,89.53 86.54,86.95 88.09,84.34 89.66,81.74 90.98,79.01 92.09,76.14 L 92.19,76.17 C 91.63,79.21 90.4,82.1 88.96,84.83 87.5,87.56 85.65,90.06 83.73,92.46 79.87,97.27 75.52,101.65 70.78,105.55 L 70.72,105.47 Z M 70.72,105.47" />
        </g>
        <g id="jonnieSideRight3-group95">
            <path id="jonnieSideRight3-bezier94" stroke="none" fill="rgb(0, 0, 0)" d="M 76.57,133.14 C 75.78,135.92 75.06,138.72 74.7,141.59 74.52,143.01 74.37,144.46 74.43,145.89 74.48,147.33 74.71,148.75 75.09,150.13 75.87,152.89 77.27,155.45 79.04,157.7 80.8,159.95 82.91,161.96 85.25,163.56 L 85.33,163.61 85.37,163.7 C 87.27,167.72 89.58,171.58 91.95,175.37 94.33,179.16 96.85,182.87 99.42,186.54 101.97,190.21 104.56,193.87 107.21,197.49 108.53,199.28 109.93,201.09 110.97,203.11 112.02,205.12 112.81,207.26 113.22,209.48 L 113.12,209.5 C 112.58,207.33 111.61,205.29 110.51,203.37 109.95,202.41 109.32,201.49 108.65,200.61 L 106.57,197.97 C 103.81,194.42 101.12,190.82 98.56,187.13 96.01,183.43 93.57,179.65 91.24,175.81 88.93,171.95 86.67,168.07 84.79,163.95 L 84.91,164.09 C 82.5,162.39 80.41,160.33 78.64,158.01 76.89,155.68 75.51,153.04 74.77,150.22 74.41,148.81 74.2,147.35 74.18,145.9 74.16,144.44 74.32,143 74.51,141.56 74.91,138.69 75.66,135.88 76.47,133.11 L 76.57,133.14 Z M 76.57,133.14" />
        </g>
        <g id="jonnieSideRight3-group96">
            <path id="jonnieSideRight3-bezier95" stroke="none" fill="rgb(0, 0, 0)" d="M 81.5,97.74 C 81.7,100.64 81.79,103.55 81.77,106.46 81.75,109.37 81.63,112.29 81.28,115.18 81.1,116.63 80.87,118.07 80.52,119.49 80.19,120.93 79.6,122.27 79.27,123.67 78.58,126.48 78.01,129.38 76.73,132.05 L 76.51,131.71 C 79.4,131.59 82.28,131.53 85.17,131.55 88.06,131.59 90.96,131.63 93.85,132.05 94.57,132.14 95.31,132.36 95.98,132.5 96.67,132.65 97.38,132.76 98.09,132.85 99.51,133.03 100.94,133.15 102.38,133.24 105.24,133.42 108.13,133.49 111,133.5 L 110.63,133.94 C 110.35,132.26 110.19,130.58 110.15,128.87 110.1,127.18 110.29,125.43 110.65,123.79 111.35,120.48 112.17,117.24 112.84,113.96 114.21,107.41 115.22,100.78 115.57,94.1 115.73,90.77 115.88,87.42 115.7,84.1 115.52,80.77 115.09,77.45 114.43,74.17 113.78,70.9 112.9,67.66 111.82,64.5 110.76,61.32 109.51,58.21 108.04,55.19 L 108.13,55.15 C 109.71,58.1 111.1,61.18 112.27,64.34 113.41,67.5 114.36,70.74 115.09,74.03 115.81,77.33 116.31,80.67 116.55,84.04 116.79,87.42 116.76,90.8 116.57,94.16 116.19,100.89 115.23,107.59 113.77,114.15 113.06,117.44 112.2,120.7 111.48,123.96 110.68,127.17 110.89,130.54 111.37,133.81 L 111.44,134.26 111,134.25 C 108.1,134.22 105.22,134.12 102.33,133.92 100.89,133.82 99.44,133.69 98,133.49 97.28,133.39 96.57,133.28 95.85,133.12 95.11,132.96 94.46,132.76 93.75,132.66 90.94,132.22 88.04,132.15 85.17,132.1 82.29,132.06 79.41,132.09 76.53,132.18 L 76.14,132.19 76.31,131.84 C 77.58,129.25 78.17,126.4 78.91,123.57 79.25,122.14 79.86,120.81 80.2,119.41 80.56,118.01 80.8,116.58 81,115.14 81.38,112.27 81.53,109.36 81.58,106.46 81.62,103.55 81.57,100.64 81.4,97.74 L 81.5,97.74 Z M 81.5,97.74" />
        </g>
        <g id="jonnieSideRight3-group97">
            <path id="jonnieSideRight3-bezier96" stroke="none" fill="rgb(0, 0, 0)" d="M 111.13,208.75 C 110.59,210.88 110,213.01 109.28,215.09 108.92,216.13 108.5,217.17 107.95,218.11 107.52,219.11 107.23,220.18 106.96,221.24 105.93,225.51 105.33,229.89 105.25,234.27 105.21,236.47 105.38,238.64 105.76,240.82 106.07,243 106.3,245.19 106.52,247.38 106.94,251.76 107.27,256.15 107.53,260.55 107.76,264.95 107.98,269.35 107.83,273.77 107.78,274.86 107.69,276.03 107.36,277.09 L 106.46,280.27 C 106.17,281.33 105.88,282.38 105.68,283.45 105.48,284.51 105.33,285.6 105.46,286.62 105.54,287.13 105.68,287.62 105.98,287.98 106.25,288.34 106.74,288.56 107.22,288.76 108.2,289.14 109.28,289.35 110.35,289.56 112.5,289.98 114.7,290.32 116.82,291.1 117.87,291.49 118.92,292 119.81,292.69 120.66,293.35 121.61,293.81 122.62,294.19 124.64,294.93 126.81,295.27 128.97,295.43 131.14,295.59 133.33,295.57 135.49,295.35 136.56,295.23 137.63,295.04 138.64,294.73 139.14,294.57 139.63,294.38 140.04,294.12 140.24,293.99 140.41,293.84 140.5,293.7 140.6,293.55 140.59,293.46 140.55,293.31 140.43,293 139.99,292.66 139.56,292.4 139.11,292.12 138.63,291.86 138.15,291.6 137.19,291.1 136.2,290.61 135.22,290.12 133.25,289.14 131.27,288.16 129.34,287.08 127.41,285.99 125.51,284.83 123.75,283.43 122.89,282.74 122,281.94 121.31,281.08 120.57,280.19 119.96,279.25 119.42,278.25 117.32,274.26 116.33,269.81 116.06,265.37 115.95,263.14 116.04,260.9 116.38,258.69 116.76,256.49 117.25,254.35 117.73,252.2 L 120.71,239.34 C 121.69,235.04 122.56,230.77 123.08,226.37 123.53,224.19 124.28,222.1 125.16,220.07 126.04,218.05 127.06,216.09 128.21,214.21 L 128.3,214.27 C 127.2,216.17 126.24,218.15 125.41,220.18 124.59,222.22 123.91,224.31 123.53,226.46 123.08,230.81 122.25,235.18 121.33,239.47 L 118.53,252.37 C 118.09,254.52 117.62,256.68 117.29,258.82 116.98,260.97 116.92,263.15 117.06,265.31 117.32,269.63 118.29,273.97 120.3,277.78 122.21,281.67 126.07,284.06 129.82,286.21 131.72,287.29 133.68,288.29 135.64,289.28 136.62,289.78 137.61,290.27 138.58,290.79 139.07,291.06 139.56,291.32 140.05,291.63 140.52,291.96 141.06,292.27 141.38,292.99 141.54,293.36 141.48,293.87 141.25,294.18 141.04,294.49 140.77,294.7 140.51,294.86 139.99,295.19 139.44,295.39 138.9,295.56 137.8,295.89 136.69,296.08 135.57,296.19 133.35,296.41 131.13,296.4 128.91,296.23 126.7,296.05 124.47,295.69 122.35,294.9 121.31,294.51 120.26,293.99 119.37,293.29 118.53,292.63 117.58,292.16 116.57,291.78 114.55,291.02 112.38,290.67 110.22,290.24 109.14,290.02 108.04,289.8 106.97,289.38 106.72,289.28 106.41,289.14 106.19,289 105.92,288.85 105.66,288.64 105.47,288.39 105.07,287.9 104.9,287.29 104.82,286.71 104.68,285.54 104.85,284.42 105.06,283.33 105.28,282.23 105.57,281.17 105.87,280.1 L 106.79,276.94 C 107.12,275.89 107.19,274.85 107.25,273.74 107.43,269.37 107.23,264.97 107.03,260.58 106.81,256.19 106.51,251.8 106.12,247.42 105.92,245.23 105.71,243.04 105.42,240.86 105.06,238.7 104.89,236.47 104.95,234.27 105.07,229.85 105.7,225.47 106.77,221.19 107.05,220.13 107.34,219.06 107.79,218.04 108.36,217.08 108.77,216.08 109.14,215.04 109.87,212.97 110.48,210.85 111.04,208.73 L 111.13,208.75 Z M 111.13,208.75" />
        </g>
        <g id="jonnieSideRight3-group98">
            <path id="jonnieSideRight3-bezier97" stroke="none" fill="rgb(0, 0, 0)" d="M 129.12,212.71 C 129.51,211.92 129.75,211.06 129.93,210.2 130.11,209.34 130.21,208.47 130.23,207.6 130.25,206.73 130.12,205.87 130.12,205 130.1,204.14 130.07,203.26 130.12,202.34 L 130.22,202.31 C 130.7,203.11 130.96,204 131.11,204.91 131.27,205.83 131.14,206.76 131.03,207.66 130.78,209.48 130.22,211.26 129.21,212.77 L 129.12,212.71 Z M 129.12,212.71" />
        </g>
        <g id="jonnieSideRight3-group99">
            <path id="jonnieSideRight3-bezier98" stroke="none" fill="rgb(0, 0, 0)" d="M 128.53,199.75 C 128.14,197.3 127.77,194.85 127.45,192.39 127.14,189.93 126.82,187.47 126.75,184.96 126.65,182.54 126.12,180.09 125.57,177.7 125,175.3 124.31,172.92 123.54,170.58 121.99,165.89 120.03,161.35 117.85,156.94 115.69,152.51 113.12,148.29 110.21,144.27 L 110.29,144.21 C 113.65,147.87 116.39,152.09 118.74,156.48 121.07,160.9 122.85,165.58 124.3,170.33 125.03,172.71 125.67,175.12 126.2,177.55 126.7,179.99 127.2,182.43 127.25,184.96 127.25,187.42 127.5,189.89 127.75,192.35 128,194.82 128.3,197.28 128.63,199.73 L 128.53,199.75 Z M 128.53,199.75" />
        </g>
        <g id="jonnieSideRight3-group100">
            <path id="jonnieSideRight3-bezier99" stroke="none" fill="rgb(0, 0, 0)" d="M 77.42,158.71 C 76.39,162.76 75.44,166.84 74.61,170.93 74.19,172.97 73.8,175.03 73.49,177.08 73.17,179.15 72.95,181.18 73,183.28 72.98,187.46 72.99,191.65 72.72,195.83 72.57,197.92 72.41,200.02 72.14,202.1 72,203.14 71.85,204.18 71.65,205.21 71.41,206.24 71.23,207.3 70.67,208.22 L 70.58,208.17 C 70.98,207.23 71.08,206.17 71.2,205.14 71.31,204.11 71.39,203.07 71.45,202.03 71.57,199.95 71.67,197.87 71.72,195.78 L 72.2,183.26 C 72.2,181.17 72.48,179.03 72.85,176.98 73.21,174.91 73.65,172.87 74.12,170.82 75.09,166.75 76.17,162.71 77.33,158.69 L 77.42,158.71 Z M 77.42,158.71" />
        </g>
        <g id="jonnieSideRight3-group101">
            <path id="jonnieSideRight3-bezier100" stroke="none" fill="rgb(0, 0, 0)" d="M 69.3,206.22 C 67.3,210.52 65.33,214.85 63.04,219.02 61.73,221 60.74,223.16 59.87,225.36 59.02,227.57 58.3,229.83 57.76,232.13 57.22,234.44 56.85,236.78 56.72,239.14 56.66,241.5 56.48,243.89 56.18,246.25 55.57,250.97 54.65,255.64 53.41,260.24 52.78,262.53 52.07,264.81 51.12,267.01 50.67,268.11 50.03,269.18 49.38,270.16 48.75,271.16 48.11,272.16 47.5,273.17 46.3,275.19 45.1,277.28 44.68,279.55 44.58,280.12 44.55,280.68 44.55,281.27 44.55,281.85 44.56,282.44 44.75,282.9 44.93,283.37 45.35,283.64 45.89,283.8 46.41,283.97 46.99,284.06 47.57,284.12 48.74,284.26 49.91,284.31 51.11,284.4 52.32,284.51 53.5,284.74 54.67,285.01 57,285.57 59.26,286.32 61.5,287.14 63.73,287.97 65.93,288.88 68.1,289.87 L 69.72,290.61 C 70.24,290.84 70.79,291.04 71.34,291.2 72.45,291.51 73.6,291.69 74.76,291.76 77.08,291.82 79.49,291.76 81.85,291.77 L 83.63,291.77 84.52,291.76 C 84.9,291.77 84.91,291.77 85.13,291.63 85.49,291.39 85.77,290.9 85.68,290.57 85.62,290.25 85.2,289.97 84.67,289.82 83.64,289.53 82.4,289.44 81.22,289.18 80.03,288.94 78.86,288.57 77.74,288.1 75.49,287.15 73.47,285.77 71.6,284.27 67.89,281.27 64.66,277.32 63.39,272.56 62.74,270.21 62.62,267.7 62.87,265.32 63.11,262.92 63.62,260.56 64.26,258.25 65.58,253.65 67.36,249.21 69.58,244.97 L 70.44,243.41 C 70.71,242.91 70.95,242.37 71.18,241.83 71.64,240.75 72.05,239.64 72.46,238.53 73.26,236.3 74.01,234.05 74.79,231.81 75.57,229.56 76.36,227.32 77.24,225.11 77.68,224 78.15,222.9 78.68,221.83 79.22,220.76 79.77,219.69 80.62,218.77 82.51,217.28 84.05,215.53 85.3,213.5 86.53,211.5 87.55,209.31 87.95,206.98 L 88.05,206.99 C 87.7,209.36 86.73,211.59 85.54,213.65 84.93,214.67 84.25,215.66 83.48,216.58 83.09,217.04 82.68,217.48 82.25,217.9 81.84,218.33 81.31,218.7 80.95,219.09 80.19,219.94 79.64,221 79.13,222.05 78.63,223.11 78.18,224.21 77.75,225.31 76.9,227.52 76.14,229.76 75.4,232.01 74.65,234.26 73.92,236.52 73.14,238.77 72.75,239.9 72.35,241.02 71.9,242.13 71.67,242.69 71.43,243.23 71.14,243.78 L 70.3,245.35 C 68.17,249.55 66.47,253.98 65.22,258.52 64.59,260.79 64.1,263.09 63.87,265.41 63.62,267.75 63.73,270.06 64.34,272.3 65.54,276.79 68.61,280.58 72.23,283.5 74.04,284.98 75.98,286.32 78.11,287.23 79.17,287.69 80.27,288.04 81.41,288.28 82.55,288.55 83.7,288.61 84.95,288.97 85.25,289.07 85.57,289.2 85.87,289.41 86.17,289.62 86.46,289.96 86.54,290.39 86.69,291.27 86.2,291.94 85.61,292.36 85.45,292.46 85.28,292.55 85.05,292.6 84.79,292.65 84.67,292.62 84.52,292.63 L 83.63,292.62 81.85,292.62 C 79.47,292.59 77.13,292.64 74.71,292.56 73.5,292.48 72.29,292.29 71.12,291.94 70.53,291.77 69.96,291.56 69.4,291.31 L 67.78,290.56 C 65.64,289.57 63.45,288.65 61.24,287.82 59.03,286.99 56.79,286.23 54.5,285.68 53.36,285.4 52.2,285.17 51.05,285.06 49.88,284.97 48.68,284.91 47.49,284.77 46.89,284.69 46.29,284.61 45.68,284.41 45.38,284.31 45.08,284.18 44.8,283.97 44.52,283.76 44.29,283.46 44.16,283.14 43.91,282.49 43.92,281.87 43.92,281.26 43.93,280.67 43.96,280.04 44.08,279.44 44.54,277.01 45.78,274.9 47,272.87 47.62,271.85 48.27,270.86 48.91,269.86 49.58,268.86 50.16,267.88 50.63,266.79 51.57,264.64 52.29,262.38 52.93,260.1 54.19,255.54 55.14,250.89 55.78,246.19 56.09,243.84 56.29,241.5 56.36,239.12 56.51,236.73 56.91,234.38 57.47,232.06 58.03,229.75 58.76,227.48 59.64,225.27 60.52,223.06 61.54,220.88 62.86,218.91 65.18,214.78 67.18,210.46 69.2,206.18 L 69.3,206.22 Z M 69.3,206.22" />
        </g>
        <g id="jonnieSideRight3-group102">
            <path id="jonnieSideRight3-bezier101" stroke="none" fill="rgb(0, 0, 0)" d="M 88.71,205.38 L 93.08,196.38 C 93.8,194.87 94.47,193.34 95.27,191.88 96.07,190.42 96.93,189 97.79,187.56 L 97.88,187.59 C 97.52,189.26 96.84,190.8 96.16,192.33 95.47,193.85 94.61,195.29 93.79,196.75 92.17,199.66 90.5,202.56 88.8,205.43 L 88.71,205.38 Z M 88.71,205.38" />
        </g>
        <g id="jonnieSideRight3-group103">
            <path id="jonnieSideRight3-bezier102" stroke="none" fill="rgb(0, 0, 0)" d="M 112.27,124.53 C 115.09,125.71 117.88,126.97 120.62,128.34 123.36,129.73 126.06,131.19 128.6,132.96 129.85,133.87 131.12,134.78 132.08,136.17 132.5,136.91 132.81,137.5 133.23,138.15 133.62,138.79 134.04,139.42 134.48,140.03 135.33,141.28 136.28,142.46 137.24,143.64 137.71,144.23 138.21,144.81 138.71,145.38 139.21,145.95 139.71,146.56 140.27,147.03 L 140.24,147.12 C 138.88,146.29 137.82,145.19 136.72,144.11 135.64,143.01 134.64,141.84 133.68,140.62 133.21,140 132.77,139.36 132.35,138.7 131.94,138.06 131.56,137.29 131.24,136.69 130.51,135.51 129.31,134.52 128.13,133.6 125.71,131.79 123.06,130.25 120.39,128.78 117.72,127.31 115,125.92 112.23,124.62 L 112.27,124.53 Z M 112.27,124.53" />
        </g>
        <g id="jonnieSideRight3-group104">
            <path id="jonnieSideRight3-bezier103" stroke="none" fill="rgb(0, 0, 0)" d="M 143.31,145.2 C 142.99,145.06 142.82,145.21 142.72,145.43 142.61,145.64 142.56,145.92 142.54,146.2 142.52,146.48 142.6,146.77 142.5,147.04 142.4,147.32 142.29,147.6 142.01,147.9 L 141.91,147.9 C 141.64,147.6 141.54,147.27 141.5,146.94 141.46,146.61 141.65,146.3 141.77,145.99 141.9,145.68 142.06,145.37 142.34,145.11 142.48,144.99 142.68,144.88 142.89,144.89 143.09,144.88 143.27,145.01 143.36,145.11 L 143.31,145.2 Z M 143.31,145.2" />
        </g>
        <g id="jonnieSideRight3-group105">
            <path id="jonnieSideRight3-bezier104" stroke="none" fill="rgb(0, 0, 0)" d="M 146.31,144.99 C 145.77,144.75 145.3,145.15 145.02,145.58 144.73,146 144.53,146.53 144.5,147.01 144.5,147.07 144.5,147.13 144.51,147.18 L 144.51,147.22 C 144.51,147.21 144.51,147.27 144.51,147.21 L 144.52,147.24 C 144.52,147.27 144.53,147.32 144.54,147.3 144.56,147.31 144.6,147.38 144.67,147.41 144.79,147.52 145,147.63 145.21,147.76 145.65,148.02 146.16,148.25 146.68,148.61 L 146.66,148.71 C 146.05,148.89 145.43,148.86 144.81,148.67 144.5,148.57 144.2,148.4 143.93,148.08 143.81,147.91 143.7,147.73 143.66,147.45 143.65,147.36 143.66,147.34 143.66,147.3 L 143.66,147.27 C 143.65,147.2 143.66,147.23 143.66,147.21 L 143.67,147.14 C 143.68,147.05 143.69,146.97 143.71,146.89 143.88,146.24 144.21,145.7 144.65,145.25 144.87,145.04 145.14,144.85 145.45,144.76 145.76,144.66 146.12,144.71 146.36,144.9 L 146.31,144.99 Z M 146.31,144.99" />
        </g>
        <g id="jonnieSideRight3-group106">
            <path id="jonnieSideRight3-bezier105" stroke="none" fill="rgb(0, 0, 0)" d="M 149.65,144.29 C 148.91,144.06 148,144.23 147.62,144.77 147.26,145.29 147.59,146.07 147.98,146.68 148.38,147.29 149,147.81 149.48,148.11 149.63,148.23 150.04,148.23 150.35,148.21 150.66,148.17 150.97,148 151.29,147.72 L 151.38,147.77 C 151.31,148.18 151.05,148.64 150.59,148.87 150.36,148.99 150.14,149.05 149.9,149.09 149.74,149.14 149.33,149.13 149.09,149.03 148.11,148.63 147.69,147.82 147.28,147.07 147.09,146.68 146.94,146.26 146.88,145.81 146.82,145.38 146.89,144.81 147.24,144.46 147.96,143.77 148.96,143.85 149.68,144.19 L 149.65,144.29 Z M 149.65,144.29" />
        </g>
        <g id="jonnieSideRight3-group107">
            <path id="jonnieSideRight3-bezier106" stroke="none" fill="rgb(0, 0, 0)" d="M 149.29,141.63 C 149.65,142.18 150.15,142.64 150.75,142.87 151.34,143.11 152.03,143.14 152.63,142.97 L 152.6,142.99 C 152.93,142.66 152.99,142.11 152.79,141.66 152.61,141.19 152.28,140.81 151.91,140.44 151.17,139.64 150.74,138.65 150.09,137.87 148.8,136.25 146.67,135.73 144.78,134.82 140.93,133.09 137.37,130.8 133.88,128.46 132.15,127.28 130.4,126.11 128.73,124.82 127.05,123.54 125.45,122.16 123.9,120.73 120.84,117.85 117.93,114.79 115.38,111.44 L 115.46,111.38 C 118.39,114.38 121.4,117.28 124.55,120.02 127.69,122.77 130.95,125.34 134.37,127.76 137.78,130.18 141.26,132.52 145.02,134.31 L 147.88,135.63 C 148.83,136.12 149.74,136.75 150.41,137.62 151.07,138.48 151.46,139.47 152.14,140.23 152.49,140.61 152.85,141.04 153.04,141.57 153.24,142.08 153.18,142.75 152.74,143.16 L 152.72,143.17 152.7,143.18 C 152.02,143.35 151.31,143.29 150.69,143.02 150.06,142.75 149.55,142.25 149.2,141.69 L 149.29,141.63 Z M 149.29,141.63" />
        </g>
        <g id="jonnieSideRight3-group108">
            <path id="jonnieSideRight3-bezier107" stroke="none" fill="rgb(0, 0, 0)" d="M 150.71,144.27 C 150.55,144.6 150.47,144.98 150.52,145.32 150.57,145.69 150.77,145.89 151.06,146.19 151.32,146.47 151.57,146.75 151.84,147 152.09,147.24 152.4,147.46 152.62,147.49 152.95,147.58 153.13,146.85 153.29,146.21 153.44,145.54 153.55,144.85 153.38,144.1 L 153.46,144.04 C 154.16,144.57 154.33,145.53 154.28,146.35 154.25,146.78 154.13,147.2 153.88,147.61 153.74,147.81 153.59,148.01 153.3,148.18 153.05,148.33 152.69,148.36 152.43,148.27 151.9,148.08 151.63,147.75 151.36,147.45 151.1,147.13 150.89,146.81 150.67,146.5 150.47,146.22 150.18,145.77 150.22,145.34 150.24,144.92 150.4,144.54 150.62,144.21 L 150.71,144.27 Z M 150.71,144.27" />
        </g>
        <g id="jonnieSideRight3-group205">
            <path id="jonnieSideRight3-bezier204" stroke="none" fill="rgb(0, 0, 0)" d="M 52.68,264.62 C 54.28,265.01 55.87,265.4 57.46,265.75 58.26,265.93 59.08,266.01 59.84,266.25 60.62,266.48 61.37,266.74 62.17,267.03 L 62.17,267.13 C 61.32,267.4 60.45,267.33 59.63,267.23 58.8,267.12 58.03,266.79 57.25,266.52 55.69,265.99 54.15,265.38 52.65,264.71 L 52.68,264.62 Z M 52.68,264.62" />
        </g>
        <g id="jonnieSideRight3-group206">
            <path id="jonnieSideRight3-bezier205" stroke="none" fill="rgb(0, 0, 0)" d="M 108.24,271.37 C 109.58,271.04 110.93,270.76 112.29,270.54 112.96,270.43 113.64,270.23 114.34,270.26 115.03,270.29 115.75,270.34 116.43,270.7 L 116.41,270.8 C 115.72,270.99 115.08,271.16 114.4,271.26 113.73,271.38 113.05,271.31 112.37,271.33 L 108.26,271.47 108.24,271.37 Z M 108.24,271.37" />
        </g>
        <g id="jonnieSideRight3-group216">
            <path id="jonnieSideRight3-bezier215" stroke="none" fill="rgb(0, 0, 0)" d="M 90.4,46.96 C 93.16,48.41 95.96,49.79 98.81,51.02 100.24,51.62 101.71,52.12 103.13,52.66 103.85,52.93 104.57,53.17 105.3,53.37 106.02,53.54 106.78,53.72 107.49,53.46 L 107.55,53.54 C 106.9,54.11 105.97,54.1 105.19,54.06 104.37,54.01 103.59,53.83 102.82,53.61 101.29,53.18 99.88,52.45 98.47,51.75 95.67,50.34 92.97,48.75 90.35,47.05 L 90.4,46.96 Z M 90.4,46.96" />
        </g>
        <g id="jonnieSideRight3-group217">
            <path id="jonnieSideRight3-bezier216" stroke="none" fill="rgb(0, 0, 0)" d="M 75.99,74.96 C 77.24,74.87 78.45,75.25 79.6,75.68 80.74,76.14 81.83,76.74 82.87,77.4 83.9,78.07 84.95,78.74 85.83,79.61 86.7,80.47 87.51,81.4 88.16,82.47 L 88.09,82.53 C 87.05,81.86 86.11,81.1 85.17,80.36 84.22,79.62 83.37,78.78 82.41,78.06 81.46,77.33 80.46,76.67 79.39,76.13 78.34,75.6 77.2,75.11 76.01,75.06 L 75.99,74.96 Z M 75.99,74.96" />
        </g>
        <g id="jonnieSideRight3-group222">
            <path id="jonnieSideRight3-bezier221" stroke="none" fill="rgb(0, 0, 0)" d="M 110.3,134.94 L 110.52,139.06 C 110.55,139.75 110.69,140.42 110.63,141.1 110.58,141.79 110.51,142.46 110.3,143.17 L 110.2,143.18 C 109.86,142.52 109.72,141.82 109.63,141.13 109.54,140.44 109.67,139.74 109.72,139.05 109.82,137.67 109.98,136.3 110.2,134.93 L 110.3,134.94 Z M 110.3,134.94" />
        </g>
    </g>
</svg>
