<?xml version="1.0" encoding="UTF-8"?>
<!DOCTYPE svg PUBLIC "-//W3C//DTD SVG 1.1//EN" "http://www.w3.org/Graphics/SVG/1.1/DTD/svg11.dtd">
<svg version="1.1" xmlns="http://www.w3.org/2000/svg" xmlns:xlink="http://www.w3.org/1999/xlink" width="200" height="100"  xml:space="preserve" id="jonnieTop5">
    <!-- Generated by PaintCode - http://www.paintcodeapp.com -->
    <g id="jonnieTop5-group2">
        <g id="jonnieTop5-group345">
            <path id="jonnieTop5-bezier341" stroke="none" fill="rgb(0, 0, 0)" d="M 106.17,58.3 C 106.17,60.5 106.61,62.69 107.47,64.71 108.34,66.72 109.63,68.55 111.21,70.06 114.37,73.1 118.73,74.79 123.08,74.72 127.42,74.71 131.72,72.95 134.79,69.9 137.89,66.89 139.69,62.6 139.64,58.31 139.63,53.99 137.78,49.77 134.67,46.82 131.62,43.82 127.35,42.11 123.08,42.13 118.79,42.07 114.5,43.7 111.32,46.66 109.74,48.13 108.43,49.93 107.54,51.92 106.66,53.92 106.19,56.1 106.17,58.3 Z M 106.07,58.3 C 106,53.88 107.81,49.46 110.95,46.27 112.52,44.68 114.4,43.38 116.48,42.5 118.56,41.62 120.82,41.16 123.07,41.13 127.62,41.11 132.12,42.93 135.36,46.11 138.61,49.28 140.5,53.79 140.44,58.3 140.44,62.83 138.5,67.27 135.24,70.37 132.02,73.5 127.55,75.27 123.08,75.22 118.61,75.19 114.2,73.36 111.06,70.21 107.91,67.1 106.05,62.72 106.07,58.3 Z M 106.07,58.3" />
        </g>
        <g id="jonnieTop5-group346">
            <path id="jonnieTop5-bezier342" stroke="none" fill="rgb(0, 0, 0)" d="M 140.47,60.29 C 140.98,60.05 141.47,59.74 141.88,59.39 142.3,59.05 142.64,58.6 142.63,58.22 142.62,57.82 142.3,57.68 141.91,57.4 141.51,57.13 141.01,56.89 140.48,56.56 L 140.49,56.46 C 141.1,56.25 141.73,56.27 142.36,56.5 142.67,56.61 142.97,56.83 143.2,57.16 143.42,57.5 143.5,57.95 143.42,58.32 143.25,59.09 142.67,59.5 142.16,59.8 141.63,60.08 141.07,60.26 140.5,60.39 L 140.47,60.29 Z M 140.47,60.29" />
        </g>
        <g id="jonnieTop5-group347">
            <path id="jonnieTop5-bezier343" stroke="none" fill="rgb(0, 0, 0)" d="M 104.23,42.86 L 106.5,33.44 C 106.89,31.87 107.24,30.3 107.58,28.69 107.88,27.08 108.54,25.55 109.58,24.23 L 109.67,24.27 C 109.44,25.92 109.05,27.45 108.43,28.94 107.86,30.43 107.5,32.03 107.05,33.58 106.17,36.69 105.24,39.79 104.32,42.89 L 104.23,42.86 Z M 104.23,42.86" />
        </g>
        <g id="jonnieTop5-group348">
            <path id="jonnieTop5-bezier344" stroke="none" fill="rgb(0, 0, 0)" d="M 149.48,65.82 C 150.21,66.29 150.82,66.96 151.27,67.74 151.7,68.53 151.93,69.45 151.92,70.37 151.91,71.28 151.75,72.23 151.29,73.02 150.84,73.81 150.24,74.5 149.49,75 L 149.41,74.94 C 149.73,74.1 150.1,73.35 150.39,72.59 150.67,71.84 151.02,71.12 151.12,70.32 151.33,68.75 150.67,67.05 149.42,65.9 L 149.48,65.82 Z M 149.48,65.82" />
        </g>
        <g id="jonnieTop5-group349">
            <path id="jonnieTop5-bezier345" stroke="none" fill="rgb(0, 0, 0)" d="M 149.46,76.06 C 146.5,77.12 143.52,78.13 140.53,79.1 139.04,79.6 137.56,80.15 136.03,80.52 134.51,80.9 132.97,81.23 131.38,81.4 L 131.35,81.31 C 132.79,80.61 134.27,80.07 135.75,79.56 137.24,79.06 138.78,78.73 140.3,78.33 143.34,77.53 146.39,76.74 149.44,75.97 L 149.46,76.06 Z M 149.46,76.06" />
        </g>
        <g id="jonnieTop5-group350">
            <path id="jonnieTop5-bezier346" stroke="none" fill="rgb(0, 0, 0)" d="M 149.07,65.51 C 147.49,65.43 145.9,65.33 144.32,65.2 143.53,65.14 142.73,65.16 141.95,64.98 141.18,64.81 140.41,64.59 139.66,64.22 L 139.67,64.12 C 140.49,63.95 141.29,63.95 142.09,63.99 142.88,64.02 143.65,64.26 144.43,64.41 145.99,64.71 147.54,65.04 149.09,65.41 L 149.07,65.51 Z M 149.07,65.51" />
        </g>
        <g id="jonnieTop5-group351">
            <path id="jonnieTop5-bezier347" stroke="none" fill="rgb(0, 0, 0)" d="M 150.25,64.99 C 151.25,64.9 152.25,64.8 153.26,64.79 153.77,64.78 154.27,64.78 154.78,64.79 155.29,64.81 155.81,64.8 156.34,64.93 156.6,64.99 156.86,65.09 157.13,65.24 157.27,65.32 157.41,65.42 157.55,65.58 157.61,65.66 157.68,65.78 157.71,65.91 157.73,65.98 157.73,66.05 157.73,66.12 L 157.72,66.22 C 157.68,66.74 157.61,67.32 157.22,67.81 156.82,68.29 156.22,68.43 155.72,68.48 155.2,68.52 154.7,68.5 154.19,68.46 L 154.19,68.36 C 154.69,68.3 155.19,68.24 155.66,68.13 156.13,68.01 156.56,67.81 156.76,67.47 156.97,67.13 157.01,66.67 157,66.2 157.06,66.15 156.54,66.02 156.11,65.94 155.2,65.72 154.21,65.51 153.23,65.41 152.24,65.31 151.25,65.18 150.25,65.09 L 150.25,64.99 Z M 150.25,64.99" />
        </g>
        <g id="jonnieTop5-group352">
            <path id="jonnieTop5-bezier348" stroke="none" fill="rgb(0, 0, 0)" d="M 156.41,70.48 C 156.22,72.12 155.67,73.77 154.59,75.15 154.05,75.82 153.39,76.51 152.52,76.8 151.67,77.11 150.73,77.12 149.91,76.82 L 149.92,76.72 C 150.74,76.46 151.47,76.24 152.12,75.88 152.77,75.53 153.44,75.17 153.99,74.62 154.54,74.07 155,73.42 155.38,72.71 155.77,72 156.09,71.25 156.31,70.46 L 156.41,70.48 Z M 156.41,70.48" />
        </g>
        <g id="jonnieTop5-group353">
            <path id="jonnieTop5-bezier349" stroke="none" fill="rgb(0, 0, 0)" d="M 50.86,47.08 C 52.63,46.92 54.39,47.08 56.15,47.18 L 61.42,47.57 C 64.92,47.85 68.43,48.12 71.94,48.32 75.45,48.52 78.96,48.6 82.47,48.76 L 93.01,49.21 93.02,49.31 C 89.5,49.71 85.97,49.77 82.44,49.76 78.91,49.73 75.39,49.43 71.88,49.12 68.37,48.82 64.87,48.45 61.37,48.06 L 56.12,47.48 C 54.37,47.31 52.62,47.09 50.87,47.17 L 50.86,47.08 Z M 50.86,47.08" />
        </g>
        <g id="jonnieTop5-group354">
            <path id="jonnieTop5-bezier350" stroke="none" fill="rgb(0, 0, 0)" d="M 50.16,38.99 C 50.78,40 51.15,41.19 51.25,42.42 51.29,43.02 51.36,43.66 51.16,44.26 50.97,44.86 50.67,45.43 50.17,45.85 L 50.08,45.8 C 50.08,45.16 50.14,44.61 50.18,44.06 50.22,43.51 50.4,42.98 50.45,42.42 50.53,41.3 50.42,40.15 50.07,39.03 L 50.16,38.99 Z M 50.16,38.99" />
        </g>
        <g id="jonnieTop5-group355">
            <path id="jonnieTop5-bezier351" stroke="none" fill="rgb(0, 0, 0)" d="M 97.66,32.52 C 93.81,32.62 89.96,32.91 86.12,33.28 82.28,33.63 78.46,34.09 74.65,34.65 70.83,35.21 67.05,35.93 63.26,36.59 59.46,37.22 55.69,37.99 51.89,38.68 L 51.86,38.58 C 55.53,37.34 59.29,36.42 63.07,35.61 66.86,34.81 70.7,34.31 74.54,33.85 82.22,32.94 89.94,32.39 97.66,32.42 L 97.66,32.52 Z M 97.66,32.52" />
        </g>
        <g id="jonnieTop5-group356">
            <path id="jonnieTop5-bezier352" stroke="none" fill="rgb(0, 0, 0)" d="M 49.43,39.06 C 47.67,39.53 45.86,39.75 44.03,39.78 43.12,39.79 42.19,39.84 41.28,39.64 40.39,39.45 39.5,39.17 38.69,38.68 L 38.72,38.58 C 39.65,38.54 40.54,38.6 41.42,38.65 42.3,38.7 43.17,38.9 44.05,38.98 44.94,39.06 45.83,39.09 46.72,39.09 47.62,39.09 48.52,39.07 49.41,38.96 L 49.43,39.06 Z M 49.43,39.06" />
        </g>
        <g id="jonnieTop5-group357">
            <path id="jonnieTop5-bezier353" stroke="none" fill="rgb(0, 0, 0)" d="M 49.41,47.13 C 47.62,47.09 45.83,47.07 44.04,47.06 43.15,47.05 42.26,47.14 41.38,47.06 40.49,46.98 39.62,46.87 38.71,46.68 L 38.7,46.58 C 39.57,46.22 40.49,46.11 41.39,46.05 42.3,45.99 43.19,46.16 44.09,46.26 45.88,46.44 47.65,46.71 49.42,47.03 L 49.41,47.13 Z M 49.41,47.13" />
        </g>
        <g id="jonnieTop5-group358">
            <path id="jonnieTop5-bezier354" stroke="none" fill="rgb(0, 0, 0)" d="M 40.54,49.05 C 39.59,49.19 38.62,49.22 37.66,49.12 36.7,49.02 35.73,48.78 34.86,48.25 34,47.73 33.34,46.83 33.09,45.83 32.96,45.33 32.93,44.82 32.9,44.35 32.87,43.86 32.86,43.37 32.88,42.88 32.9,41.9 33.02,40.92 33.29,39.94 33.57,38.98 34.06,38.03 34.82,37.29 35.59,36.56 36.63,36.12 37.65,36.07 38.67,36 39.65,36.22 40.55,36.59 L 40.52,36.68 C 39.57,36.59 38.62,36.56 37.75,36.76 36.88,36.96 36.1,37.37 35.53,38 34.38,39.25 33.84,41.09 33.68,42.93 33.64,43.39 33.62,43.86 33.62,44.32 33.63,44.8 33.63,45.25 33.73,45.68 33.9,46.55 34.4,47.32 35.14,47.83 36.65,48.87 38.66,49.07 40.53,48.95 L 40.54,49.05 Z M 40.54,49.05" />
        </g>
        <g id="jonnieTop5-group359">
            <path id="jonnieTop5-bezier355" stroke="none" fill="rgb(0, 0, 0)" d="M 105.77,31.07 C 102.08,32.68 99.16,35.78 97.54,39.4 96.71,41.2 96.21,43.15 95.97,45.11 95.76,47.08 95.68,49.11 95.59,51.11 95.44,55.12 95.47,59.14 95.55,63.14 95.58,65.15 95.69,67.14 95.87,69.14 96.06,71.12 96.31,73.12 96.89,75.04 L 96.79,75.08 C 95.94,73.23 95.51,71.22 95.18,69.22 94.85,67.22 94.69,65.2 94.56,63.18 94.34,59.14 94.53,55.09 94.79,51.07 94.94,49.05 95.06,47.05 95.32,45.03 95.62,43 96.19,41.02 97.09,39.18 98.88,35.52 101.96,32.47 105.73,30.97 L 105.77,31.07 Z M 105.77,31.07" />
        </g>
        <g id="jonnieTop5-group411">
            <path id="jonnieTop5-bezier407" stroke="none" fill="rgb(0, 0, 0)" d="M 85.59,84.26 C 84.76,83.7 83.84,83.26 82.94,82.82 82.04,82.39 81.12,81.98 80.19,81.72 79.74,81.6 79.21,81.51 78.94,81.62 L 78.63,81.74 C 78.5,81.79 78.38,81.84 78.24,81.87 77.98,81.94 77.71,82 77.43,82.02 76.87,82.06 76.27,82.01 75.73,81.71 75.17,81.41 74.88,80.75 74.95,80.23 L 75.05,80.21 C 75.5,81.21 76.41,81.2 77.3,81.03 77.52,80.99 77.74,80.93 77.96,80.87 L 78.3,80.78 C 78.42,80.74 78.49,80.71 78.71,80.65 79.44,80.56 79.92,80.79 80.43,80.96 81.42,81.35 82.31,81.85 83.18,82.38 84.04,82.95 84.88,83.5 85.66,84.18 L 85.59,84.26 Z M 85.59,84.26" />
        </g>
        <g id="jonnieTop5-group412">
            <path id="jonnieTop5-bezier408" stroke="none" fill="rgb(0, 0, 0)" d="M 80.44,77.55 C 79.99,77.14 79.45,76.79 78.98,76.74 78.73,76.71 78.59,76.85 78.4,76.85 L 77.52,76.98 77.45,76.91 C 77.44,76.5 77.66,76.15 78.01,75.93 78.38,75.69 78.89,75.81 79.23,75.97 79.93,76.32 80.28,76.91 80.52,77.5 L 80.44,77.55 Z M 80.44,77.55" />
        </g>
        <g id="jonnieTop5-group413">
            <path id="jonnieTop5-bezier409" stroke="none" fill="rgb(0, 0, 0)" d="M 79.07,77.6 C 80.43,77.27 81.82,77.01 83.22,76.84 83.92,76.76 84.63,76.61 85.35,76.7 86.05,76.8 86.85,76.94 87.41,77.52 L 87.36,77.61 C 86.66,77.57 86,77.67 85.32,77.7 84.65,77.75 83.96,77.64 83.26,77.64 81.88,77.63 80.48,77.66 79.08,77.7 L 79.07,77.6 Z M 79.07,77.6" />
        </g>
        <g id="jonnieTop5-group414">
            <path id="jonnieTop5-bezier410" stroke="none" fill="rgb(0, 0, 0)" d="M 129.88,28.56 C 131.45,29.2 132.76,30.37 133.77,31.74 134.76,33.14 135.41,34.76 135.76,36.44 136.12,38.11 136.24,39.85 136.02,41.54 135.79,43.23 135.35,44.88 134.65,46.42 L 134.55,46.4 C 134.73,44.72 134.94,43.08 135.03,41.45 135.11,39.82 135.21,38.2 134.97,36.58 134.74,34.98 134.22,33.41 133.35,32.02 132.5,30.64 131.32,29.41 129.84,28.65 L 129.88,28.56 Z M 129.88,28.56" />
        </g>
        <g id="jonnieTop5-group415">
            <path id="jonnieTop5-bezier411" stroke="none" fill="rgb(0, 0, 0)" d="M 94.8,78.77 C 95.34,77.77 96.14,76.88 97.09,76.21 98.05,75.54 99.1,75.04 100.18,74.62 101.26,74.22 102.35,73.81 103.5,73.66 104.64,73.5 105.78,73.43 106.94,73.57 L 106.96,73.67 C 105.87,74.08 104.77,74.35 103.69,74.64 102.61,74.93 101.5,75.07 100.43,75.38 99.37,75.69 98.32,76.08 97.36,76.63 96.39,77.16 95.54,77.9 94.88,78.82 L 94.8,78.77 Z M 94.8,78.77" />
        </g>
        <g id="jonnieTop5-group416">
            <path id="jonnieTop5-bezier412" stroke="none" fill="rgb(0, 0, 0)" d="M 134.51,74.82 L 131.48,80.11 C 130.44,81.87 129.42,83.63 128.18,85.29 127.56,86.12 126.88,86.93 126.07,87.62 125.25,88.32 124.29,88.86 123.28,89.2 121.23,89.85 119.12,89.84 117.09,89.57 L 117.09,89.47 C 119.11,89.19 121.14,88.97 122.94,88.26 124.74,87.57 126.28,86.34 127.55,84.8 128.83,83.25 129.94,81.55 131.05,79.85 L 134.43,74.76 134.51,74.82 Z M 134.51,74.82" />
        </g>
        <g id="jonnieTop5-group417">
            <path id="jonnieTop5-bezier413" stroke="none" fill="rgb(0, 0, 0)" d="M 111.16,21.15 C 111.48,20.08 112.05,19.12 112.68,18.21 113.34,17.31 114.09,16.49 114.91,15.73 115.72,14.98 116.55,14.22 117.53,13.68 118.51,13.14 119.53,12.7 120.63,12.47 L 120.68,12.56 C 119.82,13.29 118.94,13.9 118.07,14.53 117.21,15.16 116.27,15.68 115.43,16.34 114.58,16.99 113.78,17.72 113.07,18.52 112.36,19.32 111.69,20.19 111.26,21.17 L 111.16,21.15 Z M 111.16,21.15" />
        </g>
        <g id="jonnieTop5-group418">
            <path id="jonnieTop5-bezier414" stroke="none" fill="rgb(0, 0, 0)" d="M 118.62,12.52 C 120.27,11.1 122.46,10.53 124.58,10.38 126.73,10.22 128.89,10.6 130.95,11.09 135.1,11.99 139.28,12.79 143.47,13.42 147.66,14.02 151.9,14.52 156.08,14.47 157.09,14.46 158.18,14.31 159.28,14.34 160.36,14.35 161.46,14.44 162.52,14.71 163.58,14.97 164.64,15.38 165.51,16.09 166.38,16.79 166.92,18 166.58,19.07 L 166.48,19.05 C 166.64,17.99 166.07,17 165.23,16.45 164.4,15.87 163.39,15.56 162.38,15.39 161.36,15.23 160.32,15.16 159.28,15.2 158.24,15.22 157.23,15.4 156.12,15.47 151.77,15.66 147.54,14.92 143.34,14.21 139.14,13.48 134.97,12.58 130.83,11.58 128.78,11.02 126.71,10.59 124.59,10.68 122.51,10.76 120.34,11.26 118.69,12.59 L 118.62,12.52 Z M 118.62,12.52" />
        </g>
        <g id="jonnieTop5-group419">
            <path id="jonnieTop5-bezier415" stroke="none" fill="rgb(0, 0, 0)" d="M 158.51,22.68 C 159.37,22.35 160.26,22.08 161.17,21.91 161.62,21.83 162.09,21.77 162.56,21.79 163.03,21.81 163.56,21.89 163.92,22.3 164.27,22.71 164.28,23.33 164.01,23.77 163.75,24.22 163.36,24.52 162.97,24.79 162.19,25.31 161.34,25.69 160.57,26.16 160.38,26.27 160.2,26.4 160.03,26.53 159.94,26.61 159.9,26.64 159.79,26.76 159.73,26.8 159.73,26.82 159.63,26.88 159.54,26.94 159.44,26.97 159.35,26.98 158.99,27.01 158.75,26.87 158.53,26.75 158.32,26.62 158.12,26.48 157.93,26.34 157.19,25.77 156.5,25.19 155.76,24.67 154.29,23.62 152.64,22.85 150.89,22.52 149.15,22.2 147.33,22.35 145.51,22.49 L 140.03,22.97 C 136.37,23.23 132.68,23.55 128.99,23.36 L 128.99,23.26 C 132.65,22.88 136.28,22.42 139.93,21.97 141.76,21.78 143.6,21.59 145.44,21.5 147.28,21.43 149.17,21.33 151.05,21.74 152.91,22.14 154.64,23.02 156.14,24.14 156.89,24.69 157.59,25.32 158.28,25.89 158.61,26.15 159.04,26.47 159.28,26.44 159.32,26.44 159.32,26.43 159.33,26.44 159.34,26.45 159.41,26.38 159.45,26.35 159.49,26.3 159.62,26.19 159.71,26.12 159.91,25.97 160.11,25.84 160.32,25.73 161.14,25.27 161.99,24.92 162.75,24.45 163.13,24.21 163.49,23.94 163.71,23.6 163.94,23.27 163.93,22.79 163.69,22.49 163.45,22.18 162.99,22.07 162.55,22.04 162.1,22.01 161.65,22.05 161.2,22.11 160.3,22.25 159.41,22.48 158.54,22.77 L 158.51,22.68 Z M 158.51,22.68" />
        </g>
        <g id="jonnieTop5-group420">
            <path id="jonnieTop5-bezier416" stroke="none" fill="rgb(0, 0, 0)" d="M 127.81,19.06 C 127.63,20.73 127.4,22.39 127.09,24.04 126.93,24.86 126.84,25.71 126.51,26.5 126.35,26.9 126.18,27.29 125.94,27.67 125.82,27.85 125.68,28.04 125.51,28.21 125.42,28.29 125.32,28.38 125.16,28.43 124.96,28.49 124.81,28.3 124.8,28.2 L 124.88,28.15 C 124.98,28.22 125.04,28.2 125.05,28.16 125.07,28.12 125.11,28.03 125.14,27.95 125.2,27.78 125.24,27.58 125.29,27.39 L 125.56,26.2 C 125.73,25.4 126.07,24.64 126.31,23.84 126.79,22.26 127.25,20.65 127.71,19.05 L 127.81,19.06 Z M 127.81,19.06" />
        </g>
        <g id="jonnieTop5-group421">
            <path id="jonnieTop5-bezier417" stroke="none" fill="rgb(0, 0, 0)" d="M 115.67,89.57 C 113.26,89.65 110.84,89.57 108.43,89.38 106.02,89.16 103.62,88.81 101.25,88.2 98.91,87.59 96.49,86.8 94.56,85.1 93.63,84.25 92.83,83.17 92.5,81.92 92.15,80.67 92.28,79.37 92.7,78.23 L 92.8,78.25 C 92.65,79.45 92.73,80.65 93.16,81.7 93.58,82.75 94.31,83.64 95.21,84.34 97,85.76 99.2,86.73 101.47,87.43 103.75,88.12 106.11,88.56 108.49,88.88 110.87,89.2 113.27,89.41 115.67,89.47 L 115.67,89.57 Z M 115.67,89.57" />
        </g>
        <g id="jonnieTop5-group422">
            <path id="jonnieTop5-bezier418" stroke="none" fill="rgb(0, 0, 0)" d="M 99.84,73.52 C 99.23,67.32 99.16,61.06 99.78,54.83 100.09,51.72 100.51,48.6 101.36,45.58 102.24,42.57 103.35,39.6 105,36.92 L 105.09,36.97 C 103.96,39.88 103.02,42.82 102.33,45.83 101.63,48.83 100.99,51.85 100.57,54.92 100.17,57.99 99.94,61.09 99.85,64.2 99.74,67.3 99.77,70.41 99.94,73.51 L 99.84,73.52 Z M 99.84,73.52" />
        </g>
        <g id="jonnieTop5-group423">
            <path id="jonnieTop5-bezier419" stroke="none" fill="rgb(0, 0, 0)" d="M 125.92,23.07 C 124.7,22.28 123.25,21.91 121.83,21.69 120.4,21.48 118.94,21.47 117.51,21.59 116.06,21.72 114.66,22.04 113.23,22.29 111.81,22.54 110.38,22.85 108.91,23.08 L 108.88,22.98 C 110.17,22.24 111.58,21.71 113.02,21.32 114.46,20.93 115.97,20.81 117.46,20.79 118.96,20.76 120.46,20.88 121.92,21.2 123.37,21.56 124.8,22.07 125.99,22.99 L 125.92,23.07 Z M 125.92,23.07" />
        </g>
        <g id="jonnieTop5-group424">
            <path id="jonnieTop5-bezier420" stroke="none" fill="rgb(0, 0, 0)" d="M 96,86.09 C 94.33,85.83 92.67,85.47 91.04,85 90.22,84.75 89.37,84.56 88.61,84.12 88.23,83.9 87.86,83.66 87.53,83.35 87.21,83.05 86.87,82.66 86.81,82.17 L 86.91,82.14 C 87.5,82.7 88.3,82.9 89.04,83.22 89.81,83.5 90.53,83.92 91.3,84.24 92.85,84.87 94.43,85.45 96.03,86 L 96,86.09 Z M 96,86.09" />
        </g>
        <g id="jonnieTop5-group425">
            <path id="jonnieTop5-bezier421" stroke="none" fill="rgb(0, 0, 0)" d="M 94.54,76.72 C 93.22,76.92 91.9,77.15 90.62,77.44 89.98,77.59 89.38,77.85 88.75,77.96 88.13,78.09 87.53,78.16 86.9,78.42 L 86.82,78.36 C 87.12,77.64 87.84,77.26 88.47,77 89.12,76.73 89.82,76.72 90.5,76.66 91.85,76.53 93.19,76.53 94.53,76.62 L 94.54,76.72 Z M 94.54,76.72" />
        </g>
        <g id="jonnieTop5-group426">
            <path id="jonnieTop5-bezier422" stroke="none" fill="rgb(0, 0, 0)" d="M 85.96,81.71 C 85.69,81.61 85.43,81.47 85.19,81.26 84.96,81.04 84.75,80.75 84.69,80.36 84.63,79.98 84.7,79.52 84.98,79.28 85.25,79.05 85.57,78.93 85.96,79 L 86.02,79.09 C 85.94,79.47 85.84,79.7 85.77,79.9 85.71,80.1 85.54,80.17 85.49,80.34 85.39,80.68 85.66,81.22 86.01,81.63 L 85.96,81.71 Z M 85.96,81.71" />
        </g>
        <g id="jonnieTop5-group427">
            <path id="jonnieTop5-bezier423" stroke="none" fill="rgb(0, 0, 0)" d="M 78.09,78.85 C 77.65,79.08 77.18,79.25 76.65,79.32 76.39,79.34 76.07,79.43 75.78,79.22 75.49,79.06 75.24,78.56 75.51,78.25 L 75.61,78.24 C 75.93,78.41 76.05,78.3 76.2,78.31 76.34,78.3 76.49,78.46 76.7,78.51 77.11,78.63 77.59,78.7 78.07,78.75 L 78.09,78.85 Z M 78.09,78.85" />
        </g>
    </g>
</svg>
