<?xml version="1.0" encoding="UTF-8"?>
<!DOCTYPE svg PUBLIC "-//W3C//DTD SVG 1.1//EN" "http://www.w3.org/Graphics/SVG/1.1/DTD/svg11.dtd">
<svg version="1.1" xmlns="http://www.w3.org/2000/svg" xmlns:xlink="http://www.w3.org/1999/xlink" width="200" height="300"  xml:space="preserve" id="jonnieSideRight1">
    <!-- Generated by PaintCode - http://www.paintcodeapp.com -->
    <g id="jonnieSideRight1-group474">
        <g id="jonnieSideRight1-group2">
            <path id="jonnieSideRight1-bezier" stroke="none" fill="rgb(0, 0, 0)" d="M 122.7,29.16 C 122.5,25.67 121.95,22.2 120.97,18.85 120.48,17.18 119.86,15.55 119.04,14.02 118.22,12.5 117.19,11.08 115.84,10.03 114.52,8.94 112.84,8.46 111.14,8.16 109.44,7.87 107.71,7.8 105.98,7.91 102.54,8.15 99.13,9.06 96.1,10.68 93.09,12.31 90.49,14.76 89.11,17.86 88.4,19.4 88.04,21.06 87.91,22.76 87.76,24.46 87.85,26.17 88.2,27.83 88.53,29.5 89.13,31.12 89.82,32.72 90.49,34.32 91.27,35.92 91.69,37.67 92.14,39.41 92.14,41.29 91.65,43 91.15,44.72 90.28,46.28 89.29,47.73 L 89.21,47.67 C 90.1,46.17 90.84,44.57 91.21,42.89 91.6,41.22 91.52,39.48 91.02,37.85 90.53,36.22 89.76,34.66 89.03,33.06 88.29,31.47 87.62,29.8 87.23,28.04 86.84,26.28 86.73,24.47 86.87,22.67 87.01,20.89 87.44,19.09 88.21,17.45 89.75,14.14 92.58,11.61 95.73,9.98 98.9,8.33 102.41,7.46 105.95,7.27 107.72,7.18 109.5,7.27 111.25,7.59 112.11,7.76 112.99,7.99 113.82,8.29 114.67,8.61 115.46,9.07 116.16,9.64 117.55,10.78 118.59,12.27 119.4,13.84 120.2,15.41 120.79,17.08 121.26,18.77 122.18,22.16 122.66,25.66 122.8,29.16 L 122.7,29.16 Z M 122.7,29.16" />
        </g>
        <g id="jonnieSideRight1-group3">
            <path id="jonnieSideRight1-bezier2" stroke="none" fill="rgb(0, 0, 0)" d="M 120.55,32.45 C 120.63,34.94 120.57,37.46 120.06,39.94 119.76,41.15 119.43,42.45 118.41,43.44 118.16,43.67 117.83,43.86 117.48,43.97 117.3,44.02 117.11,44.05 116.93,44.05 L 116.46,44.06 C 115.86,44.08 115.25,44.14 114.66,44.25 112.27,44.65 110.16,45.98 108.79,47.89 108.07,48.84 107.57,49.94 107.21,51.09 107.03,51.67 106.9,52.27 106.83,52.87 106.75,53.47 106.69,54.1 106.87,54.67 L 106.78,54.72 C 106.19,53.53 106.34,52.19 106.53,50.93 106.76,49.66 107.26,48.44 107.96,47.33 108.69,46.23 109.68,45.29 110.83,44.65 111.98,44 113.26,43.63 114.53,43.46 115.17,43.37 115.81,43.33 116.46,43.34 L 116.92,43.34 C 117.05,43.35 117.18,43.33 117.3,43.3 117.54,43.24 117.78,43.12 117.99,42.95 118.83,42.21 119.26,40.98 119.58,39.82 120.2,37.44 120.4,34.93 120.45,32.45 L 120.55,32.45 Z M 120.55,32.45" />
        </g>
        <g id="jonnieSideRight1-group4">
            <path id="jonnieSideRight1-bezier3" stroke="none" fill="rgb(0, 0, 0)" d="M 102.78,53.29 C 105.32,55.74 107.55,58.53 109.24,61.67 110.06,63.25 110.72,64.93 111.08,66.7 111.33,68.46 111.8,70.09 112.44,71.73 113.72,74.97 115.45,78.04 117.06,81.16 117.85,82.73 118.68,84.28 119.45,85.87 120.2,87.47 121.01,89.07 121.42,90.81 L 121.33,90.84 C 121,90.02 120.59,89.25 120.15,88.49 119.73,87.72 119.29,86.96 118.84,86.2 L 116.18,81.64 C 114.45,78.56 112.89,75.36 111.69,72 111.09,70.35 110.63,68.55 110.44,66.82 110.15,65.12 109.55,63.47 108.79,61.9 107.26,58.76 105.15,55.89 102.72,53.36 L 102.78,53.29 Z M 102.78,53.29" />
        </g>
        <g id="jonnieSideRight1-group5">
            <path id="jonnieSideRight1-bezier4" stroke="none" fill="rgb(0, 0, 0)" d="M 122.77,92.78 C 127.52,94.96 132.23,97.24 136.73,99.93 137.85,100.62 138.95,101.33 139.98,102.18 140.23,102.39 140.49,102.64 140.71,102.87 140.94,103.08 141.18,103.28 141.43,103.48 141.93,103.87 142.47,104.24 143.01,104.6 145.18,106.02 147.47,107.26 149.78,108.46 154.42,110.8 159.2,112.94 164.09,114.59 165.31,114.98 166.54,115.34 167.79,115.41 169.1,115.5 170.41,115.61 171.71,115.81 173.01,116.01 174.31,116.25 175.59,116.59 176.22,116.78 176.85,116.98 177.46,117.25 177.76,117.39 178.06,117.55 178.33,117.75 178.6,117.95 178.87,118.2 178.92,118.56 L 178.83,118.58 C 178.75,118.28 178.48,118.07 178.22,117.92 177.95,117.75 177.65,117.63 177.35,117.52 176.75,117.31 176.11,117.16 175.48,117.04 174.21,116.78 172.92,116.62 171.63,116.51 170.34,116.4 169.04,116.3 167.75,116.27 166.38,116.24 165.06,115.9 163.79,115.54 158.73,113.98 154.03,111.62 149.4,109.16 147.1,107.92 144.82,106.62 142.64,105.14 142.1,104.76 141.57,104.38 141.05,103.96 140.79,103.75 140.54,103.53 140.29,103.28 140.06,103.04 139.85,102.83 139.6,102.62 138.64,101.78 137.56,101.05 136.46,100.35 132.07,97.56 127.41,95.17 122.73,92.87 L 122.77,92.78 Z M 122.77,92.78" />
        </g>
        <g id="jonnieSideRight1-group6">
            <path id="jonnieSideRight1-bezier5" stroke="none" fill="rgb(0, 0, 0)" d="M 178.91,120.03 C 179.56,120.53 180.17,121.09 180.7,121.73 181.21,122.37 181.7,123.11 181.76,124.03 181.77,124.96 181.37,125.75 180.97,126.48 180.55,127.21 180.05,127.89 179.49,128.52 178.38,129.76 177.01,130.92 175.29,131.36 174.42,131.57 173.58,131.6 172.72,131.53 172.3,131.48 171.87,131.42 171.45,131.24 171.07,131.07 170.58,130.69 170.7,130.19 L 170.8,130.21 C 170.86,130.59 171.23,130.75 171.59,130.81 171.95,130.88 172.34,130.87 172.73,130.83 173.5,130.74 174.31,130.64 175.01,130.4 176.43,129.92 177.78,129.07 178.91,127.97 179.47,127.41 179.98,126.8 180.41,126.14 180.83,125.48 181.23,124.76 181.26,124.04 181.28,123.31 180.91,122.56 180.46,121.91 180,121.25 179.45,120.65 178.84,120.11 L 178.91,120.03 Z M 178.91,120.03" />
        </g>
        <g id="jonnieSideRight1-group7">
            <path id="jonnieSideRight1-bezier6" stroke="none" fill="rgb(0, 0, 0)" d="M 172.49,128.25 C 169.94,127.86 167.4,127.38 164.92,126.61 164.3,126.41 163.69,126.18 163.1,125.9 162.8,125.76 162.51,125.6 162.23,125.4 L 161.47,124.79 C 160.46,124.02 159.37,123.33 158.27,122.68 156.06,121.39 153.73,120.26 151.3,119.52 150.69,119.34 150.08,119.19 149.46,119.08 148.83,118.96 148.25,118.96 147.55,118.88 146.23,118.68 144.98,118.32 143.74,117.96 138.78,116.44 133.93,114.64 129.19,112.57 126.83,111.51 124.48,110.43 122.18,109.24 121.03,108.64 119.89,108.03 118.78,107.37 118.22,107.03 117.68,106.68 117.15,106.3 116.62,105.92 116.07,105.55 115.71,104.97 L 115.79,104.92 C 116.18,105.41 116.76,105.73 117.3,106.06 117.86,106.38 118.42,106.68 119,106.97 120.14,107.55 121.31,108.09 122.48,108.61 124.83,109.67 127.19,110.69 129.58,111.65 134.34,113.59 139.1,115.59 143.97,117.19 145.19,117.57 146.43,117.95 147.66,118.16 148.24,118.24 148.95,118.26 149.59,118.4 150.23,118.53 150.87,118.7 151.49,118.9 153.99,119.71 156.31,120.91 158.53,122.25 159.63,122.94 160.71,123.66 161.72,124.48 162.64,125.41 163.8,125.89 165.02,126.32 167.44,127.15 169.97,127.7 172.51,128.15 L 172.49,128.25 Z M 172.49,128.25" />
        </g>
        <g id="jonnieSideRight1-group8">
            <path id="jonnieSideRight1-bezier7" stroke="none" fill="rgb(0, 0, 0)" d="M 113.59,102.48 C 109.87,98.1 106.26,93.62 102.81,89.02 101.08,86.72 99.33,84.42 97.83,81.95 97.09,80.71 96.36,79.46 95.72,78.16 95.1,76.86 94.49,75.52 94.2,74.09 L 94.3,74.06 C 94.85,75.38 95.59,76.61 96.33,77.82 97.09,79.03 97.86,80.24 98.67,81.41 100.27,83.78 101.82,86.19 103.45,88.55 106.75,93.24 110.17,97.86 113.67,102.42 L 113.59,102.48 Z M 113.59,102.48" />
        </g>
        <g id="jonnieSideRight1-group9">
            <path id="jonnieSideRight1-bezier8" stroke="none" fill="rgb(0, 0, 0)" d="M 86.16,51.61 C 85.2,52.7 84.4,53.91 83.7,55.17 82.99,56.43 82.4,57.75 81.97,59.11 81.54,60.47 81.33,61.88 81.12,63.27 80.91,64.67 80.84,66.09 80.8,67.57 L 80.7,67.58 C 80.2,66.18 80.04,64.66 80.13,63.17 80.21,61.67 80.67,60.22 81.22,58.84 82.31,56.07 83.98,53.57 86.09,51.54 L 86.16,51.61 Z M 86.16,51.61" />
        </g>
        <g id="jonnieSideRight1-group10">
            <path id="jonnieSideRight1-bezier9" stroke="none" fill="rgb(0, 0, 0)" d="M 81.28,54.74 C 79.38,56.3 77.56,57.95 75.85,59.71 74.18,61.48 72.5,63.34 71.49,65.53 70.42,67.8 69.04,69.83 67.72,71.91 66.37,73.97 64.98,76.01 63.58,78.04 60.78,82.09 57.98,86.14 54.99,90.05 53.45,91.98 51.94,93.9 50.56,95.92 49.87,96.92 49.22,97.96 48.67,99.04 48.1,100.11 47.62,101.25 47.42,102.45 L 47.32,102.44 C 47.5,99.93 48.74,97.66 49.97,95.54 51.24,93.41 52.74,91.43 54.19,89.45 L 62.93,77.58 C 64.37,75.58 65.79,73.58 67.17,71.55 68.53,69.52 69.96,67.49 71.03,65.32 72.16,63.05 73.9,61.25 75.64,59.5 77.4,57.78 79.27,56.17 81.22,54.66 L 81.28,54.74 Z M 81.28,54.74" />
        </g>
        <g id="jonnieSideRight1-group11">
            <path id="jonnieSideRight1-bezier10" stroke="none" fill="rgb(0, 0, 0)" d="M 46.16,103.36 C 43.36,106.94 40.75,110.69 38.52,114.64 37.41,116.62 36.41,118.65 35.71,120.8 34.99,122.94 34.51,125.15 33.99,127.38 33.72,128.5 33.43,129.63 32.95,130.71 32.48,131.8 31.81,132.82 31,133.69 30.19,134.57 29.21,135.25 28.39,135.97 27.53,136.69 26.7,137.46 25.9,138.25 24.27,139.81 22.73,141.48 21.26,143.2 20.53,144.06 19.81,144.94 19.16,145.86 18.82,146.32 18.51,146.78 18.22,147.27 17.97,147.76 17.65,148.27 17.67,148.81 L 17.57,148.83 C 17.48,148.22 17.75,147.67 17.97,147.14 18.21,146.61 18.48,146.11 18.78,145.61 19.37,144.63 20.03,143.69 20.71,142.76 22.09,140.93 23.6,139.2 25.19,137.54 26,136.72 26.84,135.93 27.71,135.18 28.61,134.4 29.54,133.8 30.28,133 31.86,131.47 32.66,129.38 33.22,127.19 33.78,124.99 34.32,122.75 35.1,120.59 35.86,118.41 36.93,116.36 38.09,114.39 40.45,110.47 43.17,106.8 46.09,103.29 L 46.16,103.36 Z M 46.16,103.36" />
        </g>
        <g id="jonnieSideRight1-group12">
            <path id="jonnieSideRight1-bezier11" stroke="none" fill="rgb(0, 0, 0)" d="M 22.66,145.13 C 21.8,146.4 20.96,147.69 20.2,149 19.81,149.65 19.53,150.36 19.14,150.98 18.95,151.29 18.77,151.61 18.6,151.92 18.45,152.24 18.27,152.54 18.29,152.92 L 18.2,152.97 C 17.89,152.64 17.87,152.13 17.93,151.72 17.98,151.3 18.1,150.91 18.25,150.54 18.54,149.78 19.07,149.18 19.53,148.55 20.47,147.31 21.49,146.16 22.59,145.06 L 22.66,145.13 Z M 22.66,145.13" />
        </g>
        <g id="jonnieSideRight1-group13">
            <path id="jonnieSideRight1-bezier12" stroke="none" fill="rgb(0, 0, 0)" d="M 23.91,147.23 C 22.99,148.75 22.09,150.28 21.26,151.82 20.84,152.6 20.53,153.42 20.1,154.16 19.89,154.53 19.69,154.91 19.5,155.28 19.35,155.66 19.11,156.04 19.28,156.41 L 19.22,156.49 C 18.96,156.38 18.87,156.07 18.82,155.83 18.78,155.58 18.79,155.33 18.83,155.09 18.89,154.61 19.03,154.17 19.19,153.74 19.52,152.87 20.08,152.15 20.57,151.41 21.58,149.93 22.67,148.52 23.84,147.17 L 23.91,147.23 Z M 23.91,147.23" />
        </g>
        <g id="jonnieSideRight1-group14">
            <path id="jonnieSideRight1-bezier13" stroke="none" fill="rgb(0, 0, 0)" d="M 26.15,151.86 C 24.97,152.94 23.82,154.06 22.76,155.23 22.24,155.81 21.81,156.47 21.32,157.04 21.07,157.32 20.85,157.62 20.66,157.92 20.49,158.22 20.32,158.52 20.43,158.92 L 20.35,158.98 C 19.96,158.71 19.9,158.11 20,157.68 20.09,157.23 20.28,156.83 20.5,156.46 20.93,155.72 21.6,155.2 22.2,154.66 23.42,153.58 24.73,152.64 26.1,151.78 L 26.15,151.86 Z M 26.15,151.86" />
        </g>
        <g id="jonnieSideRight1-group15">
            <path id="jonnieSideRight1-bezier14" stroke="none" fill="rgb(0, 0, 0)" d="M 30.42,145.11 C 30.25,146.13 30.21,147.19 30.3,148.21 30.33,148.72 30.41,149.22 30.53,149.71 30.59,149.96 30.66,150.18 30.75,150.45 30.83,150.69 30.9,151.02 30.93,151.28 31.05,152.4 30.96,153.51 30.68,154.53 30.54,155.04 30.38,155.54 30.22,156.03 30.14,156.27 30.06,156.51 30.01,156.75 29.96,156.99 29.91,157.23 30.07,157.4 L 30.02,157.49 C 29.69,157.39 29.61,157 29.55,156.74 29.51,156.46 29.51,156.18 29.52,155.91 29.55,155.36 29.63,154.84 29.7,154.32 29.84,153.3 30.15,152.32 30.13,151.34 30.12,151.09 30.11,150.89 30.05,150.63 30,150.39 29.93,150.1 29.89,149.84 29.81,149.3 29.78,148.76 29.8,148.22 29.84,147.15 30.02,146.1 30.33,145.08 L 30.42,145.11 Z M 30.42,145.11" />
        </g>
        <g id="jonnieSideRight1-group16">
            <path id="jonnieSideRight1-bezier15" stroke="none" fill="rgb(0, 0, 0)" d="M 31.83,156.92 C 34.35,152.81 36.66,148.33 36.42,143.35 36.9,140.92 37.79,138.64 38.71,136.37 39.64,134.11 40.67,131.9 41.78,129.72 42.89,127.54 44.06,125.4 45.38,123.32 46.05,122.29 46.74,121.27 47.56,120.31 47.77,120.08 48.01,119.84 48.22,119.63 48.44,119.42 48.63,119.22 48.83,118.99 49.22,118.55 49.6,118.09 49.96,117.62 51.43,115.73 52.68,113.65 53.86,111.54 54.46,110.48 55.02,109.41 55.54,108.31 56.04,107.22 56.61,106.12 56.83,104.95 L 56.93,104.95 C 56.92,105.58 56.73,106.17 56.56,106.76 56.38,107.35 56.17,107.92 55.95,108.5 55.51,109.64 55.01,110.75 54.48,111.86 53.42,114.06 52.2,116.2 50.76,118.21 50.39,118.71 50,119.2 49.59,119.67 49.39,119.9 49.16,120.14 48.94,120.36 48.73,120.57 48.54,120.77 48.34,121 47.57,121.88 46.87,122.86 46.21,123.86 44.86,125.86 43.64,127.96 42.49,130.09 41.35,132.23 40.28,134.41 39.3,136.62 38.35,138.85 37.42,141.11 36.91,143.45 36.79,144.04 36.7,144.61 36.73,145.21 36.74,145.84 36.67,146.46 36.55,147.06 36.31,148.28 35.91,149.44 35.43,150.57 34.48,152.82 33.27,154.95 31.91,156.98 L 31.83,156.92 Z M 31.83,156.92" />
        </g>
        <g id="jonnieSideRight1-group17">
            <path id="jonnieSideRight1-bezier16" stroke="none" fill="rgb(0, 0, 0)" d="M 54.97,102.41 C 58.37,100.07 61.74,97.69 65.06,95.26 66.72,94.03 68.32,92.74 69.97,91.54 L 72.44,89.71 C 72.85,89.4 73.25,89.08 73.63,88.75 74.02,88.42 74.4,88.08 74.71,87.68 L 74.79,87.72 C 74.37,88.71 73.61,89.48 72.9,90.23 72.17,90.98 71.38,91.66 70.59,92.33 68.99,93.65 67.24,94.77 65.52,95.92 62.09,98.21 58.58,100.4 55.03,102.49 L 54.97,102.41 Z M 54.97,102.41" />
        </g>
        <g id="jonnieSideRight1-group18">
            <path id="jonnieSideRight1-bezier17" stroke="none" fill="rgb(0, 0, 0)" d="M 70.69,140.26 C 70.65,141.78 70.66,143.29 70.73,144.79 70.75,145.55 70.87,146.28 70.94,147.02 L 71.14,149.28 71.98,158.32 71.88,158.34 C 71.44,156.88 71.12,155.39 70.82,153.9 70.54,152.4 70.29,150.9 70.13,149.38 70.04,148.62 69.97,147.86 69.93,147.1 69.88,146.33 69.96,145.55 69.99,144.79 70.08,143.26 70.3,141.74 70.6,140.25 L 70.69,140.26 Z M 70.69,140.26" />
        </g>
        <g id="jonnieSideRight1-group19">
            <path id="jonnieSideRight1-bezier18" stroke="none" fill="rgb(0, 0, 0)" d="M 75.55,81.82 C 75.84,84.22 76.19,86.61 76.6,88.99 77.02,91.39 77.5,93.69 78.26,96.05 78.45,97.3 78.39,98.51 78.35,99.73 78.3,100.95 78.21,102.16 78.1,103.37 77.88,105.78 77.58,108.19 77.27,110.59 76.62,115.39 75.84,120.18 74.75,124.91 74.18,127.26 73.61,129.63 72.88,131.94 72.13,134.24 71.42,136.61 70.03,138.64 L 69.95,138.58 C 70.54,137.54 70.92,136.39 71.28,135.24 71.63,134.09 71.95,132.93 72.24,131.76 72.8,129.42 73.34,127.07 73.8,124.7 74.74,119.97 75.66,115.23 76.42,110.47 76.81,108.08 77.14,105.69 77.4,103.3 77.54,102.1 77.65,100.9 77.72,99.7 77.79,98.51 77.86,97.29 77.71,96.14 77.01,93.89 76.6,91.42 76.26,89.04 75.93,86.64 75.66,84.24 75.45,81.83 L 75.55,81.82 Z M 75.55,81.82" />
        </g>
        <g id="jonnieSideRight1-group20">
            <path id="jonnieSideRight1-bezier19" stroke="none" fill="rgb(0, 0, 0)" d="M 71.98,158.34 L 68.97,172.03 C 67.98,176.59 66.97,181.16 66.12,185.73 65.41,190.35 64.47,194.95 63.31,199.48 62.71,201.74 62.09,204 61.38,206.23 61.02,207.34 60.64,208.45 60.23,209.55 60.02,210.1 59.79,210.65 59.55,211.18 59.29,211.71 59.06,212.26 58.62,212.69 L 58.55,212.62 C 59.18,211.68 59.45,210.5 59.79,209.41 60.12,208.29 60.41,207.16 60.7,206.03 61.27,203.78 61.82,201.51 62.33,199.24 63.37,194.69 64.55,190.19 65.35,185.59 66.31,181 67.41,176.46 68.49,171.92 L 71.88,158.32 71.98,158.34 Z M 71.98,158.34" />
        </g>
        <g id="jonnieSideRight1-group21">
            <path id="jonnieSideRight1-bezier20" stroke="none" fill="rgb(0, 0, 0)" d="M 58.62,207.19 C 55.92,210.79 53.29,214.44 50.77,218.17 49.52,220.04 48.3,221.93 47.17,223.87 46.61,224.84 46.07,225.83 45.62,226.84 45.39,227.35 45.19,227.87 45.06,228.39 44.94,228.93 44.84,229.48 44.74,230.03 43.27,238.89 41.85,247.88 38.49,256.33 37.63,258.44 36.65,260.5 35.4,262.42 34.79,263.39 34.07,264.3 33.37,265.17 L 31.29,267.83 C 29.91,269.59 28.53,271.37 27.3,273.22 26.7,274.15 26.12,275.1 25.74,276.08 25.35,277.07 25.27,278.08 25.83,278.86 26.07,279.2 26.51,279.54 26.95,279.83 27.4,280.13 27.88,280.41 28.37,280.67 29.34,281.2 30.35,281.69 31.36,282.2 33.37,283.21 35.43,284.2 37.25,285.63 38.15,286.33 39.03,287.24 39.45,288.33 39.93,289.32 40.5,290.28 41.23,291.11 41.94,291.94 42.83,292.62 43.86,293.03 44.88,293.45 46.01,293.62 47.13,293.65 L 47.13,293.75 C 46,293.78 44.85,293.67 43.76,293.29 42.67,292.92 41.69,292.25 40.89,291.41 40.09,290.57 39.47,289.6 38.93,288.59 38.49,287.57 37.72,286.84 36.83,286.18 35.05,284.9 33.01,283.94 30.98,282.97 29.97,282.49 28.94,282.02 27.93,281.5 27.42,281.23 26.92,280.96 26.42,280.64 25.93,280.32 25.43,279.99 25.01,279.42 24.63,278.88 24.42,278.21 24.43,277.55 24.43,276.89 24.6,276.29 24.81,275.73 25.24,274.61 25.85,273.63 26.47,272.67 27.74,270.77 29.12,268.99 30.51,267.21 L 32.64,264.58 C 33.36,263.7 34.05,262.86 34.66,261.93 35.88,260.09 36.88,258.08 37.75,256.03 41.16,247.73 42.68,238.79 44.25,229.94 44.35,229.39 44.47,228.83 44.6,228.28 44.75,227.7 44.97,227.17 45.21,226.66 45.69,225.62 46.25,224.64 46.83,223.67 47.99,221.73 49.24,219.86 50.52,218 53.1,214.3 55.79,210.69 58.54,207.13 L 58.62,207.19 Z M 58.62,207.19" />
        </g>
        <g id="jonnieSideRight1-group22">
            <path id="jonnieSideRight1-bezier21" stroke="none" fill="rgb(0, 0, 0)" d="M 49.75,293.65 L 61.62,293.55 C 62.56,293.5 63.51,293.08 64.22,292.48 64.57,292.18 64.85,291.76 64.77,291.36 64.69,290.96 64.33,290.63 63.92,290.42 63.07,290 62.11,289.72 61.18,289.39 60.24,289.07 59.3,288.74 58.37,288.36 56.53,287.61 54.74,286.66 53.16,285.41 51.57,284.17 50.22,282.6 49.24,280.85 47.25,277.45 45.34,273.78 45.01,269.68 44.84,267.66 45.1,265.59 45.71,263.66 46.32,261.72 47.25,259.9 48.34,258.22 48.89,257.37 49.52,256.57 50.07,255.78 50.64,254.98 51.19,254.16 51.72,253.34 52.79,251.68 53.8,249.99 54.78,248.28 58.77,241.46 62.33,234.39 65.87,227.3 L 65.96,227.34 C 62.94,234.67 59.5,241.83 55.65,248.77 54.66,250.5 53.64,252.2 52.56,253.87 52.02,254.71 51.46,255.54 50.89,256.35 50.3,257.18 49.7,257.95 49.17,258.76 46.99,261.96 45.52,265.74 45.81,269.62 46.06,273.5 47.86,277.12 49.8,280.52 50.74,282.24 52,283.74 53.52,284.96 55.03,286.19 56.76,287.13 58.57,287.9 59.47,288.29 60.39,288.63 61.33,288.96 62.26,289.31 63.2,289.59 64.12,290.07 64.56,290.31 65.04,290.71 65.14,291.3 65.23,291.92 64.83,292.41 64.45,292.74 63.65,293.39 62.67,293.8 61.64,293.85 L 49.75,293.75 49.75,293.65 49.75,293.65 Z M 49.75,293.65" />
        </g>
        <g id="jonnieSideRight1-group23">
            <path id="jonnieSideRight1-bezier22" stroke="none" fill="rgb(0, 0, 0)" d="M 66.83,225.55 C 68.4,223.14 70.06,220.8 71.94,218.62 72.42,218.08 72.91,217.55 73.44,217.05 73.7,216.81 74,216.57 74.24,216.35 74.48,216.1 74.72,215.83 74.94,215.56 75.85,214.46 76.68,213.3 77.51,212.13 80.81,207.46 83.86,202.61 86.79,197.7 89.71,192.77 92.42,187.73 95.04,182.66 97.65,177.58 100.11,172.41 101.83,166.94 L 101.92,166.96 C 100.76,172.61 98.4,177.92 95.94,183.1 93.42,188.27 90.49,193.23 87.48,198.11 84.45,202.99 81.31,207.79 77.92,212.43 77.06,213.58 76.19,214.73 75.25,215.82 75.01,216.09 74.77,216.36 74.5,216.62 74.21,216.88 73.94,217.07 73.67,217.31 73.15,217.79 72.65,218.29 72.16,218.82 70.25,220.93 68.54,223.24 66.92,225.6 L 66.83,225.55 Z M 66.83,225.55" />
        </g>
        <g id="jonnieSideRight1-group24">
            <path id="jonnieSideRight1-bezier23" stroke="none" fill="rgb(0, 0, 0)" d="M 95.04,191.42 C 97.58,194.29 100.06,197.22 102.45,200.23 103.66,201.72 104.89,203.2 105.94,204.82 106.46,205.63 106.97,206.45 107.41,207.32 107.84,208.18 108.32,209.06 108.42,210.07 L 108.33,210.08 C 108.16,209.65 107.9,209.24 107.64,208.85 107.38,208.46 107.1,208.07 106.82,207.69 L 105.12,205.39 C 103.98,203.87 102.93,202.27 101.82,200.71 99.57,197.61 97.28,194.54 94.96,191.48 L 95.04,191.42 Z M 95.04,191.42" />
        </g>
        <g id="jonnieSideRight1-group25">
            <path id="jonnieSideRight1-bezier24" stroke="none" fill="rgb(0, 0, 0)" d="M 109.55,211.32 C 109.54,215.46 109.77,219.61 110.42,223.7 110.76,225.73 111.2,227.76 111.95,229.67 112.33,230.63 112.81,231.51 113.41,232.35 L 115.19,234.9 C 119.91,241.71 124.6,248.55 128.98,255.61 131.15,259.15 133.3,262.71 135.05,266.52 135.47,267.49 135.86,268.46 136.15,269.51 136.29,270.02 136.38,270.62 136.42,271.11 L 136.61,272.64 C 136.89,274.68 137.24,276.71 137.8,278.66 138.36,280.58 139.08,282.59 140.51,283.86 141.22,284.48 142.15,284.79 143.07,284.64 144,284.5 144.91,284.03 145.76,283.5 147.48,282.41 149.04,281.03 150.67,279.75 151.49,279.11 152.33,278.48 153.22,277.93 154.11,277.4 155.07,276.91 156.12,276.77 L 156.13,276.87 C 155.12,277.06 154.21,277.59 153.37,278.17 152.53,278.75 151.74,279.42 150.96,280.1 149.39,281.44 147.89,282.88 146.15,284.09 145.27,284.67 144.32,285.23 143.19,285.43 142.05,285.64 140.83,285.26 139.96,284.53 139.08,283.81 138.48,282.87 138,281.91 137.51,280.95 137.15,279.95 136.84,278.94 136.26,276.91 135.9,274.84 135.62,272.77 L 135.43,271.22 C 135.38,270.68 135.32,270.25 135.19,269.76 134.93,268.81 134.55,267.86 134.14,266.92 132.49,263.17 130.4,259.58 128.29,256.03 124.02,248.94 119.41,242.05 114.77,235.18 L 113.04,232.6 C 112.44,231.75 111.94,230.79 111.58,229.81 110.84,227.85 110.43,225.79 110.12,223.74 109.54,219.63 109.37,215.47 109.45,211.32 L 109.55,211.32 Z M 109.55,211.32" />
        </g>
        <g id="jonnieSideRight1-group26">
            <path id="jonnieSideRight1-bezier25" stroke="none" fill="rgb(0, 0, 0)" d="M 159.23,275.65 C 161.26,274.83 163.27,273.96 165.23,273.02 166.21,272.55 167.13,271.97 168.09,271.51 168.57,271.28 169.04,271.04 169.5,270.78 169.94,270.51 170.41,270.26 170.7,269.81 L 170.8,269.84 C 170.75,270.45 170.32,270.94 169.93,271.34 169.51,271.74 169.05,272.08 168.58,272.38 167.64,273 166.57,273.35 165.55,273.75 163.49,274.54 161.39,275.19 159.27,275.75 L 159.23,275.65 Z M 159.23,275.65" />
        </g>
        <g id="jonnieSideRight1-group27">
            <path id="jonnieSideRight1-bezier26" stroke="none" fill="rgb(0, 0, 0)" d="M 172.11,269.02 C 172.97,268.71 173.81,268.31 174.57,267.81 175.32,267.31 176.08,266.69 176.31,265.82 176.54,264.95 175.89,264.11 175.24,263.56 174.9,263.27 174.48,263.29 174.07,263.5 173.67,263.68 173.28,263.93 172.87,264.16 171.26,265.09 169.45,265.68 167.62,265.99 165.77,266.32 163.93,266.33 162.1,266.55 158.46,266.9 154.65,267.34 150.99,266.21 149.19,265.66 147.5,264.69 146.09,263.43 144.68,262.17 143.52,260.65 142.57,259.04 141.61,257.42 140.84,255.71 140.18,253.97 139.53,252.21 138.99,250.46 138.36,248.73 137.14,245.26 135.84,241.82 134.48,238.4 131.79,231.54 128.82,224.79 125.71,218.1 L 125.79,218.05 C 129.43,224.49 132.54,231.2 135.4,238.02 136.81,241.44 138.12,244.9 139.3,248.41 139.9,250.16 140.42,251.95 141.02,253.66 141.64,255.38 142.36,257.06 143.26,258.64 144.16,260.21 145.25,261.68 146.58,262.89 147.9,264.11 149.47,265.04 151.19,265.59 154.65,266.72 158.4,266.36 162.05,266.05 163.9,265.86 165.76,265.89 167.55,265.6 169.36,265.33 171.12,264.79 172.73,263.9 173.13,263.68 173.52,263.44 173.96,263.25 174.18,263.15 174.42,263.07 174.69,263.08 174.96,263.09 175.2,263.21 175.39,263.36 175.77,263.68 176.05,264.04 176.3,264.46 176.53,264.88 176.63,265.4 176.5,265.87 176.22,266.83 175.42,267.44 174.65,267.94 173.86,268.43 173.02,268.82 172.14,269.12 L 172.11,269.02 Z M 172.11,269.02" />
        </g>
        <g id="jonnieSideRight1-group28">
            <path id="jonnieSideRight1-bezier27" stroke="none" fill="rgb(0, 0, 0)" d="M 125.7,215.44 C 126.18,212.54 126.42,209.59 126.23,206.67 126.12,205.21 125.9,203.75 125.39,202.4 125.26,202.07 125.11,201.74 124.94,201.43 124.75,201.09 124.61,200.75 124.46,200.41 124.17,199.72 123.91,199.03 123.66,198.34 121.68,192.78 119.95,187.15 118.17,181.54 116.39,175.93 114.57,170.33 112.86,164.7 112.02,161.88 111.14,159.08 110.27,156.27 109.83,154.87 109.38,153.47 108.91,152.08 108.44,150.69 107.98,149.29 107.33,147.97 L 107.42,147.92 C 108.89,150.5 109.88,153.29 110.93,156.05 111.95,158.81 112.87,161.61 113.81,164.4 115.65,170 117.26,175.66 118.93,181.31 120.62,186.94 122.26,192.6 124.13,198.17 124.37,198.86 124.61,199.56 124.88,200.24 125.01,200.57 125.15,200.91 125.31,201.22 125.49,201.56 125.64,201.91 125.76,202.26 126.26,203.68 126.45,205.17 126.53,206.65 126.65,209.61 126.35,212.56 125.8,215.45 L 125.7,215.44 Z M 125.7,215.44" />
        </g>
        <g id="jonnieSideRight1-group29">
            <path id="jonnieSideRight1-bezier28" stroke="none" fill="rgb(0, 0, 0)" d="M 110.44,139.78 C 110.63,138.42 110.55,137.01 110.66,135.63 110.73,134.24 110.86,132.86 111.04,131.48 111.24,130.11 111.29,128.73 111.36,127.34 L 111.56,123.18 C 111.71,120.41 111.78,117.63 112.06,114.86 112.38,112.09 112.84,109.33 113.7,106.66 L 113.8,106.68 C 113.58,109.46 113.34,112.21 113.09,114.96 112.79,117.71 112.45,120.47 112.22,123.23 111.96,125.99 111.77,128.77 111.3,131.52 111.09,132.89 110.94,134.26 110.84,135.64 110.7,137.03 110.76,138.41 110.54,139.8 L 110.44,139.78 Z M 110.44,139.78" />
        </g>
        <g id="jonnieSideRight1-group30">
            <path id="jonnieSideRight1-bezier29" stroke="none" fill="rgb(0, 0, 0)" d="M 106.87,146.75 C 106.7,145.86 106.61,144.95 106.56,144.04 106.54,143.59 106.45,143.12 106.56,142.68 106.66,142.23 106.81,141.79 107.13,141.37 L 107.23,141.38 C 107.46,141.86 107.52,142.31 107.55,142.76 107.59,143.21 107.43,143.64 107.36,144.08 107.23,144.96 107.09,145.85 106.97,146.75 L 106.87,146.75 Z M 106.87,146.75" />
        </g>
        <g id="jonnieSideRight1-group159">
            <path id="jonnieSideRight1-bezier158" stroke="none" fill="rgb(0, 0, 0)" d="M 90.94,48.62 C 92.7,49.36 94.46,50.08 96.24,50.75 97.12,51.09 98.04,51.32 98.9,51.7 99.77,52.06 100.59,52.47 101.5,52.78 L 101.5,52.88 C 100.5,53.12 99.5,52.89 98.57,52.65 97.62,52.39 96.78,51.91 95.92,51.49 94.2,50.64 92.52,49.71 90.89,48.71 L 90.94,48.62 Z M 90.94,48.62" />
        </g>
        <g id="jonnieSideRight1-group160">
            <path id="jonnieSideRight1-bezier159" stroke="none" fill="rgb(0, 0, 0)" d="M 111.53,74.12 C 109.59,75.44 107.66,76.77 105.77,78.14 104.82,78.83 103.94,79.6 102.98,80.24 L 101.56,81.22 C 101.11,81.57 100.59,81.87 100.3,82.34 L 100.2,82.32 C 100.26,81.66 100.71,81.16 101.08,80.7 101.48,80.25 101.92,79.84 102.37,79.45 103.27,78.67 104.32,78.1 105.32,77.48 107.33,76.24 109.38,75.1 111.47,74.03 L 111.53,74.12 Z M 111.53,74.12" />
        </g>
        <g id="jonnieSideRight1-group161">
            <path id="jonnieSideRight1-bezier160" stroke="none" fill="rgb(0, 0, 0)" d="M 73.12,86.68 C 72.21,84.64 71.23,82.63 70.15,80.7 69.61,79.73 68.96,78.84 68.41,77.91 67.83,76.98 67.3,76.06 66.48,75.3 L 66.52,75.21 C 67.69,75.52 68.54,76.46 69.23,77.34 69.95,78.25 70.39,79.32 70.86,80.34 71.81,82.39 72.58,84.5 73.21,86.65 L 73.12,86.68 Z M 73.12,86.68" />
        </g>
        <g id="jonnieSideRight1-group162">
            <path id="jonnieSideRight1-bezier161" stroke="none" fill="rgb(0, 0, 0)" d="M 69.98,138.56 C 73.34,138.08 76.73,137.8 80.13,137.72 83.52,137.67 86.99,137.88 90.29,138.69 93.59,139.26 96.97,139.33 100.34,139.47 103.71,139.63 107.09,139.64 110.49,139.74 L 110.49,139.84 C 107.12,140.31 103.72,140.45 100.32,140.47 96.91,140.46 93.5,140.17 90.13,139.47 86.86,138.57 83.52,138.28 80.13,138.22 76.76,138.16 73.37,138.32 70,138.66 L 69.98,138.56 Z M 69.98,138.56" />
        </g>
        <g id="jonnieSideRight1-group163">
            <path id="jonnieSideRight1-bezier162" stroke="none" fill="rgb(0, 0, 0)" d="M 38.19,258.87 C 39.47,259.27 40.74,259.71 41.99,260.2 42.62,260.44 43.28,260.61 43.85,260.98 44.41,261.35 45,261.74 45.4,262.38 L 45.34,262.45 C 44.66,262.3 44.02,262.12 43.4,261.88 42.78,261.65 42.24,261.24 41.65,260.92 40.48,260.28 39.31,259.63 38.15,258.96 L 38.19,258.87 Z M 38.19,258.87" />
        </g>
        <g id="jonnieSideRight1-group164">
            <path id="jonnieSideRight1-bezier163" stroke="none" fill="rgb(0, 0, 0)" d="M 141.35,258.46 C 140.02,259.06 138.73,259.74 137.48,260.47 136.86,260.84 136.3,261.3 135.65,261.61 135.01,261.93 134.36,262.24 133.61,262.46 L 133.55,262.38 C 133.97,261.72 134.53,261.2 135.13,260.76 135.73,260.31 136.44,260.06 137.12,259.76 138.48,259.17 139.88,258.7 141.32,258.37 L 141.35,258.46 Z M 141.35,258.46" />
        </g>
    </g>
</svg>
