<?xml version="1.0" encoding="UTF-8"?>
<!DOCTYPE svg PUBLIC "-//W3C//DTD SVG 1.1//EN" "http://www.w3.org/Graphics/SVG/1.1/DTD/svg11.dtd">
<svg version="1.1" xmlns="http://www.w3.org/2000/svg" xmlns:xlink="http://www.w3.org/1999/xlink" width="200" height="100"  xml:space="preserve" id="jonnieTop3">
    <!-- Generated by PaintCode - http://www.paintcodeapp.com -->
    <g id="jonnieTop3-group2">
        <g id="jonnieTop3-group252">
            <g id="jonnieTop3-group253">
                <path id="jonnieTop3-bezier251" stroke="none" fill="rgb(0, 0, 0)" d="M 54.38,47.57 C 55.04,47.22 55.8,47.19 56.52,47.18 57.24,47.17 57.96,47.23 58.68,47.29 L 62.95,47.78 C 64.37,47.93 65.79,48 67.2,48.17 68.6,48.34 70.01,48.47 71.45,48.67 L 71.45,48.77 C 70.04,49.12 68.57,49.2 67.12,49.16 65.67,49.12 64.25,48.83 62.84,48.57 L 58.61,47.78 C 57.91,47.66 57.21,47.54 56.51,47.48 55.81,47.43 55.08,47.38 54.42,47.66 L 54.38,47.57 Z M 54.38,47.57" />
            </g>
            <g id="jonnieTop3-group254">
                <path id="jonnieTop3-bezier252" stroke="none" fill="rgb(0, 0, 0)" d="M 54.75,37.79 C 54.58,39.15 54.57,40.52 54.63,41.87 54.66,42.54 54.81,43.21 54.78,43.88 54.77,44.55 54.74,45.22 54.6,45.94 L 54.5,45.96 C 54.1,45.34 53.9,44.64 53.79,43.95 53.66,43.25 53.78,42.55 53.83,41.85 53.95,40.46 54.2,39.08 54.65,37.77 L 54.75,37.79 Z M 54.75,37.79" />
            </g>
            <g id="jonnieTop3-group255">
                <path id="jonnieTop3-bezier253" stroke="none" fill="rgb(0, 0, 0)" d="M 70.77,32.32 C 68.17,33.47 65.53,34.53 62.85,35.48 61.51,35.96 60.17,36.48 58.76,36.76 58.06,36.9 57.34,37.02 56.62,37.07 55.9,37.1 55.14,37.14 54.44,36.88 L 54.45,36.78 C 55.85,36.66 57.17,36.16 58.52,35.79 59.86,35.39 61.24,35.09 62.6,34.72 65.32,33.94 68.03,33.1 70.73,32.23 L 70.77,32.32 Z M 70.77,32.32" />
            </g>
            <g id="jonnieTop3-group256">
                <path id="jonnieTop3-bezier254" stroke="none" fill="rgb(0, 0, 0)" d="M 54.47,38.49 C 53.59,38.75 52.68,38.9 51.76,38.99 51.3,39.03 50.84,39.15 50.38,39.05 49.93,38.96 49.48,38.81 49.06,38.49 L 49.07,38.39 C 49.54,38.17 49.99,38.09 50.44,38.05 50.88,38 51.32,38.15 51.76,38.19 52.65,38.28 53.55,38.36 54.45,38.39 L 54.47,38.49 Z M 54.47,38.49" />
            </g>
            <g id="jonnieTop3-group257">
                <path id="jonnieTop3-bezier255" stroke="none" fill="rgb(0, 0, 0)" d="M 54.46,46.49 L 51.75,46.7 C 51.31,46.74 50.86,46.87 50.43,46.81 49.98,46.76 49.56,46.68 49.07,46.49 L 49.05,46.4 C 49.45,46.03 49.93,45.89 50.39,45.81 50.85,45.72 51.31,45.85 51.77,45.9 52.68,46.01 53.58,46.18 54.47,46.39 L 54.46,46.49 Z M 54.46,46.49" />
            </g>
            <g id="jonnieTop3-group258">
                <path id="jonnieTop3-bezier256" stroke="none" fill="rgb(0, 0, 0)" d="M 53.35,48.86 C 51.13,49.09 48.83,49.1 46.64,48.37 45.57,47.99 44.48,47.33 43.9,46.22 43.61,45.69 43.48,45.04 43.45,44.48 43.4,43.91 43.38,43.33 43.41,42.76 43.45,41.6 43.66,40.43 44.16,39.34 44.65,38.24 45.5,37.27 46.56,36.67 48.75,35.51 51.24,35.71 53.35,36.4 L 53.33,36.49 C 51.12,36.36 48.82,36.4 47.08,37.53 45.33,38.61 44.38,40.67 44.2,42.81 44.15,43.35 44.14,43.89 44.17,44.43 44.18,44.99 44.26,45.46 44.48,45.93 44.91,46.85 45.82,47.5 46.82,47.91 48.84,48.72 51.13,48.86 53.34,48.76 L 53.35,48.86 Z M 53.35,48.86" />
            </g>
        </g>
        <g id="jonnieTop3-group278">
            <path id="jonnieTop3-bezier274" stroke="none" fill="rgb(0, 0, 0)" d="M 65.06,84.34 C 63.7,83.76 62.26,83.32 60.84,82.88 59.42,82.45 57.98,82.05 56.54,81.8 55.83,81.69 55.07,81.6 54.45,81.69 54.22,81.73 53.75,81.88 53.39,81.93 53.01,82 52.63,82.05 52.24,82.08 51.47,82.12 50.67,82.11 49.89,81.88 49.51,81.77 49.12,81.61 48.79,81.36 48.47,81.1 48.22,80.71 48.19,80.32 L 48.29,80.29 C 48.63,80.96 49.35,81.14 50.02,81.2 50.72,81.25 51.43,81.19 52.14,81.09 52.5,81.04 52.85,80.99 53.2,80.91 L 53.73,80.81 54,80.76 C 54.12,80.74 54.23,80.72 54.34,80.71 55.21,80.67 55.95,80.84 56.7,81.02 58.18,81.38 59.6,81.88 61,82.41 62.39,82.98 63.78,83.54 65.11,84.26 L 65.06,84.34 Z M 65.06,84.34" />
        </g>
        <g id="jonnieTop3-group279">
            <path id="jonnieTop3-bezier275" stroke="none" fill="rgb(0, 0, 0)" d="M 56.89,77.64 C 56.17,77.17 55.35,76.85 54.58,76.81 54.18,76.78 53.83,76.93 53.47,76.94 53.1,76.97 52.72,77.04 52.21,77.06 L 52.15,76.98 C 52.34,76.5 52.75,76.16 53.23,75.97 53.71,75.78 54.25,75.89 54.71,76.02 55.66,76.28 56.41,76.87 56.97,77.57 L 56.89,77.64 Z M 56.89,77.64" />
        </g>
        <g id="jonnieTop3-group280">
            <path id="jonnieTop3-bezier276" stroke="none" fill="rgb(0, 0, 0)" d="M 54.69,77.68 C 56.88,77.35 59.07,77.09 61.28,76.92 62.39,76.84 63.5,76.68 64.61,76.78 65.71,76.88 66.88,77 67.89,77.6 L 67.86,77.69 C 66.76,77.64 65.68,77.75 64.59,77.78 63.5,77.83 62.41,77.72 61.31,77.72 59.11,77.71 56.91,77.73 54.7,77.78 L 54.69,77.68 Z M 54.69,77.68" />
        </g>
        <g id="jonnieTop3-group360">
            <path id="jonnieTop3-bezier356" stroke="none" fill="rgb(0, 0, 0)" d="M 86.76,57.87 C 86.7,60.06 87.09,62.27 87.9,64.31 88.71,66.35 89.96,68.2 91.5,69.75 94.58,72.87 98.9,74.67 103.24,74.71 107.59,74.82 111.93,73.17 115.07,70.2 118.25,67.26 120.16,63.02 120.22,58.73 120.32,54.41 118.57,50.14 115.55,47.12 112.57,44.04 108.35,42.22 104.07,42.14 99.8,41.96 95.46,43.49 92.21,46.36 90.59,47.8 89.23,49.55 88.29,51.53 87.36,53.5 86.84,55.68 86.76,57.87 Z M 86.66,57.87 C 86.71,53.44 88.62,49.07 91.85,45.97 93.45,44.41 95.37,43.16 97.47,42.33 99.57,41.51 101.84,41.11 104.1,41.14 108.63,41.23 113.1,43.16 116.25,46.43 119.42,49.68 121.19,54.23 121.01,58.74 120.9,63.27 118.85,67.66 115.51,70.68 112.21,73.73 107.7,75.37 103.23,75.21 98.76,75.07 94.4,73.12 91.35,69.9 88.27,66.71 86.53,62.29 86.66,57.87 Z M 86.66,57.87" />
        </g>
        <g id="jonnieTop3-group361">
            <path id="jonnieTop3-bezier357" stroke="none" fill="rgb(0, 0, 0)" d="M 121,60.73 C 121.52,60.5 122.01,60.21 122.43,59.87 122.85,59.54 123.21,59.1 123.2,58.72 123.21,58.31 122.9,58.17 122.51,57.88 122.12,57.6 121.62,57.35 121.11,57.01 L 121.12,56.91 C 121.73,56.71 122.36,56.75 122.98,56.99 123.29,57.12 123.59,57.34 123.81,57.68 124.02,58.02 124.08,58.47 124,58.84 123.8,59.61 123.21,60 122.7,60.29 122.16,60.55 121.6,60.72 121.03,60.83 L 121,60.73 Z M 121,60.73" />
        </g>
        <g id="jonnieTop3-group362">
            <path id="jonnieTop3-bezier358" stroke="none" fill="rgb(0, 0, 0)" d="M 84.81,42.86 L 87.09,33.44 C 87.47,31.87 87.83,30.3 88.16,28.69 88.47,27.08 89.12,25.55 90.16,24.23 L 90.26,24.27 C 90.03,25.92 89.63,27.45 89.02,28.94 88.44,30.43 88.09,32.03 87.63,33.58 86.76,36.69 85.82,39.79 84.9,42.89 L 84.81,42.86 Z M 84.81,42.86" />
        </g>
        <g id="jonnieTop3-group363">
            <path id="jonnieTop3-bezier359" stroke="none" fill="rgb(0, 0, 0)" d="M 111.37,28.64 C 112.94,29.28 114.25,30.45 115.26,31.82 116.25,33.21 116.9,34.84 117.25,36.52 117.61,38.19 117.74,39.93 117.51,41.62 117.29,43.31 116.84,44.96 116.14,46.5 L 116.05,46.47 C 116.22,44.79 116.43,43.16 116.52,41.53 116.6,39.9 116.7,38.27 116.46,36.66 116.23,35.06 115.71,33.48 114.85,32.1 114,30.72 112.81,29.48 111.33,28.73 L 111.37,28.64 Z M 111.37,28.64" />
        </g>
        <g id="jonnieTop3-group364">
            <path id="jonnieTop3-bezier360" stroke="none" fill="rgb(0, 0, 0)" d="M 76.29,78.85 C 76.58,78.18 77.16,77.74 77.67,77.27 78.22,76.83 78.8,76.44 79.39,76.07 80,75.71 80.59,75.29 81.27,75.11 81.95,74.91 82.67,74.8 83.41,74.92 L 83.43,75.02 C 82.82,75.44 82.23,75.74 81.63,76.04 81.04,76.34 80.38,76.5 79.76,76.78 79.15,77.04 78.54,77.34 77.96,77.68 77.39,78.02 76.75,78.35 76.38,78.89 L 76.29,78.85 Z M 76.29,78.85" />
        </g>
        <g id="jonnieTop3-group365">
            <path id="jonnieTop3-bezier361" stroke="none" fill="rgb(0, 0, 0)" d="M 116,74.89 L 112.97,80.19 C 111.94,81.94 110.91,83.71 109.67,85.37 109.06,86.2 108.37,87 107.56,87.7 106.75,88.4 105.79,88.94 104.77,89.28 102.72,89.93 100.61,89.91 98.58,89.65 L 98.58,89.55 C 100.61,89.27 102.63,89.05 104.43,88.33 106.24,87.65 107.77,86.42 109.05,84.87 110.32,83.33 111.43,81.62 112.54,79.93 L 115.92,74.84 116,74.89 Z M 116,74.89" />
        </g>
        <g id="jonnieTop3-group366">
            <path id="jonnieTop3-bezier362" stroke="none" fill="rgb(0, 0, 0)" d="M 92.65,21.22 C 92.97,20.16 93.54,19.19 94.17,18.29 94.83,17.39 95.58,16.57 96.4,15.81 97.21,15.05 98.05,14.3 99.03,13.76 100,13.22 101.02,12.78 102.13,12.55 L 102.17,12.64 C 101.31,13.36 100.43,13.97 99.56,14.6 98.7,15.24 97.76,15.75 96.92,16.42 96.07,17.07 95.28,17.8 94.56,18.6 93.85,19.39 93.18,20.26 92.75,21.25 L 92.65,21.22 Z M 92.65,21.22" />
        </g>
        <g id="jonnieTop3-group367">
            <path id="jonnieTop3-bezier363" stroke="none" fill="rgb(0, 0, 0)" d="M 102.12,12.6 C 104,11.14 106.42,10.61 108.75,10.45 111.11,10.3 113.48,10.67 115.76,11.16 120.34,12.06 124.95,12.85 129.58,13.49 134.2,14.09 138.86,14.58 143.47,14.56 144.61,14.55 145.78,14.41 146.98,14.42 148.17,14.43 149.37,14.49 150.55,14.74 151.72,14.98 152.89,15.34 153.91,16.03 154.41,16.37 154.86,16.82 155.15,17.37 155.44,17.92 155.49,18.57 155.32,19.14 L 155.22,19.12 C 155.32,18.55 155.19,17.97 154.89,17.51 154.59,17.04 154.15,16.68 153.66,16.41 152.69,15.85 151.56,15.58 150.43,15.42 149.3,15.28 148.15,15.24 147,15.28 145.86,15.31 144.71,15.5 143.51,15.55 138.75,15.71 134.09,14.99 129.46,14.28 124.83,13.54 120.23,12.65 115.65,11.65 113.38,11.1 111.09,10.67 108.76,10.75 106.47,10.83 104.07,11.3 102.18,12.67 L 102.12,12.6 Z M 102.12,12.6" />
        </g>
        <g id="jonnieTop3-group368">
            <path id="jonnieTop3-bezier364" stroke="none" fill="rgb(0, 0, 0)" d="M 146.37,22.75 C 147.49,22.38 148.63,22.07 149.81,21.93 150.4,21.86 151,21.83 151.61,21.98 151.9,22.05 152.22,22.19 152.42,22.47 152.62,22.74 152.69,23.09 152.62,23.42 152.43,24.09 151.87,24.47 151.38,24.79 150.87,25.11 150.33,25.36 149.8,25.62 149.27,25.88 148.74,26.12 148.26,26.42 148.14,26.5 148.02,26.58 147.92,26.66 147.87,26.7 147.82,26.75 147.77,26.79 147.66,26.88 147.68,26.88 147.54,26.95 147.09,27.15 146.76,26.95 146.47,26.83 145.39,26.22 144.53,25.45 143.53,24.83 142.56,24.2 141.54,23.66 140.46,23.25 138.31,22.4 135.99,22.25 133.66,22.39 128.99,22.64 124.32,23.3 119.61,23.57 117.26,23.7 114.89,23.82 112.52,23.75 111.34,23.7 110.15,23.63 108.97,23.44 108.39,23.34 107.8,23.21 107.23,23.01 106.68,22.81 106.09,22.53 105.74,22.01 L 105.82,21.95 C 106.2,22.39 106.77,22.59 107.32,22.73 107.88,22.87 108.45,22.95 109.03,22.99 110.19,23.09 111.36,23.09 112.53,23.05 114.86,22.97 117.2,22.8 119.54,22.58 124.21,22.17 128.9,21.73 133.63,21.59 134.82,21.56 136.01,21.56 137.22,21.72 138.41,21.88 139.59,22.19 140.7,22.64 141.82,23.09 142.87,23.68 143.85,24.35 144.84,25 145.75,25.82 146.7,26.38 146.93,26.51 147.21,26.59 147.32,26.53 147.32,26.56 147.44,26.45 147.45,26.45 147.51,26.4 147.57,26.34 147.64,26.3 147.76,26.2 147.9,26.12 148.03,26.04 148.56,25.73 149.1,25.5 149.64,25.26 150.17,25.02 150.71,24.78 151.2,24.49 151.68,24.2 152.19,23.85 152.33,23.35 152.4,23.12 152.34,22.83 152.2,22.63 152.06,22.42 151.81,22.29 151.54,22.21 151,22.07 150.41,22.08 149.83,22.13 148.67,22.24 147.52,22.51 146.4,22.85 L 146.37,22.75 Z M 146.37,22.75" />
        </g>
        <g id="jonnieTop3-group369">
            <path id="jonnieTop3-bezier365" stroke="none" fill="rgb(0, 0, 0)" d="M 109.3,19.14 C 109.12,20.81 108.89,22.46 108.58,24.11 108.42,24.94 108.33,25.79 108.01,26.58 107.84,26.98 107.67,27.37 107.43,27.74 107.31,27.93 107.18,28.12 107,28.29 106.91,28.37 106.81,28.46 106.65,28.5 106.45,28.57 106.3,28.38 106.29,28.28 L 106.38,28.23 C 106.47,28.3 106.53,28.28 106.54,28.24 106.56,28.2 106.6,28.11 106.63,28.02 106.69,27.85 106.73,27.66 106.78,27.46 L 107.05,26.28 C 107.23,25.48 107.56,24.72 107.8,23.92 108.28,22.33 108.74,20.73 109.2,19.12 L 109.3,19.14 Z M 109.3,19.14" />
        </g>
        <g id="jonnieTop3-group370">
            <path id="jonnieTop3-bezier366" stroke="none" fill="rgb(0, 0, 0)" d="M 129.37,65.82 C 130.09,66.31 130.68,66.98 131.11,67.76 131.52,68.55 131.74,69.46 131.73,70.37 131.72,71.28 131.58,72.22 131.13,73.01 130.69,73.8 130.12,74.49 129.38,75 L 129.3,74.94 C 129.6,74.1 129.95,73.35 130.22,72.59 130.49,71.84 130.83,71.12 130.93,70.32 131.13,68.76 130.52,67.07 129.31,65.9 L 129.37,65.82 Z M 129.37,65.82" />
        </g>
        <g id="jonnieTop3-group371">
            <path id="jonnieTop3-bezier367" stroke="none" fill="rgb(0, 0, 0)" d="M 129.35,76.06 C 126.5,77.12 123.64,78.12 120.77,79.1 119.34,79.6 117.92,80.15 116.45,80.52 114.98,80.9 113.5,81.23 111.97,81.4 L 111.94,81.31 C 113.31,80.61 114.73,80.07 116.16,79.57 117.59,79.06 119.07,78.73 120.54,78.34 123.46,77.53 126.39,76.74 129.32,75.97 L 129.35,76.06 Z M 129.35,76.06" />
        </g>
        <g id="jonnieTop3-group372">
            <path id="jonnieTop3-bezier368" stroke="none" fill="rgb(0, 0, 0)" d="M 132.83,64.99 C 133.83,64.9 134.84,64.8 135.85,64.79 136.35,64.78 136.86,64.78 137.37,64.79 137.88,64.81 138.4,64.8 138.92,64.93 139.19,64.99 139.45,65.09 139.72,65.24 139.85,65.32 139.99,65.42 140.13,65.58 140.2,65.66 140.26,65.78 140.3,65.91 140.32,65.98 140.31,66.05 140.31,66.12 L 140.31,66.22 C 140.26,66.74 140.19,67.32 139.8,67.81 139.4,68.29 138.8,68.43 138.3,68.48 137.78,68.52 137.28,68.5 136.78,68.46 L 136.78,68.36 C 137.27,68.3 137.77,68.24 138.24,68.13 138.71,68.01 139.14,67.81 139.35,67.47 139.56,67.13 139.6,66.67 139.58,66.2 139.65,66.15 139.12,66.02 138.69,65.94 137.79,65.72 136.8,65.51 135.82,65.41 134.83,65.31 133.83,65.18 132.83,65.09 L 132.83,64.99 Z M 132.83,64.99" />
        </g>
        <g id="jonnieTop3-group373">
            <path id="jonnieTop3-bezier369" stroke="none" fill="rgb(0, 0, 0)" d="M 138.99,70.48 C 138.8,72.12 138.25,73.77 137.17,75.15 136.63,75.82 135.98,76.51 135.1,76.8 134.25,77.11 133.31,77.12 132.5,76.82 L 132.5,76.72 C 133.32,76.46 134.05,76.24 134.71,75.88 135.35,75.53 136.02,75.17 136.57,74.62 137.12,74.07 137.59,73.42 137.96,72.71 138.35,72 138.68,71.25 138.9,70.46 L 138.99,70.48 Z M 138.99,70.48" />
        </g>
        <g id="jonnieTop3-group374">
            <path id="jonnieTop3-bezier370" stroke="none" fill="rgb(0, 0, 0)" d="M 87.54,26.85 C 85.94,27.2 84.35,27.62 82.78,28.11 81.21,28.58 79.67,29.12 78.17,29.75 76.67,30.39 75.25,31.18 73.9,32 72.56,32.84 71.28,33.81 70.58,35.31 L 70.48,35.29 C 70.55,34.44 70.96,33.63 71.48,32.94 72,32.25 72.66,31.68 73.34,31.17 74.73,30.17 76.31,29.56 77.88,29.01 81.02,27.9 84.26,27.19 87.52,26.75 L 87.54,26.85 Z M 87.54,26.85" />
        </g>
        <g id="jonnieTop3-group375">
            <path id="jonnieTop3-bezier371" stroke="none" fill="rgb(0, 0, 0)" d="M 75.54,50.06 C 74.59,49.89 73.63,49.61 72.75,49.11 72.32,48.87 71.83,48.62 71.53,48.17 71.23,47.74 71.03,47.21 71.1,46.65 L 71.2,46.62 C 71.63,46.94 71.95,47.23 72.28,47.51 72.62,47.78 72.86,48.16 73.21,48.45 73.9,49.04 74.71,49.53 75.57,49.97 L 75.54,50.06 Z M 75.54,50.06" />
        </g>
        <g id="jonnieTop3-group376">
            <path id="jonnieTop3-bezier372" stroke="none" fill="rgb(0, 0, 0)" d="M 97.17,89.65 C 94.75,89.72 92.34,89.65 89.93,89.45 87.52,89.23 85.11,88.89 82.74,88.28 80.4,87.66 77.98,86.88 76.05,85.18 75.12,84.33 74.32,83.25 73.99,82 73.65,80.75 73.77,79.45 74.19,78.31 L 74.29,78.33 C 74.15,79.53 74.22,80.73 74.65,81.77 75.07,82.82 75.8,83.72 76.7,84.42 78.49,85.84 80.7,86.8 82.96,87.51 85.24,88.19 87.6,88.64 89.98,88.95 92.36,89.28 94.76,89.49 97.17,89.55 L 97.17,89.65 Z M 97.17,89.65" />
        </g>
        <g id="jonnieTop3-group377">
            <path id="jonnieTop3-bezier373" stroke="none" fill="rgb(0, 0, 0)" d="M 85.59,31.41 C 82.06,33.21 79.34,36.36 77.87,39.97 77.13,41.77 76.67,43.69 76.49,45.63 76.33,47.58 76.23,49.56 76.15,51.53 76.01,55.47 76.05,59.42 76.15,63.35 76.18,65.32 76.29,67.29 76.46,69.24 76.65,71.19 76.9,73.15 77.47,75.04 L 77.38,75.08 C 76.53,73.27 76.11,71.29 75.77,69.33 75.45,67.36 75.28,65.38 75.15,63.39 74.92,59.42 75.1,55.45 75.35,51.49 75.48,49.51 75.63,47.54 75.84,45.56 76.08,43.56 76.6,41.6 77.41,39.77 79.04,36.11 81.94,33.01 85.54,31.32 L 85.59,31.41 Z M 85.59,31.41" />
        </g>
        <g id="jonnieTop3-group378">
            <path id="jonnieTop3-bezier374" stroke="none" fill="rgb(0, 0, 0)" d="M 87.97,80.34 C 86.67,78.96 85.72,77.3 84.91,75.6 84.11,73.89 83.49,72.1 83.03,70.27 82.11,66.6 81.78,62.8 81.83,59.02 81.89,55.25 82.27,51.46 83.09,47.78 83.94,44.1 85.02,40.48 86.49,37.01 L 86.58,37.04 C 85.66,40.68 84.73,44.3 84.07,47.98 83.39,51.64 82.8,55.32 82.63,59.05 82.48,62.77 82.71,66.51 83.51,70.15 83.91,71.97 84.45,73.76 85.18,75.48 85.92,77.18 86.81,78.86 88.04,80.27 L 87.97,80.34 Z M 87.97,80.34" />
        </g>
        <g id="jonnieTop3-group379">
            <path id="jonnieTop3-bezier375" stroke="none" fill="rgb(0, 0, 0)" d="M 107.41,23.15 C 106.19,22.36 104.74,21.98 103.32,21.77 101.89,21.55 100.43,21.54 99,21.67 97.56,21.8 96.15,22.12 94.73,22.37 93.3,22.61 91.88,22.92 90.4,23.15 L 90.37,23.06 C 91.67,22.31 93.07,21.78 94.51,21.39 95.95,21.01 97.46,20.89 98.96,20.87 100.45,20.84 101.95,20.96 103.41,21.28 104.86,21.63 106.3,22.15 107.48,23.07 L 107.41,23.15 Z M 107.41,23.15" />
        </g>
        <g id="jonnieTop3-group380">
            <path id="jonnieTop3-bezier376" stroke="none" fill="rgb(0, 0, 0)" d="M 75.5,86.17 C 73.82,85.9 72.16,85.55 70.53,85.07 69.71,84.83 68.86,84.64 68.1,84.2 67.72,83.98 67.35,83.73 67.02,83.42 66.7,83.12 66.36,82.73 66.31,82.25 L 66.4,82.22 C 66.99,82.77 67.79,82.97 68.53,83.3 69.3,83.58 70.02,84 70.79,84.32 72.34,84.95 73.92,85.53 75.52,86.07 L 75.5,86.17 Z M 75.5,86.17" />
        </g>
        <g id="jonnieTop3-group381">
            <path id="jonnieTop3-bezier377" stroke="none" fill="rgb(0, 0, 0)" d="M 74.03,76.8 C 72.71,76.99 71.4,77.23 70.12,77.52 69.48,77.67 68.87,77.93 68.25,78.03 67.62,78.17 67.02,78.24 66.39,78.5 L 66.32,78.44 C 66.61,77.72 67.34,77.34 67.96,77.08 68.61,76.81 69.32,76.8 69.99,76.73 71.34,76.61 72.69,76.61 74.03,76.7 L 74.03,76.8 Z M 74.03,76.8" />
        </g>
        <g id="jonnieTop3-group382">
            <path id="jonnieTop3-bezier378" stroke="none" fill="rgb(0, 0, 0)" d="M 65.45,81.79 C 65.18,81.68 64.92,81.54 64.68,81.34 64.45,81.12 64.24,80.82 64.18,80.44 64.12,80.06 64.19,79.6 64.47,79.36 64.74,79.12 65.07,79.01 65.45,79.08 L 65.51,79.16 C 65.44,79.54 65.33,79.78 65.26,79.98 65.2,80.17 65.03,80.24 64.98,80.42 64.89,80.76 65.15,81.3 65.51,81.7 L 65.45,81.79 Z M 65.45,81.79" />
        </g>
        <g id="jonnieTop3-group383">
            <path id="jonnieTop3-bezier379" stroke="none" fill="rgb(0, 0, 0)" d="M 53.13,78.92 C 52.44,79.15 51.74,79.32 51,79.4 50.64,79.43 50.24,79.53 49.85,79.37 49.66,79.29 49.46,79.19 49.29,79.02 49.12,78.86 48.98,78.57 49.08,78.33 L 49.17,78.31 C 49.35,78.43 49.5,78.39 49.63,78.4 L 50.07,78.4 C 50.37,78.39 50.68,78.54 51.02,78.6 51.7,78.7 52.4,78.77 53.12,78.83 L 53.13,78.92 Z M 53.13,78.92" />
        </g>
        <g id="jonnieTop3-group473">
            <path id="jonnieTop3-bezier469" stroke="none" fill="rgb(0, 0, 0)" d="M 128.32,65.46 L 124.44,64.9 C 123.79,64.81 123.14,64.82 122.52,64.65 121.89,64.51 121.3,64.28 120.66,64.13 L 120.63,64.04 C 121.28,63.62 122.01,63.65 122.67,63.66 123.34,63.69 123.97,63.94 124.6,64.12 125.87,64.47 127.12,64.9 128.35,65.37 L 128.32,65.46 Z M 128.32,65.46" />
        </g>
    </g>
</svg>
