<?xml version="1.0" encoding="UTF-8"?>
<!DOCTYPE svg PUBLIC "-//W3C//DTD SVG 1.1//EN" "http://www.w3.org/Graphics/SVG/1.1/DTD/svg11.dtd">
<svg version="1.1" xmlns="http://www.w3.org/2000/svg" xmlns:xlink="http://www.w3.org/1999/xlink" width="200" height="300"  xml:space="preserve" id="jonnieSideRight7">
    <!-- Generated by PaintCode - http://www.paintcodeapp.com -->
    <g id="jonnieSideRight7-group2">
        <g id="jonnieSideRight7-group165">
            <path id="jonnieSideRight7-bezier164" stroke="none" fill="rgb(0, 0, 0)" d="M 122.47,29.16 C 122.26,25.67 121.71,22.2 120.74,18.85 120.24,17.18 119.63,15.55 118.81,14.02 117.99,12.5 116.95,11.08 115.61,10.03 114.29,8.94 112.6,8.46 110.91,8.16 109.21,7.87 107.47,7.8 105.75,7.91 102.31,8.15 98.9,9.06 95.87,10.68 92.86,12.31 90.25,14.76 88.88,17.86 88.17,19.4 87.8,21.06 87.67,22.76 87.53,24.46 87.62,26.17 87.97,27.83 88.3,29.5 88.9,31.12 89.58,32.72 90.25,34.32 91.04,35.92 91.46,37.67 91.9,39.41 91.91,41.29 91.41,43 90.92,44.72 90.05,46.28 89.06,47.73 L 88.97,47.67 C 89.86,46.17 90.61,44.57 90.97,42.89 91.36,41.22 91.28,39.48 90.79,37.85 90.3,36.22 89.52,34.66 88.79,33.06 88.06,31.47 87.39,29.8 86.99,28.04 86.6,26.28 86.5,24.47 86.64,22.67 86.78,20.89 87.2,19.09 87.98,17.45 89.52,14.14 92.34,11.61 95.49,9.98 98.66,8.33 102.18,7.46 105.71,7.27 107.48,7.18 109.26,7.27 111.01,7.59 111.88,7.76 112.75,7.99 113.59,8.29 114.44,8.61 115.23,9.07 115.92,9.64 117.32,10.78 118.35,12.27 119.16,13.84 119.97,15.41 120.56,17.08 121.03,18.77 121.95,22.16 122.43,25.66 122.57,29.16 L 122.47,29.16 Z M 122.47,29.16" />
        </g>
        <g id="jonnieSideRight7-group166">
            <path id="jonnieSideRight7-bezier165" stroke="none" fill="rgb(0, 0, 0)" d="M 120.32,32.45 C 120.4,34.94 120.33,37.46 119.83,39.94 119.53,41.15 119.19,42.45 118.18,43.44 117.92,43.67 117.6,43.86 117.24,43.97 117.06,44.02 116.88,44.05 116.69,44.05 L 116.22,44.06 C 115.62,44.08 115.01,44.14 114.42,44.25 112.03,44.65 109.92,45.98 108.55,47.89 107.83,48.84 107.33,49.94 106.98,51.09 106.79,51.67 106.66,52.27 106.59,52.87 106.51,53.47 106.46,54.1 106.63,54.67 L 106.55,54.72 C 105.96,53.53 106.11,52.19 106.3,50.93 106.53,49.66 107.02,48.44 107.73,47.33 108.46,46.23 109.44,45.29 110.6,44.65 111.75,44 113.02,43.63 114.3,43.46 114.94,43.37 115.57,43.33 116.22,43.34 L 116.68,43.34 C 116.81,43.35 116.94,43.33 117.06,43.3 117.31,43.24 117.54,43.12 117.75,42.95 118.59,42.21 119.02,40.98 119.34,39.82 119.96,37.44 120.17,34.93 120.22,32.45 L 120.32,32.45 Z M 120.32,32.45" />
        </g>
        <g id="jonnieSideRight7-group167">
            <path id="jonnieSideRight7-bezier166" stroke="none" fill="rgb(0, 0, 0)" d="M 102.55,53.29 C 105.09,55.74 107.32,58.53 109,61.67 109.82,63.25 110.49,64.93 110.85,66.7 111.1,68.46 111.57,70.09 112.21,71.73 113.48,74.97 115.21,78.04 116.82,81.16 117.61,82.73 118.45,84.28 119.22,85.87 119.97,87.47 120.77,89.07 121.19,90.81 L 121.09,90.84 C 120.76,90.02 120.35,89.25 119.92,88.49 119.5,87.72 119.05,86.96 118.6,86.2 L 115.94,81.64 C 114.21,78.56 112.66,75.36 111.46,72 110.85,70.35 110.4,68.55 110.21,66.82 109.91,65.12 109.32,63.47 108.56,61.9 107.03,58.76 104.92,55.89 102.48,53.36 L 102.55,53.29 Z M 102.55,53.29" />
        </g>
        <g id="jonnieSideRight7-group168">
            <path id="jonnieSideRight7-bezier167" stroke="none" fill="rgb(0, 0, 0)" d="M 122.54,92.78 C 127.28,94.96 131.99,97.24 136.5,99.93 137.61,100.62 138.72,101.33 139.75,102.18 140,102.39 140.26,102.64 140.48,102.87 140.7,103.08 140.95,103.28 141.2,103.48 141.7,103.87 142.23,104.24 142.77,104.6 144.94,106.02 147.23,107.26 149.54,108.46 154.19,110.8 158.96,112.94 163.85,114.59 165.08,114.98 166.31,115.34 167.56,115.41 168.87,115.5 170.18,115.61 171.48,115.81 172.78,116.01 174.08,116.25 175.35,116.59 175.99,116.78 176.62,116.98 177.22,117.25 177.53,117.39 177.83,117.55 178.1,117.75 178.36,117.95 178.64,118.2 178.69,118.56 L 178.59,118.58 C 178.51,118.28 178.25,118.07 177.98,117.92 177.71,117.75 177.42,117.63 177.12,117.52 176.51,117.31 175.88,117.16 175.25,117.04 173.98,116.78 172.69,116.62 171.4,116.51 170.1,116.4 168.81,116.3 167.51,116.27 166.14,116.24 164.83,115.9 163.56,115.54 158.5,113.98 153.8,111.62 149.17,109.16 146.87,107.92 144.59,106.62 142.41,105.14 141.87,104.76 141.33,104.38 140.82,103.96 140.56,103.75 140.3,103.53 140.06,103.28 139.82,103.04 139.62,102.83 139.37,102.62 138.4,101.78 137.32,101.05 136.23,100.35 131.83,97.56 127.18,95.17 122.49,92.87 L 122.54,92.78 Z M 122.54,92.78" />
        </g>
        <g id="jonnieSideRight7-group169">
            <path id="jonnieSideRight7-bezier168" stroke="none" fill="rgb(0, 0, 0)" d="M 178.67,120.03 C 179.33,120.53 179.93,121.09 180.46,121.73 180.98,122.37 181.46,123.11 181.53,124.03 181.53,124.96 181.13,125.75 180.74,126.48 180.32,127.21 179.82,127.89 179.26,128.52 178.14,129.76 176.78,130.92 175.05,131.36 174.18,131.57 173.35,131.6 172.49,131.53 172.07,131.48 171.63,131.42 171.22,131.24 170.83,131.07 170.34,130.69 170.47,130.19 L 170.56,130.21 C 170.62,130.59 171,130.75 171.36,130.81 171.72,130.88 172.11,130.87 172.5,130.83 173.27,130.74 174.08,130.64 174.77,130.4 176.2,129.92 177.54,129.07 178.68,127.97 179.24,127.41 179.75,126.8 180.18,126.14 180.6,125.48 180.99,124.76 181.03,124.04 181.05,123.31 180.67,122.56 180.22,121.91 179.77,121.25 179.21,120.65 178.61,120.11 L 178.67,120.03 Z M 178.67,120.03" />
        </g>
        <g id="jonnieSideRight7-group170">
            <path id="jonnieSideRight7-bezier169" stroke="none" fill="rgb(0, 0, 0)" d="M 172.26,128.25 C 169.71,127.86 167.16,127.38 164.69,126.61 164.07,126.41 163.46,126.18 162.86,125.9 162.57,125.76 162.28,125.6 162,125.4 L 161.24,124.79 C 160.23,124.02 159.14,123.33 158.03,122.68 155.82,121.39 153.5,120.26 151.07,119.52 150.46,119.34 149.85,119.19 149.23,119.08 148.6,118.96 148.01,118.96 147.32,118.88 145.99,118.68 144.75,118.32 143.5,117.96 138.54,116.44 133.69,114.64 128.95,112.57 126.6,111.51 124.24,110.43 121.95,109.24 120.8,108.64 119.66,108.03 118.54,107.37 117.99,107.03 117.44,106.68 116.91,106.3 116.39,105.92 115.83,105.55 115.47,104.97 L 115.56,104.92 C 115.95,105.41 116.53,105.73 117.07,106.06 117.62,106.38 118.19,106.68 118.77,106.97 119.91,107.55 121.08,108.09 122.25,108.61 124.6,109.67 126.96,110.69 129.35,111.65 134.11,113.59 138.86,115.59 143.74,117.19 144.96,117.57 146.19,117.95 147.42,118.16 148,118.24 148.71,118.26 149.35,118.4 150,118.53 150.64,118.7 151.26,118.9 153.75,119.71 156.08,120.91 158.29,122.25 159.39,122.94 160.47,123.66 161.49,124.48 162.41,125.41 163.56,125.89 164.78,126.32 167.21,127.15 169.74,127.7 172.27,128.15 L 172.26,128.25 Z M 172.26,128.25" />
        </g>
        <g id="jonnieSideRight7-group171">
            <path id="jonnieSideRight7-bezier170" stroke="none" fill="rgb(0, 0, 0)" d="M 113.36,102.48 C 109.63,98.1 106.02,93.62 102.57,89.02 100.84,86.72 99.1,84.42 97.59,81.95 96.86,80.71 96.12,79.46 95.49,78.16 94.86,76.86 94.26,75.52 93.97,74.09 L 94.06,74.06 C 94.62,75.38 95.35,76.61 96.1,77.82 96.85,79.03 97.62,80.24 98.44,81.41 100.03,83.78 101.58,86.19 103.22,88.55 106.51,93.24 109.94,97.86 113.44,102.42 L 113.36,102.48 Z M 113.36,102.48" />
        </g>
        <g id="jonnieSideRight7-group172">
            <path id="jonnieSideRight7-bezier171" stroke="none" fill="rgb(0, 0, 0)" d="M 85.93,51.61 C 84.97,52.7 84.16,53.91 83.46,55.17 82.76,56.43 82.17,57.75 81.74,59.11 81.31,60.47 81.09,61.88 80.89,63.27 80.67,64.67 80.6,66.09 80.56,67.57 L 80.47,67.58 C 79.96,66.18 79.8,64.66 79.89,63.17 79.98,61.67 80.43,60.22 80.98,58.84 82.08,56.07 83.74,53.57 85.86,51.54 L 85.93,51.61 Z M 85.93,51.61" />
        </g>
        <g id="jonnieSideRight7-group173">
            <path id="jonnieSideRight7-bezier172" stroke="none" fill="rgb(0, 0, 0)" d="M 81.05,54.74 C 79.15,56.3 77.33,57.95 75.62,59.71 73.94,61.48 72.26,63.34 71.26,65.53 70.19,67.8 68.81,69.83 67.48,71.91 66.13,73.97 64.75,76.01 63.35,78.04 60.55,82.09 57.75,86.14 54.75,90.05 53.21,91.98 51.7,93.9 50.33,95.92 49.64,96.92 48.99,97.96 48.43,99.04 47.87,100.11 47.39,101.25 47.19,102.45 L 47.09,102.44 C 47.26,99.93 48.51,97.66 49.74,95.54 51.01,93.41 52.51,91.43 53.95,89.45 L 62.69,77.58 C 64.13,75.58 65.55,73.58 66.94,71.55 68.3,69.52 69.73,67.49 70.8,65.32 71.93,63.05 73.67,61.25 75.4,59.5 77.17,57.78 79.04,56.17 80.98,54.66 L 81.05,54.74 Z M 81.05,54.74" />
        </g>
        <g id="jonnieSideRight7-group174">
            <path id="jonnieSideRight7-bezier173" stroke="none" fill="rgb(0, 0, 0)" d="M 45.93,103.36 C 43.12,106.94 40.51,110.69 38.29,114.64 37.18,116.62 36.17,118.65 35.48,120.8 34.76,122.94 34.27,125.15 33.76,127.38 33.49,128.5 33.19,129.63 32.72,130.71 32.25,131.8 31.58,132.82 30.77,133.69 29.95,134.57 28.98,135.25 28.15,135.97 27.3,136.69 26.47,137.46 25.66,138.25 24.03,139.81 22.5,141.48 21.03,143.2 20.29,144.06 19.58,144.94 18.92,145.86 18.59,146.32 18.27,146.78 17.99,147.27 17.73,147.76 17.42,148.27 17.44,148.81 L 17.34,148.83 C 17.24,148.22 17.52,147.67 17.73,147.14 17.97,146.61 18.25,146.11 18.54,145.61 19.14,144.63 19.8,143.69 20.48,142.76 21.85,140.93 23.37,139.2 24.96,137.54 25.77,136.72 26.6,135.93 27.48,135.18 28.37,134.4 29.31,133.8 30.05,133 31.62,131.47 32.43,129.38 32.98,127.19 33.54,124.99 34.08,122.75 34.86,120.59 35.62,118.41 36.69,116.36 37.85,114.39 40.21,110.47 42.94,106.8 45.85,103.29 L 45.93,103.36 Z M 45.93,103.36" />
        </g>
        <g id="jonnieSideRight7-group175">
            <path id="jonnieSideRight7-bezier174" stroke="none" fill="rgb(0, 0, 0)" d="M 22.43,145.13 C 21.56,146.4 20.73,147.69 19.96,149 19.58,149.65 19.3,150.36 18.91,150.98 18.72,151.29 18.54,151.61 18.37,151.92 18.21,152.24 18.04,152.54 18.06,152.92 L 17.97,152.97 C 17.66,152.64 17.64,152.13 17.69,151.72 17.74,151.3 17.87,150.91 18.01,150.54 18.31,149.78 18.83,149.18 19.3,148.55 20.23,147.31 21.26,146.16 22.35,145.06 L 22.43,145.13 Z M 22.43,145.13" />
        </g>
        <g id="jonnieSideRight7-group176">
            <path id="jonnieSideRight7-bezier175" stroke="none" fill="rgb(0, 0, 0)" d="M 23.68,147.23 C 22.76,148.75 21.86,150.28 21.03,151.82 20.61,152.6 20.29,153.42 19.86,154.16 19.65,154.53 19.45,154.91 19.27,155.28 19.12,155.66 18.87,156.04 19.05,156.41 L 18.98,156.49 C 18.73,156.38 18.63,156.07 18.58,155.83 18.55,155.58 18.56,155.33 18.59,155.09 18.65,154.61 18.8,154.17 18.96,153.74 19.28,152.87 19.84,152.15 20.34,151.41 21.34,149.93 22.44,148.52 23.6,147.17 L 23.68,147.23 Z M 23.68,147.23" />
        </g>
        <g id="jonnieSideRight7-group177">
            <path id="jonnieSideRight7-bezier176" stroke="none" fill="rgb(0, 0, 0)" d="M 25.92,151.86 C 24.74,152.94 23.59,154.06 22.53,155.23 22,155.81 21.57,156.47 21.08,157.04 20.84,157.32 20.61,157.62 20.43,157.92 20.26,158.22 20.09,158.52 20.2,158.92 L 20.12,158.98 C 19.73,158.71 19.66,158.11 19.77,157.68 19.85,157.23 20.05,156.83 20.26,156.46 20.7,155.72 21.36,155.2 21.97,154.66 23.19,153.58 24.5,152.64 25.86,151.78 L 25.92,151.86 Z M 25.92,151.86" />
        </g>
        <g id="jonnieSideRight7-group178">
            <path id="jonnieSideRight7-bezier177" stroke="none" fill="rgb(0, 0, 0)" d="M 30.19,145.11 C 30.01,146.13 29.97,147.19 30.06,148.21 30.1,148.72 30.17,149.22 30.29,149.71 30.35,149.96 30.43,150.18 30.51,150.45 30.6,150.69 30.66,151.02 30.69,151.28 30.81,152.4 30.73,153.51 30.44,154.53 30.3,155.04 30.14,155.54 29.98,156.03 29.91,156.27 29.83,156.51 29.78,156.75 29.72,156.99 29.67,157.23 29.83,157.4 L 29.78,157.49 C 29.45,157.39 29.37,157 29.32,156.74 29.28,156.46 29.27,156.18 29.29,155.91 29.31,155.36 29.39,154.84 29.47,154.32 29.6,153.3 29.92,152.32 29.89,151.34 29.89,151.09 29.87,150.89 29.81,150.63 29.76,150.39 29.69,150.1 29.66,149.84 29.58,149.3 29.55,148.76 29.56,148.22 29.61,147.15 29.79,146.1 30.09,145.08 L 30.19,145.11 Z M 30.19,145.11" />
        </g>
        <g id="jonnieSideRight7-group179">
            <path id="jonnieSideRight7-bezier178" stroke="none" fill="rgb(0, 0, 0)" d="M 31.59,156.92 C 34.12,152.81 36.42,148.33 36.19,143.35 36.67,140.92 37.56,138.64 38.47,136.37 39.41,134.11 40.44,131.9 41.55,129.72 42.65,127.54 43.83,125.4 45.14,123.32 45.81,122.29 46.5,121.27 47.33,120.31 47.53,120.08 47.77,119.84 47.99,119.63 48.2,119.42 48.39,119.22 48.6,118.99 48.99,118.55 49.37,118.09 49.73,117.62 51.2,115.73 52.45,113.65 53.63,111.54 54.22,110.48 54.78,109.41 55.3,108.31 55.81,107.22 56.37,106.12 56.59,104.95 L 56.69,104.95 C 56.69,105.58 56.5,106.17 56.32,106.76 56.14,107.35 55.94,107.92 55.72,108.5 55.27,109.64 54.78,110.75 54.25,111.86 53.18,114.06 51.96,116.2 50.53,118.21 50.16,118.71 49.77,119.2 49.36,119.67 49.15,119.9 48.93,120.14 48.71,120.36 48.49,120.57 48.31,120.77 48.11,121 47.34,121.88 46.64,122.86 45.97,123.86 44.63,125.86 43.41,127.96 42.26,130.09 41.11,132.23 40.04,134.41 39.07,136.62 38.11,138.85 37.19,141.11 36.67,143.45 36.55,144.04 36.47,144.61 36.49,145.21 36.51,145.84 36.43,146.46 36.32,147.06 36.08,148.28 35.67,149.44 35.2,150.57 34.24,152.82 33.03,154.95 31.67,156.98 L 31.59,156.92 Z M 31.59,156.92" />
        </g>
        <g id="jonnieSideRight7-group180">
            <path id="jonnieSideRight7-bezier179" stroke="none" fill="rgb(0, 0, 0)" d="M 54.74,102.41 C 58.14,100.07 61.51,97.69 64.83,95.26 66.48,94.03 68.08,92.74 69.74,91.54 L 72.2,89.71 C 72.61,89.4 73.01,89.08 73.39,88.75 73.79,88.42 74.16,88.08 74.47,87.68 L 74.56,87.72 C 74.14,88.71 73.38,89.48 72.67,90.23 71.94,90.98 71.15,91.66 70.35,92.33 68.75,93.65 67.01,94.77 65.29,95.92 61.85,98.21 58.35,100.4 54.79,102.49 L 54.74,102.41 Z M 54.74,102.41" />
        </g>
        <g id="jonnieSideRight7-group181">
            <path id="jonnieSideRight7-bezier180" stroke="none" fill="rgb(0, 0, 0)" d="M 70.46,140.26 C 70.41,141.78 70.43,143.29 70.49,144.79 70.52,145.55 70.63,146.28 70.7,147.02 L 70.91,149.28 71.74,158.32 71.65,158.34 C 71.21,156.88 70.89,155.39 70.58,153.9 70.3,152.4 70.05,150.9 69.89,149.38 69.81,148.62 69.73,147.86 69.69,147.1 69.65,146.33 69.72,145.55 69.76,144.79 69.85,143.26 70.07,141.74 70.36,140.25 L 70.46,140.26 Z M 70.46,140.26" />
        </g>
        <g id="jonnieSideRight7-group182">
            <path id="jonnieSideRight7-bezier181" stroke="none" fill="rgb(0, 0, 0)" d="M 75.32,81.82 C 75.61,84.22 75.95,86.61 76.37,88.99 76.79,91.39 77.26,93.69 78.03,96.05 78.21,97.3 78.16,98.51 78.12,99.73 78.07,100.95 77.97,102.16 77.87,103.37 77.65,105.78 77.35,108.19 77.03,110.59 76.38,115.39 75.61,120.18 74.51,124.91 73.95,127.26 73.38,129.63 72.65,131.94 71.89,134.24 71.18,136.61 69.8,138.64 L 69.72,138.58 C 70.31,137.54 70.69,136.39 71.04,135.24 71.4,134.09 71.72,132.93 72,131.76 72.57,129.42 73.11,127.07 73.57,124.7 74.51,119.97 75.43,115.23 76.19,110.47 76.57,108.08 76.9,105.69 77.17,103.3 77.3,102.1 77.42,100.9 77.49,99.7 77.56,98.51 77.63,97.29 77.48,96.14 76.78,93.89 76.36,91.42 76.03,89.04 75.7,86.64 75.43,84.24 75.22,81.83 L 75.32,81.82 Z M 75.32,81.82" />
        </g>
        <g id="jonnieSideRight7-group183">
            <path id="jonnieSideRight7-bezier182" stroke="none" fill="rgb(0, 0, 0)" d="M 71.74,158.34 L 68.74,172.03 C 67.75,176.59 66.74,181.16 65.89,185.73 65.17,190.35 64.24,194.95 63.07,199.48 62.47,201.74 61.85,204 61.14,206.23 60.78,207.34 60.41,208.45 60,209.55 59.78,210.1 59.56,210.65 59.31,211.18 59.05,211.71 58.83,212.26 58.38,212.69 L 58.31,212.62 C 58.95,211.68 59.21,210.5 59.55,209.41 59.88,208.29 60.18,207.16 60.46,206.03 61.04,203.78 61.58,201.51 62.1,199.24 63.13,194.69 64.31,190.19 65.12,185.59 66.07,181 67.17,176.46 68.26,171.92 L 71.65,158.32 71.74,158.34 Z M 71.74,158.34" />
        </g>
        <g id="jonnieSideRight7-group184">
            <path id="jonnieSideRight7-bezier183" stroke="none" fill="rgb(0, 0, 0)" d="M 58.39,207.19 C 55.68,210.79 53.05,214.44 50.54,218.17 49.29,220.04 48.06,221.93 46.94,223.87 46.38,224.84 45.84,225.83 45.38,226.84 45.16,227.35 44.95,227.87 44.83,228.39 44.7,228.93 44.6,229.48 44.5,230.03 43.03,238.89 41.62,247.88 38.25,256.33 37.4,258.44 36.41,260.5 35.17,262.42 34.56,263.39 33.83,264.3 33.14,265.17 L 31.06,267.83 C 29.68,269.59 28.3,271.37 27.07,273.22 26.47,274.15 25.89,275.1 25.51,276.08 25.11,277.07 25.04,278.08 25.6,278.86 25.83,279.2 26.28,279.54 26.71,279.83 27.16,280.13 27.64,280.41 28.13,280.67 29.11,281.2 30.12,281.69 31.12,282.2 33.13,283.21 35.19,284.2 37.02,285.63 37.91,286.33 38.79,287.24 39.21,288.33 39.7,289.32 40.27,290.28 40.99,291.11 41.7,291.94 42.6,292.62 43.62,293.03 44.65,293.45 45.77,293.62 46.89,293.65 L 46.89,293.75 C 45.76,293.78 44.61,293.67 43.53,293.29 42.44,292.92 41.45,292.25 40.65,291.41 39.86,290.57 39.24,289.6 38.7,288.59 38.26,287.57 37.48,286.84 36.59,286.18 34.81,284.9 32.77,283.94 30.75,282.97 29.73,282.49 28.71,282.02 27.69,281.5 27.19,281.23 26.68,280.96 26.19,280.64 25.69,280.32 25.2,279.99 24.77,279.42 24.4,278.88 24.18,278.21 24.19,277.55 24.19,276.89 24.36,276.29 24.57,275.73 25.01,274.61 25.62,273.63 26.24,272.67 27.5,270.77 28.89,268.99 30.28,267.21 L 32.4,264.58 C 33.12,263.7 33.82,262.86 34.42,261.93 35.65,260.09 36.65,258.08 37.51,256.03 40.93,247.73 42.44,238.79 44.01,229.94 44.12,229.39 44.23,228.83 44.36,228.28 44.51,227.7 44.74,227.17 44.97,226.66 45.45,225.62 46.01,224.64 46.59,223.67 47.75,221.73 49.01,219.86 50.29,218 52.86,214.3 55.55,210.69 58.31,207.13 L 58.39,207.19 Z M 58.39,207.19" />
        </g>
        <g id="jonnieSideRight7-group185">
            <path id="jonnieSideRight7-bezier184" stroke="none" fill="rgb(0, 0, 0)" d="M 49.52,293.65 L 61.39,293.55 C 62.33,293.5 63.28,293.08 63.99,292.48 64.33,292.18 64.61,291.76 64.53,291.36 64.46,290.96 64.1,290.63 63.69,290.42 62.84,290 61.87,289.72 60.94,289.39 60,289.07 59.06,288.74 58.14,288.36 56.3,287.61 54.51,286.66 52.92,285.41 51.34,284.17 49.99,282.6 49.01,280.85 47.01,277.45 45.1,273.78 44.77,269.68 44.6,267.66 44.86,265.59 45.47,263.66 46.08,261.72 47.01,259.9 48.11,258.22 48.66,257.37 49.28,256.57 49.84,255.78 50.41,254.98 50.95,254.16 51.49,253.34 52.55,251.68 53.56,249.99 54.55,248.28 58.53,241.46 62.1,234.39 65.64,227.3 L 65.73,227.34 C 62.71,234.67 59.27,241.83 55.41,248.77 54.42,250.5 53.4,252.2 52.32,253.87 51.78,254.71 51.23,255.54 50.65,256.35 50.07,257.18 49.47,257.95 48.94,258.76 46.76,261.96 45.28,265.74 45.57,269.62 45.83,273.5 47.63,277.12 49.57,280.52 50.51,282.24 51.77,283.74 53.28,284.96 54.8,286.19 56.53,287.13 58.34,287.9 59.24,288.29 60.16,288.63 61.09,288.96 62.02,289.31 62.97,289.59 63.88,290.07 64.33,290.31 64.8,290.71 64.91,291.3 65,291.92 64.6,292.41 64.22,292.74 63.41,293.39 62.44,293.8 61.4,293.85 L 49.52,293.75 49.52,293.65 49.52,293.65 Z M 49.52,293.65" />
        </g>
        <g id="jonnieSideRight7-group186">
            <path id="jonnieSideRight7-bezier185" stroke="none" fill="rgb(0, 0, 0)" d="M 66.6,225.55 C 68.17,223.14 69.83,220.8 71.71,218.62 72.18,218.08 72.67,217.55 73.2,217.05 73.46,216.81 73.77,216.57 74,216.35 74.25,216.1 74.48,215.83 74.71,215.56 75.61,214.46 76.45,213.3 77.28,212.13 80.57,207.46 83.63,202.61 86.56,197.7 89.47,192.77 92.19,187.73 94.81,182.66 97.42,177.58 99.88,172.41 101.59,166.94 L 101.69,166.96 C 100.52,172.61 98.16,177.92 95.7,183.1 93.18,188.27 90.26,193.23 87.24,198.11 84.22,202.99 81.07,207.79 77.68,212.43 76.82,213.58 75.96,214.73 75.01,215.82 74.77,216.09 74.53,216.36 74.26,216.62 73.98,216.88 73.7,217.07 73.44,217.31 72.91,217.79 72.41,218.29 71.93,218.82 70.01,220.93 68.3,223.24 66.68,225.6 L 66.6,225.55 Z M 66.6,225.55" />
        </g>
        <g id="jonnieSideRight7-group187">
            <path id="jonnieSideRight7-bezier186" stroke="none" fill="rgb(0, 0, 0)" d="M 94.81,191.42 C 97.35,194.29 99.82,197.22 102.22,200.23 103.42,201.72 104.66,203.2 105.71,204.82 106.23,205.63 106.74,206.45 107.18,207.32 107.61,208.18 108.09,209.06 108.19,210.07 L 108.09,210.08 C 107.93,209.65 107.67,209.24 107.4,208.85 107.14,208.46 106.87,208.07 106.59,207.69 L 104.89,205.39 C 103.74,203.87 102.7,202.27 101.58,200.71 99.34,197.61 97.04,194.54 94.73,191.48 L 94.81,191.42 Z M 94.81,191.42" />
        </g>
        <g id="jonnieSideRight7-group188">
            <path id="jonnieSideRight7-bezier187" stroke="none" fill="rgb(0, 0, 0)" d="M 109.31,211.32 C 109.3,215.46 109.54,219.61 110.19,223.7 110.53,225.73 110.97,227.76 111.72,229.67 112.09,230.63 112.57,231.51 113.18,232.35 L 114.95,234.9 C 119.67,241.71 124.37,248.55 128.74,255.61 130.92,259.15 133.06,262.71 134.81,266.52 135.23,267.49 135.63,268.46 135.91,269.51 136.06,270.02 136.14,270.62 136.18,271.11 L 136.37,272.64 C 136.65,274.68 137.01,276.71 137.57,278.66 138.13,280.58 138.85,282.59 140.28,283.86 140.98,284.48 141.91,284.79 142.83,284.64 143.76,284.5 144.67,284.03 145.53,283.5 147.25,282.41 148.8,281.03 150.43,279.75 151.25,279.11 152.09,278.48 152.98,277.93 153.87,277.4 154.83,276.91 155.88,276.77 L 155.9,276.87 C 154.88,277.06 153.98,277.59 153.13,278.17 152.29,278.75 151.5,279.42 150.72,280.1 149.15,281.44 147.65,282.88 145.91,284.09 145.04,284.67 144.08,285.23 142.96,285.43 141.82,285.64 140.59,285.26 139.73,284.53 138.85,283.81 138.24,282.87 137.76,281.91 137.28,280.95 136.91,279.95 136.61,278.94 136.03,276.91 135.67,274.84 135.39,272.77 L 135.2,271.22 C 135.14,270.68 135.09,270.25 134.95,269.76 134.69,268.81 134.31,267.86 133.91,266.92 132.25,263.17 130.17,259.58 128.06,256.03 123.78,248.94 119.17,242.05 114.54,235.18 L 112.81,232.6 C 112.21,231.75 111.7,230.79 111.34,229.81 110.61,227.85 110.2,225.79 109.89,223.74 109.3,219.63 109.14,215.47 109.21,211.32 L 109.31,211.32 Z M 109.31,211.32" />
        </g>
        <g id="jonnieSideRight7-group189">
            <path id="jonnieSideRight7-bezier188" stroke="none" fill="rgb(0, 0, 0)" d="M 159,275.65 C 161.03,274.83 163.04,273.96 164.99,273.02 165.97,272.55 166.89,271.97 167.85,271.51 168.33,271.28 168.8,271.04 169.26,270.78 169.7,270.51 170.18,270.26 170.47,269.81 L 170.56,269.84 C 170.51,270.45 170.09,270.94 169.69,271.34 169.28,271.74 168.82,272.08 168.35,272.38 167.4,273 166.34,273.35 165.31,273.75 163.25,274.54 161.15,275.19 159.03,275.75 L 159,275.65 Z M 159,275.65" />
        </g>
        <g id="jonnieSideRight7-group190">
            <path id="jonnieSideRight7-bezier189" stroke="none" fill="rgb(0, 0, 0)" d="M 171.88,269.02 C 172.73,268.71 173.57,268.31 174.34,267.81 175.08,267.31 175.85,266.69 176.07,265.82 176.3,264.95 175.65,264.11 175.01,263.56 174.67,263.27 174.24,263.29 173.84,263.5 173.44,263.68 173.04,263.93 172.64,264.16 171.03,265.09 169.22,265.68 167.38,265.99 165.54,266.32 163.69,266.33 161.86,266.55 158.22,266.9 154.41,267.34 150.76,266.21 148.95,265.66 147.26,264.69 145.86,263.43 144.44,262.17 143.29,260.65 142.34,259.04 141.38,257.42 140.6,255.71 139.95,253.97 139.29,252.21 138.76,250.46 138.13,248.73 136.9,245.26 135.6,241.82 134.24,238.4 131.56,231.54 128.59,224.79 125.47,218.1 L 125.56,218.05 C 129.19,224.49 132.3,231.2 135.17,238.02 136.57,241.44 137.89,244.9 139.07,248.41 139.67,250.16 140.19,251.95 140.79,253.66 141.4,255.38 142.13,257.06 143.03,258.64 143.93,260.21 145.01,261.68 146.34,262.89 147.66,264.11 149.24,265.04 150.96,265.59 154.42,266.72 158.17,266.36 161.82,266.05 163.66,265.86 165.52,265.89 167.32,265.6 169.13,265.33 170.89,264.79 172.49,263.9 172.9,263.68 173.29,263.44 173.73,263.25 173.95,263.15 174.19,263.07 174.45,263.08 174.72,263.09 174.97,263.21 175.16,263.36 175.54,263.68 175.82,264.04 176.06,264.46 176.3,264.88 176.39,265.4 176.26,265.87 175.99,266.83 175.18,267.44 174.42,267.94 173.63,268.43 172.78,268.82 171.9,269.12 L 171.88,269.02 Z M 171.88,269.02" />
        </g>
        <g id="jonnieSideRight7-group191">
            <path id="jonnieSideRight7-bezier190" stroke="none" fill="rgb(0, 0, 0)" d="M 125.47,215.44 C 125.95,212.54 126.18,209.59 125.99,206.67 125.89,205.21 125.67,203.75 125.16,202.4 125.03,202.07 124.88,201.74 124.71,201.43 124.52,201.09 124.37,200.75 124.23,200.41 123.94,199.72 123.68,199.03 123.42,198.34 121.45,192.78 119.72,187.15 117.93,181.54 116.16,175.93 114.34,170.33 112.63,164.7 111.79,161.88 110.91,159.08 110.03,156.27 109.6,154.87 109.15,153.47 108.67,152.08 108.2,150.69 107.74,149.29 107.1,147.97 L 107.18,147.92 C 108.65,150.5 109.65,153.29 110.69,156.05 111.71,158.81 112.64,161.61 113.58,164.4 115.42,170 117.02,175.66 118.7,181.31 120.39,186.94 122.02,192.6 123.9,198.17 124.13,198.86 124.38,199.56 124.64,200.24 124.78,200.57 124.92,200.91 125.08,201.22 125.26,201.56 125.4,201.91 125.53,202.26 126.03,203.68 126.22,205.17 126.29,206.65 126.42,209.61 126.11,212.56 125.56,215.45 L 125.47,215.44 Z M 125.47,215.44" />
        </g>
        <g id="jonnieSideRight7-group192">
            <path id="jonnieSideRight7-bezier191" stroke="none" fill="rgb(0, 0, 0)" d="M 110.21,139.78 C 110.4,138.42 110.32,137.01 110.42,135.63 110.5,134.24 110.63,132.86 110.81,131.48 111.01,130.11 111.06,128.73 111.12,127.34 L 111.32,123.18 C 111.47,120.41 111.55,117.63 111.82,114.86 112.14,112.09 112.61,109.33 113.46,106.66 L 113.56,106.68 C 113.34,109.46 113.11,112.21 112.85,114.96 112.56,117.71 112.22,120.47 111.99,123.23 111.73,125.99 111.54,128.77 111.07,131.52 110.86,132.89 110.7,134.26 110.6,135.64 110.47,137.03 110.53,138.41 110.31,139.8 L 110.21,139.78 Z M 110.21,139.78" />
        </g>
        <g id="jonnieSideRight7-group193">
            <path id="jonnieSideRight7-bezier192" stroke="none" fill="rgb(0, 0, 0)" d="M 106.63,146.75 C 106.46,145.86 106.37,144.95 106.33,144.04 106.31,143.59 106.21,143.12 106.32,142.68 106.42,142.23 106.57,141.79 106.9,141.37 L 107,141.38 C 107.22,141.86 107.29,142.31 107.32,142.76 107.35,143.21 107.19,143.64 107.13,144.08 106.99,144.96 106.85,145.85 106.73,146.75 L 106.63,146.75 Z M 106.63,146.75" />
        </g>
        <g id="jonnieSideRight7-group194">
            <path id="jonnieSideRight7-bezier193" stroke="none" fill="rgb(0, 0, 0)" d="M 90.71,48.62 C 92.46,49.36 94.23,50.08 96,50.75 96.89,51.09 97.81,51.32 98.66,51.7 99.53,52.06 100.36,52.47 101.27,52.78 L 101.27,52.88 C 100.26,53.12 99.26,52.89 98.33,52.65 97.39,52.39 96.55,51.91 95.69,51.49 93.96,50.64 92.29,49.71 90.66,48.71 L 90.71,48.62 Z M 90.71,48.62" />
        </g>
        <g id="jonnieSideRight7-group195">
            <path id="jonnieSideRight7-bezier194" stroke="none" fill="rgb(0, 0, 0)" d="M 111.29,74.12 C 109.35,75.44 107.42,76.77 105.53,78.14 104.59,78.83 103.71,79.6 102.75,80.24 L 101.32,81.22 C 100.88,81.57 100.35,81.87 100.06,82.34 L 99.97,82.32 C 100.03,81.66 100.47,81.16 100.85,80.7 101.24,80.25 101.69,79.84 102.14,79.45 103.04,78.67 104.08,78.1 105.09,77.48 107.09,76.24 109.15,75.1 111.24,74.03 L 111.29,74.12 Z M 111.29,74.12" />
        </g>
        <g id="jonnieSideRight7-group196">
            <path id="jonnieSideRight7-bezier195" stroke="none" fill="rgb(0, 0, 0)" d="M 72.89,86.68 C 71.98,84.64 71,82.63 69.92,80.7 69.37,79.73 68.72,78.84 68.18,77.91 67.6,76.98 67.06,76.06 66.24,75.3 L 66.29,75.21 C 67.45,75.52 68.3,76.46 69,77.34 69.71,78.25 70.15,79.32 70.63,80.34 71.57,82.39 72.34,84.5 72.98,86.65 L 72.89,86.68 Z M 72.89,86.68" />
        </g>
        <g id="jonnieSideRight7-group197">
            <path id="jonnieSideRight7-bezier196" stroke="none" fill="rgb(0, 0, 0)" d="M 69.75,138.56 C 73.11,138.08 76.5,137.8 79.9,137.72 83.28,137.67 86.76,137.88 90.06,138.69 93.35,139.26 96.74,139.33 100.1,139.47 103.48,139.63 106.86,139.64 110.25,139.74 L 110.26,139.84 C 106.89,140.31 103.49,140.45 100.08,140.47 96.68,140.46 93.27,140.17 89.9,139.47 86.62,138.57 83.29,138.28 79.9,138.22 76.52,138.16 73.13,138.32 69.76,138.66 L 69.75,138.56 Z M 69.75,138.56" />
        </g>
        <g id="jonnieSideRight7-group198">
            <path id="jonnieSideRight7-bezier197" stroke="none" fill="rgb(0, 0, 0)" d="M 37.95,258.87 C 39.23,259.27 40.5,259.71 41.76,260.2 42.38,260.44 43.04,260.61 43.62,260.98 44.18,261.35 44.76,261.74 45.16,262.38 L 45.1,262.45 C 44.42,262.3 43.79,262.12 43.17,261.88 42.54,261.65 42,261.24 41.42,260.92 40.25,260.28 39.08,259.63 37.91,258.96 L 37.95,258.87 Z M 37.95,258.87" />
        </g>
        <g id="jonnieSideRight7-group199">
            <path id="jonnieSideRight7-bezier198" stroke="none" fill="rgb(0, 0, 0)" d="M 141.11,258.46 C 139.78,259.06 138.49,259.74 137.25,260.47 136.62,260.84 136.06,261.3 135.42,261.61 134.77,261.93 134.13,262.24 133.38,262.46 L 133.32,262.38 C 133.74,261.72 134.3,261.2 134.89,260.76 135.49,260.31 136.21,260.06 136.89,259.76 138.25,259.17 139.65,258.7 141.08,258.37 L 141.11,258.46 Z M 141.11,258.46" />
        </g>
    </g>
</svg>
