<?xml version="1.0" encoding="UTF-8"?>
<!DOCTYPE svg PUBLIC "-//W3C//DTD SVG 1.1//EN" "http://www.w3.org/Graphics/SVG/1.1/DTD/svg11.dtd">
<svg version="1.1" xmlns="http://www.w3.org/2000/svg" xmlns:xlink="http://www.w3.org/1999/xlink" width="200" height="300"  xml:space="preserve" id="jonnieSideRight4">
    <!-- Generated by PaintCode - http://www.paintcodeapp.com -->
    <g id="jonnieSideRight4-group2">
        <g id="jonnieSideRight4-group31">
            <path id="jonnieSideRight4-bezier30" stroke="none" fill="rgb(0, 0, 0)" d="M 125.59,30.38 C 125.37,26.58 124.75,22.78 123.59,19.16 122.99,17.36 122.24,15.6 121.22,14.01 120.2,12.44 118.85,11.04 117.16,10.26 115.45,9.53 113.55,9.22 111.68,9.11 109.8,9 107.9,9.13 106.04,9.46 102.35,10.14 98.73,11.59 95.86,13.99 92.98,16.37 91.09,19.84 90.81,23.56 90.44,27.27 91.57,30.93 92.84,34.51 93.45,36.32 94.07,38.15 94.41,40.08 94.76,42 94.77,44.03 94.25,45.93 93.75,47.83 92.82,49.57 91.69,51.13 90.54,52.69 89.2,54.07 87.78,55.36 L 87.71,55.29 C 89.04,53.92 90.28,52.46 91.31,50.87 92.35,49.3 93.18,47.58 93.58,45.77 93.97,43.95 93.94,42.07 93.57,40.24 93.2,38.41 92.55,36.63 91.9,34.84 91.26,33.04 90.62,31.22 90.2,29.31 89.78,27.4 89.63,25.42 89.83,23.45 90.03,21.51 90.61,19.56 91.57,17.85 92.52,16.12 93.84,14.61 95.35,13.38 98.39,10.9 102.13,9.47 105.93,8.83 107.84,8.51 109.78,8.4 111.71,8.53 113.64,8.68 115.57,9.01 117.37,9.81 119.16,10.67 120.53,12.17 121.55,13.8 122.58,15.44 123.3,17.24 123.87,19.07 124.98,22.75 125.53,26.56 125.69,30.38 L 125.59,30.38 Z M 125.59,30.38" />
        </g>
        <g id="jonnieSideRight4-group32">
            <path id="jonnieSideRight4-bezier31" stroke="none" fill="rgb(0, 0, 0)" d="M 123.44,33.67 C 123.52,36.17 123.46,38.68 122.95,41.16 122.65,42.38 122.32,43.68 121.3,44.66 121.04,44.9 120.72,45.09 120.36,45.19 120.18,45.24 120,45.27 119.82,45.28 L 119.35,45.29 C 118.75,45.31 118.14,45.37 117.54,45.48 115.15,45.88 113.04,47.2 111.67,49.12 110.96,50.06 110.45,51.17 110.1,52.32 109.92,52.9 109.78,53.49 109.71,54.1 109.64,54.69 109.58,55.33 109.75,55.9 L 109.67,55.95 C 109.08,54.76 109.23,53.41 109.42,52.16 109.65,50.89 110.15,49.66 110.85,48.55 111.58,47.46 112.57,46.52 113.72,45.88 114.87,45.23 116.14,44.85 117.42,44.69 118.06,44.6 118.7,44.56 119.34,44.56 L 119.81,44.57 C 119.94,44.57 120.06,44.56 120.19,44.53 120.43,44.47 120.67,44.35 120.88,44.17 121.72,43.44 122.14,42.21 122.46,41.05 123.08,38.67 123.29,36.16 123.34,33.68 L 123.44,33.67 Z M 123.44,33.67" />
        </g>
        <g id="jonnieSideRight4-group33">
            <path id="jonnieSideRight4-bezier32" stroke="none" fill="rgb(0, 0, 0)" d="M 88.77,57.62 C 86.57,58.88 84.42,60.24 82.34,61.7 80.28,63.17 78.24,64.72 76.58,66.6 76.17,67.07 75.78,67.56 75.48,68.09 75.22,68.6 74.94,69.26 74.6,69.79 73.95,70.9 73.22,71.95 72.47,72.99 70.98,75.06 69.42,77.07 67.84,79.07 64.68,83.07 61.43,87.01 58.18,90.88 56.6,92.86 55.02,94.85 53.59,96.93 52.87,97.97 52.19,99.03 51.61,100.15 51.02,101.26 50.52,102.43 50.31,103.68 L 50.21,103.67 C 50.4,101.07 51.71,98.74 53,96.55 54.33,94.35 55.88,92.32 57.39,90.26 60.58,86.26 63.98,82.49 67.21,78.57 68.83,76.61 70.43,74.63 71.95,72.61 72.7,71.59 73.45,70.56 74.11,69.5 74.46,68.96 74.68,68.43 75.02,67.82 75.35,67.25 75.77,66.75 76.2,66.26 77.97,64.37 80.06,62.88 82.17,61.45 84.29,60.04 86.48,58.73 88.72,57.53 L 88.77,57.62 Z M 88.77,57.62" />
        </g>
        <g id="jonnieSideRight4-group34">
            <path id="jonnieSideRight4-bezier33" stroke="none" fill="rgb(0, 0, 0)" d="M 73.98,141.79 C 73.55,143.21 73.27,144.66 73.15,146.12 73.04,147.58 73.07,149.06 73.38,150.46 73.7,151.88 74.25,153.25 74.74,154.61 75.24,155.97 75.71,157.34 76.42,158.64 L 76.35,158.71 C 75.12,157.76 74.36,156.36 73.78,154.98 73.23,153.56 72.96,152.08 72.68,150.59 72.21,147.56 72.83,144.52 73.89,141.76 L 73.98,141.79 Z M 73.98,141.79" />
        </g>
        <g id="jonnieSideRight4-group35">
            <path id="jonnieSideRight4-bezier34" stroke="none" fill="rgb(0, 0, 0)" d="M 76,160.34 C 74.45,164.61 72.93,168.89 71.45,173.19 69.99,177.48 68.46,181.78 67.32,186.14 66.38,190.58 65.21,195 63.84,199.34 63.12,201.5 62.41,203.66 61.6,205.79 61.19,206.86 60.76,207.92 60.3,208.96 60.07,209.48 59.82,210 59.55,210.51 59.27,211 59.02,211.53 58.56,211.93 L 58.5,211.85 C 59.17,210.97 59.49,209.84 59.88,208.79 60.26,207.73 60.61,206.65 60.94,205.56 61.61,203.4 62.27,201.23 62.88,199.05 64.12,194.68 65.5,190.36 66.55,185.94 67.8,181.53 69.42,177.29 70.98,173.02 72.59,168.76 74.23,164.53 75.9,160.3 L 76,160.34 Z M 76,160.34" />
        </g>
        <g id="jonnieSideRight4-group36">
            <path id="jonnieSideRight4-bezier35" stroke="none" fill="rgb(0, 0, 0)" d="M 58.86,206.43 C 55.97,209.88 53.15,213.39 50.44,216.98 49.09,218.78 47.77,220.6 46.55,222.48 45.94,223.42 45.34,224.38 44.84,225.37 44.59,225.86 44.35,226.37 44.2,226.88 44.05,227.42 43.92,227.96 43.79,228.51 41.85,237.27 39.97,246.18 36.16,254.44 35.2,256.5 34.1,258.5 32.76,260.36 32.1,261.29 31.32,262.16 30.58,263 L 28.37,265.54 C 26.89,267.23 25.42,268.93 24.1,270.72 23.45,271.61 22.82,272.53 22.39,273.49 21.94,274.45 21.81,275.46 22.33,276.26 22.55,276.62 22.97,276.98 23.39,277.3 23.83,277.62 24.29,277.92 24.76,278.21 25.71,278.79 26.69,279.34 27.67,279.89 29.62,281.01 31.63,282.11 33.38,283.63 34.23,284.37 35.06,285.33 35.43,286.44 35.86,287.46 36.37,288.45 37.05,289.31 37.72,290.18 38.58,290.9 39.58,291.37 40.58,291.84 41.69,292.07 42.81,292.16 L 42.8,292.26 C 41.68,292.23 40.53,292.06 39.47,291.63 38.4,291.2 37.45,290.48 36.7,289.6 35.95,288.72 35.38,287.71 34.89,286.67 34.51,285.63 33.77,284.87 32.92,284.16 31.21,282.79 29.23,281.72 27.25,280.65 26.26,280.11 25.27,279.58 24.28,279.01 23.79,278.72 23.3,278.42 22.82,278.08 22.35,277.73 21.87,277.38 21.47,276.78 21.13,276.22 20.95,275.54 20.99,274.89 21.03,274.23 21.23,273.63 21.47,273.09 21.96,271.99 22.62,271.05 23.29,270.12 24.65,268.29 26.13,266.58 27.62,264.88 L 29.88,262.37 C 30.64,261.53 31.38,260.72 32.03,259.83 33.35,258.05 34.46,256.1 35.43,254.1 39.28,245.99 41.27,237.15 43.3,228.39 43.44,227.84 43.57,227.29 43.74,226.75 43.92,226.18 44.17,225.67 44.43,225.16 44.97,224.15 45.58,223.2 46.21,222.26 47.47,220.39 48.82,218.58 50.2,216.8 52.96,213.24 55.84,209.77 58.78,206.36 L 58.86,206.43 Z M 58.86,206.43" />
        </g>
        <g id="jonnieSideRight4-group37">
            <path id="jonnieSideRight4-bezier36" stroke="none" fill="rgb(0, 0, 0)" d="M 45.43,292.3 L 57.29,292.83 C 58.23,292.82 59.2,292.46 59.94,291.9 60.3,291.61 60.61,291.21 60.55,290.81 60.5,290.4 60.15,290.05 59.76,289.83 58.93,289.35 57.98,289.02 57.07,288.65 56.15,288.28 55.23,287.9 54.32,287.48 52.52,286.62 50.78,285.58 49.27,284.25 47.75,282.93 46.49,281.29 45.6,279.49 43.79,275.99 42.08,272.22 41.96,268.11 41.9,266.08 42.27,264.03 42.98,262.13 43.69,260.23 44.72,258.46 45.9,256.84 46.5,256.02 47.16,255.26 47.76,254.5 48.36,253.73 48.95,252.94 49.53,252.14 50.68,250.55 51.78,248.91 52.85,247.25 57.19,240.66 61.13,233.78 65.04,226.9 L 65.13,226.94 C 61.72,234.1 57.91,241.06 53.69,247.8 52.61,249.46 51.5,251.11 50.34,252.73 49.75,253.53 49.15,254.33 48.53,255.11 47.91,255.91 47.27,256.64 46.7,257.43 44.35,260.51 42.68,264.21 42.76,268.1 42.81,271.99 44.42,275.69 46.18,279.19 47.02,280.96 48.2,282.52 49.65,283.82 51.1,285.13 52.78,286.17 54.54,287.03 55.42,287.46 56.32,287.85 57.24,288.23 58.15,288.63 59.08,288.96 59.96,289.48 60.4,289.75 60.85,290.17 60.92,290.77 60.98,291.39 60.56,291.86 60.16,292.17 59.32,292.78 58.33,293.13 57.29,293.13 L 45.43,292.4 45.43,292.3 Z M 45.43,292.3" />
        </g>
        <g id="jonnieSideRight4-group38">
            <path id="jonnieSideRight4-bezier37" stroke="none" fill="rgb(0, 0, 0)" d="M 66.09,225.19 C 67.36,223.43 68.7,221.71 70.13,220.06 70.85,219.24 71.59,218.43 72.39,217.68 72.79,217.3 73.2,216.94 73.65,216.61 74.04,216.31 74.38,215.87 74.72,215.46 77.41,212.07 79.84,208.45 82.29,204.87 84.73,201.27 87.07,197.61 89.52,194.02 91.99,190.44 94.42,186.83 96.96,183.29 L 97.04,183.35 C 94.99,187.19 92.68,190.89 90.36,194.57 88.01,198.24 85.48,201.78 82.95,205.33 80.41,208.86 77.9,212.42 75.1,215.78 74.74,216.19 74.4,216.62 73.91,216.97 73.48,217.28 73.06,217.62 72.66,217.97 71.85,218.69 71.09,219.46 70.36,220.26 68.89,221.85 67.5,223.53 66.17,225.25 L 66.09,225.19 Z M 66.09,225.19" />
        </g>
        <g id="jonnieSideRight4-group42">
            <path id="jonnieSideRight4-bezier41" stroke="none" fill="rgb(0, 0, 0)" d="M 112.74,142.12 C 112.94,143.93 112.92,145.81 113.61,147.5 113.95,148.35 114.48,149.07 115.05,149.8 115.6,150.54 116.1,151.31 116.58,152.09 118.51,155.23 120.21,158.48 121.85,161.77 125.08,168.36 128.09,175.05 130.63,181.96 131.25,183.69 131.86,185.43 132.28,187.26 132.49,188.21 132.59,189.07 132.83,189.93 133.06,190.8 133.36,191.64 133.7,192.48 135.01,195.82 137.32,198.76 138.42,202.44 138.68,203.37 138.79,204.32 138.87,205.24 138.95,206.16 139,207.08 139.05,208 139.13,209.84 139.19,211.67 139.22,213.5 139.25,215.34 139.29,217.17 139.37,218.99 139.45,220.82 139.5,222.66 139.92,224.43 L 139.83,224.46 C 139.28,222.69 139.12,220.85 138.92,219.02 138.75,217.19 138.64,215.36 138.53,213.53 L 138.19,208.05 C 138.04,206.25 137.96,204.37 137.47,202.71 136.97,201.03 136.11,199.43 135.23,197.83 134.35,196.23 133.46,194.59 132.77,192.85 132.43,191.98 132.14,191.08 131.91,190.17 131.67,189.26 131.57,188.29 131.4,187.45 131.02,185.7 130.45,183.96 129.87,182.23 127.44,175.34 124.52,168.6 121.39,161.99 119.8,158.69 118.17,155.41 116.31,152.26 115.84,151.48 115.36,150.7 114.83,149.96 114.29,149.23 113.74,148.45 113.41,147.58 112.73,145.82 112.8,143.94 112.64,142.13 L 112.74,142.12 Z M 112.74,142.12" />
        </g>
        <g id="jonnieSideRight4-group43">
            <path id="jonnieSideRight4-bezier42" stroke="none" fill="rgb(0, 0, 0)" d="M 110.63,60.9 C 113.02,67.24 115.02,73.74 116.36,80.39 117.01,83.71 117.47,87.1 117.48,90.5 117.51,93.9 117.32,97.29 117.03,100.67 116.45,107.43 115.4,114.14 114.58,120.85 114.16,124.2 113.98,127.57 113.92,130.95 113.87,134.32 113.96,137.7 114.26,141.06 L 114.29,141.45 113.9,141.47 C 110.52,141.65 107.14,141.72 103.76,141.68 100.39,141.63 96.96,141.45 93.64,140.89 90.33,140.49 86.96,140.5 83.61,140.55 80.25,140.62 76.89,140.79 73.54,141.06 L 72.78,141.12 73.03,140.4 C 73.78,138.29 74.67,136.27 75.61,134.27 76.56,132.27 77.57,130.3 78.79,128.42 80,126.7 80.51,124.54 80.99,122.43 81.43,120.29 81.73,118.12 81.96,115.94 82.4,111.58 82.58,107.19 82.52,102.8 82.46,100.61 82.42,98.41 82.09,96.25 82.01,95.71 81.84,95.22 81.66,94.68 L 81.18,93.1 80.29,89.92 80.38,89.9 81.39,93.04 81.92,94.6 C 82.11,95.1 82.31,95.65 82.41,96.19 82.82,98.38 82.95,100.59 83.03,102.79 83.16,107.2 83.06,111.61 82.69,116.01 82.49,118.21 82.23,120.41 81.82,122.59 81.6,123.69 81.36,124.77 81.02,125.85 80.85,126.38 80.66,126.92 80.43,127.44 80.2,127.97 79.9,128.5 79.6,128.94 78.45,130.77 77.46,132.73 76.51,134.7 75.58,136.67 74.69,138.69 73.97,140.73 L 73.46,140.07 C 76.84,139.8 80.21,139.63 83.59,139.56 86.97,139.5 90.36,139.53 93.76,139.96 97.08,140.55 100.41,140.75 103.77,140.83 107.13,140.91 110.5,140.86 113.85,140.71 L 113.49,141.13 C 113.21,137.73 113.14,134.33 113.22,130.93 113.3,127.54 113.51,124.14 113.95,120.77 114.83,114.05 115.91,107.36 116.55,100.63 116.87,97.26 117.09,93.89 117.09,90.51 117.11,87.13 116.69,83.77 116.07,80.45 114.8,73.8 112.86,67.29 110.54,60.94 L 110.63,60.9 Z M 110.63,60.9" />
        </g>
        <g id="jonnieSideRight4-group44">
            <path id="jonnieSideRight4-bezier43" stroke="none" fill="rgb(0, 0, 0)" d="M 140.63,227.14 C 141.66,231.16 142.5,235.22 143.13,239.32 143.42,241.37 143.68,243.43 143.63,245.52 143.55,247.59 143.65,249.65 143.83,251.71 144.21,255.82 144.95,259.92 146.39,263.78 147.13,265.7 148.05,267.55 149.29,269.18 150.52,270.79 152.12,272.16 154.01,272.88 157.89,274.26 161.92,275.27 165.99,275.92 168.02,276.24 170.07,276.46 172.12,276.52 173.15,276.54 174.18,276.52 175.17,276.38 175.67,276.3 176.13,276.21 176.57,275.98 176.83,275.87 177.15,275.77 177.47,275.79 177.8,275.8 178.14,275.94 178.38,276.18 178.86,276.65 178.96,277.29 178.95,277.85 178.93,278.43 178.78,278.98 178.55,279.48 178.1,280.49 177.3,281.33 176.46,281.94 174.82,283.23 173.12,284.45 171.32,285.51 167.75,287.62 163.68,289.24 159.39,289.16 158.34,289.15 157.25,288.98 156.25,288.79 155.26,288.63 154.24,288.55 153.23,288.54 151.19,288.52 149.15,288.76 147.11,289.06 145.06,289.33 143.02,289.78 140.82,289.61 139.75,289.52 138.51,289.09 137.78,288.1 137.73,288.05 137.69,287.99 137.65,287.92 L 137.58,287.81 137.53,287.73 C 137.46,287.61 137.4,287.51 137.34,287.38 137.2,287.11 137.09,286.84 137,286.58 136.83,286.04 136.73,285.5 136.68,284.96 136.5,282.78 136.86,280.72 137.03,278.67 137.23,276.63 137.32,274.58 136.9,272.64 136.69,271.65 136.35,270.78 135.89,269.83 L 134.55,267.03 131.84,261.44 C 130.07,257.69 128.32,253.93 126.67,250.13 125.03,246.32 123.39,242.5 122.27,238.46 121.23,234.38 121.19,230.18 121.22,226.04 L 121.41,219.83 C 121.44,218.8 121.46,217.77 121.45,216.73 121.42,215.7 121.39,214.66 121.12,213.67 L 121.21,213.64 C 121.52,214.64 121.58,215.69 121.63,216.73 121.68,217.76 121.69,218.8 121.69,219.84 L 121.68,226.05 C 121.71,230.17 121.82,234.34 122.88,238.3 124.04,242.23 125.73,246.03 127.42,249.8 129.12,253.56 130.92,257.29 132.75,261 L 135.45,266.6 136.79,269.41 C 137.24,270.32 137.66,271.39 137.87,272.43 138.8,276.7 137.4,280.91 137.66,284.86 137.71,285.35 137.79,285.83 137.93,286.28 138.01,286.51 138.09,286.72 138.19,286.91 138.23,287.02 138.31,287.14 138.37,287.25 L 138.42,287.33 C 138.41,287.32 138.44,287.37 138.45,287.38 138.48,287.43 138.51,287.47 138.55,287.52 139.07,288.23 139.96,288.57 140.92,288.67 142.87,288.85 144.94,288.44 146.99,288.17 149.04,287.89 151.13,287.65 153.24,287.7 154.29,287.72 155.35,287.8 156.39,287.98 157.44,288.18 158.39,288.34 159.41,288.36 163.48,288.46 167.44,286.94 170.96,284.89 172.73,283.85 174.41,282.66 176.03,281.4 176.86,280.8 177.54,280.09 177.95,279.2 178.15,278.77 178.28,278.3 178.29,277.84 178.31,277.38 178.2,276.91 177.93,276.65 177.67,276.38 177.24,276.38 176.83,276.56 176.35,276.81 175.78,276.93 175.26,277 174.2,277.15 173.15,277.16 172.11,277.13 170.02,277.07 167.95,276.82 165.89,276.49 161.79,275.8 157.75,274.77 153.83,273.35 151.84,272.57 150.19,271.12 148.93,269.45 147.67,267.77 146.75,265.87 146.02,263.92 144.59,260 143.88,255.87 143.53,251.74 143.36,249.67 143.28,247.59 143.38,245.51 143.45,243.46 143.2,241.39 142.93,239.35 142.34,235.25 141.53,231.19 140.53,227.17 L 140.63,227.14 Z M 140.63,227.14" />
        </g>
        <g id="jonnieSideRight4-group45">
            <path id="jonnieSideRight4-bezier44" stroke="none" fill="rgb(0, 0, 0)" d="M 120.79,211.35 C 119.12,209.15 117.39,207 115.59,204.91 114.69,203.87 113.76,202.84 112.79,201.88 112.31,201.39 111.78,200.95 111.3,200.42 110.82,199.91 110.38,199.38 109.94,198.84 106.53,194.46 103.49,189.84 100.43,185.23 L 95.9,178.28 94.79,176.53 C 94.43,175.94 94.06,175.42 93.62,174.91 92.77,173.87 91.79,172.91 90.79,171.98 88.81,170.08 86.68,168.33 84.57,166.54 L 81.41,163.87 79.86,162.48 C 79.37,161.99 78.82,161.56 78.45,160.93 L 78.55,160.89 C 78.92,161.43 79.52,161.84 80.04,162.27 L 81.69,163.51 85.01,166 C 87.22,167.67 89.38,169.39 91.47,171.24 92.5,172.18 93.5,173.15 94.42,174.24 94.88,174.78 95.3,175.4 95.65,175.99 L 96.74,177.75 101.1,184.8 C 104.07,189.45 107.03,194.13 110.34,198.53 110.75,199.07 111.18,199.61 111.63,200.12 112.07,200.63 112.6,201.08 113.07,201.59 114.03,202.6 114.94,203.65 115.82,204.72 117.58,206.85 119.25,209.05 120.87,211.29 L 120.79,211.35 Z M 120.79,211.35" />
        </g>
        <g id="jonnieSideRight4-group46">
            <path id="jonnieSideRight4-bezier45" stroke="none" fill="rgb(0, 0, 0)" d="M 94.12,77.75 C 93.22,77.62 92.33,77.87 91.57,78.34 90.81,78.8 90.14,79.41 89.49,80.03 88.18,81.26 87.05,82.68 85.72,83.93 83.1,86.45 80.37,88.83 77.61,91.17 74.84,93.51 72.05,95.85 69.08,97.93 67.58,98.96 66.08,99.98 64.5,100.89 62.92,101.78 61.31,102.7 59.51,103.12 L 59.49,103.03 C 60.32,102.7 61.11,102.26 61.87,101.78 62.64,101.32 63.39,100.82 64.13,100.3 65.6,99.28 67.07,98.23 68.49,97.12 71.37,94.95 74.27,92.81 77.1,90.56 79.92,88.3 82.71,85.99 85.38,83.57 86.73,82.39 87.91,81.01 89.28,79.81 89.96,79.2 90.67,78.62 91.47,78.17 92.27,77.71 93.23,77.48 94.13,77.65 L 94.12,77.75 Z M 94.12,77.75" />
        </g>
        <g id="jonnieSideRight4-group47">
            <path id="jonnieSideRight4-bezier46" stroke="none" fill="rgb(0, 0, 0)" d="M 59.55,104.59 C 58.57,107.12 57.53,109.62 56.42,112.09 55.3,114.56 54.16,117.02 52.72,119.35 52.35,119.92 51.96,120.49 51.48,121.01 51.01,121.5 50.57,122 50.14,122.52 49.27,123.54 48.43,124.6 47.62,125.68 46.01,127.84 44.5,130.08 43.17,132.41 41.87,134.74 40.66,137.2 40.22,139.76 40.11,140.37 40.11,141.05 40.04,141.74 39.98,142.43 39.91,143.11 39.82,143.78 39.63,145.13 39.41,146.47 39.17,147.81 38.65,150.48 38.07,153.12 37.51,155.77 37.37,156.43 37.23,157.09 37.12,157.75 37.07,158.08 37.02,158.39 37.01,158.73 36.99,159.08 36.91,159.47 36.76,159.79 36.46,160.46 35.94,161 35.31,161.34 35,161.5 34.64,161.62 34.27,161.58 33.89,161.55 33.57,161.26 33.46,160.93 L 33.55,160.89 C 33.69,161.19 33.97,161.38 34.28,161.37 34.59,161.38 34.9,161.26 35.17,161.09 35.71,160.74 36.13,160.21 36.33,159.62 36.44,159.32 36.49,159.03 36.49,158.71 36.48,158.36 36.51,158.01 36.55,157.67 36.62,156.98 36.72,156.31 36.82,155.64 L 38.18,147.64 C 38.41,146.31 38.62,144.98 38.79,143.65 38.88,142.98 38.96,142.32 39.03,141.65 39.11,141 39.11,140.32 39.24,139.59 39.79,136.81 41.1,134.36 42.47,132.01 43.87,129.66 45.44,127.44 47.1,125.29 47.94,124.22 48.8,123.16 49.7,122.14 50.15,121.63 50.61,121.13 51.09,120.64 51.54,120.18 51.93,119.63 52.3,119.08 53.77,116.83 54.98,114.4 56.15,111.97 57.31,109.53 58.41,107.05 59.45,104.56 L 59.55,104.59 Z M 59.55,104.59" />
        </g>
        <g id="jonnieSideRight4-group48">
            <path id="jonnieSideRight4-bezier47" stroke="none" fill="rgb(0, 0, 0)" d="M 35.78,151.24 C 34.2,152.28 32.75,153.54 31.56,155.01 30.4,156.47 29.49,158.24 29.52,160.12 29.53,161.07 29.52,162.03 29.45,162.99 29.35,163.93 29.3,164.92 28.77,165.83 28.63,166.05 28.41,166.26 28.12,166.35 27.83,166.43 27.53,166.38 27.29,166.28 26.79,166.09 26.41,165.76 26.05,165.45 25.32,164.8 24.68,164.09 24.07,163.35 22.86,161.85 21.81,160.22 21.05,158.44 20.31,156.68 19.82,154.65 20.36,152.69 20.91,150.78 21.93,149.13 22.94,147.51 23.97,145.89 25.06,144.34 26.15,142.78 28.3,139.66 30.55,136.56 32.04,133.15 33.46,129.62 35.09,126.17 36.74,122.74 38.43,119.33 40.15,115.93 41.98,112.6 42.91,110.93 43.84,109.27 44.84,107.65 45.34,106.84 45.86,106.03 46.4,105.25 46.95,104.47 47.5,103.68 48.22,103.03 L 48.28,103.11 C 47.62,103.78 47.13,104.6 46.63,105.4 46.14,106.21 45.68,107.04 45.23,107.87 44.32,109.54 43.45,111.22 42.6,112.92 40.9,116.31 39.23,119.73 37.64,123.17 36.03,126.61 34.42,130.04 32.94,133.54 31.32,137.09 29.01,140.15 26.8,143.24 25.69,144.78 24.58,146.32 23.55,147.9 22.53,149.48 21.51,151.11 20.98,152.85 20.48,154.6 20.89,156.51 21.58,158.22 22.29,159.95 23.3,161.55 24.46,163.03 25.04,163.77 25.66,164.48 26.35,165.11 26.69,165.42 27.05,165.72 27.44,165.88 27.84,166.06 28.21,165.97 28.44,165.6 28.9,164.87 29,163.87 29.1,162.95 29.19,162.02 29.21,161.07 29.22,160.12 29.22,158.15 30.2,156.34 31.41,154.88 32.64,153.41 34.11,152.17 35.72,151.15 L 35.78,151.24 Z M 35.78,151.24" />
        </g>
        <g id="jonnieSideRight4-group49">
            <path id="jonnieSideRight4-bezier48" stroke="none" fill="rgb(0, 0, 0)" d="M 119.52,98.52 C 123.43,99.75 127.31,101.11 131.09,102.77 134.75,104.63 138.65,105.85 142.6,106.92 144.58,107.43 146.57,107.89 148.57,108.24 150.57,108.59 152.6,108.92 154.57,108.92 155.08,108.92 155.52,108.88 156.04,108.81 L 157.58,108.62 C 158.61,108.51 159.64,108.41 160.67,108.37 161.7,108.33 162.74,108.32 163.78,108.39 164.3,108.43 164.82,108.49 165.33,108.61 165.81,108.74 166.43,108.86 166.67,109.4 L 166.58,109.44 C 166.32,109.03 165.75,108.96 165.28,108.89 164.78,108.83 164.27,108.83 163.77,108.84 162.75,108.86 161.74,108.95 160.73,109.07 159.71,109.2 158.7,109.32 157.7,109.48 L 156.19,109.73 C 155.7,109.82 155.12,109.9 154.6,109.92 152.47,109.96 150.41,109.62 148.38,109.22 146.36,108.79 144.36,108.27 142.38,107.69 138.45,106.52 134.5,105.18 130.88,103.23 127.19,101.46 123.35,99.98 119.48,98.62 L 119.52,98.52 Z M 119.52,98.52" />
        </g>
        <g id="jonnieSideRight4-group50">
            <path id="jonnieSideRight4-bezier49" stroke="none" fill="rgb(0, 0, 0)" d="M 117.51,112.53 C 121.69,113.59 125.91,114.47 130.17,115.04 132.3,115.32 134.44,115.53 136.57,115.5 138.73,115.44 140.91,115.44 143.07,115.61 145.24,115.78 147.42,116.14 149.52,116.82 150.57,117.16 151.59,117.57 152.58,118.07 153.57,118.58 154.47,119.12 155.43,119.57 157.33,120.52 159.32,121.29 161.38,121.82 162.4,122.09 163.45,122.27 164.51,122.31 165.56,122.36 166.63,122.24 167.6,121.78 L 167.65,121.87 C 166.73,122.48 165.6,122.7 164.51,122.76 163.41,122.82 162.31,122.7 161.23,122.5 159.07,122.1 157,121.36 155,120.47 154,120.02 153.04,119.46 152.11,119 151.17,118.52 150.2,118.1 149.21,117.75 147.22,117.05 145.12,116.64 143,116.41 140.88,116.19 138.74,116.14 136.58,116.15 134.39,116.13 132.24,115.87 130.1,115.54 125.83,114.83 121.63,113.82 117.49,112.62 L 117.51,112.53 Z M 117.51,112.53" />
        </g>
        <g id="jonnieSideRight4-group51">
            <path id="jonnieSideRight4-bezier50" stroke="none" fill="rgb(0, 0, 0)" d="M 164.61,112.52 C 165.68,112.22 166.77,112.01 167.91,112.01 168.47,112.03 169.06,112.1 169.63,112.39 169.91,112.53 170.18,112.74 170.37,113.03 170.56,113.31 170.65,113.68 170.7,113.94 170.88,115.12 170.85,116.27 170.57,117.36 170.29,118.45 169.9,119.5 169.3,120.46 L 169.2,120.43 C 169.28,119.31 169.45,118.24 169.59,117.18 169.71,116.12 169.98,115.06 169.91,114.06 169.88,113.54 169.72,113.22 169.31,112.95 168.91,112.7 168.39,112.57 167.87,112.51 166.82,112.38 165.71,112.45 164.64,112.62 L 164.61,112.52 Z M 164.61,112.52" />
        </g>
        <g id="jonnieSideRight4-group52">
            <path id="jonnieSideRight4-bezier51" stroke="none" fill="rgb(0, 0, 0)" d="M 163.08,119.31 C 163.24,118.27 163.33,117.22 163.32,116.21 163.3,115.7 163.17,115.21 163.17,114.74 163.16,114.25 163.15,113.8 163.08,113.23 L 163.16,113.17 C 163.71,113.45 164.02,114.04 164.16,114.59 164.32,115.15 164.19,115.72 164.11,116.26 163.94,117.34 163.61,118.37 163.17,119.34 L 163.08,119.31 Z M 163.08,119.31" />
        </g>
        <g id="jonnieSideRight4-group207">
            <path id="jonnieSideRight4-bezier206" stroke="none" fill="rgb(0, 0, 0)" d="M 34.36,259.54 L 38.22,261.34 C 38.87,261.64 39.55,261.85 40.15,262.22 40.76,262.57 41.31,262.98 41.92,263.37 L 41.91,263.47 C 41.12,263.6 40.39,263.36 39.71,263.12 39.03,262.87 38.45,262.42 37.84,262.05 36.63,261.29 35.45,260.48 34.31,259.63 L 34.36,259.54 Z M 34.36,259.54" />
        </g>
        <g id="jonnieSideRight4-group208">
            <path id="jonnieSideRight4-bezier207" stroke="none" fill="rgb(0, 0, 0)" d="M 137.35,269.2 C 138.76,268.41 140.2,267.66 141.68,266.99 142.41,266.65 143.13,266.24 143.93,266.05 144.72,265.88 145.58,265.68 146.44,265.95 L 146.43,266.05 C 145.68,266.33 144.99,266.7 144.25,267 143.52,267.32 142.73,267.48 141.97,267.73 140.45,268.24 138.92,268.76 137.39,269.29 L 137.35,269.2 Z M 137.35,269.2" />
        </g>
        <g id="jonnieSideRight4-group215">
            <path id="jonnieSideRight4-bezier214" stroke="none" fill="rgb(0, 0, 0)" d="M 89.25,55.88 C 90.98,55.91 92.71,56.03 94.44,56.29 95.3,56.43 96.15,56.6 97,56.88 97.43,57.01 97.86,57.24 98.22,57.41 98.58,57.56 98.99,57.69 99.39,57.81 101.02,58.26 102.73,58.47 104.4,58.79 106.08,59.05 107.77,59.47 109.46,59.45 L 109.49,59.55 C 108.64,59.9 107.75,59.89 106.87,59.92 106,59.93 105.12,59.86 104.26,59.77 102.52,59.58 100.82,59.14 99.15,58.57 98.73,58.42 98.33,58.27 97.9,58.05 97.5,57.84 97.17,57.64 96.78,57.49 96,57.18 95.18,56.96 94.34,56.78 92.67,56.4 90.96,56.15 89.25,55.97 L 89.25,55.88 Z M 89.25,55.88" />
        </g>
        <g id="jonnieSideRight4-group218">
            <path id="jonnieSideRight4-bezier217" stroke="none" fill="rgb(0, 0, 0)" d="M 71.21,76.05 C 72.72,77.88 74.32,79.63 76,81.29 76.84,82.11 77.76,82.84 78.59,83.65 79.44,84.46 80.28,85.24 81.19,86.04 L 81.14,86.13 C 79.96,85.81 78.9,85.14 77.94,84.41 76.98,83.67 76.21,82.73 75.42,81.83 73.84,80.03 72.42,78.11 71.13,76.11 L 71.21,76.05 Z M 71.21,76.05" />
        </g>
    </g>
</svg>
