# --------------------Vectorworks 2016 ------------------- #

mtllib MillikanRadiationSource.mtl

o Design Layer-1
v -376.016 95.4047 330.989
v -362.072 89.8776 330.989
v -364.091 84.7829 355
v -378.036 90.31 355
v -370.358 109.68 311.734
v -356.414 104.153 311.734
v -362.182 130.308 301.048
v -348.238 124.781 301.048
v -353.108 153.203 301.048
v -339.163 147.676 301.048
v -344.931 173.831 311.734
v -330.987 168.304 311.734
v -339.273 188.106 330.989
v -325.329 182.579 330.989
v -337.254 193.201 355
v -323.309 187.674 355
v -339.273 188.106 379.011
v -325.329 182.579 379.011
v -344.931 173.831 398.266
v -330.987 168.304 398.266
v -353.108 153.203 408.952
v -339.163 147.676 408.952
v -362.182 130.308 408.952
v -348.238 124.781 408.952
v -370.358 109.68 398.266
v -356.414 104.153 398.266
v -376.016 95.4047 379.011
v -362.072 89.8776 379.011
v -348.292 124.643 382.289
v -342.127 140.197 325.305
v -343.7 136.228 325
v -342.127 140.197 384.695
v -336.461 154.492 377.672
v -353 112.767 371.219
v -348.292 124.643 327.711
v -353 112.767 338.781
v -336.461 154.492 332.328
v -354.754 108.339 355
v -333.094 162.988 363.452
v -333.094 162.988 346.548
v -357.645 141.755 395
v -365.014 123.163 389.641
v -370.409 109.552 375
v -344.881 173.959 375
v -350.276 160.348 389.641
v -344.881 173.959 335
v -342.906 178.941 355
v -357.645 141.755 315
v -350.276 160.348 320.359
v -370.409 109.552 335
v -365.014 123.163 320.359
v -372.384 104.57 355
v -466.03 147.452 335
v -468.005 142.47 355
v -460.635 161.063 320.359
v -453.266 179.656 315
v -445.896 198.248 320.359
v -440.502 211.859 335
v -438.527 216.841 355
v -440.502 211.859 375
v -445.896 198.248 389.641
v -453.266 179.656 395
v -460.635 161.063 389.641
v -466.03 147.452 375
v -457.858 168.07 327.711
v -453.266 179.656 325
v -442.659 206.415 346.548
v -442.659 206.415 363.452
v -451.693 183.625 325.305
v -446.027 197.919 377.672
v -446.027 197.919 332.328
v -462.565 156.194 338.781
v -457.858 168.07 382.289
v -462.565 156.194 371.219
v -464.32 151.766 355
v -451.693 183.625 384.695
vn -0.331992 -0.837605 -0.434
vn -0.36847 -0.92964 0
vn -0.229557 -0.579165 -0.782
vn -0.0821689 -0.20731 -0.975
vn 0.0821689 0.20731 -0.975
vn 0.229557 0.579165 -0.782
vn 0.331992 0.837605 -0.434
vn 0.36847 0.92964 0
vn 0.331992 0.837605 0.434
vn 0.229557 0.579165 0.782
vn 0.0821689 0.20731 0.975
vn -0.0821689 -0.20731 0.975
vn -0.229557 -0.579165 0.782
vn -0.331992 -0.837605 0.434
vn 0.92964 -0.36847 0
vn -0.92964 0.36847 0
vn -0.319095 -0.805068 -0.5
vn -0.184235 -0.46482 -0.866
vn 0 0 -1
vn 0.184235 0.46482 -0.866
vn 0.319095 0.805068 -0.5
vn 0.319095 0.805068 0.5
vn 0.184235 0.46482 0.866
vn 0 0 1
vn -0.184235 -0.46482 0.866
vn -0.319095 -0.805068 0.5
vn -0.0523228 -0.132009 0.99
vn 0.309883 0.781827 -0.541
vn 0.152915 0.3858 -0.91
vn -0.0523228 -0.132009 -0.99
vn -0.241348 -0.608914 -0.756
vn -0.353363 -0.891524 -0.282
vn -0.353363 -0.891524 0.282
vn -0.241348 -0.608914 0.756
vn 0.152915 0.3858 0.91
vn 0.309883 0.781827 0.541
vn 0.331992 0.837605 0.434
vn 0.36847 0.92964 -0
vn 0.229557 0.579165 0.782
vn 0.0821689 0.20731 0.975
vn -0.0821689 -0.20731 0.975
vn -0.229557 -0.579165 0.782
vn -0.331992 -0.837605 0.434
vn -0.36847 -0.92964 -0
vn -0.331992 -0.837605 -0.434
vn -0.229557 -0.579165 -0.782
vn -0.0821689 -0.20731 -0.975
vn 0.0821689 0.20731 -0.975
vn 0.229557 0.579165 -0.782
vn 0.331992 0.837605 -0.434
vn -0.92964 0.36847 -0
vn 0.92964 -0.36847 -0
vn 0.319095 0.805068 0.5
vn 0.184235 0.46482 0.866
vn -0 -0 1
vn -0.184235 -0.46482 0.866
vn -0.319095 -0.805068 0.5
vn -0.319095 -0.805068 -0.5
vn -0.184235 -0.46482 -0.866
vn -0 -0 -1
vn 0.184235 0.46482 -0.866
vn 0.319095 0.805068 -0.5
vn 0.0523228 0.132009 -0.99
vn -0.309883 -0.781827 0.541
vn -0.152915 -0.3858 0.91
vn 0.0523228 0.132009 0.99
vn 0.241348 0.608914 0.756
vn 0.353363 0.891524 0.282
vn 0.353363 0.891524 -0.282
vn 0.241348 0.608914 -0.756
vn -0.152915 -0.3858 -0.91
vn -0.309883 -0.781827 -0.541
usemtl Material_1
f 1//1 2//1 3//2
f 1//37 3//38 2//37
f 1//1 3//2 4//2
f 1//37 4//38 3//38
f 5//3 6//3 2//1
f 5//39 2//37 6//39
f 5//3 2//1 1//1
f 5//39 1//37 2//37
f 7//4 8//4 6//3
f 7//40 6//39 8//40
f 7//4 6//3 5//3
f 7//40 5//39 6//39
f 9//5 10//5 8//4
f 9//41 8//40 10//41
f 9//5 8//4 7//4
f 9//41 7//40 8//40
f 11//6 12//6 10//5
f 11//42 10//41 12//42
f 11//6 10//5 9//5
f 11//42 9//41 10//41
f 13//7 14//7 12//6
f 13//43 12//42 14//43
f 13//7 12//6 11//6
f 13//43 11//42 12//42
f 15//8 16//8 14//7
f 15//44 14//43 16//44
f 15//8 14//7 13//7
f 15//44 13//43 14//43
f 17//9 18//9 16//8
f 17//45 16//44 18//45
f 17//9 16//8 15//8
f 17//45 15//44 16//44
f 19//10 20//10 18//9
f 19//46 18//45 20//46
f 19//10 18//9 17//9
f 19//46 17//45 18//45
f 21//11 22//11 20//10
f 21//47 20//46 22//47
f 21//11 20//10 19//10
f 21//47 19//46 20//46
f 23//12 24//12 22//11
f 23//48 22//47 24//48
f 23//12 22//11 21//11
f 23//48 21//47 22//47
f 25//13 26//13 24//12
f 25//49 24//48 26//49
f 25//13 24//12 23//12
f 25//49 23//48 24//48
f 27//14 28//14 26//13
f 27//50 26//49 28//50
f 27//14 26//13 25//13
f 27//50 25//49 26//49
f 4//2 3//2 28//14
f 4//38 28//50 3//38
f 4//2 28//14 27//14
f 4//38 27//50 28//50
f 29//15 24//15 26//15
f 29//51 26//51 24//51
f 8//15 10//15 30//15
f 8//51 30//51 10//51
f 8//15 30//15 31//15
f 8//51 31//51 30//51
f 20//15 22//15 32//15
f 20//51 32//51 22//51
f 20//15 32//15 33//15
f 20//51 33//51 32//51
f 26//15 28//15 34//15
f 26//51 34//51 28//51
f 26//15 34//15 29//15
f 26//51 29//51 34//51
f 35//15 36//15 2//15
f 35//51 2//51 36//51
f 35//15 2//15 6//15
f 35//51 6//51 2//51
f 10//15 12//15 37//15
f 10//51 37//51 12//51
f 10//15 37//15 30//15
f 10//51 30//51 37//51
f 29//15 32//15 22//15
f 29//51 22//51 32//51
f 29//15 22//15 24//15
f 29//51 24//51 22//51
f 31//15 35//15 8//15
f 31//51 8//51 35//51
f 28//15 3//15 38//15
f 28//51 38//51 3//51
f 28//15 38//15 34//15
f 28//51 34//51 38//51
f 6//15 8//15 35//15
f 6//51 35//51 8//51
f 39//15 40//15 14//15
f 39//51 14//51 40//51
f 39//15 14//15 16//15
f 39//51 16//51 14//51
f 36//15 38//15 3//15
f 36//51 3//51 38//51
f 36//15 3//15 2//15
f 36//51 2//51 3//51
f 16//15 18//15 39//15
f 16//51 39//51 18//51
f 40//15 37//15 12//15
f 40//51 12//51 37//51
f 40//15 12//15 14//15
f 40//51 14//51 12//51
f 33//15 39//15 18//15
f 33//51 18//51 39//51
f 33//15 18//15 20//15
f 33//51 20//51 18//51
f 41//16 23//16 21//16
f 41//52 21//52 23//52
f 27//16 25//16 42//16
f 27//52 42//52 25//52
f 27//16 42//16 43//16
f 27//52 43//52 42//52
f 19//16 17//16 44//16
f 19//52 44//52 17//52
f 19//16 44//16 45//16
f 19//52 45//52 44//52
f 15//16 13//16 46//16
f 15//52 46//52 13//52
f 15//16 46//16 47//16
f 15//52 47//52 46//52
f 25//16 23//16 41//16
f 25//52 41//52 23//52
f 25//16 41//16 42//16
f 25//52 42//52 41//52
f 47//16 44//16 17//16
f 47//52 17//52 44//52
f 47//16 17//16 15//16
f 47//52 15//52 17//52
f 48//16 9//16 7//16
f 48//52 7//52 9//52
f 21//16 19//16 45//16
f 21//52 45//52 19//52
f 21//16 45//16 41//16
f 21//52 41//52 45//52
f 11//16 9//16 48//16
f 11//52 48//52 9//52
f 11//16 48//16 49//16
f 11//52 49//52 48//52
f 5//16 1//16 50//16
f 5//52 50//52 1//52
f 5//16 50//16 51//16
f 5//52 51//52 50//52
f 49//16 46//16 13//16
f 49//52 13//52 46//52
f 49//16 13//16 11//16
f 49//52 11//52 13//52
f 1//16 4//16 52//16
f 1//52 52//52 4//52
f 1//16 52//16 50//16
f 1//52 50//52 52//52
f 7//16 5//16 51//16
f 7//52 51//52 5//52
f 7//16 51//16 48//16
f 7//52 48//52 51//52
f 43//16 52//16 4//16
f 43//52 4//52 52//52
f 43//16 4//16 27//16
f 43//52 27//52 4//52
f 53//17 50//17 52//2
f 53//53 52//38 50//53
f 53//17 52//2 54//2
f 53//53 54//38 52//38
f 55//18 51//18 50//17
f 55//54 50//53 51//54
f 55//18 50//17 53//17
f 55//54 53//53 50//53
f 56//19 48//19 51//18
f 56//55 51//54 48//55
f 56//19 51//18 55//18
f 56//55 55//54 51//54
f 57//20 49//20 48//19
f 57//56 48//55 49//56
f 57//20 48//19 56//19
f 57//56 56//55 48//55
f 58//21 46//21 49//20
f 58//57 49//56 46//57
f 58//21 49//20 57//20
f 58//57 57//56 49//56
f 59//8 47//8 46//21
f 59//44 46//57 47//44
f 59//8 46//21 58//21
f 59//44 58//57 46//57
f 60//22 44//22 47//8
f 60//58 47//44 44//58
f 60//22 47//8 59//8
f 60//58 59//44 47//44
f 61//23 45//23 44//22
f 61//59 44//58 45//59
f 61//23 44//22 60//22
f 61//59 60//58 44//58
f 62//24 41//24 45//23
f 62//60 45//59 41//60
f 62//24 45//23 61//23
f 62//60 61//59 45//59
f 63//25 42//25 41//24
f 63//61 41//60 42//61
f 63//25 41//24 62//24
f 63//61 62//60 41//60
f 64//26 43//26 42//25
f 64//62 42//61 43//62
f 64//26 42//25 63//25
f 64//62 63//61 42//61
f 54//2 52//2 43//26
f 54//38 43//62 52//38
f 54//2 43//26 64//26
f 54//38 64//62 43//62
f 56//16 55//16 65//16
f 56//52 65//52 55//52
f 56//16 65//16 66//16
f 56//52 66//52 65//52
f 59//16 58//16 67//16
f 59//52 67//52 58//52
f 59//16 67//16 68//16
f 59//52 68//52 67//52
f 66//16 69//16 56//16
f 66//52 56//52 69//52
f 61//16 60//16 68//16
f 61//52 68//52 60//52
f 61//16 68//16 70//16
f 61//52 70//52 68//52
f 58//16 57//16 71//16
f 58//52 71//52 57//52
f 58//16 71//16 67//16
f 58//52 67//52 71//52
f 55//16 53//16 72//16
f 55//52 72//52 53//52
f 55//16 72//16 65//16
f 55//52 65//52 72//52
f 64//16 63//16 73//16
f 64//52 73//52 63//52
f 64//16 73//16 74//16
f 64//52 74//52 73//52
f 68//16 60//16 59//16
f 68//52 59//52 60//52
f 53//16 54//16 75//16
f 53//52 75//52 54//52
f 53//16 75//16 72//16
f 53//52 72//52 75//52
f 63//16 62//16 76//16
f 63//52 76//52 62//52
f 63//16 76//16 73//16
f 63//52 73//52 76//52
f 69//16 71//16 57//16
f 69//52 57//52 71//52
f 69//16 57//16 56//16
f 69//52 56//52 57//52
f 70//16 76//16 62//16
f 70//52 62//52 76//52
f 70//16 62//16 61//16
f 70//52 61//52 62//52
f 74//16 75//16 54//16
f 74//52 54//52 75//52
f 74//16 54//16 64//16
f 74//52 64//52 54//52
f 31//24 30//27 69//27
f 31//60 69//63 30//63
f 31//24 69//27 66//24
f 31//60 66//60 69//63
f 74//28 34//28 38//8
f 74//64 38//44 34//64
f 74//28 38//8 75//8
f 74//64 75//44 38//44
f 73//29 29//29 34//28
f 73//65 34//64 29//65
f 73//29 34//28 74//28
f 73//65 74//64 34//64
f 76//30 32//30 29//29
f 76//66 29//65 32//66
f 76//30 29//29 73//29
f 76//66 73//65 29//65
f 70//31 33//31 32//30
f 70//67 32//66 33//67
f 70//31 32//30 76//30
f 70//67 76//66 32//66
f 68//32 39//32 33//31
f 68//68 33//67 39//68
f 68//32 33//31 70//31
f 68//68 70//67 33//67
f 67//33 40//33 39//32
f 67//69 39//68 40//69
f 67//33 39//32 68//32
f 67//69 68//68 39//68
f 71//34 37//34 40//33
f 71//70 40//69 37//70
f 71//34 40//33 67//33
f 71//70 67//69 40//69
f 69//27 30//27 37//34
f 69//63 37//70 30//63
f 69//27 37//34 71//34
f 69//63 71//70 37//70
f 66//24 65//35 35//35
f 66//60 35//71 65//71
f 66//24 35//35 31//24
f 66//60 31//60 35//71
f 72//36 36//36 35//35
f 72//72 35//71 36//72
f 72//36 35//35 65//35
f 72//72 65//71 35//71
f 75//8 38//8 36//36
f 75//44 36//72 38//44
f 75//8 36//36 72//36
f 75//44 72//72 36//72
