# --------------------Vectorworks 2016 ------------------- #

mtllib MotorCoil1R1.mtl

o Design Layer-1
v 0 50 2.70014
v 0 50.579 2.01006
v 0 50.8871 2.54371
v 0 50.8826 2.56949
v 0 50.7801 3.15056
v 0 50.6051 3.2974
v 0 50.3081 3.54665
v 0 49.8682 3.54665
v 0 49.6919 3.54665
v 0 49.2199 3.15056
v 0 49.2099 3.0943
v 0 49.1129 2.54371
v 0 49.2505 2.30535
v 0 49.421 2.01006
v 0 49.8198 1.86491
v 0 50 1.79931
v 0 50.3807 1.93787
v -1.17349 50.3975 1.48355
v -1.11615 50 1.41106
v -1.62651 50 0.80604
v -1.35295 50.7362 1.71042
v -1.71006 50.3975 0.8415
v -1.59489 50.8915 2.01629
v -1.97158 50.7362 0.95251
v -1.85662 50.8519 2.34718
v -2.32415 50.8915 1.10217
v -2.06959 50.6378 2.61642
v -2.70555 50.8519 1.26407
v -2.20374 50.2913 2.78601
v -3.01591 50.6378 1.39581
v -2.22775 49.8682 2.81636
v -3.21139 50.2913 1.47879
v -3.24638 49.8682 1.49364
v -3.09228 49.4595 1.42823
v -2.122 49.4595 2.68268
v -2.80007 49.1916 1.30419
v -1.92148 49.1916 2.42917
v -2.44083 49.0992 1.1517
v -1.67496 49.0992 2.11752
v -2.05967 49.2039 0.9899
v -1.4134 49.2039 1.78685
v -1.79028 49.4582 0.87555
v -1.22854 49.4582 1.55314
v -1.64606 49.8038 0.81434
v -1.12957 49.8038 1.42803
v -0.55257 50.3975 1.80855
v -0.63707 50.7362 2.08513
v -0.751 50.8915 2.45801
v -0.97452 50.6378 3.18961
v -1.03769 50.2913 3.39635
v -1.049 49.8682 3.43335
v -0.9992 49.4595 3.27038
v -0.90478 49.1916 2.96134
v -0.7887 49.0992 2.58141
v -0.66554 49.2039 2.1783
v -0.57849 49.4582 1.89339
v -0.53189 49.8038 1.74087
v -0.52557 50 1.72019
v -2.93828 50.8025 0.26492
v -3.23822 50.6714 0.60055
v -3.28859 50.5639 0.66537
v -3.41976 50.2839 0.83414
v -3.4509 50.2174 0.8742
v -3.44761 50.0006 0.86982
v -3.44377 49.7475 0.86471
v -3.31064 49.4716 0.6934
v -3.29234 49.4337 0.66985
v -3.2456 49.3369 0.60971
v -2.82875 49.1507 0.14255
v -2.71354 49.0993 0.01345
v -3.02957 49.2404 0.36761
v -2.68673 49.0993 -0.01343
v -2.60602 49.1041 -0.0942
v -2.70014 49.0992 0
v -2.32062 49.2623 -0.37965
v -2.28461 49.2822 -0.41567
v -1.99077 49.445 -0.70957
v -1.88224 49.7037 -0.81808
v -1.83833 49.8084 -0.86198
v -1.87938 50.2957 -0.82094
v -1.92414 50.3867 -0.77619
v -1.80713 49.8828 -0.89318
v -1.8145 50.1639 -0.8858
v -2.02992 50.6017 -0.67043
v -2.28034 50.7157 -0.41994
v -2.58734 50.8555 -0.11284
v -2.82941 50.8501 0.1431
v -2.70014 50.9008 0
v -2.71354 50.9007 0.01345
v -2.68673 50.9007 -0.01343
v -0.87424 50.8519 2.86138
v -61.1858 50.8608 0.14942
v -61.1051 50.7801 0.45042
v -60.8691 50.5441 0.64846
v -60.6331 50.3081 0.84651
v -60.325 50 0.84651
v -60.0169 49.6919 0.84651
v -59.7809 49.4559 0.64846
v -59.4378 49.1129 0.15643
v -59.5449 49.2199 0.45042
v -59.4378 49.1129 -0.15643
v -2.50368 49.1261 -0.21858
v -59.7809 49.4559 -0.64846
v -59.5449 49.2199 -0.45042
v -60.0169 49.6919 -0.84651
v -60.325 50 -0.84651
v -60.6331 50.3081 -0.84651
v -60.8691 50.5441 -0.64846
v -61.1051 50.7801 -0.45042
v -61.1858 50.8608 -0.14942
v -61.2258 50.9008 0
v -60.8828 -50.5578 -0.65539
v -61.0151 -50.6901 -0.57904
v -60.4814 -50.1564 -0.88715
v -60.3367 -50.0117 -0.84837
v -59.8907 -49.5657 -0.72886
v -59.746 -49.421 -0.69008
v -59.4785 -49.1535 -0.3081
v -59.4378 -49.1128 -0.15643
v -59.5449 -49.2199 0.45042
v -59.498 -49.173 0.30192
v -59.4276 -49.1026 0.07851
v -60.0169 -49.6919 0.84651
v -59.9 -49.575 0.74845
v -60.6331 -50.3081 0.84651
v -60.4802 -50.1552 0.84651
v -61.1051 -50.7801 0.45042
v -60.9883 -50.6633 0.54848
v -61.2122 -50.8872 -0.15643
v -61.2258 -50.9008 0
v -3.74026 -50.9008 0
v -3.74026 -50.1564 -0.88715
v -3.74026 -50.6901 -0.57904
v -3.74026 -49.5496 -0.78014
v -3.74026 -50 -0.90083
v -3.74026 -49.1535 -0.3081
v -3.74026 -49.1535 0.3081
v -3.74026 -49.5496 0.78014
v -3.74026 -50.1564 0.88715
v -3.74026 -50.6901 0.57904
v -3.74026 -50 0
vn 1 0 0
vn 0.556 0.441 -0.705
vn 0.619 0 -0.785
vn 0.889 0 -0.457
vn 0.357 0.817 -0.452
vn 0.803 0.434 -0.408
vn 0.089 0.99 -0.113
vn 0.524 0.812 -0.257
vn -0.201 0.946 0.255
vn 0.132 0.989 -0.063
vn -0.437 0.708 0.555
vn -0.3 0.944 0.139
vn -0.586 0.323 0.743
vn -0.648 0.701 0.296
vn -0.613 -0.146 0.777
vn -0.864 0.318 0.391
vn -0.902 -0.144 0.408
vn -0.733 -0.593 0.333
vn -0.495 -0.6 0.628
vn -0.407 -0.894 0.187
vn -0.273 -0.897 0.346
vn 0 -1 0
vn 0.427 -0.88 -0.208
vn 0.29 -0.884 -0.368
vn 0.719 -0.594 -0.361
vn 0.495 -0.601 -0.627
vn 0.869 -0.214 -0.446
vn 0.604 -0.218 -0.766
vn 0.263 0.441 -0.858
vn 0 0.441 -0.897
vn 0 0 -1
vn 0.169 0.817 -0.551
vn 0 0.643 -0.766
vn 0 0.985 -0.174
vn 0.042 0.99 -0.137
vn 0 0.99 -0.143
vn 0 0.866 0.5
vn -0.207 0.708 0.675
vn 0 0.708 0.706
vn -0.277 0.323 0.905
vn 0 0.342 0.94
vn 0 -0.146 0.989
vn -0.29 -0.146 0.946
vn -0.235 -0.6 0.765
vn 0 -0.342 0.94
vn -0.129 -0.897 0.422
vn 0 -0.866 0.5
vn 0 -0.897 0.441
vn 0.137 -0.884 -0.448
vn 0 -0.884 -0.468
vn 0.234 -0.601 -0.764
vn 0 -0.643 -0.766
vn 0.286 -0.218 -0.933
vn 0.293 0 -0.956
vn -0.325 0.945 0.029
vn -0.658 0.742 0.132
vn -0.749 0.642 0.164
vn -0.918 0.319 0.237
vn -0.938 0.238 0.253
vn -0.966 0.001 0.26
vn -0.928 -0.276 0.248
vn -0.784 -0.595 0.175
vn -0.749 -0.641 0.165
vn -0.667 -0.732 0.136
vn -0.154 -0.988 0.008
vn -0.015 -1 0
vn -0.44 -0.896 0.054
vn 0.015 -1 0
vn 0.105 -0.995 0
vn 0.468 -0.884 0
vn 0.501 -0.865 0
vn 0.788 -0.616 0
vn 0.94 -0.341 0
vn 0.976 -0.218 0
vn 0.941 0.339 0
vn 0.897 0.441 0
vn 0.992 -0.13 0
vn 0.983 0.182 0
vn 0.744 0.668 0
vn 0.506 0.862 0
vn 0.143 0.99 0
vn -0.155 0.988 0.008
vn 0 1 0
vn -0.015 1 0
vn 0.015 1 0
vn 0 -0.218 -0.976
vn 0 -0.985 -0.174
vn -0.095 0.946 0.311
vn 0 0.985 0.171
vn 0 0.745 0.667
vn 0 0.95 0.313
vn 0 0.643 0.766
vn 0 0.647 0.763
vn 0 0.241 0.97
vn 0 0.322 0.947
vn 0 0 1
vn 0 0.001 1
vn 0 -0.643 0.766
vn 0 -0.646 0.764
vn 0 -0.606 0.795
vn 0 -0.28 0.96
vn 0 -0.985 0.174
vn 0 -0.736 0.677
vn 0 -0.986 0.166
vn 0 -0.9 0.436
vn 0 -1 0.015
vn 0 -0.97 -0.243
vn 0 -0.889 -0.458
vn 0 -0.995 -0.105
vn 0 -1 -0.015
vn 0 -0.865 -0.501
vn 0 -0.616 -0.788
vn 0 -0.34 -0.94
vn 0 -0.866 -0.5
vn 0 -0.217 -0.976
vn 0 -0.342 -0.94
vn 0 0.342 -0.94
vn 0 0.182 -0.983
vn 0 -0.13 -0.992
vn 0 0.339 -0.941
vn 0 0.862 -0.506
vn 0 0.668 -0.744
vn 0 0.446 -0.895
vn 0 0.866 -0.5
vn 0 1 0.015
vn 0 0.991 -0.131
vn 0 1 -0.015
vn 0 0.986 0.166
vn 0 0.985 -0.171
vn -0.866 0 -0.5
vn -0.643 0 -0.766
vn -0.648 0 -0.762
vn -0.766 0 -0.643
vn -0.985 0 -0.171
vn -0.174 0 -0.985
vn -0.342 0 -0.94
vn -0.014 0 -1
vn 0.512 0 -0.859
vn 0.342 0 -0.94
vn 0.643 0 -0.766
vn 0.94 0 -0.342
vn 0.866 0 -0.5
vn 0.985 0 -0.174
vn 0.985 0 0.174
vn 0.866 0 0.5
vn 0.939 0 0.343
vn 0.996 0 0.087
vn 0.643 0 0.766
vn 0.342 0 0.94
vn 0.494 0 0.87
vn -0.342 0 0.94
vn -0.18 0 0.984
vn -0.643 0 0.766
vn -0.866 0 0.5
vn -0.771 0 0.637
vn -0.985 0 -0.174
vn -0.985 0 0.171
vn -1 0 0
vn 0 -0.766 -0.643
vn 0 -0.174 -0.985
vn 0 -0.648 -0.762
vn 0 -0.014 -1
vn 0 0.5 -0.866
vn 0 0.512 -0.859
vn 0 0.94 -0.342
vn 0 0.94 0.342
vn 0 0.996 0.087
vn 0 0.5 0.866
vn 0 0.939 0.343
vn 0 -0.174 0.985
vn 0 0.494 0.87
vn 0 -0.766 0.643
vn 0 -0.18 0.984
vn 0 -0.771 0.637
vn -1 -0 -0
vn -0.556 -0.441 0.705
vn -0.619 -0 0.785
vn -0.889 -0 0.457
vn -0.357 -0.817 0.452
vn -0.803 -0.434 0.408
vn -0.089 -0.99 0.113
vn -0.524 -0.812 0.257
vn 0.201 -0.946 -0.255
vn -0.132 -0.989 0.063
vn 0.437 -0.708 -0.555
vn 0.3 -0.944 -0.139
vn 0.586 -0.323 -0.743
vn 0.648 -0.701 -0.296
vn 0.613 0.146 -0.777
vn 0.864 -0.318 -0.391
vn 0.902 0.144 -0.408
vn 0.733 0.593 -0.333
vn 0.495 0.6 -0.628
vn 0.407 0.894 -0.187
vn 0.273 0.897 -0.346
vn -0 1 -0
vn -0.427 0.88 0.208
vn -0.29 0.884 0.368
vn -0.719 0.594 0.361
vn -0.495 0.601 0.627
vn -0.869 0.214 0.446
vn -0.604 0.218 0.766
vn -0.263 -0.441 0.858
vn -0 -0.441 0.897
vn -0 -0 1
vn -0.169 -0.817 0.551
vn -0 -0.643 0.766
vn -0 -0.985 0.174
vn -0.042 -0.99 0.137
vn -0 -0.99 0.143
vn -0 -0.866 -0.5
vn 0.207 -0.708 -0.675
vn -0 -0.708 -0.706
vn 0.277 -0.323 -0.905
vn -0 -0.342 -0.94
vn -0 0.146 -0.989
vn 0.29 0.146 -0.946
vn 0.235 0.6 -0.765
vn -0 0.342 -0.94
vn 0.129 0.897 -0.422
vn -0 0.866 -0.5
vn -0 0.897 -0.441
vn -0.137 0.884 0.448
vn -0 0.884 0.468
vn -0.234 0.601 0.764
vn -0 0.643 0.766
vn -0.286 0.218 0.933
vn -0.293 -0 0.956
vn 0.325 -0.945 -0.029
vn 0.658 -0.742 -0.132
vn 0.749 -0.642 -0.164
vn 0.918 -0.319 -0.237
vn 0.938 -0.238 -0.253
vn 0.966 -0.001 -0.26
vn 0.928 0.276 -0.248
vn 0.784 0.595 -0.175
vn 0.749 0.641 -0.165
vn 0.667 0.732 -0.136
vn 0.154 0.988 -0.008
vn 0.015 1 -0
vn 0.44 0.896 -0.054
vn -0.015 1 -0
vn -0.105 0.995 -0
vn -0.468 0.884 -0
vn -0.501 0.865 -0
vn -0.788 0.616 -0
vn -0.94 0.341 -0
vn -0.976 0.218 -0
vn -0.941 -0.339 -0
vn -0.897 -0.441 -0
vn -0.992 0.13 -0
vn -0.983 -0.182 -0
vn -0.744 -0.668 -0
vn -0.506 -0.862 -0
vn -0.143 -0.99 -0
vn 0.155 -0.988 -0.008
vn -0 -1 -0
vn 0.015 -1 -0
vn -0.015 -1 -0
vn -0 0.218 0.976
vn -0 0.985 0.174
vn 0.095 -0.946 -0.311
vn -0 -0.985 -0.171
vn -0 -0.745 -0.667
vn -0 -0.95 -0.313
vn -0 -0.643 -0.766
vn -0 -0.647 -0.763
vn -0 -0.241 -0.97
vn -0 -0.322 -0.947
vn -0 -0 -1
vn -0 -0.001 -1
vn -0 0.643 -0.766
vn -0 0.646 -0.764
vn -0 0.606 -0.795
vn -0 0.28 -0.96
vn -0 0.985 -0.174
vn -0 0.736 -0.677
vn -0 0.986 -0.166
vn -0 0.9 -0.436
vn -0 1 -0.015
vn -0 0.97 0.243
vn -0 0.889 0.458
vn -0 0.995 0.105
vn -0 1 0.015
vn -0 0.865 0.501
vn -0 0.616 0.788
vn -0 0.34 0.94
vn -0 0.866 0.5
vn -0 0.217 0.976
vn -0 0.342 0.94
vn -0 -0.342 0.94
vn -0 -0.182 0.983
vn -0 0.13 0.992
vn -0 -0.339 0.941
vn -0 -0.862 0.506
vn -0 -0.668 0.744
vn -0 -0.446 0.895
vn -0 -0.866 0.5
vn -0 -1 -0.015
vn -0 -0.991 0.131
vn -0 -1 0.015
vn -0 -0.986 -0.166
vn -0 -0.985 0.171
vn 0.866 -0 0.5
vn 0.643 -0 0.766
vn 0.648 -0 0.762
vn 0.766 -0 0.643
vn 0.985 -0 0.171
vn 0.174 -0 0.985
vn 0.342 -0 0.94
vn 0.014 -0 1
vn -0.512 -0 0.859
vn -0.342 -0 0.94
vn -0.643 -0 0.766
vn -0.94 -0 0.342
vn -0.866 -0 0.5
vn -0.985 -0 0.174
vn -0.985 -0 -0.174
vn -0.866 -0 -0.5
vn -0.939 -0 -0.343
vn -0.996 -0 -0.087
vn -0.643 -0 -0.766
vn -0.342 -0 -0.94
vn -0.494 -0 -0.87
vn 0.342 -0 -0.94
vn 0.18 -0 -0.984
vn 0.643 -0 -0.766
vn 0.866 -0 -0.5
vn 0.771 -0 -0.637
vn 0.985 -0 0.174
vn 0.985 -0 -0.171
vn 1 -0 -0
vn -0 0.766 0.643
vn -0 0.174 0.985
vn -0 0.648 0.762
vn -0 0.014 1
vn -0 -0.5 0.866
vn -0 -0.512 0.859
vn -0 -0.94 0.342
vn -0 -0.94 -0.342
vn -0 -0.996 -0.087
vn -0 -0.5 -0.866
vn -0 -0.939 -0.343
vn -0 0.174 -0.985
vn -0 -0.494 -0.87
vn -0 0.766 -0.643
vn -0 0.18 -0.984
vn -0 0.771 -0.637
usemtl Material_1
f 1//1 2//1 3//1
f 1//175 3//175 2//175
f 1//1 3//1 4//1
f 1//175 4//175 3//175
f 4//1 5//1 6//1
f 4//175 6//175 5//175
f 4//1 6//1 1//1
f 4//175 1//175 6//175
f 6//1 7//1 8//1
f 6//175 8//175 7//175
f 6//1 8//1 1//1
f 6//175 1//175 8//175
f 8//1 9//1 10//1
f 8//175 10//175 9//175
f 8//1 10//1 1//1
f 8//175 1//175 10//175
f 10//1 11//1 12//1
f 10//175 12//175 11//175
f 10//1 12//1 1//1
f 10//175 1//175 12//175
f 12//1 13//1 14//1
f 12//175 14//175 13//175
f 12//1 14//1 1//1
f 12//175 1//175 14//175
f 14//1 15//1 16//1
f 14//175 16//175 15//175
f 14//1 16//1 1//1
f 14//175 1//175 16//175
f 16//1 17//1 2//1
f 16//175 2//175 17//175
f 16//1 2//1 1//1
f 16//175 1//175 2//175
f 18//2 19//3 20//4
f 18//176 20//178 19//177
f 21//5 18//2 22//6
f 21//179 22//180 18//176
f 23//7 21//5 24//8
f 23//181 24//182 21//179
f 25//9 23//7 26//10
f 25//183 26//184 23//181
f 27//11 25//9 28//12
f 27//185 28//186 25//183
f 29//13 27//11 30//14
f 29//187 30//188 27//185
f 31//15 29//13 32//16
f 31//189 32//190 29//187
f 31//15 33//17 34//18
f 31//189 34//192 33//191
f 35//19 34//18 36//20
f 35//193 36//194 34//192
f 37//21 36//20 38//22
f 37//195 38//196 36//194
f 39//22 38//22 40//23
f 39//196 40//197 38//196
f 41//24 40//23 42//25
f 41//198 42//199 40//197
f 43//26 42//25 44//27
f 43//200 44//201 42//199
f 45//28 44//27 20//4
f 45//202 20//178 44//201
f 46//29 17//30 16//31
f 46//203 16//205 17//204
f 46//29 47//32 2//33
f 46//203 2//207 47//206
f 3//34 2//33 47//32
f 3//208 47//206 2//207
f 48//35 4//36 3//34
f 48//209 3//208 4//210
f 5//37 4//36 48//35
f 5//211 48//209 4//210
f 49//38 6//39 5//37
f 49//212 5//211 6//213
f 50//40 7//41 6//39
f 50//214 6//213 7//215
f 8//42 7//41 50//40
f 8//216 50//214 7//215
f 51//43 52//44 9//45
f 51//217 9//219 52//218
f 52//44 53//46 10//47
f 52//218 10//221 53//220
f 53//46 11//48 10//47
f 53//220 10//221 11//222
f 11//48 53//46 54//22
f 11//222 54//196 53//220
f 54//22 55//49 13//50
f 54//196 13//224 55//223
f 55//49 56//51 14//52
f 55//223 14//226 56//225
f 14//52 56//51 57//53
f 14//226 57//227 56//225
f 57//53 58//54 16//31
f 57//227 16//205 58//228
f 28//12 59//55 60//56
f 28//186 60//230 59//229
f 30//14 61//57 62//58
f 30//188 62//232 61//231
f 30//14 60//56 61//57
f 30//188 61//231 60//230
f 32//16 63//59 64//60
f 32//190 64//234 63//233
f 64//60 33//17 32//16
f 64//234 32//190 33//191
f 32//16 62//58 63//59
f 32//190 63//233 62//232
f 34//18 33//17 65//61
f 34//192 65//235 33//191
f 36//20 34//18 66//62
f 36//194 66//236 34//192
f 66//62 67//63 36//20
f 66//236 36//194 67//237
f 67//63 68//64 36//20
f 67//237 36//194 68//238
f 38//22 69//65 70//66
f 38//196 70//240 69//239
f 38//22 36//20 71//67
f 38//196 71//241 36//194
f 71//67 69//65 38//22
f 71//241 38//196 69//239
f 40//23 72//68 73//69
f 40//197 73//243 72//242
f 40//23 38//22 74//22
f 40//197 74//196 38//196
f 74//22 72//68 40//23
f 74//196 40//197 72//242
f 42//25 40//23 75//70
f 42//199 75//244 40//197
f 75//70 76//71 42//25
f 75//244 42//199 76//245
f 44//27 42//25 77//72
f 44//201 77//246 42//199
f 77//72 78//73 44//27
f 77//246 44//201 78//247
f 20//4 44//27 79//74
f 20//178 79//248 44//201
f 20//4 80//75 81//76
f 20//178 81//250 80//249
f 20//4 82//77 83//78
f 20//178 83//252 82//251
f 83//78 80//75 20//4
f 83//252 20//178 80//249
f 22//6 81//76 84//79
f 22//180 84//253 81//250
f 24//8 85//80 86//81
f 24//182 86//255 85//254
f 24//8 84//79 85//80
f 24//182 85//254 84//253
f 26//10 87//82 59//55
f 26//184 59//229 87//256
f 26//10 88//83 89//84
f 26//184 89//258 88//257
f 26//10 90//85 88//83
f 26//184 88//257 90//259
f 89//84 87//82 26//10
f 89//258 26//184 87//256
f 26//10 86//81 90//85
f 26//184 90//259 86//255
f 59//55 28//12 26//10
f 59//229 26//184 28//186
f 86//81 26//10 24//8
f 86//255 24//182 26//184
f 84//79 24//8 22//6
f 84//253 22//180 24//182
f 81//76 22//6 20//4
f 81//250 20//178 22//180
f 79//74 82//77 20//4
f 79//248 20//178 82//251
f 78//73 79//74 44//27
f 78//247 44//201 79//248
f 76//71 77//72 42//25
f 76//245 42//199 77//246
f 73//69 75//70 40//23
f 73//243 40//197 75//244
f 70//66 74//22 38//22
f 70//240 38//196 74//196
f 68//64 71//67 36//20
f 68//238 36//194 71//241
f 65//61 66//62 34//18
f 65//235 34//192 66//236
f 64//60 65//61 33//17
f 64//234 33//191 65//235
f 62//58 32//16 30//14
f 62//232 30//188 32//190
f 60//56 30//14 28//12
f 60//230 28//186 30//188
f 16//31 15//86 57//53
f 16//205 57//227 15//260
f 57//53 15//86 14//52
f 57//227 14//226 15//260
f 14//52 13//50 55//49
f 14//226 55//223 13//224
f 13//50 12//87 54//22
f 13//224 54//196 12//261
f 54//22 12//87 11//48
f 54//196 11//222 12//261
f 10//47 9//45 52//44
f 10//221 52//218 9//219
f 9//45 8//42 51//43
f 9//219 51//217 8//216
f 50//40 51//43 8//42
f 50//214 8//216 51//217
f 6//39 49//38 50//40
f 6//213 50//214 49//212
f 5//37 91//88 49//38
f 5//211 49//212 91//262
f 48//35 91//88 5//37
f 48//209 5//211 91//262
f 47//32 48//35 3//34
f 47//206 3//208 48//209
f 2//33 17//30 46//29
f 2//207 46//203 17//204
f 16//31 58//54 46//29
f 16//205 46//203 58//228
f 19//3 58//54 57//53
f 19//177 57//227 58//228
f 19//3 57//53 45//28
f 19//177 45//202 57//227
f 45//28 57//53 56//51
f 45//202 56//225 57//227
f 45//28 56//51 43//26
f 45//202 43//200 56//225
f 43//26 56//51 55//49
f 43//200 55//223 56//225
f 43//26 55//49 41//24
f 43//200 41//198 55//223
f 41//24 55//49 54//22
f 41//198 54//196 55//223
f 41//24 54//22 39//22
f 41//198 39//196 54//196
f 39//22 54//22 53//46
f 39//196 53//220 54//196
f 39//22 53//46 37//21
f 39//196 37//195 53//220
f 37//21 53//46 52//44
f 37//195 52//218 53//220
f 37//21 52//44 35//19
f 37//195 35//193 52//218
f 35//19 52//44 51//43
f 35//193 51//217 52//218
f 35//19 51//43 31//15
f 35//193 31//189 51//217
f 31//15 51//43 50//40
f 31//189 50//214 51//217
f 31//15 50//40 29//13
f 31//189 29//187 50//214
f 29//13 50//40 49//38
f 29//187 49//212 50//214
f 29//13 49//38 27//11
f 29//187 27//185 49//212
f 27//11 49//38 91//88
f 27//185 91//262 49//212
f 27//11 91//88 25//9
f 27//185 25//183 91//262
f 25//9 91//88 48//35
f 25//183 48//209 91//262
f 25//9 48//35 23//7
f 25//183 23//181 48//209
f 23//7 48//35 47//32
f 23//181 47//206 48//209
f 23//7 47//32 21//5
f 23//181 21//179 47//206
f 21//5 47//32 46//29
f 21//179 46//203 47//206
f 21//5 46//29 18//2
f 21//179 18//176 46//203
f 18//2 46//29 58//54
f 18//176 58//228 46//203
f 18//2 58//54 19//3
f 18//176 19//177 58//228
f 20//4 19//3 45//28
f 20//178 45//202 19//177
f 44//27 45//28 43//26
f 44//201 43//200 45//202
f 42//25 43//26 41//24
f 42//199 41//198 43//200
f 40//23 41//24 39//22
f 40//197 39//196 41//198
f 38//22 39//22 37//21
f 38//196 37//195 39//196
f 36//20 37//21 35//19
f 36//194 35//193 37//195
f 34//18 35//19 31//15
f 34//192 31//189 35//193
f 32//16 33//17 31//15
f 32//190 31//189 33//191
f 30//14 32//16 29//13
f 30//188 29//187 32//190
f 28//12 30//14 27//11
f 28//186 27//185 30//188
f 26//10 28//12 25//9
f 26//184 25//183 28//186
f 24//8 26//10 23//7
f 24//182 23//181 26//184
f 22//6 24//8 21//5
f 22//180 21//179 24//182
f 20//4 22//6 18//2
f 20//178 18//176 22//180
f 92//89 60//90 59//91
f 92//263 59//265 60//264
f 60//90 93//37 94//92
f 60//264 94//266 93//211
f 60//90 92//89 93//37
f 60//264 93//211 92//263
f 94//92 61//93 60//90
f 94//266 60//264 61//267
f 94//92 63//94 62//95
f 94//266 62//269 63//268
f 63//94 95//41 96//96
f 63//268 96//270 95//215
f 63//94 94//92 95//41
f 63//268 95//215 94//266
f 96//96 64//97 63//94
f 96//270 63//268 64//271
f 64//97 97//45 98//98
f 64//271 98//272 97//219
f 64//97 96//96 97//45
f 64//271 97//219 96//270
f 98//98 67//99 66//100
f 98//272 66//274 67//273
f 66//100 65//101 98//98
f 66//274 98//272 65//275
f 99//102 68//103 67//99
f 99//276 67//273 68//277
f 99//102 69//104 71//105
f 99//276 71//279 69//278
f 71//105 68//103 99//102
f 71//279 99//276 68//277
f 67//99 98//98 100//47
f 67//273 100//221 98//272
f 101//87 70//106 69//104
f 101//261 69//278 70//280
f 102//107 75//108 73//109
f 102//281 73//283 75//282
f 73//109 72//110 102//107
f 73//283 102//281 72//284
f 101//87 102//107 72//110
f 101//261 72//284 102//281
f 72//110 74//22 101//87
f 72//284 101//261 74//196
f 101//87 76//111 75//108
f 101//261 75//282 76//285
f 75//108 102//107 101//87
f 75//282 101//261 102//281
f 74//22 70//106 101//87
f 74//196 101//261 70//280
f 69//104 99//102 101//87
f 69//278 101//261 99//276
f 103//52 77//112 76//111
f 103//226 76//285 77//286
f 103//52 78//113 77//112
f 103//226 77//286 78//287
f 76//111 104//114 103//52
f 76//285 103//226 104//288
f 79//115 78//113 105//116
f 79//289 105//290 78//287
f 105//116 106//31 79//115
f 105//290 79//289 106//205
f 107//117 83//118 82//119
f 107//291 82//293 83//292
f 107//117 80//120 83//118
f 107//291 83//292 80//294
f 82//119 79//115 107//117
f 82//293 107//291 79//289
f 107//117 108//33 85//121
f 107//291 85//295 108//207
f 85//121 84//122 107//117
f 85//295 107//291 84//296
f 84//122 81//123 107//117
f 84//296 107//291 81//297
f 108//33 109//124 85//121
f 108//207 85//295 109//298
f 109//124 89//125 86//126
f 109//298 86//300 89//299
f 89//125 88//83 90//127
f 89//299 90//301 88//257
f 89//125 90//127 86//126
f 89//299 86//300 90//301
f 86//126 85//121 109//124
f 86//300 109//298 85//295
f 87//128 110//129 111//83
f 87//302 111//257 110//303
f 109//124 110//129 87//128
f 109//298 87//302 110//303
f 87//128 89//125 109//124
f 87//302 109//298 89//299
f 111//83 92//89 87//128
f 111//257 87//302 92//263
f 81//123 80//120 107//117
f 81//297 107//291 80//294
f 106//31 107//117 79//115
f 106//205 79//289 107//291
f 103//52 105//116 78//113
f 103//226 78//287 105//290
f 101//87 104//114 76//111
f 101//261 76//285 104//288
f 67//99 100//47 99//102
f 67//273 99//276 100//221
f 98//98 65//101 64//97
f 98//272 64//271 65//275
f 62//95 61//93 94//92
f 62//269 94//266 61//267
f 59//91 87//128 92//89
f 59//265 92//263 87//302
f 109//130 108//131 112//132
f 109//304 112//306 108//305
f 113//133 110//134 109//130
f 113//307 109//304 110//308
f 112//132 113//133 109//130
f 112//306 109//304 113//307
f 114//135 107//136 106//31
f 114//309 106//205 107//310
f 106//31 115//137 114//135
f 106//205 114//309 115//311
f 112//132 108//131 107//136
f 112//306 107//310 108//305
f 116//138 106//31 105//139
f 116//312 105//313 106//205
f 105//139 117//140 116//138
f 105//313 116//312 117//314
f 116//138 115//137 106//31
f 116//312 106//205 115//311
f 105//139 103//140 117//140
f 105//313 117//314 103//314
f 118//141 103//140 104//142
f 118//315 104//316 103//314
f 104//142 119//143 118//141
f 104//316 118//315 119//317
f 118//141 117//140 103//140
f 118//315 103//314 117//314
f 104//142 101//143 119//143
f 104//316 119//317 101//317
f 99//144 120//145 121//146
f 99//318 121//320 120//319
f 121//146 101//143 99//144
f 121//320 99//318 101//317
f 121//146 122//147 101//143
f 121//320 101//317 122//321
f 99//144 100//145 120//145
f 99//318 120//319 100//319
f 122//147 119//143 101//143
f 122//321 101//317 119//317
f 100//145 98//148 123//149
f 100//319 123//323 98//322
f 100//145 123//149 124//150
f 100//319 124//324 123//323
f 124//150 120//145 100//145
f 124//324 100//319 120//319
f 97//149 96//96 125//151
f 97//323 125//325 96//270
f 97//149 125//151 126//152
f 97//323 126//326 125//325
f 126//152 123//149 97//149
f 126//326 97//323 123//323
f 95//151 94//153 127//154
f 95//325 127//328 94//327
f 95//151 127//154 128//155
f 95//325 128//329 127//328
f 128//155 125//151 95//151
f 128//329 95//325 125//325
f 129//156 92//157 111//158
f 129//330 111//332 92//331
f 92//157 129//156 130//158
f 92//331 130//332 129//330
f 130//158 127//154 93//154
f 130//332 93//328 127//328
f 130//158 93//154 92//157
f 130//332 92//331 93//328
f 111//158 110//134 129//156
f 111//332 129//330 110//308
f 94//153 93//154 127//154
f 94//327 127//328 93//328
f 96//96 95//151 125//151
f 96//270 125//325 95//325
f 98//148 97//149 123//149
f 98//322 123//323 97//323
f 114//135 112//132 107//136
f 114//309 107//310 112//306
f 113//133 129//156 110//134
f 113//307 110//308 129//330
f 131//22 129//87 113//159
f 131//196 113//333 129//261
f 131//22 130//22 129//87
f 131//196 129//261 130//196
f 132//160 133//159 113//159
f 132//334 113//333 133//333
f 132//160 113//159 112//161
f 132//334 112//335 113//333
f 112//161 114//160 132//160
f 112//335 132//334 114//334
f 132//160 114//160 115//162
f 132//334 115//336 114//334
f 115//162 134//163 135//31
f 115//336 135//205 134//337
f 115//162 135//31 132//160
f 115//336 132//334 135//205
f 115//162 116//164 134//163
f 115//336 134//337 116//338
f 134//163 116//164 117//33
f 134//337 117//207 116//338
f 117//33 136//165 134//163
f 117//207 134//337 136//339
f 117//33 118//165 136//165
f 117//207 136//339 118//339
f 136//165 118//165 119//34
f 136//339 119//208 118//339
f 119//34 137//166 136//165
f 119//208 136//339 137//340
f 119//34 122//167 137//166
f 119//208 137//340 122//341
f 138//168 137//166 121//169
f 138//342 121//343 137//340
f 121//169 120//37 138//168
f 121//343 138//342 120//211
f 139//170 138//168 124//171
f 139//344 124//345 138//342
f 124//171 123//41 139//170
f 124//345 139//344 123//215
f 140//172 139//170 126//173
f 140//346 126//347 139//344
f 126//173 125//45 140//172
f 126//347 140//346 125//219
f 131//22 140//172 128//174
f 131//196 128//348 140//346
f 128//174 127//47 131//22
f 128//348 131//196 127//221
f 127//47 130//22 131//22
f 127//221 131//196 130//196
f 125//45 128//174 140//172
f 125//219 140//346 128//348
f 123//41 126//173 139//170
f 123//215 139//344 126//347
f 120//37 124//171 138//168
f 120//211 138//342 124//345
f 122//167 121//169 137//166
f 122//341 137//340 121//343
f 113//159 133//159 131//22
f 113//333 131//196 133//333
f 141//1 134//1 136//1
f 141//175 136//175 134//175
f 141//1 136//1 137//1
f 141//175 137//175 136//175
f 137//1 138//1 139//1
f 137//175 139//175 138//175
f 137//1 139//1 141//1
f 137//175 141//175 139//175
f 139//1 140//1 131//1
f 139//175 131//175 140//175
f 139//1 131//1 141//1
f 139//175 141//175 131//175
f 131//1 133//1 132//1
f 131//175 132//175 133//175
f 131//1 132//1 141//1
f 131//175 141//175 132//175
f 132//1 135//1 134//1
f 132//175 134//175 135//175
f 132//1 134//1 141//1
f 132//175 141//175 134//175
