# --------------------Vectorworks 2016 ------------------- #

mtllib MotorBattery.mtl

o Design Layer-1
v -10.475 -91.3268 -24.9116
v -10.475 -96.1243 -23.503
v -10.475 -94.6011 -21.1329
v -10.475 -92.0384 -19.9625
v -10.475 -89.2497 -20.3635
v -10.475 -87.1205 -22.2084
v -10.475 -86.3268 -24.9116
v -10.475 -87.1205 -27.6148
v -10.475 -89.2497 -29.4598
v -10.475 -92.0384 -29.8607
v -10.475 -94.6011 -28.6904
v -10.475 -96.1243 -26.3203
v -10.475 -96.3268 -24.9116
v 9.525 -96.3268 -24.9116
v 9.525 -96.1243 -23.503
v 9.525 -87.1205 -27.6148
v 9.525 -86.3268 -24.9116
v 9.525 -89.2497 -29.4598
v 9.525 -92.0384 -29.8607
v 9.525 -94.6011 -28.6904
v 9.525 -96.1243 -26.3203
v 9.525 -94.6011 -21.1329
v 9.525 -92.0384 -19.9625
v 9.525 -89.2497 -20.3635
v 9.525 -87.1205 -22.2084
v 9.525 -92.2665 -25.2536
v 9.525 -92.3268 -24.9116
v 9.525 -92.2665 -24.5696
v 9.525 -91.1532 -23.9268
v 9.525 -91.8268 -25.7777
v 9.525 -91.8268 -24.0456
v 9.525 -91.1532 -25.8964
v 9.525 -90.5608 -24.2688
v 9.525 -90.3268 -24.9116
v 9.525 -90.5608 -25.5544
v 11.1938 -92.3268 -24.9116
v 11.1938 -92.2665 -24.5696
v 11.1938 -90.5608 -25.5544
v 11.1938 -90.3268 -24.9116
v 11.1938 -91.1532 -25.8964
v 11.1938 -91.8268 -25.7777
v 11.1938 -92.2665 -25.2536
v 11.1938 -91.8268 -24.0456
v 11.1938 -91.1532 -23.9268
v 11.1938 -90.5608 -24.2688
v 11.1938 -91.3268 -24.9116
vn -1 0 0
vn 0 -1 0
vn 0 -0.959 0.282
vn 0 0.841 -0.541
vn 0 1 0
vn 0 0.415 -0.91
vn 0 -0.142 -0.99
vn 0 -0.655 -0.756
vn 0 -0.959 -0.282
vn 0 -0.655 0.756
vn 0 -0.142 0.99
vn 0 0.415 0.91
vn 0 0.841 0.541
vn 1 0 0
vn 0 -0.94 0.342
vn 0 0.766 -0.643
vn 0 0.174 -0.985
vn 0 -0.5 -0.866
vn 0 -0.94 -0.342
vn 0 -0.5 0.866
vn 0 0.174 0.985
vn 0 0.766 0.643
vn 1 -0 -0
vn -0 1 -0
vn -0 0.959 -0.282
vn -0 -0.841 0.541
vn -0 -1 -0
vn -0 -0.415 0.91
vn -0 0.142 0.99
vn -0 0.655 0.756
vn -0 0.959 0.282
vn -0 0.655 -0.756
vn -0 0.142 -0.99
vn -0 -0.415 -0.91
vn -0 -0.841 -0.541
vn -1 -0 -0
vn -0 0.94 -0.342
vn -0 -0.766 0.643
vn -0 -0.174 0.985
vn -0 0.5 0.866
vn -0 0.94 0.342
vn -0 0.5 -0.866
vn -0 -0.174 -0.985
vn -0 -0.766 -0.643
usemtl Material_1
f 1//1 2//1 3//1
f 1//23 3//23 2//23
f 1//1 3//1 4//1
f 1//23 4//23 3//23
f 4//1 5//1 6//1
f 4//23 6//23 5//23
f 4//1 6//1 1//1
f 4//23 1//23 6//23
f 6//1 7//1 8//1
f 6//23 8//23 7//23
f 6//1 8//1 1//1
f 6//23 1//23 8//23
f 8//1 9//1 10//1
f 8//23 10//23 9//23
f 8//1 10//1 1//1
f 8//23 1//23 10//23
f 10//1 11//1 12//1
f 10//23 12//23 11//23
f 10//1 12//1 1//1
f 10//23 1//23 12//23
f 12//1 13//1 2//1
f 12//23 2//23 13//23
f 12//1 2//1 1//1
f 12//23 1//23 2//23
f 14//2 15//3 2//3
f 14//24 2//25 15//25
f 14//2 2//3 13//2
f 14//24 13//24 2//25
f 16//4 8//4 7//5
f 16//26 7//27 8//26
f 16//4 7//5 17//5
f 16//26 17//27 7//27
f 18//6 9//6 8//4
f 18//28 8//26 9//28
f 18//6 8//4 16//4
f 18//28 16//26 8//26
f 19//7 10//7 9//6
f 19//29 9//28 10//29
f 19//7 9//6 18//6
f 19//29 18//28 9//28
f 20//8 11//8 10//7
f 20//30 10//29 11//30
f 20//8 10//7 19//7
f 20//30 19//29 10//29
f 21//9 12//9 11//8
f 21//31 11//30 12//31
f 21//9 11//8 20//8
f 21//31 20//30 11//30
f 13//2 12//9 21//9
f 13//24 21//31 12//31
f 13//2 21//9 14//2
f 13//24 14//24 21//31
f 22//10 3//10 2//3
f 22//32 2//25 3//32
f 22//10 2//3 15//3
f 22//32 15//25 2//25
f 23//11 4//11 3//10
f 23//33 3//32 4//33
f 23//11 3//10 22//10
f 23//33 22//32 3//32
f 24//12 5//12 4//11
f 24//34 4//33 5//34
f 24//12 4//11 23//11
f 24//34 23//33 4//33
f 25//13 6//13 5//12
f 25//35 5//34 6//35
f 25//13 5//12 24//12
f 25//35 24//34 5//34
f 17//5 7//5 6//13
f 17//27 6//35 7//27
f 17//5 6//13 25//13
f 17//27 25//35 6//35
f 14//14 21//14 26//14
f 14//36 26//36 21//36
f 14//14 26//14 27//14
f 14//36 27//36 26//36
f 27//14 28//14 15//14
f 27//36 15//36 28//36
f 27//14 15//14 14//14
f 27//36 14//36 15//36
f 29//14 24//14 23//14
f 29//36 23//36 24//36
f 21//14 20//14 30//14
f 21//36 30//36 20//36
f 21//14 30//14 26//14
f 21//36 26//36 30//36
f 28//14 31//14 22//14
f 28//36 22//36 31//36
f 28//14 22//14 15//14
f 28//36 15//36 22//36
f 32//14 30//14 20//14
f 32//36 20//36 30//36
f 32//14 20//14 19//14
f 32//36 19//36 20//36
f 25//14 24//14 29//14
f 25//36 29//36 24//36
f 25//14 29//14 33//14
f 25//36 33//36 29//36
f 19//14 18//14 32//14
f 19//36 32//36 18//36
f 16//14 17//14 34//14
f 16//36 34//36 17//36
f 16//14 34//14 35//14
f 16//36 35//36 34//36
f 23//14 22//14 31//14
f 23//36 31//36 22//36
f 23//14 31//14 29//14
f 23//36 29//36 31//36
f 33//14 34//14 17//14
f 33//36 17//36 34//36
f 33//14 17//14 25//14
f 33//36 25//36 17//36
f 35//14 32//14 18//14
f 35//36 18//36 32//36
f 35//14 18//14 16//14
f 35//36 16//36 18//36
f 36//2 37//15 28//15
f 36//24 28//37 37//37
f 36//2 28//15 27//2
f 36//24 27//24 28//37
f 38//16 35//16 34//5
f 38//38 34//27 35//38
f 38//16 34//5 39//5
f 38//38 39//27 34//27
f 40//17 32//17 35//16
f 40//39 35//38 32//39
f 40//17 35//16 38//16
f 40//39 38//38 35//38
f 41//18 30//18 32//17
f 41//40 32//39 30//40
f 41//18 32//17 40//17
f 41//40 40//39 32//39
f 42//19 26//19 30//18
f 42//41 30//40 26//41
f 42//19 30//18 41//18
f 42//41 41//40 30//40
f 27//2 26//19 42//19
f 27//24 42//41 26//41
f 27//2 42//19 36//2
f 27//24 36//24 42//41
f 43//20 31//20 28//15
f 43//42 28//37 31//42
f 43//20 28//15 37//15
f 43//42 37//37 28//37
f 44//21 29//21 31//20
f 44//43 31//42 29//43
f 44//21 31//20 43//20
f 44//43 43//42 31//42
f 45//22 33//22 29//21
f 45//44 29//43 33//44
f 45//22 29//21 44//21
f 45//44 44//43 29//43
f 39//5 34//5 33//22
f 39//27 33//44 34//27
f 39//5 33//22 45//22
f 39//27 45//44 33//44
f 46//14 42//14 41//14
f 46//36 41//36 42//36
f 46//14 41//14 40//14
f 46//36 40//36 41//36
f 40//14 38//14 39//14
f 40//36 39//36 38//36
f 40//14 39//14 46//14
f 40//36 46//36 39//36
f 39//14 45//14 44//14
f 39//36 44//36 45//36
f 39//14 44//14 46//14
f 39//36 46//36 44//36
f 44//14 43//14 37//14
f 44//36 37//36 43//36
f 44//14 37//14 46//14
f 44//36 46//36 37//36
f 37//14 36//14 42//14
f 37//36 42//36 36//36
f 37//14 42//14 46//14
f 37//36 46//36 42//36
