# --------------------Vectorworks 2016 ------------------- #

mtllib OmniEye-Iris.mtl

o Design Layer-1
v 0 50.5175 -6.59968e-009
v -15.3284 50.5175 37.0061
v -25.7853 50.5175 30.019
v -26.6739 50.5175 29.4252
v -28.3232 50.5175 28.3232
v -34.9377 50.5175 18.4239
v -37.0061 50.5175 15.3284
v -38.8233 50.5175 6.19249
v -40.0551 50.5175 -6.59968e-009
v -38.8233 50.5175 -6.19249
v -37.0061 50.5175 -15.3284
v -34.9377 50.5175 -18.424
v -28.3232 50.5175 -28.3232
v -26.6739 50.5175 -29.4253
v -25.7853 50.5175 -30.019
v -15.3284 50.5175 -37.0061
v -15.0929 50.5175 -37.0529
v -4.95063 50.5175 -39.0703
v 0 50.5175 -40.0551
v 4.95063 50.5175 -39.0703
v 15.0929 50.5175 -37.0529
v 15.3284 50.5175 -37.0061
v 25.7853 50.5175 -30.019
v 26.6739 50.5175 -29.4253
v 28.3232 50.5175 -28.3232
v 34.9377 50.5175 -18.424
v 37.0061 50.5175 -15.3284
v 38.8233 50.5175 -6.19249
v 40.0551 50.5175 -6.59968e-009
v 38.8233 50.5175 6.19249
v 37.0061 50.5175 15.3284
v 34.9377 50.5175 18.4239
v 28.3232 50.5175 28.3232
v 26.6739 50.5175 29.4252
v 25.7853 50.5175 30.019
v 15.3284 50.5175 37.0061
v 15.0929 50.5175 37.0529
v 4.95063 50.5175 39.0703
v 0 50.5175 40.0551
v -4.95063 50.5175 39.0703
v -15.0929 50.5175 37.0529
v 16.339 54.6866 -30.0501
v 5.51621 56.8269 -30.0501
v 5.94742 60.9887 -19.5551
v 9.88957 60.9887 -18.4988
v 17.7116 59.2386 -18.4993
v 10.5743 60.9887 -18.3153
v 29.907 56.8269 -6.24552
v 28.7706 54.6866 -18.4993
v 18.3153 60.9887 -10.5743
v 18.2413 60.9887 -10.6483
v 19.4796 60.9887 -6.22909
v 21.1487 60.9887 -6.59968e-009
v 29.907 56.8269 6.24552
v 28.7706 54.6866 18.4992
v 18.3153 60.9887 10.5743
v 18.2413 60.9887 10.6483
v 19.4796 60.9887 6.22909
v 17.7116 59.2386 18.4992
v 10.5743 60.9887 18.3153
v 16.339 54.6866 30.0501
v 9.88957 60.9887 18.4987
v 5.94742 60.9887 19.555
v -5.51621 56.8269 30.0501
v 5.51621 56.8269 30.0501
v 0 60.9887 21.1487
v -16.339 54.6866 30.0501
v -5.94742 60.9887 19.555
v -9.88957 60.9887 18.4987
v -17.7116 59.2386 18.4992
v -10.5743 60.9887 18.3153
v -29.907 56.8269 6.24552
v -28.7706 54.6866 18.4992
v -18.3153 60.9887 10.5743
v -18.2413 60.9887 10.6483
v -19.4796 60.9887 6.22909
v -21.1487 60.9887 -6.59968e-009
v -29.907 56.8269 -6.24552
v -28.7706 54.6866 -18.4993
v -18.3153 60.9887 -10.5743
v -18.2413 60.9887 -10.6483
v -19.4796 60.9887 -6.22909
v -17.7116 59.2386 -18.4993
v -10.5743 60.9887 -18.3153
v -16.339 54.6866 -30.0501
v -9.88957 60.9887 -18.4988
v -5.94742 60.9887 -19.5551
v -5.51621 56.8269 -30.0501
v 0 60.9887 -21.1487
v 0 60.9887 -6.59968e-009
vn 0 -1 0
vn 0.255 0.846 -0.469
vn 0.086 0.879 -0.469
vn 0.093 0.947 -0.306
vn 0.154 0.945 -0.289
vn 0.276 0.917 -0.289
vn 0.165 0.944 -0.286
vn 0.467 0.879 -0.097
vn 0.449 0.846 -0.289
vn 0.286 0.944 -0.165
vn 0.285 0.944 -0.166
vn 0.305 0.947 -0.098
vn 0.33 0.944 0
vn 0.467 0.879 0.097
vn 0.449 0.846 0.289
vn 0.286 0.944 0.165
vn 0.285 0.944 0.166
vn 0.305 0.947 0.098
vn 0.276 0.917 0.289
vn 0.165 0.944 0.286
vn 0.255 0.846 0.469
vn 0.154 0.945 0.289
vn 0.093 0.947 0.306
vn -0.086 0.879 0.469
vn 0.086 0.879 0.469
vn 0 0.944 0.33
vn -0.255 0.846 0.469
vn -0.093 0.947 0.306
vn -0.154 0.945 0.289
vn -0.276 0.917 0.289
vn -0.165 0.944 0.286
vn -0.467 0.879 0.097
vn -0.449 0.846 0.289
vn -0.286 0.944 0.165
vn -0.285 0.944 0.166
vn -0.305 0.947 0.098
vn -0.33 0.944 0
vn -0.467 0.879 -0.097
vn -0.449 0.846 -0.289
vn -0.286 0.944 -0.165
vn -0.285 0.944 -0.166
vn -0.305 0.947 -0.098
vn -0.276 0.917 -0.289
vn -0.165 0.944 -0.286
vn -0.255 0.846 -0.469
vn -0.154 0.945 -0.289
vn -0.093 0.947 -0.306
vn -0.086 0.879 -0.469
vn 0 0.944 -0.33
vn 0.078 0.786 0.614
vn 0.236 0.781 0.578
vn 0.239 0.781 0.577
vn 0.404 0.784 0.471
vn 0.418 0.783 0.461
vn 0.442 0.781 0.442
vn 0.548 0.785 0.289
vn 0.577 0.781 0.239
vn 0.61 0.786 0.097
vn 0.625 0.781 0
vn 0.577 0.781 -0.239
vn 0.548 0.785 -0.289
vn 0.61 0.786 -0.097
vn 0.442 0.781 -0.442
vn 0.418 0.783 -0.461
vn 0.404 0.784 -0.471
vn 0.239 0.781 -0.577
vn 0.236 0.781 -0.578
vn 0 0.781 -0.625
vn 0.078 0.786 -0.614
vn -0.078 0.786 -0.614
vn -0.236 0.781 -0.578
vn -0.239 0.781 -0.577
vn -0.404 0.784 -0.471
vn -0.418 0.783 -0.461
vn -0.442 0.781 -0.442
vn -0.548 0.785 -0.289
vn -0.577 0.781 -0.239
vn -0.625 0.781 0
vn -0.61 0.786 -0.097
vn -0.577 0.781 0.239
vn -0.548 0.785 0.289
vn -0.61 0.786 0.097
vn -0.442 0.781 0.442
vn -0.418 0.783 0.461
vn -0.404 0.784 0.471
vn -0.239 0.781 0.577
vn -0.236 0.781 0.578
vn -0.078 0.786 0.614
vn 0 0.781 0.625
vn 0 1 0
vn -0 1 -0
vn -0.255 -0.846 0.469
vn -0.086 -0.879 0.469
vn -0.093 -0.947 0.306
vn -0.154 -0.945 0.289
vn -0.276 -0.917 0.289
vn -0.165 -0.944 0.286
vn -0.467 -0.879 0.097
vn -0.449 -0.846 0.289
vn -0.286 -0.944 0.165
vn -0.285 -0.944 0.166
vn -0.305 -0.947 0.098
vn -0.33 -0.944 -0
vn -0.467 -0.879 -0.097
vn -0.449 -0.846 -0.289
vn -0.286 -0.944 -0.165
vn -0.285 -0.944 -0.166
vn -0.305 -0.947 -0.098
vn -0.276 -0.917 -0.289
vn -0.165 -0.944 -0.286
vn -0.255 -0.846 -0.469
vn -0.154 -0.945 -0.289
vn -0.093 -0.947 -0.306
vn 0.086 -0.879 -0.469
vn -0.086 -0.879 -0.469
vn -0 -0.944 -0.33
vn 0.255 -0.846 -0.469
vn 0.093 -0.947 -0.306
vn 0.154 -0.945 -0.289
vn 0.276 -0.917 -0.289
vn 0.165 -0.944 -0.286
vn 0.467 -0.879 -0.097
vn 0.449 -0.846 -0.289
vn 0.286 -0.944 -0.165
vn 0.285 -0.944 -0.166
vn 0.305 -0.947 -0.098
vn 0.33 -0.944 -0
vn 0.467 -0.879 0.097
vn 0.449 -0.846 0.289
vn 0.286 -0.944 0.165
vn 0.285 -0.944 0.166
vn 0.305 -0.947 0.098
vn 0.276 -0.917 0.289
vn 0.165 -0.944 0.286
vn 0.255 -0.846 0.469
vn 0.154 -0.945 0.289
vn 0.093 -0.947 0.306
vn 0.086 -0.879 0.469
vn -0 -0.944 0.33
vn -0.078 -0.786 -0.614
vn -0.236 -0.781 -0.578
vn -0.239 -0.781 -0.577
vn -0.404 -0.784 -0.471
vn -0.418 -0.783 -0.461
vn -0.442 -0.781 -0.442
vn -0.548 -0.785 -0.289
vn -0.577 -0.781 -0.239
vn -0.61 -0.786 -0.097
vn -0.625 -0.781 -0
vn -0.577 -0.781 0.239
vn -0.548 -0.785 0.289
vn -0.61 -0.786 0.097
vn -0.442 -0.781 0.442
vn -0.418 -0.783 0.461
vn -0.404 -0.784 0.471
vn -0.239 -0.781 0.577
vn -0.236 -0.781 0.578
vn -0 -0.781 0.625
vn -0.078 -0.786 0.614
vn 0.078 -0.786 0.614
vn 0.236 -0.781 0.578
vn 0.239 -0.781 0.577
vn 0.404 -0.784 0.471
vn 0.418 -0.783 0.461
vn 0.442 -0.781 0.442
vn 0.548 -0.785 0.289
vn 0.577 -0.781 0.239
vn 0.625 -0.781 -0
vn 0.61 -0.786 0.097
vn 0.577 -0.781 -0.239
vn 0.548 -0.785 -0.289
vn 0.61 -0.786 -0.097
vn 0.442 -0.781 -0.442
vn 0.418 -0.783 -0.461
vn 0.404 -0.784 -0.471
vn 0.239 -0.781 -0.577
vn 0.236 -0.781 -0.578
vn 0.078 -0.786 -0.614
vn -0 -0.781 -0.625
vn -0 -1 -0
usemtl Material_1
f 1//1 2//1 3//1
f 1//91 3//91 2//91
f 1//1 3//1 4//1
f 1//91 4//91 3//91
f 4//1 5//1 6//1
f 4//91 6//91 5//91
f 4//1 6//1 1//1
f 4//91 1//91 6//91
f 6//1 7//1 8//1
f 6//91 8//91 7//91
f 6//1 8//1 1//1
f 6//91 1//91 8//91
f 8//1 9//1 10//1
f 8//91 10//91 9//91
f 8//1 10//1 1//1
f 8//91 1//91 10//91
f 10//1 11//1 12//1
f 10//91 12//91 11//91
f 10//1 12//1 1//1
f 10//91 1//91 12//91
f 12//1 13//1 14//1
f 12//91 14//91 13//91
f 12//1 14//1 1//1
f 12//91 1//91 14//91
f 14//1 15//1 16//1
f 14//91 16//91 15//91
f 14//1 16//1 1//1
f 14//91 1//91 16//91
f 16//1 17//1 18//1
f 16//91 18//91 17//91
f 16//1 18//1 1//1
f 16//91 1//91 18//91
f 18//1 19//1 20//1
f 18//91 20//91 19//91
f 18//1 20//1 1//1
f 18//91 1//91 20//91
f 20//1 21//1 22//1
f 20//91 22//91 21//91
f 20//1 22//1 1//1
f 20//91 1//91 22//91
f 22//1 23//1 24//1
f 22//91 24//91 23//91
f 22//1 24//1 1//1
f 22//91 1//91 24//91
f 24//1 25//1 26//1
f 24//91 26//91 25//91
f 24//1 26//1 1//1
f 24//91 1//91 26//91
f 26//1 27//1 28//1
f 26//91 28//91 27//91
f 26//1 28//1 1//1
f 26//91 1//91 28//91
f 28//1 29//1 30//1
f 28//91 30//91 29//91
f 28//1 30//1 1//1
f 28//91 1//91 30//91
f 30//1 31//1 32//1
f 30//91 32//91 31//91
f 30//1 32//1 1//1
f 30//91 1//91 32//91
f 32//1 33//1 34//1
f 32//91 34//91 33//91
f 32//1 34//1 1//1
f 32//91 1//91 34//91
f 34//1 35//1 36//1
f 34//91 36//91 35//91
f 34//1 36//1 1//1
f 34//91 1//91 36//91
f 36//1 37//1 38//1
f 36//91 38//91 37//91
f 36//1 38//1 1//1
f 36//91 1//91 38//91
f 38//1 39//1 40//1
f 38//91 40//91 39//91
f 38//1 40//1 1//1
f 38//91 1//91 40//91
f 40//1 41//1 2//1
f 40//91 2//91 41//91
f 40//1 2//1 1//1
f 40//91 1//91 2//91
f 42//2 43//3 44//4
f 42//92 44//94 43//93
f 44//4 45//5 42//2
f 44//94 42//92 45//95
f 46//6 45//5 47//7
f 46//96 47//97 45//95
f 48//8 49//9 50//10
f 48//98 50//100 49//99
f 49//9 46//6 51//11
f 49//99 51//101 46//96
f 51//11 50//10 49//9
f 51//101 49//99 50//100
f 48//8 52//12 53//13
f 48//98 53//103 52//102
f 53//13 54//14 48//8
f 53//103 48//98 54//104
f 55//15 56//16 57//17
f 55//105 57//107 56//106
f 54//14 58//18 56//16
f 54//104 56//106 58//108
f 56//16 55//15 54//14
f 56//106 54//104 55//105
f 59//19 57//17 60//20
f 59//109 60//110 57//107
f 61//21 62//22 63//23
f 61//111 63//113 62//112
f 61//21 59//19 62//22
f 61//111 62//112 59//109
f 64//24 65//25 66//26
f 64//114 66//116 65//115
f 65//25 63//23 66//26
f 65//115 66//116 63//113
f 67//27 64//24 68//28
f 67//117 68//118 64//114
f 68//28 69//29 67//27
f 68//118 67//117 69//119
f 70//30 69//29 71//31
f 70//120 71//121 69//119
f 72//32 73//33 74//34
f 72//122 74//124 73//123
f 73//33 70//30 75//35
f 73//123 75//125 70//120
f 75//35 74//34 73//33
f 75//125 73//123 74//124
f 72//32 76//36 77//37
f 72//122 77//127 76//126
f 77//37 78//38 72//32
f 77//127 72//122 78//128
f 79//39 80//40 81//41
f 79//129 81//131 80//130
f 78//38 82//42 80//40
f 78//128 80//130 82//132
f 80//40 79//39 78//38
f 80//130 78//128 79//129
f 83//43 81//41 84//44
f 83//133 84//134 81//131
f 85//45 86//46 87//47
f 85//135 87//137 86//136
f 85//45 83//43 86//46
f 85//135 86//136 83//133
f 88//48 87//47 89//49
f 88//138 89//139 87//137
f 89//49 43//3 88//48
f 89//139 88//138 43//93
f 65//25 38//50 37//51
f 65//115 37//141 38//140
f 61//21 37//51 36//52
f 61//111 36//142 37//141
f 59//19 35//53 34//54
f 59//109 34//144 35//143
f 59//19 61//21 35//53
f 59//109 35//143 61//111
f 55//15 34//54 33//55
f 55//105 33//145 34//144
f 54//14 55//15 32//56
f 54//104 32//146 55//105
f 32//56 31//57 54//14
f 32//146 54//104 31//147
f 54//14 30//58 29//59
f 54//104 29//149 30//148
f 29//59 48//8 54//14
f 29//149 54//104 48//98
f 48//8 27//60 26//61
f 48//98 26//151 27//150
f 48//8 28//62 27//60
f 48//98 27//150 28//152
f 49//9 26//61 25//63
f 49//99 25//153 26//151
f 46//6 49//9 24//64
f 46//96 24//154 49//99
f 24//64 23//65 46//6
f 24//154 46//96 23//155
f 42//2 23//65 22//66
f 42//92 22//156 23//155
f 43//3 42//2 21//67
f 43//93 21//157 42//92
f 88//48 43//3 19//68
f 88//138 19//158 43//93
f 43//3 20//69 19//68
f 43//93 19//158 20//159
f 88//48 18//70 17//71
f 88//138 17//161 18//160
f 85//45 17//71 16//72
f 85//135 16//162 17//161
f 83//43 15//73 14//74
f 83//133 14//164 15//163
f 83//43 85//45 15//73
f 83//133 15//163 85//135
f 79//39 14//74 13//75
f 79//129 13//165 14//164
f 78//38 79//39 12//76
f 78//128 12//166 79//129
f 12//76 11//77 78//38
f 12//166 78//128 11//167
f 72//32 78//38 9//78
f 72//122 9//168 78//128
f 78//38 10//79 9//78
f 78//128 9//168 10//169
f 72//32 7//80 6//81
f 72//122 6//171 7//170
f 72//32 8//82 7//80
f 72//122 7//170 8//172
f 73//33 6//81 5//83
f 73//123 5//173 6//171
f 70//30 73//33 4//84
f 70//120 4//174 73//123
f 4//84 3//85 70//30
f 4//174 70//120 3//175
f 67//27 3//85 2//86
f 67//117 2//176 3//175
f 64//24 67//27 41//87
f 64//114 41//177 67//117
f 64//24 40//88 39//89
f 64//114 39//179 40//178
f 39//89 65//25 64//24
f 39//179 64//114 65//115
f 39//89 38//50 65//25
f 39//179 65//115 38//140
f 41//87 40//88 64//24
f 41//177 64//114 40//178
f 2//86 41//87 67//27
f 2//176 67//117 41//177
f 3//85 67//27 70//30
f 3//175 70//120 67//117
f 5//83 4//84 73//33
f 5//173 73//123 4//174
f 6//81 73//33 72//32
f 6//171 72//122 73//123
f 9//78 8//82 72//32
f 9//168 72//122 8//172
f 11//77 10//79 78//38
f 11//167 78//128 10//169
f 13//75 12//76 79//39
f 13//165 79//129 12//166
f 14//74 79//39 83//43
f 14//164 83//133 79//129
f 16//72 15//73 85//45
f 16//162 85//135 15//163
f 17//71 85//45 88//48
f 17//161 88//138 85//135
f 19//68 18//70 88//48
f 19//158 88//138 18//160
f 21//67 20//69 43//3
f 21//157 43//93 20//159
f 22//66 21//67 42//2
f 22//156 42//92 21//157
f 23//65 42//2 46//6
f 23//155 46//96 42//92
f 25//63 24//64 49//9
f 25//153 49//99 24//154
f 26//61 49//9 48//8
f 26//151 48//98 49//99
f 29//59 28//62 48//8
f 29//149 48//98 28//152
f 31//57 30//58 54//14
f 31//147 54//104 30//148
f 33//55 32//56 55//15
f 33//145 55//105 32//146
f 34//54 55//15 59//19
f 34//144 59//109 55//105
f 36//52 35//53 61//21
f 36//142 61//111 35//143
f 37//51 61//21 65//25
f 37//141 65//115 61//111
f 89//49 44//4 43//3
f 89//139 43//93 44//94
f 87//47 88//48 85//45
f 87//137 85//135 88//138
f 84//44 86//46 83//43
f 84//134 83//133 86//136
f 81//41 83//43 79//39
f 81//131 79//129 83//133
f 77//37 82//42 78//38
f 77//127 78//128 82//132
f 74//34 76//36 72//32
f 74//124 72//122 76//126
f 71//31 75//35 70//30
f 71//121 70//120 75//125
f 69//29 70//30 67//27
f 69//119 67//117 70//120
f 66//26 68//28 64//24
f 66//116 64//114 68//118
f 63//23 65//25 61//21
f 63//113 61//111 65//115
f 60//20 62//22 59//19
f 60//110 59//109 62//112
f 57//17 59//19 55//15
f 57//107 55//105 59//109
f 53//13 58//18 54//14
f 53//103 54//104 58//108
f 50//10 52//12 48//8
f 50//100 48//98 52//102
f 47//7 51//11 46//6
f 47//97 46//96 51//101
f 45//5 46//6 42//2
f 45//95 42//92 46//96
f 90//90 84//90 81//90
f 90//180 81//180 84//180
f 90//90 81//90 80//90
f 90//180 80//180 81//180
f 80//90 82//90 77//90
f 80//180 77//180 82//180
f 80//90 77//90 90//90
f 80//180 90//180 77//180
f 77//90 76//90 74//90
f 77//180 74//180 76//180
f 77//90 74//90 90//90
f 77//180 90//180 74//180
f 74//90 75//90 71//90
f 74//180 71//180 75//180
f 74//90 71//90 90//90
f 74//180 90//180 71//180
f 71//90 69//90 68//90
f 71//180 68//180 69//180
f 71//90 68//90 90//90
f 71//180 90//180 68//180
f 68//90 66//90 63//90
f 68//180 63//180 66//180
f 68//90 63//90 90//90
f 68//180 90//180 63//180
f 63//90 62//90 60//90
f 63//180 60//180 62//180
f 63//90 60//90 90//90
f 63//180 90//180 60//180
f 60//90 57//90 56//90
f 60//180 56//180 57//180
f 60//90 56//90 90//90
f 60//180 90//180 56//180
f 56//90 58//90 53//90
f 56//180 53//180 58//180
f 56//90 53//90 90//90
f 56//180 90//180 53//180
f 53//90 52//90 50//90
f 53//180 50//180 52//180
f 53//90 50//90 90//90
f 53//180 90//180 50//180
f 50//90 51//90 47//90
f 50//180 47//180 51//180
f 50//90 47//90 90//90
f 50//180 90//180 47//180
f 47//90 45//90 44//90
f 47//180 44//180 45//180
f 47//90 44//90 90//90
f 47//180 90//180 44//180
f 44//90 89//90 87//90
f 44//180 87//180 89//180
f 44//90 87//90 90//90
f 44//180 90//180 87//180
f 87//90 86//90 84//90
f 87//180 84//180 86//180
f 87//90 84//90 90//90
f 87//180 90//180 84//180
