# --------------------Vectorworks 2016 ------------------- #

mtllib PurpleArrows.mtl

o Design Layer-1
v 25.9901 78.1985 141.796
v 26.01 82.3235 152.613
v 26.01 74.0735 152.613
v 18.3776 74.0735 149.481
v 18.3776 82.3235 149.481
v 20.3898 76.2485 150.307
v 20.3898 80.1485 150.307
v 23.9978 76.2485 151.788
v 23.9978 80.1485 151.788
v 14.5072 80.1485 174.916
v 10.8992 80.1485 173.436
v 14.5072 76.2485 174.916
v 10.8992 76.2485 173.436
vn 0.999467 0 -0.00170592
vn 0.144637 -0.924 -0.352479
vn 0.144637 0.924 -0.352479
vn -0.710193 0 -0.703251
vn -0.379624 0 0.925141
vn 0 1 0
vn 0.925141 0 0.379624
vn 0 -1 0
vn -0.925141 0 -0.379624
vn -0.999467 -0 0.00170592
vn -0.144637 0.924 0.352479
vn -0.144637 -0.924 0.352479
vn 0.710193 -0 0.703251
vn 0.379624 -0 -0.925141
vn -0 -1 -0
vn -0.925141 -0 -0.379624
vn -0 1 -0
vn 0.925141 -0 0.379624
usemtl Material_1
f 1//1 2//1 3//1
f 1//10 3//10 2//10
f 1//2 3//2 4//2
f 1//11 4//11 3//11
f 1//3 5//3 2//3
f 1//12 2//12 5//12
f 1//4 4//4 5//4
f 1//13 5//13 4//13
f 5//5 4//5 6//5
f 5//14 6//14 4//14
f 5//5 6//5 7//5
f 5//14 7//14 6//14
f 4//5 3//5 8//5
f 4//14 8//14 3//14
f 4//5 8//5 6//5
f 4//14 6//14 8//14
f 3//5 2//5 9//5
f 3//14 9//14 2//14
f 3//5 9//5 8//5
f 3//14 8//14 9//14
f 7//5 9//5 2//5
f 7//14 2//14 9//14
f 7//5 2//5 5//5
f 7//14 5//14 2//14
f 10//6 9//6 7//6
f 10//15 7//15 9//15
f 10//6 7//6 11//6
f 10//15 11//15 7//15
f 12//7 8//7 9//7
f 12//16 9//16 8//16
f 12//7 9//7 10//7
f 12//16 10//16 9//16
f 13//8 6//8 8//8
f 13//17 8//17 6//17
f 13//8 8//8 12//8
f 13//17 12//17 8//17
f 11//9 7//9 6//9
f 11//18 6//18 7//18
f 11//9 6//9 13//9
f 11//18 13//18 6//18
f 11//5 13//5 12//5
f 11//14 12//14 13//14
f 11//5 12//5 10//5
f 11//14 10//14 12//14
o Design Layer-1
v -45.9192 78.1985 100.982
v -50.3649 82.3235 110.844
v -50.3649 74.0735 110.844
v -56.0247 74.0735 104.842
v -56.0247 82.3235 104.842
v -54.5326 76.2485 106.424
v -54.5326 80.1485 106.424
v -51.857 76.2485 109.261
v -51.857 80.1485 109.261
v -70.0461 80.1485 126.413
v -72.7216 80.1485 123.575
v -70.0461 76.2485 126.413
v -72.7216 76.2485 123.575
vn 0.911104 0 0.410885
vn 0.277201 -0.924 -0.261382
vn 0.277201 0.924 -0.261382
vn -0.356702 0 -0.933649
vn -0.727562 0 0.686042
vn 0 1 0
vn 0.686042 0 0.727562
vn 0 -1 0
vn -0.686042 0 -0.727562
vn -0.911104 -0 -0.410885
vn -0.277201 0.924 0.261382
vn -0.277201 -0.924 0.261382
vn 0.356702 -0 0.933649
vn 0.727562 -0 -0.686042
vn -0 -1 -0
vn -0.686042 -0 -0.727562
vn -0 1 -0
vn 0.686042 -0 0.727562
usemtl Material_1
f 14//19 15//19 16//19
f 14//28 16//28 15//28
f 14//20 16//20 17//20
f 14//29 17//29 16//29
f 14//21 18//21 15//21
f 14//30 15//30 18//30
f 14//22 17//22 18//22
f 14//31 18//31 17//31
f 18//23 17//23 19//23
f 18//32 19//32 17//32
f 18//23 19//23 20//23
f 18//32 20//32 19//32
f 17//23 16//23 21//23
f 17//32 21//32 16//32
f 17//23 21//23 19//23
f 17//32 19//32 21//32
f 16//23 15//23 22//23
f 16//32 22//32 15//32
f 16//23 22//23 21//23
f 16//32 21//32 22//32
f 20//23 22//23 15//23
f 20//32 15//32 22//32
f 20//23 15//23 18//23
f 20//32 18//32 15//32
f 23//24 22//24 20//24
f 23//33 20//33 22//33
f 23//24 20//24 24//24
f 23//33 24//33 20//33
f 25//25 21//25 22//25
f 25//34 22//34 21//34
f 25//25 22//25 23//25
f 25//34 23//34 22//34
f 26//26 19//26 21//26
f 26//35 21//35 19//35
f 26//26 21//26 25//26
f 26//35 25//35 21//35
f 24//27 20//27 19//27
f 24//36 19//36 20//36
f 24//27 19//27 26//27
f 24//36 26//36 19//36
f 24//23 26//23 25//23
f 24//32 25//32 26//32
f 24//23 25//23 23//23
f 24//32 23//32 25//32
o Design Layer-1
v -13.221 78.1985 124.769
v -15.4892 82.3235 135.346
v -15.4892 74.0735 135.346
v -22.2866 74.0735 130.671
v -22.2866 82.3235 130.671
v -20.4946 76.2485 131.903
v -20.4946 80.1485 131.903
v -17.2813 76.2485 134.113
v -17.2813 80.1485 134.113
v -31.4487 80.1485 154.711
v -34.662 80.1485 152.501
v -31.4487 76.2485 154.711
v -34.662 76.2485 152.501
vn 0.97722 0 0.20971
vn 0.215911 -0.924 -0.313916
vn 0.215911 0.924 -0.313916
vn -0.545398 0 -0.837543
vn -0.566695 0 0.823928
vn 0 1 0
vn 0.823928 0 0.566695
vn 0 -1 0
vn -0.823928 0 -0.566695
vn -0.97722 -0 -0.20971
vn -0.215911 0.924 0.313916
vn -0.215911 -0.924 0.313916
vn 0.545398 -0 0.837543
vn 0.566695 -0 -0.823928
vn -0 -1 -0
vn -0.823928 -0 -0.566695
vn -0 1 -0
vn 0.823928 -0 0.566695
usemtl Material_2
f 27//37 28//37 29//37
f 27//46 29//46 28//46
f 27//38 29//38 30//38
f 27//47 30//47 29//47
f 27//39 31//39 28//39
f 27//48 28//48 31//48
f 27//40 30//40 31//40
f 27//49 31//49 30//49
f 31//41 30//41 32//41
f 31//50 32//50 30//50
f 31//41 32//41 33//41
f 31//50 33//50 32//50
f 30//41 29//41 34//41
f 30//50 34//50 29//50
f 30//41 34//41 32//41
f 30//50 32//50 34//50
f 29//41 28//41 35//41
f 29//50 35//50 28//50
f 29//41 35//41 34//41
f 29//50 34//50 35//50
f 33//41 35//41 28//41
f 33//50 28//50 35//50
f 33//41 28//41 31//41
f 33//50 31//50 28//50
f 36//42 35//42 33//42
f 36//51 33//51 35//51
f 36//42 33//42 37//42
f 36//51 37//51 33//51
f 38//43 34//43 35//43
f 38//52 35//52 34//52
f 38//43 35//43 36//43
f 38//52 36//52 35//52
f 39//44 32//44 34//44
f 39//53 34//53 32//53
f 39//44 34//44 38//44
f 39//53 38//53 34//53
f 37//45 33//45 32//45
f 37//54 32//54 33//54
f 37//45 32//45 39//45
f 37//54 39//54 32//54
f 37//41 39//41 38//41
f 37//50 38//50 39//50
f 37//41 38//41 36//41
f 37//50 36//50 38//50
o Design Layer-1
v 72.7867 78.1985 150.565
v 75.3066 82.3235 161.085
v 75.3066 74.0735 161.085
v 67.1569 74.0735 159.802
v 67.1569 82.3235 159.802
v 69.3055 76.2485 160.14
v 69.3055 80.1485 160.14
v 73.158 76.2485 160.747
v 73.158 80.1485 160.747
v 69.2706 80.1485 185.443
v 65.4181 80.1485 184.836
v 69.2706 76.2485 185.443
v 65.4181 76.2485 184.836
vn 0.972005 0 -0.232686
vn 0.0592445 -0.924 -0.376366
vn 0.0592445 0.924 -0.376366
vn -0.853516 0 -0.520045
vn -0.155497 0 0.987836
vn 0 1 0
vn 0.987836 0 0.155497
vn 0 -1 0
vn -0.987836 0 -0.155497
vn -0.972005 -0 0.232686
vn -0.0592445 0.924 0.376366
vn -0.0592445 -0.924 0.376366
vn 0.853516 -0 0.520045
vn 0.155497 -0 -0.987836
vn -0 -1 -0
vn -0.987836 -0 -0.155497
vn -0 1 -0
vn 0.987836 -0 0.155497
usemtl Material_3
f 40//55 41//55 42//55
f 40//64 42//64 41//64
f 40//56 42//56 43//56
f 40//65 43//65 42//65
f 40//57 44//57 41//57
f 40//66 41//66 44//66
f 40//58 43//58 44//58
f 40//67 44//67 43//67
f 44//59 43//59 45//59
f 44//68 45//68 43//68
f 44//59 45//59 46//59
f 44//68 46//68 45//68
f 43//59 42//59 47//59
f 43//68 47//68 42//68
f 43//59 47//59 45//59
f 43//68 45//68 47//68
f 42//59 41//59 48//59
f 42//68 48//68 41//68
f 42//59 48//59 47//59
f 42//68 47//68 48//68
f 46//59 48//59 41//59
f 46//68 41//68 48//68
f 46//59 41//59 44//59
f 46//68 44//68 41//68
f 49//60 48//60 46//60
f 49//69 46//69 48//69
f 49//60 46//60 50//60
f 49//69 50//69 46//69
f 51//61 47//61 48//61
f 51//70 48//70 47//70
f 51//61 48//61 49//61
f 51//70 49//70 48//70
f 52//62 45//62 47//62
f 52//71 47//71 45//71
f 52//62 47//62 51//62
f 52//71 51//71 47//71
f 50//63 46//63 45//63
f 50//72 45//72 46//72
f 50//63 45//63 52//63
f 50//72 52//72 45//72
f 50//59 52//59 51//59
f 50//68 51//68 52//68
f 50//59 51//59 49//59
f 50//68 49//68 51//68
o Design Layer-1
v 127.155 78.1985 151.502
v 131.28 82.3235 161.502
v 131.28 74.0735 161.502
v 123.03 74.0735 161.502
v 123.03 82.3235 161.502
v 125.205 76.2485 161.502
v 125.205 80.1485 161.502
v 129.105 76.2485 161.502
v 129.105 80.1485 161.502
v 129.105 80.1485 186.502
v 125.205 80.1485 186.502
v 129.105 76.2485 186.502
v 125.205 76.2485 186.502
vn 0.924 0 -0.381
vn 0 -0.924 -0.381
vn 0 0.924 -0.381
vn -0.924 0 -0.381
vn 0 0 1
vn 0 1 0
vn 1 0 0
vn 0 -1 0
vn -1 0 0
vn -0.924 -0 0.381
vn -0 0.924 0.381
vn -0 -0.924 0.381
vn 0.924 -0 0.381
vn -0 -0 -1
vn -0 -1 -0
vn -1 -0 -0
vn -0 1 -0
vn 1 -0 -0
usemtl Material_4
f 53//73 54//73 55//73
f 53//82 55//82 54//82
f 53//74 55//74 56//74
f 53//83 56//83 55//83
f 53//75 57//75 54//75
f 53//84 54//84 57//84
f 53//76 56//76 57//76
f 53//85 57//85 56//85
f 57//77 56//77 58//77
f 57//86 58//86 56//86
f 57//77 58//77 59//77
f 57//86 59//86 58//86
f 56//77 55//77 60//77
f 56//86 60//86 55//86
f 56//77 60//77 58//77
f 56//86 58//86 60//86
f 55//77 54//77 61//77
f 55//86 61//86 54//86
f 55//77 61//77 60//77
f 55//86 60//86 61//86
f 59//77 61//77 54//77
f 59//86 54//86 61//86
f 59//77 54//77 57//77
f 59//86 57//86 54//86
f 62//78 61//78 59//78
f 62//87 59//87 61//87
f 62//78 59//78 63//78
f 62//87 63//87 59//87
f 64//79 60//79 61//79
f 64//88 61//88 60//88
f 64//79 61//79 62//79
f 64//88 62//88 61//88
f 65//80 58//80 60//80
f 65//89 60//89 58//89
f 65//80 60//80 64//80
f 65//89 64//89 60//89
f 63//81 59//81 58//81
f 63//90 58//90 59//90
f 63//81 58//81 65//81
f 63//90 65//90 58//90
f 63//77 65//77 64//77
f 63//86 64//86 65//86
f 63//77 64//77 62//77
f 63//86 62//86 64//86
