<?xml version="1.0" encoding="UTF-8"?>
<!DOCTYPE svg PUBLIC "-//W3C//DTD SVG 1.1//EN" "http://www.w3.org/Graphics/SVG/1.1/DTD/svg11.dtd">
<svg version="1.1" xmlns="http://www.w3.org/2000/svg" xmlns:xlink="http://www.w3.org/1999/xlink" width="240" height="240"  xml:space="preserve" id="fevvaTop2">
    <!-- Generated by PaintCode - http://www.paintcodeapp.com -->
    <g id="fevvaTop2-group2">
        <g id="fevvaTop2-group159">
            <path id="fevvaTop2-bezier158" stroke="none" fill="rgb(0, 0, 0)" d="M 173.88,114.84 C 173.69,115.46 172.94,115.71 172.32,115.6 172.01,115.54 171.69,115.41 171.44,115.19 171.19,114.97 170.98,114.63 171.06,114.21 171.12,113.84 171.46,113.54 171.78,113.42 172.12,113.29 172.48,113.29 172.81,113.37 173.46,113.53 174.02,114.21 173.88,114.84 Z M 173.83,114.83 C 173.89,114.53 173.69,114.26 173.46,114.12 173.22,113.97 172.96,113.91 172.7,113.86 172.21,113.78 171.59,113.86 171.44,114.32 171.33,114.73 171.84,115.24 172.38,115.36 172.64,115.43 172.94,115.46 173.22,115.39 173.5,115.33 173.77,115.12 173.83,114.83 Z M 173.83,114.83" />
        </g>
        <g id="fevvaTop2-group160">
            <path id="fevvaTop2-bezier159" stroke="none" fill="rgb(0, 0, 0)" d="M 181.33,125.54 C 183.33,124.78 185.34,124 187.33,123.21 L 190.32,122.01 191.79,121.38 192.51,121.04 192.85,120.86 193,120.76 C 193.02,120.75 193.04,120.73 193.05,120.73 193.05,120.72 193.06,120.71 193.05,120.73 L 193.03,120.75 C 193.01,120.79 193,120.83 193,120.87 192.97,120.93 193.08,121.06 193.05,121.02 L 193,120.98 192.84,120.9 192.5,120.73 191.76,120.42 190.27,119.85 187.27,118.71 C 185.28,117.89 183.28,117.12 181.33,116.2 L 181.35,116.13 C 183.45,116.64 185.49,117.32 187.53,118 188.54,118.37 189.55,118.74 190.54,119.16 L 192.03,119.81 192.77,120.16 193.14,120.36 193.33,120.48 C 193.37,120.51 193.4,120.52 193.44,120.56 193.46,120.56 193.62,120.74 193.6,120.87 193.6,120.92 193.59,120.98 193.56,121.03 193.54,121.07 193.53,121.08 193.51,121.1 193.48,121.14 193.46,121.16 193.44,121.17 193.39,121.21 193.37,121.23 193.33,121.26 L 193.13,121.37 192.75,121.55 192,121.87 190.5,122.46 187.46,123.56 C 185.43,124.26 183.39,124.94 181.35,125.61 L 181.33,125.54 Z M 181.33,125.54" />
        </g>
        <g id="fevvaTop2-group189">
            <path id="fevvaTop2-bezier188" stroke="none" fill="rgb(0, 0, 0)" d="M 173.83,127.09 C 173.77,126.8 173.51,126.59 173.22,126.53 172.94,126.46 172.64,126.49 172.38,126.56 171.84,126.68 171.33,127.18 171.44,127.6 171.59,128.06 172.21,128.13 172.7,128.06 172.96,128.01 173.22,127.95 173.46,127.8 173.69,127.66 173.89,127.39 173.83,127.09 Z M 173.88,127.08 C 174.02,127.71 173.46,128.39 172.81,128.55 172.48,128.63 172.12,128.63 171.78,128.5 171.46,128.38 171.12,128.08 171.06,127.71 170.98,127.29 171.19,126.95 171.44,126.73 171.69,126.51 172.01,126.37 172.32,126.32 172.94,126.21 173.69,126.46 173.88,127.08 Z M 173.88,127.08" />
        </g>
        <g id="fevvaTop2-group196">
            <path id="fevvaTop2-bezier195" stroke="none" fill="rgb(0, 0, 0)" d="M 112.75,29.26 C 105.42,28.74 98.11,28 90.83,26.97 87.19,26.44 83.56,25.84 79.96,25.07 76.37,24.28 72.77,23.41 69.37,21.9 L 69.32,21.88 69.28,21.85 C 68.74,21.31 67.79,21.5 67.29,22.1 66.76,22.69 66.77,23.58 67.23,24.27 67.67,24.97 68.39,25.49 69.17,25.94 L 71.54,27.38 C 74.67,29.31 77.92,31 81.38,32.21 84.82,33.45 88.42,34.24 92.05,34.77 95.69,35.29 99.37,35.55 103.05,35.64 L 103.05,35.72 C 95.69,35.9 88.2,35.29 81.14,32.9 77.61,31.7 74.29,29.95 71.15,28.01 L 68.8,26.56 C 68,26.09 67.17,25.51 66.63,24.63 66.36,24.2 66.19,23.67 66.2,23.13 66.22,22.59 66.43,22.06 66.79,21.66 67.14,21.26 67.63,20.97 68.18,20.89 68.72,20.81 69.32,20.99 69.72,21.37 L 69.63,21.32 C 72.93,22.84 76.51,23.75 80.07,24.57 83.65,25.37 87.26,26.01 90.89,26.58 98.14,27.7 105.44,28.55 112.75,29.18 L 112.75,29.26 Z M 112.75,29.26" />
        </g>
        <g id="fevvaTop2-group197">
            <path id="fevvaTop2-bezier196" stroke="none" fill="rgb(0, 0, 0)" d="M 107.17,37.92 C 99.01,37.52 90.87,36.91 82.75,35.96 78.7,35.47 74.65,34.9 70.64,34.08 68.63,33.67 66.64,33.19 64.68,32.53 63.69,32.2 62.78,31.74 61.82,31.53 60.89,31.31 59.82,31.21 59.08,31.64 58.32,32.07 58.57,33.14 59.11,33.91 59.64,34.71 60.38,35.39 61.16,36.01 62.74,37.24 64.53,38.19 66.36,39.04 70.04,40.73 73.96,41.88 77.9,42.86 85.8,44.83 93.93,45.74 102.06,46.44 L 102.05,46.51 C 97.97,46.37 93.89,46.08 89.83,45.59 85.77,45.11 81.73,44.46 77.73,43.56 73.74,42.63 69.8,41.43 66.05,39.72 64.18,38.86 62.36,37.86 60.73,36.56 59.92,35.9 59.14,35.18 58.55,34.27 58.26,33.81 58.01,33.3 57.95,32.7 57.87,32.11 58.2,31.41 58.74,31.11 59.82,30.52 60.96,30.72 61.97,30.95 63.01,31.19 63.93,31.67 64.87,31.99 66.78,32.66 68.76,33.15 70.74,33.58 74.72,34.44 78.76,35.05 82.8,35.57 90.89,36.62 99.03,37.34 107.17,37.85 L 107.17,37.92 Z M 107.17,37.92" />
        </g>
        <g id="fevvaTop2-group198">
            <path id="fevvaTop2-bezier197" stroke="none" fill="rgb(0, 0, 0)" d="M 74.47,43.76 C 72.21,43.15 69.9,42.75 67.58,42.45 66.42,42.31 65.25,42.2 64.09,42.23 63.53,42.26 62.92,42.3 62.45,42.54 61.93,42.78 62.25,43.35 62.64,43.75 63.42,44.56 64.41,45.21 65.39,45.84 66.38,46.46 67.4,47.02 68.44,47.53 70.54,48.55 72.71,49.41 74.92,50.19 79.33,51.72 83.85,52.95 88.39,54.09 92.92,55.26 97.49,56.27 102.06,57.34 L 102.05,57.41 C 97.4,56.78 92.78,55.88 88.21,54.81 83.65,53.7 79.12,52.39 74.72,50.74 72.51,49.92 70.33,49.02 68.23,47.95 67.18,47.41 66.15,46.83 65.17,46.18 64.19,45.53 63.2,44.88 62.37,43.99 62.17,43.76 61.98,43.51 61.87,43.18 61.83,43.01 61.82,42.8 61.91,42.63 62,42.45 62.15,42.34 62.3,42.26 62.89,41.98 63.49,41.97 64.09,41.95 65.27,41.94 66.44,42.07 67.61,42.23 69.93,42.58 72.24,43.03 74.49,43.69 L 74.47,43.76 Z M 74.47,43.76" />
        </g>
        <g id="fevvaTop2-group199">
            <path id="fevvaTop2-bezier198" stroke="none" fill="rgb(0, 0, 0)" d="M 73.69,52.58 C 72.93,53.52 72.21,54.57 72.06,55.76 71.9,56.97 72.66,58.04 73.62,58.74 75.55,60.16 77.92,60.93 80.22,61.7 82.54,62.44 84.91,63.05 87.25,63.8 89.57,64.55 91.91,65.3 94.19,66.22 L 94.17,66.29 C 91.76,65.78 89.4,65.14 87.03,64.51 84.67,63.87 82.34,63.09 80.03,62.27 77.73,61.41 75.37,60.58 73.38,59.03 72.9,58.63 72.46,58.16 72.16,57.59 71.85,57.03 71.74,56.36 71.84,55.73 72.06,54.47 72.84,53.44 73.64,52.53 L 73.69,52.58 Z M 73.69,52.58" />
        </g>
        <g id="fevvaTop2-group200">
            <path id="fevvaTop2-bezier199" stroke="none" fill="rgb(0, 0, 0)" d="M 79.53,64.57 C 79.18,65.27 79.49,66.08 79.86,66.72 80.24,67.37 80.76,67.95 81.32,68.46 82.43,69.51 83.73,70.35 85.08,71.07 86.44,71.79 87.87,72.35 89.28,72.96 90.69,73.58 92.13,74.12 93.56,74.75 L 93.54,74.82 C 91.99,74.6 90.49,74.16 89,73.66 87.53,73.13 86.13,72.4 84.78,71.59 83.44,70.79 82.15,69.86 81.05,68.73 80.51,68.16 80.02,67.53 79.66,66.82 79.32,66.14 79.05,65.26 79.46,64.53 L 79.53,64.57 Z M 79.53,64.57" />
        </g>
        <g id="fevvaTop2-group201">
            <path id="fevvaTop2-bezier200" stroke="none" fill="rgb(0, 0, 0)" d="M 84.7,74.06 C 84.38,75.06 84.33,76.13 84.61,77.13 84.88,78.13 85.47,79.01 86.17,79.76 87.61,81.26 89.5,82.25 91.42,83 92.39,83.37 93.38,83.69 94.39,83.95 95.39,84.22 96.42,84.37 97.45,84.68 99.49,85.27 101.4,86.24 103.15,87.44 106.61,89.86 109.54,93.18 111.14,97.16 111.92,99.14 112.36,101.28 112.28,103.42 112.21,105.56 111.58,107.66 110.46,109.44 L 110.4,109.41 C 111.32,107.53 111.78,105.46 111.74,103.41 111.73,101.36 111.24,99.33 110.44,97.44 108.84,93.67 106.17,90.34 102.82,87.92 101.14,86.71 99.29,85.73 97.32,85.12 96.35,84.8 95.3,84.63 94.29,84.34 93.27,84.06 92.27,83.73 91.29,83.33 89.36,82.52 87.46,81.47 86.02,79.9 85.31,79.12 84.73,78.2 84.47,77.16 84.2,76.13 84.29,75.03 84.63,74.04 L 84.7,74.06 Z M 84.7,74.06" />
        </g>
        <g id="fevvaTop2-group202">
            <path id="fevvaTop2-bezier201" stroke="none" fill="rgb(0, 0, 0)" d="M 109.06,213.71 C 103.31,215.13 97.61,216.77 92.05,218.79 89.28,219.82 86.52,220.93 83.95,222.38 82.69,223.12 81.42,223.93 80.49,225.05 80.05,225.61 79.71,226.3 79.83,226.98 79.94,227.67 80.46,228.23 81.02,228.67 L 80.85,228.66 C 83.42,227.18 86.24,226.27 89.05,225.43 91.86,224.61 94.72,223.92 97.58,223.27 103.3,221.99 109.05,220.88 114.79,219.7 120.53,218.52 126.26,217.3 131.9,215.76 134.72,214.98 137.51,214.12 140.22,213.04 142.91,211.95 145.57,210.68 147.66,208.7 149.77,206.75 151.21,204.15 151.83,201.35 152.47,198.55 152.43,195.61 152.13,192.73 151.84,189.83 151.28,186.96 150.9,184.04 150.59,181.07 150.66,178.14 150.7,175.2 151.06,163.47 151.9,151.78 152.83,140.1 L 152.83,140.09 152.83,140.08 C 153.04,139.15 153.4,138.28 153.85,137.45 154.31,136.63 154.88,135.87 155.55,135.22 156.89,133.89 158.66,133.07 160.49,132.75 L 160.51,132.83 C 158.69,133.18 156.97,134.03 155.69,135.36 154.41,136.67 153.52,138.37 153.15,140.14 L 153.15,140.12 C 152.38,151.81 151.65,163.52 151.44,175.22 151.42,178.13 151.34,181.08 151.64,183.95 152.01,186.83 152.58,189.72 152.87,192.66 153.16,195.58 153.23,198.6 152.54,201.52 151.88,204.44 150.34,207.18 148.12,209.2 145.92,211.25 143.17,212.54 140.45,213.62 137.7,214.7 134.88,215.55 132.05,216.32 126.38,217.84 120.63,219.02 114.89,220.18 109.14,221.33 103.38,222.42 97.66,223.67 94.81,224.3 91.96,224.98 89.15,225.78 86.35,226.6 83.53,227.48 81,228.92 L 80.91,228.97 80.83,228.91 C 80.25,228.45 79.68,227.84 79.55,227.03 79.42,226.22 79.81,225.46 80.28,224.88 81.26,223.71 82.55,222.91 83.83,222.17 86.43,220.72 89.2,219.63 91.98,218.62 97.57,216.63 103.28,215.02 109.04,213.64 L 109.06,213.71 Z M 109.06,213.71" />
        </g>
        <g id="fevvaTop2-group203">
            <path id="fevvaTop2-bezier202" stroke="none" fill="rgb(0, 0, 0)" d="M 112.75,212.18 C 105.44,212.81 98.14,213.66 90.89,214.78 87.26,215.35 83.65,215.99 80.07,216.79 76.51,217.62 72.93,218.52 69.64,220.04 L 69.72,219.99 C 69.32,220.37 68.72,220.55 68.18,220.47 67.63,220.39 67.14,220.1 66.79,219.7 66.43,219.3 66.22,218.77 66.21,218.23 66.19,217.69 66.36,217.16 66.63,216.73 67.17,215.85 68,215.27 68.8,214.8 L 71.15,213.35 C 74.3,211.41 77.61,209.66 81.14,208.46 88.2,206.07 95.7,205.46 103.05,205.64 L 103.05,205.72 C 99.37,205.81 95.69,206.07 92.05,206.59 88.42,207.12 84.82,207.91 81.38,209.15 77.92,210.36 74.67,212.05 71.54,213.99 L 69.17,215.42 C 68.39,215.87 67.67,216.39 67.23,217.09 66.77,217.78 66.76,218.67 67.29,219.26 67.79,219.87 68.74,220.05 69.28,219.51 L 69.32,219.48 69.37,219.46 C 72.77,217.95 76.37,217.08 79.96,216.29 83.56,215.52 87.19,214.92 90.83,214.39 98.11,213.36 105.42,212.62 112.75,212.1 L 112.75,212.18 Z M 112.75,212.18" />
        </g>
        <g id="fevvaTop2-group204">
            <path id="fevvaTop2-bezier203" stroke="none" fill="rgb(0, 0, 0)" d="M 107.17,203.51 C 99.02,204.02 90.89,204.75 82.8,205.79 78.76,206.32 74.72,206.93 70.74,207.78 68.76,208.21 66.78,208.7 64.87,209.37 63.93,209.69 63,210.17 61.97,210.42 60.96,210.64 59.82,210.85 58.74,210.26 58.2,209.96 57.87,209.25 57.95,208.66 58.01,208.06 58.26,207.55 58.55,207.09 59.14,206.18 59.91,205.46 60.72,204.8 62.36,203.51 64.18,202.5 66.05,201.64 69.8,199.94 73.74,198.73 77.73,197.8 81.73,196.9 85.77,196.26 89.83,195.77 93.89,195.28 97.97,195 102.05,194.85 L 102.05,194.92 C 93.93,195.62 85.8,196.54 77.9,198.5 73.95,199.48 70.04,200.63 66.36,202.32 64.53,203.17 62.74,204.13 61.16,205.35 60.38,205.97 59.64,206.65 59.1,207.45 58.57,208.22 58.31,209.29 59.07,209.72 59.82,210.16 60.89,210.05 61.82,209.83 62.78,209.62 63.69,209.16 64.68,208.83 66.63,208.17 68.63,207.7 70.63,207.28 74.65,206.46 78.69,205.89 82.75,205.4 90.86,204.45 99.01,203.84 107.16,203.44 L 107.17,203.51 Z M 107.17,203.51" />
        </g>
        <g id="fevvaTop2-group205">
            <path id="fevvaTop2-bezier204" stroke="none" fill="rgb(0, 0, 0)" d="M 74.5,197.68 C 72.24,198.33 69.93,198.78 67.61,199.13 66.44,199.29 65.27,199.43 64.09,199.42 63.5,199.39 62.89,199.39 62.3,199.1 62.15,199.02 62,198.91 61.91,198.74 61.82,198.56 61.83,198.35 61.88,198.19 61.98,197.86 62.17,197.61 62.37,197.38 63.2,196.48 64.19,195.83 65.17,195.18 66.16,194.54 67.19,193.95 68.23,193.42 70.33,192.34 72.51,191.44 74.72,190.62 79.12,188.97 83.65,187.66 88.21,186.55 92.78,185.49 97.4,184.59 102.05,183.95 L 102.06,184.03 C 97.49,185.09 92.92,186.1 88.39,187.28 83.85,188.42 79.33,189.64 74.92,191.17 72.71,191.95 70.54,192.81 68.44,193.84 67.4,194.35 66.38,194.91 65.39,195.53 64.41,196.15 63.42,196.8 62.64,197.62 62.25,198.01 61.93,198.59 62.45,198.82 62.92,199.06 63.53,199.1 64.09,199.13 65.25,199.16 66.42,199.06 67.58,198.92 69.9,198.62 72.21,198.21 74.47,197.61 L 74.5,197.68 Z M 74.5,197.68" />
        </g>
        <g id="fevvaTop2-group206">
            <path id="fevvaTop2-bezier205" stroke="none" fill="rgb(0, 0, 0)" d="M 73.64,188.83 C 72.84,187.92 72.06,186.9 71.84,185.63 71.74,185.01 71.85,184.34 72.16,183.77 72.46,183.2 72.9,182.74 73.38,182.33 75.37,180.79 77.73,179.95 80.03,179.1 82.34,178.27 84.67,177.5 87.03,176.85 89.4,176.22 91.76,175.58 94.17,175.07 L 94.19,175.14 C 91.91,176.06 89.57,176.81 87.25,177.57 84.91,178.31 82.54,178.92 80.22,179.66 77.92,180.44 75.56,181.2 73.62,182.63 72.66,183.32 71.9,184.39 72.06,185.6 72.21,186.79 72.93,187.85 73.69,188.78 L 73.64,188.83 Z M 73.64,188.83" />
        </g>
        <g id="fevvaTop2-group207">
            <path id="fevvaTop2-bezier206" stroke="none" fill="rgb(0, 0, 0)" d="M 79.46,176.83 C 79.05,176.1 79.32,175.22 79.66,174.54 80.02,173.83 80.51,173.2 81.05,172.63 82.15,171.5 83.44,170.58 84.78,169.77 86.13,168.96 87.53,168.23 89,167.7 90.49,167.2 91.99,166.76 93.54,166.54 L 93.56,166.61 C 92.13,167.24 90.69,167.78 89.28,168.4 87.87,169.01 86.44,169.57 85.08,170.29 83.73,171.01 82.43,171.85 81.32,172.9 80.76,173.42 80.24,173.99 79.86,174.65 79.49,175.28 79.18,176.09 79.53,176.79 L 79.46,176.83 Z M 79.46,176.83" />
        </g>
        <g id="fevvaTop2-group208">
            <path id="fevvaTop2-bezier207" stroke="none" fill="rgb(0, 0, 0)" d="M 84.63,167.32 C 84.29,166.33 84.2,165.23 84.47,164.2 84.72,163.17 85.31,162.24 86.02,161.46 87.46,159.89 89.35,158.84 91.29,158.04 92.27,157.64 93.27,157.3 94.28,157.02 95.3,156.73 96.35,156.56 97.32,156.25 99.29,155.63 101.14,154.65 102.81,153.45 106.16,151.03 108.84,147.69 110.44,143.92 111.24,142.03 111.72,140 111.74,137.95 111.77,135.9 111.32,133.83 110.39,131.96 L 110.46,131.92 C 111.57,133.7 112.21,135.81 112.28,137.94 112.36,140.08 111.92,142.22 111.14,144.2 109.54,148.18 106.61,151.5 103.14,153.92 101.4,155.12 99.49,156.09 97.45,156.69 96.42,156.99 95.39,157.14 94.39,157.41 93.38,157.68 92.39,157.99 91.42,158.36 89.49,159.11 87.61,160.1 86.17,161.6 85.46,162.35 84.88,163.24 84.6,164.24 84.32,165.23 84.38,166.31 84.7,167.3 L 84.63,167.32 Z M 84.63,167.32" />
        </g>
        <g id="fevvaTop2-group209">
            <path id="fevvaTop2-bezier208" stroke="none" fill="rgb(0, 0, 0)" d="M 110.34,106.41 C 105.15,107.17 99.88,107.38 94.63,107.19 89.38,106.97 84.13,106.29 79.03,104.95 76.48,104.29 73.97,103.45 71.53,102.42 69.13,101.32 66.77,100.25 64.29,99.46 61.83,98.65 59.26,98.03 56.69,98.12 55.42,98.17 54.12,98.45 53.07,99.16 52.55,99.52 52.1,99.99 51.83,100.56 51.7,100.85 51.6,101.16 51.59,101.48 51.57,101.79 51.62,102.13 51.86,102.34 L 51.81,102.4 C 51.53,102.18 51.45,101.81 51.44,101.48 51.44,101.14 51.52,100.8 51.64,100.48 51.89,99.85 52.34,99.31 52.87,98.89 53.97,98.06 55.33,97.72 56.66,97.6 59.35,97.39 61.99,97.99 64.51,98.75 67.03,99.55 69.47,100.65 71.83,101.74 74.2,102.8 76.67,103.67 79.18,104.37 84.21,105.76 89.42,106.52 94.64,106.81 99.87,107.11 105.13,107 110.33,106.33 L 110.34,106.41 Z M 110.34,106.41" />
        </g>
        <g id="fevvaTop2-group210">
            <path id="fevvaTop2-bezier209" stroke="none" fill="rgb(0, 0, 0)" d="M 77.66,108.74 C 74.26,108.15 70.85,107.61 67.44,107.11 64.03,106.6 60.61,106.13 57.19,105.76 55.47,105.58 53.76,105.43 52.04,105.35 51.19,105.3 50.33,105.28 49.49,105.29 49.06,105.3 48.64,105.32 48.23,105.36 47.84,105.4 47.4,105.48 47.15,105.63 47.1,105.66 47.06,105.71 47.07,105.69 47.03,105.79 46.97,105.9 46.95,105.98 46.89,106.14 46.84,106.33 46.81,106.53 46.74,106.92 46.73,107.34 46.74,107.75 46.76,108.59 46.91,109.42 47.08,110.26 47.25,111.09 47.48,111.92 47.76,112.73 48.05,113.52 48.3,114.39 48.86,115.01 L 48.82,115.07 C 48.45,114.79 48.25,114.39 48.03,114.02 47.81,113.64 47.62,113.25 47.44,112.85 47.1,112.05 46.81,111.23 46.57,110.38 46.33,109.54 46.16,108.68 46.09,107.79 46.06,107.34 46.06,106.89 46.12,106.43 46.15,106.19 46.19,105.97 46.27,105.72 46.31,105.59 46.35,105.51 46.39,105.4 46.49,105.19 46.62,105.09 46.75,105 47.25,104.71 47.69,104.67 48.15,104.6 48.59,104.55 49.04,104.52 49.48,104.51 50.35,104.5 51.22,104.55 52.09,104.61 53.82,104.74 55.54,104.94 57.26,105.16 64.12,106.06 70.91,107.3 77.68,108.67 L 77.66,108.74 Z M 77.66,108.74" />
        </g>
        <g id="fevvaTop2-group211">
            <path id="fevvaTop2-bezier210" stroke="none" fill="rgb(0, 0, 0)" d="M 79.48,117.41 C 76.86,116.67 74.22,115.99 71.57,115.35 68.92,114.7 66.26,114.1 63.58,113.63 62.25,113.4 60.9,113.2 59.56,113.09 58.89,113.04 58.22,113 57.57,113.03 57.24,113.04 56.92,113.07 56.63,113.14 56.34,113.21 56.09,113.34 56.05,113.46 56.05,113.48 56.05,113.49 56.03,113.51 L 56,113.63 55.95,113.88 55.83,114.38 55.61,115.37 C 55.47,116.03 55.36,116.7 55.25,117.36 55.15,118.03 55.08,118.7 55.09,119.36 55.1,120.01 55.17,120.74 55.69,121.17 L 55.65,121.24 C 55,120.86 54.85,120.05 54.75,119.39 54.67,118.69 54.69,118 54.73,117.31 54.77,116.61 54.87,115.93 54.97,115.25 L 55.14,114.24 55.23,113.73 55.28,113.48 55.3,113.35 C 55.32,113.29 55.34,113.22 55.37,113.16 55.62,112.64 56.09,112.5 56.44,112.4 56.82,112.31 57.18,112.27 57.53,112.25 58.25,112.23 58.94,112.28 59.63,112.36 61,112.51 62.35,112.76 63.69,113.04 69.06,114.16 74.3,115.69 79.5,117.34 L 79.48,117.41 Z M 79.48,117.41" />
        </g>
        <g id="fevvaTop2-group212">
            <path id="fevvaTop2-bezier211" stroke="none" fill="rgb(0, 0, 0)" d="M 110.33,135.42 C 105.06,134.75 99.73,134.65 94.43,134.95 89.14,135.27 83.87,136.05 78.78,137.5 76.24,138.23 73.75,139.13 71.35,140.23 68.95,141.35 66.45,142.42 63.85,143.09 61.26,143.72 58.47,144.13 55.81,143.36 54.51,142.98 53.26,142.25 52.42,141.15 52.01,140.6 51.7,139.97 51.55,139.31 51.47,138.98 51.43,138.64 51.45,138.3 51.47,137.97 51.53,137.59 51.81,137.36 L 51.86,137.42 C 51.63,137.63 51.59,137.99 51.59,138.3 51.59,138.63 51.65,138.95 51.74,139.26 51.93,139.88 52.27,140.45 52.68,140.94 53.52,141.93 54.7,142.56 55.95,142.87 58.48,143.48 61.15,143.07 63.66,142.38 66.21,141.69 68.63,140.69 71.04,139.55 73.49,138.47 76.04,137.61 78.61,136.92 83.78,135.52 89.09,134.81 94.41,134.57 99.74,134.37 105.08,134.57 110.34,135.35 L 110.33,135.42 Z M 110.33,135.42" />
        </g>
        <g id="fevvaTop2-group213">
            <path id="fevvaTop2-bezier212" stroke="none" fill="rgb(0, 0, 0)" d="M 77.68,133.09 C 70.86,134 64.02,134.8 57.15,135.25 55.43,135.36 53.71,135.45 51.98,135.46 51.11,135.46 50.24,135.45 49.37,135.38 48.93,135.35 48.5,135.3 48.05,135.21 47.61,135.11 47.17,135.05 46.69,134.72 46.57,134.64 46.43,134.47 46.38,134.32 46.34,134.21 46.29,134.13 46.26,134 46.18,133.74 46.14,133.53 46.11,133.29 46.06,132.84 46.06,132.38 46.09,131.94 46.16,131.05 46.33,130.19 46.57,129.35 46.81,128.51 47.1,127.69 47.45,126.9 47.63,126.5 47.82,126.11 48.03,125.73 48.25,125.36 48.45,124.96 48.82,124.69 L 48.86,124.75 C 48.3,125.36 48.05,126.23 47.77,127.02 47.49,127.83 47.26,128.65 47.08,129.48 46.91,130.31 46.76,131.14 46.74,131.98 46.72,132.39 46.74,132.8 46.8,133.19 46.83,133.39 46.88,133.59 46.94,133.75 46.96,133.82 47.01,133.93 47.05,134.03 47.08,134.08 47.08,134.07 47.14,134.12 47.37,134.29 47.8,134.39 48.19,134.46 48.59,134.53 49.01,134.58 49.43,134.61 50.27,134.68 51.13,134.71 51.98,134.72 53.69,134.75 55.4,134.71 57.12,134.64 60.55,134.5 63.97,134.25 67.4,133.97 70.82,133.69 74.25,133.38 77.67,133.01 L 77.68,133.09 Z M 77.68,133.09" />
        </g>
        <g id="fevvaTop2-group214">
            <path id="fevvaTop2-bezier213" stroke="none" fill="rgb(0, 0, 0)" d="M 79.5,124.42 C 74.54,125.58 69.55,126.6 64.5,127.28 63.23,127.45 61.96,127.61 60.68,127.68 59.4,127.75 58.1,127.79 56.78,127.48 56.45,127.39 56.11,127.28 55.79,127.04 55.63,126.92 55.47,126.74 55.4,126.51 55.33,126.29 55.33,126.18 55.29,126.01 55.16,125.39 55.04,124.76 54.94,124.13 54.83,123.5 54.72,122.86 54.75,122.2 54.75,121.55 55.03,120.81 55.65,120.52 L 55.69,120.59 C 55.16,120.95 55,121.59 55.06,122.2 55.1,122.81 55.25,123.42 55.4,124.03 L 55.88,125.88 C 55.92,126.02 55.96,126.23 55.99,126.3 56.02,126.38 56.08,126.45 56.18,126.51 56.37,126.64 56.66,126.73 56.94,126.79 58.11,127 59.39,126.96 60.64,126.93 61.9,126.88 63.16,126.79 64.42,126.67 66.95,126.42 69.46,126.06 71.97,125.66 74.48,125.26 76.99,124.83 79.48,124.35 L 79.5,124.42 Z M 79.5,124.42" />
        </g>
        <g id="fevvaTop2-group215">
            <path id="fevvaTop2-bezier214" stroke="none" fill="rgb(0, 0, 0)" d="M 162.55,132.75 C 165.04,132.14 167.5,131.43 169.92,130.58 172.33,129.72 174.7,128.73 176.9,127.42 177.99,126.76 179.04,126.01 179.93,125.11 180.82,124.21 181.57,123.12 181.84,121.89 182.12,120.65 181.84,119.34 181.19,118.26 180.55,117.17 179.62,116.28 178.61,115.5 176.57,113.97 174.24,112.87 171.86,111.93 169.48,111 167.03,110.25 164.56,109.61 162.1,108.94 159.51,108.61 157.15,107.47 155.97,106.91 154.92,106.03 154.22,104.92 153.5,103.81 153.08,102.55 152.8,101.29 L 152.8,101.28 152.8,101.26 C 151.93,89.58 151.12,77.88 150.81,66.16 150.77,63.22 150.69,60.29 151,57.33 151.37,54.42 151.93,51.54 152.21,48.64 152.5,45.75 152.54,42.81 151.88,40 151.25,37.19 149.79,34.59 147.66,32.66 145.56,30.69 142.89,29.43 140.2,28.35 137.49,27.29 134.69,26.45 131.87,25.68 126.23,24.15 120.5,22.96 114.76,21.79 109.02,20.62 103.26,19.54 97.54,18.23 94.68,17.57 91.83,16.88 89.01,16.05 86.2,15.2 83.37,14.3 80.79,12.8 L 81.09,12.78 C 80.54,13.21 80.04,13.75 79.94,14.39 79.83,15.03 80.14,15.69 80.58,16.24 81.48,17.34 82.74,18.15 84,18.89 86.56,20.34 89.31,21.45 92.08,22.48 97.63,24.51 103.32,26.2 109.06,27.65 L 109.04,27.72 C 106.15,27.06 103.29,26.31 100.43,25.51 97.58,24.7 94.74,23.84 91.95,22.83 89.16,21.82 86.39,20.73 83.78,19.28 82.49,18.54 81.19,17.74 80.19,16.55 79.71,15.96 79.3,15.17 79.44,14.31 79.57,13.46 80.17,12.83 80.76,12.36 L 80.9,12.25 81.06,12.34 C 83.57,13.77 86.39,14.65 89.18,15.46 91.99,16.26 94.84,16.92 97.69,17.55 103.41,18.78 109.17,19.89 114.91,21.06 120.65,22.23 126.4,23.43 132.07,24.97 134.9,25.75 137.72,26.61 140.46,27.7 143.18,28.8 145.91,30.1 148.11,32.17 150.32,34.2 151.84,36.95 152.49,39.86 153.15,42.77 153.09,45.78 152.79,48.7 152.49,51.63 151.92,54.51 151.54,57.41 151.23,60.28 151.3,63.23 151.33,66.15 151.58,77.85 152.35,89.55 153.18,101.24 L 153.17,101.21 C 153.44,102.45 153.84,103.66 154.52,104.72 155.19,105.78 156.17,106.61 157.3,107.16 159.58,108.27 162.17,108.62 164.63,109.31 167.12,109.97 169.57,110.73 171.96,111.68 174.34,112.64 176.69,113.75 178.75,115.32 179.77,116.11 180.72,117.03 181.38,118.15 182.04,119.27 182.32,120.64 182.03,121.92 181.74,123.21 180.96,124.32 180.05,125.22 179.14,126.14 178.08,126.89 176.98,127.55 174.76,128.86 172.37,129.84 169.95,130.68 167.53,131.53 165.06,132.22 162.57,132.82 L 162.55,132.75 Z M 162.55,132.75" />
        </g>
    </g>
</svg>
