<?xml version="1.0" encoding="UTF-8"?>
<!DOCTYPE svg PUBLIC "-//W3C//DTD SVG 1.1//EN" "http://www.w3.org/Graphics/SVG/1.1/DTD/svg11.dtd">
<svg version="1.1" xmlns="http://www.w3.org/2000/svg" xmlns:xlink="http://www.w3.org/1999/xlink" width="240" height="160"  xml:space="preserve" id="fevvaSide6">
    <!-- Generated by PaintCode - http://www.paintcodeapp.com -->
    <g id="fevvaSide6-group2">
        <g id="fevvaSide6-group76">
            <path id="fevvaSide6-bezier75" stroke="none" fill="rgb(0, 0, 0)" d="M 181.72,83.98 C 183.58,84.6 185.41,85.26 187.23,85.98 188.14,86.35 189.05,86.73 189.94,87.15 190.38,87.36 190.82,87.58 191.26,87.83 191.69,88.09 192.12,88.32 192.52,88.77 L 193.08,89.4 192.21,89.26 C 191.35,89.12 190.43,89.11 189.53,89.12 188.63,89.13 187.72,89.16 186.81,89.19 185.9,89.21 185,89.29 184.09,89.36 183.19,89.45 182.27,89.51 181.41,89.8 L 181.38,89.73 C 182.19,89.24 183.12,89.05 184.02,88.85 184.92,88.66 185.84,88.56 186.76,88.46 187.68,88.38 188.61,88.34 189.54,88.37 190.46,88.4 191.39,88.45 192.33,88.65 L 192.02,89.14 C 191.79,88.84 191.36,88.56 190.97,88.31 190.57,88.06 190.14,87.82 189.71,87.6 188.85,87.15 187.97,86.74 187.08,86.34 185.31,85.53 183.51,84.77 181.69,84.05 L 181.72,83.98 Z M 181.72,83.98" />
        </g>
        <g id="fevvaSide6-group77">
            <path id="fevvaSide6-bezier76" stroke="none" fill="rgb(0, 0, 0)" d="M 179.91,89.81 C 175.52,91.2 171.13,92.61 166.76,94.06 164.58,94.79 162.4,95.53 160.24,96.32 158.07,97.07 156.04,98.14 153.96,99.14 149.83,101.16 145.66,103.16 141.34,104.82 137.02,106.43 132.54,107.87 127.82,107.97 L 120.9,107.84 C 118.6,107.8 116.29,107.78 113.96,107.55 111.64,107.32 109.28,106.79 107.16,105.69 106.64,105.42 106.11,105.11 105.63,104.8 105.15,104.5 104.68,104.25 104.17,104.01 103.15,103.55 102.07,103.17 100.99,102.82 92.26,100.06 83.07,98.76 74.16,96.44 L 74.18,96.34 C 83.22,98.11 92.37,99.24 101.3,101.86 102.4,102.22 103.51,102.61 104.58,103.11 105.11,103.35 105.67,103.64 106.16,103.95 106.65,104.27 107.12,104.54 107.62,104.8 109.6,105.83 111.81,106.33 114.07,106.57 116.32,106.82 118.62,106.87 120.92,106.94 L 127.82,107.17 C 132.35,107.13 136.82,105.76 141.11,104.21 145.41,102.61 149.59,100.67 153.74,98.69 155.83,97.72 157.9,96.67 160.1,95.94 162.28,95.18 164.48,94.47 166.67,93.78 171.06,92.38 175.47,91.04 179.88,89.72 L 179.91,89.81 Z M 179.91,89.81" />
        </g>
        <g id="fevvaSide6-group78">
            <path id="fevvaSide6-bezier77" stroke="none" fill="rgb(0, 0, 0)" d="M 148.95,80.61 C 148.46,78.83 148.12,77.01 147.96,75.16 147.8,73.33 147.8,71.44 148.27,69.63 148.51,68.73 148.88,67.84 149.45,67.08 150.01,66.28 150.87,65.8 151.55,65.23 152.26,64.65 152.93,64.03 153.5,63.34 154.07,62.65 154.56,61.87 154.71,61.03 154.89,60.18 154.61,59.32 154.05,58.66 153.51,58 152.73,57.45 151.98,57.07 150.33,56.48 148.45,56.27 146.65,56 143.01,55.53 139.34,55.21 135.67,54.93 128.33,54.4 120.97,54.11 113.61,53.83 109.93,53.67 106.25,53.58 102.57,53.55 100.73,53.53 98.89,53.54 97.06,53.61 96.14,53.64 95.22,53.69 94.31,53.77 93.86,53.82 93.4,53.88 92.95,53.96 92.52,54.06 92.04,54.15 91.7,54.43 L 91.63,54.36 C 91.99,54.01 92.47,53.91 92.91,53.78 93.36,53.66 93.82,53.57 94.27,53.5 95.19,53.35 96.11,53.25 97.03,53.16 98.87,53 100.72,52.91 102.57,52.85 106.26,52.74 109.95,52.77 113.64,52.83 121.02,52.98 128.38,53.49 135.74,54.14 139.41,54.46 143.08,54.83 146.74,55.36 147.66,55.49 148.57,55.64 149.48,55.82 150.4,56 151.3,56.17 152.21,56.54 153.09,57.01 153.84,57.56 154.47,58.33 155.09,59.07 155.43,60.14 155.21,61.12 155.01,62.1 154.46,62.92 153.85,63.63 153.23,64.35 152.53,64.97 151.8,65.54 151.06,66.14 150.25,66.56 149.73,67.29 149.18,67.99 148.81,68.84 148.56,69.71 148.08,71.46 148.04,73.32 148.16,75.15 148.29,76.98 148.59,78.8 149.05,80.58 L 148.95,80.61 Z M 148.95,80.61" />
        </g>
        <g id="fevvaSide6-group79">
            <path id="fevvaSide6-bezier78" stroke="none" fill="rgb(0, 0, 0)" d="M 90.94,55.9 C 92.68,56.94 94.75,57.28 96.75,57.19 L 102.83,57 C 104.86,56.92 106.89,56.78 108.92,56.75 L 111.96,56.72 C 112.97,56.7 113.99,56.73 114.99,56.61 L 115.01,56.69 C 113.02,57.27 110.97,57.33 108.95,57.5 106.91,57.63 104.88,57.6 102.84,57.6 L 96.75,57.56 C 94.7,57.56 92.6,57.1 90.89,55.96 L 90.94,55.9 Z M 90.94,55.9" />
        </g>
        <g id="fevvaSide6-group80">
            <path id="fevvaSide6-bezier79" stroke="none" fill="rgb(0, 0, 0)" d="M 104.34,58.68 C 98.63,59.47 92.93,60.33 87.24,61.27 81.56,62.21 75.87,63.16 70.29,64.53 68.91,64.9 67.49,65.26 66.26,65.87 65.98,65.99 65.67,66.29 65.77,66.27 65.75,66.29 66.07,66.53 66.37,66.6 67,66.8 67.72,66.88 68.42,66.95 71.25,67.18 74.14,67.09 77.01,66.97 82.76,66.76 88.51,66.35 94.24,65.83 L 94.26,65.91 C 88.56,66.85 82.81,67.37 77.04,67.72 74.15,67.83 71.26,67.93 68.35,67.68 67.62,67.6 66.89,67.51 66.15,67.27 65.96,67.21 65.77,67.13 65.58,67.01 65.41,66.9 65.16,66.73 65.09,66.37 L 65.08,66.3 65.08,66.28 C 65.07,66.18 65.08,66.23 65.08,66.2 L 65.09,66.12 C 65.1,66.03 65.14,65.95 65.18,65.88 65.26,65.75 65.35,65.67 65.44,65.6 65.61,65.46 65.78,65.36 65.95,65.27 67.33,64.62 68.74,64.31 70.14,63.95 75.78,62.64 81.49,61.77 87.19,60.9 92.89,60.06 98.61,59.3 104.33,58.6 L 104.34,58.68 Z M 104.34,58.68" />
        </g>
        <g id="fevvaSide6-group81">
            <path id="fevvaSide6-bezier80" stroke="none" fill="rgb(0, 0, 0)" d="M 86.52,67.89 C 83.93,69.28 81.25,70.51 78.49,71.53 77.1,72.03 75.69,72.48 74.25,72.8 73.52,72.96 72.79,73.09 72.04,73.16 71.3,73.22 70.59,73.29 69.86,73.39 66.97,73.78 64.12,74.44 61.26,75.06 59.83,75.36 58.41,75.71 56.99,76.07 56.29,76.25 55.58,76.44 54.88,76.66 54.53,76.76 54.19,76.87 53.85,77 53.53,77.14 53.13,77.26 52.95,77.53 L 52.88,77.52 C 53.07,77.14 53.45,77.01 53.76,76.81 54.09,76.64 54.43,76.49 54.77,76.34 55.45,76.06 56.15,75.81 56.84,75.57 58.24,75.1 59.66,74.71 61.09,74.33 63.95,73.61 66.86,73.11 69.79,72.79 70.52,72.71 71.28,72.66 72,72.62 72.72,72.57 73.44,72.46 74.15,72.32 75.57,72.04 76.98,71.64 78.37,71.18 81.14,70.26 83.85,69.12 86.48,67.82 L 86.52,67.89 Z M 86.52,67.89" />
        </g>
        <g id="fevvaSide6-group82">
            <path id="fevvaSide6-bezier81" stroke="none" fill="rgb(0, 0, 0)" d="M 53.34,78.12 C 57.46,78.16 61.58,78.11 65.69,77.92 67.75,77.81 69.79,77.62 71.84,77.47 73.88,77.3 75.92,77.14 77.9,76.58 L 77.93,76.65 C 76.07,77.63 73.95,77.92 71.91,78.21 69.85,78.47 67.78,78.49 65.71,78.52 61.58,78.57 57.45,78.45 53.33,78.19 L 53.34,78.12 Z M 53.34,78.12" />
        </g>
        <g id="fevvaSide6-group83">
            <path id="fevvaSide6-bezier82" stroke="none" fill="rgb(0, 0, 0)" d="M 60.52,79.36 C 58.49,80.81 56.33,82.16 53.89,82.91 53.59,83.01 53.26,83.06 52.98,83.14 52.84,83.18 52.68,83.22 52.59,83.27 52.56,83.27 52.59,83.33 52.62,83.16 52.58,83 52.56,83.07 52.58,83.06 52.62,83.08 52.7,83.09 52.76,83.11 53.35,83.2 53.98,83.22 54.6,83.24 55.85,83.27 57.1,83.26 58.34,83.24 59.6,83.21 60.84,83.21 62.06,83.04 63.28,82.89 64.51,82.7 65.73,82.48 66.96,82.28 68.18,82.01 69.39,81.74 70,81.6 70.6,81.44 71.2,81.27 71.78,81.09 72.42,80.94 72.89,80.57 L 72.95,80.62 C 72.5,81.12 71.88,81.32 71.31,81.59 70.73,81.83 70.13,82.04 69.53,82.24 68.33,82.63 67.11,82.93 65.88,83.21 64.64,83.47 63.4,83.68 62.13,83.78 60.87,83.9 59.59,83.86 58.35,83.84 57.09,83.82 55.84,83.79 54.58,83.72 53.95,83.68 53.33,83.65 52.68,83.53 52.6,83.51 52.51,83.49 52.41,83.45 52.37,83.41 52.27,83.43 52.2,83.19 52.24,82.94 52.35,82.96 52.38,82.91 52.57,82.82 52.72,82.79 52.88,82.75 53.2,82.67 53.5,82.63 53.8,82.55 56.18,81.92 58.4,80.66 60.48,79.3 L 60.52,79.36 Z M 60.52,79.36" />
        </g>
        <g id="fevvaSide6-group84">
            <path id="fevvaSide6-bezier83" stroke="none" fill="rgb(0, 0, 0)" d="M 66.86,83.57 C 64.84,85.39 62.53,86.9 59.96,87.88 59.33,88.12 58.65,88.31 58,88.47 57.69,88.55 57.35,88.65 57.12,88.8 57.06,88.83 57.03,88.88 57.05,88.84 57.06,88.75 57.02,88.76 57.08,88.8 57.17,88.86 57.33,88.91 57.48,88.95 58.74,89.27 60.12,89.34 61.45,89.42 62.81,89.47 64.13,89.5 65.43,89.23 66.75,89 68.06,88.7 69.35,88.35 71.95,87.66 74.5,86.76 76.81,85.35 L 76.86,85.41 C 74.76,87.19 72.15,88.24 69.56,89.07 68.24,89.46 66.91,89.77 65.55,89.96 64.18,90.2 62.76,90.12 61.42,90.02 60.05,89.9 58.7,89.8 57.34,89.42 57.17,89.36 57,89.31 56.81,89.19 56.73,89.13 56.55,89 56.6,88.73 56.67,88.52 56.79,88.47 56.87,88.41 57.22,88.21 57.55,88.14 57.89,88.05 58.56,87.9 59.2,87.74 59.84,87.53 62.38,86.66 64.74,85.25 66.81,83.51 L 66.86,83.57 Z M 66.86,83.57" />
        </g>
        <g id="fevvaSide6-group85">
            <path id="fevvaSide6-bezier84" stroke="none" fill="rgb(0, 0, 0)" d="M 74.74,89.05 C 74.64,89.46 74.25,89.6 73.96,89.76 73.64,89.91 73.3,90.02 72.97,90.11 72.29,90.3 71.6,90.44 70.92,90.55 69.54,90.77 68.14,90.9 66.75,91 63.97,91.17 61.19,91.3 58.41,91.52 55.64,91.74 52.85,91.97 50.12,92.43 49.44,92.55 48.76,92.68 48.13,92.89 47.97,92.94 47.82,93 47.7,93.07 47.62,93.12 47.62,93.12 47.55,93.19 47.48,93.26 47.41,93.32 47.34,93.39 L 46.53,94.05 C 46.28,94.27 46.02,94.5 45.87,94.74 45.8,94.86 45.79,94.94 45.81,94.97 45.83,95.01 45.93,95.09 46.06,95.15 46.63,95.36 47.34,95.4 48.02,95.42 50.79,95.48 53.58,95.43 56.36,95.39 59.15,95.36 61.93,95.3 64.72,95.22 67.5,95.17 70.28,95.08 73.06,94.96 74.45,94.89 75.84,94.81 77.23,94.69 78.6,94.56 80.02,94.49 81.32,94.02 L 81.35,94.09 C 80.05,94.66 78.64,94.81 77.26,95.03 75.88,95.22 74.49,95.36 73.1,95.48 70.31,95.71 67.53,95.85 64.74,95.97 59.16,96.13 53.59,96.2 48,96.02 47.29,95.98 46.58,95.96 45.84,95.67 45.66,95.58 45.44,95.48 45.3,95.2 45.16,94.9 45.29,94.61 45.39,94.44 45.63,94.09 45.91,93.87 46.18,93.63 L 47,92.98 47.17,92.83 C 47.22,92.77 47.35,92.66 47.43,92.62 47.61,92.52 47.79,92.45 47.96,92.4 48.66,92.18 49.35,92.06 50.04,91.94 52.82,91.52 55.6,91.33 58.38,91.15 61.17,90.97 63.96,90.89 66.74,90.77 68.13,90.7 69.52,90.59 70.89,90.4 71.58,90.3 72.27,90.18 72.94,90 73.27,89.91 73.6,89.81 73.92,89.67 74.21,89.53 74.59,89.36 74.66,89.06 L 74.74,89.05 Z M 74.74,89.05" />
        </g>
        <g id="fevvaSide6-group86">
            <path id="fevvaSide6-bezier85" stroke="none" fill="rgb(0, 0, 0)" d="M 142.79,64.56 C 142.19,64.23 141.42,64.16 140.72,64.02 140,63.9 139.28,63.81 138.55,63.73 137.11,63.57 135.66,63.45 134.2,63.37 131.3,63.2 128.38,63.15 125.47,63.22 122.57,63.29 119.67,63.51 116.77,63.73 113.87,63.92 110.98,64.26 108.08,64.58 L 108.06,64.5 C 110.89,63.76 113.79,63.31 116.7,62.98 119.61,62.67 122.55,62.61 125.47,62.62 128.39,62.63 131.32,62.75 134.23,63 135.68,63.13 137.14,63.29 138.58,63.5 139.31,63.61 140.03,63.73 140.74,63.87 141.1,63.94 141.46,64.02 141.82,64.11 142.17,64.22 142.53,64.27 142.85,64.51 L 142.79,64.56 Z M 142.79,64.56" />
        </g>
        <g id="fevvaSide6-group87">
            <path id="fevvaSide6-bezier86" stroke="none" fill="rgb(0, 0, 0)" d="M 179.86,83.18 C 178.82,82.45 177.59,82.01 176.37,81.61 175.15,81.22 173.9,80.92 172.64,80.67 170.12,80.16 167.57,79.84 165.01,79.63 162.45,79.43 159.88,79.39 157.31,79.25 154.74,79.08 152.17,79.01 149.58,78.77 L 149.58,78.67 C 152.16,78.34 154.75,78.27 157.34,78.25 159.93,78.26 162.52,78.52 165.09,78.83 167.66,79.15 170.23,79.56 172.75,80.18 174.01,80.5 175.26,80.87 176.47,81.32 177.68,81.79 178.89,82.3 179.93,83.1 L 179.86,83.18 Z M 179.86,83.18" />
        </g>
        <g id="fevvaSide6-group88">
            <path id="fevvaSide6-bezier87" stroke="none" fill="rgb(0, 0, 0)" d="M 174.01,83.48 C 174.01,84.22 173.41,84.99 172.57,85.02 171.75,85.07 170.96,84.34 170.95,83.48 170.89,82.62 171.66,81.75 172.57,81.81 173.01,81.82 173.42,82.06 173.67,82.38 173.92,82.7 174.02,83.1 174.01,83.48 Z M 173.96,83.47 C 173.95,83.11 173.75,82.77 173.48,82.57 173.2,82.37 172.87,82.3 172.57,82.31 171.96,82.33 171.38,82.82 171.35,83.48 171.31,84.12 171.88,84.76 172.57,84.77 173.24,84.83 174,84.25 173.96,83.47 Z M 173.96,83.47" />
        </g>
        <g id="fevvaSide6-group89">
            <path id="fevvaSide6-bezier88" stroke="none" fill="rgb(0, 0, 0)" d="M 181.08,85.64 C 180.36,85.73 179.65,85.82 178.95,85.93 178.6,86 178.26,86.12 177.92,86.12 177.58,86.15 177.26,86.09 176.9,86.16 L 176.85,86.12 C 176.9,85.89 177.09,85.74 177.26,85.63 177.43,85.51 177.61,85.44 177.79,85.38 178.16,85.27 178.54,85.32 178.91,85.34 179.64,85.36 180.37,85.44 181.08,85.56 L 181.08,85.64 Z M 181.08,85.64" />
        </g>
        <g id="fevvaSide6-group90">
            <path id="fevvaSide6-bezier89" stroke="none" fill="rgb(0, 0, 0)" d="M 90.45,73.49 C 94.07,73.5 97.7,73.36 101.31,73.07 103.12,72.91 104.91,72.67 106.7,72.48 108.5,72.32 110.29,72.08 112.1,71.87 L 112.12,71.94 C 110.4,72.57 108.6,72.93 106.8,73.23 104.99,73.51 103.17,73.59 101.35,73.67 97.71,73.82 94.07,73.8 90.44,73.57 L 90.45,73.49 Z M 90.45,73.49" />
        </g>
        <g id="fevvaSide6-group91">
            <path id="fevvaSide6-bezier90" stroke="none" fill="rgb(0, 0, 0)" d="M 132.3,83.12 C 132.57,82.82 132.46,82.41 132.26,82.11 132.06,81.8 131.77,81.56 131.47,81.35 130.85,80.93 130.13,80.67 129.39,80.52 128.66,80.37 127.9,80.37 127.16,80.32 126.4,80.26 125.64,80.25 124.84,80.18 L 124.83,80.1 C 125.56,79.77 126.36,79.61 127.16,79.57 127.97,79.52 128.78,79.7 129.55,79.94 130.32,80.18 131.07,80.53 131.69,81.05 132,81.32 132.28,81.63 132.46,82 132.65,82.36 132.69,82.88 132.36,83.17 L 132.3,83.12 Z M 132.3,83.12" />
        </g>
    </g>
</svg>
