<?xml version="1.0" encoding="UTF-8"?>
<!DOCTYPE svg PUBLIC "-//W3C//DTD SVG 1.1//EN" "http://www.w3.org/Graphics/SVG/1.1/DTD/svg11.dtd">
<svg version="1.1" xmlns="http://www.w3.org/2000/svg" xmlns:xlink="http://www.w3.org/1999/xlink" width="240" height="240"  xml:space="preserve" id="fevvaTop4">
    <!-- Generated by PaintCode - http://www.paintcodeapp.com -->
    <g id="fevvaTop4-group2">
        <g id="fevvaTop4-group151">
            <path id="fevvaTop4-bezier150" stroke="none" fill="rgb(0, 0, 0)" d="M 106.27,104.41 C 101,104.49 95.73,104.12 90.5,103.45 85.27,102.75 80.07,101.7 75.01,100.17 72.48,99.4 69.99,98.51 67.55,97.46 65.14,96.35 62.78,95.28 60.28,94.48 57.82,93.66 55.24,93.03 52.66,93.12 51.38,93.17 50.08,93.44 49.02,94.16 48.5,94.51 48.04,94.98 47.77,95.56 47.63,95.84 47.54,96.16 47.52,96.47 47.51,96.78 47.56,97.13 47.8,97.34 L 47.75,97.4 C 47.46,97.18 47.39,96.8 47.38,96.47 47.38,96.13 47.45,95.79 47.58,95.48 47.83,94.84 48.28,94.29 48.82,93.88 49.92,93.05 51.3,92.71 52.63,92.6 55.33,92.4 57.98,93.01 60.51,93.77 63.04,94.58 65.48,95.69 67.85,96.78 70.24,97.86 72.7,98.79 75.19,99.59 80.19,101.19 85.35,102.31 90.55,103.08 95.75,103.85 101.01,104.31 106.27,104.33 L 106.27,104.41 Z M 106.27,104.41" />
        </g>
        <g id="fevvaTop4-group152">
            <path id="fevvaTop4-bezier151" stroke="none" fill="rgb(0, 0, 0)" d="M 73.6,103.74 C 70.2,103.15 66.79,102.61 63.38,102.11 59.97,101.6 56.55,101.13 53.13,100.76 51.42,100.58 49.7,100.43 47.99,100.35 47.13,100.3 46.28,100.28 45.43,100.29 45.01,100.3 44.59,100.31 44.18,100.36 43.78,100.4 43.34,100.48 43.09,100.63 43.04,100.65 43,100.71 43.01,100.68 42.97,100.78 42.91,100.89 42.88,100.97 42.83,101.13 42.77,101.32 42.74,101.52 42.68,101.91 42.66,102.33 42.68,102.74 42.7,103.57 42.86,104.41 43.02,105.25 43.2,106.08 43.44,106.9 43.72,107.71 44.01,108.5 44.26,109.37 44.8,110.01 L 44.75,110.07 C 44.11,109.44 43.78,108.61 43.4,107.84 43.05,107.04 42.76,106.21 42.52,105.37 42.27,104.53 42.1,103.67 42.03,102.78 42,102.33 41.99,101.88 42.05,101.42 42.08,101.19 42.13,100.96 42.21,100.71 42.25,100.58 42.29,100.5 42.33,100.4 42.44,100.17 42.56,100.08 42.69,100 43.19,99.71 43.64,99.67 44.09,99.6 44.54,99.55 44.98,99.52 45.42,99.51 46.3,99.5 47.17,99.55 48.03,99.61 49.76,99.74 51.48,99.94 53.2,100.16 60.05,101.06 66.85,102.3 73.61,103.67 L 73.6,103.74 Z M 73.6,103.74" />
        </g>
        <g id="fevvaTop4-group153">
            <path id="fevvaTop4-bezier152" stroke="none" fill="rgb(0, 0, 0)" d="M 75.42,112.41 C 72.59,111.61 69.75,110.88 66.9,110.2 64.05,109.52 61.19,108.88 58.3,108.43 56.86,108.21 55.41,108.03 53.98,108.02 53.31,108.03 52.5,108.05 52.09,108.34 52,108.43 52,108.42 51.95,108.58 L 51.84,109.11 51.64,110.18 C 51.41,111.61 51.25,113.07 51.17,114.52 51.13,115.24 51.13,115.97 51.17,116.69 51.19,117.06 51.23,117.42 51.31,117.77 51.4,118.11 51.51,118.47 51.79,118.69 L 51.75,118.75 C 51.42,118.54 51.26,118.16 51.14,117.82 51.01,117.46 50.94,117.09 50.88,116.73 50.75,115.99 50.73,115.25 50.71,114.51 50.68,113.03 50.79,111.55 50.97,110.08 L 51.13,108.98 51.23,108.43 C 51.24,108.23 51.42,107.88 51.62,107.75 52.04,107.44 52.45,107.37 52.84,107.31 53.23,107.26 53.61,107.24 53.99,107.25 55.5,107.28 56.96,107.53 58.41,107.79 64.2,108.92 69.84,110.56 75.44,112.33 L 75.42,112.41 Z M 75.42,112.41" />
        </g>
        <g id="fevvaTop4-group154">
            <path id="fevvaTop4-bezier153" stroke="none" fill="rgb(0, 0, 0)" d="M 106.27,135.42 C 101.01,135.44 95.75,135.91 90.55,136.68 85.35,137.45 80.19,138.57 75.19,140.16 72.7,140.97 70.24,141.9 67.85,142.97 65.48,144.07 63.04,145.18 60.51,145.98 57.98,146.75 55.33,147.36 52.63,147.16 51.3,147.05 49.92,146.71 48.82,145.88 48.28,145.46 47.83,144.91 47.58,144.28 47.45,143.96 47.38,143.63 47.38,143.28 47.39,142.95 47.46,142.58 47.75,142.36 L 47.8,142.42 C 47.56,142.62 47.51,142.97 47.52,143.28 47.54,143.6 47.63,143.91 47.77,144.2 48.05,144.77 48.5,145.25 49.02,145.6 50.08,146.32 51.38,146.59 52.66,146.64 55.25,146.72 57.82,146.1 60.28,145.27 62.78,144.48 65.15,143.4 67.56,142.29 69.99,141.25 72.49,140.35 75.02,139.59 80.08,138.05 85.27,137 90.5,136.31 95.73,135.63 101,135.27 106.27,135.35 L 106.27,135.42 Z M 106.27,135.42" />
        </g>
        <g id="fevvaTop4-group155">
            <path id="fevvaTop4-bezier154" stroke="none" fill="rgb(0, 0, 0)" d="M 73.61,136.09 C 66.07,137.6 58.51,138.99 50.85,139.88 48.94,140.09 47.01,140.29 45.05,140.23 44.56,140.21 44.07,140.18 43.56,140.07 43.3,140.02 43.05,139.96 42.77,139.81 42.63,139.73 42.48,139.63 42.36,139.43 42.29,139.29 42.31,139.31 42.27,139.22 42.25,139.14 42.22,139.05 42.21,138.98 42.05,137.84 42.45,136.91 42.78,135.99 43.51,134.17 44.5,132.5 45.55,130.88 46.07,130.07 46.61,129.27 47.2,128.51 47.79,127.75 48.34,126.95 49.09,126.31 L 49.12,126.37 C 48.46,127.03 47.96,127.88 47.43,128.66 46.91,129.47 46.4,130.28 45.92,131.11 44.97,132.77 44.06,134.46 43.39,136.22 43.08,137.09 42.77,138.05 42.92,138.83 42.93,138.88 42.94,138.91 42.95,138.94 42.96,138.97 43.01,139.09 43,139.06 43.01,139.07 43.06,139.11 43.13,139.15 43.28,139.23 43.49,139.29 43.71,139.33 44.14,139.41 44.61,139.44 45.08,139.45 46.96,139.5 48.88,139.37 50.79,139.22 54.61,138.89 58.41,138.37 62.22,137.82 66.02,137.26 69.81,136.67 73.6,136.01 L 73.61,136.09 Z M 73.61,136.09" />
        </g>
        <g id="fevvaTop4-group156">
            <path id="fevvaTop4-bezier155" stroke="none" fill="rgb(0, 0, 0)" d="M 75.44,127.42 C 69.76,129.22 64.05,130.88 58.17,132.01 56.7,132.27 55.22,132.52 53.68,132.51 53.29,132.5 52.9,132.47 52.5,132.39 52.11,132.28 51.61,132.18 51.31,131.62 51.28,131.55 51.26,131.48 51.24,131.4 L 51.22,131.26 51.17,130.99 51.08,130.42 50.95,129.3 C 50.8,127.81 50.73,126.31 50.8,124.81 50.83,124.06 50.88,123.31 51.02,122.57 51.09,122.2 51.17,121.83 51.3,121.47 51.43,121.12 51.58,120.74 51.92,120.52 L 51.96,120.58 C 51.68,120.8 51.56,121.17 51.47,121.52 51.39,121.87 51.34,122.24 51.31,122.6 51.25,123.34 51.23,124.07 51.25,124.81 51.29,126.29 51.41,127.76 51.61,129.22 L 51.78,130.31 51.88,130.85 51.94,131.12 51.97,131.25 C 51.98,131.27 51.99,131.28 51.99,131.3 52.04,131.43 52.34,131.57 52.66,131.63 52.98,131.7 53.34,131.72 53.69,131.73 55.13,131.76 56.61,131.57 58.07,131.36 60.99,130.92 63.89,130.27 66.78,129.58 69.67,128.89 72.55,128.15 75.42,127.35 L 75.44,127.42 Z M 75.44,127.42" />
        </g>
        <g id="fevvaTop4-group163">
            <path id="fevvaTop4-bezier162" stroke="none" fill="rgb(0, 0, 0)" d="M 177.86,113.84 C 177.67,114.46 176.92,114.71 176.3,114.6 176,114.54 175.67,114.41 175.42,114.19 175.17,113.97 174.96,113.63 175.04,113.21 175.1,112.84 175.44,112.54 175.76,112.42 176.1,112.29 176.46,112.29 176.79,112.37 177.44,112.53 178.01,113.21 177.86,113.84 Z M 177.81,113.83 C 177.87,113.53 177.67,113.26 177.44,113.12 177.2,112.97 176.94,112.91 176.68,112.86 176.19,112.78 175.57,112.86 175.42,113.32 175.31,113.73 175.82,114.24 176.36,114.36 176.62,114.43 176.92,114.46 177.21,114.39 177.49,114.33 177.75,114.12 177.81,113.83 Z M 177.81,113.83" />
        </g>
        <g id="fevvaTop4-group191">
            <path id="fevvaTop4-bezier190" stroke="none" fill="rgb(0, 0, 0)" d="M 177.81,126.09 C 177.75,125.8 177.49,125.59 177.21,125.53 176.92,125.46 176.62,125.49 176.36,125.56 175.82,125.68 175.31,126.18 175.42,126.6 175.57,127.06 176.19,127.13 176.68,127.06 176.94,127.01 177.2,126.95 177.44,126.8 177.67,126.66 177.87,126.39 177.81,126.09 Z M 177.86,126.08 C 178.01,126.71 177.44,127.39 176.79,127.55 176.46,127.63 176.1,127.63 175.76,127.5 175.44,127.38 175.1,127.08 175.04,126.71 174.96,126.29 175.18,125.95 175.42,125.73 175.67,125.51 176,125.37 176.3,125.32 176.92,125.21 177.67,125.46 177.86,126.08 Z M 177.86,126.08" />
        </g>
        <g id="fevvaTop4-group192">
            <path id="fevvaTop4-bezier191" stroke="none" fill="rgb(0, 0, 0)" d="M 185.31,124.54 C 187.32,123.78 189.32,123 191.31,122.21 L 194.3,121.01 195.77,120.38 196.49,120.04 196.83,119.86 196.98,119.76 C 197,119.75 197.02,119.73 197.03,119.73 197.03,119.72 197.04,119.71 197.03,119.73 L 197.01,119.75 C 196.99,119.79 196.98,119.83 196.98,119.87 196.96,119.93 197.06,120.06 197.03,120.02 L 196.98,119.98 196.82,119.9 196.48,119.73 195.75,119.42 194.25,118.85 191.25,117.71 C 189.26,116.89 187.26,116.12 185.31,115.2 L 185.33,115.13 C 187.43,115.64 189.47,116.32 191.51,117 192.52,117.37 193.53,117.74 194.52,118.16 L 196.01,118.81 196.75,119.16 197.12,119.36 197.31,119.48 C 197.35,119.51 197.38,119.52 197.42,119.56 197.44,119.56 197.6,119.74 197.58,119.87 197.58,119.92 197.57,119.98 197.54,120.03 197.52,120.07 197.51,120.08 197.5,120.1 197.46,120.14 197.44,120.16 197.42,120.17 197.38,120.21 197.35,120.23 197.31,120.26 L 197.11,120.37 196.74,120.55 195.98,120.87 194.48,121.46 191.44,122.56 C 189.41,123.26 187.37,123.94 185.33,124.61 L 185.31,124.54 Z M 185.31,124.54" />
        </g>
        <g id="fevvaTop4-group193">
            <path id="fevvaTop4-bezier192" stroke="none" fill="rgb(0, 0, 0)" d="M 146.92,106.59 C 145.42,105.98 143.94,105.23 142.68,104.18 141.41,103.15 140.37,101.68 140.21,99.96 140.03,98.26 140.65,96.6 141.48,95.18 141.89,94.46 142.39,93.79 142.88,93.15 143.36,92.5 143.83,91.85 144.3,91.19 148,85.92 151.24,80.23 152.97,74.03 153.84,70.94 154.32,67.73 154.29,64.52 154.28,61.31 153.72,58.12 153.05,54.95 152.72,53.37 152.37,51.78 152.14,50.16 151.91,48.55 151.83,46.88 152.18,45.26 152.52,43.63 153.32,42.14 154.38,40.9 155.43,39.65 156.71,38.61 158.04,37.69 L 158.08,37.75 C 156.78,38.71 155.54,39.77 154.54,41.03 153.53,42.28 152.81,43.76 152.52,45.33 152.22,46.89 152.33,48.51 152.58,50.1 152.83,51.69 153.22,53.26 153.58,54.84 154.32,58 154.9,61.24 154.95,64.51 155.01,67.79 154.58,71.08 153.7,74.23 151.92,80.55 148.65,86.32 144.89,91.61 144.42,92.27 143.93,92.93 143.44,93.58 142.95,94.23 142.45,94.84 142.03,95.51 141.18,96.83 140.56,98.36 140.67,99.92 140.77,101.49 141.68,102.9 142.86,103.96 144.05,105.04 145.48,105.84 146.95,106.52 L 146.92,106.59 Z M 146.92,106.59" />
        </g>
        <g id="fevvaTop4-group194">
            <path id="fevvaTop4-bezier193" stroke="none" fill="rgb(0, 0, 0)" d="M 187.99,119.87 C 187.99,118.8 187.47,117.8 186.76,117.02 186.05,116.23 185.18,115.6 184.27,115.06 182.43,113.98 180.42,113.22 178.39,112.56 174.32,111.25 170.12,110.4 165.91,109.68 161.69,108.98 157.44,108.5 153.19,107.99 148.94,107.46 144.68,107.04 140.42,106.59 L 140.42,106.52 C 144.71,106.54 149,106.85 153.27,107.24 157.54,107.66 161.79,108.31 166.01,109.09 170.23,109.89 174.44,110.82 178.51,112.21 180.54,112.92 182.55,113.73 184.39,114.87 185.3,115.44 186.17,116.1 186.88,116.92 187.58,117.74 188.09,118.78 188.07,119.87 L 187.99,119.87 Z M 187.99,119.87" />
        </g>
        <g id="fevvaTop4-group195">
            <path id="fevvaTop4-bezier194" stroke="none" fill="rgb(0, 0, 0)" d="M 140.27,134 C 144.63,133.82 148.98,133.49 153.32,133.03 157.66,132.59 161.98,132.01 166.26,131.22 170.54,130.41 174.78,129.39 178.85,127.92 180.88,127.19 182.87,126.29 184.62,125.06 185.5,124.45 186.3,123.72 186.92,122.85 187.55,122 187.95,120.96 187.99,119.87 L 188.06,119.87 C 188.11,120.97 187.79,122.09 187.2,123.04 186.61,123.99 185.81,124.79 184.93,125.48 183.18,126.85 181.15,127.8 179.11,128.62 175,130.21 170.68,131.08 166.37,131.81 162.05,132.54 157.71,133.04 153.36,133.41 149,133.76 144.64,134 140.27,134.08 L 140.27,134 Z M 140.27,134" />
        </g>
        <g id="fevvaTop4-group284">
            <path id="fevvaTop4-bezier283" stroke="none" fill="rgb(0, 0, 0)" d="M 95.47,103.43 C 92.74,101.75 90.14,99.84 87.83,97.57 86.68,96.43 85.54,95.22 84.82,93.68 84.48,92.92 84.21,92.09 84.21,91.22 84.19,90.35 84.47,89.47 85.02,88.86 L 85.11,88.91 C 84.49,90.43 84.98,91.92 85.71,93.23 86.46,94.55 87.37,95.83 88.41,97.02 89.46,98.19 90.61,99.29 91.81,100.34 93,101.39 94.24,102.4 95.53,103.34 L 95.47,103.43 Z M 95.47,103.43" />
        </g>
        <g id="fevvaTop4-group285">
            <path id="fevvaTop4-bezier284" stroke="none" fill="rgb(0, 0, 0)" d="M 90.1,92.34 C 88.86,91.5 87.7,90.54 86.65,89.45 85.63,88.35 84.68,87.11 84.21,85.57 83.72,84.03 84.06,82.21 85.1,80.96 86.15,79.71 87.62,78.96 89.13,78.75 L 89.16,78.84 C 87.85,79.56 86.68,80.44 85.9,81.56 85.14,82.66 84.68,84.03 84.98,85.38 85.29,86.73 86.1,88 87.02,89.12 87.95,90.27 89,91.32 90.15,92.26 L 90.1,92.34 Z M 90.1,92.34" />
        </g>
        <g id="fevvaTop4-group286">
            <path id="fevvaTop4-bezier285" stroke="none" fill="rgb(0, 0, 0)" d="M 93.69,82.7 C 91.65,81.2 89.75,79.47 88.28,77.33 87.56,76.27 86.85,75.07 86.8,73.66 86.71,72.25 87.5,70.82 88.66,70.22 L 88.72,70.29 C 88.36,70.82 88.05,71.34 87.9,71.9 87.75,72.46 87.72,73.02 87.8,73.58 87.95,74.69 88.36,75.84 88.96,76.91 89.56,77.97 90.32,78.97 91.14,79.92 91.94,80.87 92.81,81.78 93.75,82.63 L 93.69,82.7 Z M 93.69,82.7" />
        </g>
        <g id="fevvaTop4-group287">
            <path id="fevvaTop4-bezier286" stroke="none" fill="rgb(0, 0, 0)" d="M 98.6,76.5 C 96.09,74.47 93.77,72.18 91.95,69.45 91.06,68.09 90.2,66.59 90.05,64.84 89.98,63.99 90.08,63.08 90.45,62.29 90.81,61.5 91.4,60.84 92.1,60.4 L 92.16,60.48 C 91.67,61.12 91.29,61.8 91.11,62.53 90.93,63.25 90.92,63.99 91.04,64.73 91.29,66.19 91.86,67.66 92.63,69.03 93.42,70.4 94.37,71.68 95.39,72.91 96.41,74.14 97.5,75.32 98.66,76.42 L 98.6,76.5 Z M 98.6,76.5" />
        </g>
        <g id="fevvaTop4-group288">
            <path id="fevvaTop4-bezier287" stroke="none" fill="rgb(0, 0, 0)" d="M 105.84,71.68 C 103.21,68.65 100.71,65.49 98.53,62.09 97.45,60.38 96.43,58.62 95.67,56.7 95.3,55.74 94.98,54.73 94.99,53.6 94.99,53.05 95.11,52.45 95.43,51.91 95.74,51.37 96.28,50.98 96.82,50.78 L 96.77,50.81 C 97.4,50.53 97.93,50.49 98.5,50.47 99.07,50.47 99.62,50.56 100.14,50.72 101.19,51.03 102.14,51.57 102.95,52.24 L 102.9,52.33 C 101.95,51.88 100.98,51.52 100,51.37 99.5,51.3 99.01,51.27 98.54,51.31 98.07,51.34 97.56,51.47 97.24,51.64 L 97.22,51.65 97.19,51.67 C 96.4,52.01 96.02,52.72 96.02,53.62 95.99,54.52 96.23,55.47 96.53,56.39 97.15,58.25 98.09,60.02 99.09,61.74 101.13,65.17 103.44,68.46 105.92,71.62 L 105.84,71.68 Z M 105.84,71.68" />
        </g>
        <g id="fevvaTop4-group289">
            <path id="fevvaTop4-bezier288" stroke="none" fill="rgb(0, 0, 0)" d="M 112.48,66.41 C 110.61,62.18 108.91,57.88 107.55,53.44 106.88,51.23 106.29,48.98 105.91,46.67 105.72,45.51 105.58,44.33 105.63,43.13 105.65,42.53 105.71,41.91 105.89,41.31 106.06,40.7 106.34,40.08 106.83,39.58 L 106.86,39.55 106.87,39.54 C 107.48,39.11 108.1,38.84 108.78,38.66 109.45,38.49 110.17,38.43 110.86,38.6 111.54,38.76 112.17,39.09 112.68,39.52 113.18,39.97 113.6,40.48 113.92,41.05 L 113.84,41.11 C 112.98,40.17 111.91,39.4 110.74,39.29 110.16,39.24 109.57,39.3 109.02,39.49 108.47,39.68 107.92,39.98 107.5,40.32 L 107.55,40.28 C 106.9,40.96 106.72,42.1 106.64,43.18 106.58,44.28 106.65,45.42 106.79,46.54 107.06,48.8 107.58,51.05 108.18,53.27 109.4,57.7 110.88,62.08 112.57,66.37 L 112.48,66.41 Z M 112.48,66.41" />
        </g>
        <g id="fevvaTop4-group290">
            <path id="fevvaTop4-bezier289" stroke="none" fill="rgb(0, 0, 0)" d="M 122.34,59.66 C 121.29,57.2 120.38,54.69 119.59,52.13 118.8,49.57 118.17,46.96 117.77,44.3 117.38,41.65 117.19,38.92 117.64,36.2 117.87,34.85 118.29,33.49 119.05,32.29 119.8,31.08 120.9,30.08 122.19,29.48 L 122.25,29.46 122.28,29.45 C 123.07,29.3 123.79,29.3 124.53,29.37 125.27,29.43 125.99,29.61 126.68,29.87 128.07,30.37 129.28,31.26 130.2,32.35 L 130.13,32.42 C 129.06,31.49 127.82,30.8 126.5,30.44 125.84,30.26 125.16,30.18 124.48,30.15 123.81,30.12 123.1,30.17 122.5,30.32 L 122.59,30.29 C 120.35,31.49 119.07,33.86 118.57,36.38 118.04,38.92 118.12,41.59 118.44,44.21 118.75,46.84 119.32,49.44 119.99,52.02 120.67,54.59 121.48,57.13 122.43,59.62 L 122.34,59.66 Z M 122.34,59.66" />
        </g>
        <g id="fevvaTop4-group291">
            <path id="fevvaTop4-bezier290" stroke="none" fill="rgb(0, 0, 0)" d="M 131.45,56.16 C 131.47,52.69 131.63,49.23 131.91,45.77 132.21,42.32 132.64,38.87 133.35,35.46 133.7,33.75 134.12,32.05 134.68,30.39 135.26,28.73 135.99,27.08 137.14,25.66 137.72,24.96 138.43,24.32 139.3,23.92 139.73,23.72 140.2,23.59 140.68,23.55 141.18,23.48 141.67,23.6 142.1,23.75 142.99,24.06 143.74,24.67 144.25,25.42 144.76,26.17 145.06,27.02 145.22,27.87 L 145.12,27.9 C 144.59,26.28 143.48,24.78 141.9,24.39 141.51,24.29 141.13,24.24 140.77,24.31 140.38,24.37 140.01,24.49 139.67,24.68 138.98,25.04 138.4,25.62 137.91,26.27 136.91,27.57 136.23,29.14 135.62,30.72 135.02,32.31 134.54,33.96 134.14,35.63 133.34,38.98 132.81,42.4 132.41,45.82 132,49.25 131.7,52.7 131.55,56.16 L 131.45,56.16 Z M 131.45,56.16" />
        </g>
        <g id="fevvaTop4-group292">
            <path id="fevvaTop4-bezier291" stroke="none" fill="rgb(0, 0, 0)" d="M 140.37,50.87 C 141.62,46.93 143.09,43.05 144.92,39.32 145.84,37.46 146.8,35.58 148.16,33.94 148.84,33.14 149.59,32.36 150.53,31.78 150.99,31.5 151.5,31.26 152.04,31.15 152.59,31.05 153.17,31.11 153.64,31.35 L 153.61,31.44 C 152.59,31.25 151.67,31.72 150.93,32.35 150.19,32.99 149.54,33.75 148.94,34.56 147.76,36.19 146.64,37.9 145.63,39.69 144.64,41.48 143.74,43.33 142.88,45.21 142.02,47.08 141.21,48.98 140.46,50.9 L 140.37,50.87 Z M 140.37,50.87" />
        </g>
        <g id="fevvaTop4-group293">
            <path id="fevvaTop4-bezier292" stroke="none" fill="rgb(0, 0, 0)" d="M 146.95,134.07 C 145.48,134.75 144.05,135.55 142.86,136.63 141.68,137.69 140.77,139.1 140.67,140.67 140.56,142.23 141.18,143.76 142.02,145.08 142.44,145.75 142.95,146.36 143.44,147.01 143.93,147.66 144.42,148.32 144.89,148.98 148.65,154.28 151.92,160.04 153.7,166.36 154.58,169.52 155.01,172.8 154.95,176.08 154.9,179.36 154.31,182.59 153.58,185.75 153.22,187.33 152.83,188.91 152.58,190.49 152.33,192.08 152.22,193.7 152.52,195.27 152.8,196.83 153.53,198.31 154.54,199.56 155.54,200.82 156.78,201.89 158.08,202.84 L 158.04,202.9 C 156.71,201.98 155.43,200.95 154.37,199.69 153.32,198.45 152.51,196.96 152.17,195.34 151.83,193.71 151.91,192.04 152.14,190.43 152.36,188.81 152.72,187.22 153.05,185.64 153.72,182.47 154.28,179.29 154.29,176.07 154.32,172.86 153.84,169.65 152.97,166.56 151.24,160.36 148,154.67 144.29,149.4 143.83,148.74 143.36,148.09 142.87,147.44 142.39,146.8 141.89,146.13 141.48,145.41 140.65,143.99 140.02,142.33 140.2,140.63 140.36,138.91 141.41,137.44 142.67,136.41 143.94,135.36 145.41,134.62 146.91,134 L 146.95,134.07 Z M 146.95,134.07" />
        </g>
        <g id="fevvaTop4-group294">
            <path id="fevvaTop4-bezier293" stroke="none" fill="rgb(0, 0, 0)" d="M 95.53,137.25 C 94.24,138.19 93,139.2 91.81,140.25 90.61,141.3 89.46,142.4 88.41,143.57 87.37,144.76 86.46,146.04 85.71,147.36 84.98,148.67 84.49,150.16 85.11,151.68 L 85.02,151.73 C 84.47,151.12 84.19,150.24 84.21,149.37 84.21,148.5 84.48,147.67 84.82,146.91 85.54,145.37 86.68,144.16 87.83,143.02 90.14,140.75 92.74,138.84 95.47,137.16 L 95.53,137.25 Z M 95.53,137.25" />
        </g>
        <g id="fevvaTop4-group295">
            <path id="fevvaTop4-bezier294" stroke="none" fill="rgb(0, 0, 0)" d="M 90.15,148.34 C 89.01,149.27 87.95,150.33 87.03,151.47 86.1,152.6 85.29,153.86 84.98,155.22 84.68,156.56 85.15,157.93 85.9,159.03 86.67,160.15 87.85,161.03 89.16,161.75 L 89.13,161.84 C 87.62,161.63 86.15,160.88 85.1,159.64 84.06,158.38 83.72,156.56 84.21,155.02 84.68,153.48 85.63,152.24 86.65,151.14 87.7,150.05 88.86,149.09 90.1,148.26 L 90.15,148.34 Z M 90.15,148.34" />
        </g>
        <g id="fevvaTop4-group296">
            <path id="fevvaTop4-bezier295" stroke="none" fill="rgb(0, 0, 0)" d="M 93.75,157.96 C 92.82,158.81 91.94,159.72 91.14,160.67 90.32,161.62 89.56,162.61 88.96,163.68 88.36,164.75 87.95,165.9 87.8,167.01 87.72,167.57 87.75,168.13 87.9,168.69 88.05,169.25 88.36,169.77 88.72,170.3 L 88.66,170.37 C 87.5,169.77 86.71,168.34 86.8,166.93 86.85,165.52 87.56,164.32 88.28,163.26 89.75,161.12 91.65,159.39 93.69,157.89 L 93.75,157.96 Z M 93.75,157.96" />
        </g>
        <g id="fevvaTop4-group297">
            <path id="fevvaTop4-bezier296" stroke="none" fill="rgb(0, 0, 0)" d="M 98.66,164.17 C 97.5,165.27 96.41,166.45 95.39,167.68 94.37,168.91 93.41,170.19 92.63,171.56 91.86,172.93 91.28,174.4 91.04,175.86 90.92,176.6 90.93,177.34 91.11,178.06 91.29,178.79 91.67,179.47 92.16,180.11 L 92.1,180.19 C 91.4,179.75 90.81,179.09 90.45,178.3 90.08,177.51 89.98,176.6 90.05,175.75 90.2,174 91.06,172.5 91.95,171.14 93.77,168.41 96.09,166.12 98.6,164.09 L 98.66,164.17 Z M 98.66,164.17" />
        </g>
        <g id="fevvaTop4-group298">
            <path id="fevvaTop4-bezier297" stroke="none" fill="rgb(0, 0, 0)" d="M 105.92,168.97 C 103.45,172.13 101.14,175.42 99.09,178.85 98.09,180.57 97.15,182.34 96.53,184.2 96.23,185.12 95.99,186.07 96.02,186.96 96.02,187.87 96.4,188.57 97.19,188.92 L 97.22,188.93 97.24,188.94 C 97.56,189.12 98.08,189.25 98.54,189.28 99.01,189.32 99.51,189.29 100,189.22 100.98,189.07 101.95,188.71 102.9,188.26 L 102.95,188.35 C 102.14,189.02 101.19,189.56 100.14,189.87 99.62,190.03 99.07,190.12 98.51,190.11 97.93,190.1 97.4,190.06 96.77,189.78 L 96.83,189.81 C 96.28,189.61 95.74,189.22 95.43,188.68 95.11,188.14 94.99,187.54 94.99,186.99 94.98,185.86 95.3,184.85 95.67,183.89 96.43,181.96 97.45,180.21 98.53,178.5 100.71,175.1 103.21,171.94 105.84,168.9 L 105.92,168.97 Z M 105.92,168.97" />
        </g>
        <g id="fevvaTop4-group299">
            <path id="fevvaTop4-bezier298" stroke="none" fill="rgb(0, 0, 0)" d="M 112.57,174.22 C 110.88,178.52 109.4,182.89 108.18,187.33 107.58,189.54 107.06,191.79 106.79,194.05 106.65,195.18 106.58,196.31 106.64,197.41 106.72,198.49 106.9,199.63 107.54,200.31 L 107.5,200.27 C 107.92,200.61 108.47,200.92 109.02,201.1 109.57,201.29 110.16,201.35 110.74,201.3 111.91,201.19 112.98,200.43 113.83,199.49 L 113.92,199.54 C 113.6,200.11 113.18,200.63 112.68,201.07 112.16,201.5 111.54,201.84 110.85,201.99 110.17,202.16 109.45,202.1 108.77,201.93 108.09,201.75 107.48,201.48 106.87,201.05 L 106.85,201.04 106.83,201.01 C 106.34,200.51 106.06,199.89 105.89,199.28 105.71,198.68 105.65,198.06 105.63,197.46 105.58,196.26 105.72,195.08 105.9,193.93 106.29,191.61 106.88,189.37 107.55,187.15 108.91,182.71 110.61,178.41 112.48,174.19 L 112.57,174.22 Z M 112.57,174.22" />
        </g>
        <g id="fevvaTop4-group300">
            <path id="fevvaTop4-bezier299" stroke="none" fill="rgb(0, 0, 0)" d="M 122.44,180.97 C 121.48,183.46 120.68,186 119.99,188.57 119.32,191.15 118.75,193.75 118.44,196.38 118.13,199 118.04,201.67 118.57,204.21 119.07,206.73 120.35,209.1 122.59,210.3 L 122.5,210.27 C 123.1,210.42 123.81,210.47 124.48,210.44 125.16,210.41 125.84,210.33 126.5,210.15 127.82,209.79 129.06,209.1 130.13,208.17 L 130.2,208.24 C 129.28,209.33 128.07,210.22 126.68,210.72 126,210.98 125.27,211.16 124.53,211.22 123.79,211.29 123.07,211.29 122.28,211.14 L 122.25,211.13 122.19,211.11 C 120.9,210.51 119.8,209.51 119.05,208.3 118.29,207.1 117.87,205.74 117.64,204.39 117.19,201.67 117.38,198.94 117.77,196.29 118.17,193.63 118.8,191.02 119.59,188.46 120.38,185.9 121.29,183.39 122.35,180.93 L 122.44,180.97 Z M 122.44,180.97" />
        </g>
        <g id="fevvaTop4-group301">
            <path id="fevvaTop4-bezier300" stroke="none" fill="rgb(0, 0, 0)" d="M 131.55,184.43 C 131.7,187.89 132,191.34 132.41,194.76 132.81,198.19 133.34,201.61 134.14,204.96 134.54,206.62 135.02,208.27 135.62,209.87 136.23,211.45 136.91,213.01 137.91,214.32 138.4,214.97 138.98,215.55 139.67,215.91 140.01,216.1 140.38,216.22 140.77,216.28 141.13,216.35 141.51,216.3 141.9,216.2 143.48,215.81 144.59,214.31 145.12,212.69 L 145.22,212.72 C 145.07,213.57 144.76,214.42 144.26,215.17 143.74,215.92 142.99,216.53 142.1,216.84 141.67,216.99 141.18,217.1 140.68,217.04 140.2,217 139.73,216.87 139.3,216.67 138.43,216.27 137.72,215.63 137.14,214.93 135.99,213.51 135.26,211.86 134.68,210.2 134.12,208.54 133.7,206.84 133.35,205.13 132.64,201.72 132.21,198.27 131.91,194.81 131.63,191.36 131.47,187.9 131.45,184.43 L 131.55,184.43 Z M 131.55,184.43" />
        </g>
        <g id="fevvaTop4-group302">
            <path id="fevvaTop4-bezier301" stroke="none" fill="rgb(0, 0, 0)" d="M 140.47,189.69 C 141.21,191.61 142.02,193.51 142.89,195.38 143.74,197.26 144.64,199.11 145.63,200.9 146.64,202.69 147.76,204.4 148.94,206.03 149.54,206.84 150.19,207.6 150.93,208.24 151.67,208.87 152.59,209.34 153.61,209.15 L 153.65,209.24 C 153.17,209.48 152.59,209.54 152.05,209.44 151.5,209.33 150.99,209.09 150.53,208.81 149.6,208.23 148.84,207.45 148.16,206.65 146.8,205.01 145.84,203.13 144.93,201.27 143.09,197.54 141.62,193.66 140.37,189.72 L 140.47,189.69 Z M 140.47,189.69" />
        </g>
    </g>
</svg>
