<?xml version="1.0" encoding="UTF-8"?>
<!DOCTYPE svg PUBLIC "-//W3C//DTD SVG 1.1//EN" "http://www.w3.org/Graphics/SVG/1.1/DTD/svg11.dtd">
<svg version="1.1" xmlns="http://www.w3.org/2000/svg" xmlns:xlink="http://www.w3.org/1999/xlink" width="240" height="240"  xml:space="preserve" id="fevvaTop5">
    <!-- Generated by PaintCode - http://www.paintcodeapp.com -->
    <g id="fevvaTop5-group2">
        <g id="fevvaTop5-group260">
            <path id="fevvaTop5-bezier259" stroke="none" fill="rgb(0, 0, 0)" d="M 173.42,113.84 C 173.23,114.46 172.48,114.71 171.86,114.6 171.56,114.54 171.24,114.41 170.98,114.19 170.74,113.97 170.52,113.63 170.6,113.21 170.66,112.84 171,112.54 171.33,112.42 171.66,112.29 172.02,112.29 172.35,112.37 173.01,112.53 173.57,113.21 173.42,113.84 Z M 173.37,113.83 C 173.43,113.53 173.23,113.26 173,113.12 172.76,112.97 172.51,112.91 172.25,112.86 171.75,112.78 171.13,112.86 170.99,113.32 170.87,113.73 171.38,114.24 171.92,114.36 172.19,114.43 172.49,114.46 172.77,114.39 173.05,114.33 173.31,114.12 173.37,113.83 Z M 173.37,113.83" />
        </g>
        <g id="fevvaTop5-group261">
            <path id="fevvaTop5-bezier260" stroke="none" fill="rgb(0, 0, 0)" d="M 180.87,124.54 C 182.88,123.78 184.88,123 186.87,122.21 L 189.86,121.01 191.33,120.38 192.05,120.04 192.39,119.86 192.54,119.76 C 192.56,119.75 192.59,119.73 192.59,119.73 192.59,119.72 192.6,119.71 192.59,119.73 L 192.57,119.75 C 192.55,119.79 192.54,119.83 192.55,119.87 192.52,119.93 192.62,120.06 192.59,120.02 L 192.54,119.98 192.38,119.9 192.04,119.73 191.31,119.42 189.81,118.85 186.81,117.71 C 184.82,116.89 182.82,116.12 180.87,115.2 L 180.89,115.13 C 182.99,115.64 185.03,116.32 187.07,117 188.08,117.37 189.09,117.74 190.09,118.16 L 191.57,118.81 192.31,119.16 192.68,119.36 192.87,119.48 C 192.91,119.51 192.94,119.52 192.99,119.56 193,119.56 193.16,119.74 193.15,119.87 193.14,119.92 193.13,119.98 193.1,120.03 193.08,120.07 193.07,120.08 193.06,120.1 193.02,120.14 193,120.16 192.98,120.17 192.94,120.21 192.91,120.23 192.87,120.26 L 192.67,120.37 192.3,120.55 191.55,120.87 190.04,121.46 187,122.56 C 184.97,123.26 182.94,123.94 180.89,124.61 L 180.87,124.54 Z M 180.87,124.54" />
        </g>
        <g id="fevvaTop5-group262">
            <path id="fevvaTop5-bezier261" stroke="none" fill="rgb(0, 0, 0)" d="M 173.37,126.09 C 173.31,125.8 173.05,125.59 172.77,125.53 172.49,125.46 172.19,125.49 171.92,125.56 171.38,125.68 170.87,126.18 170.99,126.6 171.13,127.06 171.75,127.13 172.25,127.06 172.51,127.01 172.76,126.95 173,126.8 173.23,126.66 173.43,126.39 173.37,126.09 Z M 173.42,126.08 C 173.57,126.71 173.01,127.39 172.35,127.55 172.02,127.63 171.66,127.63 171.33,127.5 171,127.38 170.67,127.08 170.6,126.71 170.52,126.29 170.74,125.95 170.99,125.73 171.24,125.51 171.56,125.37 171.86,125.32 172.49,125.21 173.23,125.46 173.42,126.08 Z M 173.42,126.08" />
        </g>
        <g id="fevvaTop5-group263">
            <path id="fevvaTop5-bezier262" stroke="none" fill="rgb(0, 0, 0)" d="M 112.29,38.39 C 104.33,37.96 96.38,37.36 88.45,36.49 84.48,36.05 80.52,35.54 76.59,34.88 72.66,34.2 68.71,33.48 64.92,32.05 L 64.88,32.03 64.84,32 C 64.23,31.49 63.17,31.73 62.69,32.38 62.16,33.02 62.51,33.93 63.2,34.5 63.87,35.11 64.78,35.48 65.65,35.93 66.52,36.36 67.41,36.78 68.3,37.18 71.86,38.77 75.57,40.01 79.35,40.98 83.13,41.97 86.99,42.63 90.87,43.11 94.76,43.58 98.67,43.84 102.59,43.93 L 102.59,44 C 98.67,44.09 94.74,43.98 90.82,43.61 86.9,43.25 83.01,42.6 79.17,41.68 75.34,40.75 71.6,39.46 67.99,37.86 67.09,37.45 66.2,37.03 65.32,36.59 64.46,36.14 63.52,35.75 62.72,35.03 62.34,34.67 61.98,34.22 61.82,33.65 61.65,33.09 61.78,32.42 62.15,31.96 62.85,31.05 64.28,30.73 65.24,31.5 L 65.16,31.45 C 68.83,32.9 72.77,33.65 76.67,34.38 80.59,35.07 84.54,35.62 88.49,36.1 96.4,37.06 104.34,37.78 112.29,38.32 L 112.29,38.39 Z M 112.29,38.39" />
        </g>
        <g id="fevvaTop5-group264">
            <path id="fevvaTop5-bezier263" stroke="none" fill="rgb(0, 0, 0)" d="M 106.71,45.91 C 98.14,45.59 89.58,45.11 81.03,44.36 76.76,43.98 72.49,43.53 68.25,42.89 66.12,42.57 64.01,42.2 61.91,41.7 60.86,41.45 59.81,41.16 58.8,40.79 57.81,40.46 56.76,40.18 55.78,40.25 55.28,40.29 54.88,40.49 54.92,40.81 54.94,41.18 55.26,41.62 55.59,41.98 56.29,42.72 57.17,43.32 58.07,43.87 59.88,44.95 61.85,45.79 63.83,46.55 67.82,48.04 71.97,49.1 76.15,49.97 84.51,51.78 93.06,52.64 101.6,53.3 L 101.59,53.37 C 97.31,53.25 93.02,52.99 88.75,52.54 84.48,52.1 80.22,51.51 76,50.69 71.79,49.84 67.61,48.75 63.57,47.24 61.55,46.47 59.57,45.59 57.71,44.45 56.79,43.87 55.88,43.25 55.11,42.42 54.75,42 54.34,41.55 54.29,40.82 54.26,40.45 54.52,40.04 54.82,39.89 55.13,39.71 55.43,39.66 55.72,39.63 56.89,39.57 57.96,39.89 58.99,40.24 59.99,40.61 61,40.9 62.04,41.16 64.11,41.67 66.21,42.05 68.32,42.39 72.55,43.07 76.81,43.56 81.07,43.98 89.59,44.82 98.15,45.41 106.71,45.84 L 106.71,45.91 Z M 106.71,45.91" />
        </g>
        <g id="fevvaTop5-group265">
            <path id="fevvaTop5-bezier264" stroke="none" fill="rgb(0, 0, 0)" d="M 70.02,50.98 C 67.61,50.43 65.16,50.06 62.71,49.81 61.49,49.7 60.25,49.61 59.04,49.71 58.74,49.74 58.43,49.78 58.16,49.87 57.88,49.96 57.67,50.12 57.73,50.32 57.88,50.78 58.44,51.18 58.91,51.53 60.94,52.9 63.19,53.93 65.49,54.77 67.81,55.62 70.17,56.31 72.56,56.94 74.94,57.56 77.35,58.1 79.76,58.61 82.18,59.13 84.6,59.61 87.02,60.05 91.87,61.02 96.74,61.82 101.6,62.75 L 101.59,62.83 C 96.67,62.32 91.77,61.62 86.89,60.79 82.02,59.9 77.17,58.86 72.4,57.52 70.01,56.85 67.64,56.12 65.32,55.23 63,54.35 60.74,53.27 58.69,51.83 58.44,51.65 58.19,51.45 57.96,51.23 57.73,51 57.49,50.77 57.39,50.38 57.34,50.18 57.44,49.93 57.59,49.81 57.74,49.68 57.9,49.62 58.06,49.57 58.38,49.47 58.69,49.43 59.01,49.41 60.26,49.33 61.5,49.45 62.73,49.58 65.19,49.89 67.63,50.3 70.04,50.9 L 70.02,50.98 Z M 70.02,50.98" />
        </g>
        <g id="fevvaTop5-group266">
            <path id="fevvaTop5-bezier265" stroke="none" fill="rgb(0, 0, 0)" d="M 69.24,58.63 C 68.79,59.11 68.38,59.62 68.12,60.2 67.85,60.78 67.8,61.46 68.1,62.01 68.72,63.12 69.97,63.71 71.12,64.23 73.51,65.23 76.05,65.86 78.58,66.48 81.12,67.08 83.68,67.58 86.21,68.24 88.73,68.91 91.26,69.58 93.73,70.47 L 93.71,70.54 C 91.13,70.07 88.59,69.51 86.03,68.97 83.48,68.41 80.96,67.74 78.43,67.06 75.91,66.36 73.38,65.67 70.97,64.58 70.38,64.29 69.79,63.98 69.25,63.59 68.71,63.21 68.19,62.74 67.9,62.11 67.59,61.48 67.68,60.73 67.98,60.14 68.28,59.54 68.72,59.04 69.18,58.58 L 69.24,58.63 Z M 69.24,58.63" />
        </g>
        <g id="fevvaTop5-group267">
            <path id="fevvaTop5-bezier266" stroke="none" fill="rgb(0, 0, 0)" d="M 75.07,69.04 C 74.85,69.42 75.13,69.85 75.4,70.16 75.67,70.48 76.01,70.75 76.35,71.01 77.04,71.52 77.79,71.96 78.55,72.36 80.07,73.17 81.67,73.85 83.28,74.47 84.9,75.08 86.56,75.57 88.19,76.14 89.82,76.73 91.47,77.24 93.1,77.87 L 93.09,77.94 C 91.35,77.73 89.65,77.32 87.96,76.86 86.28,76.38 84.66,75.72 83.06,75.03 81.45,74.33 79.87,73.58 78.37,72.69 77.62,72.23 76.89,71.75 76.21,71.19 75.88,70.9 75.55,70.6 75.28,70.25 75.03,69.92 74.73,69.43 75,69.01 L 75.07,69.04 Z M 75.07,69.04" />
        </g>
        <g id="fevvaTop5-group268">
            <path id="fevvaTop5-bezier267" stroke="none" fill="rgb(0, 0, 0)" d="M 80.25,77.28 C 80.08,77.72 80.02,78.21 80.15,78.66 80.26,79.11 80.55,79.51 80.88,79.83 81.57,80.48 82.44,80.91 83.31,81.27 85.07,81.98 86.94,82.42 88.8,82.82 90.67,83.21 92.55,83.53 94.43,83.86 95.37,84.03 96.31,84.16 97.26,84.38 98.2,84.61 99.13,84.91 100.02,85.31 103.58,86.85 106.53,90.04 107.42,93.92 108.33,97.79 107.25,101.92 104.97,104.99 L 104.91,104.95 C 106.77,101.63 107.58,97.72 106.67,94.1 106.22,92.31 105.4,90.6 104.21,89.16 103.03,87.73 101.5,86.58 99.8,85.78 98.95,85.38 98.06,85.06 97.15,84.83 96.25,84.59 95.29,84.44 94.36,84.26 92.48,83.91 90.6,83.54 88.73,83.11 86.87,82.67 85.01,82.19 83.23,81.44 82.36,81.05 81.48,80.61 80.79,79.92 80.45,79.58 80.16,79.16 80.04,78.68 79.92,78.21 80,77.7 80.17,77.25 L 80.25,77.28 Z M 80.25,77.28" />
        </g>
        <g id="fevvaTop5-group269">
            <path id="fevvaTop5-bezier268" stroke="none" fill="rgb(0, 0, 0)" d="M 109.88,105.41 C 104.71,105.55 99.54,105.37 94.38,104.99 89.23,104.59 84.08,103.95 78.99,103 76.45,102.53 73.91,101.97 71.41,101.31 68.91,100.62 66.44,99.91 63.93,99.37 61.43,98.79 58.89,98.33 56.34,98.22 55.07,98.17 53.77,98.21 52.58,98.61 52,98.8 51.42,99.12 51.12,99.66 50.82,100.18 50.92,100.93 51.4,101.34 L 51.36,101.4 C 50.81,101 50.64,100.19 50.94,99.57 51.23,98.93 51.85,98.54 52.46,98.29 53.71,97.8 55.04,97.71 56.35,97.69 58.97,97.7 61.54,98.13 64.09,98.64 66.62,99.18 69.13,99.9 71.6,100.6 74.08,101.3 76.59,101.9 79.11,102.41 84.16,103.43 89.28,104.14 94.42,104.62 99.55,105.1 104.72,105.38 109.88,105.33 L 109.88,105.41 Z M 109.88,105.41" />
        </g>
        <g id="fevvaTop5-group270">
            <path id="fevvaTop5-bezier269" stroke="none" fill="rgb(0, 0, 0)" d="M 77.21,107.74 C 73.81,107.15 70.4,106.61 66.98,106.11 63.57,105.6 60.15,105.13 56.73,104.76 55.02,104.58 53.3,104.43 51.59,104.35 50.73,104.3 49.88,104.28 49.03,104.29 48.61,104.3 48.18,104.32 47.77,104.36 47.38,104.4 46.94,104.48 46.69,104.63 46.64,104.66 46.61,104.71 46.61,104.69 46.57,104.79 46.51,104.9 46.49,104.98 46.43,105.14 46.38,105.33 46.35,105.53 46.28,105.92 46.27,106.34 46.28,106.75 46.3,107.59 46.45,108.42 46.62,109.26 46.8,110.09 47.03,110.92 47.31,111.73 47.59,112.52 47.85,113.39 48.4,114.01 L 48.36,114.07 C 47.99,113.79 47.8,113.39 47.57,113.02 47.36,112.64 47.17,112.25 46.99,111.85 46.64,111.05 46.35,110.23 46.11,109.38 45.87,108.54 45.7,107.68 45.63,106.79 45.6,106.34 45.6,105.89 45.66,105.43 45.69,105.19 45.74,104.97 45.82,104.72 45.85,104.59 45.9,104.51 45.93,104.4 46.03,104.19 46.16,104.09 46.29,104 46.79,103.71 47.24,103.67 47.69,103.6 48.14,103.55 48.58,103.52 49.02,103.51 49.9,103.5 50.77,103.55 51.63,103.61 53.37,103.74 55.09,103.94 56.8,104.16 63.66,105.06 70.46,106.3 77.22,107.67 L 77.21,107.74 Z M 77.21,107.74" />
        </g>
        <g id="fevvaTop5-group271">
            <path id="fevvaTop5-bezier270" stroke="none" fill="rgb(0, 0, 0)" d="M 79.02,114.41 C 76.4,113.67 73.76,112.99 71.11,112.35 68.46,111.7 65.8,111.1 63.13,110.63 61.79,110.4 60.44,110.2 59.1,110.09 58.43,110.04 57.76,110 57.11,110.03 56.79,110.04 56.47,110.07 56.18,110.14 55.88,110.21 55.64,110.34 55.6,110.46 55.59,110.48 55.59,110.49 55.58,110.51 L 55.55,110.63 55.49,110.88 55.37,111.38 55.16,112.37 C 55.01,113.03 54.91,113.7 54.8,114.36 54.7,115.03 54.62,115.7 54.64,116.36 54.65,117.01 54.71,117.74 55.23,118.17 L 55.19,118.24 C 54.55,117.86 54.39,117.05 54.29,116.39 54.21,115.69 54.23,115 54.27,114.31 54.31,113.61 54.42,112.93 54.52,112.25 L 54.69,111.24 54.78,110.73 54.82,110.48 54.85,110.35 C 54.86,110.29 54.89,110.22 54.91,110.16 55.17,109.64 55.64,109.5 55.99,109.4 56.36,109.31 56.72,109.27 57.08,109.25 57.79,109.23 58.48,109.28 59.17,109.36 60.55,109.51 61.9,109.76 63.24,110.04 68.6,111.16 73.85,112.69 79.05,114.34 L 79.02,114.41 Z M 79.02,114.41" />
        </g>
        <g id="fevvaTop5-group272">
            <path id="fevvaTop5-bezier271" stroke="none" fill="rgb(0, 0, 0)" d="M 109.88,134.42 C 104.72,134.46 99.57,134.78 94.44,135.28 89.31,135.78 84.21,136.48 79.15,137.46 76.63,137.95 74.12,138.52 71.63,139.17 69.15,139.84 66.62,140.49 64.05,140.89 61.48,141.25 58.85,141.45 56.25,141.04 54.96,140.81 53.67,140.44 52.56,139.69 52.01,139.31 51.52,138.83 51.22,138.23 51.08,137.93 50.98,137.6 50.98,137.26 50.98,136.93 51.07,136.56 51.36,136.36 L 51.4,136.42 C 50.93,136.86 51.11,137.62 51.41,138.13 51.72,138.66 52.21,139.08 52.74,139.4 53.82,140.06 55.08,140.36 56.33,140.51 58.85,140.81 61.42,140.57 63.94,140.15 66.47,139.76 68.94,139.12 71.45,138.46 73.96,137.85 76.5,137.32 79.04,136.87 84.13,135.96 89.26,135.33 94.41,134.91 99.56,134.51 104.72,134.29 109.88,134.35 L 109.88,134.42 Z M 109.88,134.42" />
        </g>
        <g id="fevvaTop5-group273">
            <path id="fevvaTop5-bezier272" stroke="none" fill="rgb(0, 0, 0)" d="M 77.22,132.09 C 70.4,133 63.56,133.8 56.69,134.25 54.97,134.36 53.25,134.45 51.52,134.46 50.65,134.46 49.79,134.45 48.91,134.38 48.47,134.35 48.04,134.3 47.6,134.21 47.15,134.11 46.71,134.05 46.23,133.72 46.12,133.64 45.97,133.47 45.92,133.32 45.88,133.21 45.84,133.13 45.8,133 45.72,132.74 45.68,132.53 45.65,132.29 45.6,131.84 45.6,131.38 45.63,130.94 45.7,130.05 45.87,129.19 46.11,128.35 46.36,127.51 46.65,126.69 46.99,125.9 47.17,125.5 47.36,125.11 47.57,124.73 47.8,124.36 47.99,123.96 48.36,123.69 L 48.4,123.75 C 47.85,124.36 47.6,125.23 47.31,126.02 47.03,126.83 46.8,127.65 46.62,128.48 46.46,129.31 46.31,130.14 46.28,130.98 46.27,131.39 46.28,131.8 46.35,132.19 46.37,132.39 46.42,132.59 46.48,132.75 46.5,132.82 46.55,132.93 46.6,133.03 46.62,133.08 46.62,133.07 46.68,133.12 46.91,133.29 47.34,133.39 47.73,133.46 48.14,133.53 48.56,133.58 48.98,133.61 49.82,133.68 50.67,133.71 51.52,133.72 53.23,133.75 54.95,133.71 56.66,133.64 60.09,133.5 63.52,133.25 66.94,132.97 70.37,132.69 73.79,132.38 77.21,132.01 L 77.22,132.09 Z M 77.22,132.09" />
        </g>
        <g id="fevvaTop5-group274">
            <path id="fevvaTop5-bezier273" stroke="none" fill="rgb(0, 0, 0)" d="M 79.04,125.42 C 74.09,126.58 69.1,127.6 64.04,128.28 62.77,128.45 61.5,128.61 60.22,128.68 58.94,128.75 57.64,128.79 56.32,128.48 55.99,128.39 55.65,128.28 55.33,128.04 55.17,127.92 55.01,127.74 54.94,127.51 54.87,127.29 54.87,127.18 54.83,127.01 54.71,126.39 54.59,125.76 54.48,125.13 54.38,124.5 54.26,123.86 54.29,123.2 54.29,122.55 54.58,121.81 55.19,121.52 L 55.23,121.59 C 54.7,121.95 54.54,122.59 54.6,123.2 54.65,123.81 54.79,124.42 54.95,125.03 L 55.43,126.88 C 55.46,127.02 55.5,127.23 55.54,127.3 55.57,127.38 55.62,127.45 55.73,127.51 55.92,127.64 56.2,127.73 56.49,127.79 57.66,128 58.94,127.96 60.19,127.93 61.44,127.88 62.71,127.79 63.97,127.67 66.49,127.42 69.01,127.06 71.51,126.66 74.02,126.26 76.53,125.83 79.03,125.35 L 79.04,125.42 Z M 79.04,125.42" />
        </g>
        <g id="fevvaTop5-group275">
            <path id="fevvaTop5-bezier274" stroke="none" fill="rgb(0, 0, 0)" d="M 153.09,102.64 C 152.79,102.1 152.55,101.51 152.35,100.92 L 152.34,100.91 152.34,100.89 C 151.85,95.29 151.41,89.69 151.04,84.09 150.68,78.48 150.33,72.87 150.32,67.23 150.33,65.82 150.35,64.42 150.51,63 150.7,61.59 150.97,60.21 151.21,58.83 151.69,56.07 152.11,53.29 151.9,50.52 151.72,47.77 150.76,45.07 148.93,43.01 147.12,40.93 144.66,39.53 142.08,38.54 136.87,36.55 131.34,35.42 125.85,34.31 120.34,33.24 114.8,32.34 109.26,31.44 103.71,30.54 98.16,29.68 92.63,28.62 89.87,28.09 87.11,27.53 84.38,26.85 81.65,26.15 78.91,25.43 76.35,24.15 L 76.62,24.13 C 76,24.54 75.45,25.13 75.6,25.78 75.75,26.43 76.37,26.99 76.97,27.44 78.22,28.34 79.67,29 81.12,29.61 84.03,30.81 87.07,31.74 90.11,32.61 96.21,34.31 102.38,35.75 108.6,36.99 L 108.59,37.06 C 102.35,35.92 96.14,34.63 90.01,32.97 86.95,32.13 83.9,31.22 80.94,30.04 79.47,29.44 78,28.79 76.67,27.84 76.03,27.36 75.33,26.81 75.09,25.89 74.98,25.43 75.12,24.92 75.38,24.56 75.64,24.19 75.97,23.91 76.31,23.68 L 76.44,23.59 76.59,23.66 C 79.07,24.87 81.81,25.58 84.52,26.25 87.25,26.9 90,27.43 92.76,27.94 98.28,28.92 103.83,29.8 109.37,30.7 114.92,31.6 120.47,32.5 125.99,33.58 131.5,34.69 137.03,35.86 142.32,37.9 144.95,38.92 147.52,40.39 149.41,42.59 151.33,44.76 152.32,47.64 152.49,50.48 152.69,53.33 152.25,56.16 151.76,58.92 151.51,60.31 151.24,61.69 151.05,63.06 150.88,64.43 150.86,65.84 150.84,67.23 150.83,72.84 151.15,78.45 151.48,84.05 151.83,89.66 152.25,95.26 152.72,100.86 L 152.71,100.83 C 152.81,101.43 152.95,102.02 153.15,102.6 L 153.09,102.64 Z M 153.09,102.64" />
        </g>
        <g id="fevvaTop5-group276">
            <path id="fevvaTop5-bezier275" stroke="none" fill="rgb(0, 0, 0)" d="M 112.29,202.01 C 104.34,202.54 96.4,203.26 88.49,204.22 84.54,204.7 80.59,205.25 76.67,205.94 72.77,206.67 68.83,207.42 65.16,208.87 L 65.24,208.82 C 64.28,209.59 62.85,209.27 62.15,208.36 61.78,207.9 61.65,207.23 61.82,206.67 61.98,206.1 62.34,205.65 62.73,205.3 63.52,204.57 64.46,204.19 65.32,203.73 66.2,203.29 67.09,202.87 67.99,202.47 71.6,200.86 75.34,199.57 79.18,198.64 83.01,197.72 86.9,197.07 90.82,196.71 94.74,196.34 98.67,196.23 102.6,196.32 L 102.6,196.4 C 98.67,196.48 94.76,196.74 90.87,197.21 86.99,197.69 83.13,198.35 79.35,199.34 75.57,200.31 71.86,201.55 68.3,203.15 67.41,203.54 66.53,203.96 65.65,204.39 64.78,204.84 63.87,205.22 63.2,205.82 62.51,206.4 62.16,207.3 62.69,207.95 63.17,208.6 64.23,208.83 64.85,208.32 L 64.88,208.29 64.92,208.27 C 68.71,206.84 72.66,206.13 76.59,205.44 80.53,204.78 84.48,204.27 88.45,203.83 96.38,202.97 104.33,202.36 112.29,201.93 L 112.29,202.01 Z M 112.29,202.01" />
        </g>
        <g id="fevvaTop5-group277">
            <path id="fevvaTop5-bezier276" stroke="none" fill="rgb(0, 0, 0)" d="M 106.71,194.48 C 98.15,194.9 89.6,195.5 81.07,196.34 76.81,196.76 72.55,197.25 68.32,197.92 66.21,198.27 64.11,198.65 62.04,199.16 61,199.42 59.99,199.71 58.99,200.08 57.96,200.43 56.9,200.75 55.73,200.68 55.43,200.66 55.13,200.61 54.82,200.43 54.52,200.28 54.26,199.87 54.29,199.5 54.34,198.77 54.75,198.32 55.11,197.9 55.88,197.07 56.79,196.44 57.71,195.87 59.57,194.73 61.55,193.85 63.57,193.08 67.61,191.57 71.79,190.48 76,189.63 80.23,188.81 84.48,188.22 88.75,187.78 93.02,187.33 97.31,187.07 101.59,186.95 L 101.6,187.02 C 93.06,187.68 84.51,188.54 76.15,190.35 71.97,191.22 67.82,192.28 63.83,193.77 61.85,194.53 59.88,195.37 58.07,196.45 57.17,197 56.29,197.6 55.59,198.34 55.26,198.69 54.94,199.14 54.92,199.51 54.88,199.83 55.29,200.03 55.78,200.07 56.76,200.14 57.81,199.85 58.8,199.53 59.81,199.16 60.86,198.87 61.91,198.62 64.01,198.12 66.12,197.75 68.25,197.43 72.49,196.79 76.76,196.34 81.03,195.96 89.58,195.21 98.14,194.72 106.71,194.4 L 106.71,194.48 Z M 106.71,194.48" />
        </g>
        <g id="fevvaTop5-group278">
            <path id="fevvaTop5-bezier277" stroke="none" fill="rgb(0, 0, 0)" d="M 70.04,189.42 C 67.63,190.02 65.19,190.44 62.73,190.74 61.5,190.87 60.27,190.99 59.01,190.92 58.7,190.89 58.38,190.85 58.06,190.76 57.9,190.7 57.74,190.64 57.59,190.51 57.44,190.39 57.34,190.14 57.39,189.94 57.49,189.55 57.73,189.32 57.96,189.09 58.19,188.87 58.44,188.67 58.69,188.49 60.74,187.05 63,185.98 65.32,185.09 67.64,184.2 70.01,183.47 72.4,182.8 77.17,181.46 82.02,180.42 86.89,179.53 91.77,178.7 96.67,178.01 101.59,177.49 L 101.6,177.57 C 96.74,178.5 91.87,179.3 87.03,180.27 84.6,180.72 82.18,181.19 79.77,181.72 77.35,182.22 74.94,182.77 72.56,183.38 70.17,184.01 67.81,184.7 65.49,185.55 63.19,186.39 60.94,187.42 58.91,188.79 58.44,189.14 57.88,189.54 57.73,190 57.67,190.2 57.88,190.36 58.16,190.45 58.43,190.54 58.74,190.59 59.04,190.62 60.25,190.72 61.49,190.62 62.71,190.51 65.16,190.26 67.61,189.9 70.02,189.35 L 70.04,189.42 Z M 70.04,189.42" />
        </g>
        <g id="fevvaTop5-group279">
            <path id="fevvaTop5-bezier278" stroke="none" fill="rgb(0, 0, 0)" d="M 69.18,181.74 C 68.72,181.28 68.28,180.78 67.98,180.18 67.68,179.59 67.59,178.84 67.9,178.21 68.19,177.59 68.71,177.11 69.25,176.73 69.79,176.34 70.38,176.03 70.97,175.75 73.38,174.66 75.91,173.96 78.43,173.26 80.96,172.58 83.48,171.91 86.03,171.35 88.59,170.82 91.13,170.25 93.71,169.79 L 93.73,169.86 C 91.26,170.74 88.73,171.41 86.21,172.08 83.68,172.74 81.12,173.24 78.58,173.85 76.05,174.47 73.51,175.09 71.12,176.09 69.97,176.61 68.72,177.2 68.1,178.31 67.8,178.86 67.85,179.54 68.12,180.12 68.38,180.71 68.79,181.22 69.24,181.69 L 69.18,181.74 Z M 69.18,181.74" />
        </g>
        <g id="fevvaTop5-group280">
            <path id="fevvaTop5-bezier279" stroke="none" fill="rgb(0, 0, 0)" d="M 75,171.32 C 74.73,170.89 75.03,170.4 75.28,170.07 75.55,169.72 75.88,169.42 76.21,169.14 76.89,168.57 77.62,168.09 78.37,167.64 79.87,166.75 81.45,165.99 83.06,165.3 84.66,164.61 86.28,163.95 87.96,163.47 89.65,163.01 91.35,162.59 93.09,162.38 L 93.1,162.46 C 91.47,163.08 89.82,163.6 88.19,164.18 86.56,164.75 84.9,165.25 83.28,165.86 81.67,166.47 80.07,167.15 78.55,167.96 77.79,168.37 77.04,168.8 76.35,169.31 76.01,169.57 75.68,169.85 75.4,170.17 75.13,170.47 74.85,170.9 75.07,171.28 L 75,171.32 Z M 75,171.32" />
        </g>
        <g id="fevvaTop5-group281">
            <path id="fevvaTop5-bezier280" stroke="none" fill="rgb(0, 0, 0)" d="M 80.17,163.07 C 80,162.62 79.92,162.11 80.05,161.64 80.16,161.16 80.45,160.74 80.79,160.4 81.49,159.71 82.36,159.27 83.24,158.88 85.01,158.13 86.87,157.65 88.74,157.21 90.6,156.78 92.48,156.42 94.36,156.06 95.3,155.88 96.25,155.73 97.15,155.5 98.07,155.26 98.96,154.94 99.8,154.54 101.5,153.74 103.03,152.59 104.21,151.16 105.4,149.72 106.22,148.02 106.67,146.22 107.59,142.6 106.77,138.69 104.91,135.37 L 104.98,135.33 C 107.25,138.41 108.34,142.53 107.42,146.4 106.53,150.28 103.58,153.47 100.02,155.02 99.13,155.41 98.21,155.72 97.26,155.94 96.31,156.16 95.37,156.29 94.43,156.46 92.55,156.79 90.67,157.11 88.8,157.5 86.94,157.9 85.08,158.34 83.31,159.05 82.44,159.42 81.57,159.84 80.88,160.49 80.55,160.81 80.27,161.21 80.15,161.66 80.02,162.11 80.08,162.6 80.25,163.04 L 80.17,163.07 Z M 80.17,163.07" />
        </g>
        <g id="fevvaTop5-group282">
            <path id="fevvaTop5-bezier281" stroke="none" fill="rgb(0, 0, 0)" d="M 153.16,137.72 C 152.95,138.3 152.82,138.89 152.72,139.49 L 152.72,139.46 C 152.25,145.06 151.84,150.66 151.49,156.27 151.15,161.87 150.84,167.48 150.85,173.09 150.86,174.48 150.89,175.89 151.05,177.26 151.24,178.63 151.52,180.01 151.76,181.4 152.26,184.16 152.7,186.99 152.5,189.84 152.32,192.68 151.33,195.56 149.41,197.73 147.53,199.93 144.96,201.4 142.33,202.42 137.03,204.46 131.5,205.63 125.99,206.74 120.47,207.82 114.92,208.72 109.38,209.62 103.83,210.52 98.29,211.4 92.76,212.38 90,212.89 87.25,213.42 84.53,214.07 81.82,214.74 79.08,215.45 76.6,216.66 L 76.45,216.73 76.32,216.64 C 75.98,216.41 75.65,216.13 75.39,215.76 75.13,215.4 74.98,214.89 75.09,214.43 75.33,213.51 76.04,212.96 76.67,212.48 78,211.53 79.47,210.88 80.94,210.28 83.9,209.1 86.95,208.19 90.01,207.35 96.14,205.69 102.35,204.4 108.59,203.26 L 108.61,203.33 C 102.39,204.57 96.21,206.01 90.11,207.71 87.07,208.58 84.04,209.51 81.12,210.71 79.67,211.32 78.22,211.98 76.97,212.88 76.37,213.33 75.76,213.89 75.61,214.54 75.45,215.19 76.01,215.78 76.63,216.19 L 76.35,216.17 C 78.91,214.89 81.66,214.17 84.38,213.47 87.12,212.79 89.88,212.23 92.64,211.7 98.16,210.64 103.72,209.78 109.26,208.88 114.81,207.98 120.35,207.08 125.86,206.01 131.34,204.9 136.87,203.77 142.08,201.78 144.67,200.79 147.13,199.39 148.94,197.31 150.77,195.25 151.72,192.55 151.91,189.8 152.11,187.03 151.7,184.25 151.21,181.49 150.97,180.11 150.7,178.73 150.51,177.32 150.35,175.9 150.33,174.5 150.33,173.09 150.34,167.45 150.68,161.84 151.04,156.23 151.41,150.63 151.85,145.03 152.35,139.43 L 152.35,139.41 152.35,139.4 C 152.55,138.81 152.8,138.22 153.09,137.68 L 153.16,137.72 Z M 153.16,137.72" />
        </g>
        <g id="fevvaTop5-group283">
            <path id="fevvaTop5-bezier282" stroke="none" fill="rgb(0, 0, 0)" d="M 144.19,134.05 C 151.18,133.97 158.12,132.69 164.77,130.62 168.1,129.57 171.36,128.3 174.43,126.67 175.96,125.84 177.44,124.93 178.76,123.82 179.41,123.26 180.02,122.66 180.5,121.97 180.98,121.29 181.33,120.51 181.28,119.73 181.23,118.94 180.86,118.16 180.38,117.49 179.88,116.81 179.28,116.2 178.63,115.65 177.33,114.54 175.85,113.62 174.33,112.8 171.29,111.16 168.02,109.92 164.7,108.89 158.06,106.79 151.15,105.61 144.19,105.01 L 144.2,104.93 C 151.19,105.12 158.18,106.19 164.92,108.18 168.28,109.21 171.58,110.47 174.69,112.15 176.24,112.99 177.74,113.96 179.08,115.13 179.75,115.72 180.38,116.37 180.91,117.12 181.42,117.86 181.85,118.73 181.89,119.7 181.94,120.68 181.51,121.58 180.98,122.31 180.45,123.05 179.79,123.67 179.11,124.24 177.74,125.37 176.22,126.29 174.66,127.1 171.54,128.72 168.24,129.96 164.89,130.98 158.18,132.97 151.19,134.15 144.19,134.13 L 144.19,134.05 Z M 144.19,134.05" />
        </g>
    </g>
</svg>
