<?xml version="1.0" encoding="UTF-8"?>
<!DOCTYPE svg PUBLIC "-//W3C//DTD SVG 1.1//EN" "http://www.w3.org/Graphics/SVG/1.1/DTD/svg11.dtd">
<svg version="1.1" xmlns="http://www.w3.org/2000/svg" xmlns:xlink="http://www.w3.org/1999/xlink" width="240" height="240"  xml:space="preserve" id="fevvaTop1">
    <!-- Generated by PaintCode - http://www.paintcodeapp.com -->
    <g id="fevvaTop1-group2">
        <g id="fevvaTop1-group3">
            <path id="fevvaTop1-bezier2" stroke="none" fill="rgb(0, 0, 0)" d="M 173.38,113.84 C 173.19,114.46 172.44,114.71 171.81,114.6 171.51,114.54 171.19,114.41 170.94,114.19 170.69,113.97 170.48,113.63 170.55,113.21 170.62,112.84 170.95,112.54 171.28,112.42 171.61,112.29 171.97,112.29 172.31,112.37 172.96,112.53 173.52,113.21 173.38,113.84 Z M 173.33,113.83 C 173.38,113.53 173.18,113.26 172.95,113.12 172.72,112.97 172.46,112.91 172.2,112.86 171.71,112.78 171.08,112.86 170.94,113.32 170.82,113.73 171.34,114.24 171.88,114.36 172.14,114.43 172.44,114.46 172.72,114.39 173,114.33 173.27,114.12 173.33,113.83 Z M 173.33,113.83" />
        </g>
        <g id="fevvaTop1-group131">
            <path id="fevvaTop1-bezier130" stroke="none" fill="rgb(0, 0, 0)" d="M 152.45,102.68 C 151.41,97.6 150.67,92.43 150.72,87.23 150.75,85.93 150.83,84.62 151.04,83.33 151.25,82.05 151.58,80.76 152.2,79.59 152.52,79.01 152.92,78.46 153.45,78.03 153.97,77.63 154.43,77.22 154.81,76.71 155.59,75.71 155.85,74.39 155.56,73.17 155.29,71.94 154.62,70.82 153.85,69.8 153.07,68.78 152.17,67.86 151.21,67 149.29,65.28 147.17,63.79 144.98,62.43 142.78,61.07 140.47,59.9 138.16,58.73 135.84,57.57 133.51,56.44 131.17,55.32 126.48,53.1 121.76,50.95 117.02,48.86 112.28,46.74 107.53,44.68 102.72,42.75 100.32,41.78 97.91,40.81 95.46,40.01 94.85,39.81 94.23,39.62 93.62,39.47 93.31,39.39 93,39.33 92.7,39.29 92.4,39.25 92.05,39.28 92.16,39.35 92.14,39.43 92.3,39.76 92.5,39.96 92.7,40.19 92.93,40.4 93.17,40.6 93.66,41 94.19,41.37 94.73,41.72 96.9,43.1 99.21,44.28 101.53,45.44 103.85,46.6 106.2,47.71 108.56,48.76 L 108.53,48.83 C 103.74,46.85 98.95,44.81 94.47,42.12 93.92,41.77 93.37,41.41 92.85,41 92.59,40.79 92.33,40.57 92.1,40.31 91.98,40.18 91.87,40.04 91.78,39.87 91.69,39.7 91.59,39.53 91.63,39.21 91.65,39.15 91.63,39.18 91.68,39.05 91.72,38.95 91.79,38.88 91.86,38.84 92,38.76 92.1,38.74 92.21,38.73 92.41,38.7 92.58,38.72 92.75,38.73 93.1,38.77 93.42,38.83 93.75,38.9 94.39,39.05 95.02,39.23 95.65,39.42 98.14,40.19 100.57,41.12 102.99,42.05 112.63,45.94 122.08,50.26 131.43,54.78 133.76,55.91 136.09,57.06 138.4,58.24 140.71,59.44 143.03,60.62 145.24,62.01 147.44,63.4 149.57,64.92 151.5,66.68 152.47,67.56 153.38,68.51 154.17,69.56 154.95,70.61 155.65,71.77 155.93,73.09 156.23,74.4 155.93,75.86 155.08,76.91 154.68,77.43 154.15,77.89 153.65,78.27 153.16,78.66 152.78,79.18 152.47,79.73 151.85,80.85 151.52,82.11 151.3,83.37 151.08,84.64 150.98,85.93 150.95,87.23 150.85,92.4 151.53,97.58 152.52,102.66 L 152.45,102.68 Z M 152.45,102.68" />
        </g>
        <g id="fevvaTop1-group132">
            <path id="fevvaTop1-bezier131" stroke="none" fill="rgb(0, 0, 0)" d="M 114.92,50.96 C 107.53,49.42 100.17,47.75 92.85,45.92 89.19,44.99 85.54,44.02 81.92,42.96 78.3,41.87 74.68,40.76 71.2,39.22 70.34,38.82 69.48,38.4 68.67,37.85 68.33,37.62 67.92,37.48 67.55,37.51 67.18,37.55 66.99,37.75 67.01,38.1 67.09,38.84 67.75,39.6 68.39,40.21 69.06,40.84 69.79,41.38 70.58,41.88 73.73,43.87 77.23,45.32 80.75,46.6 87.8,49.2 95.15,50.96 102.56,52.39 L 102.54,52.46 C 95.06,51.45 87.65,49.8 80.49,47.31 76.94,46.01 73.42,44.55 70.18,42.5 69.38,41.98 68.6,41.4 67.9,40.72 67.55,40.38 67.22,40.02 66.93,39.6 66.65,39.19 66.38,38.73 66.34,38.13 66.33,37.84 66.41,37.48 66.65,37.24 66.89,36.98 67.21,36.88 67.5,36.86 68.08,36.82 68.61,37.03 69.04,37.33 69.78,37.85 70.61,38.28 71.45,38.67 74.86,40.22 78.47,41.37 82.06,42.49 85.66,43.59 89.3,44.59 92.94,45.56 100.23,47.48 107.57,49.25 114.93,50.89 L 114.92,50.96 Z M 114.92,50.96" />
        </g>
        <g id="fevvaTop1-group133">
            <path id="fevvaTop1-bezier132" stroke="none" fill="rgb(0, 0, 0)" d="M 108.17,54.34 C 100.2,53.59 92.24,52.73 84.29,51.73 80.32,51.22 76.35,50.67 72.4,50.02 70.42,49.7 68.45,49.35 66.48,48.93 65.5,48.72 64.52,48.5 63.55,48.24 62.57,47.96 61.64,47.7 60.67,47.62 60.19,47.57 59.7,47.56 59.25,47.64 58.8,47.71 58.35,47.88 58.19,48.17 58.02,48.44 58.14,48.87 58.39,49.25 58.63,49.63 58.97,49.98 59.33,50.3 60.79,51.57 62.58,52.49 64.37,53.33 67.97,54.99 71.79,56.2 75.63,57.24 83.32,59.42 91.22,60.74 99.13,61.98 L 99.12,62.06 C 97.13,61.85 95.14,61.62 93.15,61.36 91.17,61.08 89.19,60.78 87.21,60.44 83.26,59.76 79.33,58.97 75.44,57.97 71.56,56.91 67.72,55.69 64.05,54 62.24,53.12 60.43,52.17 58.88,50.79 58.49,50.44 58.13,50.06 57.84,49.59 57.56,49.16 57.28,48.49 57.64,47.85 58.02,47.26 58.64,47.11 59.15,47.03 59.69,46.95 60.21,46.97 60.73,47.02 68.54,49.05 76.4,50.26 84.34,51.36 92.27,52.46 100.22,53.41 108.18,54.26 L 108.17,54.34 Z M 108.17,54.34" />
        </g>
        <g id="fevvaTop1-group134">
            <path id="fevvaTop1-bezier133" stroke="none" fill="rgb(0, 0, 0)" d="M 73.29,59.56 C 71.17,59.04 69.1,58.34 66.98,57.88 66.45,57.77 65.91,57.66 65.38,57.6 64.85,57.54 64.29,57.49 63.83,57.64 63.34,57.79 63.61,58.37 63.91,58.78 64.21,59.21 64.58,59.6 64.96,59.98 68,63.12 71.97,65.04 76.06,66.46 80.16,67.88 84.41,68.8 88.67,69.64 92.93,70.5 97.24,71.09 101.55,71.76 L 101.54,71.84 C 97.19,71.59 92.84,71.11 88.53,70.38 84.23,69.63 79.97,68.54 75.85,67.03 73.8,66.27 71.78,65.39 69.88,64.29 67.95,63.22 66.23,61.81 64.69,60.25 64.31,59.85 63.94,59.44 63.63,58.97 63.47,58.74 63.32,58.49 63.26,58.18 63.22,58.02 63.23,57.84 63.32,57.67 63.42,57.51 63.58,57.42 63.72,57.37 64.31,57.18 64.86,57.27 65.41,57.34 65.96,57.42 66.49,57.53 67.02,57.66 69.15,58.17 71.2,58.93 73.3,59.49 L 73.29,59.56 Z M 73.29,59.56" />
        </g>
        <g id="fevvaTop1-group135">
            <path id="fevvaTop1-bezier134" stroke="none" fill="rgb(0, 0, 0)" d="M 81.2,70.87 C 80.54,71.31 79.74,71.57 79.28,72.17 79.04,72.46 79.08,72.82 79.33,73.09 79.56,73.37 79.88,73.59 80.21,73.78 81.56,74.53 83.08,74.99 84.58,75.44 86.09,75.87 87.63,76.19 89.15,76.62 90.66,77.07 92.18,77.47 93.68,78.02 L 93.66,78.09 C 92.08,77.96 90.52,77.67 88.97,77.35 87.42,77.01 85.9,76.52 84.4,76.01 82.9,75.49 81.39,74.95 80.02,74.1 79.68,73.87 79.35,73.62 79.09,73.27 78.97,73.1 78.86,72.89 78.86,72.65 78.85,72.41 78.96,72.19 79.1,72.03 79.68,71.39 80.49,71.2 81.15,70.81 L 81.2,70.87 Z M 81.2,70.87" />
        </g>
        <g id="fevvaTop1-group136">
            <path id="fevvaTop1-bezier135" stroke="none" fill="rgb(0, 0, 0)" d="M 83.1,77.07 C 82.75,77.54 82.56,78.12 82.64,78.67 82.72,79.23 83.05,79.71 83.45,80.1 84.26,80.89 85.33,81.4 86.39,81.83 87.48,82.25 88.6,82.53 89.71,82.88 90.82,83.24 91.94,83.58 93.05,84.01 L 93.04,84.09 C 91.85,84.05 90.67,83.87 89.51,83.61 88.35,83.34 87.24,82.89 86.16,82.38 85.08,81.87 84.01,81.27 83.18,80.36 82.78,79.9 82.46,79.32 82.42,78.69 82.38,78.07 82.65,77.47 83.04,77.03 L 83.1,77.07 Z M 83.1,77.07" />
        </g>
        <g id="fevvaTop1-group137">
            <path id="fevvaTop1-bezier136" stroke="none" fill="rgb(0, 0, 0)" d="M 87.21,84.69 C 86.89,85.43 86.65,86.26 86.9,87.03 87.15,87.8 87.79,88.35 88.48,88.76 89.88,89.57 91.48,89.96 93.07,90.29 94.65,90.63 96.3,90.74 97.91,91.16 99.52,91.56 101.08,92.12 102.58,92.84 105.54,94.28 108.37,96.26 110.23,99.1 111.13,100.52 111.78,102.16 111.77,103.88 111.78,105.59 111.05,107.23 109.95,108.45 L 109.89,108.4 C 110.83,107.07 111.35,105.46 111.25,103.89 111.15,102.31 110.51,100.81 109.61,99.51 107.79,96.9 105.17,94.85 102.31,93.38 100.87,92.65 99.35,92.06 97.79,91.63 96.24,91.19 94.6,91.04 92.99,90.66 91.39,90.28 89.78,89.83 88.36,88.95 87.67,88.51 87,87.9 86.76,87.07 86.52,86.24 86.8,85.39 87.14,84.66 L 87.21,84.69 Z M 87.21,84.69" />
        </g>
        <g id="fevvaTop1-group138">
            <path id="fevvaTop1-bezier137" stroke="none" fill="rgb(0, 0, 0)" d="M 152.52,137.5 C 151.53,142.58 150.85,147.76 150.95,152.94 150.98,154.23 151.08,155.52 151.3,156.79 151.52,158.06 151.85,159.32 152.47,160.43 152.78,160.98 153.16,161.5 153.65,161.89 154.15,162.27 154.68,162.73 155.08,163.25 155.93,164.3 156.23,165.76 155.93,167.07 155.65,168.39 154.95,169.56 154.17,170.61 153.38,171.66 152.47,172.6 151.5,173.48 149.57,175.24 147.44,176.76 145.24,178.15 143.03,179.54 140.71,180.72 138.4,181.92 136.09,183.1 133.76,184.25 131.43,185.38 122.08,189.91 112.63,194.22 102.99,198.11 100.57,199.05 98.14,199.97 95.65,200.74 95.02,200.93 94.39,201.11 93.75,201.26 93.42,201.33 93.1,201.4 92.75,201.43 92.58,201.45 92.41,201.46 92.21,201.43 92.1,201.42 92,201.4 91.86,201.32 91.79,201.28 91.72,201.21 91.68,201.11 91.63,200.98 91.65,201.01 91.63,200.95 91.59,200.63 91.69,200.47 91.78,200.29 91.87,200.12 91.98,199.98 92.1,199.85 92.33,199.59 92.59,199.37 92.85,199.16 93.37,198.75 93.92,198.39 94.47,198.04 98.95,195.35 103.74,193.31 108.53,191.33 L 108.56,191.4 C 106.19,192.46 103.85,193.56 101.53,194.73 99.21,195.88 96.9,197.06 94.73,198.45 94.19,198.8 93.66,199.16 93.17,199.56 92.93,199.76 92.69,199.97 92.5,200.2 92.3,200.4 92.14,200.73 92.16,200.81 92.05,200.88 92.4,200.91 92.7,200.87 93,200.83 93.31,200.77 93.62,200.69 94.23,200.54 94.85,200.35 95.46,200.16 97.91,199.35 100.32,198.39 102.72,197.41 107.52,195.48 112.28,193.42 117.02,191.31 121.76,189.21 126.48,187.06 131.17,184.84 133.51,183.72 135.84,182.59 138.16,181.43 140.47,180.26 142.78,179.09 144.98,177.73 147.17,176.37 149.29,174.88 151.21,173.16 152.17,172.3 153.07,171.38 153.85,170.36 154.62,169.34 155.29,168.22 155.56,166.99 155.85,165.77 155.59,164.45 154.81,163.45 154.42,162.95 153.97,162.54 153.45,162.13 152.92,161.7 152.52,161.15 152.2,160.57 151.58,159.4 151.25,158.11 151.04,156.83 150.83,155.54 150.75,154.24 150.72,152.94 150.67,147.73 151.41,142.56 152.45,137.48 L 152.52,137.5 Z M 152.52,137.5" />
        </g>
        <g id="fevvaTop1-group139">
            <path id="fevvaTop1-bezier138" stroke="none" fill="rgb(0, 0, 0)" d="M 114.93,189.28 C 107.57,190.91 100.23,192.68 92.94,194.61 89.3,195.57 85.66,196.57 82.06,197.67 78.46,198.79 74.86,199.94 71.45,201.49 70.61,201.89 69.78,202.31 69.04,202.84 68.6,203.13 68.08,203.35 67.5,203.31 67.21,203.28 66.89,203.18 66.65,202.93 66.41,202.68 66.33,202.33 66.34,202.03 66.38,201.44 66.65,200.98 66.93,200.56 67.22,200.15 67.55,199.78 67.9,199.44 68.6,198.77 69.38,198.18 70.18,197.66 73.42,195.62 76.94,194.16 80.49,192.85 87.65,190.36 95.06,188.71 102.54,187.7 L 102.55,187.78 C 95.15,189.2 87.8,190.96 80.75,193.56 77.22,194.84 73.73,196.3 70.58,198.28 69.79,198.78 69.05,199.32 68.39,199.95 67.75,200.56 67.09,201.32 67.01,202.06 66.99,202.41 67.18,202.61 67.55,202.65 67.92,202.68 68.32,202.54 68.67,202.32 69.48,201.76 70.34,201.34 71.2,200.94 74.68,199.4 78.3,198.29 81.92,197.21 85.54,196.14 89.19,195.17 92.85,194.24 100.17,192.41 107.53,190.74 114.91,189.2 L 114.93,189.28 Z M 114.93,189.28" />
        </g>
        <g id="fevvaTop1-group140">
            <path id="fevvaTop1-bezier139" stroke="none" fill="rgb(0, 0, 0)" d="M 108.18,185.9 C 100.22,186.75 92.27,187.71 84.34,188.81 76.4,189.91 68.54,191.11 60.73,193.14 60.21,193.2 59.69,193.21 59.15,193.14 58.64,193.05 58.02,192.9 57.64,192.31 57.28,191.68 57.56,191.01 57.84,190.57 58.13,190.1 58.49,189.72 58.88,189.37 60.43,187.99 62.23,187.04 64.05,186.16 67.72,184.47 71.56,183.25 75.44,182.2 79.33,181.2 83.26,180.4 87.21,179.72 89.19,179.39 91.17,179.08 93.15,178.8 95.14,178.55 97.13,178.31 99.12,178.11 L 99.13,178.18 C 91.22,179.42 83.32,180.75 75.63,182.92 71.79,183.96 67.97,185.17 64.37,186.83 62.58,187.67 60.79,188.59 59.33,189.86 58.97,190.18 58.64,190.53 58.39,190.91 58.14,191.29 58.02,191.72 58.19,191.99 58.35,192.28 58.8,192.46 59.25,192.52 59.7,192.6 60.19,192.59 60.67,192.55 61.64,192.46 62.57,192.2 63.55,191.92 64.52,191.66 65.5,191.44 66.48,191.23 68.45,190.82 70.42,190.47 72.4,190.14 76.35,189.49 80.32,188.94 84.29,188.43 92.24,187.43 100.2,186.58 108.17,185.82 L 108.18,185.9 Z M 108.18,185.9" />
        </g>
        <g id="fevvaTop1-group141">
            <path id="fevvaTop1-bezier140" stroke="none" fill="rgb(0, 0, 0)" d="M 73.31,180.68 C 71.2,181.24 69.15,181.99 67.03,182.5 66.49,182.63 65.96,182.75 65.41,182.83 64.87,182.89 64.31,182.98 63.72,182.8 63.58,182.75 63.42,182.66 63.33,182.49 63.23,182.33 63.23,182.14 63.26,181.99 63.32,181.68 63.47,181.43 63.63,181.19 63.94,180.72 64.32,180.32 64.7,179.92 66.23,178.36 67.95,176.95 69.88,175.87 71.78,174.78 73.8,173.89 75.86,173.14 79.97,171.62 84.23,170.54 88.53,169.79 92.84,169.05 97.19,168.58 101.54,168.33 L 101.55,168.4 C 97.24,169.08 92.93,169.66 88.67,170.52 84.41,171.37 80.16,172.28 76.06,173.7 71.98,175.12 68,177.05 64.97,180.18 64.58,180.56 64.21,180.95 63.91,181.38 63.62,181.79 63.34,182.38 63.83,182.52 64.29,182.68 64.86,182.63 65.38,182.57 65.92,182.5 66.45,182.4 66.98,182.28 69.1,181.83 71.17,181.12 73.29,180.61 L 73.31,180.68 Z M 73.31,180.68" />
        </g>
        <g id="fevvaTop1-group142">
            <path id="fevvaTop1-bezier141" stroke="none" fill="rgb(0, 0, 0)" d="M 81.15,169.36 C 80.49,168.96 79.67,168.77 79.1,168.14 78.96,167.97 78.85,167.76 78.86,167.52 78.86,167.28 78.97,167.07 79.09,166.89 79.35,166.54 79.68,166.3 80.02,166.07 81.39,165.21 82.9,164.68 84.4,164.16 85.9,163.64 87.42,163.15 88.97,162.82 90.52,162.5 92.07,162.2 93.66,162.08 L 93.68,162.15 C 92.18,162.69 90.66,163.1 89.15,163.54 87.63,163.97 86.09,164.3 84.58,164.73 83.08,165.17 81.56,165.64 80.21,166.39 79.88,166.58 79.56,166.8 79.33,167.07 79.08,167.35 79.04,167.7 79.28,168 79.74,168.59 80.54,168.85 81.2,169.3 L 81.15,169.36 Z M 81.15,169.36" />
        </g>
        <g id="fevvaTop1-group143">
            <path id="fevvaTop1-bezier142" stroke="none" fill="rgb(0, 0, 0)" d="M 83.04,163.14 C 82.65,162.7 82.38,162.1 82.42,161.47 82.46,160.84 82.78,160.27 83.18,159.81 84.01,158.9 85.08,158.3 86.16,157.79 87.24,157.28 88.35,156.83 89.51,156.56 90.67,156.29 91.85,156.11 93.04,156.08 L 93.06,156.15 C 91.94,156.59 90.82,156.92 89.71,157.28 88.61,157.64 87.48,157.92 86.4,158.34 85.33,158.76 84.26,159.27 83.45,160.06 83.05,160.45 82.72,160.94 82.64,161.49 82.56,162.05 82.75,162.63 83.1,163.09 L 83.04,163.14 Z M 83.04,163.14" />
        </g>
        <g id="fevvaTop1-group144">
            <path id="fevvaTop1-bezier143" stroke="none" fill="rgb(0, 0, 0)" d="M 87.14,155.5 C 86.8,154.77 86.52,153.92 86.76,153.09 87,152.26 87.67,151.65 88.36,151.21 89.78,150.34 91.4,149.89 92.99,149.51 94.6,149.12 96.24,148.98 97.79,148.53 99.35,148.11 100.87,147.52 102.31,146.79 105.17,145.31 107.79,143.26 109.61,140.65 110.51,139.35 111.15,137.85 111.25,136.27 111.35,134.7 110.83,133.1 109.89,131.76 L 109.95,131.72 C 111.05,132.93 111.78,134.57 111.77,136.29 111.78,138 111.13,139.65 110.23,141.06 108.37,143.91 105.54,145.89 102.58,147.32 101.08,148.04 99.52,148.61 97.91,149 96.3,149.42 94.65,149.53 93.07,149.87 91.48,150.2 89.88,150.6 88.48,151.4 87.79,151.81 87.15,152.37 86.9,153.13 86.65,153.9 86.89,154.73 87.21,155.47 L 87.14,155.5 Z M 87.14,155.5" />
        </g>
        <g id="fevvaTop1-group145">
            <path id="fevvaTop1-bezier144" stroke="none" fill="rgb(0, 0, 0)" d="M 109.83,104.41 C 104.56,104.49 99.29,104.12 94.06,103.45 88.83,102.75 83.64,101.7 78.58,100.17 76.05,99.4 73.55,98.51 71.12,97.46 68.71,96.35 66.34,95.28 63.84,94.48 61.38,93.66 58.81,93.03 56.22,93.12 54.95,93.17 53.64,93.44 52.59,94.16 52.06,94.51 51.61,94.98 51.33,95.56 51.2,95.84 51.1,96.16 51.08,96.47 51.07,96.78 51.12,97.13 51.36,97.34 L 51.31,97.4 C 51.02,97.18 50.95,96.8 50.94,96.47 50.94,96.13 51.02,95.79 51.14,95.48 51.39,94.84 51.84,94.29 52.38,93.88 53.48,93.05 54.86,92.71 56.19,92.6 58.89,92.4 61.54,93.01 64.07,93.77 66.6,94.58 69.04,95.69 71.41,96.78 73.8,97.86 76.26,98.79 78.75,99.59 83.75,101.19 88.91,102.31 94.11,103.08 99.31,103.85 104.57,104.31 109.83,104.33 L 109.83,104.41 Z M 109.83,104.41" />
        </g>
        <g id="fevvaTop1-group146">
            <path id="fevvaTop1-bezier145" stroke="none" fill="rgb(0, 0, 0)" d="M 77.16,103.74 C 73.76,103.15 70.35,102.61 66.94,102.11 63.53,101.6 60.11,101.13 56.69,100.76 54.98,100.58 53.26,100.43 51.55,100.35 50.69,100.3 49.84,100.28 48.99,100.29 48.57,100.3 48.15,100.31 47.74,100.36 47.34,100.4 46.9,100.48 46.65,100.63 46.6,100.65 46.56,100.71 46.57,100.68 46.53,100.78 46.47,100.89 46.45,100.97 46.39,101.13 46.34,101.32 46.31,101.52 46.24,101.91 46.22,102.33 46.24,102.74 46.26,103.57 46.42,104.41 46.59,105.25 46.76,106.08 47,106.9 47.28,107.71 47.57,108.5 47.82,109.37 48.36,110.01 L 48.31,110.07 C 47.67,109.44 47.34,108.61 46.96,107.84 46.62,107.04 46.32,106.21 46.08,105.37 45.83,104.53 45.66,103.67 45.59,102.78 45.56,102.33 45.56,101.88 45.62,101.42 45.64,101.19 45.69,100.96 45.77,100.71 45.81,100.58 45.85,100.5 45.89,100.4 46,100.17 46.13,100.08 46.25,100 46.75,99.71 47.2,99.67 47.65,99.6 48.1,99.55 48.54,99.52 48.98,99.51 49.86,99.5 50.73,99.55 51.59,99.61 53.32,99.74 55.04,99.94 56.76,100.16 63.61,101.06 70.41,102.3 77.17,103.67 L 77.16,103.74 Z M 77.16,103.74" />
        </g>
        <g id="fevvaTop1-group147">
            <path id="fevvaTop1-bezier146" stroke="none" fill="rgb(0, 0, 0)" d="M 78.98,112.41 C 76.15,111.61 73.31,110.88 70.46,110.2 67.61,109.52 64.75,108.88 61.86,108.43 60.42,108.21 58.97,108.03 57.54,108.02 56.87,108.03 56.06,108.05 55.65,108.34 55.56,108.43 55.56,108.42 55.51,108.58 L 55.4,109.11 55.2,110.18 C 54.97,111.61 54.81,113.07 54.73,114.52 54.69,115.24 54.69,115.97 54.73,116.69 54.75,117.06 54.79,117.42 54.88,117.77 54.96,118.11 55.08,118.47 55.35,118.69 L 55.31,118.75 C 54.98,118.54 54.82,118.16 54.7,117.82 54.58,117.46 54.5,117.09 54.44,116.73 54.31,115.99 54.29,115.25 54.27,114.51 54.24,113.03 54.35,111.55 54.53,110.08 L 54.69,108.98 54.79,108.43 C 54.81,108.23 54.98,107.88 55.19,107.75 55.6,107.44 56.01,107.37 56.4,107.31 56.79,107.26 57.17,107.24 57.55,107.25 59.06,107.28 60.52,107.53 61.97,107.79 67.76,108.92 73.4,110.56 79,112.33 L 78.98,112.41 Z M 78.98,112.41" />
        </g>
        <g id="fevvaTop1-group148">
            <path id="fevvaTop1-bezier147" stroke="none" fill="rgb(0, 0, 0)" d="M 109.83,135.42 C 104.57,135.44 99.31,135.91 94.11,136.68 88.91,137.45 83.76,138.57 78.76,140.16 76.26,140.97 73.8,141.9 71.42,142.97 69.04,144.07 66.6,145.18 64.08,145.98 61.54,146.75 58.89,147.36 56.19,147.16 54.86,147.05 53.49,146.71 52.38,145.88 51.84,145.46 51.39,144.91 51.14,144.28 51.02,143.96 50.94,143.63 50.94,143.28 50.95,142.95 51.02,142.58 51.31,142.36 L 51.36,142.42 C 51.12,142.62 51.07,142.97 51.08,143.28 51.1,143.6 51.2,143.91 51.33,144.2 51.61,144.77 52.06,145.25 52.59,145.6 53.64,146.32 54.95,146.59 56.22,146.64 58.81,146.72 61.38,146.1 63.85,145.27 66.34,144.48 68.71,143.4 71.12,142.29 73.55,141.25 76.05,140.35 78.58,139.59 83.64,138.05 88.83,137 94.06,136.31 99.29,135.63 104.56,135.27 109.84,135.35 L 109.83,135.42 Z M 109.83,135.42" />
        </g>
        <g id="fevvaTop1-group149">
            <path id="fevvaTop1-bezier148" stroke="none" fill="rgb(0, 0, 0)" d="M 77.17,136.09 C 69.64,137.6 62.07,138.99 54.41,139.88 52.5,140.09 50.58,140.29 48.61,140.23 48.12,140.21 47.63,140.18 47.12,140.07 46.87,140.02 46.61,139.96 46.33,139.81 46.2,139.73 46.04,139.63 45.93,139.43 45.85,139.29 45.87,139.31 45.83,139.22 45.81,139.14 45.78,139.05 45.77,138.98 45.61,137.84 46.01,136.91 46.34,135.99 47.07,134.17 48.06,132.5 49.11,130.88 49.63,130.07 50.18,129.27 50.76,128.51 51.35,127.75 51.9,126.95 52.65,126.31 L 52.69,126.37 C 52.02,127.03 51.52,127.88 50.99,128.66 50.47,129.47 49.96,130.28 49.48,131.11 48.53,132.77 47.62,134.46 46.95,136.22 46.64,137.09 46.34,138.05 46.48,138.83 46.49,138.88 46.5,138.91 46.51,138.94 46.52,138.97 46.58,139.09 46.56,139.06 46.57,139.07 46.62,139.11 46.69,139.15 46.84,139.23 47.05,139.29 47.27,139.33 47.7,139.41 48.17,139.44 48.64,139.45 50.52,139.5 52.44,139.37 54.35,139.22 58.17,138.89 61.97,138.37 65.78,137.82 69.58,137.26 73.37,136.67 77.16,136.01 L 77.17,136.09 Z M 77.17,136.09" />
        </g>
        <g id="fevvaTop1-group150">
            <path id="fevvaTop1-bezier149" stroke="none" fill="rgb(0, 0, 0)" d="M 79,127.42 C 73.33,129.22 67.61,130.88 61.73,132.01 60.26,132.27 58.78,132.52 57.24,132.51 56.85,132.5 56.46,132.47 56.06,132.39 55.68,132.28 55.17,132.18 54.87,131.62 54.84,131.55 54.82,131.48 54.8,131.4 L 54.78,131.26 54.73,130.99 54.64,130.42 54.51,129.3 C 54.36,127.81 54.29,126.31 54.36,124.81 54.39,124.06 54.44,123.31 54.58,122.57 54.65,122.2 54.73,121.83 54.86,121.47 54.99,121.12 55.14,120.74 55.48,120.52 L 55.52,120.58 C 55.24,120.8 55.12,121.17 55.03,121.52 54.95,121.87 54.9,122.24 54.87,122.6 54.81,123.34 54.79,124.07 54.81,124.81 54.85,126.29 54.97,127.76 55.17,129.22 L 55.34,130.31 55.44,130.85 55.5,131.12 55.53,131.25 C 55.54,131.27 55.55,131.28 55.55,131.3 55.6,131.43 55.9,131.57 56.22,131.63 56.54,131.7 56.9,131.72 57.25,131.73 58.69,131.76 60.17,131.57 61.63,131.36 64.55,130.92 67.45,130.27 70.34,129.58 73.23,128.89 76.11,128.15 78.98,127.35 L 79,127.42 Z M 79,127.42" />
        </g>
        <g id="fevvaTop1-group157">
            <path id="fevvaTop1-bezier156" stroke="none" fill="rgb(0, 0, 0)" d="M 154.24,133.34 C 159.5,132.41 164.72,131.15 169.73,129.33 172.23,128.41 174.69,127.35 176.91,125.9 178,125.17 179.05,124.35 179.87,123.35 180.69,122.35 181.25,121.13 181.24,119.87 181.23,118.61 180.65,117.41 179.82,116.44 178.99,115.46 177.94,114.65 176.84,113.95 174.62,112.53 172.16,111.49 169.67,110.59 164.68,108.76 159.47,107.49 154.24,106.41 L 154.25,106.33 C 159.57,107 164.82,108.16 169.92,109.88 172.45,110.8 174.95,111.86 177.24,113.33 178.37,114.08 179.46,114.93 180.34,116.01 181.22,117.07 181.86,118.44 181.84,119.87 181.84,121.31 181.18,122.65 180.29,123.69 179.4,124.75 178.31,125.58 177.17,126.31 174.88,127.76 172.38,128.79 169.86,129.68 164.78,131.42 159.54,132.58 154.25,133.41 L 154.24,133.34 Z M 154.24,133.34" />
        </g>
        <g id="fevvaTop1-group158">
            <path id="fevvaTop1-bezier157" stroke="none" fill="rgb(0, 0, 0)" d="M 180.82,124.54 C 182.83,123.78 184.83,123 186.83,122.21 L 189.81,121.01 191.28,120.38 192,120.04 192.34,119.86 192.49,119.76 C 192.51,119.75 192.54,119.73 192.54,119.73 192.55,119.72 192.56,119.71 192.54,119.73 L 192.53,119.75 C 192.5,119.79 192.5,119.83 192.5,119.87 192.47,119.93 192.58,120.06 192.54,120.02 L 192.49,119.98 192.34,119.9 191.99,119.73 191.26,119.42 189.77,118.85 186.76,117.71 C 184.78,116.89 182.78,116.12 180.82,115.2 L 180.85,115.13 C 182.94,115.64 184.98,116.32 187.02,117 188.04,117.37 189.04,117.74 190.04,118.16 L 191.52,118.81 192.26,119.16 192.64,119.36 192.83,119.48 C 192.86,119.51 192.89,119.52 192.94,119.56 192.95,119.56 193.11,119.74 193.1,119.87 193.1,119.92 193.08,119.98 193.06,120.03 193.03,120.07 193.03,120.08 193.01,120.1 192.98,120.14 192.96,120.16 192.94,120.17 192.89,120.21 192.86,120.23 192.82,120.26 L 192.63,120.37 192.25,120.55 191.5,120.87 189.99,121.46 186.96,122.56 C 184.93,123.26 182.89,123.94 180.85,124.61 L 180.82,124.54 Z M 180.82,124.54" />
        </g>
        <g id="fevvaTop1-group164">
            <path id="fevvaTop1-bezier163" stroke="none" fill="rgb(0, 0, 0)" d="M 173.33,126.09 C 173.27,125.8 173,125.59 172.72,125.53 172.44,125.46 172.14,125.49 171.88,125.56 171.33,125.68 170.82,126.18 170.94,126.6 171.08,127.06 171.71,127.13 172.2,127.06 172.46,127.01 172.72,126.95 172.95,126.8 173.18,126.66 173.38,126.39 173.33,126.09 Z M 173.38,126.08 C 173.52,126.71 172.96,127.39 172.31,127.55 171.97,127.63 171.62,127.63 171.28,127.5 170.95,127.38 170.62,127.08 170.55,126.71 170.47,126.29 170.69,125.95 170.94,125.73 171.19,125.51 171.51,125.37 171.81,125.32 172.44,125.21 173.19,125.46 173.38,126.08 Z M 173.38,126.08" />
        </g>
    </g>
</svg>
