<?xml version="1.0" encoding="UTF-8"?>
<!DOCTYPE svg PUBLIC "-//W3C//DTD SVG 1.1//EN" "http://www.w3.org/Graphics/SVG/1.1/DTD/svg11.dtd">
<svg version="1.1" xmlns="http://www.w3.org/2000/svg" xmlns:xlink="http://www.w3.org/1999/xlink" width="240" height="240"  xml:space="preserve" id="fevvaTop7">
    <!-- Generated by PaintCode - http://www.paintcodeapp.com -->
    <g id="fevvaTop7-group2">
        <g id="fevvaTop7-group165">
            <path id="fevvaTop7-bezier164" stroke="none" fill="rgb(0, 0, 0)" d="M 173.12,113.84 C 172.93,114.46 172.19,114.71 171.56,114.6 171.26,114.54 170.94,114.41 170.69,114.19 170.44,113.97 170.22,113.63 170.3,113.21 170.36,112.84 170.7,112.54 171.03,112.42 171.36,112.29 171.72,112.29 172.05,112.37 172.71,112.53 173.27,113.21 173.12,113.84 Z M 173.07,113.83 C 173.13,113.53 172.93,113.26 172.7,113.12 172.46,112.97 172.21,112.91 171.95,112.86 171.45,112.78 170.83,112.86 170.68,113.32 170.57,113.73 171.08,114.24 171.62,114.36 171.88,114.43 172.19,114.46 172.47,114.39 172.75,114.33 173.01,114.12 173.07,113.83 Z M 173.07,113.83" />
        </g>
        <g id="fevvaTop7-group166">
            <path id="fevvaTop7-bezier165" stroke="none" fill="rgb(0, 0, 0)" d="M 152.19,102.68 C 151.16,97.6 150.42,92.43 150.47,87.23 150.49,85.93 150.58,84.62 150.78,83.33 151,82.05 151.32,80.76 151.95,79.59 152.27,79.01 152.67,78.46 153.19,78.03 153.71,77.63 154.17,77.22 154.56,76.71 155.33,75.71 155.6,74.39 155.3,73.17 155.03,71.94 154.36,70.82 153.59,69.8 152.82,68.78 151.91,67.86 150.96,67 149.04,65.28 146.92,63.79 144.72,62.43 142.53,61.07 140.21,59.9 137.9,58.73 135.59,57.57 133.25,56.44 130.91,55.32 126.23,53.1 121.51,50.95 116.77,48.86 112.03,46.74 107.27,44.68 102.46,42.75 100.07,41.78 97.66,40.81 95.21,40.01 94.6,39.81 93.98,39.62 93.36,39.47 93.05,39.39 92.74,39.33 92.44,39.29 92.15,39.25 91.8,39.28 91.91,39.35 91.89,39.43 92.05,39.76 92.24,39.96 92.44,40.19 92.67,40.4 92.92,40.6 93.4,41 93.94,41.37 94.48,41.72 96.65,43.1 98.96,44.28 101.28,45.44 103.59,46.6 105.94,47.71 108.31,48.76 L 108.28,48.83 C 103.48,46.85 98.7,44.81 94.22,42.12 93.66,41.77 93.11,41.41 92.59,41 92.33,40.79 92.08,40.57 91.85,40.31 91.73,40.18 91.62,40.04 91.52,39.87 91.43,39.7 91.33,39.53 91.38,39.21 91.4,39.15 91.38,39.18 91.43,39.05 91.47,38.95 91.54,38.88 91.61,38.84 91.74,38.76 91.85,38.74 91.95,38.73 92.15,38.7 92.33,38.72 92.5,38.73 92.85,38.77 93.17,38.83 93.49,38.9 94.14,39.05 94.77,39.23 95.39,39.42 97.89,40.19 100.32,41.12 102.74,42.05 112.38,45.94 121.83,50.26 131.17,54.78 133.51,55.91 135.84,57.06 138.15,58.24 140.46,59.44 142.77,60.62 144.98,62.01 147.19,63.4 149.32,64.92 151.25,66.68 152.21,67.56 153.13,68.51 153.92,69.56 154.7,70.61 155.39,71.77 155.68,73.09 155.98,74.4 155.67,75.86 154.83,76.91 154.43,77.43 153.9,77.89 153.4,78.27 152.91,78.66 152.53,79.18 152.21,79.73 151.6,80.85 151.27,82.11 151.05,83.37 150.83,84.64 150.73,85.93 150.69,87.23 150.6,92.4 151.28,97.58 152.27,102.66 L 152.19,102.68 Z M 152.19,102.68" />
        </g>
        <g id="fevvaTop7-group167">
            <path id="fevvaTop7-bezier166" stroke="none" fill="rgb(0, 0, 0)" d="M 114.66,50.96 C 107.27,49.42 99.92,47.75 92.59,45.92 88.94,44.99 85.29,44.02 81.66,42.96 78.05,41.87 74.43,40.76 70.95,39.22 70.08,38.82 69.22,38.4 68.42,37.85 68.07,37.62 67.67,37.48 67.3,37.51 66.93,37.55 66.74,37.75 66.75,38.1 66.83,38.84 67.5,39.6 68.14,40.21 68.8,40.84 69.54,41.38 70.33,41.88 73.48,43.87 76.97,45.32 80.49,46.6 87.55,49.2 94.9,50.96 102.3,52.39 L 102.29,52.46 C 94.81,51.45 87.39,49.8 80.24,47.31 76.68,46.01 73.16,44.55 69.92,42.5 69.12,41.98 68.34,41.4 67.65,40.72 67.3,40.38 66.96,40.02 66.68,39.6 66.4,39.19 66.12,38.73 66.08,38.13 66.07,37.84 66.15,37.48 66.4,37.24 66.63,36.98 66.96,36.88 67.24,36.86 67.82,36.82 68.35,37.03 68.78,37.33 69.52,37.85 70.36,38.28 71.2,38.67 74.61,40.22 78.21,41.37 81.81,42.49 85.41,43.59 89.04,44.59 92.69,45.56 99.98,47.48 107.32,49.25 114.68,50.89 L 114.66,50.96 Z M 114.66,50.96" />
        </g>
        <g id="fevvaTop7-group168">
            <path id="fevvaTop7-bezier167" stroke="none" fill="rgb(0, 0, 0)" d="M 107.92,54.34 C 99.94,53.59 91.98,52.73 84.04,51.73 80.07,51.22 76.1,50.67 72.15,50.02 70.17,49.7 68.19,49.35 66.23,48.93 65.25,48.72 64.27,48.5 63.29,48.24 62.32,47.96 61.39,47.7 60.41,47.62 59.93,47.57 59.45,47.56 58.99,47.64 58.55,47.71 58.1,47.88 57.93,48.17 57.77,48.44 57.89,48.87 58.14,49.25 58.38,49.63 58.71,49.98 59.07,50.3 60.54,51.57 62.32,52.49 64.11,53.33 67.72,54.99 71.53,56.2 75.38,57.24 83.06,59.42 90.97,60.74 98.87,61.98 L 98.86,62.06 C 96.87,61.85 94.88,61.62 92.9,61.36 90.91,61.08 88.93,60.78 86.96,60.44 83.01,59.76 79.07,58.97 75.18,57.97 71.31,56.91 67.47,55.69 63.8,54 61.98,53.12 60.17,52.17 58.62,50.79 58.24,50.44 57.88,50.06 57.58,49.59 57.31,49.16 57.03,48.49 57.39,47.85 57.76,47.26 58.39,47.11 58.9,47.03 59.43,46.95 59.96,46.97 60.47,47.02 68.29,49.05 76.14,50.26 84.09,51.36 92.01,52.46 99.96,53.41 107.92,54.26 L 107.92,54.34 Z M 107.92,54.34" />
        </g>
        <g id="fevvaTop7-group169">
            <path id="fevvaTop7-bezier168" stroke="none" fill="rgb(0, 0, 0)" d="M 73.04,59.56 C 70.91,59.04 68.85,58.34 66.72,57.88 66.19,57.77 65.66,57.66 65.13,57.6 64.6,57.54 64.03,57.49 63.58,57.64 63.08,57.79 63.36,58.37 63.65,58.78 63.95,59.21 64.33,59.6 64.71,59.98 67.75,63.12 71.72,65.04 75.81,66.46 79.9,67.88 84.16,68.8 88.42,69.64 92.68,70.5 96.99,71.09 101.3,71.76 L 101.29,71.84 C 96.94,71.59 92.59,71.11 88.28,70.38 83.97,69.63 79.72,68.54 75.6,67.03 73.55,66.27 71.53,65.39 69.62,64.29 67.7,63.22 65.98,61.81 64.44,60.25 64.06,59.85 63.69,59.44 63.37,58.97 63.22,58.74 63.07,58.49 63,58.18 62.97,58.02 62.98,57.84 63.07,57.67 63.17,57.51 63.32,57.42 63.47,57.37 64.06,57.18 64.61,57.27 65.16,57.34 65.7,57.42 66.24,57.53 66.77,57.66 68.9,58.17 70.95,58.93 73.05,59.49 L 73.04,59.56 Z M 73.04,59.56" />
        </g>
        <g id="fevvaTop7-group170">
            <path id="fevvaTop7-bezier169" stroke="none" fill="rgb(0, 0, 0)" d="M 80.94,70.87 C 80.28,71.31 79.49,71.57 79.02,72.17 78.79,72.46 78.83,72.82 79.07,73.09 79.31,73.37 79.63,73.59 79.96,73.78 81.31,74.53 82.83,74.99 84.33,75.44 85.84,75.87 87.38,76.19 88.89,76.62 90.41,77.07 91.93,77.47 93.43,78.02 L 93.41,78.09 C 91.82,77.96 90.27,77.67 88.71,77.35 87.16,77.01 85.65,76.52 84.15,76.01 82.65,75.49 81.14,74.95 79.76,74.1 79.43,73.87 79.09,73.62 78.83,73.27 78.71,73.1 78.61,72.89 78.6,72.65 78.6,72.41 78.71,72.19 78.84,72.03 79.42,71.39 80.24,71.2 80.9,70.81 L 80.94,70.87 Z M 80.94,70.87" />
        </g>
        <g id="fevvaTop7-group171">
            <path id="fevvaTop7-bezier170" stroke="none" fill="rgb(0, 0, 0)" d="M 82.85,77.07 C 82.5,77.54 82.31,78.12 82.39,78.67 82.47,79.23 82.8,79.71 83.2,80.1 84.01,80.89 85.08,81.4 86.14,81.83 87.22,82.25 88.35,82.53 89.46,82.88 90.57,83.24 91.69,83.58 92.8,84.01 L 92.79,84.09 C 91.59,84.05 90.42,83.87 89.26,83.61 88.1,83.34 86.99,82.89 85.91,82.38 84.83,81.87 83.75,81.27 82.93,80.36 82.53,79.9 82.2,79.32 82.17,78.69 82.13,78.07 82.39,77.47 82.79,77.03 L 82.85,77.07 Z M 82.85,77.07" />
        </g>
        <g id="fevvaTop7-group172">
            <path id="fevvaTop7-bezier171" stroke="none" fill="rgb(0, 0, 0)" d="M 86.95,84.69 C 86.64,85.43 86.4,86.26 86.65,87.03 86.89,87.8 87.54,88.35 88.22,88.76 89.62,89.57 91.23,89.96 92.81,90.29 94.4,90.63 96.05,90.74 97.66,91.16 99.26,91.56 100.83,92.12 102.32,92.84 105.28,94.28 108.12,96.26 109.98,99.1 110.87,100.52 111.53,102.16 111.51,103.88 111.53,105.59 110.8,107.23 109.7,108.45 L 109.64,108.4 C 110.58,107.07 111.1,105.46 110.99,103.89 110.9,102.31 110.26,100.81 109.35,99.51 107.54,96.9 104.92,94.85 102.06,93.38 100.61,92.65 99.1,92.06 97.54,91.63 95.98,91.19 94.34,91.04 92.74,90.66 91.14,90.28 89.53,89.83 88.1,88.95 87.41,88.51 86.74,87.9 86.51,87.07 86.26,86.24 86.55,85.39 86.88,84.66 L 86.95,84.69 Z M 86.95,84.69" />
        </g>
        <g id="fevvaTop7-group173">
            <path id="fevvaTop7-bezier172" stroke="none" fill="rgb(0, 0, 0)" d="M 152.27,137.5 C 151.28,142.58 150.6,147.76 150.69,152.94 150.73,154.23 150.83,155.52 151.05,156.79 151.27,158.06 151.6,159.32 152.21,160.43 152.53,160.98 152.91,161.5 153.4,161.89 153.9,162.27 154.43,162.73 154.83,163.25 155.67,164.3 155.98,165.76 155.68,167.07 155.39,168.39 154.7,169.56 153.92,170.61 153.13,171.66 152.21,172.6 151.25,173.48 149.32,175.24 147.19,176.76 144.98,178.15 142.77,179.54 140.46,180.72 138.15,181.92 135.84,183.1 133.51,184.25 131.17,185.38 121.83,189.91 112.38,194.22 102.74,198.11 100.32,199.05 97.89,199.97 95.39,200.74 94.77,200.93 94.14,201.11 93.49,201.26 93.17,201.33 92.85,201.4 92.5,201.43 92.33,201.45 92.15,201.46 91.95,201.43 91.85,201.42 91.74,201.4 91.61,201.32 91.54,201.28 91.47,201.21 91.43,201.11 91.38,200.98 91.4,201.01 91.38,200.95 91.34,200.63 91.44,200.47 91.52,200.29 91.62,200.12 91.73,199.98 91.85,199.85 92.08,199.59 92.33,199.37 92.59,199.16 93.11,198.75 93.66,198.39 94.22,198.04 98.7,195.35 103.48,193.31 108.28,191.33 L 108.31,191.4 C 105.94,192.46 103.59,193.56 101.28,194.73 98.96,195.88 96.65,197.06 94.48,198.45 93.94,198.8 93.41,199.16 92.92,199.56 92.67,199.76 92.44,199.97 92.24,200.2 92.05,200.4 91.89,200.73 91.91,200.81 91.8,200.88 92.15,200.91 92.44,200.87 92.74,200.83 93.05,200.77 93.36,200.69 93.98,200.54 94.59,200.35 95.21,200.16 97.66,199.35 100.06,198.39 102.46,197.41 107.27,195.48 112.03,193.42 116.76,191.31 121.51,189.21 126.23,187.06 130.91,184.84 133.25,183.72 135.59,182.59 137.9,181.43 140.21,180.26 142.53,179.09 144.72,177.73 146.92,176.37 149.04,174.88 150.96,173.16 151.91,172.3 152.82,171.38 153.59,170.36 154.36,169.34 155.03,168.22 155.3,166.99 155.6,165.77 155.33,164.45 154.56,163.45 154.17,162.95 153.71,162.54 153.19,162.13 152.67,161.7 152.27,161.15 151.95,160.57 151.32,159.4 151,158.11 150.78,156.83 150.58,155.54 150.49,154.24 150.47,152.94 150.42,147.73 151.15,142.56 152.19,137.48 L 152.27,137.5 Z M 152.27,137.5" />
        </g>
        <g id="fevvaTop7-group174">
            <path id="fevvaTop7-bezier173" stroke="none" fill="rgb(0, 0, 0)" d="M 114.68,189.28 C 107.31,190.91 99.98,192.68 92.69,194.61 89.04,195.57 85.41,196.57 81.8,197.67 78.21,198.79 74.61,199.94 71.2,201.49 70.36,201.89 69.52,202.31 68.78,202.84 68.35,203.13 67.82,203.35 67.24,203.31 66.95,203.28 66.63,203.18 66.4,202.93 66.15,202.68 66.07,202.33 66.08,202.03 66.12,201.44 66.4,200.98 66.68,200.56 66.96,200.15 67.3,199.78 67.64,199.44 68.34,198.77 69.12,198.18 69.92,197.66 73.16,195.62 76.68,194.16 80.24,192.85 87.39,190.36 94.81,188.71 102.29,187.7 L 102.3,187.78 C 94.9,189.2 87.55,190.96 80.49,193.56 76.97,194.84 73.47,196.3 70.33,198.28 69.54,198.78 68.8,199.32 68.13,199.95 67.5,200.56 66.83,201.32 66.75,202.06 66.74,202.41 66.93,202.61 67.3,202.65 67.67,202.68 68.07,202.54 68.42,202.32 69.22,201.76 70.08,201.34 70.95,200.94 74.43,199.4 78.05,198.29 81.66,197.21 85.29,196.14 88.93,195.17 92.59,194.24 99.92,192.41 107.28,190.74 114.66,189.2 L 114.68,189.28 Z M 114.68,189.28" />
        </g>
        <g id="fevvaTop7-group175">
            <path id="fevvaTop7-bezier174" stroke="none" fill="rgb(0, 0, 0)" d="M 107.92,185.9 C 99.96,186.75 92.02,187.71 84.09,188.81 76.14,189.91 68.29,191.11 60.47,193.14 59.96,193.2 59.43,193.21 58.9,193.14 58.39,193.05 57.77,192.9 57.39,192.31 57.03,191.68 57.31,191.01 57.58,190.57 57.88,190.1 58.24,189.72 58.62,189.37 60.18,187.99 61.98,187.04 63.8,186.16 67.47,184.47 71.31,183.25 75.19,182.2 79.08,181.2 83.01,180.4 86.96,179.72 88.93,179.39 90.91,179.08 92.9,178.8 94.88,178.55 96.87,178.31 98.86,178.11 L 98.87,178.18 C 90.97,179.42 83.06,180.75 75.38,182.92 71.53,183.96 67.72,185.17 64.11,186.83 62.32,187.67 60.54,188.59 59.07,189.86 58.72,190.18 58.38,190.53 58.14,190.91 57.89,191.29 57.77,191.72 57.93,191.99 58.09,192.28 58.55,192.46 58.99,192.52 59.45,192.6 59.93,192.59 60.41,192.55 61.39,192.46 62.32,192.2 63.3,191.92 64.27,191.66 65.25,191.44 66.23,191.23 68.2,190.82 70.17,190.47 72.15,190.14 76.1,189.49 80.07,188.94 84.04,188.43 91.98,187.43 99.95,186.58 107.92,185.82 L 107.92,185.9 Z M 107.92,185.9" />
        </g>
        <g id="fevvaTop7-group176">
            <path id="fevvaTop7-bezier175" stroke="none" fill="rgb(0, 0, 0)" d="M 73.05,180.68 C 70.95,181.24 68.9,181.99 66.77,182.5 66.24,182.63 65.71,182.75 65.16,182.83 64.62,182.89 64.06,182.98 63.47,182.8 63.33,182.75 63.17,182.66 63.08,182.49 62.98,182.33 62.98,182.14 63.01,181.99 63.07,181.68 63.22,181.43 63.38,181.19 63.69,180.72 64.07,180.32 64.44,179.92 65.98,178.36 67.7,176.95 69.63,175.87 71.53,174.78 73.55,173.89 75.61,173.14 79.72,171.62 83.98,170.54 88.28,169.79 92.59,169.05 96.94,168.58 101.29,168.33 L 101.3,168.4 C 96.99,169.08 92.68,169.66 88.42,170.52 84.16,171.37 79.91,172.28 75.81,173.7 71.73,175.12 67.75,177.05 64.71,180.18 64.33,180.56 63.96,180.95 63.66,181.38 63.36,181.79 63.09,182.38 63.58,182.52 64.04,182.68 64.6,182.63 65.13,182.57 65.66,182.5 66.2,182.4 66.73,182.28 68.85,181.83 70.92,181.12 73.04,180.61 L 73.05,180.68 Z M 73.05,180.68" />
        </g>
        <g id="fevvaTop7-group177">
            <path id="fevvaTop7-bezier176" stroke="none" fill="rgb(0, 0, 0)" d="M 80.9,169.36 C 80.24,168.96 79.42,168.77 78.84,168.14 78.71,167.97 78.6,167.76 78.6,167.52 78.61,167.28 78.71,167.07 78.83,166.89 79.09,166.54 79.43,166.3 79.76,166.07 81.14,165.21 82.65,164.68 84.15,164.16 85.65,163.64 87.16,163.15 88.71,162.82 90.27,162.5 91.82,162.2 93.41,162.08 L 93.43,162.15 C 91.93,162.69 90.41,163.1 88.89,163.54 87.38,163.97 85.84,164.3 84.33,164.73 82.83,165.17 81.31,165.64 79.96,166.39 79.63,166.58 79.31,166.8 79.08,167.07 78.83,167.35 78.79,167.7 79.02,168 79.49,168.59 80.28,168.85 80.94,169.3 L 80.9,169.36 Z M 80.9,169.36" />
        </g>
        <g id="fevvaTop7-group178">
            <path id="fevvaTop7-bezier177" stroke="none" fill="rgb(0, 0, 0)" d="M 82.79,163.14 C 82.39,162.7 82.13,162.1 82.17,161.47 82.2,160.84 82.52,160.27 82.93,159.81 83.75,158.9 84.83,158.3 85.9,157.79 86.99,157.28 88.1,156.83 89.26,156.56 90.42,156.29 91.59,156.11 92.79,156.08 L 92.8,156.15 C 91.69,156.59 90.57,156.92 89.46,157.28 88.35,157.64 87.22,157.92 86.14,158.34 85.07,158.76 84.01,159.27 83.2,160.06 82.8,160.45 82.47,160.94 82.39,161.49 82.3,162.05 82.5,162.63 82.84,163.09 L 82.79,163.14 Z M 82.79,163.14" />
        </g>
        <g id="fevvaTop7-group179">
            <path id="fevvaTop7-bezier178" stroke="none" fill="rgb(0, 0, 0)" d="M 86.89,155.5 C 86.55,154.77 86.26,153.92 86.51,153.09 86.74,152.26 87.41,151.65 88.11,151.21 89.53,150.34 91.14,149.89 92.74,149.51 94.35,149.12 95.99,148.98 97.54,148.53 99.1,148.11 100.62,147.52 102.06,146.79 104.92,145.31 107.54,143.26 109.36,140.65 110.26,139.35 110.9,137.85 110.99,136.27 111.1,134.7 110.58,133.1 109.64,131.76 L 109.7,131.72 C 110.8,132.93 111.53,134.57 111.52,136.29 111.53,138 110.87,139.65 109.98,141.06 108.12,143.91 105.29,145.89 102.32,147.32 100.83,148.04 99.27,148.61 97.66,149 96.05,149.42 94.4,149.53 92.82,149.87 91.23,150.2 89.63,150.6 88.22,151.4 87.54,151.81 86.9,152.37 86.65,153.13 86.4,153.9 86.64,154.73 86.96,155.47 L 86.89,155.5 Z M 86.89,155.5" />
        </g>
        <g id="fevvaTop7-group180">
            <path id="fevvaTop7-bezier179" stroke="none" fill="rgb(0, 0, 0)" d="M 109.58,104.41 C 104.31,104.49 99.04,104.12 93.81,103.45 88.58,102.75 83.38,101.7 78.32,100.17 75.79,99.4 73.3,98.51 70.86,97.46 68.45,96.35 66.09,95.28 63.59,94.48 61.13,93.66 58.55,93.03 55.97,93.12 54.69,93.17 53.39,93.44 52.33,94.16 51.81,94.51 51.35,94.98 51.08,95.56 50.94,95.84 50.85,96.16 50.83,96.47 50.82,96.78 50.87,97.13 51.1,97.34 L 51.06,97.4 C 50.77,97.18 50.7,96.8 50.69,96.47 50.68,96.13 50.76,95.79 50.88,95.48 51.14,94.84 51.59,94.29 52.13,93.88 53.23,93.05 54.6,92.71 55.94,92.6 58.63,92.4 61.29,93.01 63.82,93.77 66.35,94.58 68.79,95.69 71.16,96.78 73.55,97.86 76,98.79 78.5,99.59 83.5,101.19 88.66,102.31 93.86,103.08 99.06,103.85 104.32,104.31 109.58,104.33 L 109.58,104.41 Z M 109.58,104.41" />
        </g>
        <g id="fevvaTop7-group181">
            <path id="fevvaTop7-bezier180" stroke="none" fill="rgb(0, 0, 0)" d="M 76.91,103.74 C 73.51,103.15 70.1,102.61 66.69,102.11 63.27,101.6 59.86,101.13 56.43,100.76 54.72,100.58 53,100.43 51.29,100.35 50.44,100.3 49.58,100.28 48.73,100.29 48.31,100.3 47.89,100.31 47.48,100.36 47.09,100.4 46.65,100.48 46.4,100.63 46.34,100.65 46.3,100.71 46.31,100.68 46.27,100.78 46.21,100.89 46.19,100.97 46.13,101.13 46.08,101.32 46.05,101.52 45.98,101.91 45.97,102.33 45.98,102.74 46.01,103.57 46.16,104.41 46.33,105.25 46.51,106.08 46.74,106.9 47.02,107.71 47.31,108.5 47.57,109.37 48.1,110.01 L 48.06,110.07 C 47.41,109.44 47.08,108.61 46.7,107.84 46.36,107.04 46.06,106.21 45.82,105.37 45.58,104.53 45.4,103.67 45.33,102.78 45.3,102.33 45.3,101.88 45.36,101.42 45.39,101.19 45.43,100.96 45.51,100.71 45.55,100.58 45.59,100.5 45.63,100.4 45.74,100.17 45.87,100.08 45.99,100 46.49,99.71 46.94,99.67 47.39,99.6 47.84,99.55 48.28,99.52 48.72,99.51 49.6,99.5 50.47,99.55 51.33,99.61 53.07,99.74 54.79,99.94 56.5,100.16 63.36,101.06 70.15,102.3 76.92,103.67 L 76.91,103.74 Z M 76.91,103.74" />
        </g>
        <g id="fevvaTop7-group182">
            <path id="fevvaTop7-bezier181" stroke="none" fill="rgb(0, 0, 0)" d="M 78.72,112.41 C 75.9,111.61 73.06,110.88 70.21,110.2 67.36,109.52 64.5,108.88 61.61,108.43 60.17,108.21 58.71,108.03 57.29,108.02 56.61,108.03 55.81,108.05 55.4,108.34 55.31,108.43 55.3,108.42 55.26,108.58 L 55.14,109.11 54.95,110.18 C 54.71,111.61 54.56,113.07 54.47,114.52 54.44,115.24 54.44,115.97 54.48,116.69 54.5,117.06 54.54,117.42 54.62,117.77 54.71,118.11 54.82,118.47 55.1,118.69 L 55.06,118.75 C 54.72,118.54 54.57,118.16 54.44,117.82 54.32,117.46 54.25,117.09 54.18,116.73 54.06,115.99 54.03,115.25 54.01,114.51 53.99,113.03 54.09,111.55 54.28,110.08 L 54.44,108.98 54.53,108.43 C 54.55,108.23 54.73,107.88 54.93,107.75 55.34,107.44 55.75,107.37 56.14,107.31 56.53,107.26 56.92,107.24 57.3,107.25 58.81,107.28 60.27,107.53 61.72,107.79 67.51,108.92 73.15,110.56 78.74,112.33 L 78.72,112.41 Z M 78.72,112.41" />
        </g>
        <g id="fevvaTop7-group183">
            <path id="fevvaTop7-bezier182" stroke="none" fill="rgb(0, 0, 0)" d="M 109.58,135.42 C 104.31,135.44 99.06,135.91 93.86,136.68 88.66,137.45 83.5,138.57 78.5,140.16 76,140.97 73.55,141.9 71.16,142.97 68.79,144.07 66.35,145.18 63.82,145.98 61.29,146.75 58.63,147.36 55.94,147.16 54.6,147.05 53.23,146.71 52.13,145.88 51.59,145.46 51.14,144.91 50.88,144.28 50.76,143.96 50.68,143.63 50.69,143.28 50.7,142.95 50.77,142.58 51.06,142.36 L 51.1,142.42 C 50.87,142.62 50.82,142.97 50.83,143.28 50.85,143.6 50.94,143.91 51.08,144.2 51.35,144.77 51.81,145.25 52.33,145.6 53.39,146.32 54.69,146.59 55.97,146.64 58.55,146.72 61.13,146.1 63.59,145.27 66.09,144.48 68.45,143.4 70.86,142.29 73.3,141.25 75.79,140.35 78.32,139.59 83.38,138.05 88.58,137 93.8,136.31 99.04,135.63 104.31,135.27 109.58,135.35 L 109.58,135.42 Z M 109.58,135.42" />
        </g>
        <g id="fevvaTop7-group184">
            <path id="fevvaTop7-bezier183" stroke="none" fill="rgb(0, 0, 0)" d="M 76.92,136.09 C 69.38,137.6 61.82,138.99 54.16,139.88 52.24,140.09 50.32,140.29 48.36,140.23 47.87,140.21 47.38,140.18 46.87,140.07 46.61,140.02 46.36,139.96 46.08,139.81 45.94,139.73 45.79,139.63 45.67,139.43 45.6,139.29 45.62,139.31 45.58,139.22 45.56,139.14 45.53,139.05 45.52,138.98 45.36,137.84 45.75,136.91 46.09,135.99 46.82,134.17 47.81,132.5 48.86,130.88 49.38,130.07 49.92,129.27 50.51,128.51 51.1,127.75 51.65,126.95 52.4,126.31 L 52.43,126.37 C 51.77,127.03 51.27,127.88 50.73,128.66 50.22,129.47 49.71,130.28 49.23,131.11 48.28,132.77 47.36,134.46 46.69,136.22 46.39,137.09 46.08,138.05 46.23,138.83 46.24,138.88 46.25,138.91 46.26,138.94 46.27,138.97 46.32,139.09 46.31,139.06 46.32,139.07 46.37,139.11 46.44,139.15 46.59,139.23 46.8,139.29 47.02,139.33 47.45,139.41 47.92,139.44 48.39,139.45 50.27,139.5 52.19,139.37 54.1,139.22 57.91,138.89 61.72,138.37 65.52,137.82 69.32,137.26 73.12,136.67 76.91,136.01 L 76.92,136.09 Z M 76.92,136.09" />
        </g>
        <g id="fevvaTop7-group185">
            <path id="fevvaTop7-bezier184" stroke="none" fill="rgb(0, 0, 0)" d="M 78.75,127.42 C 73.07,129.22 67.35,130.88 61.48,132.01 60.01,132.27 58.53,132.52 56.98,132.51 56.6,132.5 56.21,132.47 55.8,132.39 55.42,132.28 54.92,132.18 54.62,131.62 54.59,131.55 54.57,131.48 54.55,131.4 L 54.52,131.26 54.47,130.99 54.39,130.42 54.25,129.3 C 54.1,127.81 54.04,126.31 54.11,124.81 54.14,124.06 54.19,123.31 54.33,122.57 54.4,122.2 54.48,121.83 54.6,121.47 54.74,121.12 54.89,120.74 55.23,120.52 L 55.27,120.58 C 54.99,120.8 54.87,121.17 54.78,121.52 54.69,121.87 54.65,122.24 54.61,122.6 54.56,123.34 54.54,124.07 54.56,124.81 54.6,126.29 54.72,127.76 54.91,129.22 L 55.08,130.31 55.19,130.85 55.25,131.12 55.28,131.25 C 55.29,131.27 55.29,131.28 55.3,131.3 55.35,131.43 55.65,131.57 55.96,131.63 56.29,131.7 56.64,131.72 57,131.73 58.43,131.76 59.91,131.57 61.37,131.36 64.3,130.92 67.2,130.27 70.09,129.58 72.98,128.89 75.86,128.15 78.72,127.35 L 78.75,127.42 Z M 78.75,127.42" />
        </g>
        <g id="fevvaTop7-group186">
            <path id="fevvaTop7-bezier185" stroke="none" fill="rgb(0, 0, 0)" d="M 153.99,133.34 C 159.25,132.41 164.47,131.15 169.48,129.33 171.97,128.41 174.44,127.35 176.65,125.9 177.75,125.17 178.8,124.35 179.62,123.35 180.44,122.35 181,121.13 180.99,119.87 180.98,118.61 180.4,117.41 179.57,116.44 178.74,115.46 177.69,114.65 176.58,113.95 174.37,112.53 171.91,111.49 169.41,110.59 164.42,108.76 159.22,107.49 153.99,106.41 L 154,106.33 C 159.32,107 164.57,108.16 169.67,109.88 172.19,110.8 174.69,111.86 176.99,113.33 178.12,114.08 179.21,114.93 180.09,116.01 180.96,117.07 181.61,118.44 181.59,119.87 181.58,121.31 180.93,122.65 180.04,123.69 179.15,124.75 178.06,125.58 176.92,126.31 174.63,127.76 172.13,128.79 169.6,129.68 164.53,131.42 159.29,132.58 154,133.41 L 153.99,133.34 Z M 153.99,133.34" />
        </g>
        <g id="fevvaTop7-group187">
            <path id="fevvaTop7-bezier186" stroke="none" fill="rgb(0, 0, 0)" d="M 180.57,124.54 C 182.58,123.78 184.58,123 186.57,122.21 L 189.56,121.01 191.03,120.38 191.75,120.04 192.09,119.86 192.24,119.76 C 192.26,119.75 192.29,119.73 192.29,119.73 192.29,119.72 192.3,119.71 192.29,119.73 L 192.27,119.75 C 192.25,119.79 192.24,119.83 192.25,119.87 192.22,119.93 192.32,120.06 192.29,120.02 L 192.24,119.98 192.08,119.9 191.74,119.73 191.01,119.42 189.51,118.85 186.51,117.71 C 184.52,116.89 182.52,116.12 180.57,115.2 L 180.59,115.13 C 182.69,115.64 184.73,116.32 186.77,117 187.78,117.37 188.79,117.74 189.79,118.16 L 191.27,118.81 192.01,119.16 192.38,119.36 192.57,119.48 C 192.61,119.51 192.64,119.52 192.69,119.56 192.7,119.56 192.86,119.74 192.84,119.87 192.84,119.92 192.83,119.98 192.8,120.03 192.78,120.07 192.77,120.08 192.76,120.1 192.72,120.14 192.7,120.16 192.68,120.17 192.64,120.21 192.61,120.23 192.57,120.26 L 192.37,120.37 192,120.55 191.25,120.87 189.74,121.46 186.71,122.56 C 184.67,123.26 182.64,123.94 180.59,124.61 L 180.57,124.54 Z M 180.57,124.54" />
        </g>
        <g id="fevvaTop7-group188">
            <path id="fevvaTop7-bezier187" stroke="none" fill="rgb(0, 0, 0)" d="M 173.07,126.09 C 173.01,125.8 172.75,125.59 172.47,125.53 172.19,125.46 171.89,125.49 171.62,125.56 171.08,125.68 170.57,126.18 170.69,126.6 170.83,127.06 171.45,127.13 171.95,127.06 172.21,127.01 172.47,126.95 172.7,126.8 172.93,126.66 173.13,126.39 173.07,126.09 Z M 173.12,126.08 C 173.27,126.71 172.71,127.39 172.05,127.55 171.72,127.63 171.36,127.63 171.03,127.5 170.7,127.38 170.37,127.08 170.3,126.71 170.22,126.29 170.44,125.95 170.69,125.73 170.94,125.51 171.26,125.37 171.56,125.32 172.19,125.21 172.93,125.46 173.12,126.08 Z M 173.12,126.08" />
        </g>
    </g>
</svg>
