<?xml version="1.0" encoding="UTF-8"?>
<!DOCTYPE svg PUBLIC "-//W3C//DTD SVG 1.1//EN" "http://www.w3.org/Graphics/SVG/1.1/DTD/svg11.dtd">
<svg version="1.1" xmlns="http://www.w3.org/2000/svg" xmlns:xlink="http://www.w3.org/1999/xlink" width="240" height="160"  xml:space="preserve" id="fevvaSide2">
    <!-- Generated by PaintCode - http://www.paintcodeapp.com -->
    <g id="fevvaSide2-group2">
        <g id="fevvaSide2-group24">
            <path id="fevvaSide2-bezier23" stroke="none" fill="rgb(0, 0, 0)" d="M 181.89,86.98 C 183.74,87.6 185.58,88.26 187.4,88.98 188.31,89.35 189.21,89.73 190.1,90.15 190.55,90.36 190.99,90.58 191.42,90.83 191.86,91.09 192.29,91.32 192.68,91.77 L 193.24,92.4 192.38,92.26 C 191.52,92.12 190.6,92.11 189.7,92.12 188.79,92.13 187.89,92.16 186.98,92.19 186.07,92.21 185.16,92.29 184.26,92.36 183.36,92.45 182.44,92.51 181.58,92.8 L 181.55,92.73 C 182.35,92.24 183.28,92.05 184.18,91.85 185.09,91.66 186.01,91.56 186.93,91.46 187.85,91.38 188.78,91.34 189.7,91.37 190.63,91.4 191.56,91.45 192.5,91.65 L 192.19,92.14 C 191.96,91.84 191.53,91.56 191.14,91.31 190.73,91.06 190.31,90.82 189.88,90.6 189.02,90.15 188.14,89.74 187.25,89.34 185.48,88.53 183.68,87.77 181.86,87.05 L 181.89,86.98 Z M 181.89,86.98" />
        </g>
        <g id="fevvaSide2-group25">
            <path id="fevvaSide2-bezier24" stroke="none" fill="rgb(0, 0, 0)" d="M 180.08,92.81 C 175.69,94.2 171.3,95.61 166.93,97.06 164.75,97.79 162.56,98.53 160.4,99.32 158.24,100.07 156.2,101.14 154.13,102.14 149.99,104.16 145.82,106.16 141.5,107.82 137.19,109.43 132.7,110.87 127.99,110.97 L 121.07,110.84 C 118.76,110.8 116.45,110.78 114.12,110.55 111.81,110.32 109.45,109.79 107.33,108.69 106.8,108.42 106.28,108.11 105.8,107.8 105.32,107.5 104.85,107.25 104.33,107.01 103.31,106.55 102.24,106.17 101.16,105.82 92.43,103.06 83.24,101.76 74.32,99.44 L 74.34,99.34 C 83.38,101.11 92.54,102.24 101.46,104.86 102.57,105.22 103.67,105.61 104.75,106.11 105.28,106.35 105.83,106.64 106.33,106.95 106.81,107.27 107.28,107.54 107.78,107.8 109.76,108.83 111.98,109.33 114.23,109.57 116.49,109.82 118.79,109.87 121.09,109.94 L 127.98,110.17 C 132.52,110.13 136.98,108.76 141.28,107.21 145.58,105.61 149.75,103.67 153.91,101.69 155.99,100.72 158.07,99.67 160.27,98.94 162.45,98.18 164.64,97.47 166.84,96.78 171.23,95.38 175.64,94.04 180.05,92.72 L 180.08,92.81 Z M 180.08,92.81" />
        </g>
        <g id="fevvaSide2-group26">
            <path id="fevvaSide2-bezier25" stroke="none" fill="rgb(0, 0, 0)" d="M 149.12,83.61 C 148.62,81.83 148.29,80.01 148.12,78.16 147.97,76.33 147.97,74.44 148.44,72.63 148.67,71.73 149.04,70.84 149.62,70.08 150.17,69.28 151.04,68.8 151.71,68.23 152.42,67.65 153.1,67.03 153.67,66.34 154.24,65.65 154.73,64.87 154.88,64.03 155.05,63.18 154.77,62.32 154.22,61.66 153.67,61 152.9,60.45 152.15,60.07 150.5,59.48 148.62,59.27 146.82,59 143.18,58.53 139.5,58.21 135.83,57.93 128.49,57.4 121.13,57.11 113.77,56.83 110.1,56.67 106.42,56.58 102.74,56.55 100.9,56.53 99.06,56.54 97.22,56.61 96.31,56.64 95.39,56.69 94.48,56.77 94.02,56.82 93.56,56.88 93.12,56.96 92.68,57.06 92.2,57.15 91.87,57.43 L 91.8,57.36 C 92.16,57.01 92.63,56.91 93.08,56.78 93.53,56.66 93.98,56.57 94.44,56.5 95.35,56.35 96.27,56.25 97.19,56.16 99.04,56 100.88,55.91 102.73,55.85 106.42,55.74 110.11,55.77 113.8,55.83 121.18,55.98 128.55,56.49 135.9,57.14 139.58,57.46 143.25,57.83 146.91,58.36 147.82,58.49 148.74,58.64 149.65,58.82 150.56,59 151.47,59.17 152.38,59.54 153.26,60.01 154.01,60.56 154.64,61.33 155.26,62.07 155.59,63.14 155.37,64.12 155.17,65.1 154.62,65.92 154.02,66.63 153.4,67.35 152.7,67.97 151.96,68.54 151.23,69.14 150.42,69.56 149.9,70.29 149.34,70.99 148.97,71.84 148.73,72.71 148.24,74.46 148.2,76.32 148.32,78.15 148.46,79.98 148.76,81.8 149.22,83.58 L 149.12,83.61 Z M 149.12,83.61" />
        </g>
        <g id="fevvaSide2-group27">
            <path id="fevvaSide2-bezier26" stroke="none" fill="rgb(0, 0, 0)" d="M 91.11,58.9 C 92.85,59.94 94.92,60.28 96.91,60.19 L 103,60 C 105.03,59.92 107.06,59.78 109.08,59.75 L 112.13,59.72 C 113.14,59.7 114.16,59.73 115.16,59.61 L 115.18,59.69 C 113.19,60.27 111.14,60.33 109.11,60.5 107.08,60.63 105.05,60.6 103.01,60.6 L 96.92,60.56 C 94.87,60.56 92.77,60.1 91.06,58.96 L 91.11,58.9 Z M 91.11,58.9" />
        </g>
        <g id="fevvaSide2-group28">
            <path id="fevvaSide2-bezier27" stroke="none" fill="rgb(0, 0, 0)" d="M 104.5,61.68 C 98.8,62.47 93.09,63.33 87.41,64.27 81.73,65.21 76.03,66.16 70.45,67.53 69.08,67.9 67.65,68.26 66.43,68.87 66.14,68.99 65.84,69.29 65.94,69.27 65.92,69.29 66.24,69.53 66.54,69.6 67.17,69.8 67.88,69.88 68.58,69.95 71.42,70.18 74.31,70.09 77.17,69.97 82.92,69.76 88.67,69.35 94.41,68.83 L 94.42,68.91 C 88.73,69.85 82.97,70.37 77.21,70.72 74.32,70.83 71.43,70.93 68.51,70.68 67.78,70.6 67.06,70.51 66.31,70.27 66.13,70.21 65.94,70.13 65.75,70.01 65.57,69.9 65.33,69.73 65.26,69.37 L 65.25,69.3 65.24,69.28 C 65.24,69.18 65.24,69.23 65.24,69.2 L 65.25,69.12 C 65.27,69.03 65.31,68.95 65.35,68.88 65.43,68.75 65.52,68.67 65.6,68.6 65.78,68.46 65.95,68.36 66.12,68.27 67.5,67.62 68.9,67.31 70.31,66.95 75.95,65.64 81.65,64.77 87.35,63.9 93.06,63.06 98.77,62.3 104.5,61.6 L 104.5,61.68 Z M 104.5,61.68" />
        </g>
        <g id="fevvaSide2-group29">
            <path id="fevvaSide2-bezier28" stroke="none" fill="rgb(0, 0, 0)" d="M 86.69,70.89 C 84.1,72.28 81.42,73.51 78.66,74.53 77.27,75.03 75.86,75.48 74.41,75.8 73.69,75.96 72.96,76.09 72.21,76.16 71.47,76.22 70.76,76.29 70.03,76.39 67.14,76.78 64.28,77.44 61.43,78.06 60,78.36 58.58,78.71 57.16,79.07 56.45,79.25 55.75,79.44 55.05,79.66 54.7,79.76 54.35,79.87 54.01,80 53.69,80.14 53.3,80.26 53.12,80.53 L 53.05,80.52 C 53.24,80.14 53.62,80.01 53.93,79.81 54.26,79.64 54.59,79.49 54.93,79.34 55.62,79.06 56.31,78.81 57.01,78.57 58.41,78.1 59.83,77.71 61.26,77.33 64.11,76.61 67.02,76.11 69.96,75.79 70.69,75.71 71.45,75.66 72.17,75.62 72.88,75.57 73.6,75.46 74.31,75.32 75.74,75.04 77.15,74.64 78.53,74.18 81.31,73.26 84.02,72.12 86.65,70.82 L 86.69,70.89 Z M 86.69,70.89" />
        </g>
        <g id="fevvaSide2-group30">
            <path id="fevvaSide2-bezier29" stroke="none" fill="rgb(0, 0, 0)" d="M 53.5,81.12 C 57.62,81.16 61.75,81.11 65.86,80.92 67.91,80.81 69.96,80.62 72,80.47 74.04,80.3 76.09,80.14 78.07,79.58 L 78.1,79.65 C 76.23,80.63 74.12,80.92 72.08,81.21 70.02,81.47 67.94,81.49 65.88,81.52 61.74,81.57 57.62,81.45 53.5,81.19 L 53.5,81.12 Z M 53.5,81.12" />
        </g>
        <g id="fevvaSide2-group31">
            <path id="fevvaSide2-bezier30" stroke="none" fill="rgb(0, 0, 0)" d="M 60.69,82.36 C 58.65,83.81 56.5,85.16 54.06,85.91 53.75,86.01 53.43,86.06 53.14,86.14 53,86.18 52.84,86.22 52.76,86.27 52.73,86.27 52.76,86.33 52.79,86.16 52.74,86 52.72,86.07 52.75,86.06 52.79,86.08 52.86,86.09 52.93,86.11 53.51,86.2 54.15,86.22 54.77,86.24 56.01,86.27 57.26,86.26 58.51,86.24 59.77,86.21 61,86.21 62.22,86.04 63.45,85.89 64.68,85.7 65.9,85.48 67.13,85.28 68.34,85.01 69.56,84.74 70.16,84.6 70.77,84.44 71.36,84.27 71.95,84.09 72.58,83.94 73.05,83.57 L 73.11,83.62 C 72.67,84.12 72.04,84.32 71.48,84.59 70.89,84.83 70.3,85.04 69.7,85.24 68.5,85.63 67.27,85.93 66.04,86.21 64.81,86.47 63.56,86.68 62.3,86.78 61.03,86.9 59.76,86.86 58.51,86.84 57.26,86.82 56,86.79 54.75,86.72 54.12,86.68 53.5,86.65 52.85,86.53 52.76,86.51 52.68,86.49 52.58,86.45 52.54,86.41 52.43,86.43 52.37,86.19 52.4,85.94 52.51,85.96 52.55,85.91 52.74,85.82 52.89,85.79 53.05,85.75 53.37,85.67 53.67,85.63 53.96,85.55 56.35,84.92 58.57,83.66 60.65,82.3 L 60.69,82.36 Z M 60.69,82.36" />
        </g>
        <g id="fevvaSide2-group32">
            <path id="fevvaSide2-bezier31" stroke="none" fill="rgb(0, 0, 0)" d="M 67.02,86.57 C 65.01,88.39 62.69,89.9 60.13,90.88 59.49,91.12 58.81,91.31 58.17,91.47 57.85,91.55 57.52,91.65 57.28,91.8 57.23,91.83 57.2,91.88 57.22,91.84 57.23,91.75 57.19,91.76 57.25,91.8 57.34,91.86 57.5,91.91 57.65,91.95 58.91,92.27 60.29,92.34 61.62,92.42 62.98,92.47 64.29,92.5 65.6,92.23 66.91,92 68.23,91.7 69.52,91.35 72.11,90.66 74.66,89.76 76.98,88.35 L 77.02,88.41 C 74.93,90.19 72.32,91.24 69.73,92.07 68.41,92.46 67.08,92.77 65.71,92.96 64.35,93.2 62.93,93.12 61.58,93.02 60.22,92.9 58.87,92.8 57.51,92.42 57.33,92.36 57.17,92.31 56.98,92.19 56.9,92.13 56.72,92 56.76,91.73 56.84,91.52 56.95,91.47 57.04,91.41 57.39,91.21 57.72,91.14 58.06,91.05 58.73,90.9 59.37,90.74 60.01,90.53 62.55,89.66 64.91,88.25 66.98,86.51 L 67.02,86.57 Z M 67.02,86.57" />
        </g>
        <g id="fevvaSide2-group33">
            <path id="fevvaSide2-bezier32" stroke="none" fill="rgb(0, 0, 0)" d="M 74.9,92.05 C 74.81,92.46 74.42,92.6 74.12,92.76 73.8,92.91 73.47,93.02 73.13,93.11 72.46,93.3 71.77,93.44 71.08,93.55 69.7,93.77 68.31,93.9 66.92,94 64.13,94.17 61.35,94.3 58.58,94.52 55.8,94.74 53.02,94.97 50.29,95.43 49.61,95.55 48.92,95.68 48.29,95.89 48.14,95.94 47.98,96 47.86,96.07 47.79,96.12 47.78,96.12 47.72,96.19 47.64,96.26 47.58,96.32 47.51,96.39 L 46.7,97.05 C 46.44,97.27 46.18,97.5 46.04,97.74 45.96,97.86 45.96,97.94 45.98,97.97 45.99,98.01 46.1,98.09 46.23,98.15 46.79,98.36 47.51,98.4 48.19,98.42 50.96,98.48 53.75,98.43 56.53,98.39 59.31,98.36 62.1,98.3 64.88,98.22 67.67,98.17 70.45,98.08 73.23,97.96 74.62,97.89 76.01,97.81 77.39,97.69 78.77,97.56 80.18,97.49 81.48,97.02 L 81.52,97.09 C 80.22,97.66 78.8,97.81 77.43,98.03 76.04,98.22 74.65,98.36 73.26,98.48 70.48,98.71 67.69,98.85 64.9,98.97 59.32,99.13 53.75,99.2 48.16,99.02 47.45,98.98 46.75,98.96 46,98.67 45.82,98.58 45.6,98.48 45.46,98.2 45.33,97.9 45.45,97.61 45.56,97.44 45.79,97.09 46.07,96.87 46.35,96.63 L 47.16,95.98 47.34,95.83 C 47.39,95.77 47.52,95.66 47.6,95.62 47.78,95.52 47.95,95.45 48.13,95.4 48.82,95.18 49.51,95.06 50.21,94.94 52.98,94.52 55.77,94.33 58.55,94.15 61.33,93.97 64.12,93.89 66.9,93.77 68.29,93.7 69.68,93.59 71.06,93.4 71.75,93.3 72.43,93.18 73.1,93 73.44,92.91 73.77,92.81 74.08,92.67 74.38,92.53 74.75,92.36 74.83,92.06 L 74.9,92.05 Z M 74.9,92.05" />
        </g>
        <g id="fevvaSide2-group34">
            <path id="fevvaSide2-bezier33" stroke="none" fill="rgb(0, 0, 0)" d="M 142.96,67.56 C 142.36,67.23 141.58,67.16 140.88,67.02 140.17,66.9 139.44,66.81 138.72,66.73 137.27,66.57 135.82,66.45 134.37,66.37 131.46,66.2 128.55,66.15 125.64,66.22 122.73,66.29 119.83,66.51 116.94,66.73 114.03,66.92 111.15,67.26 108.24,67.58 L 108.23,67.5 C 111.06,66.76 113.96,66.31 116.87,65.98 119.78,65.67 122.71,65.61 125.64,65.62 128.56,65.63 131.48,65.75 134.4,66 135.85,66.13 137.3,66.29 138.75,66.5 139.47,66.61 140.19,66.73 140.91,66.87 141.27,66.94 141.63,67.02 141.98,67.11 142.33,67.22 142.7,67.27 143.01,67.51 L 142.96,67.56 Z M 142.96,67.56" />
        </g>
        <g id="fevvaSide2-group35">
            <path id="fevvaSide2-bezier34" stroke="none" fill="rgb(0, 0, 0)" d="M 180.03,86.18 C 178.98,85.45 177.75,85.01 176.54,84.61 175.32,84.22 174.07,83.92 172.81,83.67 170.29,83.16 167.74,82.84 165.18,82.63 162.61,82.43 160.04,82.39 157.48,82.25 154.91,82.08 152.33,82.01 149.75,81.77 L 149.75,81.67 C 152.32,81.34 154.91,81.27 157.51,81.25 160.1,81.26 162.68,81.52 165.26,81.83 167.83,82.15 170.4,82.56 172.92,83.18 174.17,83.5 175.42,83.87 176.64,84.32 177.84,84.79 179.06,85.3 180.09,86.1 L 180.03,86.18 Z M 180.03,86.18" />
        </g>
        <g id="fevvaSide2-group36">
            <path id="fevvaSide2-bezier35" stroke="none" fill="rgb(0, 0, 0)" d="M 174.18,86.48 C 174.18,87.22 173.58,87.99 172.74,88.02 171.92,88.07 171.12,87.34 171.12,86.48 171.06,85.62 171.83,84.75 172.74,84.81 173.17,84.82 173.59,85.06 173.83,85.38 174.08,85.7 174.19,86.1 174.18,86.48 Z M 174.13,86.47 C 174.12,86.11 173.92,85.77 173.64,85.57 173.37,85.37 173.04,85.3 172.74,85.31 172.13,85.33 171.54,85.82 171.52,86.48 171.48,87.12 172.04,87.76 172.74,87.77 173.41,87.83 174.17,87.25 174.13,86.47 Z M 174.13,86.47" />
        </g>
        <g id="fevvaSide2-group73">
            <path id="fevvaSide2-bezier72" stroke="none" fill="rgb(0, 0, 0)" d="M 181.25,88.64 C 180.53,88.73 179.82,88.82 179.12,88.93 178.77,89 178.43,89.12 178.09,89.12 177.75,89.15 177.43,89.09 177.07,89.16 L 177.01,89.12 C 177.06,88.89 177.26,88.74 177.42,88.63 177.6,88.51 177.78,88.44 177.96,88.38 178.33,88.27 178.71,88.32 179.08,88.34 179.81,88.36 180.53,88.44 181.25,88.56 L 181.25,88.64 Z M 181.25,88.64" />
        </g>
        <g id="fevvaSide2-group74">
            <path id="fevvaSide2-bezier73" stroke="none" fill="rgb(0, 0, 0)" d="M 90.61,76.49 C 94.24,76.5 97.87,76.36 101.48,76.07 103.28,75.91 105.07,75.67 106.87,75.48 108.67,75.32 110.46,75.08 112.27,74.87 L 112.29,74.94 C 110.57,75.57 108.77,75.93 106.97,76.23 105.16,76.51 103.34,76.59 101.52,76.67 97.88,76.82 94.24,76.8 90.61,76.57 L 90.61,76.49 Z M 90.61,76.49" />
        </g>
        <g id="fevvaSide2-group75">
            <path id="fevvaSide2-bezier74" stroke="none" fill="rgb(0, 0, 0)" d="M 132.47,86.12 C 132.73,85.82 132.63,85.41 132.43,85.11 132.23,84.8 131.94,84.56 131.63,84.35 131.01,83.93 130.29,83.67 129.56,83.52 128.82,83.37 128.07,83.37 127.32,83.32 126.57,83.26 125.81,83.25 125.01,83.18 L 124.99,83.1 C 125.73,82.77 126.52,82.61 127.33,82.57 128.14,82.52 128.94,82.7 129.71,82.94 130.48,83.18 131.23,83.53 131.86,84.05 132.16,84.32 132.45,84.63 132.63,85 132.81,85.36 132.86,85.88 132.53,86.17 L 132.47,86.12 Z M 132.47,86.12" />
        </g>
    </g>
</svg>
