<?xml version="1.0" encoding="UTF-8"?>
<!DOCTYPE svg PUBLIC "-//W3C//DTD SVG 1.1//EN" "http://www.w3.org/Graphics/SVG/1.1/DTD/svg11.dtd">
<svg version="1.1" xmlns="http://www.w3.org/2000/svg" xmlns:xlink="http://www.w3.org/1999/xlink" width="240" height="240"  xml:space="preserve" id="fevvaTop3">
    <!-- Generated by PaintCode - http://www.paintcodeapp.com -->
    <g id="fevvaTop3-group2">
        <g id="fevvaTop3-group161">
            <path id="fevvaTop3-bezier160" stroke="none" fill="rgb(0, 0, 0)" d="M 173.23,113.84 C 173.04,114.46 172.29,114.71 171.67,114.6 171.36,114.54 171.04,114.41 170.79,114.19 170.54,113.97 170.33,113.63 170.41,113.21 170.47,112.84 170.81,112.54 171.13,112.42 171.47,112.29 171.83,112.29 172.16,112.37 172.81,112.53 173.37,113.21 173.23,113.84 Z M 173.18,113.83 C 173.24,113.53 173.04,113.26 172.81,113.12 172.57,112.97 172.31,112.91 172.05,112.86 171.56,112.78 170.94,112.86 170.79,113.32 170.68,113.73 171.19,114.24 171.73,114.36 171.99,114.43 172.29,114.46 172.57,114.39 172.85,114.33 173.12,114.12 173.18,113.83 Z M 173.18,113.83" />
        </g>
        <g id="fevvaTop3-group162">
            <path id="fevvaTop3-bezier161" stroke="none" fill="rgb(0, 0, 0)" d="M 180.68,124.54 C 182.68,123.78 184.69,123 186.68,122.21 L 189.67,121.01 191.14,120.38 191.86,120.04 192.2,119.86 192.35,119.76 C 192.37,119.75 192.39,119.73 192.4,119.73 192.4,119.72 192.41,119.71 192.4,119.73 L 192.38,119.75 C 192.36,119.79 192.35,119.83 192.35,119.87 192.33,119.93 192.43,120.06 192.4,120.02 L 192.35,119.98 192.19,119.9 191.85,119.73 191.12,119.42 189.62,118.85 186.62,117.71 C 184.63,116.89 182.63,116.12 180.68,115.2 L 180.7,115.13 C 182.8,115.64 184.84,116.32 186.88,117 187.89,117.37 188.9,117.74 189.89,118.16 L 191.38,118.81 192.12,119.16 192.49,119.36 192.68,119.48 C 192.72,119.51 192.75,119.52 192.79,119.56 192.81,119.56 192.97,119.74 192.95,119.87 192.95,119.92 192.93,119.98 192.91,120.03 192.89,120.07 192.88,120.08 192.86,120.1 192.83,120.14 192.81,120.16 192.79,120.17 192.74,120.21 192.72,120.23 192.68,120.26 L 192.48,120.37 192.1,120.55 191.35,120.87 189.85,121.46 186.81,122.56 C 184.78,123.26 182.74,123.94 180.7,124.61 L 180.68,124.54 Z M 180.68,124.54" />
        </g>
        <g id="fevvaTop3-group190">
            <path id="fevvaTop3-bezier189" stroke="none" fill="rgb(0, 0, 0)" d="M 173.18,126.09 C 173.12,125.8 172.86,125.59 172.57,125.53 172.29,125.46 171.99,125.49 171.73,125.56 171.19,125.68 170.68,126.18 170.79,126.6 170.94,127.06 171.56,127.13 172.05,127.06 172.31,127.01 172.57,126.95 172.81,126.8 173.04,126.66 173.24,126.39 173.18,126.09 Z M 173.23,126.08 C 173.38,126.71 172.81,127.39 172.16,127.55 171.83,127.63 171.47,127.63 171.13,127.5 170.81,127.38 170.47,127.08 170.41,126.71 170.33,126.29 170.54,125.95 170.79,125.73 171.04,125.51 171.37,125.37 171.67,125.32 172.29,125.21 173.04,125.46 173.23,126.08 Z M 173.23,126.08" />
        </g>
        <g id="fevvaTop3-group239">
            <path id="fevvaTop3-bezier238" stroke="none" fill="rgb(0, 0, 0)" d="M 112.1,38.39 C 104.14,37.96 96.18,37.36 88.25,36.49 84.29,36.05 80.33,35.54 76.39,34.88 72.46,34.2 68.52,33.48 64.73,32.05 L 64.69,32.03 64.65,32 C 64.03,31.49 62.97,31.73 62.49,32.38 61.97,33.02 62.31,33.93 63.01,34.5 63.67,35.11 64.58,35.48 65.46,35.93 66.33,36.36 67.21,36.78 68.1,37.18 71.66,38.77 75.38,40.01 79.16,40.98 82.94,41.97 86.8,42.63 90.68,43.11 94.56,43.58 98.48,43.84 102.4,43.93 L 102.4,44 C 98.48,44.09 94.54,43.98 90.63,43.61 86.71,43.25 82.81,42.6 78.98,41.68 75.15,40.75 71.4,39.46 67.8,37.86 66.9,37.45 66.01,37.03 65.13,36.59 64.27,36.14 63.33,35.75 62.53,35.03 62.14,34.67 61.78,34.22 61.62,33.65 61.45,33.09 61.59,32.42 61.96,31.96 62.66,31.05 64.08,30.73 65.05,31.5 L 64.97,31.45 C 68.63,32.9 72.58,33.65 76.48,34.38 80.4,35.07 84.34,35.62 88.3,36.1 96.21,37.06 104.15,37.78 112.1,38.32 L 112.1,38.39 Z M 112.1,38.39" />
        </g>
        <g id="fevvaTop3-group240">
            <path id="fevvaTop3-bezier239" stroke="none" fill="rgb(0, 0, 0)" d="M 106.51,45.91 C 97.95,45.59 89.39,45.11 80.84,44.36 76.57,43.98 72.3,43.53 68.05,42.89 65.93,42.57 63.81,42.2 61.71,41.7 60.67,41.45 59.62,41.16 58.6,40.79 57.62,40.46 56.57,40.18 55.59,40.25 55.09,40.29 54.68,40.49 54.73,40.81 54.75,41.18 55.06,41.62 55.4,41.98 56.1,42.72 56.98,43.32 57.88,43.87 59.69,44.95 61.65,45.79 63.64,46.55 67.63,48.04 71.78,49.1 75.96,49.97 84.32,51.78 92.86,52.64 101.4,53.3 L 101.4,53.37 C 97.11,53.25 92.83,52.99 88.56,52.54 84.29,52.1 80.03,51.51 75.81,50.69 71.6,49.84 67.42,48.75 63.38,47.24 61.36,46.47 59.38,45.59 57.52,44.45 56.6,43.87 55.69,43.25 54.92,42.42 54.56,42 54.15,41.55 54.09,40.82 54.06,40.45 54.32,40.04 54.63,39.89 54.93,39.71 55.24,39.66 55.53,39.63 56.7,39.57 57.76,39.89 58.8,40.24 59.8,40.61 60.81,40.9 61.85,41.16 63.91,41.67 66.02,42.05 68.13,42.39 72.36,43.07 76.61,43.56 80.88,43.98 89.4,44.82 97.96,45.41 106.52,45.84 L 106.51,45.91 Z M 106.51,45.91" />
        </g>
        <g id="fevvaTop3-group241">
            <path id="fevvaTop3-bezier240" stroke="none" fill="rgb(0, 0, 0)" d="M 69.82,50.98 C 67.42,50.43 64.97,50.06 62.52,49.81 61.29,49.7 60.05,49.61 58.84,49.71 58.54,49.74 58.24,49.78 57.97,49.87 57.69,49.96 57.47,50.12 57.53,50.32 57.68,50.78 58.25,51.18 58.72,51.53 60.74,52.9 63,53.93 65.3,54.77 67.61,55.62 69.98,56.31 72.36,56.94 74.75,57.56 77.16,58.1 79.57,58.61 81.98,59.13 84.4,59.61 86.83,60.05 91.68,61.02 96.55,61.82 101.41,62.75 L 101.4,62.83 C 96.48,62.32 91.58,61.62 86.7,60.79 81.83,59.9 76.98,58.86 72.21,57.52 69.82,56.85 67.45,56.12 65.13,55.23 62.81,54.35 60.55,53.27 58.5,51.83 58.25,51.65 58,51.45 57.76,51.23 57.54,51 57.29,50.77 57.2,50.38 57.15,50.18 57.25,49.93 57.4,49.81 57.55,49.68 57.71,49.62 57.87,49.57 58.19,49.47 58.5,49.43 58.82,49.41 60.07,49.33 61.31,49.45 62.54,49.58 65,49.89 67.44,50.3 69.84,50.9 L 69.82,50.98 Z M 69.82,50.98" />
        </g>
        <g id="fevvaTop3-group242">
            <path id="fevvaTop3-bezier241" stroke="none" fill="rgb(0, 0, 0)" d="M 69.04,58.63 C 68.6,59.11 68.19,59.62 67.92,60.2 67.66,60.78 67.61,61.46 67.91,62.01 68.52,63.12 69.78,63.71 70.93,64.23 73.32,65.23 75.86,65.86 78.39,66.48 80.92,67.08 83.49,67.58 86.01,68.24 88.54,68.91 91.07,69.58 93.54,70.47 L 93.52,70.54 C 90.94,70.07 88.4,69.51 85.84,68.97 83.29,68.41 80.76,67.74 78.24,67.06 75.72,66.36 73.18,65.67 70.78,64.58 70.18,64.29 69.6,63.98 69.05,63.59 68.52,63.21 68,62.74 67.71,62.11 67.4,61.48 67.49,60.73 67.79,60.14 68.08,59.54 68.53,59.04 68.99,58.58 L 69.04,58.63 Z M 69.04,58.63" />
        </g>
        <g id="fevvaTop3-group243">
            <path id="fevvaTop3-bezier242" stroke="none" fill="rgb(0, 0, 0)" d="M 74.88,69.04 C 74.65,69.42 74.94,69.85 75.2,70.16 75.48,70.48 75.81,70.75 76.16,71.01 76.85,71.52 77.6,71.96 78.36,72.36 79.88,73.17 81.47,73.85 83.09,74.47 84.71,75.08 86.36,75.57 88,76.14 89.63,76.73 91.28,77.24 92.91,77.87 L 92.89,77.94 C 91.15,77.73 89.46,77.32 87.77,76.86 86.09,76.38 84.47,75.72 82.86,75.03 81.26,74.33 79.68,73.58 78.17,72.69 77.43,72.23 76.69,71.75 76.02,71.19 75.68,70.9 75.36,70.6 75.09,70.25 74.84,69.92 74.54,69.43 74.81,69.01 L 74.88,69.04 Z M 74.88,69.04" />
        </g>
        <g id="fevvaTop3-group244">
            <path id="fevvaTop3-bezier243" stroke="none" fill="rgb(0, 0, 0)" d="M 80.05,77.28 C 79.89,77.72 79.83,78.21 79.95,78.66 80.07,79.11 80.35,79.51 80.69,79.83 81.37,80.48 82.24,80.91 83.12,81.27 84.88,81.98 86.74,82.42 88.61,82.82 90.47,83.21 92.36,83.53 94.24,83.86 95.18,84.03 96.12,84.16 97.07,84.38 98.01,84.61 98.94,84.91 99.83,85.31 103.39,86.85 106.34,90.04 107.22,93.92 108.14,97.79 107.06,101.92 104.78,104.99 L 104.72,104.95 C 106.58,101.63 107.39,97.72 106.48,94.1 106.03,92.31 105.21,90.6 104.02,89.16 102.84,87.73 101.31,86.58 99.61,85.78 98.76,85.38 97.87,85.06 96.96,84.83 96.05,84.59 95.1,84.44 94.17,84.26 92.29,83.91 90.41,83.54 88.54,83.11 86.68,82.67 84.81,82.19 83.04,81.44 82.17,81.05 81.29,80.61 80.6,79.92 80.25,79.58 79.97,79.16 79.85,78.68 79.73,78.21 79.8,77.7 79.98,77.25 L 80.05,77.28 Z M 80.05,77.28" />
        </g>
        <g id="fevvaTop3-group245">
            <path id="fevvaTop3-bezier244" stroke="none" fill="rgb(0, 0, 0)" d="M 109.69,105.41 C 104.52,105.55 99.35,105.37 94.19,104.99 89.03,104.59 83.89,103.95 78.8,103 76.25,102.53 73.72,101.97 71.21,101.31 68.71,100.62 66.25,99.91 63.73,99.37 61.23,98.79 58.69,98.33 56.14,98.22 54.88,98.17 53.58,98.21 52.39,98.61 51.81,98.8 51.23,99.12 50.93,99.66 50.63,100.18 50.73,100.93 51.21,101.34 L 51.17,101.4 C 50.62,101 50.44,100.19 50.74,99.57 51.04,98.93 51.66,98.54 52.27,98.29 53.52,97.8 54.85,97.71 56.15,97.69 58.77,97.7 61.35,98.13 63.9,98.64 66.43,99.18 68.94,99.9 71.41,100.6 73.89,101.3 76.39,101.9 78.92,102.41 83.97,103.43 89.09,104.14 94.22,104.62 99.36,105.1 104.53,105.38 109.69,105.33 L 109.69,105.41 Z M 109.69,105.41" />
        </g>
        <g id="fevvaTop3-group246">
            <path id="fevvaTop3-bezier245" stroke="none" fill="rgb(0, 0, 0)" d="M 77.01,107.74 C 73.61,107.15 70.2,106.61 66.79,106.11 63.38,105.6 59.96,105.13 56.54,104.76 54.82,104.58 53.11,104.43 51.39,104.35 50.54,104.3 49.68,104.28 48.84,104.29 48.41,104.3 47.99,104.32 47.58,104.36 47.19,104.4 46.75,104.48 46.5,104.63 46.45,104.66 46.41,104.71 46.42,104.69 46.38,104.79 46.32,104.9 46.3,104.98 46.24,105.14 46.19,105.33 46.16,105.53 46.09,105.92 46.08,106.34 46.09,106.75 46.11,107.59 46.26,108.42 46.43,109.26 46.6,110.09 46.83,110.92 47.11,111.73 47.4,112.52 47.65,113.39 48.21,114.01 L 48.17,114.07 C 47.8,113.79 47.6,113.39 47.38,113.02 47.16,112.64 46.97,112.25 46.79,111.85 46.45,111.05 46.16,110.23 45.92,109.38 45.68,108.54 45.51,107.68 45.44,106.79 45.41,106.34 45.41,105.89 45.47,105.43 45.5,105.19 45.54,104.97 45.62,104.72 45.66,104.59 45.7,104.51 45.74,104.4 45.84,104.19 45.97,104.09 46.09,104 46.6,103.71 47.04,103.67 47.49,103.6 47.94,103.55 48.38,103.52 48.82,103.51 49.7,103.5 50.57,103.55 51.44,103.61 53.17,103.74 54.89,103.94 56.61,104.16 63.47,105.06 70.26,106.3 77.03,107.67 L 77.01,107.74 Z M 77.01,107.74" />
        </g>
        <g id="fevvaTop3-group247">
            <path id="fevvaTop3-bezier246" stroke="none" fill="rgb(0, 0, 0)" d="M 78.83,114.41 C 76.21,113.67 73.57,112.99 70.92,112.35 68.27,111.7 65.61,111.1 62.93,110.63 61.59,110.4 60.25,110.2 58.91,110.09 58.24,110.04 57.57,110 56.92,110.03 56.59,110.04 56.27,110.07 55.98,110.14 55.69,110.21 55.45,110.34 55.4,110.46 55.4,110.48 55.39,110.49 55.39,110.51 L 55.36,110.63 55.3,110.88 55.18,111.38 54.96,112.37 C 54.82,113.03 54.71,113.7 54.6,114.36 54.5,115.03 54.43,115.7 54.44,116.36 54.45,117.01 54.52,117.74 55.04,118.17 L 55,118.24 C 54.35,117.86 54.2,117.05 54.1,116.39 54.02,115.69 54.04,115 54.08,114.31 54.12,113.61 54.22,112.93 54.32,112.25 L 54.49,111.24 54.58,110.73 54.63,110.48 54.65,110.35 C 54.67,110.29 54.69,110.22 54.72,110.16 54.98,109.64 55.44,109.5 55.79,109.4 56.17,109.31 56.53,109.27 56.88,109.25 57.6,109.23 58.29,109.28 58.98,109.36 60.35,109.51 61.7,109.76 63.04,110.04 68.41,111.16 73.65,112.69 78.85,114.34 L 78.83,114.41 Z M 78.83,114.41" />
        </g>
        <g id="fevvaTop3-group248">
            <path id="fevvaTop3-bezier247" stroke="none" fill="rgb(0, 0, 0)" d="M 109.69,134.42 C 104.53,134.46 99.38,134.78 94.25,135.28 89.12,135.78 84.01,136.48 78.96,137.46 76.43,137.95 73.92,138.52 71.44,139.17 68.96,139.84 66.43,140.49 63.86,140.89 61.29,141.25 58.66,141.45 56.06,141.04 54.77,140.81 53.47,140.44 52.37,139.69 51.82,139.31 51.33,138.83 51.03,138.23 50.88,137.93 50.79,137.6 50.78,137.26 50.78,136.93 50.88,136.56 51.16,136.36 L 51.21,136.42 C 50.74,136.86 50.92,137.62 51.22,138.13 51.53,138.66 52.02,139.08 52.55,139.4 53.63,140.06 54.88,140.36 56.14,140.51 58.66,140.81 61.23,140.57 63.74,140.15 66.28,139.76 68.75,139.12 71.26,138.46 73.77,137.85 76.3,137.32 78.85,136.87 83.94,135.96 89.07,135.33 94.22,134.91 99.36,134.51 104.53,134.29 109.69,134.35 L 109.69,134.42 Z M 109.69,134.42" />
        </g>
        <g id="fevvaTop3-group249">
            <path id="fevvaTop3-bezier248" stroke="none" fill="rgb(0, 0, 0)" d="M 77.02,132.09 C 70.21,133 63.37,133.8 56.5,134.25 54.78,134.36 53.06,134.45 51.32,134.46 50.46,134.46 49.59,134.45 48.72,134.38 48.28,134.35 47.84,134.3 47.4,134.21 46.96,134.11 46.52,134.05 46.03,133.72 45.92,133.64 45.78,133.47 45.72,133.32 45.68,133.21 45.64,133.13 45.61,133 45.53,132.74 45.49,132.53 45.46,132.29 45.4,131.84 45.41,131.38 45.44,130.94 45.51,130.05 45.68,129.19 45.92,128.35 46.16,127.51 46.45,126.69 46.8,125.9 46.97,125.5 47.17,125.11 47.38,124.73 47.6,124.36 47.8,123.96 48.17,123.69 L 48.21,123.75 C 47.65,124.36 47.4,125.23 47.11,126.02 46.84,126.83 46.61,127.65 46.43,128.48 46.26,129.31 46.11,130.14 46.09,130.98 46.07,131.39 46.09,131.8 46.15,132.19 46.18,132.39 46.23,132.59 46.29,132.75 46.31,132.82 46.36,132.93 46.4,133.03 46.43,133.08 46.43,133.07 46.49,133.12 46.72,133.29 47.15,133.39 47.54,133.46 47.94,133.53 48.36,133.58 48.78,133.61 49.62,133.68 50.48,133.71 51.33,133.72 53.04,133.75 54.75,133.71 56.47,133.64 59.9,133.5 63.32,133.25 66.75,132.97 70.17,132.69 73.6,132.38 77.02,132.01 L 77.02,132.09 Z M 77.02,132.09" />
        </g>
        <g id="fevvaTop3-group250">
            <path id="fevvaTop3-bezier249" stroke="none" fill="rgb(0, 0, 0)" d="M 78.85,125.42 C 73.9,126.58 68.9,127.6 63.85,128.28 62.58,128.45 61.31,128.61 60.03,128.68 58.75,128.75 57.45,128.79 56.13,128.48 55.8,128.39 55.46,128.28 55.14,128.04 54.98,127.92 54.82,127.74 54.75,127.51 54.68,127.29 54.68,127.18 54.64,127.01 54.52,126.39 54.4,125.76 54.29,125.13 54.19,124.5 54.07,123.86 54.1,123.2 54.1,122.55 54.38,121.81 55,121.52 L 55.04,121.59 C 54.51,121.95 54.35,122.59 54.41,123.2 54.45,123.81 54.6,124.42 54.75,125.03 L 55.23,126.88 C 55.27,127.02 55.31,127.23 55.35,127.3 55.38,127.38 55.43,127.45 55.53,127.51 55.72,127.64 56.01,127.73 56.29,127.79 57.47,128 58.74,127.96 59.99,127.93 61.25,127.88 62.52,127.79 63.78,127.67 66.3,127.42 68.81,127.06 71.32,126.66 73.83,126.26 76.34,125.83 78.84,125.35 L 78.85,125.42 Z M 78.85,125.42" />
        </g>
        <g id="fevvaTop3-group251">
            <path id="fevvaTop3-bezier250" stroke="none" fill="rgb(0, 0, 0)" d="M 152.89,102.64 C 152.6,102.1 152.35,101.51 152.15,100.92 L 152.15,100.91 152.15,100.89 C 151.66,95.29 151.22,89.69 150.84,84.09 150.48,78.48 150.14,72.87 150.13,67.23 150.14,65.82 150.15,64.42 150.32,63 150.51,61.59 150.78,60.21 151.02,58.83 151.5,56.07 151.92,53.29 151.71,50.52 151.53,47.77 150.57,45.07 148.74,43.01 146.93,40.93 144.47,39.53 141.88,38.54 136.67,36.55 131.15,35.42 125.66,34.31 120.15,33.24 114.61,32.34 109.07,31.44 103.52,30.54 97.97,29.68 92.44,28.62 89.68,28.09 86.92,27.53 84.19,26.85 81.46,26.15 78.72,25.43 76.15,24.15 L 76.43,24.13 C 75.81,24.54 75.26,25.13 75.41,25.78 75.56,26.43 76.17,26.99 76.77,27.44 78.03,28.34 79.48,29 80.92,29.61 83.84,30.81 86.87,31.74 89.92,32.61 96.02,34.31 102.19,35.75 108.41,36.99 L 108.4,37.06 C 102.16,35.92 95.94,34.63 89.81,32.97 86.75,32.13 83.71,31.22 80.75,30.04 79.27,29.44 77.81,28.79 76.48,27.84 75.84,27.36 75.14,26.81 74.9,25.89 74.79,25.43 74.93,24.92 75.19,24.56 75.45,24.19 75.78,23.91 76.12,23.68 L 76.25,23.59 76.4,23.66 C 78.88,24.87 81.62,25.58 84.33,26.25 87.05,26.9 89.81,27.43 92.57,27.94 98.09,28.92 103.63,29.8 109.18,30.7 114.73,31.6 120.27,32.5 125.8,33.58 131.31,34.69 136.84,35.86 142.13,37.9 144.76,38.92 147.33,40.39 149.22,42.59 151.13,44.76 152.13,47.64 152.3,50.48 152.5,53.33 152.06,56.16 151.57,58.92 151.32,60.31 151.04,61.69 150.86,63.06 150.69,64.43 150.67,65.84 150.65,67.23 150.64,72.84 150.96,78.45 151.29,84.05 151.64,89.66 152.05,95.26 152.53,100.86 L 152.52,100.83 C 152.62,101.43 152.75,102.02 152.96,102.6 L 152.89,102.64 Z M 152.89,102.64" />
        </g>
        <g id="fevvaTop3-group252">
            <path id="fevvaTop3-bezier251" stroke="none" fill="rgb(0, 0, 0)" d="M 112.1,202.01 C 104.15,202.54 96.21,203.26 88.3,204.22 84.34,204.7 80.4,205.25 76.48,205.94 72.58,206.67 68.63,207.42 64.97,208.87 L 65.05,208.82 C 64.09,209.59 62.66,209.27 61.96,208.36 61.59,207.9 61.46,207.23 61.62,206.67 61.78,206.1 62.15,205.65 62.53,205.3 63.33,204.57 64.27,204.19 65.13,203.73 66.01,203.29 66.9,202.87 67.8,202.47 71.41,200.86 75.15,199.57 78.98,198.64 82.82,197.72 86.71,197.07 90.63,196.71 94.54,196.34 98.48,196.23 102.4,196.32 L 102.4,196.4 C 98.48,196.48 94.57,196.74 90.68,197.21 86.8,197.69 82.94,198.35 79.16,199.34 75.38,200.31 71.67,201.55 68.1,203.15 67.21,203.54 66.33,203.96 65.46,204.39 64.58,204.84 63.67,205.22 63.01,205.82 62.32,206.4 61.97,207.3 62.5,207.95 62.97,208.6 64.03,208.83 64.65,208.32 L 64.69,208.29 64.73,208.27 C 68.52,206.84 72.46,206.13 76.39,205.44 80.33,204.78 84.29,204.27 88.25,203.83 96.18,202.97 104.14,202.36 112.1,201.93 L 112.1,202.01 Z M 112.1,202.01" />
        </g>
        <g id="fevvaTop3-group253">
            <path id="fevvaTop3-bezier252" stroke="none" fill="rgb(0, 0, 0)" d="M 106.52,194.48 C 97.96,194.9 89.4,195.5 80.88,196.34 76.61,196.76 72.36,197.25 68.13,197.92 66.02,198.27 63.91,198.65 61.85,199.16 60.81,199.42 59.79,199.71 58.8,200.08 57.76,200.43 56.7,200.75 55.53,200.68 55.24,200.66 54.93,200.61 54.63,200.43 54.32,200.28 54.06,199.87 54.09,199.5 54.15,198.77 54.56,198.32 54.92,197.9 55.69,197.07 56.6,196.44 57.52,195.87 59.38,194.73 61.36,193.85 63.38,193.08 67.42,191.57 71.6,190.48 75.81,189.63 80.03,188.81 84.29,188.22 88.56,187.78 92.83,187.33 97.11,187.07 101.4,186.95 L 101.4,187.02 C 92.86,187.68 84.32,188.54 75.96,190.35 71.78,191.22 67.63,192.28 63.64,193.77 61.65,194.53 59.69,195.37 57.88,196.45 56.98,197 56.1,197.6 55.4,198.34 55.06,198.69 54.74,199.14 54.73,199.51 54.68,199.83 55.09,200.03 55.59,200.07 56.57,200.14 57.62,199.85 58.6,199.53 59.62,199.16 60.67,198.87 61.71,198.62 63.81,198.12 65.93,197.75 68.05,197.43 72.3,196.79 76.57,196.34 80.84,195.96 89.38,195.21 97.95,194.72 106.51,194.4 L 106.52,194.48 Z M 106.52,194.48" />
        </g>
        <g id="fevvaTop3-group254">
            <path id="fevvaTop3-bezier253" stroke="none" fill="rgb(0, 0, 0)" d="M 69.84,189.42 C 67.44,190.02 65,190.44 62.54,190.74 61.31,190.87 60.07,190.99 58.82,190.92 58.5,190.89 58.19,190.85 57.87,190.76 57.71,190.7 57.55,190.64 57.4,190.51 57.25,190.39 57.15,190.14 57.2,189.94 57.29,189.55 57.54,189.32 57.76,189.09 58,188.87 58.25,188.67 58.5,188.49 60.55,187.05 62.81,185.98 65.13,185.09 67.45,184.2 69.82,183.47 72.21,182.8 76.98,181.46 81.83,180.42 86.7,179.53 91.58,178.7 96.48,178.01 101.4,177.49 L 101.41,177.57 C 96.55,178.5 91.67,179.3 86.83,180.27 84.4,180.72 81.98,181.19 79.57,181.72 77.16,182.22 74.75,182.77 72.36,183.38 69.98,184.01 67.61,184.7 65.3,185.55 62.99,186.39 60.74,187.42 58.72,188.79 58.25,189.14 57.68,189.54 57.53,190 57.47,190.2 57.69,190.36 57.97,190.45 58.24,190.54 58.54,190.59 58.84,190.62 60.05,190.72 61.29,190.62 62.52,190.51 64.97,190.26 67.42,189.9 69.82,189.35 L 69.84,189.42 Z M 69.84,189.42" />
        </g>
        <g id="fevvaTop3-group255">
            <path id="fevvaTop3-bezier254" stroke="none" fill="rgb(0, 0, 0)" d="M 68.99,181.74 C 68.53,181.28 68.08,180.78 67.79,180.18 67.49,179.59 67.4,178.84 67.71,178.21 68,177.59 68.52,177.11 69.05,176.73 69.59,176.34 70.18,176.03 70.78,175.75 73.18,174.66 75.72,173.96 78.24,173.26 80.76,172.58 83.29,171.91 85.84,171.35 88.4,170.82 90.94,170.25 93.52,169.79 L 93.54,169.86 C 91.07,170.74 88.54,171.41 86.01,172.08 83.48,172.74 80.92,173.24 78.39,173.85 75.86,174.47 73.32,175.09 70.93,176.09 69.78,176.61 68.52,177.2 67.91,178.31 67.61,178.86 67.66,179.54 67.92,180.12 68.18,180.71 68.6,181.22 69.04,181.69 L 68.99,181.74 Z M 68.99,181.74" />
        </g>
        <g id="fevvaTop3-group256">
            <path id="fevvaTop3-bezier255" stroke="none" fill="rgb(0, 0, 0)" d="M 74.81,171.32 C 74.54,170.89 74.84,170.4 75.09,170.07 75.36,169.72 75.68,169.42 76.02,169.14 76.69,168.57 77.43,168.09 78.17,167.64 79.68,166.75 81.26,165.99 82.86,165.3 84.47,164.61 86.09,163.95 87.77,163.47 89.46,163.01 91.15,162.59 92.89,162.38 L 92.91,162.46 C 91.28,163.08 89.62,163.6 88,164.18 86.36,164.75 84.71,165.25 83.09,165.86 81.47,166.47 79.88,167.15 78.36,167.96 77.6,168.37 76.85,168.8 76.16,169.31 75.81,169.57 75.48,169.85 75.2,170.17 74.94,170.47 74.65,170.9 74.87,171.28 L 74.81,171.32 Z M 74.81,171.32" />
        </g>
        <g id="fevvaTop3-group257">
            <path id="fevvaTop3-bezier256" stroke="none" fill="rgb(0, 0, 0)" d="M 79.98,163.07 C 79.8,162.62 79.73,162.11 79.85,161.64 79.97,161.16 80.25,160.74 80.6,160.4 81.29,159.71 82.17,159.27 83.04,158.88 84.81,158.13 86.68,157.65 88.54,157.21 90.41,156.78 92.29,156.42 94.17,156.06 95.1,155.88 96.06,155.73 96.96,155.5 97.87,155.26 98.76,154.94 99.61,154.54 101.31,153.74 102.84,152.59 104.02,151.16 105.21,149.72 106.03,148.02 106.48,146.22 107.39,142.6 106.58,138.69 104.72,135.37 L 104.78,135.33 C 107.06,138.41 108.14,142.53 107.22,146.4 106.34,150.28 103.39,153.47 99.83,155.02 98.94,155.41 98.01,155.72 97.07,155.94 96.12,156.16 95.18,156.29 94.24,156.46 92.36,156.79 90.47,157.11 88.61,157.5 86.75,157.9 84.88,158.34 83.12,159.05 82.25,159.42 81.38,159.84 80.69,160.49 80.35,160.81 80.07,161.21 79.95,161.66 79.83,162.11 79.89,162.6 80.05,163.04 L 79.98,163.07 Z M 79.98,163.07" />
        </g>
        <g id="fevvaTop3-group258">
            <path id="fevvaTop3-bezier257" stroke="none" fill="rgb(0, 0, 0)" d="M 152.96,137.72 C 152.76,138.3 152.62,138.89 152.52,139.49 L 152.53,139.46 C 152.06,145.06 151.64,150.66 151.29,156.27 150.96,161.87 150.65,167.48 150.66,173.09 150.67,174.48 150.7,175.89 150.86,177.26 151.05,178.63 151.32,180.01 151.57,181.4 152.06,184.16 152.5,186.99 152.3,189.84 152.13,192.68 151.14,195.56 149.22,197.73 147.34,199.93 144.76,201.4 142.13,202.42 136.84,204.46 131.31,205.63 125.8,206.74 120.28,207.82 114.73,208.72 109.18,209.62 103.64,210.52 98.09,211.4 92.57,212.38 89.81,212.89 87.06,213.42 84.33,214.07 81.62,214.74 78.89,215.45 76.4,216.66 L 76.25,216.73 76.13,216.64 C 75.78,216.41 75.45,216.13 75.19,215.76 74.93,215.4 74.79,214.89 74.9,214.43 75.14,213.51 75.84,212.96 76.48,212.48 77.81,211.53 79.28,210.88 80.75,210.28 83.71,209.1 86.76,208.19 89.82,207.35 95.95,205.69 102.16,204.4 108.4,203.26 L 108.41,203.33 C 102.2,204.57 96.02,206.01 89.92,207.71 86.88,208.58 83.84,209.51 80.93,210.71 79.48,211.32 78.03,211.98 76.78,212.88 76.18,213.33 75.56,213.89 75.42,214.54 75.26,215.19 75.82,215.78 76.43,216.19 L 76.16,216.17 C 78.72,214.89 81.46,214.17 84.19,213.47 86.92,212.79 89.68,212.23 92.45,211.7 97.97,210.64 103.52,209.78 109.07,208.88 114.61,207.98 120.16,207.08 125.66,206.01 131.15,204.9 136.68,203.77 141.89,201.78 144.48,200.79 146.94,199.39 148.74,197.31 150.57,195.25 151.53,192.55 151.71,189.8 151.92,187.03 151.5,184.25 151.02,181.49 150.78,180.11 150.51,178.73 150.32,177.32 150.16,175.9 150.14,174.5 150.13,173.09 150.15,167.45 150.49,161.84 150.85,156.23 151.22,150.63 151.66,145.03 152.16,139.43 L 152.16,139.41 152.16,139.4 C 152.36,138.81 152.6,138.22 152.9,137.68 L 152.96,137.72 Z M 152.96,137.72" />
        </g>
        <g id="fevvaTop3-group259">
            <path id="fevvaTop3-bezier258" stroke="none" fill="rgb(0, 0, 0)" d="M 144,134.05 C 150.99,133.97 157.93,132.69 164.58,130.62 167.9,129.57 171.17,128.3 174.24,126.67 175.76,125.84 177.25,124.93 178.56,123.82 179.22,123.26 179.83,122.66 180.31,121.97 180.79,121.29 181.14,120.51 181.08,119.73 181.04,118.94 180.67,118.16 180.18,117.49 179.69,116.81 179.09,116.2 178.44,115.65 177.14,114.54 175.66,113.62 174.14,112.8 171.09,111.16 167.83,109.92 164.51,108.89 157.87,106.79 150.96,105.61 144,105.01 L 144,104.93 C 151,105.12 157.99,106.19 164.73,108.18 168.09,109.21 171.39,110.47 174.5,112.15 176.05,112.99 177.54,113.96 178.89,115.13 179.56,115.72 180.19,116.37 180.72,117.12 181.23,117.86 181.66,118.73 181.7,119.7 181.74,120.68 181.31,121.58 180.79,122.31 180.25,123.05 179.6,123.67 178.92,124.24 177.55,125.37 176.03,126.29 174.47,127.1 171.35,128.72 168.05,129.96 164.7,130.98 157.98,132.97 151,134.15 144,134.13 L 144,134.05 Z M 144,134.05" />
        </g>
    </g>
</svg>
