<?xml version="1.0" encoding="UTF-8"?>
<!DOCTYPE svg PUBLIC "-//W3C//DTD SVG 1.1//EN" "http://www.w3.org/Graphics/SVG/1.1/DTD/svg11.dtd">
<svg version="1.1" xmlns="http://www.w3.org/2000/svg" xmlns:xlink="http://www.w3.org/1999/xlink" width="240" height="160"  xml:space="preserve" id="fevvaSide3">
    <!-- Generated by PaintCode - http://www.paintcodeapp.com -->
    <g id="fevvaSide3-group2">
        <g id="fevvaSide3-group37">
            <path id="fevvaSide3-bezier36" stroke="none" fill="rgb(0, 0, 0)" d="M 173.27,50.02 C 173.27,50.76 172.68,51.53 171.83,51.56 171.01,51.61 170.22,50.88 170.22,50.02 170.15,49.16 170.92,48.29 171.83,48.35 172.27,48.36 172.68,48.6 172.93,48.92 173.18,49.25 173.28,49.64 173.27,50.02 Z M 173.22,50.02 C 173.22,49.65 173.02,49.31 172.74,49.11 172.46,48.91 172.14,48.84 171.83,48.85 171.23,48.87 170.64,49.36 170.62,50.02 170.57,50.67 171.14,51.3 171.83,51.31 172.51,51.37 173.27,50.79 173.22,50.02 Z M 173.22,50.02" />
        </g>
        <g id="fevvaSide3-group38">
            <path id="fevvaSide3-bezier37" stroke="none" fill="rgb(0, 0, 0)" d="M 183.35,51.19 C 185.19,51.73 187.01,52.36 188.78,53.12 189.67,53.51 190.54,53.93 191.38,54.43 192.21,54.94 193.04,55.48 193.67,56.33 L 193.97,56.75 193.45,56.8 C 191.52,57.01 189.63,57.05 187.73,57.04 186.78,57.02 185.84,57.03 184.9,57.05 183.96,57.08 183.01,57.09 182.1,57.34 L 182.07,57.28 C 182.93,56.81 183.91,56.67 184.86,56.53 185.81,56.4 186.76,56.35 187.72,56.3 188.67,56.26 189.62,56.25 190.57,56.26 191.51,56.26 192.46,56.27 193.39,56.2 L 193.17,56.67 C 192.68,55.94 191.9,55.36 191.12,54.85 190.33,54.33 189.49,53.88 188.63,53.47 186.91,52.62 185.13,51.9 183.32,51.26 L 183.35,51.19 Z M 183.35,51.19" />
        </g>
        <g id="fevvaSide3-group39">
            <path id="fevvaSide3-bezier38" stroke="none" fill="rgb(0, 0, 0)" d="M 181.17,56.93 C 179.93,56.91 178.69,56.85 177.46,56.69 177.15,56.64 176.84,56.58 176.53,56.5 176.22,56.4 175.9,56.38 175.58,56 L 175.53,55.91 175.51,55.88 175.5,55.82 175.5,55.79 C 175.5,55.6 175.58,55.55 175.62,55.49 175.72,55.39 175.81,55.36 175.89,55.31 176.05,55.24 176.21,55.19 176.36,55.14 176.67,55.04 176.97,54.97 177.28,54.91 178.5,54.64 179.7,54.38 180.9,54.19 181.51,54.1 182.1,53.99 182.69,53.86 182.98,53.79 183.26,53.71 183.52,53.58 183.78,53.47 184.02,53.29 183.96,52.99 L 184.03,52.96 C 184.12,53.1 184.13,53.31 184.04,53.48 183.96,53.64 183.83,53.76 183.7,53.87 183.44,54.08 183.15,54.22 182.85,54.35 182.27,54.61 181.66,54.78 181.05,54.93 179.84,55.22 178.6,55.31 177.39,55.5 177.09,55.54 176.79,55.6 176.5,55.66 176.36,55.7 176.22,55.74 176.1,55.78 176.04,55.81 175.99,55.84 175.98,55.85 175.96,55.84 175.99,55.86 175.99,55.75 175.99,55.74 175.99,55.76 175.99,55.77 175.99,55.75 176,55.82 175.98,55.74 L 175.99,55.74 175.99,55.75 C 176.05,55.86 176.39,56.01 176.65,56.09 176.93,56.18 177.23,56.26 177.52,56.32 178.71,56.58 179.94,56.74 181.17,56.86 L 181.17,56.93 Z M 181.17,56.93" />
        </g>
        <g id="fevvaSide3-group40">
            <path id="fevvaSide3-bezier39" stroke="none" fill="rgb(0, 0, 0)" d="M 181.64,50.5 C 179.52,48.91 177.04,47.82 174.52,47 171.99,46.2 169.36,45.72 166.71,45.52 161.4,45.21 156.07,45.39 150.75,45.56 145.43,45.73 140.08,45.89 134.75,45.55 129.43,45.24 124.12,44.59 118.83,44.98 116.2,45.18 113.59,45.68 111.12,46.59 109.88,47.04 108.69,47.59 107.54,48.22 106.36,48.86 105.17,49.46 103.97,50.06 99.17,52.4 94.29,54.55 89.36,56.59 84.42,58.59 79.42,60.46 74.34,62.1 69.26,63.7 64.09,65.23 58.75,65.59 L 58.75,65.52 C 61.4,65.28 64,64.67 66.56,63.98 69.13,63.29 71.67,62.5 74.19,61.64 79.22,59.92 84.18,57.97 89.08,55.9 93.99,53.87 98.86,51.72 103.64,49.39 104.84,48.81 106.03,48.22 107.2,47.6 108.38,46.96 109.62,46.41 110.89,45.96 113.44,45.04 116.11,44.56 118.79,44.38 124.16,44.02 129.48,44.71 134.78,45.06 140.09,45.44 145.41,45.31 150.74,45.18 156.06,45.06 161.4,44.94 166.73,45.29 169.39,45.52 172.03,46.03 174.57,46.86 177.09,47.7 179.56,48.82 181.69,50.44 L 181.64,50.5 Z M 181.64,50.5" />
        </g>
        <g id="fevvaSide3-group41">
            <path id="fevvaSide3-bezier40" stroke="none" fill="rgb(0, 0, 0)" d="M 69,61.76 C 63.24,62.07 57.45,62.42 51.77,63.38 51.07,63.5 50.36,63.65 49.67,63.84 49.01,64.04 48.26,64.23 47.84,64.69 46.9,65.76 45.96,66.88 45.38,68.15 45.1,68.76 44.94,69.51 45.33,69.93 45.72,70.36 46.46,70.43 47.16,70.45 48.58,70.5 50.02,70.43 51.46,70.34 54.33,70.16 57.2,69.84 60.05,69.43 62.9,69.05 65.74,68.56 68.55,67.95 71.37,67.37 74.16,66.65 76.89,65.73 79.6,64.8 82.28,63.69 84.64,62.03 L 84.69,62.09 C 82.43,63.92 79.77,65.19 77.06,66.22 74.35,67.25 71.54,68.02 68.72,68.68 63.05,69.91 57.28,70.66 51.49,70.94 50.04,71.01 48.6,71.06 47.13,71 46.43,70.95 45.56,70.92 44.94,70.26 44.64,69.93 44.56,69.45 44.61,69.06 44.65,68.65 44.78,68.29 44.94,67.95 45.59,66.59 46.55,65.48 47.53,64.4 48.12,63.8 48.88,63.66 49.57,63.45 50.28,63.26 50.99,63.13 51.71,63.01 54.57,62.55 57.46,62.31 60.34,62.11 63.22,61.91 66.11,61.77 69,61.69 L 69,61.76 Z M 69,61.76" />
        </g>
        <g id="fevvaSide3-group42">
            <path id="fevvaSide3-bezier41" stroke="none" fill="rgb(0, 0, 0)" d="M 68.5,70.02 L 76.26,69.15 C 77.56,68.99 78.84,68.78 80.13,68.67 L 82.07,68.52 C 82.71,68.46 83.38,68.45 83.98,68.28 L 84.02,68.34 C 83.45,68.73 82.79,68.86 82.15,69.04 81.51,69.2 80.87,69.3 80.22,69.42 78.93,69.62 77.62,69.67 76.32,69.75 73.71,69.92 71.11,70.03 68.5,70.1 L 68.5,70.02 Z M 68.5,70.02" />
        </g>
        <g id="fevvaSide3-group43">
            <path id="fevvaSide3-bezier42" stroke="none" fill="rgb(0, 0, 0)" d="M 84.69,64.38 C 85.35,64.79 85.95,65.31 86.43,65.95 86.89,66.59 87.22,67.42 87.12,68.29 87.05,68.74 86.96,69.05 86.94,69.42 86.9,69.79 86.87,70.15 86.85,70.51 86.81,71.24 86.83,71.99 86.89,72.77 L 86.82,72.79 C 86.36,72.12 86.16,71.32 86.11,70.51 86.09,70.11 86.12,69.7 86.2,69.3 86.28,68.92 86.45,68.49 86.52,68.19 86.68,67.52 86.49,66.79 86.12,66.15 85.75,65.51 85.24,64.92 84.65,64.44 L 84.69,64.38 Z M 84.69,64.38" />
        </g>
        <g id="fevvaSide3-group44">
            <path id="fevvaSide3-bezier43" stroke="none" fill="rgb(0, 0, 0)" d="M 96.68,69.23 C 94.67,70.07 92.72,71.05 90.87,72.17 89.95,72.74 89.1,73.39 88.23,74.02 87.37,74.64 86.55,75.3 85.79,76.11 L 85.73,76.07 C 86.15,75.02 86.93,74.16 87.77,73.43 88.62,72.7 89.6,72.16 90.57,71.65 92.52,70.62 94.56,69.8 96.66,69.16 L 96.68,69.23 Z M 96.68,69.23" />
        </g>
        <g id="fevvaSide3-group45">
            <path id="fevvaSide3-bezier44" stroke="none" fill="rgb(0, 0, 0)" d="M 91.85,76.66 L 85.31,79.66 C 84.78,79.94 84.2,80.15 83.82,80.49 83.47,80.81 83.19,81.3 82.98,81.82 82.55,82.87 82.33,84.05 82.04,85.23 L 81.96,85.22 C 81.85,84.01 81.9,82.78 82.28,81.56 82.48,80.96 82.79,80.35 83.36,79.9 83.52,79.78 83.66,79.7 83.78,79.64 83.97,79.55 84.08,79.51 84.23,79.45 L 85.07,79.11 C 87.31,78.22 89.56,77.39 91.82,76.59 L 91.85,76.66 Z M 91.85,76.66" />
        </g>
        <g id="fevvaSide3-group46">
            <path id="fevvaSide3-bezier45" stroke="none" fill="rgb(0, 0, 0)" d="M 89.94,83.41 C 88.13,84.47 86.36,85.58 84.63,86.73 82.9,87.89 81.18,89.08 79.62,90.43 78.87,91.13 78.11,91.83 77.73,92.73 77.2,93.78 76.26,94.47 75.35,95 74.4,95.52 73.44,95.93 72.52,96.38 71.61,96.84 70.69,97.36 70.16,98.26 L 70.09,98.23 C 70.44,97.19 71.39,96.49 72.26,95.93 73.16,95.36 74.11,94.91 74.96,94.36 75.82,93.83 76.62,93.2 77.07,92.39 77.57,91.36 78.44,90.65 79.24,89.98 80.88,88.64 82.65,87.51 84.43,86.42 86.22,85.34 88.05,84.32 89.9,83.35 L 89.94,83.41 Z M 89.94,83.41" />
        </g>
        <g id="fevvaSide3-group47">
            <path id="fevvaSide3-bezier46" stroke="none" fill="rgb(0, 0, 0)" d="M 69.16,99.96 C 69.41,100.51 69.76,101.08 70.26,101.35 70.52,101.48 70.8,101.47 71.04,101.33 71.26,101.2 71.51,100.95 71.78,100.79 72.83,100.08 73.92,99.48 75.02,98.88 76.12,98.29 77.21,97.67 78.38,97.21 79.54,96.75 80.73,96.32 81.99,96.13 L 82.01,96.2 78.68,97.89 C 77.57,98.44 76.42,98.9 75.29,99.42 74.17,99.94 73.04,100.48 71.98,101.1 71.7,101.25 71.5,101.44 71.17,101.6 70.86,101.76 70.44,101.74 70.16,101.55 69.58,101.17 69.31,100.57 69.09,99.98 L 69.16,99.96 Z M 69.16,99.96" />
        </g>
        <g id="fevvaSide3-group48">
            <path id="fevvaSide3-bezier47" stroke="none" fill="rgb(0, 0, 0)" d="M 114.52,84.91 C 108.74,88.02 102.9,91.05 97.02,93.96 94.07,95.41 91.13,96.89 88.11,98.17 86.59,98.8 85.06,99.43 83.51,99.99 81.96,100.54 80.39,101.07 78.76,101.33 L 78.74,101.26 C 79.53,101.05 80.3,100.75 81.06,100.45 81.82,100.15 82.57,99.83 83.32,99.5 84.82,98.85 86.32,98.19 87.8,97.49 L 96.76,93.42 C 102.7,90.63 108.6,87.76 114.48,84.85 L 114.52,84.91 Z M 114.52,84.91" />
        </g>
        <g id="fevvaSide3-group49">
            <path id="fevvaSide3-bezier48" stroke="none" fill="rgb(0, 0, 0)" d="M 117.64,89.4 C 110.49,93.16 103.3,96.85 96.06,100.46 92.45,102.28 88.85,104.11 85.17,105.78 83.32,106.6 81.47,107.43 79.6,108.2 77.73,108.96 75.85,109.73 73.89,110.26 L 73.87,110.19 C 74.81,109.85 75.73,109.43 76.65,109 77.57,108.59 78.48,108.16 79.39,107.72 L 84.85,105.1 95.8,99.93 C 103.09,96.43 110.36,92.9 117.61,89.34 L 117.64,89.4 Z M 117.64,89.4" />
        </g>
        <g id="fevvaSide3-group50">
            <path id="fevvaSide3-bezier49" stroke="none" fill="rgb(0, 0, 0)" d="M 117.64,92.63 C 110.29,96.84 102.86,100.89 95.31,104.75 91.54,106.67 87.75,108.59 83.85,110.26 81.89,111.08 79.93,111.89 77.92,112.59 75.92,113.28 73.87,113.93 71.76,114.18 L 71.75,114.1 C 72.78,113.9 73.79,113.58 74.78,113.22 75.78,112.88 76.76,112.5 77.74,112.1 79.69,111.3 81.63,110.46 83.55,109.58 87.39,107.82 91.24,106.06 95.04,104.21 102.64,100.48 110.15,96.58 117.61,92.56 L 117.64,92.63 Z M 117.64,92.63" />
        </g>
        <g id="fevvaSide3-group51">
            <path id="fevvaSide3-bezier50" stroke="none" fill="rgb(0, 0, 0)" d="M 136.4,86.87 C 132.39,89.8 128.25,92.54 124,95.11 119.73,97.65 115.36,100.03 110.75,101.94 106.12,103.72 101.68,105.87 97.33,108.24 95.14,109.39 92.98,110.61 90.81,111.81 89.72,112.4 88.63,113 87.52,113.56 86.96,113.83 86.39,114.1 85.82,114.34 85.24,114.55 84.64,114.84 83.99,114.75 L 84.01,114.68 C 84.61,114.72 85.18,114.4 85.73,114.15 86.28,113.88 86.82,113.57 87.36,113.26 88.43,112.64 89.49,112 90.55,111.35 92.66,110.06 94.8,108.8 96.97,107.58 99.15,106.39 101.36,105.25 103.62,104.2 105.87,103.16 108.22,102.24 110.53,101.39 115.12,99.56 119.52,97.26 123.81,94.79 128.1,92.31 132.29,89.65 136.35,86.81 L 136.4,86.87 Z M 136.4,86.87" />
        </g>
        <g id="fevvaSide3-group52">
            <path id="fevvaSide3-bezier51" stroke="none" fill="rgb(0, 0, 0)" d="M 77.84,104.31 C 76.77,104.65 75.69,104.96 74.59,105.22 73.49,105.46 72.35,105.71 71.2,105.65 70.79,105.63 70.49,106.02 70.25,106.48 70.01,106.93 69.81,107.44 69.62,107.96 69.42,108.47 69.24,109 69.02,109.52 68.77,110.02 68.65,110.64 68.1,110.99 L 68.07,110.92 C 68.24,110.75 68.29,110.45 68.35,110.19 68.42,109.92 68.47,109.65 68.52,109.37 68.63,108.82 68.75,108.27 68.91,107.72 69.08,107.17 69.28,106.62 69.61,106.1 69.77,105.85 69.96,105.59 70.22,105.38 70.36,105.27 70.51,105.17 70.68,105.11 70.84,105.05 71.12,105.03 71.22,105.05 72.31,105.18 73.41,105.01 74.52,104.86 75.63,104.69 76.73,104.48 77.83,104.24 L 77.84,104.31 Z M 77.84,104.31" />
        </g>
        <g id="fevvaSide3-group53">
            <path id="fevvaSide3-bezier52" stroke="none" fill="rgb(0, 0, 0)" d="M 147.15,50.9 C 146.89,51.96 147.41,53.01 148.06,53.82 148.72,54.65 149.54,55.35 150.43,55.94 151.31,56.52 152.27,57.01 153.27,57.34 154.35,57.62 155.24,58.37 155.98,59.15 157.47,60.75 158.35,62.91 158.43,65.11 158.53,67.32 157.88,69.49 156.9,71.43 154.89,75.32 151.78,78.49 148.44,81.19 145.05,83.87 141.41,86.19 137.6,88.18 L 137.56,88.11 C 141.15,85.76 144.7,83.36 147.96,80.61 151.2,77.87 154.35,74.89 156.36,71.15 157.34,69.29 158,67.23 157.95,65.13 157.91,63.04 157.11,60.97 155.7,59.4 155,58.63 154.19,57.91 153.17,57.63 152.15,57.26 151.19,56.74 150.3,56.12 149.42,55.5 148.59,54.78 147.94,53.91 147.3,53.07 146.79,51.97 147.08,50.88 L 147.15,50.9 Z M 147.15,50.9" />
        </g>
        <g id="fevvaSide3-group54">
            <path id="fevvaSide3-bezier53" stroke="none" fill="rgb(0, 0, 0)" d="M 159.24,64.38 C 160.97,63.63 162.73,62.93 164.5,62.27 166.28,61.63 168.07,61 169.94,60.58 171.77,60.19 173.56,59.61 175.39,59.15 177.22,58.71 179.04,58.22 180.91,57.86 L 180.93,57.93 C 179.19,58.7 177.4,59.3 175.59,59.88 173.78,60.43 171.93,60.85 170.05,61.17 168.23,61.51 166.41,62.05 164.62,62.62 162.82,63.18 161.04,63.79 159.26,64.44 L 159.24,64.38 Z M 159.24,64.38" />
        </g>
    </g>
</svg>
