<?xml version="1.0" encoding="UTF-8"?>
<!DOCTYPE svg PUBLIC "-//W3C//DTD SVG 1.1//EN" "http://www.w3.org/Graphics/SVG/1.1/DTD/svg11.dtd">
<svg version="1.1" xmlns="http://www.w3.org/2000/svg" xmlns:xlink="http://www.w3.org/1999/xlink" width="240" height="240"  xml:space="preserve" id="fevvaTop6">
    <!-- Generated by PaintCode - http://www.paintcodeapp.com -->
    <g id="fevvaTop6-group2">
        <g id="fevvaTop6-group216">
            <path id="fevvaTop6-bezier215" stroke="none" fill="rgb(0, 0, 0)" d="M 173.37,114.84 C 173.18,115.46 172.43,115.71 171.81,115.6 171.51,115.54 171.19,115.41 170.93,115.19 170.69,114.97 170.47,114.63 170.55,114.21 170.61,113.84 170.95,113.54 171.28,113.42 171.61,113.29 171.97,113.29 172.3,113.37 172.96,113.53 173.52,114.21 173.37,114.84 Z M 173.32,114.83 C 173.38,114.53 173.18,114.26 172.95,114.12 172.71,113.97 172.45,113.91 172.19,113.86 171.7,113.78 171.08,113.86 170.93,114.32 170.82,114.73 171.33,115.24 171.87,115.36 172.13,115.43 172.43,115.46 172.71,115.39 173,115.33 173.26,115.12 173.32,114.83 Z M 173.32,114.83" />
        </g>
        <g id="fevvaTop6-group217">
            <path id="fevvaTop6-bezier216" stroke="none" fill="rgb(0, 0, 0)" d="M 180.82,125.54 C 182.83,124.78 184.83,124 186.82,123.21 L 189.81,122.01 191.28,121.38 192,121.04 192.34,120.86 192.49,120.76 C 192.51,120.75 192.54,120.73 192.54,120.73 192.54,120.72 192.55,120.71 192.54,120.73 L 192.52,120.75 C 192.5,120.79 192.49,120.83 192.49,120.87 192.47,120.93 192.57,121.06 192.54,121.02 L 192.49,120.98 192.33,120.9 191.99,120.73 191.26,120.42 189.76,119.85 186.76,118.71 C 184.77,117.89 182.77,117.12 180.82,116.2 L 180.84,116.13 C 182.94,116.64 184.98,117.32 187.02,118 188.03,118.37 189.04,118.74 190.04,119.16 L 191.52,119.81 192.26,120.16 192.63,120.36 192.82,120.48 C 192.86,120.51 192.89,120.52 192.93,120.56 192.95,120.56 193.11,120.74 193.09,120.87 193.09,120.92 193.08,120.98 193.05,121.03 193.03,121.07 193.02,121.08 193.01,121.1 192.97,121.14 192.95,121.16 192.93,121.17 192.88,121.21 192.86,121.23 192.82,121.26 L 192.62,121.37 192.25,121.55 191.5,121.87 189.99,122.46 186.95,123.56 C 184.92,124.26 182.88,124.94 180.84,125.61 L 180.82,125.54 Z M 180.82,125.54" />
        </g>
        <g id="fevvaTop6-group218">
            <path id="fevvaTop6-bezier217" stroke="none" fill="rgb(0, 0, 0)" d="M 173.32,127.09 C 173.26,126.8 173,126.59 172.72,126.53 172.43,126.46 172.13,126.49 171.87,126.56 171.33,126.68 170.82,127.18 170.93,127.6 171.08,128.06 171.7,128.13 172.2,128.06 172.46,128.01 172.71,127.95 172.95,127.8 173.18,127.66 173.38,127.39 173.32,127.09 Z M 173.37,127.08 C 173.52,127.71 172.96,128.39 172.3,128.55 171.97,128.63 171.61,128.63 171.28,128.5 170.95,128.38 170.62,128.08 170.55,127.71 170.47,127.29 170.69,126.95 170.93,126.73 171.19,126.51 171.51,126.37 171.81,126.32 172.43,126.21 173.18,126.46 173.37,127.08 Z M 173.37,127.08" />
        </g>
        <g id="fevvaTop6-group219">
            <path id="fevvaTop6-bezier218" stroke="none" fill="rgb(0, 0, 0)" d="M 112.24,29.26 C 104.91,28.74 97.6,28 90.32,26.97 86.68,26.44 83.05,25.84 79.45,25.07 75.86,24.28 72.27,23.41 68.86,21.9 L 68.81,21.88 68.78,21.85 C 68.23,21.31 67.28,21.5 66.78,22.1 66.26,22.69 66.26,23.58 66.72,24.27 67.16,24.97 67.88,25.49 68.67,25.94 L 71.03,27.38 C 74.16,29.31 77.41,31 80.87,32.21 84.31,33.45 87.91,34.24 91.54,34.77 95.18,35.29 98.86,35.55 102.54,35.64 L 102.54,35.72 C 95.19,35.9 87.69,35.29 80.63,32.9 77.1,31.7 73.79,29.95 70.65,28.01 L 68.29,26.56 C 67.49,26.09 66.66,25.51 66.12,24.63 65.86,24.2 65.68,23.67 65.7,23.13 65.71,22.59 65.92,22.06 66.28,21.66 66.63,21.26 67.12,20.97 67.67,20.89 68.21,20.81 68.81,20.99 69.21,21.37 L 69.13,21.32 C 72.42,22.84 76,23.75 79.56,24.57 83.14,25.37 86.75,26.01 90.38,26.58 97.63,27.7 104.93,28.55 112.24,29.18 L 112.24,29.26 Z M 112.24,29.26" />
        </g>
        <g id="fevvaTop6-group220">
            <path id="fevvaTop6-bezier219" stroke="none" fill="rgb(0, 0, 0)" d="M 106.66,37.92 C 98.5,37.52 90.36,36.91 82.24,35.96 78.19,35.47 74.14,34.9 70.13,34.08 68.12,33.67 66.13,33.19 64.17,32.53 63.18,32.2 62.27,31.74 61.32,31.53 60.38,31.31 59.31,31.21 58.57,31.64 57.81,32.07 58.06,33.14 58.6,33.91 59.13,34.71 59.87,35.39 60.65,36.01 62.23,37.24 64.02,38.19 65.85,39.04 69.53,40.73 73.45,41.88 77.39,42.86 85.29,44.83 93.42,45.74 101.55,46.44 L 101.54,46.51 C 97.46,46.37 93.38,46.08 89.32,45.59 85.27,45.11 81.22,44.46 77.22,43.56 73.23,42.63 69.29,41.43 65.54,39.72 63.67,38.86 61.85,37.86 60.22,36.56 59.41,35.9 58.63,35.18 58.04,34.27 57.75,33.81 57.5,33.3 57.44,32.7 57.36,32.11 57.69,31.41 58.23,31.11 59.31,30.52 60.45,30.72 61.46,30.95 62.5,31.19 63.42,31.67 64.36,31.99 66.27,32.66 68.25,33.15 70.23,33.58 74.21,34.44 78.25,35.05 82.29,35.57 90.38,36.62 98.52,37.34 106.66,37.85 L 106.66,37.92 Z M 106.66,37.92" />
        </g>
        <g id="fevvaTop6-group221">
            <path id="fevvaTop6-bezier220" stroke="none" fill="rgb(0, 0, 0)" d="M 73.97,43.76 C 71.71,43.15 69.39,42.75 67.07,42.45 65.91,42.31 64.74,42.2 63.59,42.23 63.02,42.26 62.41,42.3 61.94,42.54 61.42,42.78 61.75,43.35 62.13,43.75 62.91,44.56 63.91,45.21 64.88,45.84 65.87,46.46 66.89,47.02 67.94,47.53 70.03,48.55 72.21,49.41 74.41,50.19 78.82,51.72 83.34,52.95 87.88,54.09 92.41,55.26 96.98,56.27 101.55,57.34 L 101.54,57.41 C 96.89,56.78 92.27,55.88 87.7,54.81 83.14,53.7 78.62,52.39 74.21,50.74 72,49.92 69.83,49.02 67.72,47.95 66.68,47.41 65.65,46.83 64.66,46.18 63.68,45.53 62.69,44.88 61.86,43.99 61.66,43.76 61.47,43.51 61.37,43.18 61.32,43.01 61.31,42.8 61.41,42.63 61.5,42.45 61.65,42.34 61.79,42.26 62.38,41.98 62.99,41.97 63.58,41.95 64.77,41.94 65.94,42.07 67.1,42.23 69.42,42.58 71.73,43.03 73.99,43.69 L 73.97,43.76 Z M 73.97,43.76" />
        </g>
        <g id="fevvaTop6-group222">
            <path id="fevvaTop6-bezier221" stroke="none" fill="rgb(0, 0, 0)" d="M 73.19,52.58 C 72.43,53.52 71.71,54.57 71.55,55.76 71.39,56.97 72.16,58.04 73.11,58.74 75.05,60.16 77.41,60.93 79.71,61.7 82.04,62.44 84.4,63.05 86.74,63.8 89.07,64.55 91.4,65.3 93.68,66.22 L 93.66,66.29 C 91.26,65.78 88.89,65.14 86.53,64.51 84.16,63.87 81.83,63.09 79.52,62.27 77.23,61.41 74.86,60.58 72.87,59.03 72.39,58.63 71.95,58.16 71.65,57.59 71.34,57.03 71.23,56.36 71.33,55.73 71.55,54.47 72.33,53.44 73.13,52.53 L 73.19,52.58 Z M 73.19,52.58" />
        </g>
        <g id="fevvaTop6-group223">
            <path id="fevvaTop6-bezier222" stroke="none" fill="rgb(0, 0, 0)" d="M 79.02,64.57 C 78.68,65.27 78.98,66.08 79.35,66.72 79.74,67.37 80.25,67.95 80.81,68.46 81.92,69.51 83.22,70.35 84.57,71.07 85.93,71.79 87.36,72.35 88.77,72.96 90.18,73.58 91.62,74.12 93.05,74.75 L 93.03,74.82 C 91.48,74.6 89.98,74.16 88.5,73.66 87.02,73.13 85.62,72.4 84.28,71.59 82.93,70.79 81.64,69.86 80.54,68.73 80,68.16 79.51,67.53 79.15,66.82 78.81,66.14 78.54,65.26 78.95,64.53 L 79.02,64.57 Z M 79.02,64.57" />
        </g>
        <g id="fevvaTop6-group224">
            <path id="fevvaTop6-bezier223" stroke="none" fill="rgb(0, 0, 0)" d="M 84.19,74.06 C 83.88,75.06 83.82,76.13 84.1,77.13 84.37,78.13 84.96,79.01 85.66,79.76 87.1,81.26 88.99,82.25 90.91,83 91.88,83.37 92.87,83.69 93.88,83.95 94.88,84.22 95.91,84.37 96.94,84.68 98.98,85.27 100.89,86.24 102.64,87.44 106.1,89.86 109.03,93.18 110.63,97.16 111.42,99.14 111.85,101.28 111.78,103.42 111.7,105.56 111.07,107.66 109.95,109.44 L 109.89,109.41 C 110.81,107.53 111.27,105.46 111.24,103.41 111.22,101.36 110.73,99.33 109.93,97.44 108.33,93.67 105.66,90.34 102.31,87.92 100.63,86.71 98.78,85.73 96.81,85.12 95.84,84.8 94.79,84.63 93.78,84.34 92.76,84.06 91.76,83.73 90.79,83.33 88.85,82.52 86.95,81.47 85.51,79.9 84.8,79.12 84.22,78.2 83.96,77.16 83.7,76.13 83.78,75.03 84.12,74.04 L 84.19,74.06 Z M 84.19,74.06" />
        </g>
        <g id="fevvaTop6-group225">
            <path id="fevvaTop6-bezier224" stroke="none" fill="rgb(0, 0, 0)" d="M 108.55,213.71 C 102.8,215.13 97.1,216.77 91.54,218.79 88.77,219.82 86.01,220.93 83.44,222.38 82.18,223.12 80.91,223.93 79.99,225.05 79.54,225.61 79.21,226.3 79.33,226.98 79.44,227.67 79.95,228.23 80.51,228.67 L 80.34,228.66 C 82.91,227.18 85.73,226.27 88.54,225.43 91.36,224.61 94.21,223.92 97.07,223.27 102.79,221.99 108.55,220.88 114.28,219.7 120.02,218.52 125.75,217.3 131.39,215.76 134.21,214.98 137,214.12 139.71,213.04 142.4,211.95 145.06,210.68 147.15,208.7 149.26,206.75 150.7,204.15 151.32,201.35 151.96,198.55 151.92,195.61 151.62,192.73 151.33,189.83 150.77,186.96 150.39,184.04 150.08,181.07 150.15,178.14 150.2,175.2 150.55,163.47 151.39,151.78 152.32,140.1 L 152.33,140.09 152.33,140.08 C 152.53,139.15 152.89,138.28 153.34,137.45 153.8,136.63 154.37,135.87 155.04,135.22 156.38,133.89 158.15,133.07 159.98,132.75 L 160,132.83 C 158.18,133.18 156.46,134.03 155.18,135.36 153.9,136.67 153.01,138.37 152.64,140.14 L 152.64,140.12 C 151.88,151.81 151.14,163.52 150.93,175.22 150.91,178.13 150.83,181.08 151.13,183.95 151.5,186.83 152.07,189.72 152.36,192.66 152.65,195.58 152.72,198.6 152.03,201.52 151.38,204.44 149.83,207.18 147.61,209.2 145.41,211.25 142.66,212.54 139.94,213.62 137.19,214.7 134.38,215.55 131.54,216.32 125.87,217.84 120.13,219.02 114.38,220.18 108.63,221.33 102.88,222.42 97.16,223.67 94.3,224.3 91.45,224.98 88.64,225.78 85.84,226.6 83.02,227.48 80.5,228.92 L 80.41,228.97 80.33,228.91 C 79.74,228.45 79.17,227.84 79.04,227.03 78.91,226.22 79.3,225.46 79.77,224.88 80.75,223.71 82.04,222.91 83.32,222.17 85.93,220.72 88.69,219.63 91.48,218.62 97.06,216.63 102.78,215.02 108.54,213.64 L 108.55,213.71 Z M 108.55,213.71" />
        </g>
        <g id="fevvaTop6-group226">
            <path id="fevvaTop6-bezier225" stroke="none" fill="rgb(0, 0, 0)" d="M 112.24,212.18 C 104.93,212.81 97.63,213.66 90.38,214.78 86.75,215.35 83.14,215.99 79.56,216.79 76,217.62 72.42,218.52 69.13,220.04 L 69.21,219.99 C 68.81,220.37 68.21,220.55 67.67,220.47 67.12,220.39 66.63,220.1 66.28,219.7 65.92,219.3 65.71,218.77 65.7,218.23 65.68,217.69 65.86,217.16 66.12,216.73 66.66,215.85 67.49,215.27 68.29,214.8 L 70.65,213.35 C 73.79,211.41 77.1,209.66 80.63,208.46 87.69,206.07 95.19,205.46 102.54,205.64 L 102.54,205.72 C 98.86,205.81 95.18,206.07 91.54,206.59 87.91,207.12 84.31,207.91 80.87,209.15 77.41,210.36 74.16,212.05 71.03,213.99 L 68.67,215.42 C 67.88,215.87 67.16,216.39 66.72,217.09 66.26,217.78 66.26,218.67 66.78,219.26 67.28,219.87 68.23,220.05 68.78,219.51 L 68.81,219.48 68.86,219.46 C 72.27,217.95 75.86,217.08 79.45,216.29 83.05,215.52 86.68,214.92 90.32,214.39 97.6,213.36 104.91,212.62 112.24,212.1 L 112.24,212.18 Z M 112.24,212.18" />
        </g>
        <g id="fevvaTop6-group227">
            <path id="fevvaTop6-bezier226" stroke="none" fill="rgb(0, 0, 0)" d="M 106.66,203.51 C 98.52,204.02 90.38,204.75 82.29,205.79 78.25,206.32 74.21,206.93 70.23,207.78 68.25,208.21 66.27,208.7 64.36,209.37 63.42,209.69 62.5,210.17 61.46,210.42 60.45,210.64 59.31,210.85 58.23,210.26 57.69,209.96 57.36,209.25 57.44,208.66 57.5,208.06 57.75,207.55 58.04,207.09 58.63,206.18 59.41,205.46 60.22,204.8 61.85,203.51 63.67,202.5 65.54,201.64 69.29,199.94 73.23,198.73 77.22,197.8 81.22,196.9 85.26,196.26 89.32,195.77 93.38,195.28 97.46,195 101.54,194.85 L 101.55,194.92 C 93.42,195.62 85.29,196.54 77.39,198.5 73.45,199.48 69.53,200.63 65.85,202.32 64.02,203.17 62.23,204.13 60.65,205.35 59.87,205.97 59.13,206.65 58.6,207.45 58.06,208.22 57.81,209.29 58.57,209.72 59.31,210.16 60.38,210.05 61.32,209.83 62.27,209.62 63.18,209.16 64.17,208.83 66.13,208.17 68.12,207.7 70.13,207.28 74.14,206.46 78.19,205.89 82.24,205.4 90.36,204.45 98.5,203.84 106.66,203.44 L 106.66,203.51 Z M 106.66,203.51" />
        </g>
        <g id="fevvaTop6-group228">
            <path id="fevvaTop6-bezier227" stroke="none" fill="rgb(0, 0, 0)" d="M 73.99,197.68 C 71.73,198.33 69.42,198.78 67.1,199.13 65.94,199.29 64.77,199.43 63.58,199.42 62.99,199.39 62.38,199.39 61.79,199.1 61.64,199.02 61.5,198.91 61.41,198.74 61.31,198.56 61.32,198.35 61.37,198.19 61.47,197.86 61.66,197.61 61.86,197.38 62.69,196.48 63.68,195.83 64.66,195.18 65.65,194.54 66.68,193.95 67.72,193.42 69.83,192.34 72,191.44 74.21,190.62 78.62,188.97 83.14,187.66 87.7,186.55 92.28,185.49 96.89,184.59 101.54,183.95 L 101.55,184.03 C 96.98,185.09 92.41,186.1 87.88,187.28 83.34,188.42 78.82,189.64 74.41,191.17 72.2,191.95 70.03,192.81 67.94,193.84 66.89,194.35 65.87,194.91 64.88,195.53 63.9,196.15 62.91,196.8 62.13,197.62 61.74,198.01 61.42,198.59 61.94,198.82 62.41,199.06 63.02,199.1 63.58,199.13 64.74,199.16 65.91,199.06 67.07,198.92 69.39,198.62 71.7,198.21 73.96,197.61 L 73.99,197.68 Z M 73.99,197.68" />
        </g>
        <g id="fevvaTop6-group229">
            <path id="fevvaTop6-bezier228" stroke="none" fill="rgb(0, 0, 0)" d="M 73.13,188.83 C 72.33,187.92 71.55,186.9 71.33,185.63 71.23,185.01 71.34,184.34 71.65,183.77 71.95,183.2 72.39,182.74 72.87,182.33 74.86,180.79 77.23,179.95 79.52,179.1 81.83,178.27 84.16,177.5 86.53,176.85 88.89,176.22 91.26,175.58 93.66,175.07 L 93.68,175.14 C 91.4,176.06 89.07,176.81 86.74,177.57 84.4,178.31 82.04,178.92 79.71,179.66 77.41,180.44 75.05,181.2 73.11,182.63 72.16,183.32 71.39,184.39 71.55,185.6 71.7,186.79 72.43,187.85 73.19,188.78 L 73.13,188.83 Z M 73.13,188.83" />
        </g>
        <g id="fevvaTop6-group230">
            <path id="fevvaTop6-bezier229" stroke="none" fill="rgb(0, 0, 0)" d="M 78.95,176.83 C 78.54,176.1 78.81,175.22 79.15,174.54 79.51,173.83 80,173.2 80.54,172.63 81.64,171.5 82.93,170.58 84.28,169.77 85.62,168.96 87.02,168.23 88.5,167.7 89.98,167.2 91.48,166.76 93.03,166.54 L 93.06,166.61 C 91.62,167.24 90.18,167.78 88.77,168.4 87.36,169.01 85.93,169.57 84.57,170.29 83.22,171.01 81.93,171.85 80.81,172.9 80.25,173.42 79.74,173.99 79.35,174.65 78.98,175.28 78.68,176.09 79.02,176.79 L 78.95,176.83 Z M 78.95,176.83" />
        </g>
        <g id="fevvaTop6-group231">
            <path id="fevvaTop6-bezier230" stroke="none" fill="rgb(0, 0, 0)" d="M 84.12,167.32 C 83.78,166.33 83.69,165.23 83.96,164.2 84.22,163.17 84.8,162.24 85.51,161.46 86.95,159.89 88.85,158.84 90.78,158.04 91.76,157.64 92.76,157.3 93.77,157.02 94.79,156.73 95.84,156.56 96.81,156.25 98.78,155.63 100.63,154.65 102.3,153.45 105.66,151.03 108.33,147.69 109.93,143.92 110.73,142.03 111.22,140 111.23,137.95 111.26,135.9 110.81,133.83 109.89,131.96 L 109.95,131.92 C 111.06,133.7 111.7,135.81 111.77,137.94 111.85,140.08 111.41,142.22 110.63,144.2 109.03,148.18 106.1,151.5 102.64,153.92 100.89,155.12 98.98,156.09 96.94,156.69 95.91,156.99 94.88,157.14 93.88,157.41 92.87,157.68 91.88,157.99 90.91,158.36 88.98,159.11 87.1,160.1 85.66,161.6 84.96,162.35 84.37,163.24 84.1,164.24 83.82,165.23 83.87,166.31 84.19,167.3 L 84.12,167.32 Z M 84.12,167.32" />
        </g>
        <g id="fevvaTop6-group232">
            <path id="fevvaTop6-bezier231" stroke="none" fill="rgb(0, 0, 0)" d="M 109.84,106.41 C 104.64,107.17 99.37,107.38 94.12,107.19 88.87,106.97 83.62,106.29 78.52,104.95 75.97,104.29 73.46,103.45 71.02,102.42 68.62,101.32 66.26,100.25 63.78,99.46 61.32,98.65 58.76,98.03 56.19,98.12 54.91,98.17 53.62,98.45 52.57,99.16 52.04,99.52 51.6,99.99 51.32,100.56 51.19,100.85 51.1,101.16 51.08,101.48 51.06,101.79 51.11,102.13 51.35,102.34 L 51.31,102.4 C 51.02,102.18 50.95,101.81 50.94,101.48 50.93,101.14 51.01,100.8 51.13,100.48 51.38,99.85 51.83,99.31 52.36,98.89 53.46,98.06 54.82,97.72 56.15,97.6 58.84,97.39 61.48,97.99 64,98.75 66.52,99.55 68.96,100.65 71.32,101.74 73.7,102.8 76.16,103.67 78.67,104.37 83.71,105.76 88.91,106.52 94.14,106.81 99.36,107.11 104.62,107 109.82,106.33 L 109.84,106.41 Z M 109.84,106.41" />
        </g>
        <g id="fevvaTop6-group233">
            <path id="fevvaTop6-bezier232" stroke="none" fill="rgb(0, 0, 0)" d="M 77.16,108.74 C 73.75,108.15 70.35,107.61 66.93,107.11 63.52,106.6 60.1,106.13 56.68,105.76 54.97,105.58 53.25,105.43 51.54,105.35 50.68,105.3 49.82,105.28 48.98,105.29 48.55,105.3 48.13,105.32 47.72,105.36 47.33,105.4 46.89,105.48 46.64,105.63 46.59,105.66 46.55,105.71 46.56,105.69 46.52,105.79 46.46,105.9 46.44,105.98 46.38,106.14 46.33,106.33 46.3,106.53 46.23,106.92 46.22,107.34 46.23,107.75 46.25,108.59 46.4,109.42 46.57,110.26 46.74,111.09 46.98,111.92 47.25,112.73 47.54,113.52 47.8,114.39 48.35,115.01 L 48.31,115.07 C 47.94,114.79 47.74,114.39 47.52,114.02 47.31,113.64 47.11,113.25 46.94,112.85 46.59,112.05 46.3,111.23 46.06,110.38 45.82,109.54 45.65,108.68 45.58,107.79 45.55,107.34 45.55,106.89 45.61,106.43 45.64,106.19 45.68,105.97 45.76,105.72 45.8,105.59 45.84,105.51 45.88,105.4 45.98,105.19 46.11,105.09 46.24,105 46.74,104.71 47.19,104.67 47.64,104.6 48.09,104.55 48.53,104.52 48.97,104.51 49.85,104.5 50.72,104.55 51.58,104.61 53.32,104.74 55.04,104.94 56.75,105.16 63.61,106.06 70.4,107.3 77.17,108.67 L 77.16,108.74 Z M 77.16,108.74" />
        </g>
        <g id="fevvaTop6-group234">
            <path id="fevvaTop6-bezier233" stroke="none" fill="rgb(0, 0, 0)" d="M 78.97,117.41 C 76.35,116.67 73.71,115.99 71.06,115.35 68.41,114.7 65.75,114.1 63.08,113.63 61.74,113.4 60.39,113.2 59.05,113.09 58.38,113.04 57.71,113 57.06,113.03 56.74,113.04 56.41,113.07 56.13,113.14 55.83,113.21 55.59,113.34 55.55,113.46 55.54,113.48 55.54,113.49 55.53,113.51 L 55.5,113.63 55.44,113.88 55.32,114.38 55.11,115.37 C 54.96,116.03 54.86,116.7 54.75,117.36 54.64,118.03 54.57,118.7 54.58,119.36 54.6,120.01 54.66,120.74 55.18,121.17 L 55.14,121.24 C 54.5,120.86 54.34,120.05 54.24,119.39 54.16,118.69 54.18,118 54.22,117.31 54.26,116.61 54.37,115.93 54.47,115.25 L 54.63,114.24 54.73,113.73 54.77,113.48 54.8,113.35 C 54.81,113.29 54.84,113.22 54.86,113.16 55.12,112.64 55.59,112.5 55.94,112.4 56.31,112.31 56.67,112.27 57.03,112.25 57.74,112.23 58.43,112.28 59.12,112.36 60.5,112.51 61.85,112.76 63.19,113.04 68.55,114.16 73.79,115.69 79,117.34 L 78.97,117.41 Z M 78.97,117.41" />
        </g>
        <g id="fevvaTop6-group235">
            <path id="fevvaTop6-bezier234" stroke="none" fill="rgb(0, 0, 0)" d="M 109.82,135.42 C 104.55,134.75 99.22,134.65 93.93,134.95 88.63,135.27 83.36,136.05 78.27,137.5 75.73,138.23 73.24,139.13 70.84,140.23 68.44,141.35 65.95,142.42 63.34,143.09 60.75,143.72 57.96,144.13 55.3,143.36 54,142.98 52.75,142.25 51.91,141.15 51.5,140.6 51.19,139.97 51.04,139.31 50.96,138.98 50.92,138.64 50.94,138.3 50.97,137.97 51.02,137.59 51.31,137.36 L 51.35,137.42 C 51.12,137.63 51.08,137.99 51.08,138.3 51.08,138.63 51.14,138.95 51.24,139.26 51.43,139.88 51.76,140.45 52.18,140.94 53.01,141.93 54.2,142.56 55.44,142.87 57.97,143.48 60.64,143.07 63.16,142.38 65.7,141.69 68.12,140.69 70.53,139.55 72.99,138.47 75.53,137.61 78.11,136.92 83.27,135.52 88.59,134.81 93.91,134.57 99.23,134.37 104.57,134.57 109.83,135.35 L 109.82,135.42 Z M 109.82,135.42" />
        </g>
        <g id="fevvaTop6-group236">
            <path id="fevvaTop6-bezier235" stroke="none" fill="rgb(0, 0, 0)" d="M 77.17,133.09 C 70.35,134 63.51,134.8 56.64,135.25 54.92,135.36 53.2,135.45 51.47,135.46 50.6,135.46 49.73,135.45 48.86,135.38 48.42,135.35 47.99,135.3 47.55,135.21 47.1,135.11 46.66,135.05 46.18,134.72 46.06,134.64 45.92,134.47 45.87,134.32 45.83,134.21 45.79,134.13 45.75,134 45.67,133.74 45.63,133.53 45.6,133.29 45.55,132.84 45.55,132.38 45.58,131.94 45.65,131.05 45.82,130.19 46.06,129.35 46.3,128.51 46.59,127.69 46.94,126.9 47.12,126.5 47.31,126.11 47.52,125.73 47.75,125.36 47.94,124.96 48.31,124.69 L 48.35,124.75 C 47.8,125.36 47.55,126.23 47.26,127.02 46.98,127.83 46.75,128.65 46.57,129.48 46.41,130.31 46.26,131.14 46.23,131.98 46.22,132.39 46.23,132.8 46.29,133.19 46.32,133.39 46.37,133.59 46.43,133.75 46.45,133.82 46.5,133.93 46.55,134.03 46.57,134.08 46.57,134.07 46.63,134.12 46.86,134.29 47.29,134.39 47.68,134.46 48.09,134.53 48.51,134.58 48.93,134.61 49.77,134.68 50.62,134.71 51.47,134.72 53.18,134.75 54.89,134.71 56.61,134.64 60.04,134.5 63.47,134.25 66.89,133.97 70.32,133.69 73.74,133.38 77.16,133.01 L 77.17,133.09 Z M 77.17,133.09" />
        </g>
        <g id="fevvaTop6-group237">
            <path id="fevvaTop6-bezier236" stroke="none" fill="rgb(0, 0, 0)" d="M 78.99,124.42 C 74.04,125.58 69.05,126.6 63.99,127.28 62.72,127.45 61.45,127.61 60.17,127.68 58.89,127.75 57.59,127.79 56.27,127.48 55.94,127.39 55.6,127.28 55.28,127.04 55.12,126.92 54.96,126.74 54.89,126.51 54.82,126.29 54.82,126.18 54.78,126.01 54.66,125.39 54.54,124.76 54.43,124.13 54.33,123.5 54.21,122.86 54.24,122.2 54.24,121.55 54.53,120.81 55.14,120.52 L 55.18,120.59 C 54.65,120.95 54.49,121.59 54.55,122.2 54.6,122.81 54.74,123.42 54.89,124.03 L 55.38,125.88 C 55.41,126.02 55.45,126.23 55.49,126.3 55.52,126.38 55.57,126.45 55.67,126.51 55.87,126.64 56.15,126.73 56.43,126.79 57.61,127 58.88,126.96 60.14,126.93 61.39,126.88 62.66,126.79 63.92,126.67 66.44,126.42 68.96,126.06 71.46,125.66 73.97,125.26 76.48,124.83 78.98,124.35 L 78.99,124.42 Z M 78.99,124.42" />
        </g>
        <g id="fevvaTop6-group238">
            <path id="fevvaTop6-bezier237" stroke="none" fill="rgb(0, 0, 0)" d="M 162.04,132.75 C 164.53,132.14 166.99,131.43 169.41,130.58 171.82,129.72 174.2,128.73 176.39,127.42 177.48,126.76 178.53,126.01 179.42,125.11 180.31,124.21 181.07,123.12 181.33,121.89 181.61,120.65 181.34,119.34 180.68,118.26 180.04,117.17 179.11,116.28 178.1,115.5 176.06,113.97 173.73,112.87 171.36,111.93 168.97,111 166.52,110.25 164.05,109.61 161.59,108.94 159.01,108.61 156.64,107.47 155.47,106.91 154.42,106.03 153.71,104.92 152.99,103.81 152.57,102.55 152.29,101.29 L 152.29,101.28 152.29,101.26 C 151.42,89.58 150.61,77.88 150.31,66.16 150.27,63.22 150.19,60.29 150.49,57.33 150.86,54.42 151.42,51.54 151.7,48.64 151.99,45.75 152.03,42.81 151.38,40 150.74,37.19 149.28,34.59 147.16,32.66 145.06,30.69 142.38,29.43 139.69,28.35 136.98,27.29 134.19,26.45 131.37,25.68 125.73,24.15 119.99,22.96 114.26,21.79 108.52,20.62 102.76,19.54 97.04,18.23 94.18,17.57 91.32,16.88 88.5,16.05 85.69,15.2 82.87,14.3 80.28,12.8 L 80.58,12.78 C 80.03,13.21 79.54,13.75 79.44,14.39 79.32,15.03 79.63,15.69 80.07,16.24 80.97,17.34 82.24,18.15 83.49,18.89 86.05,20.34 88.8,21.45 91.57,22.48 97.13,24.51 102.81,26.2 108.55,27.65 L 108.53,27.72 C 105.65,27.06 102.78,26.31 99.92,25.51 97.07,24.7 94.23,23.84 91.44,22.83 88.65,21.82 85.88,20.73 83.27,19.28 81.98,18.54 80.68,17.74 79.68,16.55 79.2,15.96 78.79,15.17 78.93,14.31 79.06,13.46 79.66,12.83 80.25,12.36 L 80.39,12.25 80.55,12.34 C 83.07,13.77 85.88,14.65 88.67,15.46 91.48,16.26 94.33,16.92 97.19,17.55 102.91,18.78 108.66,19.89 114.4,21.06 120.15,22.23 125.89,23.43 131.56,24.97 134.4,25.75 137.21,26.61 139.95,27.7 142.68,28.8 145.41,30.1 147.61,32.17 149.82,34.2 151.34,36.95 151.98,39.86 152.64,42.77 152.58,45.78 152.28,48.7 151.98,51.63 151.41,54.51 151.03,57.41 150.73,60.28 150.79,63.23 150.82,66.15 151.08,77.85 151.85,89.55 152.67,101.24 L 152.67,101.21 C 152.94,102.45 153.34,103.66 154.02,104.72 154.69,105.78 155.67,106.61 156.8,107.16 159.07,108.27 161.66,108.62 164.13,109.31 166.61,109.97 169.07,110.73 171.46,111.68 173.84,112.64 176.19,113.75 178.24,115.32 179.26,116.11 180.21,117.03 180.87,118.15 181.54,119.27 181.81,120.64 181.52,121.92 181.24,123.21 180.45,124.32 179.55,125.22 178.63,126.14 177.57,126.89 176.47,127.55 174.25,128.86 171.87,129.84 169.45,130.68 167.02,131.53 164.55,132.22 162.06,132.82 L 162.04,132.75 Z M 162.04,132.75" />
        </g>
    </g>
</svg>
