<?xml version="1.0" encoding="UTF-8"?>
<!DOCTYPE svg PUBLIC "-//W3C//DTD SVG 1.1//EN" "http://www.w3.org/Graphics/SVG/1.1/DTD/svg11.dtd">
<svg version="1.1" xmlns="http://www.w3.org/2000/svg" xmlns:xlink="http://www.w3.org/1999/xlink" width="240" height="160"  xml:space="preserve" id="fevvaSide5">
    <!-- Generated by PaintCode - http://www.paintcodeapp.com -->
    <g id="fevvaSide5-group2">
        <g id="fevvaSide5-group55">
            <path id="fevvaSide5-bezier54" stroke="none" fill="rgb(0, 0, 0)" d="M 173.78,50.02 C 173.78,50.76 173.18,51.53 172.34,51.56 171.51,51.61 170.72,50.88 170.72,50.02 170.66,49.16 171.43,48.29 172.34,48.35 172.77,48.36 173.19,48.6 173.43,48.92 173.68,49.25 173.78,49.64 173.78,50.02 Z M 173.73,50.02 C 173.72,49.65 173.52,49.31 173.24,49.11 172.96,48.91 172.64,48.84 172.33,48.85 171.73,48.87 171.14,49.36 171.12,50.02 171.07,50.67 171.64,51.3 172.34,51.31 173.01,51.37 173.77,50.79 173.73,50.02 Z M 173.73,50.02" />
        </g>
        <g id="fevvaSide5-group56">
            <path id="fevvaSide5-bezier55" stroke="none" fill="rgb(0, 0, 0)" d="M 183.85,51.19 C 185.69,51.73 187.51,52.36 189.28,53.12 190.17,53.51 191.04,53.93 191.88,54.43 192.71,54.94 193.54,55.48 194.17,56.33 L 194.47,56.75 193.95,56.8 C 192.03,57.01 190.13,57.05 188.23,57.04 187.28,57.02 186.34,57.03 185.4,57.05 184.46,57.08 183.51,57.09 182.6,57.34 L 182.57,57.28 C 183.44,56.81 184.41,56.67 185.36,56.53 186.31,56.4 187.27,56.35 188.22,56.3 189.17,56.26 190.12,56.25 191.07,56.26 192.01,56.26 192.96,56.27 193.89,56.2 L 193.67,56.67 C 193.18,55.94 192.4,55.36 191.62,54.85 190.83,54.33 189.99,53.88 189.13,53.47 187.41,52.62 185.64,51.9 183.83,51.26 L 183.85,51.19 Z M 183.85,51.19" />
        </g>
        <g id="fevvaSide5-group57">
            <path id="fevvaSide5-bezier56" stroke="none" fill="rgb(0, 0, 0)" d="M 181.67,56.93 C 180.43,56.91 179.2,56.85 177.96,56.69 177.65,56.64 177.34,56.58 177.03,56.5 176.72,56.4 176.41,56.38 176.08,56 L 176.03,55.91 176.02,55.88 176.01,55.82 176,55.79 C 176.01,55.6 176.08,55.55 176.12,55.49 176.23,55.39 176.31,55.35 176.39,55.31 176.55,55.23 176.71,55.18 176.86,55.14 177.17,55.04 177.48,54.97 177.78,54.9 179,54.63 180.2,54.38 181.41,54.19 182.01,54.09 182.61,53.99 183.19,53.86 183.48,53.79 183.77,53.71 184.02,53.58 184.28,53.47 184.52,53.29 184.47,52.99 L 184.54,52.96 C 184.62,53.1 184.63,53.31 184.54,53.47 184.46,53.64 184.33,53.76 184.21,53.87 183.94,54.08 183.65,54.22 183.36,54.35 182.77,54.61 182.16,54.77 181.55,54.92 180.34,55.22 179.1,55.31 177.89,55.49 177.59,55.54 177.29,55.59 177,55.66 176.86,55.7 176.72,55.73 176.6,55.78 176.55,55.8 176.49,55.84 176.48,55.85 176.47,55.84 176.5,55.86 176.49,55.75 176.49,55.74 176.49,55.76 176.49,55.77 176.49,55.75 176.5,55.82 176.49,55.74 L 176.49,55.74 176.49,55.75 C 176.55,55.86 176.89,56.01 177.15,56.09 177.43,56.18 177.73,56.25 178.02,56.32 179.22,56.58 180.44,56.73 181.67,56.85 L 181.67,56.93 Z M 181.67,56.93" />
        </g>
        <g id="fevvaSide5-group58">
            <path id="fevvaSide5-bezier57" stroke="none" fill="rgb(0, 0, 0)" d="M 182.14,50.5 C 180.02,48.91 177.54,47.82 175.02,47 172.49,46.2 169.86,45.72 167.21,45.52 161.9,45.21 156.57,45.39 151.25,45.56 145.93,45.73 140.59,45.89 135.25,45.55 129.94,45.24 124.62,44.59 119.34,44.98 116.7,45.18 114.09,45.68 111.62,46.59 110.39,47.04 109.19,47.59 108.04,48.22 106.86,48.86 105.67,49.46 104.47,50.06 99.67,52.4 94.79,54.55 89.87,56.59 84.92,58.59 79.92,60.46 74.84,62.1 69.77,63.7 64.6,65.23 59.26,65.59 L 59.25,65.52 C 61.9,65.28 64.5,64.67 67.06,63.98 69.63,63.29 72.17,62.5 74.69,61.64 79.72,59.92 84.68,57.97 89.58,55.9 94.49,53.87 99.37,51.72 104.15,49.39 105.34,48.81 106.53,48.22 107.7,47.6 108.89,46.96 110.13,46.41 111.4,45.96 113.94,45.04 116.62,44.56 119.29,44.38 124.66,44.02 129.98,44.71 135.29,45.06 140.59,45.44 145.92,45.31 151.24,45.18 156.57,45.06 161.9,44.94 167.23,45.29 169.89,45.52 172.53,46.03 175.07,46.86 177.6,47.7 180.07,48.82 182.19,50.44 L 182.14,50.5 Z M 182.14,50.5" />
        </g>
        <g id="fevvaSide5-group59">
            <path id="fevvaSide5-bezier58" stroke="none" fill="rgb(0, 0, 0)" d="M 69.5,61.76 C 63.74,62.07 57.95,62.42 52.27,63.38 51.57,63.5 50.86,63.65 50.18,63.84 49.51,64.04 48.76,64.23 48.35,64.69 47.4,65.76 46.47,66.88 45.88,68.15 45.61,68.76 45.44,69.51 45.83,69.93 46.23,70.36 46.97,70.43 47.66,70.45 49.08,70.5 50.53,70.43 51.96,70.34 54.84,70.16 57.7,69.84 60.55,69.43 63.41,69.05 66.25,68.56 69.06,67.95 71.87,67.37 74.66,66.65 77.39,65.73 80.1,64.8 82.78,63.69 85.15,62.03 L 85.19,62.09 C 82.94,63.92 80.27,65.19 77.57,66.22 74.85,67.25 72.04,68.02 69.22,68.68 63.55,69.91 57.79,70.66 52,70.94 50.55,71.01 49.1,71.06 47.64,71 46.93,70.95 46.07,70.92 45.44,70.26 45.14,69.93 45.06,69.45 45.11,69.06 45.15,68.65 45.29,68.29 45.44,67.95 46.09,66.59 47.05,65.48 48.03,64.4 48.63,63.8 49.38,63.66 50.07,63.45 50.78,63.26 51.5,63.13 52.21,63.01 55.08,62.55 57.96,62.31 60.84,62.11 63.73,61.91 66.61,61.77 69.5,61.69 L 69.5,61.76 Z M 69.5,61.76" />
        </g>
        <g id="fevvaSide5-group60">
            <path id="fevvaSide5-bezier59" stroke="none" fill="rgb(0, 0, 0)" d="M 69,70.02 L 76.77,69.15 C 78.06,68.99 79.34,68.78 80.63,68.67 L 82.57,68.52 C 83.21,68.46 83.88,68.45 84.48,68.28 L 84.52,68.34 C 83.95,68.73 83.29,68.86 82.66,69.04 82.02,69.2 81.37,69.3 80.72,69.42 79.43,69.62 78.12,69.67 76.82,69.75 74.22,69.92 71.61,70.03 69,70.1 L 69,70.02 Z M 69,70.02" />
        </g>
        <g id="fevvaSide5-group61">
            <path id="fevvaSide5-bezier60" stroke="none" fill="rgb(0, 0, 0)" d="M 85.19,64.38 C 85.85,64.79 86.45,65.31 86.93,65.95 87.4,66.59 87.72,67.42 87.62,68.29 87.55,68.74 87.46,69.05 87.44,69.42 87.4,69.79 87.37,70.15 87.36,70.51 87.31,71.24 87.33,71.99 87.39,72.77 L 87.32,72.79 C 86.86,72.12 86.66,71.32 86.61,70.51 86.59,70.11 86.62,69.7 86.71,69.3 86.78,68.92 86.95,68.49 87.03,68.19 87.18,67.52 86.99,66.79 86.62,66.15 86.25,65.51 85.74,64.92 85.15,64.44 L 85.19,64.38 Z M 85.19,64.38" />
        </g>
        <g id="fevvaSide5-group62">
            <path id="fevvaSide5-bezier61" stroke="none" fill="rgb(0, 0, 0)" d="M 97.18,69.23 C 95.17,70.07 93.22,71.05 91.37,72.17 90.46,72.74 89.6,73.39 88.74,74.02 87.87,74.64 87.05,75.3 86.29,76.11 L 86.23,76.07 C 86.65,75.02 87.43,74.16 88.27,73.43 89.12,72.7 90.1,72.16 91.08,71.65 93.03,70.62 95.07,69.8 97.16,69.16 L 97.18,69.23 Z M 97.18,69.23" />
        </g>
        <g id="fevvaSide5-group63">
            <path id="fevvaSide5-bezier62" stroke="none" fill="rgb(0, 0, 0)" d="M 92.35,76.66 L 85.81,79.66 C 85.28,79.94 84.7,80.15 84.32,80.49 83.97,80.81 83.69,81.3 83.48,81.82 83.05,82.87 82.83,84.05 82.54,85.23 L 82.46,85.22 C 82.35,84.01 82.4,82.78 82.78,81.56 82.99,80.96 83.29,80.35 83.86,79.9 84.02,79.78 84.16,79.7 84.29,79.64 84.47,79.55 84.58,79.51 84.73,79.45 L 85.57,79.11 C 87.81,78.22 90.06,77.39 92.32,76.59 L 92.35,76.66 Z M 92.35,76.66" />
        </g>
        <g id="fevvaSide5-group64">
            <path id="fevvaSide5-bezier63" stroke="none" fill="rgb(0, 0, 0)" d="M 90.44,83.41 C 88.64,84.47 86.87,85.58 85.13,86.73 83.4,87.89 81.68,89.08 80.13,90.43 79.37,91.13 78.61,91.83 78.24,92.73 77.7,93.78 76.77,94.47 75.85,95 74.91,95.52 73.94,95.93 73.02,96.38 72.11,96.84 71.19,97.36 70.66,98.26 L 70.59,98.23 C 70.94,97.19 71.89,96.49 72.77,95.93 73.66,95.36 74.61,94.91 75.46,94.36 76.32,93.83 77.12,93.2 77.57,92.39 78.07,91.36 78.94,90.65 79.74,89.98 81.38,88.64 83.15,87.51 84.93,86.42 86.73,85.34 88.55,84.32 90.4,83.35 L 90.44,83.41 Z M 90.44,83.41" />
        </g>
        <g id="fevvaSide5-group65">
            <path id="fevvaSide5-bezier64" stroke="none" fill="rgb(0, 0, 0)" d="M 69.66,99.96 C 69.91,100.51 70.26,101.08 70.77,101.35 71.02,101.48 71.3,101.47 71.54,101.33 71.76,101.2 72.01,100.95 72.28,100.79 73.33,100.08 74.42,99.48 75.52,98.88 76.62,98.29 77.72,97.67 78.88,97.21 80.04,96.75 81.23,96.32 82.49,96.13 L 82.51,96.2 79.18,97.89 C 78.07,98.44 76.92,98.9 75.79,99.42 74.67,99.94 73.54,100.48 72.48,101.1 72.2,101.25 72,101.44 71.67,101.6 71.36,101.76 70.94,101.74 70.66,101.55 70.09,101.17 69.81,100.57 69.59,99.98 L 69.66,99.96 Z M 69.66,99.96" />
        </g>
        <g id="fevvaSide5-group66">
            <path id="fevvaSide5-bezier65" stroke="none" fill="rgb(0, 0, 0)" d="M 115.02,84.91 C 109.24,88.02 103.41,91.05 97.52,93.96 94.58,95.41 91.63,96.89 88.61,98.17 87.09,98.8 85.57,99.43 84.02,99.99 82.47,100.54 80.9,101.07 79.26,101.33 L 79.24,101.26 C 80.04,101.05 80.8,100.75 81.56,100.45 82.32,100.15 83.07,99.83 83.82,99.5 85.32,98.85 86.82,98.19 88.3,97.49 L 97.26,93.42 C 103.2,90.63 109.1,87.76 114.98,84.85 L 115.02,84.91 Z M 115.02,84.91" />
        </g>
        <g id="fevvaSide5-group67">
            <path id="fevvaSide5-bezier66" stroke="none" fill="rgb(0, 0, 0)" d="M 118.14,89.4 C 110.99,93.16 103.8,96.85 96.57,100.46 92.95,102.28 89.35,104.11 85.67,105.78 83.82,106.6 81.98,107.43 80.1,108.2 78.23,108.96 76.35,109.73 74.39,110.26 L 74.37,110.19 C 75.32,109.85 76.23,109.43 77.15,109 78.07,108.59 78.98,108.16 79.89,107.72 L 85.35,105.1 96.3,99.93 C 103.59,96.43 110.86,92.9 118.11,89.34 L 118.14,89.4 Z M 118.14,89.4" />
        </g>
        <g id="fevvaSide5-group68">
            <path id="fevvaSide5-bezier67" stroke="none" fill="rgb(0, 0, 0)" d="M 118.15,92.63 C 110.79,96.84 103.36,100.89 95.81,104.75 92.04,106.67 88.25,108.59 84.35,110.26 82.4,111.08 80.43,111.89 78.42,112.59 76.42,113.28 74.38,113.93 72.26,114.18 L 72.25,114.1 C 73.28,113.9 74.29,113.58 75.28,113.22 76.28,112.88 77.26,112.5 78.24,112.1 80.19,111.3 82.13,110.46 84.05,109.58 87.89,107.82 91.74,106.06 95.54,104.21 103.14,100.48 110.66,96.58 118.11,92.56 L 118.15,92.63 Z M 118.15,92.63" />
        </g>
        <g id="fevvaSide5-group69">
            <path id="fevvaSide5-bezier68" stroke="none" fill="rgb(0, 0, 0)" d="M 136.9,86.87 C 132.89,89.8 128.75,92.54 124.5,95.11 120.24,97.65 115.86,100.03 111.25,101.94 106.62,103.72 102.18,105.87 97.83,108.24 95.64,109.39 93.48,110.61 91.31,111.81 90.22,112.4 89.13,113 88.02,113.56 87.46,113.83 86.9,114.1 86.32,114.34 85.74,114.55 85.15,114.84 84.49,114.75 L 84.51,114.68 C 85.11,114.72 85.69,114.4 86.23,114.15 86.79,113.88 87.32,113.57 87.86,113.26 88.93,112.64 89.99,112 91.05,111.35 93.17,110.06 95.31,108.8 97.47,107.58 99.65,106.39 101.87,105.25 104.12,104.2 106.38,103.16 108.72,102.24 111.03,101.39 115.62,99.56 120.02,97.26 124.31,94.79 128.6,92.31 132.8,89.65 136.86,86.81 L 136.9,86.87 Z M 136.9,86.87" />
        </g>
        <g id="fevvaSide5-group70">
            <path id="fevvaSide5-bezier69" stroke="none" fill="rgb(0, 0, 0)" d="M 78.35,104.31 C 77.27,104.65 76.19,104.96 75.09,105.22 74,105.46 72.86,105.71 71.7,105.65 71.29,105.63 70.99,106.02 70.75,106.48 70.51,106.93 70.31,107.44 70.12,107.96 69.92,108.47 69.74,109 69.52,109.52 69.28,110.02 69.15,110.64 68.6,110.99 L 68.57,110.92 C 68.74,110.75 68.79,110.45 68.85,110.19 68.92,109.92 68.97,109.65 69.02,109.37 69.13,108.82 69.26,108.27 69.41,107.72 69.58,107.17 69.79,106.62 70.11,106.1 70.27,105.85 70.46,105.59 70.72,105.38 70.86,105.27 71.01,105.17 71.19,105.11 71.34,105.05 71.62,105.03 71.72,105.05 72.81,105.18 73.91,105.01 75.02,104.86 76.13,104.69 77.23,104.48 78.33,104.24 L 78.35,104.31 Z M 78.35,104.31" />
        </g>
        <g id="fevvaSide5-group71">
            <path id="fevvaSide5-bezier70" stroke="none" fill="rgb(0, 0, 0)" d="M 147.65,50.9 C 147.39,51.96 147.91,53.01 148.56,53.82 149.22,54.65 150.04,55.35 150.93,55.94 151.81,56.52 152.77,57.01 153.77,57.34 154.85,57.62 155.74,58.37 156.48,59.15 157.97,60.75 158.86,62.91 158.93,65.11 159.03,67.32 158.38,69.49 157.4,71.43 155.39,75.32 152.28,78.49 148.94,81.19 145.55,83.87 141.91,86.19 138.1,88.18 L 138.07,88.11 C 141.65,85.76 145.21,83.36 148.47,80.61 151.7,77.87 154.85,74.89 156.86,71.15 157.85,69.29 158.5,67.23 158.45,65.13 158.41,63.04 157.61,60.97 156.21,59.4 155.5,58.63 154.69,57.91 153.67,57.63 152.65,57.26 151.69,56.74 150.8,56.12 149.92,55.5 149.09,54.78 148.44,53.91 147.8,53.07 147.29,51.97 147.58,50.88 L 147.65,50.9 Z M 147.65,50.9" />
        </g>
        <g id="fevvaSide5-group72">
            <path id="fevvaSide5-bezier71" stroke="none" fill="rgb(0, 0, 0)" d="M 159.74,64.38 C 161.48,63.63 163.23,62.93 165,62.27 166.78,61.63 168.57,61 170.44,60.58 172.27,60.19 174.07,59.61 175.89,59.15 177.72,58.71 179.54,58.22 181.41,57.86 L 181.43,57.93 C 179.69,58.7 177.9,59.3 176.1,59.88 174.29,60.43 172.43,60.85 170.56,61.17 168.73,61.51 166.92,62.05 165.12,62.62 163.32,63.18 161.54,63.79 159.77,64.44 L 159.74,64.38 Z M 159.74,64.38" />
        </g>
    </g>
</svg>
