<?xml version="1.0" encoding="UTF-8"?>
<!DOCTYPE svg PUBLIC "-//W3C//DTD SVG 1.1//EN" "http://www.w3.org/Graphics/SVG/1.1/DTD/svg11.dtd">
<svg version="1.1" xmlns="http://www.w3.org/2000/svg" xmlns:xlink="http://www.w3.org/1999/xlink" width="240" height="160"  xml:space="preserve" id="fevvaSide4">
    <!-- Generated by PaintCode - http://www.paintcodeapp.com -->
    <g id="fevvaSide4-group2">
        <g id="fevvaSide4-group4">
            <path id="fevvaSide4-bezier3" stroke="none" fill="rgb(0, 0, 0)" d="M 167.42,26.3 C 167.42,27 166.86,27.74 166.06,27.76 165.29,27.81 164.53,27.14 164.53,26.29 164.47,25.5 165.19,24.66 166.08,24.72 166.47,24.73 166.88,24.96 167.1,25.27 167.34,25.58 167.43,25.95 167.42,26.3 Z M 167.37,26.3 C 167.36,25.96 167.17,25.64 166.91,25.46 166.64,25.27 166.36,25.21 166.05,25.22 165.51,25.24 164.95,25.68 164.93,26.31 164.89,26.9 165.41,27.51 166.07,27.51 166.68,27.58 167.41,27.03 167.37,26.3 Z M 167.37,26.3" />
        </g>
        <g id="fevvaSide4-group5">
            <path id="fevvaSide4-bezier4" stroke="none" fill="rgb(0, 0, 0)" d="M 175.09,33.38 C 173.98,33.63 172.96,34.12 171.88,34.48 170.79,34.83 169.71,35.16 168.65,35.55 166.53,36.33 164.44,37.26 162.57,38.53 161.63,39.15 160.76,39.87 159.84,40.55 158.92,41.23 157.9,41.79 156.81,42.16 155.73,42.55 154.58,42.69 153.58,43.16 152.56,43.62 151.65,44.28 150.9,45.1 149.4,46.75 148.62,48.96 148.45,51.18 148.26,53.41 148.62,55.67 149.3,57.8 149.64,58.86 150.11,59.9 150.49,60.97 150.89,62.04 151.26,63.12 151.62,64.19 152.35,66.35 153.01,68.52 153.68,70.69 154.34,72.86 154.99,75.04 155.72,77.17 156.09,78.23 156.47,79.31 156.98,80.26 157.12,80.51 157.24,80.66 157.44,80.93 157.62,81.17 157.77,81.42 157.92,81.67 158.21,82.17 158.48,82.68 158.74,83.19 160.71,87.32 162.25,91.64 163.2,96.12 163.63,98.36 163.92,100.67 163.68,102.99 163.42,105.26 162.99,107.49 162.7,109.73 162.42,111.96 162.17,114.25 162.7,116.42 162.96,117.49 163.51,118.52 164.39,119.2 165.27,119.9 166.39,120.22 167.5,120.36 L 167.5,120.43 C 166.37,120.34 165.21,120.06 164.27,119.37 163.31,118.69 162.69,117.62 162.37,116.51 161.77,114.26 161.99,111.92 162.22,109.67 162.48,107.41 162.85,105.17 163.07,102.92 163.26,100.71 162.93,98.46 162.47,96.27 161.53,91.88 160.01,87.58 158.07,83.52 157.82,83.02 157.57,82.52 157.29,82.04 157.15,81.8 157.01,81.56 156.86,81.34 156.72,81.15 156.49,80.86 156.36,80.61 155.81,79.55 155.45,78.47 155.08,77.39 154.37,75.22 153.75,73.04 153.1,70.87 151.83,66.5 150.46,62.22 148.84,57.95 148.15,55.76 147.81,53.44 148.02,51.14 148.22,48.86 149.04,46.56 150.62,44.85 151.41,43.99 152.38,43.32 153.44,42.85 154.51,42.37 155.66,42.25 156.71,41.88 157.78,41.53 158.77,41 159.68,40.34 160.6,39.68 161.49,38.96 162.44,38.34 164.35,37.08 166.46,36.17 168.6,35.41 169.67,35.03 170.76,34.71 171.84,34.37 172.91,34.03 173.96,33.55 175.07,33.31 L 175.09,33.38 Z M 175.09,33.38" />
        </g>
        <g id="fevvaSide4-group6">
            <path id="fevvaSide4-bezier5" stroke="none" fill="rgb(0, 0, 0)" d="M 61.17,55.82 C 63.72,55.61 66.18,54.76 68.56,53.84 70.94,52.9 73.25,51.78 75.5,50.56 77.76,49.34 79.95,48.01 82.1,46.62 84.26,45.24 86.34,43.72 88.5,42.33 97.11,36.74 106.26,31.9 115.93,28.36 120.78,26.64 125.76,25.13 130.96,24.78 136.13,24.67 141.23,24.74 146.27,23.85 148.81,23.48 151.33,23.02 153.89,22.69 156.46,22.39 159.05,22.35 161.63,22.49 164.2,22.64 166.77,22.98 169.28,23.56 170.53,23.86 171.77,24.23 172.97,24.7 174.16,25.18 175.37,25.73 176.28,26.67 L 176.22,26.72 C 175.3,25.83 174.09,25.33 172.9,24.89 171.7,24.46 170.46,24.15 169.2,23.89 166.7,23.36 164.16,23.07 161.6,22.97 159.05,22.87 156.49,22.96 153.97,23.29 151.45,23.66 148.92,24.17 146.39,24.58 141.3,25.5 136.08,25.42 131,25.52 125.93,25.83 120.96,27.27 116.14,28.94 106.5,32.38 97.34,37.14 88.7,42.65 86.54,44.03 84.45,45.52 82.27,46.88 80.1,48.26 77.88,49.56 75.61,50.76 73.34,51.96 71.01,53.06 68.61,53.99 66.21,54.88 63.74,55.71 61.17,55.9 L 61.17,55.82 61.17,55.82 Z M 61.17,55.82" />
        </g>
        <g id="fevvaSide4-group7">
            <path id="fevvaSide4-bezier6" stroke="none" fill="rgb(0, 0, 0)" d="M 84.6,42.81 C 78.56,44.95 72.49,47.01 66.36,48.88 64.83,49.35 63.29,49.81 61.74,50.23 60.18,50.64 58.63,51.04 56.98,51.21 56.11,51.24 55.38,51.2 54.59,51.3 53.82,51.38 53.05,51.53 52.39,51.86 52.06,52.03 51.78,52.26 51.64,52.57 51.49,52.87 51.52,53.24 51.64,53.59 51.88,54.31 52.4,54.95 52.94,55.53 L 52.89,55.58 C 52.29,55.06 51.68,54.49 51.32,53.72 51.15,53.33 51.07,52.85 51.24,52.4 51.41,51.96 51.76,51.64 52.13,51.41 53.63,50.55 55.38,50.56 56.91,50.47 58.45,50.28 60.01,49.87 61.55,49.51 63.1,49.14 64.65,48.73 66.19,48.3 72.35,46.57 78.47,44.68 84.57,42.74 L 84.6,42.81 Z M 84.6,42.81" />
        </g>
        <g id="fevvaSide4-group8">
            <path id="fevvaSide4-bezier7" stroke="none" fill="rgb(0, 0, 0)" d="M 58.19,55.89 C 56.49,57.35 54.76,58.78 52.94,60.1 52.49,60.44 52.01,60.77 51.53,61.06 51.11,61.31 50.78,61.67 50.72,62.05 50.64,62.42 50.89,62.84 51.29,63.15 51.7,63.45 52.22,63.65 52.75,63.83 L 52.75,63.9 C 52.17,63.93 51.58,63.86 51.02,63.59 50.48,63.35 49.91,62.75 49.97,61.97 50.06,61.21 50.62,60.69 51.16,60.41 51.66,60.17 52.12,59.9 52.6,59.61 54.48,58.41 56.31,57.12 58.14,55.83 L 58.19,55.89 Z M 58.19,55.89" />
        </g>
        <g id="fevvaSide4-group9">
            <path id="fevvaSide4-bezier8" stroke="none" fill="rgb(0, 0, 0)" d="M 57.18,62.98 C 55.66,63.88 54.13,64.83 52.84,66.04 52.54,66.34 52.22,66.68 52.09,67.05 51.94,67.43 52.32,67.7 52.73,67.71 53.58,67.76 54.47,67.6 55.34,67.45 58.82,66.8 62.24,65.79 65.62,64.68 68.99,63.56 72.3,62.26 75.56,60.88 78.82,59.49 82.05,57.98 84.89,55.83 L 84.94,55.89 C 82.35,58.39 79.09,60.04 75.87,61.57 72.61,63.06 69.21,64.21 65.8,65.26 62.38,66.29 58.93,67.24 55.4,67.82 54.51,67.95 53.63,68.09 52.7,68.01 52.45,67.99 52.2,67.91 52.01,67.73 51.79,67.55 51.75,67.2 51.84,66.97 52.02,66.5 52.36,66.19 52.69,65.87 54.04,64.68 55.59,63.78 57.15,62.91 L 57.18,62.98 Z M 57.18,62.98" />
        </g>
        <g id="fevvaSide4-group10">
            <path id="fevvaSide4-bezier9" stroke="none" fill="rgb(0, 0, 0)" d="M 157.66,90.15 C 159.48,93.03 160.04,96.55 159.94,99.92 159.89,101.62 159.61,103.32 159.25,104.97 158.9,106.62 158.57,108.27 158.31,109.93 157.8,113.24 157.53,116.62 158.01,119.89 158.25,121.52 158.77,123.11 159.73,124.43 160.69,125.76 162.14,126.7 163.76,127.17 L 163.74,127.24 C 162.91,127.09 162.08,126.82 161.32,126.41 160.57,125.99 159.88,125.43 159.32,124.76 158.19,123.4 157.6,121.7 157.27,120.02 156.67,116.59 157.13,113.15 157.72,109.83 158.02,108.16 158.39,106.51 158.77,104.86 159.17,103.22 159.47,101.58 159.56,99.9 159.75,96.59 159.31,93.1 157.59,90.18 L 157.66,90.15 Z M 157.66,90.15" />
        </g>
        <g id="fevvaSide4-group11">
            <path id="fevvaSide4-bezier10" stroke="none" fill="rgb(0, 0, 0)" d="M 144.04,106.44 C 143.8,111.5 143.61,116.58 143.68,121.65 143.71,122.91 143.74,124.18 143.89,125.43 143.93,125.74 143.98,126.05 144.06,126.33 144.1,126.48 144.14,126.59 144.22,126.71 144.31,126.85 144.39,126.97 144.48,127.09 144.85,127.59 145.26,128.05 145.72,128.47 147.54,130.15 150.02,131.19 152.47,130.88 L 152.28,131.34 C 151.32,130.1 150.95,128.6 150.68,127.16 150.43,125.69 150.34,124.22 150.3,122.75 150.25,119.81 150.5,116.89 150.79,113.98 151.1,111.07 151.54,108.18 151.99,105.3 L 152.67,100.98 C 152.87,99.55 153.17,98.1 153.09,96.66 L 153.16,96.64 C 153.34,98.11 153.14,99.57 153.02,101.03 L 152.53,105.38 C 152.16,108.27 151.82,111.16 151.53,114.06 151.23,116.95 151.02,119.85 151.02,122.75 151.02,124.19 151.09,125.64 151.3,127.06 151.53,128.46 151.89,129.89 152.72,130.99 L 153.03,131.39 152.53,131.45 C 149.88,131.74 147.27,130.59 145.41,128.81 144.93,128.37 144.5,127.88 144.12,127.35 144.03,127.22 143.93,127.07 143.85,126.94 143.76,126.79 143.69,126.6 143.65,126.45 143.57,126.12 143.52,125.8 143.48,125.48 143.35,124.2 143.33,122.93 143.33,121.65 143.35,116.57 143.63,111.5 143.96,106.43 L 144.04,106.44 Z M 144.04,106.44" />
        </g>
        <g id="fevvaSide4-group12">
            <path id="fevvaSide4-bezier11" stroke="none" fill="rgb(0, 0, 0)" d="M 145.04,129.96 C 145.06,131.3 145.14,132.64 145.27,133.97 145.35,134.64 145.43,135.3 145.57,135.95 145.7,136.59 145.86,137.29 146.22,137.73 L 146.56,138.16 146.03,138.07 C 145.14,137.92 144.39,137.5 143.67,137.05 142.95,136.59 142.29,136.05 141.68,135.46 140.47,134.26 139.47,132.84 138.8,131.26 138.11,129.68 137.83,127.95 137.85,126.25 137.87,124.54 138.22,122.87 138.8,121.3 L 138.87,121.32 C 138.56,122.96 138.4,124.61 138.48,126.24 138.56,127.87 138.91,129.46 139.49,130.97 140.08,132.47 140.96,133.88 142.08,135.06 142.65,135.65 143.27,136.18 143.94,136.64 144.6,137.09 145.34,137.52 146.09,137.67 L 145.91,138 C 145.44,137.37 145.36,136.68 145.24,136.01 145.13,135.34 145.07,134.67 145.03,133.99 144.95,132.65 144.93,131.3 144.96,129.95 L 145.04,129.96 Z M 145.04,129.96" />
        </g>
        <g id="fevvaSide4-group13">
            <path id="fevvaSide4-bezier12" stroke="none" fill="rgb(0, 0, 0)" d="M 140.87,108.7 C 139.16,113.29 137.58,117.93 136.17,122.62 135.47,124.97 134.82,127.33 134.29,129.71 134.03,130.9 133.79,132.1 133.64,133.3 133.49,134.49 133.38,135.73 133.59,136.85 L 133.8,137.98 133,137.15 C 131.73,135.85 130.76,134.26 130.11,132.57 129.46,130.87 129.1,129.08 128.97,127.29 128.83,125.5 128.87,123.7 129.11,121.93 129.34,120.16 129.72,118.41 130.38,116.75 L 130.45,116.78 C 129.94,118.47 129.72,120.23 129.57,121.98 129.46,123.73 129.45,125.49 129.65,127.23 130.04,130.67 131.15,134.13 133.5,136.68 L 132.91,136.98 C 132.7,135.68 132.86,134.44 133.03,133.21 133.22,131.99 133.47,130.78 133.76,129.59 134.34,127.19 135.04,124.84 135.78,122.5 137.28,117.83 138.99,113.23 140.8,108.67 L 140.87,108.7 Z M 140.87,108.7" />
        </g>
        <g id="fevvaSide4-group14">
            <path id="fevvaSide4-bezier13" stroke="none" fill="rgb(0, 0, 0)" d="M 142.14,97.51 C 138.45,103.58 134.67,109.59 130.7,115.48 128.7,118.42 126.74,121.39 124.39,124.1 123.78,124.76 123.2,125.43 122.39,125.99 122.2,126.1 121.92,126.3 121.54,126.22 121.44,126.2 121.32,126.17 121.17,126.11 121.04,126.06 120.94,126 120.82,125.93 120.39,125.65 120.09,125.26 119.86,124.85 118.96,123.21 118.74,121.4 118.63,119.63 L 118.7,119.62 C 118.83,120.49 119.03,121.36 119.28,122.2 119.53,123.04 119.83,123.87 120.3,124.58 120.53,124.92 120.82,125.23 121.14,125.42 121.22,125.47 121.31,125.52 121.38,125.54 121.45,125.56 121.53,125.59 121.66,125.61 121.72,125.64 121.87,125.56 122.03,125.45 122.68,124.97 123.26,124.27 123.82,123.61 126.05,120.89 128.15,118.02 130.2,115.14 134.28,109.33 138.21,103.42 142.08,97.47 L 142.14,97.51 Z M 142.14,97.51" />
        </g>
        <g id="fevvaSide4-group15">
            <path id="fevvaSide4-bezier14" stroke="none" fill="rgb(0, 0, 0)" d="M 140.86,89.6 C 136.26,95.61 131.55,101.55 126.64,107.32 124.18,110.2 121.73,113.1 118.93,115.7 118.21,116.33 117.49,116.96 116.67,117.5 116.46,117.64 116.25,117.77 116.01,117.87 115.76,117.97 115.51,118.1 115.11,118.01 114.61,117.83 114.16,117.51 113.82,117.15 112.47,115.6 112.18,113.58 112.13,111.71 L 112.2,111.71 C 112.3,112.64 112.51,113.57 112.82,114.45 113.12,115.32 113.55,116.17 114.19,116.78 114.52,117.08 114.88,117.3 115.28,117.44 115.35,117.46 115.56,117.4 115.75,117.31 115.93,117.22 116.12,117.1 116.31,116.97 117.05,116.44 117.74,115.8 118.41,115.15 121.1,112.53 123.67,109.74 126.19,106.93 131.19,101.25 136.03,95.43 140.8,89.55 L 140.86,89.6 Z M 140.86,89.6" />
        </g>
        <g id="fevvaSide4-group16">
            <path id="fevvaSide4-bezier15" stroke="none" fill="rgb(0, 0, 0)" d="M 133.86,90.19 C 129.3,94.88 124.66,99.49 119.87,103.95 117.45,106.16 115.08,108.42 112.35,110.31 112,110.53 111.64,110.76 111.26,110.95 111.07,111.05 110.88,111.15 110.65,111.22 110.45,111.28 110.15,111.38 109.83,111.26 108.95,110.91 108.37,110.21 107.91,109.52 106.98,108.11 106.4,106.56 105.96,104.98 L 106.04,104.96 C 106.65,106.46 107.38,107.94 108.33,109.22 108.82,109.83 109.37,110.43 110.06,110.65 110.18,110.71 110.62,110.52 110.93,110.34 111.27,110.15 111.6,109.92 111.92,109.69 114.52,107.78 117.01,105.65 119.46,103.5 124.34,99.16 129.1,94.67 133.81,90.14 L 133.86,90.19 Z M 133.86,90.19" />
        </g>
        <g id="fevvaSide4-group17">
            <path id="fevvaSide4-bezier16" stroke="none" fill="rgb(0, 0, 0)" d="M 129.22,87.41 C 125.09,90.49 120.88,93.45 116.55,96.24 114.38,97.64 112.21,99.03 109.89,100.19 108.73,100.76 107.55,101.31 106.33,101.75 105.71,101.96 105.09,102.15 104.44,102.28 103.8,102.38 103.11,102.5 102.49,102.22 L 102.51,102.15 C 103.13,102.3 103.76,102.13 104.36,101.95 104.96,101.77 105.55,101.52 106.13,101.26 107.29,100.74 108.43,100.16 109.54,99.53 111.78,98.3 114.03,97.05 116.23,95.73 120.62,93.07 124.93,90.25 129.17,87.35 L 129.22,87.41 Z M 129.22,87.41" />
        </g>
        <g id="fevvaSide4-group18">
            <path id="fevvaSide4-bezier17" stroke="none" fill="rgb(0, 0, 0)" d="M 129.21,84.77 C 123.95,87.6 118.65,90.36 113.28,92.98 110.6,94.29 107.92,95.63 105.12,96.71 104.41,96.97 103.7,97.23 102.98,97.45 102.61,97.56 102.25,97.66 101.86,97.73 101.67,97.77 101.47,97.8 101.25,97.8 101.14,97.8 101,97.79 100.87,97.74 100.79,97.7 100.71,97.67 100.61,97.61 99.86,97.23 99.35,96.58 99.02,95.89 98.7,95.18 98.52,94.44 98.46,93.68 L 98.54,93.68 C 98.68,94.4 98.94,95.11 99.32,95.73 99.68,96.35 100.2,96.88 100.82,97.13 100.88,97.17 100.98,97.2 101.07,97.23 101.12,97.24 101.16,97.24 101.24,97.23 101.39,97.22 101.56,97.19 101.74,97.15 102.08,97.07 102.43,96.95 102.78,96.83 103.47,96.58 104.15,96.31 104.84,96.01 107.57,94.86 110.31,93.68 113.02,92.44 118.44,89.94 123.82,87.34 129.18,84.71 L 129.21,84.77 Z M 129.21,84.77" />
        </g>
        <g id="fevvaSide4-group19">
            <path id="fevvaSide4-bezier18" stroke="none" fill="rgb(0, 0, 0)" d="M 125.1,80.97 C 119.85,82.94 114.5,84.67 108.99,85.82 107.61,86.1 106.22,86.34 104.81,86.49 104.11,86.55 103.39,86.6 102.68,86.6 101.97,86.58 101.29,86.58 100.6,86.61 99.23,86.64 97.84,86.77 96.57,87.22 95.94,87.44 95.32,87.77 94.99,88.31 94.62,88.85 94.76,89.6 95.19,90.14 L 95.14,90.19 C 94.61,89.73 94.32,88.87 94.68,88.15 95.04,87.45 95.72,87.04 96.37,86.73 97.71,86.15 99.15,85.97 100.56,85.86 102,85.77 103.38,85.88 104.75,85.75 106.13,85.65 107.51,85.46 108.88,85.23 111.62,84.74 114.34,84.08 117.04,83.34 119.74,82.61 122.42,81.8 125.07,80.9 L 125.1,80.97 Z M 125.1,80.97" />
        </g>
        <g id="fevvaSide4-group20">
            <path id="fevvaSide4-bezier19" stroke="none" fill="rgb(0, 0, 0)" d="M 108.8,84.47 C 108.08,83.69 107.01,83.31 105.98,83.09 104.93,82.88 103.86,82.84 102.79,82.9 100.65,83.03 98.53,83.45 96.37,83.7 95.29,83.82 94.18,83.92 93.04,83.73 92.47,83.62 91.87,83.43 91.4,82.99 90.91,82.58 90.64,81.96 90.53,81.38 90.38,80.24 90.41,79.11 90.73,78.03 90.89,77.49 91.13,76.97 91.45,76.51 91.79,76.07 92.16,75.6 92.75,75.47 L 92.75,75.55 C 92.3,75.76 91.98,76.24 91.74,76.69 91.5,77.14 91.33,77.64 91.24,78.15 91.05,79.17 91.06,80.24 91.26,81.23 91.44,82.2 92.19,82.81 93.18,83 94.17,83.22 95.25,83.17 96.31,83.1 98.45,82.94 100.6,82.58 102.78,82.53 103.87,82.52 104.97,82.6 106.03,82.87 107.07,83.15 108.14,83.57 108.86,84.43 L 108.8,84.47 Z M 108.8,84.47" />
        </g>
        <g id="fevvaSide4-group21">
            <path id="fevvaSide4-bezier20" stroke="none" fill="rgb(0, 0, 0)" d="M 107.83,74.74 C 103.29,74.84 98.74,74.86 94.19,74.66 93.05,74.62 91.91,74.56 90.77,74.45 89.62,74.32 88.5,74.26 87.31,73.73 87.16,73.63 86.96,73.56 86.83,73.23 86.79,73.05 86.8,73.06 86.79,72.96 86.78,72.87 86.78,72.77 86.78,72.7 86.79,72.38 86.84,72.08 86.9,71.79 87.04,71.21 87.22,70.66 87.44,70.13 L 88.08,68.55 C 88.28,68.03 88.52,67.49 88.46,66.94 L 88.54,66.92 C 88.71,67.51 88.52,68.1 88.41,68.65 L 87.94,70.3 C 87.79,70.84 87.63,71.38 87.54,71.91 87.5,72.18 87.47,72.44 87.48,72.69 87.48,72.76 87.49,72.8 87.49,72.86 87.5,72.89 87.52,73.05 87.52,73.01 87.49,72.94 87.56,73.03 87.66,73.07 88.07,73.27 88.65,73.37 89.19,73.47 89.73,73.56 90.29,73.65 90.85,73.71 91.97,73.86 93.09,73.97 94.22,74.06 98.75,74.39 103.29,74.55 107.83,74.66 L 107.83,74.74 107.83,74.74 Z M 107.83,74.74" />
        </g>
        <g id="fevvaSide4-group22">
            <path id="fevvaSide4-bezier21" stroke="none" fill="rgb(0, 0, 0)" d="M 98.06,66.97 C 96.45,66.8 94.76,66.77 93.11,66.6 91.45,66.42 89.79,66.21 88.15,65.75 87.35,65.5 86.51,65.25 85.78,64.59 85.61,64.41 85.45,64.2 85.36,63.93 85.31,63.81 85.28,63.64 85.27,63.53 85.27,63.43 85.25,63.33 85.25,63.22 85.23,62.79 85.23,62.36 85.26,61.93 85.34,61.08 85.49,60.22 85.86,59.42 86.05,59.02 86.28,58.64 86.62,58.33 86.95,58.04 87.4,57.84 87.83,57.89 L 87.83,57.96 C 87,58.11 86.58,58.88 86.34,59.61 86.11,60.36 86.01,61.16 86.01,61.97 85.99,62.37 86,62.77 86.03,63.17 L 86.05,63.47 C 86.05,63.58 86.06,63.61 86.08,63.69 86.12,63.82 86.21,63.95 86.32,64.07 86.8,64.58 87.58,64.91 88.34,65.17 89.88,65.69 91.52,65.98 93.15,66.23 94.8,66.5 96.43,66.61 98.1,66.9 L 98.06,66.97 Z M 98.06,66.97" />
        </g>
        <g id="fevvaSide4-group23">
            <path id="fevvaSide4-bezier22" stroke="none" fill="rgb(0, 0, 0)" d="M 93.66,57.59 C 91.88,57.49 90.08,57.11 88.43,56.28 87.62,55.87 86.79,55.34 86.25,54.53 85.71,53.74 85.44,52.75 85.58,51.84 L 85.66,51.84 C 85.93,52.7 86.31,53.45 86.85,54.08 87.38,54.71 87.99,55.29 88.73,55.75 89.46,56.21 90.27,56.57 91.1,56.85 91.93,57.14 92.79,57.37 93.67,57.52 L 93.66,57.59 Z M 93.66,57.59" />
        </g>
        <g id="fevvaSide4-group92">
            <path id="fevvaSide4-bezier91" stroke="none" fill="rgb(0, 0, 0)" d="M 176,26.61 C 178.18,26.81 180.35,27.15 182.47,27.72 183.53,28.02 184.58,28.37 185.58,28.88 186.55,29.39 187.59,30.05 188.04,31.24 L 188.24,31.75 187.68,31.64 C 185.73,31.25 183.7,31.38 181.69,31.54 180.68,31.62 179.68,31.77 178.68,31.92 177.68,32.09 176.66,32.24 175.71,32.55 L 175.67,32.49 C 176.58,31.97 177.58,31.7 178.57,31.42 179.57,31.15 180.59,30.97 181.61,30.81 183.65,30.54 185.77,30.53 187.82,31.03 L 187.46,31.43 C 187.17,30.51 186.25,29.83 185.34,29.32 184.41,28.8 183.39,28.42 182.36,28.09 180.3,27.43 178.15,26.99 176,26.68 L 176,26.61 Z M 176,26.61" />
        </g>
        <g id="fevvaSide4-group93">
            <path id="fevvaSide4-bezier92" stroke="none" fill="rgb(0, 0, 0)" d="M 173.99,32.11 C 173.04,31.86 172.09,31.56 171.24,30.99 171.04,30.84 170.84,30.67 170.7,30.42 170.55,30.22 170.51,29.79 170.74,29.56 171.17,29.13 171.71,29.07 172.2,28.98 173.21,28.85 174.22,28.89 175.2,29.07 175.7,29.16 176.17,29.31 176.56,29.21 176.97,29.15 176.97,28.56 176.73,28.14 L 176.77,28.11 C 176.94,28.3 177.08,28.53 177.12,28.81 177.17,29.09 176.97,29.43 176.68,29.54 176.12,29.76 175.59,29.58 175.13,29.56 174.17,29.45 173.2,29.31 172.25,29.38 171.79,29.42 171.27,29.5 170.99,29.78 170.71,30.04 171.03,30.53 171.39,30.8 172.15,31.38 173.08,31.75 174.01,32.06 L 173.99,32.11 Z M 173.99,32.11" />
        </g>
    </g>
</svg>
