<?xml version="1.0" encoding="UTF-8"?>
<!DOCTYPE svg PUBLIC "-//W3C//DTD SVG 1.1//EN" "http://www.w3.org/Graphics/SVG/1.1/DTD/svg11.dtd">
<svg version="1.1" xmlns="http://www.w3.org/2000/svg" xmlns:xlink="http://www.w3.org/1999/xlink" width="240" height="160"  xml:space="preserve" id="fevvaSide1">
    <!-- Generated by PaintCode - http://www.paintcodeapp.com -->
    <g id="fevvaSide1-group">
        <g id="fevvaSide1-group2">
            <path id="fevvaSide1-bezier" stroke="none" fill="rgb(0, 0, 0)" d="M 151.41,80.83 C 151.4,81.53 150.85,82.27 150.04,82.29 149.28,82.33 148.52,81.67 148.52,80.82 148.45,80.03 149.19,79.19 150.05,79.25 150.47,79.26 150.86,79.49 151.09,79.8 151.32,80.11 151.41,80.48 151.41,80.83 Z M 151.36,80.83 C 151.35,80.49 151.16,80.17 150.9,79.98 150.63,79.8 150.33,79.74 150.05,79.75 149.49,79.77 148.94,80.21 148.91,80.84 148.87,81.43 149.39,82.04 150.05,82.04 150.67,82.11 151.4,81.56 151.36,80.83 Z M 151.36,80.83" />
        </g>
        <g id="fevvaSide1-group94">
            <path id="fevvaSide1-bezier93" stroke="none" fill="rgb(0, 0, 0)" d="M 159.93,80.8 C 161.94,81.06 163.94,81.51 165.87,82.19 166.83,82.54 167.78,82.96 168.67,83.49 169.55,84.02 170.4,84.67 171.04,85.53 L 171.54,86.19 170.72,86 C 169.8,85.79 168.82,85.75 167.84,85.73 166.87,85.72 165.89,85.72 164.91,85.75 163.93,85.75 162.94,85.81 161.96,85.86 161.47,85.88 160.98,85.92 160.49,85.97 160.01,86.02 159.5,86.05 159.07,86.24 L 159.02,86.18 C 159.92,85.64 160.93,85.54 161.91,85.34 162.89,85.18 163.88,85.09 164.88,85 165.87,84.95 166.87,84.93 167.87,84.98 168.87,85.05 169.87,85.13 170.88,85.41 L 170.55,85.88 C 170.01,85.09 169.24,84.45 168.41,83.91 167.57,83.37 166.66,82.92 165.73,82.54 163.87,81.78 161.91,81.23 159.92,80.87 L 159.93,80.8 Z M 159.93,80.8" />
        </g>
        <g id="fevvaSide1-group95">
            <path id="fevvaSide1-bezier94" stroke="none" fill="rgb(0, 0, 0)" d="M 157.73,86.25 C 156.82,86.13 155.91,85.95 155.02,85.68 154.58,85.53 154.14,85.35 153.73,85.09 153.52,84.96 153.31,84.81 153.14,84.59 153.06,84.48 152.98,84.35 152.93,84.21 152.91,84.13 152.9,84.08 152.88,83.96 152.88,83.89 152.87,83.86 152.88,83.77 152.97,83.04 153.55,82.75 153.97,82.53 154.44,82.32 154.91,82.22 155.38,82.16 156.32,82.06 157.26,82.1 158.17,82.3 L 158.17,82.37 C 157.26,82.58 156.36,82.71 155.5,82.9 155.07,82.99 154.64,83.09 154.26,83.22 153.87,83.34 153.52,83.58 153.48,83.81 153.4,84.12 153.66,84.43 154,84.69 154.34,84.95 154.74,85.15 155.15,85.32 155.98,85.68 156.85,85.96 157.74,86.17 L 157.73,86.25 Z M 157.73,86.25" />
        </g>
        <g id="fevvaSide1-group96">
            <path id="fevvaSide1-bezier95" stroke="none" fill="rgb(0, 0, 0)" d="M 158.15,79.88 C 157.24,79.23 156.16,78.84 155.11,78.49 154.04,78.16 152.94,77.9 151.84,77.69 149.64,77.27 147.4,77.03 145.16,76.88 142.92,76.74 140.67,76.75 138.43,76.69 136.18,76.61 133.93,76.61 131.67,76.49 L 131.67,76.42 C 133.91,76.1 136.17,75.99 138.43,75.94 140.7,75.9 142.96,76.06 145.21,76.29 147.46,76.5 149.71,76.82 151.92,77.33 153.02,77.59 154.11,77.89 155.18,78.28 156.24,78.68 157.3,79.11 158.2,79.83 L 158.15,79.88 Z M 158.15,79.88" />
        </g>
        <g id="fevvaSide1-group97">
            <path id="fevvaSide1-bezier96" stroke="none" fill="rgb(0, 0, 0)" d="M 130.45,83.53 C 129.41,78.45 128.67,73.28 128.72,68.07 128.75,66.77 128.83,65.47 129.04,64.18 129.25,62.89 129.58,61.6 130.2,60.43 130.52,59.86 130.92,59.3 131.45,58.88 131.97,58.47 132.42,58.06 132.81,57.55 133.59,56.56 133.85,55.24 133.56,54.02 133.29,52.79 132.62,51.66 131.85,50.65 131.07,49.63 130.17,48.71 129.21,47.85 127.29,46.12 125.17,44.63 122.98,43.27 120.78,41.92 118.46,40.75 116.16,39.58 113.84,38.41 111.51,37.28 109.17,36.17 104.48,33.95 99.76,31.8 95.02,29.7 90.28,27.59 85.52,25.53 80.72,23.6 78.32,22.62 75.91,21.66 73.46,20.85 72.85,20.65 72.23,20.47 71.61,20.31 71.31,20.24 71,20.17 70.69,20.14 70.4,20.1 70.05,20.13 70.16,20.19 70.14,20.28 70.3,20.61 70.5,20.81 70.69,21.03 70.93,21.24 71.17,21.44 71.66,21.85 72.19,22.21 72.73,22.56 74.9,23.95 77.21,25.13 79.53,26.28 81.85,27.44 84.19,28.55 86.56,29.61 L 86.53,29.68 C 81.74,27.7 76.95,25.66 72.47,22.97 71.92,22.62 71.37,22.26 70.85,21.84 70.59,21.64 70.33,21.42 70.1,21.16 69.98,21.03 69.87,20.89 69.78,20.72 69.69,20.54 69.59,20.38 69.63,20.06 69.65,20 69.63,20.02 69.68,19.89 69.72,19.8 69.79,19.73 69.86,19.69 70,19.6 70.1,19.59 70.21,19.57 70.41,19.55 70.58,19.56 70.76,19.58 71.1,19.61 71.43,19.67 71.75,19.75 72.39,19.89 73.02,20.07 73.65,20.26 76.14,21.04 78.57,21.96 81,22.9 90.64,26.78 100.08,31.1 109.43,35.63 111.76,36.76 114.09,37.91 116.41,39.09 118.71,40.28 121.03,41.47 123.24,42.86 125.44,44.24 127.57,45.76 129.51,47.52 130.47,48.41 131.38,49.35 132.17,50.4 132.95,51.45 133.65,52.62 133.93,53.93 134.24,55.24 133.93,56.7 133.08,57.75 132.68,58.28 132.16,58.74 131.65,59.12 131.16,59.51 130.78,60.02 130.47,60.57 129.86,61.69 129.52,62.95 129.3,64.22 129.08,65.49 128.99,66.78 128.95,68.07 128.85,73.25 129.53,78.43 130.52,83.51 L 130.45,83.53 Z M 130.45,83.53" />
        </g>
        <g id="fevvaSide1-group98">
            <path id="fevvaSide1-bezier97" stroke="none" fill="rgb(0, 0, 0)" d="M 92.92,31.81 C 85.53,30.27 78.17,28.6 70.85,26.77 67.19,25.84 63.54,24.87 59.92,23.8 56.3,22.72 52.68,21.61 49.2,20.07 48.34,19.67 47.48,19.25 46.67,18.69 46.32,18.46 45.92,18.32 45.55,18.36 45.18,18.4 44.99,18.6 45.01,18.95 45.09,19.69 45.75,20.45 46.39,21.06 47.05,21.68 47.79,22.23 48.58,22.73 51.73,24.71 55.23,26.16 58.75,27.45 65.8,30.05 73.15,31.8 80.55,33.23 L 80.54,33.31 C 73.06,32.3 65.65,30.65 58.49,28.16 54.94,26.85 51.42,25.39 48.18,23.35 47.38,22.83 46.6,22.24 45.9,21.57 45.55,21.23 45.22,20.86 44.93,20.45 44.65,20.03 44.38,19.57 44.34,18.98 44.32,18.68 44.41,18.33 44.65,18.08 44.89,17.83 45.21,17.73 45.49,17.7 46.07,17.66 46.6,17.88 47.03,18.17 47.78,18.7 48.61,19.12 49.45,19.52 52.86,21.07 56.46,22.22 60.06,23.34 63.66,24.44 67.29,25.44 70.94,26.4 78.23,28.33 85.57,30.09 92.93,31.73 L 92.92,31.81 Z M 92.92,31.81" />
        </g>
        <g id="fevvaSide1-group99">
            <path id="fevvaSide1-bezier98" stroke="none" fill="rgb(0, 0, 0)" d="M 86.17,35.18 C 78.2,34.43 70.24,33.58 62.29,32.58 58.32,32.06 54.35,31.52 50.4,30.87 48.42,30.54 46.45,30.19 44.48,29.78 43.5,29.57 42.52,29.35 41.55,29.08 40.57,28.81 39.64,28.55 38.67,28.46 38.19,28.42 37.7,28.41 37.25,28.48 36.8,28.55 36.35,28.73 36.19,29.02 36.02,29.29 36.14,29.72 36.39,30.09 36.63,30.47 36.97,30.82 37.33,31.14 38.79,32.41 40.57,33.34 42.36,34.17 45.97,35.84 49.78,37.05 53.63,38.09 61.32,40.26 69.22,41.59 77.13,42.83 L 77.12,42.9 C 75.13,42.69 73.14,42.46 71.15,42.21 69.17,41.93 67.19,41.62 65.21,41.29 61.26,40.61 57.33,39.81 53.44,38.81 49.56,37.76 45.72,36.54 42.05,34.85 40.23,33.97 38.43,33.02 36.87,31.64 36.49,31.29 36.13,30.91 35.84,30.44 35.56,30 35.28,29.33 35.64,28.69 36.02,28.1 36.64,27.96 37.15,27.87 37.69,27.79 38.21,27.81 38.72,27.86 46.54,29.9 54.4,31.1 62.34,32.2 70.27,33.3 78.22,34.25 86.18,35.11 L 86.17,35.18 Z M 86.17,35.18" />
        </g>
        <g id="fevvaSide1-group100">
            <path id="fevvaSide1-bezier99" stroke="none" fill="rgb(0, 0, 0)" d="M 51.29,40.4 C 49.17,39.89 47.1,39.19 44.98,38.73 44.45,38.61 43.91,38.51 43.38,38.44 42.85,38.39 42.29,38.33 41.83,38.49 41.34,38.63 41.61,39.22 41.91,39.63 42.21,40.06 42.58,40.45 42.96,40.83 46,43.96 49.98,45.89 54.06,47.31 58.16,48.73 62.41,49.64 66.67,50.49 70.93,51.35 75.24,51.93 79.55,52.61 L 79.54,52.68 C 75.19,52.43 70.84,51.96 66.53,51.22 62.23,50.47 57.97,49.39 53.86,47.87 51.8,47.12 49.78,46.24 47.88,45.14 45.95,44.06 44.23,42.65 42.7,41.09 42.31,40.69 41.94,40.29 41.63,39.82 41.47,39.58 41.32,39.33 41.26,39.02 41.23,38.87 41.23,38.68 41.32,38.52 41.42,38.35 41.58,38.26 41.72,38.21 42.31,38.03 42.87,38.12 43.41,38.18 43.96,38.26 44.49,38.38 45.02,38.51 47.15,39.02 49.2,39.77 51.3,40.33 L 51.29,40.4 Z M 51.29,40.4" />
        </g>
        <g id="fevvaSide1-group101">
            <path id="fevvaSide1-bezier100" stroke="none" fill="rgb(0, 0, 0)" d="M 59.2,51.71 C 58.54,52.16 57.74,52.42 57.28,53.01 57.04,53.31 57.08,53.66 57.33,53.94 57.56,54.21 57.88,54.43 58.21,54.62 59.56,55.38 61.08,55.84 62.58,56.28 64.09,56.71 65.63,57.04 67.15,57.47 68.66,57.91 70.18,58.32 71.68,58.86 L 71.66,58.93 C 70.07,58.81 68.52,58.51 66.97,58.19 65.42,57.86 63.9,57.37 62.4,56.86 60.9,56.33 59.39,55.8 58.01,54.94 57.68,54.71 57.34,54.47 57.09,54.12 56.96,53.94 56.86,53.73 56.86,53.49 56.85,53.26 56.96,53.04 57.1,52.87 57.67,52.24 58.49,52.05 59.15,51.65 L 59.2,51.71 Z M 59.2,51.71" />
        </g>
        <g id="fevvaSide1-group102">
            <path id="fevvaSide1-bezier101" stroke="none" fill="rgb(0, 0, 0)" d="M 61.1,57.92 C 60.75,58.38 60.56,58.96 60.64,59.52 60.72,60.07 61.05,60.56 61.45,60.95 62.27,61.74 63.33,62.25 64.39,62.67 65.48,63.09 66.6,63.37 67.71,63.73 68.82,64.09 69.94,64.43 71.06,64.86 L 71.04,64.93 C 69.85,64.9 68.67,64.72 67.51,64.45 66.35,64.18 65.24,63.73 64.16,63.22 63.08,62.71 62.01,62.12 61.18,61.2 60.78,60.74 60.46,60.17 60.42,59.54 60.38,58.91 60.65,58.31 61.04,57.87 L 61.1,57.92 Z M 61.1,57.92" />
        </g>
        <g id="fevvaSide1-group103">
            <path id="fevvaSide1-bezier102" stroke="none" fill="rgb(0, 0, 0)" d="M 65.21,65.54 C 64.89,66.28 64.65,67.11 64.9,67.88 65.15,68.64 65.79,69.2 66.47,69.61 67.88,70.41 69.48,70.81 71.07,71.14 72.65,71.48 74.3,71.59 75.91,72.01 77.52,72.4 79.08,72.97 80.58,73.69 83.54,75.12 86.37,77.1 88.23,79.95 89.13,81.36 89.78,83.01 89.77,84.72 89.78,86.44 89.05,88.08 87.95,89.29 L 87.89,89.25 C 88.83,87.91 89.35,86.31 89.25,84.74 89.15,83.16 88.51,81.66 87.61,80.36 85.79,77.75 83.17,75.7 80.31,74.22 78.87,73.49 77.35,72.9 75.79,72.48 74.24,72.03 72.6,71.89 70.99,71.5 69.39,71.12 67.78,70.67 66.36,69.8 65.67,69.36 65,68.75 64.76,67.92 64.52,67.09 64.8,66.24 65.14,65.51 L 65.21,65.54 Z M 65.21,65.54" />
        </g>
        <g id="fevvaSide1-group104">
            <path id="fevvaSide1-bezier103" stroke="none" fill="rgb(0, 0, 0)" d="M 86.69,84.3 C 80.19,88.34 73.5,92.07 66.59,95.37 63.13,97.02 59.63,98.6 55.97,99.8 52.33,100.95 48.53,102 44.67,101.81 L 44.67,101.73 C 48.49,101.49 52.15,100.36 55.73,99.09 59.31,97.81 62.86,96.4 66.33,94.83 69.81,93.25 73.24,91.56 76.62,89.78 80.01,88.01 83.36,86.18 86.65,84.24 L 86.69,84.3 Z M 86.69,84.3" />
        </g>
        <g id="fevvaSide1-group105">
            <path id="fevvaSide1-bezier104" stroke="none" fill="rgb(0, 0, 0)" d="M 62.67,94.31 C 56.58,94.43 50.49,94.51 44.4,94.51 41.36,94.51 38.31,94.54 35.26,94.38 33.73,94.26 32.23,94.23 30.67,93.91 29.97,93.69 29.23,93.67 28.67,94.11 28.11,94.53 27.81,95.29 27.71,96.02 L 27.64,96.02 C 27.66,95.26 27.85,94.44 28.45,93.85 29.07,93.25 30.04,93.22 30.79,93.4 32.23,93.59 33.78,93.6 35.29,93.63 L 44.41,93.91 62.67,94.23 62.67,94.31 Z M 62.67,94.31" />
        </g>
        <g id="fevvaSide1-group106">
            <path id="fevvaSide1-bezier105" stroke="none" fill="rgb(0, 0, 0)" d="M 49.68,97.31 C 44.71,98.41 39.73,99.43 34.7,100.28 33.45,100.49 32.19,100.69 30.92,100.86 30.29,100.93 29.65,101 29,101.04 28.68,101.05 28.35,101.06 28.02,101.05 27.67,101.04 27.35,100.99 27.09,101 26.52,101.01 25.96,101.17 25.51,101.5 25.05,101.84 24.73,102.34 24.57,102.9 24.22,104.02 24.69,105.34 25.69,106.11 L 25.65,106.18 C 25.09,105.87 24.61,105.38 24.31,104.77 24.02,104.16 23.93,103.46 24.06,102.78 24.18,102.09 24.56,101.45 25.11,101 25.66,100.54 26.36,100.3 27.06,100.25 27.44,100.23 27.75,100.28 28.04,100.29 28.34,100.29 28.65,100.28 28.96,100.26 29.58,100.23 30.21,100.18 30.84,100.12 32.1,100 33.36,99.85 34.62,99.68 39.64,98.97 44.66,98.12 49.67,97.23 L 49.68,97.31 Z M 49.68,97.31" />
        </g>
        <g id="fevvaSide1-group107">
            <path id="fevvaSide1-bezier106" stroke="none" fill="rgb(0, 0, 0)" d="M 40.42,97.31 C 37.18,97.5 33.93,97.66 30.67,97.74 L 28.23,97.79 C 27.42,97.78 26.56,97.79 25.76,97.6 25.1,97.49 24.26,97.69 23.78,98.15 23.22,98.61 23.66,99.46 24.25,99.99 L 24.21,100.05 C 23.85,99.84 23.51,99.59 23.27,99.19 23.02,98.8 23.06,98.19 23.38,97.82 23.67,97.42 24.09,97.2 24.5,97.05 24.93,96.9 25.37,96.82 25.86,96.86 26.64,97.01 27.43,96.99 28.24,97.05 L 30.67,97.14 C 33.92,97.2 37.17,97.21 40.42,97.23 L 40.42,97.31 Z M 40.42,97.31" />
        </g>
        <g id="fevvaSide1-group108">
            <path id="fevvaSide1-bezier107" stroke="none" fill="rgb(0, 0, 0)" d="M 65.69,102.8 C 60.92,105.77 55.86,108.29 50.59,110.3 47.96,111.29 45.27,112.19 42.49,112.73 39.71,113.23 36.85,113.52 34.05,113.18 L 34.05,113.11 C 36.86,113.01 39.62,112.62 42.33,111.99 45.05,111.38 47.75,110.65 50.39,109.73 53.03,108.81 55.62,107.75 58.17,106.57 60.71,105.4 63.22,104.14 65.65,102.74 L 65.69,102.8 Z M 65.69,102.8" />
        </g>
        <g id="fevvaSide1-group109">
            <path id="fevvaSide1-bezier108" stroke="none" fill="rgb(0, 0, 0)" d="M 49.68,105.31 C 44.57,106.48 39.44,107.58 34.27,108.49 32.98,108.72 31.68,108.94 30.38,109.13 29.08,109.3 27.76,109.47 26.4,109.39 25.79,109.35 25.12,109.37 24.73,109.64 24.37,109.85 24.65,110.45 25.1,110.86 25.99,111.7 27.27,112.16 28.55,112.36 L 28.54,112.43 C 27.23,112.44 25.86,112.12 24.75,111.25 24.48,111.02 24.21,110.77 24.05,110.39 23.98,110.2 23.92,109.98 23.97,109.74 24.01,109.5 24.15,109.29 24.32,109.14 25.02,108.62 25.76,108.66 26.43,108.64 27.7,108.69 28.99,108.52 30.29,108.39 31.58,108.25 32.88,108.08 34.18,107.9 39.35,107.12 44.51,106.2 49.66,105.23 L 49.68,105.31 Z M 49.68,105.31" />
        </g>
        <g id="fevvaSide1-group110">
            <path id="fevvaSide1-bezier109" stroke="none" fill="rgb(0, 0, 0)" d="M 62.67,106.73 C 67.16,106.52 71.65,106.41 76.14,106.43 78.39,106.43 80.64,106.43 82.89,106.63 85.12,106.88 87.41,107.06 89.52,107.94 L 89.5,108.01 C 87.31,107.56 85.07,107.49 82.84,107.38 L 76.13,107.03 C 71.65,106.87 67.16,106.81 62.67,106.81 L 62.67,106.73 Z M 62.67,106.73" />
        </g>
        <g id="fevvaSide1-group111">
            <path id="fevvaSide1-bezier110" stroke="none" fill="rgb(0, 0, 0)" d="M 84.81,107.94 C 87.71,109.34 90.88,110.1 94.06,110.49 97.24,110.87 100.48,110.8 103.64,110.34 106.82,109.88 109.93,109.04 112.9,107.86 115.88,106.68 118.73,105.2 121.52,103.6 124.3,102 127.02,100.28 129.73,98.56 132.46,96.85 135.19,95.13 137.99,93.52 140.8,91.94 143.68,90.44 146.71,89.3 149.73,88.15 152.94,87.35 156.17,87.36 L 156.17,87.43 C 152.96,87.62 149.86,88.56 146.91,89.78 143.95,91.02 141.12,92.54 138.36,94.17 135.58,95.77 132.86,97.48 130.13,99.18 127.38,100.87 124.63,102.55 121.81,104.12 119,105.69 116.11,107.16 113.08,108.31 110.06,109.47 106.91,110.29 103.7,110.71 100.49,111.12 97.23,111.14 94.03,110.71 90.84,110.27 87.67,109.46 84.78,108 L 84.81,107.94 Z M 84.81,107.94" />
        </g>
    </g>
</svg>
