<?xml version="1.0" encoding="UTF-8"?>
<!DOCTYPE svg PUBLIC "-//W3C//DTD SVG 1.1//EN" "http://www.w3.org/Graphics/SVG/1.1/DTD/svg11.dtd">
<svg version="1.1" xmlns="http://www.w3.org/2000/svg" xmlns:xlink="http://www.w3.org/1999/xlink" width="240" height="160"  xml:space="preserve" id="fevvaSide7">
    <!-- Generated by PaintCode - http://www.paintcodeapp.com -->
    <g id="fevvaSide7-group2">
        <g id="fevvaSide7-group112">
            <path id="fevvaSide7-bezier111" stroke="none" fill="rgb(0, 0, 0)" d="M 174.58,94.83 C 174.57,95.53 174.02,96.27 173.21,96.29 172.45,96.33 171.69,95.67 171.69,94.82 171.63,94.03 172.36,93.19 173.22,93.25 173.64,93.26 174.03,93.49 174.26,93.8 174.5,94.11 174.59,94.48 174.58,94.83 Z M 174.53,94.83 C 174.52,94.49 174.33,94.17 174.07,93.98 173.81,93.8 173.5,93.74 173.22,93.75 172.66,93.77 172.11,94.21 172.09,94.84 172.05,95.43 172.57,96.04 173.23,96.04 173.84,96.11 174.57,95.56 174.53,94.83 Z M 174.53,94.83" />
        </g>
        <g id="fevvaSide7-group113">
            <path id="fevvaSide7-bezier112" stroke="none" fill="rgb(0, 0, 0)" d="M 183.1,94.8 C 185.12,95.06 187.11,95.51 189.04,96.19 190,96.54 190.95,96.96 191.84,97.49 192.73,98.02 193.57,98.67 194.22,99.53 L 194.72,100.19 193.89,100 C 192.98,99.79 191.99,99.75 191.02,99.73 190.04,99.72 189.06,99.72 188.08,99.75 187.1,99.75 186.12,99.81 185.14,99.86 184.65,99.88 184.16,99.92 183.67,99.97 183.19,100.02 182.67,100.05 182.25,100.24 L 182.2,100.18 C 183.09,99.64 184.11,99.54 185.08,99.34 186.06,99.18 187.06,99.09 188.05,99 189.04,98.95 190.04,98.93 191.04,98.98 192.05,99.05 193.05,99.13 194.05,99.41 L 193.72,99.88 C 193.18,99.09 192.41,98.45 191.58,97.91 190.74,97.37 189.84,96.92 188.91,96.54 187.05,95.78 185.08,95.23 183.09,94.87 L 183.1,94.8 Z M 183.1,94.8" />
        </g>
        <g id="fevvaSide7-group114">
            <path id="fevvaSide7-bezier113" stroke="none" fill="rgb(0, 0, 0)" d="M 180.9,100.25 C 179.99,100.13 179.09,99.95 178.2,99.68 177.75,99.53 177.31,99.35 176.9,99.09 176.69,98.96 176.49,98.81 176.31,98.59 176.23,98.48 176.16,98.35 176.1,98.21 176.08,98.13 176.07,98.08 176.05,97.96 176.05,97.89 176.04,97.86 176.05,97.77 176.14,97.04 176.72,96.75 177.15,96.53 177.61,96.32 178.08,96.22 178.55,96.16 179.49,96.06 180.43,96.1 181.34,96.3 L 181.34,96.37 C 180.43,96.58 179.54,96.71 178.67,96.9 178.24,96.99 177.82,97.09 177.43,97.22 177.04,97.34 176.69,97.58 176.65,97.81 176.57,98.12 176.83,98.43 177.17,98.69 177.51,98.95 177.92,99.15 178.33,99.32 179.15,99.68 180.03,99.96 180.91,100.17 L 180.9,100.25 Z M 180.9,100.25" />
        </g>
        <g id="fevvaSide7-group115">
            <path id="fevvaSide7-bezier114" stroke="none" fill="rgb(0, 0, 0)" d="M 181.32,93.88 C 180.42,93.23 179.34,92.84 178.28,92.49 177.21,92.16 176.12,91.9 175.01,91.69 172.81,91.27 170.57,91.03 168.33,90.88 166.09,90.74 163.85,90.75 161.6,90.69 159.36,90.61 157.11,90.61 154.85,90.49 L 154.84,90.42 C 157.09,90.1 159.34,89.99 161.61,89.94 163.87,89.9 166.13,90.06 168.38,90.29 170.63,90.5 172.88,90.82 175.09,91.33 176.19,91.59 177.29,91.89 178.35,92.28 179.41,92.68 180.47,93.11 181.37,93.83 L 181.32,93.88 Z M 181.32,93.88" />
        </g>
        <g id="fevvaSide7-group116">
            <path id="fevvaSide7-bezier115" stroke="none" fill="rgb(0, 0, 0)" d="M 153.62,97.53 C 152.58,92.45 151.85,87.28 151.89,82.07 151.92,80.77 152,79.47 152.21,78.18 152.42,76.89 152.75,75.6 153.38,74.43 153.7,73.86 154.09,73.3 154.62,72.88 155.14,72.47 155.6,72.06 155.98,71.55 156.76,70.56 157.02,69.24 156.73,68.02 156.46,66.79 155.79,65.66 155.02,64.65 154.24,63.63 153.34,62.71 152.38,61.85 150.46,60.12 148.34,58.63 146.15,57.27 143.96,55.92 141.64,54.75 139.33,53.58 137.01,52.41 134.68,51.28 132.34,50.17 127.65,47.95 122.93,45.8 118.19,43.7 113.46,41.59 108.7,39.53 103.89,37.6 101.49,36.62 99.08,35.66 96.63,34.85 96.02,34.65 95.41,34.47 94.79,34.31 94.48,34.24 94.17,34.17 93.87,34.14 93.57,34.1 93.22,34.13 93.33,34.19 93.32,34.28 93.47,34.61 93.67,34.81 93.87,35.03 94.1,35.24 94.34,35.44 94.83,35.85 95.36,36.21 95.9,36.56 98.07,37.95 100.39,39.13 102.71,40.28 105.02,41.44 107.37,42.55 109.74,43.61 L 109.71,43.68 C 104.91,41.7 100.12,39.66 95.64,36.97 95.09,36.62 94.54,36.26 94.02,35.84 93.76,35.64 93.51,35.42 93.27,35.16 93.16,35.03 93.04,34.89 92.95,34.72 92.86,34.54 92.76,34.38 92.8,34.06 92.82,34 92.8,34.02 92.85,33.89 92.9,33.8 92.97,33.73 93.03,33.69 93.17,33.6 93.28,33.59 93.38,33.57 93.58,33.55 93.76,33.56 93.93,33.58 94.27,33.61 94.6,33.67 94.92,33.75 95.57,33.89 96.2,34.07 96.82,34.26 99.31,35.04 101.75,35.96 104.17,36.9 113.81,40.78 123.26,45.1 132.6,49.63 134.94,50.76 137.27,51.91 139.58,53.09 141.88,54.28 144.2,55.47 146.41,56.86 148.61,58.24 150.74,59.76 152.68,61.52 153.64,62.41 154.55,63.35 155.35,64.4 156.13,65.45 156.82,66.62 157.1,67.93 157.41,69.24 157.1,70.7 156.25,71.75 155.85,72.28 155.33,72.74 154.82,73.12 154.34,73.51 153.95,74.02 153.64,74.57 153.03,75.69 152.69,76.95 152.47,78.22 152.26,79.49 152.16,80.78 152.12,82.07 152.02,87.25 152.71,92.43 153.7,97.51 L 153.62,97.53 Z M 153.62,97.53" />
        </g>
        <g id="fevvaSide7-group117">
            <path id="fevvaSide7-bezier116" stroke="none" fill="rgb(0, 0, 0)" d="M 116.09,45.81 C 108.7,44.27 101.34,42.6 94.02,40.77 90.36,39.84 86.71,38.87 83.09,37.8 79.47,36.72 75.86,35.61 72.38,34.07 71.51,33.67 70.65,33.25 69.84,32.69 69.5,32.46 69.09,32.32 68.73,32.36 68.35,32.4 68.16,32.6 68.18,32.95 68.26,33.69 68.92,34.45 69.56,35.06 70.23,35.68 70.97,36.23 71.75,36.73 74.9,38.71 78.4,40.16 81.92,41.45 88.97,44.05 96.32,45.8 103.73,47.23 L 103.71,47.31 C 96.24,46.3 88.82,44.65 81.66,42.16 78.11,40.85 74.59,39.39 71.35,37.35 70.55,36.83 69.77,36.24 69.07,35.57 68.72,35.23 68.39,34.86 68.1,34.45 67.82,34.03 67.55,33.57 67.51,32.98 67.5,32.68 67.58,32.33 67.82,32.08 68.06,31.83 68.38,31.73 68.67,31.7 69.25,31.66 69.78,31.88 70.21,32.17 70.95,32.7 71.78,33.12 72.63,33.52 76.03,35.07 79.64,36.22 83.23,37.34 86.83,38.44 90.47,39.44 94.11,40.4 101.4,42.33 108.74,44.09 116.1,45.73 L 116.09,45.81 Z M 116.09,45.81" />
        </g>
        <g id="fevvaSide7-group118">
            <path id="fevvaSide7-bezier117" stroke="none" fill="rgb(0, 0, 0)" d="M 109.34,49.18 C 101.37,48.43 93.41,47.58 85.47,46.58 81.49,46.06 77.53,45.52 73.57,44.87 71.6,44.54 69.62,44.19 67.66,43.78 66.68,43.57 65.69,43.35 64.72,43.08 63.74,42.81 62.81,42.55 61.84,42.46 61.36,42.42 60.87,42.41 60.42,42.48 59.97,42.55 59.52,42.73 59.36,43.02 59.19,43.29 59.32,43.72 59.56,44.09 59.81,44.47 60.14,44.82 60.5,45.14 61.96,46.41 63.75,47.34 65.54,48.17 69.14,49.84 72.96,51.05 76.81,52.09 84.49,54.26 92.4,55.59 100.3,56.83 L 100.29,56.9 C 98.3,56.69 96.31,56.46 94.32,56.21 92.34,55.93 90.36,55.62 88.38,55.29 84.43,54.61 80.5,53.81 76.61,52.81 72.74,51.76 68.89,50.54 65.22,48.85 63.41,47.97 61.6,47.02 60.05,45.64 59.67,45.29 59.3,44.91 59.01,44.44 58.74,44 58.45,43.33 58.81,42.69 59.19,42.1 59.81,41.96 60.33,41.87 60.86,41.79 61.38,41.81 61.9,41.86 69.71,43.9 77.57,45.1 85.51,46.2 93.44,47.3 101.39,48.25 109.35,49.11 L 109.34,49.18 Z M 109.34,49.18" />
        </g>
        <g id="fevvaSide7-group119">
            <path id="fevvaSide7-bezier118" stroke="none" fill="rgb(0, 0, 0)" d="M 74.46,54.4 C 72.34,53.89 70.27,53.19 68.15,52.73 67.62,52.61 67.09,52.51 66.55,52.44 66.03,52.39 65.46,52.33 65,52.49 64.51,52.63 64.79,53.22 65.08,53.63 65.38,54.06 65.76,54.45 66.14,54.83 69.17,57.96 73.15,59.89 77.23,61.31 81.33,62.73 85.59,63.64 89.84,64.49 94.1,65.35 98.41,65.93 102.73,66.61 L 102.72,66.68 C 98.36,66.43 94.02,65.96 89.71,65.22 85.4,64.47 81.14,63.39 77.03,61.87 74.97,61.12 72.96,60.24 71.05,59.14 69.12,58.06 67.4,56.65 65.87,55.09 65.49,54.69 65.11,54.29 64.8,53.82 64.65,53.58 64.5,53.33 64.43,53.02 64.4,52.87 64.4,52.68 64.5,52.52 64.59,52.35 64.75,52.26 64.89,52.21 65.48,52.03 66.04,52.12 66.58,52.18 67.13,52.26 67.67,52.38 68.2,52.51 70.32,53.02 72.38,53.77 74.48,54.33 L 74.46,54.4 Z M 74.46,54.4" />
        </g>
        <g id="fevvaSide7-group120">
            <path id="fevvaSide7-bezier119" stroke="none" fill="rgb(0, 0, 0)" d="M 82.37,65.71 C 81.71,66.16 80.91,66.42 80.45,67.01 80.21,67.31 80.26,67.66 80.5,67.94 80.73,68.21 81.06,68.43 81.39,68.62 82.73,69.38 84.25,69.84 85.75,70.28 87.26,70.71 88.8,71.04 90.32,71.47 91.83,71.91 93.36,72.32 94.85,72.86 L 94.84,72.93 C 93.25,72.81 91.69,72.51 90.14,72.19 88.59,71.86 87.08,71.37 85.57,70.86 84.08,70.33 82.57,69.8 81.19,68.94 80.85,68.71 80.52,68.47 80.26,68.12 80.14,67.94 80.03,67.73 80.03,67.49 80.03,67.26 80.13,67.04 80.27,66.87 80.85,66.24 81.66,66.05 82.32,65.65 L 82.37,65.71 Z M 82.37,65.71" />
        </g>
        <g id="fevvaSide7-group121">
            <path id="fevvaSide7-bezier120" stroke="none" fill="rgb(0, 0, 0)" d="M 84.27,71.92 C 83.92,72.38 83.73,72.96 83.82,73.52 83.9,74.07 84.22,74.56 84.63,74.95 85.44,75.74 86.5,76.25 87.57,76.67 88.65,77.09 89.78,77.37 90.89,77.73 91.99,78.09 93.12,78.43 94.23,78.86 L 94.21,78.93 C 93.02,78.9 91.85,78.72 90.69,78.45 89.53,78.18 88.41,77.73 87.33,77.22 86.26,76.71 85.18,76.12 84.35,75.2 83.95,74.74 83.63,74.17 83.59,73.54 83.55,72.91 83.82,72.31 84.21,71.87 L 84.27,71.92 Z M 84.27,71.92" />
        </g>
        <g id="fevvaSide7-group122">
            <path id="fevvaSide7-bezier121" stroke="none" fill="rgb(0, 0, 0)" d="M 88.38,79.54 C 88.07,80.28 87.82,81.11 88.08,81.88 88.32,82.64 88.97,83.2 89.65,83.61 91.05,84.41 92.65,84.81 94.24,85.14 95.83,85.48 97.47,85.59 99.08,86.01 100.69,86.4 102.25,86.97 103.75,87.69 106.71,89.12 109.55,91.1 111.4,93.95 112.3,95.36 112.95,97.01 112.94,98.72 112.95,100.44 112.23,102.08 111.12,103.29 L 111.07,103.25 C 112.01,101.91 112.53,100.31 112.42,98.74 112.32,97.16 111.69,95.66 110.78,94.36 108.96,91.75 106.35,89.7 103.48,88.22 102.04,87.49 100.52,86.9 98.96,86.48 97.41,86.03 95.77,85.89 94.16,85.5 92.57,85.12 90.95,84.67 89.53,83.8 88.84,83.36 88.17,82.75 87.93,81.92 87.69,81.09 87.98,80.24 88.31,79.51 L 88.38,79.54 Z M 88.38,79.54" />
        </g>
        <g id="fevvaSide7-group123">
            <path id="fevvaSide7-bezier122" stroke="none" fill="rgb(0, 0, 0)" d="M 109.87,98.3 C 103.37,102.34 96.67,106.07 89.76,109.37 86.3,111.02 82.8,112.6 79.15,113.8 75.5,114.95 71.71,116 67.84,115.81 L 67.84,115.73 C 71.66,115.49 75.32,114.36 78.9,113.09 82.48,111.81 86.03,110.4 89.51,108.83 92.99,107.25 96.41,105.56 99.79,103.78 103.18,102.01 106.53,100.18 109.83,98.24 L 109.87,98.3 Z M 109.87,98.3" />
        </g>
        <g id="fevvaSide7-group124">
            <path id="fevvaSide7-bezier123" stroke="none" fill="rgb(0, 0, 0)" d="M 85.85,108.31 C 79.76,108.43 73.67,108.51 67.58,108.51 64.53,108.51 61.48,108.54 58.43,108.38 56.9,108.26 55.4,108.23 53.84,107.91 53.14,107.69 52.4,107.67 51.84,108.11 51.29,108.53 50.99,109.29 50.88,110.02 L 50.81,110.02 C 50.83,109.26 51.02,108.44 51.62,107.85 52.24,107.25 53.22,107.22 53.96,107.4 55.4,107.59 56.96,107.6 58.46,107.63 L 67.58,107.91 85.85,108.23 85.85,108.31 Z M 85.85,108.31" />
        </g>
        <g id="fevvaSide7-group125">
            <path id="fevvaSide7-bezier124" stroke="none" fill="rgb(0, 0, 0)" d="M 72.85,111.31 C 67.89,112.41 62.9,113.43 57.88,114.28 56.62,114.49 55.36,114.69 54.09,114.86 53.46,114.93 52.82,115 52.17,115.04 51.85,115.05 51.52,115.06 51.19,115.05 50.84,115.04 50.52,114.99 50.26,115 49.7,115.01 49.13,115.17 48.68,115.5 48.22,115.84 47.9,116.34 47.74,116.9 47.39,118.02 47.86,119.34 48.87,120.11 L 48.83,120.18 C 48.26,119.87 47.78,119.38 47.48,118.77 47.19,118.16 47.1,117.46 47.23,116.78 47.35,116.09 47.73,115.45 48.28,115 48.83,114.54 49.53,114.3 50.23,114.25 50.61,114.23 50.92,114.28 51.21,114.29 51.51,114.29 51.82,114.28 52.13,114.26 52.76,114.23 53.38,114.18 54.01,114.12 55.27,114 56.53,113.85 57.79,113.68 62.82,112.97 67.83,112.12 72.84,111.23 L 72.85,111.31 Z M 72.85,111.31" />
        </g>
        <g id="fevvaSide7-group126">
            <path id="fevvaSide7-bezier125" stroke="none" fill="rgb(0, 0, 0)" d="M 63.6,111.31 C 60.35,111.5 57.1,111.66 53.85,111.74 L 51.4,111.79 C 50.59,111.78 49.74,111.79 48.93,111.6 48.27,111.49 47.44,111.69 46.95,112.15 46.39,112.61 46.84,113.46 47.43,113.99 L 47.38,114.05 C 47.02,113.84 46.68,113.59 46.44,113.19 46.19,112.8 46.24,112.19 46.55,111.82 46.84,111.42 47.26,111.2 47.68,111.05 48.1,110.9 48.55,110.82 49.03,110.86 49.82,111.01 50.6,110.99 51.42,111.05 L 53.85,111.14 C 57.09,111.2 60.34,111.21 63.6,111.23 L 63.6,111.31 Z M 63.6,111.31" />
        </g>
        <g id="fevvaSide7-group127">
            <path id="fevvaSide7-bezier126" stroke="none" fill="rgb(0, 0, 0)" d="M 88.86,116.8 C 84.09,119.77 79.04,122.29 73.77,124.3 71.13,125.29 68.44,126.19 65.66,126.73 62.88,127.23 60.03,127.52 57.22,127.18 L 57.22,127.11 C 60.03,127.01 62.79,126.62 65.51,125.99 68.22,125.38 70.92,124.65 73.56,123.73 76.2,122.81 78.8,121.75 81.34,120.57 83.89,119.4 86.4,118.14 88.83,116.74 L 88.86,116.8 Z M 88.86,116.8" />
        </g>
        <g id="fevvaSide7-group128">
            <path id="fevvaSide7-bezier127" stroke="none" fill="rgb(0, 0, 0)" d="M 72.85,119.31 C 67.74,120.48 62.62,121.58 57.45,122.49 56.15,122.72 54.86,122.94 53.55,123.13 52.25,123.3 50.93,123.47 49.58,123.39 48.96,123.35 48.29,123.37 47.91,123.64 47.54,123.85 47.83,124.45 48.27,124.86 49.17,125.7 50.44,126.16 51.72,126.36 L 51.72,126.43 C 50.4,126.44 49.03,126.12 47.92,125.25 47.65,125.02 47.39,124.77 47.23,124.39 47.15,124.2 47.09,123.98 47.14,123.74 47.18,123.5 47.33,123.29 47.49,123.14 48.19,122.62 48.93,122.66 49.6,122.64 50.87,122.69 52.17,122.52 53.46,122.39 54.76,122.25 56.05,122.08 57.35,121.9 62.52,121.12 67.69,120.2 72.84,119.23 L 72.85,119.31 Z M 72.85,119.31" />
        </g>
        <g id="fevvaSide7-group129">
            <path id="fevvaSide7-bezier128" stroke="none" fill="rgb(0, 0, 0)" d="M 85.85,120.73 C 90.33,120.52 94.82,120.41 99.32,120.43 101.57,120.43 103.82,120.43 106.06,120.63 108.29,120.88 110.59,121.06 112.7,121.94 L 112.67,122.01 C 110.48,121.56 108.24,121.49 106.01,121.38 L 99.31,121.03 C 94.83,120.87 90.34,120.81 85.85,120.81 L 85.85,120.73 Z M 85.85,120.73" />
        </g>
        <g id="fevvaSide7-group130">
            <path id="fevvaSide7-bezier129" stroke="none" fill="rgb(0, 0, 0)" d="M 107.99,121.94 C 110.88,123.34 114.05,124.1 117.23,124.49 120.42,124.87 123.65,124.8 126.82,124.34 129.99,123.88 133.1,123.04 136.08,121.86 139.06,120.68 141.91,119.2 144.69,117.6 147.47,116 150.19,114.28 152.91,112.56 155.63,110.85 158.36,109.13 161.16,107.52 163.97,105.94 166.85,104.44 169.89,103.3 172.91,102.15 176.11,101.35 179.35,101.36 L 179.35,101.43 C 176.13,101.62 173.03,102.56 170.08,103.78 167.12,105.02 164.3,106.54 161.53,108.17 158.75,109.77 156.03,111.48 153.3,113.18 150.56,114.87 147.81,116.55 144.99,118.12 142.17,119.69 139.28,121.16 136.25,122.31 133.23,123.47 130.08,124.29 126.87,124.71 123.66,125.12 120.4,125.14 117.2,124.71 114.01,124.27 110.84,123.46 107.95,122 L 107.99,121.94 Z M 107.99,121.94" />
        </g>
    </g>
</svg>
