<?xml version="1.0" encoding="UTF-8"?>
<!DOCTYPE svg PUBLIC "-//W3C//DTD SVG 1.1//EN" "http://www.w3.org/Graphics/SVG/1.1/DTD/svg11.dtd">
<svg version="1.1" xmlns="http://www.w3.org/2000/svg" xmlns:xlink="http://www.w3.org/1999/xlink" width="181" height="133"  xml:space="preserve" id="cgBatterySelection">
    <!-- Generated by PaintCode - http://www.paintcodeapp.com -->
    <g id="cgBatterySelection-group17">
        <ellipse id="cgBatterySelection-oval4" stroke="rgb(71, 92, 113)" stroke-width="1" stroke-miterlimit="10" fill="none" cx="0" cy="-0" rx="8.05" ry="19.15"  transform="translate(167.3, 92.88) rotate(18.15)" />
        <path id="cgBatterySelection-bezier78" stroke="rgb(71, 92, 113)" stroke-width="1" stroke-miterlimit="10" fill="none" d="M 146.16,81.9 C 147.48,78.48 149.12,75.5 150.85,73.2 151.13,72.82 151.42,72.46 151.71,72.12" />
        <path id="cgBatterySelection-bezier79" stroke="rgb(71, 92, 113)" stroke-width="1" stroke-miterlimit="10" fill="none" d="M 143.83,90.23 C 144.05,88.97 144.34,87.67 144.7,86.35" />
        <path id="cgBatterySelection-bezier80" stroke="rgb(71, 92, 113)" stroke-width="1" stroke-miterlimit="10" fill="none" d="M 123.13,74.35 C 124.67,70.36 126.63,66.97 128.68,64.57" />
        <path id="cgBatterySelection-bezier81" stroke="rgb(71, 92, 113)" stroke-width="1" stroke-miterlimit="10" fill="none" d="M 120.8,82.68 C 121.02,81.42 121.31,80.12 121.67,78.8" />
        <path id="cgBatterySelection-bezier82" stroke="rgb(71, 92, 113)" stroke-width="1" stroke-miterlimit="10" fill="none" d="M 173.28,73.12 L 116.86,54.62 C 112.65,53.24 106.56,60.27 103.26,70.33 99.96,80.39 100.7,89.66 104.92,91.04 L 161.33,109.55" />
        <path id="cgBatterySelection-bezier83" stroke="rgb(71, 92, 113)" stroke-width="1" stroke-miterlimit="10" fill="none" d="M 170.16,88.28 L 168.68,87.13 C 167.71,86.81 166.3,88.44 165.54,90.76 164.78,93.08 164.95,95.21 165.93,95.53 L 167.79,95.49" />
        <ellipse id="cgBatterySelection-oval5" stroke="rgb(71, 92, 113)" stroke-width="1" stroke-miterlimit="10" fill="none" cx="0" cy="-0" rx="1.6" ry="3.8"  transform="translate(168.95, 92.22) rotate(18.15)" />
        <ellipse id="cgBatterySelection-oval6" stroke="rgb(71, 92, 113)" stroke-width="1" stroke-miterlimit="10" fill="none" cx="0" cy="-0" rx="7.05" ry="16.8"  transform="translate(167.3, 92.75) rotate(18.15)" />
        <path id="cgBatterySelection-bezier84" stroke="rgb(71, 92, 113)" stroke-width="1" stroke-miterlimit="10" fill="none" d="M 172.97,75.84 C 175.6,78.25 175.81,85.5 173.26,93.29 170.85,100.63 166.75,106.13 163.31,107.06" />
        <path id="cgBatterySelection-bezier85" stroke="rgb(71, 92, 113)" stroke-width="1" stroke-miterlimit="10" fill="none" d="M 128.68,64.57 L 151.71,72.12" />
        <path id="cgBatterySelection-bezier86" stroke="rgb(71, 92, 113)" stroke-width="1" stroke-miterlimit="10" fill="none" d="M 123.13,74.35 L 146.16,81.9" />
        <path id="cgBatterySelection-bezier87" stroke="rgb(71, 92, 113)" stroke-width="1" stroke-miterlimit="10" fill="none" d="M 121.67,78.8 L 144.7,86.35" />
        <path id="cgBatterySelection-bezier88" stroke="rgb(71, 92, 113)" stroke-width="1" stroke-miterlimit="10" fill="none" d="M 120.8,82.68 L 143.83,90.23" />
    </g>
    <g id="cgBatterySelection-group18">
        <ellipse id="cgBatterySelection-oval7" stroke="rgb(71, 92, 113)" stroke-width="1" stroke-miterlimit="10" fill="none" cx="0" cy="-0" rx="6.45" ry="4.6"  transform="translate(77.95, 125.78) rotate(0.9)" />
        <path id="cgBatterySelection-bezier89" stroke="rgb(71, 92, 113)" stroke-width="1" stroke-miterlimit="10" fill="none" d="M 71.64,117.04 C 71.66,115.84 72.31,114.77 73.37,113.96" />
        <path id="cgBatterySelection-bezier90" stroke="rgb(71, 92, 113)" stroke-width="1" stroke-miterlimit="10" fill="none" d="M 82.23,113.63 C 83.67,114.5 84.58,115.8 84.56,117.24" />
        <path id="cgBatterySelection-bezier91" stroke="rgb(71, 92, 113)" stroke-width="1" stroke-miterlimit="10" fill="none" d="M 73.37,113.96 C 74.56,113.05 76.28,112.5 78.17,112.53 79.72,112.55 81.13,112.97 82.23,113.63" />
        <path id="cgBatterySelection-bezier92" stroke="rgb(71, 92, 113)" stroke-width="1" stroke-miterlimit="10" fill="none" d="M 71.86,103.13 C 71.9,100.58 74.83,98.56 78.39,98.62 81.96,98.68 84.82,100.79 84.78,103.33" />
        <path id="cgBatterySelection-bezier93" stroke="rgb(71, 92, 113)" stroke-width="1" stroke-miterlimit="10" fill="none" d="M 84.42,125.89 L 84.97,91.81 C 85.01,89.27 82.15,87.16 78.58,87.1 75.01,87.04 72.08,89.06 72.05,91.6 L 71.5,125.68" />
        <path id="cgBatterySelection-bezier94" stroke="rgb(71, 92, 113)" stroke-width="1" stroke-miterlimit="10" fill="none" d="M 79.22,126.81 L 79.45,125.81 C 79.46,125.22 78.8,124.73 77.98,124.72 77.16,124.71 76.48,125.17 76.47,125.76 L 76.67,126.77" />
        <ellipse id="cgBatterySelection-oval8" stroke="rgb(71, 92, 113)" stroke-width="1" stroke-miterlimit="10" fill="none" cx="0" cy="-0" rx="1.3" ry="0.9"  transform="translate(77.95, 126.78) rotate(0.9)" />
        <ellipse id="cgBatterySelection-oval9" stroke="rgb(71, 92, 113)" stroke-width="0.5" stroke-miterlimit="10" fill="none" cx="0" cy="-0" rx="5.65" ry="4.05"  transform="translate(77.95, 125.83) rotate(0.9)" />
        <path id="cgBatterySelection-bezier95" stroke="rgb(71, 92, 113)" stroke-width="0.5" stroke-miterlimit="10" fill="none" d="M 83.51,126.19 C 82.99,128.05 80.66,129.43 77.9,129.38 75.3,129.34 73.13,128.05 72.5,126.33" />
    </g>
    <g id="cgBatterySelection-group19">
        <ellipse id="cgBatterySelection-oval10" stroke="rgb(71, 92, 113)" stroke-width="1" stroke-miterlimit="10" fill="none" cx="0" cy="-0" rx="4.2" ry="8.35"  transform="translate(52.6, 47.21) rotate(5.7)" />
        <path id="cgBatterySelection-bezier96" stroke="rgb(71, 92, 113)" stroke-width="1" stroke-miterlimit="10" fill="none" d="M 43.91,54.69 C 42.82,54.59 41.91,53.67 41.3,52.25" />
        <path id="cgBatterySelection-bezier97" stroke="rgb(71, 92, 113)" stroke-width="1" stroke-miterlimit="10" fill="none" d="M 42,40.82 C 42.95,39.02 44.24,37.95 45.56,38.08" />
        <path id="cgBatterySelection-bezier98" stroke="rgb(71, 92, 113)" stroke-width="1" stroke-miterlimit="10" fill="none" d="M 41.3,52.25 C 40.6,50.65 40.29,48.4 40.53,45.97 40.73,43.98 41.27,42.19 42,40.82" />
        <path id="cgBatterySelection-bezier99" stroke="rgb(71, 92, 113)" stroke-width="1" stroke-miterlimit="10" fill="none" d="M 31.23,53.43 C 28.91,53.21 27.4,49.3 27.86,44.71 28.31,40.12 30.56,36.59 32.88,36.82" />
        <path id="cgBatterySelection-bezier100" stroke="rgb(71, 92, 113)" stroke-width="1" stroke-miterlimit="10" fill="none" d="M 53.44,38.86 L 22.38,35.77 C 20.06,35.54 17.81,39.08 17.36,43.67 16.9,48.25 18.41,52.16 20.73,52.39 L 51.79,55.48" />
        <path id="cgBatterySelection-bezier101" stroke="rgb(71, 92, 113)" stroke-width="1" stroke-miterlimit="10" fill="none" d="M 53.7,45.61 L 52.8,45.25 C 52.27,45.2 51.75,46.01 51.64,47.07 51.54,48.13 51.89,49.03 52.42,49.08 L 53.37,48.9" />
        <ellipse id="cgBatterySelection-oval11" stroke="rgb(71, 92, 113)" stroke-width="1" stroke-miterlimit="10" fill="none" cx="0" cy="-0" rx="0.85" ry="1.65"  transform="translate(53.55, 47.25) rotate(5.65)" />
        <ellipse id="cgBatterySelection-oval12" stroke="rgb(71, 92, 113)" stroke-width="0.5" stroke-miterlimit="10" fill="none" cx="0" cy="-0" rx="3.7" ry="7.3"  transform="translate(52.6, 47.18) rotate(5.65)" />
        <path id="cgBatterySelection-bezier102" stroke="rgb(71, 92, 113)" stroke-width="0.5" stroke-miterlimit="10" fill="none" d="M 53.61,40.05 C 55.25,40.86 56.24,43.94 55.89,47.49 55.56,50.84 54.13,53.55 52.49,54.24" />
    </g>
    <g id="cgBatterySelection-group20">
        <ellipse id="cgBatterySelection-oval13" stroke="rgb(71, 92, 113)" stroke-width="1" stroke-miterlimit="10" fill="none" cx="0" cy="-0" rx="6.75" ry="4.7"  transform="translate(104.1, 49.56) rotate(36.3)" />
        <path id="cgBatterySelection-bezier103" stroke="rgb(71, 92, 113)" stroke-width="1" stroke-miterlimit="10" fill="none" d="M 103.87,40.09 C 104.59,39.11 105.78,38.62 107.15,38.59" />
        <path id="cgBatterySelection-bezier104" stroke="rgb(71, 92, 113)" stroke-width="1" stroke-miterlimit="10" fill="none" d="M 114.9,43.69 C 115.61,45.28 115.62,46.91 114.75,48.09" />
        <path id="cgBatterySelection-bezier105" stroke="rgb(71, 92, 113)" stroke-width="1" stroke-miterlimit="10" fill="none" d="M 107.15,38.59 C 108.7,38.57 110.49,39.15 112.08,40.32 113.39,41.28 114.35,42.47 114.9,43.69" />
        <path id="cgBatterySelection-bezier106" stroke="rgb(71, 92, 113)" stroke-width="1" stroke-miterlimit="10" fill="none" d="M 112.23,28.71 C 113.76,26.63 117.44,26.73 120.45,28.93 123.45,31.14 124.65,34.62 123.12,36.7" />
        <path id="cgBatterySelection-bezier107" stroke="rgb(71, 92, 113)" stroke-width="1" stroke-miterlimit="10" fill="none" d="M 109.55,55.16 L 130.04,27.28 C 131.57,25.19 130.38,21.71 127.38,19.51 124.37,17.3 120.69,17.2 119.16,19.28 L 98.67,47.17" />
        <path id="cgBatterySelection-bezier108" stroke="rgb(71, 92, 113)" stroke-width="1" stroke-miterlimit="10" fill="none" d="M 104.58,52.78 L 105.37,52.08 C 105.72,51.61 105.44,50.8 104.75,50.3 104.06,49.79 103.21,49.76 102.86,50.24 L 102.43,51.2" />
        <ellipse id="cgBatterySelection-oval14" stroke="rgb(71, 92, 113)" stroke-width="1" stroke-miterlimit="10" fill="none" cx="0" cy="-0" rx="1.35" ry="0.95"  transform="translate(103.5, 51.72) rotate(36.3)" />
        <ellipse id="cgBatterySelection-oval15" stroke="rgb(71, 92, 113)" stroke-width="0.5" stroke-miterlimit="10" fill="none" cx="0" cy="-0" rx="5.9" ry="4.1"  transform="translate(104.1, 49.77) rotate(36.3)" />
        <path id="cgBatterySelection-bezier109" stroke="rgb(71, 92, 113)" stroke-width="0.5" stroke-miterlimit="10" fill="none" d="M 108.6,54.86 C 107.06,56.08 104.28,55.82 101.95,54.11 99.76,52.5 98.67,50.11 99.14,48.31" />
    </g>
    <path id="cgBatterySelection-bezier110" stroke="rgb(71, 92, 113)" stroke-width="1" stroke-miterlimit="10" fill="none" d="M 65.66,76.03 L 43.91,60.7 1.29,83.34 C 1.29,83.34 0.42,83.93 0.42,84.8 0.42,85.67 0.42,86.57 0.42,87.09 0.42,87.6 0.68,88.06 1.4,88.79 2.14,89.52 20.72,104.23 21.04,104.47" />
    <path id="cgBatterySelection-bezier111" stroke="rgb(71, 92, 113)" stroke-width="1" stroke-miterlimit="10" fill="none" d="M 20.56,99.96 L 2.75,85.47" />
    <path id="cgBatterySelection-bezier112" stroke="rgb(71, 92, 113)" stroke-width="1" stroke-miterlimit="10" fill="none" d="M 28.38,103.12 C 28.38,103.12 52.69,89.66 53.35,89.16 54.01,88.66 54.53,88.29 54.53,87.81 54.53,87.34 54.53,87.08 54.53,85.63 54.53,84.18 54.16,83.97 53.85,83.68 53.53,83.39 52.19,82.34 51.4,81.78 50.61,81.23 50.77,80.7 51.27,80.36 51.77,80.02 55.8,77.83 57.14,76.99 58.48,76.15 59.32,76.7 59.48,76.8 59.64,76.91 60.56,77.59 61.48,78.25 62.41,78.91 62.85,79.1 63.56,78.54 64.27,77.99 65.66,76.94 65.66,76.94 65.93,76.74 66.85,75.89 66.85,77.29 66.85,78.69 66.85,80.12 66.85,80.67 66.85,81.22 66.5,81.32 65.75,81.78 65,82.23 64.5,82.53 64.13,82.8 63.75,83.08 62.59,83.18 62.17,82.92 61.76,82.67 61.07,83.02 60.65,83.34 60.24,83.65 55.1,87.1 55.1,87.1" />
    <path id="cgBatterySelection-bezier113" stroke="rgb(71, 92, 113)" stroke-width="1" stroke-miterlimit="10" fill="none" d="M 28.62,98.62 L 51.88,85.47" />
    <path id="cgBatterySelection-bezier114" stroke="rgb(71, 92, 113)" stroke-width="1" stroke-miterlimit="10" fill="none" d="M 26.54,103.43 C 26.54,103.43 27.46,103.95 27.46,102.82 27.46,101.69 27.46,100.4 27.46,100.06 27.46,99.71 26.94,99.29 26.17,98.9 25.41,98.5 24.83,98.42 23.46,99.37 22.09,100.32 21.88,100.5 21.88,102.22 21.88,103.93 21.88,104.4 21.88,104.72 21.88,105.03 22.3,105.22 22.98,104.72 23.67,104.22 24.91,103.27 25.12,103.12 25.33,102.98 26.07,103.16 26.54,103.43 Z M 26.54,103.43" />
    <path id="cgBatterySelection-bezier115" stroke="rgb(71, 92, 113)" stroke-width="1" stroke-miterlimit="10" fill="none" d="M 25.17,99.58 L 25.17,102.11" />
    <path id="cgBatterySelection-bezier116" stroke="rgb(71, 92, 113)" stroke-width="1" stroke-miterlimit="10" fill="none" d="M 62.77,82.35 L 62.77,79.62" />
    <path id="cgBatterySelection-bezier117" stroke="rgb(71, 92, 113)" stroke-width="2" stroke-linecap="round" stroke-miterlimit="10" fill="none" d="M 60.93,81.98 L 60.93,79.86 58.07,77.93" />
    <path id="cgBatterySelection-bezier118" stroke="rgb(71, 92, 113)" stroke-width="2" stroke-linecap="round" stroke-miterlimit="10" fill="none" d="M 59.27,83.01 L 59.27,80.9 56.41,78.96" />
    <path id="cgBatterySelection-bezier119" stroke="rgb(71, 92, 113)" stroke-width="2" stroke-linecap="round" stroke-miterlimit="10" fill="none" d="M 57.61,84.12 L 57.61,82.01 54.75,80.08" />
    <path id="cgBatterySelection-bezier120" stroke="rgb(71, 92, 113)" stroke-width="2" stroke-linecap="round" stroke-miterlimit="10" fill="none" d="M 55.85,85.23 L 55.85,83.12 52.99,81.18" />
    <path id="cgBatterySelection-bezier121" stroke="rgb(71, 92, 113)" stroke-width="1" stroke-miterlimit="10" fill="none" d="M 4.13,83.65 L 13.29,83.65" />
    <path id="cgBatterySelection-bezier122" stroke="rgb(71, 92, 113)" stroke-width="1" stroke-miterlimit="10" fill="none" d="M 43.91,62.16 L 42,68.56 54.42,77.49" />
    <path id="cgBatterySelection-bezier123" stroke="rgb(71, 92, 113)" stroke-width="1" stroke-miterlimit="10" fill="none" d="M 82.34,25.38 C 82.34,25.38 73.49,3.73 72.86,1.68 72.23,-0.37 70.7,-0.16 69.65,-0.01 69.65,-0.01 59.54,1.89 58.69,2.05 57.85,2.21 56.37,2.52 56.64,6.84 56.9,11.16 57.85,21.74 57.85,21.74 L 65.8,44.76" />
    <path id="cgBatterySelection-bezier124" stroke="rgb(71, 92, 113)" stroke-width="1" stroke-miterlimit="10" fill="none" d="M 70.01,49.6 C 68.33,49.71 66.75,49.55 66.7,47.26 66.64,44.97 66.03,33.24 65.96,31.86 65.86,29.97 65.52,28.75 67.8,28.23 70.21,27.69 78.92,26.38 80.39,26.27 81.87,26.17 83.18,26.17 83.18,28.38 83.18,30.59 83.76,43.34 83.71,44.49 83.66,45.65 83.81,47.67 81.5,48.09 79.18,48.5 70.01,49.6 70.01,49.6 Z M 70.01,49.6" />
    <path id="cgBatterySelection-bezier125" stroke="rgb(71, 92, 113)" stroke-width="1" stroke-miterlimit="10" fill="none" d="M 74.2,47.47 C 72.29,47.71 70.71,47.9 70.71,47.9 69.27,47.99 67.93,47.85 67.88,45.9 67.83,43.94 67.31,33.92 67.25,32.75 67.16,31.13 66.88,30.09 68.82,29.65 70.88,29.19 78.31,28.07 79.57,27.98 80.83,27.89 81.95,27.89 81.95,29.77 81.95,31.66 82.45,42.55 82.4,43.53 82.36,44.52 82.49,46.25 80.52,46.6 80.07,46.68 79.33,46.79 78.44,46.91" />
    <ellipse id="cgBatterySelection-oval16" stroke="rgb(71, 92, 113)" stroke-width="0.5" stroke-miterlimit="10" fill="none" cx="0" cy="-0" rx="3.6" ry="2.7"  transform="translate(75.45, 34.85) rotate(-11.35)" />
    <ellipse id="cgBatterySelection-oval17" stroke="rgb(71, 92, 113)" stroke-width="0.5" stroke-miterlimit="10" fill="none" cx="0" cy="-0" rx="3" ry="2.25"  transform="translate(76.15, 45.15) rotate(-11.35)" />
    <path id="cgBatterySelection-bezier126" stroke="rgb(71, 92, 113)" stroke-width="0.5" stroke-miterlimit="10" fill="none" d="M 72.97,44.95 C 72.94,44.86 72.91,44.77 72.9,44.68 72.65,43.46 73.77,42.22 75.38,41.89 77,41.57 78.5,42.29 78.75,43.51" />
    <path id="cgBatterySelection-bezier127" stroke="rgb(71, 92, 113)" stroke-width="0.5" stroke-miterlimit="10" fill="none" d="M 78.67,33.91 C 78.58,35.19 77.33,36.38 75.62,36.73 74.3,36.99 73.04,36.68 72.27,35.99" />
    <ellipse id="cgBatterySelection-oval18" stroke="rgb(71, 92, 113)" stroke-width="0.5" stroke-miterlimit="10" fill="none" cx="0" cy="-0" rx="4.4" ry="3.3"  transform="translate(75.45, 34.85) rotate(-11.35)" />
    <g id="cgBatterySelection-group21">
        <path id="cgBatterySelection-bezier128" stroke="rgb(71, 92, 113)" stroke-width="0.75" stroke-miterlimit="10" fill="none" d="M 72.14,36.25 C 72.04,36.07 71.97,35.88 71.93,35.68 71.81,35.08 71.96,34.48 72.32,33.95" />
        <path id="cgBatterySelection-bezier129" stroke="rgb(71, 92, 113)" stroke-width="0.75" stroke-miterlimit="10" fill="none" d="M 76.49,37.5 C 76.33,37.55 76.17,37.59 76,37.63 75.32,37.76 74.65,37.75 74.06,37.6" />
        <path id="cgBatterySelection-bezier130" stroke="rgb(71, 92, 113)" stroke-width="0.75" stroke-miterlimit="10" fill="none" d="M 78.8,33.69 C 78.89,33.87 78.96,34.06 79.01,34.26 79.12,34.86 78.97,35.46 78.62,35.99" />
        <path id="cgBatterySelection-bezier131" stroke="rgb(71, 92, 113)" stroke-width="0.75" stroke-miterlimit="10" fill="none" d="M 74.44,32.44 C 74.6,32.39 74.76,32.34 74.93,32.31 75.62,32.17 76.29,32.19 76.88,32.34" />
        <path id="cgBatterySelection-bezier132" stroke="rgb(71, 92, 113)" stroke-width="0.75" stroke-miterlimit="10" fill="none" d="M 74.22,31.88 C 74.41,31.82 74.61,31.77 74.82,31.73 75.65,31.56 76.47,31.59 77.19,31.76" />
        <path id="cgBatterySelection-bezier133" stroke="rgb(71, 92, 113)" stroke-width="0.75" stroke-miterlimit="10" fill="none" d="M 71.41,36.53 C 71.29,36.32 71.21,36.08 71.16,35.83 71.01,35.11 71.2,34.37 71.63,33.72" />
        <path id="cgBatterySelection-bezier134" stroke="rgb(71, 92, 113)" stroke-width="0.75" stroke-miterlimit="10" fill="none" d="M 76.74,38.05 C 76.54,38.11 76.33,38.16 76.12,38.21 75.28,38.38 74.46,38.35 73.73,38.17" />
        <path id="cgBatterySelection-bezier135" stroke="rgb(71, 92, 113)" stroke-width="0.75" stroke-miterlimit="10" fill="none" d="M 79.53,33.41 C 79.64,33.62 79.73,33.86 79.78,34.1 79.92,34.83 79.74,35.57 79.31,36.22" />
    </g>
    <path id="cgBatterySelection-bezier136" stroke="rgb(71, 92, 113)" stroke-width="0.5" stroke-miterlimit="10" fill="none" d="M 70.87,34.8 C 70.79,33.13 72.36,31.52 74.57,31.07 76.49,30.69 78.3,31.3 79.12,32.48" />
    <ellipse id="cgBatterySelection-oval19" stroke="rgb(71, 92, 113)" stroke-width="0.5" stroke-miterlimit="10" fill="none" cx="0" cy="-0" rx="2.25" ry="1.7"  transform="translate(76.15, 45.15) rotate(-11.35)" />
    <path id="cgBatterySelection-bezier137" stroke="rgb(71, 92, 113)" stroke-width="0.5" stroke-miterlimit="10" fill="none" d="M 73.33,46.63 C 72.35,46.22 71.64,45.49 71.45,44.55 71.1,42.79 72.73,40.98 75.1,40.5 77.47,40.03 79.68,41.07 80.03,42.83 80.19,43.63 79.94,44.44 79.41,45.13" />
    <path id="cgBatterySelection-bezier138" stroke="rgb(71, 92, 113)" stroke-width="0.5" stroke-miterlimit="10" fill="none" d="M 57.69,5.92 L 65.27,27.21" />
</svg>
