<?xml version="1.0" encoding="UTF-8"?>
<!DOCTYPE svg PUBLIC "-//W3C//DTD SVG 1.1//EN" "http://www.w3.org/Graphics/SVG/1.1/DTD/svg11.dtd">
<svg version="1.1" xmlns="http://www.w3.org/2000/svg" xmlns:xlink="http://www.w3.org/1999/xlink" width="221" height="200"  xml:space="preserve" id="cgDrawnPhysicalCircuit">
    <!-- Generated by PaintCode - http://www.paintcodeapp.com -->
    <path id="cgDrawnPhysicalCircuit-bezier2" stroke="rgb(47, 104, 135)" stroke-width="1" stroke-miterlimit="10" fill="none" d="M 20.34,121.72 L 0.46,126.59 21.33,168.93 62.31,157.49 38.76,117.38" />
    <path id="cgDrawnPhysicalCircuit-bezier3" stroke="rgb(47, 104, 135)" stroke-width="1" stroke-miterlimit="10" fill="none" d="M 0.46,126.59 L 4.33,158.1 C 4.33,158.1 20.17,176.43 21.83,192.93 L 25.17,199.76 30.83,198.76 C 30.83,198.76 34.59,189.04 44.46,187.14 53.65,185.37 56.99,187.17 59.16,189.97 61.87,189.22 64.05,188.47 64.05,188.47 L 62.54,157.78" />
    <path id="cgDrawnPhysicalCircuit-bezier4" stroke="rgb(47, 104, 135)" stroke-width="1" stroke-miterlimit="10" fill="none" d="M 21.33,168.93 L 25.17,199.76" />
    <path id="cgDrawnPhysicalCircuit-bezier5" stroke="rgb(47, 104, 135)" stroke-width="1" stroke-miterlimit="10" fill="none" d="M 19.53,116.5 L 20.78,127.97 C 20.78,127.97 21.4,129.1 23.09,128.91" />
    <path id="cgDrawnPhysicalCircuit-bezier6" stroke="rgb(47, 104, 135)" stroke-width="1" stroke-miterlimit="10" fill="none" d="M 20.47,126.79 C 20.47,126.79 18.72,127.6 19.65,129.34 20.59,131.09 22.44,131.16 23.62,130.6" />
    <path id="cgDrawnPhysicalCircuit-bezier7" stroke="rgb(47, 104, 135)" stroke-width="1" stroke-miterlimit="10" fill="none" d="M 19.16,127.85 C 19.16,127.85 18.03,127.91 18.03,128.66 18.03,129.41 18.03,130.4 18.03,130.4 18.03,130.4 19.78,133.77 23.89,132.71" />
    <path id="cgDrawnPhysicalCircuit-bezier8" stroke="rgb(47, 104, 135)" stroke-width="1" stroke-miterlimit="10" fill="none" d="M 26.72,143.1 L 33.03,141.26" />
    <path id="cgDrawnPhysicalCircuit-bezier9" stroke="rgb(47, 104, 135)" stroke-width="1" stroke-miterlimit="10" fill="none" d="M 30.53,141.99 L 33.51,146.86" />
    <path id="cgDrawnPhysicalCircuit-bezier10" stroke="rgb(47, 104, 135)" stroke-width="1" stroke-miterlimit="10" fill="none" d="M 24.38,77.35 C 24.38,77.35 25.62,77.35 25.69,78.66 25.75,79.97 26.88,96.53 26.88,96.53" />
    <path id="cgDrawnPhysicalCircuit-bezier11" stroke="rgb(47, 104, 135)" stroke-width="1" stroke-miterlimit="10" fill="none" d="M 20.19,77.35 C 20.19,77.35 18.64,77.03 17.69,78.28 L 14.25,82.78 C 14.25,82.78 13.75,83.03 13.94,84.72 14.12,86.41 14.13,86.41 14.13,86.41 14.13,86.41 14.88,86.91 14.94,87.29 15,87.66 14.73,88.01 14.25,88.35 14.13,89.85 15.06,100.72 15.06,100.72 15.06,100.72 15.44,102.54 16.31,103.79 16.5,105.41 17.13,115.04 17.13,115.04 17.13,115.04 17.19,116.59 21.56,116.5" />
    <path id="cgDrawnPhysicalCircuit-bezier12" stroke="rgb(47, 104, 135)" stroke-width="1" stroke-miterlimit="10" fill="none" d="M 20.06,78.47 C 20.06,78.47 19.25,78.1 18.44,79.16 17.63,80.22 16.06,82.35 16.06,82.35 16.06,82.35 15.56,83.85 18.06,84.47 20.56,85.1 21.25,84.35 22,83.47 22.75,82.6 24.38,79.85 24.38,79.85 24.38,79.85 24.94,79.16 24.19,78.6" />
    <path id="cgDrawnPhysicalCircuit-bezier13" stroke="rgb(47, 104, 135)" stroke-width="1" stroke-miterlimit="10" fill="none" d="M 20.32,84.24 C 20.32,84.24 17.83,68.35 29.5,48.01 41.17,27.68 71.25,2.43 103.17,-0.24 135.08,-2.9 157.29,22.06 161.29,29.81" />
    <path id="cgDrawnPhysicalCircuit-bezier14" stroke="rgb(47, 104, 135)" stroke-width="1" stroke-miterlimit="10" fill="none" d="M 24.16,80.05 C 24.16,80.05 22.92,62.26 38.92,42.43 54.92,22.6 82.33,3.93 108.25,4.68 134.17,5.43 146.99,18.83 154.32,27.83" />
    <path id="cgDrawnPhysicalCircuit-bezier15" stroke="rgb(47, 104, 135)" stroke-width="1" stroke-miterlimit="10" fill="none" d="M 28.39,138.16 L 29.88,140.38" />
    <path id="cgDrawnPhysicalCircuit-bezier16" stroke="rgb(47, 104, 135)" stroke-width="1" stroke-miterlimit="10" fill="none" d="M 21.82,142.33 L 32.02,139.74" />
    <path id="cgDrawnPhysicalCircuit-bezier17" stroke="rgb(47, 104, 135)" stroke-width="1" stroke-miterlimit="10" fill="none" d="M 29.62,109.72 C 29.62,109.72 30.12,97.22 37.25,85.97 44.38,74.72 47.5,72.6 51.12,69.85 54.75,67.1 81.38,47.85 81.38,47.85 81.38,47.85 118.12,19.97 158.12,34.1 198.12,48.22 216.75,86.47 215.25,110.72 L 215.08,114.18" />
    <path id="cgDrawnPhysicalCircuit-bezier18" stroke="rgb(47, 104, 135)" stroke-width="1" stroke-miterlimit="10" fill="none" d="M 220.25,112.1 C 223.75,92.1 203.12,44.72 162.75,30.22 122.38,15.72 84.12,39.85 84.12,39.85 84.12,39.85 66.25,51.85 43.37,70.35 24,89.22 24.5,108.97 24.5,108.97 L 24.65,111.98" />
    <path id="cgDrawnPhysicalCircuit-bezier19" stroke="rgb(47, 104, 135)" stroke-width="1" stroke-miterlimit="10" fill="none" d="M 165.66,37.18 C 165.66,37.18 180.05,61.94 177.69,107.72" />
    <path id="cgDrawnPhysicalCircuit-bezier20" stroke="rgb(47, 104, 135)" stroke-width="1" stroke-miterlimit="10" fill="none" d="M 173.21,109.01 C 173.21,109.01 174.34,79.29 170.98,65.63 167.62,51.98 161.5,37.18 159.04,34.38" />
    <path id="cgDrawnPhysicalCircuit-bezier21" stroke="rgb(47, 104, 135)" stroke-width="1" stroke-miterlimit="10" fill="none" d="M 172.89,104.27 L 166.19,106.29 C 166.19,106.29 164.87,106.55 164.93,109.33 164.93,110.4 164.87,111.6 164.87,111.6 164.87,111.6 163.86,112.17 163.86,113.56 163.86,114.95 163.29,125.94 163.29,125.94 163.29,125.94 163.1,127.2 163.92,127.27 L 163.75,130.22 C 163.75,130.22 162.72,130.16 162.75,131.88 162.78,133.6 162.75,137.97 162.75,137.97 162.75,137.97 163.97,141.35 169,140.47 169,140.47 171.44,139.85 173.5,137.13 L 177.63,131.97 C 177.63,131.97 178.25,131.31 178.5,128.41 L 179.84,107.49 C 179.78,106.53 178.83,107.3 178.83,107.3 178.83,107.3 175.16,108.44 172.13,109.77 169.1,111.09 168.22,110.4 167.01,108.95 165.81,107.49 167.2,106.99 167.2,106.99 L 172.95,105.22" />
    <path id="cgDrawnPhysicalCircuit-bezier22" stroke="rgb(47, 104, 135)" stroke-width="1" stroke-miterlimit="10" fill="none" d="M 215.17,108.93 L 207.82,111.29 C 207.82,111.29 206.49,111.55 206.56,114.33 206.56,115.4 206.49,116.6 206.49,116.6 206.49,116.6 205.48,117.17 205.48,118.56 205.48,119.95 204.91,128.94 204.91,128.94 204.91,128.94 204.72,130.2 205.54,130.27 L 205.38,133.22 C 205.38,133.22 204.34,133.16 204.38,134.88 204.41,136.6 204.38,141.97 204.38,141.97 204.38,141.97 205.59,145.35 210.63,144.47 210.63,144.47 212.5,144.26 215.13,142.13 L 219.25,138.97 C 219.25,138.97 219.88,138.31 220.13,135.41 L 221.46,112.49 C 221.41,111.53 220.45,112.3 220.45,112.3 220.45,112.3 216.79,113.44 213.76,114.77 210.72,116.09 209.84,115.4 208.64,113.95 207.44,112.49 208.83,111.99 208.83,111.99 L 215.08,109.93" />
    <path id="cgDrawnPhysicalCircuit-bezier23" stroke="rgb(47, 104, 135)" stroke-width="1" stroke-miterlimit="10" fill="none" d="M 164.92,140.22 L 164.42,150.85 C 164.42,150.85 164.96,152.01 166.75,151.8 168.54,151.6 169,150.35 169,150.35 L 169.38,140.39" />
    <path id="cgDrawnPhysicalCircuit-bezier24" stroke="rgb(47, 104, 135)" stroke-width="1" stroke-miterlimit="10" fill="none" d="M 169.03,149.13 C 169.94,149.51 170.54,150.13 170.54,150.83 170.54,151.99 168.88,152.93 166.83,152.93 164.78,152.93 163.12,151.99 163.12,150.83 163.12,150.24 163.54,149.72 164.21,149.34" />
    <path id="cgDrawnPhysicalCircuit-bezier25" stroke="rgb(47, 104, 135)" stroke-width="1" stroke-miterlimit="10" fill="none" d="M 170.54,150.83 L 170.54,151.95 C 170.54,153.11 168.88,154.05 166.83,154.05 164.79,154.05 163.13,153.11 163.13,151.95 L 163.13,150.83" />
    <path id="cgDrawnPhysicalCircuit-bezier26" stroke="rgb(47, 104, 135)" stroke-width="1" stroke-miterlimit="10" fill="none" d="M 206,143.6 L 205.54,155.72 C 205.54,155.72 206.08,156.89 207.88,156.68 209.67,156.47 210.12,155.22 210.12,155.22 L 210.67,144.68" />
    <path id="cgDrawnPhysicalCircuit-bezier27" stroke="rgb(47, 104, 135)" stroke-width="1" stroke-miterlimit="10" fill="none" d="M 210.15,154 C 211.07,154.39 211.67,155 211.67,155.7 211.67,156.86 210.01,157.8 207.96,157.8 205.91,157.8 204.25,156.86 204.25,155.7 204.25,155.12 204.66,154.59 205.34,154.21" />
    <path id="cgDrawnPhysicalCircuit-bezier28" stroke="rgb(47, 104, 135)" stroke-width="1" stroke-miterlimit="10" fill="none" d="M 211.67,155.7 L 211.67,156.83 C 211.67,157.99 210.01,158.93 207.96,158.93 205.91,158.93 204.25,157.99 204.25,156.83 L 204.25,155.7" />
    <path id="cgDrawnPhysicalCircuit-bezier29" stroke="rgb(47, 104, 135)" stroke-width="1" stroke-miterlimit="10" fill="none" d="M 164.53,142.77 L 159.06,142.09 153.41,160.45 153.83,163.99 215.82,172.16 217.94,155.06 218.43,149.5 210.43,148.5" />
    <path id="cgDrawnPhysicalCircuit-bezier30" stroke="rgb(47, 104, 135)" stroke-width="1" stroke-miterlimit="10" fill="none" d="M 182.58,145.03 L 169.26,143.36" />
    <path id="cgDrawnPhysicalCircuit-bezier31" stroke="rgb(47, 104, 135)" stroke-width="1" stroke-miterlimit="10" fill="none" d="M 205.64,147.9 L 192.23,146.23" />
    <path id="cgDrawnPhysicalCircuit-bezier32" stroke="rgb(47, 104, 135)" stroke-width="1" stroke-miterlimit="10" fill="none" d="M 153.41,160.45 L 215.4,168.54 218.26,149.92" />
    <path id="cgDrawnPhysicalCircuit-bezier33" stroke="rgb(47, 104, 135)" stroke-width="1" stroke-miterlimit="10" fill="none" d="M 192.23,137.92 L 192.38,140.31 C 192.38,140.31 191.93,142.84 188.05,142.89 184.17,142.94 183.32,140.75 183.32,140.75 L 183.42,137.27 C 182.6,136.36 182.38,135.66 182.38,134.39 182.38,131.5 184.65,129.12 187.81,129.12 190.97,129.12 193.82,131.5 193.82,134.39 193.82,135.88 193.32,136.96 192.23,137.92 Z M 192.23,137.92" />
    <path id="cgDrawnPhysicalCircuit-bezier34" stroke="rgb(47, 104, 135)" stroke-width="1" stroke-miterlimit="10" fill="none" d="M 182.74,136.32 C 182.74,136.32 184,133.97 187.5,133.78 191,133.6 193.3,136.09 192.8,137.34" />
    <path id="cgDrawnPhysicalCircuit-bezier35" stroke="rgb(47, 104, 135)" stroke-width="1" stroke-miterlimit="10" fill="none" d="M 24.5,106.94 C 24.5,106.94 22.07,109.21 22.31,111.32 22.52,113.22 23.13,114.95 24.03,114.18 24.93,113.41 23.94,111.84 25.14,111.49 26.34,111.15 33.21,107.89 34.84,107.11 36.47,106.34 34.79,103.57 30.24,104.69" />
    <path id="cgDrawnPhysicalCircuit-bezier36" stroke="rgb(47, 104, 135)" stroke-width="1" stroke-miterlimit="10" fill="none" d="M 33.03,140.4 L 33.81,150.2 C 33.81,151.85 35.15,153.2 36.81,153.2 38.47,153.2 39.81,151.85 39.81,150.2 L 38.86,140.02" />
    <path id="cgDrawnPhysicalCircuit-bezier37" stroke="rgb(47, 104, 135)" stroke-width="1" stroke-miterlimit="10" fill="none" d="M 39.78,150.58 C 40.5,151.02 40.95,151.64 40.95,152.31 40.95,153.68 39.12,154.79 36.86,154.79 34.6,154.79 32.77,153.68 32.77,152.31 32.77,151.67 33.17,151.09 33.83,150.64" />
    <path id="cgDrawnPhysicalCircuit-bezier38" stroke="rgb(47, 104, 135)" stroke-width="1" stroke-miterlimit="10" fill="none" d="M 39.86,149.66 C 41.42,150.26 42.5,151.38 42.61,152.75 42.79,154.93 40.4,156.9 37.29,157.15 34.18,157.4 31.51,155.83 31.34,153.65 31.23,152.3 32.09,151.04 33.49,150.21" />
    <path id="cgDrawnPhysicalCircuit-bezier39" stroke="rgb(47, 104, 135)" stroke-width="1" stroke-miterlimit="10" fill="none" d="M 30.64,104.11 C 30.64,104.11 33.47,102.85 35.61,104.43 37.76,106 37.24,108.49 37.24,109.78 38.64,110.52 38.27,110.52 38.36,111.84 38.45,113.13 39.3,124.97 39.3,124.97 39.3,124.97 39.52,126.49 38.96,126.68 39.05,127.97 39.05,127.97 39.05,127.97 39.05,127.97 39.65,127.74 39.73,128.93 39.82,130.11 40.25,137.67 40.25,137.67 40.25,137.67 40.41,138.89 39.56,139.64 38.7,140.4 37.16,141.26 37.16,141.26 37.16,141.26 36.12,142.12 34.07,140.93 32.02,139.74 24.71,135.44 24.71,135.44 24.71,135.44 23.86,134.58 23.6,131.75 23.34,128.91 21.33,110.63 21.33,110.63 21.33,110.63 21.8,107.54 24.5,106" />
    <path id="cgDrawnPhysicalCircuit-bezier40" stroke="rgb(47, 104, 135)" stroke-width="1" stroke-miterlimit="10" fill="none" d="M 24.55,114.92 L 26.43,135.49" />
    <path id="cgDrawnPhysicalCircuit-bezier41" stroke="rgb(47, 104, 135)" stroke-width="1" stroke-miterlimit="10" fill="none" d="M 183.25,139.07 C 183.25,139.07 182.21,139.07 182.21,140.45 182.21,141.83 182.61,151.84 182.61,151.84 182.61,151.84 184.7,155.83 189.58,153.91 192.09,152.68 192.17,151.25 192.27,150.65 192.37,150.06 192.91,142.37 192.91,142.37 192.91,142.37 193.55,140.6 192.57,139.81" />
    <path id="cgDrawnPhysicalCircuit-bezier42" stroke="rgb(47, 104, 135)" stroke-width="1" stroke-miterlimit="10" fill="none" d="M 182.19,142.28 C 182.19,142.28 185.08,147.5 192.72,143.07" />
    <path id="cgDrawnPhysicalCircuit-bezier43" stroke="rgb(47, 104, 135)" stroke-width="1" stroke-miterlimit="10" fill="none" d="M 182.22,144.63 C 182.22,144.63 185.56,149.07 192.56,145.13" />
    <path id="cgDrawnPhysicalCircuit-bezier44" stroke="rgb(47, 104, 135)" stroke-width="1" stroke-miterlimit="10" fill="none" d="M 182.44,146.6 C 182.44,146.6 184.7,150.36 192.44,147" />
    <path id="cgDrawnPhysicalCircuit-bezier45" stroke="rgb(47, 104, 135)" stroke-width="1" stroke-miterlimit="10" fill="none" d="M 182.41,148.58 C 182.41,148.58 185.64,152.52 192.34,148.97" />
    <path id="cgDrawnPhysicalCircuit-bezier46" stroke="rgb(47, 104, 135)" stroke-width="1" stroke-miterlimit="10" fill="none" d="M 182.61,150.51 C 182.61,150.51 185.32,154.3 192.02,150.9" />
    <path id="cgDrawnPhysicalCircuit-bezier47" stroke="rgb(47, 104, 135)" stroke-width="1" stroke-miterlimit="10" fill="none" d="M 184.21,137.61 C 184.21,137.61 187.49,140.5 191.16,138.19" />
    <path id="cgDrawnPhysicalCircuit-bezier48" stroke="rgb(47, 104, 135)" stroke-width="1" stroke-miterlimit="10" fill="none" d="M 165.67,154.1 L 164.67,157.35 181.83,159.68" />
    <path id="cgDrawnPhysicalCircuit-bezier49" stroke="rgb(47, 104, 135)" stroke-width="1" stroke-miterlimit="10" fill="none" d="M 188.58,160.35 L 206.42,162.6 206.92,159.26" />
    <ellipse id="cgDrawnPhysicalCircuit-oval" stroke="rgb(47, 104, 135)" stroke-width="1" stroke-miterlimit="10" fill="none" cx="0" cy="-0" rx="3.35" ry="2.1"  transform="translate(185.3, 160.34) rotate(2.75)" />
    <path id="cgDrawnPhysicalCircuit-bezier50" stroke="rgb(47, 104, 135)" stroke-width="1" stroke-miterlimit="10" fill="none" d="M 183.17,158.68 L 187.42,161.76" />
    <path id="cgDrawnPhysicalCircuit-bezier51" stroke="rgb(47, 104, 135)" stroke-width="1" stroke-miterlimit="10" fill="none" d="M 182.25,161.26 L 188,159.35" />
</svg>
