<?xml version="1.0" encoding="UTF-8"?>
<!DOCTYPE svg PUBLIC "-//W3C//DTD SVG 1.1//EN" "http://www.w3.org/Graphics/SVG/1.1/DTD/svg11.dtd">
<svg version="1.1" xmlns="http://www.w3.org/2000/svg" xmlns:xlink="http://www.w3.org/1999/xlink" width="181" height="116"  xml:space="preserve" id="cgDrawnPhysicalCircuitTop">
    <!-- Generated by PaintCode - http://www.paintcodeapp.com -->
    <g id="cgDrawnPhysicalCircuitTop-pANE1">
        <path id="cgDrawnPhysicalCircuitTop-bezier" stroke="rgb(48, 104, 136)" stroke-width="1" stroke-miterlimit="10" fill="none" d="M 57.38,50.72 L 58.07,27.29 56.95,15.69" />
        <path id="cgDrawnPhysicalCircuitTop-bezier2" stroke="rgb(48, 104, 136)" stroke-width="1" stroke-miterlimit="10" fill="none" d="M 12.19,12.53 L 3.78,12.6 -0.29,108.68 4.83,115.41 55.44,116.46 57.22,55.95" />
        <path id="cgDrawnPhysicalCircuitTop-bezier3" stroke="rgb(48, 104, 136)" stroke-width="1" stroke-miterlimit="10" fill="none" d="M 28.03,62.23 C 29.57,63.74 29.6,66.22 28.08,67.77 L 18.47,77.56 C 16.95,79.1 14.47,79.12 12.93,77.61 L 8.64,73.4 C 7.09,71.88 7.07,69.4 8.59,67.85 L 18.2,58.07 C 19.72,56.52 22.2,56.5 23.74,58.02 L 24.41,58.67" />
        <path id="cgDrawnPhysicalCircuitTop-bezier4" stroke="rgb(48, 104, 136)" stroke-width="1" stroke-miterlimit="10" fill="none" d="M 29.11,64.22 L 32.7,72.39 C 33.83,74.53 34.26,76.39 32.75,77.93 L 24.14,86.72 C 22.62,88.27 20.14,88.29 18.59,86.77 L 14.31,82.56 7.89,72.28" />
        <path id="cgDrawnPhysicalCircuitTop-bezier5" stroke="rgb(48, 104, 136)" stroke-width="1" stroke-miterlimit="10" fill="none" d="M 17.46,70.91 C 17.17,71.75 16.67,72.61 15.74,73.08 14.02,73.96 12.02,73.48 11.26,72.01 10.51,70.53 11.29,68.62 13.01,67.74 13.18,67.65 13.52,67.57 13.7,67.51" />
        <path id="cgDrawnPhysicalCircuitTop-bezier6" stroke="rgb(48, 104, 136)" stroke-width="1" stroke-miterlimit="10" fill="none" d="M 33.27,14.16 L 29.8,19.07 C 28.55,20.84 26.1,21.26 24.34,20.01 L 13.14,12.08 C 11.37,10.83 10.95,8.39 12.2,6.62 L 15.67,1.71 C 16.92,-0.05 19.37,-0.47 21.14,0.78 L 32.33,8.7 C 33.02,9.18 33.5,9.85 33.76,10.58" />
        <path id="cgDrawnPhysicalCircuitTop-bezier7" stroke="rgb(48, 104, 136)" stroke-width="1" stroke-miterlimit="10" fill="none" d="M 34.59,14.64 L 35.64,20.13 C 35.9,21.19 35.71,22.35 35.03,23.31 L 31.56,28.21 C 30.31,29.98 27.86,30.4 26.1,29.15 L 14.9,21.22 C 14.15,20.69 13.64,19.95 13.4,19.13 L 11.59,9.86" />
        <path id="cgDrawnPhysicalCircuitTop-bezier8" stroke="rgb(48, 104, 136)" stroke-width="1" stroke-miterlimit="10" fill="none" d="M 27.79,83.38 C 30.7,83 34.02,84.35 35.27,86.64 37,89.82 35.19,94.15 31.22,96.32 27.25,98.49 22.63,97.66 20.89,94.48 19.94,92.73 19.68,89.86 21.17,87.94" />
        <path id="cgDrawnPhysicalCircuitTop-bezier9" stroke="rgb(48, 104, 136)" stroke-width="1" stroke-miterlimit="10" fill="none" d="M 28.97,87.36 C 29.97,87.51 30.92,88.04 31.34,88.82 32.12,90.25 31.31,92.21 29.52,93.19 27.72,94.17 25.64,93.79 24.85,92.36 24.42,91.57 24.32,90.05 25,89.18" />
        <path id="cgDrawnPhysicalCircuitTop-bezier10" stroke="rgb(48, 104, 136)" stroke-width="1" stroke-miterlimit="10" fill="none" d="M -0.12,108.41 L 53.5,109.66 55.38,116.41" />
        <path id="cgDrawnPhysicalCircuitTop-bezier11" stroke="rgb(48, 104, 136)" stroke-width="1" stroke-miterlimit="10" fill="none" d="M 55.23,50.84 L 56.27,15.85" />
        <path id="cgDrawnPhysicalCircuitTop-bezier12" stroke="rgb(48, 104, 136)" stroke-width="1" stroke-miterlimit="10" fill="none" d="M 53.5,109.66 L 55.08,56.02" />
        <path id="cgDrawnPhysicalCircuitTop-bezier13" stroke="rgb(48, 104, 136)" stroke-width="1" stroke-miterlimit="10" fill="none" d="M 29.56,31.56 C 30.66,32.28 31.3,33.48 31.13,34.73 30.88,36.55 28.97,37.79 26.87,37.5 24.78,37.21 23.28,35.49 23.54,33.67 23.64,32.93 23.74,32.36 24.29,31.87" />
        <path id="cgDrawnPhysicalCircuitTop-bezier14" stroke="rgb(48, 104, 136)" stroke-width="1" stroke-miterlimit="10" fill="none" d="M 31.89,28.15 C 34.52,29.72 36.11,32.48 35.7,35.37 35.14,39.39 30.94,42.12 26.32,41.48 21.7,40.83 18.4,37.05 18.96,33.03 19.28,30.74 21.09,28.56 23.19,27.49" />
        <g id="cgDrawnPhysicalCircuitTop-group9">
            <path id="cgDrawnPhysicalCircuitTop-bezier15" stroke="rgb(48, 104, 136)" stroke-width="1" stroke-miterlimit="10" fill="none" d="M 17.36,9.34 L 16.92,7.44 C 16.73,6.81 16.86,6.09 17.32,5.56 18.05,4.73 19.3,4.63 20.13,5.35 20.31,5.5 31.78,14.7 65.11,11.05 105.85,6.58 140.51,4.02 152.04,17.92 152.04,17.92 154.12,20.22 153.81,21.85" />
            <path id="cgDrawnPhysicalCircuitTop-bezier16" stroke="rgb(48, 104, 136)" stroke-width="1" stroke-miterlimit="10" fill="none" d="M 18.04,8.78 C 20.71,10.72 33.69,18.51 65.55,15.02 96.07,11.68 137.87,7.1 148.96,20.48" />
        </g>
        <path id="cgDrawnPhysicalCircuitTop-bezier17" stroke="rgb(48, 104, 136)" stroke-width="1" stroke-miterlimit="10" fill="none" d="M 19.17,9.3 C 18.81,9.45 18.41,9.53 18,9.53 16.34,9.53 15,8.19 15,6.53 15,4.88 16.34,3.53 18,3.53 19.45,3.53 20.66,4.56 20.94,5.93" />
        <path id="cgDrawnPhysicalCircuitTop-bezier18" stroke="rgb(48, 104, 136)" stroke-width="1" stroke-miterlimit="10" fill="none" d="M 147.05,13.73 L 155.36,12.97 C 157.04,12.81 158.52,14.05 158.68,15.72 L 159.19,21.39 C 159.35,23.07 158.11,24.55 156.44,24.7 L 142.57,25.97 C 140.9,26.12 139.41,24.89 139.26,23.21 L 138.74,17.55 C 138.65,16.5 139.09,15.53 139.85,14.91" />
        <path id="cgDrawnPhysicalCircuitTop-bezier19" stroke="rgb(48, 104, 136)" stroke-width="1" stroke-miterlimit="10" fill="none" d="M 159.21,21.96 L 157.19,33.22 C 156.78,35.21 156.11,36.38 154.44,36.54 L 142.57,37.8 C 140.9,37.96 139.41,36.72 139.26,35.05 L 138.74,29.38 138.83,16.26" />
        <path id="cgDrawnPhysicalCircuitTop-bezier20" stroke="rgb(48, 104, 136)" stroke-width="1" stroke-miterlimit="10" fill="none" d="M 150.52,16.21 C 151.04,16.02 151.63,15.91 152.25,15.91 154.49,15.91 156.31,17.32 156.31,19.07 156.31,20.81 154.49,22.22 152.25,22.22 150.68,22.22 149.32,21.53 148.64,20.52 148.35,20.08 148.25,20.25 148.25,19.72" />
        <path id="cgDrawnPhysicalCircuitTop-bezier21" stroke="rgb(48, 104, 136)" stroke-width="1" stroke-miterlimit="10" fill="none" d="M 150.54,36.83 L 149.86,40.83 C 149.67,42.32 149.09,43.45 147.5,43.45 145.91,43.45 145.28,42.29 144.96,40.9 L 144.54,37.49" />
        <path id="cgDrawnPhysicalCircuitTop-bezier22" stroke="rgb(48, 104, 136)" stroke-width="1" stroke-miterlimit="10" fill="none" d="M 23.52,27.28 L 24.81,33.67 C 25.1,34.68 25.83,35.43 27.09,35.43 28.34,35.43 29.36,34.64 29.36,33.67 L 29.72,29.83" />
        <path id="cgDrawnPhysicalCircuitTop-bezier23" stroke="rgb(48, 104, 136)" stroke-width="1" stroke-miterlimit="10" fill="none" d="M 23.34,87.44 L 26.27,91.14 C 26.72,91.81 27.77,91.89 28.61,91.33 29.25,90.89 29.59,90.21 29.52,89.61 L 28.16,82.75" />
        <path id="cgDrawnPhysicalCircuitTop-bezier24" stroke="rgb(48, 104, 136)" stroke-width="1" stroke-miterlimit="10" fill="none" d="M 155.32,76.32 L 168.22,72.31 C 169.68,71.86 171.23,72.68 171.68,74.14 L 173.38,79.64 C 173.83,81.09 173.02,82.64 171.56,83.09 L 157.7,87.38 C 156.24,87.83 154.69,87.02 154.24,85.56 L 152.71,80.54" />
        <path id="cgDrawnPhysicalCircuitTop-bezier25" stroke="rgb(48, 104, 136)" stroke-width="1" stroke-miterlimit="10" fill="none" d="M 173.53,80.57 L 171.81,88.21 C 171.52,88.99 170.89,89.63 170.03,89.9 L 156.17,94.19 C 154.71,94.64 153.16,93.83 152.71,92.37 L 151.01,86.87 C 150.86,86.39 150.85,85.9 150.95,85.44 L 152.19,80.55" />
        <path id="cgDrawnPhysicalCircuitTop-bezier26" stroke="rgb(48, 104, 136)" stroke-width="1" stroke-miterlimit="10" fill="none" d="M 164.39,77.07 C 164.74,76.86 165.46,76.45 165.88,76.33 167.85,75.75 169.79,76.49 170.23,77.96 170.66,79.44 168.8,81.21 166.84,81.79" />
        <g id="cgDrawnPhysicalCircuitTop-group10">
            <path id="cgDrawnPhysicalCircuitTop-bezier27" stroke="rgb(48, 104, 136)" stroke-width="1" stroke-miterlimit="10" fill="none" d="M 161.07,82.38 C 156.67,82.38 149.91,80.6 128.51,69.42 101.74,55.43 66.79,53.84 43,57.01 24.42,59.49 17.1,71.56 17.03,71.68 16.33,72.87 14.79,73.26 13.61,72.56 12.42,71.86 12.02,70.33 12.72,69.14 13.07,68.56 21.37,54.85 42.34,52.06 66.89,48.78 103.02,50.46 130.82,64.99 155.77,78.02 159.45,77.63 163.33,77.22 164.08,77.14 164.85,77.06 165.76,77.03 167.15,76.98 168.29,78.08 168.33,79.46 168.37,80.84 167.28,81.99 165.9,82.03 165.18,82.05 164.54,82.12 163.86,82.19 162.95,82.29 162.07,82.38 161.07,82.38 Z M 161.07,82.38" />
        </g>
        <path id="cgDrawnPhysicalCircuitTop-bezier28" stroke="rgb(48, 104, 136)" stroke-width="1" stroke-miterlimit="10" fill="none" d="M 158.02,28.49 L 161.5,27.87 180.98,95.5" />
        <path id="cgDrawnPhysicalCircuitTop-bezier29" stroke="rgb(48, 104, 136)" stroke-width="1" stroke-miterlimit="10" fill="none" d="M 129.09,63.89 L 123,40.7 125.33,34.37 138.76,31.96" />
        <path id="cgDrawnPhysicalCircuitTop-bezier30" stroke="rgb(48, 104, 136)" stroke-width="1" stroke-miterlimit="10" fill="none" d="M 144.17,104.2 L 180.67,96.03 178.17,101.87 141.17,109.87 130.82,70.48" />
        <path id="cgDrawnPhysicalCircuitTop-bezier31" stroke="rgb(48, 104, 136)" stroke-width="1" stroke-miterlimit="10" fill="none" d="M 135.81,73.24 L 144.17,104.2 141.17,109.87" />
        <path id="cgDrawnPhysicalCircuitTop-bezier32" stroke="rgb(48, 104, 136)" stroke-width="1" stroke-miterlimit="10" fill="none" d="M 125.33,34.37 L 134,66.49" />
        <path id="cgDrawnPhysicalCircuitTop-bezier33" stroke="rgb(48, 104, 136)" stroke-width="1" stroke-miterlimit="10" fill="none" d="M 163.47,91.9 C 163.65,92.11 163.75,92.35 163.75,92.6 163.75,93.39 162.74,94.03 161.5,94.03 160.6,94.03 159.83,93.7 159.47,93.21" />
        <path id="cgDrawnPhysicalCircuitTop-bezier34" stroke="rgb(48, 104, 136)" stroke-width="1" stroke-miterlimit="10" fill="none" d="M 28.83,43.03 L 28.83,56.03" />
        <path id="cgDrawnPhysicalCircuitTop-bezier35" stroke="rgb(48, 104, 136)" stroke-width="1" stroke-miterlimit="10" fill="none" d="M 28.67,61.87 L 33.67,61.87" />
        <path id="cgDrawnPhysicalCircuitTop-bezier36" stroke="rgb(48, 104, 136)" stroke-width="1" stroke-miterlimit="10" fill="none" d="M 159.02,64.04 C 157.82,65.96 155.69,67.23 153.26,67.23 149.52,67.23 146.48,64.19 146.48,60.45 146.48,58.39 147.4,56.54 148.85,55.3" />
        <path id="cgDrawnPhysicalCircuitTop-bezier37" stroke="rgb(48, 104, 136)" stroke-width="1" stroke-miterlimit="10" fill="none" d="M 158.51,64.57 C 157.35,66.67 155.12,68.1 152.55,68.1 148.81,68.1 145.77,65.06 145.77,61.31 145.77,60.07 146.1,58.91 146.68,57.91" />
        <circle id="cgDrawnPhysicalCircuitTop-oval" stroke="rgb(48, 104, 136)" stroke-width="1" stroke-miterlimit="10" fill="none" cx="154.26" cy="59.45" r="6.79" />
    </g>
</svg>
