<?xml version="1.0" encoding="UTF-8"?>
<!DOCTYPE svg PUBLIC "-//W3C//DTD SVG 1.1//EN" "http://www.w3.org/Graphics/SVG/1.1/DTD/svg11.dtd">
<svg version="1.1" xmlns="http://www.w3.org/2000/svg" xmlns:xlink="http://www.w3.org/1999/xlink" width="172" height="157"  xml:space="preserve" id="drawnPhysicalCircuitSide">
    <!-- Generated by PaintCode - http://www.paintcodeapp.com -->
    <path id="drawnPhysicalCircuitSide-bezier139" stroke="rgb(71, 92, 113)" stroke-width="1" stroke-miterlimit="10" fill="none" d="M 31.19,94.61 L 48.16,123.21 49.51,147.74 46.08,148.77" />
    <path id="drawnPhysicalCircuitSide-bezier140" stroke="rgb(71, 92, 113)" stroke-width="1" stroke-miterlimit="10" fill="none" d="M 4.88,126.61 L 3.23,123.21 -0.31,99.44 14.41,95.02" />
    <path id="drawnPhysicalCircuitSide-bezier141" stroke="rgb(71, 92, 113)" stroke-width="1" stroke-miterlimit="10" fill="none" d="M 23.27,155.59 L 19.47,156.73 16.99,151.61" />
    <path id="drawnPhysicalCircuitSide-bezier142" stroke="rgb(71, 92, 113)" stroke-width="1" stroke-miterlimit="10" fill="none" d="M -0.31,99.44 L 16.13,132.06" />
    <path id="drawnPhysicalCircuitSide-bezier143" stroke="rgb(71, 92, 113)" stroke-width="1" stroke-miterlimit="10" fill="none" d="M 16.13,132.06 L 48.16,123.21" />
    <path id="drawnPhysicalCircuitSide-bezier144" stroke="rgb(71, 92, 113)" stroke-width="1" stroke-miterlimit="10" fill="none" d="M 16.13,132.06 L 19.47,156.73" />
    <path id="drawnPhysicalCircuitSide-bezier145" stroke="rgb(71, 92, 113)" stroke-width="1" stroke-miterlimit="10" fill="none" d="M 4.76,126.36 C 4.76,126.36 14.36,135.57 16.99,151.61" />
    <path id="drawnPhysicalCircuitSide-bezier146" stroke="rgb(71, 92, 113)" stroke-width="1" stroke-miterlimit="10" fill="none" d="M 23.27,155.59 C 23.27,155.59 32.79,139.51 46.08,148.77" />
    <path id="drawnPhysicalCircuitSide-bezier147" stroke="rgb(71, 92, 113)" stroke-width="1" stroke-miterlimit="10" fill="none" d="M 19.98,87.33 C 19.98,87.33 28.18,84.13 28.86,82.84 29.53,81.54 29.14,80.25 27.34,80.19 25.54,80.14 20.76,80.81 16.38,85.25 L 18.07,105.48 C 18.07,105.48 23.63,108.74 25.09,109.64 26.55,110.54 30.88,110.26 30.88,107.64 30.88,105.03 29.15,81.55 29.15,81.55" />
    <path id="drawnPhysicalCircuitSide-bezier148" stroke="rgb(71, 92, 113)" stroke-width="1" stroke-miterlimit="10" fill="none" d="M 19.98,87.33 L 21.08,107.25" />
    <path id="drawnPhysicalCircuitSide-bezier149" stroke="rgb(71, 92, 113)" stroke-width="2" stroke-miterlimit="10" fill="none" d="M 20.26,85.87 C 20.26,85.87 23.12,36.64 86.17,22.31 149.23,7.98 166.43,65.35 165.42,87.48" />
    <path id="drawnPhysicalCircuitSide-bezier150" stroke="rgb(71, 92, 113)" stroke-width="1" stroke-miterlimit="10" fill="none" d="M 172.06,87.98 C 172.06,87.98 160.3,84.58 160.58,87.33 160.86,90.08 172.27,88.79 172.27,88.79 L 170.24,107.67 C 170.24,107.67 165.47,113.07 163.61,113.57 161.76,114.08 159.12,112.28 159.12,109.47 159.12,106.66 160.47,87.95 160.47,87.95" />
    <path id="drawnPhysicalCircuitSide-bezier151" stroke="rgb(71, 92, 113)" stroke-width="1" stroke-miterlimit="10" fill="none" d="M 129.39,84.18 C 129.39,84.18 131.64,87.11 139.56,83.28 L 137.82,102.9 C 137.82,102.9 133.21,108.57 132.54,108.85 131.86,109.13 126.8,110.15 126.86,106.44 126.92,102.73 128.6,83.62 128.6,83.62 128.6,83.62 129.56,81.99 134.56,81.71" />
    <path id="drawnPhysicalCircuitSide-bezier152" stroke="rgb(71, 92, 113)" stroke-width="2" stroke-miterlimit="10" fill="none" d="M 136.19,83.34 C 136.19,83.34 145.01,1.91 83.98,-0.28 22.95,-2.47 16.38,62.1 16.38,62.1" />
    <path id="drawnPhysicalCircuitSide-bezier153" stroke="rgb(71, 92, 113)" stroke-width="1" stroke-miterlimit="10" fill="none" d="M 15.73,58.31 C 15.73,58.31 8.24,63.95 13.18,65.55 17.48,66.95 18.7,60.37 18.7,60.37 L 19.98,81.2" />
    <path id="drawnPhysicalCircuitSide-bezier154" stroke="rgb(71, 92, 113)" stroke-width="1" stroke-miterlimit="10" fill="none" d="M 11.49,63.95 L 13.35,88.74 C 13.35,88.74 15.36,91.09 16.13,91.26" />
    <path id="drawnPhysicalCircuitSide-bezier155" stroke="rgb(71, 92, 113)" stroke-width="3" stroke-miterlimit="10" fill="none" d="M 27.62,111.04 L 27.92,120.05" />
    <ellipse id="drawnPhysicalCircuitSide-oval20" stroke="rgb(71, 92, 113)" stroke-width="1" stroke-miterlimit="10" fill="none" cx="27.85" cy="119.72" rx="3.05" ry="1.35" />
    <path id="drawnPhysicalCircuitSide-bezier156" stroke="rgb(71, 92, 113)" stroke-width="1" stroke-miterlimit="10" fill="none" d="M 30.88,119.72 L 30.88,120.74 C 30.88,121.48 29.52,122.08 27.84,122.08 26.17,122.08 24.81,121.48 24.81,120.74 L 24.81,119.72" />
    <path id="drawnPhysicalCircuitSide-bezier157" stroke="rgb(71, 92, 113)" stroke-width="1" stroke-miterlimit="10" fill="none" d="M 149.76,109.98 C 149.86,110.11 149.9,110.24 149.9,110.37 149.87,111.15 148.06,111.71 145.87,111.64 143.67,111.56 141.9,110.87 141.93,110.09 141.93,110 141.96,109.92 142,109.84" />
    <path id="drawnPhysicalCircuitSide-bezier158" stroke="rgb(71, 92, 113)" stroke-width="1" stroke-miterlimit="10" fill="none" d="M 149.9,110.37 L 149.55,120.19 C 149.52,120.97 147.72,121.54 145.52,121.46 143.32,121.38 141.55,120.69 141.58,119.91 L 141.93,110.09" />
    <path id="drawnPhysicalCircuitSide-bezier159" stroke="rgb(71, 92, 113)" stroke-width="1" stroke-miterlimit="10" fill="none" d="M 31.61,120.2 C 31.89,120.45 32.05,120.73 32.05,121.02 32.05,122.05 30.17,122.88 27.84,122.88 25.52,122.88 23.64,122.05 23.64,121.02 23.64,120.77 23.75,120.52 23.97,120.3" />
    <path id="drawnPhysicalCircuitSide-bezier160" stroke="rgb(71, 92, 113)" stroke-width="1" stroke-miterlimit="10" fill="none" d="M 32.05,121.02 L 32.05,122.44 C 32.05,123.47 30.17,124.3 27.84,124.3 25.52,124.3 23.64,123.47 23.64,122.44 L 23.64,121.02" />
    <path id="drawnPhysicalCircuitSide-bezier161" stroke="rgb(71, 92, 113)" stroke-width="3" stroke-miterlimit="10" fill="none" d="M 129.71,109.19 L 129.56,117.87" />
    <ellipse id="drawnPhysicalCircuitSide-oval21" stroke="rgb(71, 92, 113)" stroke-width="1" stroke-miterlimit="10" fill="none" cx="0" cy="-0" rx="3.05" ry="1.35"  transform="translate(129.55, 117.86) rotate(1.75)" />
    <path id="drawnPhysicalCircuitSide-bezier162" stroke="rgb(71, 92, 113)" stroke-width="1" stroke-miterlimit="10" fill="none" d="M 132.59,117.96 L 132.56,118.98 C 132.54,119.72 131.16,120.28 129.49,120.23 127.81,120.18 126.47,119.53 126.5,118.79 L 126.53,117.77" />
    <path id="drawnPhysicalCircuitSide-bezier163" stroke="rgb(71, 92, 113)" stroke-width="3" stroke-miterlimit="10" fill="none" d="M 161.81,113.48 L 161.66,122.16" />
    <ellipse id="drawnPhysicalCircuitSide-oval22" stroke="rgb(71, 92, 113)" stroke-width="1" stroke-miterlimit="10" fill="none" cx="0" cy="-0" rx="3.05" ry="1.35"  transform="translate(161.6, 122.16) rotate(1.75)" />
    <path id="drawnPhysicalCircuitSide-bezier164" stroke="rgb(71, 92, 113)" stroke-width="1" stroke-miterlimit="10" fill="none" d="M 164.69,122.25 L 164.66,123.27 C 164.64,124.01 163.26,124.57 161.58,124.52 159.91,124.47 158.57,123.83 158.59,123.08 L 158.62,122.06" />
    <path id="drawnPhysicalCircuitSide-bezier165" stroke="rgb(71, 92, 113)" stroke-width="1" stroke-miterlimit="10" fill="none" d="M 16.61,100.97 C 15.26,100.83 14.25,100.3 14.25,99.66 14.25,99.07 15.12,98.57 16.32,98.39" />
    <path id="drawnPhysicalCircuitSide-bezier166" stroke="rgb(71, 92, 113)" stroke-width="1" stroke-miterlimit="10" fill="none" d="M 16.75,101.98 C 15.43,101.84 14.25,101.31 14.25,100.68 L 14.25,99.66" />
    <path id="drawnPhysicalCircuitSide-bezier167" stroke="rgb(71, 92, 113)" stroke-width="1" stroke-miterlimit="10" fill="none" d="M 17.01,102.81 C 14.92,102.7 13.08,101.92 13.08,100.96 13.08,100.63 13.28,100.31 13.64,100.04" />
    <path id="drawnPhysicalCircuitSide-bezier168" stroke="rgb(71, 92, 113)" stroke-width="1" stroke-miterlimit="10" fill="none" d="M 17.24,104.23 C 15.16,104.12 13.08,103.33 13.08,102.38 L 13.08,100.96" />
    <path id="drawnPhysicalCircuitSide-bezier169" stroke="rgb(71, 92, 113)" stroke-width="1" stroke-miterlimit="10" fill="none" d="M 150.72,114.57 L 170.05,117.14 167.6,131.98 119.39,125.15 123.85,110.99 140.75,113.24" />
    <path id="drawnPhysicalCircuitSide-bezier170" stroke="rgb(71, 92, 113)" stroke-width="1" stroke-miterlimit="10" fill="none" d="M 170.05,117.14 L 170.05,120.72 167.6,135.55 119.39,128.73 119.39,125.15" />
    <path id="drawnPhysicalCircuitSide-bezier171" stroke="rgb(71, 92, 113)" stroke-width="1" stroke-miterlimit="10" fill="none" d="M 142.82,110.29 C 142.82,110.29 140.59,104.96 142.82,102.43 145.05,99.9 149.21,101.73 149.87,102.81 150.66,104.12 150.49,107.23 148.85,110.29" />
    <path id="drawnPhysicalCircuitSide-bezier172" stroke="rgb(71, 92, 113)" stroke-width="1" stroke-miterlimit="10" fill="none" d="M 141.51,120.01 C 141.51,120.01 148.99,121.08 149.62,118.19" />
    <path id="drawnPhysicalCircuitSide-bezier173" stroke="rgb(71, 92, 113)" stroke-width="1" stroke-miterlimit="10" fill="none" d="M 141.56,118.61 C 141.56,118.61 149.04,119.68 149.67,116.79" />
    <path id="drawnPhysicalCircuitSide-bezier174" stroke="rgb(71, 92, 113)" stroke-width="1" stroke-miterlimit="10" fill="none" d="M 141.61,117.29 C 141.61,117.29 149.08,118.36 149.72,115.47" />
    <path id="drawnPhysicalCircuitSide-bezier175" stroke="rgb(71, 92, 113)" stroke-width="1" stroke-miterlimit="10" fill="none" d="M 141.66,115.89 C 141.66,115.89 149.13,116.96 149.77,114.07" />
    <path id="drawnPhysicalCircuitSide-bezier176" stroke="rgb(71, 92, 113)" stroke-width="1" stroke-miterlimit="10" fill="none" d="M 141.71,114.43 C 141.71,114.43 149.19,115.5 149.82,112.61" />
    <path id="drawnPhysicalCircuitSide-bezier177" stroke="rgb(71, 92, 113)" stroke-width="1" stroke-miterlimit="10" fill="none" d="M 141.76,113.03 C 141.76,113.03 149.24,114.1 149.87,111.21" />
    <path id="drawnPhysicalCircuitSide-bezier178" stroke="rgb(71, 92, 113)" stroke-width="1" stroke-miterlimit="10" fill="none" d="M 15.73,59.1 C 15.73,59.1 11.94,62.82 13.66,63.95 15.37,65.08 17.12,61.57 17.44,60.38" />
    <path id="drawnPhysicalCircuitSide-bezier179" stroke="rgb(71, 92, 113)" stroke-width="1" stroke-miterlimit="10" fill="none" d="M 19.63,84.1 C 19.63,84.1 18.04,85.48 17.89,85.75 L 19.42,85.99 C 19.86,85.93 27.94,82.7 27.22,81.65 26.5,80.61 21.42,82.85 21.42,82.85" />
    <path id="drawnPhysicalCircuitSide-bezier180" stroke="rgb(71, 92, 113)" stroke-width="1" stroke-miterlimit="10" fill="none" d="M 137.47,82.55 C 137.47,82.55 133.76,84.13 131.97,83.98 130.17,83.84 130.53,82.94 137.47,82.55 Z M 137.47,82.55" />
    <path id="drawnPhysicalCircuitSide-bezier181" stroke="rgb(71, 92, 113)" stroke-width="1" stroke-miterlimit="10" fill="none" d="M 169.29,88.09 C 169.29,88.09 163.05,86.89 162.73,87.33 162.41,87.76 166.56,87.97 169.29,88.09 Z M 169.29,88.09" />
</svg>
