<?xml version="1.0" encoding="UTF-8" standalone="no"?>
<!DOCTYPE svg PUBLIC "-//W3C//DTD SVG 1.1//EN" "http://www.w3.org/Graphics/SVG/1.1/DTD/svg11.dtd">
<svg width="100%" height="100%" viewBox="0 0 552 381" version="1.1" xmlns="http://www.w3.org/2000/svg" xmlns:xlink="http://www.w3.org/1999/xlink" xml:space="preserve" xmlns:serif="http://www.serif.com/" style="fill-rule:evenodd;clip-rule:evenodd;">
    <g transform="matrix(1,0,0,1,-307.538,-28.7197)">
        <g id="surface3953" transform="matrix(1,0,0,1,308,51)">
            <g>
                <clipPath id="_clip1">
                    <rect x="0.645" y="0.73" width="167.461" height="328.625"/>
                </clipPath>
                <g clip-path="url(#_clip1)">
                    <path d="M167.75,165.043C167.75,255.594 130.422,329 84.375,329C38.328,329 1,255.594 1,165.043C1,74.492 38.328,1.086 84.375,1.086C130.422,1.086 167.75,74.492 167.75,165.043" style="fill:rgb(184,216,227);fill-rule:nonzero;"/>
                    <g transform="matrix(1,0,0,-1,475.749,216.043)">
                        <path d="M-307.999,51C-307.999,-39.551 -345.327,-112.957 -391.374,-112.957C-437.421,-112.957 -474.749,-39.551 -474.749,51C-474.749,141.551 -437.421,214.957 -391.374,214.957C-345.327,214.957 -307.999,141.551 -307.999,51Z" style="fill:none;fill-rule:nonzero;stroke:rgb(184,216,227);stroke-width:0.71px;"/>
                    </g>
                </g>
            </g>
        </g>
        <g id="surface3955" transform="matrix(1,0,0,1,475,154)">
            <g>
                <clipPath id="_clip2">
                    <rect x="0.75" y="0.75" width="86.902" height="136.707"/>
                </clipPath>
                <g clip-path="url(#_clip2)">
                    <path d="M84.66,59.652C93.391,97.035 82.355,131.57 60.012,136.793C37.668,142.008 12.473,115.938 3.738,78.551C-4.992,41.172 6.047,6.633 28.391,1.414C50.734,-3.805 75.93,22.266 84.66,59.652" style="fill:rgb(141,189,210);fill-rule:nonzero;"/>
                </g>
            </g>
        </g>
        <g id="surface3957" transform="matrix(1,0,0,1,547,48)">
            <g>
                <clipPath id="_clip3">
                    <rect x="0.926" y="0.902" width="220.93" height="279.141"/>
                </clipPath>
                <g clip-path="url(#_clip3)">
                    <path d="M201.645,97.145C236.809,170.398 224.91,249.18 175.063,273.109C125.215,297.039 56.301,257.051 21.133,183.801C-14.031,110.551 -2.129,31.77 47.719,7.84C97.566,-16.09 166.484,23.895 201.645,97.145" style="fill:rgb(130,174,195);fill-rule:nonzero;"/>
                </g>
            </g>
        </g>
        <g transform="matrix(1,0,0,-1,404.795,407.547)">
            <path d="M0.001,0C0.001,0 -9.268,42.637 -5.561,69.828C-1.854,97.016 -11.741,71.684 -11.124,64.883C-10.506,58.086 -14.831,39.551 -24.717,39.551C-34.604,39.551 -43.874,63.648 -43.874,67.973C-43.874,72.301 -54.377,112.465 -62.413,124.824C-70.444,137.184 -80.331,179.82 -78.014,188.473C-75.698,197.121 -76.006,229.875 -76.006,229.875C-76.006,229.875 -84.041,268.188 -67.971,304.027C-51.909,339.867 -24.717,299.699 -24.717,299.699C-20.393,311.441 -24.717,334.305 -27.807,346.047C-30.897,357.785 -29.584,369.547 -29.584,369.547" style="fill:none;fill-rule:nonzero;stroke:rgb(37,54,68);stroke-width:1px;"/>
        </g>
        <g transform="matrix(1,0,0,-1,392.375,30.7808)">
            <path d="M0.001,0C0.001,0 2.536,-4.149 0.68,-23.305C-1.175,-42.461 9.95,-75.211 17.981,-90.043C26.016,-104.872 32.196,-125.262 32.813,-139.786C33.43,-154.309 24.778,-187.719 55.059,-184.918C85.336,-182.114 98.93,-182.114 98.93,-182.114C98.93,-182.114 109.438,-183.969 103.876,-168.52C98.317,-153.071 97.696,-135.153 116.235,-128.973C134.774,-122.793 168.141,-179.899 173.083,-192.129C178.028,-204.36 180.5,-217.336 173.083,-220.426C178.649,-229.696 192.86,-242.18 192.86,-242.18C192.86,-242.18 178.649,-239.582 169.375,-258.739C165.051,-268.008 169.375,-275.422 171.231,-281.602C173.083,-287.782 181.739,-313.735 189.153,-319.915C196.567,-326.094 203.981,-334.129 218.196,-334.438" style="fill:none;fill-rule:nonzero;stroke:rgb(37,54,68);stroke-width:1px;"/>
        </g>
        <g transform="matrix(1,0,0,-1,567.932,395.806)">
            <path d="M-0.002,0.001C4.326,14.212 4.943,39.548 -0.002,52.524C-4.943,65.501 -23.482,108.759 -23.482,108.759C-23.482,108.759 -56.232,119.88 -57.471,125.442C-65.502,116.79 -80.951,117.407 -90.838,129.767C-100.725,142.126 -131.623,134.712 -131.623,134.712C-131.623,134.712 -156.338,132.942 -163.135,136.915C-169.936,140.892 -179.818,137.802 -181.057,125.442C-182.291,118.646 -190.326,116.173 -192.178,114.317C-194.033,112.466 -198.975,102.575 -197.74,97.634C-196.506,92.689 -193.127,41.06 -186.002,37.692C-178.877,34.329 -175.904,43.255 -175.084,48.2" style="fill:none;fill-rule:nonzero;stroke:rgb(37,54,68);stroke-width:1px;"/>
        </g>
        <g transform="matrix(1,0,0,-1,367.041,94.0322)">
            <path d="M-0.001,0.001C-10.189,3.153 -16.623,-8.87 -14.154,-21.847C-11.681,-34.823 -17.244,-41.62 -9.208,-52.124C-1.173,-62.632 5.026,-66.956 -5.798,-83.022C-16.623,-99.089 -14.552,-118.245 -14.552,-118.245" style="fill:none;fill-rule:nonzero;stroke:rgb(37,54,68);stroke-width:1px;"/>
        </g>
        <g transform="matrix(1,0,0,-1,492.221,221.997)">
            <path d="M-0.002,0.001C-16.686,0.001 -75.838,3.231 -81.4,3.231C-86.963,3.231 -117.549,5.087 -116.623,12.036C-115.697,18.989 -111.104,28.411 -116.643,33.665C-122.186,38.915 -125.357,44.696 -134.893,37.868" style="fill:none;fill-rule:nonzero;stroke:rgb(37,54,68);stroke-width:1px;"/>
        </g>
        <g transform="matrix(1,0,0,-1,369.995,290.138)">
            <path d="M0.001,0.001C-12.937,10.657 -34.253,47.271 -31.476,68.126C-28.694,88.981 -29.187,118.646 -31.722,131.157C-34.253,143.669 -27.714,163.544 -16.495,153.81" style="fill:none;fill-rule:nonzero;stroke:rgb(37,54,68);stroke-width:1px;"/>
        </g>
        <g transform="matrix(1,0,0,-1,345.01,165.932)">
            <path d="M0.002,-0.001C0.002,-0.001 3.4,15.913 12.822,19.772" style="fill:none;fill-rule:nonzero;stroke:rgb(37,54,68);stroke-width:1px;"/>
        </g>
        <g transform="matrix(1,0,0,-1,508.609,239.158)">
            <path d="M0,0.002L0,-20.701C0,-20.701 -0.203,-34.604 -6.898,-33.061C-13.594,-31.514 -20.082,-12.357 -20.699,-2.162C-21.32,8.033 -17.922,19.771 -12.051,19.467C-9.27,19.154 -12.051,9.889 0,0.002Z" style="fill:none;fill-rule:nonzero;stroke:rgb(37,54,68);stroke-width:1px;"/>
        </g>
        <g transform="matrix(1,0,0,-1,511.39,253.988)">
            <path d="M0.001,0C0.001,0 5.868,17.922 4.325,22.555C0.927,24.102 -1.854,34.297 0.001,36.148C1.853,38.004 4.583,34.301 4.583,34.301C4.583,34.301 4.634,44.184 8.345,46.035C12.052,47.891 14.829,65.926 2.161,72.973C-10.507,80.023 -11.433,59.941 -11.433,59.941C-11.433,59.941 -11.327,48.508 -9.683,44.492C-8.034,40.477 -7.929,39.238 -9.683,35.223C-8.343,30.277 -9.12,24.5 -2.78,18.77C-0.929,16.914 0.927,16.375 0.001,0Z" style="fill:none;fill-rule:nonzero;stroke:rgb(37,54,68);stroke-width:1px;"/>
        </g>
        <g transform="matrix(1,0,0,-1,517.646,184.007)">
            <path d="M0.002,-0.001C4.4,1.39 12.744,-1.157 13.904,-7.88C15.064,-14.599 15.986,-27.021 15.064,-32.743C14.135,-38.466 9.037,-53.064 19.232,-50.286C29.432,-47.505 25.025,-39.161 24.795,-38.005C24.564,-36.845 33.139,-26.56 36.15,-32.743C36.15,-32.743 37.537,-28.411 40.318,-32.743C43.103,-37.075 48.432,-49.591 47.736,-57.235C44.26,-59.786 36.846,-60.942 36.15,-61.177C35.455,-61.407 30.127,-59.786 27.576,-57.235C25.025,-54.689 19.232,-56.774 17.611,-58.396C15.986,-60.017 8.807,-60.481 6.486,-50.981C4.17,-41.478 7.033,-30.356 -1.232,-30.817" style="fill:none;fill-rule:nonzero;stroke:rgb(37,54,68);stroke-width:1px;"/>
        </g>
        <g transform="matrix(1,0,0,-1,553.873,217.685)">
            <path d="M-0.002,0.001C0.311,-1.854 -0.154,-5.101 -0.002,-6.335C0.154,-7.569 3.092,-10.815 4.018,-11.124C4.943,-11.433 5.404,-13.901 0.772,-16.839C-3.861,-19.772 -5.252,-21.476 -6.182,-15.757C-7.107,-10.042 -5.42,-5.101 -0.779,-6.335" style="fill:none;fill-rule:nonzero;stroke:rgb(37,54,68);stroke-width:1px;"/>
        </g>
        <g transform="matrix(1,0,0,-1,542.318,184.678)">
            <path d="M0.002,-0.001C3.244,0.905 14.49,0.944 17.967,0.924C19.588,6.233 22.139,12.491 29.088,12.026C36.041,11.565 43.455,7.666 45.076,6.487C44.615,3.221 45.076,0.924 45.076,0.924C45.076,0.924 36.041,0.592 33.26,-3.654C30.478,-7.904 25.611,-6.048 21.439,-6.283C17.271,-6.513 8.646,-8.306 7.861,-11.232" style="fill:none;fill-rule:nonzero;stroke:rgb(37,54,68);stroke-width:1px;"/>
        </g>
        <g transform="matrix(1,0,0,-1,562.273,178.553)">
            <path d="M0,-0.001C-3.477,4.17 -15.195,23.51 -13.113,39.272C-11.027,55.026 -7.551,71.249 15.156,70.553C19.563,83.53 30.684,85.381 34.621,85.151C38.563,84.92 51.309,77.272 49.453,56.186C47.602,35.1 45.516,32.084 45.516,32.084C45.516,32.084 47.832,14.245 41.574,4.975C37.867,7.752 35.781,8.217 35.781,8.217L36.016,21.659C36.016,21.659 43.66,26.291 35.551,40.198C27.438,54.1 20.258,58.967 20.258,58.967C20.258,58.967 16.781,40.428 31.609,22.819C33.93,19.342 31.844,11.229 31.844,11.229C31.844,11.229 29.293,8.034 29.988,5.924C23.965,6.827 19.563,8.682 17.012,15.866C14.465,23.049 15.856,31.624 16.551,34.17C17.242,36.721 13.305,57.807 13.535,60.819C9.133,61.053 -5.93,55.721 -5.93,42.514C-5.93,29.303 -3.844,15.401 9.133,5.901" style="fill:none;fill-rule:nonzero;stroke:rgb(37,54,68);stroke-width:1px;"/>
        </g>
        <g transform="matrix(1,0,0,-1,587.396,183.754)">
            <path d="M0.002,0C4.635,-1.41 17.146,-0.714 19.928,-3.035C22.709,-5.351 42.404,-17.402 47.041,-18.328C39.857,-25.281 31.979,-30.609 18.537,-26.207C5.1,-21.804 -21.158,-21.957 -28.397,-26.542" style="fill:none;fill-rule:nonzero;stroke:rgb(37,54,68);stroke-width:1px;"/>
        </g>
        <g transform="matrix(1,0,0,-1,587.396,178.191)">
            <path d="M0.002,0C4.865,-1.875 15.064,-3.266 12.744,1.367C10.428,6.004 4.865,5.562 4.865,5.562" style="fill:none;fill-rule:nonzero;stroke:rgb(37,54,68);stroke-width:1px;"/>
        </g>
        <g transform="matrix(1,0,0,-1,593.403,168.355)">
            <path d="M-0.001,-0.001L4.69,0.218" style="fill:none;fill-rule:nonzero;stroke:rgb(37,54,68);stroke-width:1px;"/>
        </g>
        <g transform="matrix(1,0,0,-1,603.849,173.579)">
            <path d="M-0.001,0.001C1.159,-2.315 1.987,-4.401 8.062,-9.038C14.136,-13.671 33.14,-24.062 34.526,-24.081C38.698,-18.073 59.093,-2.55 83.651,-1.159C108.218,0.231 131.937,6.946 137.034,12.97" style="fill:none;fill-rule:nonzero;stroke:rgb(37,54,68);stroke-width:1px;"/>
        </g>
        <g transform="matrix(1,0,0,-1,742.189,168.247)">
            <path d="M0.002,0.001C-6.025,-3.941 -15.291,-9.734 -41.248,-10.199C-67.201,-10.664 -83.885,-20.628 -94.545,-31.519C-85.971,-36.152 -73.92,-31.749 -63.725,-25.261C-53.529,-18.773 -20.158,-9.117 1.853,-20.085" style="fill:none;fill-rule:nonzero;stroke:rgb(37,54,68);stroke-width:1px;"/>
        </g>
        <g transform="matrix(1,0,0,-1,745.434,206.253)">
            <path d="M0,-0.001C0,-0.001 -6.719,2.085 -18.77,6.952C-30.82,11.819 -56.309,10.233 -61.871,-5.314C-67.434,-20.856 -67.488,-25.591 -69.344,-27.907" style="fill:none;fill-rule:nonzero;stroke:rgb(37,54,68);stroke-width:1px;"/>
        </g>
        <g transform="matrix(1,0,0,-1,664.938,219.733)">
            <path d="M-0.001,-0.001C4.171,0.929 15.147,12.417 15.612,18.046C9.589,13.714 -7.099,11.628 -22.853,15.104C-30.036,7.226 -41.489,-0.653 -53.028,1.198C-58.54,2.358 -67.114,8.081 -75.923,8.929C-84.728,9.772 -99.067,5.081 -102.415,2.979" style="fill:none;fill-rule:nonzero;stroke:rgb(37,54,68);stroke-width:1px;"/>
        </g>
        <g transform="matrix(1,0,0,-1,646.486,257.259)">
            <path d="M-0.002,0.001C-3.939,0.489 -7.416,15.087 -0.002,18.333C7.416,21.575 14.834,7.72 11.854,-1.362C8.807,-10.636 -6.197,-23.843 -13.674,-1.362C-19.232,24.591 -5.33,31.306 3.014,29.802C11.354,28.298 21.553,23.896 21.783,4.892C22.014,-14.108 12.514,-31.487 -0.232,-29.636C-12.978,-27.78 -25.721,-15.964 -32.439,16.247C-35.455,30.149 -33.646,38.599 -33.646,38.599" style="fill:none;fill-rule:nonzero;stroke:rgb(37,54,68);stroke-width:1px;"/>
        </g>
        <g transform="matrix(1,0,0,-1,621.537,264.722)">
            <path d="M-0.002,-0.001C-1.932,10.733 -1.697,35.526 9.889,44.796C17.744,51.081 32.135,52.425 41.865,46.062C51.6,39.698 56.232,28.577 56.467,23.245C56.693,17.917 61.795,-8.31 48.354,-22.31C34.912,-36.31 33.307,-40.478 -0.068,-33.989C-14.678,-30.978 -36.303,-8.239 -36.303,-8.239" style="fill:none;fill-rule:nonzero;stroke:rgb(37,54,68);stroke-width:1px;"/>
        </g>
        <g transform="matrix(1,0,0,-1,680.551,201.686)">
            <path d="M0,-0.002C4.172,5.331 25.488,14.819 35.687,13.354C45.883,11.885 63.496,4.588 63.496,4.588" style="fill:none;fill-rule:nonzero;stroke:rgb(37,54,68);stroke-width:1px;"/>
        </g>
        <g transform="matrix(1,0,0,-1,728.75,125.612)">
            <path d="M0,-0.001C4.863,-9.501 15.758,-31.709 15.293,-72.048C15.758,-85.275 21.551,-91.763 21.551,-91.763C21.551,-91.763 25.027,-102.423 24.797,-104.74C24.563,-107.056 32.441,-115.4 35.223,-117.021" style="fill:none;fill-rule:nonzero;stroke:rgb(37,54,68);stroke-width:2.13px;"/>
        </g>
        <g transform="matrix(1,0,0,-1,587.396,110.627)">
            <path d="M0.002,-0.002C2.936,-1.08 10.869,-13.904 13.08,-16.994C15.295,-20.084 17.611,-18.693 17.455,-14.83C17.303,-10.971 17.463,-1.701 17.463,-1.701C17.463,-1.701 10.455,6.334 6.541,6.334C2.627,6.334 -3.861,-2.471 -4.865,-8.959" style="fill:none;fill-rule:nonzero;stroke:rgb(37,54,68);stroke-width:1px;"/>
        </g>
        <g transform="matrix(1,0,0,-1,539.139,239.621)">
            <path d="M0.002,0C-0.522,0.465 -1.275,4.055 -1.33,5.27" style="fill:none;fill-rule:nonzero;stroke:rgb(37,54,68);stroke-width:1px;"/>
        </g>
        <g transform="matrix(1,0,0,-1,565.443,378.008)">
            <path d="M0.002,0L-49.029,0L-65.486,121.215" style="fill:none;fill-rule:nonzero;stroke:rgb(167,165,165);stroke-width:1px;stroke-linecap:round;stroke-linejoin:round;"/>
        </g>
        <g transform="matrix(1,0,0,-1,634.493,335.693)">
            <path d="M-0.001,-0.002L-30.646,-0.002L-108.235,104.846" style="fill:none;fill-rule:nonzero;stroke:rgb(167,165,165);stroke-width:1px;stroke-linecap:round;stroke-linejoin:round;"/>
        </g>
        <g transform="matrix(1,0,0,-1,680.551,390.676)">
            <path d="M0,0L-81.633,0L-106.551,42.23" style="fill:none;fill-rule:nonzero;stroke:rgb(167,165,165);stroke-width:1px;stroke-linecap:round;stroke-linejoin:round;"/>
        </g>
        <g transform="matrix(1,0,0,-1,858.633,301.698)">
            <path d="M0,-0.001L-75.633,-0.001L-124.129,106.765" style="fill:none;fill-rule:nonzero;stroke:rgb(167,165,165);stroke-width:1px;stroke-linecap:round;stroke-linejoin:round;"/>
        </g>
        <g transform="matrix(1,0,0,-1,802.516,343)">
            <path d="M0,0L-38.543,0L-149.441,66.813" style="fill:none;fill-rule:nonzero;stroke:rgb(167,165,165);stroke-width:1px;stroke-linecap:round;stroke-linejoin:round;"/>
        </g>
        <g transform="matrix(1,0,0,-1,495.181,380)">
            <path d="M-0.001,0L-50.282,0L-75.181,127.156" style="fill:none;fill-rule:nonzero;stroke:rgb(167,165,165);stroke-width:1px;stroke-linecap:round;stroke-linejoin:round;"/>
        </g>
    </g>
</svg>
