<?xml version="1.0" encoding="UTF-8" standalone="no"?>
<!DOCTYPE svg PUBLIC "-//W3C//DTD SVG 1.1//EN" "http://www.w3.org/Graphics/SVG/1.1/DTD/svg11.dtd">
<svg width="100%" height="100%" viewBox="0 0 219 60" version="1.1" xmlns="http://www.w3.org/2000/svg" xmlns:xlink="http://www.w3.org/1999/xlink" xml:space="preserve" xmlns:serif="http://www.serif.com/" style="fill-rule:evenodd;clip-rule:evenodd;">
    <g transform="matrix(1,0,0,1,-19.5044,-222.277)">
        <g>
            <rect x="78.52" y="228.657" width="101.042" height="47.231" style="fill:rgb(255,198,65);fill-opacity:0.68;"/>
            <path d="M78.725,230.848C79.796,230.476 88.04,229.937 89.971,230.104C91.901,230.269 98.363,230.928 104.154,231.839C109.944,232.744 118.881,232.084 120.854,231.839C122.827,231.591 133.82,231.445 137.428,232.302C141.037,233.156 150.268,233.819 151.947,232.991C153.625,232.167 161.284,231.423 164.629,232.91C167.976,234.394 172.97,233.075 173.64,232.743C174.311,232.414 178.097,231.838 179.562,232.333" style="fill:none;fill-rule:nonzero;stroke:black;stroke-opacity:0.37;stroke-width:0.99px;"/>
            <path d="M179.561,235.248C178.638,235.579 170.913,236.627 169.151,236.627C167.388,236.627 151.106,237.123 149.177,236.627C147.246,236.132 139.4,233.715 130.882,233.602C122.364,233.491 121.901,234.151 116.237,234.396C110.572,234.644 103.355,235.471 100.878,234.231C98.403,232.992 89.383,233.9 87.326,234.563C85.27,235.223 83.172,235.792 81.703,235.22C80.235,234.643 79.489,234.803 78.518,235.22" style="fill:none;fill-rule:nonzero;stroke:black;stroke-opacity:0.37;stroke-width:0.99px;"/>
            <path d="M78.725,240.096C79.397,240.177 83.047,240.425 84.433,239.515C85.818,238.607 88.377,237.866 91.021,237.866C93.665,237.866 98.154,236.298 106.042,237.866C113.932,239.435 124.631,238.5 126.941,238.677C129.248,238.855 139.821,238.607 150.523,240.838C161.221,243.069 169.782,241.909 172.257,241.828C174.734,241.746 178.687,239.515 179.564,239.349" style="fill:none;fill-rule:nonzero;stroke:black;stroke-opacity:0.37;stroke-width:0.99px;"/>
            <path d="M179.561,243.341C178.596,243.671 175.993,245.89 171.375,246.517C166.755,247.147 155.764,246.537 154.044,246.125C152.324,245.711 137.008,243.561 135.162,243.149C133.316,242.736 112.125,241.786 109.65,242.511C107.174,243.232 89.048,243.9 87.201,244.517C85.355,245.132 84.609,242.736 78.52,244.139" style="fill:none;fill-rule:nonzero;stroke:black;stroke-opacity:0.37;stroke-width:0.99px;"/>
            <path d="M78.441,248.777C79.492,248.708 81.53,248.717 83.046,249.674C85.145,250.995 92.236,251.903 94.544,250.414C96.853,248.93 109.817,248.188 112.587,248.188C115.356,248.188 124.42,248.188 126.517,248.847C128.617,249.506 137.47,249.258 139.358,249.095C141.246,248.93 157.862,249.035 159.667,249.685C161.471,250.333 169.486,251.986 170.996,252.81C180.102,254.048 174.067,251.407 179.56,250.498" style="fill:none;fill-rule:nonzero;stroke:black;stroke-opacity:0.37;stroke-width:0.99px;"/>
            <path d="M179.561,256.248C177.043,256.664 172.802,254.546 168.687,254.297C164.577,254.049 160.003,254.188 156.395,255.273C152.786,256.363 143.764,257.052 138.854,255.22C133.945,253.39 119.594,254.085 116.867,254.19C114.139,254.297 109.608,254.378 105.117,255.534C100.628,256.692 87.83,257.85 85.061,256.031C82.291,254.216 79.027,254.216 78.519,254.464" style="fill:none;fill-rule:nonzero;stroke:black;stroke-opacity:0.37;stroke-width:0.99px;"/>
            <path d="M78.441,259.859C80.959,259.859 87.537,261.396 89.466,261.647C91.397,261.893 98.698,262.552 102.642,260.737C106.587,258.918 118.923,257.185 123.329,259.414C127.735,261.647 140.785,263.628 144.267,263.956C147.751,264.287 153.625,262.801 155.219,262.39C156.815,261.976 169.863,260.078 174.143,262.142C178.465,263.38 179.561,262.39 179.561,262.39" style="fill:none;fill-rule:nonzero;stroke:black;stroke-opacity:0.37;stroke-width:0.99px;"/>
            <path d="M179.561,266.577C177.797,266.906 167.598,267.095 164.45,266.515C161.304,265.939 144.896,267.427 139.191,269.573C133.483,271.718 125.468,273.041 119.09,270.894C112.713,268.747 99.957,267.094 96.852,266.931C93.746,266.763 86.194,265.856 85.312,265.36C84.432,264.864 79.741,264.041 78.519,266.185" style="fill:none;fill-rule:nonzero;stroke:black;stroke-opacity:0.37;stroke-width:0.99px;"/>
            <path d="M78.52,270.346C80.534,270.178 86.278,271.716 92.405,275.889" style="fill:none;fill-rule:nonzero;stroke:black;stroke-opacity:0.37;stroke-width:0.99px;"/>
            <path d="M142.423,275.889C144.136,274.703 144.674,273.427 157.262,273.427C160.843,273.537 163.08,272.763 165.038,272.547C166.996,272.324 174.782,270.784 179.561,271.334" style="fill:none;fill-rule:nonzero;stroke:black;stroke-opacity:0.37;stroke-width:0.99px;"/>
            <path d="M135.498,267.591C129.96,266.932 124.252,261.427 115.3,262.638C106.349,263.846 104.895,264.005 104.895,264.005C104.895,264.005 117.315,264.177 121.121,267.591C121.959,268.36 132.702,270.121 135.498,267.591Z" style="fill:none;fill-rule:nonzero;stroke:black;stroke-opacity:0.37;stroke-width:0.99px;"/>
        </g>
        <g>
            <path d="M31.088,229.97L57.636,229.97C62.762,229.97 66.973,235.371 66.973,238.759L66.973,265.49C66.973,269.975 62.121,274.461 59.009,274.461L29.073,274.461C25.868,274.461 21.566,270.158 21.566,266.68L21.566,238.301C21.567,236.378 24.039,229.97 31.088,229.97Z" style="fill:none;fill-rule:nonzero;stroke:rgb(37,60,73);stroke-width:1px;"/>
            <circle cx="44.087" cy="252.216" r="20.781" style="fill:none;stroke:rgb(37,60,73);stroke-width:1px;"/>
            <circle cx="44.087" cy="252.216" r="18.584" style="fill:none;stroke:rgb(37,60,73);stroke-width:0.28px;"/>
            <circle cx="44.087" cy="252.216" r="15.929" style="fill:none;stroke:rgb(37,60,73);stroke-width:1px;"/>
            <circle cx="44.087" cy="252.216" r="7.14" style="fill:none;stroke:rgb(37,60,73);stroke-width:1px;"/>
            <circle cx="61.389" cy="235.463" r="1.281" style="fill:none;stroke:rgb(37,60,73);stroke-width:0.28px;"/>
            <circle cx="26.877" cy="235.463" r="1.281" style="fill:none;stroke:rgb(37,60,73);stroke-width:0.28px;"/>
            <circle cx="61.389" cy="269.008" r="1.281" style="fill:none;stroke:rgb(37,60,73);stroke-width:0.28px;"/>
            <circle cx="26.877" cy="269.008" r="1.281" style="fill:none;stroke:rgb(37,60,73);stroke-width:0.28px;"/>
            <g>
                <path d="M27.459,235.731L26.294,235.195" style="fill:none;fill-rule:nonzero;stroke:rgb(37,60,73);stroke-width:0.28px;"/>
                <path d="M27.144,234.881L26.609,236.045" style="fill:none;fill-rule:nonzero;stroke:rgb(37,60,73);stroke-width:0.28px;"/>
            </g>
            <g>
                <path d="M61.832,235.926L60.947,235" style="fill:none;fill-rule:nonzero;stroke:rgb(37,60,73);stroke-width:0.28px;"/>
                <path d="M61.852,235.021L60.926,235.905" style="fill:none;fill-rule:nonzero;stroke:rgb(37,60,73);stroke-width:0.28px;"/>
            </g>
            <g>
                <path d="M27.517,269.052L26.236,269.008" style="fill:none;fill-rule:nonzero;stroke:rgb(37,60,73);stroke-width:0.28px;"/>
                <path d="M26.898,268.39L26.854,269.67" style="fill:none;fill-rule:nonzero;stroke:rgb(37,60,73);stroke-width:0.28px;"/>
            </g>
            <g>
                <path d="M62,269.225L60.779,268.835" style="fill:none;fill-rule:nonzero;stroke:rgb(37,60,73);stroke-width:0.28px;"/>
                <path d="M61.584,268.42L61.195,269.641" style="fill:none;fill-rule:nonzero;stroke:rgb(37,60,73);stroke-width:0.28px;"/>
            </g>
        </g>
        <g>
            <path d="M198.211,270.979C197.397,280.872 210.198,283.491 218.928,274.936C227.657,266.382 238.597,249.914 235.571,238.16C232.545,226.405 220.906,220.47 210.549,227.103C206.825,229.664 205.544,232.922 205.544,232.922C205.544,232.922 202.984,235.947 202.286,232.106" style="fill:none;fill-rule:nonzero;stroke:rgb(37,60,73);stroke-width:1px;"/>
            <path d="M220.906,266.906C220.906,266.906 234.317,256.897 231.174,237.694C229.66,229.663 217.181,224.543 211.944,233.039C206.707,241.535 213.108,247.087 213.923,247.337" style="fill:none;fill-rule:nonzero;stroke:rgb(37,60,73);stroke-width:1px;"/>
            <path d="M212.643,243.514C212.643,243.514 217.532,245.341 218.579,247.337C219.627,249.333 222.304,250.148 222.304,250.148C222.304,250.148 224.632,250.614 223.002,254.919C221.372,259.226 219.158,260.505 218.112,260.273C217.066,260.041 213.924,258.58 212.643,260.299C211.363,262.019 209.268,265.86 205.427,264.462C201.587,263.065 205.427,260.156 206.824,258.062C207.289,257.248 207.405,255.967 207.405,255.153C207.405,254.338 208.22,249.884 209.035,251.529C209.849,253.174 208.685,253.89 208.685,253.89" style="fill:none;fill-rule:nonzero;stroke:rgb(37,60,73);stroke-width:1px;"/>
            <path d="M224.863,257.014C224.863,257.014 229.047,245.027 223.58,240.139C221.255,238.16 222.535,233.738 224.397,234.552C226.259,235.366 227.306,237.229 227.54,238.625" style="fill:none;fill-rule:nonzero;stroke:rgb(37,60,73);stroke-width:1px;"/>
            <path d="M211.944,237.694C212.526,239.09 216.715,241.301 216.483,237.694" style="fill:none;fill-rule:nonzero;stroke:rgb(37,60,73);stroke-width:1px;"/>
        </g>
        <rect x="78.52" y="228.657" width="101.042" height="47.231" style="fill:none;stroke:rgb(37,60,73);stroke-width:0.99px;"/>
    </g>
</svg>
