<?xml version="1.0" encoding="UTF-8" standalone="no"?>
<!DOCTYPE svg PUBLIC "-//W3C//DTD SVG 1.1//EN" "http://www.w3.org/Graphics/SVG/1.1/DTD/svg11.dtd">
<svg width="100%" height="100%" viewBox="0 0 202 79" version="1.1" xmlns="http://www.w3.org/2000/svg" xmlns:xlink="http://www.w3.org/1999/xlink" xml:space="preserve" xmlns:serif="http://www.serif.com/" style="fill-rule:evenodd;clip-rule:evenodd;stroke-miterlimit:10;">
    <g transform="matrix(1,0,0,1,-17.3451,-188.068)">
        <g id="pane03">
            <path d="M40.724,193.093C40,199 42,205 45,210L45,214C50,218 55,220 61,223C62,224 63,225 64,226C69,229 75,231 76,236C79,243 75,250 69,254C69,254 68,253 67,252C66,251 67,249 68.955,247.792C67.256,249.563 67.832,248.875 68.955,247.792C67,250 64,252 60,252C61,249 64,248 66,245C67,242 67,238 64,236C60,233 56,231 51,232C44,234 47,242 50,246C47,248 54,251 47,251C44,251 43,247 41,244C40,241 40,239 40,236C39,232 36,229 35,226C32,214 29,203 22.37,193.164" style="fill:none;fill-rule:nonzero;stroke:rgb(57,104,135);stroke-width:1px;"/>
            <path d="M38.734,214.072C38.806,213.964 43.585,212.706 44.484,213.425" style="fill:none;fill-rule:nonzero;stroke:rgb(57,104,135);stroke-width:1px;"/>
            <path d="M39.596,229.776C39.596,229.668 39.812,227.548 41.357,227.692C42.902,227.836 43.477,228.447 43.477,228.447" style="fill:none;fill-rule:nonzero;stroke:rgb(57,104,135);stroke-width:1px;"/>
            <path d="M49.766,232.184C49.766,232.184 52.569,233.657 53.252,233.729C53.935,233.801 56.702,237.215 56.989,237.287C57.276,237.359 58.355,241.204 58.965,241.563C59.575,241.922 58.785,244.833 58.785,245.732C58.785,246.631 56.054,249.146 55.946,249.901C55.838,250.656 55.73,252.021 55.91,252.237C56.09,252.453 58.174,251.662 59.54,250.476C60.906,249.29 62.091,247.35 62.235,247.062C62.379,246.774 62.487,246.2 62.666,245.66C62.846,245.121 63.996,243.252 63.996,242.498C63.996,241.744 63.78,241.025 63.134,239.659C62.487,238.293 61.732,236.173 61.804,235.922C61.876,235.671 62.02,234.844 62.271,235.024" style="fill:none;fill-rule:nonzero;stroke:rgb(57,104,135);stroke-width:1px;"/>
            <path d="M61.122,225.859C61.122,225.859 63.889,226.039 64.967,228.015C66.045,229.991 73.699,238.005 73.951,238.616C74.203,239.227 73.987,239.335 73.556,240.018C73.125,240.701 70.465,246.055 70.214,246.451C69.962,246.846 69.316,247.565 69.028,247.673" style="fill:none;fill-rule:nonzero;stroke:rgb(57,104,135);stroke-width:1px;"/>
            <path d="M72.406,246.307C72.406,246.307 70.789,245.804 70.645,245.876" style="fill:none;fill-rule:nonzero;stroke:rgb(57,104,135);stroke-width:1px;"/>
            <path d="M68.848,239.084C68.848,239.084 66.332,239.048 66.225,239.551" style="fill:none;fill-rule:nonzero;stroke:rgb(57,104,135);stroke-width:1px;"/>
            <path d="M66.8,245.552C66.8,245.552 65.973,244.905 65.686,245.157" style="fill:none;fill-rule:nonzero;stroke:rgb(57,104,135);stroke-width:1px;"/>
            <path d="M41.106,242.606C41.106,242.498 43.586,239.947 45.131,240.522" style="fill:none;fill-rule:nonzero;stroke:rgb(57,104,135);stroke-width:1px;"/>
            <path d="M43.909,248.032C43.909,248.032 44.34,246.343 45.634,246.738C46.928,247.133 49.299,249.936 49.335,250.332C49.371,250.727 49.371,251.123 49.371,251.123" style="fill:none;fill-rule:nonzero;stroke:rgb(57,104,135);stroke-width:1px;"/>
            <path d="M55.875,251.769C55.875,251.769 57.887,249.864 58.534,250.044C59.181,250.224 59.253,250.547 59.253,250.547" style="fill:none;fill-rule:nonzero;stroke:rgb(57,104,135);stroke-width:1px;"/>
            <path d="M60.547,251.841C60.547,251.841 64.356,250.116 64.68,250.404C65.004,250.692 65.039,251.159 65.039,251.159" style="fill:none;fill-rule:nonzero;stroke:rgb(57,104,135);stroke-width:1px;"/>
            <path d="M67.483,253.171C67.483,253.171 70.466,250.368 71.436,250.512C72.406,250.656 71.795,251.015 71.795,251.015" style="fill:none;fill-rule:nonzero;stroke:rgb(57,104,135);stroke-width:1px;"/>
            <path d="M57.133,237.359C57.133,237.359 59.253,237.826 60.044,237.179" style="fill:none;fill-rule:nonzero;stroke:rgb(57,104,135);stroke-width:1px;"/>
            <path d="M59.146,241.599C59.146,241.599 61.59,242.246 61.769,241.707" style="fill:none;fill-rule:nonzero;stroke:rgb(57,104,135);stroke-width:1px;"/>
            <path d="M58.858,245.948C58.858,245.948 60.224,246.415 60.367,246.164" style="fill:none;fill-rule:nonzero;stroke:rgb(57,104,135);stroke-width:1px;"/>
            <path d="M43.441,253.207L52.641,253.207" style="fill:none;fill-rule:nonzero;stroke:rgb(57,104,135);stroke-width:1px;"/>
            <path d="M53.647,252.596L58.139,252.596" style="fill:none;fill-rule:nonzero;stroke:rgb(57,104,135);stroke-width:1px;"/>
            <path d="M59.828,252.883L64.464,252.883" style="fill:none;fill-rule:nonzero;stroke:rgb(57,104,135);stroke-width:1px;"/>
            <path d="M65.722,254.249L72.658,254.249" style="fill:none;fill-rule:nonzero;stroke:rgb(57,104,135);stroke-width:1px;"/>
            <path d="M175.843,252.283C175.029,262.175 187.83,264.794 196.56,256.24C205.288,247.686 216.229,231.218 213.202,219.464C210.176,207.709 198.537,201.773 188.18,208.407C184.456,210.968 183.175,214.226 183.175,214.226C183.175,214.226 180.615,217.252 179.917,213.411" style="fill:none;fill-rule:nonzero;stroke:rgb(48,104,136);stroke-width:1px;"/>
            <path d="M198.538,248.21C198.538,248.21 211.949,238.201 208.807,218.998C207.293,210.967 194.813,205.847 189.576,214.343C184.339,222.839 190.74,228.391 191.555,228.641" style="fill:none;fill-rule:nonzero;stroke:rgb(48,104,136);stroke-width:1px;"/>
            <path d="M190.274,224.817C190.274,224.817 195.163,226.644 196.21,228.64C197.257,230.636 199.934,231.451 199.934,231.451C199.934,231.451 202.262,231.917 200.632,236.222C199.003,240.529 196.789,241.808 195.743,241.576C194.697,241.343 191.554,239.882 190.274,241.602C188.994,243.322 186.899,247.163 183.058,245.765C179.218,244.369 183.058,241.46 184.456,239.365C184.92,238.55 185.037,237.27 185.037,236.456C185.037,235.64 185.852,231.187 186.667,232.832C187.481,234.476 186.317,235.193 186.317,235.193" style="fill:none;fill-rule:nonzero;stroke:rgb(48,104,136);stroke-width:1px;"/>
            <path d="M202.495,238.317C202.495,238.317 206.679,226.33 201.212,221.442C198.887,219.463 200.167,215.041 202.029,215.855C203.891,216.67 204.938,218.532 205.172,219.928" style="fill:none;fill-rule:nonzero;stroke:rgb(48,104,136);stroke-width:1px;"/>
            <path d="M189.576,218.998C190.158,220.394 194.347,222.605 194.115,218.998" style="fill:none;fill-rule:nonzero;stroke:rgb(48,104,136);stroke-width:1px;"/>
        </g>
    </g>
</svg>
