<?xml version="1.0" encoding="UTF-8" standalone="no"?>
<!DOCTYPE svg PUBLIC "-//W3C//DTD SVG 1.1//EN" "http://www.w3.org/Graphics/SVG/1.1/DTD/svg11.dtd">
<svg width="100%" height="100%" viewBox="0 0 222 92" version="1.1" xmlns="http://www.w3.org/2000/svg" xmlns:xlink="http://www.w3.org/1999/xlink" xml:space="preserve" xmlns:serif="http://www.serif.com/" style="fill-rule:evenodd;clip-rule:evenodd;stroke-miterlimit:10;">
    <g transform="matrix(1,0,0,1,1.96094,-375.719)">
        <g id="pane05">
            <path d="M3.064,425.202C9,427 16,425 21.693,425.092C14.768,432.176 18.701,424.752 21.693,425.092C14.768,432.176 20.38,441.739 24.633,448.948C26.538,452.178 27.773,453.516 24.744,456.901C21.453,460.579 16.596,457.851 12.414,458.166" style="fill:none;fill-rule:nonzero;stroke:rgb(48,104,136);stroke-width:1px;"/>
            <path d="M22.098,425.199C22.098,425.199 27.235,424.077 28.06,423.672C28.885,423.267 31.186,420.68 32.126,420.362C33.066,420.043 38.221,416.311 39.041,415.578C39.86,414.845 40.904,414.676 41.93,414.961C42.956,415.246 47.708,415.883 48.32,415.569C48.932,415.256 49.829,415.354 50.171,415.449C50.513,415.544 53.095,414.642 53.693,414.228C54.291,413.814 55.395,412.774 55.619,412.619C55.843,412.464 57.467,413.054 57.461,414.163C57.455,415.272 56.675,418.299 55.137,419.032C53.599,419.765 52.664,420.411 52.437,420.402C52.21,420.393 54.59,420.957 54.989,422.174C55.388,423.39 55.724,423.876 55.434,424.574C55.143,425.272 55.023,425.577 54.796,425.568C54.569,425.559 54.132,425.806 54.132,425.806C54.132,425.806 56.673,425.485 57.11,425.956C57.11,425.956 58.679,427.026 58.449,428.291C58.219,429.556 57.868,429.688 57.733,429.892C57.598,430.096 58.733,431.577 58.741,432.068C58.749,432.56 58.378,434.06 58.298,434.503C58.217,434.946 54.649,436.779 54.376,437.023C54.103,437.267 54.635,437.397 54.646,438.052C54.657,438.707 54.83,439.196 54.496,439.593C54.162,439.99 51.454,442.306 51.212,442.915C50.97,443.524 50.295,443.826 49.829,443.872C49.363,443.918 43.861,443.634 43.608,443.588C43.355,443.542 38.126,443.014 37.643,442.796C37.16,442.577 36.441,442.577 35.858,442.373C35.275,442.169 33.817,441.021 33.11,440.958C32.403,440.895 29.344,441.187 28.853,441.195C28.361,441.203 24.952,443.065 24.423,443.1C23.894,443.134 19.038,437.872 18.616,435.345" style="fill:none;fill-rule:nonzero;stroke:rgb(48,104,136);stroke-width:1px;"/>
            <path d="M38.741,419.377C38.741,419.377 41.837,419.777 43.202,419.994C44.567,420.21 46.735,420.147 47.298,419.923C47.861,419.699 48.908,419.694 49.313,419.8C49.718,419.906 52.541,420.551 52.541,420.551" style="fill:none;fill-rule:nonzero;stroke:rgb(48,104,136);stroke-width:1px;"/>
            <path d="M40.127,426.653C40.127,426.653 44.531,426.867 45.62,426.445C46.71,426.023 49.607,425.179 50.366,425.317C51.125,425.455 52.723,425.289 53.333,425.531C53.942,425.773 54.9,425.718 54.9,425.718" style="fill:none;fill-rule:nonzero;stroke:rgb(48,104,136);stroke-width:1px;"/>
            <path d="M41.39,433.351C41.39,433.351 46.639,432.151 47.712,432.183C48.784,432.215 51.073,431.848 51.797,431.457C52.522,431.066 55.934,430.806 56.471,430.544C57.009,430.283 57.733,429.892 57.733,429.892" style="fill:none;fill-rule:nonzero;stroke:rgb(48,104,136);stroke-width:1px;"/>
            <path d="M43.066,433.297C43.066,433.297 44.877,433.039 45.972,432.944C47.067,432.849 50.678,432.396 51.192,432.261C51.707,432.126 53.19,431.874 54.228,431.377C54.433,431.279 55.05,430.808 55.188,430.768C55.326,430.728 57.557,429.958 57.557,429.958" style="fill:none;fill-rule:nonzero;stroke:rgb(48,104,136);stroke-width:1px;"/>
            <path d="M41.905,439.13C41.905,439.13 43.892,438.087 45.156,438.317C46.42,438.547 50.451,438.301 51.279,438.06C52.107,437.819 54.375,437.023 54.375,437.023" style="fill:none;fill-rule:nonzero;stroke:rgb(48,104,136);stroke-width:1px;"/>
            <path d="M46.12,438.59L46.694,439.022L48.891,438.442" style="fill:none;fill-rule:nonzero;stroke:rgb(48,104,136);stroke-width:1px;"/>
            <path d="M33.951,421.641C33.827,421.782 33.09,425.11 33.484,425.999" style="fill:none;fill-rule:nonzero;stroke:rgb(48,104,136);stroke-width:1px;"/>
            <path d="M33.523,429.73C33.359,429.733 32.482,432.219 33.789,433.47" style="fill:none;fill-rule:nonzero;stroke:rgb(48,104,136);stroke-width:1px;"/>
            <path d="M35.381,435.132C35.381,435.132 34.972,437.018 36.148,437.918" style="fill:none;fill-rule:nonzero;stroke:rgb(48,104,136);stroke-width:1px;"/>
            <path d="M37.458,440.051C37.334,440.192 37.86,442.15 38.619,442.288" style="fill:none;fill-rule:nonzero;stroke:rgb(48,104,136);stroke-width:1px;"/>
            <path d="M36.166,433.87C36.316,433.767 39.044,431.879 41.131,431.54" style="fill:none;fill-rule:nonzero;stroke:rgb(48,104,136);stroke-width:1px;"/>
            <path d="M37.312,438.881C37.45,438.841 38.937,438.741 40.248,438C41.559,437.259 45.113,436.543 45.415,436.5" style="fill:none;fill-rule:nonzero;stroke:rgb(48,104,136);stroke-width:1px;"/>
            <path d="M39.102,442.506C39.102,442.506 40.841,442.463 41.977,442.507C43.112,442.55 46.447,442.896 46.726,442.98" style="fill:none;fill-rule:nonzero;stroke:rgb(48,104,136);stroke-width:1px;"/>
            <path d="M50.569,420.976C50.569,420.976 52.365,422.055 51.859,423.4C51.353,424.745 51.071,424.498 51.071,424.498" style="fill:none;fill-rule:nonzero;stroke:rgb(48,104,136);stroke-width:1px;"/>
            <path d="M51.663,426.631C51.663,426.631 53.792,428.75 53.082,429.96" style="fill:none;fill-rule:nonzero;stroke:rgb(48,104,136);stroke-width:1px;"/>
            <path d="M51.896,433.599C51.896,433.599 52.697,436.914 52.363,437.31" style="fill:none;fill-rule:nonzero;stroke:rgb(48,104,136);stroke-width:1px;"/>
            <path d="M20.251,438.746C20.251,438.746 23.71,444.146 25.251,444.295C26.792,444.445 28.957,442.063 29.015,441.746C29.073,441.43 29.409,441.197 29.464,441.436C29.519,441.675 29.167,443.244 28.362,444.077C27.557,444.91 25.395,445.301 24.88,445.436C24.365,445.571 23.115,446.16 23.115,446.16" style="fill:none;fill-rule:nonzero;stroke:rgb(48,104,136);stroke-width:1px;"/>
            <path d="M46.265,415.553C46.265,415.553 46.089,409.706 49.786,406.982C53.484,404.258 58.698,403.966 62.351,406.69C66.004,409.413 68.926,412.918 69.606,417.256C70.286,421.594 69.091,426.897 66.392,428.986C63.693,431.075 60.173,431.741 58.23,430.93" style="fill:none;fill-rule:nonzero;stroke:rgb(48,104,136);stroke-width:1px;"/>
            <path d="M58.632,433.029C58.632,433.029 61.113,433.579 62.642,433.073C64.171,432.568 66.377,431.042 67.814,429.605C69.251,428.168 71.038,423.561 71.025,421.304C71.011,419.047 71.105,414.948 69.406,412.254C67.708,409.56 66.731,408.467 66.731,408.467L59.879,403.756C59.879,403.756 53.76,401.302 50.028,404.216C46.296,407.13 44.636,411.76 44.503,414.284C44.37,416.808 44.615,415.644 44.615,415.644" style="fill:none;fill-rule:nonzero;stroke:rgb(48,104,136);stroke-width:1px;"/>
            <path d="M31.136,441.219C31.136,441.219 35.811,449.094 38.296,451.409C40.782,453.724 45.012,457.042 51.198,458.234C57.384,459.426 56.601,460.852 57.521,461.542C58.441,462.232 58.783,461.608 58.783,461.608L59.866,454.945C59.866,454.945 46.246,446.682 43.573,443.778" style="fill:none;fill-rule:nonzero;stroke:rgb(48,104,136);stroke-width:1px;"/>
            <path d="M35.876,442.638C35.876,442.638 48.907,451.806 49.657,452.171C50.407,452.536 50.58,452.306 50.436,452.019C50.292,451.732 37.989,443.055 37.989,443.055" style="fill:none;fill-rule:nonzero;stroke:rgb(48,104,136);stroke-width:1px;"/>
            <g transform="matrix(0.8224,-0.569,0.569,0.8224,-247.458,100.067)">
                <ellipse cx="36.526" cy="446.333" rx="0.659" ry="0.864" style="fill:none;"/>
            </g>
            <g transform="matrix(0.8224,-0.569,0.569,0.8224,-247.053,99.9879)">
                <ellipse cx="36.603" cy="445.645" rx="0.977" ry="0.886" style="fill:none;stroke:rgb(48,104,136);stroke-width:1px;"/>
            </g>
            <g transform="matrix(0.8224,-0.569,0.569,0.8224,-247.483,101.508)">
                <ellipse cx="38.821" cy="447.094" rx="0.977" ry="0.932" style="fill:none;stroke:rgb(48,104,136);stroke-width:1px;"/>
            </g>
            <g transform="matrix(0.8224,-0.569,0.569,0.8224,-248.038,103.033)">
                <ellipse cx="40.987" cy="448.746" rx="1.045" ry="0.886" style="fill:none;stroke:rgb(48,104,136);stroke-width:1px;"/>
            </g>
            <g transform="matrix(0.8224,-0.569,0.569,0.8224,-248.486,104.575)">
                <ellipse cx="43.231" cy="450.233" rx="1.045" ry="0.841" style="fill:none;stroke:rgb(48,104,136);stroke-width:1px;"/>
            </g>
            <g transform="matrix(0.8224,-0.569,0.569,0.8224,-249.04,106.032)">
                <ellipse cx="45.289" cy="451.849" rx="1.045" ry="0.841" style="fill:none;stroke:rgb(48,104,136);stroke-width:1px;"/>
            </g>
            <g transform="matrix(0.8224,-0.569,0.569,0.8224,-249.606,107.704)">
                <ellipse cx="47.683" cy="453.592" rx="1.068" ry="0.773" style="fill:none;stroke:rgb(48,104,136);stroke-width:1px;"/>
            </g>
            <path d="M66.276,381.056C64,388 59,393 57,400C60,404 65,409 70,409C74,400 79,392 82.497,382.527" style="fill:none;fill-rule:nonzero;stroke:rgb(48,104,136);stroke-width:1px;"/>
            <path d="M57.742,398.991C57.742,398.991 68.738,407.135 69.767,407.584C70.796,408.033 70.322,407.587 70.322,407.587L70.405,407.308C70.405,407.308 58.489,399.192 58.041,398.784C57.593,398.375 57.742,398.991 57.742,398.991Z" style="fill:none;fill-rule:nonzero;stroke:rgb(48,104,136);stroke-width:1px;"/>
            <path d="M59.18,396.116C59.18,396.116 70.176,404.26 71.205,404.709C72.234,405.158 71.76,404.712 71.76,404.712L71.843,404.433C71.843,404.433 59.927,396.317 59.479,395.909C59.031,395.501 59.18,396.116 59.18,396.116Z" style="fill:none;fill-rule:nonzero;stroke:rgb(48,104,136);stroke-width:1px;"/>
            <path d="M60.774,393.467C60.774,393.467 71.77,401.611 72.799,402.06C73.828,402.509 73.354,402.063 73.354,402.063L73.437,401.784C73.437,401.784 61.521,393.668 61.073,393.26C60.624,392.851 60.774,393.467 60.774,393.467Z" style="fill:none;fill-rule:nonzero;stroke:rgb(48,104,136);stroke-width:1px;"/>
            <path d="M62.407,390.236C62.407,390.236 73.403,398.38 74.432,398.829C75.461,399.278 74.987,398.832 74.987,398.832L75.07,398.553C75.07,398.553 63.154,390.437 62.706,390.029C62.258,389.621 62.407,390.236 62.407,390.236Z" style="fill:none;fill-rule:nonzero;stroke:rgb(48,104,136);stroke-width:1px;"/>
            <path d="M64.018,386.413C64.018,386.413 75.014,394.557 76.043,395.006C77.072,395.455 76.598,395.009 76.598,395.009L76.681,394.73C76.681,394.73 64.765,386.614 64.317,386.206C63.869,385.798 64.018,386.413 64.018,386.413Z" style="fill:none;fill-rule:nonzero;stroke:rgb(48,104,136);stroke-width:1px;"/>
            <path d="M65.615,382.49C65.615,382.49 76.611,390.634 77.64,391.083C78.669,391.532 78.195,391.086 78.195,391.086L78.278,390.807C78.278,390.807 66.362,382.691 65.914,382.283C65.466,381.875 65.615,382.49 65.615,382.49Z" style="fill:none;fill-rule:nonzero;stroke:rgb(48,104,136);stroke-width:1px;"/>
            <path d="M50.171,415.448C55.788,403.924 61.405,392.4 67.021,380.876" style="fill:none;fill-rule:nonzero;stroke:rgb(48,104,136);stroke-width:1px;"/>
            <path d="M53.595,414.406C58.83,403.185 64.066,391.965 69.301,380.744" style="fill:none;fill-rule:nonzero;stroke:rgb(48,104,136);stroke-width:1px;"/>
            <path d="M57.174,413.588C62.214,402.74 67.255,391.892 72.295,381.044" style="fill:none;fill-rule:nonzero;stroke:rgb(48,104,136);stroke-width:1px;"/>
            <path d="M54.387,419.385L53.774,421.135" style="fill:none;fill-rule:nonzero;stroke:rgb(48,104,136);stroke-width:1px;"/>
            <path d="M55.337,423.315C61.88,409.284 68.424,395.253 74.967,381.222" style="fill:none;fill-rule:nonzero;stroke:rgb(48,104,136);stroke-width:1px;"/>
            <path d="M57.061,426.046C64.03,411.119 70.999,396.193 77.967,381.266" style="fill:none;fill-rule:nonzero;stroke:rgb(48,104,136);stroke-width:1px;"/>
            <path d="M58.063,430.769C65,414 74,398 81.162,381.184" style="fill:none;fill-rule:nonzero;stroke:rgb(48,104,136);stroke-width:1px;"/>
            <path d="M37.048,444.811L37.543,442.811" style="fill:none;fill-rule:nonzero;stroke:rgb(48,104,136);stroke-width:1px;"/>
            <path d="M39.282,446.361L40.188,443.358" style="fill:none;fill-rule:nonzero;stroke:rgb(48,104,136);stroke-width:1px;"/>
            <path d="M41.397,447.661L42.979,443.637" style="fill:none;fill-rule:nonzero;stroke:rgb(48,104,136);stroke-width:1px;"/>
            <path d="M43.696,449.387L45.871,443.903" style="fill:none;fill-rule:nonzero;stroke:rgb(48,104,136);stroke-width:1px;"/>
            <path d="M45.739,450.902L48.835,443.952" style="fill:none;fill-rule:nonzero;stroke:rgb(48,104,136);stroke-width:1px;"/>
            <path d="M48.202,452.625L53.093,440.84" style="fill:none;fill-rule:nonzero;stroke:rgb(48,104,136);stroke-width:1px;"/>
            <path d="M54.491,437.828L55.138,436.607" style="fill:none;fill-rule:nonzero;stroke:rgb(48,104,136);stroke-width:1px;"/>
            <path d="M81.033,386.082C81.033,386.082 81.944,386.281 81.835,386.522C81.726,386.763 74.802,400.562 80.222,407.037C85.642,413.512 89.511,414.152 93.983,416.142C98.455,418.132 102.39,419.666 99.106,424.425C95.822,429.184 87.563,430.588 84.764,436.448C81.965,442.308 81.59,462.272 81.581,462.499" style="fill:none;fill-rule:nonzero;stroke:rgb(48,104,136);stroke-width:1px;"/>
            <path d="M6.333,424.562C10,415 21,412 30,405C36,401 30,391 33.298,384.091" style="fill:none;fill-rule:nonzero;stroke:rgb(48,104,136);stroke-width:1px;"/>
            <path d="M176.757,440.95C175.943,450.842 188.744,453.461 197.474,444.907C206.202,436.353 217.143,419.885 214.116,408.131C211.09,396.376 199.451,390.44 189.094,397.074C185.37,399.635 184.089,402.893 184.089,402.893C184.089,402.893 181.529,405.919 180.831,402.078" style="fill:none;fill-rule:nonzero;stroke:rgb(48,104,136);stroke-width:1px;"/>
            <path d="M199.452,436.876C199.452,436.876 212.863,426.867 209.721,407.664C208.207,399.633 195.727,394.513 190.49,403.009C185.253,411.505 191.654,417.057 192.469,417.307" style="fill:none;fill-rule:nonzero;stroke:rgb(48,104,136);stroke-width:1px;"/>
            <path d="M191.188,413.484C191.188,413.484 196.077,415.311 197.124,417.307C198.171,419.303 200.848,420.118 200.848,420.118C200.848,420.118 203.176,420.584 201.546,424.889C199.917,429.196 197.703,430.475 196.657,430.243C195.611,430.01 192.468,428.549 191.188,430.269C189.908,431.989 187.813,435.83 183.972,434.432C180.132,433.036 183.972,430.127 185.37,428.032C185.834,427.217 185.951,425.937 185.951,425.123C185.951,424.307 186.766,419.854 187.581,421.499C188.395,423.143 187.231,423.86 187.231,423.86" style="fill:none;fill-rule:nonzero;stroke:rgb(48,104,136);stroke-width:1px;"/>
            <path d="M203.409,426.984C203.409,426.984 207.593,414.997 202.126,410.109C199.801,408.13 201.081,403.708 202.943,404.522C204.805,405.337 205.852,407.199 206.086,408.595" style="fill:none;fill-rule:nonzero;stroke:rgb(48,104,136);stroke-width:1px;"/>
            <path d="M190.49,407.664C191.072,409.06 195.261,411.271 195.029,407.664" style="fill:none;fill-rule:nonzero;stroke:rgb(48,104,136);stroke-width:1px;"/>
        </g>
    </g>
</svg>
