<?xml version="1.0" encoding="UTF-8" standalone="no"?>
<!DOCTYPE svg PUBLIC "-//W3C//DTD SVG 1.1//EN" "http://www.w3.org/Graphics/SVG/1.1/DTD/svg11.dtd">
<svg width="100%" height="100%" viewBox="0 0 213 96" version="1.1" xmlns="http://www.w3.org/2000/svg" xmlns:xlink="http://www.w3.org/1999/xlink" xml:space="preserve" xmlns:serif="http://www.serif.com/" style="fill-rule:evenodd;clip-rule:evenodd;stroke-miterlimit:10;">
    <g transform="matrix(1,0,0,1,-6.85006,0.0249378)">
        <g id="pane01">
            <path d="M117.167,89L94,69.333C94,69.333 84.375,61.583 84.875,61.083C85.375,60.583 84.125,56.708 84.125,56.708L70,44.458C70,44.458 69,40.583 62,40.458C55.117,40.335 49.848,49.777 49,54.833L38,40.5C38,40.5 37.625,40.458 41.625,39.708C45.625,38.958 49.375,38.646 50.875,38.521C52.375,38.396 58.063,41.271 58.063,41.271" style="fill:none;fill-rule:nonzero;stroke:rgb(48,104,136);stroke-width:1px;"/>
            <path d="M63.375,72.896L64.375,73.958C64.375,73.958 69.5,76.333 71,75.208C72.5,74.083 87.833,89.833 87.833,89.833" style="fill:none;fill-rule:nonzero;stroke:rgb(48,104,136);stroke-width:1px;"/>
            <path d="M48.688,54.396L61.25,69.833L60.25,68.917" style="fill:none;fill-rule:nonzero;stroke:rgb(48,104,136);stroke-width:1px;"/>
            <path d="M60.25,68.167C59.721,69.578 62.438,53.021 78.188,51.646" style="fill:none;fill-rule:nonzero;stroke:rgb(48,104,136);stroke-width:1px;"/>
            <path d="M51.75,57.646C51.75,57.646 52.563,52.458 54.563,50.646L60.563,57.396C60.563,57.396 56.709,62.875 57.584,65" style="fill:none;fill-rule:nonzero;stroke:rgb(48,104,136);stroke-width:1px;"/>
            <path d="M70.313,44.583C70.313,44.583 61.938,42.521 59.188,45.833L64.876,51.771C64.876,51.771 69.126,46.833 75.439,49.458" style="fill:none;fill-rule:nonzero;stroke:rgb(48,104,136);stroke-width:1px;"/>
            <path d="M39.188,39.896L52.938,45.521" style="fill:none;fill-rule:nonzero;stroke:rgb(48,104,136);stroke-width:1px;"/>
            <path d="M71.313,75.021C71.313,75.021 71.438,67.708 75.938,63.958C80.438,60.208 84.876,61.396 84.876,61.396" style="fill:none;fill-rule:nonzero;stroke:rgb(48,104,136);stroke-width:1px;"/>
            <path d="M78.938,80.798C78.938,80.798 79.061,73.653 83.488,69.989C87.915,66.325 91.875,67.543 91.875,67.543" style="fill:none;fill-rule:nonzero;stroke:rgb(48,104,136);stroke-width:1px;"/>
            <path d="M81.958,83.75C81.958,83.75 82.081,76.55 86.519,72.858C90.957,69.166 95.333,70.335 95.333,70.335" style="fill:none;fill-rule:nonzero;stroke:rgb(48,104,136);stroke-width:1px;"/>
            <ellipse cx="51.813" cy="72.083" rx="1.063" ry="3.25" style="fill:none;stroke:rgb(48,104,136);stroke-width:1px;"/>
            <path d="M62.125,69.521C62.125,69.521 63.25,69.833 64.063,71.771C64.523,72.868 63.313,73.458 63,73.521C62.687,73.583 60.625,73.271 60.625,73.271L59.375,72.521L57.312,72.583L57.124,70.833L59.562,70.833L62.125,69.521Z" style="fill:none;fill-rule:nonzero;stroke:rgb(48,104,136);stroke-width:1px;"/>
            <path d="M51.813,68.833L55.313,69.146L56.688,70.771C56.688,70.771 57.188,72.521 56.876,72.833C56.563,73.146 55.501,75.146 55.501,75.146L51.813,75.333" style="fill:none;fill-rule:nonzero;stroke:rgb(48,104,136);stroke-width:1px;"/>
            <path d="M60.125,70.458C60.125,70.458 61.125,71.208 60.563,72.458" style="fill:none;fill-rule:nonzero;stroke:rgb(48,104,136);stroke-width:1px;"/>
            <path d="M42.65,62.087C42.65,62.087 41.937,63.053 42.394,63.536C42.851,64.019 48.823,64.786 49.19,64.584C49.557,64.382 49.897,61.867 49.438,61.322C48.979,60.777 42.571,61.653 42.398,62.035" style="fill:none;fill-rule:nonzero;stroke:rgb(48,104,136);stroke-width:1px;"/>
            <path d="M50,61.896C50,61.896 50.875,60.396 51.063,60.333C51.251,60.271 52.688,60.521 52.688,60.521C52.688,60.521 53.688,63.583 53.001,64.271C52.313,64.958 50.876,64.646 50.876,64.646L49.876,63.521L50,61.896Z" style="fill:none;fill-rule:nonzero;stroke:rgb(48,104,136);stroke-width:1px;"/>
            <path d="M53.563,63.583L55.688,63.521L54.125,61.396L53.25,61.521L53.563,63.583Z" style="fill:none;fill-rule:nonzero;stroke:rgb(48,104,136);stroke-width:1px;"/>
            <path d="M25.188,40.521C25.188,40.521 27.313,37.708 31.438,38.271C35.563,38.833 36.376,39.646 38.626,39.583C40.876,39.521 54.376,38.583 55.876,38.083C57.376,37.583 61.314,34.396 62.001,32.396" style="fill:none;fill-rule:nonzero;stroke:rgb(48,104,136);stroke-width:1px;"/>
            <path d="M24.718,35.31C24.718,35.31 25.106,41.187 26.448,45.126" style="fill:none;fill-rule:nonzero;stroke:rgb(48,104,136);stroke-width:1px;"/>
            <path d="M11.875,61.146C11.875,61.146 28.688,72.958 39.563,71.083C50.16,69.256 52.126,65.083 52.313,64.833" style="fill:none;fill-rule:nonzero;stroke:rgb(48,104,136);stroke-width:1px;"/>
            <path d="M70,8.083C70,8.083 70,25.833 66,31.833C66,31.833 63.375,37.958 62.687,39.208C61.999,40.458 62,40.458 62,40.458" style="fill:none;fill-rule:nonzero;stroke:rgb(48,104,136);stroke-width:1px;"/>
            <path d="M36.333,10.5C36.333,10.5 32.166,16.167 33.5,17.667C34.834,19.167 38.167,18.167 38.333,16.167C38.5,14.167 43.5,13.667 44.833,14.667C46.166,15.667 50.833,20.5 54.666,19.5C58.068,18.613 62.833,16.333 61.999,12.333C61.165,8.333 59.167,5 59.167,5" style="fill:none;fill-rule:nonzero;stroke:rgb(48,104,136);stroke-width:1px;"/>
            <path d="M176.843,63.283C176.029,73.175 188.83,75.794 197.56,67.24C206.288,58.686 217.229,42.218 214.202,30.464C211.176,18.709 199.537,12.773 189.18,19.407C185.456,21.968 184.175,25.226 184.175,25.226C184.175,25.226 181.615,28.252 180.917,24.411" style="fill:none;fill-rule:nonzero;stroke:rgb(48,104,136);stroke-width:1px;"/>
            <path d="M199.538,59.21C199.538,59.21 212.949,49.201 209.807,29.998C208.293,21.967 195.813,16.847 190.576,25.343C185.339,33.839 191.74,39.391 192.555,39.641" style="fill:none;fill-rule:nonzero;stroke:rgb(48,104,136);stroke-width:1px;"/>
            <path d="M191.274,35.817C191.274,35.817 196.163,37.644 197.21,39.64C198.257,41.636 200.934,42.451 200.934,42.451C200.934,42.451 203.262,42.917 201.632,47.222C200.003,51.529 197.789,52.808 196.743,52.576C195.697,52.343 192.554,50.882 191.274,52.602C189.994,54.322 187.899,58.163 184.058,56.765C180.218,55.369 184.058,52.46 185.456,50.365C185.92,49.55 186.037,48.27 186.037,47.456C186.037,46.64 186.852,42.187 187.667,43.832C188.481,45.476 187.317,46.193 187.317,46.193" style="fill:none;fill-rule:nonzero;stroke:rgb(48,104,136);stroke-width:1px;"/>
            <path d="M203.495,49.317C203.495,49.317 207.679,37.33 202.212,32.442C199.887,30.463 201.167,26.041 203.029,26.855C204.891,27.67 205.938,29.532 206.172,30.928" style="fill:none;fill-rule:nonzero;stroke:rgb(48,104,136);stroke-width:1px;"/>
            <path d="M190.576,29.998C191.158,31.394 195.347,33.605 195.115,29.998" style="fill:none;fill-rule:nonzero;stroke:rgb(48,104,136);stroke-width:1px;"/>
            <path d="M63.333,8C63.333,8 67.166,11.417 66.833,12.083C65.197,15.355 62.137,13.02 62,12.333" style="fill:none;fill-rule:nonzero;stroke:rgb(48,104,136);stroke-width:1px;"/>
            <path d="M26.333,39.667C26.333,39.667 36.666,42.667 38.666,43.334C40.666,44.001 40.333,43.334 40.333,43.334" style="fill:none;fill-rule:nonzero;stroke:rgb(48,104,136);stroke-width:1px;"/>
            <path d="M61,34.167C61,34.167 58,40 56.833,40.334" style="fill:none;fill-rule:nonzero;stroke:rgb(48,104,136);stroke-width:1px;"/>
            <path d="M30.5,15.333C30.5,15.333 16.333,33.833 17.167,41.666" style="fill:none;fill-rule:nonzero;stroke:rgb(48,104,136);stroke-width:1px;"/>
            <path d="M34.167,90.833C34.167,90.833 34.584,74.666 37.584,72.916C40.584,71.166 41.251,70.833 41.251,70.833" style="fill:none;fill-rule:nonzero;stroke:rgb(48,104,136);stroke-width:1px;"/>
            <path d="M59.5,21.333L61.813,33.083C61.563,33.396 56.188,35.896 55.563,35.896C54.938,35.896 55.876,21.333 55.876,21.646C55.876,21.958 55.001,33.708 54.251,34.583C53.501,35.458 52.001,35.146 51.126,35.583C50.251,36.021 50.376,35.708 49.501,35.583C48.626,35.458 49.564,20.396 49.376,21.583C49.188,22.771 49.854,35.539 47.376,34.833C32.168,30.5 25.334,39.666 25.334,39.666" style="fill:none;fill-rule:nonzero;stroke:rgb(48,104,136);stroke-width:1px;"/>
        </g>
    </g>
</svg>
