<?xml version="1.0" encoding="UTF-8" standalone="no"?>
<!DOCTYPE svg PUBLIC "-//W3C//DTD SVG 1.1//EN" "http://www.w3.org/Graphics/SVG/1.1/DTD/svg11.dtd">
<svg width="100%" height="100%" viewBox="0 0 211 77" version="1.1" xmlns="http://www.w3.org/2000/svg" xmlns:xlink="http://www.w3.org/1999/xlink" xml:space="preserve" xmlns:serif="http://www.serif.com/" style="fill-rule:evenodd;clip-rule:evenodd;stroke-miterlimit:10;">
    <g transform="matrix(1,0,0,1,-8.87994,-108.284)">
        <g id="pane02">
            <path d="M176.432,159.95C175.618,169.842 188.419,172.461 197.149,163.907C205.877,155.353 216.818,138.885 213.791,127.131C210.765,115.376 199.126,109.44 188.769,116.074C185.045,118.635 183.764,121.893 183.764,121.893C183.764,121.893 181.204,124.919 180.506,121.078" style="fill:none;fill-rule:nonzero;stroke:rgb(48,104,136);stroke-width:1px;"/>
            <path d="M199.128,155.876C199.128,155.876 212.539,145.867 209.397,126.664C207.883,118.633 195.403,113.513 190.166,122.009C184.929,130.505 191.33,136.057 192.145,136.307" style="fill:none;fill-rule:nonzero;stroke:rgb(48,104,136);stroke-width:1px;"/>
            <path d="M190.864,132.484C190.864,132.484 195.753,134.311 196.8,136.307C197.847,138.303 200.524,139.118 200.524,139.118C200.524,139.118 202.852,139.584 201.222,143.889C199.593,148.196 197.379,149.475 196.333,149.243C195.287,149.01 192.144,147.549 190.864,149.269C189.584,150.989 187.489,154.83 183.648,153.432C179.808,152.036 183.648,149.127 185.046,147.032C185.51,146.217 185.627,144.937 185.627,144.123C185.627,143.307 186.442,138.854 187.257,140.499C188.071,142.143 186.907,142.86 186.907,142.86" style="fill:none;fill-rule:nonzero;stroke:rgb(48,104,136);stroke-width:1px;"/>
            <path d="M203.085,145.984C203.085,145.984 207.269,133.997 201.802,129.109C199.477,127.13 200.757,122.708 202.619,123.522C204.481,124.337 205.528,126.199 205.762,127.595" style="fill:none;fill-rule:nonzero;stroke:rgb(48,104,136);stroke-width:1px;"/>
            <path d="M190.166,126.664C190.748,128.06 194.937,130.271 194.705,126.664" style="fill:none;fill-rule:nonzero;stroke:rgb(48,104,136);stroke-width:1px;"/>
            <path d="M85.674,147.053C85.674,162.733 69.823,174.732 49.956,174.732C30.089,174.732 13.119,163.831 13.933,148.172C14.747,132.501 30.089,120.493 49.956,120.493C69.823,120.493 85.674,131.373 85.674,147.053Z" style="fill:none;fill-rule:nonzero;stroke:rgb(57,104,135);stroke-width:1px;"/>
            <path d="M83.692,146.83C83.692,161.743 68.616,173.155 49.721,173.155C30.826,173.155 14.686,162.788 15.459,147.894C16.233,132.989 30.825,121.569 49.721,121.569C68.617,121.569 83.692,131.917 83.692,146.83Z" style="fill:none;fill-rule:nonzero;stroke:rgb(57,104,135);stroke-width:1px;"/>
            <path d="M14.339,154.075C14.339,154.075 18.935,166.203 25.126,170.866C32.962,176.768 42.425,181.144 56.875,179.617C71.325,178.09 80.251,166.172 81.908,162.318C86.894,150.717 85.673,146.647 85.673,146.647" style="fill:none;fill-rule:nonzero;stroke:rgb(57,104,135);stroke-width:1px;"/>
            <path d="M21.259,139.523C21.259,139.523 29.41,129.04 43.748,127.108C58.096,125.175 67.357,129.652 72.75,133.519C77.78,137.126 81.298,143.492 81.298,143.492" style="fill:none;fill-rule:nonzero;stroke:rgb(57,104,135);stroke-width:1px;"/>
            <ellipse cx="77.187" cy="134.004" rx="0.967" ry="1.221" style="fill:none;stroke:rgb(57,104,135);stroke-width:1px;"/>
            <ellipse cx="79.413" cy="136.626" rx="0.967" ry="1.272" style="fill:none;stroke:rgb(57,104,135);stroke-width:1px;"/>
            <path d="M78.958,130.975L80.179,130.364C80.179,130.364 82.621,130.568 83.842,132.603C85.063,134.638 85.165,135.961 84.86,136.368C84.555,136.775 83.537,137.487 83.537,137.487" style="fill:none;fill-rule:nonzero;stroke:rgb(57,104,135);stroke-width:1px;"/>
            <path d="M84.183,137.018C84.183,137.018 84.453,137.284 85.267,137.182C86.081,137.08 91.881,130.771 92.492,130.262C93.103,129.753 108.805,121.855 110.211,120.763C111.299,119.918 112.437,118.458 109.995,117.746C107.553,117.034 98.191,120.799 92.187,124.564C86.183,128.329 80.586,128.227 80.281,129.041C79.976,129.855 80.179,130.364 80.179,130.364" style="fill:none;fill-rule:nonzero;stroke:rgb(57,104,135);stroke-width:1px;"/>
            <g transform="matrix(0.3265,0.9452,-0.9452,0.3265,184.828,-20.3407)">
                <ellipse cx="106.687" cy="119.527" rx="0.967" ry="1.883" style="fill:none;stroke:rgb(57,104,135);stroke-width:1px;"/>
            </g>
            <path d="M105.935,120.614C105.935,120.614 106.031,120.111 106.81,119.789C107.535,119.489 108.035,119.739 108.035,119.739" style="fill:none;fill-rule:nonzero;stroke:rgb(57,104,135);stroke-width:1px;"/>
            <path d="M32.603,144.591C32.603,144.591 30.953,146.291 31.453,146.991C31.953,147.691 32.403,148.791 32.953,149.041C33.503,149.291 34.453,149.491 34.903,149.141C35.353,148.791 36.153,148.191 36.353,148.691C36.553,149.191 36.053,150.241 37.853,149.041C39.653,147.841 39.953,147.641 41.503,147.491C43.053,147.341 43.403,147.241 45.203,147.441C47.003,147.641 46.903,147.791 49.103,147.791C51.303,147.791 51.903,147.741 53.103,147.941C54.303,148.141 55.153,147.841 56.253,147.691C57.353,147.541 59.353,148.441 62.003,148.091C64.653,147.741 65.403,148.141 66.703,147.541C68.003,146.941 68.303,147.241 68.603,146.091C68.903,144.941 69.953,144.391 70.103,143.191C70.253,141.991 70.553,141.891 70.403,141.141C70.253,140.391 70.753,139.941 69.853,139.641C68.953,139.341 65.303,139.841 65.153,140.691C65.003,141.541 65.403,141.941 65.153,142.541C64.903,143.141 63.803,143.141 64.403,143.791C65.003,144.441 67.853,143.091 67.203,143.691C66.553,144.291 66.603,144.491 65.953,144.691C65.303,144.891 65.803,145.041 63.453,144.891C61.103,144.741 60.603,144.791 58.503,144.141C56.403,143.491 55.353,144.191 51.603,143.091C47.853,141.991 46.253,141.491 43.453,141.591C40.653,141.691 33.803,143.141 32.603,144.591Z" style="fill:none;fill-rule:nonzero;stroke:rgb(64,104,133);stroke-width:1px;"/>
            <path d="M26.853,147.741C26.853,147.741 26.003,148.991 26.453,150.091C26.903,151.191 26.253,151.691 27.053,152.041C27.853,152.391 28.003,152.541 28.953,153.341C29.903,154.141 30.553,154.541 31.803,154.991C33.053,155.441 33.453,155.891 34.753,155.741C36.053,155.591 36.453,155.141 38.053,155.641C39.653,156.141 39.253,156.641 41.503,156.141C43.753,155.641 43.553,155.741 45.703,156.291C47.853,156.841 47.853,156.491 49.903,156.591C51.953,156.691 55.053,156.191 55.903,156.091C56.753,155.991 56.953,156.641 59.453,155.291C61.953,153.941 63.003,153.491 63.903,152.891C64.803,152.291 65.153,151.891 66.103,151.591C67.053,151.291 67.903,151.141 68.753,151.341C69.603,151.541 69.253,152.391 70.053,152.091C70.853,151.791 72.203,150.491 72.153,149.941C72.103,149.391 72.153,148.491 71.903,147.791C71.653,147.091 71.753,146.191 71.153,146.191C70.553,146.191 69.903,146.091 69.853,147.041C69.803,147.991 69.853,148.291 69.053,148.891C68.253,149.491 67.403,150.041 66.053,150.241C64.703,150.441 63.653,150.691 61.903,150.691L57.953,150.691C55.653,150.691 54.003,150.391 52.653,150.941C51.303,151.491 49.853,151.291 49.153,151.591C48.453,151.891 48.303,151.591 47.753,151.441C47.203,151.291 47.253,151.391 45.903,151.791C44.553,152.191 43.753,152.091 42.503,152.241C41.253,152.391 40.503,152.191 38.053,152.291C35.603,152.391 35.203,152.541 33.853,152.191C32.503,151.841 33.403,151.991 31.503,151.641C29.603,151.291 29.303,152.291 29.053,151.241C28.803,150.191 28.353,149.541 28.353,149.041C28.353,148.541 28.353,148.491 27.703,147.991C27.053,147.491 27.103,147.191 26.853,147.741Z" style="fill:none;fill-rule:nonzero;stroke:rgb(64,104,133);stroke-width:1px;"/>
            <path d="M32.203,159.491C32.203,159.491 32.324,159.38 32.579,159.281C32.893,159.159 33.409,159.054 34.153,159.191C35.503,159.441 35.153,159.441 35.903,159.091C36.653,158.741 35.553,158.191 37.603,158.991C39.653,159.791 39.153,159.741 41.003,160.041C42.853,160.341 40.303,161.141 44.753,160.391C49.203,159.641 48.753,160.241 50.753,160.141C52.753,160.041 54.203,159.841 55.353,159.391C56.503,158.941 57.453,159.341 58.853,158.791C60.253,158.241 61.003,157.741 62.053,157.091C63.103,156.441 63.953,155.841 64.753,155.341C65.553,154.841 65.803,154.341 66.953,154.391C68.103,154.441 68.153,153.891 68.903,154.741C69.653,155.591 70.253,155.491 69.653,156.641C69.053,157.791 69.903,157.341 67.803,158.841C65.703,160.341 64.053,161.691 62.203,162.591C60.353,163.491 60.853,164.041 58.053,164.991C55.253,165.941 55.503,165.441 53.503,165.391C51.503,165.341 51.353,165.441 49.403,165.591C47.453,165.741 49.853,166.241 45.653,165.441C41.453,164.641 41.703,165.341 39.803,164.341C37.903,163.341 38.203,163.041 36.603,162.391C35.003,161.741 35.103,161.641 34.053,161.141C33.003,160.641 31.853,160.691 32.053,159.991C32.253,159.291 32.203,159.491 32.203,159.491Z" style="fill:none;fill-rule:nonzero;stroke:rgb(64,104,133);stroke-width:1px;"/>
            <path d="M34.203,132.892C34.941,135 35.016,134.873 35.803,135.942C36.503,136.892 35.503,137.142 37.253,137.492C39.003,137.842 38.603,138.292 40.353,138.192C42.103,138.092 43.803,137.392 44.903,137.092C46.003,136.792 46.403,136.692 48.103,136.642C49.803,136.592 50.053,136.142 52.453,136.892C54.853,137.642 54.553,137.292 57.303,137.742C60.053,138.192 59.403,138.142 62.353,138.742C65.303,139.342 65.153,138.942 65.653,138.492C66.153,138.042 66.403,137.742 66.653,137.192C66.903,136.642 67.853,136.492 67.103,136.042C66.353,135.592 66.603,136.192 65.603,136.042C64.603,135.892 65.403,136.392 64.253,135.742C63.103,135.092 64.003,135.042 62.453,134.792C60.903,134.542 62.303,134.092 59.253,134.492C56.203,134.892 56.403,135.492 55.003,135.392C53.603,135.292 53.753,135.742 51.253,134.842C48.753,133.942 48.053,133.892 45.703,133.692C43.353,133.492 42.903,132.892 41.853,132.592C40.803,132.292 40.553,132.542 38.703,132.292C36.853,132.042 35.353,132.492 35.153,132.492C34.953,132.492 33.853,132.442 34.203,132.892" style="fill:none;fill-rule:nonzero;stroke:rgb(64,104,133);stroke-width:1px;"/>
            <path d="M36.352,135.842C36.352,135.842 38.402,134.892 39.552,135.142C40.702,135.392 41.052,135.392 42.302,135.342C43.552,135.292 44.602,135.492 45.852,135.392C47.102,135.292 48.252,135.442 49.752,135.692C51.252,135.942 51.452,135.942 52.602,136.192C53.752,136.442 54.602,136.742 54.902,136.892" style="fill:none;fill-rule:nonzero;stroke:rgb(64,104,133);stroke-width:0.5px;"/>
            <path d="M56.152,135.942C56.152,135.942 57.802,136.992 58.702,136.742C59.602,136.492 60.052,135.942 59.402,135.592C58.752,135.242 59.752,134.792 59.952,135.192C60.152,135.592 60.202,136.042 60.752,136.542C61.302,137.042 61.352,137.242 62.002,137.392C62.652,137.542 62.802,137.692 63.602,137.692C64.402,137.692 64.902,137.692 65.202,137.492" style="fill:none;fill-rule:nonzero;stroke:rgb(64,104,133);stroke-width:0.5px;"/>
            <path d="M43.352,142.191C43.352,142.191 40.802,142.841 38.702,143.791C36.602,144.741 35.352,144.541 35.302,145.241C35.252,145.941 37.852,144.941 39.202,144.541C40.552,144.141 42.602,143.991 44.552,144.091C46.502,144.191 46.286,143.791 48.244,143.991C50.202,144.191 49.602,143.791 51.802,144.441C54.002,145.091 54.002,145.341 55.452,145.391C56.902,145.441 57.602,145.941 59.202,145.891C60.802,145.841 61.802,145.891 63.152,145.891C64.502,145.891 65.902,146.241 66.552,145.841C67.202,145.441 67.902,144.991 68.102,144.541C68.302,144.091 67.852,143.541 67.302,143.441" style="fill:none;fill-rule:nonzero;stroke:rgb(64,104,133);stroke-width:0.5px;"/>
            <path d="M35.252,147.591C35.252,147.591 38.652,145.691 41.252,145.991C43.852,146.291 43.602,146.341 45.502,146.391C47.402,146.441 48.552,146.841 49.752,146.741C50.952,146.641 51.602,146.691 52.652,146.541" style="fill:none;fill-rule:nonzero;stroke:rgb(64,104,133);stroke-width:0.5px;"/>
            <path d="M29.853,151.691C29.853,151.691 31.403,152.891 32.853,153.091C34.303,153.291 34.853,153.541 36.403,153.291C37.953,153.041 37.953,152.891 39.853,153.041C41.753,153.191 40.803,153.441 43.503,152.941C46.203,152.441 46.003,152.241 48.603,152.841C51.203,153.441 51.403,152.591 53.653,153.091C55.903,153.591 57.103,152.691 57.803,152.441C58.503,152.191 58.503,151.491 55.803,151.541C53.103,151.591 52.703,152.241 51.453,151.941C50.203,151.641 49.453,151.591 48.703,151.691" style="fill:none;fill-rule:nonzero;stroke:rgb(64,104,133);stroke-width:0.5px;"/>
            <path d="M63.451,151.491C62.301,151.941 61.851,151.541 61.151,152.441C60.451,153.341 59.951,153.591 59.151,153.891C58.351,154.191 57.401,154.491 56.601,154.591" style="fill:none;fill-rule:nonzero;stroke:rgb(64,104,133);stroke-width:0.5px;"/>
            <path d="M68.151,155.641C68.001,155.691 62.951,159.891 60.951,160.141C58.951,160.391 58.501,160.891 56.051,161.341C53.601,161.791 52.901,161.691 51.851,161.791C50.801,161.891 50.551,162.641 52.101,162.591C53.651,162.541 55.351,162.591 56.851,162.291C58.351,161.991 59.701,161.591 60.801,161.041C61.901,160.491 63.301,159.541 63.151,160.291C63.001,161.041 61.051,162.491 59.851,162.941C58.651,163.391 57.351,163.741 55.701,163.791C54.051,163.841 52.851,164.091 50.301,163.691C47.751,163.291 47.501,163.141 45.501,163.141C43.501,163.141 43.201,163.791 41.551,163.041C39.901,162.291 39.101,161.891 38.201,161.641C37.301,161.391 38.051,161.041 39.151,161.391C40.251,161.741 40.901,161.991 41.701,162.091C42.501,162.191 42.651,162.641 44.051,162.141C45.451,161.641 45.801,161.491 46.401,161.191C47.001,160.891 47.251,160.791 47.951,160.841" style="fill:none;fill-rule:nonzero;stroke:rgb(64,104,133);stroke-width:0.5px;"/>
        </g>
    </g>
</svg>
