<?xml version="1.0" encoding="UTF-8"?>
<!DOCTYPE svg PUBLIC "-//W3C//DTD SVG 1.1//EN" "http://www.w3.org/Graphics/SVG/1.1/DTD/svg11.dtd">
<svg version="1.1" xmlns="http://www.w3.org/2000/svg" xmlns:xlink="http://www.w3.org/1999/xlink" width="115" height="100"  xml:space="preserve" id="kfGravityisolateobject">
    <!-- Generated by PaintCode - http://www.paintcodeapp.com -->
    <g id="kfGravityisolateobject-fmisolateobjectcopiedObjectsGroup">
        <path id="kfGravityisolateobject-fmisolateobjectbezier" stroke="rgb(0, 0, 0)" stroke-width="0.5" stroke-miterlimit="10" fill="rgb(163, 126, 78)" d="M 4.92,51.83 L 8.46,53.02 C 8.46,53.02 16.06,53.1 16.15,53.02 16.24,52.94 22.67,52.12 22.67,52.12 L 26.19,49.18 C 26.19,49.18 24.52,41.65 24.03,41.16 23.54,40.67 15.98,36.5 15.98,36.5 L 9.33,37.11 4.5,43.67 4.92,51.83 Z M 4.92,51.83" />
        <path id="kfGravityisolateobject-fmisolateobjectbezier2" opacity="0.47" stroke="none" fill="rgb(0, 0, 0)" d="M 19.86,40.78 L 15.71,38.76 14.84,40.78 16.87,42.98 19.86,40.78 Z M 19.86,40.78" />
        <path id="kfGravityisolateobject-fmisolateobjectbezier3" opacity="0.47" stroke="none" fill="rgb(0, 0, 0)" d="M 23.21,48.37 C 23.21,48.37 21.25,43.11 21.25,43.29 21.25,43.47 20.09,45.56 20.09,45.56 L 20.49,50.41 22.37,50.41 23.21,48.37 Z M 23.21,48.37" />
        <path id="kfGravityisolateobject-fmisolateobjectbezier4" opacity="0.47" stroke="none" fill="rgb(0, 0, 0)" d="M 14.68,44.76 L 13.29,46.47 12.18,50.09 14.23,48.07 14.68,44.76 Z M 14.68,44.76" />
        <path id="kfGravityisolateobject-fmisolateobjectbezier5" opacity="0.47" stroke="none" fill="rgb(0, 0, 0)" d="M 9.85,36.52 L 8.83,36.61 4,43.17 4.42,51.33 7.96,52.52 10.84,52.52 10.66,43.53 11.6,37.78 9.85,36.52 Z M 9.85,36.52" />
    </g>
    <ellipse id="kfGravityisolateobject-oval" stroke="none" fill="rgb(128, 128, 128)" cx="132.5" cy="51" rx="27.5" ry="65" />
</svg>
