<?xml version="1.0" encoding="UTF-8"?>
<!DOCTYPE svg PUBLIC "-//W3C//DTD SVG 1.1//EN" "http://www.w3.org/Graphics/SVG/1.1/DTD/svg11.dtd">
<svg version="1.1" xmlns="http://www.w3.org/2000/svg" xmlns:xlink="http://www.w3.org/1999/xlink" width="79" height="50"  xml:space="preserve" id="fmisolaterockwater">
    <!-- Generated by PaintCode - http://www.paintcodeapp.com -->
    <path id="fmisolaterockwater-bezier" stroke="rgb(0, 0, 0)" stroke-width="0.5" stroke-miterlimit="10" fill="rgb(163, 126, 78)" d="M 13.34,45.41 L 22.34,48.42 C 22.34,48.42 41.61,48.62 41.84,48.42 42.07,48.21 58.4,46.14 58.4,46.14 L 67.32,38.68 C 67.32,38.68 63.09,19.56 61.84,18.31 60.59,17.07 41.43,6.5 41.43,6.5 L 24.53,8.05 12.29,24.69 13.34,45.41 Z M 13.34,45.41" />
    <path id="fmisolaterockwater-bezier2" opacity="0.47" stroke="none" fill="rgb(0, 0, 0)" d="M 52.04,18.12 L 41.49,13 39.3,18.12 44.44,23.72 52.04,18.12 Z M 52.04,18.12" />
    <path id="fmisolaterockwater-bezier3" opacity="0.47" stroke="none" fill="rgb(0, 0, 0)" d="M 60.54,37.4 C 60.54,37.4 55.56,24.03 55.56,24.5 55.56,24.96 52.61,30.25 52.61,30.25 L 53.63,42.58 58.39,42.58 60.54,37.4 Z M 60.54,37.4" />
    <path id="fmisolaterockwater-bezier4" opacity="0.47" stroke="none" fill="rgb(0, 0, 0)" d="M 38.89,28.23 L 35.37,32.58 32.54,41.75 37.75,36.62 38.89,28.23 Z M 38.89,28.23" />
    <path id="fmisolaterockwater-bezier5" opacity="0.47" stroke="none" fill="rgb(0, 0, 0)" d="M 26.64,7.31 L 24.03,7.55 11.78,24.19 12.84,44.91 21.84,47.92 29.13,47.92 28.68,25.12 31.06,10.51 26.64,7.31 Z M 26.64,7.31" />
    <rect id="fmisolaterockwater-rectangle" opacity="0.25" stroke="none" fill="rgb(0, 157, 224)" x="0" y="0.01" width="79" height="48" />
</svg>
