<?xml version="1.0" encoding="UTF-8"?>
<!DOCTYPE svg PUBLIC "-//W3C//DTD SVG 1.1//EN" "http://www.w3.org/Graphics/SVG/1.1/DTD/svg11.dtd">
<svg version="1.1" xmlns="http://www.w3.org/2000/svg" xmlns:xlink="http://www.w3.org/1999/xlink" width="22" height="16"  xml:space="preserve" id="fmisolateobject">
    <!-- Generated by PaintCode - http://www.paintcodeapp.com -->
    <g id="fmisolateobject-copiedObjectsGroup">
        <path id="fmisolateobject-bezier" stroke="rgb(0, 0, 0)" stroke-width="0.5" stroke-miterlimit="10" fill="rgb(163, 126, 78)" d="M 0.92,14.83 L 4.46,16.02 C 4.46,16.02 12.06,16.1 12.15,16.02 12.24,15.94 18.67,15.12 18.67,15.12 L 22.19,12.18 C 22.19,12.18 20.52,4.65 20.03,4.16 19.54,3.67 11.98,-0.5 11.98,-0.5 L 5.33,0.11 0.5,6.67 0.92,14.83 Z M 0.92,14.83" />
        <path id="fmisolateobject-bezier2" opacity="0.47" stroke="none" fill="rgb(0, 0, 0)" d="M 15.86,3.78 L 11.71,1.76 10.84,3.78 12.87,5.98 15.86,3.78 Z M 15.86,3.78" />
        <path id="fmisolateobject-bezier3" opacity="0.47" stroke="none" fill="rgb(0, 0, 0)" d="M 19.21,11.37 C 19.21,11.37 17.25,6.11 17.25,6.29 17.25,6.47 16.09,8.56 16.09,8.56 L 16.49,13.41 18.37,13.41 19.21,11.37 Z M 19.21,11.37" />
        <path id="fmisolateobject-bezier4" opacity="0.47" stroke="none" fill="rgb(0, 0, 0)" d="M 10.68,7.76 L 9.29,9.47 8.18,13.09 10.23,11.07 10.68,7.76 Z M 10.68,7.76" />
        <path id="fmisolateobject-bezier5" opacity="0.47" stroke="none" fill="rgb(0, 0, 0)" d="M 5.85,-0.48 L 4.83,-0.39 -0,6.17 0.42,14.33 3.96,15.52 6.84,15.52 6.66,6.53 7.6,0.78 5.85,-0.48 Z M 5.85,-0.48" />
    </g>
</svg>
