<?xml version="1.0" encoding="UTF-8"?>
<!DOCTYPE svg PUBLIC "-//W3C//DTD SVG 1.1//EN" "http://www.w3.org/Graphics/SVG/1.1/DTD/svg11.dtd">
<svg version="1.1" xmlns="http://www.w3.org/2000/svg" xmlns:xlink="http://www.w3.org/1999/xlink" width="92" height="82"  xml:space="preserve" id="fmisolaterockbottomsituation">
    <!-- Generated by PaintCode - http://www.paintcodeapp.com -->
    <g id="fmisolaterockbottomsituation-copiedObjectsGroup">
        <path id="fmisolaterockbottomsituation-bezier" stroke="rgb(0, 0, 0)" stroke-width="0.5" stroke-miterlimit="10" fill="rgb(189, 156, 105)" fill-opacity="0.61" d="M 10.65,61.24 L 14.31,60.79 80.46,60.81 81.73,61.24 79.26,74.77 79.12,75.49 C 79.12,75.49 77.53,80.32 46.66,80.32 15.79,80.32 13.37,76.17 13.14,74.9 12.91,73.64 10.65,61.24 10.65,61.24 Z M 10.65,61.24" />
        <path id="fmisolaterockbottomsituation-bezier2" stroke="rgb(0, 0, 0)" stroke-width="0.5" stroke-linejoin="round" stroke-miterlimit="10" fill="rgb(189, 156, 105)" d="M 32.04,54.82 C 32.04,54.82 30.46,55.25 30.29,55.37 30.12,55.5 26.34,56.64 26.34,56.64 26.34,56.64 24.67,56.44 24.46,56.26 24.25,56.07 19.08,56.26 19.08,56.26 L 17.75,57.29 14.33,57.67 C 14.33,57.67 11.46,58.64 11.46,58.82 11.46,58.99 10.65,61.24 10.65,61.24 L 13.96,62.98 17,63.55 C 17,63.55 18.5,63.94 18.71,64.23 18.92,64.53 22.38,64.98 22.63,65.04 22.88,65.1 27.21,64.58 27.38,64.98 27.54,65.38 31.28,66.28 31.62,66.3 31.97,66.32 33.95,66.45 34.12,66.46 34.29,66.47 40.34,66.12 40.44,66.12 40.54,66.12 45.92,66.52 46,66.52 46.09,66.52 50.17,66.24 50.34,66.07 50.5,65.9 53.38,64.01 54.04,64.92 54.71,65.84 59.79,66.87 59.96,66.78 60.13,66.69 62.05,66.2 62.22,66.19 62.39,66.18 68.71,64.11 68.84,64.23 68.96,64.35 71.03,64.37 71.25,64.75 71.48,65.14 76.17,63.73 76.17,63.73 L 77.84,63.1 79.88,62.13 81.73,61.24 79.92,59.16 76.92,57.29 74.04,57.29 C 74.04,57.29 71.46,56.64 71.34,56.59 71.21,56.53 67.13,55.77 66.96,55.69 66.79,55.62 63.79,55.69 63.79,55.69 L 62.29,55.37" />
        <path id="fmisolaterockbottomsituation-bezier3" stroke="rgb(0, 0, 0)" stroke-width="0.5" stroke-miterlimit="10" fill="none" d="M 80.88,75.17 C 80.88,78.82 65.26,81.78 46,81.78 26.74,81.78 11.12,78.82 11.12,75.17" />
        <path id="fmisolaterockbottomsituation-bezier4" opacity="0.59" stroke="rgb(0, 0, 0)" stroke-width="0.5" stroke-miterlimit="10" fill="none" d="M 79.84,73.56 C 80.52,74.07 80.88,74.61 80.88,75.17" />
        <path id="fmisolaterockbottomsituation-bezier5" opacity="0.59" stroke="rgb(0, 0, 0)" stroke-width="0.5" stroke-miterlimit="10" fill="none" d="M 11.12,75.17 C 11.12,74.58 11.53,74 12.31,73.46" />
        <ellipse id="fmisolaterockbottomsituation-oval" stroke="rgb(0, 0, 0)" stroke-width="0.5" stroke-miterlimit="10" fill="none" cx="46" cy="10.12" rx="45.5" ry="6.6" />
        <path id="fmisolaterockbottomsituation-bezier6" stroke="rgb(0, 0, 0)" stroke-width="0.5" stroke-miterlimit="10" fill="none" d="M 0.5,10.11 L 11.12,75.17" />
        <path id="fmisolaterockbottomsituation-bezier7" stroke="rgb(0, 0, 0)" stroke-width="0.5" stroke-miterlimit="10" fill="none" d="M 91.5,10.11 L 80.88,75.17" />
        <path id="fmisolaterockbottomsituation-bezier8" stroke="rgb(0, 0, 0)" stroke-width="0.5" stroke-miterlimit="10" fill="none" d="M 79.19,75.17 C 79.19,78.01 64.41,80.32 46.19,80.32 27.96,80.32 13.19,78.01 13.19,75.17" />
        <ellipse id="fmisolaterockbottomsituation-oval2" stroke="rgb(0, 0, 0)" stroke-width="0.5" stroke-miterlimit="10" fill="none" cx="46" cy="10.13" rx="42.5" ry="4.65" />
        <path id="fmisolaterockbottomsituation-bezier9" stroke="rgb(0, 0, 0)" stroke-width="0.5" stroke-miterlimit="10" fill="none" d="M 81.73,61.24 L 79.19,75.17" />
        <path id="fmisolaterockbottomsituation-bezier10" stroke="rgb(0, 0, 0)" stroke-width="0.5" stroke-miterlimit="10" fill="none" d="M 13.19,75.17 L 10.65,61.24" />
        <path id="fmisolaterockbottomsituation-bezier11" stroke="rgb(0, 0, 0)" stroke-width="0.5" stroke-miterlimit="10" fill="rgb(163, 126, 78)" d="M 32.83,62.53 L 37.79,64.18 C 37.79,64.18 48.42,64.3 48.54,64.18 48.67,64.07 57.67,62.93 57.67,62.93 L 62.58,58.82 C 62.58,58.82 60.25,48.28 59.56,47.59 58.88,46.91 48.31,41.08 48.31,41.08 L 39,41.94 32.25,51.11 32.83,62.53 Z M 32.83,62.53" />
        <path id="fmisolaterockbottomsituation-bezier12" opacity="0.47" stroke="none" fill="rgb(0, 0, 0)" d="M 53.94,47.26 L 48.12,44.44 46.92,47.26 49.75,50.35 53.94,47.26 Z M 53.94,47.26" />
        <path id="fmisolaterockbottomsituation-bezier13" opacity="0.47" stroke="none" fill="rgb(0, 0, 0)" d="M 58.62,57.89 C 58.62,57.89 55.88,50.52 55.88,50.78 55.88,51.03 54.25,53.95 54.25,53.95 L 54.81,60.74 57.44,60.74 58.62,57.89 Z M 58.62,57.89" />
        <path id="fmisolaterockbottomsituation-bezier14" opacity="0.47" stroke="none" fill="rgb(0, 0, 0)" d="M 46.69,52.83 L 44.75,55.23 43.19,60.29 46.06,57.46 46.69,52.83 Z M 46.69,52.83" />
        <path id="fmisolaterockbottomsituation-bezier15" opacity="0.47" stroke="none" fill="rgb(0, 0, 0)" d="M 39.94,41.31 L 38.5,41.44 31.75,50.61 32.33,62.03 37.29,63.68 41.31,63.68 41.06,51.12 42.38,43.07 39.94,41.31 Z M 39.94,41.31" />
        <path id="fmisolaterockbottomsituation-bezier16" stroke="none" fill="rgb(0, 157, 224)" fill-opacity="0.18" d="M 10.31,60.66 L 4,24.22 C 4,24.22 5.94,29.45 45.5,29.45 85.06,29.45 87,24.22 87,24.22 L 81.33,60.29 79.96,61.35 C 79.96,61.35 72.4,64.7 71.11,64.32 69.81,63.94 68.26,63.73 68.26,63.73 L 59.38,66.29 C 59.38,66.29 54.83,65.31 53.85,64.43 52.88,63.54 50.79,64.96 50.79,64.96 L 49.75,65.77 45.61,66.02 40.25,65.65 33.87,65.95 31.67,65.84 C 31.67,65.84 27.4,64.86 27.23,64.74 27.06,64.63 26.48,64.2 26.48,64.2 L 22.23,64.55 C 22.23,64.55 18.59,63.9 18.5,63.87 18.41,63.84 17.71,63.45 17.71,63.45 L 13.46,62.48 10.31,60.66 Z M 10.31,60.66" />
        <ellipse id="fmisolaterockbottomsituation-oval3" stroke="rgb(0, 0, 0)" stroke-width="0.5" stroke-miterlimit="10" fill="rgb(0, 157, 224)" fill-opacity="0.2" cx="46" cy="24.73" rx="41.5" ry="5.25" />
        <path id="fmisolaterockbottomsituation-bezier17" stroke="rgb(0, 0, 0)" stroke-width="0.5" stroke-miterlimit="10" fill="none" d="M 4.5,24.72 L 10.65,61.24" />
        <path id="fmisolaterockbottomsituation-bezier18" stroke="rgb(0, 0, 0)" stroke-width="0.5" stroke-miterlimit="10" fill="none" d="M 81.73,61.24 L 87.5,24.72" />
    </g>
</svg>
