<?xml version="1.0" encoding="UTF-8"?>
<!DOCTYPE svg PUBLIC "-//W3C//DTD SVG 1.1//EN" "http://www.w3.org/Graphics/SVG/1.1/DTD/svg11.dtd">
<svg version="1.1" xmlns="http://www.w3.org/2000/svg" xmlns:xlink="http://www.w3.org/1999/xlink" width="94" height="84"  xml:space="preserve" id="fmisolaterockbandsituation">
    <!-- Generated by PaintCode - http://www.paintcodeapp.com -->
    <g id="fmisolaterockbandsituation-group">
        <path id="fmisolaterockbandsituation-bezier" stroke="rgb(0, 0, 0)" stroke-width="0.5" stroke-miterlimit="10" fill="rgb(189, 156, 105)" fill-opacity="0.61" d="M 10.65,63.62 L 14.31,63.17 80.46,63.19 81.73,63.62 79.26,77.15 79.12,77.87 C 79.12,77.87 77.53,82.7 46.66,82.7 15.79,82.7 13.37,78.55 13.14,77.28 12.91,76.02 10.65,63.62 10.65,63.62 Z M 10.65,63.62" />
        <path id="fmisolaterockbandsituation-bezier2" stroke="rgb(0, 0, 0)" stroke-width="0.5" stroke-linejoin="round" stroke-miterlimit="10" fill="rgb(189, 156, 105)" d="M 62.29,57.76 L 63.79,58.07 C 63.79,58.07 66.79,58 66.96,58.07 67.13,58.15 71.21,58.91 71.33,58.97 71.46,59.02 74.04,59.67 74.04,59.67 L 76.92,59.67 79.92,61.54 81.73,63.62 79.88,64.51 77.83,65.48 76.17,66.11 C 76.17,66.11 71.48,67.52 71.25,67.13 71.02,66.75 68.96,66.74 68.83,66.61 68.71,66.49 62.38,68.56 62.22,68.57 62.05,68.59 60.12,69.08 59.96,69.17 59.79,69.26 54.71,68.22 54.04,67.31 53.38,66.39 50.5,68.28 50.33,68.45 50.17,68.62 46.08,68.91 46,68.91 45.92,68.91 40.54,68.51 40.44,68.51 40.33,68.51 34.29,68.85 34.12,68.84 33.95,68.83 31.97,68.71 31.62,68.68 31.28,68.66 27.54,67.77 27.38,67.37 27.21,66.97 22.88,67.48 22.62,67.42 22.38,67.37 18.92,66.91 18.71,66.62 18.5,66.32 17,65.94 17,65.94 L 13.96,65.36 10.65,63.62 C 10.65,63.62 11.46,61.37 11.46,61.2 11.46,61.03 14.33,60.05 14.33,60.05 L 17.75,59.67 19.08,58.64 C 19.08,58.64 24.25,58.45 24.46,58.64 24.67,58.82 26.34,59.02 26.34,59.02 26.34,59.02 30.13,57.88 30.29,57.76 30.46,57.63 32.04,57.2 32.04,57.2 L 39.44,58.58 46.5,57.47 51.81,57.2 56.94,58.58 62.29,57.76 Z M 62.29,57.76" />
        <path id="fmisolaterockbandsituation-bezier3" stroke="rgb(0, 0, 0)" stroke-width="0.5" stroke-miterlimit="10" fill="none" d="M 80.88,77.55 C 80.88,81.2 65.26,84.16 46,84.16 26.74,84.16 11.12,81.2 11.12,77.55" />
        <path id="fmisolaterockbandsituation-bezier4" opacity="0.59" stroke="rgb(0, 0, 0)" stroke-width="0.5" stroke-miterlimit="10" fill="none" d="M 79.84,75.94 C 80.52,76.45 80.88,76.99 80.88,77.55" />
        <path id="fmisolaterockbandsituation-bezier5" opacity="0.59" stroke="rgb(0, 0, 0)" stroke-width="0.5" stroke-miterlimit="10" fill="none" d="M 11.12,77.55 C 11.12,76.96 11.53,76.38 12.31,75.84" />
        <ellipse id="fmisolaterockbandsituation-oval" stroke="rgb(0, 0, 0)" stroke-width="0.5" stroke-miterlimit="10" fill="none" cx="46" cy="12.5" rx="45.5" ry="6.6" />
        <path id="fmisolaterockbandsituation-bezier6" stroke="rgb(0, 0, 0)" stroke-width="0.5" stroke-miterlimit="10" fill="none" d="M 0.5,12.48 L 11.12,77.55" />
        <path id="fmisolaterockbandsituation-bezier7" stroke="rgb(0, 0, 0)" stroke-width="0.5" stroke-miterlimit="10" fill="none" d="M 91.5,12.48 L 80.88,77.55" />
        <path id="fmisolaterockbandsituation-bezier8" stroke="rgb(0, 0, 0)" stroke-width="0.5" stroke-miterlimit="10" fill="none" d="M 79.19,77.55 C 79.19,80.39 64.41,82.7 46.19,82.7 27.96,82.7 13.19,80.39 13.19,77.55" />
        <ellipse id="fmisolaterockbandsituation-oval2" stroke="rgb(0, 0, 0)" stroke-width="0.5" stroke-miterlimit="10" fill="none" cx="46" cy="12.51" rx="42.5" ry="4.65" />
        <path id="fmisolaterockbandsituation-bezier9" stroke="rgb(0, 0, 0)" stroke-width="0.5" stroke-miterlimit="10" fill="none" d="M 81.73,63.62 L 79.19,77.55" />
        <path id="fmisolaterockbandsituation-bezier10" stroke="rgb(0, 0, 0)" stroke-width="0.5" stroke-miterlimit="10" fill="none" d="M 13.19,77.55 L 10.65,63.62" />
        <path id="fmisolaterockbandsituation-bezier11" stroke="rgb(0, 0, 0)" stroke-width="0.5" stroke-miterlimit="10" fill="rgb(163, 126, 78)" d="M 32.83,52.55 L 37.79,54.21 C 37.79,54.21 48.42,54.32 48.54,54.21 48.67,54.09 57.67,52.95 57.67,52.95 L 62.58,48.84 C 62.58,48.84 60.25,38.3 59.56,37.61 58.88,36.93 48.31,31.1 48.31,31.1 L 39,31.96 32.25,41.13 32.83,52.55 Z M 32.83,52.55" />
        <path id="fmisolaterockbandsituation-bezier12" opacity="0.47" stroke="none" fill="rgb(0, 0, 0)" d="M 53.94,37.29 L 48.12,34.46 46.92,37.29 49.75,40.37 53.94,37.29 Z M 53.94,37.29" />
        <path id="fmisolaterockbandsituation-bezier13" opacity="0.47" stroke="none" fill="rgb(0, 0, 0)" d="M 58.62,47.91 C 58.62,47.91 55.88,40.54 55.88,40.8 55.88,41.05 54.25,43.97 54.25,43.97 L 54.81,50.76 57.44,50.76 58.62,47.91 Z M 58.62,47.91" />
        <path id="fmisolaterockbandsituation-bezier14" opacity="0.47" stroke="none" fill="rgb(0, 0, 0)" d="M 46.69,42.85 L 44.75,45.25 43.19,50.31 46.06,47.48 46.69,42.85 Z M 46.69,42.85" />
        <path id="fmisolaterockbandsituation-bezier15" opacity="0.47" stroke="none" fill="rgb(0, 0, 0)" d="M 39.94,31.33 L 38.5,31.46 31.75,40.63 32.33,52.05 37.29,53.7 41.31,53.7 41.06,41.14 42.38,33.09 39.94,31.33 Z M 39.94,31.33" />
        <path id="fmisolaterockbandsituation-bezier16" stroke="none" fill="rgb(0, 157, 224)" fill-opacity="0.18" d="M 10.31,63.04 L 4,26.6 C 4,26.6 5.94,31.83 45.5,31.83 85.06,31.83 87,26.6 87,26.6 L 81.33,62.67 79.96,63.73 C 79.96,63.73 72.4,67.08 71.11,66.7 69.81,66.32 68.26,66.11 68.26,66.11 L 59.38,68.67 C 59.38,68.67 54.83,67.69 53.85,66.81 52.88,65.92 50.79,67.34 50.79,67.34 L 49.75,68.15 45.61,68.4 40.25,68.03 33.87,68.33 31.67,68.22 C 31.67,68.22 27.4,67.23 27.23,67.12 27.06,67.01 26.48,66.58 26.48,66.58 L 22.23,66.92 C 22.23,66.92 18.59,66.28 18.5,66.25 18.41,66.22 17.71,65.83 17.71,65.83 L 13.46,64.86 10.31,63.04 Z M 10.31,63.04" />
        <ellipse id="fmisolaterockbandsituation-oval3" stroke="rgb(0, 0, 0)" stroke-width="0.5" stroke-miterlimit="10" fill="rgb(0, 157, 224)" fill-opacity="0.2" cx="46" cy="27.1" rx="41.5" ry="5.25" />
        <path id="fmisolaterockbandsituation-bezier17" stroke="rgb(0, 0, 0)" stroke-width="0.5" stroke-miterlimit="10" fill="none" d="M 4.5,27.1 L 10.65,63.62" />
        <path id="fmisolaterockbandsituation-bezier18" stroke="rgb(0, 0, 0)" stroke-width="0.5" stroke-miterlimit="10" fill="none" d="M 81.73,63.62 L 87.5,27.1" />
        <path id="fmisolaterockbandsituation-bezier19" stroke="rgb(0, 0, 0)" stroke-width="2" stroke-linecap="round" stroke-miterlimit="10" fill="none" d="M 45.08,54.91 L 47.19,54.66 50.93,52.49 52.25,43.8 50.08,37.08 48.92,32.36 47.73,30.95" />
        <path id="fmisolaterockbandsituation-bezier20" stroke="rgb(0, 0, 0)" stroke-width="2" stroke-miterlimit="10" fill="none" d="M 46.83,31.1 L 46.83,-0.5" />
    </g>
</svg>
