<?xml version="1.0" encoding="UTF-8"?>
<!DOCTYPE svg PUBLIC "-//W3C//DTD SVG 1.1//EN" "http://www.w3.org/Graphics/SVG/1.1/DTD/svg11.dtd">
<svg version="1.1" xmlns="http://www.w3.org/2000/svg" xmlns:xlink="http://www.w3.org/1999/xlink" width="116" height="81"  xml:space="preserve" id="fmIsolateDrag">
    <!-- Generated by PaintCode - http://www.paintcodeapp.com -->
    <path id="fmIsolateDrag-bezier" stroke="rgb(0, 0, 0)" stroke-width="0.5" stroke-miterlimit="10" fill="rgb(189, 156, 105)" fill-opacity="0.61" d="M 11.65,59.24 L 15.31,58.78 81.46,58.8 82.73,59.24 80.26,72.76 80.12,73.49 C 80.12,73.49 78.52,78.32 47.66,78.32 16.79,78.32 14.37,74.17 14.14,72.9 13.91,71.64 11.65,59.24 11.65,59.24 Z M 11.65,59.24" />
    <path id="fmIsolateDrag-bezier2" stroke="rgb(0, 0, 0)" stroke-width="0.5" stroke-linejoin="round" stroke-miterlimit="10" fill="rgb(189, 156, 105)" d="M 63.29,53.37 L 64.79,53.69 C 64.79,53.69 67.79,53.62 67.96,53.69 68.12,53.77 72.21,54.53 72.33,54.59 72.46,54.64 75.04,55.29 75.04,55.29 L 77.92,55.29 80.92,57.16 82.73,59.24 80.88,60.13 78.84,61.1 77.17,61.73 C 77.17,61.73 72.48,63.14 72.25,62.75 72.03,62.37 69.96,62.35 69.84,62.23 69.71,62.11 63.39,64.18 63.22,64.19 63.05,64.2 61.13,64.69 60.96,64.78 60.79,64.87 55.71,63.84 55.04,62.92 54.38,62.01 51.5,63.9 51.34,64.07 51.17,64.24 47.09,64.52 47,64.52 46.92,64.52 41.54,64.13 41.44,64.13 41.33,64.13 35.29,64.47 35.12,64.46 34.96,64.45 32.97,64.32 32.62,64.3 32.28,64.28 28.54,63.38 28.38,62.98 28.21,62.58 23.88,63.1 23.63,63.04 23.38,62.98 19.92,62.53 19.71,62.23 19.5,61.94 18,61.56 18,61.56 L 14.96,60.98 11.65,59.24 C 11.65,59.24 12.46,56.99 12.46,56.82 12.46,56.64 15.34,55.67 15.34,55.67 L 18.75,55.29 20.09,54.26 C 20.09,54.26 25.25,54.07 25.46,54.26 25.67,54.44 27.34,54.64 27.34,54.64 27.34,54.64 31.13,53.5 31.29,53.37 31.46,53.25 33.04,52.82 33.04,52.82 L 40.44,54.2 47.5,53.09 52.81,52.82 57.94,54.2 63.29,53.37 Z M 63.29,53.37" />
    <path id="fmIsolateDrag-bezier3" stroke="rgb(0, 0, 0)" stroke-width="0.5" stroke-miterlimit="10" fill="none" d="M 81.88,73.17 C 81.88,76.82 66.26,79.77 47,79.77 27.74,79.77 12.12,76.82 12.12,73.17" />
    <path id="fmIsolateDrag-bezier4" opacity="0.59" stroke="rgb(0, 0, 0)" stroke-width="0.5" stroke-miterlimit="10" fill="none" d="M 80.84,71.56 C 81.52,72.07 81.88,72.61 81.88,73.17" />
    <path id="fmIsolateDrag-bezier5" opacity="0.59" stroke="rgb(0, 0, 0)" stroke-width="0.5" stroke-miterlimit="10" fill="none" d="M 12.12,73.17 C 12.12,72.58 12.53,72 13.31,71.45" />
    <ellipse id="fmIsolateDrag-oval" stroke="rgb(0, 0, 0)" stroke-width="0.5" stroke-miterlimit="10" fill="none" cx="47" cy="8.12" rx="45.5" ry="6.6" />
    <path id="fmIsolateDrag-bezier6" stroke="rgb(0, 0, 0)" stroke-width="0.5" stroke-miterlimit="10" fill="none" d="M 1.5,8.1 L 12.12,73.17" />
    <path id="fmIsolateDrag-bezier7" stroke="rgb(0, 0, 0)" stroke-width="0.5" stroke-miterlimit="10" fill="none" d="M 92.5,8.1 L 81.88,73.17" />
    <path id="fmIsolateDrag-bezier8" stroke="rgb(0, 0, 0)" stroke-width="0.5" stroke-miterlimit="10" fill="none" d="M 80.19,73.17 C 80.19,76.01 65.41,78.32 47.19,78.32 28.96,78.32 14.19,76.01 14.19,73.17" />
    <ellipse id="fmIsolateDrag-oval2" stroke="rgb(0, 0, 0)" stroke-width="0.5" stroke-miterlimit="10" fill="none" cx="47" cy="8.12" rx="42.5" ry="4.65" />
    <path id="fmIsolateDrag-bezier9" stroke="rgb(0, 0, 0)" stroke-width="0.5" stroke-miterlimit="10" fill="none" d="M 82.73,59.24 L 80.19,73.17" />
    <path id="fmIsolateDrag-bezier10" stroke="rgb(0, 0, 0)" stroke-width="0.5" stroke-miterlimit="10" fill="none" d="M 14.19,73.17 L 11.65,59.24" />
    <path id="fmIsolateDrag-bezier11" stroke="rgb(0, 0, 0)" stroke-width="0.5" stroke-miterlimit="10" fill="rgb(163, 126, 78)" d="M 33.83,60.17 L 38.79,61.82 C 38.79,61.82 49.42,61.94 49.54,61.82 49.67,61.71 58.67,60.57 58.67,60.57 L 63.58,56.46 C 63.58,56.46 61.25,45.92 60.56,45.23 59.88,44.55 49.31,38.72 49.31,38.72 L 40,39.58 33.25,48.75 33.83,60.17 Z M 33.83,60.17" />
    <path id="fmIsolateDrag-bezier12" opacity="0.47" stroke="none" fill="rgb(0, 0, 0)" d="M 54.94,44.9 L 49.12,42.08 47.92,44.9 50.75,47.99 54.94,44.9 Z M 54.94,44.9" />
    <path id="fmIsolateDrag-bezier13" opacity="0.47" stroke="none" fill="rgb(0, 0, 0)" d="M 59.63,55.53 C 59.63,55.53 56.88,48.16 56.88,48.42 56.88,48.68 55.25,51.59 55.25,51.59 L 55.81,58.38 58.44,58.38 59.63,55.53 Z M 59.63,55.53" />
    <path id="fmIsolateDrag-bezier14" opacity="0.47" stroke="none" fill="rgb(0, 0, 0)" d="M 47.69,50.47 L 45.75,52.87 44.19,57.93 47.06,55.1 47.69,50.47 Z M 47.69,50.47" />
    <path id="fmIsolateDrag-bezier15" opacity="0.47" stroke="none" fill="rgb(0, 0, 0)" d="M 40.94,38.95 L 39.5,39.08 32.75,48.25 33.33,59.67 38.29,61.32 42.31,61.32 42.06,48.76 43.38,40.71 40.94,38.95 Z M 40.94,38.95" />
    <path id="fmIsolateDrag-bezier16" stroke="none" fill="rgb(0, 157, 224)" fill-opacity="0.18" d="M 11.31,58.66 L 5,22.22 C 5,22.22 6.94,27.45 46.5,27.45 86.06,27.45 88,22.22 88,22.22 L 82.33,58.29 80.96,59.35 C 80.96,59.35 73.4,62.69 72.1,62.32 70.81,61.94 69.26,61.73 69.26,61.73 L 60.37,64.29 C 60.37,64.29 55.83,63.31 54.85,62.43 53.87,61.54 51.79,62.96 51.79,62.96 L 50.75,63.77 46.61,64.02 41.24,63.65 34.87,63.95 32.67,63.84 C 32.67,63.84 28.4,62.85 28.23,62.74 28.06,62.63 27.48,62.2 27.48,62.2 L 23.23,62.54 C 23.23,62.54 19.59,61.9 19.5,61.87 19.41,61.84 18.71,61.45 18.71,61.45 L 14.46,60.48 11.31,58.66 Z M 11.31,58.66" />
    <ellipse id="fmIsolateDrag-oval3" stroke="rgb(0, 0, 0)" stroke-width="0.5" stroke-miterlimit="10" fill="rgb(0, 157, 224)" fill-opacity="0.2" cx="47" cy="22.72" rx="41.5" ry="5.25" />
    <path id="fmIsolateDrag-bezier17" stroke="rgb(0, 0, 0)" stroke-width="0.5" stroke-miterlimit="10" fill="none" d="M 5.5,22.72 L 11.65,59.24" />
    <path id="fmIsolateDrag-bezier18" stroke="rgb(0, 0, 0)" stroke-width="0.5" stroke-miterlimit="10" fill="none" d="M 82.73,59.24 L 88.5,22.72" />
    <path id="fmIsolateDrag-bezier19" stroke="rgb(0, 0, 0)" stroke-width="2" stroke-linecap="round" stroke-miterlimit="10" fill="none" d="M 32.6,52.82 L 32.97,55.78 42.22,57.22 55.44,56.72 60.66,52.28 62.6,49.41" />
    <path id="fmIsolateDrag-bezier20" stroke="rgb(0, 0, 0)" stroke-width="2" stroke-linecap="round" stroke-miterlimit="10" fill="none" d="M 61.95,49.76 L 81,45" />
</svg>
