<?xml version="1.0" encoding="UTF-8"?>
<!DOCTYPE svg PUBLIC "-//W3C//DTD SVG 1.1//EN" "http://www.w3.org/Graphics/SVG/1.1/DTD/svg11.dtd">
<svg version="1.1" xmlns="http://www.w3.org/2000/svg" xmlns:xlink="http://www.w3.org/1999/xlink" width="92" height="81"  xml:space="preserve" id="fmisolaterockbottomenvironment">
    <!-- Generated by PaintCode - http://www.paintcodeapp.com -->
    <g id="fmisolaterockbottomenvironment-copiedObjectsGroup">
        <path id="fmisolaterockbottomenvironment-bezier" stroke="rgb(0, 0, 0)" stroke-width="0.5" stroke-miterlimit="10" fill="rgb(189, 156, 105)" fill-opacity="0.61" d="M 10.65,60.24 L 14.31,59.79 80.46,59.81 81.73,60.24 79.26,73.77 79.12,74.49 C 79.12,74.49 77.53,79.32 46.66,79.32 15.79,79.32 13.37,75.17 13.14,73.9 12.91,72.64 10.65,60.24 10.65,60.24 Z M 10.65,60.24" />
        <path id="fmisolaterockbottomenvironment-bezier2" stroke="rgb(0, 0, 0)" stroke-width="0.5" stroke-linejoin="round" stroke-miterlimit="10" fill="rgb(189, 156, 105)" d="M 32.04,53.82 C 32.04,53.82 30.46,54.25 30.29,54.37 30.12,54.5 26.34,55.64 26.34,55.64 26.34,55.64 24.67,55.44 24.46,55.26 24.25,55.07 19.08,55.26 19.08,55.26 L 17.75,56.29 14.33,56.67 C 14.33,56.67 11.46,57.64 11.46,57.82 11.46,57.99 10.65,60.24 10.65,60.24 L 13.96,61.98 17,62.55 C 17,62.55 18.5,62.94 18.71,63.23 18.92,63.53 22.38,63.98 22.63,64.04 22.88,64.1 27.21,63.58 27.38,63.98 27.54,64.38 31.28,65.28 31.62,65.3 31.97,65.32 33.95,65.45 34.12,65.46 34.29,65.47 40.34,65.12 40.44,65.12 40.54,65.12 45.92,65.52 46,65.52 46.09,65.52 50.17,65.24 50.34,65.07 50.5,64.9 53.38,63.01 54.04,63.92 54.71,64.84 59.79,65.87 59.96,65.78 60.13,65.69 62.05,65.2 62.22,65.19 62.39,65.18 68.71,63.11 68.84,63.23 68.96,63.35 71.03,63.37 71.25,63.75 71.48,64.14 76.17,62.73 76.17,62.73 L 77.84,62.1 79.88,61.13 81.73,60.24 79.92,58.16 76.92,56.29 74.04,56.29 C 74.04,56.29 71.46,55.64 71.34,55.59 71.21,55.53 67.13,54.77 66.96,54.69 66.79,54.62 63.79,54.69 63.79,54.69 L 62.29,54.37" />
        <path id="fmisolaterockbottomenvironment-bezier3" stroke="rgb(0, 0, 0)" stroke-width="0.5" stroke-miterlimit="10" fill="none" d="M 80.88,74.17 C 80.88,77.82 65.26,80.78 46,80.78 26.74,80.78 11.12,77.82 11.12,74.17" />
        <path id="fmisolaterockbottomenvironment-bezier4" opacity="0.59" stroke="rgb(0, 0, 0)" stroke-width="0.5" stroke-miterlimit="10" fill="none" d="M 79.84,72.56 C 80.52,73.07 80.88,73.61 80.88,74.17" />
        <path id="fmisolaterockbottomenvironment-bezier5" opacity="0.59" stroke="rgb(0, 0, 0)" stroke-width="0.5" stroke-miterlimit="10" fill="none" d="M 11.12,74.17 C 11.12,73.58 11.53,73 12.31,72.46" />
        <ellipse id="fmisolaterockbottomenvironment-oval" stroke="rgb(0, 0, 0)" stroke-width="0.5" stroke-miterlimit="10" fill="none" cx="46" cy="9.12" rx="45.5" ry="6.6" />
        <path id="fmisolaterockbottomenvironment-bezier6" stroke="rgb(0, 0, 0)" stroke-width="0.5" stroke-miterlimit="10" fill="none" d="M 0.5,9.11 L 11.12,74.17" />
        <path id="fmisolaterockbottomenvironment-bezier7" stroke="rgb(0, 0, 0)" stroke-width="0.5" stroke-miterlimit="10" fill="none" d="M 91.5,9.11 L 80.88,74.17" />
        <path id="fmisolaterockbottomenvironment-bezier8" stroke="rgb(0, 0, 0)" stroke-width="0.5" stroke-miterlimit="10" fill="none" d="M 79.19,74.17 C 79.19,77.01 64.41,79.32 46.19,79.32 27.96,79.32 13.19,77.01 13.19,74.17" />
        <ellipse id="fmisolaterockbottomenvironment-oval2" stroke="rgb(0, 0, 0)" stroke-width="0.5" stroke-miterlimit="10" fill="none" cx="46" cy="9.13" rx="42.5" ry="4.65" />
        <path id="fmisolaterockbottomenvironment-bezier9" stroke="rgb(0, 0, 0)" stroke-width="0.5" stroke-miterlimit="10" fill="none" d="M 81.73,60.24 L 79.19,74.17" />
        <path id="fmisolaterockbottomenvironment-bezier10" stroke="rgb(0, 0, 0)" stroke-width="0.5" stroke-miterlimit="10" fill="none" d="M 13.19,74.17 L 10.65,60.24" />
        <path id="fmisolaterockbottomenvironment-bezier16" stroke="none" fill="rgb(0, 157, 224)" fill-opacity="0.18" d="M 10.31,59.66 L 4,23.22 C 4,23.22 5.94,28.45 45.5,28.45 85.06,28.45 87,23.22 87,23.22 L 81.33,59.29 79.96,60.35 C 79.96,60.35 72.4,63.7 71.11,63.32 69.81,62.94 68.26,62.73 68.26,62.73 L 59.38,65.29 C 59.38,65.29 54.83,64.31 53.85,63.43 52.88,62.54 50.79,63.96 50.79,63.96 L 49.75,64.77 45.61,65.02 40.25,64.65 33.87,64.95 31.67,64.84 C 31.67,64.84 27.4,63.86 27.23,63.74 27.06,63.63 26.48,63.2 26.48,63.2 L 22.23,63.55 C 22.23,63.55 18.59,62.9 18.5,62.87 18.41,62.84 17.71,62.45 17.71,62.45 L 13.46,61.48 10.31,59.66 Z M 10.31,59.66" />
        <ellipse id="fmisolaterockbottomenvironment-oval3" stroke="rgb(0, 0, 0)" stroke-width="0.5" stroke-miterlimit="10" fill="rgb(0, 157, 224)" fill-opacity="0.2" cx="46" cy="23.73" rx="41.5" ry="5.25" />
        <path id="fmisolaterockbottomenvironment-bezier17" stroke="rgb(0, 0, 0)" stroke-width="0.5" stroke-miterlimit="10" fill="none" d="M 4.5,23.72 L 10.65,60.24" />
        <path id="fmisolaterockbottomenvironment-bezier18" stroke="rgb(0, 0, 0)" stroke-width="0.5" stroke-miterlimit="10" fill="none" d="M 81.73,60.24 L 87.5,23.72" />
    </g>
</svg>
