<?xml version="1.0" encoding="UTF-8"?>
<!DOCTYPE svg PUBLIC "-//W3C//DTD SVG 1.1//EN" "http://www.w3.org/Graphics/SVG/1.1/DTD/svg11.dtd">
<svg version="1.1" xmlns="http://www.w3.org/2000/svg" xmlns:xlink="http://www.w3.org/1999/xlink" width="36" height="58"  xml:space="preserve" id="fmisolaterockband">
    <!-- Generated by PaintCode - http://www.paintcodeapp.com -->
    <g id="fmisolaterockband-group">
        <path id="fmisolaterockband-bezier" stroke="rgb(0, 0, 0)" stroke-width="0.5" stroke-miterlimit="10" fill="rgb(163, 126, 78)" d="M 6.08,52.55 L 11.04,54.21 C 11.04,54.21 21.67,54.32 21.79,54.21 21.92,54.09 30.92,52.95 30.92,52.95 L 35.83,48.84 C 35.83,48.84 33.5,38.3 32.81,37.61 32.12,36.93 21.56,31.1 21.56,31.1 L 12.25,31.96 5.5,41.13 6.08,52.55 Z M 6.08,52.55" />
        <path id="fmisolaterockband-bezier2" opacity="0.47" stroke="none" fill="rgb(0, 0, 0)" d="M 27.19,37.29 L 21.38,34.46 20.17,37.29 23,40.37 27.19,37.29 Z M 27.19,37.29" />
        <path id="fmisolaterockband-bezier3" opacity="0.47" stroke="none" fill="rgb(0, 0, 0)" d="M 31.88,47.91 C 31.88,47.91 29.13,40.54 29.13,40.8 29.13,41.06 27.5,43.97 27.5,43.97 L 28.06,50.76 30.69,50.76 31.88,47.91 Z M 31.88,47.91" />
        <path id="fmisolaterockband-bezier4" opacity="0.47" stroke="none" fill="rgb(0, 0, 0)" d="M 19.94,42.85 L 18,45.25 16.44,50.31 19.31,47.48 19.94,42.85 Z M 19.94,42.85" />
        <path id="fmisolaterockband-bezier5" opacity="0.47" stroke="none" fill="rgb(0, 0, 0)" d="M 13.19,31.33 L 11.75,31.46 5,40.63 5.58,52.05 10.54,53.71 14.56,53.71 14.31,41.14 15.63,33.09 13.19,31.33 Z M 13.19,31.33" />
        <path id="fmisolaterockband-bezier6" stroke="rgb(0, 0, 0)" stroke-width="2" stroke-linecap="round" stroke-miterlimit="10" fill="none" d="M 18.33,54.91 L 20.44,54.66 24.18,52.49 25.5,43.79 23.33,37.08 22.17,32.36 20.99,30.95" />
        <path id="fmisolaterockband-bezier7" stroke="rgb(0, 0, 0)" stroke-width="2" stroke-miterlimit="10" fill="none" d="M 20.08,31.1 L 20.08,-0.5" />
    </g>
</svg>
