<?xml version="1.0" encoding="UTF-8"?>
<!DOCTYPE svg PUBLIC "-//W3C//DTD SVG 1.1//EN" "http://www.w3.org/Graphics/SVG/1.1/DTD/svg11.dtd">
<svg version="1.1" xmlns="http://www.w3.org/2000/svg" xmlns:xlink="http://www.w3.org/1999/xlink" width="201" height="53"  xml:space="preserve" id="fmThreeObjectsAll">
    <!-- Generated by PaintCode - http://www.paintcodeapp.com -->
    <path id="fmThreeObjectsAll-bezier" stroke="none" fill="rgb(63, 62, 62)" fill-opacity="0.5" d="M 165.02,18.03 C 165.11,17.51 163.95,17.82 163.37,17.74 160.46,17.34 158.54,14.51 163.37,10.84 168.21,7.17 174.04,9.59 175.79,8.34 177.54,7.09 182.46,6.84 187.62,8.34 192.79,9.84 198.87,11.48 199.54,17.74 200.21,24 196.37,31.42 195.21,36 194.04,40.59 189.37,46.92 186.21,48.42 183.04,49.92 173.79,54.92 167.04,48.42 160.29,41.92 165.29,36.05 164.21,32.34 164.21,32.34 163.92,30.53 164.4,29.63 164.88,28.72 164.98,28.83 164.79,27.84 164.6,26.85 164.47,21.25 165.02,18.03 Z M 165.02,18.03" />
    <path id="fmThreeObjectsAll-bezier2" stroke="none" fill="rgb(162, 28, 38)" fill-opacity="0.5" d="M 126.15,20.58 C 128.32,19.57 128.22,16.5 128.29,15.44 128.37,14.15 132.12,11.9 129.37,7.45 126.62,3 117.87,1.99 113.96,3.65 110.04,5.32 101.46,6.65 96.96,4.4 92.46,2.15 84.71,2.32 82.12,7.45 81.13,9.42 81.62,11.05 82.01,12.67 82.54,14.82 82.04,24.4 82.04,24.4 82.12,27.07 81.46,30.15 82.04,33.32 82.62,36.49 87.04,38.32 91.62,43.35 96.21,48.38 106.71,47.15 111.71,46.32 116.71,45.49 119.46,40.15 119.62,38.28 119.79,36.4 124.21,33.57 125.29,32.15 126.37,30.74 126.21,24.4 126.21,24.4 L 126.15,20.58 Z M 126.15,20.58" />
    <path id="fmThreeObjectsAll-bezier3" stroke="rgb(71, 92, 113)" stroke-width="1" stroke-miterlimit="10" fill="rgb(56, 101, 57)" fill-opacity="0.5" d="M 38.21,15.95 C 37.79,16.45 39.37,17.75 42.54,24.25 45.71,30.75 43.62,36.5 41.54,37.59 39.46,38.67 41.62,43.92 33.04,47.42 24.46,50.92 15.04,49.75 8.96,45.5 2.87,41.25 1.21,32.92 1.54,27.42 1.87,21.92 3.46,20.34 6.12,15.59 8.79,10.84 19.04,1.25 21.87,1.5 24.71,1.75 27.12,2.5 32.29,2.25 37.46,2 44.96,9.34 45.29,11.42 45.62,13.51 42.37,15 39.87,14.84 39.87,14.84 35.96,15.09 32.37,11.67" />
    <path id="fmThreeObjectsAll-bezier4" stroke="rgb(71, 92, 113)" stroke-width="0.5" stroke-miterlimit="10" fill="none" d="M 37.37,9.34 C 37.37,9.34 33.21,7.59 31.29,6.51 29.37,5.42 20.37,9.67 21.37,11.42" />
    <path id="fmThreeObjectsAll-bezier5" stroke="rgb(71, 92, 113)" stroke-width="0.5" stroke-miterlimit="10" fill="none" d="M 17.87,43.67 C 17.87,43.67 26.38,44.09 29.33,41.75 32.29,39.42 36.37,38.25 36.29,35.67" />
    <path id="fmThreeObjectsAll-bezier6" stroke="rgb(71, 92, 113)" stroke-width="1" stroke-miterlimit="10" fill="none" d="M 37.87,19.59 C 38.37,19.51 37.71,30.51 39.96,30.51 42.21,30.51 43.29,27.92 44.04,22.92 44.79,17.92 46.12,17.59 46.87,21.17 47.62,24.76 47.71,29.26 49.29,29.26 50.87,29.26 50.21,18.89 51.71,18.78 53.21,18.67 52.87,29.76 54.96,29.34 57.04,28.92 56.04,19.14 57.62,18.78 59.21,18.42 59.96,29.26 61.21,29.34 62.46,29.42 61.96,19.12 63.79,18.77 65.62,18.42 65.79,29.59 67.54,29.42 69.29,29.26 68.04,18.42 69.62,18.26 71.21,18.09 71.46,29.26 73.37,28.92 75.29,28.59 74.37,18.67 75.79,18.25 77.21,17.84 77.62,28.26 79.29,28.26 80.96,28.26 80.29,18.23 81.46,18.24 82.62,18.26 83.96,24.37 83.96,24.37" />
    <path id="fmThreeObjectsAll-bezier7" stroke="rgb(71, 92, 113)" stroke-width="1" stroke-miterlimit="10" fill="none" d="M 121.46,23.03 C 121.94,22.97 121.54,30.99 123.6,31.59 124.33,31.8 124.62,29.21 125.52,24.24 126.42,19.27 127.7,18.99 128.28,22.6 128.86,26.2 128.77,30.7 130.28,30.76 131.78,30.82 131.54,20.44 132.98,20.38 134.41,20.33 133.67,31.39 135.67,31.05 137.67,30.71 137.09,20.89 138.61,20.59 140.13,20.29 140.43,31.15 141.62,31.27 142.81,31.4 142.72,21.09 144.48,20.81 146.24,20.53 145.97,31.69 147.65,31.59 149.32,31.48 148.54,20.61 150.05,20.5 151.57,20.39 151.38,31.56 153.22,31.3 155.06,31.03 154.56,21.09 155.92,20.72 157.29,20.36 157.29,30.84 158.88,30.84 160.46,30.84 159.79,20.16 161.54,20.16 163.29,20.16 162.29,30.5 164.96,30.5 167.62,30.5 167.54,24.37 167.54,24.37" />
    <path id="fmThreeObjectsAll-bezier8" stroke="rgb(71, 92, 113)" stroke-width="1" stroke-miterlimit="10" fill="none" d="M 170.62,22.34 C 168.87,19.34 166.79,18.64 163.87,18.24 160.96,17.84 159.04,15.01 163.87,11.34 168.71,7.67 174.54,10.09 176.29,8.84 178.04,7.59 182.96,7.34 188.12,8.84 193.29,10.34 199.37,11.98 200.04,18.24 200.71,24.5 196.87,31.92 195.71,36.5 194.54,41.09 189.87,47.42 186.71,48.92 183.54,50.42 174.29,55.42 167.54,48.92 160.79,42.42 165.79,36.55 164.71,32.84" />
    <path id="fmThreeObjectsAll-bezier9" stroke="rgb(71, 92, 113)" stroke-width="1" stroke-miterlimit="10" fill="none" d="M 165.39,19.41 C 165.39,19.41 164.52,27.82 165.39,29.44" />
    <path id="fmThreeObjectsAll-bezier10" stroke="rgb(71, 92, 113)" stroke-width="0.5" stroke-miterlimit="10" fill="none" d="M 173.54,13.84 C 179.12,12.76 183.79,19.17 187.62,17.17 191.46,15.17 195.79,17.75 195.21,20.67" />
    <path id="fmThreeObjectsAll-bezier11" stroke="rgb(71, 92, 113)" stroke-width="0.5" stroke-miterlimit="10" fill="none" d="M 190.71,29.34 C 188.21,33.26 186.21,35.92 186.29,38.59" />
    <path id="fmThreeObjectsAll-bezier12" stroke="rgb(71, 92, 113)" stroke-width="0.5" stroke-miterlimit="10" fill="none" d="M 180.52,41.25 C 179.04,39.09 176.12,36.17 172.29,36" />
    <path id="fmThreeObjectsAll-bezier13" stroke="rgb(71, 92, 113)" stroke-width="1" stroke-miterlimit="10" fill="none" d="M 125.23,21.25 C 125.09,21.26 124.94,21.26 124.79,21.25 120.71,21.09 121.96,16.34 119.21,19.75" />
    <path id="fmThreeObjectsAll-bezier14" stroke="rgb(71, 92, 113)" stroke-width="1" stroke-miterlimit="10" fill="none" d="M 84.54,28.34 C 83.79,26.09 86.79,22.17 86.21,19.26 85.62,16.34 80.04,12.94 82.62,7.81 85.21,2.67 92.96,2.51 97.46,4.76 101.96,7.01 110.54,5.67 114.46,4.01 118.37,2.34 127.12,3.36 129.87,7.81 132.62,12.25 128.87,14.5 128.79,15.79 128.74,16.53 128.78,18.26 128.06,19.58" />
    <path id="fmThreeObjectsAll-bezier15" stroke="rgb(71, 92, 113)" stroke-width="1" stroke-miterlimit="10" fill="none" d="M 126.71,24.75 C 126.71,24.75 126.87,31.09 125.79,32.5 124.71,33.92 120.29,36.75 120.12,38.63 119.96,40.5 117.21,45.84 112.21,46.67 107.21,47.51 96.71,48.73 92.12,43.7 87.54,38.67 83.12,36.84 82.54,33.67 81.96,30.5 82.62,27.42 82.54,24.75" />
    <path id="fmThreeObjectsAll-bezier16" stroke="rgb(71, 92, 113)" stroke-width="0.5" stroke-miterlimit="10" fill="none" d="M 83.42,19.05 C 83.42,19.05 84.54,18.09 84.29,17.34" />
    <path id="fmThreeObjectsAll-bezier17" stroke="rgb(71, 92, 113)" stroke-width="0.5" stroke-miterlimit="10" fill="none" d="M 121.46,6.33 C 119.46,6.17 114.71,5.01 114.96,9.92 115.21,14.84 116.37,20 118.71,21.09" />
    <path id="fmThreeObjectsAll-bezier18" stroke="rgb(71, 92, 113)" stroke-width="0.5" stroke-miterlimit="10" fill="none" d="M 95.79,7.8 C 96.12,8 96.62,16.5 92.21,16.17" />
    <path id="fmThreeObjectsAll-bezier19" stroke="rgb(71, 92, 113)" stroke-width="0.5" stroke-miterlimit="10" fill="none" d="M 96,42 C 97.79,42 100.87,43.67 102.46,39.25" />
    <path id="fmThreeObjectsAll-bezier20" stroke="rgb(71, 92, 113)" stroke-width="0.5" stroke-miterlimit="10" fill="none" d="M 121.69,21.39 C 121.81,22.01 121.58,23.45 120.35,23.91" />
    <path id="fmThreeObjectsAll-bezier21" stroke="rgb(71, 92, 113)" stroke-width="0.5" stroke-miterlimit="10" fill="none" d="M 83.27,24.55 C 83.27,24.55 84.66,24.35 84.75,24.03" />
    <path id="fmThreeObjectsAll-bezier22" stroke="rgb(71, 92, 113)" stroke-width="0.5" stroke-miterlimit="10" fill="none" d="M 166.37,24.64 C 166.37,24.64 167.52,24.03 168.81,24.8" />
    <path id="fmThreeObjectsAll-bezier23" stroke="rgb(71, 92, 113)" stroke-width="0.5" stroke-miterlimit="10" fill="none" d="M 38.16,18.53 C 37.73,18.68 37.89,20.76 36.64,20.64" />
</svg>
