<?xml version="1.0" encoding="UTF-8"?>
<!DOCTYPE svg PUBLIC "-//W3C//DTD SVG 1.1//EN" "http://www.w3.org/Graphics/SVG/1.1/DTD/svg11.dtd">
<svg version="1.1" xmlns="http://www.w3.org/2000/svg" xmlns:xlink="http://www.w3.org/1999/xlink" width="121" height="51"  xml:space="preserve" id="fmThreeObjectsRH">
    <!-- Generated by PaintCode - http://www.paintcodeapp.com -->
    <path id="fmThreeObjectsRH-bezier" stroke="none" fill="rgb(63, 62, 62)" fill-opacity="0.5" d="M 84.57,16.28 C 84.66,15.76 83.51,16.07 82.93,15.99 80.01,15.59 78.09,12.76 82.93,9.09 87.76,5.42 93.59,7.84 95.34,6.59 97.09,5.34 102.01,5.09 107.18,6.59 112.34,8.09 118.43,9.73 119.09,15.99 119.76,22.25 115.93,29.67 114.76,34.25 113.59,38.84 108.93,45.17 105.76,46.67 102.59,48.17 93.34,53.17 86.59,46.67 79.84,40.17 84.84,34.3 83.76,30.59 83.76,30.59 83.47,28.78 83.96,27.88 84.44,26.97 84.53,27.08 84.34,26.09 84.16,25.1 84.02,19.5 84.57,16.28 Z M 84.57,16.28" />
    <path id="fmThreeObjectsRH-bezier2" stroke="none" fill="rgb(162, 28, 38)" fill-opacity="0.5" d="M 45.7,18.83 C 47.88,17.82 47.78,14.75 47.85,13.69 47.93,12.4 51.68,10.15 48.93,5.7 46.18,1.25 37.43,0.24 33.51,1.9 29.59,3.57 21.01,4.9 16.51,2.65 12.01,0.4 4.26,0.57 1.68,5.7 0.69,7.67 1.17,9.3 1.57,10.92 2.09,13.07 1.6,22.65 1.6,22.65 1.68,25.32 1.01,28.4 1.6,31.57 2.18,34.74 6.6,36.57 11.18,41.6 15.76,46.63 26.26,45.4 31.26,44.57 36.26,43.74 39.01,38.4 39.18,36.53 39.35,34.65 43.76,31.82 44.85,30.4 45.93,28.99 45.76,22.65 45.76,22.65 L 45.7,18.83 Z M 45.7,18.83" />
    <path id="fmThreeObjectsRH-bezier3" stroke="rgb(71, 92, 113)" stroke-width="1" stroke-miterlimit="10" fill="none" d="M 41.01,21.28 C 41.49,21.22 41.1,29.24 43.16,29.84 43.89,30.05 44.17,27.46 45.07,22.49 45.98,17.52 47.26,17.24 47.84,20.85 48.42,24.45 48.33,28.95 49.83,29.01 51.34,29.07 51.1,18.69 52.53,18.63 53.96,18.58 53.23,29.64 55.22,29.3 57.22,28.96 56.64,19.14 58.16,18.84 59.68,18.54 59.99,29.4 61.18,29.52 62.36,29.65 62.28,19.34 64.03,19.06 65.79,18.78 65.53,29.94 67.2,29.84 68.87,29.73 68.09,18.86 69.61,18.75 71.12,18.64 70.94,29.81 72.77,29.55 74.61,29.28 74.11,19.34 75.48,18.97 76.84,18.61 76.84,29.09 78.43,29.09 80.02,29.09 79.34,18.41 81.09,18.41 82.84,18.41 81.84,28.75 84.51,28.75 87.18,28.75 87.1,22.62 87.1,22.62" />
    <path id="fmThreeObjectsRH-bezier4" stroke="rgb(71, 92, 113)" stroke-width="1" stroke-miterlimit="10" fill="none" d="M 90.18,20.59 C 88.43,17.59 86.35,16.89 83.43,16.49 80.51,16.09 78.6,13.26 83.43,9.59 88.26,5.92 94.1,8.34 95.85,7.09 97.6,5.84 102.51,5.59 107.68,7.09 112.85,8.59 118.93,10.23 119.6,16.49 120.26,22.75 116.43,30.17 115.26,34.75 114.1,39.34 109.43,45.67 106.26,47.17 103.1,48.67 93.85,53.67 87.1,47.17 80.35,40.67 85.34,34.8 84.26,31.09" />
    <path id="fmThreeObjectsRH-bezier5" stroke="rgb(71, 92, 113)" stroke-width="1" stroke-miterlimit="10" fill="none" d="M 84.95,17.66 C 84.95,17.66 84.07,26.07 84.95,27.69" />
    <path id="fmThreeObjectsRH-bezier6" stroke="rgb(71, 92, 113)" stroke-width="0.5" stroke-miterlimit="10" fill="none" d="M 93.1,12.09 C 98.68,11.01 103.35,17.42 107.18,15.42 111.01,13.42 115.34,16 114.76,18.92" />
    <path id="fmThreeObjectsRH-bezier7" stroke="rgb(71, 92, 113)" stroke-width="0.5" stroke-miterlimit="10" fill="none" d="M 110.26,27.59 C 107.76,31.51 105.76,34.17 105.85,36.84" />
    <path id="fmThreeObjectsRH-bezier8" stroke="rgb(71, 92, 113)" stroke-width="0.5" stroke-miterlimit="10" fill="none" d="M 100.08,39.5 C 98.6,37.34 95.68,34.42 91.85,34.25" />
    <path id="fmThreeObjectsRH-bezier9" stroke="rgb(71, 92, 113)" stroke-width="1" stroke-miterlimit="10" fill="none" d="M 44.78,19.51 C 44.64,19.51 44.5,19.51 44.34,19.51 40.26,19.34 41.51,14.59 38.76,18.01" />
    <path id="fmThreeObjectsRH-bezier10" stroke="rgb(71, 92, 113)" stroke-width="1" stroke-miterlimit="10" fill="none" d="M 4.1,26.59 C 3.35,24.34 6.34,20.42 5.76,17.51 5.18,14.59 -0.4,11.19 2.18,6.06 4.76,0.92 12.51,0.76 17.01,3.01 21.51,5.26 30.09,3.92 34.01,2.26 37.93,0.59 46.68,1.61 49.43,6.06 52.18,10.5 48.43,12.75 48.35,14.04 48.3,14.78 48.33,16.51 47.61,17.83" />
    <path id="fmThreeObjectsRH-bezier11" stroke="rgb(71, 92, 113)" stroke-width="1" stroke-miterlimit="10" fill="none" d="M 46.26,23 C 46.26,23 46.43,29.34 45.35,30.75 44.26,32.17 39.85,35 39.68,36.88 39.51,38.75 36.76,44.09 31.76,44.92 26.76,45.76 16.26,46.98 11.68,41.95 7.1,36.92 2.68,35.09 2.1,31.92 1.51,28.75 2.18,25.67 2.1,23 2.1,23 2.73,14.57 2.27,13.33" />
    <path id="fmThreeObjectsRH-bezier12" stroke="rgb(71, 92, 113)" stroke-width="0.5" stroke-miterlimit="10" fill="none" d="M 2.97,17.3 C 2.97,17.3 4.1,16.34 3.85,15.59" />
    <path id="fmThreeObjectsRH-bezier13" stroke="rgb(71, 92, 113)" stroke-width="0.5" stroke-miterlimit="10" fill="none" d="M 41.01,4.58 C 39.01,4.42 34.26,3.26 34.51,8.17 34.76,13.09 35.93,18.25 38.26,19.34" />
    <path id="fmThreeObjectsRH-bezier14" stroke="rgb(71, 92, 113)" stroke-width="0.5" stroke-miterlimit="10" fill="none" d="M 15.34,6.06 C 15.68,6.26 16.18,14.76 11.76,14.42" />
    <path id="fmThreeObjectsRH-bezier15" stroke="rgb(71, 92, 113)" stroke-width="0.5" stroke-miterlimit="10" fill="none" d="M 15.55,40.25 C 17.34,40.25 20.43,41.92 22.01,37.5" />
    <path id="fmThreeObjectsRH-bezier16" stroke="rgb(71, 92, 113)" stroke-width="0.5" stroke-miterlimit="10" fill="none" d="M 41.24,19.64 C 41.37,20.26 41.14,21.7 39.91,22.16" />
    <path id="fmThreeObjectsRH-bezier17" stroke="rgb(71, 92, 113)" stroke-width="0.5" stroke-miterlimit="10" fill="none" d="M 2.82,22.8 C 2.82,22.8 4.22,22.6 4.3,22.28" />
    <path id="fmThreeObjectsRH-bezier18" stroke="rgb(71, 92, 113)" stroke-width="0.5" stroke-miterlimit="10" fill="none" d="M 85.93,22.89 C 85.93,22.89 87.07,22.28 88.37,23.05" />
</svg>
