<?xml version="1.0" encoding="UTF-8"?>
<!DOCTYPE svg PUBLIC "-//W3C//DTD SVG 1.1//EN" "http://www.w3.org/Graphics/SVG/1.1/DTD/svg11.dtd">
<svg version="1.1" xmlns="http://www.w3.org/2000/svg" xmlns:xlink="http://www.w3.org/1999/xlink" width="132" height="50"  xml:space="preserve" id="fmThreeObjectsLH">
    <!-- Generated by PaintCode - http://www.paintcodeapp.com -->
    <path id="fmThreeObjectsLH-bezier" stroke="none" fill="rgb(162, 28, 38)" fill-opacity="0.5" d="M 126.15,20.58 C 128.32,19.57 128.22,16.5 128.29,15.44 128.37,14.15 132.12,11.9 129.37,7.45 126.62,3 117.87,1.99 113.96,3.65 110.04,5.32 101.46,6.65 96.96,4.4 92.46,2.15 84.71,2.32 82.12,7.45 81.13,9.42 81.62,11.05 82.01,12.67 82.54,14.82 82.04,24.4 82.04,24.4 82.12,27.07 81.46,30.15 82.04,33.32 82.62,36.49 87.04,38.32 91.62,43.35 96.21,48.38 106.71,47.15 111.71,46.32 116.71,45.49 119.46,40.15 119.62,38.28 119.79,36.4 124.21,33.57 125.29,32.15 126.37,30.74 126.21,24.4 126.21,24.4 L 126.15,20.58 Z M 126.15,20.58" />
    <path id="fmThreeObjectsLH-bezier2" stroke="rgb(71, 92, 113)" stroke-width="1" stroke-miterlimit="10" fill="rgb(56, 101, 57)" fill-opacity="0.5" d="M 38.21,15.95 C 37.79,16.45 39.37,17.75 42.54,24.25 45.71,30.75 43.62,36.5 41.54,37.59 39.46,38.67 41.62,43.92 33.04,47.42 24.46,50.92 15.04,49.75 8.96,45.5 2.87,41.25 1.21,32.92 1.54,27.42 1.87,21.92 3.46,20.34 6.12,15.59 8.79,10.84 19.04,1.25 21.87,1.5 24.71,1.75 27.12,2.5 32.29,2.25 37.46,2 44.96,9.34 45.29,11.42 45.62,13.51 42.37,15 39.87,14.84 39.87,14.84 35.96,15.09 32.37,11.67" />
    <path id="fmThreeObjectsLH-bezier3" stroke="rgb(71, 92, 113)" stroke-width="0.5" stroke-miterlimit="10" fill="none" d="M 37.37,9.34 C 37.37,9.34 33.21,7.59 31.29,6.51 29.37,5.42 20.37,9.67 21.37,11.42" />
    <path id="fmThreeObjectsLH-bezier4" stroke="rgb(71, 92, 113)" stroke-width="0.5" stroke-miterlimit="10" fill="none" d="M 17.87,43.67 C 17.87,43.67 26.38,44.09 29.33,41.75 32.29,39.42 36.37,38.25 36.29,35.67" />
    <path id="fmThreeObjectsLH-bezier5" stroke="rgb(71, 92, 113)" stroke-width="1" stroke-miterlimit="10" fill="none" d="M 37.87,19.59 C 38.37,19.51 37.71,30.51 39.96,30.51 42.21,30.51 43.29,27.92 44.04,22.92 44.79,17.92 46.12,17.59 46.87,21.17 47.62,24.76 47.71,29.26 49.29,29.26 50.87,29.26 50.21,18.89 51.71,18.78 53.21,18.67 52.87,29.76 54.96,29.34 57.04,28.92 56.04,19.14 57.62,18.78 59.21,18.42 59.96,29.26 61.21,29.34 62.46,29.42 61.96,19.12 63.79,18.77 65.62,18.42 65.79,29.59 67.54,29.42 69.29,29.26 68.04,18.42 69.62,18.26 71.21,18.09 71.46,29.26 73.37,28.92 75.29,28.59 74.37,18.67 75.79,18.25 77.21,17.84 77.62,28.26 79.29,28.26 80.96,28.26 80.29,18.23 81.46,18.24 82.62,18.26 83.96,24.37 83.96,24.37" />
    <path id="fmThreeObjectsLH-bezier6" stroke="rgb(71, 92, 113)" stroke-width="1" stroke-miterlimit="10" fill="none" d="M 125.23,21.26 C 125.09,21.26 124.94,21.26 124.79,21.26 120.71,21.09 121.96,16.34 119.21,19.76" />
    <path id="fmThreeObjectsLH-bezier7" stroke="rgb(71, 92, 113)" stroke-width="1" stroke-miterlimit="10" fill="none" d="M 84.54,28.34 C 83.79,26.09 86.79,22.17 86.21,19.26 85.62,16.34 80.04,12.94 82.62,7.81 85.21,2.67 92.96,2.51 97.46,4.76 101.96,7.01 110.54,5.67 114.46,4.01 118.37,2.34 127.12,3.36 129.87,7.81 132.62,12.25 128.87,14.5 128.79,15.79 128.74,16.53 128.79,18.27 128.06,19.58 127.61,20.36 126.65,21.08 126.65,21.08 L 126.71,24.75 C 126.71,24.75 126.88,31.09 125.79,32.5 124.71,33.92 120.29,36.75 120.12,38.63 119.96,40.5 117.21,45.84 112.21,46.67 107.21,47.51 96.71,48.73 92.12,43.7 87.54,38.67 83.13,36.84 82.54,33.67 81.96,30.5 82.63,27.42 82.54,24.75" />
    <path id="fmThreeObjectsLH-bezier8" stroke="rgb(71, 92, 113)" stroke-width="0.5" stroke-miterlimit="10" fill="none" d="M 83.42,19.05 C 83.42,19.05 84.54,18.09 84.29,17.34" />
    <path id="fmThreeObjectsLH-bezier9" stroke="rgb(71, 92, 113)" stroke-width="0.5" stroke-miterlimit="10" fill="none" d="M 121.46,6.33 C 119.46,6.17 114.71,5.01 114.96,9.92 115.21,14.84 116.37,20 118.71,21.09" />
    <path id="fmThreeObjectsLH-bezier10" stroke="rgb(71, 92, 113)" stroke-width="0.5" stroke-miterlimit="10" fill="none" d="M 95.79,7.81 C 96.12,8.01 96.62,16.51 92.21,16.17" />
    <path id="fmThreeObjectsLH-bezier11" stroke="rgb(71, 92, 113)" stroke-width="0.5" stroke-miterlimit="10" fill="none" d="M 96,42.01 C 97.79,42.01 100.87,43.67 102.46,39.26" />
    <path id="fmThreeObjectsLH-bezier12" stroke="rgb(71, 92, 113)" stroke-width="0.5" stroke-miterlimit="10" fill="none" d="M 121.69,21.39 C 121.81,22.01 121.58,23.45 120.35,23.91" />
    <path id="fmThreeObjectsLH-bezier13" stroke="rgb(71, 92, 113)" stroke-width="0.5" stroke-miterlimit="10" fill="none" d="M 83.27,24.55 C 83.27,24.55 84.66,24.35 84.75,24.03" />
    <path id="fmThreeObjectsLH-bezier14" stroke="rgb(71, 92, 113)" stroke-width="0.5" stroke-miterlimit="10" fill="none" d="M 38.16,18.53 C 37.73,18.68 37.89,20.76 36.64,20.64" />
    <path id="fmThreeObjectsLH-bezier15" stroke="rgb(71, 92, 113)" stroke-width="1" stroke-miterlimit="10" fill="none" d="M 82.66,13.34 C 82.66,13.34 82.95,17.42 82.75,17.93" />
</svg>
