<?xml version="1.0" encoding="UTF-8" standalone="no"?>
<!DOCTYPE svg PUBLIC "-//W3C//DTD SVG 1.1//EN" "http://www.w3.org/Graphics/SVG/1.1/DTD/svg11.dtd">
<svg width="100%" height="100%" viewBox="0 0 462 164" version="1.1" xmlns="http://www.w3.org/2000/svg" xmlns:xlink="http://www.w3.org/1999/xlink" xml:space="preserve" xmlns:serif="http://www.serif.com/" style="fill-rule:evenodd;clip-rule:evenodd;stroke-miterlimit:10;">
    <g transform="matrix(1,0,0,1,0.000468905,-3.47614e-05)">
        <g transform="matrix(1,0,0,1,121.218,-56.4314)">
            <g id="pane01">
                <g>
                    <g>
                        <g>
                            <clipPath id="_clip1">
                                <path d="M14.213,88.128C12.39,89.457 7.353,86.987 5.923,87.507L7.456,194.35L44.478,194.115C45.784,193.551 47.24,193.17 48.48,192.732C50.071,192.17 51.129,192.107 53.188,191.884C54.526,191.739 56.371,190.923 58.067,190.676C58.793,190.57 61.411,189.77 62.085,189.179C65.089,190.415 67.002,189.204 69.959,188.938C71.849,188.768 75.49,189.69 76.184,187.211C76.718,187.25 78.387,187.398 78.863,187.166C79.287,186.96 80.397,185.742 80.825,185.697C81.962,185.576 83.674,185.88 84.754,185.866C88.361,185.818 90.969,184.283 94.273,183.658C96.032,183.325 97.204,183.564 99.068,183.143C101.297,182.64 102.684,180.536 105.232,180.312C106.976,180.159 108.456,180.732 109.76,180.729C111.606,180.725 113.326,179.644 114.83,181.046C117.067,178.335 122.339,178.103 125.436,177.913C129.049,177.691 133.028,176.962 136.979,176.886C141.243,176.804 142.837,175.278 146.6,173.718C148.697,172.849 150.1,173.762 152.086,173.882C154.695,174.04 154.669,171.635 156.95,175.749C158.395,173.195 162.439,174.491 164.818,174.07C165.795,173.897 167.78,173.137 168.517,172.864C168.43,172.896 169.835,173.458 170.229,173.393C170.82,173.297 170.807,171.961 171.394,171.82C174.367,171.103 177.752,172.126 180.563,171.064C182.496,170.334 183.585,167.747 185.706,167.265C186.982,166.975 188.128,168.53 189.817,167.598C192.11,171.39 192.162,168.036 194.184,167.632C195.803,167.308 197.165,168.141 199.405,168.327C201.787,168.525 204.221,167.875 206.513,167.967C208.637,168.052 210.536,168.961 212.681,169.046C214.073,169.101 215.325,168.79 216.692,168.916C218.148,169.051 219.785,169.287 221.317,169.362C222.048,169.398 222.556,169.298 223.033,169.262L223.033,127.53L14.213,88.128Z"/>
                            </clipPath>
                            <g clip-path="url(#_clip1)">
                                <path d="M12.661,75.208L-118.706,206.575" style="fill:none;fill-rule:nonzero;stroke:rgb(47,104,135);stroke-width:0.5px;"/>
                                <path d="M17.239,75.208L-114.128,206.575" style="fill:none;fill-rule:nonzero;stroke:rgb(47,104,135);stroke-width:0.5px;"/>
                                <path d="M21.817,75.208L-109.55,206.575" style="fill:none;fill-rule:nonzero;stroke:rgb(47,104,135);stroke-width:0.5px;"/>
                                <path d="M26.395,75.208L-104.972,206.575" style="fill:none;fill-rule:nonzero;stroke:rgb(47,104,135);stroke-width:0.5px;"/>
                                <path d="M30.973,75.208L-100.394,206.575" style="fill:none;fill-rule:nonzero;stroke:rgb(47,104,135);stroke-width:0.5px;"/>
                                <path d="M35.551,75.208L-95.816,206.575" style="fill:none;fill-rule:nonzero;stroke:rgb(47,104,135);stroke-width:0.5px;"/>
                                <path d="M40.129,75.208L-91.238,206.575" style="fill:none;fill-rule:nonzero;stroke:rgb(47,104,135);stroke-width:0.5px;"/>
                                <path d="M44.707,75.208L-86.66,206.575" style="fill:none;fill-rule:nonzero;stroke:rgb(47,104,135);stroke-width:0.5px;"/>
                                <path d="M49.285,75.208L-82.082,206.575" style="fill:none;fill-rule:nonzero;stroke:rgb(47,104,135);stroke-width:0.5px;"/>
                                <path d="M53.863,75.208L-77.504,206.575" style="fill:none;fill-rule:nonzero;stroke:rgb(47,104,135);stroke-width:0.5px;"/>
                                <path d="M58.441,75.208L-72.926,206.575" style="fill:none;fill-rule:nonzero;stroke:rgb(47,104,135);stroke-width:0.5px;"/>
                                <path d="M63.019,75.208L-68.348,206.575" style="fill:none;fill-rule:nonzero;stroke:rgb(47,104,135);stroke-width:0.5px;"/>
                                <path d="M67.597,75.208L-63.77,206.575" style="fill:none;fill-rule:nonzero;stroke:rgb(47,104,135);stroke-width:0.5px;"/>
                                <path d="M72.175,75.208L-59.192,206.575" style="fill:none;fill-rule:nonzero;stroke:rgb(47,104,135);stroke-width:0.5px;"/>
                                <path d="M76.754,75.208L-54.614,206.575" style="fill:none;fill-rule:nonzero;stroke:rgb(47,104,135);stroke-width:0.5px;"/>
                                <path d="M81.332,75.208L-50.036,206.575" style="fill:none;fill-rule:nonzero;stroke:rgb(47,104,135);stroke-width:0.5px;"/>
                                <path d="M85.91,75.208L-45.458,206.575" style="fill:none;fill-rule:nonzero;stroke:rgb(47,104,135);stroke-width:0.5px;"/>
                                <path d="M90.488,75.208L-40.88,206.575" style="fill:none;fill-rule:nonzero;stroke:rgb(47,104,135);stroke-width:0.5px;"/>
                                <path d="M95.066,75.208L-36.302,206.575" style="fill:none;fill-rule:nonzero;stroke:rgb(47,104,135);stroke-width:0.5px;"/>
                                <path d="M99.644,75.208L-31.724,206.575" style="fill:none;fill-rule:nonzero;stroke:rgb(47,104,135);stroke-width:0.5px;"/>
                                <path d="M104.222,75.208L-27.146,206.575" style="fill:none;fill-rule:nonzero;stroke:rgb(47,104,135);stroke-width:0.5px;"/>
                                <path d="M108.8,75.208L-22.567,206.575" style="fill:none;fill-rule:nonzero;stroke:rgb(47,104,135);stroke-width:0.5px;"/>
                                <path d="M113.378,75.208L-17.989,206.575" style="fill:none;fill-rule:nonzero;stroke:rgb(47,104,135);stroke-width:0.5px;"/>
                                <path d="M117.956,75.208L-13.411,206.575" style="fill:none;fill-rule:nonzero;stroke:rgb(47,104,135);stroke-width:0.5px;"/>
                                <path d="M122.534,75.208L-8.833,206.575" style="fill:none;fill-rule:nonzero;stroke:rgb(47,104,135);stroke-width:0.5px;"/>
                                <path d="M127.112,75.208L-4.255,206.575" style="fill:none;fill-rule:nonzero;stroke:rgb(47,104,135);stroke-width:0.5px;"/>
                                <path d="M131.69,75.208L0.323,206.575" style="fill:none;fill-rule:nonzero;stroke:rgb(47,104,135);stroke-width:0.5px;"/>
                                <path d="M136.268,75.208L4.901,206.575" style="fill:none;fill-rule:nonzero;stroke:rgb(47,104,135);stroke-width:0.5px;"/>
                                <path d="M140.846,75.208L9.479,206.575" style="fill:none;fill-rule:nonzero;stroke:rgb(47,104,135);stroke-width:0.5px;"/>
                                <path d="M145.424,75.208L14.057,206.575" style="fill:none;fill-rule:nonzero;stroke:rgb(47,104,135);stroke-width:0.5px;"/>
                                <path d="M150.002,75.208L18.635,206.575" style="fill:none;fill-rule:nonzero;stroke:rgb(47,104,135);stroke-width:0.5px;"/>
                                <path d="M154.58,75.208L23.213,206.575" style="fill:none;fill-rule:nonzero;stroke:rgb(47,104,135);stroke-width:0.5px;"/>
                                <path d="M159.158,75.208L27.791,206.575" style="fill:none;fill-rule:nonzero;stroke:rgb(47,104,135);stroke-width:0.5px;"/>
                                <path d="M163.736,75.208L32.369,206.575" style="fill:none;fill-rule:nonzero;stroke:rgb(47,104,135);stroke-width:0.5px;"/>
                                <path d="M168.314,75.208L36.947,206.575" style="fill:none;fill-rule:nonzero;stroke:rgb(47,104,135);stroke-width:0.5px;"/>
                                <path d="M172.892,75.208L41.525,206.575" style="fill:none;fill-rule:nonzero;stroke:rgb(47,104,135);stroke-width:0.5px;"/>
                                <path d="M177.47,75.208L46.103,206.575" style="fill:none;fill-rule:nonzero;stroke:rgb(47,104,135);stroke-width:0.5px;"/>
                                <path d="M182.049,75.208L50.681,206.575" style="fill:none;fill-rule:nonzero;stroke:rgb(47,104,135);stroke-width:0.5px;"/>
                                <path d="M186.627,75.208L55.259,206.575" style="fill:none;fill-rule:nonzero;stroke:rgb(47,104,135);stroke-width:0.5px;"/>
                                <path d="M191.205,75.208L59.837,206.575" style="fill:none;fill-rule:nonzero;stroke:rgb(47,104,135);stroke-width:0.5px;"/>
                                <path d="M195.783,75.208L64.415,206.575" style="fill:none;fill-rule:nonzero;stroke:rgb(47,104,135);stroke-width:0.5px;"/>
                                <path d="M200.361,75.208L68.993,206.575" style="fill:none;fill-rule:nonzero;stroke:rgb(47,104,135);stroke-width:0.5px;"/>
                                <path d="M204.939,75.208L73.571,206.575" style="fill:none;fill-rule:nonzero;stroke:rgb(47,104,135);stroke-width:0.5px;"/>
                                <path d="M209.517,75.208L78.149,206.575" style="fill:none;fill-rule:nonzero;stroke:rgb(47,104,135);stroke-width:0.5px;"/>
                                <path d="M214.095,75.208L82.728,206.575" style="fill:none;fill-rule:nonzero;stroke:rgb(47,104,135);stroke-width:0.5px;"/>
                                <path d="M218.673,75.208L87.306,206.575" style="fill:none;fill-rule:nonzero;stroke:rgb(47,104,135);stroke-width:0.5px;"/>
                                <path d="M223.251,75.208L91.884,206.575" style="fill:none;fill-rule:nonzero;stroke:rgb(47,104,135);stroke-width:0.5px;"/>
                                <path d="M227.829,75.208L96.462,206.575" style="fill:none;fill-rule:nonzero;stroke:rgb(47,104,135);stroke-width:0.5px;"/>
                                <path d="M232.407,75.208L101.04,206.575" style="fill:none;fill-rule:nonzero;stroke:rgb(47,104,135);stroke-width:0.5px;"/>
                                <path d="M236.985,75.208L105.618,206.575" style="fill:none;fill-rule:nonzero;stroke:rgb(47,104,135);stroke-width:0.5px;"/>
                                <path d="M241.563,75.208L110.196,206.575" style="fill:none;fill-rule:nonzero;stroke:rgb(47,104,135);stroke-width:0.5px;"/>
                                <path d="M246.141,75.208L114.774,206.575" style="fill:none;fill-rule:nonzero;stroke:rgb(47,104,135);stroke-width:0.5px;"/>
                                <path d="M250.719,75.208L119.352,206.575" style="fill:none;fill-rule:nonzero;stroke:rgb(47,104,135);stroke-width:0.5px;"/>
                                <path d="M255.297,75.208L123.93,206.575" style="fill:none;fill-rule:nonzero;stroke:rgb(47,104,135);stroke-width:0.5px;"/>
                                <path d="M259.875,75.208L128.508,206.575" style="fill:none;fill-rule:nonzero;stroke:rgb(47,104,135);stroke-width:0.5px;"/>
                                <path d="M264.453,75.208L133.086,206.575" style="fill:none;fill-rule:nonzero;stroke:rgb(47,104,135);stroke-width:0.5px;"/>
                                <path d="M269.031,75.208L137.664,206.575" style="fill:none;fill-rule:nonzero;stroke:rgb(47,104,135);stroke-width:0.5px;"/>
                                <path d="M273.609,75.208L142.242,206.575" style="fill:none;fill-rule:nonzero;stroke:rgb(47,104,135);stroke-width:0.5px;"/>
                                <path d="M278.187,75.208L146.82,206.575" style="fill:none;fill-rule:nonzero;stroke:rgb(47,104,135);stroke-width:0.5px;"/>
                                <path d="M282.766,75.208L151.398,206.575" style="fill:none;fill-rule:nonzero;stroke:rgb(47,104,135);stroke-width:0.5px;"/>
                                <path d="M287.344,75.208L155.976,206.575" style="fill:none;fill-rule:nonzero;stroke:rgb(47,104,135);stroke-width:0.5px;"/>
                                <path d="M291.922,75.208L160.554,206.575" style="fill:none;fill-rule:nonzero;stroke:rgb(47,104,135);stroke-width:0.5px;"/>
                                <path d="M296.5,75.208L165.132,206.575" style="fill:none;fill-rule:nonzero;stroke:rgb(47,104,135);stroke-width:0.5px;"/>
                                <path d="M301.078,75.208L169.71,206.575" style="fill:none;fill-rule:nonzero;stroke:rgb(47,104,135);stroke-width:0.5px;"/>
                                <path d="M305.656,75.208L174.288,206.575" style="fill:none;fill-rule:nonzero;stroke:rgb(47,104,135);stroke-width:0.5px;"/>
                                <path d="M310.234,75.208L178.866,206.575" style="fill:none;fill-rule:nonzero;stroke:rgb(47,104,135);stroke-width:0.5px;"/>
                                <path d="M314.812,75.208L183.445,206.575" style="fill:none;fill-rule:nonzero;stroke:rgb(47,104,135);stroke-width:0.5px;"/>
                                <path d="M319.39,75.208L188.023,206.575" style="fill:none;fill-rule:nonzero;stroke:rgb(47,104,135);stroke-width:0.5px;"/>
                                <path d="M323.968,75.208L192.601,206.575" style="fill:none;fill-rule:nonzero;stroke:rgb(47,104,135);stroke-width:0.5px;"/>
                                <path d="M328.546,75.208L197.179,206.575" style="fill:none;fill-rule:nonzero;stroke:rgb(47,104,135);stroke-width:0.5px;"/>
                                <path d="M333.124,75.208L201.757,206.575" style="fill:none;fill-rule:nonzero;stroke:rgb(47,104,135);stroke-width:0.5px;"/>
                                <path d="M337.702,75.208L206.335,206.575" style="fill:none;fill-rule:nonzero;stroke:rgb(47,104,135);stroke-width:0.5px;"/>
                            </g>
                        </g>
                    </g>
                </g>
                <g>
                    <g>
                        <g>
                            <clipPath id="_clip2">
                                <path d="M62.086,189.117C61.412,189.707 58.794,190.508 58.068,190.614C56.372,190.861 54.527,191.676 53.189,191.822C51.13,192.045 50.071,192.109 48.481,192.67C47.241,193.108 45.784,193.489 44.479,194.053L223.034,192.919L223.034,169.198C222.556,169.234 222.049,169.334 221.318,169.298C219.786,169.224 218.149,168.987 216.693,168.852C215.326,168.726 214.074,169.037 212.682,168.982C210.537,168.897 208.638,167.988 206.514,167.903C204.222,167.812 201.788,168.461 199.406,168.263C197.166,168.077 195.804,167.245 194.185,167.568C192.163,167.972 192.111,171.326 189.818,167.534C188.13,168.465 186.983,166.911 185.707,167.201C183.586,167.683 182.497,170.27 180.564,171C177.753,172.061 174.368,171.039 171.395,171.756C170.808,171.898 170.821,173.233 170.23,173.329C169.836,173.393 168.431,172.832 168.518,172.8C167.781,173.073 165.797,173.833 164.819,174.006C162.441,174.427 158.397,173.131 156.951,175.685C154.67,171.571 154.697,173.976 152.087,173.818C150.101,173.698 148.697,172.785 146.601,173.654C142.838,175.215 141.244,176.74 136.98,176.822C133.03,176.898 129.05,177.627 125.437,177.849C122.34,178.04 117.068,178.271 114.831,180.982C113.327,179.58 111.607,180.661 109.761,180.665C108.457,180.667 106.977,180.094 105.233,180.248C102.685,180.472 101.298,182.576 99.069,183.079C97.204,183.5 96.033,183.261 94.274,183.594C90.97,184.219 88.362,185.755 84.755,185.802C83.675,185.816 81.963,185.512 80.826,185.633C80.398,185.679 79.288,186.896 78.864,187.102C78.388,187.334 76.719,187.186 76.185,187.147C75.491,189.626 71.85,188.704 69.96,188.874C67.003,189.141 65.09,190.353 62.086,189.117Z"/>
                            </clipPath>
                            <g clip-path="url(#_clip2)">
                                <path d="M73.083,127.438L-17.151,217.672" style="fill:none;fill-rule:nonzero;stroke:rgb(47,104,135);stroke-width:0.5px;"/>
                                <path d="M75.231,127.438L-15.003,217.672" style="fill:none;fill-rule:nonzero;stroke:rgb(47,104,135);stroke-width:0.5px;"/>
                                <path d="M77.379,127.438L-12.855,217.672" style="fill:none;fill-rule:nonzero;stroke:rgb(47,104,135);stroke-width:0.5px;"/>
                                <path d="M79.527,127.438L-10.707,217.672" style="fill:none;fill-rule:nonzero;stroke:rgb(47,104,135);stroke-width:0.5px;"/>
                                <path d="M81.675,127.438L-8.559,217.672" style="fill:none;fill-rule:nonzero;stroke:rgb(47,104,135);stroke-width:0.5px;"/>
                                <path d="M83.823,127.438L-6.411,217.672" style="fill:none;fill-rule:nonzero;stroke:rgb(47,104,135);stroke-width:0.5px;"/>
                                <path d="M85.971,127.438L-4.263,217.672" style="fill:none;fill-rule:nonzero;stroke:rgb(47,104,135);stroke-width:0.5px;"/>
                                <path d="M88.119,127.438L-2.115,217.672" style="fill:none;fill-rule:nonzero;stroke:rgb(47,104,135);stroke-width:0.5px;"/>
                                <path d="M90.267,127.438L0.033,217.672" style="fill:none;fill-rule:nonzero;stroke:rgb(47,104,135);stroke-width:0.5px;"/>
                                <path d="M92.415,127.438L2.181,217.672" style="fill:none;fill-rule:nonzero;stroke:rgb(47,104,135);stroke-width:0.5px;"/>
                                <path d="M94.563,127.438L4.329,217.672" style="fill:none;fill-rule:nonzero;stroke:rgb(47,104,135);stroke-width:0.5px;"/>
                                <path d="M96.711,127.438L6.477,217.672" style="fill:none;fill-rule:nonzero;stroke:rgb(47,104,135);stroke-width:0.5px;"/>
                                <path d="M98.859,127.438L8.625,217.672" style="fill:none;fill-rule:nonzero;stroke:rgb(47,104,135);stroke-width:0.5px;"/>
                                <path d="M101.007,127.438L10.773,217.672" style="fill:none;fill-rule:nonzero;stroke:rgb(47,104,135);stroke-width:0.5px;"/>
                                <path d="M103.155,127.438L12.921,217.672" style="fill:none;fill-rule:nonzero;stroke:rgb(47,104,135);stroke-width:0.5px;"/>
                                <path d="M105.303,127.438L15.069,217.672" style="fill:none;fill-rule:nonzero;stroke:rgb(47,104,135);stroke-width:0.5px;"/>
                                <path d="M107.451,127.438L17.217,217.672" style="fill:none;fill-rule:nonzero;stroke:rgb(47,104,135);stroke-width:0.5px;"/>
                                <path d="M109.599,127.438L19.365,217.672" style="fill:none;fill-rule:nonzero;stroke:rgb(47,104,135);stroke-width:0.5px;"/>
                                <path d="M111.747,127.438L21.513,217.672" style="fill:none;fill-rule:nonzero;stroke:rgb(47,104,135);stroke-width:0.5px;"/>
                                <path d="M113.895,127.438L23.661,217.672" style="fill:none;fill-rule:nonzero;stroke:rgb(47,104,135);stroke-width:0.5px;"/>
                                <path d="M116.043,127.438L25.809,217.672" style="fill:none;fill-rule:nonzero;stroke:rgb(47,104,135);stroke-width:0.5px;"/>
                                <path d="M118.191,127.438L27.957,217.672" style="fill:none;fill-rule:nonzero;stroke:rgb(47,104,135);stroke-width:0.5px;"/>
                                <path d="M120.339,127.438L30.105,217.672" style="fill:none;fill-rule:nonzero;stroke:rgb(47,104,135);stroke-width:0.5px;"/>
                                <path d="M122.487,127.438L32.253,217.672" style="fill:none;fill-rule:nonzero;stroke:rgb(47,104,135);stroke-width:0.5px;"/>
                                <path d="M124.635,127.438L34.4,217.672" style="fill:none;fill-rule:nonzero;stroke:rgb(47,104,135);stroke-width:0.5px;"/>
                                <path d="M126.783,127.438L36.548,217.672" style="fill:none;fill-rule:nonzero;stroke:rgb(47,104,135);stroke-width:0.5px;"/>
                                <path d="M128.931,127.438L38.696,217.672" style="fill:none;fill-rule:nonzero;stroke:rgb(47,104,135);stroke-width:0.5px;"/>
                                <path d="M131.079,127.438L40.844,217.672" style="fill:none;fill-rule:nonzero;stroke:rgb(47,104,135);stroke-width:0.5px;"/>
                                <path d="M133.227,127.438L42.992,217.672" style="fill:none;fill-rule:nonzero;stroke:rgb(47,104,135);stroke-width:0.5px;"/>
                                <path d="M135.375,127.438L45.14,217.672" style="fill:none;fill-rule:nonzero;stroke:rgb(47,104,135);stroke-width:0.5px;"/>
                                <path d="M137.523,127.438L47.288,217.672" style="fill:none;fill-rule:nonzero;stroke:rgb(47,104,135);stroke-width:0.5px;"/>
                                <path d="M139.671,127.438L49.436,217.672" style="fill:none;fill-rule:nonzero;stroke:rgb(47,104,135);stroke-width:0.5px;"/>
                                <path d="M141.819,127.438L51.584,217.672" style="fill:none;fill-rule:nonzero;stroke:rgb(47,104,135);stroke-width:0.5px;"/>
                                <path d="M143.967,127.438L53.732,217.672" style="fill:none;fill-rule:nonzero;stroke:rgb(47,104,135);stroke-width:0.5px;"/>
                                <path d="M146.115,127.438L55.88,217.672" style="fill:none;fill-rule:nonzero;stroke:rgb(47,104,135);stroke-width:0.5px;"/>
                                <path d="M148.263,127.438L58.028,217.672" style="fill:none;fill-rule:nonzero;stroke:rgb(47,104,135);stroke-width:0.5px;"/>
                                <path d="M150.411,127.438L60.176,217.672" style="fill:none;fill-rule:nonzero;stroke:rgb(47,104,135);stroke-width:0.5px;"/>
                                <path d="M152.559,127.438L62.324,217.672" style="fill:none;fill-rule:nonzero;stroke:rgb(47,104,135);stroke-width:0.5px;"/>
                                <path d="M154.707,127.438L64.472,217.672" style="fill:none;fill-rule:nonzero;stroke:rgb(47,104,135);stroke-width:0.5px;"/>
                                <path d="M156.855,127.438L66.62,217.672" style="fill:none;fill-rule:nonzero;stroke:rgb(47,104,135);stroke-width:0.5px;"/>
                                <path d="M159.003,127.438L68.768,217.672" style="fill:none;fill-rule:nonzero;stroke:rgb(47,104,135);stroke-width:0.5px;"/>
                                <path d="M161.151,127.438L70.916,217.672" style="fill:none;fill-rule:nonzero;stroke:rgb(47,104,135);stroke-width:0.5px;"/>
                                <path d="M163.299,127.438L73.064,217.672" style="fill:none;fill-rule:nonzero;stroke:rgb(47,104,135);stroke-width:0.5px;"/>
                                <path d="M165.447,127.438L75.212,217.672" style="fill:none;fill-rule:nonzero;stroke:rgb(47,104,135);stroke-width:0.5px;"/>
                                <path d="M167.595,127.438L77.36,217.672" style="fill:none;fill-rule:nonzero;stroke:rgb(47,104,135);stroke-width:0.5px;"/>
                                <path d="M169.743,127.438L79.508,217.672" style="fill:none;fill-rule:nonzero;stroke:rgb(47,104,135);stroke-width:0.5px;"/>
                                <path d="M171.891,127.438L81.656,217.672" style="fill:none;fill-rule:nonzero;stroke:rgb(47,104,135);stroke-width:0.5px;"/>
                                <path d="M174.039,127.438L83.804,217.672" style="fill:none;fill-rule:nonzero;stroke:rgb(47,104,135);stroke-width:0.5px;"/>
                                <path d="M176.187,127.438L85.952,217.672" style="fill:none;fill-rule:nonzero;stroke:rgb(47,104,135);stroke-width:0.5px;"/>
                                <path d="M178.335,127.438L88.1,217.672" style="fill:none;fill-rule:nonzero;stroke:rgb(47,104,135);stroke-width:0.5px;"/>
                                <path d="M180.483,127.438L90.248,217.672" style="fill:none;fill-rule:nonzero;stroke:rgb(47,104,135);stroke-width:0.5px;"/>
                                <path d="M182.631,127.438L92.396,217.672" style="fill:none;fill-rule:nonzero;stroke:rgb(47,104,135);stroke-width:0.5px;"/>
                                <path d="M184.779,127.438L94.544,217.672" style="fill:none;fill-rule:nonzero;stroke:rgb(47,104,135);stroke-width:0.5px;"/>
                                <path d="M186.927,127.438L96.692,217.672" style="fill:none;fill-rule:nonzero;stroke:rgb(47,104,135);stroke-width:0.5px;"/>
                                <path d="M189.075,127.438L98.84,217.672" style="fill:none;fill-rule:nonzero;stroke:rgb(47,104,135);stroke-width:0.5px;"/>
                                <path d="M191.223,127.438L100.988,217.672" style="fill:none;fill-rule:nonzero;stroke:rgb(47,104,135);stroke-width:0.5px;"/>
                                <path d="M193.371,127.438L103.136,217.672" style="fill:none;fill-rule:nonzero;stroke:rgb(47,104,135);stroke-width:0.5px;"/>
                                <path d="M195.519,127.438L105.284,217.672" style="fill:none;fill-rule:nonzero;stroke:rgb(47,104,135);stroke-width:0.5px;"/>
                                <path d="M197.667,127.438L107.432,217.672" style="fill:none;fill-rule:nonzero;stroke:rgb(47,104,135);stroke-width:0.5px;"/>
                                <path d="M199.815,127.438L109.58,217.672" style="fill:none;fill-rule:nonzero;stroke:rgb(47,104,135);stroke-width:0.5px;"/>
                                <path d="M201.963,127.438L111.728,217.672" style="fill:none;fill-rule:nonzero;stroke:rgb(47,104,135);stroke-width:0.5px;"/>
                                <path d="M204.111,127.438L113.876,217.672" style="fill:none;fill-rule:nonzero;stroke:rgb(47,104,135);stroke-width:0.5px;"/>
                                <path d="M206.259,127.438L116.024,217.672" style="fill:none;fill-rule:nonzero;stroke:rgb(47,104,135);stroke-width:0.5px;"/>
                                <path d="M208.407,127.438L118.172,217.672" style="fill:none;fill-rule:nonzero;stroke:rgb(47,104,135);stroke-width:0.5px;"/>
                                <path d="M210.555,127.438L120.32,217.672" style="fill:none;fill-rule:nonzero;stroke:rgb(47,104,135);stroke-width:0.5px;"/>
                                <path d="M212.703,127.438L122.468,217.672" style="fill:none;fill-rule:nonzero;stroke:rgb(47,104,135);stroke-width:0.5px;"/>
                                <path d="M214.851,127.438L124.616,217.672" style="fill:none;fill-rule:nonzero;stroke:rgb(47,104,135);stroke-width:0.5px;"/>
                                <path d="M216.999,127.438L126.764,217.672" style="fill:none;fill-rule:nonzero;stroke:rgb(47,104,135);stroke-width:0.5px;"/>
                                <path d="M219.146,127.438L128.912,217.672" style="fill:none;fill-rule:nonzero;stroke:rgb(47,104,135);stroke-width:0.5px;"/>
                                <path d="M221.294,127.438L131.06,217.672" style="fill:none;fill-rule:nonzero;stroke:rgb(47,104,135);stroke-width:0.5px;"/>
                                <path d="M223.442,127.438L133.208,217.672" style="fill:none;fill-rule:nonzero;stroke:rgb(47,104,135);stroke-width:0.5px;"/>
                                <path d="M225.59,127.438L135.356,217.672" style="fill:none;fill-rule:nonzero;stroke:rgb(47,104,135);stroke-width:0.5px;"/>
                                <path d="M227.738,127.438L137.504,217.672" style="fill:none;fill-rule:nonzero;stroke:rgb(47,104,135);stroke-width:0.5px;"/>
                                <path d="M229.886,127.438L139.652,217.672" style="fill:none;fill-rule:nonzero;stroke:rgb(47,104,135);stroke-width:0.5px;"/>
                                <path d="M232.034,127.438L141.8,217.672" style="fill:none;fill-rule:nonzero;stroke:rgb(47,104,135);stroke-width:0.5px;"/>
                                <path d="M234.182,127.438L143.948,217.672" style="fill:none;fill-rule:nonzero;stroke:rgb(47,104,135);stroke-width:0.5px;"/>
                                <path d="M236.33,127.438L146.096,217.672" style="fill:none;fill-rule:nonzero;stroke:rgb(47,104,135);stroke-width:0.5px;"/>
                                <path d="M238.478,127.438L148.244,217.672" style="fill:none;fill-rule:nonzero;stroke:rgb(47,104,135);stroke-width:0.5px;"/>
                                <path d="M240.626,127.438L150.392,217.672" style="fill:none;fill-rule:nonzero;stroke:rgb(47,104,135);stroke-width:0.5px;"/>
                                <path d="M242.774,127.438L152.54,217.672" style="fill:none;fill-rule:nonzero;stroke:rgb(47,104,135);stroke-width:0.5px;"/>
                                <path d="M244.922,127.438L154.688,217.672" style="fill:none;fill-rule:nonzero;stroke:rgb(47,104,135);stroke-width:0.5px;"/>
                                <path d="M247.07,127.438L156.836,217.672" style="fill:none;fill-rule:nonzero;stroke:rgb(47,104,135);stroke-width:0.5px;"/>
                                <path d="M249.218,127.438L158.984,217.672" style="fill:none;fill-rule:nonzero;stroke:rgb(47,104,135);stroke-width:0.5px;"/>
                                <path d="M251.366,127.438L161.132,217.672" style="fill:none;fill-rule:nonzero;stroke:rgb(47,104,135);stroke-width:0.5px;"/>
                                <path d="M253.514,127.438L163.28,217.672" style="fill:none;fill-rule:nonzero;stroke:rgb(47,104,135);stroke-width:0.5px;"/>
                                <path d="M255.662,127.438L165.428,217.672" style="fill:none;fill-rule:nonzero;stroke:rgb(47,104,135);stroke-width:0.5px;"/>
                                <path d="M257.81,127.438L167.576,217.672" style="fill:none;fill-rule:nonzero;stroke:rgb(47,104,135);stroke-width:0.5px;"/>
                                <path d="M259.958,127.438L169.724,217.672" style="fill:none;fill-rule:nonzero;stroke:rgb(47,104,135);stroke-width:0.5px;"/>
                                <path d="M262.106,127.438L171.872,217.672" style="fill:none;fill-rule:nonzero;stroke:rgb(47,104,135);stroke-width:0.5px;"/>
                                <path d="M264.254,127.438L174.02,217.672" style="fill:none;fill-rule:nonzero;stroke:rgb(47,104,135);stroke-width:0.5px;"/>
                                <path d="M266.402,127.438L176.168,217.672" style="fill:none;fill-rule:nonzero;stroke:rgb(47,104,135);stroke-width:0.5px;"/>
                                <path d="M268.55,127.438L178.316,217.672" style="fill:none;fill-rule:nonzero;stroke:rgb(47,104,135);stroke-width:0.5px;"/>
                                <path d="M270.698,127.438L180.464,217.672" style="fill:none;fill-rule:nonzero;stroke:rgb(47,104,135);stroke-width:0.5px;"/>
                                <path d="M272.846,127.438L182.612,217.672" style="fill:none;fill-rule:nonzero;stroke:rgb(47,104,135);stroke-width:0.5px;"/>
                                <path d="M274.994,127.438L184.76,217.672" style="fill:none;fill-rule:nonzero;stroke:rgb(47,104,135);stroke-width:0.5px;"/>
                                <path d="M277.142,127.438L186.908,217.672" style="fill:none;fill-rule:nonzero;stroke:rgb(47,104,135);stroke-width:0.5px;"/>
                                <path d="M279.29,127.438L189.056,217.672" style="fill:none;fill-rule:nonzero;stroke:rgb(47,104,135);stroke-width:0.5px;"/>
                                <path d="M281.438,127.438L191.204,217.672" style="fill:none;fill-rule:nonzero;stroke:rgb(47,104,135);stroke-width:0.5px;"/>
                                <path d="M283.586,127.438L193.352,217.672" style="fill:none;fill-rule:nonzero;stroke:rgb(47,104,135);stroke-width:0.5px;"/>
                                <path d="M285.734,127.438L195.5,217.672" style="fill:none;fill-rule:nonzero;stroke:rgb(47,104,135);stroke-width:0.5px;"/>
                                <path d="M287.882,127.438L197.648,217.672" style="fill:none;fill-rule:nonzero;stroke:rgb(47,104,135);stroke-width:0.5px;"/>
                                <path d="M290.03,127.438L199.796,217.672" style="fill:none;fill-rule:nonzero;stroke:rgb(47,104,135);stroke-width:0.5px;"/>
                                <path d="M292.178,127.438L201.944,217.672" style="fill:none;fill-rule:nonzero;stroke:rgb(47,104,135);stroke-width:0.5px;"/>
                                <path d="M294.326,127.438L204.092,217.672" style="fill:none;fill-rule:nonzero;stroke:rgb(47,104,135);stroke-width:0.5px;"/>
                                <path d="M296.474,127.438L206.24,217.672" style="fill:none;fill-rule:nonzero;stroke:rgb(47,104,135);stroke-width:0.5px;"/>
                                <path d="M298.622,127.438L208.388,217.672" style="fill:none;fill-rule:nonzero;stroke:rgb(47,104,135);stroke-width:0.5px;"/>
                                <path d="M300.77,127.438L210.536,217.672" style="fill:none;fill-rule:nonzero;stroke:rgb(47,104,135);stroke-width:0.5px;"/>
                                <path d="M302.918,127.438L212.684,217.672" style="fill:none;fill-rule:nonzero;stroke:rgb(47,104,135);stroke-width:0.5px;"/>
                                <path d="M305.066,127.438L214.832,217.672" style="fill:none;fill-rule:nonzero;stroke:rgb(47,104,135);stroke-width:0.5px;"/>
                                <path d="M307.214,127.438L216.98,217.672" style="fill:none;fill-rule:nonzero;stroke:rgb(47,104,135);stroke-width:0.5px;"/>
                                <path d="M309.362,127.438L219.128,217.672" style="fill:none;fill-rule:nonzero;stroke:rgb(47,104,135);stroke-width:0.5px;"/>
                                <path d="M311.51,127.438L221.276,217.672" style="fill:none;fill-rule:nonzero;stroke:rgb(47,104,135);stroke-width:0.5px;"/>
                            </g>
                        </g>
                    </g>
                </g>
                <path d="M223.034,90.527C221.486,91.19 218.938,90.855 217.263,91.501C217.38,90.937 217.098,90.127 217.161,89.551C214.275,89.117 209.144,88.951 206.306,89.209C207.41,95.757 193.206,87.05 192.232,93.821C188.953,92.065 180.653,93.306 177.9,95.628C177.993,94.578 177.734,93.541 178.046,92.556C173.574,91.721 169.012,90.952 164.376,91.871C162.484,92.246 160.173,92.001 158.397,92.812C157.044,93.43 156.823,94.703 155.273,95.16C154.404,95.416 153.48,95.74 152.577,95.706C151.762,95.675 151.113,95.258 150.394,95.089C149.365,94.848 147.892,95.626 147.141,94.999C146.743,94.667 146.391,91.983 146.275,91.956C143.459,91.308 140.638,90.39 137.767,90.107C134.674,89.802 133.634,90.839 130.574,91.656C125.01,93.142 121.545,88.35 116.278,91.845C114.391,87.821 112.642,87.872 107.973,87.786C105.941,87.749 103.832,88.816 101.944,89.445C100.986,89.764 100.413,90.194 99.448,89.839C98.758,89.585 98.339,88.882 97.613,88.672C96.354,88.309 95.005,88.897 93.778,89.051C95.307,95.568 83.221,88.154 81.202,91.837C79.833,91.71 78.235,93.378 77.511,93.282C75.811,93.057 75.791,91.626 74.07,91.213C72.715,90.888 71.293,91.111 69.93,91.252C68.622,91.387 67.053,91.109 65.815,91.322C64.477,91.552 63.943,92.429 63.203,90.747C62.826,89.89 63.031,88.394 62.048,87.864C61.552,87.596 60.591,88.019 60.122,88.095C58.748,88.317 57.329,88.113 55.959,88.377C55.373,88.49 54.651,88.614 54.222,89.075C53.91,89.409 53.911,90.421 53.558,90.563C52.943,90.81 51.492,89.471 50.872,89.215C49.856,88.797 48.739,88.62 47.652,88.508C43.885,88.123 39.332,88.391 35.65,89.313C34.231,89.669 33.933,89.95 33.003,88.562C32.4,87.661 32.083,86.263 30.821,86.068C29.646,85.887 26.895,86.794 25.94,87.465C24.94,88.168 24.932,89.022 23.441,88.763C23.823,85.863 21.369,87.026 19.622,87.018C17.537,87.009 16.782,86.846 14.88,86.469C14.894,90.688 7.682,86.806 5.925,87.445L7.458,194.288L223.035,192.918L223.035,90.527L223.034,90.527Z" style="fill:none;fill-rule:nonzero;stroke:rgb(48,104,136);stroke-width:1px;"/>
                <path d="M223.035,169.193C223.035,169.193 222.978,169.378 221.318,169.298C219.786,169.224 218.149,168.987 216.693,168.853C215.326,168.727 214.074,169.039 212.682,168.983C210.537,168.898 208.638,167.989 206.514,167.904C204.222,167.813 201.788,168.462 199.406,168.264C197.166,168.078 195.804,167.246 194.185,167.569C192.163,167.973 192.111,171.327 189.818,167.535C188.13,168.466 186.983,166.912 185.707,167.202C183.586,167.684 182.497,170.271 180.564,171.001C177.753,172.062 174.368,171.04 171.395,171.757C170.808,171.899 170.821,173.234 170.23,173.33C169.836,173.394 168.431,172.833 168.518,172.801C167.781,173.074 165.797,173.834 164.819,174.007C162.441,174.428 158.397,173.132 156.951,175.686C154.67,171.572 154.697,173.977 152.087,173.819C150.101,173.699 148.698,172.786 146.601,173.655C142.838,175.216 141.244,176.741 136.98,176.823C133.03,176.899 129.05,177.628 125.437,177.85C122.34,178.041 117.068,178.272 114.831,180.983C113.327,179.581 111.607,180.662 109.761,180.666C108.457,180.668 106.977,180.095 105.233,180.249C102.685,180.473 101.298,182.577 99.069,183.08C97.204,183.501 96.033,183.262 94.274,183.595C90.97,184.22 88.362,185.756 84.755,185.803C83.675,185.817 81.963,185.513 80.826,185.634C80.398,185.68 79.288,186.897 78.864,187.103C78.388,187.335 76.719,187.188 76.185,187.148C75.491,189.627 71.85,188.705 69.96,188.876C67.003,189.142 65.09,190.354 62.086,189.117C61.412,189.707 58.794,190.508 58.068,190.614C56.372,190.861 54.527,191.676 53.189,191.822C51.13,192.045 50.071,192.109 48.481,192.67C47.069,193.169 45.363,193.578 43.935,194.288L223.035,192.921L223.035,169.193Z" style="fill:none;fill-rule:nonzero;stroke:rgb(48,104,136);stroke-width:1px;"/>
                <path d="M126.062,187.707C126.234,186.74 121.823,184.964 121.017,184.825C116.542,184.052 114.931,186.776 119.056,188.435C120.923,189.186 125.553,190.574 126.062,187.707Z" style="fill:none;fill-rule:nonzero;stroke:rgb(48,104,136);stroke-width:1px;"/>
                <path d="M138.792,186.754C140.423,186.003 144.098,184.149 145.983,184.323C147.279,184.443 147.974,185.965 149.426,186.084C150.759,186.193 151.436,184.267 153.174,185.384" style="fill:none;fill-rule:nonzero;stroke:rgb(48,104,136);stroke-width:1px;"/>
                <path d="M163.036,184.1C161.567,181.846 159.606,183.339 158.917,184.823C157.268,188.376 164.169,185.838 163.036,184.1Z" style="fill:none;fill-rule:nonzero;stroke:rgb(48,104,136);stroke-width:1px;"/>
                <path d="M174.749,182.987C175.856,182.617 177.558,183.111 178.515,182.669C179.738,182.103 179.888,180.493 181.247,179.974C183.798,179 185.321,182.684 187.419,180.967C188.004,181.798 188.16,182.287 188.036,183.295C187.385,182.725 187.342,183.354 186.736,183.329" style="fill:none;fill-rule:nonzero;stroke:rgb(48,104,136);stroke-width:1px;"/>
                <path d="M192.161,188.398C191.331,185.111 187.648,187.837 186.06,188.831C186.951,188.273 190.401,189.786 192.161,188.398Z" style="fill:none;fill-rule:nonzero;stroke:rgb(48,104,136);stroke-width:1px;"/>
                <path d="M92.604,191.196C90.691,193.082 86.99,193.074 84.34,193.242C82.443,193.362 79.687,193.028 81.987,190.943C83.37,189.69 85.849,190.479 87.492,190.486C87.643,190.488 93.319,190.492 92.604,191.196Z" style="fill:none;fill-rule:nonzero;stroke:rgb(48,104,136);stroke-width:1px;"/>
                <path d="M195.123,174.007C192.066,171.368 189.633,175.663 192.295,177.193C194.579,178.506 197.329,175.912 195.123,174.007Z" style="fill:none;fill-rule:nonzero;stroke:rgb(48,104,136);stroke-width:1px;"/>
                <path d="M8.321,92.581C9.93,92.715 15.816,95.57 16.599,96.631C21.156,95.735 18.968,100.549 19.331,103.137C24.728,104.565 28.223,108.364 31.351,112.1C32.982,114.048 34.341,115.714 36.333,117.313C38.341,118.924 39.784,120.766 41.804,123.076C44.089,125.689 48.308,126.247 50.449,128.612C52.034,130.363 51.734,133.178 52.42,135.386C53.01,137.285 52.438,136.912 53.874,138.725C54.897,140.017 56.116,140.978 56.863,142.576C58.001,145.009 56.823,147.938 58.643,150.119C60.595,152.458 65.799,154.878 67.237,158.33C68.365,161.039 66.467,162.093 68.247,164.502C69.144,165.716 71.348,167.351 72.991,167.636C73.742,170.298 71.347,171.136 70.983,173.407C70.791,174.6 72.634,174.514 71.767,176.231C71.062,177.628 70.179,176.802 69.268,177.5C66.926,179.295 66.648,180.378 63.473,179.542C62.559,179.301 61.291,178.214 60.371,178.168C59.309,178.115 58.232,179.183 57.007,179.278C56.382,180.868 54.744,181.396 53.104,181.202C51.774,181.045 50.653,179.707 49.337,179.287C48.152,178.909 46.541,179.172 45.348,178.919C45.405,179.401 45.177,180.061 45.244,180.528C41.146,181.14 38.897,185.406 34.893,186.478C30.065,187.77 25.063,187.871 20.553,189.054C17.268,189.916 16.528,189.33 13.132,189.131C11.69,189.047 9.602,188.879 8.396,189.484C6.597,190.387 6.482,192.556 4.21,192.915" style="fill:none;fill-rule:nonzero;stroke:rgb(48,104,136);stroke-width:1px;"/>
                <path d="M47.017,90.869C48.03,92.93 48.086,95.754 49.225,97.661C50.357,99.557 52.505,100.6 53.709,102.53C55.421,105.274 55.303,108.121 56.33,111.08C57.539,114.56 57.965,118.131 60.707,120.651C62.615,122.404 63.147,122.187 64.147,124.763C64.531,125.751 64.308,126.502 64.817,127.51C65.426,128.717 66.754,129.199 67.229,130.592C67.956,132.721 66.575,134.247 66.612,136.147C66.652,138.188 67.598,138.959 68.307,140.807C70.399,141.338 70.974,144.295 72.025,146.002C73.784,148.86 75.318,149.146 78.18,150.795C80.041,151.867 82.106,152.355 83.582,154.213C84.474,155.335 84.768,156.903 85.646,158.08C86.278,158.929 87.177,159.531 87.768,160.384" style="fill:none;fill-rule:nonzero;stroke:rgb(48,104,136);stroke-width:1px;"/>
                <path d="M94.609,147.415C95.077,147.241 95.98,146.631 96.302,146.268C95.259,144.846 94.2,143.068 93.88,141.261C92.377,141.339 88.67,139.376 87.494,140.47C84.763,143.01 93.895,145.069 94.609,147.415Z" style="fill:none;fill-rule:nonzero;stroke:rgb(48,104,136);stroke-width:1px;"/>
                <path d="M97.007,116.825C98.113,117.851 99.459,117.597 100.087,116.51C102.19,118.145 104.215,122.435 107.218,121.132C107.988,123.052 108.656,125.092 110.283,126.43C110.751,126.815 110.816,123.541 110.762,123.277C110.525,122.13 109.296,121.163 108.748,120.176C107.291,117.547 106.76,114.278 104.914,111.827C103.691,110.204 96.991,105.803 95.028,108.427C93.767,110.112 95.976,110.801 96.429,112.26C96.86,113.647 95.891,115.79 97.007,116.825Z" style="fill:none;fill-rule:nonzero;stroke:rgb(48,104,136);stroke-width:1px;"/>
                <path d="M67.906,131.278C68.657,131.464 69.341,133.686 70.638,134.368C71.641,134.896 74.882,135.006 76.074,135.096C76.712,137.329 76.749,140.255 78.079,142.331C79.749,144.937 81.992,147.154 83.751,149.855C85.887,153.134 88.716,153.184 91.884,155.669C93.958,157.295 94.671,160.769 96.955,161.817C96.843,164.138 98.661,164.07 100.419,164.421C103.317,164.999 103.616,164.571 105.85,166.568C107.697,168.22 109.362,172.593 111.739,173.058" style="fill:none;fill-rule:nonzero;stroke:rgb(48,104,136);stroke-width:1px;"/>
                <path d="M11.163,111.472C11.482,113.984 13.129,115.007 14.222,117.023C15.711,119.769 15.754,123.249 16.949,126.143" style="fill:none;fill-rule:nonzero;stroke:rgb(48,104,136);stroke-width:1px;"/>
                <path d="M17.362,133.789C18.793,133.93 18.086,137.45 18.958,138.566C19.454,139.2 20.316,139.111 20.818,139.606C21.884,140.659 22.637,142.745 23.308,144.064C24.334,146.081 26.106,148.36 26.04,150.733" style="fill:none;fill-rule:nonzero;stroke:rgb(48,104,136);stroke-width:1px;"/>
                <path d="M37.406,105.48C37.496,104.981 37.389,104.656 38.026,104.646C39.339,107.218 38.956,110.621 40.34,113.305C41.174,113.207 42.626,112.109 43.402,112.285C44.712,112.582 44.888,115.146 45.208,116.231C45.807,118.255 46.743,119.613 47.738,121.216C48.596,122.599 48.962,125.037 50.218,125.955C50.479,126.146 51.117,125.604 51.241,125.701C51.914,126.228 52.133,126.731 52.698,127.439C53.454,128.386 54.476,128.779 55.188,129.604C56.178,130.752 56.242,132.72 56.62,134.207C57.091,136.061 58.211,138.081 58.278,139.988" style="fill:none;fill-rule:nonzero;stroke:rgb(48,104,136);stroke-width:1px;"/>
                <path d="M39.059,148.047C39.486,151.064 41.403,154.263 42.422,157.14C43.559,160.351 45.031,163.472 46.116,166.673C45.973,166.838 45.866,166.75 45.749,166.844C49.717,168.396 51.62,172.615 52.904,176.563" style="fill:none;fill-rule:nonzero;stroke:rgb(48,104,136);stroke-width:1px;"/>
                <path d="M29.554,180.906C30.874,181.065 31.943,179.408 33.633,180.258C35.197,181.045 34.757,182.32 36.418,181.982C37.339,181.795 37.989,181.55 38.005,180.542C34.79,179.508 35.554,175.64 33.274,174.703C28.598,172.783 24.783,180.331 29.554,180.906Z" style="fill:none;fill-rule:nonzero;stroke:rgb(48,104,136);stroke-width:1px;"/>
                <path d="M92.825,181.284C93.698,181.13 94.369,180.097 95.263,179.859C95.811,179.713 96.541,179.914 97.112,179.869C99.007,179.72 99.541,179.549 100.562,177.788C98.319,177.287 95.982,175.796 93.652,175.271C92.411,174.991 91.284,175.428 90.162,175.903C89.334,176.253 87.858,176.308 87.22,176.965C85.833,178.392 86.759,177.875 87.614,178.409C88.523,178.976 89.287,178.798 90.221,179.626C91.188,180.483 91.149,181.579 92.825,181.284Z" style="fill:none;fill-rule:nonzero;stroke:rgb(48,104,136);stroke-width:1px;"/>
                <path d="M103.118,180.906C104.324,179.785 105.565,179.09 106.882,177.601C108.235,176.071 110.311,175.515 111.748,174.026C113.478,172.233 114.806,170.16 116.956,168.493C119.15,166.792 121.582,165.484 124.017,164.18C127.334,162.403 128.348,161.469 130.806,158.601C133.271,155.725 135.461,153.843 138.244,151.403C141.643,148.424 141.71,144.008 144.181,140.763C146.591,137.598 151.364,136.931 153.722,134.01C157.035,129.906 159.865,125.532 163.482,121.611C164.818,120.163 166.165,118.82 167.432,117.308C170.251,113.945 170.145,108.727 173.775,105.94C174.878,105.093 175.951,104.863 176.679,103.621C177.417,102.363 177.041,102.236 177.288,100.923C177.526,99.655 177.656,95.213 178.745,95.561" style="fill:none;fill-rule:nonzero;stroke:rgb(48,104,136);stroke-width:1px;"/>
                <path d="M72.947,106.72C73.784,108.878 74.711,117.627 78.444,114.603C78.712,115.33 79.51,115.843 80.134,116.488C81.584,117.989 82.721,119.816 83.738,121.793C85.54,125.295 85.922,127.66 86.207,131.687C86.497,131.661 86.453,131.811 86.585,131.929" style="fill:none;fill-rule:nonzero;stroke:rgb(48,104,136);stroke-width:1px;"/>
                <path d="M113.448,170.984C113.806,169.493 113.391,168.247 113.811,167.006C114.123,166.083 114.668,166.171 114.849,164.939C115.069,163.447 113.97,161.727 114.674,160.234C115.618,158.234 119.261,156.369 120.929,155.332C121.828,154.773 123.447,153.343 124.369,153.388C124.447,149.66 128.387,148.889 130.553,146.661C132.14,145.029 132.646,142.666 134.096,140.961C135.386,139.446 136.877,139.372 138.243,138.391C139.429,137.539 140.93,134.354 141.141,133.168C141.302,132.259 140.636,131.08 140.967,130.277C141.399,129.229 142.828,128.896 143.265,127.635C143.806,126.076 143.089,124.272 143.597,122.672C144.298,120.468 146.662,119.036 148.621,118.073C150.668,117.067 152.574,116.848 154.567,116.188C155.426,115.904 155.87,115.359 156.841,115.186C158.05,114.971 158.746,115.345 160.101,114.782C161.437,114.227 161.826,113.687 163.247,113.941C164.163,114.104 164.607,114.801 165.727,114.793C167.051,114.784 167.464,113.466 168.62,115.191" style="fill:none;fill-rule:nonzero;stroke:rgb(48,104,136);stroke-width:1px;"/>
                <path d="M120.887,121.598C120.448,122.456 120.995,125.177 121.714,126.116C122.339,126.933 122.953,126.677 123.62,127.172C125.818,128.803 124.36,129.222 124.028,131.934C123.786,133.913 124.52,135.567 125.434,136.683C126.123,137.524 126.508,137.093 126.672,138.74C126.776,139.781 126.139,141.011 126.879,141.436" style="fill:none;fill-rule:nonzero;stroke:rgb(48,104,136);stroke-width:1px;"/>
                <path d="M120.887,96.595C120.975,97.508 121.394,98.197 121.788,99.06C123.224,102.205 124.481,105.33 125.654,108.583C126.493,110.909 127.373,113.806 129.359,115.419C132.341,113.339 135.088,119.008 136.374,121.015C137.288,122.441 138.057,125.091 139.271,125.941C139.916,126.393 140.756,125.965 141.441,126.516" style="fill:none;fill-rule:nonzero;stroke:rgb(48,104,136);stroke-width:1px;"/>
                <path d="M111.381,146.807C111.402,147.017 111.358,147.187 111.413,147.395C115.051,146.772 113.156,148.775 114.43,151.3C115.225,152.875 117.648,153.197 118.407,155.279" style="fill:none;fill-rule:nonzero;stroke:rgb(48,104,136);stroke-width:1px;"/>
                <path d="M153.329,100.314C153.316,100.065 153.331,99.816 153.314,99.567C153.623,101.19 154.745,105.682 156.02,106.744C156.726,107.332 157.689,107.107 158.67,107.165C158.944,109.031 159.669,110.731 160.722,112.308" style="fill:none;fill-rule:nonzero;stroke:rgb(48,104,136);stroke-width:1px;"/>
                <path d="M131.012,171.81C134.046,166.942 137.948,162.807 141.763,158.601C143.061,157.17 146.163,150.938 148.535,152.573C149.602,150.025 153.034,147.901 154.982,145.981C156.693,144.295 158.664,142.916 160.148,141.022C161.918,138.764 163.737,136.109 165.375,133.634C166.752,131.554 167.36,129.587 169.447,128.21" style="fill:none;fill-rule:nonzero;stroke:rgb(48,104,136);stroke-width:1px;"/>
                <path d="M154.362,154.866C158.521,151.125 161.699,145.941 164.689,141.223C167.764,136.371 171.832,132.686 175.294,128.241C179.574,122.747 183.532,117.571 186.391,111.059" style="fill:none;fill-rule:nonzero;stroke:rgb(48,104,136);stroke-width:1px;"/>
                <path d="M182.464,123.871C183.278,121.877 185.11,120.263 186.597,118.75C188.047,117.275 189.211,114.904 190.73,113.745" style="fill:none;fill-rule:nonzero;stroke:rgb(48,104,136);stroke-width:1px;"/>
                <path d="M163.041,158.999C163.762,157.844 164.759,154.31 166.347,153.355C167.27,152.8 168.562,153.182 169.607,152.552C171.617,151.341 173.326,148.775 174.814,147.014C176.289,145.269 178.142,144.348 179.759,142.849C185.89,137.165 190.785,129.997 196.566,124.128C201.09,119.536 203.36,113.054 206.847,107.753" style="fill:none;fill-rule:nonzero;stroke:rgb(48,104,136);stroke-width:1px;"/>
                <path d="M175.025,168.091C175.198,166.632 176.514,164.211 177.711,166.21C178.029,165.73 178.372,164.812 178.79,164.459C179.305,164.025 179.947,164.456 180.392,164.138C183.779,161.718 186.9,157.899 189.757,154.917C192.386,152.172 195.035,148.554 198.317,146.545C199.403,145.88 200.053,145.87 200.843,144.745C203.093,141.541 204.698,140.442 208.045,138.278C210.785,136.507 211.267,132.128 213.872,130.69" style="fill:none;fill-rule:nonzero;stroke:rgb(48,104,136);stroke-width:1px;"/>
                <path d="M200.235,134.822C201.494,130.58 207.381,125.572 210.595,121.983C211.917,120.506 213.195,118.351 214.906,117.258C216.02,116.547 217.036,116.724 217.804,116.022C218.83,115.083 218.82,112.212 219.866,111.472" style="fill:none;fill-rule:nonzero;stroke:rgb(48,104,136);stroke-width:1px;"/>
                <path d="M149.632,161.241C150.789,161.487 154.061,159.982 152.79,158.43C151.144,156.421 149.256,161.161 149.632,161.241Z" style="fill:none;fill-rule:nonzero;stroke:rgb(48,104,136);stroke-width:1px;"/>
                <path d="M161.592,167.654C161.578,167.63 161.563,167.607 161.549,167.586C161.071,166.894 159.987,167.477 160.049,168.204C160.155,169.435 162.233,168.751 161.592,167.654Z" style="fill:none;fill-rule:nonzero;stroke:rgb(48,104,136);stroke-width:1px;"/>
                <path d="M195.631,107.117C195.498,107.194 195.359,107.298 195.215,107.432C194.271,108.313 194.664,109.522 195.966,108.99C197.356,108.423 197.114,106.259 195.631,107.117Z" style="fill:none;fill-rule:nonzero;stroke:rgb(48,104,136);stroke-width:1px;"/>
                <path d="M186.022,150.525C184.752,151.54 185.317,153.589 186.994,153.136C189.242,152.527 188.181,148.8 186.022,150.525Z" style="fill:none;fill-rule:nonzero;stroke:rgb(48,104,136);stroke-width:1px;"/>
                <path d="M205.056,182.644C205.888,180.661 207.757,183.467 208.661,184.038C209.558,182.859 209.864,182.857 211.22,182.657C212.636,182.448 212.305,182.329 213.317,183.325C214.347,184.34 214.029,184.611 215.847,184.403C216.507,184.328 217.941,184.081 218.24,184.014" style="fill:none;fill-rule:nonzero;stroke:rgb(48,104,136);stroke-width:1px;"/>
                <path d="M216.163,175.822C214.336,174.458 212.78,176.813 213.352,178.566C214.503,182.092 218.18,177.329 216.163,175.822Z" style="fill:none;fill-rule:nonzero;stroke:rgb(48,104,136);stroke-width:1px;"/>
                <path d="M205.74,189.322C205.651,189.302 205.233,189.675 205.584,189.335C207.488,188.062 209.863,189.938 212.076,188.466" style="fill:none;fill-rule:nonzero;stroke:rgb(48,104,136);stroke-width:1px;"/>
                <path d="M203.857,158.502C203.73,158.652 203.678,158.82 203.699,159.005C206.233,158.093 208.074,155.043 210.375,153.521C211.934,152.49 213.733,151.951 215.5,151.439C216.706,151.09 218.136,151.309 219.27,150.934C220.968,150.372 222.048,148.228 223.718,147.544" style="fill:none;fill-rule:nonzero;stroke:rgb(48,104,136);stroke-width:1px;"/>
                <path d="M36.401,62.711C34.11,62.695 32.871,64.691 32.584,66.769C25.836,66.394 17.634,78.062 29.578,76.426C34.3,75.779 38.539,73.57 43.251,73.32C46.864,73.128 49.611,73.113 53.205,72.37C56.503,71.688 59.314,73.182 62.753,73.327C65.844,73.457 70.641,72.995 73.035,71.966C74.087,71.514 78.023,68.612 74.44,68.593C74.181,68.467 75.606,69.384 75.396,69.174C74.347,64.51 62.475,67.024 59.065,66.561C51.114,65.483 43.454,58.268 35.351,63.114C35.701,63.38 36.051,63.245 36.401,62.711" style="fill:none;fill-rule:nonzero;stroke:rgb(48,104,136);stroke-width:1px;"/>
                <path d="M129.889,68.19C128.17,68.224 126.392,69.134 125.503,70.535C124.411,67.998 117.943,70.57 116.835,72.085C112.037,78.641 123.682,75.006 125.353,75.477C129.835,76.74 134.365,78.911 139.041,76.46C140.704,77.524 143.404,77.354 145.291,77.788C151.076,79.119 156.711,79.642 162.765,78.47C168.853,77.292 175.453,74.589 181.598,74.346C183.811,74.259 186.757,75.716 188.478,73.82C182.928,67.079 172.545,72.117 165.481,72.222C162.534,72.266 159.038,70.356 155.944,69.646C153.129,69 150.081,68.09 147.231,67.773C145.267,67.555 143.393,68.175 141.448,67.974C139.758,67.799 137.95,66.217 136.283,65.673C134.943,65.236 126.804,64.68 130.231,68.19" style="fill:none;fill-rule:nonzero;stroke:rgb(48,104,136);stroke-width:1px;"/>
            </g>
        </g>
    </g>
</svg>
