<?xml version="1.0" encoding="UTF-8" standalone="no"?>
<!DOCTYPE svg PUBLIC "-//W3C//DTD SVG 1.1//EN" "http://www.w3.org/Graphics/SVG/1.1/DTD/svg11.dtd">
<svg width="100%" height="100%" viewBox="0 0 313 78" version="1.1" xmlns="http://www.w3.org/2000/svg" xmlns:xlink="http://www.w3.org/1999/xlink" xml:space="preserve" xmlns:serif="http://www.serif.com/" style="fill-rule:evenodd;clip-rule:evenodd;">
    <g transform="matrix(1,0,0,1,-34.0253,-0.169469)">
        <g transform="matrix(1,0,0,1,-292.226,-65.675)">
            <path d="M330.369,122.925L333.591,77.823C333.591,77.823 347.858,65.397 373.169,80.353C385.135,69.309 402.394,64.938 409.987,70C412.748,78.054 423.333,112.34 423.333,112.34L420.111,122.925C420.111,122.925 390.658,123.155 382.835,133.05C379.382,134.659 376.045,134.315 374.895,133.74C373.745,133.164 363.62,129.828 334.626,130.978C331.98,125.57 330.369,122.925 330.369,122.925Z" style="fill:none;fill-rule:nonzero;stroke:rgb(37,60,73);stroke-width:1px;"/>
            <path d="M332.095,128.908L332.095,133.278L373.515,135.581C373.515,135.581 374.665,138.918 383.18,136.156C392.155,134.085 423.909,126.031 423.909,126.031L422.3,120.048" style="fill:none;fill-rule:nonzero;stroke:rgb(37,60,73);stroke-width:2.83px;"/>
            <path d="M332.095,122.349C332.095,122.349 362.124,114.123 378.002,128.649C385.02,117.862 403.774,111.304 421.147,112.685" style="fill:none;fill-rule:nonzero;stroke:rgb(37,60,73);stroke-width:1px;"/>
            <path d="M378.002,128.648L373.169,80.354" style="fill:none;fill-rule:nonzero;stroke:rgb(37,60,73);stroke-width:1px;"/>
        </g>
        <g transform="matrix(1,0,0,1,-222.226,-65.675)">
            <path d="M496.667,76.442L510.244,76.442C510.244,76.442 514.387,77.478 511.97,87.372C509.553,97.268 509.784,98.187 509.784,100.373C509.784,102.561 509.438,127.527 509.438,127.527L494.481,127.527L494.481,80.124C494.481,80.124 494.712,76.442 496.667,76.442Z" style="fill:none;fill-rule:nonzero;stroke:rgb(37,60,73);stroke-width:1px;"/>
            <path d="M513.926,78.513L560.753,78.513C560.753,78.513 566.966,78.743 566.966,84.956L566.966,123.5C566.966,123.5 567.081,129.713 560.753,129.713L494.482,129.713C494.482,129.713 489.421,127.872 489.421,123.615L489.421,84.265C489.421,84.265 490.252,80.673 492.528,79.548" style="fill:none;fill-rule:nonzero;stroke:rgb(37,60,73);stroke-width:1px;"/>
            <rect x="547.407" y="81.62" width="15.416" height="6.327" style="fill:none;stroke:rgb(37,60,73);stroke-width:1px;"/>
            <rect x="534.866" y="81.62" width="5.982" height="5.293" style="fill:none;stroke:rgb(37,60,73);stroke-width:1px;"/>
            <circle cx="537.857" cy="84.266" r="5.063" style="fill:none;stroke:rgb(37,60,73);stroke-width:1px;"/>
            <circle cx="541.309" cy="108.43" r="9.893" style="fill:none;stroke:rgb(37,60,73);stroke-width:1px;"/>
            <circle cx="541.309" cy="108.43" r="15.645" style="fill:none;stroke:rgb(37,60,73);stroke-width:1px;"/>
            <circle cx="541.309" cy="108.43" r="19.097" style="fill:none;stroke:rgb(37,60,73);stroke-width:1px;"/>
        </g>
    </g>
</svg>
