<?xml version="1.0" encoding="UTF-8" standalone="no"?>
<!DOCTYPE svg PUBLIC "-//W3C//DTD SVG 1.1//EN" "http://www.w3.org/Graphics/SVG/1.1/DTD/svg11.dtd">
<svg width="100%" height="100%" viewBox="0 0 320 91" version="1.1" xmlns="http://www.w3.org/2000/svg" xmlns:xlink="http://www.w3.org/1999/xlink" xml:space="preserve" xmlns:serif="http://www.serif.com/" style="fill-rule:evenodd;clip-rule:evenodd;">
    <g transform="matrix(1,0,0,1,-45.2989,3.10862e-15)">
        <g transform="matrix(1,0,0,1,23.8355,-44.6624)">
            <rect x="28.127" y="131.319" width="54.095" height="3.453" style="fill:rgb(56,91,113);"/>
            <path d="M67.835,128.442C74.165,126.14 89.415,109.452 77.618,97.942C65.821,86.432 75.96,74.635 81.968,74.635C74.165,72.045 66.396,72.62 62.368,83.843C54.599,78.375 58.628,74.348 62.368,67.442C66.109,60.537 59.203,51.617 48.556,46.724C55.462,57.66 54.023,63.701 44.528,74.059C35.033,84.418 41.939,97.079 41.939,97.079C41.939,97.079 27.84,95.929 31.581,81.541C23.237,89.886 24.675,109.452 34.171,116.357C28.416,117.507 23.525,112.041 23.525,112.041C23.525,112.041 29.567,125.565 37.912,128.442C48.269,128.73 67.835,128.442 67.835,128.442Z" style="fill:none;fill-rule:nonzero;stroke:rgb(243,109,42);stroke-width:1px;"/>
            <path d="M41.747,128.485C40.212,127.717 35.608,123.114 34.649,122.154C40.595,123.114 45.774,120.236 45.966,118.702C41.554,118.893 32.73,109.302 32.346,102.973C37.142,106.809 45.774,105.85 48.076,103.74C44.623,98.561 43.281,84.365 50.953,77.844C48.268,88.01 55.749,96.649 60.737,102.112C63.039,95.299 65.149,92.804 66.875,91.27C65.915,96.258 71.287,103.547 73.588,106.425C75.89,109.302 78.959,117.934 64.956,128.485C50.762,128.677 41.747,128.485 41.747,128.485Z" style="fill:none;fill-rule:nonzero;stroke:rgb(243,109,42);stroke-opacity:0.79;stroke-width:1px;"/>
            <path d="M59.011,126.285C61.577,124.416 65.724,119.764 65.149,115.735C64.573,111.707 64.69,110.556 65.207,109.405C61.888,111.707 62.109,114.969 62.109,114.969C62.109,114.969 54.152,112.176 52.745,105.995C51.914,111.131 53.963,114.392 53.963,114.392C53.963,114.392 50.954,116.693 48.652,114.392C50.187,118.613 53.135,120.722 53.963,120.722C52.681,123.6 52.297,124.174 49.995,125.326C52.681,127.437 56.789,127.903 59.011,126.285Z" style="fill:none;fill-rule:nonzero;stroke:rgb(254,220,46);stroke-width:1px;"/>
        </g>
        <g transform="matrix(1,0,0,1,93.8355,-44.6624)">
            <path d="M165.254,94.873L186.354,88.927C186.354,88.927 183.861,81.829 182.134,77.801C180.407,73.773 193.26,77.801 193.26,77.801L195.371,82.022C195.371,82.022 196.521,81.318 213.977,76.011C219.348,69.169 219.732,68.593 227.021,67.251C234.31,65.908 242.943,63.222 242.943,63.222C242.943,63.222 243.326,61.113 246.395,61.305C249.464,61.495 254.069,62.647 254.069,62.647C254.069,62.647 257.136,63.99 257.329,67.443C257.521,70.896 257.329,75.883 257.329,75.883C257.329,75.883 261.742,81.829 255.795,86.24C261.166,86.24 264.619,86.05 264.619,86.05C264.619,86.05 268.647,85.858 268.647,91.037L268.647,120.961C268.647,120.961 270.181,126.333 263.659,126.333L220.5,126.333C220.5,126.333 217.028,127.676 217.028,122.304C214.361,124.99 211.099,125.372 211.099,125.372L205.536,125.372L193.068,128.825C193.068,128.825 183.86,131.128 180.6,125.948C177.531,127.099 172.159,128.25 168.706,126.523C165.254,124.796 159.883,119.816 159.499,111.756C159.116,103.697 161.655,95.887 165.254,94.873Z" style="fill:none;fill-rule:nonzero;stroke:rgb(37,60,73);stroke-width:1px;"/>
            <path d="M170.625,94.489C174.462,95.448 182.71,102.934 181.75,111.756C180.792,120.576 179.132,122.752 177.338,124.989" style="fill:none;fill-rule:nonzero;stroke:rgb(37,60,73);stroke-width:1px;"/>
            <path d="M178.202,120.193C175.9,120.29 166.593,117.165 168.035,105.423C168.993,98.612 170.845,97.557 172.255,96.79" style="fill:none;fill-rule:nonzero;stroke:rgb(37,60,73);stroke-width:1px;"/>
            <path d="M182.71,124.989C186.258,123.55 191.918,116.645 196.425,115.973C200.933,115.301 205.44,117.507 206.111,111.561C206.783,105.615 205.632,95.352 197.96,88.926" style="fill:none;fill-rule:nonzero;stroke:rgb(37,60,73);stroke-width:1px;"/>
            <path d="M186.643,90.558C188.657,91.708 200.551,97.751 195.659,84.228" style="fill:none;fill-rule:nonzero;stroke:rgb(37,60,73);stroke-width:1px;"/>
            <path d="M253.877,86.241L222.817,86.241C222.817,86.241 217.128,85.378 217.128,92.283L217.128,120.193" style="fill:none;fill-rule:nonzero;stroke:rgb(37,60,73);stroke-width:1px;"/>
            <path d="M225.392,92.188L260.399,92.188C260.399,92.188 264.62,91.899 264.62,95.736L264.62,120.193C264.62,120.193 264.812,123.263 261.455,123.263L223.762,123.263C223.762,123.263 220.789,123.838 220.789,118.947L220.789,96.311C220.789,96.311 220.75,92.184 225.392,92.188Z" style="fill:none;fill-rule:nonzero;stroke:rgb(37,60,73);stroke-width:1px;"/>
            <path d="M215.8,100.535C215.8,100.535 209.661,101.778 208.607,98.806C207.552,95.833 206.276,92.184 206.276,92.184C206.276,92.184 204.963,87.104 210.526,85.282C216.089,83.461 240.067,76.555 240.067,76.555C240.067,76.555 244.862,76.075 245.15,79.047C245.437,82.022 245.15,84.228 245.15,84.228" style="fill:none;fill-rule:nonzero;stroke:rgb(37,60,73);stroke-width:1px;"/>
            <path d="M253.877,84.803C253.877,84.803 249.177,80.87 255.604,75.787" style="fill:none;fill-rule:nonzero;stroke:rgb(37,60,73);stroke-width:1px;"/>
            <path d="M253.493,75.787C253.493,75.787 250.999,74.444 250.903,72.621C250.808,70.8 251.383,66.004 243.614,64.277" style="fill:none;fill-rule:nonzero;stroke:rgb(37,60,73);stroke-width:1px;"/>
        </g>
    </g>
</svg>
