<?xml version="1.0" encoding="UTF-8" standalone="no"?>
<!DOCTYPE svg PUBLIC "-//W3C//DTD SVG 1.1//EN" "http://www.w3.org/Graphics/SVG/1.1/DTD/svg11.dtd">
<svg width="100%" height="100%" viewBox="0 0 30 120" version="1.1" xmlns="http://www.w3.org/2000/svg" xmlns:xlink="http://www.w3.org/1999/xlink" xml:space="preserve" xmlns:serif="http://www.serif.com/" style="fill-rule:evenodd;clip-rule:evenodd;">
    <g transform="matrix(1,0,0,1,-643.354,-302.023)">
        <g>
            <path d="M661.275,331.538C672.017,332.305 670.226,334.181 670.226,334.181L670.226,415.005C656.67,424.213 645.416,415.005 645.416,415.005L645.416,334.181C646.354,332.136 652.321,331.538 653.431,331.538" style="fill:none;fill-rule:nonzero;stroke:rgb(37,60,73);stroke-width:1px;"/>
            <path d="M646.611,334.862C646.611,334.862 651.07,336.825 657.878,336.825C664.686,336.825 668.863,334.862 668.863,334.862" style="fill:none;fill-rule:nonzero;stroke:rgb(37,60,73);stroke-width:1px;"/>
            <path d="M657.737,334.862L656.928,325.059" style="fill:none;fill-rule:nonzero;stroke:rgb(37,60,73);stroke-width:1px;"/>
            <path d="M655.563,331.538C652.919,329.491 644.76,324.292 657.877,304.085C657.949,312.014 662.81,317.386 662.81,317.386C662.81,317.386 669.544,325.059 659.656,331.538" style="fill:none;fill-rule:nonzero;stroke:rgb(37,60,73);stroke-width:1px;"/>
        </g>
    </g>
</svg>
