<?xml version="1.0" encoding="UTF-8" standalone="no"?>
<!DOCTYPE svg PUBLIC "-//W3C//DTD SVG 1.1//EN" "http://www.w3.org/Graphics/SVG/1.1/DTD/svg11.dtd">
<svg width="100%" height="100%" viewBox="0 0 228 156" version="1.1" xmlns="http://www.w3.org/2000/svg" xmlns:xlink="http://www.w3.org/1999/xlink" xml:space="preserve" xmlns:serif="http://www.serif.com/" style="fill-rule:evenodd;clip-rule:evenodd;stroke-miterlimit:10;">
    <g transform="matrix(1,0,0,1,-29.3191,-37.6721)">
        <g id="pane01">
            <path d="M106.164,158.171C123.463,158.191 136.373,159.745 136.437,162.031C136.512,164.704 118.995,167.367 97.31,167.978C75.625,168.589 57.986,166.917 57.91,164.244C57.851,162.165 68.428,160.093 83.329,158.987" style="fill:none;fill-rule:nonzero;stroke:rgb(48,104,136);stroke-width:1px;"/>
            <path d="M106.105,156.265C125.045,156.389 139.3,158.696 139.391,161.934C139.496,165.664 120.772,169.219 97.571,169.873C74.37,170.527 55.475,168.033 55.37,164.302C55.287,161.365 66.878,158.537 83.136,157.148" style="fill:none;fill-rule:nonzero;stroke:rgb(48,104,136);stroke-width:1px;"/>
            <path d="M139.313,162.386C139.424,176.461 120.513,188.338 97.45,188.52C74.387,188.702 55.48,178.45 55.369,164.375" style="fill:none;fill-rule:nonzero;stroke:rgb(48,104,136);stroke-width:1px;"/>
            <path d="M84.333,168.333L79.666,129.166C79.666,129.166 90.166,124.166 105.333,126.499C105.333,134.999 106.833,168.103 106.833,168.103" style="fill:none;fill-rule:nonzero;stroke:rgb(48,104,136);stroke-width:1px;"/>
            <path d="M82.984,127.947L82.334,111.333C82.334,111.333 84.501,112 89.667,109.666C94.834,107.333 100.5,108.666 100.5,108.666L101.333,125.666" style="fill:none;fill-rule:nonzero;stroke:rgb(48,104,136);stroke-width:1px;"/>
            <path d="M57.676,161.558C57.676,161.558 60.098,146.419 44.455,148.135C28.812,149.851 35.986,167.365 35.986,167.365C35.986,167.365 44.488,182.772 64.752,179.869" style="fill:none;fill-rule:nonzero;stroke:rgb(48,104,136);stroke-width:1px;"/>
            <path d="M55.86,168.925C55.86,168.925 49.502,168.841 50.107,165.149C50.713,161.457 52.832,156.915 49.703,154.392C46.574,151.869 40.418,154.796 40.923,158.833C41.428,162.87 43.446,167.916 50.309,167.311" style="fill:none;fill-rule:nonzero;stroke:rgb(48,104,136);stroke-width:1px;"/>
            <path d="M195.833,42.697C195.833,42.697 193.5,55.5 199,64.833C204.5,74.166 206.833,78.666 204.5,84.166C202.167,89.666 197.183,98.666 195.342,101.333C193.5,104 197.667,113.666 207.667,113.5C207.834,117.833 208.334,122.333 208.334,122.333C208.334,122.333 208.334,130.666 216.834,130.333C225.334,130 225.501,132.666 225.501,132.666" style="fill:none;fill-rule:nonzero;stroke:rgb(48,104,136);stroke-width:1px;"/>
            <path d="M217.337,130.317C217.337,130.317 215.166,135.833 218.166,138.667C221.166,141.501 220.833,139.667 224.999,143.167C229.165,146.667 224.666,150.667 228.499,155.5C232.332,160.333 236.666,165 251.332,160.833" style="fill:none;fill-rule:nonzero;stroke:rgb(48,104,136);stroke-width:1px;"/>
            <path d="M223.5,125C223.5,125 217.833,118.167 215.333,107.833C212.833,97.499 215.666,84.333 216.854,81.666C218.042,78.999 216.578,77.166 216.578,77.166L214.833,77.166C215.333,75.833 220.5,70.666 223.5,67.666C219.667,66.833 210.209,67.666 210.209,67.666C210.209,67.666 209.797,65.446 210.646,63.182" style="fill:none;fill-rule:nonzero;stroke:rgb(48,104,136);stroke-width:1px;"/>
            <path d="M198.167,106.167C198.167,106.167 207.334,109.167 209,111.167" style="fill:none;fill-rule:nonzero;stroke:rgb(48,104,136);stroke-width:1px;"/>
            <path d="M213,67.75C213,67.75 211.583,72.25 216.083,75.75" style="fill:none;fill-rule:nonzero;stroke:rgb(48,104,136);stroke-width:1px;"/>
            <path d="M214,67.75C214,67.75 216.699,73.27 216.865,74.52" style="fill:none;fill-rule:nonzero;stroke:rgb(48,104,136);stroke-width:1px;"/>
            <path d="M89.537,106.687C85.754,106.203 85.889,100.065 86.829,97.501C87.254,96.34 87.515,95.071 87.358,93.833C87.247,92.95 86.411,91.742 87.792,91.731C88.405,91.726 89.645,93.213 90.026,93.637C91.447,95.216 92.481,97.211 93.098,99.236C94.038,102.319 94.055,107.262 89.537,106.687Z" style="fill:none;fill-rule:nonzero;stroke:rgb(48,104,136);stroke-width:1px;"/>
        </g>
    </g>
</svg>
