<?xml version="1.0" encoding="UTF-8" standalone="no"?>
<!DOCTYPE svg PUBLIC "-//W3C//DTD SVG 1.1//EN" "http://www.w3.org/Graphics/SVG/1.1/DTD/svg11.dtd">
<svg width="100%" height="100%" viewBox="0 0 238 80" version="1.1" xmlns="http://www.w3.org/2000/svg" xmlns:xlink="http://www.w3.org/1999/xlink" xml:space="preserve" xmlns:serif="http://www.serif.com/" style="fill-rule:evenodd;clip-rule:evenodd;stroke-miterlimit:10;">
    <g transform="matrix(1,0,0,1,-335.726,-67.03)">
        <g>
            <g transform="matrix(1,0,0,1,428.192,131.926)">
                <g>
                    <g>
                        <text x="0px" y="0px" style="font-family:'LucidaGrande', 'Lucida Grande', sans-serif;font-weight:500;font-size:70.866px;fill:rgb(241,242,242);">?</text>
                    </g>
                </g>
            </g>
            <rect x="382.788" y="100.681" width="125.334" height="12.829" style="fill:none;"/>
        </g>
        <g id="pane02">
            <g>
                <path d="M568.201,99.882C564.293,99.782 553.269,90.262 541.745,90.061C530.221,89.86 524.208,98.379 523.005,100.784C521.802,103.189 521.001,102.788 519.397,103.59C517.794,104.392 517.794,106.997 517.794,106.997C517.794,106.997 521.803,108.3 523.707,107.498C523.707,107.498 524.809,107.197 525.411,107.298C526.012,107.398 533.528,109.904 542.147,109.402C550.764,108.902 563.19,99.181 568.201,99.882" style="fill:none;fill-rule:nonzero;stroke:rgb(48,104,136);stroke-width:1px;"/>
                <path d="M521.231,102.85C521.231,102.85 522.804,103.39 523.907,104.994" style="fill:none;fill-rule:nonzero;stroke:rgb(48,104,136);stroke-width:1px;"/>
                <ellipse cx="541.444" cy="99.763" rx="9.432" ry="9.62" style="fill:none;stroke:rgb(48,104,136);stroke-width:1px;"/>
                <ellipse cx="541.444" cy="99.763" rx="3.744" ry="3.817" style="fill:none;stroke:rgb(48,104,136);stroke-width:1px;"/>
                <g>
                    <g>
                        <path d="M538.376,94.967L528.782,104.56" style="fill:none;fill-rule:nonzero;stroke:rgb(48,104,136);stroke-width:1px;"/>
                        <path d="M540.816,94.967L531.223,104.56" style="fill:none;fill-rule:nonzero;stroke:rgb(48,104,136);stroke-width:1px;"/>
                        <path d="M543.256,94.967L533.663,104.56" style="fill:none;fill-rule:nonzero;stroke:rgb(48,104,136);stroke-width:1px;"/>
                        <path d="M545.697,94.967L536.103,104.56" style="fill:none;fill-rule:nonzero;stroke:rgb(48,104,136);stroke-width:1px;"/>
                        <path d="M548.137,94.967L538.543,104.56" style="fill:none;fill-rule:nonzero;stroke:rgb(48,104,136);stroke-width:1px;"/>
                        <path d="M550.577,94.967L540.983,104.56" style="fill:none;fill-rule:nonzero;stroke:rgb(48,104,136);stroke-width:1px;"/>
                        <path d="M553.017,94.967L543.423,104.56" style="fill:none;fill-rule:nonzero;stroke:rgb(48,104,136);stroke-width:1px;"/>
                    </g>
                </g>
                <path d="M531.698,92.388C531.698,92.388 528.375,89.5 528.25,87.5" style="fill:none;fill-rule:nonzero;stroke:rgb(48,104,136);stroke-width:1px;"/>
                <path d="M534.25,91C534.25,91 532,88.25 531.875,86.75" style="fill:none;fill-rule:nonzero;stroke:rgb(48,104,136);stroke-width:1px;"/>
                <path d="M536.854,90.526C536.854,90.526 534.875,87.875 534.75,86.125" style="fill:none;fill-rule:nonzero;stroke:rgb(48,104,136);stroke-width:1px;"/>
                <path d="M539.625,90.526C539.625,90.526 538.625,85.75 538.375,84.625" style="fill:none;fill-rule:nonzero;stroke:rgb(48,104,136);stroke-width:1px;"/>
                <path d="M541.744,90.062C541.744,90.062 542.625,88.375 542.5,86.125" style="fill:none;fill-rule:nonzero;stroke:rgb(48,104,136);stroke-width:1px;"/>
                <path d="M544.75,90.25C544.75,90.25 547,89.125 547.25,86.375" style="fill:none;fill-rule:nonzero;stroke:rgb(48,104,136);stroke-width:1px;"/>
                <path d="M549,91.375C549,91.375 551.75,90.875 551.75,88.375" style="fill:none;fill-rule:nonzero;stroke:rgb(48,104,136);stroke-width:1px;"/>
                <path d="M546.5,90.625C546.5,90.625 548.5,90.25 549,88.875" style="fill:none;fill-rule:nonzero;stroke:rgb(48,104,136);stroke-width:1px;"/>
                <path d="M553.125,92.75C553.125,92.75 555.375,92.625 555.875,89.5" style="fill:none;fill-rule:nonzero;stroke:rgb(48,104,136);stroke-width:1px;"/>
                <path d="M556.25,94.25C556.25,94.25 558.25,94.375 558.375,93.375" style="fill:none;fill-rule:nonzero;stroke:rgb(48,104,136);stroke-width:1px;"/>
                <path d="M536.875,109.5C536.875,109.5 534.875,111 534.875,111.625" style="fill:none;fill-rule:nonzero;stroke:rgb(48,104,136);stroke-width:1px;"/>
                <path d="M539.375,109.5C539.375,109.5 538.875,109.75 538.875,112.125" style="fill:none;fill-rule:nonzero;stroke:rgb(48,104,136);stroke-width:1px;"/>
                <path d="M542.75,109.625C542.75,109.625 541.625,111 542.5,113.875" style="fill:none;fill-rule:nonzero;stroke:rgb(48,104,136);stroke-width:1px;"/>
                <path d="M545,108.75C545,108.75 546.5,108.875 547,111.375" style="fill:none;fill-rule:nonzero;stroke:rgb(48,104,136);stroke-width:1px;"/>
                <path d="M549.375,107.625C549.375,107.625 550.625,108 550.75,111.375" style="fill:none;fill-rule:nonzero;stroke:rgb(48,104,136);stroke-width:1px;"/>
                <path d="M552.25,106.125C552.25,106.125 555.375,106 555.625,109.125" style="fill:none;fill-rule:nonzero;stroke:rgb(48,104,136);stroke-width:1px;"/>
                <path d="M556.25,104.25C556.25,104.25 558.875,105.375 559.875,107.25" style="fill:none;fill-rule:nonzero;stroke:rgb(48,104,136);stroke-width:1px;"/>
                <path d="M559,103.25C559,103.25 562.786,105.629 563.125,106.25" style="fill:none;fill-rule:nonzero;stroke:rgb(48,104,136);stroke-width:1px;"/>
                <path d="M561.875,101.5C561.875,101.5 564.875,102.875 565.25,104.375" style="fill:none;fill-rule:nonzero;stroke:rgb(48,104,136);stroke-width:1px;"/>
                <path d="M564.75,100.25C564.75,100.25 566.625,101.625 567.5,102.25" style="fill:none;fill-rule:nonzero;stroke:rgb(48,104,136);stroke-width:1px;"/>
            </g>
            <g>
                <path d="M345.117,112.252L344.676,91.994C344.676,91.994 347.122,92.747 352.954,90.113C358.786,87.479 365.182,88.984 365.182,88.984L366.268,110.666" style="fill:none;fill-rule:nonzero;stroke:rgb(48,104,136);stroke-width:1px;"/>
                <path d="M354.742,86.397L354.742,89.501" style="fill:none;fill-rule:nonzero;stroke:rgb(48,104,136);stroke-width:1px;"/>
                <path d="M352.935,90.257L352.871,87.288" style="fill:none;fill-rule:nonzero;stroke:rgb(48,104,136);stroke-width:1px;"/>
                <path d="M342.25,141.25C342.25,141.25 337.913,117.011 343.994,110.533C344.622,110.57 344.257,112.096 345.31,112.161C351.384,112.535 363.272,113.09 366.468,110.533C366.468,108.418 367.751,108.5 367.751,108.5C367.751,108.5 373.501,108 373.751,116.5C374.001,125 373.251,141.5 373.251,141.5" style="fill:none;fill-rule:nonzero;stroke:rgb(48,104,136);stroke-width:1px;"/>
                <path d="M352.579,87.011C348.796,86.527 348.931,80.389 349.871,77.825C350.296,76.664 350.557,75.395 350.4,74.157C350.289,73.274 349.453,72.066 350.834,72.055C351.447,72.05 352.687,73.537 353.068,73.961C354.489,75.54 355.523,77.535 356.14,79.56C357.081,82.643 357.098,87.586 352.579,87.011Z" style="fill:none;fill-rule:nonzero;stroke:rgb(48,104,136);stroke-width:1px;"/>
            </g>
        </g>
    </g>
</svg>
