<?xml version="1.0" encoding="UTF-8" standalone="no"?>
<!DOCTYPE svg PUBLIC "-//W3C//DTD SVG 1.1//EN" "http://www.w3.org/Graphics/SVG/1.1/DTD/svg11.dtd">
<svg width="100%" height="100%" viewBox="0 0 135 135" version="1.1" xmlns="http://www.w3.org/2000/svg" xmlns:xlink="http://www.w3.org/1999/xlink" xml:space="preserve" xmlns:serif="http://www.serif.com/" style="fill-rule:evenodd;clip-rule:evenodd;">
    <g transform="matrix(1,0,0,1,-37.641,-51.1186)">
        <g>
            <g transform="matrix(-0.7071,0.7071,-0.7071,-0.7071,289.967,62.3643)">
                <rect x="81.477" y="85.092" width="101.18" height="12.289" style="fill:rgb(252,238,24);"/>
            </g>
            <g>
                <path d="M165.344,57.96L98.386,124.918" style="fill:none;fill-rule:nonzero;stroke:black;stroke-width:1.12px;"/>
                <path d="M131.365,93.573C133.074,92.657 134.293,92.17 135.768,91.54L131.764,87.536C131.565,88.092 130.645,90.229 129.73,91.938C128.75,93.766 127.766,95.33 127.043,96.259C127.975,95.538 129.537,94.554 131.365,93.573Z" style="fill-rule:nonzero;"/>
            </g>
            <path d="M37.641,182.846C37.641,182.846 38.528,185.95 67.063,185.95C95.597,185.95 100.033,182.846 100.033,182.846L100.033,179.667C100.033,179.667 100.403,178.336 96.484,176.783C99.811,173.235 100.549,170.5 99.589,168.282C98.628,166.065 91.383,162.443 91.383,162.443C91.383,162.443 87.688,158.82 88.648,155.05C90.644,155.196 91.088,154.347 91.088,154.347C91.088,154.347 100.457,141.818 100.042,130.062C99.848,120.083 84.546,110.436 84.546,110.436C84.546,110.436 72.348,100.678 72.237,100.123C75.008,100.011 84.73,95.317 84.73,95.317C84.73,95.317 88.943,93.98 93.601,98.049C94.561,96.426 96.113,94.652 98.184,94.282C100.253,93.912 100.106,92.878 98.85,92.434C97.591,91.99 98.406,90.143 99.588,90.215C99.44,87.702 98.85,84.154 98.85,84.154C98.85,84.154 94.784,80.383 94.339,79.202C93.895,78.018 93.97,76.836 89.239,76.91C84.508,76.984 71.201,76.906 71.201,76.906C71.201,76.906 64.548,76.466 58.339,66.708C54.273,65.82 45.182,72.621 43.48,77.944C40.671,78.314 38.675,79.422 38.898,80.68C39.119,81.936 41.189,82.084 41.189,82.084C41.189,82.084 34.425,99.012 43.185,115.534C51.946,132.056 47.066,142.701 41.189,150.131C39.97,152.237 40.746,153.569 42.297,153.68C43.85,153.789 50.061,154.788 50.061,154.788C50.061,154.788 50.614,160.666 44.183,163.881C37.752,167.097 36.753,171.421 41.412,176.633C39.083,177.188 37.641,178.961 37.641,178.961L37.641,182.846Z" style="fill:rgb(37,60,73);fill-rule:nonzero;"/>
        </g>
    </g>
</svg>
