<?xml version="1.0" encoding="UTF-8" standalone="no"?>
<!DOCTYPE svg PUBLIC "-//W3C//DTD SVG 1.1//EN" "http://www.w3.org/Graphics/SVG/1.1/DTD/svg11.dtd">
<svg width="100%" height="100%" viewBox="0 0 218 135" version="1.1" xmlns="http://www.w3.org/2000/svg" xmlns:xlink="http://www.w3.org/1999/xlink" xml:space="preserve" xmlns:serif="http://www.serif.com/" style="fill-rule:evenodd;clip-rule:evenodd;">
    <g transform="matrix(1,0,0,1,-338.271,-51.1169)">
        <g>
            <g transform="matrix(-0.7071,0.7071,-0.7071,-0.7071,803.178,-150.214)">
                <rect x="382.109" y="85.092" width="101.18" height="12.289" style="fill:rgb(252,238,24);"/>
            </g>
            <g>
                <path d="M531.99,93.68C537.657,92.255 555.963,90.823 555.963,124.918C555.963,159.013 542.829,163.251 531.99,161.013" style="fill:rgb(252,238,24);fill-opacity:0.8;fill-rule:nonzero;"/>
                <path d="M531.99,161.013L397.524,133.249L397.524,120.961L531.99,93.68L531.99,161.013Z" style="fill:rgb(252,238,24);fill-opacity:0.8;fill-rule:nonzero;"/>
                <g>
                    <path d="M399.018,127.104L551.883,127.104" style="fill:none;fill-rule:nonzero;stroke:black;stroke-width:1.12px;"/>
                    <path d="M477.441,125.949C475.585,125.388 474.378,124.871 472.889,124.273L472.889,129.935C473.423,129.683 475.585,128.822 477.441,128.26C479.427,127.66 481.228,127.25 482.396,127.104C481.228,126.957 479.428,126.549 477.441,125.949Z" style="fill-rule:nonzero;"/>
                </g>
            </g>
            <g>
                <path d="M465.976,57.96L399.018,124.918" style="fill:none;fill-rule:nonzero;stroke:black;stroke-width:1.12px;"/>
                <path d="M431.997,93.573C433.706,92.657 434.925,92.17 436.4,91.54L432.396,87.536C432.197,88.092 431.277,90.229 430.362,91.938C429.382,93.766 428.398,95.33 427.676,96.259C428.606,95.538 430.169,94.554 431.997,93.573Z" style="fill-rule:nonzero;"/>
            </g>
            <path d="M338.272,182.846C338.272,182.846 339.159,185.95 367.694,185.95C396.228,185.95 400.664,182.846 400.664,182.846L400.664,179.667C400.664,179.667 401.034,178.336 397.115,176.783C400.442,173.235 401.18,170.5 400.22,168.282C399.259,166.065 392.014,162.443 392.014,162.443C392.014,162.443 388.319,158.82 389.279,155.05C391.275,155.196 391.719,154.347 391.719,154.347C391.719,154.347 401.088,141.818 400.673,130.062C400.479,120.083 385.177,110.436 385.177,110.436C385.177,110.436 372.979,100.678 372.868,100.123C375.64,100.011 385.361,95.317 385.361,95.317C385.361,95.317 389.574,93.98 394.232,98.049C395.192,96.426 396.744,94.652 398.815,94.282C400.884,93.912 400.737,92.878 399.481,92.434C398.222,91.99 399.037,90.143 400.219,90.215C400.071,87.702 399.481,84.154 399.481,84.154C399.481,84.154 395.415,80.383 394.97,79.202C394.526,78.018 394.601,76.836 389.869,76.91C385.139,76.984 371.831,76.906 371.831,76.906C371.831,76.906 365.178,76.466 358.969,66.708C354.903,65.82 345.812,72.621 344.11,77.944C341.301,78.314 339.305,79.422 339.528,80.68C339.749,81.936 341.819,82.084 341.819,82.084C341.819,82.084 335.055,99.012 343.815,115.534C352.576,132.056 347.696,142.701 341.819,150.131C340.6,152.237 341.376,153.569 342.927,153.68C344.48,153.789 350.691,154.788 350.691,154.788C350.691,154.788 351.244,160.666 344.813,163.881C338.382,167.097 337.383,171.421 342.042,176.633C339.713,177.188 338.271,178.961 338.271,178.961L338.271,182.846L338.272,182.846Z" style="fill:rgb(37,60,73);fill-rule:nonzero;"/>
        </g>
    </g>
</svg>
