<?xml version="1.0" encoding="UTF-8" standalone="no"?>
<!DOCTYPE svg PUBLIC "-//W3C//DTD SVG 1.1//EN" "http://www.w3.org/Graphics/SVG/1.1/DTD/svg11.dtd">
<svg width="100%" height="100%" viewBox="0 0 350 287" version="1.1" xmlns="http://www.w3.org/2000/svg" xmlns:xlink="http://www.w3.org/1999/xlink" xml:space="preserve" xmlns:serif="http://www.serif.com/" style="fill-rule:evenodd;clip-rule:evenodd;">
    <g transform="matrix(1,0,0,1,-39.237,-78.963)">
        <g>
            <g>
                <path d="M368.646,89.132L214.886,184.063L208.432,173.605L362.101,78.963L368.646,89.132Z" style="fill:rgb(252,238,24);fill-rule:nonzero;"/>
                <g>
                    <path d="M211.659,178.834L365.321,83.966" style="fill:none;fill-rule:nonzero;stroke:black;stroke-width:1.12px;"/>
                    <path d="M289.896,129.148C288.023,129.646 286.723,129.841 285.143,130.115L288.117,134.932C288.438,134.438 289.827,132.57 291.11,131.118C292.485,129.562 293.802,128.268 294.718,127.528C293.648,128.018 291.901,128.615 289.896,129.148Z" style="fill-rule:nonzero;"/>
                </g>
            </g>
            <g>
                <path d="M44.715,274.791L204.26,189.941L198.488,179.093L39.237,264.01L44.715,274.791Z" style="fill:rgb(252,238,24);fill-rule:nonzero;"/>
                <g>
                    <path d="M201.374,184.518L41.933,269.315" style="fill:none;fill-rule:nonzero;stroke:black;stroke-width:1.12px;"/>
                    <path d="M118.999,226.994C120.374,225.629 121.199,224.604 122.232,223.378L124.891,228.376C124.301,228.404 121.989,228.661 120.087,229.036C118.051,229.438 116.269,229.924 115.167,230.341C116.13,229.662 117.527,228.456 118.999,226.994Z" style="fill-rule:nonzero;"/>
                </g>
            </g>
            <g>
                <path d="M386.2,188.504L205.495,188.506L205.496,176.217L385.972,176.412L386.2,188.504Z" style="fill:rgb(252,238,24);fill-rule:nonzero;"/>
                <g>
                    <path d="M205.496,182.361L386.084,182.361" style="fill:none;fill-rule:nonzero;stroke:black;stroke-width:1.12px;"/>
                    <path d="M298.17,181.185C296.315,180.624 295.106,180.108 293.617,179.511L293.617,185.172C294.149,184.92 296.313,184.06 298.167,183.499C300.154,182.898 301.955,182.488 303.123,182.34C301.956,182.192 300.155,181.784 298.17,181.185Z" style="fill-rule:nonzero;"/>
                </g>
            </g>
            <g>
                <path d="M358.42,278.829L202.395,187.666L208.596,177.056L364.323,268.273L358.42,278.829Z" style="fill:rgb(252,238,24);fill-rule:nonzero;"/>
                <g>
                    <path d="M205.496,182.361L361.419,273.467" style="fill:none;fill-rule:nonzero;stroke:black;stroke-width:1.12px;"/>
                    <path d="M286.105,228.099C284.787,226.679 284.002,225.622 283.019,224.357L280.163,229.245C280.75,229.296 283.053,229.645 284.935,230.097C286.955,230.579 288.716,231.135 289.799,231.596C288.866,230.879 287.518,229.618 286.105,228.099Z" style="fill-rule:nonzero;"/>
                </g>
            </g>
            <g>
                <path d="M206.397,197.093L80.495,123.532L92.375,103.202L217.927,176.996L206.397,197.093Z" style="fill:rgb(252,238,24);fill-rule:nonzero;"/>
                <g>
                    <path d="M86.435,113.367L212.235,186.872" style="fill:none;fill-rule:nonzero;stroke:black;stroke-width:1.12px;"/>
                    <path d="M136.922,141.504C135.604,140.084 134.819,139.027 133.836,137.762L130.98,142.65C131.567,142.701 133.87,143.05 135.753,143.502C137.773,143.984 139.534,144.54 140.617,145.001C139.683,144.284 138.334,143.023 136.922,141.504Z" style="fill-rule:nonzero;"/>
                </g>
            </g>
            <g>
                <path d="M289.834,342.295L200.161,185.41L210.831,179.311L300.219,336.097L289.834,342.295Z" style="fill:rgb(252,238,24);fill-rule:nonzero;"/>
                <g>
                    <path d="M205.496,182.361L295.11,339.147" style="fill:none;fill-rule:nonzero;stroke:black;stroke-width:1.12px;"/>
                    <path d="M252.505,262.236C252.072,260.347 251.92,259.04 251.699,257.453L246.784,260.262C247.267,260.599 249.088,262.051 250.494,263.382C252.003,264.809 253.252,266.169 253.961,267.11C253.509,266.023 252.97,264.258 252.505,262.236Z" style="fill-rule:nonzero;"/>
                </g>
            </g>
            <g>
                <path d="M199.343,363.065L199.352,182.36L211.641,182.361L211.434,362.838L199.343,363.065Z" style="fill:rgb(252,238,24);fill-rule:nonzero;"/>
                <g>
                    <path d="M205.496,182.361L205.485,362.95" style="fill:none;fill-rule:nonzero;stroke:black;stroke-width:1.12px;"/>
                    <path d="M206.667,275.035C207.228,273.181 207.745,271.971 208.341,270.483L202.68,270.482C202.933,271.014 203.793,273.178 204.353,275.032C204.955,277.019 205.365,278.82 205.512,279.988C205.658,278.821 206.067,277.022 206.667,275.035Z" style="fill-rule:nonzero;"/>
                </g>
            </g>
            <circle cx="205.488" cy="182.382" r="38.775" style="fill:rgb(188,190,192);"/>
        </g>
    </g>
</svg>
