<?xml version="1.0" encoding="UTF-8" standalone="no"?>
<!DOCTYPE svg PUBLIC "-//W3C//DTD SVG 1.1//EN" "http://www.w3.org/Graphics/SVG/1.1/DTD/svg11.dtd">
<svg width="100%" height="100%" viewBox="0 0 395 324" version="1.1" xmlns="http://www.w3.org/2000/svg" xmlns:xlink="http://www.w3.org/1999/xlink" xml:space="preserve" xmlns:serif="http://www.serif.com/" style="fill-rule:evenodd;clip-rule:evenodd;">
    <g transform="matrix(1,0,0,1,-486.975,-67.1969)">
        <g>
            <g>
                <path d="M836.477,89.132L682.716,184.063L676.262,173.605L829.931,78.963L836.477,89.132Z" style="fill:rgb(252,238,24);fill-rule:nonzero;"/>
                <g>
                    <path d="M679.489,178.834L833.151,83.966" style="fill:none;fill-rule:nonzero;stroke:black;stroke-width:1.12px;"/>
                    <path d="M757.727,129.148C755.854,129.646 754.554,129.841 752.974,130.115L755.948,134.932C756.269,134.438 757.658,132.57 758.941,131.118C760.316,129.562 761.633,128.268 762.549,127.528C761.478,128.018 759.731,128.615 757.727,129.148Z" style="fill-rule:nonzero;"/>
                </g>
            </g>
            <g>
                <g>
                    <g>
                        <path d="M823.727,114.246C806.12,110.509 797,93.82 801.133,75.293C801.133,75.293 823.749,83.539 842.071,78.673C839.551,97.197 827.08,104.817 823.727,114.246Z" style="fill:white;fill-rule:nonzero;"/>
                        <path d="M823.727,114.246C806.12,110.509 797,93.82 801.133,75.293C801.133,75.293 823.749,83.539 842.071,78.673C839.551,97.197 827.08,104.817 823.727,114.246Z" style="fill:url(#_Linear1);fill-rule:nonzero;"/>
                        <path d="M823.727,114.246C806.12,110.509 797,93.82 801.133,75.293C801.133,75.293 823.749,83.539 842.071,78.673C839.551,97.197 827.08,104.817 823.727,114.246Z" style="fill:none;fill-rule:nonzero;stroke:black;stroke-width:1px;"/>
                    </g>
                    <path d="M789.161,71.32C789.161,71.32 836.207,88.154 852.028,73.38" style="fill:none;fill-rule:nonzero;stroke:black;stroke-width:2px;"/>
                    <path d="M842.178,78.729C842.178,78.729 844.116,89.615 828.286,107.318C818.184,118.615 824.061,130.509 824.061,130.509" style="fill:none;fill-rule:nonzero;stroke:black;stroke-width:2px;"/>
                </g>
                <g>
                    <path d="M815.987,111.251C812.15,111.251 807.164,107.057 803.578,100.813C799.153,93.106 798.655,85.364 802.444,83.188C803.107,82.808 803.861,82.616 804.686,82.616C808.526,82.616 813.514,86.81 817.098,93.054C821.521,100.761 822.015,108.502 818.225,110.678C817.563,111.059 816.81,111.251 815.987,111.251Z" style="fill:url(#_Linear2);fill-rule:nonzero;"/>
                    <path d="M804.686,83.616C808.047,83.615 812.797,87.571 816.231,93.552C820.311,100.662 820.984,107.942 817.727,109.811C817.21,110.108 816.623,110.25 815.987,110.25C812.629,110.25 807.879,106.293 804.445,100.314C800.361,93.201 799.69,85.921 802.942,84.054C803.461,83.758 804.049,83.616 804.686,83.616M804.686,81.616C803.684,81.616 802.763,81.852 801.947,82.32C797.599,84.817 797.927,92.981 802.711,101.311C806.469,107.854 811.805,112.25 815.987,112.25C816.988,112.25 817.908,112.013 818.722,111.545C823.071,109.05 822.745,100.886 817.965,92.557C814.21,86.013 808.873,81.616 804.686,81.616Z" style="fill:white;fill-rule:nonzero;"/>
                </g>
                <g>
                    <path d="M808.418,98.219C810.386,101.65 810.94,105.035 809.655,105.771C808.368,106.512 805.726,104.325 803.757,100.895C801.788,97.463 801.231,94.08 802.519,93.341C803.803,92.602 806.447,94.788 808.418,98.219Z" style="fill:white;fill-rule:nonzero;"/>
                </g>
                <g transform="matrix(0.8671,-0.498,0.498,0.8671,57.647,414.84)">
                    <ellipse cx="806.426" cy="99.363" rx="2.246" ry="5.201" style="fill:rgb(1,1,1);"/>
                </g>
                <path d="M805.16,91.952C807.157,93.739 809.969,93.864 811.435,92.228C812.908,90.584 812.478,87.803 810.481,86.015C808.49,84.224 805.675,84.103 804.207,85.744C802.739,87.383 803.166,90.162 805.16,91.952Z" style="fill:url(#_Linear3);fill-rule:nonzero;"/>
            </g>
            <g>
                <path d="M512.545,274.791L672.09,189.941L666.318,179.093L507.067,264.01L512.545,274.791Z" style="fill:rgb(252,238,24);fill-rule:nonzero;"/>
                <g>
                    <path d="M669.204,184.518L509.763,269.315" style="fill:none;fill-rule:nonzero;stroke:black;stroke-width:1.12px;"/>
                    <path d="M586.829,226.994C588.204,225.629 589.029,224.604 590.062,223.378L592.721,228.376C592.131,228.404 589.819,228.661 587.917,229.036C585.881,229.438 584.099,229.924 582.997,230.341C583.96,229.662 585.357,228.456 586.829,226.994Z" style="fill-rule:nonzero;"/>
                </g>
            </g>
            <g>
                <g>
                    <g>
                        <path d="M540.66,276.457C546.317,259.37 536.511,243.075 518.431,237.294C518.431,237.294 514.138,260.982 500.693,274.344C517.957,281.516 530.828,274.594 540.66,276.457Z" style="fill:white;fill-rule:nonzero;"/>
                        <path d="M540.66,276.457C546.317,259.37 536.511,243.075 518.431,237.294C518.431,237.294 514.138,260.982 500.693,274.344C517.957,281.516 530.828,274.594 540.66,276.457Z" style="fill:url(#_Linear4);fill-rule:nonzero;"/>
                        <path d="M540.66,276.457C546.317,259.37 536.511,243.075 518.431,237.294C518.431,237.294 514.138,260.982 500.693,274.344C517.957,281.516 530.828,274.594 540.66,276.457Z" style="fill:none;fill-rule:nonzero;stroke:black;stroke-width:1px;"/>
                    </g>
                    <path d="M521.042,224.954C521.042,224.954 511.837,274.065 491.098,280.27" style="fill:none;fill-rule:nonzero;stroke:black;stroke-width:2px;"/>
                    <path d="M500.685,274.465C500.685,274.465 509.106,281.631 532.377,276.897C547.229,273.875 554.531,284.952 554.531,284.952" style="fill:none;fill-rule:nonzero;stroke:black;stroke-width:2px;"/>
                </g>
                <g>
                    <path d="M538.115,270.479C534.277,270.478 529.292,266.283 525.709,260.04C521.287,252.332 520.793,244.588 524.585,242.41C525.247,242.03 526,241.839 526.823,241.839C530.662,241.839 535.647,246.035 539.229,252.282C543.649,259.992 544.144,267.733 540.356,269.905C539.694,270.285 538.94,270.478 538.116,270.478L538.115,270.478L538.115,270.479Z" style="fill:rgb(101,188,71);fill-rule:nonzero;"/>
                    <path d="M526.823,242.84C530.181,242.84 534.931,246.798 538.362,252.781C542.44,259.895 543.112,267.174 539.859,269.04C539.339,269.338 538.752,269.48 538.115,269.48C534.754,269.48 530.007,265.521 526.576,259.544C522.494,252.429 521.827,245.149 525.083,243.279C525.601,242.982 526.186,242.84 526.823,242.84M526.823,240.84C525.823,240.84 524.902,241.076 524.088,241.543C519.738,244.042 520.063,252.208 524.842,260.538C528.597,267.082 533.932,271.479 538.115,271.479C539.117,271.479 540.038,271.242 540.854,270.774C545.2,268.282 544.874,260.119 540.097,251.786C536.343,245.238 531.009,240.84 526.823,240.84Z" style="fill:white;fill-rule:nonzero;"/>
                </g>
                <g>
                    <path d="M534.548,255.152C536.518,258.582 539.16,260.77 540.444,260.031C541.732,259.294 541.177,255.909 539.209,252.477C537.24,249.046 534.601,246.858 533.313,247.597C532.027,248.333 532.581,251.72 534.548,255.152Z" style="fill:white;fill-rule:nonzero;"/>
                </g>
                <g>
                    <path d="M534.592,255.127C536.02,257.618 538.055,259.137 539.131,258.522C540.205,257.904 539.918,255.384 538.489,252.893C537.059,250.401 535.031,248.881 533.953,249.499C532.878,250.115 533.163,252.635 534.592,255.127Z" style="fill:rgb(1,1,1);fill-rule:nonzero;"/>
                </g>
                <path d="M530.781,249.178C531.317,251.803 530.006,254.295 527.853,254.736C525.691,255.178 523.507,253.404 522.97,250.776C522.429,248.155 523.744,245.663 525.903,245.223C528.059,244.782 530.242,246.553 530.781,249.178Z" style="fill:url(#_Linear5);fill-rule:nonzero;"/>
            </g>
            <g>
                <path d="M854.03,188.504L673.325,188.506L673.326,176.217L853.802,176.412L854.03,188.504Z" style="fill:rgb(252,238,24);fill-rule:nonzero;"/>
                <g>
                    <path d="M673.326,182.361L853.914,182.361" style="fill:none;fill-rule:nonzero;stroke:black;stroke-width:1.12px;"/>
                    <path d="M766,181.185C764.144,180.624 762.935,180.108 761.447,179.511L761.447,185.172C761.979,184.92 764.143,184.06 765.997,183.499C767.984,182.898 769.785,182.488 770.953,182.34C769.786,182.192 767.985,181.784 766,181.185Z" style="fill-rule:nonzero;"/>
                </g>
            </g>
            <g>
                <g>
                    <g>
                        <path d="M832.126,203.175C819.088,190.765 820.066,171.772 833.296,158.158C833.296,158.158 848.236,177.033 866.391,182.49C854.536,196.946 839.922,196.901 832.126,203.175Z" style="fill:white;fill-rule:nonzero;"/>
                        <path d="M832.126,203.175C819.088,190.765 820.066,171.772 833.296,158.158C833.296,158.158 848.236,177.033 866.391,182.49C854.536,196.946 839.922,196.901 832.126,203.175Z" style="fill:url(#_Linear6);fill-rule:nonzero;"/>
                        <path d="M832.126,203.175C819.088,190.765 820.066,171.772 833.296,158.158C833.296,158.158 848.236,177.033 866.391,182.49C854.536,196.946 839.922,196.901 832.126,203.175Z" style="fill:none;fill-rule:nonzero;stroke:black;stroke-width:1px;"/>
                    </g>
                    <path d="M825.182,148.501C825.182,148.501 856.428,187.492 877.646,183.2" style="fill:none;fill-rule:nonzero;stroke:black;stroke-width:2px;"/>
                    <path d="M866.452,182.594C866.452,182.594 862.398,192.881 839.639,199.662C825.115,203.989 823.887,217.2 823.887,217.2" style="fill:none;fill-rule:nonzero;stroke:black;stroke-width:2px;"/>
                </g>
                <g>
                    <path d="M829.31,197.253C824.945,197.119 821.736,190.058 822.004,181.175C822.274,172.277 825.775,165.568 830.148,165.568L830.275,165.57C834.645,165.706 837.856,172.77 837.585,181.653C837.313,190.548 833.81,197.256 829.437,197.256L829.31,197.253Z" style="fill:rgb(101,188,71);fill-rule:nonzero;"/>
                    <path d="M830.148,166.567C830.18,166.567 830.213,166.568 830.245,166.569C833.997,166.685 836.836,173.422 836.586,181.622C836.337,189.745 833.148,196.255 829.438,196.255C829.405,196.255 829.373,196.254 829.34,196.253C825.592,196.139 822.756,189.401 823.004,181.205C823.251,173.077 826.441,166.568 830.148,166.567M830.148,164.567C825.222,164.568 821.292,171.694 821.005,181.144C820.714,190.745 824.272,198.099 829.279,198.251L829.437,198.254C834.363,198.254 838.295,191.13 838.585,181.683C838.878,172.081 835.319,164.725 830.307,164.57L830.148,164.567Z" style="fill:white;fill-rule:nonzero;"/>
                </g>
                <g transform="matrix(0.9995,0.0303,-0.0303,0.9995,5.8855,-24.9468)">
                    <ellipse cx="824.8" cy="181.419" rx="2.687" ry="7.165" style="fill:white;"/>
                </g>
                <g transform="matrix(0.9995,0.0302,-0.0302,0.9995,5.8572,-24.8442)">
                    <ellipse cx="825.19" cy="181.432" rx="2.246" ry="5.201" style="fill:rgb(1,1,1);"/>
                </g>
                <path d="M827.995,174.457C828.76,177.025 831.089,178.605 833.195,177.98C835.31,177.352 836.402,174.758 835.638,172.189C834.88,169.62 832.547,168.042 830.436,168.67C828.328,169.297 827.235,171.887 827.995,174.457Z" style="fill:url(#_Linear7);fill-rule:nonzero;"/>
            </g>
            <g>
                <path d="M826.25,278.829L670.226,187.666L676.426,177.056L832.153,268.273L826.25,278.829Z" style="fill:rgb(252,238,24);fill-rule:nonzero;"/>
                <g>
                    <path d="M673.326,182.361L829.249,273.467" style="fill:none;fill-rule:nonzero;stroke:black;stroke-width:1.12px;"/>
                    <path d="M753.935,228.099C752.617,226.679 751.833,225.622 750.849,224.357L747.993,229.245C748.58,229.296 750.883,229.645 752.765,230.097C754.785,230.579 756.546,231.135 757.629,231.596C756.696,230.879 755.348,229.618 753.935,228.099Z" style="fill-rule:nonzero;"/>
                </g>
            </g>
            <g>
                <path d="M674.227,197.093L548.325,123.532L560.205,103.202L685.757,176.996L674.227,197.093Z" style="fill:rgb(252,238,24);fill-rule:nonzero;"/>
                <g>
                    <path d="M554.265,113.367L680.065,186.872" style="fill:none;fill-rule:nonzero;stroke:black;stroke-width:1.12px;"/>
                    <path d="M604.752,141.504C603.434,140.084 602.649,139.027 601.666,137.762L598.81,142.65C599.397,142.701 601.7,143.05 603.582,143.502C605.602,143.984 607.363,144.54 608.446,145.001C607.513,144.284 606.164,143.023 604.752,141.504Z" style="fill-rule:nonzero;"/>
                </g>
            </g>
            <g>
                <g>
                    <g>
                        <path d="M799.936,280.445C794.939,263.152 805.366,247.247 823.657,242.167C823.657,242.167 827.034,266.002 839.956,279.872C822.428,286.373 809.832,278.962 799.936,280.445Z" style="fill:white;fill-rule:nonzero;"/>
                        <path d="M799.936,280.445C794.939,263.152 805.366,247.247 823.657,242.167C823.657,242.167 827.034,266.002 839.956,279.872C822.428,286.373 809.832,278.962 799.936,280.445Z" style="fill:url(#_Linear8);fill-rule:nonzero;"/>
                        <path d="M799.936,280.445C794.939,263.152 805.366,247.247 823.657,242.167C823.657,242.167 827.034,266.002 839.956,279.872C822.428,286.373 809.832,278.962 799.936,280.445Z" style="fill:none;fill-rule:nonzero;stroke:black;stroke-width:1px;"/>
                    </g>
                    <path d="M821.523,229.735C821.523,229.735 828.831,279.165 849.315,286.163" style="fill:none;fill-rule:nonzero;stroke:black;stroke-width:2px;"/>
                    <path d="M839.957,279.992C839.957,279.992 831.268,286.829 808.196,281.203C793.472,277.611 785.748,288.398 785.748,288.398" style="fill:none;fill-rule:nonzero;stroke:black;stroke-width:2px;"/>
                </g>
                <g>
                    <path d="M802.917,274.573C802.01,274.573 801.194,274.35 800.492,273.911C796.791,271.594 797.584,263.877 802.296,256.344C806.025,250.385 811.086,246.382 814.889,246.382C815.794,246.382 816.609,246.605 817.31,247.043C821.015,249.364 820.223,257.084 815.508,264.616C811.779,270.572 806.72,274.573 802.917,274.573Z" style="fill:url(#_Linear9);fill-rule:nonzero;"/>
                    <path d="M814.889,247.382C815.591,247.382 816.229,247.546 816.78,247.891C819.961,249.884 819.013,257.132 814.661,264.086C811.065,269.83 806.27,273.573 802.918,273.573C802.215,273.573 801.575,273.409 801.023,273.063C797.845,271.073 798.795,263.826 803.144,256.873C806.741,251.125 811.538,247.382 814.889,247.382M814.889,245.382C810.69,245.382 805.414,249.477 801.449,255.814C796.356,263.956 795.717,272.1 799.962,274.759C800.826,275.3 801.82,275.573 802.918,275.573C807.116,275.573 812.391,271.481 816.356,265.147C821.452,257.005 822.09,248.858 817.842,246.196C816.977,245.655 815.984,245.382 814.889,245.382Z" style="fill:white;fill-rule:nonzero;"/>
                </g>
                <g>
                    <path d="M806.864,259.391C804.764,262.743 802.039,264.828 800.785,264.039C799.525,263.253 800.211,259.893 802.308,256.54C804.408,253.186 807.13,251.102 808.388,251.89C809.646,252.675 808.962,256.037 806.864,259.391Z" style="fill:white;fill-rule:nonzero;"/>
                </g>
                <g>
                    <path d="M806.821,259.364C805.298,261.799 803.206,263.238 802.155,262.581C801.104,261.922 801.489,259.416 803.012,256.982C804.536,254.545 806.622,253.105 807.676,253.764C808.727,254.423 808.346,256.929 806.821,259.364Z" style="fill:rgb(1,1,1);fill-rule:nonzero;"/>
                </g>
                <path d="M810.857,253.565C810.221,256.169 811.435,258.708 813.57,259.231C815.713,259.756 817.964,258.067 818.601,255.463C819.243,252.862 818.024,250.323 815.884,249.801C813.748,249.278 811.498,250.963 810.857,253.565Z" style="fill:url(#_Linear10);fill-rule:nonzero;"/>
            </g>
            <g>
                <path d="M757.664,342.295L667.991,185.41L678.661,179.311L768.049,336.097L757.664,342.295Z" style="fill:rgb(252,238,24);fill-rule:nonzero;"/>
                <g>
                    <path d="M673.326,182.361L762.94,339.147" style="fill:none;fill-rule:nonzero;stroke:black;stroke-width:1.12px;"/>
                    <path d="M720.335,262.236C719.902,260.347 719.75,259.04 719.529,257.453L714.614,260.262C715.097,260.599 716.918,262.051 718.324,263.382C719.833,264.809 721.082,266.169 721.791,267.11C721.339,266.023 720.8,264.258 720.335,262.236Z" style="fill-rule:nonzero;"/>
                </g>
            </g>
            <g>
                <g>
                    <g>
                        <path d="M734.058,330.559C738.363,313.081 755.337,304.505 773.722,309.236C773.722,309.236 764.748,331.573 769.02,350.043C750.586,346.924 743.373,334.214 734.058,330.559Z" style="fill:white;fill-rule:nonzero;"/>
                        <path d="M734.058,330.559C738.363,313.081 755.337,304.505 773.722,309.236C773.722,309.236 764.748,331.573 769.02,350.043C750.586,346.924 743.373,334.214 734.058,330.559Z" style="fill:url(#_Linear11);fill-rule:nonzero;"/>
                        <path d="M734.058,330.559C738.363,313.081 755.337,304.505 773.722,309.236C773.722,309.236 764.748,331.573 769.02,350.043C750.586,346.924 743.373,334.214 734.058,330.559Z" style="fill:none;fill-rule:nonzero;stroke:black;stroke-width:1px;"/>
                    </g>
                    <path d="M778.08,297.398C778.08,297.398 759.732,343.875 773.987,360.165" style="fill:none;fill-rule:nonzero;stroke:black;stroke-width:2px;"/>
                    <path d="M768.96,350.147C768.96,350.147 758.018,351.733 740.836,335.339C729.872,324.876 717.794,330.365 717.794,330.365" style="fill:none;fill-rule:nonzero;stroke:black;stroke-width:2px;"/>
                </g>
                <g>
                    <path d="M743.935,327.932C740.926,327.932 738.747,326.953 737.802,325.174C735.752,321.319 740.291,315.028 748.136,310.854C752.099,308.746 756.299,307.537 759.659,307.537C762.666,307.537 764.843,308.515 765.788,310.291C767.839,314.152 763.299,320.445 755.453,324.618C751.491,326.724 747.293,327.932 743.935,327.932Z" style="fill:rgb(101,188,71);fill-rule:nonzero;"/>
                    <path d="M759.659,308.536C762.191,308.536 764.111,309.268 764.905,310.76C766.666,314.075 762.226,319.882 754.983,323.735C751.009,325.848 747.018,326.932 743.934,326.932C741.4,326.932 739.479,326.201 738.684,324.704C736.924,321.393 741.366,315.589 748.605,311.736C752.582,309.621 756.575,308.536 759.659,308.536M759.659,306.536C756.14,306.536 751.768,307.788 747.666,309.971C739.187,314.483 734.567,321.22 736.919,325.643C738.046,327.764 740.538,328.932 743.935,328.932C747.453,328.932 751.822,327.681 755.923,325.5C764.402,320.99 769.024,314.25 766.672,309.821C765.544,307.702 763.054,306.536 759.659,306.536Z" style="fill:white;fill-rule:nonzero;"/>
                </g>
                <g>
                    <path d="M750.572,315.774C747.08,317.629 743.677,318.075 742.984,316.766C742.285,315.456 744.556,312.887 748.048,311.03C751.541,309.173 754.941,308.725 755.638,310.036C756.335,311.344 754.064,313.916 750.572,315.774Z" style="fill:white;fill-rule:nonzero;"/>
                </g>
                <g>
                    <path d="M750.549,315.729C748.013,317.079 745.482,317.281 744.9,316.187C744.319,315.091 745.903,313.112 748.438,311.764C750.976,310.413 753.501,310.207 754.086,311.305C754.667,312.4 753.085,314.381 750.549,315.729Z" style="fill:rgb(1,1,1);fill-rule:nonzero;"/>
                </g>
                <path d="M756.94,312.721C755.089,314.66 754.874,317.465 756.461,318.985C758.056,320.51 760.85,320.17 762.702,318.232C764.556,316.299 764.767,313.491 763.175,311.97C761.586,310.449 758.795,310.785 756.94,312.721Z" style="fill:url(#_Linear12);fill-rule:nonzero;"/>
            </g>
            <g>
                <path d="M667.173,363.065L667.182,182.36L679.471,182.361L679.264,362.838L667.173,363.065Z" style="fill:rgb(252,238,24);fill-rule:nonzero;"/>
                <g>
                    <path d="M673.326,182.361L673.315,362.95" style="fill:none;fill-rule:nonzero;stroke:black;stroke-width:1.12px;"/>
                    <path d="M674.497,275.035C675.059,273.181 675.575,271.971 676.171,270.483L670.51,270.482C670.763,271.014 671.623,273.178 672.183,275.032C672.785,277.019 673.195,278.82 673.342,279.988C673.488,278.821 673.897,277.022 674.497,275.035Z" style="fill-rule:nonzero;"/>
                </g>
            </g>
            <g>
                <g>
                    <g>
                        <path d="M652.503,341.161C664.914,328.122 683.907,329.101 697.52,342.333C697.52,342.333 678.644,357.272 673.187,375.426C658.73,363.571 658.775,348.957 652.503,341.161Z" style="fill:white;fill-rule:nonzero;"/>
                        <path d="M652.503,341.161C664.914,328.122 683.907,329.101 697.52,342.333C697.52,342.333 678.644,357.272 673.187,375.426C658.73,363.571 658.775,348.957 652.503,341.161Z" style="fill:url(#_Linear13);fill-rule:nonzero;"/>
                        <path d="M652.503,341.161C664.914,328.122 683.907,329.101 697.52,342.333C697.52,342.333 678.644,357.272 673.187,375.426C658.73,363.571 658.775,348.957 652.503,341.161Z" style="fill:none;fill-rule:nonzero;stroke:black;stroke-width:1px;"/>
                    </g>
                    <path d="M707.178,334.22C707.178,334.22 668.184,365.464 672.476,386.68" style="fill:none;fill-rule:nonzero;stroke:black;stroke-width:2px;"/>
                    <path d="M673.082,375.487C673.082,375.487 662.795,371.433 656.016,348.674C651.69,334.149 638.479,332.92 638.479,332.92" style="fill:none;fill-rule:nonzero;stroke:black;stroke-width:2px;"/>
                </g>
                <g>
                    <path d="M675.059,346.637C674.718,346.637 674.373,346.631 674.027,346.621C665.145,346.35 658.293,342.714 658.425,338.343C658.555,334.171 665.025,331.025 673.475,331.025C673.815,331.025 674.159,331.031 674.504,331.041C683.387,331.312 690.241,334.944 690.109,339.312C689.978,343.488 683.509,346.637 675.059,346.637Z" style="fill:rgb(101,188,71);fill-rule:nonzero;"/>
                    <path d="M673.475,332.024C673.805,332.024 674.138,332.03 674.474,332.04C682.672,332.289 689.223,335.533 689.11,339.281C688.998,342.878 682.799,345.636 675.059,345.636C674.728,345.636 674.394,345.631 674.057,345.62C665.862,345.37 659.311,342.127 659.425,338.372C659.536,334.78 665.736,332.024 673.475,332.024M673.475,330.024C664.325,330.024 657.575,333.509 657.426,338.311C657.274,343.326 664.397,347.327 673.996,347.62C674.352,347.631 674.707,347.637 675.059,347.637C684.209,347.637 690.958,344.149 691.109,339.344C691.26,334.331 684.135,330.333 674.535,330.041C674.178,330.03 673.825,330.024 673.475,330.024Z" style="fill:white;fill-rule:nonzero;"/>
                </g>
                <g transform="matrix(-0.0304,0.9995,-0.9995,-0.0304,1028.41,-329.98)">
                    <ellipse cx="674.259" cy="333.836" rx="2.687" ry="7.165" style="fill:white;"/>
                </g>
                <g>
                    <path d="M674.179,336.471C671.308,336.384 669.011,335.303 669.048,334.065C669.087,332.826 671.444,331.893 674.314,331.981C677.188,332.068 679.483,333.143 679.446,334.385C679.406,335.624 677.05,336.559 674.179,336.471Z" style="fill:rgb(1,1,1);fill-rule:nonzero;"/>
                </g>
                <path d="M681.222,337.03C678.653,337.795 677.074,340.124 677.698,342.231C678.326,344.346 680.921,345.437 683.49,344.674C686.058,343.916 687.636,341.582 687.008,339.472C686.382,337.364 683.792,336.271 681.222,337.03Z" style="fill:url(#_Linear14);fill-rule:nonzero;"/>
            </g>
            <circle cx="673.318" cy="182.382" r="38.775" style="fill:rgb(188,190,192);"/>
        </g>
    </g>
    <defs>
        <linearGradient id="_Linear1" x1="0" y1="0" x2="1" y2="0" gradientUnits="userSpaceOnUse" gradientTransform="matrix(6.17809,43.1163,-43.1163,6.17809,819.366,70.255)"><stop offset="0" style="stop-color:white;stop-opacity:0.1"/><stop offset="0.14" style="stop-color:rgb(244,243,243);stop-opacity:0.1"/><stop offset="0.3" style="stop-color:rgb(224,222,222);stop-opacity:0.1"/><stop offset="0.48" style="stop-color:rgb(197,194,194);stop-opacity:0.1"/><stop offset="0.66" style="stop-color:rgb(163,159,159);stop-opacity:0.1"/><stop offset="0.85" style="stop-color:rgb(126,122,122);stop-opacity:0.1"/><stop offset="1" style="stop-color:rgb(96,96,96);stop-opacity:0.1"/></linearGradient>
        <linearGradient id="_Linear2" x1="0" y1="0" x2="1" y2="0" gradientUnits="userSpaceOnUse" gradientTransform="matrix(-1.2581,-23.8386,23.8386,-1.2581,810.819,106.072)"><stop offset="0" style="stop-color:rgb(144,215,246);stop-opacity:1"/><stop offset="0.15" style="stop-color:rgb(172,224,248);stop-opacity:1"/><stop offset="0.39" style="stop-color:rgb(207,237,251);stop-opacity:1"/><stop offset="0.61" style="stop-color:rgb(232,246,253);stop-opacity:1"/><stop offset="0.82" style="stop-color:rgb(247,252,254);stop-opacity:1"/><stop offset="1" style="stop-color:white;stop-opacity:1"/></linearGradient>
        <linearGradient id="_Linear3" x1="0" y1="0" x2="1" y2="0" gradientUnits="userSpaceOnUse" gradientTransform="matrix(5.03227,-6.18969,6.18969,5.03227,805.058,92.386)"><stop offset="0" style="stop-color:white;stop-opacity:0"/><stop offset="1" style="stop-color:white;stop-opacity:1"/></linearGradient>
        <linearGradient id="_Linear4" x1="0" y1="0" x2="1" y2="0" gradientUnits="userSpaceOnUse" gradientTransform="matrix(34.1078,27.0853,-27.0853,34.1078,504.95,250.555)"><stop offset="0" style="stop-color:white;stop-opacity:0.1"/><stop offset="0.14" style="stop-color:rgb(244,243,243);stop-opacity:0.1"/><stop offset="0.3" style="stop-color:rgb(224,222,222);stop-opacity:0.1"/><stop offset="0.48" style="stop-color:rgb(197,194,194);stop-opacity:0.1"/><stop offset="0.66" style="stop-color:rgb(163,159,159);stop-opacity:0.1"/><stop offset="0.85" style="stop-color:rgb(126,122,122);stop-opacity:0.1"/><stop offset="1" style="stop-color:rgb(96,96,96);stop-opacity:0.1"/></linearGradient>
        <linearGradient id="_Linear5" x1="0" y1="0" x2="1" y2="0" gradientUnits="userSpaceOnUse" gradientTransform="matrix(-7.88336,1.22079,-1.22079,-7.88336,531.207,249.309)"><stop offset="0" style="stop-color:white;stop-opacity:0"/><stop offset="1" style="stop-color:white;stop-opacity:1"/></linearGradient>
        <linearGradient id="_Linear6" x1="0" y1="0" x2="1" y2="0" gradientUnits="userSpaceOnUse" gradientTransform="matrix(-17.3337,39.9546,-39.9546,-17.3337,851.386,163.48)"><stop offset="0" style="stop-color:white;stop-opacity:0.1"/><stop offset="0.14" style="stop-color:rgb(244,243,243);stop-opacity:0.1"/><stop offset="0.3" style="stop-color:rgb(224,222,222);stop-opacity:0.1"/><stop offset="0.48" style="stop-color:rgb(197,194,194);stop-opacity:0.1"/><stop offset="0.66" style="stop-color:rgb(163,159,159);stop-opacity:0.1"/><stop offset="0.85" style="stop-color:rgb(126,122,122);stop-opacity:0.1"/><stop offset="1" style="stop-color:rgb(96,96,96);stop-opacity:0.1"/></linearGradient>
        <linearGradient id="_Linear7" x1="0" y1="0" x2="1" y2="0" gradientUnits="userSpaceOnUse" gradientTransform="matrix(7.53002,-2.63496,2.63496,7.53002,827.681,174.773)"><stop offset="0" style="stop-color:white;stop-opacity:0"/><stop offset="1" style="stop-color:white;stop-opacity:1"/></linearGradient>
        <linearGradient id="_Linear8" x1="0" y1="0" x2="1" y2="0" gradientUnits="userSpaceOnUse" gradientTransform="matrix(-35.1242,25.7527,-25.7527,-35.1242,836.6,255.913)"><stop offset="0" style="stop-color:white;stop-opacity:0.1"/><stop offset="0.14" style="stop-color:rgb(244,243,243);stop-opacity:0.1"/><stop offset="0.3" style="stop-color:rgb(224,222,222);stop-opacity:0.1"/><stop offset="0.48" style="stop-color:rgb(197,194,194);stop-opacity:0.1"/><stop offset="0.66" style="stop-color:rgb(163,159,159);stop-opacity:0.1"/><stop offset="0.85" style="stop-color:rgb(126,122,122);stop-opacity:0.1"/><stop offset="1" style="stop-color:rgb(96,96,96);stop-opacity:0.1"/></linearGradient>
        <linearGradient id="_Linear9" x1="0" y1="0" x2="1" y2="0" gradientUnits="userSpaceOnUse" gradientTransform="matrix(-1.1862,-22.4768,22.4768,-1.1862,809.357,269.094)"><stop offset="0" style="stop-color:rgb(144,215,246);stop-opacity:1"/><stop offset="0.15" style="stop-color:rgb(172,224,248);stop-opacity:1"/><stop offset="0.39" style="stop-color:rgb(207,237,251);stop-opacity:1"/><stop offset="0.61" style="stop-color:rgb(232,246,253);stop-opacity:1"/><stop offset="0.82" style="stop-color:rgb(247,252,254);stop-opacity:1"/><stop offset="1" style="stop-color:white;stop-opacity:1"/></linearGradient>
        <linearGradient id="_Linear10" x1="0" y1="0" x2="1" y2="0" gradientUnits="userSpaceOnUse" gradientTransform="matrix(7.83167,1.52381,-1.52381,7.83167,810.426,253.68)"><stop offset="0" style="stop-color:white;stop-opacity:0"/><stop offset="1" style="stop-color:white;stop-opacity:1"/></linearGradient>
        <linearGradient id="_Linear11" x1="0" y1="0" x2="1" y2="0" gradientUnits="userSpaceOnUse" gradientTransform="matrix(-43.2906,4.77772,-4.77772,-43.2906,778.074,327.592)"><stop offset="0" style="stop-color:white;stop-opacity:0.1"/><stop offset="0.14" style="stop-color:rgb(244,243,243);stop-opacity:0.1"/><stop offset="0.3" style="stop-color:rgb(224,222,222);stop-opacity:0.1"/><stop offset="0.48" style="stop-color:rgb(197,194,194);stop-opacity:0.1"/><stop offset="0.66" style="stop-color:rgb(163,159,159);stop-opacity:0.1"/><stop offset="0.85" style="stop-color:rgb(126,122,122);stop-opacity:0.1"/><stop offset="1" style="stop-color:rgb(96,96,96);stop-opacity:0.1"/></linearGradient>
        <linearGradient id="_Linear12" x1="0" y1="0" x2="1" y2="0" gradientUnits="userSpaceOnUse" gradientTransform="matrix(6.02503,5.23022,-5.23022,6.02503,756.51,312.605)"><stop offset="0" style="stop-color:white;stop-opacity:0"/><stop offset="1" style="stop-color:white;stop-opacity:1"/></linearGradient>
        <linearGradient id="_Linear13" x1="0" y1="0" x2="1" y2="0" gradientUnits="userSpaceOnUse" gradientTransform="matrix(-39.9544,-17.3336,17.3336,-39.9544,692.254,360.409)"><stop offset="0" style="stop-color:white;stop-opacity:0.1"/><stop offset="0.14" style="stop-color:rgb(244,243,243);stop-opacity:0.1"/><stop offset="0.3" style="stop-color:rgb(224,222,222);stop-opacity:0.1"/><stop offset="0.48" style="stop-color:rgb(197,194,194);stop-opacity:0.1"/><stop offset="0.66" style="stop-color:rgb(163,159,159);stop-opacity:0.1"/><stop offset="0.85" style="stop-color:rgb(126,122,122);stop-opacity:0.1"/><stop offset="1" style="stop-color:rgb(96,96,96);stop-opacity:0.1"/></linearGradient>
        <linearGradient id="_Linear14" x1="0" y1="0" x2="1" y2="0" gradientUnits="userSpaceOnUse" gradientTransform="matrix(2.63516,7.53069,-7.53069,2.63516,680.905,336.716)"><stop offset="0" style="stop-color:white;stop-opacity:0"/><stop offset="1" style="stop-color:white;stop-opacity:1"/></linearGradient>
    </defs>
</svg>
