<?xml version="1.0" encoding="UTF-8" standalone="no"?>
<!DOCTYPE svg PUBLIC "-//W3C//DTD SVG 1.1//EN" "http://www.w3.org/Graphics/SVG/1.1/DTD/svg11.dtd">
<svg width="100%" height="100%" viewBox="0 0 390 189" version="1.1" xmlns="http://www.w3.org/2000/svg" xmlns:xlink="http://www.w3.org/1999/xlink" xml:space="preserve" xmlns:serif="http://www.serif.com/" style="fill-rule:evenodd;clip-rule:evenodd;stroke-miterlimit:10;">
    <g transform="matrix(1,0,0,1,-653.905,-19.6545)">
        <g>
            <g id="Panel_04">
                <g transform="matrix(0.9871,0.1602,-0.1602,0.9871,26.6608,-124.915)">
                    <rect x="786.667" y="62.31" width="3" height="81.214" style="fill:none;stroke:rgb(47,104,135);stroke-width:1px;"/>
                </g>
                <g>
                    <path d="M790.884,96.053L797.147,108.087L783.643,139.96" style="fill:none;fill-rule:nonzero;stroke:rgb(47,104,135);stroke-width:1px;"/>
                    <path d="M785.091,131.068L793.853,108.246L789.899,100.658" style="fill:none;fill-rule:nonzero;stroke:rgb(47,104,135);stroke-width:1px;"/>
                </g>
                <path d="M781.668,134.339L779.5,133.75L782.75,126.75" style="fill:none;fill-rule:nonzero;stroke:rgb(47,104,135);stroke-width:1px;"/>
                <path d="M796.833,109.667L799.833,110.833L789,136.333L784.351,135.069" style="fill:none;fill-rule:nonzero;stroke:rgb(47,104,135);stroke-width:1px;"/>
                <path d="M781.492,136.249L779.656,135.781L779.323,133.948" style="fill:none;fill-rule:nonzero;stroke:rgb(47,104,135);stroke-width:1px;"/>
                <path d="M799.962,110.648L800.5,112.667L789.667,138.333L784.068,136.906" style="fill:none;fill-rule:nonzero;stroke:rgb(47,104,135);stroke-width:1px;"/>
                <path d="M789,136.333L789.667,138.333" style="fill:none;fill-rule:nonzero;stroke:rgb(47,104,135);stroke-width:1px;"/>
                <path d="M791.712,91.332C818.106,92.681 839,110.541 839,132.375C839,155.088 816.39,173.5 788.5,173.5C760.61,173.5 738,155.088 738,132.375C738,109.662 760.61,91.25 788.5,91.25" style="fill:none;fill-rule:nonzero;stroke:rgb(47,104,135);stroke-width:1px;"/>
                <path d="M838.938,134.141C838.938,156.854 815.891,175.25 788,175.25C760.109,175.25 738.034,156.597 738.034,133.884" style="fill:none;fill-rule:nonzero;stroke:rgb(47,104,135);stroke-width:1px;"/>
                <path d="M788.5,86C788.5,86 780.75,83.25 780,82.75C779.25,82.25 772.5,81.25 771.5,81.25C770.5,81.25 766.25,82.5 763.5,83C760.75,83.5 758.25,83.5 756.25,83.5C754.25,83.5 751.75,82.75 748.25,83C744.75,83.25 741,86.75 741,87.75C741,88.75 736.25,105.25 735.5,105.25C734.75,105.25 731.25,118.5 730.75,122.5C730.25,126.5 725.5,143.25 724.75,146.25C724,149.25 720.5,167.25 720.5,172.5C720.5,177.75 719.25,181 720.75,183.75C722.25,186.5 723,186.5 727.25,186.5C731.5,186.5 734,188 739.75,188C745.5,188 753,189 759,187.75C765,186.5 779.5,190 782.75,190C786,190 791.5,190.5 800.5,190.5C809.5,190.5 829.25,190.75 832.5,191.5C835.75,192.25 850.25,191 851,189C851.75,187 851.5,186.75 851.75,183.5C852,180.25 852.25,175 852.75,170.25C853.25,165.5 852.5,168.25 852.5,159.5C852.5,150.75 850.75,143.5 850.5,136C850.25,128.5 852.5,116.75 851.25,111.75C850,106.75 850.75,105 846.25,101.5C841.75,98 822.5,91.75 814,91C805.5,90.25 801.25,86.25 798.75,86.5C796.25,86.75 792.25,87.25 792.25,87.25" style="fill:none;fill-rule:nonzero;stroke:rgb(47,104,135);stroke-width:1px;"/>
                <path d="M792,72.25C790.25,71.75 784.75,72.25 778.75,71.25C772.75,70.25 773.75,69.25 763.75,69.25C753.75,69.25 755,69.5 751,70.5C747,71.5 742,77.5 737.75,80.5C733.5,83.5 732.25,82 727.5,83.75C722.75,85.5 708.75,91.75 708.75,91.75L697.75,97.25" style="fill:none;fill-rule:nonzero;stroke:rgb(47,104,135);stroke-width:1px;"/>
                <path d="M794.5,73C794.5,73 810.25,72 813,71.25" style="fill:none;fill-rule:nonzero;stroke:rgb(47,104,135);stroke-width:1px;"/>
                <g>
                    <g>
                        <clipPath id="_clip1">
                            <path d="M789.333,138.333L791.517,133.159L823.333,103L820.333,100.333L816,103L816.667,98.667L811.333,96.333L795,104L794.971,104.547L790.55,96.053L789.566,100.658L793.519,108.246L784.758,131.068L784.15,134.799L784.018,135.069L784.103,135.092L783.31,139.96L785.241,135.402L788.486,136.284L789.333,138.333Z"/>
                        </clipPath>
                        <g clip-path="url(#_clip1)">
                            <path d="M656.417,22.167L816.583,182.333" style="fill:none;fill-rule:nonzero;stroke:rgb(47,104,135);stroke-width:0.5px;"/>
                            <path d="M659.291,22.167L819.458,182.333" style="fill:none;fill-rule:nonzero;stroke:rgb(47,104,135);stroke-width:0.5px;"/>
                            <path d="M662.165,22.167L822.332,182.333" style="fill:none;fill-rule:nonzero;stroke:rgb(47,104,135);stroke-width:0.5px;"/>
                            <path d="M665.04,22.167L825.206,182.333" style="fill:none;fill-rule:nonzero;stroke:rgb(47,104,135);stroke-width:0.5px;"/>
                            <path d="M667.914,22.167L828.081,182.333" style="fill:none;fill-rule:nonzero;stroke:rgb(47,104,135);stroke-width:0.5px;"/>
                            <path d="M670.788,22.167L830.955,182.333" style="fill:none;fill-rule:nonzero;stroke:rgb(47,104,135);stroke-width:0.5px;"/>
                            <path d="M673.663,22.167L833.829,182.333" style="fill:none;fill-rule:nonzero;stroke:rgb(47,104,135);stroke-width:0.5px;"/>
                            <path d="M676.537,22.167L836.704,182.333" style="fill:none;fill-rule:nonzero;stroke:rgb(47,104,135);stroke-width:0.5px;"/>
                            <path d="M679.411,22.167L839.578,182.333" style="fill:none;fill-rule:nonzero;stroke:rgb(47,104,135);stroke-width:0.5px;"/>
                            <path d="M682.286,22.167L842.452,182.333" style="fill:none;fill-rule:nonzero;stroke:rgb(47,104,135);stroke-width:0.5px;"/>
                            <path d="M685.16,22.167L845.326,182.333" style="fill:none;fill-rule:nonzero;stroke:rgb(47,104,135);stroke-width:0.5px;"/>
                            <path d="M688.034,22.167L848.201,182.333" style="fill:none;fill-rule:nonzero;stroke:rgb(47,104,135);stroke-width:0.5px;"/>
                            <path d="M690.908,22.167L851.075,182.333" style="fill:none;fill-rule:nonzero;stroke:rgb(47,104,135);stroke-width:0.5px;"/>
                            <path d="M693.783,22.167L853.949,182.333" style="fill:none;fill-rule:nonzero;stroke:rgb(47,104,135);stroke-width:0.5px;"/>
                            <path d="M696.657,22.167L856.824,182.333" style="fill:none;fill-rule:nonzero;stroke:rgb(47,104,135);stroke-width:0.5px;"/>
                            <path d="M699.531,22.167L859.698,182.333" style="fill:none;fill-rule:nonzero;stroke:rgb(47,104,135);stroke-width:0.5px;"/>
                            <path d="M702.406,22.167L862.572,182.333" style="fill:none;fill-rule:nonzero;stroke:rgb(47,104,135);stroke-width:0.5px;"/>
                            <path d="M705.28,22.167L865.447,182.333" style="fill:none;fill-rule:nonzero;stroke:rgb(47,104,135);stroke-width:0.5px;"/>
                            <path d="M708.154,22.167L868.321,182.333" style="fill:none;fill-rule:nonzero;stroke:rgb(47,104,135);stroke-width:0.5px;"/>
                            <path d="M711.029,22.167L871.195,182.333" style="fill:none;fill-rule:nonzero;stroke:rgb(47,104,135);stroke-width:0.5px;"/>
                            <path d="M713.903,22.167L874.07,182.333" style="fill:none;fill-rule:nonzero;stroke:rgb(47,104,135);stroke-width:0.5px;"/>
                            <path d="M716.777,22.167L876.944,182.333" style="fill:none;fill-rule:nonzero;stroke:rgb(47,104,135);stroke-width:0.5px;"/>
                            <path d="M719.652,22.167L879.818,182.333" style="fill:none;fill-rule:nonzero;stroke:rgb(47,104,135);stroke-width:0.5px;"/>
                            <path d="M722.526,22.167L882.693,182.333" style="fill:none;fill-rule:nonzero;stroke:rgb(47,104,135);stroke-width:0.5px;"/>
                            <path d="M725.4,22.167L885.567,182.333" style="fill:none;fill-rule:nonzero;stroke:rgb(47,104,135);stroke-width:0.5px;"/>
                            <path d="M728.275,22.167L888.441,182.333" style="fill:none;fill-rule:nonzero;stroke:rgb(47,104,135);stroke-width:0.5px;"/>
                            <path d="M731.149,22.167L891.316,182.333" style="fill:none;fill-rule:nonzero;stroke:rgb(47,104,135);stroke-width:0.5px;"/>
                            <path d="M734.023,22.167L894.19,182.333" style="fill:none;fill-rule:nonzero;stroke:rgb(47,104,135);stroke-width:0.5px;"/>
                            <path d="M736.898,22.167L897.064,182.333" style="fill:none;fill-rule:nonzero;stroke:rgb(47,104,135);stroke-width:0.5px;"/>
                            <path d="M739.772,22.167L899.939,182.333" style="fill:none;fill-rule:nonzero;stroke:rgb(47,104,135);stroke-width:0.5px;"/>
                            <path d="M742.646,22.167L902.813,182.333" style="fill:none;fill-rule:nonzero;stroke:rgb(47,104,135);stroke-width:0.5px;"/>
                            <path d="M745.521,22.167L905.687,182.333" style="fill:none;fill-rule:nonzero;stroke:rgb(47,104,135);stroke-width:0.5px;"/>
                            <path d="M748.395,22.167L908.561,182.333" style="fill:none;fill-rule:nonzero;stroke:rgb(47,104,135);stroke-width:0.5px;"/>
                            <path d="M751.269,22.167L911.436,182.333" style="fill:none;fill-rule:nonzero;stroke:rgb(47,104,135);stroke-width:0.5px;"/>
                            <path d="M754.143,22.167L914.31,182.333" style="fill:none;fill-rule:nonzero;stroke:rgb(47,104,135);stroke-width:0.5px;"/>
                            <path d="M757.018,22.167L917.184,182.333" style="fill:none;fill-rule:nonzero;stroke:rgb(47,104,135);stroke-width:0.5px;"/>
                            <path d="M759.892,22.167L920.059,182.333" style="fill:none;fill-rule:nonzero;stroke:rgb(47,104,135);stroke-width:0.5px;"/>
                            <path d="M762.766,22.167L922.933,182.333" style="fill:none;fill-rule:nonzero;stroke:rgb(47,104,135);stroke-width:0.5px;"/>
                            <path d="M765.641,22.167L925.807,182.333" style="fill:none;fill-rule:nonzero;stroke:rgb(47,104,135);stroke-width:0.5px;"/>
                            <path d="M768.515,22.167L928.682,182.333" style="fill:none;fill-rule:nonzero;stroke:rgb(47,104,135);stroke-width:0.5px;"/>
                            <path d="M771.389,22.167L931.556,182.333" style="fill:none;fill-rule:nonzero;stroke:rgb(47,104,135);stroke-width:0.5px;"/>
                            <path d="M774.264,22.167L934.43,182.333" style="fill:none;fill-rule:nonzero;stroke:rgb(47,104,135);stroke-width:0.5px;"/>
                            <path d="M777.138,22.167L937.305,182.333" style="fill:none;fill-rule:nonzero;stroke:rgb(47,104,135);stroke-width:0.5px;"/>
                            <path d="M780.012,22.167L940.179,182.333" style="fill:none;fill-rule:nonzero;stroke:rgb(47,104,135);stroke-width:0.5px;"/>
                            <path d="M782.887,22.167L943.053,182.333" style="fill:none;fill-rule:nonzero;stroke:rgb(47,104,135);stroke-width:0.5px;"/>
                            <path d="M785.761,22.167L945.928,182.333" style="fill:none;fill-rule:nonzero;stroke:rgb(47,104,135);stroke-width:0.5px;"/>
                            <path d="M788.635,22.167L948.802,182.333" style="fill:none;fill-rule:nonzero;stroke:rgb(47,104,135);stroke-width:0.5px;"/>
                            <path d="M791.51,22.167L951.676,182.333" style="fill:none;fill-rule:nonzero;stroke:rgb(47,104,135);stroke-width:0.5px;"/>
                            <path d="M794.384,22.167L954.551,182.333" style="fill:none;fill-rule:nonzero;stroke:rgb(47,104,135);stroke-width:0.5px;"/>
                            <path d="M797.258,22.167L957.425,182.333" style="fill:none;fill-rule:nonzero;stroke:rgb(47,104,135);stroke-width:0.5px;"/>
                            <path d="M800.133,22.167L960.299,182.333" style="fill:none;fill-rule:nonzero;stroke:rgb(47,104,135);stroke-width:0.5px;"/>
                            <path d="M803.007,22.167L963.173,182.333" style="fill:none;fill-rule:nonzero;stroke:rgb(47,104,135);stroke-width:0.5px;"/>
                            <path d="M805.881,22.167L966.048,182.333" style="fill:none;fill-rule:nonzero;stroke:rgb(47,104,135);stroke-width:0.5px;"/>
                            <path d="M808.755,22.167L968.922,182.333" style="fill:none;fill-rule:nonzero;stroke:rgb(47,104,135);stroke-width:0.5px;"/>
                            <path d="M811.63,22.167L971.796,182.333" style="fill:none;fill-rule:nonzero;stroke:rgb(47,104,135);stroke-width:0.5px;"/>
                            <path d="M814.504,22.167L974.671,182.333" style="fill:none;fill-rule:nonzero;stroke:rgb(47,104,135);stroke-width:0.5px;"/>
                            <path d="M817.378,22.167L977.545,182.333" style="fill:none;fill-rule:nonzero;stroke:rgb(47,104,135);stroke-width:0.5px;"/>
                            <path d="M820.253,22.167L980.419,182.333" style="fill:none;fill-rule:nonzero;stroke:rgb(47,104,135);stroke-width:0.5px;"/>
                            <path d="M823.127,22.167L983.294,182.333" style="fill:none;fill-rule:nonzero;stroke:rgb(47,104,135);stroke-width:0.5px;"/>
                            <path d="M826.001,22.167L986.168,182.333" style="fill:none;fill-rule:nonzero;stroke:rgb(47,104,135);stroke-width:0.5px;"/>
                            <path d="M828.876,22.167L989.042,182.333" style="fill:none;fill-rule:nonzero;stroke:rgb(47,104,135);stroke-width:0.5px;"/>
                            <path d="M831.75,22.167L991.917,182.333" style="fill:none;fill-rule:nonzero;stroke:rgb(47,104,135);stroke-width:0.5px;"/>
                        </g>
                    </g>
                </g>
                <g>
                    <g>
                        <g>
                            <clipPath id="_clip2">
                                <path d="M884.305,56.246L884.161,55.049C884.161,55.049 878.333,55.982 875,55.982C871.667,55.982 869,57.315 865,59.982C861,62.649 860,70.315 854,70.315C848,70.315 836.333,68.315 836.333,68.315L833,69.482L829.667,68.315L824.334,72.315L821.667,70.315L810,71.649L793.537,79.151L791.565,91.311L791.712,91.315C818.106,92.663 839,110.523 839,132.357C839,135.005 838.681,137.59 838.094,140.099L839.334,140.649C839.334,140.649 845.001,140.982 847.334,142.982C849.667,144.982 852.501,159.482 852.501,159.482L851.668,186.982C851.668,186.982 861.335,171.315 861.335,169.649C861.335,167.982 867.668,163.982 869.335,163.649C871.002,163.316 880.335,172.316 881.668,173.649C883.001,174.982 884.426,176.317 884.426,176.317L884.305,56.246Z"/>
                            </clipPath>
                            <g clip-path="url(#_clip2)">
                                <path d="M705.333,45.815L865.5,205.982" style="fill:none;fill-rule:nonzero;stroke:rgb(47,104,135);stroke-width:0.5px;"/>
                                <path d="M708.208,45.815L868.374,205.982" style="fill:none;fill-rule:nonzero;stroke:rgb(47,104,135);stroke-width:0.5px;"/>
                                <path d="M711.082,45.815L871.249,205.982" style="fill:none;fill-rule:nonzero;stroke:rgb(47,104,135);stroke-width:0.5px;"/>
                                <path d="M713.956,45.815L874.123,205.982" style="fill:none;fill-rule:nonzero;stroke:rgb(47,104,135);stroke-width:0.5px;"/>
                                <path d="M716.831,45.815L876.997,205.982" style="fill:none;fill-rule:nonzero;stroke:rgb(47,104,135);stroke-width:0.5px;"/>
                                <path d="M719.705,45.815L879.872,205.982" style="fill:none;fill-rule:nonzero;stroke:rgb(47,104,135);stroke-width:0.5px;"/>
                                <path d="M722.579,45.815L882.746,205.982" style="fill:none;fill-rule:nonzero;stroke:rgb(47,104,135);stroke-width:0.5px;"/>
                                <path d="M725.454,45.815L885.62,205.982" style="fill:none;fill-rule:nonzero;stroke:rgb(47,104,135);stroke-width:0.5px;"/>
                                <path d="M728.328,45.815L888.495,205.982" style="fill:none;fill-rule:nonzero;stroke:rgb(47,104,135);stroke-width:0.5px;"/>
                                <path d="M731.202,45.815L891.369,205.982" style="fill:none;fill-rule:nonzero;stroke:rgb(47,104,135);stroke-width:0.5px;"/>
                                <path d="M734.076,45.815L894.243,205.982" style="fill:none;fill-rule:nonzero;stroke:rgb(47,104,135);stroke-width:0.5px;"/>
                                <path d="M736.951,45.815L897.117,205.982" style="fill:none;fill-rule:nonzero;stroke:rgb(47,104,135);stroke-width:0.5px;"/>
                                <path d="M739.825,45.815L899.992,205.982" style="fill:none;fill-rule:nonzero;stroke:rgb(47,104,135);stroke-width:0.5px;"/>
                                <path d="M742.699,45.815L902.866,205.982" style="fill:none;fill-rule:nonzero;stroke:rgb(47,104,135);stroke-width:0.5px;"/>
                                <path d="M745.574,45.815L905.74,205.982" style="fill:none;fill-rule:nonzero;stroke:rgb(47,104,135);stroke-width:0.5px;"/>
                                <path d="M748.448,45.815L908.615,205.982" style="fill:none;fill-rule:nonzero;stroke:rgb(47,104,135);stroke-width:0.5px;"/>
                                <path d="M751.322,45.815L911.489,205.982" style="fill:none;fill-rule:nonzero;stroke:rgb(47,104,135);stroke-width:0.5px;"/>
                                <path d="M754.197,45.815L914.363,205.982" style="fill:none;fill-rule:nonzero;stroke:rgb(47,104,135);stroke-width:0.5px;"/>
                                <path d="M757.071,45.815L917.238,205.982" style="fill:none;fill-rule:nonzero;stroke:rgb(47,104,135);stroke-width:0.5px;"/>
                                <path d="M759.945,45.815L920.112,205.982" style="fill:none;fill-rule:nonzero;stroke:rgb(47,104,135);stroke-width:0.5px;"/>
                                <path d="M762.82,45.815L922.986,205.982" style="fill:none;fill-rule:nonzero;stroke:rgb(47,104,135);stroke-width:0.5px;"/>
                                <path d="M765.694,45.815L925.861,205.982" style="fill:none;fill-rule:nonzero;stroke:rgb(47,104,135);stroke-width:0.5px;"/>
                                <path d="M768.568,45.815L928.735,205.982" style="fill:none;fill-rule:nonzero;stroke:rgb(47,104,135);stroke-width:0.5px;"/>
                                <path d="M771.443,45.815L931.609,205.982" style="fill:none;fill-rule:nonzero;stroke:rgb(47,104,135);stroke-width:0.5px;"/>
                                <path d="M774.317,45.815L934.484,205.982" style="fill:none;fill-rule:nonzero;stroke:rgb(47,104,135);stroke-width:0.5px;"/>
                                <path d="M777.191,45.815L937.358,205.982" style="fill:none;fill-rule:nonzero;stroke:rgb(47,104,135);stroke-width:0.5px;"/>
                                <path d="M780.066,45.815L940.232,205.982" style="fill:none;fill-rule:nonzero;stroke:rgb(47,104,135);stroke-width:0.5px;"/>
                                <path d="M782.94,45.815L943.107,205.982" style="fill:none;fill-rule:nonzero;stroke:rgb(47,104,135);stroke-width:0.5px;"/>
                                <path d="M785.814,45.815L945.981,205.982" style="fill:none;fill-rule:nonzero;stroke:rgb(47,104,135);stroke-width:0.5px;"/>
                                <path d="M788.689,45.815L948.855,205.982" style="fill:none;fill-rule:nonzero;stroke:rgb(47,104,135);stroke-width:0.5px;"/>
                                <path d="M791.563,45.815L951.729,205.982" style="fill:none;fill-rule:nonzero;stroke:rgb(47,104,135);stroke-width:0.5px;"/>
                                <path d="M794.437,45.815L954.604,205.982" style="fill:none;fill-rule:nonzero;stroke:rgb(47,104,135);stroke-width:0.5px;"/>
                                <path d="M797.311,45.815L957.478,205.982" style="fill:none;fill-rule:nonzero;stroke:rgb(47,104,135);stroke-width:0.5px;"/>
                                <path d="M800.186,45.815L960.352,205.982" style="fill:none;fill-rule:nonzero;stroke:rgb(47,104,135);stroke-width:0.5px;"/>
                                <path d="M803.06,45.815L963.227,205.982" style="fill:none;fill-rule:nonzero;stroke:rgb(47,104,135);stroke-width:0.5px;"/>
                                <path d="M805.934,45.815L966.101,205.982" style="fill:none;fill-rule:nonzero;stroke:rgb(47,104,135);stroke-width:0.5px;"/>
                                <path d="M808.809,45.815L968.975,205.982" style="fill:none;fill-rule:nonzero;stroke:rgb(47,104,135);stroke-width:0.5px;"/>
                                <path d="M811.683,45.815L971.85,205.982" style="fill:none;fill-rule:nonzero;stroke:rgb(47,104,135);stroke-width:0.5px;"/>
                                <path d="M814.557,45.815L974.724,205.982" style="fill:none;fill-rule:nonzero;stroke:rgb(47,104,135);stroke-width:0.5px;"/>
                                <path d="M817.432,45.815L977.598,205.982" style="fill:none;fill-rule:nonzero;stroke:rgb(47,104,135);stroke-width:0.5px;"/>
                                <path d="M820.306,45.815L980.473,205.982" style="fill:none;fill-rule:nonzero;stroke:rgb(47,104,135);stroke-width:0.5px;"/>
                                <path d="M823.18,45.815L983.347,205.982" style="fill:none;fill-rule:nonzero;stroke:rgb(47,104,135);stroke-width:0.5px;"/>
                                <path d="M826.055,45.815L986.221,205.982" style="fill:none;fill-rule:nonzero;stroke:rgb(47,104,135);stroke-width:0.5px;"/>
                                <path d="M828.929,45.815L989.096,205.982" style="fill:none;fill-rule:nonzero;stroke:rgb(47,104,135);stroke-width:0.5px;"/>
                                <path d="M831.803,45.815L991.97,205.982" style="fill:none;fill-rule:nonzero;stroke:rgb(47,104,135);stroke-width:0.5px;"/>
                                <path d="M834.678,45.815L994.844,205.982" style="fill:none;fill-rule:nonzero;stroke:rgb(47,104,135);stroke-width:0.5px;"/>
                                <path d="M837.552,45.815L997.719,205.982" style="fill:none;fill-rule:nonzero;stroke:rgb(47,104,135);stroke-width:0.5px;"/>
                                <path d="M840.426,45.815L1000.59,205.982" style="fill:none;fill-rule:nonzero;stroke:rgb(47,104,135);stroke-width:0.5px;"/>
                                <path d="M843.301,45.815L1003.47,205.982" style="fill:none;fill-rule:nonzero;stroke:rgb(47,104,135);stroke-width:0.5px;"/>
                                <path d="M846.175,45.815L1006.34,205.982" style="fill:none;fill-rule:nonzero;stroke:rgb(47,104,135);stroke-width:0.5px;"/>
                                <path d="M849.049,45.815L1009.22,205.982" style="fill:none;fill-rule:nonzero;stroke:rgb(47,104,135);stroke-width:0.5px;"/>
                                <path d="M851.924,45.815L1012.09,205.982" style="fill:none;fill-rule:nonzero;stroke:rgb(47,104,135);stroke-width:0.5px;"/>
                                <path d="M854.798,45.815L1014.96,205.982" style="fill:none;fill-rule:nonzero;stroke:rgb(47,104,135);stroke-width:0.5px;"/>
                                <path d="M857.672,45.815L1017.84,205.982" style="fill:none;fill-rule:nonzero;stroke:rgb(47,104,135);stroke-width:0.5px;"/>
                                <path d="M860.546,45.815L1020.71,205.982" style="fill:none;fill-rule:nonzero;stroke:rgb(47,104,135);stroke-width:0.5px;"/>
                                <path d="M863.421,45.815L1023.59,205.982" style="fill:none;fill-rule:nonzero;stroke:rgb(47,104,135);stroke-width:0.5px;"/>
                                <path d="M866.295,45.815L1026.46,205.982" style="fill:none;fill-rule:nonzero;stroke:rgb(47,104,135);stroke-width:0.5px;"/>
                                <path d="M869.169,45.815L1029.34,205.982" style="fill:none;fill-rule:nonzero;stroke:rgb(47,104,135);stroke-width:0.5px;"/>
                                <path d="M872.044,45.815L1032.21,205.982" style="fill:none;fill-rule:nonzero;stroke:rgb(47,104,135);stroke-width:0.5px;"/>
                                <path d="M874.918,45.815L1035.09,205.982" style="fill:none;fill-rule:nonzero;stroke:rgb(47,104,135);stroke-width:0.5px;"/>
                                <path d="M877.792,45.815L1037.96,205.982" style="fill:none;fill-rule:nonzero;stroke:rgb(47,104,135);stroke-width:0.5px;"/>
                                <path d="M880.667,45.815L1040.83,205.982" style="fill:none;fill-rule:nonzero;stroke:rgb(47,104,135);stroke-width:0.5px;"/>
                            </g>
                        </g>
                    </g>
                    <g>
                        <g>
                            <clipPath id="_clip3">
                                <path d="M788.539,91.233L790.256,80.646L783.667,83.649L762.191,97.25C769.854,93.434 778.86,91.232 788.5,91.232L788.539,91.233Z"/>
                            </clipPath>
                            <g clip-path="url(#_clip3)">
                                <path d="M705.333,45.815L865.5,205.982" style="fill:none;fill-rule:nonzero;stroke:rgb(47,104,135);stroke-width:0.5px;"/>
                                <path d="M708.208,45.815L868.374,205.982" style="fill:none;fill-rule:nonzero;stroke:rgb(47,104,135);stroke-width:0.5px;"/>
                                <path d="M711.082,45.815L871.249,205.982" style="fill:none;fill-rule:nonzero;stroke:rgb(47,104,135);stroke-width:0.5px;"/>
                                <path d="M713.956,45.815L874.123,205.982" style="fill:none;fill-rule:nonzero;stroke:rgb(47,104,135);stroke-width:0.5px;"/>
                                <path d="M716.831,45.815L876.997,205.982" style="fill:none;fill-rule:nonzero;stroke:rgb(47,104,135);stroke-width:0.5px;"/>
                                <path d="M719.705,45.815L879.872,205.982" style="fill:none;fill-rule:nonzero;stroke:rgb(47,104,135);stroke-width:0.5px;"/>
                                <path d="M722.579,45.815L882.746,205.982" style="fill:none;fill-rule:nonzero;stroke:rgb(47,104,135);stroke-width:0.5px;"/>
                                <path d="M725.454,45.815L885.62,205.982" style="fill:none;fill-rule:nonzero;stroke:rgb(47,104,135);stroke-width:0.5px;"/>
                                <path d="M728.328,45.815L888.495,205.982" style="fill:none;fill-rule:nonzero;stroke:rgb(47,104,135);stroke-width:0.5px;"/>
                                <path d="M731.202,45.815L891.369,205.982" style="fill:none;fill-rule:nonzero;stroke:rgb(47,104,135);stroke-width:0.5px;"/>
                                <path d="M734.076,45.815L894.243,205.982" style="fill:none;fill-rule:nonzero;stroke:rgb(47,104,135);stroke-width:0.5px;"/>
                                <path d="M736.951,45.815L897.117,205.982" style="fill:none;fill-rule:nonzero;stroke:rgb(47,104,135);stroke-width:0.5px;"/>
                                <path d="M739.825,45.815L899.992,205.982" style="fill:none;fill-rule:nonzero;stroke:rgb(47,104,135);stroke-width:0.5px;"/>
                                <path d="M742.699,45.815L902.866,205.982" style="fill:none;fill-rule:nonzero;stroke:rgb(47,104,135);stroke-width:0.5px;"/>
                                <path d="M745.574,45.815L905.74,205.982" style="fill:none;fill-rule:nonzero;stroke:rgb(47,104,135);stroke-width:0.5px;"/>
                                <path d="M748.448,45.815L908.615,205.982" style="fill:none;fill-rule:nonzero;stroke:rgb(47,104,135);stroke-width:0.5px;"/>
                                <path d="M751.322,45.815L911.489,205.982" style="fill:none;fill-rule:nonzero;stroke:rgb(47,104,135);stroke-width:0.5px;"/>
                                <path d="M754.197,45.815L914.363,205.982" style="fill:none;fill-rule:nonzero;stroke:rgb(47,104,135);stroke-width:0.5px;"/>
                                <path d="M757.071,45.815L917.238,205.982" style="fill:none;fill-rule:nonzero;stroke:rgb(47,104,135);stroke-width:0.5px;"/>
                                <path d="M759.945,45.815L920.112,205.982" style="fill:none;fill-rule:nonzero;stroke:rgb(47,104,135);stroke-width:0.5px;"/>
                                <path d="M762.82,45.815L922.986,205.982" style="fill:none;fill-rule:nonzero;stroke:rgb(47,104,135);stroke-width:0.5px;"/>
                                <path d="M765.694,45.815L925.861,205.982" style="fill:none;fill-rule:nonzero;stroke:rgb(47,104,135);stroke-width:0.5px;"/>
                                <path d="M768.568,45.815L928.735,205.982" style="fill:none;fill-rule:nonzero;stroke:rgb(47,104,135);stroke-width:0.5px;"/>
                                <path d="M771.443,45.815L931.609,205.982" style="fill:none;fill-rule:nonzero;stroke:rgb(47,104,135);stroke-width:0.5px;"/>
                                <path d="M774.317,45.815L934.484,205.982" style="fill:none;fill-rule:nonzero;stroke:rgb(47,104,135);stroke-width:0.5px;"/>
                                <path d="M777.191,45.815L937.358,205.982" style="fill:none;fill-rule:nonzero;stroke:rgb(47,104,135);stroke-width:0.5px;"/>
                                <path d="M780.066,45.815L940.232,205.982" style="fill:none;fill-rule:nonzero;stroke:rgb(47,104,135);stroke-width:0.5px;"/>
                                <path d="M782.94,45.815L943.107,205.982" style="fill:none;fill-rule:nonzero;stroke:rgb(47,104,135);stroke-width:0.5px;"/>
                                <path d="M785.814,45.815L945.981,205.982" style="fill:none;fill-rule:nonzero;stroke:rgb(47,104,135);stroke-width:0.5px;"/>
                                <path d="M788.689,45.815L948.855,205.982" style="fill:none;fill-rule:nonzero;stroke:rgb(47,104,135);stroke-width:0.5px;"/>
                                <path d="M791.563,45.815L951.729,205.982" style="fill:none;fill-rule:nonzero;stroke:rgb(47,104,135);stroke-width:0.5px;"/>
                                <path d="M794.437,45.815L954.604,205.982" style="fill:none;fill-rule:nonzero;stroke:rgb(47,104,135);stroke-width:0.5px;"/>
                                <path d="M797.311,45.815L957.478,205.982" style="fill:none;fill-rule:nonzero;stroke:rgb(47,104,135);stroke-width:0.5px;"/>
                                <path d="M800.186,45.815L960.352,205.982" style="fill:none;fill-rule:nonzero;stroke:rgb(47,104,135);stroke-width:0.5px;"/>
                                <path d="M803.06,45.815L963.227,205.982" style="fill:none;fill-rule:nonzero;stroke:rgb(47,104,135);stroke-width:0.5px;"/>
                                <path d="M805.934,45.815L966.101,205.982" style="fill:none;fill-rule:nonzero;stroke:rgb(47,104,135);stroke-width:0.5px;"/>
                                <path d="M808.809,45.815L968.975,205.982" style="fill:none;fill-rule:nonzero;stroke:rgb(47,104,135);stroke-width:0.5px;"/>
                                <path d="M811.683,45.815L971.85,205.982" style="fill:none;fill-rule:nonzero;stroke:rgb(47,104,135);stroke-width:0.5px;"/>
                                <path d="M814.557,45.815L974.724,205.982" style="fill:none;fill-rule:nonzero;stroke:rgb(47,104,135);stroke-width:0.5px;"/>
                                <path d="M817.432,45.815L977.598,205.982" style="fill:none;fill-rule:nonzero;stroke:rgb(47,104,135);stroke-width:0.5px;"/>
                                <path d="M820.306,45.815L980.473,205.982" style="fill:none;fill-rule:nonzero;stroke:rgb(47,104,135);stroke-width:0.5px;"/>
                                <path d="M823.18,45.815L983.347,205.982" style="fill:none;fill-rule:nonzero;stroke:rgb(47,104,135);stroke-width:0.5px;"/>
                                <path d="M826.055,45.815L986.221,205.982" style="fill:none;fill-rule:nonzero;stroke:rgb(47,104,135);stroke-width:0.5px;"/>
                                <path d="M828.929,45.815L989.096,205.982" style="fill:none;fill-rule:nonzero;stroke:rgb(47,104,135);stroke-width:0.5px;"/>
                                <path d="M831.803,45.815L991.97,205.982" style="fill:none;fill-rule:nonzero;stroke:rgb(47,104,135);stroke-width:0.5px;"/>
                                <path d="M834.678,45.815L994.844,205.982" style="fill:none;fill-rule:nonzero;stroke:rgb(47,104,135);stroke-width:0.5px;"/>
                                <path d="M837.552,45.815L997.719,205.982" style="fill:none;fill-rule:nonzero;stroke:rgb(47,104,135);stroke-width:0.5px;"/>
                                <path d="M840.426,45.815L1000.59,205.982" style="fill:none;fill-rule:nonzero;stroke:rgb(47,104,135);stroke-width:0.5px;"/>
                                <path d="M843.301,45.815L1003.47,205.982" style="fill:none;fill-rule:nonzero;stroke:rgb(47,104,135);stroke-width:0.5px;"/>
                                <path d="M846.175,45.815L1006.34,205.982" style="fill:none;fill-rule:nonzero;stroke:rgb(47,104,135);stroke-width:0.5px;"/>
                                <path d="M849.049,45.815L1009.22,205.982" style="fill:none;fill-rule:nonzero;stroke:rgb(47,104,135);stroke-width:0.5px;"/>
                                <path d="M851.924,45.815L1012.09,205.982" style="fill:none;fill-rule:nonzero;stroke:rgb(47,104,135);stroke-width:0.5px;"/>
                                <path d="M854.798,45.815L1014.96,205.982" style="fill:none;fill-rule:nonzero;stroke:rgb(47,104,135);stroke-width:0.5px;"/>
                                <path d="M857.672,45.815L1017.84,205.982" style="fill:none;fill-rule:nonzero;stroke:rgb(47,104,135);stroke-width:0.5px;"/>
                                <path d="M860.546,45.815L1020.71,205.982" style="fill:none;fill-rule:nonzero;stroke:rgb(47,104,135);stroke-width:0.5px;"/>
                                <path d="M863.421,45.815L1023.59,205.982" style="fill:none;fill-rule:nonzero;stroke:rgb(47,104,135);stroke-width:0.5px;"/>
                                <path d="M866.295,45.815L1026.46,205.982" style="fill:none;fill-rule:nonzero;stroke:rgb(47,104,135);stroke-width:0.5px;"/>
                                <path d="M869.169,45.815L1029.34,205.982" style="fill:none;fill-rule:nonzero;stroke:rgb(47,104,135);stroke-width:0.5px;"/>
                                <path d="M872.044,45.815L1032.21,205.982" style="fill:none;fill-rule:nonzero;stroke:rgb(47,104,135);stroke-width:0.5px;"/>
                                <path d="M874.918,45.815L1035.09,205.982" style="fill:none;fill-rule:nonzero;stroke:rgb(47,104,135);stroke-width:0.5px;"/>
                                <path d="M877.792,45.815L1037.96,205.982" style="fill:none;fill-rule:nonzero;stroke:rgb(47,104,135);stroke-width:0.5px;"/>
                                <path d="M880.667,45.815L1040.83,205.982" style="fill:none;fill-rule:nonzero;stroke:rgb(47,104,135);stroke-width:0.5px;"/>
                            </g>
                        </g>
                    </g>
                </g>
            </g>
            <g id="Panel_04_1_">
                <path d="M884.375,175.625C884.375,175.625 883,175 881.667,173.667C880.334,172.334 871,163.334 869.334,163.667C867.667,164 861.334,168 861.334,169.667C861.334,171.334 851.667,187 851.667,187L852.5,159.5C852.5,159.5 849.667,145 847.333,143C845,141 839.333,140.667 839.333,140.667" style="fill:none;fill-rule:nonzero;stroke:rgb(47,104,135);stroke-width:1px;"/>
                <path d="M793.708,79.091L810,71.667L821.667,70.334L824.334,72.334L829.667,68.334L833,69.5L836.333,68.333C836.333,68.333 848,70.333 854,70.333C860,70.333 861,62.666 865,60C869,57.334 871.667,56 875,56C878.333,56 884.333,55 884.333,55" style="fill:none;fill-rule:nonzero;stroke:rgb(47,104,135);stroke-width:1px;"/>
                <path d="M753.667,102.667L783.667,83.667L789.905,80.824" style="fill:none;fill-rule:nonzero;stroke:rgb(47,104,135);stroke-width:1px;"/>
                <path d="M791.667,133.333L823.667,103L820.667,100.333L816.333,103L817,98.667L811.667,96.333L795.333,104" style="fill:none;fill-rule:nonzero;stroke:rgb(47,104,135);stroke-width:1px;"/>
            </g>
        </g>
    </g>
</svg>
