<?xml version="1.0" encoding="UTF-8" standalone="no"?>
<!DOCTYPE svg PUBLIC "-//W3C//DTD SVG 1.1//EN" "http://www.w3.org/Graphics/SVG/1.1/DTD/svg11.dtd">
<svg width="100%" height="100%" viewBox="0 0 178 148" version="1.1" xmlns="http://www.w3.org/2000/svg" xmlns:xlink="http://www.w3.org/1999/xlink" xml:space="preserve" xmlns:serif="http://www.serif.com/" style="fill-rule:evenodd;clip-rule:evenodd;stroke-miterlimit:10;">
    <g transform="matrix(1,0,0,1,-470.475,-51.0845)">
        <g>
            <g id="Panel_03">
                <path d="M590.54,76.266C590.54,76.266 577.667,79 570,77.5C562.333,76 567,66.5 567,66.5C567,66.5 556.833,70.667 550.5,71C544.167,71.333 546.333,65.667 546.333,65.667C546.333,65.667 539.333,70.5 531.833,71.667C524.333,72.834 530.166,65.334 530.166,65.334C530.166,65.334 513.499,75.667 508.666,73.834C503.833,72.001 507.666,68.334 507.666,68.334C507.666,68.334 487.166,80.167 483.833,80.334C480.5,80.501 482.666,73.501 482.666,73.501L477,78.167" style="fill:none;fill-rule:nonzero;stroke:rgb(47,104,135);stroke-width:1px;"/>
                <path d="M586.153,151.507C590.555,151.438 593.833,151.5 593.833,151.5C593.833,151.5 585.166,149.167 590,145.5C594.834,141.833 610.333,140.833 610.333,140.833C610.333,140.833 601,137.666 603.833,135.333C606.666,133 617.5,129.333 617.5,129.333C617.5,129.333 608.5,126.333 614.167,123.833C619.834,121.333 625.334,119.666 627,116.5C622.333,112.667 625.667,108.667 627.833,107C630,107 634,105.833 634,105.833C634,105.833 632,105.5 631.333,104.166C630.666,102.833 637.833,102.333 637.833,102.333L637.666,100.666C637.666,100.666 638.166,99.666 643.166,98.333C638.499,97.166 635.333,90.333 634.333,90.333C633.333,90.333 629.333,89.666 629.333,89.666L627.5,87.833L617.5,88L617.167,87.167C617.167,87.167 609.5,86.5 607.667,85.334C605.834,84.167 607,84.334 606.834,82.001C603.834,81.834 596.787,80.034 596.787,80.034" style="fill:none;fill-rule:nonzero;stroke:rgb(47,104,135);stroke-width:1px;"/>
                <path d="M477,182.167L482.75,182.5C482.75,182.5 480.75,177 484.5,177C488.25,177 498.75,180.5 498.75,180.5C498.75,180.5 495.5,173.75 507,174.25L518.5,174.75C518.5,174.75 517,169.75 522,170C527,170.25 538,169 538,169C538,169 535.927,165.457 539.167,164.667C546,163 557.334,165.834 557.334,165.834C557.334,165.834 551.167,158.834 559.167,158.167C567.167,157.5 573,157 573,157C573,157 568.333,154.833 570.833,153C571.882,152.231 576.1,151.843 580.642,151.652" style="fill:none;fill-rule:nonzero;stroke:rgb(47,104,135);stroke-width:1px;"/>
                <path d="M598.165,99.192C612.353,96.199 625.954,94.199 637.254,94.097" style="fill:none;fill-rule:nonzero;stroke:rgb(47,104,135);stroke-width:1px;"/>
                <path d="M475.5,138.75C475.5,138.75 535.497,113.787 588.719,101.252" style="fill:none;fill-rule:nonzero;stroke:rgb(47,104,135);stroke-width:1px;"/>
                <path d="M495,131.25C495,131.25 494.5,83.5 505.5,70.5" style="fill:none;fill-rule:nonzero;stroke:rgb(47,104,135);stroke-width:1px;"/>
                <path d="M515,123.25C515,123.25 516,73 528.25,66.75" style="fill:none;fill-rule:nonzero;stroke:rgb(47,104,135);stroke-width:1px;"/>
                <path d="M536.25,116C536.25,116 538.417,73.583 546.333,65.667" style="fill:none;fill-rule:nonzero;stroke:rgb(47,104,135);stroke-width:1px;"/>
                <path d="M549,112.25C549,112.25 558.5,70.75 567,66.5" style="fill:none;fill-rule:nonzero;stroke:rgb(47,104,135);stroke-width:1px;"/>
                <path d="M572.594,105.217C572.594,105.217 579.25,79.75 590.25,76.5" style="fill:none;fill-rule:nonzero;stroke:rgb(47,104,135);stroke-width:1px;"/>
                <path d="M615.25,95.75C615.25,95.75 615.833,88.833 617.167,87.167" style="fill:none;fill-rule:nonzero;stroke:rgb(47,104,135);stroke-width:1px;"/>
                <path d="M486,134.5C486,134.5 556.167,162.917 557.333,165.833" style="fill:none;fill-rule:nonzero;stroke:rgb(47,104,135);stroke-width:1px;"/>
                <path d="M499.25,129.5C499.25,129.5 568.25,154.75 571.25,156.5" style="fill:none;fill-rule:nonzero;stroke:rgb(47,104,135);stroke-width:1px;"/>
                <path d="M518.25,122.5L580.625,148.147" style="fill:none;fill-rule:nonzero;stroke:rgb(47,104,135);stroke-width:1px;"/>
                <path d="M589.08,134.583C597.553,137.563 605.26,139.949 610.333,140.833" style="fill:none;fill-rule:nonzero;stroke:rgb(47,104,135);stroke-width:1px;"/>
                <path d="M540.25,115.25C540.25,115.25 562.207,124.73 582.558,132.232" style="fill:none;fill-rule:nonzero;stroke:rgb(47,104,135);stroke-width:1px;"/>
                <path d="M590.782,122.401C599.974,126.121 609.431,129.155 616,129.25" style="fill:none;fill-rule:nonzero;stroke:rgb(47,104,135);stroke-width:1px;"/>
                <path d="M561.589,108.488C561.589,108.488 572.388,114.448 585.045,119.982" style="fill:none;fill-rule:nonzero;stroke:rgb(47,104,135);stroke-width:1px;"/>
                <path d="M592.917,107.792C605.993,112.169 624.453,117.932 627,116.5" style="fill:none;fill-rule:nonzero;stroke:rgb(47,104,135);stroke-width:1px;"/>
                <path d="M579.75,103.25C579.75,103.25 582.938,104.392 587.662,106.012" style="fill:none;fill-rule:nonzero;stroke:rgb(47,104,135);stroke-width:1px;"/>
                <path d="M601.891,98.432C601.891,98.432 624.5,108 624.75,111" style="fill:none;fill-rule:nonzero;stroke:rgb(47,104,135);stroke-width:1px;"/>
                <path d="M614.896,96.15C614.896,96.15 627.5,105 632.5,106.25" style="fill:none;fill-rule:nonzero;stroke:rgb(47,104,135);stroke-width:1px;"/>
                <path d="M627.5,87.833C627.5,87.833 625.695,93.357 625.695,94.857C625.695,94.857 634.156,101.158 637.406,102.158" style="fill:none;fill-rule:nonzero;stroke:rgb(47,104,135);stroke-width:1px;"/>
                <path d="M477.5,142.75C477.5,142.75 530.75,169.75 538,169" style="fill:none;fill-rule:nonzero;stroke:rgb(47,104,135);stroke-width:1px;"/>
                <path d="M477.25,153.75C477.25,153.75 508.25,173.25 517.5,175" style="fill:none;fill-rule:nonzero;stroke:rgb(47,104,135);stroke-width:1px;"/>
                <path d="M478,168.25C478,168.25 491.75,179.5 498.75,180.5" style="fill:none;fill-rule:nonzero;stroke:rgb(47,104,135);stroke-width:1px;"/>
                <path d="M482.667,73.5L477.25,93.25" style="fill:none;fill-rule:nonzero;stroke:rgb(47,104,135);stroke-width:1px;"/>
                <path d="M599.5,94C599.5,94 603.167,85 606.833,82" style="fill:none;fill-rule:nonzero;stroke:rgb(47,104,135);stroke-width:1px;"/>
                <path d="M591.25,61.75C591.25,61.75 591.25,70.75 590.5,71.5C589.75,72.25 590,76 590.5,77C591,78 588.25,112.25 584.5,122.5C581.25,128.5 581.25,131.5 586.75,132" style="fill:none;fill-rule:nonzero;stroke:rgb(47,104,135);stroke-width:1px;"/>
                <path d="M583.104,131.094C583.104,131.094 577.25,176.25 572,186.25C570.75,188.25 568.5,193.25 568.5,193.25" style="fill:none;fill-rule:nonzero;stroke:rgb(47,104,135);stroke-width:1px;"/>
                <path d="M601.25,61.75C601.25,61.75 599.25,67 598.5,68.5C597.75,70 597.75,71.5 597.75,71.5C597.75,71.5 596.25,75 596.75,78C597.25,81 597.75,94 597.75,94" style="fill:none;fill-rule:nonzero;stroke:rgb(47,104,135);stroke-width:1px;"/>
                <path d="M595,94C595,94 599.5,93.25 599.25,95.5C599,97.75 597.25,101.75 595.5,101.75C593.75,101.75 592.75,100.25 592.75,100.25" style="fill:none;fill-rule:nonzero;stroke:rgb(47,104,135);stroke-width:1px;"/>
                <path d="M594.212,101.5C594.212,101.5 587.75,144.5 587.75,147.75L587.75,151C587.75,151 582.75,151 583,163.25" style="fill:none;fill-rule:nonzero;stroke:rgb(47,104,135);stroke-width:1px;"/>
                <path d="M575.75,193.5C575.75,193.5 578,170.75 581,169C584,167.25 585.25,165.5 585.25,165.5C585.25,165.5 585.5,162 581.75,163.75" style="fill:none;fill-rule:nonzero;stroke:rgb(47,104,135);stroke-width:1px;"/>
                <g>
                    <g>
                        <g>
                            <clipPath id="_clip1">
                                <path d="M594.027,100.929C594.027,100.929 587.511,142.176 587.511,145.426L587.315,145.68L591.565,143.18C591.565,143.18 594.729,106.022 596.729,100.272L596.737,100.165C596.233,100.777 595.865,101.179 595.315,101.179C594.515,101.179 594.472,101.201 594.01,100.861L594.027,100.929Z"/>
                            </clipPath>
                            <g clip-path="url(#_clip1)">
                                <path d="M571.921,136.273L601.239,165.591" style="fill:none;fill-rule:nonzero;stroke:rgb(47,104,135);stroke-width:0.5px;"/>
                                <path d="M572.116,134.652L601.434,163.97" style="fill:none;fill-rule:nonzero;stroke:rgb(47,104,135);stroke-width:0.5px;"/>
                                <path d="M572.312,133.031L601.63,162.349" style="fill:none;fill-rule:nonzero;stroke:rgb(47,104,135);stroke-width:0.5px;"/>
                                <path d="M572.507,131.41L601.825,160.728" style="fill:none;fill-rule:nonzero;stroke:rgb(47,104,135);stroke-width:0.5px;"/>
                                <path d="M572.703,129.789L602.021,159.107" style="fill:none;fill-rule:nonzero;stroke:rgb(47,104,135);stroke-width:0.5px;"/>
                                <path d="M572.898,128.168L602.216,157.486" style="fill:none;fill-rule:nonzero;stroke:rgb(47,104,135);stroke-width:0.5px;"/>
                                <path d="M573.094,126.547L602.411,155.865" style="fill:none;fill-rule:nonzero;stroke:rgb(47,104,135);stroke-width:0.5px;"/>
                                <path d="M573.289,124.926L602.607,154.243" style="fill:none;fill-rule:nonzero;stroke:rgb(47,104,135);stroke-width:0.5px;"/>
                                <path d="M573.485,123.305L602.802,152.622" style="fill:none;fill-rule:nonzero;stroke:rgb(47,104,135);stroke-width:0.5px;"/>
                                <path d="M573.68,121.684L602.998,151.001" style="fill:none;fill-rule:nonzero;stroke:rgb(47,104,135);stroke-width:0.5px;"/>
                                <path d="M573.875,120.062L603.193,149.38" style="fill:none;fill-rule:nonzero;stroke:rgb(47,104,135);stroke-width:0.5px;"/>
                                <path d="M574.071,118.441L603.389,147.759" style="fill:none;fill-rule:nonzero;stroke:rgb(47,104,135);stroke-width:0.5px;"/>
                                <path d="M574.266,116.82L603.584,146.138" style="fill:none;fill-rule:nonzero;stroke:rgb(47,104,135);stroke-width:0.5px;"/>
                                <path d="M574.462,115.199L603.78,144.517" style="fill:none;fill-rule:nonzero;stroke:rgb(47,104,135);stroke-width:0.5px;"/>
                                <path d="M574.657,113.578L603.975,142.896" style="fill:none;fill-rule:nonzero;stroke:rgb(47,104,135);stroke-width:0.5px;"/>
                                <path d="M574.853,111.957L604.171,141.275" style="fill:none;fill-rule:nonzero;stroke:rgb(47,104,135);stroke-width:0.5px;"/>
                                <path d="M575.048,110.336L604.366,139.654" style="fill:none;fill-rule:nonzero;stroke:rgb(47,104,135);stroke-width:0.5px;"/>
                                <path d="M575.244,108.715L604.561,138.033" style="fill:none;fill-rule:nonzero;stroke:rgb(47,104,135);stroke-width:0.5px;"/>
                                <path d="M575.439,107.094L604.757,136.411" style="fill:none;fill-rule:nonzero;stroke:rgb(47,104,135);stroke-width:0.5px;"/>
                                <path d="M575.635,105.473L604.952,134.79" style="fill:none;fill-rule:nonzero;stroke:rgb(47,104,135);stroke-width:0.5px;"/>
                                <path d="M575.83,103.851L605.148,133.169" style="fill:none;fill-rule:nonzero;stroke:rgb(47,104,135);stroke-width:0.5px;"/>
                                <path d="M576.025,102.23L605.343,131.548" style="fill:none;fill-rule:nonzero;stroke:rgb(47,104,135);stroke-width:0.5px;"/>
                                <path d="M576.221,100.609L605.539,129.927" style="fill:none;fill-rule:nonzero;stroke:rgb(47,104,135);stroke-width:0.5px;"/>
                                <path d="M576.416,98.988L605.734,128.306" style="fill:none;fill-rule:nonzero;stroke:rgb(47,104,135);stroke-width:0.5px;"/>
                                <path d="M576.612,97.367L605.93,126.685" style="fill:none;fill-rule:nonzero;stroke:rgb(47,104,135);stroke-width:0.5px;"/>
                                <path d="M576.807,95.746L606.125,125.064" style="fill:none;fill-rule:nonzero;stroke:rgb(47,104,135);stroke-width:0.5px;"/>
                                <path d="M577.003,94.125L606.32,123.443" style="fill:none;fill-rule:nonzero;stroke:rgb(47,104,135);stroke-width:0.5px;"/>
                                <path d="M577.198,92.504L606.516,121.821" style="fill:none;fill-rule:nonzero;stroke:rgb(47,104,135);stroke-width:0.5px;"/>
                                <path d="M577.394,90.883L606.711,120.2" style="fill:none;fill-rule:nonzero;stroke:rgb(47,104,135);stroke-width:0.5px;"/>
                                <path d="M577.589,89.262L606.907,118.579" style="fill:none;fill-rule:nonzero;stroke:rgb(47,104,135);stroke-width:0.5px;"/>
                                <path d="M577.785,87.64L607.102,116.958" style="fill:none;fill-rule:nonzero;stroke:rgb(47,104,135);stroke-width:0.5px;"/>
                                <path d="M577.98,86.019L607.298,115.337" style="fill:none;fill-rule:nonzero;stroke:rgb(47,104,135);stroke-width:0.5px;"/>
                                <path d="M578.175,84.398L607.493,113.716" style="fill:none;fill-rule:nonzero;stroke:rgb(47,104,135);stroke-width:0.5px;"/>
                                <path d="M578.371,82.777L607.689,112.095" style="fill:none;fill-rule:nonzero;stroke:rgb(47,104,135);stroke-width:0.5px;"/>
                                <path d="M578.566,81.156L607.884,110.474" style="fill:none;fill-rule:nonzero;stroke:rgb(47,104,135);stroke-width:0.5px;"/>
                                <path d="M578.762,79.535L608.08,108.853" style="fill:none;fill-rule:nonzero;stroke:rgb(47,104,135);stroke-width:0.5px;"/>
                                <path d="M578.957,77.914L608.275,107.232" style="fill:none;fill-rule:nonzero;stroke:rgb(47,104,135);stroke-width:0.5px;"/>
                                <path d="M579.153,76.293L608.47,105.61" style="fill:none;fill-rule:nonzero;stroke:rgb(47,104,135);stroke-width:0.5px;"/>
                                <path d="M579.348,74.672L608.666,103.989" style="fill:none;fill-rule:nonzero;stroke:rgb(47,104,135);stroke-width:0.5px;"/>
                                <path d="M579.544,73.051L608.861,102.368" style="fill:none;fill-rule:nonzero;stroke:rgb(47,104,135);stroke-width:0.5px;"/>
                                <path d="M579.739,71.429L609.057,100.747" style="fill:none;fill-rule:nonzero;stroke:rgb(47,104,135);stroke-width:0.5px;"/>
                                <path d="M579.935,69.808L609.252,99.126" style="fill:none;fill-rule:nonzero;stroke:rgb(47,104,135);stroke-width:0.5px;"/>
                                <path d="M580.13,68.187L609.448,97.505" style="fill:none;fill-rule:nonzero;stroke:rgb(47,104,135);stroke-width:0.5px;"/>
                                <path d="M580.325,66.566L609.643,95.884" style="fill:none;fill-rule:nonzero;stroke:rgb(47,104,135);stroke-width:0.5px;"/>
                                <path d="M580.521,64.945L609.839,94.263" style="fill:none;fill-rule:nonzero;stroke:rgb(47,104,135);stroke-width:0.5px;"/>
                                <path d="M580.716,63.324L610.034,92.642" style="fill:none;fill-rule:nonzero;stroke:rgb(47,104,135);stroke-width:0.5px;"/>
                                <path d="M580.912,61.703L610.23,91.021" style="fill:none;fill-rule:nonzero;stroke:rgb(47,104,135);stroke-width:0.5px;"/>
                                <path d="M581.107,60.082L610.425,89.399" style="fill:none;fill-rule:nonzero;stroke:rgb(47,104,135);stroke-width:0.5px;"/>
                                <path d="M581.303,58.461L610.62,87.778" style="fill:none;fill-rule:nonzero;stroke:rgb(47,104,135);stroke-width:0.5px;"/>
                                <path d="M581.498,56.84L610.816,86.157" style="fill:none;fill-rule:nonzero;stroke:rgb(47,104,135);stroke-width:0.5px;"/>
                                <path d="M581.694,55.218L611.011,84.536" style="fill:none;fill-rule:nonzero;stroke:rgb(47,104,135);stroke-width:0.5px;"/>
                                <path d="M581.889,53.597L611.207,82.915" style="fill:none;fill-rule:nonzero;stroke:rgb(47,104,135);stroke-width:0.5px;"/>
                            </g>
                        </g>
                    </g>
                    <g>
                        <g>
                            <clipPath id="_clip2">
                                <path d="M599.065,94.929C599.167,94.008 598.473,93.589 597.618,93.417L597.565,93.429C597.565,93.429 597.206,84.081 596.791,79.41L597.065,79.429L600.065,80.429L599.065,94.929"/>
                            </clipPath>
                            <g clip-path="url(#_clip2)">
                                <path d="M571.921,136.273L601.239,165.591" style="fill:none;fill-rule:nonzero;stroke:rgb(47,104,135);stroke-width:0.5px;"/>
                                <path d="M572.116,134.652L601.434,163.97" style="fill:none;fill-rule:nonzero;stroke:rgb(47,104,135);stroke-width:0.5px;"/>
                                <path d="M572.312,133.031L601.63,162.349" style="fill:none;fill-rule:nonzero;stroke:rgb(47,104,135);stroke-width:0.5px;"/>
                                <path d="M572.507,131.41L601.825,160.728" style="fill:none;fill-rule:nonzero;stroke:rgb(47,104,135);stroke-width:0.5px;"/>
                                <path d="M572.703,129.789L602.021,159.107" style="fill:none;fill-rule:nonzero;stroke:rgb(47,104,135);stroke-width:0.5px;"/>
                                <path d="M572.898,128.168L602.216,157.486" style="fill:none;fill-rule:nonzero;stroke:rgb(47,104,135);stroke-width:0.5px;"/>
                                <path d="M573.094,126.547L602.411,155.865" style="fill:none;fill-rule:nonzero;stroke:rgb(47,104,135);stroke-width:0.5px;"/>
                                <path d="M573.289,124.926L602.607,154.243" style="fill:none;fill-rule:nonzero;stroke:rgb(47,104,135);stroke-width:0.5px;"/>
                                <path d="M573.485,123.305L602.802,152.622" style="fill:none;fill-rule:nonzero;stroke:rgb(47,104,135);stroke-width:0.5px;"/>
                                <path d="M573.68,121.684L602.998,151.001" style="fill:none;fill-rule:nonzero;stroke:rgb(47,104,135);stroke-width:0.5px;"/>
                                <path d="M573.875,120.062L603.193,149.38" style="fill:none;fill-rule:nonzero;stroke:rgb(47,104,135);stroke-width:0.5px;"/>
                                <path d="M574.071,118.441L603.389,147.759" style="fill:none;fill-rule:nonzero;stroke:rgb(47,104,135);stroke-width:0.5px;"/>
                                <path d="M574.266,116.82L603.584,146.138" style="fill:none;fill-rule:nonzero;stroke:rgb(47,104,135);stroke-width:0.5px;"/>
                                <path d="M574.462,115.199L603.78,144.517" style="fill:none;fill-rule:nonzero;stroke:rgb(47,104,135);stroke-width:0.5px;"/>
                                <path d="M574.657,113.578L603.975,142.896" style="fill:none;fill-rule:nonzero;stroke:rgb(47,104,135);stroke-width:0.5px;"/>
                                <path d="M574.853,111.957L604.171,141.275" style="fill:none;fill-rule:nonzero;stroke:rgb(47,104,135);stroke-width:0.5px;"/>
                                <path d="M575.048,110.336L604.366,139.654" style="fill:none;fill-rule:nonzero;stroke:rgb(47,104,135);stroke-width:0.5px;"/>
                                <path d="M575.244,108.715L604.561,138.033" style="fill:none;fill-rule:nonzero;stroke:rgb(47,104,135);stroke-width:0.5px;"/>
                                <path d="M575.439,107.094L604.757,136.411" style="fill:none;fill-rule:nonzero;stroke:rgb(47,104,135);stroke-width:0.5px;"/>
                                <path d="M575.635,105.473L604.952,134.79" style="fill:none;fill-rule:nonzero;stroke:rgb(47,104,135);stroke-width:0.5px;"/>
                                <path d="M575.83,103.851L605.148,133.169" style="fill:none;fill-rule:nonzero;stroke:rgb(47,104,135);stroke-width:0.5px;"/>
                                <path d="M576.025,102.23L605.343,131.548" style="fill:none;fill-rule:nonzero;stroke:rgb(47,104,135);stroke-width:0.5px;"/>
                                <path d="M576.221,100.609L605.539,129.927" style="fill:none;fill-rule:nonzero;stroke:rgb(47,104,135);stroke-width:0.5px;"/>
                                <path d="M576.416,98.988L605.734,128.306" style="fill:none;fill-rule:nonzero;stroke:rgb(47,104,135);stroke-width:0.5px;"/>
                                <path d="M576.612,97.367L605.93,126.685" style="fill:none;fill-rule:nonzero;stroke:rgb(47,104,135);stroke-width:0.5px;"/>
                                <path d="M576.807,95.746L606.125,125.064" style="fill:none;fill-rule:nonzero;stroke:rgb(47,104,135);stroke-width:0.5px;"/>
                                <path d="M577.003,94.125L606.32,123.443" style="fill:none;fill-rule:nonzero;stroke:rgb(47,104,135);stroke-width:0.5px;"/>
                                <path d="M577.198,92.504L606.516,121.821" style="fill:none;fill-rule:nonzero;stroke:rgb(47,104,135);stroke-width:0.5px;"/>
                                <path d="M577.394,90.883L606.711,120.2" style="fill:none;fill-rule:nonzero;stroke:rgb(47,104,135);stroke-width:0.5px;"/>
                                <path d="M577.589,89.262L606.907,118.579" style="fill:none;fill-rule:nonzero;stroke:rgb(47,104,135);stroke-width:0.5px;"/>
                                <path d="M577.785,87.64L607.102,116.958" style="fill:none;fill-rule:nonzero;stroke:rgb(47,104,135);stroke-width:0.5px;"/>
                                <path d="M577.98,86.019L607.298,115.337" style="fill:none;fill-rule:nonzero;stroke:rgb(47,104,135);stroke-width:0.5px;"/>
                                <path d="M578.175,84.398L607.493,113.716" style="fill:none;fill-rule:nonzero;stroke:rgb(47,104,135);stroke-width:0.5px;"/>
                                <path d="M578.371,82.777L607.689,112.095" style="fill:none;fill-rule:nonzero;stroke:rgb(47,104,135);stroke-width:0.5px;"/>
                                <path d="M578.566,81.156L607.884,110.474" style="fill:none;fill-rule:nonzero;stroke:rgb(47,104,135);stroke-width:0.5px;"/>
                                <path d="M578.762,79.535L608.08,108.853" style="fill:none;fill-rule:nonzero;stroke:rgb(47,104,135);stroke-width:0.5px;"/>
                                <path d="M578.957,77.914L608.275,107.232" style="fill:none;fill-rule:nonzero;stroke:rgb(47,104,135);stroke-width:0.5px;"/>
                                <path d="M579.153,76.293L608.47,105.61" style="fill:none;fill-rule:nonzero;stroke:rgb(47,104,135);stroke-width:0.5px;"/>
                                <path d="M579.348,74.672L608.666,103.989" style="fill:none;fill-rule:nonzero;stroke:rgb(47,104,135);stroke-width:0.5px;"/>
                                <path d="M579.544,73.051L608.861,102.368" style="fill:none;fill-rule:nonzero;stroke:rgb(47,104,135);stroke-width:0.5px;"/>
                                <path d="M579.739,71.429L609.057,100.747" style="fill:none;fill-rule:nonzero;stroke:rgb(47,104,135);stroke-width:0.5px;"/>
                                <path d="M579.935,69.808L609.252,99.126" style="fill:none;fill-rule:nonzero;stroke:rgb(47,104,135);stroke-width:0.5px;"/>
                                <path d="M580.13,68.187L609.448,97.505" style="fill:none;fill-rule:nonzero;stroke:rgb(47,104,135);stroke-width:0.5px;"/>
                                <path d="M580.325,66.566L609.643,95.884" style="fill:none;fill-rule:nonzero;stroke:rgb(47,104,135);stroke-width:0.5px;"/>
                                <path d="M580.521,64.945L609.839,94.263" style="fill:none;fill-rule:nonzero;stroke:rgb(47,104,135);stroke-width:0.5px;"/>
                                <path d="M580.716,63.324L610.034,92.642" style="fill:none;fill-rule:nonzero;stroke:rgb(47,104,135);stroke-width:0.5px;"/>
                                <path d="M580.912,61.703L610.23,91.021" style="fill:none;fill-rule:nonzero;stroke:rgb(47,104,135);stroke-width:0.5px;"/>
                                <path d="M581.107,60.082L610.425,89.399" style="fill:none;fill-rule:nonzero;stroke:rgb(47,104,135);stroke-width:0.5px;"/>
                                <path d="M581.303,58.461L610.62,87.778" style="fill:none;fill-rule:nonzero;stroke:rgb(47,104,135);stroke-width:0.5px;"/>
                                <path d="M581.498,56.84L610.816,86.157" style="fill:none;fill-rule:nonzero;stroke:rgb(47,104,135);stroke-width:0.5px;"/>
                                <path d="M581.694,55.218L611.011,84.536" style="fill:none;fill-rule:nonzero;stroke:rgb(47,104,135);stroke-width:0.5px;"/>
                                <path d="M581.889,53.597L611.207,82.915" style="fill:none;fill-rule:nonzero;stroke:rgb(47,104,135);stroke-width:0.5px;"/>
                            </g>
                        </g>
                    </g>
                </g>
            </g>
            <g id="Panel_03_1_">
                <path d="M597.25,80L600.25,81L599.25,95.5" style="fill:none;fill-rule:nonzero;stroke:rgb(47,104,135);stroke-width:1px;"/>
                <path d="M587.5,146.25L591.75,143.75C591.75,143.75 594.914,106.592 596.914,100.842" style="fill:none;fill-rule:nonzero;stroke:rgb(47,104,135);stroke-width:1px;"/>
            </g>
        </g>
    </g>
</svg>
