<?xml version="1.0" encoding="UTF-8" standalone="no"?>
<!DOCTYPE svg PUBLIC "-//W3C//DTD SVG 1.1//EN" "http://www.w3.org/Graphics/SVG/1.1/DTD/svg11.dtd">
<svg width="100%" height="100%" viewBox="0 0 644 165" version="1.1" xmlns="http://www.w3.org/2000/svg" xmlns:xlink="http://www.w3.org/1999/xlink" xml:space="preserve" xmlns:serif="http://www.serif.com/" style="fill-rule:evenodd;clip-rule:evenodd;">
    <g transform="matrix(1,0,0,1,-137.047,-22.6291)">
        <g>
            <path d="M681.426,150.019L251,150.019" style="fill:none;fill-rule:nonzero;stroke:rgb(37,60,73);stroke-width:1.42px;"/>
            <path d="M655.733,182.986C666.202,177.2 685.766,146.616 697.055,144.962C714.784,141.106 747.532,142.206 752.631,141.106C757.731,140.002 774.105,138.075 776.521,138.075" style="fill:none;fill-rule:nonzero;stroke:rgb(37,60,73);stroke-width:2.13px;"/>
            <path d="M265.668,181.081C256.336,175.013 242.75,148.165 240.293,142.089C237.836,136.013 225.336,110.556 220.836,109.784C216.336,109.012 208.836,100.542 208.836,98.027C208.836,95.512 208.336,76.883 195.336,62.448C182.336,48.012 179.836,31.762 176.336,27.012C161.336,37.012 164.336,45.569 157.336,50.79C150.336,56.011 141.43,62.448 141.43,62.448" style="fill:none;fill-rule:nonzero;stroke:rgb(37,60,73);stroke-width:2.13px;"/>
        </g>
    </g>
</svg>
