<?xml version="1.0" encoding="UTF-8"?>
<!DOCTYPE svg PUBLIC "-//W3C//DTD SVG 1.1//EN" "http://www.w3.org/Graphics/SVG/1.1/DTD/svg11.dtd">
<svg version="1.1" xmlns="http://www.w3.org/2000/svg" xmlns:xlink="http://www.w3.org/1999/xlink" width="180" height="300"  xml:space="preserve" id="jonnieSide03">
    <!-- Generated by PaintCode - http://www.paintcodeapp.com -->
    <g id="jonnieSide03-group">
        <g id="jonnieSide03-group2">
            <path id="jonnieSide03-bezier" stroke="none" fill="rgb(0, 0, 0)" d="M 113.21,28.16 C 113.01,24.67 112.46,21.2 111.48,17.85 110.99,16.18 110.37,14.55 109.55,13.02 108.73,11.5 107.7,10.08 106.35,9.03 105.03,7.94 103.35,7.46 101.65,7.16 99.95,6.87 98.22,6.8 96.49,6.91 93.05,7.15 89.64,8.06 86.61,9.68 83.6,11.31 81,13.76 79.62,16.86 78.91,18.4 78.55,20.06 78.42,21.76 78.27,23.46 78.36,25.17 78.71,26.83 79.05,28.5 79.64,30.12 80.33,31.72 81,33.32 81.78,34.92 82.2,36.67 82.65,38.41 82.65,40.29 82.16,42 81.66,43.72 80.79,45.28 79.8,46.73 L 79.72,46.67 C 80.6,45.17 81.35,43.57 81.71,41.89 82.11,40.22 82.03,38.48 81.53,36.85 81.04,35.22 80.27,33.66 79.54,32.06 78.8,30.47 78.13,28.8 77.74,27.04 77.35,25.28 77.24,23.47 77.38,21.68 77.52,19.89 77.95,18.09 78.72,16.45 80.26,13.14 83.08,10.61 86.24,8.98 89.4,7.33 92.92,6.46 96.46,6.27 98.23,6.18 100.01,6.27 101.75,6.59 102.62,6.76 103.5,6.99 104.33,7.29 105.18,7.61 105.97,8.07 106.67,8.64 108.06,9.78 109.1,11.27 109.9,12.84 110.71,14.41 111.3,16.08 111.77,17.77 112.69,21.16 113.17,24.66 113.31,28.16 L 113.21,28.16 Z M 113.21,28.16" />
        </g>
        <g id="jonnieSide03-group3">
            <path id="jonnieSide03-bezier2" stroke="none" fill="rgb(0, 0, 0)" d="M 111.06,31.45 C 111.14,33.94 111.08,36.46 110.57,38.94 110.27,40.15 109.94,41.45 108.92,42.44 108.67,42.67 108.34,42.86 107.99,42.97 107.81,43.02 107.62,43.05 107.44,43.05 L 106.97,43.06 C 106.37,43.08 105.76,43.14 105.17,43.25 102.78,43.65 100.67,44.98 99.3,46.89 98.58,47.84 98.08,48.94 97.72,50.09 97.54,50.67 97.41,51.27 97.34,51.87 97.26,52.47 97.2,53.1 97.38,53.67 L 97.29,53.72 C 96.7,52.53 96.85,51.18 97.04,49.93 97.27,48.66 97.77,47.43 98.47,46.33 99.2,45.23 100.19,44.29 101.34,43.65 102.49,43 103.77,42.63 105.04,42.46 105.68,42.37 106.32,42.33 106.97,42.34 L 107.43,42.34 C 107.56,42.35 107.69,42.33 107.81,42.3 108.05,42.24 108.29,42.12 108.5,41.95 109.34,41.21 109.77,39.98 110.09,38.82 110.71,36.44 110.91,33.93 110.96,31.45 L 111.06,31.45 Z M 111.06,31.45" />
        </g>
        <g id="jonnieSide03-group4">
            <path id="jonnieSide03-bezier3" stroke="none" fill="rgb(0, 0, 0)" d="M 93.29,52.29 C 95.83,54.74 98.06,57.53 99.75,60.67 100.57,62.25 101.23,63.93 101.59,65.7 101.84,67.46 102.31,69.09 102.95,70.73 104.23,73.97 105.96,77.04 107.57,80.16 108.36,81.73 109.19,83.28 109.96,84.87 110.71,86.47 111.52,88.07 111.93,89.81 L 111.84,89.84 C 111.51,89.02 111.1,88.25 110.66,87.49 110.24,86.72 109.8,85.96 109.35,85.2 L 106.69,80.64 C 104.96,77.56 103.4,74.36 102.2,71 101.6,69.35 101.14,67.55 100.95,65.82 100.66,64.12 100.06,62.47 99.3,60.9 97.77,57.76 95.66,54.89 93.23,52.36 L 93.29,52.29 Z M 93.29,52.29" />
        </g>
        <g id="jonnieSide03-group5">
            <path id="jonnieSide03-bezier4" stroke="none" fill="rgb(0, 0, 0)" d="M 113.28,91.78 C 118.03,93.96 122.74,96.24 127.24,98.93 128.36,99.62 129.46,100.33 130.49,101.18 130.74,101.39 131,101.64 131.22,101.87 131.45,102.08 131.69,102.28 131.94,102.48 132.44,102.87 132.98,103.24 133.52,103.6 135.69,105.02 137.98,106.26 140.29,107.46 144.93,109.8 149.71,111.94 154.6,113.59 155.82,113.98 157.05,114.34 158.3,114.41 159.61,114.5 160.92,114.61 162.22,114.81 163.52,115.01 164.82,115.25 166.1,115.59 166.73,115.78 167.36,115.98 167.97,116.25 168.27,116.39 168.57,116.55 168.84,116.75 169.11,116.95 169.38,117.2 169.43,117.56 L 169.34,117.58 C 169.26,117.28 168.99,117.07 168.73,116.92 168.46,116.75 168.16,116.63 167.86,116.52 167.26,116.31 166.62,116.16 165.99,116.04 164.72,115.78 163.43,115.62 162.14,115.51 160.85,115.4 159.55,115.3 158.26,115.27 156.89,115.24 155.57,114.9 154.3,114.54 149.24,112.98 144.54,110.62 139.92,108.16 137.61,106.92 135.33,105.62 133.15,104.14 132.61,103.76 132.08,103.38 131.56,102.96 131.3,102.75 131.05,102.53 130.8,102.28 130.57,102.04 130.36,101.83 130.11,101.62 129.15,100.78 128.07,100.05 126.98,99.35 122.58,96.56 117.92,94.17 113.24,91.87 L 113.28,91.78 Z M 113.28,91.78" />
        </g>
        <g id="jonnieSide03-group6">
            <path id="jonnieSide03-bezier5" stroke="none" fill="rgb(0, 0, 0)" d="M 169.42,119.03 C 170.07,119.53 170.68,120.09 171.21,120.73 171.72,121.37 172.21,122.11 172.27,123.03 172.28,123.96 171.88,124.75 171.48,125.48 171.06,126.21 170.56,126.89 170,127.52 168.89,128.76 167.52,129.92 165.8,130.36 164.93,130.57 164.09,130.6 163.23,130.53 162.81,130.48 162.38,130.42 161.96,130.24 161.58,130.07 161.09,129.69 161.21,129.19 L 161.31,129.21 C 161.37,129.59 161.74,129.75 162.1,129.81 162.46,129.88 162.85,129.87 163.24,129.83 164.01,129.74 164.82,129.64 165.52,129.4 166.94,128.92 168.29,128.07 169.42,126.97 169.98,126.41 170.49,125.8 170.92,125.14 171.34,124.48 171.74,123.76 171.77,123.04 171.79,122.31 171.41,121.56 170.97,120.91 170.51,120.25 169.96,119.65 169.35,119.11 L 169.42,119.03 Z M 169.42,119.03" />
        </g>
        <g id="jonnieSide03-group7">
            <path id="jonnieSide03-bezier6" stroke="none" fill="rgb(0, 0, 0)" d="M 163,127.25 C 160.45,126.86 157.91,126.38 155.43,125.61 154.81,125.41 154.2,125.18 153.61,124.9 153.31,124.76 153.02,124.6 152.74,124.4 L 151.98,123.79 C 150.97,123.02 149.88,122.33 148.78,121.68 146.57,120.39 144.24,119.26 141.81,118.52 141.2,118.34 140.59,118.19 139.97,118.08 139.34,117.96 138.76,117.96 138.06,117.88 136.74,117.68 135.5,117.32 134.25,116.96 129.29,115.44 124.44,113.64 119.7,111.57 117.34,110.51 114.99,109.43 112.69,108.24 111.54,107.64 110.4,107.03 109.29,106.37 108.74,106.03 108.19,105.68 107.66,105.3 107.14,104.92 106.58,104.55 106.22,103.97 L 106.3,103.92 C 106.69,104.41 107.28,104.73 107.81,105.06 108.37,105.38 108.94,105.68 109.51,105.97 110.65,106.55 111.82,107.09 112.99,107.61 115.34,108.67 117.7,109.69 120.09,110.65 124.85,112.59 129.61,114.59 134.48,116.19 135.7,116.57 136.94,116.95 138.17,117.16 138.75,117.24 139.46,117.26 140.1,117.4 140.75,117.53 141.38,117.7 142.01,117.9 144.5,118.71 146.82,119.91 149.04,121.25 150.14,121.94 151.22,122.66 152.23,123.48 153.15,124.41 154.31,124.89 155.53,125.32 157.95,126.15 160.49,126.7 163.02,127.15 L 163,127.25 Z M 163,127.25" />
        </g>
        <g id="jonnieSide03-group8">
            <path id="jonnieSide03-bezier7" stroke="none" fill="rgb(0, 0, 0)" d="M 104.1,101.48 C 100.38,97.1 96.77,92.62 93.32,88.02 91.59,85.72 89.84,83.42 88.34,80.95 87.61,79.71 86.87,78.46 86.23,77.16 85.61,75.86 85,74.52 84.71,73.09 L 84.81,73.06 C 85.37,74.38 86.1,75.61 86.84,76.82 87.6,78.03 88.37,79.24 89.18,80.41 90.78,82.78 92.33,85.19 93.96,87.55 97.26,92.24 100.68,96.86 104.18,101.42 L 104.1,101.48 Z M 104.1,101.48" />
        </g>
        <g id="jonnieSide03-group9">
            <path id="jonnieSide03-bezier8" stroke="none" fill="rgb(0, 0, 0)" d="M 76.67,50.61 C 75.71,51.7 74.91,52.91 74.21,54.17 73.5,55.43 72.91,56.75 72.48,58.11 72.05,59.47 71.84,60.88 71.63,62.27 71.42,63.67 71.35,65.09 71.31,66.57 L 71.21,66.58 C 70.71,65.18 70.55,63.66 70.64,62.17 70.72,60.67 71.18,59.22 71.73,57.84 72.82,55.07 74.49,52.57 76.6,50.54 L 76.67,50.61 Z M 76.67,50.61" />
        </g>
        <g id="jonnieSide03-group10">
            <path id="jonnieSide03-bezier9" stroke="none" fill="rgb(0, 0, 0)" d="M 71.79,53.74 C 69.89,55.3 68.07,56.95 66.36,58.71 64.69,60.48 63,62.34 62,64.53 60.93,66.8 59.55,68.83 58.23,70.91 56.88,72.97 55.49,75.01 54.09,77.04 51.3,81.09 48.5,85.14 45.5,89.05 43.96,90.98 42.45,92.9 41.07,94.92 40.38,95.92 39.73,96.96 39.18,98.04 38.61,99.11 38.14,100.25 37.93,101.45 L 37.83,101.44 C 38,98.93 39.25,96.66 40.48,94.54 41.75,92.41 43.25,90.43 44.7,88.45 L 53.44,76.58 C 54.88,74.58 56.3,72.58 57.68,70.55 59.04,68.52 60.47,66.49 61.54,64.32 62.67,62.05 64.41,60.25 66.15,58.5 67.91,56.78 69.78,55.17 71.73,53.66 L 71.79,53.74 Z M 71.79,53.74" />
        </g>
        <g id="jonnieSide03-group11">
            <path id="jonnieSide03-bezier10" stroke="none" fill="rgb(0, 0, 0)" d="M 36.67,102.36 C 33.87,105.94 31.26,109.69 29.03,113.64 27.92,115.62 26.92,117.65 26.22,119.8 25.5,121.94 25.02,124.15 24.5,126.38 24.23,127.5 23.94,128.63 23.46,129.71 22.99,130.8 22.32,131.82 21.51,132.69 20.7,133.57 19.72,134.25 18.9,134.97 18.04,135.69 17.21,136.46 16.41,137.25 14.77,138.81 13.24,140.48 11.77,142.2 11.03,143.06 10.32,143.94 9.67,144.86 9.33,145.32 9.02,145.78 8.73,146.27 8.48,146.76 8.16,147.27 8.18,147.81 L 8.08,147.83 C 7.99,147.22 8.26,146.67 8.48,146.14 8.72,145.61 8.99,145.11 9.29,144.61 9.88,143.63 10.54,142.69 11.22,141.76 12.6,139.93 14.11,138.2 15.7,136.54 16.51,135.72 17.35,134.93 18.22,134.18 19.12,133.4 20.05,132.8 20.79,132 22.36,130.47 23.17,128.38 23.73,126.19 24.29,123.99 24.83,121.75 25.61,119.59 26.37,117.41 27.44,115.36 28.6,113.39 30.96,109.47 33.68,105.8 36.6,102.29 L 36.67,102.36 Z M 36.67,102.36" />
        </g>
        <g id="jonnieSide03-group12">
            <path id="jonnieSide03-bezier11" stroke="none" fill="rgb(0, 0, 0)" d="M 13.17,144.13 C 12.31,145.4 11.47,146.69 10.71,148 10.33,148.65 10.05,149.36 9.66,149.98 9.46,150.29 9.28,150.61 9.11,150.92 8.96,151.24 8.78,151.54 8.8,151.92 L 8.72,151.97 C 8.4,151.64 8.38,151.13 8.44,150.73 8.49,150.3 8.61,149.91 8.76,149.54 9.05,148.78 9.58,148.18 10.04,147.56 10.98,146.31 12,145.16 13.1,144.06 L 13.17,144.13 Z M 13.17,144.13" />
        </g>
        <g id="jonnieSide03-group13">
            <path id="jonnieSide03-bezier12" stroke="none" fill="rgb(0, 0, 0)" d="M 14.42,146.23 C 13.5,147.75 12.6,149.28 11.77,150.82 11.35,151.6 11.04,152.42 10.61,153.16 10.4,153.53 10.19,153.91 10.01,154.28 9.86,154.66 9.62,155.04 9.79,155.41 L 9.73,155.49 C 9.47,155.38 9.37,155.07 9.33,154.83 9.29,154.58 9.3,154.33 9.34,154.09 9.4,153.61 9.54,153.17 9.7,152.74 10.03,151.88 10.59,151.15 11.08,150.41 12.09,148.93 13.18,147.52 14.35,146.17 L 14.42,146.23 Z M 14.42,146.23" />
        </g>
        <g id="jonnieSide03-group14">
            <path id="jonnieSide03-bezier13" stroke="none" fill="rgb(0, 0, 0)" d="M 16.66,150.86 C 15.48,151.94 14.33,153.06 13.27,154.23 12.75,154.81 12.32,155.47 11.82,156.04 11.58,156.32 11.36,156.62 11.17,156.92 11,157.22 10.83,157.52 10.94,157.92 L 10.86,157.98 C 10.47,157.71 10.41,157.11 10.51,156.68 10.6,156.23 10.79,155.83 11.01,155.46 11.44,154.72 12.11,154.2 12.71,153.66 13.93,152.58 15.24,151.64 16.61,150.78 L 16.66,150.86 Z M 16.66,150.86" />
        </g>
        <g id="jonnieSide03-group15">
            <path id="jonnieSide03-bezier14" stroke="none" fill="rgb(0, 0, 0)" d="M 20.93,144.11 C 20.76,145.13 20.72,146.19 20.81,147.21 20.84,147.72 20.92,148.22 21.04,148.71 21.1,148.97 21.17,149.18 21.26,149.45 21.34,149.69 21.41,150.02 21.44,150.28 21.56,151.4 21.47,152.51 21.19,153.53 21.05,154.04 20.89,154.54 20.73,155.03 20.65,155.27 20.57,155.51 20.52,155.75 20.47,155.99 20.42,156.23 20.58,156.4 L 20.53,156.49 C 20.2,156.39 20.12,156 20.06,155.74 20.02,155.46 20.02,155.18 20.03,154.91 20.06,154.36 20.14,153.84 20.21,153.32 20.35,152.3 20.66,151.32 20.64,150.34 20.63,150.09 20.62,149.89 20.56,149.63 20.51,149.39 20.44,149.1 20.4,148.84 20.32,148.3 20.29,147.76 20.31,147.22 20.35,146.15 20.53,145.1 20.84,144.08 L 20.93,144.11 Z M 20.93,144.11" />
        </g>
        <g id="jonnieSide03-group16">
            <path id="jonnieSide03-bezier15" stroke="none" fill="rgb(0, 0, 0)" d="M 22.34,155.92 C 24.86,151.81 27.17,147.33 26.93,142.35 27.41,139.92 28.3,137.64 29.22,135.37 30.15,133.11 31.18,130.9 32.29,128.72 33.4,126.54 34.57,124.4 35.89,122.32 36.56,121.29 37.25,120.27 38.07,119.31 38.28,119.08 38.52,118.84 38.73,118.63 38.94,118.42 39.14,118.22 39.34,117.99 39.73,117.55 40.11,117.09 40.47,116.62 41.94,114.73 43.19,112.65 44.37,110.54 44.97,109.48 45.52,108.41 46.05,107.31 46.55,106.22 47.12,105.12 47.34,103.95 L 47.44,103.95 C 47.43,104.58 47.24,105.17 47.07,105.76 46.89,106.35 46.68,106.92 46.46,107.5 46.02,108.64 45.52,109.75 44.99,110.86 43.93,113.06 42.71,115.2 41.27,117.21 40.9,117.71 40.51,118.2 40.1,118.67 39.9,118.9 39.67,119.14 39.45,119.36 39.24,119.58 39.05,119.77 38.85,120 38.08,120.88 37.38,121.86 36.72,122.86 35.37,124.86 34.15,126.96 33,129.09 31.86,131.23 30.79,133.41 29.81,135.63 28.86,137.85 27.93,140.11 27.42,142.45 27.3,143.04 27.21,143.61 27.24,144.21 27.25,144.84 27.18,145.46 27.06,146.06 26.82,147.28 26.42,148.44 25.94,149.57 24.99,151.82 23.78,153.95 22.42,155.98 L 22.34,155.92 Z M 22.34,155.92" />
        </g>
        <g id="jonnieSide03-group17">
            <path id="jonnieSide03-bezier16" stroke="none" fill="rgb(0, 0, 0)" d="M 45.48,101.41 C 48.88,99.07 52.25,96.69 55.57,94.26 57.23,93.03 58.83,91.74 60.48,90.54 L 62.95,88.71 C 63.36,88.4 63.76,88.08 64.14,87.75 64.53,87.42 64.91,87.08 65.22,86.68 L 65.3,86.72 C 64.88,87.71 64.12,88.48 63.41,89.23 62.68,89.98 61.89,90.66 61.1,91.33 59.5,92.65 57.75,93.77 56.03,94.92 52.6,97.21 49.09,99.4 45.54,101.49 L 45.48,101.41 Z M 45.48,101.41" />
        </g>
        <g id="jonnieSide03-group18">
            <path id="jonnieSide03-bezier17" stroke="none" fill="rgb(0, 0, 0)" d="M 61.21,139.26 C 61.16,140.78 61.17,142.29 61.24,143.79 61.26,144.55 61.38,145.28 61.45,146.02 L 61.65,148.28 62.49,157.32 62.39,157.34 C 61.95,155.88 61.63,154.39 61.33,152.9 61.05,151.4 60.8,149.9 60.64,148.38 60.55,147.62 60.48,146.86 60.44,146.1 60.39,145.33 60.47,144.55 60.5,143.79 60.59,142.26 60.81,140.74 61.1,139.25 L 61.21,139.26 Z M 61.21,139.26" />
        </g>
        <g id="jonnieSide03-group19">
            <path id="jonnieSide03-bezier18" stroke="none" fill="rgb(0, 0, 0)" d="M 66.06,80.82 C 66.35,83.22 66.7,85.61 67.11,87.99 67.53,90.39 68.01,92.69 68.77,95.05 68.96,96.3 68.9,97.51 68.86,98.73 68.81,99.95 68.72,101.16 68.61,102.37 68.39,104.78 68.1,107.19 67.78,109.59 67.13,114.39 66.35,119.18 65.26,123.91 64.69,126.27 64.12,128.63 63.39,130.94 62.64,133.24 61.93,135.61 60.54,137.64 L 60.46,137.58 C 61.05,136.54 61.43,135.39 61.79,134.24 62.14,133.09 62.46,131.93 62.75,130.76 63.31,128.42 63.85,126.07 64.31,123.7 65.25,118.97 66.17,114.23 66.94,109.47 67.32,107.08 67.65,104.69 67.91,102.3 68.05,101.1 68.16,99.9 68.24,98.7 68.3,97.51 68.37,96.29 68.22,95.14 67.52,92.89 67.11,90.42 66.77,88.04 66.44,85.64 66.17,83.24 65.96,80.83 L 66.06,80.82 Z M 66.06,80.82" />
        </g>
        <g id="jonnieSide03-group20">
            <path id="jonnieSide03-bezier19" stroke="none" fill="rgb(0, 0, 0)" d="M 62.49,157.35 L 59.48,171.03 C 58.49,175.59 57.48,180.16 56.63,184.73 55.92,189.35 54.98,193.95 53.82,198.48 53.22,200.74 52.6,203 51.89,205.23 51.53,206.34 51.15,207.46 50.74,208.55 50.53,209.1 50.3,209.65 50.06,210.18 49.8,210.71 49.57,211.26 49.12,211.69 L 49.06,211.62 C 49.69,210.68 49.96,209.51 50.3,208.41 50.63,207.29 50.92,206.17 51.21,205.04 51.78,202.78 52.32,200.51 52.84,198.24 53.88,193.69 55.06,189.19 55.86,184.59 56.82,180 57.92,175.46 59,170.92 L 62.39,157.32 62.49,157.35 Z M 62.49,157.35" />
        </g>
        <g id="jonnieSide03-group21">
            <path id="jonnieSide03-bezier20" stroke="none" fill="rgb(0, 0, 0)" d="M 49.13,206.19 C 46.43,209.79 43.8,213.44 41.28,217.17 40.03,219.04 38.81,220.93 37.68,222.87 37.12,223.84 36.58,224.83 36.13,225.84 35.9,226.35 35.7,226.87 35.57,227.39 35.45,227.93 35.35,228.48 35.25,229.03 33.78,237.89 32.36,246.88 29,255.33 28.14,257.44 27.16,259.5 25.92,261.42 25.3,262.39 24.58,263.3 23.88,264.17 L 21.8,266.83 C 20.42,268.59 19.04,270.37 17.81,272.22 17.21,273.15 16.63,274.1 16.25,275.08 15.86,276.07 15.78,277.08 16.34,277.86 16.58,278.2 17.02,278.54 17.46,278.83 17.91,279.13 18.39,279.41 18.88,279.67 19.85,280.2 20.86,280.69 21.87,281.2 23.88,282.21 25.94,283.2 27.76,284.63 28.66,285.33 29.54,286.24 29.96,287.33 30.44,288.32 31.01,289.28 31.74,290.11 32.45,290.94 33.34,291.62 34.37,292.03 35.39,292.45 36.52,292.62 37.64,292.65 L 37.64,292.75 C 36.51,292.78 35.36,292.67 34.27,292.29 33.18,291.92 32.2,291.25 31.4,290.41 30.6,289.57 29.98,288.6 29.44,287.59 29,286.57 28.23,285.84 27.34,285.18 25.56,283.9 23.52,282.94 21.49,281.97 20.48,281.49 19.45,281.02 18.44,280.5 17.93,280.23 17.43,279.96 16.93,279.64 16.44,279.32 15.94,278.99 15.52,278.42 15.14,277.88 14.93,277.21 14.94,276.55 14.94,275.89 15.11,275.29 15.32,274.73 15.75,273.61 16.36,272.63 16.98,271.67 18.25,269.77 19.63,267.99 21.02,266.21 L 23.15,263.58 C 23.87,262.7 24.56,261.86 25.17,260.93 26.39,259.09 27.39,257.08 28.26,255.03 31.67,246.73 33.19,237.79 34.76,228.94 34.86,228.39 34.98,227.83 35.11,227.28 35.26,226.7 35.48,226.17 35.72,225.66 36.2,224.62 36.76,223.64 37.34,222.67 38.5,220.73 39.75,218.86 41.04,217 43.61,213.3 46.3,209.69 49.05,206.13 L 49.13,206.19 Z M 49.13,206.19" />
        </g>
        <g id="jonnieSide03-group22">
            <path id="jonnieSide03-bezier21" stroke="none" fill="rgb(0, 0, 0)" d="M 40.26,292.65 L 52.13,292.55 C 53.07,292.5 54.02,292.08 54.73,291.48 55.08,291.18 55.36,290.76 55.28,290.36 55.21,289.96 54.84,289.63 54.43,289.42 53.58,289 52.62,288.72 51.69,288.39 50.75,288.07 49.81,287.74 48.88,287.36 47.04,286.61 45.25,285.66 43.67,284.41 42.08,283.17 40.73,281.6 39.75,279.85 37.76,276.45 35.85,272.78 35.52,268.68 35.35,266.66 35.61,264.59 36.22,262.66 36.83,260.72 37.76,258.9 38.86,257.22 39.41,256.37 40.03,255.57 40.58,254.78 41.15,253.98 41.7,253.16 42.23,252.34 43.3,250.68 44.31,248.99 45.29,247.28 49.28,240.46 52.84,233.39 56.38,226.3 L 56.47,226.35 C 53.45,233.67 50.01,240.83 46.16,247.77 45.17,249.5 44.15,251.2 43.07,252.88 42.53,253.71 41.97,254.54 41.4,255.36 40.81,256.18 40.21,256.95 39.68,257.76 37.5,260.96 36.03,264.74 36.32,268.62 36.57,272.51 38.37,276.12 40.31,279.52 41.25,281.24 42.51,282.74 44.03,283.96 45.54,285.19 47.27,286.14 49.08,286.9 49.98,287.29 50.9,287.63 51.84,287.97 52.77,288.31 53.71,288.6 54.63,289.07 55.07,289.31 55.55,289.71 55.65,290.3 55.74,290.92 55.34,291.41 54.96,291.74 54.16,292.39 53.18,292.8 52.14,292.85 L 40.26,292.75 40.26,292.65 40.26,292.65 Z M 40.26,292.65" />
        </g>
        <g id="jonnieSide03-group23">
            <path id="jonnieSide03-bezier22" stroke="none" fill="rgb(0, 0, 0)" d="M 57.34,224.55 C 58.91,222.15 60.57,219.8 62.45,217.62 62.93,217.08 63.42,216.55 63.95,216.05 64.21,215.81 64.52,215.58 64.75,215.35 64.99,215.1 65.23,214.83 65.45,214.56 66.36,213.46 67.19,212.3 68.02,211.14 71.32,206.46 74.37,201.61 77.3,196.7 80.22,191.77 82.93,186.73 85.55,181.66 88.16,176.58 90.62,171.41 92.34,165.94 L 92.43,165.96 C 91.27,171.61 88.91,176.92 86.45,182.1 83.93,187.27 81,192.23 77.99,197.11 74.96,201.99 71.82,206.79 68.43,211.43 67.57,212.58 66.7,213.73 65.76,214.82 65.52,215.09 65.28,215.36 65.01,215.62 64.72,215.88 64.45,216.07 64.18,216.31 63.66,216.79 63.16,217.29 62.67,217.82 60.76,219.93 59.05,222.24 57.43,224.6 L 57.34,224.55 Z M 57.34,224.55" />
        </g>
        <g id="jonnieSide03-group24">
            <path id="jonnieSide03-bezier23" stroke="none" fill="rgb(0, 0, 0)" d="M 85.55,190.42 C 88.09,193.29 90.57,196.22 92.96,199.23 94.16,200.72 95.4,202.2 96.45,203.82 96.97,204.63 97.48,205.45 97.92,206.32 98.35,207.18 98.83,208.06 98.93,209.07 L 98.84,209.08 C 98.67,208.65 98.41,208.24 98.15,207.85 97.89,207.46 97.61,207.07 97.33,206.69 L 95.63,204.39 C 94.49,202.87 93.44,201.27 92.33,199.71 90.08,196.61 87.79,193.54 85.47,190.48 L 85.55,190.42 Z M 85.55,190.42" />
        </g>
        <g id="jonnieSide03-group25">
            <path id="jonnieSide03-bezier24" stroke="none" fill="rgb(0, 0, 0)" d="M 100.06,210.32 C 100.05,214.46 100.28,218.61 100.93,222.7 101.27,224.73 101.71,226.76 102.46,228.67 102.84,229.63 103.31,230.51 103.92,231.35 L 105.7,233.9 C 110.42,240.71 115.11,247.55 119.49,254.61 121.66,258.15 123.81,261.71 125.56,265.52 125.98,266.49 126.37,267.46 126.66,268.51 126.8,269.02 126.89,269.62 126.93,270.11 L 127.12,271.64 C 127.4,273.68 127.75,275.71 128.31,277.66 128.87,279.58 129.59,281.59 131.02,282.86 131.73,283.48 132.66,283.79 133.58,283.64 134.51,283.5 135.42,283.03 136.27,282.5 137.99,281.41 139.55,280.03 141.18,278.75 142,278.11 142.84,277.48 143.73,276.93 144.62,276.4 145.58,275.91 146.63,275.77 L 146.64,275.87 C 145.63,276.06 144.72,276.59 143.88,277.17 143.04,277.75 142.25,278.42 141.47,279.1 139.9,280.44 138.4,281.88 136.66,283.09 135.78,283.67 134.83,284.23 133.7,284.43 132.56,284.64 131.34,284.26 130.47,283.53 129.59,282.81 128.99,281.87 128.51,280.91 128.02,279.95 127.66,278.95 127.35,277.94 126.77,275.91 126.41,273.84 126.13,271.77 L 125.94,270.22 C 125.89,269.68 125.83,269.25 125.7,268.76 125.44,267.81 125.06,266.86 124.65,265.92 123,262.17 120.91,258.58 118.8,255.03 114.53,247.94 109.92,241.05 105.28,234.18 L 103.55,231.6 C 102.96,230.75 102.45,229.79 102.09,228.81 101.35,226.85 100.94,224.79 100.63,222.74 100.05,218.62 99.88,214.47 99.96,210.32 L 100.06,210.32 Z M 100.06,210.32" />
        </g>
        <g id="jonnieSide03-group26">
            <path id="jonnieSide03-bezier25" stroke="none" fill="rgb(0, 0, 0)" d="M 149.74,274.65 C 151.77,273.83 153.78,272.96 155.74,272.02 156.72,271.55 157.64,270.97 158.6,270.51 159.08,270.28 159.55,270.04 160.01,269.78 160.45,269.51 160.92,269.26 161.21,268.81 L 161.31,268.84 C 161.26,269.45 160.83,269.94 160.44,270.34 160.02,270.74 159.56,271.08 159.09,271.38 158.15,272 157.08,272.35 156.06,272.75 154,273.54 151.9,274.19 149.78,274.75 L 149.74,274.65 Z M 149.74,274.65" />
        </g>
        <g id="jonnieSide03-group27">
            <path id="jonnieSide03-bezier26" stroke="none" fill="rgb(0, 0, 0)" d="M 162.62,268.03 C 163.48,267.71 164.32,267.31 165.08,266.81 165.83,266.31 166.59,265.69 166.82,264.82 167.05,263.95 166.4,263.11 165.75,262.56 165.41,262.27 164.99,262.29 164.58,262.5 164.18,262.68 163.79,262.93 163.38,263.16 161.77,264.09 159.96,264.68 158.13,264.99 156.28,265.32 154.44,265.33 152.61,265.55 148.97,265.9 145.16,266.34 141.5,265.21 139.7,264.66 138.01,263.69 136.6,262.43 135.19,261.17 134.03,259.65 133.08,258.04 132.12,256.42 131.35,254.71 130.69,252.97 130.04,251.21 129.5,249.46 128.87,247.73 127.65,244.26 126.35,240.82 124.99,237.4 122.3,230.54 119.33,223.79 116.22,217.1 L 116.3,217.05 C 119.94,223.49 123.05,230.2 125.91,237.02 127.32,240.44 128.63,243.9 129.81,247.41 130.41,249.16 130.93,250.95 131.53,252.66 132.15,254.38 132.87,256.06 133.77,257.64 134.67,259.21 135.76,260.68 137.09,261.89 138.41,263.11 139.98,264.04 141.7,264.59 145.16,265.72 148.91,265.36 152.56,265.05 154.41,264.86 156.27,264.89 158.06,264.6 159.87,264.33 161.63,263.79 163.24,262.9 163.64,262.68 164.03,262.44 164.47,262.25 164.69,262.15 164.93,262.07 165.2,262.08 165.47,262.09 165.71,262.21 165.9,262.36 166.28,262.68 166.56,263.04 166.81,263.46 167.04,263.88 167.14,264.4 167.01,264.87 166.73,265.83 165.93,266.44 165.16,266.94 164.37,267.43 163.53,267.82 162.65,268.12 L 162.62,268.03 Z M 162.62,268.03" />
        </g>
        <g id="jonnieSide03-group28">
            <path id="jonnieSide03-bezier27" stroke="none" fill="rgb(0, 0, 0)" d="M 116.21,214.44 C 116.69,211.54 116.93,208.59 116.74,205.67 116.63,204.21 116.41,202.75 115.9,201.4 115.77,201.07 115.62,200.74 115.45,200.43 115.26,200.09 115.12,199.75 114.97,199.41 114.68,198.72 114.42,198.03 114.17,197.34 112.19,191.78 110.46,186.15 108.68,180.54 106.9,174.93 105.08,169.33 103.37,163.7 102.53,160.88 101.65,158.08 100.78,155.27 100.34,153.87 99.89,152.47 99.41,151.08 98.95,149.69 98.49,148.29 97.84,146.97 L 97.93,146.92 C 99.4,149.5 100.39,152.29 101.44,155.05 102.46,157.81 103.38,160.61 104.32,163.4 106.16,169 107.77,174.66 109.44,180.31 111.13,185.94 112.77,191.6 114.64,197.17 114.88,197.86 115.12,198.56 115.39,199.24 115.52,199.57 115.66,199.91 115.82,200.22 116,200.56 116.15,200.91 116.27,201.26 116.77,202.68 116.96,204.17 117.04,205.65 117.16,208.61 116.85,211.56 116.31,214.46 L 116.21,214.44 Z M 116.21,214.44" />
        </g>
        <g id="jonnieSide03-group29">
            <path id="jonnieSide03-bezier28" stroke="none" fill="rgb(0, 0, 0)" d="M 100.95,138.78 C 101.14,137.42 101.06,136.01 101.17,134.63 101.24,133.24 101.37,131.86 101.55,130.48 101.75,129.11 101.8,127.73 101.87,126.34 L 102.06,122.18 C 102.22,119.41 102.3,116.63 102.57,113.86 102.89,111.09 103.35,108.33 104.21,105.66 L 104.31,105.68 C 104.09,108.46 103.85,111.21 103.6,113.96 103.3,116.71 102.96,119.47 102.73,122.23 102.47,124.99 102.28,127.77 101.81,130.52 101.6,131.89 101.45,133.26 101.35,134.64 101.21,136.03 101.27,137.41 101.05,138.8 L 100.95,138.78 Z M 100.95,138.78" />
        </g>
        <g id="jonnieSide03-group30">
            <path id="jonnieSide03-bezier29" stroke="none" fill="rgb(0, 0, 0)" d="M 97.38,145.75 C 97.2,144.86 97.12,143.95 97.07,143.04 97.05,142.59 96.96,142.12 97.07,141.68 97.17,141.23 97.32,140.79 97.64,140.37 L 97.74,140.38 C 97.97,140.86 98.03,141.31 98.06,141.76 98.1,142.21 97.94,142.64 97.87,143.08 97.74,143.96 97.59,144.85 97.48,145.75 L 97.38,145.75 Z M 97.38,145.75" />
        </g>
        <g id="jonnieSide03-group159">
            <path id="jonnieSide03-bezier158" stroke="none" fill="rgb(0, 0, 0)" d="M 81.45,47.62 C 83.21,48.36 84.97,49.08 86.75,49.75 87.63,50.09 88.55,50.32 89.41,50.7 90.28,51.06 91.1,51.47 92.01,51.78 L 92.01,51.88 C 91.01,52.12 90,51.89 89.08,51.65 88.13,51.39 87.29,50.91 86.43,50.49 84.7,49.64 83.03,48.71 81.4,47.71 L 81.45,47.62 Z M 81.45,47.62" />
        </g>
        <g id="jonnieSide03-group160">
            <path id="jonnieSide03-bezier159" stroke="none" fill="rgb(0, 0, 0)" d="M 102.04,73.12 C 100.1,74.44 98.17,75.77 96.27,77.14 95.33,77.83 94.45,78.6 93.49,79.24 L 92.07,80.23 C 91.62,80.57 91.1,80.87 90.81,81.34 L 90.71,81.32 C 90.77,80.66 91.22,80.17 91.59,79.71 91.99,79.25 92.43,78.84 92.88,78.45 93.78,77.67 94.83,77.1 95.83,76.48 97.84,75.24 99.89,74.1 101.98,73.03 L 102.04,73.12 Z M 102.04,73.12" />
        </g>
        <g id="jonnieSide03-group161">
            <path id="jonnieSide03-bezier160" stroke="none" fill="rgb(0, 0, 0)" d="M 63.63,85.68 C 62.72,83.64 61.74,81.63 60.66,79.7 60.12,78.73 59.47,77.84 58.92,76.91 58.34,75.98 57.81,75.06 56.99,74.3 L 57.03,74.21 C 58.2,74.52 59.05,75.46 59.75,76.34 60.46,77.25 60.9,78.31 61.38,79.34 62.32,81.39 63.09,83.5 63.72,85.65 L 63.63,85.68 Z M 63.63,85.68" />
        </g>
        <g id="jonnieSide03-group162">
            <path id="jonnieSide03-bezier161" stroke="none" fill="rgb(0, 0, 0)" d="M 60.5,137.56 C 63.85,137.08 67.24,136.8 70.64,136.72 74.03,136.67 77.51,136.88 80.8,137.69 84.1,138.26 87.48,138.33 90.85,138.47 94.22,138.63 97.6,138.64 101,138.74 L 101,138.84 C 97.63,139.31 94.23,139.45 90.83,139.47 87.42,139.46 84.01,139.17 80.64,138.47 77.37,137.57 74.03,137.28 70.64,137.22 67.26,137.16 63.87,137.32 60.51,137.66 L 60.5,137.56 Z M 60.5,137.56" />
        </g>
        <g id="jonnieSide03-group163">
            <path id="jonnieSide03-bezier162" stroke="none" fill="rgb(0, 0, 0)" d="M 28.7,257.87 C 29.98,258.27 31.25,258.71 32.5,259.2 33.12,259.44 33.79,259.61 34.36,259.98 34.92,260.35 35.51,260.74 35.91,261.38 L 35.84,261.45 C 35.17,261.3 34.53,261.12 33.91,260.88 33.29,260.65 32.75,260.24 32.16,259.92 30.99,259.28 29.82,258.63 28.66,257.96 L 28.7,257.87 Z M 28.7,257.87" />
        </g>
        <g id="jonnieSide03-group164">
            <path id="jonnieSide03-bezier163" stroke="none" fill="rgb(0, 0, 0)" d="M 131.86,257.46 C 130.52,258.06 129.24,258.74 127.99,259.47 127.37,259.84 126.81,260.3 126.16,260.61 125.52,260.93 124.87,261.24 124.12,261.46 L 124.06,261.38 C 124.48,260.72 125.04,260.2 125.64,259.76 126.24,259.31 126.95,259.06 127.63,258.76 128.99,258.17 130.39,257.7 131.83,257.37 L 131.86,257.46 Z M 131.86,257.46" />
        </g>
    </g>
</svg>
