<?xml version="1.0" encoding="UTF-8"?>
<!DOCTYPE svg PUBLIC "-//W3C//DTD SVG 1.1//EN" "http://www.w3.org/Graphics/SVG/1.1/DTD/svg11.dtd">
<svg version="1.1" xmlns="http://www.w3.org/2000/svg" xmlns:xlink="http://www.w3.org/1999/xlink" width="180" height="100"  xml:space="preserve" id="jonnieTop04">
    <!-- Generated by PaintCode - http://www.paintcodeapp.com -->
    <g id="jonnieTop04-group">
        <g id="jonnieTop04-group303">
            <path id="jonnieTop04-bezier299" stroke="none" fill="rgb(0, 0, 0)" d="M 95.27,42.87 C 95,38.46 96.6,33.98 99.57,30.69 102.51,27.37 106.81,25.28 111.27,25 115.73,24.69 120.3,26.19 123.7,29.13 127.13,32.04 129.32,36.36 129.59,40.88 129.9,45.38 128.28,49.99 125.23,53.34 122.18,56.71 117.78,58.78 113.25,59.02 110.99,59.13 108.71,58.8 106.58,58.04 104.46,57.28 102.5,56.1 100.85,54.59 97.52,51.59 95.47,47.29 95.27,42.87 Z M 95.37,42.86 C 95.52,45.05 96.12,47.21 97.11,49.15 98.12,51.09 99.53,52.81 101.2,54.19 104.54,56.96 108.92,58.34 113.19,58.02 117.47,57.8 121.62,55.85 124.49,52.67 127.42,49.55 129.03,45.23 128.79,40.92 128.59,36.63 126.54,32.45 123.28,29.62 120.04,26.76 115.64,25.25 111.3,25.49 106.96,25.68 102.71,27.61 99.73,30.83 98.24,32.43 97.05,34.33 96.3,36.39 95.56,38.46 95.24,40.67 95.37,42.86 Z M 95.37,42.86" />
        </g>
        <g id="jonnieTop04-group304">
            <path id="jonnieTop04-bezier300" stroke="none" fill="rgb(0, 0, 0)" d="M 129.53,38.79 C 130.11,38.88 130.67,39.03 131.22,39.28 131.74,39.55 132.34,39.92 132.56,40.69 132.66,41.05 132.61,41.5 132.41,41.85 132.2,42.19 131.91,42.43 131.61,42.57 130.99,42.83 130.37,42.88 129.75,42.71 L 129.73,42.61 C 130.24,42.25 130.73,41.99 131.11,41.7 131.49,41.39 131.79,41.24 131.78,40.83 131.76,40.45 131.4,40.02 130.96,39.71 130.53,39.38 130.03,39.1 129.51,38.89 L 129.53,38.79 Z M 129.53,38.79" />
        </g>
        <g id="jonnieTop04-group305">
            <path id="jonnieTop04-bezier301" stroke="none" fill="rgb(0, 0, 0)" d="M 93.5,57.29 C 94.42,60.39 95.35,63.49 96.23,66.61 96.68,68.15 97.04,69.75 97.61,71.24 98.23,72.73 98.62,74.26 98.85,75.91 L 98.76,75.95 C 97.72,74.63 97.06,73.1 96.76,71.49 96.42,69.88 96.07,68.32 95.68,66.75 L 93.4,57.32 93.5,57.29 Z M 93.5,57.29" />
        </g>
        <g id="jonnieTop04-group306">
            <path id="jonnieTop04-bezier302" stroke="none" fill="rgb(0, 0, 0)" d="M 119.93,71.45 C 121.4,70.7 122.59,69.47 123.44,68.09 124.3,66.7 124.82,65.13 125.06,63.52 125.29,61.91 125.2,60.28 125.11,58.66 125.03,57.02 124.81,55.39 124.64,53.71 L 124.74,53.69 C 125.44,55.23 125.88,56.88 126.11,58.56 126.33,60.26 126.2,61.99 125.85,63.67 125.5,65.34 124.85,66.97 123.86,68.37 122.85,69.74 121.53,70.9 119.97,71.55 L 119.93,71.45 Z M 119.93,71.45" />
        </g>
        <g id="jonnieTop04-group307">
            <path id="jonnieTop04-bezier303" stroke="none" fill="rgb(0, 0, 0)" d="M 84.14,23.4 C 84.52,23.73 84.96,23.91 85.42,24.03 85.87,24.17 86.35,24.25 86.83,24.31 87.31,24.37 87.8,24.33 88.27,24.47 88.74,24.6 89.21,24.76 89.68,25.07 L 89.67,25.17 C 89.15,25.41 88.64,25.46 88.13,25.46 87.62,25.46 87.13,25.25 86.65,25.09 86.16,24.93 85.68,24.74 85.22,24.49 84.77,24.24 84.35,23.89 84.06,23.47 L 84.14,23.4 Z M 84.14,23.4" />
        </g>
        <g id="jonnieTop04-group308">
            <path id="jonnieTop04-bezier304" stroke="none" fill="rgb(0, 0, 0)" d="M 124.51,25.34 L 121.14,20.26 C 120.02,18.56 118.91,16.85 117.64,15.31 116.36,13.76 114.83,12.54 113.03,11.85 111.22,11.13 109.2,10.91 107.18,10.63 L 107.18,10.53 C 109.2,10.27 111.32,10.26 113.37,10.91 114.38,11.25 115.34,11.79 116.15,12.48 116.96,13.18 117.65,13.98 118.27,14.81 119.5,16.47 120.53,18.24 121.56,19.99 L 124.6,25.29 124.51,25.34 Z M 124.51,25.34" />
        </g>
        <g id="jonnieTop04-group309">
            <path id="jonnieTop04-bezier305" stroke="none" fill="rgb(0, 0, 0)" d="M 101.34,78.93 C 101.77,79.92 102.44,80.79 103.16,81.59 103.87,82.39 104.66,83.11 105.51,83.77 106.35,84.43 107.3,84.94 108.16,85.58 109.02,86.21 109.91,86.82 110.76,87.55 L 110.72,87.64 C 109.62,87.41 108.59,86.96 107.62,86.42 106.64,85.89 105.81,85.13 104.99,84.38 104.18,83.62 103.43,82.79 102.77,81.9 102.13,80.99 101.56,80.03 101.25,78.96 L 101.34,78.93 Z M 101.34,78.93" />
        </g>
        <g id="jonnieTop04-group310">
            <path id="jonnieTop04-bezier306" stroke="none" fill="rgb(0, 0, 0)" d="M 110.78,87.52 C 111.94,88.75 113.65,89.35 115.31,89.43 117,89.53 118.62,89.08 120.23,88.53 123.49,87.51 126.78,86.6 130.12,85.86 131.79,85.48 133.47,85.15 135.18,84.9 136.88,84.66 138.61,84.51 140.38,84.67 142.07,84.95 143.7,85.04 145.27,84.57 146.03,84.34 146.76,83.94 147.27,83.33 147.81,82.73 148.05,81.9 147.99,81.06 L 148.09,81.04 C 148.31,81.88 148.15,82.85 147.64,83.6 147.12,84.36 146.33,84.89 145.5,85.23 143.83,85.9 141.94,85.84 140.29,85.66 138.66,85.56 136.97,85.7 135.3,85.88 133.63,86.06 131.95,86.33 130.29,86.64 126.96,87.28 123.65,88.09 120.38,89.01 118.76,89.49 117.02,89.9 115.29,89.73 113.57,89.58 111.85,88.89 110.7,87.58 L 110.78,87.52 Z M 110.78,87.52" />
        </g>
        <g id="jonnieTop04-group311">
            <path id="jonnieTop04-bezier307" stroke="none" fill="rgb(0, 0, 0)" d="M 141.82,77.34 C 142.5,77.63 143.2,77.87 143.91,78 144.27,78.06 144.63,78.1 144.98,78.06 145.32,78.03 145.66,77.89 145.8,77.62 146.12,77 145.82,76.3 145.29,75.85 144.77,75.38 144.12,75.02 143.5,74.62 143.18,74.41 142.87,74.19 142.58,73.89 142.55,73.85 142.51,73.81 142.48,73.77 142.47,73.76 142.42,73.7 142.45,73.74 L 142.4,73.69 C 142.36,73.63 142.36,73.67 142.38,73.67 142.38,73.67 142.37,73.67 142.37,73.67 142.32,73.67 142.17,73.75 142.05,73.86 141.54,74.3 141.06,74.9 140.54,75.43 139.51,76.51 138.3,77.5 136.85,78.09 136.13,78.38 135.37,78.57 134.58,78.65 133.83,78.71 133.06,78.69 132.31,78.66 130.82,78.59 129.34,78.4 127.88,78.2 124.96,77.75 122.06,77.27 119.13,76.86 L 119.14,76.75 C 122.11,76.59 125.07,76.94 128,77.21 129.47,77.37 130.93,77.54 132.38,77.67 133.11,77.74 133.81,77.78 134.53,77.75 135.21,77.72 135.91,77.58 136.56,77.34 137.88,76.86 139.04,75.98 140.08,74.97 140.61,74.47 141.08,73.92 141.69,73.41 141.86,73.29 142.02,73.14 142.35,73.11 142.43,73.11 142.53,73.13 142.61,73.17 142.7,73.21 142.79,73.29 142.8,73.31 L 142.85,73.36 142.91,73.44 C 142.93,73.47 142.95,73.5 142.98,73.53 143.2,73.77 143.48,73.99 143.78,74.2 144.37,74.63 145.01,75.02 145.56,75.56 145.84,75.84 146.08,76.17 146.2,76.57 146.31,76.97 146.27,77.4 146.06,77.77 145.83,78.15 145.38,78.29 145,78.31 144.61,78.34 144.23,78.28 143.87,78.19 143.14,78.02 142.45,77.75 141.78,77.43 L 141.82,77.34 Z M 141.82,77.34" />
        </g>
        <g id="jonnieTop04-group312">
            <path id="jonnieTop04-bezier308" stroke="none" fill="rgb(0, 0, 0)" d="M 117.79,81.06 C 117.34,79.45 116.87,77.85 116.39,76.26 116.15,75.47 115.82,74.7 115.65,73.91 L 115.38,72.72 C 115.33,72.53 115.28,72.33 115.22,72.16 115.2,72.07 115.16,71.99 115.13,71.95 115.12,71.9 115.06,71.89 114.97,71.96 L 114.89,71.9 C 114.89,71.8 115.04,71.62 115.24,71.68 115.41,71.73 115.5,71.82 115.59,71.9 115.77,72.07 115.9,72.25 116.02,72.44 116.26,72.82 116.44,73.21 116.6,73.6 116.92,74.4 117.01,75.25 117.17,76.07 117.48,77.72 117.72,79.38 117.89,81.04 L 117.79,81.06 Z M 117.79,81.06" />
        </g>
        <g id="jonnieTop04-group313">
            <path id="jonnieTop04-bezier309" stroke="none" fill="rgb(0, 0, 0)" d="M 130.82,34.3 C 131.22,33.62 131.45,32.86 131.57,32.1 131.7,31.34 131.71,30.57 131.63,29.82 131.56,29.05 131.31,28.33 131.18,27.58 131.05,26.83 130.89,26.07 130.81,25.24 L 130.9,25.2 C 131.48,25.81 131.87,26.55 132.15,27.33 132.43,28.11 132.45,28.96 132.43,29.78 132.41,31.43 131.95,33.11 130.89,34.36 L 130.82,34.3 Z M 130.82,34.3" />
        </g>
        <g id="jonnieTop04-group314">
            <path id="jonnieTop04-bezier310" stroke="none" fill="rgb(0, 0, 0)" d="M 130.83,24.21 C 129.06,23.43 127.29,22.64 125.53,21.83 124.65,21.42 123.73,21.09 122.9,20.59 122.07,20.09 121.26,19.56 120.52,18.87 L 120.56,18.78 C 121.55,18.97 122.47,19.32 123.36,19.7 124.25,20.07 125.06,20.63 125.9,21.12 127.58,22.09 129.24,23.09 130.88,24.12 L 130.83,24.21 Z M 130.83,24.21" />
        </g>
        <g id="jonnieTop04-group315">
            <path id="jonnieTop04-bezier311" stroke="none" fill="rgb(0, 0, 0)" d="M 131.43,35.1 C 132.43,35.01 133.42,34.88 134.41,34.77 135.39,34.67 136.38,34.47 137.28,34.25 137.72,34.16 138.24,34.04 138.17,33.98 138.19,33.52 138.15,33.05 137.94,32.71 137.74,32.37 137.3,32.18 136.84,32.06 136.37,31.94 135.87,31.89 135.37,31.82 L 135.37,31.72 C 135.87,31.68 136.38,31.66 136.89,31.71 137.4,31.75 138,31.89 138.39,32.38 138.78,32.86 138.86,33.45 138.9,33.97 L 138.9,34.06 C 138.91,34.14 138.91,34.21 138.89,34.27 138.86,34.41 138.79,34.52 138.72,34.6 138.59,34.77 138.45,34.86 138.31,34.94 138.04,35.1 137.78,35.19 137.52,35.26 136.99,35.38 136.47,35.38 135.96,35.39 135.45,35.4 134.94,35.4 134.44,35.39 133.43,35.38 132.43,35.28 131.43,35.2 L 131.43,35.1 Z M 131.43,35.1" />
        </g>
        <g id="jonnieTop04-group316">
            <path id="jonnieTop04-bezier312" stroke="none" fill="rgb(0, 0, 0)" d="M 137.49,29.73 C 137.27,28.94 136.95,28.18 136.56,27.48 136.18,26.77 135.71,26.11 135.17,25.56 134.61,25.01 133.94,24.66 133.3,24.31 132.64,23.94 131.91,23.72 131.09,23.46 L 131.09,23.36 C 131.9,23.07 132.84,23.08 133.69,23.39 134.57,23.67 135.22,24.36 135.76,25.03 136.84,26.41 137.39,28.06 137.59,29.71 L 137.49,29.73 Z M 137.49,29.73" />
        </g>
        <g id="jonnieTop04-group317">
            <path id="jonnieTop04-bezier313" stroke="none" fill="rgb(0, 0, 0)" d="M 96.12,73.43 C 91.23,73.04 86.35,72.4 81.52,71.4 79.11,70.9 76.68,70.37 74.37,69.43 73.23,68.94 72.09,68.42 71.04,67.71 70.02,67.01 68.97,66.13 68.58,64.9 L 68.67,64.86 C 68.99,65.39 69.4,65.82 69.88,66.17 70.35,66.54 70.86,66.84 71.4,67.11 72.46,67.66 73.58,68.12 74.72,68.5 77.01,69.28 79.33,70.02 81.7,70.62 84.07,71.21 86.47,71.71 88.88,72.15 91.28,72.61 93.7,73.01 96.13,73.33 L 96.12,73.43 Z M 96.12,73.43" />
        </g>
        <g id="jonnieTop04-group318">
            <path id="jonnieTop04-bezier314" stroke="none" fill="rgb(0, 0, 0)" d="M 76.76,50.22 C 75.48,50.63 74.21,51.08 73.03,51.65 72.44,51.93 71.92,52.32 71.36,52.6 70.79,52.89 70.27,53.19 69.67,53.58 L 69.59,53.52 C 69.74,52.8 70.25,52.2 70.81,51.76 71.38,51.31 72.08,51.12 72.73,50.9 74.05,50.48 75.39,50.26 76.74,50.12 L 76.76,50.22 Z M 76.76,50.22" />
        </g>
        <g id="jonnieTop04-group319">
            <path id="jonnieTop04-bezier315" stroke="none" fill="rgb(0, 0, 0)" d="M 47.05,52.33 C 50.61,51.73 54.19,51.3 57.8,51 59.6,50.85 61.4,50.66 63.22,50.7 65.02,50.75 66.84,50.87 68.63,51.23 L 68.62,51.33 C 66.81,51.52 65.02,51.61 63.23,51.7 61.44,51.79 59.64,51.75 57.84,51.8 54.25,51.92 50.65,52.12 47.06,52.43 L 47.05,52.33 Z M 47.05,52.33" />
        </g>
        <g id="jonnieTop04-group320">
            <path id="jonnieTop04-bezier316" stroke="none" fill="rgb(0, 0, 0)" d="M 47.1,61.19 C 46.72,60.06 46.5,58.86 46.41,57.66 46.37,57.05 46.27,56.44 46.41,55.84 46.53,55.24 46.74,54.64 47.14,54.13 L 47.24,54.15 C 47.37,54.79 47.39,55.36 47.4,55.94 47.42,56.51 47.26,57.08 47.21,57.66 47.12,58.81 47.1,59.99 47.19,61.17 L 47.1,61.19 Z M 47.1,61.19" />
        </g>
        <g id="jonnieTop04-group321">
            <path id="jonnieTop04-bezier317" stroke="none" fill="rgb(0, 0, 0)" d="M 67.73,67.77 L 57.22,65.36 C 55.47,64.97 53.7,64.65 51.97,64.17 50.24,63.7 48.53,63.18 46.8,62.65 L 46.82,62.55 C 48.64,62.55 50.43,62.86 52.2,63.2 53.97,63.55 55.69,64.09 57.42,64.58 60.88,65.56 64.33,66.59 67.76,67.67 L 67.73,67.77 Z M 67.73,67.77" />
        </g>
        <g id="jonnieTop04-group322">
            <path id="jonnieTop04-bezier318" stroke="none" fill="rgb(0, 0, 0)" d="M 46.3,61.6 C 45.17,61.63 44.03,61.71 42.91,61.8 42.35,61.85 41.79,61.99 41.23,61.94 40.67,61.9 40.1,61.83 39.51,61.6 L 39.5,61.5 C 40.05,61.18 40.62,61.04 41.19,60.94 41.76,60.84 42.34,60.96 42.91,61 44.05,61.09 45.2,61.24 46.32,61.5 L 46.3,61.6 Z M 46.3,61.6" />
        </g>
        <g id="jonnieTop04-group323">
            <path id="jonnieTop04-bezier319" stroke="none" fill="rgb(0, 0, 0)" d="M 46.31,53.6 C 45.19,53.82 44.06,53.99 42.91,54.09 42.34,54.15 41.77,54.28 41.19,54.19 40.62,54.1 40.03,53.96 39.5,53.6 L 39.52,53.5 C 40.11,53.32 40.66,53.23 41.22,53.19 41.78,53.13 42.34,53.26 42.9,53.29 L 46.31,53.5 46.31,53.6 Z M 46.31,53.6" />
        </g>
        <g id="jonnieTop04-group324">
            <path id="jonnieTop04-bezier320" stroke="none" fill="rgb(0, 0, 0)" d="M 44.71,51.23 C 42.11,51.14 39.47,51.27 36.99,51.93 35.77,52.27 34.54,52.77 33.73,53.67 33.33,54.11 33.09,54.66 33.04,55.23 32.97,55.86 32.97,56.49 33.03,57.11 33.16,58.35 33.57,59.55 34.3,60.51 35.02,61.47 36.02,62.19 37.16,62.65 39.45,63.61 42.11,63.6 44.7,63.5 L 44.72,63.6 C 42.19,64.26 39.43,64.47 36.8,63.58 35.51,63.11 34.29,62.26 33.49,61.09 32.69,59.92 32.3,58.53 32.23,57.18 32.19,56.5 32.22,55.82 32.32,55.15 32.41,54.43 32.76,53.74 33.25,53.23 34.26,52.21 35.59,51.76 36.87,51.45 39.47,50.9 42.11,50.91 44.71,51.13 L 44.71,51.23 Z M 44.71,51.23" />
        </g>
        <g id="jonnieTop04-group325">
            <path id="jonnieTop04-bezier321" stroke="none" fill="rgb(0, 0, 0)" d="M 105.76,10.63 C 103.35,10.69 100.95,10.9 98.57,11.23 96.19,11.54 93.83,11.99 91.55,12.67 89.29,13.38 87.08,14.34 85.3,15.76 84.4,16.46 83.67,17.36 83.24,18.41 82.81,19.46 82.74,20.66 82.88,21.85 L 82.79,21.87 C 82.36,20.73 82.24,19.43 82.58,18.19 82.91,16.94 83.72,15.86 84.65,15 86.57,13.3 89,12.52 91.34,11.9 93.7,11.3 96.11,10.95 98.52,10.73 100.93,10.53 103.35,10.46 105.76,10.53 L 105.76,10.63 Z M 105.76,10.63" />
        </g>
        <g id="jonnieTop04-group326">
            <path id="jonnieTop04-bezier322" stroke="none" fill="rgb(0, 0, 0)" d="M 94.23,68.91 C 90.6,67.25 87.68,64.15 86.04,60.49 85.22,58.65 84.69,56.69 84.44,54.69 84.23,52.7 84.08,50.73 83.95,48.75 83.7,44.78 83.52,40.8 83.74,36.82 83.87,34.83 84.04,32.84 84.37,30.87 84.7,28.9 85.12,26.92 85.97,25.11 L 86.07,25.14 C 85.49,27.04 85.25,29 85.06,30.96 84.88,32.92 84.77,34.89 84.74,36.86 84.65,40.8 84.61,44.75 84.75,48.71 84.83,50.68 84.93,52.67 85.09,54.62 85.28,56.56 85.74,58.48 86.5,60.29 87.98,63.9 90.73,67.04 94.27,68.82 L 94.23,68.91 Z M 94.23,68.91" />
        </g>
        <g id="jonnieTop04-group327">
            <path id="jonnieTop04-bezier323" stroke="none" fill="rgb(0, 0, 0)" d="M 90.3,23.85 C 89.98,27.17 89.89,30.52 89.93,33.85 89.96,37.18 90.14,40.51 90.52,43.82 90.9,47.13 91.53,50.39 92.25,53.62 92.96,56.86 93.95,60.03 95.17,63.14 L 95.08,63.19 C 93.33,60.31 92.17,57.1 91.28,53.86 90.41,50.6 90,47.24 89.72,43.9 89.44,40.55 89.35,37.2 89.43,33.85 89.52,30.5 89.75,27.16 90.2,23.84 L 90.3,23.85 Z M 90.3,23.85" />
        </g>
        <g id="jonnieTop04-group328">
            <path id="jonnieTop04-bezier324" stroke="none" fill="rgb(0, 0, 0)" d="M 116.07,77.12 C 114.89,78.03 113.45,78.55 112.01,78.9 110.55,79.23 109.05,79.34 107.55,79.32 106.06,79.29 104.55,79.18 103.1,78.79 101.66,78.4 100.26,77.87 98.96,77.12 L 99,77.03 C 100.47,77.26 101.89,77.57 103.32,77.81 104.74,78.06 106.15,78.39 107.59,78.52 109.03,78.64 110.48,78.63 111.91,78.41 113.34,78.2 114.78,77.82 116.01,77.04 L 116.07,77.12 Z M 116.07,77.12" />
        </g>
        <g id="jonnieTop04-group329">
            <path id="jonnieTop04-bezier325" stroke="none" fill="rgb(0, 0, 0)" d="M 84.11,14.11 C 82.51,14.66 80.93,15.23 79.39,15.87 78.61,16.18 77.89,16.6 77.13,16.89 76.38,17.21 75.59,17.41 74.99,17.97 L 74.9,17.93 C 74.95,17.45 75.29,17.06 75.61,16.76 75.94,16.45 76.32,16.21 76.69,15.99 77.45,15.54 78.3,15.35 79.12,15.11 80.76,14.64 82.41,14.28 84.09,14.01 L 84.11,14.11 Z M 84.11,14.11" />
        </g>
        <g id="jonnieTop04-group330">
            <path id="jonnieTop04-bezier326" stroke="none" fill="rgb(0, 0, 0)" d="M 82.62,23.49 C 81.28,23.58 79.93,23.58 78.58,23.45 77.91,23.39 77.21,23.38 76.55,23.11 75.93,22.84 75.21,22.47 74.91,21.75 L 74.99,21.69 C 75.62,21.95 76.21,22.01 76.84,22.15 77.46,22.26 78.07,22.51 78.71,22.66 79.99,22.96 81.3,23.19 82.62,23.39 L 82.62,23.49 Z M 82.62,23.49" />
        </g>
        <g id="jonnieTop04-group331">
            <path id="jonnieTop04-bezier327" stroke="none" fill="rgb(0, 0, 0)" d="M 74.1,18.48 C 73.74,18.89 73.48,19.43 73.58,19.76 73.62,19.94 73.8,20.01 73.85,20.21 73.92,20.4 74.03,20.64 74.1,21.02 L 74.04,21.1 C 73.66,21.17 73.34,21.06 73.06,20.82 72.78,20.59 72.71,20.12 72.78,19.75 72.84,19.36 73.05,19.06 73.27,18.85 73.51,18.64 73.77,18.5 74.04,18.4 L 74.1,18.48 Z M 74.1,18.48" />
        </g>
    </g>
</svg>
