<?xml version="1.0" encoding="UTF-8"?>
<!DOCTYPE svg PUBLIC "-//W3C//DTD SVG 1.1//EN" "http://www.w3.org/Graphics/SVG/1.1/DTD/svg11.dtd">
<svg version="1.1" xmlns="http://www.w3.org/2000/svg" xmlns:xlink="http://www.w3.org/1999/xlink" width="180" height="100"  xml:space="preserve" id="jonnieTop07">
    <!-- Generated by PaintCode - http://www.paintcodeapp.com -->
    <g id="jonnieTop07-group">
        <g id="jonnieTop07-group378">
            <path id="jonnieTop07-bezier374" stroke="none" fill="rgb(0, 0, 0)" d="M 96.68,58.3 C 96.68,60.5 97.12,62.69 97.98,64.71 98.85,66.72 100.14,68.55 101.72,70.06 104.88,73.1 109.24,74.79 113.59,74.72 117.93,74.71 122.23,72.95 125.3,69.9 128.4,66.89 130.2,62.6 130.15,58.31 130.14,53.99 128.29,49.77 125.18,46.82 122.13,43.82 117.86,42.11 113.59,42.13 109.3,42.07 105.01,43.7 101.83,46.66 100.25,48.13 98.94,49.93 98.05,51.92 97.17,53.92 96.7,56.1 96.68,58.3 Z M 96.58,58.3 C 96.51,53.88 98.32,49.46 101.46,46.27 103.03,44.68 104.91,43.38 106.99,42.5 109.07,41.62 111.33,41.16 113.58,41.13 118.13,41.11 122.63,42.93 125.87,46.11 129.12,49.28 131.01,53.79 130.95,58.3 130.95,62.83 129.01,67.27 125.75,70.37 122.53,73.5 118.06,75.27 113.59,75.22 109.12,75.19 104.71,73.36 101.57,70.21 98.42,67.1 96.56,62.72 96.58,58.3 Z M 96.58,58.3" />
        </g>
        <g id="jonnieTop07-group379">
            <path id="jonnieTop07-bezier375" stroke="none" fill="rgb(0, 0, 0)" d="M 130.98,60.29 C 131.49,60.05 131.98,59.74 132.39,59.39 132.8,59.05 133.15,58.6 133.13,58.22 133.13,57.82 132.81,57.68 132.42,57.4 132.02,57.13 131.52,56.89 130.99,56.56 L 131,56.46 C 131.61,56.25 132.24,56.27 132.86,56.5 133.18,56.61 133.48,56.83 133.71,57.16 133.93,57.5 134.01,57.95 133.93,58.32 133.75,59.09 133.17,59.5 132.67,59.8 132.14,60.08 131.58,60.26 131.01,60.39 L 130.98,60.29 Z M 130.98,60.29" />
        </g>
        <g id="jonnieTop07-group380">
            <path id="jonnieTop07-bezier376" stroke="none" fill="rgb(0, 0, 0)" d="M 94.73,42.86 L 97.01,33.44 C 97.4,31.87 97.75,30.3 98.09,28.69 98.39,27.09 99.05,25.55 100.09,24.23 L 100.18,24.27 C 99.95,25.92 99.56,27.46 98.94,28.94 98.37,30.44 98.01,32.03 97.56,33.58 96.68,36.69 95.75,39.79 94.83,42.89 L 94.73,42.86 Z M 94.73,42.86" />
        </g>
        <g id="jonnieTop07-group381">
            <path id="jonnieTop07-bezier377" stroke="none" fill="rgb(0, 0, 0)" d="M 139.99,65.82 C 140.72,66.3 141.33,66.96 141.78,67.74 142.21,68.53 142.44,69.45 142.43,70.37 142.42,71.29 142.26,72.23 141.8,73.02 141.35,73.81 140.75,74.5 140,75 L 139.92,74.94 C 140.24,74.1 140.61,73.35 140.9,72.59 141.18,71.84 141.53,71.12 141.63,70.32 141.84,68.75 141.18,67.05 139.93,65.9 L 139.99,65.82 Z M 139.99,65.82" />
        </g>
        <g id="jonnieTop07-group382">
            <path id="jonnieTop07-bezier378" stroke="none" fill="rgb(0, 0, 0)" d="M 139.97,76.06 C 137.01,77.12 134.03,78.13 131.04,79.1 129.55,79.6 128.07,80.15 126.54,80.52 125.02,80.9 123.48,81.23 121.89,81.4 L 121.86,81.31 C 123.3,80.61 124.78,80.07 126.26,79.56 127.75,79.06 129.29,78.73 130.81,78.33 133.85,77.53 136.9,76.74 139.95,75.97 L 139.97,76.06 Z M 139.97,76.06" />
        </g>
        <g id="jonnieTop07-group383">
            <path id="jonnieTop07-bezier379" stroke="none" fill="rgb(0, 0, 0)" d="M 139.58,65.51 C 138,65.43 136.41,65.33 134.83,65.2 134.04,65.14 133.24,65.16 132.46,64.98 131.69,64.81 130.92,64.59 130.17,64.22 L 130.18,64.12 C 131,63.95 131.8,63.95 132.6,63.99 133.39,64.02 134.16,64.26 134.94,64.41 136.5,64.71 138.05,65.04 139.6,65.41 L 139.58,65.51 Z M 139.58,65.51" />
        </g>
        <g id="jonnieTop07-group384">
            <path id="jonnieTop07-bezier380" stroke="none" fill="rgb(0, 0, 0)" d="M 140.76,64.99 C 141.76,64.9 142.76,64.8 143.77,64.79 144.28,64.78 144.78,64.78 145.29,64.79 145.8,64.81 146.32,64.8 146.85,64.93 147.11,64.99 147.37,65.09 147.64,65.24 147.78,65.32 147.92,65.42 148.06,65.58 148.12,65.66 148.19,65.78 148.22,65.91 148.24,65.98 148.24,66.05 148.24,66.12 L 148.23,66.22 C 148.19,66.74 148.12,67.32 147.73,67.81 147.33,68.29 146.73,68.43 146.23,68.48 145.71,68.52 145.21,68.5 144.7,68.46 L 144.7,68.36 C 145.2,68.3 145.7,68.24 146.17,68.13 146.64,68.01 147.07,67.81 147.27,67.47 147.48,67.13 147.52,66.67 147.51,66.2 147.57,66.15 147.05,66.02 146.62,65.94 145.71,65.72 144.72,65.51 143.74,65.41 142.75,65.31 141.76,65.18 140.76,65.09 L 140.76,64.99 Z M 140.76,64.99" />
        </g>
        <g id="jonnieTop07-group385">
            <path id="jonnieTop07-bezier381" stroke="none" fill="rgb(0, 0, 0)" d="M 146.92,70.48 C 146.73,72.12 146.18,73.77 145.1,75.15 144.56,75.82 143.9,76.51 143.03,76.8 142.18,77.11 141.24,77.12 140.42,76.82 L 140.43,76.72 C 141.25,76.46 141.98,76.24 142.63,75.88 143.28,75.53 143.95,75.17 144.5,74.62 145.05,74.07 145.51,73.42 145.89,72.71 146.28,72 146.6,71.25 146.82,70.46 L 146.92,70.48 Z M 146.92,70.48" />
        </g>
        <g id="jonnieTop07-group386">
            <path id="jonnieTop07-bezier382" stroke="none" fill="rgb(0, 0, 0)" d="M 41.37,47.08 C 43.14,46.92 44.9,47.08 46.66,47.18 L 51.92,47.57 C 55.43,47.85 58.94,48.12 62.45,48.32 65.96,48.52 69.47,48.6 72.98,48.76 L 83.52,49.21 83.52,49.31 C 80.01,49.71 76.48,49.77 72.95,49.76 69.42,49.73 65.9,49.43 62.39,49.12 58.88,48.82 55.38,48.45 51.88,48.06 L 46.63,47.48 C 44.88,47.31 43.13,47.09 41.38,47.17 L 41.37,47.08 Z M 41.37,47.08" />
        </g>
        <g id="jonnieTop07-group387">
            <path id="jonnieTop07-bezier383" stroke="none" fill="rgb(0, 0, 0)" d="M 40.67,38.99 C 41.29,40 41.66,41.19 41.76,42.42 41.8,43.02 41.87,43.67 41.67,44.26 41.48,44.86 41.18,45.43 40.68,45.85 L 40.59,45.8 C 40.59,45.16 40.65,44.62 40.69,44.06 40.73,43.51 40.92,42.98 40.96,42.42 41.04,41.3 40.93,40.15 40.58,39.03 L 40.67,38.99 Z M 40.67,38.99" />
        </g>
        <g id="jonnieTop07-group388">
            <path id="jonnieTop07-bezier384" stroke="none" fill="rgb(0, 0, 0)" d="M 88.17,32.52 C 84.32,32.62 80.47,32.91 76.63,33.28 72.8,33.63 68.97,34.09 65.16,34.65 61.34,35.21 57.56,35.93 53.77,36.59 49.97,37.22 46.2,37.99 42.4,38.68 L 42.37,38.58 C 46.04,37.34 49.8,36.42 53.58,35.61 57.37,34.81 61.21,34.31 65.05,33.85 72.73,32.94 80.45,32.39 88.17,32.42 L 88.17,32.52 Z M 88.17,32.52" />
        </g>
        <g id="jonnieTop07-group389">
            <path id="jonnieTop07-bezier385" stroke="none" fill="rgb(0, 0, 0)" d="M 39.94,39.06 C 38.18,39.53 36.37,39.75 34.54,39.78 33.63,39.79 32.7,39.84 31.79,39.64 30.9,39.45 30.01,39.17 29.2,38.68 L 29.23,38.58 C 30.16,38.54 31.05,38.6 31.93,38.65 32.81,38.7 33.68,38.9 34.57,38.98 35.45,39.06 36.34,39.09 37.23,39.09 38.13,39.09 39.03,39.07 39.92,38.96 L 39.94,39.06 Z M 39.94,39.06" />
        </g>
        <g id="jonnieTop07-group390">
            <path id="jonnieTop07-bezier386" stroke="none" fill="rgb(0, 0, 0)" d="M 39.92,47.13 C 38.13,47.1 36.34,47.07 34.55,47.06 33.66,47.05 32.77,47.14 31.89,47.06 31,46.98 30.13,46.87 29.22,46.68 L 29.21,46.58 C 30.08,46.22 31,46.11 31.9,46.06 32.81,46 33.7,46.16 34.6,46.26 36.39,46.45 38.16,46.71 39.93,47.03 L 39.92,47.13 Z M 39.92,47.13" />
        </g>
        <g id="jonnieTop07-group391">
            <path id="jonnieTop07-bezier387" stroke="none" fill="rgb(0, 0, 0)" d="M 31.05,49.05 C 30.1,49.19 29.14,49.22 28.17,49.12 27.21,49.02 26.24,48.78 25.38,48.25 24.51,47.73 23.85,46.83 23.6,45.83 23.47,45.33 23.44,44.82 23.41,44.35 23.38,43.86 23.37,43.37 23.39,42.88 23.41,41.9 23.53,40.92 23.8,39.94 24.08,38.98 24.57,38.03 25.34,37.29 26.11,36.56 27.15,36.12 28.16,36.07 29.18,36 30.16,36.22 31.06,36.59 L 31.03,36.68 C 30.08,36.59 29.14,36.56 28.26,36.76 27.39,36.96 26.61,37.37 26.04,38 24.89,39.25 24.35,41.09 24.19,42.93 24.15,43.39 24.13,43.86 24.14,44.32 24.14,44.8 24.14,45.25 24.24,45.68 24.41,46.55 24.91,47.32 25.66,47.83 27.16,48.87 29.18,49.07 31.04,48.95 L 31.05,49.05 Z M 31.05,49.05" />
        </g>
        <g id="jonnieTop07-group392">
            <path id="jonnieTop07-bezier388" stroke="none" fill="rgb(0, 0, 0)" d="M 96.28,31.07 C 92.59,32.68 89.67,35.78 88.05,39.4 87.22,41.2 86.72,43.15 86.48,45.11 86.27,47.08 86.19,49.11 86.1,51.11 85.95,55.12 85.98,59.14 86.06,63.14 86.09,65.15 86.2,67.14 86.38,69.14 86.57,71.12 86.82,73.12 87.4,75.04 L 87.3,75.08 C 86.45,73.23 86.02,71.22 85.69,69.22 85.36,67.22 85.2,65.2 85.07,63.18 84.85,59.14 85.04,55.09 85.3,51.07 85.45,49.05 85.57,47.05 85.83,45.03 86.13,43 86.7,41.02 87.6,39.18 89.39,35.52 92.47,32.48 96.24,30.98 L 96.28,31.07 Z M 96.28,31.07" />
        </g>
        <g id="jonnieTop07-group511">
            <path id="jonnieTop07-bezier509" stroke="none" fill="rgb(0, 0, 0)" d="M 76.1,84.26 C 75.27,83.71 74.35,83.26 73.45,82.82 72.55,82.39 71.63,81.98 70.69,81.72 70.25,81.6 69.72,81.51 69.45,81.62 L 69.14,81.74 C 69.01,81.79 68.88,81.84 68.75,81.87 68.49,81.95 68.21,82 67.94,82.02 67.38,82.06 66.78,82.02 66.24,81.71 65.67,81.41 65.39,80.75 65.46,80.23 L 65.56,80.21 C 66.01,81.21 66.92,81.2 67.81,81.03 68.03,80.99 68.25,80.93 68.47,80.87 L 68.81,80.78 C 68.93,80.74 69,80.71 69.22,80.65 69.96,80.56 70.43,80.79 70.95,80.96 71.93,81.35 72.82,81.85 73.69,82.38 74.55,82.95 75.39,83.5 76.17,84.18 L 76.1,84.26 Z M 76.1,84.26" />
        </g>
        <g id="jonnieTop07-group512">
            <path id="jonnieTop07-bezier510" stroke="none" fill="rgb(0, 0, 0)" d="M 70.95,77.55 C 70.5,77.14 69.96,76.79 69.49,76.74 69.24,76.71 69.1,76.85 68.91,76.85 L 68.03,76.98 67.96,76.91 C 67.95,76.5 68.17,76.15 68.52,75.93 68.89,75.69 69.4,75.81 69.74,75.97 70.44,76.32 70.79,76.91 71.03,77.5 L 70.95,77.55 Z M 70.95,77.55" />
        </g>
        <g id="jonnieTop07-group513">
            <path id="jonnieTop07-bezier511" stroke="none" fill="rgb(0, 0, 0)" d="M 69.58,77.6 C 70.94,77.27 72.33,77.01 73.73,76.84 74.43,76.76 75.14,76.61 75.86,76.7 76.56,76.81 77.36,76.94 77.92,77.52 L 77.87,77.61 C 77.17,77.57 76.52,77.67 75.83,77.7 75.16,77.75 74.47,77.65 73.78,77.64 72.39,77.63 70.99,77.66 69.59,77.7 L 69.58,77.6 Z M 69.58,77.6" />
        </g>
        <g id="jonnieTop07-group514">
            <path id="jonnieTop07-bezier512" stroke="none" fill="rgb(0, 0, 0)" d="M 120.39,28.56 C 121.96,29.21 123.27,30.37 124.28,31.74 125.27,33.14 125.92,34.76 126.27,36.44 126.63,38.11 126.75,39.85 126.53,41.54 126.3,43.23 125.86,44.88 125.16,46.42 L 125.06,46.4 C 125.24,44.72 125.45,43.08 125.54,41.45 125.62,39.82 125.72,38.2 125.48,36.58 125.25,34.98 124.73,33.41 123.86,32.02 123.01,30.64 121.83,29.41 120.35,28.65 L 120.39,28.56 Z M 120.39,28.56" />
        </g>
        <g id="jonnieTop07-group515">
            <path id="jonnieTop07-bezier513" stroke="none" fill="rgb(0, 0, 0)" d="M 85.31,78.77 C 85.85,77.77 86.65,76.88 87.61,76.21 88.56,75.54 89.61,75.04 90.69,74.62 91.77,74.22 92.86,73.81 94.01,73.66 95.15,73.5 96.3,73.43 97.45,73.57 L 97.47,73.67 C 96.38,74.08 95.28,74.35 94.2,74.64 93.12,74.93 92.01,75.07 90.95,75.38 89.88,75.69 88.83,76.08 87.87,76.63 86.9,77.16 86.05,77.9 85.39,78.82 L 85.31,78.77 Z M 85.31,78.77" />
        </g>
        <g id="jonnieTop07-group516">
            <path id="jonnieTop07-bezier514" stroke="none" fill="rgb(0, 0, 0)" d="M 125.02,74.82 L 121.98,80.11 C 120.95,81.87 119.93,83.63 118.69,85.29 118.07,86.12 117.39,86.93 116.58,87.62 115.76,88.32 114.8,88.86 113.79,89.2 111.74,89.85 109.63,89.84 107.6,89.58 L 107.6,89.48 C 109.62,89.19 111.65,88.97 113.45,88.26 115.25,87.57 116.79,86.34 118.06,84.8 119.34,83.25 120.45,81.55 121.56,79.85 L 124.94,74.76 125.02,74.82 Z M 125.02,74.82" />
        </g>
        <g id="jonnieTop07-group517">
            <path id="jonnieTop07-bezier515" stroke="none" fill="rgb(0, 0, 0)" d="M 101.67,21.15 C 101.99,20.08 102.56,19.12 103.19,18.21 103.85,17.31 104.6,16.49 105.42,15.73 106.23,14.98 107.06,14.22 108.04,13.68 109.02,13.14 110.04,12.7 111.14,12.47 L 111.19,12.56 C 110.33,13.29 109.45,13.9 108.58,14.53 107.72,15.16 106.78,15.68 105.94,16.34 105.09,16.99 104.29,17.72 103.58,18.52 102.87,19.32 102.2,20.19 101.77,21.17 L 101.67,21.15 Z M 101.67,21.15" />
        </g>
        <g id="jonnieTop07-group518">
            <path id="jonnieTop07-bezier516" stroke="none" fill="rgb(0, 0, 0)" d="M 109.13,12.52 C 110.78,11.1 112.97,10.53 115.09,10.38 117.24,10.22 119.4,10.6 121.46,11.09 125.61,11.99 129.79,12.79 133.98,13.42 138.17,14.02 142.41,14.52 146.59,14.47 147.6,14.46 148.69,14.31 149.79,14.34 150.87,14.35 151.97,14.44 153.03,14.71 154.09,14.97 155.15,15.38 156.02,16.09 156.89,16.79 157.43,18 157.09,19.07 L 156.99,19.05 C 157.15,17.99 156.58,17 155.74,16.45 154.91,15.87 153.9,15.56 152.89,15.39 151.87,15.23 150.83,15.16 149.79,15.2 148.75,15.22 147.74,15.4 146.63,15.47 142.28,15.66 138.05,14.92 133.85,14.21 129.65,13.48 125.48,12.58 121.34,11.58 119.29,11.02 117.22,10.59 115.1,10.68 113.02,10.76 110.85,11.26 109.2,12.59 L 109.13,12.52 Z M 109.13,12.52" />
        </g>
        <g id="jonnieTop07-group519">
            <path id="jonnieTop07-bezier517" stroke="none" fill="rgb(0, 0, 0)" d="M 149.02,22.68 C 149.88,22.35 150.77,22.08 151.68,21.91 152.13,21.83 152.6,21.77 153.07,21.79 153.54,21.81 154.07,21.89 154.43,22.3 154.78,22.71 154.79,23.33 154.52,23.77 154.26,24.22 153.87,24.52 153.48,24.79 152.7,25.31 151.85,25.69 151.08,26.16 150.89,26.27 150.71,26.4 150.54,26.53 150.45,26.61 150.41,26.64 150.3,26.76 150.24,26.8 150.24,26.83 150.14,26.88 150.05,26.94 149.95,26.97 149.86,26.98 149.5,27.02 149.26,26.87 149.04,26.75 148.83,26.62 148.63,26.48 148.44,26.34 147.7,25.77 147.01,25.19 146.27,24.67 144.8,23.63 143.15,22.85 141.4,22.52 139.66,22.2 137.84,22.35 136.02,22.49 L 130.54,22.97 C 126.88,23.23 123.19,23.56 119.5,23.36 L 119.5,23.26 C 123.16,22.88 126.79,22.42 130.44,21.98 132.27,21.78 134.11,21.59 135.95,21.5 137.79,21.43 139.68,21.33 141.56,21.74 143.42,22.14 145.15,23.02 146.65,24.14 147.4,24.69 148.1,25.32 148.79,25.89 149.12,26.15 149.55,26.47 149.79,26.44 149.83,26.45 149.83,26.44 149.84,26.44 149.85,26.45 149.92,26.38 149.96,26.35 150,26.3 150.13,26.19 150.22,26.12 150.42,25.97 150.62,25.84 150.83,25.73 151.65,25.27 152.5,24.92 153.26,24.45 153.64,24.22 154,23.94 154.22,23.6 154.45,23.27 154.44,22.79 154.2,22.49 153.96,22.18 153.5,22.07 153.06,22.04 152.61,22.01 152.16,22.05 151.71,22.11 150.81,22.25 149.92,22.48 149.05,22.77 L 149.02,22.68 Z M 149.02,22.68" />
        </g>
        <g id="jonnieTop07-group520">
            <path id="jonnieTop07-bezier518" stroke="none" fill="rgb(0, 0, 0)" d="M 118.31,19.06 C 118.14,20.73 117.91,22.39 117.59,24.04 117.43,24.86 117.35,25.71 117.02,26.5 116.86,26.9 116.69,27.29 116.45,27.67 116.33,27.86 116.19,28.04 116.02,28.21 115.92,28.29 115.83,28.38 115.66,28.43 115.47,28.49 115.32,28.31 115.31,28.2 L 115.39,28.15 C 115.49,28.22 115.55,28.2 115.55,28.16 115.58,28.12 115.62,28.04 115.65,27.95 115.71,27.78 115.75,27.58 115.8,27.39 L 116.07,26.2 C 116.24,25.4 116.58,24.64 116.82,23.85 117.3,22.26 117.76,20.65 118.22,19.05 L 118.31,19.06 Z M 118.31,19.06" />
        </g>
        <g id="jonnieTop07-group521">
            <path id="jonnieTop07-bezier519" stroke="none" fill="rgb(0, 0, 0)" d="M 106.18,89.57 C 103.77,89.65 101.35,89.57 98.94,89.38 96.53,89.16 94.13,88.81 91.76,88.2 89.42,87.59 87,86.8 85.07,85.11 84.14,84.25 83.34,83.17 83.01,81.92 82.66,80.68 82.79,79.37 83.21,78.23 L 83.31,78.25 C 83.16,79.45 83.24,80.65 83.67,81.7 84.09,82.75 84.82,83.64 85.72,84.34 87.51,85.76 89.71,86.73 91.98,87.43 94.26,88.12 96.62,88.56 99,88.88 101.38,89.2 103.78,89.41 106.18,89.47 L 106.18,89.57 Z M 106.18,89.57" />
        </g>
        <g id="jonnieTop07-group522">
            <path id="jonnieTop07-bezier520" stroke="none" fill="rgb(0, 0, 0)" d="M 90.35,73.52 C 89.74,67.32 89.67,61.06 90.29,54.83 90.6,51.72 91.03,48.6 91.88,45.58 92.75,42.57 93.86,39.6 95.51,36.92 L 95.6,36.97 C 94.47,39.88 93.53,42.82 92.84,45.83 92.14,48.83 91.5,51.85 91.09,54.92 90.68,57.99 90.45,61.09 90.36,64.2 90.25,67.3 90.28,70.41 90.45,73.51 L 90.35,73.52 Z M 90.35,73.52" />
        </g>
        <g id="jonnieTop07-group523">
            <path id="jonnieTop07-bezier521" stroke="none" fill="rgb(0, 0, 0)" d="M 116.43,23.07 C 115.21,22.28 113.76,21.91 112.34,21.69 110.91,21.48 109.45,21.47 108.02,21.59 106.57,21.72 105.17,22.04 103.74,22.29 102.32,22.54 100.89,22.85 99.42,23.08 L 99.39,22.98 C 100.68,22.24 102.09,21.71 103.53,21.32 104.97,20.93 106.48,20.81 107.97,20.79 109.47,20.76 110.97,20.88 112.43,21.2 113.88,21.56 115.31,22.07 116.5,22.99 L 116.43,23.07 Z M 116.43,23.07" />
        </g>
        <g id="jonnieTop07-group524">
            <path id="jonnieTop07-bezier522" stroke="none" fill="rgb(0, 0, 0)" d="M 86.51,86.09 C 84.84,85.83 83.18,85.47 81.54,85 80.73,84.75 79.88,84.57 79.12,84.12 78.74,83.9 78.37,83.66 78.04,83.35 77.71,83.05 77.37,82.66 77.32,82.18 L 77.42,82.14 C 78.01,82.7 78.81,82.9 79.55,83.22 80.31,83.5 81.04,83.92 81.81,84.24 83.36,84.87 84.94,85.45 86.54,86 L 86.51,86.09 Z M 86.51,86.09" />
        </g>
        <g id="jonnieTop07-group525">
            <path id="jonnieTop07-bezier523" stroke="none" fill="rgb(0, 0, 0)" d="M 85.05,76.72 C 83.73,76.92 82.41,77.15 81.13,77.45 80.49,77.59 79.89,77.85 79.26,77.96 78.64,78.09 78.04,78.16 77.41,78.42 L 77.33,78.36 C 77.63,77.64 78.35,77.26 78.98,77 79.63,76.73 80.33,76.72 81.01,76.66 82.36,76.53 83.7,76.53 85.04,76.62 L 85.05,76.72 Z M 85.05,76.72" />
        </g>
        <g id="jonnieTop07-group526">
            <path id="jonnieTop07-bezier524" stroke="none" fill="rgb(0, 0, 0)" d="M 76.47,81.71 C 76.2,81.61 75.94,81.47 75.7,81.26 75.47,81.05 75.26,80.75 75.2,80.36 75.14,79.98 75.21,79.52 75.49,79.29 75.76,79.05 76.09,78.93 76.47,79 L 76.53,79.09 C 76.46,79.47 76.35,79.7 76.28,79.9 76.22,80.1 76.05,80.17 76,80.34 75.9,80.68 76.17,81.22 76.52,81.63 L 76.47,81.71 Z M 76.47,81.71" />
        </g>
        <path id="jonnieTop07-bezier525" stroke="rgb(0, 0, 0)" stroke-width="1" stroke-miterlimit="10" fill="none" d="M 68.59,78.8 C 68.59,78.8 66.23,79.32 66.07,78.24" />
    </g>
</svg>
