<?xml version="1.0" encoding="UTF-8"?>
<!DOCTYPE svg PUBLIC "-//W3C//DTD SVG 1.1//EN" "http://www.w3.org/Graphics/SVG/1.1/DTD/svg11.dtd">
<svg version="1.1" xmlns="http://www.w3.org/2000/svg" xmlns:xlink="http://www.w3.org/1999/xlink" width="180" height="300"  xml:space="preserve" id="jonnieSide09">
    <!-- Generated by PaintCode - http://www.paintcodeapp.com -->
    <g id="jonnieSide09-group">
        <g id="jonnieSide09-group344">
            <path id="jonnieSide09-bezier340" stroke="none" fill="rgb(0, 0, 0)" d="M 110.61,31.23 C 110.41,27.75 109.86,24.27 108.89,20.93 108.39,19.26 107.77,17.62 106.95,16.1 106.13,14.58 105.1,13.15 103.76,12.1 102.43,11.01 100.75,10.54 99.05,10.23 97.36,9.94 95.62,9.88 93.9,9.99 90.46,10.22 87.04,11.13 84.02,12.76 81.01,14.38 78.4,16.84 77.02,19.94 76.32,21.48 75.95,23.13 75.82,24.84 75.67,26.53 75.76,28.24 76.12,29.91 76.45,31.58 77.04,33.19 77.73,34.79 78.4,36.39 79.18,37.99 79.6,39.75 80.05,41.49 80.05,43.36 79.56,45.08 79.06,46.8 78.19,48.36 77.2,49.8 L 77.12,49.75 C 78.01,48.25 78.76,46.65 79.12,44.97 79.51,43.29 79.43,41.56 78.93,39.93 78.44,38.29 77.67,36.74 76.94,35.14 76.21,33.54 75.53,31.87 75.14,30.12 74.75,28.36 74.64,26.54 74.79,24.75 74.92,22.97 75.35,21.16 76.12,19.52 77.67,16.21 80.49,13.68 83.64,12.05 86.81,10.41 90.32,9.53 93.86,9.34 95.63,9.25 97.41,9.34 99.16,9.67 100.03,9.83 100.9,10.06 101.73,10.37 102.58,10.68 103.37,11.14 104.07,11.71 105.47,12.85 106.5,14.34 107.31,15.91 108.12,17.48 108.7,19.15 109.17,20.85 110.09,24.24 110.57,27.73 110.71,31.23 L 110.61,31.23 Z M 110.61,31.23" />
        </g>
        <g id="jonnieSide09-group345">
            <path id="jonnieSide09-bezier341" stroke="none" fill="rgb(0, 0, 0)" d="M 108.46,34.52 C 108.55,37.02 108.48,39.53 107.97,42.01 107.67,43.23 107.34,44.53 106.33,45.51 106.07,45.75 105.74,45.94 105.39,46.04 105.21,46.09 105.02,46.12 104.84,46.12 L 104.37,46.14 C 103.77,46.16 103.16,46.22 102.57,46.32 100.18,46.73 98.07,48.05 96.7,49.97 95.98,50.91 95.48,52.02 95.12,53.17 94.94,53.75 94.81,54.34 94.74,54.95 94.66,55.54 94.6,56.18 94.78,56.75 L 94.69,56.8 C 94.1,55.61 94.25,54.26 94.44,53.01 94.68,51.74 95.17,50.51 95.87,49.4 96.6,48.31 97.59,47.37 98.74,46.73 99.89,46.08 101.17,45.7 102.44,45.53 103.08,45.45 103.72,45.41 104.37,45.41 L 104.83,45.42 C 104.96,45.42 105.09,45.4 105.21,45.38 105.46,45.32 105.69,45.2 105.9,45.02 106.74,44.29 107.17,43.06 107.49,41.9 108.11,39.52 108.31,37.01 108.36,34.53 L 108.46,34.52 Z M 108.46,34.52" />
        </g>
        <g id="jonnieSide09-group346">
            <path id="jonnieSide09-bezier342" stroke="none" fill="rgb(0, 0, 0)" d="M 95.99,68.75 C 96.2,75.02 96.29,81.3 96.22,87.57 96.19,90.71 96.18,93.85 95.91,96.99 95.58,100.1 95.33,103.28 94.28,106.28 L 94.18,106.26 C 94.45,104.71 94.56,103.16 94.67,101.6 94.76,100.04 94.86,98.48 94.91,96.92 L 95.42,87.55 C 95.66,81.29 95.81,75.03 95.89,68.76 L 95.99,68.75 Z M 95.99,68.75" />
        </g>
        <g id="jonnieSide09-group347">
            <path id="jonnieSide09-bezier343" stroke="none" fill="rgb(0, 0, 0)" d="M 95.06,111.04 C 95.97,114.15 96.58,117.35 96.72,120.6 96.75,121.41 96.75,122.23 96.7,123.04 96.63,123.86 96.58,124.64 96.58,125.45 96.58,127.06 96.63,128.68 96.69,130.29 96.95,136.75 97.41,143.2 97.96,149.63 98.24,152.85 98.56,156.07 98.93,159.27 99.12,160.88 99.32,162.47 99.54,164.07 99.65,164.86 99.77,165.66 99.91,166.44 100.06,167.22 100.2,168.02 100.49,168.67 101.17,170.31 101.15,172.03 101.05,173.67 100.92,175.31 100.63,176.93 100.16,178.51 99.93,179.29 99.66,180.07 99.33,180.83 99.15,181.2 98.97,181.58 98.74,181.94 98.63,182.12 98.51,182.28 98.34,182.46 98.21,182.59 98,182.76 97.81,182.86 97,183.28 96.11,183.23 95.31,183.09 94.5,182.93 93.73,182.66 92.99,182.31 L 93.04,182.21 C 93.78,182.51 94.56,182.72 95.35,182.81 96.13,182.9 96.96,182.86 97.58,182.47 97.74,182.36 97.85,182.28 98,182.12 98.09,182 98.21,181.83 98.3,181.66 98.49,181.33 98.65,180.97 98.79,180.6 99.08,179.86 99.3,179.1 99.49,178.32 99.85,176.77 100.11,175.19 100.19,173.61 100.25,172.04 100.19,170.42 99.57,169.07 99.2,168.24 99.07,167.43 98.91,166.63 98.76,165.82 98.63,165.02 98.51,164.21 98.29,162.6 98.12,160.99 97.95,159.38 97.64,156.15 97.38,152.92 97.16,149.7 96.71,143.24 96.35,136.78 96.19,130.31 96.16,128.69 96.14,127.07 96.18,125.45 96.2,124.64 96.26,123.8 96.35,123.02 96.41,122.22 96.43,121.41 96.42,120.61 96.34,117.39 95.81,114.18 94.96,111.07 L 95.06,111.04 Z M 95.06,111.04" />
        </g>
        <g id="jonnieSide09-group348">
            <path id="jonnieSide09-bezier344" stroke="none" fill="rgb(0, 0, 0)" d="M 95.38,179.91 C 94.29,180.01 93.18,179.99 92.07,179.82 91.52,179.73 90.93,179.68 90.42,179.34 89.93,179.04 89.39,178.49 89.43,177.83 L 89.52,177.79 C 89.98,178.15 90.4,178.28 90.86,178.45 91.32,178.59 91.77,178.87 92.26,179.04 93.26,179.37 94.32,179.62 95.38,179.81 L 95.38,179.91 Z M 95.38,179.91" />
        </g>
        <g id="jonnieSide09-group349">
            <path id="jonnieSide09-bezier345" stroke="none" fill="rgb(0, 0, 0)" d="M 94.6,176.83 C 93.52,177 92.4,176.97 91.29,176.7 90.74,176.57 90.15,176.44 89.69,176.05 89.24,175.67 88.86,175.15 88.77,174.55 L 88.85,174.49 90.25,175.21 C 90.68,175.42 91.07,175.74 91.54,175.95 92.48,176.35 93.53,176.61 94.59,176.73 L 94.6,176.83 Z M 94.6,176.83" />
        </g>
        <g id="jonnieSide09-group350">
            <path id="jonnieSide09-bezier346" stroke="none" fill="rgb(0, 0, 0)" d="M 93.46,174.11 C 93.14,174.3 92.77,174.41 92.38,174.44 91.99,174.45 91.57,174.35 91.2,174.16 90.84,173.98 90.45,173.74 90.28,173.37 90.11,173 90.04,172.6 90.17,172.17 L 90.26,172.13 C 90.64,172.36 90.88,172.59 91.11,172.8 91.34,173 91.43,173.3 91.65,173.5 92.07,173.9 92.73,174.11 93.42,174.02 L 93.46,174.11 Z M 93.46,174.11" />
        </g>
        <g id="jonnieSide09-group351">
            <path id="jonnieSide09-bezier347" stroke="none" fill="rgb(0, 0, 0)" d="M 92.5,170.65 C 91.97,166.36 90.98,162.15 89.78,158.01 88.63,153.87 87,149.85 85.81,145.68 84.57,141.53 83.43,137.34 82.64,133.08 82.27,130.94 81.92,128.8 81.71,126.64 81.61,125.55 81.54,124.47 81.52,123.38 81.54,122.3 81.54,121.18 81.88,120.13 L 81.97,120.16 C 81.79,121.21 81.87,122.29 81.98,123.36 82.08,124.42 82.23,125.49 82.4,126.55 82.75,128.67 83.15,130.78 83.62,132.88 84.53,137.09 85.45,141.3 86.58,145.46 87.66,149.62 89.2,153.67 90.27,157.88 91.33,162.07 92.2,166.32 92.6,170.64 L 92.5,170.65 Z M 92.5,170.65" />
        </g>
        <g id="jonnieSide09-group352">
            <path id="jonnieSide09-bezier348" stroke="none" fill="rgb(0, 0, 0)" d="M 82.49,117.17 C 81.86,116.31 81.51,115.25 81.45,114.15 81.42,113.61 81.37,113.03 81.59,112.51 81.8,111.99 82.1,111.51 82.58,111.18 L 82.67,111.22 C 82.69,111.8 82.61,112.29 82.55,112.77 82.5,113.24 82.3,113.69 82.25,114.17 82.18,114.65 82.18,115.15 82.24,115.64 82.28,116.14 82.38,116.64 82.58,117.11 L 82.49,117.17 Z M 82.49,117.17" />
        </g>
        <g id="jonnieSide09-group353">
            <path id="jonnieSide09-bezier349" stroke="none" fill="rgb(0, 0, 0)" d="M 81.78,109.69 C 81.39,106.18 80.9,102.67 80.23,99.21 79.9,97.48 79.53,95.75 78.98,94.1 78.71,93.3 78.32,92.46 78.07,91.6 77.8,90.75 77.56,89.89 77.34,89.03 76.46,85.59 75.72,82.11 75.34,78.57 75.17,76.8 75.02,75.02 75.05,73.23 75.06,72.34 75.11,71.44 75.23,70.55 75.38,69.68 75.52,68.73 76.13,68.02 L 76.21,68.08 C 75.76,68.82 75.72,69.73 75.68,70.59 75.65,71.46 75.68,72.34 75.74,73.21 75.87,74.96 76.06,76.7 76.33,78.44 76.84,81.92 77.35,85.41 78.12,88.84 78.31,89.7 78.52,90.55 78.76,91.39 78.98,92.24 79.33,93.02 79.6,93.9 80.12,95.62 80.44,97.37 80.72,99.12 81.26,102.63 81.62,106.15 81.88,109.68 L 81.78,109.69 Z M 81.78,109.69" />
        </g>
        <g id="jonnieSide09-group354">
            <path id="jonnieSide09-bezier350" stroke="none" fill="rgb(0, 0, 0)" d="M 71.62,60.52 C 70.78,62.93 70.29,65.45 69.94,67.97 69.58,70.5 69.41,73.04 69.4,75.58 69.4,78.13 69.61,80.66 69.79,83.19 69.95,85.73 70.28,88.25 70.54,90.81 L 70.44,90.83 C 69.62,88.39 69.14,85.85 68.8,83.29 68.48,80.73 68.49,78.14 68.6,75.56 68.71,72.99 68.99,70.42 69.45,67.89 69.93,65.37 70.56,62.86 71.53,60.48 L 71.62,60.52 Z M 71.62,60.52" />
        </g>
        <g id="jonnieSide09-group355">
            <path id="jonnieSide09-bezier351" stroke="none" fill="rgb(0, 0, 0)" d="M 76.49,51.58 C 76.05,52.19 75.67,52.84 75.33,53.51 74.97,54.16 74.64,54.84 74.35,55.52 74.04,56.2 73.85,56.93 73.49,57.58 73.14,58.24 72.77,58.9 72.26,59.52 L 72.16,59.49 C 72.15,58.68 72.33,57.92 72.57,57.19 72.8,56.46 73.24,55.81 73.63,55.15 74.42,53.84 75.31,52.57 76.42,51.51 L 76.49,51.58 Z M 76.49,51.58" />
        </g>
        <g id="jonnieSide09-group356">
            <path id="jonnieSide09-bezier352" stroke="none" fill="rgb(0, 0, 0)" d="M 66.6,139.84 C 66.44,141.3 66.38,142.78 66.32,144.24 66.29,145.72 66.25,147.18 66.49,148.62 66.94,151.51 68.01,154.27 69.17,156.96 70.34,159.65 71.68,162.28 72.73,165.07 73.26,166.46 73.64,167.95 73.84,169.42 74.06,170.89 74.23,172.36 74.39,173.82 74.72,176.76 75,179.69 75.36,182.6 75.75,185.51 76.1,188.43 77.05,191.15 77.96,194.05 78.33,197 78.48,199.97 78.55,201.45 78.58,202.93 78.48,204.41 78.44,205.15 78.37,205.89 78.25,206.63 78.12,207.35 78,208.1 77.62,208.77 L 77.53,208.71 C 77.85,208.06 77.92,207.32 77.99,206.59 78.06,205.87 78.07,205.13 78.07,204.4 78.05,202.94 77.98,201.47 77.84,200.01 77.52,197.11 77.11,194.17 76.16,191.46 75.61,190.07 75.26,188.58 74.99,187.13 74.72,185.66 74.51,184.19 74.35,182.72 74.01,179.78 73.79,176.84 73.52,173.91 73.22,170.98 73.08,168.03 72.05,165.32 71.07,162.57 69.78,159.91 68.65,157.18 67.51,154.46 66.48,151.64 66.1,148.68 65.88,147.2 65.98,145.69 66.07,144.23 66.17,142.76 66.29,141.29 66.51,139.83 L 66.6,139.84 Z M 66.6,139.84" />
        </g>
        <g id="jonnieSide09-group357">
            <path id="jonnieSide09-bezier353" stroke="none" fill="rgb(0, 0, 0)" d="M 98.42,137.94 L 100.96,137.96 102.23,138 C 102.64,138.01 103.09,138.03 103.46,138.02 L 103.04,138.46 C 102.84,135.06 102.74,131.66 102.83,128.25 102.89,126.54 102.98,124.84 103.27,123.12 103.56,121.46 103.76,119.79 103.95,118.11 104.65,111.38 105.05,104.62 105.31,97.85 105.54,91.09 105.71,84.29 105.07,77.58 104.9,75.91 104.52,74.27 104.13,72.62 103.73,70.98 103.27,69.36 102.75,67.75 101.69,64.55 100.44,61.36 98.57,58.54 L 98.65,58.48 C 100.63,61.26 101.99,64.42 103.16,67.6 103.74,69.21 104.23,70.84 104.67,72.48 105.1,74.13 105.53,75.79 105.74,77.49 106.19,80.89 106.29,84.29 106.36,87.69 106.41,91.09 106.38,94.48 106.29,97.88 106.08,104.67 105.71,111.46 104.95,118.22 104.75,119.91 104.54,121.6 104.22,123.29 103.93,124.91 103.83,126.6 103.76,128.28 103.63,131.65 103.7,135.04 103.87,138.41 L 103.9,138.91 103.45,138.85 C 102.98,138.8 102.59,138.73 102.17,138.67 L 100.91,138.47 98.41,138.04 98.42,137.94 Z M 98.42,137.94" />
        </g>
        <g id="jonnieSide09-group358">
            <path id="jonnieSide09-bezier354" stroke="none" fill="rgb(0, 0, 0)" d="M 71.62,86.8 C 71.94,91.14 71.81,95.49 71.72,99.84 71.61,104.18 71.4,108.52 71.15,112.86 70.9,117.2 70.62,121.54 70.2,125.87 70.14,126.43 70.11,126.93 70.01,127.54 69.88,128.11 69.74,128.62 69.59,129.15 L 68.69,132.28 C 68.09,134.36 67.47,136.45 67.02,138.52 L 66.51,137.97 C 69.04,137.78 71.57,137.59 74.11,137.49 76.65,137.36 79.19,137.3 81.72,137.3 L 81.73,137.4 74.16,138.14 66.6,138.91 65.98,138.97 66.09,138.35 C 66.47,136.16 67.11,134.09 67.7,131.99 L 68.64,128.87 C 68.79,128.36 68.95,127.82 69.07,127.34 69.16,126.88 69.22,126.29 69.29,125.77 69.8,121.47 70.16,117.15 70.49,112.82 70.82,108.49 71.08,104.16 71.31,99.82 71.5,95.49 71.73,91.14 71.52,86.81 L 71.62,86.8 Z M 71.62,86.8" />
        </g>
        <g id="jonnieSide09-group359">
            <path id="jonnieSide09-bezier355" stroke="none" fill="rgb(0, 0, 0)" d="M 102.19,155 C 102.01,152.48 101.9,149.94 101.82,147.41 101.77,146.15 101.67,144.88 101.76,143.62 101.85,142.35 101.97,141.08 102.31,139.83 L 102.41,139.84 C 102.62,141.11 102.71,142.37 102.76,143.63 102.81,144.89 102.68,146.16 102.62,147.42 L 102.29,155 102.19,155 Z M 102.19,155" />
        </g>
        <g id="jonnieSide09-group360">
            <path id="jonnieSide09-bezier356" stroke="none" fill="rgb(0, 0, 0)" d="M 98.15,198.75 C 99.28,191.77 100.3,184.77 101.01,177.75 101.35,174.24 101.55,170.72 101.77,167.21 102.02,163.69 102.05,160.17 102.13,156.63 L 102.23,156.62 C 102.72,160.14 102.83,163.7 102.77,167.25 102.68,170.8 102.25,174.33 101.8,177.84 100.91,184.87 99.66,191.84 98.25,198.77 L 98.15,198.75 Z M 98.15,198.75" />
        </g>
        <g id="jonnieSide09-group361">
            <path id="jonnieSide09-bezier357" stroke="none" fill="rgb(0, 0, 0)" d="M 94.62,82.12 C 91.76,82.12 88.9,82.21 86.06,82.42 84.65,82.54 83.25,82.76 81.86,82.91 80.47,83.1 79.05,83.18 77.82,83.86 L 77.75,83.79 C 78.2,83.17 78.91,82.82 79.58,82.54 80.27,82.25 80.99,82.07 81.7,81.93 83.13,81.64 84.59,81.64 86.03,81.62 88.91,81.58 91.77,81.73 94.62,82.02 L 94.62,82.12 Z M 94.62,82.12" />
        </g>
        <g id="jonnieSide09-group362">
            <path id="jonnieSide09-bezier358" stroke="none" fill="rgb(0, 0, 0)" d="M 78.18,51.63 C 79.68,52.48 81.21,53.28 82.75,54.05 84.28,54.83 85.84,55.57 87.41,56.23 89,56.89 90.62,57.43 92.22,57.95 93.02,58.2 93.83,58.41 94.64,58.53 95.05,58.59 95.46,58.61 95.86,58.55 96.26,58.52 96.65,58.38 97,58.13 L 97.07,58.2 C 96.53,58.98 95.49,59.19 94.61,59.22 93.7,59.26 92.81,59.11 91.95,58.91 90.22,58.5 88.64,57.73 87.08,56.96 83.96,55.43 80.99,53.65 78.13,51.71 L 78.18,51.63 Z M 78.18,51.63" />
        </g>
        <g id="jonnieSide09-group363">
            <path id="jonnieSide09-bezier359" stroke="none" fill="rgb(0, 0, 0)" d="M 77.65,209.75 C 76.77,213.94 75.85,218.13 75.29,222.37 75.15,223.43 75.22,224.49 75.3,225.56 75.38,226.62 75.5,227.68 75.63,228.74 75.9,230.87 76.21,232.98 76.54,235.1 77.25,239.32 77.84,243.57 78.31,247.83 78.8,252.09 79.22,256.35 79.59,260.62 79.93,264.89 80.26,269.16 80.31,273.46 80.31,274.54 80.31,275.61 80.18,276.71 80.01,277.84 79.66,278.82 79.38,279.86 78.8,281.92 78.16,283.97 77.96,286.06 77.88,287.08 77.91,288.17 78.46,288.92 78.59,289.11 78.78,289.26 78.95,289.37 79.2,289.52 79.38,289.6 79.62,289.69 80.09,289.85 80.6,289.92 81.11,289.96 83.18,290.08 85.32,289.71 87.46,289.57 88.54,289.49 89.62,289.45 90.71,289.5 91.82,289.54 92.88,289.73 93.93,289.84 96.05,290.08 98.18,290.27 100.31,290.39 102.44,290.5 104.57,290.57 106.68,290.46 107.74,290.4 108.78,290.28 109.81,290.07 110.82,289.86 111.87,289.57 112.64,289.06 112.83,288.93 112.99,288.77 113.05,288.64 113.11,288.51 113.11,288.42 113.04,288.26 112.89,287.96 112.46,287.62 112.05,287.4 111.17,286.92 110.16,286.55 109.16,286.18 107.16,285.44 105.13,284.75 103.13,283.94 101.13,283.13 99.15,282.23 97.3,281.06 96.37,280.47 95.48,279.81 94.69,279.03 93.9,278.24 93.2,277.38 92.59,276.47 90.13,272.81 88.89,268.48 88.59,264.14 88.45,261.97 88.56,259.78 88.91,257.63 89.29,255.5 89.72,253.42 90.13,251.31 90.95,247.11 91.77,242.91 92.53,238.7 93.27,234.48 94.05,230.27 94.44,226.02 94.89,221.76 95.32,217.5 95.72,213.23 L 95.82,213.24 C 95.54,217.52 95.24,221.79 94.91,226.06 94.57,230.34 93.85,234.58 93.16,238.81 92.46,243.03 91.7,247.25 90.94,251.46 90.56,253.57 90.15,255.69 89.81,257.77 89.5,259.86 89.43,261.98 89.58,264.07 89.87,268.26 91.07,272.44 93.41,275.91 95.64,279.52 99.6,281.42 103.5,283.03 105.46,283.84 107.48,284.55 109.49,285.3 110.5,285.69 111.51,286.06 112.5,286.61 113.01,286.91 113.5,287.23 113.85,287.88 114.03,288.2 114.04,288.7 113.84,289.05 113.66,289.4 113.4,289.6 113.15,289.78 112.13,290.44 111.05,290.69 109.98,290.92 108.9,291.13 107.81,291.24 106.73,291.3 104.56,291.39 102.41,291.31 100.26,291.18 98.12,291.05 95.98,290.85 93.85,290.59 92.77,290.47 91.72,290.28 90.68,290.23 89.63,290.18 88.57,290.21 87.51,290.29 85.39,290.41 83.27,290.77 81.06,290.64 80.5,290.59 79.94,290.51 79.4,290.32 79.13,290.23 78.83,290.08 78.62,289.95 78.34,289.77 78.11,289.57 77.93,289.32 77.21,288.29 77.24,287.07 77.32,286 77.55,283.81 78.21,281.75 78.8,279.7 79.08,278.68 79.44,277.62 79.6,276.63 79.72,275.6 79.74,274.53 79.74,273.46 79.71,269.2 79.41,264.92 79.09,260.66 78.39,252.13 77.6,243.6 76.24,235.14 75.93,233.02 75.63,230.9 75.39,228.77 75.26,227.71 75.15,226.64 75.08,225.57 75.01,224.5 74.95,223.41 75.1,222.34 75.69,218.09 76.64,213.91 77.56,209.73 L 77.65,209.75 Z M 77.65,209.75" />
        </g>
        <g id="jonnieSide09-group364">
            <path id="jonnieSide09-bezier360" stroke="none" fill="rgb(0, 0, 0)" d="M 96.64,211.71 C 97.03,210.92 97.27,210.06 97.45,209.2 97.63,208.34 97.73,207.47 97.75,206.6 97.77,205.73 97.64,204.87 97.64,204 97.62,203.14 97.59,202.26 97.64,201.34 L 97.74,201.31 C 98.22,202.11 98.48,203.01 98.63,203.91 98.79,204.83 98.66,205.76 98.55,206.66 98.3,208.48 97.74,210.26 96.73,211.77 L 96.64,211.71 Z M 96.64,211.71" />
        </g>
        <g id="jonnieSide09-group365">
            <path id="jonnieSide09-bezier361" stroke="none" fill="rgb(0, 0, 0)" d="M 80.76,270.37 C 82.1,270.04 83.45,269.76 84.8,269.54 85.48,269.43 86.16,269.23 86.86,269.26 87.54,269.29 88.27,269.34 88.95,269.7 L 88.93,269.8 C 88.24,269.99 87.59,270.16 86.92,270.26 86.25,270.38 85.57,270.31 84.88,270.33 L 80.78,270.47 80.76,270.37 Z M 80.76,270.37" />
        </g>
    </g>
</svg>
