<?xml version="1.0" encoding="UTF-8"?>
<!DOCTYPE svg PUBLIC "-//W3C//DTD SVG 1.1//EN" "http://www.w3.org/Graphics/SVG/1.1/DTD/svg11.dtd">
<svg version="1.1" xmlns="http://www.w3.org/2000/svg" xmlns:xlink="http://www.w3.org/1999/xlink" width="180" height="300"  xml:space="preserve" id="jonnieSide05">
    <!-- Generated by PaintCode - http://www.paintcodeapp.com -->
    <g id="jonnieSide05-group">
        <g id="jonnieSide05-group41">
            <path id="jonnieSide05-bezier40" stroke="none" fill="rgb(0, 0, 0)" d="M 112,29.45 C 112.08,31.94 112.02,34.46 111.51,36.94 111.21,38.15 110.88,39.45 109.86,40.44 109.6,40.67 109.28,40.87 108.92,40.97 108.74,41.02 108.56,41.05 108.38,41.05 L 107.91,41.06 C 107.3,41.08 106.7,41.14 106.1,41.25 103.71,41.65 101.6,42.98 100.23,44.9 99.52,45.84 99.01,46.94 98.66,48.1 98.48,48.67 98.34,49.27 98.27,49.87 98.2,50.47 98.14,51.1 98.31,51.67 L 98.23,51.72 C 97.64,50.53 97.79,49.19 97.98,47.93 98.21,46.66 98.71,45.44 99.41,44.33 100.14,43.23 101.13,42.29 102.28,41.65 103.43,41 104.7,40.63 105.98,40.46 106.62,40.37 107.26,40.33 107.9,40.34 L 108.37,40.34 C 108.5,40.35 108.62,40.33 108.75,40.3 108.99,40.24 109.23,40.12 109.43,39.95 110.28,39.21 110.7,37.98 111.02,36.82 111.64,34.44 111.85,31.93 111.9,29.45 L 112,29.45 Z M 112,29.45" />
        </g>
        <g id="jonnieSide05-group85">
            <path id="jonnieSide05-bezier84" stroke="none" fill="rgb(0, 0, 0)" d="M 75.64,51.3 C 76.72,49.68 77.83,48.08 79,46.52 79.59,45.76 80.17,44.95 80.94,44.32 81.66,43.68 82.32,42.97 82.88,42.19 83.44,41.42 83.87,40.55 84.09,39.63 84.31,38.71 84.3,37.75 84.11,36.82 83.72,34.95 82.77,33.23 81.88,31.51 80.98,29.79 80.07,28.04 79.44,26.17 78.8,24.31 78.44,22.32 78.49,20.34 78.54,18.36 78.94,16.36 79.76,14.54 80.58,12.72 81.79,11.08 83.25,9.73 86.19,7 89.96,5.36 93.82,4.55 97.69,3.79 101.81,3.76 105.61,5.17 107.56,5.99 109.04,7.5 110.13,9.17 111.22,10.86 111.99,12.7 112.55,14.58 113.69,18.35 114.18,22.26 114.25,26.16 L 114.15,26.16 C 114,24.22 113.72,22.3 113.35,20.4 112.99,18.5 112.52,16.61 111.89,14.8 111.25,12.99 110.48,11.21 109.41,9.65 108.36,8.1 106.94,6.76 105.25,6.11 103.5,5.45 101.6,5.15 99.7,5.08 97.8,5.01 95.89,5.16 94.01,5.52 90.28,6.24 86.63,7.77 83.79,10.32 82.39,11.59 81.22,13.12 80.42,14.84 79.61,16.56 79.21,18.45 79.14,20.35 79.07,22.26 79.38,24.17 79.98,25.99 80.58,27.82 81.44,29.55 82.32,31.28 83.18,33.02 84.12,34.78 84.5,36.74 84.68,37.72 84.68,38.75 84.43,39.71 84.18,40.69 83.71,41.58 83.12,42.37 82.53,43.16 81.84,43.87 81.1,44.51 80.34,45.11 79.76,45.89 79.15,46.64 77.96,48.18 76.83,49.76 75.72,51.35 L 75.64,51.3 Z M 75.64,51.3" />
        </g>
        <g id="jonnieSide05-group86">
            <path id="jonnieSide05-bezier85" stroke="none" fill="rgb(0, 0, 0)" d="M 80.11,51.75 C 76.08,53.35 72.63,56.32 70.38,59.97 69.24,61.79 68.41,63.8 67.89,65.88 67.44,67.97 66.91,70.14 66.21,72.21 64.84,76.37 63.08,80.39 61.19,84.3 60.22,86.25 59.28,88.21 58.41,90.19 57.55,92.17 56.75,94.19 56.39,96.33 L 56.29,96.32 C 56.37,94.12 57.03,91.98 57.76,89.93 58.51,87.87 59.41,85.88 60.28,83.88 62.06,79.91 64,76.03 65.45,71.95 66.19,69.91 66.75,67.85 67.26,65.71 67.84,63.58 68.75,61.54 69.95,59.7 72.39,56.03 75.97,53.15 80.08,51.65 L 80.11,51.75 Z M 80.11,51.75" />
        </g>
        <g id="jonnieSide05-group87">
            <path id="jonnieSide05-bezier86" stroke="none" fill="rgb(0, 0, 0)" d="M 55.22,97.51 C 54.87,98.62 54.55,99.74 54.29,100.86 54.16,101.42 54.14,102 53.95,102.53 53.77,103.07 53.59,103.59 53.31,104.16 L 53.21,104.16 C 52.94,103.56 52.92,102.93 52.97,102.33 53.02,101.72 53.31,101.17 53.53,100.62 53.97,99.52 54.51,98.47 55.13,97.47 L 55.22,97.51 Z M 55.22,97.51" />
        </g>
        <g id="jonnieSide05-group88">
            <path id="jonnieSide05-bezier87" stroke="none" fill="rgb(0, 0, 0)" d="M 53.3,105.93 C 52.12,108.21 51.13,110.58 50.32,113.01 49.51,115.43 48.89,117.93 48.64,120.46 48.5,121.72 48.53,123 48.51,124.29 L 48.47,128.14 C 48.43,130.71 48.34,133.29 48.12,135.86 47.92,138.43 47.6,141.01 47,143.55 46.69,144.81 46.33,146.07 45.82,147.29 45.31,148.49 44.62,149.7 43.83,150.71 42.31,152.74 40.98,154.92 39.89,157.22 39.35,158.36 38.88,159.55 38.56,160.77 38.25,161.98 38.02,163.29 38.43,164.49 L 38.34,164.53 C 37.76,163.33 37.91,161.94 38.12,160.67 38.36,159.39 38.78,158.15 39.25,156.94 40.23,154.53 41.55,152.27 43.01,150.13 44.55,148.14 45.39,145.76 46.04,143.31 46.68,140.86 47.06,138.33 47.33,135.79 47.59,133.25 47.73,130.69 47.82,128.13 L 47.94,124.28 C 47.98,123 47.97,121.7 48.14,120.41 48.46,117.83 49.16,115.33 50.03,112.91 50.92,110.49 51.97,108.14 53.22,105.88 L 53.3,105.93 Z M 53.3,105.93" />
        </g>
        <g id="jonnieSide05-group89">
            <path id="jonnieSide05-bezier88" stroke="none" fill="rgb(0, 0, 0)" d="M 39.62,164.51 C 39.79,165.21 40,165.89 40.24,166.54 40.36,166.86 40.58,167.14 40.64,167.46 40.7,167.79 40.74,168.1 40.74,168.54 L 40.66,168.61 C 40.21,168.49 39.91,168.17 39.71,167.84 39.49,167.5 39.51,167.09 39.47,166.72 39.38,165.97 39.41,165.24 39.52,164.51 L 39.62,164.51 Z M 39.62,164.51" />
        </g>
        <g id="jonnieSide05-group90">
            <path id="jonnieSide05-bezier89" stroke="none" fill="rgb(0, 0, 0)" d="M 41.81,167.13 C 42.11,167.82 42.4,168.51 42.7,169.18 42.85,169.52 43.09,169.81 43.16,170.15 43.25,170.5 43.25,170.82 43.35,171.22 L 43.3,171.31 C 42.77,171.28 42.46,170.87 42.24,170.55 42.01,170.21 42.01,169.8 41.94,169.42 41.79,168.67 41.72,167.91 41.71,167.15 L 41.81,167.13 Z M 41.81,167.13" />
        </g>
        <g id="jonnieSide05-group91">
            <path id="jonnieSide05-bezier90" stroke="none" fill="rgb(0, 0, 0)" d="M 44.62,169.19 C 44.92,169.89 45.25,170.57 45.61,171.21 45.79,171.53 46.06,171.78 46.18,172.09 46.32,172.4 46.39,172.69 46.59,173.09 L 46.55,173.18 C 46.05,173.27 45.62,172.95 45.34,172.64 45.04,172.33 44.98,171.89 44.87,171.52 44.65,170.75 44.54,169.98 44.52,169.21 L 44.62,169.19 Z M 44.62,169.19" />
        </g>
        <g id="jonnieSide05-group92">
            <path id="jonnieSide05-bezier91" stroke="none" fill="rgb(0, 0, 0)" d="M 48.24,167.65 C 48.17,168.26 48.12,168.87 48.11,169.44 48.11,169.73 48.21,170.02 48.14,170.28 48.07,170.55 47.98,170.79 47.81,171.15 L 47.71,171.18 C 47.35,170.97 47.2,170.61 47.14,170.27 47.06,169.93 47.23,169.61 47.33,169.31 47.52,168.7 47.8,168.14 48.15,167.62 L 48.24,167.65 Z M 48.24,167.65" />
        </g>
        <g id="jonnieSide05-group93">
            <path id="jonnieSide05-bezier92" stroke="none" fill="rgb(0, 0, 0)" d="M 49.81,168 C 50.02,168.73 50.29,169.46 50.68,170.1 50.87,170.41 51.13,170.75 51.46,170.79 51.6,170.83 51.69,170.66 51.76,170.5 51.83,170.33 51.88,170.14 51.92,169.96 52.2,168.47 52.25,166.92 52.41,165.39 52.49,164.63 52.57,163.86 52.75,163.09 52.8,162.9 52.85,162.71 52.93,162.52 53,162.32 53.12,162.15 53.19,161.99 53.31,161.7 53.37,161.3 53.4,160.94 53.49,159.43 53.36,157.9 53.26,156.37 53.05,153.31 52.8,150.23 52.95,147.13 53.15,144 53.99,141 54.88,138.05 55.8,135.1 56.86,132.21 57.97,129.34 58.52,127.91 59.13,126.48 59.61,125.06 60.11,123.63 60.53,122.16 60.92,120.69 61.73,117.74 62.38,114.75 62.95,111.74 63.24,110.24 63.49,108.73 63.69,107.21 63.91,105.69 64.09,104.17 64.15,102.64 L 64.25,102.64 C 64.36,105.72 64.06,108.8 63.64,111.85 63.21,114.91 62.6,117.93 61.89,120.94 61.51,122.43 61.09,123.92 60.6,125.4 60.08,126.89 59.45,128.27 58.89,129.71 57.73,132.55 56.61,135.4 55.65,138.3 54.71,141.2 53.84,144.16 53.6,147.17 53.41,150.2 53.6,153.28 53.76,156.34 53.82,157.88 53.93,159.41 53.79,160.98 53.75,161.37 53.7,161.75 53.52,162.17 53.31,162.52 53.19,162.8 53.09,163.18 52.9,163.91 52.8,164.67 52.71,165.43 52.51,166.95 52.43,168.49 52.11,170.01 52.07,170.2 52.01,170.39 51.93,170.57 51.89,170.67 51.85,170.76 51.77,170.84 51.7,170.93 51.56,171 51.44,170.97 50.99,170.88 50.75,170.5 50.55,170.18 50.16,169.51 49.91,168.77 49.71,168.03 L 49.81,168 Z M 49.81,168" />
        </g>
        <g id="jonnieSide05-group94">
            <path id="jonnieSide05-bezier93" stroke="none" fill="rgb(0, 0, 0)" d="M 61.23,104.47 C 63.51,102.44 65.67,100.26 67.73,98 69.81,95.75 71.78,93.41 73.6,90.97 75.43,88.53 77.05,85.95 78.6,83.34 80.17,80.74 81.49,78.01 82.6,75.14 L 82.7,75.17 C 82.13,78.21 80.91,81.1 79.47,83.83 78.01,86.56 76.16,89.06 74.24,91.46 70.38,96.27 66.03,100.65 61.29,104.55 L 61.23,104.47 Z M 61.23,104.47" />
        </g>
        <g id="jonnieSide05-group95">
            <path id="jonnieSide05-bezier94" stroke="none" fill="rgb(0, 0, 0)" d="M 67.08,132.14 C 66.29,134.92 65.57,137.72 65.21,140.59 65.03,142.01 64.88,143.46 64.94,144.89 64.99,146.33 65.22,147.75 65.61,149.13 66.38,151.89 67.78,154.45 69.55,156.7 71.31,158.95 73.42,160.96 75.76,162.56 L 75.84,162.61 75.88,162.7 C 77.78,166.72 80.09,170.58 82.46,174.38 84.84,178.16 87.36,181.87 89.93,185.54 92.48,189.22 95.07,192.87 97.72,196.49 99.04,198.28 100.44,200.09 101.48,202.11 102.53,204.12 103.32,206.26 103.73,208.48 L 103.63,208.5 C 103.09,206.33 102.12,204.29 101.02,202.37 100.46,201.41 99.83,200.49 99.16,199.61 L 97.08,196.97 C 94.32,193.42 91.63,189.82 89.07,186.13 86.52,182.43 84.08,178.66 81.75,174.81 79.44,170.95 77.18,167.07 75.3,162.95 L 75.42,163.09 C 73.01,161.39 70.92,159.33 69.15,157.01 67.4,154.68 66.02,152.05 65.28,149.22 64.92,147.81 64.71,146.35 64.69,144.9 64.67,143.44 64.83,142 65.02,140.56 65.42,137.69 66.17,134.88 66.98,132.11 L 67.08,132.14 Z M 67.08,132.14" />
        </g>
        <g id="jonnieSide05-group96">
            <path id="jonnieSide05-bezier95" stroke="none" fill="rgb(0, 0, 0)" d="M 72,96.74 C 72.21,99.64 72.3,102.55 72.28,105.46 72.26,108.37 72.14,111.29 71.79,114.18 71.61,115.63 71.38,117.07 71.03,118.49 70.7,119.93 70.11,121.27 69.78,122.67 69.09,125.48 68.52,128.38 67.24,131.05 L 67.02,130.71 C 69.91,130.59 72.79,130.54 75.68,130.55 78.57,130.59 81.47,130.63 84.36,131.05 85.08,131.14 85.82,131.36 86.49,131.5 87.18,131.65 87.89,131.76 88.6,131.85 90.02,132.03 91.45,132.15 92.89,132.24 95.75,132.42 98.64,132.49 101.51,132.5 L 101.14,132.94 C 100.86,131.26 100.7,129.58 100.66,127.87 100.61,126.18 100.8,124.43 101.16,122.79 101.86,119.48 102.68,116.24 103.35,112.96 104.72,106.41 105.73,99.78 106.08,93.11 106.24,89.77 106.39,86.42 106.21,83.1 106.03,79.77 105.6,76.45 104.94,73.17 104.29,69.9 103.41,66.66 102.33,63.5 101.27,60.32 100.02,57.21 98.55,54.19 L 98.64,54.15 C 100.22,57.1 101.61,60.18 102.78,63.34 103.92,66.5 104.87,69.74 105.6,73.03 106.32,76.33 106.82,79.67 107.06,83.04 107.3,86.42 107.27,89.8 107.08,93.16 106.7,99.89 105.74,106.59 104.28,113.15 103.57,116.44 102.71,119.7 101.99,122.96 101.19,126.17 101.4,129.54 101.88,132.81 L 101.95,133.26 101.51,133.25 C 98.61,133.23 95.73,133.13 92.84,132.92 91.4,132.82 89.95,132.69 88.51,132.49 87.79,132.39 87.08,132.28 86.36,132.12 85.62,131.96 84.97,131.76 84.26,131.66 81.45,131.22 78.55,131.15 75.68,131.1 72.8,131.06 69.92,131.09 67.04,131.18 L 66.64,131.19 66.82,130.84 C 68.09,128.25 68.68,125.4 69.42,122.58 69.76,121.15 70.37,119.81 70.71,118.41 71.06,117.01 71.31,115.58 71.51,114.14 71.88,111.27 72.04,108.36 72.09,105.46 72.13,102.55 72.08,99.64 71.9,96.74 L 72,96.74 Z M 72,96.74" />
        </g>
        <g id="jonnieSide05-group97">
            <path id="jonnieSide05-bezier96" stroke="none" fill="rgb(0, 0, 0)" d="M 101.64,207.75 C 101.1,209.89 100.51,212.01 99.79,214.09 99.43,215.13 99.01,216.17 98.46,217.11 98.03,218.11 97.74,219.18 97.47,220.24 96.44,224.51 95.84,228.89 95.76,233.27 95.72,235.47 95.89,237.64 96.27,239.82 96.58,242 96.81,244.19 97.03,246.38 97.45,250.77 97.78,255.15 98.04,259.55 98.27,263.95 98.49,268.35 98.34,272.77 98.29,273.86 98.2,275.03 97.87,276.09 L 96.97,279.27 C 96.68,280.33 96.39,281.38 96.19,282.45 95.99,283.51 95.84,284.6 95.97,285.62 96.05,286.13 96.19,286.62 96.49,286.98 96.76,287.34 97.25,287.56 97.73,287.76 98.71,288.14 99.79,288.35 100.86,288.57 103.01,288.98 105.21,289.32 107.33,290.1 108.38,290.49 109.43,291 110.32,291.69 111.17,292.35 112.12,292.82 113.13,293.19 115.15,293.93 117.32,294.27 119.48,294.43 121.65,294.59 123.84,294.57 126,294.35 127.07,294.23 128.14,294.05 129.15,293.73 129.65,293.57 130.14,293.38 130.55,293.12 130.75,293 130.92,292.84 131.01,292.7 131.11,292.55 131.1,292.46 131.06,292.31 130.94,292 130.5,291.66 130.07,291.4 129.62,291.12 129.14,290.86 128.66,290.6 127.7,290.1 126.71,289.61 125.73,289.12 123.76,288.15 121.78,287.16 119.85,286.08 117.92,284.99 116.02,283.83 114.26,282.43 113.4,281.74 112.51,280.94 111.82,280.08 111.08,279.19 110.47,278.25 109.93,277.25 107.83,273.26 106.84,268.81 106.57,264.37 106.46,262.14 106.55,259.9 106.89,257.69 107.27,255.49 107.76,253.35 108.24,251.2 L 111.22,238.34 C 112.2,234.04 113.07,229.77 113.59,225.37 114.04,223.19 114.79,221.1 115.67,219.08 116.55,217.05 117.57,215.09 118.72,213.22 L 118.81,213.27 C 117.71,215.17 116.75,217.15 115.92,219.18 115.1,221.22 114.42,223.31 114.04,225.46 113.59,229.81 112.76,234.18 111.84,238.48 L 109.04,251.37 C 108.6,253.52 108.13,255.69 107.8,257.82 107.49,259.97 107.43,262.15 107.57,264.31 107.83,268.63 108.8,272.97 110.81,276.78 112.72,280.68 116.58,283.06 120.33,285.21 122.23,286.29 124.19,287.29 126.15,288.28 127.13,288.78 128.12,289.27 129.09,289.79 129.58,290.06 130.07,290.32 130.56,290.63 131.03,290.96 131.57,291.27 131.89,291.99 132.05,292.36 131.99,292.87 131.76,293.18 131.55,293.49 131.28,293.7 131.02,293.86 130.5,294.19 129.95,294.39 129.41,294.56 128.31,294.89 127.2,295.08 126.08,295.19 123.86,295.41 121.64,295.4 119.42,295.23 117.21,295.05 114.98,294.69 112.86,293.9 111.82,293.51 110.77,292.99 109.88,292.29 109.04,291.63 108.09,291.16 107.08,290.78 105.06,290.02 102.89,289.67 100.73,289.24 99.65,289.02 98.55,288.8 97.48,288.38 97.23,288.28 96.92,288.14 96.7,288 96.43,287.85 96.17,287.64 95.98,287.39 95.58,286.9 95.41,286.29 95.33,285.71 95.19,284.54 95.36,283.42 95.57,282.33 95.79,281.23 96.08,280.17 96.38,279.1 L 97.3,275.94 C 97.63,274.89 97.7,273.85 97.76,272.74 97.94,268.37 97.74,263.97 97.54,259.58 97.32,255.19 97.02,250.8 96.63,246.42 96.43,244.23 96.22,242.04 95.93,239.86 95.57,237.7 95.4,235.47 95.46,233.27 95.58,228.85 96.21,224.47 97.28,220.19 97.56,219.13 97.85,218.06 98.3,217.04 98.87,216.08 99.28,215.08 99.65,214.04 100.38,211.97 100.99,209.85 101.55,207.73 L 101.64,207.75 Z M 101.64,207.75" />
        </g>
        <g id="jonnieSide05-group98">
            <path id="jonnieSide05-bezier97" stroke="none" fill="rgb(0, 0, 0)" d="M 119.63,211.71 C 120.02,210.92 120.26,210.06 120.44,209.2 120.62,208.34 120.72,207.47 120.74,206.6 120.76,205.73 120.63,204.87 120.63,204 120.61,203.14 120.58,202.26 120.63,201.34 L 120.73,201.31 C 121.21,202.11 121.47,203.01 121.62,203.91 121.78,204.83 121.65,205.76 121.54,206.66 121.29,208.48 120.73,210.26 119.72,211.77 L 119.63,211.71 Z M 119.63,211.71" />
        </g>
        <g id="jonnieSide05-group99">
            <path id="jonnieSide05-bezier98" stroke="none" fill="rgb(0, 0, 0)" d="M 119.04,198.75 C 118.65,196.3 118.28,193.85 117.96,191.39 117.65,188.93 117.33,186.47 117.26,183.97 117.16,181.54 116.62,179.1 116.08,176.7 115.51,174.3 114.82,171.92 114.05,169.58 112.5,164.89 110.54,160.35 108.36,155.94 106.2,151.51 103.63,147.29 100.72,143.27 L 100.8,143.21 C 104.16,146.88 106.9,151.09 109.25,155.48 111.58,159.9 113.36,164.58 114.81,169.34 115.54,171.71 116.18,174.12 116.71,176.55 117.21,178.99 117.71,181.43 117.76,183.96 117.76,186.42 118.01,188.89 118.25,191.35 118.51,193.82 118.81,196.28 119.14,198.73 L 119.04,198.75 Z M 119.04,198.75" />
        </g>
        <g id="jonnieSide05-group100">
            <path id="jonnieSide05-bezier99" stroke="none" fill="rgb(0, 0, 0)" d="M 67.93,157.71 C 66.9,161.76 65.95,165.84 65.12,169.93 64.7,171.98 64.31,174.03 64,176.08 63.68,178.16 63.46,180.18 63.51,182.28 63.49,186.46 63.5,190.65 63.23,194.83 63.08,196.92 62.92,199.02 62.65,201.1 62.51,202.14 62.36,203.18 62.16,204.22 61.92,205.24 61.74,206.3 61.18,207.22 L 61.09,207.17 C 61.49,206.23 61.59,205.17 61.71,204.15 61.82,203.11 61.9,202.07 61.96,201.03 62.08,198.95 62.18,196.87 62.23,194.79 L 62.71,182.26 C 62.71,180.17 62.99,178.03 63.36,175.98 63.72,173.91 64.16,171.87 64.63,169.82 65.6,165.75 66.68,161.71 67.84,157.69 L 67.93,157.71 Z M 67.93,157.71" />
        </g>
        <g id="jonnieSide05-group101">
            <path id="jonnieSide05-bezier100" stroke="none" fill="rgb(0, 0, 0)" d="M 59.8,205.22 C 57.8,209.52 55.84,213.85 53.55,218.02 52.24,220 51.25,222.16 50.38,224.36 49.53,226.57 48.81,228.83 48.27,231.13 47.73,233.44 47.36,235.78 47.23,238.14 47.17,240.5 46.99,242.89 46.69,245.25 46.08,249.97 45.16,254.64 43.92,259.24 43.29,261.53 42.58,263.81 41.63,266.01 41.18,267.11 40.54,268.18 39.89,269.16 39.25,270.16 38.62,271.16 38.01,272.17 36.81,274.19 35.61,276.28 35.19,278.55 35.09,279.12 35.06,279.68 35.06,280.27 35.06,280.85 35.07,281.44 35.26,281.9 35.44,282.37 35.86,282.64 36.4,282.8 36.92,282.97 37.5,283.06 38.08,283.12 39.25,283.26 40.42,283.31 41.62,283.4 42.83,283.51 44.01,283.74 45.17,284.01 47.51,284.57 49.77,285.32 52.01,286.14 54.24,286.97 56.44,287.88 58.61,288.87 L 60.23,289.61 C 60.75,289.84 61.3,290.04 61.85,290.2 62.96,290.51 64.11,290.69 65.27,290.76 67.59,290.82 70,290.76 72.36,290.77 L 74.14,290.77 75.03,290.76 C 75.41,290.77 75.42,290.77 75.64,290.63 76,290.39 76.28,289.9 76.19,289.57 76.13,289.25 75.71,288.97 75.18,288.82 74.14,288.53 72.9,288.44 71.73,288.18 70.54,287.94 69.37,287.57 68.25,287.1 66,286.15 63.98,284.77 62.11,283.27 58.39,280.27 55.16,276.32 53.9,271.56 53.25,269.21 53.13,266.7 53.38,264.32 53.62,261.92 54.13,259.56 54.77,257.25 56.09,252.65 57.87,248.21 60.09,243.97 L 60.95,242.41 C 61.22,241.91 61.46,241.37 61.69,240.83 62.15,239.75 62.56,238.64 62.97,237.53 63.77,235.3 64.52,233.05 65.3,230.81 66.08,228.56 66.86,226.32 67.75,224.11 68.19,223 68.66,221.9 69.19,220.83 69.73,219.76 70.28,218.69 71.12,217.77 73.02,216.28 74.56,214.53 75.81,212.5 77.04,210.5 78.06,208.31 78.46,205.98 L 78.56,205.99 C 78.21,208.36 77.24,210.59 76.05,212.65 75.44,213.68 74.76,214.66 73.99,215.58 73.6,216.04 73.19,216.48 72.76,216.9 72.35,217.33 71.82,217.7 71.46,218.09 70.7,218.94 70.15,220 69.64,221.05 69.13,222.11 68.69,223.21 68.26,224.31 67.41,226.52 66.65,228.76 65.9,231.01 65.16,233.26 64.43,235.52 63.65,237.77 63.26,238.9 62.86,240.02 62.4,241.13 62.17,241.69 61.94,242.23 61.65,242.78 L 60.81,244.35 C 58.68,248.55 56.97,252.99 55.73,257.52 55.1,259.79 54.61,262.09 54.37,264.42 54.13,266.75 54.24,269.06 54.85,271.3 56.05,275.79 59.12,279.58 62.74,282.5 64.55,283.98 66.49,285.32 68.62,286.23 69.68,286.69 70.78,287.04 71.92,287.28 73.06,287.55 74.21,287.61 75.45,287.97 75.76,288.07 76.08,288.2 76.38,288.41 76.68,288.62 76.97,288.96 77.05,289.39 77.2,290.27 76.71,290.94 76.12,291.36 75.96,291.46 75.79,291.55 75.56,291.6 75.3,291.65 75.18,291.62 75.03,291.63 L 74.14,291.62 72.36,291.62 C 69.98,291.59 67.64,291.64 65.22,291.56 64.01,291.48 62.8,291.29 61.63,290.94 61.04,290.77 60.47,290.56 59.9,290.31 L 58.29,289.56 C 56.14,288.57 53.96,287.65 51.75,286.82 49.54,285.99 47.3,285.23 45.01,284.68 43.87,284.4 42.71,284.17 41.56,284.06 40.39,283.97 39.19,283.91 38,283.77 37.4,283.69 36.8,283.61 36.19,283.41 35.89,283.31 35.59,283.18 35.31,282.97 35.03,282.76 34.8,282.46 34.67,282.14 34.42,281.49 34.43,280.87 34.43,280.26 34.44,279.67 34.47,279.04 34.59,278.44 35.05,276.02 36.29,273.91 37.51,271.87 38.13,270.85 38.78,269.86 39.42,268.86 40.09,267.86 40.67,266.89 41.14,265.79 42.08,263.64 42.79,261.38 43.44,259.1 44.7,254.54 45.65,249.89 46.28,245.19 46.6,242.84 46.8,240.5 46.87,238.12 47.02,235.73 47.41,233.38 47.97,231.06 48.54,228.75 49.27,226.48 50.15,224.27 51.03,222.06 52.05,219.88 53.37,217.91 55.69,213.78 57.68,209.46 59.71,205.18 L 59.8,205.22 Z M 59.8,205.22" />
        </g>
        <g id="jonnieSide05-group102">
            <path id="jonnieSide05-bezier101" stroke="none" fill="rgb(0, 0, 0)" d="M 79.22,204.38 L 83.59,195.38 C 84.31,193.87 84.98,192.34 85.78,190.88 86.58,189.42 87.44,188 88.3,186.56 L 88.39,186.59 C 88.03,188.26 87.35,189.8 86.67,191.33 85.98,192.85 85.12,194.29 84.3,195.75 82.68,198.67 81.01,201.56 79.31,204.43 L 79.22,204.38 Z M 79.22,204.38" />
        </g>
        <g id="jonnieSide05-group103">
            <path id="jonnieSide05-bezier102" stroke="none" fill="rgb(0, 0, 0)" d="M 102.78,123.53 C 105.6,124.71 108.39,125.98 111.13,127.34 113.87,128.73 116.57,130.19 119.11,131.96 120.36,132.87 121.63,133.78 122.59,135.17 123.01,135.91 123.32,136.51 123.74,137.15 124.13,137.79 124.55,138.42 124.99,139.03 125.84,140.28 126.79,141.46 127.75,142.64 128.22,143.24 128.72,143.81 129.22,144.39 129.72,144.95 130.22,145.56 130.78,146.03 L 130.74,146.12 C 129.39,145.29 128.33,144.19 127.23,143.11 126.15,142.01 125.14,140.84 124.19,139.62 123.72,139 123.28,138.36 122.86,137.7 122.45,137.07 122.07,136.29 121.75,135.7 121.02,134.52 119.81,133.52 118.64,132.61 116.22,130.79 113.57,129.25 110.9,127.78 108.23,126.31 105.51,124.92 102.74,123.62 L 102.78,123.53 Z M 102.78,123.53" />
        </g>
        <g id="jonnieSide05-group104">
            <path id="jonnieSide05-bezier103" stroke="none" fill="rgb(0, 0, 0)" d="M 133.82,144.2 C 133.5,144.06 133.33,144.21 133.23,144.43 133.12,144.64 133.07,144.92 133.05,145.2 133.02,145.48 133.11,145.77 133.01,146.04 132.91,146.32 132.8,146.6 132.52,146.9 L 132.42,146.9 C 132.15,146.6 132.05,146.27 132.01,145.94 131.97,145.61 132.15,145.3 132.28,144.99 132.41,144.68 132.57,144.37 132.85,144.11 132.99,143.99 133.19,143.88 133.39,143.89 133.6,143.88 133.78,144.01 133.87,144.11 L 133.82,144.2 Z M 133.82,144.2" />
        </g>
        <g id="jonnieSide05-group105">
            <path id="jonnieSide05-bezier104" stroke="none" fill="rgb(0, 0, 0)" d="M 136.82,143.99 C 136.28,143.75 135.81,144.15 135.53,144.58 135.24,145 135.04,145.54 135.01,146.01 135.01,146.07 135.01,146.13 135.02,146.18 L 135.02,146.22 C 135.02,146.22 135.02,146.27 135.02,146.21 L 135.03,146.24 C 135.03,146.27 135.04,146.32 135.05,146.31 135.07,146.31 135.11,146.38 135.18,146.42 135.3,146.52 135.51,146.63 135.72,146.76 136.16,147.02 136.67,147.25 137.18,147.61 L 137.17,147.71 C 136.56,147.89 135.94,147.86 135.32,147.67 135.01,147.57 134.71,147.4 134.44,147.08 134.32,146.91 134.21,146.73 134.17,146.45 134.16,146.36 134.16,146.34 134.16,146.3 L 134.16,146.28 C 134.16,146.2 134.17,146.24 134.17,146.21 L 134.17,146.14 C 134.19,146.06 134.2,145.97 134.22,145.89 134.39,145.24 134.72,144.7 135.16,144.25 135.38,144.04 135.65,143.85 135.96,143.76 136.27,143.66 136.63,143.72 136.87,143.9 L 136.82,143.99 Z M 136.82,143.99" />
        </g>
        <g id="jonnieSide05-group106">
            <path id="jonnieSide05-bezier105" stroke="none" fill="rgb(0, 0, 0)" d="M 140.16,143.29 C 139.42,143.06 138.51,143.23 138.13,143.77 137.77,144.29 138.1,145.07 138.49,145.68 138.89,146.29 139.51,146.81 139.99,147.11 140.14,147.23 140.55,147.23 140.86,147.21 141.17,147.17 141.48,147 141.8,146.72 L 141.88,146.77 C 141.82,147.18 141.56,147.64 141.1,147.87 140.87,147.99 140.65,148.05 140.41,148.09 140.25,148.14 139.84,148.13 139.6,148.03 138.62,147.63 138.2,146.83 137.79,146.07 137.6,145.68 137.45,145.26 137.39,144.81 137.33,144.38 137.4,143.82 137.75,143.46 138.47,142.77 139.47,142.86 140.19,143.19 L 140.16,143.29 Z M 140.16,143.29" />
        </g>
        <g id="jonnieSide05-group107">
            <path id="jonnieSide05-bezier106" stroke="none" fill="rgb(0, 0, 0)" d="M 139.8,140.63 C 140.16,141.18 140.66,141.64 141.26,141.87 141.85,142.11 142.54,142.14 143.14,141.97 L 143.11,141.99 C 143.44,141.66 143.5,141.11 143.3,140.66 143.12,140.2 142.79,139.81 142.42,139.44 141.68,138.64 141.25,137.65 140.6,136.87 139.31,135.25 137.18,134.73 135.29,133.82 131.44,132.09 127.88,129.8 124.39,127.46 122.66,126.28 120.91,125.11 119.24,123.82 117.56,122.54 115.96,121.16 114.41,119.73 111.35,116.85 108.44,113.79 105.89,110.44 L 105.97,110.38 C 108.9,113.38 111.91,116.28 115.06,119.02 118.2,121.77 121.46,124.34 124.88,126.76 128.29,129.18 131.77,131.52 135.53,133.31 L 138.39,134.63 C 139.34,135.12 140.25,135.75 140.92,136.62 141.58,137.48 141.97,138.47 142.65,139.23 143,139.61 143.36,140.04 143.55,140.57 143.75,141.09 143.69,141.75 143.25,142.16 L 143.23,142.17 143.21,142.18 C 142.53,142.35 141.82,142.29 141.2,142.02 140.57,141.75 140.06,141.25 139.71,140.69 L 139.8,140.63 Z M 139.8,140.63" />
        </g>
        <g id="jonnieSide05-group108">
            <path id="jonnieSide05-bezier107" stroke="none" fill="rgb(0, 0, 0)" d="M 141.22,143.27 C 141.06,143.6 140.98,143.98 141.03,144.33 141.08,144.69 141.28,144.89 141.57,145.19 141.83,145.47 142.08,145.75 142.35,146 142.6,146.24 142.91,146.47 143.13,146.49 143.46,146.58 143.64,145.85 143.8,145.21 143.95,144.54 144.06,143.85 143.89,143.1 L 143.97,143.04 C 144.67,143.57 144.84,144.53 144.79,145.35 144.76,145.78 144.64,146.2 144.39,146.61 144.25,146.81 144.1,147.01 143.81,147.18 143.56,147.33 143.2,147.36 142.94,147.27 142.41,147.08 142.14,146.75 141.87,146.45 141.62,146.13 141.4,145.81 141.18,145.5 140.98,145.22 140.69,144.77 140.74,144.34 140.75,143.92 140.91,143.54 141.14,143.21 L 141.22,143.27 Z M 141.22,143.27" />
        </g>
        <g id="jonnieSide05-group189">
            <path id="jonnieSide05-bezier188" stroke="none" fill="rgb(0, 0, 0)" d="M 43.19,263.62 C 44.79,264.02 46.38,264.4 47.97,264.75 48.77,264.93 49.58,265.01 50.35,265.25 51.13,265.48 51.88,265.74 52.68,266.03 L 52.68,266.13 C 51.83,266.4 50.96,266.33 50.14,266.23 49.31,266.12 48.54,265.79 47.76,265.52 46.19,264.99 44.66,264.38 43.16,263.71 L 43.19,263.62 Z M 43.19,263.62" />
        </g>
        <g id="jonnieSide05-group190">
            <path id="jonnieSide05-bezier189" stroke="none" fill="rgb(0, 0, 0)" d="M 98.75,270.37 C 100.09,270.04 101.44,269.76 102.8,269.54 103.47,269.43 104.15,269.23 104.85,269.26 105.54,269.29 106.26,269.34 106.94,269.7 L 106.92,269.8 C 106.23,269.99 105.59,270.16 104.91,270.26 104.24,270.38 103.56,270.31 102.88,270.33 L 98.77,270.47 98.75,270.37 Z M 98.75,270.37" />
        </g>
        <g id="jonnieSide05-group200">
            <path id="jonnieSide05-bezier199" stroke="none" fill="rgb(0, 0, 0)" d="M 80.91,45.96 C 83.67,47.41 86.47,48.79 89.32,50.02 90.75,50.62 92.22,51.12 93.64,51.66 94.36,51.93 95.08,52.17 95.81,52.37 96.53,52.54 97.29,52.72 98,52.46 L 98.06,52.54 C 97.41,53.11 96.48,53.1 95.7,53.06 94.88,53.01 94.1,52.83 93.33,52.61 91.8,52.18 90.39,51.45 88.98,50.75 86.18,49.34 83.48,47.75 80.86,46.05 L 80.91,45.96 Z M 80.91,45.96" />
        </g>
        <g id="jonnieSide05-group201">
            <path id="jonnieSide05-bezier200" stroke="none" fill="rgb(0, 0, 0)" d="M 66.5,73.96 C 67.75,73.87 68.96,74.25 70.11,74.68 71.25,75.14 72.34,75.74 73.38,76.4 74.41,77.07 75.46,77.74 76.34,78.61 77.21,79.47 78.02,80.4 78.67,81.47 L 78.6,81.54 C 77.56,80.86 76.62,80.1 75.68,79.36 74.73,78.63 73.88,77.78 72.92,77.06 71.97,76.33 70.97,75.67 69.9,75.13 68.85,74.6 67.71,74.11 66.51,74.06 L 66.5,73.96 Z M 66.5,73.96" />
        </g>
        <g id="jonnieSide05-group206">
            <path id="jonnieSide05-bezier205" stroke="none" fill="rgb(0, 0, 0)" d="M 100.81,133.94 L 101.03,138.06 C 101.06,138.75 101.2,139.42 101.14,140.1 101.09,140.79 101.02,141.46 100.81,142.17 L 100.71,142.18 C 100.37,141.52 100.23,140.82 100.14,140.13 100.05,139.44 100.18,138.74 100.23,138.05 100.33,136.67 100.49,135.3 100.71,133.93 L 100.81,133.94 Z M 100.81,133.94" />
        </g>
    </g>
</svg>
