<?xml version="1.0" encoding="UTF-8"?>
<!DOCTYPE svg PUBLIC "-//W3C//DTD SVG 1.1//EN" "http://www.w3.org/Graphics/SVG/1.1/DTD/svg11.dtd">
<svg version="1.1" xmlns="http://www.w3.org/2000/svg" xmlns:xlink="http://www.w3.org/1999/xlink" width="180" height="100"  xml:space="preserve" id="jonnieTop02">
    <!-- Generated by PaintCode - http://www.paintcodeapp.com -->
    <g id="jonnieTop02-group">
        <g id="jonnieTop02-group478">
            <g id="jonnieTop02-group479">
                <path id="jonnieTop02-bezier476" stroke="none" fill="rgb(0, 0, 0)" d="M 44.1,52.37 C 44.75,52.65 45.48,52.6 46.18,52.56 46.88,52.49 47.59,52.38 48.29,52.25 L 52.51,51.46 C 53.92,51.2 55.34,50.91 56.8,50.87 58.24,50.83 59.71,50.91 61.13,51.26 L 61.12,51.36 C 59.68,51.56 58.28,51.69 56.87,51.86 55.46,52.03 54.04,52.1 52.62,52.25 L 48.35,52.74 C 47.64,52.81 46.92,52.86 46.19,52.85 45.47,52.84 44.71,52.81 44.06,52.47 L 44.1,52.37 Z M 44.1,52.37" />
            </g>
            <g id="jonnieTop02-group480">
                <path id="jonnieTop02-bezier477" stroke="none" fill="rgb(0, 0, 0)" d="M 44.32,62.27 C 43.87,60.96 43.62,59.57 43.5,58.18 43.45,57.49 43.34,56.78 43.46,56.08 43.58,55.39 43.77,54.69 44.17,54.07 L 44.27,54.09 C 44.41,54.81 44.44,55.48 44.46,56.15 44.48,56.83 44.34,57.49 44.3,58.17 44.24,59.52 44.25,60.88 44.42,62.24 L 44.32,62.27 Z M 44.32,62.27" />
            </g>
            <g id="jonnieTop02-group481">
                <path id="jonnieTop02-bezier478" stroke="none" fill="rgb(0, 0, 0)" d="M 60.41,67.8 C 57.71,66.93 55,66.09 52.28,65.31 50.92,64.94 49.53,64.64 48.19,64.24 46.84,63.87 45.52,63.37 44.13,63.25 L 44.11,63.15 C 44.82,62.9 45.57,62.93 46.29,62.97 47.02,63.01 47.73,63.13 48.43,63.27 49.84,63.56 51.18,64.07 52.52,64.55 55.21,65.5 57.84,66.56 60.44,67.71 L 60.41,67.8 Z M 60.41,67.8" />
            </g>
            <g id="jonnieTop02-group482">
                <path id="jonnieTop02-bezier479" stroke="none" fill="rgb(0, 0, 0)" d="M 44.13,61.64 C 43.22,61.67 42.32,61.75 41.44,61.84 40.99,61.89 40.56,62.03 40.11,61.98 39.67,61.94 39.22,61.87 38.74,61.64 L 38.73,61.54 C 39.15,61.22 39.6,61.07 40.06,60.98 40.51,60.88 40.98,61 41.43,61.04 42.35,61.13 43.26,61.28 44.14,61.54 L 44.13,61.64 Z M 44.13,61.64" />
            </g>
            <g id="jonnieTop02-group483">
                <path id="jonnieTop02-bezier480" stroke="none" fill="rgb(0, 0, 0)" d="M 44.14,53.64 C 43.25,53.86 42.35,54.02 41.44,54.13 40.99,54.18 40.53,54.31 40.06,54.22 39.61,54.14 39.13,54 38.73,53.64 L 38.75,53.54 C 39.23,53.36 39.66,53.27 40.1,53.22 40.54,53.17 40.98,53.3 41.43,53.33 L 44.13,53.54 44.14,53.64 Z M 44.14,53.64" />
            </g>
            <g id="jonnieTop02-group484">
                <path id="jonnieTop02-bezier481" stroke="none" fill="rgb(0, 0, 0)" d="M 43.01,51.27 C 40.8,51.17 38.51,51.32 36.49,52.13 35.5,52.53 34.58,53.18 34.15,54.1 33.93,54.57 33.85,55.05 33.84,55.6 33.82,56.15 33.83,56.68 33.88,57.22 34.05,59.37 35,61.42 36.75,62.5 38.49,63.63 40.79,63.67 43,63.54 L 43.02,63.64 C 40.91,64.32 38.42,64.52 36.24,63.36 35.17,62.76 34.32,61.79 33.83,60.7 33.34,59.6 33.12,58.43 33.08,57.28 33.05,56.7 33.07,56.12 33.12,55.55 33.15,54.99 33.28,54.35 33.57,53.81 34.15,52.71 35.24,52.04 36.31,51.66 38.5,50.93 40.8,50.94 43.02,51.17 L 43.01,51.27 Z M 43.01,51.27" />
            </g>
        </g>
        <g id="jonnieTop02-group485">
            <path id="jonnieTop02-bezier482" stroke="none" fill="rgb(0, 0, 0)" d="M 49.43,15.93 C 48.1,16.65 46.72,17.21 45.33,17.77 43.92,18.31 42.51,18.81 41.02,19.17 40.28,19.34 39.53,19.52 38.67,19.48 38.56,19.47 38.44,19.45 38.32,19.43 L 38.06,19.37 37.53,19.27 C 37.17,19.2 36.82,19.14 36.47,19.1 35.76,18.99 35.04,18.94 34.35,18.99 33.67,19.05 32.95,19.22 32.61,19.9 L 32.52,19.87 C 32.54,19.47 32.79,19.09 33.12,18.83 33.45,18.57 33.84,18.41 34.22,18.3 35,18.08 35.79,18.07 36.57,18.11 36.95,18.14 37.34,18.19 37.72,18.25 38.07,18.31 38.54,18.46 38.78,18.49 39.4,18.58 40.15,18.49 40.86,18.38 42.31,18.13 43.74,17.74 45.16,17.3 46.58,16.87 48.02,16.43 49.38,15.84 L 49.43,15.93 Z M 49.43,15.93" />
        </g>
        <g id="jonnieTop02-group486">
            <path id="jonnieTop02-bezier483" stroke="none" fill="rgb(0, 0, 0)" d="M 41.29,22.62 C 40.74,23.32 39.98,23.9 39.03,24.17 38.57,24.29 38.03,24.41 37.55,24.21 37.07,24.02 36.67,23.68 36.47,23.2 L 36.53,23.12 C 37.04,23.15 37.43,23.22 37.8,23.24 38.16,23.26 38.51,23.4 38.9,23.38 39.67,23.33 40.5,23.02 41.22,22.55 L 41.29,22.62 Z M 41.29,22.62" />
        </g>
        <g id="jonnieTop02-group487">
            <path id="jonnieTop02-bezier484" stroke="none" fill="rgb(0, 0, 0)" d="M 39.03,22.4 C 41.23,22.45 43.44,22.47 45.63,22.47 46.73,22.46 47.83,22.35 48.92,22.4 50.01,22.43 51.08,22.54 52.18,22.49 L 52.22,22.59 C 51.2,23.19 50.04,23.3 48.94,23.4 47.82,23.5 46.71,23.35 45.6,23.26 43.4,23.1 41.2,22.84 39.01,22.5 L 39.03,22.4 Z M 39.03,22.4" />
        </g>
        <g id="jonnieTop02-group488">
            <path id="jonnieTop02-bezier485" stroke="none" fill="rgb(0, 0, 0)" d="M 70.98,41.88 C 70.96,37.46 72.82,33.09 75.97,29.97 79.1,26.83 83.51,24.99 87.98,24.97 92.45,24.92 96.93,26.68 100.15,29.82 103.4,32.92 105.35,37.36 105.34,41.89 105.4,46.4 103.51,50.91 100.27,54.08 97.03,57.26 92.52,59.07 87.98,59.05 85.73,59.02 83.46,58.56 81.39,57.69 79.31,56.81 77.42,55.51 75.86,53.91 72.72,50.73 70.91,46.31 70.98,41.88 Z M 71.07,41.88 C 71.1,44.08 71.57,46.26 72.45,48.26 73.34,50.26 74.65,52.05 76.23,53.53 79.41,56.48 83.7,58.12 87.99,58.05 92.26,58.07 96.53,56.36 99.58,53.37 102.68,50.42 104.54,46.2 104.54,41.88 104.59,37.58 102.79,33.3 99.7,30.28 96.63,27.23 92.33,25.47 87.98,25.47 83.64,25.4 79.28,27.09 76.12,30.12 74.54,31.64 73.25,33.46 72.38,35.48 71.52,37.5 71.07,39.69 71.07,41.88 Z M 71.07,41.88" />
        </g>
        <g id="jonnieTop02-group489">
            <path id="jonnieTop02-bezier486" stroke="none" fill="rgb(0, 0, 0)" d="M 105.41,39.8 C 105.98,39.92 106.53,40.11 107.07,40.38 107.57,40.68 108.15,41.09 108.33,41.87 108.41,42.23 108.33,42.69 108.11,43.02 107.88,43.35 107.58,43.57 107.26,43.69 106.64,43.91 106.01,43.93 105.4,43.72 L 105.39,43.62 C 105.92,43.29 106.42,43.06 106.82,42.79 107.21,42.51 107.53,42.37 107.53,41.97 107.54,41.58 107.2,41.13 106.79,40.8 106.38,40.44 105.89,40.14 105.38,39.89 L 105.41,39.8 Z M 105.41,39.8" />
        </g>
        <g id="jonnieTop02-group490">
            <path id="jonnieTop02-bezier487" stroke="none" fill="rgb(0, 0, 0)" d="M 71.23,57.29 C 72.15,60.39 73.08,63.49 73.96,66.61 74.41,68.15 74.77,69.75 75.34,71.24 75.96,72.73 76.35,74.26 76.58,75.91 L 76.49,75.95 C 75.45,74.63 74.79,73.1 74.49,71.49 74.15,69.88 73.8,68.32 73.41,66.75 L 71.13,57.32 71.23,57.29 Z M 71.23,57.29" />
        </g>
        <g id="jonnieTop02-group491">
            <path id="jonnieTop02-bezier488" stroke="none" fill="rgb(0, 0, 0)" d="M 95.66,71.45 C 97.13,70.7 98.32,69.47 99.17,68.09 100.03,66.7 100.55,65.13 100.79,63.52 101.02,61.91 100.93,60.28 100.84,58.66 100.76,57.02 100.54,55.39 100.37,53.71 L 100.47,53.69 C 101.16,55.23 101.61,56.88 101.84,58.56 102.06,60.26 101.93,61.99 101.57,63.67 101.22,65.34 100.58,66.97 99.58,68.37 98.58,69.74 97.26,70.9 95.69,71.55 L 95.66,71.45 Z M 95.66,71.45" />
        </g>
        <g id="jonnieTop02-group492">
            <path id="jonnieTop02-bezier489" stroke="none" fill="rgb(0, 0, 0)" d="M 60.71,21.3 C 61.16,23.56 61.71,25.8 62.66,27.83 63.14,28.85 63.79,29.75 64.41,30.64 65.04,31.54 65.78,32.34 66.64,33.14 L 66.59,33.23 C 65.45,32.9 64.43,32.16 63.63,31.27 62.81,30.37 62.34,29.24 61.92,28.14 61.09,25.93 60.78,23.61 60.61,21.32 L 60.71,21.3 Z M 60.71,21.3" />
        </g>
        <g id="jonnieTop02-group493">
            <path id="jonnieTop02-bezier490" stroke="none" fill="rgb(0, 0, 0)" d="M 100.24,25.34 L 96.87,20.26 C 95.75,18.56 94.64,16.85 93.37,15.31 92.09,13.76 90.56,12.54 88.76,11.85 86.95,11.13 84.93,10.91 82.91,10.63 L 82.91,10.53 C 84.93,10.27 87.05,10.26 89.09,10.91 90.11,11.25 91.07,11.79 91.88,12.48 92.69,13.18 93.38,13.98 94,14.81 95.23,16.47 96.26,18.24 97.29,19.99 L 100.33,25.29 100.24,25.34 Z M 100.24,25.34" />
        </g>
        <g id="jonnieTop02-group494">
            <path id="jonnieTop02-bezier491" stroke="none" fill="rgb(0, 0, 0)" d="M 77.07,78.93 C 77.5,79.92 78.17,80.79 78.89,81.59 79.6,82.39 80.39,83.11 81.24,83.77 82.08,84.43 83.02,84.94 83.88,85.58 84.75,86.21 85.64,86.82 86.49,87.55 L 86.45,87.64 C 85.35,87.41 84.32,86.96 83.35,86.42 82.37,85.89 81.53,85.13 80.72,84.38 79.91,83.62 79.16,82.79 78.5,81.9 77.86,80.99 77.29,80.03 76.98,78.96 L 77.07,78.93 Z M 77.07,78.93" />
        </g>
        <g id="jonnieTop02-group495">
            <path id="jonnieTop02-bezier492" stroke="none" fill="rgb(0, 0, 0)" d="M 89.06,87.51 C 91.21,88.91 93.85,89.35 96.38,89.43 98.95,89.51 101.47,89.09 103.99,88.54 109.04,87.54 114.12,86.65 119.22,85.92 124.33,85.21 129.46,84.49 134.67,84.62 135.99,84.66 137.27,84.85 138.53,84.9 139.79,84.96 141.06,84.92 142.32,84.8 143.57,84.66 144.83,84.41 145.96,83.88 146.52,83.61 147.05,83.27 147.44,82.8 147.82,82.32 148,81.69 147.87,81.06 L 147.97,81.04 C 148.18,81.67 148.06,82.41 147.67,82.97 147.29,83.53 146.74,83.95 146.17,84.28 145,84.93 143.71,85.26 142.42,85.49 141.12,85.71 139.81,85.76 138.51,85.76 137.19,85.76 135.91,85.61 134.65,85.62 129.56,85.62 124.43,86.11 119.33,86.71 114.23,87.34 109.14,88.13 104.08,89.03 101.56,89.51 98.96,89.88 96.37,89.73 93.8,89.58 91.15,89.07 88.99,87.59 L 89.06,87.51 Z M 89.06,87.51" />
        </g>
        <g id="jonnieTop02-group496">
            <path id="jonnieTop02-bezier493" stroke="none" fill="rgb(0, 0, 0)" d="M 138.09,77.34 C 139.26,77.66 140.46,77.91 141.66,78.03 142.27,78.09 142.87,78.11 143.46,78.03 144.03,77.95 144.65,77.7 144.69,77.13 144.76,76.61 144.24,76.18 143.75,75.89 143.25,75.58 142.69,75.35 142.13,75.12 141.57,74.88 140.99,74.67 140.43,74.41 140.15,74.28 139.86,74.15 139.59,73.98 139.46,73.9 139.29,73.76 139.21,73.71 139.14,73.65 139.11,73.67 139.08,73.65 139.03,73.65 138.99,73.63 138.93,73.64 138.46,73.7 137.92,74.08 137.42,74.4 L 135.9,75.42 C 134.87,76.09 133.79,76.71 132.64,77.2 130.36,78.19 127.84,78.63 125.37,78.62 120.44,78.6 115.58,78.19 110.71,77.78 108.29,77.54 105.86,77.35 103.43,77.19 101,77.04 98.57,76.9 96.13,77.08 L 96.12,76.98 C 98.54,76.52 101.01,76.49 103.45,76.49 105.9,76.51 108.35,76.65 110.79,76.78 115.67,77.06 120.53,77.7 125.37,77.82 127.78,77.88 130.17,77.51 132.39,76.6 133.51,76.15 134.57,75.57 135.59,74.94 L 137.13,73.95 C 137.67,73.64 138.15,73.24 138.9,73.14 139,73.13 139.1,73.15 139.2,73.17 139.32,73.2 139.44,73.26 139.48,73.3 139.66,73.43 139.71,73.49 139.85,73.57 140.09,73.73 140.35,73.87 140.62,74 141.16,74.26 141.72,74.5 142.28,74.74 142.84,74.99 143.41,75.25 143.94,75.59 144.2,75.76 144.46,75.96 144.68,76.21 144.89,76.46 145.05,76.81 144.99,77.18 144.98,77.28 144.95,77.34 144.93,77.42 144.88,77.52 144.86,77.59 144.8,77.66 144.7,77.81 144.56,77.92 144.41,78 144.12,78.17 143.8,78.24 143.49,78.28 142.87,78.35 142.25,78.3 141.64,78.23 140.42,78.07 139.23,77.78 138.05,77.43 L 138.09,77.34 Z M 138.09,77.34" />
        </g>
        <g id="jonnieTop02-group497">
            <path id="jonnieTop02-bezier494" stroke="none" fill="rgb(0, 0, 0)" d="M 95.52,81.06 C 95.06,79.45 94.6,77.85 94.12,76.26 93.88,75.47 93.55,74.7 93.38,73.91 L 93.1,72.72 C 93.06,72.53 93.01,72.33 92.95,72.16 92.92,72.07 92.89,71.99 92.86,71.95 92.85,71.9 92.79,71.89 92.7,71.96 L 92.61,71.9 C 92.62,71.8 92.77,71.62 92.97,71.68 93.13,71.73 93.23,71.82 93.32,71.9 93.5,72.07 93.63,72.25 93.75,72.44 93.99,72.82 94.17,73.21 94.33,73.6 94.65,74.4 94.74,75.25 94.9,76.07 95.21,77.72 95.44,79.38 95.62,81.04 L 95.52,81.06 Z M 95.52,81.06" />
        </g>
        <g id="jonnieTop02-group498">
            <path id="jonnieTop02-bezier495" stroke="none" fill="rgb(0, 0, 0)" d="M 113.63,34.29 C 114.85,33.12 115.46,31.42 115.25,29.86 115.16,29.06 114.81,28.34 114.55,27.59 114.27,26.83 113.92,26.09 113.62,25.25 L 113.7,25.19 C 114.44,25.69 115.02,26.38 115.45,27.17 115.9,27.96 116.04,28.9 116.05,29.81 116.06,30.72 115.84,31.63 115.43,32.42 115,33.2 114.41,33.88 113.69,34.36 L 113.63,34.29 Z M 113.63,34.29" />
        </g>
        <g id="jonnieTop02-group499">
            <path id="jonnieTop02-bezier496" stroke="none" fill="rgb(0, 0, 0)" d="M 113.65,24.22 C 110.71,23.44 107.78,22.65 104.86,21.85 103.4,21.46 101.92,21.12 100.48,20.62 99.05,20.11 97.63,19.57 96.26,18.88 L 96.29,18.78 C 97.82,18.95 99.3,19.29 100.77,19.66 102.24,20.04 103.66,20.59 105.09,21.09 107.97,22.06 110.83,23.07 113.68,24.12 L 113.65,24.22 Z M 113.65,24.22" />
        </g>
        <g id="jonnieTop02-group500">
            <path id="jonnieTop02-bezier497" stroke="none" fill="rgb(0, 0, 0)" d="M 113.08,35.1 C 111.78,35.57 110.43,35.85 109.07,36.03 108.38,36.12 107.7,36.28 107.01,36.21 106.32,36.15 105.63,36.03 104.97,35.72 L 104.97,35.62 C 105.66,35.38 106.33,35.28 107,35.21 107.67,35.13 108.34,35.24 109.01,35.23 109.68,35.24 110.36,35.22 111.03,35.18 111.7,35.15 112.38,35.11 113.05,35.01 L 113.08,35.1 Z M 113.08,35.1" />
        </g>
        <g id="jonnieTop02-group501">
            <path id="jonnieTop02-bezier498" stroke="none" fill="rgb(0, 0, 0)" d="M 117.16,35.1 C 118.16,35.01 119.15,34.88 120.14,34.77 121.12,34.67 122.11,34.47 123.01,34.25 123.45,34.16 123.97,34.04 123.9,33.98 123.92,33.52 123.88,33.05 123.67,32.71 123.47,32.37 123.03,32.18 122.57,32.06 122.1,31.94 121.6,31.89 121.1,31.82 L 121.1,31.72 C 121.6,31.68 122.11,31.66 122.62,31.71 123.13,31.75 123.73,31.89 124.12,32.38 124.51,32.86 124.59,33.45 124.63,33.97 L 124.63,34.06 C 124.64,34.14 124.64,34.21 124.62,34.27 124.59,34.41 124.52,34.52 124.45,34.6 124.32,34.77 124.18,34.86 124.04,34.94 123.77,35.1 123.51,35.19 123.25,35.26 122.72,35.38 122.2,35.38 121.69,35.39 121.18,35.4 120.67,35.4 120.17,35.39 119.16,35.38 118.16,35.28 117.16,35.2 L 117.16,35.1 Z M 117.16,35.1" />
        </g>
        <g id="jonnieTop02-group502">
            <path id="jonnieTop02-bezier499" stroke="none" fill="rgb(0, 0, 0)" d="M 123.22,29.73 C 123,28.94 122.68,28.18 122.29,27.48 121.91,26.77 121.44,26.11 120.9,25.56 120.34,25.01 119.67,24.66 119.03,24.31 118.37,23.94 117.64,23.72 116.82,23.46 L 116.82,23.36 C 117.63,23.07 118.57,23.08 119.42,23.39 120.3,23.67 120.96,24.36 121.49,25.03 122.57,26.41 123.12,28.06 123.32,29.71 L 123.22,29.73 Z M 123.22,29.73" />
        </g>
        <g id="jonnieTop02-group503">
            <path id="jonnieTop02-bezier500" stroke="none" fill="rgb(0, 0, 0)" d="M 73.3,72.69 C 70.66,72.19 68.03,71.51 65.51,70.46 64.25,69.94 62.98,69.37 61.91,68.46 60.86,67.57 59.9,66.31 59.81,64.89 L 59.91,64.87 C 60.52,66.08 61.47,66.93 62.52,67.67 63.57,68.4 64.67,69.13 65.85,69.74 68.22,70.92 70.76,71.81 73.33,72.59 L 73.3,72.69 Z M 73.3,72.69" />
        </g>
        <g id="jonnieTop02-group504">
            <path id="jonnieTop02-bezier501" stroke="none" fill="rgb(0, 0, 0)" d="M 81.49,10.63 C 79.08,10.69 76.68,10.9 74.3,11.23 71.92,11.54 69.56,11.99 67.28,12.67 65.02,13.38 62.81,14.34 61.02,15.76 60.12,16.46 59.4,17.36 58.97,18.41 58.54,19.46 58.47,20.66 58.61,21.85 L 58.51,21.87 C 58.09,20.73 57.97,19.43 58.31,18.19 58.64,16.94 59.45,15.86 60.37,15 62.3,13.3 64.72,12.52 67.06,11.9 69.43,11.3 71.84,10.95 74.25,10.73 76.66,10.53 79.07,10.46 81.49,10.53 L 81.49,10.63 Z M 81.49,10.63" />
        </g>
        <g id="jonnieTop02-group505">
            <path id="jonnieTop02-bezier502" stroke="none" fill="rgb(0, 0, 0)" d="M 72.79,69.9 C 68.63,69 65.02,66.15 62.8,62.51 61.69,60.69 60.91,58.66 60.47,56.57 60.02,54.46 59.95,52.34 59.76,50.24 59.46,46.03 59.24,41.8 59.44,37.57 59.57,35.45 59.72,33.34 60.05,31.24 60.39,29.15 60.81,27.04 61.7,25.11 L 61.8,25.14 C 61.18,27.15 60.93,29.24 60.74,31.32 60.56,33.41 60.46,35.5 60.44,37.6 60.37,41.79 60.37,46 60.56,50.2 60.69,52.29 60.72,54.41 61.1,56.44 61.49,58.48 62.19,60.46 63.23,62.26 65.28,65.86 68.72,68.77 72.81,69.8 L 72.79,69.9 Z M 72.79,69.9" />
        </g>
        <g id="jonnieTop02-group506">
            <path id="jonnieTop02-bezier503" stroke="none" fill="rgb(0, 0, 0)" d="M 65.46,33.18 C 65.55,38.3 65.95,43.42 66.84,48.44 67.3,50.95 67.94,53.41 68.58,55.86 69.21,58.32 70.02,60.72 70.9,63.14 L 70.81,63.18 C 69.41,61.01 68.43,58.59 67.62,56.14 66.84,53.67 66.4,51.11 66.05,48.56 65.32,43.46 65.16,38.31 65.36,33.18 L 65.46,33.18 Z M 65.46,33.18" />
        </g>
        <g id="jonnieTop02-group507">
            <path id="jonnieTop02-bezier504" stroke="none" fill="rgb(0, 0, 0)" d="M 93.8,77.12 C 92.62,78.03 91.18,78.55 89.74,78.9 88.28,79.23 86.78,79.34 85.28,79.32 83.79,79.29 82.28,79.18 80.83,78.79 79.39,78.4 77.99,77.87 76.69,77.12 L 76.73,77.03 C 78.2,77.26 79.62,77.57 81.05,77.81 82.47,78.06 83.88,78.39 85.32,78.52 86.76,78.64 88.21,78.63 89.64,78.41 91.07,78.2 92.51,77.82 93.74,77.04 L 93.8,77.12 Z M 93.8,77.12" />
        </g>
        <g id="jonnieTop02-group508">
            <path id="jonnieTop02-bezier505" stroke="none" fill="rgb(0, 0, 0)" d="M 59.84,14.11 C 58.25,14.66 56.66,15.23 55.12,15.87 54.34,16.18 53.62,16.6 52.86,16.89 52.11,17.21 51.32,17.41 50.72,17.97 L 50.63,17.93 C 50.68,17.45 51.02,17.06 51.34,16.76 51.67,16.45 52.05,16.21 52.42,15.99 53.18,15.54 54.03,15.35 54.85,15.11 56.49,14.64 58.14,14.28 59.82,14.01 L 59.84,14.11 Z M 59.84,14.11" />
        </g>
        <g id="jonnieTop02-group509">
            <path id="jonnieTop02-bezier506" stroke="none" fill="rgb(0, 0, 0)" d="M 58.35,23.49 C 57.01,23.58 55.66,23.58 54.31,23.45 53.64,23.39 52.94,23.38 52.28,23.11 51.66,22.84 50.94,22.47 50.64,21.75 L 50.72,21.69 C 51.34,21.95 51.94,22.01 52.57,22.15 53.19,22.26 53.8,22.51 54.44,22.66 55.72,22.96 57.03,23.19 58.35,23.39 L 58.35,23.49 Z M 58.35,23.49" />
        </g>
        <g id="jonnieTop02-group510">
            <path id="jonnieTop02-bezier507" stroke="none" fill="rgb(0, 0, 0)" d="M 49.83,18.48 C 49.47,18.89 49.21,19.43 49.31,19.76 49.35,19.94 49.53,20.01 49.58,20.21 49.65,20.4 49.76,20.64 49.83,21.02 L 49.77,21.1 C 49.39,21.17 49.06,21.06 48.79,20.82 48.51,20.59 48.44,20.12 48.51,19.75 48.57,19.36 48.78,19.06 49,18.85 49.24,18.64 49.5,18.5 49.77,18.4 L 49.83,18.48 Z M 49.83,18.48" />
        </g>
        <path id="jonnieTop02-bezier508" stroke="rgb(0, 0, 0)" stroke-width="1" stroke-miterlimit="10" fill="none" d="M 37.45,21.31 C 37.45,21.31 33.7,20.79 33.45,21.86" />
    </g>
</svg>
