<?xml version="1.0" encoding="UTF-8"?>
<!DOCTYPE svg PUBLIC "-//W3C//DTD SVG 1.1//EN" "http://www.w3.org/Graphics/SVG/1.1/DTD/svg11.dtd">
<svg version="1.1" xmlns="http://www.w3.org/2000/svg" xmlns:xlink="http://www.w3.org/1999/xlink" width="180" height="300"  xml:space="preserve" id="jonnieSide02">
    <!-- Generated by PaintCode - http://www.paintcodeapp.com -->
    <g id="jonnieSide02-group170">
        <g id="jonnieSide02-group442">
            <path id="jonnieSide02-bezier440" stroke="none" fill="rgb(0, 0, 0)" d="M 104.02,31.28 C 104.1,33.78 104.03,36.29 103.53,38.77 103.23,39.99 102.9,41.28 101.88,42.27 101.62,42.51 101.3,42.7 100.94,42.8 100.76,42.85 100.58,42.88 100.4,42.88 L 99.93,42.9 C 99.32,42.92 98.72,42.98 98.12,43.08 95.73,43.49 93.62,44.81 92.25,46.73 91.54,47.67 91.03,48.78 90.68,49.93 90.5,50.51 90.36,51.1 90.29,51.71 90.22,52.3 90.16,52.94 90.33,53.51 L 90.25,53.56 C 89.66,52.37 89.81,51.02 90,49.77 90.23,48.5 90.73,47.27 91.43,46.16 92.16,45.07 93.15,44.13 94.3,43.48 95.45,42.84 96.72,42.46 98,42.29 98.64,42.2 99.28,42.17 99.92,42.17 L 100.39,42.18 C 100.52,42.18 100.64,42.16 100.77,42.14 101.01,42.08 101.25,41.96 101.45,41.78 102.3,41.05 102.72,39.82 103.04,38.66 103.66,36.27 103.87,33.77 103.92,31.28 L 104.02,31.28 Z M 104.02,31.28" />
        </g>
        <g id="jonnieSide02-group443">
            <path id="jonnieSide02-bezier441" stroke="none" fill="rgb(0, 0, 0)" d="M 67.65,53.13 C 68.74,51.51 69.85,49.91 71.02,48.36 71.61,47.59 72.19,46.78 72.96,46.16 73.67,45.51 74.34,44.81 74.9,44.03 75.46,43.25 75.89,42.38 76.11,41.46 76.33,40.54 76.32,39.58 76.12,38.65 75.73,36.78 74.79,35.06 73.9,33.34 72.99,31.62 72.09,29.87 71.46,28 70.82,26.14 70.46,24.16 70.51,22.17 70.56,20.19 70.95,18.19 71.78,16.37 72.6,14.55 73.81,12.91 75.27,11.56 78.21,8.84 81.97,7.19 85.84,6.38 89.71,5.62 93.83,5.59 97.63,7.01 99.58,7.82 101.06,9.34 102.14,11.01 103.23,12.69 104,14.53 104.57,16.41 105.7,20.19 106.2,24.09 106.26,27.99 L 106.16,27.99 C 106.02,26.06 105.74,24.13 105.37,22.23 105.01,20.33 104.54,18.45 103.91,16.63 103.27,14.82 102.5,13.05 101.43,11.49 100.37,9.93 98.96,8.59 97.27,7.94 95.52,7.28 93.62,6.99 91.72,6.92 89.82,6.85 87.91,6.99 86.03,7.35 82.3,8.07 78.65,9.6 75.81,12.15 74.4,13.42 73.24,14.96 72.44,16.68 71.63,18.39 71.23,20.28 71.16,22.19 71.09,24.09 71.4,26 72,27.82 72.6,29.65 73.46,31.38 74.34,33.12 75.2,34.85 76.14,36.61 76.52,38.58 76.7,39.55 76.7,40.58 76.45,41.55 76.2,42.52 75.73,43.42 75.14,44.21 74.55,45 73.86,45.7 73.12,46.35 72.36,46.94 71.78,47.72 71.17,48.48 69.98,50.01 68.85,51.59 67.74,53.19 L 67.65,53.13 Z M 67.65,53.13" />
        </g>
        <g id="jonnieSide02-group444">
            <path id="jonnieSide02-bezier442" stroke="none" fill="rgb(0, 0, 0)" d="M 85.49,193.17 L 91.79,201.03 C 92.84,202.37 93.82,203.79 94.49,205.37 95.16,206.94 95.66,208.6 95.74,210.32 L 95.65,210.33 C 95.04,208.76 94.35,207.26 93.59,205.8 92.83,204.34 92.08,202.87 91.15,201.51 L 88.23,197.4 85.41,193.23 85.49,193.17 Z M 85.49,193.17" />
        </g>
        <g id="jonnieSide02-group445">
            <path id="jonnieSide02-bezier443" stroke="none" fill="rgb(0, 0, 0)" d="M 93.66,209.59 C 93.13,211.65 92.56,213.71 91.87,215.73 91.52,216.74 91.17,217.76 90.61,218.68 90.14,219.61 89.87,220.66 89.59,221.68 88.56,225.8 87.95,230.04 87.8,234.29 87.73,236.41 87.8,238.54 88.14,240.64 88.47,242.75 88.66,244.88 88.83,247.01 89.16,251.26 89.36,255.52 89.49,259.79 89.6,264.06 89.67,268.32 89.47,272.6 89.41,273.67 89.34,274.74 89.16,275.82 88.93,276.9 88.61,277.9 88.33,278.93 87.75,280.98 87.12,283.03 86.96,285.1 86.9,286.11 86.97,287.2 87.58,287.89 88.22,288.54 89.29,288.76 90.3,288.86 92.37,289.03 94.51,288.79 96.66,288.79 97.73,288.79 98.82,288.83 99.9,288.98 101,289.14 102.01,289.42 103.05,289.63 105.13,290.07 107.22,290.47 109.32,290.78 111.41,291.08 113.53,291.33 115.61,291.28 116.65,291.25 117.7,291.12 118.72,290.92 119.72,290.72 120.77,290.45 121.57,289.95 121.97,289.68 122.18,289.39 122.07,289.17 121.97,288.88 121.57,288.54 121.16,288.29 120.3,287.78 119.31,287.35 118.35,286.92 116.4,286.08 114.42,285.26 112.48,284.36 110.54,283.45 108.62,282.47 106.79,281.29 105.88,280.7 105,280.06 104.18,279.32 103.36,278.58 102.64,277.76 101.98,276.87 100.67,275.12 99.71,273.1 99.13,270.99 98.55,268.87 98.35,266.68 98.38,264.52 98.49,260.15 99.62,255.99 100.52,251.83 L 103.41,239.37 C 103.87,237.29 104.32,235.21 104.71,233.12 104.9,232.08 105.08,231.03 105.22,229.98 105.35,228.94 105.44,227.85 105.69,226.8 106.67,222.6 108.54,218.7 110.74,215.05 L 110.82,215.1 C 108.73,218.8 106.99,222.75 106.14,226.89 105.92,227.93 105.84,228.96 105.72,230.04 105.59,231.11 105.43,232.16 105.25,233.22 104.89,235.32 104.47,237.42 104.03,239.51 L 101.32,252.01 C 100.48,256.18 99.42,260.34 99.38,264.53 99.28,268.7 100.26,272.96 102.78,276.28 103.4,277.1 104.08,277.9 104.85,278.58 105.61,279.27 106.46,279.89 107.33,280.46 109.09,281.6 110.98,282.56 112.9,283.46 114.81,284.37 116.77,285.19 118.73,286.06 119.71,286.5 120.68,286.93 121.65,287.51 122.11,287.83 122.65,288.16 122.93,288.88 123.07,289.25 122.99,289.74 122.77,290.03 122.56,290.34 122.3,290.53 122.05,290.7 117.89,292.73 113.39,292.19 109.2,291.57 107.08,291.24 104.98,290.83 102.89,290.37 101.85,290.16 100.8,289.87 99.79,289.72 98.76,289.56 97.71,289.52 96.66,289.52 94.54,289.5 92.42,289.73 90.23,289.55 89.16,289.42 87.97,289.23 87.08,288.34 86.26,287.36 86.25,286.12 86.31,285.06 86.5,282.86 87.15,280.81 87.74,278.76 88.03,277.74 88.35,276.71 88.57,275.71 88.75,274.69 88.83,273.62 88.89,272.57 89.11,268.32 89.07,264.06 88.99,259.8 88.9,255.54 88.73,251.28 88.43,247.03 88.27,244.91 88.1,242.79 87.8,240.69 87.46,238.57 87.42,236.41 87.5,234.28 87.69,230.01 88.32,225.76 89.4,221.63 89.68,220.6 89.96,219.56 90.45,218.59 91.01,217.69 91.37,216.68 91.73,215.68 92.43,213.67 93.02,211.62 93.56,209.56 L 93.66,209.59 Z M 93.66,209.59" />
        </g>
        <g id="jonnieSide02-group446">
            <path id="jonnieSide02-bezier444" stroke="none" fill="rgb(0, 0, 0)" d="M 111.65,213.55 C 112.04,212.75 112.28,211.89 112.45,211.03 112.64,210.17 112.74,209.3 112.76,208.43 112.78,207.56 112.65,206.7 112.65,205.84 112.63,204.97 112.59,204.1 112.65,203.17 L 112.75,203.14 C 113.23,203.95 113.49,204.84 113.64,205.75 113.8,206.66 113.67,207.59 113.56,208.5 113.31,210.31 112.75,212.09 111.74,213.6 L 111.65,213.55 Z M 111.65,213.55" />
        </g>
        <g id="jonnieSide02-group447">
            <path id="jonnieSide02-bezier445" stroke="none" fill="rgb(0, 0, 0)" d="M 63.62,168.73 C 62.92,172.05 62.26,175.38 61.81,178.73 61.58,180.41 61.42,182.07 61.46,183.76 L 61.43,188.85 C 61.39,192.25 61.39,195.65 61.12,199.04 60.96,200.73 60.81,202.43 60.55,204.12 60.25,205.78 60.05,207.53 59.2,209.06 L 59.11,209.01 C 59.43,208.24 59.53,207.39 59.63,206.56 59.73,205.72 59.8,204.88 59.86,204.04 59.97,202.35 60.07,200.67 60.12,198.98 L 60.63,188.83 60.81,183.75 C 60.82,182.05 61.04,180.32 61.32,178.65 61.91,175.3 62.69,172 63.53,168.71 L 63.62,168.73 Z M 63.62,168.73" />
        </g>
        <g id="jonnieSide02-group448">
            <path id="jonnieSide02-bezier446" stroke="none" fill="rgb(0, 0, 0)" d="M 57.82,207.05 C 55.8,211.39 53.83,215.76 51.51,219.95 50.18,221.95 49.21,224.14 48.34,226.36 47.48,228.59 46.77,230.87 46.23,233.2 45.7,235.52 45.33,237.89 45.23,240.27 45.17,242.66 44.97,245.06 44.67,247.44 44.07,252.2 43.18,256.92 41.99,261.57 41.38,263.89 40.71,266.2 39.8,268.44 39.36,269.55 38.8,270.67 38.12,271.66 L 36.22,274.69 C 34.99,276.72 33.77,278.81 33.27,281.09 33.15,281.66 33.09,282.22 33.08,282.82 33.07,283.4 33.06,284 33.2,284.51 33.42,285.56 34.72,285.77 35.85,285.93 37.02,286.08 38.21,286.14 39.41,286.22 40.63,286.31 41.82,286.53 43,286.8 45.36,287.35 47.65,288.1 49.9,288.93 52.16,289.77 54.38,290.68 56.56,291.67 L 58.2,292.43 C 58.72,292.66 59.27,292.86 59.83,293.02 60.94,293.34 62.11,293.53 63.27,293.6 65.62,293.66 68.05,293.6 70.43,293.61 L 72.22,293.6 73.12,293.6 73.32,293.6 C 73.43,293.59 73.38,293.59 73.44,293.58 73.52,293.55 73.61,293.5 73.7,293.44 74.07,293.17 74.31,292.67 74.19,292.36 74.1,292.04 73.64,291.77 73.11,291.63 72.04,291.35 70.79,291.26 69.61,290.99 68.41,290.73 67.23,290.36 66.11,289.87 63.84,288.89 61.83,287.49 59.95,285.96 56.22,282.91 53.01,278.87 51.82,274.05 51.21,271.66 51.16,269.15 51.44,266.74 51.71,264.33 52.21,261.96 52.83,259.63 54.12,254.98 55.8,250.46 57.95,246.14 58.22,245.6 58.51,245.06 58.8,244.54 59.1,244.03 59.34,243.51 59.58,242.97 60.05,241.88 60.47,240.77 60.88,239.65 61.7,237.4 62.46,235.13 63.24,232.87 64.02,230.61 64.81,228.35 65.7,226.11 66.14,225 66.61,223.89 67.14,222.8 67.67,221.72 68.23,220.64 69.06,219.7 69.49,219.22 70,218.92 70.42,218.51 70.86,218.11 71.27,217.69 71.66,217.24 72.45,216.36 73.16,215.4 73.79,214.39 75.03,212.37 76.07,210.17 76.48,207.82 L 76.58,207.83 C 76.23,210.22 75.24,212.46 74.03,214.53 73.42,215.57 72.72,216.56 71.94,217.48 71.55,217.94 71.14,218.39 70.7,218.81 70.27,219.24 69.75,219.58 69.4,220.01 68.65,220.88 68.1,221.95 67.59,223.02 67.09,224.09 66.64,225.2 66.21,226.31 65.36,228.54 64.6,230.8 63.84,233.08 63.09,235.35 62.36,237.63 61.57,239.89 61.17,241.02 60.76,242.15 60.29,243.27 60.06,243.83 59.8,244.39 59.5,244.93 59.21,245.45 58.94,245.97 58.68,246.5 56.62,250.78 55.01,255.29 53.8,259.88 53.19,262.18 52.69,264.51 52.43,266.85 52.16,269.19 52.21,271.55 52.78,273.81 53.9,278.36 56.95,282.23 60.58,285.2 62.4,286.69 64.35,288.07 66.48,289 67.55,289.48 68.66,289.84 69.8,290.09 70.95,290.36 72.11,290.44 73.35,290.77 73.94,290.95 74.73,291.24 75.04,292.1 75.17,292.52 75.08,292.95 74.92,293.29 74.76,293.63 74.52,293.91 74.22,294.14 74.07,294.25 73.9,294.34 73.69,294.41 73.61,294.44 73.41,294.47 73.37,294.46 L 73.12,294.46 72.22,294.46 70.43,294.45 C 68.02,294.43 65.66,294.48 63.22,294.39 62,294.32 60.79,294.12 59.61,293.77 59.02,293.59 58.44,293.38 57.87,293.12 L 56.25,292.36 C 54.08,291.37 51.88,290.45 49.65,289.61 47.42,288.77 45.15,288.02 42.85,287.47 41.69,287.2 40.53,286.97 39.36,286.88 38.17,286.79 36.97,286.73 35.77,286.57 35.16,286.48 34.55,286.39 33.94,286.15 33.33,285.94 32.72,285.34 32.59,284.67 32.42,284.02 32.45,283.4 32.46,282.79 32.47,282.19 32.54,281.56 32.67,280.96 33.22,278.53 34.49,276.43 35.73,274.39 L 37.66,271.35 C 38.34,270.37 38.86,269.33 39.31,268.23 40.21,266.03 40.89,263.74 41.51,261.43 42.72,256.82 43.64,252.12 44.27,247.38 44.59,245.01 44.81,242.64 44.88,240.25 45,237.84 45.39,235.46 45.94,233.13 46.5,230.79 47.23,228.5 48.1,226.26 48.99,224.04 49.99,221.84 51.33,219.85 53.68,215.69 55.69,211.33 57.73,207.01 L 57.82,207.05 Z M 57.82,207.05" />
        </g>
        <g id="jonnieSide02-group449">
            <path id="jonnieSide02-bezier447" stroke="none" fill="rgb(0, 0, 0)" d="M 98.76,138.93 C 97.88,136.02 97.15,133.04 96.78,129.99 96.59,128.47 96.41,126.94 96.45,125.41 96.49,123.88 96.6,122.35 96.88,120.83 L 96.98,120.83 C 97.25,122.36 97.35,123.88 97.45,125.39 97.54,126.9 97.49,128.41 97.58,129.92 97.77,132.93 98.26,135.93 98.86,138.91 L 98.76,138.93 Z M 98.76,138.93" />
        </g>
        <g id="jonnieSide02-group450">
            <path id="jonnieSide02-bezier448" stroke="none" fill="rgb(0, 0, 0)" d="M 77.22,205.52 C 79.2,202.09 80.97,198.54 82.61,194.94 84.26,191.34 85.76,187.67 87.07,183.94 88.38,180.21 89.44,176.41 90.4,172.59 91.38,168.77 92.07,164.89 92.55,160.95 L 92.65,160.95 C 92.75,164.94 92.18,168.92 91.37,172.82 90.53,176.72 89.24,180.5 87.82,184.22 86.41,187.94 84.81,191.58 83.06,195.15 81.29,198.71 79.4,202.2 77.31,205.57 L 77.22,205.52 Z M 77.22,205.52" />
        </g>
        <g id="jonnieSide02-group451">
            <path id="jonnieSide02-bezier449" stroke="none" fill="rgb(0, 0, 0)" d="M 58.98,79.21 C 59.38,81.8 60.27,84.28 61.04,86.79 61.84,89.29 62.65,91.79 63.37,94.32 64.79,99.36 66.04,104.56 65.85,109.89 65.5,115.16 64.61,120.36 63.42,125.5 62.18,130.62 60.71,135.7 58.52,140.54 L 58.08,139.85 C 61.54,139.8 64.99,139.83 68.45,139.86 71.91,139.89 75.37,139.96 78.83,140.23 79.71,140.31 80.56,140.36 81.47,140.57 82.25,140.78 83.1,140.8 83.95,140.82 85.66,140.85 87.38,140.79 89.1,140.71 92.54,140.5 96.01,140.29 99.41,139.89 L 99.45,139.98 C 96.01,140.58 92.6,140.99 89.14,141.3 87.42,141.45 85.69,141.59 83.94,141.6 83.08,141.59 82.18,141.6 81.28,141.37 80.5,141.22 79.62,141.17 78.77,141.11 77.06,141.02 75.34,140.98 73.61,140.95 L 68.44,140.86 58.09,140.81 57.33,140.81 57.65,140.13 C 59.86,135.42 61.42,130.39 62.69,125.32 63.94,120.24 64.88,115.06 65.29,109.86 65.53,104.65 64.38,99.46 63.05,94.41 62.36,91.88 61.6,89.37 60.83,86.85 60.1,84.33 59.24,81.83 58.88,79.22 L 58.98,79.21 Z M 58.98,79.21" />
        </g>
        <g id="jonnieSide02-group452">
            <path id="jonnieSide02-bezier450" stroke="none" fill="rgb(0, 0, 0)" d="M 63.88,165.63 C 63.9,164.61 63.69,163.61 63.42,162.64 63.14,161.66 62.8,160.71 62.42,159.77 61.68,157.86 60.77,156.08 59.93,154.17 59.13,152.26 58.5,150.25 58.28,148.18 58.06,146.11 58.13,143.99 58.68,142 L 58.78,142.01 C 58.78,144.06 58.92,146.07 59.27,148.04 59.61,150.01 60,151.98 60.68,153.88 61.39,155.75 62.24,157.65 62.89,159.59 63.21,160.57 63.5,161.56 63.71,162.57 63.92,163.57 64.07,164.61 63.98,165.63 L 63.88,165.63 Z M 63.88,165.63" />
        </g>
        <g id="jonnieSide02-group453">
            <path id="jonnieSide02-bezier451" stroke="none" fill="rgb(0, 0, 0)" d="M 58.49,71.38 C 58.74,68.26 59.53,65.19 60.79,62.29 61.42,60.85 62.14,59.41 63.15,58.18 64.16,56.95 65.36,55.85 66.75,55.09 L 66.81,55.17 C 65.78,56.35 64.81,57.52 63.95,58.78 63.09,60.02 62.22,61.28 61.51,62.64 60.81,64 60.22,65.43 59.74,66.89 59.25,68.35 58.84,69.86 58.59,71.38 L 58.49,71.38 Z M 58.49,71.38" />
        </g>
        <g id="jonnieSide02-group454">
            <path id="jonnieSide02-bezier452" stroke="none" fill="rgb(0, 0, 0)" d="M 56.81,74.64 C 56.16,77.16 55.54,79.68 54.95,82.21 54.35,84.73 53.76,87.27 53.35,89.81 53,92.35 52.78,94.97 52.28,97.52 52.01,98.8 51.75,100.08 51.38,101.34 50.97,102.57 50.66,103.92 49.72,104.92 L 49.65,104.85 C 50,104.33 50.16,103.69 50.31,103.07 50.47,102.45 50.59,101.82 50.7,101.18 50.92,99.91 51.13,98.64 51.29,97.36 51.66,94.79 52.1,92.25 52.56,89.67 53.08,87.1 53.77,84.59 54.47,82.08 55.19,79.58 55.94,77.1 56.72,74.62 L 56.81,74.64 Z M 56.81,74.64" />
        </g>
        <g id="jonnieSide02-group455">
            <path id="jonnieSide02-bezier453" stroke="none" fill="rgb(0, 0, 0)" d="M 48.73,105.98 C 48.67,106.73 48.62,107.48 48.59,108.21 48.58,108.58 48.66,108.95 48.57,109.3 48.48,109.65 48.36,109.97 48.15,110.37 L 48.05,110.39 C 47.72,110.05 47.61,109.62 47.57,109.23 47.52,108.83 47.7,108.46 47.8,108.09 48.02,107.35 48.3,106.64 48.63,105.95 L 48.73,105.98 Z M 48.73,105.98" />
        </g>
        <g id="jonnieSide02-group456">
            <path id="jonnieSide02-bezier454" stroke="none" fill="rgb(0, 0, 0)" d="M 47.31,113.48 C 46.46,115.58 45.75,117.73 45.2,119.92 44.65,122.11 44.27,124.34 44.23,126.59 44.06,131.11 43.94,135.65 43.59,140.17 43.41,142.44 43.2,144.71 42.79,146.97 42.57,148.1 42.33,149.23 41.85,150.34 41.72,150.62 41.58,150.9 41.39,151.17 41.18,151.47 40.98,151.65 40.81,151.86 40.45,152.27 40.1,152.71 39.76,153.16 38.37,154.92 37.08,156.77 35.8,158.63 35.15,159.56 34.53,160.5 33.92,161.45 33.61,161.92 33.31,162.4 33.02,162.88 32.76,163.37 32.41,163.87 32.31,164.37 L 32.21,164.39 C 32.24,163.77 32.54,163.28 32.76,162.75 33,162.23 33.26,161.72 33.52,161.22 34.06,160.22 34.63,159.23 35.21,158.26 36.38,156.3 37.63,154.41 38.97,152.55 39.31,152.09 39.66,151.64 40.03,151.2 40.22,150.97 40.43,150.75 40.55,150.58 40.68,150.39 40.79,150.16 40.9,149.92 41.32,148.96 41.59,147.86 41.82,146.78 42.28,144.59 42.55,142.35 42.79,140.1 43.24,135.61 43.46,131.09 43.73,126.56 43.84,124.28 44.29,122.03 44.91,119.84 45.53,117.66 46.3,115.52 47.22,113.44 L 47.31,113.48 Z M 47.31,113.48" />
        </g>
        <g id="jonnieSide02-group457">
            <path id="jonnieSide02-bezier455" stroke="none" fill="rgb(0, 0, 0)" d="M 45.15,158.03 C 45.54,159.21 45.94,160.39 46.37,161.55 46.58,162.13 46.79,162.71 47.02,163.28 47.14,163.56 47.26,163.84 47.39,164.1 47.47,164.25 47.5,164.31 47.61,164.46 47.64,164.49 47.73,164.69 47.75,164.76 47.78,164.85 47.8,164.94 47.82,165.02 48.07,166.33 48.2,167.52 48.32,168.73 48.38,169.33 48.45,169.92 48.59,170.47 48.75,171.02 48.95,171.57 49.52,171.83 L 49.51,171.93 C 48.8,171.95 48.23,171.32 47.94,170.74 47.63,170.14 47.46,169.5 47.33,168.88 47.06,167.63 47.18,166.33 47.04,165.18 47.03,165.11 47.02,165.05 47,164.99 46.97,164.91 47.02,164.97 46.96,164.86 46.89,164.76 46.78,164.54 46.73,164.41 46.61,164.1 46.51,163.8 46.41,163.5 46.23,162.9 46.06,162.3 45.9,161.7 45.59,160.49 45.32,159.28 45.05,158.06 L 45.15,158.03 Z M 45.15,158.03" />
        </g>
        <g id="jonnieSide02-group458">
            <path id="jonnieSide02-bezier456" stroke="none" fill="rgb(0, 0, 0)" d="M 50.1,171.83 C 50.27,171.69 50.34,171.29 50.39,171 50.43,170.68 50.46,170.36 50.47,170.04 50.51,169.39 50.5,168.75 50.49,168.1 50.46,166.81 50.37,165.52 50.27,164.23 50.06,161.65 49.93,159.06 49.74,156.49 49.65,155.2 49.42,153.96 49.16,152.68 48.93,151.37 48.87,150.06 48.92,148.74 49.02,146.12 49.56,143.53 50.36,141.04 50.75,139.79 51.25,138.56 51.73,137.38 52.21,136.18 52.65,134.97 53.08,133.75 53.92,131.32 54.72,128.87 55.42,126.4 56.15,123.93 56.76,121.42 57.23,118.89 57.7,116.37 58.01,113.8 57.97,111.22 L 58.07,111.21 C 58.4,113.79 58.25,116.42 57.92,119 57.59,121.59 57.03,124.14 56.39,126.66 55.71,129.18 54.92,131.66 54.01,134.09 53.55,135.31 53.07,136.52 52.56,137.72 52.04,138.92 51.54,140.08 51.12,141.29 50.29,143.71 49.72,146.23 49.57,148.77 49.5,150.05 49.53,151.33 49.72,152.58 49.96,153.84 50.18,155.15 50.24,156.45 50.36,159.05 50.42,161.63 50.57,164.21 50.64,165.51 50.69,166.8 50.69,168.1 50.69,168.75 50.67,169.4 50.62,170.05 50.6,170.37 50.57,170.69 50.51,171.02 50.48,171.18 50.45,171.34 50.4,171.5 50.33,171.65 50.33,171.83 50.1,171.93 L 50.1,171.83 Z M 50.1,171.83" />
        </g>
        <g id="jonnieSide02-group459">
            <path id="jonnieSide02-bezier457" stroke="none" fill="rgb(0, 0, 0)" d="M 56.31,111.6 C 57.7,109.73 59.03,107.83 60.27,105.88 60.89,104.9 61.41,103.87 62.03,102.91 62.64,101.94 63.24,100.99 63.8,99.95 L 63.9,99.98 C 63.86,101.19 63.41,102.34 62.9,103.4 62.38,104.47 61.63,105.39 60.93,106.33 59.53,108.21 58,109.98 56.39,111.66 L 56.31,111.6 Z M 56.31,111.6" />
        </g>
        <g id="jonnieSide02-group460">
            <path id="jonnieSide02-bezier458" stroke="none" fill="rgb(0, 0, 0)" d="M 32.04,166.24 C 32.3,167 32.95,167.62 33.69,167.62 34.4,167.62 35.24,167.39 35.86,167.03 36.17,166.84 36.44,166.6 36.58,166.33 36.74,166.06 36.79,165.83 36.8,165.48 36.82,164.87 36.59,164.14 35.81,163.87 L 35.8,163.77 C 36.24,163.59 36.78,163.76 37.15,164.1 37.53,164.44 37.74,164.93 37.8,165.44 37.88,165.9 37.72,166.52 37.39,166.91 37.06,167.31 36.64,167.56 36.22,167.75 35.36,168.09 34.54,168.22 33.62,168.11 32.67,167.94 32.07,167.08 31.94,166.26 L 32.04,166.24 Z M 32.04,166.24" />
        </g>
        <g id="jonnieSide02-group461">
            <path id="jonnieSide02-bezier459" stroke="none" fill="rgb(0, 0, 0)" d="M 33.22,169.54 C 33.42,170.04 33.45,170.52 33.65,170.96 33.81,171.41 34.13,171.76 34.49,171.65 35.37,171.41 36.33,171.05 37.16,170.61 37.98,170.17 38.75,169.51 38.97,168.92 38.99,168.84 39.01,168.79 39.02,168.67 L 39.06,168.3 C 39.09,168.04 39.12,167.8 39.16,167.55 39.2,167.31 39.26,167.06 39.28,166.84 39.32,166.61 39.32,166.45 39.1,166.3 L 39.13,166.21 C 39.26,166.21 39.42,166.26 39.53,166.39 39.64,166.52 39.69,166.66 39.74,166.8 39.81,167.07 39.84,167.32 39.87,167.57 L 39.94,168.3 39.96,168.67 C 39.97,168.8 39.97,169 39.94,169.15 39.8,169.83 39.34,170.28 38.9,170.6 38.45,170.91 37.97,171.13 37.5,171.33 36.53,171.71 35.6,171.97 34.55,172.15 34.24,172.18 33.89,172.03 33.71,171.79 33.52,171.56 33.43,171.3 33.36,171.05 33.22,170.56 33.25,170.03 33.14,169.59 L 33.22,169.54 Z M 33.22,169.54" />
        </g>
        <g id="jonnieSide02-group462">
            <path id="jonnieSide02-bezier460" stroke="none" fill="rgb(0, 0, 0)" d="M 35.97,173.1 C 36.25,173.48 36.64,173.8 37.06,173.88 37.47,173.96 37.88,173.7 38.3,173.49 39.11,173.04 39.88,172.45 40.44,171.77 40.57,171.59 40.69,171.41 40.76,171.24 40.8,171.15 40.83,171.06 40.84,170.98 L 40.9,170.64 C 40.99,170.18 41.06,169.72 41.16,169.27 41.25,168.82 41.34,168.37 41.37,167.93 41.38,167.5 41.45,167.03 40.99,166.87 L 40.99,166.77 C 41.26,166.67 41.6,166.85 41.77,167.09 41.94,167.34 42.02,167.61 42.08,167.87 42.19,168.39 42.18,168.9 42.15,169.41 42.12,169.91 42,170.39 41.87,170.87 L 41.74,171.24 C 41.69,171.39 41.62,171.52 41.55,171.65 41.4,171.9 41.22,172.11 41.04,172.29 40.29,173.04 39.43,173.54 38.52,173.94 38.28,174.03 38.05,174.11 37.8,174.17 37.55,174.24 37.24,174.27 36.99,174.17 36.47,173.98 36.13,173.58 35.89,173.15 L 35.97,173.1 Z M 35.97,173.1" />
        </g>
        <g id="jonnieSide02-group463">
            <path id="jonnieSide02-bezier461" stroke="none" fill="rgb(0, 0, 0)" d="M 39.55,174.84 C 40.03,175.04 40.54,175.2 41.05,175.25 41.55,175.31 42.08,175.2 42.24,174.82 42.66,173.88 43.1,172.89 43.46,171.92 43.81,170.95 44.08,169.88 44.15,169.03 44.17,168.87 44.1,168.57 44.09,168.29 44.08,168.01 44.07,167.74 44.08,167.48 44.08,167.23 44.07,166.94 44.04,166.83 44.1,166.71 43.75,166.75 43.52,166.86 L 43.46,166.78 C 43.55,166.67 43.65,166.56 43.79,166.49 43.9,166.4 44.18,166.34 44.37,166.52 44.67,166.84 44.69,167.12 44.77,167.38 L 44.96,168.15 C 45.01,168.4 45.11,168.61 45.15,168.99 45.2,170.28 44.63,171.23 44.19,172.22 43.72,173.21 43.21,174.12 42.66,175.08 42.48,175.36 42.16,175.54 41.86,175.59 41.56,175.64 41.27,175.6 41,175.55 40.46,175.42 39.96,175.19 39.5,174.92 L 39.55,174.84 Z M 39.55,174.84" />
        </g>
        <g id="jonnieSide02-group464">
            <path id="jonnieSide02-bezier462" stroke="none" fill="rgb(0, 0, 0)" d="M 74.98,69.49 C 76.52,74.6 78.13,79.7 79.76,84.78 80.58,87.32 81.41,89.86 82.3,92.37 82.74,93.63 83.2,94.88 83.68,96.12 84.16,97.34 84.64,98.63 85.24,99.69 L 85.3,99.8 85.31,99.89 C 85.6,101.94 85.76,104 86.11,106.01 86.27,107.02 86.47,108.02 86.81,108.97 87.14,109.89 87.67,110.87 88.69,111.1 L 88.68,111.2 C 88.14,111.17 87.63,110.89 87.26,110.49 86.88,110.1 86.59,109.64 86.36,109.16 85.91,108.19 85.63,107.18 85.37,106.16 84.92,104.12 84.6,102.07 84.3,100.03 L 84.38,100.23 C 83.64,98.98 83.22,97.73 82.75,96.46 82.3,95.2 81.89,93.92 81.48,92.65 80.68,90.09 79.9,87.54 79.15,84.97 77.64,79.84 76.25,74.68 74.88,69.52 L 74.98,69.49 Z M 74.98,69.49" />
        </g>
        <g id="jonnieSide02-group465">
            <path id="jonnieSide02-bezier463" stroke="none" fill="rgb(0, 0, 0)" d="M 90.59,112.34 C 92.42,114.12 94.32,115.83 96.28,117.46 98.26,119.06 100.28,120.66 102.52,121.8 104.89,122.71 107.15,124.03 109.35,125.32 111.55,126.63 113.72,127.99 115.86,129.38 118.01,130.77 120.14,132.19 122.24,133.67 123.28,134.42 124.32,135.17 125.33,135.97 126.33,136.8 127.35,137.53 128.23,138.66 129.58,140.62 132.15,141.61 134.02,143.46 134.49,143.93 134.92,144.44 135.27,145.01 135.63,145.59 135.84,146.2 136.12,146.76 136.39,147.34 136.67,147.9 136.98,148.46 L 137.44,149.31 C 137.57,149.58 137.77,149.94 137.6,150.27 L 137.51,150.24 C 137.61,149.95 137.42,149.67 137.26,149.41 L 136.73,148.61 C 136.38,148.08 136.04,147.53 135.72,146.97 135.39,146.41 135.14,145.82 134.78,145.33 134.43,144.83 134.01,144.38 133.55,143.97 132.61,143.17 131.54,142.51 130.45,141.82 129.39,141.12 128.24,140.38 127.42,139.25 126.73,138.36 125.66,137.56 124.69,136.78 123.69,136 122.68,135.22 121.65,134.47 119.61,132.95 117.52,131.49 115.42,130.05 113.31,128.62 111.17,127.22 109.01,125.87 106.83,124.54 104.68,123.22 102.3,122.25 100.01,121 98.03,119.35 96.09,117.69 94.16,116 92.31,114.24 90.52,112.41 L 90.59,112.34 Z M 90.59,112.34" />
        </g>
        <g id="jonnieSide02-group466">
            <path id="jonnieSide02-bezier464" stroke="none" fill="rgb(0, 0, 0)" d="M 139.08,152.08 C 139.71,152.24 140.08,151.63 140.2,151.08 140.36,150.52 140.4,149.91 140.4,149.3 140.41,148.7 140.28,148.11 140.29,147.52 140.27,146.93 140.32,146.31 140.22,145.74 L 140.27,145.65 C 140.64,145.82 140.81,146.15 140.97,146.45 141.12,146.76 141.21,147.08 141.28,147.41 141.43,148.06 141.3,148.73 141.2,149.37 141.09,150.01 140.95,150.65 140.67,151.27 140.51,151.56 140.32,151.86 140.03,152.07 139.74,152.29 139.34,152.34 139.04,152.18 L 139.08,152.08 Z M 139.08,152.08" />
        </g>
        <g id="jonnieSide02-group467">
            <path id="jonnieSide02-bezier465" stroke="none" fill="rgb(0, 0, 0)" d="M 141.66,151.09 C 142.14,150.8 142.56,150.39 142.78,149.93 143.02,149.46 143.02,149 142.83,148.5 142.66,147.94 142.49,147.28 142.58,146.71 L 142.69,145.93 C 142.72,145.72 142.72,145.53 142.48,145.3 L 142.51,145.21 C 142.67,145.19 142.85,145.21 143.02,145.32 143.19,145.43 143.32,145.61 143.38,145.78 143.52,146.13 143.54,146.43 143.58,146.71 143.64,147.29 143.53,147.77 143.61,148.33 143.74,148.93 143.61,149.71 143.2,150.2 142.79,150.69 142.25,151 141.7,151.18 L 141.66,151.09 Z M 141.66,151.09" />
        </g>
        <g id="jonnieSide02-group468">
            <path id="jonnieSide02-bezier466" stroke="none" fill="rgb(0, 0, 0)" d="M 144.35,150.75 C 144.75,150.46 145.01,150.02 145.14,149.58 145.3,149.14 145.33,148.67 145.29,148.2 145.25,147.73 145.06,147.29 145.03,146.81 144.98,146.34 144.94,145.84 145.01,145.27 L 145.1,145.24 C 145.54,145.61 145.81,146.08 146,146.59 146.19,147.1 146.14,147.67 146.09,148.22 146.02,148.77 145.88,149.31 145.6,149.79 145.3,150.26 144.89,150.65 144.39,150.84 L 144.35,150.75 Z M 144.35,150.75" />
        </g>
        <g id="jonnieSide02-group469">
            <path id="jonnieSide02-bezier467" stroke="none" fill="rgb(0, 0, 0)" d="M 147.13,148.55 C 147.45,147.19 147.71,145.76 147.43,144.39 147.29,143.7 147.15,143.01 146.87,142.37 146.6,141.74 146.19,141.17 145.71,140.67 144.75,139.65 143.53,138.96 142.3,138.26 141.07,137.58 139.81,136.94 138.55,136.29 136.04,135 133.49,133.69 131.18,132.02 128.85,130.4 126.59,128.69 124.38,126.9 122.18,125.11 120.02,123.26 118.03,121.19 117.54,120.67 117.06,120.12 116.62,119.55 L 115.3,117.9 C 114.42,116.81 113.51,115.73 112.58,114.68 110.74,112.54 108.81,110.49 106.77,108.56 105.75,107.59 104.69,106.67 103.57,105.83 102.46,104.99 101.28,104.18 99.92,103.8 L 99.94,103.71 C 101.36,103.97 102.63,104.7 103.83,105.45 105.03,106.24 106.15,107.12 107.24,108.04 109.4,109.89 111.4,111.93 113.33,114.01 114.28,115.07 115.21,116.15 116.11,117.25 116.56,117.8 117,118.37 117.42,118.93 117.84,119.47 118.29,120 118.76,120.52 120.64,122.58 122.75,124.46 124.89,126.29 127.05,128.1 129.28,129.84 131.56,131.49 133.81,133.18 136.29,134.51 138.79,135.85 140.03,136.52 141.27,137.2 142.5,137.91 143.71,138.64 144.97,139.39 145.93,140.47 146.42,141 146.83,141.61 147.11,142.28 147.38,142.95 147.51,143.66 147.63,144.35 147.88,145.79 147.58,147.22 147.23,148.58 L 147.13,148.55 Z M 147.13,148.55" />
        </g>
        <g id="jonnieSide02-group470">
            <path id="jonnieSide02-bezier468" stroke="none" fill="rgb(0, 0, 0)" d="M 98.76,102.13 C 98.57,99.76 98.29,97.39 97.95,95.04 97.64,92.68 97.26,90.34 96.8,88 96.35,85.67 95.76,83.38 95.25,81.07 94.75,78.75 94.14,76.47 93.55,74.15 L 93.65,74.11 C 94.78,76.23 95.54,78.52 96.22,80.82 96.87,83.13 97.24,85.5 97.59,87.87 98.31,92.6 98.74,97.36 98.86,102.13 L 98.76,102.13 Z M 98.76,102.13" />
        </g>
        <g id="jonnieSide02-group471">
            <path id="jonnieSide02-bezier469" stroke="none" fill="rgb(0, 0, 0)" d="M 91.64,55.1 C 94.23,58.3 96.59,61.69 98.63,65.3 99.63,67.1 100.54,68.97 101.25,70.93 101.61,71.9 101.91,72.91 102.14,73.93 102.37,74.96 102.46,76.02 102.53,77.05 102.8,81.19 102.73,85.32 102.44,89.44 102.11,93.55 101.69,97.65 100.98,101.72 L 100.88,101.71 101.44,89.38 C 101.6,85.28 101.89,81.17 101.73,77.09 101.69,73.02 100.05,69.16 98.19,65.53 96.29,61.9 94.04,58.44 91.56,55.16 L 91.64,55.1 Z M 91.64,55.1" />
        </g>
        <g id="jonnieSide02-group472">
            <path id="jonnieSide02-bezier470" stroke="none" fill="rgb(0, 0, 0)" d="M 40.94,266.7 C 42.61,267.06 44.29,267.38 45.95,267.65 46.79,267.78 47.64,267.8 48.45,267.99 49.27,268.17 50.08,268.35 50.93,268.62 L 50.93,268.72 C 50.08,269.01 49.18,269.03 48.32,268.98 47.45,268.94 46.62,268.65 45.79,268.43 44.13,267.98 42.51,267.44 40.92,266.8 L 40.94,266.7 Z M 40.94,266.7" />
        </g>
        <g id="jonnieSide02-group473">
            <path id="jonnieSide02-bezier471" stroke="none" fill="rgb(0, 0, 0)" d="M 89.76,270.45 C 91.17,270.28 92.57,270.13 93.97,269.99 94.66,269.92 95.36,269.77 96.06,269.8 96.76,269.82 97.45,269.9 98.17,270.04 L 98.19,270.13 C 97.53,270.55 96.81,270.68 96.11,270.8 95.41,270.91 94.7,270.81 93.99,270.79 92.58,270.75 91.17,270.67 89.76,270.55 L 89.76,270.45 Z M 89.76,270.45" />
        </g>
        <g id="jonnieSide02-group474">
            <path id="jonnieSide02-bezier472" stroke="none" fill="rgb(0, 0, 0)" d="M 72.46,47.87 C 73.9,48.68 75.38,49.43 76.86,50.16 78.34,50.89 79.83,51.6 81.34,52.24 82.86,52.87 84.41,53.4 85.94,53.93 86.7,54.19 87.47,54.41 88.25,54.56 89.01,54.67 89.85,54.75 90.47,54.22 L 90.55,54.28 C 90.35,54.68 89.93,54.93 89.5,55.08 89.07,55.2 88.63,55.25 88.19,55.25 87.32,55.26 86.47,55.09 85.65,54.88 84.01,54.46 82.5,53.71 81.01,52.97 78.02,51.49 75.17,49.79 72.4,47.96 L 72.46,47.87 Z M 72.46,47.87" />
        </g>
        <g id="jonnieSide02-group475">
            <path id="jonnieSide02-bezier473" stroke="none" fill="rgb(0, 0, 0)" d="M 80.48,84.89 C 82.87,84.31 85.25,83.7 87.61,83.05 88.79,82.72 89.94,82.3 91.13,82.03 92.31,81.75 93.49,81.49 94.72,81.27 L 94.76,81.36 C 93.74,82.1 92.57,82.58 91.4,82.99 90.23,83.4 89,83.58 87.79,83.83 85.38,84.31 82.94,84.69 80.5,84.99 L 80.48,84.89 Z M 80.48,84.89" />
        </g>
        <g id="jonnieSide02-group476">
            <path id="jonnieSide02-bezier474" stroke="none" fill="rgb(0, 0, 0)" d="M 55.81,80.51 C 56.37,80.46 56.92,80.44 57.47,80.46 57.75,80.47 58.05,80.41 58.3,80.55 58.55,80.69 58.83,80.87 58.96,81.27 L 58.9,81.35 C 58.56,81.47 58.31,81.53 58.05,81.52 57.78,81.52 57.56,81.34 57.31,81.24 56.81,81.05 56.3,80.84 55.8,80.61 L 55.81,80.51 Z M 55.81,80.51" />
        </g>
        <g id="jonnieSide02-group477">
            <path id="jonnieSide02-bezier475" stroke="none" fill="rgb(0, 0, 0)" d="M 98.17,141.22 C 98.06,143.78 97.98,146.35 98.02,148.91 98.03,149.55 98.05,150.19 98.1,150.82 98.16,151.47 98.22,152.06 98.5,152.64 99,153.8 99.6,154.94 100.2,156.07 100.8,157.2 101.43,158.32 102.06,159.43 102.68,160.6 103.18,161.76 103.71,162.94 104.74,165.31 105.67,167.71 106.5,170.15 107.34,172.59 108.09,175.06 108.71,177.57 109.33,180.08 109.86,182.6 110.02,185.24 109.98,187.82 110.23,190.34 110.44,192.9 L 111.16,200.57 111.06,200.58 C 110.54,198.06 110.12,195.53 109.75,192.98 109.39,190.45 109.08,187.85 109.02,185.29 108.94,184.05 108.74,182.79 108.51,181.54 108.29,180.29 108.04,179.04 107.75,177.8 107.19,175.31 106.52,172.84 105.74,170.4 104.96,167.97 104.09,165.56 103.11,163.2 102.61,162.03 102.12,160.82 101.55,159.71 100.94,158.58 100.34,157.44 99.76,156.3 99.18,155.15 98.61,154 98.12,152.79 97.85,152.19 97.78,151.48 97.75,150.85 97.72,150.2 97.72,149.56 97.72,148.91 97.75,146.34 97.89,143.77 98.07,141.21 L 98.17,141.22 Z M 98.17,141.22" />
        </g>
    </g>
</svg>
