<?xml version="1.0" encoding="UTF-8"?>
<!DOCTYPE svg PUBLIC "-//W3C//DTD SVG 1.1//EN" "http://www.w3.org/Graphics/SVG/1.1/DTD/svg11.dtd">
<svg version="1.1" xmlns="http://www.w3.org/2000/svg" xmlns:xlink="http://www.w3.org/1999/xlink" width="180" height="300"  xml:space="preserve" id="jonnieSide04">
    <!-- Generated by PaintCode - http://www.paintcodeapp.com -->
    <g id="jonnieSide04-group">
        <g id="jonnieSide04-group39">
            <path id="jonnieSide04-bezier38" stroke="none" fill="rgb(0, 0, 0)" d="M 130.88,33.23 C 130.68,29.75 130.13,26.27 129.15,22.93 128.66,21.26 128.04,19.62 127.22,18.1 126.4,16.58 125.37,15.15 124.02,14.1 122.7,13.01 121.02,12.54 119.32,12.23 117.62,11.94 115.89,11.88 114.16,11.99 110.72,12.22 107.31,13.13 104.28,14.76 101.27,16.38 98.67,18.84 97.29,21.94 96.58,23.48 96.22,25.13 96.09,26.84 95.94,28.53 96.03,30.24 96.38,31.91 96.72,33.58 97.31,35.19 98,36.79 98.67,38.39 99.45,39.99 99.87,41.75 100.32,43.49 100.32,45.36 99.83,47.08 99.33,48.8 98.46,50.36 97.47,51.8 L 97.39,51.75 C 98.28,50.25 99.02,48.65 99.39,46.97 99.78,45.29 99.7,43.56 99.2,41.93 98.71,40.29 97.94,38.74 97.21,37.14 96.47,35.54 95.8,33.87 95.41,32.12 95.02,30.36 94.91,28.54 95.05,26.75 95.19,24.97 95.62,23.16 96.39,21.52 97.93,18.21 100.75,15.68 103.91,14.05 107.08,12.41 110.59,11.53 114.13,11.34 115.9,11.25 117.68,11.34 119.43,11.67 120.29,11.83 121.17,12.06 122,12.37 122.85,12.68 123.64,13.14 124.34,13.71 125.74,14.85 126.77,16.34 127.58,17.91 128.38,19.48 128.97,21.15 129.44,22.85 130.36,26.24 130.84,29.73 130.98,33.23 L 130.88,33.23 Z M 130.88,33.23" />
        </g>
        <g id="jonnieSide04-group40">
            <path id="jonnieSide04-bezier39" stroke="none" fill="rgb(0, 0, 0)" d="M 128.73,36.52 C 128.81,39.02 128.75,41.53 128.24,44.01 127.94,45.23 127.61,46.53 126.59,47.51 126.33,47.75 126.01,47.94 125.66,48.04 125.48,48.09 125.29,48.12 125.11,48.12 L 124.64,48.14 C 124.04,48.16 123.43,48.22 122.84,48.32 120.45,48.73 118.33,50.05 116.96,51.97 116.25,52.91 115.74,54.02 115.39,55.17 115.21,55.75 115.08,56.34 115,56.95 114.93,57.54 114.87,58.18 115.05,58.75 L 114.96,58.8 C 114.37,57.61 114.52,56.26 114.71,55.01 114.94,53.74 115.44,52.51 116.14,51.4 116.87,50.31 117.86,49.37 119.01,48.73 120.16,48.08 121.44,47.7 122.71,47.53 123.35,47.45 123.99,47.41 124.64,47.41 L 125.1,47.42 C 125.23,47.42 125.35,47.4 125.48,47.38 125.72,47.32 125.96,47.2 126.17,47.02 127.01,46.29 127.43,45.06 127.75,43.9 128.38,41.52 128.58,39.01 128.63,36.53 L 128.73,36.52 Z M 128.73,36.52" />
        </g>
        <g id="jonnieSide04-group53">
            <path id="jonnieSide04-bezier52" stroke="none" fill="rgb(0, 0, 0)" d="M 114.18,69.69 C 115.01,75.91 115.72,82.14 116.27,88.39 116.55,91.52 116.85,94.65 116.89,97.79 116.87,100.93 116.93,104.12 116.18,107.21 L 116.09,107.19 C 116.2,105.63 116.16,104.07 116.11,102.51 116.05,100.95 116,99.39 115.89,97.83 L 115.47,88.45 C 115.1,82.2 114.62,75.95 114.08,69.7 L 114.18,69.69 Z M 114.18,69.69" />
        </g>
        <g id="jonnieSide04-group54">
            <path id="jonnieSide04-bezier53" stroke="none" fill="rgb(0, 0, 0)" d="M 116.5,110.04 C 118.56,112.54 120.38,115.25 121.79,118.18 122.14,118.91 122.46,119.66 122.73,120.43 122.99,121.21 123.25,121.94 123.57,122.69 124.2,124.17 124.88,125.64 125.58,127.1 128.35,132.93 131.31,138.68 134.35,144.38 135.87,147.23 137.43,150.06 139.03,152.86 139.83,154.26 140.64,155.65 141.48,157.03 141.89,157.72 142.31,158.4 142.75,159.07 143.2,159.72 143.63,160.4 144.16,160.89 145.43,162.13 146.09,163.72 146.64,165.26 147.17,166.83 147.54,168.43 147.73,170.06 147.82,170.88 147.88,171.7 147.87,172.52 147.86,172.94 147.84,173.35 147.77,173.77 147.74,173.99 147.69,174.18 147.61,174.42 147.54,174.59 147.42,174.83 147.28,174.99 146.7,175.7 145.86,176 145.07,176.18 144.26,176.36 143.45,176.41 142.63,176.37 L 142.64,176.27 C 143.44,176.25 144.24,176.14 145,175.91 145.75,175.69 146.5,175.32 146.91,174.72 147.02,174.56 147.08,174.44 147.16,174.23 147.2,174.08 147.24,173.88 147.26,173.7 147.3,173.32 147.31,172.92 147.29,172.53 147.27,171.74 147.17,170.95 147.04,170.16 146.76,168.59 146.38,167.03 145.83,165.55 145.27,164.09 144.57,162.62 143.47,161.62 142.81,161 142.37,160.3 141.9,159.63 141.45,158.95 141.01,158.26 140.59,157.57 139.75,156.18 138.96,154.76 138.17,153.35 136.61,150.5 135.11,147.64 133.64,144.75 130.68,139 127.81,133.2 125.12,127.31 124.46,125.83 123.8,124.35 123.2,122.84 122.9,122.1 122.63,121.3 122.4,120.54 122.14,119.78 121.85,119.04 121.52,118.3 120.18,115.38 118.43,112.63 116.42,110.11 L 116.5,110.04 Z M 116.5,110.04" />
        </g>
        <g id="jonnieSide04-group55">
            <path id="jonnieSide04-bezier54" stroke="none" fill="rgb(0, 0, 0)" d="M 145.28,173.74 C 144.39,174.38 143.44,174.93 142.39,175.35 141.87,175.55 141.33,175.81 140.72,175.79 140.15,175.77 139.41,175.57 139.1,174.99 L 139.16,174.91 C 139.74,174.98 140.16,174.88 140.65,174.79 141.12,174.68 141.64,174.69 142.16,174.58 143.18,174.36 144.22,174.03 145.23,173.65 L 145.28,173.74 Z M 145.28,173.74" />
        </g>
        <g id="jonnieSide04-group56">
            <path id="jonnieSide04-bezier55" stroke="none" fill="rgb(0, 0, 0)" d="M 143.04,171.49 C 142.19,172.19 141.22,172.74 140.13,173.07 139.59,173.23 139.01,173.42 138.42,173.32 137.83,173.22 137.25,172.97 136.86,172.49 L 136.91,172.4 138.47,172.32 C 138.95,172.27 139.45,172.35 139.96,172.29 140.97,172.15 142,171.85 142.98,171.41 L 143.04,171.49 Z M 143.04,171.49" />
        </g>
        <g id="jonnieSide04-group57">
            <path id="jonnieSide04-bezier56" stroke="none" fill="rgb(0, 0, 0)" d="M 140.67,169.73 C 140.5,170.05 140.24,170.34 139.91,170.56 139.58,170.77 139.18,170.9 138.76,170.93 138.35,170.95 137.9,170.95 137.56,170.71 137.23,170.48 136.96,170.17 136.85,169.74 L 136.92,169.66 C 137.36,169.66 137.68,169.74 137.99,169.8 138.28,169.86 138.51,170.07 138.81,170.13 139.37,170.26 140.05,170.11 140.6,169.67 L 140.67,169.73 Z M 140.67,169.73" />
        </g>
        <g id="jonnieSide04-group58">
            <path id="jonnieSide04-bezier57" stroke="none" fill="rgb(0, 0, 0)" d="M 137.59,165.85 C 135.42,162.12 132.85,158.64 130.13,155.3 127.44,151.94 124.36,148.89 121.62,145.52 118.85,142.19 116.15,138.8 113.75,135.18 112.57,133.37 111.41,131.53 110.36,129.63 109.85,128.67 109.35,127.7 108.91,126.71 108.5,125.7 108.06,124.68 107.96,123.58 L 108.06,123.57 C 108.3,124.61 108.81,125.57 109.32,126.5 109.83,127.45 110.39,128.37 110.97,129.27 112.12,131.08 113.32,132.87 114.58,134.62 117.07,138.13 119.57,141.64 122.24,145.02 124.88,148.42 127.88,151.54 130.52,154.99 133.15,158.42 135.62,161.99 137.68,165.8 L 137.59,165.85 Z M 137.59,165.85" />
        </g>
        <g id="jonnieSide04-group59">
            <path id="jonnieSide04-bezier58" stroke="none" fill="rgb(0, 0, 0)" d="M 107.36,120.61 C 106.44,120.08 105.7,119.24 105.21,118.25 104.97,117.77 104.7,117.25 104.69,116.69 104.68,116.13 104.77,115.57 105.08,115.07 L 105.18,115.08 C 105.43,115.61 105.55,116.08 105.68,116.55 105.82,117 105.82,117.49 105.95,117.96 106.08,118.43 106.28,118.88 106.53,119.31 106.76,119.75 107.05,120.17 107.41,120.53 L 107.36,120.61 Z M 107.36,120.61" />
        </g>
        <g id="jonnieSide04-group60">
            <path id="jonnieSide04-bezier59" stroke="none" fill="rgb(0, 0, 0)" d="M 104.09,111.83 C 103.35,108.38 102.51,104.94 101.51,101.56 101.01,99.87 100.47,98.18 99.76,96.59 99.41,95.83 98.94,95.03 98.61,94.2 98.25,93.38 97.93,92.55 97.63,91.71 96.41,88.37 95.33,84.98 94.6,81.5 94.26,79.75 93.94,78 93.78,76.21 93.71,75.32 93.67,74.43 93.7,73.53 93.77,72.65 93.81,71.69 94.34,70.92 L 94.43,70.98 C 94.06,71.76 94.11,72.66 94.15,73.53 94.21,74.4 94.33,75.26 94.48,76.13 94.77,77.85 95.14,79.57 95.57,81.28 96.42,84.69 97.28,88.11 98.38,91.45 98.66,92.28 98.95,93.11 99.28,93.92 99.58,94.75 100,95.49 100.36,96.34 101.04,98 101.53,99.71 101.99,101.42 102.87,104.86 103.58,108.33 104.19,111.82 L 104.09,111.83 Z M 104.09,111.83" />
        </g>
        <g id="jonnieSide04-group61">
            <path id="jonnieSide04-bezier60" stroke="none" fill="rgb(0, 0, 0)" d="M 89.81,65.71 C 89.41,67.21 89.17,68.75 89.02,70.28 88.85,71.81 88.79,73.36 88.83,74.89 88.87,76.43 89.08,77.95 89.23,79.46 89.38,80.99 89.6,82.5 89.81,84.06 L 89.71,84.09 C 88.98,82.69 88.53,81.16 88.24,79.6 87.95,78.05 87.96,76.46 88.03,74.89 88.15,71.75 88.67,68.63 89.71,65.68 L 89.81,65.71 Z M 89.81,65.71" />
        </g>
        <g id="jonnieSide04-group62">
            <path id="jonnieSide04-bezier61" stroke="none" fill="rgb(0, 0, 0)" d="M 95.54,54.11 C 92.19,57.94 89.08,62.03 86.62,66.47 85.42,68.69 84.34,71.03 83.95,73.49 83.86,74.11 83.84,74.69 83.85,75.35 83.85,75.99 83.82,76.64 83.77,77.28 83.68,78.57 83.52,79.85 83.29,81.12 82.84,83.66 82.13,86.14 81.46,88.59 81.12,89.82 80.79,91.04 80.53,92.27 80.24,93.49 80.13,94.72 79.93,96.01 79.51,98.55 79,101.06 78.39,103.54 78.08,104.78 77.76,106.02 77.41,107.25 77.22,107.86 77.03,108.48 76.83,109.08 76.6,109.69 76.46,110.31 76.04,110.86 L 75.98,110.78 C 76.27,110.27 76.38,109.6 76.55,109 76.7,108.39 76.83,107.76 76.96,107.14 77.23,105.9 77.48,104.65 77.71,103.39 78.17,100.89 78.63,98.38 78.94,95.87 79.12,94.64 79.22,93.32 79.51,92.05 79.79,90.78 80.15,89.55 80.51,88.32 81.25,85.87 82,83.45 82.5,80.97 82.75,79.73 82.94,78.49 83.05,77.23 83.11,76.6 83.14,75.98 83.16,75.34 83.16,74.72 83.19,74.03 83.31,73.39 83.77,70.8 84.92,68.45 86.18,66.22 88.79,61.8 92.01,57.79 95.47,54.04 L 95.54,54.11 Z M 95.54,54.11" />
        </g>
        <g id="jonnieSide04-group63">
            <path id="jonnieSide04-bezier62" stroke="none" fill="rgb(0, 0, 0)" d="M 75.06,111.81 C 75.49,113.21 75.89,114.63 76.13,116.08 76.18,116.45 76.23,116.82 76.23,117.2 76.22,117.38 76.22,117.58 76.16,117.77 76.08,117.96 76.07,118.1 76.04,118.29 75.95,119.01 75.91,119.74 75.87,120.47 75.74,123.39 75.73,126.32 75.75,129.25 75.76,132.18 75.82,135.11 75.94,138.03 76.07,140.96 76.23,143.88 76.53,146.78 L 76.54,146.8 76.54,146.82 C 76.57,149.41 76.53,151.99 76.39,154.57 76.32,155.87 76.23,157.16 76.03,158.46 75.93,159.11 75.84,159.75 75.57,160.46 75.54,160.54 75.46,160.68 75.44,160.72 75.39,160.8 75.4,160.8 75.36,160.88 75.31,161.01 75.27,161.16 75.22,161.3 75.12,161.59 75.04,161.9 74.96,162.2 74.34,164.67 73.93,167.21 73.53,169.74 73.34,171.01 73.19,172.28 73.08,173.56 73.02,174.19 72.97,174.83 72.97,175.47 72.97,175.79 72.98,176.11 73.01,176.42 73.05,176.73 73.1,177.06 73.29,177.28 L 73.23,177.36 C 72.97,177.11 72.91,176.76 72.83,176.45 72.77,176.13 72.73,175.8 72.7,175.48 72.65,174.83 72.64,174.18 72.65,173.53 72.66,172.24 72.76,170.95 72.87,169.66 73.11,167.08 73.49,164.53 74.02,161.98 74.1,161.66 74.17,161.34 74.26,161.01 74.31,160.85 74.36,160.69 74.43,160.51 74.45,160.45 74.52,160.3 74.55,160.24 74.6,160.14 74.6,160.14 74.64,160.07 74.82,159.57 74.93,158.92 75.02,158.31 75.18,157.06 75.29,155.78 75.38,154.51 75.55,151.95 75.67,149.38 75.69,146.82 L 75.69,146.86 C 75.24,140.99 75.16,135.12 75.23,129.25 75.27,126.31 75.36,123.38 75.56,120.45 75.61,119.71 75.67,118.98 75.78,118.25 75.81,118.08 75.86,117.85 75.92,117.7 75.97,117.55 75.99,117.37 76,117.19 76,116.83 75.97,116.47 75.92,116.11 75.72,114.67 75.36,113.24 74.96,111.84 L 75.06,111.81 Z M 75.06,111.81" />
        </g>
        <g id="jonnieSide04-group64">
            <path id="jonnieSide04-bezier63" stroke="none" fill="rgb(0, 0, 0)" d="M 74.66,173.65 C 75.66,174 76.68,174.29 77.69,174.44 78.2,174.52 78.7,174.47 79.15,174.52 79.62,174.56 80.04,174.6 80.6,174.46 L 80.67,174.53 C 80.45,175.14 79.77,175.45 79.19,175.52 78.58,175.62 78.03,175.39 77.5,175.22 76.45,174.87 75.49,174.35 74.61,173.74 L 74.66,173.65 Z M 74.66,173.65" />
        </g>
        <g id="jonnieSide04-group65">
            <path id="jonnieSide04-bezier64" stroke="none" fill="rgb(0, 0, 0)" d="M 79.91,167.66 L 82.6,169.53 C 83.05,169.86 83.49,170.16 83.93,170.52 84.35,170.91 84.71,171.32 85.08,171.72 85.8,172.54 86.51,173.37 87.28,174.12 88.02,174.83 88.93,175.67 89.69,175.42 89.82,175.36 89.82,175.35 89.84,175.17 89.84,175 89.77,174.78 89.67,174.56 89.48,174.12 89.19,173.69 88.86,173.29 88.07,172.33 87.81,171.17 87.5,170.14 87.25,169.07 87,168.02 86.68,167.01 86.52,166.5 86.33,166 86.07,165.55 85.83,165.08 85.5,164.67 85.05,164.37 L 85.09,164.28 C 86.2,164.66 86.85,165.77 87.32,166.75 87.8,167.77 88.11,168.83 88.46,169.86 88.62,170.38 88.78,170.89 88.97,171.37 89.06,171.62 89.16,171.85 89.26,172.07 89.37,172.3 89.46,172.43 89.66,172.69 89.99,173.16 90.29,173.66 90.51,174.23 90.61,174.52 90.7,174.83 90.68,175.21 90.67,175.4 90.62,175.62 90.48,175.81 90.34,176.01 90.12,176.13 89.93,176.19 89.2,176.37 88.54,176.08 88.07,175.73 87.59,175.38 87.2,174.98 86.81,174.58 86.06,173.76 85.38,172.9 84.7,172.05 84.36,171.63 84.02,171.19 83.66,170.82 83.28,170.46 82.84,170.12 82.42,169.77 L 79.86,167.74 79.91,167.66 Z M 79.91,167.66" />
        </g>
        <g id="jonnieSide04-group66">
            <path id="jonnieSide04-bezier65" stroke="none" fill="rgb(0, 0, 0)" d="M 82.06,173.7 C 82.3,175.54 82.45,177.39 82.46,179.26 82.47,180.19 82.53,181.14 82.31,182.08 82.2,182.55 82.07,183.02 81.83,183.47 81.72,183.69 81.58,183.91 81.39,184.1 81.2,184.28 80.9,184.46 80.64,184.37 L 80.64,184.27 C 81.04,184.1 81.07,183.64 81.17,183.23 81.24,182.81 81.29,182.37 81.32,181.92 81.39,181.03 81.58,180.14 81.66,179.23 81.82,177.4 81.91,175.55 81.96,173.7 L 82.06,173.7 Z M 82.06,173.7" />
        </g>
        <g id="jonnieSide04-group67">
            <path id="jonnieSide04-bezier66" stroke="none" fill="rgb(0, 0, 0)" d="M 79.93,177.32 C 80.05,178.11 80.1,178.91 80.05,179.71 80.02,180.12 80.06,180.55 79.85,180.95 79.74,181.14 79.61,181.34 79.4,181.51 79.23,181.68 78.85,181.8 78.63,181.62 L 78.64,181.52 C 78.83,181.39 78.8,181.24 78.83,181.09 L 78.91,180.61 C 78.95,180.27 79.15,179.94 79.26,179.58 79.48,178.85 79.66,178.09 79.83,177.32 L 79.93,177.32 Z M 79.93,177.32" />
        </g>
        <g id="jonnieSide04-group68">
            <path id="jonnieSide04-bezier67" stroke="none" fill="rgb(0, 0, 0)" d="M 76.68,175.84 C 76.9,176.44 77.07,177.04 77.14,177.68 77.18,178 77.29,178.35 77.12,178.71 77.04,178.88 76.93,179.09 76.67,179.24 76.54,179.31 76.37,179.35 76.24,179.3 76.11,179.24 76.03,179.16 75.99,179.06 L 76.03,178.97 C 76.25,178.91 76.26,178.76 76.2,178.72 76.16,178.66 76.16,178.57 76.16,178.45 76.14,178.22 76.29,177.95 76.35,177.67 76.45,177.09 76.52,176.48 76.59,175.86 L 76.68,175.84 Z M 76.68,175.84" />
        </g>
        <g id="jonnieSide04-group69">
            <path id="jonnieSide04-bezier68" stroke="none" fill="rgb(0, 0, 0)" d="M 74.68,175.56 C 74.92,175.93 75.09,176.32 75.18,176.77 75.21,176.99 75.32,177.27 75.14,177.53 75,177.78 74.57,178.03 74.27,177.79 L 74.25,177.69 C 74.36,177.36 74.22,177.28 74.21,177.16 74.18,177.05 74.33,176.93 74.38,176.75 74.47,176.41 74.54,176 74.59,175.59 L 74.68,175.56 Z M 74.68,175.56" />
        </g>
        <g id="jonnieSide04-group70">
            <path id="jonnieSide04-bezier69" stroke="none" fill="rgb(0, 0, 0)" d="M 84.87,141.84 C 84.7,143.35 84.64,144.86 84.59,146.38 84.54,147.9 84.53,149.4 84.8,150.88 85.31,153.85 86.39,156.69 87.53,159.49 88.68,162.29 89.97,165.04 91.08,167.89 91.63,169.31 92.15,170.77 92.43,172.3 92.71,173.81 92.92,175.31 93.13,176.82 L 94.35,185.84 C 94.82,188.81 95.24,191.84 96.14,194.65 96.67,196.1 97,197.63 97.25,199.14 97.5,200.65 97.66,202.17 97.73,203.7 97.81,205.23 97.84,206.75 97.76,208.28 97.71,209.04 97.64,209.8 97.53,210.56 97.4,211.31 97.27,212.08 96.89,212.77 L 96.8,212.72 C 97.12,212.04 97.19,211.27 97.27,210.53 97.33,209.78 97.34,209.02 97.33,208.27 97.32,206.76 97.23,205.25 97.08,203.75 96.73,200.76 96.31,197.75 95.24,194.97 94.7,193.5 94.38,191.99 94.08,190.49 93.78,188.99 93.55,187.49 93.35,185.98 92.93,182.96 92.64,179.93 92.28,176.92 92.1,175.42 91.92,173.91 91.67,172.43 91.43,170.97 90.94,169.55 90.42,168.13 89.36,165.31 88.12,162.53 87.01,159.7 85.9,156.87 84.86,153.98 84.4,150.94 84.15,149.42 84.23,147.87 84.33,146.36 84.43,144.85 84.55,143.33 84.77,141.82 L 84.87,141.84 Z M 84.87,141.84" />
        </g>
        <g id="jonnieSide04-group71">
            <path id="jonnieSide04-bezier70" stroke="none" fill="rgb(0, 0, 0)" d="M 85.14,86.47 C 86.88,90.76 88.46,95.12 89.73,99.58 90.35,101.81 90.9,104.08 91.17,106.4 91.42,108.73 91.32,111.07 91.03,113.38 90.45,118.01 89.23,122.49 88.55,127.04 L 88.31,128.75 C 88.27,129.04 88.26,129.31 88.17,129.65 L 87.95,130.51 87.01,133.85 C 86.39,136.07 85.75,138.31 85.32,140.53 L 84.78,139.93 C 89.94,139.42 95.11,139.07 100.3,138.91 102.88,138.81 105.51,138.84 108.09,139.04 110.67,139.18 113.26,139.36 115.85,139.44 L 115.84,139.54 C 113.25,139.61 110.66,139.65 108.07,139.6 105.47,139.51 102.92,139.61 100.34,139.75 95.18,140.05 90.02,140.52 84.87,140.94 L 84.2,140.99 84.33,140.35 C 84.8,138.02 85.5,135.83 86.16,133.6 L 87.16,130.28 87.39,129.46 C 87.45,129.24 87.48,128.93 87.52,128.65 L 87.79,126.92 C 88.54,122.33 89.82,117.86 90.46,113.31 90.77,111.04 90.89,108.73 90.69,106.45 90.47,104.17 89.96,101.91 89.39,99.68 88.2,95.21 86.71,90.83 85.05,86.51 L 85.14,86.47 Z M 85.14,86.47" />
        </g>
        <g id="jonnieSide04-group72">
            <path id="jonnieSide04-bezier71" stroke="none" fill="rgb(0, 0, 0)" d="M 94.71,212.78 C 92.9,214.14 90.95,215.34 88.8,216.09 88.26,216.27 87.7,216.42 87.15,216.51 86.61,216.63 86.08,216.83 85.56,217.04 84.51,217.45 83.49,217.93 82.48,218.43 78.44,220.45 74.54,222.75 70.75,225.19 66.96,227.64 63.27,230.25 59.85,233.2 58.15,234.67 56.57,236.29 54.87,237.78 53.18,239.29 51.44,240.75 49.6,242.09 47.77,243.41 45.84,244.66 43.69,245.5 42.63,245.92 41.48,246.22 40.33,246.29 39.24,246.39 38.15,246.67 37.12,247.06 36.09,247.46 35.1,247.98 34.24,248.65 33.39,249.32 32.67,250.18 32.38,251.19 32.23,251.69 32.21,252.22 32.29,252.74 32.37,253.26 32.5,253.84 32.61,254.39 32.82,255.5 33.02,256.61 33.2,257.74 33.54,259.98 33.78,262.25 33.78,264.54 33.78,265.67 33.69,266.83 33.57,267.95 33.47,269.04 33.49,270.16 33.6,271.26 34.07,275.68 35.83,279.97 38.76,283.33 39.48,284.16 40.26,285.01 41.13,285.51 41.35,285.63 41.57,285.71 41.73,285.71 41.88,285.7 41.94,285.66 42.05,285.49 42.24,285.13 42.25,284.59 42.27,284.02 42.35,281.76 42.44,279.5 42.6,277.23 42.95,272.72 43.44,268.17 44.8,263.77 45.16,262.68 45.58,261.59 46.16,260.57 46.75,259.52 47.45,258.64 48.16,257.73 49.6,255.95 51.17,254.29 52.83,252.73 56.14,249.61 59.79,246.83 63.79,244.61 65.79,243.52 67.92,242.59 70.08,241.89 72.17,241.13 74.23,240.22 76.26,239.24 80.31,237.28 84.24,235.05 88.21,232.89 90.2,231.81 92.19,230.73 94.29,229.83 96.43,229.03 98.49,228.19 100.57,227.28 102.64,226.39 104.71,225.48 106.81,224.62 107.85,224.2 108.9,223.78 109.97,223.4 111.04,223.03 112.12,222.66 113.25,222.52 L 113.27,222.62 C 112.16,222.79 111.09,223.18 110.04,223.58 108.98,223.98 107.95,224.43 106.91,224.88 104.85,225.79 102.81,226.75 100.75,227.69 98.7,228.63 96.59,229.52 94.51,230.34 92.46,231.24 90.49,232.35 88.52,233.45 84.59,235.66 80.68,237.95 76.62,239.98 74.59,240.99 72.52,241.94 70.38,242.74 68.25,243.47 66.23,244.39 64.28,245.48 60.37,247.65 56.77,250.39 53.51,253.45 51.88,254.99 50.33,256.62 48.94,258.35 48.25,259.22 47.55,260.12 47.02,261.05 46.5,261.99 46.09,263.03 45.75,264.08 44.4,268.31 43.87,272.82 43.5,277.3 43.32,279.54 43.21,281.79 43.12,284.05 43.09,284.6 43.12,285.24 42.78,285.89 42.63,286.23 42.16,286.56 41.74,286.54 41.33,286.53 41.01,286.38 40.74,286.23 39.65,285.59 38.9,284.71 38.15,283.84 35.14,280.36 33.33,275.89 32.88,271.33 32.77,270.18 32.76,269.03 32.87,267.87 32.99,266.75 33.08,265.65 33.09,264.53 33.11,262.29 32.88,260.05 32.56,257.83 32.39,256.72 32.2,255.61 31.99,254.5 31.89,253.94 31.77,253.41 31.67,252.82 31.58,252.23 31.62,251.6 31.79,251.02 32.15,249.84 32.96,248.89 33.88,248.18 34.8,247.46 35.84,246.93 36.92,246.52 38,246.12 39.13,245.83 40.28,245.73 41.4,245.67 42.46,245.4 43.5,245 45.58,244.2 47.49,242.98 49.31,241.68 51.14,240.37 52.88,238.93 54.57,237.45 56.28,235.97 57.87,234.37 59.59,232.89 63.05,229.96 66.78,227.37 70.59,224.93 74.41,222.52 78.33,220.25 82.39,218.25 83.41,217.76 84.44,217.28 85.5,216.87 86.02,216.67 86.56,216.47 87.12,216.35 87.68,216.26 88.22,216.12 88.76,215.95 90.88,215.22 92.84,214.04 94.65,212.7 L 94.71,212.78 Z M 94.71,212.78" />
        </g>
        <g id="jonnieSide04-group73">
            <path id="jonnieSide04-bezier72" stroke="none" fill="rgb(0, 0, 0)" d="M 116.46,222.15 C 117.64,221.84 118.79,221.38 119.8,220.74 120.82,220.11 121.66,219.25 121.74,218.1 121.91,216.94 121.79,215.72 121.82,214.52 121.85,213.3 121.85,212.08 121.96,210.83 L 122.06,210.81 C 122.5,212 122.71,213.23 122.82,214.48 122.94,215.73 122.8,216.99 122.53,218.25 122.41,218.86 122.09,219.58 121.62,220.04 121.16,220.53 120.61,220.88 120.05,221.18 118.91,221.73 117.7,222.06 116.47,222.25 L 116.46,222.15 Z M 116.46,222.15" />
        </g>
        <g id="jonnieSide04-group74">
            <path id="jonnieSide04-bezier73" stroke="none" fill="rgb(0, 0, 0)" d="M 120.46,157 C 120.28,155.12 120.14,153.24 120.05,151.35 120,150.41 119.87,149.46 119.96,148.52 120.04,147.57 120.16,146.62 120.49,145.7 L 120.59,145.7 C 120.81,146.66 120.9,147.59 120.96,148.53 121.02,149.47 120.89,150.41 120.85,151.35 120.76,153.23 120.67,155.12 120.56,157 L 120.46,157 Z M 120.46,157" />
        </g>
        <g id="jonnieSide04-group75">
            <path id="jonnieSide04-bezier74" stroke="none" fill="rgb(0, 0, 0)" d="M 121.47,207.07 C 121.4,200 121.31,192.93 121.16,185.86 121.07,182.32 120.91,178.79 120.89,175.26 120.89,171.72 120.84,168.19 120.93,164.65 L 121.03,164.64 C 121.51,168.16 121.71,171.7 121.89,175.23 122.04,178.77 121.98,182.31 121.96,185.85 121.93,192.93 121.79,200 121.57,207.07 L 121.47,207.07 Z M 121.47,207.07" />
        </g>
        <g id="jonnieSide04-group76">
            <path id="jonnieSide04-bezier75" stroke="none" fill="rgb(0, 0, 0)" d="M 121.81,116.15 C 122.96,111.52 123.92,106.84 124.58,102.12 125.24,97.41 125.66,92.63 125.27,87.92 125.08,85.57 124.54,83.28 123.85,81.01 123.16,78.74 122.36,76.51 121.47,74.32 119.72,69.91 117.59,65.64 115.26,61.48 L 115.34,61.42 C 118.16,65.3 120.45,69.54 122.4,73.93 123.34,76.14 124.16,78.41 124.8,80.73 125.44,83.05 125.94,85.44 126.06,87.86 126.36,92.68 125.84,97.48 125.08,102.2 124.28,106.92 123.19,111.58 121.91,116.18 L 121.81,116.15 Z M 121.81,116.15" />
        </g>
        <g id="jonnieSide04-group77">
            <path id="jonnieSide04-bezier76" stroke="none" fill="rgb(0, 0, 0)" d="M 121.31,148.1 C 123.42,152.34 125.4,156.66 127.15,161.07 128.02,163.28 128.83,165.51 129.52,167.79 130.21,170.07 130.8,172.39 131.07,174.78 131.62,179.5 132.05,184.23 132.25,188.97 132.32,191.34 132.4,193.71 132.4,196.09 132.38,198.46 132.44,200.84 132.07,203.21 L 131.98,203.19 C 132.05,202.02 131.96,200.83 131.91,199.65 L 131.71,196.11 131.25,189.03 C 130.93,184.31 130.71,179.58 130.27,174.87 130.07,172.54 129.53,170.25 128.89,167.98 128.25,165.71 127.5,163.47 126.68,161.25 125.06,156.8 123.21,152.44 121.22,148.14 L 121.31,148.1 Z M 121.31,148.1" />
        </g>
        <g id="jonnieSide04-group78">
            <path id="jonnieSide04-bezier77" stroke="none" fill="rgb(0, 0, 0)" d="M 132.19,205.19 C 132.41,206.26 132.52,207.35 132.51,208.44 132.5,209.53 132.37,210.63 131.96,211.66 131.49,212.66 130.86,213.54 130.35,214.5 129.82,215.45 129.33,216.42 128.9,217.41 128.02,219.39 127.36,221.46 126.88,223.57 126.37,225.67 126.21,227.85 125.75,229.98 123.91,238.51 120.8,246.69 117.62,254.75 116.2,258.83 115.09,263.05 114.6,267.34 114.39,269.47 114.29,271.67 114.87,273.69 115.18,274.7 115.7,275.56 116.6,276.13 117.47,276.77 118.38,277.35 119.3,277.9 123.02,280.09 126.94,282.02 130.99,283.46 132,283.8 133.05,284.13 134.05,284.2 135.13,284.27 136.23,284.27 137.36,284.54 137.92,284.68 138.55,284.93 138.95,285.5 139.15,285.77 139.26,286.09 139.33,286.39 139.36,286.55 139.38,286.7 139.39,286.85 139.39,287 139.43,287.12 139.37,287.39 139.14,287.92 138.77,288 138.5,288.13 138.21,288.23 137.92,288.29 137.64,288.34 137.08,288.44 136.53,288.48 135.97,288.51 133.77,288.62 131.57,288.46 129.42,288.32 127.25,288.2 125.08,288.1 122.92,288.01 120.75,287.93 118.58,287.88 116.42,287.87 114.25,287.87 112.08,287.88 109.96,288.11 107.82,288.34 105.68,288.72 103.5,288.97 102.41,289.09 101.31,289.19 100.18,289.15 99.61,289.13 99.04,289.08 98.46,288.93 97.89,288.78 97.28,288.52 96.8,288.02 96.33,287.53 96.12,286.83 96.1,286.22 96.08,285.64 96.16,285.02 96.28,284.47 96.53,283.36 96.93,282.32 97.33,281.3 98.15,279.27 99.04,277.3 99.81,275.28 101.4,271.27 102.56,267.1 103.12,262.82 103.68,258.54 103.81,254.19 104.03,249.85 104.25,245.51 104.48,241.16 105.18,236.85 105.56,234.7 106.06,232.56 106.86,230.52 107.66,228.5 108.8,226.53 110.56,225.2 L 110.63,225.28 C 108.92,226.64 107.85,228.6 107.12,230.62 106.38,232.65 105.95,234.78 105.64,236.92 105,241.2 104.83,245.54 104.67,249.88 104.51,254.22 104.44,258.58 103.93,262.92 103.42,267.28 102.3,271.55 100.74,275.64 99.96,277.69 99.06,279.68 98.26,281.68 97.86,282.67 97.48,283.68 97.26,284.69 97.05,285.68 96.95,286.78 97.53,287.34 98.11,287.95 99.2,288.12 100.21,288.16 101.26,288.19 102.33,288.1 103.39,287.98 105.53,287.74 107.67,287.36 109.86,287.13 112.06,286.9 114.24,286.91 116.42,286.92 118.61,286.95 120.78,287.02 122.95,287.12 125.13,287.22 127.3,287.34 129.47,287.48 131.65,287.63 133.79,287.8 135.94,287.71 136.47,287.68 137,287.64 137.51,287.56 137.76,287.52 138.01,287.46 138.23,287.39 138.45,287.32 138.65,287.16 138.62,287.16 138.63,287.18 138.62,287.02 138.61,286.9 138.61,286.78 138.59,286.66 138.57,286.55 138.52,286.32 138.45,286.11 138.33,285.94 138.09,285.6 137.66,285.4 137.18,285.27 136.19,285.04 135.09,285.01 134.02,284.94 132.84,284.85 131.8,284.49 130.76,284.14 126.63,282.64 122.73,280.69 118.97,278.46 118.04,277.89 117.12,277.29 116.23,276.63 115.8,276.33 115.31,275.91 115.01,275.42 114.68,274.94 114.46,274.4 114.29,273.86 113.68,271.68 113.81,269.44 114.03,267.27 114.55,262.92 115.7,258.69 117.16,254.58 120.4,246.51 123.56,238.4 125.46,229.92 125.93,227.81 126.11,225.63 126.64,223.51 127.14,221.39 127.82,219.31 128.72,217.32 129.17,216.33 129.67,215.36 130.2,214.41 130.72,213.46 131.37,212.56 131.82,211.6 132.23,210.6 132.37,209.51 132.39,208.43 132.4,207.35 132.3,206.27 132.09,205.21 L 132.19,205.19 Z M 132.19,205.19" />
        </g>
        <g id="jonnieSide04-group79">
            <path id="jonnieSide04-bezier78" stroke="none" fill="rgb(0, 0, 0)" d="M 90.3,105.69 C 89.32,107.41 88.32,109.11 87.3,110.81 86.79,111.66 86.36,112.55 85.76,113.34 85.17,114.13 84.53,114.89 83.81,115.6 L 83.72,115.55 C 83.98,114.55 84.44,113.66 84.92,112.79 85.4,111.92 86.05,111.17 86.64,110.37 87.8,108.77 89,107.19 90.22,105.63 L 90.3,105.69 Z M 90.3,105.69" />
        </g>
        <g id="jonnieSide04-group80">
            <path id="jonnieSide04-bezier79" stroke="none" fill="rgb(0, 0, 0)" d="M 85.81,116.16 C 85.93,120.1 85.96,124.04 85.77,127.99 85.67,129.95 85.48,131.95 85.07,133.88 84.69,135.82 84.24,137.74 83.83,139.66 83.04,143.5 82.34,147.39 82.54,151.22 82.86,155.09 83.59,158.97 84.43,162.81 L 84.33,162.84 C 82.94,159.13 82.06,155.27 81.54,151.3 81.2,147.24 82.16,143.32 83.05,139.49 83.97,135.64 85.08,131.88 85.28,127.95 85.59,124.04 85.69,120.1 85.71,116.16 L 85.81,116.16 Z M 85.81,116.16" />
        </g>
        <g id="jonnieSide04-group165">
            <path id="jonnieSide04-bezier164" stroke="none" fill="rgb(0, 0, 0)" d="M 114.14,83.13 C 111.29,83.42 108.45,83.78 105.66,84.27 104.26,84.54 102.89,84.89 101.52,85.18 100.16,85.5 98.75,85.73 97.59,86.52 L 97.52,86.46 C 97.9,85.8 98.58,85.38 99.22,85.03 99.87,84.68 100.57,84.43 101.26,84.21 102.66,83.78 104.11,83.64 105.54,83.48 108.4,83.16 111.27,83.03 114.13,83.04 L 114.14,83.13 Z M 114.14,83.13" />
        </g>
        <g id="jonnieSide04-group166">
            <path id="jonnieSide04-bezier165" stroke="none" fill="rgb(0, 0, 0)" d="M 81.99,90.45 C 82.88,90.51 83.77,90.62 84.65,90.78 85.09,90.85 85.56,90.86 85.97,91.07 86.36,91.29 86.8,91.54 87.04,92.05 L 86.98,92.12 C 86.5,92.12 86.08,92.11 85.65,92.02 85.22,91.95 84.84,91.71 84.43,91.54 83.62,91.22 82.79,90.89 81.97,90.55 L 81.99,90.45 Z M 81.99,90.45" />
        </g>
        <g id="jonnieSide04-group167">
            <path id="jonnieSide04-bezier166" stroke="none" fill="rgb(0, 0, 0)" d="M 47.23,244.49 C 47.74,245.97 48.41,247.39 49.18,248.72 49.57,249.39 50.07,249.98 50.44,250.64 50.81,251.31 51.2,251.96 51.55,252.71 L 51.47,252.78 C 50.73,252.41 50.12,251.84 49.61,251.21 49.09,250.58 48.79,249.81 48.47,249.08 47.83,247.61 47.37,246.08 47.13,244.51 L 47.23,244.49 Z M 47.23,244.49" />
        </g>
        <g id="jonnieSide04-group168">
            <path id="jonnieSide04-bezier167" stroke="none" fill="rgb(0, 0, 0)" d="M 103.25,270.03 C 104.82,269.72 106.41,269.51 108.01,269.39 108.8,269.34 109.61,269.21 110.42,269.33 111.22,269.44 112.03,269.62 112.77,270.03 L 112.75,270.13 C 111.93,270.26 111.15,270.3 110.37,270.33 109.59,270.36 108.81,270.22 108.02,270.19 106.44,270.13 104.86,270.11 103.26,270.13 L 103.25,270.03 Z M 103.25,270.03" />
        </g>
        <g id="jonnieSide04-group169">
            <path id="jonnieSide04-bezier168" stroke="none" fill="rgb(0, 0, 0)" d="M 96.45,53.63 C 97.95,54.48 99.48,55.28 101.02,56.05 102.55,56.83 104.1,57.57 105.68,58.23 107.26,58.89 108.88,59.43 110.48,59.95 111.28,60.2 112.09,60.41 112.91,60.53 113.31,60.59 113.73,60.61 114.12,60.55 114.53,60.52 114.92,60.38 115.26,60.13 L 115.34,60.2 C 114.8,60.98 113.76,61.19 112.88,61.22 111.97,61.26 111.08,61.11 110.22,60.91 108.49,60.5 106.91,59.73 105.35,58.96 102.23,57.43 99.26,55.65 96.4,53.71 L 96.45,53.63 Z M 96.45,53.63" />
        </g>
    </g>
</svg>
