<?xml version="1.0" encoding="UTF-8"?>
<!DOCTYPE svg PUBLIC "-//W3C//DTD SVG 1.1//EN" "http://www.w3.org/Graphics/SVG/1.1/DTD/svg11.dtd">
<svg version="1.1" xmlns="http://www.w3.org/2000/svg" xmlns:xlink="http://www.w3.org/1999/xlink" width="180" height="100"  xml:space="preserve" id="jonnieTop01">
    <!-- Generated by PaintCode - http://www.paintcodeapp.com -->
    <g id="jonnieTop01-group">
        <g id="jonnieTop01-group332">
            <path id="jonnieTop01-bezier328" stroke="none" fill="rgb(0, 0, 0)" d="M 74.03,48.87 C 73.76,44.46 75.36,39.98 78.33,36.69 81.27,33.37 85.57,31.28 90.03,31 94.49,30.69 99.06,32.19 102.46,35.13 105.89,38.04 108.08,42.36 108.34,46.88 108.66,51.38 107.04,55.99 103.98,59.34 100.94,62.71 96.53,64.78 92.01,65.02 89.74,65.13 87.47,64.8 85.34,64.04 83.22,63.28 81.26,62.1 79.6,60.59 76.28,57.59 74.22,53.29 74.03,48.87 Z M 74.13,48.86 C 74.28,51.05 74.88,53.21 75.87,55.15 76.87,57.09 78.28,58.81 79.95,60.19 83.3,62.96 87.68,64.34 91.95,64.02 96.22,63.8 100.37,61.85 103.25,58.67 106.18,55.55 107.79,51.23 107.54,46.92 107.35,42.63 105.3,38.45 102.03,35.62 98.79,32.76 94.4,31.25 90.06,31.49 85.72,31.68 81.46,33.61 78.48,36.83 76.99,38.43 75.81,40.33 75.06,42.39 74.32,44.46 74,46.67 74.13,48.86 Z M 74.13,48.86" />
        </g>
        <g id="jonnieTop01-group333">
            <path id="jonnieTop01-bezier329" stroke="none" fill="rgb(0, 0, 0)" d="M 108.29,44.79 C 108.86,44.88 109.43,45.03 109.98,45.28 110.5,45.55 111.1,45.92 111.32,46.69 111.42,47.05 111.37,47.5 111.17,47.85 110.96,48.19 110.67,48.43 110.36,48.57 109.75,48.83 109.12,48.88 108.5,48.71 L 108.49,48.61 C 109,48.25 109.48,47.99 109.87,47.7 110.24,47.39 110.55,47.24 110.53,46.83 110.52,46.45 110.15,46.02 109.72,45.71 109.29,45.38 108.79,45.1 108.26,44.89 L 108.29,44.79 Z M 108.29,44.79" />
        </g>
        <g id="jonnieTop01-group334">
            <path id="jonnieTop01-bezier330" stroke="none" fill="rgb(0, 0, 0)" d="M 72.25,63.29 L 74.73,71.72 C 75.14,73.12 75.5,74.55 75.93,75.93 76.16,76.59 76.6,77.11 76.95,77.73 77.31,78.37 77.59,79.12 77.61,79.91 L 77.52,79.95 C 76.95,79.4 76.52,78.87 76.09,78.27 75.66,77.67 75.4,76.89 75.22,76.13 74.91,74.68 74.56,73.28 74.22,71.85 L 72.16,63.32 72.25,63.29 Z M 72.25,63.29" />
        </g>
        <g id="jonnieTop01-group335">
            <path id="jonnieTop01-bezier331" stroke="none" fill="rgb(0, 0, 0)" d="M 94.65,78.96 C 95.38,79.44 96.33,79.21 96.97,78.69 97.63,78.18 98.12,77.47 98.55,76.74 99.4,75.26 99.99,73.63 100.49,71.99 100.99,70.35 101.32,68.65 101.78,66.99 102.24,65.32 102.69,63.65 103.26,61.99 L 103.36,62.01 C 103.32,63.77 103.09,65.5 102.76,67.22 102.42,68.94 101.86,70.6 101.25,72.25 100.64,73.89 99.95,75.52 98.97,77 98.47,77.73 97.9,78.44 97.14,78.94 96.41,79.45 95.33,79.63 94.59,79.04 L 94.65,78.96 Z M 94.65,78.96" />
        </g>
        <g id="jonnieTop01-group336">
            <path id="jonnieTop01-bezier332" stroke="none" fill="rgb(0, 0, 0)" d="M 103.27,31.34 L 99.89,26.26 C 98.78,24.56 97.67,22.85 96.4,21.31 95.12,19.76 93.58,18.54 91.78,17.85 89.98,17.13 87.96,16.91 85.93,16.63 L 85.93,16.53 C 87.96,16.27 90.07,16.26 92.12,16.91 93.14,17.25 94.1,17.79 94.91,18.48 95.72,19.18 96.41,19.98 97.02,20.81 98.26,22.47 99.29,24.24 100.32,25.99 L 103.36,31.29 103.27,31.34 Z M 103.27,31.34" />
        </g>
        <g id="jonnieTop01-group337">
            <path id="jonnieTop01-bezier333" stroke="none" fill="rgb(0, 0, 0)" d="M 106.34,38.96 C 106.98,38.74 107.61,38.56 108.18,38.32 108.45,38.19 108.71,37.98 108.84,38 108.86,37.99 108.89,38.03 108.91,38.05 108.91,38.06 108.93,38.07 108.93,38.07 L 108.93,38.01 108.94,37.89 C 108.94,37.74 108.93,37.59 108.92,37.44 108.87,36.85 108.6,36.4 108,36.19 107.44,35.97 106.77,35.91 106.13,35.82 L 106.13,35.72 C 106.78,35.68 107.44,35.64 108.13,35.78 108.47,35.86 108.83,36.02 109.1,36.32 109.37,36.62 109.5,36.99 109.58,37.34 109.61,37.52 109.63,37.69 109.65,37.87 L 109.67,38.19 C 109.67,38.38 109.59,38.55 109.5,38.67 109.14,39.12 108.73,39.08 108.38,39.13 107.68,39.19 107.02,39.15 106.35,39.06 L 106.34,38.96 Z M 106.34,38.96" />
        </g>
        <g id="jonnieTop01-group338">
            <path id="jonnieTop01-bezier334" stroke="none" fill="rgb(0, 0, 0)" d="M 108.25,33.73 C 108.03,32.94 107.7,32.18 107.31,31.48 106.94,30.77 106.47,30.11 105.92,29.56 105.37,29.01 104.7,28.66 104.05,28.31 103.4,27.94 102.67,27.72 101.85,27.46 L 101.84,27.36 C 102.66,27.07 103.6,27.08 104.45,27.39 105.32,27.67 105.98,28.36 106.52,29.03 107.6,30.41 108.15,32.06 108.34,33.71 L 108.25,33.73 Z M 108.25,33.73" />
        </g>
        <g id="jonnieTop01-group339">
            <path id="jonnieTop01-bezier335" stroke="none" fill="rgb(0, 0, 0)" d="M 105.51,59.58 C 106.23,59.5 106.97,59.44 107.72,59.48 108.09,59.51 108.49,59.48 108.89,59.62 109.1,59.7 109.3,59.82 109.5,60.06 109.59,60.18 109.69,60.39 109.66,60.59 L 109.64,60.9 C 109.6,61.29 109.53,61.69 109.32,62.07 109.12,62.45 108.73,62.73 108.35,62.85 107.58,63.07 106.85,63.02 106.13,62.97 L 106.13,62.87 C 106.84,62.77 107.59,62.72 108.18,62.43 108.79,62.16 108.95,61.54 108.94,60.87 108.93,60.8 108.94,60.67 108.92,60.63 108.88,60.65 108.9,60.69 108.85,60.69 108.79,60.68 108.66,60.65 108.53,60.59 108.26,60.48 107.93,60.31 107.6,60.22 106.92,60.03 106.21,59.85 105.5,59.68 L 105.51,59.58 Z M 105.51,59.58" />
        </g>
        <g id="jonnieTop01-group340">
            <path id="jonnieTop01-bezier336" stroke="none" fill="rgb(0, 0, 0)" d="M 108.34,64.99 C 108.15,66.63 107.6,68.28 106.52,69.66 105.98,70.33 105.33,71.02 104.45,71.31 103.6,71.62 102.66,71.63 101.85,71.33 L 101.85,71.23 C 102.67,70.97 103.4,70.75 104.06,70.39 104.7,70.04 105.37,69.68 105.92,69.13 106.47,68.58 106.94,67.93 107.31,67.22 107.7,66.51 108.03,65.76 108.25,64.97 L 108.34,64.99 Z M 108.34,64.99" />
        </g>
        <g id="jonnieTop01-group341">
            <path id="jonnieTop01-bezier337" stroke="none" fill="rgb(0, 0, 0)" d="M 84.52,16.63 C 83.1,16.78 81.76,17.36 80.57,18.09 79.37,18.82 78.3,19.75 77.38,20.81 76.46,21.87 75.73,23.06 74.97,24.24 74.2,25.42 73.5,26.65 72.73,27.88 L 72.64,27.85 C 72.9,26.41 73.42,25.03 74.11,23.73 74.79,22.43 75.75,21.29 76.8,20.26 77.84,19.22 79.03,18.32 80.33,17.66 81.64,17.01 83.06,16.55 84.52,16.54 L 84.52,16.63 Z M 84.52,16.63" />
        </g>
        <g id="jonnieTop01-group342">
            <path id="jonnieTop01-bezier338" stroke="none" fill="rgb(0, 0, 0)" d="M 72.05,29.86 C 71.34,33.11 70.87,36.42 70.56,39.74 70.25,43.05 70.11,46.38 70.21,49.7 70.32,53.02 70.71,56.32 71.27,59.57 71.81,62.84 72.71,66.03 73.93,69.14 L 73.84,69.18 C 72.09,66.31 71.02,63.05 70.29,59.76 69.59,56.46 69.41,53.07 69.41,49.72 69.41,46.36 69.65,43 70.07,39.68 70.51,36.37 71.11,33.07 71.95,29.83 L 72.05,29.86 Z M 72.05,29.86" />
        </g>
        <g id="jonnieTop01-group343">
            <path id="jonnieTop01-bezier339" stroke="none" fill="rgb(0, 0, 0)" d="M 94.83,81.12 C 93.64,82.03 92.21,82.55 90.77,82.9 89.31,83.23 87.8,83.34 86.31,83.32 84.81,83.29 83.31,83.18 81.86,82.79 80.42,82.4 79.02,81.87 77.72,81.12 L 77.75,81.03 C 79.23,81.26 80.65,81.57 82.08,81.81 83.5,82.06 84.91,82.39 86.35,82.52 87.79,82.64 89.24,82.63 90.67,82.41 92.09,82.2 93.54,81.82 94.76,81.04 L 94.83,81.12 Z M 94.83,81.12" />
        </g>
    </g>
</svg>
