<?xml version="1.0" encoding="UTF-8"?>
<!DOCTYPE svg PUBLIC "-//W3C//DTD SVG 1.1//EN" "http://www.w3.org/Graphics/SVG/1.1/DTD/svg11.dtd">
<svg version="1.1" xmlns="http://www.w3.org/2000/svg" xmlns:xlink="http://www.w3.org/1999/xlink" width="180" height="100"  xml:space="preserve" id="jonnieTop05">
    <!-- Generated by PaintCode - http://www.paintcodeapp.com -->
    <g id="jonnieTop05-group">
        <g id="jonnieTop05-group239">
            <g id="jonnieTop05-group240">
                <path id="jonnieTop05-bezier238" stroke="none" fill="rgb(0, 0, 0)" d="M 44.89,47.57 C 45.55,47.22 46.31,47.19 47.03,47.18 47.75,47.17 48.47,47.23 49.19,47.29 L 53.46,47.78 C 54.88,47.94 56.3,48 57.71,48.17 59.11,48.34 60.52,48.48 61.96,48.67 L 61.96,48.77 C 60.55,49.12 59.08,49.2 57.63,49.16 56.18,49.13 54.76,48.84 53.35,48.57 L 49.12,47.78 C 48.42,47.66 47.72,47.54 47.02,47.48 46.32,47.43 45.59,47.38 44.93,47.66 L 44.89,47.57 Z M 44.89,47.57" />
            </g>
            <g id="jonnieTop05-group241">
                <path id="jonnieTop05-bezier239" stroke="none" fill="rgb(0, 0, 0)" d="M 45.26,37.79 C 45.09,39.15 45.08,40.52 45.14,41.87 45.17,42.54 45.32,43.21 45.29,43.88 45.28,44.55 45.25,45.22 45.11,45.94 L 45.01,45.96 C 44.61,45.34 44.41,44.64 44.3,43.95 44.17,43.25 44.29,42.55 44.34,41.85 44.46,40.46 44.71,39.08 45.16,37.77 L 45.26,37.79 Z M 45.26,37.79" />
            </g>
            <g id="jonnieTop05-group242">
                <path id="jonnieTop05-bezier240" stroke="none" fill="rgb(0, 0, 0)" d="M 61.28,32.32 C 58.68,33.47 56.04,34.53 53.36,35.48 52.02,35.96 50.68,36.48 49.27,36.76 48.56,36.9 47.85,37.02 47.13,37.07 46.41,37.1 45.65,37.14 44.94,36.88 L 44.96,36.78 C 46.36,36.66 47.68,36.16 49.03,35.79 50.37,35.39 51.75,35.09 53.11,34.72 55.83,33.94 58.54,33.11 61.24,32.23 L 61.28,32.32 Z M 61.28,32.32" />
            </g>
            <g id="jonnieTop05-group243">
                <path id="jonnieTop05-bezier241" stroke="none" fill="rgb(0, 0, 0)" d="M 44.98,38.49 C 44.1,38.75 43.19,38.91 42.27,38.99 41.81,39.03 41.35,39.15 40.89,39.05 40.44,38.96 39.99,38.82 39.57,38.49 L 39.58,38.39 C 40.06,38.17 40.5,38.09 40.95,38.05 41.39,38 41.83,38.15 42.28,38.19 43.16,38.28 44.06,38.37 44.97,38.39 L 44.98,38.49 Z M 44.98,38.49" />
            </g>
            <g id="jonnieTop05-group244">
                <path id="jonnieTop05-bezier242" stroke="none" fill="rgb(0, 0, 0)" d="M 44.97,46.49 L 42.26,46.7 C 41.81,46.74 41.37,46.87 40.94,46.81 40.49,46.76 40.07,46.68 39.58,46.49 L 39.56,46.4 C 39.96,46.03 40.44,45.89 40.9,45.81 41.36,45.72 41.82,45.85 42.28,45.9 43.19,46.01 44.09,46.18 44.98,46.39 L 44.97,46.49 Z M 44.97,46.49" />
            </g>
            <g id="jonnieTop05-group245">
                <path id="jonnieTop05-bezier243" stroke="none" fill="rgb(0, 0, 0)" d="M 43.86,48.86 C 41.64,49.09 39.34,49.1 37.15,48.37 36.08,47.99 34.99,47.33 34.41,46.22 34.12,45.69 33.99,45.04 33.96,44.48 33.91,43.91 33.89,43.33 33.92,42.76 33.96,41.6 34.17,40.43 34.67,39.34 35.16,38.24 36.01,37.27 37.07,36.67 39.26,35.51 41.75,35.71 43.86,36.4 L 43.84,36.49 C 41.63,36.36 39.33,36.4 37.59,37.53 35.84,38.61 34.89,40.67 34.71,42.81 34.66,43.35 34.65,43.89 34.68,44.43 34.69,44.99 34.77,45.46 34.99,45.93 35.42,46.85 36.33,47.5 37.33,47.91 39.35,48.72 41.64,48.86 43.85,48.76 L 43.86,48.86 Z M 43.86,48.86" />
            </g>
        </g>
        <g id="jonnieTop05-group265">
            <path id="jonnieTop05-bezier261" stroke="none" fill="rgb(0, 0, 0)" d="M 55.57,84.34 C 54.21,83.76 52.77,83.32 51.35,82.88 49.93,82.45 48.49,82.05 47.05,81.8 46.34,81.69 45.58,81.6 44.96,81.69 44.73,81.73 44.25,81.88 43.9,81.93 43.52,82 43.14,82.05 42.75,82.08 41.98,82.12 41.18,82.11 40.4,81.88 40.02,81.77 39.63,81.61 39.3,81.36 38.98,81.1 38.73,80.71 38.7,80.32 L 38.8,80.29 C 39.14,80.96 39.85,81.14 40.53,81.2 41.22,81.25 41.94,81.19 42.65,81.09 43,81.04 43.36,80.99 43.71,80.91 L 44.24,80.82 44.51,80.76 C 44.63,80.74 44.74,80.72 44.85,80.71 45.72,80.67 46.46,80.84 47.21,81.02 48.69,81.38 50.11,81.88 51.51,82.41 52.9,82.98 54.29,83.54 55.61,84.26 L 55.57,84.34 Z M 55.57,84.34" />
        </g>
        <g id="jonnieTop05-group266">
            <path id="jonnieTop05-bezier262" stroke="none" fill="rgb(0, 0, 0)" d="M 47.4,77.64 C 46.68,77.17 45.86,76.85 45.09,76.81 44.69,76.78 44.34,76.93 43.98,76.94 43.61,76.97 43.23,77.04 42.72,77.06 L 42.66,76.98 C 42.85,76.5 43.26,76.16 43.74,75.97 44.22,75.78 44.76,75.89 45.22,76.02 46.17,76.28 46.92,76.87 47.47,77.57 L 47.4,77.64 Z M 47.4,77.64" />
        </g>
        <g id="jonnieTop05-group267">
            <path id="jonnieTop05-bezier263" stroke="none" fill="rgb(0, 0, 0)" d="M 45.2,77.68 C 47.39,77.35 49.58,77.09 51.79,76.92 52.9,76.84 54,76.68 55.12,76.78 56.22,76.88 57.39,77 58.4,77.6 L 58.37,77.69 C 57.27,77.64 56.19,77.75 55.1,77.78 54.01,77.83 52.92,77.72 51.82,77.72 49.62,77.71 47.42,77.73 45.21,77.78 L 45.2,77.68 Z M 45.2,77.68" />
        </g>
        <g id="jonnieTop05-group393">
            <path id="jonnieTop05-bezier389" stroke="none" fill="rgb(0, 0, 0)" d="M 77.27,57.87 C 77.21,60.06 77.6,62.27 78.41,64.31 79.22,66.35 80.47,68.2 82.01,69.75 85.09,72.87 89.41,74.67 93.75,74.71 98.1,74.82 102.44,73.17 105.59,70.2 108.76,67.26 110.67,63.02 110.73,58.73 110.83,54.41 109.08,50.14 106.06,47.12 103.08,44.04 98.87,42.22 94.58,42.14 90.31,41.96 85.97,43.49 82.72,46.36 81.1,47.8 79.74,49.55 78.8,51.53 77.87,53.5 77.35,55.68 77.27,57.87 Z M 77.17,57.87 C 77.22,53.44 79.13,49.07 82.36,45.97 83.96,44.41 85.88,43.16 87.98,42.33 90.08,41.51 92.35,41.11 94.61,41.14 99.14,41.23 103.61,43.16 106.76,46.43 109.93,49.68 111.7,54.23 111.52,58.74 111.41,63.27 109.36,67.66 106.02,70.68 102.72,73.73 98.21,75.37 93.74,75.21 89.27,75.07 84.91,73.12 81.86,69.9 78.78,66.71 77.04,62.29 77.17,57.87 Z M 77.17,57.87" />
        </g>
        <g id="jonnieTop05-group394">
            <path id="jonnieTop05-bezier390" stroke="none" fill="rgb(0, 0, 0)" d="M 111.51,60.73 C 112.03,60.5 112.52,60.21 112.94,59.87 113.36,59.54 113.72,59.1 113.71,58.72 113.72,58.31 113.41,58.17 113.02,57.88 112.63,57.6 112.13,57.35 111.62,57.01 L 111.63,56.91 C 112.24,56.71 112.87,56.75 113.49,56.99 113.8,57.12 114.1,57.34 114.32,57.68 114.53,58.02 114.59,58.47 114.51,58.84 114.31,59.61 113.72,60 113.21,60.29 112.67,60.55 112.11,60.72 111.54,60.83 L 111.51,60.73 Z M 111.51,60.73" />
        </g>
        <g id="jonnieTop05-group395">
            <path id="jonnieTop05-bezier391" stroke="none" fill="rgb(0, 0, 0)" d="M 75.32,42.86 L 77.6,33.44 C 77.98,31.87 78.34,30.3 78.67,28.69 78.98,27.09 79.63,25.55 80.67,24.23 L 80.77,24.27 C 80.54,25.92 80.14,27.46 79.53,28.94 78.95,30.44 78.6,32.03 78.14,33.58 77.27,36.69 76.33,39.79 75.41,42.89 L 75.32,42.86 Z M 75.32,42.86" />
        </g>
        <g id="jonnieTop05-group396">
            <path id="jonnieTop05-bezier392" stroke="none" fill="rgb(0, 0, 0)" d="M 101.88,28.64 C 103.45,29.28 104.76,30.45 105.77,31.82 106.76,33.21 107.41,34.84 107.76,36.52 108.12,38.19 108.25,39.93 108.02,41.62 107.8,43.31 107.35,44.96 106.65,46.5 L 106.56,46.47 C 106.73,44.79 106.94,43.16 107.03,41.53 107.11,39.9 107.21,38.27 106.97,36.66 106.74,35.06 106.22,33.48 105.36,32.1 104.51,30.72 103.32,29.48 101.84,28.73 L 101.88,28.64 Z M 101.88,28.64" />
        </g>
        <g id="jonnieTop05-group397">
            <path id="jonnieTop05-bezier393" stroke="none" fill="rgb(0, 0, 0)" d="M 66.8,78.85 C 67.09,78.18 67.67,77.74 68.18,77.27 68.73,76.83 69.31,76.44 69.9,76.07 70.5,75.71 71.1,75.29 71.78,75.11 72.46,74.92 73.18,74.8 73.92,74.92 L 73.94,75.02 C 73.33,75.44 72.74,75.74 72.14,76.04 71.55,76.34 70.89,76.5 70.27,76.78 69.66,77.04 69.05,77.34 68.47,77.68 67.9,78.02 67.26,78.35 66.89,78.89 L 66.8,78.85 Z M 66.8,78.85" />
        </g>
        <g id="jonnieTop05-group398">
            <path id="jonnieTop05-bezier394" stroke="none" fill="rgb(0, 0, 0)" d="M 106.51,74.89 L 103.48,80.19 C 102.45,81.94 101.42,83.71 100.18,85.37 99.57,86.2 98.88,87.01 98.07,87.7 97.26,88.4 96.3,88.94 95.28,89.28 93.23,89.93 91.12,89.91 89.09,89.65 L 89.09,89.55 C 91.12,89.27 93.14,89.05 94.94,88.33 96.75,87.65 98.28,86.42 99.56,84.87 100.83,83.33 101.94,81.62 103.05,79.93 L 106.43,74.84 106.51,74.89 Z M 106.51,74.89" />
        </g>
        <g id="jonnieTop05-group399">
            <path id="jonnieTop05-bezier395" stroke="none" fill="rgb(0, 0, 0)" d="M 83.16,21.22 C 83.48,20.16 84.05,19.19 84.68,18.29 85.34,17.39 86.09,16.57 86.91,15.81 87.72,15.05 88.56,14.3 89.54,13.76 90.51,13.22 91.53,12.78 92.64,12.55 L 92.68,12.64 C 91.82,13.36 90.94,13.97 90.07,14.6 89.21,15.24 88.27,15.75 87.43,16.42 86.58,17.07 85.79,17.8 85.07,18.6 84.36,19.39 83.69,20.26 83.26,21.25 L 83.16,21.22 Z M 83.16,21.22" />
        </g>
        <g id="jonnieTop05-group400">
            <path id="jonnieTop05-bezier396" stroke="none" fill="rgb(0, 0, 0)" d="M 92.62,12.6 C 94.51,11.14 96.93,10.61 99.26,10.45 101.62,10.3 103.99,10.67 106.27,11.16 110.85,12.06 115.46,12.85 120.09,13.49 124.71,14.09 129.37,14.58 133.98,14.56 135.12,14.55 136.29,14.41 137.49,14.42 138.68,14.43 139.88,14.49 141.06,14.74 142.23,14.98 143.4,15.34 144.42,16.03 144.92,16.37 145.37,16.82 145.66,17.37 145.95,17.92 146,18.57 145.83,19.14 L 145.73,19.12 C 145.83,18.55 145.7,17.97 145.4,17.51 145.1,17.04 144.66,16.68 144.17,16.41 143.2,15.85 142.07,15.58 140.94,15.42 139.81,15.28 138.66,15.24 137.51,15.28 136.37,15.31 135.22,15.5 134.02,15.55 129.26,15.71 124.6,14.99 119.97,14.28 115.34,13.54 110.74,12.65 106.16,11.65 103.89,11.1 101.6,10.67 99.27,10.75 96.98,10.83 94.58,11.3 92.69,12.67 L 92.62,12.6 Z M 92.62,12.6" />
        </g>
        <g id="jonnieTop05-group401">
            <path id="jonnieTop05-bezier397" stroke="none" fill="rgb(0, 0, 0)" d="M 136.88,22.75 C 138,22.38 139.14,22.07 140.32,21.93 140.91,21.87 141.51,21.83 142.12,21.98 142.41,22.06 142.73,22.19 142.93,22.47 143.13,22.74 143.2,23.09 143.13,23.42 142.94,24.09 142.38,24.47 141.89,24.79 141.38,25.11 140.84,25.36 140.31,25.62 139.78,25.88 139.25,26.12 138.77,26.42 138.65,26.5 138.53,26.58 138.43,26.66 138.38,26.7 138.33,26.75 138.28,26.79 138.17,26.88 138.19,26.89 138.05,26.95 137.6,27.15 137.27,26.95 136.98,26.83 135.9,26.22 135.04,25.45 134.04,24.83 133.07,24.2 132.05,23.66 130.97,23.25 128.82,22.4 126.5,22.25 124.17,22.39 119.5,22.64 114.83,23.3 110.12,23.58 107.77,23.7 105.4,23.82 103.03,23.75 101.85,23.71 100.66,23.63 99.48,23.44 98.9,23.34 98.31,23.21 97.74,23.01 97.19,22.81 96.6,22.53 96.25,22.01 L 96.33,21.96 C 96.71,22.39 97.28,22.59 97.83,22.73 98.39,22.87 98.96,22.95 99.54,22.99 100.7,23.09 101.87,23.09 103.04,23.05 105.37,22.97 107.71,22.8 110.05,22.58 114.72,22.17 119.41,21.73 124.14,21.59 125.33,21.56 126.52,21.56 127.73,21.72 128.92,21.88 130.1,22.19 131.21,22.64 132.33,23.09 133.38,23.68 134.36,24.35 135.35,25 136.26,25.82 137.21,26.38 137.44,26.51 137.72,26.59 137.83,26.53 137.83,26.56 137.95,26.45 137.96,26.45 138.02,26.4 138.08,26.34 138.15,26.3 138.27,26.2 138.41,26.12 138.54,26.04 139.07,25.73 139.61,25.5 140.15,25.26 140.68,25.02 141.22,24.78 141.71,24.49 142.19,24.2 142.7,23.85 142.84,23.35 142.91,23.12 142.85,22.84 142.71,22.63 142.57,22.42 142.32,22.29 142.05,22.22 141.51,22.07 140.92,22.08 140.34,22.13 139.18,22.24 138.03,22.51 136.91,22.85 L 136.88,22.75 Z M 136.88,22.75" />
        </g>
        <g id="jonnieTop05-group402">
            <path id="jonnieTop05-bezier398" stroke="none" fill="rgb(0, 0, 0)" d="M 99.81,19.14 C 99.63,20.81 99.4,22.46 99.09,24.11 98.93,24.94 98.84,25.79 98.52,26.58 98.35,26.98 98.18,27.37 97.94,27.75 97.82,27.93 97.69,28.12 97.51,28.29 97.42,28.37 97.32,28.46 97.16,28.5 96.96,28.57 96.81,28.38 96.8,28.28 L 96.89,28.23 C 96.98,28.3 97.04,28.28 97.05,28.24 97.07,28.2 97.11,28.11 97.14,28.03 97.2,27.85 97.24,27.66 97.29,27.47 L 97.56,26.28 C 97.74,25.48 98.07,24.72 98.31,23.92 98.79,22.33 99.25,20.73 99.71,19.12 L 99.81,19.14 Z M 99.81,19.14" />
        </g>
        <g id="jonnieTop05-group403">
            <path id="jonnieTop05-bezier399" stroke="none" fill="rgb(0, 0, 0)" d="M 119.88,65.82 C 120.6,66.31 121.19,66.98 121.62,67.76 122.03,68.55 122.25,69.46 122.24,70.37 122.23,71.28 122.09,72.22 121.64,73.01 121.2,73.8 120.62,74.49 119.89,75 L 119.81,74.94 C 120.11,74.1 120.46,73.35 120.73,72.59 121,71.84 121.34,71.12 121.44,70.32 121.64,68.76 121.03,67.07 119.82,65.9 L 119.88,65.82 Z M 119.88,65.82" />
        </g>
        <g id="jonnieTop05-group404">
            <path id="jonnieTop05-bezier400" stroke="none" fill="rgb(0, 0, 0)" d="M 119.86,76.06 C 117.01,77.12 114.15,78.13 111.28,79.1 109.85,79.6 108.43,80.15 106.96,80.52 105.49,80.9 104.01,81.23 102.48,81.4 L 102.45,81.31 C 103.82,80.61 105.24,80.07 106.67,79.57 108.1,79.06 109.58,78.73 111.05,78.34 113.97,77.53 116.9,76.74 119.83,75.97 L 119.86,76.06 Z M 119.86,76.06" />
        </g>
        <g id="jonnieTop05-group405">
            <path id="jonnieTop05-bezier401" stroke="none" fill="rgb(0, 0, 0)" d="M 123.34,64.99 C 124.34,64.9 125.35,64.8 126.36,64.79 126.86,64.78 127.37,64.78 127.88,64.79 128.39,64.81 128.91,64.8 129.43,64.93 129.7,64.99 129.96,65.09 130.23,65.24 130.36,65.32 130.5,65.42 130.64,65.58 130.71,65.66 130.77,65.78 130.81,65.91 130.83,65.98 130.82,66.05 130.82,66.12 L 130.82,66.22 C 130.77,66.74 130.7,67.32 130.31,67.81 129.91,68.29 129.31,68.43 128.81,68.48 128.29,68.52 127.79,68.5 127.29,68.46 L 127.29,68.36 C 127.78,68.3 128.28,68.24 128.75,68.13 129.22,68.01 129.65,67.81 129.86,67.47 130.07,67.13 130.11,66.67 130.09,66.2 130.16,66.15 129.63,66.02 129.2,65.94 128.3,65.72 127.31,65.51 126.33,65.41 125.34,65.31 124.34,65.18 123.34,65.09 L 123.34,64.99 Z M 123.34,64.99" />
        </g>
        <g id="jonnieTop05-group406">
            <path id="jonnieTop05-bezier402" stroke="none" fill="rgb(0, 0, 0)" d="M 129.5,70.48 C 129.31,72.12 128.76,73.77 127.68,75.15 127.14,75.82 126.49,76.51 125.61,76.8 124.76,77.11 123.82,77.12 123,76.82 L 123.01,76.72 C 123.83,76.46 124.56,76.24 125.22,75.88 125.86,75.53 126.53,75.17 127.08,74.62 127.63,74.07 128.1,73.42 128.47,72.71 128.86,72 129.19,71.25 129.41,70.46 L 129.5,70.48 Z M 129.5,70.48" />
        </g>
        <g id="jonnieTop05-group407">
            <path id="jonnieTop05-bezier403" stroke="none" fill="rgb(0, 0, 0)" d="M 78.05,26.85 C 76.45,27.2 74.86,27.62 73.29,28.11 71.72,28.58 70.18,29.12 68.68,29.75 67.18,30.4 65.76,31.18 64.41,32 63.07,32.84 61.79,33.81 61.09,35.31 L 60.99,35.29 C 61.06,34.44 61.47,33.63 61.99,32.94 62.51,32.25 63.17,31.68 63.85,31.17 65.24,30.17 66.82,29.56 68.39,29.01 71.53,27.9 74.77,27.19 78.03,26.75 L 78.05,26.85 Z M 78.05,26.85" />
        </g>
        <g id="jonnieTop05-group408">
            <path id="jonnieTop05-bezier404" stroke="none" fill="rgb(0, 0, 0)" d="M 66.05,50.06 C 65.1,49.9 64.14,49.61 63.26,49.11 62.83,48.87 62.34,48.62 62.04,48.17 61.74,47.74 61.54,47.21 61.62,46.65 L 61.71,46.62 C 62.14,46.95 62.46,47.23 62.79,47.51 63.13,47.78 63.37,48.16 63.72,48.46 64.41,49.04 65.22,49.53 66.08,49.97 L 66.05,50.06 Z M 66.05,50.06" />
        </g>
        <g id="jonnieTop05-group409">
            <path id="jonnieTop05-bezier405" stroke="none" fill="rgb(0, 0, 0)" d="M 87.68,89.65 C 85.26,89.72 82.85,89.65 80.44,89.46 78.03,89.23 75.62,88.89 73.25,88.28 70.91,87.66 68.49,86.88 66.56,85.18 65.63,84.33 64.83,83.25 64.5,82 64.16,80.75 64.28,79.45 64.7,78.31 L 64.8,78.33 C 64.66,79.53 64.73,80.73 65.16,81.77 65.58,82.83 66.31,83.72 67.21,84.42 69,85.84 71.2,86.8 73.47,87.51 75.75,88.2 78.11,88.64 80.49,88.96 82.87,89.28 85.27,89.49 87.68,89.55 L 87.68,89.65 Z M 87.68,89.65" />
        </g>
        <g id="jonnieTop05-group410">
            <path id="jonnieTop05-bezier406" stroke="none" fill="rgb(0, 0, 0)" d="M 76.1,31.41 C 72.57,33.21 69.85,36.36 68.38,39.97 67.64,41.77 67.18,43.69 67,45.63 66.84,47.58 66.74,49.56 66.66,51.53 66.52,55.47 66.56,59.42 66.66,63.35 66.69,65.32 66.8,67.29 66.97,69.24 67.16,71.19 67.41,73.15 67.98,75.04 L 67.89,75.08 C 67.04,73.27 66.62,71.29 66.28,69.33 65.96,67.36 65.79,65.38 65.66,63.39 65.43,59.42 65.61,55.45 65.86,51.49 65.99,49.51 66.14,47.54 66.35,45.56 66.59,43.56 67.11,41.6 67.92,39.77 69.55,36.11 72.44,33.01 76.05,31.32 L 76.1,31.41 Z M 76.1,31.41" />
        </g>
        <g id="jonnieTop05-group411">
            <path id="jonnieTop05-bezier407" stroke="none" fill="rgb(0, 0, 0)" d="M 78.48,80.34 C 77.18,78.96 76.23,77.3 75.42,75.6 74.62,73.89 74,72.1 73.54,70.27 72.62,66.6 72.29,62.8 72.34,59.02 72.4,55.25 72.78,51.46 73.6,47.78 74.45,44.1 75.53,40.48 77,37.01 L 77.09,37.04 C 76.17,40.68 75.24,44.3 74.58,47.98 73.9,51.64 73.31,55.32 73.14,59.05 72.99,62.77 73.22,66.51 74.02,70.15 74.42,71.97 74.96,73.76 75.69,75.48 76.43,77.18 77.32,78.86 78.55,80.27 L 78.48,80.34 Z M 78.48,80.34" />
        </g>
        <g id="jonnieTop05-group412">
            <path id="jonnieTop05-bezier408" stroke="none" fill="rgb(0, 0, 0)" d="M 97.92,23.15 C 96.7,22.36 95.25,21.98 93.83,21.77 92.4,21.55 90.94,21.54 89.51,21.67 88.07,21.8 86.66,22.12 85.24,22.37 83.81,22.62 82.39,22.93 80.91,23.15 L 80.88,23.06 C 82.18,22.31 83.58,21.78 85.02,21.39 86.46,21.01 87.97,20.89 89.47,20.87 90.96,20.84 92.46,20.96 93.92,21.28 95.37,21.63 96.81,22.15 97.99,23.07 L 97.92,23.15 Z M 97.92,23.15" />
        </g>
        <g id="jonnieTop05-group413">
            <path id="jonnieTop05-bezier409" stroke="none" fill="rgb(0, 0, 0)" d="M 66,86.17 C 64.33,85.9 62.67,85.55 61.04,85.07 60.22,84.83 59.37,84.64 58.61,84.2 58.23,83.98 57.86,83.74 57.53,83.42 57.21,83.12 56.87,82.74 56.82,82.25 L 56.91,82.22 C 57.5,82.77 58.3,82.97 59.05,83.3 59.81,83.58 60.53,84 61.3,84.32 62.85,84.95 64.43,85.53 66.03,86.07 L 66,86.17 Z M 66,86.17" />
        </g>
        <g id="jonnieTop05-group414">
            <path id="jonnieTop05-bezier410" stroke="none" fill="rgb(0, 0, 0)" d="M 64.54,76.8 C 63.22,76.99 61.9,77.23 60.63,77.52 59.99,77.67 59.38,77.93 58.76,78.03 58.13,78.17 57.53,78.24 56.9,78.5 L 56.83,78.44 C 57.12,77.72 57.85,77.34 58.47,77.08 59.12,76.81 59.83,76.8 60.5,76.73 61.85,76.61 63.2,76.61 64.53,76.7 L 64.54,76.8 Z M 64.54,76.8" />
        </g>
        <g id="jonnieTop05-group415">
            <path id="jonnieTop05-bezier411" stroke="none" fill="rgb(0, 0, 0)" d="M 55.96,81.79 C 55.69,81.68 55.43,81.54 55.19,81.34 54.96,81.12 54.75,80.83 54.69,80.44 54.63,80.06 54.7,79.6 54.98,79.36 55.25,79.13 55.58,79.01 55.96,79.08 L 56.02,79.16 C 55.95,79.54 55.84,79.78 55.77,79.98 55.71,80.17 55.54,80.24 55.49,80.42 55.4,80.76 55.66,81.3 56.02,81.7 L 55.96,81.79 Z M 55.96,81.79" />
        </g>
        <path id="jonnieTop05-bezier412" stroke="rgb(0, 0, 0)" stroke-width="1" stroke-miterlimit="10" fill="none" d="M 43.63,78.87 C 43.63,78.87 39.88,79.39 39.63,78.32" />
        <path id="jonnieTop05-bezier530" stroke="rgb(0, 0, 0)" stroke-width="1" stroke-miterlimit="10" fill="none" d="M 118.84,65.42 C 118.84,65.42 112.39,63.69 111.16,64.08" />
    </g>
</svg>
