<?xml version="1.0" encoding="UTF-8"?>
<!DOCTYPE svg PUBLIC "-//W3C//DTD SVG 1.1//EN" "http://www.w3.org/Graphics/SVG/1.1/DTD/svg11.dtd">
<svg version="1.1" xmlns="http://www.w3.org/2000/svg" xmlns:xlink="http://www.w3.org/1999/xlink" width="180" height="300"  xml:space="preserve" id="jonnieSide07">
    <!-- Generated by PaintCode - http://www.paintcodeapp.com -->
    <g id="jonnieSide07-group">
        <g id="jonnieSide07-group81">
            <path id="jonnieSide07-bezier80" stroke="none" fill="rgb(0, 0, 0)" d="M 133.84,29.23 C 133.63,25.75 133.08,22.27 132.11,18.93 131.61,17.26 131,15.62 130.18,14.1 129.36,12.58 128.32,11.15 126.98,10.1 125.66,9.01 123.97,8.54 122.28,8.23 120.58,7.94 118.84,7.88 117.12,7.99 113.68,8.22 110.26,9.13 107.24,10.76 104.23,12.38 101.62,14.84 100.25,17.94 99.54,19.48 99.17,21.13 99.04,22.84 98.9,24.53 98.98,26.24 99.34,27.91 99.67,29.58 100.27,31.19 100.95,32.79 101.62,34.39 102.4,35.99 102.83,37.75 103.27,39.49 103.28,41.36 102.78,43.08 102.29,44.8 101.42,46.36 100.43,47.8 L 100.34,47.75 C 101.23,46.25 101.98,44.65 102.34,42.97 102.73,41.29 102.65,39.56 102.15,37.93 101.67,36.29 100.89,34.74 100.16,33.14 99.43,31.54 98.76,29.87 98.36,28.12 97.97,26.36 97.86,24.54 98.01,22.75 98.15,20.97 98.57,19.16 99.35,17.52 100.89,14.21 103.71,11.68 106.86,10.05 110.03,8.41 113.55,7.53 117.08,7.34 118.85,7.25 120.63,7.34 122.38,7.67 123.25,7.83 124.12,8.06 124.96,8.37 125.8,8.68 126.6,9.14 127.29,9.71 128.69,10.85 129.72,12.34 130.53,13.91 131.34,15.48 131.93,17.15 132.4,18.85 133.32,22.24 133.8,25.73 133.93,29.23 L 133.84,29.23 Z M 133.84,29.23" />
        </g>
        <g id="jonnieSide07-group82">
            <path id="jonnieSide07-bezier81" stroke="none" fill="rgb(0, 0, 0)" d="M 131.69,32.52 C 131.77,35.02 131.7,37.53 131.2,40.01 130.9,41.23 130.56,42.53 129.55,43.51 129.29,43.75 128.97,43.94 128.61,44.04 128.43,44.09 128.25,44.12 128.06,44.12 L 127.59,44.14 C 126.99,44.16 126.38,44.22 125.79,44.32 123.4,44.73 121.29,46.05 119.92,47.97 119.2,48.91 118.7,50.02 118.34,51.17 118.16,51.75 118.03,52.34 117.96,52.95 117.88,53.54 117.82,54.18 118,54.75 L 117.92,54.8 C 117.33,53.61 117.48,52.26 117.67,51.01 117.9,49.74 118.39,48.51 119.1,47.4 119.83,46.31 120.81,45.37 121.97,44.73 123.12,44.08 124.39,43.7 125.67,43.53 126.31,43.45 126.94,43.41 127.59,43.41 L 128.05,43.42 C 128.18,43.42 128.31,43.4 128.43,43.38 128.68,43.32 128.91,43.2 129.12,43.02 129.96,42.29 130.39,41.06 130.71,39.9 131.33,37.52 131.54,35.01 131.59,32.53 L 131.69,32.52 Z M 131.69,32.52" />
        </g>
        <g id="jonnieSide07-group83">
            <path id="jonnieSide07-bezier82" stroke="none" fill="rgb(0, 0, 0)" d="M 98.5,50.11 C 95.14,53.94 92.04,58.03 89.58,62.47 88.37,64.69 87.29,67.03 86.9,69.49 86.81,70.11 86.8,70.69 86.8,71.35 86.8,71.99 86.77,72.64 86.73,73.28 86.64,74.57 86.47,75.85 86.24,77.12 85.79,79.66 85.09,82.14 84.41,84.59 84.07,85.82 83.75,87.04 83.48,88.27 83.19,89.49 83.08,90.72 82.89,92.01 82.46,94.55 81.95,97.06 81.35,99.54 81.03,100.78 80.71,102.02 80.36,103.25 80.18,103.86 79.99,104.48 79.78,105.08 79.55,105.69 79.41,106.31 78.99,106.86 L 78.93,106.78 C 79.22,106.27 79.34,105.6 79.5,105 79.65,104.39 79.79,103.76 79.92,103.14 80.19,101.9 80.43,100.65 80.66,99.39 81.13,96.89 81.58,94.38 81.9,91.87 82.07,90.64 82.18,89.32 82.47,88.05 82.74,86.78 83.1,85.55 83.46,84.32 84.2,81.87 84.95,79.45 85.45,76.97 85.7,75.73 85.89,74.49 86,73.23 86.06,72.6 86.1,71.98 86.11,71.34 86.12,70.72 86.15,70.03 86.26,69.39 86.72,66.8 87.87,64.45 89.14,62.22 91.74,57.8 94.96,53.79 98.42,50.04 L 98.5,50.11 Z M 98.5,50.11" />
        </g>
        <g id="jonnieSide07-group84">
            <path id="jonnieSide07-bezier83" stroke="none" fill="rgb(0, 0, 0)" d="M 124.76,112.15 C 125.92,107.52 126.88,102.84 127.54,98.12 128.19,93.41 128.61,88.63 128.22,83.92 128.03,81.57 127.49,79.28 126.8,77.01 126.12,74.74 125.32,72.51 124.43,70.32 122.67,65.91 120.54,61.64 118.21,57.48 L 118.3,57.42 C 121.12,61.3 123.41,65.54 125.35,69.93 126.29,72.14 127.12,74.41 127.76,76.73 128.39,79.05 128.89,81.44 129.02,83.86 129.32,88.68 128.79,93.48 128.03,98.2 127.24,102.92 126.14,107.58 124.86,112.18 L 124.76,112.15 Z M 124.76,112.15" />
        </g>
        <g id="jonnieSide07-group116">
            <path id="jonnieSide07-bezier115" stroke="none" fill="rgb(0, 0, 0)" d="M 77.89,109.9 C 77.52,110.84 77.29,111.82 77.18,112.79 77.12,113.27 77.18,113.76 77.09,114.22 77,114.7 76.92,115.17 76.73,115.7 L 76.63,115.72 C 76.28,115.26 76.13,114.72 76.09,114.18 76.04,113.64 76.24,113.12 76.39,112.62 76.7,111.61 77.17,110.67 77.8,109.85 L 77.89,109.9 Z M 77.89,109.9" />
        </g>
        <g id="jonnieSide07-group117">
            <path id="jonnieSide07-bezier116" stroke="none" fill="rgb(0, 0, 0)" d="M 76.63,120.48 C 75.42,123.13 74.45,125.92 74.01,128.78 73.91,129.5 73.84,130.22 73.85,130.94 73.87,131.66 73.89,132.4 73.89,133.13 73.89,134.6 73.85,136.06 73.8,137.52 73.54,143.36 73.14,149.2 72.19,155 71.95,156.45 71.67,157.9 71.26,159.33 71.04,160.05 70.81,160.76 70.44,161.46 70.27,161.81 69.99,162.16 69.82,162.42 69.63,162.71 69.45,163.01 69.28,163.32 68.6,164.56 68.1,165.9 67.67,167.27 67.25,168.64 66.92,170.04 66.7,171.46 66.47,172.87 66.34,174.31 66.43,175.72 66.48,176.42 66.58,177.12 66.8,177.76 66.91,178.08 67.06,178.38 67.24,178.64 L 67.89,179.5 C 68.33,180.08 68.76,180.68 69.23,181.19 69.47,181.44 69.71,181.64 70,181.72 70.3,181.8 70.67,181.8 71.03,181.82 71.76,181.85 72.48,181.87 73.21,181.86 73.57,181.86 73.94,181.84 74.29,181.8 74.47,181.78 74.65,181.75 74.81,181.7 74.97,181.64 75.15,181.55 75.05,181.4 L 75.14,181.35 C 75.21,181.43 75.2,181.59 75.12,181.67 75.04,181.75 74.95,181.79 74.86,181.83 74.69,181.9 74.51,181.95 74.32,181.99 73.96,182.06 73.59,182.1 73.23,182.14 72.49,182.21 71.76,182.24 71.03,182.27 70.66,182.28 70.29,182.31 69.88,182.22 69.45,182.14 69.09,181.86 68.82,181.6 68.27,181.06 67.82,180.49 67.35,179.93 L 66.63,179.08 C 66.38,178.76 66.2,178.39 66.06,178.03 65.78,177.29 65.65,176.54 65.57,175.79 65.43,174.28 65.52,172.78 65.71,171.31 66.15,168.37 66.95,165.48 68.41,162.83 68.6,162.5 68.8,162.18 69.03,161.87 69.27,161.53 69.46,161.31 69.61,161.01 69.94,160.42 70.18,159.74 70.4,159.07 70.83,157.7 71.14,156.28 71.41,154.86 72.44,149.14 72.95,143.31 73.3,137.49 73.38,136.04 73.45,134.58 73.49,133.12 73.51,132.39 73.5,131.68 73.5,130.94 73.51,130.19 73.59,129.46 73.71,128.73 74.23,125.83 75.27,123.07 76.54,120.44 L 76.63,120.48 Z M 76.63,120.48" />
        </g>
        <g id="jonnieSide07-group118">
            <path id="jonnieSide07-bezier117" stroke="none" fill="rgb(0, 0, 0)" d="M 73.22,177.99 C 72.86,177.47 72.59,176.88 72.47,176.22 72.36,175.57 72.46,174.84 72.82,174.22 73.2,173.65 73.43,173.13 73.91,172.66 74.14,172.43 74.4,172.18 74.79,172.04 74.99,171.96 75.23,171.95 75.42,172.01 75.62,172.08 75.76,172.2 75.87,172.34 L 75.82,172.42 C 75.47,172.39 75.26,172.5 75.13,172.65 74.99,172.82 74.83,173.05 74.67,173.3 74.37,173.78 73.86,174.25 73.48,174.67 72.79,175.47 72.84,176.82 73.3,177.94 L 73.22,177.99 Z M 73.22,177.99" />
        </g>
        <g id="jonnieSide07-group119">
            <path id="jonnieSide07-bezier118" stroke="none" fill="rgb(0, 0, 0)" d="M 78.23,171.55 C 78.14,173 78.11,174.46 78.2,175.91 78.26,176.62 78.31,177.37 78.58,178.01 78.65,178.17 78.73,178.3 78.86,178.37 79.02,178.46 79.17,178.55 79.33,178.63 79.64,178.78 80,178.9 80.22,178.73 80.44,178.57 80.53,178.19 80.57,177.86 80.61,177.51 80.61,177.15 80.6,176.79 80.55,176.08 80.55,175.32 80.6,174.59 80.69,173.12 80.89,171.67 81.08,170.23 81.19,169.51 81.29,168.79 81.37,168.07 81.4,167.72 81.44,167.35 81.43,167.02 81.43,166.74 81.28,166.39 81.17,166.04 80.71,164.66 80.29,163.24 79.98,161.81 79.33,158.94 79.04,155.98 79.22,153.02 79.4,150.05 80.1,147.19 80.81,144.35 81.55,141.52 82.42,138.73 83.25,135.94 84.07,133.17 84.94,130.36 85.16,127.53 L 85.32,123.17 C 85.38,121.71 85.43,120.26 85.46,118.8 L 85.56,118.8 C 85.75,121.71 85.84,124.62 85.86,127.55 85.85,129.06 85.57,130.52 85.27,131.95 84.96,133.39 84.59,134.81 84.21,136.22 L 81.77,144.61 C 81,147.4 80.26,150.22 80.02,153.08 79.79,155.94 80.03,158.85 80.61,161.67 80.9,163.09 81.29,164.48 81.72,165.87 81.81,166.22 81.98,166.55 81.99,167.01 81.99,167.4 81.94,167.77 81.9,168.13 81.81,168.87 81.69,169.59 81.58,170.31 81.35,171.74 81.12,173.18 81,174.62 80.94,175.35 80.92,176.05 80.95,176.79 80.96,177.16 80.95,177.53 80.89,177.9 80.82,178.27 80.77,178.69 80.39,178.98 79.96,179.25 79.53,179.03 79.21,178.88 79.04,178.79 78.88,178.69 78.73,178.6 78.54,178.48 78.42,178.29 78.35,178.11 78.07,177.39 78.04,176.65 78,175.92 77.94,174.46 78.01,173 78.13,171.54 L 78.23,171.55 Z M 78.23,171.55" />
        </g>
        <g id="jonnieSide07-group120">
            <path id="jonnieSide07-bezier119" stroke="none" fill="rgb(0, 0, 0)" d="M 84.64,116.93 C 86.9,114.04 89.09,111.09 91.21,108.09 93.34,105.11 95.41,102.07 97.28,98.93 98.2,97.35 99.08,95.75 99.8,94.1 100.54,92.41 101.31,90.74 102.11,89.09 102.93,87.44 103.75,85.79 104.67,84.19 105.14,83.39 105.62,82.6 106.16,81.84 106.44,81.47 106.73,81.1 107.06,80.76 107.39,80.43 107.76,80.08 108.25,80 L 108.27,80.1 C 107.85,80.24 107.55,80.6 107.28,80.95 107.01,81.31 106.77,81.69 106.55,82.09 106.09,82.87 105.68,83.69 105.29,84.51 104.51,86.16 103.74,87.83 103.01,89.51 102.25,91.18 101.49,92.85 100.7,94.51 99.9,96.2 98.95,97.79 97.96,99.35 93.99,105.57 89.43,111.36 84.72,117 L 84.64,116.93 Z M 84.64,116.93" />
        </g>
        <g id="jonnieSide07-group121">
            <path id="jonnieSide07-bezier120" stroke="none" fill="rgb(0, 0, 0)" d="M 90.89,157.58 C 91.75,160 93.08,162.31 95.1,163.87 95.6,164.26 96.14,164.6 96.7,164.9 L 97.57,165.35 C 97.9,165.58 98.1,165.84 98.3,166.11 99.07,167.19 99.65,168.34 100.27,169.48 102.64,174.07 104.96,178.68 107.52,183.15 110.07,187.62 112.81,191.98 115.6,196.3 116.3,197.39 117.01,198.46 117.73,199.53 118.43,200.59 119.24,201.63 119.84,202.8 120.46,203.95 121.01,205.14 121.47,206.35 121.89,207.58 122.36,208.81 122.43,210.13 L 122.33,210.13 C 122.12,208.88 121.58,207.69 121.06,206.52 120.53,205.36 119.94,204.22 119.26,203.14 118.61,202.05 117.79,201.08 117.04,200.01 116.28,198.96 115.53,197.9 114.8,196.84 111.86,192.58 109.24,188.11 106.78,183.56 104.31,179.01 102.05,174.36 99.77,169.74 99.19,168.59 98.62,167.43 97.91,166.39 97.74,166.14 97.53,165.88 97.33,165.74 L 96.5,165.27 C 95.93,164.94 95.38,164.57 94.88,164.15 92.84,162.46 91.58,160.06 90.8,157.62 L 90.89,157.58 Z M 90.89,157.58" />
        </g>
        <g id="jonnieSide07-group122">
            <path id="jonnieSide07-bezier121" stroke="none" fill="rgb(0, 0, 0)" d="M 84.73,147.8 C 84.9,151.09 85.23,154.38 85.96,157.55 86.34,159.14 86.88,160.66 87.45,162.16 88.02,163.66 88.73,165.09 89.71,166.43 L 89.64,166.5 C 88.26,165.53 87.25,164.07 86.53,162.55 85.8,161.02 85.46,159.35 85.17,157.71 84.6,154.42 84.51,151.1 84.63,147.81 L 84.73,147.8 Z M 84.73,147.8" />
        </g>
        <g id="jonnieSide07-group123">
            <path id="jonnieSide07-bezier122" stroke="none" fill="rgb(0, 0, 0)" d="M 122.43,214.52 C 120.27,219.55 118.15,224.62 116.47,229.82 116.07,231.13 115.67,232.45 115.53,233.79 115.4,235.15 115.4,236.52 115.42,237.88 115.47,240.62 115.63,243.35 115.77,246.09 115.9,248.82 116.05,251.56 116.01,254.32 115.99,255.68 115.9,257.1 115.57,258.43 L 114.75,262.46 C 114.19,265.14 113.6,267.82 112.89,270.48 112.54,271.81 112.16,273.13 111.71,274.43 111.23,275.73 110.81,277.05 109.85,278.21 L 109.9,278.13 C 109.3,279.44 108.81,280.82 108.47,282.22 108.14,283.62 107.92,285.09 108.19,286.45 108.32,287.13 108.61,287.76 109.1,288.18 109.59,288.6 110.26,288.78 110.95,288.8 112.4,288.8 113.89,288.85 115.35,288.93 118.29,289.08 121.22,289.3 124.15,289.56 127.06,289.81 130.03,290.12 132.91,290.57 135.81,290.88 138.74,291.06 141.66,291.15 143.12,291.18 144.58,291.19 146.03,291.11 146.74,291.07 147.47,291 148.13,290.85 148.44,290.8 148.83,290.63 148.85,290.58 L 149.21,289.66 C 149.34,289.34 149.44,289 149.4,288.84 149.39,288.71 149.22,288.55 148.92,288.41 148.35,288.16 147.59,287.99 146.9,287.77 145.48,287.36 144.07,286.91 142.68,286.39 139.9,285.36 137.21,284.06 134.69,282.49 132.28,280.82 129.58,279.78 127,278.19 125.73,277.39 124.5,276.39 123.66,275.05 122.81,273.71 122.46,272.11 122.47,270.59 122.49,267.5 123.59,264.66 124.65,261.92 125.74,259.18 126.98,256.51 128.2,253.84 130.67,248.52 133.05,243.15 134.7,237.53 136.35,231.92 137.4,226.12 137.71,220.25 L 137.81,220.26 C 137.63,226.13 136.83,232.01 135.2,237.68 133.62,243.36 131.3,248.8 128.91,254.16 127.72,256.84 126.53,259.52 125.49,262.25 124.46,264.97 123.47,267.76 123.47,270.58 123.47,271.98 123.77,273.37 124.51,274.52 125.23,275.68 126.33,276.59 127.53,277.35 129.95,278.85 132.78,279.96 135.21,281.65 137.67,283.19 140.31,284.44 143.02,285.47 144.38,285.99 145.77,286.45 147.17,286.86 147.87,287.09 148.55,287.23 149.33,287.57 149.52,287.66 149.71,287.77 149.9,287.95 150.09,288.11 150.27,288.39 150.31,288.68 150.38,289.25 150.19,289.63 150.06,289.99 L 149.85,290.5 149.75,290.75 C 149.7,290.85 149.71,290.88 149.58,291.1 149.35,291.39 149.12,291.47 148.92,291.55 148.72,291.63 148.53,291.68 148.33,291.73 147.56,291.89 146.82,291.95 146.07,291.99 144.58,292.06 143.11,292.04 141.63,292 138.68,291.89 135.75,291.68 132.82,291.35 129.89,290.88 127.02,290.57 124.08,290.29 121.16,290.02 118.24,289.78 115.32,289.61 113.85,289.53 112.4,289.47 110.92,289.46 110.15,289.43 109.31,289.22 108.68,288.67 108.04,288.12 107.71,287.33 107.56,286.58 107.29,285.04 107.54,283.53 107.88,282.08 108.24,280.64 108.74,279.23 109.37,277.88 L 109.39,277.85 109.42,277.81 C 110.24,276.85 110.72,275.51 111.18,274.25 111.63,272.97 112.02,271.66 112.38,270.34 113.09,267.71 113.7,265.04 114.28,262.36 L 115.13,258.34 C 115.47,257.02 115.56,255.68 115.59,254.31 115.65,251.58 115.52,248.84 115.41,246.11 115.3,243.37 115.16,240.63 115.13,237.89 115.12,236.52 115.13,235.14 115.27,233.77 115.42,232.39 115.84,231.07 116.25,229.76 117.98,224.55 120.14,219.5 122.34,214.49 L 122.43,214.52 Z M 122.43,214.52" />
        </g>
        <g id="jonnieSide07-group124">
            <path id="jonnieSide07-bezier123" stroke="none" fill="rgb(0, 0, 0)" d="M 138.34,218.23 C 139.28,216.72 139.97,215.06 140.46,213.36 140.94,211.65 141.18,209.88 141.11,208.11 141.04,206.34 140.76,204.58 140.39,202.85 140.01,201.12 139.55,199.39 139,197.72 L 138.98,197.67 138.98,197.63 C 138.94,193.32 138.65,188.99 138.22,184.7 138,182.55 137.73,180.4 137.42,178.27 137.1,176.14 136.8,173.97 136.3,171.93 135.24,167.78 133.63,163.77 131.88,159.83 130.1,155.9 128.18,152.02 126.26,148.14 L 126.35,148.09 C 128.58,151.81 130.74,155.57 132.64,159.48 134.53,163.38 136.27,167.41 137.28,171.69 137.79,173.85 138.01,175.99 138.3,178.15 138.57,180.3 138.79,182.46 138.98,184.63 139.34,188.95 139.56,193.28 139.53,197.63 L 139.52,197.54 C 140.05,199.26 140.49,201 140.83,202.76 141.16,204.52 141.41,206.3 141.44,208.1 141.47,209.9 141.19,211.7 140.66,213.42 140.13,215.13 139.4,216.78 138.42,218.28 L 138.34,218.23 Z M 138.34,218.23" />
        </g>
        <g id="jonnieSide07-group125">
            <path id="jonnieSide07-bezier124" stroke="none" fill="rgb(0, 0, 0)" d="M 124.18,113.38 C 123.77,118.88 123.73,124.41 124.16,129.89 124.38,132.64 124.72,135.37 125.22,138.07 125.73,140.77 126.34,143.47 127.27,146.02 L 127.42,146.42 127,146.41 C 120.01,146.15 113.01,146.18 106.03,146.52 102.52,146.7 99,146.71 95.49,146.59 91.98,146.48 88.48,146.22 84.98,145.8 L 84.48,145.73 84.55,145.24 C 84.95,142.34 85.54,139.46 86.38,136.66 87.2,133.86 88.3,131.13 89.31,128.45 89.73,127.14 89.9,125.68 90.07,124.26 90.22,122.83 90.33,121.38 90.42,119.94 90.59,117.05 90.73,114.15 90.79,111.25 L 90.89,111.25 C 90.97,114.15 91.02,117.06 90.94,119.96 90.9,121.41 90.85,122.87 90.74,124.32 90.61,125.78 90.51,127.23 90.07,128.7 89.09,131.47 88.08,134.15 87.32,136.93 86.55,139.7 85.92,142.52 85.54,145.37 L 85.11,144.81 C 88.56,145.23 92.05,145.48 95.53,145.66 99.02,145.82 102.51,145.87 105.99,145.73 113.01,145.46 120.02,145.51 127.02,145.84 L 126.75,146.23 C 125.81,143.58 125.23,140.88 124.77,138.15 124.31,135.42 124.01,132.67 123.83,129.92 123.47,124.4 123.6,118.87 124.09,113.38 L 124.18,113.38 Z M 124.18,113.38" />
        </g>
        <g id="jonnieSide07-group126">
            <path id="jonnieSide07-bezier125" stroke="none" fill="rgb(0, 0, 0)" d="M 125.17,125.03 C 127.9,127.97 130.69,130.86 133.59,133.64 135.03,135.02 136.5,136.39 138.06,137.62 138.85,138.23 139.63,138.84 140.52,139.14 L 143.34,140.21 C 145.22,140.94 147.09,141.68 148.92,142.57 149.83,143.03 150.74,143.48 151.6,144.19 151.8,144.37 152.03,144.59 152.2,144.85 152.27,144.97 152.33,145.06 152.38,145.13 152.45,145.21 152.53,145.3 152.6,145.38 152.92,145.72 153.28,146.05 153.65,146.38 154.39,147.05 155.18,147.67 155.88,148.49 156.06,148.7 156.23,148.92 156.37,149.2 156.5,149.46 156.6,149.95 156.35,150.31 156.11,150.64 155.82,150.79 155.47,150.87 155.15,150.92 154.84,150.88 154.57,150.81 153.49,150.49 152.68,149.84 151.89,149.2 151.12,148.54 150.4,147.83 149.73,147.08 L 149.79,147.01 C 150.58,147.64 151.35,148.28 152.17,148.84 152.97,149.4 153.84,149.96 154.72,150.13 155.16,150.22 155.53,150.11 155.68,149.89 155.78,149.81 155.56,149.38 155.24,149.06 154.59,148.38 153.78,147.78 153,147.14 152.61,146.81 152.22,146.47 151.85,146.07 151.76,145.97 151.67,145.87 151.58,145.76 151.48,145.63 151.4,145.51 151.33,145.42 151.23,145.25 151.09,145.12 150.92,144.97 150.23,144.39 149.35,143.9 148.48,143.45 146.72,142.53 144.88,141.73 143.04,140.96 L 140.26,139.82 C 139.25,139.43 138.44,138.76 137.65,138.13 136.09,136.83 134.66,135.42 133.24,133.99 130.43,131.11 127.73,128.13 125.1,125.1 L 125.17,125.03 Z M 125.17,125.03" />
        </g>
        <g id="jonnieSide07-group127">
            <path id="jonnieSide07-bezier126" stroke="none" fill="rgb(0, 0, 0)" d="M 127.04,139.56 C 128.69,140.57 130.31,141.64 131.83,142.86 132.59,143.47 133.34,144.11 134.01,144.84 134.35,145.21 134.67,145.6 134.94,146.06 135.21,146.58 135.33,146.98 135.54,147.42 136.33,149.16 137.21,150.88 138.05,152.6 138.47,153.46 138.91,154.31 139.36,155.16 139.83,155.98 140.27,156.85 140.96,157.51 L 140.9,157.59 C 140.01,157.1 139.41,156.28 138.81,155.51 138.22,154.72 137.7,153.89 137.21,153.05 136.22,151.36 135.42,149.59 134.73,147.76 134.55,147.32 134.4,146.78 134.24,146.43 134.05,146.04 133.78,145.66 133.48,145.3 132.89,144.58 132.2,143.91 131.49,143.27 130.06,141.98 128.55,140.77 126.99,139.64 L 127.04,139.56 Z M 127.04,139.56" />
        </g>
        <g id="jonnieSide07-group128">
            <path id="jonnieSide07-bezier127" stroke="none" fill="rgb(0, 0, 0)" d="M 142.83,160.91 C 143.66,160.63 144.47,160.19 145.02,159.57 145.3,159.27 145.49,158.91 145.56,158.54 145.61,158.21 145.6,157.68 145.54,157.34 145.5,157.16 145.42,157.06 145.4,157.08 145.37,157.06 145.17,157.05 144.94,157.03 144.73,157.02 144.32,156.92 144.38,156.96 144.29,156.97 144.13,157.01 143.97,157.09 143.31,157.42 142.56,157.96 142.06,158.64 L 141.96,158.62 C 141.94,158.11 142.18,157.66 142.44,157.27 142.71,156.87 143.04,156.51 143.48,156.22 143.71,156.08 143.97,155.95 144.32,155.92 144.83,155.93 144.84,156.03 145.08,156.05 145.28,156.11 145.54,156.11 145.9,156.34 146.26,156.61 146.31,156.99 146.33,157.24 146.35,157.78 146.32,158.16 146.19,158.7 146.04,159.2 145.73,159.62 145.37,159.93 144.62,160.54 143.74,160.84 142.86,161.01 L 142.83,160.91 Z M 142.83,160.91" />
        </g>
        <g id="jonnieSide07-group129">
            <path id="jonnieSide07-bezier128" stroke="none" fill="rgb(0, 0, 0)" d="M 146.64,160.96 C 146.7,161.16 146.81,161.39 146.98,161.43 147.13,161.48 147.32,161.35 147.47,161.21 147.77,160.91 148.01,160.52 148.23,160.14 148.69,159.37 149.08,158.55 149.27,157.72 149.5,156.91 149.25,156.01 148.91,155.87 148.68,155.75 148.22,155.74 147.82,155.78 147.42,155.84 146.92,155.87 146.64,156.14 L 146.55,156.12 C 146.56,155.81 146.8,155.65 146.98,155.48 147.18,155.32 147.4,155.2 147.63,155.1 148.1,154.91 148.6,154.76 149.24,154.92 150,155.19 150.23,155.87 150.29,156.41 150.32,156.98 150.2,157.48 150.04,157.94 149.71,158.87 149.2,159.67 148.65,160.42 148.35,160.78 148.05,161.15 147.65,161.44 147.46,161.57 147.2,161.74 146.9,161.61 146.63,161.47 146.58,161.2 146.54,160.97 L 146.64,160.96 Z M 146.64,160.96" />
        </g>
        <g id="jonnieSide07-group130">
            <path id="jonnieSide07-bezier129" stroke="none" fill="rgb(0, 0, 0)" d="M 150.24,160.92 C 150.9,160.5 151.44,159.9 151.8,159.23 152.18,158.57 152.38,157.84 152.43,157.09 152.49,156.35 152.32,155.61 152.05,155.15 151.8,154.66 151.12,154.45 150.28,154.43 L 150.25,154.33 C 150.59,154.09 151.01,153.91 151.49,153.91 151.97,153.9 152.51,154.14 152.85,154.54 153.53,155.39 153.37,156.4 153.22,157.2 153.07,158.03 152.73,158.84 152.22,159.51 151.7,160.17 151.03,160.69 150.28,161.01 L 150.24,160.92 Z M 150.24,160.92" />
        </g>
        <g id="jonnieSide07-group131">
            <path id="jonnieSide07-bezier130" stroke="none" fill="rgb(0, 0, 0)" d="M 153.69,159.5 C 154.07,159.54 154.47,159.47 154.77,159.27 155.07,159.07 155.25,158.75 155.34,158.41 155.52,157.73 155.44,156.89 155.43,156.12 155.39,155.36 155.23,154.55 155.01,154.09 154.9,153.88 154.77,153.77 154.42,153.73 154.09,153.72 153.69,153.77 153.28,153.84 L 153.24,153.75 C 153.52,153.44 153.87,153.17 154.33,153.04 154.56,152.96 154.83,152.95 155.12,153.02 155.41,153.11 155.66,153.31 155.83,153.52 156.46,154.45 156.25,155.33 156.23,156.13 156.19,156.54 156.15,156.94 156.1,157.34 156.05,157.74 155.98,158.18 155.81,158.58 155.63,158.98 155.32,159.35 154.91,159.53 154.5,159.71 154.06,159.71 153.66,159.59 L 153.69,159.5 Z M 153.69,159.5" />
        </g>
        <g id="jonnieSide07-group132">
            <path id="jonnieSide07-bezier131" stroke="none" fill="rgb(0, 0, 0)" d="M 149.83,148.35 C 148.66,148.6 147.47,148.74 146.25,148.74 145.65,148.73 145.01,148.77 144.41,148.52 143.84,148.29 143.2,147.9 142.97,147.25 L 143.05,147.18 C 143.63,147.4 144.14,147.47 144.68,147.56 145.22,147.64 145.75,147.85 146.32,147.94 147.46,148.12 148.64,148.21 149.82,148.25 L 149.83,148.35 Z M 149.83,148.35" />
        </g>
        <g id="jonnieSide07-group133">
            <path id="jonnieSide07-bezier132" stroke="none" fill="rgb(0, 0, 0)" d="M 151.06,149.7 C 151.39,150.18 151.74,150.63 152.1,151.05 152.28,151.26 152.54,151.39 152.64,151.63 152.76,151.87 152.85,152.12 152.91,152.51 L 152.85,152.59 C 152.45,152.63 152.13,152.47 151.88,152.28 151.62,152.08 151.54,151.75 151.42,151.47 151.18,150.91 151.03,150.32 150.96,149.73 L 151.06,149.7 Z M 151.06,149.7" />
        </g>
        <g id="jonnieSide07-group134">
            <path id="jonnieSide07-bezier133" stroke="none" fill="rgb(0, 0, 0)" d="M 90.89,168.38 C 90.71,171.01 90.59,173.64 90.51,176.26 90.41,178.89 90.36,181.52 90.37,184.14 90.39,186.77 90.52,189.39 90.57,192.01 90.61,194.63 90.74,197.23 90.89,199.87 L 90.79,199.89 C 90.08,197.33 89.79,194.69 89.57,192.05 89.39,189.41 89.48,186.77 89.57,184.13 89.75,178.86 90.16,173.6 90.79,168.37 L 90.89,168.38 Z M 90.89,168.38" />
        </g>
        <g id="jonnieSide07-group135">
            <path id="jonnieSide07-bezier134" stroke="none" fill="rgb(0, 0, 0)" d="M 90.89,202.04 C 91.01,203.27 90.77,204.55 90.13,205.62 89.49,206.7 88.42,207.48 87.25,207.88 86.07,208.31 84.82,208.36 83.63,208.61 82.42,208.83 81.22,209.09 80.03,209.41 75.29,210.65 70.72,212.63 66.66,215.36 64.62,216.72 62.72,218.29 60.97,220 59.26,221.75 57.53,223.52 55.71,225.18 52.08,228.51 48.22,231.61 44.01,234.21 41.91,235.49 39.71,236.66 37.36,237.5 36.19,237.91 34.98,238.23 33.72,238.36 32.44,238.46 31.24,238.39 30,238.4 28.77,238.39 27.54,238.36 26.35,238.46 25.76,238.53 25.16,238.63 24.72,238.91 24.29,239.18 24.12,239.69 24.1,240.26 24.09,240.83 24.2,241.43 24.27,242.05 L 24.51,243.87 24.99,247.53 C 25.3,249.97 25.6,252.42 25.83,254.87 25.94,256.1 26.04,257.33 26.05,258.58 26.06,258.89 26.05,259.22 26.03,259.53 26.01,259.82 26.02,260.1 26.05,260.4 26.1,260.98 26.21,261.58 26.35,262.16 26.93,264.5 27.84,266.8 29.08,268.86 29.39,269.37 29.73,269.86 30.12,270.31 30.49,270.74 30.93,271.15 31.39,271.33 31.5,271.37 31.61,271.4 31.72,271.4 31.83,271.41 32.02,271.4 32.15,271.39 32.44,271.38 32.73,271.36 32.95,271.29 33.19,271.2 33.26,271.14 33.31,270.94 33.37,270.74 33.36,270.45 33.33,270.16 33.23,268.96 32.97,267.77 32.99,266.45 33.03,265.18 33.22,263.94 33.46,262.72 33.97,260.28 34.72,257.9 35.69,255.61 36.67,253.32 37.87,251.12 39.37,249.11 40.84,247.1 42.69,245.3 44.74,243.89 48.79,241.02 53.13,238.62 57.55,236.43 61.96,234.26 66.55,232.27 71.2,230.76 73.45,229.88 75.64,228.75 77.84,227.66 80.04,226.56 82.24,225.46 84.5,224.44 86.75,223.43 89.05,222.49 91.46,221.85 92.66,221.52 93.94,221.35 95.14,221.23 96.36,221.08 97.57,220.92 98.74,220.62 101.08,220.06 103.17,218.71 104.68,216.82 106.21,214.94 107.29,212.72 108.18,210.45 109.97,205.89 111.05,201.07 111.96,196.24 L 112.06,196.26 C 111.26,201.11 110.3,205.96 108.61,210.61 107.74,212.93 106.67,215.2 105.11,217.17 104.33,218.14 103.41,219.03 102.35,219.72 101.29,220.42 100.11,220.92 98.9,221.24 97.69,221.57 96.45,221.75 95.23,221.91 94,222.05 92.82,222.22 91.65,222.56 89.32,223.21 87.06,224.16 84.84,225.19 82.62,226.22 80.44,227.35 78.25,228.47 76.06,229.59 73.89,230.75 71.57,231.69 66.86,233.22 62.4,235.16 57.99,237.32 53.6,239.49 49.3,241.87 45.32,244.7 41.27,247.38 38.44,251.52 36.52,255.96 35.55,258.19 34.8,260.52 34.3,262.89 34.05,264.08 33.86,265.28 33.82,266.47 33.78,267.62 34.03,268.85 34.13,270.1 34.15,270.42 34.18,270.75 34.08,271.15 34.03,271.35 33.92,271.57 33.75,271.73 33.57,271.89 33.37,271.98 33.19,272.04 32.83,272.15 32.5,272.17 32.17,272.18 32,272.19 31.88,272.19 31.68,272.18 31.48,272.17 31.29,272.13 31.11,272.06 30.42,271.78 29.95,271.29 29.53,270.81 29.11,270.32 28.76,269.79 28.43,269.26 27.15,267.09 26.24,264.76 25.65,262.33 25.51,261.71 25.39,261.09 25.34,260.46 25.31,260.14 25.3,259.81 25.32,259.49 25.34,259.18 25.35,258.89 25.35,258.58 25.34,257.38 25.25,256.15 25.15,254.93 24.93,252.49 24.64,250.05 24.34,247.61 L 23.88,243.96 23.65,242.12 C 23.58,241.52 23.47,240.91 23.49,240.24 23.51,239.91 23.55,239.56 23.69,239.23 23.83,238.89 24.09,238.6 24.39,238.4 25.01,238.02 25.67,237.94 26.29,237.87 27.55,237.77 28.78,237.81 30.01,237.82 31.23,237.82 32.49,237.9 33.66,237.8 34.86,237.69 36.04,237.38 37.18,236.99 39.48,236.19 41.66,235.04 43.75,233.78 47.93,231.23 51.8,228.17 55.44,224.88 57.27,223.24 58.99,221.5 60.72,219.74 62.5,218.03 64.42,216.47 66.49,215.11 70.61,212.39 75.21,210.43 79.98,209.21 81.17,208.91 82.38,208.65 83.59,208.43 84.8,208.19 86.05,208.15 87.2,207.74 88.34,207.35 89.39,206.61 90.02,205.56 90.65,204.52 90.9,203.26 90.79,202.05 L 90.89,202.04 Z M 90.89,202.04" />
        </g>
        <g id="jonnieSide07-group193">
            <path id="jonnieSide07-bezier192" stroke="none" fill="rgb(0, 0, 0)" d="M 40.81,236.56 C 41.5,237.75 42.1,238.98 42.58,240.29 42.81,240.94 43.1,241.6 43.13,242.32 43.16,243.03 43.09,243.81 42.64,244.43 L 42.55,244.4 C 42.45,243.7 42.29,243.1 42.14,242.46 41.98,241.84 41.95,241.17 41.81,240.51 41.52,239.21 41.14,237.9 40.72,236.61 L 40.81,236.56 Z M 40.81,236.56" />
        </g>
        <g id="jonnieSide07-group194">
            <path id="jonnieSide07-bezier193" stroke="none" fill="rgb(0, 0, 0)" d="M 113.34,270.28 C 114.76,270.11 116.19,270.01 117.63,269.99 118.35,269.99 119.08,269.91 119.8,270.07 120.51,270.21 121.22,270.43 121.86,270.87 L 121.83,270.97 C 121.08,271.07 120.39,271.07 119.68,271.06 118.98,271.06 118.29,270.87 117.59,270.79 116.19,270.63 114.77,270.49 113.35,270.38 L 113.34,270.28 Z M 113.34,270.28" />
        </g>
        <g id="jonnieSide07-group198">
            <path id="jonnieSide07-bezier197" stroke="none" fill="rgb(0, 0, 0)" d="M 99.79,49.04 C 101.17,49.99 102.58,50.88 104.02,51.72 105.46,52.58 106.92,53.38 108.42,54.08 109.92,54.78 111.47,55.35 113.01,55.84 114.54,56.29 116.18,56.7 117.69,55.96 L 117.75,56.04 C 117.15,56.68 116.23,56.98 115.36,57.04 114.47,57.12 113.59,56.99 112.75,56.8 111.06,56.41 109.53,55.61 108.06,54.8 105.09,53.17 102.34,51.24 99.73,49.12 L 99.79,49.04 Z M 99.79,49.04" />
        </g>
        <g id="jonnieSide07-group203">
            <path id="jonnieSide07-bezier202" stroke="none" fill="rgb(0, 0, 0)" d="M 85.97,81.39 C 86.92,82.45 88.03,83.35 89.18,84.17 90.33,85.01 91.54,85.74 92.79,86.4 94.05,87.04 95.37,87.55 96.65,88.14 97.93,88.74 99.23,89.3 100.53,89.95 L 100.5,90.05 C 99.05,89.92 97.63,89.55 96.27,89.07 94.9,88.59 93.63,87.85 92.4,87.09 91.17,86.33 89.98,85.5 88.88,84.57 87.78,83.62 86.75,82.61 85.89,81.45 L 85.97,81.39 Z M 85.97,81.39" />
        </g>
    </g>
</svg>
