<?xml version="1.0" encoding="UTF-8"?>
<!DOCTYPE svg PUBLIC "-//W3C//DTD SVG 1.1//EN" "http://www.w3.org/Graphics/SVG/1.1/DTD/svg11.dtd">
<svg version="1.1" xmlns="http://www.w3.org/2000/svg" xmlns:xlink="http://www.w3.org/1999/xlink" width="180" height="100"  xml:space="preserve" id="jonnieTop08">
    <!-- Generated by PaintCode - http://www.paintcodeapp.com -->
    <g id="jonnieTop08-group">
        <g id="jonnieTop08-group246">
            <g id="jonnieTop08-group247">
                <path id="jonnieTop08-bezier244" stroke="none" fill="rgb(0, 0, 0)" d="M 44.17,52.37 C 44.83,52.65 45.56,52.6 46.26,52.56 46.96,52.49 47.66,52.38 48.37,52.25 L 52.59,51.46 C 54,51.2 55.42,50.91 56.88,50.87 58.32,50.83 59.79,50.91 61.2,51.26 L 61.2,51.36 C 59.76,51.56 58.35,51.69 56.95,51.86 55.54,52.03 54.12,52.1 52.7,52.25 L 48.43,52.74 C 47.71,52.81 46.99,52.86 46.27,52.85 45.55,52.84 44.79,52.81 44.13,52.47 L 44.17,52.37 Z M 44.17,52.37" />
            </g>
            <g id="jonnieTop08-group248">
                <path id="jonnieTop08-bezier245" stroke="none" fill="rgb(0, 0, 0)" d="M 44.4,62.27 C 43.95,60.96 43.7,59.57 43.58,58.18 43.53,57.49 43.42,56.78 43.54,56.08 43.66,55.39 43.85,54.69 44.25,54.07 L 44.35,54.09 C 44.49,54.81 44.52,55.48 44.54,56.15 44.56,56.83 44.41,57.49 44.38,58.17 44.32,59.52 44.33,60.88 44.5,62.24 L 44.4,62.27 Z M 44.4,62.27" />
            </g>
            <g id="jonnieTop08-group249">
                <path id="jonnieTop08-bezier246" stroke="none" fill="rgb(0, 0, 0)" d="M 60.49,67.8 C 57.79,66.93 55.08,66.09 52.36,65.31 50.99,64.94 49.61,64.64 48.27,64.24 46.92,63.87 45.6,63.37 44.21,63.25 L 44.19,63.15 C 44.89,62.9 45.65,62.93 46.37,62.97 47.1,63.01 47.81,63.13 48.51,63.27 49.92,63.56 51.26,64.07 52.6,64.55 55.29,65.5 57.92,66.56 60.52,67.71 L 60.49,67.8 Z M 60.49,67.8" />
            </g>
            <g id="jonnieTop08-group250">
                <path id="jonnieTop08-bezier247" stroke="none" fill="rgb(0, 0, 0)" d="M 44.21,61.64 C 43.3,61.67 42.4,61.75 41.52,61.84 41.07,61.89 40.63,62.03 40.19,61.98 39.75,61.94 39.3,61.87 38.82,61.64 L 38.81,61.54 C 39.23,61.22 39.68,61.07 40.13,60.98 40.59,60.88 41.06,61 41.51,61.04 42.43,61.13 43.34,61.28 44.22,61.54 L 44.21,61.64 Z M 44.21,61.64" />
            </g>
            <g id="jonnieTop08-group251">
                <path id="jonnieTop08-bezier248" stroke="none" fill="rgb(0, 0, 0)" d="M 44.22,53.64 C 43.33,53.86 42.43,54.02 41.52,54.13 41.07,54.18 40.6,54.31 40.14,54.22 39.68,54.14 39.21,54 38.81,53.64 L 38.83,53.54 C 39.31,53.36 39.74,53.27 40.18,53.22 40.62,53.17 41.06,53.3 41.51,53.33 L 44.21,53.54 44.22,53.64 Z M 44.22,53.64" />
            </g>
            <g id="jonnieTop08-group252">
                <path id="jonnieTop08-bezier249" stroke="none" fill="rgb(0, 0, 0)" d="M 43.09,51.27 C 40.88,51.17 38.59,51.32 36.57,52.13 35.57,52.53 34.66,53.18 34.23,54.1 34.01,54.57 33.93,55.05 33.92,55.6 33.9,56.15 33.91,56.68 33.95,57.22 34.13,59.37 35.08,61.42 36.83,62.5 38.57,63.63 40.87,63.67 43.08,63.54 L 43.1,63.64 C 40.99,64.32 38.5,64.52 36.32,63.36 35.25,62.76 34.4,61.79 33.91,60.7 33.41,59.6 33.2,58.43 33.16,57.28 33.13,56.7 33.15,56.12 33.2,55.55 33.23,54.99 33.36,54.35 33.65,53.81 34.23,52.71 35.32,52.04 36.39,51.66 38.58,50.93 40.88,50.94 43.1,51.17 L 43.09,51.27 Z M 43.09,51.27" />
            </g>
        </g>
        <g id="jonnieTop08-group416">
            <path id="jonnieTop08-bezier413" stroke="none" fill="rgb(0, 0, 0)" d="M 49.51,15.93 C 48.18,16.65 46.8,17.21 45.41,17.77 44,18.31 42.59,18.81 41.1,19.17 40.35,19.34 39.61,19.52 38.74,19.48 38.64,19.47 38.52,19.45 38.4,19.43 L 38.14,19.37 37.61,19.27 C 37.25,19.2 36.9,19.14 36.54,19.1 35.84,18.99 35.12,18.94 34.43,18.99 33.75,19.05 33.03,19.22 32.69,19.9 L 32.59,19.87 C 32.62,19.47 32.87,19.09 33.19,18.83 33.53,18.57 33.91,18.41 34.3,18.3 35.08,18.08 35.87,18.07 36.64,18.11 37.03,18.14 37.42,18.19 37.8,18.25 38.15,18.31 38.62,18.46 38.85,18.49 39.48,18.58 40.23,18.49 40.94,18.38 42.38,18.13 43.82,17.74 45.24,17.3 46.66,16.87 48.1,16.43 49.46,15.84 L 49.51,15.93 Z M 49.51,15.93" />
        </g>
        <g id="jonnieTop08-group417">
            <path id="jonnieTop08-bezier414" stroke="none" fill="rgb(0, 0, 0)" d="M 41.37,22.62 C 40.81,23.32 40.06,23.9 39.11,24.17 38.65,24.29 38.11,24.41 37.63,24.21 37.15,24.02 36.75,23.68 36.55,23.2 L 36.61,23.12 C 37.12,23.15 37.5,23.22 37.88,23.24 38.23,23.26 38.58,23.4 38.98,23.38 39.75,23.33 40.58,23.02 41.3,22.55 L 41.37,22.62 Z M 41.37,22.62" />
        </g>
        <g id="jonnieTop08-group418">
            <path id="jonnieTop08-bezier415" stroke="none" fill="rgb(0, 0, 0)" d="M 39.1,22.4 C 41.31,22.45 43.52,22.47 45.71,22.47 46.81,22.46 47.91,22.35 48.99,22.4 50.08,22.43 51.16,22.54 52.26,22.49 L 52.3,22.59 C 51.28,23.19 50.11,23.3 49.01,23.4 47.9,23.5 46.79,23.35 45.68,23.26 43.48,23.1 41.28,22.84 39.09,22.5 L 39.1,22.4 Z M 39.1,22.4" />
        </g>
        <g id="jonnieTop08-group419">
            <path id="jonnieTop08-bezier416" stroke="none" fill="rgb(0, 0, 0)" d="M 71.05,41.88 C 71.04,37.46 72.9,33.09 76.05,29.97 79.18,26.83 83.59,24.99 88.06,24.97 92.53,24.92 97.01,26.68 100.23,29.82 103.48,32.92 105.42,37.36 105.42,41.89 105.48,46.4 103.59,50.91 100.35,54.08 97.11,57.26 92.6,59.07 88.06,59.05 85.81,59.02 83.54,58.56 81.46,57.69 79.39,56.81 77.5,55.51 75.94,53.91 72.8,50.73 70.99,46.31 71.05,41.88 Z M 71.15,41.88 C 71.18,44.08 71.65,46.26 72.53,48.26 73.42,50.26 74.73,52.05 76.31,53.53 79.49,56.48 83.78,58.12 88.07,58.05 92.34,58.07 96.6,56.36 99.66,53.37 102.76,50.42 104.62,46.2 104.62,41.88 104.67,37.58 102.87,33.3 99.78,30.28 96.71,27.23 92.41,25.47 88.06,25.47 83.72,25.4 79.36,27.09 76.2,30.12 74.62,31.64 73.33,33.46 72.46,35.48 71.6,37.5 71.15,39.69 71.15,41.88 Z M 71.15,41.88" />
        </g>
        <g id="jonnieTop08-group420">
            <path id="jonnieTop08-bezier417" stroke="none" fill="rgb(0, 0, 0)" d="M 105.49,39.8 C 106.06,39.92 106.61,40.11 107.15,40.38 107.65,40.68 108.23,41.09 108.41,41.87 108.48,42.23 108.41,42.69 108.19,43.02 107.96,43.35 107.66,43.57 107.34,43.69 106.72,43.91 106.09,43.93 105.48,43.72 L 105.47,43.62 C 105.99,43.29 106.5,43.06 106.9,42.79 107.29,42.51 107.6,42.37 107.61,41.97 107.62,41.58 107.28,41.13 106.87,40.8 106.46,40.44 105.97,40.14 105.46,39.89 L 105.49,39.8 Z M 105.49,39.8" />
        </g>
        <g id="jonnieTop08-group421">
            <path id="jonnieTop08-bezier418" stroke="none" fill="rgb(0, 0, 0)" d="M 71.31,57.29 C 72.23,60.39 73.16,63.49 74.04,66.61 74.49,68.15 74.84,69.75 75.42,71.24 76.03,72.73 76.43,74.26 76.66,75.91 L 76.57,75.95 C 75.52,74.63 74.87,73.1 74.57,71.49 74.23,69.88 73.88,68.32 73.49,66.75 L 71.21,57.32 71.31,57.29 Z M 71.31,57.29" />
        </g>
        <g id="jonnieTop08-group422">
            <path id="jonnieTop08-bezier419" stroke="none" fill="rgb(0, 0, 0)" d="M 95.74,71.45 C 97.21,70.7 98.4,69.47 99.25,68.09 100.11,66.7 100.63,65.13 100.87,63.52 101.1,61.91 101.01,60.28 100.92,58.66 100.84,57.02 100.62,55.39 100.45,53.71 L 100.54,53.69 C 101.24,55.23 101.69,56.88 101.92,58.56 102.14,60.26 102.01,61.99 101.65,63.67 101.3,65.34 100.66,66.97 99.66,68.37 98.66,69.74 97.34,70.9 95.77,71.55 L 95.74,71.45 Z M 95.74,71.45" />
        </g>
        <g id="jonnieTop08-group423">
            <path id="jonnieTop08-bezier420" stroke="none" fill="rgb(0, 0, 0)" d="M 60.79,21.3 C 61.24,23.56 61.79,25.8 62.74,27.83 63.22,28.85 63.86,29.75 64.49,30.64 65.12,31.54 65.86,32.34 66.72,33.14 L 66.67,33.23 C 65.52,32.9 64.51,32.16 63.71,31.27 62.89,30.37 62.42,29.24 62,28.14 61.17,25.93 60.86,23.61 60.69,21.32 L 60.79,21.3 Z M 60.79,21.3" />
        </g>
        <g id="jonnieTop08-group424">
            <path id="jonnieTop08-bezier421" stroke="none" fill="rgb(0, 0, 0)" d="M 100.32,25.34 L 96.94,20.26 C 95.83,18.56 94.72,16.85 93.45,15.31 92.17,13.76 90.63,12.54 88.83,11.85 87.03,11.13 85.01,10.91 82.98,10.63 L 82.98,10.53 C 85.01,10.27 87.12,10.26 89.17,10.91 90.19,11.25 91.15,11.79 91.96,12.48 92.77,13.18 93.46,13.98 94.07,14.81 95.31,16.47 96.34,18.24 97.37,19.99 L 100.41,25.29 100.32,25.34 Z M 100.32,25.34" />
        </g>
        <g id="jonnieTop08-group425">
            <path id="jonnieTop08-bezier422" stroke="none" fill="rgb(0, 0, 0)" d="M 77.15,78.93 C 77.58,79.92 78.25,80.79 78.97,81.59 79.68,82.39 80.47,83.11 81.32,83.77 82.16,84.43 83.1,84.94 83.96,85.58 84.83,86.21 85.72,86.82 86.57,87.55 L 86.53,87.64 C 85.43,87.41 84.4,86.96 83.43,86.42 82.45,85.89 81.61,85.13 80.8,84.38 79.99,83.62 79.24,82.79 78.58,81.9 77.94,80.99 77.37,80.03 77.05,78.96 L 77.15,78.93 Z M 77.15,78.93" />
        </g>
        <g id="jonnieTop08-group426">
            <path id="jonnieTop08-bezier423" stroke="none" fill="rgb(0, 0, 0)" d="M 89.14,87.51 C 91.29,88.91 93.93,89.35 96.46,89.43 99.03,89.51 101.55,89.09 104.07,88.54 109.12,87.54 114.2,86.65 119.3,85.92 124.41,85.21 129.54,84.49 134.75,84.62 136.07,84.66 137.35,84.85 138.61,84.9 139.87,84.96 141.14,84.92 142.4,84.8 143.65,84.66 144.91,84.41 146.04,83.88 146.6,83.61 147.13,83.27 147.51,82.8 147.9,82.32 148.08,81.69 147.95,81.06 L 148.05,81.04 C 148.26,81.67 148.14,82.41 147.75,82.97 147.37,83.53 146.82,83.95 146.25,84.28 145.08,84.93 143.79,85.26 142.5,85.49 141.2,85.71 139.89,85.76 138.59,85.76 137.26,85.76 135.99,85.61 134.73,85.62 129.64,85.62 124.51,86.11 119.41,86.71 114.31,87.34 109.22,88.13 104.16,89.03 101.64,89.51 99.04,89.88 96.45,89.73 93.88,89.58 91.23,89.07 89.07,87.59 L 89.14,87.51 Z M 89.14,87.51" />
        </g>
        <g id="jonnieTop08-group427">
            <path id="jonnieTop08-bezier424" stroke="none" fill="rgb(0, 0, 0)" d="M 138.16,77.34 C 139.34,77.66 140.54,77.91 141.74,78.03 142.34,78.09 142.95,78.11 143.54,78.03 144.11,77.95 144.73,77.7 144.77,77.13 144.84,76.61 144.32,76.18 143.83,75.89 143.33,75.58 142.77,75.35 142.21,75.12 141.64,74.88 141.07,74.67 140.51,74.41 140.23,74.28 139.94,74.15 139.67,73.98 139.54,73.9 139.37,73.76 139.29,73.71 139.21,73.65 139.19,73.67 139.16,73.65 139.11,73.65 139.07,73.63 139.01,73.64 138.54,73.7 138,74.08 137.5,74.4 L 135.98,75.42 C 134.95,76.09 133.87,76.71 132.72,77.2 130.44,78.19 127.92,78.63 125.45,78.62 120.52,78.6 115.66,78.19 110.79,77.78 108.37,77.54 105.94,77.35 103.51,77.19 101.08,77.04 98.64,76.9 96.21,77.08 L 96.2,76.98 C 98.62,76.52 101.09,76.49 103.53,76.49 105.98,76.51 108.43,76.65 110.87,76.78 115.75,77.06 120.61,77.7 125.45,77.82 127.86,77.88 130.25,77.51 132.47,76.6 133.59,76.15 134.65,75.57 135.67,74.94 L 137.21,73.95 C 137.75,73.64 138.23,73.24 138.98,73.14 139.08,73.13 139.18,73.15 139.28,73.17 139.4,73.2 139.52,73.26 139.56,73.3 139.73,73.43 139.79,73.49 139.93,73.57 140.17,73.73 140.43,73.87 140.7,74 141.24,74.26 141.8,74.5 142.36,74.74 142.92,74.99 143.49,75.25 144.02,75.59 144.28,75.76 144.54,75.96 144.76,76.21 144.97,76.46 145.13,76.81 145.07,77.18 145.06,77.28 145.03,77.34 145.01,77.42 144.96,77.52 144.94,77.59 144.88,77.66 144.78,77.81 144.64,77.92 144.49,78 144.2,78.17 143.88,78.24 143.57,78.28 142.95,78.35 142.33,78.3 141.72,78.23 140.5,78.07 139.31,77.78 138.13,77.43 L 138.16,77.34 Z M 138.16,77.34" />
        </g>
        <g id="jonnieTop08-group428">
            <path id="jonnieTop08-bezier425" stroke="none" fill="rgb(0, 0, 0)" d="M 95.6,81.06 C 95.14,79.45 94.68,77.85 94.2,76.26 93.96,75.47 93.63,74.7 93.46,73.91 L 93.19,72.72 C 93.14,72.53 93.09,72.33 93.03,72.16 93.01,72.07 92.97,71.99 92.94,71.95 92.93,71.9 92.87,71.89 92.78,71.96 L 92.69,71.9 C 92.7,71.8 92.85,71.62 93.05,71.68 93.21,71.73 93.31,71.82 93.4,71.9 93.58,72.07 93.71,72.25 93.83,72.44 94.07,72.82 94.25,73.21 94.41,73.6 94.73,74.4 94.82,75.25 94.98,76.07 95.29,77.72 95.52,79.38 95.7,81.04 L 95.6,81.06 Z M 95.6,81.06" />
        </g>
        <g id="jonnieTop08-group429">
            <path id="jonnieTop08-bezier426" stroke="none" fill="rgb(0, 0, 0)" d="M 113.71,34.29 C 114.93,33.12 115.54,31.42 115.33,29.86 115.23,29.06 114.89,28.34 114.62,27.59 114.35,26.83 114,26.09 113.7,25.25 L 113.78,25.19 C 114.52,25.69 115.1,26.38 115.53,27.17 115.98,27.96 116.12,28.9 116.13,29.81 116.14,30.72 115.92,31.63 115.51,32.42 115.08,33.2 114.49,33.88 113.77,34.36 L 113.71,34.29 Z M 113.71,34.29" />
        </g>
        <g id="jonnieTop08-group430">
            <path id="jonnieTop08-bezier427" stroke="none" fill="rgb(0, 0, 0)" d="M 113.72,24.22 C 110.79,23.44 107.86,22.65 104.94,21.85 103.47,21.46 101.99,21.12 100.56,20.62 99.13,20.11 97.71,19.57 96.34,18.88 L 96.37,18.78 C 97.9,18.95 99.38,19.29 100.85,19.66 102.32,20.04 103.74,20.59 105.17,21.09 108.04,22.06 110.91,23.07 113.75,24.12 L 113.72,24.22 Z M 113.72,24.22" />
        </g>
        <g id="jonnieTop08-group431">
            <path id="jonnieTop08-bezier428" stroke="none" fill="rgb(0, 0, 0)" d="M 113.16,35.1 C 111.86,35.57 110.51,35.85 109.14,36.03 108.46,36.12 107.78,36.28 107.09,36.21 106.4,36.15 105.71,36.03 105.04,35.72 L 105.05,35.62 C 105.74,35.38 106.41,35.28 107.08,35.21 107.74,35.13 108.42,35.24 109.09,35.23 109.76,35.24 110.43,35.22 111.11,35.18 111.78,35.15 112.46,35.11 113.13,35.01 L 113.16,35.1 Z M 113.16,35.1" />
        </g>
        <g id="jonnieTop08-group432">
            <path id="jonnieTop08-bezier429" stroke="none" fill="rgb(0, 0, 0)" d="M 117.23,35.1 C 118.23,35.01 119.23,34.88 120.22,34.77 121.2,34.67 122.19,34.47 123.09,34.25 123.52,34.16 124.05,34.04 123.98,33.98 124,33.52 123.96,33.05 123.75,32.71 123.55,32.37 123.11,32.18 122.64,32.06 122.17,31.94 121.67,31.89 121.18,31.82 L 121.18,31.72 C 121.68,31.68 122.19,31.66 122.7,31.71 123.2,31.75 123.8,31.89 124.2,32.38 124.59,32.86 124.67,33.45 124.71,33.97 L 124.71,34.06 C 124.71,34.14 124.72,34.21 124.7,34.27 124.67,34.41 124.6,34.52 124.53,34.6 124.4,34.77 124.26,34.86 124.12,34.94 123.85,35.1 123.59,35.19 123.33,35.26 122.8,35.38 122.28,35.38 121.77,35.39 121.26,35.4 120.75,35.4 120.25,35.39 119.24,35.38 118.24,35.28 117.24,35.2 L 117.23,35.1 Z M 117.23,35.1" />
        </g>
        <g id="jonnieTop08-group433">
            <path id="jonnieTop08-bezier430" stroke="none" fill="rgb(0, 0, 0)" d="M 123.3,29.73 C 123.08,28.94 122.76,28.18 122.37,27.48 121.99,26.77 121.52,26.11 120.97,25.56 120.42,25.01 119.75,24.66 119.11,24.31 118.45,23.94 117.72,23.72 116.9,23.46 L 116.9,23.36 C 117.71,23.07 118.65,23.08 119.5,23.39 120.38,23.67 121.03,24.36 121.57,25.03 122.65,26.41 123.2,28.06 123.39,29.71 L 123.3,29.73 Z M 123.3,29.73" />
        </g>
        <g id="jonnieTop08-group434">
            <path id="jonnieTop08-bezier431" stroke="none" fill="rgb(0, 0, 0)" d="M 73.38,72.69 C 70.74,72.19 68.11,71.51 65.59,70.46 64.33,69.94 63.06,69.37 61.98,68.46 60.94,67.57 59.98,66.31 59.89,64.89 L 59.99,64.87 C 60.6,66.08 61.55,66.93 62.6,67.67 63.65,68.4 64.75,69.13 65.93,69.74 68.3,70.92 70.84,71.81 73.41,72.59 L 73.38,72.69 Z M 73.38,72.69" />
        </g>
        <g id="jonnieTop08-group435">
            <path id="jonnieTop08-bezier432" stroke="none" fill="rgb(0, 0, 0)" d="M 81.57,10.63 C 79.16,10.69 76.76,10.9 74.38,11.23 72,11.54 69.64,11.99 67.36,12.67 65.09,13.38 62.89,14.34 61.1,15.76 60.2,16.46 59.48,17.36 59.05,18.41 58.62,19.46 58.55,20.66 58.69,21.85 L 58.59,21.87 C 58.17,20.73 58.05,19.43 58.39,18.19 58.72,16.94 59.53,15.86 60.45,15 62.38,13.3 64.8,12.52 67.14,11.9 69.51,11.3 71.92,10.95 74.33,10.73 76.74,10.53 79.15,10.46 81.57,10.53 L 81.57,10.63 Z M 81.57,10.63" />
        </g>
        <g id="jonnieTop08-group436">
            <path id="jonnieTop08-bezier433" stroke="none" fill="rgb(0, 0, 0)" d="M 72.87,69.9 C 68.71,69 65.1,66.15 62.88,62.51 61.77,60.69 60.99,58.66 60.54,56.57 60.1,54.46 60.02,52.34 59.84,50.24 59.54,46.03 59.32,41.8 59.52,37.57 59.64,35.45 59.8,33.34 60.13,31.24 60.47,29.15 60.89,27.04 61.78,25.11 L 61.88,25.14 C 61.26,27.15 61.01,29.24 60.82,31.32 60.64,33.41 60.54,35.5 60.52,37.6 60.45,41.79 60.45,46 60.64,50.2 60.77,52.29 60.8,54.41 61.18,56.44 61.57,58.48 62.27,60.46 63.31,62.26 65.36,65.86 68.8,68.77 72.89,69.8 L 72.87,69.9 Z M 72.87,69.9" />
        </g>
        <g id="jonnieTop08-group437">
            <path id="jonnieTop08-bezier434" stroke="none" fill="rgb(0, 0, 0)" d="M 65.54,33.18 C 65.62,38.3 66.03,43.42 66.92,48.44 67.37,50.95 68.02,53.41 68.66,55.86 69.29,58.32 70.1,60.72 70.98,63.14 L 70.89,63.18 C 69.49,61.01 68.51,58.59 67.7,56.14 66.91,53.67 66.48,51.11 66.13,48.56 65.4,43.46 65.23,38.31 65.44,33.18 L 65.54,33.18 Z M 65.54,33.18" />
        </g>
        <g id="jonnieTop08-group438">
            <path id="jonnieTop08-bezier435" stroke="none" fill="rgb(0, 0, 0)" d="M 93.88,77.12 C 92.7,78.03 91.26,78.55 89.82,78.9 88.36,79.23 86.85,79.34 85.36,79.32 83.87,79.29 82.36,79.18 80.91,78.79 79.47,78.4 78.07,77.87 76.77,77.12 L 76.8,77.03 C 78.28,77.26 79.7,77.57 81.13,77.81 82.55,78.06 83.96,78.39 85.4,78.52 86.84,78.64 88.29,78.63 89.72,78.41 91.14,78.2 92.59,77.82 93.82,77.04 L 93.88,77.12 Z M 93.88,77.12" />
        </g>
        <g id="jonnieTop08-group439">
            <path id="jonnieTop08-bezier436" stroke="none" fill="rgb(0, 0, 0)" d="M 59.92,14.11 C 58.32,14.66 56.74,15.23 55.19,15.87 54.42,16.18 53.7,16.6 52.94,16.89 52.19,17.21 51.39,17.41 50.8,17.97 L 50.71,17.93 C 50.76,17.45 51.1,17.06 51.42,16.76 51.75,16.45 52.12,16.21 52.5,15.99 53.26,15.54 54.11,15.35 54.93,15.11 56.57,14.64 58.22,14.28 59.9,14.01 L 59.92,14.11 Z M 59.92,14.11" />
        </g>
        <g id="jonnieTop08-group440">
            <path id="jonnieTop08-bezier437" stroke="none" fill="rgb(0, 0, 0)" d="M 58.43,23.49 C 57.09,23.58 55.74,23.58 54.39,23.45 53.72,23.39 53.02,23.38 52.36,23.11 51.74,22.84 51.01,22.47 50.72,21.75 L 50.79,21.69 C 51.42,21.95 52.02,22.01 52.65,22.15 53.27,22.26 53.88,22.51 54.52,22.66 55.8,22.96 57.11,23.19 58.43,23.39 L 58.43,23.49 Z M 58.43,23.49" />
        </g>
        <g id="jonnieTop08-group441">
            <path id="jonnieTop08-bezier438" stroke="none" fill="rgb(0, 0, 0)" d="M 49.91,18.48 C 49.55,18.89 49.29,19.43 49.38,19.76 49.43,19.94 49.6,20.01 49.66,20.21 49.73,20.4 49.84,20.64 49.91,21.02 L 49.85,21.1 C 49.47,21.17 49.14,21.06 48.87,20.82 48.59,20.59 48.52,20.12 48.58,19.75 48.65,19.36 48.86,19.06 49.08,18.85 49.32,18.64 49.58,18.5 49.85,18.4 L 49.91,18.48 Z M 49.91,18.48" />
        </g>
        <path id="jonnieTop08-bezier439" stroke="rgb(0, 0, 0)" stroke-width="1" stroke-miterlimit="10" fill="none" d="M 37.53,21.31 C 37.53,21.31 33.78,20.79 33.53,21.86" />
    </g>
</svg>
