<?xml version="1.0" encoding="UTF-8"?>
<!DOCTYPE svg PUBLIC "-//W3C//DTD SVG 1.1//EN" "http://www.w3.org/Graphics/SVG/1.1/DTD/svg11.dtd">
<svg version="1.1" xmlns="http://www.w3.org/2000/svg" xmlns:xlink="http://www.w3.org/1999/xlink" width="180" height="100"  xml:space="preserve" id="jonnieTop06">
    <!-- Generated by PaintCode - http://www.paintcodeapp.com -->
    <g id="jonnieTop06-group">
        <g id="jonnieTop06-group253">
            <g id="jonnieTop06-group254">
                <path id="jonnieTop06-bezier250" stroke="none" fill="rgb(0, 0, 0)" d="M 24.94,45.56 C 25.87,45.21 26.87,45.19 27.84,45.18 28.82,45.17 29.79,45.23 30.76,45.29 L 36.55,45.78 C 38.48,45.94 40.41,46 42.33,46.17 L 48.11,46.67 48.11,46.77 C 46.18,47.12 44.22,47.2 42.27,47.17 40.32,47.13 38.39,46.84 36.46,46.58 L 30.71,45.79 C 29.75,45.66 28.79,45.54 27.83,45.48 26.87,45.43 25.89,45.38 24.97,45.66 L 24.94,45.56 Z M 24.94,45.56" />
            </g>
            <g id="jonnieTop06-group255">
                <path id="jonnieTop06-bezier251" stroke="none" fill="rgb(0, 0, 0)" d="M 25.41,35.79 C 25.13,37.15 25.07,38.51 25.13,39.86 25.15,40.54 25.31,41.2 25.3,41.87 25.3,42.54 25.29,43.21 25.2,43.94 L 25.1,43.97 C 24.66,43.36 24.44,42.66 24.3,41.97 24.16,41.26 24.27,40.54 24.33,39.84 24.45,38.44 24.76,37.04 25.31,35.76 L 25.41,35.79 Z M 25.41,35.79" />
            </g>
            <g id="jonnieTop06-group256">
                <path id="jonnieTop06-bezier252" stroke="none" fill="rgb(0, 0, 0)" d="M 47.18,30.33 C 43.58,31.49 39.95,32.56 36.28,33.51 34.45,33.99 32.62,34.5 30.73,34.78 29.79,34.92 28.84,35.04 27.88,35.07 26.93,35.11 25.95,35.13 25.01,34.88 L 25.02,34.78 C 26.9,34.66 28.71,34.17 30.55,33.8 32.39,33.4 34.25,33.1 36.1,32.73 39.79,31.95 43.47,31.11 47.15,30.23 L 47.18,30.33 Z M 47.18,30.33" />
            </g>
            <g id="jonnieTop06-group257">
                <path id="jonnieTop06-bezier253" stroke="none" fill="rgb(0, 0, 0)" d="M 25.04,36.49 C 23.83,36.75 22.61,36.9 21.37,36.99 20.75,37.03 20.13,37.15 19.52,37.05 18.9,36.96 18.29,36.82 17.7,36.49 L 17.71,36.39 C 18.34,36.17 18.95,36.09 19.56,36.05 20.16,36 20.77,36.15 21.37,36.19 22.59,36.28 23.81,36.36 25.03,36.39 L 25.04,36.49 Z M 25.04,36.49" />
            </g>
            <g id="jonnieTop06-group258">
                <path id="jonnieTop06-bezier254" stroke="none" fill="rgb(0, 0, 0)" d="M 25.04,44.49 L 21.36,44.7 C 20.75,44.74 20.15,44.87 19.55,44.81 18.94,44.76 18.35,44.68 17.71,44.49 L 17.7,44.39 C 18.27,44.03 18.9,43.89 19.52,43.81 20.14,43.72 20.76,43.85 21.37,43.9 22.6,44.01 23.83,44.18 25.04,44.39 L 25.04,44.49 Z M 25.04,44.49" />
            </g>
            <g id="jonnieTop06-group259">
                <path id="jonnieTop06-bezier255" stroke="none" fill="rgb(0, 0, 0)" d="M 23.52,46.86 C 20.78,47.08 18.01,47.1 15.27,46.58 13.92,46.29 12.52,45.89 11.39,44.92 10.84,44.43 10.39,43.75 10.26,42.98 10.15,42.26 10.11,41.56 10.15,40.84 10.23,39.41 10.69,37.94 11.61,36.77 12.52,35.59 13.84,34.79 15.21,34.36 17.98,33.53 20.86,33.75 23.52,34.39 L 23.51,34.49 C 20.78,34.41 18,34.38 15.53,35.3 14.31,35.74 13.19,36.43 12.38,37.4 11.55,38.35 11.08,39.6 10.95,40.9 10.89,41.55 10.9,42.22 10.98,42.86 11.06,43.46 11.37,44.01 11.83,44.44 12.76,45.31 14.08,45.77 15.38,46.1 18.01,46.73 20.78,46.85 23.51,46.76 L 23.52,46.86 Z M 23.52,46.86" />
            </g>
        </g>
        <g id="jonnieTop06-group272">
            <path id="jonnieTop06-bezier268" stroke="none" fill="rgb(0, 0, 0)" d="M 78.47,58.1 C 78.68,60.29 79.33,62.43 80.38,64.36 81.44,66.28 82.9,67.97 84.62,69.33 88.05,72.05 92.56,73.31 96.87,72.82 101.2,72.4 105.31,70.24 108.07,66.91 110.86,63.61 112.24,59.17 111.78,54.9 111.36,50.6 109.11,46.58 105.74,43.94 102.41,41.25 98,39.96 93.75,40.39 89.48,40.73 85.36,42.77 82.48,46.02 81.04,47.64 79.92,49.55 79.22,51.62 78.54,53.7 78.28,55.92 78.47,58.1 Z M 78.37,58.11 C 77.88,53.72 79.25,49.14 82.07,45.67 83.48,43.93 85.23,42.46 87.21,41.38 89.2,40.31 91.4,39.64 93.64,39.39 98.17,38.94 102.83,40.31 106.36,43.17 109.89,46.01 112.2,50.32 112.58,54.81 113.01,59.32 111.51,63.93 108.57,67.33 105.66,70.75 101.37,72.94 96.92,73.32 92.47,73.72 87.9,72.32 84.48,69.49 81.05,66.69 78.78,62.52 78.37,58.11 Z M 78.37,58.11" />
        </g>
        <g id="jonnieTop06-group273">
            <path id="jonnieTop06-bezier269" stroke="none" fill="rgb(0, 0, 0)" d="M 112.81,56.79 C 113.29,56.5 113.75,56.15 114.12,55.76 114.5,55.38 114.8,54.9 114.75,54.52 114.7,54.12 114.38,54.01 113.96,53.77 113.53,53.54 113.01,53.36 112.46,53.08 L 112.46,52.98 C 113.04,52.71 113.67,52.67 114.31,52.84 114.64,52.92 114.96,53.11 115.22,53.42 115.47,53.73 115.59,54.18 115.55,54.54 115.45,55.33 114.91,55.8 114.44,56.14 113.93,56.47 113.4,56.71 112.84,56.88 L 112.81,56.79 Z M 112.81,56.79" />
        </g>
        <g id="jonnieTop06-group274">
            <path id="jonnieTop06-bezier270" stroke="none" fill="rgb(0, 0, 0)" d="M 97.45,10.21 C 99.12,11.54 100.74,12.9 102.31,14.34 103.09,15.06 103.93,15.74 104.6,16.59 104.93,17.02 105.25,17.45 105.52,17.94 105.66,18.18 105.78,18.43 105.88,18.71 105.91,18.85 105.96,18.99 105.95,19.17 105.94,19.26 105.91,19.38 105.81,19.44 105.71,19.49 105.63,19.48 105.56,19.47 L 105.56,19.37 C 105.7,19.32 105.7,19.27 105.66,19.19 105.63,19.11 105.55,19.01 105.47,18.92 105.32,18.73 105.13,18.54 104.96,18.36 L 103.85,17.26 C 103.1,16.53 102.46,15.69 101.75,14.91 100.32,13.36 98.85,11.82 97.39,10.29 L 97.45,10.21 Z M 97.45,10.21" />
        </g>
        <g id="jonnieTop06-group275">
            <path id="jonnieTop06-bezier271" stroke="none" fill="rgb(0, 0, 0)" d="M 79.12,39.9 L 81.4,30.47 C 81.79,28.9 82.14,27.34 82.48,25.73 82.78,24.12 83.43,22.59 84.48,21.27 L 84.57,21.31 C 84.34,22.96 83.94,24.49 83.33,25.98 82.75,27.47 82.4,29.07 81.95,30.61 81.07,33.73 80.14,36.83 79.22,39.93 L 79.12,39.9 Z M 79.12,39.9" />
        </g>
        <g id="jonnieTop06-group276">
            <path id="jonnieTop06-bezier272" stroke="none" fill="rgb(0, 0, 0)" d="M 103.67,23.52 C 104.95,24.3 105.82,25.58 106.46,26.91 107.08,28.26 107.45,29.72 107.65,31.19 107.86,32.66 107.97,34.15 107.8,35.63 107.62,37.1 107.31,38.54 106.76,39.92 L 106.67,39.9 C 106.67,38.42 106.77,36.99 106.8,35.55 106.84,34.12 106.95,32.7 106.86,31.27 106.76,29.85 106.51,28.44 106,27.1 105.51,25.78 104.78,24.47 103.62,23.61 L 103.67,23.52 Z M 103.67,23.52" />
        </g>
        <g id="jonnieTop06-group277">
            <path id="jonnieTop06-bezier273" stroke="none" fill="rgb(0, 0, 0)" d="M 73.34,85.61 C 73.31,85.15 73.32,84.68 73.37,84.22 73.44,83.75 73.53,83.31 73.59,82.86 73.69,81.95 73.73,81.04 73.75,80.12 L 73.86,74.61 C 73.92,72.76 73.99,70.89 74.45,69.06 74.9,67.25 75.62,65.44 76.84,64.01 L 76.93,64.06 C 76.19,65.76 75.73,67.49 75.42,69.27 75.12,71.04 74.83,72.83 74.66,74.65 L 74.25,80.15 C 74.16,81.07 74.05,81.99 73.88,82.9 73.79,83.36 73.67,83.81 73.57,84.25 73.48,84.69 73.44,85.14 73.44,85.6 L 73.34,85.61 Z M 73.34,85.61" />
        </g>
        <g id="jonnieTop06-group278">
            <path id="jonnieTop06-bezier274" stroke="none" fill="rgb(0, 0, 0)" d="M 104.64,73.07 C 103.37,75.28 102.06,77.48 100.66,79.62 99.24,81.75 97.74,83.84 95.97,85.73 94.22,87.61 92.11,89.34 89.56,90.15 87.03,90.95 84.39,91.03 81.85,90.75 L 81.85,90.65 C 84.39,90.36 86.93,90.12 89.23,89.21 91.53,88.35 93.6,86.93 95.4,85.17 97.19,83.4 98.76,81.39 100.25,79.34 101.75,77.28 103.17,75.16 104.56,73.02 L 104.64,73.07 Z M 104.64,73.07" />
        </g>
        <g id="jonnieTop06-group279">
            <path id="jonnieTop06-bezier275" stroke="none" fill="rgb(0, 0, 0)" d="M 86.7,16.85 C 87.12,15.76 87.82,14.82 88.58,13.95 89.36,13.09 90.23,12.32 91.16,11.62 92.08,10.92 93.02,10.22 94.08,9.75 95.14,9.27 96.24,8.89 97.4,8.72 L 97.44,8.81 C 96.49,9.49 95.51,10.06 94.54,10.63 93.59,11.22 92.56,11.67 91.61,12.28 90.66,12.87 89.76,13.54 88.93,14.3 88.11,15.05 87.31,15.89 86.8,16.89 L 86.7,16.85 Z M 86.7,16.85" />
        </g>
        <g id="jonnieTop06-group280">
            <path id="jonnieTop06-bezier276" stroke="none" fill="rgb(0, 0, 0)" d="M 98.06,10.77 C 100.3,9.28 103.02,8.79 105.66,8.63 108.32,8.48 110.99,8.85 113.59,9.33 118.8,10.23 124.03,11.02 129.27,11.65 134.51,12.25 139.79,12.73 145.03,12.74 146.33,12.75 147.63,12.61 148.99,12.6 150.33,12.6 151.67,12.65 153.01,12.87 154.33,13.08 155.66,13.41 156.87,14.05 157.47,14.37 158.04,14.79 158.45,15.36 158.87,15.91 159.02,16.68 158.8,17.33 L 158.7,17.3 C 158.84,16.66 158.64,16.01 158.22,15.53 157.81,15.06 157.26,14.72 156.67,14.46 155.5,13.94 154.21,13.69 152.91,13.56 151.62,13.44 150.31,13.41 149.01,13.47 147.72,13.52 146.39,13.71 145.05,13.74 139.69,13.87 134.42,13.15 129.17,12.44 123.92,11.71 118.7,10.82 113.49,9.83 110.91,9.27 108.31,8.86 105.67,8.93 103.06,9.02 100.35,9.45 98.12,10.85 L 98.06,10.77 Z M 98.06,10.77" />
        </g>
        <g id="jonnieTop06-group281">
            <path id="jonnieTop06-bezier277" stroke="none" fill="rgb(0, 0, 0)" d="M 148.59,20.93 C 149.72,20.6 150.87,20.33 152.05,20.16 152.63,20.08 153.23,20.03 153.83,20.05 154.41,20.1 155.1,20.15 155.54,20.71 155.6,20.78 155.62,20.85 155.67,20.95 155.69,21.02 155.72,21.07 155.73,21.17 155.77,21.36 155.73,21.53 155.68,21.7 155.56,22.02 155.33,22.26 155.1,22.46 154.61,22.85 154.07,23.11 153.53,23.37 152.46,23.87 151.31,24.24 150.37,24.84 150.31,24.88 150.25,24.92 150.2,24.96 L 150.1,25.04 150.01,25.11 C 149.82,25.21 149.59,25.25 149.42,25.23 149.05,25.2 148.76,25.06 148.49,24.92 147.94,24.64 147.45,24.31 146.95,24 145.96,23.37 144.95,22.77 143.9,22.28 141.81,21.29 139.53,20.7 137.22,20.59 134.91,20.5 132.56,20.69 130.21,20.86 L 123.17,21.38 C 118.46,21.64 113.73,21.96 109,21.62 L 109.01,21.52 C 113.72,21.29 118.4,20.82 123.09,20.38 125.44,20.18 127.79,19.99 130.15,19.87 132.51,19.76 134.88,19.63 137.28,19.79 139.68,19.96 142.04,20.62 144.19,21.69 145.26,22.22 146.28,22.86 147.26,23.51 147.75,23.83 148.24,24.17 148.73,24.44 148.98,24.57 149.24,24.69 149.46,24.71 149.58,24.73 149.65,24.7 149.73,24.68 L 149.82,24.62 149.84,24.6 C 149.8,24.63 149.85,24.6 149.84,24.6 L 149.89,24.56 C 149.96,24.51 150.02,24.47 150.09,24.43 151.16,23.79 152.29,23.47 153.37,23 153.9,22.77 154.43,22.52 154.88,22.18 155.33,21.85 155.6,21.35 155.3,20.88 155,20.46 154.37,20.35 153.81,20.3 153.24,20.26 152.65,20.3 152.07,20.36 150.91,20.49 149.75,20.73 148.61,21.03 L 148.59,20.93 Z M 148.59,20.93" />
        </g>
        <g id="jonnieTop06-group282">
            <path id="jonnieTop06-bezier278" stroke="none" fill="rgb(0, 0, 0)" d="M 107.84,20.9 C 107.8,21.76 107.7,22.62 107.55,23.47 107.47,23.89 107.47,24.35 107.24,24.74 107.13,24.94 107.01,25.13 106.83,25.31 106.75,25.41 106.65,25.49 106.52,25.57 106.45,25.6 106.37,25.65 106.25,25.65 106.12,25.65 106.05,25.54 106.05,25.48 L 106.12,25.42 C 106.27,25.42 106.15,25.33 106.18,25.26 L 106.21,24.99 C 106.23,24.79 106.27,24.59 106.31,24.39 106.38,23.99 106.62,23.64 106.78,23.25 L 107.75,20.88 107.84,20.9 Z M 107.84,20.9" />
        </g>
        <g id="jonnieTop06-group283">
            <path id="jonnieTop06-bezier279" stroke="none" fill="rgb(0, 0, 0)" d="M 112.71,60.11 C 115.16,60.2 117.6,60.33 120.03,60.53 121.25,60.63 122.48,60.66 123.69,60.92 124.88,61.18 126.11,61.46 127.21,62.1 L 127.17,62.19 C 125.95,62.1 124.74,62.03 123.54,61.91 122.33,61.8 121.14,61.51 119.94,61.33 L 112.7,60.22 112.71,60.11 Z M 112.71,60.11" />
        </g>
        <g id="jonnieTop06-group284">
            <path id="jonnieTop06-bezier280" stroke="none" fill="rgb(0, 0, 0)" d="M 125.92,64 C 126.61,64.51 127.16,65.2 127.56,65.98 127.94,66.77 128.13,67.66 128.13,68.56 128.12,69.45 128.01,70.37 127.6,71.16 127.19,71.95 126.65,72.65 125.93,73.18 L 125.85,73.12 C 126.11,72.28 126.43,71.53 126.67,70.77 126.91,70.02 127.24,69.3 127.33,68.51 127.43,67.73 127.35,66.93 127.1,66.17 126.86,65.4 126.44,64.67 125.86,64.07 L 125.92,64 Z M 125.92,64" />
        </g>
        <g id="jonnieTop06-group285">
            <path id="jonnieTop06-bezier281" stroke="none" fill="rgb(0, 0, 0)" d="M 124.86,76.7 C 121.34,77.33 117.81,77.94 114.28,78.51 112.51,78.8 110.75,79.15 108.97,79.32 107.19,79.49 105.4,79.62 103.59,79.58 L 103.58,79.48 C 105.32,78.98 107.07,78.64 108.84,78.33 110.6,78.03 112.39,77.9 114.17,77.71 117.72,77.32 121.28,76.95 124.85,76.6 L 124.86,76.7 Z M 124.86,76.7" />
        </g>
        <g id="jonnieTop06-group286">
            <path id="jonnieTop06-bezier282" stroke="none" fill="rgb(0, 0, 0)" d="M 127.8,62.76 C 130.06,63.21 132.32,63.69 134.53,64.45 135.07,64.65 135.62,64.86 136.15,65.21 136.41,65.36 136.7,65.69 136.79,66.01 136.9,66.32 136.95,66.61 137.01,66.91 137.2,68.08 137.23,69.24 137.25,70.41 137.26,71.57 137.23,72.73 137.12,73.91 137.09,74.2 137.05,74.5 136.99,74.81 136.96,74.97 136.94,75.11 136.85,75.32 L 136.84,75.36 136.81,75.42 136.8,75.43 C 136.79,75.44 136.79,75.45 136.75,75.51 136.67,75.61 136.62,75.64 136.58,75.69 136.48,75.76 136.39,75.82 136.31,75.86 135.66,76.17 135.1,76.25 134.51,76.37 132.18,76.71 129.87,76.82 127.55,76.7 L 127.54,76.6 C 129.82,76.15 132.11,75.89 134.32,75.39 134.85,75.28 135.43,75.14 135.82,74.94 135.87,74.92 135.9,74.89 135.92,74.88 135.92,74.88 135.93,74.87 135.9,74.91 135.88,74.94 135.9,74.92 135.91,74.9 L 135.92,74.89 C 135.91,74.91 135.94,74.84 135.9,74.93 L 135.9,74.92 135.9,74.91 C 135.93,74.85 135.97,74.71 136,74.59 136.06,74.34 136.1,74.06 136.14,73.79 136.3,72.68 136.39,71.53 136.45,70.39 136.48,69.26 136.49,68.11 136.36,67 136.33,66.73 136.28,66.45 136.21,66.21 136.14,65.97 136.04,65.84 135.82,65.68 135.39,65.37 134.86,65.13 134.34,64.91 132.23,64.05 130,63.43 127.78,62.86 L 127.8,62.76 Z M 127.8,62.76" />
        </g>
        <g id="jonnieTop06-group287">
            <path id="jonnieTop06-bezier283" stroke="none" fill="rgb(0, 0, 0)" d="M 137.73,65.9 C 140.66,66.25 143.64,66.44 146.57,66.19 147.31,66.13 148.01,66.02 148.75,65.87 149.49,65.74 150.22,65.64 150.96,65.55 152.44,65.38 153.91,65.23 155.39,65.11 158.36,64.9 161.32,64.62 164.32,64.75 165.07,64.77 165.82,64.84 166.57,64.97 166.95,65.03 167.33,65.11 167.71,65.22 167.9,65.28 168.09,65.34 168.29,65.44 168.48,65.56 168.72,65.65 168.89,65.99 168.92,66.08 168.94,66.17 168.95,66.27 168.95,66.35 168.94,66.37 168.94,66.43 L 168.91,66.72 C 168.88,66.92 168.85,67.12 168.79,67.32 168.68,67.71 168.43,68.14 168.05,68.37 167.28,68.79 166.5,68.68 165.77,68.64 L 165.76,68.54 C 166.48,68.43 167.28,68.37 167.78,67.97 168.01,67.78 168.13,67.5 168.19,67.18 168.22,67.02 168.23,66.85 168.23,66.67 L 168.22,66.42 C 168.22,66.38 168.22,66.3 168.22,66.3 168.21,66.3 168.21,66.31 168.21,66.31 168.19,66.26 167.81,66.08 167.5,66.03 167.16,65.96 166.81,65.91 166.45,65.88 165.74,65.82 165.01,65.79 164.28,65.77 161.35,65.7 158.39,65.68 155.44,65.83 152.47,65.95 149.57,66.18 146.6,66.56 143.62,66.72 140.65,66.44 137.72,66 L 137.73,65.9 Z M 137.73,65.9" />
        </g>
        <g id="jonnieTop06-group288">
            <path id="jonnieTop06-bezier284" stroke="none" fill="rgb(0, 0, 0)" d="M 167.74,70.65 C 167.53,71.99 167.13,73.29 166.53,74.52 165.92,75.73 165.09,76.88 163.93,77.68 162.77,78.48 161.3,78.8 159.91,78.68 158.54,78.54 157.23,78.34 155.89,78.17 L 147.91,77.19 C 146.59,76.99 145.26,76.84 143.93,76.71 143.27,76.65 142.6,76.6 141.94,76.58 141.28,76.55 140.61,76.57 139.96,76.69 L 139.93,76.6 C 141.21,76.08 142.61,76.05 143.96,76.02 145.32,76 146.67,76.1 148.02,76.19 150.71,76.43 153.36,76.93 156.01,77.38 157.33,77.6 158.67,77.85 159.97,78.04 161.24,78.19 162.56,77.95 163.65,77.26 164.76,76.58 165.62,75.53 166.26,74.38 166.9,73.22 167.37,71.94 167.64,70.64 L 167.74,70.65 Z M 167.74,70.65" />
        </g>
        <g id="jonnieTop06-group289">
            <path id="jonnieTop06-bezier285" stroke="none" fill="rgb(0, 0, 0)" d="M 139.12,76.69 C 138.41,77.05 137.66,77.31 136.86,77.44 136.46,77.51 136.03,77.63 135.62,77.49 135.21,77.36 134.8,77.12 134.58,76.69 L 134.62,76.6 C 135.08,76.53 135.41,76.51 135.77,76.5 136.11,76.48 136.45,76.62 136.82,76.64 137.55,76.7 138.32,76.68 139.09,76.6 L 139.12,76.69 Z M 139.12,76.69" />
        </g>
        <g id="jonnieTop06-group290">
            <path id="jonnieTop06-bezier286" stroke="none" fill="rgb(0, 0, 0)" d="M 79.17,25.03 C 76.39,25.35 73.61,25.75 70.84,26.2 68.07,26.63 65.31,27.12 62.57,27.71 59.84,28.3 57.14,29.03 54.48,29.8 53.14,30.17 51.83,30.62 50.56,31.17 49.93,31.44 49.31,31.74 48.74,32.11 48.16,32.47 47.62,32.92 47.25,33.5 L 47.16,33.46 C 47.72,32.09 49.04,31.25 50.25,30.54 51.5,29.84 52.84,29.33 54.17,28.85 56.86,27.93 59.65,27.41 62.42,26.92 67.97,25.94 73.56,25.32 79.17,24.93 L 79.17,25.03 Z M 79.17,25.03" />
        </g>
        <g id="jonnieTop06-group291">
            <path id="jonnieTop06-bezier287" stroke="none" fill="rgb(0, 0, 0)" d="M 56.63,48.24 C 55.11,48.12 53.59,47.9 52.1,47.49 51.35,47.29 50.57,47.11 49.89,46.66 49.23,46.23 48.59,45.63 48.33,44.84 L 48.41,44.78 C 49.08,45.2 49.71,45.49 50.37,45.78 51.03,46.06 51.66,46.45 52.35,46.74 53.73,47.3 55.19,47.74 56.65,48.15 L 56.63,48.24 Z M 56.63,48.24" />
        </g>
        <g id="jonnieTop06-group292">
            <path id="jonnieTop06-bezier288" stroke="none" fill="rgb(0, 0, 0)" d="M 41.09,75.24 C 46.29,75.09 51.5,74.99 56.71,74.96 59.31,74.93 61.91,74.86 64.52,74.98 65.82,75.07 67.12,75.13 68.42,75.26 69.72,75.41 71.03,75.48 72.31,75.91 L 72.27,76 C 71.65,75.91 70.99,75.93 70.34,75.94 L 68.39,75.96 64.49,75.98 C 61.89,75.99 59.3,75.84 56.7,75.76 L 41.09,75.34 41.09,75.24 Z M 41.09,75.24" />
        </g>
        <g id="jonnieTop06-group293">
            <path id="jonnieTop06-bezier289" stroke="none" fill="rgb(0, 0, 0)" d="M 37.09,81.69 C 34.99,80.69 32.78,79.87 30.58,79.07 28.38,78.26 26.16,77.51 23.9,76.95 22.78,76.69 21.62,76.44 20.54,76.44 20.05,76.44 19.39,76.54 18.81,76.55 18.21,76.57 17.62,76.57 17.02,76.55 15.83,76.47 14.62,76.35 13.46,76.01 12.88,75.84 12.3,75.62 11.77,75.28 11.27,74.94 10.77,74.42 10.75,73.78 L 10.85,73.76 C 11.02,74.32 11.49,74.67 11.99,74.88 12.5,75.11 13.05,75.24 13.61,75.33 14.73,75.51 15.89,75.58 17.04,75.55 17.61,75.56 18.19,75.54 18.77,75.52 19.37,75.51 19.87,75.44 20.56,75.45 21.82,75.53 22.97,75.85 24.11,76.18 26.39,76.85 28.58,77.7 30.76,78.6 32.92,79.54 35.07,80.47 37.14,81.61 L 37.09,81.69 Z M 37.09,81.69" />
        </g>
        <g id="jonnieTop06-group294">
            <path id="jonnieTop06-bezier290" stroke="none" fill="rgb(0, 0, 0)" d="M 11.37,72.06 C 12.55,72.38 13.74,72.65 14.92,72.86 15.51,72.96 16.11,72.96 16.68,73.11 17.25,73.26 17.81,73.41 18.43,73.66 L 18.43,73.76 C 17.83,74.07 17.17,74.13 16.54,74.1 15.9,74.09 15.31,73.83 14.72,73.64 13.54,73.24 12.41,72.75 11.33,72.16 L 11.37,72.06 Z M 11.37,72.06" />
        </g>
        <g id="jonnieTop06-group295">
            <path id="jonnieTop06-bezier291" stroke="none" fill="rgb(0, 0, 0)" d="M 13.43,69.97 C 14.61,70.29 15.8,70.56 16.98,70.77 17.57,70.87 18.17,70.87 18.74,71.02 19.32,71.17 19.88,71.32 20.49,71.57 L 20.5,71.67 C 19.89,71.97 19.23,72.03 18.6,72.01 17.96,71.99 17.37,71.74 16.78,71.54 15.6,71.15 14.47,70.65 13.39,70.06 L 13.43,69.97 Z M 13.43,69.97" />
        </g>
        <g id="jonnieTop06-group296">
            <path id="jonnieTop06-bezier292" stroke="none" fill="rgb(0, 0, 0)" d="M 25.38,71.89 C 24.85,71.48 24.26,71.15 23.65,70.89 23.05,70.62 22.42,70.43 21.78,70.34 21.14,70.24 20.52,70.33 19.89,70.31 19.26,70.31 18.63,70.36 17.9,70.37 L 17.86,70.28 C 18.38,69.76 19.08,69.46 19.8,69.32 20.53,69.17 21.27,69.36 21.96,69.56 23.35,69.97 24.55,70.78 25.46,71.82 L 25.38,71.89 Z M 25.38,71.89" />
        </g>
        <g id="jonnieTop06-group297">
            <path id="jonnieTop06-bezier293" stroke="none" fill="rgb(0, 0, 0)" d="M 27.42,73.17 C 30.03,72.84 32.66,72.62 35.3,72.52 36.62,72.46 37.95,72.37 39.27,72.53 39.94,72.61 40.6,72.71 41.25,72.89 41.9,73.07 42.58,73.28 43.11,73.73 L 43.06,73.82 C 41.8,73.52 40.5,73.57 39.21,73.52 37.91,73.5 36.61,73.37 35.3,73.32 32.68,73.24 30.05,73.23 27.42,73.27 L 27.42,73.17 Z M 27.42,73.17" />
        </g>
        <g id="jonnieTop06-group298">
            <path id="jonnieTop06-bezier294" stroke="none" fill="rgb(0, 0, 0)" d="M 79.37,91.65 L 74.02,91.24 C 72.24,91.06 70.44,91 68.67,90.64 65.14,89.93 61.67,89.07 58.2,88.19 54.72,87.3 51.25,86.43 47.83,85.32 46.14,84.75 44.43,84.18 42.76,83.53 41.92,83.2 41.09,82.87 40.26,82.5 39.86,82.31 39.45,82.11 39.05,81.9 38.67,81.66 38.23,81.49 37.96,81.06 L 38.05,81.02 C 38.31,81.31 38.78,81.46 39.17,81.63 39.59,81.79 40.01,81.94 40.43,82.07 41.28,82.36 42.13,82.62 42.98,82.87 44.7,83.38 46.41,83.89 48.13,84.36 L 58.41,87.41 C 61.84,88.39 65.29,89.35 68.77,90.15 70.49,90.57 72.28,90.7 74.05,90.94 L 79.38,91.55 79.37,91.65 Z M 79.37,91.65" />
        </g>
        <g id="jonnieTop06-group299">
            <path id="jonnieTop06-bezier295" stroke="none" fill="rgb(0, 0, 0)" d="M 62.5,88.25 C 62.92,88.06 63.05,87.49 63.14,87.03 63.22,86.55 63.24,86.05 63.23,85.55 63.23,84.55 63.13,83.55 63,82.56 62.87,81.56 62.61,80.58 62.53,79.57 62.44,78.57 62.38,77.56 62.46,76.51 L 62.55,76.49 C 63.02,77.44 63.3,78.43 63.52,79.43 63.75,80.43 63.75,81.46 63.79,82.49 63.83,83.51 63.83,84.55 63.73,85.57 63.67,86.09 63.59,86.6 63.43,87.1 63.35,87.35 63.26,87.6 63.12,87.83 62.98,88.05 62.81,88.29 62.51,88.35 L 62.5,88.25 Z M 62.5,88.25" />
        </g>
        <g id="jonnieTop06-group300">
            <path id="jonnieTop06-bezier296" stroke="none" fill="rgb(0, 0, 0)" d="M 78.33,28.53 C 76.1,28.01 73.76,28.54 71.72,29.47 69.67,30.42 67.85,31.85 66.39,33.56 64.92,35.26 63.81,37.27 63.1,39.4 62.37,41.54 62.12,43.76 62.01,46.05 61.74,50.6 61.69,55.15 61.73,59.7 61.73,61.98 61.82,64.25 61.99,66.51 62.18,68.77 62.44,71.04 63.11,73.22 L 63.01,73.26 C 62.07,71.15 61.64,68.86 61.3,66.59 60.98,64.31 60.83,62.02 60.73,59.72 60.56,55.13 60.84,50.55 61.22,45.99 61.37,43.72 61.68,41.36 62.49,39.18 63.27,37 64.46,34.95 66.01,33.23 67.57,31.51 69.48,30.11 71.6,29.2 73.71,28.31 76.1,27.84 78.35,28.43 L 78.33,28.53 Z M 78.33,28.53" />
        </g>
        <g id="jonnieTop06-group301">
            <path id="jonnieTop06-bezier297" stroke="none" fill="rgb(0, 0, 0)" d="M 72.24,74.53 C 71.79,71.21 71.56,67.87 71.47,64.52 71.4,61.17 71.48,57.81 71.76,54.47 72.04,51.12 72.45,47.77 73.32,44.51 74.22,41.26 75.38,38.06 77.12,35.18 L 77.21,35.22 C 75.99,38.34 75,41.5 74.29,44.75 73.57,47.98 72.94,51.24 72.56,54.55 72.18,57.85 72,61.18 71.97,64.51 71.93,67.85 72.02,71.19 72.34,74.51 L 72.24,74.53 Z M 72.24,74.53" />
        </g>
        <g id="jonnieTop06-group302">
            <path id="jonnieTop06-bezier298" stroke="none" fill="rgb(0, 0, 0)" d="M 103.58,21.33 C 102.37,20.54 100.94,20.16 99.53,19.95 98.12,19.73 96.68,19.72 95.26,19.85 93.84,19.98 92.45,20.3 91.04,20.55 89.63,20.79 88.23,21.1 86.77,21.33 L 86.74,21.24 C 88.02,20.49 89.4,19.96 90.82,19.57 92.25,19.19 93.74,19.07 95.22,19.05 96.7,19.02 98.19,19.14 99.63,19.46 101.06,19.82 102.48,20.33 103.64,21.25 L 103.58,21.33 Z M 103.58,21.33" />
        </g>
    </g>
</svg>
