<?xml version="1.0" encoding="UTF-8"?>
<!DOCTYPE svg PUBLIC "-//W3C//DTD SVG 1.1//EN" "http://www.w3.org/Graphics/SVG/1.1/DTD/svg11.dtd">
<svg version="1.1" xmlns="http://www.w3.org/2000/svg" xmlns:xlink="http://www.w3.org/1999/xlink" width="180" height="300"  xml:space="preserve" id="jonnieSide01">
    <!-- Generated by PaintCode - http://www.paintcodeapp.com -->
    <g id="jonnieSide01-group532">
        <g id="jonnieSide01-group170">
            <path id="jonnieSide01-bezier169" stroke="none" fill="rgb(0, 0, 0)" d="M 110.63,31.23 C 110.43,27.75 109.88,24.27 108.9,20.93 108.41,19.26 107.79,17.62 106.97,16.1 106.15,14.58 105.12,13.15 103.77,12.1 102.45,11.01 100.77,10.54 99.07,10.23 97.37,9.94 95.63,9.88 93.91,9.99 90.47,10.22 87.06,11.13 84.03,12.76 81.02,14.38 78.42,16.84 77.04,19.94 76.33,21.48 75.97,23.13 75.84,24.84 75.69,26.53 75.78,28.24 76.13,29.91 76.46,31.58 77.06,33.19 77.75,34.79 78.42,36.39 79.2,37.99 79.62,39.75 80.07,41.49 80.07,43.36 79.58,45.08 79.08,46.8 78.21,48.36 77.22,49.8 L 77.14,49.75 C 78.02,48.25 78.77,46.65 79.13,44.97 79.53,43.29 79.45,41.56 78.95,39.93 78.46,38.29 77.68,36.74 76.96,35.14 76.22,33.54 75.55,31.87 75.15,30.12 74.77,28.36 74.66,26.54 74.8,24.75 74.94,22.97 75.37,21.16 76.14,19.52 77.68,16.21 80.5,13.68 83.66,12.05 86.82,10.41 90.34,9.53 93.88,9.34 95.64,9.25 97.43,9.34 99.17,9.67 100.04,9.83 100.91,10.06 101.75,10.37 102.6,10.68 103.39,11.14 104.08,11.71 105.48,12.85 106.52,14.34 107.32,15.91 108.13,17.48 108.72,19.15 109.19,20.85 110.11,24.24 110.59,27.73 110.73,31.23 L 110.63,31.23 Z M 110.63,31.23" />
        </g>
        <g id="jonnieSide01-group171">
            <path id="jonnieSide01-bezier170" stroke="none" fill="rgb(0, 0, 0)" d="M 108.48,34.52 C 108.56,37.02 108.5,39.53 107.99,42.01 107.69,43.23 107.36,44.53 106.34,45.51 106.08,45.75 105.76,45.94 105.4,46.04 105.22,46.09 105.04,46.12 104.86,46.12 L 104.39,46.14 C 103.79,46.16 103.18,46.22 102.59,46.32 100.19,46.73 98.08,48.05 96.71,49.97 96,50.91 95.49,52.02 95.14,53.17 94.96,53.75 94.83,54.34 94.75,54.95 94.68,55.54 94.62,56.18 94.8,56.75 L 94.71,56.8 C 94.12,55.61 94.27,54.26 94.46,53.01 94.69,51.74 95.19,50.51 95.89,49.4 96.62,48.31 97.61,47.37 98.76,46.73 99.91,46.08 101.19,45.7 102.46,45.53 103.1,45.45 103.74,45.41 104.38,45.41 L 104.85,45.42 C 104.98,45.42 105.1,45.4 105.23,45.38 105.47,45.32 105.71,45.2 105.92,45.02 106.76,44.29 107.18,43.06 107.5,41.9 108.12,39.52 108.33,37.01 108.38,34.53 L 108.48,34.52 Z M 108.48,34.52" />
        </g>
        <g id="jonnieSide01-group172">
            <path id="jonnieSide01-bezier171" stroke="none" fill="rgb(0, 0, 0)" d="M 96.01,68.75 C 96.22,75.02 96.31,81.3 96.23,87.57 96.2,90.71 96.2,93.85 95.93,96.99 95.6,100.1 95.34,103.28 94.29,106.28 L 94.2,106.26 C 94.47,104.71 94.58,103.16 94.68,101.6 94.78,100.04 94.88,98.48 94.93,96.92 L 95.43,87.55 C 95.68,81.29 95.83,75.03 95.91,68.76 L 96.01,68.75 Z M 96.01,68.75" />
        </g>
        <g id="jonnieSide01-group173">
            <path id="jonnieSide01-bezier172" stroke="none" fill="rgb(0, 0, 0)" d="M 95.07,111.04 C 95.99,114.15 96.59,117.35 96.73,120.6 96.77,121.41 96.76,122.23 96.71,123.04 96.64,123.86 96.6,124.64 96.6,125.45 96.59,127.06 96.64,128.68 96.71,130.29 96.97,136.75 97.42,143.2 97.97,149.63 98.26,152.85 98.58,156.07 98.95,159.27 99.13,160.88 99.33,162.47 99.56,164.07 99.67,164.86 99.79,165.66 99.93,166.44 100.08,167.22 100.21,168.02 100.51,168.67 101.19,170.31 101.17,172.03 101.07,173.67 100.93,175.31 100.65,176.93 100.18,178.51 99.95,179.29 99.68,180.07 99.34,180.83 99.17,181.2 98.99,181.58 98.76,181.94 98.64,182.12 98.52,182.28 98.35,182.46 98.22,182.59 98.02,182.76 97.83,182.86 97.02,183.28 96.13,183.23 95.33,183.09 94.52,182.93 93.74,182.66 93.01,182.31 L 93.05,182.21 C 93.8,182.51 94.58,182.72 95.37,182.81 96.15,182.9 96.98,182.86 97.6,182.47 97.75,182.36 97.86,182.28 98.01,182.12 98.11,182 98.23,181.83 98.32,181.66 98.51,181.33 98.67,180.97 98.81,180.6 99.09,179.86 99.32,179.1 99.5,178.32 99.87,176.77 100.13,175.19 100.21,173.61 100.27,172.04 100.21,170.42 99.59,169.07 99.22,168.24 99.09,167.43 98.92,166.63 98.77,165.82 98.65,165.02 98.53,164.21 98.3,162.6 98.13,160.99 97.97,159.38 97.65,156.15 97.4,152.92 97.18,149.7 96.73,143.24 96.37,136.78 96.21,130.31 96.18,128.69 96.16,127.07 96.2,125.45 96.21,124.64 96.28,123.8 96.37,123.02 96.43,122.22 96.45,121.41 96.43,120.61 96.36,117.39 95.82,114.18 94.98,111.07 L 95.07,111.04 Z M 95.07,111.04" />
        </g>
        <g id="jonnieSide01-group174">
            <path id="jonnieSide01-bezier173" stroke="none" fill="rgb(0, 0, 0)" d="M 95.4,179.91 C 94.3,180.01 93.2,179.99 92.09,179.82 91.54,179.73 90.94,179.68 90.43,179.34 89.94,179.04 89.41,178.49 89.44,177.83 L 89.54,177.79 C 89.99,178.15 90.41,178.28 90.88,178.45 91.34,178.59 91.78,178.87 92.28,179.04 93.27,179.37 94.33,179.62 95.4,179.81 L 95.4,179.91 Z M 95.4,179.91" />
        </g>
        <g id="jonnieSide01-group175">
            <path id="jonnieSide01-bezier174" stroke="none" fill="rgb(0, 0, 0)" d="M 94.61,176.83 C 93.53,177 92.41,176.97 91.31,176.7 90.76,176.57 90.16,176.44 89.7,176.05 89.25,175.67 88.88,175.15 88.79,174.55 L 88.87,174.49 90.26,175.21 C 90.7,175.42 91.09,175.74 91.56,175.95 92.5,176.35 93.54,176.61 94.61,176.73 L 94.61,176.83 Z M 94.61,176.83" />
        </g>
        <g id="jonnieSide01-group176">
            <path id="jonnieSide01-bezier175" stroke="none" fill="rgb(0, 0, 0)" d="M 93.48,174.11 C 93.16,174.3 92.79,174.41 92.4,174.44 92,174.45 91.59,174.35 91.22,174.16 90.86,173.98 90.47,173.74 90.3,173.37 90.13,173 90.06,172.6 90.19,172.17 L 90.28,172.13 C 90.66,172.36 90.9,172.59 91.12,172.8 91.35,173 91.45,173.3 91.67,173.5 92.08,173.9 92.75,174.11 93.44,174.02 L 93.48,174.11 Z M 93.48,174.11" />
        </g>
        <g id="jonnieSide01-group177">
            <path id="jonnieSide01-bezier176" stroke="none" fill="rgb(0, 0, 0)" d="M 92.52,170.65 C 91.99,166.36 90.99,162.15 89.8,158.01 88.65,153.87 87.02,149.85 85.83,145.68 84.59,141.53 83.45,137.34 82.66,133.08 82.29,130.94 81.93,128.8 81.73,126.64 81.63,125.55 81.55,124.47 81.54,123.38 81.56,122.3 81.55,121.18 81.89,120.13 L 81.99,120.16 C 81.8,121.21 81.89,122.29 81.99,123.36 82.09,124.42 82.24,125.49 82.42,126.55 82.77,128.67 83.17,130.78 83.64,132.88 84.55,137.09 85.47,141.3 86.6,145.46 87.68,149.62 89.22,153.67 90.28,157.88 91.35,162.07 92.22,166.32 92.61,170.64 L 92.52,170.65 Z M 92.52,170.65" />
        </g>
        <g id="jonnieSide01-group178">
            <path id="jonnieSide01-bezier177" stroke="none" fill="rgb(0, 0, 0)" d="M 82.51,117.17 C 81.87,116.31 81.53,115.25 81.46,114.15 81.43,113.61 81.39,113.03 81.6,112.51 81.81,111.99 82.12,111.51 82.6,111.18 L 82.69,111.22 C 82.7,111.8 82.63,112.29 82.57,112.77 82.52,113.24 82.32,113.69 82.26,114.17 82.2,114.65 82.2,115.15 82.26,115.64 82.3,116.14 82.4,116.64 82.59,117.11 L 82.51,117.17 Z M 82.51,117.17" />
        </g>
        <g id="jonnieSide01-group179">
            <path id="jonnieSide01-bezier178" stroke="none" fill="rgb(0, 0, 0)" d="M 81.8,109.69 C 81.4,106.18 80.92,102.67 80.25,99.21 79.92,97.48 79.55,95.75 79,94.1 78.73,93.3 78.34,92.46 78.09,91.6 77.82,90.75 77.58,89.89 77.36,89.03 76.47,85.59 75.74,82.11 75.35,78.57 75.19,76.8 75.04,75.02 75.06,73.23 75.08,72.34 75.12,71.44 75.24,70.55 75.4,69.68 75.54,68.73 76.14,68.02 L 76.22,68.08 C 75.78,68.82 75.73,69.73 75.7,70.59 75.66,71.46 75.7,72.34 75.76,73.21 75.89,74.96 76.08,76.7 76.35,78.44 76.85,81.92 77.37,85.41 78.13,88.84 78.33,89.7 78.54,90.55 78.78,91.39 79,92.24 79.34,93.02 79.62,93.9 80.14,95.62 80.45,97.37 80.74,99.12 81.28,102.63 81.64,106.15 81.9,109.68 L 81.8,109.69 Z M 81.8,109.69" />
        </g>
        <g id="jonnieSide01-group180">
            <path id="jonnieSide01-bezier179" stroke="none" fill="rgb(0, 0, 0)" d="M 71.64,60.52 C 70.8,62.93 70.31,65.45 69.96,67.97 69.6,70.5 69.43,73.04 69.42,75.58 69.41,78.13 69.62,80.66 69.81,83.19 69.97,85.73 70.3,88.25 70.56,90.81 L 70.46,90.83 C 69.64,88.39 69.16,85.85 68.81,83.29 68.49,80.73 68.5,78.14 68.62,75.56 68.73,72.99 69.01,70.42 69.47,67.89 69.95,65.37 70.58,62.86 71.55,60.48 L 71.64,60.52 Z M 71.64,60.52" />
        </g>
        <g id="jonnieSide01-group181">
            <path id="jonnieSide01-bezier180" stroke="none" fill="rgb(0, 0, 0)" d="M 76.51,51.58 C 76.06,52.19 75.69,52.84 75.34,53.51 74.98,54.16 74.66,54.84 74.36,55.52 74.06,56.2 73.86,56.93 73.51,57.58 73.15,58.24 72.78,58.9 72.27,59.52 L 72.18,59.49 C 72.17,58.68 72.35,57.92 72.59,57.19 72.82,56.46 73.26,55.81 73.65,55.15 74.44,53.84 75.33,52.57 76.44,51.51 L 76.51,51.58 Z M 76.51,51.58" />
        </g>
        <g id="jonnieSide01-group182">
            <path id="jonnieSide01-bezier181" stroke="none" fill="rgb(0, 0, 0)" d="M 66.62,139.84 C 66.46,141.3 66.39,142.78 66.34,144.24 66.3,145.72 66.27,147.18 66.5,148.62 66.95,151.51 68.02,154.27 69.19,156.96 70.35,159.65 71.7,162.28 72.74,165.07 73.27,166.46 73.65,167.95 73.85,169.42 74.08,170.89 74.25,172.36 74.41,173.82 74.73,176.76 75.02,179.69 75.38,182.6 75.76,185.51 76.11,188.43 77.07,191.15 77.97,194.05 78.34,197 78.5,199.97 78.56,201.45 78.59,202.93 78.5,204.41 78.45,205.15 78.38,205.89 78.27,206.63 78.14,207.35 78.01,208.1 77.64,208.77 L 77.55,208.71 C 77.86,208.06 77.94,207.32 78.01,206.59 78.07,205.87 78.09,205.13 78.08,204.4 78.07,202.94 78,201.47 77.85,200.01 77.54,197.11 77.13,194.17 76.18,191.46 75.62,190.07 75.28,188.58 75.01,187.13 74.74,185.66 74.52,184.19 74.36,182.72 74.02,179.78 73.8,176.84 73.54,173.91 73.23,170.98 73.1,168.03 72.07,165.32 71.09,162.57 69.79,159.91 68.66,157.18 67.53,154.46 66.5,151.64 66.11,148.68 65.89,147.2 66,145.69 66.09,144.23 66.19,142.76 66.31,141.29 66.52,139.83 L 66.62,139.84 Z M 66.62,139.84" />
        </g>
        <g id="jonnieSide01-group183">
            <path id="jonnieSide01-bezier182" stroke="none" fill="rgb(0, 0, 0)" d="M 98.44,137.94 L 100.98,137.96 102.24,138 C 102.66,138.01 103.11,138.03 103.48,138.02 L 103.06,138.46 C 102.86,135.06 102.76,131.66 102.85,128.25 102.9,126.54 102.99,124.84 103.28,123.12 103.57,121.46 103.78,119.79 103.96,118.11 104.66,111.38 105.07,104.62 105.33,97.85 105.56,91.09 105.73,84.29 105.09,77.58 104.92,75.91 104.53,74.27 104.14,72.62 103.75,70.98 103.28,69.36 102.76,67.75 101.71,64.55 100.45,61.36 98.59,58.54 L 98.67,58.48 C 100.64,61.26 102.01,64.42 103.18,67.6 103.75,69.21 104.25,70.84 104.69,72.48 105.12,74.13 105.55,75.79 105.76,77.49 106.2,80.89 106.31,84.29 106.38,87.69 106.43,91.09 106.39,94.48 106.31,97.88 106.1,104.67 105.72,111.46 104.96,118.22 104.77,119.91 104.55,121.6 104.24,123.29 103.95,124.91 103.84,126.6 103.77,128.28 103.65,131.65 103.72,135.04 103.89,138.41 L 103.92,138.91 103.47,138.85 C 103,138.8 102.61,138.73 102.18,138.67 L 100.93,138.47 98.43,138.04 98.44,137.94 Z M 98.44,137.94" />
        </g>
        <g id="jonnieSide01-group184">
            <path id="jonnieSide01-bezier183" stroke="none" fill="rgb(0, 0, 0)" d="M 71.64,86.8 C 71.95,91.14 71.82,95.49 71.73,99.84 71.62,104.18 71.42,108.52 71.17,112.86 70.92,117.2 70.63,121.54 70.22,125.87 70.16,126.43 70.12,126.93 70.03,127.54 69.9,128.11 69.75,128.62 69.61,129.15 L 68.71,132.28 C 68.11,134.36 67.49,136.45 67.04,138.52 L 66.53,137.97 C 69.06,137.78 71.59,137.59 74.13,137.49 76.66,137.36 79.2,137.3 81.74,137.3 L 81.75,137.4 74.18,138.14 66.62,138.91 66,138.97 66.1,138.35 C 66.49,136.16 67.13,134.09 67.72,131.99 L 68.65,128.87 C 68.8,128.36 68.97,127.82 69.09,127.34 69.17,126.88 69.23,126.29 69.3,125.77 69.82,121.47 70.18,117.15 70.51,112.82 70.84,108.49 71.1,104.16 71.32,99.82 71.52,95.49 71.75,91.14 71.54,86.81 L 71.64,86.8 Z M 71.64,86.8" />
        </g>
        <g id="jonnieSide01-group185">
            <path id="jonnieSide01-bezier184" stroke="none" fill="rgb(0, 0, 0)" d="M 102.21,155 C 102.03,152.48 101.92,149.94 101.84,147.41 101.79,146.15 101.69,144.88 101.78,143.62 101.87,142.35 101.99,141.08 102.33,139.83 L 102.43,139.84 C 102.64,141.11 102.73,142.37 102.78,143.63 102.82,144.89 102.7,146.16 102.64,147.42 L 102.31,155 102.21,155 Z M 102.21,155" />
        </g>
        <g id="jonnieSide01-group186">
            <path id="jonnieSide01-bezier185" stroke="none" fill="rgb(0, 0, 0)" d="M 98.17,198.75 C 99.29,191.77 100.31,184.77 101.02,177.75 101.37,174.24 101.56,170.72 101.78,167.21 102.03,163.69 102.07,160.17 102.14,156.63 L 102.24,156.62 C 102.74,160.14 102.85,163.7 102.78,167.25 102.69,170.8 102.27,174.33 101.82,177.84 100.93,184.87 99.68,191.84 98.27,198.77 L 98.17,198.75 Z M 98.17,198.75" />
        </g>
        <g id="jonnieSide01-group187">
            <path id="jonnieSide01-bezier186" stroke="none" fill="rgb(0, 0, 0)" d="M 94.64,82.12 C 91.78,82.12 88.92,82.21 86.08,82.42 84.67,82.54 83.27,82.76 81.87,82.91 80.49,83.1 79.07,83.18 77.84,83.86 L 77.77,83.79 C 78.22,83.17 78.93,82.82 79.6,82.54 80.29,82.25 81,82.07 81.72,81.93 83.15,81.64 84.61,81.64 86.05,81.62 88.92,81.58 91.79,81.73 94.64,82.02 L 94.64,82.12 Z M 94.64,82.12" />
        </g>
        <g id="jonnieSide01-group188">
            <path id="jonnieSide01-bezier187" stroke="none" fill="rgb(0, 0, 0)" d="M 78.2,51.63 C 79.7,52.48 81.22,53.28 82.76,54.05 84.3,54.83 85.85,55.57 87.43,56.23 89.01,56.89 90.63,57.43 92.23,57.95 93.03,58.2 93.84,58.41 94.66,58.53 95.06,58.59 95.47,58.61 95.87,58.55 96.28,58.52 96.66,58.38 97.01,58.13 L 97.08,58.2 C 96.55,58.98 95.51,59.19 94.63,59.22 93.72,59.26 92.83,59.11 91.97,58.91 90.24,58.5 88.66,57.73 87.1,56.96 83.98,55.43 81.01,53.65 78.15,51.71 L 78.2,51.63 Z M 78.2,51.63" />
        </g>
        <g id="jonnieSide01-group207">
            <path id="jonnieSide01-bezier206" stroke="none" fill="rgb(0, 0, 0)" d="M 77.67,209.75 C 76.78,213.94 75.86,218.13 75.31,222.37 75.17,223.43 75.24,224.49 75.31,225.56 75.4,226.62 75.52,227.68 75.65,228.74 75.91,230.87 76.23,232.98 76.56,235.1 77.27,239.32 77.86,243.57 78.33,247.83 78.81,252.09 79.24,256.35 79.6,260.62 79.95,264.89 80.28,269.16 80.33,273.46 80.33,274.54 80.32,275.61 80.19,276.71 80.02,277.84 79.68,278.82 79.4,279.86 78.82,281.92 78.18,283.97 77.98,286.06 77.89,287.08 77.93,288.17 78.48,288.92 78.6,289.11 78.8,289.26 78.96,289.37 79.21,289.52 79.39,289.6 79.64,289.69 80.1,289.85 80.61,289.92 81.12,289.96 83.2,290.08 85.33,289.71 87.48,289.57 88.55,289.49 89.64,289.45 90.73,289.5 91.84,289.54 92.89,289.73 93.95,289.84 96.07,290.08 98.2,290.27 100.33,290.39 102.45,290.5 104.59,290.57 106.7,290.46 107.75,290.4 108.8,290.28 109.82,290.07 110.83,289.86 111.88,289.57 112.66,289.06 112.84,288.93 113,288.77 113.06,288.64 113.12,288.51 113.13,288.42 113.05,288.26 112.91,287.96 112.48,287.62 112.07,287.4 111.18,286.92 110.17,286.55 109.18,286.18 107.18,285.44 105.14,284.75 103.14,283.94 101.14,283.13 99.17,282.23 97.31,281.06 96.39,280.47 95.5,279.81 94.7,279.03 93.92,278.24 93.22,277.38 92.61,276.47 90.14,272.81 88.91,268.48 88.6,264.14 88.46,261.97 88.58,259.78 88.92,257.63 89.3,255.5 89.74,253.42 90.14,251.31 90.97,247.11 91.78,242.91 92.54,238.7 93.29,234.48 94.06,230.27 94.46,226.02 94.91,221.76 95.33,217.5 95.74,213.23 L 95.84,213.24 C 95.56,217.52 95.26,221.79 94.93,226.06 94.59,230.34 93.87,234.58 93.18,238.81 92.47,243.03 91.72,247.25 90.95,251.46 90.58,253.57 90.16,255.69 89.82,257.77 89.52,259.86 89.45,261.98 89.6,264.07 89.89,268.26 91.09,272.44 93.43,275.91 95.66,279.52 99.62,281.42 103.51,283.03 105.48,283.84 107.49,284.55 109.51,285.3 110.51,285.69 111.52,286.06 112.52,286.61 113.03,286.91 113.52,287.23 113.87,287.88 114.05,288.2 114.06,288.7 113.86,289.05 113.68,289.4 113.42,289.6 113.17,289.78 112.15,290.44 111.07,290.69 109.99,290.92 108.92,291.13 107.83,291.24 106.74,291.3 104.58,291.39 102.43,291.31 100.28,291.18 98.13,291.05 95.99,290.85 93.86,290.59 92.79,290.47 91.73,290.28 90.7,290.23 89.65,290.18 88.59,290.21 87.53,290.29 85.41,290.41 83.28,290.77 81.07,290.64 80.52,290.59 79.96,290.51 79.42,290.32 79.15,290.23 78.85,290.08 78.64,289.95 78.36,289.77 78.13,289.57 77.95,289.32 77.23,288.29 77.26,287.07 77.34,286 77.56,283.81 78.23,281.75 78.82,279.7 79.1,278.68 79.46,277.62 79.61,276.63 79.74,275.6 79.75,274.53 79.76,273.46 79.73,269.2 79.43,264.92 79.11,260.66 78.41,252.13 77.61,243.6 76.26,235.14 75.95,233.02 75.65,230.9 75.4,228.77 75.28,227.71 75.17,226.64 75.1,225.57 75.03,224.5 74.97,223.41 75.12,222.34 75.71,218.09 76.66,213.91 77.57,209.73 L 77.67,209.75 Z M 77.67,209.75" />
        </g>
        <g id="jonnieSide01-group208">
            <path id="jonnieSide01-bezier207" stroke="none" fill="rgb(0, 0, 0)" d="M 96.66,211.71 C 97.05,210.92 97.29,210.06 97.46,209.2 97.65,208.34 97.74,207.47 97.77,206.6 97.79,205.73 97.66,204.87 97.65,204 97.64,203.14 97.6,202.26 97.66,201.34 L 97.75,201.31 C 98.24,202.11 98.5,203.01 98.65,203.91 98.81,204.83 98.68,205.76 98.56,206.66 98.32,208.48 97.76,210.26 96.75,211.77 L 96.66,211.71 Z M 96.66,211.71" />
        </g>
        <g id="jonnieSide01-group209">
            <path id="jonnieSide01-bezier208" stroke="none" fill="rgb(0, 0, 0)" d="M 80.78,270.37 C 82.12,270.04 83.46,269.76 84.82,269.54 85.5,269.43 86.17,269.23 86.87,269.26 87.56,269.29 88.29,269.34 88.96,269.7 L 88.94,269.8 C 88.26,269.99 87.61,270.16 86.94,270.26 86.27,270.38 85.58,270.31 84.9,270.33 L 80.79,270.47 80.78,270.37 Z M 80.78,270.37" />
        </g>
    </g>
</svg>
