<?xml version="1.0" encoding="UTF-8"?>
<!DOCTYPE svg PUBLIC "-//W3C//DTD SVG 1.1//EN" "http://www.w3.org/Graphics/SVG/1.1/DTD/svg11.dtd">
<svg version="1.1" xmlns="http://www.w3.org/2000/svg" xmlns:xlink="http://www.w3.org/1999/xlink" width="180" height="300"  xml:space="preserve" id="jonnieSide08">
    <!-- Generated by PaintCode - http://www.paintcodeapp.com -->
    <g id="jonnieSide08-group">
        <g id="jonnieSide08-group109">
            <path id="jonnieSide08-bezier108" stroke="none" fill="rgb(0, 0, 0)" d="M 104.1,31.28 C 104.18,33.78 104.11,36.29 103.61,38.77 103.31,39.99 102.97,41.28 101.96,42.27 101.7,42.51 101.38,42.7 101.02,42.8 100.84,42.85 100.66,42.88 100.47,42.88 L 100,42.9 C 99.4,42.92 98.79,42.98 98.2,43.08 95.81,43.49 93.7,44.81 92.33,46.73 91.62,47.67 91.11,48.78 90.76,49.93 90.58,50.51 90.44,51.1 90.37,51.71 90.29,52.3 90.24,52.94 90.41,53.51 L 90.33,53.56 C 89.74,52.37 89.89,51.02 90.08,49.77 90.31,48.5 90.8,47.27 91.51,46.16 92.24,45.07 93.22,44.13 94.38,43.48 95.53,42.84 96.8,42.46 98.08,42.29 98.72,42.2 99.35,42.17 100,42.17 L 100.47,42.18 C 100.59,42.18 100.72,42.16 100.84,42.14 101.09,42.08 101.32,41.96 101.53,41.78 102.37,41.05 102.8,39.82 103.12,38.66 103.74,36.27 103.95,33.77 104,31.28 L 104.1,31.28 Z M 104.1,31.28" />
        </g>
        <g id="jonnieSide08-group110">
            <path id="jonnieSide08-bezier109" stroke="none" fill="rgb(0, 0, 0)" d="M 67.73,53.13 C 68.82,51.51 69.92,49.91 71.1,48.36 71.69,47.59 72.27,46.78 73.04,46.16 73.75,45.51 74.42,44.81 74.98,44.03 75.54,43.25 75.97,42.38 76.19,41.46 76.41,40.54 76.39,39.58 76.2,38.65 75.81,36.78 74.87,35.06 73.97,33.34 73.07,31.62 72.17,29.87 71.54,28 70.89,26.14 70.54,24.16 70.59,22.17 70.64,20.19 71.03,18.19 71.86,16.37 72.68,14.55 73.89,12.91 75.35,11.56 78.29,8.84 82.05,7.19 85.92,6.38 89.79,5.62 93.91,5.59 97.71,7.01 99.66,7.82 101.14,9.34 102.22,11.01 103.31,12.69 104.08,14.53 104.65,16.41 105.78,20.19 106.28,24.09 106.34,27.99 L 106.24,27.99 C 106.1,26.06 105.82,24.13 105.45,22.23 105.09,20.33 104.62,18.45 103.99,16.63 103.34,14.82 102.58,13.05 101.51,11.49 100.45,9.93 99.03,8.59 97.35,7.94 95.6,7.28 93.7,6.99 91.8,6.92 89.9,6.85 87.99,6.99 86.11,7.35 82.38,8.07 78.72,9.6 75.89,12.15 74.48,13.42 73.32,14.96 72.52,16.68 71.71,18.39 71.31,20.28 71.24,22.19 71.17,24.09 71.48,26 72.08,27.82 72.68,29.65 73.54,31.38 74.42,33.12 75.28,34.85 76.22,36.61 76.6,38.58 76.78,39.55 76.78,40.58 76.53,41.55 76.28,42.52 75.81,43.42 75.22,44.21 74.63,45 73.94,45.7 73.2,46.35 72.44,46.94 71.86,47.72 71.25,48.48 70.06,50.01 68.93,51.59 67.81,53.19 L 67.73,53.13 Z M 67.73,53.13" />
        </g>
        <g id="jonnieSide08-group111">
            <path id="jonnieSide08-bezier110" stroke="none" fill="rgb(0, 0, 0)" d="M 85.57,193.17 L 91.87,201.03 C 92.92,202.37 93.9,203.79 94.57,205.37 95.23,206.94 95.74,208.6 95.82,210.32 L 95.72,210.33 C 95.12,208.76 94.43,207.26 93.67,205.8 92.9,204.34 92.16,202.87 91.22,201.51 L 88.31,197.4 85.49,193.23 85.57,193.17 Z M 85.57,193.17" />
        </g>
        <g id="jonnieSide08-group112">
            <path id="jonnieSide08-bezier111" stroke="none" fill="rgb(0, 0, 0)" d="M 93.74,209.59 C 93.21,211.65 92.64,213.71 91.95,215.73 91.6,216.74 91.24,217.76 90.68,218.68 90.22,219.61 89.95,220.66 89.67,221.68 88.63,225.8 88.03,230.04 87.88,234.29 87.81,236.41 87.88,238.54 88.22,240.64 88.55,242.75 88.74,244.88 88.91,247.01 89.24,251.26 89.44,255.52 89.57,259.79 89.68,264.06 89.74,268.32 89.55,272.6 89.49,273.67 89.42,274.74 89.23,275.82 89.01,276.9 88.69,277.9 88.4,278.93 87.83,280.98 87.2,283.03 87.04,285.1 86.98,286.11 87.05,287.2 87.66,287.89 88.3,288.54 89.37,288.76 90.38,288.86 92.45,289.03 94.59,288.79 96.74,288.79 97.81,288.79 98.9,288.83 99.98,288.98 101.07,289.14 102.09,289.42 103.13,289.63 105.21,290.07 107.3,290.47 109.4,290.78 111.49,291.08 113.61,291.33 115.69,291.28 116.73,291.25 117.78,291.12 118.8,290.92 119.8,290.72 120.85,290.45 121.65,289.95 122.05,289.68 122.26,289.39 122.15,289.17 122.05,288.88 121.65,288.54 121.24,288.29 120.38,287.78 119.39,287.35 118.43,286.92 116.48,286.08 114.5,285.26 112.56,284.36 110.62,283.45 108.7,282.47 106.87,281.29 105.96,280.7 105.08,280.06 104.26,279.32 103.44,278.58 102.72,277.76 102.06,276.87 100.75,275.12 99.79,273.1 99.21,270.99 98.63,268.87 98.43,266.68 98.46,264.52 98.57,260.15 99.7,255.99 100.6,251.83 L 103.49,239.37 C 103.95,237.29 104.4,235.21 104.79,233.12 104.98,232.08 105.16,231.03 105.3,229.98 105.43,228.94 105.52,227.85 105.77,226.8 106.75,222.6 108.62,218.7 110.82,215.05 L 110.9,215.1 C 108.81,218.8 107.07,222.75 106.22,226.89 106,227.93 105.92,228.96 105.8,230.04 105.67,231.11 105.51,232.16 105.33,233.22 104.97,235.32 104.55,237.42 104.11,239.51 L 101.4,252.01 C 100.56,256.18 99.5,260.34 99.46,264.53 99.36,268.7 100.34,272.96 102.86,276.28 103.48,277.1 104.16,277.9 104.93,278.58 105.69,279.27 106.54,279.89 107.41,280.46 109.17,281.6 111.06,282.56 112.98,283.46 114.89,284.37 116.85,285.19 118.81,286.06 119.79,286.5 120.76,286.93 121.73,287.51 122.19,287.83 122.73,288.16 123.01,288.88 123.15,289.25 123.07,289.74 122.85,290.03 122.64,290.34 122.38,290.53 122.13,290.7 117.97,292.73 113.47,292.19 109.28,291.57 107.16,291.24 105.06,290.83 102.97,290.37 101.93,290.16 100.88,289.87 99.87,289.72 98.84,289.56 97.79,289.52 96.74,289.52 94.62,289.5 92.5,289.73 90.31,289.55 89.24,289.42 88.05,289.23 87.16,288.34 86.34,287.36 86.33,286.12 86.39,285.06 86.58,282.86 87.23,280.81 87.82,278.76 88.11,277.74 88.43,276.71 88.65,275.71 88.83,274.69 88.91,273.62 88.97,272.57 89.19,268.32 89.15,264.06 89.07,259.8 88.98,255.54 88.81,251.28 88.51,247.03 88.35,244.91 88.18,242.79 87.88,240.69 87.54,238.57 87.5,236.41 87.58,234.28 87.77,230.01 88.4,225.76 89.48,221.63 89.76,220.6 90.04,219.56 90.53,218.59 91.09,217.69 91.45,216.68 91.81,215.68 92.51,213.67 93.1,211.62 93.64,209.56 L 93.74,209.59 Z M 93.74,209.59" />
        </g>
        <g id="jonnieSide08-group113">
            <path id="jonnieSide08-bezier112" stroke="none" fill="rgb(0, 0, 0)" d="M 111.73,213.55 C 112.12,212.75 112.36,211.89 112.53,211.03 112.72,210.17 112.81,209.3 112.84,208.43 112.86,207.56 112.73,206.7 112.72,205.84 112.71,204.97 112.67,204.1 112.73,203.17 L 112.82,203.14 C 113.31,203.95 113.57,204.84 113.72,205.75 113.88,206.66 113.75,207.59 113.63,208.5 113.39,210.31 112.83,212.09 111.82,213.6 L 111.73,213.55 Z M 111.73,213.55" />
        </g>
        <g id="jonnieSide08-group114">
            <path id="jonnieSide08-bezier113" stroke="none" fill="rgb(0, 0, 0)" d="M 63.7,168.73 C 63,172.05 62.34,175.38 61.89,178.73 61.66,180.41 61.5,182.07 61.54,183.76 L 61.51,188.85 C 61.47,192.25 61.47,195.65 61.2,199.04 61.04,200.73 60.89,202.43 60.63,204.12 60.33,205.78 60.13,207.53 59.28,209.06 L 59.19,209.01 C 59.51,208.24 59.61,207.39 59.71,206.56 59.81,205.72 59.88,204.88 59.94,204.04 60.05,202.35 60.15,200.67 60.2,198.98 L 60.71,188.83 60.89,183.75 C 60.9,182.05 61.12,180.32 61.4,178.65 61.99,175.3 62.77,172 63.61,168.71 L 63.7,168.73 Z M 63.7,168.73" />
        </g>
        <g id="jonnieSide08-group115">
            <path id="jonnieSide08-bezier114" stroke="none" fill="rgb(0, 0, 0)" d="M 57.9,207.05 C 55.88,211.39 53.91,215.76 51.58,219.95 50.26,221.95 49.29,224.14 48.42,226.36 47.56,228.59 46.85,230.87 46.31,233.2 45.78,235.52 45.41,237.89 45.31,240.27 45.25,242.66 45.05,245.06 44.75,247.44 44.15,252.2 43.26,256.92 42.07,261.57 41.46,263.89 40.79,266.2 39.88,268.44 39.44,269.55 38.88,270.67 38.2,271.66 L 36.3,274.69 C 35.07,276.72 33.85,278.81 33.35,281.09 33.23,281.66 33.17,282.22 33.16,282.82 33.15,283.4 33.14,284 33.28,284.51 33.49,285.56 34.8,285.77 35.93,285.93 37.1,286.08 38.29,286.14 39.49,286.22 40.71,286.31 41.9,286.53 43.08,286.8 45.44,287.35 47.73,288.1 49.98,288.93 52.23,289.77 54.45,290.68 56.64,291.67 L 58.28,292.43 C 58.8,292.66 59.35,292.86 59.91,293.02 61.02,293.34 62.18,293.53 63.35,293.6 65.7,293.66 68.12,293.6 70.51,293.61 L 72.3,293.6 73.2,293.6 73.4,293.6 C 73.51,293.59 73.46,293.59 73.52,293.58 73.6,293.55 73.69,293.5 73.78,293.44 74.15,293.17 74.39,292.67 74.27,292.36 74.18,292.04 73.71,291.77 73.19,291.63 72.12,291.35 70.87,291.26 69.69,290.99 68.49,290.73 67.31,290.36 66.19,289.87 63.92,288.89 61.91,287.49 60.03,285.96 56.3,282.91 53.09,278.87 51.9,274.05 51.29,271.66 51.24,269.15 51.52,266.74 51.79,264.33 52.29,261.96 52.91,259.63 54.2,254.98 55.88,250.46 58.02,246.14 58.3,245.6 58.59,245.06 58.88,244.54 59.17,244.03 59.42,243.51 59.66,242.97 60.13,241.88 60.55,240.77 60.96,239.65 61.77,237.4 62.54,235.13 63.32,232.87 64.1,230.61 64.89,228.35 65.78,226.11 66.22,225 66.69,223.89 67.22,222.8 67.75,221.72 68.31,220.64 69.13,219.7 69.57,219.22 70.08,218.92 70.5,218.51 70.94,218.11 71.35,217.69 71.74,217.24 72.53,216.36 73.24,215.4 73.87,214.39 75.11,212.37 76.15,210.17 76.55,207.82 L 76.65,207.83 C 76.3,210.22 75.32,212.46 74.11,214.53 73.5,215.57 72.8,216.56 72.02,217.48 71.63,217.94 71.22,218.39 70.78,218.81 70.35,219.24 69.83,219.58 69.47,220.01 68.73,220.88 68.18,221.95 67.67,223.02 67.17,224.09 66.72,225.2 66.29,226.31 65.44,228.54 64.68,230.8 63.92,233.08 63.17,235.35 62.44,237.63 61.65,239.89 61.25,241.02 60.84,242.15 60.37,243.27 60.13,243.83 59.88,244.39 59.58,244.93 59.29,245.45 59.02,245.97 58.76,246.5 56.7,250.78 55.09,255.29 53.87,259.88 53.27,262.18 52.77,264.51 52.51,266.85 52.24,269.19 52.29,271.55 52.86,273.81 53.98,278.36 57.02,282.23 60.66,285.2 62.47,286.69 64.43,288.07 66.56,289 67.63,289.48 68.74,289.84 69.88,290.09 71.03,290.36 72.19,290.44 73.43,290.77 74.02,290.95 74.81,291.24 75.11,292.1 75.25,292.52 75.16,292.95 75,293.29 74.84,293.63 74.6,293.91 74.3,294.14 74.15,294.25 73.98,294.34 73.77,294.41 73.69,294.44 73.49,294.47 73.45,294.46 L 73.2,294.46 72.3,294.46 70.51,294.45 C 68.1,294.43 65.74,294.48 63.3,294.39 62.08,294.32 60.87,294.12 59.69,293.77 59.09,293.59 58.52,293.38 57.95,293.12 L 56.33,292.36 C 54.16,291.37 51.96,290.45 49.73,289.61 47.5,288.77 45.23,288.02 42.92,287.47 41.77,287.2 40.61,286.97 39.44,286.88 38.25,286.79 37.05,286.73 35.85,286.57 35.24,286.48 34.63,286.39 34.02,286.15 33.41,285.94 32.8,285.34 32.67,284.67 32.5,284.02 32.53,283.4 32.54,282.79 32.55,282.19 32.62,281.56 32.75,280.96 33.3,278.53 34.57,276.43 35.81,274.39 L 37.74,271.35 C 38.42,270.37 38.93,269.33 39.39,268.23 40.29,266.03 40.97,263.74 41.59,261.43 42.8,256.82 43.72,252.12 44.35,247.38 44.67,245.01 44.89,242.64 44.96,240.25 45.08,237.84 45.47,235.46 46.02,233.13 46.57,230.79 47.3,228.5 48.18,226.26 49.07,224.04 50.07,221.84 51.41,219.85 53.76,215.69 55.76,211.33 57.81,207.01 L 57.9,207.05 Z M 57.9,207.05" />
        </g>
        <g id="jonnieSide08-group136">
            <path id="jonnieSide08-bezier135" stroke="none" fill="rgb(0, 0, 0)" d="M 98.84,138.93 C 97.96,136.02 97.23,133.04 96.86,129.99 96.66,128.47 96.49,126.94 96.53,125.41 96.57,123.88 96.68,122.35 96.96,120.83 L 97.06,120.83 C 97.33,122.36 97.43,123.88 97.53,125.39 97.62,126.9 97.57,128.41 97.66,129.92 97.84,132.93 98.34,135.93 98.93,138.91 L 98.84,138.93 Z M 98.84,138.93" />
        </g>
        <g id="jonnieSide08-group137">
            <path id="jonnieSide08-bezier136" stroke="none" fill="rgb(0, 0, 0)" d="M 77.3,205.52 C 79.28,202.09 81.05,198.54 82.69,194.94 84.34,191.34 85.84,187.67 87.15,183.94 88.45,180.21 89.51,176.41 90.47,172.59 91.46,168.77 92.15,164.89 92.63,160.95 L 92.73,160.95 C 92.83,164.94 92.26,168.92 91.45,172.82 90.6,176.72 89.31,180.5 87.9,184.22 86.49,187.94 84.88,191.58 83.14,195.15 81.37,198.71 79.48,202.2 77.39,205.57 L 77.3,205.52 Z M 77.3,205.52" />
        </g>
        <g id="jonnieSide08-group138">
            <path id="jonnieSide08-bezier137" stroke="none" fill="rgb(0, 0, 0)" d="M 59.06,79.21 C 59.46,81.8 60.35,84.28 61.12,86.79 61.92,89.29 62.73,91.79 63.45,94.32 64.87,99.36 66.12,104.56 65.93,109.89 65.58,115.16 64.69,120.36 63.5,125.5 62.26,130.62 60.79,135.7 58.6,140.54 L 58.16,139.85 C 61.62,139.8 65.07,139.83 68.53,139.86 71.99,139.89 75.45,139.96 78.91,140.23 79.79,140.31 80.64,140.36 81.55,140.57 82.33,140.78 83.18,140.8 84.03,140.82 85.74,140.85 87.46,140.79 89.18,140.71 92.62,140.5 96.09,140.29 99.49,139.89 L 99.53,139.98 C 96.09,140.58 92.68,140.99 89.23,141.3 87.5,141.45 85.77,141.59 84.03,141.6 83.16,141.59 82.26,141.6 81.36,141.37 80.58,141.22 79.7,141.17 78.85,141.11 77.14,141.02 75.42,140.98 73.69,140.95 L 68.52,140.86 58.17,140.81 57.41,140.81 57.73,140.13 C 59.94,135.42 61.5,130.39 62.78,125.32 64.02,120.24 64.96,115.06 65.37,109.86 65.61,104.65 64.46,99.46 63.13,94.41 62.44,91.88 61.68,89.37 60.91,86.85 60.18,84.33 59.32,81.83 58.96,79.22 L 59.06,79.21 Z M 59.06,79.21" />
        </g>
        <g id="jonnieSide08-group139">
            <path id="jonnieSide08-bezier138" stroke="none" fill="rgb(0, 0, 0)" d="M 63.96,165.63 C 63.98,164.61 63.77,163.61 63.5,162.64 63.22,161.66 62.88,160.71 62.5,159.77 61.76,157.86 60.85,156.08 60.01,154.17 59.21,152.26 58.58,150.25 58.35,148.18 58.14,146.11 58.21,143.99 58.76,142 L 58.86,142.01 C 58.85,144.06 59,146.07 59.35,148.04 59.69,150.01 60.08,151.98 60.75,153.88 61.47,155.75 62.32,157.65 62.97,159.59 63.29,160.57 63.57,161.56 63.79,162.57 64,163.57 64.15,164.61 64.06,165.63 L 63.96,165.63 Z M 63.96,165.63" />
        </g>
        <g id="jonnieSide08-group140">
            <path id="jonnieSide08-bezier139" stroke="none" fill="rgb(0, 0, 0)" d="M 58.57,71.38 C 58.82,68.26 59.61,65.19 60.87,62.29 61.5,60.85 62.22,59.41 63.23,58.18 64.24,56.95 65.44,55.85 66.83,55.09 L 66.89,55.17 C 65.85,56.35 64.89,57.52 64.03,58.78 63.17,60.02 62.3,61.28 61.59,62.64 60.89,64 60.3,65.43 59.82,66.89 59.33,68.35 58.92,69.86 58.67,71.38 L 58.57,71.38 Z M 58.57,71.38" />
        </g>
        <g id="jonnieSide08-group141">
            <path id="jonnieSide08-bezier140" stroke="none" fill="rgb(0, 0, 0)" d="M 56.89,74.64 C 56.24,77.16 55.62,79.68 55.03,82.21 54.43,84.73 53.84,87.27 53.43,89.81 53.08,92.35 52.86,94.97 52.36,97.52 52.09,98.8 51.82,100.08 51.46,101.34 51.05,102.57 50.74,103.92 49.8,104.92 L 49.73,104.85 C 50.08,104.33 50.24,103.69 50.39,103.07 50.55,102.45 50.67,101.82 50.78,101.18 51,99.91 51.2,98.64 51.37,97.36 51.74,94.79 52.18,92.25 52.64,89.67 53.16,87.1 53.85,84.59 54.55,82.08 55.27,79.58 56.02,77.1 56.8,74.62 L 56.89,74.64 Z M 56.89,74.64" />
        </g>
        <g id="jonnieSide08-group142">
            <path id="jonnieSide08-bezier141" stroke="none" fill="rgb(0, 0, 0)" d="M 48.81,105.98 C 48.75,106.73 48.7,107.48 48.67,108.21 48.66,108.58 48.74,108.95 48.65,109.3 48.56,109.65 48.44,109.97 48.23,110.37 L 48.13,110.39 C 47.79,110.05 47.69,109.62 47.65,109.23 47.6,108.83 47.78,108.46 47.88,108.09 48.1,107.35 48.37,106.64 48.71,105.95 L 48.81,105.98 Z M 48.81,105.98" />
        </g>
        <g id="jonnieSide08-group143">
            <path id="jonnieSide08-bezier142" stroke="none" fill="rgb(0, 0, 0)" d="M 47.39,113.48 C 46.53,115.58 45.83,117.73 45.28,119.92 44.73,122.11 44.35,124.34 44.3,126.59 44.14,131.11 44.02,135.65 43.67,140.17 43.49,142.44 43.27,144.71 42.87,146.97 42.64,148.1 42.41,149.23 41.93,150.34 41.8,150.62 41.66,150.9 41.47,151.17 41.26,151.47 41.06,151.65 40.89,151.86 40.53,152.27 40.18,152.71 39.84,153.16 38.45,154.92 37.16,156.77 35.88,158.63 35.23,159.56 34.61,160.5 34,161.45 33.69,161.92 33.39,162.4 33.1,162.88 32.84,163.37 32.49,163.87 32.39,164.37 L 32.29,164.39 C 32.32,163.77 32.62,163.28 32.84,162.75 33.08,162.23 33.34,161.72 33.6,161.22 34.14,160.22 34.71,159.23 35.29,158.26 36.46,156.3 37.71,154.41 39.05,152.55 39.39,152.09 39.74,151.64 40.11,151.2 40.3,150.97 40.51,150.75 40.62,150.58 40.76,150.39 40.87,150.16 40.98,149.92 41.4,148.96 41.67,147.86 41.9,146.78 42.35,144.59 42.63,142.35 42.87,140.1 43.32,135.61 43.54,131.09 43.81,126.56 43.92,124.28 44.37,122.03 44.99,119.84 45.61,117.66 46.38,115.52 47.3,113.44 L 47.39,113.48 Z M 47.39,113.48" />
        </g>
        <g id="jonnieSide08-group144">
            <path id="jonnieSide08-bezier143" stroke="none" fill="rgb(0, 0, 0)" d="M 45.22,158.03 C 45.62,159.21 46.02,160.39 46.45,161.55 46.66,162.13 46.87,162.71 47.1,163.28 47.22,163.56 47.34,163.84 47.47,164.1 47.54,164.25 47.58,164.31 47.69,164.46 47.72,164.49 47.81,164.69 47.83,164.76 47.86,164.85 47.88,164.94 47.9,165.02 48.15,166.33 48.28,167.52 48.4,168.73 48.45,169.33 48.53,169.92 48.67,170.47 48.83,171.02 49.03,171.57 49.6,171.83 L 49.58,171.93 C 48.88,171.95 48.31,171.32 48.02,170.74 47.7,170.14 47.54,169.5 47.41,168.88 47.14,167.63 47.26,166.33 47.12,165.18 47.1,165.11 47.09,165.05 47.08,164.99 47.05,164.91 47.1,164.97 47.04,164.86 46.97,164.76 46.86,164.54 46.81,164.41 46.69,164.1 46.59,163.8 46.49,163.5 46.3,162.9 46.14,162.3 45.98,161.7 45.67,160.49 45.39,159.28 45.13,158.06 L 45.22,158.03 Z M 45.22,158.03" />
        </g>
        <g id="jonnieSide08-group145">
            <path id="jonnieSide08-bezier144" stroke="none" fill="rgb(0, 0, 0)" d="M 50.18,171.83 C 50.35,171.69 50.42,171.29 50.46,171 50.51,170.68 50.54,170.36 50.55,170.04 50.58,169.39 50.58,168.75 50.57,168.1 50.54,166.81 50.45,165.52 50.35,164.23 50.14,161.65 50.01,159.06 49.82,156.49 49.73,155.2 49.5,153.96 49.24,152.68 49.01,151.37 48.95,150.06 49,148.74 49.1,146.12 49.64,143.53 50.44,141.04 50.83,139.79 51.33,138.56 51.81,137.38 52.28,136.18 52.73,134.97 53.15,133.75 54,131.32 54.8,128.87 55.5,126.4 56.23,123.93 56.84,121.42 57.31,118.89 57.77,116.37 58.09,113.8 58.04,111.22 L 58.14,111.21 C 58.47,113.79 58.32,116.42 58,119 57.67,121.59 57.1,124.14 56.47,126.66 55.79,129.18 55,131.66 54.09,134.09 53.63,135.31 53.15,136.52 52.64,137.72 52.12,138.92 51.62,140.08 51.2,141.29 50.37,143.71 49.8,146.23 49.65,148.77 49.58,150.05 49.61,151.33 49.8,152.58 50.04,153.84 50.26,155.15 50.32,156.45 50.44,159.05 50.5,161.63 50.65,164.21 50.72,165.51 50.77,166.8 50.77,168.1 50.77,168.75 50.75,169.4 50.7,170.05 50.68,170.37 50.64,170.69 50.59,171.02 50.56,171.18 50.52,171.34 50.48,171.5 50.41,171.65 50.41,171.83 50.18,171.93 L 50.18,171.83 Z M 50.18,171.83" />
        </g>
        <g id="jonnieSide08-group146">
            <path id="jonnieSide08-bezier145" stroke="none" fill="rgb(0, 0, 0)" d="M 56.39,111.6 C 57.78,109.73 59.11,107.83 60.35,105.88 60.97,104.9 61.48,103.87 62.1,102.91 62.72,101.94 63.32,100.99 63.88,99.95 L 63.98,99.98 C 63.94,101.19 63.49,102.34 62.98,103.4 62.46,104.47 61.71,105.39 61.01,106.33 59.61,108.21 58.08,109.98 56.46,111.66 L 56.39,111.6 Z M 56.39,111.6" />
        </g>
        <g id="jonnieSide08-group147">
            <path id="jonnieSide08-bezier146" stroke="none" fill="rgb(0, 0, 0)" d="M 32.12,166.24 C 32.38,167 33.03,167.62 33.77,167.62 34.48,167.62 35.32,167.39 35.94,167.03 36.25,166.84 36.52,166.6 36.66,166.33 36.82,166.06 36.87,165.83 36.88,165.48 36.9,164.87 36.67,164.14 35.89,163.87 L 35.88,163.77 C 36.32,163.59 36.86,163.76 37.23,164.1 37.6,164.44 37.82,164.93 37.88,165.44 37.96,165.9 37.8,166.52 37.47,166.91 37.13,167.31 36.72,167.56 36.3,167.75 35.44,168.09 34.62,168.22 33.7,168.11 32.75,167.94 32.15,167.08 32.02,166.26 L 32.12,166.24 Z M 32.12,166.24" />
        </g>
        <g id="jonnieSide08-group148">
            <path id="jonnieSide08-bezier147" stroke="none" fill="rgb(0, 0, 0)" d="M 33.3,169.54 C 33.5,170.04 33.53,170.52 33.73,170.96 33.89,171.41 34.21,171.76 34.57,171.65 35.45,171.41 36.41,171.05 37.24,170.61 38.06,170.17 38.83,169.51 39.05,168.92 39.07,168.84 39.09,168.79 39.1,168.67 L 39.14,168.3 C 39.17,168.04 39.2,167.8 39.24,167.55 39.28,167.31 39.34,167.06 39.36,166.84 39.4,166.61 39.4,166.45 39.18,166.3 L 39.21,166.21 C 39.34,166.21 39.5,166.26 39.61,166.39 39.72,166.52 39.77,166.66 39.82,166.8 39.89,167.07 39.92,167.32 39.95,167.57 L 40.02,168.3 40.04,168.67 C 40.05,168.8 40.05,169 40.02,169.15 39.88,169.83 39.42,170.28 38.98,170.6 38.53,170.91 38.05,171.13 37.58,171.33 36.61,171.71 35.68,171.97 34.63,172.15 34.32,172.18 33.97,172.03 33.79,171.79 33.6,171.56 33.51,171.3 33.44,171.05 33.3,170.56 33.33,170.03 33.22,169.59 L 33.3,169.54 Z M 33.3,169.54" />
        </g>
        <g id="jonnieSide08-group149">
            <path id="jonnieSide08-bezier148" stroke="none" fill="rgb(0, 0, 0)" d="M 36.05,173.1 C 36.33,173.48 36.72,173.8 37.14,173.88 37.55,173.96 37.96,173.7 38.38,173.49 39.19,173.04 39.96,172.45 40.52,171.77 40.65,171.59 40.77,171.41 40.84,171.24 40.88,171.15 40.91,171.06 40.92,170.98 L 40.98,170.64 C 41.07,170.18 41.14,169.72 41.24,169.27 41.33,168.82 41.41,168.37 41.45,167.93 41.46,167.5 41.53,167.03 41.07,166.87 L 41.07,166.77 C 41.34,166.67 41.68,166.85 41.84,167.09 42.01,167.34 42.1,167.61 42.15,167.87 42.27,168.39 42.26,168.9 42.23,169.41 42.19,169.91 42.08,170.39 41.94,170.87 L 41.82,171.24 C 41.77,171.39 41.7,171.52 41.63,171.65 41.48,171.9 41.3,172.11 41.12,172.29 40.37,173.04 39.51,173.54 38.59,173.94 38.36,174.03 38.12,174.11 37.87,174.17 37.63,174.24 37.32,174.27 37.07,174.17 36.55,173.98 36.21,173.58 35.97,173.15 L 36.05,173.1 Z M 36.05,173.1" />
        </g>
        <g id="jonnieSide08-group150">
            <path id="jonnieSide08-bezier149" stroke="none" fill="rgb(0, 0, 0)" d="M 39.63,174.84 C 40.11,175.04 40.62,175.2 41.13,175.25 41.63,175.31 42.16,175.2 42.32,174.82 42.74,173.88 43.18,172.89 43.54,171.92 43.89,170.95 44.16,169.88 44.23,169.03 44.25,168.87 44.18,168.57 44.17,168.29 44.16,168.01 44.15,167.74 44.16,167.48 44.16,167.23 44.15,166.94 44.12,166.83 44.18,166.71 43.83,166.75 43.6,166.86 L 43.54,166.78 C 43.63,166.67 43.73,166.56 43.87,166.49 43.98,166.4 44.26,166.34 44.45,166.52 44.74,166.84 44.76,167.12 44.85,167.38 L 45.04,168.15 C 45.09,168.4 45.18,168.61 45.23,168.99 45.28,170.28 44.71,171.23 44.27,172.22 43.8,173.21 43.29,174.12 42.74,175.08 42.56,175.36 42.24,175.54 41.94,175.59 41.64,175.64 41.35,175.6 41.08,175.55 40.54,175.42 40.04,175.19 39.58,174.92 L 39.63,174.84 Z M 39.63,174.84" />
        </g>
        <g id="jonnieSide08-group151">
            <path id="jonnieSide08-bezier150" stroke="none" fill="rgb(0, 0, 0)" d="M 75.06,69.49 C 76.6,74.6 78.21,79.7 79.84,84.78 80.66,87.32 81.49,89.86 82.38,92.37 82.82,93.63 83.28,94.88 83.76,96.12 84.24,97.34 84.72,98.63 85.32,99.69 L 85.38,99.8 85.39,99.89 C 85.68,101.94 85.83,104 86.19,106.01 86.35,107.02 86.54,108.02 86.89,108.97 87.22,109.89 87.75,110.87 88.77,111.1 L 88.75,111.2 C 88.22,111.17 87.7,110.89 87.33,110.49 86.96,110.1 86.67,109.64 86.44,109.16 85.99,108.19 85.7,107.18 85.45,106.16 85,104.12 84.68,102.07 84.38,100.03 L 84.45,100.23 C 83.72,98.98 83.3,97.73 82.83,96.46 82.38,95.2 81.97,93.92 81.56,92.65 80.76,90.09 79.98,87.54 79.23,84.97 77.72,79.84 76.33,74.68 74.96,69.52 L 75.06,69.49 Z M 75.06,69.49" />
        </g>
        <g id="jonnieSide08-group152">
            <path id="jonnieSide08-bezier151" stroke="none" fill="rgb(0, 0, 0)" d="M 90.67,112.34 C 92.5,114.12 94.4,115.83 96.36,117.46 98.33,119.06 100.36,120.66 102.6,121.8 104.97,122.71 107.23,124.03 109.43,125.32 111.63,126.63 113.8,127.99 115.94,129.38 118.09,130.77 120.22,132.19 122.31,133.67 123.36,134.42 124.4,135.17 125.41,135.97 126.41,136.8 127.43,137.53 128.31,138.66 129.66,140.62 132.23,141.61 134.1,143.46 134.57,143.93 135,144.44 135.35,145.01 135.71,145.59 135.92,146.2 136.2,146.76 136.47,147.34 136.75,147.9 137.06,148.46 L 137.52,149.31 C 137.65,149.58 137.85,149.94 137.68,150.27 L 137.59,150.24 C 137.69,149.95 137.5,149.67 137.34,149.41 L 136.81,148.61 C 136.46,148.08 136.12,147.53 135.8,146.97 135.47,146.41 135.22,145.82 134.86,145.33 134.51,144.83 134.09,144.38 133.63,143.97 132.69,143.17 131.62,142.51 130.53,141.82 129.47,141.12 128.32,140.38 127.5,139.25 126.81,138.36 125.73,137.56 124.77,136.78 123.77,136 122.76,135.22 121.73,134.47 119.69,132.95 117.6,131.49 115.5,130.05 113.39,128.62 111.25,127.22 109.09,125.87 106.91,124.54 104.76,123.22 102.38,122.25 100.09,121 98.11,119.35 96.17,117.69 94.24,116 92.39,114.24 90.6,112.41 L 90.67,112.34 Z M 90.67,112.34" />
        </g>
        <g id="jonnieSide08-group153">
            <path id="jonnieSide08-bezier152" stroke="none" fill="rgb(0, 0, 0)" d="M 139.15,152.08 C 139.79,152.24 140.16,151.63 140.28,151.08 140.44,150.52 140.47,149.91 140.48,149.3 140.49,148.7 140.36,148.11 140.37,147.52 140.35,146.93 140.4,146.31 140.3,145.74 L 140.35,145.65 C 140.72,145.82 140.89,146.15 141.04,146.45 141.2,146.76 141.29,147.08 141.36,147.41 141.51,148.06 141.38,148.73 141.28,149.37 141.17,150.01 141.03,150.65 140.75,151.27 140.59,151.56 140.4,151.86 140.11,152.07 139.82,152.29 139.42,152.34 139.11,152.18 L 139.15,152.08 Z M 139.15,152.08" />
        </g>
        <g id="jonnieSide08-group154">
            <path id="jonnieSide08-bezier153" stroke="none" fill="rgb(0, 0, 0)" d="M 141.74,151.09 C 142.22,150.8 142.64,150.39 142.86,149.93 143.1,149.46 143.1,149 142.91,148.5 142.74,147.94 142.57,147.28 142.66,146.71 L 142.77,145.93 C 142.8,145.72 142.8,145.53 142.56,145.3 L 142.59,145.21 C 142.75,145.19 142.93,145.21 143.1,145.32 143.27,145.43 143.4,145.61 143.46,145.78 143.6,146.13 143.62,146.43 143.66,146.71 143.72,147.29 143.61,147.77 143.69,148.33 143.82,148.93 143.69,149.71 143.28,150.2 142.87,150.69 142.33,151 141.78,151.18 L 141.74,151.09 Z M 141.74,151.09" />
        </g>
        <g id="jonnieSide08-group155">
            <path id="jonnieSide08-bezier154" stroke="none" fill="rgb(0, 0, 0)" d="M 144.43,150.75 C 144.82,150.46 145.09,150.02 145.22,149.58 145.37,149.14 145.41,148.67 145.37,148.2 145.33,147.73 145.14,147.29 145.11,146.81 145.06,146.34 145.02,145.84 145.09,145.27 L 145.18,145.24 C 145.62,145.61 145.89,146.08 146.08,146.59 146.27,147.1 146.22,147.67 146.16,148.22 146.1,148.77 145.95,149.31 145.67,149.79 145.38,150.26 144.97,150.65 144.47,150.84 L 144.43,150.75 Z M 144.43,150.75" />
        </g>
        <g id="jonnieSide08-group156">
            <path id="jonnieSide08-bezier155" stroke="none" fill="rgb(0, 0, 0)" d="M 147.21,148.55 C 147.53,147.19 147.79,145.76 147.51,144.39 147.37,143.7 147.23,143.01 146.95,142.37 146.68,141.74 146.27,141.17 145.79,140.67 144.83,139.65 143.61,138.96 142.38,138.26 141.15,137.58 139.89,136.94 138.63,136.29 136.12,135 133.57,133.69 131.26,132.02 128.93,130.4 126.67,128.69 124.46,126.9 122.26,125.11 120.1,123.26 118.11,121.19 117.62,120.67 117.14,120.12 116.69,119.55 L 115.38,117.9 C 114.5,116.81 113.59,115.73 112.66,114.68 110.82,112.54 108.89,110.49 106.85,108.56 105.83,107.59 104.77,106.67 103.65,105.83 102.53,104.99 101.36,104.18 100,103.8 L 100.02,103.71 C 101.44,103.97 102.71,104.7 103.91,105.45 105.11,106.24 106.23,107.12 107.31,108.04 109.48,109.89 111.47,111.93 113.41,114.01 114.36,115.07 115.29,116.15 116.19,117.25 116.64,117.8 117.07,118.37 117.5,118.93 117.92,119.47 118.37,120 118.84,120.52 120.72,122.58 122.83,124.46 124.97,126.29 127.13,128.1 129.36,129.84 131.64,131.49 133.89,133.18 136.37,134.51 138.87,135.85 140.11,136.52 141.35,137.2 142.58,137.91 143.79,138.64 145.05,139.39 146.01,140.47 146.49,141 146.91,141.61 147.19,142.28 147.46,142.95 147.59,143.66 147.71,144.35 147.96,145.79 147.66,147.22 147.31,148.58 L 147.21,148.55 Z M 147.21,148.55" />
        </g>
        <g id="jonnieSide08-group157">
            <path id="jonnieSide08-bezier156" stroke="none" fill="rgb(0, 0, 0)" d="M 98.84,102.13 C 98.65,99.76 98.36,97.39 98.03,95.04 97.71,92.68 97.34,90.34 96.88,88 96.43,85.67 95.84,83.38 95.33,81.07 94.83,78.75 94.22,76.47 93.63,74.15 L 93.72,74.11 C 94.85,76.23 95.62,78.52 96.3,80.82 96.95,83.13 97.32,85.5 97.67,87.87 98.39,92.6 98.82,97.36 98.93,102.13 L 98.84,102.13 Z M 98.84,102.13" />
        </g>
        <g id="jonnieSide08-group158">
            <path id="jonnieSide08-bezier157" stroke="none" fill="rgb(0, 0, 0)" d="M 91.72,55.1 C 94.31,58.3 96.67,61.69 98.7,65.3 99.7,67.1 100.62,68.97 101.33,70.93 101.69,71.9 101.99,72.91 102.21,73.93 102.44,74.96 102.53,76.02 102.61,77.05 102.88,81.19 102.81,85.32 102.52,89.44 102.18,93.55 101.77,97.65 101.06,101.72 L 100.96,101.71 101.52,89.38 C 101.68,85.28 101.96,81.17 101.81,77.09 101.77,73.02 100.13,69.16 98.26,65.53 96.37,61.9 94.12,58.44 91.64,55.16 L 91.72,55.1 Z M 91.72,55.1" />
        </g>
        <g id="jonnieSide08-group195">
            <path id="jonnieSide08-bezier194" stroke="none" fill="rgb(0, 0, 0)" d="M 41.02,266.7 C 42.69,267.06 44.36,267.38 46.03,267.65 46.87,267.78 47.72,267.8 48.53,267.99 49.35,268.17 50.16,268.35 51.01,268.62 L 51.01,268.72 C 50.16,269.01 49.26,269.03 48.4,268.98 47.53,268.94 46.7,268.65 45.87,268.43 44.21,267.98 42.58,267.44 41,266.8 L 41.02,266.7 Z M 41.02,266.7" />
        </g>
        <g id="jonnieSide08-group196">
            <path id="jonnieSide08-bezier195" stroke="none" fill="rgb(0, 0, 0)" d="M 89.84,270.45 C 91.24,270.28 92.65,270.13 94.04,269.99 94.74,269.92 95.44,269.77 96.13,269.8 96.84,269.82 97.53,269.9 98.25,270.04 L 98.27,270.13 C 97.61,270.55 96.89,270.68 96.19,270.8 95.49,270.91 94.78,270.81 94.07,270.79 92.66,270.75 91.25,270.67 89.84,270.55 L 89.84,270.45 Z M 89.84,270.45" />
        </g>
        <g id="jonnieSide08-group197">
            <path id="jonnieSide08-bezier196" stroke="none" fill="rgb(0, 0, 0)" d="M 72.54,47.87 C 73.98,48.68 75.46,49.43 76.94,50.16 78.42,50.89 79.91,51.6 81.42,52.24 82.94,52.87 84.49,53.4 86.02,53.93 86.78,54.19 87.55,54.41 88.33,54.56 89.09,54.67 89.93,54.75 90.55,54.22 L 90.63,54.28 C 90.43,54.68 90,54.93 89.58,55.08 89.15,55.2 88.71,55.25 88.27,55.25 87.4,55.26 86.55,55.09 85.73,54.88 84.09,54.46 82.58,53.71 81.09,52.97 78.1,51.49 75.25,49.79 72.48,47.96 L 72.54,47.87 Z M 72.54,47.87" />
        </g>
        <g id="jonnieSide08-group204">
            <path id="jonnieSide08-bezier203" stroke="none" fill="rgb(0, 0, 0)" d="M 80.56,84.89 C 82.95,84.31 85.33,83.7 87.69,83.05 88.87,82.72 90.02,82.3 91.2,82.03 92.39,81.75 93.57,81.49 94.8,81.27 L 94.84,81.36 C 93.82,82.1 92.65,82.58 91.48,82.99 90.31,83.4 89.08,83.58 87.87,83.83 85.46,84.31 83.02,84.69 80.58,84.99 L 80.56,84.89 Z M 80.56,84.89" />
        </g>
        <g id="jonnieSide08-group205">
            <path id="jonnieSide08-bezier204" stroke="none" fill="rgb(0, 0, 0)" d="M 55.89,80.51 C 56.45,80.46 57,80.44 57.55,80.46 57.83,80.47 58.13,80.41 58.39,80.55 58.63,80.69 58.91,80.87 59.04,81.27 L 58.98,81.35 C 58.64,81.47 58.4,81.53 58.13,81.52 57.86,81.52 57.64,81.34 57.39,81.24 56.89,81.05 56.38,80.84 55.88,80.61 L 55.89,80.51 Z M 55.89,80.51" />
        </g>
        <g id="jonnieSide08-group210">
            <path id="jonnieSide08-bezier209" stroke="none" fill="rgb(0, 0, 0)" d="M 98.25,141.22 C 98.14,143.78 98.06,146.35 98.1,148.91 98.11,149.55 98.13,150.19 98.18,150.82 98.24,151.47 98.3,152.06 98.58,152.64 99.07,153.8 99.68,154.94 100.28,156.07 100.88,157.2 101.5,158.32 102.14,159.43 102.75,160.6 103.26,161.76 103.78,162.94 104.81,165.31 105.75,167.71 106.58,170.15 107.42,172.59 108.16,175.06 108.79,177.57 109.4,180.08 109.93,182.6 110.09,185.24 110.06,187.82 110.31,190.34 110.52,192.9 L 111.24,200.57 111.14,200.58 C 110.62,198.06 110.2,195.53 109.83,192.98 109.47,190.45 109.16,187.85 109.1,185.29 109.02,184.05 108.82,182.79 108.59,181.54 108.37,180.29 108.12,179.04 107.83,177.8 107.27,175.31 106.59,172.84 105.82,170.4 105.04,167.97 104.16,165.56 103.19,163.2 102.69,162.03 102.2,160.82 101.63,159.71 101.02,158.58 100.42,157.44 99.84,156.3 99.26,155.15 98.68,154 98.2,152.79 97.93,152.19 97.86,151.48 97.83,150.85 97.8,150.2 97.79,149.56 97.8,148.91 97.82,146.34 97.97,143.77 98.15,141.21 L 98.25,141.22 Z M 98.25,141.22" />
        </g>
    </g>
</svg>
