<?xml version="1.0" encoding="UTF-8"?>
<!DOCTYPE svg PUBLIC "-//W3C//DTD SVG 1.1//EN" "http://www.w3.org/Graphics/SVG/1.1/DTD/svg11.dtd">
<svg version="1.1" xmlns="http://www.w3.org/2000/svg" xmlns:xlink="http://www.w3.org/1999/xlink" width="180" height="300"  xml:space="preserve" id="jonnieSide06">
    <!-- Generated by PaintCode - http://www.paintcodeapp.com -->
    <g id="jonnieSide06-group">
        <g id="jonnieSide06-group31">
            <path id="jonnieSide06-bezier30" stroke="none" fill="rgb(0, 0, 0)" d="M 116.1,29.39 C 115.88,25.58 115.26,21.78 114.1,18.16 113.5,16.36 112.75,14.6 111.73,13.02 110.71,11.44 109.36,10.04 107.67,9.26 105.96,8.53 104.06,8.22 102.19,8.11 100.31,8 98.41,8.13 96.56,8.47 92.86,9.14 89.24,10.59 86.37,12.99 83.49,15.37 81.6,18.84 81.32,22.56 80.95,26.27 82.08,29.93 83.35,33.51 83.96,35.32 84.59,37.15 84.92,39.08 85.27,41 85.28,43.03 84.76,44.93 84.26,46.83 83.33,48.58 82.2,50.13 81.05,51.69 79.71,53.07 78.29,54.36 L 78.22,54.29 C 79.55,52.92 80.79,51.46 81.82,49.88 82.86,48.3 83.69,46.58 84.09,44.77 84.48,42.95 84.45,41.07 84.08,39.24 83.71,37.41 83.06,35.63 82.41,33.84 81.77,32.04 81.13,30.22 80.71,28.31 80.29,26.4 80.14,24.42 80.34,22.45 80.54,20.51 81.12,18.56 82.08,16.85 83.03,15.12 84.35,13.61 85.86,12.38 88.91,9.9 92.64,8.47 96.45,7.83 98.35,7.51 100.3,7.4 102.22,7.53 104.15,7.68 106.08,8.01 107.88,8.81 109.67,9.68 111.05,11.17 112.06,12.8 113.09,14.44 113.81,16.24 114.38,18.07 115.49,21.75 116.04,25.56 116.2,29.38 L 116.1,29.39 Z M 116.1,29.39" />
        </g>
        <g id="jonnieSide06-group32">
            <path id="jonnieSide06-bezier31" stroke="none" fill="rgb(0, 0, 0)" d="M 113.95,32.67 C 114.03,35.17 113.97,37.68 113.46,40.17 113.16,41.38 112.83,42.68 111.81,43.66 111.55,43.9 111.23,44.09 110.87,44.19 110.69,44.24 110.51,44.27 110.33,44.28 L 109.86,44.29 C 109.26,44.31 108.65,44.37 108.06,44.48 105.66,44.88 103.55,46.21 102.18,48.12 101.47,49.06 100.96,50.17 100.61,51.32 100.43,51.9 100.29,52.49 100.22,53.1 100.15,53.7 100.09,54.33 100.26,54.9 L 100.18,54.95 C 99.59,53.76 99.74,52.41 99.93,51.16 100.16,49.89 100.66,48.66 101.36,47.55 102.09,46.46 103.08,45.52 104.23,44.88 105.38,44.23 106.65,43.85 107.93,43.69 108.57,43.6 109.21,43.56 109.85,43.56 L 110.32,43.57 C 110.45,43.58 110.57,43.56 110.7,43.53 110.94,43.47 111.18,43.35 111.38,43.17 112.23,42.44 112.65,41.21 112.97,40.05 113.59,37.67 113.8,35.16 113.85,32.68 L 113.95,32.67 Z M 113.95,32.67" />
        </g>
        <g id="jonnieSide06-group33">
            <path id="jonnieSide06-bezier32" stroke="none" fill="rgb(0, 0, 0)" d="M 79.28,56.62 C 77.08,57.88 74.93,59.24 72.85,60.7 70.79,62.17 68.75,63.72 67.08,65.6 66.68,66.07 66.29,66.56 65.99,67.09 65.72,67.6 65.45,68.26 65.11,68.79 64.46,69.9 63.73,70.95 62.98,71.99 61.49,74.06 59.93,76.07 58.34,78.07 55.19,82.07 51.94,86.01 48.69,89.88 47.11,91.86 45.52,93.85 44.09,95.93 43.38,96.97 42.7,98.04 42.12,99.15 41.53,100.26 41.03,101.43 40.82,102.68 L 40.72,102.67 C 40.91,100.07 42.22,97.74 43.51,95.55 44.84,93.35 46.39,91.32 47.9,89.26 51.09,85.26 54.49,81.5 57.72,77.57 59.34,75.61 60.94,73.63 62.46,71.61 63.21,70.59 63.96,69.56 64.62,68.5 64.97,67.96 65.19,67.43 65.52,66.83 65.86,66.25 66.28,65.75 66.71,65.27 68.48,63.37 70.57,61.88 72.68,60.45 74.8,59.04 76.99,57.74 79.23,56.53 L 79.28,56.62 Z M 79.28,56.62" />
        </g>
        <g id="jonnieSide06-group34">
            <path id="jonnieSide06-bezier33" stroke="none" fill="rgb(0, 0, 0)" d="M 64.49,140.79 C 64.06,142.21 63.78,143.66 63.66,145.13 63.55,146.58 63.58,148.06 63.89,149.46 64.21,150.88 64.76,152.26 65.25,153.61 65.75,154.97 66.22,156.34 66.93,157.64 L 66.86,157.71 C 65.63,156.76 64.87,155.36 64.29,153.98 63.74,152.56 63.47,151.08 63.19,149.59 62.72,146.56 63.34,143.52 64.4,140.76 L 64.49,140.79 Z M 64.49,140.79" />
        </g>
        <g id="jonnieSide06-group35">
            <path id="jonnieSide06-bezier34" stroke="none" fill="rgb(0, 0, 0)" d="M 66.51,159.34 C 64.96,163.61 63.44,167.89 61.96,172.19 60.5,176.48 58.97,180.78 57.83,185.14 56.89,189.58 55.72,194 54.35,198.34 53.63,200.5 52.92,202.66 52.11,204.79 51.7,205.86 51.27,206.92 50.81,207.96 50.58,208.48 50.33,209 50.06,209.51 49.78,210 49.53,210.53 49.07,210.93 L 49.01,210.85 C 49.68,209.97 50,208.84 50.39,207.79 50.77,206.73 51.12,205.65 51.45,204.57 52.12,202.4 52.78,200.23 53.39,198.05 54.63,193.68 56.01,189.36 57.06,184.94 58.31,180.53 59.93,176.29 61.49,172.02 63.1,167.76 64.74,163.53 66.41,159.3 L 66.51,159.34 Z M 66.51,159.34" />
        </g>
        <g id="jonnieSide06-group36">
            <path id="jonnieSide06-bezier35" stroke="none" fill="rgb(0, 0, 0)" d="M 49.37,205.43 C 46.48,208.88 43.66,212.39 40.95,215.98 39.6,217.78 38.28,219.6 37.06,221.48 36.45,222.42 35.85,223.38 35.35,224.37 35.1,224.86 34.86,225.37 34.71,225.88 34.56,226.42 34.43,226.96 34.3,227.51 32.36,236.27 30.48,245.18 26.67,253.44 25.71,255.5 24.61,257.5 23.27,259.36 22.61,260.29 21.83,261.16 21.09,262 L 18.88,264.54 C 17.4,266.23 15.93,267.93 14.61,269.72 13.96,270.61 13.33,271.53 12.9,272.49 12.45,273.45 12.32,274.46 12.84,275.26 13.06,275.62 13.48,275.98 13.9,276.3 14.34,276.62 14.8,276.92 15.27,277.21 16.22,277.79 17.2,278.34 18.18,278.89 20.13,280.01 22.14,281.11 23.89,282.63 24.74,283.37 25.57,284.33 25.94,285.44 26.37,286.46 26.88,287.45 27.56,288.31 28.23,289.18 29.09,289.9 30.09,290.37 31.09,290.84 32.2,291.07 33.32,291.16 L 33.31,291.26 C 32.19,291.23 31.04,291.06 29.98,290.63 28.91,290.2 27.96,289.48 27.21,288.6 26.46,287.72 25.89,286.71 25.4,285.67 25.02,284.63 24.28,283.87 23.43,283.16 21.72,281.79 19.74,280.72 17.76,279.65 16.77,279.11 15.78,278.58 14.79,278.01 14.3,277.72 13.81,277.42 13.33,277.08 12.86,276.73 12.38,276.38 11.98,275.78 11.64,275.22 11.46,274.54 11.5,273.89 11.54,273.23 11.74,272.63 11.98,272.09 12.47,270.99 13.13,270.05 13.8,269.12 15.16,267.29 16.64,265.58 18.13,263.88 L 20.39,261.37 C 21.15,260.53 21.89,259.72 22.54,258.83 23.86,257.05 24.97,255.1 25.94,253.1 29.79,244.99 31.78,236.15 33.81,227.39 33.95,226.84 34.08,226.29 34.25,225.75 34.43,225.18 34.68,224.67 34.94,224.16 35.48,223.15 36.09,222.2 36.72,221.26 37.98,219.39 39.33,217.58 40.71,215.8 43.47,212.24 46.35,208.77 49.29,205.36 L 49.37,205.43 Z M 49.37,205.43" />
        </g>
        <g id="jonnieSide06-group37">
            <path id="jonnieSide06-bezier36" stroke="none" fill="rgb(0, 0, 0)" d="M 35.94,291.3 L 47.8,291.83 C 48.74,291.82 49.71,291.46 50.45,290.9 50.81,290.61 51.12,290.21 51.06,289.81 51.01,289.4 50.66,289.05 50.26,288.83 49.44,288.35 48.49,288.02 47.58,287.65 46.65,287.28 45.73,286.9 44.83,286.48 43.03,285.62 41.29,284.58 39.78,283.25 38.26,281.93 37,280.29 36.11,278.49 34.3,274.99 32.58,271.22 32.47,267.11 32.41,265.08 32.78,263.04 33.49,261.13 34.2,259.23 35.23,257.46 36.41,255.84 37,255.02 37.67,254.26 38.26,253.5 38.87,252.73 39.46,251.94 40.04,251.14 41.19,249.55 42.29,247.91 43.36,246.25 47.7,239.66 51.64,232.78 55.54,225.9 L 55.63,225.94 C 52.23,233.1 48.42,240.06 44.2,246.8 43.12,248.46 42.01,250.11 40.84,251.73 40.26,252.53 39.66,253.33 39.04,254.11 38.42,254.91 37.78,255.64 37.21,256.43 34.86,259.51 33.19,263.21 33.27,267.1 33.32,270.99 34.93,274.69 36.69,278.19 37.53,279.96 38.71,281.52 40.16,282.82 41.61,284.13 43.29,285.17 45.05,286.03 45.93,286.46 46.83,286.85 47.75,287.23 48.65,287.63 49.58,287.96 50.47,288.48 50.91,288.75 51.36,289.17 51.43,289.77 51.49,290.39 51.07,290.86 50.67,291.17 49.83,291.78 48.84,292.13 47.8,292.13 L 35.94,291.4 35.94,291.3 Z M 35.94,291.3" />
        </g>
        <g id="jonnieSide06-group38">
            <path id="jonnieSide06-bezier37" stroke="none" fill="rgb(0, 0, 0)" d="M 56.6,224.19 C 57.87,222.43 59.21,220.71 60.64,219.06 61.36,218.24 62.1,217.43 62.9,216.68 63.3,216.3 63.71,215.94 64.16,215.61 64.55,215.31 64.89,214.87 65.23,214.46 67.92,211.07 70.35,207.45 72.8,203.87 75.24,200.27 77.58,196.61 80.03,193.02 82.5,189.44 84.93,185.83 87.47,182.3 L 87.55,182.35 C 85.5,186.19 83.19,189.89 80.87,193.57 78.52,197.24 75.99,200.78 73.46,204.33 70.92,207.86 68.41,211.42 65.61,214.78 65.25,215.19 64.91,215.62 64.42,215.97 63.99,216.28 63.57,216.62 63.17,216.97 62.36,217.69 61.6,218.47 60.87,219.26 59.4,220.85 58.01,222.53 56.68,224.25 L 56.6,224.19 Z M 56.6,224.19" />
        </g>
        <g id="jonnieSide06-group42">
            <path id="jonnieSide06-bezier41" stroke="none" fill="rgb(0, 0, 0)" d="M 103.25,141.12 C 103.45,142.93 103.43,144.81 104.12,146.5 104.46,147.35 104.99,148.07 105.56,148.8 106.11,149.54 106.61,150.31 107.09,151.09 109.02,154.23 110.72,157.48 112.36,160.77 115.59,167.36 118.6,174.05 121.14,180.96 121.76,182.69 122.37,184.43 122.79,186.26 123,187.21 123.1,188.07 123.34,188.93 123.57,189.8 123.87,190.64 124.21,191.48 125.52,194.82 127.83,197.76 128.94,201.44 129.19,202.37 129.3,203.32 129.38,204.24 129.46,205.16 129.52,206.08 129.56,207 129.64,208.84 129.7,210.67 129.73,212.5 129.76,214.34 129.8,216.17 129.88,217.99 129.96,219.82 130.01,221.66 130.43,223.43 L 130.34,223.46 C 129.79,221.69 129.63,219.85 129.43,218.02 129.26,216.19 129.15,214.36 129.04,212.53 L 128.7,207.05 C 128.55,205.25 128.47,203.37 127.98,201.71 127.48,200.02 126.62,198.43 125.74,196.83 124.86,195.23 123.97,193.59 123.28,191.85 122.94,190.98 122.65,190.08 122.42,189.17 122.18,188.26 122.08,187.29 121.91,186.45 121.53,184.7 120.96,182.96 120.38,181.23 117.95,174.34 115.03,167.6 111.9,160.99 110.31,157.69 108.68,154.41 106.82,151.26 106.35,150.48 105.87,149.7 105.34,148.96 104.8,148.23 104.25,147.45 103.92,146.58 103.24,144.82 103.31,142.94 103.15,141.13 L 103.25,141.12 Z M 103.25,141.12" />
        </g>
        <g id="jonnieSide06-group43">
            <path id="jonnieSide06-bezier42" stroke="none" fill="rgb(0, 0, 0)" d="M 101.14,59.9 C 103.53,66.24 105.53,72.74 106.87,79.39 107.52,82.71 107.98,86.1 107.99,89.5 108.02,92.9 107.83,96.29 107.54,99.67 106.96,106.43 105.91,113.14 105.09,119.85 104.68,123.2 104.49,126.57 104.43,129.95 104.38,133.32 104.47,136.7 104.77,140.06 L 104.8,140.45 104.41,140.47 C 101.03,140.65 97.65,140.72 94.27,140.68 90.9,140.63 87.47,140.45 84.15,139.89 80.85,139.49 77.47,139.5 74.12,139.55 70.76,139.62 67.4,139.79 64.05,140.06 L 63.29,140.12 63.54,139.4 C 64.29,137.29 65.18,135.27 66.12,133.27 67.07,131.27 68.08,129.3 69.3,127.42 70.51,125.7 71.02,123.54 71.5,121.43 71.94,119.29 72.24,117.12 72.47,114.94 72.91,110.58 73.09,106.19 73.03,101.8 72.97,99.61 72.93,97.41 72.6,95.25 72.52,94.71 72.35,94.22 72.17,93.68 L 71.69,92.1 70.8,88.93 70.89,88.9 71.9,92.04 72.43,93.6 C 72.62,94.11 72.82,94.65 72.92,95.19 73.33,97.38 73.46,99.59 73.54,101.79 73.67,106.2 73.57,110.61 73.2,115.02 73,117.21 72.74,119.41 72.33,121.6 72.11,122.69 71.87,123.77 71.53,124.85 71.36,125.38 71.17,125.92 70.94,126.44 70.71,126.97 70.41,127.5 70.11,127.94 68.96,129.77 67.97,131.73 67.02,133.7 66.09,135.67 65.2,137.69 64.48,139.73 L 63.97,139.07 C 67.35,138.8 70.72,138.63 74.1,138.56 77.48,138.5 80.87,138.53 84.27,138.96 87.59,139.55 90.92,139.75 94.28,139.83 97.64,139.91 101.01,139.86 104.36,139.71 L 104,140.13 C 103.72,136.73 103.65,133.33 103.73,129.94 103.81,126.54 104.02,123.14 104.46,119.77 105.34,113.05 106.42,106.37 107.06,99.63 107.38,96.26 107.6,92.89 107.6,89.51 107.62,86.13 107.2,82.77 106.58,79.45 105.31,72.8 103.37,66.29 101.05,59.94 L 101.14,59.9 Z M 101.14,59.9" />
        </g>
        <g id="jonnieSide06-group44">
            <path id="jonnieSide06-bezier43" stroke="none" fill="rgb(0, 0, 0)" d="M 131.14,226.14 C 132.17,230.16 133.02,234.22 133.64,238.32 133.93,240.37 134.19,242.43 134.14,244.52 134.06,246.59 134.16,248.65 134.34,250.71 134.72,254.82 135.46,258.92 136.9,262.78 137.64,264.7 138.56,266.55 139.8,268.18 141.03,269.8 142.63,271.16 144.52,271.88 148.4,273.26 152.43,274.27 156.49,274.92 158.53,275.24 160.58,275.47 162.63,275.52 163.66,275.54 164.69,275.52 165.68,275.38 166.19,275.3 166.64,275.21 167.08,274.98 167.34,274.87 167.66,274.77 167.98,274.79 168.31,274.8 168.65,274.94 168.89,275.18 169.37,275.66 169.47,276.29 169.46,276.85 169.44,277.43 169.29,277.98 169.06,278.48 168.61,279.49 167.81,280.33 166.97,280.94 165.33,282.23 163.63,283.45 161.83,284.51 158.26,286.62 154.19,288.24 149.9,288.16 148.85,288.15 147.75,287.98 146.76,287.79 145.77,287.63 144.75,287.55 143.73,287.54 141.7,287.52 139.66,287.76 137.62,288.06 135.57,288.33 133.53,288.78 131.33,288.61 130.26,288.52 129.02,288.09 128.29,287.1 128.24,287.05 128.2,286.99 128.16,286.92 L 128.09,286.81 128.04,286.73 C 127.97,286.61 127.91,286.51 127.84,286.38 127.71,286.11 127.6,285.84 127.51,285.58 127.34,285.05 127.24,284.5 127.19,283.96 127.01,281.78 127.37,279.72 127.54,277.67 127.74,275.63 127.83,273.58 127.41,271.64 127.2,270.65 126.86,269.78 126.4,268.83 L 125.06,266.03 122.35,260.44 C 120.58,256.69 118.83,252.94 117.18,249.13 115.54,245.32 113.9,241.5 112.77,237.46 111.74,233.38 111.69,229.18 111.73,225.05 L 111.92,218.83 C 111.95,217.8 111.97,216.77 111.95,215.73 111.93,214.7 111.9,213.66 111.63,212.67 L 111.72,212.64 C 112.03,213.64 112.09,214.69 112.14,215.73 112.19,216.76 112.2,217.8 112.2,218.84 L 112.18,225.05 C 112.22,229.17 112.33,233.34 113.39,237.3 114.55,241.23 116.24,245.03 117.92,248.8 119.63,252.56 121.43,256.29 123.25,260 L 125.96,265.6 127.3,268.41 C 127.75,269.32 128.17,270.39 128.38,271.43 129.31,275.7 127.91,279.91 128.17,283.86 128.22,284.35 128.3,284.83 128.44,285.28 128.52,285.51 128.6,285.72 128.69,285.91 128.74,286.02 128.82,286.14 128.88,286.25 L 128.93,286.33 C 128.92,286.32 128.95,286.37 128.96,286.38 128.99,286.43 129.02,286.47 129.06,286.52 129.58,287.23 130.47,287.57 131.43,287.67 133.38,287.85 135.45,287.44 137.49,287.17 139.55,286.89 141.64,286.65 143.75,286.7 144.8,286.72 145.85,286.8 146.9,286.98 147.94,287.18 148.9,287.34 149.92,287.36 153.98,287.46 157.95,285.94 161.47,283.89 163.24,282.85 164.92,281.66 166.54,280.4 167.37,279.8 168.05,279.09 168.45,278.2 168.65,277.77 168.78,277.3 168.8,276.84 168.82,276.38 168.71,275.91 168.44,275.65 168.18,275.38 167.75,275.38 167.34,275.56 166.86,275.81 166.29,275.93 165.77,276 164.71,276.15 163.66,276.16 162.62,276.13 160.53,276.07 158.46,275.82 156.4,275.49 152.3,274.8 148.26,273.77 144.34,272.35 142.35,271.57 140.7,270.12 139.44,268.45 138.18,266.77 137.26,264.87 136.53,262.92 135.1,259 134.39,254.87 134.04,250.74 133.87,248.67 133.79,246.59 133.89,244.51 133.96,242.46 133.71,240.39 133.44,238.35 132.85,234.25 132.04,230.19 131.04,226.17 L 131.14,226.14 Z M 131.14,226.14" />
        </g>
        <g id="jonnieSide06-group45">
            <path id="jonnieSide06-bezier44" stroke="none" fill="rgb(0, 0, 0)" d="M 111.3,210.35 C 109.63,208.16 107.91,206 106.1,203.91 105.2,202.87 104.27,201.85 103.3,200.88 102.82,200.39 102.29,199.95 101.81,199.43 101.33,198.91 100.89,198.38 100.45,197.84 97.04,193.46 94,188.84 90.94,184.23 L 86.41,177.28 85.3,175.53 C 84.94,174.94 84.57,174.43 84.13,173.91 83.28,172.87 82.3,171.91 81.3,170.98 79.32,169.08 77.2,167.33 75.09,165.54 L 71.92,162.87 70.37,161.48 C 69.88,160.99 69.33,160.56 68.97,159.93 L 69.06,159.89 C 69.43,160.43 70.03,160.84 70.55,161.27 L 72.2,162.51 75.52,165 C 77.73,166.67 79.89,168.39 81.98,170.24 83.01,171.18 84.01,172.15 84.93,173.24 85.39,173.78 85.81,174.4 86.16,174.99 L 87.25,176.75 91.61,183.8 C 94.58,188.45 97.54,193.13 100.85,197.53 101.26,198.07 101.69,198.61 102.14,199.12 102.58,199.63 103.11,200.08 103.58,200.59 104.55,201.6 105.45,202.65 106.33,203.72 108.09,205.85 109.76,208.05 111.38,210.29 L 111.3,210.35 Z M 111.3,210.35" />
        </g>
        <g id="jonnieSide06-group46">
            <path id="jonnieSide06-bezier45" stroke="none" fill="rgb(0, 0, 0)" d="M 84.63,76.75 C 83.73,76.62 82.84,76.87 82.08,77.34 81.32,77.8 80.65,78.41 80,79.03 78.69,80.26 77.56,81.68 76.23,82.93 73.61,85.45 70.88,87.83 68.12,90.17 65.35,92.51 62.56,94.85 59.59,96.93 58.09,97.96 56.58,98.98 55.01,99.89 53.43,100.78 51.82,101.7 50.02,102.12 L 50,102.03 C 50.83,101.7 51.62,101.26 52.38,100.78 53.15,100.32 53.9,99.82 54.64,99.3 56.11,98.28 57.58,97.23 59,96.12 61.88,93.95 64.78,91.81 67.61,89.56 70.43,87.3 73.22,84.99 75.89,82.57 77.24,81.39 78.42,80.01 79.79,78.81 80.47,78.2 81.18,77.62 81.98,77.17 82.78,76.71 83.74,76.48 84.64,76.65 L 84.63,76.75 Z M 84.63,76.75" />
        </g>
        <g id="jonnieSide06-group47">
            <path id="jonnieSide06-bezier46" stroke="none" fill="rgb(0, 0, 0)" d="M 50.06,103.59 C 49.08,106.12 48.04,108.62 46.93,111.09 45.81,113.56 44.67,116.02 43.23,118.35 42.86,118.92 42.47,119.49 41.99,120.01 41.52,120.5 41.08,121 40.65,121.52 39.78,122.55 38.94,123.6 38.13,124.68 36.52,126.84 35.01,129.08 33.68,131.41 32.38,133.74 31.17,136.2 30.73,138.76 30.62,139.37 30.62,140.05 30.55,140.74 30.49,141.43 30.42,142.11 30.33,142.78 30.14,144.13 29.92,145.47 29.68,146.81 29.16,149.48 28.58,152.13 28.02,154.77 27.88,155.43 27.74,156.09 27.63,156.75 27.58,157.08 27.53,157.39 27.52,157.73 27.5,158.08 27.42,158.47 27.27,158.79 26.97,159.46 26.45,160 25.82,160.34 25.51,160.5 25.15,160.62 24.78,160.58 24.4,160.55 24.08,160.26 23.97,159.93 L 24.06,159.89 C 24.2,160.19 24.48,160.38 24.79,160.37 25.1,160.38 25.41,160.26 25.68,160.09 26.22,159.74 26.64,159.21 26.84,158.62 26.95,158.32 27,158.03 27,157.71 26.99,157.36 27.02,157.01 27.06,156.67 27.13,155.98 27.23,155.31 27.33,154.64 L 28.69,146.64 C 28.92,145.31 29.13,143.98 29.3,142.65 29.39,141.98 29.47,141.32 29.54,140.65 29.62,140 29.62,139.32 29.75,138.59 30.3,135.81 31.61,133.36 32.98,131.01 34.38,128.66 35.95,126.44 37.61,124.29 38.45,123.22 39.31,122.16 40.21,121.14 40.66,120.63 41.12,120.13 41.6,119.64 42.05,119.18 42.44,118.63 42.81,118.08 44.28,115.83 45.49,113.4 46.66,110.97 47.82,108.53 48.92,106.05 49.96,103.56 L 50.06,103.59 Z M 50.06,103.59" />
        </g>
        <g id="jonnieSide06-group48">
            <path id="jonnieSide06-bezier47" stroke="none" fill="rgb(0, 0, 0)" d="M 26.29,150.24 C 24.71,151.28 23.26,152.54 22.07,154.01 20.91,155.47 20,157.25 20.03,159.12 20.04,160.08 20.03,161.03 19.96,161.99 19.86,162.94 19.81,163.92 19.28,164.83 19.14,165.05 18.92,165.26 18.63,165.35 18.34,165.43 18.04,165.38 17.8,165.28 17.3,165.09 16.92,164.76 16.56,164.45 15.83,163.8 15.19,163.09 14.58,162.35 13.37,160.85 12.32,159.22 11.56,157.44 10.82,155.68 10.33,153.65 10.87,151.69 11.42,149.78 12.44,148.13 13.45,146.51 14.48,144.89 15.57,143.34 16.66,141.78 18.81,138.66 21.06,135.56 22.55,132.15 23.97,128.62 25.6,125.17 27.25,121.74 28.94,118.33 30.66,114.93 32.49,111.6 33.42,109.93 34.35,108.27 35.35,106.65 35.85,105.84 36.37,105.03 36.91,104.25 37.46,103.47 38.01,102.68 38.73,102.03 L 38.79,102.11 C 38.13,102.78 37.64,103.6 37.14,104.4 36.65,105.21 36.19,106.04 35.74,106.87 34.83,108.54 33.96,110.22 33.11,111.92 31.41,115.31 29.74,118.73 28.15,122.17 26.54,125.61 24.93,129.04 23.45,132.54 21.83,136.09 19.52,139.15 17.31,142.24 16.2,143.78 15.09,145.32 14.06,146.9 13.04,148.48 12.02,150.11 11.49,151.85 10.99,153.6 11.4,155.51 12.09,157.22 12.8,158.95 13.81,160.56 14.97,162.03 15.55,162.77 16.17,163.48 16.86,164.11 17.2,164.42 17.56,164.72 17.95,164.88 18.35,165.06 18.72,164.97 18.95,164.6 19.41,163.87 19.51,162.87 19.61,161.95 19.7,161.02 19.72,160.07 19.73,159.12 19.73,157.15 20.71,155.34 21.92,153.89 23.15,152.42 24.62,151.17 26.23,150.15 L 26.29,150.24 Z M 26.29,150.24" />
        </g>
        <g id="jonnieSide06-group49">
            <path id="jonnieSide06-bezier48" stroke="none" fill="rgb(0, 0, 0)" d="M 110.03,97.53 C 113.94,98.76 117.82,100.11 121.6,101.77 125.26,103.63 129.16,104.85 133.11,105.92 135.09,106.43 137.08,106.89 139.08,107.24 141.08,107.59 143.1,107.92 145.08,107.92 145.59,107.92 146.03,107.89 146.55,107.81 L 148.09,107.62 C 149.12,107.52 150.15,107.41 151.18,107.37 152.21,107.33 153.25,107.32 154.29,107.39 154.81,107.43 155.32,107.49 155.84,107.61 156.32,107.74 156.93,107.86 157.18,108.4 L 157.09,108.44 C 156.83,108.03 156.26,107.96 155.79,107.89 155.29,107.83 154.78,107.83 154.27,107.84 153.26,107.86 152.25,107.95 151.23,108.07 150.22,108.2 149.21,108.32 148.2,108.48 L 146.69,108.73 C 146.21,108.82 145.62,108.9 145.1,108.92 142.97,108.96 140.92,108.62 138.89,108.22 136.87,107.79 134.87,107.27 132.89,106.69 128.95,105.52 125.01,104.18 121.38,102.23 117.7,100.46 113.86,98.98 109.99,97.62 L 110.03,97.53 Z M 110.03,97.53" />
        </g>
        <g id="jonnieSide06-group50">
            <path id="jonnieSide06-bezier49" stroke="none" fill="rgb(0, 0, 0)" d="M 108.02,111.53 C 112.2,112.59 116.42,113.47 120.68,114.04 122.81,114.32 124.95,114.53 127.08,114.5 129.24,114.44 131.41,114.44 133.58,114.61 135.75,114.78 137.93,115.14 140.03,115.82 141.08,116.16 142.1,116.57 143.09,117.07 144.08,117.58 144.98,118.12 145.94,118.57 147.84,119.52 149.83,120.29 151.88,120.82 152.91,121.09 153.96,121.27 155.02,121.31 156.07,121.36 157.14,121.24 158.11,120.78 L 158.16,120.87 C 157.24,121.48 156.11,121.7 155.02,121.76 153.91,121.82 152.82,121.7 151.74,121.5 149.58,121.1 147.51,120.36 145.51,119.47 144.51,119.02 143.55,118.46 142.62,118 141.68,117.52 140.71,117.1 139.71,116.75 137.73,116.05 135.63,115.64 133.51,115.41 131.39,115.19 129.25,115.14 127.09,115.15 124.9,115.13 122.75,114.87 120.61,114.54 116.34,113.83 112.14,112.82 108,111.62 L 108.02,111.53 Z M 108.02,111.53" />
        </g>
        <g id="jonnieSide06-group51">
            <path id="jonnieSide06-bezier50" stroke="none" fill="rgb(0, 0, 0)" d="M 155.12,111.52 C 156.18,111.22 157.28,111.01 158.41,111.01 158.98,111.03 159.57,111.1 160.14,111.39 160.42,111.53 160.69,111.74 160.88,112.03 161.07,112.32 161.16,112.68 161.2,112.94 161.39,114.12 161.36,115.27 161.08,116.36 160.8,117.45 160.41,118.5 159.81,119.46 L 159.71,119.43 C 159.79,118.31 159.96,117.24 160.1,116.18 160.22,115.12 160.49,114.06 160.41,113.06 160.39,112.54 160.23,112.22 159.81,111.95 159.42,111.7 158.9,111.57 158.38,111.51 157.33,111.38 156.22,111.45 155.15,111.62 L 155.12,111.52 Z M 155.12,111.52" />
        </g>
        <g id="jonnieSide06-group52">
            <path id="jonnieSide06-bezier51" stroke="none" fill="rgb(0, 0, 0)" d="M 153.59,118.31 C 153.75,117.27 153.84,116.22 153.83,115.21 153.81,114.7 153.68,114.21 153.68,113.74 153.67,113.25 153.66,112.8 153.59,112.23 L 153.67,112.17 C 154.22,112.45 154.53,113.04 154.67,113.59 154.83,114.15 154.7,114.72 154.62,115.26 154.45,116.34 154.12,117.37 153.68,118.34 L 153.59,118.31 Z M 153.59,118.31" />
        </g>
        <g id="jonnieSide06-group191">
            <path id="jonnieSide06-bezier190" stroke="none" fill="rgb(0, 0, 0)" d="M 24.87,258.54 L 28.73,260.34 C 29.38,260.64 30.06,260.85 30.66,261.22 31.27,261.57 31.82,261.98 32.43,262.37 L 32.42,262.47 C 31.63,262.6 30.9,262.36 30.22,262.12 29.54,261.87 28.96,261.42 28.35,261.05 27.14,260.29 25.96,259.48 24.82,258.63 L 24.87,258.54 Z M 24.87,258.54" />
        </g>
        <g id="jonnieSide06-group192">
            <path id="jonnieSide06-bezier191" stroke="none" fill="rgb(0, 0, 0)" d="M 127.86,268.21 C 129.27,267.41 130.71,266.67 132.18,265.99 132.92,265.65 133.64,265.24 134.44,265.05 135.23,264.88 136.09,264.68 136.95,264.95 L 136.94,265.05 C 136.19,265.33 135.5,265.7 134.76,266 134.03,266.32 133.24,266.48 132.48,266.73 130.96,267.24 129.43,267.76 127.9,268.29 L 127.86,268.21 Z M 127.86,268.21" />
        </g>
        <g id="jonnieSide06-group199">
            <path id="jonnieSide06-bezier198" stroke="none" fill="rgb(0, 0, 0)" d="M 79.76,54.88 C 81.49,54.91 83.22,55.03 84.95,55.29 85.8,55.43 86.66,55.6 87.51,55.88 87.94,56.01 88.37,56.24 88.73,56.41 89.09,56.56 89.5,56.69 89.9,56.81 91.53,57.26 93.23,57.47 94.91,57.79 96.59,58.05 98.28,58.47 99.97,58.45 L 100,58.55 C 99.15,58.9 98.25,58.89 97.38,58.92 96.51,58.93 95.63,58.86 94.77,58.77 93.03,58.58 91.33,58.14 89.66,57.57 89.24,57.42 88.84,57.27 88.41,57.05 88.01,56.84 87.68,56.64 87.29,56.49 86.52,56.18 85.69,55.96 84.85,55.78 83.18,55.4 81.47,55.15 79.76,54.97 L 79.76,54.88 Z M 79.76,54.88" />
        </g>
        <g id="jonnieSide06-group202">
            <path id="jonnieSide06-bezier201" stroke="none" fill="rgb(0, 0, 0)" d="M 61.72,75.05 C 63.23,76.88 64.83,78.63 66.51,80.29 67.35,81.11 68.27,81.84 69.1,82.65 69.95,83.46 70.79,84.24 71.7,85.04 L 71.65,85.13 C 70.47,84.81 69.41,84.14 68.45,83.41 67.49,82.67 66.72,81.73 65.93,80.84 64.35,79.03 62.93,77.12 61.64,75.11 L 61.72,75.05 Z M 61.72,75.05" />
        </g>
    </g>
</svg>
