<?xml version="1.0" encoding="UTF-8"?>
<!DOCTYPE svg PUBLIC "-//W3C//DTD SVG 1.1//EN" "http://www.w3.org/Graphics/SVG/1.1/DTD/svg11.dtd">
<svg version="1.1" xmlns="http://www.w3.org/2000/svg" xmlns:xlink="http://www.w3.org/1999/xlink" width="180" height="100"  xml:space="preserve" id="jonnieTop03">
    <!-- Generated by PaintCode - http://www.paintcodeapp.com -->
    <g id="jonnieTop03-group531">
        <g id="jonnieTop03-group211">
            <path id="jonnieTop03-bezier210" stroke="none" fill="rgb(0, 0, 0)" d="M 77.06,43.24 C 77.21,38.82 79.23,34.52 82.5,31.52 85.75,28.5 90.23,26.84 94.7,26.98 99.16,27.1 103.57,29.03 106.67,32.29 109.8,35.5 111.57,40.03 111.4,44.54 111.29,49.06 109.23,53.49 105.87,56.53 102.51,59.59 97.94,61.23 93.4,61.04 91.15,60.92 88.9,60.38 86.86,59.43 84.82,58.47 82.98,57.1 81.48,55.44 78.46,52.14 76.83,47.65 77.06,43.24 Z M 77.16,43.24 C 77.1,45.44 77.48,47.64 78.29,49.67 79.1,51.7 80.34,53.54 81.87,55.07 84.93,58.15 89.16,59.94 93.45,60.04 97.71,60.22 102.04,58.68 105.2,55.8 108.42,52.97 110.43,48.82 110.6,44.51 110.81,40.21 109.18,35.87 106.2,32.74 103.25,29.57 99.02,27.65 94.68,27.48 90.34,27.25 85.92,28.77 82.64,31.68 81.01,33.13 79.65,34.91 78.7,36.89 77.77,38.87 77.24,41.05 77.16,43.24 Z M 77.16,43.24" />
        </g>
        <g id="jonnieTop03-group212">
            <path id="jonnieTop03-bezier211" stroke="none" fill="rgb(0, 0, 0)" d="M 111.55,42.46 C 112.11,42.61 112.66,42.81 113.18,43.11 113.67,43.43 114.24,43.86 114.38,44.64 114.45,45.01 114.36,45.46 114.12,45.78 113.88,46.11 113.57,46.31 113.25,46.42 112.62,46.62 111.99,46.62 111.39,46.38 L 111.38,46.28 C 111.92,45.97 112.43,45.76 112.84,45.5 113.24,45.24 113.56,45.11 113.59,44.71 113.61,44.33 113.29,43.86 112.89,43.51 112.49,43.14 112.01,42.82 111.51,42.56 L 111.55,42.46 Z M 111.55,42.46" />
        </g>
        <g id="jonnieTop03-group213">
            <path id="jonnieTop03-bezier212" stroke="none" fill="rgb(0, 0, 0)" d="M 100.54,86.31 C 101.49,84.49 102.44,82.68 103.36,80.86 103.82,79.95 104.19,79 104.71,78.13 L 105.47,76.82 C 105.59,76.6 105.72,76.39 105.83,76.17 105.93,75.97 106.09,75.7 105.96,75.61 L 105.96,75.51 C 106.04,75.49 106.16,75.54 106.2,75.63 106.25,75.71 106.26,75.79 106.27,75.86 106.29,76.01 106.28,76.15 106.27,76.29 106.24,76.57 106.19,76.83 106.12,77.09 105.99,77.6 105.8,78.09 105.6,78.57 105.2,79.53 104.6,80.37 104.06,81.25 102.97,83 101.82,84.69 100.62,86.36 L 100.54,86.31 Z M 100.54,86.31" />
        </g>
        <g id="jonnieTop03-group214">
            <path id="jonnieTop03-bezier213" stroke="none" fill="rgb(0, 0, 0)" d="M 77.98,60.44 C 78.9,63.54 79.83,66.64 80.7,69.75 81.16,71.3 81.51,72.89 82.09,74.39 82.7,75.87 83.1,77.41 83.33,79.06 L 83.24,79.1 C 82.19,77.78 81.54,76.24 81.23,74.64 80.9,73.03 80.54,71.46 80.16,69.89 L 77.88,60.47 77.98,60.44 Z M 77.98,60.44" />
        </g>
        <g id="jonnieTop03-group215">
            <path id="jonnieTop03-bezier214" stroke="none" fill="rgb(0, 0, 0)" d="M 102.33,76.76 C 103.24,75.71 103.65,74.32 103.95,72.98 104.25,71.63 104.37,70.24 104.41,68.85 104.44,67.46 104.32,66.07 104.31,64.68 104.31,63.29 104.29,61.89 104.38,60.46 L 104.48,60.45 C 104.93,61.81 105.17,63.21 105.31,64.63 105.45,66.05 105.35,67.48 105.21,68.9 105.07,70.32 104.84,71.73 104.43,73.1 103.99,74.45 103.45,75.83 102.4,76.83 L 102.33,76.76 Z M 102.33,76.76" />
        </g>
        <g id="jonnieTop03-group216">
            <path id="jonnieTop03-bezier215" stroke="none" fill="rgb(0, 0, 0)" d="M 72.2,14.76 C 72.2,15.22 72.24,15.67 72.33,16.11 72.43,16.55 72.55,17 72.64,17.46 72.81,18.37 72.92,19.29 73.01,20.21 L 73.42,25.71 C 73.59,27.53 73.87,29.33 74.18,31.1 74.49,32.87 74.95,34.61 75.69,36.3 L 75.6,36.35 C 74.38,34.93 73.66,33.12 73.2,31.31 72.75,29.48 72.68,27.6 72.62,25.76 L 72.51,20.24 C 72.49,19.33 72.45,18.41 72.34,17.51 72.29,17.06 72.2,16.61 72.13,16.15 72.08,15.69 72.07,15.21 72.1,14.76 L 72.2,14.76 Z M 72.2,14.76" />
        </g>
        <g id="jonnieTop03-group217">
            <path id="jonnieTop03-bezier216" stroke="none" fill="rgb(0, 0, 0)" d="M 103.31,27.34 C 101.93,25.2 100.51,23.08 99.01,21.03 97.51,18.97 95.94,16.97 94.15,15.2 92.36,13.43 90.28,12.02 87.98,11.15 85.69,10.24 83.14,10.01 80.6,9.72 L 80.6,9.62 C 83.15,9.34 85.78,9.41 88.32,10.21 90.86,11.02 92.98,12.76 94.72,14.64 96.5,16.53 98,18.62 99.42,20.74 100.82,22.88 102.12,25.08 103.4,27.29 L 103.31,27.34 Z M 103.31,27.34" />
        </g>
        <g id="jonnieTop03-group218">
            <path id="jonnieTop03-bezier217" stroke="none" fill="rgb(0, 0, 0)" d="M 85.54,83.46 C 86.26,84.02 87.13,84.4 87.98,84.75 88.84,85.1 89.71,85.4 90.6,85.67 92.37,86.22 94.16,86.67 95.98,87.06 97.79,87.45 99.62,87.72 101.43,88.13 103.24,88.54 105.06,88.95 106.85,89.5 L 106.84,89.6 C 104.96,89.59 103.1,89.39 101.25,89.11 99.4,88.83 97.59,88.33 95.79,87.84 93.98,87.35 92.19,86.8 90.43,86.14 89.56,85.8 88.7,85.44 87.86,85.03 87.02,84.6 86.18,84.17 85.47,83.53 L 85.54,83.46 Z M 85.54,83.46" />
        </g>
        <g id="jonnieTop03-group219">
            <path id="jonnieTop03-bezier218" stroke="none" fill="rgb(0, 0, 0)" d="M 106.87,89.51 C 108.04,90.25 109.39,90.67 110.74,90.97 112.09,91.26 113.47,91.4 114.86,91.44 117.63,91.51 120.38,91.09 123.11,90.54 128.59,89.54 134.09,88.66 139.62,87.93 145.15,87.22 150.7,86.51 156.33,86.62 157.75,86.65 159.15,86.84 160.51,86.89 161.88,86.96 163.26,86.93 164.62,86.82 165.99,86.69 167.35,86.47 168.61,85.95 169.23,85.7 169.84,85.38 170.3,84.9 170.77,84.43 171.02,83.74 170.86,83.06 L 170.95,83.04 C 171.19,83.72 170.99,84.52 170.51,85.08 170.05,85.65 169.43,86.05 168.8,86.37 167.5,86.99 166.1,87.3 164.7,87.51 163.31,87.72 161.89,87.77 160.48,87.75 159.05,87.74 157.69,87.6 156.31,87.62 150.8,87.64 145.24,88.12 139.72,88.72 134.19,89.35 128.68,90.14 123.19,91.03 120.46,91.52 117.64,91.88 114.85,91.74 113.45,91.67 112.05,91.49 110.69,91.17 109.34,90.82 107.99,90.37 106.81,89.59 L 106.87,89.51 Z M 106.87,89.51" />
        </g>
        <g id="jonnieTop03-group220">
            <path id="jonnieTop03-bezier219" stroke="none" fill="rgb(0, 0, 0)" d="M 160.2,79.34 C 161.55,79.67 162.92,79.94 164.3,80.05 164.99,80.1 165.69,80.12 166.35,79.98 166.67,79.91 167,79.79 167.21,79.57 167.31,79.45 167.36,79.35 167.41,79.17 167.43,79.04 167.41,78.89 167.35,78.76 167.08,78.21 166.41,77.88 165.8,77.6 165.18,77.31 164.53,77.08 163.87,76.83 163.22,76.59 162.56,76.35 161.92,76 161.77,75.93 161.58,75.79 161.47,75.72 161.39,75.65 161.34,75.65 161.3,75.64 161.24,75.64 161.18,75.62 161.11,75.63 160.84,75.65 160.53,75.79 160.23,75.95 159.04,76.6 157.88,77.43 156.64,78.08 155.4,78.75 154.09,79.31 152.73,79.72 151.38,80.13 149.98,80.39 148.56,80.52 147.15,80.63 145.74,80.62 144.34,80.58 138.75,80.42 133.19,79.99 127.64,79.6 124.87,79.37 122.09,79.21 119.32,79.13 117.93,79.1 116.55,79.09 115.17,79.19 114.48,79.23 113.79,79.3 113.12,79.43 112.45,79.58 111.76,79.76 111.27,80.23 L 111.19,80.17 C 111.67,79.62 112.38,79.37 113.05,79.17 113.73,78.97 114.42,78.84 115.12,78.74 116.52,78.55 117.92,78.48 119.32,78.44 122.12,78.36 124.91,78.48 127.7,78.6 133.28,78.87 138.82,79.51 144.37,79.79 145.76,79.84 147.14,79.88 148.51,79.79 149.87,79.69 151.23,79.47 152.55,79.1 153.87,78.72 155.15,78.2 156.37,77.57 157.61,76.95 158.74,76.18 160,75.5 160.33,75.35 160.67,75.19 161.09,75.16 161.19,75.15 161.3,75.17 161.42,75.19 161.55,75.22 161.66,75.28 161.72,75.33 161.9,75.45 161.99,75.52 162.15,75.61 162.72,75.95 163.37,76.2 164.02,76.46 164.66,76.72 165.32,76.97 165.95,77.28 166.57,77.6 167.27,77.91 167.63,78.64 167.71,78.83 167.73,79.04 167.68,79.25 167.65,79.41 167.54,79.64 167.41,79.77 167.12,80.05 166.75,80.16 166.4,80.23 165.69,80.35 164.98,80.32 164.28,80.25 162.89,80.11 161.52,79.81 160.17,79.43 L 160.2,79.34 Z M 160.2,79.34" />
        </g>
        <g id="jonnieTop03-group221">
            <path id="jonnieTop03-bezier220" stroke="none" fill="rgb(0, 0, 0)" d="M 113.23,78.06 C 111.87,77.37 110.48,76.72 109.08,76.18 108.38,75.91 107.64,75.75 106.96,75.48 106.27,75.22 105.62,74.96 104.85,74.81 L 104.83,74.71 C 105.58,74.3 106.47,74.37 107.24,74.52 108.04,74.68 108.72,75.09 109.41,75.45 110.79,76.18 112.07,77.03 113.29,77.98 L 113.23,78.06 Z M 113.23,78.06" />
        </g>
        <g id="jonnieTop03-group222">
            <path id="jonnieTop03-bezier221" stroke="none" fill="rgb(0, 0, 0)" d="M 111.41,40.15 L 114.42,39.03 C 114.92,38.84 115.38,38.57 115.89,38.46 116.4,38.33 116.89,38.27 117.46,38.18 L 117.52,38.26 C 117.24,38.82 116.71,39.14 116.23,39.4 115.74,39.66 115.17,39.69 114.64,39.8 113.58,40.01 112.51,40.15 111.44,40.25 L 111.41,40.15 Z M 111.41,40.15" />
        </g>
        <g id="jonnieTop03-group223">
            <path id="jonnieTop03-bezier222" stroke="none" fill="rgb(0, 0, 0)" d="M 116.62,36.3 C 117.02,35.62 117.25,34.86 117.37,34.1 117.5,33.34 117.51,32.57 117.43,31.82 117.36,31.05 117.11,30.33 116.98,29.58 116.85,28.83 116.69,28.07 116.61,27.24 L 116.7,27.2 C 117.28,27.81 117.67,28.55 117.95,29.33 118.23,30.11 118.25,30.96 118.23,31.78 118.21,33.43 117.75,35.11 116.7,36.36 L 116.62,36.3 Z M 116.62,36.3" />
        </g>
        <g id="jonnieTop03-group224">
            <path id="jonnieTop03-bezier223" stroke="none" fill="rgb(0, 0, 0)" d="M 115.98,23.77 C 113.68,23.41 111.38,23.04 109.09,22.65 107.94,22.45 106.78,22.34 105.66,22.03 104.53,21.72 103.42,21.38 102.33,20.88 L 102.35,20.78 C 103.55,20.75 104.71,20.88 105.86,21.05 107.01,21.22 108.13,21.58 109.25,21.86 111.51,22.43 113.76,23.03 116,23.67 L 115.98,23.77 Z M 115.98,23.77" />
        </g>
        <g id="jonnieTop03-group225">
            <path id="jonnieTop03-bezier224" stroke="none" fill="rgb(0, 0, 0)" d="M 134.34,25.12 C 131.91,25.2 129.5,25.04 127.08,24.9 125.88,24.82 124.66,24.82 123.47,24.62 122.28,24.42 121.09,24.18 119.92,23.77 L 119.94,23.67 C 121.17,23.53 122.38,23.56 123.58,23.62 124.79,23.68 125.97,23.94 127.17,24.1 L 130.75,24.6 C 131.94,24.76 133.14,24.94 134.34,25.02 L 134.34,25.12 Z M 134.34,25.12" />
        </g>
        <g id="jonnieTop03-group226">
            <path id="jonnieTop03-bezier225" stroke="none" fill="rgb(0, 0, 0)" d="M 131.52,33.72 C 131.6,33.09 131.59,32.45 131.57,31.82 131.55,31.19 131.51,30.56 131.44,29.93 131.39,29.3 131.23,28.68 131.25,28.05 131.26,27.42 131.3,26.79 131.45,26.12 L 131.55,26.1 C 131.94,26.68 132.12,27.33 132.24,27.97 132.37,28.61 132.27,29.27 132.24,29.91 132.17,31.2 132.04,32.51 131.62,33.74 L 131.52,33.72 Z M 131.52,33.72" />
        </g>
        <g id="jonnieTop03-group227">
            <path id="jonnieTop03-bezier226" stroke="none" fill="rgb(0, 0, 0)" d="M 120.23,37.5 C 122.27,36.86 124.32,36.23 126.37,35.63 127.4,35.33 128.4,34.94 129.45,34.75 130.51,34.55 131.56,34.39 132.66,34.37 L 132.69,34.47 C 131.73,35.02 130.72,35.39 129.7,35.72 128.68,36.06 127.61,36.19 126.56,36.41 124.47,36.84 122.36,37.23 120.25,37.6 L 120.23,37.5 Z M 120.23,37.5" />
        </g>
        <g id="jonnieTop03-group228">
            <path id="jonnieTop03-bezier227" stroke="none" fill="rgb(0, 0, 0)" d="M 132.67,34.37 C 135.94,33.93 139.25,33.65 142.57,33.8 145.88,34.18 149.13,34.41 152.44,34.54 155.73,34.68 159.03,34.67 162.3,34.61 163.12,34.58 163.93,34.56 164.74,34.51 165.14,34.48 165.54,34.44 165.93,34.38 166.3,34.31 166.72,34.21 166.92,34.07 166.97,34.04 166.97,34.03 166.97,34.06 166.98,34.09 166.98,33.88 166.98,33.82 166.98,33.64 166.97,33.44 166.94,33.27 166.88,32.91 166.74,32.6 166.45,32.4 165.86,31.99 164.97,31.94 164.17,31.82 L 164.17,31.72 C 164.59,31.69 165,31.67 165.42,31.69 165.84,31.71 166.29,31.75 166.71,31.98 167.15,32.21 167.44,32.68 167.56,33.12 167.62,33.35 167.66,33.57 167.68,33.79 167.69,33.94 167.71,33.94 167.69,34.18 167.66,34.41 167.52,34.57 167.41,34.66 166.94,35.02 166.52,35.09 166.1,35.2 165.67,35.3 165.25,35.37 164.83,35.43 164,35.55 163.16,35.6 162.33,35.63 159,35.73 155.7,35.46 152.4,35.24 150.75,35.12 149.1,34.98 147.45,34.8 146.63,34.71 145.81,34.61 144.99,34.48 144.17,34.33 143.37,34.23 142.55,34.16 139.27,33.93 135.96,34.12 132.68,34.47 L 132.67,34.37 Z M 132.67,34.37" />
        </g>
        <g id="jonnieTop03-group229">
            <path id="jonnieTop03-bezier228" stroke="none" fill="rgb(0, 0, 0)" d="M 166.29,29.72 C 166.07,28.54 165.7,27.38 165.2,26.29 164.7,25.2 164.05,24.18 163.16,23.42 162.29,22.65 161.16,22.24 160.02,22.3 159.46,22.32 158.87,22.46 158.27,22.57 L 156.48,22.91 C 154.1,23.38 151.72,23.89 149.29,24.14 148.08,24.25 146.86,24.35 145.63,24.34 144.41,24.31 143.13,24.29 141.99,23.76 L 142.02,23.67 C 142.61,23.8 143.21,23.81 143.8,23.78 144.4,23.77 145,23.72 145.59,23.65 146.78,23.51 147.98,23.35 149.17,23.15 151.55,22.78 153.95,22.48 156.35,22.13 L 158.15,21.86 C 158.74,21.78 159.35,21.65 160,21.65 161.3,21.63 162.59,22.17 163.49,23.05 164.41,23.93 165.02,25.03 165.48,26.17 165.92,27.31 166.23,28.5 166.39,29.71 L 166.29,29.72 Z M 166.29,29.72" />
        </g>
        <g id="jonnieTop03-group230">
            <path id="jonnieTop03-bezier229" stroke="none" fill="rgb(0, 0, 0)" d="M 138.82,23.77 C 138.05,23.69 137.29,23.67 136.56,23.72 136.19,23.75 135.85,23.89 135.5,23.87 135.15,23.85 134.82,23.83 134.36,23.76 L 134.31,23.67 C 134.53,23.24 134.95,23 135.35,22.88 135.77,22.74 136.2,22.86 136.59,22.92 137.4,23.05 138.15,23.31 138.85,23.67 L 138.82,23.77 Z M 138.82,23.77" />
        </g>
        <g id="jonnieTop03-group231">
            <path id="jonnieTop03-bezier230" stroke="none" fill="rgb(0, 0, 0)" d="M 77.92,75.43 C 73.03,75.04 68.15,74.4 63.32,73.4 60.91,72.9 58.48,72.37 56.17,71.43 55.03,70.94 53.89,70.42 52.84,69.71 51.82,69.01 50.77,68.13 50.38,66.9 L 50.47,66.86 C 50.79,67.39 51.2,67.82 51.68,68.17 52.15,68.54 52.66,68.84 53.2,69.11 54.26,69.66 55.38,70.12 56.53,70.5 58.81,71.28 61.13,72.02 63.5,72.62 65.87,73.21 68.27,73.71 70.68,74.15 73.08,74.61 75.5,75.01 77.93,75.33 L 77.92,75.43 Z M 77.92,75.43" />
        </g>
        <g id="jonnieTop03-group232">
            <path id="jonnieTop03-bezier231" stroke="none" fill="rgb(0, 0, 0)" d="M 58.56,52.22 C 57.27,52.63 56.01,53.08 54.83,53.65 54.24,53.93 53.72,54.32 53.16,54.6 52.59,54.89 52.07,55.19 51.47,55.58 L 51.38,55.52 C 51.54,54.8 52.05,54.2 52.61,53.76 53.18,53.31 53.88,53.12 54.53,52.9 55.85,52.48 57.19,52.26 58.54,52.12 L 58.56,52.22 Z M 58.56,52.22" />
        </g>
        <g id="jonnieTop03-group233">
            <path id="jonnieTop03-bezier232" stroke="none" fill="rgb(0, 0, 0)" d="M 28.87,54.34 C 29.72,54.62 30.64,54.57 31.53,54.52 32.42,54.46 33.31,54.34 34.2,54.21 L 39.57,53.42 C 41.36,53.16 43.16,52.87 44.98,52.83 46.8,52.79 48.63,52.87 50.43,53.23 L 50.42,53.33 C 48.61,53.52 46.82,53.66 45.04,53.83 43.25,54 41.45,54.06 39.66,54.21 L 34.26,54.71 C 33.35,54.77 32.45,54.82 31.53,54.82 30.63,54.8 29.69,54.78 28.84,54.43 L 28.87,54.34 Z M 28.87,54.34" />
        </g>
        <g id="jonnieTop03-group234">
            <path id="jonnieTop03-bezier233" stroke="none" fill="rgb(0, 0, 0)" d="M 29.18,64.23 C 28.65,62.94 28.36,61.55 28.24,60.15 28.18,59.45 28.07,58.73 28.21,58.03 28.34,57.34 28.55,56.64 28.99,56.03 L 29.08,56.05 C 29.19,56.78 29.2,57.45 29.2,58.12 29.22,58.79 29.07,59.45 29.04,60.13 28.98,61.48 29.03,62.84 29.27,64.2 L 29.18,64.23 Z M 29.18,64.23" />
        </g>
        <g id="jonnieTop03-group235">
            <path id="jonnieTop03-bezier234" stroke="none" fill="rgb(0, 0, 0)" d="M 49.53,69.77 C 46.1,68.89 42.67,68.04 39.23,67.27 37.51,66.89 35.77,66.6 34.07,66.2 32.35,65.83 30.66,65.34 28.92,65.21 L 28.9,65.11 C 29.78,64.86 30.7,64.89 31.59,64.92 32.49,64.96 33.38,65.08 34.26,65.22 36.02,65.5 37.72,66.01 39.43,66.49 42.84,67.44 46.21,68.51 49.56,69.67 L 49.53,69.77 Z M 49.53,69.77" />
        </g>
        <g id="jonnieTop03-group236">
            <path id="jonnieTop03-bezier235" stroke="none" fill="rgb(0, 0, 0)" d="M 28.92,63.6 C 27.78,63.63 26.64,63.71 25.51,63.8 24.95,63.85 24.39,63.99 23.82,63.94 23.26,63.9 22.69,63.83 22.1,63.6 L 22.09,63.5 C 22.64,63.18 23.21,63.04 23.78,62.94 24.35,62.85 24.94,62.96 25.51,63 26.66,63.09 27.81,63.24 28.93,63.5 L 28.92,63.6 Z M 28.92,63.6" />
        </g>
        <g id="jonnieTop03-group237">
            <path id="jonnieTop03-bezier236" stroke="none" fill="rgb(0, 0, 0)" d="M 28.93,55.6 C 27.8,55.82 26.66,55.99 25.52,56.09 24.94,56.15 24.37,56.28 23.79,56.19 23.21,56.1 22.62,55.96 22.09,55.6 L 22.1,55.5 C 22.7,55.32 23.25,55.23 23.82,55.19 24.38,55.13 24.94,55.26 25.5,55.29 L 28.93,55.5 28.93,55.6 Z M 28.93,55.6" />
        </g>
        <g id="jonnieTop03-group238">
            <path id="jonnieTop03-bezier237" stroke="none" fill="rgb(0, 0, 0)" d="M 27.51,53.23 C 24.91,53.14 22.27,53.27 19.79,53.93 18.57,54.27 17.33,54.77 16.53,55.67 16.13,56.11 15.89,56.66 15.84,57.23 15.77,57.86 15.77,58.49 15.83,59.11 15.96,60.35 16.36,61.55 17.1,62.51 17.82,63.47 18.82,64.19 19.96,64.65 22.25,65.61 24.91,65.6 27.5,65.5 L 27.52,65.6 C 24.99,66.26 22.23,66.47 19.6,65.58 18.31,65.11 17.09,64.26 16.29,63.09 15.49,61.92 15.1,60.53 15.03,59.18 14.99,58.5 15.02,57.82 15.12,57.15 15.21,56.43 15.56,55.74 16.05,55.23 17.06,54.21 18.39,53.76 19.67,53.45 22.27,52.9 24.91,52.91 27.52,53.13 L 27.51,53.23 Z M 27.51,53.23" />
        </g>
        <g id="jonnieTop03-group260">
            <path id="jonnieTop03-bezier256" stroke="none" fill="rgb(0, 0, 0)" d="M 39.84,25.02 L 55.45,24.61 C 58.05,24.52 60.65,24.38 63.25,24.38 L 67.15,24.41 69.1,24.42 C 69.74,24.43 70.41,24.45 71.03,24.36 L 71.06,24.45 C 69.78,24.88 68.48,24.95 67.18,25.1 65.88,25.23 64.57,25.29 63.27,25.38 60.67,25.51 58.06,25.43 55.46,25.4 50.25,25.37 45.05,25.27 39.84,25.12 L 39.84,25.02 Z M 39.84,25.02" />
        </g>
        <g id="jonnieTop03-group261">
            <path id="jonnieTop03-bezier257" stroke="none" fill="rgb(0, 0, 0)" d="M 35.9,18.76 C 33.83,19.89 31.68,20.83 29.52,21.76 27.34,22.66 25.14,23.51 22.87,24.19 21.72,24.52 20.58,24.84 19.31,24.91 18.62,24.92 18.12,24.86 17.53,24.85 16.95,24.82 16.37,24.81 15.8,24.81 14.64,24.79 13.49,24.85 12.37,25.03 11.81,25.12 11.26,25.25 10.75,25.48 10.24,25.7 9.78,26.05 9.6,26.6 L 9.5,26.58 C 9.53,25.95 10.02,25.42 10.53,25.08 11.05,24.75 11.63,24.53 12.21,24.35 13.38,24.01 14.58,23.89 15.77,23.81 16.37,23.79 16.97,23.79 17.57,23.81 18.14,23.82 18.81,23.92 19.29,23.93 20.38,23.92 21.54,23.68 22.66,23.42 24.91,22.85 27.14,22.1 29.33,21.3 31.53,20.49 33.74,19.68 35.85,18.67 L 35.9,18.76 Z M 35.9,18.76" />
        </g>
        <g id="jonnieTop03-group262">
            <path id="jonnieTop03-bezier258" stroke="none" fill="rgb(0, 0, 0)" d="M 24.21,28.54 C 23.31,29.59 22.1,30.39 20.72,30.81 20.03,31.01 19.29,31.19 18.55,31.05 17.83,30.91 17.14,30.61 16.62,30.09 L 16.66,30 C 17.38,30 18.02,30.06 18.65,30.05 19.27,30.04 19.9,30.13 20.54,30.03 21.18,29.93 21.81,29.74 22.41,29.47 23.02,29.22 23.61,28.89 24.14,28.47 L 24.21,28.54 Z M 24.21,28.54" />
        </g>
        <g id="jonnieTop03-group263">
            <path id="jonnieTop03-bezier259" stroke="none" fill="rgb(0, 0, 0)" d="M 26.18,27.1 C 28.81,27.13 31.44,27.12 34.06,27.05 35.37,27 36.67,26.86 37.96,26.84 39.26,26.79 40.56,26.85 41.82,26.55 L 41.87,26.63 C 41.33,27.08 40.66,27.29 40.01,27.48 39.36,27.66 38.69,27.76 38.03,27.84 36.7,28 35.37,27.91 34.05,27.85 31.41,27.75 28.79,27.52 26.17,27.2 L 26.18,27.1 Z M 26.18,27.1" />
        </g>
        <g id="jonnieTop03-group264">
            <path id="jonnieTop03-bezier260" stroke="none" fill="rgb(0, 0, 0)" d="M 78.14,8.81 L 72.81,9.42 C 71.04,9.66 69.24,9.8 67.52,10.22 64.05,11.01 60.6,11.98 57.16,12.95 L 46.88,16 C 45.16,16.47 43.45,16.98 41.74,17.49 40.88,17.74 40.03,18.01 39.19,18.29 38.76,18.43 38.34,18.57 37.93,18.73 37.54,18.9 37.07,19.05 36.81,19.34 L 36.71,19.31 C 36.98,18.87 37.42,18.7 37.81,18.47 38.21,18.25 38.61,18.06 39.02,17.86 39.84,17.5 40.68,17.16 41.51,16.83 43.19,16.18 44.89,15.62 46.59,15.04 50,13.93 53.48,13.06 56.95,12.18 60.43,11.3 63.9,10.43 67.42,9.73 69.2,9.36 71,9.3 72.78,9.12 L 78.13,8.71 78.14,8.81 Z M 78.14,8.81" />
        </g>
        <g id="jonnieTop03-group268">
            <path id="jonnieTop03-bezier264" stroke="none" fill="rgb(0, 0, 0)" d="M 61.26,12.02 C 61.57,12.07 61.74,12.32 61.88,12.54 62.01,12.77 62.11,13.01 62.19,13.26 62.34,13.76 62.43,14.28 62.49,14.79 62.59,15.82 62.59,16.85 62.55,17.88 62.5,18.9 62.5,19.94 62.28,20.94 62.05,21.94 61.77,22.93 61.31,23.87 L 61.21,23.85 C 61.13,22.81 61.2,21.8 61.29,20.79 61.36,19.79 61.62,18.81 61.75,17.81 61.89,16.82 61.99,15.82 61.99,14.82 62,14.32 61.98,13.82 61.9,13.34 61.81,12.88 61.67,12.3 61.26,12.12 L 61.26,12.02 Z M 61.26,12.02" />
        </g>
        <g id="jonnieTop03-group269">
            <path id="jonnieTop03-bezier265" stroke="none" fill="rgb(0, 0, 0)" d="M 77.11,71.93 C 74.86,72.52 72.46,72.06 70.36,71.17 68.23,70.26 66.33,68.85 64.77,67.14 63.22,65.41 62.03,63.37 61.25,61.18 60.44,59 60.13,56.64 59.97,54.38 59.59,49.81 59.32,45.23 59.48,40.64 59.59,38.35 59.73,36.05 60.06,33.77 60.4,31.51 60.82,29.21 61.77,27.11 L 61.87,27.14 C 61.19,29.32 60.94,31.59 60.75,33.85 60.58,36.12 60.48,38.39 60.48,40.66 60.45,45.21 60.5,49.77 60.77,54.32 60.88,56.61 61.13,58.83 61.86,60.97 62.57,63.1 63.68,65.1 65.15,66.81 66.61,68.52 68.43,69.94 70.48,70.89 72.52,71.82 74.85,72.35 77.08,71.84 L 77.11,71.93 Z M 77.11,71.93" />
        </g>
        <g id="jonnieTop03-group270">
            <path id="jonnieTop03-bezier266" stroke="none" fill="rgb(0, 0, 0)" d="M 71.1,25.85 C 70.78,29.17 70.69,32.52 70.73,35.85 70.76,39.18 70.94,42.51 71.31,45.82 71.7,49.13 72.33,52.39 73.05,55.62 73.76,58.86 74.75,62.03 75.97,65.14 L 75.88,65.19 C 74.13,62.31 72.97,59.1 72.08,55.86 71.21,52.6 70.8,49.24 70.52,45.9 70.24,42.55 70.16,39.2 70.23,35.85 70.32,32.5 70.55,29.16 71,25.84 L 71.1,25.85 Z M 71.1,25.85" />
        </g>
        <g id="jonnieTop03-group271">
            <path id="jonnieTop03-bezier267" stroke="none" fill="rgb(0, 0, 0)" d="M 102.39,79.12 C 101.23,80.03 99.81,80.55 98.38,80.9 96.94,81.23 95.46,81.34 93.98,81.32 92.5,81.29 91.01,81.18 89.58,80.79 88.16,80.4 86.77,79.87 85.49,79.12 L 85.53,79.03 C 86.99,79.26 88.39,79.57 89.8,79.81 91.2,80.06 92.6,80.39 94.02,80.52 95.44,80.64 96.88,80.63 98.29,80.41 99.7,80.2 101.12,79.82 102.33,79.04 L 102.39,79.12 Z M 102.39,79.12" />
        </g>
        <g id="jonnieTop03-group527">
            <path id="jonnieTop03-bezier526" stroke="none" fill="rgb(0, 0, 0)" d="M 16.87,27.04 C 16.28,26.82 15.66,26.68 15.04,26.62 14.43,26.57 13.79,26.62 13.34,26.97 12.79,27.36 12.12,27.58 11.46,27.63 10.81,27.69 10.1,27.6 9.55,27.24 L 9.56,27.19 C 10.19,27.33 10.8,27.29 11.4,27.17 11.99,27.04 12.57,26.87 13.1,26.58 13.72,26.22 14.45,26.23 15.08,26.35 15.72,26.47 16.32,26.71 16.89,27 L 16.87,27.04 Z M 16.87,27.04" />
        </g>
        <g id="jonnieTop03-group528">
            <path id="jonnieTop03-bezier527" stroke="none" fill="rgb(0, 0, 0)" d="M 14.42,28.08 C 13.95,28.36 13.42,28.55 12.86,28.64 12.59,28.69 12.3,28.74 12.01,28.67 11.73,28.59 11.45,28.49 11.25,28.25 L 11.27,28.2 C 11.57,28.17 11.81,28.19 12.07,28.18 12.32,28.17 12.57,28.23 12.83,28.24 13.35,28.24 13.88,28.18 14.4,28.03 L 14.42,28.08 Z M 14.42,28.08" />
        </g>
        <g id="jonnieTop03-group529">
            <path id="jonnieTop03-bezier528" stroke="none" fill="rgb(0, 0, 0)" d="M 15.06,29.45 C 14.73,29.58 14.36,29.67 13.99,29.69 13.81,29.71 13.61,29.74 13.43,29.67 13.25,29.59 13.07,29.49 12.96,29.29 L 12.98,29.25 C 13.2,29.18 13.36,29.19 13.53,29.18 13.69,29.18 13.85,29.26 14.01,29.29 14.35,29.36 14.69,29.39 15.06,29.4 L 15.06,29.45 Z M 15.06,29.45" />
        </g>
        <g id="jonnieTop03-group530">
            <path id="jonnieTop03-bezier529" stroke="none" fill="rgb(0, 0, 0)" d="M 15.99,29.56 C 15.69,29.29 15.42,28.99 15.21,28.63 15.11,28.46 14.98,28.26 14.99,28.02 15,27.79 15.11,27.49 15.37,27.43 L 15.4,27.47 C 15.39,27.7 15.43,27.82 15.48,27.97 15.53,28.12 15.53,28.29 15.58,28.47 15.69,28.82 15.85,29.18 16.03,29.53 L 15.99,29.56 Z M 15.99,29.56" />
        </g>
    </g>
</svg>
