<?xml version="1.0" encoding="UTF-8"?>
<!DOCTYPE svg PUBLIC "-//W3C//DTD SVG 1.1//EN" "http://www.w3.org/Graphics/SVG/1.1/DTD/svg11.dtd">
<svg version="1.1" xmlns="http://www.w3.org/2000/svg" xmlns:xlink="http://www.w3.org/1999/xlink" width="180" height="100"  xml:space="preserve" id="jonnieTop09">
    <!-- Generated by PaintCode - http://www.paintcodeapp.com -->
    <g id="jonnieTop09-group">
        <g id="jonnieTop09-group366">
            <path id="jonnieTop09-bezier362" stroke="none" fill="rgb(0, 0, 0)" d="M 74.01,48.87 C 73.74,44.46 75.34,39.98 78.31,36.69 81.26,33.37 85.55,31.28 90.02,31 94.47,30.69 99.04,32.19 102.44,35.13 105.87,38.04 108.07,42.36 108.33,46.88 108.65,51.38 107.02,55.99 103.97,59.34 100.92,62.71 96.52,64.78 91.99,65.02 89.73,65.13 87.45,64.8 85.32,64.04 83.2,63.28 81.24,62.1 79.59,60.59 76.27,57.59 74.21,53.29 74.01,48.87 Z M 74.11,48.86 C 74.26,51.05 74.86,53.21 75.85,55.15 76.86,57.09 78.27,58.81 79.94,60.19 83.28,62.96 87.66,64.34 91.93,64.02 96.21,63.8 100.36,61.85 103.23,58.67 106.16,55.55 107.77,51.23 107.53,46.92 107.33,42.63 105.28,38.45 102.02,35.62 98.78,32.76 94.38,31.25 90.04,31.49 85.7,31.68 81.45,33.61 78.47,36.83 76.98,38.43 75.79,40.33 75.04,42.39 74.3,44.46 73.98,46.67 74.11,48.86 Z M 74.11,48.86" />
        </g>
        <g id="jonnieTop09-group367">
            <path id="jonnieTop09-bezier363" stroke="none" fill="rgb(0, 0, 0)" d="M 108.27,44.79 C 108.85,44.88 109.41,45.03 109.96,45.28 110.48,45.55 111.08,45.92 111.3,46.69 111.4,47.05 111.35,47.5 111.15,47.85 110.94,48.19 110.65,48.43 110.34,48.57 109.73,48.83 109.1,48.88 108.49,48.71 L 108.47,48.61 C 108.98,48.25 109.46,47.99 109.85,47.7 110.22,47.39 110.53,47.24 110.51,46.83 110.5,46.45 110.14,46.02 109.7,45.71 109.27,45.38 108.77,45.1 108.25,44.89 L 108.27,44.79 Z M 108.27,44.79" />
        </g>
        <g id="jonnieTop09-group368">
            <path id="jonnieTop09-bezier364" stroke="none" fill="rgb(0, 0, 0)" d="M 72.24,63.29 L 74.72,71.72 C 75.13,73.12 75.48,74.55 75.91,75.93 76.14,76.59 76.58,77.11 76.94,77.73 77.29,78.37 77.58,79.12 77.59,79.91 L 77.5,79.95 C 76.93,79.4 76.5,78.87 76.07,78.27 75.64,77.67 75.38,76.89 75.2,76.13 74.9,74.68 74.54,73.28 74.2,71.85 L 72.14,63.32 72.24,63.29 Z M 72.24,63.29" />
        </g>
        <g id="jonnieTop09-group369">
            <path id="jonnieTop09-bezier365" stroke="none" fill="rgb(0, 0, 0)" d="M 94.64,78.96 C 95.36,79.44 96.32,79.21 96.95,78.69 97.61,78.18 98.11,77.47 98.53,76.74 99.39,75.26 99.97,73.63 100.48,71.99 100.97,70.35 101.31,68.65 101.76,66.99 102.23,65.32 102.67,63.65 103.25,61.99 L 103.34,62.01 C 103.31,63.77 103.07,65.5 102.74,67.22 102.4,68.94 101.84,70.6 101.23,72.25 100.62,73.89 99.93,75.52 98.96,77 98.45,77.73 97.88,78.44 97.12,78.94 96.39,79.45 95.31,79.63 94.58,79.04 L 94.64,78.96 Z M 94.64,78.96" />
        </g>
        <g id="jonnieTop09-group370">
            <path id="jonnieTop09-bezier366" stroke="none" fill="rgb(0, 0, 0)" d="M 103.25,31.34 L 99.88,26.26 C 98.76,24.56 97.65,22.85 96.38,21.31 95.1,19.76 93.57,18.54 91.77,17.85 89.96,17.13 87.94,16.91 85.92,16.63 L 85.92,16.53 C 87.94,16.27 90.06,16.26 92.11,16.91 93.12,17.25 94.08,17.79 94.89,18.48 95.7,19.18 96.39,19.98 97.01,20.81 98.24,22.47 99.27,24.24 100.3,25.99 L 103.34,31.29 103.25,31.34 Z M 103.25,31.34" />
        </g>
        <g id="jonnieTop09-group371">
            <path id="jonnieTop09-bezier367" stroke="none" fill="rgb(0, 0, 0)" d="M 106.33,38.96 C 106.96,38.74 107.6,38.56 108.16,38.32 108.43,38.19 108.69,37.98 108.83,38 108.85,37.99 108.87,38.03 108.89,38.05 108.89,38.06 108.91,38.07 108.91,38.07 L 108.91,38.01 108.92,37.89 C 108.92,37.74 108.92,37.59 108.9,37.44 108.86,36.85 108.58,36.4 107.99,36.19 107.42,35.97 106.75,35.91 106.11,35.82 L 106.11,35.72 C 106.77,35.68 107.42,35.64 108.11,35.78 108.45,35.86 108.82,36.02 109.08,36.32 109.35,36.62 109.49,36.99 109.56,37.34 109.59,37.52 109.62,37.69 109.63,37.87 L 109.65,38.19 C 109.65,38.38 109.57,38.55 109.48,38.67 109.12,39.12 108.72,39.08 108.37,39.13 107.67,39.19 107,39.15 106.34,39.06 L 106.33,38.96 Z M 106.33,38.96" />
        </g>
        <g id="jonnieTop09-group372">
            <path id="jonnieTop09-bezier368" stroke="none" fill="rgb(0, 0, 0)" d="M 108.23,33.73 C 108.01,32.94 107.69,32.18 107.3,31.48 106.92,30.77 106.45,30.11 105.91,29.56 105.35,29.01 104.68,28.66 104.04,28.31 103.38,27.94 102.65,27.72 101.83,27.46 L 101.83,27.36 C 102.64,27.07 103.58,27.08 104.43,27.39 105.31,27.67 105.96,28.36 106.5,29.03 107.58,30.41 108.13,32.06 108.32,33.71 L 108.23,33.73 Z M 108.23,33.73" />
        </g>
        <g id="jonnieTop09-group373">
            <path id="jonnieTop09-bezier369" stroke="none" fill="rgb(0, 0, 0)" d="M 105.49,59.58 C 106.22,59.5 106.95,59.44 107.7,59.48 108.08,59.51 108.47,59.48 108.88,59.62 109.08,59.7 109.28,59.82 109.48,60.06 109.57,60.18 109.67,60.39 109.65,60.59 L 109.62,60.9 C 109.59,61.29 109.52,61.69 109.31,62.07 109.1,62.45 108.72,62.73 108.34,62.85 107.57,63.07 106.84,63.02 106.11,62.97 L 106.11,62.87 C 106.82,62.77 107.57,62.72 108.16,62.43 108.77,62.16 108.93,61.54 108.92,60.87 108.92,60.8 108.92,60.67 108.9,60.63 108.87,60.65 108.88,60.69 108.84,60.69 108.78,60.68 108.64,60.65 108.51,60.59 108.24,60.48 107.92,60.31 107.58,60.22 106.9,60.03 106.2,59.85 105.48,59.68 L 105.49,59.58 Z M 105.49,59.58" />
        </g>
        <g id="jonnieTop09-group374">
            <path id="jonnieTop09-bezier370" stroke="none" fill="rgb(0, 0, 0)" d="M 108.33,64.99 C 108.13,66.63 107.59,68.28 106.51,69.66 105.97,70.33 105.31,71.02 104.44,71.31 103.59,71.62 102.65,71.63 101.83,71.33 L 101.83,71.23 C 102.65,70.97 103.39,70.75 104.04,70.39 104.69,70.04 105.35,69.68 105.91,69.13 106.46,68.58 106.92,67.93 107.3,67.22 107.69,66.51 108.01,65.76 108.23,64.97 L 108.33,64.99 Z M 108.33,64.99" />
        </g>
        <g id="jonnieTop09-group375">
            <path id="jonnieTop09-bezier371" stroke="none" fill="rgb(0, 0, 0)" d="M 84.5,16.63 C 83.09,16.78 81.75,17.36 80.56,18.09 79.35,18.82 78.29,19.75 77.36,20.81 76.44,21.87 75.72,23.06 74.95,24.24 74.18,25.42 73.49,26.65 72.71,27.88 L 72.62,27.85 C 72.88,26.41 73.41,25.03 74.09,23.73 74.78,22.43 75.74,21.29 76.78,20.26 77.82,19.22 79.01,18.32 80.31,17.66 81.62,17.01 83.04,16.55 84.5,16.54 L 84.5,16.63 Z M 84.5,16.63" />
        </g>
        <g id="jonnieTop09-group376">
            <path id="jonnieTop09-bezier372" stroke="none" fill="rgb(0, 0, 0)" d="M 72.04,29.86 C 71.32,33.11 70.85,36.42 70.55,39.74 70.23,43.05 70.09,46.38 70.19,49.7 70.3,53.02 70.69,56.32 71.26,59.57 71.79,62.84 72.69,66.03 73.91,69.14 L 73.82,69.18 C 72.07,66.31 71,63.05 70.27,59.76 69.57,56.46 69.39,53.07 69.39,49.72 69.39,46.36 69.63,43 70.05,39.68 70.49,36.37 71.09,33.07 71.94,29.83 L 72.04,29.86 Z M 72.04,29.86" />
        </g>
        <g id="jonnieTop09-group377">
            <path id="jonnieTop09-bezier373" stroke="none" fill="rgb(0, 0, 0)" d="M 94.81,81.12 C 93.63,82.03 92.19,82.55 90.75,82.9 89.29,83.23 87.79,83.34 86.29,83.32 84.8,83.29 83.29,83.18 81.84,82.79 80.4,82.4 79,81.87 77.7,81.12 L 77.74,81.03 C 79.21,81.26 80.63,81.57 82.06,81.81 83.48,82.06 84.89,82.39 86.33,82.52 87.77,82.64 89.22,82.63 90.65,82.41 92.08,82.2 93.52,81.82 94.75,81.04 L 94.81,81.12 Z M 94.81,81.12" />
        </g>
    </g>
</svg>
