<?xml version="1.0" encoding="UTF-8"?>
<!DOCTYPE svg PUBLIC "-//W3C//DTD SVG 1.1//EN" "http://www.w3.org/Graphics/SVG/1.1/DTD/svg11.dtd">
<svg version="1.1" xmlns="http://www.w3.org/2000/svg" xmlns:xlink="http://www.w3.org/1999/xlink" width="160" height="60"  xml:space="preserve" id="kazAveTop02">
    <!-- Generated by PaintCode - http://www.paintcodeapp.com -->
    <g id="kazAveTop02-group">
        <path id="kazAveTop02-bezier590" stroke="rgb(0, 0, 0)" stroke-width="2" stroke-miterlimit="10" fill="none" d="M 111.14,30.63 L 156.49,30.63" />
        <path id="kazAveTop02-bezier591" stroke="rgb(0, 0, 0)" stroke-width="2" stroke-miterlimit="10" fill="none" d="M 3.1,30.63 L 33.11,30.63" />
        <path id="kazAveTop02-bezier592" stroke="rgb(0, 0, 0)" stroke-width="2" stroke-miterlimit="10" fill="none" d="M 127.67,13.62 L 106.42,13.62 106.42,25.5" />
        <path id="kazAveTop02-bezier593" stroke="rgb(0, 0, 0)" stroke-width="2" stroke-miterlimit="10" fill="none" d="M 127.67,46.63 L 106.42,46.63 106.42,46.61 106.42,40.75" />
        <path id="kazAveTop02-bezier594" stroke="rgb(0, 0, 0)" stroke-width="2" stroke-miterlimit="10" fill="none" d="M 36.2,26.12 C 36.2,26.12 34.93,27.44 34.93,30.63 34.93,33.81 36.2,34.75 36.2,34.75" />
        <path id="kazAveTop02-bezier595" stroke="rgb(0, 0, 0)" stroke-width="2" stroke-miterlimit="10" fill="none" d="M 126.84,28.21 L 110.82,28.21" />
        <path id="kazAveTop02-bezier596" stroke="rgb(0, 0, 0)" stroke-width="2" stroke-miterlimit="10" fill="none" d="M 126.84,33.07 L 112.82,33.07" />
        <path id="kazAveTop02-bezier597" stroke="rgb(0, 0, 0)" stroke-width="2" stroke-miterlimit="10" fill="none" d="M 33.58,28.21 L 31.87,28.21" />
        <path id="kazAveTop02-bezier598" stroke="rgb(0, 0, 0)" stroke-width="2" stroke-miterlimit="10" fill="none" d="M 33.58,33.07 L 31.87,33.07" />
        <g id="kazAveTop02-group444">
            <g id="kazAveTop02-group445">
                <path id="kazAveTop02-bezier599" stroke="none" fill="rgb(0, 0, 0)" d="M 101.05,41.53 C 99.42,41.64 97.78,41.67 96.14,41.54 94.51,41.37 92.86,41.11 91.3,40.38 90.92,40.21 90.51,39.94 90.19,39.72 89.93,39.55 89.68,39.51 89.49,39.61 89.05,39.81 88.63,40.55 88.33,41.23 87.69,42.64 87.25,44.21 86.74,45.77 L 86.64,45.76 C 86.61,44.1 86.83,42.46 87.4,40.85 87.74,40.08 88.05,39.17 89.14,38.68 89.72,38.46 90.35,38.69 90.73,39 91.06,39.27 91.32,39.47 91.67,39.67 93.02,40.42 94.62,40.79 96.2,41.04 97.8,41.31 99.42,41.41 101.04,41.43 L 101.05,41.53 Z M 101.05,41.53" />
            </g>
            <g id="kazAveTop02-group446">
                <path id="kazAveTop02-bezier600" stroke="none" fill="rgb(0, 0, 0)" d="M 97.43,24.1 C 98.7,24.09 99.95,24.18 101.21,24.23 102.48,24.3 103.75,24.59 104.93,25.1 107.29,26.11 109.34,28.03 110.26,30.52 110.73,31.75 110.89,33.12 110.73,34.44 110.56,35.78 110.03,37.05 109.24,38.12 107.62,40.25 105.11,41.57 102.56,41.74 L 102.55,41.64 C 104.94,40.91 107.11,39.54 108.42,37.54 109.76,35.6 110.25,33.08 109.51,30.78 108.77,28.49 106.94,26.6 104.73,25.55 102.52,24.41 99.92,24.41 97.43,24.2 L 97.43,24.1 Z M 97.43,24.1" />
            </g>
            <g id="kazAveTop02-group447">
                <path id="kazAveTop02-bezier601" stroke="none" fill="rgb(0, 0, 0)" d="M 82.15,19.98 C 83.3,19.85 84.48,19.72 85.66,19.87 86.83,20 88.01,20.4 89,21.1 89.5,21.44 89.95,21.85 90.36,22.29 90.75,22.73 91.13,23.14 91.55,23.52 91.96,23.9 92.41,24.25 92.86,24.47 93.08,24.58 93.31,24.66 93.46,24.66 93.6,24.66 93.65,24.59 93.68,24.58 L 95.23,24.05 94.06,24.26 C 95.05,24.09 95.95,24.39 96.73,24.67 97.52,24.98 98.26,25.31 99.09,25.43 L 99.1,25.53 C 98.24,25.74 97.34,25.54 96.53,25.4 95.71,25.24 94.93,25.12 94.25,25.26 L 94.63,24.94 C 94.42,25.48 93.86,25.72 93.42,25.68 92.99,25.65 92.67,25.48 92.39,25.31 91.83,24.95 91.4,24.52 90.99,24.08 90.59,23.65 90.21,23.17 89.86,22.72 89.5,22.29 89.11,21.89 88.67,21.56 87.78,20.87 86.73,20.42 85.61,20.21 84.49,19.98 83.32,20.03 82.16,20.08 L 82.15,19.98 Z M 82.15,19.98" />
            </g>
            <g id="kazAveTop02-group448">
                <path id="kazAveTop02-bezier602" stroke="none" fill="rgb(0, 0, 0)" d="M 117.96,10.99 C 116.48,11.14 115,11.3 113.52,11.41 112.02,11.51 110.58,11.65 109.01,11.61 107.58,11.44 106.09,11.55 104.62,11.54 103.88,11.57 103.14,11.6 102.41,11.65 101.68,11.73 100.93,11.75 100.26,12.05 L 100.22,11.99 C 100.85,11.52 101.62,11.37 102.34,11.21 103.08,11.05 103.83,10.95 104.57,10.88 105.32,10.8 106.07,10.75 106.82,10.75 107.56,10.74 108.35,10.74 109.09,10.9 110.49,11.05 112.03,11 113.5,10.99 L 117.96,10.92 117.96,10.99 Z M 117.96,10.99" />
            </g>
            <g id="kazAveTop02-group449">
                <path id="kazAveTop02-bezier603" stroke="none" fill="rgb(0, 0, 0)" d="M 99.08,17.76 C 100.66,17.63 102.24,17.47 103.81,17.27 104.59,17.17 105.38,17.07 106.15,16.94 106.54,16.88 106.93,16.81 107.3,16.71 107.49,16.67 107.68,16.62 107.83,16.55 107.97,16.48 108.22,16.37 108.4,16.32 109.96,15.86 111.51,15.52 113.08,15.27 114.66,15.07 116.24,14.87 117.87,15.06 L 117.85,15.13 C 116.32,15.42 114.75,15.78 113.2,16.03 111.65,16.28 110.05,16.42 108.55,16.81 108.35,16.87 108.24,16.91 108.01,17 107.8,17.08 107.6,17.12 107.4,17.17 107.01,17.25 106.61,17.3 106.21,17.35 105.42,17.46 104.63,17.53 103.84,17.58 102.25,17.7 100.67,17.78 99.09,17.84 L 99.08,17.76 Z M 99.08,17.76" />
            </g>
            <g id="kazAveTop02-group450">
                <path id="kazAveTop02-bezier604" stroke="none" fill="rgb(0, 0, 0)" d="M 89.67,16.4 C 92.02,15.01 94.24,13.41 96.41,11.79 L 96.72,11.56 96.9,11.91 C 97.53,13.11 98.03,14.36 98.44,15.66 98.84,16.95 99.08,18.33 98.92,19.74 L 98.88,20.02 98.66,20.12 96.09,21.35 94.82,21.98 C 94.42,22.19 93.92,22.41 93.68,22.7 L 93.57,22.71 C 93.64,22.39 93.86,22.27 94.03,22.09 94.21,21.93 94.4,21.77 94.59,21.62 94.97,21.32 95.37,21.05 95.77,20.78 96.56,20.24 97.38,19.75 98.22,19.27 L 97.97,19.66 C 98,18.42 97.81,17.15 97.55,15.89 97.27,14.63 96.84,13.38 96.31,12.2 L 96.8,12.32 C 94.52,13.85 92.17,15.27 89.71,16.49 L 89.67,16.4 Z M 89.67,16.4" />
            </g>
            <g id="kazAveTop02-group451">
                <path id="kazAveTop02-bezier605" stroke="none" fill="rgb(0, 0, 0)" d="M 37.19,30.63 C 37.11,28.89 37.11,27.16 37.2,25.42 37.31,23.68 37.43,21.93 38.1,20.23 38.29,19.82 38.52,19.37 38.94,19.05 39.29,18.77 39.75,18.53 40.17,18.38 41.04,18.07 41.94,17.96 42.83,17.92 44.62,17.86 46.37,18.06 48.11,18.45 L 48.5,18.53 48.49,18.96 C 48.46,20.91 48.33,22.85 48.19,24.8 48.14,25.77 48.04,26.74 47.96,27.71 47.88,28.68 47.76,29.66 47.66,30.63 L 47.56,30.63 C 47.48,29.65 47.43,28.67 47.41,27.7 47.38,26.72 47.35,25.74 47.36,24.77 47.36,22.82 47.37,20.87 47.48,18.92 L 47.86,19.43 C 46.24,19.03 44.53,18.73 42.85,18.72 42.01,18.73 41.17,18.8 40.4,19.05 40,19.18 39.67,19.33 39.33,19.58 39.05,19.78 38.83,20.11 38.66,20.48 37.99,21.99 37.77,23.75 37.57,25.45 37.39,27.16 37.3,28.89 37.29,30.63 L 37.19,30.63 Z M 37.19,30.63" />
            </g>
            <g id="kazAveTop02-group452">
                <path id="kazAveTop02-bezier606" stroke="none" fill="rgb(0, 0, 0)" d="M 123.77,12.26 C 123.56,11.77 123.32,11.29 123.01,10.87 122.73,10.42 122.35,10.15 121.89,10.03 121.46,9.92 120.97,10.08 120.45,10.1 119.92,10.13 119.37,10.14 118.81,10.03 L 118.8,9.96 C 119.29,9.67 119.8,9.49 120.34,9.36 120.86,9.25 121.47,9.21 122.08,9.46 122.38,9.6 122.6,9.73 122.84,9.96 123.06,10.18 123.21,10.43 123.34,10.68 123.57,11.19 123.73,11.71 123.84,12.24 L 123.77,12.26 Z M 123.77,12.26" />
            </g>
            <g id="kazAveTop02-group453">
                <path id="kazAveTop02-bezier607" stroke="none" fill="rgb(0, 0, 0)" d="M 118.82,15.15 C 119.28,15.29 119.75,15.38 120.18,15.38 120.4,15.38 120.59,15.3 120.78,15.32 L 121.47,15.4 121.51,15.46 C 121.43,15.77 121.16,15.97 120.89,16.06 120.61,16.15 120.32,16.05 120.08,15.97 119.57,15.82 119.14,15.55 118.78,15.22 L 118.82,15.15 Z M 118.82,15.15" />
            </g>
            <g id="kazAveTop02-group454">
                <path id="kazAveTop02-bezier608" stroke="none" fill="rgb(0, 0, 0)" d="M 117.96,49.33 L 113.5,49.21 C 112.03,49.2 110.51,49.12 109.08,49.25 108.34,49.41 107.57,49.41 106.82,49.45 106.07,49.47 105.32,49.48 104.57,49.43 103.82,49.38 103.08,49.25 102.34,49.11 101.61,48.92 100.83,48.77 100.22,48.26 L 100.26,48.2 C 100.94,48.46 101.69,48.47 102.42,48.53 103.15,48.6 103.89,48.61 104.62,48.65 106.08,48.72 107.58,48.93 109.02,48.74 110.56,48.67 112.02,48.8 113.51,48.89 L 117.96,49.26 117.96,49.33 Z M 117.96,49.33" />
            </g>
            <g id="kazAveTop02-group455">
                <path id="kazAveTop02-bezier609" stroke="none" fill="rgb(0, 0, 0)" d="M 99.08,42.41 C 100.67,42.46 102.26,42.51 103.84,42.62 104.63,42.68 105.43,42.75 106.22,42.84 106.62,42.89 107.02,42.94 107.42,43.02 107.62,43.06 107.82,43.1 108.04,43.18 L 108.31,43.29 108.58,43.37 C 110.07,43.73 111.65,43.94 113.19,44.26 114.74,44.53 116.31,44.89 117.85,45.12 L 117.87,45.19 C 117.05,45.29 116.26,45.22 115.46,45.18 114.67,45.14 113.88,45.04 113.09,44.95 111.5,44.76 109.94,44.5 108.38,44.01 108.28,43.98 108.18,43.94 108.08,43.9 107.96,43.85 107.87,43.8 107.81,43.77 107.66,43.71 107.47,43.65 107.29,43.61 106.92,43.51 106.53,43.44 106.14,43.37 105.37,43.24 104.59,43.13 103.8,43.03 102.23,42.83 100.66,42.64 99.08,42.49 L 99.08,42.41 Z M 99.08,42.41" />
            </g>
            <g id="kazAveTop02-group456">
                <path id="kazAveTop02-bezier610" stroke="none" fill="rgb(0, 0, 0)" d="M 97.85,42.08 C 97.75,43.11 97.44,44.12 97.01,45.08 96.57,46.04 96.04,46.94 95.39,47.79 L 95.28,47.94 95.06,47.92 C 93.91,47.83 92.76,47.75 91.65,47.43 90.55,47.1 89.47,46.66 88.53,45.96 L 88.57,45.87 C 89.71,46.03 90.8,46.24 91.89,46.45 92.97,46.65 94.05,46.99 95.14,47.15 L 94.81,47.28 C 95.47,46.57 96.08,45.73 96.58,44.86 97.1,43.99 97.53,43.06 97.75,42.06 L 97.85,42.08 Z M 97.85,42.08" />
            </g>
            <g id="kazAveTop02-group457">
                <path id="kazAveTop02-bezier611" stroke="none" fill="rgb(0, 0, 0)" d="M 37.29,30.63 C 37.25,32.36 37.3,34.08 37.44,35.8 37.61,37.49 37.8,39.26 38.49,40.74 38.67,41.1 38.91,41.42 39.19,41.57 39.56,41.76 39.92,41.86 40.33,41.96 41.14,42.14 41.98,42.2 42.83,42.21 44.52,42.23 46.24,42.05 47.92,41.81 L 47.48,42.33 C 47.37,40.39 47.36,38.44 47.36,36.49 47.35,35.51 47.38,34.53 47.41,33.56 47.43,32.58 47.48,31.6 47.56,30.63 L 47.66,30.63 C 47.76,31.6 47.88,32.57 47.96,33.54 48.04,34.51 48.14,35.48 48.19,36.46 48.33,38.4 48.46,40.35 48.5,42.3 L 48.51,42.77 48.06,42.82 C 46.31,43.03 44.57,43.1 42.8,43.01 41.93,42.96 41.04,42.87 40.16,42.65 39.74,42.54 39.27,42.38 38.87,42.15 38.4,41.86 38.14,41.42 37.94,41.01 37.23,39.31 37.15,37.55 37.07,35.82 37.01,34.09 37.06,32.35 37.19,30.62 L 37.29,30.63 Z M 37.29,30.63" />
            </g>
            <g id="kazAveTop02-group458">
                <path id="kazAveTop02-bezier612" stroke="none" fill="rgb(0, 0, 0)" d="M 120.59,45.39 C 120.61,46.03 120.65,46.68 120.77,47.27 120.84,47.57 120.98,47.83 121.04,48.05 121.12,48.27 121.14,48.45 121.49,48.64 L 121.49,48.71 C 121.19,49 120.57,48.77 120.38,48.4 120.15,48.05 120.17,47.67 120.18,47.33 120.18,46.65 120.32,46 120.52,45.38 L 120.59,45.39 Z M 120.59,45.39" />
            </g>
            <g id="kazAveTop02-group459">
                <path id="kazAveTop02-bezier613" stroke="none" fill="rgb(0, 0, 0)" d="M 123.84,48.01 C 123.73,48.54 123.57,49.07 123.34,49.57 123.21,49.82 123.06,50.07 122.84,50.29 122.6,50.52 122.38,50.66 122.08,50.79 121.47,51.04 120.86,51.01 120.34,50.89 119.8,50.76 119.29,50.59 118.8,50.29 L 118.81,50.22 C 119.37,50.11 119.92,50.13 120.45,50.15 120.97,50.17 121.47,50.33 121.89,50.22 122.35,50.1 122.73,49.83 123.01,49.38 123.32,48.96 123.56,48.48 123.77,47.99 L 123.84,48.01 Z M 123.84,48.01" />
            </g>
            <g id="kazAveTop02-group460">
                <path id="kazAveTop02-bezier614" stroke="none" fill="rgb(0, 0, 0)" d="M 118.78,45.04 C 119.14,44.7 119.57,44.43 120.08,44.28 120.32,44.2 120.61,44.1 120.89,44.19 121.16,44.28 121.43,44.48 121.51,44.79 L 121.47,44.85 120.78,44.93 C 120.59,44.95 120.4,44.88 120.18,44.87 119.75,44.88 119.28,44.96 118.82,45.1 L 118.78,45.04 Z M 118.78,45.04" />
            </g>
            <g id="kazAveTop02-group461">
                <path id="kazAveTop02-bezier615" stroke="none" fill="rgb(0, 0, 0)" d="M 105.71,38.52 C 104.77,39.39 103.63,40.1 102.35,40.41 101.08,40.73 99.74,40.72 98.45,40.53 97.16,40.34 95.91,39.99 94.68,39.58 93.44,39.14 92.3,38.64 91.08,38.38 88.66,37.82 86.14,37.86 83.77,38.55 81.42,39.27 79.18,40.58 77.46,42.45 L 77.38,42.39 C 78.04,41.27 78.99,40.34 80.02,39.54 81.06,38.74 82.24,38.12 83.49,37.67 85.99,36.75 88.79,36.77 91.31,37.51 92.59,37.85 93.78,38.43 94.93,38.89 96.11,39.35 97.31,39.75 98.55,39.98 99.77,40.21 101.04,40.31 102.27,40.08 103.51,39.86 104.66,39.25 105.64,38.44 L 105.71,38.52 Z M 105.71,38.52" />
            </g>
            <g id="kazAveTop02-group462">
                <path id="kazAveTop02-bezier616" stroke="none" fill="rgb(0, 0, 0)" d="M 76.61,23.21 C 78.19,25.13 80.09,26.82 82.24,28 83.31,28.58 84.47,29.02 85.66,29.16 86.25,29.23 86.84,29.22 87.43,29.13 88.04,29.05 88.64,28.93 89.24,28.8 91.66,28.29 94.07,27.51 96.64,27.34 97.92,27.27 99.24,27.3 100.49,27.71 101.74,28.08 102.87,28.79 103.72,29.73 L 103.65,29.8 C 102.64,29.07 101.51,28.56 100.33,28.34 99.15,28.13 97.93,28.12 96.73,28.29 94.32,28.6 91.9,29.25 89.41,29.66 88.78,29.76 88.15,29.85 87.52,29.91 86.87,29.98 86.2,29.96 85.56,29.85 84.26,29.64 83.06,29.12 81.97,28.46 79.8,27.12 78.01,25.29 76.53,23.27 L 76.61,23.21 Z M 76.61,23.21" />
            </g>
            <g id="kazAveTop02-group463">
                <path id="kazAveTop02-bezier617" stroke="none" fill="rgb(0, 0, 0)" d="M 95.67,35.41 C 93.79,34.96 91.85,34.94 89.92,34.88 L 84.11,34.76 C 82.17,34.71 80.21,34.7 78.27,34.38 77.31,34.21 76.34,34.01 75.4,33.68 74.47,33.34 73.51,32.93 72.84,32.16 L 72.91,32.09 C 74.57,33.04 76.52,33.15 78.41,33.39 80.31,33.57 82.22,33.8 84.15,33.96 L 89.95,34.38 C 91.87,34.58 93.83,34.73 95.7,35.31 L 95.67,35.41 Z M 95.67,35.41" />
            </g>
            <g id="kazAveTop02-group464">
                <path id="kazAveTop02-bezier618" stroke="none" fill="rgb(0, 0, 0)" d="M 89.27,17.62 C 86.46,17.57 83.65,17.59 80.84,17.71 78.04,17.84 75.24,18.03 72.48,18.49 69.74,19.06 66.9,19.4 64.08,19.46 61.24,19.5 58.42,19.34 55.59,18.78 L 56.15,18.28 C 56.41,20.22 56.63,22.16 56.79,24.11 56.92,26.07 57.07,28.01 56.84,30.04 56.48,32.05 55.85,33.86 55.32,35.73 55.05,36.67 54.8,37.6 54.6,38.54 54.41,39.49 54.26,40.45 54.39,41.4 L 54.29,41.43 C 54.02,40.46 54.1,39.45 54.19,38.48 54.3,37.5 54.5,36.54 54.7,35.58 55.08,33.67 55.68,31.77 55.92,29.93 56.04,28.07 55.89,26.11 55.76,24.19 55.63,22.26 55.46,20.32 55.25,18.39 L 55.19,17.76 55.81,17.9 C 58.47,18.52 61.29,18.76 64.07,18.78 66.87,18.79 69.64,18.52 72.41,18.02 75.21,17.61 78.02,17.48 80.84,17.42 83.65,17.37 86.46,17.41 89.27,17.51 L 89.27,17.62 Z M 89.27,17.62" />
            </g>
            <g id="kazAveTop02-group465">
                <path id="kazAveTop02-bezier619" stroke="none" fill="rgb(0, 0, 0)" d="M 54.3,42.01 C 56.84,41.62 59.43,41.47 62.02,41.52 64.6,41.6 67.2,41.9 69.72,42.62 71,42.98 72.16,43.45 73.4,43.77 74.62,44.11 75.85,44.43 77.09,44.73 79.57,45.36 82.08,45.86 84.6,46.41 L 84.59,46.51 C 82,46.52 79.43,46.17 76.88,45.7 75.61,45.44 74.35,45.12 73.11,44.72 71.87,44.34 70.66,43.78 69.48,43.38 67.08,42.59 64.54,42.2 61.99,42.02 59.44,41.84 56.86,41.85 54.31,42.11 L 54.3,42.01 Z M 54.3,42.01" />
            </g>
            <g id="kazAveTop02-group466">
                <path id="kazAveTop02-bezier620" stroke="none" fill="rgb(0, 0, 0)" d="M 48.81,42.21 C 49.61,41.73 50.53,41.46 51.46,41.34 51.93,41.28 52.42,41.2 52.89,41.3 53.35,41.4 53.81,41.57 54.21,41.87 L 54.19,41.95 C 53.7,42.04 53.25,42.04 52.81,42.05 52.37,42.05 51.94,41.96 51.5,41.94 50.61,41.93 49.71,42.01 48.84,42.28 L 48.81,42.21 Z M 48.81,42.21" />
            </g>
            <g id="kazAveTop02-group467">
                <path id="kazAveTop02-bezier621" stroke="none" fill="rgb(0, 0, 0)" d="M 49.16,19 L 51.68,18.85 C 52.1,18.81 52.51,18.72 52.93,18.76 53.34,18.8 53.75,18.85 54.19,19 L 54.2,19.07 C 53.81,19.33 53.38,19.44 52.95,19.51 52.52,19.57 52.1,19.49 51.67,19.44 50.83,19.37 49.99,19.24 49.15,19.07 L 49.16,19 Z M 49.16,19" />
            </g>
            <g id="kazAveTop02-group468">
                <path id="kazAveTop02-bezier622" stroke="none" fill="rgb(0, 0, 0)" d="M 49.81,27.78 C 50.14,27.93 50.48,27.96 50.8,27.95 50.96,27.93 51.12,27.86 51.27,27.9 51.43,27.94 51.6,28 51.81,28.17 L 51.83,28.24 C 51.69,28.48 51.5,28.59 51.31,28.65 51.1,28.71 50.89,28.61 50.7,28.54 50.31,28.4 49.96,28.17 49.76,27.83 L 49.81,27.78 Z M 49.81,27.78" />
            </g>
            <g id="kazAveTop02-group469">
                <path id="kazAveTop02-bezier623" stroke="none" fill="rgb(0, 0, 0)" d="M 49.51,33.46 C 49.81,33.16 50.15,32.9 50.53,32.69 50.71,32.57 50.91,32.43 51.16,32.43 51.39,32.44 51.7,32.51 51.84,32.79 L 51.81,32.86 C 51.57,32.99 51.45,33.1 51.28,33.17 51.13,33.25 50.93,33.22 50.74,33.25 50.36,33.32 49.96,33.42 49.55,33.53 L 49.51,33.46 Z M 49.51,33.46" />
            </g>
            <g id="kazAveTop02-group470">
                <path id="kazAveTop02-bezier624" stroke="none" fill="rgb(0, 0, 0)" d="M 120.52,14.88 C 120.32,14.25 120.18,13.61 120.18,12.92 120.17,12.59 120.15,12.2 120.38,11.85 120.57,11.48 121.19,11.25 121.49,11.54 L 121.49,11.62 C 121.14,11.8 121.12,11.98 121.04,12.2 120.98,12.42 120.84,12.68 120.77,12.98 120.65,13.58 120.61,14.22 120.59,14.87 L 120.52,14.88 Z M 120.52,14.88" />
            </g>
            <g id="kazAveTop02-group471">
                <path id="kazAveTop02-bezier625" stroke="none" fill="rgb(0, 0, 0)" d="M 100.46,47.58 C 99.77,47.68 99.09,47.76 98.39,47.79 98.05,47.81 97.69,47.88 97.35,47.79 97.01,47.71 96.65,47.59 96.36,47.28 L 96.39,47.21 C 96.76,47.12 97.08,47.06 97.42,47.05 97.75,47.03 98.08,47.13 98.42,47.19 L 100.46,47.5 100.46,47.58 Z M 100.46,47.58" />
            </g>
            <g id="kazAveTop02-group472">
                <path id="kazAveTop02-bezier626" stroke="none" fill="rgb(0, 0, 0)" d="M 100.58,12.74 L 99.21,13.03 C 98.99,13.08 98.78,13.18 98.56,13.16 98.33,13.14 98.13,13.09 97.85,12.99 L 97.82,12.92 C 97.97,12.64 98.22,12.51 98.45,12.42 98.69,12.34 98.94,12.4 99.18,12.43 99.66,12.47 100.12,12.55 100.58,12.67 L 100.58,12.74 Z M 100.58,12.74" />
            </g>
            <g id="kazAveTop02-group473">
                <path id="kazAveTop02-bezier627" stroke="none" fill="rgb(0, 0, 0)" d="M 111.12,32.98 C 111.3,32.99 111.48,33.12 111.61,33.26 111.74,33.4 111.83,33.55 111.92,33.74 L 111.94,33.78 111.91,33.88 C 111.84,34.06 111.81,34.26 111.67,34.42 111.53,34.55 111.36,34.73 111.09,34.7 L 111.07,34.65 C 111.14,34.45 111.18,34.3 111.25,34.14 111.32,33.98 111.46,33.86 111.56,33.71 L 111.55,33.85 C 111.52,33.7 111.47,33.54 111.4,33.39 111.34,33.24 111.26,33.1 111.1,33.02 L 111.12,32.98 Z M 111.12,32.98" />
            </g>
            <g id="kazAveTop02-group474">
                <path id="kazAveTop02-bezier628" stroke="none" fill="rgb(0, 0, 0)" d="M 49.17,43.15 C 52.15,44.16 55.22,44.9 58.29,45.58 61.37,46.26 64.46,46.85 67.57,47.37 70.67,47.89 73.79,48.32 76.91,48.72 L 86.28,49.95 86.31,49.95 86.33,49.96 C 87.2,50.25 88.19,50.21 89.05,49.84 89.49,49.66 89.9,49.41 90.24,49.08 90.58,48.75 90.87,48.33 90.9,47.85 L 90.97,47.85 C 90.99,48.37 90.73,48.85 90.4,49.23 90.07,49.62 89.66,49.93 89.2,50.16 88.29,50.63 87.19,50.76 86.17,50.49 L 86.22,50.5 C 83.08,50.24 79.94,49.94 76.81,49.47 73.69,49.02 70.58,48.48 67.47,47.9 64.37,47.31 61.28,46.67 58.22,45.91 55.16,45.14 52.11,44.32 49.14,43.23 L 49.17,43.15 Z M 49.17,43.15" />
            </g>
        </g>
    </g>
</svg>
