<?xml version="1.0" encoding="UTF-8"?>
<!DOCTYPE svg PUBLIC "-//W3C//DTD SVG 1.1//EN" "http://www.w3.org/Graphics/SVG/1.1/DTD/svg11.dtd">
<svg version="1.1" xmlns="http://www.w3.org/2000/svg" xmlns:xlink="http://www.w3.org/1999/xlink" width="160" height="160"  xml:space="preserve" id="kazAveSide03">
    <!-- Generated by PaintCode - http://www.paintcodeapp.com -->
    <g id="kazAveSide03-group">
        <circle id="kazAveSide03-oval55" stroke="rgb(0, 0, 0)" stroke-width="2" stroke-miterlimit="10" fill="none" cx="126.88" cy="120" r="29" />
        <path id="kazAveSide03-bezier1123" stroke="rgb(0, 0, 0)" stroke-width="2" stroke-miterlimit="10" fill="none" d="M 56.3,137.54 C 51.01,144.5 42.63,149 33.21,149 17.19,149 4.21,136.02 4.21,120 4.21,103.98 17.19,91 33.21,91 40.8,91 47.71,93.92 52.87,98.69" />
        <path id="kazAveSide03-bezier1124" stroke="rgb(0, 0, 0)" stroke-width="2" stroke-miterlimit="10" fill="none" d="M 60.34,109.73 C 61.54,112.92 62.21,116.38 62.21,120 62.21,123.62 61.54,127.08 60.33,130.28" />
        <circle id="kazAveSide03-oval56" stroke="rgb(0, 0, 0)" stroke-width="2" stroke-miterlimit="10" fill="none" cx="71.71" cy="127" r="8.33" />
        <circle id="kazAveSide03-oval57" stroke="rgb(0, 0, 0)" stroke-width="2" stroke-miterlimit="10" fill="none" cx="33.21" cy="120" r="2.5" />
        <path id="kazAveSide03-bezier1125" stroke="rgb(0, 0, 0)" stroke-width="2" stroke-miterlimit="10" fill="none" d="M 53.51,123.69 L 71.71,127" />
        <path id="kazAveSide03-bezier1126" stroke="rgb(0, 0, 0)" stroke-width="2" stroke-miterlimit="10" fill="none" d="M 53.05,78.08 L 33.21,120 46.19,122.36" />
        <path id="kazAveSide03-bezier1127" stroke="rgb(0, 0, 0)" stroke-width="2" stroke-miterlimit="10" fill="none" d="M 105.54,72.83 L 69,72.83" />
        <path id="kazAveSide03-bezier1128" stroke="rgb(0, 0, 0)" stroke-width="2" stroke-miterlimit="10" fill="none" d="M 112.34,75.5 L 126.88,120" />
        <path id="kazAveSide03-bezier1129" stroke="rgb(0, 0, 0)" stroke-width="2" stroke-miterlimit="10" fill="none" d="M 114.54,82.23 L 78.71,117.5" />
        <path id="kazAveSide03-bezier1130" stroke="rgb(0, 0, 0)" stroke-width="2" stroke-miterlimit="10" fill="none" d="M 68.38,116 L 64.44,102" />
        <path id="kazAveSide03-bezier1131" stroke="rgb(0, 0, 0)" stroke-width="2" stroke-miterlimit="10" fill="none" d="M 43.42,62.65 C 42.43,62.52 41.66,62.26 41.21,61.83 38.38,59.17 34.88,57.5 41.21,57.5" />
        <path id="kazAveSide03-bezier1132" stroke="rgb(0, 0, 0)" stroke-width="1" stroke-miterlimit="10" fill="none" d="M 47,118.67 L 37.27,118.67" />
        <path id="kazAveSide03-bezier1133" stroke="rgb(0, 0, 0)" stroke-width="1" stroke-miterlimit="10" fill="none" d="M 66.65,118.67 L 56.56,118.67" />
        <path id="kazAveSide03-bezier1134" stroke="rgb(0, 0, 0)" stroke-width="1" stroke-miterlimit="10" fill="none" d="M 35.21,123.5 L 43.85,126.43" />
        <path id="kazAveSide03-bezier1135" stroke="rgb(0, 0, 0)" stroke-width="2" stroke-miterlimit="10" fill="none" d="M 124.96,77.79 C 124.96,77.79 129.12,76.75 129.12,71.25 129.12,65.75 125.29,62.33 118.46,62.33 111.62,62.33 110,62.33 110,62.33" />
        <path id="kazAveSide03-bezier1136" stroke="rgb(0, 0, 0)" stroke-width="2" stroke-miterlimit="10" fill="none" d="M 81.48,117.08 L 89.31,117.08" />
        <path id="kazAveSide03-bezier1137" stroke="rgb(0, 0, 0)" stroke-width="2" stroke-miterlimit="10" fill="none" d="M 50.82,135.65 L 58.65,135.65" />
        <g id="kazAveSide03-group853">
            <g id="kazAveSide03-group854">
                <path id="kazAveSide03-bezier1138" stroke="none" fill="rgb(0, 0, 0)" d="M 120.94,75.63 C 121.61,76.41 122.28,77.18 122.97,77.92 123.31,78.28 123.73,78.58 124.01,78.97 124.32,79.34 124.52,79.75 124.91,80.09 L 124.91,80.19 C 124.61,80.3 124.27,80.22 124.01,80.11 123.74,80 123.51,79.84 123.3,79.67 122.86,79.33 122.62,78.84 122.34,78.41 121.77,77.54 121.28,76.62 120.86,75.68 L 120.94,75.63 Z M 120.94,75.63" />
            </g>
            <g id="kazAveSide03-group855">
                <path id="kazAveSide03-bezier1139" stroke="none" fill="rgb(0, 0, 0)" d="M 125.94,80.27 C 124.68,81.34 123.34,82.33 121.82,83.04 121.06,83.37 120.22,83.69 119.3,83.48 118.43,83.26 117.75,82.62 117.24,81.94 116.23,80.56 115.66,78.96 115.06,77.43 L 115.01,77.31 C 114.99,77.27 114.97,77.2 114.95,77.19 114.92,77.14 114.86,77.05 114.8,76.98 114.69,76.84 114.55,76.69 114.41,76.55 114.13,76.27 113.83,75.99 113.53,75.73 112.91,75.19 112.27,74.68 111.63,74.17 109.03,72.17 106.29,70.33 103.62,68.41 102.29,67.43 100.94,66.49 99.6,65.54 98.93,65.06 98.25,64.6 97.57,64.14 96.89,63.68 96.2,63.21 95.48,62.84 L 95.51,62.75 C 97.11,63.28 98.53,64.14 99.97,64.96 101.41,65.79 102.8,66.69 104.19,67.58 106.95,69.41 109.57,71.44 112.13,73.55 112.77,74.08 113.4,74.62 114.01,75.19 114.32,75.47 114.62,75.76 114.91,76.08 115.06,76.24 115.2,76.4 115.33,76.58 115.4,76.67 115.46,76.75 115.54,76.89 115.58,76.95 115.58,76.99 115.61,77.04 L 115.67,77.21 C 116.22,78.76 116.73,80.33 117.64,81.65 118.09,82.3 118.67,82.88 119.41,83.1 120.13,83.3 120.96,83.06 121.7,82.76 123.2,82.13 124.58,81.2 125.88,80.19 L 125.94,80.27 Z M 125.94,80.27" />
            </g>
            <g id="kazAveSide03-group856">
                <path id="kazAveSide03-bezier1140" stroke="none" fill="rgb(0, 0, 0)" d="M 94.19,61.88 C 93.39,61.57 92.61,60.86 92.56,59.88 92.46,59.07 92.2,58.21 91.99,57.38 91.56,55.71 91.09,54.03 90.62,52.37 90.14,50.7 89.59,49.06 89.2,47.37 88.8,45.69 88.49,43.96 88.17,42.28 L 88.25,42.22 C 88.72,43 89,43.82 89.32,44.63 89.64,45.45 89.9,46.28 90.16,47.11 90.68,48.77 91.01,50.48 91.39,52.17 91.77,53.87 92.14,55.56 92.48,57.27 92.63,58.13 92.82,58.97 92.86,59.88 92.83,60.7 93.47,61.43 94.23,61.79 L 94.19,61.88 Z M 94.19,61.88" />
            </g>
            <g id="kazAveSide03-group857">
                <path id="kazAveSide03-bezier1141" stroke="none" fill="rgb(0, 0, 0)" d="M 87.13,41.66 C 88.72,40.72 90.43,39.96 92.22,39.42 94.01,38.9 95.89,38.59 97.81,38.69 L 97.28,39.25 C 97.04,38.23 96.66,37.14 96.31,36.07 95.94,35 95.56,33.93 95.15,32.85 L 95.24,32.8 C 96,33.68 96.62,34.69 97.13,35.73 97.64,36.79 98.07,37.87 98.24,39.1 L 98.34,39.76 97.71,39.66 C 95.96,39.41 94.13,39.58 92.36,39.98 90.59,40.38 88.84,40.96 87.18,41.75 L 87.13,41.66 Z M 87.13,41.66" />
            </g>
            <g id="kazAveSide03-group858">
                <path id="kazAveSide03-bezier1142" stroke="none" fill="rgb(0, 0, 0)" d="M 97.39,40.72 C 98.17,43.19 98.78,45.72 99.21,48.28 99.44,49.56 99.68,50.86 99.69,52.17 99.69,53.47 99.6,54.79 99.25,56.07 L 99.15,56.06 C 98.95,54.76 98.83,53.49 98.69,52.22 98.55,50.95 98.53,49.67 98.42,48.39 98.16,45.83 97.79,43.28 97.29,40.74 L 97.39,40.72 Z M 97.39,40.72" />
            </g>
            <g id="kazAveSide03-group859">
                <path id="kazAveSide03-bezier1143" stroke="none" fill="rgb(0, 0, 0)" d="M 99.93,56.72 C 102.47,57.56 104.73,59.27 106.34,61.43 108.04,63.45 109.94,65.32 111.85,67.17 113.77,69 115.76,70.76 117.75,72.49 118.24,72.91 118.75,73.35 119.26,73.66 119.71,73.94 120.36,73.99 121.01,74.06 121.66,74.11 122.4,74.18 123.05,74.51 123.68,74.86 124.16,75.38 124.51,75.96 L 124.43,76.02 C 123.97,75.54 123.46,75.12 122.86,74.93 122.28,74.72 121.65,74.73 120.99,74.75 120.32,74.77 119.58,74.77 118.84,74.42 118.19,74.07 117.66,73.67 117.12,73.26 114.99,71.59 113.14,69.65 111.28,67.74 109.43,65.8 107.6,63.86 105.95,61.74 104.47,59.55 102.37,57.78 99.9,56.82 L 99.93,56.72 Z M 99.93,56.72" />
            </g>
            <g id="kazAveSide03-group860">
                <path id="kazAveSide03-bezier1144" stroke="none" fill="rgb(0, 0, 0)" d="M 100.85,29.62 C 101.56,30.61 102.49,31.44 103.52,32.05 104.55,32.69 105.67,33.03 106.88,33.17 108.08,33.34 109.3,33.37 110.44,33.36 111.57,33.34 112.74,33.1 113.02,31.8 L 113.12,31.8 C 113.27,32.41 113.04,33.22 112.43,33.66 111.86,34.11 111.17,34.27 110.52,34.36 109.2,34.52 107.95,34.22 106.74,33.96 105.51,33.72 104.25,33.22 103.24,32.47 102.23,31.71 101.38,30.76 100.77,29.67 L 100.85,29.62 Z M 100.85,29.62" />
            </g>
            <g id="kazAveSide03-group861">
                <path id="kazAveSide03-bezier1145" stroke="none" fill="rgb(0, 0, 0)" d="M 112.95,28.69 C 113.58,28.54 114.24,28.29 114.66,27.85 114.87,27.63 114.97,27.36 114.92,27.08 114.89,26.82 114.71,26.54 114.56,26.23 113.98,25.03 113.42,23.81 113,22.5 112.8,21.84 112.59,21.19 112.6,20.39 112.65,19.75 112.59,19.19 112.47,18.56 112.22,17.37 111.83,16.08 110.69,15.41 L 110.71,15.31 C 111.43,15.36 112.06,15.86 112.5,16.42 112.95,16.98 113.24,17.65 113.44,18.33 113.53,18.68 113.59,19.03 113.63,19.39 113.65,19.57 113.64,19.75 113.64,19.94 113.63,20.13 113.59,20.35 113.59,20.46 113.52,21 113.64,21.67 113.77,22.29 114.07,23.55 114.53,24.8 115.01,26.03 115.12,26.33 115.29,26.64 115.32,27.05 115.36,27.44 115.15,27.84 114.87,28.07 114.31,28.53 113.63,28.69 112.97,28.79 L 112.95,28.69 Z M 112.95,28.69" />
            </g>
            <g id="kazAveSide03-group862">
                <path id="kazAveSide03-bezier1146" stroke="none" fill="rgb(0, 0, 0)" d="M 104.3,27 C 103.76,26.6 103.26,26.14 102.84,25.58 102.63,25.3 102.35,25.02 102.31,24.62 102.26,24.26 102.33,23.73 102.74,23.5 L 102.83,23.54 C 102.98,23.92 103.14,24.09 103.27,24.34 103.41,24.57 103.42,24.89 103.54,25.18 103.77,25.76 104.06,26.35 104.38,26.94 L 104.3,27 Z M 104.3,27" />
            </g>
            <g id="kazAveSide03-group863">
                <path id="kazAveSide03-bezier1147" stroke="none" fill="rgb(0, 0, 0)" d="M 97.11,34.15 C 97.9,33.75 98.71,33.39 99.56,33.11 99.99,32.98 100.41,32.76 100.88,32.78 101.33,32.8 101.87,32.87 102.25,33.27 L 102.22,33.36 C 101.76,33.52 101.4,33.67 100.99,33.78 100.6,33.9 100.16,33.84 99.73,33.89 98.88,33.99 98.01,34.12 97.14,34.25 L 97.11,34.15 Z M 97.11,34.15" />
            </g>
            <g id="kazAveSide03-group864">
                <path id="kazAveSide03-bezier1148" stroke="none" fill="rgb(0, 0, 0)" d="M 82.7,25.61 C 78.81,25.84 75,26.56 71.27,27.62 69.41,28.15 67.58,28.81 65.7,29.3 64.76,29.55 63.81,29.79 62.84,29.96 61.87,30.13 60.88,30.28 59.89,30.19 L 59.88,30.09 C 61.78,29.68 63.56,28.94 65.42,28.34 67.26,27.72 69.17,27.27 71.07,26.84 72.98,26.41 74.91,26.05 76.85,25.81 78.8,25.58 80.75,25.51 82.7,25.51 L 82.7,25.61 Z M 82.7,25.61" />
            </g>
            <g id="kazAveSide03-group865">
                <path id="kazAveSide03-bezier1149" stroke="none" fill="rgb(0, 0, 0)" d="M 59.15,30.92 C 60.49,33.29 61.76,35.71 62.91,38.18 63.48,39.43 64.02,40.68 64.49,41.97 64.96,43.27 65.4,44.57 65.56,46.01 L 64.93,45.65 C 66.94,44.6 69,43.67 71.17,43 72.26,42.69 73.35,42.37 74.49,42.22 75.61,42.06 76.79,41.97 77.89,42.28 L 77.88,42.38 C 76.76,42.33 75.68,42.58 74.62,42.86 73.56,43.17 72.51,43.5 71.47,43.9 69.41,44.7 67.34,45.52 65.32,46.43 L 64.73,46.7 64.69,46.07 C 64.61,44.79 64.24,43.48 63.83,42.2 63.42,40.92 62.94,39.65 62.42,38.4 61.4,35.88 60.28,33.41 59.06,30.97 L 59.15,30.92 Z M 59.15,30.92" />
            </g>
            <g id="kazAveSide03-group866">
                <path id="kazAveSide03-bezier1150" stroke="none" fill="rgb(0, 0, 0)" d="M 79.73,42.99 C 80.22,43.29 80.76,43.5 81.3,43.66 81.84,43.82 82.39,43.92 82.94,43.95 83.5,43.98 84.03,43.85 84.57,43.86 85.12,43.86 85.67,43.84 86.31,43.91 L 86.34,44 C 85.88,44.46 85.3,44.72 84.69,44.86 84.07,45 83.43,44.87 82.83,44.74 81.63,44.48 80.51,43.9 79.66,43.07 L 79.73,42.99 Z M 79.73,42.99" />
            </g>
            <g id="kazAveSide03-group867">
                <path id="kazAveSide03-bezier1151" stroke="none" fill="rgb(0, 0, 0)" d="M 58.61,33.08 C 57.25,34.04 55.83,34.92 54.35,35.7 53.61,36.08 52.87,36.53 52.04,36.73 51.22,36.93 50.31,37.08 49.45,36.77 L 49.46,36.67 C 50.27,36.43 50.97,36.1 51.72,35.79 52.45,35.46 53.25,35.27 54.02,34.97 55.54,34.37 57.06,33.7 58.56,33 L 58.61,33.08 Z M 58.61,33.08" />
            </g>
            <g id="kazAveSide03-group868">
                <path id="kazAveSide03-bezier1152" stroke="none" fill="rgb(0, 0, 0)" d="M 42.49,56.13 C 41.42,54.66 40.62,52.98 40.19,51.2 39.98,50.31 39.82,49.4 39.84,48.47 39.85,47.54 40.02,46.62 40.3,45.73 40.86,43.96 41.85,42.37 43.01,40.94 44.18,39.51 45.49,38.23 46.98,37.1 L 47.26,36.89 47.52,37.18 C 48.5,38.29 49.75,39.25 51.05,40.01 51.71,40.39 52.39,40.73 53.1,41.01 L 54.18,41.42 C 54.56,41.57 54.95,41.75 55.3,41.94 56.75,42.69 58,43.7 59.18,44.77 60.36,45.84 61.41,47.01 62.39,48.26 L 62.5,48.4 62.42,48.53 C 62.08,49.08 61.71,49.58 61.31,50.07 60.9,50.54 60.46,51.03 59.85,51.27 L 59.81,51.18 C 60.34,50.88 60.71,50.37 61.06,49.88 61.41,49.38 61.72,48.84 61.99,48.3 L 62.02,48.57 C 60.96,47.44 59.8,46.39 58.62,45.4 57.43,44.42 56.17,43.53 54.83,42.84 54.17,42.48 53.48,42.28 52.7,41.95 51.96,41.63 51.24,41.26 50.56,40.83 49.19,39.97 47.95,38.96 46.89,37.68 L 47.44,37.76 C 46.01,38.78 44.67,40.01 43.51,41.35 42.35,42.7 41.36,44.22 40.77,45.89 40.47,46.72 40.28,47.6 40.24,48.48 40.19,49.36 40.31,50.26 40.48,51.14 40.84,52.89 41.56,54.58 42.58,56.07 L 42.49,56.13 Z M 42.49,56.13" />
            </g>
            <g id="kazAveSide03-group869">
                <path id="kazAveSide03-bezier1153" stroke="none" fill="rgb(0, 0, 0)" d="M 78.93,74.7 C 78.57,75.68 78.25,76.68 78.07,77.7 77.9,78.71 77.95,79.77 77.92,80.82 77.87,82.91 77.83,85.02 77.75,87.12 77.67,89.22 77.61,91.34 77.28,93.43 76.9,95.49 76.56,97.66 75.42,99.5 L 75.33,99.46 C 75.91,97.45 76.09,95.38 76.29,93.3 L 76.95,87.07 C 77.13,84.98 77.27,82.89 77.42,80.8 77.52,79.75 77.53,78.7 77.77,77.64 78.03,76.61 78.42,75.62 78.84,74.66 L 78.93,74.7 Z M 78.93,74.7" />
            </g>
            <g id="kazAveSide03-group870">
                <path id="kazAveSide03-bezier1154" stroke="none" fill="rgb(0, 0, 0)" d="M 80.28,71.58 L 80.74,70.62 C 80.86,70.3 80.96,69.93 80.91,69.64 80.88,69.48 80.83,69.43 80.68,69.39 L 80.17,69.23 79.14,68.92 C 77.77,68.51 76.4,68.12 75.01,67.77 73.63,67.42 72.23,67.17 70.86,66.8 69.48,66.45 68.13,66.09 66.71,65.77 L 66.71,65.67 C 68.17,65.44 69.64,65.59 71.07,65.82 72.5,66.07 73.87,66.55 75.24,67 76.6,67.46 77.96,67.94 79.3,68.46 L 80.3,68.86 80.8,69.07 C 81,69.12 81.22,69.38 81.2,69.6 81.23,70.43 80.72,71.01 80.37,71.63 L 80.28,71.58 Z M 80.28,71.58" />
            </g>
            <g id="kazAveSide03-group871">
                <path id="kazAveSide03-bezier1155" stroke="none" fill="rgb(0, 0, 0)" d="M 62.3,49.7 C 67.21,50.73 72.04,52.19 76.67,54.17 78.99,55.16 81.29,56.24 83.39,57.66 85.47,59.1 87.46,60.73 89,62.74 L 88.93,62.81 C 86.99,61.22 84.99,59.77 82.85,58.51 80.73,57.23 78.59,55.98 76.34,54.9 74.09,53.83 71.78,52.89 69.43,52.05 67.08,51.19 64.7,50.44 62.28,49.79 L 62.3,49.7 Z M 62.3,49.7" />
            </g>
            <g id="kazAveSide03-group872">
                <path id="kazAveSide03-bezier1156" stroke="none" fill="rgb(0, 0, 0)" d="M 89.38,74.67 C 89.14,75.87 88.9,77.08 88.78,78.28 88.74,78.6 88.79,78.85 88.76,79.21 88.72,79.53 88.65,79.83 88.58,80.13 88.44,80.73 88.28,81.32 88.11,81.91 87.44,84.28 86.69,86.61 85.95,88.95 L 83.75,95.96 82.64,99.46 C 82.29,100.61 81.84,101.8 81.61,102.9 L 81.49,103.5 80.99,103.22 C 80.1,102.71 79.18,102.19 78.25,101.74 77.78,101.51 77.31,101.3 76.82,101.11 76.35,100.95 75.82,100.74 75.36,100.89 L 75.3,100.8 C 75.83,100.52 76.41,100.68 76.92,100.77 77.45,100.88 77.96,101.04 78.46,101.22 79.47,101.58 80.44,101.99 81.4,102.48 L 80.78,102.8 C 80.98,101.49 81.31,100.34 81.67,99.15 82.02,97.97 82.42,96.81 82.82,95.65 L 85.29,88.72 C 86.11,86.42 86.93,84.1 87.7,81.78 87.89,81.2 88.08,80.62 88.25,80.04 88.33,79.75 88.41,79.45 88.46,79.16 88.5,78.91 88.47,78.55 88.52,78.25 88.7,77.02 88.99,75.84 89.29,74.64 L 89.38,74.67 Z M 89.38,74.67" />
            </g>
            <g id="kazAveSide03-group873">
                <path id="kazAveSide03-bezier1157" stroke="none" fill="rgb(0, 0, 0)" d="M 90.08,71.35 L 90.29,70.2 C 90.33,70 90.37,69.84 90.33,69.63 90.32,69.43 90.32,69.24 90.32,69.04 L 90.32,69.03 90.32,69 C 90.58,68.02 90.54,67.02 90.39,66.09 90.27,65.14 90,64.2 89.55,63.23 L 89.62,63.16 C 90.58,63.75 91.17,64.81 91.41,65.91 91.61,67.04 91.35,68.18 91.01,69.21 L 91.01,69.17 C 90.93,69.35 90.87,69.54 90.77,69.72 90.67,69.89 90.61,70.1 90.55,70.27 L 90.18,71.37 90.08,71.35 Z M 90.08,71.35" />
            </g>
            <g id="kazAveSide03-group874">
                <path id="kazAveSide03-bezier1158" stroke="none" fill="rgb(0, 0, 0)" d="M 73.6,106.74 L 74.32,104.47 C 74.44,104.09 74.47,103.69 74.66,103.36 74.84,103.02 75.08,102.74 75.31,102.39 L 75.41,102.36 C 75.74,102.8 75.66,103.3 75.61,103.7 75.53,104.12 75.25,104.45 75.05,104.79 74.64,105.49 74.19,106.16 73.69,106.79 L 73.6,106.74 Z M 73.6,106.74" />
            </g>
            <g id="kazAveSide03-group875">
                <path id="kazAveSide03-bezier1159" stroke="none" fill="rgb(0, 0, 0)" d="M 78.56,115.19 C 77.27,114.86 75.95,114.56 74.65,114.51 73.35,114.54 71.89,114.5 70.59,113.76 69.94,113.42 69.34,112.64 69.35,111.77 69.34,110.93 69.74,110.23 70.12,109.67 70.89,108.55 71.77,107.51 72.83,106.65 L 72.91,106.71 C 72.27,107.91 71.6,109.04 70.97,110.19 70.64,110.75 70.38,111.28 70.34,111.79 70.29,112.29 70.55,112.75 71.03,113.09 71.51,113.43 72.12,113.64 72.74,113.78 73.38,113.94 73.99,113.96 74.69,114.01 76.06,114.21 77.33,114.64 78.59,115.09 L 78.56,115.19 Z M 78.56,115.19" />
            </g>
            <g id="kazAveSide03-group876">
                <path id="kazAveSide03-bezier1160" stroke="none" fill="rgb(0, 0, 0)" d="M 74.44,107.63 C 75.01,108.07 75.63,108.44 76.24,108.69 76.56,108.82 76.89,108.82 77.16,108.96 77.44,109.09 77.72,109.23 78.11,109.44 L 78.12,109.54 C 77.8,109.88 77.34,109.97 76.93,109.93 76.5,109.9 76.16,109.62 75.85,109.39 75.22,108.92 74.73,108.34 74.36,107.69 L 74.44,107.63 Z M 74.44,107.63" />
            </g>
            <g id="kazAveSide03-group877">
                <path id="kazAveSide03-bezier1161" stroke="none" fill="rgb(0, 0, 0)" d="M 85.92,112.38 C 86.1,112.49 86.29,112.58 86.48,112.64 86.66,112.71 86.85,112.7 87.08,112.74 87.51,112.8 87.93,112.91 88.34,113.03 89.15,113.31 89.96,113.62 90.7,114.22 90.88,114.37 91.06,114.55 91.2,114.81 91.27,114.94 91.34,115.08 91.36,115.26 91.38,115.39 91.39,115.49 91.4,115.63 91.4,115.76 91.39,115.91 91.34,116.09 91.28,116.27 91.15,116.48 90.98,116.6 90.64,116.83 90.38,116.83 90.14,116.86 89.21,116.88 88.41,116.72 87.56,116.46 L 87.56,116.36 C 88.39,116.08 89.28,116 90.02,115.86 90.19,115.84 90.36,115.77 90.37,115.76 90.35,115.78 90.39,115.78 90.41,115.6 90.42,115.53 90.43,115.42 90.43,115.35 90.44,115.31 90.43,115.26 90.41,115.2 90.36,115.08 90.26,114.93 90.14,114.8 89.63,114.26 88.89,113.84 88.16,113.5 87.79,113.32 87.41,113.16 87.01,113.03 86.84,112.97 86.6,112.94 86.4,112.83 86.21,112.72 86.03,112.6 85.87,112.47 L 85.92,112.38 Z M 85.92,112.38" />
            </g>
            <g id="kazAveSide03-group878">
                <path id="kazAveSide03-bezier1162" stroke="none" fill="rgb(0, 0, 0)" d="M 79.69,108.56 C 79.95,108.22 80.24,107.88 80.74,107.71 80.99,107.64 81.33,107.69 81.57,107.87 81.82,108.07 81.9,108.17 82.07,108.32 82.37,108.59 82.75,108.8 82.97,109.15 83.21,109.49 83.42,109.85 83.53,110.34 L 83.46,110.41 C 82.97,110.32 82.59,110.1 82.25,109.84 81.91,109.59 81.72,109.19 81.47,108.84 L 81.15,108.36 C 81.07,108.27 80.97,108.2 80.81,108.2 80.49,108.19 80.09,108.39 79.77,108.63 L 79.69,108.56 Z M 79.69,108.56" />
            </g>
            <g id="kazAveSide03-group879">
                <path id="kazAveSide03-bezier1163" stroke="none" fill="rgb(0, 0, 0)" d="M 78.77,108.19 C 78.7,107.63 78.68,107.06 78.74,106.49 78.76,106.2 78.72,105.88 78.9,105.62 79,105.49 79.1,105.35 79.26,105.24 79.39,105.14 79.65,105.02 79.85,105.13 L 79.87,105.23 C 79.79,105.54 79.89,105.74 79.83,105.99 79.81,106.23 79.62,106.44 79.51,106.68 79.3,107.17 79.09,107.69 78.87,108.21 L 78.77,108.19 Z M 78.77,108.19" />
            </g>
            <g id="kazAveSide03-group880">
                <path id="kazAveSide03-bezier1164" stroke="none" fill="rgb(0, 0, 0)" d="M 52.44,126.97 C 53.54,128.06 54.79,129.03 56.19,129.61 56.87,129.9 57.65,130.03 58.4,130.24 59.16,130.43 59.92,130.64 60.68,130.88 61.43,131.12 62.19,131.38 62.93,131.79 63.29,132.01 63.67,132.24 63.99,132.68 64.14,132.9 64.26,133.18 64.24,133.56 64.24,133.6 64.2,133.87 64.13,134 64.07,134.15 63.97,134.27 63.87,134.38 63.45,134.78 63,134.89 62.59,134.99 62.17,135.06 61.76,135.11 61.36,135.1 60.55,135.1 59.76,135.02 58.99,134.86 L 58.99,134.76 C 59.77,134.63 60.54,134.55 61.29,134.41 61.66,134.32 62.03,134.25 62.36,134.13 62.69,134.03 63.02,133.87 63.14,133.7 63.17,133.66 63.2,133.63 63.2,133.59 63.22,133.55 63.21,133.62 63.22,133.47 63.22,133.45 63.2,133.35 63.13,133.26 62.99,133.05 62.72,132.82 62.42,132.63 61.82,132.24 61.12,131.92 60.41,131.63 59.69,131.35 58.96,131.1 58.22,130.86 57.49,130.6 56.72,130.44 55.98,130.07 54.55,129.32 53.38,128.22 52.36,127.03 L 52.44,126.97 Z M 52.44,126.97" />
            </g>
            <g id="kazAveSide03-group881">
                <path id="kazAveSide03-bezier1165" stroke="none" fill="rgb(0, 0, 0)" d="M 50.12,134.53 C 48.89,134.32 47.64,134.17 46.4,134.12 45.78,134.07 45.19,134.12 44.5,134.04 43.84,133.96 43.08,133.7 42.64,133.01 42.2,132.32 42.26,131.49 42.45,130.83 42.63,130.22 42.82,129.64 43.04,129.04 43.28,128.45 43.52,127.86 43.87,127.3 44.04,127.02 44.22,126.74 44.46,126.49 44.69,126.27 45.01,125.99 45.38,126.05 L 45.38,126.15 C 45.11,126.24 44.95,126.49 44.83,126.76 44.69,127.02 44.59,127.3 44.5,127.59 44.32,128.17 44.15,128.76 43.99,129.36 43.81,129.95 43.63,130.56 43.39,131.14 43.18,131.65 43.12,132.19 43.33,132.6 43.53,133.02 44.05,133.29 44.61,133.4 45.16,133.52 45.83,133.52 46.45,133.62 47.71,133.81 48.93,134.09 50.15,134.43 L 50.12,134.53 Z M 50.12,134.53" />
            </g>
            <g id="kazAveSide03-group882">
                <path id="kazAveSide03-bezier1166" stroke="none" fill="rgb(0, 0, 0)" d="M 53.69,122.55 L 50.36,121.72 48.69,121.33 C 48.14,121.21 47.56,121.08 47.04,121.02 L 46.78,121 46.88,120.76 C 47.88,118.28 48.86,115.8 49.77,113.29 50.22,112.04 50.68,110.78 51.06,109.52 51.44,108.25 51.74,106.96 52.03,105.66 52.59,103.07 53.07,100.43 53.89,97.85 54.29,96.56 54.75,95.27 55.44,94.08 56.1,92.9 57.06,91.75 58.36,91.29 L 58.4,91.38 C 57.24,92.04 56.52,93.18 55.98,94.36 55.46,95.55 55.08,96.81 54.76,98.09 54.14,100.66 53.62,103.28 52.93,105.88 52.6,107.18 52.23,108.48 51.8,109.76 51.37,111.04 50.88,112.28 50.39,113.53 49.39,116.02 48.34,118.48 47.23,120.91 L 47.06,120.64 C 47.67,120.73 48.21,120.89 48.77,121.03 L 50.42,121.49 53.72,122.45 53.69,122.55 Z M 53.69,122.55" />
            </g>
            <g id="kazAveSide03-group883">
                <path id="kazAveSide03-bezier1167" stroke="none" fill="rgb(0, 0, 0)" d="M 57.92,88.93 C 57.26,86.14 56.47,83.37 55.4,80.73 54.85,79.42 54.26,78.09 53.36,77.08 53.14,76.82 52.89,76.68 52.57,76.38 52.29,76.12 52.05,75.84 51.81,75.56 51.34,74.99 50.92,74.4 50.5,73.81 48.86,71.42 47.35,68.96 46.04,66.39 45.4,65.1 44.76,63.81 44.18,62.49 43.62,61.16 43,59.87 42.67,58.42 L 42.77,58.41 C 43.03,59.05 43.41,59.68 43.76,60.3 L 44.81,62.18 46.92,65.92 C 48.34,68.4 49.64,70.96 51.17,73.36 51.55,73.96 51.95,74.55 52.38,75.1 52.59,75.38 52.81,75.65 53.05,75.89 53.24,76.09 53.61,76.34 53.85,76.64 54.82,77.83 55.35,79.2 55.86,80.55 56.82,83.28 57.48,86.08 58.02,88.91 L 57.92,88.93 Z M 57.92,88.93" />
            </g>
            <g id="kazAveSide03-group884">
                <path id="kazAveSide03-bezier1168" stroke="none" fill="rgb(0, 0, 0)" d="M 60.6,52.02 C 62.03,54.62 63.21,57.35 64.29,60.12 65.34,62.9 66.25,65.74 67.03,68.61 67.81,71.48 68.52,74.38 68.92,77.34 69.29,80.29 69.54,83.27 69.43,86.25 L 69.33,86.25 C 68.86,83.32 68.48,80.39 67.93,77.49 67.41,74.59 66.93,71.68 66.25,68.8 65.58,65.93 64.77,63.09 63.82,60.29 62.87,57.49 61.82,54.72 60.51,52.06 L 60.6,52.02 Z M 60.6,52.02" />
            </g>
            <g id="kazAveSide03-group885">
                <path id="kazAveSide03-bezier1169" stroke="none" fill="rgb(0, 0, 0)" d="M 69.89,86.99 C 70.13,88.09 70.1,89.25 69.79,90.37 69.63,90.93 69.48,91.52 69.09,91.98 68.7,92.43 68.22,92.81 67.63,92.97 L 67.56,92.9 C 67.78,92.33 68.03,91.88 68.26,91.42 68.48,90.96 68.82,90.58 69.04,90.1 69.26,89.63 69.43,89.13 69.56,88.61 69.69,88.09 69.78,87.55 69.79,87.01 L 69.89,86.99 Z M 69.89,86.99" />
            </g>
            <g id="kazAveSide03-group886">
                <path id="kazAveSide03-bezier1170" stroke="none" fill="rgb(0, 0, 0)" d="M 66.69,94.44 L 63.74,101.56 62.21,105.09 61.4,106.85 C 61.26,107.15 61.13,107.43 60.96,107.74 60.83,107.94 60.79,107.99 60.71,108.14 L 60.5,108.56 C 59.39,110.85 58.43,113.24 57.33,115.55 L 55.68,119.02 C 55.14,120.18 54.56,121.32 54.1,122.51 L 54,122.49 C 54.46,119.92 55.49,117.54 56.42,115.14 57.41,112.76 58.56,110.47 59.79,108.19 L 60.03,107.76 C 60.1,107.63 60.26,107.41 60.3,107.34 60.46,107.1 60.61,106.81 60.75,106.53 L 61.62,104.82 63.29,101.35 66.6,94.4 66.69,94.44 Z M 66.69,94.44" />
            </g>
            <g id="kazAveSide03-group887">
                <path id="kazAveSide03-bezier1171" stroke="none" fill="rgb(0, 0, 0)" d="M 52.76,123.06 C 52.64,123.76 52.5,124.45 52.35,125.13 52.28,125.47 52.29,125.84 52.12,126.14 51.95,126.45 51.75,126.72 51.43,127 L 51.33,127 C 51.1,126.59 51.12,126.19 51.16,125.84 51.2,125.47 51.44,125.18 51.6,124.86 51.92,124.23 52.28,123.62 52.67,123.02 L 52.76,123.06 Z M 52.76,123.06" />
            </g>
            <g id="kazAveSide03-group888">
                <path id="kazAveSide03-bezier1172" stroke="none" fill="rgb(0, 0, 0)" d="M 47.68,121.87 C 47.6,122.63 47.49,123.39 47.33,124.13 47.25,124.5 47.25,124.91 47.05,125.24 46.85,125.57 46.61,125.92 46.18,126.13 L 46.09,126.08 C 46.02,125.64 46.04,125.27 46.11,124.9 46.17,124.53 46.41,124.22 46.57,123.88 46.89,123.2 47.23,122.52 47.59,121.84 L 47.68,121.87 Z M 47.68,121.87" />
            </g>
            <g id="kazAveSide03-group889">
                <path id="kazAveSide03-bezier1173" stroke="none" fill="rgb(0, 0, 0)" d="M 46.15,127.15 C 47.04,127.25 47.93,127.33 48.8,127.38 49.24,127.41 49.68,127.34 50.09,127.44 50.51,127.53 50.89,127.65 51.37,127.81 L 51.4,127.9 C 51.01,128.29 50.49,128.4 50.03,128.44 49.55,128.48 49.11,128.29 48.67,128.17 47.79,127.93 46.94,127.62 46.12,127.25 L 46.15,127.15 Z M 46.15,127.15" />
            </g>
            <g id="kazAveSide03-group890">
                <path id="kazAveSide03-bezier1174" stroke="none" fill="rgb(0, 0, 0)" d="M 110.75,18.93 C 110.28,20.11 109.37,21.13 108.21,21.7 107.05,22.28 105.68,22.36 104.42,22.15 101.98,21.77 99.48,22.09 97.14,22.84 94.79,23.59 92.62,24.79 90.55,26.11 89.5,26.75 88.51,27.49 87.56,28.27 87.08,28.66 86.63,29.08 86.2,29.52 85.76,29.96 85.35,30.42 85.06,30.97 L 84.96,30.93 C 85.35,29.69 86.23,28.69 87.09,27.76 87.97,26.84 88.96,26.03 89.99,25.28 92.08,23.8 94.45,22.74 96.91,22.07 99.37,21.39 101.99,21.17 104.5,21.66 105.7,21.92 106.96,21.91 108.08,21.43 109.2,20.95 110.14,20.02 110.65,18.9 L 110.75,18.93 Z M 110.75,18.93" />
            </g>
            <g id="kazAveSide03-group891">
                <path id="kazAveSide03-bezier1175" stroke="none" fill="rgb(0, 0, 0)" d="M 111.16,14.29 C 108.34,12.29 104.64,11.97 101.36,12.69 98.01,13.36 95.14,15.4 92.66,17.72 90.17,20.05 88.01,22.74 85.48,25.13 84.2,26.31 82.87,27.47 81.33,28.35 79.81,29.23 78.05,29.82 76.3,29.69 L 76.3,29.59 C 78.01,29.43 79.59,28.72 80.96,27.76 82.35,26.8 83.6,25.64 84.78,24.42 87.17,21.98 89.51,19.42 92.13,17.12 94.72,14.84 97.76,12.79 101.26,12.2 104.68,11.59 108.44,12.07 111.23,14.21 L 111.16,14.29 Z M 111.16,14.29" />
            </g>
            <g id="kazAveSide03-group892">
                <path id="kazAveSide03-bezier1176" stroke="none" fill="rgb(0, 0, 0)" d="M 100.78,27.88 C 100.15,27.5 99.5,27.14 98.85,26.77 98.76,26.72 98.7,26.69 98.62,26.65 98.57,26.64 98.51,26.63 98.46,26.65 98.35,26.69 98.22,26.81 98.12,26.94 97.9,27.2 97.72,27.52 97.54,27.84 96.82,29.12 96.12,30.47 95.19,31.68 94.28,32.89 93.14,34.05 91.69,34.69 90.26,35.34 88.64,35.53 87.15,35.22 L 87.16,35.12 C 88.64,34.88 90.02,34.49 91.25,33.8 92.47,33.12 93.61,32.27 94.57,31.17 95.53,30.09 96.29,28.83 97.11,27.58 97.32,27.27 97.54,26.95 97.82,26.67 97.96,26.53 98.12,26.38 98.37,26.31 98.5,26.29 98.64,26.3 98.76,26.36 98.84,26.4 98.94,26.47 99.01,26.52 99.62,26.94 100.24,27.35 100.84,27.8 L 100.78,27.88 Z M 100.78,27.88" />
            </g>
        </g>
    </g>
</svg>
