<?xml version="1.0" encoding="UTF-8"?>
<!DOCTYPE svg PUBLIC "-//W3C//DTD SVG 1.1//EN" "http://www.w3.org/Graphics/SVG/1.1/DTD/svg11.dtd">
<svg version="1.1" xmlns="http://www.w3.org/2000/svg" xmlns:xlink="http://www.w3.org/1999/xlink" width="160" height="60"  xml:space="preserve" id="kazAveTop07">
    <!-- Generated by PaintCode - http://www.paintcodeapp.com -->
    <g id="kazAveTop07-group">
        <path id="kazAveTop07-bezier549" stroke="rgb(0, 0, 0)" stroke-width="2" stroke-miterlimit="10" fill="none" d="M 111.82,30.63 L 156.69,30.63" />
        <path id="kazAveTop07-bezier550" stroke="rgb(0, 0, 0)" stroke-width="2" stroke-miterlimit="10" fill="none" d="M 3.3,30.63 L 33.32,30.63" />
        <path id="kazAveTop07-bezier551" stroke="rgb(0, 0, 0)" stroke-width="2" stroke-miterlimit="10" fill="none" d="M 106.62,18.62 L 106.62,21.5" />
        <path id="kazAveTop07-bezier552" stroke="rgb(0, 0, 0)" stroke-width="2" stroke-miterlimit="10" fill="none" d="M 121.5,13.62 L 127.87,13.62" />
        <path id="kazAveTop07-bezier553" stroke="rgb(0, 0, 0)" stroke-width="2" stroke-miterlimit="10" fill="none" d="M 106.62,41.61 L 106.62,39.75" />
        <path id="kazAveTop07-bezier554" stroke="rgb(0, 0, 0)" stroke-width="2" stroke-miterlimit="10" fill="none" d="M 121.5,46.64 L 127.87,46.64" />
        <path id="kazAveTop07-bezier555" stroke="rgb(0, 0, 0)" stroke-width="2" stroke-miterlimit="10" fill="none" d="M 36.4,26.12 C 36.4,26.12 35.13,27.44 35.13,30.63 35.13,33.81 36.4,34.75 36.4,34.75" />
        <path id="kazAveTop07-bezier556" stroke="rgb(0, 0, 0)" stroke-width="2" stroke-miterlimit="10" fill="none" d="M 125.99,28.21 L 111.48,28.21" />
        <path id="kazAveTop07-bezier557" stroke="rgb(0, 0, 0)" stroke-width="2" stroke-miterlimit="10" fill="none" d="M 125.99,33.07 L 111.48,33.07" />
        <path id="kazAveTop07-bezier558" stroke="rgb(0, 0, 0)" stroke-width="2" stroke-miterlimit="10" fill="none" d="M 33.78,28.21 L 32.07,28.21" />
        <path id="kazAveTop07-bezier559" stroke="rgb(0, 0, 0)" stroke-width="2" stroke-miterlimit="10" fill="none" d="M 33.78,33.07 L 32.07,33.07" />
        <g id="kazAveTop07-group413">
            <g id="kazAveTop07-group414">
                <path id="kazAveTop07-bezier560" stroke="none" fill="rgb(0, 0, 0)" d="M 101.54,40.38 C 100.02,40.54 98.48,40.61 96.93,40.5 95.39,40.36 93.82,40.12 92.38,39.32 92.03,39.14 91.64,38.79 91.45,38.74 91.21,38.65 91.1,38.69 90.9,38.87 90.52,39.26 90.23,39.97 89.99,40.65 89.49,42.03 89.14,43.52 88.7,45 L 88.6,44.99 C 88.5,43.44 88.63,41.88 89.04,40.35 89.28,39.59 89.51,38.8 90.26,38.12 90.45,37.96 90.71,37.81 91.01,37.78 91.31,37.73 91.61,37.81 91.83,37.92 92.34,38.21 92.47,38.44 92.8,38.64 94,39.41 95.5,39.78 96.99,40 98.48,40.24 100.01,40.31 101.54,40.28 L 101.54,40.38 Z M 101.54,40.38" />
            </g>
            <g id="kazAveTop07-group415">
                <path id="kazAveTop07-bezier561" stroke="none" fill="rgb(0, 0, 0)" d="M 97.19,21.79 C 98.45,21.71 99.71,21.72 100.97,21.7 102.24,21.7 103.52,21.91 104.74,22.35 107.15,23.21 109.31,25.01 110.38,27.45 110.91,28.65 111.15,30 111.07,31.33 110.98,32.68 110.52,33.98 109.8,35.1 108.31,37.31 105.88,38.78 103.35,39.1 L 103.33,39 C 105.68,38.13 107.76,36.64 108.95,34.57 110.17,32.55 110.52,30 109.64,27.75 108.76,25.51 106.83,23.73 104.56,22.81 102.29,21.8 99.69,21.96 97.2,21.89 L 97.19,21.79 Z M 97.19,21.79" />
            </g>
            <g id="kazAveTop07-group416">
                <path id="kazAveTop07-bezier562" stroke="none" fill="rgb(0, 0, 0)" d="M 85.69,14.76 C 86.71,14.58 87.92,14.46 88.9,15.15 89.86,15.83 90.3,16.97 90.56,18.02 90.7,18.58 90.78,19.08 90.95,19.55 91.11,20.03 91.33,20.49 91.62,20.87 92.18,21.65 93.12,22.1 93.93,22.14 L 93.83,22.15 C 94.81,21.92 95.72,22.17 96.52,22.41 97.33,22.67 98.09,22.95 98.92,23.02 L 98.94,23.12 C 98.09,23.38 97.19,23.23 96.36,23.15 95.54,23.03 94.75,22.96 94.08,23.14 L 94.03,23.15 93.98,23.15 C 92.63,23.18 91.53,22.36 90.91,21.36 90.28,20.37 90.08,19.17 89.95,18.16 89.76,17.15 89.43,16.12 88.66,15.46 87.89,14.79 86.75,14.76 85.7,14.86 L 85.69,14.76 Z M 85.69,14.76" />
            </g>
            <g id="kazAveTop07-group417">
                <path id="kazAveTop07-bezier563" stroke="none" fill="rgb(0, 0, 0)" d="M 118.17,10.99 C 117.36,11.18 116.55,11.33 115.73,11.45 115.31,11.5 114.9,11.54 114.46,11.53 113.97,11.5 113.66,11.42 113.24,11.44 112.43,11.45 111.63,11.59 110.84,11.65 110.04,11.73 109.25,11.78 108.47,12.05 L 108.42,11.99 C 109.03,11.34 109.91,11.09 110.73,10.91 111.57,10.74 112.42,10.77 113.26,10.84 113.67,10.85 114.16,10.99 114.49,11.04 114.88,11.09 115.29,11.09 115.7,11.07 116.51,11.06 117.34,11 118.16,10.92 L 118.17,10.99 Z M 118.17,10.99" />
            </g>
            <g id="kazAveTop07-group418">
                <path id="kazAveTop07-bezier564" stroke="none" fill="rgb(0, 0, 0)" d="M 107.28,17.76 C 108.2,17.62 109.12,17.46 110.03,17.27 110.94,17.1 111.86,16.91 112.7,16.62 113.08,16.48 113.5,16.19 113.93,16 114.36,15.8 114.8,15.63 115.25,15.48 115.7,15.34 116.15,15.21 116.62,15.13 117.09,15.06 117.56,14.94 118.07,15.06 L 118.05,15.13 C 117.2,15.39 116.36,15.85 115.51,16.18 115.08,16.36 114.65,16.53 114.22,16.69 113.79,16.82 113.4,17.05 112.89,17.19 111.95,17.43 111.02,17.54 110.09,17.64 109.15,17.73 108.22,17.79 107.29,17.84 L 107.28,17.76 Z M 107.28,17.76" />
            </g>
            <g id="kazAveTop07-group419">
                <path id="kazAveTop07-bezier565" stroke="none" fill="rgb(0, 0, 0)" d="M 110.11,12.24 C 109.21,12.44 108.25,12.28 107.37,12.05 106.54,11.9 105.62,12.02 104.74,12.13 103.85,12.26 102.97,12.48 102.08,12.59 101.18,12.7 100.28,12.81 99.35,12.81 L 99.33,12.74 C 100.17,12.33 101.05,12.07 101.95,11.86 102.84,11.65 103.76,11.59 104.68,11.54 105.6,11.5 106.52,11.43 107.48,11.69 108.32,12.02 109.2,12.26 110.1,12.17 L 110.11,12.24 Z M 110.11,12.24" />
            </g>
            <g id="kazAveTop07-group420">
                <path id="kazAveTop07-bezier566" stroke="none" fill="rgb(0, 0, 0)" d="M 100.1,20 C 100.11,18.64 99.74,17.31 99.26,16.06 98.78,14.8 98.16,13.58 97.45,12.46 L 97.92,12.62 95.97,13.46 C 95.33,13.74 94.67,14 94,14.24 93.33,14.47 92.67,14.7 91.98,14.9 91.3,15.1 90.62,15.3 89.91,15.45 L 89.87,15.36 C 90.46,14.94 91.08,14.59 91.71,14.24 92.34,13.9 92.98,13.59 93.63,13.3 94.28,13.02 94.95,12.76 95.62,12.54 L 97.66,11.88 97.98,11.78 98.13,12.05 C 98.79,13.29 99.32,14.57 99.72,15.9 100.1,17.23 100.34,18.63 100.2,20 L 100.1,20 Z M 100.1,20" />
            </g>
            <g id="kazAveTop07-group421">
                <path id="kazAveTop07-bezier567" stroke="none" fill="rgb(0, 0, 0)" d="M 101.25,20 C 102.05,19.52 102.86,19.06 103.66,18.6 104.07,18.37 104.44,18.09 104.88,17.93 105.31,17.76 105.75,17.64 106.24,17.56 L 106.28,17.63 C 106,18.06 105.6,18.34 105.21,18.6 104.82,18.85 104.36,18.98 103.92,19.14 103.05,19.48 102.17,19.79 101.28,20.07 L 101.25,20 Z M 101.25,20" />
            </g>
            <g id="kazAveTop07-group422">
                <path id="kazAveTop07-bezier568" stroke="none" fill="rgb(0, 0, 0)" d="M 37.39,30.63 C 37.31,28.89 37.31,27.16 37.4,25.42 37.52,23.68 37.64,21.93 38.31,20.23 38.49,19.82 38.72,19.37 39.14,19.05 39.49,18.77 39.95,18.53 40.37,18.38 41.24,18.07 42.14,17.96 43.03,17.92 44.82,17.86 46.57,18.06 48.32,18.45 L 48.71,18.53 48.7,18.96 C 48.66,20.91 48.53,22.85 48.4,24.8 48.34,25.77 48.25,26.74 48.16,27.71 48.08,28.68 47.97,29.66 47.87,30.63 L 47.77,30.63 C 47.68,29.65 47.63,28.67 47.61,27.7 47.59,26.72 47.55,25.74 47.57,24.77 47.56,22.82 47.58,20.87 47.68,18.92 L 48.07,19.43 C 46.44,19.03 44.73,18.73 43.05,18.72 42.21,18.73 41.37,18.8 40.6,19.05 40.2,19.18 39.88,19.33 39.54,19.58 39.25,19.78 39.04,20.11 38.86,20.48 38.2,21.99 37.98,23.75 37.77,25.45 37.59,27.16 37.5,28.89 37.49,30.63 L 37.39,30.63 Z M 37.39,30.63" />
            </g>
            <g id="kazAveTop07-group423">
                <path id="kazAveTop07-bezier569" stroke="none" fill="rgb(0, 0, 0)" d="M 123.97,12.26 C 123.77,11.77 123.52,11.29 123.21,10.87 122.93,10.42 122.55,10.15 122.09,10.03 121.67,9.92 121.17,10.08 120.65,10.1 120.12,10.13 119.58,10.14 119.01,10.03 L 119,9.96 C 119.49,9.67 120,9.49 120.54,9.36 121.06,9.25 121.68,9.21 122.29,9.46 122.58,9.6 122.8,9.73 123.05,9.96 123.26,10.18 123.41,10.43 123.54,10.68 123.78,11.19 123.93,11.71 124.04,12.24 L 123.97,12.26 Z M 123.97,12.26" />
            </g>
            <g id="kazAveTop07-group424">
                <path id="kazAveTop07-bezier570" stroke="none" fill="rgb(0, 0, 0)" d="M 119.02,15.15 C 119.48,15.29 119.95,15.38 120.38,15.38 120.6,15.38 120.79,15.3 120.98,15.32 L 121.67,15.4 121.71,15.46 C 121.63,15.77 121.36,15.97 121.09,16.06 120.81,16.15 120.52,16.05 120.28,15.97 119.77,15.82 119.35,15.55 118.98,15.22 L 119.02,15.15 Z M 119.02,15.15" />
            </g>
            <g id="kazAveTop07-group425">
                <path id="kazAveTop07-bezier571" stroke="none" fill="rgb(0, 0, 0)" d="M 118.16,49.33 C 117.34,49.25 116.51,49.19 115.7,49.18 115.29,49.17 114.88,49.16 114.49,49.21 114.16,49.26 113.67,49.4 113.26,49.41 112.42,49.48 111.57,49.51 110.73,49.34 109.92,49.16 109.03,48.91 108.42,48.26 L 108.47,48.2 C 109.25,48.47 110.04,48.52 110.84,48.6 111.63,48.66 112.44,48.8 113.24,48.81 113.66,48.83 113.97,48.75 114.46,48.72 114.89,48.71 115.31,48.75 115.73,48.8 116.55,48.92 117.37,49.08 118.17,49.26 L 118.16,49.33 Z M 118.16,49.33" />
            </g>
            <g id="kazAveTop07-group426">
                <path id="kazAveTop07-bezier572" stroke="none" fill="rgb(0, 0, 0)" d="M 107.29,42.41 C 108.22,42.46 109.15,42.52 110.09,42.61 111.02,42.72 111.94,42.82 112.89,43.07 113.4,43.21 113.78,43.43 114.22,43.57 114.65,43.72 115.08,43.89 115.51,44.07 116.36,44.41 117.2,44.86 118.05,45.12 L 118.07,45.19 C 117.56,45.32 117.09,45.19 116.62,45.12 116.15,45.04 115.7,44.91 115.25,44.77 114.8,44.62 114.36,44.46 113.93,44.25 113.5,44.06 113.08,43.78 112.7,43.64 111.86,43.34 110.94,43.16 110.03,42.98 109.12,42.79 108.2,42.63 107.28,42.49 L 107.29,42.41 Z M 107.29,42.41" />
            </g>
            <g id="kazAveTop07-group427">
                <path id="kazAveTop07-bezier573" stroke="none" fill="rgb(0, 0, 0)" d="M 110.09,48.08 C 109.18,47.77 108.19,47.63 107.27,47.79 107.03,47.83 106.83,47.9 106.59,47.98 106.34,48.06 106.08,48.11 105.83,48.14 105.33,48.2 104.83,48.21 104.33,48.2 103.34,48.19 102.35,48.15 101.38,47.95 100.42,47.74 99.47,47.48 98.56,47.07 L 98.58,46.99 C 99.57,47.01 100.54,47.11 101.5,47.21 102.46,47.31 103.41,47.51 104.37,47.6 104.84,47.64 105.32,47.67 105.79,47.65 106.03,47.64 106.25,47.62 106.47,47.57 106.7,47.51 106.97,47.44 107.22,47.42 108.24,47.35 109.23,47.61 110.12,48.01 L 110.09,48.08 Z M 110.09,48.08" />
            </g>
            <g id="kazAveTop07-group428">
                <path id="kazAveTop07-bezier574" stroke="none" fill="rgb(0, 0, 0)" d="M 100.13,41.26 C 100.03,42.31 99.67,43.33 99.19,44.28 98.7,45.24 98.1,46.11 97.38,46.93 L 97.28,47.05 97.08,47.04 C 96.41,46.98 95.76,46.9 95.1,46.82 94.44,46.74 93.78,46.64 93.14,46.47 91.86,46.11 90.6,45.63 89.47,44.88 L 89.51,44.79 C 90.84,44.96 92.1,45.22 93.37,45.47 94.64,45.74 95.89,46.11 97.17,46.31 L 96.87,46.42 C 97.59,45.73 98.24,44.91 98.8,44.06 99.36,43.2 99.81,42.26 100.03,41.25 L 100.13,41.26 Z M 100.13,41.26" />
            </g>
            <g id="kazAveTop07-group429">
                <path id="kazAveTop07-bezier575" stroke="none" fill="rgb(0, 0, 0)" d="M 101.28,40.18 C 102.18,40.46 103.05,40.77 103.92,41.11 104.36,41.27 104.82,41.4 105.21,41.65 105.61,41.91 106,42.2 106.28,42.62 L 106.24,42.69 C 105.75,42.62 105.31,42.49 104.88,42.32 104.44,42.16 104.07,41.89 103.66,41.65 102.86,41.19 102.05,40.73 101.25,40.25 L 101.28,40.18 Z M 101.28,40.18" />
            </g>
            <g id="kazAveTop07-group430">
                <path id="kazAveTop07-bezier576" stroke="none" fill="rgb(0, 0, 0)" d="M 37.49,30.63 C 37.45,32.36 37.5,34.08 37.64,35.8 37.81,37.49 38,39.26 38.69,40.74 38.87,41.1 39.11,41.42 39.4,41.57 39.76,41.76 40.12,41.86 40.53,41.96 41.34,42.14 42.19,42.2 43.03,42.21 44.73,42.23 46.45,42.05 48.12,41.81 L 47.68,42.33 C 47.58,40.39 47.56,38.44 47.57,36.49 47.55,35.51 47.59,34.53 47.61,33.56 47.63,32.58 47.68,31.6 47.77,30.63 L 47.87,30.63 C 47.97,31.6 48.08,32.57 48.16,33.54 48.25,34.51 48.34,35.48 48.4,36.46 48.53,38.4 48.66,40.35 48.7,42.3 L 48.71,42.77 48.26,42.82 C 46.51,43.03 44.77,43.1 43.01,43.01 42.13,42.96 41.24,42.87 40.37,42.65 39.94,42.54 39.47,42.38 39.07,42.15 38.6,41.86 38.34,41.42 38.14,41.01 37.43,39.31 37.35,37.55 37.27,35.82 37.21,34.09 37.26,32.35 37.39,30.62 L 37.49,30.63 Z M 37.49,30.63" />
            </g>
            <g id="kazAveTop07-group431">
                <path id="kazAveTop07-bezier577" stroke="none" fill="rgb(0, 0, 0)" d="M 120.79,45.39 C 120.81,46.03 120.85,46.68 120.98,47.27 121.04,47.57 121.18,47.83 121.24,48.05 121.32,48.27 121.34,48.45 121.69,48.64 L 121.7,48.71 C 121.39,49 120.77,48.77 120.58,48.4 120.35,48.05 120.37,47.67 120.38,47.33 120.39,46.65 120.52,46 120.72,45.38 L 120.79,45.39 Z M 120.79,45.39" />
            </g>
            <g id="kazAveTop07-group432">
                <path id="kazAveTop07-bezier578" stroke="none" fill="rgb(0, 0, 0)" d="M 124.04,48.01 C 123.93,48.54 123.77,49.07 123.54,49.57 123.41,49.82 123.26,50.07 123.05,50.29 122.8,50.52 122.58,50.66 122.29,50.79 121.68,51.04 121.06,51.01 120.54,50.89 120,50.76 119.49,50.59 119,50.29 L 119.01,50.22 C 119.57,50.11 120.12,50.13 120.65,50.15 121.17,50.17 121.67,50.33 122.09,50.22 122.55,50.1 122.93,49.83 123.21,49.38 123.52,48.96 123.76,48.48 123.97,47.99 L 124.04,48.01 Z M 124.04,48.01" />
            </g>
            <g id="kazAveTop07-group433">
                <path id="kazAveTop07-bezier579" stroke="none" fill="rgb(0, 0, 0)" d="M 118.98,45.04 C 119.35,44.7 119.77,44.43 120.28,44.28 120.53,44.2 120.81,44.1 121.09,44.19 121.37,44.28 121.63,44.48 121.71,44.79 L 121.67,44.85 120.98,44.93 C 120.79,44.95 120.6,44.88 120.38,44.87 119.95,44.88 119.48,44.96 119.02,45.1 L 118.98,45.04 Z M 118.98,45.04" />
            </g>
            <g id="kazAveTop07-group434">
                <path id="kazAveTop07-bezier580" stroke="none" fill="rgb(0, 0, 0)" d="M 106.3,35.7 C 105.59,36.55 104.56,37.05 103.54,37.44 102.51,37.83 101.43,38.07 100.33,38.2 98.14,38.44 95.88,38.19 93.77,37.47 92.7,37.09 91.76,36.66 90.73,36.47 89.72,36.27 88.7,36.24 87.81,36.55 86.91,36.85 86.15,37.53 85.61,38.42 85.02,39.28 84.68,40.31 84.11,41.28 L 84.02,41.23 C 84.29,40.19 84.47,39.1 84.96,38.06 85.45,37.04 86.28,36.04 87.45,35.6 88.61,35.15 89.86,35.26 90.95,35.56 92.05,35.83 93.07,36.39 94.03,36.77 96,37.53 98.16,37.86 100.29,37.73 101.36,37.67 102.42,37.49 103.45,37.18 104.46,36.85 105.49,36.42 106.23,35.63 L 106.3,35.7 Z M 106.3,35.7" />
            </g>
            <g id="kazAveTop07-group435">
                <path id="kazAveTop07-bezier581" stroke="none" fill="rgb(0, 0, 0)" d="M 85.12,19.74 C 85.63,21.7 86.34,23.65 87.43,25.33 87.97,26.15 88.65,26.92 89.49,27.29 89.91,27.48 90.35,27.54 90.8,27.49 91.22,27.43 91.74,27.26 92.2,27.1 94.09,26.47 95.92,25.5 98.03,25.1 99.07,24.91 100.2,24.87 101.25,25.21 102.3,25.53 103.19,26.21 103.8,27.04 L 103.73,27.11 C 102.93,26.48 102.04,26.01 101.09,25.86 100.14,25.71 99.18,25.81 98.23,26.05 96.34,26.54 94.46,27.36 92.44,27.91 91.92,28.04 91.47,28.18 90.87,28.25 90.29,28.29 89.7,28.17 89.2,27.91 88.18,27.38 87.51,26.49 86.98,25.6 85.96,23.77 85.4,21.76 85.02,19.75 L 85.12,19.74 Z M 85.12,19.74" />
            </g>
            <g id="kazAveTop07-group436">
                <path id="kazAveTop07-bezier582" stroke="none" fill="rgb(0, 0, 0)" d="M 96.09,33.18 C 94.77,32.85 93.42,32.66 92.07,32.58 90.71,32.47 89.36,32.47 88.02,32.6 86.68,32.72 85.38,33.03 84.1,33.33 82.81,33.63 81.57,34.07 80.32,34.66 L 80.25,34.58 C 81.19,33.53 82.49,32.83 83.82,32.37 85.16,31.91 86.59,31.82 87.98,31.8 90.76,31.75 93.53,32.17 96.12,33.09 L 96.09,33.18 Z M 96.09,33.18" />
            </g>
            <g id="kazAveTop07-group437">
                <path id="kazAveTop07-bezier583" stroke="none" fill="rgb(0, 0, 0)" d="M 85.01,15.8 C 82.51,15.94 80.01,16.2 77.54,16.57 75.06,16.93 72.63,17.45 70.19,18.1 67.74,18.67 65.23,19.03 62.71,19.18 60.18,19.32 57.66,19.29 55.11,18.94 L 55.63,18.41 C 56.01,20.33 56.35,22.25 56.62,24.19 56.86,26.14 57.13,28.07 57.02,30.11 56.78,32.14 56.26,33.98 55.83,35.88 55.61,36.83 55.43,37.78 55.28,38.73 55.15,39.68 55.05,40.65 55.24,41.6 L 55.14,41.63 C 54.82,40.68 54.83,39.67 54.87,38.69 54.92,37.71 55.06,36.73 55.2,35.77 55.47,33.84 55.96,31.9 56.09,30.05 56.1,28.19 55.84,26.24 55.6,24.33 55.35,22.41 55.07,20.49 54.75,18.58 L 54.64,17.95 55.27,18.06 C 57.68,18.47 60.2,18.57 62.67,18.48 65.16,18.4 67.64,18.1 70.08,17.59 72.51,17.02 75,16.56 77.49,16.26 79.99,15.96 82.49,15.77 85,15.7 L 85.01,15.8 Z M 85.01,15.8" />
            </g>
            <g id="kazAveTop07-group438">
                <path id="kazAveTop07-bezier584" stroke="none" fill="rgb(0, 0, 0)" d="M 55.18,42.21 C 57.7,41.67 60.27,41.37 62.86,41.26 65.44,41.19 68.06,41.33 70.62,41.9 71.91,42.2 73.1,42.6 74.35,42.84 75.6,43.11 76.85,43.35 78.1,43.58 80.61,44.07 83.15,44.41 85.69,44.82 L 85.69,44.92 C 83.1,45.08 80.51,44.88 77.94,44.56 76.66,44.38 75.38,44.14 74.12,43.8 72.86,43.5 71.62,43.02 70.42,42.68 67.98,42.04 65.42,41.79 62.87,41.77 60.31,41.73 57.74,41.9 55.2,42.3 L 55.18,42.21 Z M 55.18,42.21" />
            </g>
            <g id="kazAveTop07-group439">
                <path id="kazAveTop07-bezier585" stroke="none" fill="rgb(0, 0, 0)" d="M 49.01,42.21 C 49.81,41.73 50.73,41.46 51.67,41.34 52.13,41.28 52.62,41.2 53.09,41.3 53.56,41.4 54.01,41.57 54.41,41.87 L 54.39,41.95 C 53.9,42.04 53.45,42.04 53.01,42.05 52.57,42.05 52.14,41.96 51.7,41.94 50.82,41.93 49.91,42.01 49.04,42.28 L 49.01,42.21 Z M 49.01,42.21" />
            </g>
            <g id="kazAveTop07-group440">
                <path id="kazAveTop07-bezier586" stroke="none" fill="rgb(0, 0, 0)" d="M 49.36,19 L 51.88,18.85 C 52.3,18.81 52.71,18.72 53.13,18.76 53.54,18.8 53.95,18.85 54.39,19 L 54.4,19.07 C 54.01,19.33 53.58,19.44 53.15,19.51 52.73,19.57 52.3,19.49 51.88,19.44 51.03,19.37 50.19,19.24 49.36,19.07 L 49.36,19 Z M 49.36,19" />
            </g>
            <g id="kazAveTop07-group441">
                <path id="kazAveTop07-bezier587" stroke="none" fill="rgb(0, 0, 0)" d="M 50.01,27.78 C 50.34,27.93 50.69,27.96 51,27.95 51.17,27.93 51.32,27.86 51.47,27.9 51.63,27.94 51.8,28 52.02,28.17 L 52.03,28.24 C 51.9,28.48 51.71,28.59 51.51,28.65 51.3,28.71 51.1,28.61 50.9,28.54 50.52,28.4 50.16,28.17 49.96,27.83 L 50.01,27.78 Z M 50.01,27.78" />
            </g>
            <g id="kazAveTop07-group442">
                <path id="kazAveTop07-bezier588" stroke="none" fill="rgb(0, 0, 0)" d="M 49.71,33.46 C 50.01,33.16 50.35,32.9 50.73,32.69 50.92,32.57 51.11,32.43 51.36,32.43 51.59,32.44 51.9,32.51 52.04,32.79 L 52.01,32.86 C 51.77,32.99 51.65,33.1 51.48,33.17 51.33,33.25 51.13,33.22 50.94,33.25 50.56,33.32 50.16,33.42 49.75,33.53 L 49.71,33.46 Z M 49.71,33.46" />
            </g>
            <g id="kazAveTop07-group443">
                <path id="kazAveTop07-bezier589" stroke="none" fill="rgb(0, 0, 0)" d="M 120.72,14.88 C 120.52,14.25 120.38,13.61 120.38,12.92 120.37,12.59 120.35,12.2 120.58,11.85 120.77,11.48 121.39,11.25 121.7,11.54 L 121.69,11.62 C 121.34,11.8 121.32,11.98 121.24,12.2 121.18,12.42 121.04,12.68 120.98,12.98 120.85,13.58 120.81,14.22 120.79,14.87 L 120.72,14.88 Z M 120.72,14.88" />
            </g>
        </g>
    </g>
</svg>
