<?xml version="1.0" encoding="UTF-8"?>
<!DOCTYPE svg PUBLIC "-//W3C//DTD SVG 1.1//EN" "http://www.w3.org/Graphics/SVG/1.1/DTD/svg11.dtd">
<svg version="1.1" xmlns="http://www.w3.org/2000/svg" xmlns:xlink="http://www.w3.org/1999/xlink" width="160" height="60"  xml:space="preserve" id="kazAveTop06">
    <!-- Generated by PaintCode - http://www.paintcodeapp.com -->
    <g id="kazAveTop06-group">
        <path id="kazAveTop06-bezier629" stroke="rgb(0, 0, 0)" stroke-width="2" stroke-miterlimit="10" fill="none" d="M 111.56,30.63 L 156.9,30.63" />
        <path id="kazAveTop06-bezier630" stroke="rgb(0, 0, 0)" stroke-width="2" stroke-miterlimit="10" fill="none" d="M 3.51,30.63 L 33.53,30.63" />
        <path id="kazAveTop06-bezier631" stroke="rgb(0, 0, 0)" stroke-width="2" stroke-miterlimit="10" fill="none" d="M 128.08,13.62 L 106.83,13.62 106.83,25.5" />
        <path id="kazAveTop06-bezier632" stroke="rgb(0, 0, 0)" stroke-width="2" stroke-miterlimit="10" fill="none" d="M 128.08,46.63 L 106.83,46.63 106.83,46.61 106.83,40.75" />
        <path id="kazAveTop06-bezier633" stroke="rgb(0, 0, 0)" stroke-width="2" stroke-miterlimit="10" fill="none" d="M 36.61,26.12 C 36.61,26.12 35.34,27.44 35.34,30.63 35.34,33.81 36.61,34.75 36.61,34.75" />
        <path id="kazAveTop06-bezier634" stroke="rgb(0, 0, 0)" stroke-width="2" stroke-miterlimit="10" fill="none" d="M 127.25,28.21 L 110.23,28.21" />
        <path id="kazAveTop06-bezier635" stroke="rgb(0, 0, 0)" stroke-width="2" stroke-miterlimit="10" fill="none" d="M 127.25,33.07 L 113.23,33.07" />
        <path id="kazAveTop06-bezier636" stroke="rgb(0, 0, 0)" stroke-width="2" stroke-miterlimit="10" fill="none" d="M 33.99,28.21 L 32.28,28.21" />
        <path id="kazAveTop06-bezier637" stroke="rgb(0, 0, 0)" stroke-width="2" stroke-miterlimit="10" fill="none" d="M 33.99,33.07 L 32.28,33.07" />
        <g id="kazAveTop06-group475">
            <g id="kazAveTop06-group476">
                <path id="kazAveTop06-bezier638" stroke="none" fill="rgb(0, 0, 0)" d="M 101.46,41.53 C 99.77,41.64 98.07,41.67 96.37,41.54 94.68,41.39 92.97,41.14 91.33,40.45 90.93,40.28 90.52,40.07 90.15,39.81 89.83,39.59 89.56,39.51 89.33,39.56 88.86,39.66 88.37,40.38 88.04,41.07 87.33,42.51 86.86,44.14 86.34,45.75 L 86.24,45.74 C 86.22,44.88 86.3,44.02 86.44,43.17 86.58,42.32 86.79,41.48 87.13,40.65 87.31,40.25 87.52,39.84 87.82,39.45 88.12,39.08 88.55,38.69 89.16,38.59 89.78,38.49 90.34,38.8 90.68,39.09 90.98,39.33 91.32,39.54 91.67,39.73 93.12,40.44 94.78,40.8 96.43,41.04 98.09,41.3 99.77,41.4 101.45,41.43 L 101.46,41.53 Z M 101.46,41.53" />
            </g>
            <g id="kazAveTop06-group477">
                <path id="kazAveTop06-bezier639" stroke="none" fill="rgb(0, 0, 0)" d="M 97.84,24.1 C 99.11,24.09 100.36,24.18 101.62,24.23 102.89,24.3 104.16,24.59 105.35,25.1 107.7,26.11 109.75,28.03 110.67,30.52 111.14,31.75 111.3,33.12 111.14,34.44 110.97,35.78 110.44,37.05 109.65,38.12 108.03,40.25 105.52,41.57 102.98,41.74 L 102.96,41.64 C 105.35,40.91 107.52,39.54 108.83,37.54 110.17,35.6 110.66,33.08 109.92,30.78 109.18,28.49 107.35,26.6 105.14,25.55 102.93,24.41 100.33,24.41 97.84,24.2 L 97.84,24.1 Z M 97.84,24.1" />
            </g>
            <g id="kazAveTop06-group478">
                <path id="kazAveTop06-bezier640" stroke="none" fill="rgb(0, 0, 0)" d="M 82.57,19.98 C 83.72,19.85 84.89,19.72 86.07,19.87 87.25,20 88.42,20.4 89.41,21.1 89.91,21.44 90.36,21.85 90.77,22.29 91.16,22.73 91.55,23.14 91.96,23.52 92.38,23.9 92.82,24.25 93.27,24.47 93.49,24.58 93.72,24.66 93.87,24.66 94.01,24.66 94.07,24.59 94.09,24.58 L 95.64,24.05 94.47,24.26 C 95.46,24.09 96.36,24.39 97.14,24.67 97.94,24.98 98.67,25.31 99.5,25.43 L 99.51,25.53 C 98.65,25.74 97.75,25.54 96.94,25.4 96.12,25.24 95.34,25.12 94.66,25.26 L 95.04,24.94 C 94.83,25.48 94.28,25.72 93.84,25.68 93.4,25.65 93.08,25.48 92.8,25.31 92.24,24.95 91.81,24.52 91.4,24.08 91,23.65 90.62,23.17 90.27,22.72 89.91,22.29 89.52,21.89 89.08,21.56 88.2,20.87 87.14,20.42 86.02,20.21 84.9,19.98 83.73,20.03 82.58,20.08 L 82.57,19.98 Z M 82.57,19.98" />
            </g>
            <g id="kazAveTop06-group479">
                <path id="kazAveTop06-bezier641" stroke="none" fill="rgb(0, 0, 0)" d="M 118.38,10.99 C 116.9,11.14 115.41,11.3 113.93,11.41 112.43,11.51 110.99,11.65 109.42,11.61 107.99,11.44 106.5,11.55 105.03,11.54 104.29,11.57 103.56,11.6 102.82,11.65 102.1,11.73 101.34,11.75 100.68,12.05 L 100.63,11.99 C 101.26,11.52 102.03,11.37 102.76,11.21 103.49,11.05 104.24,10.95 104.99,10.88 105.73,10.8 106.48,10.75 107.24,10.75 107.98,10.74 108.76,10.74 109.5,10.9 110.91,11.05 112.44,11 113.91,10.99 L 118.37,10.92 118.38,10.99 Z M 118.38,10.99" />
            </g>
            <g id="kazAveTop06-group480">
                <path id="kazAveTop06-bezier642" stroke="none" fill="rgb(0, 0, 0)" d="M 99.49,17.76 C 101.07,17.63 102.65,17.47 104.22,17.27 105,17.17 105.79,17.07 106.57,16.94 106.95,16.88 107.34,16.81 107.72,16.71 107.9,16.67 108.09,16.62 108.25,16.55 108.38,16.48 108.64,16.37 108.81,16.32 110.37,15.86 111.92,15.52 113.49,15.27 115.07,15.07 116.65,14.87 118.28,15.06 L 118.26,15.13 C 116.73,15.42 115.17,15.78 113.61,16.03 112.06,16.28 110.47,16.42 108.97,16.81 108.76,16.87 108.65,16.91 108.43,17 108.22,17.08 108.02,17.12 107.82,17.17 107.42,17.25 107.02,17.3 106.63,17.35 105.84,17.46 105.04,17.53 104.25,17.58 102.67,17.7 101.08,17.78 99.5,17.84 L 99.49,17.76 Z M 99.49,17.76" />
            </g>
            <g id="kazAveTop06-group481">
                <path id="kazAveTop06-bezier643" stroke="none" fill="rgb(0, 0, 0)" d="M 90.08,16.4 C 92.43,15.01 94.65,13.41 96.83,11.79 L 97.13,11.56 97.31,11.91 C 97.94,13.11 98.44,14.36 98.85,15.66 99.25,16.95 99.5,18.33 99.33,19.74 L 99.3,20.02 99.07,20.12 96.5,21.35 95.23,21.98 C 94.83,22.19 94.33,22.41 94.09,22.7 L 93.99,22.71 C 94.05,22.39 94.27,22.27 94.44,22.09 94.62,21.93 94.81,21.77 95,21.62 95.38,21.32 95.78,21.05 96.18,20.78 96.98,20.24 97.8,19.75 98.64,19.27 L 98.38,19.66 C 98.41,18.42 98.22,17.15 97.96,15.89 97.68,14.63 97.25,13.38 96.73,12.2 L 97.21,12.32 C 94.93,13.85 92.58,15.27 90.13,16.49 L 90.08,16.4 Z M 90.08,16.4" />
            </g>
            <g id="kazAveTop06-group482">
                <path id="kazAveTop06-bezier644" stroke="none" fill="rgb(0, 0, 0)" d="M 37.6,30.63 C 37.52,28.89 37.52,27.16 37.61,25.42 37.73,23.68 37.85,21.93 38.52,20.23 38.7,19.82 38.93,19.37 39.35,19.05 39.7,18.77 40.16,18.53 40.58,18.38 41.45,18.07 42.35,17.96 43.25,17.92 45.03,17.86 46.78,18.06 48.53,18.45 L 48.92,18.53 48.91,18.96 C 48.87,20.91 48.74,22.85 48.61,24.8 48.55,25.77 48.46,26.74 48.37,27.71 48.29,28.68 48.18,29.66 48.08,30.63 L 47.98,30.63 C 47.89,29.65 47.84,28.67 47.82,27.7 47.8,26.72 47.76,25.74 47.78,24.77 47.77,22.82 47.79,20.87 47.89,18.92 L 48.28,19.43 C 46.65,19.03 44.94,18.73 43.26,18.72 42.42,18.73 41.58,18.8 40.81,19.05 40.41,19.18 40.09,19.33 39.75,19.58 39.46,19.78 39.25,20.11 39.07,20.48 38.41,21.99 38.19,23.75 37.98,25.45 37.8,27.16 37.71,28.89 37.7,30.63 L 37.6,30.63 Z M 37.6,30.63" />
            </g>
            <g id="kazAveTop06-group483">
                <path id="kazAveTop06-bezier645" stroke="none" fill="rgb(0, 0, 0)" d="M 124.18,12.26 C 123.98,11.77 123.73,11.29 123.42,10.87 123.14,10.42 122.76,10.15 122.3,10.03 121.88,9.92 121.38,10.08 120.86,10.1 120.33,10.13 119.79,10.14 119.22,10.03 L 119.21,9.96 C 119.7,9.67 120.21,9.49 120.75,9.36 121.27,9.25 121.89,9.21 122.5,9.46 122.79,9.6 123.01,9.73 123.26,9.96 123.47,10.18 123.62,10.43 123.75,10.68 123.99,11.19 124.14,11.71 124.25,12.24 L 124.18,12.26 Z M 124.18,12.26" />
            </g>
            <g id="kazAveTop06-group484">
                <path id="kazAveTop06-bezier646" stroke="none" fill="rgb(0, 0, 0)" d="M 119.23,15.15 C 119.69,15.29 120.16,15.38 120.59,15.38 120.81,15.38 121,15.3 121.19,15.32 L 121.88,15.4 121.92,15.46 C 121.84,15.77 121.57,15.97 121.3,16.06 121.02,16.15 120.73,16.05 120.49,15.97 119.98,15.82 119.56,15.55 119.19,15.22 L 119.23,15.15 Z M 119.23,15.15" />
            </g>
            <g id="kazAveTop06-group485">
                <path id="kazAveTop06-bezier647" stroke="none" fill="rgb(0, 0, 0)" d="M 118.37,49.33 L 113.91,49.21 C 112.44,49.2 110.92,49.12 109.49,49.25 108.75,49.41 107.98,49.41 107.23,49.45 106.48,49.47 105.73,49.48 104.98,49.43 104.23,49.38 103.49,49.25 102.75,49.11 102.02,48.92 101.24,48.77 100.63,48.26 L 100.67,48.2 C 101.35,48.46 102.1,48.47 102.83,48.53 103.56,48.6 104.3,48.61 105.03,48.65 106.5,48.72 107.99,48.93 109.43,48.74 110.97,48.67 112.43,48.8 113.93,48.89 L 118.38,49.26 118.37,49.33 Z M 118.37,49.33" />
            </g>
            <g id="kazAveTop06-group486">
                <path id="kazAveTop06-bezier648" stroke="none" fill="rgb(0, 0, 0)" d="M 99.5,42.41 C 101.08,42.46 102.67,42.51 104.26,42.62 105.05,42.68 105.84,42.75 106.63,42.84 107.03,42.89 107.43,42.94 107.83,43.02 108.03,43.06 108.23,43.1 108.45,43.18 L 108.73,43.29 108.99,43.37 C 110.48,43.73 112.06,43.94 113.61,44.26 115.15,44.53 116.72,44.89 118.26,45.12 L 118.28,45.19 C 117.46,45.29 116.67,45.22 115.87,45.18 115.08,45.14 114.29,45.04 113.5,44.95 111.91,44.76 110.36,44.5 108.79,44.01 108.69,43.98 108.59,43.94 108.49,43.9 108.37,43.85 108.28,43.8 108.22,43.77 108.07,43.71 107.88,43.65 107.7,43.61 107.33,43.51 106.94,43.44 106.55,43.37 105.78,43.24 105,43.13 104.21,43.03 102.64,42.83 101.07,42.64 99.49,42.49 L 99.5,42.41 Z M 99.5,42.41" />
            </g>
            <g id="kazAveTop06-group487">
                <path id="kazAveTop06-bezier649" stroke="none" fill="rgb(0, 0, 0)" d="M 98.26,42.08 C 98.16,43.11 97.85,44.12 97.43,45.08 96.99,46.04 96.45,46.94 95.8,47.79 L 95.69,47.94 95.47,47.92 C 94.32,47.83 93.17,47.75 92.06,47.43 90.96,47.1 89.88,46.66 88.94,45.96 L 88.98,45.87 C 90.13,46.03 91.21,46.24 92.3,46.45 93.39,46.65 94.46,46.99 95.55,47.15 L 95.22,47.28 C 95.88,46.57 96.49,45.73 97,44.86 97.52,43.99 97.94,43.06 98.16,42.06 L 98.26,42.08 Z M 98.26,42.08" />
            </g>
            <g id="kazAveTop06-group488">
                <path id="kazAveTop06-bezier650" stroke="none" fill="rgb(0, 0, 0)" d="M 37.7,30.63 C 37.66,32.36 37.71,34.08 37.85,35.8 38.02,37.49 38.21,39.26 38.9,40.74 39.08,41.1 39.32,41.42 39.61,41.57 39.97,41.76 40.33,41.86 40.74,41.96 41.55,42.14 42.4,42.2 43.24,42.21 44.94,42.23 46.66,42.05 48.33,41.81 L 47.89,42.33 C 47.79,40.39 47.77,38.44 47.78,36.49 47.76,35.51 47.8,34.53 47.82,33.56 47.84,32.58 47.89,31.6 47.98,30.63 L 48.08,30.63 C 48.18,31.6 48.29,32.57 48.37,33.54 48.46,34.51 48.55,35.48 48.61,36.46 48.74,38.4 48.87,40.35 48.91,42.3 L 48.92,42.77 48.47,42.82 C 46.72,43.03 44.98,43.1 43.22,43.01 42.34,42.96 41.45,42.87 40.58,42.65 40.15,42.54 39.68,42.38 39.28,42.15 38.81,41.86 38.55,41.42 38.35,41.01 37.64,39.31 37.56,37.55 37.48,35.82 37.42,34.09 37.47,32.35 37.6,30.62 L 37.7,30.63 Z M 37.7,30.63" />
            </g>
            <g id="kazAveTop06-group489">
                <path id="kazAveTop06-bezier651" stroke="none" fill="rgb(0, 0, 0)" d="M 121,45.39 C 121.02,46.03 121.06,46.68 121.19,47.27 121.25,47.57 121.39,47.83 121.45,48.05 121.53,48.27 121.55,48.45 121.9,48.64 L 121.91,48.71 C 121.6,49 120.98,48.77 120.79,48.4 120.56,48.05 120.58,47.67 120.59,47.33 120.6,46.65 120.73,46 120.93,45.38 L 121,45.39 Z M 121,45.39" />
            </g>
            <g id="kazAveTop06-group490">
                <path id="kazAveTop06-bezier652" stroke="none" fill="rgb(0, 0, 0)" d="M 124.25,48.01 C 124.14,48.54 123.98,49.07 123.75,49.57 123.62,49.82 123.47,50.07 123.26,50.29 123.01,50.52 122.79,50.66 122.5,50.79 121.89,51.04 121.27,51.01 120.75,50.89 120.21,50.76 119.7,50.59 119.21,50.29 L 119.22,50.22 C 119.78,50.11 120.33,50.13 120.86,50.15 121.38,50.17 121.88,50.33 122.3,50.22 122.76,50.1 123.14,49.83 123.42,49.38 123.73,48.96 123.97,48.48 124.18,47.99 L 124.25,48.01 Z M 124.25,48.01" />
            </g>
            <g id="kazAveTop06-group491">
                <path id="kazAveTop06-bezier653" stroke="none" fill="rgb(0, 0, 0)" d="M 119.19,45.04 C 119.56,44.7 119.98,44.43 120.49,44.28 120.74,44.2 121.02,44.1 121.3,44.19 121.58,44.28 121.84,44.48 121.92,44.79 L 121.88,44.85 121.19,44.93 C 121,44.95 120.81,44.88 120.59,44.87 120.16,44.88 119.69,44.96 119.23,45.1 L 119.19,45.04 Z M 119.19,45.04" />
            </g>
            <g id="kazAveTop06-group492">
                <path id="kazAveTop06-bezier654" stroke="none" fill="rgb(0, 0, 0)" d="M 106.12,38.52 C 105.19,39.39 104.05,40.09 102.78,40.41 101.51,40.73 100.18,40.72 98.9,40.53 97.62,40.34 96.37,39.99 95.14,39.58 93.91,39.15 92.78,38.65 91.56,38.38 89.15,37.82 86.65,37.87 84.29,38.56 81.95,39.28 79.73,40.59 78.01,42.45 L 77.93,42.4 C 78.59,41.28 79.53,40.35 80.56,39.56 81.58,38.75 82.76,38.13 84,37.68 86.49,36.75 89.28,36.77 91.79,37.51 93.06,37.85 94.25,38.43 95.4,38.89 96.57,39.35 97.76,39.75 98.99,39.98 100.22,40.22 101.48,40.31 102.71,40.08 103.93,39.86 105.07,39.25 106.05,38.44 L 106.12,38.52 Z M 106.12,38.52" />
            </g>
            <g id="kazAveTop06-group493">
                <path id="kazAveTop06-bezier655" stroke="none" fill="rgb(0, 0, 0)" d="M 77.35,23.23 C 78.91,25.14 80.77,26.82 82.89,28.01 83.95,28.59 85.09,29.02 86.27,29.17 86.85,29.24 87.44,29.23 88.02,29.14 88.62,29.06 89.22,28.94 89.82,28.82 92.2,28.3 94.58,27.52 97.13,27.35 98.4,27.28 99.71,27.3 100.94,27.71 102.18,28.08 103.3,28.79 104.13,29.73 L 104.07,29.8 C 103.07,29.07 101.95,28.56 100.78,28.34 99.61,28.13 98.42,28.13 97.22,28.29 94.84,28.61 92.45,29.26 89.98,29.67 89.37,29.77 88.74,29.86 88.12,29.92 87.47,29.99 86.81,29.97 86.17,29.86 84.89,29.64 83.7,29.12 82.63,28.47 80.48,27.12 78.73,25.29 77.27,23.29 L 77.35,23.23 Z M 77.35,23.23" />
            </g>
            <g id="kazAveTop06-group494">
                <path id="kazAveTop06-bezier656" stroke="none" fill="rgb(0, 0, 0)" d="M 96.08,35.41 C 94.25,34.96 92.34,34.95 90.46,34.89 L 84.77,34.77 C 82.87,34.73 80.96,34.72 79.06,34.4 78.11,34.23 77.17,34.03 76.25,33.7 75.34,33.37 74.4,32.95 73.76,32.19 L 73.83,32.12 C 75.45,33.07 77.36,33.17 79.19,33.41 81.05,33.59 82.92,33.82 84.81,33.97 L 90.48,34.39 C 92.37,34.58 94.29,34.73 96.11,35.31 L 96.08,35.41 Z M 96.08,35.41" />
            </g>
            <g id="kazAveTop06-group495">
                <path id="kazAveTop06-bezier657" stroke="none" fill="rgb(0, 0, 0)" d="M 89.68,17.62 C 86.87,17.57 84.06,17.59 81.26,17.71 78.46,17.84 75.65,18.03 72.9,18.49 70.15,19.06 67.32,19.4 64.49,19.46 61.65,19.5 58.83,19.34 56,18.78 L 56.56,18.28 C 56.82,20.22 57.05,22.16 57.21,24.11 57.33,26.07 57.49,28.01 57.25,30.04 56.89,32.05 56.27,33.86 55.73,35.73 55.46,36.67 55.22,37.6 55.02,38.54 54.83,39.49 54.67,40.45 54.8,41.4 L 54.7,41.43 C 54.44,40.46 54.51,39.45 54.61,38.48 54.71,37.5 54.91,36.54 55.11,35.58 55.49,33.67 56.09,31.77 56.33,29.93 56.45,28.07 56.31,26.11 56.18,24.19 56.04,22.26 55.87,20.32 55.67,18.39 L 55.6,17.76 56.22,17.9 C 58.89,18.52 61.71,18.76 64.48,18.78 67.28,18.79 70.05,18.52 72.82,18.02 75.62,17.61 78.44,17.48 81.25,17.42 84.06,17.37 86.87,17.41 89.68,17.51 L 89.68,17.62 Z M 89.68,17.62" />
            </g>
            <g id="kazAveTop06-group496">
                <path id="kazAveTop06-bezier658" stroke="none" fill="rgb(0, 0, 0)" d="M 54.71,42.01 C 57.26,41.62 59.84,41.47 62.43,41.52 65.01,41.6 67.61,41.9 70.13,42.62 71.41,42.98 72.57,43.45 73.81,43.77 75.03,44.11 76.27,44.43 77.51,44.73 79.98,45.36 82.49,45.86 85.01,46.41 L 85,46.51 C 82.41,46.52 79.84,46.17 77.29,45.7 76.02,45.44 74.76,45.12 73.52,44.72 72.28,44.34 71.07,43.78 69.89,43.38 67.49,42.59 64.95,42.2 62.4,42.02 59.85,41.84 57.28,41.85 54.72,42.11 L 54.71,42.01 Z M 54.71,42.01" />
            </g>
            <g id="kazAveTop06-group497">
                <path id="kazAveTop06-bezier659" stroke="none" fill="rgb(0, 0, 0)" d="M 49.22,42.21 C 50.02,41.73 50.94,41.46 51.88,41.34 52.34,41.28 52.83,41.2 53.3,41.3 53.77,41.4 54.22,41.57 54.62,41.87 L 54.6,41.95 C 54.11,42.04 53.66,42.04 53.22,42.05 52.78,42.05 52.35,41.96 51.91,41.94 51.03,41.93 50.12,42.01 49.25,42.28 L 49.22,42.21 Z M 49.22,42.21" />
            </g>
            <g id="kazAveTop06-group498">
                <path id="kazAveTop06-bezier660" stroke="none" fill="rgb(0, 0, 0)" d="M 49.57,19 L 52.09,18.85 C 52.51,18.81 52.92,18.72 53.34,18.76 53.75,18.8 54.16,18.85 54.6,19 L 54.61,19.07 C 54.22,19.33 53.79,19.44 53.36,19.51 52.94,19.57 52.51,19.49 52.09,19.44 51.24,19.37 50.4,19.24 49.56,19.07 L 49.57,19 Z M 49.57,19" />
            </g>
            <g id="kazAveTop06-group499">
                <path id="kazAveTop06-bezier661" stroke="none" fill="rgb(0, 0, 0)" d="M 50.22,27.78 C 50.55,27.93 50.9,27.96 51.21,27.95 51.38,27.93 51.53,27.86 51.68,27.9 51.85,27.94 52.01,28 52.23,28.17 L 52.24,28.24 C 52.11,28.48 51.92,28.59 51.72,28.65 51.51,28.71 51.31,28.61 51.11,28.54 50.73,28.4 50.37,28.17 50.17,27.83 L 50.22,27.78 Z M 50.22,27.78" />
            </g>
            <g id="kazAveTop06-group500">
                <path id="kazAveTop06-bezier662" stroke="none" fill="rgb(0, 0, 0)" d="M 49.92,33.46 C 50.22,33.16 50.56,32.9 50.94,32.69 51.13,32.57 51.32,32.43 51.57,32.43 51.8,32.44 52.11,32.51 52.25,32.79 L 52.22,32.86 C 51.98,32.99 51.86,33.1 51.69,33.17 51.54,33.25 51.34,33.22 51.15,33.25 50.77,33.32 50.37,33.42 49.96,33.53 L 49.92,33.46 Z M 49.92,33.46" />
            </g>
            <g id="kazAveTop06-group501">
                <path id="kazAveTop06-bezier663" stroke="none" fill="rgb(0, 0, 0)" d="M 120.93,14.88 C 120.73,14.25 120.59,13.61 120.59,12.92 120.58,12.59 120.56,12.2 120.79,11.85 120.98,11.48 121.6,11.25 121.9,11.54 L 121.9,11.62 C 121.55,11.8 121.53,11.98 121.45,12.2 121.39,12.42 121.25,12.68 121.18,12.98 121.06,13.58 121.02,14.22 121,14.87 L 120.93,14.88 Z M 120.93,14.88" />
            </g>
            <g id="kazAveTop06-group502">
                <path id="kazAveTop06-bezier664" stroke="none" fill="rgb(0, 0, 0)" d="M 100.87,47.58 C 100.18,47.68 99.5,47.76 98.8,47.79 98.46,47.81 98.11,47.88 97.76,47.79 97.42,47.71 97.06,47.59 96.77,47.28 L 96.8,47.21 C 97.17,47.12 97.49,47.06 97.83,47.05 98.17,47.03 98.5,47.13 98.83,47.19 L 100.87,47.5 100.87,47.58 Z M 100.87,47.58" />
            </g>
            <g id="kazAveTop06-group503">
                <path id="kazAveTop06-bezier665" stroke="none" fill="rgb(0, 0, 0)" d="M 100.99,12.74 L 99.63,13.03 C 99.4,13.08 99.19,13.18 98.97,13.16 98.74,13.14 98.54,13.09 98.26,12.99 L 98.23,12.92 C 98.38,12.64 98.64,12.51 98.87,12.42 99.11,12.34 99.35,12.4 99.59,12.43 100.07,12.47 100.53,12.55 101,12.67 L 100.99,12.74 Z M 100.99,12.74" />
            </g>
            <g id="kazAveTop06-group504">
                <path id="kazAveTop06-bezier666" stroke="none" fill="rgb(0, 0, 0)" d="M 111.53,32.98 C 111.71,32.99 111.89,33.12 112.02,33.26 112.15,33.4 112.24,33.55 112.33,33.74 L 112.35,33.78 112.32,33.88 C 112.26,34.06 112.22,34.26 112.08,34.42 111.94,34.55 111.77,34.73 111.5,34.7 L 111.48,34.65 C 111.55,34.45 111.59,34.3 111.66,34.14 111.73,33.98 111.87,33.86 111.97,33.71 L 111.96,33.85 C 111.93,33.7 111.89,33.54 111.82,33.39 111.75,33.24 111.67,33.1 111.51,33.02 L 111.53,32.98 Z M 111.53,32.98" />
            </g>
            <g id="kazAveTop06-group505">
                <path id="kazAveTop06-bezier667" stroke="none" fill="rgb(0, 0, 0)" d="M 49.58,43.15 C 52.57,44.16 55.64,44.9 58.71,45.58 61.78,46.26 64.88,46.85 67.98,47.37 71.08,47.89 74.2,48.32 77.33,48.72 L 86.69,49.95 86.72,49.95 86.74,49.96 C 87.61,50.25 88.6,50.21 89.47,49.84 89.9,49.66 90.31,49.41 90.66,49.08 90.99,48.75 91.28,48.33 91.31,47.85 L 91.39,47.85 C 91.4,48.37 91.14,48.85 90.82,49.23 90.48,49.62 90.07,49.93 89.62,50.16 88.7,50.63 87.6,50.76 86.59,50.49 L 86.64,50.5 C 83.49,50.24 80.35,49.94 77.22,49.47 74.1,49.02 70.99,48.48 67.89,47.9 64.78,47.31 61.69,46.67 58.63,45.91 55.57,45.14 52.52,44.32 49.55,43.23 L 49.58,43.15 Z M 49.58,43.15" />
            </g>
        </g>
    </g>
</svg>
