<?xml version="1.0" encoding="UTF-8"?>
<!DOCTYPE svg PUBLIC "-//W3C//DTD SVG 1.1//EN" "http://www.w3.org/Graphics/SVG/1.1/DTD/svg11.dtd">
<svg version="1.1" xmlns="http://www.w3.org/2000/svg" xmlns:xlink="http://www.w3.org/1999/xlink" width="160" height="60"  xml:space="preserve" id="kazAveTop05">
    <!-- Generated by PaintCode - http://www.paintcodeapp.com -->
    <g id="kazAveTop05-group">
        <path id="kazAveTop05-bezier707" stroke="rgb(0, 0, 0)" stroke-width="2" stroke-miterlimit="10" fill="none" d="M 116.06,30.63 L 156.89,30.63" />
        <path id="kazAveTop05-bezier708" stroke="rgb(0, 0, 0)" stroke-width="2" stroke-miterlimit="10" fill="none" d="M 3.5,30.63 L 33.51,30.63" />
        <path id="kazAveTop05-bezier709" stroke="rgb(0, 0, 0)" stroke-width="2" stroke-miterlimit="10" fill="none" d="M 128.07,13.62 L 106.82,13.62 106.82,20.5" />
        <path id="kazAveTop05-bezier710" stroke="rgb(0, 0, 0)" stroke-width="2" stroke-miterlimit="10" fill="none" d="M 128.07,46.63 L 106.82,46.63 106.82,46.61 106.82,37.75" />
        <path id="kazAveTop05-bezier711" stroke="rgb(0, 0, 0)" stroke-width="2" stroke-miterlimit="10" fill="none" d="M 36.6,26.12 C 36.6,26.12 35.33,27.44 35.33,30.63 35.33,33.81 36.6,34.75 36.6,34.75" />
        <path id="kazAveTop05-bezier712" stroke="rgb(0, 0, 0)" stroke-width="2" stroke-miterlimit="10" fill="none" d="M 129.64,28.21 L 116.76,28.21" />
        <path id="kazAveTop05-bezier713" stroke="rgb(0, 0, 0)" stroke-width="2" stroke-miterlimit="10" fill="none" d="M 129.64,33.07 L 114.76,33.07" />
        <path id="kazAveTop05-bezier714" stroke="rgb(0, 0, 0)" stroke-width="2" stroke-miterlimit="10" fill="none" d="M 33.98,28.21 L 32.27,28.21" />
        <path id="kazAveTop05-bezier715" stroke="rgb(0, 0, 0)" stroke-width="2" stroke-miterlimit="10" fill="none" d="M 33.98,33.07 L 32.27,33.07" />
        <g id="kazAveTop05-group537">
            <g id="kazAveTop05-group538">
                <path id="kazAveTop05-bezier716" stroke="none" fill="rgb(0, 0, 0)" d="M 103.14,38.82 C 101.63,39.05 100.08,39.17 98.53,39.06 97.01,38.93 95.36,38.62 94.05,37.6 93.59,37.28 92.93,37.34 92.3,37.58 91.66,37.83 91.02,38.19 90.41,38.59 89.17,39.4 87.99,40.36 86.79,41.32 L 86.72,41.26 C 87.56,39.95 88.61,38.79 89.85,37.81 90.47,37.33 91.16,36.88 91.96,36.62 92.73,36.35 93.79,36.27 94.59,36.92 95.63,37.91 97.12,38.3 98.59,38.54 100.08,38.77 101.61,38.81 103.13,38.72 L 103.14,38.82 Z M 103.14,38.82" />
            </g>
            <g id="kazAveTop05-group539">
                <path id="kazAveTop05-bezier717" stroke="none" fill="rgb(0, 0, 0)" d="M 99.28,20.35 C 100.57,20.22 101.85,20.19 103.14,20.12 104.44,20.06 105.75,20.21 107.02,20.57 109.53,21.31 111.87,22.97 113.12,25.38 113.76,26.57 114.08,27.95 114.04,29.31 114.01,30.7 113.57,32.04 112.84,33.2 111.35,35.49 108.89,37 106.33,37.41 L 106.3,37.31 C 108.67,36.36 110.8,34.82 111.99,32.68 113.21,30.61 113.47,27.97 112.41,25.74 111.36,23.51 109.24,21.85 106.87,21.05 104.48,20.17 101.84,20.43 99.29,20.45 L 99.28,20.35 Z M 99.28,20.35" />
            </g>
            <g id="kazAveTop05-group540">
                <path id="kazAveTop05-bezier718" stroke="none" fill="rgb(0, 0, 0)" d="M 84.68,17.67 C 85.96,17.57 87.23,17.88 88.44,18.26 89.65,18.67 90.81,19.17 91.97,19.65 93.14,20.13 94.31,20.56 95.44,21 96.57,21.42 97.7,21.82 98.95,21.6 L 98.99,21.7 C 98.45,22.09 97.75,22.23 97.08,22.24 96.41,22.25 95.76,22.12 95.13,21.95 93.87,21.6 92.75,20.95 91.64,20.38 90.52,19.8 89.41,19.22 88.27,18.73 87.13,18.24 85.94,17.81 84.69,17.78 L 84.68,17.67 Z M 84.68,17.67" />
            </g>
            <g id="kazAveTop05-group541">
                <path id="kazAveTop05-bezier719" stroke="none" fill="rgb(0, 0, 0)" d="M 118.36,10.99 C 116.88,11.14 115.4,11.3 113.92,11.41 112.42,11.51 110.97,11.65 109.4,11.61 107.98,11.44 106.49,11.55 105.02,11.54 104.28,11.57 103.54,11.6 102.81,11.65 102.08,11.73 101.32,11.75 100.66,12.05 L 100.62,11.99 C 101.25,11.52 102.02,11.37 102.74,11.21 103.48,11.05 104.23,10.95 104.97,10.88 105.72,10.8 106.47,10.75 107.22,10.75 107.96,10.74 108.75,10.74 109.49,10.9 110.89,11.05 112.43,11 113.9,10.99 L 118.36,10.92 118.36,10.99 Z M 118.36,10.99" />
            </g>
            <g id="kazAveTop05-group542">
                <path id="kazAveTop05-bezier720" stroke="none" fill="rgb(0, 0, 0)" d="M 99.48,17.76 C 101.06,17.63 102.63,17.47 104.21,17.27 104.99,17.17 105.77,17.07 106.55,16.94 106.94,16.88 107.33,16.81 107.7,16.71 107.89,16.67 108.07,16.62 108.23,16.55 108.37,16.48 108.62,16.37 108.8,16.32 110.36,15.86 111.9,15.52 113.48,15.27 115.06,15.07 116.63,14.87 118.27,15.06 L 118.25,15.13 C 116.72,15.42 115.15,15.78 113.6,16.03 112.05,16.28 110.45,16.42 108.95,16.81 108.75,16.87 108.63,16.91 108.41,17 108.2,17.08 108,17.12 107.8,17.17 107.4,17.25 107.01,17.3 106.61,17.35 105.82,17.46 105.03,17.53 104.24,17.58 102.65,17.7 101.07,17.78 99.48,17.84 L 99.48,17.76 Z M 99.48,17.76" />
            </g>
            <g id="kazAveTop05-group543">
                <path id="kazAveTop05-bezier721" stroke="none" fill="rgb(0, 0, 0)" d="M 98.79,19.7 C 98.82,18.37 98.54,17.08 98.14,15.84 97.76,14.59 97.25,13.37 96.64,12.24 L 97.17,12.43 95.47,13.3 C 94.9,13.6 94.32,13.86 93.74,14.12 92.55,14.61 91.37,15.09 90.11,15.45 L 90.07,15.36 C 91.07,14.52 92.18,13.85 93.3,13.23 93.87,12.93 94.45,12.65 95.05,12.4 L 96.84,11.68 97.22,11.53 97.37,11.87 C 97.92,13.12 98.33,14.39 98.63,15.71 98.91,17.02 99.05,18.38 98.89,19.7 L 98.79,19.7 Z M 98.79,19.7" />
            </g>
            <g id="kazAveTop05-group544">
                <path id="kazAveTop05-bezier722" stroke="none" fill="rgb(0, 0, 0)" d="M 37.59,30.63 C 37.51,28.81 37.51,26.99 37.61,25.17 37.67,24.26 37.75,23.35 37.9,22.44 38.07,21.54 38.26,20.62 38.74,19.75 39.28,18.8 40.31,18.45 41.2,18.21 42.13,17.99 43.06,17.92 43.99,17.91 45.85,17.89 47.67,18.08 49.5,18.43 L 49.91,18.52 49.9,18.96 C 49.85,20.9 49.72,22.85 49.58,24.79 49.45,26.74 49.27,28.68 49.06,30.62 L 48.96,30.62 C 48.88,29.65 48.84,28.67 48.81,27.69 48.8,26.72 48.76,25.74 48.77,24.77 48.77,22.81 48.78,20.86 48.87,18.92 L 49.28,19.44 C 47.55,19.07 45.76,18.78 43.99,18.73 43.1,18.7 42.21,18.74 41.36,18.92 40.54,19.09 39.67,19.41 39.28,20.08 38.84,20.79 38.61,21.67 38.42,22.54 38.23,23.41 38.1,24.3 38,25.2 37.8,27 37.7,28.81 37.69,30.62 L 37.59,30.63 Z M 37.59,30.63" />
            </g>
            <g id="kazAveTop05-group545">
                <path id="kazAveTop05-bezier723" stroke="none" fill="rgb(0, 0, 0)" d="M 124.16,12.26 C 123.96,11.77 123.71,11.29 123.41,10.87 123.12,10.42 122.75,10.15 122.28,10.03 121.86,9.92 121.37,10.08 120.84,10.1 120.31,10.13 119.77,10.14 119.21,10.03 L 119.19,9.96 C 119.69,9.67 120.2,9.49 120.73,9.36 121.26,9.25 121.87,9.21 122.48,9.46 122.78,9.6 123,9.73 123.24,9.96 123.46,10.18 123.61,10.43 123.73,10.68 123.97,11.19 124.13,11.71 124.24,12.24 L 124.16,12.26 Z M 124.16,12.26" />
            </g>
            <g id="kazAveTop05-group546">
                <path id="kazAveTop05-bezier724" stroke="none" fill="rgb(0, 0, 0)" d="M 119.22,15.15 C 119.68,15.29 120.14,15.38 120.57,15.38 120.79,15.38 120.99,15.3 121.18,15.32 L 121.87,15.4 121.91,15.46 C 121.83,15.77 121.56,15.97 121.29,16.06 121.01,16.15 120.72,16.05 120.48,15.97 119.97,15.82 119.54,15.55 119.18,15.22 L 119.22,15.15 Z M 119.22,15.15" />
            </g>
            <g id="kazAveTop05-group547">
                <path id="kazAveTop05-bezier725" stroke="none" fill="rgb(0, 0, 0)" d="M 118.36,49.33 L 113.9,49.21 C 112.42,49.2 110.9,49.12 109.48,49.25 108.74,49.41 107.96,49.41 107.22,49.45 106.47,49.47 105.72,49.48 104.97,49.43 104.22,49.38 103.48,49.25 102.73,49.11 102.01,48.92 101.23,48.77 100.62,48.26 L 100.66,48.2 C 101.34,48.46 102.09,48.47 102.82,48.53 103.55,48.6 104.29,48.61 105.02,48.65 106.48,48.72 107.98,48.93 109.41,48.74 110.96,48.67 112.42,48.8 113.91,48.89 L 118.36,49.26 118.36,49.33 Z M 118.36,49.33" />
            </g>
            <g id="kazAveTop05-group548">
                <path id="kazAveTop05-bezier726" stroke="none" fill="rgb(0, 0, 0)" d="M 99.48,42.41 C 101.07,42.46 102.65,42.51 104.24,42.62 105.03,42.68 105.83,42.75 106.62,42.84 107.02,42.89 107.41,42.94 107.82,43.02 108.02,43.06 108.22,43.1 108.44,43.18 L 108.71,43.29 108.97,43.37 C 110.46,43.73 112.05,43.94 113.59,44.26 115.14,44.53 116.71,44.89 118.25,45.12 L 118.27,45.19 C 117.44,45.29 116.66,45.22 115.86,45.18 115.06,45.14 114.27,45.04 113.48,44.95 111.9,44.76 110.34,44.5 108.78,44.01 108.68,43.98 108.58,43.94 108.48,43.9 108.36,43.85 108.26,43.8 108.2,43.77 108.05,43.71 107.87,43.65 107.68,43.61 107.31,43.51 106.93,43.44 106.54,43.37 105.77,43.24 104.98,43.13 104.2,43.03 102.63,42.83 101.05,42.64 99.48,42.49 L 99.48,42.41 Z M 99.48,42.41" />
            </g>
            <g id="kazAveTop05-group549">
                <path id="kazAveTop05-bezier727" stroke="none" fill="rgb(0, 0, 0)" d="M 88.16,43.76 C 90.6,45.03 93.13,46.12 95.64,47.22 L 95.24,47.31 C 95.84,46.54 96.38,45.66 96.79,44.76 97.21,43.86 97.52,42.93 97.7,41.99 L 98.01,42.54 C 97.19,42.17 96.41,41.76 95.67,41.25 95.3,40.99 94.94,40.71 94.61,40.4 94.32,40.07 93.93,39.67 94.01,39.16 L 94.11,39.17 C 94.19,39.56 94.56,39.81 94.91,40.03 95.26,40.26 95.64,40.45 96.03,40.62 96.8,40.97 97.6,41.3 98.39,41.6 L 98.75,41.74 98.7,42.15 C 98.55,43.24 98.13,44.26 97.6,45.18 97.07,46.11 96.47,46.96 95.76,47.77 L 95.58,47.97 95.35,47.85 C 92.89,46.61 90.45,45.31 88.11,43.85 L 88.16,43.76 Z M 88.16,43.76" />
            </g>
            <g id="kazAveTop05-group550">
                <path id="kazAveTop05-bezier728" stroke="none" fill="rgb(0, 0, 0)" d="M 37.69,30.63 C 37.65,32.44 37.7,34.25 37.86,36.04 37.94,36.94 38.06,37.83 38.24,38.71 38.43,39.57 38.66,40.46 39.12,41.13 39.35,41.47 39.64,41.63 40.06,41.77 40.46,41.9 40.89,41.99 41.32,42.06 42.19,42.18 43.08,42.22 43.97,42.21 45.76,42.19 47.56,42.02 49.32,41.81 L 48.87,42.34 C 48.78,40.39 48.77,38.44 48.77,36.49 48.76,35.51 48.8,34.53 48.81,33.56 48.84,32.58 48.88,31.6 48.96,30.63 L 49.06,30.63 C 49.27,32.57 49.45,34.51 49.58,36.46 49.72,38.4 49.85,40.35 49.9,42.29 L 49.92,42.78 49.45,42.82 C 47.62,43.02 45.8,43.08 43.96,43.03 43.04,43 42.12,42.93 41.2,42.77 40.74,42.69 40.28,42.58 39.83,42.41 39.71,42.36 39.6,42.32 39.48,42.26 39.38,42.21 39.27,42.15 39.14,42.07 38.92,41.9 38.74,41.69 38.6,41.48 38.07,40.63 37.89,39.71 37.73,38.8 37.58,37.89 37.52,36.98 37.48,36.07 37.41,34.25 37.45,32.43 37.59,30.62 L 37.69,30.63 Z M 37.69,30.63" />
            </g>
            <g id="kazAveTop05-group551">
                <path id="kazAveTop05-bezier729" stroke="none" fill="rgb(0, 0, 0)" d="M 120.99,45.39 C 121,46.03 121.05,46.68 121.17,47.27 121.24,47.57 121.38,47.83 121.44,48.05 121.51,48.27 121.54,48.45 121.88,48.64 L 121.89,48.71 C 121.59,49 120.97,48.77 120.78,48.4 120.55,48.05 120.57,47.67 120.57,47.33 120.58,46.65 120.72,46 120.91,45.38 L 120.99,45.39 Z M 120.99,45.39" />
            </g>
            <g id="kazAveTop05-group552">
                <path id="kazAveTop05-bezier730" stroke="none" fill="rgb(0, 0, 0)" d="M 124.24,48.01 C 124.12,48.54 123.97,49.07 123.73,49.57 123.6,49.82 123.46,50.07 123.24,50.29 123,50.52 122.78,50.66 122.48,50.79 121.87,51.04 121.26,51.01 120.73,50.89 120.2,50.76 119.69,50.59 119.19,50.29 L 119.21,50.22 C 119.77,50.11 120.31,50.13 120.84,50.15 121.37,50.17 121.86,50.33 122.28,50.22 122.75,50.1 123.12,49.83 123.41,49.38 123.71,48.96 123.96,48.48 124.16,47.99 L 124.24,48.01 Z M 124.24,48.01" />
            </g>
            <g id="kazAveTop05-group553">
                <path id="kazAveTop05-bezier731" stroke="none" fill="rgb(0, 0, 0)" d="M 119.18,45.04 C 119.54,44.7 119.97,44.43 120.48,44.28 120.72,44.2 121.01,44.1 121.29,44.19 121.56,44.28 121.83,44.48 121.91,44.79 L 121.87,44.85 121.18,44.93 C 120.99,44.95 120.79,44.88 120.57,44.87 120.14,44.88 119.68,44.96 119.22,45.1 L 119.18,45.04 Z M 119.18,45.04" />
            </g>
            <g id="kazAveTop05-group554">
                <path id="kazAveTop05-bezier732" stroke="none" fill="rgb(0, 0, 0)" d="M 107.91,33.95 C 107.13,34.88 106.14,35.7 104.96,36.14 103.79,36.58 102.51,36.7 101.27,36.63 100.03,36.57 98.81,36.33 97.61,36.03 96.4,35.71 95.28,35.32 94.11,35.18 91.77,34.85 89.4,35.15 87.25,36.08 85.11,37.03 83.17,38.55 81.75,40.51 L 81.66,40.46 C 82.15,39.32 82.93,38.32 83.8,37.44 84.68,36.55 85.72,35.82 86.85,35.24 89.11,34.06 91.8,33.79 94.26,34.29 95.5,34.5 96.68,34.97 97.81,35.32 98.96,35.67 100.13,35.96 101.32,36.08 102.5,36.2 103.71,36.17 104.85,35.82 105.99,35.48 107,34.76 107.84,33.88 L 107.91,33.95 Z M 107.91,33.95" />
            </g>
            <g id="kazAveTop05-group555">
                <path id="kazAveTop05-bezier733" stroke="none" fill="rgb(0, 0, 0)" d="M 81.85,21.34 C 83.22,22.97 84.82,24.43 86.64,25.46 87.55,25.97 88.54,26.34 89.54,26.43 90.04,26.48 90.54,26.44 91.01,26.33 91.5,26.2 92,26.03 92.5,25.85 94.47,25.13 96.39,24.11 98.58,23.68 99.66,23.48 100.82,23.38 101.93,23.68 103.03,23.96 104,24.59 104.72,25.41 L 104.65,25.48 C 103.77,24.87 102.8,24.45 101.8,24.33 100.8,24.22 99.78,24.33 98.79,24.61 96.81,25.16 94.85,26.03 92.77,26.67 92.25,26.82 91.73,26.97 91.17,27.08 90.61,27.19 90.02,27.2 89.46,27.12 88.33,26.96 87.3,26.49 86.37,25.91 84.53,24.72 83.04,23.13 81.77,21.4 L 81.85,21.34 Z M 81.85,21.34" />
            </g>
            <g id="kazAveTop05-group556">
                <path id="kazAveTop05-bezier734" stroke="none" fill="rgb(0, 0, 0)" d="M 100.73,31.7 C 98.81,31.43 96.87,31.61 94.94,31.73 L 89.13,32.16 C 87.19,32.3 85.24,32.48 83.27,32.34 82.29,32.27 81.3,32.16 80.33,31.92 79.38,31.68 78.38,31.36 77.64,30.66 L 77.7,30.58 C 79.45,31.37 81.41,31.29 83.31,31.34 85.22,31.35 87.16,31.39 89.09,31.36 L 94.92,31.23 C 96.86,31.24 98.83,31.2 100.75,31.6 L 100.73,31.7 Z M 100.73,31.7" />
            </g>
            <g id="kazAveTop05-group557">
                <path id="kazAveTop05-bezier735" stroke="none" fill="rgb(0, 0, 0)" d="M 89.38,15.14 C 84.26,15.41 79.13,15.76 74.1,16.7 72.84,16.94 71.61,17.23 70.39,17.62 69.15,17.99 67.9,18.31 66.64,18.58 65.37,18.84 64.09,19.06 62.79,19.16 62.14,19.22 61.49,19.24 60.83,19.23 60.15,19.21 59.53,19.19 58.79,18.97 L 59.38,18.45 C 59.83,20.36 60.24,22.27 60.59,24.19 60.9,26.13 61.24,28.05 61.2,30.09 61.04,32.13 60.58,33.99 60.23,35.9 60.05,36.86 59.9,37.81 59.79,38.77 59.69,39.73 59.63,40.7 59.85,41.64 L 59.75,41.67 C 59.39,40.74 59.37,39.72 59.37,38.74 59.39,37.76 59.49,36.78 59.6,35.81 59.79,33.87 60.21,31.92 60.27,30.07 60.21,28.21 59.88,26.27 59.57,24.37 59.25,22.46 58.9,20.55 58.51,18.65 L 58.36,17.91 59.11,18.13 C 60.16,18.45 61.51,18.47 62.74,18.41 64,18.34 65.26,18.17 66.52,17.95 67.77,17.73 69.01,17.45 70.25,17.12 71.48,16.78 72.76,16.49 74.02,16.28 79.11,15.45 84.25,15.2 89.37,15.03 L 89.38,15.14 Z M 89.38,15.14" />
            </g>
            <g id="kazAveTop05-group558">
                <path id="kazAveTop05-bezier736" stroke="none" fill="rgb(0, 0, 0)" d="M 59.81,42.25 C 62.04,41.39 64.46,41.06 66.86,41.07 68.06,41.09 69.26,41.19 70.46,41.38 71.65,41.56 72.82,41.89 73.95,42.11 76.25,42.54 78.6,42.75 80.95,42.99 83.3,43.19 85.66,43.34 88.04,43.49 L 88.05,43.59 C 85.68,43.88 83.28,43.97 80.89,43.89 78.5,43.85 76.11,43.58 73.76,43.02 72.56,42.75 71.47,42.34 70.32,42.12 69.17,41.87 68.01,41.71 66.84,41.64 64.51,41.51 62.11,41.64 59.85,42.34 L 59.81,42.25 Z M 59.81,42.25" />
            </g>
            <g id="kazAveTop05-group559">
                <path id="kazAveTop05-bezier737" stroke="none" fill="rgb(0, 0, 0)" d="M 50.21,42.21 C 51.57,41.82 52.96,41.54 54.38,41.38 55.09,41.29 55.8,41.19 56.52,41.27 57.24,41.35 57.96,41.51 58.61,41.88 L 58.59,41.95 56.49,42.02 C 55.81,42.04 55.12,41.97 54.42,41.98 53.03,42.01 51.62,42.11 50.23,42.28 L 50.21,42.21 Z M 50.21,42.21" />
            </g>
            <g id="kazAveTop05-group560">
                <path id="kazAveTop05-bezier738" stroke="none" fill="rgb(0, 0, 0)" d="M 50.56,19 L 54.58,18.84 C 55.25,18.81 55.92,18.73 56.58,18.77 57.25,18.81 57.91,18.88 58.59,19 L 58.6,19.07 C 57.95,19.36 57.27,19.45 56.59,19.52 55.92,19.58 55.24,19.49 54.57,19.44 53.23,19.36 51.89,19.23 50.55,19.07 L 50.56,19 Z M 50.56,19" />
            </g>
            <g id="kazAveTop05-group561">
                <path id="kazAveTop05-bezier739" stroke="none" fill="rgb(0, 0, 0)" d="M 51.19,27.77 C 52.04,27.81 52.88,27.85 53.72,27.87 54.14,27.88 54.56,27.83 54.97,27.89 55.38,27.96 55.77,28.04 56.21,28.17 L 56.23,28.24 C 55.84,28.53 55.37,28.61 54.94,28.64 54.5,28.68 54.08,28.56 53.66,28.47 52.81,28.31 51.99,28.1 51.17,27.84 L 51.19,27.77 Z M 51.19,27.77" />
            </g>
            <g id="kazAveTop05-group562">
                <path id="kazAveTop05-bezier740" stroke="none" fill="rgb(0, 0, 0)" d="M 50.92,33.46 C 51.78,33.17 52.64,32.92 53.52,32.72 53.95,32.61 54.39,32.46 54.85,32.46 55.3,32.48 55.8,32.47 56.24,32.79 L 56.21,32.86 C 55.77,32.96 55.36,33.12 54.93,33.2 54.5,33.3 54.06,33.28 53.61,33.31 L 50.94,33.53 50.92,33.46 Z M 50.92,33.46" />
            </g>
            <g id="kazAveTop05-group563">
                <path id="kazAveTop05-bezier741" stroke="none" fill="rgb(0, 0, 0)" d="M 120.91,14.88 C 120.72,14.25 120.58,13.61 120.57,12.92 120.57,12.59 120.55,12.2 120.78,11.85 120.97,11.48 121.59,11.25 121.89,11.54 L 121.88,11.62 C 121.53,11.8 121.51,11.98 121.44,12.2 121.38,12.42 121.24,12.68 121.17,12.98 121.05,13.58 121,14.22 120.99,14.87 L 120.91,14.88 Z M 120.91,14.88" />
            </g>
            <g id="kazAveTop05-group564">
                <path id="kazAveTop05-bezier742" stroke="none" fill="rgb(0, 0, 0)" d="M 100.86,47.56 C 100.17,47.64 99.49,47.68 98.79,47.69 98.45,47.7 98.1,47.73 97.76,47.67 97.42,47.59 97.06,47.52 96.76,47.27 L 96.78,47.22 C 97.14,47.19 97.47,47.18 97.81,47.17 98.14,47.17 98.48,47.25 98.81,47.29 L 100.86,47.52 100.86,47.56 Z M 100.86,47.56" />
            </g>
            <g id="kazAveTop05-group565">
                <path id="kazAveTop05-bezier743" stroke="none" fill="rgb(0, 0, 0)" d="M 100.98,12.73 L 99.61,12.93 C 99.38,12.97 99.16,13.04 98.94,13.04 98.71,13.03 98.5,13.02 98.24,12.98 L 98.22,12.93 C 98.39,12.7 98.64,12.62 98.87,12.54 99.1,12.48 99.35,12.51 99.58,12.53 100.05,12.55 100.52,12.6 100.98,12.68 L 100.98,12.73 Z M 100.98,12.73" />
            </g>
            <g id="kazAveTop05-group566">
                <path id="kazAveTop05-bezier744" stroke="none" fill="rgb(0, 0, 0)" d="M 115.73,28.9 C 115.28,28.99 114.93,29.34 114.81,29.75 114.7,30.16 114.63,30.67 114.49,31.11 114.36,31.56 114.25,32.02 114.02,32.44 113.77,32.83 113.52,33.33 112.98,33.44 L 112.96,33.39 C 113.26,33.08 113.39,32.63 113.57,32.22 113.74,31.81 113.96,31.41 114.13,30.98 114.32,30.55 114.42,30.14 114.6,29.67 114.8,29.22 115.25,28.88 115.72,28.85 L 115.73,28.9 Z M 115.73,28.9" />
            </g>
            <g id="kazAveTop05-group567">
                <path id="kazAveTop05-bezier745" stroke="none" fill="rgb(0, 0, 0)" d="M 115.88,28.84 C 116.01,28.77 116.14,28.68 116.2,28.56 116.26,28.44 116.17,28.34 116.05,28.26 115.81,28.11 115.51,28.02 115.23,27.86 114.64,27.54 114.29,26.87 114.15,26.28 113.98,25.71 113.68,25.2 113.4,24.67 113.12,24.14 112.81,23.63 112.45,23.13 L 112.48,23.09 C 113.05,23.4 113.46,23.91 113.83,24.42 114.18,24.94 114.42,25.55 114.55,26.18 114.65,26.77 114.87,27.31 115.37,27.64 115.6,27.81 115.89,27.93 116.15,28.13 116.28,28.22 116.41,28.44 116.29,28.61 116.19,28.76 116.04,28.83 115.9,28.89 L 115.88,28.84 Z M 115.88,28.84" />
            </g>
            <g id="kazAveTop05-group568">
                <path id="kazAveTop05-bezier746" stroke="none" fill="rgb(0, 0, 0)" d="M 51.43,18.52 C 53.86,17.45 56.39,16.62 58.93,15.85 61.48,15.1 64.06,14.45 66.64,13.86 69.24,13.28 71.84,12.74 74.46,12.28 77.07,11.81 79.71,11.5 82.36,11.24 L 82.3,11.25 C 83.21,10.95 84.24,11.14 85,11.65 85.74,12.16 86.35,12.98 86.34,13.89 L 86.26,13.89 C 86.18,13.03 85.51,12.35 84.81,11.96 84.09,11.56 83.22,11.49 82.49,11.79 L 82.47,11.8 82.43,11.8 74.58,13.03 C 71.96,13.42 69.35,13.86 66.76,14.39 64.16,14.91 61.58,15.5 59.02,16.18 56.47,16.86 53.92,17.6 51.46,18.59 L 51.43,18.52 Z M 51.43,18.52" />
            </g>
        </g>
    </g>
</svg>
