<?xml version="1.0" encoding="UTF-8"?>
<!DOCTYPE svg PUBLIC "-//W3C//DTD SVG 1.1//EN" "http://www.w3.org/Graphics/SVG/1.1/DTD/svg11.dtd">
<svg version="1.1" xmlns="http://www.w3.org/2000/svg" xmlns:xlink="http://www.w3.org/1999/xlink" width="160" height="160"  xml:space="preserve" id="kazAveSide06">
    <!-- Generated by PaintCode - http://www.paintcodeapp.com -->
    <g id="kazAveSide06-group">
        <circle id="kazAveSide06-oval27" stroke="rgb(0, 0, 0)" stroke-width="2" stroke-miterlimit="10" fill="none" cx="126.51" cy="122" r="29" />
        <circle id="kazAveSide06-oval28" stroke="rgb(0, 0, 0)" stroke-width="2" stroke-miterlimit="10" fill="none" cx="32.85" cy="122" r="29" />
        <circle id="kazAveSide06-oval29" stroke="rgb(0, 0, 0)" stroke-width="2" stroke-miterlimit="10" fill="none" cx="71.35" cy="129" r="8.33" />
        <circle id="kazAveSide06-oval30" stroke="rgb(0, 0, 0)" stroke-width="2" stroke-miterlimit="10" fill="none" cx="32.85" cy="122" r="2.5" />
        <path id="kazAveSide06-bezier435" stroke="rgb(0, 0, 0)" stroke-width="2" stroke-miterlimit="10" fill="none" d="M 77.88,74.83 L 55.18,74.83 32.85,122 71.35,129" />
        <path id="kazAveSide06-bezier436" stroke="rgb(0, 0, 0)" stroke-width="2" stroke-miterlimit="10" fill="none" d="M 105.18,74.83 L 90.8,74.83" />
        <path id="kazAveSide06-bezier437" stroke="rgb(0, 0, 0)" stroke-width="2" stroke-miterlimit="10" fill="none" d="M 111.27,75.34 L 126.51,122" />
        <path id="kazAveSide06-bezier438" stroke="rgb(0, 0, 0)" stroke-width="2" stroke-miterlimit="10" fill="none" d="M 79.42,118.44 L 77.16,120.67" />
        <path id="kazAveSide06-bezier439" stroke="rgb(0, 0, 0)" stroke-width="2" stroke-miterlimit="10" fill="none" d="M 114.17,84.23 L 85.3,112.65" />
        <path id="kazAveSide06-bezier440" stroke="rgb(0, 0, 0)" stroke-width="2" stroke-miterlimit="10" fill="none" d="M 68.45,119.55 L 53.35,65.83" />
        <path id="kazAveSide06-bezier441" stroke="rgb(0, 0, 0)" stroke-width="2" stroke-miterlimit="10" fill="none" d="M 49.41,64.49 C 45.68,64.92 42.06,64.98 40.85,63.83 38.01,61.17 34.51,59.5 40.85,59.5" />
        <path id="kazAveSide06-bezier442" stroke="rgb(0, 0, 0)" stroke-width="1" stroke-miterlimit="10" fill="none" d="M 66.28,120.67 L 36.91,120.67" />
        <path id="kazAveSide06-bezier443" stroke="rgb(0, 0, 0)" stroke-width="1" stroke-miterlimit="10" fill="none" d="M 34.85,125.5 L 63.01,135.04" />
        <path id="kazAveSide06-bezier444" stroke="rgb(0, 0, 0)" stroke-width="2" stroke-miterlimit="10" fill="none" d="M 124.6,79.79 C 124.6,79.79 128.76,78.75 128.76,73.25 128.76,67.75 124.93,64.33 118.1,64.33 111.26,64.33 109.64,64.33 109.64,64.33" />
        <path id="kazAveSide06-bezier445" stroke="rgb(0, 0, 0)" stroke-width="2" stroke-miterlimit="10" fill="none" d="M 81.12,119.08 L 88.95,119.08" />
        <g id="kazAveSide06-group322">
            <g id="kazAveSide06-group323">
                <path id="kazAveSide06-bezier446" stroke="none" fill="rgb(0, 0, 0)" d="M 121.02,77.68 C 121.59,78.53 122.17,79.37 122.76,80.18 123.06,80.59 123.44,80.93 123.68,81.35 123.94,81.76 124.1,82.19 124.45,82.56 L 124.43,82.66 C 124.12,82.74 123.79,82.62 123.55,82.48 123.3,82.34 123.09,82.15 122.89,81.96 122.5,81.58 122.32,81.06 122.08,80.6 121.62,79.67 121.24,78.7 120.93,77.72 L 121.02,77.68 Z M 121.02,77.68" />
            </g>
            <g id="kazAveSide06-group324">
                <path id="kazAveSide06-bezier447" stroke="none" fill="rgb(0, 0, 0)" d="M 125.44,82.86 C 124.07,83.78 122.62,84.61 121.03,85.14 120.24,85.38 119.37,85.6 118.48,85.29 117.64,84.96 117.04,84.25 116.61,83.52 115.76,82.03 115.39,80.37 114.97,78.79 L 114.93,78.66 C 114.92,78.62 114.9,78.55 114.88,78.53 114.86,78.48 114.81,78.39 114.76,78.31 114.66,78.15 114.55,77.99 114.43,77.84 114.18,77.52 113.91,77.22 113.64,76.92 113.09,76.31 112.52,75.73 111.93,75.15 109.58,72.86 107.07,70.72 104.65,68.5 103.44,67.38 102.21,66.29 100.98,65.19 100.37,64.64 99.75,64.09 99.13,63.56 98.51,63.02 97.88,62.48 97.2,62.03 L 97.24,61.94 C 98.77,62.65 100.08,63.68 101.42,64.65 102.75,65.64 104.03,66.7 105.31,67.75 107.84,69.88 110.21,72.2 112.5,74.59 113.08,75.19 113.64,75.8 114.19,76.44 114.46,76.75 114.72,77.08 114.98,77.42 115.1,77.6 115.22,77.77 115.34,77.97 115.4,78.07 115.45,78.16 115.5,78.3 115.53,78.37 115.54,78.41 115.56,78.46 L 115.6,78.63 C 115.97,80.24 116.3,81.86 117.05,83.27 117.42,83.97 117.93,84.61 118.64,84.92 119.32,85.21 120.17,85.06 120.94,84.85 122.51,84.4 123.99,83.63 125.39,82.78 L 125.44,82.86 Z M 125.44,82.86" />
            </g>
            <g id="kazAveSide06-group325">
                <path id="kazAveSide06-bezier448" stroke="none" fill="rgb(0, 0, 0)" d="M 96.52,61.17 C 95.81,60.95 95.09,60.46 94.83,59.67 94.68,58.9 94.45,58.24 94.21,57.52 93.74,56.1 93.23,54.69 92.71,53.29 92.19,51.88 91.61,50.5 91.18,49.06 90.76,47.63 90.37,46.18 90.12,44.68 L 90.21,44.64 C 90.98,45.96 91.58,47.34 92.13,48.74 92.68,50.14 93.05,51.59 93.47,53.04 93.89,54.48 94.31,55.92 94.69,57.38 94.86,58.09 95.06,58.88 95.12,59.59 95.27,60.27 95.89,60.8 96.56,61.07 L 96.52,61.17 Z M 96.52,61.17" />
            </g>
            <g id="kazAveSide06-group326">
                <path id="kazAveSide06-bezier449" stroke="none" fill="rgb(0, 0, 0)" d="M 87.58,40.5 C 87.9,40.67 88.05,40.99 88.22,41.27 88.38,41.56 88.53,41.85 88.66,42.16 88.93,42.76 89.17,43.37 89.38,44 L 89.12,43.91 C 90.67,42.86 92.33,42.01 94.09,41.37 95.85,40.73 97.71,40.3 99.63,40.29 L 99.16,40.86 C 98.92,40.03 98.64,39.15 98.36,38.31 L 97.96,37.03 C 97.81,36.61 97.69,36.18 97.53,35.8 L 97.5,35.73 97.49,35.7 C 97.34,34.85 97.09,33.98 96.81,33.14 96.5,32.31 96.15,31.49 95.59,30.77 L 95.66,30.7 C 96.4,31.27 96.94,32.07 97.37,32.89 97.82,33.72 98.13,34.59 98.38,35.51 L 98.35,35.41 C 98.79,36.27 99.06,37.13 99.35,37.99 99.62,38.87 99.86,39.73 100.06,40.65 L 100.19,41.25 99.6,41.21 C 97.83,41.11 96.02,41.43 94.3,41.97 92.57,42.52 90.88,43.27 89.32,44.19 L 89.11,44.31 89.06,44.1 C 88.88,43.48 88.68,42.85 88.45,42.24 88.34,41.94 88.22,41.63 88.08,41.34 87.93,41.06 87.79,40.74 87.53,40.59 L 87.58,40.5 Z M 87.58,40.5" />
            </g>
            <g id="kazAveSide06-group327">
                <path id="kazAveSide06-bezier450" stroke="none" fill="rgb(0, 0, 0)" d="M 98.7,41.46 C 99.5,43.62 100.18,45.83 100.71,48.09 100.97,49.22 101.28,50.35 101.35,51.51 101.42,52.67 101.4,53.85 101.14,55.01 L 101.04,55.01 C 100.75,53.87 100.56,52.75 100.36,51.63 100.15,50.51 100.1,49.37 99.92,48.24 99.58,45.98 99.13,43.73 98.6,41.49 L 98.7,41.46 Z M 98.7,41.46" />
            </g>
            <g id="kazAveSide06-group328">
                <path id="kazAveSide06-bezier451" stroke="none" fill="rgb(0, 0, 0)" d="M 102.33,56.46 C 104.76,57.59 106.81,59.56 108.16,61.88 109.61,64.08 111.28,66.16 112.96,68.22 114.66,70.26 116.44,72.24 118.21,74.18 118.65,74.66 119.1,75.16 119.57,75.53 119.99,75.85 120.63,75.98 121.26,76.12 121.91,76.25 122.63,76.4 123.24,76.81 123.83,77.22 124.25,77.8 124.52,78.42 L 124.43,78.47 C 124.03,77.94 123.57,77.46 123.01,77.2 122.45,76.92 121.83,76.86 121.16,76.81 120.5,76.75 119.76,76.67 119.07,76.23 118.47,75.81 117.98,75.35 117.49,74.88 115.57,72.97 113.96,70.84 112.33,68.71 110.72,66.58 109.13,64.44 107.73,62.14 106.52,59.79 104.64,57.8 102.29,56.55 L 102.33,56.46 Z M 102.33,56.46" />
            </g>
            <g id="kazAveSide06-group329">
                <path id="kazAveSide06-bezier452" stroke="none" fill="rgb(0, 0, 0)" d="M 100.12,26.13 C 100.72,27.2 101.56,28.13 102.51,28.84 103.47,29.58 104.55,30.04 105.74,30.31 106.92,30.61 108.12,30.76 109.26,30.88 110.39,30.98 111.57,30.86 111.99,29.6 L 112.09,29.61 C 112.17,30.23 111.86,31.01 111.21,31.38 110.59,31.77 109.88,31.86 109.23,31.88 107.9,31.9 106.69,31.46 105.51,31.07 104.32,30.71 103.12,30.08 102.19,29.22 101.26,28.36 100.52,27.32 100.03,26.17 L 100.12,26.13 Z M 100.12,26.13" />
            </g>
            <g id="kazAveSide06-group330">
                <path id="kazAveSide06-bezier453" stroke="none" fill="rgb(0, 0, 0)" d="M 112.25,26.5 C 112.89,26.42 113.57,26.24 114.04,25.85 114.27,25.65 114.4,25.39 114.38,25.11 114.37,24.85 114.22,24.55 114.11,24.23 113.66,22.97 113.23,21.7 112.96,20.35 112.83,19.68 112.69,19 112.78,18.22 112.89,17.58 112.9,17.01 112.85,16.38 112.72,15.17 112.48,13.85 111.41,13.06 L 111.45,12.96 C 112.15,13.09 112.73,13.65 113.1,14.25 113.49,14.86 113.71,15.55 113.84,16.25 113.89,16.61 113.91,16.96 113.91,17.33 113.91,17.51 113.89,17.69 113.86,17.88 113.84,18.06 113.77,18.28 113.76,18.39 113.63,18.92 113.68,19.59 113.74,20.22 113.91,21.51 114.23,22.8 114.58,24.07 114.65,24.39 114.8,24.71 114.78,25.12 114.77,25.52 114.52,25.89 114.22,26.09 113.62,26.49 112.92,26.57 112.25,26.6 L 112.25,26.5 Z M 112.25,26.5" />
            </g>
            <g id="kazAveSide06-group331">
                <path id="kazAveSide06-bezier454" stroke="none" fill="rgb(0, 0, 0)" d="M 103.83,23.9 C 103.33,23.45 102.89,22.93 102.53,22.33 102.35,22.03 102.1,21.73 102.1,21.33 102.09,20.96 102.21,20.44 102.65,20.26 L 102.73,20.31 C 102.84,20.7 102.98,20.88 103.09,21.15 103.2,21.4 103.18,21.71 103.26,22.01 103.43,22.61 103.66,23.23 103.91,23.85 L 103.83,23.9 Z M 103.83,23.9" />
            </g>
            <g id="kazAveSide06-group332">
                <path id="kazAveSide06-bezier455" stroke="none" fill="rgb(0, 0, 0)" d="M 98.11,32.21 C 98.86,31.74 99.64,31.33 100.45,30.97 100.86,30.79 101.26,30.57 101.72,30.51 102.16,30.47 102.68,30.45 103.11,30.72 L 103.1,30.8 C 102.66,30.94 102.29,31.1 101.89,31.24 101.5,31.39 101.07,31.43 100.65,31.54 99.82,31.76 98.98,32.01 98.14,32.28 L 98.11,32.21 Z M 98.11,32.21" />
            </g>
            <g id="kazAveSide06-group333">
                <path id="kazAveSide06-bezier456" stroke="none" fill="rgb(0, 0, 0)" d="M 79.28,24.87 C 77.4,25.27 75.58,25.87 73.79,26.53 72,27.18 70.23,27.93 68.49,28.71 66.75,29.5 65.05,30.38 63.26,31.1 62.37,31.45 61.47,31.8 60.54,32.08 59.61,32.36 58.66,32.64 57.68,32.67 L 57.66,32.57 C 59.46,31.92 61.12,30.99 62.86,30.18 64.58,29.35 66.38,28.66 68.18,27.97 71.76,26.58 75.45,25.33 79.26,24.77 L 79.28,24.87 Z M 79.28,24.87" />
            </g>
            <g id="kazAveSide06-group334">
                <path id="kazAveSide06-bezier457" stroke="none" fill="rgb(0, 0, 0)" d="M 57.03,33.48 C 58.66,35.48 60.21,37.55 61.65,39.7 62.36,40.79 63.05,41.89 63.66,43.04 64.27,44.19 64.84,45.38 65.15,46.71 L 64.57,46.43 C 65.69,45.81 66.82,45.22 67.96,44.64 69.11,44.07 70.28,43.56 71.47,43.09 72.68,42.66 73.89,42.22 75.14,41.92 76.39,41.63 77.69,41.36 78.99,41.54 L 78.98,41.64 C 77.72,41.74 76.53,42.16 75.35,42.58 74.17,43.02 73,43.49 71.85,44.02 L 68.38,45.54 C 67.23,46.06 66.07,46.59 64.94,47.14 L 64.46,47.38 64.36,46.87 C 64.14,45.67 63.63,44.48 63.08,43.34 62.52,42.19 61.89,41.07 61.23,39.97 59.91,37.77 58.47,35.62 56.95,33.55 L 57.03,33.48 Z M 57.03,33.48" />
            </g>
            <g id="kazAveSide06-group335">
                <path id="kazAveSide06-bezier458" stroke="none" fill="rgb(0, 0, 0)" d="M 80.89,42.03 C 81.41,42.27 81.98,42.42 82.53,42.51 83.09,42.61 83.65,42.64 84.2,42.6 84.75,42.57 85.27,42.38 85.81,42.33 86.35,42.26 86.89,42.18 87.53,42.16 L 87.58,42.25 C 87.18,42.76 86.63,43.09 86.04,43.3 85.44,43.51 84.79,43.46 84.18,43.4 82.95,43.28 81.78,42.84 80.84,42.12 L 80.89,42.03 Z M 80.89,42.03" />
            </g>
            <g id="kazAveSide06-group336">
                <path id="kazAveSide06-bezier459" stroke="none" fill="rgb(0, 0, 0)" d="M 56.25,35.08 C 55.3,36.07 54.26,36.97 53.11,37.75 52.53,38.14 51.96,38.59 51.26,38.79 50.58,38.98 49.79,39.09 49.09,38.77 L 49.1,38.67 C 49.77,38.43 50.32,38.14 50.9,37.86 51.46,37.55 52.1,37.37 52.7,37.06 53.89,36.46 55.06,35.76 56.19,35 L 56.25,35.08 Z M 56.25,35.08" />
            </g>
            <g id="kazAveSide06-group337">
                <path id="kazAveSide06-bezier460" stroke="none" fill="rgb(0, 0, 0)" d="M 61.81,50.45 C 60.77,49.28 59.65,48.19 58.46,47.18 57.26,46.18 55.99,45.26 54.61,44.57 53.92,44.21 53.2,44 52.45,43.7 51.71,43.41 50.99,43.06 50.3,42.65 48.93,41.84 47.67,40.87 46.59,39.63 L 47.03,39.7 C 45.06,41.21 43.26,43.05 41.95,45.15 40.63,47.24 39.87,49.68 40.3,52.09 40.65,54.5 41.65,56.84 43.19,58.78 44.73,60.71 46.72,62.39 49.11,63.24 L 49.09,63.34 C 46.55,62.8 44.32,61.22 42.59,59.28 40.87,57.32 39.65,54.86 39.27,52.23 39.06,50.93 39.16,49.52 39.53,48.25 39.9,46.96 40.51,45.77 41.23,44.69 42.7,42.52 44.55,40.69 46.66,39.16 L 46.9,38.98 47.11,39.23 C 48.06,40.38 49.29,41.38 50.59,42.19 51.24,42.59 51.93,42.95 52.63,43.26 53.33,43.56 54.11,43.81 54.8,44.21 56.2,44.96 57.45,45.94 58.62,46.99 59.79,48.04 60.88,49.17 61.88,50.38 L 61.81,50.45 Z M 61.81,50.45" />
            </g>
            <g id="kazAveSide06-group338">
                <path id="kazAveSide06-bezier461" stroke="none" fill="rgb(0, 0, 0)" d="M 55.15,63.4 C 57.06,64.53 59.07,65.5 61.14,66.25 62.18,66.63 63.24,66.95 64.31,67.14 64.84,67.24 65.38,67.31 65.92,67.34 66.43,67.35 67.04,67.35 67.6,67.41 69.86,67.61 72.08,68.05 74.22,68.71 76.34,69.41 78.45,70.17 80.45,71.2 L 80.41,71.3 C 78.23,70.81 76.1,70.19 73.94,69.67 71.8,69.14 69.68,68.5 67.51,68.2 66.96,68.13 66.46,68.1 65.86,68.06 65.29,68.01 64.73,67.91 64.17,67.78 63.07,67.52 62,67.15 60.96,66.72 58.9,65.83 56.94,64.73 55.09,63.48 L 55.15,63.4 Z M 55.15,63.4" />
            </g>
            <g id="kazAveSide06-group339">
                <path id="kazAveSide06-bezier462" stroke="none" fill="rgb(0, 0, 0)" d="M 80.47,72.77 C 79.36,74.96 78.33,77.23 77.83,79.6 77.6,80.76 77.66,82.01 77.61,83.24 L 77.51,86.93 C 77.44,89.4 77.39,91.88 77.05,94.34 76.86,95.56 76.67,96.79 76.38,98 76.07,99.2 75.72,100.43 75.06,101.5 L 74.97,101.46 C 75.36,100.29 75.53,99.08 75.69,97.87 75.84,96.66 75.97,95.45 76.06,94.23 76.26,91.79 76.53,89.35 76.71,86.89 L 76.96,83.21 C 77.07,81.98 77.05,80.75 77.34,79.49 77.99,77.06 79.15,74.86 80.39,72.72 L 80.47,72.77 Z M 80.47,72.77" />
            </g>
            <g id="kazAveSide06-group340">
                <path id="kazAveSide06-bezier463" stroke="none" fill="rgb(0, 0, 0)" d="M 60.2,51.31 C 65.42,52.28 70.56,53.78 75.49,55.81 77.96,56.83 80.4,57.94 82.65,59.42 84.87,60.92 87,62.62 88.64,64.74 L 88.57,64.81 C 86.53,63.11 84.39,61.59 82.12,60.27 79.86,58.94 77.57,57.65 75.17,56.54 72.77,55.45 70.31,54.48 67.8,53.63 65.3,52.78 62.76,52.01 60.18,51.41 L 60.2,51.31 Z M 60.2,51.31" />
            </g>
            <g id="kazAveSide06-group341">
                <path id="kazAveSide06-bezier464" stroke="none" fill="rgb(0, 0, 0)" d="M 90.2,71.9 C 89.55,74.68 88.85,77.48 88.51,80.28 88.49,80.46 88.48,80.63 88.49,80.8 88.51,80.92 88.5,81.21 88.46,81.37 88.4,81.74 88.32,82.09 88.23,82.44 88.05,83.14 87.85,83.83 87.64,84.52 L 86.38,88.62 83.78,96.8 C 83.35,98.16 82.9,99.52 82.46,100.87 82.02,102.21 81.5,103.6 81.23,104.9 L 81.11,105.47 80.64,105.2 C 79.75,104.68 78.83,104.16 77.89,103.72 77.42,103.5 76.95,103.28 76.46,103.1 75.99,102.94 75.46,102.74 74.99,102.89 L 74.94,102.8 C 75.47,102.53 76.04,102.69 76.56,102.78 77.08,102.9 77.59,103.05 78.09,103.24 79.09,103.61 80.07,104.02 81.03,104.51 L 80.44,104.8 C 80.68,103.29 81.1,101.96 81.5,100.57 81.91,99.2 82.36,97.83 82.83,96.48 L 85.7,88.4 87.09,84.34 C 87.31,83.66 87.53,82.99 87.73,82.3 87.82,81.96 87.92,81.62 87.99,81.29 88.06,81.02 88,80.59 88.07,80.24 88.54,77.37 89.34,74.64 90.1,71.88 L 90.2,71.9 Z M 90.2,71.9" />
            </g>
            <g id="kazAveSide06-group342">
                <path id="kazAveSide06-bezier465" stroke="none" fill="rgb(0, 0, 0)" d="M 73.23,108.74 L 73.96,106.47 C 74.08,106.09 74.11,105.69 74.3,105.36 74.48,105.02 74.72,104.74 74.95,104.39 L 75.05,104.36 C 75.38,104.8 75.3,105.3 75.24,105.7 75.17,106.12 74.89,106.45 74.69,106.79 74.28,107.49 73.82,108.16 73.32,108.79 L 73.23,108.74 Z M 73.23,108.74" />
            </g>
            <g id="kazAveSide06-group343">
                <path id="kazAveSide06-bezier466" stroke="none" fill="rgb(0, 0, 0)" d="M 80.44,117.96 C 78.98,117.49 77.5,117.08 76.01,116.8 75.27,116.66 74.52,116.54 73.79,116.57 73,116.58 72.2,116.51 71.41,116.29 70.64,116.08 69.77,115.73 69.25,114.87 69,114.44 68.93,113.91 68.99,113.45 69.06,112.99 69.24,112.58 69.43,112.21 70.29,110.86 71.28,109.67 72.47,108.65 L 72.55,108.71 C 71.79,110.06 70.99,111.37 70.32,112.67 70.01,113.29 69.88,113.92 70.12,114.4 70.35,114.91 70.98,115.3 71.64,115.53 72.32,115.76 73.06,115.88 73.8,115.92 74.6,115.94 75.37,116.12 76.12,116.31 77.61,116.73 79.05,117.27 80.47,117.86 L 80.44,117.96 Z M 80.44,117.96" />
            </g>
            <g id="kazAveSide06-group344">
                <path id="kazAveSide06-bezier467" stroke="none" fill="rgb(0, 0, 0)" d="M 74.08,109.63 C 74.65,110.07 75.26,110.44 75.88,110.69 76.2,110.82 76.53,110.82 76.8,110.96 77.08,111.09 77.35,111.23 77.74,111.44 L 77.76,111.54 C 77.44,111.88 76.98,111.97 76.56,111.93 76.13,111.9 75.8,111.62 75.49,111.39 74.86,110.92 74.37,110.34 74,109.69 L 74.08,109.63 Z M 74.08,109.63" />
            </g>
            <g id="kazAveSide06-group345">
                <path id="kazAveSide06-bezier468" stroke="none" fill="rgb(0, 0, 0)" d="M 79.33,110.56 C 79.59,110.27 79.89,110.01 80.29,109.88 80.48,109.82 80.72,109.81 80.92,109.91 81.13,110.01 81.26,110.2 81.38,110.32 81.9,110.87 82.45,111.39 83,111.9 83.56,112.41 84.12,112.91 84.7,113.38 85,113.61 85.29,113.84 85.6,114.03 85.89,114.22 86.23,114.42 86.46,114.44 87.29,114.55 88.02,114.8 88.76,115.1 89.49,115.44 90.22,115.79 90.79,116.61 90.92,116.8 91.03,117.16 91.01,117.38 91.01,117.6 91.02,117.84 90.88,118.15 90.73,118.49 90.37,118.65 90.15,118.69 89.91,118.74 89.71,118.74 89.5,118.73 88.71,118.7 87.97,118.6 87.2,118.46 L 87.2,118.36 C 87.96,118.21 88.73,118.15 89.45,118.04 89.81,117.99 90.16,117.84 90.08,117.8 90.08,117.76 90.09,117.6 90.07,117.44 90.05,117.28 90.03,117.27 89.95,117.15 89.63,116.72 88.96,116.33 88.34,116 87.71,115.67 87.01,115.38 86.34,115.23 85.82,115.12 85.51,114.86 85.18,114.63 84.86,114.39 84.57,114.14 84.28,113.88 83.71,113.36 83.18,112.81 82.65,112.26 82.14,111.69 81.63,111.12 81.16,110.52 80.94,110.18 80.71,109.99 80.34,110.08 80,110.16 79.68,110.38 79.41,110.63 L 79.33,110.56 Z M 79.33,110.56" />
            </g>
            <g id="kazAveSide06-group346">
                <path id="kazAveSide06-bezier469" stroke="none" fill="rgb(0, 0, 0)" d="M 78.41,110.19 C 78.34,109.63 78.32,109.06 78.37,108.49 78.4,108.2 78.36,107.88 78.54,107.62 78.63,107.49 78.74,107.35 78.9,107.24 79.03,107.14 79.29,107.02 79.49,107.13 L 79.5,107.23 C 79.43,107.54 79.53,107.74 79.47,107.99 79.45,108.23 79.26,108.44 79.15,108.68 78.94,109.17 78.73,109.69 78.51,110.21 L 78.41,110.19 Z M 78.41,110.19" />
            </g>
            <g id="kazAveSide06-group347">
                <path id="kazAveSide06-bezier470" stroke="none" fill="rgb(0, 0, 0)" d="M 62.64,136.4 C 62.04,136.74 61.34,136.88 60.66,136.98 60.33,137.03 59.98,137.1 59.64,137.07 59.3,137.02 58.96,136.98 58.62,136.84 L 58.62,136.79 C 58.96,136.65 59.3,136.62 59.63,136.57 59.97,136.53 60.3,136.57 60.64,136.58 61.3,136.57 61.98,136.55 62.62,136.36 L 62.64,136.4 Z M 62.64,136.4" />
            </g>
            <g id="kazAveSide06-group348">
                <path id="kazAveSide06-bezier471" stroke="none" fill="rgb(0, 0, 0)" d="M 52.06,128.98 C 52.4,129.25 52.74,129.51 53.08,129.76 53.26,129.89 53.45,129.99 53.59,130.14 53.73,130.32 53.87,130.48 53.95,130.72 L 53.92,130.76 C 53.66,130.74 53.47,130.63 53.27,130.53 53.08,130.41 52.96,130.23 52.81,130.06 52.52,129.73 52.26,129.39 52.02,129.02 L 52.06,128.98 Z M 52.06,128.98" />
            </g>
            <g id="kazAveSide06-group349">
                <path id="kazAveSide06-bezier472" stroke="none" fill="rgb(0, 0, 0)" d="M 89.26,65.16 C 90.08,65.86 90.65,66.85 90.93,67.93 91.07,68.47 91.22,69.05 91.1,69.61 90.99,70.16 90.77,70.69 90.35,71.12 L 90.26,71.09 C 90.14,70.51 90.13,70.01 90.1,69.52 90.07,69.04 90.18,68.56 90.14,68.07 90.11,67.58 90.01,67.09 89.85,66.61 89.7,66.13 89.49,65.65 89.19,65.23 L 89.26,65.16 Z M 89.26,65.16" />
            </g>
            <g id="kazAveSide06-group350">
                <path id="kazAveSide06-bezier473" stroke="none" fill="rgb(0, 0, 0)" d="M 49.76,136.53 C 48.74,136.37 47.72,136.25 46.7,136.19 46.19,136.15 45.68,136.13 45.17,136.13 44.92,136.13 44.65,136.13 44.39,136.12 44.1,136.09 43.82,136.05 43.53,135.97 42.98,135.82 42.37,135.44 42.07,134.81 41.78,134.18 41.84,133.5 42.04,132.96 42.45,131.98 42.84,131.04 43.47,130.16 L 43.56,130.19 C 43.46,131.23 43.27,132.28 43,133.25 42.79,134.11 42.9,134.87 43.8,135.21 44,135.3 44.23,135.35 44.45,135.39 44.7,135.43 44.94,135.45 45.2,135.48 45.73,135.53 46.25,135.6 46.76,135.69 47.78,135.89 48.79,136.14 49.78,136.43 L 49.76,136.53 Z M 49.76,136.53" />
            </g>
            <g id="kazAveSide06-group351">
                <path id="kazAveSide06-bezier474" stroke="none" fill="rgb(0, 0, 0)" d="M 53.98,99.72 C 54.21,98.44 54.51,97.16 55.05,95.93 55.32,95.32 55.59,94.65 56.11,94.17 56.62,93.69 57.29,93.31 58,93.29 L 58.04,93.38 C 57.58,93.9 57.21,94.35 56.86,94.84 56.53,95.32 56.09,95.76 55.76,96.3 55.1,97.37 54.58,98.55 54.08,99.75 L 53.98,99.72 Z M 53.98,99.72" />
            </g>
            <g id="kazAveSide06-group352">
                <path id="kazAveSide06-bezier475" stroke="none" fill="rgb(0, 0, 0)" d="M 48.05,119.49 C 48.48,118.25 48.91,117.01 49.32,115.77 49.74,114.53 50.15,113.28 50.52,112.04 50.88,110.78 51.11,109.52 51.49,108.26 51.87,107.02 52.25,105.76 52.8,104.54 L 52.9,104.56 C 52.88,105.9 52.71,107.21 52.46,108.5 52.21,109.79 51.75,111.06 51.28,112.29 50.34,114.76 49.27,117.15 48.14,119.53 L 48.05,119.49 Z M 48.05,119.49" />
            </g>
            <g id="kazAveSide06-group353">
                <path id="kazAveSide06-bezier476" stroke="none" fill="rgb(0, 0, 0)" d="M 53.33,124.55 C 52.2,124.35 51.07,124.16 49.94,123.95 49.38,123.84 48.82,123.75 48.25,123.67 47.7,123.59 47.13,123.38 46.66,123.23 L 46.09,123.04 46.33,122.68 C 46.56,122.32 46.82,121.99 47.14,121.67 L 47.23,121.71 C 47.22,122.16 47.15,122.58 47.05,122.99 L 46.72,122.44 C 47.39,122.42 47.93,122.51 48.49,122.7 L 50.12,123.26 C 51.21,123.62 52.29,124.04 53.36,124.45 L 53.33,124.55 Z M 53.33,124.55" />
            </g>
            <g id="kazAveSide06-group354">
                <path id="kazAveSide06-bezier477" stroke="none" fill="rgb(0, 0, 0)" d="M 51.28,76.82 C 49.99,75.3 48.86,73.64 47.78,71.97 47.25,71.13 46.65,70.32 46.23,69.42 45.81,68.51 45.44,67.58 45.22,66.57 L 45.31,66.53 C 46.02,67.28 46.58,68.1 47.11,68.94 47.65,69.77 48.02,70.69 48.47,71.57 49.39,73.32 50.31,75.08 51.36,76.76 L 51.28,76.82 Z M 51.28,76.82" />
            </g>
            <g id="kazAveSide06-group355">
                <path id="kazAveSide06-bezier478" stroke="none" fill="rgb(0, 0, 0)" d="M 57.56,90.93 C 57.04,89.14 56.47,87.38 55.86,85.63 55.55,84.76 55.14,83.93 54.89,83.06 54.63,82.18 54.38,81.3 54.19,80.36 L 54.28,80.31 C 54.97,81.01 55.44,81.85 55.83,82.71 56.23,83.56 56.4,84.5 56.63,85.41 57.08,87.22 57.42,89.06 57.65,90.91 L 57.56,90.93 Z M 57.56,90.93" />
            </g>
            <g id="kazAveSide06-group356">
                <path id="kazAveSide06-bezier479" stroke="none" fill="rgb(0, 0, 0)" d="M 66.99,76.17 C 67.41,77.9 67.92,79.6 68.4,81.32 68.87,83.04 69.31,84.78 69.5,86.59 L 69.5,86.57 69.85,88.78 C 69.98,89.6 69.94,90.38 69.83,91.16 69.71,91.95 69.46,92.72 69.08,93.43 68.68,94.14 68.17,94.78 67.55,95.29 L 67.63,95.19 C 67.3,95.67 66.95,96.14 66.61,96.62 L 66.64,96.57 C 66.12,97.53 65.6,98.5 65.01,99.43 L 64.92,99.39 C 65.21,98.33 65.58,97.3 65.94,96.26 L 65.94,96.25 65.96,96.21 C 66.25,95.7 66.53,95.18 66.83,94.68 L 66.86,94.64 66.92,94.58 C 67.92,93.61 68.59,92.36 68.92,90.99 69.06,90.31 69.15,89.57 69.07,88.9 L 68.76,86.67 68.76,86.65 68.76,86.64 C 68.67,84.91 68.31,83.16 67.95,81.43 67.59,79.69 67.19,77.95 66.89,76.19 L 66.99,76.17 Z M 66.99,76.17" />
            </g>
            <g id="kazAveSide06-group357">
                <path id="kazAveSide06-bezier480" stroke="none" fill="rgb(0, 0, 0)" d="M 65.49,69.32 C 65.78,69.89 66.05,70.46 66.28,71.04 66.39,71.33 66.59,71.61 66.6,71.93 66.6,72.24 66.57,72.57 66.37,72.94 L 66.27,72.96 C 65.93,72.72 65.76,72.44 65.62,72.16 65.48,71.87 65.53,71.54 65.5,71.23 65.44,70.61 65.4,69.98 65.39,69.35 L 65.49,69.32 Z M 65.49,69.32" />
            </g>
            <g id="kazAveSide06-group358">
                <path id="kazAveSide06-bezier481" stroke="none" fill="rgb(0, 0, 0)" d="M 54.65,121.75 C 54.65,122.28 54.52,122.74 54.36,123.2 54.19,123.65 53.99,124.08 53.69,124.5 53.64,124.24 53.67,123.99 53.71,123.74 53.74,123.49 53.81,123.26 53.89,123.03 54.07,122.57 54.29,122.13 54.65,121.75 Z M 54.65,121.75" />
            </g>
            <g id="kazAveSide06-group359">
                <path id="kazAveSide06-bezier482" stroke="none" fill="rgb(0, 0, 0)" d="M 58.5,112.99 C 58.15,114.19 57.67,115.34 57.18,116.47 56.66,117.6 56.12,118.71 55.46,119.78 55.76,118.56 56.22,117.4 56.72,116.27 57.24,115.14 57.8,114.03 58.5,112.99 Z M 58.5,112.99" />
            </g>
            <g id="kazAveSide06-group360">
                <path id="kazAveSide06-bezier483" stroke="none" fill="rgb(0, 0, 0)" d="M 62.53,104.83 C 62.43,105.52 62.19,106.15 61.92,106.76 61.62,107.37 61.3,107.96 60.83,108.47 60.94,107.78 61.19,107.16 61.46,106.55 61.75,105.95 62.07,105.36 62.53,104.83 Z M 62.53,104.83" />
            </g>
            <g id="kazAveSide06-group361">
                <path id="kazAveSide06-bezier484" stroke="none" fill="rgb(0, 0, 0)" d="M 51.48,127.45 C 51.46,127.73 51.43,128 51.4,128.27 51.39,128.4 51.4,128.55 51.34,128.66 51.26,128.78 51.2,128.89 51.05,129 L 51,129 C 50.87,128.84 50.87,128.69 50.85,128.54 50.86,128.39 50.95,128.28 51.01,128.15 51.14,127.9 51.28,127.66 51.43,127.43 L 51.48,127.45 Z M 51.48,127.45" />
            </g>
            <g id="kazAveSide06-group362">
                <path id="kazAveSide06-bezier485" stroke="none" fill="rgb(0, 0, 0)" d="M 46.59,126.09 C 46.54,126.45 46.48,126.82 46.39,127.17 46.35,127.36 46.34,127.55 46.24,127.71 46.12,127.86 46.01,128.03 45.8,128.12 L 45.75,128.09 C 45.72,127.87 45.75,127.7 45.78,127.52 45.81,127.34 45.93,127.2 46.02,127.04 46.18,126.71 46.36,126.39 46.54,126.07 L 46.59,126.09 Z M 46.59,126.09" />
            </g>
            <g id="kazAveSide06-group363">
                <path id="kazAveSide06-bezier486" stroke="none" fill="rgb(0, 0, 0)" d="M 63.86,47.52 C 63.55,47.89 63.25,48.24 62.97,48.59 62.82,48.76 62.76,48.99 62.58,49.08 62.5,49.12 62.41,49.17 62.32,49.19 62.23,49.23 62.11,49.2 62,49.33 L 61.91,49.37 C 61.72,49.28 61.67,49.01 61.7,48.86 61.71,48.68 61.77,48.54 61.83,48.41 61.97,48.16 62.24,48.09 62.46,47.97 62.89,47.73 63.34,47.56 63.8,47.43 L 63.86,47.52 Z M 63.86,47.52" />
            </g>
            <g id="kazAveSide06-group364">
                <path id="kazAveSide06-bezier487" stroke="none" fill="rgb(0, 0, 0)" d="M 110.35,16.12 C 109.89,17.3 108.98,18.31 107.82,18.88 106.65,19.46 105.28,19.54 104.03,19.34 101.59,18.96 99.09,19.28 96.75,20.02 94.4,20.78 92.23,21.98 90.16,23.29 89.11,23.94 88.12,24.67 87.17,25.46 86.69,25.85 86.23,26.26 85.81,26.71 85.37,27.14 84.96,27.61 84.66,28.15 L 84.57,28.12 C 84.96,26.87 85.83,25.88 86.69,24.95 87.58,24.02 88.57,23.22 89.6,22.46 91.68,20.98 94.06,19.93 96.52,19.25 98.98,18.58 101.6,18.35 104.11,18.84 105.31,19.1 106.56,19.09 107.69,18.61 108.81,18.14 109.75,17.21 110.26,16.08 L 110.35,16.12 Z M 110.35,16.12" />
            </g>
            <g id="kazAveSide06-group365">
                <path id="kazAveSide06-bezier488" stroke="none" fill="rgb(0, 0, 0)" d="M 110.77,11.47 C 107.94,9.48 104.25,9.16 100.96,9.88 97.61,10.55 94.75,12.59 92.27,14.9 89.77,17.23 87.62,19.93 85.09,22.32 83.81,23.49 82.48,24.65 80.94,25.54 79.42,26.42 77.66,27.01 75.91,26.88 L 75.9,26.78 C 77.62,26.62 79.19,25.9 80.57,24.95 81.95,23.99 83.21,22.83 84.39,21.61 86.78,19.17 89.11,16.6 91.73,14.31 94.32,12.02 97.37,9.98 100.87,9.39 104.28,8.77 108.05,9.26 110.83,11.4 L 110.77,11.47 Z M 110.77,11.47" />
            </g>
            <g id="kazAveSide06-group366">
                <path id="kazAveSide06-bezier489" stroke="none" fill="rgb(0, 0, 0)" d="M 100.39,25.07 C 99.76,24.68 99.11,24.32 98.46,23.96 98.37,23.91 98.31,23.87 98.22,23.84 98.18,23.83 98.12,23.82 98.07,23.84 97.96,23.88 97.83,23.99 97.72,24.12 97.51,24.39 97.32,24.71 97.14,25.03 96.43,26.31 95.73,27.65 94.79,28.87 93.88,30.08 92.75,31.24 91.3,31.88 89.87,32.53 88.25,32.72 86.76,32.4 L 86.76,32.3 C 88.25,32.06 89.63,31.68 90.86,30.99 92.08,30.31 93.22,29.45 94.17,28.36 95.14,27.27 95.9,26.02 96.72,24.76 96.93,24.45 97.15,24.14 97.43,23.85 97.57,23.71 97.73,23.56 97.98,23.5 98.11,23.47 98.25,23.49 98.37,23.55 98.45,23.59 98.55,23.66 98.62,23.7 99.23,24.12 99.85,24.54 100.45,24.98 L 100.39,25.07 Z M 100.39,25.07" />
            </g>
        </g>
        <path id="kazAveSide06-bezier490" stroke="rgb(0, 0, 0)" stroke-width="2" stroke-miterlimit="10" fill="none" d="M 71.35,129 L 85.3,119.08" />
    </g>
</svg>
