<?xml version="1.0" encoding="UTF-8"?>
<!DOCTYPE svg PUBLIC "-//W3C//DTD SVG 1.1//EN" "http://www.w3.org/Graphics/SVG/1.1/DTD/svg11.dtd">
<svg version="1.1" xmlns="http://www.w3.org/2000/svg" xmlns:xlink="http://www.w3.org/1999/xlink" width="160" height="60"  xml:space="preserve" id="kazAveTop01">
    <!-- Generated by PaintCode - http://www.paintcodeapp.com -->
    <g id="kazAveTop01-group">
        <path id="kazAveTop01-bezier1288" stroke="rgb(0, 0, 0)" stroke-width="2" stroke-miterlimit="10" fill="none" d="M 111.99,30.63 L 156.86,30.63" />
        <path id="kazAveTop01-bezier1289" stroke="rgb(0, 0, 0)" stroke-width="2" stroke-miterlimit="10" fill="none" d="M 3.47,30.63 L 33.49,30.63" />
        <path id="kazAveTop01-bezier1290" stroke="rgb(0, 0, 0)" stroke-width="2" stroke-miterlimit="10" fill="none" d="M 106.79,18.62 L 106.79,21.5" />
        <path id="kazAveTop01-bezier1291" stroke="rgb(0, 0, 0)" stroke-width="2" stroke-miterlimit="10" fill="none" d="M 121.67,13.62 L 128.04,13.62" />
        <path id="kazAveTop01-bezier1292" stroke="rgb(0, 0, 0)" stroke-width="2" stroke-miterlimit="10" fill="none" d="M 106.79,41.61 L 106.79,39.75" />
        <path id="kazAveTop01-bezier1293" stroke="rgb(0, 0, 0)" stroke-width="2" stroke-miterlimit="10" fill="none" d="M 121.67,46.64 L 128.04,46.64" />
        <path id="kazAveTop01-bezier1294" stroke="rgb(0, 0, 0)" stroke-width="2" stroke-miterlimit="10" fill="none" d="M 36.57,26.12 C 36.57,26.12 35.3,27.44 35.3,30.63 35.3,33.81 36.57,34.75 36.57,34.75" />
        <path id="kazAveTop01-bezier1295" stroke="rgb(0, 0, 0)" stroke-width="2" stroke-miterlimit="10" fill="none" d="M 126.16,28.21 L 111.65,28.21" />
        <path id="kazAveTop01-bezier1296" stroke="rgb(0, 0, 0)" stroke-width="2" stroke-miterlimit="10" fill="none" d="M 126.16,33.07 L 111.65,33.07" />
        <path id="kazAveTop01-bezier1297" stroke="rgb(0, 0, 0)" stroke-width="2" stroke-miterlimit="10" fill="none" d="M 33.95,28.21 L 32.24,28.21" />
        <path id="kazAveTop01-bezier1298" stroke="rgb(0, 0, 0)" stroke-width="2" stroke-miterlimit="10" fill="none" d="M 33.95,33.07 L 32.24,33.07" />
        <g id="kazAveTop01-group972">
            <g id="kazAveTop01-group973">
                <path id="kazAveTop01-bezier1299" stroke="none" fill="rgb(0, 0, 0)" d="M 101.71,40.38 C 100.19,40.54 98.65,40.61 97.1,40.5 95.56,40.36 93.99,40.12 92.55,39.32 92.2,39.14 91.81,38.79 91.62,38.74 91.38,38.65 91.27,38.69 91.07,38.87 90.69,39.26 90.4,39.97 90.16,40.65 89.66,42.03 89.31,43.52 88.87,45 L 88.77,44.99 C 88.67,43.44 88.8,41.88 89.21,40.35 89.45,39.59 89.68,38.8 90.43,38.12 90.62,37.96 90.88,37.81 91.18,37.78 91.48,37.73 91.78,37.81 92,37.92 92.51,38.21 92.64,38.44 92.97,38.64 94.17,39.41 95.67,39.78 97.16,40 98.65,40.24 100.18,40.31 101.71,40.28 L 101.71,40.38 Z M 101.71,40.38" />
            </g>
            <g id="kazAveTop01-group974">
                <path id="kazAveTop01-bezier1300" stroke="none" fill="rgb(0, 0, 0)" d="M 97.36,21.79 C 98.62,21.71 99.88,21.72 101.14,21.7 102.41,21.7 103.69,21.91 104.91,22.35 107.32,23.21 109.48,25.01 110.54,27.45 111.08,28.65 111.32,30 111.24,31.33 111.15,32.68 110.69,33.98 109.97,35.1 108.48,37.31 106.05,38.78 103.52,39.1 L 103.5,39 C 105.84,38.13 107.93,36.63 109.12,34.57 110.34,32.55 110.68,30 109.81,27.75 108.93,25.51 107,23.73 104.73,22.81 102.46,21.8 99.86,21.96 97.37,21.89 L 97.36,21.79 Z M 97.36,21.79" />
            </g>
            <g id="kazAveTop01-group975">
                <path id="kazAveTop01-bezier1301" stroke="none" fill="rgb(0, 0, 0)" d="M 85.85,14.76 C 86.88,14.58 88.09,14.46 89.07,15.15 90.03,15.83 90.47,16.97 90.73,18.02 90.86,18.58 90.95,19.08 91.11,19.55 91.28,20.03 91.5,20.49 91.79,20.87 92.35,21.65 93.29,22.1 94.1,22.14 L 94,22.15 C 94.98,21.92 95.89,22.17 96.69,22.41 97.5,22.67 98.26,22.95 99.09,23.02 L 99.1,23.12 C 98.26,23.38 97.35,23.23 96.53,23.15 95.71,23.03 94.92,22.96 94.25,23.14 L 94.2,23.15 94.15,23.15 C 92.8,23.18 91.7,22.36 91.08,21.36 90.45,20.37 90.25,19.17 90.12,18.16 89.93,17.15 89.6,16.12 88.83,15.46 88.06,14.79 86.92,14.76 85.87,14.86 L 85.85,14.76 Z M 85.85,14.76" />
            </g>
            <g id="kazAveTop01-group976">
                <path id="kazAveTop01-bezier1302" stroke="none" fill="rgb(0, 0, 0)" d="M 118.34,10.99 C 117.53,11.18 116.72,11.33 115.9,11.45 115.48,11.5 115.07,11.54 114.63,11.53 114.14,11.5 113.83,11.42 113.41,11.44 112.6,11.45 111.8,11.59 111.01,11.65 110.21,11.73 109.41,11.78 108.63,12.05 L 108.59,11.99 C 109.2,11.34 110.08,11.09 110.9,10.91 111.73,10.74 112.59,10.77 113.43,10.84 113.84,10.85 114.33,10.99 114.66,11.04 115.05,11.09 115.46,11.09 115.87,11.07 116.68,11.06 117.51,11 118.33,10.92 L 118.34,10.99 Z M 118.34,10.99" />
            </g>
            <g id="kazAveTop01-group977">
                <path id="kazAveTop01-bezier1303" stroke="none" fill="rgb(0, 0, 0)" d="M 107.45,17.76 C 108.37,17.62 109.29,17.46 110.2,17.27 111.11,17.1 112.03,16.91 112.87,16.62 113.25,16.48 113.67,16.19 114.1,16 114.53,15.8 114.97,15.63 115.42,15.48 115.87,15.34 116.32,15.21 116.79,15.13 117.26,15.06 117.73,14.94 118.24,15.06 L 118.22,15.13 C 117.37,15.39 116.53,15.85 115.68,16.18 115.25,16.36 114.82,16.53 114.39,16.69 113.96,16.82 113.57,17.05 113.06,17.19 112.12,17.43 111.19,17.54 110.26,17.64 109.32,17.73 108.39,17.79 107.46,17.84 L 107.45,17.76 Z M 107.45,17.76" />
            </g>
            <g id="kazAveTop01-group978">
                <path id="kazAveTop01-bezier1304" stroke="none" fill="rgb(0, 0, 0)" d="M 110.28,12.24 C 109.38,12.44 108.42,12.28 107.54,12.05 106.71,11.9 105.79,12.02 104.91,12.13 104.02,12.26 103.14,12.48 102.25,12.59 101.35,12.7 100.45,12.81 99.52,12.81 L 99.5,12.74 C 100.34,12.33 101.22,12.07 102.12,11.86 103.01,11.65 103.93,11.59 104.85,11.54 105.77,11.5 106.69,11.43 107.65,11.69 108.49,12.02 109.37,12.26 110.27,12.17 L 110.28,12.24 Z M 110.28,12.24" />
            </g>
            <g id="kazAveTop01-group979">
                <path id="kazAveTop01-bezier1305" stroke="none" fill="rgb(0, 0, 0)" d="M 100.27,20 C 100.28,18.64 99.91,17.31 99.43,16.06 98.95,14.8 98.33,13.58 97.62,12.46 L 98.09,12.62 96.14,13.46 C 95.5,13.74 94.84,14 94.17,14.24 93.5,14.47 92.84,14.7 92.15,14.9 91.47,15.1 90.79,15.3 90.08,15.45 L 90.04,15.36 C 90.63,14.94 91.25,14.59 91.88,14.24 92.51,13.9 93.15,13.59 93.8,13.3 94.45,13.02 95.12,12.76 95.79,12.54 L 97.83,11.88 98.15,11.78 98.3,12.05 C 98.96,13.29 99.49,14.57 99.89,15.9 100.27,17.23 100.51,18.63 100.37,20 L 100.27,20 Z M 100.27,20" />
            </g>
            <g id="kazAveTop01-group980">
                <path id="kazAveTop01-bezier1306" stroke="none" fill="rgb(0, 0, 0)" d="M 101.42,20 C 102.22,19.52 103.03,19.06 103.84,18.6 104.24,18.37 104.61,18.09 105.05,17.93 105.48,17.76 105.92,17.64 106.41,17.56 L 106.46,17.63 C 106.17,18.06 105.77,18.34 105.38,18.6 104.99,18.85 104.53,18.98 104.09,19.14 103.22,19.48 102.35,19.79 101.45,20.07 L 101.42,20 Z M 101.42,20" />
            </g>
            <g id="kazAveTop01-group981">
                <path id="kazAveTop01-bezier1307" stroke="none" fill="rgb(0, 0, 0)" d="M 37.56,30.63 C 37.48,28.89 37.48,27.16 37.57,25.42 37.69,23.68 37.81,21.93 38.48,20.23 38.66,19.82 38.9,19.37 39.31,19.05 39.66,18.77 40.12,18.53 40.54,18.38 41.41,18.07 42.31,17.96 43.2,17.92 44.99,17.86 46.74,18.06 48.49,18.45 L 48.88,18.53 48.87,18.96 C 48.83,20.91 48.7,22.85 48.57,24.8 48.51,25.77 48.41,26.74 48.33,27.71 48.25,28.68 48.14,29.66 48.04,30.63 L 47.94,30.63 C 47.85,29.65 47.8,28.67 47.78,27.7 47.76,26.72 47.72,25.74 47.74,24.77 47.73,22.82 47.75,20.87 47.85,18.92 L 48.24,19.43 C 46.61,19.03 44.9,18.73 43.22,18.72 42.38,18.73 41.54,18.8 40.77,19.05 40.37,19.18 40.05,19.33 39.71,19.58 39.42,19.78 39.21,20.11 39.03,20.48 38.37,21.99 38.15,23.75 37.94,25.45 37.76,27.16 37.67,28.89 37.66,30.63 L 37.56,30.63 Z M 37.56,30.63" />
            </g>
            <g id="kazAveTop01-group982">
                <path id="kazAveTop01-bezier1308" stroke="none" fill="rgb(0, 0, 0)" d="M 124.14,12.26 C 123.94,11.77 123.69,11.29 123.38,10.87 123.1,10.42 122.72,10.15 122.26,10.03 121.84,9.92 121.34,10.08 120.82,10.1 120.29,10.13 119.75,10.14 119.18,10.03 L 119.17,9.96 C 119.66,9.67 120.17,9.49 120.71,9.36 121.23,9.25 121.85,9.21 122.46,9.46 122.75,9.6 122.97,9.73 123.21,9.96 123.43,10.18 123.58,10.43 123.71,10.68 123.94,11.19 124.1,11.71 124.21,12.24 L 124.14,12.26 Z M 124.14,12.26" />
            </g>
            <g id="kazAveTop01-group983">
                <path id="kazAveTop01-bezier1309" stroke="none" fill="rgb(0, 0, 0)" d="M 119.19,15.15 C 119.65,15.29 120.12,15.38 120.55,15.38 120.77,15.38 120.96,15.3 121.15,15.32 L 121.84,15.4 121.88,15.46 C 121.8,15.77 121.53,15.97 121.26,16.06 120.98,16.15 120.7,16.05 120.45,15.97 119.94,15.82 119.52,15.55 119.15,15.22 L 119.19,15.15 Z M 119.19,15.15" />
            </g>
            <g id="kazAveTop01-group984">
                <path id="kazAveTop01-bezier1310" stroke="none" fill="rgb(0, 0, 0)" d="M 118.33,49.33 C 117.51,49.25 116.68,49.19 115.87,49.18 115.46,49.17 115.05,49.16 114.66,49.21 114.33,49.26 113.84,49.4 113.43,49.41 112.59,49.48 111.74,49.51 110.9,49.34 110.09,49.16 109.2,48.91 108.59,48.26 L 108.64,48.2 C 109.42,48.47 110.21,48.52 111.01,48.6 111.8,48.66 112.61,48.8 113.41,48.81 113.83,48.83 114.14,48.75 114.63,48.72 115.07,48.71 115.48,48.75 115.9,48.8 116.72,48.92 117.54,49.08 118.34,49.26 L 118.33,49.33 Z M 118.33,49.33" />
            </g>
            <g id="kazAveTop01-group985">
                <path id="kazAveTop01-bezier1311" stroke="none" fill="rgb(0, 0, 0)" d="M 107.46,42.41 C 108.39,42.46 109.32,42.52 110.26,42.61 111.19,42.72 112.12,42.82 113.06,43.07 113.57,43.21 113.95,43.43 114.39,43.57 114.82,43.72 115.25,43.89 115.68,44.07 116.53,44.41 117.37,44.86 118.22,45.12 L 118.24,45.19 C 117.73,45.32 117.26,45.19 116.79,45.12 116.32,45.04 115.87,44.91 115.42,44.77 114.97,44.62 114.53,44.46 114.1,44.25 113.67,44.06 113.25,43.78 112.87,43.64 112.03,43.34 111.11,43.16 110.2,42.98 109.29,42.79 108.37,42.63 107.45,42.49 L 107.46,42.41 Z M 107.46,42.41" />
            </g>
            <g id="kazAveTop01-group986">
                <path id="kazAveTop01-bezier1312" stroke="none" fill="rgb(0, 0, 0)" d="M 110.26,48.08 C 109.35,47.77 108.36,47.63 107.44,47.79 107.2,47.83 107,47.9 106.76,47.98 106.51,48.06 106.25,48.11 106,48.14 105.5,48.2 105,48.21 104.5,48.2 103.51,48.19 102.52,48.15 101.55,47.95 100.59,47.74 99.64,47.48 98.73,47.07 L 98.75,46.99 C 99.74,47.01 100.71,47.11 101.67,47.21 102.63,47.31 103.58,47.51 104.54,47.6 105.01,47.64 105.49,47.67 105.96,47.65 106.2,47.64 106.42,47.62 106.64,47.57 106.87,47.51 107.14,47.44 107.39,47.42 108.41,47.35 109.4,47.61 110.29,48.01 L 110.26,48.08 Z M 110.26,48.08" />
            </g>
            <g id="kazAveTop01-group987">
                <path id="kazAveTop01-bezier1313" stroke="none" fill="rgb(0, 0, 0)" d="M 100.3,41.26 C 100.2,42.31 99.84,43.33 99.36,44.28 98.88,45.24 98.27,46.11 97.55,46.93 L 97.45,47.05 97.25,47.04 C 96.58,46.98 95.93,46.9 95.27,46.82 94.61,46.74 93.95,46.64 93.31,46.47 92.03,46.11 90.77,45.63 89.64,44.88 L 89.68,44.79 C 91.01,44.96 92.27,45.22 93.54,45.47 94.81,45.74 96.06,46.11 97.34,46.31 L 97.04,46.42 C 97.76,45.73 98.41,44.91 98.97,44.06 99.53,43.2 99.98,42.26 100.2,41.25 L 100.3,41.26 Z M 100.3,41.26" />
            </g>
            <g id="kazAveTop01-group988">
                <path id="kazAveTop01-bezier1314" stroke="none" fill="rgb(0, 0, 0)" d="M 101.45,40.18 C 102.34,40.46 103.22,40.77 104.09,41.11 104.53,41.27 104.99,41.4 105.38,41.65 105.78,41.91 106.17,42.2 106.46,42.62 L 106.41,42.69 C 105.92,42.62 105.48,42.49 105.05,42.32 104.61,42.16 104.24,41.89 103.84,41.65 103.03,41.19 102.22,40.73 101.42,40.25 L 101.45,40.18 Z M 101.45,40.18" />
            </g>
            <g id="kazAveTop01-group989">
                <path id="kazAveTop01-bezier1315" stroke="none" fill="rgb(0, 0, 0)" d="M 37.66,30.63 C 37.62,32.36 37.67,34.08 37.81,35.8 37.98,37.49 38.17,39.26 38.86,40.74 39.04,41.1 39.28,41.42 39.57,41.57 39.93,41.76 40.29,41.86 40.7,41.96 41.51,42.14 42.36,42.2 43.2,42.21 44.9,42.23 46.62,42.05 48.29,41.81 L 47.85,42.33 C 47.74,40.39 47.73,38.44 47.73,36.49 47.72,35.51 47.76,34.53 47.78,33.56 47.8,32.58 47.85,31.6 47.94,30.63 L 48.04,30.63 C 48.14,31.6 48.25,32.57 48.33,33.54 48.41,34.51 48.51,35.48 48.57,36.46 48.7,38.4 48.83,40.35 48.87,42.3 L 48.88,42.77 48.43,42.82 C 46.68,43.03 44.94,43.1 43.18,43.01 42.3,42.96 41.41,42.87 40.54,42.65 40.11,42.54 39.64,42.38 39.24,42.15 38.77,41.86 38.51,41.42 38.31,41.01 37.6,39.31 37.52,37.55 37.44,35.82 37.38,34.09 37.43,32.35 37.56,30.62 L 37.66,30.63 Z M 37.66,30.63" />
            </g>
            <g id="kazAveTop01-group990">
                <path id="kazAveTop01-bezier1316" stroke="none" fill="rgb(0, 0, 0)" d="M 120.96,45.39 C 120.98,46.03 121.02,46.68 121.15,47.27 121.22,47.57 121.35,47.83 121.42,48.05 121.49,48.27 121.51,48.45 121.86,48.64 L 121.87,48.71 C 121.56,49 120.94,48.77 120.75,48.4 120.52,48.05 120.54,47.67 120.55,47.33 120.56,46.65 120.69,46 120.89,45.38 L 120.96,45.39 Z M 120.96,45.39" />
            </g>
            <g id="kazAveTop01-group991">
                <path id="kazAveTop01-bezier1317" stroke="none" fill="rgb(0, 0, 0)" d="M 124.21,48.01 C 124.1,48.54 123.95,49.07 123.71,49.57 123.58,49.82 123.43,50.07 123.22,50.29 122.97,50.52 122.75,50.66 122.46,50.79 121.85,51.04 121.23,51.01 120.71,50.89 120.17,50.76 119.66,50.59 119.17,50.29 L 119.18,50.22 C 119.74,50.11 120.29,50.13 120.82,50.15 121.34,50.17 121.84,50.33 122.26,50.22 122.72,50.1 123.1,49.83 123.38,49.38 123.69,48.96 123.94,48.48 124.14,47.99 L 124.21,48.01 Z M 124.21,48.01" />
            </g>
            <g id="kazAveTop01-group992">
                <path id="kazAveTop01-bezier1318" stroke="none" fill="rgb(0, 0, 0)" d="M 119.15,45.04 C 119.52,44.7 119.94,44.43 120.45,44.28 120.69,44.2 120.98,44.1 121.26,44.19 121.53,44.28 121.8,44.48 121.88,44.79 L 121.84,44.85 121.15,44.93 C 120.96,44.95 120.77,44.88 120.55,44.87 120.12,44.88 119.65,44.96 119.19,45.1 L 119.15,45.04 Z M 119.15,45.04" />
            </g>
            <g id="kazAveTop01-group993">
                <path id="kazAveTop01-bezier1319" stroke="none" fill="rgb(0, 0, 0)" d="M 106.47,35.7 C 105.76,36.55 104.73,37.05 103.71,37.44 102.68,37.83 101.6,38.07 100.5,38.2 98.31,38.44 96.05,38.19 93.94,37.47 92.87,37.09 91.93,36.66 90.9,36.47 89.89,36.27 88.87,36.24 87.98,36.55 87.08,36.85 86.32,37.53 85.78,38.42 85.19,39.28 84.85,40.31 84.28,41.28 L 84.19,41.23 C 84.46,40.19 84.64,39.1 85.13,38.06 85.62,37.04 86.45,36.04 87.62,35.6 88.78,35.15 90.03,35.26 91.12,35.56 92.22,35.83 93.24,36.39 94.2,36.77 96.17,37.53 98.33,37.86 100.46,37.73 101.53,37.67 102.59,37.49 103.62,37.18 104.63,36.85 105.66,36.42 106.4,35.63 L 106.47,35.7 Z M 106.47,35.7" />
            </g>
            <g id="kazAveTop01-group994">
                <path id="kazAveTop01-bezier1320" stroke="none" fill="rgb(0, 0, 0)" d="M 85.29,19.74 C 85.8,21.7 86.51,23.65 87.6,25.33 88.14,26.15 88.82,26.92 89.66,27.29 90.08,27.48 90.52,27.54 90.97,27.49 91.39,27.43 91.91,27.26 92.37,27.1 94.26,26.47 96.09,25.5 98.2,25.1 99.24,24.91 100.37,24.87 101.42,25.21 102.47,25.53 103.36,26.21 103.97,27.04 L 103.9,27.11 C 103.1,26.48 102.2,26.01 101.26,25.86 100.31,25.71 99.35,25.81 98.4,26.05 96.51,26.54 94.63,27.36 92.61,27.91 92.09,28.04 91.63,28.18 91.04,28.25 90.46,28.29 89.87,28.17 89.37,27.91 88.35,27.38 87.68,26.49 87.15,25.6 86.13,23.77 85.57,21.76 85.19,19.75 L 85.29,19.74 Z M 85.29,19.74" />
            </g>
            <g id="kazAveTop01-group995">
                <path id="kazAveTop01-bezier1321" stroke="none" fill="rgb(0, 0, 0)" d="M 96.26,33.18 C 94.94,32.85 93.59,32.66 92.24,32.58 90.88,32.47 89.53,32.47 88.19,32.6 86.85,32.72 85.55,33.03 84.27,33.33 82.98,33.63 81.74,34.07 80.49,34.66 L 80.42,34.58 C 81.36,33.53 82.66,32.83 83.99,32.37 85.33,31.91 86.76,31.82 88.15,31.8 90.93,31.75 93.7,32.17 96.29,33.09 L 96.26,33.18 Z M 96.26,33.18" />
            </g>
            <g id="kazAveTop01-group996">
                <path id="kazAveTop01-bezier1322" stroke="none" fill="rgb(0, 0, 0)" d="M 85.18,15.8 C 82.67,15.94 80.18,16.2 77.71,16.57 75.23,16.93 72.8,17.45 70.36,18.1 67.91,18.67 65.4,19.03 62.88,19.18 60.35,19.32 57.83,19.29 55.28,18.94 L 55.8,18.41 C 56.18,20.33 56.52,22.25 56.79,24.19 57.03,26.14 57.3,28.07 57.19,30.11 56.95,32.14 56.43,33.98 56,35.88 55.78,36.83 55.6,37.78 55.45,38.73 55.32,39.68 55.22,40.65 55.41,41.6 L 55.31,41.63 C 54.99,40.68 55,39.67 55.04,38.69 55.09,37.71 55.23,36.73 55.37,35.77 55.64,33.84 56.13,31.9 56.26,30.05 56.27,28.19 56.01,26.24 55.77,24.33 55.52,22.41 55.23,20.49 54.92,18.58 L 54.81,17.95 55.44,18.06 C 57.84,18.47 60.37,18.57 62.84,18.48 65.33,18.4 67.81,18.1 70.25,17.59 72.68,17.02 75.17,16.56 77.66,16.26 80.16,15.96 82.66,15.77 85.17,15.7 L 85.18,15.8 Z M 85.18,15.8" />
            </g>
            <g id="kazAveTop01-group997">
                <path id="kazAveTop01-bezier1323" stroke="none" fill="rgb(0, 0, 0)" d="M 55.35,42.21 C 57.87,41.67 60.44,41.37 63.03,41.26 65.61,41.19 68.23,41.33 70.78,41.9 72.08,42.2 73.27,42.6 74.52,42.84 75.77,43.11 77.01,43.35 78.27,43.58 80.78,44.07 83.31,44.41 85.86,44.82 L 85.86,44.92 C 83.27,45.08 80.68,44.88 78.11,44.56 76.83,44.38 75.55,44.14 74.29,43.8 73.03,43.5 71.79,43.02 70.59,42.68 68.15,42.04 65.59,41.79 63.03,41.77 60.48,41.73 57.91,41.9 55.37,42.3 L 55.35,42.21 Z M 55.35,42.21" />
            </g>
            <g id="kazAveTop01-group998">
                <path id="kazAveTop01-bezier1324" stroke="none" fill="rgb(0, 0, 0)" d="M 49.18,42.21 C 49.98,41.73 50.9,41.46 51.84,41.34 52.3,41.28 52.79,41.2 53.26,41.3 53.72,41.4 54.18,41.57 54.58,41.87 L 54.56,41.95 C 54.07,42.04 53.62,42.04 53.18,42.05 52.74,42.05 52.31,41.96 51.87,41.94 50.99,41.93 50.08,42.01 49.21,42.28 L 49.18,42.21 Z M 49.18,42.21" />
            </g>
            <g id="kazAveTop01-group999">
                <path id="kazAveTop01-bezier1325" stroke="none" fill="rgb(0, 0, 0)" d="M 49.53,19 L 52.05,18.85 C 52.47,18.81 52.88,18.72 53.3,18.76 53.71,18.8 54.12,18.85 54.56,19 L 54.57,19.07 C 54.18,19.33 53.75,19.44 53.32,19.51 52.9,19.57 52.47,19.49 52.05,19.44 51.2,19.37 50.36,19.24 49.53,19.07 L 49.53,19 Z M 49.53,19" />
            </g>
            <g id="kazAveTop01-group1000">
                <path id="kazAveTop01-bezier1326" stroke="none" fill="rgb(0, 0, 0)" d="M 50.18,27.78 C 50.51,27.93 50.86,27.96 51.17,27.95 51.34,27.93 51.49,27.86 51.65,27.9 51.81,27.94 51.97,28 52.19,28.17 L 52.2,28.24 C 52.07,28.48 51.88,28.59 51.68,28.65 51.47,28.71 51.27,28.61 51.07,28.54 50.69,28.4 50.33,28.17 50.13,27.83 L 50.18,27.78 Z M 50.18,27.78" />
            </g>
            <g id="kazAveTop01-group1001">
                <path id="kazAveTop01-bezier1327" stroke="none" fill="rgb(0, 0, 0)" d="M 49.88,33.46 C 50.18,33.16 50.52,32.9 50.9,32.69 51.09,32.57 51.28,32.43 51.53,32.43 51.76,32.44 52.07,32.51 52.21,32.79 L 52.18,32.86 C 51.94,32.99 51.82,33.1 51.65,33.17 51.5,33.25 51.3,33.22 51.11,33.25 50.73,33.32 50.33,33.42 49.92,33.53 L 49.88,33.46 Z M 49.88,33.46" />
            </g>
            <g id="kazAveTop01-group1002">
                <path id="kazAveTop01-bezier1328" stroke="none" fill="rgb(0, 0, 0)" d="M 120.89,14.88 C 120.69,14.25 120.56,13.61 120.55,12.92 120.54,12.59 120.52,12.2 120.75,11.85 120.94,11.48 121.56,11.25 121.87,11.54 L 121.86,11.62 C 121.51,11.8 121.49,11.98 121.41,12.2 121.35,12.42 121.21,12.68 121.14,12.98 121.02,13.58 120.98,14.22 120.96,14.87 L 120.89,14.88 Z M 120.89,14.88" />
            </g>
        </g>
    </g>
</svg>
