<?xml version="1.0" encoding="UTF-8"?>
<!DOCTYPE svg PUBLIC "-//W3C//DTD SVG 1.1//EN" "http://www.w3.org/Graphics/SVG/1.1/DTD/svg11.dtd">
<svg version="1.1" xmlns="http://www.w3.org/2000/svg" xmlns:xlink="http://www.w3.org/1999/xlink" width="160" height="160"  xml:space="preserve" id="kazAveSide02">
    <!-- Generated by PaintCode - http://www.paintcodeapp.com -->
    <g id="kazAveSide02-group">
        <circle id="kazAveSide02-oval23" stroke="rgb(0, 0, 0)" stroke-width="2" stroke-miterlimit="10" fill="none" cx="126.88" cy="122" r="29" />
        <circle id="kazAveSide02-oval24" stroke="rgb(0, 0, 0)" stroke-width="2" stroke-miterlimit="10" fill="none" cx="33.22" cy="122" r="29" />
        <circle id="kazAveSide02-oval25" stroke="rgb(0, 0, 0)" stroke-width="2" stroke-miterlimit="10" fill="none" cx="71.72" cy="129" r="8.33" />
        <circle id="kazAveSide02-oval26" stroke="rgb(0, 0, 0)" stroke-width="2" stroke-miterlimit="10" fill="none" cx="33.22" cy="122" r="2.5" />
        <path id="kazAveSide02-bezier379" stroke="rgb(0, 0, 0)" stroke-width="2" stroke-miterlimit="10" fill="none" d="M 78.25,74.83 L 55.55,74.83 33.22,122 71.72,129" />
        <path id="kazAveSide02-bezier380" stroke="rgb(0, 0, 0)" stroke-width="2" stroke-miterlimit="10" fill="none" d="M 105.55,74.83 L 91.17,74.83" />
        <path id="kazAveSide02-bezier381" stroke="rgb(0, 0, 0)" stroke-width="2" stroke-miterlimit="10" fill="none" d="M 111.64,75.34 L 126.88,122" />
        <path id="kazAveSide02-bezier382" stroke="rgb(0, 0, 0)" stroke-width="2" stroke-miterlimit="10" fill="none" d="M 79.8,118.44 L 77.53,120.67" />
        <path id="kazAveSide02-bezier383" stroke="rgb(0, 0, 0)" stroke-width="2" stroke-miterlimit="10" fill="none" d="M 114.55,84.23 L 85.67,112.65" />
        <path id="kazAveSide02-bezier384" stroke="rgb(0, 0, 0)" stroke-width="2" stroke-miterlimit="10" fill="none" d="M 68.82,119.55 L 53.72,65.83" />
        <path id="kazAveSide02-bezier385" stroke="rgb(0, 0, 0)" stroke-width="2" stroke-miterlimit="10" fill="none" d="M 49.78,64.49 C 46.05,64.92 42.43,64.98 41.22,63.83 38.38,61.17 34.88,59.5 41.22,59.5" />
        <path id="kazAveSide02-bezier386" stroke="rgb(0, 0, 0)" stroke-width="1" stroke-miterlimit="10" fill="none" d="M 66.65,120.67 L 37.28,120.67" />
        <path id="kazAveSide02-bezier387" stroke="rgb(0, 0, 0)" stroke-width="1" stroke-miterlimit="10" fill="none" d="M 35.22,125.5 L 63.38,135.04" />
        <path id="kazAveSide02-bezier388" stroke="rgb(0, 0, 0)" stroke-width="2" stroke-miterlimit="10" fill="none" d="M 124.97,79.79 C 124.97,79.79 129.13,78.75 129.13,73.25 129.13,67.75 125.3,64.33 118.47,64.33 111.64,64.33 110.01,64.33 110.01,64.33" />
        <path id="kazAveSide02-bezier389" stroke="rgb(0, 0, 0)" stroke-width="2" stroke-miterlimit="10" fill="none" d="M 81.49,119.08 L 89.32,119.08" />
        <g id="kazAveSide02-group277">
            <g id="kazAveSide02-group278">
                <path id="kazAveSide02-bezier390" stroke="none" fill="rgb(0, 0, 0)" d="M 121.39,77.68 C 121.96,78.53 122.54,79.37 123.13,80.18 123.44,80.59 123.81,80.93 124.05,81.35 124.31,81.76 124.47,82.19 124.82,82.56 L 124.8,82.66 C 124.49,82.74 124.16,82.62 123.92,82.48 123.67,82.34 123.46,82.15 123.26,81.96 122.87,81.58 122.69,81.06 122.45,80.6 121.99,79.67 121.61,78.7 121.3,77.72 L 121.39,77.68 Z M 121.39,77.68" />
            </g>
            <g id="kazAveSide02-group279">
                <path id="kazAveSide02-bezier391" stroke="none" fill="rgb(0, 0, 0)" d="M 125.82,82.86 C 124.44,83.78 122.99,84.61 121.4,85.14 120.61,85.38 119.74,85.6 118.85,85.29 118.01,84.96 117.41,84.25 116.98,83.52 116.13,82.03 115.76,80.37 115.34,78.79 L 115.31,78.66 C 115.29,78.62 115.27,78.55 115.25,78.53 115.23,78.48 115.18,78.39 115.13,78.31 115.04,78.15 114.92,77.99 114.8,77.84 114.55,77.52 114.29,77.22 114.01,76.92 113.46,76.31 112.89,75.73 112.31,75.15 109.95,72.86 107.45,70.72 105.02,68.5 103.81,67.38 102.58,66.29 101.35,65.19 100.74,64.64 100.12,64.09 99.5,63.56 98.88,63.02 98.25,62.48 97.57,62.03 L 97.62,61.94 C 99.14,62.65 100.46,63.68 101.8,64.65 103.12,65.64 104.4,66.7 105.68,67.75 108.21,69.88 110.58,72.2 112.88,74.59 113.45,75.19 114.01,75.8 114.56,76.44 114.83,76.75 115.09,77.08 115.35,77.42 115.47,77.6 115.6,77.77 115.71,77.97 115.77,78.07 115.82,78.16 115.87,78.3 115.91,78.37 115.91,78.41 115.93,78.46 L 115.97,78.63 C 116.34,80.24 116.67,81.86 117.42,83.27 117.79,83.97 118.3,84.61 119.01,84.92 119.69,85.21 120.55,85.06 121.31,84.85 122.88,84.4 124.36,83.63 125.76,82.78 L 125.82,82.86 Z M 125.82,82.86" />
            </g>
            <g id="kazAveSide02-group280">
                <path id="kazAveSide02-bezier392" stroke="none" fill="rgb(0, 0, 0)" d="M 96.9,61.17 C 96.18,60.95 95.46,60.46 95.2,59.67 95.06,58.9 94.82,58.24 94.58,57.52 94.11,56.1 93.6,54.69 93.08,53.29 92.56,51.88 91.98,50.5 91.56,49.06 91.14,47.63 90.74,46.18 90.49,44.68 L 90.59,44.64 C 91.35,45.96 91.95,47.34 92.5,48.74 93.05,50.14 93.43,51.59 93.85,53.04 94.27,54.48 94.68,55.92 95.06,57.38 95.24,58.09 95.43,58.88 95.49,59.59 95.64,60.27 96.26,60.8 96.93,61.07 L 96.9,61.17 Z M 96.9,61.17" />
            </g>
            <g id="kazAveSide02-group281">
                <path id="kazAveSide02-bezier393" stroke="none" fill="rgb(0, 0, 0)" d="M 87.95,40.5 C 88.27,40.67 88.42,40.99 88.59,41.27 88.76,41.56 88.9,41.85 89.03,42.16 89.3,42.76 89.54,43.37 89.76,44 L 89.5,43.91 C 91.04,42.86 92.7,42.01 94.46,41.37 96.22,40.73 98.08,40.3 100,40.29 L 99.53,40.86 C 99.29,40.03 99.01,39.15 98.73,38.31 L 98.33,37.03 C 98.18,36.61 98.06,36.18 97.9,35.8 L 97.87,35.73 97.87,35.7 C 97.71,34.85 97.46,33.98 97.18,33.14 96.87,32.31 96.52,31.49 95.96,30.77 L 96.03,30.7 C 96.77,31.27 97.31,32.07 97.74,32.89 98.19,33.72 98.5,34.59 98.76,35.51 L 98.72,35.41 C 99.17,36.27 99.43,37.13 99.73,37.99 99.99,38.87 100.23,39.73 100.43,40.65 L 100.57,41.25 99.97,41.21 C 98.2,41.11 96.39,41.43 94.67,41.97 92.94,42.52 91.25,43.27 89.69,44.19 L 89.49,44.31 89.43,44.1 C 89.25,43.48 89.05,42.85 88.82,42.24 88.71,41.94 88.59,41.63 88.45,41.34 88.3,41.06 88.16,40.74 87.9,40.59 L 87.95,40.5 Z M 87.95,40.5" />
            </g>
            <g id="kazAveSide02-group282">
                <path id="kazAveSide02-bezier394" stroke="none" fill="rgb(0, 0, 0)" d="M 99.07,41.46 C 99.87,43.62 100.55,45.83 101.08,48.09 101.34,49.22 101.65,50.35 101.72,51.51 101.79,52.67 101.77,53.85 101.51,55.01 L 101.41,55.01 C 101.12,53.87 100.93,52.75 100.73,51.63 100.52,50.51 100.47,49.37 100.29,48.24 99.95,45.98 99.5,43.73 98.97,41.49 L 99.07,41.46 Z M 99.07,41.46" />
            </g>
            <g id="kazAveSide02-group283">
                <path id="kazAveSide02-bezier395" stroke="none" fill="rgb(0, 0, 0)" d="M 102.7,56.46 C 105.13,57.59 107.18,59.56 108.53,61.88 109.98,64.08 111.65,66.16 113.33,68.22 115.03,70.26 116.81,72.24 118.58,74.18 119.02,74.66 119.47,75.16 119.94,75.53 120.36,75.85 121,75.98 121.63,76.12 122.28,76.25 123,76.4 123.61,76.81 124.2,77.22 124.62,77.8 124.89,78.42 L 124.8,78.47 C 124.4,77.94 123.94,77.46 123.38,77.2 122.82,76.92 122.2,76.86 121.53,76.81 120.87,76.75 120.13,76.67 119.44,76.23 118.84,75.81 118.35,75.35 117.86,74.88 115.94,72.97 114.33,70.84 112.7,68.71 111.09,66.58 109.5,64.44 108.1,62.14 106.89,59.79 105.01,57.8 102.66,56.55 L 102.7,56.46 Z M 102.7,56.46" />
            </g>
            <g id="kazAveSide02-group284">
                <path id="kazAveSide02-bezier396" stroke="none" fill="rgb(0, 0, 0)" d="M 100.49,26.13 C 101.09,27.2 101.93,28.13 102.88,28.84 103.84,29.58 104.92,30.04 106.11,30.31 107.29,30.61 108.49,30.76 109.63,30.88 110.76,30.98 111.94,30.86 112.36,29.6 L 112.46,29.61 C 112.54,30.23 112.23,31.01 111.58,31.38 110.96,31.77 110.26,31.86 109.6,31.88 108.27,31.9 107.06,31.46 105.88,31.07 104.69,30.71 103.49,30.08 102.56,29.22 101.64,28.36 100.89,27.32 100.4,26.17 L 100.49,26.13 Z M 100.49,26.13" />
            </g>
            <g id="kazAveSide02-group285">
                <path id="kazAveSide02-bezier397" stroke="none" fill="rgb(0, 0, 0)" d="M 112.62,26.5 C 113.26,26.42 113.94,26.24 114.41,25.85 114.64,25.65 114.77,25.39 114.75,25.11 114.74,24.85 114.59,24.55 114.48,24.23 114.03,22.97 113.6,21.7 113.33,20.35 113.2,19.68 113.06,19 113.15,18.22 113.27,17.58 113.27,17.01 113.22,16.38 113.09,15.17 112.85,13.85 111.78,13.06 L 111.82,12.96 C 112.52,13.09 113.1,13.65 113.47,14.25 113.86,14.86 114.08,15.55 114.21,16.25 114.26,16.61 114.29,16.96 114.28,17.33 114.28,17.51 114.26,17.69 114.23,17.88 114.21,18.06 114.15,18.28 114.13,18.39 114,18.92 114.05,19.59 114.12,20.22 114.28,21.51 114.6,22.8 114.95,24.07 115.02,24.39 115.17,24.71 115.15,25.12 115.14,25.52 114.9,25.89 114.6,26.09 113.99,26.49 113.29,26.57 112.62,26.6 L 112.62,26.5 Z M 112.62,26.5" />
            </g>
            <g id="kazAveSide02-group286">
                <path id="kazAveSide02-bezier398" stroke="none" fill="rgb(0, 0, 0)" d="M 104.2,23.9 C 103.7,23.45 103.26,22.93 102.9,22.33 102.72,22.03 102.47,21.73 102.47,21.33 102.46,20.96 102.59,20.44 103.02,20.26 L 103.11,20.31 C 103.21,20.7 103.35,20.88 103.46,21.15 103.58,21.4 103.55,21.71 103.63,22.01 103.8,22.61 104.03,23.23 104.28,23.85 L 104.2,23.9 Z M 104.2,23.9" />
            </g>
            <g id="kazAveSide02-group287">
                <path id="kazAveSide02-bezier399" stroke="none" fill="rgb(0, 0, 0)" d="M 98.48,32.21 C 99.23,31.74 100.01,31.33 100.82,30.97 101.23,30.79 101.63,30.57 102.09,30.51 102.54,30.47 103.05,30.45 103.48,30.72 L 103.47,30.8 C 103.03,30.94 102.66,31.1 102.26,31.24 101.87,31.39 101.44,31.43 101.02,31.54 100.19,31.76 99.35,32.01 98.51,32.28 L 98.48,32.21 Z M 98.48,32.21" />
            </g>
            <g id="kazAveSide02-group288">
                <path id="kazAveSide02-bezier400" stroke="none" fill="rgb(0, 0, 0)" d="M 79.65,24.87 C 77.77,25.27 75.95,25.87 74.16,26.53 72.37,27.18 70.6,27.93 68.86,28.71 67.12,29.5 65.42,30.38 63.63,31.1 62.74,31.45 61.84,31.8 60.91,32.08 59.98,32.36 59.03,32.64 58.05,32.67 L 58.03,32.57 C 59.83,31.92 61.49,30.99 63.23,30.18 64.95,29.35 66.75,28.66 68.55,27.97 72.13,26.58 75.82,25.33 79.63,24.77 L 79.65,24.87 Z M 79.65,24.87" />
            </g>
            <g id="kazAveSide02-group289">
                <path id="kazAveSide02-bezier401" stroke="none" fill="rgb(0, 0, 0)" d="M 57.4,33.48 C 59.03,35.48 60.58,37.55 62.02,39.7 62.74,40.79 63.42,41.89 64.03,43.04 64.64,44.19 65.21,45.38 65.52,46.71 L 64.94,46.43 C 66.06,45.81 67.19,45.22 68.33,44.64 69.48,44.07 70.65,43.56 71.85,43.09 73.05,42.66 74.26,42.22 75.52,41.92 76.76,41.63 78.06,41.36 79.36,41.54 L 79.35,41.64 C 78.1,41.74 76.9,42.16 75.72,42.58 74.54,43.02 73.37,43.49 72.22,44.02 L 68.76,45.54 C 67.6,46.06 66.45,46.59 65.32,47.14 L 64.83,47.38 64.73,46.87 C 64.51,45.67 64,44.48 63.45,43.34 62.89,42.19 62.26,41.07 61.6,39.97 60.28,37.77 58.85,35.62 57.33,33.55 L 57.4,33.48 Z M 57.4,33.48" />
            </g>
            <g id="kazAveSide02-group290">
                <path id="kazAveSide02-bezier402" stroke="none" fill="rgb(0, 0, 0)" d="M 81.26,42.03 C 81.78,42.27 82.35,42.42 82.91,42.51 83.46,42.61 84.02,42.64 84.57,42.6 85.12,42.57 85.64,42.38 86.18,42.33 86.72,42.26 87.26,42.18 87.9,42.16 L 87.95,42.25 C 87.55,42.76 87,43.09 86.41,43.3 85.81,43.51 85.16,43.46 84.55,43.4 83.32,43.28 82.15,42.84 81.21,42.12 L 81.26,42.03 Z M 81.26,42.03" />
            </g>
            <g id="kazAveSide02-group291">
                <path id="kazAveSide02-bezier403" stroke="none" fill="rgb(0, 0, 0)" d="M 56.62,35.08 C 55.67,36.07 54.63,36.97 53.48,37.75 52.91,38.14 52.33,38.59 51.63,38.79 50.95,38.98 50.16,39.09 49.46,38.77 L 49.47,38.67 C 50.14,38.43 50.69,38.14 51.27,37.86 51.83,37.55 52.47,37.37 53.07,37.06 54.26,36.46 55.43,35.76 56.56,35 L 56.62,35.08 Z M 56.62,35.08" />
            </g>
            <g id="kazAveSide02-group292">
                <path id="kazAveSide02-bezier404" stroke="none" fill="rgb(0, 0, 0)" d="M 62.18,50.45 C 61.14,49.28 60.02,48.19 58.83,47.18 57.63,46.18 56.36,45.26 54.98,44.57 54.3,44.21 53.57,44 52.82,43.7 52.08,43.41 51.36,43.06 50.68,42.65 49.3,41.84 48.04,40.87 46.96,39.63 L 47.4,39.7 C 45.43,41.21 43.63,43.05 42.32,45.15 41,47.24 40.24,49.68 40.67,52.09 41.02,54.5 42.02,56.84 43.56,58.78 45.1,60.71 47.09,62.39 49.48,63.24 L 49.46,63.34 C 46.92,62.8 44.69,61.22 42.96,59.28 41.24,57.32 40.02,54.86 39.64,52.23 39.43,50.93 39.53,49.52 39.9,48.25 40.27,46.96 40.88,45.77 41.6,44.69 43.07,42.52 44.92,40.69 47.03,39.16 L 47.27,38.98 47.48,39.23 C 48.43,40.38 49.66,41.38 50.96,42.19 51.61,42.59 52.3,42.95 53,43.26 53.7,43.56 54.48,43.81 55.17,44.21 56.57,44.96 57.82,45.94 58.99,46.99 60.16,48.04 61.25,49.17 62.25,50.38 L 62.18,50.45 Z M 62.18,50.45" />
            </g>
            <g id="kazAveSide02-group293">
                <path id="kazAveSide02-bezier405" stroke="none" fill="rgb(0, 0, 0)" d="M 55.52,63.4 C 57.43,64.53 59.44,65.5 61.51,66.25 62.55,66.63 63.61,66.95 64.68,67.14 65.21,67.24 65.75,67.31 66.29,67.34 66.8,67.35 67.41,67.35 67.97,67.41 70.23,67.61 72.45,68.05 74.59,68.71 76.72,69.41 78.82,70.17 80.82,71.2 L 80.78,71.3 C 78.6,70.81 76.47,70.19 74.31,69.67 72.17,69.14 70.05,68.5 67.88,68.2 67.33,68.13 66.83,68.1 66.24,68.06 65.66,68.01 65.1,67.91 64.55,67.78 63.44,67.52 62.37,67.15 61.33,66.72 59.27,65.83 57.31,64.73 55.47,63.48 L 55.52,63.4 Z M 55.52,63.4" />
            </g>
            <g id="kazAveSide02-group294">
                <path id="kazAveSide02-bezier406" stroke="none" fill="rgb(0, 0, 0)" d="M 80.85,72.77 C 79.74,74.96 78.7,77.23 78.2,79.6 77.97,80.76 78.04,82.01 77.98,83.24 L 77.88,86.93 C 77.81,89.4 77.76,91.88 77.42,94.34 77.23,95.56 77.05,96.79 76.75,98 76.44,99.2 76.09,100.43 75.43,101.5 L 75.34,101.46 C 75.73,100.29 75.9,99.08 76.06,97.87 76.21,96.66 76.35,95.45 76.43,94.23 76.63,91.79 76.9,89.35 77.08,86.89 L 77.33,83.21 C 77.44,81.98 77.42,80.75 77.71,79.49 78.37,77.06 79.53,74.86 80.76,72.72 L 80.85,72.77 Z M 80.85,72.77" />
            </g>
            <g id="kazAveSide02-group295">
                <path id="kazAveSide02-bezier407" stroke="none" fill="rgb(0, 0, 0)" d="M 60.57,51.31 C 65.8,52.28 70.93,53.78 75.86,55.81 78.33,56.83 80.78,57.94 83.02,59.42 85.24,60.92 87.37,62.62 89.01,64.74 L 88.94,64.81 C 86.9,63.11 84.76,61.59 82.49,60.27 80.23,58.94 77.94,57.65 75.54,56.54 73.14,55.45 70.68,54.48 68.17,53.63 65.67,52.78 63.13,52.01 60.55,51.41 L 60.57,51.31 Z M 60.57,51.31" />
            </g>
            <g id="kazAveSide02-group296">
                <path id="kazAveSide02-bezier408" stroke="none" fill="rgb(0, 0, 0)" d="M 90.57,71.9 C 89.92,74.68 89.22,77.48 88.88,80.28 88.87,80.46 88.86,80.63 88.86,80.8 88.88,80.92 88.87,81.21 88.84,81.37 88.78,81.74 88.69,82.09 88.6,82.44 88.42,83.14 88.22,83.83 88.02,84.52 L 86.75,88.62 84.15,96.8 C 83.73,98.16 83.28,99.52 82.83,100.87 82.39,102.21 81.87,103.6 81.6,104.9 L 81.48,105.47 81.02,105.2 C 80.12,104.68 79.21,104.16 78.27,103.72 77.79,103.5 77.32,103.28 76.84,103.1 76.36,102.94 75.83,102.74 75.36,102.89 L 75.31,102.8 C 75.84,102.53 76.41,102.69 76.93,102.78 77.45,102.9 77.97,103.05 78.46,103.24 79.46,103.61 80.44,104.02 81.4,104.51 L 80.81,104.8 C 81.05,103.29 81.47,101.96 81.87,100.57 82.28,99.2 82.73,97.83 83.21,96.48 L 86.07,88.4 87.46,84.34 C 87.68,83.66 87.9,82.99 88.1,82.3 88.2,81.96 88.29,81.62 88.36,81.29 88.44,81.02 88.37,80.59 88.45,80.24 88.91,77.37 89.71,74.64 90.47,71.88 L 90.57,71.9 Z M 90.57,71.9" />
            </g>
            <g id="kazAveSide02-group297">
                <path id="kazAveSide02-bezier409" stroke="none" fill="rgb(0, 0, 0)" d="M 73.61,108.74 L 74.33,106.47 C 74.45,106.09 74.48,105.69 74.67,105.36 74.85,105.02 75.09,104.74 75.32,104.39 L 75.42,104.36 C 75.75,104.8 75.67,105.3 75.61,105.7 75.54,106.12 75.26,106.45 75.06,106.79 74.65,107.49 74.19,108.16 73.69,108.79 L 73.61,108.74 Z M 73.61,108.74" />
            </g>
            <g id="kazAveSide02-group298">
                <path id="kazAveSide02-bezier410" stroke="none" fill="rgb(0, 0, 0)" d="M 80.81,117.96 C 79.35,117.49 77.87,117.08 76.38,116.8 75.64,116.66 74.89,116.54 74.16,116.57 73.37,116.58 72.57,116.51 71.78,116.29 71.01,116.08 70.15,115.73 69.62,114.87 69.37,114.44 69.3,113.91 69.36,113.45 69.43,112.99 69.61,112.58 69.8,112.21 70.66,110.86 71.65,109.67 72.84,108.65 L 72.92,108.71 C 72.16,110.06 71.36,111.37 70.69,112.67 70.38,113.29 70.25,113.92 70.49,114.4 70.72,114.91 71.35,115.3 72.01,115.53 72.69,115.76 73.43,115.88 74.17,115.92 74.97,115.94 75.74,116.12 76.49,116.31 77.98,116.73 79.42,117.27 80.84,117.86 L 80.81,117.96 Z M 80.81,117.96" />
            </g>
            <g id="kazAveSide02-group299">
                <path id="kazAveSide02-bezier411" stroke="none" fill="rgb(0, 0, 0)" d="M 74.45,109.63 C 75.02,110.07 75.64,110.44 76.25,110.69 76.57,110.82 76.9,110.82 77.17,110.96 77.45,111.09 77.72,111.23 78.11,111.44 L 78.13,111.54 C 77.81,111.88 77.35,111.97 76.93,111.93 76.5,111.9 76.17,111.62 75.86,111.39 75.23,110.92 74.74,110.34 74.37,109.69 L 74.45,109.63 Z M 74.45,109.63" />
            </g>
            <g id="kazAveSide02-group300">
                <path id="kazAveSide02-bezier412" stroke="none" fill="rgb(0, 0, 0)" d="M 79.7,110.56 C 79.96,110.27 80.26,110.01 80.66,109.88 80.85,109.82 81.09,109.81 81.29,109.91 81.5,110.01 81.63,110.2 81.75,110.32 82.27,110.87 82.82,111.39 83.37,111.9 83.93,112.41 84.49,112.91 85.07,113.38 85.37,113.61 85.66,113.84 85.97,114.03 86.26,114.22 86.6,114.42 86.83,114.44 87.66,114.55 88.39,114.8 89.13,115.1 89.86,115.44 90.59,115.79 91.16,116.61 91.29,116.8 91.4,117.16 91.38,117.38 91.38,117.6 91.39,117.84 91.25,118.15 91.1,118.49 90.74,118.65 90.52,118.69 90.28,118.74 90.08,118.74 89.87,118.73 89.08,118.7 88.34,118.6 87.57,118.46 L 87.57,118.36 C 88.33,118.21 89.1,118.15 89.82,118.04 90.18,117.99 90.53,117.84 90.45,117.8 90.45,117.76 90.46,117.6 90.44,117.44 90.42,117.28 90.4,117.27 90.32,117.15 90,116.72 89.33,116.33 88.71,116 88.08,115.67 87.38,115.38 86.71,115.23 86.19,115.12 85.88,114.86 85.55,114.63 85.23,114.39 84.94,114.14 84.65,113.88 84.08,113.36 83.55,112.81 83.02,112.26 82.51,111.69 82,111.12 81.53,110.52 81.31,110.18 81.08,109.99 80.71,110.08 80.37,110.16 80.05,110.38 79.78,110.63 L 79.7,110.56 Z M 79.7,110.56" />
            </g>
            <g id="kazAveSide02-group301">
                <path id="kazAveSide02-bezier413" stroke="none" fill="rgb(0, 0, 0)" d="M 78.78,110.19 C 78.71,109.63 78.69,109.06 78.74,108.49 78.77,108.2 78.73,107.88 78.91,107.62 79,107.49 79.11,107.35 79.27,107.24 79.4,107.14 79.66,107.02 79.86,107.13 L 79.87,107.23 C 79.8,107.54 79.9,107.74 79.84,107.99 79.82,108.23 79.63,108.44 79.52,108.68 79.31,109.17 79.1,109.69 78.88,110.21 L 78.78,110.19 Z M 78.78,110.19" />
            </g>
            <g id="kazAveSide02-group302">
                <path id="kazAveSide02-bezier414" stroke="none" fill="rgb(0, 0, 0)" d="M 63.01,136.4 C 62.41,136.74 61.71,136.88 61.04,136.98 60.7,137.03 60.35,137.1 60.01,137.07 59.67,137.02 59.33,136.98 58.99,136.84 L 58.99,136.79 C 59.34,136.65 59.67,136.62 60.01,136.57 60.34,136.53 60.67,136.57 61.01,136.58 61.67,136.57 62.35,136.55 62.99,136.36 L 63.01,136.4 Z M 63.01,136.4" />
            </g>
            <g id="kazAveSide02-group303">
                <path id="kazAveSide02-bezier415" stroke="none" fill="rgb(0, 0, 0)" d="M 52.43,128.98 C 52.77,129.25 53.11,129.51 53.45,129.76 53.63,129.89 53.82,129.99 53.96,130.14 54.1,130.32 54.24,130.48 54.32,130.72 L 54.29,130.76 C 54.03,130.74 53.84,130.63 53.64,130.53 53.45,130.41 53.33,130.23 53.18,130.06 52.89,129.73 52.63,129.39 52.39,129.02 L 52.43,128.98 Z M 52.43,128.98" />
            </g>
            <g id="kazAveSide02-group304">
                <path id="kazAveSide02-bezier416" stroke="none" fill="rgb(0, 0, 0)" d="M 89.63,65.16 C 90.45,65.86 91.03,66.85 91.3,67.93 91.44,68.47 91.59,69.05 91.47,69.61 91.36,70.16 91.14,70.69 90.72,71.12 L 90.63,71.09 C 90.51,70.51 90.5,70.01 90.47,69.52 90.44,69.04 90.55,68.56 90.51,68.07 90.48,67.58 90.38,67.09 90.22,66.61 90.07,66.13 89.86,65.65 89.56,65.23 L 89.63,65.16 Z M 89.63,65.16" />
            </g>
            <g id="kazAveSide02-group305">
                <path id="kazAveSide02-bezier417" stroke="none" fill="rgb(0, 0, 0)" d="M 50.13,136.53 C 49.12,136.37 48.09,136.25 47.07,136.19 46.56,136.15 46.05,136.13 45.55,136.13 45.29,136.13 45.02,136.13 44.76,136.12 44.47,136.09 44.19,136.05 43.91,135.97 43.35,135.82 42.74,135.44 42.44,134.81 42.15,134.18 42.21,133.5 42.42,132.96 42.83,131.98 43.21,131.04 43.84,130.16 L 43.94,130.19 C 43.83,131.23 43.64,132.28 43.37,133.25 43.17,134.11 43.28,134.87 44.17,135.21 44.37,135.3 44.6,135.35 44.82,135.39 45.07,135.43 45.31,135.45 45.58,135.48 46.1,135.53 46.62,135.6 47.13,135.69 48.16,135.89 49.16,136.14 50.16,136.43 L 50.13,136.53 Z M 50.13,136.53" />
            </g>
            <g id="kazAveSide02-group306">
                <path id="kazAveSide02-bezier418" stroke="none" fill="rgb(0, 0, 0)" d="M 54.35,99.72 C 54.58,98.44 54.88,97.16 55.42,95.93 55.69,95.32 55.96,94.65 56.49,94.17 57,93.69 57.66,93.31 58.37,93.29 L 58.41,93.38 C 57.95,93.9 57.58,94.35 57.23,94.84 56.9,95.32 56.46,95.76 56.13,96.3 55.47,97.37 54.95,98.55 54.45,99.75 L 54.35,99.72 Z M 54.35,99.72" />
            </g>
            <g id="kazAveSide02-group307">
                <path id="kazAveSide02-bezier419" stroke="none" fill="rgb(0, 0, 0)" d="M 48.42,119.49 C 48.86,118.25 49.28,117.01 49.69,115.77 50.11,114.53 50.52,113.28 50.89,112.04 51.25,110.78 51.48,109.52 51.86,108.26 52.24,107.02 52.62,105.76 53.17,104.54 L 53.27,104.56 C 53.25,105.9 53.08,107.21 52.83,108.5 52.58,109.79 52.12,111.06 51.65,112.29 50.71,114.76 49.64,117.15 48.51,119.53 L 48.42,119.49 Z M 48.42,119.49" />
            </g>
            <g id="kazAveSide02-group308">
                <path id="kazAveSide02-bezier420" stroke="none" fill="rgb(0, 0, 0)" d="M 53.7,124.55 C 52.57,124.35 51.44,124.16 50.31,123.95 49.75,123.84 49.19,123.75 48.62,123.67 48.07,123.59 47.5,123.38 47.03,123.23 L 46.46,123.04 46.7,122.68 C 46.93,122.32 47.19,121.99 47.51,121.67 L 47.6,121.71 C 47.59,122.16 47.53,122.58 47.43,122.99 L 47.09,122.44 C 47.76,122.42 48.3,122.51 48.86,122.7 L 50.49,123.26 C 51.59,123.62 52.66,124.04 53.73,124.45 L 53.7,124.55 Z M 53.7,124.55" />
            </g>
            <g id="kazAveSide02-group309">
                <path id="kazAveSide02-bezier421" stroke="none" fill="rgb(0, 0, 0)" d="M 51.65,76.82 C 50.36,75.3 49.23,73.64 48.15,71.97 47.62,71.13 47.02,70.32 46.6,69.42 46.19,68.51 45.81,67.58 45.59,66.57 L 45.68,66.53 C 46.39,67.28 46.95,68.1 47.48,68.94 48.02,69.77 48.39,70.69 48.85,71.57 49.76,73.32 50.68,75.08 51.73,76.76 L 51.65,76.82 Z M 51.65,76.82" />
            </g>
            <g id="kazAveSide02-group310">
                <path id="kazAveSide02-bezier422" stroke="none" fill="rgb(0, 0, 0)" d="M 57.93,90.93 C 57.41,89.14 56.84,87.38 56.23,85.63 55.92,84.76 55.51,83.93 55.26,83.06 55,82.18 54.76,81.3 54.56,80.36 L 54.65,80.31 C 55.34,81.01 55.81,81.85 56.2,82.71 56.6,83.56 56.77,84.5 57,85.41 57.45,87.22 57.79,89.06 58.03,90.91 L 57.93,90.93 Z M 57.93,90.93" />
            </g>
            <g id="kazAveSide02-group311">
                <path id="kazAveSide02-bezier423" stroke="none" fill="rgb(0, 0, 0)" d="M 67.36,76.17 C 67.78,77.9 68.3,79.6 68.77,81.32 69.24,83.04 69.68,84.78 69.87,86.59 L 69.87,86.57 70.22,88.78 C 70.35,89.6 70.31,90.38 70.2,91.16 70.08,91.95 69.83,92.72 69.45,93.43 69.06,94.14 68.54,94.78 67.92,95.29 L 68,95.19 C 67.67,95.67 67.32,96.14 66.98,96.62 L 67.01,96.57 C 66.49,97.53 65.97,98.5 65.38,99.43 L 65.29,99.39 C 65.58,98.33 65.95,97.3 66.31,96.26 L 66.31,96.25 66.33,96.21 C 66.62,95.7 66.9,95.18 67.2,94.68 L 67.23,94.64 67.29,94.58 C 68.29,93.61 68.96,92.36 69.29,90.99 69.43,90.31 69.52,89.57 69.44,88.9 L 69.13,86.67 69.13,86.65 69.13,86.64 C 69.04,84.91 68.68,83.16 68.32,81.43 67.96,79.69 67.56,77.95 67.26,76.19 L 67.36,76.17 Z M 67.36,76.17" />
            </g>
            <g id="kazAveSide02-group312">
                <path id="kazAveSide02-bezier424" stroke="none" fill="rgb(0, 0, 0)" d="M 65.86,69.32 C 66.15,69.89 66.42,70.46 66.65,71.04 66.77,71.33 66.96,71.61 66.97,71.93 66.97,72.24 66.94,72.57 66.74,72.94 L 66.64,72.96 C 66.3,72.72 66.13,72.44 65.99,72.16 65.85,71.87 65.9,71.54 65.87,71.23 65.81,70.61 65.78,69.98 65.76,69.35 L 65.86,69.32 Z M 65.86,69.32" />
            </g>
            <g id="kazAveSide02-group313">
                <path id="kazAveSide02-bezier425" stroke="none" fill="rgb(0, 0, 0)" d="M 55.02,121.75 C 55.02,122.28 54.89,122.74 54.73,123.2 54.56,123.65 54.36,124.08 54.06,124.5 54.01,124.24 54.04,123.99 54.08,123.74 54.11,123.49 54.19,123.26 54.26,123.03 54.44,122.57 54.66,122.13 55.02,121.75 Z M 55.02,121.75" />
            </g>
            <g id="kazAveSide02-group314">
                <path id="kazAveSide02-bezier426" stroke="none" fill="rgb(0, 0, 0)" d="M 58.87,112.99 C 58.52,114.19 58.04,115.34 57.55,116.47 57.03,117.6 56.5,118.71 55.83,119.78 56.14,118.56 56.59,117.4 57.09,116.27 57.61,115.14 58.17,114.03 58.87,112.99 Z M 58.87,112.99" />
            </g>
            <g id="kazAveSide02-group315">
                <path id="kazAveSide02-bezier427" stroke="none" fill="rgb(0, 0, 0)" d="M 62.9,104.83 C 62.8,105.52 62.56,106.15 62.29,106.76 62,107.37 61.67,107.96 61.2,108.47 61.32,107.78 61.56,107.16 61.83,106.55 62.12,105.95 62.44,105.36 62.9,104.83 Z M 62.9,104.83" />
            </g>
            <g id="kazAveSide02-group316">
                <path id="kazAveSide02-bezier428" stroke="none" fill="rgb(0, 0, 0)" d="M 51.85,127.45 C 51.83,127.73 51.81,128 51.77,128.27 51.76,128.4 51.78,128.55 51.71,128.66 51.64,128.78 51.57,128.89 51.42,129 L 51.37,129 C 51.24,128.84 51.24,128.69 51.23,128.54 51.23,128.39 51.32,128.28 51.39,128.15 51.51,127.9 51.65,127.66 51.81,127.43 L 51.85,127.45 Z M 51.85,127.45" />
            </g>
            <g id="kazAveSide02-group317">
                <path id="kazAveSide02-bezier429" stroke="none" fill="rgb(0, 0, 0)" d="M 46.96,126.09 C 46.91,126.45 46.85,126.82 46.76,127.17 46.72,127.36 46.71,127.55 46.61,127.71 46.49,127.86 46.38,128.03 46.17,128.12 L 46.12,128.09 C 46.09,127.87 46.12,127.7 46.15,127.52 46.18,127.34 46.3,127.2 46.39,127.04 46.55,126.71 46.73,126.39 46.91,126.07 L 46.96,126.09 Z M 46.96,126.09" />
            </g>
            <g id="kazAveSide02-group318">
                <path id="kazAveSide02-bezier430" stroke="none" fill="rgb(0, 0, 0)" d="M 64.23,47.52 C 63.92,47.89 63.62,48.24 63.34,48.59 63.2,48.76 63.13,48.99 62.96,49.08 62.87,49.12 62.79,49.17 62.69,49.19 62.6,49.23 62.48,49.2 62.38,49.33 L 62.28,49.37 C 62.09,49.28 62.05,49.01 62.07,48.86 62.08,48.68 62.14,48.54 62.21,48.41 62.34,48.16 62.62,48.09 62.83,47.97 63.26,47.73 63.71,47.56 64.18,47.43 L 64.23,47.52 Z M 64.23,47.52" />
            </g>
            <g id="kazAveSide02-group319">
                <path id="kazAveSide02-bezier431" stroke="none" fill="rgb(0, 0, 0)" d="M 110.73,16.12 C 110.26,17.3 109.35,18.31 108.19,18.88 107.03,19.46 105.66,19.54 104.4,19.34 101.96,18.96 99.46,19.28 97.12,20.02 94.77,20.78 92.6,21.98 90.53,23.29 89.48,23.94 88.49,24.67 87.54,25.46 87.06,25.85 86.61,26.26 86.18,26.71 85.74,27.14 85.33,27.61 85.04,28.15 L 84.94,28.12 C 85.33,26.87 86.21,25.88 87.07,24.95 87.95,24.02 88.94,23.22 89.97,22.46 92.06,20.98 94.43,19.93 96.89,19.25 99.35,18.58 101.97,18.35 104.48,18.84 105.68,19.1 106.94,19.09 108.06,18.61 109.18,18.14 110.12,17.21 110.63,16.08 L 110.73,16.12 Z M 110.73,16.12" />
            </g>
            <g id="kazAveSide02-group320">
                <path id="kazAveSide02-bezier432" stroke="none" fill="rgb(0, 0, 0)" d="M 111.14,11.47 C 108.32,9.48 104.62,9.16 101.34,9.88 97.99,10.55 95.12,12.59 92.64,14.9 90.15,17.23 87.99,19.93 85.46,22.32 84.18,23.49 82.85,24.65 81.31,25.54 79.79,26.42 78.03,27.01 76.28,26.88 L 76.28,26.78 C 77.99,26.62 79.56,25.9 80.94,24.95 82.32,23.99 83.58,22.83 84.76,21.61 87.15,19.17 89.49,16.6 92.11,14.31 94.7,12.02 97.74,9.98 101.24,9.39 104.65,8.77 108.42,9.26 111.21,11.4 L 111.14,11.47 Z M 111.14,11.47" />
            </g>
            <g id="kazAveSide02-group321">
                <path id="kazAveSide02-bezier433" stroke="none" fill="rgb(0, 0, 0)" d="M 100.76,25.07 C 100.13,24.68 99.48,24.32 98.83,23.96 98.74,23.91 98.68,23.87 98.59,23.84 98.55,23.83 98.49,23.82 98.44,23.84 98.33,23.88 98.2,23.99 98.09,24.12 97.88,24.39 97.69,24.71 97.51,25.03 96.8,26.31 96.1,27.65 95.16,28.87 94.25,30.08 93.12,31.24 91.67,31.88 90.24,32.53 88.62,32.72 87.13,32.4 L 87.13,32.3 C 88.62,32.06 90,31.68 91.23,30.99 92.45,30.31 93.59,29.45 94.54,28.36 95.51,27.27 96.27,26.02 97.09,24.76 97.3,24.45 97.52,24.14 97.8,23.85 97.94,23.71 98.1,23.56 98.35,23.5 98.48,23.47 98.62,23.49 98.74,23.55 98.82,23.59 98.92,23.66 98.99,23.7 99.6,24.12 100.22,24.54 100.82,24.98 L 100.76,25.07 Z M 100.76,25.07" />
            </g>
        </g>
        <path id="kazAveSide02-bezier434" stroke="rgb(0, 0, 0)" stroke-width="2" stroke-miterlimit="10" fill="none" d="M 71.72,129 L 85.67,119.08" />
    </g>
</svg>
