<?xml version="1.0" encoding="UTF-8"?>
<!DOCTYPE svg PUBLIC "-//W3C//DTD SVG 1.1//EN" "http://www.w3.org/Graphics/SVG/1.1/DTD/svg11.dtd">
<svg version="1.1" xmlns="http://www.w3.org/2000/svg" xmlns:xlink="http://www.w3.org/1999/xlink" width="160" height="160"  xml:space="preserve" id="kazAveSide01">
    <!-- Generated by PaintCode - http://www.paintcodeapp.com -->
    <g id="kazAveSide01-group">
        <circle id="kazAveSide01-oval67" stroke="rgb(0, 0, 0)" stroke-width="2" stroke-miterlimit="10" fill="none" cx="126.34" cy="127" r="29" />
        <path id="kazAveSide01-bezier1663" stroke="rgb(0, 0, 0)" stroke-width="2" stroke-miterlimit="10" fill="none" d="M 44.47,153.67 C 41.4,155.23 35.32,156 32.67,156 16.65,156 3.67,143.02 3.67,127 3.67,110.98 16.65,98 32.67,98 37.82,98 42.65,99.34 46.85,101.7" />
        <path id="kazAveSide01-bezier1664" stroke="rgb(0, 0, 0)" stroke-width="2" stroke-miterlimit="10" fill="none" d="M 61.67,127.18 C 61.61,136.56 57.1,144.89 50.14,150.15" />
        <path id="kazAveSide01-bezier1665" stroke="rgb(0, 0, 0)" stroke-width="2" stroke-miterlimit="10" fill="none" d="M 57.99,112 C 59.52,114.63 60.63,118.66 61.21,122.17" />
        <circle id="kazAveSide01-oval68" stroke="rgb(0, 0, 0)" stroke-width="2" stroke-miterlimit="10" fill="none" cx="71.17" cy="134" r="8.33" />
        <circle id="kazAveSide01-oval69" stroke="rgb(0, 0, 0)" stroke-width="2" stroke-miterlimit="10" fill="none" cx="32.67" cy="127" r="2.5" />
        <path id="kazAveSide01-bezier1666" stroke="rgb(0, 0, 0)" stroke-width="2" stroke-miterlimit="10" fill="none" d="M 52.09,130.53 L 71.17,134" />
        <path id="kazAveSide01-bezier1667" stroke="rgb(0, 0, 0)" stroke-width="2" stroke-miterlimit="10" fill="none" d="M 47.19,96.67 L 32.67,127 43.47,129.1" />
        <path id="kazAveSide01-bezier1668" stroke="rgb(0, 0, 0)" stroke-width="2" stroke-miterlimit="10" fill="none" d="M 110.93,79.83 L 62.84,79.83" />
        <path id="kazAveSide01-bezier1669" stroke="rgb(0, 0, 0)" stroke-width="2" stroke-miterlimit="10" fill="none" d="M 107.34,68.83 L 126.34,127" />
        <path id="kazAveSide01-bezier1670" stroke="rgb(0, 0, 0)" stroke-width="2" stroke-miterlimit="10" fill="none" d="M 114,89.23 L 78.17,124.5" />
        <path id="kazAveSide01-bezier1671" stroke="rgb(0, 0, 0)" stroke-width="2" stroke-miterlimit="10" fill="none" d="M 67.84,123 L 60.43,96.67" />
        <path id="kazAveSide01-bezier1672" stroke="rgb(0, 0, 0)" stroke-width="2" stroke-miterlimit="10" fill="none" d="M 42.04,69.49 C 41.45,69.34 40.98,69.13 40.67,68.83 38,66.32 34.75,64.7 39.65,64.52" />
        <path id="kazAveSide01-bezier1673" stroke="rgb(0, 0, 0)" stroke-width="1" stroke-miterlimit="10" fill="none" d="M 44.03,125.67 L 36.73,125.67" />
        <path id="kazAveSide01-bezier1674" stroke="rgb(0, 0, 0)" stroke-width="1" stroke-miterlimit="10" fill="none" d="M 66.11,125.67 L 56.03,125.67" />
        <path id="kazAveSide01-bezier1675" stroke="rgb(0, 0, 0)" stroke-width="1" stroke-miterlimit="10" fill="none" d="M 51.24,136.11 L 62.84,140.04" />
        <path id="kazAveSide01-bezier1676" stroke="rgb(0, 0, 0)" stroke-width="1" stroke-miterlimit="10" fill="none" d="M 34.67,130.5 L 43.45,133.47" />
        <path id="kazAveSide01-bezier1677" stroke="rgb(0, 0, 0)" stroke-width="2" stroke-miterlimit="10" fill="none" d="M 114.41,69.33 C 110.5,69.33 109.46,69.33 109.46,69.33" />
        <path id="kazAveSide01-bezier1678" stroke="rgb(0, 0, 0)" stroke-width="2" stroke-miterlimit="10" fill="none" d="M 124.42,84.79 C 124.42,84.79 128.59,83.75 128.59,78.25 128.59,74.97 127.22,72.42 124.66,70.91" />
        <path id="kazAveSide01-bezier1679" stroke="rgb(0, 0, 0)" stroke-width="2" stroke-miterlimit="10" fill="none" d="M 54.67,123.67 L 63.72,123.67" />
        <path id="kazAveSide01-bezier1680" stroke="rgb(0, 0, 0)" stroke-width="2" stroke-miterlimit="10" fill="none" d="M 80.25,143.92 L 88.08,143.92" />
        <g id="kazAveSide01-group1259">
            <g id="kazAveSide01-group1260">
                <path id="kazAveSide01-bezier1681" stroke="none" fill="rgb(0, 0, 0)" d="M 121.98,68.66 C 122.61,69.47 123.24,70.28 123.89,71.05 124.21,71.43 124.61,71.74 124.87,72.15 125.17,72.54 125.35,72.96 125.72,73.31 L 125.71,73.41 C 125.41,73.51 125.07,73.41 124.82,73.29 124.56,73.16 124.34,72.99 124.13,72.82 123.71,72.46 123.5,71.96 123.23,71.51 122.71,70.61 122.27,69.67 121.89,68.71 L 121.98,68.66 Z M 121.98,68.66" />
            </g>
            <g id="kazAveSide01-group1261">
                <path id="kazAveSide01-bezier1682" stroke="none" fill="rgb(0, 0, 0)" d="M 126.74,73.54 C 125.42,74.55 124.03,75.47 122.48,76.1 121.71,76.39 120.85,76.68 119.95,76.42 119.09,76.15 118.44,75.48 117.97,74.78 117.02,73.35 116.54,71.72 116.02,70.17 L 115.97,70.04 C 115.95,70 115.93,69.93 115.92,69.91 115.89,69.86 115.83,69.78 115.78,69.7 115.67,69.55 115.54,69.4 115.41,69.25 115.15,68.96 114.86,68.67 114.57,68.38 113.98,67.82 113.37,67.27 112.75,66.74 110.25,64.6 107.61,62.63 105.04,60.58 103.77,59.53 102.46,58.53 101.17,57.51 100.52,57 99.87,56.5 99.21,56.01 98.56,55.51 97.9,55.01 97.19,54.61 L 97.23,54.52 C 98.8,55.13 100.17,56.06 101.58,56.95 102.97,57.85 104.31,58.82 105.65,59.78 108.32,61.75 110.83,63.9 113.28,66.14 113.89,66.7 114.5,67.27 115.08,67.87 115.37,68.17 115.66,68.48 115.94,68.8 116.07,68.97 116.21,69.14 116.33,69.32 116.4,69.42 116.45,69.51 116.52,69.64 116.56,69.71 116.56,69.75 116.58,69.8 L 116.64,69.97 C 117.11,71.55 117.54,73.14 118.39,74.51 118.8,75.18 119.35,75.78 120.08,76.04 120.78,76.28 121.62,76.08 122.38,75.82 123.91,75.27 125.34,74.41 126.68,73.46 L 126.74,73.54 Z M 126.74,73.54" />
            </g>
            <g id="kazAveSide01-group1262">
                <path id="kazAveSide01-bezier1683" stroke="none" fill="rgb(0, 0, 0)" d="M 97.52,53.62 C 96.84,53.62 96.11,53.43 95.59,52.9 95.33,52.64 95.2,52.27 95.03,52.02 L 94.5,51.18 C 93.77,50.05 93.01,48.93 92.25,47.82 91.49,46.71 90.67,45.64 89.99,44.48 89.32,43.31 88.67,42.13 88.14,40.86 L 88.23,40.8 C 89.21,41.77 90.04,42.84 90.83,43.93 91.62,45.03 92.26,46.22 92.93,47.39 93.61,48.56 94.28,49.73 94.93,50.92 95.09,51.22 95.24,51.52 95.39,51.83 95.56,52.17 95.62,52.46 95.82,52.7 96.2,53.2 96.87,53.46 97.52,53.52 L 97.52,53.62 Z M 97.52,53.62" />
            </g>
            <g id="kazAveSide01-group1263">
                <path id="kazAveSide01-bezier1684" stroke="none" fill="rgb(0, 0, 0)" d="M 86.81,40.46 C 88.05,39.23 89.44,38.14 90.96,37.24 91.71,36.79 92.5,36.39 93.31,36.03 94.13,35.67 94.97,35.34 95.86,35.19 L 95.5,35.92 C 94.97,34.71 94.47,33.5 94.07,32.21 L 94.16,32.16 C 95.08,33.16 95.79,34.3 96.42,35.46 L 96.73,36.02 96.07,36.19 C 95.26,36.4 94.43,36.56 93.62,36.83 92.82,37.09 92.03,37.43 91.26,37.8 89.73,38.57 88.24,39.45 86.89,40.54 L 86.81,40.46 Z M 86.81,40.46" />
            </g>
            <g id="kazAveSide01-group1264">
                <path id="kazAveSide01-bezier1685" stroke="none" fill="rgb(0, 0, 0)" d="M 95.62,36.46 C 96.75,37.96 97.79,39.53 98.72,41.18 99.18,42 99.69,42.81 100,43.71 100.31,44.61 100.55,45.54 100.58,46.51 L 100.49,46.54 C 99.93,45.75 99.5,44.93 99.08,44.1 98.65,43.28 98.38,42.39 98,41.54 97.25,39.84 96.42,38.17 95.54,36.51 L 95.62,36.46 Z M 95.62,36.46" />
            </g>
            <g id="kazAveSide01-group1265">
                <path id="kazAveSide01-bezier1686" stroke="none" fill="rgb(0, 0, 0)" d="M 101.94,48.72 C 104.44,49.69 106.61,51.51 108.11,53.74 109.71,55.84 111.51,57.81 113.32,59.75 115.15,61.67 117.05,63.54 118.95,65.36 119.42,65.81 119.9,66.27 120.4,66.61 120.83,66.91 121.48,66.99 122.12,67.09 122.77,67.18 123.51,67.28 124.14,67.65 124.76,68.02 125.21,68.58 125.52,69.17 L 125.44,69.23 C 125.01,68.73 124.51,68.28 123.93,68.06 123.36,67.81 122.74,67.8 122.07,67.79 121.4,67.77 120.66,67.74 119.94,67.35 119.31,66.97 118.8,66.54 118.28,66.1 116.24,64.32 114.49,62.3 112.73,60.29 110.98,58.27 109.25,56.23 107.7,54.03 106.34,51.77 104.33,49.9 101.91,48.81 L 101.94,48.72 Z M 101.94,48.72" />
            </g>
            <g id="kazAveSide01-group1266">
                <path id="kazAveSide01-bezier1687" stroke="none" fill="rgb(0, 0, 0)" d="M 94.9,20.31 C 95.13,21.56 95.66,22.76 96.38,23.79 97.09,24.84 98.01,25.66 99.1,26.32 100.18,26.99 101.31,27.57 102.42,28.05 102.97,28.28 103.54,28.46 104.09,28.46 104.64,28.47 105.17,28.17 105.56,27.65 L 105.65,27.69 C 105.58,28.02 105.42,28.33 105.17,28.61 104.91,28.87 104.56,29.05 104.2,29.15 103.46,29.33 102.73,29.18 102.08,28.99 100.76,28.57 99.69,27.75 98.65,26.97 97.58,26.22 96.59,25.21 95.95,24.05 95.31,22.89 94.91,21.62 94.8,20.32 L 94.9,20.31 Z M 94.9,20.31" />
            </g>
            <g id="kazAveSide01-group1267">
                <path id="kazAveSide01-bezier1688" stroke="none" fill="rgb(0, 0, 0)" d="M 106.84,24.65 C 107.51,24.78 108.24,24.84 108.84,24.6 109.14,24.48 109.36,24.26 109.43,23.97 109.51,23.7 109.45,23.36 109.45,23 109.42,21.6 109.42,20.19 109.58,18.77 109.67,18.06 109.77,17.34 110.11,16.6 110.22,16.39 110.27,16.3 110.34,16.15 110.4,16.01 110.45,15.86 110.51,15.71 110.62,15.42 110.71,15.1 110.78,14.79 111.05,13.54 111.24,12.13 110.42,11 L 110.49,10.93 C 111.14,11.28 111.52,12.03 111.7,12.75 111.88,13.48 111.87,14.24 111.76,14.98 111.7,15.34 111.61,15.71 111.48,16.07 111.42,16.24 111.34,16.42 111.25,16.59 111.17,16.76 111.04,16.97 110.98,17.06 110.69,17.57 110.51,18.24 110.37,18.9 110.12,20.23 110.02,21.62 109.95,23.01 109.92,23.34 109.96,23.71 109.81,24.11 109.67,24.5 109.3,24.78 108.94,24.88 108.21,25.09 107.49,24.94 106.82,24.75 L 106.84,24.65 Z M 106.84,24.65" />
            </g>
            <g id="kazAveSide01-group1268">
                <path id="kazAveSide01-bezier1689" stroke="none" fill="rgb(0, 0, 0)" d="M 99.1,21.29 C 98.76,20.66 98.49,20.01 98.33,19.29 98.26,18.94 98.12,18.56 98.25,18.16 98.36,17.79 98.64,17.32 99.12,17.27 L 99.19,17.34 C 99.15,17.76 99.22,18 99.24,18.3 99.27,18.58 99.15,18.89 99.13,19.22 99.11,19.87 99.14,20.56 99.19,21.26 L 99.1,21.29 Z M 99.1,21.29" />
            </g>
            <g id="kazAveSide01-group1269">
                <path id="kazAveSide01-bezier1690" stroke="none" fill="rgb(0, 0, 0)" d="M 94.85,26.44 C 95.06,26.15 95.3,25.88 95.59,25.66 95.73,25.56 95.86,25.37 96.08,25.39 96.27,25.39 96.53,25.47 96.69,25.75 L 96.68,25.85 C 96.52,26.13 96.45,26.25 96.34,26.35 96.23,26.45 96.06,26.38 95.9,26.4 95.59,26.44 95.26,26.48 94.9,26.52 L 94.85,26.44 Z M 94.85,26.44" />
            </g>
            <g id="kazAveSide01-group1270">
                <path id="kazAveSide01-bezier1691" stroke="none" fill="rgb(0, 0, 0)" d="M 86.82,21.28 C 83.81,21.36 80.87,22.2 78.04,23.16 75.19,24.14 72.44,25.33 69.88,26.88 67.3,28.42 64.9,30.22 62.42,31.92 61.17,32.76 59.94,33.64 58.66,34.45 57.37,35.24 56.08,36.1 54.6,36.54 L 54.57,36.45 C 55.24,36.11 55.86,35.69 56.46,35.24 57.07,34.81 57.66,34.35 58.25,33.88 L 61.83,31.11 C 64.25,29.29 66.81,27.65 69.48,26.19 72.14,24.69 74.99,23.57 77.88,22.69 80.79,21.84 83.78,21.13 86.82,21.18 L 86.82,21.28 Z M 86.82,21.28" />
            </g>
            <g id="kazAveSide01-group1271">
                <path id="kazAveSide01-bezier1692" stroke="none" fill="rgb(0, 0, 0)" d="M 54.12,37.46 C 56.11,39.32 58.04,41.25 59.88,43.26 60.8,44.28 61.69,45.32 62.52,46.4 63.35,47.5 64.17,48.61 64.74,49.93 L 64.09,49.79 C 65.05,48.82 66.03,47.88 67.03,46.96 68.03,46.04 69.07,45.16 70.16,44.33 71.26,43.53 72.37,42.73 73.56,42.06 74.75,41.41 76.02,40.73 77.42,40.65 L 77.43,40.75 C 76.78,40.92 76.18,41.21 75.61,41.55 75.03,41.88 74.48,42.25 73.94,42.64 72.86,43.43 71.79,44.25 70.78,45.12 69.74,45.97 68.71,46.84 67.69,47.7 66.66,48.57 65.64,49.46 64.66,50.37 L 64.22,50.77 64,50.23 C 63.53,49.03 62.77,47.89 62,46.79 61.22,45.69 60.37,44.63 59.5,43.59 57.77,41.5 55.95,39.49 54.05,37.53 L 54.12,37.46 Z M 54.12,37.46" />
            </g>
            <g id="kazAveSide01-group1272">
                <path id="kazAveSide01-bezier1693" stroke="none" fill="rgb(0, 0, 0)" d="M 79.37,40.77 C 79.93,40.91 80.51,40.95 81.08,40.94 81.64,40.93 82.2,40.86 82.73,40.72 83.27,40.58 83.74,40.3 84.26,40.15 84.78,39.98 85.3,39.8 85.92,39.67 L 85.98,39.74 C 85.69,40.32 85.21,40.74 84.67,41.06 84.12,41.38 83.47,41.45 82.86,41.5 81.63,41.62 80.4,41.4 79.34,40.87 L 79.37,40.77 Z M 79.37,40.77" />
            </g>
            <g id="kazAveSide01-group1273">
                <path id="kazAveSide01-bezier1694" stroke="none" fill="rgb(0, 0, 0)" d="M 53.13,39.41 C 52.59,40.47 51.93,41.49 51.15,42.43 50.76,42.89 50.39,43.41 49.84,43.73 49.3,44.05 48.67,44.31 48,44.23 L 47.97,44.14 49.24,42.93 C 49.64,42.54 50.14,42.25 50.58,41.87 51.44,41.1 52.27,40.25 53.05,39.35 L 53.13,39.41 Z M 53.13,39.41" />
            </g>
            <g id="kazAveSide01-group1274">
                <path id="kazAveSide01-bezier1695" stroke="none" fill="rgb(0, 0, 0)" d="M 61.63,55.45 C 60.59,54.28 59.47,53.19 58.27,52.19 57.08,51.19 55.81,50.27 54.43,49.58 53.74,49.22 53.02,49.02 52.26,48.72 51.52,48.42 50.81,48.07 50.12,47.67 48.74,46.86 47.47,45.89 46.39,44.65 L 46.87,44.72 C 45.25,45.97 43.74,47.45 42.47,49.06 41.2,50.68 40.17,52.48 39.6,54.4 39.33,55.37 39.18,56.37 39.21,57.35 39.26,58.35 39.46,59.37 39.73,60.35 40,61.35 40.34,62.33 40.78,63.27 41.21,64.21 41.71,65.14 42.44,65.88 L 42.37,65.95 C 41.51,65.32 40.89,64.41 40.34,63.5 39.81,62.57 39.36,61.59 39,60.58 38.66,59.56 38.4,58.51 38.29,57.41 38.19,56.3 38.32,55.19 38.62,54.13 39.19,51.99 40.4,50.13 41.77,48.49 43.16,46.85 44.72,45.4 46.46,44.14 L 46.73,43.95 46.95,44.21 C 47.9,45.36 49.12,46.36 50.42,47.17 51.07,47.58 51.76,47.93 52.46,48.24 53.15,48.53 53.94,48.79 54.63,49.19 56.03,49.95 57.28,50.93 58.45,51.98 59.62,53.04 60.71,54.17 61.71,55.38 L 61.63,55.45 Z M 61.63,55.45" />
            </g>
            <g id="kazAveSide01-group1275">
                <path id="kazAveSide01-bezier1696" stroke="none" fill="rgb(0, 0, 0)" d="M 42.92,67.57 C 43.26,70.58 43.65,73.58 44.08,76.57 44.5,79.57 44.95,82.55 45.5,85.52 45.79,87 46.1,88.48 46.47,89.93 46.65,90.65 46.85,91.37 47.08,92.07 47.28,92.79 47.59,93.36 47.92,94.12 49.05,97.08 49.09,100.33 48.22,103.25 L 48.12,103.23 C 48.43,100.24 48.2,97.17 47,94.52 46.72,93.89 46.31,93.13 46.09,92.39 45.85,91.65 45.67,90.9 45.51,90.15 45.19,88.66 44.94,87.16 44.72,85.65 43.81,79.65 43.25,73.62 42.82,67.58 L 42.92,67.57 Z M 42.92,67.57" />
            </g>
            <g id="kazAveSide01-group1276">
                <path id="kazAveSide01-bezier1697" stroke="none" fill="rgb(0, 0, 0)" d="M 47.62,102.86 C 46.99,104.05 46.42,105.28 45.93,106.53 45.45,107.78 45,109.08 44.94,110.37 44.93,113.04 45.13,115.76 45.22,118.46 45.33,121.16 45.48,123.87 45.35,126.59 45.27,127.94 45.18,129.3 44.98,130.66 44.75,131.99 44.54,133.39 43.83,134.59 L 43.74,134.54 C 43.97,133.91 44.07,133.25 44.14,132.59 44.21,131.93 44.26,131.26 44.28,130.59 44.34,129.25 44.37,127.91 44.35,126.56 L 44.42,118.47 C 44.43,115.77 44.33,113.08 44.44,110.34 44.58,108.93 45.11,107.66 45.65,106.41 46.21,105.18 46.84,103.98 47.53,102.81 L 47.62,102.86 Z M 47.62,102.86" />
            </g>
            <g id="kazAveSide01-group1277">
                <path id="kazAveSide01-bezier1698" stroke="none" fill="rgb(0, 0, 0)" d="M 59.49,64.6 C 60.24,67.37 60.78,70.19 61.19,73.04 61.57,75.88 61.8,78.76 61.83,81.64 61.88,84.52 61.78,87.42 61.26,90.27 60.71,93.11 59.91,95.93 58.58,98.49 L 58.48,98.45 C 59.27,95.69 59.9,92.93 60.27,90.11 60.66,87.31 60.97,84.48 61.03,81.64 61.1,78.79 60.97,75.94 60.69,73.1 60.42,70.25 60.01,67.42 59.39,64.62 L 59.49,64.6 Z M 59.49,64.6" />
            </g>
            <g id="kazAveSide01-group1278">
                <path id="kazAveSide01-bezier1699" stroke="none" fill="rgb(0, 0, 0)" d="M 58.96,99.11 C 59.43,99.63 59.57,100.3 59.75,100.94 59.88,101.58 59.97,102.3 59.84,103 59.71,103.68 59.59,104.35 59.27,104.93 58.95,105.52 58.57,106.07 58.03,106.52 L 57.95,106.48 C 57.99,105.78 58.16,105.15 58.35,104.54 58.52,103.93 58.87,103.39 59.06,102.81 59.27,102.25 59.28,101.65 59.25,101.01 59.22,100.39 59.2,99.7 58.89,99.18 L 58.96,99.11 Z M 58.96,99.11" />
            </g>
            <g id="kazAveSide01-group1279">
                <path id="kazAveSide01-bezier1700" stroke="none" fill="rgb(0, 0, 0)" d="M 58.04,107.43 C 57.32,109.89 56.63,112.37 56.01,114.85 55.49,117.33 54.78,119.85 54.12,122.31 53.44,124.79 52.78,127.26 52.14,129.74 51.53,132.22 50.73,134.7 50.18,137.12 L 50.08,137.6 49.66,137.46 C 48.65,137.15 47.62,136.83 46.59,136.56 46.08,136.44 45.56,136.31 45.04,136.22 44.52,136.14 43.97,136.03 43.49,136.19 L 43.44,136.1 C 43.96,135.82 44.53,135.87 45.07,135.87 45.62,135.88 46.16,135.94 46.7,136.02 47.78,136.19 48.84,136.39 49.89,136.67 L 49.36,137.01 C 49.77,134.39 50.47,131.95 51.19,129.48 L 53.45,122.12 54.57,118.44 C 54.75,117.83 54.95,117.21 55.09,116.61 55.24,115.98 55.42,115.36 55.6,114.74 56.32,112.27 57.12,109.84 57.94,107.4 L 58.04,107.43 Z M 58.04,107.43" />
            </g>
            <g id="kazAveSide01-group1280">
                <path id="kazAveSide01-bezier1701" stroke="none" fill="rgb(0, 0, 0)" d="M 42.86,141.54 C 42.96,140.76 43.07,139.99 43.18,139.23 43.24,138.85 43.21,138.45 43.37,138.1 43.51,137.74 43.7,137.42 43.98,137.07 L 44.08,137.07 C 44.35,137.48 44.36,137.92 44.34,138.32 44.32,138.73 44.1,139.08 43.96,139.44 43.66,140.17 43.33,140.88 42.96,141.57 L 42.86,141.54 Z M 42.86,141.54" />
            </g>
            <g id="kazAveSide01-group1281">
                <path id="kazAveSide01-bezier1702" stroke="none" fill="rgb(0, 0, 0)" d="M 47.15,155.7 C 46.17,154.43 45.11,153.21 43.93,152.15 43.35,151.63 42.72,151.12 42.05,150.85 41.31,150.6 40.5,150.25 39.81,149.77 39.12,149.3 38.37,148.68 38.16,147.63 38.07,147.12 38.19,146.58 38.42,146.15 38.67,145.73 38.99,145.39 39.32,145.11 L 39.55,144.93 C 39.62,144.87 39.73,144.79 39.77,144.74 39.88,144.64 40,144.5 40.11,144.36 40.34,144.08 40.54,143.75 40.75,143.41 41.16,142.76 41.51,141.9 42.32,141.51 L 42.37,141.6 C 42.09,141.87 41.92,142.22 41.79,142.58 41.64,142.95 41.52,143.33 41.38,143.71 41.24,144.1 41.06,144.48 40.84,144.86 40.72,145.05 40.59,145.23 40.42,145.42 40.34,145.52 40.28,145.57 40.2,145.65 L 39.98,145.86 C 39.44,146.35 39.07,146.93 39.14,147.49 39.18,148.07 39.69,148.67 40.28,149.12 40.88,149.59 41.55,149.94 42.31,150.25 43.11,150.64 43.7,151.21 44.28,151.79 45.4,152.98 46.35,154.29 47.23,155.64 L 47.15,155.7 Z M 47.15,155.7" />
            </g>
            <g id="kazAveSide01-group1282">
                <path id="kazAveSide01-bezier1703" stroke="none" fill="rgb(0, 0, 0)" d="M 43.49,142.97 C 43.94,143.39 44.45,143.72 44.97,143.96 45.22,144.09 45.52,144.11 45.74,144.27 45.96,144.45 46.18,144.62 46.43,144.95 L 46.41,145.05 C 46.06,145.26 45.68,145.27 45.35,145.2 45,145.13 44.75,144.85 44.51,144.62 44.01,144.17 43.63,143.63 43.4,143.03 L 43.49,142.97 Z M 43.49,142.97" />
            </g>
            <g id="kazAveSide01-group1283">
                <path id="kazAveSide01-bezier1704" stroke="none" fill="rgb(0, 0, 0)" d="M 47.17,145.45 C 47.58,145.3 48.03,145.18 48.5,145.32 48.73,145.4 48.93,145.6 49,145.83 49.08,146.06 49.12,146.25 49.18,146.47 49.41,147.3 49.67,148.12 49.95,148.93 50.24,149.74 50.54,150.54 50.94,151.27 51.12,151.61 51.41,152 51.59,152.05 L 51.86,152.09 52.2,152.16 C 52.42,152.22 52.63,152.28 52.85,152.35 53.7,152.62 54.54,152.95 55.32,153.51 55.51,153.66 55.71,153.82 55.88,154.04 56.05,154.26 56.23,154.51 56.24,154.95 L 56.24,155.03 C 56.24,155.09 56.22,155.16 56.21,155.22 56.18,155.34 56.14,155.43 56.08,155.52 55.97,155.69 55.83,155.81 55.7,155.89 55.44,156.06 55.19,156.14 54.95,156.21 54.01,156.41 53.14,156.39 52.26,156.34 51.38,156.28 50.52,156.19 49.66,156.05 L 49.66,155.95 C 51.36,155.66 53.17,155.65 54.69,155.24 54.87,155.19 55.03,155.12 55.13,155.05 55.18,155.02 55.2,154.99 55.2,154.98 55.21,154.98 55.21,154.96 55.2,154.98 55.2,154.99 55.2,155.01 55.2,155.01 L 55.2,154.93 C 55.22,154.87 55,154.5 54.71,154.29 54.12,153.79 53.35,153.41 52.59,153.1 52.39,153.03 52.19,152.96 52,152.9 L 51.71,152.82 C 51.6,152.79 51.56,152.8 51.34,152.73 51,152.59 50.86,152.37 50.71,152.17 50.57,151.97 50.46,151.77 50.36,151.57 49.97,150.75 49.72,149.92 49.48,149.08 49.25,148.23 49.06,147.39 48.89,146.54 48.79,146.1 48.81,145.65 48.42,145.51 48.06,145.36 47.61,145.43 47.21,145.54 L 47.17,145.45 Z M 47.17,145.45" />
            </g>
            <g id="kazAveSide01-group1284">
                <path id="kazAveSide01-bezier1705" stroke="none" fill="rgb(0, 0, 0)" d="M 47.14,143.98 C 47.31,142.9 47.52,141.83 47.77,140.77 47.9,140.24 47.95,139.68 48.21,139.19 48.47,138.7 48.75,138.19 49.3,137.85 L 49.38,137.91 C 49.34,138.48 49.28,139.01 49.15,139.53 49.04,140.06 48.74,140.52 48.53,141.02 48.11,142.02 47.68,143.02 47.24,144.01 L 47.14,143.98 Z M 47.14,143.98" />
            </g>
            <g id="kazAveSide01-group1285">
                <path id="kazAveSide01-bezier1706" stroke="none" fill="rgb(0, 0, 0)" d="M 76.45,99.68 L 76.54,112.72 76.64,115.97 76.71,117.58 C 76.73,117.84 76.74,118.12 76.78,118.32 76.79,118.38 76.84,118.57 76.87,118.72 L 76.94,119.14 C 77.04,120.27 77.08,121.35 77.1,122.44 L 77.12,124.06 C 77.14,124.59 77.12,125.17 77.29,125.63 L 77.22,125.7 C 77,125.46 76.95,125.19 76.87,124.92 76.79,124.65 76.73,124.38 76.67,124.11 76.57,123.57 76.48,123.03 76.4,122.49 76.24,121.42 76.14,120.32 75.95,119.29 L 75.88,118.92 C 75.86,118.8 75.83,118.73 75.78,118.52 75.71,118.18 75.7,117.92 75.68,117.64 75.65,117.08 75.65,116.53 75.65,115.99 L 75.74,112.72 C 75.86,108.36 76.08,104.02 76.35,99.68 L 76.45,99.68 Z M 76.45,99.68" />
            </g>
            <g id="kazAveSide01-group1286">
                <path id="kazAveSide01-bezier1707" stroke="none" fill="rgb(0, 0, 0)" d="M 70.37,123.01 C 69.89,120.94 69.39,118.88 68.87,116.82 68.36,114.76 67.84,112.7 67.25,110.68 67.1,110.17 66.94,109.67 66.76,109.19 66.57,108.72 66.38,108.13 66.28,107.59 66.08,106.49 66.07,105.4 66.12,104.32 66.28,102.17 66.64,100.06 67.19,98 L 67.29,98.01 C 67.31,100.15 67.09,102.26 67.12,104.35 67.12,105.39 67.14,106.43 67.26,107.43 67.32,107.94 67.43,108.38 67.61,108.91 67.77,109.43 67.9,109.95 68.02,110.47 69.02,114.62 69.76,118.8 70.47,122.99 L 70.37,123.01 Z M 70.37,123.01" />
            </g>
            <g id="kazAveSide01-group1287">
                <path id="kazAveSide01-bezier1708" stroke="none" fill="rgb(0, 0, 0)" d="M 81.87,135.24 C 82.97,136.33 84.23,137.3 85.62,137.88 86.3,138.17 87.08,138.3 87.84,138.51 88.6,138.7 89.36,138.91 90.11,139.15 90.87,139.39 91.62,139.65 92.37,140.06 92.73,140.28 93.11,140.51 93.42,140.95 93.57,141.17 93.7,141.46 93.68,141.83 93.68,141.87 93.64,142.14 93.57,142.27 93.5,142.42 93.41,142.55 93.31,142.65 92.88,143.05 92.44,143.16 92.02,143.26 91.6,143.34 91.2,143.38 90.79,143.37 89.99,143.38 89.2,143.29 88.42,143.14 L 88.42,143.04 C 89.2,142.9 89.98,142.82 90.73,142.68 91.1,142.6 91.46,142.53 91.8,142.41 92.13,142.3 92.45,142.14 92.58,141.97 92.61,141.93 92.63,141.9 92.64,141.87 92.65,141.82 92.65,141.89 92.66,141.74 92.66,141.72 92.64,141.62 92.56,141.53 92.43,141.32 92.15,141.09 91.85,140.91 91.26,140.51 90.55,140.2 89.84,139.91 89.13,139.62 88.4,139.37 87.66,139.13 86.93,138.88 86.16,138.71 85.42,138.34 83.98,137.59 82.81,136.5 81.8,135.31 L 81.87,135.24 Z M 81.87,135.24" />
            </g>
            <g id="kazAveSide01-group1288">
                <path id="kazAveSide01-bezier1709" stroke="none" fill="rgb(0, 0, 0)" d="M 79.8,143.12 C 79.29,142.83 78.73,142.65 78.19,142.5 77.91,142.42 77.61,142.45 77.37,142.29 77.13,142.14 76.89,141.97 76.66,141.63 L 76.68,141.53 C 77.03,141.33 77.36,141.31 77.68,141.34 78,141.37 78.25,141.6 78.52,141.77 79.05,142.11 79.54,142.52 79.87,143.05 L 79.8,143.12 Z M 79.8,143.12" />
            </g>
            <g id="kazAveSide01-group1289">
                <path id="kazAveSide01-bezier1710" stroke="none" fill="rgb(0, 0, 0)" d="M 61.49,55.93 C 61.3,57.15 61.1,58.37 60.89,59.58 60.78,60.18 60.75,60.81 60.55,61.38 60.36,61.96 60.08,62.53 59.79,63.07 L 59.69,63.09 C 59.44,62.41 59.51,61.78 59.57,61.16 59.64,60.54 59.92,59.97 60.11,59.38 60.5,58.21 60.93,57.05 61.4,55.9 L 61.49,55.93 Z M 61.49,55.93" />
            </g>
            <g id="kazAveSide01-group1290">
                <path id="kazAveSide01-bezier1711" stroke="none" fill="rgb(0, 0, 0)" d="M 61.48,65.88 C 63.23,67.6 64.81,69.48 66.31,71.42 67.78,73.38 69.15,75.43 70.4,77.54 71.66,79.65 72.85,81.82 73.75,84.12 74.62,86.42 75.38,88.78 75.77,91.21 L 75.67,91.24 C 74.73,88.97 73.85,86.71 72.83,84.51 71.83,82.3 70.85,80.08 69.71,77.94 68.55,75.8 67.28,73.72 65.9,71.71 64.52,69.71 63.06,67.75 61.41,65.95 L 61.48,65.88 Z M 61.48,65.88" />
            </g>
            <g id="kazAveSide01-group1291">
                <path id="kazAveSide01-bezier1712" stroke="none" fill="rgb(0, 0, 0)" d="M 76.02,92.07 C 76.42,93.09 76.73,94.13 76.94,95.22 77.04,95.76 77.2,96.32 77.12,96.89 77.04,97.44 76.87,98.04 76.45,98.49 L 76.35,98.46 C 76.24,97.88 76.17,97.38 76.12,96.87 76.06,96.36 76.16,95.83 76.14,95.3 76.12,94.25 76.04,93.17 75.92,92.1 L 76.02,92.07 Z M 76.02,92.07" />
            </g>
            <g id="kazAveSide01-group1292">
                <path id="kazAveSide01-bezier1713" stroke="none" fill="rgb(0, 0, 0)" d="M 66.55,96.68 C 65.96,95.6 65.29,94.56 64.53,93.65 64.14,93.2 63.67,92.85 63.29,92.44 62.9,92.03 62.51,91.66 61.98,91.27 L 62,91.17 C 62.68,91.02 63.39,91.29 63.94,91.67 64.5,92.05 64.84,92.65 65.18,93.18 65.85,94.27 66.32,95.44 66.64,96.65 L 66.55,96.68 Z M 66.55,96.68" />
            </g>
            <g id="kazAveSide01-group1293">
                <path id="kazAveSide01-bezier1714" stroke="none" fill="rgb(0, 0, 0)" d="M 109.95,9.7 C 108.55,8.11 106.63,7.05 104.63,6.44 102.63,5.82 100.48,5.65 98.42,5.86 97.38,5.97 96.37,6.24 95.45,6.69 94.54,7.14 93.75,7.81 93.15,8.62 91.95,10.27 91.5,12.38 91.37,14.44 91.3,15.47 91.36,16.52 91.32,17.61 91.28,18.69 91.2,19.76 91.06,20.83 90.8,22.96 90.32,25.08 89.62,27.12 88.89,29.14 87.99,31.14 86.66,32.87 86,33.73 85.24,34.53 84.34,35.16 83.45,35.78 82.41,36.22 81.33,36.3 L 81.32,36.2 C 83.4,35.74 84.97,34.18 86.1,32.47 87.24,30.73 88.06,28.8 88.67,26.8 89.31,24.81 89.76,22.76 90.08,20.69 90.24,19.66 90.36,18.62 90.42,17.57 90.49,16.54 90.46,15.46 90.57,14.38 90.76,12.24 91.27,10.01 92.63,8.23 93.31,7.35 94.2,6.63 95.2,6.17 96.21,5.7 97.29,5.45 98.36,5.36 100.52,5.21 102.69,5.46 104.73,6.15 106.75,6.85 108.66,7.98 110.03,9.63 L 109.95,9.7 Z M 109.95,9.7" />
            </g>
            <g id="kazAveSide01-group1294">
                <path id="kazAveSide01-bezier1715" stroke="none" fill="rgb(0, 0, 0)" d="M 108.91,11.86 C 108.26,13.17 107.47,14.46 106.26,15.43 105.96,15.67 105.61,15.87 105.23,16 104.86,16.15 104.37,16.16 104.04,16.14 103.31,16.12 102.59,16.14 101.88,16.22 100.48,16.39 99.09,16.82 98.19,17.68 97.73,18.11 97.45,18.69 97.31,19.35 97.18,20.02 97.2,20.75 97.26,21.49 L 97.16,21.51 C 96.83,20.84 96.62,20.09 96.62,19.29 96.6,18.49 96.89,17.64 97.46,17 98.03,16.36 98.78,15.97 99.54,15.75 100.3,15.54 101.07,15.45 101.82,15.43 102.58,15.39 103.33,15.42 104.07,15.49 104.77,15.62 105.38,15.42 105.97,15.03 107.14,14.25 108.06,13.05 108.82,11.81 L 108.91,11.86 Z M 108.91,11.86" />
            </g>
            <g id="kazAveSide01-group1295">
                <path id="kazAveSide01-bezier1716" stroke="none" fill="rgb(0, 0, 0)" d="M 94.28,24.08 C 94.47,26.14 94.46,28.23 94.2,30.31 94.06,31.35 93.94,32.42 93.49,33.41 93.05,34.37 92.41,35.35 91.44,35.87 L 91.37,35.8 C 91.92,34.9 92.25,34 92.55,33.05 92.83,32.11 93.19,31.17 93.41,30.17 93.63,29.18 93.79,28.17 93.91,27.16 94.05,26.14 94.14,25.12 94.18,24.09 L 94.28,24.08 Z M 94.28,24.08" />
            </g>
            <g id="kazAveSide01-group1296">
                <path id="kazAveSide01-bezier1717" stroke="none" fill="rgb(0, 0, 0)" d="M 63.44,50.45 L 62.73,52.12 C 62.62,52.4 62.59,52.71 62.41,52.93 62.23,53.16 62.03,53.32 61.73,53.57 L 61.63,53.57 C 61.38,53.21 61.43,52.81 61.5,52.5 61.58,52.17 61.85,51.95 62.05,51.71 62.45,51.23 62.89,50.79 63.36,50.39 L 63.44,50.45 Z M 63.44,50.45" />
            </g>
            <g id="kazAveSide01-group1297">
                <path id="kazAveSide01-bezier1718" stroke="none" fill="rgb(0, 0, 0)" d="M 89.7,16.01 C 89.41,18.35 88.88,20.67 88.03,22.9 87.59,24.01 87.14,25.16 86.33,26.11 85.55,27.03 84.43,27.89 83.17,27.91 L 83.14,27.81 C 84.2,27.26 84.9,26.42 85.54,25.5 86.15,24.58 86.79,23.63 87.29,22.58 87.8,21.54 88.22,20.46 88.6,19.35 88.99,18.25 89.33,17.13 89.61,15.99 L 89.7,16.01 Z M 89.7,16.01" />
            </g>
        </g>
        <path id="kazAveSide01-bezier1719" stroke="rgb(0, 0, 0)" stroke-width="2" stroke-miterlimit="10" fill="none" d="M 59.19,123.67 L 71.17,134" />
    </g>
</svg>
