<?xml version="1.0" encoding="UTF-8"?>
<!DOCTYPE svg PUBLIC "-//W3C//DTD SVG 1.1//EN" "http://www.w3.org/Graphics/SVG/1.1/DTD/svg11.dtd">
<svg version="1.1" xmlns="http://www.w3.org/2000/svg" xmlns:xlink="http://www.w3.org/1999/xlink" width="160" height="160"  xml:space="preserve" id="kazAveSide07">
    <!-- Generated by PaintCode - http://www.paintcodeapp.com -->
    <g id="kazAveSide07-group">
        <circle id="kazAveSide07-oval61" stroke="rgb(0, 0, 0)" stroke-width="2" stroke-miterlimit="10" fill="none" cx="127.17" cy="126" r="29" />
        <path id="kazAveSide07-bezier1231" stroke="rgb(0, 0, 0)" stroke-width="2" stroke-miterlimit="10" fill="none" d="M 45.3,152.67 C 42.23,154.23 36.15,155 33.5,155 17.48,155 4.5,142.02 4.5,126 4.5,109.98 17.48,97 33.5,97 38.65,97 43.48,98.34 47.68,100.7" />
        <path id="kazAveSide07-bezier1232" stroke="rgb(0, 0, 0)" stroke-width="2" stroke-miterlimit="10" fill="none" d="M 62.5,126.18 C 62.44,135.56 57.93,143.89 50.97,149.15" />
        <path id="kazAveSide07-bezier1233" stroke="rgb(0, 0, 0)" stroke-width="2" stroke-miterlimit="10" fill="none" d="M 58.82,111 C 60.35,113.63 61.46,117.66 62.04,121.17" />
        <circle id="kazAveSide07-oval62" stroke="rgb(0, 0, 0)" stroke-width="2" stroke-miterlimit="10" fill="none" cx="72" cy="133" r="8.33" />
        <circle id="kazAveSide07-oval63" stroke="rgb(0, 0, 0)" stroke-width="2" stroke-miterlimit="10" fill="none" cx="33.5" cy="126" r="2.5" />
        <path id="kazAveSide07-bezier1234" stroke="rgb(0, 0, 0)" stroke-width="2" stroke-miterlimit="10" fill="none" d="M 52.92,129.53 L 72,133" />
        <path id="kazAveSide07-bezier1235" stroke="rgb(0, 0, 0)" stroke-width="2" stroke-miterlimit="10" fill="none" d="M 48.02,95.67 L 33.5,126 44.3,128.1" />
        <path id="kazAveSide07-bezier1236" stroke="rgb(0, 0, 0)" stroke-width="2" stroke-miterlimit="10" fill="none" d="M 111.76,78.83 L 63.67,78.83" />
        <path id="kazAveSide07-bezier1237" stroke="rgb(0, 0, 0)" stroke-width="2" stroke-miterlimit="10" fill="none" d="M 108.17,67.83 L 127.17,126" />
        <path id="kazAveSide07-bezier1238" stroke="rgb(0, 0, 0)" stroke-width="2" stroke-miterlimit="10" fill="none" d="M 114.83,88.23 L 79,123.5" />
        <path id="kazAveSide07-bezier1239" stroke="rgb(0, 0, 0)" stroke-width="2" stroke-miterlimit="10" fill="none" d="M 68.67,122 L 61.26,95.67" />
        <path id="kazAveSide07-bezier1240" stroke="rgb(0, 0, 0)" stroke-width="2" stroke-miterlimit="10" fill="none" d="M 42.87,68.49 C 42.28,68.34 41.81,68.13 41.5,67.83 38.83,65.32 35.58,63.7 40.48,63.52" />
        <path id="kazAveSide07-bezier1241" stroke="rgb(0, 0, 0)" stroke-width="1" stroke-miterlimit="10" fill="none" d="M 44.86,124.67 L 37.56,124.67" />
        <path id="kazAveSide07-bezier1242" stroke="rgb(0, 0, 0)" stroke-width="1" stroke-miterlimit="10" fill="none" d="M 66.94,124.67 L 56.86,124.67" />
        <path id="kazAveSide07-bezier1243" stroke="rgb(0, 0, 0)" stroke-width="1" stroke-miterlimit="10" fill="none" d="M 52.07,135.11 L 63.67,139.04" />
        <path id="kazAveSide07-bezier1244" stroke="rgb(0, 0, 0)" stroke-width="1" stroke-miterlimit="10" fill="none" d="M 35.5,129.5 L 44.28,132.47" />
        <path id="kazAveSide07-bezier1245" stroke="rgb(0, 0, 0)" stroke-width="2" stroke-miterlimit="10" fill="none" d="M 115.23,68.33 C 111.33,68.33 110.29,68.33 110.29,68.33" />
        <path id="kazAveSide07-bezier1246" stroke="rgb(0, 0, 0)" stroke-width="2" stroke-miterlimit="10" fill="none" d="M 125.25,83.79 C 125.25,83.79 129.42,82.75 129.42,77.25 129.42,73.97 128.05,71.42 125.49,69.91" />
        <path id="kazAveSide07-bezier1247" stroke="rgb(0, 0, 0)" stroke-width="2" stroke-miterlimit="10" fill="none" d="M 55.5,122.67 L 64.55,122.67" />
        <path id="kazAveSide07-bezier1248" stroke="rgb(0, 0, 0)" stroke-width="2" stroke-miterlimit="10" fill="none" d="M 81.08,142.92 L 88.91,142.92" />
        <g id="kazAveSide07-group933">
            <g id="kazAveSide07-group934">
                <path id="kazAveSide07-bezier1249" stroke="none" fill="rgb(0, 0, 0)" d="M 122.81,67.66 C 123.43,68.47 124.07,69.28 124.72,70.05 125.04,70.43 125.44,70.74 125.7,71.15 125.99,71.54 126.18,71.96 126.55,72.31 L 126.54,72.41 C 126.24,72.51 125.9,72.41 125.65,72.29 125.39,72.16 125.17,71.99 124.96,71.82 124.54,71.46 124.33,70.96 124.06,70.51 123.54,69.61 123.1,68.67 122.72,67.71 L 122.81,67.66 Z M 122.81,67.66" />
            </g>
            <g id="kazAveSide07-group935">
                <path id="kazAveSide07-bezier1250" stroke="none" fill="rgb(0, 0, 0)" d="M 127.57,72.54 C 126.25,73.55 124.86,74.47 123.31,75.1 122.54,75.39 121.68,75.68 120.78,75.42 119.92,75.15 119.27,74.48 118.8,73.78 117.85,72.35 117.37,70.72 116.85,69.17 L 116.8,69.04 C 116.78,69 116.76,68.93 116.75,68.91 116.72,68.86 116.66,68.78 116.61,68.7 116.5,68.55 116.37,68.4 116.24,68.25 115.98,67.96 115.69,67.67 115.4,67.38 114.81,66.82 114.2,66.27 113.58,65.74 111.08,63.6 108.44,61.63 105.87,59.58 104.6,58.53 103.29,57.53 102,56.51 101.35,56 100.7,55.5 100.04,55.01 99.39,54.51 98.73,54.01 98.02,53.61 L 98.06,53.52 C 99.62,54.13 101,55.06 102.4,55.95 103.8,56.85 105.14,57.82 106.48,58.78 109.14,60.75 111.66,62.9 114.11,65.14 114.72,65.7 115.33,66.27 115.91,66.87 116.2,67.17 116.49,67.48 116.77,67.8 116.9,67.97 117.04,68.14 117.16,68.32 117.23,68.42 117.28,68.51 117.35,68.64 117.38,68.71 117.39,68.75 117.41,68.8 L 117.47,68.97 C 117.94,70.55 118.37,72.14 119.22,73.51 119.63,74.18 120.18,74.78 120.91,75.04 121.61,75.28 122.45,75.08 123.21,74.82 124.74,74.27 126.17,73.41 127.51,72.46 L 127.57,72.54 Z M 127.57,72.54" />
            </g>
            <g id="kazAveSide07-group936">
                <path id="kazAveSide07-bezier1251" stroke="none" fill="rgb(0, 0, 0)" d="M 98.35,52.62 C 97.67,52.62 96.94,52.43 96.42,51.9 96.16,51.64 96.03,51.27 95.86,51.02 L 95.33,50.18 C 94.6,49.05 93.84,47.93 93.08,46.82 92.32,45.71 91.5,44.64 90.82,43.48 90.15,42.31 89.5,41.13 88.97,39.86 L 89.06,39.8 C 90.04,40.77 90.87,41.84 91.66,42.93 92.45,44.03 93.09,45.22 93.76,46.39 94.44,47.56 95.11,48.73 95.76,49.92 95.92,50.22 96.07,50.52 96.22,50.83 96.39,51.17 96.45,51.46 96.65,51.7 97.03,52.2 97.7,52.46 98.35,52.52 L 98.35,52.62 Z M 98.35,52.62" />
            </g>
            <g id="kazAveSide07-group937">
                <path id="kazAveSide07-bezier1252" stroke="none" fill="rgb(0, 0, 0)" d="M 87.65,39.46 C 88.88,38.23 90.27,37.14 91.79,36.24 92.54,35.79 93.33,35.39 94.14,35.03 94.96,34.67 95.8,34.34 96.69,34.19 L 96.33,34.92 C 95.8,33.71 95.3,32.5 94.9,31.21 L 94.99,31.16 C 95.91,32.16 96.62,33.3 97.25,34.46 L 97.56,35.02 96.9,35.19 C 96.09,35.4 95.26,35.56 94.45,35.83 93.65,36.09 92.86,36.43 92.09,36.8 90.56,37.57 89.07,38.45 87.72,39.54 L 87.65,39.46 Z M 87.65,39.46" />
            </g>
            <g id="kazAveSide07-group938">
                <path id="kazAveSide07-bezier1253" stroke="none" fill="rgb(0, 0, 0)" d="M 96.45,35.46 C 97.58,36.96 98.62,38.53 99.55,40.18 100.01,41 100.52,41.81 100.83,42.71 101.13,43.61 101.38,44.54 101.41,45.51 L 101.32,45.54 C 100.76,44.75 100.33,43.93 99.91,43.1 99.48,42.28 99.21,41.39 98.83,40.54 98.08,38.84 97.25,37.17 96.37,35.51 L 96.45,35.46 Z M 96.45,35.46" />
            </g>
            <g id="kazAveSide07-group939">
                <path id="kazAveSide07-bezier1254" stroke="none" fill="rgb(0, 0, 0)" d="M 102.77,47.72 C 105.27,48.69 107.44,50.51 108.94,52.74 110.53,54.84 112.34,56.81 114.15,58.75 115.98,60.67 117.88,62.54 119.78,64.36 120.24,64.81 120.73,65.27 121.22,65.61 121.66,65.91 122.31,65.99 122.95,66.09 123.6,66.18 124.34,66.28 124.97,66.65 125.58,67.02 126.04,67.58 126.35,68.17 L 126.27,68.23 C 125.84,67.73 125.34,67.28 124.76,67.06 124.19,66.81 123.56,66.8 122.9,66.79 122.23,66.77 121.49,66.74 120.77,66.35 120.14,65.97 119.63,65.54 119.11,65.1 117.07,63.32 115.32,61.3 113.56,59.29 111.81,57.27 110.08,55.23 108.53,53.03 107.17,50.77 105.16,48.9 102.74,47.81 L 102.77,47.72 Z M 102.77,47.72" />
            </g>
            <g id="kazAveSide07-group940">
                <path id="kazAveSide07-bezier1255" stroke="none" fill="rgb(0, 0, 0)" d="M 95.73,19.31 C 95.97,20.56 96.49,21.76 97.21,22.79 97.92,23.84 98.84,24.66 99.93,25.32 101.01,25.99 102.15,26.57 103.25,27.05 103.8,27.28 104.38,27.46 104.92,27.46 105.47,27.47 106,27.17 106.39,26.65 L 106.48,26.69 C 106.41,27.02 106.25,27.33 106,27.61 105.74,27.87 105.39,28.05 105.03,28.15 104.29,28.33 103.57,28.18 102.91,27.99 101.59,27.57 100.52,26.75 99.48,25.97 98.41,25.22 97.43,24.21 96.78,23.05 96.14,21.89 95.74,20.62 95.63,19.32 L 95.73,19.31 Z M 95.73,19.31" />
            </g>
            <g id="kazAveSide07-group941">
                <path id="kazAveSide07-bezier1256" stroke="none" fill="rgb(0, 0, 0)" d="M 107.67,23.65 C 108.34,23.78 109.07,23.84 109.67,23.6 109.97,23.48 110.19,23.26 110.26,22.97 110.34,22.7 110.28,22.36 110.28,22 110.25,20.6 110.25,19.19 110.41,17.77 110.5,17.06 110.6,16.34 110.94,15.6 111.05,15.39 111.1,15.3 111.17,15.15 111.23,15.01 111.28,14.86 111.34,14.71 111.45,14.42 111.54,14.1 111.61,13.79 111.88,12.54 112.07,11.13 111.25,10 L 111.32,9.93 C 111.97,10.28 112.36,11.03 112.53,11.75 112.71,12.48 112.7,13.24 112.59,13.98 112.53,14.34 112.44,14.71 112.31,15.07 112.25,15.24 112.17,15.42 112.09,15.59 112,15.76 111.87,15.97 111.81,16.06 111.52,16.57 111.34,17.24 111.2,17.9 110.95,19.23 110.85,20.62 110.78,22.01 110.75,22.34 110.79,22.71 110.64,23.11 110.5,23.5 110.14,23.78 109.77,23.88 109.04,24.09 108.32,23.94 107.65,23.75 L 107.67,23.65 Z M 107.67,23.65" />
            </g>
            <g id="kazAveSide07-group942">
                <path id="kazAveSide07-bezier1257" stroke="none" fill="rgb(0, 0, 0)" d="M 99.93,20.29 C 99.59,19.66 99.32,19.01 99.17,18.29 99.09,17.94 98.95,17.56 99.08,17.16 99.19,16.79 99.47,16.32 99.95,16.27 L 100.02,16.34 C 99.98,16.76 100.05,17 100.07,17.3 100.1,17.58 99.98,17.89 99.96,18.22 99.94,18.87 99.97,19.56 100.03,20.26 L 99.93,20.29 Z M 99.93,20.29" />
            </g>
            <g id="kazAveSide07-group943">
                <path id="kazAveSide07-bezier1258" stroke="none" fill="rgb(0, 0, 0)" d="M 95.68,25.44 C 95.89,25.15 96.13,24.88 96.42,24.66 96.56,24.56 96.69,24.37 96.9,24.39 97.1,24.39 97.36,24.47 97.52,24.75 L 97.51,24.85 C 97.35,25.13 97.28,25.25 97.16,25.35 97.06,25.45 96.89,25.38 96.73,25.4 96.42,25.44 96.09,25.48 95.73,25.52 L 95.68,25.44 Z M 95.68,25.44" />
            </g>
            <g id="kazAveSide07-group944">
                <path id="kazAveSide07-bezier1259" stroke="none" fill="rgb(0, 0, 0)" d="M 87.65,20.28 C 84.64,20.36 81.7,21.2 78.87,22.16 76.02,23.14 73.27,24.33 70.71,25.88 68.13,27.42 65.73,29.22 63.25,30.92 62,31.76 60.77,32.64 59.49,33.45 58.2,34.24 56.91,35.1 55.43,35.54 L 55.4,35.45 C 56.07,35.11 56.69,34.69 57.29,34.24 57.9,33.81 58.49,33.35 59.09,32.88 L 62.66,30.11 C 65.08,28.29 67.64,26.65 70.31,25.19 72.97,23.69 75.82,22.57 78.71,21.69 81.62,20.84 84.61,20.13 87.65,20.18 L 87.65,20.28 Z M 87.65,20.28" />
            </g>
            <g id="kazAveSide07-group945">
                <path id="kazAveSide07-bezier1260" stroke="none" fill="rgb(0, 0, 0)" d="M 54.95,36.46 C 56.94,38.32 58.87,40.25 60.71,42.26 61.63,43.28 62.52,44.32 63.35,45.4 64.18,46.5 65,47.61 65.58,48.93 L 64.92,48.79 C 65.88,47.82 66.86,46.88 67.86,45.96 68.86,45.04 69.9,44.16 70.98,43.33 72.09,42.53 73.2,41.73 74.39,41.06 75.58,40.41 76.85,39.73 78.24,39.65 L 78.26,39.75 C 77.61,39.92 77.01,40.21 76.44,40.55 75.86,40.88 75.31,41.25 74.77,41.64 73.68,42.43 72.62,43.25 71.6,44.12 70.57,44.97 69.54,45.84 68.51,46.7 67.49,47.57 66.47,48.46 65.48,49.37 L 65.05,49.77 64.83,49.23 C 64.36,48.03 63.6,46.89 62.83,45.79 62.05,44.69 61.21,43.63 60.34,42.59 58.61,40.5 56.78,38.49 54.89,36.53 L 54.95,36.46 Z M 54.95,36.46" />
            </g>
            <g id="kazAveSide07-group946">
                <path id="kazAveSide07-bezier1261" stroke="none" fill="rgb(0, 0, 0)" d="M 80.2,39.77 C 80.76,39.91 81.34,39.95 81.91,39.94 82.47,39.93 83.03,39.86 83.56,39.72 84.1,39.58 84.57,39.3 85.09,39.15 85.61,38.98 86.13,38.8 86.75,38.67 L 86.81,38.74 C 86.52,39.32 86.04,39.74 85.5,40.06 84.95,40.38 84.3,40.45 83.69,40.5 82.46,40.62 81.23,40.4 80.17,39.87 L 80.2,39.77 Z M 80.2,39.77" />
            </g>
            <g id="kazAveSide07-group947">
                <path id="kazAveSide07-bezier1262" stroke="none" fill="rgb(0, 0, 0)" d="M 53.96,38.41 C 53.41,39.47 52.76,40.49 51.98,41.43 51.59,41.89 51.22,42.41 50.67,42.73 50.13,43.05 49.5,43.31 48.83,43.23 L 48.8,43.14 50.07,41.93 C 50.47,41.54 50.97,41.25 51.41,40.87 52.27,40.1 53.1,39.25 53.88,38.35 L 53.96,38.41 Z M 53.96,38.41" />
            </g>
            <g id="kazAveSide07-group948">
                <path id="kazAveSide07-bezier1263" stroke="none" fill="rgb(0, 0, 0)" d="M 62.46,54.45 C 61.42,53.28 60.3,52.19 59.1,51.19 57.91,50.19 56.64,49.27 55.26,48.58 54.57,48.22 53.85,48.02 53.09,47.72 52.35,47.42 51.64,47.07 50.95,46.67 49.57,45.86 48.3,44.89 47.22,43.65 L 47.7,43.72 C 46.08,44.97 44.57,46.45 43.3,48.06 42.03,49.68 41,51.48 40.43,53.4 40.16,54.37 40.01,55.37 40.04,56.35 40.09,57.35 40.29,58.37 40.56,59.35 40.83,60.35 41.17,61.33 41.61,62.27 42.04,63.21 42.54,64.14 43.27,64.88 L 43.2,64.95 C 42.33,64.32 41.72,63.41 41.17,62.5 40.64,61.57 40.19,60.59 39.83,59.58 39.49,58.56 39.23,57.51 39.12,56.41 39.02,55.3 39.15,54.19 39.45,53.13 40.02,50.99 41.23,49.13 42.6,47.49 43.99,45.85 45.55,44.4 47.29,43.14 L 47.56,42.95 47.78,43.21 C 48.73,44.36 49.95,45.36 51.25,46.17 51.9,46.58 52.58,46.93 53.29,47.24 53.98,47.53 54.77,47.79 55.46,48.19 56.86,48.95 58.11,49.93 59.28,50.98 60.44,52.04 61.54,53.17 62.53,54.38 L 62.46,54.45 Z M 62.46,54.45" />
            </g>
            <g id="kazAveSide07-group949">
                <path id="kazAveSide07-bezier1264" stroke="none" fill="rgb(0, 0, 0)" d="M 43.75,66.57 C 44.09,69.58 44.48,72.58 44.91,75.57 45.33,78.57 45.78,81.55 46.34,84.52 46.62,86 46.93,87.48 47.3,88.93 47.48,89.65 47.68,90.37 47.91,91.07 48.11,91.79 48.42,92.36 48.75,93.12 49.88,96.08 49.92,99.33 49.05,102.25 L 48.95,102.23 C 49.26,99.24 49.03,96.17 47.83,93.52 47.55,92.89 47.14,92.13 46.92,91.39 46.68,90.65 46.5,89.9 46.34,89.15 46.02,87.66 45.77,86.16 45.55,84.65 44.64,78.65 44.08,72.62 43.65,66.58 L 43.75,66.57 Z M 43.75,66.57" />
            </g>
            <g id="kazAveSide07-group950">
                <path id="kazAveSide07-bezier1265" stroke="none" fill="rgb(0, 0, 0)" d="M 48.45,101.86 C 47.82,103.05 47.25,104.28 46.76,105.53 46.28,106.78 45.83,108.08 45.77,109.37 45.76,112.04 45.96,114.76 46.05,117.46 46.16,120.16 46.31,122.87 46.18,125.59 46.1,126.94 46.01,128.3 45.81,129.66 45.58,130.99 45.37,132.39 44.66,133.59 L 44.57,133.54 C 44.8,132.91 44.9,132.25 44.97,131.59 45.04,130.93 45.09,130.26 45.11,129.59 45.17,128.25 45.2,126.91 45.18,125.56 L 45.25,117.47 C 45.26,114.77 45.16,112.08 45.27,109.34 45.41,107.93 45.94,106.66 46.48,105.41 47.04,104.18 47.67,102.98 48.36,101.81 L 48.45,101.86 Z M 48.45,101.86" />
            </g>
            <g id="kazAveSide07-group951">
                <path id="kazAveSide07-bezier1266" stroke="none" fill="rgb(0, 0, 0)" d="M 60.32,63.6 C 61.07,66.37 61.61,69.19 62.02,72.04 62.4,74.88 62.63,77.76 62.66,80.64 62.71,83.52 62.61,86.42 62.09,89.27 61.54,92.11 60.74,94.93 59.41,97.49 L 59.31,97.45 C 60.1,94.69 60.73,91.93 61.1,89.11 61.49,86.31 61.8,83.48 61.86,80.64 61.93,77.79 61.8,74.94 61.52,72.1 61.25,69.25 60.84,66.42 60.22,63.62 L 60.32,63.6 Z M 60.32,63.6" />
            </g>
            <g id="kazAveSide07-group952">
                <path id="kazAveSide07-bezier1267" stroke="none" fill="rgb(0, 0, 0)" d="M 59.79,98.11 C 60.26,98.63 60.4,99.3 60.58,99.94 60.71,100.58 60.8,101.3 60.67,102 60.54,102.68 60.42,103.35 60.1,103.93 59.78,104.52 59.4,105.07 58.86,105.52 L 58.77,105.48 C 58.82,104.78 58.99,104.15 59.18,103.54 59.35,102.93 59.7,102.39 59.89,101.81 60.09,101.25 60.11,100.65 60.08,100.01 60.04,99.39 60.03,98.7 59.72,98.18 L 59.79,98.11 Z M 59.79,98.11" />
            </g>
            <g id="kazAveSide07-group953">
                <path id="kazAveSide07-bezier1268" stroke="none" fill="rgb(0, 0, 0)" d="M 58.87,106.43 C 58.15,108.89 57.46,111.37 56.84,113.85 56.32,116.33 55.61,118.85 54.95,121.31 54.27,123.79 53.61,126.26 52.97,128.74 52.36,131.22 51.56,133.7 51.01,136.12 L 50.91,136.6 50.49,136.46 C 49.48,136.15 48.45,135.83 47.42,135.56 46.9,135.44 46.39,135.31 45.87,135.22 45.35,135.14 44.8,135.03 44.32,135.19 L 44.27,135.1 C 44.79,134.82 45.36,134.87 45.9,134.87 46.45,134.88 46.99,134.94 47.53,135.02 48.61,135.19 49.67,135.39 50.72,135.67 L 50.19,136.01 C 50.6,133.39 51.3,130.95 52.02,128.48 L 54.28,121.12 55.4,117.44 C 55.58,116.83 55.78,116.21 55.92,115.61 56.07,114.98 56.25,114.36 56.43,113.74 57.15,111.27 57.95,108.84 58.77,106.4 L 58.87,106.43 Z M 58.87,106.43" />
            </g>
            <g id="kazAveSide07-group954">
                <path id="kazAveSide07-bezier1269" stroke="none" fill="rgb(0, 0, 0)" d="M 43.69,140.54 C 43.79,139.76 43.9,138.99 44.01,138.23 44.07,137.85 44.04,137.45 44.19,137.1 44.34,136.74 44.53,136.42 44.81,136.07 L 44.91,136.07 C 45.18,136.48 45.19,136.92 45.17,137.32 45.15,137.73 44.93,138.08 44.78,138.44 44.49,139.17 44.16,139.88 43.79,140.57 L 43.69,140.54 Z M 43.69,140.54" />
            </g>
            <g id="kazAveSide07-group955">
                <path id="kazAveSide07-bezier1270" stroke="none" fill="rgb(0, 0, 0)" d="M 47.98,154.7 C 47,153.43 45.94,152.21 44.76,151.15 44.18,150.63 43.55,150.12 42.88,149.85 42.14,149.6 41.33,149.25 40.64,148.77 39.95,148.3 39.2,147.68 38.99,146.63 38.9,146.12 39.02,145.58 39.25,145.15 39.5,144.73 39.82,144.39 40.15,144.11 L 40.38,143.93 C 40.45,143.87 40.55,143.79 40.6,143.74 40.71,143.64 40.83,143.5 40.94,143.36 41.17,143.08 41.37,142.75 41.58,142.41 41.99,141.76 42.34,140.9 43.15,140.51 L 43.2,140.6 C 42.92,140.87 42.75,141.22 42.62,141.58 42.47,141.95 42.35,142.33 42.21,142.71 42.07,143.1 41.89,143.48 41.67,143.86 41.55,144.05 41.42,144.23 41.25,144.42 41.17,144.52 41.11,144.57 41.03,144.65 L 40.81,144.86 C 40.27,145.35 39.9,145.93 39.97,146.49 40.01,147.07 40.52,147.67 41.11,148.12 41.71,148.59 42.38,148.94 43.14,149.25 43.94,149.64 44.53,150.21 45.11,150.79 46.23,151.98 47.18,153.29 48.06,154.64 L 47.98,154.7 Z M 47.98,154.7" />
            </g>
            <g id="kazAveSide07-group956">
                <path id="kazAveSide07-bezier1271" stroke="none" fill="rgb(0, 0, 0)" d="M 44.32,141.97 C 44.77,142.39 45.28,142.72 45.8,142.96 46.06,143.09 46.35,143.11 46.57,143.27 46.79,143.45 47.01,143.62 47.26,143.95 L 47.24,144.05 C 46.89,144.26 46.51,144.27 46.18,144.2 45.83,144.13 45.58,143.85 45.34,143.62 44.84,143.17 44.46,142.63 44.23,142.03 L 44.32,141.97 Z M 44.32,141.97" />
            </g>
            <g id="kazAveSide07-group957">
                <path id="kazAveSide07-bezier1272" stroke="none" fill="rgb(0, 0, 0)" d="M 48,144.45 C 48.41,144.3 48.86,144.18 49.33,144.32 49.56,144.4 49.76,144.6 49.83,144.83 49.91,145.06 49.95,145.25 50.01,145.47 50.24,146.3 50.5,147.12 50.78,147.93 51.06,148.74 51.37,149.54 51.77,150.27 51.95,150.61 52.24,151 52.42,151.05 L 52.69,151.09 53.03,151.16 C 53.25,151.22 53.46,151.28 53.68,151.35 54.53,151.62 55.37,151.95 56.15,152.51 56.34,152.66 56.53,152.82 56.71,153.04 56.88,153.26 57.06,153.51 57.07,153.95 L 57.07,154.03 C 57.06,154.09 57.05,154.16 57.04,154.22 57.01,154.34 56.97,154.43 56.91,154.52 56.8,154.69 56.66,154.81 56.53,154.89 56.27,155.06 56.02,155.14 55.78,155.21 54.84,155.41 53.97,155.39 53.09,155.34 52.21,155.28 51.35,155.19 50.49,155.05 L 50.49,154.95 C 52.19,154.66 54,154.65 55.52,154.24 55.7,154.19 55.86,154.12 55.96,154.05 56.01,154.02 56.03,153.99 56.03,153.98 56.04,153.98 56.04,153.96 56.03,153.98 56.03,153.99 56.03,154.01 56.03,154.01 L 56.03,153.93 C 56.05,153.87 55.83,153.5 55.54,153.29 54.95,152.79 54.18,152.41 53.41,152.1 53.22,152.03 53.02,151.96 52.83,151.9 L 52.54,151.82 C 52.43,151.79 52.39,151.8 52.17,151.73 51.83,151.59 51.69,151.37 51.54,151.17 51.4,150.97 51.29,150.77 51.19,150.57 50.8,149.75 50.55,148.92 50.31,148.08 50.08,147.23 49.89,146.39 49.72,145.54 49.62,145.1 49.64,144.65 49.25,144.51 48.89,144.36 48.43,144.43 48.04,144.54 L 48,144.45 Z M 48,144.45" />
            </g>
            <g id="kazAveSide07-group958">
                <path id="kazAveSide07-bezier1273" stroke="none" fill="rgb(0, 0, 0)" d="M 47.97,142.98 C 48.14,141.9 48.35,140.83 48.6,139.77 48.73,139.24 48.78,138.68 49.04,138.19 49.3,137.7 49.58,137.19 50.13,136.85 L 50.21,136.91 C 50.17,137.48 50.11,138.01 49.98,138.53 49.87,139.06 49.57,139.52 49.36,140.02 48.94,141.02 48.51,142.02 48.07,143.01 L 47.97,142.98 Z M 47.97,142.98" />
            </g>
            <g id="kazAveSide07-group959">
                <path id="kazAveSide07-bezier1274" stroke="none" fill="rgb(0, 0, 0)" d="M 77.28,98.68 L 77.37,111.72 77.47,114.97 77.54,116.58 C 77.56,116.84 77.57,117.12 77.61,117.32 77.62,117.38 77.67,117.57 77.7,117.72 L 77.77,118.14 C 77.87,119.27 77.91,120.35 77.93,121.44 L 77.95,123.06 C 77.97,123.59 77.95,124.17 78.12,124.63 L 78.05,124.7 C 77.83,124.46 77.78,124.19 77.7,123.92 77.62,123.65 77.56,123.38 77.5,123.11 77.4,122.57 77.31,122.03 77.23,121.49 77.07,120.42 76.97,119.32 76.78,118.29 L 76.71,117.92 C 76.69,117.8 76.66,117.73 76.61,117.52 76.54,117.18 76.53,116.92 76.51,116.64 76.48,116.08 76.48,115.53 76.48,114.99 L 76.57,111.72 C 76.69,107.36 76.91,103.02 77.18,98.68 L 77.28,98.68 Z M 77.28,98.68" />
            </g>
            <g id="kazAveSide07-group960">
                <path id="kazAveSide07-bezier1275" stroke="none" fill="rgb(0, 0, 0)" d="M 71.2,122.01 C 70.72,119.94 70.22,117.88 69.7,115.82 69.19,113.76 68.67,111.7 68.08,109.68 67.93,109.17 67.77,108.67 67.59,108.19 67.4,107.72 67.21,107.13 67.11,106.59 66.91,105.49 66.9,104.4 66.95,103.32 67.1,101.17 67.47,99.06 68.02,97 L 68.12,97.01 C 68.14,99.15 67.92,101.26 67.95,103.35 67.95,104.39 67.97,105.43 68.09,106.43 68.15,106.94 68.26,107.38 68.44,107.91 68.6,108.43 68.73,108.95 68.85,109.47 69.85,113.62 70.59,117.8 71.3,121.99 L 71.2,122.01 Z M 71.2,122.01" />
            </g>
            <g id="kazAveSide07-group961">
                <path id="kazAveSide07-bezier1276" stroke="none" fill="rgb(0, 0, 0)" d="M 82.7,134.24 C 83.8,135.33 85.06,136.3 86.45,136.88 87.13,137.17 87.91,137.3 88.67,137.51 89.43,137.7 90.19,137.91 90.94,138.15 91.7,138.39 92.45,138.65 93.2,139.06 93.56,139.28 93.94,139.51 94.25,139.95 94.4,140.17 94.53,140.46 94.5,140.83 94.51,140.87 94.47,141.14 94.4,141.27 94.33,141.42 94.24,141.55 94.14,141.65 93.71,142.05 93.27,142.16 92.85,142.26 92.43,142.34 92.03,142.38 91.62,142.37 90.81,142.38 90.03,142.29 89.25,142.14 L 89.25,142.04 C 90.03,141.9 90.81,141.82 91.56,141.68 91.93,141.6 92.29,141.53 92.63,141.41 92.96,141.3 93.28,141.14 93.41,140.97 93.44,140.93 93.46,140.9 93.47,140.87 93.48,140.82 93.48,140.89 93.49,140.74 93.49,140.72 93.47,140.62 93.39,140.53 93.26,140.32 92.98,140.09 92.68,139.91 92.09,139.51 91.38,139.2 90.67,138.91 89.96,138.62 89.23,138.37 88.49,138.13 87.76,137.88 86.99,137.71 86.25,137.34 84.81,136.59 83.64,135.5 82.63,134.31 L 82.7,134.24 Z M 82.7,134.24" />
            </g>
            <g id="kazAveSide07-group962">
                <path id="kazAveSide07-bezier1277" stroke="none" fill="rgb(0, 0, 0)" d="M 80.63,142.12 C 80.12,141.83 79.56,141.65 79.02,141.5 78.74,141.42 78.44,141.45 78.2,141.29 77.96,141.14 77.72,140.97 77.49,140.63 L 77.51,140.53 C 77.86,140.33 78.19,140.31 78.51,140.34 78.83,140.37 79.08,140.6 79.35,140.77 79.88,141.11 80.37,141.52 80.7,142.05 L 80.63,142.12 Z M 80.63,142.12" />
            </g>
            <g id="kazAveSide07-group963">
                <path id="kazAveSide07-bezier1278" stroke="none" fill="rgb(0, 0, 0)" d="M 62.32,54.93 C 62.14,56.15 61.93,57.37 61.72,58.58 61.61,59.18 61.58,59.81 61.38,60.38 61.19,60.96 60.91,61.53 60.62,62.07 L 60.52,62.09 C 60.27,61.41 60.34,60.78 60.4,60.16 60.47,59.54 60.75,58.97 60.94,58.38 61.33,57.21 61.76,56.05 62.23,54.9 L 62.32,54.93 Z M 62.32,54.93" />
            </g>
            <g id="kazAveSide07-group964">
                <path id="kazAveSide07-bezier1279" stroke="none" fill="rgb(0, 0, 0)" d="M 62.31,64.88 C 64.06,66.6 65.64,68.48 67.14,70.42 68.61,72.38 69.98,74.43 71.23,76.54 72.49,78.65 73.68,80.82 74.58,83.12 75.45,85.42 76.21,87.78 76.6,90.21 L 76.5,90.24 C 75.56,87.97 74.69,85.71 73.66,83.51 72.66,81.3 71.68,79.08 70.54,76.94 69.38,74.8 68.11,72.72 66.73,70.71 65.35,68.71 63.89,66.75 62.24,64.95 L 62.31,64.88 Z M 62.31,64.88" />
            </g>
            <g id="kazAveSide07-group965">
                <path id="kazAveSide07-bezier1280" stroke="none" fill="rgb(0, 0, 0)" d="M 76.85,91.07 C 77.25,92.09 77.56,93.13 77.77,94.22 77.87,94.76 78.03,95.32 77.95,95.89 77.87,96.44 77.7,97.04 77.28,97.49 L 77.18,97.46 C 77.07,96.88 77,96.38 76.95,95.87 76.89,95.36 76.99,94.83 76.97,94.3 76.95,93.25 76.87,92.17 76.75,91.1 L 76.85,91.07 Z M 76.85,91.07" />
            </g>
            <g id="kazAveSide07-group966">
                <path id="kazAveSide07-bezier1281" stroke="none" fill="rgb(0, 0, 0)" d="M 67.38,95.68 C 66.79,94.6 66.12,93.56 65.36,92.65 64.97,92.2 64.5,91.85 64.12,91.44 63.73,91.03 63.34,90.66 62.81,90.27 L 62.83,90.17 C 63.51,90.02 64.22,90.29 64.77,90.67 65.33,91.05 65.67,91.65 66.01,92.18 66.68,93.27 67.15,94.44 67.47,95.65 L 67.38,95.68 Z M 67.38,95.68" />
            </g>
            <g id="kazAveSide07-group967">
                <path id="kazAveSide07-bezier1282" stroke="none" fill="rgb(0, 0, 0)" d="M 110.78,8.7 C 109.38,7.11 107.46,6.05 105.46,5.44 103.46,4.82 101.31,4.65 99.24,4.86 98.21,4.97 97.2,5.24 96.28,5.69 95.37,6.14 94.58,6.81 93.98,7.62 92.78,9.27 92.33,11.38 92.2,13.44 92.13,14.47 92.19,15.52 92.15,16.61 92.11,17.69 92.03,18.76 91.89,19.83 91.63,21.96 91.15,24.08 90.45,26.12 89.72,28.14 88.81,30.14 87.49,31.87 86.83,32.73 86.07,33.53 85.17,34.16 84.27,34.78 83.24,35.22 82.16,35.3 L 82.14,35.2 C 84.23,34.74 85.8,33.18 86.93,31.47 88.06,29.73 88.89,27.8 89.5,25.8 90.14,23.81 90.59,21.76 90.91,19.69 91.07,18.66 91.19,17.62 91.25,16.57 91.32,15.54 91.29,14.46 91.4,13.38 91.59,11.24 92.1,9.01 93.46,7.23 94.14,6.35 95.03,5.63 96.03,5.17 97.03,4.7 98.12,4.45 99.19,4.36 101.35,4.21 103.52,4.46 105.55,5.15 107.58,5.85 109.49,6.98 110.86,8.63 L 110.78,8.7 Z M 110.78,8.7" />
            </g>
            <g id="kazAveSide07-group968">
                <path id="kazAveSide07-bezier1283" stroke="none" fill="rgb(0, 0, 0)" d="M 109.74,10.86 C 109.08,12.17 108.3,13.46 107.09,14.43 106.79,14.67 106.44,14.87 106.06,15 105.69,15.15 105.2,15.16 104.86,15.14 104.14,15.12 103.42,15.14 102.71,15.22 101.31,15.39 99.92,15.82 99.02,16.68 98.56,17.11 98.28,17.69 98.14,18.35 98.01,19.02 98.03,19.75 98.09,20.49 L 97.99,20.51 C 97.66,19.84 97.45,19.09 97.45,18.29 97.43,17.49 97.72,16.64 98.29,16 98.85,15.36 99.61,14.97 100.37,14.75 101.13,14.54 101.9,14.45 102.65,14.43 103.41,14.39 104.16,14.42 104.9,14.49 105.6,14.62 106.21,14.42 106.8,14.03 107.98,13.25 108.9,12.05 109.65,10.81 L 109.74,10.86 Z M 109.74,10.86" />
            </g>
            <g id="kazAveSide07-group969">
                <path id="kazAveSide07-bezier1284" stroke="none" fill="rgb(0, 0, 0)" d="M 95.11,23.08 C 95.3,25.14 95.29,27.23 95.03,29.31 94.89,30.35 94.76,31.42 94.32,32.41 93.88,33.37 93.24,34.35 92.27,34.87 L 92.2,34.8 C 92.75,33.9 93.08,33 93.38,32.05 93.66,31.11 94.02,30.17 94.24,29.17 94.46,28.18 94.62,27.17 94.74,26.16 94.88,25.14 94.97,24.12 95.01,23.09 L 95.11,23.08 Z M 95.11,23.08" />
            </g>
            <g id="kazAveSide07-group970">
                <path id="kazAveSide07-bezier1285" stroke="none" fill="rgb(0, 0, 0)" d="M 64.28,49.45 L 63.56,51.12 C 63.45,51.4 63.42,51.71 63.24,51.93 63.06,52.16 62.86,52.32 62.56,52.57 L 62.46,52.57 C 62.21,52.21 62.26,51.81 62.33,51.5 62.41,51.17 62.68,50.95 62.88,50.71 63.28,50.23 63.72,49.79 64.19,49.39 L 64.28,49.45 Z M 64.28,49.45" />
            </g>
            <g id="kazAveSide07-group971">
                <path id="kazAveSide07-bezier1286" stroke="none" fill="rgb(0, 0, 0)" d="M 90.53,15.01 C 90.24,17.35 89.71,19.67 88.86,21.9 88.42,23.01 87.97,24.16 87.16,25.11 86.38,26.03 85.26,26.89 84,26.91 L 83.97,26.81 C 85.03,26.26 85.73,25.42 86.37,24.5 86.98,23.58 87.62,22.63 88.12,21.58 88.63,20.54 89.05,19.46 89.43,18.35 89.82,17.25 90.16,16.13 90.44,14.99 L 90.53,15.01 Z M 90.53,15.01" />
            </g>
        </g>
        <path id="kazAveSide07-bezier1287" stroke="rgb(0, 0, 0)" stroke-width="2" stroke-miterlimit="10" fill="none" d="M 60.02,122.67 L 72,133" />
    </g>
</svg>
