<?xml version="1.0" encoding="UTF-8"?>
<!DOCTYPE svg PUBLIC "-//W3C//DTD SVG 1.1//EN" "http://www.w3.org/Graphics/SVG/1.1/DTD/svg11.dtd">
<svg version="1.1" xmlns="http://www.w3.org/2000/svg" xmlns:xlink="http://www.w3.org/1999/xlink" width="160" height="60"  xml:space="preserve" id="kazAveTop04">
    <!-- Generated by PaintCode - http://www.paintcodeapp.com -->
    <g id="kazAveTop04-group">
        <path id="kazAveTop04-bezier747" stroke="rgb(0, 0, 0)" stroke-width="2" stroke-miterlimit="10" fill="none" d="M 117.93,30.63 L 156.27,30.63" />
        <path id="kazAveTop04-bezier748" stroke="rgb(0, 0, 0)" stroke-width="2" stroke-miterlimit="10" fill="none" d="M 2.88,30.63 L 32.89,30.63" />
        <path id="kazAveTop04-bezier749" stroke="rgb(0, 0, 0)" stroke-width="2" stroke-miterlimit="10" fill="none" d="M 127.45,13.62 L 106.2,13.62 106.2,22.5" />
        <path id="kazAveTop04-bezier750" stroke="rgb(0, 0, 0)" stroke-width="2" stroke-miterlimit="10" fill="none" d="M 127.45,46.63 L 106.2,46.63 106.2,46.61 106.2,40.75" />
        <path id="kazAveTop04-bezier751" stroke="rgb(0, 0, 0)" stroke-width="2" stroke-miterlimit="10" fill="none" d="M 35.98,26.12 C 35.98,26.12 34.7,27.44 34.7,30.63 34.7,33.81 35.98,34.75 35.98,34.75" />
        <path id="kazAveTop04-bezier752" stroke="rgb(0, 0, 0)" stroke-width="2" stroke-miterlimit="10" fill="none" d="M 130.73,28.21 L 116.66,28.21" />
        <path id="kazAveTop04-bezier753" stroke="rgb(0, 0, 0)" stroke-width="2" stroke-miterlimit="10" fill="none" d="M 130.73,33.07 L 118.66,33.07" />
        <path id="kazAveTop04-bezier754" stroke="rgb(0, 0, 0)" stroke-width="2" stroke-miterlimit="10" fill="none" d="M 33.35,28.21 L 31.65,28.21" />
        <path id="kazAveTop04-bezier755" stroke="rgb(0, 0, 0)" stroke-width="2" stroke-miterlimit="10" fill="none" d="M 33.35,33.07 L 31.65,33.07" />
        <g id="kazAveTop04-group569">
            <g id="kazAveTop04-group570">
                <path id="kazAveTop04-bezier756" stroke="none" fill="rgb(0, 0, 0)" d="M 105.71,40.31 C 105.09,40.48 104.46,40.72 103.84,40.92 L 102.91,41.23 C 102.59,41.33 102.31,41.44 101.94,41.51 L 101.97,41.51 C 100.56,41.95 99.08,42.24 97.55,42.1 96.79,42.02 96.01,41.83 95.32,41.39 94.98,41.19 94.64,40.8 94.47,40.72 94.22,40.57 93.92,40.48 93.61,40.43 92.31,40.26 90.87,40.54 89.48,40.82 88.07,41.11 86.66,41.48 85.24,41.86 L 85.19,41.76 C 86.46,41 87.82,40.4 89.25,39.94 90.67,39.51 92.18,39.17 93.79,39.49 94.19,39.58 94.6,39.72 94.96,39.98 95.4,40.31 95.49,40.54 95.77,40.74 96.29,41.13 96.95,41.37 97.64,41.49 99.02,41.72 100.5,41.63 101.92,41.34 L 101.87,41.35 101.94,41.33 C 102.22,41.29 102.56,41.17 102.86,41.08 L 103.8,40.79 C 104.43,40.59 105.04,40.38 105.69,40.22 L 105.71,40.31 Z M 105.71,40.31" />
            </g>
            <g id="kazAveTop04-group571">
                <path id="kazAveTop04-bezier757" stroke="none" fill="rgb(0, 0, 0)" d="M 101.21,22.82 C 102.5,22.77 103.79,22.81 105.08,22.82 106.38,22.85 107.68,23.08 108.92,23.52 111.38,24.41 113.61,26.21 114.72,28.7 115.27,29.93 115.51,31.33 115.39,32.68 115.27,34.06 114.74,35.38 113.95,36.49 112.32,38.68 109.76,40.03 107.18,40.28 L 107.16,40.18 C 109.59,39.38 111.8,37.97 113.12,35.92 114.47,33.92 114.9,31.3 113.98,29.01 113.07,26.72 111.06,24.93 108.74,23.99 106.42,22.96 103.76,23.06 101.22,22.92 L 101.21,22.82 Z M 101.21,22.82" />
            </g>
            <g id="kazAveTop04-group572">
                <path id="kazAveTop04-bezier758" stroke="none" fill="rgb(0, 0, 0)" d="M 83.76,19.16 C 85.12,19.13 86.45,19.52 87.72,19.98 88.99,20.46 90.21,21.03 91.43,21.59 92.65,22.15 93.88,22.65 95.07,23.17 96.27,23.66 97.46,24.13 98.8,23.99 L 98.84,24.09 C 98.23,24.45 97.48,24.54 96.78,24.51 96.07,24.48 95.38,24.31 94.72,24.1 93.4,23.68 92.24,22.96 91.07,22.31 89.89,21.66 88.73,21 87.53,20.44 86.33,19.87 85.09,19.37 83.75,19.25 L 83.76,19.16 Z M 83.76,19.16" />
            </g>
            <g id="kazAveTop04-group573">
                <path id="kazAveTop04-bezier759" stroke="none" fill="rgb(0, 0, 0)" d="M 117.74,10.99 C 113.87,11.52 109.99,11.98 106.08,12.2 105.1,12.25 104.12,12.3 103.12,12.26 L 100.21,12.09 C 99.24,12.04 98.28,12 97.32,12.05 96.37,12.1 95.39,12.16 94.52,12.59 L 94.48,12.53 C 95.26,11.87 96.3,11.67 97.27,11.5 98.25,11.37 99.24,11.31 100.23,11.33 101.21,11.34 102.21,11.45 103.16,11.55 104.11,11.63 105.09,11.64 106.06,11.62 109.95,11.53 113.85,11.24 117.74,10.92 L 117.74,10.99 Z M 117.74,10.99" />
            </g>
            <g id="kazAveTop04-group574">
                <path id="kazAveTop04-bezier760" stroke="none" fill="rgb(0, 0, 0)" d="M 97.79,19.67 C 98.61,19.47 99.46,19.26 100.21,18.97 100.98,18.58 101.84,18.4 102.65,18.15 104.29,17.7 105.93,17.26 107.58,16.84 109.23,16.42 110.9,16.08 112.57,15.76 113.4,15.6 114.24,15.46 115.09,15.33 115.94,15.21 116.76,15.06 117.65,15.06 L 117.63,15.13 C 116,15.49 114.35,15.99 112.71,16.38 111.06,16.8 109.42,17.22 107.76,17.57 106.1,17.94 104.44,18.29 102.79,18.7 101.97,18.91 101.15,19.09 100.37,19.4 99.5,19.64 98.66,19.67 97.81,19.75 L 97.79,19.67 Z M 97.79,19.67" />
            </g>
            <g id="kazAveTop04-group575">
                <path id="kazAveTop04-bezier761" stroke="none" fill="rgb(0, 0, 0)" d="M 37.59,30.63 C 37.52,28.96 37.51,27.29 37.56,25.62 37.63,23.96 37.73,22.28 38.18,20.62 38.3,20.2 38.44,19.78 38.71,19.38 38.78,19.28 38.86,19.19 38.96,19.1 39.04,19.02 39.1,18.95 39.21,18.88 39.41,18.72 39.6,18.61 39.81,18.51 40.63,18.11 41.51,17.98 42.37,17.93 44.1,17.86 45.78,18.07 47.45,18.45 L 47.83,18.54 47.82,18.95 C 47.82,19.93 47.78,20.9 47.74,21.87 47.71,22.85 47.63,23.82 47.57,24.79 47.46,26.74 47.27,28.68 47.06,30.63 L 46.96,30.63 C 46.87,29.65 46.82,28.67 46.79,27.7 46.75,26.72 46.72,25.74 46.72,24.77 46.73,23.79 46.7,22.82 46.73,21.84 46.74,20.87 46.77,19.9 46.82,18.92 L 47.19,19.42 C 45.64,19.01 44,18.71 42.39,18.72 40.82,18.75 39.07,19.1 38.74,20.79 38.26,22.33 38.08,24 37.92,25.65 37.78,27.3 37.7,28.96 37.69,30.63 L 37.59,30.63 Z M 37.59,30.63" />
            </g>
            <g id="kazAveTop04-group576">
                <path id="kazAveTop04-bezier762" stroke="none" fill="rgb(0, 0, 0)" d="M 123.54,12.26 C 123.34,11.77 123.09,11.29 122.79,10.87 122.5,10.42 122.13,10.15 121.66,10.03 121.24,9.92 120.75,10.08 120.22,10.1 119.69,10.13 119.15,10.14 118.59,10.03 L 118.57,9.96 C 119.07,9.67 119.58,9.49 120.11,9.36 120.64,9.25 121.25,9.21 121.86,9.46 122.15,9.6 122.38,9.73 122.62,9.96 122.84,10.18 122.98,10.43 123.11,10.68 123.35,11.19 123.5,11.71 123.61,12.24 L 123.54,12.26 Z M 123.54,12.26" />
            </g>
            <g id="kazAveTop04-group577">
                <path id="kazAveTop04-bezier763" stroke="none" fill="rgb(0, 0, 0)" d="M 118.6,15.15 C 119.05,15.29 119.52,15.38 119.95,15.38 120.17,15.38 120.37,15.3 120.55,15.32 L 121.24,15.4 121.29,15.46 C 121.21,15.77 120.94,15.97 120.67,16.06 120.39,16.15 120.1,16.05 119.85,15.97 119.35,15.82 118.92,15.55 118.56,15.22 L 118.6,15.15 Z M 118.6,15.15" />
            </g>
            <g id="kazAveTop04-group578">
                <path id="kazAveTop04-bezier764" stroke="none" fill="rgb(0, 0, 0)" d="M 37.69,30.63 C 37.67,32.28 37.71,33.94 37.82,35.59 37.96,37.22 38.11,38.89 38.6,40.42 38.72,40.79 38.89,41.15 39.11,41.41 39.22,41.55 39.3,41.59 39.51,41.7 39.67,41.77 39.84,41.85 40.03,41.9 40.77,42.12 41.58,42.19 42.38,42.21 44,42.24 45.65,42.07 47.25,41.82 L 46.82,42.33 C 46.77,41.36 46.74,40.38 46.73,39.41 46.7,38.43 46.73,37.46 46.73,36.48 46.72,35.51 46.75,34.53 46.79,33.56 46.82,32.58 46.87,31.6 46.96,30.63 L 47.06,30.63 C 47.27,32.57 47.46,34.51 47.57,36.46 47.63,37.43 47.71,38.4 47.74,39.38 47.78,40.35 47.82,41.32 47.83,42.3 L 47.83,42.76 47.4,42.81 C 45.72,43.01 44.05,43.09 42.35,43 41.5,42.94 40.65,42.84 39.81,42.56 39.6,42.49 39.39,42.4 39.17,42.28 39.02,42.2 38.74,42.02 38.61,41.82 38.31,41.43 38.16,41.01 38.03,40.6 37.56,38.94 37.5,37.27 37.46,35.6 37.43,33.94 37.48,32.28 37.59,30.62 L 37.69,30.63 Z M 37.69,30.63" />
            </g>
            <g id="kazAveTop04-group579">
                <path id="kazAveTop04-bezier765" stroke="none" fill="rgb(0, 0, 0)" d="M 120.36,45.39 C 120.38,46.03 120.43,46.68 120.55,47.27 120.62,47.57 120.76,47.83 120.82,48.05 120.89,48.27 120.91,48.45 121.26,48.64 L 121.27,48.71 C 120.96,49 120.35,48.77 120.15,48.4 119.92,48.05 119.95,47.67 119.95,47.33 119.96,46.65 120.09,46 120.29,45.38 L 120.36,45.39 Z M 120.36,45.39" />
            </g>
            <g id="kazAveTop04-group580">
                <path id="kazAveTop04-bezier766" stroke="none" fill="rgb(0, 0, 0)" d="M 123.61,48.01 C 123.5,48.54 123.35,49.07 123.11,49.57 122.98,49.82 122.84,50.07 122.62,50.29 122.38,50.52 122.15,50.66 121.86,50.79 121.25,51.04 120.64,51.01 120.11,50.89 119.58,50.76 119.06,50.59 118.57,50.29 L 118.58,50.22 C 119.15,50.11 119.69,50.13 120.22,50.15 120.75,50.17 121.24,50.33 121.66,50.22 122.13,50.1 122.5,49.83 122.79,49.38 123.09,48.96 123.34,48.48 123.54,47.99 L 123.61,48.01 Z M 123.61,48.01" />
            </g>
            <g id="kazAveTop04-group581">
                <path id="kazAveTop04-bezier767" stroke="none" fill="rgb(0, 0, 0)" d="M 118.56,45.04 C 118.92,44.7 119.35,44.43 119.85,44.28 120.1,44.2 120.38,44.1 120.67,44.19 120.94,44.28 121.21,44.48 121.29,44.79 L 121.24,44.85 120.55,44.93 C 120.37,44.95 120.17,44.88 119.95,44.87 119.52,44.88 119.05,44.96 118.6,45.1 L 118.56,45.04 Z M 118.56,45.04" />
            </g>
            <g id="kazAveTop04-group582">
                <path id="kazAveTop04-bezier768" stroke="none" fill="rgb(0, 0, 0)" d="M 109.26,36.94 C 107.05,38.27 104.35,38.51 101.82,38.34 100.54,38.26 99.27,38.08 98.01,37.86 96.75,37.64 95.51,37.34 94.28,37.2 91.81,36.88 89.31,36.89 86.85,37.22 84.42,37.59 81.95,38.27 79.84,39.64 L 79.77,39.57 C 80.68,38.64 81.82,38 83,37.46 84.17,36.91 85.43,36.56 86.7,36.3 89.24,35.78 91.89,35.86 94.42,36.31 95.7,36.53 96.92,36.88 98.15,37.15 99.38,37.43 100.62,37.66 101.86,37.79 104.34,38.08 106.95,38.04 109.22,36.85 L 109.26,36.94 Z M 109.26,36.94" />
            </g>
            <g id="kazAveTop04-group583">
                <path id="kazAveTop04-bezier769" stroke="none" fill="rgb(0, 0, 0)" d="M 81.07,22.64 C 82.94,24.58 85.13,26.23 87.55,27.32 88.76,27.86 90.05,28.24 91.34,28.32 92.63,28.41 93.93,28.1 95.24,27.82 97.85,27.23 100.45,26.39 103.22,26.15 104.59,26.05 106.01,26.04 107.37,26.4 108.73,26.72 110,27.39 111,28.32 L 110.94,28.4 C 109.79,27.68 108.54,27.22 107.24,27.03 105.94,26.87 104.63,26.89 103.32,27.09 100.71,27.47 98.1,28.19 95.42,28.67 94.09,28.9 92.7,29.19 91.28,29.02 89.88,28.88 88.55,28.42 87.32,27.81 84.87,26.56 82.77,24.75 80.99,22.71 L 81.07,22.64 Z M 81.07,22.64" />
            </g>
            <g id="kazAveTop04-group584">
                <path id="kazAveTop04-bezier770" stroke="none" fill="rgb(0, 0, 0)" d="M 107.33,34.37 C 104.89,33.97 102.41,34.01 99.95,33.99 L 92.53,34.02 C 90.05,34.03 87.57,34.07 85.09,33.8 83.85,33.65 82.61,33.48 81.39,33.19 80.18,32.88 78.93,32.51 77.93,31.73 L 77.98,31.64 C 79.09,32.16 80.31,32.34 81.52,32.5 82.73,32.65 83.95,32.76 85.17,32.81 87.62,32.94 90.08,33.12 92.55,33.22 L 99.96,33.49 C 102.43,33.64 104.92,33.74 107.35,34.27 L 107.33,34.37 Z M 107.33,34.37" />
            </g>
            <g id="kazAveTop04-group585">
                <path id="kazAveTop04-bezier771" stroke="none" fill="rgb(0, 0, 0)" d="M 86.6,16.45 C 81.98,16.58 77.35,16.9 72.82,17.74 71.69,17.94 70.58,18.25 69.43,18.48 68.29,18.71 67.15,18.91 65.99,19.06 64.83,19.2 63.66,19.3 62.48,19.3 61.29,19.28 60.16,19.28 58.88,18.86 L 59.51,18.38 C 59.84,20.31 60.13,22.24 60.35,24.18 60.54,26.13 60.76,28.07 60.6,30.1 60.31,32.13 59.74,33.96 59.27,35.85 59.03,36.79 58.81,37.73 58.65,38.68 58.49,39.63 58.37,40.6 58.53,41.55 L 58.43,41.57 C 58.13,40.62 58.17,39.61 58.24,38.63 58.31,37.65 58.47,36.68 58.64,35.71 58.96,33.79 59.5,31.87 59.67,30.03 59.73,28.16 59.52,26.21 59.33,24.29 59.13,22.37 58.89,20.44 58.62,18.52 L 58.52,17.76 59.25,18.04 C 60.17,18.39 61.39,18.5 62.49,18.54 63.63,18.57 64.77,18.51 65.91,18.4 68.21,18.2 70.44,17.72 72.74,17.3 77.33,16.57 81.97,16.37 86.59,16.35 L 86.6,16.45 Z M 86.6,16.45" />
            </g>
            <g id="kazAveTop04-group586">
                <path id="kazAveTop04-bezier772" stroke="none" fill="rgb(0, 0, 0)" d="M 58.45,42.15 C 60.73,41.43 63.16,41.26 65.56,41.42 66.76,41.51 67.95,41.69 69.13,41.96 70.31,42.21 71.46,42.61 72.57,42.9 74.84,43.47 77.17,43.83 79.5,44.22 81.83,44.56 84.18,44.86 86.55,45.15 L 86.54,45.25 C 84.16,45.4 81.77,45.34 79.39,45.11 77,44.92 74.63,44.5 72.32,43.8 71.14,43.45 70.08,42.98 68.95,42.68 67.82,42.37 66.67,42.13 65.5,41.98 63.18,41.7 60.78,41.68 58.48,42.25 L 58.45,42.15 Z M 58.45,42.15" />
            </g>
            <g id="kazAveTop04-group587">
                <path id="kazAveTop04-bezier773" stroke="none" fill="rgb(0, 0, 0)" d="M 48.05,42.21 C 49.68,41.82 51.32,41.54 52.99,41.38 53.82,41.3 54.67,41.19 55.51,41.27 56.35,41.35 57.2,41.51 57.98,41.88 L 57.97,41.95 55.49,42.02 C 54.67,42.04 53.85,41.98 53.02,41.98 51.38,42.01 49.72,42.11 48.07,42.28 L 48.05,42.21 Z M 48.05,42.21" />
            </g>
            <g id="kazAveTop04-group588">
                <path id="kazAveTop04-bezier774" stroke="none" fill="rgb(0, 0, 0)" d="M 48.46,19 L 53.22,18.84 C 54.01,18.81 54.8,18.73 55.59,18.77 56.38,18.81 57.17,18.88 57.97,19 L 57.98,19.07 C 57.2,19.36 56.4,19.45 55.6,19.52 54.8,19.58 54.01,19.49 53.21,19.44 51.62,19.36 50.04,19.23 48.46,19.07 L 48.46,19 Z M 48.46,19" />
            </g>
            <g id="kazAveTop04-group589">
                <path id="kazAveTop04-bezier775" stroke="none" fill="rgb(0, 0, 0)" d="M 49.2,27.77 C 50.21,27.81 51.21,27.85 52.2,27.87 52.7,27.88 53.19,27.83 53.68,27.89 54.17,27.96 54.64,28.04 55.15,28.17 L 55.17,28.24 C 54.7,28.53 54.16,28.61 53.65,28.64 53.14,28.68 52.64,28.56 52.14,28.47 51.15,28.31 50.16,28.1 49.19,27.84 L 49.2,27.77 Z M 49.2,27.77" />
            </g>
            <g id="kazAveTop04-group590">
                <path id="kazAveTop04-bezier776" stroke="none" fill="rgb(0, 0, 0)" d="M 48.89,33.46 C 49.91,33.17 50.94,32.92 51.98,32.71 52.5,32.6 53.02,32.46 53.56,32.46 54.09,32.48 54.66,32.48 55.17,32.79 L 55.15,32.86 C 54.63,32.96 54.14,33.12 53.62,33.2 53.11,33.3 52.59,33.28 52.06,33.31 L 48.91,33.53 48.89,33.46 Z M 48.89,33.46" />
            </g>
            <g id="kazAveTop04-group591">
                <path id="kazAveTop04-bezier777" stroke="none" fill="rgb(0, 0, 0)" d="M 120.29,14.88 C 120.09,14.25 119.96,13.61 119.95,12.92 119.95,12.59 119.92,12.2 120.15,11.85 120.35,11.48 120.96,11.25 121.27,11.54 L 121.26,11.62 C 120.91,11.8 120.89,11.98 120.82,12.2 120.76,12.42 120.62,12.68 120.55,12.98 120.43,13.58 120.38,14.22 120.36,14.87 L 120.29,14.88 Z M 120.29,14.88" />
            </g>
            <g id="kazAveTop04-group592">
                <path id="kazAveTop04-bezier778" stroke="none" fill="rgb(0, 0, 0)" d="M 117.1,32.37 C 116.64,32.44 116.27,32.77 116.12,33.17 115.99,33.57 115.89,34.07 115.72,34.5 115.56,34.94 115.42,35.4 115.17,35.8 114.9,36.17 114.62,36.66 114.07,36.74 L 114.06,36.69 C 114.37,36.39 114.52,35.95 114.73,35.56 114.92,35.15 115.18,34.77 115.37,34.36 115.59,33.94 115.71,33.53 115.92,33.08 116.15,32.64 116.61,32.33 117.09,32.32 L 117.1,32.37 Z M 117.1,32.37" />
            </g>
            <g id="kazAveTop04-group593">
                <path id="kazAveTop04-bezier779" stroke="none" fill="rgb(0, 0, 0)" d="M 117.25,32.33 C 117.38,32.27 117.52,32.18 117.58,32.07 117.65,31.95 117.57,31.84 117.46,31.76 117.22,31.59 116.93,31.48 116.66,31.3 116.09,30.95 115.79,30.26 115.68,29.66 115.55,29.08 115.28,28.55 115.04,28.01 114.79,27.47 114.51,26.93 114.18,26.41 L 114.22,26.38 C 114.77,26.72 115.14,27.25 115.48,27.78 115.8,28.33 116,28.95 116.09,29.58 116.15,30.18 116.34,30.73 116.81,31.09 117.04,31.28 117.32,31.42 117.56,31.63 117.69,31.73 117.81,31.96 117.68,32.12 117.57,32.27 117.41,32.33 117.27,32.38 L 117.25,32.33 Z M 117.25,32.33" />
            </g>
            <g id="kazAveTop04-group594">
                <path id="kazAveTop04-bezier780" stroke="none" fill="rgb(0, 0, 0)" d="M 87.21,16.15 C 87.99,14.97 89.25,14.16 90.57,13.66 91.9,13.15 93.33,12.9 94.79,13.02 95.17,13.06 95.5,13.1 95.94,13.3 96.06,13.34 96.35,13.58 96.45,13.73 96.58,13.91 96.68,14.08 96.76,14.26 97.07,14.98 97.2,15.69 97.31,16.4 97.5,17.83 97.48,19.24 97.32,20.65 L 97.28,20.96 97.02,21.04 C 96.39,21.23 95.74,21.42 95.11,21.63 94.8,21.74 94.49,21.87 94.19,21.99 94.04,22.06 93.89,22.13 93.76,22.21 93.64,22.3 93.49,22.4 93.55,22.52 L 93.48,22.58 C 93.3,22.39 93.49,22.14 93.59,22.03 93.72,21.89 93.85,21.78 93.99,21.67 94.27,21.45 94.57,21.28 94.87,21.11 95.47,20.76 96.09,20.47 96.73,20.2 L 96.43,20.59 C 96.43,19.23 96.42,17.85 96.34,16.5 96.3,15.84 96.22,15.16 96.01,14.58 95.96,14.43 95.89,14.31 95.82,14.19 95.72,14.07 95.75,14.05 95.56,13.94 95.37,13.85 95.01,13.74 94.7,13.7 93.4,13.51 92,13.69 90.7,14.06 89.41,14.45 88.14,15.12 87.29,16.21 L 87.21,16.15 Z M 87.21,16.15" />
            </g>
            <g id="kazAveTop04-group595">
                <path id="kazAveTop04-bezier781" stroke="none" fill="rgb(0, 0, 0)" d="M 117.74,49.67 C 113.84,49.35 109.95,49.06 106.06,48.97 105.09,48.95 104.11,48.96 103.16,49.04 102.21,49.14 101.21,49.25 100.23,49.26 99.24,49.28 98.25,49.22 97.26,49.09 96.3,48.92 95.26,48.72 94.48,48.06 L 94.52,48 C 95.38,48.43 96.37,48.49 97.32,48.54 98.28,48.59 99.24,48.55 100.2,48.5 L 103.11,48.33 C 104.12,48.29 105.09,48.34 106.08,48.39 109.99,48.61 113.87,49.08 117.74,49.6 L 117.74,49.67 Z M 117.74,49.67" />
            </g>
            <g id="kazAveTop04-group596">
                <path id="kazAveTop04-bezier782" stroke="none" fill="rgb(0, 0, 0)" d="M 101.84,41.89 C 104.47,42.5 107.12,43.02 109.77,43.56 111.09,43.83 112.43,44.04 113.74,44.37 115.04,44.71 116.36,45.09 117.62,45.46 L 117.65,45.53 C 116.24,45.59 114.92,45.31 113.58,45.11 112.25,44.87 110.94,44.49 109.64,44.15 107.02,43.47 104.4,42.78 101.82,41.96 L 101.84,41.89 Z M 101.84,41.89" />
            </g>
            <g id="kazAveTop04-group597">
                <path id="kazAveTop04-bezier783" stroke="none" fill="rgb(0, 0, 0)" d="M 96.96,42.99 C 96.95,44.13 96.97,45.28 96.54,46.44 96.41,46.72 96.23,47.02 95.89,47.22 95.62,47.37 95.29,47.47 95,47.53 94.4,47.65 93.81,47.68 93.21,47.66 92.03,47.62 90.82,47.47 89.73,46.92 88.66,46.39 87.66,45.55 87.21,44.44 L 87.29,44.38 C 88.17,45.13 89.12,45.63 90.13,46 91.14,46.36 92.18,46.74 93.27,46.86 93.81,46.92 94.37,46.95 94.89,46.88 95.17,46.85 95.4,46.81 95.64,46.71 95.8,46.64 95.97,46.44 96.09,46.22 96.58,45.28 96.73,44.1 96.86,42.98 L 96.96,42.99 Z M 96.96,42.99" />
            </g>
            <g id="kazAveTop04-group598">
                <path id="kazAveTop04-bezier784" stroke="none" fill="rgb(0, 0, 0)" d="M 49,43.16 C 51.49,44.15 54.08,44.89 56.66,45.57 59.26,46.24 61.87,46.84 64.5,47.36 67.12,47.89 69.77,48.32 72.42,48.72 L 80.36,49.94 80.4,49.95 80.42,49.95 C 81.16,50.25 82.04,50.19 82.76,49.78 83.48,49.4 84.16,48.72 84.24,47.85 L 84.32,47.85 C 84.34,48.3 84.17,48.75 83.92,49.13 83.67,49.51 83.34,49.85 82.95,50.1 82.18,50.61 81.15,50.79 80.23,50.49 L 80.29,50.5 C 77.61,50.24 74.94,49.93 72.29,49.46 69.65,49 67.01,48.46 64.39,47.88 61.77,47.29 59.15,46.65 56.58,45.89 54,45.12 51.44,44.3 48.97,43.22 L 49,43.16 Z M 49,43.16" />
            </g>
        </g>
    </g>
</svg>
