<?xml version="1.0" encoding="UTF-8"?>
<!DOCTYPE svg PUBLIC "-//W3C//DTD SVG 1.1//EN" "http://www.w3.org/Graphics/SVG/1.1/DTD/svg11.dtd">
<svg version="1.1" xmlns="http://www.w3.org/2000/svg" xmlns:xlink="http://www.w3.org/1999/xlink" width="160" height="60"  xml:space="preserve" id="kazAveTop03">
    <!-- Generated by PaintCode - http://www.paintcodeapp.com -->
    <g id="kazAveTop03-group">
        <path id="kazAveTop03-bezier668" stroke="rgb(0, 0, 0)" stroke-width="2" stroke-miterlimit="10" fill="none" d="M 112.17,30.63 L 156.51,30.63" />
        <path id="kazAveTop03-bezier669" stroke="rgb(0, 0, 0)" stroke-width="2" stroke-miterlimit="10" fill="none" d="M 3.13,30.63 L 33.14,30.63" />
        <path id="kazAveTop03-bezier670" stroke="rgb(0, 0, 0)" stroke-width="2" stroke-miterlimit="10" fill="none" d="M 127.7,13.62 L 106.45,13.62 106.45,20.5" />
        <path id="kazAveTop03-bezier671" stroke="rgb(0, 0, 0)" stroke-width="2" stroke-miterlimit="10" fill="none" d="M 127.7,46.63 L 106.45,46.63 106.45,46.61 106.45,35.75" />
        <path id="kazAveTop03-bezier672" stroke="rgb(0, 0, 0)" stroke-width="2" stroke-miterlimit="10" fill="none" d="M 36.22,26.12 C 36.22,26.12 34.95,27.44 34.95,30.63 34.95,33.81 36.22,34.75 36.22,34.75" />
        <path id="kazAveTop03-bezier673" stroke="rgb(0, 0, 0)" stroke-width="2" stroke-miterlimit="10" fill="none" d="M 126.86,28.21 L 112.85,28.21" />
        <path id="kazAveTop03-bezier674" stroke="rgb(0, 0, 0)" stroke-width="2" stroke-miterlimit="10" fill="none" d="M 126.86,33.07 L 110.85,33.07" />
        <path id="kazAveTop03-bezier675" stroke="rgb(0, 0, 0)" stroke-width="2" stroke-miterlimit="10" fill="none" d="M 33.6,28.21 L 31.9,28.21" />
        <path id="kazAveTop03-bezier676" stroke="rgb(0, 0, 0)" stroke-width="2" stroke-miterlimit="10" fill="none" d="M 33.6,33.07 L 31.9,33.07" />
        <g id="kazAveTop03-group506">
            <g id="kazAveTop03-group507">
                <path id="kazAveTop03-bezier677" stroke="none" fill="rgb(0, 0, 0)" d="M 102.15,36.36 C 100.52,36.67 98.88,36.89 97.21,36.96 95.55,36.99 93.86,36.94 92.19,36.41 91.79,36.29 91.35,36.09 91,35.89 90.69,35.74 90.42,35.71 90.23,35.82 89.8,36.04 89.45,36.82 89.22,37.53 88.72,39.03 88.47,40.66 88.14,42.29 L 88.04,42.29 C 87.82,40.62 87.86,38.94 88.26,37.25 88.38,36.83 88.52,36.41 88.74,36 88.97,35.6 89.28,35.16 89.84,34.91 90.42,34.67 91.04,34.86 91.44,35.12 91.79,35.34 92.1,35.51 92.47,35.66 93.93,36.23 95.58,36.4 97.21,36.46 98.84,36.53 100.49,36.44 102.13,36.27 L 102.15,36.36 Z M 102.15,36.36" />
            </g>
            <g id="kazAveTop03-group508">
                <path id="kazAveTop03-bezier678" stroke="none" fill="rgb(0, 0, 0)" d="M 96.5,19.48 C 97.76,19.32 99.01,19.26 100.27,19.16 101.54,19.09 102.83,19.23 104.07,19.59 106.53,20.31 108.79,21.98 110,24.34 110.61,25.52 110.93,26.85 110.92,28.18 110.92,29.53 110.54,30.86 109.88,32.02 108.52,34.32 106.18,35.92 103.68,36.39 L 103.65,36.3 C 105.94,35.29 107.93,33.67 109,31.54 110.1,29.45 110.29,26.89 109.28,24.69 108.28,22.51 106.24,20.85 103.92,20.06 101.59,19.19 99.01,19.5 96.52,19.58 L 96.5,19.48 Z M 96.5,19.48" />
            </g>
            <g id="kazAveTop03-group509">
                <path id="kazAveTop03-bezier679" stroke="none" fill="rgb(0, 0, 0)" d="M 80.85,17.18 C 81.97,16.92 83.12,16.65 84.31,16.66 85.5,16.66 86.71,16.91 87.78,17.49 88.31,17.77 88.81,18.12 89.26,18.52 89.71,18.91 90.14,19.27 90.6,19.6 91.05,19.92 91.53,20.22 92.01,20.39 92.24,20.47 92.48,20.52 92.62,20.5 92.76,20.48 92.81,20.41 92.83,20.4 L 94.29,19.7 93.17,20.04 C 94.13,19.75 95.06,19.95 95.87,20.13 96.7,20.35 97.47,20.58 98.31,20.61 L 98.32,20.71 C 97.5,21.01 96.58,20.92 95.76,20.88 94.93,20.81 94.14,20.79 93.48,21.01 L 93.82,20.65 C 93.67,21.21 93.15,21.51 92.71,21.52 92.28,21.54 91.94,21.42 91.64,21.28 91.04,20.99 90.57,20.61 90.11,20.22 89.65,19.84 89.22,19.41 88.82,19.01 88.42,18.62 87.98,18.27 87.5,17.99 86.54,17.41 85.44,17.08 84.31,17.01 83.17,16.92 82.01,17.1 80.87,17.28 L 80.85,17.18 Z M 80.85,17.18" />
            </g>
            <g id="kazAveTop03-group510">
                <path id="kazAveTop03-bezier680" stroke="none" fill="rgb(0, 0, 0)" d="M 117.99,10.99 C 116.51,11.14 115.03,11.3 113.54,11.41 112.04,11.51 110.6,11.65 109.03,11.61 107.61,11.44 106.11,11.55 104.64,11.54 103.9,11.57 103.17,11.6 102.43,11.65 101.71,11.73 100.95,11.75 100.29,12.05 L 100.24,11.99 C 100.87,11.52 101.64,11.37 102.37,11.21 103.11,11.05 103.85,10.95 104.6,10.88 105.35,10.8 106.1,10.75 106.85,10.75 107.59,10.74 108.37,10.74 109.12,10.9 110.52,11.05 112.05,11 113.52,10.99 L 117.98,10.92 117.99,10.99 Z M 117.99,10.99" />
            </g>
            <g id="kazAveTop03-group511">
                <path id="kazAveTop03-bezier681" stroke="none" fill="rgb(0, 0, 0)" d="M 99.11,17.76 C 100.68,17.63 102.26,17.47 103.83,17.27 104.62,17.17 105.4,17.07 106.18,16.94 106.57,16.88 106.95,16.81 107.33,16.71 107.51,16.67 107.7,16.62 107.86,16.55 108,16.48 108.25,16.37 108.43,16.32 109.98,15.86 111.53,15.52 113.11,15.27 114.69,15.07 116.26,14.87 117.89,15.06 L 117.87,15.13 C 116.34,15.42 114.78,15.78 113.23,16.03 111.67,16.28 110.08,16.42 108.58,16.81 108.38,16.87 108.26,16.91 108.04,17 107.83,17.08 107.63,17.12 107.43,17.17 107.03,17.25 106.64,17.3 106.24,17.35 105.45,17.46 104.66,17.53 103.86,17.58 102.28,17.7 100.7,17.78 99.11,17.84 L 99.11,17.76 Z M 99.11,17.76" />
            </g>
            <g id="kazAveTop03-group512">
                <path id="kazAveTop03-bezier682" stroke="none" fill="rgb(0, 0, 0)" d="M 89.69,16.4 C 92.04,15.01 94.26,13.41 96.44,11.79 L 96.73,11.57 96.92,11.91 C 97.22,12.43 97.47,12.96 97.73,13.5 97.97,14.05 98.21,14.59 98.38,15.17 98.7,16.32 98.82,17.56 98.53,18.75 L 98.43,18.75 97.39,15.46 C 97.09,14.37 96.79,13.24 96.34,12.21 L 96.82,12.32 C 94.54,13.86 92.19,15.27 89.74,16.49 L 89.69,16.4 Z M 89.69,16.4" />
            </g>
            <g id="kazAveTop03-group513">
                <path id="kazAveTop03-bezier683" stroke="none" fill="rgb(0, 0, 0)" d="M 37.21,30.63 C 37.14,28.89 37.13,27.16 37.22,25.42 37.34,23.68 37.46,21.93 38.13,20.23 38.31,19.82 38.55,19.37 38.96,19.05 39.31,18.77 39.77,18.53 40.19,18.38 41.06,18.07 41.97,17.96 42.86,17.92 44.65,17.86 46.39,18.06 48.14,18.45 L 48.53,18.53 48.52,18.96 C 48.48,20.91 48.36,22.85 48.22,24.8 48.16,25.77 48.07,26.74 47.98,27.71 47.91,28.68 47.79,29.66 47.69,30.63 L 47.59,30.63 C 47.5,29.65 47.45,28.67 47.43,27.7 47.41,26.72 47.38,25.74 47.39,24.77 47.38,22.82 47.4,20.87 47.51,18.92 L 47.89,19.43 C 46.26,19.03 44.55,18.73 42.87,18.72 42.04,18.73 41.19,18.8 40.42,19.05 40.03,19.18 39.7,19.33 39.36,19.58 39.07,19.78 38.86,20.11 38.68,20.48 38.02,21.99 37.8,23.75 37.59,25.45 37.41,27.16 37.32,28.89 37.31,30.63 L 37.21,30.63 Z M 37.21,30.63" />
            </g>
            <g id="kazAveTop03-group514">
                <path id="kazAveTop03-bezier684" stroke="none" fill="rgb(0, 0, 0)" d="M 123.79,12.26 C 123.59,11.77 123.34,11.29 123.04,10.87 122.75,10.42 122.38,10.15 121.91,10.03 121.49,9.92 121,10.08 120.47,10.1 119.94,10.13 119.4,10.14 118.83,10.03 L 118.82,9.96 C 119.31,9.67 119.83,9.49 120.36,9.36 120.88,9.25 121.5,9.21 122.11,9.46 122.4,9.6 122.63,9.73 122.87,9.96 123.08,10.18 123.23,10.43 123.36,10.68 123.6,11.19 123.75,11.71 123.86,12.24 L 123.79,12.26 Z M 123.79,12.26" />
            </g>
            <g id="kazAveTop03-group515">
                <path id="kazAveTop03-bezier685" stroke="none" fill="rgb(0, 0, 0)" d="M 118.85,15.15 C 119.3,15.29 119.77,15.38 120.2,15.38 120.42,15.38 120.61,15.3 120.8,15.32 L 121.49,15.4 121.54,15.46 C 121.45,15.77 121.19,15.97 120.91,16.06 120.63,16.15 120.35,16.05 120.1,15.97 119.6,15.82 119.17,15.55 118.81,15.22 L 118.85,15.15 Z M 118.85,15.15" />
            </g>
            <g id="kazAveTop03-group516">
                <path id="kazAveTop03-bezier686" stroke="none" fill="rgb(0, 0, 0)" d="M 117.98,49.33 L 113.53,49.21 C 112.05,49.2 110.53,49.12 109.1,49.25 108.37,49.41 107.59,49.41 106.85,49.45 106.1,49.47 105.35,49.48 104.6,49.43 103.85,49.38 103.1,49.25 102.36,49.11 101.63,48.92 100.85,48.77 100.24,48.26 L 100.29,48.2 C 100.97,48.46 101.72,48.47 102.44,48.53 103.17,48.6 103.91,48.61 104.65,48.65 106.11,48.72 107.6,48.93 109.04,48.74 110.59,48.67 112.04,48.8 113.54,48.89 L 117.99,49.26 117.98,49.33 Z M 117.98,49.33" />
            </g>
            <g id="kazAveTop03-group517">
                <path id="kazAveTop03-bezier687" stroke="none" fill="rgb(0, 0, 0)" d="M 99.11,42.41 C 100.7,42.46 102.28,42.51 103.87,42.62 104.66,42.68 105.45,42.75 106.25,42.84 106.64,42.89 107.04,42.94 107.44,43.02 107.65,43.06 107.85,43.1 108.07,43.18 L 108.34,43.29 108.6,43.37 C 110.09,43.73 111.68,43.94 113.22,44.26 114.77,44.53 116.33,44.89 117.87,45.12 L 117.89,45.19 C 117.07,45.29 116.29,45.22 115.49,45.18 114.69,45.14 113.9,45.04 113.11,44.95 111.53,44.76 109.97,44.5 108.4,44.01 108.3,43.98 108.21,43.94 108.1,43.9 107.98,43.85 107.89,43.8 107.83,43.77 107.68,43.71 107.49,43.65 107.31,43.61 106.94,43.51 106.55,43.44 106.17,43.37 105.39,43.24 104.61,43.13 103.82,43.03 102.26,42.83 100.68,42.64 99.1,42.49 L 99.11,42.41 Z M 99.11,42.41" />
            </g>
            <g id="kazAveTop03-group518">
                <path id="kazAveTop03-bezier688" stroke="none" fill="rgb(0, 0, 0)" d="M 86.41,43.76 C 89.38,44.86 92.33,46.02 95.26,47.21 L 94.85,47.3 C 95.46,46.53 96,45.66 96.42,44.76 96.84,43.87 97.14,42.93 97.32,41.99 L 97.62,42.54 C 96.62,42.1 95.68,41.57 94.77,40.98 94.32,40.67 93.88,40.34 93.46,39.98 93.06,39.61 92.63,39.21 92.45,38.67 L 92.54,38.63 C 92.85,39.04 93.31,39.32 93.75,39.58 94.2,39.85 94.67,40.09 95.15,40.31 96.09,40.77 97.07,41.18 98.03,41.6 L 98.38,41.75 98.33,42.15 C 98.18,43.24 97.74,44.25 97.23,45.18 96.7,46.11 96.1,46.97 95.39,47.78 L 95.21,47.98 94.98,47.87 86.37,43.85 86.41,43.76 Z M 86.41,43.76" />
            </g>
            <g id="kazAveTop03-group519">
                <path id="kazAveTop03-bezier689" stroke="none" fill="rgb(0, 0, 0)" d="M 37.31,30.63 C 37.28,32.36 37.32,34.08 37.46,35.8 37.63,37.49 37.82,39.26 38.51,40.74 38.69,41.1 38.93,41.42 39.22,41.57 39.58,41.76 39.94,41.86 40.35,41.96 41.16,42.14 42.01,42.2 42.85,42.21 44.55,42.23 46.27,42.05 47.94,41.81 L 47.51,42.33 C 47.4,40.39 47.38,38.44 47.39,36.49 47.37,35.51 47.41,34.53 47.43,33.56 47.45,32.58 47.5,31.6 47.59,30.63 L 47.69,30.63 C 47.79,31.6 47.91,32.57 47.98,33.54 48.07,34.51 48.16,35.48 48.22,36.46 48.36,38.4 48.48,40.35 48.52,42.3 L 48.53,42.77 48.09,42.82 C 46.33,43.03 44.59,43.1 42.83,43.01 41.95,42.96 41.06,42.87 40.19,42.65 39.76,42.54 39.29,42.38 38.89,42.15 38.42,41.86 38.16,41.42 37.97,41.01 37.25,39.31 37.18,37.55 37.09,35.82 37.04,34.09 37.09,32.35 37.21,30.62 L 37.31,30.63 Z M 37.31,30.63" />
            </g>
            <g id="kazAveTop03-group520">
                <path id="kazAveTop03-bezier690" stroke="none" fill="rgb(0, 0, 0)" d="M 120.61,45.39 C 120.63,46.03 120.68,46.68 120.8,47.27 120.87,47.57 121.01,47.83 121.07,48.05 121.14,48.27 121.16,48.45 121.51,48.64 L 121.52,48.71 C 121.21,49 120.6,48.77 120.4,48.4 120.17,48.05 120.2,47.67 120.2,47.33 120.21,46.65 120.34,46 120.54,45.38 L 120.61,45.39 Z M 120.61,45.39" />
            </g>
            <g id="kazAveTop03-group521">
                <path id="kazAveTop03-bezier691" stroke="none" fill="rgb(0, 0, 0)" d="M 123.86,48.01 C 123.75,48.54 123.6,49.07 123.36,49.57 123.23,49.82 123.08,50.07 122.87,50.29 122.63,50.52 122.4,50.66 122.11,50.79 121.5,51.04 120.88,51.01 120.36,50.89 119.83,50.76 119.31,50.59 118.82,50.29 L 118.83,50.22 C 119.4,50.11 119.94,50.13 120.47,50.15 121,50.17 121.49,50.33 121.91,50.22 122.37,50.1 122.75,49.83 123.04,49.38 123.34,48.96 123.59,48.48 123.79,47.99 L 123.86,48.01 Z M 123.86,48.01" />
            </g>
            <g id="kazAveTop03-group522">
                <path id="kazAveTop03-bezier692" stroke="none" fill="rgb(0, 0, 0)" d="M 118.81,45.04 C 119.17,44.7 119.6,44.43 120.1,44.28 120.35,44.2 120.63,44.1 120.91,44.19 121.19,44.28 121.45,44.48 121.54,44.79 L 121.49,44.85 120.8,44.93 C 120.61,44.95 120.42,44.88 120.2,44.87 119.77,44.88 119.3,44.96 118.85,45.1 L 118.81,45.04 Z M 118.81,45.04" />
            </g>
            <g id="kazAveTop03-group523">
                <path id="kazAveTop03-bezier693" stroke="none" fill="rgb(0, 0, 0)" d="M 106.42,32.83 C 105.59,33.8 104.53,34.64 103.29,35.1 102.06,35.56 100.73,35.71 99.43,35.68 98.12,35.64 96.83,35.44 95.56,35.18 94.28,34.89 93.08,34.53 91.84,34.41 89.36,34.14 86.86,34.48 84.58,35.44 82.32,36.43 80.25,37.99 78.74,40.05 L 78.66,40.01 C 79.19,38.81 80.02,37.78 80.96,36.87 81.9,35.94 83.01,35.19 84.19,34.6 86.57,33.39 89.37,33.08 91.96,33.52 93.27,33.7 94.53,34.14 95.73,34.46 96.96,34.78 98.2,35.03 99.46,35.12 100.71,35.21 101.98,35.15 103.18,34.78 104.39,34.41 105.46,33.67 106.35,32.75 L 106.42,32.83 Z M 106.42,32.83" />
            </g>
            <g id="kazAveTop03-group524">
                <path id="kazAveTop03-bezier694" stroke="none" fill="rgb(0, 0, 0)" d="M 77.58,20.94 C 79.22,22.61 81.13,24.06 83.24,25.01 84.29,25.48 85.41,25.79 86.53,25.81 87.09,25.82 87.64,25.76 88.17,25.62 88.73,25.47 89.28,25.28 89.82,25.09 92.01,24.3 94.15,23.25 96.55,22.77 97.73,22.55 98.99,22.43 100.21,22.69 101.42,22.92 102.54,23.51 103.41,24.33 L 103.35,24.41 C 102.34,23.81 101.24,23.43 100.11,23.34 98.99,23.27 97.86,23.4 96.76,23.7 94.55,24.29 92.38,25.22 90.1,25.91 89.53,26.08 88.95,26.24 88.36,26.38 87.75,26.51 87.12,26.55 86.5,26.51 85.26,26.43 84.08,26.03 83.01,25.49 80.87,24.39 79.06,22.79 77.51,21.01 L 77.58,20.94 Z M 77.58,20.94" />
            </g>
            <g id="kazAveTop03-group525">
                <path id="kazAveTop03-bezier695" stroke="none" fill="rgb(0, 0, 0)" d="M 96.09,30.92 C 94.18,30.69 92.26,30.9 90.35,31.07 L 84.61,31.63 C 82.69,31.81 80.76,32.03 78.81,31.93 77.83,31.88 76.85,31.79 75.89,31.57 74.94,31.35 73.94,31.05 73.19,30.37 L 73.25,30.29 C 75,31.04 76.94,30.92 78.82,30.93 80.72,30.89 82.64,30.9 84.55,30.83 L 90.32,30.57 C 92.25,30.54 94.2,30.46 96.1,30.82 L 96.09,30.92 Z M 96.09,30.92" />
            </g>
            <g id="kazAveTop03-group526">
                <path id="kazAveTop03-bezier696" stroke="none" fill="rgb(0, 0, 0)" d="M 89.73,15 C 86.75,15.11 83.79,15.19 80.82,15.42 77.86,15.65 74.9,15.95 72.02,16.61 70.59,16.94 69.19,17.49 67.73,17.83 66.28,18.2 64.81,18.5 63.33,18.72 60.36,19.16 57.37,19.35 54.33,19.12 L 54.82,18.57 C 55.31,20.46 55.76,22.36 56.15,24.28 56.5,26.21 56.89,28.12 56.89,30.16 56.77,32.2 56.36,34.07 56.05,36 55.89,36.95 55.76,37.91 55.67,38.87 55.59,39.83 55.55,40.8 55.8,41.73 L 55.7,41.77 C 55.32,40.84 55.28,39.83 55.26,38.85 55.25,37.87 55.33,36.89 55.42,35.91 55.57,33.97 55.94,32.01 55.96,30.16 55.86,28.3 55.49,26.37 55.13,24.48 54.77,22.58 54.38,20.67 53.95,18.78 L 53.8,18.16 54.44,18.23 C 57.32,18.55 60.32,18.43 63.24,18.07 64.7,17.88 66.16,17.62 67.6,17.29 69.04,16.99 70.44,16.48 71.92,16.17 74.85,15.56 77.83,15.31 80.8,15.14 83.78,14.97 86.76,14.94 89.73,14.9 L 89.73,15 Z M 89.73,15" />
            </g>
            <g id="kazAveTop03-group527">
                <path id="kazAveTop03-bezier697" stroke="none" fill="rgb(0, 0, 0)" d="M 55.77,42.34 C 58.26,41.66 60.81,41.2 63.38,40.95 65.96,40.72 68.57,40.71 71.16,41.13 72.48,41.34 73.68,41.67 74.95,41.84 76.21,42.03 77.47,42.21 78.73,42.36 81.26,42.7 83.82,42.89 86.39,43.15 L 86.39,43.25 C 83.81,43.56 81.22,43.52 78.63,43.35 77.34,43.24 76.05,43.07 74.78,42.82 73.5,42.58 72.23,42.18 71.02,41.92 68.54,41.42 65.97,41.32 63.42,41.45 60.86,41.57 58.31,41.89 55.8,42.44 L 55.77,42.34 Z M 55.77,42.34" />
            </g>
            <g id="kazAveTop03-group528">
                <path id="kazAveTop03-bezier698" stroke="none" fill="rgb(0, 0, 0)" d="M 48.83,42.21 C 49.63,41.73 50.55,41.46 51.49,41.34 51.96,41.28 52.44,41.21 52.91,41.3 53.38,41.4 53.84,41.57 54.23,41.88 L 54.21,41.95 C 53.72,42.04 53.28,42.04 52.83,42.05 52.4,42.05 51.96,41.96 51.52,41.94 50.64,41.93 49.73,42.01 48.86,42.28 L 48.83,42.21 Z M 48.83,42.21" />
            </g>
            <g id="kazAveTop03-group529">
                <path id="kazAveTop03-bezier699" stroke="none" fill="rgb(0, 0, 0)" d="M 49.18,19 L 51.7,18.85 C 52.12,18.81 52.54,18.72 52.95,18.76 53.37,18.8 53.78,18.85 54.22,19 L 54.23,19.07 C 53.83,19.33 53.4,19.44 52.98,19.51 52.55,19.57 52.12,19.49 51.7,19.44 50.85,19.37 50.01,19.24 49.18,19.07 L 49.18,19 Z M 49.18,19" />
            </g>
            <g id="kazAveTop03-group530">
                <path id="kazAveTop03-bezier700" stroke="none" fill="rgb(0, 0, 0)" d="M 49.83,27.78 C 50.16,27.93 50.51,27.96 50.82,27.95 50.99,27.93 51.14,27.86 51.3,27.9 51.46,27.94 51.62,28 51.84,28.17 L 51.85,28.24 C 51.72,28.48 51.53,28.59 51.33,28.65 51.13,28.71 50.92,28.61 50.73,28.54 50.34,28.4 49.99,28.17 49.78,27.83 L 49.83,27.78 Z M 49.83,27.78" />
            </g>
            <g id="kazAveTop03-group531">
                <path id="kazAveTop03-bezier701" stroke="none" fill="rgb(0, 0, 0)" d="M 49.54,33.46 C 49.84,33.16 50.17,32.9 50.55,32.69 50.74,32.57 50.94,32.43 51.18,32.43 51.41,32.44 51.72,32.51 51.86,32.79 L 51.83,32.86 C 51.59,32.99 51.48,33.1 51.31,33.17 51.15,33.25 50.96,33.22 50.76,33.25 50.38,33.32 49.98,33.42 49.58,33.53 L 49.54,33.46 Z M 49.54,33.46" />
            </g>
            <g id="kazAveTop03-group532">
                <path id="kazAveTop03-bezier702" stroke="none" fill="rgb(0, 0, 0)" d="M 120.54,14.88 C 120.34,14.25 120.21,13.61 120.2,12.92 120.19,12.59 120.17,12.2 120.4,11.85 120.59,11.48 121.21,11.25 121.52,11.54 L 121.51,11.62 C 121.16,11.8 121.14,11.98 121.07,12.2 121,12.42 120.87,12.68 120.8,12.98 120.68,13.58 120.63,14.22 120.61,14.87 L 120.54,14.88 Z M 120.54,14.88" />
            </g>
            <g id="kazAveTop03-group533">
                <path id="kazAveTop03-bezier703" stroke="none" fill="rgb(0, 0, 0)" d="M 100.48,47.58 C 99.8,47.68 99.11,47.76 98.42,47.79 98.07,47.81 97.72,47.88 97.37,47.79 97.03,47.71 96.67,47.59 96.39,47.28 L 96.41,47.21 C 96.78,47.12 97.1,47.06 97.44,47.05 97.78,47.03 98.11,47.13 98.45,47.19 L 100.48,47.5 100.48,47.58 Z M 100.48,47.58" />
            </g>
            <g id="kazAveTop03-group534">
                <path id="kazAveTop03-bezier704" stroke="none" fill="rgb(0, 0, 0)" d="M 100.61,12.74 L 99.24,13.03 C 99.01,13.08 98.8,13.18 98.58,13.16 98.35,13.14 98.15,13.09 97.87,12.99 L 97.84,12.92 C 97.99,12.64 98.25,12.51 98.48,12.42 98.72,12.34 98.96,12.4 99.2,12.43 99.68,12.47 100.15,12.55 100.61,12.67 L 100.61,12.74 Z M 100.61,12.74" />
            </g>
            <g id="kazAveTop03-group535">
                <path id="kazAveTop03-bezier705" stroke="none" fill="rgb(0, 0, 0)" d="M 111.14,26.68 C 111.32,26.68 111.51,26.79 111.66,26.9 111.8,27.03 111.92,27.17 112.02,27.34 L 112.05,27.39 112.03,27.48 C 111.99,27.68 111.98,27.88 111.86,28.05 111.73,28.19 111.59,28.4 111.31,28.39 L 111.29,28.35 C 111.34,28.15 111.36,27.99 111.41,27.82 111.46,27.66 111.58,27.52 111.66,27.36 L 111.67,27.5 C 111.63,27.36 111.56,27.2 111.47,27.06 111.39,26.92 111.3,26.79 111.13,26.73 L 111.14,26.68 Z M 111.14,26.68" />
            </g>
            <g id="kazAveTop03-group536">
                <path id="kazAveTop03-bezier706" stroke="none" fill="rgb(0, 0, 0)" d="M 49.17,18.52 C 52.15,17.43 55.22,16.6 58.3,15.83 61.38,15.08 64.49,14.43 67.6,13.84 70.72,13.26 73.85,12.73 76.99,12.27 80.13,11.81 83.3,11.5 86.46,11.25 L 86.41,11.26 C 87.43,10.99 88.53,11.12 89.45,11.58 89.91,11.81 90.32,12.12 90.66,12.51 90.98,12.9 91.25,13.38 91.23,13.89 L 91.16,13.89 C 91.13,13.41 90.84,12.99 90.5,12.66 90.15,12.33 89.74,12.08 89.3,11.9 88.43,11.54 87.44,11.49 86.56,11.78 L 86.55,11.79 86.51,11.79 77.1,13.02 C 73.96,13.42 70.82,13.85 67.7,14.37 64.58,14.89 61.47,15.49 58.37,16.16 55.28,16.84 52.2,17.58 49.2,18.59 L 49.17,18.52 Z M 49.17,18.52" />
            </g>
        </g>
    </g>
</svg>
