<?xml version="1.0" encoding="UTF-8"?>
<!DOCTYPE svg PUBLIC "-//W3C//DTD SVG 1.1//EN" "http://www.w3.org/Graphics/SVG/1.1/DTD/svg11.dtd">
<svg version="1.1" xmlns="http://www.w3.org/2000/svg" xmlns:xlink="http://www.w3.org/1999/xlink" width="160" height="160"  xml:space="preserve" id="kazAveSide04">
    <!-- Generated by PaintCode - http://www.paintcodeapp.com -->
    <g id="kazAveSide04-group">
        <circle id="kazAveSide04-oval4" stroke="rgb(0, 0, 0)" stroke-width="2" stroke-miterlimit="10" fill="none" cx="126.61" cy="116" r="29" />
        <path id="kazAveSide04-bezier50" stroke="rgb(0, 0, 0)" stroke-width="2" stroke-miterlimit="10" fill="none" d="M 61.94,116.55 C 61.65,132.31 48.78,145 32.95,145 16.93,145 3.95,132.02 3.95,116 3.95,99.98 16.93,87 32.95,87 39.78,87 46.06,89.37 51.02,93.32" />
        <path id="kazAveSide04-bezier51" stroke="rgb(0, 0, 0)" stroke-width="2" stroke-miterlimit="10" fill="none" d="M 57.04,99.86 C 58.59,102.16 59.81,104.71 60.65,107.42" />
        <circle id="kazAveSide04-oval5" stroke="rgb(0, 0, 0)" stroke-width="2" stroke-miterlimit="10" fill="none" cx="71.45" cy="123" r="8.33" />
        <circle id="kazAveSide04-oval6" stroke="rgb(0, 0, 0)" stroke-width="2" stroke-miterlimit="10" fill="none" cx="32.95" cy="116" r="2.5" />
        <path id="kazAveSide04-bezier52" stroke="rgb(0, 0, 0)" stroke-width="2" stroke-miterlimit="10" fill="none" d="M 62.95,68.83 L 55.28,68.83 32.95,116 71.45,123" />
        <path id="kazAveSide04-bezier53" stroke="rgb(0, 0, 0)" stroke-width="2" stroke-miterlimit="10" fill="none" d="M 105.28,68.83 L 82.2,68.83" />
        <path id="kazAveSide04-bezier54" stroke="rgb(0, 0, 0)" stroke-width="2" stroke-miterlimit="10" fill="none" d="M 112.66,73.29 L 126.61,116" />
        <path id="kazAveSide04-bezier55" stroke="rgb(0, 0, 0)" stroke-width="2" stroke-miterlimit="10" fill="none" d="M 107.61,57.83 L 109.09,62.34" />
        <path id="kazAveSide04-bezier56" stroke="rgb(0, 0, 0)" stroke-width="2" stroke-miterlimit="10" fill="none" d="M 114.27,78.23 L 78.45,113.5" />
        <path id="kazAveSide04-bezier57" stroke="rgb(0, 0, 0)" stroke-width="2" stroke-miterlimit="10" fill="none" d="M 59.81,82.47 L 54.66,64.14" />
        <path id="kazAveSide04-bezier58" stroke="rgb(0, 0, 0)" stroke-width="2" stroke-miterlimit="10" fill="none" d="M 68.11,112 L 63.34,95.03" />
        <path id="kazAveSide04-bezier59" stroke="rgb(0, 0, 0)" stroke-width="2" stroke-miterlimit="10" fill="none" d="M 48.56,58.59 C 45.18,58.92 42.06,58.88 40.95,57.83 38.11,55.17 34.61,53.5 40.95,53.5 41.3,53.5 41.68,53.5 42.07,53.5" />
        <path id="kazAveSide04-bezier60" stroke="rgb(0, 0, 0)" stroke-width="1" stroke-miterlimit="10" fill="none" d="M 66.38,114.67 L 37.01,114.67" />
        <path id="kazAveSide04-bezier61" stroke="rgb(0, 0, 0)" stroke-width="1" stroke-miterlimit="10" fill="none" d="M 34.95,119.5 L 63.11,129.04" />
        <path id="kazAveSide04-bezier62" stroke="rgb(0, 0, 0)" stroke-width="2" stroke-miterlimit="10" fill="none" d="M 124.7,73.79 C 124.7,73.79 128.86,72.75 128.86,67.25 128.86,61.75 125.03,58.33 118.2,58.33 111.36,58.33 109.74,58.33 109.74,58.33" />
        <path id="kazAveSide04-bezier63" stroke="rgb(0, 0, 0)" stroke-width="2" stroke-miterlimit="10" fill="none" d="M 54.12,112.67 L 61.95,112.67" />
        <g id="kazAveSide04-group37">
            <g id="kazAveSide04-group38">
                <path id="kazAveSide04-bezier64" stroke="none" fill="rgb(0, 0, 0)" d="M 120.32,71.72 C 121.06,72.44 121.8,73.14 122.55,73.81 122.93,74.14 123.37,74.39 123.69,74.75 124.03,75.1 124.27,75.49 124.69,75.78 L 124.7,75.88 C 124.42,76.03 124.07,75.98 123.8,75.89 123.52,75.8 123.28,75.67 123.05,75.52 122.58,75.23 122.3,74.76 121.97,74.36 121.32,73.54 120.75,72.68 120.24,71.78 L 120.32,71.72 Z M 120.32,71.72" />
            </g>
            <g id="kazAveSide04-group39">
                <path id="kazAveSide04-bezier65" stroke="none" fill="rgb(0, 0, 0)" d="M 125.73,75.87 C 124.58,77.05 123.33,78.16 121.89,79.01 121.16,79.41 120.36,79.82 119.42,79.69 118.54,79.55 117.8,78.98 117.23,78.35 116.09,77.07 115.38,75.53 114.64,74.07 L 114.58,73.95 C 114.55,73.91 114.52,73.85 114.5,73.83 114.47,73.79 114.4,73.71 114.34,73.64 114.21,73.51 114.06,73.38 113.91,73.25 113.6,72.99 113.28,72.75 112.95,72.51 112.29,72.04 111.6,71.58 110.91,71.14 108.13,69.39 105.24,67.82 102.4,66.15 100.99,65.31 99.55,64.5 98.12,63.68 97.41,63.27 96.69,62.86 95.97,62.47 95.25,62.08 94.53,61.68 93.77,61.38 L 93.79,61.28 C 95.43,61.66 96.93,62.39 98.44,63.06 99.95,63.75 101.42,64.52 102.89,65.28 105.8,66.84 108.61,68.61 111.35,70.47 112.04,70.94 112.72,71.42 113.38,71.93 113.71,72.18 114.04,72.45 114.36,72.73 114.52,72.87 114.68,73.02 114.83,73.19 114.9,73.27 114.97,73.35 115.06,73.48 115.1,73.54 115.12,73.57 115.14,73.62 L 115.22,73.78 C 115.92,75.27 116.57,76.79 117.6,78.02 118.11,78.62 118.74,79.14 119.5,79.29 120.23,79.43 121.03,79.11 121.74,78.75 123.18,77.98 124.47,76.92 125.66,75.8 L 125.73,75.87 Z M 125.73,75.87" />
            </g>
            <g id="kazAveSide04-group40">
                <path id="kazAveSide04-bezier66" stroke="none" fill="rgb(0, 0, 0)" d="M 91.68,59.88 C 90.92,59.59 90.19,58.95 90.06,58.05 90,57.24 89.81,56.45 89.65,55.65 89.33,54.06 88.99,52.47 88.63,50.88 88.28,49.29 87.85,47.71 87.58,46.11 87.3,44.51 87.13,42.87 86.91,41.28 L 86.99,41.22 C 87.42,41.97 87.64,42.76 87.9,43.54 88.16,44.32 88.36,45.11 88.56,45.9 88.96,47.49 89.17,49.11 89.42,50.73 89.67,52.34 89.92,53.95 90.14,55.57 90.23,56.38 90.36,57.2 90.36,58.02 90.39,58.78 91,59.44 91.72,59.79 L 91.68,59.88 Z M 91.68,59.88" />
            </g>
            <g id="kazAveSide04-group41">
                <path id="kazAveSide04-bezier67" stroke="none" fill="rgb(0, 0, 0)" d="M 86.1,40.37 C 86.72,39.98 87.39,39.66 88.08,39.4 88.42,39.27 88.75,39.06 89.12,39.06 89.49,39.05 89.88,39.09 90.27,39.31 L 90.29,39.41 C 89.98,39.73 89.65,39.9 89.32,40.04 88.99,40.18 88.62,40.13 88.27,40.18 87.57,40.26 86.85,40.35 86.13,40.46 L 86.1,40.37 Z M 86.1,40.37" />
            </g>
            <g id="kazAveSide04-group42">
                <path id="kazAveSide04-bezier68" stroke="none" fill="rgb(0, 0, 0)" d="M 95.66,40.4 C 96.38,42.66 96.91,44.97 97.27,47.32 97.45,48.49 97.67,49.67 97.64,50.87 97.62,52.06 97.51,53.26 97.16,54.42 L 97.06,54.41 C 96.86,53.22 96.75,52.07 96.64,50.9 96.53,49.75 96.56,48.58 96.47,47.41 96.29,45.08 96,42.74 95.57,40.43 L 95.66,40.4 Z M 95.66,40.4" />
            </g>
            <g id="kazAveSide04-group43">
                <path id="kazAveSide04-bezier69" stroke="none" fill="rgb(0, 0, 0)" d="M 97.62,54.87 C 100.24,55.47 102.65,56.96 104.45,58.95 106.33,60.8 108.4,62.49 110.47,64.15 112.56,65.79 114.71,67.36 116.84,68.89 117.37,69.27 117.92,69.65 118.46,69.92 118.93,70.15 119.58,70.14 120.24,70.15 120.89,70.14 121.64,70.14 122.31,70.41 122.98,70.69 123.5,71.18 123.9,71.72 L 123.83,71.79 C 123.33,71.35 122.77,70.98 122.17,70.84 121.57,70.69 120.94,70.76 120.28,70.84 119.62,70.92 118.89,71 118.12,70.71 117.44,70.43 116.87,70.08 116.29,69.72 114.02,68.26 111.99,66.5 109.96,64.77 107.94,63.02 105.93,61.25 104.09,59.3 102.42,57.25 100.16,55.7 97.6,54.97 L 97.62,54.87 Z M 97.62,54.87" />
            </g>
            <g id="kazAveSide04-group44">
                <path id="kazAveSide04-bezier70" stroke="none" fill="rgb(0, 0, 0)" d="M 102.02,29.64 C 102.72,30.72 103.66,31.62 104.71,32.3 105.77,33.01 106.93,33.41 108.19,33.6 109.45,33.82 110.72,33.92 111.92,33.94 112.52,33.95 113.12,33.89 113.63,33.68 114.14,33.48 114.51,33.01 114.68,32.37 L 114.78,32.38 C 114.84,32.71 114.8,33.06 114.68,33.41 114.54,33.76 114.28,34.06 113.98,34.28 113.37,34.73 112.64,34.87 111.97,34.94 110.59,35.05 109.28,34.71 108.02,34.38 106.75,34.09 105.46,33.53 104.42,32.71 103.39,31.87 102.53,30.85 101.93,29.69 L 102.02,29.64 Z M 102.02,29.64" />
            </g>
            <g id="kazAveSide04-group45">
                <path id="kazAveSide04-bezier71" stroke="none" fill="rgb(0, 0, 0)" d="M 114.48,29.78 C 115.11,29.67 115.75,29.47 116.23,29.1 116.47,28.91 116.63,28.67 116.62,28.41 116.62,28.16 116.46,27.9 116.31,27.6 115.74,26.42 115.19,25.23 114.79,23.95 114.6,23.3 114.4,22.65 114.44,21.86 114.46,21.64 114.48,21.55 114.48,21.4 114.48,21.26 114.47,21.12 114.47,20.97 114.46,20.68 114.42,20.39 114.36,20.09 114.14,18.93 113.73,17.71 112.6,17.05 L 112.63,16.95 C 113.32,17 113.96,17.45 114.4,18 114.86,18.54 115.15,19.2 115.34,19.87 115.42,20.21 115.48,20.56 115.5,20.92 115.51,21.1 115.51,21.28 115.49,21.46 115.48,21.65 115.43,21.88 115.42,21.97 115.33,22.49 115.44,23.13 115.56,23.74 115.84,24.97 116.29,26.19 116.76,27.4 116.86,27.68 117.05,28.02 117.01,28.43 116.98,28.84 116.7,29.16 116.41,29.34 115.81,29.71 115.14,29.82 114.49,29.88 L 114.48,29.78 Z M 114.48,29.78" />
            </g>
            <g id="kazAveSide04-group46">
                <path id="kazAveSide04-bezier72" stroke="none" fill="rgb(0, 0, 0)" d="M 105.49,27.7 C 104.94,27.25 104.45,26.75 104.03,26.15 103.83,25.85 103.55,25.55 103.52,25.13 103.48,24.75 103.56,24.21 103.99,23.98 L 104.08,24.02 C 104.2,24.42 104.36,24.61 104.49,24.89 104.62,25.14 104.63,25.47 104.74,25.78 104.96,26.39 105.25,27.02 105.57,27.63 L 105.49,27.7 Z M 105.49,27.7" />
            </g>
            <g id="kazAveSide04-group47">
                <path id="kazAveSide04-bezier73" stroke="none" fill="rgb(0, 0, 0)" d="M 97.61,33.71 C 98.43,33.4 99.27,33.14 100.14,32.95 100.57,32.84 101.01,32.71 101.47,32.74 101.92,32.78 102.42,32.86 102.79,33.22 L 102.77,33.28 C 102.31,33.34 101.92,33.43 101.5,33.49 101.09,33.56 100.66,33.52 100.22,33.54 99.36,33.6 98.49,33.68 97.62,33.79 L 97.61,33.71 Z M 97.61,33.71" />
            </g>
            <g id="kazAveSide04-group48">
                <path id="kazAveSide04-bezier74" stroke="none" fill="rgb(0, 0, 0)" d="M 86.73,24.32 C 82.37,24.02 78,24.23 73.73,25.02 71.59,25.4 69.49,25.96 67.34,26.36 66.27,26.54 65.19,26.76 64.1,26.89 63,27.02 61.88,27.13 60.78,26.97 L 60.78,26.87 C 61.87,26.74 62.91,26.48 63.97,26.21 L 67.13,25.39 C 69.25,24.85 71.43,24.51 73.61,24.23 75.79,23.94 77.99,23.76 80.19,23.76 82.38,23.78 84.58,23.93 86.74,24.22 L 86.73,24.32 Z M 86.73,24.32" />
            </g>
            <g id="kazAveSide04-group49">
                <path id="kazAveSide04-bezier75" stroke="none" fill="rgb(0, 0, 0)" d="M 59.99,27.65 C 61.15,30.11 62.24,32.61 63.2,35.17 63.67,36.45 64.12,37.74 64.49,39.06 64.86,40.39 65.2,41.72 65.26,43.17 L 64.66,42.76 C 66.74,41.87 68.86,41.09 71.07,40.59 72.18,40.36 73.3,40.12 74.44,40.06 75.57,39.98 76.75,39.98 77.84,40.37 L 77.81,40.47 C 76.71,40.33 75.61,40.5 74.53,40.7 73.45,40.93 72.37,41.18 71.31,41.51 69.2,42.15 67.07,42.81 64.99,43.57 L 64.38,43.8 64.39,43.17 C 64.41,41.88 64.13,40.55 63.82,39.24 63.51,37.93 63.12,36.63 62.7,35.34 61.87,32.76 60.93,30.21 59.9,27.69 L 59.99,27.65 Z M 59.99,27.65" />
            </g>
            <g id="kazAveSide04-group50">
                <path id="kazAveSide04-bezier76" stroke="none" fill="rgb(0, 0, 0)" d="M 79.61,41.21 C 80.07,41.55 80.6,41.81 81.13,42 81.65,42.2 82.2,42.34 82.74,42.41 83.29,42.48 83.84,42.39 84.37,42.45 84.92,42.49 85.47,42.51 86.1,42.62 L 86.13,42.72 C 85.64,43.14 85.03,43.35 84.41,43.45 83.79,43.55 83.16,43.37 82.57,43.19 81.39,42.84 80.32,42.18 79.54,41.29 L 79.61,41.21 Z M 79.61,41.21" />
            </g>
            <g id="kazAveSide04-group51">
                <path id="kazAveSide04-bezier77" stroke="none" fill="rgb(0, 0, 0)" d="M 58.35,29.08 C 56.99,30.04 55.57,30.92 54.09,31.7 53.35,32.08 52.61,32.53 51.78,32.73 50.96,32.93 50.05,33.08 49.19,32.77 L 49.2,32.67 C 50.01,32.43 50.72,32.1 51.46,31.79 52.19,31.46 52.99,31.27 53.76,30.97 55.28,30.37 56.8,29.7 58.3,29 L 58.35,29.08 Z M 58.35,29.08" />
            </g>
            <g id="kazAveSide04-group52">
                <path id="kazAveSide04-bezier78" stroke="none" fill="rgb(0, 0, 0)" d="M 61.91,44.45 C 60.87,43.28 59.75,42.19 58.56,41.18 57.36,40.18 56.09,39.26 54.71,38.57 54.02,38.21 53.3,38 52.55,37.7 51.81,37.41 51.09,37.06 50.4,36.65 49.03,35.84 47.77,34.87 46.69,33.63 L 47.13,33.7 C 45.16,35.21 43.36,37.05 42.05,39.15 40.73,41.24 39.97,43.68 40.4,46.09 40.74,48.5 41.75,50.84 43.29,52.78 44.83,54.71 46.82,56.39 49.21,57.24 L 49.18,57.34 C 46.65,56.8 44.42,55.22 42.69,53.28 40.97,51.32 39.75,48.86 39.37,46.23 39.16,44.93 39.26,43.52 39.63,42.25 40,40.96 40.61,39.77 41.33,38.69 42.8,36.52 44.65,34.69 46.76,33.16 L 47,32.98 47.2,33.23 C 48.16,34.38 49.39,35.38 50.68,36.19 51.34,36.59 52.02,36.95 52.73,37.26 53.42,37.56 54.21,37.81 54.9,38.21 56.3,38.96 57.55,39.94 58.72,40.99 59.89,42.04 60.98,43.17 61.98,44.38 L 61.91,44.45 Z M 61.91,44.45" />
            </g>
            <g id="kazAveSide04-group53">
                <path id="kazAveSide04-bezier79" stroke="none" fill="rgb(0, 0, 0)" d="M 50.79,58.3 C 52.18,59.96 53.73,61.5 55.4,62.87 56.23,63.55 57.1,64.19 58.02,64.73 58.47,65 58.95,65.24 59.43,65.45 59.89,65.66 60.44,65.82 60.95,66.06 62.99,67.01 64.8,68.32 66.41,69.81 67.99,71.34 69.49,72.94 70.73,74.76 L 70.66,74.82 C 69,73.4 67.42,71.92 65.75,70.56 64.09,69.2 62.47,67.76 60.6,66.78 60.15,66.53 59.64,66.37 59.13,66.11 58.62,65.86 58.14,65.58 57.67,65.28 56.74,64.67 55.88,63.98 55.07,63.24 53.46,61.75 52.01,60.11 50.71,58.36 L 50.79,58.3 Z M 50.79,58.3" />
            </g>
            <g id="kazAveSide04-group54">
                <path id="kazAveSide04-bezier80" stroke="none" fill="rgb(0, 0, 0)" d="M 69.14,75.88 C 67.22,77.21 65.33,78.61 63.63,80.19 63.2,80.58 62.79,80.99 62.43,81.42 62.07,81.86 61.74,82.34 61.4,82.82 L 59.41,85.71 C 58.08,87.64 56.77,89.61 55.21,91.39 54.42,92.26 53.62,93.14 52.74,93.93 51.85,94.72 50.91,95.49 49.81,95.96 L 49.76,95.87 C 50.69,95.17 51.48,94.31 52.24,93.44 53,92.57 53.74,91.68 54.44,90.75 55.87,88.92 57.35,87.11 58.76,85.24 L 60.88,82.44 C 61.24,81.97 61.59,81.5 61.99,81.05 62.4,80.6 62.84,80.2 63.29,79.81 65.12,78.3 67.08,77.01 69.09,75.79 L 69.14,75.88 Z M 69.14,75.88" />
            </g>
            <g id="kazAveSide04-group55">
                <path id="kazAveSide04-bezier81" stroke="none" fill="rgb(0, 0, 0)" d="M 61.98,46.63 C 65.98,49.69 69.69,53.12 73.09,56.86 74.79,58.73 76.45,60.65 77.84,62.78 79.2,64.92 80.45,67.15 81.24,69.56 L 81.15,69.6 C 79.84,67.45 78.5,65.35 77.01,63.35 75.55,61.34 74.09,59.31 72.48,57.39 70.88,55.47 69.18,53.63 67.41,51.85 65.65,50.06 63.83,48.33 61.91,46.71 L 61.98,46.63 Z M 61.98,46.63" />
            </g>
            <g id="kazAveSide04-group56">
                <path id="kazAveSide04-bezier82" stroke="none" fill="rgb(0, 0, 0)" d="M 81.91,70.81 C 82.32,71.41 82.71,72.04 83.05,72.7 83.35,73.38 83.69,74.07 83.66,74.96 83.51,75.91 83.06,76.55 82.5,77.09 81.94,77.6 81.31,78.02 80.56,78.27 L 80.5,78.19 C 80.89,77.52 81.35,76.97 81.77,76.41 82.17,75.87 82.73,75.36 82.87,74.87 82.99,74.3 82.79,73.56 82.58,72.89 82.38,72.2 82.12,71.52 81.82,70.86 L 81.91,70.81 Z M 81.91,70.81" />
            </g>
            <g id="kazAveSide04-group57">
                <path id="kazAveSide04-bezier83" stroke="none" fill="rgb(0, 0, 0)" d="M 79.81,78.96 C 77.78,80.81 75.72,82.67 73.89,84.69 73.67,84.95 73.46,85.2 73.3,85.49 73.06,85.83 72.8,86.04 72.55,86.29 72.03,86.76 71.5,87.2 70.97,87.64 69.9,88.52 68.82,89.38 67.74,90.23 L 61.25,95.35 C 60.17,96.21 59.08,97.05 57.99,97.88 56.92,98.73 55.76,99.54 54.83,100.44 L 54.5,100.76 54.22,100.43 C 53.55,99.61 52.88,98.77 52.16,97.99 51.8,97.6 51.44,97.21 51.06,96.84 50.67,96.49 50.27,96.1 49.78,95.97 L 49.79,95.87 C 50.37,95.92 50.82,96.28 51.27,96.58 51.72,96.89 52.14,97.24 52.54,97.61 53.34,98.34 54.12,99.09 54.84,99.91 L 54.23,99.9 C 55.24,98.82 56.29,97.97 57.36,97.09 58.44,96.22 59.54,95.38 60.64,94.56 L 67.31,89.67 C 68.42,88.85 69.52,88.03 70.61,87.19 71.15,86.77 71.69,86.34 72.21,85.9 72.45,85.68 72.74,85.44 72.9,85.23 73.09,84.93 73.34,84.65 73.57,84.4 75.52,82.41 77.64,80.65 79.75,78.88 L 79.81,78.96 Z M 79.81,78.96" />
            </g>
            <g id="kazAveSide04-group58">
                <path id="kazAveSide04-bezier84" stroke="none" fill="rgb(0, 0, 0)" d="M 46.99,100.55 L 48.26,98.52 C 48.47,98.19 48.59,97.8 48.86,97.54 49.12,97.25 49.42,97.04 49.73,96.75 L 49.83,96.75 C 50.05,97.26 49.85,97.72 49.69,98.09 49.52,98.48 49.17,98.73 48.89,99.02 48.32,99.6 47.71,100.12 47.07,100.62 L 46.99,100.55 Z M 46.99,100.55" />
            </g>
            <g id="kazAveSide04-group59">
                <path id="kazAveSide04-bezier85" stroke="none" fill="rgb(0, 0, 0)" d="M 53.43,111.55 C 51.97,111.08 50.5,110.67 49.01,110.39 48.26,110.25 47.52,110.13 46.78,110.16 45.99,110.17 45.19,110.1 44.4,109.88 43.64,109.67 42.77,109.32 42.24,108.46 42,108.03 41.92,107.5 41.99,107.04 42.05,106.58 42.23,106.17 42.43,105.8 43.29,104.45 44.28,103.26 45.47,102.24 L 45.54,102.3 C 44.79,103.65 43.99,104.96 43.31,106.26 43.01,106.88 42.88,107.51 43.12,107.99 43.35,108.5 43.97,108.89 44.64,109.12 45.32,109.35 46.05,109.47 46.79,109.51 47.59,109.53 48.37,109.71 49.11,109.9 50.61,110.32 52.05,110.86 53.46,111.45 L 53.43,111.55 Z M 53.43,111.55" />
            </g>
            <g id="kazAveSide04-group60">
                <path id="kazAveSide04-bezier86" stroke="none" fill="rgb(0, 0, 0)" d="M 47.07,103.22 C 47.64,103.66 48.26,104.03 48.88,104.28 49.19,104.41 49.52,104.41 49.79,104.55 50.08,104.68 50.35,104.82 50.74,105.03 L 50.76,105.13 C 50.44,105.47 49.98,105.56 49.56,105.52 49.13,105.49 48.79,105.21 48.48,104.98 47.85,104.51 47.36,103.93 46.99,103.28 L 47.07,103.22 Z M 47.07,103.22" />
            </g>
            <g id="kazAveSide04-group61">
                <path id="kazAveSide04-bezier87" stroke="none" fill="rgb(0, 0, 0)" d="M 52.33,104.15 C 52.59,103.87 52.89,103.6 53.28,103.47 53.47,103.41 53.71,103.4 53.92,103.5 54.13,103.6 54.26,103.79 54.38,103.91 54.89,104.46 55.44,104.98 56,105.49 56.55,106 57.11,106.5 57.7,106.97 57.99,107.2 58.29,107.43 58.59,107.62 58.89,107.81 59.22,108.01 59.46,108.03 60.28,108.14 61.02,108.39 61.76,108.69 62.48,109.03 63.22,109.38 63.79,110.2 63.92,110.39 64.02,110.75 64.01,110.97 64,111.19 64.02,111.43 63.88,111.74 63.73,112.08 63.36,112.24 63.14,112.28 62.91,112.33 62.7,112.33 62.5,112.32 61.7,112.29 60.96,112.19 60.2,112.05 L 60.2,111.95 C 60.95,111.8 61.73,111.74 62.45,111.63 62.8,111.58 63.16,111.43 63.07,111.39 63.08,111.35 63.09,111.19 63.06,111.03 63.04,110.87 63.03,110.86 62.94,110.74 62.63,110.31 61.95,109.92 61.34,109.59 60.7,109.26 60,108.97 59.33,108.82 58.81,108.71 58.5,108.45 58.18,108.22 57.86,107.98 57.56,107.73 57.28,107.47 56.71,106.95 56.17,106.4 55.65,105.85 55.13,105.28 54.63,104.71 54.15,104.11 53.93,103.77 53.7,103.58 53.33,103.67 52.99,103.75 52.67,103.97 52.4,104.22 L 52.33,104.15 Z M 52.33,104.15" />
            </g>
            <g id="kazAveSide04-group62">
                <path id="kazAveSide04-bezier88" stroke="none" fill="rgb(0, 0, 0)" d="M 51.65,103.23 C 51.72,102.67 51.85,102.11 52.04,101.57 52.13,101.3 52.17,100.98 52.41,100.77 52.53,100.66 52.67,100.56 52.85,100.49 53.01,100.43 53.28,100.38 53.45,100.53 L 53.44,100.63 C 53.3,100.91 53.34,101.13 53.22,101.36 53.14,101.59 52.9,101.74 52.74,101.95 52.41,102.37 52.08,102.82 51.74,103.27 L 51.65,103.23 Z M 51.65,103.23" />
            </g>
            <g id="kazAveSide04-group63">
                <path id="kazAveSide04-bezier89" stroke="none" fill="rgb(0, 0, 0)" d="M 57.25,66.05 C 57.59,67.14 58.03,68.19 58.55,69.19 59.05,70.21 59.63,71.18 60.29,72.08 60.95,72.99 61.75,73.73 62.52,74.54 63.32,75.38 64.05,76.31 64.55,77.37 L 64.47,77.43 C 63.54,76.72 62.7,75.99 61.83,75.26 60.92,74.52 60.23,73.51 59.63,72.52 58.4,70.52 57.58,68.33 57.15,66.07 L 57.25,66.05 Z M 57.25,66.05" />
            </g>
            <g id="kazAveSide04-group64">
                <path id="kazAveSide04-bezier90" stroke="none" fill="rgb(0, 0, 0)" d="M 75.41,85 C 75.62,87.47 75.83,89.94 76.08,92.41 76.2,93.64 76.32,94.88 76.49,96.1 76.53,96.4 76.58,96.71 76.64,96.99 76.66,97.14 76.7,97.22 76.75,97.45 76.78,97.62 76.81,97.77 76.83,97.93 76.91,98.56 76.96,99.18 77.01,99.8 77.21,102.28 77.41,104.76 77.46,107.24 L 77.49,110.96 77.49,112.82 C 77.49,113.42 77.46,114.09 77.56,114.63 L 77.49,114.7 C 77.01,113.47 76.97,112.24 76.79,111 76.64,109.76 76.56,108.52 76.46,107.28 76.28,104.81 76.3,102.32 76.21,99.85 76.19,99.23 76.16,98.61 76.11,98.01 76.09,97.86 76.08,97.71 76.06,97.57 76.05,97.49 75.98,97.28 75.96,97.12 75.91,96.8 75.87,96.49 75.84,96.17 75.72,94.93 75.65,93.69 75.58,92.45 75.47,89.97 75.38,87.48 75.31,85 L 75.41,85 Z M 75.41,85" />
            </g>
            <g id="kazAveSide04-group65">
                <path id="kazAveSide04-bezier91" stroke="none" fill="rgb(0, 0, 0)" d="M 70.65,112.01 C 70.32,110.29 69.96,108.58 69.55,106.89 69.14,105.19 68.72,103.53 68.07,101.9 67.5,100.19 67.15,98.46 67,96.7 66.94,95.82 66.89,94.94 66.91,94.06 66.93,93.18 66.95,92.29 67.15,91.41 L 67.25,91.42 C 67.46,93.15 67.75,94.87 67.99,96.58 68.27,98.29 68.4,100.03 68.83,101.66 69.39,103.32 69.73,105.08 70.03,106.79 70.32,108.52 70.55,110.26 70.75,111.99 L 70.65,112.01 Z M 70.65,112.01" />
            </g>
            <g id="kazAveSide04-group66">
                <path id="kazAveSide04-bezier92" stroke="none" fill="rgb(0, 0, 0)" d="M 82.15,124.24 C 83.25,125.33 84.51,126.3 85.9,126.88 86.58,127.17 87.36,127.3 88.12,127.51 88.88,127.7 89.64,127.91 90.39,128.15 91.15,128.39 91.9,128.65 92.64,129.06 93.01,129.28 93.39,129.51 93.7,129.95 93.85,130.17 93.97,130.46 93.95,130.83 93.95,130.87 93.91,131.14 93.84,131.27 93.78,131.42 93.68,131.55 93.59,131.65 93.16,132.05 92.72,132.16 92.3,132.26 91.88,132.34 91.47,132.38 91.07,132.37 90.26,132.38 89.47,132.29 88.7,132.14 L 88.7,132.04 C 89.48,131.9 90.26,131.82 91,131.68 91.37,131.6 91.74,131.53 92.08,131.41 92.4,131.3 92.73,131.14 92.85,130.97 92.89,130.93 92.91,130.9 92.92,130.87 92.93,130.82 92.93,130.89 92.94,130.74 92.93,130.72 92.91,130.62 92.84,130.53 92.7,130.32 92.43,130.09 92.13,129.91 91.53,129.51 90.83,129.2 90.12,128.91 89.41,128.62 88.67,128.37 87.94,128.13 87.21,127.88 86.44,127.71 85.69,127.34 84.26,126.59 83.09,125.5 82.08,124.31 L 82.15,124.24 Z M 82.15,124.24" />
            </g>
            <g id="kazAveSide04-group67">
                <path id="kazAveSide04-bezier93" stroke="none" fill="rgb(0, 0, 0)" d="M 80.08,132.12 C 79.56,131.83 79.01,131.65 78.47,131.5 78.19,131.42 77.89,131.45 77.65,131.29 77.4,131.14 77.16,130.97 76.94,130.63 L 76.96,130.53 C 77.31,130.33 77.64,130.31 77.96,130.34 78.28,130.37 78.53,130.6 78.79,130.77 79.32,131.11 79.81,131.52 80.15,132.05 L 80.08,132.12 Z M 80.08,132.12" />
            </g>
            <g id="kazAveSide04-group68">
                <path id="kazAveSide04-bezier94" stroke="none" fill="rgb(0, 0, 0)" d="M 111.74,21.02 C 111.27,22.2 110.36,23.21 109.2,23.79 108.04,24.36 106.67,24.44 105.41,24.24 102.97,23.86 100.47,24.18 98.13,24.92 95.78,25.68 93.61,26.88 91.54,28.19 90.49,28.84 89.5,29.58 88.55,30.36 88.07,30.75 87.62,31.16 87.19,31.61 86.75,32.04 86.34,32.51 86.05,33.05 L 85.95,33.02 C 86.34,31.77 87.22,30.78 88.08,29.85 88.96,28.93 89.95,28.12 90.98,27.36 93.07,25.88 95.44,24.83 97.9,24.16 100.36,23.48 102.98,23.25 105.49,23.75 106.69,24 107.95,24 109.07,23.51 110.19,23.04 111.13,22.11 111.64,20.99 L 111.74,21.02 Z M 111.74,21.02" />
            </g>
            <g id="kazAveSide04-group69">
                <path id="kazAveSide04-bezier95" stroke="none" fill="rgb(0, 0, 0)" d="M 112.15,16.38 C 109.33,14.38 105.63,14.06 102.35,14.78 99,15.45 96.13,17.49 93.65,19.8 91.16,22.13 89,24.83 86.47,27.22 85.19,28.39 83.86,29.55 82.32,30.44 80.8,31.32 79.04,31.91 77.29,31.78 L 77.29,31.68 C 79,31.52 80.58,30.8 81.95,29.85 83.34,28.89 84.59,27.73 85.77,26.51 88.16,24.07 90.5,21.51 93.12,19.21 95.71,16.92 98.75,14.88 102.25,14.29 105.67,13.67 109.43,14.16 112.22,16.3 L 112.15,16.38 Z M 112.15,16.38" />
            </g>
            <g id="kazAveSide04-group70">
                <path id="kazAveSide04-bezier96" stroke="none" fill="rgb(0, 0, 0)" d="M 101.77,29.97 C 101.14,29.58 100.49,29.22 99.84,28.86 99.75,28.81 99.69,28.77 99.61,28.74 99.56,28.73 99.5,28.72 99.45,28.74 99.34,28.78 99.21,28.89 99.11,29.02 98.89,29.29 98.71,29.61 98.53,29.93 97.81,31.21 97.11,32.55 96.18,33.77 95.27,34.98 94.13,36.14 92.68,36.78 91.25,37.43 89.63,37.62 88.14,37.3 L 88.15,37.2 C 89.63,36.96 91.01,36.58 92.24,35.89 93.46,35.21 94.6,34.35 95.56,33.26 96.52,32.17 97.28,30.92 98.1,29.66 98.31,29.35 98.53,29.04 98.81,28.75 98.95,28.61 99.11,28.46 99.36,28.4 99.49,28.37 99.63,28.39 99.75,28.45 99.83,28.49 99.93,28.56 100,28.6 100.61,29.02 101.23,29.44 101.83,29.88 L 101.77,29.97 Z M 101.77,29.97" />
            </g>
        </g>
    </g>
</svg>
