<?xml version="1.0" encoding="UTF-8"?>
<!DOCTYPE svg PUBLIC "-//W3C//DTD SVG 1.1//EN" "http://www.w3.org/Graphics/SVG/1.1/DTD/svg11.dtd">
<svg version="1.1" xmlns="http://www.w3.org/2000/svg" xmlns:xlink="http://www.w3.org/1999/xlink" width="160" height="160"  xml:space="preserve" id="kazAveSide05">
    <!-- Generated by PaintCode - http://www.paintcodeapp.com -->
    <g id="kazAveSide05-group">
        <circle id="kazAveSide05-oval58" stroke="rgb(0, 0, 0)" stroke-width="2" stroke-miterlimit="10" fill="none" cx="126.58" cy="120" r="29" />
        <path id="kazAveSide05-bezier1177" stroke="rgb(0, 0, 0)" stroke-width="2" stroke-miterlimit="10" fill="none" d="M 56.01,137.54 C 50.71,144.5 42.34,149 32.91,149 16.89,149 3.91,136.02 3.91,120 3.91,103.98 16.89,91 32.91,91 40.5,91 47.41,93.92 52.58,98.69" />
        <path id="kazAveSide05-bezier1178" stroke="rgb(0, 0, 0)" stroke-width="2" stroke-miterlimit="10" fill="none" d="M 60.04,109.73 C 61.25,112.92 61.91,116.38 61.91,120 61.91,123.62 61.25,127.08 60.03,130.28" />
        <circle id="kazAveSide05-oval59" stroke="rgb(0, 0, 0)" stroke-width="2" stroke-miterlimit="10" fill="none" cx="71.41" cy="127" r="8.33" />
        <circle id="kazAveSide05-oval60" stroke="rgb(0, 0, 0)" stroke-width="2" stroke-miterlimit="10" fill="none" cx="32.91" cy="120" r="2.5" />
        <path id="kazAveSide05-bezier1179" stroke="rgb(0, 0, 0)" stroke-width="2" stroke-miterlimit="10" fill="none" d="M 53.21,123.69 L 71.41,127" />
        <path id="kazAveSide05-bezier1180" stroke="rgb(0, 0, 0)" stroke-width="2" stroke-miterlimit="10" fill="none" d="M 52.76,78.08 L 32.91,120 45.89,122.36" />
        <path id="kazAveSide05-bezier1181" stroke="rgb(0, 0, 0)" stroke-width="2" stroke-miterlimit="10" fill="none" d="M 105.24,72.83 L 68.7,72.83" />
        <path id="kazAveSide05-bezier1182" stroke="rgb(0, 0, 0)" stroke-width="2" stroke-miterlimit="10" fill="none" d="M 112.04,75.5 L 126.58,120" />
        <path id="kazAveSide05-bezier1183" stroke="rgb(0, 0, 0)" stroke-width="2" stroke-miterlimit="10" fill="none" d="M 114.24,82.23 L 78.41,117.5" />
        <path id="kazAveSide05-bezier1184" stroke="rgb(0, 0, 0)" stroke-width="2" stroke-miterlimit="10" fill="none" d="M 68.08,116 L 64.14,102" />
        <path id="kazAveSide05-bezier1185" stroke="rgb(0, 0, 0)" stroke-width="2" stroke-miterlimit="10" fill="none" d="M 43.13,62.65 C 42.14,62.52 41.36,62.26 40.91,61.83 38.08,59.17 34.58,57.5 40.91,57.5" />
        <path id="kazAveSide05-bezier1186" stroke="rgb(0, 0, 0)" stroke-width="1" stroke-miterlimit="10" fill="none" d="M 46.7,118.67 L 36.97,118.67" />
        <path id="kazAveSide05-bezier1187" stroke="rgb(0, 0, 0)" stroke-width="1" stroke-miterlimit="10" fill="none" d="M 66.35,118.67 L 56.26,118.67" />
        <path id="kazAveSide05-bezier1188" stroke="rgb(0, 0, 0)" stroke-width="1" stroke-miterlimit="10" fill="none" d="M 34.91,123.5 L 43.55,126.43" />
        <path id="kazAveSide05-bezier1189" stroke="rgb(0, 0, 0)" stroke-width="2" stroke-miterlimit="10" fill="none" d="M 124.66,77.79 C 124.66,77.79 128.83,76.75 128.83,71.25 128.83,65.75 124.99,62.33 118.16,62.33 111.33,62.33 109.7,62.33 109.7,62.33" />
        <path id="kazAveSide05-bezier1190" stroke="rgb(0, 0, 0)" stroke-width="2" stroke-miterlimit="10" fill="none" d="M 81.19,117.08 L 89.01,117.08" />
        <path id="kazAveSide05-bezier1191" stroke="rgb(0, 0, 0)" stroke-width="2" stroke-miterlimit="10" fill="none" d="M 50.52,135.65 L 58.35,135.65" />
        <g id="kazAveSide05-group893">
            <g id="kazAveSide05-group894">
                <path id="kazAveSide05-bezier1192" stroke="none" fill="rgb(0, 0, 0)" d="M 120.64,75.63 C 121.31,76.41 121.98,77.18 122.67,77.92 123.01,78.28 123.43,78.58 123.71,78.97 124.02,79.34 124.23,79.75 124.62,80.09 L 124.61,80.19 C 124.32,80.3 123.97,80.22 123.72,80.11 123.45,80 123.22,79.84 123,79.67 122.57,79.33 122.33,78.84 122.04,78.41 121.47,77.54 120.98,76.62 120.56,75.68 L 120.64,75.63 Z M 120.64,75.63" />
            </g>
            <g id="kazAveSide05-group895">
                <path id="kazAveSide05-bezier1193" stroke="none" fill="rgb(0, 0, 0)" d="M 125.64,80.27 C 124.38,81.34 123.04,82.33 121.52,83.04 120.76,83.37 119.92,83.69 119,83.48 118.13,83.26 117.45,82.62 116.94,81.94 115.93,80.56 115.37,78.96 114.76,77.43 L 114.72,77.31 C 114.69,77.27 114.67,77.2 114.65,77.19 114.62,77.14 114.56,77.05 114.51,76.98 114.39,76.84 114.25,76.69 114.12,76.55 113.84,76.27 113.54,75.99 113.23,75.73 112.62,75.19 111.98,74.68 111.33,74.17 108.73,72.17 105.99,70.33 103.32,68.41 102,67.43 100.64,66.49 99.3,65.54 98.63,65.06 97.95,64.6 97.27,64.14 96.59,63.68 95.91,63.21 95.18,62.84 L 95.21,62.75 C 96.81,63.28 98.23,64.14 99.68,64.96 101.11,65.79 102.5,66.69 103.89,67.58 106.65,69.41 109.27,71.44 111.83,73.55 112.47,74.08 113.1,74.62 113.72,75.19 114.02,75.47 114.32,75.76 114.61,76.08 114.76,76.24 114.9,76.4 115.04,76.58 115.1,76.67 115.17,76.75 115.24,76.89 115.28,76.95 115.29,76.99 115.31,77.04 L 115.37,77.21 C 115.93,78.76 116.44,80.33 117.35,81.65 117.8,82.3 118.38,82.88 119.12,83.1 119.83,83.3 120.66,83.06 121.4,82.76 122.9,82.13 124.28,81.2 125.58,80.19 L 125.64,80.27 Z M 125.64,80.27" />
            </g>
            <g id="kazAveSide05-group896">
                <path id="kazAveSide05-bezier1194" stroke="none" fill="rgb(0, 0, 0)" d="M 93.89,61.88 C 93.09,61.57 92.31,60.86 92.27,59.88 92.16,59.07 91.91,58.21 91.7,57.38 91.26,55.71 90.79,54.03 90.32,52.37 89.84,50.7 89.29,49.06 88.9,47.37 88.5,45.69 88.19,43.96 87.87,42.28 L 87.95,42.22 C 88.42,43 88.71,43.82 89.03,44.63 89.34,45.45 89.6,46.28 89.87,47.11 90.38,48.77 90.72,50.48 91.09,52.17 91.47,53.87 91.85,55.56 92.18,57.27 92.33,58.13 92.52,58.97 92.57,59.88 92.53,60.7 93.17,61.43 93.93,61.79 L 93.89,61.88 Z M 93.89,61.88" />
            </g>
            <g id="kazAveSide05-group897">
                <path id="kazAveSide05-bezier1195" stroke="none" fill="rgb(0, 0, 0)" d="M 86.83,41.66 C 88.42,40.72 90.13,39.96 91.92,39.42 93.71,38.9 95.59,38.59 97.51,38.69 L 96.98,39.25 C 96.75,38.23 96.36,37.14 96.01,36.07 95.64,35 95.26,33.93 94.85,32.85 L 94.94,32.8 C 95.71,33.68 96.32,34.69 96.84,35.73 97.34,36.79 97.77,37.87 97.95,39.1 L 98.04,39.76 97.42,39.66 C 95.66,39.41 93.83,39.58 92.06,39.98 90.29,40.38 88.54,40.96 86.88,41.75 L 86.83,41.66 Z M 86.83,41.66" />
            </g>
            <g id="kazAveSide05-group898">
                <path id="kazAveSide05-bezier1196" stroke="none" fill="rgb(0, 0, 0)" d="M 97.09,40.72 C 97.88,43.19 98.48,45.72 98.91,48.28 99.14,49.56 99.38,50.86 99.39,52.17 99.39,53.47 99.3,54.79 98.95,56.07 L 98.85,56.06 C 98.65,54.76 98.53,53.49 98.39,52.22 98.25,50.95 98.24,49.67 98.12,48.39 97.87,45.83 97.5,43.28 97,40.74 L 97.09,40.72 Z M 97.09,40.72" />
            </g>
            <g id="kazAveSide05-group899">
                <path id="kazAveSide05-bezier1197" stroke="none" fill="rgb(0, 0, 0)" d="M 99.63,56.72 C 102.17,57.56 104.43,59.27 106.04,61.43 107.74,63.45 109.64,65.32 111.55,67.17 113.47,69 115.47,70.76 117.45,72.49 117.94,72.91 118.45,73.35 118.96,73.66 119.41,73.94 120.06,73.99 120.71,74.06 121.36,74.11 122.1,74.18 122.75,74.51 123.38,74.86 123.87,75.38 124.21,75.96 L 124.13,76.02 C 123.67,75.54 123.16,75.12 122.57,74.93 121.98,74.72 121.36,74.73 120.69,74.75 120.02,74.77 119.28,74.77 118.54,74.42 117.9,74.07 117.36,73.67 116.82,73.26 114.69,71.59 112.84,69.65 110.98,67.74 109.13,65.8 107.3,63.86 105.65,61.74 104.18,59.55 102.08,57.78 99.6,56.82 L 99.63,56.72 Z M 99.63,56.72" />
            </g>
            <g id="kazAveSide05-group900">
                <path id="kazAveSide05-bezier1198" stroke="none" fill="rgb(0, 0, 0)" d="M 100.56,29.62 C 101.26,30.61 102.19,31.44 103.22,32.05 104.25,32.69 105.37,33.03 106.58,33.17 107.78,33.34 109,33.37 110.14,33.36 111.28,33.34 112.44,33.1 112.72,31.8 L 112.82,31.8 C 112.97,32.41 112.74,33.22 112.13,33.66 111.56,34.11 110.87,34.27 110.22,34.36 108.91,34.52 107.66,34.22 106.44,33.96 105.21,33.72 103.96,33.22 102.94,32.47 101.93,31.71 101.08,30.76 100.47,29.67 L 100.56,29.62 Z M 100.56,29.62" />
            </g>
            <g id="kazAveSide05-group901">
                <path id="kazAveSide05-bezier1199" stroke="none" fill="rgb(0, 0, 0)" d="M 112.65,28.69 C 113.28,28.54 113.94,28.29 114.37,27.85 114.57,27.63 114.68,27.36 114.63,27.08 114.59,26.82 114.41,26.54 114.26,26.23 113.68,25.03 113.12,23.81 112.7,22.5 112.5,21.84 112.29,21.19 112.3,20.39 112.35,19.75 112.29,19.19 112.17,18.56 111.92,17.37 111.54,16.08 110.39,15.41 L 110.42,15.31 C 111.13,15.36 111.76,15.86 112.2,16.42 112.65,16.98 112.94,17.65 113.14,18.33 113.23,18.68 113.3,19.03 113.33,19.39 113.35,19.57 113.35,19.75 113.34,19.94 113.33,20.13 113.3,20.35 113.29,20.46 113.22,21 113.34,21.67 113.47,22.29 113.77,23.55 114.23,24.8 114.72,26.03 114.82,26.33 115,26.64 115.02,27.05 115.06,27.44 114.85,27.84 114.58,28.07 114.01,28.53 113.33,28.69 112.67,28.79 L 112.65,28.69 Z M 112.65,28.69" />
            </g>
            <g id="kazAveSide05-group902">
                <path id="kazAveSide05-bezier1200" stroke="none" fill="rgb(0, 0, 0)" d="M 104.01,27 C 103.46,26.6 102.96,26.14 102.54,25.58 102.34,25.3 102.05,25.02 102.01,24.62 101.96,24.26 102.03,23.73 102.44,23.5 L 102.54,23.54 C 102.68,23.92 102.84,24.09 102.97,24.34 103.12,24.57 103.12,24.89 103.24,25.18 103.47,25.76 103.76,26.35 104.08,26.94 L 104.01,27 Z M 104.01,27" />
            </g>
            <g id="kazAveSide05-group903">
                <path id="kazAveSide05-bezier1201" stroke="none" fill="rgb(0, 0, 0)" d="M 96.81,34.15 C 97.6,33.75 98.41,33.39 99.27,33.11 99.69,32.98 100.12,32.76 100.58,32.78 101.04,32.8 101.57,32.87 101.96,33.27 L 101.93,33.36 C 101.46,33.52 101.11,33.67 100.7,33.78 100.3,33.9 99.87,33.84 99.44,33.89 98.58,33.99 97.71,34.12 96.84,34.25 L 96.81,34.15 Z M 96.81,34.15" />
            </g>
            <g id="kazAveSide05-group904">
                <path id="kazAveSide05-bezier1202" stroke="none" fill="rgb(0, 0, 0)" d="M 82.4,25.61 C 78.51,25.84 74.7,26.56 70.97,27.62 69.11,28.15 67.29,28.81 65.4,29.3 64.46,29.55 63.51,29.79 62.54,29.96 61.57,30.13 60.58,30.28 59.59,30.19 L 59.58,30.09 C 61.48,29.68 63.26,28.94 65.12,28.34 66.96,27.72 68.87,27.27 70.78,26.84 72.68,26.41 74.61,26.05 76.55,25.81 78.5,25.58 80.45,25.51 82.4,25.51 L 82.4,25.61 Z M 82.4,25.61" />
            </g>
            <g id="kazAveSide05-group905">
                <path id="kazAveSide05-bezier1203" stroke="none" fill="rgb(0, 0, 0)" d="M 58.86,30.92 C 60.2,33.29 61.46,35.71 62.61,38.18 63.18,39.43 63.72,40.68 64.19,41.97 64.66,43.27 65.1,44.57 65.27,46.01 L 64.63,45.65 C 66.64,44.6 68.7,43.67 70.87,43 71.96,42.69 73.05,42.37 74.19,42.22 75.31,42.06 76.49,41.97 77.6,42.28 L 77.58,42.38 C 76.47,42.33 75.38,42.58 74.32,42.86 73.26,43.17 72.21,43.5 71.18,43.9 69.11,44.7 67.04,45.52 65.02,46.43 L 64.43,46.7 64.39,46.07 C 64.32,44.79 63.94,43.48 63.54,42.2 63.12,40.92 62.64,39.65 62.13,38.4 61.1,35.88 59.98,33.41 58.77,30.97 L 58.86,30.92 Z M 58.86,30.92" />
            </g>
            <g id="kazAveSide05-group906">
                <path id="kazAveSide05-bezier1204" stroke="none" fill="rgb(0, 0, 0)" d="M 79.43,42.99 C 79.92,43.29 80.46,43.5 81,43.66 81.54,43.82 82.1,43.92 82.65,43.95 83.2,43.98 83.73,43.85 84.27,43.86 84.82,43.86 85.37,43.84 86.01,43.91 L 86.04,44 C 85.59,44.46 85,44.72 84.39,44.86 83.77,45 83.13,44.87 82.54,44.74 81.33,44.48 80.22,43.9 79.36,43.07 L 79.43,42.99 Z M 79.43,42.99" />
            </g>
            <g id="kazAveSide05-group907">
                <path id="kazAveSide05-bezier1205" stroke="none" fill="rgb(0, 0, 0)" d="M 58.31,33.08 C 56.95,34.04 55.54,34.92 54.05,35.7 53.31,36.08 52.58,36.53 51.74,36.73 50.93,36.93 50.01,37.08 49.16,36.77 L 49.16,36.67 C 49.97,36.43 50.68,36.1 51.42,35.79 52.16,35.46 52.96,35.27 53.72,34.97 55.25,34.37 56.76,33.7 58.26,33 L 58.31,33.08 Z M 58.31,33.08" />
            </g>
            <g id="kazAveSide05-group908">
                <path id="kazAveSide05-bezier1206" stroke="none" fill="rgb(0, 0, 0)" d="M 42.2,56.13 C 41.12,54.66 40.32,52.98 39.89,51.2 39.68,50.31 39.53,49.4 39.54,48.47 39.55,47.54 39.72,46.62 40,45.73 40.57,43.96 41.56,42.37 42.71,40.94 43.88,39.51 45.19,38.23 46.68,37.1 L 46.96,36.89 47.22,37.18 C 48.2,38.29 49.45,39.25 50.76,40.01 51.41,40.39 52.1,40.73 52.8,41.01 L 53.88,41.42 C 54.26,41.57 54.65,41.75 55,41.94 56.45,42.69 57.7,43.7 58.88,44.77 60.06,45.84 61.11,47.01 62.09,48.26 L 62.2,48.4 62.12,48.53 C 61.79,49.08 61.42,49.58 61.01,50.07 60.6,50.54 60.16,51.03 59.55,51.27 L 59.52,51.18 C 60.04,50.88 60.41,50.37 60.77,49.88 61.11,49.38 61.42,48.84 61.69,48.3 L 61.72,48.57 C 60.67,47.44 59.5,46.39 58.32,45.4 57.13,44.42 55.87,43.53 54.53,42.84 53.87,42.48 53.18,42.28 52.4,41.95 51.66,41.63 50.94,41.26 50.26,40.83 48.89,39.97 47.65,38.96 46.6,37.68 L 47.14,37.76 C 45.71,38.78 44.37,40.01 43.21,41.35 42.05,42.7 41.06,44.22 40.47,45.89 40.18,46.72 39.98,47.6 39.94,48.48 39.89,49.36 40.01,50.26 40.18,51.14 40.54,52.89 41.26,54.58 42.28,56.07 L 42.2,56.13 Z M 42.2,56.13" />
            </g>
            <g id="kazAveSide05-group909">
                <path id="kazAveSide05-bezier1207" stroke="none" fill="rgb(0, 0, 0)" d="M 78.64,74.7 C 78.27,75.68 77.95,76.68 77.77,77.7 77.6,78.71 77.65,79.77 77.62,80.82 77.58,82.91 77.53,85.02 77.45,87.12 77.37,89.22 77.32,91.34 76.99,93.43 76.6,95.49 76.26,97.66 75.12,99.5 L 75.03,99.46 C 75.61,97.45 75.79,95.38 75.99,93.3 L 76.65,87.07 C 76.84,84.98 76.98,82.89 77.12,80.8 77.22,79.75 77.23,78.7 77.48,77.64 77.73,76.61 78.12,75.62 78.54,74.66 L 78.64,74.7 Z M 78.64,74.7" />
            </g>
            <g id="kazAveSide05-group910">
                <path id="kazAveSide05-bezier1208" stroke="none" fill="rgb(0, 0, 0)" d="M 79.99,71.58 L 80.44,70.62 C 80.56,70.3 80.66,69.93 80.62,69.64 80.58,69.48 80.53,69.43 80.38,69.39 L 79.87,69.23 78.84,68.92 C 77.47,68.51 76.1,68.12 74.72,67.77 73.33,67.42 71.93,67.17 70.56,66.8 69.19,66.45 67.83,66.09 66.41,65.77 L 66.42,65.67 C 67.87,65.44 69.35,65.59 70.77,65.82 72.2,66.07 73.57,66.55 74.94,67 76.31,67.46 77.66,67.94 79,68.46 L 80,68.86 80.5,69.07 C 80.7,69.12 80.92,69.38 80.91,69.6 80.93,70.43 80.42,71.01 80.08,71.63 L 79.99,71.58 Z M 79.99,71.58" />
            </g>
            <g id="kazAveSide05-group911">
                <path id="kazAveSide05-bezier1209" stroke="none" fill="rgb(0, 0, 0)" d="M 62,49.7 C 66.91,50.73 71.74,52.19 76.37,54.17 78.69,55.16 80.99,56.24 83.09,57.66 85.17,59.1 87.16,60.73 88.71,62.74 L 88.63,62.81 C 86.69,61.22 84.69,59.77 82.55,58.51 80.44,57.23 78.29,55.98 76.04,54.9 73.8,53.83 71.48,52.89 69.13,52.05 66.78,51.19 64.4,50.44 61.98,49.79 L 62,49.7 Z M 62,49.7" />
            </g>
            <g id="kazAveSide05-group912">
                <path id="kazAveSide05-bezier1210" stroke="none" fill="rgb(0, 0, 0)" d="M 89.08,74.67 C 88.84,75.87 88.6,77.08 88.49,78.28 88.44,78.6 88.49,78.85 88.47,79.21 88.43,79.53 88.36,79.83 88.29,80.13 88.14,80.73 87.98,81.32 87.81,81.91 87.15,84.28 86.39,86.61 85.65,88.95 L 83.45,95.96 82.34,99.46 C 82,100.61 81.54,101.8 81.32,102.9 L 81.19,103.5 80.7,103.22 C 79.8,102.71 78.88,102.19 77.95,101.74 77.48,101.51 77.01,101.3 76.53,101.11 76.05,100.95 75.53,100.74 75.06,100.89 L 75.01,100.8 C 75.53,100.52 76.11,100.68 76.62,100.77 77.15,100.88 77.66,101.04 78.17,101.22 79.17,101.58 80.15,101.99 81.1,102.48 L 80.48,102.8 C 80.68,101.49 81.01,100.34 81.37,99.15 81.72,97.97 82.12,96.81 82.52,95.65 L 85,88.72 C 85.82,86.42 86.63,84.1 87.4,81.78 87.6,81.2 87.78,80.62 87.95,80.04 88.03,79.75 88.11,79.45 88.16,79.16 88.2,78.91 88.17,78.55 88.22,78.25 88.4,77.02 88.7,75.84 88.99,74.64 L 89.08,74.67 Z M 89.08,74.67" />
            </g>
            <g id="kazAveSide05-group913">
                <path id="kazAveSide05-bezier1211" stroke="none" fill="rgb(0, 0, 0)" d="M 89.78,71.35 L 89.99,70.2 C 90.03,70 90.07,69.84 90.04,69.63 90.02,69.43 90.02,69.24 90.02,69.04 L 90.02,69.03 90.03,69 C 90.28,68.02 90.24,67.02 90.09,66.09 89.97,65.14 89.7,64.2 89.25,63.23 L 89.32,63.16 C 90.28,63.75 90.88,64.81 91.11,65.91 91.31,67.04 91.05,68.18 90.71,69.21 L 90.72,69.17 C 90.64,69.35 90.57,69.54 90.48,69.72 90.37,69.89 90.31,70.1 90.25,70.27 L 89.88,71.37 89.78,71.35 Z M 89.78,71.35" />
            </g>
            <g id="kazAveSide05-group914">
                <path id="kazAveSide05-bezier1212" stroke="none" fill="rgb(0, 0, 0)" d="M 73.3,106.74 L 74.02,104.47 C 74.14,104.09 74.17,103.69 74.37,103.36 74.54,103.02 74.78,102.74 75.01,102.39 L 75.11,102.36 C 75.44,102.8 75.37,103.3 75.31,103.7 75.24,104.12 74.96,104.45 74.75,104.79 74.35,105.49 73.89,106.16 73.39,106.79 L 73.3,106.74 Z M 73.3,106.74" />
            </g>
            <g id="kazAveSide05-group915">
                <path id="kazAveSide05-bezier1213" stroke="none" fill="rgb(0, 0, 0)" d="M 78.26,115.19 C 76.97,114.86 75.65,114.56 74.36,114.51 73.06,114.54 71.59,114.5 70.29,113.76 69.65,113.42 69.04,112.64 69.05,111.77 69.04,110.93 69.44,110.23 69.82,109.67 70.59,108.55 71.47,107.51 72.53,106.65 L 72.61,106.71 C 71.98,107.91 71.3,109.04 70.67,110.19 70.34,110.75 70.08,111.28 70.04,111.79 69.99,112.29 70.25,112.75 70.73,113.09 71.21,113.43 71.82,113.64 72.44,113.78 73.08,113.94 73.69,113.96 74.4,114.01 75.76,114.21 77.03,114.64 78.29,115.09 L 78.26,115.19 Z M 78.26,115.19" />
            </g>
            <g id="kazAveSide05-group916">
                <path id="kazAveSide05-bezier1214" stroke="none" fill="rgb(0, 0, 0)" d="M 74.14,107.63 C 74.71,108.07 75.33,108.44 75.95,108.69 76.26,108.82 76.59,108.82 76.86,108.96 77.15,109.09 77.42,109.23 77.81,109.44 L 77.83,109.54 C 77.5,109.88 77.04,109.97 76.63,109.93 76.2,109.9 75.86,109.62 75.55,109.39 74.92,108.92 74.43,108.34 74.06,107.69 L 74.14,107.63 Z M 74.14,107.63" />
            </g>
            <g id="kazAveSide05-group917">
                <path id="kazAveSide05-bezier1215" stroke="none" fill="rgb(0, 0, 0)" d="M 85.62,112.38 C 85.81,112.49 85.99,112.58 86.18,112.64 86.36,112.71 86.55,112.7 86.78,112.74 87.21,112.8 87.63,112.91 88.04,113.03 88.86,113.31 89.66,113.62 90.4,114.22 90.58,114.37 90.76,114.55 90.91,114.81 90.97,114.94 91.04,115.08 91.06,115.26 91.08,115.39 91.1,115.49 91.1,115.63 91.1,115.76 91.1,115.91 91.04,116.09 90.99,116.27 90.85,116.48 90.69,116.6 90.35,116.83 90.08,116.83 89.84,116.86 88.91,116.88 88.11,116.72 87.27,116.46 L 87.27,116.36 C 88.09,116.08 88.98,116 89.72,115.86 89.89,115.84 90.06,115.77 90.07,115.76 90.06,115.78 90.1,115.78 90.11,115.6 90.12,115.53 90.13,115.42 90.13,115.35 90.14,115.31 90.13,115.26 90.11,115.2 90.07,115.08 89.97,114.93 89.85,114.8 89.34,114.26 88.6,113.84 87.86,113.5 87.49,113.32 87.11,113.16 86.72,113.03 86.54,112.97 86.3,112.94 86.1,112.83 85.91,112.72 85.73,112.6 85.57,112.47 L 85.62,112.38 Z M 85.62,112.38" />
            </g>
            <g id="kazAveSide05-group918">
                <path id="kazAveSide05-bezier1216" stroke="none" fill="rgb(0, 0, 0)" d="M 79.4,108.56 C 79.65,108.22 79.94,107.88 80.44,107.71 80.69,107.64 81.03,107.69 81.27,107.87 81.52,108.07 81.6,108.17 81.77,108.32 82.07,108.59 82.45,108.8 82.68,109.15 82.91,109.49 83.13,109.85 83.23,110.34 L 83.16,110.41 C 82.67,110.32 82.3,110.1 81.96,109.84 81.61,109.59 81.42,109.19 81.17,108.84 L 80.85,108.36 C 80.77,108.27 80.68,108.2 80.52,108.2 80.19,108.19 79.79,108.39 79.47,108.63 L 79.4,108.56 Z M 79.4,108.56" />
            </g>
            <g id="kazAveSide05-group919">
                <path id="kazAveSide05-bezier1217" stroke="none" fill="rgb(0, 0, 0)" d="M 78.47,108.19 C 78.4,107.63 78.39,107.06 78.44,106.49 78.46,106.2 78.42,105.88 78.61,105.62 78.7,105.49 78.8,105.35 78.96,105.24 79.09,105.14 79.35,105.02 79.56,105.13 L 79.57,105.23 C 79.5,105.54 79.59,105.74 79.53,105.99 79.52,106.23 79.32,106.44 79.21,106.68 79,107.17 78.79,107.69 78.57,108.21 L 78.47,108.19 Z M 78.47,108.19" />
            </g>
            <g id="kazAveSide05-group920">
                <path id="kazAveSide05-bezier1218" stroke="none" fill="rgb(0, 0, 0)" d="M 52.14,126.97 C 53.24,128.06 54.5,129.03 55.89,129.61 56.57,129.9 57.35,130.03 58.11,130.24 58.87,130.43 59.63,130.64 60.38,130.88 61.14,131.12 61.89,131.38 62.63,131.79 63,132.01 63.38,132.24 63.69,132.68 63.84,132.9 63.96,133.18 63.94,133.56 63.94,133.6 63.9,133.87 63.83,134 63.77,134.15 63.67,134.27 63.58,134.38 63.15,134.78 62.71,134.89 62.29,134.99 61.87,135.06 61.46,135.11 61.06,135.1 60.25,135.1 59.46,135.02 58.69,134.86 L 58.69,134.76 C 59.47,134.63 60.25,134.55 60.99,134.41 61.36,134.32 61.73,134.25 62.07,134.13 62.39,134.03 62.72,133.87 62.84,133.7 62.88,133.66 62.9,133.63 62.91,133.59 62.92,133.55 62.92,133.62 62.93,133.47 62.92,133.45 62.9,133.35 62.83,133.26 62.69,133.05 62.42,132.82 62.12,132.63 61.52,132.24 60.82,131.92 60.11,131.63 59.4,131.35 58.66,131.1 57.93,130.86 57.2,130.6 56.43,130.44 55.68,130.07 54.25,129.32 53.08,128.22 52.07,127.03 L 52.14,126.97 Z M 52.14,126.97" />
            </g>
            <g id="kazAveSide05-group921">
                <path id="kazAveSide05-bezier1219" stroke="none" fill="rgb(0, 0, 0)" d="M 49.82,134.53 C 48.59,134.32 47.34,134.17 46.1,134.12 45.48,134.07 44.89,134.12 44.2,134.04 43.55,133.96 42.78,133.7 42.34,133.01 41.9,132.32 41.96,131.49 42.15,130.83 42.33,130.22 42.52,129.64 42.74,129.04 42.98,128.45 43.22,127.86 43.57,127.3 43.74,127.02 43.93,126.74 44.16,126.49 44.39,126.27 44.71,125.99 45.09,126.05 L 45.09,126.15 C 44.81,126.24 44.65,126.49 44.53,126.76 44.39,127.02 44.29,127.3 44.2,127.59 44.02,128.17 43.85,128.76 43.69,129.36 43.51,129.95 43.33,130.56 43.09,131.14 42.88,131.65 42.82,132.19 43.03,132.6 43.24,133.02 43.75,133.29 44.31,133.4 44.86,133.52 45.53,133.52 46.15,133.62 47.41,133.81 48.64,134.09 49.85,134.43 L 49.82,134.53 Z M 49.82,134.53" />
            </g>
            <g id="kazAveSide05-group922">
                <path id="kazAveSide05-bezier1220" stroke="none" fill="rgb(0, 0, 0)" d="M 53.4,122.55 L 50.07,121.72 48.4,121.33 C 47.84,121.21 47.27,121.08 46.74,121.02 L 46.48,121 46.58,120.76 C 47.58,118.28 48.56,115.8 49.48,113.29 49.92,112.04 50.38,110.78 50.76,109.52 51.14,108.25 51.44,106.96 51.73,105.66 52.29,103.07 52.77,100.43 53.59,97.85 53.99,96.56 54.45,95.27 55.14,94.08 55.8,92.9 56.76,91.75 58.06,91.29 L 58.11,91.38 C 56.94,92.04 56.22,93.18 55.69,94.36 55.16,95.55 54.79,96.81 54.46,98.09 53.84,100.66 53.32,103.28 52.64,105.88 52.3,107.18 51.93,108.48 51.51,109.76 51.07,111.04 50.58,112.28 50.09,113.53 49.1,116.02 48.04,118.48 46.93,120.91 L 46.76,120.64 C 47.38,120.73 47.91,120.89 48.47,121.03 L 50.13,121.49 53.42,122.45 53.4,122.55 Z M 53.4,122.55" />
            </g>
            <g id="kazAveSide05-group923">
                <path id="kazAveSide05-bezier1221" stroke="none" fill="rgb(0, 0, 0)" d="M 57.62,88.93 C 56.96,86.14 56.17,83.37 55.1,80.73 54.56,79.42 53.96,78.09 53.06,77.08 52.84,76.82 52.59,76.68 52.27,76.38 51.99,76.12 51.75,75.84 51.51,75.56 51.04,74.99 50.62,74.4 50.2,73.81 48.56,71.42 47.05,68.96 45.74,66.39 45.11,65.1 44.46,63.81 43.88,62.49 43.33,61.16 42.71,59.87 42.37,58.42 L 42.47,58.41 C 42.73,59.05 43.11,59.68 43.46,60.3 L 44.51,62.18 46.62,65.92 C 48.04,68.4 49.34,70.96 50.87,73.36 51.25,73.96 51.65,74.55 52.08,75.1 52.29,75.38 52.52,75.65 52.75,75.89 52.94,76.09 53.31,76.34 53.55,76.64 54.52,77.83 55.05,79.2 55.57,80.55 56.53,83.28 57.18,86.08 57.72,88.91 L 57.62,88.93 Z M 57.62,88.93" />
            </g>
            <g id="kazAveSide05-group924">
                <path id="kazAveSide05-bezier1222" stroke="none" fill="rgb(0, 0, 0)" d="M 60.3,52.02 C 61.73,54.62 62.91,57.35 63.99,60.12 65.04,62.9 65.95,65.74 66.73,68.61 67.52,71.48 68.22,74.38 68.62,77.34 68.99,80.29 69.24,83.27 69.13,86.25 L 69.03,86.25 C 68.57,83.32 68.18,80.39 67.63,77.49 67.11,74.59 66.63,71.68 65.96,68.8 65.28,65.93 64.47,63.09 63.52,60.29 62.57,57.49 61.52,54.72 60.21,52.06 L 60.3,52.02 Z M 60.3,52.02" />
            </g>
            <g id="kazAveSide05-group925">
                <path id="kazAveSide05-bezier1223" stroke="none" fill="rgb(0, 0, 0)" d="M 69.6,86.99 C 69.84,88.09 69.8,89.25 69.49,90.37 69.34,90.93 69.18,91.52 68.79,91.98 68.41,92.43 67.92,92.81 67.33,92.97 L 67.26,92.9 C 67.48,92.33 67.73,91.88 67.96,91.42 68.18,90.96 68.52,90.58 68.74,90.1 68.96,89.63 69.14,89.13 69.26,88.61 69.39,88.09 69.48,87.55 69.5,87.01 L 69.6,86.99 Z M 69.6,86.99" />
            </g>
            <g id="kazAveSide05-group926">
                <path id="kazAveSide05-bezier1224" stroke="none" fill="rgb(0, 0, 0)" d="M 66.39,94.44 L 63.45,101.56 61.91,105.09 61.11,106.85 C 60.96,107.15 60.83,107.43 60.66,107.74 60.53,107.94 60.5,107.99 60.41,108.14 L 60.2,108.56 C 59.09,110.85 58.14,113.24 57.04,115.55 L 55.39,119.02 C 54.85,120.18 54.26,121.32 53.8,122.51 L 53.71,122.49 C 54.16,119.92 55.2,117.54 56.12,115.14 57.11,112.76 58.27,110.47 59.49,108.19 L 59.74,107.76 C 59.8,107.63 59.96,107.41 60.01,107.34 60.16,107.1 60.31,106.81 60.46,106.53 L 61.32,104.82 62.99,101.35 66.3,94.4 66.39,94.44 Z M 66.39,94.44" />
            </g>
            <g id="kazAveSide05-group927">
                <path id="kazAveSide05-bezier1225" stroke="none" fill="rgb(0, 0, 0)" d="M 52.47,123.06 C 52.34,123.76 52.2,124.45 52.05,125.13 51.98,125.47 51.99,125.84 51.82,126.14 51.65,126.45 51.45,126.72 51.14,127 L 51.04,127 C 50.81,126.59 50.82,126.19 50.86,125.84 50.9,125.47 51.14,125.18 51.3,124.86 51.62,124.23 51.98,123.62 52.37,123.02 L 52.47,123.06 Z M 52.47,123.06" />
            </g>
            <g id="kazAveSide05-group928">
                <path id="kazAveSide05-bezier1226" stroke="none" fill="rgb(0, 0, 0)" d="M 47.38,121.87 C 47.3,122.63 47.19,123.39 47.03,124.13 46.95,124.5 46.95,124.91 46.75,125.24 46.55,125.57 46.31,125.92 45.88,126.13 L 45.79,126.08 C 45.73,125.64 45.74,125.27 45.81,124.9 45.87,124.53 46.11,124.22 46.27,123.88 46.59,123.2 46.93,122.52 47.29,121.84 L 47.38,121.87 Z M 47.38,121.87" />
            </g>
            <g id="kazAveSide05-group929">
                <path id="kazAveSide05-bezier1227" stroke="none" fill="rgb(0, 0, 0)" d="M 45.85,127.15 C 46.74,127.25 47.63,127.33 48.5,127.38 48.94,127.41 49.38,127.34 49.79,127.44 50.22,127.53 50.6,127.65 51.07,127.81 L 51.1,127.9 C 50.72,128.29 50.19,128.4 49.73,128.44 49.25,128.48 48.81,128.29 48.37,128.17 47.49,127.93 46.65,127.62 45.82,127.25 L 45.85,127.15 Z M 45.85,127.15" />
            </g>
            <g id="kazAveSide05-group930">
                <path id="kazAveSide05-bezier1228" stroke="none" fill="rgb(0, 0, 0)" d="M 110.45,18.93 C 109.98,20.11 109.08,21.13 107.91,21.7 106.75,22.28 105.38,22.36 104.12,22.15 101.68,21.77 99.18,22.09 96.84,22.84 94.5,23.59 92.33,24.79 90.25,26.11 89.2,26.75 88.21,27.49 87.26,28.27 86.79,28.66 86.33,29.08 85.9,29.52 85.46,29.96 85.06,30.42 84.76,30.97 L 84.66,30.93 C 85.05,29.69 85.93,28.69 86.79,27.76 87.67,26.84 88.67,26.03 89.69,25.28 91.78,23.8 94.15,22.74 96.62,22.07 99.07,21.39 101.7,21.17 104.21,21.66 105.4,21.92 106.66,21.91 107.79,21.43 108.9,20.95 109.84,20.02 110.35,18.9 L 110.45,18.93 Z M 110.45,18.93" />
            </g>
            <g id="kazAveSide05-group931">
                <path id="kazAveSide05-bezier1229" stroke="none" fill="rgb(0, 0, 0)" d="M 110.86,14.29 C 108.04,12.29 104.34,11.97 101.06,12.69 97.71,13.36 94.84,15.4 92.37,17.72 89.87,20.05 87.72,22.74 85.19,25.13 83.9,26.31 82.57,27.47 81.04,28.35 79.52,29.23 77.75,29.82 76,29.69 L 76,29.59 C 77.72,29.43 79.29,28.72 80.67,27.76 82.05,26.8 83.3,25.64 84.49,24.42 86.88,21.98 89.21,19.42 91.83,17.12 94.42,14.84 97.47,12.79 100.96,12.2 104.38,11.59 108.14,12.07 110.93,14.21 L 110.86,14.29 Z M 110.86,14.29" />
            </g>
            <g id="kazAveSide05-group932">
                <path id="kazAveSide05-bezier1230" stroke="none" fill="rgb(0, 0, 0)" d="M 100.48,27.88 C 99.85,27.5 99.2,27.14 98.55,26.77 98.46,26.72 98.41,26.69 98.32,26.65 98.27,26.64 98.22,26.63 98.16,26.65 98.05,26.69 97.92,26.81 97.82,26.94 97.6,27.2 97.42,27.52 97.24,27.84 96.52,29.12 95.82,30.47 94.89,31.68 93.98,32.89 92.85,34.05 91.39,34.69 89.96,35.34 88.34,35.53 86.86,35.22 L 86.86,35.12 C 88.34,34.88 89.72,34.49 90.95,33.8 92.17,33.12 93.31,32.27 94.27,31.17 95.23,30.09 96,28.83 96.81,27.58 97.03,27.27 97.24,26.95 97.52,26.67 97.67,26.53 97.83,26.38 98.08,26.31 98.2,26.29 98.34,26.3 98.46,26.36 98.54,26.4 98.64,26.47 98.71,26.52 99.32,26.94 99.94,27.35 100.54,27.8 L 100.48,27.88 Z M 100.48,27.88" />
            </g>
        </g>
    </g>
</svg>
