<?xml version="1.0" encoding="UTF-8"?>
<!DOCTYPE svg PUBLIC "-//W3C//DTD SVG 1.1//EN" "http://www.w3.org/Graphics/SVG/1.1/DTD/svg11.dtd">
<svg version="1.1" xmlns="http://www.w3.org/2000/svg" xmlns:xlink="http://www.w3.org/1999/xlink" width="160" height="160"  xml:space="preserve" id="kazSlowSide01">
    <!-- Generated by PaintCode - http://www.paintcodeapp.com -->
    <g id="kazSlowSide01-group">
        <circle id="kazSlowSide01-oval13" stroke="rgb(0, 0, 0)" stroke-width="2" stroke-miterlimit="10" fill="none" cx="125.93" cy="127" r="29" />
        <path id="kazSlowSide01-bezier207" stroke="rgb(0, 0, 0)" stroke-width="2" stroke-miterlimit="10" fill="none" d="M 44.06,153.66 C 41,155.22 34.91,155.99 32.26,155.99 16.25,155.99 3.26,143.01 3.26,126.99 3.26,110.98 16.25,97.99 32.26,97.99 37.41,97.99 42.25,99.34 46.44,101.69" />
        <path id="kazSlowSide01-bezier208" stroke="rgb(0, 0, 0)" stroke-width="2" stroke-miterlimit="10" fill="none" d="M 61.26,127.18 C 61.2,136.56 56.69,144.88 49.74,150.14" />
        <path id="kazSlowSide01-bezier209" stroke="rgb(0, 0, 0)" stroke-width="2" stroke-miterlimit="10" fill="none" d="M 57.58,112 C 59.12,114.62 60.22,118.65 60.8,122.17" />
        <circle id="kazSlowSide01-oval14" stroke="rgb(0, 0, 0)" stroke-width="2" stroke-miterlimit="10" fill="none" cx="70.76" cy="134" r="8.33" />
        <circle id="kazSlowSide01-oval15" stroke="rgb(0, 0, 0)" stroke-width="2" stroke-miterlimit="10" fill="none" cx="32.26" cy="127" r="2.5" />
        <path id="kazSlowSide01-bezier210" stroke="rgb(0, 0, 0)" stroke-width="2" stroke-miterlimit="10" fill="none" d="M 51.69,130.53 L 70.76,134" />
        <path id="kazSlowSide01-bezier211" stroke="rgb(0, 0, 0)" stroke-width="2" stroke-miterlimit="10" fill="none" d="M 46.79,96.66 L 32.26,127 43.06,129.1" />
        <path id="kazSlowSide01-bezier212" stroke="rgb(0, 0, 0)" stroke-width="2" stroke-miterlimit="10" fill="none" d="M 110.52,79.83 L 62.43,79.83" />
        <path id="kazSlowSide01-bezier213" stroke="rgb(0, 0, 0)" stroke-width="2" stroke-miterlimit="10" fill="none" d="M 106.93,68.83 L 125.93,127" />
        <path id="kazSlowSide01-bezier214" stroke="rgb(0, 0, 0)" stroke-width="2" stroke-miterlimit="10" fill="none" d="M 113.59,89.22 L 77.76,124.49" />
        <path id="kazSlowSide01-bezier215" stroke="rgb(0, 0, 0)" stroke-width="2" stroke-miterlimit="10" fill="none" d="M 67.43,123 L 60.03,96.66" />
        <path id="kazSlowSide01-bezier216" stroke="rgb(0, 0, 0)" stroke-width="2" stroke-miterlimit="10" fill="none" d="M 41.64,69.49 C 41.05,69.34 40.58,69.12 40.27,68.83 37.6,66.32 34.34,64.69 39.25,64.51" />
        <path id="kazSlowSide01-bezier217" stroke="rgb(0, 0, 0)" stroke-width="1" stroke-miterlimit="10" fill="none" d="M 43.62,125.66 L 36.33,125.66" />
        <path id="kazSlowSide01-bezier218" stroke="rgb(0, 0, 0)" stroke-width="1" stroke-miterlimit="10" fill="none" d="M 65.7,125.66 L 55.62,125.66" />
        <path id="kazSlowSide01-bezier219" stroke="rgb(0, 0, 0)" stroke-width="1" stroke-miterlimit="10" fill="none" d="M 50.83,136.11 L 62.43,140.04" />
        <path id="kazSlowSide01-bezier220" stroke="rgb(0, 0, 0)" stroke-width="1" stroke-miterlimit="10" fill="none" d="M 34.26,130.5 L 43.04,133.47" />
        <path id="kazSlowSide01-bezier221" stroke="rgb(0, 0, 0)" stroke-width="2" stroke-miterlimit="10" fill="none" d="M 114,69.33 C 110.09,69.33 109.06,69.33 109.06,69.33" />
        <path id="kazSlowSide01-bezier222" stroke="rgb(0, 0, 0)" stroke-width="2" stroke-miterlimit="10" fill="none" d="M 124.01,84.79 C 124.01,84.79 128.18,83.75 128.18,78.25 128.18,74.96 126.81,72.42 124.26,70.9" />
        <path id="kazSlowSide01-bezier223" stroke="rgb(0, 0, 0)" stroke-width="2" stroke-miterlimit="10" fill="none" d="M 54.26,123.66 L 63.31,123.66" />
        <path id="kazSlowSide01-bezier224" stroke="rgb(0, 0, 0)" stroke-width="2" stroke-miterlimit="10" fill="none" d="M 79.85,143.91 L 87.68,143.91" />
        <g id="kazSlowSide01-group153">
            <g id="kazSlowSide01-group154">
                <path id="kazSlowSide01-bezier225" stroke="none" fill="rgb(0, 0, 0)" d="M 121.57,68.66 C 122.2,69.47 122.83,70.27 123.48,71.04 123.81,71.43 124.21,71.74 124.47,72.14 124.76,72.54 124.95,72.95 125.32,73.31 L 125.31,73.41 C 125,73.51 124.67,73.41 124.42,73.28 124.15,73.16 123.93,72.99 123.72,72.81 123.3,72.45 123.09,71.95 122.83,71.5 122.3,70.6 121.86,69.67 121.48,68.71 L 121.57,68.66 Z M 121.57,68.66" />
            </g>
            <g id="kazSlowSide01-group155">
                <path id="kazSlowSide01-bezier226" stroke="none" fill="rgb(0, 0, 0)" d="M 126.33,73.54 C 125.02,74.54 123.63,75.46 122.07,76.1 121.3,76.39 120.45,76.67 119.54,76.41 118.68,76.15 118.03,75.47 117.56,74.78 116.62,73.34 116.14,71.72 115.61,70.16 L 115.57,70.04 C 115.55,69.99 115.53,69.93 115.51,69.91 115.48,69.86 115.43,69.77 115.38,69.7 115.27,69.55 115.14,69.4 115.01,69.25 114.74,68.95 114.46,68.66 114.16,68.38 113.58,67.82 112.97,67.27 112.35,66.73 109.85,64.6 107.21,62.63 104.64,60.57 103.36,59.53 102.06,58.53 100.76,57.51 100.12,57 99.47,56.5 98.81,56.01 98.15,55.51 97.49,55.01 96.78,54.61 L 96.82,54.51 C 98.39,55.12 99.77,56.06 101.17,56.94 102.56,57.84 103.9,58.81 105.25,59.78 107.91,61.74 110.43,63.9 112.88,66.13 113.49,66.7 114.09,67.27 114.68,67.87 114.97,68.17 115.26,68.47 115.53,68.8 115.67,68.96 115.8,69.13 115.93,69.32 115.99,69.42 116.05,69.5 116.11,69.64 116.15,69.71 116.16,69.74 116.18,69.8 L 116.23,69.96 C 116.71,71.54 117.14,73.14 117.98,74.5 118.4,75.17 118.95,75.78 119.68,76.04 120.38,76.28 121.22,76.08 121.97,75.82 123.5,75.26 124.93,74.4 126.27,73.46 L 126.33,73.54 Z M 126.33,73.54" />
            </g>
            <g id="kazSlowSide01-group156">
                <path id="kazSlowSide01-bezier227" stroke="none" fill="rgb(0, 0, 0)" d="M 97.11,53.61 C 96.43,53.62 95.7,53.43 95.19,52.9 94.92,52.64 94.79,52.27 94.63,52.02 L 94.09,51.17 C 93.36,50.04 92.61,48.93 91.85,47.82 91.08,46.71 90.26,45.64 89.59,44.47 88.91,43.31 88.26,42.13 87.74,40.86 L 87.82,40.8 C 88.8,41.77 89.63,42.84 90.43,43.93 91.21,45.02 91.85,46.22 92.53,47.39 93.2,48.56 93.88,49.73 94.52,50.92 94.68,51.22 94.84,51.52 94.98,51.83 95.15,52.16 95.21,52.46 95.42,52.7 95.8,53.19 96.46,53.46 97.11,53.51 L 97.11,53.61 Z M 97.11,53.61" />
            </g>
            <g id="kazSlowSide01-group157">
                <path id="kazSlowSide01-bezier228" stroke="none" fill="rgb(0, 0, 0)" d="M 86.41,40.46 C 87.65,39.23 89.03,38.14 90.55,37.24 91.31,36.79 92.09,36.38 92.91,36.03 93.72,35.67 94.56,35.34 95.45,35.18 L 95.1,35.91 C 94.56,34.71 94.07,33.5 93.67,32.21 L 93.75,32.16 C 94.68,33.15 95.39,34.3 96.02,35.46 L 96.32,36.02 95.66,36.19 C 94.85,36.39 94.02,36.56 93.22,36.83 92.41,37.09 91.62,37.43 90.86,37.8 89.33,38.56 87.83,39.45 86.48,40.53 L 86.41,40.46 Z M 86.41,40.46" />
            </g>
            <g id="kazSlowSide01-group158">
                <path id="kazSlowSide01-bezier229" stroke="none" fill="rgb(0, 0, 0)" d="M 95.21,36.46 C 96.34,37.96 97.38,39.53 98.31,41.18 98.77,42 99.29,42.8 99.59,43.71 99.9,44.6 100.14,45.53 100.18,46.51 L 100.08,46.54 C 99.52,45.74 99.09,44.92 98.67,44.1 98.24,43.28 97.97,42.38 97.6,41.53 96.84,39.84 96.01,38.16 95.13,36.51 L 95.21,36.46 Z M 95.21,36.46" />
            </g>
            <g id="kazSlowSide01-group159">
                <path id="kazSlowSide01-bezier230" stroke="none" fill="rgb(0, 0, 0)" d="M 101.54,48.72 C 104.03,49.68 106.21,51.51 107.7,53.74 109.3,55.84 111.1,57.81 112.91,59.75 114.74,61.67 116.65,63.53 118.54,65.35 119.01,65.8 119.5,66.26 119.99,66.61 120.43,66.9 121.07,66.99 121.72,67.09 122.37,67.17 123.1,67.27 123.73,67.64 124.35,68.02 124.8,68.57 125.12,69.17 L 125.04,69.22 C 124.6,68.72 124.11,68.27 123.53,68.05 122.96,67.81 122.33,67.79 121.66,67.78 120.99,67.76 120.26,67.73 119.54,67.34 118.91,66.96 118.4,66.53 117.87,66.1 115.83,64.32 114.08,62.29 112.32,60.28 110.57,58.26 108.84,56.23 107.3,54.03 105.94,51.76 103.93,49.9 101.5,48.81 L 101.54,48.72 Z M 101.54,48.72" />
            </g>
            <g id="kazSlowSide01-group160">
                <path id="kazSlowSide01-bezier231" stroke="none" fill="rgb(0, 0, 0)" d="M 94.49,20.3 C 94.73,21.56 95.26,22.76 95.97,23.78 96.68,24.84 97.6,25.65 98.7,26.31 99.78,26.99 100.91,27.56 102.02,28.04 102.57,28.28 103.14,28.45 103.69,28.45 104.24,28.46 104.76,28.16 105.16,27.64 L 105.25,27.68 C 105.18,28.01 105.01,28.33 104.76,28.6 104.51,28.87 104.16,29.05 103.79,29.14 103.06,29.33 102.33,29.18 101.68,28.98 100.36,28.56 99.28,27.75 98.24,26.97 97.18,26.21 96.19,25.2 95.55,24.05 94.91,22.89 94.5,21.61 94.39,20.31 L 94.49,20.3 Z M 94.49,20.3" />
            </g>
            <g id="kazSlowSide01-group161">
                <path id="kazSlowSide01-bezier232" stroke="none" fill="rgb(0, 0, 0)" d="M 106.44,24.65 C 107.1,24.78 107.83,24.83 108.44,24.6 108.73,24.47 108.95,24.25 109.02,23.97 109.1,23.7 109.05,23.36 109.04,23 109.01,21.6 109.01,20.19 109.18,18.77 109.27,18.05 109.36,17.34 109.7,16.59 109.82,16.39 109.87,16.29 109.93,16.15 110,16.01 110.05,15.86 110.1,15.71 110.22,15.41 110.31,15.1 110.38,14.78 110.65,13.53 110.83,12.13 110.02,11 L 110.08,10.92 C 110.74,11.28 111.12,12.03 111.29,12.75 111.47,13.48 111.46,14.24 111.36,14.97 111.29,15.34 111.2,15.7 111.08,16.06 111.02,16.24 110.94,16.41 110.85,16.59 110.77,16.76 110.64,16.96 110.58,17.06 110.28,17.56 110.1,18.24 109.97,18.89 109.71,20.23 109.61,21.62 109.54,23 109.51,23.34 109.55,23.71 109.4,24.1 109.26,24.49 108.9,24.78 108.54,24.88 107.8,25.08 107.08,24.94 106.41,24.75 L 106.44,24.65 Z M 106.44,24.65" />
            </g>
            <g id="kazSlowSide01-group162">
                <path id="kazSlowSide01-bezier233" stroke="none" fill="rgb(0, 0, 0)" d="M 98.69,21.28 C 98.35,20.66 98.09,20 97.93,19.29 97.85,18.93 97.71,18.55 97.84,18.15 97.95,17.78 98.23,17.32 98.71,17.27 L 98.78,17.34 C 98.74,17.76 98.82,17.99 98.83,18.29 98.86,18.58 98.74,18.89 98.73,19.22 98.7,19.87 98.73,20.56 98.79,21.25 L 98.69,21.28 Z M 98.69,21.28" />
            </g>
            <g id="kazSlowSide01-group163">
                <path id="kazSlowSide01-bezier234" stroke="none" fill="rgb(0, 0, 0)" d="M 94.45,26.43 C 94.65,26.14 94.9,25.88 95.18,25.66 95.33,25.55 95.45,25.36 95.67,25.38 95.86,25.39 96.12,25.47 96.28,25.75 L 96.28,25.85 C 96.11,26.12 96.05,26.24 95.93,26.35 95.83,26.45 95.65,26.37 95.5,26.4 95.18,26.43 94.85,26.48 94.49,26.52 L 94.45,26.43 Z M 94.45,26.43" />
            </g>
            <g id="kazSlowSide01-group164">
                <path id="kazSlowSide01-bezier235" stroke="none" fill="rgb(0, 0, 0)" d="M 86.41,21.27 C 83.4,21.36 80.47,22.2 77.63,23.16 74.79,24.14 72.03,25.33 69.47,26.88 66.9,28.42 64.49,30.21 62.01,31.92 60.76,32.76 59.53,33.63 58.25,34.45 56.97,35.24 55.68,36.1 54.19,36.54 L 54.16,36.44 C 54.83,36.1 55.45,35.69 56.05,35.24 56.66,34.8 57.26,34.34 57.85,33.88 L 61.43,31.11 C 63.84,29.29 66.41,27.65 69.08,26.18 71.73,24.69 74.59,23.57 77.48,22.68 80.38,21.84 83.37,21.13 86.42,21.17 L 86.41,21.27 Z M 86.41,21.27" />
            </g>
            <g id="kazSlowSide01-group165">
                <path id="kazSlowSide01-bezier236" stroke="none" fill="rgb(0, 0, 0)" d="M 53.72,37.46 C 55.71,39.32 57.63,41.25 59.48,43.26 60.39,44.27 61.28,45.31 62.12,46.4 62.95,47.49 63.76,48.61 64.34,49.93 L 63.69,49.79 C 64.65,48.82 65.63,47.88 66.62,46.96 67.62,46.03 68.67,45.16 69.75,44.33 70.85,43.53 71.96,42.73 73.16,42.05 74.35,41.4 75.61,40.73 77.01,40.64 L 77.02,40.74 C 76.38,40.91 75.78,41.21 75.21,41.55 74.63,41.88 74.07,42.25 73.53,42.64 72.45,43.42 71.39,44.24 70.37,45.11 69.33,45.96 68.31,46.83 67.28,47.7 66.25,48.57 65.24,49.45 64.25,50.36 L 63.81,50.77 63.6,50.22 C 63.13,49.02 62.37,47.88 61.6,46.79 60.82,45.69 59.97,44.63 59.1,43.59 57.37,41.5 55.54,39.48 53.65,37.53 L 53.72,37.46 Z M 53.72,37.46" />
            </g>
            <g id="kazSlowSide01-group166">
                <path id="kazSlowSide01-bezier237" stroke="none" fill="rgb(0, 0, 0)" d="M 78.97,40.77 C 79.53,40.91 80.11,40.95 80.67,40.93 81.23,40.93 81.79,40.85 82.32,40.71 82.86,40.58 83.33,40.29 83.85,40.14 84.37,39.98 84.89,39.79 85.52,39.66 L 85.58,39.74 C 85.28,40.32 84.8,40.74 84.26,41.06 83.72,41.38 83.07,41.44 82.46,41.5 81.23,41.62 79.99,41.4 78.93,40.86 L 78.97,40.77 Z M 78.97,40.77" />
            </g>
            <g id="kazSlowSide01-group167">
                <path id="kazSlowSide01-bezier238" stroke="none" fill="rgb(0, 0, 0)" d="M 52.73,39.4 C 52.18,40.47 51.53,41.48 50.75,42.42 50.35,42.89 49.98,43.41 49.43,43.73 48.9,44.05 48.26,44.3 47.6,44.23 L 47.57,44.13 48.83,42.93 C 49.23,42.54 49.73,42.25 50.17,41.86 51.04,41.1 51.86,40.24 52.64,39.35 L 52.73,39.4 Z M 52.73,39.4" />
            </g>
            <g id="kazSlowSide01-group168">
                <path id="kazSlowSide01-bezier239" stroke="none" fill="rgb(0, 0, 0)" d="M 61.22,55.44 C 60.19,54.28 59.06,53.19 57.87,52.18 56.67,51.19 55.4,50.26 54.02,49.58 53.33,49.22 52.61,49.01 51.86,48.72 51.12,48.42 50.4,48.07 49.71,47.67 48.33,46.85 47.07,45.89 45.98,44.65 L 46.47,44.72 C 44.84,45.96 43.34,47.44 42.07,49.06 40.8,50.68 39.76,52.47 39.2,54.4 38.93,55.36 38.78,56.36 38.81,57.35 38.85,58.35 39.05,59.36 39.33,60.35 39.59,61.34 39.94,62.32 40.38,63.26 40.81,64.2 41.3,65.13 42.03,65.87 L 41.97,65.95 C 41.1,65.31 40.48,64.4 39.94,63.49 39.41,62.56 38.96,61.59 38.6,60.58 38.26,59.56 37.99,58.51 37.89,57.41 37.78,56.3 37.92,55.18 38.21,54.12 38.79,51.99 40,50.12 41.36,48.48 42.76,46.85 44.31,45.4 46.06,44.13 L 46.33,43.94 46.54,44.2 C 47.49,45.35 48.72,46.36 50.01,47.16 50.66,47.57 51.35,47.93 52.06,48.23 52.75,48.53 53.53,48.79 54.22,49.19 55.62,49.95 56.87,50.93 58.05,51.98 59.21,53.03 60.3,54.17 61.3,55.38 L 61.22,55.44 Z M 61.22,55.44" />
            </g>
            <g id="kazSlowSide01-group169">
                <path id="kazSlowSide01-bezier240" stroke="none" fill="rgb(0, 0, 0)" d="M 42.51,67.56 C 42.86,70.57 43.25,73.57 43.68,76.56 44.09,79.56 44.55,82.55 45.1,85.51 45.38,86.99 45.69,88.47 46.06,89.92 46.24,90.65 46.45,91.36 46.67,92.06 46.88,92.78 47.19,93.36 47.52,94.12 48.65,97.07 48.69,100.32 47.81,103.24 L 47.72,103.22 C 48.02,100.23 47.8,97.16 46.6,94.51 46.32,93.89 45.91,93.12 45.69,92.38 45.45,91.64 45.27,90.89 45.1,90.15 44.78,88.65 44.54,87.15 44.31,85.65 43.4,79.65 42.84,73.61 42.41,67.57 L 42.51,67.56 Z M 42.51,67.56" />
            </g>
            <g id="kazSlowSide01-group170">
                <path id="kazSlowSide01-bezier241" stroke="none" fill="rgb(0, 0, 0)" d="M 47.21,102.85 C 46.59,104.05 46.02,105.28 45.53,106.53 45.05,107.78 44.6,109.07 44.54,110.37 44.53,113.04 44.72,115.75 44.82,118.45 44.93,121.16 45.08,123.87 44.95,126.58 44.86,127.94 44.78,129.3 44.57,130.65 44.35,131.99 44.13,133.39 43.42,134.59 L 43.33,134.54 C 43.56,133.91 43.67,133.25 43.73,132.59 43.81,131.92 43.85,131.25 43.88,130.58 43.93,129.25 43.96,127.9 43.95,126.56 L 44.01,118.47 C 44.02,115.76 43.92,113.08 44.04,110.34 44.17,108.93 44.71,107.65 45.25,106.41 45.8,105.17 46.43,103.97 47.12,102.81 L 47.21,102.85 Z M 47.21,102.85" />
            </g>
            <g id="kazSlowSide01-group171">
                <path id="kazSlowSide01-bezier242" stroke="none" fill="rgb(0, 0, 0)" d="M 59.08,64.59 C 59.84,67.36 60.37,70.19 60.78,73.03 61.16,75.88 61.39,78.75 61.43,81.64 61.47,84.51 61.38,87.42 60.85,90.27 60.3,93.11 59.5,95.92 58.17,98.49 L 58.08,98.45 C 58.87,95.69 59.5,92.93 59.86,90.11 60.25,87.31 60.56,84.48 60.63,81.63 60.69,78.79 60.56,75.93 60.28,73.09 60.01,70.25 59.61,67.41 58.98,64.62 L 59.08,64.59 Z M 59.08,64.59" />
            </g>
            <g id="kazSlowSide01-group172">
                <path id="kazSlowSide01-bezier243" stroke="none" fill="rgb(0, 0, 0)" d="M 58.56,99.1 C 59.02,99.63 59.16,100.3 59.34,100.94 59.48,101.58 59.57,102.3 59.44,103 59.31,103.67 59.19,104.34 58.86,104.93 58.54,105.51 58.17,106.06 57.63,106.52 L 57.54,106.47 C 57.59,105.77 57.76,105.15 57.94,104.54 58.12,103.93 58.47,103.39 58.66,102.81 58.86,102.24 58.88,101.64 58.85,101 58.81,100.39 58.79,99.7 58.48,99.17 L 58.56,99.1 Z M 58.56,99.1" />
            </g>
            <g id="kazSlowSide01-group173">
                <path id="kazSlowSide01-bezier244" stroke="none" fill="rgb(0, 0, 0)" d="M 57.63,107.43 C 56.92,109.89 56.22,112.36 55.61,114.84 55.09,117.33 54.38,119.85 53.71,122.31 53.04,124.78 52.38,127.26 51.74,129.74 51.12,132.21 50.33,134.7 49.78,137.12 L 49.67,137.59 49.25,137.46 C 48.24,137.15 47.22,136.82 46.19,136.56 45.67,136.43 45.15,136.31 44.63,136.21 44.12,136.13 43.57,136.03 43.09,136.18 L 43.04,136.1 C 43.55,135.81 44.13,135.86 44.67,135.86 45.22,135.88 45.76,135.94 46.29,136.02 47.37,136.18 48.43,136.38 49.49,136.66 L 48.96,137 C 49.36,134.39 50.06,131.95 50.79,129.48 L 53.04,122.11 54.17,118.44 C 54.35,117.82 54.54,117.21 54.69,116.6 54.84,115.97 55.01,115.35 55.19,114.73 55.92,112.27 56.72,109.83 57.54,107.4 L 57.63,107.43 Z M 57.63,107.43" />
            </g>
            <g id="kazSlowSide01-group174">
                <path id="kazSlowSide01-bezier245" stroke="none" fill="rgb(0, 0, 0)" d="M 42.46,141.54 C 42.55,140.76 42.66,139.99 42.78,139.22 42.84,138.84 42.8,138.44 42.96,138.1 43.1,137.74 43.29,137.42 43.57,137.06 L 43.67,137.06 C 43.94,137.48 43.95,137.92 43.94,138.32 43.92,138.72 43.69,139.07 43.55,139.43 43.26,140.16 42.92,140.87 42.55,141.57 L 42.46,141.54 Z M 42.46,141.54" />
            </g>
            <g id="kazSlowSide01-group175">
                <path id="kazSlowSide01-bezier246" stroke="none" fill="rgb(0, 0, 0)" d="M 46.75,155.69 C 45.76,154.43 44.71,153.21 43.53,152.15 42.95,151.62 42.32,151.11 41.65,150.84 40.9,150.59 40.1,150.25 39.4,149.77 38.72,149.29 37.97,148.67 37.75,147.63 37.66,147.12 37.78,146.57 38.02,146.15 38.26,145.72 38.58,145.39 38.92,145.11 L 39.15,144.92 C 39.22,144.86 39.32,144.79 39.36,144.74 39.47,144.64 39.59,144.5 39.71,144.36 39.94,144.07 40.13,143.74 40.34,143.41 40.76,142.76 41.11,141.9 41.91,141.51 L 41.96,141.6 C 41.68,141.87 41.52,142.21 41.38,142.58 41.24,142.94 41.11,143.32 40.97,143.71 40.84,144.1 40.66,144.48 40.43,144.86 40.32,145.05 40.19,145.23 40.02,145.42 39.94,145.52 39.87,145.57 39.8,145.64 L 39.58,145.86 C 39.04,146.35 38.66,146.93 38.73,147.48 38.78,148.06 39.29,148.67 39.87,149.12 40.48,149.59 41.14,149.94 41.9,150.24 42.7,150.64 43.3,151.21 43.88,151.79 45,152.98 45.95,154.29 46.83,155.64 L 46.75,155.69 Z M 46.75,155.69" />
            </g>
            <g id="kazSlowSide01-group176">
                <path id="kazSlowSide01-bezier247" stroke="none" fill="rgb(0, 0, 0)" d="M 43.08,142.97 C 43.54,143.38 44.05,143.71 44.56,143.96 44.82,144.09 45.12,144.1 45.33,144.27 45.56,144.44 45.78,144.61 46.02,144.95 L 46.01,145.05 C 45.65,145.25 45.28,145.27 44.94,145.19 44.59,145.13 44.35,144.84 44.11,144.62 43.61,144.17 43.23,143.62 43,143.02 L 43.08,142.97 Z M 43.08,142.97" />
            </g>
            <g id="kazSlowSide01-group177">
                <path id="kazSlowSide01-bezier248" stroke="none" fill="rgb(0, 0, 0)" d="M 46.77,145.45 C 47.18,145.3 47.63,145.17 48.09,145.32 48.32,145.39 48.52,145.59 48.6,145.83 48.68,146.06 48.71,146.25 48.78,146.46 49.01,147.29 49.26,148.12 49.55,148.92 49.83,149.73 50.13,150.54 50.53,151.26 50.71,151.6 51.01,152 51.18,152.05 L 51.45,152.09 51.79,152.16 C 52.01,152.21 52.23,152.27 52.44,152.34 53.3,152.62 54.13,152.95 54.92,153.51 55.11,153.65 55.3,153.82 55.48,154.04 55.64,154.26 55.82,154.51 55.84,154.94 L 55.84,155.02 C 55.83,155.08 55.82,155.15 55.8,155.21 55.77,155.33 55.73,155.43 55.68,155.51 55.57,155.69 55.43,155.8 55.3,155.89 55.03,156.06 54.79,156.14 54.55,156.2 53.6,156.4 52.73,156.38 51.85,156.33 50.98,156.28 50.12,156.19 49.25,156.05 L 49.25,155.95 C 50.96,155.65 52.77,155.65 54.28,155.24 54.46,155.19 54.63,155.12 54.72,155.05 54.77,155.01 54.8,154.98 54.8,154.97 54.8,154.97 54.8,154.96 54.8,154.98 54.79,154.98 54.79,155 54.8,155.01 L 54.8,154.93 C 54.82,154.87 54.6,154.5 54.3,154.28 53.71,153.79 52.95,153.4 52.18,153.1 51.99,153.02 51.79,152.95 51.59,152.9 L 51.3,152.82 C 51.2,152.79 51.16,152.8 50.94,152.73 50.6,152.58 50.45,152.36 50.3,152.17 50.16,151.97 50.06,151.77 49.95,151.56 49.56,150.75 49.31,149.91 49.07,149.07 48.84,148.23 48.65,147.38 48.48,146.53 48.39,146.1 48.4,145.65 48.02,145.5 47.66,145.35 47.2,145.42 46.8,145.54 L 46.77,145.45 Z M 46.77,145.45" />
            </g>
            <g id="kazSlowSide01-group178">
                <path id="kazSlowSide01-bezier249" stroke="none" fill="rgb(0, 0, 0)" d="M 46.74,143.98 C 46.91,142.9 47.11,141.83 47.37,140.77 47.49,140.24 47.55,139.67 47.8,139.18 48.06,138.7 48.34,138.18 48.9,137.84 L 48.97,137.91 C 48.93,138.47 48.87,139 48.74,139.53 48.63,140.05 48.34,140.52 48.13,141.02 47.71,142.01 47.28,143.01 46.83,144.01 L 46.74,143.98 Z M 46.74,143.98" />
            </g>
            <g id="kazSlowSide01-group179">
                <path id="kazSlowSide01-bezier250" stroke="none" fill="rgb(0, 0, 0)" d="M 76.04,99.68 L 76.13,112.72 76.24,115.97 76.31,117.58 C 76.32,117.83 76.34,118.12 76.37,118.31 76.38,118.37 76.44,118.56 76.46,118.71 L 76.53,119.14 C 76.64,120.26 76.67,121.34 76.69,122.43 L 76.72,124.06 C 76.74,124.59 76.71,125.17 76.88,125.63 L 76.81,125.7 C 76.6,125.46 76.54,125.18 76.46,124.92 76.39,124.65 76.32,124.38 76.27,124.11 76.16,123.57 76.08,123.03 76,122.49 75.83,121.41 75.74,120.32 75.54,119.29 L 75.47,118.91 C 75.45,118.8 75.42,118.72 75.37,118.52 75.3,118.18 75.29,117.92 75.27,117.63 75.24,117.08 75.25,116.53 75.24,115.98 L 75.33,112.71 C 75.46,108.36 75.68,104.01 75.94,99.67 L 76.04,99.68 Z M 76.04,99.68" />
            </g>
            <g id="kazSlowSide01-group180">
                <path id="kazSlowSide01-bezier251" stroke="none" fill="rgb(0, 0, 0)" d="M 69.97,123 C 69.48,120.94 68.98,118.87 68.46,116.82 67.95,114.76 67.44,112.7 66.84,110.67 66.69,110.17 66.53,109.67 66.35,109.18 66.16,108.72 65.97,108.13 65.88,107.59 65.68,106.49 65.67,105.4 65.72,104.32 65.87,102.16 66.24,100.05 66.78,97.99 L 66.88,98 C 66.9,100.15 66.68,102.25 66.72,104.35 66.71,105.39 66.73,106.43 66.86,107.43 66.92,107.94 67.03,108.37 67.2,108.9 67.36,109.42 67.49,109.94 67.62,110.46 68.61,114.62 69.35,118.8 70.06,122.99 L 69.97,123 Z M 69.97,123" />
            </g>
            <g id="kazSlowSide01-group181">
                <path id="kazSlowSide01-bezier252" stroke="none" fill="rgb(0, 0, 0)" d="M 81.47,135.23 C 82.57,136.32 83.82,137.3 85.22,137.88 85.9,138.17 86.68,138.29 87.43,138.5 88.19,138.7 88.95,138.9 89.71,139.15 90.47,139.39 91.22,139.65 91.96,140.05 92.32,140.27 92.7,140.5 93.02,140.94 93.17,141.17 93.29,141.45 93.27,141.82 93.27,141.87 93.23,142.13 93.16,142.27 93.1,142.42 93,142.54 92.9,142.65 92.48,143.05 92.03,143.16 91.62,143.25 91.2,143.33 90.79,143.37 90.39,143.37 89.58,143.37 88.79,143.28 88.02,143.13 L 88.02,143.03 C 88.8,142.9 89.57,142.82 90.32,142.67 90.69,142.59 91.06,142.52 91.39,142.4 91.72,142.29 92.05,142.13 92.17,141.96 92.2,141.93 92.23,141.89 92.24,141.86 92.25,141.82 92.24,141.89 92.26,141.74 92.25,141.72 92.23,141.62 92.16,141.52 92.02,141.32 91.75,141.09 91.45,140.9 90.85,140.51 90.15,140.19 89.44,139.9 88.73,139.62 87.99,139.37 87.25,139.13 86.52,138.87 85.75,138.7 85.01,138.34 83.58,137.58 82.41,136.49 81.4,135.3 L 81.47,135.23 Z M 81.47,135.23" />
            </g>
            <g id="kazSlowSide01-group182">
                <path id="kazSlowSide01-bezier253" stroke="none" fill="rgb(0, 0, 0)" d="M 79.4,143.12 C 78.88,142.82 78.33,142.64 77.78,142.49 77.51,142.42 77.21,142.44 76.97,142.29 76.72,142.14 76.48,141.96 76.25,141.63 L 76.28,141.53 C 76.63,141.33 76.96,141.3 77.27,141.33 77.6,141.36 77.85,141.6 78.11,141.76 78.64,142.1 79.13,142.52 79.47,143.05 L 79.4,143.12 Z M 79.4,143.12" />
            </g>
            <g id="kazSlowSide01-group183">
                <path id="kazSlowSide01-bezier254" stroke="none" fill="rgb(0, 0, 0)" d="M 61.09,55.92 C 60.9,57.15 60.7,58.36 60.48,59.57 60.37,60.18 60.35,60.8 60.14,61.38 59.95,61.96 59.68,62.52 59.39,63.07 L 59.29,63.09 C 59.03,62.41 59.11,61.77 59.17,61.15 59.23,60.53 59.51,59.96 59.7,59.38 60.1,58.2 60.52,57.05 60.99,55.9 L 61.09,55.92 Z M 61.09,55.92" />
            </g>
            <g id="kazSlowSide01-group184">
                <path id="kazSlowSide01-bezier255" stroke="none" fill="rgb(0, 0, 0)" d="M 61.07,65.88 C 62.83,67.59 64.41,69.47 65.9,71.42 67.38,73.38 68.74,75.42 70,77.54 71.25,79.65 72.45,81.82 73.34,84.11 74.22,86.41 74.97,88.77 75.36,91.2 L 75.27,91.23 C 74.33,88.96 73.45,86.7 72.42,84.5 71.42,82.3 70.45,80.07 69.3,77.93 68.15,75.79 66.88,73.71 65.5,71.71 64.12,69.7 62.65,67.75 61,65.95 L 61.07,65.88 Z M 61.07,65.88" />
            </g>
            <g id="kazSlowSide01-group185">
                <path id="kazSlowSide01-bezier256" stroke="none" fill="rgb(0, 0, 0)" d="M 75.61,92.07 C 76.01,93.08 76.33,94.13 76.53,95.22 76.63,95.76 76.8,96.31 76.71,96.88 76.64,97.44 76.47,98.03 76.04,98.48 L 75.95,98.45 C 75.83,97.87 75.77,97.38 75.71,96.86 75.65,96.35 75.75,95.83 75.74,95.3 75.72,94.24 75.63,93.17 75.51,92.09 L 75.61,92.07 Z M 75.61,92.07" />
            </g>
            <g id="kazSlowSide01-group186">
                <path id="kazSlowSide01-bezier257" stroke="none" fill="rgb(0, 0, 0)" d="M 66.14,96.68 C 65.56,95.6 64.89,94.56 64.12,93.65 63.74,93.19 63.26,92.85 62.89,92.43 62.5,92.02 62.11,91.66 61.58,91.27 L 61.59,91.17 C 62.27,91.02 62.99,91.29 63.53,91.67 64.1,92.05 64.43,92.64 64.77,93.18 65.44,94.27 65.92,95.44 66.24,96.64 L 66.14,96.68 Z M 66.14,96.68" />
            </g>
            <g id="kazSlowSide01-group187">
                <path id="kazSlowSide01-bezier258" stroke="none" fill="rgb(0, 0, 0)" d="M 109.54,9.69 C 108.15,8.11 106.22,7.05 104.23,6.43 102.22,5.82 100.08,5.64 98.01,5.86 96.98,5.97 95.96,6.23 95.05,6.68 94.13,7.13 93.34,7.8 92.74,8.62 91.54,10.27 91.1,12.37 90.97,14.43 90.89,15.47 90.95,16.52 90.91,17.61 90.88,18.68 90.79,19.76 90.66,20.82 90.39,22.96 89.92,25.07 89.22,27.11 88.48,29.14 87.58,31.13 86.26,32.87 85.6,33.73 84.83,34.53 83.94,35.16 83.04,35.77 82,36.21 80.92,36.3 L 80.91,36.2 C 83,35.74 84.56,34.17 85.69,32.46 86.83,30.73 87.65,28.79 88.27,26.8 88.91,24.81 89.36,22.76 89.68,20.69 89.84,19.65 89.95,18.61 90.02,17.57 90.09,16.53 90.06,15.46 90.17,14.37 90.36,12.24 90.86,10.01 92.22,8.22 92.9,7.35 93.8,6.63 94.8,6.16 95.8,5.7 96.88,5.45 97.96,5.36 100.12,5.2 102.28,5.46 104.32,6.14 106.34,6.84 108.25,7.97 109.62,9.63 L 109.54,9.69 Z M 109.54,9.69" />
            </g>
            <g id="kazSlowSide01-group188">
                <path id="kazSlowSide01-bezier259" stroke="none" fill="rgb(0, 0, 0)" d="M 108.5,11.85 C 107.85,13.17 107.06,14.46 105.86,15.43 105.55,15.66 105.21,15.87 104.82,16 104.46,16.14 103.96,16.16 103.63,16.14 102.91,16.12 102.19,16.14 101.48,16.22 100.08,16.39 98.68,16.82 97.78,17.68 97.33,18.1 97.05,18.69 96.91,19.35 96.78,20.02 96.8,20.74 96.85,21.48 L 96.76,21.51 C 96.42,20.84 96.22,20.09 96.21,19.29 96.2,18.49 96.49,17.63 97.05,16.99 97.62,16.36 98.38,15.97 99.13,15.75 99.9,15.54 100.66,15.45 101.42,15.42 102.17,15.39 102.92,15.42 103.67,15.49 104.37,15.61 104.97,15.42 105.57,15.02 106.74,14.25 107.66,13.04 108.41,11.81 L 108.5,11.85 Z M 108.5,11.85" />
            </g>
            <g id="kazSlowSide01-group189">
                <path id="kazSlowSide01-bezier260" stroke="none" fill="rgb(0, 0, 0)" d="M 93.88,24.08 C 94.06,26.14 94.06,28.22 93.79,30.31 93.65,31.34 93.53,32.41 93.08,33.4 92.64,34.37 92,35.34 91.03,35.87 L 90.97,35.79 C 91.51,34.9 91.85,33.99 92.15,33.05 92.42,32.1 92.78,31.16 93,30.17 93.23,29.18 93.39,28.17 93.51,27.15 93.64,26.14 93.74,25.11 93.78,24.08 L 93.88,24.08 Z M 93.88,24.08" />
            </g>
            <g id="kazSlowSide01-group190">
                <path id="kazSlowSide01-bezier261" stroke="none" fill="rgb(0, 0, 0)" d="M 63.04,50.44 L 62.33,52.12 C 62.21,52.39 62.18,52.71 62,52.92 61.82,53.15 61.62,53.32 61.33,53.57 L 61.23,53.56 C 60.97,53.21 61.02,52.8 61.1,52.49 61.17,52.16 61.45,51.95 61.64,51.71 62.04,51.22 62.48,50.78 62.96,50.38 L 63.04,50.44 Z M 63.04,50.44" />
            </g>
            <g id="kazSlowSide01-group191">
                <path id="kazSlowSide01-bezier262" stroke="none" fill="rgb(0, 0, 0)" d="M 89.3,16 C 89,18.34 88.48,20.66 87.62,22.9 87.19,24.01 86.74,25.16 85.93,26.1 85.15,27.03 84.02,27.88 82.76,27.9 L 82.74,27.81 C 83.79,27.25 84.5,26.41 85.13,25.5 85.75,24.57 86.39,23.62 86.89,22.58 87.39,21.54 87.82,20.46 88.19,19.35 88.58,18.25 88.93,17.13 89.2,15.99 L 89.3,16 Z M 89.3,16" />
            </g>
        </g>
        <path id="kazSlowSide01-bezier320" stroke="rgb(0, 0, 0)" stroke-width="2" stroke-miterlimit="10" fill="none" d="M 58.79,123.66 L 70.76,134" />
    </g>
</svg>
