<?xml version="1.0" encoding="UTF-8"?>
<!DOCTYPE svg PUBLIC "-//W3C//DTD SVG 1.1//EN" "http://www.w3.org/Graphics/SVG/1.1/DTD/svg11.dtd">
<svg version="1.1" xmlns="http://www.w3.org/2000/svg" xmlns:xlink="http://www.w3.org/1999/xlink" width="160" height="60"  xml:space="preserve" id="kazSlowTop03">
    <!-- Generated by PaintCode - http://www.paintcodeapp.com -->
    <g id="kazSlowTop03-group">
        <path id="kazSlowTop03-bezier1880" stroke="rgb(0, 0, 0)" stroke-width="2" stroke-miterlimit="10" fill="none" d="M 112.17,30.26 L 156.51,30.26" />
        <path id="kazSlowTop03-bezier1881" stroke="rgb(0, 0, 0)" stroke-width="2" stroke-miterlimit="10" fill="none" d="M 3.13,30.26 L 33.14,30.26" />
        <path id="kazSlowTop03-bezier1882" stroke="rgb(0, 0, 0)" stroke-width="2" stroke-miterlimit="10" fill="none" d="M 127.7,13.25 L 106.45,13.25 106.45,20.13" />
        <path id="kazSlowTop03-bezier1883" stroke="rgb(0, 0, 0)" stroke-width="2" stroke-miterlimit="10" fill="none" d="M 127.7,46.27 L 106.45,46.27 106.45,46.25 106.45,35.38" />
        <path id="kazSlowTop03-bezier1884" stroke="rgb(0, 0, 0)" stroke-width="2" stroke-miterlimit="10" fill="none" d="M 36.22,25.75 C 36.22,25.75 34.95,27.07 34.95,30.26 34.95,33.44 36.22,34.38 36.22,34.38" />
        <path id="kazSlowTop03-bezier1885" stroke="rgb(0, 0, 0)" stroke-width="2" stroke-miterlimit="10" fill="none" d="M 126.86,27.84 L 112.85,27.84" />
        <path id="kazSlowTop03-bezier1886" stroke="rgb(0, 0, 0)" stroke-width="2" stroke-miterlimit="10" fill="none" d="M 126.86,32.71 L 110.85,32.71" />
        <path id="kazSlowTop03-bezier1887" stroke="rgb(0, 0, 0)" stroke-width="2" stroke-miterlimit="10" fill="none" d="M 33.6,27.84 L 31.9,27.84" />
        <path id="kazSlowTop03-bezier1888" stroke="rgb(0, 0, 0)" stroke-width="2" stroke-miterlimit="10" fill="none" d="M 33.6,32.71 L 31.9,32.71" />
        <g id="kazSlowTop03-group1422">
            <g id="kazSlowTop03-group1423">
                <path id="kazSlowTop03-bezier1889" stroke="none" fill="rgb(0, 0, 0)" d="M 102.15,36 C 100.65,36.29 99.11,36.5 97.56,36.54 96.02,36.54 94.43,36.44 92.92,35.78 92.56,35.63 92.14,35.31 91.95,35.28 91.7,35.22 91.59,35.27 91.41,35.46 91.07,35.88 90.84,36.62 90.66,37.32 90.29,38.74 90.08,40.25 89.78,41.77 L 89.68,41.77 C 89.43,40.23 89.43,38.67 89.69,37.1 89.86,36.32 90.02,35.52 90.7,34.77 90.88,34.6 91.12,34.43 91.42,34.36 91.71,34.29 92.02,34.34 92.25,34.44 92.78,34.68 92.93,34.9 93.28,35.06 94.54,35.72 96.08,35.94 97.57,36.04 99.08,36.14 100.61,36.06 102.13,35.9 L 102.15,36 Z M 102.15,36" />
            </g>
            <g id="kazSlowTop03-group1424">
                <path id="kazSlowTop03-bezier1890" stroke="none" fill="rgb(0, 0, 0)" d="M 96.5,19.11 C 97.76,18.95 99.01,18.89 100.27,18.79 101.54,18.72 102.83,18.86 104.07,19.22 106.53,19.94 108.79,21.61 110,23.98 110.61,25.15 110.93,26.48 110.92,27.82 110.92,29.16 110.54,30.49 109.88,31.65 108.52,33.95 106.18,35.55 103.68,36.02 L 103.65,35.93 C 105.94,34.92 107.93,33.3 109,31.17 110.1,29.08 110.29,26.52 109.28,24.33 108.28,22.14 106.24,20.48 103.92,19.69 101.59,18.82 99.01,19.13 96.52,19.21 L 96.5,19.11 Z M 96.5,19.11" />
            </g>
            <g id="kazSlowTop03-group1425">
                <path id="kazSlowTop03-bezier1891" stroke="none" fill="rgb(0, 0, 0)" d="M 80.85,16.82 C 81.97,16.55 83.12,16.28 84.31,16.29 85.5,16.29 86.71,16.54 87.78,17.12 88.31,17.4 88.81,17.76 89.26,18.15 89.71,18.54 90.14,18.9 90.6,19.23 91.05,19.55 91.53,19.85 92.01,20.02 92.24,20.1 92.48,20.16 92.62,20.13 92.76,20.12 92.81,20.04 92.83,20.03 L 94.29,19.33 93.17,19.67 C 94.13,19.38 95.06,19.58 95.87,19.76 96.7,19.98 97.47,20.22 98.31,20.24 L 98.32,20.34 C 97.5,20.64 96.58,20.55 95.76,20.51 94.93,20.45 94.14,20.42 93.48,20.64 L 93.82,20.28 C 93.67,20.84 93.15,21.14 92.71,21.15 92.28,21.17 91.94,21.05 91.64,20.91 91.04,20.62 90.57,20.24 90.11,19.85 89.65,19.47 89.22,19.04 88.82,18.64 88.42,18.25 87.98,17.9 87.5,17.62 86.54,17.04 85.44,16.72 84.31,16.64 83.17,16.55 82.01,16.73 80.87,16.92 L 80.85,16.82 Z M 80.85,16.82" />
            </g>
            <g id="kazSlowTop03-group1426">
                <path id="kazSlowTop03-bezier1892" stroke="none" fill="rgb(0, 0, 0)" d="M 117.99,10.62 C 116.51,10.77 115.03,10.93 113.54,11.04 112.04,11.14 110.6,11.28 109.03,11.25 107.61,11.07 106.11,11.18 104.64,11.17 103.9,11.2 103.17,11.23 102.43,11.28 101.71,11.36 100.95,11.39 100.29,11.68 L 100.24,11.62 C 100.87,11.16 101.64,11.01 102.37,10.84 103.11,10.68 103.85,10.58 104.6,10.51 105.35,10.43 106.1,10.38 106.85,10.38 107.59,10.38 108.37,10.37 109.12,10.54 110.52,10.69 112.05,10.63 113.52,10.62 L 117.98,10.55 117.99,10.62 Z M 117.99,10.62" />
            </g>
            <g id="kazSlowTop03-group1427">
                <path id="kazSlowTop03-bezier1893" stroke="none" fill="rgb(0, 0, 0)" d="M 99.11,17.4 C 100.68,17.26 102.26,17.1 103.83,16.9 104.62,16.8 105.4,16.7 106.18,16.57 106.57,16.51 106.95,16.44 107.33,16.35 107.51,16.3 107.7,16.25 107.86,16.18 108,16.12 108.25,16 108.43,15.95 109.98,15.49 111.53,15.15 113.11,14.9 114.69,14.71 116.26,14.5 117.89,14.69 L 117.87,14.77 C 116.34,15.05 114.78,15.41 113.23,15.66 111.67,15.92 110.08,16.06 108.58,16.44 108.38,16.5 108.26,16.54 108.04,16.63 107.83,16.71 107.63,16.76 107.43,16.8 107.03,16.88 106.64,16.94 106.24,16.99 105.45,17.09 104.66,17.16 103.86,17.21 102.28,17.33 100.7,17.41 99.11,17.47 L 99.11,17.4 Z M 99.11,17.4" />
            </g>
            <g id="kazSlowTop03-group1428">
                <path id="kazSlowTop03-bezier1894" stroke="none" fill="rgb(0, 0, 0)" d="M 89.69,16.03 C 92.04,14.65 94.26,13.05 96.44,11.42 L 96.73,11.2 96.92,11.54 C 97.22,12.07 97.47,12.6 97.73,13.14 97.97,13.68 98.21,14.23 98.38,14.8 98.7,15.95 98.82,17.19 98.53,18.38 L 98.43,18.38 97.39,15.09 C 97.09,14 96.79,12.88 96.34,11.84 L 96.82,11.96 C 94.54,13.49 92.19,14.91 89.74,16.12 L 89.69,16.03 Z M 89.69,16.03" />
            </g>
            <g id="kazSlowTop03-group1429">
                <path id="kazSlowTop03-bezier1895" stroke="none" fill="rgb(0, 0, 0)" d="M 37.21,30.26 C 37.14,28.53 37.13,26.79 37.22,25.05 37.34,23.32 37.46,21.56 38.13,19.86 38.31,19.45 38.55,19.01 38.96,18.69 39.31,18.4 39.77,18.16 40.19,18.02 41.06,17.7 41.97,17.59 42.86,17.56 44.65,17.5 46.39,17.69 48.14,18.08 L 48.53,18.16 48.52,18.59 C 48.48,20.54 48.36,22.48 48.22,24.43 48.16,25.4 48.07,26.37 47.98,27.34 47.91,28.32 47.79,29.29 47.69,30.26 L 47.59,30.26 C 47.5,29.28 47.45,28.3 47.43,27.33 47.41,26.35 47.38,25.38 47.39,24.4 47.38,22.45 47.4,20.5 47.51,18.55 L 47.89,19.06 C 46.26,18.66 44.55,18.36 42.87,18.36 42.04,18.36 41.19,18.44 40.42,18.68 40.03,18.82 39.7,18.96 39.36,19.21 39.07,19.41 38.86,19.75 38.68,20.11 38.02,21.63 37.8,23.38 37.59,25.08 37.41,26.8 37.32,28.53 37.31,30.26 L 37.21,30.26 Z M 37.21,30.26" />
            </g>
            <g id="kazSlowTop03-group1430">
                <path id="kazSlowTop03-bezier1896" stroke="none" fill="rgb(0, 0, 0)" d="M 123.79,11.9 C 123.59,11.4 123.34,10.92 123.04,10.5 122.75,10.06 122.38,9.78 121.91,9.66 121.49,9.56 121,9.71 120.47,9.73 119.94,9.76 119.4,9.78 118.83,9.67 L 118.82,9.59 C 119.31,9.3 119.83,9.12 120.36,8.99 120.88,8.88 121.5,8.85 122.11,9.09 122.4,9.23 122.63,9.36 122.87,9.59 123.08,9.81 123.23,10.06 123.36,10.31 123.6,10.82 123.75,11.34 123.86,11.88 L 123.79,11.9 Z M 123.79,11.9" />
            </g>
            <g id="kazSlowTop03-group1431">
                <path id="kazSlowTop03-bezier1897" stroke="none" fill="rgb(0, 0, 0)" d="M 118.85,14.78 C 119.3,14.92 119.77,15.01 120.2,15.01 120.42,15.01 120.61,14.93 120.8,14.95 L 121.49,15.04 121.54,15.1 C 121.45,15.41 121.19,15.6 120.91,15.69 120.63,15.79 120.35,15.69 120.1,15.61 119.6,15.45 119.17,15.18 118.81,14.85 L 118.85,14.78 Z M 118.85,14.78" />
            </g>
            <g id="kazSlowTop03-group1432">
                <path id="kazSlowTop03-bezier1898" stroke="none" fill="rgb(0, 0, 0)" d="M 117.98,48.97 L 113.53,48.84 C 112.05,48.83 110.53,48.76 109.1,48.88 108.37,49.04 107.59,49.04 106.85,49.08 106.1,49.1 105.35,49.11 104.6,49.06 103.85,49.01 103.1,48.89 102.36,48.74 101.63,48.56 100.85,48.4 100.24,47.89 L 100.29,47.83 C 100.97,48.09 101.72,48.1 102.44,48.17 103.17,48.23 103.91,48.24 104.65,48.29 106.11,48.35 107.6,48.56 109.04,48.37 110.59,48.31 112.04,48.43 113.54,48.53 L 117.99,48.89 117.98,48.97 Z M 117.98,48.97" />
            </g>
            <g id="kazSlowTop03-group1433">
                <path id="kazSlowTop03-bezier1899" stroke="none" fill="rgb(0, 0, 0)" d="M 99.11,42.04 C 100.7,42.09 102.28,42.14 103.87,42.25 104.66,42.31 105.45,42.38 106.25,42.47 106.64,42.52 107.04,42.57 107.44,42.65 107.65,42.69 107.85,42.73 108.07,42.81 L 108.34,42.92 108.6,43 C 110.09,43.36 111.68,43.58 113.22,43.89 114.77,44.17 116.33,44.52 117.87,44.75 L 117.89,44.82 C 117.07,44.93 116.29,44.85 115.49,44.81 114.69,44.77 113.9,44.67 113.11,44.58 111.53,44.39 109.97,44.13 108.4,43.64 108.3,43.61 108.21,43.58 108.1,43.53 107.98,43.49 107.89,43.43 107.83,43.41 107.68,43.34 107.49,43.29 107.31,43.24 106.94,43.14 106.55,43.07 106.17,43 105.39,42.87 104.61,42.76 103.82,42.66 102.26,42.46 100.68,42.27 99.1,42.12 L 99.11,42.04 Z M 99.11,42.04" />
            </g>
            <g id="kazSlowTop03-group1434">
                <path id="kazSlowTop03-bezier1900" stroke="none" fill="rgb(0, 0, 0)" d="M 86.41,43.39 C 89.38,44.49 92.33,45.65 95.26,46.84 L 94.85,46.94 C 95.46,46.17 96,45.29 96.42,44.4 96.84,43.5 97.14,42.56 97.32,41.62 L 97.62,42.17 C 96.62,41.73 95.68,41.2 94.77,40.61 94.32,40.3 93.88,39.98 93.46,39.62 93.06,39.24 92.63,38.84 92.45,38.3 L 92.54,38.26 C 92.85,38.68 93.31,38.95 93.75,39.22 94.2,39.48 94.67,39.72 95.15,39.94 96.09,40.4 97.07,40.81 98.03,41.23 L 98.38,41.38 98.33,41.78 C 98.18,42.87 97.74,43.88 97.23,44.81 96.7,45.74 96.1,46.6 95.39,47.41 L 95.21,47.61 94.98,47.5 86.37,43.49 86.41,43.39 Z M 86.41,43.39" />
            </g>
            <g id="kazSlowTop03-group1435">
                <path id="kazSlowTop03-bezier1901" stroke="none" fill="rgb(0, 0, 0)" d="M 37.31,30.26 C 37.28,31.99 37.32,33.72 37.46,35.43 37.63,37.12 37.82,38.89 38.51,40.38 38.69,40.73 38.93,41.05 39.22,41.2 39.58,41.39 39.94,41.49 40.35,41.59 41.16,41.77 42.01,41.83 42.85,41.84 44.55,41.86 46.27,41.69 47.94,41.44 L 47.51,41.97 C 47.4,40.02 47.38,38.07 47.39,36.12 47.37,35.14 47.41,34.16 47.43,33.19 47.45,32.21 47.5,31.24 47.59,30.26 L 47.69,30.26 C 47.79,31.23 47.91,32.2 47.98,33.17 48.07,34.14 48.16,35.12 48.22,36.09 48.36,38.03 48.48,39.98 48.52,41.93 L 48.53,42.4 48.09,42.45 C 46.33,42.66 44.59,42.73 42.83,42.64 41.95,42.59 41.06,42.5 40.19,42.28 39.76,42.17 39.29,42.01 38.89,41.78 38.42,41.49 38.16,41.06 37.97,40.64 37.25,38.95 37.18,37.18 37.09,35.45 37.04,33.72 37.09,31.98 37.21,30.26 L 37.31,30.26 Z M 37.31,30.26" />
            </g>
            <g id="kazSlowTop03-group1436">
                <path id="kazSlowTop03-bezier1902" stroke="none" fill="rgb(0, 0, 0)" d="M 120.61,45.02 C 120.63,45.66 120.68,46.31 120.8,46.9 120.87,47.2 121.01,47.46 121.07,47.68 121.14,47.91 121.16,48.08 121.51,48.27 L 121.52,48.34 C 121.21,48.63 120.6,48.4 120.4,48.03 120.17,47.68 120.2,47.3 120.2,46.96 120.21,46.28 120.34,45.63 120.54,45.01 L 120.61,45.02 Z M 120.61,45.02" />
            </g>
            <g id="kazSlowTop03-group1437">
                <path id="kazSlowTop03-bezier1903" stroke="none" fill="rgb(0, 0, 0)" d="M 123.86,47.64 C 123.75,48.17 123.6,48.7 123.36,49.21 123.23,49.46 123.08,49.7 122.87,49.92 122.63,50.15 122.4,50.29 122.11,50.42 121.5,50.67 120.88,50.64 120.36,50.52 119.83,50.39 119.31,50.22 118.82,49.93 L 118.83,49.85 C 119.4,49.74 119.94,49.76 120.47,49.78 121,49.8 121.49,49.96 121.91,49.86 122.37,49.74 122.75,49.46 123.04,49.01 123.34,48.6 123.59,48.11 123.79,47.62 L 123.86,47.64 Z M 123.86,47.64" />
            </g>
            <g id="kazSlowTop03-group1438">
                <path id="kazSlowTop03-bezier1904" stroke="none" fill="rgb(0, 0, 0)" d="M 118.81,44.67 C 119.17,44.34 119.6,44.07 120.1,43.91 120.35,43.83 120.63,43.73 120.91,43.82 121.19,43.91 121.45,44.11 121.54,44.42 L 121.49,44.48 120.8,44.57 C 120.61,44.59 120.42,44.51 120.2,44.5 119.77,44.51 119.3,44.6 118.85,44.73 L 118.81,44.67 Z M 118.81,44.67" />
            </g>
            <g id="kazSlowTop03-group1439">
                <path id="kazSlowTop03-bezier1905" stroke="none" fill="rgb(0, 0, 0)" d="M 106.42,32.46 C 105.69,33.4 104.74,34.23 103.6,34.7 102.47,35.17 101.21,35.32 100,35.27 98.78,35.23 97.57,35.02 96.39,34.74 95.2,34.45 94.1,34.08 92.95,33.96 90.66,33.68 88.34,34.04 86.27,35.02 84.21,36.02 82.36,37.59 81.03,39.55 L 80.94,39.51 C 81.38,38.37 82.11,37.37 82.94,36.47 83.76,35.56 84.76,34.81 85.84,34.2 88.01,32.96 90.66,32.62 93.08,33.07 94.31,33.26 95.48,33.7 96.58,34.04 97.71,34.36 98.86,34.62 100.03,34.72 101.19,34.81 102.38,34.76 103.48,34.38 104.59,34.01 105.55,33.28 106.34,32.39 L 106.42,32.46 Z M 106.42,32.46" />
            </g>
            <g id="kazSlowTop03-group1440">
                <path id="kazSlowTop03-bezier1906" stroke="none" fill="rgb(0, 0, 0)" d="M 78.54,20.52 C 80.1,22.17 81.92,23.61 83.94,24.57 84.95,25.04 86.02,25.37 87.11,25.41 87.64,25.42 88.18,25.37 88.69,25.23 89.23,25.08 89.75,24.9 90.28,24.71 92.39,23.93 94.45,22.87 96.77,22.39 97.93,22.17 99.15,22.05 100.33,22.31 101.51,22.55 102.59,23.15 103.41,23.96 L 103.35,24.04 C 102.38,23.44 101.31,23.06 100.23,22.96 99.15,22.89 98.06,23.02 96.99,23.32 94.86,23.91 92.77,24.83 90.56,25.52 90.01,25.69 89.45,25.85 88.88,25.98 88.28,26.12 87.66,26.15 87.06,26.1 85.86,26 84.73,25.59 83.7,25.04 81.65,23.92 79.93,22.34 78.46,20.58 L 78.54,20.52 Z M 78.54,20.52" />
            </g>
            <g id="kazSlowTop03-group1441">
                <path id="kazSlowTop03-bezier1907" stroke="none" fill="rgb(0, 0, 0)" d="M 96.08,30.55 C 94.59,30.3 93.06,30.49 91.56,30.63 L 87.02,31.12 C 85.5,31.27 83.96,31.47 82.41,31.34 81.63,31.28 80.85,31.17 80.09,30.93 79.34,30.69 78.56,30.35 78.06,29.71 L 78.13,29.64 C 79.46,30.36 80.97,30.31 82.45,30.34 83.93,30.34 85.45,30.37 86.96,30.32 L 91.53,30.13 C 93.05,30.12 94.61,30.07 96.11,30.45 L 96.08,30.55 Z M 96.08,30.55" />
            </g>
            <g id="kazSlowTop03-group1442">
                <path id="kazSlowTop03-bezier1908" stroke="none" fill="rgb(0, 0, 0)" d="M 89.73,14.64 C 86.75,14.74 83.79,14.82 80.82,15.05 77.86,15.28 74.9,15.59 72.02,16.25 70.59,16.57 69.19,17.12 67.73,17.46 66.28,17.84 64.81,18.13 63.33,18.36 60.36,18.79 57.37,18.99 54.33,18.75 L 54.82,18.2 C 55.31,20.09 55.76,21.99 56.15,23.91 56.5,25.84 56.89,27.75 56.89,29.79 56.77,31.83 56.36,33.7 56.05,35.63 55.89,36.58 55.76,37.54 55.67,38.5 55.59,39.46 55.55,40.44 55.8,41.37 L 55.7,41.4 C 55.32,40.48 55.28,39.46 55.26,38.49 55.25,37.5 55.33,36.52 55.42,35.55 55.57,33.61 55.94,31.64 55.96,29.79 55.86,27.93 55.49,26 55.13,24.11 54.77,22.21 54.38,20.3 53.95,18.41 L 53.8,17.79 54.44,17.86 C 57.32,18.18 60.32,18.06 63.24,17.7 64.7,17.51 66.16,17.25 67.6,16.92 69.04,16.62 70.44,16.11 71.92,15.8 74.85,15.19 77.83,14.94 80.8,14.77 83.78,14.6 86.76,14.58 89.73,14.54 L 89.73,14.64 Z M 89.73,14.64" />
            </g>
            <g id="kazSlowTop03-group1443">
                <path id="kazSlowTop03-bezier1909" stroke="none" fill="rgb(0, 0, 0)" d="M 55.77,41.97 C 58.26,41.29 60.81,40.83 63.38,40.58 65.96,40.36 68.57,40.34 71.16,40.76 72.48,40.98 73.68,41.3 74.95,41.47 76.21,41.67 77.47,41.84 78.73,41.99 81.26,42.33 83.82,42.53 86.39,42.78 L 86.39,42.88 C 83.81,43.19 81.22,43.15 78.63,42.98 77.34,42.87 76.05,42.71 74.78,42.45 73.5,42.22 72.23,41.81 71.02,41.55 68.54,41.05 65.97,40.96 63.42,41.08 60.86,41.2 58.31,41.52 55.8,42.07 L 55.77,41.97 Z M 55.77,41.97" />
            </g>
            <g id="kazSlowTop03-group1444">
                <path id="kazSlowTop03-bezier1910" stroke="none" fill="rgb(0, 0, 0)" d="M 48.83,41.85 C 49.63,41.37 50.55,41.1 51.49,40.98 51.96,40.91 52.44,40.84 52.91,40.94 53.38,41.04 53.84,41.2 54.23,41.51 L 54.21,41.58 C 53.72,41.67 53.28,41.68 52.83,41.68 52.4,41.69 51.96,41.59 51.52,41.57 50.64,41.56 49.73,41.64 48.86,41.91 L 48.83,41.85 Z M 48.83,41.85" />
            </g>
            <g id="kazSlowTop03-group1445">
                <path id="kazSlowTop03-bezier1911" stroke="none" fill="rgb(0, 0, 0)" d="M 49.18,18.63 L 51.7,18.48 C 52.12,18.44 52.54,18.36 52.95,18.39 53.37,18.43 53.78,18.48 54.22,18.63 L 54.23,18.71 C 53.83,18.96 53.4,19.07 52.98,19.14 52.55,19.2 52.12,19.12 51.7,19.08 50.85,19 50.01,18.87 49.18,18.71 L 49.18,18.63 Z M 49.18,18.63" />
            </g>
            <g id="kazSlowTop03-group1446">
                <path id="kazSlowTop03-bezier1912" stroke="none" fill="rgb(0, 0, 0)" d="M 49.83,27.41 C 50.16,27.56 50.51,27.59 50.82,27.58 50.99,27.56 51.14,27.49 51.3,27.53 51.46,27.58 51.62,27.63 51.84,27.8 L 51.85,27.87 C 51.72,28.11 51.53,28.22 51.33,28.28 51.13,28.34 50.92,28.24 50.73,28.17 50.34,28.04 49.99,27.8 49.78,27.46 L 49.83,27.41 Z M 49.83,27.41" />
            </g>
            <g id="kazSlowTop03-group1447">
                <path id="kazSlowTop03-bezier1913" stroke="none" fill="rgb(0, 0, 0)" d="M 49.54,33.1 C 49.84,32.8 50.17,32.53 50.55,32.32 50.74,32.2 50.94,32.06 51.18,32.06 51.41,32.07 51.72,32.15 51.86,32.43 L 51.83,32.5 C 51.59,32.62 51.48,32.73 51.31,32.8 51.15,32.88 50.96,32.85 50.76,32.88 50.38,32.95 49.98,33.05 49.58,33.16 L 49.54,33.1 Z M 49.54,33.1" />
            </g>
            <g id="kazSlowTop03-group1448">
                <path id="kazSlowTop03-bezier1914" stroke="none" fill="rgb(0, 0, 0)" d="M 120.54,14.51 C 120.34,13.88 120.21,13.24 120.2,12.56 120.19,12.22 120.17,11.83 120.4,11.48 120.59,11.12 121.21,10.88 121.52,11.18 L 121.51,11.25 C 121.16,11.44 121.14,11.61 121.07,11.83 121,12.06 120.87,12.32 120.8,12.62 120.68,13.21 120.63,13.85 120.61,14.5 L 120.54,14.51 Z M 120.54,14.51" />
            </g>
            <g id="kazSlowTop03-group1449">
                <path id="kazSlowTop03-bezier1915" stroke="none" fill="rgb(0, 0, 0)" d="M 100.48,47.21 C 99.8,47.32 99.11,47.39 98.42,47.42 98.07,47.45 97.72,47.51 97.37,47.42 97.03,47.34 96.67,47.22 96.39,46.91 L 96.41,46.84 C 96.78,46.75 97.1,46.69 97.44,46.68 97.78,46.66 98.11,46.76 98.45,46.82 L 100.48,47.13 100.48,47.21 Z M 100.48,47.21" />
            </g>
            <g id="kazSlowTop03-group1450">
                <path id="kazSlowTop03-bezier1916" stroke="none" fill="rgb(0, 0, 0)" d="M 100.61,12.37 L 99.24,12.66 C 99.01,12.71 98.8,12.82 98.58,12.8 98.35,12.78 98.15,12.73 97.87,12.62 L 97.84,12.55 C 97.99,12.27 98.25,12.14 98.48,12.05 98.72,11.97 98.96,12.03 99.2,12.06 99.68,12.1 100.15,12.18 100.61,12.3 L 100.61,12.37 Z M 100.61,12.37" />
            </g>
            <g id="kazSlowTop03-group1451">
                <path id="kazSlowTop03-bezier1917" stroke="none" fill="rgb(0, 0, 0)" d="M 111.14,26.31 C 111.32,26.31 111.51,26.42 111.66,26.54 111.8,26.66 111.92,26.8 112.02,26.97 L 112.05,27.02 112.03,27.11 C 111.99,27.31 111.98,27.51 111.86,27.68 111.73,27.83 111.59,28.03 111.31,28.03 L 111.29,27.98 C 111.34,27.78 111.36,27.63 111.41,27.45 111.46,27.29 111.58,27.15 111.66,26.99 L 111.67,27.13 C 111.63,26.99 111.56,26.83 111.47,26.69 111.39,26.55 111.3,26.42 111.13,26.36 L 111.14,26.31 Z M 111.14,26.31" />
            </g>
            <g id="kazSlowTop03-group1452">
                <path id="kazSlowTop03-bezier1918" stroke="none" fill="rgb(0, 0, 0)" d="M 49.17,18.15 C 52.15,17.06 55.22,16.24 58.3,15.47 61.38,14.71 64.49,14.06 67.6,13.47 70.72,12.9 73.85,12.36 76.99,11.9 80.13,11.44 83.3,11.13 86.46,10.88 L 86.41,10.89 C 87.43,10.62 88.53,10.75 89.45,11.21 89.91,11.44 90.32,11.76 90.66,12.14 90.98,12.53 91.25,13.01 91.23,13.52 L 91.16,13.52 C 91.13,13.04 90.84,12.62 90.5,12.29 90.15,11.96 89.74,11.71 89.3,11.53 88.43,11.17 87.44,11.12 86.56,11.42 L 86.55,11.42 86.51,11.43 77.1,12.65 C 73.96,13.05 70.82,13.48 67.7,14.01 64.58,14.52 61.47,15.12 58.37,15.79 55.28,16.48 52.2,17.22 49.2,18.22 L 49.17,18.15 Z M 49.17,18.15" />
            </g>
        </g>
    </g>
</svg>
