<?xml version="1.0" encoding="UTF-8"?>
<!DOCTYPE svg PUBLIC "-//W3C//DTD SVG 1.1//EN" "http://www.w3.org/Graphics/SVG/1.1/DTD/svg11.dtd">
<svg version="1.1" xmlns="http://www.w3.org/2000/svg" xmlns:xlink="http://www.w3.org/1999/xlink" width="160" height="160"  xml:space="preserve" id="kazSlowSide04">
    <!-- Generated by PaintCode - http://www.paintcodeapp.com -->
    <g id="kazSlowSide04-group">
        <circle id="kazSlowSide04-oval" stroke="rgb(0, 0, 0)" stroke-width="2" stroke-miterlimit="10" fill="none" cx="126.61" cy="117" r="29" />
        <path id="kazSlowSide04-bezier" stroke="rgb(0, 0, 0)" stroke-width="2" stroke-miterlimit="10" fill="none" d="M 61.94,117.54 C 61.65,133.31 48.78,146 32.95,146 16.93,146 3.95,133.01 3.95,117 3.95,100.98 16.93,88 32.95,88 39.78,88 46.06,90.36 51.02,94.32" />
        <path id="kazSlowSide04-bezier2" stroke="rgb(0, 0, 0)" stroke-width="2" stroke-miterlimit="10" fill="none" d="M 57.04,100.85 C 58.59,103.16 59.81,105.7 60.65,108.41" />
        <circle id="kazSlowSide04-oval2" stroke="rgb(0, 0, 0)" stroke-width="2" stroke-miterlimit="10" fill="none" cx="71.45" cy="124" r="8.33" />
        <circle id="kazSlowSide04-oval3" stroke="rgb(0, 0, 0)" stroke-width="2" stroke-miterlimit="10" fill="none" cx="32.95" cy="117" r="2.5" />
        <path id="kazSlowSide04-bezier3" stroke="rgb(0, 0, 0)" stroke-width="2" stroke-miterlimit="10" fill="none" d="M 62.95,69.83 L 55.28,69.83 32.95,117 71.45,124" />
        <path id="kazSlowSide04-bezier4" stroke="rgb(0, 0, 0)" stroke-width="2" stroke-miterlimit="10" fill="none" d="M 105.28,69.83 L 82.2,69.83" />
        <path id="kazSlowSide04-bezier5" stroke="rgb(0, 0, 0)" stroke-width="2" stroke-miterlimit="10" fill="none" d="M 112.66,74.29 L 126.61,117" />
        <path id="kazSlowSide04-bezier6" stroke="rgb(0, 0, 0)" stroke-width="2" stroke-miterlimit="10" fill="none" d="M 107.61,58.83 L 109.09,63.34" />
        <path id="kazSlowSide04-bezier7" stroke="rgb(0, 0, 0)" stroke-width="2" stroke-miterlimit="10" fill="none" d="M 114.27,79.22 L 78.45,114.49" />
        <path id="kazSlowSide04-bezier8" stroke="rgb(0, 0, 0)" stroke-width="2" stroke-miterlimit="10" fill="none" d="M 59.81,83.47 L 54.66,65.14" />
        <path id="kazSlowSide04-bezier9" stroke="rgb(0, 0, 0)" stroke-width="2" stroke-miterlimit="10" fill="none" d="M 68.11,113 L 63.34,96.02" />
        <path id="kazSlowSide04-bezier10" stroke="rgb(0, 0, 0)" stroke-width="2" stroke-miterlimit="10" fill="none" d="M 48.56,59.59 C 45.18,59.92 42.06,59.88 40.95,58.83 38.11,56.16 34.61,54.5 40.95,54.5 41.3,54.5 41.68,54.5 42.07,54.5" />
        <path id="kazSlowSide04-bezier11" stroke="rgb(0, 0, 0)" stroke-width="1" stroke-miterlimit="10" fill="none" d="M 66.38,115.66 L 37.01,115.66" />
        <path id="kazSlowSide04-bezier12" stroke="rgb(0, 0, 0)" stroke-width="1" stroke-miterlimit="10" fill="none" d="M 34.95,120.5 L 63.11,130.04" />
        <path id="kazSlowSide04-bezier13" stroke="rgb(0, 0, 0)" stroke-width="2" stroke-miterlimit="10" fill="none" d="M 124.7,74.79 C 124.7,74.79 128.86,73.75 128.86,68.25 128.86,62.75 125.03,59.33 118.2,59.33 111.36,59.33 109.74,59.33 109.74,59.33" />
        <path id="kazSlowSide04-bezier14" stroke="rgb(0, 0, 0)" stroke-width="2" stroke-miterlimit="10" fill="none" d="M 54.12,113.66 L 61.95,113.66" />
        <path id="kazSlowSide04-bezier15" stroke="rgb(0, 0, 0)" stroke-width="2" stroke-miterlimit="10" fill="none" d="M 80.53,133.91 L 88.36,133.91" />
        <g id="kazSlowSide04-group2">
            <g id="kazSlowSide04-group3">
                <path id="kazSlowSide04-bezier16" stroke="none" fill="rgb(0, 0, 0)" d="M 120.32,72.71 C 121.06,73.43 121.8,74.13 122.55,74.8 122.93,75.13 123.37,75.39 123.69,75.75 124.03,76.09 124.27,76.48 124.69,76.78 L 124.7,76.88 C 124.42,77.02 124.07,76.97 123.8,76.88 123.52,76.8 123.28,76.66 123.05,76.52 122.58,76.22 122.3,75.76 121.97,75.35 121.32,74.53 120.75,73.67 120.24,72.77 L 120.32,72.71 Z M 120.32,72.71" />
            </g>
            <g id="kazSlowSide04-group4">
                <path id="kazSlowSide04-bezier17" stroke="none" fill="rgb(0, 0, 0)" d="M 125.73,76.86 C 124.58,78.05 123.33,79.16 121.89,80.01 121.16,80.41 120.36,80.81 119.42,80.68 118.54,80.54 117.8,79.97 117.23,79.35 116.09,78.07 115.38,76.52 114.64,75.06 L 114.58,74.94 C 114.55,74.9 114.52,74.84 114.5,74.83 114.47,74.78 114.4,74.7 114.34,74.64 114.21,74.5 114.06,74.37 113.91,74.24 113.6,73.99 113.28,73.74 112.95,73.51 112.29,73.03 111.6,72.58 110.91,72.14 108.13,70.38 105.24,68.82 102.4,67.15 100.99,66.3 99.55,65.49 98.12,64.67 97.41,64.26 96.69,63.86 95.97,63.47 95.25,63.07 94.53,62.67 93.77,62.38 L 93.79,62.28 C 95.43,62.65 96.93,63.38 98.44,64.05 99.95,64.75 101.42,65.51 102.89,66.28 105.8,67.84 108.61,69.61 111.35,71.47 112.04,71.94 112.72,72.41 113.38,72.92 113.71,73.18 114.04,73.44 114.36,73.72 114.52,73.87 114.68,74.01 114.83,74.18 114.9,74.27 114.97,74.35 115.06,74.47 115.1,74.54 115.12,74.57 115.14,74.62 L 115.22,74.78 C 115.92,76.27 116.57,77.79 117.6,79.01 118.11,79.62 118.74,80.14 119.5,80.29 120.23,80.43 121.03,80.11 121.74,79.74 123.18,78.98 124.47,77.92 125.66,76.79 L 125.73,76.86 Z M 125.73,76.86" />
            </g>
            <g id="kazSlowSide04-group5">
                <path id="kazSlowSide04-bezier18" stroke="none" fill="rgb(0, 0, 0)" d="M 91.68,60.87 C 90.92,60.58 90.19,59.95 90.06,59.05 90,58.23 89.81,57.45 89.65,56.65 89.33,55.05 88.99,53.46 88.63,51.87 88.28,50.28 87.85,48.71 87.58,47.1 87.3,45.5 87.13,43.86 86.91,42.27 L 86.99,42.22 C 87.42,42.97 87.64,43.75 87.9,44.53 88.16,45.31 88.36,46.1 88.56,46.9 88.96,48.48 89.17,50.11 89.42,51.72 89.67,53.33 89.92,54.95 90.14,56.57 90.23,57.38 90.36,58.2 90.36,59.01 90.39,59.78 91,60.44 91.72,60.78 L 91.68,60.87 Z M 91.68,60.87" />
            </g>
            <g id="kazSlowSide04-group6">
                <path id="kazSlowSide04-bezier19" stroke="none" fill="rgb(0, 0, 0)" d="M 86.1,41.37 C 86.72,40.98 87.39,40.66 88.08,40.39 88.42,40.26 88.75,40.06 89.12,40.05 89.49,40.04 89.88,40.09 90.27,40.3 L 90.29,40.4 C 89.98,40.73 89.65,40.9 89.32,41.03 88.99,41.18 88.62,41.13 88.27,41.17 87.57,41.26 86.85,41.34 86.13,41.46 L 86.1,41.37 Z M 86.1,41.37" />
            </g>
            <g id="kazSlowSide04-group7">
                <path id="kazSlowSide04-bezier20" stroke="none" fill="rgb(0, 0, 0)" d="M 95.66,41.4 C 96.38,43.65 96.91,45.97 97.27,48.31 97.45,49.49 97.67,50.67 97.64,51.86 97.62,53.05 97.51,54.25 97.16,55.41 L 97.06,55.41 C 96.86,54.22 96.75,53.06 96.64,51.9 96.53,50.74 96.56,49.57 96.47,48.4 96.29,46.07 96,43.74 95.57,41.43 L 95.66,41.4 Z M 95.66,41.4" />
            </g>
            <g id="kazSlowSide04-group8">
                <path id="kazSlowSide04-bezier21" stroke="none" fill="rgb(0, 0, 0)" d="M 97.62,55.86 C 100.24,56.46 102.65,57.95 104.45,59.94 106.33,61.8 108.4,63.48 110.47,65.14 112.56,66.79 114.71,68.35 116.84,69.88 117.37,70.26 117.92,70.65 118.46,70.92 118.93,71.15 119.58,71.14 120.24,71.14 120.89,71.14 121.64,71.13 122.31,71.41 122.98,71.69 123.5,72.17 123.9,72.71 L 123.83,72.78 C 123.33,72.35 122.77,71.97 122.17,71.84 121.57,71.68 120.94,71.75 120.28,71.84 119.62,71.92 118.89,71.99 118.12,71.71 117.44,71.42 116.87,71.07 116.29,70.72 114.02,69.25 111.99,67.5 109.96,65.76 107.94,64.01 105.93,62.25 104.09,60.29 102.42,58.25 100.16,56.69 97.6,55.96 L 97.62,55.86 Z M 97.62,55.86" />
            </g>
            <g id="kazSlowSide04-group9">
                <path id="kazSlowSide04-bezier22" stroke="none" fill="rgb(0, 0, 0)" d="M 102.02,30.64 C 102.72,31.71 103.66,32.62 104.71,33.3 105.77,34 106.93,34.4 108.19,34.6 109.45,34.81 110.72,34.91 111.92,34.94 112.52,34.94 113.12,34.89 113.63,34.68 114.14,34.48 114.51,34 114.68,33.37 L 114.78,33.37 C 114.84,33.7 114.8,34.06 114.68,34.41 114.54,34.75 114.28,35.05 113.98,35.27 113.37,35.73 112.64,35.86 111.97,35.93 110.59,36.05 109.28,35.7 108.02,35.38 106.75,35.08 105.46,34.52 104.42,33.7 103.39,32.87 102.53,31.85 101.93,30.68 L 102.02,30.64 Z M 102.02,30.64" />
            </g>
            <g id="kazSlowSide04-group10">
                <path id="kazSlowSide04-bezier23" stroke="none" fill="rgb(0, 0, 0)" d="M 114.48,30.78 C 115.11,30.66 115.75,30.47 116.23,30.1 116.47,29.91 116.63,29.66 116.62,29.41 116.62,29.15 116.46,28.9 116.31,28.59 115.74,27.41 115.19,26.22 114.79,24.94 114.6,24.29 114.4,23.65 114.44,22.86 114.46,22.63 114.48,22.54 114.48,22.4 114.48,22.26 114.47,22.11 114.47,21.97 114.46,21.68 114.42,21.38 114.36,21.09 114.14,19.92 113.73,18.7 112.6,18.04 L 112.63,17.95 C 113.32,18 113.96,18.45 114.4,18.99 114.86,19.54 115.15,20.19 115.34,20.87 115.42,21.21 115.48,21.56 115.5,21.92 115.51,22.09 115.51,22.28 115.49,22.46 115.48,22.64 115.43,22.87 115.42,22.97 115.33,23.48 115.44,24.13 115.56,24.74 115.84,25.97 116.29,27.19 116.76,28.39 116.86,28.68 117.05,29.02 117.01,29.43 116.98,29.84 116.7,30.16 116.41,30.34 115.81,30.71 115.14,30.82 114.49,30.88 L 114.48,30.78 Z M 114.48,30.78" />
            </g>
            <g id="kazSlowSide04-group11">
                <path id="kazSlowSide04-bezier24" stroke="none" fill="rgb(0, 0, 0)" d="M 105.49,28.69 C 104.94,28.25 104.45,27.74 104.03,27.14 103.83,26.84 103.55,26.54 103.52,26.13 103.48,25.74 103.56,25.21 103.99,24.97 L 104.08,25.02 C 104.2,25.42 104.36,25.61 104.49,25.88 104.62,26.13 104.63,26.46 104.74,26.77 104.96,27.39 105.25,28.01 105.57,28.63 L 105.49,28.69 Z M 105.49,28.69" />
            </g>
            <g id="kazSlowSide04-group12">
                <path id="kazSlowSide04-bezier25" stroke="none" fill="rgb(0, 0, 0)" d="M 97.61,34.71 C 98.43,34.39 99.27,34.13 100.14,33.94 100.57,33.84 101.01,33.7 101.47,33.74 101.92,33.77 102.42,33.86 102.79,34.21 L 102.77,34.28 C 102.31,34.33 101.92,34.42 101.5,34.48 101.09,34.55 100.66,34.51 100.22,34.53 99.36,34.59 98.49,34.68 97.62,34.78 L 97.61,34.71 Z M 97.61,34.71" />
            </g>
            <g id="kazSlowSide04-group13">
                <path id="kazSlowSide04-bezier26" stroke="none" fill="rgb(0, 0, 0)" d="M 88.26,25.51 C 85.96,25.25 83.65,25.18 81.35,25.24 79.04,25.29 76.76,25.52 74.49,25.9 72.22,26.28 69.99,26.85 67.72,27.28 66.58,27.47 65.45,27.7 64.29,27.85 63.13,27.99 61.95,28.13 60.78,27.96 L 60.78,27.86 C 61.93,27.74 63.04,27.45 64.15,27.17 L 67.51,26.3 C 69.76,25.74 72.06,25.38 74.38,25.11 76.68,24.83 79.02,24.69 81.35,24.74 83.67,24.81 85.99,25.02 88.27,25.41 L 88.26,25.51 Z M 88.26,25.51" />
            </g>
            <g id="kazSlowSide04-group14">
                <path id="kazSlowSide04-bezier27" stroke="none" fill="rgb(0, 0, 0)" d="M 59.99,28.64 C 61.15,31.11 62.24,33.61 63.2,36.16 63.67,37.44 64.12,38.74 64.49,40.06 64.86,41.38 65.2,42.72 65.26,44.16 L 64.66,43.76 C 66.74,42.86 68.86,42.09 71.07,41.59 72.18,41.35 73.3,41.12 74.44,41.05 75.57,40.98 76.75,40.97 77.84,41.37 L 77.81,41.46 C 76.71,41.33 75.61,41.5 74.53,41.7 73.45,41.93 72.37,42.18 71.31,42.51 69.2,43.15 67.07,43.81 64.99,44.57 L 64.38,44.79 64.39,44.16 C 64.41,42.88 64.13,41.54 63.82,40.24 63.51,38.93 63.12,37.63 62.7,36.34 61.87,33.76 60.93,31.2 59.9,28.69 L 59.99,28.64 Z M 59.99,28.64" />
            </g>
            <g id="kazSlowSide04-group15">
                <path id="kazSlowSide04-bezier28" stroke="none" fill="rgb(0, 0, 0)" d="M 79.61,42.21 C 80.07,42.55 80.6,42.8 81.13,42.99 81.65,43.2 82.2,43.34 82.74,43.4 83.29,43.48 83.84,43.39 84.37,43.44 84.92,43.49 85.47,43.51 86.1,43.62 L 86.13,43.71 C 85.64,44.14 85.03,44.35 84.41,44.44 83.79,44.54 83.16,44.36 82.57,44.19 81.39,43.83 80.32,43.18 79.54,42.28 L 79.61,42.21 Z M 79.61,42.21" />
            </g>
            <g id="kazSlowSide04-group16">
                <path id="kazSlowSide04-bezier29" stroke="none" fill="rgb(0, 0, 0)" d="M 58.35,30.08 C 56.99,31.04 55.57,31.92 54.09,32.69 53.35,33.08 52.61,33.53 51.78,33.73 50.96,33.93 50.05,34.08 49.19,33.77 L 49.2,33.67 C 50.01,33.42 50.72,33.09 51.46,32.78 52.19,32.46 52.99,32.27 53.76,31.97 55.28,31.37 56.8,30.7 58.3,29.99 L 58.35,30.08 Z M 58.35,30.08" />
            </g>
            <g id="kazSlowSide04-group17">
                <path id="kazSlowSide04-bezier30" stroke="none" fill="rgb(0, 0, 0)" d="M 61.91,45.44 C 60.87,44.27 59.75,43.18 58.56,42.17 57.36,41.18 56.09,40.25 54.71,39.56 54.02,39.2 53.3,38.99 52.55,38.7 51.81,38.41 51.09,38.05 50.4,37.65 49.03,36.83 47.77,35.86 46.69,34.63 L 47.13,34.69 C 45.16,36.2 43.36,38.04 42.05,40.14 40.73,42.24 39.97,44.68 40.4,47.08 40.74,49.5 41.75,51.84 43.29,53.77 44.83,55.7 46.82,57.38 49.21,58.24 L 49.18,58.33 C 46.65,57.8 44.42,56.21 42.69,54.28 40.97,52.31 39.75,49.86 39.37,47.22 39.16,45.92 39.26,44.51 39.63,43.24 40,41.96 40.61,40.77 41.33,39.68 42.8,37.51 44.65,35.68 46.76,34.16 L 47,33.98 47.2,34.22 C 48.16,35.37 49.39,36.37 50.68,37.18 51.34,37.59 52.02,37.94 52.73,38.25 53.42,38.55 54.21,38.81 54.9,39.2 56.3,39.96 57.55,40.94 58.72,41.98 59.89,43.04 60.98,44.17 61.98,45.38 L 61.91,45.44 Z M 61.91,45.44" />
            </g>
            <g id="kazSlowSide04-group18">
                <path id="kazSlowSide04-bezier31" stroke="none" fill="rgb(0, 0, 0)" d="M 50.79,59.3 C 52.18,60.96 53.73,62.5 55.4,63.86 56.23,64.55 57.1,65.18 58.02,65.72 58.47,65.99 58.95,66.24 59.43,66.45 59.89,66.65 60.44,66.81 60.95,67.05 62.99,68 64.8,69.32 66.41,70.81 67.99,72.33 69.49,73.94 70.73,75.75 L 70.66,75.82 C 69,74.4 67.42,72.92 65.75,71.56 64.09,70.2 62.47,68.76 60.6,67.77 60.15,67.53 59.64,67.36 59.13,67.1 58.62,66.86 58.14,66.58 57.67,66.27 56.74,65.67 55.88,64.97 55.07,64.24 53.46,62.75 52.01,61.11 50.71,59.36 L 50.79,59.3 Z M 50.79,59.3" />
            </g>
            <g id="kazSlowSide04-group19">
                <path id="kazSlowSide04-bezier32" stroke="none" fill="rgb(0, 0, 0)" d="M 69.14,76.87 C 67.22,78.2 65.33,79.6 63.63,81.18 63.2,81.58 62.79,81.99 62.43,82.42 62.07,82.86 61.74,83.34 61.4,83.82 L 59.41,86.71 C 58.08,88.64 56.77,90.6 55.21,92.38 54.42,93.26 53.62,94.14 52.74,94.93 51.85,95.72 50.91,96.48 49.81,96.96 L 49.76,96.87 C 50.69,96.16 51.48,95.31 52.24,94.44 53,93.57 53.74,92.67 54.44,91.75 55.87,89.91 57.35,88.11 58.76,86.24 L 60.88,83.43 C 61.24,82.97 61.59,82.5 61.99,82.04 62.4,81.6 62.84,81.19 63.29,80.81 65.12,79.3 67.08,78.01 69.09,76.79 L 69.14,76.87 Z M 69.14,76.87" />
            </g>
            <g id="kazSlowSide04-group20">
                <path id="kazSlowSide04-bezier33" stroke="none" fill="rgb(0, 0, 0)" d="M 61.98,47.62 C 65.98,50.68 69.69,54.12 73.09,57.86 74.79,59.73 76.45,61.65 77.84,63.78 79.2,65.91 80.45,68.15 81.24,70.56 L 81.15,70.6 C 79.84,68.44 78.5,66.35 77.01,64.34 75.55,62.33 74.09,60.31 72.48,58.38 70.88,56.47 69.18,54.62 67.41,52.84 65.65,51.06 63.83,49.32 61.91,47.7 L 61.98,47.62 Z M 61.98,47.62" />
            </g>
            <g id="kazSlowSide04-group21">
                <path id="kazSlowSide04-bezier34" stroke="none" fill="rgb(0, 0, 0)" d="M 81.91,71.8 C 82.32,72.41 82.71,73.03 83.05,73.7 83.35,74.38 83.69,75.06 83.66,75.95 83.51,76.9 83.06,77.55 82.5,78.08 81.94,78.6 81.31,79.02 80.56,79.26 L 80.5,79.18 C 80.89,78.52 81.35,77.96 81.77,77.41 82.17,76.87 82.73,76.35 82.87,75.86 82.99,75.29 82.79,74.55 82.58,73.89 82.38,73.2 82.12,72.52 81.82,71.85 L 81.91,71.8 Z M 81.91,71.8" />
            </g>
            <g id="kazSlowSide04-group22">
                <path id="kazSlowSide04-bezier35" stroke="none" fill="rgb(0, 0, 0)" d="M 79.81,79.95 C 77.78,81.8 75.72,83.66 73.89,85.69 73.67,85.95 73.46,86.19 73.3,86.48 73.06,86.83 72.8,87.03 72.55,87.28 72.03,87.75 71.5,88.19 70.97,88.63 69.9,89.51 68.82,90.37 67.74,91.23 L 61.25,96.35 C 60.17,97.2 59.08,98.04 57.99,98.88 56.92,99.72 55.76,100.53 54.83,101.43 L 54.5,101.76 54.22,101.42 C 53.55,100.61 52.88,99.76 52.16,98.98 51.8,98.59 51.44,98.2 51.06,97.83 50.67,97.49 50.27,97.09 49.78,96.96 L 49.79,96.86 C 50.37,96.91 50.82,97.27 51.27,97.57 51.72,97.89 52.14,98.24 52.54,98.6 53.34,99.34 54.12,100.08 54.84,100.9 L 54.23,100.89 C 55.24,99.82 56.29,98.97 57.36,98.09 58.44,97.21 59.54,96.38 60.64,95.56 L 67.31,90.67 C 68.42,89.85 69.52,89.03 70.61,88.19 71.15,87.76 71.69,87.34 72.21,86.9 72.45,86.68 72.74,86.44 72.9,86.22 73.09,85.92 73.34,85.65 73.57,85.4 75.52,83.41 77.64,81.65 79.75,79.87 L 79.81,79.95 Z M 79.81,79.95" />
            </g>
            <g id="kazSlowSide04-group23">
                <path id="kazSlowSide04-bezier36" stroke="none" fill="rgb(0, 0, 0)" d="M 46.99,101.55 L 48.26,99.52 C 48.47,99.19 48.59,98.8 48.86,98.53 49.12,98.24 49.42,98.03 49.73,97.75 L 49.83,97.75 C 50.05,98.25 49.85,98.71 49.69,99.09 49.52,99.48 49.17,99.73 48.89,100.01 48.32,100.59 47.71,101.12 47.07,101.61 L 46.99,101.55 Z M 46.99,101.55" />
            </g>
            <g id="kazSlowSide04-group24">
                <path id="kazSlowSide04-bezier37" stroke="none" fill="rgb(0, 0, 0)" d="M 53.43,112.54 C 51.97,112.07 50.5,111.66 49.01,111.38 48.26,111.24 47.52,111.13 46.78,111.15 45.99,111.17 45.19,111.09 44.4,110.88 43.64,110.66 42.77,110.32 42.24,109.45 42,109.02 41.92,108.5 41.99,108.04 42.05,107.57 42.23,107.17 42.43,106.79 43.29,105.44 44.28,104.25 45.47,103.23 L 45.54,103.3 C 44.79,104.65 43.99,105.96 43.31,107.26 43.01,107.88 42.88,108.51 43.12,108.99 43.35,109.49 43.97,109.88 44.64,110.11 45.32,110.35 46.05,110.47 46.79,110.5 47.59,110.53 48.37,110.7 49.11,110.89 50.61,111.31 52.05,111.85 53.46,112.45 L 53.43,112.54 Z M 53.43,112.54" />
            </g>
            <g id="kazSlowSide04-group25">
                <path id="kazSlowSide04-bezier38" stroke="none" fill="rgb(0, 0, 0)" d="M 47.07,104.21 C 47.64,104.65 48.26,105.03 48.88,105.28 49.19,105.41 49.52,105.4 49.79,105.55 50.08,105.68 50.35,105.81 50.74,106.03 L 50.76,106.13 C 50.44,106.46 49.98,106.55 49.56,106.52 49.13,106.49 48.79,106.2 48.48,105.97 47.85,105.51 47.36,104.92 46.99,104.28 L 47.07,104.21 Z M 47.07,104.21" />
            </g>
            <g id="kazSlowSide04-group26">
                <path id="kazSlowSide04-bezier39" stroke="none" fill="rgb(0, 0, 0)" d="M 52.33,105.15 C 52.59,104.86 52.89,104.6 53.28,104.47 53.47,104.4 53.71,104.4 53.92,104.5 54.13,104.6 54.26,104.79 54.38,104.91 54.89,105.45 55.44,105.98 56,106.49 56.55,107 57.11,107.5 57.7,107.97 57.99,108.2 58.29,108.42 58.59,108.62 58.89,108.81 59.22,109.01 59.46,109.02 60.28,109.14 61.02,109.38 61.76,109.69 62.48,110.03 63.22,110.37 63.79,111.19 63.92,111.38 64.02,111.75 64.01,111.97 64,112.19 64.02,112.42 63.88,112.73 63.73,113.07 63.36,113.24 63.14,113.27 62.91,113.32 62.7,113.32 62.5,113.32 61.7,113.29 60.96,113.18 60.2,113.05 L 60.2,112.95 C 60.95,112.8 61.73,112.74 62.45,112.62 62.8,112.57 63.16,112.42 63.07,112.38 63.08,112.34 63.09,112.18 63.06,112.02 63.04,111.86 63.03,111.86 62.94,111.73 62.63,111.3 61.95,110.91 61.34,110.58 60.7,110.26 60,109.96 59.33,109.81 58.81,109.7 58.5,109.44 58.18,109.21 57.86,108.98 57.56,108.72 57.28,108.46 56.71,107.94 56.17,107.4 55.65,106.84 55.13,106.28 54.63,105.71 54.15,105.1 53.93,104.76 53.7,104.58 53.33,104.66 52.99,104.74 52.67,104.97 52.4,105.22 L 52.33,105.15 Z M 52.33,105.15" />
            </g>
            <g id="kazSlowSide04-group27">
                <path id="kazSlowSide04-bezier40" stroke="none" fill="rgb(0, 0, 0)" d="M 51.65,104.23 C 51.72,103.66 51.85,103.11 52.04,102.57 52.13,102.3 52.17,101.98 52.41,101.76 52.53,101.66 52.67,101.55 52.85,101.49 53.01,101.42 53.28,101.37 53.45,101.53 L 53.44,101.63 C 53.3,101.9 53.34,102.13 53.22,102.35 53.14,102.58 52.9,102.74 52.74,102.95 52.41,103.37 52.08,103.81 51.74,104.26 L 51.65,104.23 Z M 51.65,104.23" />
            </g>
            <g id="kazSlowSide04-group28">
                <path id="kazSlowSide04-bezier41" stroke="none" fill="rgb(0, 0, 0)" d="M 57.25,67.05 C 57.59,68.13 58.03,69.18 58.55,70.19 59.05,71.2 59.63,72.17 60.29,73.07 60.95,73.98 61.75,74.73 62.52,75.53 63.32,76.37 64.05,77.3 64.55,78.37 L 64.47,78.43 C 63.54,77.72 62.7,76.98 61.83,76.26 60.92,75.52 60.23,74.51 59.63,73.52 58.4,71.52 57.58,69.33 57.15,67.07 L 57.25,67.05 Z M 57.25,67.05" />
            </g>
            <g id="kazSlowSide04-group29">
                <path id="kazSlowSide04-bezier42" stroke="none" fill="rgb(0, 0, 0)" d="M 75.41,85.99 C 75.62,88.47 75.83,90.94 76.08,93.41 76.2,94.64 76.32,95.87 76.49,97.09 76.53,97.4 76.58,97.7 76.64,97.99 76.66,98.14 76.7,98.22 76.75,98.44 76.78,98.61 76.81,98.77 76.83,98.93 76.91,99.56 76.96,100.18 77.01,100.8 77.21,103.28 77.41,105.75 77.46,108.24 L 77.49,111.96 77.49,113.81 C 77.49,114.42 77.46,115.08 77.56,115.63 L 77.49,115.7 C 77.01,114.47 76.97,113.23 76.79,111.99 76.64,110.76 76.56,109.52 76.46,108.28 76.28,105.8 76.3,103.32 76.21,100.85 76.19,100.23 76.16,99.61 76.11,99.01 76.09,98.86 76.08,98.71 76.06,98.57 76.05,98.48 75.98,98.27 75.96,98.12 75.91,97.79 75.87,97.48 75.84,97.17 75.72,95.92 75.65,94.68 75.58,93.44 75.47,90.96 75.38,88.48 75.31,86 L 75.41,85.99 Z M 75.41,85.99" />
            </g>
            <g id="kazSlowSide04-group30">
                <path id="kazSlowSide04-bezier43" stroke="none" fill="rgb(0, 0, 0)" d="M 70.65,113 C 70.32,111.29 69.96,109.58 69.55,107.89 69.14,106.18 68.72,104.53 68.07,102.9 67.5,101.19 67.15,99.45 67,97.69 66.94,96.81 66.89,95.93 66.91,95.05 66.93,94.17 66.95,93.29 67.15,92.41 L 67.25,92.42 C 67.46,94.15 67.75,95.87 67.99,97.58 68.27,99.28 68.4,101.02 68.83,102.66 69.39,104.31 69.73,106.07 70.03,107.79 70.32,109.52 70.55,111.25 70.75,112.99 L 70.65,113 Z M 70.65,113" />
            </g>
            <g id="kazSlowSide04-group31">
                <path id="kazSlowSide04-bezier44" stroke="none" fill="rgb(0, 0, 0)" d="M 82.15,125.23 C 83.25,126.32 84.51,127.3 85.9,127.88 86.58,128.17 87.36,128.29 88.12,128.5 88.88,128.7 89.64,128.9 90.39,129.15 91.15,129.39 91.9,129.65 92.64,130.05 93.01,130.27 93.39,130.5 93.7,130.94 93.85,131.17 93.97,131.45 93.95,131.82 93.95,131.87 93.91,132.13 93.84,132.26 93.78,132.41 93.68,132.54 93.59,132.65 93.16,133.04 92.72,133.15 92.3,133.25 91.88,133.33 91.47,133.37 91.07,133.37 90.26,133.37 89.47,133.28 88.7,133.13 L 88.7,133.03 C 89.48,132.9 90.26,132.82 91,132.67 91.37,132.59 91.74,132.52 92.08,132.4 92.4,132.29 92.73,132.13 92.85,131.96 92.89,131.93 92.91,131.89 92.92,131.86 92.93,131.82 92.93,131.88 92.94,131.74 92.93,131.72 92.91,131.61 92.84,131.52 92.7,131.32 92.43,131.09 92.13,130.9 91.53,130.5 90.83,130.19 90.12,129.9 89.41,129.62 88.67,129.37 87.94,129.13 87.21,128.87 86.44,128.7 85.69,128.33 84.26,127.58 83.09,126.49 82.08,125.3 L 82.15,125.23 Z M 82.15,125.23" />
            </g>
            <g id="kazSlowSide04-group32">
                <path id="kazSlowSide04-bezier45" stroke="none" fill="rgb(0, 0, 0)" d="M 80.08,133.12 C 79.56,132.82 79.01,132.64 78.47,132.49 78.19,132.42 77.89,132.44 77.65,132.29 77.4,132.14 77.16,131.96 76.94,131.63 L 76.96,131.53 C 77.31,131.33 77.64,131.3 77.96,131.33 78.28,131.36 78.53,131.6 78.79,131.76 79.32,132.1 79.81,132.52 80.15,133.05 L 80.08,133.12 Z M 80.08,133.12" />
            </g>
            <g id="kazSlowSide04-group33">
                <path id="kazSlowSide04-bezier46" stroke="none" fill="rgb(0, 0, 0)" d="M 112.74,16.91 C 111.25,15.65 109.36,14.91 107.47,14.52 105.56,14.15 103.57,14.13 101.68,14.46 99.79,14.83 98.07,15.81 96.63,17.08 95.19,18.36 93.98,19.9 92.9,21.51 90.74,24.75 89.12,28.33 87.12,31.75 86.11,33.44 85.07,35.15 83.72,36.65 83.04,37.39 82.28,38.09 81.39,38.59 80.5,39.07 79.44,39.32 78.45,39.14 L 78.46,39.04 C 79.44,39.06 80.38,38.74 81.15,38.2 81.94,37.67 82.6,36.96 83.19,36.2 84.37,34.68 85.34,32.98 86.25,31.26 88.11,27.82 89.94,24.3 92.24,21.06 93.39,19.43 94.68,17.89 96.21,16.59 97.75,15.3 99.58,14.3 101.59,13.97 103.58,13.69 105.59,13.79 107.53,14.23 109.45,14.69 111.33,15.5 112.81,16.84 L 112.74,16.91 Z M 112.74,16.91" />
            </g>
            <g id="kazSlowSide04-group34">
                <path id="kazSlowSide04-bezier47" stroke="none" fill="rgb(0, 0, 0)" d="M 111.24,19.15 C 111.2,19.9 111.09,20.64 110.91,21.37 110.71,22.09 110.44,22.82 109.91,23.41 109.64,23.69 109.28,23.92 108.87,24 108.47,24.06 108.1,24.06 107.73,24.07 L 105.5,24.09 C 104.03,24.12 102.55,24.21 101.14,24.54 99.75,24.87 98.37,25.47 97.55,26.56 97.15,27.09 96.91,27.73 96.81,28.41 96.74,29.07 96.71,29.88 96.59,30.62 96.39,32.12 96,33.6 95.48,35.02 94.92,36.43 94.26,37.81 93.38,39.05 92.49,40.25 91.4,41.51 89.87,41.86 L 89.85,41.76 C 90.53,41.48 91.08,40.99 91.55,40.44 92.02,39.9 92.43,39.3 92.79,38.67 93.51,37.41 94.1,36.07 94.54,34.69 95,33.31 95.36,31.9 95.62,30.47 95.76,29.74 95.81,29.07 95.93,28.26 96.07,27.47 96.4,26.69 96.92,26.06 97.97,24.78 99.53,24.21 101,23.91 102.5,23.61 104.01,23.57 105.5,23.59 L 107.73,23.67 C 108.09,23.68 108.47,23.69 108.81,23.65 109.14,23.61 109.44,23.43 109.69,23.19 110.19,22.7 110.49,22.01 110.71,21.31 110.93,20.61 111.07,19.88 111.14,19.15 L 111.24,19.15 Z M 111.24,19.15" />
            </g>
            <g id="kazSlowSide04-group35">
                <path id="kazSlowSide04-bezier48" stroke="none" fill="rgb(0, 0, 0)" d="M 101.34,29.57 C 100.72,29.47 100.06,29.48 99.48,29.65 98.89,29.81 98.41,30.21 98.18,30.73 97.93,31.26 97.91,31.86 97.96,32.49 L 98.04,34.42 C 98.07,35.71 98.13,37.02 97.88,38.32 97.75,38.97 97.59,39.62 97.3,40.24 97.03,40.84 96.65,41.48 96.03,41.8 L 95.97,41.72 C 96.69,40.68 96.74,39.41 96.89,38.18 97,36.94 97.16,35.68 97.24,34.41 L 97.31,32.5 C 97.31,31.85 97.38,31.13 97.73,30.5 98.08,29.87 98.75,29.46 99.41,29.35 100.07,29.24 100.74,29.3 101.36,29.48 L 101.34,29.57 Z M 101.34,29.57" />
            </g>
            <g id="kazSlowSide04-group36">
                <path id="kazSlowSide04-bezier49" stroke="none" fill="rgb(0, 0, 0)" d="M 103.04,20.76 C 101.2,20.81 99.37,21.28 97.79,22.16 96.2,23.02 94.93,24.4 94.24,26.04 93.89,26.86 93.68,27.71 93.55,28.62 93.4,29.54 93.19,30.46 92.92,31.36 92.64,32.26 92.33,33.16 91.85,34.01 91.61,34.43 91.34,34.85 90.95,35.19 90.75,35.35 90.52,35.48 90.27,35.55 90.03,35.63 89.79,35.62 89.59,35.7 L 89.54,35.62 C 89.74,35.45 89.98,35.4 90.16,35.29 90.35,35.18 90.5,35.03 90.62,34.87 90.88,34.54 91.07,34.13 91.22,33.71 91.52,32.87 91.75,31.99 91.96,31.1 L 92.58,28.43 C 92.78,27.51 93.08,26.56 93.52,25.7 94.37,23.95 95.84,22.53 97.56,21.72 99.29,20.91 101.18,20.58 103.05,20.66 L 103.04,20.76 Z M 103.04,20.76" />
            </g>
        </g>
    </g>
</svg>
