<?xml version="1.0" encoding="UTF-8"?>
<!DOCTYPE svg PUBLIC "-//W3C//DTD SVG 1.1//EN" "http://www.w3.org/Graphics/SVG/1.1/DTD/svg11.dtd">
<svg version="1.1" xmlns="http://www.w3.org/2000/svg" xmlns:xlink="http://www.w3.org/1999/xlink" width="160" height="60"  xml:space="preserve" id="kazSlowTop05">
    <!-- Generated by PaintCode - http://www.paintcodeapp.com -->
    <g id="kazSlowTop05-group">
        <path id="kazSlowTop05-bezier1919" stroke="rgb(0, 0, 0)" stroke-width="2" stroke-miterlimit="10" fill="none" d="M 116.06,30.26 L 156.89,30.26" />
        <path id="kazSlowTop05-bezier1920" stroke="rgb(0, 0, 0)" stroke-width="2" stroke-miterlimit="10" fill="none" d="M 3.5,30.26 L 33.51,30.26" />
        <path id="kazSlowTop05-bezier1921" stroke="rgb(0, 0, 0)" stroke-width="2" stroke-miterlimit="10" fill="none" d="M 128.07,13.25 L 106.82,13.25 106.82,20.13" />
        <path id="kazSlowTop05-bezier1922" stroke="rgb(0, 0, 0)" stroke-width="2" stroke-miterlimit="10" fill="none" d="M 128.07,46.27 L 106.82,46.27 106.82,46.25 106.82,37.38" />
        <path id="kazSlowTop05-bezier1923" stroke="rgb(0, 0, 0)" stroke-width="2" stroke-miterlimit="10" fill="none" d="M 36.6,25.75 C 36.6,25.75 35.33,27.07 35.33,30.26 35.33,33.44 36.6,34.38 36.6,34.38" />
        <path id="kazSlowTop05-bezier1924" stroke="rgb(0, 0, 0)" stroke-width="2" stroke-miterlimit="10" fill="none" d="M 129.64,27.84 L 116.76,27.84" />
        <path id="kazSlowTop05-bezier1925" stroke="rgb(0, 0, 0)" stroke-width="2" stroke-miterlimit="10" fill="none" d="M 129.64,32.71 L 114.76,32.71" />
        <path id="kazSlowTop05-bezier1926" stroke="rgb(0, 0, 0)" stroke-width="2" stroke-miterlimit="10" fill="none" d="M 33.98,27.84 L 32.27,27.84" />
        <path id="kazSlowTop05-bezier1927" stroke="rgb(0, 0, 0)" stroke-width="2" stroke-miterlimit="10" fill="none" d="M 33.98,32.71 L 32.27,32.71" />
        <g id="kazSlowTop05-group1453">
            <g id="kazSlowTop05-group1454">
                <path id="kazSlowTop05-bezier1928" stroke="none" fill="rgb(0, 0, 0)" d="M 103.14,38.45 C 102.89,38.49 102.63,38.53 102.37,38.55 L 102.38,38.55 C 100.98,38.74 99.56,38.8 98.14,38.61 97.43,38.52 96.72,38.36 96.03,38.1 95.68,37.96 95.35,37.79 95.02,37.59 94.87,37.49 94.69,37.35 94.57,37.26 94.49,37.2 94.45,37.17 94.4,37.14 94.34,37.11 94.29,37.09 94.23,37.06 93.76,36.89 93.15,37.05 92.59,37.31 92.01,37.57 91.45,37.94 90.89,38.33 89.78,39.11 88.73,40.01 87.65,40.92 L 87.57,40.86 C 88.3,39.64 89.23,38.54 90.31,37.59 90.86,37.11 91.47,36.69 92.16,36.37 92.85,36.08 93.73,35.85 94.58,36.24 94.68,36.28 94.78,36.34 94.87,36.4 94.97,36.47 95.07,36.55 95.12,36.6 95.27,36.73 95.36,36.82 95.49,36.92 95.74,37.12 96.02,37.28 96.32,37.43 96.91,37.71 97.57,37.91 98.24,38.05 99.57,38.32 100.97,38.43 102.36,38.38 L 102.37,38.38 102.37,38.38 C 102.62,38.38 102.88,38.37 103.13,38.35 L 103.14,38.45 Z M 103.14,38.45" />
            </g>
            <g id="kazSlowTop05-group1455">
                <path id="kazSlowTop05-bezier1929" stroke="none" fill="rgb(0, 0, 0)" d="M 99.28,19.99 C 100.57,19.85 101.85,19.82 103.14,19.75 104.44,19.69 105.75,19.84 107.02,20.21 109.53,20.94 111.87,22.6 113.12,25.01 113.76,26.21 114.08,27.58 114.04,28.95 114.01,30.33 113.57,31.68 112.84,32.83 111.35,35.12 108.89,36.63 106.33,37.04 L 106.3,36.95 C 108.67,35.99 110.8,34.45 111.99,32.31 113.21,30.24 113.47,27.6 112.41,25.37 111.36,23.14 109.24,21.48 106.87,20.68 104.48,19.8 101.84,20.06 99.29,20.09 L 99.28,19.99 Z M 99.28,19.99" />
            </g>
            <g id="kazSlowTop05-group1456">
                <path id="kazSlowTop05-bezier1930" stroke="none" fill="rgb(0, 0, 0)" d="M 85.91,17.26 C 87.09,17.16 88.27,17.49 89.37,17.87 90.48,18.28 91.54,18.78 92.6,19.27 93.65,19.76 94.73,20.16 95.75,20.62 96.78,21.04 97.8,21.45 98.95,21.24 L 98.99,21.33 C 98.51,21.71 97.85,21.87 97.22,21.86 96.59,21.86 95.99,21.73 95.41,21.55 94.24,21.2 93.25,20.54 92.23,19.98 91.22,19.4 90.22,18.82 89.18,18.33 88.15,17.84 87.07,17.4 85.91,17.36 L 85.91,17.26 Z M 85.91,17.26" />
            </g>
            <g id="kazSlowTop05-group1457">
                <path id="kazSlowTop05-bezier1931" stroke="none" fill="rgb(0, 0, 0)" d="M 118.36,10.62 C 116.88,10.77 115.4,10.93 113.92,11.04 112.42,11.14 110.97,11.28 109.4,11.25 107.98,11.07 106.49,11.18 105.02,11.17 104.28,11.2 103.54,11.23 102.81,11.28 102.08,11.36 101.32,11.39 100.66,11.68 L 100.62,11.62 C 101.25,11.16 102.02,11.01 102.74,10.84 103.48,10.68 104.23,10.58 104.97,10.51 105.72,10.43 106.47,10.38 107.22,10.38 107.96,10.38 108.75,10.37 109.49,10.54 110.89,10.69 112.43,10.63 113.9,10.62 L 118.36,10.55 118.36,10.62 Z M 118.36,10.62" />
            </g>
            <g id="kazSlowTop05-group1458">
                <path id="kazSlowTop05-bezier1932" stroke="none" fill="rgb(0, 0, 0)" d="M 99.48,17.4 C 101.06,17.26 102.63,17.1 104.21,16.9 104.99,16.8 105.77,16.7 106.55,16.57 106.94,16.51 107.33,16.44 107.7,16.35 107.89,16.3 108.07,16.25 108.23,16.18 108.37,16.12 108.62,16 108.8,15.95 110.36,15.49 111.9,15.15 113.48,14.9 115.06,14.71 116.63,14.5 118.27,14.69 L 118.25,14.77 C 116.72,15.05 115.15,15.41 113.6,15.66 112.05,15.92 110.45,16.06 108.95,16.44 108.75,16.5 108.63,16.54 108.41,16.63 108.2,16.71 108,16.76 107.8,16.8 107.4,16.88 107.01,16.94 106.61,16.99 105.82,17.09 105.03,17.16 104.24,17.21 102.65,17.33 101.07,17.41 99.48,17.47 L 99.48,17.4 Z M 99.48,17.4" />
            </g>
            <g id="kazSlowTop05-group1459">
                <path id="kazSlowTop05-bezier1933" stroke="none" fill="rgb(0, 0, 0)" d="M 98.79,19.33 C 98.82,18.01 98.54,16.71 98.14,15.47 97.76,14.23 97.25,13 96.64,11.87 L 97.17,12.06 95.47,12.94 C 94.9,13.23 94.32,13.5 93.74,13.75 92.55,14.25 91.37,14.72 90.11,15.08 L 90.07,15 C 91.07,14.16 92.18,13.48 93.3,12.86 93.87,12.56 94.45,12.28 95.05,12.03 L 96.84,11.32 97.22,11.17 97.37,11.5 C 97.92,12.76 98.33,14.03 98.63,15.34 98.91,16.65 99.05,18.01 98.89,19.33 L 98.79,19.33 Z M 98.79,19.33" />
            </g>
            <g id="kazSlowTop05-group1460">
                <path id="kazSlowTop05-bezier1934" stroke="none" fill="rgb(0, 0, 0)" d="M 37.59,30.26 C 37.51,28.44 37.51,26.62 37.61,24.8 37.67,23.89 37.75,22.98 37.9,22.07 38.07,21.17 38.26,20.25 38.74,19.39 39.28,18.43 40.31,18.08 41.2,17.84 42.13,17.62 43.06,17.56 43.99,17.54 45.85,17.53 47.67,17.71 49.5,18.07 L 49.91,18.15 49.9,18.59 C 49.85,20.54 49.72,22.48 49.58,24.43 49.45,26.37 49.27,28.32 49.06,30.26 L 48.96,30.26 C 48.88,29.28 48.84,28.3 48.81,27.33 48.8,26.35 48.76,25.37 48.77,24.4 48.77,22.45 48.78,20.5 48.87,18.55 L 49.28,19.07 C 47.55,18.7 45.76,18.41 43.99,18.36 43.1,18.34 42.21,18.38 41.36,18.55 40.54,18.73 39.67,19.04 39.28,19.71 38.84,20.42 38.61,21.31 38.42,22.17 38.23,23.05 38.1,23.94 38,24.84 37.8,26.63 37.7,28.44 37.69,30.26 L 37.59,30.26 Z M 37.59,30.26" />
            </g>
            <g id="kazSlowTop05-group1461">
                <path id="kazSlowTop05-bezier1935" stroke="none" fill="rgb(0, 0, 0)" d="M 124.16,11.9 C 123.96,11.4 123.71,10.92 123.41,10.5 123.12,10.06 122.75,9.78 122.28,9.66 121.86,9.56 121.37,9.71 120.84,9.73 120.31,9.76 119.77,9.78 119.21,9.67 L 119.19,9.59 C 119.69,9.3 120.2,9.12 120.73,8.99 121.26,8.88 121.87,8.85 122.48,9.09 122.78,9.23 123,9.36 123.24,9.59 123.46,9.81 123.61,10.06 123.73,10.31 123.97,10.82 124.13,11.34 124.24,11.88 L 124.16,11.9 Z M 124.16,11.9" />
            </g>
            <g id="kazSlowTop05-group1462">
                <path id="kazSlowTop05-bezier1936" stroke="none" fill="rgb(0, 0, 0)" d="M 119.22,14.78 C 119.68,14.92 120.14,15.01 120.57,15.01 120.79,15.01 120.99,14.93 121.18,14.95 L 121.87,15.04 121.91,15.1 C 121.83,15.41 121.56,15.6 121.29,15.69 121.01,15.79 120.72,15.69 120.48,15.61 119.97,15.45 119.54,15.18 119.18,14.85 L 119.22,14.78 Z M 119.22,14.78" />
            </g>
            <g id="kazSlowTop05-group1463">
                <path id="kazSlowTop05-bezier1937" stroke="none" fill="rgb(0, 0, 0)" d="M 118.36,48.97 L 113.9,48.84 C 112.42,48.83 110.9,48.76 109.48,48.88 108.74,49.04 107.96,49.04 107.22,49.08 106.47,49.1 105.72,49.11 104.97,49.06 104.22,49.01 103.48,48.89 102.73,48.74 102.01,48.56 101.23,48.4 100.62,47.89 L 100.66,47.83 C 101.34,48.09 102.09,48.1 102.82,48.17 103.55,48.23 104.29,48.24 105.02,48.29 106.48,48.35 107.98,48.56 109.41,48.37 110.96,48.31 112.42,48.43 113.91,48.53 L 118.36,48.89 118.36,48.97 Z M 118.36,48.97" />
            </g>
            <g id="kazSlowTop05-group1464">
                <path id="kazSlowTop05-bezier1938" stroke="none" fill="rgb(0, 0, 0)" d="M 99.48,42.04 C 101.07,42.09 102.65,42.14 104.24,42.25 105.03,42.31 105.83,42.38 106.62,42.47 107.02,42.52 107.41,42.57 107.82,42.65 108.02,42.69 108.22,42.73 108.44,42.81 L 108.71,42.92 108.97,43 C 110.46,43.36 112.05,43.58 113.59,43.89 115.14,44.17 116.71,44.52 118.25,44.75 L 118.27,44.82 C 117.44,44.93 116.66,44.85 115.86,44.81 115.06,44.77 114.27,44.67 113.48,44.58 111.9,44.39 110.34,44.13 108.78,43.64 108.68,43.61 108.58,43.58 108.48,43.53 108.36,43.49 108.26,43.43 108.2,43.41 108.05,43.34 107.87,43.29 107.68,43.24 107.31,43.14 106.93,43.07 106.54,43 105.77,42.87 104.98,42.76 104.2,42.66 102.63,42.46 101.05,42.27 99.48,42.12 L 99.48,42.04 Z M 99.48,42.04" />
            </g>
            <g id="kazSlowTop05-group1465">
                <path id="kazSlowTop05-bezier1939" stroke="none" fill="rgb(0, 0, 0)" d="M 88.16,43.4 C 90.6,44.66 93.13,45.75 95.64,46.85 L 95.24,46.94 C 95.84,46.17 96.38,45.29 96.79,44.39 97.21,43.49 97.52,42.56 97.7,41.62 L 98.01,42.17 C 97.19,41.8 96.41,41.39 95.67,40.88 95.3,40.62 94.94,40.35 94.61,40.03 94.32,39.7 93.93,39.31 94.01,38.79 L 94.11,38.8 C 94.19,39.2 94.56,39.44 94.91,39.66 95.26,39.89 95.64,40.08 96.03,40.25 96.8,40.61 97.6,40.93 98.39,41.23 L 98.75,41.37 98.7,41.78 C 98.55,42.87 98.13,43.89 97.6,44.81 97.07,45.74 96.47,46.6 95.76,47.4 L 95.58,47.6 95.35,47.49 C 92.89,46.25 90.45,44.95 88.11,43.48 L 88.16,43.4 Z M 88.16,43.4" />
            </g>
            <g id="kazSlowTop05-group1466">
                <path id="kazSlowTop05-bezier1940" stroke="none" fill="rgb(0, 0, 0)" d="M 37.69,30.26 C 37.65,32.07 37.7,33.88 37.86,35.68 37.94,36.57 38.06,37.47 38.24,38.34 38.43,39.2 38.66,40.09 39.12,40.76 39.35,41.1 39.64,41.26 40.06,41.4 40.46,41.54 40.89,41.62 41.32,41.69 42.19,41.81 43.08,41.85 43.97,41.84 45.76,41.82 47.56,41.65 49.32,41.44 L 48.87,41.97 C 48.78,40.02 48.77,38.07 48.77,36.12 48.76,35.14 48.8,34.16 48.81,33.19 48.84,32.21 48.88,31.24 48.96,30.26 L 49.06,30.26 C 49.27,32.2 49.45,34.14 49.58,36.09 49.72,38.03 49.85,39.98 49.9,41.93 L 49.92,42.41 49.45,42.46 C 47.62,42.65 45.8,42.72 43.96,42.66 43.04,42.63 42.12,42.57 41.2,42.4 40.74,42.32 40.28,42.21 39.83,42.04 39.71,41.99 39.6,41.95 39.48,41.89 39.38,41.84 39.27,41.78 39.14,41.7 38.92,41.53 38.74,41.33 38.6,41.12 38.07,40.26 37.89,39.34 37.73,38.43 37.58,37.52 37.52,36.61 37.48,35.7 37.41,33.88 37.45,32.06 37.59,30.25 L 37.69,30.26 Z M 37.69,30.26" />
            </g>
            <g id="kazSlowTop05-group1467">
                <path id="kazSlowTop05-bezier1941" stroke="none" fill="rgb(0, 0, 0)" d="M 120.99,45.02 C 121,45.66 121.05,46.31 121.17,46.9 121.24,47.2 121.38,47.46 121.44,47.68 121.51,47.91 121.54,48.08 121.88,48.27 L 121.89,48.34 C 121.59,48.63 120.97,48.4 120.78,48.03 120.55,47.68 120.57,47.3 120.57,46.96 120.58,46.28 120.72,45.63 120.91,45.01 L 120.99,45.02 Z M 120.99,45.02" />
            </g>
            <g id="kazSlowTop05-group1468">
                <path id="kazSlowTop05-bezier1942" stroke="none" fill="rgb(0, 0, 0)" d="M 124.24,47.64 C 124.12,48.17 123.97,48.7 123.73,49.21 123.6,49.46 123.46,49.7 123.24,49.92 123,50.15 122.78,50.29 122.48,50.42 121.87,50.67 121.26,50.64 120.73,50.52 120.2,50.39 119.69,50.22 119.19,49.93 L 119.21,49.85 C 119.77,49.74 120.31,49.76 120.84,49.78 121.37,49.8 121.86,49.96 122.28,49.86 122.75,49.74 123.12,49.46 123.41,49.01 123.71,48.6 123.96,48.11 124.16,47.62 L 124.24,47.64 Z M 124.24,47.64" />
            </g>
            <g id="kazSlowTop05-group1469">
                <path id="kazSlowTop05-bezier1943" stroke="none" fill="rgb(0, 0, 0)" d="M 119.18,44.67 C 119.54,44.34 119.97,44.07 120.48,43.91 120.72,43.83 121.01,43.73 121.29,43.82 121.56,43.91 121.83,44.11 121.91,44.42 L 121.87,44.48 121.18,44.57 C 120.99,44.59 120.79,44.51 120.57,44.5 120.14,44.51 119.68,44.6 119.22,44.73 L 119.18,44.67 Z M 119.18,44.67" />
            </g>
            <g id="kazSlowTop05-group1470">
                <path id="kazSlowTop05-bezier1944" stroke="none" fill="rgb(0, 0, 0)" d="M 107.91,33.58 C 107.15,34.51 106.19,35.32 105.03,35.76 103.88,36.21 102.62,36.33 101.4,36.26 100.18,36.19 98.97,35.96 97.8,35.65 96.6,35.33 95.51,34.94 94.36,34.8 92.06,34.47 89.73,34.77 87.62,35.71 85.53,36.66 83.64,38.18 82.26,40.12 L 82.17,40.07 C 82.64,38.95 83.4,37.96 84.25,37.08 85.1,36.19 86.12,35.45 87.22,34.87 89.43,33.68 92.09,33.41 94.51,33.91 95.74,34.12 96.9,34.59 98,34.95 99.13,35.3 100.28,35.58 101.45,35.71 102.61,35.83 103.8,35.8 104.92,35.45 106.04,35.1 107.02,34.39 107.84,33.52 L 107.91,33.58 Z M 107.91,33.58" />
            </g>
            <g id="kazSlowTop05-group1471">
                <path id="kazSlowTop05-bezier1945" stroke="none" fill="rgb(0, 0, 0)" d="M 79.84,21.05 C 81.37,22.73 83.16,24.22 85.17,25.22 86.17,25.71 87.25,26.07 88.33,26.12 88.87,26.15 89.41,26.11 89.92,25.98 90.46,25.84 91,25.67 91.53,25.49 93.67,24.76 95.76,23.75 98.1,23.32 99.26,23.13 100.49,23.03 101.66,23.32 102.84,23.59 103.91,24.21 104.71,25.04 L 104.65,25.12 C 103.69,24.5 102.63,24.09 101.55,23.97 100.46,23.87 99.37,23.98 98.29,24.26 96.14,24.8 94.03,25.68 91.79,26.31 91.23,26.47 90.67,26.62 90.09,26.74 89.49,26.86 88.87,26.88 88.27,26.82 87.07,26.7 85.94,26.25 84.92,25.69 82.89,24.52 81.2,22.9 79.76,21.11 L 79.84,21.05 Z M 79.84,21.05" />
            </g>
            <g id="kazSlowTop05-group1472">
                <path id="kazSlowTop05-bezier1946" stroke="none" fill="rgb(0, 0, 0)" d="M 100.73,31.33 C 98.77,31.07 96.79,31.24 94.82,31.36 L 88.89,31.8 C 86.92,31.94 84.92,32.12 82.92,31.99 81.92,31.91 80.91,31.81 79.92,31.57 78.95,31.33 77.93,31.01 77.16,30.31 L 77.22,30.23 C 78.11,30.66 79.08,30.79 80.04,30.88 81,30.96 81.98,30.99 82.95,30.99 84.91,30.99 86.88,31.04 88.86,31 L 94.8,30.87 C 96.78,30.88 98.79,30.84 100.75,31.24 L 100.73,31.33 Z M 100.73,31.33" />
            </g>
            <g id="kazSlowTop05-group1473">
                <path id="kazSlowTop05-bezier1947" stroke="none" fill="rgb(0, 0, 0)" d="M 89.38,14.77 C 84.26,15.05 79.13,15.4 74.1,16.33 72.84,16.57 71.61,16.87 70.39,17.25 69.15,17.62 67.9,17.94 66.64,18.21 65.37,18.47 64.09,18.69 62.79,18.8 62.14,18.85 61.49,18.88 60.83,18.86 60.15,18.84 59.53,18.82 58.79,18.61 L 59.38,18.09 C 59.83,19.99 60.24,21.9 60.59,23.83 60.9,25.76 61.24,27.68 61.2,29.72 61.04,31.76 60.58,33.62 60.23,35.54 60.05,36.49 59.9,37.45 59.79,38.4 59.69,39.36 59.63,40.33 59.85,41.27 L 59.75,41.3 C 59.39,40.37 59.37,39.36 59.37,38.38 59.39,37.39 59.49,36.42 59.6,35.44 59.79,33.51 60.21,31.55 60.27,29.7 60.21,27.84 59.88,25.9 59.57,24 59.25,22.09 58.9,20.18 58.51,18.28 L 58.36,17.54 59.11,17.77 C 60.16,18.08 61.51,18.1 62.74,18.04 64,17.98 65.26,17.81 66.52,17.59 67.77,17.36 69.01,17.08 70.25,16.76 71.48,16.42 72.76,16.13 74.02,15.92 79.11,15.08 84.25,14.84 89.37,14.67 L 89.38,14.77 Z M 89.38,14.77" />
            </g>
            <g id="kazSlowTop05-group1474">
                <path id="kazSlowTop05-bezier1948" stroke="none" fill="rgb(0, 0, 0)" d="M 59.81,41.88 C 62.04,41.02 64.46,40.69 66.86,40.7 68.06,40.72 69.26,40.83 70.46,41.02 71.65,41.2 72.82,41.53 73.95,41.74 76.25,42.17 78.6,42.38 80.95,42.62 83.3,42.82 85.66,42.97 88.04,43.12 L 88.05,43.22 C 85.68,43.52 83.28,43.6 80.89,43.53 78.5,43.48 76.11,43.21 73.76,42.66 72.56,42.38 71.47,41.98 70.32,41.75 69.17,41.51 68.01,41.34 66.84,41.27 64.51,41.14 62.11,41.27 59.85,41.97 L 59.81,41.88 Z M 59.81,41.88" />
            </g>
            <g id="kazSlowTop05-group1475">
                <path id="kazSlowTop05-bezier1949" stroke="none" fill="rgb(0, 0, 0)" d="M 50.21,41.84 C 51.57,41.46 52.96,41.18 54.38,41.01 55.09,40.93 55.8,40.82 56.52,40.9 57.24,40.98 57.96,41.14 58.61,41.51 L 58.59,41.58 56.49,41.65 C 55.81,41.67 55.12,41.61 54.42,41.61 53.03,41.64 51.62,41.74 50.23,41.92 L 50.21,41.84 Z M 50.21,41.84" />
            </g>
            <g id="kazSlowTop05-group1476">
                <path id="kazSlowTop05-bezier1950" stroke="none" fill="rgb(0, 0, 0)" d="M 50.56,18.63 L 54.58,18.47 C 55.25,18.44 55.92,18.36 56.58,18.4 57.25,18.44 57.91,18.51 58.59,18.63 L 58.6,18.71 C 57.95,18.99 57.27,19.08 56.59,19.15 55.92,19.21 55.24,19.12 54.57,19.07 53.23,18.99 51.89,18.87 50.55,18.71 L 50.56,18.63 Z M 50.56,18.63" />
            </g>
            <g id="kazSlowTop05-group1477">
                <path id="kazSlowTop05-bezier1951" stroke="none" fill="rgb(0, 0, 0)" d="M 51.19,27.4 C 52.04,27.44 52.88,27.48 53.72,27.51 54.14,27.51 54.56,27.46 54.97,27.53 55.38,27.59 55.77,27.68 56.21,27.8 L 56.23,27.87 C 55.84,28.16 55.37,28.24 54.94,28.28 54.5,28.31 54.08,28.19 53.66,28.1 52.81,27.94 51.99,27.73 51.17,27.47 L 51.19,27.4 Z M 51.19,27.4" />
            </g>
            <g id="kazSlowTop05-group1478">
                <path id="kazSlowTop05-bezier1952" stroke="none" fill="rgb(0, 0, 0)" d="M 50.92,33.09 C 51.78,32.81 52.64,32.56 53.52,32.35 53.95,32.24 54.39,32.09 54.85,32.09 55.3,32.11 55.8,32.11 56.24,32.43 L 56.21,32.5 C 55.77,32.6 55.36,32.75 54.93,32.84 54.5,32.93 54.06,32.91 53.61,32.94 L 50.94,33.16 50.92,33.09 Z M 50.92,33.09" />
            </g>
            <g id="kazSlowTop05-group1479">
                <path id="kazSlowTop05-bezier1953" stroke="none" fill="rgb(0, 0, 0)" d="M 120.91,14.51 C 120.72,13.88 120.58,13.24 120.57,12.56 120.57,12.22 120.55,11.83 120.78,11.48 120.97,11.12 121.59,10.88 121.89,11.18 L 121.88,11.25 C 121.53,11.44 121.51,11.61 121.44,11.83 121.38,12.06 121.24,12.32 121.17,12.62 121.05,13.21 121,13.85 120.99,14.5 L 120.91,14.51 Z M 120.91,14.51" />
            </g>
            <g id="kazSlowTop05-group1480">
                <path id="kazSlowTop05-bezier1954" stroke="none" fill="rgb(0, 0, 0)" d="M 100.86,47.2 C 100.17,47.27 99.49,47.31 98.79,47.32 98.45,47.33 98.1,47.37 97.76,47.3 97.42,47.22 97.06,47.15 96.76,46.9 L 96.78,46.85 C 97.14,46.82 97.47,46.81 97.81,46.8 98.14,46.8 98.48,46.88 98.81,46.92 L 100.86,47.15 100.86,47.2 Z M 100.86,47.2" />
            </g>
            <g id="kazSlowTop05-group1481">
                <path id="kazSlowTop05-bezier1955" stroke="none" fill="rgb(0, 0, 0)" d="M 100.98,12.36 L 99.61,12.56 C 99.38,12.6 99.16,12.67 98.94,12.67 98.71,12.66 98.5,12.66 98.24,12.61 L 98.22,12.56 C 98.39,12.34 98.64,12.25 98.87,12.18 99.1,12.11 99.35,12.15 99.58,12.16 100.05,12.18 100.52,12.23 100.98,12.31 L 100.98,12.36 Z M 100.98,12.36" />
            </g>
            <g id="kazSlowTop05-group1482">
                <path id="kazSlowTop05-bezier1956" stroke="none" fill="rgb(0, 0, 0)" d="M 115.73,28.53 C 115.28,28.62 114.93,28.98 114.81,29.39 114.7,29.79 114.63,30.3 114.49,30.74 114.36,31.19 114.25,31.65 114.02,32.07 113.77,32.46 113.52,32.97 112.98,33.07 L 112.96,33.03 C 113.26,32.71 113.39,32.26 113.57,31.86 113.74,31.44 113.96,31.04 114.13,30.62 114.32,30.19 114.42,29.77 114.6,29.3 114.8,28.85 115.25,28.51 115.72,28.48 L 115.73,28.53 Z M 115.73,28.53" />
            </g>
            <g id="kazSlowTop05-group1483">
                <path id="kazSlowTop05-bezier1957" stroke="none" fill="rgb(0, 0, 0)" d="M 115.88,28.48 C 116.01,28.41 116.14,28.31 116.2,28.19 116.26,28.07 116.17,27.97 116.05,27.9 115.81,27.74 115.51,27.65 115.23,27.49 114.64,27.18 114.29,26.5 114.15,25.91 113.98,25.34 113.68,24.83 113.4,24.3 113.12,23.77 112.81,23.26 112.45,22.76 L 112.48,22.72 C 113.05,23.03 113.46,23.54 113.83,24.05 114.18,24.57 114.42,25.18 114.55,25.81 114.65,26.4 114.87,26.94 115.37,27.27 115.6,27.44 115.89,27.56 116.15,27.76 116.28,27.85 116.41,28.07 116.29,28.24 116.19,28.39 116.04,28.46 115.9,28.52 L 115.88,28.48 Z M 115.88,28.48" />
            </g>
            <g id="kazSlowTop05-group1484">
                <path id="kazSlowTop05-bezier1958" stroke="none" fill="rgb(0, 0, 0)" d="M 51.43,18.15 C 53.86,17.08 56.39,16.25 58.93,15.49 61.48,14.73 64.06,14.08 66.64,13.49 69.24,12.91 71.84,12.37 74.46,11.91 77.07,11.44 79.71,11.13 82.36,10.87 L 82.3,10.88 C 83.21,10.59 84.24,10.77 85,11.28 85.74,11.79 86.35,12.61 86.34,13.52 L 86.26,13.52 C 86.18,12.66 85.51,11.98 84.81,11.6 84.09,11.19 83.22,11.12 82.49,11.42 L 82.47,11.43 82.43,11.43 74.58,12.66 C 71.96,13.06 69.35,13.49 66.76,14.02 64.16,14.54 61.58,15.13 59.02,15.81 56.47,16.49 53.92,17.23 51.46,18.22 L 51.43,18.15 Z M 51.43,18.15" />
            </g>
        </g>
    </g>
</svg>
