<?xml version="1.0" encoding="UTF-8"?>
<!DOCTYPE svg PUBLIC "-//W3C//DTD SVG 1.1//EN" "http://www.w3.org/Graphics/SVG/1.1/DTD/svg11.dtd">
<svg version="1.1" xmlns="http://www.w3.org/2000/svg" xmlns:xlink="http://www.w3.org/1999/xlink" width="160" height="160"  xml:space="preserve" id="kazSlowSide02">
    <!-- Generated by PaintCode - http://www.paintcodeapp.com -->
    <g id="kazSlowSide02-group">
        <circle id="kazSlowSide02-oval16" stroke="rgb(0, 0, 0)" stroke-width="2" stroke-miterlimit="10" fill="none" cx="126.88" cy="122" r="29" />
        <circle id="kazSlowSide02-oval17" stroke="rgb(0, 0, 0)" stroke-width="2" stroke-miterlimit="10" fill="none" cx="33.22" cy="122" r="29" />
        <circle id="kazSlowSide02-oval18" stroke="rgb(0, 0, 0)" stroke-width="2" stroke-miterlimit="10" fill="none" cx="71.72" cy="129" r="8.33" />
        <circle id="kazSlowSide02-oval19" stroke="rgb(0, 0, 0)" stroke-width="2" stroke-miterlimit="10" fill="none" cx="33.22" cy="122" r="2.5" />
        <path id="kazSlowSide02-bezier263" stroke="rgb(0, 0, 0)" stroke-width="2" stroke-miterlimit="10" fill="none" d="M 78.25,74.83 L 55.55,74.83 33.22,122 71.72,129" />
        <path id="kazSlowSide02-bezier264" stroke="rgb(0, 0, 0)" stroke-width="2" stroke-miterlimit="10" fill="none" d="M 105.55,74.83 L 91.17,74.83" />
        <path id="kazSlowSide02-bezier265" stroke="rgb(0, 0, 0)" stroke-width="2" stroke-miterlimit="10" fill="none" d="M 111.64,75.34 L 126.88,122" />
        <path id="kazSlowSide02-bezier266" stroke="rgb(0, 0, 0)" stroke-width="2" stroke-miterlimit="10" fill="none" d="M 79.8,118.43 L 77.53,120.66" />
        <path id="kazSlowSide02-bezier267" stroke="rgb(0, 0, 0)" stroke-width="2" stroke-miterlimit="10" fill="none" d="M 114.55,84.22 L 85.67,112.65" />
        <path id="kazSlowSide02-bezier268" stroke="rgb(0, 0, 0)" stroke-width="2" stroke-miterlimit="10" fill="none" d="M 68.82,119.55 L 53.72,65.83" />
        <path id="kazSlowSide02-bezier269" stroke="rgb(0, 0, 0)" stroke-width="2" stroke-miterlimit="10" fill="none" d="M 49.78,64.49 C 46.05,64.92 42.43,64.97 41.22,63.83 38.38,61.16 34.88,59.5 41.22,59.5" />
        <path id="kazSlowSide02-bezier270" stroke="rgb(0, 0, 0)" stroke-width="1" stroke-miterlimit="10" fill="none" d="M 66.65,120.66 L 37.28,120.66" />
        <path id="kazSlowSide02-bezier271" stroke="rgb(0, 0, 0)" stroke-width="1" stroke-miterlimit="10" fill="none" d="M 35.22,125.5 L 63.38,135.04" />
        <path id="kazSlowSide02-bezier272" stroke="rgb(0, 0, 0)" stroke-width="2" stroke-miterlimit="10" fill="none" d="M 124.97,79.79 C 124.97,79.79 129.13,78.75 129.13,73.25 129.13,67.75 125.3,64.33 118.47,64.33 111.64,64.33 110.01,64.33 110.01,64.33" />
        <path id="kazSlowSide02-bezier273" stroke="rgb(0, 0, 0)" stroke-width="2" stroke-miterlimit="10" fill="none" d="M 81.49,119.07 L 89.32,119.07" />
        <path id="kazSlowSide02-bezier274" stroke="rgb(0, 0, 0)" stroke-width="2" stroke-miterlimit="10" fill="none" d="M 50.83,137.64 L 58.66,137.64" />
        <g id="kazSlowSide02-group192">
            <g id="kazSlowSide02-group193">
                <path id="kazSlowSide02-bezier275" stroke="none" fill="rgb(0, 0, 0)" d="M 121.39,77.67 C 121.96,78.53 122.54,79.37 123.13,80.18 123.44,80.58 123.81,80.92 124.05,81.34 124.31,81.75 124.47,82.18 124.82,82.56 L 124.8,82.66 C 124.49,82.74 124.16,82.62 123.92,82.48 123.67,82.33 123.46,82.15 123.26,81.96 122.87,81.57 122.69,81.06 122.45,80.6 121.99,79.66 121.61,78.7 121.3,77.72 L 121.39,77.67 Z M 121.39,77.67" />
            </g>
            <g id="kazSlowSide02-group194">
                <path id="kazSlowSide02-bezier276" stroke="none" fill="rgb(0, 0, 0)" d="M 125.82,82.86 C 124.44,83.77 122.99,84.6 121.4,85.13 120.61,85.37 119.74,85.6 118.85,85.28 118.01,84.96 117.41,84.24 116.98,83.52 116.13,82.02 115.76,80.37 115.34,78.78 L 115.31,78.66 C 115.29,78.61 115.27,78.55 115.25,78.53 115.23,78.47 115.18,78.38 115.13,78.31 115.04,78.15 114.92,77.99 114.8,77.83 114.55,77.52 114.29,77.21 114.01,76.91 113.46,76.31 112.89,75.72 112.31,75.15 109.95,72.85 107.45,70.72 105.02,68.49 103.81,67.37 102.58,66.28 101.35,65.18 100.74,64.63 100.12,64.09 99.5,63.56 98.88,63.02 98.25,62.47 97.57,62.03 L 97.62,61.94 C 99.14,62.65 100.46,63.67 101.8,64.64 103.12,65.64 104.4,66.69 105.68,67.74 108.21,69.88 110.58,72.19 112.88,74.59 113.45,75.19 114.01,75.8 114.56,76.43 114.83,76.75 115.09,77.08 115.35,77.42 115.47,77.59 115.6,77.77 115.71,77.97 115.77,78.07 115.82,78.16 115.87,78.3 115.91,78.37 115.91,78.4 115.93,78.46 L 115.97,78.63 C 116.34,80.23 116.67,81.86 117.42,83.27 117.79,83.97 118.3,84.61 119.01,84.91 119.69,85.2 120.55,85.06 121.31,84.85 122.88,84.4 124.36,83.63 125.76,82.78 L 125.82,82.86 Z M 125.82,82.86" />
            </g>
            <g id="kazSlowSide02-group195">
                <path id="kazSlowSide02-bezier277" stroke="none" fill="rgb(0, 0, 0)" d="M 96.9,61.16 C 96.18,60.94 95.46,60.46 95.2,59.67 95.06,58.89 94.82,58.24 94.58,57.51 94.11,56.1 93.6,54.69 93.08,53.28 92.56,51.88 91.98,50.5 91.56,49.06 91.14,47.62 90.74,46.17 90.49,44.67 L 90.59,44.64 C 91.35,45.96 91.95,47.34 92.5,48.73 93.05,50.13 93.43,51.59 93.85,53.03 94.27,54.47 94.68,55.92 95.06,57.37 95.24,58.08 95.43,58.87 95.49,59.58 95.64,60.26 96.26,60.8 96.93,61.07 L 96.9,61.16 Z M 96.9,61.16" />
            </g>
            <g id="kazSlowSide02-group196">
                <path id="kazSlowSide02-bezier278" stroke="none" fill="rgb(0, 0, 0)" d="M 98.36,35.58 C 98.77,36.39 99.07,37.25 99.38,38.1 99.68,38.96 99.98,39.8 100.24,40.69 L 100.33,41 99.98,41.01 C 98.17,41.02 96.39,41.43 94.7,42.07 93.86,42.39 93.04,42.78 92.23,43.18 91.42,43.57 90.61,43.98 89.84,44.42 L 89.3,44.72 89.16,44.18 C 89,43.56 88.83,42.93 88.66,42.3 88.56,41.99 88.46,41.69 88.35,41.39 88.24,41.1 88.13,40.77 87.91,40.58 L 87.94,40.49 C 88.31,40.62 88.48,40.95 88.69,41.21 88.89,41.49 89.04,41.78 89.2,42.08 89.51,42.68 89.78,43.28 90.02,43.91 L 89.34,43.67 C 90.89,42.55 92.62,41.8 94.43,41.26 96.22,40.72 98.1,40.38 99.99,40.49 L 99.73,40.8 C 99.54,39.94 99.31,39.06 99.08,38.19 98.84,37.32 98.6,36.45 98.27,35.62 L 98.36,35.58 Z M 98.36,35.58" />
            </g>
            <g id="kazSlowSide02-group197">
                <path id="kazSlowSide02-bezier279" stroke="none" fill="rgb(0, 0, 0)" d="M 99.07,41.46 C 99.87,43.62 100.55,45.83 101.08,48.09 101.34,49.21 101.65,50.34 101.72,51.51 101.79,52.67 101.77,53.85 101.51,55 L 101.41,55.01 C 101.12,53.86 100.93,52.75 100.73,51.63 100.52,50.51 100.47,49.37 100.29,48.24 99.95,45.98 99.5,43.73 98.97,41.49 L 99.07,41.46 Z M 99.07,41.46" />
            </g>
            <g id="kazSlowSide02-group198">
                <path id="kazSlowSide02-bezier280" stroke="none" fill="rgb(0, 0, 0)" d="M 102.7,56.46 C 105.13,57.59 107.18,59.55 108.53,61.87 109.98,64.08 111.65,66.16 113.33,68.21 115.03,70.26 116.81,72.24 118.58,74.18 119.02,74.66 119.47,75.15 119.94,75.52 120.36,75.85 121,75.97 121.63,76.12 122.28,76.25 123,76.4 123.61,76.8 124.2,77.22 124.62,77.8 124.89,78.41 L 124.8,78.46 C 124.4,77.94 123.94,77.46 123.38,77.2 122.82,76.92 122.2,76.86 121.53,76.8 120.87,76.74 120.13,76.66 119.44,76.22 118.84,75.8 118.35,75.34 117.86,74.87 115.94,72.97 114.33,70.83 112.7,68.71 111.09,66.58 109.5,64.43 108.1,62.13 106.89,59.79 105.01,57.8 102.66,56.55 L 102.7,56.46 Z M 102.7,56.46" />
            </g>
            <g id="kazSlowSide02-group199">
                <path id="kazSlowSide02-bezier281" stroke="none" fill="rgb(0, 0, 0)" d="M 100.49,26.13 C 101.09,27.19 101.93,28.12 102.88,28.84 103.84,29.58 104.92,30.03 106.11,30.3 107.29,30.6 108.49,30.76 109.63,30.87 110.76,30.97 111.94,30.86 112.36,29.59 L 112.46,29.6 C 112.54,30.23 112.23,31.01 111.58,31.38 110.96,31.76 110.26,31.85 109.6,31.87 108.27,31.89 107.06,31.46 105.88,31.07 104.69,30.7 103.49,30.08 102.56,29.22 101.64,28.35 100.89,27.32 100.4,26.17 L 100.49,26.13 Z M 100.49,26.13" />
            </g>
            <g id="kazSlowSide02-group200">
                <path id="kazSlowSide02-bezier282" stroke="none" fill="rgb(0, 0, 0)" d="M 112.62,26.49 C 113.26,26.41 113.94,26.24 114.41,25.85 114.64,25.65 114.77,25.38 114.75,25.11 114.74,24.84 114.59,24.55 114.48,24.22 114.03,22.96 113.6,21.69 113.33,20.35 113.2,19.67 113.06,19 113.15,18.21 113.27,17.57 113.27,17.01 113.22,16.38 113.09,15.16 112.85,13.84 111.78,13.05 L 111.82,12.96 C 112.52,13.08 113.1,13.65 113.47,14.25 113.86,14.86 114.08,15.55 114.21,16.25 114.26,16.6 114.29,16.96 114.28,17.32 114.28,17.5 114.26,17.69 114.23,17.87 114.21,18.05 114.15,18.28 114.13,18.38 114,18.92 114.05,19.59 114.12,20.22 114.28,21.5 114.6,22.79 114.95,24.07 115.02,24.38 115.17,24.71 115.15,25.11 115.14,25.51 114.9,25.88 114.6,26.08 113.99,26.49 113.29,26.57 112.62,26.59 L 112.62,26.49 Z M 112.62,26.49" />
            </g>
            <g id="kazSlowSide02-group201">
                <path id="kazSlowSide02-bezier283" stroke="none" fill="rgb(0, 0, 0)" d="M 104.2,23.9 C 103.7,23.44 103.26,22.93 102.9,22.33 102.72,22.03 102.47,21.72 102.47,21.32 102.46,20.95 102.59,20.44 103.02,20.25 L 103.11,20.3 C 103.21,20.69 103.35,20.88 103.46,21.15 103.58,21.39 103.55,21.71 103.63,22.01 103.8,22.61 104.03,23.23 104.28,23.84 L 104.2,23.9 Z M 104.2,23.9" />
            </g>
            <g id="kazSlowSide02-group202">
                <path id="kazSlowSide02-bezier284" stroke="none" fill="rgb(0, 0, 0)" d="M 98.48,32.2 C 99.21,31.7 99.98,31.25 100.79,30.87 101.19,30.68 101.59,30.42 102.06,30.39 102.51,30.35 103.05,30.36 103.48,30.71 L 103.46,30.81 C 103.02,31.02 102.69,31.21 102.29,31.36 101.91,31.53 101.47,31.53 101.05,31.63 100.22,31.83 99.37,32.05 98.52,32.29 L 98.48,32.2 Z M 98.48,32.2" />
            </g>
            <g id="kazSlowSide02-group203">
                <path id="kazSlowSide02-bezier285" stroke="none" fill="rgb(0, 0, 0)" d="M 85.33,24.42 C 84.14,24.47 82.94,24.59 81.76,24.73 80.56,24.87 79.41,25.02 78.25,25.35 75.95,25.94 73.7,26.75 71.5,27.64 69.29,28.55 67.15,29.61 64.94,30.52 63.82,30.95 62.71,31.42 61.57,31.81 60.43,32.19 59.27,32.58 58.05,32.66 L 58.03,32.56 C 59.17,32.21 60.23,31.68 61.31,31.16 L 64.53,29.6 C 66.7,28.57 68.94,27.71 71.21,26.9 73.48,26.09 75.78,25.37 78.14,24.87 79.31,24.6 80.55,24.5 81.73,24.43 82.93,24.36 84.13,24.3 85.33,24.32 L 85.33,24.42 85.33,24.42 Z M 85.33,24.42" />
            </g>
            <g id="kazSlowSide02-group204">
                <path id="kazSlowSide02-bezier286" stroke="none" fill="rgb(0, 0, 0)" d="M 57.4,33.48 C 59.03,35.48 60.58,37.55 62.02,39.7 62.74,40.78 63.42,41.89 64.03,43.04 64.64,44.19 65.21,45.37 65.52,46.71 L 64.94,46.43 C 66.06,45.8 67.19,45.21 68.33,44.64 69.48,44.07 70.65,43.56 71.85,43.09 73.05,42.65 74.26,42.22 75.52,41.92 76.76,41.62 78.06,41.35 79.36,41.54 L 79.35,41.64 C 78.1,41.74 76.9,42.16 75.72,42.58 74.54,43.02 73.37,43.49 72.22,44.01 L 68.76,45.54 C 67.6,46.05 66.45,46.58 65.32,47.14 L 64.83,47.38 64.73,46.86 C 64.51,45.67 64,44.48 63.45,43.34 62.89,42.19 62.26,41.07 61.6,39.97 60.28,37.77 58.85,35.62 57.33,33.54 L 57.4,33.48 Z M 57.4,33.48" />
            </g>
            <g id="kazSlowSide02-group205">
                <path id="kazSlowSide02-bezier287" stroke="none" fill="rgb(0, 0, 0)" d="M 81.26,42.03 C 81.78,42.27 82.35,42.41 82.91,42.5 83.46,42.6 84.02,42.63 84.57,42.59 85.12,42.56 85.64,42.37 86.18,42.32 86.72,42.26 87.26,42.17 87.9,42.16 L 87.95,42.25 C 87.55,42.76 87,43.08 86.41,43.29 85.81,43.51 85.16,43.45 84.55,43.39 83.32,43.28 82.15,42.84 81.21,42.11 L 81.26,42.03 Z M 81.26,42.03" />
            </g>
            <g id="kazSlowSide02-group206">
                <path id="kazSlowSide02-bezier288" stroke="none" fill="rgb(0, 0, 0)" d="M 56.62,35.07 C 55.67,36.06 54.63,36.96 53.48,37.75 52.91,38.14 52.33,38.58 51.63,38.78 50.95,38.97 50.16,39.09 49.46,38.77 L 49.47,38.67 C 50.14,38.43 50.69,38.14 51.27,37.85 51.83,37.55 52.47,37.36 53.07,37.06 54.26,36.46 55.43,35.75 56.56,35 L 56.62,35.07 Z M 56.62,35.07" />
            </g>
            <g id="kazSlowSide02-group207">
                <path id="kazSlowSide02-bezier289" stroke="none" fill="rgb(0, 0, 0)" d="M 62.18,50.44 C 61.14,49.27 60.02,48.18 58.83,47.17 57.63,46.18 56.36,45.25 54.98,44.56 54.3,44.2 53.57,43.99 52.82,43.7 52.08,43.41 51.36,43.05 50.68,42.65 49.3,41.83 48.04,40.86 46.96,39.63 L 47.4,39.69 C 45.43,41.2 43.63,43.04 42.32,45.14 41,47.24 40.24,49.68 40.67,52.08 41.02,54.5 42.02,56.84 43.56,58.77 45.1,60.7 47.09,62.38 49.48,63.24 L 49.46,63.33 C 46.92,62.8 44.69,61.21 42.96,59.28 41.24,57.31 40.02,54.86 39.64,52.22 39.43,50.92 39.53,49.51 39.9,48.24 40.27,46.96 40.88,45.77 41.6,44.68 43.07,42.51 44.92,40.68 47.03,39.16 L 47.27,38.98 47.48,39.22 C 48.43,40.37 49.66,41.37 50.96,42.18 51.61,42.59 52.3,42.94 53,43.25 53.7,43.55 54.48,43.81 55.17,44.2 56.57,44.96 57.82,45.94 58.99,46.98 60.16,48.04 61.25,49.17 62.25,50.38 L 62.18,50.44 Z M 62.18,50.44" />
            </g>
            <g id="kazSlowSide02-group208">
                <path id="kazSlowSide02-bezier290" stroke="none" fill="rgb(0, 0, 0)" d="M 55.52,63.39 C 57.43,64.53 59.44,65.5 61.51,66.25 62.55,66.62 63.61,66.94 64.68,67.14 65.21,67.24 65.75,67.31 66.29,67.33 66.8,67.35 67.41,67.35 67.97,67.4 70.23,67.6 72.45,68.04 74.59,68.71 76.72,69.4 78.82,70.16 80.82,71.2 L 80.78,71.29 C 78.6,70.8 76.47,70.18 74.31,69.67 72.17,69.14 70.05,68.49 67.88,68.2 67.33,68.12 66.83,68.1 66.24,68.06 65.66,68 65.1,67.9 64.55,67.77 63.44,67.52 62.37,67.14 61.33,66.71 59.27,65.82 57.31,64.73 55.47,63.48 L 55.52,63.39 Z M 55.52,63.39" />
            </g>
            <g id="kazSlowSide02-group209">
                <path id="kazSlowSide02-bezier291" stroke="none" fill="rgb(0, 0, 0)" d="M 80.85,72.77 C 79.74,74.95 78.7,77.23 78.2,79.6 77.97,80.75 78.04,82.01 77.98,83.23 L 77.88,86.93 C 77.81,89.4 77.76,91.87 77.42,94.33 77.23,95.56 77.05,96.79 76.75,98 76.44,99.2 76.09,100.43 75.43,101.5 L 75.34,101.45 C 75.73,100.29 75.9,99.08 76.06,97.87 76.21,96.66 76.35,95.44 76.43,94.22 76.63,91.78 76.9,89.34 77.08,86.89 L 77.33,83.2 C 77.44,81.98 77.42,80.75 77.71,79.49 78.37,77.05 79.53,74.86 80.76,72.72 L 80.85,72.77 Z M 80.85,72.77" />
            </g>
            <g id="kazSlowSide02-group210">
                <path id="kazSlowSide02-bezier292" stroke="none" fill="rgb(0, 0, 0)" d="M 60.57,51.31 C 65.8,52.27 70.93,53.77 75.86,55.81 78.33,56.82 80.78,57.94 83.02,59.42 85.24,60.92 87.37,62.62 89.01,64.74 L 88.94,64.81 C 86.9,63.1 84.76,61.58 82.49,60.27 80.23,58.93 77.94,57.64 75.54,56.54 73.14,55.44 70.68,54.48 68.17,53.63 65.67,52.77 63.13,52.01 60.55,51.4 L 60.57,51.31 Z M 60.57,51.31" />
            </g>
            <g id="kazSlowSide02-group211">
                <path id="kazSlowSide02-bezier293" stroke="none" fill="rgb(0, 0, 0)" d="M 90.57,71.9 C 89.92,74.68 89.22,77.48 88.88,80.28 88.87,80.45 88.86,80.63 88.86,80.79 88.88,80.91 88.87,81.21 88.84,81.37 88.78,81.74 88.69,82.09 88.6,82.44 88.42,83.14 88.22,83.82 88.02,84.51 L 86.75,88.62 84.15,96.8 C 83.73,98.16 83.28,99.52 82.83,100.87 82.39,102.21 81.87,103.59 81.6,104.9 L 81.48,105.47 81.02,105.2 C 80.12,104.68 79.21,104.16 78.27,103.71 77.79,103.49 77.32,103.27 76.84,103.1 76.36,102.94 75.83,102.73 75.36,102.89 L 75.31,102.8 C 75.84,102.53 76.41,102.69 76.93,102.78 77.45,102.9 77.97,103.05 78.46,103.24 79.46,103.61 80.44,104.02 81.4,104.5 L 80.81,104.8 C 81.05,103.29 81.47,101.96 81.87,100.57 82.28,99.19 82.73,97.83 83.21,96.48 L 86.07,88.39 87.46,84.34 C 87.68,83.66 87.9,82.98 88.1,82.3 88.2,81.96 88.29,81.62 88.36,81.28 88.44,81.02 88.37,80.59 88.45,80.23 88.91,77.37 89.71,74.63 90.47,71.87 L 90.57,71.9 Z M 90.57,71.9" />
            </g>
            <g id="kazSlowSide02-group212">
                <path id="kazSlowSide02-bezier294" stroke="none" fill="rgb(0, 0, 0)" d="M 73.61,108.74 L 74.33,106.46 C 74.45,106.09 74.48,105.69 74.67,105.36 74.85,105.02 75.09,104.74 75.32,104.38 L 75.42,104.36 C 75.75,104.8 75.67,105.29 75.61,105.69 75.54,106.11 75.26,106.44 75.06,106.79 74.65,107.49 74.19,108.15 73.69,108.79 L 73.61,108.74 Z M 73.61,108.74" />
            </g>
            <g id="kazSlowSide02-group213">
                <path id="kazSlowSide02-bezier295" stroke="none" fill="rgb(0, 0, 0)" d="M 80.81,117.95 C 79.35,117.48 77.87,117.07 76.38,116.79 75.64,116.65 74.89,116.54 74.16,116.56 73.37,116.58 72.57,116.5 71.78,116.29 71.01,116.07 70.15,115.73 69.62,114.87 69.37,114.43 69.3,113.91 69.36,113.45 69.43,112.98 69.61,112.58 69.8,112.2 70.66,110.85 71.65,109.66 72.84,108.65 L 72.92,108.71 C 72.16,110.06 71.36,111.37 70.69,112.67 70.38,113.29 70.25,113.92 70.49,114.4 70.72,114.9 71.35,115.29 72.01,115.53 72.69,115.76 73.43,115.88 74.17,115.91 74.97,115.94 75.74,116.11 76.49,116.3 77.98,116.72 79.42,117.26 80.84,117.86 L 80.81,117.95 Z M 80.81,117.95" />
            </g>
            <g id="kazSlowSide02-group214">
                <path id="kazSlowSide02-bezier296" stroke="none" fill="rgb(0, 0, 0)" d="M 74.45,109.62 C 75.02,110.07 75.64,110.44 76.25,110.69 76.57,110.82 76.9,110.81 77.17,110.96 77.45,111.09 77.72,111.22 78.11,111.44 L 78.13,111.54 C 77.81,111.87 77.35,111.96 76.93,111.93 76.5,111.9 76.17,111.61 75.86,111.38 75.23,110.92 74.74,110.34 74.37,109.69 L 74.45,109.62 Z M 74.45,109.62" />
            </g>
            <g id="kazSlowSide02-group215">
                <path id="kazSlowSide02-bezier297" stroke="none" fill="rgb(0, 0, 0)" d="M 79.7,110.56 C 79.96,110.27 80.26,110.01 80.66,109.88 80.85,109.82 81.09,109.81 81.29,109.91 81.5,110.01 81.63,110.2 81.75,110.32 82.27,110.86 82.82,111.39 83.37,111.9 83.93,112.41 84.49,112.91 85.07,113.38 85.37,113.61 85.66,113.83 85.97,114.03 86.26,114.22 86.6,114.42 86.83,114.43 87.66,114.55 88.39,114.79 89.13,115.1 89.86,115.44 90.59,115.78 91.16,116.6 91.29,116.79 91.4,117.16 91.38,117.38 91.38,117.6 91.39,117.83 91.25,118.14 91.1,118.48 90.74,118.65 90.52,118.68 90.28,118.73 90.08,118.73 89.87,118.73 89.08,118.7 88.34,118.59 87.57,118.46 L 87.57,118.36 C 88.33,118.21 89.1,118.15 89.82,118.03 90.18,117.98 90.53,117.83 90.45,117.79 90.45,117.75 90.46,117.59 90.44,117.43 90.42,117.27 90.4,117.27 90.32,117.14 90,116.71 89.33,116.32 88.71,115.99 88.08,115.66 87.38,115.37 86.71,115.22 86.19,115.11 85.88,114.85 85.55,114.62 85.23,114.38 84.94,114.13 84.65,113.87 84.08,113.35 83.55,112.81 83.02,112.25 82.51,111.69 82,111.12 81.53,110.51 81.31,110.17 81.08,109.99 80.71,110.07 80.37,110.15 80.05,110.38 79.78,110.63 L 79.7,110.56 Z M 79.7,110.56" />
            </g>
            <g id="kazSlowSide02-group216">
                <path id="kazSlowSide02-bezier298" stroke="none" fill="rgb(0, 0, 0)" d="M 78.78,110.19 C 78.71,109.62 78.69,109.06 78.74,108.49 78.77,108.2 78.73,107.88 78.91,107.61 79,107.48 79.11,107.35 79.27,107.24 79.4,107.14 79.66,107.02 79.86,107.13 L 79.87,107.23 C 79.8,107.53 79.9,107.74 79.84,107.99 79.82,108.23 79.63,108.43 79.52,108.68 79.31,109.17 79.1,109.68 78.88,110.2 L 78.78,110.19 Z M 78.78,110.19" />
            </g>
            <g id="kazSlowSide02-group217">
                <path id="kazSlowSide02-bezier299" stroke="none" fill="rgb(0, 0, 0)" d="M 63.01,136.4 C 62.41,136.74 61.71,136.87 61.04,136.97 60.7,137.02 60.35,137.09 60.01,137.06 59.67,137.02 59.33,136.98 58.99,136.83 L 58.99,136.78 C 59.34,136.64 59.67,136.61 60.01,136.56 60.34,136.53 60.67,136.57 61.01,136.57 61.67,136.56 62.35,136.55 62.99,136.35 L 63.01,136.4 Z M 63.01,136.4" />
            </g>
            <g id="kazSlowSide02-group218">
                <path id="kazSlowSide02-bezier300" stroke="none" fill="rgb(0, 0, 0)" d="M 52.43,128.98 C 52.77,129.25 53.11,129.51 53.45,129.76 53.63,129.88 53.82,129.98 53.96,130.14 54.1,130.31 54.24,130.47 54.32,130.72 L 54.29,130.76 C 54.03,130.74 53.84,130.63 53.64,130.52 53.45,130.41 53.33,130.22 53.18,130.06 52.89,129.73 52.63,129.38 52.39,129.01 L 52.43,128.98 Z M 52.43,128.98" />
            </g>
            <g id="kazSlowSide02-group219">
                <path id="kazSlowSide02-bezier301" stroke="none" fill="rgb(0, 0, 0)" d="M 89.63,65.16 C 90.45,65.85 91.03,66.85 91.3,67.93 91.44,68.47 91.59,69.04 91.47,69.6 91.36,70.15 91.14,70.69 90.72,71.11 L 90.63,71.08 C 90.51,70.51 90.5,70.01 90.47,69.52 90.44,69.04 90.55,68.56 90.51,68.06 90.48,67.57 90.38,67.08 90.22,66.61 90.07,66.13 89.86,65.65 89.56,65.23 L 89.63,65.16 Z M 89.63,65.16" />
            </g>
            <g id="kazSlowSide02-group220">
                <path id="kazSlowSide02-bezier302" stroke="none" fill="rgb(0, 0, 0)" d="M 50.13,136.52 C 49.12,136.36 48.09,136.24 47.07,136.18 46.56,136.14 46.05,136.12 45.55,136.12 45.29,136.12 45.02,136.13 44.76,136.11 44.47,136.09 44.19,136.05 43.91,135.96 43.35,135.81 42.74,135.43 42.44,134.8 42.15,134.18 42.21,133.49 42.42,132.95 42.83,131.98 43.21,131.04 43.84,130.15 L 43.94,130.19 C 43.83,131.23 43.64,132.27 43.37,133.24 43.17,134.11 43.28,134.86 44.17,135.2 44.37,135.29 44.6,135.35 44.82,135.39 45.07,135.43 45.31,135.45 45.58,135.47 46.1,135.52 46.62,135.6 47.13,135.69 48.16,135.88 49.16,136.13 50.16,136.42 L 50.13,136.52 Z M 50.13,136.52" />
            </g>
            <g id="kazSlowSide02-group221">
                <path id="kazSlowSide02-bezier303" stroke="none" fill="rgb(0, 0, 0)" d="M 54.35,99.72 C 54.58,98.44 54.88,97.15 55.42,95.92 55.69,95.31 55.96,94.65 56.49,94.17 57,93.69 57.66,93.31 58.37,93.28 L 58.41,93.38 C 57.95,93.9 57.58,94.34 57.23,94.83 56.9,95.32 56.46,95.76 56.13,96.29 55.47,97.36 54.95,98.55 54.45,99.75 L 54.35,99.72 Z M 54.35,99.72" />
            </g>
            <g id="kazSlowSide02-group222">
                <path id="kazSlowSide02-bezier304" stroke="none" fill="rgb(0, 0, 0)" d="M 48.42,119.48 C 48.86,118.25 49.28,117.01 49.69,115.76 50.11,114.52 50.52,113.28 50.89,112.03 51.25,110.78 51.48,109.51 51.86,108.26 52.24,107.01 52.62,105.76 53.17,104.54 L 53.27,104.56 C 53.25,105.9 53.08,107.2 52.83,108.5 52.58,109.79 52.12,111.05 51.65,112.28 50.71,114.76 49.64,117.15 48.51,119.52 L 48.42,119.48 Z M 48.42,119.48" />
            </g>
            <g id="kazSlowSide02-group223">
                <path id="kazSlowSide02-bezier305" stroke="none" fill="rgb(0, 0, 0)" d="M 53.7,124.55 C 52.57,124.35 51.44,124.16 50.31,123.94 49.75,123.84 49.19,123.74 48.62,123.66 48.07,123.59 47.5,123.38 47.03,123.23 L 46.46,123.04 46.7,122.67 C 46.93,122.32 47.19,121.98 47.51,121.67 L 47.6,121.7 C 47.59,122.15 47.53,122.58 47.43,122.99 L 47.09,122.44 C 47.76,122.42 48.3,122.5 48.86,122.69 L 50.49,123.26 C 51.59,123.62 52.66,124.03 53.73,124.45 L 53.7,124.55 Z M 53.7,124.55" />
            </g>
            <g id="kazSlowSide02-group224">
                <path id="kazSlowSide02-bezier306" stroke="none" fill="rgb(0, 0, 0)" d="M 51.65,76.82 C 50.36,75.3 49.23,73.64 48.15,71.97 47.62,71.13 47.02,70.32 46.6,69.41 46.19,68.51 45.81,67.58 45.59,66.57 L 45.68,66.52 C 46.39,67.28 46.95,68.1 47.48,68.93 48.02,69.76 48.39,70.69 48.85,71.57 49.76,73.32 50.68,75.07 51.73,76.76 L 51.65,76.82 Z M 51.65,76.82" />
            </g>
            <g id="kazSlowSide02-group225">
                <path id="kazSlowSide02-bezier307" stroke="none" fill="rgb(0, 0, 0)" d="M 57.93,90.92 C 57.41,89.14 56.84,87.37 56.23,85.63 55.92,84.76 55.51,83.93 55.26,83.05 55,82.17 54.76,81.3 54.56,80.36 L 54.65,80.31 C 55.34,81 55.81,81.85 56.2,82.7 56.6,83.56 56.77,84.5 57,85.4 57.45,87.22 57.79,89.05 58.03,90.9 L 57.93,90.92 Z M 57.93,90.92" />
            </g>
            <g id="kazSlowSide02-group226">
                <path id="kazSlowSide02-bezier308" stroke="none" fill="rgb(0, 0, 0)" d="M 67.36,76.17 C 67.78,77.9 68.3,79.6 68.77,81.32 69.24,83.04 69.68,84.77 69.87,86.59 L 69.87,86.56 70.22,88.78 C 70.35,89.59 70.31,90.37 70.2,91.16 70.08,91.94 69.83,92.72 69.45,93.43 69.06,94.13 68.54,94.78 67.92,95.28 L 68,95.18 C 67.67,95.67 67.32,96.14 66.98,96.62 L 67.01,96.56 C 66.49,97.53 65.97,98.5 65.38,99.43 L 65.29,99.39 C 65.58,98.32 65.95,97.29 66.31,96.26 L 66.31,96.25 66.33,96.21 C 66.62,95.69 66.9,95.18 67.2,94.67 L 67.23,94.63 67.29,94.57 C 68.29,93.6 68.96,92.36 69.29,90.98 69.43,90.3 69.52,89.56 69.44,88.89 L 69.13,86.67 69.13,86.65 69.13,86.64 C 69.04,84.91 68.68,83.16 68.32,81.42 67.96,79.68 67.56,77.94 67.26,76.19 L 67.36,76.17 Z M 67.36,76.17" />
            </g>
            <g id="kazSlowSide02-group227">
                <path id="kazSlowSide02-bezier309" stroke="none" fill="rgb(0, 0, 0)" d="M 65.86,69.32 C 66.15,69.88 66.42,70.46 66.65,71.04 66.77,71.33 66.96,71.6 66.97,71.92 66.97,72.24 66.94,72.57 66.74,72.93 L 66.64,72.95 C 66.3,72.71 66.13,72.44 65.99,72.15 65.85,71.87 65.9,71.54 65.87,71.23 65.81,70.6 65.78,69.98 65.76,69.34 L 65.86,69.32 Z M 65.86,69.32" />
            </g>
            <g id="kazSlowSide02-group228">
                <path id="kazSlowSide02-bezier310" stroke="none" fill="rgb(0, 0, 0)" d="M 55.02,121.75 C 55.02,122.27 54.89,122.74 54.73,123.19 54.56,123.65 54.36,124.07 54.06,124.5 54.01,124.24 54.04,123.98 54.08,123.74 54.11,123.49 54.19,123.26 54.26,123.02 54.44,122.57 54.66,122.13 55.02,121.75 Z M 55.02,121.75" />
            </g>
            <g id="kazSlowSide02-group229">
                <path id="kazSlowSide02-bezier311" stroke="none" fill="rgb(0, 0, 0)" d="M 58.87,112.99 C 58.52,114.19 58.04,115.33 57.55,116.47 57.03,117.6 56.5,118.71 55.83,119.78 56.14,118.56 56.59,117.4 57.09,116.26 57.61,115.14 58.17,114.02 58.87,112.99 Z M 58.87,112.99" />
            </g>
            <g id="kazSlowSide02-group230">
                <path id="kazSlowSide02-bezier312" stroke="none" fill="rgb(0, 0, 0)" d="M 62.9,104.83 C 62.8,105.52 62.56,106.15 62.29,106.76 62,107.36 61.67,107.95 61.2,108.47 61.32,107.78 61.56,107.16 61.83,106.55 62.12,105.94 62.44,105.36 62.9,104.83 Z M 62.9,104.83" />
            </g>
            <g id="kazSlowSide02-group231">
                <path id="kazSlowSide02-bezier313" stroke="none" fill="rgb(0, 0, 0)" d="M 51.85,127.44 C 51.83,127.72 51.81,128 51.77,128.26 51.76,128.4 51.78,128.54 51.71,128.66 51.64,128.78 51.57,128.88 51.42,129 L 51.37,128.99 C 51.24,128.84 51.24,128.68 51.23,128.54 51.23,128.39 51.32,128.27 51.39,128.15 51.51,127.9 51.65,127.66 51.81,127.43 L 51.85,127.44 Z M 51.85,127.44" />
            </g>
            <g id="kazSlowSide02-group232">
                <path id="kazSlowSide02-bezier314" stroke="none" fill="rgb(0, 0, 0)" d="M 46.96,126.08 C 46.91,126.45 46.85,126.81 46.76,127.17 46.72,127.35 46.71,127.54 46.61,127.7 46.49,127.86 46.38,128.02 46.17,128.11 L 46.12,128.09 C 46.09,127.87 46.12,127.7 46.15,127.51 46.18,127.34 46.3,127.19 46.39,127.03 46.55,126.71 46.73,126.39 46.91,126.07 L 46.96,126.08 Z M 46.96,126.08" />
            </g>
            <g id="kazSlowSide02-group233">
                <path id="kazSlowSide02-bezier315" stroke="none" fill="rgb(0, 0, 0)" d="M 112.37,11.98 C 110.88,10.72 109,9.98 107.1,9.6 105.2,9.23 103.2,9.2 101.31,9.54 99.43,9.9 97.71,10.89 96.27,12.16 94.83,13.44 93.62,14.97 92.54,16.58 90.37,19.83 88.75,23.41 86.76,26.82 85.74,28.51 84.71,30.23 83.36,31.73 82.68,32.46 81.92,33.16 81.02,33.66 80.13,34.15 79.08,34.39 78.09,34.21 L 78.1,34.11 C 79.08,34.13 80.01,33.82 80.79,33.27 81.57,32.74 82.23,32.03 82.82,31.28 84,29.75 84.97,28.06 85.89,26.33 87.74,22.89 89.58,19.38 91.88,16.13 93.02,14.51 94.31,12.96 95.85,11.66 97.38,10.37 99.22,9.38 101.22,9.04 103.21,8.76 105.22,8.86 107.16,9.3 109.09,9.77 110.97,10.57 112.44,11.91 L 112.37,11.98 Z M 112.37,11.98" />
            </g>
            <g id="kazSlowSide02-group234">
                <path id="kazSlowSide02-bezier316" stroke="none" fill="rgb(0, 0, 0)" d="M 110.88,14.23 C 110.84,14.97 110.73,15.72 110.54,16.44 110.35,17.16 110.08,17.9 109.54,18.48 109.27,18.77 108.91,19 108.51,19.07 108.11,19.14 107.74,19.13 107.36,19.14 L 105.14,19.16 C 103.66,19.19 102.19,19.29 100.78,19.62 99.39,19.95 98.01,20.54 97.19,21.63 96.78,22.17 96.54,22.81 96.45,23.48 96.38,24.15 96.35,24.96 96.23,25.7 96.02,27.2 95.64,28.67 95.12,30.1 94.56,31.51 93.9,32.88 93.01,34.12 92.13,35.32 91.04,36.58 89.51,36.93 L 89.48,36.83 C 90.17,36.56 90.71,36.06 91.18,35.52 91.66,34.98 92.07,34.38 92.43,33.75 93.15,32.49 93.74,31.15 94.17,29.76 94.64,28.39 94.99,26.97 95.25,25.54 95.4,24.82 95.45,24.14 95.57,23.34 95.71,22.55 96.04,21.77 96.56,21.14 97.61,19.85 99.17,19.28 100.64,18.98 102.14,18.69 103.65,18.64 105.14,18.66 L 107.37,18.74 C 107.73,18.75 108.11,18.77 108.45,18.72 108.78,18.68 109.08,18.51 109.33,18.27 109.83,17.78 110.13,17.08 110.35,16.39 110.57,15.69 110.7,14.95 110.78,14.22 L 110.88,14.23 Z M 110.88,14.23" />
            </g>
            <g id="kazSlowSide02-group235">
                <path id="kazSlowSide02-bezier317" stroke="none" fill="rgb(0, 0, 0)" d="M 100.97,24.65 C 100.35,24.54 99.7,24.55 99.12,24.72 98.53,24.89 98.04,25.28 97.81,25.81 97.57,26.34 97.55,26.94 97.59,27.56 L 97.67,29.5 C 97.71,30.79 97.76,32.1 97.52,33.4 97.39,34.04 97.22,34.69 96.94,35.31 96.67,35.92 96.28,36.55 95.67,36.87 L 95.61,36.8 C 96.32,35.75 96.38,34.48 96.52,33.26 96.63,32.02 96.8,30.76 96.87,29.48 L 96.94,27.57 C 96.95,26.93 97.02,26.2 97.37,25.58 97.72,24.95 98.38,24.54 99.04,24.43 99.71,24.31 100.37,24.37 101,24.55 L 100.97,24.65 Z M 100.97,24.65" />
            </g>
            <g id="kazSlowSide02-group236">
                <path id="kazSlowSide02-bezier318" stroke="none" fill="rgb(0, 0, 0)" d="M 102.68,15.84 C 100.84,15.88 99,16.35 97.42,17.23 95.83,18.1 94.57,19.48 93.88,21.11 93.53,21.93 93.32,22.78 93.19,23.69 93.03,24.62 92.82,25.53 92.56,26.44 92.28,27.34 91.97,28.24 91.49,29.08 91.24,29.5 90.97,29.92 90.58,30.26 90.39,30.42 90.15,30.56 89.91,30.63 89.67,30.7 89.43,30.7 89.23,30.77 L 89.18,30.69 C 89.38,30.53 89.62,30.47 89.8,30.36 89.98,30.25 90.13,30.11 90.26,29.94 90.52,29.61 90.7,29.2 90.86,28.79 91.16,27.95 91.39,27.06 91.59,26.18 L 92.22,23.5 C 92.42,22.58 92.71,21.63 93.15,20.77 94,19.02 95.47,17.6 97.19,16.79 98.92,15.98 100.82,15.65 102.69,15.74 L 102.68,15.84 Z M 102.68,15.84" />
            </g>
            <g id="kazSlowSide02-group237">
                <path id="kazSlowSide02-bezier319" stroke="none" fill="rgb(0, 0, 0)" d="M 64.23,47.52 C 63.92,47.88 63.62,48.24 63.34,48.58 63.2,48.75 63.13,48.99 62.96,49.07 62.87,49.12 62.79,49.16 62.69,49.19 62.6,49.23 62.48,49.2 62.38,49.33 L 62.28,49.37 C 62.09,49.28 62.05,49.01 62.07,48.85 62.08,48.68 62.14,48.54 62.21,48.41 62.34,48.16 62.62,48.08 62.83,47.96 63.26,47.73 63.71,47.56 64.18,47.43 L 64.23,47.52 Z M 64.23,47.52" />
            </g>
        </g>
        <path id="kazSlowSide02-bezier378" stroke="rgb(0, 0, 0)" stroke-width="2" stroke-miterlimit="10" fill="none" d="M 71.72,129 L 85.67,119.07" />
    </g>
</svg>
