<?xml version="1.0" encoding="UTF-8"?>
<!DOCTYPE svg PUBLIC "-//W3C//DTD SVG 1.1//EN" "http://www.w3.org/Graphics/SVG/1.1/DTD/svg11.dtd">
<svg version="1.1" xmlns="http://www.w3.org/2000/svg" xmlns:xlink="http://www.w3.org/1999/xlink" width="160" height="160"  xml:space="preserve" id="kazSlowSide03">
    <!-- Generated by PaintCode - http://www.paintcodeapp.com -->
    <g id="kazSlowSide03-group">
        <circle id="kazSlowSide03-oval7" stroke="rgb(0, 0, 0)" stroke-width="2" stroke-miterlimit="10" fill="none" cx="126.88" cy="120" r="29" />
        <path id="kazSlowSide03-bezier97" stroke="rgb(0, 0, 0)" stroke-width="2" stroke-miterlimit="10" fill="none" d="M 56.3,137.53 C 51.01,144.5 42.63,149 33.21,149 17.19,149 4.21,136.01 4.21,120 4.21,103.98 17.19,91 33.21,91 40.8,91 47.71,93.91 52.87,98.68" />
        <path id="kazSlowSide03-bezier98" stroke="rgb(0, 0, 0)" stroke-width="2" stroke-miterlimit="10" fill="none" d="M 60.34,109.72 C 61.54,112.92 62.21,116.38 62.21,119.99 62.21,123.61 61.54,127.08 60.33,130.27" />
        <circle id="kazSlowSide03-oval8" stroke="rgb(0, 0, 0)" stroke-width="2" stroke-miterlimit="10" fill="none" cx="71.71" cy="127" r="8.33" />
        <circle id="kazSlowSide03-oval9" stroke="rgb(0, 0, 0)" stroke-width="2" stroke-miterlimit="10" fill="none" cx="33.21" cy="120" r="2.5" />
        <path id="kazSlowSide03-bezier99" stroke="rgb(0, 0, 0)" stroke-width="2" stroke-miterlimit="10" fill="none" d="M 53.51,123.69 L 71.71,127" />
        <path id="kazSlowSide03-bezier100" stroke="rgb(0, 0, 0)" stroke-width="2" stroke-miterlimit="10" fill="none" d="M 53.05,78.08 L 33.21,120 46.19,122.36" />
        <path id="kazSlowSide03-bezier101" stroke="rgb(0, 0, 0)" stroke-width="2" stroke-miterlimit="10" fill="none" d="M 105.54,72.83 L 69,72.83" />
        <path id="kazSlowSide03-bezier102" stroke="rgb(0, 0, 0)" stroke-width="2" stroke-miterlimit="10" fill="none" d="M 112.34,75.5 L 126.88,120" />
        <path id="kazSlowSide03-bezier103" stroke="rgb(0, 0, 0)" stroke-width="2" stroke-miterlimit="10" fill="none" d="M 114.54,82.22 L 78.71,117.49" />
        <path id="kazSlowSide03-bezier104" stroke="rgb(0, 0, 0)" stroke-width="2" stroke-miterlimit="10" fill="none" d="M 68.38,116 L 64.44,102" />
        <path id="kazSlowSide03-bezier105" stroke="rgb(0, 0, 0)" stroke-width="2" stroke-miterlimit="10" fill="none" d="M 43.42,62.65 C 42.43,62.51 41.66,62.25 41.21,61.83 38.38,59.16 34.88,57.5 41.21,57.5" />
        <path id="kazSlowSide03-bezier106" stroke="rgb(0, 0, 0)" stroke-width="1" stroke-miterlimit="10" fill="none" d="M 47,118.66 L 37.27,118.66" />
        <path id="kazSlowSide03-bezier107" stroke="rgb(0, 0, 0)" stroke-width="1" stroke-miterlimit="10" fill="none" d="M 66.65,118.66 L 56.56,118.66" />
        <path id="kazSlowSide03-bezier108" stroke="rgb(0, 0, 0)" stroke-width="1" stroke-miterlimit="10" fill="none" d="M 35.21,123.5 L 43.85,126.42" />
        <path id="kazSlowSide03-bezier109" stroke="rgb(0, 0, 0)" stroke-width="2" stroke-miterlimit="10" fill="none" d="M 124.96,77.79 C 124.96,77.79 129.12,76.75 129.12,71.25 129.12,65.75 125.29,62.33 118.46,62.33 111.62,62.33 110,62.33 110,62.33" />
        <path id="kazSlowSide03-bezier110" stroke="rgb(0, 0, 0)" stroke-width="2" stroke-miterlimit="10" fill="none" d="M 81.48,117.07 L 89.31,117.07" />
        <path id="kazSlowSide03-bezier111" stroke="rgb(0, 0, 0)" stroke-width="2" stroke-miterlimit="10" fill="none" d="M 50.82,135.64 L 58.65,135.64" />
        <g id="kazSlowSide03-group71">
            <g id="kazSlowSide03-group72">
                <path id="kazSlowSide03-bezier112" stroke="none" fill="rgb(0, 0, 0)" d="M 120.94,75.63 C 121.61,76.41 122.28,77.18 122.97,77.91 123.31,78.28 123.73,78.57 124.01,78.96 124.32,79.34 124.52,79.75 124.91,80.08 L 124.91,80.18 C 124.61,80.3 124.27,80.22 124.01,80.1 123.74,79.99 123.51,79.83 123.3,79.67 122.86,79.33 122.62,78.84 122.34,78.41 121.77,77.53 121.28,76.62 120.86,75.68 L 120.94,75.63 Z M 120.94,75.63" />
            </g>
            <g id="kazSlowSide03-group73">
                <path id="kazSlowSide03-bezier113" stroke="none" fill="rgb(0, 0, 0)" d="M 125.94,80.27 C 124.68,81.33 123.34,82.32 121.82,83.04 121.06,83.36 120.22,83.69 119.3,83.48 118.43,83.25 117.75,82.61 117.24,81.94 116.23,80.56 115.66,78.96 115.06,77.43 L 115.01,77.31 C 114.99,77.26 114.97,77.2 114.95,77.18 114.92,77.13 114.86,77.05 114.8,76.98 114.69,76.83 114.55,76.69 114.41,76.55 114.13,76.26 113.83,75.99 113.53,75.72 112.91,75.19 112.27,74.67 111.63,74.17 109.03,72.16 106.29,70.33 103.62,68.4 102.29,67.43 100.94,66.49 99.6,65.54 98.93,65.06 98.25,64.59 97.57,64.14 96.89,63.67 96.2,63.21 95.48,62.84 L 95.51,62.75 C 97.11,63.27 98.53,64.14 99.97,64.95 101.41,65.78 102.8,66.68 104.19,67.58 106.95,69.41 109.57,71.43 112.13,73.55 112.77,74.08 113.4,74.62 114.01,75.18 114.32,75.47 114.62,75.76 114.91,76.07 115.06,76.23 115.2,76.39 115.33,76.57 115.4,76.67 115.46,76.75 115.54,76.88 115.58,76.95 115.58,76.99 115.61,77.04 L 115.67,77.2 C 116.22,78.76 116.73,80.33 117.64,81.65 118.09,82.29 118.67,82.87 119.41,83.09 120.13,83.3 120.96,83.06 121.7,82.76 123.2,82.13 124.58,81.2 125.88,80.19 L 125.94,80.27 Z M 125.94,80.27" />
            </g>
            <g id="kazSlowSide03-group74">
                <path id="kazSlowSide03-bezier114" stroke="none" fill="rgb(0, 0, 0)" d="M 94.19,61.87 C 93.39,61.56 92.61,60.85 92.56,59.88 92.46,59.06 92.2,58.21 91.99,57.38 91.56,55.7 91.09,54.03 90.62,52.36 90.14,50.7 89.59,49.05 89.2,47.36 88.8,45.68 88.49,43.96 88.17,42.27 L 88.25,42.22 C 88.72,43 89,43.82 89.32,44.63 89.64,45.44 89.9,46.27 90.16,47.1 90.68,48.76 91.01,50.47 91.39,52.17 91.77,53.86 92.14,55.56 92.48,57.27 92.63,58.13 92.82,58.96 92.86,59.87 92.83,60.69 93.47,61.42 94.23,61.78 L 94.19,61.87 Z M 94.19,61.87" />
            </g>
            <g id="kazSlowSide03-group75">
                <path id="kazSlowSide03-bezier115" stroke="none" fill="rgb(0, 0, 0)" d="M 87.13,41.66 C 88.7,40.68 90.4,39.89 92.2,39.34 93.09,39.07 94.01,38.83 94.95,38.69 95.89,38.54 96.86,38.61 97.8,38.81 L 97.4,39.23 C 97.38,38.7 97.32,38.13 97.28,37.56 L 97.38,37.52 C 97.69,38.02 97.96,38.53 98.12,39.11 L 98.24,39.52 97.72,39.53 C 96.83,39.56 95.95,39.64 95.06,39.7 94.16,39.75 93.26,39.85 92.38,40.04 90.61,40.43 88.85,40.99 87.18,41.75 L 87.13,41.66 Z M 87.13,41.66" />
            </g>
            <g id="kazSlowSide03-group76">
                <path id="kazSlowSide03-bezier116" stroke="none" fill="rgb(0, 0, 0)" d="M 97.39,40.71 C 98.17,43.18 98.78,45.71 99.21,48.28 99.44,49.56 99.68,50.85 99.69,52.16 99.69,53.47 99.6,54.79 99.25,56.07 L 99.15,56.06 C 98.95,54.76 98.83,53.49 98.69,52.22 98.55,50.95 98.53,49.66 98.42,48.38 98.16,45.83 97.79,43.27 97.29,40.74 L 97.39,40.71 Z M 97.39,40.71" />
            </g>
            <g id="kazSlowSide03-group77">
                <path id="kazSlowSide03-bezier117" stroke="none" fill="rgb(0, 0, 0)" d="M 99.93,56.72 C 102.47,57.56 104.73,59.27 106.34,61.42 108.04,63.44 109.94,65.32 111.85,67.16 113.77,68.99 115.76,70.76 117.75,72.48 118.24,72.91 118.75,73.34 119.26,73.66 119.71,73.93 120.36,73.98 121.01,74.05 121.66,74.11 122.4,74.17 123.05,74.51 123.68,74.85 124.16,75.38 124.51,75.96 L 124.43,76.02 C 123.97,75.54 123.46,75.12 122.86,74.93 122.28,74.71 121.65,74.73 120.99,74.75 120.32,74.77 119.58,74.77 118.84,74.42 118.19,74.07 117.66,73.66 117.12,73.26 114.99,71.59 113.14,69.65 111.28,67.73 109.43,65.8 107.6,63.85 105.95,61.73 104.47,59.54 102.37,57.78 99.9,56.81 L 99.93,56.72 Z M 99.93,56.72" />
            </g>
            <g id="kazSlowSide03-group78">
                <path id="kazSlowSide03-bezier118" stroke="none" fill="rgb(0, 0, 0)" d="M 100.85,29.61 C 101.56,30.61 102.49,31.44 103.52,32.05 104.55,32.68 105.67,33.03 106.88,33.16 108.08,33.34 109.3,33.37 110.44,33.36 111.57,33.34 112.74,33.1 113.02,31.79 L 113.12,31.8 C 113.27,32.41 113.04,33.22 112.43,33.65 111.86,34.11 111.17,34.27 110.52,34.36 109.2,34.52 107.95,34.21 106.74,33.95 105.51,33.71 104.25,33.22 103.24,32.47 102.23,31.7 101.38,30.75 100.77,29.66 L 100.85,29.61 Z M 100.85,29.61" />
            </g>
            <g id="kazSlowSide03-group79">
                <path id="kazSlowSide03-bezier119" stroke="none" fill="rgb(0, 0, 0)" d="M 112.95,28.68 C 113.58,28.53 114.24,28.29 114.66,27.85 114.87,27.63 114.97,27.35 114.92,27.08 114.89,26.82 114.71,26.54 114.56,26.23 113.98,25.02 113.42,23.8 113,22.5 112.8,21.84 112.59,21.18 112.6,20.39 112.65,19.74 112.59,19.18 112.47,18.56 112.22,17.37 111.83,16.08 110.69,15.41 L 110.71,15.31 C 111.43,15.36 112.06,15.86 112.5,16.42 112.95,16.98 113.24,17.65 113.44,18.33 113.53,18.67 113.59,19.03 113.63,19.39 113.65,19.57 113.64,19.75 113.64,19.94 113.63,20.12 113.59,20.35 113.59,20.46 113.52,21 113.64,21.66 113.77,22.28 114.07,23.55 114.53,24.79 115.01,26.02 115.12,26.33 115.29,26.64 115.32,27.04 115.36,27.44 115.15,27.83 114.87,28.06 114.31,28.53 113.63,28.69 112.97,28.78 L 112.95,28.68 Z M 112.95,28.68" />
            </g>
            <g id="kazSlowSide03-group80">
                <path id="kazSlowSide03-bezier120" stroke="none" fill="rgb(0, 0, 0)" d="M 104.3,27 C 103.76,26.6 103.26,26.13 102.84,25.57 102.63,25.3 102.35,25.02 102.31,24.62 102.26,24.25 102.33,23.73 102.74,23.5 L 102.83,23.54 C 102.98,23.92 103.14,24.09 103.27,24.34 103.41,24.57 103.42,24.89 103.54,25.18 103.77,25.76 104.06,26.35 104.38,26.93 L 104.3,27 Z M 104.3,27" />
            </g>
            <g id="kazSlowSide03-group81">
                <path id="kazSlowSide03-bezier121" stroke="none" fill="rgb(0, 0, 0)" d="M 97.11,34.15 C 97.9,33.74 98.71,33.39 99.56,33.11 99.99,32.97 100.41,32.76 100.88,32.78 101.33,32.8 101.87,32.87 102.25,33.26 L 102.22,33.36 C 101.76,33.52 101.4,33.67 100.99,33.77 100.6,33.89 100.16,33.84 99.73,33.89 98.88,33.99 98.01,34.11 97.14,34.24 L 97.11,34.15 Z M 97.11,34.15" />
            </g>
            <g id="kazSlowSide03-group82">
                <path id="kazSlowSide03-bezier122" stroke="none" fill="rgb(0, 0, 0)" d="M 85.17,25.61 L 81.94,25.74 C 80.87,25.79 79.8,25.83 78.74,26 76.62,26.31 74.52,26.74 72.45,27.29 70.38,27.81 68.36,28.55 66.3,29.13 64.22,29.65 62.1,30.32 59.89,30.18 L 59.88,30.08 C 60.94,29.87 61.94,29.53 62.95,29.18 63.97,28.85 64.98,28.47 66,28.15 68.06,27.5 70.17,27.03 72.29,26.57 74.4,26.13 76.54,25.78 78.7,25.63 80.87,25.47 83.02,25.53 85.17,25.51 L 85.17,25.61 Z M 85.17,25.61" />
            </g>
            <g id="kazSlowSide03-group83">
                <path id="kazSlowSide03-bezier123" stroke="none" fill="rgb(0, 0, 0)" d="M 59.15,30.92 C 60.49,33.29 61.76,35.7 62.91,38.18 63.48,39.42 64.02,40.68 64.49,41.97 64.96,43.26 65.4,44.57 65.56,46 L 64.93,45.64 C 66.94,44.6 69,43.66 71.17,43 72.26,42.68 73.35,42.37 74.49,42.21 75.61,42.05 76.79,41.96 77.89,42.27 L 77.88,42.37 C 76.76,42.32 75.68,42.57 74.62,42.85 73.56,43.16 72.51,43.49 71.47,43.9 69.41,44.69 67.34,45.51 65.32,46.43 L 64.73,46.69 64.69,46.07 C 64.61,44.79 64.24,43.47 63.83,42.19 63.42,40.91 62.94,39.64 62.42,38.39 61.4,35.88 60.28,33.4 59.06,30.97 L 59.15,30.92 Z M 59.15,30.92" />
            </g>
            <g id="kazSlowSide03-group84">
                <path id="kazSlowSide03-bezier124" stroke="none" fill="rgb(0, 0, 0)" d="M 79.73,42.98 C 80.22,43.29 80.76,43.5 81.3,43.65 81.84,43.82 82.39,43.92 82.94,43.94 83.5,43.97 84.03,43.85 84.57,43.86 85.12,43.86 85.67,43.84 86.31,43.9 L 86.34,43.99 C 85.88,44.45 85.3,44.71 84.69,44.85 84.07,45 83.43,44.86 82.83,44.73 81.63,44.47 80.51,43.9 79.66,43.06 L 79.73,42.98 Z M 79.73,42.98" />
            </g>
            <g id="kazSlowSide03-group85">
                <path id="kazSlowSide03-bezier125" stroke="none" fill="rgb(0, 0, 0)" d="M 58.61,33.08 C 57.25,34.04 55.83,34.92 54.35,35.69 53.61,36.08 52.87,36.53 52.04,36.73 51.22,36.93 50.31,37.08 49.45,36.77 L 49.46,36.67 C 50.27,36.42 50.97,36.09 51.72,35.78 52.45,35.46 53.25,35.27 54.02,34.97 55.54,34.37 57.06,33.7 58.56,32.99 L 58.61,33.08 Z M 58.61,33.08" />
            </g>
            <g id="kazSlowSide03-group86">
                <path id="kazSlowSide03-bezier126" stroke="none" fill="rgb(0, 0, 0)" d="M 42.49,56.12 C 41.42,54.66 40.62,52.98 40.19,51.2 39.98,50.31 39.82,49.4 39.84,48.46 39.85,47.54 40.02,46.61 40.3,45.73 40.86,43.96 41.85,42.36 43.01,40.93 44.18,39.5 45.49,38.22 46.98,37.1 L 47.26,36.89 47.52,37.18 C 48.5,38.29 49.75,39.25 51.05,40 51.71,40.38 52.39,40.72 53.1,41 L 54.18,41.41 C 54.56,41.56 54.95,41.74 55.3,41.93 56.75,42.68 58,43.7 59.18,44.76 60.36,45.83 61.41,47.01 62.39,48.26 L 62.5,48.4 62.42,48.53 C 62.08,49.07 61.71,49.58 61.31,50.06 60.9,50.53 60.46,51.02 59.85,51.27 L 59.81,51.18 C 60.34,50.88 60.71,50.37 61.06,49.88 61.41,49.37 61.72,48.83 61.99,48.3 L 62.02,48.57 C 60.96,47.43 59.8,46.39 58.62,45.4 57.43,44.41 56.17,43.53 54.83,42.84 54.17,42.48 53.48,42.28 52.7,41.95 51.96,41.63 51.24,41.26 50.56,40.83 49.19,39.96 47.95,38.95 46.89,37.67 L 47.44,37.75 C 46.01,38.77 44.67,40 43.51,41.35 42.35,42.7 41.36,44.21 40.77,45.89 40.47,46.72 40.28,47.59 40.24,48.48 40.19,49.35 40.31,50.25 40.48,51.13 40.84,52.89 41.56,54.57 42.58,56.07 L 42.49,56.12 Z M 42.49,56.12" />
            </g>
            <g id="kazSlowSide03-group87">
                <path id="kazSlowSide03-bezier127" stroke="none" fill="rgb(0, 0, 0)" d="M 78.93,74.69 C 78.57,75.68 78.25,76.68 78.07,77.7 77.9,78.7 77.95,79.77 77.92,80.81 77.87,82.91 77.83,85.01 77.75,87.12 77.67,89.22 77.61,91.33 77.28,93.42 76.9,95.49 76.56,97.65 75.42,99.5 L 75.33,99.45 C 75.91,97.45 76.09,95.37 76.29,93.3 L 76.95,87.07 C 77.13,84.98 77.27,82.89 77.42,80.79 77.52,79.74 77.53,78.69 77.77,77.64 78.03,76.6 78.42,75.62 78.84,74.66 L 78.93,74.69 Z M 78.93,74.69" />
            </g>
            <g id="kazSlowSide03-group88">
                <path id="kazSlowSide03-bezier128" stroke="none" fill="rgb(0, 0, 0)" d="M 80.28,71.58 L 80.74,70.61 C 80.86,70.29 80.96,69.93 80.91,69.63 80.88,69.48 80.83,69.43 80.68,69.38 L 80.17,69.22 79.14,68.92 C 77.77,68.5 76.4,68.11 75.01,67.76 73.63,67.41 72.23,67.16 70.86,66.8 69.48,66.44 68.13,66.09 66.71,65.77 L 66.71,65.67 C 68.17,65.44 69.64,65.59 71.07,65.82 72.5,66.06 73.87,66.55 75.24,67 76.6,67.45 77.96,67.94 79.3,68.46 L 80.3,68.86 80.8,69.07 C 81,69.12 81.22,69.38 81.2,69.59 81.23,70.43 80.72,71.01 80.37,71.62 L 80.28,71.58 Z M 80.28,71.58" />
            </g>
            <g id="kazSlowSide03-group89">
                <path id="kazSlowSide03-bezier129" stroke="none" fill="rgb(0, 0, 0)" d="M 62.3,49.69 C 67.21,50.72 72.04,52.18 76.67,54.17 78.99,55.16 81.29,56.24 83.39,57.66 85.47,59.1 87.46,60.73 89,62.74 L 88.93,62.81 C 86.99,61.21 84.99,59.76 82.85,58.5 80.73,57.22 78.59,55.97 76.34,54.9 74.09,53.83 71.78,52.88 69.43,52.04 67.08,51.19 64.7,50.43 62.28,49.79 L 62.3,49.69 Z M 62.3,49.69" />
            </g>
            <g id="kazSlowSide03-group90">
                <path id="kazSlowSide03-bezier130" stroke="none" fill="rgb(0, 0, 0)" d="M 89.38,74.67 C 89.14,75.87 88.9,77.07 88.78,78.28 88.74,78.59 88.79,78.84 88.76,79.2 88.72,79.52 88.65,79.82 88.58,80.12 88.44,80.72 88.28,81.32 88.11,81.91 87.44,84.27 86.69,86.6 85.95,88.94 L 83.75,95.96 82.64,99.45 C 82.29,100.61 81.84,101.79 81.61,102.9 L 81.49,103.5 80.99,103.22 C 80.1,102.71 79.18,102.19 78.25,101.73 77.78,101.51 77.31,101.29 76.82,101.11 76.35,100.95 75.82,100.74 75.36,100.89 L 75.3,100.8 C 75.83,100.52 76.41,100.68 76.92,100.76 77.45,100.87 77.96,101.03 78.46,101.22 79.47,101.58 80.44,101.99 81.4,102.48 L 80.78,102.79 C 80.98,101.49 81.31,100.34 81.67,99.15 82.02,97.97 82.42,96.81 82.82,95.65 L 85.29,88.72 C 86.11,86.41 86.93,84.1 87.7,81.78 87.89,81.2 88.08,80.62 88.25,80.03 88.33,79.74 88.41,79.45 88.46,79.16 88.5,78.91 88.47,78.54 88.52,78.25 88.7,77.02 88.99,75.83 89.29,74.64 L 89.38,74.67 Z M 89.38,74.67" />
            </g>
            <g id="kazSlowSide03-group91">
                <path id="kazSlowSide03-bezier131" stroke="none" fill="rgb(0, 0, 0)" d="M 90.08,71.35 L 90.29,70.2 C 90.33,70 90.37,69.83 90.33,69.63 90.32,69.43 90.32,69.23 90.32,69.03 L 90.32,69.03 90.32,69 C 90.58,68.02 90.54,67.02 90.39,66.08 90.27,65.13 90,64.19 89.55,63.23 L 89.62,63.16 C 90.58,63.74 91.17,64.81 91.41,65.91 91.61,67.04 91.35,68.18 91.01,69.2 L 91.01,69.17 C 90.93,69.35 90.87,69.53 90.77,69.71 90.67,69.89 90.61,70.09 90.55,70.27 L 90.18,71.37 90.08,71.35 Z M 90.08,71.35" />
            </g>
            <g id="kazSlowSide03-group92">
                <path id="kazSlowSide03-bezier132" stroke="none" fill="rgb(0, 0, 0)" d="M 73.6,106.74 L 74.32,104.46 C 74.44,104.09 74.47,103.69 74.66,103.36 74.84,103.02 75.08,102.74 75.31,102.38 L 75.41,102.36 C 75.74,102.8 75.66,103.29 75.61,103.69 75.53,104.11 75.25,104.44 75.05,104.79 74.64,105.49 74.19,106.15 73.69,106.79 L 73.6,106.74 Z M 73.6,106.74" />
            </g>
            <g id="kazSlowSide03-group93">
                <path id="kazSlowSide03-bezier133" stroke="none" fill="rgb(0, 0, 0)" d="M 78.56,115.18 C 77.27,114.86 75.95,114.56 74.65,114.51 73.35,114.53 71.89,114.5 70.59,113.76 69.94,113.42 69.34,112.63 69.35,111.77 69.34,110.93 69.74,110.23 70.12,109.66 70.89,108.55 71.77,107.5 72.83,106.65 L 72.91,106.71 C 72.27,107.91 71.6,109.04 70.97,110.19 70.64,110.74 70.38,111.27 70.34,111.78 70.29,112.28 70.55,112.74 71.03,113.09 71.51,113.42 72.12,113.64 72.74,113.78 73.38,113.93 73.99,113.95 74.69,114.01 76.06,114.2 77.33,114.64 78.59,115.09 L 78.56,115.18 Z M 78.56,115.18" />
            </g>
            <g id="kazSlowSide03-group94">
                <path id="kazSlowSide03-bezier134" stroke="none" fill="rgb(0, 0, 0)" d="M 74.44,107.62 C 75.01,108.07 75.63,108.44 76.24,108.69 76.56,108.82 76.89,108.81 77.16,108.96 77.44,109.09 77.72,109.22 78.11,109.44 L 78.12,109.54 C 77.8,109.87 77.34,109.96 76.93,109.93 76.5,109.9 76.16,109.61 75.85,109.38 75.22,108.92 74.73,108.34 74.36,107.69 L 74.44,107.62 Z M 74.44,107.62" />
            </g>
            <g id="kazSlowSide03-group95">
                <path id="kazSlowSide03-bezier135" stroke="none" fill="rgb(0, 0, 0)" d="M 85.92,112.38 C 86.1,112.48 86.29,112.57 86.48,112.64 86.66,112.71 86.85,112.7 87.08,112.74 87.51,112.8 87.93,112.9 88.34,113.03 89.15,113.3 89.96,113.62 90.7,114.22 90.88,114.37 91.06,114.55 91.2,114.8 91.27,114.93 91.34,115.08 91.36,115.25 91.38,115.39 91.39,115.49 91.4,115.63 91.4,115.76 91.39,115.91 91.34,116.09 91.28,116.27 91.15,116.48 90.98,116.59 90.64,116.82 90.38,116.82 90.14,116.85 89.21,116.87 88.41,116.72 87.56,116.46 L 87.56,116.36 C 88.39,116.07 89.28,116 90.02,115.86 90.19,115.83 90.36,115.77 90.37,115.75 90.35,115.77 90.39,115.78 90.41,115.6 90.42,115.53 90.43,115.42 90.43,115.35 90.44,115.31 90.43,115.25 90.41,115.19 90.36,115.07 90.26,114.93 90.14,114.8 89.63,114.26 88.89,113.84 88.16,113.49 87.79,113.32 87.41,113.15 87.01,113.03 86.84,112.97 86.6,112.94 86.4,112.82 86.21,112.72 86.03,112.59 85.87,112.46 L 85.92,112.38 Z M 85.92,112.38" />
            </g>
            <g id="kazSlowSide03-group96">
                <path id="kazSlowSide03-bezier136" stroke="none" fill="rgb(0, 0, 0)" d="M 79.69,108.56 C 79.95,108.21 80.24,107.87 80.74,107.71 80.99,107.63 81.33,107.68 81.57,107.86 81.82,108.07 81.9,108.17 82.07,108.31 82.37,108.59 82.75,108.8 82.97,109.14 83.21,109.48 83.42,109.85 83.53,110.34 L 83.46,110.41 C 82.97,110.31 82.59,110.09 82.25,109.84 81.91,109.58 81.72,109.19 81.47,108.84 L 81.15,108.36 C 81.07,108.26 80.97,108.2 80.81,108.2 80.49,108.18 80.09,108.39 79.77,108.62 L 79.69,108.56 Z M 79.69,108.56" />
            </g>
            <g id="kazSlowSide03-group97">
                <path id="kazSlowSide03-bezier137" stroke="none" fill="rgb(0, 0, 0)" d="M 78.77,108.19 C 78.7,107.62 78.68,107.06 78.74,106.49 78.76,106.2 78.72,105.88 78.9,105.61 79,105.48 79.1,105.35 79.26,105.24 79.39,105.14 79.65,105.02 79.85,105.13 L 79.87,105.23 C 79.79,105.53 79.89,105.74 79.83,105.99 79.81,106.23 79.62,106.43 79.51,106.68 79.3,107.17 79.09,107.68 78.87,108.2 L 78.77,108.19 Z M 78.77,108.19" />
            </g>
            <g id="kazSlowSide03-group98">
                <path id="kazSlowSide03-bezier138" stroke="none" fill="rgb(0, 0, 0)" d="M 52.44,126.96 C 53.54,128.05 54.79,129.02 56.19,129.61 56.87,129.9 57.65,130.02 58.4,130.23 59.16,130.42 59.92,130.63 60.68,130.87 61.43,131.12 62.19,131.38 62.93,131.78 63.29,132 63.67,132.23 63.99,132.67 64.14,132.9 64.26,133.18 64.24,133.55 64.24,133.6 64.2,133.86 64.13,133.99 64.07,134.14 63.97,134.27 63.87,134.37 63.45,134.77 63,134.88 62.59,134.98 62.17,135.06 61.76,135.1 61.36,135.09 60.55,135.1 59.76,135.01 58.99,134.86 L 58.99,134.76 C 59.77,134.62 60.54,134.55 61.29,134.4 61.66,134.32 62.03,134.25 62.36,134.13 62.69,134.02 63.02,133.86 63.14,133.69 63.17,133.65 63.2,133.62 63.2,133.59 63.22,133.54 63.21,133.61 63.22,133.47 63.22,133.45 63.2,133.34 63.13,133.25 62.99,133.05 62.72,132.82 62.42,132.63 61.82,132.23 61.12,131.92 60.41,131.63 59.69,131.35 58.96,131.1 58.22,130.85 57.49,130.6 56.72,130.43 55.98,130.06 54.55,129.31 53.38,128.22 52.36,127.03 L 52.44,126.96 Z M 52.44,126.96" />
            </g>
            <g id="kazSlowSide03-group99">
                <path id="kazSlowSide03-bezier139" stroke="none" fill="rgb(0, 0, 0)" d="M 50.12,134.52 C 48.89,134.31 47.64,134.17 46.4,134.11 45.78,134.06 45.19,134.12 44.5,134.04 43.84,133.95 43.08,133.69 42.64,133 42.2,132.31 42.26,131.48 42.45,130.82 42.63,130.22 42.82,129.63 43.04,129.04 43.28,128.45 43.52,127.85 43.87,127.29 44.04,127.01 44.22,126.74 44.46,126.48 44.69,126.26 45.01,125.98 45.38,126.05 L 45.38,126.15 C 45.11,126.24 44.95,126.49 44.83,126.75 44.69,127.01 44.59,127.29 44.5,127.58 44.32,128.16 44.15,128.75 43.99,129.35 43.81,129.94 43.63,130.56 43.39,131.14 43.18,131.64 43.12,132.18 43.33,132.59 43.53,133.01 44.05,133.28 44.61,133.4 45.16,133.51 45.83,133.51 46.45,133.61 47.71,133.8 48.93,134.08 50.15,134.42 L 50.12,134.52 Z M 50.12,134.52" />
            </g>
            <g id="kazSlowSide03-group100">
                <path id="kazSlowSide03-bezier140" stroke="none" fill="rgb(0, 0, 0)" d="M 53.69,122.55 L 50.36,121.72 48.69,121.33 C 48.14,121.21 47.56,121.07 47.04,121.02 L 46.78,120.99 46.88,120.75 C 47.88,118.28 48.86,115.8 49.77,113.29 50.22,112.04 50.68,110.78 51.06,109.52 51.44,108.25 51.74,106.96 52.03,105.66 52.59,103.06 53.07,100.42 53.89,97.84 54.29,96.56 54.75,95.26 55.44,94.07 56.1,92.89 57.06,91.75 58.36,91.28 L 58.4,91.37 C 57.24,92.04 56.52,93.18 55.98,94.35 55.46,95.55 55.08,96.81 54.76,98.09 54.14,100.66 53.62,103.28 52.93,105.88 52.6,107.18 52.23,108.47 51.8,109.75 51.37,111.04 50.88,112.28 50.39,113.53 49.39,116.01 48.34,118.47 47.23,120.91 L 47.06,120.64 C 47.67,120.72 48.21,120.88 48.77,121.02 L 50.42,121.48 53.72,122.45 53.69,122.55 Z M 53.69,122.55" />
            </g>
            <g id="kazSlowSide03-group101">
                <path id="kazSlowSide03-bezier141" stroke="none" fill="rgb(0, 0, 0)" d="M 57.92,88.92 C 57.26,86.13 56.47,83.36 55.4,80.72 54.85,79.42 54.26,78.08 53.36,77.07 53.14,76.81 52.89,76.68 52.57,76.38 52.29,76.11 52.05,75.83 51.81,75.55 51.34,74.98 50.92,74.4 50.5,73.8 48.86,71.41 47.35,68.95 46.04,66.39 45.4,65.09 44.76,63.81 44.18,62.49 43.62,61.15 43,59.86 42.67,58.42 L 42.77,58.41 C 43.03,59.04 43.41,59.68 43.76,60.3 L 44.81,62.17 46.92,65.92 C 48.34,68.4 49.64,70.95 51.17,73.36 51.55,73.96 51.95,74.54 52.38,75.1 52.59,75.38 52.81,75.64 53.05,75.88 53.24,76.09 53.61,76.34 53.85,76.64 54.82,77.82 55.35,79.19 55.86,80.54 56.82,83.27 57.48,86.08 58.02,88.9 L 57.92,88.92 Z M 57.92,88.92" />
            </g>
            <g id="kazSlowSide03-group102">
                <path id="kazSlowSide03-bezier142" stroke="none" fill="rgb(0, 0, 0)" d="M 60.6,52.01 C 62.03,54.62 63.21,57.35 64.29,60.12 65.34,62.9 66.25,65.73 67.03,68.6 67.81,71.47 68.52,74.38 68.92,77.33 69.29,80.29 69.54,83.26 69.43,86.24 L 69.33,86.25 C 68.86,83.31 68.48,80.39 67.93,77.49 67.41,74.59 66.93,71.68 66.25,68.8 65.58,65.93 64.77,63.08 63.82,60.29 62.87,57.49 61.82,54.71 60.51,52.06 L 60.6,52.01 Z M 60.6,52.01" />
            </g>
            <g id="kazSlowSide03-group103">
                <path id="kazSlowSide03-bezier143" stroke="none" fill="rgb(0, 0, 0)" d="M 69.89,86.99 C 70.13,88.09 70.1,89.25 69.79,90.37 69.63,90.92 69.48,91.52 69.09,91.97 68.7,92.43 68.22,92.8 67.63,92.97 L 67.56,92.89 C 67.78,92.32 68.03,91.88 68.26,91.42 68.48,90.96 68.82,90.57 69.04,90.1 69.26,89.63 69.43,89.12 69.56,88.6 69.69,88.09 69.78,87.55 69.79,87 L 69.89,86.99 Z M 69.89,86.99" />
            </g>
            <g id="kazSlowSide03-group104">
                <path id="kazSlowSide03-bezier144" stroke="none" fill="rgb(0, 0, 0)" d="M 66.69,94.43 L 63.74,101.55 62.21,105.09 61.4,106.85 C 61.26,107.14 61.13,107.43 60.96,107.73 60.83,107.94 60.79,107.98 60.71,108.14 L 60.5,108.55 C 59.39,110.84 58.43,113.23 57.33,115.54 L 55.68,119.01 C 55.14,120.17 54.56,121.32 54.1,122.51 L 54,122.49 C 54.46,119.91 55.49,117.54 56.42,115.14 57.41,112.76 58.56,110.47 59.79,108.18 L 60.03,107.75 C 60.1,107.62 60.26,107.41 60.3,107.34 60.46,107.09 60.61,106.8 60.75,106.53 L 61.62,104.81 63.29,101.35 66.6,94.39 66.69,94.43 Z M 66.69,94.43" />
            </g>
            <g id="kazSlowSide03-group105">
                <path id="kazSlowSide03-bezier145" stroke="none" fill="rgb(0, 0, 0)" d="M 52.76,123.06 C 52.64,123.76 52.5,124.45 52.35,125.13 52.28,125.47 52.29,125.83 52.12,126.13 51.95,126.44 51.75,126.71 51.43,127 L 51.33,126.99 C 51.1,126.58 51.12,126.19 51.16,125.83 51.2,125.47 51.44,125.17 51.6,124.86 51.92,124.23 52.28,123.61 52.67,123.02 L 52.76,123.06 Z M 52.76,123.06" />
            </g>
            <g id="kazSlowSide03-group106">
                <path id="kazSlowSide03-bezier146" stroke="none" fill="rgb(0, 0, 0)" d="M 47.68,121.86 C 47.6,122.63 47.49,123.38 47.33,124.13 47.25,124.5 47.25,124.9 47.05,125.24 46.85,125.57 46.61,125.91 46.18,126.12 L 46.09,126.07 C 46.02,125.63 46.04,125.26 46.11,124.89 46.17,124.52 46.41,124.21 46.57,123.87 46.89,123.19 47.23,122.51 47.59,121.83 L 47.68,121.86 Z M 47.68,121.86" />
            </g>
            <g id="kazSlowSide03-group107">
                <path id="kazSlowSide03-bezier147" stroke="none" fill="rgb(0, 0, 0)" d="M 46.15,127.15 C 47.04,127.24 47.93,127.32 48.8,127.38 49.24,127.41 49.68,127.33 50.09,127.43 50.51,127.52 50.89,127.64 51.37,127.8 L 51.4,127.9 C 51.01,128.29 50.49,128.39 50.03,128.43 49.55,128.47 49.11,128.28 48.67,128.17 47.79,127.93 46.94,127.62 46.12,127.24 L 46.15,127.15 Z M 46.15,127.15" />
            </g>
            <g id="kazSlowSide03-group108">
                <path id="kazSlowSide03-bezier148" stroke="none" fill="rgb(0, 0, 0)" d="M 111.33,13.98 C 109.84,12.72 107.96,11.98 106.06,11.6 104.16,11.23 102.16,11.2 100.27,11.54 98.39,11.9 96.67,12.89 95.23,14.16 93.79,15.44 92.58,16.97 91.5,18.58 89.33,21.83 87.71,25.41 85.72,28.82 84.7,30.51 83.67,32.23 82.32,33.73 81.64,34.46 80.88,35.16 79.99,35.66 79.09,36.15 78.04,36.39 77.05,36.21 L 77.06,36.11 C 78.04,36.13 78.98,35.82 79.75,35.27 80.54,34.74 81.2,34.03 81.79,33.28 82.96,31.75 83.93,30.06 84.85,28.33 86.71,24.89 88.54,21.38 90.84,18.13 91.99,16.51 93.27,14.96 94.81,13.66 96.34,12.37 98.18,11.38 100.19,11.04 102.18,10.76 104.19,10.86 106.13,11.3 108.05,11.77 109.93,12.57 111.4,13.91 L 111.33,13.98 Z M 111.33,13.98" />
            </g>
            <g id="kazSlowSide03-group109">
                <path id="kazSlowSide03-bezier149" stroke="none" fill="rgb(0, 0, 0)" d="M 109.84,16.23 C 109.8,16.97 109.69,17.72 109.5,18.44 109.31,19.16 109.04,19.9 108.5,20.48 108.23,20.77 107.87,21 107.47,21.07 107.07,21.14 106.7,21.13 106.32,21.14 L 104.1,21.16 C 102.62,21.19 101.15,21.29 99.74,21.62 98.35,21.95 96.97,22.54 96.15,23.63 95.74,24.17 95.5,24.81 95.41,25.48 95.34,26.15 95.31,26.96 95.19,27.7 94.98,29.2 94.6,30.67 94.08,32.1 93.52,33.51 92.86,34.88 91.97,36.12 91.09,37.32 90,38.58 88.47,38.93 L 88.44,38.83 C 89.13,38.56 89.67,38.06 90.14,37.52 90.62,36.98 91.03,36.38 91.39,35.75 92.11,34.49 92.7,33.15 93.13,31.76 93.6,30.39 93.95,28.97 94.21,27.54 94.36,26.82 94.41,26.14 94.53,25.34 94.67,24.55 95,23.77 95.52,23.14 96.57,21.85 98.13,21.28 99.6,20.98 101.1,20.69 102.61,20.64 104.1,20.66 L 106.33,20.74 C 106.69,20.75 107.07,20.77 107.41,20.72 107.74,20.68 108.04,20.51 108.29,20.27 108.79,19.78 109.09,19.08 109.31,18.39 109.53,17.69 109.66,16.95 109.74,16.22 L 109.84,16.23 Z M 109.84,16.23" />
            </g>
            <g id="kazSlowSide03-group110">
                <path id="kazSlowSide03-bezier150" stroke="none" fill="rgb(0, 0, 0)" d="M 99.93,26.65 C 99.31,26.54 98.66,26.55 98.08,26.72 97.49,26.89 97,27.28 96.77,27.81 96.53,28.34 96.51,28.94 96.55,29.56 L 96.63,31.5 C 96.67,32.79 96.73,34.1 96.48,35.4 96.35,36.04 96.19,36.69 95.9,37.31 95.63,37.92 95.24,38.55 94.63,38.87 L 94.57,38.8 C 95.28,37.75 95.34,36.48 95.49,35.26 95.59,34.02 95.76,32.76 95.83,31.48 L 95.9,29.57 C 95.91,28.93 95.98,28.2 96.33,27.58 96.68,26.95 97.34,26.54 98,26.43 98.67,26.31 99.33,26.37 99.96,26.55 L 99.93,26.65 Z M 99.93,26.65" />
            </g>
            <g id="kazSlowSide03-group111">
                <path id="kazSlowSide03-bezier151" stroke="none" fill="rgb(0, 0, 0)" d="M 101.64,17.84 C 99.8,17.88 97.96,18.35 96.38,19.23 94.79,20.1 93.53,21.48 92.84,23.11 92.49,23.93 92.28,24.78 92.15,25.69 91.99,26.62 91.78,27.53 91.52,28.44 91.24,29.34 90.93,30.24 90.45,31.08 90.2,31.5 89.93,31.92 89.55,32.26 89.35,32.42 89.12,32.56 88.87,32.63 88.63,32.7 88.39,32.7 88.19,32.77 L 88.14,32.69 C 88.34,32.53 88.58,32.47 88.76,32.36 88.94,32.25 89.09,32.11 89.22,31.94 89.48,31.61 89.66,31.2 89.82,30.79 90.12,29.95 90.35,29.06 90.55,28.18 L 91.18,25.5 C 91.38,24.58 91.67,23.63 92.12,22.77 92.97,21.02 94.43,19.6 96.15,18.79 97.88,17.98 99.78,17.65 101.65,17.74 L 101.64,17.84 Z M 101.64,17.84" />
            </g>
        </g>
    </g>
</svg>
