<?xml version="1.0" encoding="UTF-8"?>
<!DOCTYPE svg PUBLIC "-//W3C//DTD SVG 1.1//EN" "http://www.w3.org/Graphics/SVG/1.1/DTD/svg11.dtd">
<svg version="1.1" xmlns="http://www.w3.org/2000/svg" xmlns:xlink="http://www.w3.org/1999/xlink" width="160" height="60"  xml:space="preserve" id="kazSlowTop06">
    <!-- Generated by PaintCode - http://www.paintcodeapp.com -->
    <g id="kazSlowTop06-group">
        <path id="kazSlowTop06-bezier1841" stroke="rgb(0, 0, 0)" stroke-width="2" stroke-miterlimit="10" fill="none" d="M 111.56,30.26 L 156.9,30.26" />
        <path id="kazSlowTop06-bezier1842" stroke="rgb(0, 0, 0)" stroke-width="2" stroke-miterlimit="10" fill="none" d="M 3.51,30.26 L 33.53,30.26" />
        <path id="kazSlowTop06-bezier1843" stroke="rgb(0, 0, 0)" stroke-width="2" stroke-miterlimit="10" fill="none" d="M 128.08,13.25 L 106.83,13.25 106.83,25.13" />
        <path id="kazSlowTop06-bezier1844" stroke="rgb(0, 0, 0)" stroke-width="2" stroke-miterlimit="10" fill="none" d="M 128.08,46.27 L 106.83,46.27 106.83,46.25 106.83,40.38" />
        <path id="kazSlowTop06-bezier1845" stroke="rgb(0, 0, 0)" stroke-width="2" stroke-miterlimit="10" fill="none" d="M 36.61,25.75 C 36.61,25.75 35.34,27.07 35.34,30.26 35.34,33.44 36.61,34.38 36.61,34.38" />
        <path id="kazSlowTop06-bezier1846" stroke="rgb(0, 0, 0)" stroke-width="2" stroke-miterlimit="10" fill="none" d="M 127.25,27.84 L 110.23,27.84" />
        <path id="kazSlowTop06-bezier1847" stroke="rgb(0, 0, 0)" stroke-width="2" stroke-miterlimit="10" fill="none" d="M 127.25,32.71 L 113.23,32.71" />
        <path id="kazSlowTop06-bezier1848" stroke="rgb(0, 0, 0)" stroke-width="2" stroke-miterlimit="10" fill="none" d="M 33.99,27.84 L 32.28,27.84" />
        <path id="kazSlowTop06-bezier1849" stroke="rgb(0, 0, 0)" stroke-width="2" stroke-miterlimit="10" fill="none" d="M 33.99,32.71 L 32.28,32.71" />
        <g id="kazSlowTop06-group1391">
            <g id="kazSlowTop06-group1392">
                <path id="kazSlowTop06-bezier1850" stroke="none" fill="rgb(0, 0, 0)" d="M 101.46,41.16 C 99.79,41.27 98.1,41.31 96.42,41.17 94.75,41.02 93.05,40.77 91.44,40.07 91.04,39.9 90.63,39.67 90.28,39.42 89.97,39.21 89.7,39.14 89.48,39.21 89.02,39.33 88.55,40.06 88.23,40.75 87.54,42.18 87.08,43.79 86.56,45.39 L 86.46,45.37 C 86.44,44.52 86.52,43.68 86.65,42.84 86.78,41.99 86.99,41.16 87.32,40.34 87.49,39.93 87.69,39.53 87.98,39.14 88.26,38.77 88.66,38.37 89.27,38.24 89.88,38.11 90.46,38.41 90.8,38.69 91.12,38.96 91.43,39.16 91.78,39.35 93.2,40.07 94.85,40.43 96.48,40.68 98.12,40.94 99.78,41.04 101.45,41.06 L 101.46,41.16 Z M 101.46,41.16" />
            </g>
            <g id="kazSlowTop06-group1393">
                <path id="kazSlowTop06-bezier1851" stroke="none" fill="rgb(0, 0, 0)" d="M 97.84,23.73 C 99.11,23.72 100.36,23.81 101.62,23.86 102.89,23.94 104.16,24.22 105.35,24.73 107.7,25.74 109.75,27.66 110.67,30.15 111.14,31.39 111.3,32.75 111.14,34.07 110.97,35.41 110.44,36.68 109.65,37.75 108.03,39.88 105.52,41.2 102.98,41.37 L 102.96,41.27 C 105.35,40.54 107.52,39.17 108.83,37.17 110.17,35.24 110.66,32.71 109.92,30.41 109.18,28.12 107.35,26.23 105.14,25.18 102.93,24.04 100.33,24.05 97.84,23.83 L 97.84,23.73 Z M 97.84,23.73" />
            </g>
            <g id="kazSlowTop06-group1394">
                <path id="kazSlowTop06-bezier1852" stroke="none" fill="rgb(0, 0, 0)" d="M 82.57,19.61 C 83.72,19.48 84.89,19.35 86.07,19.5 87.25,19.63 88.42,20.03 89.41,20.73 89.91,21.07 90.36,21.48 90.77,21.92 91.16,22.36 91.55,22.77 91.96,23.15 92.38,23.53 92.82,23.88 93.27,24.1 93.49,24.21 93.72,24.29 93.87,24.29 94.01,24.29 94.07,24.22 94.09,24.21 L 95.64,23.68 94.47,23.89 C 95.46,23.72 96.36,24.02 97.14,24.31 97.94,24.61 98.67,24.94 99.5,25.07 L 99.51,25.17 C 98.65,25.37 97.75,25.17 96.94,25.03 96.12,24.87 95.34,24.75 94.66,24.89 L 95.04,24.58 C 94.83,25.11 94.28,25.35 93.84,25.31 93.4,25.28 93.08,25.12 92.8,24.94 92.24,24.59 91.81,24.15 91.4,23.71 91,23.28 90.62,22.8 90.27,22.36 89.91,21.92 89.52,21.53 89.08,21.19 88.2,20.5 87.14,20.05 86.02,19.84 84.9,19.62 83.73,19.66 82.58,19.71 L 82.57,19.61 Z M 82.57,19.61" />
            </g>
            <g id="kazSlowTop06-group1395">
                <path id="kazSlowTop06-bezier1853" stroke="none" fill="rgb(0, 0, 0)" d="M 118.38,10.62 C 116.9,10.77 115.41,10.93 113.93,11.04 112.43,11.14 110.99,11.28 109.42,11.25 107.99,11.07 106.5,11.18 105.03,11.17 104.29,11.2 103.56,11.23 102.82,11.28 102.1,11.36 101.34,11.39 100.68,11.68 L 100.63,11.62 C 101.26,11.16 102.03,11.01 102.76,10.84 103.49,10.68 104.24,10.58 104.99,10.51 105.73,10.43 106.48,10.38 107.24,10.38 107.98,10.38 108.76,10.37 109.5,10.54 110.91,10.69 112.44,10.63 113.91,10.62 L 118.37,10.55 118.38,10.62 Z M 118.38,10.62" />
            </g>
            <g id="kazSlowTop06-group1396">
                <path id="kazSlowTop06-bezier1854" stroke="none" fill="rgb(0, 0, 0)" d="M 99.49,17.4 C 101.07,17.26 102.65,17.1 104.22,16.9 105,16.8 105.79,16.7 106.57,16.57 106.95,16.51 107.34,16.44 107.72,16.35 107.9,16.3 108.09,16.25 108.25,16.18 108.38,16.12 108.64,16 108.81,15.95 110.37,15.49 111.92,15.15 113.49,14.9 115.07,14.71 116.65,14.5 118.28,14.69 L 118.26,14.77 C 116.73,15.05 115.17,15.41 113.61,15.66 112.06,15.92 110.47,16.06 108.97,16.44 108.76,16.5 108.65,16.54 108.43,16.63 108.22,16.71 108.02,16.76 107.82,16.8 107.42,16.88 107.02,16.94 106.63,16.99 105.84,17.09 105.04,17.16 104.25,17.21 102.67,17.33 101.08,17.41 99.5,17.47 L 99.49,17.4 Z M 99.49,17.4" />
            </g>
            <g id="kazSlowTop06-group1397">
                <path id="kazSlowTop06-bezier1855" stroke="none" fill="rgb(0, 0, 0)" d="M 90.08,16.03 C 92.43,14.65 94.65,13.05 96.83,11.42 L 97.13,11.19 97.31,11.54 C 97.94,12.75 98.44,13.99 98.85,15.29 99.25,16.58 99.5,17.97 99.33,19.37 L 99.3,19.65 99.07,19.76 96.5,20.98 95.23,21.61 C 94.83,21.82 94.33,22.04 94.09,22.33 L 93.99,22.34 C 94.05,22.02 94.27,21.9 94.44,21.72 94.62,21.56 94.81,21.4 95,21.25 95.38,20.96 95.78,20.69 96.18,20.42 96.98,19.87 97.8,19.38 98.64,18.91 L 98.38,19.29 C 98.41,18.05 98.22,16.78 97.96,15.52 97.68,14.26 97.25,13.01 96.73,11.84 L 97.21,11.95 C 94.93,13.49 92.58,14.9 90.13,16.12 L 90.08,16.03 Z M 90.08,16.03" />
            </g>
            <g id="kazSlowTop06-group1398">
                <path id="kazSlowTop06-bezier1856" stroke="none" fill="rgb(0, 0, 0)" d="M 37.6,30.26 C 37.52,28.53 37.52,26.79 37.61,25.05 37.73,23.32 37.85,21.56 38.52,19.86 38.7,19.45 38.93,19.01 39.35,18.69 39.7,18.4 40.16,18.16 40.58,18.02 41.45,17.7 42.35,17.59 43.25,17.56 45.03,17.5 46.78,17.69 48.53,18.08 L 48.92,18.16 48.91,18.59 C 48.87,20.54 48.74,22.48 48.61,24.43 48.55,25.4 48.46,26.37 48.37,27.34 48.29,28.32 48.18,29.29 48.08,30.26 L 47.98,30.26 C 47.89,29.28 47.84,28.3 47.82,27.33 47.8,26.35 47.76,25.38 47.78,24.4 47.77,22.45 47.79,20.5 47.89,18.55 L 48.28,19.06 C 46.65,18.66 44.94,18.36 43.26,18.36 42.42,18.36 41.58,18.44 40.81,18.68 40.41,18.82 40.09,18.96 39.75,19.21 39.46,19.41 39.25,19.75 39.07,20.11 38.41,21.63 38.19,23.38 37.98,25.08 37.8,26.8 37.71,28.53 37.7,30.26 L 37.6,30.26 Z M 37.6,30.26" />
            </g>
            <g id="kazSlowTop06-group1399">
                <path id="kazSlowTop06-bezier1857" stroke="none" fill="rgb(0, 0, 0)" d="M 124.18,11.9 C 123.98,11.4 123.73,10.92 123.42,10.5 123.14,10.06 122.76,9.78 122.3,9.66 121.88,9.56 121.38,9.71 120.86,9.73 120.33,9.76 119.79,9.78 119.22,9.67 L 119.21,9.59 C 119.7,9.3 120.21,9.12 120.75,8.99 121.27,8.88 121.89,8.85 122.5,9.09 122.79,9.23 123.01,9.36 123.26,9.59 123.47,9.81 123.62,10.06 123.75,10.31 123.99,10.82 124.14,11.34 124.25,11.88 L 124.18,11.9 Z M 124.18,11.9" />
            </g>
            <g id="kazSlowTop06-group1400">
                <path id="kazSlowTop06-bezier1858" stroke="none" fill="rgb(0, 0, 0)" d="M 119.23,14.78 C 119.69,14.92 120.16,15.01 120.59,15.01 120.81,15.01 121,14.93 121.19,14.95 L 121.88,15.04 121.92,15.1 C 121.84,15.41 121.57,15.6 121.3,15.69 121.02,15.79 120.73,15.69 120.49,15.61 119.98,15.45 119.56,15.18 119.19,14.85 L 119.23,14.78 Z M 119.23,14.78" />
            </g>
            <g id="kazSlowTop06-group1401">
                <path id="kazSlowTop06-bezier1859" stroke="none" fill="rgb(0, 0, 0)" d="M 118.37,48.97 L 113.91,48.84 C 112.44,48.83 110.92,48.76 109.49,48.88 108.75,49.04 107.98,49.04 107.23,49.08 106.48,49.1 105.73,49.11 104.98,49.06 104.23,49.01 103.49,48.89 102.75,48.74 102.02,48.56 101.24,48.4 100.63,47.89 L 100.67,47.83 C 101.35,48.09 102.1,48.1 102.83,48.17 103.56,48.23 104.3,48.24 105.03,48.29 106.5,48.35 107.99,48.56 109.43,48.37 110.97,48.31 112.43,48.43 113.93,48.53 L 118.38,48.89 118.37,48.97 Z M 118.37,48.97" />
            </g>
            <g id="kazSlowTop06-group1402">
                <path id="kazSlowTop06-bezier1860" stroke="none" fill="rgb(0, 0, 0)" d="M 99.5,42.04 C 101.08,42.09 102.67,42.14 104.26,42.25 105.05,42.31 105.84,42.38 106.63,42.47 107.03,42.52 107.43,42.57 107.83,42.65 108.03,42.69 108.23,42.73 108.45,42.81 L 108.73,42.92 108.99,43 C 110.48,43.36 112.06,43.58 113.61,43.89 115.15,44.17 116.72,44.52 118.26,44.75 L 118.28,44.82 C 117.46,44.93 116.67,44.85 115.87,44.81 115.08,44.77 114.29,44.67 113.5,44.58 111.91,44.39 110.36,44.13 108.79,43.64 108.69,43.61 108.59,43.58 108.49,43.53 108.37,43.49 108.28,43.43 108.22,43.41 108.07,43.34 107.88,43.29 107.7,43.24 107.33,43.14 106.94,43.07 106.55,43 105.78,42.87 105,42.76 104.21,42.66 102.64,42.46 101.07,42.27 99.49,42.12 L 99.5,42.04 Z M 99.5,42.04" />
            </g>
            <g id="kazSlowTop06-group1403">
                <path id="kazSlowTop06-bezier1861" stroke="none" fill="rgb(0, 0, 0)" d="M 98.26,41.71 C 98.16,42.74 97.85,43.76 97.43,44.72 96.99,45.67 96.45,46.57 95.8,47.43 L 95.69,47.57 95.47,47.56 C 94.32,47.46 93.17,47.39 92.06,47.06 90.96,46.73 89.88,46.29 88.94,45.6 L 88.98,45.5 C 90.13,45.66 91.21,45.87 92.3,46.08 93.39,46.28 94.46,46.62 95.55,46.79 L 95.22,46.92 C 95.88,46.2 96.49,45.36 97,44.49 97.52,43.63 97.94,42.69 98.16,41.69 L 98.26,41.71 Z M 98.26,41.71" />
            </g>
            <g id="kazSlowTop06-group1404">
                <path id="kazSlowTop06-bezier1862" stroke="none" fill="rgb(0, 0, 0)" d="M 37.7,30.26 C 37.66,31.99 37.71,33.72 37.85,35.43 38.02,37.12 38.21,38.89 38.9,40.38 39.08,40.73 39.32,41.05 39.61,41.2 39.97,41.39 40.33,41.49 40.74,41.59 41.55,41.77 42.4,41.83 43.24,41.84 44.94,41.86 46.66,41.69 48.33,41.44 L 47.89,41.97 C 47.79,40.02 47.77,38.07 47.78,36.12 47.76,35.14 47.8,34.16 47.82,33.19 47.84,32.21 47.89,31.24 47.98,30.26 L 48.08,30.26 C 48.18,31.23 48.29,32.2 48.37,33.17 48.46,34.14 48.55,35.12 48.61,36.09 48.74,38.03 48.87,39.98 48.91,41.93 L 48.92,42.4 48.47,42.45 C 46.72,42.66 44.98,42.73 43.22,42.64 42.34,42.59 41.45,42.5 40.58,42.28 40.15,42.17 39.68,42.01 39.28,41.78 38.81,41.49 38.55,41.06 38.35,40.64 37.64,38.95 37.56,37.18 37.48,35.45 37.42,33.72 37.47,31.98 37.6,30.26 L 37.7,30.26 Z M 37.7,30.26" />
            </g>
            <g id="kazSlowTop06-group1405">
                <path id="kazSlowTop06-bezier1863" stroke="none" fill="rgb(0, 0, 0)" d="M 121,45.02 C 121.02,45.66 121.06,46.31 121.19,46.9 121.25,47.2 121.39,47.46 121.45,47.68 121.53,47.91 121.55,48.08 121.9,48.27 L 121.91,48.34 C 121.6,48.63 120.98,48.4 120.79,48.03 120.56,47.68 120.58,47.3 120.59,46.96 120.6,46.28 120.73,45.63 120.93,45.01 L 121,45.02 Z M 121,45.02" />
            </g>
            <g id="kazSlowTop06-group1406">
                <path id="kazSlowTop06-bezier1864" stroke="none" fill="rgb(0, 0, 0)" d="M 124.25,47.64 C 124.14,48.17 123.98,48.7 123.75,49.21 123.62,49.46 123.47,49.7 123.26,49.92 123.01,50.15 122.79,50.29 122.5,50.42 121.89,50.67 121.27,50.64 120.75,50.52 120.21,50.39 119.7,50.22 119.21,49.93 L 119.22,49.85 C 119.78,49.74 120.33,49.76 120.86,49.78 121.38,49.8 121.88,49.96 122.3,49.86 122.76,49.74 123.14,49.46 123.42,49.01 123.73,48.6 123.97,48.11 124.18,47.62 L 124.25,47.64 Z M 124.25,47.64" />
            </g>
            <g id="kazSlowTop06-group1407">
                <path id="kazSlowTop06-bezier1865" stroke="none" fill="rgb(0, 0, 0)" d="M 119.19,44.67 C 119.56,44.34 119.98,44.07 120.49,43.91 120.74,43.83 121.02,43.73 121.3,43.82 121.58,43.91 121.84,44.11 121.92,44.42 L 121.88,44.48 121.19,44.57 C 121,44.59 120.81,44.51 120.59,44.5 120.16,44.51 119.69,44.6 119.23,44.73 L 119.19,44.67 Z M 119.19,44.67" />
            </g>
            <g id="kazSlowTop06-group1408">
                <path id="kazSlowTop06-bezier1866" stroke="none" fill="rgb(0, 0, 0)" d="M 106.12,38.15 C 105.28,39 104.25,39.71 103.06,40.04 101.87,40.38 100.61,40.38 99.41,40.19 98.2,40.01 97.03,39.66 95.89,39.24 94.74,38.81 93.7,38.32 92.57,38.06 90.32,37.51 87.98,37.6 85.8,38.33 83.64,39.08 81.62,40.41 80.07,42.2 L 79.99,42.15 C 80.56,41.08 81.4,40.16 82.33,39.37 83.25,38.56 84.33,37.93 85.48,37.46 87.78,36.48 90.45,36.46 92.8,37.19 94,37.52 95.11,38.1 96.16,38.56 97.25,39.02 98.36,39.41 99.51,39.64 100.65,39.87 101.83,39.96 102.97,39.71 104.12,39.48 105.16,38.86 106.05,38.07 L 106.12,38.15 Z M 106.12,38.15" />
            </g>
            <g id="kazSlowTop06-group1409">
                <path id="kazSlowTop06-bezier1867" stroke="none" fill="rgb(0, 0, 0)" d="M 77.78,22.89 C 79.3,24.78 81.13,26.46 83.21,27.64 84.25,28.23 85.37,28.67 86.53,28.81 87.1,28.89 87.68,28.88 88.25,28.8 88.85,28.71 89.43,28.6 90.02,28.47 92.37,27.95 94.72,27.16 97.23,26.99 98.48,26.92 99.78,26.94 101,27.34 102.22,27.72 103.32,28.43 104.13,29.36 L 104.06,29.43 C 103.08,28.71 101.99,28.2 100.84,27.98 99.68,27.77 98.5,27.77 97.33,27.93 94.98,28.25 92.63,28.91 90.19,29.32 89.58,29.42 88.96,29.51 88.35,29.58 87.7,29.64 87.05,29.62 86.42,29.51 85.16,29.29 83.99,28.76 82.94,28.1 80.84,26.76 79.12,24.94 77.7,22.95 L 77.78,22.89 Z M 77.78,22.89" />
            </g>
            <g id="kazSlowTop06-group1410">
                <path id="kazSlowTop06-bezier1868" stroke="none" fill="rgb(0, 0, 0)" d="M 96.08,35.04 C 94.44,34.61 92.71,34.6 91.01,34.55 L 85.88,34.47 C 84.17,34.44 82.44,34.44 80.72,34.12 79.87,33.96 79.01,33.76 78.18,33.43 77.37,33.11 76.53,32.68 76,31.95 L 76.07,31.88 C 77.5,32.8 79.21,32.92 80.86,33.14 82.53,33.31 84.22,33.53 85.92,33.67 L 91.04,34.05 C 92.74,34.24 94.48,34.38 96.11,34.95 L 96.08,35.04 Z M 96.08,35.04" />
            </g>
            <g id="kazSlowTop06-group1411">
                <path id="kazSlowTop06-bezier1869" stroke="none" fill="rgb(0, 0, 0)" d="M 89.68,17.25 C 86.87,17.21 84.06,17.23 81.26,17.34 78.46,17.47 75.65,17.66 72.9,18.13 70.15,18.69 67.32,19.04 64.49,19.09 61.65,19.13 58.83,18.97 56,18.41 L 56.56,17.92 C 56.82,19.86 57.05,21.79 57.21,23.75 57.33,25.7 57.49,27.65 57.25,29.67 56.89,31.68 56.27,33.49 55.73,35.37 55.46,36.3 55.22,37.23 55.02,38.18 54.83,39.12 54.67,40.08 54.8,41.04 L 54.7,41.06 C 54.44,40.1 54.51,39.09 54.61,38.11 54.71,37.13 54.91,36.17 55.11,35.21 55.49,33.3 56.09,31.4 56.33,29.56 56.45,27.7 56.31,25.74 56.18,23.82 56.04,21.89 55.87,19.95 55.67,18.03 L 55.6,17.39 56.22,17.54 C 58.89,18.16 61.71,18.39 64.48,18.41 67.28,18.43 70.05,18.15 72.82,17.66 75.62,17.25 78.44,17.12 81.25,17.05 84.06,17 86.87,17.04 89.68,17.15 L 89.68,17.25 Z M 89.68,17.25" />
            </g>
            <g id="kazSlowTop06-group1412">
                <path id="kazSlowTop06-bezier1870" stroke="none" fill="rgb(0, 0, 0)" d="M 54.71,41.64 C 57.26,41.25 59.84,41.1 62.43,41.15 65.01,41.23 67.61,41.53 70.13,42.25 71.41,42.61 72.57,43.08 73.81,43.4 75.03,43.74 76.27,44.06 77.51,44.36 79.98,45 82.49,45.49 85.01,46.05 L 85,46.15 C 82.41,46.15 79.84,45.8 77.29,45.33 76.02,45.07 74.76,44.75 73.52,44.35 72.28,43.97 71.07,43.41 69.89,43.01 67.49,42.22 64.95,41.83 62.4,41.65 59.85,41.47 57.28,41.48 54.72,41.74 L 54.71,41.64 Z M 54.71,41.64" />
            </g>
            <g id="kazSlowTop06-group1413">
                <path id="kazSlowTop06-bezier1871" stroke="none" fill="rgb(0, 0, 0)" d="M 49.22,41.85 C 50.02,41.37 50.94,41.1 51.88,40.98 52.34,40.91 52.83,40.84 53.3,40.94 53.77,41.04 54.22,41.2 54.62,41.51 L 54.6,41.58 C 54.11,41.67 53.66,41.67 53.22,41.68 52.78,41.69 52.35,41.59 51.91,41.57 51.03,41.56 50.12,41.64 49.25,41.91 L 49.22,41.85 Z M 49.22,41.85" />
            </g>
            <g id="kazSlowTop06-group1414">
                <path id="kazSlowTop06-bezier1872" stroke="none" fill="rgb(0, 0, 0)" d="M 49.57,18.63 L 52.09,18.48 C 52.51,18.44 52.92,18.36 53.34,18.39 53.75,18.43 54.16,18.48 54.6,18.63 L 54.61,18.71 C 54.22,18.96 53.79,19.07 53.36,19.14 52.94,19.2 52.51,19.12 52.09,19.08 51.24,19 50.4,18.87 49.56,18.71 L 49.57,18.63 Z M 49.57,18.63" />
            </g>
            <g id="kazSlowTop06-group1415">
                <path id="kazSlowTop06-bezier1873" stroke="none" fill="rgb(0, 0, 0)" d="M 50.22,27.41 C 50.55,27.56 50.9,27.59 51.21,27.58 51.38,27.56 51.53,27.49 51.68,27.53 51.85,27.58 52.01,27.63 52.23,27.8 L 52.24,27.87 C 52.11,28.11 51.92,28.22 51.72,28.28 51.51,28.34 51.31,28.24 51.11,28.17 50.73,28.04 50.37,27.8 50.17,27.46 L 50.22,27.41 Z M 50.22,27.41" />
            </g>
            <g id="kazSlowTop06-group1416">
                <path id="kazSlowTop06-bezier1874" stroke="none" fill="rgb(0, 0, 0)" d="M 49.92,33.1 C 50.22,32.8 50.56,32.53 50.94,32.32 51.13,32.2 51.32,32.06 51.57,32.06 51.8,32.07 52.11,32.15 52.25,32.43 L 52.22,32.5 C 51.98,32.62 51.86,32.73 51.69,32.8 51.54,32.88 51.34,32.85 51.15,32.88 50.77,32.95 50.37,33.05 49.96,33.16 L 49.92,33.1 Z M 49.92,33.1" />
            </g>
            <g id="kazSlowTop06-group1417">
                <path id="kazSlowTop06-bezier1875" stroke="none" fill="rgb(0, 0, 0)" d="M 120.93,14.51 C 120.73,13.88 120.59,13.24 120.59,12.56 120.58,12.22 120.56,11.83 120.79,11.48 120.98,11.12 121.6,10.88 121.9,11.18 L 121.9,11.25 C 121.55,11.44 121.53,11.61 121.45,11.83 121.39,12.06 121.25,12.32 121.18,12.62 121.06,13.21 121.02,13.85 121,14.5 L 120.93,14.51 Z M 120.93,14.51" />
            </g>
            <g id="kazSlowTop06-group1418">
                <path id="kazSlowTop06-bezier1876" stroke="none" fill="rgb(0, 0, 0)" d="M 100.87,47.21 C 100.18,47.32 99.5,47.39 98.8,47.42 98.46,47.44 98.11,47.51 97.76,47.42 97.42,47.34 97.06,47.22 96.77,46.91 L 96.8,46.84 C 97.17,46.75 97.49,46.69 97.83,46.68 98.17,46.66 98.5,46.76 98.83,46.82 L 100.87,47.13 100.87,47.21 Z M 100.87,47.21" />
            </g>
            <g id="kazSlowTop06-group1419">
                <path id="kazSlowTop06-bezier1877" stroke="none" fill="rgb(0, 0, 0)" d="M 100.99,12.37 L 99.63,12.66 C 99.4,12.71 99.19,12.82 98.97,12.8 98.74,12.78 98.54,12.73 98.26,12.62 L 98.23,12.55 C 98.38,12.27 98.64,12.14 98.87,12.05 99.11,11.97 99.35,12.03 99.59,12.06 100.07,12.1 100.53,12.18 101,12.3 L 100.99,12.37 Z M 100.99,12.37" />
            </g>
            <g id="kazSlowTop06-group1420">
                <path id="kazSlowTop06-bezier1878" stroke="none" fill="rgb(0, 0, 0)" d="M 111.53,32.61 C 111.71,32.63 111.89,32.75 112.02,32.89 112.15,33.03 112.24,33.19 112.33,33.37 L 112.35,33.41 112.32,33.51 C 112.26,33.7 112.22,33.89 112.08,34.05 111.94,34.18 111.77,34.36 111.5,34.33 L 111.48,34.28 C 111.55,34.08 111.59,33.94 111.66,33.77 111.73,33.61 111.87,33.49 111.97,33.34 L 111.96,33.48 C 111.93,33.33 111.89,33.17 111.82,33.02 111.75,32.87 111.67,32.73 111.51,32.65 L 111.53,32.61 Z M 111.53,32.61" />
            </g>
            <g id="kazSlowTop06-group1421">
                <path id="kazSlowTop06-bezier1879" stroke="none" fill="rgb(0, 0, 0)" d="M 49.58,42.79 C 52.57,43.79 55.64,44.53 58.71,45.22 61.78,45.89 64.88,46.48 67.98,47 71.08,47.53 74.2,47.96 77.33,48.36 L 86.69,49.58 86.72,49.59 86.74,49.59 C 87.61,49.88 88.6,49.84 89.47,49.47 89.9,49.29 90.31,49.04 90.66,48.71 90.99,48.39 91.28,47.97 91.31,47.48 L 91.39,47.48 C 91.4,48 91.14,48.48 90.82,48.86 90.48,49.25 90.07,49.57 89.62,49.8 88.7,50.26 87.6,50.39 86.59,50.12 L 86.64,50.13 C 83.49,49.88 80.35,49.57 77.22,49.11 74.1,48.65 70.99,48.11 67.89,47.53 64.78,46.95 61.69,46.3 58.63,45.54 55.57,44.77 52.52,43.95 49.55,42.86 L 49.58,42.79 Z M 49.58,42.79" />
            </g>
        </g>
    </g>
</svg>
