<?xml version="1.0" encoding="UTF-8"?>
<!DOCTYPE svg PUBLIC "-//W3C//DTD SVG 1.1//EN" "http://www.w3.org/Graphics/SVG/1.1/DTD/svg11.dtd">
<svg version="1.1" xmlns="http://www.w3.org/2000/svg" xmlns:xlink="http://www.w3.org/1999/xlink" width="160" height="60"  xml:space="preserve" id="kazSlowTop07">
    <!-- Generated by PaintCode - http://www.paintcodeapp.com -->
    <g id="kazSlowTop07-group">
        <path id="kazSlowTop07-bezier1761" stroke="rgb(0, 0, 0)" stroke-width="2" stroke-miterlimit="10" fill="none" d="M 111.82,30.26 L 156.69,30.26" />
        <path id="kazSlowTop07-bezier1762" stroke="rgb(0, 0, 0)" stroke-width="2" stroke-miterlimit="10" fill="none" d="M 3.3,30.26 L 33.32,30.26" />
        <path id="kazSlowTop07-bezier1763" stroke="rgb(0, 0, 0)" stroke-width="2" stroke-miterlimit="10" fill="none" d="M 106.62,18.26 L 106.62,21.13" />
        <path id="kazSlowTop07-bezier1764" stroke="rgb(0, 0, 0)" stroke-width="2" stroke-miterlimit="10" fill="none" d="M 121.5,13.25 L 127.87,13.25" />
        <path id="kazSlowTop07-bezier1765" stroke="rgb(0, 0, 0)" stroke-width="2" stroke-miterlimit="10" fill="none" d="M 106.62,41.25 L 106.62,39.38" />
        <path id="kazSlowTop07-bezier1766" stroke="rgb(0, 0, 0)" stroke-width="2" stroke-miterlimit="10" fill="none" d="M 121.5,46.27 L 127.87,46.27" />
        <path id="kazSlowTop07-bezier1767" stroke="rgb(0, 0, 0)" stroke-width="2" stroke-miterlimit="10" fill="none" d="M 36.4,25.75 C 36.4,25.75 35.13,27.07 35.13,30.26 35.13,33.44 36.4,34.38 36.4,34.38" />
        <path id="kazSlowTop07-bezier1768" stroke="rgb(0, 0, 0)" stroke-width="2" stroke-miterlimit="10" fill="none" d="M 125.99,27.84 L 111.48,27.84" />
        <path id="kazSlowTop07-bezier1769" stroke="rgb(0, 0, 0)" stroke-width="2" stroke-miterlimit="10" fill="none" d="M 125.99,32.71 L 111.48,32.71" />
        <path id="kazSlowTop07-bezier1770" stroke="rgb(0, 0, 0)" stroke-width="2" stroke-miterlimit="10" fill="none" d="M 33.78,27.84 L 32.07,27.84" />
        <path id="kazSlowTop07-bezier1771" stroke="rgb(0, 0, 0)" stroke-width="2" stroke-miterlimit="10" fill="none" d="M 33.78,32.71 L 32.07,32.71" />
        <g id="kazSlowTop07-group1329">
            <g id="kazSlowTop07-group1330">
                <path id="kazSlowTop07-bezier1772" stroke="none" fill="rgb(0, 0, 0)" d="M 101.54,40.02 C 100.02,40.17 98.48,40.24 96.93,40.13 95.39,39.99 93.82,39.75 92.38,38.95 92.03,38.78 91.64,38.42 91.45,38.37 91.21,38.29 91.1,38.33 90.9,38.5 90.52,38.89 90.23,39.61 89.99,40.28 89.49,41.67 89.14,43.15 88.7,44.63 L 88.6,44.62 C 88.5,43.07 88.63,41.52 89.04,39.98 89.28,39.22 89.51,38.43 90.26,37.75 90.45,37.6 90.71,37.45 91.01,37.41 91.31,37.36 91.61,37.44 91.83,37.56 92.34,37.85 92.47,38.08 92.8,38.27 94,39.05 95.5,39.41 96.99,39.64 98.48,39.87 100.01,39.94 101.54,39.91 L 101.54,40.02 Z M 101.54,40.02" />
            </g>
            <g id="kazSlowTop07-group1331">
                <path id="kazSlowTop07-bezier1773" stroke="none" fill="rgb(0, 0, 0)" d="M 97.19,21.42 C 98.45,21.34 99.71,21.35 100.97,21.33 102.24,21.33 103.52,21.54 104.74,21.98 107.15,22.85 109.31,24.64 110.38,27.08 110.91,28.29 111.15,29.64 111.07,30.97 110.98,32.31 110.52,33.61 109.8,34.73 108.31,36.94 105.88,38.41 103.35,38.73 L 103.33,38.63 C 105.68,37.76 107.76,36.27 108.95,34.2 110.17,32.18 110.52,29.63 109.64,27.38 108.76,25.14 106.83,23.36 104.56,22.44 102.29,21.43 99.69,21.59 97.2,21.52 L 97.19,21.42 Z M 97.19,21.42" />
            </g>
            <g id="kazSlowTop07-group1332">
                <path id="kazSlowTop07-bezier1774" stroke="none" fill="rgb(0, 0, 0)" d="M 85.69,14.39 C 86.71,14.21 87.92,14.09 88.9,14.78 89.86,15.46 90.3,16.6 90.56,17.66 90.7,18.21 90.78,18.71 90.95,19.19 91.11,19.67 91.33,20.12 91.62,20.5 92.18,21.29 93.12,21.73 93.93,21.77 L 93.83,21.78 C 94.81,21.55 95.72,21.8 96.52,22.04 97.33,22.3 98.09,22.58 98.92,22.66 L 98.94,22.76 C 98.09,23.01 97.19,22.87 96.36,22.78 95.54,22.66 94.75,22.59 94.08,22.77 L 94.03,22.79 93.98,22.79 C 92.63,22.81 91.53,21.99 90.91,20.99 90.28,20 90.08,18.8 89.95,17.79 89.76,16.78 89.43,15.75 88.66,15.09 87.89,14.42 86.75,14.4 85.7,14.49 L 85.69,14.39 Z M 85.69,14.39" />
            </g>
            <g id="kazSlowTop07-group1333">
                <path id="kazSlowTop07-bezier1775" stroke="none" fill="rgb(0, 0, 0)" d="M 118.17,10.62 C 117.36,10.81 116.55,10.97 115.73,11.08 115.31,11.13 114.9,11.17 114.46,11.16 113.97,11.13 113.66,11.05 113.24,11.07 112.43,11.08 111.63,11.22 110.84,11.28 110.04,11.36 109.25,11.42 108.47,11.68 L 108.42,11.62 C 109.03,10.97 109.91,10.72 110.73,10.54 111.57,10.37 112.42,10.4 113.26,10.47 113.67,10.48 114.16,10.62 114.49,10.68 114.88,10.72 115.29,10.72 115.7,10.71 116.51,10.69 117.34,10.63 118.16,10.55 L 118.17,10.62 Z M 118.17,10.62" />
            </g>
            <g id="kazSlowTop07-group1334">
                <path id="kazSlowTop07-bezier1776" stroke="none" fill="rgb(0, 0, 0)" d="M 107.28,17.4 C 108.2,17.25 109.12,17.09 110.03,16.91 110.94,16.73 111.86,16.54 112.7,16.25 113.08,16.11 113.5,15.83 113.93,15.63 114.36,15.43 114.8,15.26 115.25,15.11 115.7,14.98 116.15,14.85 116.62,14.76 117.09,14.69 117.56,14.57 118.07,14.69 L 118.05,14.77 C 117.2,15.02 116.36,15.48 115.51,15.82 115.08,15.99 114.65,16.16 114.22,16.32 113.79,16.46 113.4,16.68 112.89,16.82 111.95,17.07 111.02,17.17 110.09,17.28 109.15,17.36 108.22,17.43 107.29,17.47 L 107.28,17.4 Z M 107.28,17.4" />
            </g>
            <g id="kazSlowTop07-group1335">
                <path id="kazSlowTop07-bezier1777" stroke="none" fill="rgb(0, 0, 0)" d="M 110.11,11.87 C 109.21,12.07 108.25,11.91 107.37,11.68 106.54,11.53 105.62,11.65 104.74,11.76 103.85,11.89 102.97,12.12 102.08,12.23 101.18,12.34 100.28,12.44 99.35,12.44 L 99.33,12.37 C 100.17,11.97 101.05,11.7 101.95,11.49 102.84,11.28 103.76,11.22 104.68,11.17 105.6,11.13 106.52,11.07 107.48,11.32 108.32,11.65 109.2,11.89 110.1,11.8 L 110.11,11.87 Z M 110.11,11.87" />
            </g>
            <g id="kazSlowTop07-group1336">
                <path id="kazSlowTop07-bezier1778" stroke="none" fill="rgb(0, 0, 0)" d="M 100.1,19.63 C 100.11,18.27 99.74,16.94 99.26,15.69 98.78,14.43 98.16,13.21 97.45,12.09 L 97.92,12.26 95.97,13.09 C 95.33,13.37 94.67,13.63 94,13.87 93.33,14.1 92.67,14.33 91.98,14.53 91.3,14.73 90.62,14.93 89.91,15.09 L 89.87,14.99 C 90.46,14.57 91.08,14.22 91.71,13.88 92.34,13.53 92.98,13.23 93.63,12.93 94.28,12.65 94.95,12.39 95.62,12.17 L 97.66,11.51 97.98,11.41 98.13,11.68 C 98.79,12.92 99.32,14.2 99.72,15.53 100.1,16.86 100.34,18.26 100.2,19.64 L 100.1,19.63 Z M 100.1,19.63" />
            </g>
            <g id="kazSlowTop07-group1337">
                <path id="kazSlowTop07-bezier1779" stroke="none" fill="rgb(0, 0, 0)" d="M 101.25,19.64 C 102.05,19.16 102.86,18.69 103.66,18.23 104.07,18 104.44,17.72 104.88,17.56 105.31,17.4 105.75,17.27 106.24,17.2 L 106.28,17.26 C 106,17.69 105.6,17.97 105.21,18.23 104.82,18.48 104.36,18.61 103.92,18.78 103.05,19.11 102.17,19.42 101.28,19.7 L 101.25,19.64 Z M 101.25,19.64" />
            </g>
            <g id="kazSlowTop07-group1338">
                <path id="kazSlowTop07-bezier1780" stroke="none" fill="rgb(0, 0, 0)" d="M 37.39,30.26 C 37.31,28.53 37.31,26.79 37.4,25.05 37.52,23.32 37.64,21.56 38.31,19.86 38.49,19.45 38.72,19.01 39.14,18.69 39.49,18.4 39.95,18.16 40.37,18.02 41.24,17.7 42.14,17.59 43.03,17.56 44.82,17.5 46.57,17.69 48.32,18.08 L 48.71,18.16 48.7,18.59 C 48.66,20.54 48.53,22.48 48.4,24.43 48.34,25.4 48.25,26.37 48.16,27.34 48.08,28.32 47.97,29.29 47.87,30.26 L 47.77,30.26 C 47.68,29.28 47.63,28.3 47.61,27.33 47.59,26.35 47.55,25.38 47.57,24.4 47.56,22.45 47.58,20.5 47.68,18.55 L 48.07,19.06 C 46.44,18.66 44.73,18.36 43.05,18.36 42.21,18.36 41.37,18.44 40.6,18.68 40.2,18.82 39.88,18.96 39.54,19.21 39.25,19.41 39.04,19.75 38.86,20.11 38.2,21.63 37.98,23.38 37.77,25.08 37.59,26.8 37.5,28.53 37.49,30.26 L 37.39,30.26 Z M 37.39,30.26" />
            </g>
            <g id="kazSlowTop07-group1339">
                <path id="kazSlowTop07-bezier1781" stroke="none" fill="rgb(0, 0, 0)" d="M 123.97,11.9 C 123.77,11.4 123.52,10.92 123.21,10.5 122.93,10.06 122.55,9.78 122.09,9.66 121.67,9.56 121.17,9.71 120.65,9.73 120.12,9.76 119.58,9.78 119.01,9.67 L 119,9.59 C 119.49,9.3 120,9.12 120.54,8.99 121.06,8.88 121.68,8.85 122.29,9.09 122.58,9.23 122.8,9.36 123.05,9.59 123.26,9.81 123.41,10.06 123.54,10.31 123.78,10.82 123.93,11.34 124.04,11.88 L 123.97,11.9 Z M 123.97,11.9" />
            </g>
            <g id="kazSlowTop07-group1340">
                <path id="kazSlowTop07-bezier1782" stroke="none" fill="rgb(0, 0, 0)" d="M 119.02,14.78 C 119.48,14.92 119.95,15.01 120.38,15.01 120.6,15.01 120.79,14.93 120.98,14.95 L 121.67,15.04 121.71,15.1 C 121.63,15.41 121.36,15.6 121.09,15.69 120.81,15.79 120.52,15.69 120.28,15.61 119.77,15.45 119.35,15.18 118.98,14.85 L 119.02,14.78 Z M 119.02,14.78" />
            </g>
            <g id="kazSlowTop07-group1341">
                <path id="kazSlowTop07-bezier1783" stroke="none" fill="rgb(0, 0, 0)" d="M 118.16,48.97 C 117.34,48.88 116.51,48.82 115.7,48.81 115.29,48.8 114.88,48.8 114.49,48.84 114.16,48.89 113.67,49.03 113.26,49.04 112.42,49.11 111.57,49.14 110.73,48.98 109.92,48.79 109.03,48.54 108.42,47.89 L 108.47,47.83 C 109.25,48.1 110.04,48.15 110.84,48.23 111.63,48.3 112.44,48.43 113.24,48.44 113.66,48.46 113.97,48.39 114.46,48.35 114.89,48.34 115.31,48.39 115.73,48.44 116.55,48.55 117.37,48.71 118.17,48.89 L 118.16,48.97 Z M 118.16,48.97" />
            </g>
            <g id="kazSlowTop07-group1342">
                <path id="kazSlowTop07-bezier1784" stroke="none" fill="rgb(0, 0, 0)" d="M 107.29,42.05 C 108.22,42.09 109.15,42.15 110.09,42.24 111.02,42.35 111.94,42.45 112.89,42.7 113.4,42.84 113.78,43.06 114.22,43.2 114.65,43.36 115.08,43.53 115.51,43.7 116.36,44.04 117.2,44.5 118.05,44.75 L 118.07,44.82 C 117.56,44.95 117.09,44.82 116.62,44.75 116.15,44.67 115.7,44.54 115.25,44.4 114.8,44.25 114.36,44.09 113.93,43.88 113.5,43.69 113.08,43.41 112.7,43.27 111.86,42.97 110.94,42.79 110.03,42.61 109.12,42.43 108.2,42.26 107.28,42.12 L 107.29,42.05 Z M 107.29,42.05" />
            </g>
            <g id="kazSlowTop07-group1343">
                <path id="kazSlowTop07-bezier1785" stroke="none" fill="rgb(0, 0, 0)" d="M 110.09,47.71 C 109.18,47.4 108.19,47.26 107.27,47.43 107.03,47.47 106.83,47.53 106.59,47.61 106.34,47.7 106.08,47.74 105.83,47.77 105.33,47.83 104.83,47.84 104.33,47.83 103.34,47.82 102.35,47.78 101.38,47.58 100.42,47.38 99.47,47.12 98.56,46.7 L 98.58,46.63 C 99.57,46.64 100.54,46.74 101.5,46.84 102.46,46.94 103.41,47.14 104.37,47.23 104.84,47.28 105.32,47.31 105.79,47.29 106.03,47.27 106.25,47.25 106.47,47.2 106.7,47.14 106.97,47.08 107.22,47.06 108.24,46.98 109.23,47.24 110.12,47.65 L 110.09,47.71 Z M 110.09,47.71" />
            </g>
            <g id="kazSlowTop07-group1344">
                <path id="kazSlowTop07-bezier1786" stroke="none" fill="rgb(0, 0, 0)" d="M 100.13,40.89 C 100.03,41.94 99.67,42.97 99.19,43.92 98.7,44.87 98.1,45.74 97.38,46.57 L 97.28,46.69 97.08,46.67 C 96.41,46.62 95.76,46.54 95.1,46.45 94.44,46.37 93.78,46.27 93.14,46.1 91.86,45.74 90.6,45.27 89.47,44.52 L 89.51,44.42 C 90.84,44.6 92.1,44.85 93.37,45.1 94.64,45.37 95.89,45.75 97.17,45.94 L 96.87,46.05 C 97.59,45.36 98.24,44.55 98.8,43.69 99.36,42.84 99.81,41.9 100.03,40.88 L 100.13,40.89 Z M 100.13,40.89" />
            </g>
            <g id="kazSlowTop07-group1345">
                <path id="kazSlowTop07-bezier1787" stroke="none" fill="rgb(0, 0, 0)" d="M 101.28,39.81 C 102.18,40.1 103.05,40.4 103.92,40.74 104.36,40.91 104.82,41.03 105.21,41.29 105.61,41.54 106,41.83 106.28,42.26 L 106.24,42.32 C 105.75,42.25 105.31,42.12 104.88,41.96 104.44,41.8 104.07,41.52 103.66,41.28 102.86,40.83 102.05,40.36 101.25,39.88 L 101.28,39.81 Z M 101.28,39.81" />
            </g>
            <g id="kazSlowTop07-group1346">
                <path id="kazSlowTop07-bezier1788" stroke="none" fill="rgb(0, 0, 0)" d="M 37.49,30.26 C 37.45,31.99 37.5,33.72 37.64,35.43 37.81,37.12 38,38.89 38.69,40.38 38.87,40.73 39.11,41.05 39.4,41.2 39.76,41.39 40.12,41.49 40.53,41.59 41.34,41.77 42.19,41.83 43.03,41.84 44.73,41.86 46.45,41.69 48.12,41.44 L 47.68,41.97 C 47.58,40.02 47.56,38.07 47.57,36.12 47.55,35.14 47.59,34.16 47.61,33.19 47.63,32.21 47.68,31.24 47.77,30.26 L 47.87,30.26 C 47.97,31.23 48.08,32.2 48.16,33.17 48.25,34.14 48.34,35.12 48.4,36.09 48.53,38.03 48.66,39.98 48.7,41.93 L 48.71,42.4 48.26,42.45 C 46.51,42.66 44.77,42.73 43.01,42.64 42.13,42.59 41.24,42.5 40.37,42.28 39.94,42.17 39.47,42.01 39.07,41.78 38.6,41.49 38.34,41.06 38.14,40.64 37.43,38.95 37.35,37.18 37.27,35.45 37.21,33.72 37.26,31.98 37.39,30.26 L 37.49,30.26 Z M 37.49,30.26" />
            </g>
            <g id="kazSlowTop07-group1347">
                <path id="kazSlowTop07-bezier1789" stroke="none" fill="rgb(0, 0, 0)" d="M 120.79,45.02 C 120.81,45.66 120.85,46.31 120.98,46.9 121.04,47.2 121.18,47.46 121.24,47.68 121.32,47.91 121.34,48.08 121.69,48.27 L 121.7,48.34 C 121.39,48.63 120.77,48.4 120.58,48.03 120.35,47.68 120.37,47.3 120.38,46.96 120.39,46.28 120.52,45.63 120.72,45.01 L 120.79,45.02 Z M 120.79,45.02" />
            </g>
            <g id="kazSlowTop07-group1348">
                <path id="kazSlowTop07-bezier1790" stroke="none" fill="rgb(0, 0, 0)" d="M 124.04,47.64 C 123.93,48.17 123.77,48.7 123.54,49.21 123.41,49.46 123.26,49.7 123.05,49.92 122.8,50.15 122.58,50.29 122.29,50.42 121.68,50.67 121.06,50.64 120.54,50.52 120,50.39 119.49,50.22 119,49.93 L 119.01,49.85 C 119.57,49.74 120.12,49.76 120.65,49.78 121.17,49.8 121.67,49.96 122.09,49.86 122.55,49.74 122.93,49.46 123.21,49.01 123.52,48.6 123.76,48.11 123.97,47.62 L 124.04,47.64 Z M 124.04,47.64" />
            </g>
            <g id="kazSlowTop07-group1349">
                <path id="kazSlowTop07-bezier1791" stroke="none" fill="rgb(0, 0, 0)" d="M 118.98,44.67 C 119.35,44.34 119.77,44.07 120.28,43.91 120.53,43.83 120.81,43.73 121.09,43.82 121.37,43.91 121.63,44.11 121.71,44.42 L 121.67,44.48 120.98,44.57 C 120.79,44.59 120.6,44.51 120.38,44.5 119.95,44.51 119.48,44.6 119.02,44.73 L 118.98,44.67 Z M 118.98,44.67" />
            </g>
            <g id="kazSlowTop07-group1350">
                <path id="kazSlowTop07-bezier1792" stroke="none" fill="rgb(0, 0, 0)" d="M 106.3,35.33 C 105.66,36.16 104.71,36.67 103.76,37.07 102.79,37.46 101.77,37.71 100.74,37.84 98.66,38.07 96.52,37.8 94.55,37.05 93.54,36.65 92.68,36.25 91.71,36.07 90.77,35.88 89.82,35.89 89.02,36.25 88.22,36.6 87.58,37.32 87.09,38.16 86.57,39 86.26,39.99 85.74,40.91 L 85.65,40.87 C 85.87,39.87 86.02,38.84 86.43,37.84 86.82,36.86 87.51,35.85 88.59,35.33 89.66,34.79 90.89,34.86 91.92,35.15 92.97,35.41 93.94,35.96 94.83,36.35 96.65,37.14 98.68,37.49 100.69,37.37 101.69,37.3 102.7,37.13 103.66,36.8 104.6,36.47 105.56,36.03 106.23,35.26 L 106.3,35.33 Z M 106.3,35.33" />
            </g>
            <g id="kazSlowTop07-group1351">
                <path id="kazSlowTop07-bezier1793" stroke="none" fill="rgb(0, 0, 0)" d="M 86.74,19.37 C 87.19,21.24 87.8,23.08 88.73,24.73 89.2,25.54 89.76,26.32 90.5,26.79 90.87,27.02 91.27,27.15 91.68,27.14 92.07,27.14 92.5,26.97 92.96,26.82 94.73,26.2 96.41,25.19 98.4,24.76 99.38,24.55 100.46,24.48 101.46,24.83 102.46,25.16 103.27,25.86 103.8,26.68 L 103.73,26.74 C 102.99,26.12 102.17,25.64 101.29,25.49 100.41,25.34 99.51,25.46 98.63,25.71 96.87,26.22 95.11,27.06 93.21,27.61 L 92.49,27.8 C 92.23,27.86 91.95,27.9 91.67,27.89 91.11,27.87 90.57,27.66 90.13,27.35 89.26,26.72 88.73,25.85 88.28,24.97 87.43,23.19 86.96,21.29 86.64,19.39 L 86.74,19.37 Z M 86.74,19.37" />
            </g>
            <g id="kazSlowTop07-group1352">
                <path id="kazSlowTop07-bezier1794" stroke="none" fill="rgb(0, 0, 0)" d="M 96.09,32.81 C 95.18,32.48 94.24,32.29 93.29,32.2 92.35,32.1 91.4,32.1 90.48,32.24 89.55,32.37 88.7,32.71 87.85,33.01 87,33.33 86.21,33.76 85.35,34.29 L 85.28,34.22 C 85.73,33.31 86.53,32.59 87.44,32.1 88.35,31.6 89.41,31.49 90.41,31.44 92.41,31.36 94.4,31.81 96.13,32.72 L 96.09,32.81 Z M 96.09,32.81" />
            </g>
            <g id="kazSlowTop07-group1353">
                <path id="kazSlowTop07-bezier1795" stroke="none" fill="rgb(0, 0, 0)" d="M 85.01,15.43 C 82.51,15.57 80.01,15.83 77.54,16.2 75.06,16.56 72.63,17.09 70.19,17.73 67.74,18.3 65.23,18.66 62.71,18.81 60.18,18.95 57.66,18.93 55.11,18.57 L 55.63,18.05 C 56.01,19.97 56.35,21.89 56.62,23.83 56.86,25.77 57.13,27.7 57.02,29.74 56.78,31.77 56.26,33.61 55.83,35.52 55.61,36.46 55.43,37.41 55.28,38.36 55.15,39.31 55.05,40.28 55.24,41.23 L 55.14,41.26 C 54.82,40.31 54.83,39.3 54.87,38.32 54.92,37.34 55.06,36.36 55.2,35.4 55.47,33.47 55.96,31.53 56.09,29.69 56.1,27.82 55.84,25.88 55.6,23.96 55.35,22.05 55.07,20.12 54.75,18.21 L 54.64,17.58 55.27,17.69 C 57.68,18.1 60.2,18.2 62.67,18.12 65.16,18.03 67.64,17.73 70.08,17.22 72.51,16.65 75,16.19 77.49,15.89 79.99,15.59 82.49,15.4 85,15.33 L 85.01,15.43 Z M 85.01,15.43" />
            </g>
            <g id="kazSlowTop07-group1354">
                <path id="kazSlowTop07-bezier1796" stroke="none" fill="rgb(0, 0, 0)" d="M 55.18,41.84 C 57.7,41.3 60.27,41 62.86,40.9 65.44,40.82 68.06,40.97 70.62,41.54 71.91,41.83 73.1,42.23 74.35,42.47 75.6,42.74 76.85,42.98 78.1,43.21 80.61,43.7 83.15,44.04 85.69,44.45 L 85.69,44.55 C 83.1,44.71 80.51,44.51 77.94,44.19 76.66,44.01 75.38,43.77 74.12,43.44 72.86,43.13 71.62,42.65 70.42,42.32 67.98,41.67 65.42,41.42 62.87,41.4 60.31,41.36 57.74,41.53 55.2,41.93 L 55.18,41.84 Z M 55.18,41.84" />
            </g>
            <g id="kazSlowTop07-group1355">
                <path id="kazSlowTop07-bezier1797" stroke="none" fill="rgb(0, 0, 0)" d="M 49.01,41.85 C 49.81,41.37 50.73,41.1 51.67,40.98 52.13,40.91 52.62,40.84 53.09,40.94 53.56,41.04 54.01,41.2 54.41,41.51 L 54.39,41.58 C 53.9,41.67 53.45,41.67 53.01,41.68 52.57,41.69 52.14,41.59 51.7,41.57 50.82,41.56 49.91,41.64 49.04,41.91 L 49.01,41.85 Z M 49.01,41.85" />
            </g>
            <g id="kazSlowTop07-group1356">
                <path id="kazSlowTop07-bezier1798" stroke="none" fill="rgb(0, 0, 0)" d="M 49.36,18.63 L 51.88,18.48 C 52.3,18.44 52.71,18.36 53.13,18.39 53.54,18.43 53.95,18.48 54.39,18.63 L 54.4,18.71 C 54.01,18.96 53.58,19.07 53.15,19.14 52.73,19.2 52.3,19.12 51.88,19.08 51.03,19 50.19,18.87 49.36,18.71 L 49.36,18.63 Z M 49.36,18.63" />
            </g>
            <g id="kazSlowTop07-group1357">
                <path id="kazSlowTop07-bezier1799" stroke="none" fill="rgb(0, 0, 0)" d="M 50.01,27.41 C 50.34,27.56 50.69,27.59 51,27.58 51.17,27.56 51.32,27.49 51.47,27.53 51.63,27.58 51.8,27.63 52.02,27.8 L 52.03,27.87 C 51.9,28.11 51.71,28.22 51.51,28.28 51.3,28.34 51.1,28.24 50.9,28.17 50.52,28.04 50.16,27.8 49.96,27.46 L 50.01,27.41 Z M 50.01,27.41" />
            </g>
            <g id="kazSlowTop07-group1358">
                <path id="kazSlowTop07-bezier1800" stroke="none" fill="rgb(0, 0, 0)" d="M 49.71,33.1 C 50.01,32.8 50.35,32.53 50.73,32.32 50.92,32.2 51.11,32.06 51.36,32.06 51.59,32.07 51.9,32.15 52.04,32.43 L 52.01,32.5 C 51.77,32.62 51.65,32.73 51.48,32.8 51.33,32.88 51.13,32.85 50.94,32.88 50.56,32.95 50.16,33.05 49.75,33.16 L 49.71,33.1 Z M 49.71,33.1" />
            </g>
            <g id="kazSlowTop07-group1359">
                <path id="kazSlowTop07-bezier1801" stroke="none" fill="rgb(0, 0, 0)" d="M 120.72,14.51 C 120.52,13.88 120.38,13.24 120.38,12.56 120.37,12.22 120.35,11.83 120.58,11.48 120.77,11.12 121.39,10.88 121.7,11.18 L 121.69,11.25 C 121.34,11.44 121.32,11.61 121.24,11.83 121.18,12.06 121.04,12.32 120.98,12.62 120.85,13.21 120.81,13.85 120.79,14.5 L 120.72,14.51 Z M 120.72,14.51" />
            </g>
        </g>
    </g>
</svg>
