<?xml version="1.0" encoding="UTF-8"?>
<!DOCTYPE svg PUBLIC "-//W3C//DTD SVG 1.1//EN" "http://www.w3.org/Graphics/SVG/1.1/DTD/svg11.dtd">
<svg version="1.1" xmlns="http://www.w3.org/2000/svg" xmlns:xlink="http://www.w3.org/1999/xlink" width="160" height="160"  xml:space="preserve" id="kazSlowSide06">
    <!-- Generated by PaintCode - http://www.paintcodeapp.com -->
    <g id="kazSlowSide06-group">
        <circle id="kazSlowSide06-oval31" stroke="rgb(0, 0, 0)" stroke-width="2" stroke-miterlimit="10" fill="none" cx="126.63" cy="122" r="29" />
        <circle id="kazSlowSide06-oval32" stroke="rgb(0, 0, 0)" stroke-width="2" stroke-miterlimit="10" fill="none" cx="32.96" cy="122" r="29" />
        <circle id="kazSlowSide06-oval33" stroke="rgb(0, 0, 0)" stroke-width="2" stroke-miterlimit="10" fill="none" cx="71.47" cy="129" r="8.33" />
        <circle id="kazSlowSide06-oval34" stroke="rgb(0, 0, 0)" stroke-width="2" stroke-miterlimit="10" fill="none" cx="32.96" cy="122" r="2.5" />
        <path id="kazSlowSide06-bezier491" stroke="rgb(0, 0, 0)" stroke-width="2" stroke-miterlimit="10" fill="none" d="M 78,74.83 L 55.3,74.83 32.96,122 71.47,129" />
        <path id="kazSlowSide06-bezier492" stroke="rgb(0, 0, 0)" stroke-width="2" stroke-miterlimit="10" fill="none" d="M 105.3,74.83 L 90.92,74.83" />
        <path id="kazSlowSide06-bezier493" stroke="rgb(0, 0, 0)" stroke-width="2" stroke-miterlimit="10" fill="none" d="M 111.39,75.34 L 126.63,122" />
        <path id="kazSlowSide06-bezier494" stroke="rgb(0, 0, 0)" stroke-width="2" stroke-miterlimit="10" fill="none" d="M 79.55,118.43 L 77.28,120.66" />
        <path id="kazSlowSide06-bezier495" stroke="rgb(0, 0, 0)" stroke-width="2" stroke-miterlimit="10" fill="none" d="M 114.3,84.22 L 85.42,112.65" />
        <path id="kazSlowSide06-bezier496" stroke="rgb(0, 0, 0)" stroke-width="2" stroke-miterlimit="10" fill="none" d="M 68.57,119.55 L 53.47,65.83" />
        <path id="kazSlowSide06-bezier497" stroke="rgb(0, 0, 0)" stroke-width="2" stroke-miterlimit="10" fill="none" d="M 49.53,64.49 C 45.8,64.92 42.18,64.97 40.97,63.83 38.13,61.16 34.63,59.5 40.97,59.5" />
        <path id="kazSlowSide06-bezier498" stroke="rgb(0, 0, 0)" stroke-width="1" stroke-miterlimit="10" fill="none" d="M 66.4,120.66 L 37.03,120.66" />
        <path id="kazSlowSide06-bezier499" stroke="rgb(0, 0, 0)" stroke-width="1" stroke-miterlimit="10" fill="none" d="M 34.97,125.5 L 63.13,135.04" />
        <path id="kazSlowSide06-bezier500" stroke="rgb(0, 0, 0)" stroke-width="2" stroke-miterlimit="10" fill="none" d="M 124.72,79.79 C 124.72,79.79 128.88,78.75 128.88,73.25 128.88,67.75 125.05,64.33 118.22,64.33 111.38,64.33 109.76,64.33 109.76,64.33" />
        <path id="kazSlowSide06-bezier501" stroke="rgb(0, 0, 0)" stroke-width="2" stroke-miterlimit="10" fill="none" d="M 81.24,119.07 L 89.07,119.07" />
        <path id="kazSlowSide06-bezier502" stroke="rgb(0, 0, 0)" stroke-width="2" stroke-miterlimit="10" fill="none" d="M 50.58,137.64 L 58.4,137.64" />
        <g id="kazSlowSide06-group367">
            <g id="kazSlowSide06-group368">
                <path id="kazSlowSide06-bezier503" stroke="none" fill="rgb(0, 0, 0)" d="M 121.14,77.67 C 121.71,78.53 122.29,79.37 122.88,80.18 123.18,80.58 123.56,80.92 123.8,81.34 124.06,81.75 124.22,82.18 124.57,82.56 L 124.55,82.66 C 124.24,82.74 123.91,82.62 123.67,82.48 123.41,82.33 123.2,82.15 123.01,81.96 122.62,81.57 122.44,81.06 122.2,80.6 121.74,79.66 121.36,78.7 121.05,77.72 L 121.14,77.67 Z M 121.14,77.67" />
            </g>
            <g id="kazSlowSide06-group369">
                <path id="kazSlowSide06-bezier504" stroke="none" fill="rgb(0, 0, 0)" d="M 125.57,82.86 C 124.19,83.77 122.74,84.6 121.15,85.13 120.36,85.37 119.49,85.6 118.6,85.28 117.76,84.96 117.16,84.24 116.73,83.52 115.88,82.02 115.51,80.37 115.09,78.78 L 115.05,78.66 C 115.04,78.61 115.02,78.55 115,78.53 114.98,78.47 114.93,78.38 114.88,78.31 114.79,78.15 114.67,77.99 114.55,77.83 114.3,77.52 114.03,77.21 113.76,76.91 113.21,76.31 112.64,75.72 112.05,75.15 109.7,72.85 107.19,70.72 104.77,68.49 103.56,67.37 102.33,66.28 101.1,65.18 100.49,64.63 99.87,64.09 99.25,63.56 98.63,63.02 98,62.47 97.32,62.03 L 97.36,61.94 C 98.89,62.65 100.2,63.67 101.54,64.64 102.87,65.64 104.15,66.69 105.43,67.74 107.96,69.88 110.33,72.19 112.62,74.59 113.2,75.19 113.76,75.8 114.31,76.43 114.58,76.75 114.84,77.08 115.1,77.42 115.22,77.59 115.35,77.77 115.46,77.97 115.52,78.07 115.57,78.16 115.62,78.3 115.65,78.37 115.66,78.4 115.68,78.46 L 115.72,78.63 C 116.09,80.23 116.42,81.86 117.17,83.27 117.54,83.97 118.05,84.61 118.76,84.91 119.44,85.2 120.29,85.06 121.06,84.85 122.63,84.4 124.11,83.63 125.51,82.78 L 125.57,82.86 Z M 125.57,82.86" />
            </g>
            <g id="kazSlowSide06-group370">
                <path id="kazSlowSide06-bezier505" stroke="none" fill="rgb(0, 0, 0)" d="M 96.64,61.16 C 95.93,60.94 95.21,60.46 94.95,59.67 94.8,58.89 94.57,58.24 94.33,57.51 93.86,56.1 93.35,54.69 92.83,53.28 92.31,51.88 91.73,50.5 91.31,49.06 90.88,47.62 90.49,46.17 90.24,44.67 L 90.34,44.64 C 91.1,45.96 91.7,47.34 92.25,48.73 92.8,50.13 93.18,51.59 93.59,53.03 94.01,54.47 94.43,55.92 94.81,57.37 94.99,58.08 95.18,58.87 95.24,59.58 95.39,60.26 96.01,60.8 96.68,61.07 L 96.64,61.16 Z M 96.64,61.16" />
            </g>
            <g id="kazSlowSide06-group371">
                <path id="kazSlowSide06-bezier506" stroke="none" fill="rgb(0, 0, 0)" d="M 98.11,35.58 C 98.51,36.39 98.82,37.25 99.13,38.1 99.43,38.96 99.73,39.8 99.99,40.69 L 100.08,41 99.72,41.01 C 97.92,41.02 96.14,41.43 94.45,42.07 93.61,42.39 92.79,42.78 91.98,43.18 91.17,43.57 90.35,43.98 89.59,44.42 L 89.05,44.72 88.91,44.18 C 88.75,43.56 88.58,42.93 88.4,42.3 88.31,41.99 88.2,41.69 88.1,41.39 87.99,41.1 87.87,40.77 87.65,40.58 L 87.69,40.49 C 88.06,40.62 88.23,40.95 88.44,41.21 88.64,41.49 88.79,41.78 88.95,42.08 89.26,42.68 89.53,43.28 89.77,43.91 L 89.09,43.67 C 90.64,42.55 92.37,41.8 94.17,41.26 95.97,40.72 97.85,40.38 99.74,40.49 L 99.48,40.8 C 99.29,39.94 99.06,39.06 98.83,38.19 98.58,37.32 98.35,36.45 98.01,35.62 L 98.11,35.58 Z M 98.11,35.58" />
            </g>
            <g id="kazSlowSide06-group372">
                <path id="kazSlowSide06-bezier507" stroke="none" fill="rgb(0, 0, 0)" d="M 98.82,41.46 C 99.62,43.62 100.3,45.83 100.83,48.09 101.09,49.21 101.4,50.34 101.47,51.51 101.54,52.67 101.52,53.85 101.26,55 L 101.16,55.01 C 100.87,53.86 100.68,52.75 100.48,51.63 100.27,50.51 100.22,49.37 100.04,48.24 99.7,45.98 99.25,43.73 98.72,41.49 L 98.82,41.46 Z M 98.82,41.46" />
            </g>
            <g id="kazSlowSide06-group373">
                <path id="kazSlowSide06-bezier508" stroke="none" fill="rgb(0, 0, 0)" d="M 102.45,56.46 C 104.88,57.59 106.93,59.55 108.28,61.87 109.73,64.08 111.4,66.16 113.08,68.21 114.78,70.26 116.56,72.24 118.33,74.18 118.77,74.66 119.22,75.15 119.69,75.52 120.11,75.85 120.75,75.97 121.38,76.12 122.03,76.25 122.75,76.4 123.36,76.8 123.95,77.22 124.37,77.8 124.64,78.41 L 124.55,78.46 C 124.15,77.94 123.69,77.46 123.12,77.2 122.57,76.92 121.95,76.86 121.28,76.8 120.62,76.74 119.88,76.66 119.19,76.22 118.59,75.8 118.1,75.34 117.61,74.87 115.69,72.97 114.08,70.83 112.45,68.71 110.84,66.58 109.25,64.43 107.85,62.13 106.64,59.79 104.76,57.8 102.41,56.55 L 102.45,56.46 Z M 102.45,56.46" />
            </g>
            <g id="kazSlowSide06-group374">
                <path id="kazSlowSide06-bezier509" stroke="none" fill="rgb(0, 0, 0)" d="M 100.24,26.13 C 100.84,27.19 101.67,28.12 102.63,28.84 103.59,29.58 104.67,30.03 105.86,30.3 107.04,30.6 108.24,30.76 109.38,30.87 110.51,30.97 111.69,30.86 112.11,29.59 L 112.2,29.6 C 112.29,30.23 111.98,31.01 111.33,31.38 110.71,31.76 110,31.85 109.35,31.87 108.02,31.89 106.81,31.46 105.63,31.07 104.44,30.7 103.24,30.08 102.31,29.22 101.38,28.35 100.64,27.32 100.15,26.17 L 100.24,26.13 Z M 100.24,26.13" />
            </g>
            <g id="kazSlowSide06-group375">
                <path id="kazSlowSide06-bezier510" stroke="none" fill="rgb(0, 0, 0)" d="M 112.37,26.49 C 113.01,26.41 113.69,26.24 114.16,25.85 114.39,25.65 114.52,25.38 114.5,25.11 114.49,24.84 114.34,24.55 114.23,24.22 113.78,22.96 113.35,21.69 113.08,20.35 112.95,19.67 112.81,19 112.9,18.21 113.01,17.57 113.02,17.01 112.97,16.38 112.84,15.16 112.6,13.84 111.53,13.05 L 111.57,12.96 C 112.27,13.08 112.85,13.65 113.22,14.25 113.61,14.86 113.83,15.55 113.96,16.25 114.01,16.6 114.03,16.96 114.03,17.32 114.03,17.5 114.01,17.69 113.98,17.87 113.96,18.05 113.89,18.28 113.88,18.38 113.75,18.92 113.8,19.59 113.86,20.22 114.03,21.5 114.35,22.79 114.7,24.07 114.77,24.38 114.92,24.71 114.9,25.11 114.89,25.51 114.64,25.88 114.34,26.08 113.74,26.49 113.04,26.57 112.37,26.59 L 112.37,26.49 Z M 112.37,26.49" />
            </g>
            <g id="kazSlowSide06-group376">
                <path id="kazSlowSide06-bezier511" stroke="none" fill="rgb(0, 0, 0)" d="M 103.95,23.9 C 103.45,23.44 103.01,22.93 102.65,22.33 102.47,22.03 102.22,21.72 102.22,21.32 102.21,20.95 102.34,20.44 102.77,20.25 L 102.86,20.3 C 102.96,20.69 103.1,20.88 103.21,21.15 103.32,21.39 103.3,21.71 103.38,22.01 103.55,22.61 103.78,23.23 104.03,23.84 L 103.95,23.9 Z M 103.95,23.9" />
            </g>
            <g id="kazSlowSide06-group377">
                <path id="kazSlowSide06-bezier512" stroke="none" fill="rgb(0, 0, 0)" d="M 98.23,32.2 C 98.96,31.7 99.73,31.25 100.54,30.87 100.94,30.68 101.34,30.42 101.81,30.39 102.26,30.35 102.8,30.36 103.23,30.71 L 103.21,30.81 C 102.77,31.02 102.43,31.21 102.04,31.36 101.66,31.53 101.22,31.53 100.8,31.63 99.97,31.83 99.12,32.05 98.27,32.29 L 98.23,32.2 Z M 98.23,32.2" />
            </g>
            <g id="kazSlowSide06-group378">
                <path id="kazSlowSide06-bezier513" stroke="none" fill="rgb(0, 0, 0)" d="M 85.08,24.42 C 83.88,24.47 82.69,24.59 81.51,24.73 80.31,24.87 79.15,25.02 78,25.35 75.7,25.94 73.45,26.75 71.25,27.64 69.04,28.55 66.9,29.61 64.69,30.52 63.57,30.95 62.46,31.42 61.32,31.81 60.18,32.19 59.02,32.58 57.79,32.66 L 57.78,32.56 C 58.92,32.21 59.98,31.68 61.06,31.16 L 64.28,29.6 C 66.44,28.57 68.69,27.71 70.96,26.9 73.23,26.09 75.53,25.37 77.89,24.87 79.06,24.6 80.3,24.5 81.48,24.43 82.68,24.36 83.88,24.3 85.08,24.32 L 85.08,24.42 Z M 85.08,24.42" />
            </g>
            <g id="kazSlowSide06-group379">
                <path id="kazSlowSide06-bezier514" stroke="none" fill="rgb(0, 0, 0)" d="M 57.15,33.48 C 58.78,35.48 60.33,37.55 61.77,39.7 62.48,40.78 63.17,41.89 63.78,43.04 64.39,44.19 64.96,45.37 65.27,46.71 L 64.69,46.43 C 65.81,45.8 66.94,45.21 68.08,44.64 69.23,44.07 70.4,43.56 71.6,43.09 72.8,42.65 74.01,42.22 75.27,41.92 76.51,41.62 77.81,41.35 79.11,41.54 L 79.1,41.64 C 77.84,41.74 76.65,42.16 75.47,42.58 74.29,43.02 73.12,43.49 71.97,44.01 L 68.51,45.54 C 67.35,46.05 66.19,46.58 65.07,47.14 L 64.58,47.38 64.48,46.86 C 64.26,45.67 63.75,44.48 63.2,43.34 62.64,42.19 62.01,41.07 61.35,39.97 60.03,37.77 58.6,35.62 57.08,33.54 L 57.15,33.48 Z M 57.15,33.48" />
            </g>
            <g id="kazSlowSide06-group380">
                <path id="kazSlowSide06-bezier515" stroke="none" fill="rgb(0, 0, 0)" d="M 81.01,42.03 C 81.53,42.27 82.1,42.41 82.65,42.5 83.21,42.6 83.77,42.63 84.32,42.59 84.87,42.56 85.39,42.37 85.92,42.32 86.47,42.26 87.01,42.17 87.65,42.16 L 87.7,42.25 C 87.3,42.76 86.75,43.08 86.16,43.29 85.56,43.51 84.91,43.45 84.3,43.39 83.07,43.28 81.9,42.84 80.96,42.11 L 81.01,42.03 Z M 81.01,42.03" />
            </g>
            <g id="kazSlowSide06-group381">
                <path id="kazSlowSide06-bezier516" stroke="none" fill="rgb(0, 0, 0)" d="M 56.37,35.07 C 55.42,36.06 54.38,36.96 53.23,37.75 52.65,38.14 52.08,38.58 51.38,38.78 50.7,38.97 49.91,39.09 49.21,38.77 L 49.22,38.67 C 49.89,38.43 50.44,38.14 51.02,37.85 51.58,37.55 52.22,37.36 52.82,37.06 54.01,36.46 55.18,35.75 56.31,35 L 56.37,35.07 Z M 56.37,35.07" />
            </g>
            <g id="kazSlowSide06-group382">
                <path id="kazSlowSide06-bezier517" stroke="none" fill="rgb(0, 0, 0)" d="M 61.93,50.44 C 60.89,49.27 59.77,48.18 58.58,47.17 57.38,46.18 56.11,45.25 54.73,44.56 54.04,44.2 53.32,43.99 52.57,43.7 51.83,43.41 51.11,43.05 50.42,42.65 49.05,41.83 47.79,40.86 46.71,39.63 L 47.15,39.69 C 45.18,41.2 43.38,43.04 42.07,45.14 40.75,47.24 39.99,49.68 40.42,52.08 40.77,54.5 41.77,56.84 43.31,58.77 44.85,60.7 46.84,62.38 49.23,63.24 L 49.2,63.33 C 46.67,62.8 44.44,61.21 42.71,59.28 40.99,57.31 39.77,54.86 39.39,52.22 39.18,50.92 39.28,49.51 39.65,48.24 40.02,46.96 40.63,45.77 41.35,44.68 42.82,42.51 44.67,40.68 46.78,39.16 L 47.02,38.98 47.22,39.22 C 48.18,40.37 49.41,41.37 50.7,42.18 51.36,42.59 52.05,42.94 52.75,43.25 53.44,43.55 54.23,43.81 54.92,44.2 56.32,44.96 57.57,45.94 58.74,46.98 59.91,48.04 61,49.17 62,50.38 L 61.93,50.44 Z M 61.93,50.44" />
            </g>
            <g id="kazSlowSide06-group383">
                <path id="kazSlowSide06-bezier518" stroke="none" fill="rgb(0, 0, 0)" d="M 55.27,63.39 C 57.18,64.53 59.19,65.5 61.26,66.25 62.3,66.62 63.36,66.94 64.43,67.14 64.96,67.24 65.5,67.31 66.04,67.33 66.55,67.35 67.16,67.35 67.72,67.4 69.98,67.6 72.2,68.04 74.34,68.71 76.47,69.4 78.57,70.16 80.57,71.2 L 80.53,71.29 C 78.35,70.8 76.22,70.18 74.06,69.67 71.92,69.14 69.8,68.49 67.63,68.2 67.08,68.12 66.58,68.1 65.99,68.06 65.41,68 64.85,67.9 64.29,67.77 63.19,67.52 62.12,67.14 61.08,66.71 59.02,65.82 57.06,64.73 55.22,63.48 L 55.27,63.39 Z M 55.27,63.39" />
            </g>
            <g id="kazSlowSide06-group384">
                <path id="kazSlowSide06-bezier519" stroke="none" fill="rgb(0, 0, 0)" d="M 80.6,72.77 C 79.48,74.95 78.45,77.23 77.95,79.6 77.72,80.75 77.79,82.01 77.73,83.23 L 77.63,86.93 C 77.56,89.4 77.51,91.87 77.17,94.33 76.98,95.56 76.79,96.79 76.5,98 76.19,99.2 75.84,100.43 75.18,101.5 L 75.09,101.45 C 75.48,100.29 75.65,99.08 75.81,97.87 75.96,96.66 76.09,95.44 76.18,94.22 76.38,91.78 76.65,89.34 76.83,86.89 L 77.08,83.2 C 77.19,81.98 77.17,80.75 77.46,79.49 78.11,77.05 79.27,74.86 80.51,72.72 L 80.6,72.77 Z M 80.6,72.77" />
            </g>
            <g id="kazSlowSide06-group385">
                <path id="kazSlowSide06-bezier520" stroke="none" fill="rgb(0, 0, 0)" d="M 60.32,51.31 C 65.54,52.27 70.67,53.77 75.61,55.81 78.08,56.82 80.52,57.94 82.77,59.42 84.99,60.92 87.12,62.62 88.76,64.74 L 88.69,64.81 C 86.65,63.1 84.51,61.58 82.24,60.27 79.98,58.93 77.69,57.64 75.29,56.54 72.89,55.44 70.43,54.48 67.92,53.63 65.42,52.77 62.88,52.01 60.3,51.4 L 60.32,51.31 Z M 60.32,51.31" />
            </g>
            <g id="kazSlowSide06-group386">
                <path id="kazSlowSide06-bezier521" stroke="none" fill="rgb(0, 0, 0)" d="M 90.32,71.9 C 89.67,74.68 88.97,77.48 88.63,80.28 88.61,80.45 88.6,80.63 88.61,80.79 88.63,80.91 88.62,81.21 88.58,81.37 88.52,81.74 88.44,82.09 88.35,82.44 88.17,83.14 87.97,83.82 87.76,84.51 L 86.5,88.62 83.9,96.8 C 83.47,98.16 83.02,99.52 82.58,100.87 82.14,102.21 81.62,103.59 81.35,104.9 L 81.23,105.47 80.76,105.2 C 79.87,104.68 78.95,104.16 78.01,103.71 77.54,103.49 77.07,103.27 76.58,103.1 76.11,102.94 75.58,102.73 75.11,102.89 L 75.06,102.8 C 75.59,102.53 76.16,102.69 76.68,102.78 77.2,102.9 77.71,103.05 78.21,103.24 79.21,103.61 80.19,104.02 81.15,104.5 L 80.56,104.8 C 80.8,103.29 81.22,101.96 81.62,100.57 82.03,99.19 82.48,97.83 82.95,96.48 L 85.82,88.39 87.21,84.34 C 87.43,83.66 87.65,82.98 87.85,82.3 87.94,81.96 88.04,81.62 88.11,81.28 88.18,81.02 88.12,80.59 88.19,80.23 88.66,77.37 89.46,74.63 90.22,71.87 L 90.32,71.9 Z M 90.32,71.9" />
            </g>
            <g id="kazSlowSide06-group387">
                <path id="kazSlowSide06-bezier522" stroke="none" fill="rgb(0, 0, 0)" d="M 73.36,108.74 L 74.08,106.46 C 74.2,106.09 74.23,105.69 74.42,105.36 74.6,105.02 74.84,104.74 75.07,104.38 L 75.17,104.36 C 75.5,104.8 75.42,105.29 75.36,105.69 75.29,106.11 75.01,106.44 74.81,106.79 74.4,107.49 73.94,108.15 73.44,108.79 L 73.36,108.74 Z M 73.36,108.74" />
            </g>
            <g id="kazSlowSide06-group388">
                <path id="kazSlowSide06-bezier523" stroke="none" fill="rgb(0, 0, 0)" d="M 80.56,117.95 C 79.1,117.48 77.62,117.07 76.13,116.79 75.39,116.65 74.64,116.54 73.91,116.56 73.12,116.58 72.32,116.5 71.53,116.29 70.76,116.07 69.9,115.73 69.37,114.87 69.12,114.43 69.05,113.91 69.11,113.45 69.18,112.98 69.36,112.58 69.55,112.2 70.41,110.85 71.4,109.66 72.59,108.65 L 72.67,108.71 C 71.91,110.06 71.11,111.37 70.44,112.67 70.13,113.29 70,113.92 70.24,114.4 70.47,114.9 71.1,115.29 71.76,115.53 72.44,115.76 73.18,115.88 73.92,115.91 74.72,115.94 75.49,116.11 76.24,116.3 77.73,116.72 79.17,117.26 80.59,117.86 L 80.56,117.95 Z M 80.56,117.95" />
            </g>
            <g id="kazSlowSide06-group389">
                <path id="kazSlowSide06-bezier524" stroke="none" fill="rgb(0, 0, 0)" d="M 74.19,109.62 C 74.77,110.07 75.38,110.44 76,110.69 76.32,110.82 76.65,110.81 76.92,110.96 77.2,111.09 77.47,111.22 77.86,111.44 L 77.88,111.54 C 77.56,111.87 77.1,111.96 76.68,111.93 76.25,111.9 75.92,111.61 75.61,111.38 74.98,110.92 74.49,110.34 74.12,109.69 L 74.19,109.62 Z M 74.19,109.62" />
            </g>
            <g id="kazSlowSide06-group390">
                <path id="kazSlowSide06-bezier525" stroke="none" fill="rgb(0, 0, 0)" d="M 79.45,110.56 C 79.71,110.27 80.01,110.01 80.41,109.88 80.6,109.82 80.84,109.81 81.04,109.91 81.25,110.01 81.38,110.2 81.5,110.32 82.02,110.86 82.57,111.39 83.12,111.9 83.68,112.41 84.24,112.91 84.82,113.38 85.12,113.61 85.41,113.83 85.72,114.03 86.01,114.22 86.35,114.42 86.58,114.43 87.41,114.55 88.14,114.79 88.88,115.1 89.61,115.44 90.34,115.78 90.91,116.6 91.04,116.79 91.14,117.16 91.13,117.38 91.13,117.6 91.14,117.83 91,118.14 90.85,118.48 90.49,118.65 90.27,118.68 90.03,118.73 89.83,118.73 89.62,118.73 88.83,118.7 88.09,118.59 87.32,118.46 L 87.32,118.36 C 88.08,118.21 88.85,118.15 89.57,118.03 89.93,117.98 90.28,117.83 90.2,117.79 90.2,117.75 90.21,117.59 90.19,117.43 90.17,117.27 90.15,117.27 90.07,117.14 89.75,116.71 89.08,116.32 88.46,115.99 87.83,115.66 87.13,115.37 86.46,115.22 85.94,115.11 85.63,114.85 85.3,114.62 84.98,114.38 84.69,114.13 84.4,113.87 83.83,113.35 83.3,112.81 82.77,112.25 82.26,111.69 81.75,111.12 81.28,110.51 81.06,110.17 80.83,109.99 80.46,110.07 80.12,110.15 79.8,110.38 79.53,110.63 L 79.45,110.56 Z M 79.45,110.56" />
            </g>
            <g id="kazSlowSide06-group391">
                <path id="kazSlowSide06-bezier526" stroke="none" fill="rgb(0, 0, 0)" d="M 78.53,110.19 C 78.46,109.62 78.44,109.06 78.49,108.49 78.52,108.2 78.48,107.88 78.66,107.61 78.75,107.48 78.86,107.35 79.02,107.24 79.15,107.14 79.41,107.02 79.61,107.13 L 79.62,107.23 C 79.55,107.53 79.64,107.74 79.59,107.99 79.57,108.23 79.38,108.43 79.27,108.68 79.06,109.17 78.85,109.68 78.63,110.2 L 78.53,110.19 Z M 78.53,110.19" />
            </g>
            <g id="kazSlowSide06-group392">
                <path id="kazSlowSide06-bezier527" stroke="none" fill="rgb(0, 0, 0)" d="M 62.76,136.4 C 62.16,136.74 61.46,136.87 60.78,136.97 60.44,137.02 60.1,137.09 59.76,137.06 59.42,137.02 59.08,136.98 58.74,136.83 L 58.74,136.78 C 59.08,136.64 59.42,136.61 59.75,136.56 60.09,136.53 60.42,136.57 60.76,136.57 61.42,136.56 62.1,136.55 62.74,136.35 L 62.76,136.4 Z M 62.76,136.4" />
            </g>
            <g id="kazSlowSide06-group393">
                <path id="kazSlowSide06-bezier528" stroke="none" fill="rgb(0, 0, 0)" d="M 52.18,128.98 C 52.52,129.25 52.86,129.51 53.2,129.76 53.38,129.88 53.57,129.98 53.71,130.14 53.85,130.31 53.99,130.47 54.07,130.72 L 54.04,130.76 C 53.78,130.74 53.59,130.63 53.39,130.52 53.2,130.41 53.08,130.22 52.93,130.06 52.64,129.73 52.38,129.38 52.14,129.01 L 52.18,128.98 Z M 52.18,128.98" />
            </g>
            <g id="kazSlowSide06-group394">
                <path id="kazSlowSide06-bezier529" stroke="none" fill="rgb(0, 0, 0)" d="M 89.38,65.16 C 90.2,65.85 90.77,66.85 91.05,67.93 91.19,68.47 91.34,69.04 91.22,69.6 91.11,70.15 90.89,70.69 90.47,71.11 L 90.38,71.08 C 90.26,70.51 90.25,70.01 90.22,69.52 90.19,69.04 90.3,68.56 90.26,68.06 90.23,67.57 90.13,67.08 89.97,66.61 89.82,66.13 89.61,65.65 89.31,65.23 L 89.38,65.16 Z M 89.38,65.16" />
            </g>
            <g id="kazSlowSide06-group395">
                <path id="kazSlowSide06-bezier530" stroke="none" fill="rgb(0, 0, 0)" d="M 49.88,136.52 C 48.86,136.36 47.84,136.24 46.82,136.18 46.31,136.14 45.8,136.12 45.29,136.12 45.04,136.12 44.77,136.13 44.51,136.11 44.22,136.09 43.94,136.05 43.65,135.96 43.1,135.81 42.49,135.43 42.19,134.8 41.9,134.18 41.96,133.49 42.16,132.95 42.57,131.98 42.96,131.04 43.59,130.15 L 43.68,130.19 C 43.58,131.23 43.39,132.27 43.12,133.24 42.91,134.11 43.02,134.86 43.92,135.2 44.12,135.29 44.35,135.35 44.57,135.39 44.82,135.43 45.06,135.45 45.32,135.47 45.85,135.52 46.37,135.6 46.88,135.69 47.9,135.88 48.91,136.13 49.9,136.42 L 49.88,136.52 Z M 49.88,136.52" />
            </g>
            <g id="kazSlowSide06-group396">
                <path id="kazSlowSide06-bezier531" stroke="none" fill="rgb(0, 0, 0)" d="M 54.1,99.72 C 54.33,98.44 54.63,97.15 55.17,95.92 55.44,95.31 55.71,94.65 56.24,94.17 56.75,93.69 57.41,93.31 58.12,93.28 L 58.16,93.38 C 57.7,93.9 57.33,94.34 56.98,94.83 56.65,95.32 56.21,95.76 55.88,96.29 55.22,97.36 54.7,98.55 54.2,99.75 L 54.1,99.72 Z M 54.1,99.72" />
            </g>
            <g id="kazSlowSide06-group397">
                <path id="kazSlowSide06-bezier532" stroke="none" fill="rgb(0, 0, 0)" d="M 48.17,119.48 C 48.6,118.25 49.03,117.01 49.44,115.76 49.86,114.52 50.27,113.28 50.64,112.03 51,110.78 51.23,109.51 51.61,108.26 51.99,107.01 52.37,105.76 52.92,104.54 L 53.02,104.56 C 53,105.9 52.83,107.2 52.58,108.5 52.33,109.79 51.87,111.05 51.4,112.28 50.46,114.76 49.39,117.15 48.26,119.52 L 48.17,119.48 Z M 48.17,119.48" />
            </g>
            <g id="kazSlowSide06-group398">
                <path id="kazSlowSide06-bezier533" stroke="none" fill="rgb(0, 0, 0)" d="M 53.45,124.55 C 52.32,124.35 51.19,124.16 50.06,123.94 49.5,123.84 48.94,123.74 48.37,123.66 47.82,123.59 47.25,123.38 46.78,123.23 L 46.21,123.04 46.45,122.67 C 46.68,122.32 46.94,121.98 47.26,121.67 L 47.35,121.7 C 47.34,122.15 47.27,122.58 47.17,122.99 L 46.84,122.44 C 47.51,122.42 48.05,122.5 48.61,122.69 L 50.24,123.26 C 51.33,123.62 52.41,124.03 53.48,124.45 L 53.45,124.55 Z M 53.45,124.55" />
            </g>
            <g id="kazSlowSide06-group399">
                <path id="kazSlowSide06-bezier534" stroke="none" fill="rgb(0, 0, 0)" d="M 51.4,76.82 C 50.11,75.3 48.98,73.64 47.9,71.97 47.37,71.13 46.77,70.32 46.35,69.41 45.93,68.51 45.56,67.58 45.34,66.57 L 45.43,66.52 C 46.14,67.28 46.7,68.1 47.23,68.93 47.77,69.76 48.14,70.69 48.59,71.57 49.51,73.32 50.43,75.07 51.48,76.76 L 51.4,76.82 Z M 51.4,76.82" />
            </g>
            <g id="kazSlowSide06-group400">
                <path id="kazSlowSide06-bezier535" stroke="none" fill="rgb(0, 0, 0)" d="M 57.68,90.92 C 57.16,89.14 56.59,87.37 55.98,85.63 55.67,84.76 55.26,83.93 55.01,83.05 54.75,82.17 54.5,81.3 54.31,80.36 L 54.4,80.31 C 55.09,81 55.56,81.85 55.95,82.7 56.35,83.56 56.52,84.5 56.75,85.4 57.19,87.22 57.54,89.05 57.77,90.9 L 57.68,90.92 Z M 57.68,90.92" />
            </g>
            <g id="kazSlowSide06-group401">
                <path id="kazSlowSide06-bezier536" stroke="none" fill="rgb(0, 0, 0)" d="M 67.11,76.17 C 67.53,77.9 68.04,79.6 68.52,81.32 68.98,83.04 69.43,84.77 69.62,86.59 L 69.62,86.56 69.97,88.78 C 70.1,89.59 70.06,90.37 69.95,91.16 69.83,91.94 69.58,92.72 69.2,93.43 68.8,94.13 68.29,94.78 67.67,95.28 L 67.75,95.18 C 67.42,95.67 67.07,96.14 66.73,96.62 L 66.76,96.56 C 66.24,97.53 65.72,98.5 65.13,99.43 L 65.04,99.39 C 65.33,98.32 65.7,97.29 66.06,96.26 L 66.06,96.25 66.08,96.21 C 66.37,95.69 66.65,95.18 66.95,94.67 L 66.98,94.63 67.04,94.57 C 68.04,93.6 68.71,92.36 69.04,90.98 69.18,90.3 69.27,89.56 69.19,88.89 L 68.88,86.67 68.88,86.65 68.88,86.64 C 68.79,84.91 68.43,83.16 68.07,81.42 67.71,79.68 67.31,77.94 67.01,76.19 L 67.11,76.17 Z M 67.11,76.17" />
            </g>
            <g id="kazSlowSide06-group402">
                <path id="kazSlowSide06-bezier537" stroke="none" fill="rgb(0, 0, 0)" d="M 65.61,69.32 C 65.9,69.88 66.17,70.46 66.4,71.04 66.51,71.33 66.71,71.6 66.71,71.92 66.72,72.24 66.69,72.57 66.49,72.93 L 66.39,72.95 C 66.05,72.71 65.88,72.44 65.74,72.15 65.6,71.87 65.65,71.54 65.62,71.23 65.56,70.6 65.52,69.98 65.51,69.34 L 65.61,69.32 Z M 65.61,69.32" />
            </g>
            <g id="kazSlowSide06-group403">
                <path id="kazSlowSide06-bezier538" stroke="none" fill="rgb(0, 0, 0)" d="M 54.77,121.75 C 54.77,122.27 54.64,122.74 54.48,123.19 54.31,123.65 54.11,124.07 53.81,124.5 53.76,124.24 53.79,123.98 53.83,123.74 53.86,123.49 53.93,123.26 54.01,123.02 54.19,122.57 54.41,122.13 54.77,121.75 Z M 54.77,121.75" />
            </g>
            <g id="kazSlowSide06-group404">
                <path id="kazSlowSide06-bezier539" stroke="none" fill="rgb(0, 0, 0)" d="M 58.62,112.99 C 58.27,114.19 57.79,115.33 57.3,116.47 56.78,117.6 56.24,118.71 55.58,119.78 55.88,118.56 56.34,117.4 56.84,116.26 57.36,115.14 57.91,114.02 58.62,112.99 Z M 58.62,112.99" />
            </g>
            <g id="kazSlowSide06-group405">
                <path id="kazSlowSide06-bezier540" stroke="none" fill="rgb(0, 0, 0)" d="M 62.65,104.83 C 62.55,105.52 62.31,106.15 62.04,106.76 61.74,107.36 61.42,107.95 60.95,108.47 61.06,107.78 61.31,107.16 61.58,106.55 61.87,105.94 62.19,105.36 62.65,104.83 Z M 62.65,104.83" />
            </g>
            <g id="kazSlowSide06-group406">
                <path id="kazSlowSide06-bezier541" stroke="none" fill="rgb(0, 0, 0)" d="M 51.6,127.44 C 51.58,127.72 51.55,128 51.52,128.26 51.51,128.4 51.53,128.54 51.46,128.66 51.39,128.78 51.32,128.88 51.17,129 L 51.12,128.99 C 50.99,128.84 50.99,128.68 50.98,128.54 50.98,128.39 51.07,128.27 51.14,128.15 51.26,127.9 51.4,127.66 51.56,127.43 L 51.6,127.44 Z M 51.6,127.44" />
            </g>
            <g id="kazSlowSide06-group407">
                <path id="kazSlowSide06-bezier542" stroke="none" fill="rgb(0, 0, 0)" d="M 46.71,126.08 C 46.66,126.45 46.6,126.81 46.51,127.17 46.47,127.35 46.46,127.54 46.36,127.7 46.24,127.86 46.13,128.02 45.92,128.11 L 45.87,128.09 C 45.84,127.87 45.87,127.7 45.9,127.51 45.93,127.34 46.05,127.19 46.14,127.03 46.3,126.71 46.48,126.39 46.66,126.07 L 46.71,126.08 Z M 46.71,126.08" />
            </g>
            <g id="kazSlowSide06-group408">
                <path id="kazSlowSide06-bezier543" stroke="none" fill="rgb(0, 0, 0)" d="M 112.12,11.98 C 110.63,10.72 108.75,9.98 106.85,9.6 104.95,9.23 102.95,9.2 101.06,9.54 99.18,9.9 97.46,10.89 96.02,12.16 94.58,13.44 93.37,14.97 92.29,16.58 90.12,19.83 88.5,23.41 86.51,26.82 85.49,28.51 84.46,30.23 83.11,31.73 82.43,32.46 81.67,33.16 80.77,33.66 79.88,34.15 78.83,34.39 77.84,34.21 L 77.85,34.11 C 78.83,34.13 79.76,33.82 80.54,33.27 81.32,32.74 81.98,32.03 82.57,31.28 83.75,29.75 84.72,28.06 85.64,26.33 87.49,22.89 89.33,19.38 91.63,16.13 92.77,14.51 94.06,12.96 95.6,11.66 97.13,10.37 98.97,9.38 100.97,9.04 102.96,8.76 104.97,8.86 106.91,9.3 108.84,9.77 110.72,10.57 112.19,11.91 L 112.12,11.98 Z M 112.12,11.98" />
            </g>
            <g id="kazSlowSide06-group409">
                <path id="kazSlowSide06-bezier544" stroke="none" fill="rgb(0, 0, 0)" d="M 110.63,14.23 C 110.59,14.97 110.48,15.72 110.29,16.44 110.1,17.16 109.83,17.9 109.29,18.48 109.02,18.77 108.66,19 108.25,19.07 107.86,19.14 107.49,19.13 107.11,19.14 L 104.89,19.16 C 103.41,19.19 101.94,19.29 100.53,19.62 99.13,19.95 97.76,20.54 96.94,21.63 96.53,22.17 96.29,22.81 96.2,23.48 96.13,24.15 96.09,24.96 95.98,25.7 95.77,27.2 95.39,28.67 94.87,30.1 94.31,31.51 93.65,32.88 92.76,34.12 91.88,35.32 90.78,36.58 89.26,36.93 L 89.23,36.83 C 89.91,36.56 90.46,36.06 90.93,35.52 91.41,34.98 91.82,34.38 92.18,33.75 92.9,32.49 93.48,31.15 93.92,29.76 94.39,28.39 94.74,26.97 95,25.54 95.14,24.82 95.19,24.14 95.32,23.34 95.46,22.55 95.79,21.77 96.31,21.14 97.36,19.85 98.92,19.28 100.39,18.98 101.88,18.69 103.39,18.64 104.88,18.66 L 107.11,18.74 C 107.48,18.75 107.86,18.77 108.19,18.72 108.52,18.68 108.83,18.51 109.08,18.27 109.58,17.78 109.88,17.08 110.1,16.39 110.31,15.69 110.45,14.95 110.53,14.22 L 110.63,14.23 Z M 110.63,14.23" />
            </g>
            <g id="kazSlowSide06-group410">
                <path id="kazSlowSide06-bezier545" stroke="none" fill="rgb(0, 0, 0)" d="M 100.72,24.65 C 100.1,24.54 99.45,24.55 98.86,24.72 98.27,24.89 97.79,25.28 97.56,25.81 97.32,26.34 97.3,26.94 97.34,27.56 L 97.42,29.5 C 97.46,30.79 97.51,32.1 97.27,33.4 97.13,34.04 96.97,34.69 96.69,35.31 96.41,35.92 96.03,36.55 95.42,36.87 L 95.36,36.8 C 96.07,35.75 96.13,34.48 96.27,33.26 96.38,32.02 96.55,30.76 96.62,29.48 L 96.69,27.57 C 96.7,26.93 96.77,26.2 97.12,25.58 97.47,24.95 98.13,24.54 98.79,24.43 99.46,24.31 100.12,24.37 100.75,24.55 L 100.72,24.65 Z M 100.72,24.65" />
            </g>
            <g id="kazSlowSide06-group411">
                <path id="kazSlowSide06-bezier546" stroke="none" fill="rgb(0, 0, 0)" d="M 102.43,15.84 C 100.59,15.88 98.75,16.35 97.17,17.23 95.58,18.1 94.32,19.48 93.63,21.11 93.28,21.93 93.07,22.78 92.94,23.69 92.78,24.62 92.57,25.53 92.31,26.44 92.03,27.34 91.71,28.24 91.24,29.08 90.99,29.5 90.72,29.92 90.33,30.26 90.14,30.42 89.9,30.56 89.66,30.63 89.42,30.7 89.18,30.7 88.98,30.77 L 88.92,30.69 C 89.13,30.53 89.37,30.47 89.55,30.36 89.73,30.25 89.88,30.11 90.01,29.94 90.27,29.61 90.45,29.2 90.6,28.79 90.91,27.95 91.14,27.06 91.34,26.18 L 91.97,23.5 C 92.16,22.58 92.46,21.63 92.9,20.77 93.75,19.02 95.22,17.6 96.94,16.79 98.67,15.98 100.57,15.65 102.43,15.74 L 102.43,15.84 Z M 102.43,15.84" />
            </g>
            <g id="kazSlowSide06-group412">
                <path id="kazSlowSide06-bezier547" stroke="none" fill="rgb(0, 0, 0)" d="M 63.98,47.52 C 63.67,47.88 63.37,48.24 63.09,48.58 62.95,48.75 62.88,48.99 62.7,49.07 62.62,49.12 62.53,49.16 62.44,49.19 62.35,49.23 62.23,49.2 62.12,49.33 L 62.03,49.37 C 61.84,49.28 61.8,49.01 61.82,48.85 61.83,48.68 61.89,48.54 61.96,48.41 62.09,48.16 62.37,48.08 62.58,47.96 63.01,47.73 63.46,47.56 63.92,47.43 L 63.98,47.52 Z M 63.98,47.52" />
            </g>
        </g>
        <path id="kazSlowSide06-bezier548" stroke="rgb(0, 0, 0)" stroke-width="2" stroke-miterlimit="10" fill="none" d="M 71.47,129 L 85.42,119.07" />
    </g>
</svg>
