<?xml version="1.0" encoding="UTF-8"?>
<!DOCTYPE svg PUBLIC "-//W3C//DTD SVG 1.1//EN" "http://www.w3.org/Graphics/SVG/1.1/DTD/svg11.dtd">
<svg version="1.1" xmlns="http://www.w3.org/2000/svg" xmlns:xlink="http://www.w3.org/1999/xlink" width="160" height="60"  xml:space="preserve" id="kazSlowTop02">
    <!-- Generated by PaintCode - http://www.paintcodeapp.com -->
    <g id="kazSlowTop02-group">
        <path id="kazSlowTop02-bezier1802" stroke="rgb(0, 0, 0)" stroke-width="2" stroke-miterlimit="10" fill="none" d="M 111.14,30.26 L 156.49,30.26" />
        <path id="kazSlowTop02-bezier1803" stroke="rgb(0, 0, 0)" stroke-width="2" stroke-miterlimit="10" fill="none" d="M 3.1,30.26 L 33.11,30.26" />
        <path id="kazSlowTop02-bezier1804" stroke="rgb(0, 0, 0)" stroke-width="2" stroke-miterlimit="10" fill="none" d="M 127.67,13.25 L 106.42,13.25 106.42,25.13" />
        <path id="kazSlowTop02-bezier1805" stroke="rgb(0, 0, 0)" stroke-width="2" stroke-miterlimit="10" fill="none" d="M 127.67,46.27 L 106.42,46.27 106.42,46.25 106.42,40.38" />
        <path id="kazSlowTop02-bezier1806" stroke="rgb(0, 0, 0)" stroke-width="2" stroke-miterlimit="10" fill="none" d="M 36.2,25.75 C 36.2,25.75 34.93,27.07 34.93,30.26 34.93,33.44 36.2,34.38 36.2,34.38" />
        <path id="kazSlowTop02-bezier1807" stroke="rgb(0, 0, 0)" stroke-width="2" stroke-miterlimit="10" fill="none" d="M 126.84,27.84 L 110.82,27.84" />
        <path id="kazSlowTop02-bezier1808" stroke="rgb(0, 0, 0)" stroke-width="2" stroke-miterlimit="10" fill="none" d="M 126.84,32.71 L 112.82,32.71" />
        <path id="kazSlowTop02-bezier1809" stroke="rgb(0, 0, 0)" stroke-width="2" stroke-miterlimit="10" fill="none" d="M 33.58,27.84 L 31.87,27.84" />
        <path id="kazSlowTop02-bezier1810" stroke="rgb(0, 0, 0)" stroke-width="2" stroke-miterlimit="10" fill="none" d="M 33.58,32.71 L 31.87,32.71" />
        <g id="kazSlowTop02-group1360">
            <g id="kazSlowTop02-group1361">
                <path id="kazSlowTop02-bezier1811" stroke="none" fill="rgb(0, 0, 0)" d="M 101.05,41.16 C 99.52,41.28 97.97,41.31 96.43,41.16 94.9,40.98 93.34,40.69 91.91,39.86 91.57,39.67 91.19,39.31 91.01,39.25 90.77,39.16 90.65,39.2 90.45,39.37 90.06,39.75 89.75,40.45 89.49,41.12 88.95,42.49 88.56,43.97 88.09,45.44 L 87.99,45.43 C 87.92,43.87 88.1,42.32 88.54,40.79 88.81,40.04 89.06,39.26 89.82,38.6 90.03,38.45 90.28,38.31 90.59,38.28 90.89,38.24 91.18,38.33 91.4,38.45 91.9,38.75 92.03,38.99 92.35,39.19 93.53,39.99 95.03,40.4 96.5,40.66 97.99,40.94 99.51,41.05 101.04,41.06 L 101.05,41.16 Z M 101.05,41.16" />
            </g>
            <g id="kazSlowTop02-group1362">
                <path id="kazSlowTop02-bezier1812" stroke="none" fill="rgb(0, 0, 0)" d="M 97.43,23.73 C 98.7,23.72 99.95,23.81 101.21,23.86 102.48,23.94 103.75,24.22 104.93,24.73 107.29,25.74 109.34,27.66 110.26,30.15 110.73,31.39 110.89,32.75 110.73,34.07 110.56,35.41 110.03,36.68 109.24,37.75 107.62,39.88 105.11,41.2 102.56,41.37 L 102.55,41.27 C 104.94,40.54 107.11,39.17 108.42,37.17 109.76,35.24 110.25,32.71 109.51,30.41 108.77,28.12 106.94,26.23 104.73,25.18 102.52,24.04 99.92,24.05 97.43,23.83 L 97.43,23.73 Z M 97.43,23.73" />
            </g>
            <g id="kazSlowTop02-group1363">
                <path id="kazSlowTop02-bezier1813" stroke="none" fill="rgb(0, 0, 0)" d="M 86.36,19.86 C 87.29,19.7 88.25,19.55 89.22,19.73 90.19,19.9 91.1,20.4 91.8,21.11 92.15,21.45 92.46,21.85 92.73,22.25 93,22.64 93.26,23 93.56,23.35 93.85,23.69 94.17,24.02 94.5,24.23 94.65,24.33 94.82,24.39 94.84,24.37 94.86,24.37 94.82,24.37 94.83,24.37 94.84,24.38 94.88,24.31 94.88,24.32 L 94.91,24.06 95.24,23.98 C 95.63,23.87 96.05,23.9 96.4,23.99 96.76,24.07 97.07,24.22 97.36,24.35 97.95,24.64 98.46,24.95 99.09,25.07 L 99.1,25.17 C 98.44,25.38 97.72,25.19 97.11,25.07 96.5,24.91 95.93,24.83 95.5,24.96 L 95.86,24.62 C 95.78,24.85 95.69,24.99 95.52,25.15 95.35,25.31 95.09,25.4 94.86,25.4 94.41,25.38 94.14,25.18 93.92,25.01 93.49,24.65 93.2,24.25 92.92,23.84 92.34,23.04 91.98,22.16 91.38,21.51 90.79,20.83 90.02,20.32 89.14,20.08 88.26,19.83 87.31,19.88 86.37,19.96 L 86.36,19.86 Z M 86.36,19.86" />
            </g>
            <g id="kazSlowTop02-group1364">
                <path id="kazSlowTop02-bezier1814" stroke="none" fill="rgb(0, 0, 0)" d="M 117.96,10.62 C 116.48,10.77 115,10.93 113.52,11.04 112.02,11.14 110.58,11.28 109.01,11.25 107.58,11.07 106.09,11.18 104.62,11.17 103.88,11.2 103.14,11.23 102.41,11.28 101.68,11.36 100.93,11.39 100.26,11.68 L 100.22,11.62 C 100.85,11.16 101.62,11.01 102.34,10.84 103.08,10.68 103.83,10.58 104.57,10.51 105.32,10.43 106.07,10.38 106.82,10.38 107.56,10.38 108.35,10.37 109.09,10.54 110.49,10.69 112.03,10.63 113.5,10.62 L 117.96,10.55 117.96,10.62 Z M 117.96,10.62" />
            </g>
            <g id="kazSlowTop02-group1365">
                <path id="kazSlowTop02-bezier1815" stroke="none" fill="rgb(0, 0, 0)" d="M 99.08,17.4 C 100.66,17.26 102.24,17.1 103.81,16.9 104.59,16.8 105.38,16.7 106.15,16.57 106.54,16.51 106.93,16.44 107.3,16.35 107.49,16.3 107.68,16.25 107.83,16.18 107.97,16.12 108.22,16 108.4,15.95 109.96,15.49 111.51,15.15 113.08,14.9 114.66,14.71 116.24,14.5 117.87,14.69 L 117.85,14.77 C 116.32,15.05 114.75,15.41 113.2,15.66 111.65,15.92 110.05,16.06 108.55,16.44 108.35,16.5 108.24,16.54 108.01,16.63 107.8,16.71 107.6,16.76 107.4,16.8 107.01,16.88 106.61,16.94 106.21,16.99 105.42,17.09 104.63,17.16 103.84,17.21 102.25,17.33 100.67,17.41 99.09,17.47 L 99.08,17.4 Z M 99.08,17.4" />
            </g>
            <g id="kazSlowTop02-group1366">
                <path id="kazSlowTop02-bezier1816" stroke="none" fill="rgb(0, 0, 0)" d="M 89.67,16.03 C 92.02,14.65 94.24,13.05 96.41,11.42 L 96.72,11.19 96.9,11.54 C 97.53,12.75 98.03,13.99 98.44,15.29 98.84,16.58 99.08,17.97 98.92,19.37 L 98.88,19.65 98.66,19.76 96.09,20.98 94.82,21.61 C 94.42,21.82 93.92,22.04 93.68,22.33 L 93.57,22.34 C 93.64,22.02 93.86,21.9 94.03,21.72 94.21,21.56 94.4,21.4 94.59,21.25 94.97,20.96 95.37,20.69 95.77,20.42 96.56,19.87 97.38,19.38 98.22,18.91 L 97.97,19.29 C 98,18.05 97.81,16.78 97.55,15.52 97.27,14.26 96.84,13.01 96.31,11.84 L 96.8,11.95 C 94.52,13.49 92.17,14.9 89.71,16.12 L 89.67,16.03 Z M 89.67,16.03" />
            </g>
            <g id="kazSlowTop02-group1367">
                <path id="kazSlowTop02-bezier1817" stroke="none" fill="rgb(0, 0, 0)" d="M 37.19,30.26 C 37.11,28.53 37.11,26.79 37.2,25.05 37.31,23.32 37.43,21.56 38.1,19.86 38.29,19.45 38.52,19.01 38.94,18.69 39.29,18.4 39.75,18.16 40.17,18.02 41.04,17.7 41.94,17.59 42.83,17.56 44.62,17.5 46.37,17.69 48.11,18.08 L 48.5,18.16 48.49,18.59 C 48.46,20.54 48.33,22.48 48.19,24.43 48.14,25.4 48.04,26.37 47.96,27.34 47.88,28.32 47.76,29.29 47.66,30.26 L 47.56,30.26 C 47.48,29.28 47.43,28.3 47.41,27.33 47.38,26.35 47.35,25.38 47.36,24.4 47.36,22.45 47.37,20.5 47.48,18.55 L 47.86,19.06 C 46.24,18.66 44.53,18.36 42.85,18.36 42.01,18.36 41.17,18.44 40.4,18.68 40,18.82 39.67,18.96 39.33,19.21 39.05,19.41 38.83,19.75 38.66,20.11 37.99,21.63 37.77,23.38 37.57,25.08 37.39,26.8 37.3,28.53 37.29,30.26 L 37.19,30.26 Z M 37.19,30.26" />
            </g>
            <g id="kazSlowTop02-group1368">
                <path id="kazSlowTop02-bezier1818" stroke="none" fill="rgb(0, 0, 0)" d="M 123.77,11.9 C 123.56,11.4 123.32,10.92 123.01,10.5 122.73,10.06 122.35,9.78 121.89,9.66 121.46,9.56 120.97,9.71 120.45,9.73 119.92,9.76 119.37,9.78 118.81,9.67 L 118.8,9.59 C 119.29,9.3 119.8,9.12 120.34,8.99 120.86,8.88 121.47,8.85 122.08,9.09 122.38,9.23 122.6,9.36 122.84,9.59 123.06,9.81 123.21,10.06 123.34,10.31 123.57,10.82 123.73,11.34 123.84,11.88 L 123.77,11.9 Z M 123.77,11.9" />
            </g>
            <g id="kazSlowTop02-group1369">
                <path id="kazSlowTop02-bezier1819" stroke="none" fill="rgb(0, 0, 0)" d="M 118.82,14.78 C 119.28,14.92 119.75,15.01 120.18,15.01 120.4,15.01 120.59,14.93 120.78,14.95 L 121.47,15.04 121.51,15.1 C 121.43,15.41 121.16,15.6 120.89,15.69 120.61,15.79 120.32,15.69 120.08,15.61 119.57,15.45 119.14,15.18 118.78,14.85 L 118.82,14.78 Z M 118.82,14.78" />
            </g>
            <g id="kazSlowTop02-group1370">
                <path id="kazSlowTop02-bezier1820" stroke="none" fill="rgb(0, 0, 0)" d="M 117.96,48.97 L 113.5,48.84 C 112.03,48.83 110.51,48.76 109.08,48.88 108.34,49.04 107.57,49.04 106.82,49.08 106.07,49.1 105.32,49.11 104.57,49.06 103.82,49.01 103.08,48.89 102.34,48.74 101.61,48.56 100.83,48.4 100.22,47.89 L 100.26,47.83 C 100.94,48.09 101.69,48.1 102.42,48.17 103.15,48.23 103.89,48.24 104.62,48.29 106.08,48.35 107.58,48.56 109.02,48.37 110.56,48.31 112.02,48.43 113.51,48.53 L 117.96,48.89 117.96,48.97 Z M 117.96,48.97" />
            </g>
            <g id="kazSlowTop02-group1371">
                <path id="kazSlowTop02-bezier1821" stroke="none" fill="rgb(0, 0, 0)" d="M 99.08,42.04 C 100.67,42.09 102.26,42.14 103.84,42.25 104.63,42.31 105.43,42.38 106.22,42.47 106.62,42.52 107.02,42.57 107.42,42.65 107.62,42.69 107.82,42.73 108.04,42.81 L 108.31,42.92 108.58,43 C 110.07,43.36 111.65,43.58 113.19,43.89 114.74,44.17 116.31,44.52 117.85,44.75 L 117.87,44.82 C 117.05,44.93 116.26,44.85 115.46,44.81 114.67,44.77 113.88,44.67 113.09,44.58 111.5,44.39 109.94,44.13 108.38,43.64 108.28,43.61 108.18,43.58 108.08,43.53 107.96,43.49 107.87,43.43 107.81,43.41 107.66,43.34 107.47,43.29 107.29,43.24 106.92,43.14 106.53,43.07 106.14,43 105.37,42.87 104.59,42.76 103.8,42.66 102.23,42.46 100.66,42.27 99.08,42.12 L 99.08,42.04 Z M 99.08,42.04" />
            </g>
            <g id="kazSlowTop02-group1372">
                <path id="kazSlowTop02-bezier1822" stroke="none" fill="rgb(0, 0, 0)" d="M 97.85,41.71 C 97.75,42.74 97.44,43.76 97.01,44.72 96.57,45.67 96.04,46.57 95.39,47.43 L 95.28,47.57 95.06,47.56 C 93.91,47.46 92.76,47.39 91.65,47.06 90.55,46.73 89.47,46.29 88.53,45.6 L 88.57,45.5 C 89.71,45.66 90.8,45.87 91.89,46.08 92.97,46.28 94.05,46.62 95.14,46.79 L 94.81,46.92 C 95.47,46.2 96.08,45.36 96.58,44.49 97.1,43.63 97.53,42.69 97.75,41.69 L 97.85,41.71 Z M 97.85,41.71" />
            </g>
            <g id="kazSlowTop02-group1373">
                <path id="kazSlowTop02-bezier1823" stroke="none" fill="rgb(0, 0, 0)" d="M 37.29,30.26 C 37.25,31.99 37.3,33.72 37.44,35.43 37.61,37.12 37.8,38.89 38.49,40.38 38.67,40.73 38.91,41.05 39.19,41.2 39.56,41.39 39.92,41.49 40.33,41.59 41.14,41.77 41.98,41.83 42.83,41.84 44.52,41.86 46.24,41.69 47.92,41.44 L 47.48,41.97 C 47.37,40.02 47.36,38.07 47.36,36.12 47.35,35.14 47.38,34.16 47.41,33.19 47.43,32.21 47.48,31.24 47.56,30.26 L 47.66,30.26 C 47.76,31.23 47.88,32.2 47.96,33.17 48.04,34.14 48.14,35.12 48.19,36.09 48.33,38.03 48.46,39.98 48.5,41.93 L 48.51,42.4 48.06,42.45 C 46.31,42.66 44.57,42.73 42.8,42.64 41.93,42.59 41.04,42.5 40.16,42.28 39.74,42.17 39.27,42.01 38.87,41.78 38.4,41.49 38.14,41.06 37.94,40.64 37.23,38.95 37.15,37.18 37.07,35.45 37.01,33.72 37.06,31.98 37.19,30.26 L 37.29,30.26 Z M 37.29,30.26" />
            </g>
            <g id="kazSlowTop02-group1374">
                <path id="kazSlowTop02-bezier1824" stroke="none" fill="rgb(0, 0, 0)" d="M 120.59,45.02 C 120.61,45.66 120.65,46.31 120.77,46.9 120.84,47.2 120.98,47.46 121.04,47.68 121.12,47.91 121.14,48.08 121.49,48.27 L 121.49,48.34 C 121.19,48.63 120.57,48.4 120.38,48.03 120.15,47.68 120.17,47.3 120.18,46.96 120.18,46.28 120.32,45.63 120.52,45.01 L 120.59,45.02 Z M 120.59,45.02" />
            </g>
            <g id="kazSlowTop02-group1375">
                <path id="kazSlowTop02-bezier1825" stroke="none" fill="rgb(0, 0, 0)" d="M 123.84,47.64 C 123.73,48.17 123.57,48.7 123.34,49.21 123.21,49.46 123.06,49.7 122.84,49.92 122.6,50.15 122.38,50.29 122.08,50.42 121.47,50.67 120.86,50.64 120.34,50.52 119.8,50.39 119.29,50.22 118.8,49.93 L 118.81,49.85 C 119.37,49.74 119.92,49.76 120.45,49.78 120.97,49.8 121.47,49.96 121.89,49.86 122.35,49.74 122.73,49.46 123.01,49.01 123.32,48.6 123.56,48.11 123.77,47.62 L 123.84,47.64 Z M 123.84,47.64" />
            </g>
            <g id="kazSlowTop02-group1376">
                <path id="kazSlowTop02-bezier1826" stroke="none" fill="rgb(0, 0, 0)" d="M 118.78,44.67 C 119.14,44.34 119.57,44.07 120.08,43.91 120.32,43.83 120.61,43.73 120.89,43.82 121.16,43.91 121.43,44.11 121.51,44.42 L 121.47,44.48 120.78,44.57 C 120.59,44.59 120.4,44.51 120.18,44.5 119.75,44.51 119.28,44.6 118.82,44.73 L 118.78,44.67 Z M 118.78,44.67" />
            </g>
            <g id="kazSlowTop02-group1377">
                <path id="kazSlowTop02-bezier1827" stroke="none" fill="rgb(0, 0, 0)" d="M 105.71,38.15 C 104.98,38.97 104.07,39.69 102.97,40.05 101.89,40.41 100.71,40.42 99.6,40.23 98.48,40.04 97.4,39.69 96.36,39.27 95.31,38.83 94.37,38.36 93.33,38.11 91.28,37.58 89.13,37.73 87.17,38.5 85.23,39.29 83.45,40.64 82.08,42.35 L 81.99,42.3 C 82.47,41.28 83.19,40.39 84,39.6 84.81,38.8 85.76,38.15 86.8,37.65 87.84,37.14 88.99,36.85 90.16,36.78 91.32,36.72 92.49,36.9 93.58,37.24 94.68,37.57 95.7,38.14 96.66,38.6 97.64,39.06 98.65,39.45 99.7,39.68 100.75,39.91 101.84,39.99 102.88,39.72 103.93,39.47 104.85,38.84 105.64,38.08 L 105.71,38.15 Z M 105.71,38.15" />
            </g>
            <g id="kazSlowTop02-group1378">
                <path id="kazSlowTop02-bezier1828" stroke="none" fill="rgb(0, 0, 0)" d="M 81.79,23.15 C 82.96,24.89 84.37,26.49 86.05,27.68 86.89,28.28 87.81,28.75 88.78,28.94 89.26,29.03 89.75,29.05 90.23,28.99 90.72,28.91 91.23,28.79 91.72,28.66 93.72,28.13 95.69,27.29 97.88,27.06 98.96,26.96 100.11,26.98 101.17,27.38 102.22,27.76 103.11,28.49 103.72,29.36 L 103.65,29.43 C 102.85,28.75 101.94,28.23 100.98,28.02 100,27.81 99,27.82 98.01,28.01 96.02,28.37 94.02,29.06 91.92,29.49 91.39,29.6 90.87,29.7 90.32,29.75 89.75,29.81 89.17,29.75 88.63,29.62 87.54,29.34 86.58,28.77 85.73,28.11 84.06,26.74 82.76,25.03 81.7,23.21 L 81.79,23.15 Z M 81.79,23.15" />
            </g>
            <g id="kazSlowTop02-group1379">
                <path id="kazSlowTop02-bezier1829" stroke="none" fill="rgb(0, 0, 0)" d="M 95.67,35.04 C 94.31,34.62 92.88,34.64 91.47,34.6 L 87.19,34.57 C 85.77,34.55 84.32,34.57 82.88,34.27 82.17,34.11 81.45,33.91 80.78,33.58 80.11,33.27 79.44,32.82 79.08,32.16 L 79.16,32.09 C 80.29,32.94 81.69,33.08 83.05,33.28 84.42,33.44 85.82,33.65 87.23,33.77 L 91.49,34.1 C 92.91,34.27 94.36,34.39 95.7,34.94 L 95.67,35.04 Z M 95.67,35.04" />
            </g>
            <g id="kazSlowTop02-group1380">
                <path id="kazSlowTop02-bezier1830" stroke="none" fill="rgb(0, 0, 0)" d="M 89.27,17.25 C 86.46,17.21 83.65,17.23 80.84,17.34 78.04,17.47 75.24,17.66 72.48,18.13 69.74,18.69 66.9,19.04 64.08,19.09 61.24,19.13 58.42,18.97 55.59,18.41 L 56.15,17.92 C 56.41,19.86 56.63,21.79 56.79,23.75 56.92,25.7 57.07,27.65 56.84,29.67 56.48,31.68 55.85,33.49 55.32,35.37 55.05,36.3 54.8,37.23 54.6,38.18 54.41,39.12 54.26,40.08 54.39,41.04 L 54.29,41.06 C 54.02,40.1 54.1,39.09 54.19,38.11 54.3,37.13 54.5,36.17 54.7,35.21 55.08,33.3 55.68,31.4 55.92,29.56 56.04,27.7 55.89,25.74 55.76,23.82 55.63,21.89 55.46,19.95 55.25,18.03 L 55.19,17.39 55.81,17.54 C 58.47,18.16 61.29,18.39 64.07,18.41 66.87,18.43 69.64,18.15 72.41,17.66 75.21,17.25 78.02,17.12 80.84,17.05 83.65,17 86.46,17.04 89.27,17.15 L 89.27,17.25 Z M 89.27,17.25" />
            </g>
            <g id="kazSlowTop02-group1381">
                <path id="kazSlowTop02-bezier1831" stroke="none" fill="rgb(0, 0, 0)" d="M 54.3,41.64 C 56.84,41.25 59.43,41.1 62.02,41.15 64.6,41.23 67.2,41.53 69.72,42.25 71,42.61 72.16,43.08 73.4,43.4 74.62,43.74 75.85,44.06 77.09,44.36 79.57,45 82.08,45.49 84.6,46.05 L 84.59,46.15 C 82,46.15 79.43,45.8 76.88,45.33 75.61,45.07 74.35,44.75 73.11,44.35 71.87,43.97 70.66,43.41 69.48,43.01 67.08,42.22 64.54,41.83 61.99,41.65 59.44,41.47 56.86,41.48 54.31,41.74 L 54.3,41.64 Z M 54.3,41.64" />
            </g>
            <g id="kazSlowTop02-group1382">
                <path id="kazSlowTop02-bezier1832" stroke="none" fill="rgb(0, 0, 0)" d="M 48.81,41.85 C 49.61,41.37 50.53,41.1 51.46,40.98 51.93,40.91 52.42,40.84 52.89,40.94 53.35,41.04 53.81,41.2 54.21,41.51 L 54.19,41.58 C 53.7,41.67 53.25,41.67 52.81,41.68 52.37,41.69 51.94,41.59 51.5,41.57 50.61,41.56 49.71,41.64 48.84,41.91 L 48.81,41.85 Z M 48.81,41.85" />
            </g>
            <g id="kazSlowTop02-group1383">
                <path id="kazSlowTop02-bezier1833" stroke="none" fill="rgb(0, 0, 0)" d="M 49.16,18.63 L 51.68,18.48 C 52.1,18.44 52.51,18.36 52.93,18.39 53.34,18.43 53.75,18.48 54.19,18.63 L 54.2,18.71 C 53.81,18.96 53.38,19.07 52.95,19.14 52.52,19.2 52.1,19.12 51.67,19.08 50.83,19 49.99,18.87 49.15,18.71 L 49.16,18.63 Z M 49.16,18.63" />
            </g>
            <g id="kazSlowTop02-group1384">
                <path id="kazSlowTop02-bezier1834" stroke="none" fill="rgb(0, 0, 0)" d="M 49.81,27.41 C 50.14,27.56 50.48,27.59 50.8,27.58 50.96,27.56 51.12,27.49 51.27,27.53 51.43,27.58 51.6,27.63 51.81,27.8 L 51.83,27.87 C 51.69,28.11 51.5,28.22 51.31,28.28 51.1,28.34 50.89,28.24 50.7,28.17 50.31,28.04 49.96,27.8 49.76,27.46 L 49.81,27.41 Z M 49.81,27.41" />
            </g>
            <g id="kazSlowTop02-group1385">
                <path id="kazSlowTop02-bezier1835" stroke="none" fill="rgb(0, 0, 0)" d="M 49.51,33.1 C 49.81,32.8 50.15,32.53 50.53,32.32 50.71,32.2 50.91,32.06 51.16,32.06 51.39,32.07 51.7,32.15 51.84,32.43 L 51.81,32.5 C 51.57,32.62 51.45,32.73 51.28,32.8 51.13,32.88 50.93,32.85 50.74,32.88 50.36,32.95 49.96,33.05 49.55,33.16 L 49.51,33.1 Z M 49.51,33.1" />
            </g>
            <g id="kazSlowTop02-group1386">
                <path id="kazSlowTop02-bezier1836" stroke="none" fill="rgb(0, 0, 0)" d="M 120.52,14.51 C 120.32,13.88 120.18,13.24 120.18,12.56 120.17,12.22 120.15,11.83 120.38,11.48 120.57,11.12 121.19,10.88 121.49,11.18 L 121.49,11.25 C 121.14,11.44 121.12,11.61 121.04,11.83 120.98,12.06 120.84,12.32 120.77,12.62 120.65,13.21 120.61,13.85 120.59,14.5 L 120.52,14.51 Z M 120.52,14.51" />
            </g>
            <g id="kazSlowTop02-group1387">
                <path id="kazSlowTop02-bezier1837" stroke="none" fill="rgb(0, 0, 0)" d="M 100.46,47.21 C 99.77,47.32 99.09,47.39 98.39,47.42 98.05,47.44 97.69,47.51 97.35,47.42 97.01,47.34 96.65,47.22 96.36,46.91 L 96.39,46.84 C 96.76,46.75 97.08,46.69 97.42,46.68 97.75,46.66 98.08,46.76 98.42,46.82 L 100.46,47.13 100.46,47.21 Z M 100.46,47.21" />
            </g>
            <g id="kazSlowTop02-group1388">
                <path id="kazSlowTop02-bezier1838" stroke="none" fill="rgb(0, 0, 0)" d="M 100.58,12.37 L 99.21,12.66 C 98.99,12.71 98.78,12.82 98.56,12.8 98.33,12.78 98.13,12.73 97.85,12.62 L 97.82,12.55 C 97.97,12.27 98.22,12.14 98.45,12.05 98.69,11.97 98.94,12.03 99.18,12.06 99.66,12.1 100.12,12.18 100.58,12.3 L 100.58,12.37 Z M 100.58,12.37" />
            </g>
            <g id="kazSlowTop02-group1389">
                <path id="kazSlowTop02-bezier1839" stroke="none" fill="rgb(0, 0, 0)" d="M 111.12,32.61 C 111.3,32.63 111.48,32.75 111.61,32.89 111.74,33.03 111.83,33.19 111.92,33.37 L 111.94,33.41 111.91,33.51 C 111.84,33.7 111.81,33.89 111.67,34.05 111.53,34.18 111.36,34.36 111.09,34.33 L 111.07,34.28 C 111.14,34.08 111.18,33.94 111.25,33.77 111.32,33.61 111.46,33.49 111.56,33.34 L 111.55,33.48 C 111.52,33.33 111.47,33.17 111.4,33.02 111.34,32.87 111.26,32.73 111.1,32.65 L 111.12,32.61 Z M 111.12,32.61" />
            </g>
            <g id="kazSlowTop02-group1390">
                <path id="kazSlowTop02-bezier1840" stroke="none" fill="rgb(0, 0, 0)" d="M 49.17,42.79 C 52.15,43.79 55.22,44.53 58.29,45.22 61.37,45.89 64.46,46.48 67.57,47 70.67,47.53 73.79,47.96 76.91,48.36 L 86.28,49.58 86.31,49.59 86.33,49.59 C 87.2,49.88 88.19,49.84 89.05,49.47 89.49,49.29 89.9,49.04 90.24,48.71 90.58,48.39 90.87,47.97 90.9,47.48 L 90.97,47.48 C 90.99,48 90.73,48.48 90.4,48.86 90.07,49.25 89.66,49.57 89.2,49.8 88.29,50.26 87.19,50.39 86.17,50.12 L 86.22,50.13 C 83.08,49.88 79.94,49.57 76.81,49.11 73.69,48.65 70.58,48.11 67.47,47.53 64.37,46.95 61.28,46.3 58.22,45.54 55.16,44.77 52.11,43.95 49.14,42.86 L 49.17,42.79 Z M 49.17,42.79" />
            </g>
        </g>
    </g>
</svg>
