<?xml version="1.0" encoding="UTF-8"?>
<!DOCTYPE svg PUBLIC "-//W3C//DTD SVG 1.1//EN" "http://www.w3.org/Graphics/SVG/1.1/DTD/svg11.dtd">
<svg version="1.1" xmlns="http://www.w3.org/2000/svg" xmlns:xlink="http://www.w3.org/1999/xlink" width="160" height="60"  xml:space="preserve" id="kazSlowTop04">
    <!-- Generated by PaintCode - http://www.paintcodeapp.com -->
    <g id="kazSlowTop04-group">
        <path id="kazSlowTop04-bezier1959" stroke="rgb(0, 0, 0)" stroke-width="2" stroke-miterlimit="10" fill="none" d="M 117.93,30.26 L 156.27,30.26" />
        <path id="kazSlowTop04-bezier1960" stroke="rgb(0, 0, 0)" stroke-width="2" stroke-miterlimit="10" fill="none" d="M 2.88,30.26 L 32.89,30.26" />
        <path id="kazSlowTop04-bezier1961" stroke="rgb(0, 0, 0)" stroke-width="2" stroke-miterlimit="10" fill="none" d="M 127.45,13.25 L 106.2,13.25 106.2,22.13" />
        <path id="kazSlowTop04-bezier1962" stroke="rgb(0, 0, 0)" stroke-width="2" stroke-miterlimit="10" fill="none" d="M 127.45,46.27 L 106.2,46.27 106.2,46.25 106.2,40.38" />
        <path id="kazSlowTop04-bezier1963" stroke="rgb(0, 0, 0)" stroke-width="2" stroke-miterlimit="10" fill="none" d="M 35.98,25.75 C 35.98,25.75 34.7,27.07 34.7,30.26 34.7,33.44 35.98,34.38 35.98,34.38" />
        <path id="kazSlowTop04-bezier1964" stroke="rgb(0, 0, 0)" stroke-width="2" stroke-miterlimit="10" fill="none" d="M 130.73,27.84 L 116.66,27.84" />
        <path id="kazSlowTop04-bezier1965" stroke="rgb(0, 0, 0)" stroke-width="2" stroke-miterlimit="10" fill="none" d="M 130.73,32.71 L 118.66,32.71" />
        <path id="kazSlowTop04-bezier1966" stroke="rgb(0, 0, 0)" stroke-width="2" stroke-miterlimit="10" fill="none" d="M 33.35,27.84 L 31.65,27.84" />
        <path id="kazSlowTop04-bezier1967" stroke="rgb(0, 0, 0)" stroke-width="2" stroke-miterlimit="10" fill="none" d="M 33.35,32.71 L 31.65,32.71" />
        <g id="kazSlowTop04-group1485">
            <g id="kazSlowTop04-group1486">
                <path id="kazSlowTop04-bezier1968" stroke="none" fill="rgb(0, 0, 0)" d="M 105.71,39.95 C 105.08,40.11 104.44,40.35 103.81,40.55 L 102.87,40.87 C 102.54,40.96 102.26,41.08 101.88,41.14 L 101.9,41.14 C 100.48,41.58 98.97,41.87 97.43,41.73 96.66,41.65 95.87,41.46 95.17,41.02 94.82,40.83 94.47,40.44 94.29,40.35 94.04,40.2 93.73,40.11 93.41,40.06 92.09,39.89 90.63,40.17 89.21,40.44 87.78,40.74 86.35,41.11 84.91,41.48 L 84.87,41.39 C 86.16,40.62 87.54,40.02 88.99,39.57 90.43,39.14 91.96,38.8 93.59,39.12 93.99,39.21 94.41,39.35 94.78,39.61 95.22,39.94 95.32,40.17 95.61,40.37 96.14,40.76 96.81,41 97.51,41.13 98.92,41.36 100.42,41.26 101.86,40.97 L 101.81,40.98 101.88,40.97 C 102.16,40.92 102.51,40.8 102.82,40.71 L 103.77,40.42 C 104.41,40.23 105.03,40.01 105.69,39.85 L 105.71,39.95 Z M 105.71,39.95" />
            </g>
            <g id="kazSlowTop04-group1487">
                <path id="kazSlowTop04-bezier1969" stroke="none" fill="rgb(0, 0, 0)" d="M 101.21,22.45 C 102.5,22.4 103.79,22.45 105.08,22.45 106.38,22.48 107.68,22.71 108.92,23.15 111.38,24.05 113.61,25.84 114.72,28.33 115.27,29.56 115.51,30.96 115.39,32.32 115.27,33.69 114.74,35.01 113.95,36.12 112.32,38.31 109.76,39.67 107.18,39.91 L 107.16,39.82 C 109.59,39.01 111.8,37.6 113.12,35.55 114.47,33.56 114.9,30.94 113.98,28.64 113.07,26.35 111.06,24.56 108.74,23.62 106.42,22.59 103.76,22.69 101.22,22.55 L 101.21,22.45 Z M 101.21,22.45" />
            </g>
            <g id="kazSlowTop04-group1488">
                <path id="kazSlowTop04-bezier1970" stroke="none" fill="rgb(0, 0, 0)" d="M 86.11,19.85 C 87.29,19.82 88.44,20.22 89.51,20.67 90.59,21.15 91.61,21.71 92.62,22.26 93.64,22.82 94.69,23.29 95.67,23.81 96.66,24.29 97.64,24.77 98.8,24.63 L 98.84,24.72 C 98.34,25.07 97.67,25.19 97.05,25.14 96.42,25.1 95.83,24.93 95.26,24.72 94.13,24.3 93.19,23.58 92.22,22.95 91.25,22.31 90.29,21.67 89.29,21.12 88.3,20.56 87.26,20.06 86.11,19.95 L 86.11,19.85 Z M 86.11,19.85" />
            </g>
            <g id="kazSlowTop04-group1489">
                <path id="kazSlowTop04-bezier1971" stroke="none" fill="rgb(0, 0, 0)" d="M 117.74,10.62 C 113.87,11.15 109.99,11.61 106.08,11.83 105.1,11.88 104.12,11.93 103.12,11.89 L 100.21,11.72 C 99.24,11.67 98.28,11.63 97.32,11.68 96.37,11.73 95.39,11.79 94.52,12.22 L 94.48,12.16 C 95.26,11.51 96.3,11.3 97.27,11.13 98.25,11 99.24,10.95 100.23,10.96 101.21,10.98 102.21,11.08 103.16,11.19 104.11,11.26 105.09,11.27 106.06,11.26 109.95,11.16 113.85,10.87 117.74,10.55 L 117.74,10.62 Z M 117.74,10.62" />
            </g>
            <g id="kazSlowTop04-group1490">
                <path id="kazSlowTop04-bezier1972" stroke="none" fill="rgb(0, 0, 0)" d="M 97.79,19.3 C 98.61,19.1 99.46,18.89 100.21,18.6 100.98,18.21 101.84,18.03 102.65,17.78 104.29,17.33 105.93,16.89 107.58,16.47 109.23,16.05 110.9,15.71 112.57,15.4 113.4,15.23 114.24,15.09 115.09,14.96 115.94,14.84 116.76,14.69 117.65,14.69 L 117.63,14.76 C 116,15.12 114.35,15.63 112.71,16.02 111.06,16.43 109.42,16.85 107.76,17.2 106.1,17.57 104.44,17.92 102.79,18.33 101.97,18.54 101.15,18.72 100.37,19.03 99.5,19.27 98.66,19.3 97.81,19.38 L 97.79,19.3 Z M 97.79,19.3" />
            </g>
            <g id="kazSlowTop04-group1491">
                <path id="kazSlowTop04-bezier1973" stroke="none" fill="rgb(0, 0, 0)" d="M 36.97,30.26 C 36.89,28.44 36.88,26.62 36.99,24.8 37.05,23.89 37.13,22.98 37.28,22.07 37.45,21.17 37.64,20.25 38.12,19.39 38.66,18.43 39.69,18.08 40.58,17.84 41.51,17.62 42.44,17.56 43.37,17.54 45.23,17.53 47.05,17.71 48.88,18.07 L 49.29,18.15 49.28,18.59 C 49.23,20.54 49.1,22.48 48.96,24.43 48.83,26.37 48.65,28.32 48.44,30.26 L 48.34,30.26 C 48.26,29.28 48.21,28.3 48.19,27.33 48.18,26.35 48.14,25.37 48.15,24.4 48.15,22.45 48.16,20.5 48.25,18.55 L 48.66,19.07 C 46.93,18.7 45.14,18.41 43.36,18.36 42.48,18.34 41.59,18.38 40.74,18.55 39.92,18.73 39.05,19.04 38.66,19.71 38.22,20.42 37.99,21.31 37.8,22.17 37.61,23.05 37.48,23.94 37.37,24.84 37.18,26.63 37.08,28.44 37.07,30.26 L 36.97,30.26 Z M 36.97,30.26" />
            </g>
            <g id="kazSlowTop04-group1492">
                <path id="kazSlowTop04-bezier1974" stroke="none" fill="rgb(0, 0, 0)" d="M 123.54,11.9 C 123.34,11.4 123.09,10.92 122.79,10.5 122.5,10.06 122.13,9.78 121.66,9.66 121.24,9.56 120.75,9.71 120.22,9.73 119.69,9.76 119.15,9.78 118.59,9.67 L 118.57,9.59 C 119.07,9.3 119.58,9.12 120.11,8.99 120.64,8.88 121.25,8.85 121.86,9.09 122.15,9.23 122.38,9.36 122.62,9.59 122.84,9.81 122.98,10.06 123.11,10.31 123.35,10.82 123.5,11.34 123.61,11.88 L 123.54,11.9 Z M 123.54,11.9" />
            </g>
            <g id="kazSlowTop04-group1493">
                <path id="kazSlowTop04-bezier1975" stroke="none" fill="rgb(0, 0, 0)" d="M 118.6,14.78 C 119.05,14.92 119.52,15.01 119.95,15.01 120.17,15.01 120.37,14.93 120.55,14.95 L 121.24,15.04 121.29,15.1 C 121.21,15.41 120.94,15.6 120.67,15.69 120.39,15.79 120.1,15.69 119.85,15.61 119.35,15.45 118.92,15.18 118.56,14.85 L 118.6,14.78 Z M 118.6,14.78" />
            </g>
            <g id="kazSlowTop04-group1494">
                <path id="kazSlowTop04-bezier1976" stroke="none" fill="rgb(0, 0, 0)" d="M 37.07,30.26 C 37.03,32.07 37.08,33.88 37.24,35.68 37.32,36.57 37.44,37.47 37.62,38.34 37.8,39.2 38.04,40.09 38.5,40.76 38.73,41.1 39.02,41.26 39.44,41.4 39.83,41.54 40.26,41.62 40.7,41.69 41.56,41.81 42.46,41.85 43.35,41.84 45.13,41.82 46.94,41.65 48.7,41.44 L 48.25,41.97 C 48.16,40.02 48.15,38.07 48.15,36.12 48.14,35.14 48.17,34.16 48.19,33.19 48.21,32.21 48.26,31.24 48.34,30.26 L 48.44,30.26 C 48.65,32.2 48.83,34.14 48.96,36.09 49.1,38.03 49.23,39.98 49.28,41.93 L 49.29,42.41 48.83,42.46 C 47,42.65 45.18,42.72 43.34,42.66 42.42,42.63 41.5,42.57 40.58,42.4 40.12,42.32 39.66,42.21 39.2,42.04 39.09,41.99 38.98,41.95 38.86,41.89 38.75,41.84 38.65,41.78 38.52,41.7 38.29,41.53 38.12,41.33 37.98,41.12 37.45,40.26 37.27,39.34 37.11,38.43 36.96,37.52 36.89,36.61 36.85,35.7 36.78,33.88 36.83,32.06 36.96,30.25 L 37.07,30.26 Z M 37.07,30.26" />
            </g>
            <g id="kazSlowTop04-group1495">
                <path id="kazSlowTop04-bezier1977" stroke="none" fill="rgb(0, 0, 0)" d="M 120.36,45.02 C 120.38,45.66 120.43,46.31 120.55,46.9 120.62,47.2 120.76,47.46 120.82,47.68 120.89,47.91 120.91,48.08 121.26,48.27 L 121.27,48.34 C 120.96,48.63 120.35,48.4 120.15,48.03 119.92,47.68 119.95,47.3 119.95,46.96 119.96,46.28 120.09,45.63 120.29,45.01 L 120.36,45.02 Z M 120.36,45.02" />
            </g>
            <g id="kazSlowTop04-group1496">
                <path id="kazSlowTop04-bezier1978" stroke="none" fill="rgb(0, 0, 0)" d="M 123.61,47.64 C 123.5,48.17 123.35,48.7 123.11,49.21 122.98,49.46 122.84,49.7 122.62,49.92 122.38,50.15 122.15,50.29 121.86,50.42 121.25,50.67 120.64,50.64 120.11,50.52 119.58,50.39 119.06,50.22 118.57,49.93 L 118.58,49.85 C 119.15,49.74 119.69,49.76 120.22,49.78 120.75,49.8 121.24,49.96 121.66,49.86 122.13,49.74 122.5,49.46 122.79,49.01 123.09,48.6 123.34,48.11 123.54,47.62 L 123.61,47.64 Z M 123.61,47.64" />
            </g>
            <g id="kazSlowTop04-group1497">
                <path id="kazSlowTop04-bezier1979" stroke="none" fill="rgb(0, 0, 0)" d="M 118.56,44.67 C 118.92,44.34 119.35,44.07 119.85,43.91 120.1,43.83 120.38,43.73 120.67,43.82 120.94,43.91 121.21,44.11 121.29,44.42 L 121.24,44.48 120.55,44.57 C 120.37,44.59 120.17,44.51 119.95,44.5 119.52,44.51 119.05,44.6 118.6,44.73 L 118.56,44.67 Z M 118.56,44.67" />
            </g>
            <g id="kazSlowTop04-group1498">
                <path id="kazSlowTop04-bezier1980" stroke="none" fill="rgb(0, 0, 0)" d="M 109.26,36.57 C 107.26,37.89 104.72,38.16 102.37,37.99 101.18,37.91 100,37.73 98.83,37.51 97.65,37.29 96.51,37 95.38,36.85 93.08,36.55 90.77,36.56 88.5,36.91 86.25,37.29 83.98,37.99 82.06,39.33 L 81.99,39.26 C 82.79,38.36 83.83,37.71 84.91,37.17 85.98,36.62 87.15,36.26 88.33,35.99 90.69,35.45 93.17,35.52 95.52,35.97 96.72,36.18 97.85,36.54 98.98,36.81 100.12,37.08 101.26,37.31 102.42,37.44 104.71,37.73 107.14,37.66 109.22,36.49 L 109.26,36.57 Z M 109.26,36.57" />
            </g>
            <g id="kazSlowTop04-group1499">
                <path id="kazSlowTop04-bezier1981" stroke="none" fill="rgb(0, 0, 0)" d="M 82.85,22.32 C 84.57,24.21 86.59,25.84 88.86,26.95 89.99,27.49 91.2,27.88 92.42,27.97 93.63,28.09 94.85,27.77 96.1,27.49 98.56,26.9 101.02,26.04 103.65,25.8 104.95,25.69 106.31,25.67 107.6,26.04 108.89,26.36 110.08,27.04 111,27.95 L 110.94,28.03 C 109.87,27.33 108.69,26.86 107.46,26.68 106.24,26.51 104.99,26.54 103.76,26.74 101.29,27.13 98.83,27.86 96.28,28.34 95.65,28.47 95.01,28.57 94.36,28.66 93.7,28.75 93.01,28.76 92.35,28.67 91.02,28.52 89.76,28.04 88.61,27.43 86.32,26.16 84.39,24.38 82.77,22.39 L 82.85,22.32 Z M 82.85,22.32" />
            </g>
            <g id="kazSlowTop04-group1500">
                <path id="kazSlowTop04-bezier1982" stroke="none" fill="rgb(0, 0, 0)" d="M 101.77,33.86 C 99.91,33.48 98,33.53 96.1,33.53 L 90.39,33.6 C 88.48,33.62 86.55,33.68 84.64,33.42 83.68,33.28 82.72,33.11 81.79,32.81 80.87,32.51 79.91,32.12 79.23,31.39 L 79.3,31.31 C 80.96,32.21 82.88,32.25 84.74,32.42 86.61,32.55 88.5,32.71 90.4,32.8 L 96.11,33.03 C 98.01,33.16 99.94,33.24 101.79,33.77 L 101.77,33.86 Z M 101.77,33.86" />
            </g>
            <g id="kazSlowTop04-group1501">
                <path id="kazSlowTop04-bezier1983" stroke="none" fill="rgb(0, 0, 0)" d="M 86.6,16.08 C 81.98,16.21 77.35,16.54 72.82,17.37 71.69,17.58 70.58,17.88 69.43,18.11 68.29,18.34 67.15,18.54 65.99,18.69 64.83,18.83 63.66,18.93 62.48,18.94 61.29,18.91 60.16,18.91 58.88,18.49 L 59.51,18.01 C 59.84,19.94 60.13,21.87 60.35,23.81 60.54,25.77 60.76,27.7 60.6,29.73 60.31,31.76 59.74,33.59 59.27,35.48 59.03,36.42 58.81,37.36 58.65,38.31 58.49,39.26 58.37,40.23 58.53,41.18 L 58.43,41.2 C 58.13,40.25 58.17,39.24 58.24,38.26 58.31,37.28 58.47,36.31 58.64,35.35 58.96,33.43 59.5,31.5 59.67,29.66 59.73,27.8 59.52,25.84 59.33,23.93 59.13,22 58.89,20.07 58.62,18.15 L 58.52,17.4 59.25,17.67 C 60.17,18.02 61.39,18.13 62.49,18.17 63.63,18.2 64.77,18.14 65.91,18.04 68.21,17.84 70.44,17.35 72.74,16.93 77.33,16.2 81.97,16 86.59,15.98 L 86.6,16.08 Z M 86.6,16.08" />
            </g>
            <g id="kazSlowTop04-group1502">
                <path id="kazSlowTop04-bezier1984" stroke="none" fill="rgb(0, 0, 0)" d="M 58.45,41.78 C 60.73,41.07 63.16,40.89 65.56,41.05 66.76,41.14 67.95,41.32 69.13,41.59 70.31,41.84 71.46,42.24 72.57,42.53 74.84,43.1 77.17,43.46 79.5,43.85 81.83,44.19 84.18,44.49 86.55,44.78 L 86.54,44.88 C 84.16,45.03 81.77,44.97 79.39,44.75 77,44.55 74.63,44.13 72.32,43.43 71.14,43.08 70.08,42.61 68.95,42.31 67.82,42 66.67,41.76 65.5,41.61 63.18,41.34 60.78,41.32 58.48,41.88 L 58.45,41.78 Z M 58.45,41.78" />
            </g>
            <g id="kazSlowTop04-group1503">
                <path id="kazSlowTop04-bezier1985" stroke="none" fill="rgb(0, 0, 0)" d="M 49.59,41.84 C 50.95,41.46 52.34,41.18 53.76,41.01 54.46,40.93 55.18,40.82 55.9,40.9 56.62,40.98 57.34,41.14 57.98,41.51 L 57.97,41.58 55.87,41.65 C 55.18,41.67 54.49,41.61 53.8,41.61 52.41,41.64 51,41.74 49.61,41.92 L 49.59,41.84 Z M 49.59,41.84" />
            </g>
            <g id="kazSlowTop04-group1504">
                <path id="kazSlowTop04-bezier1986" stroke="none" fill="rgb(0, 0, 0)" d="M 49.93,18.63 L 53.96,18.47 C 54.63,18.44 55.29,18.36 55.96,18.4 56.63,18.44 57.29,18.51 57.97,18.63 L 57.98,18.71 C 57.33,18.99 56.64,19.08 55.97,19.15 55.3,19.21 54.62,19.12 53.95,19.07 52.61,18.99 51.27,18.87 49.93,18.71 L 49.93,18.63 Z M 49.93,18.63" />
            </g>
            <g id="kazSlowTop04-group1505">
                <path id="kazSlowTop04-bezier1987" stroke="none" fill="rgb(0, 0, 0)" d="M 50.56,27.4 C 51.41,27.44 52.26,27.48 53.1,27.51 53.52,27.51 53.94,27.46 54.35,27.53 54.76,27.59 55.15,27.68 55.59,27.8 L 55.61,27.87 C 55.21,28.16 54.75,28.24 54.32,28.28 53.88,28.31 53.46,28.19 53.04,28.1 52.19,27.94 51.36,27.73 50.55,27.47 L 50.56,27.4 Z M 50.56,27.4" />
            </g>
            <g id="kazSlowTop04-group1506">
                <path id="kazSlowTop04-bezier1988" stroke="none" fill="rgb(0, 0, 0)" d="M 50.3,33.09 C 51.15,32.81 52.02,32.56 52.89,32.35 53.33,32.24 53.77,32.09 54.23,32.09 54.68,32.11 55.18,32.11 55.61,32.43 L 55.58,32.5 C 55.15,32.6 54.74,32.75 54.31,32.84 53.88,32.93 53.43,32.91 52.99,32.94 L 50.32,33.16 50.3,33.09 Z M 50.3,33.09" />
            </g>
            <g id="kazSlowTop04-group1507">
                <path id="kazSlowTop04-bezier1989" stroke="none" fill="rgb(0, 0, 0)" d="M 120.29,14.51 C 120.09,13.88 119.96,13.24 119.95,12.56 119.95,12.22 119.92,11.83 120.15,11.48 120.35,11.12 120.96,10.88 121.27,11.18 L 121.26,11.25 C 120.91,11.44 120.89,11.61 120.82,11.83 120.76,12.06 120.62,12.32 120.55,12.62 120.43,13.21 120.38,13.85 120.36,14.5 L 120.29,14.51 Z M 120.29,14.51" />
            </g>
            <g id="kazSlowTop04-group1508">
                <path id="kazSlowTop04-bezier1990" stroke="none" fill="rgb(0, 0, 0)" d="M 117.1,32 C 116.64,32.07 116.27,32.4 116.12,32.8 115.99,33.2 115.89,33.7 115.72,34.13 115.56,34.57 115.42,35.03 115.17,35.44 114.9,35.8 114.62,36.29 114.07,36.37 L 114.06,36.32 C 114.37,36.02 114.52,35.58 114.73,35.19 114.92,34.79 115.18,34.4 115.37,33.99 115.59,33.57 115.71,33.16 115.92,32.71 116.15,32.27 116.61,31.96 117.09,31.95 L 117.1,32 Z M 117.1,32" />
            </g>
            <g id="kazSlowTop04-group1509">
                <path id="kazSlowTop04-bezier1991" stroke="none" fill="rgb(0, 0, 0)" d="M 117.25,31.96 C 117.38,31.9 117.52,31.81 117.58,31.7 117.65,31.58 117.57,31.47 117.46,31.39 117.22,31.22 116.93,31.12 116.66,30.93 116.09,30.59 115.79,29.89 115.68,29.29 115.55,28.72 115.28,28.18 115.04,27.64 114.79,27.1 114.51,26.56 114.18,26.05 L 114.22,26.01 C 114.77,26.35 115.14,26.88 115.48,27.41 115.8,27.96 116,28.58 116.09,29.21 116.15,29.81 116.34,30.36 116.81,30.72 117.04,30.91 117.32,31.05 117.56,31.26 117.69,31.36 117.81,31.59 117.68,31.75 117.57,31.9 117.41,31.96 117.27,32.01 L 117.25,31.96 Z M 117.25,31.96" />
            </g>
            <g id="kazSlowTop04-group1510">
                <path id="kazSlowTop04-bezier1992" stroke="none" fill="rgb(0, 0, 0)" d="M 87.21,15.79 C 87.99,14.6 89.25,13.8 90.57,13.29 91.9,12.78 93.33,12.54 94.79,12.65 95.17,12.69 95.5,12.73 95.94,12.93 96.06,12.97 96.35,13.21 96.45,13.37 96.58,13.54 96.68,13.72 96.76,13.9 97.07,14.61 97.2,15.32 97.31,16.03 97.5,17.46 97.48,18.87 97.32,20.28 L 97.28,20.59 97.02,20.67 C 96.39,20.86 95.74,21.05 95.11,21.27 94.8,21.38 94.49,21.5 94.19,21.62 94.04,21.69 93.89,21.76 93.76,21.85 93.64,21.94 93.49,22.03 93.55,22.15 L 93.48,22.21 C 93.3,22.02 93.49,21.78 93.59,21.66 93.72,21.53 93.85,21.41 93.99,21.3 94.27,21.09 94.57,20.91 94.87,20.74 95.47,20.4 96.09,20.1 96.73,19.84 L 96.43,20.22 C 96.43,18.86 96.42,17.48 96.34,16.14 96.3,15.47 96.22,14.79 96.01,14.21 95.96,14.07 95.89,13.94 95.82,13.82 95.72,13.7 95.75,13.69 95.56,13.57 95.37,13.48 95.01,13.37 94.7,13.33 93.4,13.14 92,13.32 90.7,13.69 89.41,14.08 88.14,14.75 87.29,15.85 L 87.21,15.79 Z M 87.21,15.79" />
            </g>
            <g id="kazSlowTop04-group1511">
                <path id="kazSlowTop04-bezier1993" stroke="none" fill="rgb(0, 0, 0)" d="M 117.74,49.31 C 113.84,48.99 109.95,48.69 106.06,48.6 105.09,48.59 104.11,48.59 103.16,48.67 102.21,48.78 101.21,48.88 100.23,48.89 99.24,48.91 98.25,48.86 97.26,48.72 96.3,48.55 95.26,48.35 94.48,47.7 L 94.52,47.64 C 95.38,48.06 96.37,48.13 97.32,48.17 98.28,48.22 99.24,48.18 100.2,48.13 L 103.11,47.96 C 104.12,47.92 105.09,47.97 106.08,48.02 109.99,48.24 113.87,48.71 117.74,49.23 L 117.74,49.31 Z M 117.74,49.31" />
            </g>
            <g id="kazSlowTop04-group1512">
                <path id="kazSlowTop04-bezier1994" stroke="none" fill="rgb(0, 0, 0)" d="M 101.84,41.52 C 104.47,42.13 107.12,42.65 109.77,43.2 111.09,43.46 112.43,43.67 113.74,44 115.04,44.34 116.36,44.72 117.62,45.09 L 117.65,45.16 C 116.24,45.22 114.92,44.94 113.58,44.74 112.25,44.5 110.94,44.12 109.64,43.78 107.02,43.11 104.4,42.41 101.82,41.6 L 101.84,41.52 Z M 101.84,41.52" />
            </g>
            <g id="kazSlowTop04-group1513">
                <path id="kazSlowTop04-bezier1995" stroke="none" fill="rgb(0, 0, 0)" d="M 96.96,42.62 C 96.95,43.76 96.97,44.91 96.54,46.07 96.41,46.35 96.23,46.66 95.89,46.85 95.62,47 95.29,47.1 95,47.16 94.4,47.28 93.81,47.31 93.21,47.29 92.03,47.25 90.82,47.1 89.73,46.55 88.66,46.02 87.66,45.18 87.21,44.07 L 87.29,44.01 C 88.17,44.76 89.12,45.26 90.13,45.63 91.14,45.99 92.18,46.37 93.27,46.49 93.81,46.56 94.37,46.58 94.89,46.52 95.17,46.48 95.4,46.44 95.64,46.34 95.8,46.27 95.97,46.07 96.09,45.85 96.58,44.91 96.73,43.73 96.86,42.61 L 96.96,42.62 Z M 96.96,42.62" />
            </g>
            <g id="kazSlowTop04-group1514">
                <path id="kazSlowTop04-bezier1996" stroke="none" fill="rgb(0, 0, 0)" d="M 49,42.79 C 51.49,43.78 54.08,44.52 56.66,45.2 59.26,45.88 61.87,46.47 64.5,46.99 67.12,47.52 69.77,47.95 72.42,48.35 L 80.36,49.57 80.4,49.58 80.42,49.59 C 81.16,49.89 82.04,49.82 82.76,49.42 83.48,49.03 84.16,48.35 84.24,47.48 L 84.32,47.48 C 84.34,47.94 84.17,48.38 83.92,48.76 83.67,49.14 83.34,49.48 82.95,49.73 82.18,50.24 81.15,50.42 80.23,50.12 L 80.29,50.14 C 77.61,49.87 74.94,49.57 72.29,49.1 69.65,48.63 67.01,48.1 64.39,47.52 61.77,46.93 59.15,46.28 56.58,45.52 54,44.75 51.44,43.93 48.97,42.85 L 49,42.79 Z M 49,42.79" />
            </g>
        </g>
    </g>
</svg>
