<?xml version="1.0" encoding="UTF-8"?>
<!DOCTYPE svg PUBLIC "-//W3C//DTD SVG 1.1//EN" "http://www.w3.org/Graphics/SVG/1.1/DTD/svg11.dtd">
<svg version="1.1" xmlns="http://www.w3.org/2000/svg" xmlns:xlink="http://www.w3.org/1999/xlink" width="160" height="160"  xml:space="preserve" id="kazSlowSide07">
    <!-- Generated by PaintCode - http://www.paintcodeapp.com -->
    <g id="kazSlowSide07-group">
        <path id="kazSlowSide07-bezier336" stroke="rgb(0, 0, 0)" stroke-width="2" stroke-miterlimit="10" fill="none" d="M 125.25,83.79 C 125.25,83.79 129.42,82.75 129.42,77.25 129.42,73.96 128.05,71.42 125.49,69.9" />
        <circle id="kazSlowSide07-oval20" stroke="rgb(0, 0, 0)" stroke-width="2" stroke-miterlimit="10" fill="none" cx="127.17" cy="126" r="29" />
        <path id="kazSlowSide07-bezier321" stroke="rgb(0, 0, 0)" stroke-width="2" stroke-miterlimit="10" fill="none" d="M 45.3,152.66 C 42.23,154.22 36.15,154.99 33.5,154.99 17.48,154.99 4.5,142.01 4.5,125.99 4.5,109.98 17.48,96.99 33.5,96.99 38.65,96.99 43.48,98.34 47.68,100.69" />
        <path id="kazSlowSide07-bezier322" stroke="rgb(0, 0, 0)" stroke-width="2" stroke-miterlimit="10" fill="none" d="M 62.5,126.18 C 62.44,135.56 57.93,143.88 50.97,149.14" />
        <path id="kazSlowSide07-bezier323" stroke="rgb(0, 0, 0)" stroke-width="2" stroke-miterlimit="10" fill="none" d="M 58.82,111 C 60.35,113.62 61.46,117.65 62.04,121.17" />
        <circle id="kazSlowSide07-oval21" stroke="rgb(0, 0, 0)" stroke-width="2" stroke-miterlimit="10" fill="none" cx="72" cy="133" r="8.33" />
        <circle id="kazSlowSide07-oval22" stroke="rgb(0, 0, 0)" stroke-width="2" stroke-miterlimit="10" fill="none" cx="33.5" cy="126" r="2.5" />
        <path id="kazSlowSide07-bezier324" stroke="rgb(0, 0, 0)" stroke-width="2" stroke-miterlimit="10" fill="none" d="M 52.92,129.53 L 72,133" />
        <path id="kazSlowSide07-bezier325" stroke="rgb(0, 0, 0)" stroke-width="2" stroke-miterlimit="10" fill="none" d="M 48.02,95.66 L 33.5,126 44.3,128.1" />
        <path id="kazSlowSide07-bezier326" stroke="rgb(0, 0, 0)" stroke-width="2" stroke-miterlimit="10" fill="none" d="M 111.76,78.83 L 63.67,78.83" />
        <path id="kazSlowSide07-bezier327" stroke="rgb(0, 0, 0)" stroke-width="2" stroke-miterlimit="10" fill="none" d="M 108.17,67.83 L 127.17,126" />
        <path id="kazSlowSide07-bezier328" stroke="rgb(0, 0, 0)" stroke-width="2" stroke-miterlimit="10" fill="none" d="M 114.83,88.22 L 79,123.49" />
        <path id="kazSlowSide07-bezier329" stroke="rgb(0, 0, 0)" stroke-width="2" stroke-miterlimit="10" fill="none" d="M 68.67,122 L 61.26,95.66" />
        <path id="kazSlowSide07-bezier330" stroke="rgb(0, 0, 0)" stroke-width="2" stroke-miterlimit="10" fill="none" d="M 42.87,68.49 C 42.28,68.34 41.81,68.12 41.5,67.83 38.83,65.32 35.58,63.69 40.48,63.51" />
        <path id="kazSlowSide07-bezier331" stroke="rgb(0, 0, 0)" stroke-width="1" stroke-miterlimit="10" fill="none" d="M 44.86,124.66 L 37.56,124.66" />
        <path id="kazSlowSide07-bezier332" stroke="rgb(0, 0, 0)" stroke-width="1" stroke-miterlimit="10" fill="none" d="M 66.94,124.66 L 56.86,124.66" />
        <path id="kazSlowSide07-bezier333" stroke="rgb(0, 0, 0)" stroke-width="1" stroke-miterlimit="10" fill="none" d="M 52.07,135.11 L 63.67,139.04" />
        <path id="kazSlowSide07-bezier334" stroke="rgb(0, 0, 0)" stroke-width="1" stroke-miterlimit="10" fill="none" d="M 35.5,129.5 L 44.28,132.47" />
        <path id="kazSlowSide07-bezier335" stroke="rgb(0, 0, 0)" stroke-width="2" stroke-miterlimit="10" fill="none" d="M 115.23,68.33 C 111.33,68.33 110.29,68.33 110.29,68.33" />
        <path id="kazSlowSide07-bezier337" stroke="rgb(0, 0, 0)" stroke-width="2" stroke-miterlimit="10" fill="none" d="M 55.5,122.66 L 64.55,122.66" />
        <path id="kazSlowSide07-bezier338" stroke="rgb(0, 0, 0)" stroke-width="2" stroke-miterlimit="10" fill="none" d="M 81.08,142.91 L 88.91,142.91" />
        <g id="kazSlowSide07-group238">
            <g id="kazSlowSide07-group239">
                <path id="kazSlowSide07-bezier339" stroke="none" fill="rgb(0, 0, 0)" d="M 122.81,67.66 C 123.43,68.47 124.07,69.27 124.72,70.04 125.04,70.43 125.44,70.74 125.7,71.14 125.99,71.54 126.18,71.95 126.55,72.31 L 126.54,72.41 C 126.24,72.51 125.9,72.41 125.65,72.28 125.39,72.16 125.17,71.99 124.96,71.81 124.54,71.45 124.33,70.95 124.06,70.5 123.54,69.6 123.1,68.67 122.72,67.71 L 122.81,67.66 Z M 122.81,67.66" />
            </g>
            <g id="kazSlowSide07-group240">
                <path id="kazSlowSide07-bezier340" stroke="none" fill="rgb(0, 0, 0)" d="M 127.57,72.54 C 126.25,73.54 124.86,74.46 123.31,75.1 122.54,75.39 121.68,75.67 120.78,75.41 119.92,75.15 119.27,74.47 118.8,73.78 117.85,72.34 117.37,70.72 116.85,69.16 L 116.8,69.04 C 116.78,68.99 116.76,68.93 116.75,68.91 116.72,68.86 116.66,68.77 116.61,68.7 116.5,68.55 116.37,68.4 116.24,68.25 115.98,67.95 115.69,67.66 115.4,67.38 114.81,66.82 114.2,66.27 113.58,65.73 111.08,63.6 108.44,61.63 105.87,59.57 104.6,58.53 103.29,57.53 102,56.51 101.35,56 100.7,55.5 100.04,55.01 99.39,54.51 98.73,54.01 98.02,53.61 L 98.06,53.51 C 99.62,54.12 101,55.06 102.4,55.94 103.8,56.84 105.14,57.81 106.48,58.78 109.14,60.74 111.66,62.9 114.11,65.13 114.72,65.7 115.33,66.27 115.91,66.87 116.2,67.17 116.49,67.47 116.77,67.8 116.9,67.96 117.04,68.13 117.16,68.32 117.23,68.42 117.28,68.5 117.35,68.64 117.38,68.71 117.39,68.74 117.41,68.8 L 117.47,68.96 C 117.94,70.54 118.37,72.14 119.22,73.5 119.63,74.17 120.18,74.78 120.91,75.04 121.61,75.28 122.45,75.08 123.21,74.82 124.74,74.26 126.17,73.4 127.51,72.46 L 127.57,72.54 Z M 127.57,72.54" />
            </g>
            <g id="kazSlowSide07-group241">
                <path id="kazSlowSide07-bezier341" stroke="none" fill="rgb(0, 0, 0)" d="M 98.35,52.61 C 97.67,52.62 96.94,52.43 96.42,51.9 96.16,51.64 96.03,51.27 95.86,51.02 L 95.33,50.17 C 94.6,49.04 93.84,47.93 93.08,46.82 92.32,45.71 91.5,44.64 90.82,43.47 90.15,42.31 89.5,41.13 88.97,39.86 L 89.06,39.8 C 90.04,40.77 90.87,41.84 91.66,42.93 92.45,44.02 93.09,45.22 93.76,46.39 94.44,47.56 95.11,48.73 95.76,49.92 95.92,50.22 96.07,50.52 96.22,50.83 96.39,51.16 96.45,51.46 96.65,51.7 97.03,52.19 97.7,52.46 98.35,52.51 L 98.35,52.61 Z M 98.35,52.61" />
            </g>
            <g id="kazSlowSide07-group242">
                <path id="kazSlowSide07-bezier342" stroke="none" fill="rgb(0, 0, 0)" d="M 87.65,39.46 C 88.88,38.23 90.27,37.14 91.79,36.24 92.54,35.79 93.33,35.38 94.14,35.03 94.96,34.67 95.8,34.34 96.69,34.18 L 96.33,34.91 C 95.8,33.71 95.3,32.5 94.9,31.21 L 94.99,31.16 C 95.91,32.15 96.62,33.3 97.25,34.46 L 97.56,35.02 96.9,35.19 C 96.09,35.39 95.26,35.56 94.45,35.83 93.65,36.09 92.86,36.43 92.09,36.8 90.56,37.56 89.07,38.45 87.72,39.53 L 87.65,39.46 Z M 87.65,39.46" />
            </g>
            <g id="kazSlowSide07-group243">
                <path id="kazSlowSide07-bezier343" stroke="none" fill="rgb(0, 0, 0)" d="M 96.45,35.46 C 97.58,36.96 98.62,38.53 99.55,40.18 100.01,41 100.52,41.8 100.83,42.71 101.13,43.6 101.38,44.53 101.41,45.51 L 101.32,45.54 C 100.76,44.74 100.33,43.92 99.91,43.1 99.48,42.28 99.21,41.38 98.83,40.53 98.08,38.84 97.25,37.16 96.37,35.51 L 96.45,35.46 Z M 96.45,35.46" />
            </g>
            <g id="kazSlowSide07-group244">
                <path id="kazSlowSide07-bezier344" stroke="none" fill="rgb(0, 0, 0)" d="M 102.77,47.72 C 105.27,48.68 107.44,50.51 108.94,52.74 110.53,54.84 112.34,56.81 114.15,58.75 115.98,60.67 117.88,62.53 119.78,64.35 120.24,64.8 120.73,65.26 121.22,65.61 121.66,65.9 122.31,65.99 122.95,66.09 123.6,66.17 124.34,66.27 124.97,66.64 125.58,67.02 126.04,67.57 126.35,68.17 L 126.27,68.22 C 125.84,67.72 125.34,67.27 124.76,67.05 124.19,66.81 123.56,66.79 122.9,66.78 122.23,66.76 121.49,66.73 120.77,66.34 120.14,65.96 119.63,65.53 119.11,65.1 117.07,63.32 115.32,61.29 113.56,59.28 111.81,57.26 110.08,55.23 108.53,53.03 107.17,50.76 105.16,48.9 102.74,47.81 L 102.77,47.72 Z M 102.77,47.72" />
            </g>
            <g id="kazSlowSide07-group245">
                <path id="kazSlowSide07-bezier345" stroke="none" fill="rgb(0, 0, 0)" d="M 95.73,19.3 C 95.97,20.56 96.49,21.76 97.21,22.78 97.92,23.84 98.84,24.65 99.93,25.31 101.01,25.99 102.15,26.56 103.25,27.04 103.8,27.28 104.38,27.45 104.92,27.45 105.47,27.46 106,27.16 106.39,26.64 L 106.48,26.68 C 106.41,27.01 106.25,27.33 106,27.6 105.74,27.87 105.39,28.05 105.03,28.14 104.29,28.33 103.57,28.18 102.91,27.98 101.59,27.56 100.52,26.75 99.48,25.97 98.41,25.21 97.43,24.2 96.78,23.05 96.14,21.89 95.74,20.61 95.63,19.31 L 95.73,19.3 Z M 95.73,19.3" />
            </g>
            <g id="kazSlowSide07-group246">
                <path id="kazSlowSide07-bezier346" stroke="none" fill="rgb(0, 0, 0)" d="M 107.67,23.65 C 108.34,23.78 109.07,23.83 109.67,23.6 109.97,23.47 110.19,23.25 110.26,22.97 110.34,22.7 110.28,22.36 110.28,22 110.25,20.6 110.25,19.19 110.41,17.77 110.5,17.05 110.6,16.34 110.94,15.59 111.05,15.39 111.1,15.29 111.17,15.15 111.23,15.01 111.28,14.86 111.34,14.71 111.45,14.41 111.54,14.1 111.61,13.78 111.88,12.53 112.07,11.13 111.25,10 L 111.32,9.92 C 111.97,10.28 112.36,11.03 112.53,11.75 112.71,12.48 112.7,13.24 112.59,13.97 112.53,14.34 112.44,14.7 112.31,15.06 112.25,15.24 112.17,15.41 112.09,15.59 112,15.76 111.87,15.96 111.81,16.06 111.52,16.56 111.34,17.24 111.2,17.89 110.95,19.23 110.85,20.62 110.78,22 110.75,22.34 110.79,22.71 110.64,23.1 110.5,23.49 110.14,23.78 109.77,23.88 109.04,24.08 108.32,23.94 107.65,23.75 L 107.67,23.65 Z M 107.67,23.65" />
            </g>
            <g id="kazSlowSide07-group247">
                <path id="kazSlowSide07-bezier347" stroke="none" fill="rgb(0, 0, 0)" d="M 99.93,20.28 C 99.59,19.66 99.32,19 99.17,18.29 99.09,17.93 98.95,17.55 99.08,17.15 99.19,16.78 99.47,16.32 99.95,16.27 L 100.02,16.34 C 99.98,16.76 100.05,16.99 100.07,17.29 100.1,17.58 99.98,17.89 99.96,18.22 99.94,18.87 99.97,19.56 100.03,20.25 L 99.93,20.28 Z M 99.93,20.28" />
            </g>
            <g id="kazSlowSide07-group248">
                <path id="kazSlowSide07-bezier348" stroke="none" fill="rgb(0, 0, 0)" d="M 95.68,25.43 C 95.89,25.14 96.13,24.88 96.42,24.66 96.56,24.55 96.69,24.36 96.9,24.38 97.1,24.39 97.36,24.47 97.52,24.75 L 97.51,24.85 C 97.35,25.12 97.28,25.24 97.16,25.35 97.06,25.45 96.89,25.37 96.73,25.4 96.42,25.43 96.09,25.48 95.73,25.52 L 95.68,25.43 Z M 95.68,25.43" />
            </g>
            <g id="kazSlowSide07-group249">
                <path id="kazSlowSide07-bezier349" stroke="none" fill="rgb(0, 0, 0)" d="M 87.65,20.27 C 84.64,20.36 81.7,21.2 78.87,22.16 76.02,23.14 73.27,24.33 70.71,25.88 68.13,27.42 65.73,29.21 63.25,30.92 62,31.76 60.77,32.63 59.49,33.45 58.2,34.24 56.91,35.1 55.43,35.54 L 55.4,35.44 C 56.07,35.1 56.69,34.69 57.29,34.24 57.9,33.8 58.49,33.34 59.09,32.88 L 62.66,30.11 C 65.08,28.29 67.64,26.65 70.31,25.18 72.97,23.69 75.82,22.57 78.71,21.68 81.62,20.84 84.61,20.13 87.65,20.17 L 87.65,20.27 Z M 87.65,20.27" />
            </g>
            <g id="kazSlowSide07-group250">
                <path id="kazSlowSide07-bezier350" stroke="none" fill="rgb(0, 0, 0)" d="M 54.95,36.46 C 56.94,38.32 58.87,40.25 60.71,42.26 61.63,43.27 62.52,44.31 63.35,45.4 64.18,46.49 65,47.61 65.58,48.93 L 64.92,48.79 C 65.88,47.82 66.86,46.88 67.86,45.96 68.86,45.03 69.9,44.16 70.98,43.33 72.09,42.53 73.2,41.73 74.39,41.05 75.58,40.4 76.85,39.73 78.24,39.64 L 78.26,39.74 C 77.61,39.91 77.01,40.21 76.44,40.55 75.86,40.88 75.31,41.25 74.77,41.64 73.68,42.42 72.62,43.24 71.6,44.11 70.57,44.96 69.54,45.83 68.51,46.7 67.49,47.57 66.47,48.45 65.48,49.36 L 65.05,49.77 64.83,49.22 C 64.36,48.02 63.6,46.88 62.83,45.79 62.05,44.69 61.21,43.63 60.34,42.59 58.61,40.5 56.78,38.48 54.89,36.53 L 54.95,36.46 Z M 54.95,36.46" />
            </g>
            <g id="kazSlowSide07-group251">
                <path id="kazSlowSide07-bezier351" stroke="none" fill="rgb(0, 0, 0)" d="M 80.2,39.77 C 80.76,39.91 81.34,39.95 81.91,39.93 82.47,39.93 83.03,39.85 83.56,39.71 84.1,39.58 84.57,39.29 85.09,39.14 85.61,38.98 86.13,38.79 86.75,38.66 L 86.81,38.74 C 86.52,39.32 86.04,39.74 85.5,40.06 84.95,40.38 84.3,40.44 83.69,40.5 82.46,40.62 81.23,40.4 80.17,39.86 L 80.2,39.77 Z M 80.2,39.77" />
            </g>
            <g id="kazSlowSide07-group252">
                <path id="kazSlowSide07-bezier352" stroke="none" fill="rgb(0, 0, 0)" d="M 53.96,38.4 C 53.41,39.47 52.76,40.48 51.98,41.42 51.59,41.89 51.22,42.41 50.67,42.73 50.13,43.05 49.5,43.3 48.83,43.23 L 48.8,43.13 50.07,41.93 C 50.47,41.54 50.97,41.25 51.41,40.86 52.27,40.1 53.1,39.24 53.88,38.35 L 53.96,38.4 Z M 53.96,38.4" />
            </g>
            <g id="kazSlowSide07-group253">
                <path id="kazSlowSide07-bezier353" stroke="none" fill="rgb(0, 0, 0)" d="M 62.46,54.44 C 61.42,53.28 60.3,52.19 59.1,51.18 57.91,50.19 56.64,49.26 55.26,48.58 54.57,48.22 53.85,48.01 53.09,47.72 52.35,47.42 51.64,47.07 50.95,46.67 49.57,45.85 48.3,44.89 47.22,43.65 L 47.7,43.72 C 46.08,44.96 44.57,46.44 43.3,48.06 42.03,49.68 41,51.47 40.43,53.4 40.16,54.36 40.01,55.36 40.04,56.35 40.09,57.35 40.29,58.36 40.56,59.35 40.83,60.34 41.17,61.32 41.61,62.26 42.04,63.2 42.54,64.13 43.27,64.87 L 43.2,64.95 C 42.33,64.31 41.72,63.4 41.17,62.49 40.64,61.56 40.19,60.59 39.83,59.58 39.49,58.56 39.23,57.51 39.12,56.41 39.02,55.3 39.15,54.18 39.45,53.12 40.02,50.99 41.23,49.12 42.6,47.48 43.99,45.85 45.55,44.4 47.29,43.13 L 47.56,42.94 47.78,43.2 C 48.73,44.35 49.95,45.36 51.25,46.16 51.9,46.57 52.58,46.93 53.29,47.23 53.98,47.53 54.77,47.79 55.46,48.19 56.86,48.95 58.11,49.93 59.28,50.98 60.44,52.03 61.54,53.17 62.53,54.38 L 62.46,54.44 Z M 62.46,54.44" />
            </g>
            <g id="kazSlowSide07-group254">
                <path id="kazSlowSide07-bezier354" stroke="none" fill="rgb(0, 0, 0)" d="M 43.75,66.56 C 44.09,69.57 44.48,72.57 44.91,75.56 45.33,78.56 45.78,81.55 46.34,84.51 46.62,85.99 46.93,87.47 47.3,88.92 47.48,89.65 47.68,90.36 47.91,91.06 48.11,91.78 48.42,92.36 48.75,93.12 49.88,96.07 49.92,99.32 49.05,102.24 L 48.95,102.22 C 49.26,99.23 49.03,96.16 47.83,93.51 47.55,92.89 47.14,92.12 46.92,91.38 46.68,90.64 46.5,89.89 46.34,89.15 46.02,87.65 45.77,86.15 45.55,84.65 44.64,78.65 44.08,72.61 43.65,66.57 L 43.75,66.56 Z M 43.75,66.56" />
            </g>
            <g id="kazSlowSide07-group255">
                <path id="kazSlowSide07-bezier355" stroke="none" fill="rgb(0, 0, 0)" d="M 48.45,101.85 C 47.82,103.05 47.25,104.28 46.76,105.53 46.28,106.78 45.83,108.07 45.77,109.37 45.76,112.04 45.96,114.75 46.05,117.45 46.16,120.16 46.31,122.87 46.18,125.58 46.1,126.94 46.01,128.3 45.81,129.65 45.58,130.99 45.37,132.39 44.66,133.59 L 44.57,133.54 C 44.8,132.91 44.9,132.25 44.97,131.59 45.04,130.92 45.09,130.25 45.11,129.58 45.17,128.25 45.2,126.9 45.18,125.56 L 45.25,117.47 C 45.26,114.76 45.16,112.08 45.27,109.34 45.41,107.93 45.94,106.65 46.48,105.41 47.04,104.17 47.67,102.97 48.36,101.81 L 48.45,101.85 Z M 48.45,101.85" />
            </g>
            <g id="kazSlowSide07-group256">
                <path id="kazSlowSide07-bezier356" stroke="none" fill="rgb(0, 0, 0)" d="M 60.32,63.59 C 61.07,66.36 61.61,69.19 62.02,72.03 62.4,74.88 62.63,77.75 62.66,80.64 62.71,83.51 62.61,86.42 62.09,89.27 61.54,92.11 60.74,94.92 59.41,97.49 L 59.31,97.45 C 60.1,94.69 60.73,91.93 61.1,89.11 61.49,86.31 61.8,83.48 61.86,80.63 61.93,77.79 61.8,74.93 61.52,72.09 61.25,69.25 60.84,66.41 60.22,63.62 L 60.32,63.59 Z M 60.32,63.59" />
            </g>
            <g id="kazSlowSide07-group257">
                <path id="kazSlowSide07-bezier357" stroke="none" fill="rgb(0, 0, 0)" d="M 59.79,98.1 C 60.26,98.63 60.4,99.3 60.58,99.94 60.71,100.58 60.8,101.3 60.67,102 60.54,102.67 60.42,103.34 60.1,103.93 59.78,104.51 59.4,105.06 58.86,105.52 L 58.77,105.47 C 58.82,104.77 58.99,104.15 59.18,103.54 59.35,102.93 59.7,102.39 59.89,101.81 60.09,101.24 60.11,100.64 60.08,100 60.04,99.39 60.03,98.7 59.72,98.17 L 59.79,98.1 Z M 59.79,98.1" />
            </g>
            <g id="kazSlowSide07-group258">
                <path id="kazSlowSide07-bezier358" stroke="none" fill="rgb(0, 0, 0)" d="M 58.87,106.43 C 58.15,108.89 57.46,111.36 56.84,113.84 56.32,116.33 55.61,118.85 54.95,121.31 54.27,123.78 53.61,126.26 52.97,128.74 52.36,131.21 51.56,133.7 51.01,136.12 L 50.91,136.59 50.49,136.46 C 49.48,136.15 48.45,135.82 47.42,135.56 46.9,135.43 46.39,135.31 45.87,135.21 45.35,135.13 44.8,135.03 44.32,135.18 L 44.27,135.1 C 44.79,134.81 45.36,134.86 45.9,134.86 46.45,134.88 46.99,134.94 47.53,135.02 48.61,135.18 49.67,135.38 50.72,135.66 L 50.19,136 C 50.6,133.39 51.3,130.95 52.02,128.48 L 54.28,121.11 55.4,117.44 C 55.58,116.82 55.78,116.21 55.92,115.6 56.07,114.97 56.25,114.35 56.43,113.73 57.15,111.27 57.95,108.83 58.77,106.4 L 58.87,106.43 Z M 58.87,106.43" />
            </g>
            <g id="kazSlowSide07-group259">
                <path id="kazSlowSide07-bezier359" stroke="none" fill="rgb(0, 0, 0)" d="M 43.69,140.54 C 43.79,139.76 43.9,138.99 44.01,138.22 44.07,137.84 44.04,137.44 44.19,137.1 44.34,136.74 44.53,136.42 44.81,136.06 L 44.91,136.06 C 45.18,136.48 45.19,136.92 45.17,137.32 45.15,137.72 44.93,138.07 44.78,138.43 44.49,139.16 44.16,139.87 43.79,140.57 L 43.69,140.54 Z M 43.69,140.54" />
            </g>
            <g id="kazSlowSide07-group260">
                <path id="kazSlowSide07-bezier360" stroke="none" fill="rgb(0, 0, 0)" d="M 47.98,154.69 C 47,153.43 45.94,152.21 44.76,151.15 44.18,150.62 43.55,150.11 42.88,149.84 42.14,149.59 41.33,149.25 40.64,148.77 39.95,148.29 39.2,147.67 38.99,146.63 38.9,146.12 39.02,145.57 39.25,145.15 39.5,144.72 39.82,144.39 40.15,144.11 L 40.38,143.92 C 40.45,143.86 40.55,143.79 40.6,143.74 40.71,143.64 40.83,143.5 40.94,143.36 41.17,143.07 41.37,142.74 41.58,142.41 41.99,141.76 42.34,140.9 43.15,140.51 L 43.2,140.6 C 42.92,140.87 42.75,141.21 42.62,141.58 42.47,141.94 42.35,142.32 42.21,142.71 42.07,143.1 41.89,143.48 41.67,143.86 41.55,144.05 41.42,144.23 41.25,144.42 41.17,144.52 41.11,144.57 41.03,144.64 L 40.81,144.86 C 40.27,145.35 39.9,145.93 39.97,146.48 40.01,147.06 40.52,147.67 41.11,148.12 41.71,148.59 42.38,148.94 43.14,149.24 43.94,149.64 44.53,150.21 45.11,150.79 46.23,151.98 47.18,153.29 48.06,154.64 L 47.98,154.69 Z M 47.98,154.69" />
            </g>
            <g id="kazSlowSide07-group261">
                <path id="kazSlowSide07-bezier361" stroke="none" fill="rgb(0, 0, 0)" d="M 44.32,141.97 C 44.77,142.38 45.28,142.71 45.8,142.96 46.06,143.09 46.35,143.1 46.57,143.27 46.79,143.44 47.01,143.61 47.26,143.95 L 47.24,144.05 C 46.89,144.25 46.51,144.27 46.18,144.19 45.83,144.13 45.58,143.84 45.34,143.62 44.84,143.17 44.46,142.62 44.23,142.02 L 44.32,141.97 Z M 44.32,141.97" />
            </g>
            <g id="kazSlowSide07-group262">
                <path id="kazSlowSide07-bezier362" stroke="none" fill="rgb(0, 0, 0)" d="M 48,144.45 C 48.41,144.3 48.86,144.17 49.33,144.32 49.56,144.39 49.76,144.59 49.83,144.83 49.91,145.06 49.95,145.25 50.01,145.46 50.24,146.29 50.5,147.12 50.78,147.92 51.06,148.73 51.37,149.54 51.77,150.26 51.95,150.6 52.24,151 52.42,151.05 L 52.69,151.09 53.03,151.16 C 53.25,151.21 53.46,151.27 53.68,151.34 54.53,151.62 55.37,151.95 56.15,152.51 56.34,152.65 56.53,152.82 56.71,153.04 56.88,153.26 57.06,153.51 57.07,153.94 L 57.07,154.02 C 57.06,154.08 57.05,154.15 57.04,154.21 57.01,154.33 56.97,154.43 56.91,154.51 56.8,154.69 56.66,154.8 56.53,154.89 56.27,155.06 56.02,155.14 55.78,155.2 54.84,155.4 53.97,155.38 53.09,155.33 52.21,155.28 51.35,155.19 50.49,155.05 L 50.49,154.95 C 52.19,154.65 54,154.65 55.52,154.24 55.7,154.19 55.86,154.12 55.96,154.05 56.01,154.01 56.03,153.98 56.03,153.97 56.04,153.97 56.04,153.96 56.03,153.98 56.03,153.98 56.03,154 56.03,154.01 L 56.03,153.93 C 56.05,153.87 55.83,153.5 55.54,153.28 54.95,152.79 54.18,152.4 53.41,152.1 53.22,152.02 53.02,151.95 52.83,151.9 L 52.54,151.82 C 52.43,151.79 52.39,151.8 52.17,151.73 51.83,151.58 51.69,151.36 51.54,151.17 51.4,150.97 51.29,150.77 51.19,150.56 50.8,149.75 50.55,148.91 50.31,148.07 50.08,147.23 49.89,146.38 49.72,145.53 49.62,145.1 49.64,144.65 49.25,144.5 48.89,144.35 48.43,144.42 48.04,144.54 L 48,144.45 Z M 48,144.45" />
            </g>
            <g id="kazSlowSide07-group263">
                <path id="kazSlowSide07-bezier363" stroke="none" fill="rgb(0, 0, 0)" d="M 47.97,142.98 C 48.14,141.9 48.35,140.83 48.6,139.77 48.73,139.24 48.78,138.67 49.04,138.18 49.3,137.7 49.58,137.18 50.13,136.84 L 50.21,136.91 C 50.17,137.47 50.11,138 49.98,138.53 49.87,139.05 49.57,139.52 49.36,140.02 48.94,141.01 48.51,142.01 48.07,143.01 L 47.97,142.98 Z M 47.97,142.98" />
            </g>
            <g id="kazSlowSide07-group264">
                <path id="kazSlowSide07-bezier364" stroke="none" fill="rgb(0, 0, 0)" d="M 77.28,98.68 L 77.37,111.72 77.47,114.97 77.54,116.58 C 77.56,116.83 77.57,117.12 77.61,117.31 77.62,117.37 77.67,117.56 77.7,117.71 L 77.77,118.14 C 77.87,119.26 77.91,120.34 77.93,121.43 L 77.95,123.06 C 77.97,123.59 77.95,124.17 78.12,124.63 L 78.05,124.7 C 77.83,124.46 77.78,124.18 77.7,123.92 77.62,123.65 77.56,123.38 77.5,123.11 77.4,122.57 77.31,122.03 77.23,121.49 77.07,120.41 76.97,119.32 76.78,118.29 L 76.71,117.91 C 76.69,117.8 76.66,117.72 76.61,117.52 76.54,117.18 76.53,116.92 76.51,116.63 76.48,116.08 76.48,115.53 76.48,114.98 L 76.57,111.71 C 76.69,107.36 76.91,103.01 77.18,98.67 L 77.28,98.68 Z M 77.28,98.68" />
            </g>
            <g id="kazSlowSide07-group265">
                <path id="kazSlowSide07-bezier365" stroke="none" fill="rgb(0, 0, 0)" d="M 71.2,122 C 70.72,119.94 70.22,117.87 69.7,115.82 69.19,113.76 68.67,111.7 68.08,109.67 67.93,109.17 67.77,108.67 67.59,108.18 67.4,107.72 67.21,107.13 67.11,106.59 66.91,105.49 66.9,104.4 66.95,103.32 67.1,101.16 67.47,99.05 68.02,96.99 L 68.12,97 C 68.14,99.15 67.92,101.25 67.95,103.35 67.95,104.39 67.97,105.43 68.09,106.43 68.15,106.94 68.26,107.37 68.44,107.9 68.6,108.42 68.73,108.94 68.85,109.46 69.85,113.62 70.59,117.8 71.3,121.99 L 71.2,122 Z M 71.2,122" />
            </g>
            <g id="kazSlowSide07-group266">
                <path id="kazSlowSide07-bezier366" stroke="none" fill="rgb(0, 0, 0)" d="M 82.7,134.23 C 83.8,135.32 85.06,136.3 86.45,136.88 87.13,137.17 87.91,137.29 88.67,137.5 89.43,137.7 90.19,137.9 90.94,138.15 91.7,138.39 92.45,138.65 93.2,139.05 93.56,139.27 93.94,139.5 94.25,139.94 94.4,140.17 94.53,140.45 94.5,140.82 94.51,140.87 94.47,141.13 94.4,141.27 94.33,141.42 94.24,141.54 94.14,141.65 93.71,142.05 93.27,142.16 92.85,142.25 92.43,142.33 92.03,142.37 91.62,142.37 90.81,142.37 90.03,142.28 89.25,142.13 L 89.25,142.03 C 90.03,141.9 90.81,141.82 91.56,141.67 91.93,141.59 92.29,141.52 92.63,141.4 92.96,141.29 93.28,141.13 93.41,140.96 93.44,140.93 93.46,140.89 93.47,140.86 93.48,140.82 93.48,140.89 93.49,140.74 93.49,140.72 93.47,140.62 93.39,140.52 93.26,140.32 92.98,140.09 92.68,139.9 92.09,139.51 91.38,139.19 90.67,138.9 89.96,138.62 89.23,138.37 88.49,138.13 87.76,137.87 86.99,137.7 86.25,137.34 84.81,136.58 83.64,135.49 82.63,134.3 L 82.7,134.23 Z M 82.7,134.23" />
            </g>
            <g id="kazSlowSide07-group267">
                <path id="kazSlowSide07-bezier367" stroke="none" fill="rgb(0, 0, 0)" d="M 80.63,142.12 C 80.12,141.82 79.56,141.64 79.02,141.49 78.74,141.42 78.44,141.44 78.2,141.29 77.96,141.14 77.72,140.96 77.49,140.63 L 77.51,140.53 C 77.86,140.33 78.19,140.3 78.51,140.33 78.83,140.36 79.08,140.6 79.35,140.76 79.88,141.1 80.37,141.52 80.7,142.05 L 80.63,142.12 Z M 80.63,142.12" />
            </g>
            <g id="kazSlowSide07-group268">
                <path id="kazSlowSide07-bezier368" stroke="none" fill="rgb(0, 0, 0)" d="M 62.32,54.92 C 62.14,56.15 61.93,57.36 61.72,58.57 61.61,59.18 61.58,59.8 61.38,60.38 61.19,60.96 60.91,61.52 60.62,62.07 L 60.52,62.09 C 60.27,61.41 60.34,60.77 60.4,60.15 60.47,59.53 60.75,58.96 60.94,58.38 61.33,57.2 61.76,56.05 62.23,54.9 L 62.32,54.92 Z M 62.32,54.92" />
            </g>
            <g id="kazSlowSide07-group269">
                <path id="kazSlowSide07-bezier369" stroke="none" fill="rgb(0, 0, 0)" d="M 62.31,64.88 C 64.06,66.59 65.64,68.47 67.14,70.42 68.61,72.38 69.98,74.42 71.23,76.54 72.49,78.65 73.68,80.82 74.58,83.11 75.45,85.41 76.21,87.77 76.6,90.2 L 76.5,90.23 C 75.56,87.96 74.69,85.7 73.66,83.5 72.66,81.3 71.68,79.07 70.54,76.93 69.38,74.79 68.11,72.71 66.73,70.71 65.35,68.7 63.89,66.75 62.24,64.95 L 62.31,64.88 Z M 62.31,64.88" />
            </g>
            <g id="kazSlowSide07-group270">
                <path id="kazSlowSide07-bezier370" stroke="none" fill="rgb(0, 0, 0)" d="M 76.85,91.07 C 77.25,92.08 77.56,93.13 77.77,94.22 77.87,94.76 78.03,95.31 77.95,95.88 77.87,96.44 77.7,97.03 77.28,97.48 L 77.18,97.45 C 77.07,96.87 77,96.38 76.95,95.86 76.89,95.35 76.99,94.83 76.97,94.3 76.95,93.24 76.87,92.17 76.75,91.09 L 76.85,91.07 Z M 76.85,91.07" />
            </g>
            <g id="kazSlowSide07-group271">
                <path id="kazSlowSide07-bezier371" stroke="none" fill="rgb(0, 0, 0)" d="M 67.38,95.68 C 66.79,94.6 66.12,93.56 65.36,92.65 64.97,92.19 64.5,91.85 64.12,91.43 63.73,91.02 63.34,90.66 62.81,90.27 L 62.83,90.17 C 63.51,90.02 64.22,90.29 64.77,90.67 65.33,91.05 65.67,91.64 66.01,92.18 66.68,93.27 67.15,94.44 67.47,95.64 L 67.38,95.68 Z M 67.38,95.68" />
            </g>
            <g id="kazSlowSide07-group272">
                <path id="kazSlowSide07-bezier372" stroke="none" fill="rgb(0, 0, 0)" d="M 110.78,8.69 C 109.38,7.11 107.46,6.05 105.46,5.43 103.46,4.82 101.31,4.64 99.24,4.86 98.21,4.97 97.2,5.23 96.28,5.68 95.37,6.13 94.58,6.8 93.98,7.62 92.78,9.27 92.33,11.37 92.2,13.43 92.13,14.47 92.19,15.52 92.15,16.61 92.11,17.68 92.03,18.76 91.89,19.82 91.63,21.96 91.15,24.07 90.45,26.11 89.72,28.14 88.81,30.13 87.49,31.87 86.83,32.73 86.07,33.53 85.17,34.16 84.27,34.77 83.24,35.21 82.16,35.3 L 82.14,35.2 C 84.23,34.74 85.8,33.17 86.93,31.46 88.06,29.73 88.89,27.79 89.5,25.8 90.14,23.81 90.59,21.76 90.91,19.69 91.07,18.65 91.19,17.61 91.25,16.57 91.32,15.53 91.29,14.46 91.4,13.37 91.59,11.24 92.1,9.01 93.46,7.22 94.14,6.35 95.03,5.63 96.03,5.16 97.03,4.7 98.12,4.45 99.19,4.36 101.35,4.2 103.52,4.46 105.55,5.14 107.58,5.84 109.49,6.97 110.86,8.63 L 110.78,8.69 Z M 110.78,8.69" />
            </g>
            <g id="kazSlowSide07-group273">
                <path id="kazSlowSide07-bezier373" stroke="none" fill="rgb(0, 0, 0)" d="M 109.74,10.85 C 109.08,12.17 108.3,13.46 107.09,14.43 106.79,14.66 106.44,14.87 106.06,15 105.69,15.14 105.2,15.16 104.86,15.14 104.14,15.12 103.42,15.14 102.71,15.22 101.31,15.39 99.92,15.82 99.02,16.68 98.56,17.1 98.28,17.69 98.14,18.35 98.01,19.02 98.03,19.74 98.09,20.48 L 97.99,20.51 C 97.66,19.84 97.45,19.09 97.45,18.29 97.43,17.49 97.72,16.63 98.29,15.99 98.85,15.36 99.61,14.97 100.37,14.75 101.13,14.54 101.9,14.45 102.65,14.42 103.41,14.39 104.16,14.42 104.9,14.49 105.6,14.61 106.21,14.42 106.8,14.02 107.98,13.25 108.9,12.04 109.65,10.81 L 109.74,10.85 Z M 109.74,10.85" />
            </g>
            <g id="kazSlowSide07-group274">
                <path id="kazSlowSide07-bezier374" stroke="none" fill="rgb(0, 0, 0)" d="M 95.11,23.08 C 95.3,25.14 95.29,27.22 95.03,29.31 94.89,30.34 94.76,31.41 94.32,32.4 93.88,33.37 93.24,34.34 92.27,34.87 L 92.2,34.79 C 92.75,33.9 93.08,32.99 93.38,32.05 93.66,31.1 94.02,30.16 94.24,29.17 94.46,28.18 94.62,27.17 94.74,26.15 94.88,25.14 94.97,24.11 95.01,23.08 L 95.11,23.08 Z M 95.11,23.08" />
            </g>
            <g id="kazSlowSide07-group275">
                <path id="kazSlowSide07-bezier375" stroke="none" fill="rgb(0, 0, 0)" d="M 64.28,49.44 L 63.56,51.12 C 63.45,51.39 63.42,51.71 63.24,51.92 63.06,52.15 62.86,52.32 62.56,52.57 L 62.46,52.56 C 62.21,52.21 62.26,51.8 62.33,51.49 62.41,51.16 62.68,50.95 62.88,50.71 63.28,50.22 63.72,49.78 64.19,49.38 L 64.28,49.44 Z M 64.28,49.44" />
            </g>
            <g id="kazSlowSide07-group276">
                <path id="kazSlowSide07-bezier376" stroke="none" fill="rgb(0, 0, 0)" d="M 90.53,15 C 90.24,17.34 89.71,19.66 88.86,21.9 88.42,23.01 87.97,24.16 87.16,25.1 86.38,26.03 85.26,26.88 84,26.9 L 83.97,26.81 C 85.03,26.25 85.73,25.41 86.37,24.5 86.98,23.57 87.62,22.62 88.12,21.58 88.63,20.54 89.05,19.46 89.43,18.35 89.82,17.25 90.16,16.13 90.44,14.99 L 90.53,15 Z M 90.53,15" />
            </g>
        </g>
        <path id="kazSlowSide07-bezier377" stroke="rgb(0, 0, 0)" stroke-width="2" stroke-miterlimit="10" fill="none" d="M 60.02,122.66 L 72,133" />
    </g>
</svg>
