<?xml version="1.0" encoding="UTF-8"?>
<!DOCTYPE svg PUBLIC "-//W3C//DTD SVG 1.1//EN" "http://www.w3.org/Graphics/SVG/1.1/DTD/svg11.dtd">
<svg version="1.1" xmlns="http://www.w3.org/2000/svg" xmlns:xlink="http://www.w3.org/1999/xlink" width="160" height="160"  xml:space="preserve" id="kazWhixxSide04">
    <!-- Generated by PaintCode - http://www.paintcodeapp.com -->
    <g id="kazWhixxSide04-group">
        <circle id="kazWhixxSide04-oval41" stroke="rgb(0, 0, 0)" stroke-width="2" stroke-miterlimit="10" fill="none" cx="126.61" cy="117.81" r="29" />
        <path id="kazWhixxSide04-bezier899" stroke="rgb(0, 0, 0)" stroke-width="2" stroke-miterlimit="10" fill="none" d="M 61.94,118.35 C 61.65,134.12 48.78,146.81 32.95,146.81 16.93,146.81 3.95,133.82 3.95,117.81 3.95,101.79 16.93,88.81 32.95,88.81 39.78,88.81 46.06,91.17 51.02,95.13" />
        <path id="kazWhixxSide04-bezier900" stroke="rgb(0, 0, 0)" stroke-width="2" stroke-miterlimit="10" fill="none" d="M 57.04,101.66 C 58.59,103.97 59.81,106.51 60.65,109.22" />
        <circle id="kazWhixxSide04-oval42" stroke="rgb(0, 0, 0)" stroke-width="2" stroke-miterlimit="10" fill="none" cx="71.45" cy="124.81" r="8.33" />
        <circle id="kazWhixxSide04-oval43" stroke="rgb(0, 0, 0)" stroke-width="2" stroke-miterlimit="10" fill="none" cx="32.95" cy="117.81" r="2.5" />
        <path id="kazWhixxSide04-bezier901" stroke="rgb(0, 0, 0)" stroke-width="2" stroke-miterlimit="10" fill="none" d="M 62.95,70.64 L 55.28,70.64 32.95,117.81 71.45,124.81" />
        <path id="kazWhixxSide04-bezier902" stroke="rgb(0, 0, 0)" stroke-width="2" stroke-miterlimit="10" fill="none" d="M 105.28,70.64 L 82.2,70.64" />
        <path id="kazWhixxSide04-bezier903" stroke="rgb(0, 0, 0)" stroke-width="2" stroke-miterlimit="10" fill="none" d="M 112.66,75.09 L 126.61,117.81" />
        <path id="kazWhixxSide04-bezier904" stroke="rgb(0, 0, 0)" stroke-width="2" stroke-miterlimit="10" fill="none" d="M 107.61,59.64 L 109.09,64.15" />
        <path id="kazWhixxSide04-bezier905" stroke="rgb(0, 0, 0)" stroke-width="2" stroke-miterlimit="10" fill="none" d="M 114.27,80.03 L 78.45,115.3" />
        <path id="kazWhixxSide04-bezier906" stroke="rgb(0, 0, 0)" stroke-width="2" stroke-miterlimit="10" fill="none" d="M 59.81,84.28 L 54.66,65.95" />
        <path id="kazWhixxSide04-bezier907" stroke="rgb(0, 0, 0)" stroke-width="2" stroke-miterlimit="10" fill="none" d="M 68.11,113.81 L 63.34,96.83" />
        <path id="kazWhixxSide04-bezier908" stroke="rgb(0, 0, 0)" stroke-width="2" stroke-miterlimit="10" fill="none" d="M 48.56,60.4 C 45.18,60.73 42.06,60.69 40.95,59.64 38.11,56.97 34.61,55.31 40.95,55.31 41.3,55.31 41.68,55.31 42.07,55.31" />
        <path id="kazWhixxSide04-bezier909" stroke="rgb(0, 0, 0)" stroke-width="1" stroke-miterlimit="10" fill="none" d="M 66.38,116.47 L 37.01,116.47" />
        <path id="kazWhixxSide04-bezier910" stroke="rgb(0, 0, 0)" stroke-width="1" stroke-miterlimit="10" fill="none" d="M 34.95,121.31 L 63.11,130.85" />
        <path id="kazWhixxSide04-bezier911" stroke="rgb(0, 0, 0)" stroke-width="2" stroke-miterlimit="10" fill="none" d="M 124.7,75.6 C 124.7,75.6 128.86,74.56 128.86,69.06 128.86,63.56 125.03,60.14 118.2,60.14 111.36,60.14 109.74,60.14 109.74,60.14" />
        <path id="kazWhixxSide04-bezier912" stroke="rgb(0, 0, 0)" stroke-width="2" stroke-miterlimit="10" fill="none" d="M 54.12,114.47 L 61.95,114.47" />
        <path id="kazWhixxSide04-bezier913" stroke="rgb(0, 0, 0)" stroke-width="2" stroke-miterlimit="10" fill="none" d="M 80.53,134.72 L 88.36,134.72" />
        <g id="kazWhixxSide04-group685">
            <g id="kazWhixxSide04-group686">
                <path id="kazWhixxSide04-bezier914" stroke="none" fill="rgb(0, 0, 0)" d="M 120.32,73.52 C 121.06,74.24 121.8,74.94 122.55,75.61 122.93,75.94 123.37,76.2 123.69,76.56 124.03,76.9 124.27,77.29 124.69,77.59 L 124.7,77.69 C 124.42,77.83 124.07,77.78 123.8,77.69 123.52,77.61 123.28,77.47 123.05,77.33 122.58,77.03 122.3,76.57 121.97,76.16 121.32,75.34 120.75,74.48 120.24,73.58 L 120.32,73.52 Z M 120.32,73.52" />
            </g>
            <g id="kazWhixxSide04-group687">
                <path id="kazWhixxSide04-bezier915" stroke="none" fill="rgb(0, 0, 0)" d="M 125.73,77.67 C 124.58,78.86 123.33,79.97 121.89,80.82 121.16,81.22 120.36,81.62 119.42,81.49 118.54,81.35 117.8,80.78 117.23,80.16 116.09,78.88 115.38,77.33 114.64,75.87 L 114.58,75.75 C 114.55,75.71 114.52,75.65 114.5,75.64 114.47,75.59 114.4,75.51 114.34,75.45 114.21,75.31 114.06,75.18 113.91,75.05 113.6,74.8 113.28,74.55 112.95,74.32 112.29,73.84 111.6,73.39 110.91,72.95 108.13,71.19 105.24,69.63 102.4,67.96 100.99,67.11 99.55,66.3 98.12,65.48 97.41,65.07 96.69,64.67 95.97,64.28 95.25,63.88 94.53,63.48 93.77,63.18 L 93.79,63.09 C 95.43,63.46 96.93,64.19 98.44,64.87 99.95,65.56 101.42,66.33 102.89,67.09 105.8,68.65 108.61,70.42 111.35,72.28 112.04,72.75 112.72,73.22 113.38,73.73 113.71,73.99 114.04,74.25 114.36,74.53 114.52,74.68 114.68,74.82 114.83,74.99 114.9,75.08 114.97,75.16 115.06,75.28 115.1,75.35 115.12,75.38 115.14,75.43 L 115.22,75.59 C 115.92,77.08 116.57,78.6 117.6,79.83 118.11,80.43 118.74,80.95 119.5,81.1 120.23,81.24 121.03,80.92 121.74,80.55 123.18,79.79 124.47,78.73 125.66,77.6 L 125.73,77.67 Z M 125.73,77.67" />
            </g>
            <g id="kazWhixxSide04-group688">
                <path id="kazWhixxSide04-bezier916" stroke="none" fill="rgb(0, 0, 0)" d="M 91.68,61.68 C 90.92,61.39 90.19,60.76 90.06,59.86 90,59.04 89.81,58.26 89.65,57.46 89.33,55.86 88.99,54.27 88.63,52.68 88.28,51.09 87.85,49.52 87.58,47.91 87.3,46.31 87.13,44.67 86.91,43.08 L 86.99,43.03 C 87.42,43.78 87.64,44.56 87.9,45.34 88.16,46.12 88.36,46.91 88.56,47.71 88.96,49.29 89.17,50.92 89.42,52.53 89.67,54.14 89.92,55.76 90.14,57.38 90.23,58.19 90.36,59.01 90.36,59.83 90.39,60.59 91,61.25 91.72,61.59 L 91.68,61.68 Z M 91.68,61.68" />
            </g>
            <g id="kazWhixxSide04-group689">
                <path id="kazWhixxSide04-bezier917" stroke="none" fill="rgb(0, 0, 0)" d="M 86.1,42.18 C 87.71,41.52 89.41,41.06 91.14,40.79 92.88,40.54 94.66,40.49 96.43,40.74 L 95.96,41.17 C 95.86,40.32 95.76,39.48 95.63,38.64 L 95.27,36.14 C 95.16,35.31 95.01,34.49 94.82,33.68 94.73,33.28 94.61,32.88 94.45,32.51 94.3,32.13 94.09,31.77 93.76,31.52 L 93.8,31.43 C 94.69,31.76 95.12,32.68 95.48,33.46 95.83,34.27 96.06,35.12 96.25,35.96 96.43,36.82 96.55,37.67 96.62,38.53 96.69,39.39 96.73,40.25 96.76,41.11 L 96.78,41.64 96.29,41.54 C 94.64,41.19 92.91,41.14 91.2,41.29 89.49,41.43 87.78,41.74 86.13,42.27 L 86.1,42.18 Z M 86.1,42.18" />
            </g>
            <g id="kazWhixxSide04-group690">
                <path id="kazWhixxSide04-bezier918" stroke="none" fill="rgb(0, 0, 0)" d="M 95.66,42.21 C 96.38,44.46 96.91,46.78 97.27,49.12 97.45,50.3 97.67,51.48 97.64,52.67 97.62,53.86 97.51,55.06 97.16,56.23 L 97.06,56.22 C 96.86,55.03 96.75,53.87 96.64,52.71 96.53,51.55 96.56,50.38 96.47,49.22 96.29,46.88 96,44.55 95.57,42.24 L 95.66,42.21 Z M 95.66,42.21" />
            </g>
            <g id="kazWhixxSide04-group691">
                <path id="kazWhixxSide04-bezier919" stroke="none" fill="rgb(0, 0, 0)" d="M 97.62,56.67 C 100.24,57.27 102.65,58.76 104.45,60.75 106.33,62.61 108.4,64.29 110.47,65.95 112.56,67.6 114.71,69.16 116.84,70.69 117.37,71.07 117.92,71.46 118.46,71.73 118.93,71.96 119.58,71.95 120.24,71.95 120.89,71.95 121.64,71.94 122.31,72.22 122.98,72.5 123.5,72.98 123.9,73.52 L 123.83,73.59 C 123.33,73.16 122.77,72.78 122.17,72.65 121.57,72.49 120.94,72.56 120.28,72.65 119.62,72.73 118.89,72.8 118.12,72.52 117.44,72.23 116.87,71.88 116.29,71.53 114.02,70.06 111.99,68.31 109.96,66.57 107.94,64.82 105.93,63.06 104.09,61.1 102.42,59.06 100.16,57.5 97.6,56.77 L 97.62,56.67 Z M 97.62,56.67" />
            </g>
            <g id="kazWhixxSide04-group692">
                <path id="kazWhixxSide04-bezier920" stroke="none" fill="rgb(0, 0, 0)" d="M 102.02,31.45 C 102.72,32.52 103.66,33.43 104.71,34.11 105.77,34.81 106.93,35.21 108.19,35.41 109.45,35.62 110.72,35.72 111.92,35.75 112.52,35.75 113.12,35.7 113.63,35.49 114.14,35.29 114.51,34.81 114.68,34.18 L 114.78,34.18 C 114.84,34.52 114.8,34.87 114.68,35.22 114.54,35.56 114.28,35.86 113.98,36.09 113.37,36.54 112.64,36.67 111.97,36.75 110.59,36.86 109.28,36.51 108.02,36.19 106.75,35.89 105.46,35.34 104.42,34.51 103.39,33.68 102.53,32.66 101.93,31.5 L 102.02,31.45 Z M 102.02,31.45" />
            </g>
            <g id="kazWhixxSide04-group693">
                <path id="kazWhixxSide04-bezier921" stroke="none" fill="rgb(0, 0, 0)" d="M 114.48,31.59 C 115.11,31.47 115.75,31.28 116.23,30.91 116.47,30.72 116.63,30.47 116.62,30.22 116.62,29.96 116.46,29.71 116.31,29.4 115.74,28.22 115.19,27.03 114.79,25.75 114.6,25.1 114.4,24.46 114.44,23.67 114.46,23.44 114.48,23.35 114.48,23.21 114.48,23.07 114.47,22.92 114.47,22.78 114.46,22.49 114.42,22.19 114.36,21.9 114.14,20.73 113.73,19.51 112.6,18.85 L 112.63,18.76 C 113.32,18.81 113.96,19.26 114.4,19.8 114.86,20.35 115.15,21 115.34,21.68 115.42,22.02 115.48,22.37 115.5,22.73 115.51,22.9 115.51,23.09 115.49,23.27 115.48,23.45 115.43,23.68 115.42,23.78 115.33,24.29 115.44,24.94 115.56,25.55 115.84,26.78 116.29,28 116.76,29.2 116.86,29.49 117.05,29.83 117.01,30.24 116.98,30.65 116.7,30.97 116.41,31.15 115.81,31.52 115.14,31.63 114.49,31.69 L 114.48,31.59 Z M 114.48,31.59" />
            </g>
            <g id="kazWhixxSide04-group694">
                <path id="kazWhixxSide04-bezier922" stroke="none" fill="rgb(0, 0, 0)" d="M 112.15,16.56 C 112,15.81 111.36,15.24 110.69,14.9 110.01,14.54 109.25,14.36 108.48,14.25 106.95,14.05 105.38,14.14 103.84,14.33 100.75,14.73 97.68,15.42 94.58,15.95 91.49,16.49 88.35,16.98 85.17,16.95 82,16.9 78.78,16.51 75.85,15.3 L 75.88,15.2 C 78.95,15.85 82.05,16.08 85.15,15.95 88.25,15.85 91.36,15.59 94.46,15.16 97.56,14.73 100.64,14.14 103.79,13.84 105.36,13.71 106.96,13.69 108.53,13.96 109.31,14.1 110.09,14.32 110.79,14.72 111.47,15.11 112.12,15.73 112.25,16.55 L 112.15,16.56 Z M 112.15,16.56" />
            </g>
            <g id="kazWhixxSide04-group695">
                <path id="kazWhixxSide04-bezier923" stroke="none" fill="rgb(0, 0, 0)" d="M 110.53,22.83 C 109.96,24.05 108.76,24.91 107.45,25.21 106.13,25.53 104.74,25.36 103.46,25 100.96,24.18 98.41,23.68 95.81,23.31 93.22,22.96 90.62,22.81 88.02,22.67 85.42,22.52 82.82,22.49 80.22,22.85 L 80.19,22.76 C 82.7,21.82 85.41,21.7 88.05,21.67 90.7,21.69 93.34,22.06 95.94,22.52 98.54,22.99 101.14,23.61 103.6,24.53 104.82,24.93 106.12,25.15 107.39,24.92 108.64,24.7 109.83,23.94 110.44,22.79 L 110.53,22.83 Z M 110.53,22.83" />
            </g>
            <g id="kazWhixxSide04-group696">
                <path id="kazWhixxSide04-bezier924" stroke="none" fill="rgb(0, 0, 0)" d="M 105.49,29.5 C 104.94,29.06 104.45,28.55 104.03,27.95 103.83,27.65 103.55,27.35 103.52,26.94 103.48,26.55 103.56,26.02 103.99,25.78 L 104.08,25.83 C 104.2,26.23 104.36,26.42 104.49,26.69 104.62,26.94 104.63,27.27 104.74,27.58 104.96,28.2 105.25,28.82 105.57,29.44 L 105.49,29.5 Z M 105.49,29.5" />
            </g>
            <g id="kazWhixxSide04-group697">
                <path id="kazWhixxSide04-bezier925" stroke="none" fill="rgb(0, 0, 0)" d="M 98.25,28.27 C 97.1,27.68 95.98,27.06 94.8,26.68 94.21,26.48 93.61,26.44 93.04,26.28 92.46,26.12 91.88,26.02 91.21,25.86 L 91.19,25.76 C 91.78,25.37 92.5,25.25 93.18,25.29 93.88,25.32 94.51,25.65 95.11,25.94 95.7,26.24 96.26,26.59 96.79,26.97 97.32,27.35 97.81,27.78 98.31,28.18 L 98.25,28.27 Z M 98.25,28.27" />
            </g>
            <g id="kazWhixxSide04-group698">
                <path id="kazWhixxSide04-bezier926" stroke="none" fill="rgb(0, 0, 0)" d="M 97.6,35.51 C 98.42,35.16 99.26,34.87 100.13,34.65 100.56,34.55 101,34.37 101.47,34.42 101.92,34.47 102.45,34.59 102.8,35.01 L 102.76,35.1 C 102.29,35.23 101.92,35.35 101.51,35.42 101.1,35.51 100.67,35.43 100.24,35.44 99.38,35.48 98.51,35.54 97.63,35.6 L 97.6,35.51 Z M 97.6,35.51" />
            </g>
            <g id="kazWhixxSide04-group699">
                <path id="kazWhixxSide04-bezier927" stroke="none" fill="rgb(0, 0, 0)" d="M 93.76,27.68 C 91.15,26.72 88.35,26.4 85.6,26.22 82.83,26.06 80.04,26.08 77.3,26.38 74.54,26.68 71.84,27.28 69.11,27.79 67.74,28.02 66.38,28.31 64.99,28.52 63.61,28.72 62.19,28.94 60.78,28.77 L 60.78,28.67 C 62.17,28.55 63.5,28.18 64.85,27.84 L 68.9,26.81 C 71.63,26.17 74.42,25.78 77.23,25.59 80.03,25.38 82.85,25.46 85.64,25.73 88.41,26.04 91.21,26.49 93.8,27.59 L 93.76,27.68 Z M 93.76,27.68" />
            </g>
            <g id="kazWhixxSide04-group700">
                <path id="kazWhixxSide04-bezier928" stroke="none" fill="rgb(0, 0, 0)" d="M 59.99,29.45 C 61.15,31.92 62.24,34.42 63.2,36.97 63.67,38.25 64.12,39.55 64.49,40.87 64.86,42.19 65.2,43.53 65.26,44.97 L 64.66,44.57 C 66.74,43.67 68.86,42.9 71.07,42.4 72.18,42.16 73.3,41.93 74.44,41.86 75.57,41.79 76.75,41.78 77.84,42.18 L 77.81,42.27 C 76.71,42.14 75.61,42.31 74.53,42.51 73.45,42.74 72.37,42.99 71.31,43.32 69.2,43.96 67.07,44.62 64.99,45.38 L 64.38,45.6 64.39,44.98 C 64.41,43.69 64.13,42.35 63.82,41.05 63.51,39.74 63.12,38.44 62.7,37.15 61.87,34.57 60.93,32.01 59.9,29.5 L 59.99,29.45 Z M 59.99,29.45" />
            </g>
            <g id="kazWhixxSide04-group701">
                <path id="kazWhixxSide04-bezier929" stroke="none" fill="rgb(0, 0, 0)" d="M 79.61,43.02 C 80.07,43.36 80.6,43.61 81.13,43.8 81.65,44.01 82.2,44.15 82.74,44.21 83.29,44.29 83.84,44.2 84.37,44.25 84.92,44.3 85.47,44.32 86.1,44.43 L 86.13,44.52 C 85.64,44.95 85.03,45.16 84.41,45.25 83.79,45.35 83.16,45.17 82.57,45 81.39,44.64 80.32,43.99 79.54,43.09 L 79.61,43.02 Z M 79.61,43.02" />
            </g>
            <g id="kazWhixxSide04-group702">
                <path id="kazWhixxSide04-bezier930" stroke="none" fill="rgb(0, 0, 0)" d="M 58.35,30.89 C 56.99,31.85 55.57,32.73 54.09,33.5 53.35,33.89 52.61,34.34 51.78,34.54 50.96,34.74 50.05,34.89 49.19,34.58 L 49.2,34.48 C 50.01,34.23 50.72,33.9 51.46,33.59 52.19,33.27 52.99,33.08 53.76,32.78 55.28,32.18 56.8,31.51 58.3,30.8 L 58.35,30.89 Z M 58.35,30.89" />
            </g>
            <g id="kazWhixxSide04-group703">
                <path id="kazWhixxSide04-bezier931" stroke="none" fill="rgb(0, 0, 0)" d="M 61.91,46.25 C 60.87,45.08 59.75,43.99 58.56,42.98 57.36,41.98 56.09,41.06 54.71,40.37 54.02,40.01 53.3,39.8 52.55,39.51 51.81,39.21 51.09,38.86 50.4,38.46 49.03,37.64 47.77,36.67 46.69,35.44 L 47.13,35.5 C 45.16,37.01 43.36,38.85 42.05,40.95 40.73,43.05 39.97,45.49 40.4,47.89 40.74,50.3 41.75,52.64 43.29,54.58 44.83,56.51 46.82,58.19 49.21,59.05 L 49.18,59.14 C 46.65,58.61 44.42,57.02 42.69,55.09 40.97,53.12 39.75,50.67 39.37,48.03 39.16,46.73 39.26,45.32 39.63,44.05 40,42.77 40.61,41.58 41.33,40.49 42.8,38.32 44.65,36.49 46.76,34.96 L 47,34.79 47.2,35.03 C 48.16,36.18 49.39,37.18 50.68,37.99 51.34,38.4 52.02,38.75 52.73,39.06 53.42,39.36 54.21,39.62 54.9,40.01 56.3,40.77 57.55,41.75 58.72,42.79 59.89,43.85 60.98,44.98 61.98,46.19 L 61.91,46.25 Z M 61.91,46.25" />
            </g>
            <g id="kazWhixxSide04-group704">
                <path id="kazWhixxSide04-bezier932" stroke="none" fill="rgb(0, 0, 0)" d="M 50.79,60.11 C 52.18,61.77 53.73,63.31 55.4,64.67 56.23,65.36 57.1,65.99 58.02,66.53 58.47,66.81 58.95,67.05 59.43,67.26 59.89,67.46 60.44,67.62 60.95,67.87 62.99,68.81 64.8,70.13 66.41,71.62 67.99,73.14 69.49,74.75 70.73,76.56 L 70.66,76.63 C 69,75.21 67.42,73.73 65.75,72.37 64.09,71.01 62.47,69.57 60.6,68.59 60.15,68.34 59.64,68.17 59.13,67.91 58.62,67.67 58.14,67.39 57.67,67.09 56.74,66.48 55.88,65.79 55.07,65.05 53.46,63.56 52.01,61.92 50.71,60.17 L 50.79,60.11 Z M 50.79,60.11" />
            </g>
            <g id="kazWhixxSide04-group705">
                <path id="kazWhixxSide04-bezier933" stroke="none" fill="rgb(0, 0, 0)" d="M 69.14,77.68 C 67.22,79.01 65.33,80.41 63.63,81.99 63.2,82.39 62.79,82.8 62.43,83.23 62.07,83.67 61.74,84.15 61.4,84.62 L 59.41,87.52 C 58.08,89.45 56.77,91.41 55.21,93.19 54.42,94.07 53.62,94.94 52.74,95.74 51.85,96.53 50.91,97.29 49.81,97.77 L 49.76,97.68 C 50.69,96.97 51.48,96.12 52.24,95.25 53,94.38 53.74,93.48 54.44,92.56 55.87,90.72 57.35,88.92 58.76,87.05 L 60.88,84.24 C 61.24,83.78 61.59,83.31 61.99,82.85 62.4,82.41 62.84,82 63.29,81.62 65.12,80.11 67.08,78.82 69.09,77.6 L 69.14,77.68 Z M 69.14,77.68" />
            </g>
            <g id="kazWhixxSide04-group706">
                <path id="kazWhixxSide04-bezier934" stroke="none" fill="rgb(0, 0, 0)" d="M 61.98,48.43 C 65.98,51.49 69.69,54.93 73.09,58.67 74.79,60.54 76.45,62.46 77.84,64.59 79.2,66.72 80.45,68.96 81.24,71.37 L 81.15,71.41 C 79.84,69.25 78.5,67.16 77.01,65.15 75.55,63.14 74.09,61.12 72.48,59.19 70.88,57.28 69.18,55.43 67.41,53.65 65.65,51.87 63.83,50.13 61.91,48.51 L 61.98,48.43 Z M 61.98,48.43" />
            </g>
            <g id="kazWhixxSide04-group707">
                <path id="kazWhixxSide04-bezier935" stroke="none" fill="rgb(0, 0, 0)" d="M 81.91,72.61 C 82.32,73.22 82.71,73.85 83.05,74.51 83.35,75.19 83.69,75.87 83.66,76.76 83.51,77.71 83.06,78.36 82.5,78.89 81.94,79.41 81.31,79.83 80.56,80.07 L 80.5,79.99 C 80.89,79.33 81.35,78.77 81.77,78.22 82.17,77.68 82.73,77.16 82.87,76.67 82.99,76.1 82.79,75.36 82.58,74.7 82.38,74.01 82.12,73.33 81.82,72.66 L 81.91,72.61 Z M 81.91,72.61" />
            </g>
            <g id="kazWhixxSide04-group708">
                <path id="kazWhixxSide04-bezier936" stroke="none" fill="rgb(0, 0, 0)" d="M 79.81,80.76 C 77.78,82.61 75.72,84.47 73.89,86.5 73.67,86.76 73.46,87.01 73.3,87.29 73.06,87.64 72.8,87.85 72.55,88.09 72.03,88.56 71.5,89 70.97,89.45 69.9,90.32 68.82,91.18 67.74,92.04 L 61.25,97.16 C 60.17,98.01 59.08,98.86 57.99,99.69 56.92,100.53 55.76,101.34 54.83,102.24 L 54.5,102.57 54.22,102.23 C 53.55,101.42 52.88,100.57 52.16,99.79 51.8,99.4 51.44,99.01 51.06,98.65 50.67,98.3 50.27,97.91 49.78,97.77 L 49.79,97.67 C 50.37,97.72 50.82,98.08 51.27,98.38 51.72,98.7 52.14,99.05 52.54,99.41 53.34,100.15 54.12,100.89 54.84,101.71 L 54.23,101.7 C 55.24,100.63 56.29,99.78 57.36,98.89 58.44,98.02 59.54,97.19 60.64,96.37 L 67.31,91.48 C 68.42,90.66 69.52,89.84 70.61,88.99 71.15,88.57 71.69,88.15 72.21,87.71 72.45,87.49 72.74,87.25 72.9,87.03 73.09,86.73 73.34,86.46 73.57,86.21 75.52,84.22 77.64,82.46 79.75,80.68 L 79.81,80.76 Z M 79.81,80.76" />
            </g>
            <g id="kazWhixxSide04-group709">
                <path id="kazWhixxSide04-bezier937" stroke="none" fill="rgb(0, 0, 0)" d="M 46.99,102.36 L 48.26,100.33 C 48.47,100 48.59,99.61 48.86,99.34 49.12,99.05 49.42,98.84 49.73,98.56 L 49.83,98.56 C 50.05,99.06 49.85,99.52 49.69,99.9 49.52,100.29 49.17,100.54 48.89,100.82 48.32,101.4 47.71,101.93 47.07,102.42 L 46.99,102.36 Z M 46.99,102.36" />
            </g>
            <g id="kazWhixxSide04-group710">
                <path id="kazWhixxSide04-bezier938" stroke="none" fill="rgb(0, 0, 0)" d="M 53.43,113.35 C 51.97,112.88 50.5,112.47 49.01,112.19 48.26,112.05 47.52,111.94 46.78,111.96 45.99,111.98 45.19,111.9 44.4,111.69 43.64,111.47 42.77,111.13 42.24,110.27 42,109.83 41.92,109.31 41.99,108.85 42.05,108.38 42.23,107.98 42.43,107.61 43.29,106.26 44.28,105.06 45.47,104.05 L 45.54,104.11 C 44.79,105.46 43.99,106.77 43.31,108.07 43.01,108.69 42.88,109.32 43.12,109.8 43.35,110.3 43.97,110.69 44.64,110.93 45.32,111.16 46.05,111.28 46.79,111.31 47.59,111.34 48.37,111.51 49.11,111.71 50.61,112.12 52.05,112.66 53.46,113.26 L 53.43,113.35 Z M 53.43,113.35" />
            </g>
            <g id="kazWhixxSide04-group711">
                <path id="kazWhixxSide04-bezier939" stroke="none" fill="rgb(0, 0, 0)" d="M 47.07,105.02 C 47.64,105.46 48.26,105.84 48.88,106.09 49.19,106.22 49.52,106.21 49.79,106.36 50.08,106.49 50.35,106.62 50.74,106.84 L 50.76,106.94 C 50.44,107.27 49.98,107.36 49.56,107.33 49.13,107.3 48.79,107.01 48.48,106.78 47.85,106.32 47.36,105.73 46.99,105.09 L 47.07,105.02 Z M 47.07,105.02" />
            </g>
            <g id="kazWhixxSide04-group712">
                <path id="kazWhixxSide04-bezier940" stroke="none" fill="rgb(0, 0, 0)" d="M 52.33,105.96 C 52.59,105.67 52.89,105.41 53.28,105.28 53.47,105.21 53.71,105.21 53.92,105.31 54.13,105.41 54.26,105.6 54.38,105.72 54.89,106.26 55.44,106.79 56,107.3 56.55,107.81 57.11,108.31 57.7,108.78 57.99,109.01 58.29,109.23 58.59,109.43 58.89,109.62 59.22,109.82 59.46,109.83 60.28,109.95 61.02,110.19 61.76,110.5 62.48,110.84 63.22,111.18 63.79,112 63.92,112.19 64.02,112.56 64.01,112.78 64,113 64.02,113.23 63.88,113.54 63.73,113.88 63.36,114.05 63.14,114.08 62.91,114.13 62.7,114.13 62.5,114.13 61.7,114.1 60.96,113.99 60.2,113.86 L 60.2,113.76 C 60.95,113.61 61.73,113.55 62.45,113.43 62.8,113.38 63.16,113.23 63.07,113.19 63.08,113.15 63.09,112.99 63.06,112.83 63.04,112.67 63.03,112.67 62.94,112.54 62.63,112.11 61.95,111.72 61.34,111.39 60.7,111.07 60,110.77 59.33,110.62 58.81,110.51 58.5,110.25 58.18,110.02 57.86,109.79 57.56,109.53 57.28,109.27 56.71,108.75 56.17,108.21 55.65,107.65 55.13,107.09 54.63,106.52 54.15,105.91 53.93,105.57 53.7,105.39 53.33,105.47 52.99,105.55 52.67,105.78 52.4,106.03 L 52.33,105.96 Z M 52.33,105.96" />
            </g>
            <g id="kazWhixxSide04-group713">
                <path id="kazWhixxSide04-bezier941" stroke="none" fill="rgb(0, 0, 0)" d="M 51.65,105.04 C 51.72,104.47 51.85,103.92 52.04,103.38 52.13,103.11 52.17,102.79 52.41,102.57 52.53,102.47 52.67,102.36 52.85,102.3 53.01,102.23 53.28,102.18 53.45,102.34 L 53.44,102.44 C 53.3,102.71 53.34,102.94 53.22,103.16 53.14,103.39 52.9,103.55 52.74,103.76 52.41,104.18 52.08,104.62 51.74,105.07 L 51.65,105.04 Z M 51.65,105.04" />
            </g>
            <g id="kazWhixxSide04-group714">
                <path id="kazWhixxSide04-bezier942" stroke="none" fill="rgb(0, 0, 0)" d="M 57.25,67.86 C 57.59,68.94 58.03,69.99 58.55,71 59.05,72.01 59.63,72.98 60.29,73.88 60.95,74.79 61.75,75.54 62.52,76.34 63.32,77.18 64.05,78.11 64.55,79.18 L 64.47,79.24 C 63.54,78.53 62.7,77.79 61.83,77.07 60.92,76.33 60.23,75.32 59.63,74.33 58.4,72.33 57.58,70.14 57.15,67.88 L 57.25,67.86 Z M 57.25,67.86" />
            </g>
            <g id="kazWhixxSide04-group715">
                <path id="kazWhixxSide04-bezier943" stroke="none" fill="rgb(0, 0, 0)" d="M 75.41,86.8 C 75.62,89.28 75.83,91.75 76.08,94.22 76.2,95.45 76.32,96.68 76.49,97.9 76.53,98.21 76.58,98.51 76.64,98.8 76.66,98.95 76.7,99.03 76.75,99.25 76.78,99.42 76.81,99.58 76.83,99.74 76.91,100.37 76.96,100.99 77.01,101.61 77.21,104.09 77.41,106.56 77.46,109.05 L 77.49,112.77 77.49,114.62 C 77.49,115.23 77.46,115.89 77.56,116.44 L 77.49,116.51 C 77.01,115.28 76.97,114.04 76.79,112.8 76.64,111.57 76.56,110.33 76.46,109.09 76.28,106.61 76.3,104.13 76.21,101.66 76.19,101.04 76.16,100.42 76.11,99.82 76.09,99.67 76.08,99.52 76.06,99.38 76.05,99.29 75.98,99.08 75.96,98.93 75.91,98.6 75.87,98.29 75.84,97.98 75.72,96.73 75.65,95.49 75.58,94.25 75.47,91.77 75.38,89.29 75.31,86.81 L 75.41,86.8 Z M 75.41,86.8" />
            </g>
            <g id="kazWhixxSide04-group716">
                <path id="kazWhixxSide04-bezier944" stroke="none" fill="rgb(0, 0, 0)" d="M 70.65,113.81 C 70.32,112.1 69.96,110.39 69.55,108.7 69.14,106.99 68.72,105.34 68.07,103.71 67.5,102 67.15,100.26 67,98.5 66.94,97.62 66.89,96.74 66.91,95.86 66.93,94.98 66.95,94.1 67.15,93.22 L 67.25,93.23 C 67.46,94.96 67.75,96.68 67.99,98.39 68.27,100.09 68.4,101.83 68.83,103.47 69.39,105.12 69.73,106.88 70.03,108.6 70.32,110.33 70.55,112.06 70.75,113.8 L 70.65,113.81 Z M 70.65,113.81" />
            </g>
            <g id="kazWhixxSide04-group717">
                <path id="kazWhixxSide04-bezier945" stroke="none" fill="rgb(0, 0, 0)" d="M 82.15,126.04 C 83.25,127.13 84.51,128.11 85.9,128.69 86.58,128.98 87.36,129.1 88.12,129.31 88.88,129.51 89.64,129.71 90.39,129.96 91.15,130.2 91.9,130.46 92.64,130.86 93.01,131.08 93.39,131.31 93.7,131.75 93.85,131.98 93.97,132.26 93.95,132.63 93.95,132.68 93.91,132.94 93.84,133.07 93.78,133.22 93.68,133.35 93.59,133.46 93.16,133.85 92.72,133.96 92.3,134.06 91.88,134.14 91.47,134.18 91.07,134.18 90.26,134.18 89.47,134.09 88.7,133.94 L 88.7,133.84 C 89.48,133.71 90.26,133.63 91,133.48 91.37,133.4 91.74,133.33 92.08,133.21 92.4,133.1 92.73,132.94 92.85,132.77 92.89,132.74 92.91,132.7 92.92,132.67 92.93,132.63 92.93,132.69 92.94,132.55 92.93,132.53 92.91,132.42 92.84,132.33 92.7,132.13 92.43,131.9 92.13,131.71 91.53,131.32 90.83,131 90.12,130.71 89.41,130.43 88.67,130.18 87.94,129.94 87.21,129.68 86.44,129.51 85.69,129.15 84.26,128.39 83.09,127.3 82.08,126.11 L 82.15,126.04 Z M 82.15,126.04" />
            </g>
            <g id="kazWhixxSide04-group718">
                <path id="kazWhixxSide04-bezier946" stroke="none" fill="rgb(0, 0, 0)" d="M 80.08,133.93 C 79.56,133.63 79.01,133.46 78.47,133.3 78.19,133.23 77.89,133.25 77.65,133.1 77.4,132.95 77.16,132.77 76.94,132.44 L 76.96,132.34 C 77.31,132.14 77.64,132.11 77.96,132.15 78.28,132.17 78.53,132.41 78.79,132.57 79.32,132.91 79.81,133.33 80.15,133.86 L 80.08,133.93 Z M 80.08,133.93" />
            </g>
            <g id="kazWhixxSide04-group719">
                <path id="kazWhixxSide04-bezier947" stroke="none" fill="rgb(0, 0, 0)" d="M 110.49,19.18 C 108.44,19.6 106.35,19.83 104.25,19.89 102.15,19.93 100.03,19.8 97.95,19.31 95.94,18.76 93.93,18.66 91.88,18.68 89.84,18.67 87.79,18.93 85.72,19.27 L 85.69,19.18 C 87.61,18.28 89.72,17.86 91.84,17.68 93.96,17.52 96.16,17.87 98.15,18.54 100.11,19.09 102.18,19.33 104.25,19.39 106.32,19.46 108.41,19.37 110.47,19.08 L 110.49,19.18 Z M 110.49,19.18" />
            </g>
        </g>
    </g>
</svg>
