<?xml version="1.0" encoding="UTF-8"?>
<!DOCTYPE svg PUBLIC "-//W3C//DTD SVG 1.1//EN" "http://www.w3.org/Graphics/SVG/1.1/DTD/svg11.dtd">
<svg version="1.1" xmlns="http://www.w3.org/2000/svg" xmlns:xlink="http://www.w3.org/1999/xlink" width="160" height="60"  xml:space="preserve" id="kazWhizzTop03">
    <!-- Generated by PaintCode - http://www.paintcodeapp.com -->
    <g id="kazWhizzTop03-group">
        <path id="kazWhizzTop03-bezier1407" stroke="rgb(0, 0, 0)" stroke-width="2" stroke-miterlimit="10" fill="none" d="M 112.17,30.56 L 156.51,30.56" />
        <path id="kazWhizzTop03-bezier1408" stroke="rgb(0, 0, 0)" stroke-width="2" stroke-miterlimit="10" fill="none" d="M 3.13,30.56 L 33.14,30.56" />
        <path id="kazWhizzTop03-bezier1409" stroke="rgb(0, 0, 0)" stroke-width="2" stroke-miterlimit="10" fill="none" d="M 127.7,13.55 L 106.45,13.55 106.45,20.43" />
        <path id="kazWhizzTop03-bezier1410" stroke="rgb(0, 0, 0)" stroke-width="2" stroke-miterlimit="10" fill="none" d="M 127.7,46.57 L 106.45,46.57 106.45,46.55 106.45,35.68" />
        <path id="kazWhizzTop03-bezier1411" stroke="rgb(0, 0, 0)" stroke-width="2" stroke-miterlimit="10" fill="none" d="M 36.22,26.06 C 36.22,26.06 34.95,27.38 34.95,30.56 34.95,33.74 36.22,34.68 36.22,34.68" />
        <path id="kazWhizzTop03-bezier1412" stroke="rgb(0, 0, 0)" stroke-width="2" stroke-miterlimit="10" fill="none" d="M 126.86,28.14 L 112.85,28.14" />
        <path id="kazWhizzTop03-bezier1413" stroke="rgb(0, 0, 0)" stroke-width="2" stroke-miterlimit="10" fill="none" d="M 126.86,33.01 L 110.85,33.01" />
        <path id="kazWhizzTop03-bezier1414" stroke="rgb(0, 0, 0)" stroke-width="2" stroke-miterlimit="10" fill="none" d="M 33.6,28.14 L 31.9,28.14" />
        <path id="kazWhizzTop03-bezier1415" stroke="rgb(0, 0, 0)" stroke-width="2" stroke-miterlimit="10" fill="none" d="M 33.6,33.01 L 31.9,33.01" />
        <g id="kazWhizzTop03-group1065">
            <g id="kazWhizzTop03-group1066">
                <path id="kazWhizzTop03-bezier1416" stroke="none" fill="rgb(0, 0, 0)" d="M 102.15,36.3 C 100.52,36.6 98.88,36.83 97.21,36.89 95.55,36.93 93.86,36.87 92.19,36.35 91.79,36.22 91.35,36.03 91,35.83 90.69,35.67 90.42,35.65 90.23,35.76 89.8,35.97 89.45,36.75 89.22,37.47 88.72,38.96 88.47,40.59 88.14,42.22 L 88.04,42.22 C 87.82,40.56 87.86,38.87 88.26,37.19 88.38,36.77 88.52,36.35 88.74,35.93 88.97,35.53 89.28,35.09 89.84,34.85 90.42,34.6 91.04,34.8 91.44,35.05 91.79,35.28 92.1,35.44 92.47,35.59 93.93,36.16 95.58,36.33 97.21,36.39 98.84,36.46 100.49,36.37 102.13,36.2 L 102.15,36.3 Z M 102.15,36.3" />
            </g>
            <g id="kazWhizzTop03-group1067">
                <path id="kazWhizzTop03-bezier1417" stroke="none" fill="rgb(0, 0, 0)" d="M 96.5,19.42 C 97.76,19.26 99.01,19.2 100.27,19.1 101.54,19.02 102.83,19.16 104.07,19.52 106.53,20.25 108.79,21.91 110,24.28 110.61,25.45 110.93,26.79 110.92,28.12 110.92,29.46 110.54,30.79 109.88,31.95 108.52,34.25 106.18,35.86 103.68,36.33 L 103.65,36.23 C 105.94,35.22 107.93,33.61 109,31.47 110.1,29.39 110.29,26.82 109.28,24.63 108.28,22.44 106.24,20.78 103.92,20 101.59,19.12 99.01,19.44 96.52,19.51 L 96.5,19.42 Z M 96.5,19.42" />
            </g>
            <g id="kazWhizzTop03-group1068">
                <path id="kazWhizzTop03-bezier1418" stroke="none" fill="rgb(0, 0, 0)" d="M 80.85,17.12 C 81.97,16.85 83.12,16.59 84.31,16.6 85.5,16.59 86.71,16.85 87.78,17.43 88.31,17.71 88.81,18.06 89.26,18.45 89.71,18.84 90.14,19.2 90.6,19.53 91.05,19.86 91.53,20.15 92.01,20.33 92.24,20.41 92.48,20.46 92.62,20.43 92.76,20.42 92.81,20.34 92.83,20.33 L 94.29,19.64 93.17,19.97 C 94.13,19.68 95.06,19.88 95.87,20.07 96.7,20.28 97.47,20.52 98.31,20.54 L 98.32,20.64 C 97.5,20.94 96.58,20.86 95.76,20.82 94.93,20.75 94.14,20.73 93.48,20.94 L 93.82,20.58 C 93.67,21.14 93.15,21.45 92.71,21.46 92.28,21.47 91.94,21.35 91.64,21.21 91.04,20.92 90.57,20.55 90.11,20.16 89.65,19.77 89.22,19.34 88.82,18.94 88.42,18.56 87.98,18.21 87.5,17.92 86.54,17.35 85.44,17.02 84.31,16.94 83.17,16.85 82.01,17.03 80.87,17.22 L 80.85,17.12 Z M 80.85,17.12" />
            </g>
            <g id="kazWhizzTop03-group1069">
                <path id="kazWhizzTop03-bezier1419" stroke="none" fill="rgb(0, 0, 0)" d="M 117.99,10.93 C 116.51,11.08 115.03,11.23 113.54,11.34 112.04,11.44 110.6,11.59 109.03,11.55 107.61,11.38 106.11,11.48 104.64,11.48 103.9,11.5 103.17,11.54 102.43,11.59 101.71,11.67 100.95,11.69 100.29,11.99 L 100.24,11.93 C 100.87,11.46 101.64,11.31 102.37,11.14 103.11,10.98 103.85,10.89 104.6,10.81 105.35,10.74 106.1,10.69 106.85,10.68 107.59,10.68 108.37,10.68 109.12,10.84 110.52,10.99 112.05,10.93 113.52,10.92 L 117.98,10.85 117.99,10.93 Z M 117.99,10.93" />
            </g>
            <g id="kazWhizzTop03-group1070">
                <path id="kazWhizzTop03-bezier1420" stroke="none" fill="rgb(0, 0, 0)" d="M 99.11,17.7 C 100.68,17.56 102.26,17.4 103.83,17.21 104.62,17.11 105.4,17 106.18,16.88 106.57,16.81 106.95,16.74 107.33,16.65 107.51,16.6 107.7,16.55 107.86,16.49 108,16.42 108.25,16.3 108.43,16.25 109.98,15.79 111.53,15.45 113.11,15.2 114.69,15.01 116.26,14.8 117.89,15 L 117.87,15.07 C 116.34,15.36 114.78,15.71 113.23,15.96 111.67,16.22 110.08,16.36 108.58,16.75 108.38,16.8 108.26,16.84 108.04,16.94 107.83,17.02 107.63,17.06 107.43,17.1 107.03,17.18 106.64,17.24 106.24,17.29 105.45,17.39 104.66,17.46 103.86,17.52 102.28,17.63 100.7,17.71 99.11,17.77 L 99.11,17.7 Z M 99.11,17.7" />
            </g>
            <g id="kazWhizzTop03-group1071">
                <path id="kazWhizzTop03-bezier1421" stroke="none" fill="rgb(0, 0, 0)" d="M 89.69,16.34 C 92.04,14.95 94.26,13.35 96.44,11.72 L 96.73,11.5 96.92,11.84 C 97.22,12.37 97.47,12.9 97.73,13.44 97.97,13.98 98.21,14.53 98.38,15.1 98.7,16.25 98.82,17.49 98.53,18.68 L 98.43,18.68 97.39,15.39 C 97.09,14.3 96.79,13.18 96.34,12.14 L 96.82,12.26 C 94.54,13.79 92.19,15.21 89.74,16.42 L 89.69,16.34 Z M 89.69,16.34" />
            </g>
            <g id="kazWhizzTop03-group1072">
                <path id="kazWhizzTop03-bezier1422" stroke="none" fill="rgb(0, 0, 0)" d="M 37.21,30.56 C 37.14,28.83 37.13,27.09 37.22,25.35 37.34,23.62 37.46,21.86 38.13,20.16 38.31,19.75 38.55,19.31 38.96,18.99 39.31,18.71 39.77,18.47 40.19,18.32 41.06,18.01 41.97,17.89 42.86,17.86 44.65,17.8 46.39,18 48.14,18.38 L 48.53,18.47 48.52,18.89 C 48.48,20.84 48.36,22.79 48.22,24.73 48.16,25.7 48.07,26.68 47.98,27.65 47.91,28.62 47.79,29.59 47.69,30.56 L 47.59,30.56 C 47.5,29.58 47.45,28.61 47.43,27.63 47.41,26.65 47.38,25.68 47.39,24.7 47.38,22.75 47.4,20.8 47.51,18.85 L 47.89,19.37 C 46.26,18.96 44.55,18.67 42.87,18.66 42.04,18.66 41.19,18.74 40.42,18.99 40.03,19.12 39.7,19.27 39.36,19.51 39.07,19.71 38.86,20.05 38.68,20.42 38.02,21.93 37.8,23.69 37.59,25.38 37.41,27.1 37.32,28.83 37.31,30.56 L 37.21,30.56 Z M 37.21,30.56" />
            </g>
            <g id="kazWhizzTop03-group1073">
                <path id="kazWhizzTop03-bezier1423" stroke="none" fill="rgb(0, 0, 0)" d="M 123.79,12.2 C 123.59,11.7 123.34,11.22 123.04,10.8 122.75,10.36 122.38,10.08 121.91,9.96 121.49,9.86 121,10.02 120.47,10.04 119.94,10.06 119.4,10.08 118.83,9.97 L 118.82,9.89 C 119.31,9.6 119.83,9.42 120.36,9.29 120.88,9.18 121.5,9.15 122.11,9.4 122.4,9.53 122.63,9.67 122.87,9.89 123.08,10.12 123.23,10.36 123.36,10.61 123.6,11.12 123.75,11.65 123.86,12.18 L 123.79,12.2 Z M 123.79,12.2" />
            </g>
            <g id="kazWhizzTop03-group1074">
                <path id="kazWhizzTop03-bezier1424" stroke="none" fill="rgb(0, 0, 0)" d="M 118.85,15.09 C 119.3,15.22 119.77,15.31 120.2,15.32 120.42,15.31 120.61,15.23 120.8,15.25 L 121.49,15.34 121.54,15.4 C 121.45,15.71 121.19,15.91 120.91,16 120.63,16.09 120.35,15.99 120.1,15.91 119.6,15.75 119.17,15.48 118.81,15.15 L 118.85,15.09 Z M 118.85,15.09" />
            </g>
            <g id="kazWhizzTop03-group1075">
                <path id="kazWhizzTop03-bezier1425" stroke="none" fill="rgb(0, 0, 0)" d="M 117.98,49.27 L 113.53,49.15 C 112.05,49.14 110.53,49.06 109.1,49.18 108.37,49.35 107.59,49.35 106.85,49.38 106.1,49.41 105.35,49.42 104.6,49.36 103.85,49.31 103.1,49.19 102.36,49.05 101.63,48.86 100.85,48.7 100.24,48.2 L 100.29,48.14 C 100.97,48.39 101.72,48.41 102.44,48.47 103.17,48.54 103.91,48.54 104.65,48.59 106.11,48.66 107.6,48.86 109.04,48.67 110.59,48.61 112.04,48.73 113.54,48.83 L 117.99,49.19 117.98,49.27 Z M 117.98,49.27" />
            </g>
            <g id="kazWhizzTop03-group1076">
                <path id="kazWhizzTop03-bezier1426" stroke="none" fill="rgb(0, 0, 0)" d="M 99.11,42.35 C 100.7,42.39 102.28,42.45 103.87,42.56 104.66,42.61 105.45,42.68 106.25,42.77 106.64,42.82 107.04,42.88 107.44,42.95 107.65,42.99 107.85,43.04 108.07,43.11 L 108.34,43.22 108.6,43.3 C 110.09,43.66 111.68,43.88 113.22,44.2 114.77,44.47 116.33,44.83 117.87,45.05 L 117.89,45.13 C 117.07,45.23 116.29,45.15 115.49,45.11 114.69,45.07 113.9,44.97 113.11,44.88 111.53,44.69 109.97,44.43 108.4,43.95 108.3,43.91 108.21,43.88 108.1,43.84 107.98,43.79 107.89,43.73 107.83,43.71 107.68,43.64 107.49,43.59 107.31,43.54 106.94,43.45 106.55,43.37 106.17,43.31 105.39,43.17 104.61,43.06 103.82,42.96 102.26,42.76 100.68,42.58 99.1,42.42 L 99.11,42.35 Z M 99.11,42.35" />
            </g>
            <g id="kazWhizzTop03-group1077">
                <path id="kazWhizzTop03-bezier1427" stroke="none" fill="rgb(0, 0, 0)" d="M 86.41,43.7 C 89.38,44.8 92.33,45.95 95.26,47.15 L 94.85,47.24 C 95.46,46.47 96,45.59 96.42,44.7 96.84,43.8 97.14,42.86 97.32,41.92 L 97.62,42.47 C 96.62,42.03 95.68,41.5 94.77,40.91 94.32,40.6 93.88,40.28 93.46,39.92 93.06,39.55 92.63,39.15 92.45,38.6 L 92.54,38.56 C 92.85,38.98 93.31,39.25 93.75,39.52 94.2,39.79 94.67,40.02 95.15,40.24 96.09,40.7 97.07,41.12 98.03,41.53 L 98.38,41.69 98.33,42.08 C 98.18,43.18 97.74,44.19 97.23,45.12 96.7,46.05 96.1,46.9 95.39,47.71 L 95.21,47.91 94.98,47.8 86.37,43.79 86.41,43.7 Z M 86.41,43.7" />
            </g>
            <g id="kazWhizzTop03-group1078">
                <path id="kazWhizzTop03-bezier1428" stroke="none" fill="rgb(0, 0, 0)" d="M 37.31,30.56 C 37.28,32.29 37.32,34.02 37.46,35.73 37.63,37.43 37.82,39.2 38.51,40.68 38.69,41.03 38.93,41.36 39.22,41.51 39.58,41.69 39.94,41.8 40.35,41.89 41.16,42.07 42.01,42.13 42.85,42.14 44.55,42.16 46.27,41.99 47.94,41.75 L 47.51,42.27 C 47.4,40.32 47.38,38.37 47.39,36.42 47.37,35.45 47.41,34.47 47.43,33.49 47.45,32.52 47.5,31.54 47.59,30.56 L 47.69,30.56 C 47.79,31.53 47.91,32.5 47.98,33.48 48.07,34.45 48.16,35.42 48.22,36.39 48.36,38.34 48.48,40.28 48.52,42.23 L 48.53,42.7 48.09,42.75 C 46.33,42.96 44.59,43.03 42.83,42.94 41.95,42.9 41.06,42.81 40.19,42.58 39.76,42.47 39.29,42.31 38.89,42.08 38.42,41.79 38.16,41.36 37.97,40.95 37.25,39.25 37.18,37.49 37.09,35.76 37.04,34.02 37.09,32.29 37.21,30.56 L 37.31,30.56 Z M 37.31,30.56" />
            </g>
            <g id="kazWhizzTop03-group1079">
                <path id="kazWhizzTop03-bezier1429" stroke="none" fill="rgb(0, 0, 0)" d="M 120.61,45.32 C 120.63,45.97 120.68,46.61 120.8,47.21 120.87,47.5 121.01,47.76 121.07,47.99 121.14,48.21 121.16,48.38 121.51,48.57 L 121.52,48.64 C 121.21,48.94 120.6,48.7 120.4,48.34 120.17,47.99 120.2,47.6 120.2,47.26 120.21,46.58 120.34,45.94 120.54,45.31 L 120.61,45.32 Z M 120.61,45.32" />
            </g>
            <g id="kazWhizzTop03-group1080">
                <path id="kazWhizzTop03-bezier1430" stroke="none" fill="rgb(0, 0, 0)" d="M 123.86,47.94 C 123.75,48.48 123.6,49 123.36,49.51 123.23,49.76 123.08,50 122.87,50.23 122.63,50.46 122.4,50.59 122.11,50.73 121.5,50.97 120.88,50.94 120.36,50.83 119.83,50.7 119.31,50.52 118.82,50.23 L 118.83,50.15 C 119.4,50.04 119.94,50.06 120.47,50.09 121,50.11 121.49,50.27 121.91,50.16 122.37,50.04 122.75,49.76 123.04,49.32 123.34,48.9 123.59,48.42 123.79,47.92 L 123.86,47.94 Z M 123.86,47.94" />
            </g>
            <g id="kazWhizzTop03-group1081">
                <path id="kazWhizzTop03-bezier1431" stroke="none" fill="rgb(0, 0, 0)" d="M 118.81,44.97 C 119.17,44.64 119.6,44.37 120.1,44.22 120.35,44.13 120.63,44.03 120.91,44.13 121.19,44.22 121.45,44.41 121.54,44.72 L 121.49,44.78 120.8,44.87 C 120.61,44.89 120.42,44.81 120.2,44.81 119.77,44.81 119.3,44.9 118.85,45.04 L 118.81,44.97 Z M 118.81,44.97" />
            </g>
            <g id="kazWhizzTop03-group1082">
                <path id="kazWhizzTop03-bezier1432" stroke="none" fill="rgb(0, 0, 0)" d="M 106.42,32.76 C 105.48,33.77 104.31,34.6 102.98,35.06 101.65,35.52 100.24,35.68 98.84,35.64 97.45,35.62 96.06,35.43 94.7,35.17 93.32,34.9 92.02,34.54 90.69,34.42 88.02,34.15 85.32,34.48 82.83,35.43 80.37,36.41 78.06,37.98 76.37,40.13 L 76.29,40.08 C 76.92,38.83 77.87,37.77 78.92,36.85 79.97,35.91 81.19,35.16 82.48,34.58 85.06,33.39 88.02,33.11 90.79,33.53 92.2,33.71 93.55,34.14 94.85,34.46 96.17,34.77 97.51,35.01 98.86,35.09 100.21,35.17 101.58,35.11 102.88,34.74 104.18,34.37 105.36,33.64 106.35,32.69 L 106.42,32.76 Z M 106.42,32.76" />
            </g>
            <g id="kazWhizzTop03-group1083">
                <path id="kazWhizzTop03-bezier1433" stroke="none" fill="rgb(0, 0, 0)" d="M 77.58,20.88 C 79.22,22.55 81.13,24 83.24,24.94 84.29,25.41 85.41,25.72 86.53,25.75 87.09,25.76 87.64,25.69 88.17,25.55 88.73,25.4 89.28,25.22 89.82,25.02 92.01,24.24 94.15,23.18 96.55,22.71 97.73,22.49 98.99,22.36 100.21,22.62 101.42,22.86 102.54,23.45 103.41,24.27 L 103.35,24.35 C 102.34,23.74 101.24,23.36 100.11,23.27 98.99,23.2 97.86,23.33 96.76,23.64 94.55,24.23 92.38,25.15 90.1,25.84 89.53,26.02 88.95,26.18 88.36,26.31 87.75,26.45 87.12,26.49 86.5,26.45 85.26,26.36 84.08,25.96 83.01,25.43 80.87,24.32 79.06,22.72 77.51,20.95 L 77.58,20.88 Z M 77.58,20.88" />
            </g>
            <g id="kazWhizzTop03-group1084">
                <path id="kazWhizzTop03-bezier1434" stroke="none" fill="rgb(0, 0, 0)" d="M 104.77,30.34 C 101.98,30.17 99.18,30.43 96.39,30.65 L 88.01,31.36 C 85.21,31.59 82.41,31.87 79.58,31.83 78.17,31.79 76.76,31.74 75.35,31.56 73.95,31.37 72.51,31.13 71.25,30.42 L 71.3,30.33 C 71.96,30.55 72.64,30.67 73.33,30.74 74.02,30.82 74.71,30.86 75.4,30.87 76.79,30.9 78.18,30.89 79.57,30.83 82.36,30.73 85.16,30.69 87.95,30.56 L 96.36,30.15 C 99.16,30.06 101.98,29.93 104.78,30.24 L 104.77,30.34 Z M 104.77,30.34" />
            </g>
            <g id="kazWhizzTop03-group1085">
                <path id="kazWhizzTop03-bezier1435" stroke="none" fill="rgb(0, 0, 0)" d="M 89.73,14.94 C 86.75,15.04 83.79,15.12 80.82,15.35 77.86,15.58 74.9,15.89 72.02,16.55 70.59,16.87 69.19,17.42 67.73,17.77 66.28,18.14 64.81,18.44 63.33,18.66 60.36,19.09 57.37,19.29 54.33,19.06 L 54.82,18.5 C 55.31,20.4 55.76,22.29 56.15,24.21 56.5,26.14 56.89,28.06 56.89,30.09 56.77,32.13 56.36,34.01 56.05,35.93 55.89,36.89 55.76,37.84 55.67,38.8 55.59,39.76 55.55,40.74 55.8,41.67 L 55.7,41.7 C 55.32,40.78 55.28,39.77 55.26,38.79 55.25,37.8 55.33,36.82 55.42,35.85 55.57,33.91 55.94,31.95 55.96,30.09 55.86,28.23 55.49,26.31 55.13,24.41 54.77,22.51 54.38,20.61 53.95,18.72 L 53.8,18.09 54.44,18.16 C 57.32,18.48 60.32,18.36 63.24,18 64.7,17.82 66.16,17.56 67.6,17.22 69.04,16.92 70.44,16.41 71.92,16.1 74.85,15.49 77.83,15.25 80.8,15.07 83.78,14.9 86.76,14.88 89.73,14.84 L 89.73,14.94 Z M 89.73,14.94" />
            </g>
            <g id="kazWhizzTop03-group1086">
                <path id="kazWhizzTop03-bezier1436" stroke="none" fill="rgb(0, 0, 0)" d="M 55.77,42.28 C 58.26,41.59 60.81,41.14 63.38,40.88 65.96,40.66 68.57,40.65 71.16,41.06 72.48,41.28 73.68,41.61 74.95,41.78 76.21,41.97 77.47,42.14 78.73,42.29 81.26,42.64 83.82,42.83 86.39,43.08 L 86.39,43.18 C 83.81,43.5 81.22,43.45 78.63,43.29 77.34,43.18 76.05,43.01 74.78,42.75 73.5,42.52 72.23,42.11 71.02,41.85 68.54,41.35 65.97,41.26 63.42,41.38 60.86,41.5 58.31,41.82 55.8,42.37 L 55.77,42.28 Z M 55.77,42.28" />
            </g>
            <g id="kazWhizzTop03-group1087">
                <path id="kazWhizzTop03-bezier1437" stroke="none" fill="rgb(0, 0, 0)" d="M 48.83,42.15 C 49.63,41.67 50.55,41.4 51.49,41.28 51.96,41.21 52.44,41.14 52.91,41.24 53.38,41.34 53.84,41.5 54.23,41.81 L 54.21,41.88 C 53.72,41.97 53.28,41.98 52.83,41.98 52.4,41.99 51.96,41.9 51.52,41.88 50.64,41.86 49.73,41.94 48.86,42.22 L 48.83,42.15 Z M 48.83,42.15" />
            </g>
            <g id="kazWhizzTop03-group1088">
                <path id="kazWhizzTop03-bezier1438" stroke="none" fill="rgb(0, 0, 0)" d="M 49.18,18.93 L 51.7,18.78 C 52.12,18.74 52.54,18.66 52.95,18.69 53.37,18.73 53.78,18.78 54.22,18.93 L 54.23,19.01 C 53.83,19.27 53.4,19.38 52.98,19.44 52.55,19.51 52.12,19.43 51.7,19.38 50.85,19.3 50.01,19.18 49.18,19.01 L 49.18,18.93 Z M 49.18,18.93" />
            </g>
            <g id="kazWhizzTop03-group1089">
                <path id="kazWhizzTop03-bezier1439" stroke="none" fill="rgb(0, 0, 0)" d="M 49.83,27.71 C 50.16,27.86 50.51,27.89 50.82,27.88 50.99,27.87 51.14,27.79 51.3,27.83 51.46,27.88 51.62,27.94 51.84,28.1 L 51.85,28.18 C 51.72,28.41 51.53,28.52 51.33,28.58 51.13,28.64 50.92,28.54 50.73,28.47 50.34,28.34 49.99,28.1 49.78,27.77 L 49.83,27.71 Z M 49.83,27.71" />
            </g>
            <g id="kazWhizzTop03-group1090">
                <path id="kazWhizzTop03-bezier1440" stroke="none" fill="rgb(0, 0, 0)" d="M 49.54,33.4 C 49.84,33.1 50.17,32.83 50.55,32.62 50.74,32.51 50.94,32.36 51.18,32.37 51.41,32.38 51.72,32.45 51.86,32.73 L 51.83,32.8 C 51.59,32.93 51.48,33.03 51.31,33.11 51.15,33.18 50.96,33.15 50.76,33.18 50.38,33.25 49.98,33.35 49.58,33.46 L 49.54,33.4 Z M 49.54,33.4" />
            </g>
            <g id="kazWhizzTop03-group1091">
                <path id="kazWhizzTop03-bezier1441" stroke="none" fill="rgb(0, 0, 0)" d="M 120.54,14.81 C 120.34,14.19 120.21,13.54 120.2,12.86 120.19,12.52 120.17,12.14 120.4,11.79 120.59,11.42 121.21,11.19 121.52,11.48 L 121.51,11.55 C 121.16,11.74 121.14,11.91 121.07,12.14 121,12.36 120.87,12.62 120.8,12.92 120.68,13.51 120.63,14.16 120.61,14.8 L 120.54,14.81 Z M 120.54,14.81" />
            </g>
            <g id="kazWhizzTop03-group1092">
                <path id="kazWhizzTop03-bezier1442" stroke="none" fill="rgb(0, 0, 0)" d="M 100.48,47.51 C 99.8,47.62 99.11,47.69 98.42,47.72 98.07,47.75 97.72,47.81 97.37,47.73 97.03,47.64 96.67,47.52 96.39,47.22 L 96.41,47.15 C 96.78,47.05 97.1,47 97.44,46.98 97.78,46.96 98.11,47.07 98.45,47.12 L 100.48,47.44 100.48,47.51 Z M 100.48,47.51" />
            </g>
            <g id="kazWhizzTop03-group1093">
                <path id="kazWhizzTop03-bezier1443" stroke="none" fill="rgb(0, 0, 0)" d="M 100.61,12.68 L 99.24,12.96 C 99.01,13.02 98.8,13.12 98.58,13.1 98.35,13.08 98.15,13.03 97.87,12.92 L 97.84,12.86 C 97.99,12.57 98.25,12.44 98.48,12.36 98.72,12.27 98.96,12.34 99.2,12.36 99.68,12.4 100.15,12.48 100.61,12.6 L 100.61,12.68 Z M 100.61,12.68" />
            </g>
            <g id="kazWhizzTop03-group1094">
                <path id="kazWhizzTop03-bezier1444" stroke="none" fill="rgb(0, 0, 0)" d="M 111.14,26.62 C 111.32,26.61 111.51,26.72 111.66,26.84 111.8,26.97 111.92,27.11 112.02,27.28 L 112.05,27.32 112.03,27.42 C 111.99,27.61 111.98,27.81 111.86,27.98 111.73,28.13 111.59,28.33 111.31,28.33 L 111.29,28.28 C 111.34,28.08 111.36,27.93 111.41,27.76 111.46,27.59 111.58,27.45 111.66,27.29 L 111.67,27.44 C 111.63,27.29 111.56,27.13 111.47,27 111.39,26.86 111.3,26.73 111.13,26.66 L 111.14,26.62 Z M 111.14,26.62" />
            </g>
            <g id="kazWhizzTop03-group1095">
                <path id="kazWhizzTop03-bezier1445" stroke="none" fill="rgb(0, 0, 0)" d="M 49.17,18.45 C 52.15,17.36 55.22,16.54 58.3,15.77 61.38,15.01 64.49,14.37 67.6,13.78 70.72,13.2 73.85,12.66 76.99,12.21 80.13,11.74 83.3,11.44 86.46,11.18 L 86.41,11.19 C 87.43,10.92 88.53,11.05 89.45,11.51 89.91,11.74 90.32,12.06 90.66,12.45 90.98,12.83 91.25,13.31 91.23,13.83 L 91.16,13.83 C 91.13,13.34 90.84,12.92 90.5,12.6 90.15,12.27 89.74,12.02 89.3,11.84 88.43,11.47 87.44,11.43 86.56,11.72 L 86.55,11.73 86.51,11.73 77.1,12.96 C 73.96,13.36 70.82,13.78 67.7,14.31 64.58,14.83 61.47,15.42 58.37,16.1 55.28,16.78 52.2,17.52 49.2,18.52 L 49.17,18.45 Z M 49.17,18.45" />
            </g>
        </g>
    </g>
</svg>
