<?xml version="1.0" encoding="UTF-8"?>
<!DOCTYPE svg PUBLIC "-//W3C//DTD SVG 1.1//EN" "http://www.w3.org/Graphics/SVG/1.1/DTD/svg11.dtd">
<svg version="1.1" xmlns="http://www.w3.org/2000/svg" xmlns:xlink="http://www.w3.org/1999/xlink" width="160" height="60"  xml:space="preserve" id="kazWhizzTop05">
    <!-- Generated by PaintCode - http://www.paintcodeapp.com -->
    <g id="kazWhizzTop05-group">
        <path id="kazWhizzTop05-bezier1446" stroke="rgb(0, 0, 0)" stroke-width="2" stroke-miterlimit="10" fill="none" d="M 116.06,30.56 L 156.89,30.56" />
        <path id="kazWhizzTop05-bezier1447" stroke="rgb(0, 0, 0)" stroke-width="2" stroke-miterlimit="10" fill="none" d="M 3.5,30.56 L 33.51,30.56" />
        <path id="kazWhizzTop05-bezier1448" stroke="rgb(0, 0, 0)" stroke-width="2" stroke-miterlimit="10" fill="none" d="M 128.07,13.55 L 106.82,13.55 106.82,20.43" />
        <path id="kazWhizzTop05-bezier1449" stroke="rgb(0, 0, 0)" stroke-width="2" stroke-miterlimit="10" fill="none" d="M 128.07,46.57 L 106.82,46.57 106.82,46.55 106.82,37.68" />
        <path id="kazWhizzTop05-bezier1450" stroke="rgb(0, 0, 0)" stroke-width="2" stroke-miterlimit="10" fill="none" d="M 36.6,26.06 C 36.6,26.06 35.33,27.38 35.33,30.56 35.33,33.74 36.6,34.68 36.6,34.68" />
        <path id="kazWhizzTop05-bezier1451" stroke="rgb(0, 0, 0)" stroke-width="2" stroke-miterlimit="10" fill="none" d="M 129.64,28.14 L 116.76,28.14" />
        <path id="kazWhizzTop05-bezier1452" stroke="rgb(0, 0, 0)" stroke-width="2" stroke-miterlimit="10" fill="none" d="M 129.64,33.01 L 114.76,33.01" />
        <path id="kazWhizzTop05-bezier1453" stroke="rgb(0, 0, 0)" stroke-width="2" stroke-miterlimit="10" fill="none" d="M 33.98,28.14 L 32.27,28.14" />
        <path id="kazWhizzTop05-bezier1454" stroke="rgb(0, 0, 0)" stroke-width="2" stroke-miterlimit="10" fill="none" d="M 33.98,33.01 L 32.27,33.01" />
        <g id="kazWhizzTop05-group1096">
            <g id="kazWhizzTop05-group1097">
                <path id="kazWhizzTop05-bezier1455" stroke="none" fill="rgb(0, 0, 0)" d="M 103.14,38.75 C 101.47,38.98 99.77,39.11 98.07,39.02 96.38,38.9 94.59,38.66 93.07,37.65 92.5,37.25 91.76,37.31 91.03,37.53 90.3,37.77 89.57,38.12 88.87,38.53 87.45,39.34 86.1,40.34 84.73,41.34 L 84.66,41.27 C 85.69,39.9 86.93,38.7 88.36,37.71 89.08,37.24 89.86,36.79 90.75,36.56 91.61,36.31 92.75,36.3 93.56,36.94 94.8,37.93 96.48,38.28 98.11,38.5 99.77,38.72 101.45,38.75 103.13,38.65 L 103.14,38.75 Z M 103.14,38.75" />
            </g>
            <g id="kazWhizzTop05-group1098">
                <path id="kazWhizzTop05-bezier1456" stroke="none" fill="rgb(0, 0, 0)" d="M 99.28,20.29 C 100.57,20.16 101.85,20.12 103.14,20.05 104.44,20 105.75,20.14 107.02,20.51 109.53,21.24 111.87,22.9 113.12,25.32 113.76,26.51 114.08,27.89 114.04,29.25 114.01,30.63 113.57,31.98 112.84,33.13 111.35,35.43 108.89,36.94 106.33,37.35 L 106.3,37.25 C 108.67,36.3 110.8,34.75 111.99,32.62 113.21,30.54 113.47,27.9 112.41,25.67 111.36,23.44 109.24,21.78 106.87,20.99 104.48,20.11 101.84,20.37 99.29,20.39 L 99.28,20.29 Z M 99.28,20.29" />
            </g>
            <g id="kazWhizzTop05-group1099">
                <path id="kazWhizzTop05-bezier1457" stroke="none" fill="rgb(0, 0, 0)" d="M 84.68,17.61 C 85.96,17.51 87.23,17.82 88.44,18.2 89.65,18.6 90.81,19.1 91.97,19.59 93.14,20.07 94.31,20.49 95.44,20.93 96.57,21.35 97.7,21.76 98.95,21.54 L 98.99,21.63 C 98.45,22.02 97.75,22.17 97.08,22.17 96.41,22.18 95.76,22.05 95.13,21.88 93.87,21.53 92.75,20.89 91.64,20.31 90.52,19.74 89.41,19.15 88.27,18.67 87.13,18.17 85.94,17.74 84.69,17.71 L 84.68,17.61 Z M 84.68,17.61" />
            </g>
            <g id="kazWhizzTop05-group1100">
                <path id="kazWhizzTop05-bezier1458" stroke="none" fill="rgb(0, 0, 0)" d="M 118.36,10.93 C 116.88,11.08 115.4,11.23 113.92,11.34 112.42,11.44 110.97,11.59 109.4,11.55 107.98,11.38 106.49,11.48 105.02,11.48 104.28,11.5 103.54,11.54 102.81,11.59 102.08,11.67 101.32,11.69 100.66,11.99 L 100.62,11.93 C 101.25,11.46 102.02,11.31 102.74,11.14 103.48,10.98 104.23,10.89 104.97,10.81 105.72,10.74 106.47,10.69 107.22,10.68 107.96,10.68 108.75,10.68 109.49,10.84 110.89,10.99 112.43,10.93 113.9,10.92 L 118.36,10.85 118.36,10.93 Z M 118.36,10.93" />
            </g>
            <g id="kazWhizzTop05-group1101">
                <path id="kazWhizzTop05-bezier1459" stroke="none" fill="rgb(0, 0, 0)" d="M 99.48,17.7 C 101.06,17.56 102.63,17.4 104.21,17.21 104.99,17.11 105.77,17 106.55,16.88 106.94,16.81 107.33,16.74 107.7,16.65 107.89,16.6 108.07,16.55 108.23,16.49 108.37,16.42 108.62,16.3 108.8,16.25 110.36,15.79 111.9,15.45 113.48,15.2 115.06,15.01 116.63,14.8 118.27,15 L 118.25,15.07 C 116.72,15.36 115.15,15.71 113.6,15.96 112.05,16.22 110.45,16.36 108.95,16.75 108.75,16.8 108.63,16.84 108.41,16.94 108.2,17.02 108,17.06 107.8,17.1 107.4,17.18 107.01,17.24 106.61,17.29 105.82,17.39 105.03,17.46 104.24,17.52 102.65,17.63 101.07,17.71 99.48,17.77 L 99.48,17.7 Z M 99.48,17.7" />
            </g>
            <g id="kazWhizzTop05-group1102">
                <path id="kazWhizzTop05-bezier1460" stroke="none" fill="rgb(0, 0, 0)" d="M 98.79,19.63 C 98.82,18.31 98.54,17.02 98.14,15.77 97.76,14.53 97.25,13.3 96.64,12.18 L 97.17,12.36 95.47,13.24 C 94.9,13.54 94.32,13.8 93.74,14.06 92.55,14.55 91.37,15.02 90.11,15.39 L 90.07,15.3 C 91.07,14.46 92.18,13.79 93.3,13.16 93.87,12.86 94.45,12.58 95.05,12.34 L 96.84,11.62 97.22,11.47 97.37,11.81 C 97.92,13.06 98.33,14.33 98.63,15.64 98.91,16.95 99.05,18.31 98.89,19.64 L 98.79,19.63 Z M 98.79,19.63" />
            </g>
            <g id="kazWhizzTop05-group1103">
                <path id="kazWhizzTop05-bezier1461" stroke="none" fill="rgb(0, 0, 0)" d="M 37.59,30.56 C 37.51,28.75 37.51,26.93 37.61,25.11 37.67,24.2 37.75,23.28 37.9,22.38 38.07,21.47 38.26,20.56 38.74,19.69 39.28,18.74 40.31,18.38 41.2,18.15 42.13,17.93 43.06,17.86 43.99,17.84 45.85,17.83 47.67,18.01 49.5,18.37 L 49.91,18.45 49.9,18.89 C 49.85,20.84 49.72,22.79 49.58,24.73 49.45,26.68 49.27,28.62 49.06,30.56 L 48.96,30.56 C 48.88,29.58 48.84,28.61 48.81,27.63 48.8,26.65 48.76,25.68 48.77,24.7 48.77,22.75 48.78,20.8 48.87,18.85 L 49.28,19.37 C 47.55,19 45.76,18.72 43.99,18.66 43.1,18.64 42.21,18.68 41.36,18.85 40.54,19.03 39.67,19.35 39.28,20.02 38.84,20.72 38.61,21.61 38.42,22.47 38.23,23.35 38.1,24.24 38,25.14 37.8,26.93 37.7,28.75 37.69,30.56 L 37.59,30.56 Z M 37.59,30.56" />
            </g>
            <g id="kazWhizzTop05-group1104">
                <path id="kazWhizzTop05-bezier1462" stroke="none" fill="rgb(0, 0, 0)" d="M 124.16,12.2 C 123.96,11.7 123.71,11.22 123.41,10.8 123.12,10.36 122.75,10.08 122.28,9.96 121.86,9.86 121.37,10.02 120.84,10.04 120.31,10.06 119.77,10.08 119.21,9.97 L 119.19,9.89 C 119.69,9.6 120.2,9.42 120.73,9.29 121.26,9.18 121.87,9.15 122.48,9.4 122.78,9.53 123,9.67 123.24,9.89 123.46,10.12 123.61,10.36 123.73,10.61 123.97,11.12 124.13,11.65 124.24,12.18 L 124.16,12.2 Z M 124.16,12.2" />
            </g>
            <g id="kazWhizzTop05-group1105">
                <path id="kazWhizzTop05-bezier1463" stroke="none" fill="rgb(0, 0, 0)" d="M 119.22,15.09 C 119.68,15.22 120.14,15.31 120.57,15.32 120.79,15.31 120.99,15.23 121.18,15.25 L 121.87,15.34 121.91,15.4 C 121.83,15.71 121.56,15.91 121.29,16 121.01,16.09 120.72,15.99 120.48,15.91 119.97,15.75 119.54,15.48 119.18,15.15 L 119.22,15.09 Z M 119.22,15.09" />
            </g>
            <g id="kazWhizzTop05-group1106">
                <path id="kazWhizzTop05-bezier1464" stroke="none" fill="rgb(0, 0, 0)" d="M 118.36,49.27 L 113.9,49.15 C 112.42,49.14 110.9,49.06 109.48,49.18 108.74,49.35 107.96,49.35 107.22,49.38 106.47,49.41 105.72,49.42 104.97,49.36 104.22,49.31 103.48,49.19 102.73,49.05 102.01,48.86 101.23,48.7 100.62,48.2 L 100.66,48.14 C 101.34,48.39 102.09,48.41 102.82,48.47 103.55,48.54 104.29,48.54 105.02,48.59 106.48,48.66 107.98,48.86 109.41,48.67 110.96,48.61 112.42,48.73 113.91,48.83 L 118.36,49.19 118.36,49.27 Z M 118.36,49.27" />
            </g>
            <g id="kazWhizzTop05-group1107">
                <path id="kazWhizzTop05-bezier1465" stroke="none" fill="rgb(0, 0, 0)" d="M 99.48,42.35 C 101.07,42.39 102.65,42.45 104.24,42.56 105.03,42.61 105.83,42.68 106.62,42.77 107.02,42.82 107.41,42.88 107.82,42.95 108.02,42.99 108.22,43.04 108.44,43.11 L 108.71,43.22 108.97,43.3 C 110.46,43.66 112.05,43.88 113.59,44.2 115.14,44.47 116.71,44.83 118.25,45.05 L 118.27,45.13 C 117.44,45.23 116.66,45.15 115.86,45.11 115.06,45.07 114.27,44.97 113.48,44.88 111.9,44.69 110.34,44.43 108.78,43.95 108.68,43.91 108.58,43.88 108.48,43.84 108.36,43.79 108.26,43.73 108.2,43.71 108.05,43.64 107.87,43.59 107.68,43.54 107.31,43.45 106.93,43.37 106.54,43.31 105.77,43.17 104.98,43.06 104.2,42.96 102.63,42.76 101.05,42.58 99.48,42.42 L 99.48,42.35 Z M 99.48,42.35" />
            </g>
            <g id="kazWhizzTop05-group1108">
                <path id="kazWhizzTop05-bezier1466" stroke="none" fill="rgb(0, 0, 0)" d="M 88.16,43.7 C 90.6,44.97 93.13,46.05 95.64,47.16 L 95.24,47.24 C 95.84,46.47 96.38,45.6 96.79,44.7 97.21,43.79 97.52,42.86 97.7,41.92 L 98.01,42.47 C 97.19,42.11 96.41,41.69 95.67,41.18 95.3,40.92 94.94,40.65 94.61,40.33 94.32,40.01 93.93,39.61 94.01,39.09 L 94.11,39.1 C 94.19,39.5 94.56,39.75 94.91,39.96 95.26,40.19 95.64,40.38 96.03,40.56 96.8,40.91 97.6,41.23 98.39,41.53 L 98.75,41.67 98.7,42.08 C 98.55,43.18 98.13,44.19 97.6,45.12 97.07,46.04 96.47,46.9 95.76,47.7 L 95.58,47.91 95.35,47.79 C 92.89,46.55 90.45,45.25 88.11,43.78 L 88.16,43.7 Z M 88.16,43.7" />
            </g>
            <g id="kazWhizzTop05-group1109">
                <path id="kazWhizzTop05-bezier1467" stroke="none" fill="rgb(0, 0, 0)" d="M 37.69,30.56 C 37.65,32.37 37.7,34.19 37.86,35.98 37.94,36.88 38.06,37.77 38.24,38.64 38.43,39.5 38.66,40.39 39.12,41.07 39.35,41.41 39.64,41.57 40.06,41.7 40.46,41.84 40.89,41.93 41.32,41.99 42.19,42.11 43.08,42.15 43.97,42.14 45.76,42.13 47.56,41.96 49.32,41.74 L 48.87,42.27 C 48.78,40.32 48.77,38.37 48.77,36.42 48.76,35.45 48.8,34.47 48.81,33.49 48.84,32.52 48.88,31.54 48.96,30.56 L 49.06,30.56 C 49.27,32.5 49.45,34.45 49.58,36.39 49.72,38.34 49.85,40.28 49.9,42.23 L 49.92,42.71 49.45,42.76 C 47.62,42.95 45.8,43.02 43.96,42.97 43.04,42.93 42.12,42.87 41.2,42.7 40.74,42.62 40.28,42.51 39.83,42.34 39.71,42.3 39.6,42.25 39.48,42.19 39.38,42.14 39.27,42.09 39.14,42 38.92,41.84 38.74,41.63 38.6,41.42 38.07,40.56 37.89,39.64 37.73,38.74 37.58,37.83 37.52,36.92 37.48,36.01 37.41,34.18 37.45,32.37 37.59,30.56 L 37.69,30.56 Z M 37.69,30.56" />
            </g>
            <g id="kazWhizzTop05-group1110">
                <path id="kazWhizzTop05-bezier1468" stroke="none" fill="rgb(0, 0, 0)" d="M 120.99,45.32 C 121,45.97 121.05,46.61 121.17,47.21 121.24,47.5 121.38,47.76 121.44,47.99 121.51,48.21 121.54,48.38 121.88,48.57 L 121.89,48.64 C 121.59,48.94 120.97,48.7 120.78,48.34 120.55,47.99 120.57,47.6 120.57,47.26 120.58,46.58 120.72,45.94 120.91,45.31 L 120.99,45.32 Z M 120.99,45.32" />
            </g>
            <g id="kazWhizzTop05-group1111">
                <path id="kazWhizzTop05-bezier1469" stroke="none" fill="rgb(0, 0, 0)" d="M 124.24,47.94 C 124.12,48.48 123.97,49 123.73,49.51 123.6,49.76 123.46,50 123.24,50.23 123,50.46 122.78,50.59 122.48,50.73 121.87,50.97 121.26,50.94 120.73,50.83 120.2,50.7 119.69,50.52 119.19,50.23 L 119.21,50.15 C 119.77,50.04 120.31,50.06 120.84,50.09 121.37,50.11 121.86,50.27 122.28,50.16 122.75,50.04 123.12,49.76 123.41,49.32 123.71,48.9 123.96,48.42 124.16,47.92 L 124.24,47.94 Z M 124.24,47.94" />
            </g>
            <g id="kazWhizzTop05-group1112">
                <path id="kazWhizzTop05-bezier1470" stroke="none" fill="rgb(0, 0, 0)" d="M 119.18,44.97 C 119.54,44.64 119.97,44.37 120.48,44.22 120.72,44.13 121.01,44.03 121.29,44.13 121.56,44.22 121.83,44.41 121.91,44.72 L 121.87,44.78 121.18,44.87 C 120.99,44.89 120.79,44.81 120.57,44.81 120.14,44.81 119.68,44.9 119.22,45.04 L 119.18,44.97 Z M 119.18,44.97" />
            </g>
            <g id="kazWhizzTop05-group1113">
                <path id="kazWhizzTop05-bezier1471" stroke="none" fill="rgb(0, 0, 0)" d="M 107.91,33.89 C 106.9,34.89 105.66,35.7 104.28,36.12 102.9,36.55 101.44,36.67 100.01,36.62 98.57,36.56 97.15,36.35 95.75,36.06 94.33,35.77 93,35.37 91.62,35.23 88.87,34.9 86.08,35.17 83.48,36.06 80.9,36.97 78.45,38.48 76.63,40.63 L 76.55,40.58 C 77.25,39.32 78.28,38.28 79.4,37.37 80.52,36.45 81.81,35.74 83.15,35.19 85.86,34.07 88.9,33.86 91.75,34.34 92.46,34.46 93.16,34.61 93.87,34.8 94.56,34.99 95.22,35.18 95.91,35.35 97.27,35.69 98.65,35.96 100.04,36.06 101.43,36.17 102.84,36.14 104.19,35.8 105.54,35.46 106.79,34.75 107.84,33.81 L 107.91,33.89 Z M 107.91,33.89" />
            </g>
            <g id="kazWhizzTop05-group1114">
                <path id="kazWhizzTop05-bezier1472" stroke="none" fill="rgb(0, 0, 0)" d="M 75.69,21.5 C 77.92,23.37 80.47,24.88 83.2,25.79 84.56,26.24 85.99,26.51 87.4,26.48 88.8,26.47 90.2,26.07 91.6,25.7 94.39,24.94 97.17,23.94 100.13,23.53 101.6,23.35 103.12,23.25 104.6,23.51 106.09,23.75 107.52,24.32 108.71,25.19 L 108.65,25.28 C 106.03,23.93 103.07,23.92 100.28,24.47 97.47,25.01 94.68,25.9 91.82,26.56 90.39,26.86 88.93,27.24 87.4,27.2 85.88,27.16 84.41,26.82 83.02,26.3 80.25,25.24 77.77,23.56 75.62,21.57 L 75.69,21.5 Z M 75.69,21.5" />
            </g>
            <g id="kazWhizzTop05-group1115">
                <path id="kazWhizzTop05-bezier1473" stroke="none" fill="rgb(0, 0, 0)" d="M 107.81,31.37 C 104.89,31.14 101.96,31.35 99.04,31.51 L 90.27,32.05 C 87.34,32.23 84.41,32.45 81.46,32.35 79.99,32.29 78.51,32.21 77.04,32 75.59,31.78 74.08,31.51 72.78,30.78 L 72.82,30.69 C 73.51,30.92 74.22,31.06 74.94,31.13 75.66,31.23 76.38,31.28 77.11,31.31 78.56,31.37 80.01,31.39 81.47,31.35 84.38,31.32 87.31,31.32 90.23,31.26 L 99.02,31.01 C 101.95,30.99 104.9,30.91 107.82,31.28 L 107.81,31.37 Z M 107.81,31.37" />
            </g>
            <g id="kazWhizzTop05-group1116">
                <path id="kazWhizzTop05-bezier1474" stroke="none" fill="rgb(0, 0, 0)" d="M 89.38,15.07 C 84.26,15.35 79.13,15.7 74.1,16.64 72.84,16.88 71.61,17.17 70.39,17.56 69.15,17.92 67.9,18.24 66.64,18.51 65.37,18.78 64.09,18.99 62.79,19.1 62.14,19.15 61.49,19.18 60.83,19.17 60.15,19.14 59.53,19.12 58.79,18.91 L 59.38,18.39 C 59.83,20.29 60.24,22.2 60.59,24.13 60.9,26.07 61.24,27.99 61.2,30.02 61.04,32.06 60.58,33.92 60.23,35.84 60.05,36.79 59.9,37.75 59.79,38.71 59.69,39.66 59.63,40.64 59.85,41.57 L 59.75,41.6 C 59.39,40.67 59.37,39.66 59.37,38.68 59.39,37.69 59.49,36.72 59.6,35.75 59.79,33.81 60.21,31.86 60.27,30 60.21,28.14 59.88,26.21 59.57,24.3 59.25,22.4 58.9,20.48 58.51,18.59 L 58.36,17.84 59.11,18.07 C 60.16,18.39 61.51,18.4 62.74,18.34 64,18.28 65.26,18.11 66.52,17.89 67.77,17.66 69.01,17.38 70.25,17.06 71.48,16.72 72.76,16.43 74.02,16.22 79.11,15.38 84.25,15.14 89.37,14.97 L 89.38,15.07 Z M 89.38,15.07" />
            </g>
            <g id="kazWhizzTop05-group1117">
                <path id="kazWhizzTop05-bezier1475" stroke="none" fill="rgb(0, 0, 0)" d="M 59.81,42.18 C 62.04,41.32 64.46,40.99 66.86,41.01 68.06,41.02 69.26,41.13 70.46,41.32 71.65,41.5 72.82,41.83 73.95,42.05 76.25,42.47 78.6,42.69 80.95,42.93 83.3,43.13 85.66,43.28 88.04,43.42 L 88.05,43.52 C 85.68,43.82 83.28,43.9 80.89,43.83 78.5,43.78 76.11,43.51 73.76,42.96 72.56,42.69 71.47,42.28 70.32,42.05 69.17,41.81 68.01,41.65 66.84,41.57 64.51,41.44 62.11,41.57 59.85,42.28 L 59.81,42.18 Z M 59.81,42.18" />
            </g>
            <g id="kazWhizzTop05-group1118">
                <path id="kazWhizzTop05-bezier1476" stroke="none" fill="rgb(0, 0, 0)" d="M 50.21,42.15 C 51.57,41.76 52.96,41.48 54.38,41.32 55.09,41.23 55.8,41.13 56.52,41.21 57.24,41.28 57.96,41.45 58.61,41.81 L 58.59,41.88 56.49,41.95 C 55.81,41.98 55.12,41.91 54.42,41.92 53.03,41.94 51.62,42.05 50.23,42.22 L 50.21,42.15 Z M 50.21,42.15" />
            </g>
            <g id="kazWhizzTop05-group1119">
                <path id="kazWhizzTop05-bezier1477" stroke="none" fill="rgb(0, 0, 0)" d="M 50.56,18.94 L 54.58,18.78 C 55.25,18.74 55.92,18.66 56.58,18.7 57.25,18.74 57.91,18.81 58.59,18.94 L 58.6,19.01 C 57.95,19.29 57.27,19.39 56.59,19.45 55.92,19.51 55.24,19.43 54.57,19.38 53.23,19.29 51.89,19.17 50.55,19.01 L 50.56,18.94 Z M 50.56,18.94" />
            </g>
            <g id="kazWhizzTop05-group1120">
                <path id="kazWhizzTop05-bezier1478" stroke="none" fill="rgb(0, 0, 0)" d="M 51.19,27.7 C 52.04,27.75 52.88,27.79 53.72,27.81 54.14,27.81 54.56,27.77 54.97,27.83 55.38,27.89 55.77,27.98 56.21,28.1 L 56.23,28.18 C 55.84,28.46 55.37,28.54 54.94,28.58 54.5,28.61 54.08,28.49 53.66,28.41 52.81,28.25 51.99,28.03 51.17,27.78 L 51.19,27.7 Z M 51.19,27.7" />
            </g>
            <g id="kazWhizzTop05-group1121">
                <path id="kazWhizzTop05-bezier1479" stroke="none" fill="rgb(0, 0, 0)" d="M 50.92,33.4 C 51.78,33.11 52.64,32.86 53.52,32.65 53.95,32.54 54.39,32.4 54.85,32.39 55.3,32.41 55.8,32.41 56.24,32.73 L 56.21,32.8 C 55.77,32.9 55.36,33.05 54.93,33.14 54.5,33.24 54.06,33.22 53.61,33.24 L 50.94,33.47 50.92,33.4 Z M 50.92,33.4" />
            </g>
            <g id="kazWhizzTop05-group1122">
                <path id="kazWhizzTop05-bezier1480" stroke="none" fill="rgb(0, 0, 0)" d="M 120.91,14.81 C 120.72,14.19 120.58,13.54 120.57,12.86 120.57,12.52 120.55,12.14 120.78,11.79 120.97,11.42 121.59,11.19 121.89,11.48 L 121.88,11.55 C 121.53,11.74 121.51,11.91 121.44,12.14 121.38,12.36 121.24,12.62 121.17,12.92 121.05,13.51 121,14.16 120.99,14.8 L 120.91,14.81 Z M 120.91,14.81" />
            </g>
            <g id="kazWhizzTop05-group1123">
                <path id="kazWhizzTop05-bezier1481" stroke="none" fill="rgb(0, 0, 0)" d="M 100.86,47.5 C 100.17,47.57 99.49,47.61 98.79,47.63 98.45,47.64 98.1,47.67 97.76,47.6 97.42,47.52 97.06,47.45 96.76,47.21 L 96.78,47.16 C 97.14,47.12 97.47,47.12 97.81,47.11 98.14,47.11 98.48,47.18 98.81,47.23 L 100.86,47.45 100.86,47.5 Z M 100.86,47.5" />
            </g>
            <g id="kazWhizzTop05-group1124">
                <path id="kazWhizzTop05-bezier1482" stroke="none" fill="rgb(0, 0, 0)" d="M 100.98,12.66 L 99.61,12.86 C 99.38,12.9 99.16,12.98 98.94,12.98 98.71,12.96 98.5,12.96 98.24,12.91 L 98.22,12.87 C 98.39,12.64 98.64,12.56 98.87,12.48 99.1,12.41 99.35,12.45 99.58,12.46 100.05,12.48 100.52,12.53 100.98,12.61 L 100.98,12.66 Z M 100.98,12.66" />
            </g>
            <g id="kazWhizzTop05-group1125">
                <path id="kazWhizzTop05-bezier1483" stroke="none" fill="rgb(0, 0, 0)" d="M 115.73,28.83 C 115.28,28.92 114.93,29.28 114.81,29.69 114.7,30.1 114.63,30.6 114.49,31.04 114.36,31.49 114.25,31.96 114.02,32.38 113.77,32.76 113.52,33.27 112.98,33.38 L 112.96,33.33 C 113.26,33.01 113.39,32.57 113.57,32.16 113.74,31.74 113.96,31.35 114.13,30.92 114.32,30.49 114.42,30.08 114.6,29.61 114.8,29.16 115.25,28.82 115.72,28.78 L 115.73,28.83 Z M 115.73,28.83" />
            </g>
            <g id="kazWhizzTop05-group1126">
                <path id="kazWhizzTop05-bezier1484" stroke="none" fill="rgb(0, 0, 0)" d="M 115.88,28.78 C 116.01,28.71 116.14,28.61 116.2,28.5 116.26,28.38 116.17,28.27 116.05,28.2 115.81,28.04 115.51,27.96 115.23,27.79 114.64,27.48 114.29,26.81 114.15,26.21 113.98,25.65 113.68,25.13 113.4,24.61 113.12,24.08 112.81,23.56 112.45,23.07 L 112.48,23.03 C 113.05,23.33 113.46,23.84 113.83,24.35 114.18,24.88 114.42,25.48 114.55,26.11 114.65,26.71 114.87,27.24 115.37,27.57 115.6,27.74 115.89,27.86 116.15,28.06 116.28,28.15 116.41,28.38 116.29,28.55 116.19,28.69 116.04,28.76 115.9,28.82 L 115.88,28.78 Z M 115.88,28.78" />
            </g>
            <g id="kazWhizzTop05-group1127">
                <path id="kazWhizzTop05-bezier1485" stroke="none" fill="rgb(0, 0, 0)" d="M 51.43,18.45 C 53.86,17.38 56.39,16.56 58.93,15.79 61.48,15.03 64.06,14.39 66.64,13.8 69.24,13.21 71.84,12.68 74.46,12.22 77.07,11.74 79.71,11.44 82.36,11.17 L 82.3,11.19 C 83.21,10.89 84.24,11.07 85,11.58 85.74,12.09 86.35,12.91 86.34,13.83 L 86.26,13.83 C 86.18,12.97 85.51,12.29 84.81,11.9 84.09,11.49 83.22,11.42 82.49,11.72 L 82.47,11.73 82.43,11.74 74.58,12.96 C 71.96,13.36 69.35,13.79 66.76,14.32 64.16,14.84 61.58,15.44 59.02,16.11 56.47,16.79 53.92,17.53 51.46,18.52 L 51.43,18.45 Z M 51.43,18.45" />
            </g>
        </g>
    </g>
</svg>
