<?xml version="1.0" encoding="UTF-8"?>
<!DOCTYPE svg PUBLIC "-//W3C//DTD SVG 1.1//EN" "http://www.w3.org/Graphics/SVG/1.1/DTD/svg11.dtd">
<svg version="1.1" xmlns="http://www.w3.org/2000/svg" xmlns:xlink="http://www.w3.org/1999/xlink" width="160" height="60"  xml:space="preserve" id="kazWhizzTop02">
    <!-- Generated by PaintCode - http://www.paintcodeapp.com -->
    <g id="kazWhizzTop02-group">
        <path id="kazWhizzTop02-bezier1329" stroke="rgb(0, 0, 0)" stroke-width="2" stroke-miterlimit="10" fill="none" d="M 111.14,30.56 L 156.49,30.56" />
        <path id="kazWhizzTop02-bezier1330" stroke="rgb(0, 0, 0)" stroke-width="2" stroke-miterlimit="10" fill="none" d="M 3.1,30.56 L 33.11,30.56" />
        <path id="kazWhizzTop02-bezier1331" stroke="rgb(0, 0, 0)" stroke-width="2" stroke-miterlimit="10" fill="none" d="M 127.67,13.55 L 106.42,13.55 106.42,25.43" />
        <path id="kazWhizzTop02-bezier1332" stroke="rgb(0, 0, 0)" stroke-width="2" stroke-miterlimit="10" fill="none" d="M 127.67,46.57 L 106.42,46.57 106.42,46.55 106.42,40.68" />
        <path id="kazWhizzTop02-bezier1333" stroke="rgb(0, 0, 0)" stroke-width="2" stroke-miterlimit="10" fill="none" d="M 36.2,26.06 C 36.2,26.06 34.93,27.38 34.93,30.56 34.93,33.74 36.2,34.68 36.2,34.68" />
        <path id="kazWhizzTop02-bezier1334" stroke="rgb(0, 0, 0)" stroke-width="2" stroke-miterlimit="10" fill="none" d="M 126.84,28.14 L 110.82,28.14" />
        <path id="kazWhizzTop02-bezier1335" stroke="rgb(0, 0, 0)" stroke-width="2" stroke-miterlimit="10" fill="none" d="M 126.84,33.01 L 112.82,33.01" />
        <path id="kazWhizzTop02-bezier1336" stroke="rgb(0, 0, 0)" stroke-width="2" stroke-miterlimit="10" fill="none" d="M 33.58,28.14 L 31.87,28.14" />
        <path id="kazWhizzTop02-bezier1337" stroke="rgb(0, 0, 0)" stroke-width="2" stroke-miterlimit="10" fill="none" d="M 33.58,33.01 L 31.87,33.01" />
        <g id="kazWhizzTop02-group1003">
            <g id="kazWhizzTop02-group1004">
                <path id="kazWhizzTop02-bezier1338" stroke="none" fill="rgb(0, 0, 0)" d="M 101.05,41.47 C 99.42,41.58 97.78,41.61 96.14,41.47 94.51,41.31 92.86,41.05 91.3,40.32 90.92,40.14 90.51,39.88 90.19,39.65 89.93,39.49 89.68,39.44 89.49,39.54 89.05,39.75 88.63,40.48 88.33,41.16 87.69,42.58 87.25,44.15 86.74,45.71 L 86.64,45.69 C 86.61,44.04 86.83,42.39 87.4,40.78 87.74,40.02 88.05,39.11 89.14,38.62 89.72,38.4 90.35,38.62 90.73,38.93 91.06,39.21 91.32,39.41 91.67,39.61 93.02,40.35 94.62,40.72 96.2,40.98 97.8,41.24 99.42,41.34 101.04,41.37 L 101.05,41.47 Z M 101.05,41.47" />
            </g>
            <g id="kazWhizzTop02-group1005">
                <path id="kazWhizzTop02-bezier1339" stroke="none" fill="rgb(0, 0, 0)" d="M 97.43,24.03 C 98.7,24.02 99.95,24.11 101.21,24.16 102.48,24.24 103.75,24.53 104.93,25.03 107.29,26.04 109.34,27.96 110.26,30.45 110.73,31.69 110.89,33.05 110.73,34.38 110.56,35.71 110.03,36.99 109.24,38.06 107.62,40.18 105.11,41.5 102.56,41.67 L 102.55,41.57 C 104.94,40.84 107.11,39.47 108.42,37.48 109.76,35.54 110.25,33.01 109.51,30.72 108.77,28.43 106.94,26.54 104.73,25.49 102.52,24.34 99.92,24.35 97.43,24.13 L 97.43,24.03 Z M 97.43,24.03" />
            </g>
            <g id="kazWhizzTop02-group1006">
                <path id="kazWhizzTop02-bezier1340" stroke="none" fill="rgb(0, 0, 0)" d="M 82.15,19.91 C 83.3,19.78 84.48,19.65 85.66,19.8 86.83,19.93 88.01,20.33 89,21.03 89.5,21.37 89.95,21.78 90.36,22.23 90.75,22.67 91.13,23.07 91.55,23.46 91.96,23.83 92.41,24.18 92.86,24.41 93.08,24.52 93.31,24.59 93.46,24.59 93.6,24.59 93.65,24.52 93.68,24.51 L 95.23,23.99 94.06,24.19 C 95.05,24.02 95.95,24.33 96.73,24.61 97.52,24.92 98.26,25.24 99.09,25.37 L 99.1,25.47 C 98.24,25.67 97.34,25.47 96.53,25.34 95.71,25.17 94.93,25.06 94.25,25.2 L 94.63,24.88 C 94.42,25.41 93.86,25.65 93.42,25.61 92.99,25.58 92.67,25.42 92.39,25.24 91.83,24.89 91.4,24.46 90.99,24.02 90.59,23.58 90.21,23.1 89.86,22.66 89.5,22.23 89.11,21.83 88.67,21.49 87.78,20.81 86.73,20.35 85.61,20.14 84.49,19.92 83.32,19.96 82.16,20.01 L 82.15,19.91 Z M 82.15,19.91" />
            </g>
            <g id="kazWhizzTop02-group1007">
                <path id="kazWhizzTop02-bezier1341" stroke="none" fill="rgb(0, 0, 0)" d="M 117.96,10.93 C 116.48,11.08 115,11.23 113.52,11.34 112.02,11.44 110.58,11.59 109.01,11.55 107.58,11.38 106.09,11.48 104.62,11.48 103.88,11.5 103.14,11.54 102.41,11.59 101.68,11.67 100.93,11.69 100.26,11.99 L 100.22,11.93 C 100.85,11.46 101.62,11.31 102.34,11.14 103.08,10.98 103.83,10.89 104.57,10.81 105.32,10.74 106.07,10.69 106.82,10.68 107.56,10.68 108.35,10.68 109.09,10.84 110.49,10.99 112.03,10.93 113.5,10.92 L 117.96,10.85 117.96,10.93 Z M 117.96,10.93" />
            </g>
            <g id="kazWhizzTop02-group1008">
                <path id="kazWhizzTop02-bezier1342" stroke="none" fill="rgb(0, 0, 0)" d="M 99.08,17.7 C 100.66,17.56 102.24,17.4 103.81,17.21 104.59,17.11 105.38,17 106.15,16.88 106.54,16.81 106.93,16.74 107.3,16.65 107.49,16.6 107.68,16.55 107.83,16.49 107.97,16.42 108.22,16.3 108.4,16.25 109.96,15.79 111.51,15.45 113.08,15.2 114.66,15.01 116.24,14.8 117.87,15 L 117.85,15.07 C 116.32,15.36 114.75,15.71 113.2,15.96 111.65,16.22 110.05,16.36 108.55,16.75 108.35,16.8 108.24,16.84 108.01,16.94 107.8,17.02 107.6,17.06 107.4,17.1 107.01,17.18 106.61,17.24 106.21,17.29 105.42,17.39 104.63,17.46 103.84,17.52 102.25,17.63 100.67,17.71 99.09,17.77 L 99.08,17.7 Z M 99.08,17.7" />
            </g>
            <g id="kazWhizzTop02-group1009">
                <path id="kazWhizzTop02-bezier1343" stroke="none" fill="rgb(0, 0, 0)" d="M 89.67,16.34 C 92.02,14.95 94.24,13.35 96.41,11.72 L 96.72,11.5 96.9,11.84 C 97.53,13.05 98.03,14.29 98.44,15.59 98.84,16.88 99.08,18.27 98.92,19.67 L 98.88,19.95 98.66,20.06 96.09,21.28 94.82,21.91 C 94.42,22.12 93.92,22.34 93.68,22.64 L 93.57,22.64 C 93.64,22.33 93.86,22.2 94.03,22.03 94.21,21.86 94.4,21.71 94.59,21.56 94.97,21.26 95.37,20.99 95.77,20.72 96.56,20.17 97.38,19.68 98.22,19.21 L 97.97,19.6 C 98,18.35 97.81,17.09 97.55,15.82 97.27,14.57 96.84,13.31 96.31,12.14 L 96.8,12.26 C 94.52,13.79 92.17,15.21 89.71,16.42 L 89.67,16.34 Z M 89.67,16.34" />
            </g>
            <g id="kazWhizzTop02-group1010">
                <path id="kazWhizzTop02-bezier1344" stroke="none" fill="rgb(0, 0, 0)" d="M 37.19,30.56 C 37.11,28.83 37.11,27.09 37.2,25.35 37.31,23.62 37.43,21.86 38.1,20.16 38.29,19.75 38.52,19.31 38.94,18.99 39.29,18.71 39.75,18.47 40.17,18.32 41.04,18.01 41.94,17.89 42.83,17.86 44.62,17.8 46.37,18 48.11,18.38 L 48.5,18.47 48.49,18.89 C 48.46,20.84 48.33,22.79 48.19,24.73 48.14,25.7 48.04,26.68 47.96,27.65 47.88,28.62 47.76,29.59 47.66,30.56 L 47.56,30.56 C 47.48,29.58 47.43,28.61 47.41,27.63 47.38,26.65 47.35,25.68 47.36,24.7 47.36,22.75 47.37,20.8 47.48,18.85 L 47.86,19.37 C 46.24,18.96 44.53,18.67 42.85,18.66 42.01,18.66 41.17,18.74 40.4,18.99 40,19.12 39.67,19.27 39.33,19.51 39.05,19.71 38.83,20.05 38.66,20.42 37.99,21.93 37.77,23.69 37.57,25.38 37.39,27.1 37.3,28.83 37.29,30.56 L 37.19,30.56 Z M 37.19,30.56" />
            </g>
            <g id="kazWhizzTop02-group1011">
                <path id="kazWhizzTop02-bezier1345" stroke="none" fill="rgb(0, 0, 0)" d="M 123.77,12.2 C 123.56,11.7 123.32,11.22 123.01,10.8 122.73,10.36 122.35,10.08 121.89,9.96 121.46,9.86 120.97,10.02 120.45,10.04 119.92,10.06 119.37,10.08 118.81,9.97 L 118.8,9.89 C 119.29,9.6 119.8,9.42 120.34,9.29 120.86,9.18 121.47,9.15 122.08,9.4 122.38,9.53 122.6,9.67 122.84,9.89 123.06,10.12 123.21,10.36 123.34,10.61 123.57,11.12 123.73,11.65 123.84,12.18 L 123.77,12.2 Z M 123.77,12.2" />
            </g>
            <g id="kazWhizzTop02-group1012">
                <path id="kazWhizzTop02-bezier1346" stroke="none" fill="rgb(0, 0, 0)" d="M 118.82,15.09 C 119.28,15.22 119.75,15.31 120.18,15.32 120.4,15.31 120.59,15.23 120.78,15.25 L 121.47,15.34 121.51,15.4 C 121.43,15.71 121.16,15.91 120.89,16 120.61,16.09 120.32,15.99 120.08,15.91 119.57,15.75 119.14,15.48 118.78,15.15 L 118.82,15.09 Z M 118.82,15.09" />
            </g>
            <g id="kazWhizzTop02-group1013">
                <path id="kazWhizzTop02-bezier1347" stroke="none" fill="rgb(0, 0, 0)" d="M 117.96,49.27 L 113.5,49.15 C 112.03,49.14 110.51,49.06 109.08,49.18 108.34,49.35 107.57,49.35 106.82,49.38 106.07,49.41 105.32,49.42 104.57,49.36 103.82,49.31 103.08,49.19 102.34,49.05 101.61,48.86 100.83,48.7 100.22,48.2 L 100.26,48.14 C 100.94,48.39 101.69,48.41 102.42,48.47 103.15,48.54 103.89,48.54 104.62,48.59 106.08,48.66 107.58,48.86 109.02,48.67 110.56,48.61 112.02,48.73 113.51,48.83 L 117.96,49.19 117.96,49.27 Z M 117.96,49.27" />
            </g>
            <g id="kazWhizzTop02-group1014">
                <path id="kazWhizzTop02-bezier1348" stroke="none" fill="rgb(0, 0, 0)" d="M 99.08,42.35 C 100.67,42.39 102.26,42.45 103.84,42.56 104.63,42.61 105.43,42.68 106.22,42.77 106.62,42.82 107.02,42.88 107.42,42.95 107.62,42.99 107.82,43.04 108.04,43.11 L 108.31,43.22 108.58,43.3 C 110.07,43.66 111.65,43.88 113.19,44.2 114.74,44.47 116.31,44.83 117.85,45.05 L 117.87,45.13 C 117.05,45.23 116.26,45.15 115.46,45.11 114.67,45.07 113.88,44.97 113.09,44.88 111.5,44.69 109.94,44.43 108.38,43.95 108.28,43.91 108.18,43.88 108.08,43.84 107.96,43.79 107.87,43.73 107.81,43.71 107.66,43.64 107.47,43.59 107.29,43.54 106.92,43.45 106.53,43.37 106.14,43.31 105.37,43.17 104.59,43.06 103.8,42.96 102.23,42.76 100.66,42.58 99.08,42.42 L 99.08,42.35 Z M 99.08,42.35" />
            </g>
            <g id="kazWhizzTop02-group1015">
                <path id="kazWhizzTop02-bezier1349" stroke="none" fill="rgb(0, 0, 0)" d="M 97.85,42.01 C 97.75,43.05 97.44,44.06 97.01,45.02 96.57,45.98 96.04,46.87 95.39,47.73 L 95.28,47.88 95.06,47.86 C 93.91,47.76 92.76,47.69 91.65,47.37 90.55,47.04 89.47,46.59 88.53,45.9 L 88.57,45.81 C 89.71,45.96 90.8,46.18 91.89,46.38 92.97,46.59 94.05,46.93 95.14,47.09 L 94.81,47.22 C 95.47,46.5 96.08,45.66 96.58,44.8 97.1,43.93 97.53,43 97.75,41.99 L 97.85,42.01 Z M 97.85,42.01" />
            </g>
            <g id="kazWhizzTop02-group1016">
                <path id="kazWhizzTop02-bezier1350" stroke="none" fill="rgb(0, 0, 0)" d="M 37.29,30.56 C 37.25,32.29 37.3,34.02 37.44,35.73 37.61,37.43 37.8,39.2 38.49,40.68 38.67,41.03 38.91,41.36 39.19,41.51 39.56,41.69 39.92,41.8 40.33,41.89 41.14,42.07 41.98,42.13 42.83,42.14 44.52,42.16 46.24,41.99 47.92,41.75 L 47.48,42.27 C 47.37,40.32 47.36,38.37 47.36,36.42 47.35,35.45 47.38,34.47 47.41,33.49 47.43,32.52 47.48,31.54 47.56,30.56 L 47.66,30.56 C 47.76,31.53 47.88,32.5 47.96,33.48 48.04,34.45 48.14,35.42 48.19,36.39 48.33,38.34 48.46,40.28 48.5,42.23 L 48.51,42.7 48.06,42.75 C 46.31,42.96 44.57,43.03 42.8,42.94 41.93,42.9 41.04,42.81 40.16,42.58 39.74,42.47 39.27,42.31 38.87,42.08 38.4,41.79 38.14,41.36 37.94,40.95 37.23,39.25 37.15,37.49 37.07,35.76 37.01,34.02 37.06,32.29 37.19,30.56 L 37.29,30.56 Z M 37.29,30.56" />
            </g>
            <g id="kazWhizzTop02-group1017">
                <path id="kazWhizzTop02-bezier1351" stroke="none" fill="rgb(0, 0, 0)" d="M 120.59,45.32 C 120.61,45.97 120.65,46.61 120.77,47.21 120.84,47.5 120.98,47.76 121.04,47.99 121.12,48.21 121.14,48.38 121.49,48.57 L 121.49,48.64 C 121.19,48.94 120.57,48.7 120.38,48.34 120.15,47.99 120.17,47.6 120.18,47.26 120.18,46.58 120.32,45.94 120.52,45.31 L 120.59,45.32 Z M 120.59,45.32" />
            </g>
            <g id="kazWhizzTop02-group1018">
                <path id="kazWhizzTop02-bezier1352" stroke="none" fill="rgb(0, 0, 0)" d="M 123.84,47.94 C 123.73,48.48 123.57,49 123.34,49.51 123.21,49.76 123.06,50 122.84,50.23 122.6,50.46 122.38,50.59 122.08,50.73 121.47,50.97 120.86,50.94 120.34,50.83 119.8,50.7 119.29,50.52 118.8,50.23 L 118.81,50.15 C 119.37,50.04 119.92,50.06 120.45,50.09 120.97,50.11 121.47,50.27 121.89,50.16 122.35,50.04 122.73,49.76 123.01,49.32 123.32,48.9 123.56,48.42 123.77,47.92 L 123.84,47.94 Z M 123.84,47.94" />
            </g>
            <g id="kazWhizzTop02-group1019">
                <path id="kazWhizzTop02-bezier1353" stroke="none" fill="rgb(0, 0, 0)" d="M 118.78,44.97 C 119.14,44.64 119.57,44.37 120.08,44.22 120.32,44.13 120.61,44.03 120.89,44.13 121.16,44.22 121.43,44.41 121.51,44.72 L 121.47,44.78 120.78,44.87 C 120.59,44.89 120.4,44.81 120.18,44.81 119.75,44.81 119.28,44.9 118.82,45.04 L 118.78,44.97 Z M 118.78,44.97" />
            </g>
            <g id="kazWhizzTop02-group1020">
                <path id="kazWhizzTop02-bezier1354" stroke="none" fill="rgb(0, 0, 0)" d="M 105.71,38.45 C 104.77,39.32 103.63,40.03 102.35,40.34 101.08,40.66 99.74,40.66 98.45,40.46 97.16,40.28 95.91,39.93 94.68,39.51 93.44,39.08 92.3,38.58 91.08,38.32 88.66,37.75 86.14,37.8 83.77,38.49 81.42,39.2 79.18,40.51 77.46,42.38 L 77.38,42.32 C 78.04,41.2 78.99,40.28 80.02,39.48 81.06,38.67 82.24,38.06 83.49,37.61 85.99,36.68 88.79,36.71 91.31,37.44 92.59,37.78 93.78,38.36 94.93,38.83 96.11,39.29 97.31,39.68 98.55,39.92 99.77,40.15 101.04,40.25 102.27,40.01 103.51,39.79 104.66,39.18 105.64,38.38 L 105.71,38.45 Z M 105.71,38.45" />
            </g>
            <g id="kazWhizzTop02-group1021">
                <path id="kazWhizzTop02-bezier1355" stroke="none" fill="rgb(0, 0, 0)" d="M 76.61,23.15 C 78.41,25.14 80.54,26.86 82.92,28.04 84.11,28.62 85.38,29.04 86.67,29.16 87.96,29.3 89.26,29.03 90.58,28.79 93.21,28.29 95.83,27.53 98.6,27.39 99.97,27.33 101.39,27.37 102.74,27.77 104.09,28.14 105.33,28.85 106.3,29.81 L 106.24,29.89 C 105.12,29.14 103.88,28.63 102.59,28.41 101.3,28.19 99.99,28.18 98.67,28.33 96.05,28.62 93.43,29.26 90.73,29.65 89.4,29.83 88,30.07 86.59,29.86 85.2,29.67 83.88,29.17 82.68,28.52 80.27,27.18 78.24,25.31 76.53,23.21 L 76.61,23.15 Z M 76.61,23.15" />
            </g>
            <g id="kazWhizzTop02-group1022">
                <path id="kazWhizzTop02-bezier1356" stroke="none" fill="rgb(0, 0, 0)" d="M 105.88,35.94 C 103.26,35.45 100.59,35.39 97.93,35.29 L 89.92,35.03 C 87.25,34.94 84.57,34.89 81.91,34.53 80.58,34.33 79.25,34.12 77.94,33.78 76.64,33.43 75.3,33.02 74.21,32.18 L 74.27,32.1 C 75.47,32.67 76.78,32.89 78.08,33.1 79.38,33.29 80.7,33.44 82.02,33.54 84.66,33.77 87.31,34.04 89.97,34.24 L 97.95,34.79 C 100.61,35.03 103.29,35.22 105.9,35.85 L 105.88,35.94 Z M 105.88,35.94" />
            </g>
            <g id="kazWhizzTop02-group1023">
                <path id="kazWhizzTop02-bezier1357" stroke="none" fill="rgb(0, 0, 0)" d="M 89.27,17.55 C 86.46,17.51 83.65,17.53 80.84,17.65 78.04,17.77 75.24,17.96 72.48,18.43 69.74,18.99 66.9,19.34 64.08,19.39 61.24,19.44 58.42,19.27 55.59,18.71 L 56.15,18.22 C 56.41,20.16 56.63,22.1 56.79,24.05 56.92,26.01 57.07,27.95 56.84,29.97 56.48,31.99 55.85,33.8 55.32,35.67 55.05,36.6 54.8,37.54 54.6,38.48 54.41,39.42 54.26,40.38 54.39,41.34 L 54.29,41.36 C 54.02,40.4 54.1,39.39 54.19,38.41 54.3,37.43 54.5,36.47 54.7,35.51 55.08,33.61 55.68,31.7 55.92,29.86 56.04,28.01 55.89,26.05 55.76,24.12 55.63,22.19 55.46,20.25 55.25,18.33 L 55.19,17.69 55.81,17.84 C 58.47,18.46 61.29,18.7 64.07,18.71 66.87,18.73 69.64,18.45 72.41,17.96 75.21,17.55 78.02,17.42 80.84,17.36 83.65,17.3 86.46,17.34 89.27,17.45 L 89.27,17.55 Z M 89.27,17.55" />
            </g>
            <g id="kazWhizzTop02-group1024">
                <path id="kazWhizzTop02-bezier1358" stroke="none" fill="rgb(0, 0, 0)" d="M 54.3,41.94 C 56.84,41.55 59.43,41.4 62.02,41.45 64.6,41.53 67.2,41.83 69.72,42.55 71,42.92 72.16,43.39 73.4,43.7 74.62,44.04 75.85,44.36 77.09,44.66 79.57,45.3 82.08,45.79 84.6,46.35 L 84.59,46.45 C 82,46.46 79.43,46.1 76.88,45.64 75.61,45.37 74.35,45.06 73.11,44.65 71.87,44.27 70.66,43.72 69.48,43.32 67.08,42.53 64.54,42.13 61.99,41.96 59.44,41.77 56.86,41.79 54.31,42.04 L 54.3,41.94 Z M 54.3,41.94" />
            </g>
            <g id="kazWhizzTop02-group1025">
                <path id="kazWhizzTop02-bezier1359" stroke="none" fill="rgb(0, 0, 0)" d="M 48.81,42.15 C 49.61,41.67 50.53,41.4 51.46,41.28 51.93,41.21 52.42,41.14 52.89,41.24 53.35,41.34 53.81,41.5 54.21,41.81 L 54.19,41.88 C 53.7,41.97 53.25,41.98 52.81,41.98 52.37,41.99 51.94,41.9 51.5,41.88 50.61,41.86 49.71,41.94 48.84,42.22 L 48.81,42.15 Z M 48.81,42.15" />
            </g>
            <g id="kazWhizzTop02-group1026">
                <path id="kazWhizzTop02-bezier1360" stroke="none" fill="rgb(0, 0, 0)" d="M 49.16,18.93 L 51.68,18.78 C 52.1,18.74 52.51,18.66 52.93,18.69 53.34,18.73 53.75,18.78 54.19,18.93 L 54.2,19.01 C 53.81,19.27 53.38,19.38 52.95,19.44 52.52,19.51 52.1,19.43 51.67,19.38 50.83,19.3 49.99,19.18 49.15,19.01 L 49.16,18.93 Z M 49.16,18.93" />
            </g>
            <g id="kazWhizzTop02-group1027">
                <path id="kazWhizzTop02-bezier1361" stroke="none" fill="rgb(0, 0, 0)" d="M 49.81,27.71 C 50.14,27.86 50.48,27.89 50.8,27.88 50.96,27.87 51.12,27.79 51.27,27.83 51.43,27.88 51.6,27.94 51.81,28.1 L 51.83,28.18 C 51.69,28.41 51.5,28.52 51.31,28.58 51.1,28.64 50.89,28.55 50.7,28.48 50.31,28.34 49.96,28.1 49.76,27.77 L 49.81,27.71 Z M 49.81,27.71" />
            </g>
            <g id="kazWhizzTop02-group1028">
                <path id="kazWhizzTop02-bezier1362" stroke="none" fill="rgb(0, 0, 0)" d="M 49.51,33.4 C 49.81,33.1 50.15,32.83 50.53,32.62 50.71,32.51 50.91,32.36 51.16,32.37 51.39,32.38 51.7,32.45 51.84,32.73 L 51.81,32.8 C 51.57,32.93 51.45,33.03 51.28,33.11 51.13,33.18 50.93,33.15 50.74,33.18 50.36,33.25 49.96,33.35 49.55,33.46 L 49.51,33.4 Z M 49.51,33.4" />
            </g>
            <g id="kazWhizzTop02-group1029">
                <path id="kazWhizzTop02-bezier1363" stroke="none" fill="rgb(0, 0, 0)" d="M 120.52,14.81 C 120.32,14.19 120.18,13.54 120.18,12.86 120.17,12.52 120.15,12.14 120.38,11.79 120.57,11.42 121.19,11.19 121.49,11.48 L 121.49,11.55 C 121.14,11.74 121.12,11.91 121.04,12.14 120.98,12.36 120.84,12.62 120.77,12.92 120.65,13.51 120.61,14.16 120.59,14.8 L 120.52,14.81 Z M 120.52,14.81" />
            </g>
            <g id="kazWhizzTop02-group1030">
                <path id="kazWhizzTop02-bezier1364" stroke="none" fill="rgb(0, 0, 0)" d="M 100.46,47.51 C 99.77,47.62 99.09,47.69 98.39,47.72 98.05,47.75 97.69,47.81 97.35,47.73 97.01,47.64 96.65,47.52 96.36,47.22 L 96.39,47.15 C 96.76,47.05 97.08,47 97.42,46.98 97.75,46.96 98.08,47.07 98.42,47.12 L 100.46,47.44 100.46,47.51 Z M 100.46,47.51" />
            </g>
            <g id="kazWhizzTop02-group1031">
                <path id="kazWhizzTop02-bezier1365" stroke="none" fill="rgb(0, 0, 0)" d="M 100.58,12.68 L 99.21,12.96 C 98.99,13.02 98.78,13.12 98.56,13.1 98.33,13.08 98.13,13.03 97.85,12.92 L 97.82,12.86 C 97.97,12.57 98.22,12.44 98.45,12.36 98.69,12.27 98.94,12.34 99.18,12.36 99.66,12.4 100.12,12.48 100.58,12.6 L 100.58,12.68 Z M 100.58,12.68" />
            </g>
            <g id="kazWhizzTop02-group1032">
                <path id="kazWhizzTop02-bezier1366" stroke="none" fill="rgb(0, 0, 0)" d="M 111.12,32.91 C 111.3,32.93 111.48,33.06 111.61,33.19 111.74,33.34 111.83,33.49 111.92,33.67 L 111.94,33.72 111.91,33.81 C 111.84,34 111.81,34.2 111.67,34.35 111.53,34.48 111.36,34.67 111.09,34.63 L 111.07,34.58 C 111.14,34.39 111.18,34.24 111.25,34.07 111.32,33.91 111.46,33.79 111.56,33.64 L 111.55,33.78 C 111.52,33.64 111.47,33.47 111.4,33.33 111.34,33.18 111.26,33.04 111.1,32.96 L 111.12,32.91 Z M 111.12,32.91" />
            </g>
            <g id="kazWhizzTop02-group1033">
                <path id="kazWhizzTop02-bezier1367" stroke="none" fill="rgb(0, 0, 0)" d="M 49.17,43.09 C 52.15,44.09 55.22,44.83 58.29,45.52 61.37,46.19 64.46,46.79 67.57,47.3 70.67,47.83 73.79,48.26 76.91,48.66 L 86.28,49.88 86.31,49.89 86.33,49.89 C 87.2,50.19 88.19,50.14 89.05,49.77 89.49,49.59 89.9,49.35 90.24,49.02 90.58,48.69 90.87,48.27 90.9,47.79 L 90.97,47.79 C 90.99,48.3 90.73,48.78 90.4,49.16 90.07,49.55 89.66,49.87 89.2,50.1 88.29,50.56 87.19,50.69 86.17,50.42 L 86.22,50.43 C 83.08,50.18 79.94,49.87 76.81,49.41 73.69,48.95 70.58,48.41 67.47,47.84 64.37,47.25 61.28,46.6 58.22,45.85 55.16,45.08 52.11,44.25 49.14,43.16 L 49.17,43.09 Z M 49.17,43.09" />
            </g>
        </g>
    </g>
</svg>
