<?xml version="1.0" encoding="UTF-8"?>
<!DOCTYPE svg PUBLIC "-//W3C//DTD SVG 1.1//EN" "http://www.w3.org/Graphics/SVG/1.1/DTD/svg11.dtd">
<svg version="1.1" xmlns="http://www.w3.org/2000/svg" xmlns:xlink="http://www.w3.org/1999/xlink" width="160" height="160"  xml:space="preserve" id="kazWhixxSide03">
    <!-- Generated by PaintCode - http://www.paintcodeapp.com -->
    <g id="kazWhixxSide03-group">
        <circle id="kazWhixxSide03-oval35" stroke="rgb(0, 0, 0)" stroke-width="2" stroke-miterlimit="10" fill="none" cx="126.88" cy="119.81" r="29" />
        <path id="kazWhixxSide03-bezier785" stroke="rgb(0, 0, 0)" stroke-width="2" stroke-miterlimit="10" fill="none" d="M 56.3,137.34 C 51.01,144.31 42.63,148.81 33.21,148.81 17.19,148.81 4.21,135.82 4.21,119.81 4.21,103.79 17.19,90.81 33.21,90.81 40.8,90.81 47.71,93.72 52.87,98.49" />
        <path id="kazWhixxSide03-bezier786" stroke="rgb(0, 0, 0)" stroke-width="2" stroke-miterlimit="10" fill="none" d="M 60.34,109.53 C 61.54,112.73 62.21,116.19 62.21,119.81 62.21,123.42 61.54,126.89 60.33,130.08" />
        <circle id="kazWhixxSide03-oval36" stroke="rgb(0, 0, 0)" stroke-width="2" stroke-miterlimit="10" fill="none" cx="71.71" cy="126.81" r="8.33" />
        <circle id="kazWhixxSide03-oval37" stroke="rgb(0, 0, 0)" stroke-width="2" stroke-miterlimit="10" fill="none" cx="33.21" cy="119.81" r="2.5" />
        <path id="kazWhixxSide03-bezier787" stroke="rgb(0, 0, 0)" stroke-width="2" stroke-miterlimit="10" fill="none" d="M 53.51,123.5 L 71.71,126.81" />
        <path id="kazWhixxSide03-bezier788" stroke="rgb(0, 0, 0)" stroke-width="2" stroke-miterlimit="10" fill="none" d="M 53.05,77.89 L 33.21,119.81 46.19,122.17" />
        <path id="kazWhixxSide03-bezier789" stroke="rgb(0, 0, 0)" stroke-width="2" stroke-miterlimit="10" fill="none" d="M 105.54,72.64 L 69,72.64" />
        <path id="kazWhixxSide03-bezier790" stroke="rgb(0, 0, 0)" stroke-width="2" stroke-miterlimit="10" fill="none" d="M 112.34,75.31 L 126.88,119.81" />
        <path id="kazWhixxSide03-bezier791" stroke="rgb(0, 0, 0)" stroke-width="2" stroke-miterlimit="10" fill="none" d="M 114.54,82.03 L 78.71,117.3" />
        <path id="kazWhixxSide03-bezier792" stroke="rgb(0, 0, 0)" stroke-width="2" stroke-miterlimit="10" fill="none" d="M 68.38,115.81 L 64.44,101.81" />
        <path id="kazWhixxSide03-bezier793" stroke="rgb(0, 0, 0)" stroke-width="2" stroke-miterlimit="10" fill="none" d="M 43.42,62.46 C 42.43,62.32 41.66,62.06 41.21,61.64 38.38,58.97 34.88,57.3 41.21,57.3" />
        <path id="kazWhixxSide03-bezier794" stroke="rgb(0, 0, 0)" stroke-width="1" stroke-miterlimit="10" fill="none" d="M 47,118.47 L 37.27,118.47" />
        <path id="kazWhixxSide03-bezier795" stroke="rgb(0, 0, 0)" stroke-width="1" stroke-miterlimit="10" fill="none" d="M 66.65,118.47 L 56.56,118.47" />
        <path id="kazWhixxSide03-bezier796" stroke="rgb(0, 0, 0)" stroke-width="1" stroke-miterlimit="10" fill="none" d="M 35.21,123.31 L 43.85,126.23" />
        <path id="kazWhixxSide03-bezier797" stroke="rgb(0, 0, 0)" stroke-width="2" stroke-miterlimit="10" fill="none" d="M 124.96,77.6 C 124.96,77.6 129.12,76.56 129.12,71.06 129.12,65.56 125.29,62.14 118.46,62.14 111.62,62.14 110,62.14 110,62.14" />
        <path id="kazWhixxSide03-bezier798" stroke="rgb(0, 0, 0)" stroke-width="2" stroke-miterlimit="10" fill="none" d="M 81.48,116.88 L 89.31,116.88" />
        <path id="kazWhixxSide03-bezier799" stroke="rgb(0, 0, 0)" stroke-width="2" stroke-miterlimit="10" fill="none" d="M 50.82,135.45 L 58.65,135.45" />
        <g id="kazWhixxSide03-group599">
            <g id="kazWhixxSide03-group600">
                <path id="kazWhixxSide03-bezier800" stroke="none" fill="rgb(0, 0, 0)" d="M 120.94,75.44 C 121.61,76.22 122.28,76.99 122.97,77.72 123.31,78.09 123.73,78.38 124.01,78.77 124.32,79.15 124.52,79.56 124.91,79.89 L 124.91,79.99 C 124.61,80.11 124.27,80.03 124.01,79.91 123.74,79.8 123.51,79.64 123.3,79.48 122.86,79.14 122.62,78.65 122.34,78.22 121.77,77.34 121.28,76.43 120.86,75.49 L 120.94,75.44 Z M 120.94,75.44" />
            </g>
            <g id="kazWhixxSide03-group601">
                <path id="kazWhixxSide03-bezier801" stroke="none" fill="rgb(0, 0, 0)" d="M 125.94,80.08 C 124.68,81.14 123.34,82.13 121.82,82.85 121.06,83.17 120.22,83.5 119.3,83.29 118.43,83.06 117.75,82.42 117.24,81.75 116.23,80.37 115.66,78.77 115.06,77.24 L 115.01,77.12 C 114.99,77.07 114.97,77.01 114.95,76.99 114.92,76.94 114.86,76.86 114.8,76.79 114.69,76.64 114.55,76.5 114.41,76.36 114.13,76.07 113.83,75.8 113.53,75.53 112.91,75 112.27,74.48 111.63,73.98 109.03,71.97 106.29,70.14 103.62,68.21 102.29,67.24 100.94,66.3 99.6,65.35 98.93,64.87 98.25,64.4 97.57,63.95 96.89,63.48 96.2,63.02 95.48,62.65 L 95.51,62.55 C 97.11,63.08 98.53,63.95 99.97,64.76 101.41,65.59 102.8,66.49 104.19,67.39 106.95,69.22 109.57,71.24 112.13,73.36 112.77,73.89 113.4,74.42 114.01,74.99 114.32,75.28 114.62,75.57 114.91,75.88 115.06,76.04 115.2,76.2 115.33,76.38 115.4,76.48 115.46,76.56 115.54,76.69 115.58,76.76 115.58,76.8 115.61,76.85 L 115.67,77.01 C 116.22,78.56 116.73,80.14 117.64,81.46 118.09,82.1 118.67,82.68 119.41,82.9 120.13,83.11 120.96,82.86 121.7,82.57 123.2,81.94 124.58,81.01 125.88,80 L 125.94,80.08 Z M 125.94,80.08" />
            </g>
            <g id="kazWhixxSide03-group602">
                <path id="kazWhixxSide03-bezier802" stroke="none" fill="rgb(0, 0, 0)" d="M 94.19,61.68 C 93.39,61.38 92.61,60.66 92.56,59.69 92.46,58.87 92.2,58.02 91.99,57.19 91.56,55.51 91.09,53.84 90.62,52.17 90.14,50.51 89.59,48.86 89.2,47.17 88.8,45.49 88.49,43.77 88.17,42.08 L 88.25,42.03 C 88.72,42.81 89,43.63 89.32,44.44 89.64,45.25 89.9,46.08 90.16,46.91 90.68,48.57 91.01,50.28 91.39,51.98 91.77,53.67 92.14,55.37 92.48,57.08 92.63,57.94 92.82,58.77 92.86,59.68 92.83,60.5 93.47,61.23 94.23,61.59 L 94.19,61.68 Z M 94.19,61.68" />
            </g>
            <g id="kazWhixxSide03-group603">
                <path id="kazWhixxSide03-bezier803" stroke="none" fill="rgb(0, 0, 0)" d="M 87.13,41.47 C 88.72,40.53 90.43,39.76 92.22,39.23 94.01,38.7 95.89,38.39 97.81,38.49 L 97.28,39.06 C 97.04,38.03 96.66,36.94 96.31,35.88 95.94,34.81 95.56,33.74 95.15,32.65 L 95.24,32.6 C 96,33.49 96.62,34.49 97.13,35.54 97.64,36.6 98.07,37.67 98.24,38.91 L 98.34,39.56 97.71,39.47 C 95.96,39.21 94.13,39.38 92.36,39.78 90.59,40.19 88.84,40.76 87.18,41.56 L 87.13,41.47 Z M 87.13,41.47" />
            </g>
            <g id="kazWhixxSide03-group604">
                <path id="kazWhixxSide03-bezier804" stroke="none" fill="rgb(0, 0, 0)" d="M 97.39,40.52 C 98.17,42.99 98.78,45.52 99.21,48.09 99.44,49.37 99.68,50.66 99.69,51.97 99.69,53.28 99.6,54.6 99.25,55.88 L 99.15,55.87 C 98.95,54.57 98.83,53.3 98.69,52.03 98.55,50.76 98.53,49.47 98.42,48.19 98.16,45.64 97.79,43.08 97.29,40.55 L 97.39,40.52 Z M 97.39,40.52" />
            </g>
            <g id="kazWhixxSide03-group605">
                <path id="kazWhixxSide03-bezier805" stroke="none" fill="rgb(0, 0, 0)" d="M 99.93,56.53 C 102.47,57.37 104.73,59.08 106.34,61.23 108.04,63.25 109.94,65.13 111.85,66.97 113.77,68.8 115.76,70.57 117.75,72.29 118.24,72.72 118.75,73.15 119.26,73.47 119.71,73.74 120.36,73.79 121.01,73.86 121.66,73.92 122.4,73.98 123.05,74.32 123.68,74.66 124.16,75.19 124.51,75.77 L 124.43,75.83 C 123.97,75.35 123.46,74.93 122.86,74.74 122.28,74.52 121.65,74.54 120.99,74.56 120.32,74.58 119.58,74.58 118.84,74.23 118.19,73.88 117.66,73.47 117.12,73.07 114.99,71.39 113.14,69.46 111.28,67.54 109.43,65.61 107.6,63.66 105.95,61.54 104.47,59.35 102.37,57.59 99.9,56.62 L 99.93,56.53 Z M 99.93,56.53" />
            </g>
            <g id="kazWhixxSide03-group606">
                <path id="kazWhixxSide03-bezier806" stroke="none" fill="rgb(0, 0, 0)" d="M 100.85,29.42 C 101.56,30.42 102.49,31.25 103.52,31.86 104.55,32.49 105.67,32.84 106.88,32.97 108.08,33.15 109.3,33.18 110.44,33.17 111.57,33.15 112.74,32.91 113.02,31.6 L 113.12,31.6 C 113.27,32.22 113.04,33.03 112.43,33.46 111.86,33.91 111.17,34.08 110.52,34.17 109.2,34.33 107.95,34.02 106.74,33.76 105.51,33.52 104.25,33.03 103.24,32.27 102.23,31.51 101.38,30.56 100.77,29.47 L 100.85,29.42 Z M 100.85,29.42" />
            </g>
            <g id="kazWhixxSide03-group607">
                <path id="kazWhixxSide03-bezier807" stroke="none" fill="rgb(0, 0, 0)" d="M 112.95,28.49 C 113.58,28.34 114.24,28.1 114.66,27.66 114.87,27.44 114.97,27.16 114.92,26.89 114.89,26.63 114.71,26.35 114.56,26.04 113.98,24.83 113.42,23.61 113,22.31 112.8,21.65 112.59,20.99 112.6,20.2 112.65,19.56 112.59,18.99 112.47,18.37 112.22,17.18 111.83,15.89 110.69,15.22 L 110.71,15.12 C 111.43,15.17 112.06,15.67 112.5,16.22 112.95,16.79 113.24,17.45 113.44,18.14 113.53,18.48 113.59,18.83 113.63,19.2 113.65,19.38 113.64,19.56 113.64,19.75 113.63,19.93 113.59,20.16 113.59,20.27 113.52,20.81 113.64,21.47 113.77,22.09 114.07,23.35 114.53,24.6 115.01,25.83 115.12,26.14 115.29,26.44 115.32,26.85 115.36,27.25 115.15,27.64 114.87,27.87 114.31,28.34 113.63,28.5 112.97,28.59 L 112.95,28.49 Z M 112.95,28.49" />
            </g>
            <g id="kazWhixxSide03-group608">
                <path id="kazWhixxSide03-bezier808" stroke="none" fill="rgb(0, 0, 0)" d="M 104.3,26.81 C 103.76,26.41 103.26,25.94 102.84,25.38 102.63,25.11 102.35,24.83 102.31,24.43 102.26,24.06 102.33,23.54 102.74,23.31 L 102.83,23.35 C 102.98,23.73 103.14,23.9 103.27,24.15 103.41,24.38 103.42,24.7 103.54,24.99 103.77,25.57 104.06,26.16 104.38,26.74 L 104.3,26.81 Z M 104.3,26.81" />
            </g>
            <g id="kazWhixxSide03-group609">
                <path id="kazWhixxSide03-bezier809" stroke="none" fill="rgb(0, 0, 0)" d="M 97.11,33.96 C 97.9,33.55 98.71,33.2 99.56,32.92 99.99,32.78 100.41,32.57 100.88,32.59 101.33,32.61 101.87,32.68 102.25,33.07 L 102.22,33.17 C 101.76,33.33 101.4,33.48 100.99,33.58 100.6,33.7 100.16,33.65 99.73,33.7 98.88,33.8 98.01,33.92 97.14,34.05 L 97.11,33.96 Z M 97.11,33.96" />
            </g>
            <g id="kazWhixxSide03-group610">
                <path id="kazWhixxSide03-bezier810" stroke="none" fill="rgb(0, 0, 0)" d="M 86.06,25.42 C 83.84,25.52 81.6,25.52 79.4,25.73 77.2,26.01 75.03,26.44 72.88,26.99 70.73,27.51 68.65,28.26 66.51,28.88 64.37,29.43 62.18,30.13 59.89,29.99 L 59.88,29.89 C 60.97,29.67 62.01,29.32 63.06,28.95 64.11,28.62 65.15,28.21 66.22,27.9 68.35,27.24 70.54,26.75 72.73,26.29 74.92,25.85 77.14,25.51 79.37,25.4 81.61,25.29 83.83,25.34 86.06,25.32 L 86.06,25.42 Z M 86.06,25.42" />
            </g>
            <g id="kazWhixxSide03-group611">
                <path id="kazWhixxSide03-bezier811" stroke="none" fill="rgb(0, 0, 0)" d="M 59.15,30.73 C 60.49,33.1 61.76,35.51 62.91,37.99 63.48,39.23 64.02,40.49 64.49,41.78 64.96,43.07 65.4,44.38 65.56,45.81 L 64.93,45.46 C 66.94,44.41 69,43.47 71.17,42.81 72.26,42.49 73.35,42.18 74.49,42.03 75.61,41.86 76.79,41.77 77.89,42.08 L 77.88,42.18 C 76.76,42.13 75.68,42.38 74.62,42.66 73.56,42.97 72.51,43.3 71.47,43.71 69.41,44.5 67.34,45.33 65.32,46.24 L 64.73,46.51 64.69,45.88 C 64.61,44.6 64.24,43.28 63.83,42 63.42,40.72 62.94,39.46 62.42,38.2 61.4,35.69 60.28,33.21 59.06,30.78 L 59.15,30.73 Z M 59.15,30.73" />
            </g>
            <g id="kazWhixxSide03-group612">
                <path id="kazWhixxSide03-bezier812" stroke="none" fill="rgb(0, 0, 0)" d="M 79.73,42.8 C 80.22,43.1 80.76,43.31 81.3,43.46 81.84,43.63 82.39,43.73 82.94,43.75 83.5,43.79 84.03,43.66 84.57,43.67 85.12,43.67 85.67,43.65 86.31,43.71 L 86.34,43.8 C 85.88,44.26 85.3,44.52 84.69,44.66 84.07,44.81 83.43,44.67 82.83,44.54 81.63,44.28 80.51,43.71 79.66,42.87 L 79.73,42.8 Z M 79.73,42.8" />
            </g>
            <g id="kazWhixxSide03-group613">
                <path id="kazWhixxSide03-bezier813" stroke="none" fill="rgb(0, 0, 0)" d="M 58.61,32.89 C 57.25,33.85 55.83,34.73 54.35,35.5 53.61,35.89 52.87,36.34 52.04,36.54 51.22,36.74 50.31,36.89 49.45,36.58 L 49.46,36.48 C 50.27,36.23 50.97,35.9 51.72,35.59 52.45,35.27 53.25,35.08 54.02,34.78 55.54,34.18 57.06,33.51 58.56,32.8 L 58.61,32.89 Z M 58.61,32.89" />
            </g>
            <g id="kazWhixxSide03-group614">
                <path id="kazWhixxSide03-bezier814" stroke="none" fill="rgb(0, 0, 0)" d="M 42.49,55.94 C 41.42,54.47 40.62,52.79 40.19,51.01 39.98,50.12 39.82,49.21 39.84,48.27 39.85,47.35 40.02,46.42 40.3,45.54 40.86,43.77 41.85,42.17 43.01,40.74 44.18,39.31 45.49,38.04 46.98,36.91 L 47.26,36.7 47.52,36.99 C 48.5,38.1 49.75,39.06 51.05,39.82 51.71,40.19 52.39,40.53 53.1,40.82 L 54.18,41.22 C 54.56,41.37 54.95,41.55 55.3,41.74 56.75,42.49 58,43.51 59.18,44.57 60.36,45.64 61.41,46.82 62.39,48.07 L 62.5,48.21 62.42,48.34 C 62.08,48.88 61.71,49.39 61.31,49.87 60.9,50.34 60.46,50.83 59.85,51.08 L 59.81,50.99 C 60.34,50.69 60.71,50.18 61.06,49.69 61.41,49.18 61.72,48.64 61.99,48.11 L 62.02,48.38 C 60.96,47.25 59.8,46.2 58.62,45.21 57.43,44.23 56.17,43.34 54.83,42.65 54.17,42.29 53.48,42.09 52.7,41.76 51.96,41.44 51.24,41.07 50.56,40.64 49.19,39.77 47.95,38.76 46.89,37.48 L 47.44,37.56 C 46.01,38.58 44.67,39.81 43.51,41.16 42.35,42.51 41.36,44.02 40.77,45.7 40.47,46.53 40.28,47.4 40.24,48.29 40.19,49.17 40.31,50.06 40.48,50.94 40.84,52.7 41.56,54.38 42.58,55.88 L 42.49,55.94 Z M 42.49,55.94" />
            </g>
            <g id="kazWhixxSide03-group615">
                <path id="kazWhixxSide03-bezier815" stroke="none" fill="rgb(0, 0, 0)" d="M 78.93,74.5 C 78.57,75.49 78.25,76.49 78.07,77.51 77.9,78.51 77.95,79.58 77.92,80.62 77.87,82.72 77.83,84.82 77.75,86.93 77.67,89.03 77.61,91.14 77.28,93.23 76.9,95.3 76.56,97.46 75.42,99.31 L 75.33,99.26 C 75.91,97.26 76.09,95.18 76.29,93.11 L 76.95,86.88 C 77.13,84.79 77.27,82.69 77.42,80.6 77.52,79.55 77.53,78.5 77.77,77.45 78.03,76.41 78.42,75.42 78.84,74.46 L 78.93,74.5 Z M 78.93,74.5" />
            </g>
            <g id="kazWhixxSide03-group616">
                <path id="kazWhixxSide03-bezier816" stroke="none" fill="rgb(0, 0, 0)" d="M 80.28,71.39 L 80.74,70.42 C 80.86,70.1 80.96,69.74 80.91,69.44 80.88,69.29 80.83,69.24 80.68,69.19 L 80.17,69.03 79.14,68.73 C 77.77,68.31 76.4,67.92 75.01,67.57 73.63,67.22 72.23,66.98 70.86,66.61 69.48,66.25 68.13,65.9 66.71,65.58 L 66.71,65.48 C 68.17,65.25 69.64,65.4 71.07,65.63 72.5,65.87 73.87,66.36 75.24,66.81 76.6,67.26 77.96,67.75 79.3,68.27 L 80.3,68.67 80.8,68.88 C 81,68.93 81.22,69.19 81.2,69.4 81.23,70.24 80.72,70.82 80.37,71.43 L 80.28,71.39 Z M 80.28,71.39" />
            </g>
            <g id="kazWhixxSide03-group617">
                <path id="kazWhixxSide03-bezier817" stroke="none" fill="rgb(0, 0, 0)" d="M 62.3,49.5 C 67.21,50.53 72.04,51.99 76.67,53.98 78.99,54.97 81.29,56.05 83.39,57.47 85.47,58.91 87.46,60.54 89,62.55 L 88.93,62.62 C 86.99,61.02 84.99,59.57 82.85,58.31 80.73,57.03 78.59,55.78 76.34,54.71 74.09,53.64 71.78,52.69 69.43,51.85 67.08,51 64.7,50.24 62.28,49.6 L 62.3,49.5 Z M 62.3,49.5" />
            </g>
            <g id="kazWhixxSide03-group618">
                <path id="kazWhixxSide03-bezier818" stroke="none" fill="rgb(0, 0, 0)" d="M 89.38,74.48 C 89.14,75.68 88.9,76.88 88.78,78.09 88.74,78.4 88.79,78.66 88.76,79.01 88.72,79.33 88.65,79.63 88.58,79.93 88.44,80.53 88.28,81.13 88.11,81.72 87.44,84.08 86.69,86.42 85.95,88.75 L 83.75,95.77 82.64,99.26 C 82.29,100.42 81.84,101.6 81.61,102.71 L 81.49,103.31 80.99,103.03 C 80.1,102.52 79.18,102 78.25,101.54 77.78,101.32 77.31,101.1 76.82,100.92 76.35,100.76 75.82,100.55 75.36,100.7 L 75.3,100.61 C 75.83,100.33 76.41,100.49 76.92,100.57 77.45,100.68 77.96,100.85 78.46,101.03 79.47,101.39 80.44,101.8 81.4,102.29 L 80.78,102.61 C 80.98,101.3 81.31,100.15 81.67,98.96 82.02,97.78 82.42,96.62 82.82,95.46 L 85.29,88.53 C 86.11,86.22 86.93,83.91 87.7,81.59 87.89,81.01 88.08,80.43 88.25,79.84 88.33,79.55 88.41,79.26 88.46,78.97 88.5,78.72 88.47,78.35 88.52,78.06 88.7,76.83 88.99,75.64 89.29,74.45 L 89.38,74.48 Z M 89.38,74.48" />
            </g>
            <g id="kazWhixxSide03-group619">
                <path id="kazWhixxSide03-bezier819" stroke="none" fill="rgb(0, 0, 0)" d="M 90.08,71.16 L 90.29,70.01 C 90.33,69.81 90.37,69.64 90.33,69.44 90.32,69.24 90.32,69.04 90.32,68.84 L 90.32,68.84 90.32,68.81 C 90.58,67.83 90.54,66.83 90.39,65.89 90.27,64.94 90,64.01 89.55,63.04 L 89.62,62.97 C 90.58,63.55 91.17,64.62 91.41,65.72 91.61,66.85 91.35,67.99 91.01,69.01 L 91.01,68.98 C 90.93,69.16 90.87,69.34 90.77,69.52 90.67,69.7 90.61,69.9 90.55,70.08 L 90.18,71.18 90.08,71.16 Z M 90.08,71.16" />
            </g>
            <g id="kazWhixxSide03-group620">
                <path id="kazWhixxSide03-bezier820" stroke="none" fill="rgb(0, 0, 0)" d="M 73.6,106.55 L 74.32,104.27 C 74.44,103.9 74.47,103.49 74.66,103.17 74.84,102.82 75.08,102.55 75.31,102.19 L 75.41,102.17 C 75.74,102.61 75.66,103.1 75.61,103.5 75.53,103.92 75.25,104.25 75.05,104.6 74.64,105.3 74.19,105.96 73.69,106.6 L 73.6,106.55 Z M 73.6,106.55" />
            </g>
            <g id="kazWhixxSide03-group621">
                <path id="kazWhixxSide03-bezier821" stroke="none" fill="rgb(0, 0, 0)" d="M 78.56,114.99 C 77.27,114.67 75.95,114.37 74.65,114.32 73.35,114.35 71.89,114.31 70.59,113.57 69.94,113.23 69.34,112.44 69.35,111.58 69.34,110.74 69.74,110.04 70.12,109.47 70.89,108.36 71.77,107.31 72.83,106.46 L 72.91,106.52 C 72.27,107.72 71.6,108.85 70.97,110 70.64,110.55 70.38,111.09 70.34,111.59 70.29,112.09 70.55,112.55 71.03,112.9 71.51,113.23 72.12,113.45 72.74,113.59 73.38,113.74 73.99,113.76 74.69,113.82 76.06,114.01 77.33,114.45 78.59,114.9 L 78.56,114.99 Z M 78.56,114.99" />
            </g>
            <g id="kazWhixxSide03-group622">
                <path id="kazWhixxSide03-bezier822" stroke="none" fill="rgb(0, 0, 0)" d="M 74.44,107.43 C 75.01,107.88 75.63,108.25 76.24,108.5 76.56,108.62 76.89,108.62 77.16,108.77 77.44,108.9 77.72,109.03 78.11,109.25 L 78.12,109.35 C 77.8,109.68 77.34,109.77 76.93,109.74 76.5,109.71 76.16,109.42 75.85,109.19 75.22,108.73 74.73,108.14 74.36,107.5 L 74.44,107.43 Z M 74.44,107.43" />
            </g>
            <g id="kazWhixxSide03-group623">
                <path id="kazWhixxSide03-bezier823" stroke="none" fill="rgb(0, 0, 0)" d="M 85.92,112.19 C 86.1,112.29 86.29,112.38 86.48,112.45 86.66,112.52 86.85,112.51 87.08,112.55 87.51,112.61 87.93,112.71 88.34,112.84 89.15,113.12 89.96,113.43 90.7,114.03 90.88,114.18 91.06,114.36 91.2,114.61 91.27,114.75 91.34,114.89 91.36,115.06 91.38,115.2 91.39,115.3 91.4,115.44 91.4,115.57 91.39,115.72 91.34,115.9 91.28,116.08 91.15,116.29 90.98,116.4 90.64,116.63 90.38,116.64 90.14,116.66 89.21,116.68 88.41,116.53 87.56,116.27 L 87.56,116.17 C 88.39,115.88 89.28,115.81 90.02,115.67 90.19,115.64 90.36,115.58 90.37,115.56 90.35,115.59 90.39,115.59 90.41,115.41 90.42,115.34 90.43,115.23 90.43,115.16 90.44,115.12 90.43,115.06 90.41,115.01 90.36,114.88 90.26,114.74 90.14,114.61 89.63,114.07 88.89,113.65 88.16,113.3 87.79,113.13 87.41,112.96 87.01,112.84 86.84,112.78 86.6,112.75 86.4,112.63 86.21,112.53 86.03,112.4 85.87,112.28 L 85.92,112.19 Z M 85.92,112.19" />
            </g>
            <g id="kazWhixxSide03-group624">
                <path id="kazWhixxSide03-bezier824" stroke="none" fill="rgb(0, 0, 0)" d="M 79.69,108.37 C 79.95,108.02 80.24,107.68 80.74,107.52 80.99,107.44 81.33,107.49 81.57,107.67 81.82,107.88 81.9,107.98 82.07,108.12 82.37,108.4 82.75,108.61 82.97,108.95 83.21,109.29 83.42,109.66 83.53,110.15 L 83.46,110.22 C 82.97,110.12 82.59,109.9 82.25,109.65 81.91,109.39 81.72,109 81.47,108.65 L 81.15,108.17 C 81.07,108.07 80.97,108.01 80.81,108.01 80.49,107.99 80.09,108.2 79.77,108.43 L 79.69,108.37 Z M 79.69,108.37" />
            </g>
            <g id="kazWhixxSide03-group625">
                <path id="kazWhixxSide03-bezier825" stroke="none" fill="rgb(0, 0, 0)" d="M 78.77,108 C 78.7,107.43 78.68,106.87 78.74,106.29 78.76,106.01 78.72,105.69 78.9,105.42 79,105.29 79.1,105.16 79.26,105.05 79.39,104.95 79.65,104.83 79.85,104.94 L 79.87,105.04 C 79.79,105.34 79.89,105.55 79.83,105.8 79.81,106.04 79.62,106.24 79.51,106.49 79.3,106.98 79.09,107.49 78.87,108.01 L 78.77,108 Z M 78.77,108" />
            </g>
            <g id="kazWhixxSide03-group626">
                <path id="kazWhixxSide03-bezier826" stroke="none" fill="rgb(0, 0, 0)" d="M 52.44,126.77 C 53.54,127.86 54.79,128.83 56.19,129.42 56.87,129.71 57.65,129.83 58.4,130.04 59.16,130.23 59.92,130.44 60.68,130.68 61.43,130.93 62.19,131.19 62.93,131.59 63.29,131.81 63.67,132.04 63.99,132.48 64.14,132.71 64.26,132.99 64.24,133.36 64.24,133.41 64.2,133.67 64.13,133.8 64.07,133.95 63.97,134.08 63.87,134.18 63.45,134.58 63,134.69 62.59,134.79 62.17,134.87 61.76,134.91 61.36,134.9 60.55,134.91 59.76,134.82 58.99,134.67 L 58.99,134.57 C 59.77,134.43 60.54,134.36 61.29,134.21 61.66,134.13 62.03,134.06 62.36,133.94 62.69,133.83 63.02,133.67 63.14,133.5 63.17,133.46 63.2,133.43 63.2,133.4 63.22,133.35 63.21,133.42 63.22,133.28 63.22,133.26 63.2,133.15 63.13,133.06 62.99,132.86 62.72,132.63 62.42,132.44 61.82,132.04 61.12,131.73 60.41,131.44 59.69,131.16 58.96,130.91 58.22,130.66 57.49,130.41 56.72,130.24 55.98,129.87 54.55,129.12 53.38,128.03 52.36,126.84 L 52.44,126.77 Z M 52.44,126.77" />
            </g>
            <g id="kazWhixxSide03-group627">
                <path id="kazWhixxSide03-bezier827" stroke="none" fill="rgb(0, 0, 0)" d="M 50.12,134.33 C 48.89,134.12 47.64,133.98 46.4,133.92 45.78,133.87 45.19,133.93 44.5,133.85 43.84,133.76 43.08,133.5 42.64,132.81 42.2,132.12 42.26,131.29 42.45,130.63 42.63,130.03 42.82,129.44 43.04,128.85 43.28,128.26 43.52,127.66 43.87,127.1 44.04,126.82 44.22,126.55 44.46,126.29 44.69,126.07 45.01,125.79 45.38,125.86 L 45.38,125.96 C 45.11,126.05 44.95,126.3 44.83,126.56 44.69,126.82 44.59,127.1 44.5,127.39 44.32,127.97 44.15,128.56 43.99,129.16 43.81,129.75 43.63,130.37 43.39,130.95 43.18,131.45 43.12,131.99 43.33,132.4 43.53,132.82 44.05,133.09 44.61,133.21 45.16,133.32 45.83,133.32 46.45,133.42 47.71,133.61 48.93,133.89 50.15,134.23 L 50.12,134.33 Z M 50.12,134.33" />
            </g>
            <g id="kazWhixxSide03-group628">
                <path id="kazWhixxSide03-bezier828" stroke="none" fill="rgb(0, 0, 0)" d="M 53.69,122.36 L 50.36,121.53 48.69,121.14 C 48.14,121.02 47.56,120.88 47.04,120.83 L 46.78,120.81 46.88,120.56 C 47.88,118.09 48.86,115.61 49.77,113.1 50.22,111.85 50.68,110.59 51.06,109.33 51.44,108.06 51.74,106.77 52.03,105.47 52.59,102.87 53.07,100.24 53.89,97.66 54.29,96.37 54.75,95.08 55.44,93.88 56.1,92.71 57.06,91.56 58.36,91.09 L 58.4,91.19 C 57.24,91.85 56.52,92.99 55.98,94.16 55.46,95.36 55.08,96.62 54.76,97.9 54.14,100.47 53.62,103.09 52.93,105.69 52.6,106.99 52.23,108.28 51.8,109.56 51.37,110.85 50.88,112.09 50.39,113.34 49.39,115.82 48.34,118.29 47.23,120.72 L 47.06,120.45 C 47.67,120.54 48.21,120.69 48.77,120.84 L 50.42,121.29 53.72,122.26 53.69,122.36 Z M 53.69,122.36" />
            </g>
            <g id="kazWhixxSide03-group629">
                <path id="kazWhixxSide03-bezier829" stroke="none" fill="rgb(0, 0, 0)" d="M 57.92,88.73 C 57.26,85.94 56.47,83.17 55.4,80.53 54.85,79.23 54.26,77.89 53.36,76.88 53.14,76.62 52.89,76.48 52.57,76.18 52.29,75.92 52.05,75.64 51.81,75.36 51.34,74.79 50.92,74.21 50.5,73.61 48.86,71.22 47.35,68.76 46.04,66.2 45.4,64.9 44.76,63.62 44.18,62.3 43.62,60.96 43,59.67 42.67,58.23 L 42.77,58.22 C 43.03,58.85 43.41,59.49 43.76,60.11 L 44.81,61.98 46.92,65.72 C 48.34,68.21 49.64,70.76 51.17,73.17 51.55,73.76 51.95,74.35 52.38,74.91 52.59,75.18 52.81,75.45 53.05,75.69 53.24,75.9 53.61,76.15 53.85,76.45 54.82,77.63 55.35,79 55.86,80.35 56.82,83.08 57.48,85.89 58.02,88.71 L 57.92,88.73 Z M 57.92,88.73" />
            </g>
            <g id="kazWhixxSide03-group630">
                <path id="kazWhixxSide03-bezier830" stroke="none" fill="rgb(0, 0, 0)" d="M 60.6,51.82 C 62.03,54.43 63.21,57.16 64.29,59.93 65.34,62.71 66.25,65.54 67.03,68.41 67.81,71.28 68.52,74.19 68.92,77.14 69.29,80.1 69.54,83.07 69.43,86.05 L 69.33,86.06 C 68.86,83.12 68.48,80.2 67.93,77.3 67.41,74.4 66.93,71.49 66.25,68.61 65.58,65.74 64.77,62.89 63.82,60.1 62.87,57.3 61.82,54.52 60.51,51.87 L 60.6,51.82 Z M 60.6,51.82" />
            </g>
            <g id="kazWhixxSide03-group631">
                <path id="kazWhixxSide03-bezier831" stroke="none" fill="rgb(0, 0, 0)" d="M 69.89,86.8 C 70.13,87.89 70.1,89.06 69.79,90.18 69.63,90.73 69.48,91.33 69.09,91.78 68.7,92.23 68.22,92.61 67.63,92.78 L 67.56,92.7 C 67.78,92.13 68.03,91.68 68.26,91.23 68.48,90.77 68.82,90.38 69.04,89.9 69.26,89.43 69.43,88.93 69.56,88.41 69.69,87.9 69.78,87.36 69.79,86.81 L 69.89,86.8 Z M 69.89,86.8" />
            </g>
            <g id="kazWhixxSide03-group632">
                <path id="kazWhixxSide03-bezier832" stroke="none" fill="rgb(0, 0, 0)" d="M 66.69,94.24 L 63.74,101.36 62.21,104.9 61.4,106.66 C 61.26,106.95 61.13,107.24 60.96,107.54 60.83,107.75 60.79,107.79 60.71,107.95 L 60.5,108.36 C 59.39,110.65 58.43,113.04 57.33,115.35 L 55.68,118.82 C 55.14,119.98 54.56,121.13 54.1,122.32 L 54,122.3 C 54.46,119.72 55.49,117.35 56.42,114.95 57.41,112.57 58.56,110.28 59.79,107.99 L 60.03,107.56 C 60.1,107.43 60.26,107.22 60.3,107.15 60.46,106.9 60.61,106.61 60.75,106.33 L 61.62,104.62 63.29,101.16 66.6,94.2 66.69,94.24 Z M 66.69,94.24" />
            </g>
            <g id="kazWhixxSide03-group633">
                <path id="kazWhixxSide03-bezier833" stroke="none" fill="rgb(0, 0, 0)" d="M 52.76,122.87 C 52.64,123.57 52.5,124.26 52.35,124.94 52.28,125.28 52.29,125.64 52.12,125.94 51.95,126.25 51.75,126.52 51.43,126.81 L 51.33,126.8 C 51.1,126.4 51.12,126 51.16,125.64 51.2,125.28 51.44,124.98 51.6,124.67 51.92,124.04 52.28,123.42 52.67,122.83 L 52.76,122.87 Z M 52.76,122.87" />
            </g>
            <g id="kazWhixxSide03-group634">
                <path id="kazWhixxSide03-bezier834" stroke="none" fill="rgb(0, 0, 0)" d="M 47.68,121.67 C 47.6,122.44 47.49,123.19 47.33,123.94 47.25,124.31 47.25,124.71 47.05,125.05 46.85,125.38 46.61,125.72 46.18,125.94 L 46.09,125.88 C 46.02,125.44 46.04,125.07 46.11,124.7 46.17,124.33 46.41,124.02 46.57,123.68 46.89,123 47.23,122.32 47.59,121.64 L 47.68,121.67 Z M 47.68,121.67" />
            </g>
            <g id="kazWhixxSide03-group635">
                <path id="kazWhixxSide03-bezier835" stroke="none" fill="rgb(0, 0, 0)" d="M 46.15,126.96 C 47.04,127.05 47.93,127.13 48.8,127.19 49.24,127.22 49.68,127.14 50.09,127.24 50.51,127.33 50.89,127.45 51.37,127.61 L 51.4,127.71 C 51.01,128.1 50.49,128.2 50.03,128.24 49.55,128.28 49.11,128.09 48.67,127.98 47.79,127.74 46.94,127.43 46.12,127.05 L 46.15,126.96 Z M 46.15,126.96" />
            </g>
            <g id="kazWhixxSide03-group636">
                <path id="kazWhixxSide03-bezier836" stroke="none" fill="rgb(0, 0, 0)" d="M 110.57,14.73 C 110.43,13.98 109.79,13.41 109.12,13.07 108.43,12.72 107.67,12.53 106.91,12.43 105.38,12.23 103.81,12.31 102.27,12.51 99.18,12.91 96.11,13.6 93.01,14.12 89.91,14.66 86.77,15.15 83.59,15.12 80.43,15.07 77.21,14.68 74.28,13.47 L 74.3,13.38 C 77.38,14.02 80.48,14.25 83.58,14.12 86.68,14.02 89.78,13.76 92.88,13.33 95.98,12.91 99.07,12.32 102.21,12.01 103.79,11.88 105.39,11.86 106.96,12.13 107.74,12.28 108.52,12.5 109.21,12.9 109.9,13.29 110.55,13.9 110.67,14.73 L 110.57,14.73 Z M 110.57,14.73" />
            </g>
            <g id="kazWhixxSide03-group637">
                <path id="kazWhixxSide03-bezier837" stroke="none" fill="rgb(0, 0, 0)" d="M 108.95,21 C 108.39,22.22 107.19,23.09 105.88,23.39 104.55,23.7 103.17,23.53 101.88,23.18 99.38,22.35 96.83,21.85 94.24,21.49 91.65,21.13 89.04,20.99 86.45,20.84 83.84,20.69 81.24,20.66 78.64,21.03 L 78.62,20.93 C 81.12,19.99 83.84,19.87 86.48,19.84 89.13,19.86 91.76,20.23 94.37,20.7 96.96,21.16 99.57,21.78 102.03,22.7 103.25,23.1 104.55,23.33 105.81,23.1 107.06,22.88 108.25,22.11 108.86,20.96 L 108.95,21 Z M 108.95,21" />
            </g>
            <g id="kazWhixxSide03-group638">
                <path id="kazWhixxSide03-bezier838" stroke="none" fill="rgb(0, 0, 0)" d="M 100.46,27.49 C 100.15,26.91 99.8,26.36 99.39,25.86 98.99,25.38 98.5,24.9 97.96,24.76 97.44,24.67 96.74,24.83 96.11,24.9 L 94.15,25.16 C 92.84,25.33 91.51,25.52 90.16,25.37 89.49,25.28 88.81,25.17 88.16,24.92 87.52,24.67 86.88,24.31 86.47,23.76 L 86.53,23.68 C 87.69,24.3 88.96,24.33 90.22,24.37 91.49,24.38 92.78,24.42 94.08,24.37 L 96.04,24.25 97.03,24.2 C 97.37,24.2 97.72,24.16 98.1,24.28 98.83,24.57 99.25,25.14 99.63,25.68 100,26.24 100.3,26.83 100.55,27.45 L 100.46,27.49 Z M 100.46,27.49" />
            </g>
            <g id="kazWhixxSide03-group639">
                <path id="kazWhixxSide03-bezier839" stroke="none" fill="rgb(0, 0, 0)" d="M 106.51,17.33 C 105.88,16.84 105.03,16.68 104.24,16.61 103.44,16.54 102.62,16.58 101.82,16.69 100.23,16.9 98.61,17.32 96.99,17.59 95.36,17.88 93.72,18.2 92.05,18.21 91.21,18.21 90.36,18.18 89.53,18.03 88.7,17.88 87.86,17.66 87.14,17.22 L 87.17,17.13 C 88.79,17.44 90.39,17.33 92,17.21 93.61,17.08 95.24,16.98 96.87,16.8 98.5,16.62 100.1,16.31 101.78,16.19 102.61,16.15 103.45,16.17 104.28,16.31 105.09,16.46 105.94,16.68 106.58,17.26 L 106.51,17.33 Z M 106.51,17.33" />
            </g>
            <g id="kazWhixxSide03-group640">
                <path id="kazWhixxSide03-bezier840" stroke="none" fill="rgb(0, 0, 0)" d="M 94.77,31.33 C 94.16,30.71 93.69,29.95 93.36,29.11 93.2,28.7 92.98,28.27 93.01,27.81 93.03,27.35 93.14,26.89 93.45,26.48 L 93.55,26.49 C 93.79,26.93 93.9,27.32 94.01,27.71 94.12,28.09 94.06,28.5 94.13,28.9 94.26,29.69 94.49,30.5 94.85,31.27 L 94.77,31.33 Z M 94.77,31.33" />
            </g>
            <g id="kazWhixxSide03-group641">
                <path id="kazWhixxSide03-bezier841" stroke="none" fill="rgb(0, 0, 0)" d="M 94.56,26.73 C 95.06,26.56 95.54,26.37 95.96,26.16 96.17,26.05 96.31,25.86 96.48,25.83 96.65,25.76 96.79,25.84 97.08,25.6 L 97.18,25.59 C 97.5,25.87 97.31,26.42 97.06,26.64 96.81,26.9 96.46,26.89 96.19,26.93 95.62,27 95.09,26.95 94.57,26.83 L 94.56,26.73 Z M 94.56,26.73" />
            </g>
        </g>
    </g>
</svg>
