<?xml version="1.0" encoding="UTF-8"?>
<!DOCTYPE svg PUBLIC "-//W3C//DTD SVG 1.1//EN" "http://www.w3.org/Graphics/SVG/1.1/DTD/svg11.dtd">
<svg version="1.1" xmlns="http://www.w3.org/2000/svg" xmlns:xlink="http://www.w3.org/1999/xlink" width="160" height="60"  xml:space="preserve" id="kazWhizzTop07">
    <!-- Generated by PaintCode - http://www.paintcodeapp.com -->
    <g id="kazWhizzTop07-group">
        <path id="kazWhizzTop07-bezier1622" stroke="rgb(0, 0, 0)" stroke-width="2" stroke-miterlimit="10" fill="none" d="M 111.36,30.56 L 156.24,30.56" />
        <path id="kazWhizzTop07-bezier1623" stroke="rgb(0, 0, 0)" stroke-width="2" stroke-miterlimit="10" fill="none" d="M 2.85,30.56 L 32.86,30.56" />
        <path id="kazWhizzTop07-bezier1624" stroke="rgb(0, 0, 0)" stroke-width="2" stroke-miterlimit="10" fill="none" d="M 106.17,18.56 L 106.17,21.43" />
        <path id="kazWhizzTop07-bezier1625" stroke="rgb(0, 0, 0)" stroke-width="2" stroke-miterlimit="10" fill="none" d="M 121.05,13.55 L 127.42,13.55" />
        <path id="kazWhizzTop07-bezier1626" stroke="rgb(0, 0, 0)" stroke-width="2" stroke-miterlimit="10" fill="none" d="M 106.17,41.55 L 106.17,39.68" />
        <path id="kazWhizzTop07-bezier1627" stroke="rgb(0, 0, 0)" stroke-width="2" stroke-miterlimit="10" fill="none" d="M 121.05,46.57 L 127.42,46.57" />
        <path id="kazWhizzTop07-bezier1628" stroke="rgb(0, 0, 0)" stroke-width="2" stroke-miterlimit="10" fill="none" d="M 35.95,26.06 C 35.95,26.06 34.68,27.38 34.68,30.56 34.68,33.74 35.95,34.68 35.95,34.68" />
        <path id="kazWhizzTop07-bezier1629" stroke="rgb(0, 0, 0)" stroke-width="2" stroke-miterlimit="10" fill="none" d="M 125.54,28.14 L 111.03,28.14" />
        <path id="kazWhizzTop07-bezier1630" stroke="rgb(0, 0, 0)" stroke-width="2" stroke-miterlimit="10" fill="none" d="M 125.54,33.01 L 111.03,33.01" />
        <path id="kazWhizzTop07-bezier1631" stroke="rgb(0, 0, 0)" stroke-width="2" stroke-miterlimit="10" fill="none" d="M 33.33,28.14 L 31.62,28.14" />
        <path id="kazWhizzTop07-bezier1632" stroke="rgb(0, 0, 0)" stroke-width="2" stroke-miterlimit="10" fill="none" d="M 33.33,33.01 L 31.62,33.01" />
        <g id="kazWhizzTop07-group1228">
            <g id="kazWhizzTop07-group1229">
                <path id="kazWhizzTop07-bezier1633" stroke="none" fill="rgb(0, 0, 0)" d="M 101.09,40.32 C 99.57,40.48 98.02,40.55 96.48,40.44 94.94,40.29 93.37,40.05 91.93,39.26 91.58,39.08 91.19,38.72 91,38.67 90.76,38.59 90.65,38.63 90.45,38.8 90.07,39.19 89.77,39.91 89.54,40.58 89.04,41.97 88.69,43.45 88.25,44.94 L 88.15,44.93 C 88.05,43.37 88.18,41.82 88.58,40.28 88.83,39.52 89.06,38.73 89.8,38.06 90,37.9 90.26,37.75 90.56,37.71 90.86,37.67 91.16,37.75 91.38,37.86 91.89,38.15 92.02,38.38 92.34,38.57 93.55,39.35 95.05,39.71 96.53,39.94 98.03,40.18 99.56,40.24 101.08,40.22 L 101.09,40.32 Z M 101.09,40.32" />
            </g>
            <g id="kazWhizzTop07-group1230">
                <path id="kazWhizzTop07-bezier1634" stroke="none" fill="rgb(0, 0, 0)" d="M 96.73,21.73 C 98,21.64 99.25,21.66 100.51,21.63 101.79,21.63 103.07,21.85 104.28,22.28 106.7,23.15 108.85,24.95 109.92,27.38 110.46,28.59 110.7,29.94 110.62,31.27 110.53,32.61 110.07,33.91 109.34,35.03 107.86,37.25 105.42,38.71 102.9,39.03 L 102.88,38.93 C 105.22,38.06 107.31,36.57 108.5,34.5 109.72,32.49 110.06,29.93 109.18,27.69 108.31,25.45 106.37,23.67 104.11,22.75 101.83,21.74 99.24,21.89 96.74,21.82 L 96.73,21.73 Z M 96.73,21.73" />
            </g>
            <g id="kazWhizzTop07-group1231">
                <path id="kazWhizzTop07-bezier1635" stroke="none" fill="rgb(0, 0, 0)" d="M 85.23,14.69 C 86.26,14.51 87.47,14.4 88.45,15.09 89.41,15.77 89.84,16.91 90.11,17.96 90.24,18.51 90.32,19.01 90.49,19.49 90.66,19.97 90.88,20.42 91.17,20.81 91.72,21.59 92.66,22.03 93.48,22.07 L 93.38,22.08 C 94.36,21.85 95.27,22.1 96.07,22.34 96.88,22.6 97.63,22.88 98.47,22.96 L 98.48,23.06 C 97.64,23.31 96.73,23.17 95.91,23.08 95.09,22.96 94.3,22.89 93.63,23.07 L 93.57,23.09 93.53,23.09 C 92.18,23.11 91.08,22.3 90.46,21.29 89.82,20.3 89.63,19.11 89.49,18.09 89.31,17.08 88.98,16.05 88.21,15.4 87.44,14.72 86.29,14.7 85.24,14.79 L 85.23,14.69 Z M 85.23,14.69" />
            </g>
            <g id="kazWhizzTop07-group1232">
                <path id="kazWhizzTop07-bezier1636" stroke="none" fill="rgb(0, 0, 0)" d="M 117.72,10.93 C 116.91,11.11 116.1,11.27 115.27,11.38 114.86,11.43 114.44,11.47 114.01,11.47 113.52,11.43 113.21,11.36 112.78,11.38 111.98,11.39 111.18,11.52 110.39,11.59 109.59,11.67 108.79,11.72 108.01,11.99 L 107.97,11.93 C 108.58,11.28 109.46,11.03 110.28,10.84 111.11,10.67 111.97,10.7 112.81,10.78 113.22,10.79 113.71,10.93 114.04,10.98 114.43,11.02 114.84,11.02 115.25,11.01 116.06,11 116.89,10.94 117.71,10.85 L 117.72,10.93 Z M 117.72,10.93" />
            </g>
            <g id="kazWhizzTop07-group1233">
                <path id="kazWhizzTop07-bezier1637" stroke="none" fill="rgb(0, 0, 0)" d="M 106.83,17.7 C 107.75,17.56 108.67,17.39 109.58,17.21 110.49,17.03 111.41,16.85 112.25,16.55 112.63,16.41 113.04,16.13 113.48,15.94 113.91,15.73 114.35,15.57 114.8,15.42 115.25,15.28 115.7,15.15 116.17,15.07 116.64,15 117.11,14.87 117.62,15 L 117.6,15.07 C 116.75,15.32 115.91,15.78 115.06,16.12 114.63,16.29 114.2,16.47 113.77,16.62 113.33,16.76 112.95,16.98 112.44,17.12 111.49,17.37 110.57,17.47 109.64,17.58 108.7,17.67 107.77,17.73 106.84,17.77 L 106.83,17.7 Z M 106.83,17.7" />
            </g>
            <g id="kazWhizzTop07-group1234">
                <path id="kazWhizzTop07-bezier1638" stroke="none" fill="rgb(0, 0, 0)" d="M 109.66,12.18 C 108.75,12.37 107.8,12.22 106.92,11.99 106.09,11.83 105.17,11.95 104.29,12.07 103.4,12.2 102.52,12.42 101.63,12.53 100.73,12.64 99.83,12.74 98.9,12.75 L 98.88,12.67 C 99.72,12.27 100.6,12.01 101.49,11.79 102.39,11.58 103.31,11.52 104.23,11.47 105.15,11.43 106.07,11.37 107.02,11.63 107.86,11.95 108.74,12.19 109.64,12.1 L 109.66,12.18 Z M 109.66,12.18" />
            </g>
            <g id="kazWhizzTop07-group1235">
                <path id="kazWhizzTop07-bezier1639" stroke="none" fill="rgb(0, 0, 0)" d="M 99.65,19.94 C 99.66,18.57 99.29,17.25 98.8,15.99 98.32,14.74 97.71,13.51 97,12.39 L 97.47,12.56 95.52,13.39 C 94.87,13.67 94.22,13.93 93.55,14.17 92.88,14.4 92.21,14.63 91.53,14.83 90.85,15.03 90.17,15.24 89.46,15.39 L 89.42,15.3 C 90.01,14.88 90.63,14.52 91.26,14.18 91.89,13.83 92.53,13.53 93.18,13.24 93.83,12.95 94.5,12.7 95.17,12.47 L 97.2,11.82 97.53,11.71 97.68,11.98 C 98.34,13.23 98.87,14.5 99.27,15.84 99.65,17.17 99.89,18.56 99.75,19.94 L 99.65,19.94 Z M 99.65,19.94" />
            </g>
            <g id="kazWhizzTop07-group1236">
                <path id="kazWhizzTop07-bezier1640" stroke="none" fill="rgb(0, 0, 0)" d="M 100.8,19.94 C 101.6,19.46 102.41,18.99 103.21,18.54 103.61,18.3 103.99,18.03 104.42,17.86 104.86,17.7 105.3,17.57 105.79,17.5 L 105.83,17.56 C 105.54,17.99 105.15,18.28 104.76,18.53 104.37,18.79 103.91,18.92 103.47,19.08 102.6,19.42 101.72,19.73 100.83,20.01 L 100.8,19.94 Z M 100.8,19.94" />
            </g>
            <g id="kazWhizzTop07-group1237">
                <path id="kazWhizzTop07-bezier1641" stroke="none" fill="rgb(0, 0, 0)" d="M 36.94,30.56 C 36.86,28.83 36.86,27.09 36.95,25.35 37.06,23.62 37.19,21.86 37.85,20.16 38.04,19.75 38.27,19.31 38.69,18.99 39.04,18.71 39.5,18.47 39.92,18.32 40.79,18.01 41.69,17.89 42.58,17.86 44.37,17.8 46.12,18 47.86,18.38 L 48.25,18.47 48.25,18.89 C 48.21,20.84 48.08,22.79 47.94,24.73 47.89,25.7 47.79,26.68 47.71,27.65 47.63,28.62 47.51,29.59 47.41,30.56 L 47.31,30.56 C 47.23,29.58 47.18,28.61 47.16,27.63 47.13,26.65 47.1,25.68 47.11,24.7 47.11,22.75 47.12,20.8 47.23,18.85 L 47.61,19.37 C 45.99,18.96 44.28,18.67 42.6,18.66 41.76,18.66 40.92,18.74 40.15,18.99 39.75,19.12 39.42,19.27 39.09,19.51 38.8,19.71 38.58,20.05 38.41,20.42 37.74,21.93 37.52,23.69 37.32,25.38 37.14,27.1 37.05,28.83 37.04,30.56 L 36.94,30.56 Z M 36.94,30.56" />
            </g>
            <g id="kazWhizzTop07-group1238">
                <path id="kazWhizzTop07-bezier1642" stroke="none" fill="rgb(0, 0, 0)" d="M 123.52,12.2 C 123.31,11.7 123.07,11.22 122.76,10.8 122.48,10.36 122.1,10.08 121.64,9.96 121.21,9.86 120.72,10.02 120.2,10.04 119.67,10.06 119.12,10.08 118.56,9.97 L 118.55,9.89 C 119.04,9.6 119.55,9.42 120.09,9.29 120.61,9.18 121.22,9.15 121.83,9.4 122.13,9.53 122.35,9.67 122.59,9.89 122.81,10.12 122.96,10.36 123.09,10.61 123.32,11.12 123.48,11.65 123.59,12.18 L 123.52,12.2 Z M 123.52,12.2" />
            </g>
            <g id="kazWhizzTop07-group1239">
                <path id="kazWhizzTop07-bezier1643" stroke="none" fill="rgb(0, 0, 0)" d="M 118.57,15.09 C 119.03,15.22 119.49,15.31 119.92,15.32 120.14,15.31 120.34,15.23 120.53,15.25 L 121.22,15.34 121.26,15.4 C 121.18,15.71 120.91,15.91 120.64,16 120.36,16.09 120.07,15.99 119.83,15.91 119.32,15.75 118.89,15.48 118.53,15.15 L 118.57,15.09 Z M 118.57,15.09" />
            </g>
            <g id="kazWhizzTop07-group1240">
                <path id="kazWhizzTop07-bezier1644" stroke="none" fill="rgb(0, 0, 0)" d="M 117.71,49.27 C 116.89,49.19 116.06,49.13 115.25,49.11 114.84,49.1 114.43,49.1 114.04,49.14 113.71,49.19 113.22,49.33 112.81,49.35 111.96,49.42 111.11,49.45 110.28,49.28 109.46,49.1 108.58,48.85 107.97,48.2 L 108.01,48.14 C 108.79,48.4 109.59,48.46 110.39,48.54 111.18,48.6 111.98,48.74 112.78,48.75 113.21,48.77 113.52,48.69 114.01,48.66 114.44,48.65 114.86,48.69 115.27,48.74 116.1,48.85 116.91,49.01 117.72,49.19 L 117.71,49.27 Z M 117.71,49.27" />
            </g>
            <g id="kazWhizzTop07-group1241">
                <path id="kazWhizzTop07-bezier1645" stroke="none" fill="rgb(0, 0, 0)" d="M 106.84,42.35 C 107.77,42.39 108.7,42.46 109.63,42.54 110.57,42.65 111.49,42.75 112.44,43 112.95,43.14 113.33,43.36 113.77,43.5 114.2,43.66 114.63,43.83 115.06,44 115.9,44.34 116.75,44.8 117.6,45.05 L 117.62,45.13 C 117.11,45.25 116.64,45.13 116.17,45.06 115.7,44.97 115.25,44.84 114.8,44.71 114.35,44.56 113.91,44.39 113.48,44.18 113.04,43.99 112.63,43.71 112.25,43.57 111.41,43.28 110.49,43.09 109.58,42.91 108.67,42.73 107.75,42.57 106.83,42.42 L 106.84,42.35 Z M 106.84,42.35" />
            </g>
            <g id="kazWhizzTop07-group1242">
                <path id="kazWhizzTop07-bezier1646" stroke="none" fill="rgb(0, 0, 0)" d="M 109.64,48.02 C 108.73,47.71 107.73,47.56 106.82,47.73 106.58,47.77 106.38,47.83 106.14,47.92 105.89,48 105.63,48.04 105.38,48.07 104.88,48.13 104.38,48.14 103.88,48.13 102.89,48.12 101.9,48.08 100.93,47.88 99.97,47.68 99.01,47.42 98.11,47 L 98.12,46.93 C 99.12,46.94 100.08,47.04 101.05,47.14 102.01,47.24 102.96,47.44 103.91,47.54 104.39,47.58 104.87,47.61 105.34,47.59 105.58,47.58 105.8,47.56 106.02,47.5 106.24,47.44 106.52,47.38 106.77,47.36 107.79,47.28 108.78,47.54 109.67,47.95 L 109.64,48.02 Z M 109.64,48.02" />
            </g>
            <g id="kazWhizzTop07-group1243">
                <path id="kazWhizzTop07-bezier1647" stroke="none" fill="rgb(0, 0, 0)" d="M 99.68,41.2 C 99.57,42.25 99.22,43.27 98.74,44.22 98.25,45.17 97.65,46.04 96.93,46.87 L 96.82,46.99 96.63,46.97 C 95.96,46.92 95.31,46.84 94.65,46.76 93.99,46.67 93.33,46.57 92.69,46.4 91.41,46.04 90.15,45.57 89.02,44.82 L 89.06,44.72 C 90.39,44.9 91.65,45.15 92.92,45.4 94.18,45.67 95.44,46.05 96.71,46.25 L 96.41,46.35 C 97.13,45.66 97.79,44.85 98.35,43.99 98.91,43.14 99.36,42.2 99.58,41.18 L 99.68,41.2 Z M 99.68,41.2" />
            </g>
            <g id="kazWhizzTop07-group1244">
                <path id="kazWhizzTop07-bezier1648" stroke="none" fill="rgb(0, 0, 0)" d="M 100.83,40.11 C 101.72,40.4 102.6,40.7 103.47,41.04 103.91,41.21 104.37,41.33 104.76,41.59 105.15,41.85 105.54,42.13 105.83,42.56 L 105.79,42.62 C 105.3,42.55 104.86,42.42 104.42,42.26 103.99,42.1 103.61,41.82 103.21,41.59 102.41,41.13 101.6,40.66 100.8,40.18 L 100.83,40.11 Z M 100.83,40.11" />
            </g>
            <g id="kazWhizzTop07-group1245">
                <path id="kazWhizzTop07-bezier1649" stroke="none" fill="rgb(0, 0, 0)" d="M 37.04,30.56 C 37,32.29 37.05,34.02 37.19,35.73 37.36,37.43 37.55,39.2 38.24,40.68 38.42,41.03 38.66,41.36 38.94,41.51 39.31,41.69 39.67,41.8 40.08,41.89 40.89,42.07 41.73,42.13 42.58,42.14 44.27,42.16 45.99,41.99 47.67,41.75 L 47.23,42.27 C 47.12,40.32 47.11,38.37 47.11,36.42 47.1,35.45 47.13,34.47 47.16,33.49 47.18,32.52 47.23,31.54 47.31,30.56 L 47.41,30.56 C 47.52,31.53 47.63,32.5 47.71,33.48 47.79,34.45 47.89,35.42 47.94,36.39 48.08,38.34 48.21,40.28 48.25,42.23 L 48.25,42.7 47.81,42.75 C 46.06,42.96 44.32,43.03 42.55,42.94 41.67,42.9 40.79,42.81 39.91,42.58 39.49,42.47 39.02,42.31 38.62,42.08 38.15,41.79 37.89,41.36 37.69,40.95 36.98,39.25 36.9,37.49 36.82,35.76 36.76,34.02 36.81,32.29 36.94,30.56 L 37.04,30.56 Z M 37.04,30.56" />
            </g>
            <g id="kazWhizzTop07-group1246">
                <path id="kazWhizzTop07-bezier1650" stroke="none" fill="rgb(0, 0, 0)" d="M 120.34,45.32 C 120.36,45.97 120.4,46.61 120.52,47.21 120.59,47.5 120.73,47.76 120.79,47.99 120.87,48.21 120.89,48.38 121.24,48.57 L 121.24,48.64 C 120.94,48.94 120.32,48.7 120.13,48.34 119.9,47.99 119.92,47.6 119.93,47.26 119.93,46.58 120.07,45.94 120.27,45.31 L 120.34,45.32 Z M 120.34,45.32" />
            </g>
            <g id="kazWhizzTop07-group1247">
                <path id="kazWhizzTop07-bezier1651" stroke="none" fill="rgb(0, 0, 0)" d="M 123.59,47.94 C 123.48,48.48 123.32,49 123.09,49.51 122.96,49.76 122.81,50 122.59,50.23 122.35,50.46 122.13,50.59 121.83,50.73 121.22,50.97 120.61,50.94 120.09,50.83 119.55,50.7 119.04,50.52 118.55,50.23 L 118.56,50.15 C 119.12,50.04 119.67,50.06 120.19,50.09 120.72,50.11 121.21,50.27 121.64,50.16 122.1,50.04 122.47,49.76 122.76,49.32 123.07,48.9 123.31,48.42 123.52,47.92 L 123.59,47.94 Z M 123.59,47.94" />
            </g>
            <g id="kazWhizzTop07-group1248">
                <path id="kazWhizzTop07-bezier1652" stroke="none" fill="rgb(0, 0, 0)" d="M 118.53,44.97 C 118.89,44.64 119.32,44.37 119.83,44.22 120.07,44.13 120.36,44.03 120.64,44.13 120.91,44.22 121.18,44.41 121.26,44.72 L 121.22,44.78 120.53,44.87 C 120.34,44.89 120.15,44.81 119.93,44.81 119.5,44.81 119.03,44.9 118.57,45.04 L 118.53,44.97 Z M 118.53,44.97" />
            </g>
            <g id="kazWhizzTop07-group1249">
                <path id="kazWhizzTop07-bezier1653" stroke="none" fill="rgb(0, 0, 0)" d="M 105.85,35.63 C 105.13,36.48 104.11,36.99 103.09,37.38 102.06,37.77 100.98,38.01 99.88,38.13 97.68,38.37 95.43,38.12 93.32,37.41 92.25,37.02 91.31,36.59 90.28,36.4 89.27,36.2 88.25,36.18 87.35,36.49 86.46,36.79 85.7,37.47 85.16,38.35 84.57,39.21 84.23,40.25 83.66,41.21 L 83.57,41.17 C 83.84,40.13 84.02,39.03 84.51,37.99 85,36.98 85.83,35.97 87,35.54 88.16,35.08 89.41,35.2 90.5,35.49 91.6,35.77 92.62,36.32 93.58,36.7 95.55,37.47 97.7,37.79 99.84,37.67 100.91,37.6 101.97,37.43 103,37.11 104.01,36.78 105.04,36.35 105.77,35.57 L 105.85,35.63 Z M 105.85,35.63" />
            </g>
            <g id="kazWhizzTop07-group1250">
                <path id="kazWhizzTop07-bezier1654" stroke="none" fill="rgb(0, 0, 0)" d="M 84.67,19.67 C 85.17,21.64 85.89,23.58 86.97,25.26 87.52,26.08 88.19,26.85 89.04,27.23 89.45,27.41 89.9,27.48 90.34,27.42 90.76,27.36 91.28,27.19 91.74,27.04 93.64,26.4 95.47,25.43 97.58,25.04 98.62,24.85 99.75,24.8 100.8,25.14 101.85,25.46 102.74,26.15 103.35,26.98 L 103.28,27.05 C 102.48,26.41 101.58,25.95 100.64,25.79 99.69,25.64 98.73,25.75 97.78,25.99 95.89,26.47 94.01,27.29 91.99,27.84 91.47,27.98 91.01,28.12 90.42,28.18 89.84,28.22 89.25,28.1 88.75,27.84 87.73,27.32 87.06,26.42 86.53,25.53 85.51,23.7 84.95,21.7 84.57,19.69 L 84.67,19.67 Z M 84.67,19.67" />
            </g>
            <g id="kazWhizzTop07-group1251">
                <path id="kazWhizzTop07-bezier1655" stroke="none" fill="rgb(0, 0, 0)" d="M 95.64,33.12 C 94.43,32.79 93.18,32.6 91.93,32.51 90.69,32.41 89.44,32.41 88.21,32.53 86.98,32.66 85.79,32.97 84.62,33.27 83.44,33.58 82.31,34.01 81.17,34.59 L 81.11,34.52 C 81.92,33.5 83.09,32.78 84.31,32.32 85.55,31.86 86.87,31.76 88.16,31.73 90.74,31.68 93.3,32.11 95.67,33.02 L 95.64,33.12 Z M 95.64,33.12" />
            </g>
            <g id="kazWhizzTop07-group1252">
                <path id="kazWhizzTop07-bezier1656" stroke="none" fill="rgb(0, 0, 0)" d="M 84.55,15.73 C 82.05,15.88 79.56,16.14 77.09,16.5 74.6,16.87 72.17,17.39 69.74,18.03 67.28,18.61 64.78,18.97 62.26,19.11 59.73,19.25 57.21,19.23 54.66,18.87 L 55.18,18.35 C 55.56,20.27 55.89,22.19 56.17,24.13 56.41,26.07 56.68,28.01 56.56,30.04 56.33,32.07 55.8,33.92 55.38,35.82 55.16,36.76 54.98,37.71 54.83,38.67 54.69,39.62 54.6,40.59 54.79,41.53 L 54.69,41.56 C 54.36,40.62 54.38,39.6 54.42,38.63 54.47,37.64 54.61,36.67 54.75,35.7 55.02,33.77 55.51,31.84 55.64,29.99 55.65,28.13 55.39,26.18 55.14,24.27 54.9,22.35 54.61,20.42 54.3,18.51 L 54.19,17.88 54.82,17.99 C 57.22,18.41 59.74,18.5 62.22,18.42 64.71,18.33 67.19,18.04 69.63,17.53 72.06,16.95 74.55,16.49 77.04,16.2 79.54,15.9 82.04,15.71 84.55,15.63 L 84.55,15.73 Z M 84.55,15.73" />
            </g>
            <g id="kazWhizzTop07-group1253">
                <path id="kazWhizzTop07-bezier1657" stroke="none" fill="rgb(0, 0, 0)" d="M 54.73,42.14 C 57.25,41.6 59.82,41.3 62.41,41.2 64.99,41.13 67.6,41.27 70.16,41.84 71.46,42.13 72.65,42.53 73.9,42.77 75.14,43.04 76.39,43.29 77.65,43.51 80.16,44.01 82.69,44.35 85.24,44.76 L 85.24,44.86 C 82.65,45.02 80.06,44.82 77.49,44.5 76.21,44.31 74.93,44.07 73.67,43.74 72.41,43.43 71.17,42.95 69.97,42.62 67.53,41.97 64.97,41.73 62.41,41.7 59.86,41.67 57.28,41.83 54.75,42.24 L 54.73,42.14 Z M 54.73,42.14" />
            </g>
            <g id="kazWhizzTop07-group1254">
                <path id="kazWhizzTop07-bezier1658" stroke="none" fill="rgb(0, 0, 0)" d="M 48.56,42.15 C 49.36,41.67 50.28,41.4 51.21,41.28 51.68,41.21 52.17,41.14 52.64,41.24 53.1,41.34 53.56,41.5 53.96,41.81 L 53.94,41.88 C 53.45,41.97 53,41.98 52.56,41.98 52.12,41.99 51.69,41.9 51.24,41.88 50.36,41.86 49.46,41.94 48.59,42.22 L 48.56,42.15 Z M 48.56,42.15" />
            </g>
            <g id="kazWhizzTop07-group1255">
                <path id="kazWhizzTop07-bezier1659" stroke="none" fill="rgb(0, 0, 0)" d="M 48.91,18.93 L 51.43,18.78 C 51.85,18.74 52.26,18.66 52.67,18.69 53.09,18.73 53.5,18.78 53.94,18.93 L 53.95,19.01 C 53.56,19.27 53.13,19.38 52.7,19.44 52.27,19.51 51.85,19.43 51.42,19.38 50.58,19.3 49.74,19.18 48.9,19.01 L 48.91,18.93 Z M 48.91,18.93" />
            </g>
            <g id="kazWhizzTop07-group1256">
                <path id="kazWhizzTop07-bezier1660" stroke="none" fill="rgb(0, 0, 0)" d="M 49.56,27.71 C 49.89,27.86 50.23,27.89 50.55,27.88 50.71,27.87 50.87,27.79 51.02,27.83 51.18,27.88 51.35,27.94 51.56,28.1 L 51.58,28.18 C 51.44,28.41 51.25,28.52 51.05,28.58 50.85,28.64 50.64,28.55 50.45,28.48 50.06,28.34 49.71,28.1 49.51,27.77 L 49.56,27.71 Z M 49.56,27.71" />
            </g>
            <g id="kazWhizzTop07-group1257">
                <path id="kazWhizzTop07-bezier1661" stroke="none" fill="rgb(0, 0, 0)" d="M 49.26,33.4 C 49.56,33.1 49.9,32.83 50.28,32.62 50.46,32.51 50.66,32.36 50.91,32.37 51.14,32.38 51.45,32.45 51.59,32.73 L 51.56,32.8 C 51.32,32.93 51.2,33.03 51.03,33.11 50.88,33.18 50.68,33.15 50.49,33.18 50.1,33.25 49.7,33.35 49.3,33.46 L 49.26,33.4 Z M 49.26,33.4" />
            </g>
            <g id="kazWhizzTop07-group1258">
                <path id="kazWhizzTop07-bezier1662" stroke="none" fill="rgb(0, 0, 0)" d="M 120.27,14.81 C 120.07,14.19 119.93,13.54 119.93,12.86 119.92,12.52 119.9,12.14 120.13,11.79 120.32,11.42 120.94,11.19 121.24,11.48 L 121.24,11.55 C 120.89,11.74 120.87,11.91 120.79,12.14 120.73,12.36 120.59,12.62 120.52,12.92 120.4,13.51 120.36,14.16 120.34,14.8 L 120.27,14.81 Z M 120.27,14.81" />
            </g>
        </g>
    </g>
</svg>
