<?xml version="1.0" encoding="UTF-8"?>
<!DOCTYPE svg PUBLIC "-//W3C//DTD SVG 1.1//EN" "http://www.w3.org/Graphics/SVG/1.1/DTD/svg11.dtd">
<svg version="1.1" xmlns="http://www.w3.org/2000/svg" xmlns:xlink="http://www.w3.org/1999/xlink" width="160" height="60"  xml:space="preserve" id="kazWhizzTop04">
    <!-- Generated by PaintCode - http://www.paintcodeapp.com -->
    <g id="kazWhizzTop04-group">
        <path id="kazWhizzTop04-bezier1486" stroke="rgb(0, 0, 0)" stroke-width="2" stroke-miterlimit="10" fill="none" d="M 117.93,30.56 L 156.27,30.56" />
        <path id="kazWhizzTop04-bezier1487" stroke="rgb(0, 0, 0)" stroke-width="2" stroke-miterlimit="10" fill="none" d="M 2.88,30.56 L 32.89,30.56" />
        <path id="kazWhizzTop04-bezier1488" stroke="rgb(0, 0, 0)" stroke-width="2" stroke-miterlimit="10" fill="none" d="M 127.45,13.55 L 106.2,13.55 106.2,22.43" />
        <path id="kazWhizzTop04-bezier1489" stroke="rgb(0, 0, 0)" stroke-width="2" stroke-miterlimit="10" fill="none" d="M 127.45,46.57 L 106.2,46.57 106.2,46.55 106.2,40.68" />
        <path id="kazWhizzTop04-bezier1490" stroke="rgb(0, 0, 0)" stroke-width="2" stroke-miterlimit="10" fill="none" d="M 35.98,26.06 C 35.98,26.06 34.7,27.38 34.7,30.56 34.7,33.74 35.98,34.68 35.98,34.68" />
        <path id="kazWhizzTop04-bezier1491" stroke="rgb(0, 0, 0)" stroke-width="2" stroke-miterlimit="10" fill="none" d="M 130.73,28.14 L 116.66,28.14" />
        <path id="kazWhizzTop04-bezier1492" stroke="rgb(0, 0, 0)" stroke-width="2" stroke-miterlimit="10" fill="none" d="M 130.73,33.01 L 118.66,33.01" />
        <path id="kazWhizzTop04-bezier1493" stroke="rgb(0, 0, 0)" stroke-width="2" stroke-miterlimit="10" fill="none" d="M 33.35,28.14 L 31.65,28.14" />
        <path id="kazWhizzTop04-bezier1494" stroke="rgb(0, 0, 0)" stroke-width="2" stroke-miterlimit="10" fill="none" d="M 33.35,33.01 L 31.65,33.01" />
        <g id="kazWhizzTop04-group1128">
            <g id="kazWhizzTop04-group1129">
                <path id="kazWhizzTop04-bezier1495" stroke="none" fill="rgb(0, 0, 0)" d="M 105.71,40.25 C 105.09,40.42 104.46,40.65 103.84,40.85 L 102.91,41.17 C 102.59,41.27 102.31,41.38 101.94,41.45 L 101.97,41.44 C 100.56,41.89 99.08,42.18 97.55,42.04 96.79,41.96 96.01,41.76 95.32,41.32 94.98,41.13 94.64,40.74 94.47,40.66 94.22,40.51 93.92,40.42 93.61,40.37 92.31,40.19 90.87,40.48 89.48,40.75 88.07,41.04 86.66,41.41 85.24,41.79 L 85.19,41.7 C 86.46,40.93 87.82,40.33 89.25,39.88 90.67,39.45 92.18,39.11 93.79,39.42 94.19,39.51 94.6,39.66 94.96,39.92 95.4,40.25 95.49,40.48 95.77,40.67 96.29,41.07 96.95,41.3 97.64,41.43 99.02,41.66 100.5,41.57 101.92,41.27 L 101.87,41.28 101.94,41.27 C 102.22,41.22 102.56,41.11 102.86,41.02 L 103.8,40.72 C 104.43,40.53 105.04,40.31 105.69,40.15 L 105.71,40.25 Z M 105.71,40.25" />
            </g>
            <g id="kazWhizzTop04-group1130">
                <path id="kazWhizzTop04-bezier1496" stroke="none" fill="rgb(0, 0, 0)" d="M 101.21,22.75 C 102.5,22.7 103.79,22.75 105.08,22.76 106.38,22.78 107.68,23.01 108.92,23.46 111.38,24.35 113.61,26.15 114.72,28.64 115.27,29.87 115.51,31.26 115.39,32.62 115.27,34 114.74,35.31 113.95,36.42 112.32,38.61 109.76,39.97 107.18,40.22 L 107.16,40.12 C 109.59,39.32 111.8,37.91 113.12,35.85 114.47,33.86 114.9,31.24 113.98,28.94 113.07,26.66 111.06,24.86 108.74,23.92 106.42,22.9 103.76,22.99 101.22,22.85 L 101.21,22.75 Z M 101.21,22.75" />
            </g>
            <g id="kazWhizzTop04-group1131">
                <path id="kazWhizzTop04-bezier1497" stroke="none" fill="rgb(0, 0, 0)" d="M 83.76,19.09 C 85.12,19.07 86.45,19.45 87.72,19.91 88.99,20.39 90.21,20.97 91.43,21.53 92.65,22.08 93.88,22.58 95.07,23.1 96.27,23.59 97.46,24.07 98.8,23.93 L 98.84,24.02 C 98.23,24.38 97.48,24.48 96.78,24.44 96.07,24.41 95.38,24.24 94.72,24.04 93.4,23.61 92.24,22.89 91.07,22.24 89.89,21.59 88.73,20.93 87.53,20.37 86.33,19.8 85.09,19.3 83.75,19.19 L 83.76,19.09 Z M 83.76,19.09" />
            </g>
            <g id="kazWhizzTop04-group1132">
                <path id="kazWhizzTop04-bezier1498" stroke="none" fill="rgb(0, 0, 0)" d="M 117.74,10.93 C 113.87,11.45 109.99,11.92 106.08,12.14 105.1,12.19 104.12,12.24 103.12,12.2 L 100.21,12.03 C 99.24,11.98 98.28,11.94 97.32,11.99 96.37,12.03 95.39,12.1 94.52,12.52 L 94.48,12.46 C 95.26,11.81 96.3,11.61 97.27,11.44 98.25,11.3 99.24,11.25 100.23,11.27 101.21,11.28 102.21,11.38 103.16,11.49 104.11,11.57 105.09,11.57 106.06,11.56 109.95,11.47 113.85,11.17 117.74,10.85 L 117.74,10.93 Z M 117.74,10.93" />
            </g>
            <g id="kazWhizzTop04-group1133">
                <path id="kazWhizzTop04-bezier1499" stroke="none" fill="rgb(0, 0, 0)" d="M 97.79,19.61 C 98.61,19.41 99.46,19.19 100.21,18.9 100.98,18.52 101.84,18.33 102.65,18.09 104.29,17.63 105.93,17.19 107.58,16.78 109.23,16.35 110.9,16.01 112.57,15.7 113.4,15.53 114.24,15.4 115.09,15.27 115.94,15.15 116.76,15 117.65,15 L 117.63,15.07 C 116,15.42 114.35,15.93 112.71,16.32 111.06,16.74 109.42,17.15 107.76,17.51 106.1,17.87 104.44,18.22 102.79,18.63 101.97,18.84 101.15,19.02 100.37,19.33 99.5,19.57 98.66,19.6 97.81,19.68 L 97.79,19.61 Z M 97.79,19.61" />
            </g>
            <g id="kazWhizzTop04-group1134">
                <path id="kazWhizzTop04-bezier1500" stroke="none" fill="rgb(0, 0, 0)" d="M 37.59,30.56 C 37.52,28.9 37.51,27.23 37.56,25.56 37.63,23.89 37.73,22.21 38.18,20.55 38.3,20.14 38.44,19.72 38.71,19.32 38.78,19.22 38.86,19.12 38.96,19.03 39.04,18.96 39.1,18.89 39.21,18.81 39.41,18.66 39.6,18.54 39.81,18.44 40.63,18.04 41.51,17.92 42.37,17.87 44.1,17.79 45.78,18 47.45,18.39 L 47.83,18.47 47.82,18.89 C 47.82,19.86 47.78,20.84 47.74,21.81 47.71,22.78 47.63,23.76 47.57,24.73 47.46,26.67 47.27,28.62 47.06,30.56 L 46.96,30.56 C 46.87,29.58 46.82,28.61 46.79,27.63 46.75,26.66 46.72,25.68 46.72,24.7 46.73,23.73 46.7,22.75 46.73,21.78 46.74,20.8 46.77,19.83 46.82,18.86 L 47.19,19.36 C 45.64,18.95 44,18.64 42.39,18.65 40.82,18.68 39.07,19.04 38.74,20.73 38.26,22.27 38.08,23.94 37.92,25.58 37.78,27.24 37.7,28.9 37.69,30.56 L 37.59,30.56 Z M 37.59,30.56" />
            </g>
            <g id="kazWhizzTop04-group1135">
                <path id="kazWhizzTop04-bezier1501" stroke="none" fill="rgb(0, 0, 0)" d="M 123.54,12.2 C 123.34,11.7 123.09,11.22 122.79,10.8 122.5,10.36 122.13,10.08 121.66,9.96 121.24,9.86 120.75,10.02 120.22,10.04 119.69,10.06 119.15,10.08 118.59,9.97 L 118.57,9.89 C 119.07,9.6 119.58,9.42 120.11,9.29 120.64,9.18 121.25,9.15 121.86,9.4 122.15,9.53 122.38,9.67 122.62,9.89 122.84,10.12 122.98,10.36 123.11,10.61 123.35,11.12 123.5,11.65 123.61,12.18 L 123.54,12.2 Z M 123.54,12.2" />
            </g>
            <g id="kazWhizzTop04-group1136">
                <path id="kazWhizzTop04-bezier1502" stroke="none" fill="rgb(0, 0, 0)" d="M 118.6,15.09 C 119.05,15.22 119.52,15.31 119.95,15.32 120.17,15.31 120.37,15.23 120.55,15.25 L 121.24,15.34 121.29,15.4 C 121.21,15.71 120.94,15.91 120.67,16 120.39,16.09 120.1,15.99 119.85,15.91 119.35,15.75 118.92,15.48 118.56,15.15 L 118.6,15.09 Z M 118.6,15.09" />
            </g>
            <g id="kazWhizzTop04-group1137">
                <path id="kazWhizzTop04-bezier1503" stroke="none" fill="rgb(0, 0, 0)" d="M 37.69,30.56 C 37.67,32.22 37.71,33.88 37.82,35.52 37.96,37.16 38.11,38.83 38.6,40.35 38.72,40.72 38.89,41.09 39.11,41.35 39.22,41.48 39.3,41.53 39.51,41.64 39.67,41.71 39.84,41.78 40.03,41.84 40.77,42.06 41.58,42.12 42.38,42.15 44,42.18 45.65,42 47.25,41.75 L 46.82,42.26 C 46.77,41.29 46.74,40.32 46.73,39.34 46.7,38.37 46.73,37.39 46.73,36.42 46.72,35.44 46.75,34.47 46.79,33.49 46.82,32.51 46.87,31.54 46.96,30.56 L 47.06,30.56 C 47.27,32.5 47.46,34.45 47.57,36.39 47.63,37.37 47.71,38.34 47.74,39.31 47.78,40.29 47.82,41.26 47.83,42.23 L 47.83,42.69 47.4,42.75 C 45.72,42.95 44.05,43.03 42.35,42.93 41.5,42.87 40.65,42.78 39.81,42.49 39.6,42.42 39.39,42.33 39.17,42.22 39.02,42.13 38.74,41.95 38.61,41.76 38.31,41.36 38.16,40.95 38.03,40.53 37.56,38.87 37.5,37.2 37.46,35.54 37.43,33.87 37.48,32.21 37.59,30.56 L 37.69,30.56 Z M 37.69,30.56" />
            </g>
            <g id="kazWhizzTop04-group1138">
                <path id="kazWhizzTop04-bezier1504" stroke="none" fill="rgb(0, 0, 0)" d="M 120.36,45.32 C 120.38,45.97 120.43,46.61 120.55,47.21 120.62,47.5 120.76,47.76 120.82,47.99 120.89,48.21 120.91,48.38 121.26,48.57 L 121.27,48.64 C 120.96,48.94 120.35,48.7 120.15,48.34 119.92,47.99 119.95,47.6 119.95,47.26 119.96,46.58 120.09,45.94 120.29,45.31 L 120.36,45.32 Z M 120.36,45.32" />
            </g>
            <g id="kazWhizzTop04-group1139">
                <path id="kazWhizzTop04-bezier1505" stroke="none" fill="rgb(0, 0, 0)" d="M 123.61,47.94 C 123.5,48.48 123.35,49 123.11,49.51 122.98,49.76 122.84,50 122.62,50.23 122.38,50.46 122.15,50.59 121.86,50.73 121.25,50.97 120.64,50.94 120.11,50.83 119.58,50.7 119.06,50.52 118.57,50.23 L 118.58,50.15 C 119.15,50.04 119.69,50.06 120.22,50.09 120.75,50.11 121.24,50.27 121.66,50.16 122.13,50.04 122.5,49.76 122.79,49.32 123.09,48.9 123.34,48.42 123.54,47.92 L 123.61,47.94 Z M 123.61,47.94" />
            </g>
            <g id="kazWhizzTop04-group1140">
                <path id="kazWhizzTop04-bezier1506" stroke="none" fill="rgb(0, 0, 0)" d="M 118.56,44.97 C 118.92,44.64 119.35,44.37 119.85,44.22 120.1,44.13 120.38,44.03 120.67,44.13 120.94,44.22 121.21,44.41 121.29,44.72 L 121.24,44.78 120.55,44.87 C 120.37,44.89 120.17,44.81 119.95,44.81 119.52,44.81 119.05,44.9 118.6,45.04 L 118.56,44.97 Z M 118.56,44.97" />
            </g>
            <g id="kazWhizzTop04-group1141">
                <path id="kazWhizzTop04-bezier1507" stroke="none" fill="rgb(0, 0, 0)" d="M 109.26,36.88 C 107.05,38.21 104.35,38.45 101.82,38.28 100.54,38.19 99.27,38.02 98.01,37.8 96.75,37.58 95.51,37.28 94.28,37.13 91.81,36.82 89.31,36.82 86.85,37.16 84.42,37.53 81.95,38.2 79.84,39.58 L 79.77,39.5 C 80.68,38.58 81.82,37.93 83,37.4 84.17,36.85 85.43,36.5 86.7,36.24 89.24,35.71 91.89,35.79 94.42,36.25 95.7,36.46 96.92,36.82 98.15,37.09 99.38,37.36 100.62,37.59 101.86,37.73 104.34,38.01 106.95,37.97 109.22,36.79 L 109.26,36.88 Z M 109.26,36.88" />
            </g>
            <g id="kazWhizzTop04-group1142">
                <path id="kazWhizzTop04-bezier1508" stroke="none" fill="rgb(0, 0, 0)" d="M 79.21,22.53 C 81.24,24.51 83.6,26.17 86.18,27.26 87.48,27.79 88.84,28.15 90.21,28.23 91.58,28.31 92.95,27.99 94.34,27.72 97.1,27.12 99.86,26.29 102.77,26.07 104.21,25.97 105.7,25.97 107.13,26.32 108.56,26.65 109.91,27.31 111,28.25 L 110.94,28.33 C 109.72,27.61 108.38,27.14 107.01,26.96 105.64,26.79 104.24,26.82 102.86,27.01 100.1,27.38 97.34,28.1 94.51,28.57 93.1,28.79 91.65,29.08 90.16,28.93 88.69,28.8 87.28,28.36 85.97,27.75 83.35,26.51 81.07,24.69 79.13,22.6 L 79.21,22.53 Z M 79.21,22.53" />
            </g>
            <g id="kazWhizzTop04-group1143">
                <path id="kazWhizzTop04-bezier1509" stroke="none" fill="rgb(0, 0, 0)" d="M 107.33,34.31 C 104.65,33.9 101.93,33.93 99.23,33.91 L 91.1,33.92 C 88.38,33.92 85.66,33.96 82.94,33.68 81.59,33.52 80.23,33.36 78.88,33.06 77.56,32.75 76.18,32.39 75.05,31.59 L 75.1,31.5 C 76.34,32.03 77.68,32.21 79,32.37 80.33,32.52 81.67,32.63 83.02,32.69 85.71,32.82 88.41,33.01 91.11,33.12 L 99.24,33.41 C 101.95,33.56 104.68,33.67 107.34,34.21 L 107.33,34.31 Z M 107.33,34.31" />
            </g>
            <g id="kazWhizzTop04-group1144">
                <path id="kazWhizzTop04-bezier1510" stroke="none" fill="rgb(0, 0, 0)" d="M 86.6,16.39 C 81.98,16.52 77.35,16.84 72.82,17.68 71.69,17.88 70.58,18.18 69.43,18.41 68.29,18.64 67.15,18.84 65.99,18.99 64.83,19.14 63.66,19.23 62.48,19.24 61.29,19.22 60.16,19.21 58.88,18.79 L 59.51,18.31 C 59.84,20.24 60.13,22.17 60.35,24.12 60.54,26.07 60.76,28.01 60.6,30.04 60.31,32.06 59.74,33.89 59.27,35.78 59.03,36.72 58.81,37.67 58.65,38.62 58.49,39.56 58.37,40.53 58.53,41.48 L 58.43,41.51 C 58.13,40.56 58.17,39.54 58.24,38.57 58.31,37.58 58.47,36.61 58.64,35.65 58.96,33.73 59.5,31.81 59.67,29.96 59.73,28.1 59.52,26.15 59.33,24.23 59.13,22.3 58.89,20.37 58.62,18.46 L 58.52,17.7 59.25,17.98 C 60.17,18.32 61.39,18.44 62.49,18.47 63.63,18.5 64.77,18.44 65.91,18.34 68.21,18.14 70.44,17.65 72.74,17.24 77.33,16.51 81.97,16.3 86.59,16.29 L 86.6,16.39 Z M 86.6,16.39" />
            </g>
            <g id="kazWhizzTop04-group1145">
                <path id="kazWhizzTop04-bezier1511" stroke="none" fill="rgb(0, 0, 0)" d="M 58.45,42.09 C 60.73,41.37 63.16,41.19 65.56,41.36 66.76,41.44 67.95,41.63 69.13,41.89 70.31,42.14 71.46,42.55 72.57,42.83 74.84,43.41 77.17,43.77 79.5,44.15 81.83,44.5 84.18,44.8 86.55,45.09 L 86.54,45.19 C 84.16,45.34 81.77,45.27 79.39,45.05 77,44.85 74.63,44.43 72.32,43.73 71.14,43.39 70.08,42.91 68.95,42.61 67.82,42.3 66.67,42.06 65.5,41.92 63.18,41.64 60.78,41.62 58.48,42.18 L 58.45,42.09 Z M 58.45,42.09" />
            </g>
            <g id="kazWhizzTop04-group1146">
                <path id="kazWhizzTop04-bezier1512" stroke="none" fill="rgb(0, 0, 0)" d="M 48.05,42.15 C 49.68,41.76 51.32,41.48 52.99,41.32 53.82,41.23 54.67,41.13 55.51,41.21 56.35,41.28 57.2,41.44 57.98,41.81 L 57.97,41.88 55.49,41.95 C 54.67,41.97 53.85,41.91 53.02,41.91 51.38,41.94 49.72,42.05 48.07,42.22 L 48.05,42.15 Z M 48.05,42.15" />
            </g>
            <g id="kazWhizzTop04-group1147">
                <path id="kazWhizzTop04-bezier1513" stroke="none" fill="rgb(0, 0, 0)" d="M 48.46,18.94 L 53.22,18.78 C 54.01,18.74 54.8,18.66 55.59,18.7 56.38,18.74 57.17,18.81 57.97,18.94 L 57.98,19.01 C 57.2,19.3 56.4,19.39 55.6,19.45 54.8,19.51 54.01,19.43 53.21,19.38 51.62,19.29 50.04,19.17 48.46,19.01 L 48.46,18.94 Z M 48.46,18.94" />
            </g>
            <g id="kazWhizzTop04-group1148">
                <path id="kazWhizzTop04-bezier1514" stroke="none" fill="rgb(0, 0, 0)" d="M 49.2,27.7 C 50.21,27.75 51.21,27.79 52.2,27.81 52.7,27.81 53.19,27.76 53.68,27.83 54.17,27.89 54.64,27.98 55.15,28.1 L 55.17,28.18 C 54.7,28.46 54.16,28.54 53.65,28.58 53.14,28.61 52.64,28.49 52.14,28.41 51.15,28.25 50.16,28.03 49.19,27.78 L 49.2,27.7 Z M 49.2,27.7" />
            </g>
            <g id="kazWhizzTop04-group1149">
                <path id="kazWhizzTop04-bezier1515" stroke="none" fill="rgb(0, 0, 0)" d="M 48.89,33.39 C 49.91,33.11 50.94,32.86 51.98,32.65 52.5,32.54 53.02,32.39 53.56,32.39 54.09,32.41 54.66,32.41 55.17,32.73 L 55.15,32.8 C 54.63,32.9 54.14,33.06 53.62,33.14 53.11,33.23 52.59,33.21 52.06,33.24 L 48.91,33.47 48.89,33.39 Z M 48.89,33.39" />
            </g>
            <g id="kazWhizzTop04-group1150">
                <path id="kazWhizzTop04-bezier1516" stroke="none" fill="rgb(0, 0, 0)" d="M 120.29,14.81 C 120.09,14.19 119.96,13.54 119.95,12.86 119.95,12.52 119.92,12.14 120.15,11.79 120.35,11.42 120.96,11.19 121.27,11.48 L 121.26,11.55 C 120.91,11.74 120.89,11.91 120.82,12.14 120.76,12.36 120.62,12.62 120.55,12.92 120.43,13.51 120.38,14.16 120.36,14.8 L 120.29,14.81 Z M 120.29,14.81" />
            </g>
            <g id="kazWhizzTop04-group1151">
                <path id="kazWhizzTop04-bezier1517" stroke="none" fill="rgb(0, 0, 0)" d="M 117.1,32.31 C 116.64,32.37 116.27,32.7 116.12,33.11 115.99,33.51 115.89,34 115.72,34.43 115.56,34.88 115.42,35.33 115.17,35.74 114.9,36.11 114.62,36.6 114.07,36.67 L 114.06,36.62 C 114.37,36.33 114.52,35.89 114.73,35.49 114.92,35.09 115.18,34.7 115.37,34.29 115.59,33.87 115.71,33.47 115.92,33.01 116.15,32.57 116.61,32.26 117.09,32.26 L 117.1,32.31 Z M 117.1,32.31" />
            </g>
            <g id="kazWhizzTop04-group1152">
                <path id="kazWhizzTop04-bezier1518" stroke="none" fill="rgb(0, 0, 0)" d="M 117.25,32.26 C 117.38,32.2 117.52,32.12 117.58,32 117.65,31.89 117.57,31.77 117.46,31.7 117.22,31.52 116.93,31.42 116.66,31.24 116.09,30.89 115.79,30.2 115.68,29.59 115.55,29.02 115.28,28.49 115.04,27.94 114.79,27.4 114.51,26.86 114.18,26.35 L 114.22,26.31 C 114.77,26.65 115.14,27.18 115.48,27.72 115.8,28.26 116,28.88 116.09,29.52 116.15,30.12 116.34,30.67 116.81,31.03 117.04,31.21 117.32,31.35 117.56,31.57 117.69,31.66 117.81,31.9 117.68,32.06 117.57,32.2 117.41,32.26 117.27,32.31 L 117.25,32.26 Z M 117.25,32.26" />
            </g>
            <g id="kazWhizzTop04-group1153">
                <path id="kazWhizzTop04-bezier1519" stroke="none" fill="rgb(0, 0, 0)" d="M 87.21,16.09 C 87.99,14.91 89.25,14.1 90.57,13.59 91.9,13.09 93.33,12.84 94.79,12.95 95.17,12.99 95.5,13.03 95.94,13.23 96.06,13.28 96.35,13.51 96.45,13.67 96.58,13.84 96.68,14.02 96.76,14.2 97.07,14.91 97.2,15.63 97.31,16.34 97.5,17.76 97.48,19.17 97.32,20.59 L 97.28,20.9 97.02,20.97 C 96.39,21.16 95.74,21.36 95.11,21.57 94.8,21.68 94.49,21.8 94.19,21.93 94.04,21.99 93.89,22.06 93.76,22.15 93.64,22.24 93.49,22.34 93.55,22.45 L 93.48,22.52 C 93.3,22.32 93.49,22.08 93.59,21.97 93.72,21.83 93.85,21.72 93.99,21.61 94.27,21.39 94.57,21.21 94.87,21.04 95.47,20.7 96.09,20.4 96.73,20.14 L 96.43,20.53 C 96.43,19.16 96.42,17.78 96.34,16.44 96.3,15.77 96.22,15.09 96.01,14.51 95.96,14.37 95.89,14.24 95.82,14.13 95.72,14 95.75,13.99 95.56,13.87 95.37,13.78 95.01,13.68 94.7,13.63 93.4,13.45 92,13.62 90.7,14 89.41,14.38 88.14,15.05 87.29,16.15 L 87.21,16.09 Z M 87.21,16.09" />
            </g>
            <g id="kazWhizzTop04-group1154">
                <path id="kazWhizzTop04-bezier1520" stroke="none" fill="rgb(0, 0, 0)" d="M 117.74,49.61 C 113.84,49.29 109.95,49 106.06,48.9 105.09,48.89 104.11,48.89 103.16,48.97 102.21,49.08 101.21,49.18 100.23,49.19 99.24,49.21 98.25,49.16 97.26,49.03 96.3,48.86 95.26,48.65 94.48,48 L 94.52,47.94 C 95.38,48.37 96.37,48.43 97.32,48.48 98.28,48.53 99.24,48.48 100.2,48.44 L 103.11,48.26 C 104.12,48.23 105.09,48.27 106.08,48.32 109.99,48.55 113.87,49.01 117.74,49.53 L 117.74,49.61 Z M 117.74,49.61" />
            </g>
            <g id="kazWhizzTop04-group1155">
                <path id="kazWhizzTop04-bezier1521" stroke="none" fill="rgb(0, 0, 0)" d="M 101.84,41.83 C 104.47,42.43 107.12,42.96 109.77,43.5 111.09,43.76 112.43,43.97 113.74,44.31 115.04,44.64 116.36,45.03 117.62,45.39 L 117.65,45.46 C 116.24,45.52 114.92,45.24 113.58,45.04 112.25,44.8 110.94,44.42 109.64,44.08 107.02,43.41 104.4,42.71 101.82,41.9 L 101.84,41.83 Z M 101.84,41.83" />
            </g>
            <g id="kazWhizzTop04-group1156">
                <path id="kazWhizzTop04-bezier1522" stroke="none" fill="rgb(0, 0, 0)" d="M 96.96,42.92 C 96.95,44.06 96.97,45.22 96.54,46.37 96.41,46.65 96.23,46.96 95.89,47.16 95.62,47.31 95.29,47.4 95,47.46 94.4,47.58 93.81,47.61 93.21,47.6 92.03,47.55 90.82,47.41 89.73,46.85 88.66,46.33 87.66,45.48 87.21,44.37 L 87.29,44.31 C 88.17,45.06 89.12,45.56 90.13,45.94 91.14,46.3 92.18,46.67 93.27,46.8 93.81,46.86 94.37,46.88 94.89,46.82 95.17,46.78 95.4,46.74 95.64,46.64 95.8,46.57 95.97,46.38 96.09,46.15 96.58,45.21 96.73,44.03 96.86,42.91 L 96.96,42.92 Z M 96.96,42.92" />
            </g>
            <g id="kazWhizzTop04-group1157">
                <path id="kazWhizzTop04-bezier1523" stroke="none" fill="rgb(0, 0, 0)" d="M 49,43.09 C 51.49,44.08 54.08,44.82 56.66,45.51 59.26,46.18 61.87,46.78 64.5,47.29 67.12,47.82 69.77,48.25 72.42,48.65 L 80.36,49.88 80.4,49.88 80.42,49.89 C 81.16,50.19 82.04,50.12 82.76,49.72 83.48,49.33 84.16,48.65 84.24,47.78 L 84.32,47.78 C 84.34,48.24 84.17,48.69 83.92,49.07 83.67,49.45 83.34,49.78 82.95,50.03 82.18,50.54 81.15,50.72 80.23,50.43 L 80.29,50.44 C 77.61,50.18 74.94,49.87 72.29,49.4 69.65,48.94 67.01,48.4 64.39,47.82 61.77,47.23 59.15,46.58 56.58,45.82 54,45.06 51.44,44.23 48.97,43.16 L 49,43.09 Z M 49,43.09" />
            </g>
        </g>
    </g>
</svg>
