<?xml version="1.0" encoding="UTF-8"?>
<!DOCTYPE svg PUBLIC "-//W3C//DTD SVG 1.1//EN" "http://www.w3.org/Graphics/SVG/1.1/DTD/svg11.dtd">
<svg version="1.1" xmlns="http://www.w3.org/2000/svg" xmlns:xlink="http://www.w3.org/1999/xlink" width="160" height="160"  xml:space="preserve" id="kazWhixxSide06">
    <!-- Generated by PaintCode - http://www.paintcodeapp.com -->
    <g id="kazWhixxSide06-group">
        <circle id="kazWhixxSide06-oval51" stroke="rgb(0, 0, 0)" stroke-width="2" stroke-miterlimit="10" fill="none" cx="127.16" cy="121.81" r="29" />
        <circle id="kazWhixxSide06-oval52" stroke="rgb(0, 0, 0)" stroke-width="2" stroke-miterlimit="10" fill="none" cx="33.49" cy="121.81" r="29" />
        <circle id="kazWhixxSide06-oval53" stroke="rgb(0, 0, 0)" stroke-width="2" stroke-miterlimit="10" fill="none" cx="72" cy="128.81" r="8.33" />
        <circle id="kazWhixxSide06-oval54" stroke="rgb(0, 0, 0)" stroke-width="2" stroke-miterlimit="10" fill="none" cx="33.49" cy="121.81" r="2.5" />
        <path id="kazWhixxSide06-bezier1064" stroke="rgb(0, 0, 0)" stroke-width="2" stroke-miterlimit="10" fill="none" d="M 78.53,74.64 L 55.83,74.64 33.49,121.81 72,128.81" />
        <path id="kazWhixxSide06-bezier1065" stroke="rgb(0, 0, 0)" stroke-width="2" stroke-miterlimit="10" fill="none" d="M 105.83,74.64 L 91.44,74.64" />
        <path id="kazWhixxSide06-bezier1066" stroke="rgb(0, 0, 0)" stroke-width="2" stroke-miterlimit="10" fill="none" d="M 111.92,75.15 L 127.16,121.81" />
        <path id="kazWhixxSide06-bezier1067" stroke="rgb(0, 0, 0)" stroke-width="2" stroke-miterlimit="10" fill="none" d="M 80.07,118.24 L 77.81,120.47" />
        <path id="kazWhixxSide06-bezier1068" stroke="rgb(0, 0, 0)" stroke-width="2" stroke-miterlimit="10" fill="none" d="M 114.82,84.03 L 85.95,112.46" />
        <path id="kazWhixxSide06-bezier1069" stroke="rgb(0, 0, 0)" stroke-width="2" stroke-miterlimit="10" fill="none" d="M 69.1,119.36 L 54,65.64" />
        <path id="kazWhixxSide06-bezier1070" stroke="rgb(0, 0, 0)" stroke-width="2" stroke-miterlimit="10" fill="none" d="M 50.06,64.3 C 46.33,64.73 42.71,64.78 41.5,63.64 38.66,60.97 35.16,59.31 41.5,59.31" />
        <path id="kazWhixxSide06-bezier1071" stroke="rgb(0, 0, 0)" stroke-width="1" stroke-miterlimit="10" fill="none" d="M 66.93,120.47 L 37.56,120.47" />
        <path id="kazWhixxSide06-bezier1072" stroke="rgb(0, 0, 0)" stroke-width="1" stroke-miterlimit="10" fill="none" d="M 35.5,125.31 L 63.66,134.85" />
        <path id="kazWhixxSide06-bezier1073" stroke="rgb(0, 0, 0)" stroke-width="2" stroke-miterlimit="10" fill="none" d="M 125.25,79.6 C 125.25,79.6 129.41,78.56 129.41,73.06 129.41,67.56 125.58,64.14 118.75,64.14 111.91,64.14 110.29,64.14 110.29,64.14" />
        <path id="kazWhixxSide06-bezier1074" stroke="rgb(0, 0, 0)" stroke-width="2" stroke-miterlimit="10" fill="none" d="M 81.77,118.88 L 89.6,118.88" />
        <path id="kazWhixxSide06-bezier1075" stroke="rgb(0, 0, 0)" stroke-width="2" stroke-miterlimit="10" fill="none" d="M 51.11,137.45 L 58.93,137.45" />
        <g id="kazWhixxSide06-group806">
            <g id="kazWhixxSide06-group807">
                <path id="kazWhixxSide06-bezier1076" stroke="none" fill="rgb(0, 0, 0)" d="M 121.66,77.48 C 122.24,78.34 122.82,79.18 123.41,79.99 123.71,80.39 124.09,80.73 124.33,81.15 124.59,81.56 124.75,81.99 125.1,82.37 L 125.08,82.47 C 124.77,82.55 124.44,82.43 124.2,82.29 123.94,82.14 123.73,81.96 123.54,81.77 123.15,81.38 122.96,80.87 122.73,80.4 122.27,79.47 121.89,78.51 121.58,77.53 L 121.66,77.48 Z M 121.66,77.48" />
            </g>
            <g id="kazWhixxSide06-group808">
                <path id="kazWhixxSide06-bezier1077" stroke="none" fill="rgb(0, 0, 0)" d="M 126.1,82.67 C 124.72,83.58 123.27,84.41 121.68,84.94 120.89,85.18 120.02,85.41 119.13,85.09 118.29,84.77 117.69,84.05 117.26,83.33 116.41,81.83 116.04,80.18 115.62,78.59 L 115.58,78.47 C 115.57,78.42 115.55,78.36 115.53,78.34 115.51,78.29 115.46,78.19 115.41,78.12 115.32,77.96 115.2,77.8 115.08,77.64 114.83,77.33 114.56,77.02 114.29,76.72 113.74,76.12 113.17,75.53 112.58,74.96 110.23,72.66 107.72,70.53 105.3,68.31 104.09,67.18 102.86,66.09 101.63,64.99 101.02,64.44 100.4,63.9 99.78,63.37 99.16,62.83 98.53,62.29 97.85,61.84 L 97.89,61.75 C 99.42,62.46 100.73,63.48 102.07,64.46 103.4,65.45 104.68,66.5 105.96,67.55 108.49,69.69 110.86,72 113.15,74.4 113.73,75 114.29,75.61 114.84,76.24 115.11,76.56 115.37,76.89 115.63,77.23 115.75,77.4 115.88,77.58 115.99,77.78 116.05,77.88 116.1,77.97 116.15,78.11 116.18,78.18 116.19,78.21 116.21,78.27 L 116.25,78.44 C 116.62,80.04 116.95,81.67 117.7,83.08 118.07,83.78 118.58,84.42 119.29,84.72 119.97,85.01 120.82,84.87 121.59,84.66 123.16,84.21 124.64,83.44 126.04,82.59 L 126.1,82.67 Z M 126.1,82.67" />
            </g>
            <g id="kazWhixxSide06-group809">
                <path id="kazWhixxSide06-bezier1078" stroke="none" fill="rgb(0, 0, 0)" d="M 97.17,60.98 C 96.46,60.75 95.74,60.27 95.48,59.48 95.33,58.7 95.1,58.05 94.86,57.32 94.39,55.91 93.88,54.5 93.36,53.09 92.84,51.69 92.26,50.31 91.84,48.87 91.41,47.43 91.02,45.98 90.77,44.48 L 90.86,44.45 C 91.63,45.77 92.23,47.15 92.78,48.54 93.33,49.94 93.7,51.4 94.12,52.84 94.54,54.28 94.96,55.73 95.34,57.18 95.51,57.89 95.71,58.68 95.77,59.39 95.92,60.07 96.54,60.61 97.21,60.88 L 97.17,60.98 Z M 97.17,60.98" />
            </g>
            <g id="kazWhixxSide06-group810">
                <path id="kazWhixxSide06-bezier1079" stroke="none" fill="rgb(0, 0, 0)" d="M 99.35,41.27 C 100.15,43.43 100.83,45.64 101.36,47.9 101.62,49.02 101.93,50.15 102,51.32 102.07,52.48 102.05,53.66 101.79,54.82 L 101.69,54.82 C 101.4,53.67 101.21,52.56 101.01,51.44 100.8,50.32 100.75,49.18 100.57,48.05 100.23,45.79 99.78,43.54 99.25,41.3 L 99.35,41.27 Z M 99.35,41.27" />
            </g>
            <g id="kazWhixxSide06-group811">
                <path id="kazWhixxSide06-bezier1080" stroke="none" fill="rgb(0, 0, 0)" d="M 102.98,56.27 C 105.41,57.4 107.46,59.36 108.81,61.68 110.26,63.89 111.93,65.97 113.61,68.03 115.31,70.07 117.09,72.05 118.86,73.99 119.3,74.47 119.75,74.96 120.22,75.33 120.64,75.66 121.27,75.79 121.91,75.93 122.56,76.06 123.28,76.21 123.89,76.61 124.48,77.03 124.9,77.61 125.17,78.22 L 125.08,78.28 C 124.68,77.75 124.22,77.27 123.65,77.01 123.1,76.73 122.47,76.67 121.81,76.62 121.14,76.56 120.41,76.47 119.72,76.04 119.11,75.62 118.63,75.15 118.14,74.68 116.22,72.78 114.61,70.64 112.98,68.52 111.37,66.39 109.78,64.24 108.38,61.94 107.17,59.6 105.29,57.61 102.94,56.36 L 102.98,56.27 Z M 102.98,56.27" />
            </g>
            <g id="kazWhixxSide06-group812">
                <path id="kazWhixxSide06-bezier1081" stroke="none" fill="rgb(0, 0, 0)" d="M 100.77,25.94 C 101.37,27.01 102.2,27.93 103.16,28.65 104.12,29.39 105.2,29.85 106.39,30.11 107.57,30.41 108.77,30.57 109.91,30.68 111.03,30.78 112.22,30.67 112.63,29.4 L 112.73,29.41 C 112.82,30.04 112.5,30.82 111.86,31.19 111.24,31.58 110.53,31.66 109.88,31.68 108.55,31.71 107.34,31.27 106.16,30.88 104.97,30.51 103.77,29.89 102.84,29.03 101.91,28.16 101.17,27.13 100.68,25.98 L 100.77,25.94 Z M 100.77,25.94" />
            </g>
            <g id="kazWhixxSide06-group813">
                <path id="kazWhixxSide06-bezier1082" stroke="none" fill="rgb(0, 0, 0)" d="M 112.9,26.3 C 113.54,26.22 114.22,26.05 114.69,25.66 114.92,25.46 115.05,25.19 115.03,24.92 115.02,24.65 114.87,24.36 114.76,24.03 114.31,22.77 113.88,21.5 113.61,20.16 113.48,19.48 113.34,18.81 113.43,18.02 113.54,17.38 113.55,16.82 113.49,16.19 113.37,14.97 113.13,13.65 112.06,12.86 L 112.09,12.77 C 112.8,12.89 113.38,13.46 113.75,14.06 114.14,14.67 114.36,15.36 114.49,16.06 114.54,16.41 114.56,16.77 114.56,17.13 114.56,17.31 114.54,17.5 114.51,17.68 114.49,17.86 114.42,18.09 114.41,18.19 114.28,18.72 114.33,19.39 114.39,20.03 114.56,21.31 114.88,22.6 115.23,23.88 115.3,24.19 115.45,24.52 115.43,24.92 115.42,25.32 115.17,25.69 114.87,25.89 114.26,26.3 113.57,26.38 112.9,26.4 L 112.9,26.3 Z M 112.9,26.3" />
            </g>
            <g id="kazWhixxSide06-group814">
                <path id="kazWhixxSide06-bezier1083" stroke="none" fill="rgb(0, 0, 0)" d="M 104.48,23.71 C 103.98,23.25 103.54,22.74 103.17,22.14 103,21.84 102.75,21.53 102.75,21.13 102.74,20.76 102.86,20.25 103.3,20.06 L 103.38,20.11 C 103.49,20.5 103.63,20.69 103.74,20.96 103.85,21.2 103.83,21.52 103.91,21.82 104.08,22.42 104.31,23.04 104.56,23.65 L 104.48,23.71 Z M 104.48,23.71" />
            </g>
            <g id="kazWhixxSide06-group815">
                <path id="kazWhixxSide06-bezier1084" stroke="none" fill="rgb(0, 0, 0)" d="M 98.76,32.01 C 99.49,31.51 100.26,31.06 101.07,30.68 101.47,30.49 101.87,30.23 102.34,30.2 102.79,30.16 103.33,30.17 103.76,30.52 L 103.74,30.62 C 103.3,30.83 102.96,31.02 102.57,31.17 102.19,31.34 101.75,31.34 101.33,31.44 100.49,31.64 99.65,31.86 98.8,32.1 L 98.76,32.01 Z M 98.76,32.01" />
            </g>
            <g id="kazWhixxSide06-group816">
                <path id="kazWhixxSide06-bezier1085" stroke="none" fill="rgb(0, 0, 0)" d="M 93.44,23.39 C 90.4,23.06 87.35,23.52 84.35,24 81.34,24.53 78.33,25.06 75.46,26.04 72.57,26.99 69.79,28.24 67.02,29.51 65.63,30.13 64.22,30.71 62.79,31.26 61.35,31.78 59.88,32.35 58.32,32.47 L 58.31,32.37 C 59.76,31.92 61.09,31.18 62.47,30.53 63.83,29.86 65.2,29.17 66.61,28.56 69.43,27.37 72.32,26.29 75.27,25.44 76.74,25.02 78.26,24.66 79.77,24.42 81.27,24.16 82.78,23.9 84.3,23.68 87.32,23.27 90.4,22.88 93.45,23.29 L 93.44,23.39 Z M 93.44,23.39" />
            </g>
            <g id="kazWhixxSide06-group817">
                <path id="kazWhixxSide06-bezier1086" stroke="none" fill="rgb(0, 0, 0)" d="M 57.68,33.29 C 59.31,35.29 60.86,37.36 62.3,39.51 63.01,40.59 63.7,41.7 64.31,42.85 64.92,44 65.49,45.18 65.8,46.52 L 65.22,46.24 C 66.34,45.61 67.47,45.02 68.61,44.45 69.76,43.88 70.93,43.37 72.12,42.9 73.33,42.46 74.54,42.03 75.8,41.72 77.04,41.43 78.34,41.16 79.64,41.35 L 79.63,41.45 C 78.37,41.55 77.18,41.97 76,42.39 74.82,42.83 73.65,43.3 72.5,43.82 L 69.04,45.35 C 67.88,45.86 66.72,46.39 65.6,46.95 L 65.11,47.19 65.01,46.67 C 64.79,45.48 64.28,44.29 63.73,43.15 63.17,42 62.54,40.88 61.88,39.78 60.56,37.57 59.12,35.43 57.61,33.35 L 57.68,33.29 Z M 57.68,33.29" />
            </g>
            <g id="kazWhixxSide06-group818">
                <path id="kazWhixxSide06-bezier1087" stroke="none" fill="rgb(0, 0, 0)" d="M 81.54,41.84 C 82.06,42.08 82.62,42.22 83.18,42.31 83.74,42.41 84.3,42.44 84.85,42.4 85.4,42.37 85.92,42.18 86.45,42.13 87,42.07 87.54,41.98 88.18,41.97 L 88.23,42.06 C 87.83,42.57 87.28,42.89 86.69,43.1 86.09,43.32 85.44,43.26 84.83,43.21 83.6,43.09 82.43,42.65 81.49,41.92 L 81.54,41.84 Z M 81.54,41.84" />
            </g>
            <g id="kazWhixxSide06-group819">
                <path id="kazWhixxSide06-bezier1088" stroke="none" fill="rgb(0, 0, 0)" d="M 56.9,34.88 C 55.95,35.87 54.9,36.77 53.76,37.56 53.18,37.95 52.61,38.39 51.91,38.59 51.23,38.78 50.44,38.9 49.74,38.58 L 49.75,38.48 C 50.42,38.24 50.97,37.95 51.55,37.66 52.11,37.36 52.75,37.17 53.35,36.87 54.54,36.27 55.71,35.57 56.84,34.81 L 56.9,34.88 Z M 56.9,34.88" />
            </g>
            <g id="kazWhixxSide06-group820">
                <path id="kazWhixxSide06-bezier1089" stroke="none" fill="rgb(0, 0, 0)" d="M 62.46,50.25 C 61.42,49.08 60.29,47.99 59.1,46.98 57.91,45.98 56.64,45.06 55.26,44.37 54.57,44.01 53.85,43.8 53.09,43.51 52.36,43.21 51.64,42.86 50.95,42.46 49.58,41.64 48.31,40.67 47.24,39.44 L 47.68,39.5 C 45.71,41.01 43.91,42.85 42.6,44.95 41.28,47.05 40.52,49.49 40.95,51.89 41.29,54.3 42.3,56.64 43.84,58.58 45.38,60.51 47.37,62.19 49.76,63.05 L 49.73,63.14 C 47.2,62.61 44.97,61.02 43.24,59.09 41.52,57.12 40.3,54.67 39.92,52.03 39.71,50.73 39.81,49.32 40.18,48.05 40.55,46.77 41.16,45.58 41.88,44.49 43.35,42.32 45.2,40.49 47.31,38.96 L 47.55,38.79 47.75,39.03 C 48.71,40.18 49.93,41.18 51.23,41.99 51.89,42.4 52.57,42.75 53.28,43.06 53.97,43.36 54.76,43.62 55.45,44.01 56.85,44.77 58.1,45.75 59.27,46.79 60.44,47.85 61.53,48.98 62.53,50.19 L 62.46,50.25 Z M 62.46,50.25" />
            </g>
            <g id="kazWhixxSide06-group821">
                <path id="kazWhixxSide06-bezier1090" stroke="none" fill="rgb(0, 0, 0)" d="M 55.8,63.2 C 57.71,64.34 59.72,65.31 61.79,66.06 62.83,66.43 63.89,66.75 64.96,66.95 65.49,67.05 66.03,67.12 66.57,67.14 67.08,67.16 67.69,67.16 68.25,67.21 70.51,67.41 72.73,67.85 74.87,68.52 76.99,69.22 79.1,69.98 81.1,71.01 L 81.06,71.1 C 78.88,70.61 76.75,70 74.59,69.48 72.45,68.95 70.33,68.31 68.16,68.01 67.61,67.93 67.11,67.91 66.51,67.87 65.94,67.81 65.38,67.71 64.82,67.58 63.72,67.33 62.65,66.95 61.61,66.52 59.55,65.64 57.59,64.54 55.74,63.29 L 55.8,63.2 Z M 55.8,63.2" />
            </g>
            <g id="kazWhixxSide06-group822">
                <path id="kazWhixxSide06-bezier1091" stroke="none" fill="rgb(0, 0, 0)" d="M 81.12,72.58 C 80.01,74.76 78.98,77.04 78.48,79.4 78.25,80.56 78.31,81.82 78.26,83.04 L 78.16,86.74 C 78.09,89.21 78.04,91.68 77.7,94.14 77.51,95.37 77.32,96.6 77.02,97.81 76.72,99.01 76.37,100.24 75.71,101.31 L 75.62,101.26 C 76.01,100.1 76.18,98.89 76.34,97.68 76.49,96.47 76.62,95.25 76.71,94.03 76.91,91.59 77.18,89.15 77.36,86.7 L 77.61,83.01 C 77.72,81.78 77.7,80.56 77.99,79.3 78.64,76.86 79.8,74.66 81.04,72.53 L 81.12,72.58 Z M 81.12,72.58" />
            </g>
            <g id="kazWhixxSide06-group823">
                <path id="kazWhixxSide06-bezier1092" stroke="none" fill="rgb(0, 0, 0)" d="M 60.85,51.12 C 66.07,52.08 71.2,53.58 76.14,55.62 78.61,56.63 81.05,57.75 83.3,59.23 85.52,60.73 87.65,62.43 89.29,64.55 L 89.22,64.62 C 87.18,62.91 85.04,61.39 82.77,60.08 80.51,58.74 78.22,57.45 75.82,56.35 73.42,55.25 70.96,54.29 68.45,53.44 65.95,52.58 63.41,51.82 60.83,51.21 L 60.85,51.12 Z M 60.85,51.12" />
            </g>
            <g id="kazWhixxSide06-group824">
                <path id="kazWhixxSide06-bezier1093" stroke="none" fill="rgb(0, 0, 0)" d="M 90.85,71.71 C 90.2,74.49 89.5,77.29 89.16,80.09 89.14,80.26 89.13,80.44 89.14,80.6 89.16,80.72 89.15,81.02 89.11,81.18 89.05,81.55 88.97,81.9 88.88,82.25 88.7,82.95 88.5,83.63 88.29,84.32 L 87.03,88.43 84.43,96.61 C 84,97.97 83.55,99.33 83.11,100.68 82.67,102.02 82.15,103.4 81.88,104.71 L 81.76,105.28 81.29,105.01 C 80.4,104.49 79.48,103.97 78.54,103.52 78.07,103.3 77.6,103.08 77.11,102.91 76.64,102.75 76.11,102.54 75.64,102.7 L 75.59,102.61 C 76.12,102.34 76.69,102.5 77.21,102.59 77.73,102.71 78.24,102.86 78.74,103.05 79.74,103.42 80.72,103.83 81.68,104.31 L 81.09,104.61 C 81.33,103.1 81.75,101.77 82.15,100.38 82.56,99 83.01,97.64 83.48,96.29 L 86.35,88.2 87.74,84.15 C 87.96,83.47 88.18,82.79 88.38,82.11 88.47,81.77 88.57,81.43 88.64,81.09 88.71,80.83 88.65,80.4 88.72,80.04 89.19,77.18 89.99,74.44 90.75,71.68 L 90.85,71.71 Z M 90.85,71.71" />
            </g>
            <g id="kazWhixxSide06-group825">
                <path id="kazWhixxSide06-bezier1094" stroke="none" fill="rgb(0, 0, 0)" d="M 73.88,108.55 L 74.61,106.27 C 74.73,105.9 74.76,105.49 74.95,105.17 75.13,104.82 75.37,104.55 75.6,104.19 L 75.7,104.17 C 76.03,104.61 75.95,105.1 75.89,105.5 75.82,105.92 75.54,106.25 75.34,106.6 74.93,107.3 74.47,107.96 73.97,108.6 L 73.88,108.55 Z M 73.88,108.55" />
            </g>
            <g id="kazWhixxSide06-group826">
                <path id="kazWhixxSide06-bezier1095" stroke="none" fill="rgb(0, 0, 0)" d="M 81.08,117.76 C 79.63,117.29 78.15,116.88 76.66,116.6 75.92,116.46 75.17,116.35 74.44,116.37 73.65,116.39 72.85,116.31 72.06,116.1 71.29,115.88 70.42,115.54 69.9,114.68 69.65,114.24 69.57,113.72 69.64,113.26 69.71,112.79 69.89,112.39 70.08,112.02 70.94,110.67 71.93,109.47 73.12,108.46 L 73.2,108.52 C 72.44,109.87 71.64,111.18 70.97,112.48 70.66,113.1 70.53,113.73 70.77,114.21 71,114.71 71.63,115.1 72.29,115.34 72.97,115.57 73.71,115.69 74.45,115.72 75.25,115.75 76.02,115.92 76.77,116.12 78.26,116.53 79.7,117.07 81.12,117.67 L 81.08,117.76 Z M 81.08,117.76" />
            </g>
            <g id="kazWhixxSide06-group827">
                <path id="kazWhixxSide06-bezier1096" stroke="none" fill="rgb(0, 0, 0)" d="M 74.72,109.43 C 75.3,109.88 75.91,110.25 76.53,110.5 76.85,110.62 77.18,110.62 77.45,110.77 77.73,110.9 78,111.03 78.39,111.25 L 78.41,111.35 C 78.09,111.68 77.63,111.77 77.21,111.74 76.78,111.71 76.45,111.42 76.14,111.19 75.51,110.73 75.02,110.14 74.65,109.5 L 74.72,109.43 Z M 74.72,109.43" />
            </g>
            <g id="kazWhixxSide06-group828">
                <path id="kazWhixxSide06-bezier1097" stroke="none" fill="rgb(0, 0, 0)" d="M 79.98,110.37 C 80.24,110.08 80.54,109.82 80.93,109.69 81.13,109.63 81.37,109.62 81.57,109.72 81.78,109.82 81.91,110.01 82.03,110.13 82.55,110.67 83.1,111.2 83.65,111.71 84.2,112.22 84.77,112.72 85.35,113.19 85.64,113.42 85.94,113.64 86.25,113.84 86.54,114.03 86.88,114.23 87.11,114.24 87.94,114.36 88.67,114.61 89.41,114.91 90.14,115.25 90.87,115.59 91.44,116.41 91.57,116.6 91.67,116.97 91.66,117.19 91.65,117.41 91.67,117.64 91.53,117.95 91.38,118.29 91.01,118.46 90.8,118.49 90.56,118.54 90.36,118.54 90.15,118.54 89.36,118.51 88.61,118.41 87.85,118.27 L 87.85,118.17 C 88.61,118.02 89.38,117.96 90.1,117.84 90.46,117.79 90.81,117.65 90.72,117.6 90.73,117.56 90.74,117.4 90.72,117.25 90.7,117.09 90.68,117.08 90.6,116.95 90.28,116.52 89.61,116.13 88.99,115.81 88.35,115.48 87.66,115.18 86.99,115.03 86.46,114.92 86.16,114.66 85.83,114.43 85.51,114.2 85.22,113.94 84.93,113.68 84.36,113.16 83.83,112.62 83.3,112.06 82.78,111.5 82.28,110.93 81.8,110.33 81.59,109.99 81.36,109.8 80.99,109.88 80.65,109.96 80.33,110.19 80.06,110.44 L 79.98,110.37 Z M 79.98,110.37" />
            </g>
            <g id="kazWhixxSide06-group829">
                <path id="kazWhixxSide06-bezier1098" stroke="none" fill="rgb(0, 0, 0)" d="M 79.06,110 C 78.99,109.43 78.97,108.87 79.02,108.29 79.05,108.01 79.01,107.69 79.19,107.42 79.28,107.29 79.39,107.16 79.54,107.05 79.68,106.95 79.94,106.83 80.14,106.94 L 80.15,107.04 C 80.08,107.34 80.17,107.55 80.12,107.8 80.1,108.04 79.91,108.24 79.8,108.49 79.59,108.98 79.38,109.49 79.16,110.01 L 79.06,110 Z M 79.06,110" />
            </g>
            <g id="kazWhixxSide06-group830">
                <path id="kazWhixxSide06-bezier1099" stroke="none" fill="rgb(0, 0, 0)" d="M 63.29,136.21 C 62.69,136.55 61.99,136.68 61.31,136.78 60.97,136.83 60.63,136.9 60.29,136.87 59.95,136.83 59.61,136.79 59.27,136.64 L 59.27,136.59 C 59.61,136.45 59.95,136.42 60.28,136.37 60.62,136.33 60.95,136.38 61.29,136.38 61.95,136.37 62.62,136.36 63.27,136.16 L 63.29,136.21 Z M 63.29,136.21" />
            </g>
            <g id="kazWhixxSide06-group831">
                <path id="kazWhixxSide06-bezier1100" stroke="none" fill="rgb(0, 0, 0)" d="M 52.71,128.79 C 53.05,129.06 53.39,129.32 53.73,129.57 53.91,129.69 54.1,129.79 54.24,129.95 54.38,130.12 54.52,130.28 54.6,130.53 L 54.57,130.57 C 54.31,130.55 54.12,130.44 53.92,130.33 53.73,130.22 53.61,130.03 53.46,129.87 53.17,129.54 52.91,129.19 52.67,128.82 L 52.71,128.79 Z M 52.71,128.79" />
            </g>
            <g id="kazWhixxSide06-group832">
                <path id="kazWhixxSide06-bezier1101" stroke="none" fill="rgb(0, 0, 0)" d="M 89.91,64.97 C 90.73,65.66 91.3,66.66 91.58,67.74 91.71,68.28 91.87,68.85 91.75,69.41 91.63,69.96 91.42,70.5 91,70.92 L 90.9,70.89 C 90.79,70.32 90.78,69.82 90.75,69.33 90.72,68.85 90.83,68.37 90.79,67.87 90.76,67.38 90.66,66.89 90.5,66.42 90.35,65.94 90.14,65.46 89.84,65.04 L 89.91,64.97 Z M 89.91,64.97" />
            </g>
            <g id="kazWhixxSide06-group833">
                <path id="kazWhixxSide06-bezier1102" stroke="none" fill="rgb(0, 0, 0)" d="M 50.41,136.33 C 49.39,136.17 48.37,136.06 47.35,135.99 46.84,135.96 46.33,135.93 45.82,135.93 45.57,135.94 45.3,135.94 45.03,135.92 44.75,135.9 44.47,135.86 44.18,135.77 43.63,135.62 43.02,135.24 42.72,134.61 42.43,133.99 42.49,133.3 42.69,132.76 43.1,131.79 43.49,130.85 44.12,129.96 L 44.21,130 C 44.11,131.04 43.92,132.08 43.65,133.05 43.44,133.92 43.55,134.67 44.45,135.02 44.65,135.1 44.88,135.16 45.1,135.2 45.35,135.24 45.59,135.26 45.85,135.28 46.38,135.33 46.9,135.41 47.41,135.5 48.43,135.69 49.44,135.94 50.43,136.24 L 50.41,136.33 Z M 50.41,136.33" />
            </g>
            <g id="kazWhixxSide06-group834">
                <path id="kazWhixxSide06-bezier1103" stroke="none" fill="rgb(0, 0, 0)" d="M 54.63,99.53 C 54.86,98.25 55.16,96.96 55.7,95.73 55.97,95.12 56.24,94.46 56.76,93.98 57.27,93.5 57.94,93.12 58.65,93.09 L 58.69,93.19 C 58.23,93.71 57.86,94.15 57.51,94.64 57.18,95.13 56.74,95.57 56.41,96.1 55.75,97.17 55.23,98.36 54.73,99.56 L 54.63,99.53 Z M 54.63,99.53" />
            </g>
            <g id="kazWhixxSide06-group835">
                <path id="kazWhixxSide06-bezier1104" stroke="none" fill="rgb(0, 0, 0)" d="M 48.7,119.29 C 49.13,118.06 49.56,116.82 49.97,115.57 50.39,114.33 50.8,113.09 51.17,111.84 51.53,110.59 51.76,109.32 52.13,108.07 52.52,106.82 52.9,105.57 53.45,104.35 L 53.55,104.37 C 53.53,105.71 53.36,107.01 53.11,108.31 52.86,109.6 52.39,110.87 51.93,112.1 50.99,114.57 49.92,116.96 48.79,119.33 L 48.7,119.29 Z M 48.7,119.29" />
            </g>
            <g id="kazWhixxSide06-group836">
                <path id="kazWhixxSide06-bezier1105" stroke="none" fill="rgb(0, 0, 0)" d="M 53.98,124.36 C 52.85,124.16 51.71,123.97 50.59,123.75 50.03,123.65 49.46,123.55 48.9,123.47 48.35,123.4 47.78,123.19 47.31,123.04 L 46.73,122.85 46.97,122.48 C 47.2,122.13 47.47,121.79 47.78,121.48 L 47.88,121.51 C 47.87,121.96 47.8,122.39 47.7,122.8 L 47.37,122.25 C 48.04,122.23 48.58,122.32 49.14,122.5 L 50.77,123.07 C 51.86,123.43 52.94,123.84 54.01,124.26 L 53.98,124.36 Z M 53.98,124.36" />
            </g>
            <g id="kazWhixxSide06-group837">
                <path id="kazWhixxSide06-bezier1106" stroke="none" fill="rgb(0, 0, 0)" d="M 51.93,76.63 C 50.64,75.11 49.51,73.45 48.43,71.78 47.9,70.94 47.3,70.13 46.88,69.22 46.46,68.32 46.09,67.39 45.87,66.38 L 45.96,66.33 C 46.67,67.09 47.23,67.91 47.76,68.74 48.3,69.57 48.67,70.5 49.12,71.38 50.04,73.13 50.96,74.88 52.01,76.57 L 51.93,76.63 Z M 51.93,76.63" />
            </g>
            <g id="kazWhixxSide06-group838">
                <path id="kazWhixxSide06-bezier1107" stroke="none" fill="rgb(0, 0, 0)" d="M 58.21,90.73 C 57.68,88.95 57.12,87.18 56.51,85.44 56.2,84.57 55.79,83.74 55.54,82.86 55.28,81.98 55.03,81.11 54.84,80.17 L 54.93,80.12 C 55.61,80.81 56.09,81.66 56.48,82.51 56.88,83.37 57.05,84.31 57.27,85.21 57.72,87.03 58.07,88.86 58.3,90.71 L 58.21,90.73 Z M 58.21,90.73" />
            </g>
            <g id="kazWhixxSide06-group839">
                <path id="kazWhixxSide06-bezier1108" stroke="none" fill="rgb(0, 0, 0)" d="M 67.64,75.98 C 68.06,77.71 68.58,79.41 69.05,81.13 69.52,82.85 69.96,84.58 70.15,86.4 L 70.15,86.37 70.5,88.59 C 70.63,89.4 70.59,90.18 70.48,90.97 70.36,91.75 70.11,92.53 69.73,93.24 69.33,93.94 68.82,94.59 68.2,95.09 L 68.28,94.99 C 67.95,95.48 67.6,95.95 67.26,96.43 L 67.29,96.38 C 66.77,97.34 66.25,98.31 65.66,99.24 L 65.57,99.2 C 65.86,98.13 66.23,97.1 66.59,96.07 L 66.59,96.06 66.61,96.02 C 66.9,95.5 67.18,94.99 67.48,94.48 L 67.51,94.44 67.57,94.38 C 68.57,93.41 69.24,92.17 69.57,90.79 69.71,90.11 69.8,89.38 69.72,88.71 L 69.41,86.48 69.41,86.46 69.41,86.45 C 69.32,84.72 68.96,82.97 68.6,81.23 68.24,79.49 67.84,77.75 67.54,76 L 67.64,75.98 Z M 67.64,75.98" />
            </g>
            <g id="kazWhixxSide06-group840">
                <path id="kazWhixxSide06-bezier1109" stroke="none" fill="rgb(0, 0, 0)" d="M 66.14,69.13 C 66.43,69.69 66.7,70.27 66.93,70.85 67.04,71.14 67.24,71.41 67.24,71.73 67.25,72.05 67.22,72.38 67.02,72.74 L 66.92,72.76 C 66.58,72.52 66.41,72.25 66.27,71.96 66.13,71.68 66.18,71.35 66.15,71.04 66.09,70.42 66.05,69.79 66.04,69.15 L 66.14,69.13 Z M 66.14,69.13" />
            </g>
            <g id="kazWhixxSide06-group841">
                <path id="kazWhixxSide06-bezier1110" stroke="none" fill="rgb(0, 0, 0)" d="M 55.32,121.57 C 55.21,122.05 55.09,122.52 54.96,122.99 54.91,123.22 54.88,123.47 54.78,123.68 54.66,123.9 54.55,124.11 54.36,124.31 L 54.31,124.3 C 54.23,124.03 54.27,123.78 54.3,123.53 54.35,123.28 54.48,123.07 54.59,122.85 54.8,122.41 55.03,121.97 55.27,121.55 L 55.32,121.57 Z M 55.32,121.57" />
            </g>
            <g id="kazWhixxSide06-group842">
                <path id="kazWhixxSide06-bezier1111" stroke="none" fill="rgb(0, 0, 0)" d="M 59.17,112.81 L 57.78,116.26 C 57.55,116.83 57.35,117.42 57.07,117.98 56.78,118.53 56.51,119.08 56.13,119.6 L 56.09,119.58 C 56.2,118.95 56.41,118.36 56.62,117.78 56.83,117.19 57.14,116.65 57.41,116.09 57.96,114.98 58.53,113.88 59.13,112.78 L 59.17,112.81 Z M 59.17,112.81" />
            </g>
            <g id="kazWhixxSide06-group843">
                <path id="kazWhixxSide06-bezier1112" stroke="none" fill="rgb(0, 0, 0)" d="M 63.2,104.65 C 62.99,105.29 62.76,105.92 62.52,106.55 62.4,106.86 62.31,107.19 62.14,107.48 61.95,107.76 61.77,108.05 61.5,108.29 L 61.45,108.27 C 61.47,107.9 61.58,107.59 61.68,107.27 61.8,106.95 61.99,106.67 62.16,106.38 62.48,105.79 62.81,105.21 63.15,104.63 L 63.2,104.65 Z M 63.2,104.65" />
            </g>
            <g id="kazWhixxSide06-group844">
                <path id="kazWhixxSide06-bezier1113" stroke="none" fill="rgb(0, 0, 0)" d="M 52.13,127.25 C 52.11,127.53 52.08,127.81 52.05,128.07 52.04,128.21 52.05,128.35 51.99,128.47 51.91,128.58 51.85,128.69 51.7,128.81 L 51.65,128.8 C 51.52,128.65 51.52,128.49 51.5,128.35 51.51,128.2 51.6,128.08 51.66,127.96 51.79,127.71 51.93,127.47 52.08,127.24 L 52.13,127.25 Z M 52.13,127.25" />
            </g>
            <g id="kazWhixxSide06-group845">
                <path id="kazWhixxSide06-bezier1114" stroke="none" fill="rgb(0, 0, 0)" d="M 47.24,125.89 C 47.19,126.26 47.13,126.62 47.04,126.98 47,127.16 46.99,127.35 46.89,127.51 46.77,127.67 46.66,127.83 46.44,127.92 L 46.4,127.9 C 46.37,127.68 46.4,127.51 46.42,127.32 46.46,127.15 46.58,127 46.67,126.84 46.83,126.52 47.01,126.2 47.19,125.88 L 47.24,125.89 Z M 47.24,125.89" />
            </g>
            <g id="kazWhixxSide06-group846">
                <path id="kazWhixxSide06-bezier1115" stroke="none" fill="rgb(0, 0, 0)" d="M 64.51,47.33 C 64.2,47.69 63.9,48.05 63.62,48.39 63.47,48.56 63.41,48.8 63.23,48.88 63.15,48.93 63.06,48.97 62.97,49 62.88,49.04 62.76,49.01 62.65,49.14 L 62.56,49.18 C 62.37,49.09 62.32,48.82 62.35,48.66 62.36,48.49 62.42,48.35 62.48,48.22 62.62,47.97 62.89,47.89 63.11,47.77 63.54,47.54 63.99,47.37 64.45,47.24 L 64.51,47.33 Z M 64.51,47.33" />
            </g>
            <g id="kazWhixxSide06-group847">
                <path id="kazWhixxSide06-bezier1116" stroke="none" fill="rgb(0, 0, 0)" d="M 111.9,12.34 C 111.75,11.58 111.11,11.02 110.45,10.68 109.76,10.32 109,10.14 108.24,10.03 106.7,9.83 105.13,9.92 103.59,10.11 100.5,10.51 97.44,11.2 94.33,11.73 91.24,12.27 88.1,12.76 84.92,12.73 81.76,12.68 78.53,12.29 75.6,11.08 L 75.63,10.98 C 78.7,11.63 81.81,11.86 84.91,11.73 88,11.63 91.11,11.37 94.21,10.94 97.31,10.51 100.4,9.92 103.54,9.62 105.12,9.49 106.71,9.47 108.28,9.74 109.06,9.88 109.84,10.1 110.54,10.5 111.22,10.89 111.87,11.5 112,12.33 L 111.9,12.34 Z M 111.9,12.34" />
            </g>
            <g id="kazWhixxSide06-group848">
                <path id="kazWhixxSide06-bezier1117" stroke="none" fill="rgb(0, 0, 0)" d="M 110.28,18.6 C 109.71,19.83 108.51,20.69 107.2,20.99 105.88,21.31 104.5,21.14 103.21,20.78 100.71,19.96 98.16,19.46 95.57,19.09 92.98,18.74 90.37,18.59 87.77,18.45 85.17,18.3 82.57,18.26 79.97,18.63 L 79.94,18.54 C 82.45,17.6 85.16,17.48 87.8,17.45 90.46,17.47 93.09,17.84 95.69,18.3 98.29,18.77 100.89,19.39 103.35,20.3 104.57,20.71 105.87,20.93 107.14,20.7 108.39,20.48 109.58,19.72 110.19,18.56 L 110.28,18.6 Z M 110.28,18.6" />
            </g>
            <g id="kazWhixxSide06-group849">
                <path id="kazWhixxSide06-bezier1118" stroke="none" fill="rgb(0, 0, 0)" d="M 101.24,22.8 C 99.61,21.95 97.82,21.44 96.02,21.21 94.22,20.96 92.39,21.02 90.63,21.42 88.83,21.77 87.22,22.49 85.4,23.03 84.48,23.3 83.4,23.39 82.46,23.09 81.51,22.82 80.69,22.34 79.93,21.8 L 79.98,21.71 C 80.86,21.99 81.73,22.3 82.6,22.4 83.47,22.51 84.28,22.38 85.11,22.08 86.77,21.44 88.64,20.88 90.49,20.63 92.35,20.32 94.27,20.36 96.11,20.71 97.94,21.09 99.71,21.74 101.29,22.72 L 101.24,22.8 Z M 101.24,22.8" />
            </g>
            <g id="kazWhixxSide06-group850">
                <path id="kazWhixxSide06-bezier1119" stroke="none" fill="rgb(0, 0, 0)" d="M 110.29,14.89 C 107.76,15.28 105.21,15.52 102.64,15.57 101.36,15.6 100.06,15.65 98.78,15.44 97.51,15.22 96.21,14.89 95.08,14.23 L 95.11,14.13 C 96.4,14.27 97.63,14.37 98.89,14.44 100.14,14.52 101.39,14.69 102.66,14.77 105.19,14.89 107.74,14.9 110.28,14.79 L 110.29,14.89 Z M 110.29,14.89" />
            </g>
            <g id="kazWhixxSide06-group851">
                <path id="kazWhixxSide06-bezier1120" stroke="none" fill="rgb(0, 0, 0)" d="M 94.28,24.16 C 94.85,26.1 95.45,28.04 96.22,29.9 96.41,30.36 96.62,30.81 96.86,31.24 96.98,31.44 97.12,31.65 97.27,31.79 97.29,31.81 97.35,31.85 97.4,31.89 97.48,31.96 97.53,32.03 97.57,32.09 97.66,32.2 97.72,32.32 97.79,32.44 98.27,33.38 98.58,34.34 98.9,35.32 L 98.88,35.27 C 99.29,36.13 99.57,36.98 99.87,37.84 100.15,38.71 100.43,39.55 100.68,40.46 L 100.83,40.99 100.25,40.99 C 98.47,40.98 96.71,41.41 95.01,41.96 94.15,42.25 93.31,42.57 92.48,42.93 91.65,43.28 90.84,43.71 90.06,44.14 L 89.65,44.36 89.54,43.96 C 89.39,43.33 89.2,42.7 89,42.09 88.9,41.78 88.8,41.47 88.67,41.17 88.54,40.89 88.42,40.56 88.18,40.39 L 88.22,40.3 C 88.57,40.45 88.74,40.77 88.92,41.04 89.1,41.33 89.26,41.62 89.41,41.92 89.7,42.52 89.95,43.13 90.19,43.75 L 89.68,43.57 C 90.45,43 91.26,42.55 92.09,42.11 92.92,41.68 93.78,41.29 94.68,40.99 96.45,40.36 98.36,40.03 100.27,40.12 L 99.84,40.65 C 99.65,39.81 99.4,38.92 99.15,38.07 98.89,37.21 98.63,36.33 98.29,35.55 L 98.28,35.51 98.27,35.5 C 98,34.54 97.71,33.56 97.31,32.68 97.26,32.58 97.2,32.47 97.14,32.38 L 97.07,32.29 C 97.03,32.25 96.98,32.21 96.91,32.15 96.7,31.93 96.57,31.7 96.45,31.46 96.21,31 96.02,30.52 95.84,30.04 95.16,28.12 94.65,26.16 94.18,24.19 L 94.28,24.16 Z M 94.28,24.16" />
            </g>
            <g id="kazWhixxSide06-group852">
                <path id="kazWhixxSide06-bezier1121" stroke="none" fill="rgb(0, 0, 0)" d="M 95.11,24.13 C 95.74,24.11 96.37,24.05 96.91,23.9 97.19,23.82 97.38,23.62 97.56,23.59 97.74,23.53 97.92,23.49 98.23,23.19 L 98.33,23.2 C 98.6,23.53 98.49,24.1 98.14,24.4 97.79,24.73 97.36,24.69 97.02,24.69 96.31,24.68 95.68,24.49 95.08,24.23 L 95.11,24.13 Z M 95.11,24.13" />
            </g>
        </g>
        <path id="kazWhixxSide06-bezier1122" stroke="rgb(0, 0, 0)" stroke-width="2" stroke-miterlimit="10" fill="none" d="M 72,128.81 L 85.95,118.88" />
    </g>
</svg>
