<?xml version="1.0" encoding="UTF-8"?>
<!DOCTYPE svg PUBLIC "-//W3C//DTD SVG 1.1//EN" "http://www.w3.org/Graphics/SVG/1.1/DTD/svg11.dtd">
<svg version="1.1" xmlns="http://www.w3.org/2000/svg" xmlns:xlink="http://www.w3.org/1999/xlink" width="160" height="160"  xml:space="preserve" id="kazWhixxSide05">
    <!-- Generated by PaintCode - http://www.paintcodeapp.com -->
    <g id="kazWhixxSide05-group">
        <circle id="kazWhixxSide05-oval38" stroke="rgb(0, 0, 0)" stroke-width="2" stroke-miterlimit="10" fill="none" cx="126.42" cy="119.81" r="29" />
        <path id="kazWhixxSide05-bezier842" stroke="rgb(0, 0, 0)" stroke-width="2" stroke-miterlimit="10" fill="none" d="M 55.85,137.34 C 50.56,144.31 42.18,148.81 32.75,148.81 16.74,148.81 3.75,135.82 3.75,119.81 3.75,103.79 16.74,90.81 32.75,90.81 40.35,90.81 47.25,93.72 52.42,98.49" />
        <path id="kazWhixxSide05-bezier843" stroke="rgb(0, 0, 0)" stroke-width="2" stroke-miterlimit="10" fill="none" d="M 59.88,109.53 C 61.09,112.73 61.75,116.19 61.75,119.81 61.75,123.42 61.09,126.89 59.88,130.08" />
        <circle id="kazWhixxSide05-oval39" stroke="rgb(0, 0, 0)" stroke-width="2" stroke-miterlimit="10" fill="none" cx="71.26" cy="126.81" r="8.33" />
        <circle id="kazWhixxSide05-oval40" stroke="rgb(0, 0, 0)" stroke-width="2" stroke-miterlimit="10" fill="none" cx="32.76" cy="119.81" r="2.5" />
        <path id="kazWhixxSide05-bezier844" stroke="rgb(0, 0, 0)" stroke-width="2" stroke-miterlimit="10" fill="none" d="M 53.06,123.5 L 71.26,126.81" />
        <path id="kazWhixxSide05-bezier845" stroke="rgb(0, 0, 0)" stroke-width="2" stroke-miterlimit="10" fill="none" d="M 52.6,77.89 L 32.75,119.81 45.74,122.17" />
        <path id="kazWhixxSide05-bezier846" stroke="rgb(0, 0, 0)" stroke-width="2" stroke-miterlimit="10" fill="none" d="M 105.09,72.64 L 68.55,72.64" />
        <path id="kazWhixxSide05-bezier847" stroke="rgb(0, 0, 0)" stroke-width="2" stroke-miterlimit="10" fill="none" d="M 111.89,75.31 L 126.42,119.81" />
        <path id="kazWhixxSide05-bezier848" stroke="rgb(0, 0, 0)" stroke-width="2" stroke-miterlimit="10" fill="none" d="M 114.09,82.03 L 78.26,117.3" />
        <path id="kazWhixxSide05-bezier849" stroke="rgb(0, 0, 0)" stroke-width="2" stroke-miterlimit="10" fill="none" d="M 67.92,115.81 L 63.99,101.81" />
        <path id="kazWhixxSide05-bezier850" stroke="rgb(0, 0, 0)" stroke-width="2" stroke-miterlimit="10" fill="none" d="M 42.97,62.46 C 41.98,62.32 41.21,62.06 40.76,61.64 37.92,58.97 34.42,57.3 40.76,57.3" />
        <path id="kazWhixxSide05-bezier851" stroke="rgb(0, 0, 0)" stroke-width="1" stroke-miterlimit="10" fill="none" d="M 46.55,118.47 L 36.82,118.47" />
        <path id="kazWhixxSide05-bezier852" stroke="rgb(0, 0, 0)" stroke-width="1" stroke-miterlimit="10" fill="none" d="M 66.19,118.47 L 56.11,118.47" />
        <path id="kazWhixxSide05-bezier853" stroke="rgb(0, 0, 0)" stroke-width="1" stroke-miterlimit="10" fill="none" d="M 34.76,123.31 L 43.4,126.23" />
        <path id="kazWhixxSide05-bezier854" stroke="rgb(0, 0, 0)" stroke-width="2" stroke-miterlimit="10" fill="none" d="M 124.51,77.6 C 124.51,77.6 128.67,76.56 128.67,71.06 128.67,65.56 124.84,62.14 118.01,62.14 111.17,62.14 109.55,62.14 109.55,62.14" />
        <path id="kazWhixxSide05-bezier855" stroke="rgb(0, 0, 0)" stroke-width="2" stroke-miterlimit="10" fill="none" d="M 81.03,116.88 L 88.86,116.88" />
        <path id="kazWhixxSide05-bezier856" stroke="rgb(0, 0, 0)" stroke-width="2" stroke-miterlimit="10" fill="none" d="M 50.37,135.45 L 58.2,135.45" />
        <g id="kazWhixxSide05-group642">
            <g id="kazWhixxSide05-group643">
                <path id="kazWhixxSide05-bezier857" stroke="none" fill="rgb(0, 0, 0)" d="M 120.49,75.44 C 121.16,76.22 121.83,76.99 122.51,77.72 122.86,78.09 123.27,78.38 123.56,78.77 123.87,79.15 124.07,79.56 124.46,79.89 L 124.46,79.99 C 124.16,80.11 123.82,80.03 123.56,79.91 123.29,79.8 123.06,79.64 122.85,79.48 122.41,79.14 122.17,78.65 121.89,78.22 121.32,77.34 120.83,76.43 120.4,75.49 L 120.49,75.44 Z M 120.49,75.44" />
            </g>
            <g id="kazWhixxSide05-group644">
                <path id="kazWhixxSide05-bezier858" stroke="none" fill="rgb(0, 0, 0)" d="M 125.49,80.08 C 124.23,81.14 122.88,82.13 121.37,82.85 120.61,83.17 119.77,83.5 118.85,83.29 117.98,83.06 117.3,82.42 116.79,81.75 115.77,80.37 115.21,78.77 114.61,77.24 L 114.56,77.12 C 114.54,77.07 114.51,77.01 114.5,76.99 114.47,76.94 114.41,76.86 114.35,76.79 114.24,76.64 114.1,76.5 113.96,76.36 113.68,76.07 113.38,75.8 113.08,75.53 112.46,75 111.82,74.48 111.18,73.98 108.58,71.97 105.84,70.14 103.17,68.21 101.84,67.24 100.49,66.3 99.15,65.35 98.48,64.87 97.8,64.4 97.11,63.95 96.44,63.48 95.75,63.02 95.02,62.65 L 95.06,62.55 C 96.66,63.08 98.08,63.95 99.52,64.76 100.96,65.59 102.34,66.49 103.74,67.39 106.5,69.22 109.12,71.24 111.68,73.36 112.32,73.89 112.95,74.42 113.56,74.99 113.87,75.28 114.17,75.57 114.46,75.88 114.6,76.04 114.75,76.2 114.88,76.38 114.95,76.48 115.01,76.56 115.08,76.69 115.12,76.76 115.13,76.8 115.16,76.85 L 115.22,77.01 C 115.77,78.56 116.28,80.14 117.19,81.46 117.64,82.1 118.22,82.68 118.96,82.9 119.68,83.11 120.51,82.86 121.25,82.57 122.75,81.94 124.13,81.01 125.42,80 L 125.49,80.08 Z M 125.49,80.08" />
            </g>
            <g id="kazWhixxSide05-group645">
                <path id="kazWhixxSide05-bezier859" stroke="none" fill="rgb(0, 0, 0)" d="M 93.74,61.68 C 92.94,61.38 92.16,60.66 92.11,59.69 92.01,58.87 91.75,58.02 91.54,57.19 91.11,55.51 90.64,53.84 90.16,52.17 89.68,50.51 89.14,48.86 88.75,47.17 88.35,45.49 88.04,43.77 87.71,42.08 L 87.8,42.03 C 88.27,42.81 88.55,43.63 88.87,44.44 89.19,45.25 89.45,46.08 89.71,46.91 90.23,48.57 90.56,50.28 90.94,51.98 91.32,53.67 91.69,55.37 92.03,57.08 92.18,57.94 92.37,58.77 92.41,59.68 92.38,60.5 93.02,61.23 93.78,61.59 L 93.74,61.68 Z M 93.74,61.68" />
            </g>
            <g id="kazWhixxSide05-group646">
                <path id="kazWhixxSide05-bezier860" stroke="none" fill="rgb(0, 0, 0)" d="M 86.68,41.47 C 88.27,40.53 89.98,39.76 91.77,39.23 93.55,38.7 95.44,38.39 97.36,38.49 L 96.83,39.06 C 96.59,38.03 96.21,36.94 95.86,35.88 95.49,34.81 95.11,33.74 94.7,32.65 L 94.79,32.6 C 95.55,33.49 96.17,34.49 96.68,35.54 97.18,36.6 97.62,37.67 97.79,38.91 L 97.89,39.56 97.26,39.47 C 95.51,39.21 93.68,39.38 91.91,39.78 90.14,40.19 88.38,40.76 86.73,41.56 L 86.68,41.47 Z M 86.68,41.47" />
            </g>
            <g id="kazWhixxSide05-group647">
                <path id="kazWhixxSide05-bezier861" stroke="none" fill="rgb(0, 0, 0)" d="M 96.94,40.52 C 97.72,42.99 98.32,45.52 98.76,48.09 98.98,49.37 99.23,50.66 99.23,51.97 99.24,53.28 99.14,54.6 98.8,55.88 L 98.7,55.87 C 98.5,54.57 98.38,53.3 98.24,52.03 98.1,50.76 98.08,49.47 97.97,48.19 97.71,45.64 97.34,43.08 96.84,40.55 L 96.94,40.52 Z M 96.94,40.52" />
            </g>
            <g id="kazWhixxSide05-group648">
                <path id="kazWhixxSide05-bezier862" stroke="none" fill="rgb(0, 0, 0)" d="M 99.48,56.53 C 102.02,57.37 104.28,59.08 105.89,61.23 107.59,63.25 109.49,65.13 111.39,66.97 113.32,68.8 115.31,70.57 117.3,72.29 117.79,72.72 118.3,73.15 118.81,73.47 119.26,73.74 119.91,73.79 120.56,73.86 121.21,73.92 121.95,73.98 122.6,74.32 123.23,74.66 123.71,75.19 124.06,75.77 L 123.98,75.83 C 123.52,75.35 123,74.93 122.41,74.74 121.83,74.52 121.2,74.54 120.53,74.56 119.87,74.58 119.13,74.58 118.39,74.23 117.74,73.88 117.21,73.47 116.66,73.07 114.54,71.39 112.69,69.46 110.83,67.54 108.98,65.61 107.15,63.66 105.5,61.54 104.02,59.35 101.92,57.59 99.45,56.62 L 99.48,56.53 Z M 99.48,56.53" />
            </g>
            <g id="kazWhixxSide05-group649">
                <path id="kazWhixxSide05-bezier863" stroke="none" fill="rgb(0, 0, 0)" d="M 100.4,29.42 C 101.11,30.42 102.04,31.25 103.07,31.86 104.1,32.49 105.22,32.84 106.43,32.97 107.63,33.15 108.85,33.18 109.99,33.17 111.12,33.15 112.29,32.91 112.56,31.6 L 112.66,31.6 C 112.82,32.22 112.59,33.03 111.98,33.46 111.41,33.91 110.72,34.08 110.07,34.17 108.75,34.33 107.5,34.02 106.28,33.76 105.06,33.52 103.8,33.03 102.79,32.27 101.77,31.51 100.92,30.56 100.32,29.47 L 100.4,29.42 Z M 100.4,29.42" />
            </g>
            <g id="kazWhixxSide05-group650">
                <path id="kazWhixxSide05-bezier864" stroke="none" fill="rgb(0, 0, 0)" d="M 112.5,28.49 C 113.13,28.34 113.78,28.1 114.21,27.66 114.42,27.44 114.52,27.16 114.47,26.89 114.44,26.63 114.25,26.35 114.11,26.04 113.53,24.83 112.97,23.61 112.55,22.31 112.35,21.65 112.14,20.99 112.15,20.2 112.19,19.56 112.14,18.99 112.02,18.37 111.76,17.18 111.38,15.89 110.24,15.22 L 110.26,15.12 C 110.98,15.17 111.61,15.67 112.05,16.22 112.5,16.79 112.79,17.45 112.99,18.14 113.08,18.48 113.14,18.83 113.18,19.2 113.19,19.38 113.19,19.56 113.18,19.75 113.18,19.93 113.14,20.16 113.14,20.27 113.07,20.81 113.19,21.47 113.32,22.09 113.62,23.35 114.08,24.6 114.56,25.83 114.67,26.14 114.84,26.44 114.87,26.85 114.9,27.25 114.7,27.64 114.42,27.87 113.86,28.34 113.18,28.5 112.52,28.59 L 112.5,28.49 Z M 112.5,28.49" />
            </g>
            <g id="kazWhixxSide05-group651">
                <path id="kazWhixxSide05-bezier865" stroke="none" fill="rgb(0, 0, 0)" d="M 103.85,26.81 C 103.31,26.41 102.81,25.94 102.39,25.38 102.18,25.11 101.9,24.83 101.86,24.43 101.81,24.06 101.88,23.54 102.29,23.31 L 102.38,23.35 C 102.53,23.73 102.69,23.9 102.82,24.15 102.96,24.38 102.97,24.7 103.09,24.99 103.31,25.57 103.61,26.16 103.93,26.74 L 103.85,26.81 Z M 103.85,26.81" />
            </g>
            <g id="kazWhixxSide05-group652">
                <path id="kazWhixxSide05-bezier866" stroke="none" fill="rgb(0, 0, 0)" d="M 96.66,33.96 C 97.45,33.55 98.26,33.2 99.11,32.92 99.54,32.78 99.96,32.57 100.43,32.59 100.88,32.61 101.42,32.68 101.8,33.07 L 101.77,33.17 C 101.31,33.33 100.95,33.48 100.54,33.58 100.15,33.7 99.71,33.65 99.28,33.7 98.43,33.8 97.56,33.92 96.69,34.05 L 96.66,33.96 Z M 96.66,33.96" />
            </g>
            <g id="kazWhixxSide05-group653">
                <path id="kazWhixxSide05-bezier867" stroke="none" fill="rgb(0, 0, 0)" d="M 85.61,25.42 C 83.39,25.52 81.15,25.52 78.95,25.73 76.75,26.01 74.58,26.44 72.43,26.99 70.28,27.51 68.19,28.26 66.06,28.88 63.92,29.43 61.73,30.13 59.43,29.99 L 59.43,29.89 C 60.52,29.67 61.56,29.32 62.61,28.95 63.66,28.62 64.7,28.21 65.77,27.9 67.89,27.24 70.08,26.75 72.27,26.29 74.47,25.85 76.69,25.51 78.92,25.4 81.16,25.29 83.38,25.34 85.61,25.32 L 85.61,25.42 Z M 85.61,25.42" />
            </g>
            <g id="kazWhixxSide05-group654">
                <path id="kazWhixxSide05-bezier868" stroke="none" fill="rgb(0, 0, 0)" d="M 58.7,30.73 C 60.04,33.1 61.31,35.51 62.46,37.99 63.03,39.23 63.57,40.49 64.04,41.78 64.5,43.07 64.94,44.38 65.11,45.81 L 64.48,45.46 C 66.49,44.41 68.55,43.47 70.72,42.81 71.81,42.49 72.9,42.18 74.03,42.03 75.16,41.86 76.33,41.77 77.44,42.08 L 77.43,42.18 C 76.31,42.13 75.23,42.38 74.17,42.66 73.11,42.97 72.06,43.3 71.02,43.71 68.96,44.5 66.89,45.33 64.87,46.24 L 64.28,46.51 64.24,45.88 C 64.16,44.6 63.79,43.28 63.38,42 62.97,40.72 62.49,39.46 61.97,38.2 60.95,35.69 59.83,33.21 58.61,30.78 L 58.7,30.73 Z M 58.7,30.73" />
            </g>
            <g id="kazWhixxSide05-group655">
                <path id="kazWhixxSide05-bezier869" stroke="none" fill="rgb(0, 0, 0)" d="M 79.27,42.8 C 79.76,43.1 80.31,43.31 80.85,43.46 81.39,43.63 81.94,43.73 82.49,43.75 83.05,43.79 83.58,43.66 84.12,43.67 84.67,43.67 85.22,43.65 85.85,43.71 L 85.89,43.8 C 85.43,44.26 84.85,44.52 84.24,44.66 83.62,44.81 82.98,44.67 82.38,44.54 81.17,44.28 80.06,43.71 79.21,42.87 L 79.27,42.8 Z M 79.27,42.8" />
            </g>
            <g id="kazWhixxSide05-group656">
                <path id="kazWhixxSide05-bezier870" stroke="none" fill="rgb(0, 0, 0)" d="M 58.16,32.89 C 56.8,33.85 55.38,34.73 53.9,35.5 53.16,35.89 52.42,36.34 51.59,36.54 50.77,36.74 49.86,36.89 49,36.58 L 49.01,36.48 C 49.82,36.23 50.52,35.9 51.27,35.59 52,35.27 52.8,35.08 53.57,34.78 55.09,34.18 56.61,33.51 58.11,32.8 L 58.16,32.89 Z M 58.16,32.89" />
            </g>
            <g id="kazWhixxSide05-group657">
                <path id="kazWhixxSide05-bezier871" stroke="none" fill="rgb(0, 0, 0)" d="M 42.04,55.94 C 40.97,54.47 40.17,52.79 39.74,51.01 39.53,50.12 39.37,49.21 39.39,48.27 39.4,47.35 39.57,46.42 39.85,45.54 40.41,43.77 41.4,42.17 42.56,40.74 43.73,39.31 45.04,38.04 46.53,36.91 L 46.81,36.7 47.07,36.99 C 48.05,38.1 49.3,39.06 50.6,39.82 51.26,40.19 51.94,40.53 52.65,40.82 L 53.73,41.22 C 54.11,41.37 54.5,41.55 54.85,41.74 56.3,42.49 57.55,43.51 58.72,44.57 59.9,45.64 60.96,46.82 61.94,48.07 L 62.05,48.21 61.97,48.34 C 61.63,48.88 61.26,49.39 60.86,49.87 60.45,50.34 60.01,50.83 59.4,51.08 L 59.36,50.99 C 59.89,50.69 60.26,50.18 60.61,49.69 60.96,49.18 61.27,48.64 61.54,48.11 L 61.57,48.38 C 60.51,47.25 59.35,46.2 58.17,45.21 56.98,44.23 55.71,43.34 54.38,42.65 53.71,42.29 53.03,42.09 52.25,41.76 51.51,41.44 50.79,41.07 50.11,40.64 48.74,39.77 47.5,38.76 46.44,37.48 L 46.98,37.56 C 45.55,38.58 44.21,39.81 43.05,41.16 41.9,42.51 40.91,44.02 40.32,45.7 40.02,46.53 39.83,47.4 39.79,48.29 39.74,49.17 39.86,50.06 40.03,50.94 40.39,52.7 41.11,54.38 42.12,55.88 L 42.04,55.94 Z M 42.04,55.94" />
            </g>
            <g id="kazWhixxSide05-group658">
                <path id="kazWhixxSide05-bezier872" stroke="none" fill="rgb(0, 0, 0)" d="M 78.48,74.5 C 78.12,75.49 77.8,76.49 77.62,77.51 77.45,78.51 77.5,79.58 77.46,80.62 77.42,82.72 77.38,84.82 77.3,86.93 77.22,89.03 77.16,91.14 76.83,93.23 76.45,95.3 76.1,97.46 74.97,99.31 L 74.88,99.26 C 75.46,97.26 75.64,95.18 75.84,93.11 L 76.5,86.88 C 76.68,84.79 76.82,82.69 76.96,80.6 77.06,79.55 77.08,78.5 77.32,77.45 77.58,76.41 77.96,75.42 78.39,74.46 L 78.48,74.5 Z M 78.48,74.5" />
            </g>
            <g id="kazWhixxSide05-group659">
                <path id="kazWhixxSide05-bezier873" stroke="none" fill="rgb(0, 0, 0)" d="M 79.83,71.39 L 80.29,70.42 C 80.41,70.1 80.51,69.74 80.46,69.44 80.43,69.29 80.38,69.24 80.23,69.19 L 79.72,69.03 78.69,68.73 C 77.32,68.31 75.94,67.92 74.56,67.57 73.18,67.22 71.77,66.98 70.41,66.61 69.03,66.25 67.67,65.9 66.26,65.58 L 66.26,65.48 C 67.72,65.25 69.19,65.4 70.62,65.63 72.05,65.87 73.42,66.36 74.79,66.81 76.15,67.26 77.51,67.75 78.85,68.27 L 79.85,68.67 80.35,68.88 C 80.55,68.93 80.77,69.19 80.75,69.4 80.77,70.24 80.26,70.82 79.92,71.43 L 79.83,71.39 Z M 79.83,71.39" />
            </g>
            <g id="kazWhixxSide05-group660">
                <path id="kazWhixxSide05-bezier874" stroke="none" fill="rgb(0, 0, 0)" d="M 61.85,49.5 C 66.75,50.53 71.59,51.99 76.22,53.98 78.54,54.97 80.84,56.05 82.94,57.47 85.02,58.91 87.01,60.54 88.55,62.55 L 88.48,62.62 C 86.54,61.02 84.54,59.57 82.4,58.31 80.28,57.03 78.14,55.78 75.89,54.71 73.64,53.64 71.33,52.69 68.98,51.85 66.63,51 64.25,50.24 61.83,49.6 L 61.85,49.5 Z M 61.85,49.5" />
            </g>
            <g id="kazWhixxSide05-group661">
                <path id="kazWhixxSide05-bezier875" stroke="none" fill="rgb(0, 0, 0)" d="M 88.93,74.48 C 88.69,75.68 88.45,76.88 88.33,78.09 88.29,78.4 88.34,78.66 88.31,79.01 88.27,79.33 88.2,79.63 88.13,79.93 87.99,80.53 87.83,81.13 87.66,81.72 86.99,84.08 86.23,86.42 85.5,88.75 L 83.3,95.77 82.19,99.26 C 81.84,100.42 81.39,101.6 81.16,102.71 L 81.04,103.31 80.54,103.03 C 79.65,102.52 78.73,102 77.8,101.54 77.33,101.32 76.86,101.1 76.37,100.92 75.9,100.76 75.37,100.55 74.9,100.7 L 74.85,100.61 C 75.38,100.33 75.96,100.49 76.47,100.57 77,100.68 77.51,100.85 78.01,101.03 79.02,101.39 79.99,101.8 80.95,102.29 L 80.33,102.61 C 80.53,101.3 80.86,100.15 81.22,98.96 81.56,97.78 81.97,96.62 82.37,95.46 L 84.84,88.53 C 85.66,86.22 86.47,83.91 87.25,81.59 87.44,81.01 87.63,80.43 87.8,79.84 87.88,79.55 87.96,79.26 88.01,78.97 88.04,78.72 88.02,78.35 88.07,78.06 88.25,76.83 88.54,75.64 88.83,74.45 L 88.93,74.48 Z M 88.93,74.48" />
            </g>
            <g id="kazWhixxSide05-group662">
                <path id="kazWhixxSide05-bezier876" stroke="none" fill="rgb(0, 0, 0)" d="M 89.63,71.16 L 89.84,70.01 C 89.88,69.81 89.92,69.64 89.88,69.44 89.87,69.24 89.87,69.04 89.86,68.84 L 89.86,68.84 89.87,68.81 C 90.13,67.83 90.09,66.83 89.94,65.89 89.82,64.94 89.54,64.01 89.1,63.04 L 89.17,62.97 C 90.13,63.55 90.72,64.62 90.96,65.72 91.15,66.85 90.9,67.99 90.55,69.01 L 90.56,68.98 C 90.48,69.16 90.41,69.34 90.32,69.52 90.22,69.7 90.16,69.9 90.1,70.08 L 89.73,71.18 89.63,71.16 Z M 89.63,71.16" />
            </g>
            <g id="kazWhixxSide05-group663">
                <path id="kazWhixxSide05-bezier877" stroke="none" fill="rgb(0, 0, 0)" d="M 73.15,106.55 L 73.87,104.27 C 73.99,103.9 74.02,103.49 74.21,103.17 74.39,102.82 74.63,102.55 74.86,102.19 L 74.96,102.17 C 75.29,102.61 75.21,103.1 75.15,103.5 75.08,103.92 74.8,104.25 74.6,104.6 74.19,105.3 73.73,105.96 73.23,106.6 L 73.15,106.55 Z M 73.15,106.55" />
            </g>
            <g id="kazWhixxSide05-group664">
                <path id="kazWhixxSide05-bezier878" stroke="none" fill="rgb(0, 0, 0)" d="M 78.1,114.99 C 76.82,114.67 75.5,114.37 74.2,114.32 72.9,114.35 71.44,114.31 70.14,113.57 69.49,113.23 68.89,112.44 68.9,111.58 68.89,110.74 69.29,110.04 69.66,109.47 70.43,108.36 71.32,107.31 72.38,106.46 L 72.46,106.52 C 71.82,107.72 71.14,108.85 70.51,110 70.18,110.55 69.93,111.09 69.89,111.59 69.84,112.09 70.09,112.55 70.58,112.9 71.06,113.23 71.67,113.45 72.29,113.59 72.93,113.74 73.53,113.76 74.24,113.82 75.61,114.01 76.88,114.45 78.13,114.9 L 78.1,114.99 Z M 78.1,114.99" />
            </g>
            <g id="kazWhixxSide05-group665">
                <path id="kazWhixxSide05-bezier879" stroke="none" fill="rgb(0, 0, 0)" d="M 73.98,107.43 C 74.56,107.88 75.17,108.25 75.79,108.5 76.11,108.62 76.44,108.62 76.71,108.77 76.99,108.9 77.26,109.03 77.65,109.25 L 77.67,109.35 C 77.35,109.68 76.89,109.77 76.47,109.74 76.04,109.71 75.71,109.42 75.4,109.19 74.77,108.73 74.28,108.14 73.91,107.5 L 73.98,107.43 Z M 73.98,107.43" />
            </g>
            <g id="kazWhixxSide05-group666">
                <path id="kazWhixxSide05-bezier880" stroke="none" fill="rgb(0, 0, 0)" d="M 85.47,112.19 C 85.65,112.29 85.84,112.38 86.03,112.45 86.21,112.52 86.4,112.51 86.63,112.55 87.06,112.61 87.48,112.71 87.89,112.84 88.7,113.12 89.51,113.43 90.24,114.03 90.43,114.18 90.61,114.36 90.75,114.61 90.82,114.75 90.89,114.89 90.91,115.06 90.93,115.2 90.94,115.3 90.95,115.44 90.95,115.57 90.94,115.72 90.89,115.9 90.83,116.08 90.7,116.29 90.53,116.4 90.19,116.63 89.93,116.64 89.69,116.66 88.76,116.68 87.96,116.53 87.11,116.27 L 87.11,116.17 C 87.94,115.88 88.82,115.81 89.57,115.67 89.74,115.64 89.91,115.58 89.92,115.56 89.9,115.59 89.94,115.59 89.96,115.41 89.97,115.34 89.98,115.23 89.98,115.16 89.98,115.12 89.97,115.06 89.96,115.01 89.91,114.88 89.81,114.74 89.69,114.61 89.18,114.07 88.44,113.65 87.71,113.3 87.34,113.13 86.96,112.96 86.56,112.84 86.39,112.78 86.15,112.75 85.95,112.63 85.76,112.53 85.58,112.4 85.41,112.28 L 85.47,112.19 Z M 85.47,112.19" />
            </g>
            <g id="kazWhixxSide05-group667">
                <path id="kazWhixxSide05-bezier881" stroke="none" fill="rgb(0, 0, 0)" d="M 79.24,108.37 C 79.5,108.02 79.79,107.68 80.29,107.52 80.54,107.44 80.88,107.49 81.12,107.67 81.37,107.88 81.45,107.98 81.62,108.12 81.92,108.4 82.29,108.61 82.52,108.95 82.76,109.29 82.97,109.66 83.08,110.15 L 83.01,110.22 C 82.52,110.12 82.14,109.9 81.8,109.65 81.46,109.39 81.27,109 81.02,108.65 L 80.7,108.17 C 80.62,108.07 80.52,108.01 80.36,108.01 80.04,107.99 79.64,108.2 79.32,108.43 L 79.24,108.37 Z M 79.24,108.37" />
            </g>
            <g id="kazWhixxSide05-group668">
                <path id="kazWhixxSide05-bezier882" stroke="none" fill="rgb(0, 0, 0)" d="M 78.32,108 C 78.25,107.43 78.23,106.87 78.28,106.29 78.31,106.01 78.27,105.69 78.45,105.42 78.54,105.29 78.65,105.16 78.8,105.05 78.94,104.95 79.19,104.83 79.4,104.94 L 79.41,105.04 C 79.34,105.34 79.43,105.55 79.38,105.8 79.36,106.04 79.17,106.24 79.06,106.49 78.85,106.98 78.64,107.49 78.42,108.01 L 78.32,108 Z M 78.32,108" />
            </g>
            <g id="kazWhixxSide05-group669">
                <path id="kazWhixxSide05-bezier883" stroke="none" fill="rgb(0, 0, 0)" d="M 51.99,126.77 C 53.09,127.86 54.34,128.83 55.74,129.42 56.42,129.71 57.2,129.83 57.95,130.04 58.71,130.23 59.47,130.44 60.23,130.68 60.98,130.93 61.74,131.19 62.48,131.59 62.84,131.81 63.22,132.04 63.54,132.48 63.68,132.71 63.81,132.99 63.79,133.36 63.79,133.41 63.75,133.67 63.68,133.8 63.62,133.95 63.52,134.08 63.42,134.18 63,134.58 62.55,134.69 62.14,134.79 61.72,134.87 61.31,134.91 60.91,134.9 60.1,134.91 59.31,134.82 58.53,134.67 L 58.53,134.57 C 59.32,134.43 60.09,134.36 60.84,134.21 61.21,134.13 61.58,134.06 61.91,133.94 62.24,133.83 62.57,133.67 62.69,133.5 62.72,133.46 62.75,133.43 62.75,133.4 62.77,133.35 62.76,133.42 62.77,133.28 62.77,133.26 62.75,133.15 62.68,133.06 62.54,132.86 62.27,132.63 61.97,132.44 61.37,132.04 60.66,131.73 59.96,131.44 59.24,131.16 58.51,130.91 57.77,130.66 57.04,130.41 56.27,130.24 55.53,129.87 54.1,129.12 52.93,128.03 51.91,126.84 L 51.99,126.77 Z M 51.99,126.77" />
            </g>
            <g id="kazWhixxSide05-group670">
                <path id="kazWhixxSide05-bezier884" stroke="none" fill="rgb(0, 0, 0)" d="M 49.67,134.33 C 48.44,134.12 47.19,133.98 45.95,133.92 45.33,133.87 44.74,133.93 44.05,133.85 43.39,133.76 42.63,133.5 42.19,132.81 41.75,132.12 41.81,131.29 42,130.63 42.18,130.03 42.37,129.44 42.59,128.85 42.82,128.26 43.07,127.66 43.41,127.1 43.59,126.82 43.77,126.55 44.01,126.29 44.24,126.07 44.56,125.79 44.93,125.86 L 44.93,125.96 C 44.66,126.05 44.5,126.3 44.38,126.56 44.24,126.82 44.14,127.1 44.05,127.39 43.87,127.97 43.7,128.56 43.54,129.16 43.36,129.75 43.18,130.37 42.94,130.95 42.73,131.45 42.67,131.99 42.88,132.4 43.08,132.82 43.6,133.09 44.16,133.21 44.71,133.32 45.38,133.32 46,133.42 47.25,133.61 48.48,133.89 49.69,134.23 L 49.67,134.33 Z M 49.67,134.33" />
            </g>
            <g id="kazWhixxSide05-group671">
                <path id="kazWhixxSide05-bezier885" stroke="none" fill="rgb(0, 0, 0)" d="M 53.24,122.36 L 49.91,121.53 48.24,121.14 C 47.69,121.02 47.11,120.88 46.59,120.83 L 46.33,120.81 46.42,120.56 C 47.43,118.09 48.41,115.61 49.32,113.1 49.77,111.85 50.23,110.59 50.61,109.33 50.99,108.06 51.29,106.77 51.58,105.47 52.14,102.87 52.62,100.24 53.44,97.66 53.84,96.37 54.3,95.08 54.99,93.88 55.65,92.71 56.61,91.56 57.91,91.09 L 57.95,91.19 C 56.79,91.85 56.07,92.99 55.53,94.16 55.01,95.36 54.63,96.62 54.31,97.9 53.69,100.47 53.17,103.09 52.48,105.69 52.15,106.99 51.78,108.28 51.35,109.56 50.92,110.85 50.43,112.09 49.94,113.34 48.94,115.82 47.89,118.29 46.78,120.72 L 46.61,120.45 C 47.22,120.54 47.76,120.69 48.32,120.84 L 49.97,121.29 53.27,122.26 53.24,122.36 Z M 53.24,122.36" />
            </g>
            <g id="kazWhixxSide05-group672">
                <path id="kazWhixxSide05-bezier886" stroke="none" fill="rgb(0, 0, 0)" d="M 57.47,88.73 C 56.8,85.94 56.01,83.17 54.94,80.53 54.4,79.23 53.81,77.89 52.91,76.88 52.69,76.62 52.44,76.48 52.12,76.18 51.84,75.92 51.6,75.64 51.36,75.36 50.89,74.79 50.46,74.21 50.05,73.61 48.41,71.22 46.9,68.76 45.59,66.2 44.95,64.9 44.31,63.62 43.73,62.3 43.17,60.96 42.55,59.67 42.22,58.23 L 42.32,58.22 C 42.58,58.85 42.96,59.49 43.3,60.11 L 44.35,61.98 46.47,65.72 C 47.89,68.21 49.19,70.76 50.72,73.17 51.1,73.76 51.5,74.35 51.93,74.91 52.14,75.18 52.36,75.45 52.6,75.69 52.79,75.9 53.16,76.15 53.4,76.45 54.37,77.63 54.9,79 55.41,80.35 56.37,83.08 57.03,85.89 57.57,88.71 L 57.47,88.73 Z M 57.47,88.73" />
            </g>
            <g id="kazWhixxSide05-group673">
                <path id="kazWhixxSide05-bezier887" stroke="none" fill="rgb(0, 0, 0)" d="M 60.14,51.82 C 61.58,54.43 62.76,57.16 63.84,59.93 64.89,62.71 65.8,65.54 66.58,68.41 67.36,71.28 68.07,74.19 68.47,77.14 68.84,80.1 69.09,83.07 68.98,86.05 L 68.88,86.06 C 68.41,83.12 68.02,80.2 67.48,77.3 66.96,74.4 66.48,71.49 65.8,68.61 65.13,65.74 64.32,62.89 63.37,60.1 62.42,57.3 61.37,54.52 60.06,51.87 L 60.14,51.82 Z M 60.14,51.82" />
            </g>
            <g id="kazWhixxSide05-group674">
                <path id="kazWhixxSide05-bezier888" stroke="none" fill="rgb(0, 0, 0)" d="M 69.44,86.8 C 69.68,87.89 69.64,89.06 69.34,90.18 69.18,90.73 69.03,91.33 68.64,91.78 68.25,92.23 67.77,92.61 67.17,92.78 L 67.11,92.7 C 67.33,92.13 67.58,91.68 67.81,91.23 68.02,90.77 68.37,90.38 68.59,89.9 68.81,89.43 68.98,88.93 69.1,88.41 69.24,87.9 69.33,87.36 69.34,86.81 L 69.44,86.8 Z M 69.44,86.8" />
            </g>
            <g id="kazWhixxSide05-group675">
                <path id="kazWhixxSide05-bezier889" stroke="none" fill="rgb(0, 0, 0)" d="M 66.24,94.24 L 63.29,101.36 61.75,104.9 60.95,106.66 C 60.81,106.95 60.68,107.24 60.5,107.54 60.38,107.75 60.34,107.79 60.26,107.95 L 60.05,108.36 C 58.94,110.65 57.98,113.04 56.88,115.35 L 55.23,118.82 C 54.69,119.98 54.11,121.13 53.65,122.32 L 53.55,122.3 C 54.01,119.72 55.04,117.35 55.97,114.95 56.96,112.57 58.11,110.28 59.34,107.99 L 59.58,107.56 C 59.65,107.43 59.81,107.22 59.85,107.15 60.01,106.9 60.16,106.61 60.3,106.33 L 61.17,104.62 62.84,101.16 66.15,94.2 66.24,94.24 Z M 66.24,94.24" />
            </g>
            <g id="kazWhixxSide05-group676">
                <path id="kazWhixxSide05-bezier890" stroke="none" fill="rgb(0, 0, 0)" d="M 52.31,122.87 C 52.19,123.57 52.05,124.26 51.9,124.94 51.83,125.28 51.84,125.64 51.66,125.94 51.5,126.25 51.3,126.52 50.98,126.81 L 50.88,126.8 C 50.65,126.4 50.67,126 50.71,125.64 50.75,125.28 50.99,124.98 51.15,124.67 51.47,124.04 51.83,123.42 52.22,122.83 L 52.31,122.87 Z M 52.31,122.87" />
            </g>
            <g id="kazWhixxSide05-group677">
                <path id="kazWhixxSide05-bezier891" stroke="none" fill="rgb(0, 0, 0)" d="M 47.23,121.67 C 47.15,122.44 47.03,123.19 46.88,123.94 46.8,124.31 46.8,124.71 46.59,125.05 46.4,125.38 46.16,125.72 45.72,125.94 L 45.64,125.88 C 45.57,125.44 45.59,125.07 45.66,124.7 45.72,124.33 45.96,124.02 46.12,123.68 46.44,123 46.78,122.32 47.13,121.64 L 47.23,121.67 Z M 47.23,121.67" />
            </g>
            <g id="kazWhixxSide05-group678">
                <path id="kazWhixxSide05-bezier892" stroke="none" fill="rgb(0, 0, 0)" d="M 45.7,126.96 C 46.59,127.05 47.48,127.13 48.35,127.19 48.79,127.22 49.23,127.14 49.64,127.24 50.06,127.33 50.44,127.45 50.92,127.61 L 50.95,127.71 C 50.56,128.1 50.04,128.2 49.58,128.24 49.1,128.28 48.66,128.09 48.22,127.98 47.34,127.74 46.49,127.43 45.67,127.05 L 45.7,126.96 Z M 45.7,126.96" />
            </g>
            <g id="kazWhixxSide05-group679">
                <path id="kazWhixxSide05-bezier893" stroke="none" fill="rgb(0, 0, 0)" d="M 110.12,14.73 C 109.98,13.98 109.34,13.41 108.67,13.07 107.98,12.72 107.22,12.53 106.46,12.43 104.93,12.23 103.36,12.31 101.82,12.51 98.73,12.91 95.66,13.6 92.56,14.12 89.46,14.66 86.32,15.15 83.14,15.12 79.98,15.07 76.76,14.68 73.82,13.47 L 73.85,13.38 C 76.93,14.02 80.03,14.25 83.13,14.12 86.23,14.02 89.33,13.76 92.43,13.33 95.53,12.91 98.62,12.32 101.76,12.01 103.34,11.88 104.94,11.86 106.51,12.13 107.29,12.28 108.07,12.5 108.76,12.9 109.45,13.29 110.1,13.9 110.22,14.73 L 110.12,14.73 Z M 110.12,14.73" />
            </g>
            <g id="kazWhixxSide05-group680">
                <path id="kazWhixxSide05-bezier894" stroke="none" fill="rgb(0, 0, 0)" d="M 108.5,21 C 107.94,22.22 106.74,23.09 105.42,23.39 104.1,23.7 102.72,23.53 101.43,23.18 98.93,22.35 96.38,21.85 93.79,21.49 91.2,21.13 88.59,20.99 85.99,20.84 83.39,20.69 80.79,20.66 78.19,21.03 L 78.16,20.93 C 80.67,19.99 83.39,19.87 86.02,19.84 88.68,19.86 91.31,20.23 93.91,20.7 96.51,21.16 99.11,21.78 101.58,22.7 102.79,23.1 104.1,23.33 105.36,23.1 106.61,22.88 107.8,22.11 108.41,20.96 L 108.5,21 Z M 108.5,21" />
            </g>
            <g id="kazWhixxSide05-group681">
                <path id="kazWhixxSide05-bezier895" stroke="none" fill="rgb(0, 0, 0)" d="M 100,27.49 C 99.7,26.91 99.35,26.36 98.94,25.86 98.53,25.38 98.05,24.9 97.51,24.76 96.99,24.67 96.29,24.83 95.66,24.9 L 93.7,25.16 C 92.39,25.33 91.06,25.52 89.71,25.37 89.03,25.28 88.36,25.17 87.71,24.92 87.07,24.67 86.43,24.31 86.02,23.76 L 86.08,23.68 C 87.24,24.3 88.51,24.33 89.77,24.37 91.04,24.38 92.33,24.42 93.63,24.37 L 95.59,24.25 96.58,24.2 C 96.92,24.2 97.27,24.16 97.65,24.28 98.37,24.57 98.8,25.14 99.18,25.68 99.55,26.24 99.85,26.83 100.09,27.45 L 100,27.49 Z M 100,27.49" />
            </g>
            <g id="kazWhixxSide05-group682">
                <path id="kazWhixxSide05-bezier896" stroke="none" fill="rgb(0, 0, 0)" d="M 106.05,17.33 C 105.42,16.84 104.58,16.68 103.79,16.61 102.99,16.54 102.17,16.58 101.37,16.69 99.78,16.9 98.16,17.32 96.53,17.59 94.91,17.88 93.27,18.2 91.59,18.21 90.76,18.21 89.91,18.18 89.08,18.03 88.25,17.88 87.41,17.66 86.68,17.22 L 86.72,17.13 C 88.34,17.44 89.94,17.33 91.55,17.21 93.16,17.08 94.79,16.98 96.41,16.8 98.05,16.62 99.65,16.31 101.33,16.19 102.16,16.15 103,16.17 103.83,16.31 104.64,16.46 105.49,16.68 106.13,17.26 L 106.05,17.33 Z M 106.05,17.33" />
            </g>
            <g id="kazWhixxSide05-group683">
                <path id="kazWhixxSide05-bezier897" stroke="none" fill="rgb(0, 0, 0)" d="M 94.32,31.33 C 93.71,30.71 93.24,29.95 92.91,29.11 92.75,28.7 92.53,28.27 92.56,27.81 92.58,27.35 92.69,26.89 93,26.48 L 93.1,26.49 C 93.34,26.93 93.45,27.32 93.55,27.71 93.67,28.09 93.61,28.5 93.68,28.9 93.81,29.69 94.04,30.5 94.4,31.27 L 94.32,31.33 Z M 94.32,31.33" />
            </g>
            <g id="kazWhixxSide05-group684">
                <path id="kazWhixxSide05-bezier898" stroke="none" fill="rgb(0, 0, 0)" d="M 94.11,26.73 C 94.6,26.56 95.09,26.37 95.51,26.16 95.72,26.05 95.86,25.86 96.03,25.83 96.19,25.76 96.34,25.84 96.62,25.6 L 96.72,25.59 C 97.05,25.87 96.86,26.42 96.61,26.64 96.36,26.9 96.01,26.89 95.74,26.93 95.17,27 94.64,26.95 94.11,26.83 L 94.11,26.73 Z M 94.11,26.73" />
            </g>
        </g>
    </g>
</svg>
