<?xml version="1.0" encoding="UTF-8"?>
<!DOCTYPE svg PUBLIC "-//W3C//DTD SVG 1.1//EN" "http://www.w3.org/Graphics/SVG/1.1/DTD/svg11.dtd">
<svg version="1.1" xmlns="http://www.w3.org/2000/svg" xmlns:xlink="http://www.w3.org/1999/xlink" width="160" height="60"  xml:space="preserve" id="kazWhizzTop01">
    <!-- Generated by PaintCode - http://www.paintcodeapp.com -->
    <g id="kazWhizzTop01-group">
        <path id="kazWhizzTop01-bezier1524" stroke="rgb(0, 0, 0)" stroke-width="2" stroke-miterlimit="10" fill="none" d="M 111.99,30.56 L 156.86,30.56" />
        <path id="kazWhizzTop01-bezier1525" stroke="rgb(0, 0, 0)" stroke-width="2" stroke-miterlimit="10" fill="none" d="M 3.47,30.56 L 33.49,30.56" />
        <path id="kazWhizzTop01-bezier1526" stroke="rgb(0, 0, 0)" stroke-width="2" stroke-miterlimit="10" fill="none" d="M 106.79,18.56 L 106.79,21.43" />
        <path id="kazWhizzTop01-bezier1527" stroke="rgb(0, 0, 0)" stroke-width="2" stroke-miterlimit="10" fill="none" d="M 121.67,13.55 L 128.04,13.55" />
        <path id="kazWhizzTop01-bezier1528" stroke="rgb(0, 0, 0)" stroke-width="2" stroke-miterlimit="10" fill="none" d="M 106.79,41.55 L 106.79,39.68" />
        <path id="kazWhizzTop01-bezier1529" stroke="rgb(0, 0, 0)" stroke-width="2" stroke-miterlimit="10" fill="none" d="M 121.67,46.57 L 128.04,46.57" />
        <path id="kazWhizzTop01-bezier1530" stroke="rgb(0, 0, 0)" stroke-width="2" stroke-miterlimit="10" fill="none" d="M 36.57,26.06 C 36.57,26.06 35.3,27.38 35.3,30.56 35.3,33.74 36.57,34.68 36.57,34.68" />
        <path id="kazWhizzTop01-bezier1531" stroke="rgb(0, 0, 0)" stroke-width="2" stroke-miterlimit="10" fill="none" d="M 126.16,28.14 L 111.65,28.14" />
        <path id="kazWhizzTop01-bezier1532" stroke="rgb(0, 0, 0)" stroke-width="2" stroke-miterlimit="10" fill="none" d="M 126.16,33.01 L 111.65,33.01" />
        <path id="kazWhizzTop01-bezier1533" stroke="rgb(0, 0, 0)" stroke-width="2" stroke-miterlimit="10" fill="none" d="M 33.95,28.14 L 32.24,28.14" />
        <path id="kazWhizzTop01-bezier1534" stroke="rgb(0, 0, 0)" stroke-width="2" stroke-miterlimit="10" fill="none" d="M 33.95,33.01 L 32.24,33.01" />
        <g id="kazWhizzTop01-group1158">
            <g id="kazWhizzTop01-group1159">
                <path id="kazWhizzTop01-bezier1535" stroke="none" fill="rgb(0, 0, 0)" d="M 101.71,40.32 C 100.19,40.48 98.65,40.55 97.1,40.44 95.56,40.29 93.99,40.05 92.55,39.26 92.2,39.08 91.81,38.72 91.62,38.67 91.38,38.59 91.27,38.63 91.07,38.8 90.69,39.19 90.4,39.91 90.16,40.58 89.66,41.97 89.31,43.45 88.87,44.94 L 88.77,44.93 C 88.67,43.37 88.8,41.82 89.21,40.28 89.45,39.52 89.68,38.73 90.43,38.06 90.62,37.9 90.88,37.75 91.18,37.71 91.48,37.67 91.78,37.75 92,37.86 92.51,38.15 92.64,38.38 92.97,38.57 94.17,39.35 95.67,39.71 97.16,39.94 98.65,40.18 100.18,40.24 101.71,40.22 L 101.71,40.32 Z M 101.71,40.32" />
            </g>
            <g id="kazWhizzTop01-group1160">
                <path id="kazWhizzTop01-bezier1536" stroke="none" fill="rgb(0, 0, 0)" d="M 97.36,21.73 C 98.62,21.64 99.88,21.66 101.14,21.63 102.41,21.63 103.69,21.85 104.91,22.28 107.32,23.15 109.48,24.95 110.54,27.38 111.08,28.59 111.32,29.94 111.24,31.27 111.15,32.61 110.69,33.91 109.97,35.03 108.48,37.25 106.05,38.71 103.52,39.03 L 103.5,38.93 C 105.84,38.06 107.93,36.57 109.12,34.5 110.34,32.49 110.68,29.93 109.81,27.69 108.93,25.45 107,23.67 104.73,22.75 102.46,21.74 99.86,21.89 97.37,21.82 L 97.36,21.73 Z M 97.36,21.73" />
            </g>
            <g id="kazWhizzTop01-group1161">
                <path id="kazWhizzTop01-bezier1537" stroke="none" fill="rgb(0, 0, 0)" d="M 85.85,14.69 C 86.88,14.51 88.09,14.4 89.07,15.09 90.03,15.77 90.47,16.91 90.73,17.96 90.86,18.51 90.95,19.01 91.11,19.49 91.28,19.97 91.5,20.42 91.79,20.81 92.35,21.59 93.29,22.03 94.1,22.07 L 94,22.08 C 94.98,21.85 95.89,22.1 96.69,22.34 97.5,22.6 98.26,22.88 99.09,22.96 L 99.1,23.06 C 98.26,23.31 97.35,23.17 96.53,23.08 95.71,22.96 94.92,22.89 94.25,23.07 L 94.2,23.09 94.15,23.09 C 92.8,23.11 91.7,22.3 91.08,21.29 90.45,20.3 90.25,19.11 90.12,18.09 89.93,17.08 89.6,16.05 88.83,15.4 88.06,14.72 86.92,14.7 85.87,14.79 L 85.85,14.69 Z M 85.85,14.69" />
            </g>
            <g id="kazWhizzTop01-group1162">
                <path id="kazWhizzTop01-bezier1538" stroke="none" fill="rgb(0, 0, 0)" d="M 118.34,10.93 C 117.53,11.11 116.72,11.27 115.9,11.38 115.48,11.43 115.07,11.47 114.63,11.47 114.14,11.43 113.83,11.36 113.41,11.38 112.6,11.39 111.8,11.52 111.01,11.59 110.21,11.67 109.41,11.72 108.63,11.99 L 108.59,11.93 C 109.2,11.28 110.08,11.03 110.9,10.84 111.73,10.67 112.59,10.7 113.43,10.78 113.84,10.79 114.33,10.93 114.66,10.98 115.05,11.02 115.46,11.02 115.87,11.01 116.68,11 117.51,10.94 118.33,10.85 L 118.34,10.93 Z M 118.34,10.93" />
            </g>
            <g id="kazWhizzTop01-group1163">
                <path id="kazWhizzTop01-bezier1539" stroke="none" fill="rgb(0, 0, 0)" d="M 107.45,17.7 C 108.37,17.56 109.29,17.39 110.2,17.21 111.11,17.03 112.03,16.85 112.87,16.55 113.25,16.41 113.67,16.13 114.1,15.94 114.53,15.73 114.97,15.57 115.42,15.42 115.87,15.28 116.32,15.15 116.79,15.07 117.26,15 117.73,14.87 118.24,15 L 118.22,15.07 C 117.37,15.32 116.53,15.78 115.68,16.12 115.25,16.29 114.82,16.47 114.39,16.62 113.96,16.76 113.57,16.98 113.06,17.12 112.12,17.37 111.19,17.47 110.26,17.58 109.32,17.67 108.39,17.73 107.46,17.77 L 107.45,17.7 Z M 107.45,17.7" />
            </g>
            <g id="kazWhizzTop01-group1164">
                <path id="kazWhizzTop01-bezier1540" stroke="none" fill="rgb(0, 0, 0)" d="M 110.28,12.18 C 109.38,12.37 108.42,12.22 107.54,11.99 106.71,11.83 105.79,11.95 104.91,12.07 104.02,12.2 103.14,12.42 102.25,12.53 101.35,12.64 100.45,12.74 99.52,12.75 L 99.5,12.67 C 100.34,12.27 101.22,12.01 102.12,11.79 103.01,11.58 103.93,11.52 104.85,11.47 105.77,11.43 106.69,11.37 107.65,11.63 108.49,11.95 109.37,12.19 110.27,12.1 L 110.28,12.18 Z M 110.28,12.18" />
            </g>
            <g id="kazWhizzTop01-group1165">
                <path id="kazWhizzTop01-bezier1541" stroke="none" fill="rgb(0, 0, 0)" d="M 100.27,19.94 C 100.28,18.57 99.91,17.25 99.43,15.99 98.95,14.74 98.33,13.51 97.62,12.39 L 98.09,12.56 96.14,13.39 C 95.5,13.67 94.84,13.93 94.17,14.17 93.5,14.4 92.84,14.63 92.15,14.83 91.47,15.03 90.79,15.24 90.08,15.39 L 90.04,15.3 C 90.63,14.88 91.25,14.52 91.88,14.18 92.51,13.83 93.15,13.53 93.8,13.24 94.45,12.95 95.12,12.7 95.79,12.47 L 97.83,11.82 98.15,11.71 98.3,11.98 C 98.96,13.23 99.49,14.5 99.89,15.84 100.27,17.17 100.51,18.56 100.37,19.94 L 100.27,19.94 Z M 100.27,19.94" />
            </g>
            <g id="kazWhizzTop01-group1166">
                <path id="kazWhizzTop01-bezier1542" stroke="none" fill="rgb(0, 0, 0)" d="M 101.42,19.94 C 102.22,19.46 103.03,18.99 103.84,18.54 104.24,18.3 104.61,18.03 105.05,17.86 105.48,17.7 105.92,17.57 106.41,17.5 L 106.46,17.56 C 106.17,17.99 105.77,18.28 105.38,18.53 104.99,18.79 104.53,18.92 104.09,19.08 103.22,19.42 102.35,19.73 101.45,20.01 L 101.42,19.94 Z M 101.42,19.94" />
            </g>
            <g id="kazWhizzTop01-group1167">
                <path id="kazWhizzTop01-bezier1543" stroke="none" fill="rgb(0, 0, 0)" d="M 37.56,30.56 C 37.49,28.83 37.48,27.09 37.57,25.35 37.69,23.62 37.81,21.86 38.48,20.16 38.66,19.75 38.9,19.31 39.31,18.99 39.66,18.71 40.12,18.47 40.54,18.32 41.41,18.01 42.32,17.89 43.21,17.86 44.99,17.8 46.74,18 48.49,18.38 L 48.88,18.47 48.87,18.89 C 48.83,20.84 48.7,22.79 48.57,24.73 48.51,25.7 48.42,26.68 48.33,27.65 48.25,28.62 48.14,29.59 48.04,30.56 L 47.94,30.56 C 47.85,29.58 47.8,28.61 47.78,27.63 47.76,26.65 47.72,25.68 47.74,24.7 47.73,22.75 47.75,20.8 47.85,18.85 L 48.24,19.37 C 46.61,18.96 44.9,18.67 43.22,18.66 42.38,18.66 41.54,18.74 40.77,18.99 40.37,19.12 40.05,19.27 39.71,19.51 39.42,19.71 39.21,20.05 39.03,20.42 38.37,21.93 38.15,23.69 37.94,25.38 37.76,27.1 37.67,28.83 37.66,30.56 L 37.56,30.56 Z M 37.56,30.56" />
            </g>
            <g id="kazWhizzTop01-group1168">
                <path id="kazWhizzTop01-bezier1544" stroke="none" fill="rgb(0, 0, 0)" d="M 124.14,12.2 C 123.94,11.7 123.69,11.22 123.38,10.8 123.1,10.36 122.72,10.08 122.26,9.96 121.84,9.86 121.34,10.02 120.82,10.04 120.29,10.06 119.75,10.08 119.18,9.97 L 119.17,9.89 C 119.66,9.6 120.17,9.42 120.71,9.29 121.23,9.18 121.85,9.15 122.46,9.4 122.75,9.53 122.97,9.67 123.21,9.89 123.43,10.12 123.58,10.36 123.71,10.61 123.94,11.12 124.1,11.65 124.21,12.18 L 124.14,12.2 Z M 124.14,12.2" />
            </g>
            <g id="kazWhizzTop01-group1169">
                <path id="kazWhizzTop01-bezier1545" stroke="none" fill="rgb(0, 0, 0)" d="M 119.19,15.09 C 119.65,15.22 120.12,15.31 120.55,15.32 120.77,15.31 120.96,15.23 121.15,15.25 L 121.84,15.34 121.88,15.4 C 121.8,15.71 121.53,15.91 121.26,16 120.98,16.09 120.7,15.99 120.45,15.91 119.94,15.75 119.52,15.48 119.15,15.15 L 119.19,15.09 Z M 119.19,15.09" />
            </g>
            <g id="kazWhizzTop01-group1170">
                <path id="kazWhizzTop01-bezier1546" stroke="none" fill="rgb(0, 0, 0)" d="M 118.33,49.27 C 117.51,49.19 116.68,49.13 115.87,49.11 115.46,49.1 115.05,49.1 114.66,49.14 114.33,49.19 113.84,49.33 113.43,49.35 112.59,49.42 111.74,49.45 110.9,49.28 110.09,49.1 109.2,48.85 108.59,48.2 L 108.64,48.14 C 109.42,48.4 110.21,48.46 111.01,48.54 111.8,48.6 112.61,48.74 113.41,48.75 113.83,48.77 114.14,48.69 114.63,48.66 115.07,48.65 115.48,48.69 115.9,48.74 116.72,48.85 117.54,49.01 118.34,49.19 L 118.33,49.27 Z M 118.33,49.27" />
            </g>
            <g id="kazWhizzTop01-group1171">
                <path id="kazWhizzTop01-bezier1547" stroke="none" fill="rgb(0, 0, 0)" d="M 107.46,42.35 C 108.39,42.39 109.32,42.46 110.26,42.54 111.19,42.65 112.12,42.75 113.06,43 113.57,43.14 113.95,43.36 114.39,43.5 114.82,43.66 115.25,43.83 115.68,44 116.53,44.34 117.37,44.8 118.22,45.05 L 118.24,45.13 C 117.73,45.25 117.26,45.13 116.79,45.06 116.32,44.97 115.87,44.84 115.42,44.71 114.97,44.56 114.53,44.39 114.1,44.18 113.67,43.99 113.25,43.71 112.87,43.57 112.03,43.28 111.11,43.09 110.2,42.91 109.29,42.73 108.37,42.57 107.45,42.42 L 107.46,42.35 Z M 107.46,42.35" />
            </g>
            <g id="kazWhizzTop01-group1172">
                <path id="kazWhizzTop01-bezier1548" stroke="none" fill="rgb(0, 0, 0)" d="M 110.26,48.02 C 109.35,47.71 108.36,47.56 107.44,47.73 107.2,47.77 107,47.83 106.76,47.92 106.51,48 106.25,48.04 106,48.07 105.5,48.13 105,48.14 104.5,48.13 103.51,48.12 102.52,48.08 101.55,47.88 100.59,47.68 99.64,47.42 98.73,47 L 98.75,46.93 C 99.74,46.94 100.71,47.04 101.67,47.14 102.63,47.24 103.58,47.44 104.54,47.54 105.01,47.58 105.49,47.61 105.96,47.59 106.2,47.58 106.42,47.56 106.64,47.5 106.87,47.44 107.14,47.38 107.39,47.36 108.41,47.28 109.4,47.54 110.29,47.95 L 110.26,48.02 Z M 110.26,48.02" />
            </g>
            <g id="kazWhizzTop01-group1173">
                <path id="kazWhizzTop01-bezier1549" stroke="none" fill="rgb(0, 0, 0)" d="M 100.3,41.2 C 100.2,42.25 99.84,43.27 99.36,44.22 98.88,45.17 98.27,46.04 97.55,46.87 L 97.45,46.99 97.25,46.97 C 96.58,46.92 95.93,46.84 95.27,46.76 94.61,46.67 93.95,46.57 93.31,46.4 92.03,46.04 90.77,45.57 89.64,44.82 L 89.68,44.72 C 91.01,44.9 92.27,45.15 93.54,45.4 94.81,45.67 96.06,46.05 97.34,46.25 L 97.04,46.35 C 97.76,45.66 98.41,44.85 98.97,43.99 99.53,43.14 99.98,42.2 100.2,41.18 L 100.3,41.2 Z M 100.3,41.2" />
            </g>
            <g id="kazWhizzTop01-group1174">
                <path id="kazWhizzTop01-bezier1550" stroke="none" fill="rgb(0, 0, 0)" d="M 101.45,40.11 C 102.34,40.4 103.22,40.7 104.09,41.04 104.53,41.21 104.99,41.33 105.38,41.59 105.78,41.85 106.17,42.13 106.46,42.56 L 106.41,42.62 C 105.92,42.55 105.48,42.42 105.05,42.26 104.61,42.1 104.24,41.82 103.84,41.59 103.03,41.13 102.22,40.66 101.42,40.18 L 101.45,40.11 Z M 101.45,40.11" />
            </g>
            <g id="kazWhizzTop01-group1175">
                <path id="kazWhizzTop01-bezier1551" stroke="none" fill="rgb(0, 0, 0)" d="M 37.66,30.56 C 37.62,32.29 37.67,34.02 37.81,35.73 37.98,37.43 38.17,39.2 38.86,40.68 39.04,41.03 39.28,41.36 39.57,41.51 39.93,41.69 40.29,41.8 40.7,41.89 41.51,42.07 42.36,42.13 43.2,42.14 44.9,42.16 46.62,41.99 48.29,41.75 L 47.85,42.27 C 47.75,40.32 47.73,38.37 47.74,36.42 47.72,35.45 47.76,34.47 47.78,33.49 47.8,32.52 47.85,31.54 47.94,30.56 L 48.04,30.56 C 48.14,31.53 48.25,32.5 48.33,33.48 48.42,34.45 48.51,35.42 48.57,36.39 48.7,38.34 48.83,40.28 48.87,42.23 L 48.88,42.7 48.44,42.75 C 46.68,42.96 44.94,43.03 43.18,42.94 42.3,42.9 41.41,42.81 40.54,42.58 40.11,42.47 39.64,42.31 39.24,42.08 38.77,41.79 38.51,41.36 38.31,40.95 37.6,39.25 37.52,37.49 37.44,35.76 37.38,34.02 37.43,32.29 37.56,30.56 L 37.66,30.56 Z M 37.66,30.56" />
            </g>
            <g id="kazWhizzTop01-group1176">
                <path id="kazWhizzTop01-bezier1552" stroke="none" fill="rgb(0, 0, 0)" d="M 120.96,45.32 C 120.98,45.97 121.02,46.61 121.15,47.21 121.22,47.5 121.35,47.76 121.42,47.99 121.49,48.21 121.51,48.38 121.86,48.57 L 121.87,48.64 C 121.56,48.94 120.94,48.7 120.75,48.34 120.52,47.99 120.54,47.6 120.55,47.26 120.56,46.58 120.69,45.94 120.89,45.31 L 120.96,45.32 Z M 120.96,45.32" />
            </g>
            <g id="kazWhizzTop01-group1177">
                <path id="kazWhizzTop01-bezier1553" stroke="none" fill="rgb(0, 0, 0)" d="M 124.21,47.94 C 124.1,48.48 123.95,49 123.71,49.51 123.58,49.76 123.43,50 123.22,50.23 122.97,50.46 122.75,50.59 122.46,50.73 121.85,50.97 121.23,50.94 120.71,50.83 120.17,50.7 119.66,50.52 119.17,50.23 L 119.18,50.15 C 119.74,50.04 120.29,50.06 120.82,50.09 121.34,50.11 121.84,50.27 122.26,50.16 122.72,50.04 123.1,49.76 123.38,49.32 123.69,48.9 123.94,48.42 124.14,47.92 L 124.21,47.94 Z M 124.21,47.94" />
            </g>
            <g id="kazWhizzTop01-group1178">
                <path id="kazWhizzTop01-bezier1554" stroke="none" fill="rgb(0, 0, 0)" d="M 119.15,44.97 C 119.52,44.64 119.94,44.37 120.45,44.22 120.69,44.13 120.98,44.03 121.26,44.13 121.53,44.22 121.8,44.41 121.88,44.72 L 121.84,44.78 121.15,44.87 C 120.96,44.89 120.77,44.81 120.55,44.81 120.12,44.81 119.65,44.9 119.19,45.04 L 119.15,44.97 Z M 119.15,44.97" />
            </g>
            <g id="kazWhizzTop01-group1179">
                <path id="kazWhizzTop01-bezier1555" stroke="none" fill="rgb(0, 0, 0)" d="M 106.47,35.63 C 105.76,36.48 104.73,36.99 103.71,37.38 102.68,37.77 101.6,38.01 100.5,38.13 98.31,38.37 96.05,38.12 93.94,37.41 92.87,37.02 91.93,36.59 90.9,36.4 89.89,36.2 88.87,36.18 87.98,36.49 87.08,36.79 86.32,37.47 85.78,38.35 85.19,39.21 84.85,40.25 84.28,41.21 L 84.19,41.17 C 84.46,40.13 84.64,39.03 85.13,37.99 85.62,36.98 86.45,35.97 87.62,35.54 88.78,35.08 90.03,35.2 91.12,35.49 92.22,35.77 93.24,36.32 94.2,36.7 96.17,37.47 98.33,37.79 100.46,37.67 101.53,37.6 102.59,37.43 103.62,37.11 104.63,36.78 105.66,36.35 106.4,35.57 L 106.47,35.63 Z M 106.47,35.63" />
            </g>
            <g id="kazWhizzTop01-group1180">
                <path id="kazWhizzTop01-bezier1556" stroke="none" fill="rgb(0, 0, 0)" d="M 85.29,19.67 C 85.8,21.64 86.51,23.58 87.6,25.26 88.14,26.08 88.82,26.85 89.66,27.23 90.08,27.41 90.52,27.48 90.97,27.42 91.39,27.36 91.91,27.19 92.37,27.04 94.26,26.4 96.09,25.43 98.2,25.04 99.24,24.85 100.37,24.8 101.42,25.14 102.47,25.46 103.36,26.15 103.97,26.98 L 103.9,27.05 C 103.1,26.41 102.2,25.95 101.26,25.79 100.31,25.64 99.35,25.75 98.4,25.99 96.51,26.47 94.63,27.29 92.61,27.84 92.09,27.98 91.63,28.12 91.04,28.18 90.46,28.22 89.87,28.1 89.37,27.84 88.35,27.32 87.68,26.42 87.15,25.53 86.13,23.7 85.57,21.7 85.19,19.69 L 85.29,19.67 Z M 85.29,19.67" />
            </g>
            <g id="kazWhizzTop01-group1181">
                <path id="kazWhizzTop01-bezier1557" stroke="none" fill="rgb(0, 0, 0)" d="M 96.26,33.12 C 95.05,32.79 93.8,32.6 92.56,32.51 91.31,32.41 90.06,32.41 88.83,32.53 87.6,32.66 86.41,32.97 85.24,33.27 84.06,33.58 82.94,34.01 81.79,34.59 L 81.73,34.52 C 82.54,33.5 83.71,32.78 84.94,32.32 86.17,31.86 87.5,31.76 88.78,31.73 91.36,31.68 93.92,32.11 96.29,33.02 L 96.26,33.12 Z M 96.26,33.12" />
            </g>
            <g id="kazWhizzTop01-group1182">
                <path id="kazWhizzTop01-bezier1558" stroke="none" fill="rgb(0, 0, 0)" d="M 85.18,15.73 C 82.67,15.88 80.18,16.14 77.71,16.5 75.23,16.87 72.8,17.39 70.36,18.03 67.91,18.61 65.4,18.97 62.88,19.11 60.35,19.25 57.83,19.23 55.28,18.87 L 55.8,18.35 C 56.18,20.27 56.52,22.19 56.79,24.13 57.03,26.07 57.3,28.01 57.19,30.04 56.95,32.07 56.43,33.92 56,35.82 55.78,36.76 55.6,37.71 55.45,38.67 55.32,39.62 55.22,40.59 55.41,41.53 L 55.31,41.56 C 54.99,40.62 55,39.6 55.04,38.63 55.09,37.64 55.23,36.67 55.37,35.7 55.64,33.77 56.13,31.84 56.26,29.99 56.27,28.13 56.01,26.18 55.77,24.27 55.52,22.35 55.23,20.42 54.92,18.51 L 54.81,17.88 55.44,17.99 C 57.84,18.41 60.37,18.5 62.84,18.42 65.33,18.33 67.81,18.04 70.25,17.53 72.68,16.95 75.17,16.49 77.66,16.2 80.16,15.9 82.66,15.71 85.17,15.63 L 85.18,15.73 Z M 85.18,15.73" />
            </g>
            <g id="kazWhizzTop01-group1183">
                <path id="kazWhizzTop01-bezier1559" stroke="none" fill="rgb(0, 0, 0)" d="M 55.35,42.14 C 57.87,41.6 60.44,41.3 63.03,41.2 65.61,41.13 68.23,41.27 70.78,41.84 72.08,42.13 73.27,42.53 74.52,42.77 75.77,43.04 77.01,43.29 78.27,43.51 80.78,44.01 83.31,44.35 85.86,44.76 L 85.86,44.86 C 83.27,45.02 80.68,44.82 78.11,44.5 76.83,44.31 75.55,44.07 74.29,43.74 73.03,43.43 71.79,42.95 70.59,42.62 68.15,41.97 65.59,41.73 63.03,41.7 60.48,41.67 57.91,41.83 55.37,42.24 L 55.35,42.14 Z M 55.35,42.14" />
            </g>
            <g id="kazWhizzTop01-group1184">
                <path id="kazWhizzTop01-bezier1560" stroke="none" fill="rgb(0, 0, 0)" d="M 49.18,42.15 C 49.98,41.67 50.9,41.4 51.84,41.28 52.3,41.21 52.79,41.14 53.26,41.24 53.72,41.34 54.18,41.5 54.58,41.81 L 54.56,41.88 C 54.07,41.97 53.62,41.98 53.18,41.98 52.74,41.99 52.31,41.9 51.87,41.88 50.99,41.86 50.08,41.94 49.21,42.22 L 49.18,42.15 Z M 49.18,42.15" />
            </g>
            <g id="kazWhizzTop01-group1185">
                <path id="kazWhizzTop01-bezier1561" stroke="none" fill="rgb(0, 0, 0)" d="M 49.53,18.93 L 52.05,18.78 C 52.47,18.74 52.88,18.66 53.3,18.69 53.71,18.73 54.12,18.78 54.56,18.93 L 54.57,19.01 C 54.18,19.27 53.75,19.38 53.32,19.44 52.9,19.51 52.47,19.43 52.05,19.38 51.2,19.3 50.36,19.18 49.53,19.01 L 49.53,18.93 Z M 49.53,18.93" />
            </g>
            <g id="kazWhizzTop01-group1186">
                <path id="kazWhizzTop01-bezier1562" stroke="none" fill="rgb(0, 0, 0)" d="M 50.18,27.71 C 50.51,27.86 50.86,27.89 51.17,27.88 51.34,27.87 51.49,27.79 51.65,27.83 51.81,27.88 51.97,27.94 52.19,28.1 L 52.2,28.18 C 52.07,28.41 51.88,28.52 51.68,28.58 51.47,28.64 51.27,28.55 51.07,28.48 50.69,28.34 50.33,28.1 50.13,27.77 L 50.18,27.71 Z M 50.18,27.71" />
            </g>
            <g id="kazWhizzTop01-group1187">
                <path id="kazWhizzTop01-bezier1563" stroke="none" fill="rgb(0, 0, 0)" d="M 49.88,33.4 C 50.18,33.1 50.52,32.83 50.9,32.62 51.09,32.51 51.28,32.36 51.53,32.37 51.76,32.38 52.07,32.45 52.21,32.73 L 52.18,32.8 C 51.94,32.93 51.82,33.03 51.65,33.11 51.5,33.18 51.3,33.15 51.11,33.18 50.73,33.25 50.33,33.35 49.92,33.46 L 49.88,33.4 Z M 49.88,33.4" />
            </g>
            <g id="kazWhizzTop01-group1188">
                <path id="kazWhizzTop01-bezier1564" stroke="none" fill="rgb(0, 0, 0)" d="M 120.89,14.81 C 120.69,14.19 120.56,13.54 120.55,12.86 120.54,12.52 120.52,12.14 120.75,11.79 120.94,11.42 121.56,11.19 121.87,11.48 L 121.86,11.55 C 121.51,11.74 121.49,11.91 121.41,12.14 121.35,12.36 121.21,12.62 121.14,12.92 121.02,13.51 120.98,14.16 120.96,14.8 L 120.89,14.81 Z M 120.89,14.81" />
            </g>
        </g>
    </g>
</svg>
