<?xml version="1.0" encoding="UTF-8"?>
<!DOCTYPE svg PUBLIC "-//W3C//DTD SVG 1.1//EN" "http://www.w3.org/Graphics/SVG/1.1/DTD/svg11.dtd">
<svg version="1.1" xmlns="http://www.w3.org/2000/svg" xmlns:xlink="http://www.w3.org/1999/xlink" width="160" height="60"  xml:space="preserve" id="kazWhizzTop06">
    <!-- Generated by PaintCode - http://www.paintcodeapp.com -->
    <g id="kazWhizzTop06-group">
        <path id="kazWhizzTop06-bezier1368" stroke="rgb(0, 0, 0)" stroke-width="2" stroke-miterlimit="10" fill="none" d="M 111.56,30.56 L 156.9,30.56" />
        <path id="kazWhizzTop06-bezier1369" stroke="rgb(0, 0, 0)" stroke-width="2" stroke-miterlimit="10" fill="none" d="M 3.51,30.56 L 33.53,30.56" />
        <path id="kazWhizzTop06-bezier1370" stroke="rgb(0, 0, 0)" stroke-width="2" stroke-miterlimit="10" fill="none" d="M 128.08,13.55 L 106.83,13.55 106.83,25.43" />
        <path id="kazWhizzTop06-bezier1371" stroke="rgb(0, 0, 0)" stroke-width="2" stroke-miterlimit="10" fill="none" d="M 128.08,46.57 L 106.83,46.57 106.83,46.55 106.83,40.68" />
        <path id="kazWhizzTop06-bezier1372" stroke="rgb(0, 0, 0)" stroke-width="2" stroke-miterlimit="10" fill="none" d="M 36.61,26.06 C 36.61,26.06 35.34,27.38 35.34,30.56 35.34,33.74 36.61,34.68 36.61,34.68" />
        <path id="kazWhizzTop06-bezier1373" stroke="rgb(0, 0, 0)" stroke-width="2" stroke-miterlimit="10" fill="none" d="M 127.25,28.14 L 110.23,28.14" />
        <path id="kazWhizzTop06-bezier1374" stroke="rgb(0, 0, 0)" stroke-width="2" stroke-miterlimit="10" fill="none" d="M 127.25,33.01 L 113.23,33.01" />
        <path id="kazWhizzTop06-bezier1375" stroke="rgb(0, 0, 0)" stroke-width="2" stroke-miterlimit="10" fill="none" d="M 33.99,28.14 L 32.28,28.14" />
        <path id="kazWhizzTop06-bezier1376" stroke="rgb(0, 0, 0)" stroke-width="2" stroke-miterlimit="10" fill="none" d="M 33.99,33.01 L 32.28,33.01" />
        <g id="kazWhizzTop06-group1034">
            <g id="kazWhizzTop06-group1035">
                <path id="kazWhizzTop06-bezier1377" stroke="none" fill="rgb(0, 0, 0)" d="M 101.46,41.47 C 99.77,41.57 98.07,41.61 96.37,41.48 94.68,41.32 92.97,41.07 91.33,40.39 90.93,40.21 90.52,40.01 90.15,39.74 89.83,39.52 89.56,39.44 89.33,39.5 88.86,39.6 88.37,40.31 88.04,41.01 87.33,42.44 86.86,44.07 86.34,45.68 L 86.24,45.67 C 86.22,44.81 86.3,43.96 86.44,43.11 86.58,42.26 86.79,41.42 87.13,40.59 87.31,40.18 87.52,39.77 87.82,39.39 88.12,39.02 88.55,38.63 89.16,38.52 89.78,38.43 90.34,38.74 90.68,39.03 90.98,39.27 91.32,39.48 91.67,39.66 93.12,40.38 94.78,40.73 96.43,40.98 98.09,41.24 99.77,41.34 101.45,41.37 L 101.46,41.47 Z M 101.46,41.47" />
            </g>
            <g id="kazWhizzTop06-group1036">
                <path id="kazWhizzTop06-bezier1378" stroke="none" fill="rgb(0, 0, 0)" d="M 97.84,24.03 C 99.11,24.02 100.36,24.11 101.62,24.16 102.89,24.24 104.16,24.53 105.35,25.03 107.7,26.04 109.75,27.96 110.67,30.45 111.14,31.69 111.3,33.05 111.14,34.38 110.97,35.71 110.44,36.99 109.65,38.06 108.03,40.18 105.52,41.5 102.98,41.67 L 102.96,41.57 C 105.35,40.84 107.52,39.47 108.83,37.48 110.17,35.54 110.66,33.01 109.92,30.72 109.18,28.43 107.35,26.54 105.14,25.49 102.93,24.34 100.33,24.35 97.84,24.13 L 97.84,24.03 Z M 97.84,24.03" />
            </g>
            <g id="kazWhizzTop06-group1037">
                <path id="kazWhizzTop06-bezier1379" stroke="none" fill="rgb(0, 0, 0)" d="M 82.57,19.91 C 83.72,19.78 84.89,19.65 86.07,19.8 87.25,19.93 88.42,20.33 89.41,21.03 89.91,21.37 90.36,21.78 90.77,22.23 91.16,22.67 91.55,23.07 91.96,23.46 92.38,23.83 92.82,24.18 93.27,24.41 93.49,24.52 93.72,24.59 93.87,24.59 94.01,24.59 94.07,24.52 94.09,24.51 L 95.64,23.99 94.47,24.19 C 95.46,24.02 96.36,24.33 97.14,24.61 97.94,24.92 98.67,25.24 99.5,25.37 L 99.51,25.47 C 98.65,25.67 97.75,25.47 96.94,25.34 96.12,25.17 95.34,25.06 94.66,25.2 L 95.04,24.88 C 94.83,25.41 94.28,25.65 93.84,25.61 93.4,25.58 93.08,25.42 92.8,25.24 92.24,24.89 91.81,24.46 91.4,24.02 91,23.58 90.62,23.1 90.27,22.66 89.91,22.23 89.52,21.83 89.08,21.49 88.2,20.81 87.14,20.35 86.02,20.14 84.9,19.92 83.73,19.96 82.58,20.01 L 82.57,19.91 Z M 82.57,19.91" />
            </g>
            <g id="kazWhizzTop06-group1038">
                <path id="kazWhizzTop06-bezier1380" stroke="none" fill="rgb(0, 0, 0)" d="M 118.38,10.93 C 116.9,11.08 115.41,11.23 113.93,11.34 112.43,11.44 110.99,11.59 109.42,11.55 107.99,11.38 106.5,11.48 105.03,11.48 104.29,11.5 103.56,11.54 102.82,11.59 102.1,11.67 101.34,11.69 100.68,11.99 L 100.63,11.93 C 101.26,11.46 102.03,11.31 102.76,11.14 103.49,10.98 104.24,10.89 104.99,10.81 105.73,10.74 106.48,10.69 107.24,10.68 107.98,10.68 108.76,10.68 109.5,10.84 110.91,10.99 112.44,10.93 113.91,10.92 L 118.37,10.85 118.38,10.93 Z M 118.38,10.93" />
            </g>
            <g id="kazWhizzTop06-group1039">
                <path id="kazWhizzTop06-bezier1381" stroke="none" fill="rgb(0, 0, 0)" d="M 99.49,17.7 C 101.07,17.56 102.65,17.4 104.22,17.21 105,17.11 105.79,17 106.57,16.88 106.95,16.81 107.34,16.74 107.72,16.65 107.9,16.6 108.09,16.55 108.25,16.49 108.38,16.42 108.64,16.3 108.81,16.25 110.37,15.79 111.92,15.45 113.49,15.2 115.07,15.01 116.65,14.8 118.28,15 L 118.26,15.07 C 116.73,15.36 115.17,15.71 113.61,15.96 112.06,16.22 110.47,16.36 108.97,16.75 108.76,16.8 108.65,16.84 108.43,16.94 108.22,17.02 108.02,17.06 107.82,17.1 107.42,17.18 107.02,17.24 106.63,17.29 105.84,17.39 105.04,17.46 104.25,17.52 102.67,17.63 101.08,17.71 99.5,17.77 L 99.49,17.7 Z M 99.49,17.7" />
            </g>
            <g id="kazWhizzTop06-group1040">
                <path id="kazWhizzTop06-bezier1382" stroke="none" fill="rgb(0, 0, 0)" d="M 90.08,16.34 C 92.43,14.95 94.65,13.35 96.83,11.72 L 97.13,11.5 97.31,11.84 C 97.94,13.05 98.44,14.29 98.85,15.59 99.25,16.88 99.5,18.27 99.33,19.67 L 99.3,19.95 99.07,20.06 96.5,21.28 95.23,21.91 C 94.83,22.12 94.33,22.34 94.09,22.64 L 93.99,22.64 C 94.05,22.33 94.27,22.2 94.44,22.03 94.62,21.86 94.81,21.71 95,21.56 95.38,21.26 95.78,20.99 96.18,20.72 96.98,20.17 97.8,19.68 98.64,19.21 L 98.38,19.6 C 98.41,18.35 98.22,17.09 97.96,15.82 97.68,14.57 97.25,13.31 96.73,12.14 L 97.21,12.26 C 94.93,13.79 92.58,15.21 90.13,16.42 L 90.08,16.34 Z M 90.08,16.34" />
            </g>
            <g id="kazWhizzTop06-group1041">
                <path id="kazWhizzTop06-bezier1383" stroke="none" fill="rgb(0, 0, 0)" d="M 37.6,30.56 C 37.52,28.83 37.52,27.09 37.61,25.35 37.73,23.62 37.85,21.86 38.52,20.16 38.7,19.75 38.93,19.31 39.35,18.99 39.7,18.71 40.16,18.47 40.58,18.32 41.45,18.01 42.35,17.89 43.25,17.86 45.03,17.8 46.78,18 48.53,18.38 L 48.92,18.47 48.91,18.89 C 48.87,20.84 48.74,22.79 48.61,24.73 48.55,25.7 48.46,26.68 48.37,27.65 48.29,28.62 48.18,29.59 48.08,30.56 L 47.98,30.56 C 47.89,29.58 47.84,28.61 47.82,27.63 47.8,26.65 47.76,25.68 47.78,24.7 47.77,22.75 47.79,20.8 47.89,18.85 L 48.28,19.37 C 46.65,18.96 44.94,18.67 43.26,18.66 42.42,18.66 41.58,18.74 40.81,18.99 40.41,19.12 40.09,19.27 39.75,19.51 39.46,19.71 39.25,20.05 39.07,20.42 38.41,21.93 38.19,23.69 37.98,25.38 37.8,27.1 37.71,28.83 37.7,30.56 L 37.6,30.56 Z M 37.6,30.56" />
            </g>
            <g id="kazWhizzTop06-group1042">
                <path id="kazWhizzTop06-bezier1384" stroke="none" fill="rgb(0, 0, 0)" d="M 124.18,12.2 C 123.98,11.7 123.73,11.22 123.42,10.8 123.14,10.36 122.76,10.08 122.3,9.96 121.88,9.86 121.38,10.02 120.86,10.04 120.33,10.06 119.79,10.08 119.22,9.97 L 119.21,9.89 C 119.7,9.6 120.21,9.42 120.75,9.29 121.27,9.18 121.89,9.15 122.5,9.4 122.79,9.53 123.01,9.67 123.26,9.89 123.47,10.12 123.62,10.36 123.75,10.61 123.99,11.12 124.14,11.65 124.25,12.18 L 124.18,12.2 Z M 124.18,12.2" />
            </g>
            <g id="kazWhizzTop06-group1043">
                <path id="kazWhizzTop06-bezier1385" stroke="none" fill="rgb(0, 0, 0)" d="M 119.23,15.09 C 119.69,15.22 120.16,15.31 120.59,15.32 120.81,15.31 121,15.23 121.19,15.25 L 121.88,15.34 121.92,15.4 C 121.84,15.71 121.57,15.91 121.3,16 121.02,16.09 120.73,15.99 120.49,15.91 119.98,15.75 119.56,15.48 119.19,15.15 L 119.23,15.09 Z M 119.23,15.09" />
            </g>
            <g id="kazWhizzTop06-group1044">
                <path id="kazWhizzTop06-bezier1386" stroke="none" fill="rgb(0, 0, 0)" d="M 118.37,49.27 L 113.91,49.15 C 112.44,49.14 110.92,49.06 109.49,49.18 108.75,49.35 107.98,49.35 107.23,49.38 106.48,49.41 105.73,49.42 104.98,49.36 104.23,49.31 103.49,49.19 102.75,49.05 102.02,48.86 101.24,48.7 100.63,48.2 L 100.67,48.14 C 101.35,48.39 102.1,48.41 102.83,48.47 103.56,48.54 104.3,48.54 105.03,48.59 106.5,48.66 107.99,48.86 109.43,48.67 110.97,48.61 112.43,48.73 113.93,48.83 L 118.38,49.19 118.37,49.27 Z M 118.37,49.27" />
            </g>
            <g id="kazWhizzTop06-group1045">
                <path id="kazWhizzTop06-bezier1387" stroke="none" fill="rgb(0, 0, 0)" d="M 99.5,42.35 C 101.08,42.39 102.67,42.45 104.26,42.56 105.05,42.61 105.84,42.68 106.63,42.77 107.03,42.82 107.43,42.88 107.83,42.95 108.03,42.99 108.23,43.04 108.45,43.11 L 108.73,43.22 108.99,43.3 C 110.48,43.66 112.06,43.88 113.61,44.2 115.15,44.47 116.72,44.83 118.26,45.05 L 118.28,45.13 C 117.46,45.23 116.67,45.15 115.87,45.11 115.08,45.07 114.29,44.97 113.5,44.88 111.91,44.69 110.36,44.43 108.79,43.95 108.69,43.91 108.59,43.88 108.49,43.84 108.37,43.79 108.28,43.73 108.22,43.71 108.07,43.64 107.88,43.59 107.7,43.54 107.33,43.45 106.94,43.37 106.55,43.31 105.78,43.17 105,43.06 104.21,42.96 102.64,42.76 101.07,42.58 99.49,42.42 L 99.5,42.35 Z M 99.5,42.35" />
            </g>
            <g id="kazWhizzTop06-group1046">
                <path id="kazWhizzTop06-bezier1388" stroke="none" fill="rgb(0, 0, 0)" d="M 98.26,42.01 C 98.16,43.05 97.85,44.06 97.43,45.02 96.99,45.98 96.45,46.87 95.8,47.73 L 95.69,47.88 95.47,47.86 C 94.32,47.76 93.17,47.69 92.06,47.37 90.96,47.04 89.88,46.59 88.94,45.9 L 88.98,45.81 C 90.13,45.96 91.21,46.18 92.3,46.38 93.39,46.59 94.46,46.93 95.55,47.09 L 95.22,47.22 C 95.88,46.5 96.49,45.66 97,44.8 97.52,43.93 97.94,43 98.16,41.99 L 98.26,42.01 Z M 98.26,42.01" />
            </g>
            <g id="kazWhizzTop06-group1047">
                <path id="kazWhizzTop06-bezier1389" stroke="none" fill="rgb(0, 0, 0)" d="M 37.7,30.56 C 37.66,32.29 37.71,34.02 37.85,35.73 38.02,37.43 38.21,39.2 38.9,40.68 39.08,41.03 39.32,41.36 39.61,41.51 39.97,41.69 40.33,41.8 40.74,41.89 41.55,42.07 42.4,42.13 43.24,42.14 44.94,42.16 46.66,41.99 48.33,41.75 L 47.89,42.27 C 47.79,40.32 47.77,38.37 47.78,36.42 47.76,35.45 47.8,34.47 47.82,33.49 47.84,32.52 47.89,31.54 47.98,30.56 L 48.08,30.56 C 48.18,31.53 48.29,32.5 48.37,33.48 48.46,34.45 48.55,35.42 48.61,36.39 48.74,38.34 48.87,40.28 48.91,42.23 L 48.92,42.7 48.47,42.75 C 46.72,42.96 44.98,43.03 43.22,42.94 42.34,42.9 41.45,42.81 40.58,42.58 40.15,42.47 39.68,42.31 39.28,42.08 38.81,41.79 38.55,41.36 38.35,40.95 37.64,39.25 37.56,37.49 37.48,35.76 37.42,34.02 37.47,32.29 37.6,30.56 L 37.7,30.56 Z M 37.7,30.56" />
            </g>
            <g id="kazWhizzTop06-group1048">
                <path id="kazWhizzTop06-bezier1390" stroke="none" fill="rgb(0, 0, 0)" d="M 121,45.32 C 121.02,45.97 121.06,46.61 121.19,47.21 121.25,47.5 121.39,47.76 121.45,47.99 121.53,48.21 121.55,48.38 121.9,48.57 L 121.91,48.64 C 121.6,48.94 120.98,48.7 120.79,48.34 120.56,47.99 120.58,47.6 120.59,47.26 120.6,46.58 120.73,45.94 120.93,45.31 L 121,45.32 Z M 121,45.32" />
            </g>
            <g id="kazWhizzTop06-group1049">
                <path id="kazWhizzTop06-bezier1391" stroke="none" fill="rgb(0, 0, 0)" d="M 124.25,47.94 C 124.14,48.48 123.98,49 123.75,49.51 123.62,49.76 123.47,50 123.26,50.23 123.01,50.46 122.79,50.59 122.5,50.73 121.89,50.97 121.27,50.94 120.75,50.83 120.21,50.7 119.7,50.52 119.21,50.23 L 119.22,50.15 C 119.78,50.04 120.33,50.06 120.86,50.09 121.38,50.11 121.88,50.27 122.3,50.16 122.76,50.04 123.14,49.76 123.42,49.32 123.73,48.9 123.97,48.42 124.18,47.92 L 124.25,47.94 Z M 124.25,47.94" />
            </g>
            <g id="kazWhizzTop06-group1050">
                <path id="kazWhizzTop06-bezier1392" stroke="none" fill="rgb(0, 0, 0)" d="M 119.19,44.97 C 119.56,44.64 119.98,44.37 120.49,44.22 120.74,44.13 121.02,44.03 121.3,44.13 121.58,44.22 121.84,44.41 121.92,44.72 L 121.88,44.78 121.19,44.87 C 121,44.89 120.81,44.81 120.59,44.81 120.16,44.81 119.69,44.9 119.23,45.04 L 119.19,44.97 Z M 119.19,44.97" />
            </g>
            <g id="kazWhizzTop06-group1051">
                <path id="kazWhizzTop06-bezier1393" stroke="none" fill="rgb(0, 0, 0)" d="M 106.12,38.46 C 105.13,39.34 103.92,40.03 102.6,40.34 101.28,40.65 99.89,40.64 98.56,40.45 97.22,40.26 95.92,39.91 94.65,39.49 93.36,39.06 92.17,38.55 90.9,38.29 88.38,37.71 85.76,37.74 83.29,38.41 80.83,39.11 78.47,40.41 76.65,42.31 L 76.56,42.25 C 77.28,41.1 78.29,40.17 79.39,39.37 80.48,38.57 81.72,37.96 83.02,37.52 85.62,36.62 88.51,36.67 91.12,37.41 92.44,37.75 93.69,38.34 94.89,38.8 96.12,39.26 97.37,39.66 98.65,39.9 99.93,40.13 101.25,40.23 102.53,40.01 103.81,39.79 105.02,39.19 106.06,38.37 L 106.12,38.46 Z M 106.12,38.46" />
            </g>
            <g id="kazWhizzTop06-group1052">
                <path id="kazWhizzTop06-bezier1394" stroke="none" fill="rgb(0, 0, 0)" d="M 76,23.09 C 77.67,25.03 79.66,26.74 81.9,27.92 83.02,28.5 84.22,28.93 85.45,29.06 86.67,29.21 87.9,28.94 89.17,28.7 91.66,28.19 94.15,27.42 96.81,27.26 98.12,27.2 99.48,27.23 100.77,27.63 102.06,28.01 103.23,28.72 104.13,29.66 L 104.07,29.74 C 103.01,29 101.84,28.49 100.61,28.27 99.39,28.06 98.14,28.05 96.89,28.21 94.39,28.51 91.9,29.16 89.32,29.56 88.68,29.66 88.03,29.74 87.38,29.81 86.71,29.88 86.02,29.86 85.36,29.76 84.03,29.55 82.78,29.04 81.64,28.39 79.37,27.05 77.49,25.2 75.92,23.15 L 76,23.09 Z M 76,23.09" />
            </g>
            <g id="kazWhizzTop06-group1053">
                <path id="kazWhizzTop06-bezier1395" stroke="none" fill="rgb(0, 0, 0)" d="M 105.96,35.93 C 103.25,35.43 100.48,35.37 97.72,35.25 L 89.44,34.98 C 86.67,34.89 83.9,34.83 81.14,34.46 79.76,34.26 78.38,34.05 77.03,33.7 75.68,33.35 74.3,32.94 73.16,32.1 L 73.21,32.01 C 74.46,32.59 75.82,32.81 77.16,33.02 78.52,33.21 79.88,33.37 81.25,33.47 83.98,33.7 86.73,33.98 89.48,34.18 L 97.75,34.75 C 100.5,35 103.28,35.19 105.98,35.83 L 105.96,35.93 Z M 105.96,35.93" />
            </g>
            <g id="kazWhizzTop06-group1054">
                <path id="kazWhizzTop06-bezier1396" stroke="none" fill="rgb(0, 0, 0)" d="M 89.68,17.55 C 86.87,17.51 84.06,17.53 81.26,17.65 78.46,17.77 75.65,17.96 72.9,18.43 70.15,18.99 67.32,19.34 64.49,19.39 61.65,19.44 58.83,19.27 56,18.71 L 56.56,18.22 C 56.82,20.16 57.05,22.1 57.21,24.05 57.33,26.01 57.49,27.95 57.25,29.97 56.89,31.99 56.27,33.8 55.73,35.67 55.46,36.6 55.22,37.54 55.02,38.48 54.83,39.42 54.67,40.38 54.8,41.34 L 54.7,41.36 C 54.44,40.4 54.51,39.39 54.61,38.41 54.71,37.43 54.91,36.47 55.11,35.51 55.49,33.61 56.09,31.7 56.33,29.86 56.45,28.01 56.31,26.05 56.18,24.12 56.04,22.19 55.87,20.25 55.67,18.33 L 55.6,17.69 56.22,17.84 C 58.89,18.46 61.71,18.7 64.48,18.71 67.28,18.73 70.05,18.45 72.82,17.96 75.62,17.55 78.44,17.42 81.25,17.36 84.06,17.3 86.87,17.34 89.68,17.45 L 89.68,17.55 Z M 89.68,17.55" />
            </g>
            <g id="kazWhizzTop06-group1055">
                <path id="kazWhizzTop06-bezier1397" stroke="none" fill="rgb(0, 0, 0)" d="M 54.71,41.94 C 57.26,41.55 59.84,41.4 62.43,41.45 65.01,41.53 67.61,41.83 70.13,42.55 71.41,42.92 72.57,43.39 73.81,43.7 75.03,44.04 76.27,44.36 77.51,44.66 79.98,45.3 82.49,45.79 85.01,46.35 L 85,46.45 C 82.41,46.46 79.84,46.1 77.29,45.64 76.02,45.37 74.76,45.06 73.52,44.65 72.28,44.27 71.07,43.72 69.89,43.32 67.49,42.53 64.95,42.13 62.4,41.96 59.85,41.77 57.28,41.79 54.72,42.04 L 54.71,41.94 Z M 54.71,41.94" />
            </g>
            <g id="kazWhizzTop06-group1056">
                <path id="kazWhizzTop06-bezier1398" stroke="none" fill="rgb(0, 0, 0)" d="M 49.22,42.15 C 50.02,41.67 50.94,41.4 51.88,41.28 52.34,41.21 52.83,41.14 53.3,41.24 53.77,41.34 54.22,41.5 54.62,41.81 L 54.6,41.88 C 54.11,41.97 53.66,41.98 53.22,41.98 52.78,41.99 52.35,41.9 51.91,41.88 51.03,41.86 50.12,41.94 49.25,42.22 L 49.22,42.15 Z M 49.22,42.15" />
            </g>
            <g id="kazWhizzTop06-group1057">
                <path id="kazWhizzTop06-bezier1399" stroke="none" fill="rgb(0, 0, 0)" d="M 49.57,18.93 L 52.09,18.78 C 52.51,18.74 52.92,18.66 53.34,18.69 53.75,18.73 54.16,18.78 54.6,18.93 L 54.61,19.01 C 54.22,19.27 53.79,19.38 53.36,19.44 52.94,19.51 52.51,19.43 52.09,19.38 51.24,19.3 50.4,19.18 49.56,19.01 L 49.57,18.93 Z M 49.57,18.93" />
            </g>
            <g id="kazWhizzTop06-group1058">
                <path id="kazWhizzTop06-bezier1400" stroke="none" fill="rgb(0, 0, 0)" d="M 50.22,27.71 C 50.55,27.86 50.9,27.89 51.21,27.88 51.38,27.87 51.53,27.79 51.68,27.83 51.85,27.88 52.01,27.94 52.23,28.1 L 52.24,28.18 C 52.11,28.41 51.92,28.52 51.72,28.58 51.51,28.64 51.31,28.55 51.11,28.48 50.73,28.34 50.37,28.1 50.17,27.77 L 50.22,27.71 Z M 50.22,27.71" />
            </g>
            <g id="kazWhizzTop06-group1059">
                <path id="kazWhizzTop06-bezier1401" stroke="none" fill="rgb(0, 0, 0)" d="M 49.92,33.4 C 50.22,33.1 50.56,32.83 50.94,32.62 51.13,32.51 51.32,32.36 51.57,32.37 51.8,32.38 52.11,32.45 52.25,32.73 L 52.22,32.8 C 51.98,32.93 51.86,33.03 51.69,33.11 51.54,33.18 51.34,33.15 51.15,33.18 50.77,33.25 50.37,33.35 49.96,33.46 L 49.92,33.4 Z M 49.92,33.4" />
            </g>
            <g id="kazWhizzTop06-group1060">
                <path id="kazWhizzTop06-bezier1402" stroke="none" fill="rgb(0, 0, 0)" d="M 120.93,14.81 C 120.73,14.19 120.59,13.54 120.59,12.86 120.58,12.52 120.56,12.14 120.79,11.79 120.98,11.42 121.6,11.19 121.9,11.48 L 121.9,11.55 C 121.55,11.74 121.53,11.91 121.45,12.14 121.39,12.36 121.25,12.62 121.18,12.92 121.06,13.51 121.02,14.16 121,14.8 L 120.93,14.81 Z M 120.93,14.81" />
            </g>
            <g id="kazWhizzTop06-group1061">
                <path id="kazWhizzTop06-bezier1403" stroke="none" fill="rgb(0, 0, 0)" d="M 100.87,47.51 C 100.18,47.62 99.5,47.69 98.8,47.72 98.46,47.75 98.11,47.81 97.76,47.73 97.42,47.64 97.06,47.52 96.77,47.22 L 96.8,47.15 C 97.17,47.05 97.49,47 97.83,46.98 98.17,46.96 98.5,47.07 98.83,47.12 L 100.87,47.44 100.87,47.51 Z M 100.87,47.51" />
            </g>
            <g id="kazWhizzTop06-group1062">
                <path id="kazWhizzTop06-bezier1404" stroke="none" fill="rgb(0, 0, 0)" d="M 100.99,12.68 L 99.63,12.96 C 99.4,13.02 99.19,13.12 98.97,13.1 98.74,13.08 98.54,13.03 98.26,12.92 L 98.23,12.86 C 98.38,12.57 98.64,12.44 98.87,12.36 99.11,12.27 99.35,12.34 99.59,12.36 100.07,12.4 100.53,12.48 101,12.6 L 100.99,12.68 Z M 100.99,12.68" />
            </g>
            <g id="kazWhizzTop06-group1063">
                <path id="kazWhizzTop06-bezier1405" stroke="none" fill="rgb(0, 0, 0)" d="M 111.53,32.91 C 111.71,32.93 111.89,33.06 112.02,33.19 112.15,33.34 112.24,33.49 112.33,33.67 L 112.35,33.72 112.32,33.81 C 112.26,34 112.22,34.2 112.08,34.35 111.94,34.48 111.77,34.67 111.5,34.63 L 111.48,34.58 C 111.55,34.39 111.59,34.24 111.66,34.07 111.73,33.91 111.87,33.79 111.97,33.64 L 111.96,33.78 C 111.93,33.64 111.89,33.47 111.82,33.33 111.75,33.18 111.67,33.04 111.51,32.96 L 111.53,32.91 Z M 111.53,32.91" />
            </g>
            <g id="kazWhizzTop06-group1064">
                <path id="kazWhizzTop06-bezier1406" stroke="none" fill="rgb(0, 0, 0)" d="M 49.58,43.09 C 52.57,44.09 55.64,44.83 58.71,45.52 61.78,46.19 64.88,46.79 67.98,47.3 71.08,47.83 74.2,48.26 77.33,48.66 L 86.69,49.88 86.72,49.89 86.74,49.89 C 87.61,50.19 88.6,50.14 89.47,49.77 89.9,49.59 90.31,49.35 90.66,49.02 90.99,48.69 91.28,48.27 91.31,47.79 L 91.39,47.79 C 91.4,48.3 91.14,48.78 90.82,49.16 90.48,49.55 90.07,49.87 89.62,50.1 88.7,50.56 87.6,50.69 86.59,50.42 L 86.64,50.43 C 83.49,50.18 80.35,49.87 77.22,49.41 74.1,48.95 70.99,48.41 67.89,47.84 64.78,47.25 61.69,46.6 58.63,45.85 55.57,45.08 52.52,44.25 49.55,43.16 L 49.58,43.09 Z M 49.58,43.09" />
            </g>
        </g>
    </g>
</svg>
