<?xml version="1.0" encoding="UTF-8"?>
<!DOCTYPE svg PUBLIC "-//W3C//DTD SVG 1.1//EN" "http://www.w3.org/Graphics/SVG/1.1/DTD/svg11.dtd">
<svg version="1.1" xmlns="http://www.w3.org/2000/svg" xmlns:xlink="http://www.w3.org/1999/xlink" width="160" height="160"  xml:space="preserve" id="kazWhixxSide07">
    <!-- Generated by PaintCode - http://www.paintcodeapp.com -->
    <g id="kazWhixxSide07-group">
        <circle id="kazWhixxSide07-oval64" stroke="rgb(0, 0, 0)" stroke-width="2" stroke-miterlimit="10" fill="none" cx="127.31" cy="125.81" r="29" />
        <path id="kazWhixxSide07-bezier1565" stroke="rgb(0, 0, 0)" stroke-width="2" stroke-miterlimit="10" fill="none" d="M 45.44,152.47 C 42.38,154.04 36.29,154.81 33.64,154.81 17.62,154.81 4.64,141.82 4.64,125.81 4.64,109.79 17.62,96.81 33.64,96.81 38.79,96.81 43.62,98.15 47.82,100.5" />
        <path id="kazWhixxSide07-bezier1566" stroke="rgb(0, 0, 0)" stroke-width="2" stroke-miterlimit="10" fill="none" d="M 62.64,125.99 C 62.58,135.37 58.07,143.69 51.11,148.95" />
        <path id="kazWhixxSide07-bezier1567" stroke="rgb(0, 0, 0)" stroke-width="2" stroke-miterlimit="10" fill="none" d="M 58.96,110.81 C 60.49,113.43 61.6,117.46 62.18,120.98" />
        <circle id="kazWhixxSide07-oval65" stroke="rgb(0, 0, 0)" stroke-width="2" stroke-miterlimit="10" fill="none" cx="72.14" cy="132.81" r="8.33" />
        <circle id="kazWhixxSide07-oval66" stroke="rgb(0, 0, 0)" stroke-width="2" stroke-miterlimit="10" fill="none" cx="33.64" cy="125.81" r="2.5" />
        <path id="kazWhixxSide07-bezier1568" stroke="rgb(0, 0, 0)" stroke-width="2" stroke-miterlimit="10" fill="none" d="M 53.07,129.34 L 72.14,132.81" />
        <path id="kazWhixxSide07-bezier1569" stroke="rgb(0, 0, 0)" stroke-width="2" stroke-miterlimit="10" fill="none" d="M 48.16,95.47 L 33.64,125.81 44.44,127.91" />
        <path id="kazWhixxSide07-bezier1570" stroke="rgb(0, 0, 0)" stroke-width="2" stroke-miterlimit="10" fill="none" d="M 111.9,78.64 L 63.81,78.64" />
        <path id="kazWhixxSide07-bezier1571" stroke="rgb(0, 0, 0)" stroke-width="2" stroke-miterlimit="10" fill="none" d="M 108.31,67.64 L 127.31,125.81" />
        <path id="kazWhixxSide07-bezier1572" stroke="rgb(0, 0, 0)" stroke-width="2" stroke-miterlimit="10" fill="none" d="M 114.97,88.03 L 79.14,123.3" />
        <path id="kazWhixxSide07-bezier1573" stroke="rgb(0, 0, 0)" stroke-width="2" stroke-miterlimit="10" fill="none" d="M 68.81,121.81 L 61.4,95.47" />
        <path id="kazWhixxSide07-bezier1574" stroke="rgb(0, 0, 0)" stroke-width="2" stroke-miterlimit="10" fill="none" d="M 43.02,68.3 C 42.43,68.15 41.96,67.93 41.64,67.64 38.98,65.13 35.72,63.5 40.63,63.32" />
        <path id="kazWhixxSide07-bezier1575" stroke="rgb(0, 0, 0)" stroke-width="1" stroke-miterlimit="10" fill="none" d="M 45,124.47 L 37.7,124.47" />
        <path id="kazWhixxSide07-bezier1576" stroke="rgb(0, 0, 0)" stroke-width="1" stroke-miterlimit="10" fill="none" d="M 67.08,124.47 L 57,124.47" />
        <path id="kazWhixxSide07-bezier1577" stroke="rgb(0, 0, 0)" stroke-width="1" stroke-miterlimit="10" fill="none" d="M 52.21,134.92 L 63.81,138.85" />
        <path id="kazWhixxSide07-bezier1578" stroke="rgb(0, 0, 0)" stroke-width="1" stroke-miterlimit="10" fill="none" d="M 35.64,129.31 L 44.42,132.28" />
        <path id="kazWhixxSide07-bezier1579" stroke="rgb(0, 0, 0)" stroke-width="2" stroke-miterlimit="10" fill="none" d="M 115.38,68.14 C 111.47,68.14 110.43,68.14 110.43,68.14" />
        <path id="kazWhixxSide07-bezier1580" stroke="rgb(0, 0, 0)" stroke-width="2" stroke-miterlimit="10" fill="none" d="M 125.39,83.6 C 125.39,83.6 129.56,82.56 129.56,77.06 129.56,73.77 128.19,71.23 125.64,69.72" />
        <path id="kazWhixxSide07-bezier1581" stroke="rgb(0, 0, 0)" stroke-width="2" stroke-miterlimit="10" fill="none" d="M 55.64,122.47 L 64.69,122.47" />
        <path id="kazWhixxSide07-bezier1582" stroke="rgb(0, 0, 0)" stroke-width="2" stroke-miterlimit="10" fill="none" d="M 81.23,142.72 L 89.06,142.72" />
        <g id="kazWhixxSide07-group1189">
            <g id="kazWhixxSide07-group1190">
                <path id="kazWhixxSide07-bezier1583" stroke="none" fill="rgb(0, 0, 0)" d="M 122.95,67.46 C 123.58,68.28 124.21,69.08 124.86,69.85 125.18,70.23 125.58,70.55 125.85,70.95 126.14,71.34 126.32,71.76 126.69,72.12 L 126.69,72.22 C 126.38,72.32 126.05,72.22 125.79,72.09 125.53,71.97 125.31,71.8 125.1,71.62 124.68,71.26 124.47,70.76 124.2,70.31 123.68,69.41 123.24,68.48 122.86,67.51 L 122.95,67.46 Z M 122.95,67.46" />
            </g>
            <g id="kazWhixxSide07-group1191">
                <path id="kazWhixxSide07-bezier1584" stroke="none" fill="rgb(0, 0, 0)" d="M 127.71,72.35 C 126.4,73.35 125.01,74.28 123.45,74.91 122.68,75.2 121.82,75.48 120.92,75.22 120.06,74.96 119.41,74.28 118.94,73.59 118,72.15 117.51,70.53 116.99,68.97 L 116.95,68.85 C 116.93,68.81 116.91,68.74 116.89,68.72 116.86,68.67 116.81,68.58 116.75,68.51 116.65,68.36 116.52,68.21 116.39,68.06 116.12,67.76 115.83,67.47 115.54,67.19 114.96,66.63 114.34,66.08 113.72,65.54 111.23,63.41 108.58,61.44 106.02,59.38 104.74,58.34 103.44,57.34 102.14,56.32 101.5,55.81 100.84,55.31 100.18,54.82 99.53,54.32 98.87,53.82 98.16,53.42 L 98.2,53.32 C 99.77,53.93 101.15,54.87 102.55,55.75 103.94,56.65 105.28,57.62 106.62,58.59 109.29,60.55 111.81,62.71 114.26,64.95 114.87,65.51 115.47,66.08 116.06,66.68 116.35,66.98 116.63,67.28 116.91,67.61 117.05,67.78 117.18,67.94 117.3,68.13 117.37,68.23 117.43,68.32 117.49,68.45 117.53,68.52 117.54,68.56 117.56,68.61 L 117.61,68.77 C 118.09,70.35 118.52,71.95 119.36,73.31 119.78,73.98 120.32,74.59 121.05,74.85 121.75,75.09 122.6,74.89 123.35,74.63 124.88,74.07 126.31,73.21 127.65,72.27 L 127.71,72.35 Z M 127.71,72.35" />
            </g>
            <g id="kazWhixxSide07-group1192">
                <path id="kazWhixxSide07-bezier1585" stroke="none" fill="rgb(0, 0, 0)" d="M 98.49,52.42 C 97.81,52.43 97.08,52.24 96.57,51.71 96.3,51.45 96.17,51.08 96.01,50.83 L 95.47,49.98 C 94.74,48.85 93.99,47.74 93.23,46.63 92.46,45.52 91.64,44.45 90.96,43.28 90.29,42.12 89.64,40.94 89.12,39.67 L 89.2,39.61 C 90.18,40.58 91.01,41.65 91.8,42.74 92.59,43.83 93.23,45.03 93.9,46.2 94.58,47.37 95.25,48.54 95.9,49.73 96.06,50.03 96.21,50.33 96.36,50.64 96.53,50.97 96.59,51.27 96.79,51.51 97.17,52 97.84,52.27 98.49,52.32 L 98.49,52.42 Z M 98.49,52.42" />
            </g>
            <g id="kazWhixxSide07-group1193">
                <path id="kazWhixxSide07-bezier1586" stroke="none" fill="rgb(0, 0, 0)" d="M 87.79,39.27 C 89.03,38.04 90.41,36.95 91.93,36.05 92.69,35.6 93.47,35.19 94.29,34.84 95.1,34.48 95.94,34.15 96.83,33.99 L 96.47,34.72 C 95.94,33.51 95.44,32.31 95.05,31.02 L 95.13,30.97 C 96.06,31.96 96.76,33.11 97.39,34.27 L 97.7,34.83 97.04,35 C 96.23,35.21 95.4,35.37 94.6,35.64 93.79,35.9 93,36.24 92.23,36.61 90.7,37.37 89.21,38.26 87.86,39.34 L 87.79,39.27 Z M 87.79,39.27" />
            </g>
            <g id="kazWhixxSide07-group1194">
                <path id="kazWhixxSide07-bezier1587" stroke="none" fill="rgb(0, 0, 0)" d="M 96.59,35.27 C 97.72,36.77 98.76,38.34 99.69,39.99 100.15,40.81 100.67,41.61 100.97,42.52 101.28,43.41 101.52,44.34 101.55,45.32 L 101.46,45.35 C 100.9,44.55 100.47,43.73 100.05,42.91 99.62,42.09 99.35,41.19 98.97,40.34 98.22,38.65 97.39,36.97 96.51,35.32 L 96.59,35.27 Z M 96.59,35.27" />
            </g>
            <g id="kazWhixxSide07-group1195">
                <path id="kazWhixxSide07-bezier1588" stroke="none" fill="rgb(0, 0, 0)" d="M 102.91,47.53 C 105.41,48.49 107.58,50.32 109.08,52.55 110.68,54.65 112.48,56.62 114.29,58.56 116.12,60.48 118.02,62.34 119.92,64.16 120.39,64.61 120.88,65.08 121.37,65.42 121.8,65.71 122.45,65.8 123.1,65.9 123.75,65.99 124.48,66.09 125.11,66.45 125.73,66.83 126.18,67.38 126.49,67.98 L 126.41,68.03 C 125.98,67.53 125.49,67.08 124.9,66.86 124.33,66.62 123.71,66.6 123.04,66.59 122.37,66.58 121.64,66.54 120.91,66.15 120.28,65.77 119.77,65.34 119.25,64.91 117.21,63.13 115.46,61.11 113.7,59.1 111.95,57.07 110.22,55.04 108.67,52.84 107.32,50.58 105.31,48.71 102.88,47.62 L 102.91,47.53 Z M 102.91,47.53" />
            </g>
            <g id="kazWhixxSide07-group1196">
                <path id="kazWhixxSide07-bezier1589" stroke="none" fill="rgb(0, 0, 0)" d="M 95.87,19.11 C 96.11,20.37 96.63,21.57 97.35,22.6 98.06,23.65 98.98,24.46 100.08,25.12 101.15,25.8 102.29,26.37 103.39,26.85 103.95,27.09 104.52,27.26 105.07,27.26 105.62,27.27 106.14,26.98 106.54,26.45 L 106.63,26.49 C 106.56,26.82 106.39,27.14 106.14,27.41 105.88,27.68 105.53,27.86 105.17,27.95 104.43,28.14 103.71,27.99 103.05,27.79 101.74,27.37 100.66,26.56 99.62,25.78 98.55,25.02 97.57,24.01 96.93,22.86 96.29,21.7 95.88,20.42 95.77,19.12 L 95.87,19.11 Z M 95.87,19.11" />
            </g>
            <g id="kazWhixxSide07-group1197">
                <path id="kazWhixxSide07-bezier1590" stroke="none" fill="rgb(0, 0, 0)" d="M 107.81,23.46 C 108.48,23.59 109.21,23.64 109.81,23.41 110.11,23.28 110.33,23.07 110.4,22.78 110.48,22.51 110.43,22.17 110.42,21.81 110.39,20.41 110.39,19 110.55,17.58 110.64,16.86 110.74,16.15 111.08,15.4 111.19,15.2 111.25,15.1 111.31,14.96 111.37,14.82 111.42,14.67 111.48,14.52 111.59,14.22 111.69,13.91 111.75,13.59 112.03,12.34 112.21,10.94 111.39,9.81 L 111.46,9.73 C 112.12,10.09 112.5,10.84 112.67,11.56 112.85,12.29 112.84,13.05 112.73,13.78 112.67,14.15 112.58,14.51 112.46,14.87 112.39,15.05 112.31,15.23 112.23,15.4 112.14,15.57 112.01,15.77 111.96,15.87 111.66,16.37 111.48,17.05 111.35,17.7 111.09,19.04 110.99,20.43 110.92,21.81 110.89,22.15 110.93,22.52 110.78,22.91 110.64,23.3 110.28,23.59 109.92,23.69 109.18,23.89 108.46,23.75 107.79,23.56 L 107.81,23.46 Z M 107.81,23.46" />
            </g>
            <g id="kazWhixxSide07-group1198">
                <path id="kazWhixxSide07-bezier1591" stroke="none" fill="rgb(0, 0, 0)" d="M 100.07,20.09 C 99.73,19.47 99.47,18.81 99.31,18.1 99.23,17.74 99.09,17.36 99.22,16.96 99.33,16.59 99.61,16.13 100.09,16.08 L 100.16,16.15 C 100.12,16.57 100.2,16.8 100.21,17.11 100.24,17.39 100.12,17.7 100.1,18.03 100.08,18.68 100.11,19.37 100.17,20.06 L 100.07,20.09 Z M 100.07,20.09" />
            </g>
            <g id="kazWhixxSide07-group1199">
                <path id="kazWhixxSide07-bezier1592" stroke="none" fill="rgb(0, 0, 0)" d="M 95.83,25.24 C 96.03,24.96 96.27,24.69 96.56,24.47 96.7,24.36 96.83,24.17 97.05,24.19 97.24,24.2 97.5,24.28 97.66,24.56 L 97.66,24.66 C 97.49,24.94 97.43,25.05 97.31,25.16 97.21,25.26 97.03,25.19 96.87,25.21 96.56,25.24 96.23,25.29 95.87,25.33 L 95.83,25.24 Z M 95.83,25.24" />
            </g>
            <g id="kazWhixxSide07-group1200">
                <path id="kazWhixxSide07-bezier1593" stroke="none" fill="rgb(0, 0, 0)" d="M 87.79,20.08 C 84.78,20.17 81.85,21.01 79.01,21.97 76.17,22.95 73.41,24.14 70.85,25.69 68.28,27.23 65.87,29.02 63.39,30.73 62.14,31.57 60.91,32.44 59.63,33.26 58.34,34.05 57.05,34.91 55.57,35.35 L 55.54,35.25 C 56.21,34.91 56.83,34.5 57.43,34.05 58.04,33.61 58.64,33.15 59.23,32.69 L 62.81,29.92 C 65.22,28.1 67.79,26.46 70.45,24.99 73.11,23.5 75.97,22.38 78.86,21.49 81.76,20.65 84.75,19.94 87.79,19.98 L 87.79,20.08 Z M 87.79,20.08" />
            </g>
            <g id="kazWhixxSide07-group1201">
                <path id="kazWhixxSide07-bezier1594" stroke="none" fill="rgb(0, 0, 0)" d="M 55.1,36.27 C 57.09,38.13 59.01,40.06 60.86,42.07 61.77,43.08 62.66,44.12 63.5,45.21 64.33,46.3 65.14,47.42 65.72,48.74 L 65.07,48.6 C 66.03,47.63 67,46.69 68,45.77 69,44.84 70.05,43.97 71.13,43.14 72.23,42.34 73.34,41.54 74.53,40.86 75.73,40.21 76.99,39.54 78.39,39.45 L 78.4,39.55 C 77.75,39.72 77.15,40.01 76.58,40.36 76.01,40.69 75.45,41.06 74.91,41.45 73.83,42.23 72.77,43.05 71.75,43.92 70.71,44.77 69.69,45.64 68.66,46.51 67.63,47.38 66.61,48.26 65.63,49.17 L 65.19,49.58 64.98,49.03 C 64.5,47.83 63.75,46.69 62.98,45.6 62.19,44.5 61.35,43.44 60.48,42.4 58.75,40.31 56.92,38.29 55.03,36.34 L 55.1,36.27 Z M 55.1,36.27" />
            </g>
            <g id="kazWhixxSide07-group1202">
                <path id="kazWhixxSide07-bezier1595" stroke="none" fill="rgb(0, 0, 0)" d="M 80.35,39.58 C 80.91,39.72 81.49,39.76 82.05,39.74 82.61,39.74 83.17,39.66 83.7,39.52 84.24,39.39 84.71,39.1 85.23,38.95 85.75,38.79 86.27,38.6 86.9,38.47 L 86.96,38.55 C 86.66,39.13 86.18,39.55 85.64,39.87 85.1,40.19 84.45,40.25 83.84,40.31 82.6,40.42 81.37,40.21 80.31,39.67 L 80.35,39.58 Z M 80.35,39.58" />
            </g>
            <g id="kazWhixxSide07-group1203">
                <path id="kazWhixxSide07-bezier1596" stroke="none" fill="rgb(0, 0, 0)" d="M 54.1,38.21 C 53.56,39.28 52.9,40.3 52.12,41.23 51.73,41.7 51.36,42.22 50.81,42.54 50.28,42.86 49.64,43.11 48.97,43.04 L 48.94,42.94 50.21,41.74 C 50.61,41.35 51.11,41.06 51.55,40.67 52.42,39.91 53.24,39.05 54.02,38.16 L 54.1,38.21 Z M 54.1,38.21" />
            </g>
            <g id="kazWhixxSide07-group1204">
                <path id="kazWhixxSide07-bezier1597" stroke="none" fill="rgb(0, 0, 0)" d="M 62.6,54.25 C 61.57,53.09 60.44,52 59.25,50.99 58.05,49.99 56.78,49.07 55.4,48.39 54.71,48.03 53.99,47.82 53.24,47.53 52.5,47.23 51.78,46.88 51.09,46.48 49.71,45.66 48.45,44.69 47.36,43.45 L 47.85,43.53 C 46.22,44.77 44.72,46.25 43.45,47.87 42.18,49.48 41.14,51.28 40.57,53.21 40.3,54.17 40.16,55.17 40.19,56.16 40.23,57.16 40.43,58.17 40.71,59.16 40.97,60.15 41.32,61.13 41.75,62.07 42.19,63.01 42.68,63.94 43.41,64.68 L 43.35,64.76 C 42.48,64.12 41.86,63.21 41.31,62.3 40.78,61.37 40.34,60.4 39.98,59.39 39.63,58.37 39.37,57.32 39.27,56.22 39.16,55.11 39.3,53.99 39.59,52.93 40.17,50.8 41.37,48.93 42.74,47.29 44.13,45.66 45.69,44.21 47.43,42.94 L 47.7,42.75 47.92,43.01 C 48.87,44.16 50.09,45.16 51.39,45.97 52.04,46.38 52.73,46.74 53.43,47.04 54.13,47.34 54.91,47.6 55.6,48 57,48.76 58.25,49.74 59.42,50.79 60.59,51.84 61.68,52.98 62.68,54.19 L 62.6,54.25 Z M 62.6,54.25" />
            </g>
            <g id="kazWhixxSide07-group1205">
                <path id="kazWhixxSide07-bezier1598" stroke="none" fill="rgb(0, 0, 0)" d="M 43.89,66.37 C 44.24,69.38 44.63,72.38 45.06,75.37 45.47,78.37 45.93,81.36 46.48,84.32 46.76,85.8 47.07,87.28 47.44,88.73 47.62,89.46 47.82,90.17 48.05,90.87 48.25,91.59 48.57,92.17 48.9,92.93 50.03,95.88 50.06,99.13 49.19,102.05 L 49.09,102.03 C 49.4,99.04 49.17,95.97 47.98,93.32 47.69,92.7 47.28,91.93 47.06,91.19 46.83,90.45 46.65,89.7 46.48,88.96 46.16,87.46 45.91,85.96 45.69,84.46 44.78,78.46 44.22,72.42 43.79,66.38 L 43.89,66.37 Z M 43.89,66.37" />
            </g>
            <g id="kazWhixxSide07-group1206">
                <path id="kazWhixxSide07-bezier1599" stroke="none" fill="rgb(0, 0, 0)" d="M 48.59,101.66 C 47.96,102.86 47.39,104.08 46.9,105.34 46.43,106.58 45.97,107.88 45.92,109.18 45.9,111.85 46.1,114.56 46.19,117.26 46.31,119.96 46.46,122.68 46.32,125.39 46.24,126.75 46.15,128.11 45.95,129.46 45.72,130.8 45.51,132.19 44.8,133.4 L 44.71,133.35 C 44.94,132.72 45.04,132.06 45.11,131.39 45.19,130.73 45.23,130.06 45.25,129.39 45.31,128.05 45.34,126.71 45.32,125.37 L 45.39,117.28 C 45.4,114.57 45.3,111.88 45.42,109.15 45.55,107.74 46.08,106.46 46.62,105.22 47.18,103.98 47.81,102.78 48.5,101.61 L 48.59,101.66 Z M 48.59,101.66" />
            </g>
            <g id="kazWhixxSide07-group1207">
                <path id="kazWhixxSide07-bezier1600" stroke="none" fill="rgb(0, 0, 0)" d="M 60.46,63.4 C 61.22,66.17 61.75,69 62.16,71.84 62.54,74.69 62.77,77.56 62.81,80.44 62.85,83.32 62.76,86.23 62.23,89.08 61.68,91.92 60.88,94.73 59.55,97.3 L 59.45,97.26 C 60.24,94.5 60.88,91.73 61.24,88.92 61.63,86.12 61.94,83.29 62.01,80.44 62.07,77.6 61.94,74.74 61.66,71.9 61.39,69.06 60.99,66.22 60.36,63.43 L 60.46,63.4 Z M 60.46,63.4" />
            </g>
            <g id="kazWhixxSide07-group1208">
                <path id="kazWhixxSide07-bezier1601" stroke="none" fill="rgb(0, 0, 0)" d="M 59.93,97.91 C 60.4,98.44 60.54,99.11 60.72,99.75 60.86,100.39 60.95,101.11 60.81,101.81 60.69,102.49 60.56,103.15 60.24,103.74 59.92,104.32 59.55,104.87 59.01,105.33 L 58.92,105.28 C 58.96,104.58 59.13,103.96 59.32,103.35 59.5,102.74 59.85,102.2 60.04,101.62 60.24,101.05 60.26,100.45 60.23,99.81 60.19,99.2 60.17,98.51 59.86,97.98 L 59.93,97.91 Z M 59.93,97.91" />
            </g>
            <g id="kazWhixxSide07-group1209">
                <path id="kazWhixxSide07-bezier1602" stroke="none" fill="rgb(0, 0, 0)" d="M 59.01,106.24 C 58.3,108.7 57.6,111.17 56.99,113.66 56.47,116.14 55.76,118.66 55.09,121.12 54.41,123.59 53.75,126.07 53.11,128.55 52.5,131.03 51.71,133.51 51.16,135.93 L 51.05,136.4 50.63,136.27 C 49.62,135.96 48.6,135.63 47.57,135.37 47.05,135.24 46.53,135.12 46.01,135.02 45.49,134.94 44.95,134.84 44.46,134.99 L 44.41,134.91 C 44.93,134.62 45.51,134.67 46.05,134.67 46.59,134.69 47.14,134.75 47.67,134.83 48.75,134.99 49.81,135.19 50.86,135.47 L 50.34,135.82 C 50.74,133.2 51.44,130.76 52.17,128.29 L 54.42,120.92 55.54,117.25 C 55.72,116.63 55.92,116.02 56.07,115.41 56.21,114.78 56.39,114.16 56.57,113.54 57.3,111.08 58.1,108.64 58.91,106.21 L 59.01,106.24 Z M 59.01,106.24" />
            </g>
            <g id="kazWhixxSide07-group1210">
                <path id="kazWhixxSide07-bezier1603" stroke="none" fill="rgb(0, 0, 0)" d="M 43.83,140.35 C 43.93,139.57 44.04,138.8 44.16,138.03 44.21,137.65 44.18,137.25 44.34,136.91 44.48,136.55 44.67,136.23 44.95,135.87 L 45.05,135.87 C 45.32,136.29 45.33,136.73 45.31,137.13 45.3,137.53 45.07,137.88 44.93,138.24 44.64,138.97 44.3,139.68 43.93,140.38 L 43.83,140.35 Z M 43.83,140.35" />
            </g>
            <g id="kazWhixxSide07-group1211">
                <path id="kazWhixxSide07-bezier1604" stroke="none" fill="rgb(0, 0, 0)" d="M 48.12,154.5 C 47.14,153.24 46.08,152.02 44.91,150.96 44.32,150.43 43.69,149.92 43.02,149.65 42.28,149.4 41.48,149.06 40.78,148.58 40.1,148.1 39.35,147.48 39.13,146.44 39.04,145.93 39.16,145.38 39.39,144.95 39.64,144.53 39.96,144.2 40.29,143.91 L 40.53,143.73 C 40.6,143.67 40.7,143.6 40.74,143.55 40.85,143.44 40.97,143.31 41.08,143.17 41.32,142.88 41.51,142.55 41.72,142.22 42.14,141.57 42.49,140.71 43.29,140.32 L 43.34,140.41 C 43.06,140.68 42.89,141.02 42.76,141.39 42.61,141.75 42.49,142.13 42.35,142.52 42.21,142.91 42.04,143.29 41.81,143.67 41.7,143.86 41.57,144.04 41.4,144.23 41.31,144.33 41.25,144.38 41.18,144.45 L 40.95,144.67 C 40.41,145.16 40.04,145.73 40.11,146.29 40.16,146.87 40.67,147.47 41.25,147.93 41.85,148.4 42.52,148.74 43.28,149.05 44.08,149.44 44.68,150.02 45.25,150.6 46.37,151.79 47.32,153.09 48.2,154.44 L 48.12,154.5 Z M 48.12,154.5" />
            </g>
            <g id="kazWhixxSide07-group1212">
                <path id="kazWhixxSide07-bezier1605" stroke="none" fill="rgb(0, 0, 0)" d="M 44.46,141.78 C 44.92,142.19 45.43,142.52 45.94,142.77 46.2,142.9 46.49,142.91 46.71,143.08 46.93,143.25 47.16,143.42 47.4,143.76 L 47.38,143.86 C 47.03,144.06 46.66,144.08 46.32,144 45.97,143.94 45.73,143.65 45.48,143.43 44.99,142.98 44.61,142.43 44.38,141.83 L 44.46,141.78 Z M 44.46,141.78" />
            </g>
            <g id="kazWhixxSide07-group1213">
                <path id="kazWhixxSide07-bezier1606" stroke="none" fill="rgb(0, 0, 0)" d="M 48.15,144.26 C 48.56,144.11 49,143.98 49.47,144.13 49.7,144.2 49.9,144.4 49.98,144.64 50.05,144.87 50.09,145.06 50.15,145.27 50.38,146.1 50.64,146.92 50.93,147.73 51.21,148.54 51.51,149.35 51.91,150.07 52.09,150.41 52.38,150.81 52.56,150.86 L 52.83,150.9 53.17,150.97 C 53.39,151.02 53.61,151.08 53.82,151.15 54.67,151.43 55.51,151.76 56.29,152.32 56.49,152.46 56.68,152.63 56.85,152.84 57.02,153.07 57.2,153.31 57.21,153.75 L 57.21,153.83 C 57.21,153.89 57.19,153.96 57.18,154.02 57.15,154.14 57.11,154.23 57.05,154.32 56.94,154.5 56.8,154.61 56.67,154.7 56.41,154.87 56.16,154.95 55.93,155.01 54.98,155.21 54.11,155.19 53.23,155.14 52.36,155.09 51.49,155 50.63,154.86 L 50.63,154.76 C 52.33,154.46 54.15,154.46 55.66,154.05 55.84,154 56,153.93 56.1,153.86 56.15,153.82 56.18,153.79 56.18,153.78 56.18,153.78 56.18,153.77 56.17,153.78 56.17,153.79 56.17,153.81 56.18,153.82 L 56.18,153.73 C 56.19,153.67 55.97,153.31 55.68,153.09 55.09,152.6 54.32,152.21 53.56,151.91 53.36,151.83 53.17,151.76 52.97,151.7 L 52.68,151.62 C 52.57,151.59 52.54,151.6 52.32,151.54 51.98,151.39 51.83,151.17 51.68,150.98 51.54,150.78 51.43,150.58 51.33,150.37 50.94,149.56 50.69,148.72 50.45,147.88 50.22,147.04 50.03,146.19 49.86,145.34 49.76,144.91 49.78,144.45 49.39,144.31 49.03,144.16 48.58,144.23 48.18,144.35 L 48.15,144.26 Z M 48.15,144.26" />
            </g>
            <g id="kazWhixxSide07-group1214">
                <path id="kazWhixxSide07-bezier1607" stroke="none" fill="rgb(0, 0, 0)" d="M 48.12,142.79 C 48.28,141.71 48.49,140.64 48.74,139.58 48.87,139.05 48.92,138.49 49.18,137.99 49.44,137.51 49.72,136.99 50.27,136.65 L 50.35,136.72 C 50.31,137.28 50.25,137.82 50.12,138.34 50.01,138.86 49.71,139.33 49.5,139.83 49.09,140.82 48.66,141.82 48.21,142.82 L 48.12,142.79 Z M 48.12,142.79" />
            </g>
            <g id="kazWhixxSide07-group1215">
                <path id="kazWhixxSide07-bezier1608" stroke="none" fill="rgb(0, 0, 0)" d="M 77.42,98.49 L 77.51,111.53 77.61,114.78 77.69,116.39 C 77.7,116.64 77.71,116.93 77.75,117.12 77.76,117.18 77.81,117.37 77.84,117.52 L 77.91,117.95 C 78.01,119.07 78.05,120.15 78.07,121.24 L 78.1,122.87 C 78.12,123.4 78.09,123.98 78.26,124.44 L 78.19,124.51 C 77.98,124.27 77.92,123.99 77.84,123.73 77.77,123.46 77.7,123.19 77.64,122.92 77.54,122.38 77.46,121.84 77.37,121.3 77.21,120.22 77.12,119.13 76.92,118.1 L 76.85,117.72 C 76.83,117.61 76.8,117.53 76.75,117.33 76.68,116.99 76.67,116.73 76.65,116.44 76.62,115.89 76.62,115.34 76.62,114.79 L 76.71,111.52 C 76.84,107.17 77.06,102.82 77.32,98.48 L 77.42,98.49 Z M 77.42,98.49" />
            </g>
            <g id="kazWhixxSide07-group1216">
                <path id="kazWhixxSide07-bezier1609" stroke="none" fill="rgb(0, 0, 0)" d="M 71.34,121.82 C 70.86,119.75 70.36,117.68 69.84,115.63 69.33,113.57 68.82,111.51 68.22,109.48 68.07,108.98 67.91,108.48 67.73,107.99 67.54,107.53 67.35,106.94 67.26,106.4 67.06,105.3 67.05,104.21 67.1,103.13 67.25,100.97 67.61,98.86 68.16,96.8 L 68.26,96.81 C 68.28,98.96 68.06,101.06 68.1,103.16 68.09,104.2 68.11,105.24 68.23,106.24 68.3,106.75 68.4,107.18 68.58,107.71 68.74,108.23 68.87,108.75 68.99,109.28 69.99,113.43 70.73,117.61 71.44,121.8 L 71.34,121.82 Z M 71.34,121.82" />
            </g>
            <g id="kazWhixxSide07-group1217">
                <path id="kazWhixxSide07-bezier1610" stroke="none" fill="rgb(0, 0, 0)" d="M 82.85,134.04 C 83.95,135.13 85.2,136.11 86.6,136.69 87.28,136.98 88.06,137.1 88.81,137.31 89.57,137.51 90.33,137.71 91.09,137.96 91.84,138.2 92.6,138.46 93.34,138.86 93.7,139.08 94.08,139.31 94.4,139.75 94.54,139.98 94.67,140.26 94.65,140.63 94.65,140.68 94.61,140.94 94.54,141.07 94.48,141.22 94.38,141.35 94.28,141.46 93.86,141.85 93.41,141.96 93,142.06 92.58,142.14 92.17,142.18 91.77,142.18 90.96,142.18 90.17,142.09 89.39,141.94 L 89.39,141.84 C 90.18,141.71 90.95,141.63 91.7,141.48 92.07,141.4 92.44,141.33 92.77,141.21 93.1,141.1 93.42,140.94 93.55,140.77 93.58,140.74 93.61,140.7 93.61,140.67 93.63,140.63 93.62,140.69 93.63,140.55 93.63,140.53 93.61,140.42 93.54,140.33 93.4,140.13 93.13,139.9 92.83,139.71 92.23,139.32 91.52,139 90.82,138.71 90.1,138.43 89.37,138.18 88.63,137.94 87.9,137.68 87.13,137.51 86.39,137.15 84.95,136.39 83.79,135.3 82.77,134.11 L 82.85,134.04 Z M 82.85,134.04" />
            </g>
            <g id="kazWhixxSide07-group1218">
                <path id="kazWhixxSide07-bezier1611" stroke="none" fill="rgb(0, 0, 0)" d="M 80.77,141.93 C 80.26,141.63 79.7,141.46 79.16,141.3 78.89,141.23 78.58,141.25 78.34,141.1 78.1,140.95 77.86,140.77 77.63,140.44 L 77.65,140.34 C 78,140.14 78.33,140.11 78.65,140.15 78.97,140.17 79.22,140.41 79.49,140.57 80.02,140.91 80.51,141.33 80.84,141.86 L 80.77,141.93 Z M 80.77,141.93" />
            </g>
            <g id="kazWhixxSide07-group1219">
                <path id="kazWhixxSide07-bezier1612" stroke="none" fill="rgb(0, 0, 0)" d="M 62.46,54.73 C 62.28,55.96 62.07,57.17 61.86,58.38 61.75,58.99 61.73,59.61 61.52,60.19 61.33,60.77 61.06,61.33 60.76,61.88 L 60.67,61.9 C 60.41,61.22 60.48,60.58 60.54,59.96 60.61,59.34 60.89,58.77 61.08,58.19 61.47,57.01 61.9,55.86 62.37,54.71 L 62.46,54.73 Z M 62.46,54.73" />
            </g>
            <g id="kazWhixxSide07-group1220">
                <path id="kazWhixxSide07-bezier1613" stroke="none" fill="rgb(0, 0, 0)" d="M 62.45,64.69 C 64.2,66.4 65.78,68.28 67.28,70.23 68.75,72.19 70.12,74.23 71.37,76.35 72.63,78.46 73.82,80.63 74.72,82.92 75.6,85.23 76.35,87.58 76.74,90.01 L 76.64,90.04 C 75.7,87.77 74.83,85.51 73.8,83.31 72.8,81.11 71.82,78.88 70.68,76.74 69.53,74.6 68.26,72.52 66.87,70.52 65.5,68.51 64.03,66.56 62.38,64.76 L 62.45,64.69 Z M 62.45,64.69" />
            </g>
            <g id="kazWhixxSide07-group1221">
                <path id="kazWhixxSide07-bezier1614" stroke="none" fill="rgb(0, 0, 0)" d="M 76.99,90.88 C 77.39,91.89 77.71,92.94 77.91,94.03 78.01,94.57 78.18,95.12 78.09,95.69 78.01,96.25 77.85,96.84 77.42,97.29 L 77.33,97.26 C 77.21,96.68 77.14,96.19 77.09,95.67 77.03,95.16 77.13,94.64 77.12,94.11 77.09,93.05 77.01,91.98 76.89,90.9 L 76.99,90.88 Z M 76.99,90.88" />
            </g>
            <g id="kazWhixxSide07-group1222">
                <path id="kazWhixxSide07-bezier1615" stroke="none" fill="rgb(0, 0, 0)" d="M 67.52,95.49 C 66.94,94.41 66.27,93.37 65.5,92.46 65.11,92 64.64,91.65 64.27,91.24 63.87,90.83 63.49,90.47 62.95,90.08 L 62.97,89.98 C 63.65,89.83 64.36,90.1 64.91,90.48 65.48,90.86 65.81,91.45 66.15,91.99 66.82,93.08 67.29,94.25 67.61,95.45 L 67.52,95.49 Z M 67.52,95.49" />
            </g>
            <g id="kazWhixxSide07-group1223">
                <path id="kazWhixxSide07-bezier1616" stroke="none" fill="rgb(0, 0, 0)" d="M 110.92,8.5 C 109.53,6.92 107.6,5.86 105.61,5.24 103.6,4.63 101.45,4.45 99.39,4.67 98.36,4.78 97.34,5.04 96.43,5.49 95.51,5.94 94.72,6.61 94.12,7.43 92.92,9.08 92.47,11.18 92.34,13.24 92.27,14.28 92.33,15.33 92.29,16.42 92.26,17.49 92.17,18.57 92.04,19.63 91.77,21.77 91.29,23.88 90.59,25.92 89.86,27.95 88.96,29.94 87.64,31.68 86.97,32.54 86.21,33.34 85.32,33.97 84.42,34.58 83.38,35.02 82.3,35.11 L 82.29,35.01 C 84.38,34.55 85.94,32.98 87.07,31.27 88.21,29.54 89.03,27.6 89.65,25.61 90.28,23.62 90.74,21.57 91.06,19.5 91.22,18.46 91.33,17.42 91.4,16.38 91.47,15.35 91.44,14.27 91.54,13.18 91.73,11.05 92.24,8.82 93.6,7.04 94.28,6.16 95.17,5.44 96.17,4.97 97.18,4.51 98.26,4.26 99.34,4.17 101.5,4.01 103.66,4.27 105.7,4.96 107.72,5.65 109.63,6.79 111,8.44 L 110.92,8.5 Z M 110.92,8.5" />
            </g>
            <g id="kazWhixxSide07-group1224">
                <path id="kazWhixxSide07-bezier1617" stroke="none" fill="rgb(0, 0, 0)" d="M 109.88,10.66 C 109.23,11.98 108.44,13.27 107.24,14.24 106.93,14.47 106.59,14.68 106.2,14.81 105.84,14.95 105.34,14.97 105.01,14.95 104.29,14.93 103.56,14.95 102.86,15.03 101.45,15.2 100.06,15.63 99.16,16.49 98.71,16.91 98.42,17.5 98.29,18.16 98.15,18.83 98.18,19.55 98.23,20.29 L 98.13,20.32 C 97.8,19.64 97.6,18.9 97.59,18.1 97.58,17.3 97.86,16.44 98.43,15.8 99,15.17 99.76,14.78 100.51,14.56 101.27,14.35 102.04,14.26 102.8,14.23 103.55,14.2 104.3,14.23 105.05,14.3 105.74,14.42 106.35,14.23 106.95,13.83 108.12,13.06 109.04,11.85 109.79,10.62 L 109.88,10.66 Z M 109.88,10.66" />
            </g>
            <g id="kazWhixxSide07-group1225">
                <path id="kazWhixxSide07-bezier1618" stroke="none" fill="rgb(0, 0, 0)" d="M 95.25,22.89 C 95.44,24.95 95.44,27.04 95.17,29.12 95.03,30.15 94.91,31.22 94.46,32.21 94.02,33.18 93.38,34.16 92.41,34.68 L 92.34,34.6 C 92.89,33.71 93.23,32.8 93.52,31.86 93.8,30.91 94.16,29.97 94.38,28.98 94.61,27.99 94.77,26.98 94.89,25.96 95.02,24.95 95.11,23.92 95.15,22.89 L 95.25,22.89 Z M 95.25,22.89" />
            </g>
            <g id="kazWhixxSide07-group1226">
                <path id="kazWhixxSide07-bezier1619" stroke="none" fill="rgb(0, 0, 0)" d="M 64.42,49.25 L 63.7,50.93 C 63.59,51.2 63.56,51.52 63.38,51.73 63.2,51.96 63,52.13 62.7,52.38 L 62.6,52.37 C 62.35,52.01 62.4,51.61 62.48,51.3 62.55,50.97 62.82,50.76 63.02,50.52 63.42,50.03 63.86,49.59 64.34,49.19 L 64.42,49.25 Z M 64.42,49.25" />
            </g>
            <g id="kazWhixxSide07-group1227">
                <path id="kazWhixxSide07-bezier1620" stroke="none" fill="rgb(0, 0, 0)" d="M 90.68,14.81 C 90.38,17.15 89.86,19.47 89,21.71 88.56,22.82 88.11,23.97 87.3,24.91 86.52,25.84 85.4,26.69 84.14,26.71 L 84.12,26.62 C 85.17,26.06 85.88,25.22 86.51,24.31 87.12,23.38 87.77,22.43 88.27,21.39 88.77,20.35 89.2,19.27 89.57,18.16 89.96,17.06 90.3,15.94 90.58,14.8 L 90.68,14.81 Z M 90.68,14.81" />
            </g>
        </g>
        <path id="kazWhixxSide07-bezier1621" stroke="rgb(0, 0, 0)" stroke-width="2" stroke-miterlimit="10" fill="none" d="M 60.16,122.47 L 72.14,132.81" />
    </g>
</svg>
