<?xml version="1.0" encoding="UTF-8"?>
<!DOCTYPE svg PUBLIC "-//W3C//DTD SVG 1.1//EN" "http://www.w3.org/Graphics/SVG/1.1/DTD/svg11.dtd">
<svg version="1.1" xmlns="http://www.w3.org/2000/svg" xmlns:xlink="http://www.w3.org/1999/xlink" width="160" height="160"  xml:space="preserve" id="kazWhixxSide01">
    <!-- Generated by PaintCode - http://www.paintcodeapp.com -->
    <g id="kazWhixxSide01-group">
        <circle id="kazWhixxSide01-oval44" stroke="rgb(0, 0, 0)" stroke-width="2" stroke-miterlimit="10" fill="none" cx="125.93" cy="126.81" r="29" />
        <path id="kazWhixxSide01-bezier948" stroke="rgb(0, 0, 0)" stroke-width="2" stroke-miterlimit="10" fill="none" d="M 44.06,153.47 C 41,155.04 34.91,155.81 32.26,155.81 16.25,155.81 3.26,142.82 3.26,126.81 3.26,110.79 16.25,97.81 32.26,97.81 37.41,97.81 42.25,99.15 46.44,101.5" />
        <path id="kazWhixxSide01-bezier949" stroke="rgb(0, 0, 0)" stroke-width="2" stroke-miterlimit="10" fill="none" d="M 61.26,126.99 C 61.2,136.37 56.69,144.69 49.74,149.95" />
        <path id="kazWhixxSide01-bezier950" stroke="rgb(0, 0, 0)" stroke-width="2" stroke-miterlimit="10" fill="none" d="M 57.58,111.81 C 59.12,114.43 60.22,118.46 60.8,121.98" />
        <circle id="kazWhixxSide01-oval45" stroke="rgb(0, 0, 0)" stroke-width="2" stroke-miterlimit="10" fill="none" cx="70.76" cy="133.81" r="8.33" />
        <circle id="kazWhixxSide01-oval46" stroke="rgb(0, 0, 0)" stroke-width="2" stroke-miterlimit="10" fill="none" cx="32.26" cy="126.81" r="2.5" />
        <path id="kazWhixxSide01-bezier951" stroke="rgb(0, 0, 0)" stroke-width="2" stroke-miterlimit="10" fill="none" d="M 51.69,130.34 L 70.76,133.81" />
        <path id="kazWhixxSide01-bezier952" stroke="rgb(0, 0, 0)" stroke-width="2" stroke-miterlimit="10" fill="none" d="M 46.79,96.47 L 32.26,126.81 43.06,128.91" />
        <path id="kazWhixxSide01-bezier953" stroke="rgb(0, 0, 0)" stroke-width="2" stroke-miterlimit="10" fill="none" d="M 110.52,79.64 L 62.43,79.64" />
        <path id="kazWhixxSide01-bezier954" stroke="rgb(0, 0, 0)" stroke-width="2" stroke-miterlimit="10" fill="none" d="M 106.93,68.64 L 125.93,126.81" />
        <path id="kazWhixxSide01-bezier955" stroke="rgb(0, 0, 0)" stroke-width="2" stroke-miterlimit="10" fill="none" d="M 113.59,89.03 L 77.76,124.3" />
        <path id="kazWhixxSide01-bezier956" stroke="rgb(0, 0, 0)" stroke-width="2" stroke-miterlimit="10" fill="none" d="M 67.43,122.81 L 60.03,96.47" />
        <path id="kazWhixxSide01-bezier957" stroke="rgb(0, 0, 0)" stroke-width="2" stroke-miterlimit="10" fill="none" d="M 41.64,69.3 C 41.05,69.15 40.58,68.93 40.27,68.64 37.6,66.13 34.34,64.5 39.25,64.32" />
        <path id="kazWhixxSide01-bezier958" stroke="rgb(0, 0, 0)" stroke-width="1" stroke-miterlimit="10" fill="none" d="M 43.62,125.47 L 36.33,125.47" />
        <path id="kazWhixxSide01-bezier959" stroke="rgb(0, 0, 0)" stroke-width="1" stroke-miterlimit="10" fill="none" d="M 65.7,125.47 L 55.62,125.47" />
        <path id="kazWhixxSide01-bezier960" stroke="rgb(0, 0, 0)" stroke-width="1" stroke-miterlimit="10" fill="none" d="M 50.83,135.92 L 62.43,139.85" />
        <path id="kazWhixxSide01-bezier961" stroke="rgb(0, 0, 0)" stroke-width="1" stroke-miterlimit="10" fill="none" d="M 34.26,130.31 L 43.04,133.28" />
        <path id="kazWhixxSide01-bezier962" stroke="rgb(0, 0, 0)" stroke-width="2" stroke-miterlimit="10" fill="none" d="M 114,69.14 C 110.09,69.14 109.06,69.14 109.06,69.14" />
        <path id="kazWhixxSide01-bezier963" stroke="rgb(0, 0, 0)" stroke-width="2" stroke-miterlimit="10" fill="none" d="M 124.01,84.6 C 124.01,84.6 128.18,83.56 128.18,78.06 128.18,74.77 126.81,72.23 124.26,70.72" />
        <path id="kazWhixxSide01-bezier964" stroke="rgb(0, 0, 0)" stroke-width="2" stroke-miterlimit="10" fill="none" d="M 54.26,123.47 L 63.31,123.47" />
        <path id="kazWhixxSide01-bezier965" stroke="rgb(0, 0, 0)" stroke-width="2" stroke-miterlimit="10" fill="none" d="M 79.85,143.72 L 87.68,143.72" />
        <g id="kazWhixxSide01-group720">
            <g id="kazWhixxSide01-group721">
                <path id="kazWhixxSide01-bezier966" stroke="none" fill="rgb(0, 0, 0)" d="M 121.57,68.46 C 122.2,69.28 122.83,70.08 123.48,70.85 123.81,71.23 124.21,71.55 124.47,71.95 124.76,72.34 124.95,72.76 125.32,73.12 L 125.31,73.22 C 125,73.32 124.67,73.22 124.42,73.09 124.15,72.97 123.93,72.8 123.72,72.62 123.3,72.26 123.09,71.76 122.83,71.31 122.3,70.41 121.86,69.48 121.48,68.51 L 121.57,68.46 Z M 121.57,68.46" />
            </g>
            <g id="kazWhixxSide01-group722">
                <path id="kazWhixxSide01-bezier967" stroke="none" fill="rgb(0, 0, 0)" d="M 126.33,73.35 C 125.02,74.35 123.63,75.28 122.07,75.91 121.3,76.2 120.45,76.48 119.54,76.22 118.68,75.96 118.03,75.28 117.56,74.59 116.62,73.15 116.14,71.53 115.61,69.97 L 115.57,69.85 C 115.55,69.81 115.53,69.74 115.51,69.72 115.48,69.67 115.43,69.58 115.38,69.51 115.27,69.36 115.14,69.21 115.01,69.06 114.74,68.76 114.46,68.47 114.16,68.19 113.58,67.63 112.97,67.08 112.35,66.54 109.85,64.41 107.21,62.44 104.64,60.38 103.36,59.34 102.06,58.34 100.76,57.32 100.12,56.81 99.47,56.31 98.81,55.82 98.15,55.32 97.49,54.82 96.78,54.42 L 96.82,54.32 C 98.39,54.93 99.77,55.87 101.17,56.75 102.56,57.65 103.9,58.62 105.25,59.59 107.91,61.55 110.43,63.71 112.88,65.95 113.49,66.51 114.09,67.08 114.68,67.68 114.97,67.98 115.26,68.28 115.53,68.61 115.67,68.78 115.8,68.94 115.93,69.13 115.99,69.23 116.05,69.32 116.11,69.45 116.15,69.52 116.16,69.56 116.18,69.61 L 116.23,69.77 C 116.71,71.35 117.14,72.95 117.98,74.31 118.4,74.98 118.95,75.59 119.68,75.85 120.38,76.09 121.22,75.89 121.97,75.63 123.5,75.07 124.93,74.21 126.27,73.27 L 126.33,73.35 Z M 126.33,73.35" />
            </g>
            <g id="kazWhixxSide01-group723">
                <path id="kazWhixxSide01-bezier968" stroke="none" fill="rgb(0, 0, 0)" d="M 97.11,53.42 C 96.43,53.43 95.7,53.24 95.19,52.71 94.92,52.45 94.79,52.08 94.63,51.83 L 94.09,50.98 C 93.36,49.85 92.61,48.74 91.85,47.63 91.08,46.52 90.26,45.45 89.59,44.28 88.91,43.12 88.26,41.94 87.74,40.67 L 87.82,40.61 C 88.8,41.58 89.63,42.65 90.43,43.74 91.21,44.83 91.85,46.03 92.53,47.2 93.2,48.37 93.88,49.54 94.52,50.73 94.68,51.03 94.84,51.33 94.98,51.64 95.15,51.97 95.21,52.27 95.42,52.51 95.8,53 96.46,53.27 97.11,53.32 L 97.11,53.42 Z M 97.11,53.42" />
            </g>
            <g id="kazWhixxSide01-group724">
                <path id="kazWhixxSide01-bezier969" stroke="none" fill="rgb(0, 0, 0)" d="M 86.41,40.27 C 87.65,39.04 89.03,37.95 90.55,37.05 91.31,36.6 92.09,36.19 92.91,35.84 93.72,35.48 94.56,35.15 95.45,34.99 L 95.1,35.72 C 94.56,34.51 94.07,33.31 93.67,32.02 L 93.75,31.97 C 94.68,32.96 95.39,34.11 96.02,35.27 L 96.32,35.83 95.66,36 C 94.85,36.21 94.02,36.37 93.22,36.64 92.41,36.9 91.62,37.24 90.86,37.61 89.33,38.37 87.83,39.26 86.48,40.34 L 86.41,40.27 Z M 86.41,40.27" />
            </g>
            <g id="kazWhixxSide01-group725">
                <path id="kazWhixxSide01-bezier970" stroke="none" fill="rgb(0, 0, 0)" d="M 95.21,36.27 C 96.34,37.77 97.38,39.34 98.31,40.99 98.77,41.81 99.29,42.61 99.59,43.52 99.9,44.41 100.14,45.34 100.18,46.32 L 100.08,46.35 C 99.52,45.55 99.09,44.73 98.67,43.91 98.24,43.09 97.97,42.19 97.6,41.34 96.84,39.65 96.01,37.97 95.13,36.32 L 95.21,36.27 Z M 95.21,36.27" />
            </g>
            <g id="kazWhixxSide01-group726">
                <path id="kazWhixxSide01-bezier971" stroke="none" fill="rgb(0, 0, 0)" d="M 101.54,48.53 C 104.03,49.49 106.21,51.32 107.7,53.55 109.3,55.65 111.1,57.62 112.91,59.56 114.74,61.48 116.65,63.34 118.54,65.16 119.01,65.61 119.5,66.08 119.99,66.42 120.43,66.71 121.07,66.8 121.72,66.9 122.37,66.99 123.1,67.09 123.73,67.45 124.35,67.83 124.8,68.38 125.12,68.98 L 125.04,69.03 C 124.6,68.53 124.11,68.08 123.53,67.86 122.96,67.62 122.33,67.6 121.66,67.59 120.99,67.58 120.26,67.54 119.54,67.15 118.91,66.77 118.4,66.34 117.87,65.91 115.83,64.13 114.08,62.11 112.32,60.1 110.57,58.07 108.84,56.04 107.3,53.84 105.94,51.58 103.93,49.71 101.5,48.62 L 101.54,48.53 Z M 101.54,48.53" />
            </g>
            <g id="kazWhixxSide01-group727">
                <path id="kazWhixxSide01-bezier972" stroke="none" fill="rgb(0, 0, 0)" d="M 94.49,20.11 C 94.73,21.37 95.26,22.57 95.97,23.6 96.68,24.65 97.6,25.46 98.7,26.12 99.78,26.8 100.91,27.37 102.02,27.85 102.57,28.09 103.14,28.26 103.69,28.26 104.24,28.27 104.76,27.98 105.16,27.45 L 105.25,27.49 C 105.18,27.82 105.01,28.14 104.76,28.41 104.51,28.68 104.16,28.86 103.79,28.95 103.06,29.14 102.33,28.99 101.68,28.79 100.36,28.37 99.28,27.56 98.24,26.78 97.18,26.02 96.19,25.01 95.55,23.86 94.91,22.7 94.5,21.42 94.39,20.12 L 94.49,20.11 Z M 94.49,20.11" />
            </g>
            <g id="kazWhixxSide01-group728">
                <path id="kazWhixxSide01-bezier973" stroke="none" fill="rgb(0, 0, 0)" d="M 106.44,24.46 C 107.1,24.59 107.83,24.64 108.44,24.41 108.73,24.28 108.95,24.07 109.02,23.78 109.1,23.51 109.05,23.17 109.04,22.81 109.01,21.41 109.01,20 109.18,18.58 109.27,17.86 109.36,17.15 109.7,16.4 109.82,16.2 109.87,16.1 109.93,15.96 110,15.82 110.05,15.67 110.1,15.52 110.22,15.22 110.31,14.91 110.38,14.59 110.65,13.34 110.83,11.94 110.02,10.81 L 110.08,10.73 C 110.74,11.09 111.12,11.84 111.29,12.56 111.47,13.29 111.46,14.05 111.36,14.78 111.29,15.15 111.2,15.51 111.08,15.87 111.02,16.05 110.94,16.23 110.85,16.4 110.77,16.57 110.64,16.77 110.58,16.87 110.28,17.37 110.1,18.05 109.97,18.7 109.71,20.04 109.61,21.43 109.54,22.81 109.51,23.15 109.55,23.52 109.4,23.91 109.26,24.3 108.9,24.59 108.54,24.69 107.8,24.89 107.08,24.75 106.41,24.56 L 106.44,24.46 Z M 106.44,24.46" />
            </g>
            <g id="kazWhixxSide01-group729">
                <path id="kazWhixxSide01-bezier974" stroke="none" fill="rgb(0, 0, 0)" d="M 98.69,21.09 C 98.35,20.47 98.09,19.81 97.93,19.1 97.85,18.74 97.71,18.36 97.84,17.96 97.95,17.59 98.23,17.13 98.71,17.08 L 98.78,17.15 C 98.74,17.57 98.82,17.8 98.83,18.11 98.86,18.39 98.74,18.7 98.73,19.03 98.7,19.68 98.73,20.37 98.79,21.06 L 98.69,21.09 Z M 98.69,21.09" />
            </g>
            <g id="kazWhixxSide01-group730">
                <path id="kazWhixxSide01-bezier975" stroke="none" fill="rgb(0, 0, 0)" d="M 94.45,26.24 C 94.65,25.96 94.9,25.69 95.18,25.47 95.33,25.36 95.45,25.17 95.67,25.19 95.86,25.2 96.12,25.28 96.28,25.56 L 96.28,25.66 C 96.11,25.94 96.05,26.05 95.93,26.16 95.83,26.26 95.65,26.19 95.5,26.21 95.18,26.24 94.85,26.29 94.49,26.33 L 94.45,26.24 Z M 94.45,26.24" />
            </g>
            <g id="kazWhixxSide01-group731">
                <path id="kazWhixxSide01-bezier976" stroke="none" fill="rgb(0, 0, 0)" d="M 86.41,21.08 C 83.4,21.17 80.47,22.01 77.63,22.97 74.79,23.95 72.03,25.14 69.47,26.69 66.9,28.23 64.49,30.02 62.01,31.73 60.76,32.57 59.53,33.44 58.25,34.26 56.97,35.05 55.68,35.91 54.19,36.35 L 54.16,36.25 C 54.83,35.91 55.45,35.5 56.05,35.05 56.66,34.61 57.26,34.15 57.85,33.69 L 61.43,30.92 C 63.84,29.1 66.41,27.46 69.08,25.99 71.73,24.5 74.59,23.38 77.48,22.49 80.38,21.65 83.37,20.94 86.42,20.98 L 86.41,21.08 Z M 86.41,21.08" />
            </g>
            <g id="kazWhixxSide01-group732">
                <path id="kazWhixxSide01-bezier977" stroke="none" fill="rgb(0, 0, 0)" d="M 53.72,37.27 C 55.71,39.13 57.63,41.06 59.48,43.07 60.39,44.08 61.28,45.12 62.12,46.21 62.95,47.3 63.76,48.42 64.34,49.74 L 63.69,49.6 C 64.65,48.63 65.63,47.69 66.62,46.77 67.62,45.84 68.67,44.97 69.75,44.14 70.85,43.34 71.96,42.54 73.16,41.86 74.35,41.21 75.61,40.54 77.01,40.45 L 77.02,40.55 C 76.38,40.72 75.78,41.01 75.21,41.36 74.63,41.69 74.07,42.06 73.53,42.45 72.45,43.23 71.39,44.05 70.37,44.92 69.33,45.77 68.31,46.64 67.28,47.51 66.25,48.38 65.24,49.26 64.25,50.17 L 63.81,50.58 63.6,50.03 C 63.13,48.83 62.37,47.69 61.6,46.6 60.82,45.5 59.97,44.44 59.1,43.4 57.37,41.31 55.54,39.29 53.65,37.34 L 53.72,37.27 Z M 53.72,37.27" />
            </g>
            <g id="kazWhixxSide01-group733">
                <path id="kazWhixxSide01-bezier978" stroke="none" fill="rgb(0, 0, 0)" d="M 78.97,40.58 C 79.53,40.72 80.11,40.76 80.67,40.74 81.23,40.74 81.79,40.66 82.32,40.52 82.86,40.39 83.33,40.1 83.85,39.95 84.37,39.79 84.89,39.6 85.52,39.47 L 85.58,39.55 C 85.28,40.13 84.8,40.55 84.26,40.87 83.72,41.19 83.07,41.25 82.46,41.31 81.23,41.42 79.99,41.21 78.93,40.67 L 78.97,40.58 Z M 78.97,40.58" />
            </g>
            <g id="kazWhixxSide01-group734">
                <path id="kazWhixxSide01-bezier979" stroke="none" fill="rgb(0, 0, 0)" d="M 52.73,39.21 C 52.18,40.28 51.53,41.3 50.75,42.23 50.35,42.7 49.98,43.22 49.43,43.54 48.9,43.86 48.26,44.11 47.6,44.04 L 47.57,43.94 48.83,42.74 C 49.23,42.35 49.73,42.06 50.17,41.67 51.04,40.91 51.86,40.05 52.64,39.16 L 52.73,39.21 Z M 52.73,39.21" />
            </g>
            <g id="kazWhixxSide01-group735">
                <path id="kazWhixxSide01-bezier980" stroke="none" fill="rgb(0, 0, 0)" d="M 61.22,55.25 C 60.19,54.09 59.06,53 57.87,51.99 56.67,50.99 55.4,50.07 54.02,49.39 53.33,49.03 52.61,48.82 51.86,48.53 51.12,48.23 50.4,47.88 49.71,47.48 48.33,46.66 47.07,45.69 45.98,44.45 L 46.47,44.53 C 44.84,45.77 43.34,47.25 42.07,48.87 40.8,50.48 39.76,52.28 39.2,54.21 38.93,55.17 38.78,56.17 38.81,57.16 38.85,58.16 39.05,59.17 39.33,60.16 39.59,61.15 39.94,62.13 40.38,63.07 40.81,64.01 41.3,64.94 42.03,65.68 L 41.97,65.76 C 41.1,65.12 40.48,64.21 39.94,63.3 39.41,62.37 38.96,61.4 38.6,60.39 38.26,59.37 37.99,58.32 37.89,57.22 37.78,56.11 37.92,54.99 38.21,53.93 38.79,51.8 40,49.93 41.36,48.29 42.76,46.66 44.31,45.21 46.06,43.94 L 46.33,43.75 46.54,44.01 C 47.49,45.16 48.72,46.16 50.01,46.97 50.66,47.38 51.35,47.74 52.06,48.04 52.75,48.34 53.53,48.6 54.22,49 55.62,49.76 56.87,50.74 58.05,51.79 59.21,52.84 60.3,53.98 61.3,55.19 L 61.22,55.25 Z M 61.22,55.25" />
            </g>
            <g id="kazWhixxSide01-group736">
                <path id="kazWhixxSide01-bezier981" stroke="none" fill="rgb(0, 0, 0)" d="M 42.51,67.37 C 42.86,70.38 43.25,73.38 43.68,76.37 44.09,79.37 44.55,82.36 45.1,85.32 45.38,86.8 45.69,88.28 46.06,89.73 46.24,90.46 46.45,91.17 46.67,91.87 46.88,92.59 47.19,93.17 47.52,93.93 48.65,96.88 48.69,100.13 47.81,103.05 L 47.72,103.03 C 48.02,100.04 47.8,96.97 46.6,94.32 46.32,93.7 45.91,92.93 45.69,92.19 45.45,91.45 45.27,90.7 45.1,89.96 44.78,88.46 44.54,86.96 44.31,85.46 43.4,79.46 42.84,73.42 42.41,67.38 L 42.51,67.37 Z M 42.51,67.37" />
            </g>
            <g id="kazWhixxSide01-group737">
                <path id="kazWhixxSide01-bezier982" stroke="none" fill="rgb(0, 0, 0)" d="M 47.21,102.66 C 46.59,103.86 46.02,105.08 45.53,106.34 45.05,107.58 44.6,108.88 44.54,110.18 44.53,112.85 44.72,115.56 44.82,118.26 44.93,120.96 45.08,123.68 44.95,126.39 44.86,127.75 44.78,129.11 44.57,130.46 44.35,131.8 44.13,133.19 43.42,134.4 L 43.33,134.35 C 43.56,133.72 43.67,133.06 43.73,132.39 43.81,131.73 43.85,131.06 43.88,130.39 43.93,129.05 43.96,127.71 43.95,126.37 L 44.01,118.28 C 44.02,115.57 43.92,112.88 44.04,110.15 44.17,108.74 44.71,107.46 45.25,106.22 45.8,104.98 46.43,103.78 47.12,102.61 L 47.21,102.66 Z M 47.21,102.66" />
            </g>
            <g id="kazWhixxSide01-group738">
                <path id="kazWhixxSide01-bezier983" stroke="none" fill="rgb(0, 0, 0)" d="M 59.08,64.4 C 59.84,67.17 60.37,70 60.78,72.84 61.16,75.69 61.39,78.56 61.43,81.44 61.47,84.32 61.38,87.23 60.85,90.08 60.3,92.92 59.5,95.73 58.17,98.3 L 58.08,98.26 C 58.87,95.5 59.5,92.73 59.86,89.92 60.25,87.12 60.56,84.29 60.63,81.44 60.69,78.6 60.56,75.74 60.28,72.9 60.01,70.06 59.61,67.22 58.98,64.43 L 59.08,64.4 Z M 59.08,64.4" />
            </g>
            <g id="kazWhixxSide01-group739">
                <path id="kazWhixxSide01-bezier984" stroke="none" fill="rgb(0, 0, 0)" d="M 58.56,98.91 C 59.02,99.44 59.16,100.11 59.34,100.75 59.48,101.39 59.57,102.11 59.44,102.81 59.31,103.49 59.19,104.15 58.86,104.74 58.54,105.32 58.17,105.87 57.63,106.33 L 57.54,106.28 C 57.59,105.58 57.76,104.96 57.94,104.35 58.12,103.74 58.47,103.2 58.66,102.62 58.86,102.05 58.88,101.45 58.85,100.81 58.81,100.2 58.79,99.51 58.48,98.98 L 58.56,98.91 Z M 58.56,98.91" />
            </g>
            <g id="kazWhixxSide01-group740">
                <path id="kazWhixxSide01-bezier985" stroke="none" fill="rgb(0, 0, 0)" d="M 57.63,107.24 C 56.92,109.7 56.22,112.17 55.61,114.66 55.09,117.14 54.38,119.66 53.71,122.12 53.04,124.59 52.38,127.07 51.74,129.55 51.12,132.03 50.33,134.51 49.78,136.93 L 49.67,137.4 49.25,137.27 C 48.24,136.96 47.22,136.63 46.19,136.37 45.67,136.24 45.15,136.12 44.63,136.02 44.12,135.94 43.57,135.84 43.09,135.99 L 43.04,135.91 C 43.55,135.62 44.13,135.67 44.67,135.67 45.22,135.69 45.76,135.75 46.29,135.83 47.37,135.99 48.43,136.19 49.49,136.47 L 48.96,136.82 C 49.36,134.2 50.06,131.76 50.79,129.29 L 53.04,121.92 54.17,118.25 C 54.35,117.63 54.54,117.02 54.69,116.41 54.84,115.78 55.01,115.16 55.19,114.54 55.92,112.08 56.72,109.64 57.54,107.21 L 57.63,107.24 Z M 57.63,107.24" />
            </g>
            <g id="kazWhixxSide01-group741">
                <path id="kazWhixxSide01-bezier986" stroke="none" fill="rgb(0, 0, 0)" d="M 42.46,141.35 C 42.55,140.57 42.66,139.8 42.78,139.03 42.84,138.65 42.8,138.25 42.96,137.91 43.1,137.55 43.29,137.23 43.57,136.87 L 43.67,136.87 C 43.94,137.29 43.95,137.73 43.94,138.13 43.92,138.53 43.69,138.88 43.55,139.24 43.26,139.97 42.92,140.68 42.55,141.38 L 42.46,141.35 Z M 42.46,141.35" />
            </g>
            <g id="kazWhixxSide01-group742">
                <path id="kazWhixxSide01-bezier987" stroke="none" fill="rgb(0, 0, 0)" d="M 46.75,155.5 C 45.76,154.24 44.71,153.02 43.53,151.96 42.95,151.43 42.32,150.92 41.65,150.65 40.9,150.4 40.1,150.06 39.4,149.58 38.72,149.1 37.97,148.48 37.75,147.44 37.66,146.93 37.78,146.38 38.02,145.95 38.26,145.53 38.58,145.2 38.92,144.91 L 39.15,144.73 C 39.22,144.67 39.32,144.6 39.36,144.55 39.47,144.44 39.59,144.31 39.71,144.17 39.94,143.88 40.13,143.55 40.34,143.22 40.76,142.57 41.11,141.71 41.91,141.32 L 41.96,141.41 C 41.68,141.68 41.52,142.02 41.38,142.39 41.24,142.75 41.11,143.13 40.97,143.52 40.84,143.91 40.66,144.29 40.43,144.67 40.32,144.86 40.19,145.04 40.02,145.23 39.94,145.33 39.87,145.38 39.8,145.45 L 39.58,145.67 C 39.04,146.16 38.66,146.73 38.73,147.29 38.78,147.87 39.29,148.47 39.87,148.93 40.48,149.4 41.14,149.74 41.9,150.05 42.7,150.44 43.3,151.02 43.88,151.6 45,152.79 45.95,154.09 46.83,155.44 L 46.75,155.5 Z M 46.75,155.5" />
            </g>
            <g id="kazWhixxSide01-group743">
                <path id="kazWhixxSide01-bezier988" stroke="none" fill="rgb(0, 0, 0)" d="M 43.08,142.78 C 43.54,143.19 44.05,143.52 44.56,143.77 44.82,143.9 45.12,143.91 45.33,144.08 45.56,144.25 45.78,144.42 46.02,144.76 L 46.01,144.86 C 45.65,145.06 45.28,145.08 44.94,145 44.59,144.94 44.35,144.65 44.11,144.43 43.61,143.98 43.23,143.43 43,142.83 L 43.08,142.78 Z M 43.08,142.78" />
            </g>
            <g id="kazWhixxSide01-group744">
                <path id="kazWhixxSide01-bezier989" stroke="none" fill="rgb(0, 0, 0)" d="M 46.77,145.26 C 47.18,145.11 47.63,144.98 48.09,145.13 48.32,145.2 48.52,145.4 48.6,145.64 48.68,145.87 48.71,146.06 48.78,146.27 49.01,147.1 49.26,147.92 49.55,148.73 49.83,149.54 50.13,150.35 50.53,151.07 50.71,151.41 51.01,151.81 51.18,151.86 L 51.45,151.9 51.79,151.97 C 52.01,152.02 52.23,152.08 52.44,152.15 53.3,152.43 54.13,152.76 54.92,153.32 55.11,153.46 55.3,153.63 55.48,153.84 55.64,154.07 55.82,154.31 55.84,154.75 L 55.84,154.83 C 55.83,154.89 55.82,154.96 55.8,155.02 55.77,155.14 55.73,155.23 55.68,155.32 55.57,155.5 55.43,155.61 55.3,155.7 55.03,155.87 54.79,155.95 54.55,156.01 53.6,156.21 52.73,156.19 51.85,156.14 50.98,156.09 50.12,156 49.25,155.86 L 49.25,155.76 C 50.96,155.46 52.77,155.46 54.28,155.05 54.46,155 54.63,154.93 54.72,154.86 54.77,154.82 54.8,154.79 54.8,154.78 54.8,154.78 54.8,154.77 54.8,154.78 54.79,154.79 54.79,154.81 54.8,154.82 L 54.8,154.73 C 54.82,154.67 54.6,154.31 54.3,154.09 53.71,153.6 52.95,153.21 52.18,152.91 51.99,152.83 51.79,152.76 51.59,152.7 L 51.3,152.62 C 51.2,152.59 51.16,152.6 50.94,152.54 50.6,152.39 50.45,152.17 50.3,151.98 50.16,151.78 50.06,151.58 49.95,151.37 49.56,150.56 49.31,149.72 49.07,148.88 48.84,148.04 48.65,147.19 48.48,146.34 48.39,145.91 48.4,145.45 48.02,145.31 47.66,145.16 47.2,145.23 46.8,145.35 L 46.77,145.26 Z M 46.77,145.26" />
            </g>
            <g id="kazWhixxSide01-group745">
                <path id="kazWhixxSide01-bezier990" stroke="none" fill="rgb(0, 0, 0)" d="M 46.74,143.79 C 46.91,142.71 47.11,141.64 47.37,140.58 47.49,140.05 47.55,139.49 47.8,138.99 48.06,138.51 48.34,137.99 48.9,137.65 L 48.97,137.72 C 48.93,138.28 48.87,138.82 48.74,139.34 48.63,139.86 48.34,140.33 48.13,140.83 47.71,141.82 47.28,142.82 46.83,143.82 L 46.74,143.79 Z M 46.74,143.79" />
            </g>
            <g id="kazWhixxSide01-group746">
                <path id="kazWhixxSide01-bezier991" stroke="none" fill="rgb(0, 0, 0)" d="M 76.04,99.49 L 76.13,112.53 76.24,115.78 76.31,117.39 C 76.32,117.64 76.34,117.93 76.37,118.12 76.38,118.18 76.44,118.37 76.46,118.52 L 76.53,118.95 C 76.64,120.07 76.67,121.15 76.69,122.24 L 76.72,123.87 C 76.74,124.4 76.71,124.98 76.88,125.44 L 76.81,125.51 C 76.6,125.27 76.54,124.99 76.46,124.73 76.39,124.46 76.32,124.19 76.27,123.92 76.16,123.38 76.08,122.84 76,122.3 75.83,121.22 75.74,120.13 75.54,119.1 L 75.47,118.72 C 75.45,118.61 75.42,118.53 75.37,118.33 75.3,117.99 75.29,117.73 75.27,117.44 75.24,116.89 75.25,116.34 75.24,115.79 L 75.33,112.52 C 75.46,108.17 75.68,103.82 75.94,99.48 L 76.04,99.49 Z M 76.04,99.49" />
            </g>
            <g id="kazWhixxSide01-group747">
                <path id="kazWhixxSide01-bezier992" stroke="none" fill="rgb(0, 0, 0)" d="M 69.97,122.82 C 69.48,120.75 68.98,118.68 68.46,116.63 67.95,114.57 67.44,112.51 66.84,110.48 66.69,109.98 66.53,109.48 66.35,108.99 66.16,108.53 65.97,107.94 65.88,107.4 65.68,106.3 65.67,105.21 65.72,104.13 65.87,101.97 66.24,99.86 66.78,97.8 L 66.88,97.81 C 66.9,99.96 66.68,102.06 66.72,104.16 66.71,105.2 66.73,106.24 66.86,107.24 66.92,107.75 67.03,108.18 67.2,108.71 67.36,109.23 67.49,109.75 67.62,110.28 68.61,114.43 69.35,118.61 70.06,122.8 L 69.97,122.82 Z M 69.97,122.82" />
            </g>
            <g id="kazWhixxSide01-group748">
                <path id="kazWhixxSide01-bezier993" stroke="none" fill="rgb(0, 0, 0)" d="M 81.47,135.04 C 82.57,136.13 83.82,137.11 85.22,137.69 85.9,137.98 86.68,138.1 87.43,138.31 88.19,138.51 88.95,138.71 89.71,138.96 90.47,139.2 91.22,139.46 91.96,139.86 92.32,140.08 92.7,140.31 93.02,140.75 93.17,140.98 93.29,141.26 93.27,141.63 93.27,141.68 93.23,141.94 93.16,142.07 93.1,142.22 93,142.35 92.9,142.46 92.48,142.85 92.03,142.96 91.62,143.06 91.2,143.14 90.79,143.18 90.39,143.18 89.58,143.18 88.79,143.09 88.02,142.94 L 88.02,142.84 C 88.8,142.71 89.57,142.63 90.32,142.48 90.69,142.4 91.06,142.33 91.39,142.21 91.72,142.1 92.05,141.94 92.17,141.77 92.2,141.74 92.23,141.7 92.24,141.67 92.25,141.63 92.24,141.69 92.26,141.55 92.25,141.53 92.23,141.42 92.16,141.33 92.02,141.13 91.75,140.9 91.45,140.71 90.85,140.32 90.15,140 89.44,139.71 88.73,139.43 87.99,139.18 87.25,138.94 86.52,138.68 85.75,138.51 85.01,138.15 83.58,137.39 82.41,136.3 81.4,135.11 L 81.47,135.04 Z M 81.47,135.04" />
            </g>
            <g id="kazWhixxSide01-group749">
                <path id="kazWhixxSide01-bezier994" stroke="none" fill="rgb(0, 0, 0)" d="M 79.4,142.93 C 78.88,142.63 78.33,142.46 77.78,142.3 77.51,142.23 77.21,142.25 76.97,142.1 76.72,141.95 76.48,141.77 76.25,141.44 L 76.28,141.34 C 76.63,141.14 76.96,141.11 77.27,141.15 77.6,141.17 77.85,141.41 78.11,141.57 78.64,141.91 79.13,142.33 79.47,142.86 L 79.4,142.93 Z M 79.4,142.93" />
            </g>
            <g id="kazWhixxSide01-group750">
                <path id="kazWhixxSide01-bezier995" stroke="none" fill="rgb(0, 0, 0)" d="M 61.09,55.73 C 60.9,56.96 60.7,58.17 60.48,59.38 60.37,59.99 60.35,60.61 60.14,61.19 59.95,61.77 59.68,62.33 59.39,62.88 L 59.29,62.9 C 59.03,62.22 59.11,61.58 59.17,60.96 59.23,60.34 59.51,59.77 59.7,59.19 60.1,58.01 60.52,56.86 60.99,55.71 L 61.09,55.73 Z M 61.09,55.73" />
            </g>
            <g id="kazWhixxSide01-group751">
                <path id="kazWhixxSide01-bezier996" stroke="none" fill="rgb(0, 0, 0)" d="M 61.07,65.69 C 62.83,67.4 64.41,69.28 65.9,71.23 67.38,73.19 68.74,75.23 70,77.35 71.25,79.46 72.45,81.63 73.34,83.92 74.22,86.23 74.97,88.58 75.36,91.01 L 75.27,91.04 C 74.33,88.77 73.45,86.51 72.42,84.31 71.42,82.11 70.45,79.88 69.3,77.74 68.15,75.6 66.88,73.52 65.5,71.52 64.12,69.51 62.65,67.56 61,65.76 L 61.07,65.69 Z M 61.07,65.69" />
            </g>
            <g id="kazWhixxSide01-group752">
                <path id="kazWhixxSide01-bezier997" stroke="none" fill="rgb(0, 0, 0)" d="M 75.61,91.88 C 76.01,92.89 76.33,93.94 76.53,95.03 76.63,95.57 76.8,96.12 76.71,96.69 76.64,97.25 76.47,97.84 76.04,98.29 L 75.95,98.26 C 75.83,97.68 75.77,97.19 75.71,96.67 75.65,96.16 75.75,95.64 75.74,95.11 75.72,94.05 75.63,92.98 75.51,91.9 L 75.61,91.88 Z M 75.61,91.88" />
            </g>
            <g id="kazWhixxSide01-group753">
                <path id="kazWhixxSide01-bezier998" stroke="none" fill="rgb(0, 0, 0)" d="M 66.14,96.49 C 65.56,95.41 64.89,94.37 64.12,93.46 63.74,93 63.26,92.65 62.89,92.24 62.5,91.83 62.11,91.47 61.58,91.08 L 61.59,90.98 C 62.27,90.83 62.99,91.1 63.53,91.48 64.1,91.86 64.43,92.45 64.77,92.99 65.44,94.08 65.92,95.25 66.24,96.45 L 66.14,96.49 Z M 66.14,96.49" />
            </g>
            <g id="kazWhixxSide01-group754">
                <path id="kazWhixxSide01-bezier999" stroke="none" fill="rgb(0, 0, 0)" d="M 109.54,9.5 C 108.15,7.92 106.22,6.86 104.23,6.24 102.22,5.63 100.08,5.45 98.01,5.67 96.98,5.78 95.96,6.04 95.05,6.49 94.13,6.94 93.34,7.61 92.74,8.43 91.54,10.08 91.1,12.18 90.97,14.24 90.89,15.28 90.95,16.33 90.91,17.42 90.88,18.49 90.79,19.57 90.66,20.63 90.39,22.77 89.92,24.88 89.22,26.92 88.48,28.95 87.58,30.94 86.26,32.68 85.6,33.54 84.83,34.34 83.94,34.97 83.04,35.58 82,36.02 80.92,36.11 L 80.91,36.01 C 83,35.55 84.56,33.98 85.69,32.27 86.83,30.54 87.65,28.6 88.27,26.61 88.91,24.62 89.36,22.57 89.68,20.5 89.84,19.46 89.95,18.42 90.02,17.38 90.09,16.35 90.06,15.27 90.17,14.18 90.36,12.05 90.86,9.82 92.22,8.04 92.9,7.16 93.8,6.44 94.8,5.97 95.8,5.51 96.88,5.26 97.96,5.17 100.12,5.01 102.28,5.27 104.32,5.96 106.34,6.65 108.25,7.79 109.62,9.44 L 109.54,9.5 Z M 109.54,9.5" />
            </g>
            <g id="kazWhixxSide01-group755">
                <path id="kazWhixxSide01-bezier1000" stroke="none" fill="rgb(0, 0, 0)" d="M 108.5,11.66 C 107.85,12.98 107.06,14.27 105.86,15.24 105.55,15.47 105.21,15.68 104.82,15.81 104.46,15.95 103.96,15.97 103.63,15.95 102.91,15.93 102.19,15.95 101.48,16.03 100.08,16.2 98.68,16.63 97.78,17.49 97.33,17.91 97.05,18.5 96.91,19.16 96.78,19.83 96.8,20.55 96.85,21.29 L 96.76,21.32 C 96.42,20.64 96.22,19.9 96.21,19.1 96.2,18.3 96.49,17.44 97.05,16.8 97.62,16.17 98.38,15.78 99.13,15.56 99.9,15.35 100.66,15.26 101.42,15.23 102.17,15.2 102.92,15.23 103.67,15.3 104.37,15.42 104.97,15.23 105.57,14.83 106.74,14.06 107.66,12.85 108.41,11.62 L 108.5,11.66 Z M 108.5,11.66" />
            </g>
            <g id="kazWhixxSide01-group756">
                <path id="kazWhixxSide01-bezier1001" stroke="none" fill="rgb(0, 0, 0)" d="M 93.88,23.89 C 94.06,25.95 94.06,28.04 93.79,30.12 93.65,31.15 93.53,32.22 93.08,33.21 92.64,34.18 92,35.16 91.03,35.68 L 90.97,35.6 C 91.51,34.71 91.85,33.8 92.15,32.86 92.42,31.91 92.78,30.97 93,29.98 93.23,28.99 93.39,27.98 93.51,26.96 93.64,25.95 93.74,24.92 93.78,23.89 L 93.88,23.89 Z M 93.88,23.89" />
            </g>
            <g id="kazWhixxSide01-group757">
                <path id="kazWhixxSide01-bezier1002" stroke="none" fill="rgb(0, 0, 0)" d="M 63.04,50.25 L 62.33,51.93 C 62.21,52.2 62.18,52.52 62,52.73 61.82,52.96 61.62,53.13 61.33,53.38 L 61.23,53.37 C 60.97,53.01 61.02,52.61 61.1,52.3 61.17,51.97 61.45,51.76 61.64,51.52 62.04,51.03 62.48,50.59 62.96,50.19 L 63.04,50.25 Z M 63.04,50.25" />
            </g>
            <g id="kazWhixxSide01-group758">
                <path id="kazWhixxSide01-bezier1003" stroke="none" fill="rgb(0, 0, 0)" d="M 89.3,15.81 C 89,18.15 88.48,20.47 87.62,22.71 87.19,23.82 86.74,24.97 85.93,25.91 85.15,26.84 84.02,27.69 82.76,27.71 L 82.74,27.62 C 83.79,27.06 84.5,26.22 85.13,25.31 85.75,24.38 86.39,23.43 86.89,22.39 87.39,21.35 87.82,20.27 88.19,19.16 88.58,18.06 88.93,16.94 89.2,15.8 L 89.3,15.81 Z M 89.3,15.81" />
            </g>
        </g>
        <path id="kazWhixxSide01-bezier1062" stroke="rgb(0, 0, 0)" stroke-width="2" stroke-miterlimit="10" fill="none" d="M 58.79,123.47 L 70.76,133.81" />
    </g>
</svg>
