<?xml version="1.0" encoding="UTF-8"?>
<!DOCTYPE svg PUBLIC "-//W3C//DTD SVG 1.1//EN" "http://www.w3.org/Graphics/SVG/1.1/DTD/svg11.dtd">
<svg version="1.1" xmlns="http://www.w3.org/2000/svg" xmlns:xlink="http://www.w3.org/1999/xlink" x="0" y="0" width="46.719" height="20.125" viewBox="0, 0, 46.719, 20.125">
  <g id="Layer_1">
    <g>
      <path d="M33.1,5.167 C30.062,5.167 27.6,7.629 27.6,10.667 C27.6,13.705 30.063,16.167 33.1,16.167 C36.138,16.167 38.6,13.705 38.6,10.667 C38.6,7.629 36.138,5.167 33.1,5.167 z" fill="#FFFFFF"/>
      <path d="M33.1,5.167 C30.062,5.167 27.6,7.629 27.6,10.667 C27.6,13.705 30.063,16.167 33.1,16.167 C36.138,16.167 38.6,13.705 38.6,10.667 C38.6,7.629 36.138,5.167 33.1,5.167 z" fill-opacity="0" stroke="#476E84" stroke-width="1" stroke-miterlimit="10"/>
    </g>
    <g>
      <path d="M42.6,13.167 C40.943,13.167 39.6,14.51 39.6,16.167 C39.6,17.824 40.943,19.167 42.6,19.167 C44.257,19.167 45.6,17.824 45.6,16.167 C45.6,14.51 44.257,13.167 42.6,13.167 z" fill="#FFFFFF"/>
      <path d="M42.6,13.167 C40.943,13.167 39.6,14.51 39.6,16.167 C39.6,17.824 40.943,19.167 42.6,19.167 C44.257,19.167 45.6,17.824 45.6,16.167 C45.6,14.51 44.257,13.167 42.6,13.167 z" fill-opacity="0" stroke="#476E84" stroke-width="1" stroke-miterlimit="10"/>
    </g>
    <g>
      <path d="M30.028,0.106 C30.028,0.106 26.818,9.167 14.943,9.167 C3.068,9.167 1.12,-0 1.12,-0" fill="#FFFFFF"/>
      <path d="M30.028,0.106 C30.028,0.106 26.818,9.167 14.943,9.167 C3.068,9.167 1.12,-0 1.12,-0" fill-opacity="0" stroke="#476E84" stroke-width="1" stroke-linecap="square"/>
    </g>
  </g>
</svg>
