<?xml version="1.0" encoding="iso-8859-1"?>
<!-- Generator: Adobe Illustrator 17.0.0, SVG Export Plug-In . SVG Version: 6.00 Build 0)  -->
<!DOCTYPE svg PUBLIC "-//W3C//DTD SVG 1.1//EN" "http://www.w3.org/Graphics/SVG/1.1/DTD/svg11.dtd">
<svg version="1.1" id="Layer_1" xmlns="http://www.w3.org/2000/svg" xmlns:xlink="http://www.w3.org/1999/xlink" x="0px" y="0px"
	 width="46.719px" height="20.125px" viewBox="0 1 46.719 20.125" style="enable-background:new 0 1 46.719 20.125;"
	 xml:space="preserve">
<g>
	<g>
		<path style="fill:#88A0A5;" d="M17.103,0.517c2.581,5.37,8.072,9.077,14.429,9.077c6.398,0,11.919-3.756,14.479-9.183
			L17.103,0.517z M14.031,5.594c-3.038,0-5.5,2.462-5.5,5.5s2.462,5.5,5.5,5.5c3.037,0,5.5-2.462,5.5-5.5S17.069,5.594,14.031,5.594
			z M3.531,14.594c-1.657,0-3,1.343-3,3s1.343,3,3,3s3-1.343,3-3S5.188,14.594,3.531,14.594z"/>
	</g>
	<g>
		<path style="fill:none;stroke:#657F84;stroke-miterlimit:10;" d="M17.103,0.517c2.581,5.37,8.072,9.077,14.429,9.077
			c6.398,0,11.919-3.756,14.479-9.183L17.103,0.517z M14.031,5.594c-3.038,0-5.5,2.462-5.5,5.5s2.462,5.5,5.5,5.5
			c3.037,0,5.5-2.462,5.5-5.5S17.069,5.594,14.031,5.594z M3.531,14.594c-1.657,0-3,1.343-3,3s1.343,3,3,3s3-1.343,3-3
			S5.188,14.594,3.531,14.594z"/>
	</g>
</g>
</svg>
