<?xml version="1.0" encoding="UTF-8"?>
<!DOCTYPE svg PUBLIC "-//W3C//DTD SVG 1.1//EN" "http://www.w3.org/Graphics/SVG/1.1/DTD/svg11.dtd">
<svg version="1.1" xmlns="http://www.w3.org/2000/svg" xmlns:xlink="http://www.w3.org/1999/xlink" x="0" y="0" width="46.719" height="20.125" viewBox="0, 0, 46.719, 20.125">
  <g id="Layer_1">
    <g>
      <path d="M13.62,5.167 C16.658,5.167 19.12,7.629 19.12,10.667 C19.12,13.705 16.656,16.167 13.62,16.167 C10.582,16.167 8.12,13.705 8.12,10.667 C8.12,7.629 10.582,5.167 13.62,5.167 z" fill="#FFFFFF"/>
      <path d="M13.62,5.167 C16.658,5.167 19.12,7.629 19.12,10.667 C19.12,13.705 16.656,16.167 13.62,16.167 C10.582,16.167 8.12,13.705 8.12,10.667 C8.12,7.629 10.582,5.167 13.62,5.167 z" fill-opacity="0" stroke="#476E84" stroke-width="1" stroke-miterlimit="10"/>
    </g>
    <g>
      <path d="M4.12,13.167 C5.777,13.167 7.12,14.51 7.12,16.167 C7.12,17.824 5.777,19.167 4.12,19.167 C2.463,19.167 1.12,17.824 1.12,16.167 C1.12,14.51 2.463,13.167 4.12,13.167 z" fill="#FFFFFF"/>
      <path d="M4.12,13.167 C5.777,13.167 7.12,14.51 7.12,16.167 C7.12,17.824 5.777,19.167 4.12,19.167 C2.463,19.167 1.12,17.824 1.12,16.167 C1.12,14.51 2.463,13.167 4.12,13.167 z" fill-opacity="0" stroke="#476E84" stroke-width="1" stroke-miterlimit="10"/>
    </g>
    <g>
      <path d="M16.692,0.106 C16.692,0.106 19.901,9.167 31.776,9.167 C43.651,9.167 45.6,0 45.6,0" fill="#FFFFFF"/>
      <path d="M16.692,0.106 C16.692,0.106 19.901,9.167 31.776,9.167 C43.651,9.167 45.6,0 45.6,0" fill-opacity="0" stroke="#476E84" stroke-width="1" stroke-linecap="square"/>
    </g>
  </g>
</svg>
