<?xml version="1.0" encoding="UTF-8"?>
<!DOCTYPE svg PUBLIC "-//W3C//DTD SVG 1.1//EN" "http://www.w3.org/Graphics/SVG/1.1/DTD/svg11.dtd">
<svg version="1.1" xmlns="http://www.w3.org/2000/svg" xmlns:xlink="http://www.w3.org/1999/xlink" x="0" y="0" width="46.719" height="20.125" viewBox="0, 0, 46.719, 20.125">
  <g id="Layer_1">
    <g>
      <path d="M33.099,15 C30.062,15 27.6,12.538 27.6,9.5 C27.6,6.462 30.062,4 33.099,4 C36.138,4 38.599,6.462 38.599,9.5 C38.599,12.538 36.138,15 33.099,15 z" fill="#FFFFFF"/>
      <path d="M33.099,15 C30.062,15 27.6,12.538 27.6,9.5 C27.6,6.462 30.062,4 33.099,4 C36.138,4 38.599,6.462 38.599,9.5 C38.599,12.538 36.138,15 33.099,15 z" fill-opacity="0" stroke="#476E84" stroke-width="1" stroke-miterlimit="10"/>
    </g>
    <g>
      <path d="M42.599,7 C40.943,7 39.599,5.657 39.599,4 C39.599,2.343 40.943,1 42.599,1 C44.257,1 45.599,2.343 45.599,4 C45.599,5.657 44.257,7 42.599,7 z" fill="#FFFFFF"/>
      <path d="M42.599,7 C40.943,7 39.599,5.657 39.599,4 C39.599,2.343 40.943,1 42.599,1 C44.257,1 45.599,2.343 45.599,4 C45.599,5.657 44.257,7 42.599,7 z" fill-opacity="0" stroke="#476E84" stroke-width="1" stroke-miterlimit="10"/>
    </g>
    <g>
      <path d="M30.028,20.061 C30.028,20.061 26.818,11 14.943,11 C3.068,11 1.12,20.167 1.12,20.167" fill="#FFFFFF"/>
      <path d="M30.028,20.061 C30.028,20.061 26.818,11 14.943,11 C3.068,11 1.12,20.167 1.12,20.167" fill-opacity="0" stroke="#476E84" stroke-width="1" stroke-linecap="square"/>
    </g>
  </g>
</svg>
