<?xml version="1.0" encoding="UTF-8"?>
<!DOCTYPE svg PUBLIC "-//W3C//DTD SVG 1.1//EN" "http://www.w3.org/Graphics/SVG/1.1/DTD/svg11.dtd">
<svg version="1.1" xmlns="http://www.w3.org/2000/svg" xmlns:xlink="http://www.w3.org/1999/xlink" width="120" height="60"  xml:space="preserve" id="ranaSideLeft1">
    <!-- Generated by PaintCode - http://www.paintcodeapp.com -->
    <g id="ranaSideLeft1-group">
        <g id="ranaSideLeft1-group2">
            <path id="ranaSideLeft1-bezier" stroke="none" fill="rgb(0, 0, 0)" d="M 24.15,26.55 C 25.29,25.39 26.75,24.4 28.34,24.26 29.13,24.18 29.91,24.37 30.59,24.79 31.27,25.18 31.85,25.74 32.23,26.42 32.63,27.09 32.84,27.86 32.98,28.65 33.05,29.05 33.1,29.45 33.2,29.88 33.24,30.08 33.32,30.36 33.47,30.57 33.51,30.62 33.53,30.66 33.52,30.65 33.52,30.64 33.53,30.71 33.54,30.73 33.56,30.8 33.57,30.89 33.57,30.98 33.63,31.73 33.51,32.57 33.47,33.4 33.45,33.81 33.43,34.23 33.43,34.65 33.44,34.87 33.46,35.08 33.49,35.29 33.53,35.5 33.58,35.73 33.77,35.89 L 33.82,35.83 C 33.63,35.51 33.73,35.06 33.77,34.67 33.83,34.27 33.91,33.87 33.99,33.46 34.14,32.65 34.31,31.85 34.32,30.94 34.32,30.83 34.3,30.7 34.28,30.58 34.26,30.5 34.26,30.46 34.22,30.36 34.18,30.25 34.14,30.2 34.12,30.16 34.03,30.04 34,29.9 33.95,29.7 L 33.7,28.5 C 33.51,27.68 33.23,26.83 32.74,26.1 31.8,24.64 30.05,23.64 28.3,23.89 26.57,24.16 25.17,25.26 24.1,26.5 L 24.15,26.55 Z M 24.15,26.55" />
        </g>
        <g id="ranaSideLeft1-group3">
            <path id="ranaSideLeft1-bezier2" stroke="none" fill="rgb(0, 0, 0)" d="M 9.16,48.61 C 8.69,48.62 8.22,48.7 7.75,48.87 7.3,49.04 6.83,49.36 6.58,49.87 6.38,50.28 6.04,50.77 6.24,51.43 6.35,51.75 6.6,51.99 6.85,52.09 7.1,52.2 7.36,52.24 7.61,52.23 L 7.64,52.16 C 7.27,51.81 6.96,51.5 6.96,51.23 6.93,50.97 6.99,50.54 7.13,50.1 7.24,49.74 7.54,49.43 7.92,49.2 8.29,48.97 8.72,48.79 9.17,48.69 L 9.16,48.61 Z M 9.16,48.61" />
        </g>
        <g id="ranaSideLeft1-group4">
            <path id="ranaSideLeft1-bezier3" stroke="none" fill="rgb(0, 0, 0)" d="M 9.14,52.46 C 9.61,53.04 10.4,53.07 11.07,53.06 11.76,53.03 12.43,52.89 13.09,52.71 14.41,52.32 15.64,51.75 16.9,51.3 18.17,50.84 19.45,50.43 20.7,49.93 21.95,49.44 23.18,48.89 24.46,48.52 L 24.46,48.45 C 23.05,48.4 21.75,48.86 20.45,49.23 19.15,49.64 17.92,50.2 16.68,50.75 15.43,51.27 14.22,51.9 12.98,52.35 12.35,52.57 11.71,52.76 11.05,52.84 10.42,52.9 9.66,52.91 9.21,52.42 L 9.14,52.46 Z M 9.14,52.46" />
        </g>
        <g id="ranaSideLeft1-group5">
            <path id="ranaSideLeft1-bezier4" stroke="none" fill="rgb(0, 0, 0)" d="M 13.69,52.99 C 14.4,53.62 15.51,53.86 16.44,53.49 17.34,53.18 18.21,52.86 19.1,52.57 19.99,52.29 20.9,52.08 21.78,51.8 22.66,51.51 23.54,51.26 24.46,51.02 L 24.46,50.95 C 23.5,50.77 22.52,50.88 21.59,51.07 20.65,51.27 19.77,51.65 18.9,52.01 18.02,52.37 17.16,52.77 16.31,53.14 15.51,53.56 14.51,53.46 13.73,52.94 L 13.69,52.99 Z M 13.69,52.99" />
        </g>
        <g id="ranaSideLeft1-group6">
            <path id="ranaSideLeft1-bezier5" stroke="none" fill="rgb(0, 0, 0)" d="M 25.25,51.25 C 26.6,51.23 27.94,51.23 29.28,51.25 30.62,51.26 31.97,51.27 33.29,51.37 33.62,51.39 33.95,51.43 34.27,51.48 34.58,51.52 34.9,51.62 35.26,51.67 35.95,51.77 36.64,51.79 37.32,51.77 38.68,51.69 40.03,51.54 41.34,51.16 L 41.33,51.08 C 39.98,51.04 38.64,51.07 37.31,51.02 36.65,51.01 35.99,50.99 35.35,50.93 35.04,50.91 34.71,50.84 34.35,50.81 34,50.78 33.66,50.77 33.32,50.77 30.61,50.74 27.93,50.94 25.25,51.17 L 25.25,51.25 Z M 25.25,51.25" />
        </g>
        <g id="ranaSideLeft1-group7">
            <path id="ranaSideLeft1-bezier6" stroke="none" fill="rgb(0, 0, 0)" d="M 27.3,48.9 C 30.11,48.47 32.92,48.1 35.73,47.8 L 39.96,47.45 C 41.36,47.31 42.75,47.15 44.16,47.27 L 44.18,47.2 C 42.81,46.65 41.33,46.7 39.91,46.7 38.47,46.75 37.06,46.99 35.66,47.21 32.85,47.64 30.05,48.19 27.29,48.82 L 27.3,48.9 Z M 27.3,48.9" />
        </g>
        <g id="ranaSideLeft1-group8">
            <path id="ranaSideLeft1-bezier7" stroke="none" fill="rgb(0, 0, 0)" d="M 45.64,48.47 C 45.05,49.3 44.35,50.07 43.55,50.66 43.16,50.96 42.72,51.21 42.27,51.33 41.76,51.48 41.27,51.65 40.79,51.84 39.82,52.22 38.85,52.62 37.99,53.25 37.57,53.57 37.16,53.92 36.82,54.34 36.48,54.75 36.17,55.26 36.17,55.81 L 36.25,55.83 C 36.69,54.92 37.58,54.41 38.41,53.88 39.26,53.37 40.12,52.83 41.03,52.39 41.48,52.17 41.94,51.97 42.42,51.8 42.94,51.61 43.39,51.3 43.79,50.95 44.57,50.24 45.19,49.4 45.7,48.51 L 45.64,48.47 Z M 45.64,48.47" />
        </g>
        <g id="ranaSideLeft1-group9">
            <path id="ranaSideLeft1-bezier8" stroke="none" fill="rgb(0, 0, 0)" d="M 38.1,55.16 C 37.73,55.33 37.38,55.55 37.07,55.85 36.91,55.99 36.71,56.15 36.67,56.4 36.62,56.63 36.66,56.97 36.92,57.12 L 37,57.1 C 37.15,56.87 37.27,56.8 37.36,56.68 37.46,56.56 37.47,56.38 37.55,56.21 37.71,55.89 37.92,55.55 38.15,55.22 L 38.1,55.16 Z M 38.1,55.16" />
        </g>
        <g id="ranaSideLeft1-group10">
            <path id="ranaSideLeft1-bezier9" stroke="none" fill="rgb(0, 0, 0)" d="M 39.61,55.58 C 39.21,55.63 38.83,55.74 38.45,55.93 38.27,56.03 38.03,56.12 37.92,56.36 37.8,56.57 37.8,57 38.09,57.12 L 38.16,57.1 C 38.3,56.86 38.43,56.88 38.54,56.79 38.64,56.72 38.7,56.55 38.81,56.41 39.05,56.15 39.34,55.89 39.64,55.64 L 39.61,55.58 Z M 39.61,55.58" />
        </g>
        <g id="ranaSideLeft1-group11">
            <path id="ranaSideLeft1-bezier10" stroke="none" fill="rgb(0, 0, 0)" d="M 39.63,56.85 C 40.27,56.91 40.92,56.92 41.6,56.68 41.77,56.62 41.97,56.51 42.12,56.39 42.25,56.28 42.34,56.19 42.44,56.07 42.63,55.83 42.81,55.57 42.94,55.22 L 42.9,55.16 C 42.52,55.18 42.21,55.34 41.93,55.52 41.8,55.62 41.67,55.75 41.58,55.88 41.51,55.98 41.45,56.06 41.33,56.14 41.11,56.3 40.82,56.41 40.53,56.51 40.24,56.62 39.93,56.71 39.62,56.78 L 39.63,56.85 Z M 39.63,56.85" />
        </g>
        <g id="ranaSideLeft1-group12">
            <path id="ranaSideLeft1-bezier11" stroke="none" fill="rgb(0, 0, 0)" d="M 43.18,54.98 C 44.2,54.75 45.23,54.47 46.26,54.41 46.62,54.34 46.81,54.16 47.04,54.02 L 47.69,53.58 C 48.12,53.3 48.57,53.07 49.04,52.9 49.52,52.73 49.98,52.65 50.52,52.6 51.11,52.51 51.65,52.27 52.11,51.94 52.57,51.59 52.95,51.17 53.25,50.71 53.54,50.24 53.79,49.76 53.87,49.19 L 53.8,49.19 C 53.23,50.04 52.5,50.81 51.69,51.32 51.29,51.57 50.84,51.76 50.4,51.86 49.89,51.96 49.31,52.11 48.82,52.34 48.31,52.56 47.85,52.86 47.42,53.18 47,53.48 46.56,53.92 46.21,54.04 45.15,54.2 44.16,54.58 43.16,54.91 L 43.18,54.98 Z M 43.18,54.98" />
        </g>
        <g id="ranaSideLeft1-group13">
            <path id="ranaSideLeft1-bezier12" stroke="none" fill="rgb(0, 0, 0)" d="M 50.09,53.89 C 49.52,55.01 48.93,56.13 48.27,57.17 48.1,57.42 47.91,57.67 47.72,57.88 47.52,58.1 47.36,58.29 47.22,58.3 46.92,58.38 46.6,58.45 46.29,58.61 45.97,58.75 45.63,59.07 45.63,59.43 L 45.7,59.46 C 46.12,58.99 46.72,59.14 47.35,59.03 47.39,59.03 47.59,59 47.69,58.94 47.81,58.88 47.88,58.81 47.96,58.75 48.11,58.61 48.21,58.47 48.31,58.33 48.5,58.05 48.65,57.76 48.79,57.47 49.36,56.31 49.79,55.12 50.16,53.91 L 50.09,53.89 Z M 50.09,53.89" />
        </g>
        <g id="ranaSideLeft1-group14">
            <path id="ranaSideLeft1-bezier13" stroke="none" fill="rgb(0, 0, 0)" d="M 42.9,57.87 C 42.47,57.92 42.05,58.02 41.64,58.23 41.43,58.32 41.19,58.41 41.06,58.64 40.93,58.86 40.86,59.19 41.05,59.44 L 41.12,59.45 C 41.35,59.28 41.49,59.23 41.63,59.13 41.77,59.04 41.85,58.86 41.98,58.72 42.26,58.45 42.59,58.18 42.93,57.94 L 42.9,57.87 Z M 42.9,57.87" />
        </g>
        <g id="ranaSideLeft1-group15">
            <path id="ranaSideLeft1-bezier14" stroke="none" fill="rgb(0, 0, 0)" d="M 40.74,57.86 C 40.34,57.85 39.92,57.97 39.56,58.24 39.38,58.36 39.16,58.51 39.1,58.73 39.04,58.96 39.06,59.21 39.21,59.44 L 39.29,59.45 C 39.53,59.31 39.65,59.19 39.77,59.08 39.88,58.97 39.89,58.81 39.98,58.66 40.16,58.39 40.43,58.13 40.76,57.94 L 40.74,57.86 Z M 40.74,57.86" />
        </g>
        <g id="ranaSideLeft1-group16">
            <path id="ranaSideLeft1-bezier15" stroke="none" fill="rgb(0, 0, 0)" d="M 38.56,58.65 C 38.33,58.72 38.13,58.82 37.94,58.97 37.84,59.04 37.7,59.09 37.69,59.23 37.68,59.37 37.7,59.54 37.88,59.69 L 37.95,59.7 C 38.17,59.65 38.27,59.63 38.36,59.58 38.43,59.53 38.41,59.42 38.43,59.32 38.48,59.13 38.54,58.92 38.61,58.7 L 38.56,58.65 Z M 38.56,58.65" />
        </g>
        <g id="ranaSideLeft1-group17">
            <path id="ranaSideLeft1-bezier16" stroke="none" fill="rgb(0, 0, 0)" d="M 43.18,57.48 C 43.68,57.37 44.16,57.12 44.54,56.72 44.73,56.53 44.94,56.32 44.99,56.03 45.05,55.76 45.01,55.46 44.83,55.2 L 44.76,55.19 C 44.52,55.41 44.41,55.6 44.29,55.77 44.17,55.95 44.15,56.16 44.05,56.36 43.85,56.75 43.54,57.12 43.16,57.41 L 43.18,57.48 Z M 43.18,57.48" />
        </g>
        <g id="ranaSideLeft1-group18">
            <path id="ranaSideLeft1-bezier17" stroke="none" fill="rgb(0, 0, 0)" d="M 51.29,53.35 C 54.76,53.28 58.24,53.31 61.7,53.47 65.16,53.63 68.64,53.87 72,54.57 75.33,55.46 78.78,56.26 82.26,56.52 85.73,56.76 89.31,56.84 92.68,55.85 L 92.66,55.78 C 89.24,56.34 85.76,56.14 82.34,55.78 78.9,55.41 75.53,54.81 72.12,53.98 68.67,53.34 65.19,53.18 61.71,53.09 58.24,53.04 54.76,53.1 51.29,53.28 L 51.29,53.35 Z M 51.29,53.35" />
        </g>
        <g id="ranaSideLeft1-group19">
            <path id="ranaSideLeft1-bezier18" stroke="none" fill="rgb(0, 0, 0)" d="M 94.41,57.86 C 93.71,57.97 93.01,58.16 92.36,58.49 92.03,58.65 91.66,58.83 91.43,59.17 91.21,59.5 91.08,59.99 91.3,60.36 L 91.37,60.36 C 91.58,60.03 91.78,59.85 92.01,59.66 92.23,59.47 92.42,59.21 92.68,59 93.2,58.6 93.8,58.24 94.43,57.94 L 94.41,57.86 Z M 94.41,57.86" />
        </g>
        <g id="ranaSideLeft1-group20">
            <path id="ranaSideLeft1-bezier19" stroke="none" fill="rgb(0, 0, 0)" d="M 91.33,58.32 C 90.89,58.28 90.42,58.36 90,58.63 89.79,58.75 89.55,58.91 89.48,59.17 89.39,59.42 89.42,59.7 89.59,59.94 L 89.66,59.95 C 89.9,59.77 90.01,59.64 90.14,59.52 90.26,59.4 90.28,59.23 90.39,59.08 90.61,58.81 90.95,58.56 91.34,58.4 L 91.33,58.32 Z M 91.33,58.32" />
        </g>
        <g id="ranaSideLeft1-group21">
            <path id="ranaSideLeft1-bezier20" stroke="none" fill="rgb(0, 0, 0)" d="M 89.22,58.33 C 88.95,58.45 88.69,58.6 88.44,58.78 88.32,58.87 88.15,58.93 88.1,59.1 88.06,59.25 88.01,59.5 88.21,59.7 L 88.29,59.69 C 88.5,59.6 88.61,59.6 88.72,59.52 88.83,59.45 88.84,59.3 88.9,59.17 89.02,58.92 89.15,58.66 89.28,58.39 L 89.22,58.33 Z M 89.22,58.33" />
        </g>
        <g id="ranaSideLeft1-group22">
            <path id="ranaSideLeft1-bezier21" stroke="none" fill="rgb(0, 0, 0)" d="M 95.15,58.32 C 94.83,58.35 94.51,58.45 94.22,58.68 94.07,58.78 93.89,58.92 93.87,59.13 93.84,59.34 93.92,59.56 94.13,59.7 L 94.2,59.69 C 94.4,59.53 94.49,59.45 94.57,59.38 94.65,59.31 94.62,59.19 94.67,59.07 94.78,58.84 94.96,58.61 95.18,58.39 L 95.15,58.32 Z M 95.15,58.32" />
        </g>
        <g id="ranaSideLeft1-group23">
            <path id="ranaSideLeft1-bezier22" stroke="none" fill="rgb(0, 0, 0)" d="M 96.09,59.98 C 96.77,59.86 97.49,59.68 98.02,59.08 98.15,58.93 98.24,58.74 98.28,58.54 98.32,58.3 98.32,58.21 98.38,58.04 98.46,57.74 98.6,57.43 98.75,57.14 99.07,56.55 99.48,56.02 99.84,55.46 100.21,54.91 100.55,54.36 101.1,53.94 L 101.08,53.87 C 100.3,53.93 99.71,54.49 99.24,55.01 98.76,55.56 98.47,56.22 98.21,56.89 98.08,57.23 97.97,57.57 97.9,57.94 97.83,58.37 97.91,58.6 97.72,58.87 97.39,59.39 96.72,59.71 96.08,59.91 L 96.09,59.98 Z M 96.09,59.98" />
        </g>
        <g id="ranaSideLeft1-group24">
            <path id="ranaSideLeft1-bezier23" stroke="none" fill="rgb(0, 0, 0)" d="M 95.68,53.94 C 96.76,53.75 97.83,53.58 98.91,53.44 99.44,53.37 99.99,53.37 100.5,53.27 101.03,53.18 101.53,53.03 102.07,53.02 L 102.1,52.95 C 101.62,52.54 100.98,52.53 100.43,52.52 99.86,52.53 99.32,52.71 98.79,52.85 97.72,53.12 96.68,53.47 95.66,53.87 L 95.68,53.94 Z M 95.68,53.94" />
        </g>
        <g id="ranaSideLeft1-group25">
            <path id="ranaSideLeft1-bezier24" stroke="none" fill="rgb(0, 0, 0)" d="M 101.83,55.12 C 102.16,54.5 102.76,54.07 103.39,53.83 104.03,53.58 104.72,53.5 105.4,53.51 106.08,53.55 106.88,53.66 107.62,53.41 107.99,53.28 108.37,53.11 108.65,52.8 108.94,52.51 109.14,52.09 109.04,51.69 L 108.96,51.7 C 108.7,52.37 108.06,52.56 107.43,52.68 106.79,52.8 106.14,52.87 105.39,52.91 104.65,52.98 103.9,53.14 103.24,53.5 102.58,53.86 102.01,54.4 101.76,55.1 L 101.83,55.12 Z M 101.83,55.12" />
        </g>
        <g id="ranaSideLeft1-group26">
            <path id="ranaSideLeft1-bezier25" stroke="none" fill="rgb(0, 0, 0)" d="M 19.05,41.28 C 19.06,42.1 19.69,43 20.67,43.05 21.61,43.11 22.54,42.29 22.55,41.28 22.58,40.79 22.4,40.27 22.05,39.89 21.7,39.51 21.18,39.3 20.67,39.32 20.15,39.33 19.67,39.63 19.41,40.02 19.13,40.4 19.03,40.86 19.05,41.28 Z M 19.12,41.28 C 19.13,40.86 19.38,40.5 19.69,40.3 20.01,40.09 20.35,40.05 20.67,40.07 21.29,40.1 21.91,40.58 21.95,41.28 22.01,41.96 21.42,42.65 20.67,42.67 20.3,42.7 19.91,42.59 19.6,42.34 19.3,42.09 19.1,41.69 19.12,41.28 Z M 19.12,41.28" />
        </g>
        <g id="ranaSideLeft1-group27">
            <path id="ranaSideLeft1-bezier26" stroke="none" fill="rgb(0, 0, 0)" d="M 17.12,42.57 C 17.29,41.88 17.52,41.22 17.82,40.62 17.98,40.32 18.19,40.08 18.34,39.81 18.48,39.53 18.63,39.27 18.85,38.94 L 18.82,38.87 C 18.4,38.84 18.01,39.07 17.74,39.36 17.46,39.65 17.36,40.04 17.26,40.4 17.05,41.12 17,41.85 17.05,42.57 L 17.12,42.57 Z M 17.12,42.57" />
        </g>
        <g id="ranaSideLeft1-group28">
            <path id="ranaSideLeft1-bezier27" stroke="none" fill="rgb(0, 0, 0)" d="M 23.71,41.48 C 23.37,42.32 22.75,43.03 21.99,43.36 21.61,43.53 21.2,43.55 20.8,43.63 20.39,43.71 19.95,43.76 19.47,43.87 L 19.45,43.94 C 19.86,44.23 20.35,44.36 20.86,44.38 21.37,44.39 21.86,44.17 22.28,43.89 23.15,43.34 23.65,42.41 23.79,41.5 L 23.71,41.48 Z M 23.71,41.48" />
        </g>
        <g id="ranaSideLeft1-group29">
            <path id="ranaSideLeft1-bezier28" stroke="none" fill="rgb(0, 0, 0)" d="M 9.2,47.47 C 9.86,46.8 10.45,46.06 10.94,45.25 11.43,44.45 11.83,43.54 11.91,42.57 12.14,40.69 11.92,38.79 12.93,37.18 13.61,35.34 13.8,33.42 13.68,31.51 13.52,29.62 13.07,27.69 12.03,26.09 L 11.97,26.13 C 12.61,27.89 12.9,29.71 12.94,31.55 12.96,33.36 12.92,35.26 12.37,36.96 12.22,37.33 11.96,37.82 11.85,38.3 11.73,38.77 11.68,39.26 11.64,39.73 11.59,40.68 11.6,41.61 11.54,42.54 11.52,43.45 11.19,44.32 10.75,45.14 10.31,45.95 9.77,46.72 9.15,47.42 L 9.2,47.47 Z M 9.2,47.47" />
        </g>
        <g id="ranaSideLeft1-group30">
            <path id="ranaSideLeft1-bezier29" stroke="none" fill="rgb(0, 0, 0)" d="M 24.15,30.64 C 24.64,30.42 25.12,30.16 25.57,29.86 25.8,29.71 26.06,29.58 26.22,29.34 26.37,29.11 26.52,28.81 26.45,28.46 L 26.38,28.43 C 26.09,28.57 25.89,28.67 25.68,28.83 25.47,28.97 25.35,29.2 25.18,29.4 24.83,29.79 24.47,30.18 24.1,30.58 L 24.15,30.64 Z M 24.15,30.64" />
        </g>
        <g id="ranaSideLeft1-group31">
            <path id="ranaSideLeft1-bezier30" stroke="none" fill="rgb(0, 0, 0)" d="M 26.97,29.15 C 27.38,29.11 27.82,29.33 28.09,29.59 28.12,29.62 28.15,29.66 28.15,29.67 28.14,29.7 28.17,29.63 28.12,29.68 L 28.1,29.7 C 28.08,29.71 28.04,29.78 28.05,29.82 28.06,29.91 28.11,29.95 28.13,29.96 28.18,29.99 28.2,30 28.24,30.01 28.3,30.03 28.35,30.05 28.41,30.07 L 29.05,30.23 C 29.25,30.29 29.47,30.34 29.63,30.42 29.66,30.44 29.69,30.47 29.7,30.47 29.69,30.5 29.65,30.37 29.68,30.35 29.69,30.34 29.59,30.41 29.49,30.46 29.23,30.62 29.07,30.96 29.09,31.25 29.09,31.53 29.17,31.75 29.22,31.96 29.27,32.16 29.26,32.35 29.23,32.33 29.22,32.37 29.24,32.27 28.98,32.55 28.88,32.7 28.89,32.91 28.94,33.02 28.98,33.14 29.03,33.2 29.08,33.27 29.45,33.7 29.84,33.89 30.12,34.14 30.19,34.17 30.21,34.28 30.19,34.14 30.24,33.93 30.34,33.98 30.18,34.05 30.11,34.11 29.95,34.14 29.9,34.43 29.9,34.72 30.05,34.77 30.1,34.83 30.24,34.92 30.35,34.96 30.46,34.99 L 31.1,35.18 C 31.2,35.21 31.3,35.24 31.38,35.28 31.42,35.31 31.43,35.31 31.44,35.31 31.44,35.33 31.4,35.38 31.36,35.41 L 31.39,35.48 C 31.45,35.46 31.51,35.46 31.57,35.38 31.64,35.28 31.56,35.17 31.53,35.12 31.44,35.02 31.34,34.95 31.25,34.88 L 30.69,34.52 C 30.61,34.47 30.52,34.4 30.48,34.36 30.46,34.35 30.51,34.31 30.52,34.49 30.49,34.66 30.44,34.64 30.46,34.64 30.47,34.62 30.85,34.6 30.9,34.14 30.86,33.77 30.71,33.71 30.64,33.6 30.27,33.24 29.87,33.01 29.65,32.8 29.63,32.78 29.61,32.75 29.62,32.77 29.62,32.78 29.63,32.87 29.59,32.92 29.46,33.03 29.71,32.85 29.81,32.69 30,32.28 29.85,32 29.79,31.79 29.64,31.35 29.53,31.03 29.76,30.87 29.84,30.8 29.95,30.78 30.08,30.57 30.17,30.46 30.1,30.2 30.01,30.16 29.93,30.09 29.87,30.06 29.81,30.03 29.56,29.94 29.34,29.9 29.12,29.87 L 28.47,29.77 28.33,29.74 C 28.31,29.74 28.28,29.73 28.29,29.73 28.27,29.73 28.31,29.74 28.31,29.8 28.33,29.83 28.29,29.89 28.28,29.89 L 28.29,29.88 C 28.32,29.87 28.44,29.7 28.38,29.61 28.35,29.52 28.3,29.47 28.25,29.43 27.86,29.15 27.41,28.99 26.95,29.07 L 26.97,29.15 Z M 26.97,29.15" />
        </g>
        <g id="ranaSideLeft1-group32">
            <path id="ranaSideLeft1-bezier31" stroke="none" fill="rgb(0, 0, 0)" d="M 36.22,28.9 C 37.19,28.81 38.17,28.78 39.12,28.81 39.6,28.83 40.07,28.92 40.54,28.92 41.01,28.91 41.47,28.91 41.99,28.9 L 42.01,28.83 C 41.62,28.45 41.11,28.27 40.61,28.17 40.11,28.07 39.6,28.15 39.1,28.21 38.11,28.31 37.14,28.53 36.2,28.82 L 36.22,28.9 Z M 36.22,28.9" />
        </g>
        <g id="ranaSideLeft1-group33">
            <path id="ranaSideLeft1-bezier32" stroke="none" fill="rgb(0, 0, 0)" d="M 40.62,33.18 C 41.39,33.38 42.09,33.77 42.72,34.21 43.04,34.44 43.3,34.72 43.63,34.93 43.96,35.13 44.3,35.32 44.72,35.47 L 44.78,35.42 C 44.65,34.99 44.39,34.64 44.1,34.34 43.8,34.04 43.4,33.87 43.03,33.69 42.27,33.34 41.46,33.1 40.63,33.1 L 40.62,33.18 Z M 40.62,33.18" />
        </g>
        <g id="ranaSideLeft1-group34">
            <path id="ranaSideLeft1-bezier33" stroke="none" fill="rgb(0, 0, 0)" d="M 42.68,31.9 C 43.95,32.5 45.19,33.19 46.35,33.96 46.93,34.36 47.45,34.81 48.01,35.21 48.57,35.6 49.11,36.01 49.68,36.46 L 49.74,36.42 C 49.5,35.72 49.01,35.12 48.48,34.63 47.95,34.12 47.29,33.78 46.66,33.45 45.39,32.77 44.07,32.23 42.7,31.82 L 42.68,31.9 Z M 42.68,31.9" />
        </g>
        <g id="ranaSideLeft1-group35">
            <path id="ranaSideLeft1-bezier34" stroke="none" fill="rgb(0, 0, 0)" d="M 108.02,48.89 C 108.41,49.38 108.79,49.87 109.14,50.37 109.31,50.62 109.44,50.9 109.65,51.11 109.86,51.32 110.08,51.51 110.38,51.71 L 110.45,51.68 C 110.52,51.31 110.4,50.96 110.26,50.67 110.1,50.38 109.83,50.18 109.59,49.97 109.12,49.54 108.61,49.16 108.07,48.83 L 108.02,48.89 Z M 108.02,48.89" />
        </g>
        <g id="ranaSideLeft1-group36">
            <path id="ranaSideLeft1-bezier35" stroke="none" fill="rgb(0, 0, 0)" d="M 102.06,45.33 C 102.87,46.04 103.66,46.77 104.44,47.5 104.82,47.87 105.16,48.28 105.57,48.61 105.96,48.95 106.4,49.22 106.75,49.62 L 106.83,49.6 C 106.85,49.29 106.71,49.01 106.58,48.76 106.44,48.5 106.27,48.28 106.09,48.07 105.73,47.65 105.26,47.35 104.82,47.04 103.95,46.39 103.04,45.81 102.1,45.27 L 102.06,45.33 Z M 102.06,45.33" />
        </g>
        <g id="ranaSideLeft1-group37">
            <path id="ranaSideLeft1-bezier36" stroke="none" fill="rgb(0, 0, 0)" d="M 96.84,45.33 C 97.63,45.67 98.43,45.98 99.24,46.26 99.64,46.41 100.03,46.6 100.46,46.65 100.89,46.7 101.33,46.73 101.79,46.59 L 101.8,46.51 C 101.42,46.25 101.03,46.07 100.64,45.92 100.24,45.78 99.81,45.75 99.39,45.68 98.55,45.53 97.71,45.39 96.87,45.26 L 96.84,45.33 Z M 96.84,45.33" />
        </g>
        <g id="ranaSideLeft1-group38">
            <path id="ranaSideLeft1-bezier37" stroke="none" fill="rgb(0, 0, 0)" d="M 108.02,46.58 C 108.56,47.14 109.11,47.7 109.66,48.24 109.93,48.52 110.17,48.83 110.48,49.05 110.8,49.28 111.14,49.45 111.51,49.63 L 111.57,49.59 C 111.5,49.13 111.24,48.8 110.99,48.5 110.72,48.19 110.37,48 110.05,47.78 109.4,47.33 108.74,46.91 108.07,46.52 L 108.02,46.58 Z M 108.02,46.58" />
        </g>
        <g id="ranaSideLeft1-group39">
            <path id="ranaSideLeft1-bezier38" stroke="none" fill="rgb(0, 0, 0)" d="M 104.77,42.02 C 105.4,42.6 106.02,43.18 106.63,43.77 106.93,44.07 107.19,44.4 107.53,44.65 107.87,44.9 108.21,45.13 108.64,45.32 L 108.7,45.27 C 108.58,44.81 108.32,44.44 108.04,44.1 107.75,43.77 107.37,43.55 107.01,43.31 106.31,42.81 105.57,42.36 104.81,41.95 L 104.77,42.02 Z M 104.77,42.02" />
        </g>
        <g id="ranaSideLeft1-group40">
            <path id="ranaSideLeft1-bezier39" stroke="none" fill="rgb(0, 0, 0)" d="M 107.72,42.6 C 108.4,43.03 109.08,43.46 109.74,43.9 110.07,44.12 110.37,44.39 110.73,44.56 111.09,44.72 111.45,44.87 111.89,44.95 L 111.94,44.89 C 111.74,44.49 111.44,44.18 111.13,43.92 110.8,43.66 110.41,43.53 110.03,43.37 109.29,43.04 108.52,42.76 107.74,42.53 L 107.72,42.6 Z M 107.72,42.6" />
        </g>
        <g id="ranaSideLeft1-group41">
            <path id="ranaSideLeft1-bezier40" stroke="none" fill="rgb(0, 0, 0)" d="M 109.24,41.31 C 109.9,41.19 110.58,41.16 111.2,41.23 111.52,41.27 111.81,41.39 112.1,41.41 112.4,41.44 112.69,41.48 113.08,41.52 L 113.13,41.46 C 112.97,41.09 112.65,40.84 112.3,40.69 111.95,40.54 111.56,40.59 111.2,40.63 110.49,40.7 109.82,40.91 109.22,41.24 L 109.24,41.31 Z M 109.24,41.31" />
        </g>
        <g id="ranaSideLeft1-group42">
            <path id="ranaSideLeft1-bezier41" stroke="none" fill="rgb(0, 0, 0)" d="M 8.52,51.42 C 8.78,51.35 9.02,51.21 9.21,50.97 9.31,50.86 9.44,50.71 9.41,50.54 9.37,50.37 9.26,50.2 9.04,50.14 L 8.96,50.16 C 8.79,50.33 8.72,50.4 8.66,50.47 8.6,50.53 8.67,50.62 8.67,50.72 8.65,50.91 8.58,51.14 8.48,51.37 L 8.52,51.42 Z M 8.52,51.42" />
        </g>
        <g id="ranaSideLeft1-group43">
            <path id="ranaSideLeft1-bezier42" stroke="none" fill="rgb(0, 0, 0)" d="M 51.29,34.9 C 52.51,35.13 53.68,35.57 54.73,36.16 55.25,36.46 55.71,36.85 56.21,37.18 56.71,37.5 57.19,37.86 57.73,38.22 L 57.79,38.17 C 57.56,37.55 57.15,37.02 56.67,36.59 56.19,36.14 55.59,35.87 54.99,35.62 53.81,35.12 52.55,34.84 51.29,34.82 L 51.29,34.9 Z M 51.29,34.9" />
        </g>
        <g id="ranaSideLeft1-group44">
            <path id="ranaSideLeft1-bezier43" stroke="none" fill="rgb(0, 0, 0)" d="M 58.45,35.48 C 59.9,35.8 61.33,36.22 62.68,36.78 63.35,37.08 63.97,37.44 64.6,37.77 65.24,38.09 65.83,38.45 66.43,38.92 L 66.49,38.88 C 66.21,38.14 65.62,37.56 64.99,37.12 64.35,36.68 63.6,36.44 62.88,36.22 61.44,35.77 59.95,35.51 58.46,35.41 L 58.45,35.48 Z M 58.45,35.48" />
        </g>
        <g id="ranaSideLeft1-group45">
            <path id="ranaSideLeft1-bezier44" stroke="none" fill="rgb(0, 0, 0)" d="M 60.94,37.56 C 61.96,38.19 62.94,38.87 63.86,39.6 64.31,39.98 64.71,40.41 65.15,40.77 65.59,41.14 66.02,41.49 66.42,41.96 L 66.49,41.93 C 66.46,41.28 66.08,40.7 65.68,40.23 65.26,39.76 64.73,39.44 64.21,39.12 63.18,38.47 62.1,37.93 60.98,37.49 L 60.94,37.56 Z M 60.94,37.56" />
        </g>
        <g id="ranaSideLeft1-group46">
            <path id="ranaSideLeft1-bezier45" stroke="none" fill="rgb(0, 0, 0)" d="M 68.85,39.77 C 69.66,40.48 70.4,41.26 71.07,42.07 71.41,42.48 71.68,42.93 72.03,43.32 72.39,43.71 72.74,44.09 73.18,44.46 L 73.24,44.43 C 73.16,43.85 72.92,43.34 72.63,42.87 72.34,42.39 71.91,42.03 71.51,41.66 70.71,40.91 69.84,40.25 68.9,39.7 L 68.85,39.77 Z M 68.85,39.77" />
        </g>
        <g id="ranaSideLeft1-group47">
            <path id="ranaSideLeft1-bezier46" stroke="none" fill="rgb(0, 0, 0)" d="M 71.96,40.77 C 72.97,41.57 74.06,42.27 75.22,42.86 75.8,43.15 76.39,43.46 77.05,43.6 77.7,43.72 78.39,43.77 79.04,43.56 L 79.04,43.49 C 78.41,43.28 77.83,43.09 77.25,42.87 76.67,42.66 76.06,42.52 75.46,42.31 74.28,41.86 73.12,41.32 72,40.7 L 71.96,40.77 Z M 71.96,40.77" />
        </g>
        <g id="ranaSideLeft1-group48">
            <path id="ranaSideLeft1-bezier47" stroke="none" fill="rgb(0, 0, 0)" d="M 79.03,42.6 C 80.38,43.29 81.72,44 83.04,44.73 83.69,45.11 84.31,45.53 84.98,45.87 85.62,46.24 86.34,46.5 86.84,47.02 L 86.91,47 C 86.85,46.57 86.54,46.26 86.27,45.98 85.99,45.69 85.68,45.46 85.36,45.23 84.72,44.79 84.01,44.51 83.31,44.2 81.91,43.58 80.49,43.03 79.06,42.54 L 79.03,42.6 Z M 79.03,42.6" />
        </g>
        <g id="ranaSideLeft1-group49">
            <path id="ranaSideLeft1-bezier48" stroke="none" fill="rgb(0, 0, 0)" d="M 83.79,42.79 C 84.31,43.14 84.81,43.65 85.32,44.07 85.84,44.51 86.37,44.93 86.92,45.33 87.47,45.74 88.03,46.16 88.69,46.41 89.34,46.65 90.1,46.83 90.79,46.58 L 90.79,46.51 C 90.13,46.34 89.58,46.04 89,45.73 88.44,45.42 87.83,45.16 87.25,44.83 86.67,44.5 86.1,44.14 85.54,43.77 84.96,43.43 84.45,43.01 83.79,42.71 L 83.79,42.79 Z M 83.79,42.79" />
        </g>
        <g id="ranaSideLeft1-group50">
            <path id="ranaSideLeft1-bezier49" stroke="none" fill="rgb(0, 0, 0)" d="M 87.87,44.05 C 88.88,44.36 89.89,44.68 90.88,45.02 91.38,45.2 91.85,45.43 92.35,45.56 92.85,45.69 93.34,45.77 93.85,45.95 L 93.9,45.9 C 93.62,45.36 93.08,45.09 92.6,44.85 92.11,44.62 91.57,44.55 91.04,44.44 89.99,44.23 88.94,44.08 87.88,43.98 L 87.87,44.05 Z M 87.87,44.05" />
        </g>
        <g id="ranaSideLeft1-group51">
            <path id="ranaSideLeft1-bezier50" stroke="none" fill="rgb(0, 0, 0)" d="M 82.94,38.94 C 84.25,39.56 85.56,40.18 86.84,40.82 87.49,41.15 88.1,41.53 88.76,41.8 89.42,42.08 90.08,42.33 90.77,42.6 L 90.81,42.54 C 90.36,41.93 89.72,41.51 89.1,41.13 88.46,40.76 87.77,40.53 87.09,40.28 85.73,39.75 84.36,39.29 82.97,38.87 L 82.94,38.94 Z M 82.94,38.94" />
        </g>
        <g id="ranaSideLeft1-group52">
            <path id="ranaSideLeft1-bezier51" stroke="none" fill="rgb(0, 0, 0)" d="M 92.12,41.52 L 95.96,42.72 C 96.6,42.92 97.22,43.18 97.87,43.33 98.52,43.47 99.17,43.59 99.86,43.67 L 99.89,43.61 C 99.35,43.14 98.72,42.86 98.09,42.61 97.45,42.37 96.78,42.27 96.11,42.14 94.79,41.86 93.47,41.63 92.13,41.45 L 92.12,41.52 Z M 92.12,41.52" />
        </g>
        <g id="ranaSideLeft1-group53">
            <path id="ranaSideLeft1-bezier52" stroke="none" fill="rgb(0, 0, 0)" d="M 99.32,41.24 C 100.43,41.55 101.53,41.91 102.57,42.35 103.09,42.58 103.56,42.87 104.05,43.1 104.53,43.35 104.99,43.57 105.36,44.03 L 105.43,44.01 C 105.44,43.34 104.91,42.81 104.43,42.46 103.93,42.1 103.34,41.94 102.77,41.78 101.64,41.45 100.49,41.26 99.33,41.17 L 99.32,41.24 Z M 99.32,41.24" />
        </g>
        <g id="ranaSideLeft1-group54">
            <path id="ranaSideLeft1-bezier53" stroke="none" fill="rgb(0, 0, 0)" d="M 106.29,37.56 C 107.37,37.79 108.44,38.02 109.5,38.28 110.03,38.42 110.54,38.61 111.07,38.7 L 112.69,38.93 112.73,38.87 C 112.34,38.41 111.78,38.16 111.26,37.97 110.73,37.78 110.16,37.75 109.61,37.69 108.5,37.56 107.4,37.5 106.3,37.49 L 106.29,37.56 Z M 106.29,37.56" />
        </g>
        <g id="ranaSideLeft1-group55">
            <path id="ranaSideLeft1-bezier54" stroke="none" fill="rgb(0, 0, 0)" d="M 103.96,31.9 C 105.17,31.98 106.38,32.06 107.58,32.17 108.18,32.23 108.78,32.35 109.37,32.36 109.97,32.38 110.56,32.33 111.15,32.42 L 111.19,32.36 C 110.97,32.1 110.65,31.97 110.36,31.85 110.06,31.74 109.75,31.67 109.45,31.61 108.83,31.5 108.22,31.55 107.6,31.57 106.38,31.59 105.17,31.68 103.96,31.82 L 103.96,31.9 Z M 103.96,31.9" />
        </g>
        <g id="ranaSideLeft1-group56">
            <path id="ranaSideLeft1-bezier55" stroke="none" fill="rgb(0, 0, 0)" d="M 98.6,27.12 C 99.57,26.64 100.54,26.19 101.52,25.79 102.02,25.6 102.53,25.46 103,25.24 L 104.44,24.56 104.44,24.49 C 103.87,24.31 103.28,24.4 102.75,24.54 102.21,24.68 101.73,24.98 101.26,25.25 100.31,25.78 99.42,26.39 98.56,27.06 L 98.6,27.12 Z M 98.6,27.12" />
        </g>
        <g id="ranaSideLeft1-group57">
            <path id="ranaSideLeft1-bezier56" stroke="none" fill="rgb(0, 0, 0)" d="M 91.35,21.81 L 94.67,20.38 C 95.22,20.15 95.8,19.97 96.32,19.69 96.85,19.42 97.34,19.08 97.87,18.81 L 97.87,18.74 C 97.21,18.61 96.6,18.82 96.02,19 95.44,19.2 94.93,19.54 94.4,19.84 93.35,20.44 92.32,21.07 91.32,21.74 L 91.35,21.81 Z M 91.35,21.81" />
        </g>
        <g id="ranaSideLeft1-group58">
            <path id="ranaSideLeft1-bezier57" stroke="none" fill="rgb(0, 0, 0)" d="M 82.98,18.8 C 83.98,18.03 84.94,17.22 85.86,16.36 86.33,15.94 86.83,15.53 87.21,15.01 87.39,14.75 87.58,14.49 87.72,14.19 87.84,13.89 88.04,13.56 87.91,13.18 L 87.84,13.2 C 87.58,13.7 87.04,14.08 86.63,14.53 86.2,14.96 85.84,15.47 85.43,15.95 84.62,16.88 83.78,17.82 82.93,18.75 L 82.98,18.8 Z M 82.98,18.8" />
        </g>
        <g id="ranaSideLeft1-group59">
            <path id="ranaSideLeft1-bezier58" stroke="none" fill="rgb(0, 0, 0)" d="M 74.82,16.01 C 75.66,15.42 76.48,14.78 77.26,14.09 77.66,13.75 78.08,13.43 78.39,13 78.69,12.57 78.98,12.1 79.07,11.55 L 79.01,11.51 C 78.57,11.83 78.2,12.16 77.83,12.51 77.46,12.85 77.17,13.28 76.84,13.67 76.16,14.44 75.47,15.2 74.77,15.96 L 74.82,16.01 Z M 74.82,16.01" />
        </g>
        <g id="ranaSideLeft1-group60">
            <path id="ranaSideLeft1-bezier59" stroke="none" fill="rgb(0, 0, 0)" d="M 66.48,16.02 C 67.41,15.52 68.31,14.95 69.15,14.28 69.57,13.95 70.02,13.63 70.34,13.16 70.63,12.71 70.93,12.11 70.75,11.53 L 70.67,11.53 C 70.44,12.01 70.09,12.33 69.75,12.69 69.4,13.04 69.11,13.46 68.75,13.84 68.03,14.58 67.25,15.28 66.44,15.95 L 66.48,16.02 Z M 66.48,16.02" />
        </g>
        <g id="ranaSideLeft1-group61">
            <path id="ranaSideLeft1-bezier60" stroke="none" fill="rgb(0, 0, 0)" d="M 63.74,16.47 C 64.45,15.84 65.09,15.13 65.65,14.34 65.93,13.94 66.23,13.53 66.34,13.02 66.45,12.54 66.46,11.91 66.08,11.51 L 66.01,11.54 C 65.97,12.03 65.8,12.39 65.63,12.79 65.45,13.18 65.33,13.61 65.13,14.03 64.72,14.85 64.22,15.65 63.68,16.42 L 63.74,16.47 Z M 63.74,16.47" />
        </g>
        <g id="ranaSideLeft1-group62">
            <path id="ranaSideLeft1-bezier61" stroke="none" fill="rgb(0, 0, 0)" d="M 58.49,16.8 C 59.16,16.05 59.83,15.31 60.51,14.59 60.86,14.24 61.25,13.92 61.55,13.55 61.87,13.17 62.13,12.78 62.47,12.4 L 62.44,12.33 C 61.87,12.36 61.42,12.7 61.02,13.02 60.62,13.35 60.35,13.79 60.05,14.21 59.46,15.03 58.92,15.88 58.43,16.76 L 58.49,16.8 Z M 58.49,16.8" />
        </g>
        <g id="ranaSideLeft1-group63">
            <path id="ranaSideLeft1-bezier62" stroke="none" fill="rgb(0, 0, 0)" d="M 51.31,17.14 C 52.66,16.33 53.96,15.43 55.2,14.44 55.81,13.94 56.45,13.45 56.95,12.81 57.2,12.48 57.43,12.14 57.6,11.76 57.77,11.39 57.91,10.94 57.8,10.53 L 57.73,10.53 C 57.48,11.26 56.9,11.76 56.39,12.31 55.85,12.85 55.35,13.44 54.8,13.99 53.68,15.06 52.49,16.09 51.27,17.08 L 51.31,17.14 Z M 51.31,17.14" />
        </g>
        <g id="ranaSideLeft1-group64">
            <path id="ranaSideLeft1-bezier63" stroke="none" fill="rgb(0, 0, 0)" d="M 47.92,15.05 C 48.63,14.41 49.31,13.75 49.95,13.05 50.28,12.71 50.64,12.38 50.89,11.96 51.11,11.54 51.38,11.1 51.33,10.53 L 51.26,10.52 C 50.94,10.87 50.59,11.17 50.28,11.52 49.97,11.87 49.75,12.28 49.49,12.67 L 47.87,15 47.92,15.05 Z M 47.92,15.05" />
        </g>
        <g id="ranaSideLeft1-group65">
            <path id="ranaSideLeft1-bezier64" stroke="none" fill="rgb(0, 0, 0)" d="M 42.94,16.81 L 45.49,15.08 C 45.92,14.8 46.38,14.56 46.76,14.24 47.16,13.92 47.5,13.55 47.9,13.23 L 47.89,13.16 C 47.29,13.11 46.8,13.38 46.34,13.62 45.88,13.88 45.51,14.25 45.13,14.6 44.35,15.28 43.61,16 42.89,16.75 L 42.94,16.81 Z M 42.94,16.81" />
        </g>
        <g id="ranaSideLeft1-group66">
            <path id="ranaSideLeft1-bezier65" stroke="none" fill="rgb(0, 0, 0)" d="M 40.78,16.47 C 41.36,15.91 41.76,15.18 42.03,14.42 42.17,14.04 42.32,13.65 42.32,13.23 42.31,12.83 42.24,12.41 42.04,12.03 L 41.96,12.03 C 41.76,12.42 41.67,12.79 41.57,13.15 41.48,13.52 41.5,13.89 41.45,14.27 41.32,15 41.12,15.75 40.72,16.42 L 40.78,16.47 Z M 40.78,16.47" />
        </g>
        <g id="ranaSideLeft1-group67">
            <path id="ranaSideLeft1-bezier66" stroke="none" fill="rgb(0, 0, 0)" d="M 35.07,19.55 C 35.98,18.81 36.85,18.02 37.66,17.15 38.07,16.72 38.51,16.3 38.8,15.76 39.09,15.24 39.35,14.63 39.29,13.99 L 39.21,13.98 C 38.89,14.48 38.53,14.9 38.18,15.35 37.83,15.79 37.54,16.29 37.2,16.77 36.51,17.7 35.78,18.61 35.01,19.5 L 35.07,19.55 Z M 35.07,19.55" />
        </g>
        <g id="ranaSideLeft1-group68">
            <path id="ranaSideLeft1-bezier67" stroke="none" fill="rgb(0, 0, 0)" d="M 34.75,17.12 C 34.97,16.48 35.15,15.83 35.25,15.16 35.31,14.82 35.4,14.47 35.32,14.12 35.25,13.78 35.1,13.38 34.74,13.17 L 34.68,13.21 34.58,14.18 C 34.55,14.48 34.63,14.8 34.65,15.12 34.68,15.77 34.68,16.44 34.67,17.1 L 34.75,17.12 Z M 34.75,17.12" />
        </g>
        <g id="ranaSideLeft1-group69">
            <path id="ranaSideLeft1-bezier68" stroke="none" fill="rgb(0, 0, 0)" d="M 31.55,21.34 C 32.19,20.46 32.71,19.48 33.03,18.4 33.2,17.87 33.35,17.31 33.3,16.73 33.24,16.15 33.05,15.57 32.66,15.14 L 32.59,15.16 C 32.59,15.74 32.59,16.23 32.55,16.74 32.51,17.24 32.53,17.75 32.45,18.27 32.27,19.29 31.94,20.32 31.48,21.3 L 31.55,21.34 Z M 31.55,21.34" />
        </g>
        <g id="ranaSideLeft1-group70">
            <path id="ranaSideLeft1-bezier69" stroke="none" fill="rgb(0, 0, 0)" d="M 28.4,20.31 C 29.1,19.97 29.76,19.54 30.35,19 30.65,18.73 30.97,18.45 31.14,18.05 31.3,17.66 31.37,17.18 31.16,16.78 L 31.09,16.78 C 30.87,17.15 30.69,17.41 30.48,17.69 30.27,17.96 30.12,18.29 29.91,18.59 29.46,19.18 28.93,19.73 28.35,20.25 L 28.4,20.31 Z M 28.4,20.31" />
        </g>
        <g id="ranaSideLeft1-group71">
            <path id="ranaSideLeft1-bezier70" stroke="none" fill="rgb(0, 0, 0)" d="M 25.31,23.36 C 25.52,22.41 25.82,21.47 26.22,20.62 26.44,20.19 26.71,19.82 26.93,19.43 27.15,19.03 27.39,18.67 27.73,18.27 L 27.69,18.2 C 27.15,18.25 26.66,18.59 26.32,18.99 25.97,19.4 25.81,19.91 25.67,20.4 25.36,21.37 25.24,22.37 25.23,23.36 L 25.31,23.36 Z M 25.31,23.36" />
        </g>
        <g id="ranaSideLeft1-group72">
            <path id="ranaSideLeft1-bezier71" stroke="none" fill="rgb(0, 0, 0)" d="M 84.73,21.35 C 85.86,20.54 86.93,19.66 87.94,18.7 88.45,18.22 88.98,17.75 89.38,17.16 89.76,16.57 90.12,15.9 90.16,15.16 L 90.09,15.14 C 89.67,15.71 89.23,16.19 88.78,16.7 88.34,17.2 87.95,17.76 87.51,18.28 86.61,19.32 85.66,20.32 84.68,21.29 L 84.73,21.35 Z M 84.73,21.35" />
        </g>
        <g id="ranaSideLeft1-group73">
            <path id="ranaSideLeft1-bezier72" stroke="none" fill="rgb(0, 0, 0)" d="M 95.19,24.07 C 95.83,23.65 96.53,23.34 97.22,23.11 97.58,23 97.95,22.96 98.28,22.82 98.62,22.68 98.96,22.55 99.33,22.31 L 99.32,22.24 C 98.92,22.07 98.5,22.04 98.1,22.1 97.69,22.15 97.33,22.36 96.99,22.55 96.28,22.93 95.65,23.42 95.14,24.02 L 95.19,24.07 Z M 95.19,24.07" />
        </g>
        <g id="ranaSideLeft1-group74">
            <path id="ranaSideLeft1-bezier73" stroke="none" fill="rgb(0, 0, 0)" d="M 96.87,29.56 C 98.43,29.22 100.01,28.92 101.58,28.67 102.37,28.56 103.17,28.51 103.94,28.39 104.72,28.27 105.48,28.12 106.28,28.14 L 106.3,28.07 C 105.56,27.64 104.67,27.63 103.87,27.64 103.04,27.67 102.25,27.89 101.47,28.08 99.9,28.46 98.36,28.94 96.84,29.49 L 96.87,29.56 Z M 96.87,29.56" />
        </g>
        <g id="ranaSideLeft1-group75">
            <path id="ranaSideLeft1-bezier74" stroke="none" fill="rgb(0, 0, 0)" d="M 102.35,34.19 C 103.46,34.54 104.59,34.84 105.74,35.06 106.31,35.18 106.89,35.32 107.48,35.31 108.07,35.29 108.7,35.21 109.24,34.9 L 109.22,34.82 107.52,34.56 C 106.96,34.48 106.39,34.5 105.82,34.46 104.67,34.38 103.52,34.26 102.37,34.12 L 102.35,34.19 Z M 102.35,34.19" />
        </g>
        <g id="ranaSideLeft1-group76">
            <path id="ranaSideLeft1-bezier75" stroke="none" fill="rgb(0, 0, 0)" d="M 68.86,37.21 C 70.06,37.98 71.33,38.63 72.67,39.17 73.33,39.44 74.01,39.73 74.73,39.84 75.45,39.94 76.2,39.97 76.92,39.77 L 76.92,39.7 C 76.22,39.48 75.56,39.3 74.89,39.11 74.23,38.91 73.54,38.79 72.86,38.6 71.52,38.21 70.19,37.72 68.9,37.14 L 68.86,37.21 Z M 68.86,37.21" />
        </g>
        <g id="ranaSideLeft1-group77">
            <path id="ranaSideLeft1-bezier76" stroke="none" fill="rgb(0, 0, 0)" d="M 74.81,17.89 C 76.15,17.36 77.51,16.85 78.87,16.4 79.56,16.19 80.26,16.03 80.92,15.8 81.59,15.57 82.24,15.33 82.95,15.19 L 82.96,15.11 C 82.24,14.84 81.44,14.94 80.72,15.08 79.99,15.22 79.33,15.55 78.66,15.84 77.32,16.43 76.03,17.09 74.78,17.83 L 74.81,17.89 Z M 74.81,17.89" />
        </g>
        <g id="ranaSideLeft1-group78">
            <path id="ranaSideLeft1-bezier77" stroke="none" fill="rgb(0, 0, 0)" d="M 81.22,27.13 C 82.97,26.85 84.71,26.52 86.44,26.13 87.31,25.93 88.19,25.77 89.03,25.45 89.44,25.29 89.86,25.12 90.26,24.9 90.65,24.68 91.07,24.45 91.36,24.07 L 91.31,24.02 C 90.51,24.35 89.64,24.5 88.8,24.74 87.95,24.96 87.13,25.28 86.29,25.55 84.6,26.07 82.9,26.57 81.2,27.05 L 81.22,27.13 Z M 81.22,27.13" />
        </g>
        <g id="ranaSideLeft1-group79">
            <path id="ranaSideLeft1-bezier78" stroke="none" fill="rgb(0, 0, 0)" d="M 87.43,28.9 L 91.05,28.05 C 91.65,27.92 92.27,27.85 92.85,27.66 93.44,27.5 94,27.26 94.6,27.13 L 94.61,27.05 C 94.3,26.89 93.96,26.88 93.64,26.87 93.32,26.85 93,26.89 92.69,26.93 92.06,27.02 91.47,27.26 90.89,27.47 89.7,27.87 88.55,28.33 87.41,28.82 L 87.43,28.9 Z M 87.43,28.9" />
        </g>
        <g id="ranaSideLeft1-group80">
            <path id="ranaSideLeft1-bezier79" stroke="none" fill="rgb(0, 0, 0)" d="M 92.13,34.19 C 92.74,34.12 93.32,33.97 93.91,33.83 94.49,33.67 95.07,33.49 95.65,33.3 96.22,33.11 96.82,32.94 97.34,32.61 97.61,32.44 97.86,32.26 98.09,32.03 98.31,31.81 98.54,31.54 98.62,31.21 L 98.55,31.18 C 98.07,31.52 97.53,31.7 96.99,31.94 96.46,32.17 95.96,32.48 95.42,32.75 94.89,33 94.34,33.25 93.79,33.47 93.24,33.71 92.69,33.95 92.12,34.12 L 92.13,34.19 Z M 92.13,34.19" />
        </g>
        <g id="ranaSideLeft1-group81">
            <path id="ranaSideLeft1-bezier80" stroke="none" fill="rgb(0, 0, 0)" d="M 98.6,38.49 C 99.73,37.98 100.86,37.51 102,37.08 102.57,36.88 103.16,36.74 103.71,36.51 104.27,36.29 104.79,36.05 105.39,35.9 L 105.4,35.82 C 104.78,35.56 104.09,35.66 103.48,35.8 102.86,35.94 102.31,36.25 101.76,36.54 100.65,37.09 99.59,37.73 98.57,38.42 L 98.6,38.49 Z M 98.6,38.49" />
        </g>
        <g id="ranaSideLeft1-group82">
            <path id="ranaSideLeft1-bezier81" stroke="none" fill="rgb(0, 0, 0)" d="M 103.21,39.73 C 104.12,39.9 105.04,40.02 105.97,40.07 106.44,40.11 106.91,40.17 107.38,40.08 107.83,39.97 108.37,39.84 108.69,39.39 L 108.65,39.33 C 108.18,39.38 107.76,39.32 107.31,39.33 106.86,39.33 106.42,39.43 105.96,39.47 105.05,39.55 104.13,39.61 103.21,39.66 L 103.21,39.73 Z M 103.21,39.73" />
        </g>
        <g id="ranaSideLeft1-group83">
            <path id="ranaSideLeft1-bezier82" stroke="none" fill="rgb(0, 0, 0)" d="M 86.27,36.48 C 87.81,36.83 89.36,37.15 90.92,37.42 91.69,37.57 92.47,37.75 93.27,37.78 94.06,37.8 94.87,37.81 95.67,37.56 L 95.66,37.49 C 94.88,37.33 94.12,37.15 93.34,37.03 92.57,36.9 91.78,36.89 90.99,36.83 L 86.28,36.41 86.27,36.48 Z M 86.27,36.48" />
        </g>
        <g id="ranaSideLeft1-group84">
            <path id="ranaSideLeft1-bezier83" stroke="none" fill="rgb(0, 0, 0)" d="M 74.78,34.59 C 75.21,34.92 75.57,35.43 75.95,35.86 76.34,36.31 76.73,36.75 77.13,37.18 77.53,37.62 77.92,38.08 78.44,38.41 78.69,38.57 78.96,38.73 79.26,38.84 79.55,38.94 79.89,39.03 80.21,38.94 L 80.21,38.86 C 79.69,38.6 79.32,38.19 78.89,37.82 78.48,37.43 77.99,37.11 77.54,36.74 77.1,36.37 76.66,35.99 76.22,35.6 75.75,35.24 75.36,34.8 74.8,34.52 L 74.78,34.59 Z M 74.78,34.59" />
        </g>
        <g id="ranaSideLeft1-group85">
            <path id="ranaSideLeft1-bezier84" stroke="none" fill="rgb(0, 0, 0)" d="M 80.79,33.56 C 82.29,33.41 83.76,33.2 85.24,33.03 85.98,32.95 86.72,32.92 87.45,32.79 88.17,32.67 88.89,32.46 89.61,32.43 L 89.64,32.36 C 89.29,32.13 88.88,32.1 88.5,32.06 88.12,32.02 87.74,32.03 87.36,32.04 86.6,32.08 85.87,32.27 85.14,32.43 L 82.95,32.93 80.79,33.49 80.79,33.56 Z M 80.79,33.56" />
        </g>
        <g id="ranaSideLeft1-group86">
            <path id="ranaSideLeft1-bezier85" stroke="none" fill="rgb(0, 0, 0)" d="M 78.89,30.64 C 79.72,30.3 80.55,29.97 81.37,29.67 81.79,29.53 82.22,29.44 82.61,29.25 83,29.08 83.35,28.86 83.78,28.72 L 83.8,28.64 C 83.34,28.36 82.81,28.46 82.37,28.54 81.91,28.65 81.52,28.9 81.13,29.12 80.33,29.56 79.58,30.05 78.86,30.58 L 78.89,30.64 Z M 78.89,30.64" />
        </g>
        <g id="ranaSideLeft1-group87">
            <path id="ranaSideLeft1-bezier86" stroke="none" fill="rgb(0, 0, 0)" d="M 78.89,25.06 C 79.86,24.76 80.84,24.49 81.81,24.26 82.31,24.16 82.8,24.12 83.27,24 83.74,23.88 84.18,23.73 84.69,23.73 L 84.73,23.66 C 84.29,23.25 83.67,23.23 83.15,23.25 82.61,23.29 82.13,23.5 81.64,23.69 80.67,24.05 79.75,24.49 78.86,24.99 L 78.89,25.06 Z M 78.89,25.06" />
        </g>
        <g id="ranaSideLeft1-group88">
            <path id="ranaSideLeft1-bezier87" stroke="none" fill="rgb(0, 0, 0)" d="M 74.82,22.81 C 75.69,22.18 76.58,21.57 77.49,21.02 77.94,20.75 78.43,20.53 78.85,20.25 79.29,19.99 79.68,19.67 80.2,19.56 L 80.22,19.49 C 79.96,19.31 79.62,19.31 79.34,19.35 79.04,19.39 78.77,19.48 78.51,19.59 77.98,19.81 77.56,20.18 77.14,20.53 76.29,21.21 75.5,21.96 74.77,22.75 L 74.82,22.81 Z M 74.82,22.81" />
        </g>
        <g id="ranaSideLeft1-group89">
            <path id="ranaSideLeft1-bezier88" stroke="none" fill="rgb(0, 0, 0)" d="M 65.48,20.31 C 66.65,19.66 67.8,18.96 68.9,18.19 69.46,17.81 70.04,17.45 70.51,16.95 70.75,16.7 70.98,16.44 71.17,16.15 71.36,15.86 71.55,15.53 71.58,15.16 L 71.51,15.14 C 71.06,15.63 70.52,15.98 70.01,16.4 69.5,16.8 69.04,17.28 68.54,17.71 67.53,18.57 66.49,19.42 65.44,20.25 L 65.48,20.31 Z M 65.48,20.31" />
        </g>
        <g id="ranaSideLeft1-group90">
            <path id="ranaSideLeft1-bezier89" stroke="none" fill="rgb(0, 0, 0)" d="M 35.75,25.84 C 37.14,25.3 38.53,24.8 39.94,24.35 40.65,24.14 41.37,23.98 42.06,23.75 42.75,23.54 43.42,23.28 44.16,23.2 L 44.18,23.12 C 43.44,22.79 42.61,22.9 41.87,23.03 41.12,23.17 40.43,23.49 39.74,23.79 38.35,24.37 37.01,25.04 35.71,25.77 L 35.75,25.84 Z M 35.75,25.84" />
        </g>
        <g id="ranaSideLeft1-group91">
            <path id="ranaSideLeft1-bezier90" stroke="none" fill="rgb(0, 0, 0)" d="M 33.65,23.39 C 34.74,22.84 35.81,22.23 36.85,21.56 37.37,21.22 37.91,20.91 38.35,20.46 38.57,20.23 38.79,20 38.96,19.72 39.13,19.45 39.31,19.14 39.29,18.78 L 39.21,18.77 C 38.85,19.23 38.32,19.53 37.86,19.9 37.38,20.25 36.96,20.68 36.49,21.07 35.55,21.84 34.58,22.59 33.61,23.33 L 33.65,23.39 Z M 33.65,23.39" />
        </g>
        <g id="ranaSideLeft1-group92">
            <path id="ranaSideLeft1-bezier91" stroke="none" fill="rgb(0, 0, 0)" d="M 41.4,21.17 L 45,19.52 C 45.6,19.26 46.23,19.04 46.8,18.73 47.38,18.42 47.92,18.07 48.51,17.75 L 48.5,17.68 C 47.78,17.6 47.12,17.83 46.49,18.04 45.86,18.28 45.3,18.65 44.73,18.98 43.58,19.65 42.46,20.36 41.36,21.1 L 41.4,21.17 Z M 41.4,21.17" />
        </g>
        <g id="ranaSideLeft1-group93">
            <path id="ranaSideLeft1-bezier92" stroke="none" fill="rgb(0, 0, 0)" d="M 49.31,21.81 C 50.38,21.22 51.41,20.58 52.41,19.88 52.91,19.53 53.43,19.2 53.85,18.74 54.26,18.28 54.66,17.76 54.82,17.13 L 54.76,17.09 53.34,18.19 C 52.88,18.56 52.48,19 52.03,19.41 51.14,20.21 50.21,20.98 49.27,21.75 L 49.31,21.81 Z M 49.31,21.81" />
        </g>
        <g id="ranaSideLeft1-group94">
            <path id="ranaSideLeft1-bezier93" stroke="none" fill="rgb(0, 0, 0)" d="M 43.18,26.81 C 44.44,26.31 45.7,25.82 46.96,25.36 47.6,25.14 48.24,24.98 48.85,24.72 49.47,24.49 50.06,24.15 50.69,24.08 L 50.72,24.01 C 50.39,23.8 50,23.82 49.65,23.83 49.3,23.85 48.96,23.93 48.62,24.01 47.95,24.18 47.34,24.51 46.73,24.81 45.5,25.4 44.31,26.05 43.15,26.75 L 43.18,26.81 Z M 43.18,26.81" />
        </g>
        <g id="ranaSideLeft1-group95">
            <path id="ranaSideLeft1-bezier94" stroke="none" fill="rgb(0, 0, 0)" d="M 44.73,29.66 C 45.13,29.78 45.48,29.66 45.85,29.63 46.21,29.58 46.57,29.51 46.94,29.45 47.65,29.3 48.37,29.12 49.08,28.93 49.79,28.75 50.51,28.58 51.18,28.25 51.52,28.08 51.85,27.91 52.16,27.68 52.45,27.45 52.8,27.21 52.91,26.79 L 52.84,26.76 C 52.3,27.17 51.56,27.3 50.9,27.56 50.22,27.78 49.57,28.1 48.89,28.36 48.22,28.62 47.53,28.86 46.84,29.08 46.5,29.2 46.15,29.31 45.8,29.41 45.47,29.5 45.07,29.64 44.78,29.61 L 44.73,29.66 Z M 44.73,29.66" />
        </g>
        <g id="ranaSideLeft1-group96">
            <path id="ranaSideLeft1-bezier95" stroke="none" fill="rgb(0, 0, 0)" d="M 51.28,30.65 C 52.48,31 53.68,31.36 54.86,31.74 55.45,31.93 56.02,32.18 56.62,32.32 57.22,32.47 57.81,32.57 58.44,32.71 L 58.48,32.64 C 58.03,32.14 57.43,31.85 56.85,31.61 56.26,31.37 55.63,31.28 55.01,31.16 53.78,30.91 52.54,30.72 51.3,30.57 L 51.28,30.65 Z M 51.28,30.65" />
        </g>
        <g id="ranaSideLeft1-group97">
            <path id="ranaSideLeft1-bezier96" stroke="none" fill="rgb(0, 0, 0)" d="M 49.31,26.29 C 50.61,25.84 51.9,25.35 53.17,24.78 53.8,24.51 54.46,24.26 55.04,23.86 55.33,23.66 55.61,23.45 55.87,23.19 56.12,22.94 56.39,22.67 56.49,22.29 L 56.43,22.26 C 55.9,22.67 55.25,22.9 54.66,23.21 54.05,23.51 53.49,23.9 52.9,24.25 51.7,24.92 50.49,25.58 49.28,26.22 L 49.31,26.29 Z M 49.31,26.29" />
        </g>
        <g id="ranaSideLeft1-group98">
            <path id="ranaSideLeft1-bezier97" stroke="none" fill="rgb(0, 0, 0)" d="M 53.85,21.1 C 55.08,20.64 56.33,20.2 57.57,19.81 58.2,19.62 58.84,19.5 59.44,19.29 60.05,19.1 60.63,18.84 61.28,18.81 L 61.31,18.74 C 61.01,18.53 60.63,18.48 60.28,18.47 59.93,18.46 59.59,18.5 59.26,18.56 58.58,18.68 57.97,18.98 57.37,19.25 56.14,19.77 54.96,20.37 53.82,21.03 L 53.85,21.1 Z M 53.85,21.1" />
        </g>
        <g id="ranaSideLeft1-group99">
            <path id="ranaSideLeft1-bezier98" stroke="none" fill="rgb(0, 0, 0)" d="M 57.58,25.42 C 58.83,25.06 60.06,24.65 61.28,24.15 61.89,23.91 62.51,23.69 63.07,23.31 63.34,23.12 63.61,22.92 63.85,22.67 64.09,22.43 64.33,22.15 64.41,21.79 L 64.34,21.76 C 63.85,22.16 63.26,22.38 62.69,22.67 62.12,22.94 61.59,23.3 61.02,23.61 59.89,24.21 58.72,24.79 57.55,25.35 L 57.58,25.42 Z M 57.58,25.42" />
        </g>
        <g id="ranaSideLeft1-group100">
            <path id="ranaSideLeft1-bezier99" stroke="none" fill="rgb(0, 0, 0)" d="M 68.9,22.8 C 69.59,22.19 70.3,21.61 71.03,21.08 71.4,20.82 71.8,20.62 72.14,20.35 72.49,20.08 72.8,19.82 73.21,19.56 L 73.2,19.49 C 72.7,19.34 72.17,19.51 71.74,19.72 71.3,19.93 70.97,20.29 70.64,20.62 69.97,21.28 69.38,21.99 68.85,22.75 L 68.9,22.8 Z M 68.9,22.8" />
        </g>
        <g id="ranaSideLeft1-group101">
            <path id="ranaSideLeft1-bezier100" stroke="none" fill="rgb(0, 0, 0)" d="M 59.8,27.13 C 61.06,26.99 62.31,26.81 63.56,26.57 64.18,26.45 64.82,26.37 65.42,26.13 66.01,25.88 66.63,25.6 67.07,25.06 L 67.02,25 C 66.41,25.17 65.8,25.26 65.2,25.41 64.59,25.55 64.01,25.79 63.41,25.99 62.21,26.35 61,26.71 59.79,27.05 L 59.8,27.13 Z M 59.8,27.13" />
        </g>
        <g id="ranaSideLeft1-group102">
            <path id="ranaSideLeft1-bezier101" stroke="none" fill="rgb(0, 0, 0)" d="M 69.97,28.72 C 71.14,28.4 72.31,28.1 73.47,27.81 74.06,27.68 74.66,27.59 75.22,27.41 75.79,27.23 76.33,27.01 76.91,26.82 L 76.92,26.74 C 76.3,26.53 75.65,26.6 75.04,26.68 74.43,26.78 73.87,27.02 73.3,27.24 72.16,27.66 71.04,28.13 69.95,28.65 L 69.97,28.72 Z M 69.97,28.72" />
        </g>
        <g id="ranaSideLeft1-group103">
            <path id="ranaSideLeft1-bezier102" stroke="none" fill="rgb(0, 0, 0)" d="M 67.62,32.15 C 68.32,32.24 69.02,32.13 69.7,32.06 70.39,31.96 71.07,31.83 71.75,31.69 72.43,31.55 73.12,31.44 73.77,31.17 74.4,30.88 75.07,30.57 75.54,29.98 L 75.49,29.92 C 74.84,30.15 74.18,30.27 73.52,30.45 72.87,30.63 72.25,30.9 71.6,31.11 70.95,31.32 70.29,31.52 69.63,31.69 68.97,31.86 68.3,32.06 67.63,32.08 L 67.62,32.15 Z M 67.62,32.15" />
        </g>
        <g id="ranaSideLeft1-group104">
            <path id="ranaSideLeft1-bezier103" stroke="none" fill="rgb(0, 0, 0)" d="M 61.31,31.23 C 62.42,30.76 63.53,30.27 64.62,29.76 65.17,29.51 65.74,29.29 66.24,28.96 66.74,28.62 67.24,28.25 67.65,27.76 L 67.61,27.7 C 66.99,27.84 66.43,28.05 65.88,28.3 65.33,28.55 64.84,28.91 64.33,29.23 63.31,29.86 62.29,30.5 61.27,31.16 L 61.31,31.23 Z M 61.31,31.23" />
        </g>
        <g id="ranaSideLeft1-group105">
            <path id="ranaSideLeft1-bezier104" stroke="none" fill="rgb(0, 0, 0)" d="M 95.81,54.77 C 95.29,55.08 94.78,55.43 94.31,55.84 94.08,56.04 93.84,56.29 93.67,56.54 93.54,56.71 93.3,56.79 93.03,56.86 92.48,56.97 91.86,56.94 91.26,57.09 90.68,57.24 89.96,57.45 89.6,58.04 L 89.65,58.09 C 90.22,57.87 90.78,57.89 91.38,57.83 91.97,57.78 92.57,57.65 93.2,57.43 93.49,57.32 93.86,57.16 94.07,56.82 94.22,56.55 94.38,56.33 94.58,56.1 94.95,55.64 95.39,55.22 95.86,54.83 L 95.81,54.77 Z M 95.81,54.77" />
        </g>
        <g id="ranaSideLeft1-group106">
            <path id="ranaSideLeft1-bezier105" stroke="none" fill="rgb(0, 0, 0)" d="M 45.04,59.41 C 44.54,59.3 44.03,59.21 43.52,59.14 43.27,59.1 43.01,59.02 42.76,59.07 42.51,59.12 42.25,59.2 42,59.41 L 42,59.48 C 42.25,59.68 42.51,59.77 42.76,59.82 43.01,59.87 43.27,59.78 43.52,59.74 44.03,59.68 44.54,59.59 45.04,59.48 L 45.04,59.41 Z M 45.04,59.41" />
        </g>
        <g id="ranaSideLeft1-group107">
            <path id="ranaSideLeft1-bezier106" stroke="none" fill="rgb(0, 0, 0)" d="M 15.33,33.55 C 15.59,32.14 15.8,30.71 15.93,29.27 16.01,28.56 16.11,27.83 16.05,27.1 16.02,26.74 15.97,26.37 15.87,26 15.76,25.66 15.68,25.24 15.32,25 L 15.27,25.06 C 15.45,25.69 15.3,26.42 15.3,27.12 15.27,27.82 15.33,28.53 15.33,29.25 15.33,30.67 15.3,32.11 15.25,33.54 L 15.33,33.55 Z M 15.33,33.55" />
        </g>
        <g id="ranaSideLeft1-group108">
            <path id="ranaSideLeft1-bezier107" stroke="none" fill="rgb(0, 0, 0)" d="M 18.87,32.69 C 19.32,31.64 19.72,30.59 20.07,29.51 20.25,28.97 20.47,28.43 20.53,27.86 20.56,27.57 20.58,27.28 20.56,26.98 20.53,26.69 20.5,26.37 20.33,26.1 L 20.26,26.12 C 20.14,26.67 19.94,27.18 19.79,27.71 19.64,28.24 19.59,28.8 19.49,29.36 19.27,30.46 19.04,31.56 18.8,32.66 L 18.87,32.69 Z M 18.87,32.69" />
        </g>
        <g id="ranaSideLeft1-group109">
            <path id="ranaSideLeft1-bezier108" stroke="none" fill="rgb(0, 0, 0)" d="M 21.07,31.22 C 21.55,30.82 22.03,30.42 22.51,30.05 22.76,29.86 23.03,29.72 23.23,29.5 23.43,29.27 23.6,29.04 23.77,28.71 L 23.73,28.65 C 23.36,28.62 23.03,28.76 22.75,28.92 22.47,29.09 22.29,29.37 22.09,29.62 21.69,30.1 21.33,30.62 21.01,31.17 L 21.07,31.22 Z M 21.07,31.22" />
        </g>
        <g id="ranaSideLeft1-group110">
            <path id="ranaSideLeft1-bezier109" stroke="none" fill="rgb(0, 0, 0)" d="M 18.87,28.49 C 18.75,27.21 18.56,25.92 18.26,24.65 18.12,24.02 17.99,23.37 17.69,22.77 17.38,22.2 16.99,21.55 16.31,21.29 L 16.27,21.35 C 16.63,21.89 16.78,22.47 17,23.06 17.19,23.65 17.47,24.22 17.68,24.82 18.1,26.03 18.46,27.26 18.8,28.51 L 18.87,28.49 Z M 18.87,28.49" />
        </g>
        <g id="ranaSideLeft1-group111">
            <path id="ranaSideLeft1-bezier110" stroke="none" fill="rgb(0, 0, 0)" d="M 21.64,26.27 C 22.04,25.05 22.39,23.82 22.65,22.55 22.79,21.93 22.96,21.29 22.94,20.63 22.93,20.3 22.91,19.97 22.82,19.63 22.73,19.32 22.63,18.92 22.27,18.75 L 22.23,18.81 C 22.44,19.35 22.24,19.98 22.19,20.59 22.11,21.2 22.11,21.83 22.06,22.46 21.93,23.72 21.76,24.98 21.57,26.25 L 21.64,26.27 Z M 21.64,26.27" />
        </g>
        <g id="ranaSideLeft1-group652">
            <path id="ranaSideLeft1-bezier650" stroke="none" fill="rgb(0, 0, 0)" d="M 103.17,54.81 C 103.33,55.63 103.52,56.45 103.89,57.24 103.99,57.43 104.11,57.63 104.27,57.81 104.41,58 104.71,58.13 104.87,58.19 105.1,58.33 105.15,58.63 104.95,58.82 104.76,59.02 104.4,59.09 104.05,59.07 103.64,59.05 103.21,59.04 102.8,59.06 101.96,59.11 101.13,59.19 100.29,59.41 L 100.29,59.48 C 101.13,59.68 101.96,59.76 102.8,59.81 103.22,59.83 103.62,59.83 104.05,59.81 104.52,59.78 105.06,59.66 105.42,59.21 105.59,58.99 105.68,58.67 105.61,58.37 105.53,58.07 105.33,57.86 105.04,57.74 104.82,57.66 104.71,57.64 104.58,57.51 104.44,57.38 104.33,57.22 104.22,57.06 103.79,56.38 103.49,55.58 103.24,54.79 L 103.17,54.81 Z M 103.17,54.81" />
        </g>
        <g id="ranaSideLeft1-group654">
            <path id="ranaSideLeft1-bezier652" stroke="none" fill="rgb(0, 0, 0)" d="M 99.9,57.47 C 100.25,57.34 100.57,57.11 100.8,56.75 100.92,56.58 101.05,56.36 101.01,56.13 100.97,55.9 100.82,55.69 100.58,55.6 L 100.51,55.62 C 100.37,55.86 100.32,55.99 100.26,56.11 100.21,56.23 100.27,56.36 100.25,56.51 100.19,56.8 100.05,57.12 99.85,57.41 L 99.9,57.47 Z M 99.9,57.47" />
        </g>
    </g>
</svg>
