<?xml version="1.0" encoding="UTF-8"?>
<!DOCTYPE svg PUBLIC "-//W3C//DTD SVG 1.1//EN" "http://www.w3.org/Graphics/SVG/1.1/DTD/svg11.dtd">
<svg version="1.1" xmlns="http://www.w3.org/2000/svg" xmlns:xlink="http://www.w3.org/1999/xlink" width="120" height="60"  xml:space="preserve" id="ranaSideLeft2">
    <!-- Generated by PaintCode - http://www.paintcodeapp.com -->
    <g id="ranaSideLeft2-group">
        <g id="ranaSideLeft2-group222">
            <path id="ranaSideLeft2-bezier221" stroke="none" fill="rgb(0, 0, 0)" d="M 20.61,29.01 C 21.72,27.98 23.1,27.15 24.59,26.99 25.32,26.91 26.07,27.04 26.71,27.35 27.39,27.67 27.96,28.12 28.39,28.7 28.81,29.28 29.06,29.97 29.21,30.69 L 29.43,31.82 C 29.48,32.01 29.52,32.21 29.64,32.45 29.87,32.82 29.78,32.64 29.84,32.85 29.93,33.5 29.8,34.3 29.76,35.06 29.74,35.45 29.71,35.84 29.71,36.23 29.72,36.43 29.74,36.63 29.77,36.83 29.81,37.02 29.86,37.25 30.05,37.38 L 30.09,37.32 C 29.91,37.03 30.01,36.61 30.06,36.25 30.11,35.88 30.19,35.51 30.28,35.13 30.42,34.37 30.61,33.65 30.58,32.75 30.55,32.62 30.56,32.54 30.47,32.34 30.4,32.23 30.42,32.26 30.36,32.17 30.35,32.16 30.34,32.14 30.33,32.11 30.27,32 30.23,31.82 30.19,31.65 30.12,31.29 30.04,30.9 29.93,30.51 29.72,29.75 29.39,28.97 28.86,28.34 28.35,27.69 27.65,27.21 26.92,26.91 26.16,26.59 25.33,26.49 24.54,26.62 22.95,26.9 21.61,27.85 20.56,28.96 L 20.61,29.01 Z M 20.61,29.01" />
        </g>
        <g id="ranaSideLeft2-group223">
            <path id="ranaSideLeft2-bezier222" stroke="none" fill="rgb(0, 0, 0)" d="M 8.17,47.24 C 7.71,47.25 7.25,47.31 6.8,47.46 6.35,47.62 5.88,47.88 5.61,48.38 5.4,48.77 5.04,49.24 5.25,49.91 5.37,50.23 5.63,50.44 5.88,50.53 6.13,50.63 6.37,50.67 6.62,50.64 L 6.65,50.57 C 6.29,50.24 5.97,49.93 5.97,49.69 5.94,49.47 6,49.05 6.15,48.63 6.26,48.3 6.58,48 6.95,47.8 7.32,47.58 7.75,47.42 8.18,47.32 L 8.17,47.24 Z M 8.17,47.24" />
        </g>
        <g id="ranaSideLeft2-group224">
            <path id="ranaSideLeft2-bezier223" stroke="none" fill="rgb(0, 0, 0)" d="M 8.15,50.86 C 8.64,51.42 9.42,51.43 10.08,51.43 10.76,51.4 11.43,51.27 12.09,51.1 13.41,50.74 14.64,50.21 15.91,49.79 17.18,49.35 18.46,48.98 19.71,48.51 20.96,48.04 22.19,47.52 23.47,47.16 L 23.47,47.09 C 22.08,47.02 20.77,47.46 19.47,47.79 18.18,48.18 16.94,48.71 15.7,49.23 14.45,49.73 13.24,50.32 11.98,50.74 11.36,50.95 10.72,51.13 10.06,51.21 9.43,51.26 8.68,51.28 8.22,50.82 L 8.15,50.86 Z M 8.15,50.86" />
        </g>
        <g id="ranaSideLeft2-group225">
            <path id="ranaSideLeft2-bezier224" stroke="none" fill="rgb(0, 0, 0)" d="M 12.7,51.36 C 13.43,51.96 14.52,52.18 15.45,51.83 L 18.12,50.98 C 19.01,50.71 19.91,50.52 20.79,50.25 21.67,49.99 22.55,49.74 23.47,49.51 L 23.47,49.44 C 22.52,49.26 21.54,49.35 20.61,49.53 19.68,49.71 18.8,50.07 17.92,50.41 L 15.32,51.48 C 14.52,51.88 13.53,51.79 12.74,51.3 L 12.7,51.36 Z M 12.7,51.36" />
        </g>
        <g id="ranaSideLeft2-group226">
            <path id="ranaSideLeft2-bezier225" stroke="none" fill="rgb(0, 0, 0)" d="M 15.75,41.1 C 15.76,41.92 16.4,42.82 17.37,42.87 18.31,42.93 19.24,42.11 19.26,41.1 19.28,40.61 19.1,40.09 18.75,39.71 18.41,39.33 17.88,39.12 17.37,39.14 16.86,39.15 16.38,39.45 16.11,39.83 15.83,40.22 15.74,40.68 15.75,41.1 Z M 15.82,41.09 C 15.83,40.68 16.08,40.31 16.39,40.12 16.71,39.91 17.06,39.87 17.37,39.89 17.99,39.92 18.61,40.4 18.66,41.09 18.72,41.78 18.12,42.47 17.37,42.49 17.01,42.52 16.62,42.41 16.31,42.16 16,41.91 15.8,41.51 15.82,41.09 Z M 15.82,41.09" />
        </g>
        <g id="ranaSideLeft2-group228">
            <path id="ranaSideLeft2-bezier227" stroke="none" fill="rgb(0, 0, 0)" d="M 14.53,41.53 C 14.69,40.94 14.92,40.37 15.22,39.89 15.38,39.65 15.59,39.47 15.73,39.25 15.87,39.02 16.01,38.8 16.19,38.48 L 16.16,38.42 C 15.79,38.37 15.44,38.52 15.17,38.75 14.9,38.98 14.78,39.32 14.68,39.63 14.46,40.26 14.4,40.9 14.46,41.53 L 14.53,41.53 Z M 14.53,41.53" />
        </g>
        <g id="ranaSideLeft2-group229">
            <path id="ranaSideLeft2-bezier228" stroke="none" fill="rgb(0, 0, 0)" d="M 20.42,41.29 C 20.08,42.13 19.45,42.85 18.7,43.18 18.31,43.34 17.9,43.37 17.5,43.45 17.09,43.53 16.66,43.58 16.17,43.68 L 16.16,43.76 C 16.56,44.05 17.06,44.18 17.56,44.19 18.07,44.21 18.57,43.98 18.98,43.7 19.85,43.15 20.35,42.23 20.49,41.31 L 20.42,41.29 Z M 20.42,41.29" />
        </g>
        <g id="ranaSideLeft2-group230">
            <path id="ranaSideLeft2-bezier229" stroke="none" fill="rgb(0, 0, 0)" d="M 8.21,46.17 C 8.86,45.56 9.44,44.88 9.93,44.13 10.41,43.39 10.83,42.55 10.92,41.62 11.15,39.85 10.93,38.04 11.92,36.56 12.62,34.82 12.81,33 12.69,31.19 12.53,29.4 12.08,27.57 11.04,26.09 L 10.98,26.13 C 11.61,27.78 11.92,29.5 11.95,31.23 11.97,32.94 11.93,34.74 11.37,36.32 11.31,36.48 11.19,36.69 11.09,36.91 11,37.13 10.91,37.35 10.86,37.58 10.74,38.03 10.68,38.49 10.65,38.93 10.6,39.83 10.61,40.71 10.55,41.59 10.51,42.44 10.17,43.26 9.74,44.01 9.3,44.77 8.76,45.48 8.16,46.12 L 8.21,46.17 Z M 8.21,46.17" />
        </g>
        <g id="ranaSideLeft2-group231">
            <path id="ranaSideLeft2-bezier230" stroke="none" fill="rgb(0, 0, 0)" d="M 35.23,28.9 C 36.2,28.81 37.18,28.78 38.13,28.81 38.61,28.83 39.08,28.92 39.55,28.92 40.02,28.91 40.48,28.91 41,28.9 L 41.02,28.83 C 40.63,28.45 40.12,28.27 39.62,28.17 39.12,28.07 38.61,28.15 38.11,28.21 37.12,28.31 36.15,28.53 35.21,28.82 L 35.23,28.9 Z M 35.23,28.9" />
        </g>
        <g id="ranaSideLeft2-group232">
            <path id="ranaSideLeft2-bezier231" stroke="none" fill="rgb(0, 0, 0)" d="M 39.63,33.18 C 40.4,33.38 41.1,33.77 41.73,34.21 42.05,34.44 42.31,34.72 42.64,34.93 42.97,35.13 43.31,35.32 43.73,35.47 L 43.79,35.42 C 43.66,34.99 43.4,34.64 43.11,34.34 42.81,34.04 42.41,33.87 42.04,33.69 41.28,33.34 40.47,33.1 39.64,33.1 L 39.63,33.18 Z M 39.63,33.18" />
        </g>
        <g id="ranaSideLeft2-group233">
            <path id="ranaSideLeft2-bezier232" stroke="none" fill="rgb(0, 0, 0)" d="M 41.69,31.9 C 42.96,32.5 44.2,33.19 45.36,33.96 45.94,34.36 46.46,34.81 47.02,35.21 47.58,35.6 48.12,36.01 48.69,36.46 L 48.75,36.42 C 48.51,35.72 48.02,35.12 47.49,34.63 46.96,34.12 46.3,33.78 45.67,33.45 44.4,32.77 43.08,32.23 41.71,31.82 L 41.69,31.9 Z M 41.69,31.9" />
        </g>
        <g id="ranaSideLeft2-group234">
            <path id="ranaSideLeft2-bezier233" stroke="none" fill="rgb(0, 0, 0)" d="M 107.03,48.89 C 107.42,49.38 107.8,49.87 108.15,50.37 108.32,50.62 108.45,50.9 108.66,51.11 108.87,51.32 109.09,51.51 109.39,51.71 L 109.46,51.68 C 109.53,51.31 109.41,50.96 109.27,50.67 109.11,50.38 108.84,50.18 108.6,49.97 108.13,49.54 107.62,49.16 107.08,48.83 L 107.03,48.89 Z M 107.03,48.89" />
        </g>
        <g id="ranaSideLeft2-group235">
            <path id="ranaSideLeft2-bezier234" stroke="none" fill="rgb(0, 0, 0)" d="M 101.07,45.33 C 101.88,46.04 102.67,46.77 103.45,47.5 103.83,47.87 104.17,48.28 104.58,48.61 104.97,48.95 105.41,49.22 105.76,49.62 L 105.84,49.6 C 105.86,49.29 105.72,49.01 105.59,48.76 105.45,48.5 105.28,48.28 105.1,48.07 104.74,47.65 104.27,47.35 103.83,47.04 102.96,46.39 102.05,45.81 101.11,45.27 L 101.07,45.33 Z M 101.07,45.33" />
        </g>
        <g id="ranaSideLeft2-group236">
            <path id="ranaSideLeft2-bezier235" stroke="none" fill="rgb(0, 0, 0)" d="M 95.85,45.33 C 96.64,45.67 97.44,45.98 98.24,46.26 98.65,46.41 99.04,46.6 99.47,46.65 99.89,46.7 100.34,46.73 100.8,46.59 L 100.81,46.51 C 100.43,46.25 100.04,46.07 99.64,45.92 99.25,45.78 98.82,45.75 98.4,45.68 97.56,45.53 96.72,45.39 95.88,45.26 L 95.85,45.33 Z M 95.85,45.33" />
        </g>
        <g id="ranaSideLeft2-group237">
            <path id="ranaSideLeft2-bezier236" stroke="none" fill="rgb(0, 0, 0)" d="M 107.03,46.58 C 107.57,47.14 108.12,47.7 108.67,48.24 108.94,48.52 109.18,48.83 109.49,49.05 109.81,49.28 110.15,49.45 110.52,49.63 L 110.58,49.59 C 110.51,49.13 110.24,48.8 109.99,48.5 109.73,48.19 109.38,48 109.06,47.78 108.41,47.33 107.75,46.91 107.08,46.52 L 107.03,46.58 Z M 107.03,46.58" />
        </g>
        <g id="ranaSideLeft2-group238">
            <path id="ranaSideLeft2-bezier237" stroke="none" fill="rgb(0, 0, 0)" d="M 103.78,42.02 C 104.41,42.6 105.03,43.18 105.64,43.77 105.94,44.07 106.2,44.4 106.54,44.65 106.88,44.9 107.22,45.13 107.65,45.32 L 107.71,45.27 C 107.59,44.81 107.33,44.44 107.05,44.1 106.76,43.77 106.38,43.55 106.02,43.31 105.32,42.81 104.58,42.36 103.82,41.95 L 103.78,42.02 Z M 103.78,42.02" />
        </g>
        <g id="ranaSideLeft2-group239">
            <path id="ranaSideLeft2-bezier238" stroke="none" fill="rgb(0, 0, 0)" d="M 106.73,42.6 C 107.41,43.03 108.09,43.46 108.75,43.9 109.08,44.12 109.38,44.39 109.74,44.56 110.1,44.72 110.46,44.87 110.9,44.95 L 110.95,44.89 C 110.75,44.49 110.45,44.18 110.14,43.92 109.81,43.66 109.42,43.53 109.04,43.37 108.3,43.04 107.53,42.76 106.75,42.53 L 106.73,42.6 Z M 106.73,42.6" />
        </g>
        <g id="ranaSideLeft2-group240">
            <path id="ranaSideLeft2-bezier239" stroke="none" fill="rgb(0, 0, 0)" d="M 108.25,41.31 C 108.91,41.19 109.59,41.16 110.21,41.23 110.53,41.27 110.82,41.39 111.11,41.41 111.41,41.44 111.7,41.48 112.09,41.52 L 112.14,41.46 C 111.98,41.09 111.66,40.84 111.31,40.69 110.96,40.54 110.57,40.59 110.21,40.63 109.5,40.7 108.83,40.91 108.23,41.24 L 108.25,41.31 Z M 108.25,41.31" />
        </g>
        <g id="ranaSideLeft2-group241">
            <path id="ranaSideLeft2-bezier240" stroke="none" fill="rgb(0, 0, 0)" d="M 7.53,49.89 C 7.78,49.83 8.02,49.7 8.21,49.48 8.31,49.38 8.44,49.24 8.42,49.07 8.39,48.9 8.27,48.73 8.05,48.68 L 7.97,48.7 7.67,48.98 C 7.61,49.04 7.68,49.12 7.68,49.21 7.66,49.39 7.59,49.61 7.49,49.83 L 7.53,49.89 Z M 7.53,49.89" />
        </g>
        <g id="ranaSideLeft2-group242">
            <path id="ranaSideLeft2-bezier241" stroke="none" fill="rgb(0, 0, 0)" d="M 50.3,34.9 C 51.52,35.13 52.69,35.57 53.74,36.16 54.26,36.46 54.72,36.85 55.22,37.18 55.72,37.5 56.2,37.86 56.74,38.22 L 56.8,38.17 C 56.57,37.55 56.16,37.02 55.68,36.59 55.2,36.14 54.6,35.87 54,35.62 52.82,35.12 51.56,34.84 50.3,34.82 L 50.3,34.9 Z M 50.3,34.9" />
        </g>
        <g id="ranaSideLeft2-group243">
            <path id="ranaSideLeft2-bezier242" stroke="none" fill="rgb(0, 0, 0)" d="M 57.46,35.48 C 58.91,35.8 60.34,36.22 61.69,36.78 62.36,37.08 62.98,37.44 63.61,37.77 64.25,38.09 64.84,38.45 65.44,38.92 L 65.5,38.88 C 65.22,38.14 64.63,37.56 64,37.12 63.36,36.68 62.61,36.44 61.89,36.22 60.45,35.77 58.96,35.51 57.47,35.41 L 57.46,35.48 Z M 57.46,35.48" />
        </g>
        <g id="ranaSideLeft2-group244">
            <path id="ranaSideLeft2-bezier243" stroke="none" fill="rgb(0, 0, 0)" d="M 59.95,37.56 C 60.97,38.19 61.95,38.87 62.87,39.6 63.32,39.98 63.72,40.41 64.16,40.77 64.6,41.14 65.03,41.49 65.43,41.96 L 65.5,41.93 C 65.47,41.28 65.09,40.7 64.69,40.23 64.27,39.76 63.74,39.44 63.22,39.12 62.19,38.47 61.11,37.93 59.99,37.49 L 59.95,37.56 Z M 59.95,37.56" />
        </g>
        <g id="ranaSideLeft2-group245">
            <path id="ranaSideLeft2-bezier244" stroke="none" fill="rgb(0, 0, 0)" d="M 67.86,39.77 C 68.67,40.48 69.4,41.26 70.08,42.07 70.41,42.48 70.69,42.93 71.04,43.32 71.4,43.71 71.75,44.09 72.19,44.46 L 72.25,44.43 C 72.17,43.85 71.93,43.34 71.64,42.87 71.35,42.39 70.92,42.03 70.52,41.66 69.72,40.91 68.85,40.25 67.91,39.7 L 67.86,39.77 Z M 67.86,39.77" />
        </g>
        <g id="ranaSideLeft2-group246">
            <path id="ranaSideLeft2-bezier245" stroke="none" fill="rgb(0, 0, 0)" d="M 70.97,40.77 C 71.98,41.57 73.07,42.27 74.23,42.86 74.81,43.15 75.4,43.46 76.06,43.6 76.71,43.72 77.4,43.77 78.05,43.56 L 78.05,43.49 C 77.42,43.28 76.84,43.09 76.26,42.87 75.68,42.66 75.07,42.52 74.47,42.31 73.29,41.86 72.13,41.32 71.01,40.7 L 70.97,40.77 Z M 70.97,40.77" />
        </g>
        <g id="ranaSideLeft2-group247">
            <path id="ranaSideLeft2-bezier246" stroke="none" fill="rgb(0, 0, 0)" d="M 78.04,42.6 C 79.39,43.29 80.73,44 82.05,44.73 82.7,45.11 83.32,45.53 83.99,45.87 84.63,46.24 85.35,46.5 85.85,47.02 L 85.92,47 C 85.86,46.57 85.55,46.26 85.28,45.98 85,45.69 84.69,45.46 84.37,45.23 83.73,44.79 83.02,44.51 82.32,44.2 80.92,43.58 79.5,43.03 78.07,42.54 L 78.04,42.6 Z M 78.04,42.6" />
        </g>
        <g id="ranaSideLeft2-group248">
            <path id="ranaSideLeft2-bezier247" stroke="none" fill="rgb(0, 0, 0)" d="M 82.8,42.79 C 83.32,43.14 83.82,43.65 84.33,44.07 84.85,44.51 85.38,44.93 85.93,45.33 86.48,45.74 87.04,46.16 87.7,46.41 88.35,46.65 89.11,46.83 89.8,46.58 L 89.8,46.51 C 89.14,46.34 88.59,46.04 88.01,45.73 87.45,45.42 86.84,45.16 86.26,44.83 85.68,44.5 85.11,44.14 84.55,43.77 83.97,43.43 83.46,43.01 82.8,42.71 L 82.8,42.79 Z M 82.8,42.79" />
        </g>
        <g id="ranaSideLeft2-group249">
            <path id="ranaSideLeft2-bezier248" stroke="none" fill="rgb(0, 0, 0)" d="M 86.88,44.05 C 87.89,44.36 88.9,44.68 89.89,45.02 90.39,45.2 90.86,45.43 91.36,45.56 91.86,45.69 92.35,45.77 92.86,45.95 L 92.91,45.9 C 92.63,45.36 92.09,45.09 91.61,44.85 91.12,44.62 90.58,44.55 90.05,44.44 89,44.23 87.95,44.08 86.89,43.98 L 86.88,44.05 Z M 86.88,44.05" />
        </g>
        <g id="ranaSideLeft2-group250">
            <path id="ranaSideLeft2-bezier249" stroke="none" fill="rgb(0, 0, 0)" d="M 81.95,38.94 C 83.26,39.56 84.57,40.18 85.85,40.82 86.5,41.15 87.11,41.53 87.77,41.8 88.43,42.08 89.09,42.33 89.78,42.6 L 89.82,42.54 C 89.37,41.93 88.73,41.51 88.11,41.13 87.47,40.76 86.78,40.53 86.1,40.28 84.74,39.75 83.37,39.29 81.98,38.87 L 81.95,38.94 Z M 81.95,38.94" />
        </g>
        <g id="ranaSideLeft2-group251">
            <path id="ranaSideLeft2-bezier250" stroke="none" fill="rgb(0, 0, 0)" d="M 91.13,41.52 L 94.97,42.72 C 95.61,42.92 96.23,43.18 96.88,43.33 97.53,43.47 98.18,43.59 98.87,43.67 L 98.9,43.61 C 98.36,43.14 97.73,42.86 97.1,42.61 96.46,42.37 95.79,42.27 95.12,42.14 93.8,41.86 92.48,41.63 91.14,41.45 L 91.13,41.52 Z M 91.13,41.52" />
        </g>
        <g id="ranaSideLeft2-group252">
            <path id="ranaSideLeft2-bezier251" stroke="none" fill="rgb(0, 0, 0)" d="M 98.33,41.24 C 99.44,41.55 100.54,41.91 101.58,42.35 102.1,42.58 102.57,42.87 103.06,43.1 103.54,43.35 104,43.57 104.37,44.03 L 104.44,44.01 C 104.45,43.34 103.92,42.81 103.44,42.46 102.94,42.1 102.34,41.94 101.78,41.78 100.65,41.45 99.5,41.26 98.34,41.17 L 98.33,41.24 Z M 98.33,41.24" />
        </g>
        <g id="ranaSideLeft2-group253">
            <path id="ranaSideLeft2-bezier252" stroke="none" fill="rgb(0, 0, 0)" d="M 105.3,37.56 C 106.38,37.79 107.45,38.02 108.51,38.28 109.04,38.42 109.55,38.61 110.08,38.7 L 111.7,38.93 111.74,38.87 C 111.35,38.41 110.79,38.16 110.27,37.97 109.74,37.78 109.17,37.75 108.62,37.69 107.51,37.56 106.41,37.5 105.31,37.49 L 105.3,37.56 Z M 105.3,37.56" />
        </g>
        <g id="ranaSideLeft2-group254">
            <path id="ranaSideLeft2-bezier253" stroke="none" fill="rgb(0, 0, 0)" d="M 102.97,31.9 C 104.18,31.98 105.39,32.06 106.59,32.17 107.19,32.23 107.79,32.35 108.38,32.36 108.98,32.38 109.57,32.33 110.16,32.42 L 110.2,32.36 C 109.98,32.1 109.66,31.97 109.37,31.85 109.07,31.74 108.76,31.67 108.46,31.61 107.84,31.5 107.23,31.55 106.61,31.57 105.39,31.59 104.18,31.68 102.97,31.82 L 102.97,31.9 Z M 102.97,31.9" />
        </g>
        <g id="ranaSideLeft2-group255">
            <path id="ranaSideLeft2-bezier254" stroke="none" fill="rgb(0, 0, 0)" d="M 97.61,27.12 C 98.58,26.64 99.55,26.19 100.53,25.79 101.03,25.6 101.54,25.46 102.01,25.24 L 103.45,24.56 103.45,24.49 C 102.88,24.31 102.29,24.4 101.76,24.54 101.22,24.68 100.74,24.98 100.27,25.25 99.32,25.78 98.43,26.39 97.57,27.06 L 97.61,27.12 Z M 97.61,27.12" />
        </g>
        <g id="ranaSideLeft2-group256">
            <path id="ranaSideLeft2-bezier255" stroke="none" fill="rgb(0, 0, 0)" d="M 90.36,21.81 L 93.68,20.38 C 94.23,20.15 94.81,19.97 95.33,19.69 95.86,19.42 96.35,19.08 96.88,18.81 L 96.88,18.74 C 96.22,18.61 95.61,18.82 95.03,19 94.45,19.2 93.94,19.54 93.41,19.84 92.36,20.44 91.33,21.07 90.33,21.74 L 90.36,21.81 Z M 90.36,21.81" />
        </g>
        <g id="ranaSideLeft2-group257">
            <path id="ranaSideLeft2-bezier256" stroke="none" fill="rgb(0, 0, 0)" d="M 81.99,18.8 C 82.99,18.03 83.95,17.22 84.87,16.36 85.34,15.94 85.84,15.53 86.22,15.01 86.4,14.75 86.59,14.49 86.73,14.19 86.85,13.89 87.05,13.56 86.92,13.18 L 86.85,13.2 C 86.59,13.7 86.05,14.08 85.64,14.53 85.21,14.96 84.85,15.47 84.44,15.95 83.63,16.88 82.79,17.82 81.94,18.75 L 81.99,18.8 Z M 81.99,18.8" />
        </g>
        <g id="ranaSideLeft2-group258">
            <path id="ranaSideLeft2-bezier257" stroke="none" fill="rgb(0, 0, 0)" d="M 73.83,16.01 C 74.67,15.42 75.49,14.78 76.27,14.09 76.67,13.75 77.09,13.43 77.4,13 77.7,12.57 77.99,12.1 78.08,11.55 L 78.02,11.51 C 77.58,11.83 77.21,12.16 76.84,12.51 76.47,12.85 76.18,13.28 75.85,13.67 75.17,14.44 74.48,15.2 73.78,15.96 L 73.83,16.01 Z M 73.83,16.01" />
        </g>
        <g id="ranaSideLeft2-group259">
            <path id="ranaSideLeft2-bezier258" stroke="none" fill="rgb(0, 0, 0)" d="M 65.49,16.02 C 66.42,15.52 67.32,14.95 68.16,14.28 68.58,13.95 69.03,13.63 69.35,13.16 69.64,12.71 69.94,12.11 69.76,11.53 L 69.68,11.53 C 69.45,12.01 69.1,12.33 68.76,12.69 68.41,13.04 68.12,13.46 67.76,13.84 67.04,14.58 66.25,15.28 65.45,15.95 L 65.49,16.02 Z M 65.49,16.02" />
        </g>
        <g id="ranaSideLeft2-group260">
            <path id="ranaSideLeft2-bezier259" stroke="none" fill="rgb(0, 0, 0)" d="M 62.75,16.47 C 63.46,15.84 64.1,15.13 64.66,14.34 64.94,13.94 65.24,13.53 65.35,13.02 65.46,12.54 65.47,11.91 65.09,11.51 L 65.02,11.54 C 64.98,12.03 64.81,12.39 64.64,12.79 64.46,13.18 64.34,13.61 64.14,14.03 63.73,14.85 63.23,15.65 62.69,16.42 L 62.75,16.47 Z M 62.75,16.47" />
        </g>
        <g id="ranaSideLeft2-group261">
            <path id="ranaSideLeft2-bezier260" stroke="none" fill="rgb(0, 0, 0)" d="M 57.5,16.8 C 58.17,16.05 58.84,15.31 59.52,14.59 59.87,14.24 60.26,13.92 60.56,13.55 60.88,13.17 61.14,12.78 61.48,12.4 L 61.45,12.33 C 60.88,12.36 60.43,12.7 60.03,13.02 59.63,13.35 59.36,13.79 59.06,14.21 58.47,15.03 57.93,15.88 57.44,16.76 L 57.5,16.8 Z M 57.5,16.8" />
        </g>
        <g id="ranaSideLeft2-group262">
            <path id="ranaSideLeft2-bezier261" stroke="none" fill="rgb(0, 0, 0)" d="M 50.32,17.14 C 51.67,16.33 52.97,15.43 54.21,14.44 54.82,13.94 55.46,13.45 55.96,12.81 56.21,12.48 56.44,12.14 56.61,11.76 56.78,11.39 56.92,10.94 56.81,10.53 L 56.74,10.53 C 56.49,11.26 55.91,11.76 55.4,12.31 54.86,12.85 54.36,13.44 53.81,13.99 52.69,15.06 51.5,16.09 50.28,17.08 L 50.32,17.14 Z M 50.32,17.14" />
        </g>
        <g id="ranaSideLeft2-group263">
            <path id="ranaSideLeft2-bezier262" stroke="none" fill="rgb(0, 0, 0)" d="M 46.93,15.05 C 47.64,14.41 48.32,13.75 48.96,13.05 49.29,12.71 49.65,12.38 49.9,11.96 50.12,11.54 50.39,11.1 50.34,10.53 L 50.27,10.52 C 49.95,10.87 49.6,11.17 49.29,11.52 48.98,11.87 48.76,12.28 48.5,12.67 L 46.88,15 46.93,15.05 Z M 46.93,15.05" />
        </g>
        <g id="ranaSideLeft2-group264">
            <path id="ranaSideLeft2-bezier263" stroke="none" fill="rgb(0, 0, 0)" d="M 41.95,16.81 L 44.5,15.08 C 44.93,14.8 45.39,14.56 45.77,14.24 46.17,13.92 46.51,13.55 46.91,13.23 L 46.9,13.16 C 46.3,13.11 45.81,13.38 45.35,13.62 44.89,13.88 44.52,14.25 44.14,14.6 43.36,15.28 42.62,16 41.9,16.75 L 41.95,16.81 Z M 41.95,16.81" />
        </g>
        <g id="ranaSideLeft2-group265">
            <path id="ranaSideLeft2-bezier264" stroke="none" fill="rgb(0, 0, 0)" d="M 39.79,16.47 C 40.37,15.91 40.77,15.18 41.04,14.42 41.18,14.04 41.33,13.65 41.33,13.23 41.32,12.83 41.25,12.41 41.05,12.03 L 40.97,12.03 C 40.77,12.42 40.68,12.79 40.58,13.15 40.49,13.52 40.51,13.89 40.46,14.27 40.33,15 40.13,15.75 39.73,16.42 L 39.79,16.47 Z M 39.79,16.47" />
        </g>
        <g id="ranaSideLeft2-group266">
            <path id="ranaSideLeft2-bezier265" stroke="none" fill="rgb(0, 0, 0)" d="M 34.08,19.55 C 34.99,18.81 35.86,18.02 36.67,17.15 37.08,16.72 37.52,16.3 37.81,15.76 38.1,15.24 38.36,14.63 38.3,13.99 L 38.22,13.98 C 37.9,14.48 37.54,14.9 37.19,15.35 36.84,15.79 36.55,16.29 36.21,16.77 35.52,17.7 34.79,18.61 34.02,19.5 L 34.08,19.55 Z M 34.08,19.55" />
        </g>
        <g id="ranaSideLeft2-group267">
            <path id="ranaSideLeft2-bezier266" stroke="none" fill="rgb(0, 0, 0)" d="M 33.76,17.12 C 33.98,16.48 34.16,15.83 34.26,15.16 34.32,14.82 34.41,14.47 34.33,14.12 34.26,13.78 34.11,13.38 33.75,13.17 L 33.69,13.21 33.59,14.18 C 33.56,14.48 33.64,14.8 33.66,15.12 33.69,15.77 33.69,16.44 33.68,17.1 L 33.76,17.12 Z M 33.76,17.12" />
        </g>
        <g id="ranaSideLeft2-group268">
            <path id="ranaSideLeft2-bezier267" stroke="none" fill="rgb(0, 0, 0)" d="M 30.56,21.34 C 31.2,20.46 31.72,19.48 32.04,18.4 32.21,17.87 32.36,17.31 32.31,16.73 32.25,16.15 32.06,15.57 31.67,15.14 L 31.6,15.16 C 31.6,15.74 31.6,16.23 31.56,16.74 31.52,17.24 31.54,17.75 31.46,18.27 31.28,19.29 30.95,20.32 30.49,21.3 L 30.56,21.34 Z M 30.56,21.34" />
        </g>
        <g id="ranaSideLeft2-group269">
            <path id="ranaSideLeft2-bezier268" stroke="none" fill="rgb(0, 0, 0)" d="M 27.4,20.31 C 28.11,19.97 28.77,19.54 29.36,19 29.66,18.73 29.98,18.45 30.15,18.05 30.3,17.66 30.38,17.18 30.17,16.78 L 30.1,16.78 C 29.88,17.15 29.7,17.41 29.49,17.69 29.28,17.96 29.13,18.29 28.92,18.59 28.47,19.18 27.94,19.73 27.36,20.25 L 27.4,20.31 Z M 27.4,20.31" />
        </g>
        <g id="ranaSideLeft2-group270">
            <path id="ranaSideLeft2-bezier269" stroke="none" fill="rgb(0, 0, 0)" d="M 24.32,23.36 C 24.53,22.41 24.83,21.47 25.23,20.62 25.45,20.19 25.72,19.82 25.94,19.43 26.16,19.03 26.4,18.67 26.73,18.27 L 26.7,18.2 C 26.16,18.25 25.67,18.59 25.33,18.99 24.98,19.4 24.82,19.91 24.67,20.4 24.37,21.37 24.24,22.37 24.24,23.36 L 24.32,23.36 Z M 24.32,23.36" />
        </g>
        <g id="ranaSideLeft2-group271">
            <path id="ranaSideLeft2-bezier270" stroke="none" fill="rgb(0, 0, 0)" d="M 83.74,21.35 C 84.87,20.54 85.94,19.66 86.95,18.7 87.46,18.22 87.99,17.75 88.39,17.16 88.77,16.57 89.13,15.9 89.17,15.16 L 89.1,15.14 C 88.68,15.71 88.24,16.19 87.79,16.7 87.35,17.2 86.96,17.76 86.52,18.28 85.62,19.32 84.67,20.32 83.69,21.29 L 83.74,21.35 Z M 83.74,21.35" />
        </g>
        <g id="ranaSideLeft2-group272">
            <path id="ranaSideLeft2-bezier271" stroke="none" fill="rgb(0, 0, 0)" d="M 94.2,24.07 C 94.84,23.65 95.54,23.34 96.23,23.11 96.59,23 96.96,22.96 97.29,22.82 97.63,22.68 97.97,22.55 98.34,22.31 L 98.33,22.24 C 97.93,22.07 97.51,22.04 97.11,22.1 96.7,22.15 96.34,22.36 96,22.55 95.29,22.93 94.66,23.42 94.15,24.02 L 94.2,24.07 Z M 94.2,24.07" />
        </g>
        <g id="ranaSideLeft2-group273">
            <path id="ranaSideLeft2-bezier272" stroke="none" fill="rgb(0, 0, 0)" d="M 95.88,29.56 C 97.44,29.22 99.02,28.92 100.59,28.67 101.38,28.56 102.18,28.51 102.95,28.39 103.73,28.27 104.49,28.12 105.29,28.14 L 105.31,28.07 C 104.57,27.64 103.68,27.63 102.88,27.64 102.05,27.67 101.26,27.89 100.48,28.08 98.91,28.46 97.37,28.94 95.85,29.49 L 95.88,29.56 Z M 95.88,29.56" />
        </g>
        <g id="ranaSideLeft2-group274">
            <path id="ranaSideLeft2-bezier273" stroke="none" fill="rgb(0, 0, 0)" d="M 101.36,34.19 C 102.47,34.54 103.6,34.84 104.75,35.06 105.32,35.18 105.89,35.32 106.49,35.31 107.08,35.29 107.7,35.21 108.25,34.9 L 108.23,34.82 106.53,34.56 C 105.97,34.48 105.4,34.5 104.83,34.46 103.68,34.38 102.53,34.26 101.38,34.12 L 101.36,34.19 Z M 101.36,34.19" />
        </g>
        <g id="ranaSideLeft2-group275">
            <path id="ranaSideLeft2-bezier274" stroke="none" fill="rgb(0, 0, 0)" d="M 67.87,37.21 C 69.07,37.98 70.34,38.63 71.68,39.17 72.34,39.44 73.02,39.73 73.74,39.84 74.46,39.94 75.21,39.97 75.93,39.77 L 75.93,39.7 C 75.23,39.48 74.57,39.3 73.9,39.11 73.24,38.91 72.55,38.79 71.87,38.6 70.53,38.21 69.2,37.72 67.91,37.14 L 67.87,37.21 Z M 67.87,37.21" />
        </g>
        <g id="ranaSideLeft2-group276">
            <path id="ranaSideLeft2-bezier275" stroke="none" fill="rgb(0, 0, 0)" d="M 73.82,17.89 C 75.16,17.36 76.52,16.85 77.88,16.4 78.57,16.19 79.26,16.03 79.93,15.8 80.6,15.57 81.25,15.33 81.96,15.19 L 81.97,15.11 C 81.24,14.84 80.45,14.94 79.73,15.08 79,15.22 78.33,15.55 77.67,15.84 76.33,16.43 75.04,17.09 73.79,17.83 L 73.82,17.89 Z M 73.82,17.89" />
        </g>
        <g id="ranaSideLeft2-group277">
            <path id="ranaSideLeft2-bezier276" stroke="none" fill="rgb(0, 0, 0)" d="M 80.23,27.13 C 81.98,26.85 83.72,26.52 85.45,26.13 86.32,25.93 87.2,25.77 88.04,25.45 88.45,25.29 88.87,25.12 89.27,24.9 89.66,24.68 90.08,24.45 90.37,24.07 L 90.32,24.02 C 89.52,24.35 88.65,24.5 87.81,24.74 86.96,24.96 86.14,25.28 85.3,25.55 83.61,26.07 81.91,26.57 80.21,27.05 L 80.23,27.13 Z M 80.23,27.13" />
        </g>
        <g id="ranaSideLeft2-group278">
            <path id="ranaSideLeft2-bezier277" stroke="none" fill="rgb(0, 0, 0)" d="M 86.44,28.9 L 90.06,28.05 C 90.66,27.92 91.28,27.85 91.86,27.66 92.45,27.5 93.01,27.26 93.61,27.13 L 93.62,27.05 C 93.31,26.89 92.97,26.88 92.65,26.87 92.33,26.85 92.01,26.89 91.7,26.93 91.07,27.02 90.48,27.26 89.9,27.47 88.71,27.87 87.56,28.33 86.41,28.82 L 86.44,28.9 Z M 86.44,28.9" />
        </g>
        <g id="ranaSideLeft2-group279">
            <path id="ranaSideLeft2-bezier278" stroke="none" fill="rgb(0, 0, 0)" d="M 91.14,34.19 C 91.75,34.12 92.33,33.97 92.92,33.83 93.5,33.67 94.08,33.49 94.66,33.3 95.23,33.11 95.83,32.94 96.35,32.61 96.62,32.44 96.87,32.26 97.1,32.03 97.32,31.81 97.55,31.54 97.63,31.21 L 97.56,31.18 C 97.08,31.52 96.54,31.7 96,31.94 95.47,32.17 94.97,32.48 94.43,32.75 93.9,33 93.35,33.25 92.8,33.47 92.25,33.71 91.7,33.95 91.13,34.12 L 91.14,34.19 Z M 91.14,34.19" />
        </g>
        <g id="ranaSideLeft2-group280">
            <path id="ranaSideLeft2-bezier279" stroke="none" fill="rgb(0, 0, 0)" d="M 97.61,38.49 C 98.73,37.98 99.87,37.51 101.01,37.08 101.58,36.88 102.17,36.74 102.72,36.51 103.27,36.29 103.8,36.05 104.4,35.9 L 104.41,35.82 C 103.79,35.56 103.1,35.66 102.49,35.8 101.87,35.94 101.32,36.25 100.77,36.54 99.66,37.09 98.6,37.73 97.58,38.42 L 97.61,38.49 Z M 97.61,38.49" />
        </g>
        <g id="ranaSideLeft2-group281">
            <path id="ranaSideLeft2-bezier280" stroke="none" fill="rgb(0, 0, 0)" d="M 102.22,39.73 C 103.13,39.9 104.05,40.02 104.98,40.07 105.45,40.11 105.92,40.17 106.39,40.08 106.84,39.97 107.38,39.84 107.7,39.39 L 107.66,39.33 C 107.19,39.38 106.77,39.32 106.32,39.33 105.87,39.33 105.43,39.43 104.97,39.47 104.06,39.55 103.14,39.61 102.22,39.66 L 102.22,39.73 Z M 102.22,39.73" />
        </g>
        <g id="ranaSideLeft2-group282">
            <path id="ranaSideLeft2-bezier281" stroke="none" fill="rgb(0, 0, 0)" d="M 85.27,36.48 C 86.82,36.83 88.37,37.15 89.93,37.42 90.7,37.57 91.48,37.75 92.28,37.78 93.07,37.8 93.88,37.81 94.68,37.56 L 94.67,37.49 C 93.89,37.33 93.13,37.15 92.35,37.03 91.58,36.9 90.79,36.89 90,36.83 L 85.29,36.41 85.27,36.48 Z M 85.27,36.48" />
        </g>
        <g id="ranaSideLeft2-group283">
            <path id="ranaSideLeft2-bezier282" stroke="none" fill="rgb(0, 0, 0)" d="M 73.79,34.59 C 74.22,34.92 74.58,35.43 74.96,35.86 75.35,36.31 75.74,36.75 76.14,37.18 76.54,37.62 76.93,38.08 77.45,38.41 77.7,38.57 77.97,38.73 78.27,38.84 78.56,38.94 78.9,39.03 79.22,38.94 L 79.22,38.86 C 78.7,38.6 78.33,38.19 77.9,37.82 77.49,37.43 77,37.11 76.55,36.74 76.11,36.37 75.67,35.99 75.23,35.6 74.76,35.24 74.37,34.8 73.81,34.52 L 73.79,34.59 Z M 73.79,34.59" />
        </g>
        <g id="ranaSideLeft2-group284">
            <path id="ranaSideLeft2-bezier283" stroke="none" fill="rgb(0, 0, 0)" d="M 79.8,33.56 C 81.3,33.41 82.77,33.2 84.25,33.03 84.99,32.95 85.73,32.92 86.46,32.79 87.18,32.67 87.9,32.46 88.62,32.43 L 88.65,32.36 C 88.3,32.13 87.89,32.1 87.51,32.06 87.13,32.02 86.75,32.03 86.37,32.04 85.61,32.08 84.88,32.27 84.15,32.43 L 81.96,32.93 79.8,33.49 79.8,33.56 Z M 79.8,33.56" />
        </g>
        <g id="ranaSideLeft2-group285">
            <path id="ranaSideLeft2-bezier284" stroke="none" fill="rgb(0, 0, 0)" d="M 77.9,30.64 C 78.73,30.3 79.56,29.97 80.38,29.67 80.8,29.53 81.23,29.44 81.62,29.25 82.01,29.08 82.36,28.86 82.79,28.72 L 82.81,28.64 C 82.35,28.36 81.82,28.46 81.38,28.54 80.92,28.65 80.53,28.9 80.14,29.12 79.34,29.56 78.59,30.05 77.87,30.58 L 77.9,30.64 Z M 77.9,30.64" />
        </g>
        <g id="ranaSideLeft2-group286">
            <path id="ranaSideLeft2-bezier285" stroke="none" fill="rgb(0, 0, 0)" d="M 77.9,25.06 C 78.87,24.76 79.85,24.49 80.82,24.26 81.31,24.16 81.81,24.12 82.28,24 82.75,23.88 83.19,23.73 83.7,23.73 L 83.73,23.66 C 83.3,23.25 82.67,23.23 82.16,23.25 81.62,23.29 81.14,23.5 80.65,23.69 79.68,24.05 78.76,24.49 77.87,24.99 L 77.9,25.06 Z M 77.9,25.06" />
        </g>
        <g id="ranaSideLeft2-group287">
            <path id="ranaSideLeft2-bezier286" stroke="none" fill="rgb(0, 0, 0)" d="M 73.83,22.81 C 74.7,22.18 75.59,21.57 76.5,21.02 76.95,20.75 77.44,20.53 77.86,20.25 78.3,19.99 78.69,19.67 79.21,19.56 L 79.23,19.49 C 78.97,19.31 78.63,19.31 78.35,19.35 78.05,19.39 77.78,19.48 77.52,19.59 76.99,19.81 76.57,20.18 76.15,20.53 75.3,21.21 74.51,21.96 73.78,22.75 L 73.83,22.81 Z M 73.83,22.81" />
        </g>
        <g id="ranaSideLeft2-group288">
            <path id="ranaSideLeft2-bezier287" stroke="none" fill="rgb(0, 0, 0)" d="M 64.49,20.31 C 65.66,19.66 66.81,18.96 67.91,18.19 68.47,17.81 69.05,17.45 69.52,16.95 69.76,16.7 69.99,16.44 70.18,16.15 70.37,15.86 70.56,15.53 70.59,15.16 L 70.52,15.14 C 70.07,15.63 69.53,15.98 69.02,16.4 68.5,16.8 68.04,17.28 67.54,17.71 66.53,18.57 65.5,19.42 64.45,20.25 L 64.49,20.31 Z M 64.49,20.31" />
        </g>
        <g id="ranaSideLeft2-group289">
            <path id="ranaSideLeft2-bezier288" stroke="none" fill="rgb(0, 0, 0)" d="M 34.76,25.84 C 36.15,25.3 37.54,24.8 38.95,24.35 39.66,24.14 40.38,23.98 41.07,23.75 41.76,23.54 42.43,23.28 43.17,23.2 L 43.19,23.12 C 42.45,22.79 41.62,22.9 40.88,23.03 40.13,23.17 39.44,23.49 38.75,23.79 37.36,24.37 36.02,25.04 34.72,25.77 L 34.76,25.84 Z M 34.76,25.84" />
        </g>
        <g id="ranaSideLeft2-group290">
            <path id="ranaSideLeft2-bezier289" stroke="none" fill="rgb(0, 0, 0)" d="M 32.65,23.39 C 33.75,22.84 34.82,22.23 35.85,21.56 36.37,21.22 36.92,20.91 37.36,20.46 37.58,20.23 37.8,20 37.97,19.72 38.14,19.45 38.32,19.14 38.3,18.78 L 38.22,18.77 C 37.86,19.23 37.33,19.53 36.87,19.9 36.39,20.25 35.96,20.68 35.5,21.07 34.56,21.84 33.59,22.59 32.62,23.33 L 32.65,23.39 Z M 32.65,23.39" />
        </g>
        <g id="ranaSideLeft2-group291">
            <path id="ranaSideLeft2-bezier290" stroke="none" fill="rgb(0, 0, 0)" d="M 40.4,21.17 L 44.01,19.52 C 44.61,19.26 45.24,19.04 45.81,18.73 46.39,18.42 46.93,18.07 47.52,17.75 L 47.51,17.68 C 46.79,17.6 46.13,17.83 45.5,18.04 44.87,18.28 44.31,18.65 43.74,18.98 42.59,19.65 41.46,20.36 40.37,21.1 L 40.4,21.17 Z M 40.4,21.17" />
        </g>
        <g id="ranaSideLeft2-group292">
            <path id="ranaSideLeft2-bezier291" stroke="none" fill="rgb(0, 0, 0)" d="M 48.32,21.81 C 49.39,21.22 50.42,20.58 51.42,19.88 51.92,19.53 52.44,19.2 52.86,18.74 53.27,18.28 53.67,17.76 53.83,17.13 L 53.77,17.09 52.35,18.19 C 51.89,18.56 51.49,19 51.04,19.41 50.15,20.21 49.22,20.98 48.28,21.75 L 48.32,21.81 Z M 48.32,21.81" />
        </g>
        <g id="ranaSideLeft2-group293">
            <path id="ranaSideLeft2-bezier292" stroke="none" fill="rgb(0, 0, 0)" d="M 42.19,26.81 C 43.45,26.31 44.71,25.82 45.97,25.36 46.6,25.14 47.25,24.98 47.86,24.72 48.48,24.49 49.06,24.15 49.7,24.08 L 49.73,24.01 C 49.4,23.8 49.01,23.82 48.66,23.83 48.31,23.85 47.96,23.93 47.63,24.01 46.96,24.18 46.35,24.51 45.74,24.81 44.51,25.4 43.32,26.05 42.16,26.75 L 42.19,26.81 Z M 42.19,26.81" />
        </g>
        <g id="ranaSideLeft2-group294">
            <path id="ranaSideLeft2-bezier293" stroke="none" fill="rgb(0, 0, 0)" d="M 43.73,29.66 C 44.14,29.78 44.49,29.66 44.86,29.63 45.22,29.58 45.58,29.51 45.94,29.45 46.66,29.3 47.38,29.12 48.09,28.93 48.8,28.75 49.52,28.58 50.19,28.25 50.53,28.08 50.86,27.91 51.16,27.68 51.46,27.45 51.81,27.21 51.92,26.79 L 51.85,26.76 C 51.31,27.17 50.57,27.3 49.91,27.56 49.23,27.78 48.58,28.1 47.9,28.36 47.23,28.62 46.54,28.86 45.85,29.08 45.51,29.2 45.16,29.31 44.81,29.41 44.48,29.5 44.08,29.64 43.79,29.61 L 43.73,29.66 Z M 43.73,29.66" />
        </g>
        <g id="ranaSideLeft2-group295">
            <path id="ranaSideLeft2-bezier294" stroke="none" fill="rgb(0, 0, 0)" d="M 50.29,30.65 C 51.49,31 52.69,31.36 53.87,31.74 54.46,31.93 55.03,32.18 55.63,32.32 56.23,32.47 56.82,32.57 57.45,32.71 L 57.49,32.64 C 57.04,32.14 56.44,31.85 55.86,31.61 55.27,31.37 54.64,31.28 54.02,31.16 52.79,30.91 51.55,30.72 50.31,30.57 L 50.29,30.65 Z M 50.29,30.65" />
        </g>
        <g id="ranaSideLeft2-group296">
            <path id="ranaSideLeft2-bezier295" stroke="none" fill="rgb(0, 0, 0)" d="M 48.32,26.29 C 49.62,25.84 50.91,25.35 52.18,24.78 52.81,24.51 53.47,24.26 54.05,23.86 54.33,23.66 54.62,23.45 54.88,23.19 55.13,22.94 55.4,22.67 55.5,22.29 L 55.43,22.26 C 54.9,22.67 54.26,22.9 53.67,23.21 53.06,23.51 52.5,23.9 51.91,24.25 50.71,24.92 49.5,25.58 48.29,26.22 L 48.32,26.29 Z M 48.32,26.29" />
        </g>
        <g id="ranaSideLeft2-group297">
            <path id="ranaSideLeft2-bezier296" stroke="none" fill="rgb(0, 0, 0)" d="M 52.86,21.1 C 54.09,20.64 55.34,20.2 56.58,19.81 57.21,19.62 57.85,19.5 58.45,19.29 59.06,19.1 59.64,18.84 60.29,18.81 L 60.31,18.74 C 60.02,18.53 59.63,18.48 59.29,18.47 58.94,18.46 58.6,18.5 58.26,18.56 57.59,18.68 56.98,18.98 56.37,19.25 55.15,19.77 53.97,20.37 52.83,21.03 L 52.86,21.1 Z M 52.86,21.1" />
        </g>
        <g id="ranaSideLeft2-group298">
            <path id="ranaSideLeft2-bezier297" stroke="none" fill="rgb(0, 0, 0)" d="M 56.59,25.42 C 57.84,25.06 59.07,24.65 60.29,24.15 60.9,23.91 61.52,23.69 62.08,23.31 62.35,23.12 62.62,22.92 62.86,22.67 63.1,22.43 63.34,22.15 63.42,21.79 L 63.35,21.76 C 62.86,22.16 62.27,22.38 61.7,22.67 61.13,22.94 60.6,23.3 60.03,23.61 58.9,24.21 57.73,24.79 56.56,25.35 L 56.59,25.42 Z M 56.59,25.42" />
        </g>
        <g id="ranaSideLeft2-group299">
            <path id="ranaSideLeft2-bezier298" stroke="none" fill="rgb(0, 0, 0)" d="M 67.91,22.8 C 68.6,22.19 69.31,21.61 70.04,21.08 70.41,20.82 70.81,20.62 71.15,20.35 71.5,20.08 71.81,19.82 72.22,19.56 L 72.21,19.49 C 71.71,19.34 71.18,19.51 70.75,19.72 70.31,19.93 69.98,20.29 69.65,20.62 68.98,21.28 68.39,21.99 67.86,22.75 L 67.91,22.8 Z M 67.91,22.8" />
        </g>
        <g id="ranaSideLeft2-group300">
            <path id="ranaSideLeft2-bezier299" stroke="none" fill="rgb(0, 0, 0)" d="M 58.81,27.13 C 60.07,26.99 61.32,26.81 62.57,26.57 63.2,26.45 63.83,26.37 64.43,26.13 65.02,25.88 65.64,25.6 66.08,25.06 L 66.03,25 C 65.42,25.17 64.81,25.26 64.21,25.41 63.6,25.55 63.02,25.79 62.42,25.99 61.22,26.35 60.01,26.71 58.8,27.05 L 58.81,27.13 Z M 58.81,27.13" />
        </g>
        <g id="ranaSideLeft2-group301">
            <path id="ranaSideLeft2-bezier300" stroke="none" fill="rgb(0, 0, 0)" d="M 68.98,28.72 C 70.15,28.4 71.32,28.1 72.48,27.81 73.07,27.68 73.67,27.59 74.23,27.41 74.8,27.23 75.34,27.01 75.92,26.82 L 75.93,26.74 C 75.3,26.53 74.66,26.6 74.05,26.68 73.44,26.78 72.88,27.02 72.31,27.24 71.17,27.66 70.05,28.13 68.96,28.65 L 68.98,28.72 Z M 68.98,28.72" />
        </g>
        <g id="ranaSideLeft2-group302">
            <path id="ranaSideLeft2-bezier301" stroke="none" fill="rgb(0, 0, 0)" d="M 66.63,32.15 C 67.33,32.24 68.03,32.13 68.71,32.06 69.4,31.96 70.08,31.83 70.76,31.69 71.44,31.55 72.13,31.44 72.78,31.17 73.41,30.88 74.08,30.57 74.55,29.98 L 74.5,29.92 C 73.85,30.15 73.19,30.27 72.53,30.45 71.88,30.63 71.26,30.9 70.61,31.11 69.96,31.32 69.3,31.52 68.64,31.69 67.98,31.86 67.31,32.06 66.64,32.08 L 66.63,32.15 Z M 66.63,32.15" />
        </g>
        <g id="ranaSideLeft2-group303">
            <path id="ranaSideLeft2-bezier302" stroke="none" fill="rgb(0, 0, 0)" d="M 60.32,31.23 C 61.43,30.76 62.54,30.27 63.63,29.76 64.18,29.51 64.75,29.29 65.25,28.96 65.75,28.62 66.25,28.25 66.65,27.76 L 66.62,27.7 C 66,27.84 65.44,28.05 64.89,28.3 64.34,28.55 63.85,28.91 63.34,29.23 62.32,29.86 61.3,30.5 60.28,31.16 L 60.32,31.23 Z M 60.32,31.23" />
        </g>
        <g id="ranaSideLeft2-group304">
            <path id="ranaSideLeft2-bezier303" stroke="none" fill="rgb(0, 0, 0)" d="M 14.34,33.55 C 14.6,32.14 14.81,30.71 14.94,29.27 15.02,28.56 15.12,27.83 15.06,27.1 15.03,26.74 14.98,26.37 14.88,26 14.77,25.66 14.69,25.24 14.33,25 L 14.28,25.06 C 14.46,25.69 14.31,26.42 14.31,27.12 14.28,27.82 14.34,28.53 14.34,29.25 14.34,30.67 14.31,32.11 14.26,33.54 L 14.34,33.55 Z M 14.34,33.55" />
        </g>
        <g id="ranaSideLeft2-group305">
            <path id="ranaSideLeft2-bezier304" stroke="none" fill="rgb(0, 0, 0)" d="M 17.88,32.69 C 18.33,31.64 18.73,30.59 19.08,29.51 19.26,28.97 19.48,28.43 19.54,27.86 19.57,27.57 19.59,27.28 19.57,26.98 19.54,26.69 19.51,26.37 19.34,26.1 L 19.27,26.12 C 19.15,26.67 18.95,27.18 18.8,27.71 18.65,28.24 18.6,28.8 18.5,29.36 18.28,30.46 18.05,31.56 17.81,32.66 L 17.88,32.69 Z M 17.88,32.69" />
        </g>
        <g id="ranaSideLeft2-group306">
            <path id="ranaSideLeft2-bezier305" stroke="none" fill="rgb(0, 0, 0)" d="M 17.88,28.49 C 17.76,27.21 17.57,25.92 17.27,24.65 17.13,24.02 17,23.37 16.7,22.77 16.39,22.2 16,21.55 15.32,21.29 L 15.28,21.35 C 15.64,21.89 15.79,22.47 16.01,23.06 16.2,23.65 16.48,24.22 16.69,24.82 17.11,26.03 17.47,27.26 17.81,28.51 L 17.88,28.49 Z M 17.88,28.49" />
        </g>
        <g id="ranaSideLeft2-group307">
            <path id="ranaSideLeft2-bezier306" stroke="none" fill="rgb(0, 0, 0)" d="M 20.65,26.27 C 21.05,25.05 21.4,23.82 21.66,22.55 21.8,21.93 21.96,21.29 21.95,20.63 21.94,20.3 21.92,19.97 21.83,19.63 21.74,19.32 21.64,18.92 21.28,18.75 L 21.24,18.81 C 21.45,19.35 21.25,19.98 21.2,20.59 21.12,21.2 21.12,21.83 21.07,22.46 20.94,23.72 20.77,24.98 20.58,26.25 L 20.65,26.27 Z M 20.65,26.27" />
        </g>
        <g id="ranaSideLeft2-group308">
            <path id="ranaSideLeft2-bezier307" stroke="none" fill="rgb(0, 0, 0)" d="M 24.29,48.98 C 26.58,48.71 28.9,48.55 31.21,48.54 33.52,48.52 35.81,48.66 38.06,49.18 40.34,49.61 42.62,50.05 44.92,50.33 46.08,50.45 47.23,50.58 48.39,50.66 49.55,50.71 50.72,50.84 51.89,50.64 L 51.88,50.57 C 51.31,50.58 50.73,50.48 50.16,50.4 L 48.45,50.14 45.03,49.58 C 42.75,49.21 40.45,48.94 38.16,48.58 35.88,48.14 33.51,48.06 31.19,48.17 28.87,48.28 26.56,48.53 24.27,48.91 L 24.29,48.98 Z M 24.29,48.98" />
        </g>
        <g id="ranaSideLeft2-group309">
            <path id="ranaSideLeft2-bezier308" stroke="none" fill="rgb(0, 0, 0)" d="M 53.54,50.71 C 54.55,50.9 55.55,51.11 56.54,51.35 57.03,51.48 57.5,51.66 58,51.73 58.5,51.81 58.98,51.86 59.53,51.9 L 59.56,51.83 C 59.18,51.42 58.67,51.19 58.18,51.01 57.68,50.83 57.15,50.81 56.64,50.76 55.61,50.65 54.57,50.61 53.54,50.63 L 53.54,50.71 Z M 53.54,50.71" />
        </g>
        <g id="ranaSideLeft2-group310">
            <path id="ranaSideLeft2-bezier309" stroke="none" fill="rgb(0, 0, 0)" d="M 61.85,52.21 C 63.72,52.43 65.61,52.52 67.5,52.36 67.97,52.32 68.44,52.26 68.91,52.18 69.38,52.1 69.84,51.94 70.28,51.91 71.2,51.82 72.14,51.83 73.08,51.85 76.83,51.94 80.59,52.21 84.35,52.41 88.1,52.61 91.87,52.87 95.66,52.66 96.61,52.59 97.56,52.5 98.51,52.29 L 101.23,51.51 C 102.13,51.26 103.04,51.03 103.96,50.86 104.87,50.7 105.81,50.52 106.73,50.68 L 106.75,50.6 C 105.82,50.35 104.85,50.44 103.91,50.52 102.97,50.64 102.04,50.81 101.11,51 100.19,51.18 99.25,51.46 98.38,51.66 97.49,51.82 96.55,51.88 95.62,51.91 91.89,52.02 88.13,51.93 84.37,51.81 80.62,51.69 76.86,51.49 73.09,51.48 72.14,51.48 71.2,51.49 70.25,51.61 69.75,51.66 69.31,51.84 68.86,51.92 68.41,52.02 67.94,52.09 67.48,52.14 65.62,52.34 63.73,52.31 61.86,52.14 L 61.85,52.21 Z M 61.85,52.21" />
        </g>
        <g id="ranaSideLeft2-group311">
            <path id="ranaSideLeft2-bezier310" stroke="none" fill="rgb(0, 0, 0)" d="M 112.43,57.58 C 112.11,57.73 111.81,57.93 111.54,58.18 111.39,58.3 111.22,58.42 111.17,58.63 111.13,58.82 111.13,59.09 111.34,59.28 L 111.41,59.28 C 111.62,59.13 111.74,59.06 111.85,58.95 111.95,58.86 111.96,58.69 112.02,58.54 112.15,58.25 112.31,57.94 112.49,57.64 L 112.43,57.58 Z M 112.43,57.58" />
        </g>
        <g id="ranaSideLeft2-group312">
            <path id="ranaSideLeft2-bezier311" stroke="none" fill="rgb(0, 0, 0)" d="M 110.53,57.41 C 110.21,57.55 109.93,57.77 109.71,58.06 109.59,58.2 109.45,58.35 109.45,58.55 109.45,58.74 109.51,58.95 109.71,59.11 L 109.79,59.11 C 110,58.96 110.09,58.85 110.18,58.73 110.25,58.62 110.22,58.47 110.25,58.33 110.31,58.05 110.42,57.76 110.58,57.47 L 110.53,57.41 Z M 110.53,57.41" />
        </g>
        <g id="ranaSideLeft2-group313">
            <path id="ranaSideLeft2-bezier312" stroke="none" fill="rgb(0, 0, 0)" d="M 108.8,57.95 C 108.44,57.86 108.05,57.85 107.65,58 107.46,58.07 107.21,58.17 107.11,58.41 107.02,58.65 107.06,58.93 107.25,59.11 L 107.33,59.11 C 107.54,58.94 107.65,58.87 107.75,58.81 107.84,58.76 107.85,58.63 107.96,58.52 108.16,58.32 108.47,58.15 108.8,58.02 L 108.8,57.95 Z M 108.8,57.95" />
        </g>
        <g id="ranaSideLeft2-group314">
            <path id="ranaSideLeft2-bezier313" stroke="none" fill="rgb(0, 0, 0)" d="M 112.45,59.15 C 112.88,59.25 113.48,59.21 113.75,58.72 113.88,58.49 113.89,58.23 113.92,58.01 113.95,57.79 113.99,57.56 114.01,57.33 114.11,56.42 113.93,55.34 113.21,54.6 112.56,54.01 112.33,53.19 111.98,52.37 111.64,51.55 111.34,50.7 110.96,49.85 L 110.89,49.87 C 110.86,50.8 111.01,51.72 111.27,52.62 111.41,53.06 111.58,53.51 111.83,53.92 111.96,54.13 112.1,54.33 112.26,54.53 112.42,54.73 112.65,54.91 112.79,55.02 113.41,55.57 113.65,56.43 113.63,57.31 113.62,57.74 113.66,58.26 113.55,58.62 113.4,59 112.9,59.13 112.47,59.07 L 112.45,59.15 Z M 112.45,59.15" />
        </g>
        <g id="ranaSideLeft2-group315">
            <path id="ranaSideLeft2-bezier314" stroke="none" fill="rgb(0, 0, 0)" d="M 109.78,56.59 C 109.32,55.71 108.9,54.82 108.51,53.92 108.33,53.47 108.2,53 107.99,52.57 L 107.33,51.27 107.25,51.27 C 107.08,51.79 107.16,52.34 107.29,52.83 107.42,53.33 107.71,53.76 107.98,54.19 108.49,55.05 109.08,55.87 109.72,56.63 L 109.78,56.59 Z M 109.78,56.59" />
        </g>
        <g id="ranaSideLeft2-group321">
            <path id="ranaSideLeft2-bezier320" stroke="none" fill="rgb(0, 0, 0)" d="M 86.86,53.33 L 83.92,55.87 C 83.43,56.28 82.91,56.66 82.46,57.12 82.01,57.56 81.61,58.09 81.16,58.51 L 81.17,58.58 C 81.55,58.57 81.84,58.38 82.14,58.23 82.43,58.07 82.7,57.88 82.96,57.68 83.48,57.28 83.9,56.78 84.34,56.3 85.23,55.36 86.08,54.38 86.91,53.39 L 86.86,53.33 Z M 86.86,53.33" />
        </g>
        <g id="ranaSideLeft2-group322">
            <path id="ranaSideLeft2-bezier321" stroke="none" fill="rgb(0, 0, 0)" d="M 80.38,57.61 C 80.36,58.12 80.15,58.64 79.75,58.86 79.37,59.1 78.89,59.01 78.35,58.98 77.82,58.94 77.3,58.85 76.78,58.9 76.26,58.95 75.73,59.03 75.21,59.24 L 75.21,59.31 C 75.73,59.52 76.26,59.6 76.78,59.65 77.3,59.7 77.82,59.62 78.35,59.58 78.83,59.53 79.48,59.57 79.97,59.16 80.45,58.75 80.53,58.12 80.45,57.61 L 80.38,57.61 Z M 80.38,57.61" />
        </g>
        <g id="ranaSideLeft2-group323">
            <path id="ranaSideLeft2-bezier322" stroke="none" fill="rgb(0, 0, 0)" d="M 75.03,57.95 C 74.59,57.95 74.15,58.01 73.72,58.14 73.5,58.21 73.24,58.25 73.07,58.46 72.91,58.64 72.75,59.02 72.96,59.28 L 73.04,59.28 C 73.26,59.1 73.4,59.12 73.55,59.03 73.71,58.97 73.82,58.81 73.98,58.68 74.31,58.45 74.68,58.23 75.05,58.02 L 75.03,57.95 Z M 75.03,57.95" />
        </g>
        <g id="ranaSideLeft2-group324">
            <path id="ranaSideLeft2-bezier323" stroke="none" fill="rgb(0, 0, 0)" d="M 75.6,57.48 C 76.28,57.31 77,57.21 77.66,57.31 77.74,57.32 77.82,57.33 77.89,57.36 77.91,57.38 78.16,57.44 78.29,57.35 78.49,57.26 78.63,57.15 78.78,57.04 79.08,56.83 79.35,56.59 79.63,56.36 80.17,55.88 80.72,55.41 81.15,54.81 81.36,54.52 81.56,54.21 81.72,53.87 81.87,53.54 82.03,53.18 82,52.78 L 81.93,52.77 C 81.55,53.36 81.03,53.82 80.57,54.34 80.09,54.84 79.68,55.41 79.21,55.93 78.97,56.18 78.73,56.43 78.47,56.67 78.35,56.78 78.21,56.9 78.1,56.96 78.16,57.03 77.87,56.93 77.69,56.93 76.93,56.93 76.24,57.15 75.57,57.41 L 75.6,57.48 Z M 75.6,57.48" />
        </g>
        <g id="ranaSideLeft2-group325">
            <path id="ranaSideLeft2-bezier324" stroke="none" fill="rgb(0, 0, 0)" d="M 58.8,52.76 C 58.19,53.8 57.55,54.82 56.88,55.8 56.53,56.28 56.14,56.72 55.82,57.2 55.49,57.69 55.21,58.17 54.78,58.6 L 54.81,58.67 C 55.47,58.58 55.99,58.11 56.41,57.67 56.84,57.21 57.11,56.65 57.39,56.11 57.97,55.04 58.45,53.93 58.87,52.79 L 58.8,52.76 Z M 58.8,52.76" />
        </g>
        <g id="ranaSideLeft2-group326">
            <path id="ranaSideLeft2-bezier325" stroke="none" fill="rgb(0, 0, 0)" d="M 54.51,57.06 C 54.29,57.48 54.06,57.89 53.81,58.28 53.56,58.67 53.29,59.07 52.99,59.37 52.69,59.65 52.38,59.66 51.96,59.7 51.54,59.75 51.02,59.74 50.54,59.95 L 50.54,60.02 C 51.01,60.23 51.43,60.39 51.95,60.45 52.47,60.54 53.15,60.23 53.45,59.76 53.76,59.33 53.95,58.9 54.14,58.45 54.31,58 54.46,57.54 54.58,57.08 L 54.51,57.06 Z M 54.51,57.06" />
        </g>
        <g id="ranaSideLeft2-group327">
            <path id="ranaSideLeft2-bezier326" stroke="none" fill="rgb(0, 0, 0)" d="M 50.03,58.86 C 49.66,58.83 49.28,58.86 48.9,59 48.71,59.06 48.46,59.13 48.35,59.36 48.23,59.57 48.21,59.89 48.42,60.08 L 48.49,60.08 C 48.71,59.91 48.83,59.89 48.93,59.83 49.03,59.77 49.08,59.63 49.2,59.52 49.43,59.31 49.73,59.11 50.05,58.94 L 50.03,58.86 Z M 50.03,58.86" />
        </g>
        <g id="ranaSideLeft2-group328">
            <path id="ranaSideLeft2-bezier327" stroke="none" fill="rgb(0, 0, 0)" d="M 47.86,58.87 C 47.54,58.88 47.22,58.94 46.91,59.1 46.76,59.18 46.56,59.25 46.49,59.46 46.42,59.65 46.42,59.92 46.63,60.08 L 46.7,60.08 C 46.92,59.94 47.02,59.92 47.12,59.87 47.2,59.82 47.22,59.68 47.29,59.57 47.45,59.36 47.66,59.14 47.89,58.94 L 47.86,58.87 Z M 47.86,58.87" />
        </g>
        <g id="ranaSideLeft2-group329">
            <path id="ranaSideLeft2-bezier328" stroke="none" fill="rgb(0, 0, 0)" d="M 48.19,58.02 C 48.55,57.85 48.95,57.73 49.34,57.7 49.53,57.69 49.73,57.7 49.91,57.74 49.99,57.76 50.12,57.79 50.22,57.8 50.35,57.8 50.48,57.79 50.59,57.77 51.46,57.54 52.14,56.99 52.73,56.35 53.03,56.04 53.3,55.64 53.41,55.16 53.53,54.72 53.55,54.3 53.56,53.89 53.58,53.06 53.46,52.27 53.57,51.46 L 53.5,51.43 C 53.23,51.77 53.11,52.21 53.01,52.61 52.91,53.03 52.87,53.44 52.81,53.84 52.77,54.24 52.74,54.64 52.69,55.01 52.66,55.34 52.5,55.67 52.27,55.98 51.81,56.58 51.19,57.16 50.49,57.41 50.23,57.55 49.72,57.35 49.31,57.48 48.89,57.57 48.5,57.74 48.15,57.96 L 48.19,58.02 Z M 48.19,58.02" />
        </g>
        <g id="ranaSideLeft2-group335">
            <path id="ranaSideLeft2-bezier334" stroke="none" fill="rgb(0, 0, 0)" d="M 38.3,56.29 C 38.31,56.68 38.37,57.08 38.52,57.47 38.59,57.67 38.66,57.9 38.88,58.04 39.08,58.16 39.42,58.24 39.64,58.02 L 39.64,57.95 C 39.47,57.73 39.46,57.61 39.38,57.48 39.32,57.36 39.16,57.29 39.04,57.16 38.81,56.9 38.58,56.59 38.37,56.27 L 38.3,56.29 Z M 38.3,56.29" />
        </g>
        <g id="ranaSideLeft2-group336">
            <path id="ranaSideLeft2-bezier335" stroke="none" fill="rgb(0, 0, 0)" d="M 38.95,55.33 C 39.01,55.71 39.12,56.07 39.35,56.41 39.45,56.58 39.57,56.8 39.82,56.86 40.05,56.93 40.36,56.89 40.51,56.65 L 40.49,56.57 C 40.29,56.39 40.24,56.28 40.15,56.19 40.08,56.1 39.92,56.08 39.78,56 39.52,55.82 39.26,55.57 39.02,55.3 L 38.95,55.33 Z M 38.95,55.33" />
        </g>
        <g id="ranaSideLeft2-group337">
            <path id="ranaSideLeft2-bezier336" stroke="none" fill="rgb(0, 0, 0)" d="M 40.28,55.34 C 40.58,54.97 40.83,54.55 40.96,54.06 41.01,53.81 41.02,53.54 40.96,53.27 40.9,53.02 40.87,52.84 40.87,52.63 40.86,52.2 41.01,51.81 41.11,51.44 41.22,51.06 41.41,50.71 41.71,50.31 L 41.68,50.24 C 41.16,50.28 40.68,50.66 40.42,51.14 40.16,51.62 40.17,52.19 40.27,52.69 40.31,52.94 40.41,53.21 40.49,53.41 40.57,53.59 40.6,53.79 40.58,54.01 40.57,54.44 40.43,54.89 40.22,55.3 L 40.28,55.34 Z M 40.28,55.34" />
        </g>
        <g id="ranaSideLeft2-group338">
            <path id="ranaSideLeft2-bezier337" stroke="none" fill="rgb(0, 0, 0)" d="M 37.95,55.69 C 37.88,55.2 37.84,54.71 37.82,54.22 37.8,53.73 37.8,53.24 37.89,52.81 37.92,52.7 37.96,52.6 38,52.53 38.06,52.4 38.11,52.32 38.17,52.14 38.26,51.84 38.26,51.56 38.23,51.29 38.15,50.75 37.95,50.26 37.6,49.84 L 37.53,49.87 C 37.49,50.4 37.51,50.88 37.48,51.33 37.48,51.55 37.46,51.78 37.45,51.96 37.45,52.03 37.41,52.17 37.38,52.28 37.33,52.43 37.31,52.58 37.3,52.72 37.26,53.27 37.35,53.77 37.45,54.27 37.57,54.76 37.71,55.24 37.88,55.71 L 37.95,55.69 Z M 37.95,55.69" />
        </g>
        <g id="ranaSideLeft2-group348">
            <path id="ranaSideLeft2-bezier347" stroke="none" fill="rgb(0, 0, 0)" d="M 31.92,31.68 C 32.96,32.15 33.98,32.67 34.95,33.23 35.44,33.52 35.89,33.86 36.37,34.12 36.87,34.38 37.35,34.63 37.89,34.89 L 37.94,34.83 C 37.69,34.28 37.24,33.85 36.78,33.49 36.31,33.13 35.76,32.92 35.22,32.69 34.16,32.24 33.06,31.88 31.95,31.61 L 31.92,31.68 Z M 31.92,31.68" />
        </g>
        <g id="ranaSideLeft2-group349">
            <path id="ranaSideLeft2-bezier348" stroke="none" fill="rgb(0, 0, 0)" d="M 30.17,27.75 C 30.75,27.02 31.37,26.33 32.02,25.69 32.35,25.38 32.72,25.12 33.02,24.82 33.34,24.52 33.61,24.23 34.05,24.03 L 34.05,23.96 C 33.55,23.73 32.97,23.98 32.56,24.23 32.14,24.5 31.85,24.91 31.57,25.29 30.99,26.05 30.51,26.86 30.1,27.71 L 30.17,27.75 Z M 30.17,27.75" />
        </g>
        <g id="ranaSideLeft2-group417">
            <path id="ranaSideLeft2-bezier416" stroke="none" fill="rgb(0, 0, 0)" d="M 26.07,25.41 C 26.72,24.93 27.31,24.36 27.82,23.7 28.08,23.38 28.36,23.04 28.48,22.62 28.6,22.21 28.64,21.74 28.45,21.32 L 28.38,21.32 27.79,22.34 C 27.6,22.66 27.49,23.03 27.32,23.37 26.95,24.06 26.51,24.73 26.02,25.36 L 26.07,25.41 Z M 26.07,25.41" />
        </g>
        <g id="ranaSideLeft2-group418">
            <path id="ranaSideLeft2-bezier417" stroke="none" fill="rgb(0, 0, 0)" d="M 20.62,33.18 C 21.05,33.14 21.47,33.09 21.89,33.07 22.1,33.07 22.32,33.06 22.52,33.08 22.62,33.09 22.72,33.11 22.8,33.13 22.89,33.16 22.92,33.22 22.89,33.18 22.9,33.17 22.86,33.25 22.8,33.31 22.73,33.39 22.66,33.43 22.56,33.56 22.54,33.58 22.5,33.66 22.49,33.74 22.51,33.98 22.68,34.01 22.74,34.02 22.85,34.03 22.91,34.01 22.97,34.01 23.09,33.99 23.2,33.96 23.3,33.93 23.73,33.83 24.13,33.71 24.53,33.63 24.73,33.59 24.93,33.56 25.11,33.56 25.3,33.54 25.41,33.65 25.31,33.57 25.31,33.52 25.27,33.73 25.19,33.88 L 24.9,34.44 C 24.8,34.66 24.72,34.87 24.67,35.12 24.64,35.36 24.61,35.67 24.8,35.96 24.99,36.24 25.31,36.3 25.54,36.3 25.66,36.29 25.78,36.27 25.89,36.24 L 26.05,36.19 26.09,36.18 26.11,36.17 26.12,36.17 C 26.12,36.15 26.14,36.2 26.06,36.13 26.06,36.03 26.09,36.08 26.08,36.06 26.1,36.06 26.05,36.09 26.03,36.1 L 26.05,36.17 C 26.09,36.16 26.09,36.17 26.15,36.15 26.15,36.14 26.17,36.18 26.17,36.08 26.09,36.02 26.11,36.06 26.11,36.05 L 26.09,36.05 26.07,36.05 26.03,36.04 25.88,36.02 C 25.77,36.01 25.68,35.99 25.59,35.96 25.4,35.91 25.27,35.8 25.25,35.7 25.2,35.5 25.37,35.1 25.57,34.78 L 25.89,34.22 C 25.97,33.98 26.14,33.76 26,33.29 25.91,33.06 25.65,32.92 25.5,32.9 25.33,32.87 25.2,32.88 25.07,32.89 24.82,32.92 24.6,32.98 24.39,33.04 23.96,33.17 23.56,33.33 23.16,33.47 23.07,33.5 22.97,33.53 22.88,33.56 22.84,33.57 22.79,33.57 22.79,33.58 22.8,33.58 22.91,33.59 22.93,33.76 22.93,33.79 22.9,33.82 22.92,33.8 22.98,33.66 23.25,33.56 23.26,33.13 23.2,32.87 22.99,32.83 22.88,32.81 22.76,32.78 22.64,32.78 22.53,32.79 22.3,32.79 22.09,32.82 21.87,32.85 21.44,32.92 21.02,33.02 20.61,33.11 L 20.62,33.18 Z M 20.62,33.18" />
        </g>
    </g>
</svg>
