<?xml version="1.0" encoding="UTF-8"?>
<!DOCTYPE svg PUBLIC "-//W3C//DTD SVG 1.1//EN" "http://www.w3.org/Graphics/SVG/1.1/DTD/svg11.dtd">
<svg version="1.1" xmlns="http://www.w3.org/2000/svg" xmlns:xlink="http://www.w3.org/1999/xlink" width="120" height="60"  xml:space="preserve" id="ranaSideRight4">
    <!-- Generated by PaintCode - http://www.paintcodeapp.com -->
    <g id="ranaSideRight4-group">
        <g id="ranaSideRight4-group339">
            <path id="ranaSideRight4-bezier338" stroke="none" fill="rgb(0, 0, 0)" d="M 69.94,50.76 C 70.55,51.8 71.19,52.82 71.86,53.8 72.21,54.28 72.6,54.72 72.92,55.2 73.25,55.69 73.54,56.17 73.97,56.6 L 73.94,56.67 C 73.27,56.58 72.75,56.11 72.33,55.67 71.91,55.21 71.64,54.65 71.35,54.11 70.78,53.04 70.29,51.93 69.88,50.79 L 69.94,50.76 Z M 69.94,50.76" />
        </g>
        <g id="ranaSideRight4-group340">
            <path id="ranaSideRight4-bezier339" stroke="none" fill="rgb(0, 0, 0)" d="M 74.24,55.06 C 74.45,55.48 74.68,55.89 74.94,56.28 75.18,56.67 75.45,57.07 75.75,57.37 76.05,57.65 76.36,57.66 76.78,57.7 77.2,57.75 77.72,57.74 78.2,57.95 L 78.2,58.02 C 77.73,58.23 77.32,58.39 76.79,58.45 76.27,58.54 75.59,58.23 75.3,57.76 74.99,57.33 74.79,56.9 74.6,56.45 74.43,56 74.29,55.54 74.17,55.08 L 74.24,55.06 Z M 74.24,55.06" />
        </g>
        <g id="ranaSideRight4-group341">
            <path id="ranaSideRight4-bezier340" stroke="none" fill="rgb(0, 0, 0)" d="M 78.71,56.86 C 79.08,56.83 79.46,56.86 79.85,57 80.04,57.06 80.28,57.13 80.4,57.36 80.51,57.57 80.53,57.89 80.32,58.08 L 80.25,58.08 C 80.03,57.91 79.92,57.89 79.81,57.83 79.71,57.77 79.66,57.63 79.55,57.52 79.32,57.31 79.02,57.11 78.7,56.94 L 78.71,56.86 Z M 78.71,56.86" />
        </g>
        <g id="ranaSideRight4-group342">
            <path id="ranaSideRight4-bezier341" stroke="none" fill="rgb(0, 0, 0)" d="M 80.88,56.87 C 81.2,56.88 81.52,56.94 81.83,57.1 81.98,57.18 82.18,57.25 82.26,57.46 82.33,57.65 82.32,57.92 82.11,58.08 L 82.04,58.08 C 81.83,57.94 81.72,57.92 81.63,57.87 81.54,57.82 81.53,57.68 81.45,57.57 81.3,57.36 81.08,57.14 80.86,56.94 L 80.88,56.87 Z M 80.88,56.87" />
        </g>
        <g id="ranaSideRight4-group343">
            <path id="ranaSideRight4-bezier342" stroke="none" fill="rgb(0, 0, 0)" d="M 80.56,56.02 C 80.19,55.85 79.8,55.73 79.41,55.7 79.21,55.69 79.02,55.7 78.84,55.74 78.75,55.76 78.62,55.79 78.52,55.8 78.39,55.8 78.27,55.79 78.16,55.77 77.28,55.54 76.6,54.99 76.01,54.35 75.72,54.04 75.44,53.64 75.33,53.16 75.22,52.72 75.2,52.3 75.18,51.89 75.17,51.06 75.29,50.27 75.17,49.46 L 75.24,49.43 C 75.52,49.77 75.64,50.21 75.73,50.61 75.83,51.03 75.88,51.44 75.93,51.84 75.97,52.24 76.01,52.64 76.06,53.01 76.09,53.34 76.25,53.67 76.48,53.98 76.94,54.58 77.55,55.16 78.25,55.41 78.52,55.55 79.02,55.35 79.44,55.48 79.86,55.57 80.24,55.74 80.6,55.96 L 80.56,56.02 Z M 80.56,56.02" />
        </g>
        <g id="ranaSideRight4-group344">
            <path id="ranaSideRight4-bezier343" stroke="none" fill="rgb(0, 0, 0)" d="M 87.43,56.07 C 87.42,56.47 87.36,56.86 87.2,57.25 87.13,57.45 87.07,57.69 86.85,57.82 86.65,57.95 86.3,58.02 86.09,57.8 L 86.09,57.73 C 86.26,57.52 86.27,57.39 86.34,57.26 86.41,57.14 86.56,57.07 86.69,56.94 86.92,56.68 87.14,56.37 87.35,56.05 L 87.43,56.07 Z M 87.43,56.07" />
        </g>
        <g id="ranaSideRight4-group345">
            <path id="ranaSideRight4-bezier344" stroke="none" fill="rgb(0, 0, 0)" d="M 86.77,55.12 C 86.72,55.49 86.6,55.85 86.38,56.19 86.27,56.36 86.15,56.58 85.91,56.64 85.68,56.71 85.37,56.67 85.22,56.43 L 85.23,56.35 C 85.43,56.18 85.49,56.07 85.57,55.97 85.65,55.88 85.8,55.87 85.94,55.78 86.2,55.6 86.46,55.35 86.71,55.08 L 86.77,55.12 Z M 86.77,55.12" />
        </g>
        <g id="ranaSideRight4-group346">
            <path id="ranaSideRight4-bezier345" stroke="none" fill="rgb(0, 0, 0)" d="M 85.44,55.12 C 85.07,54.64 84.72,54.08 84.72,53.38 84.72,53.22 84.78,52.99 84.8,52.89 84.81,52.79 84.82,52.65 84.8,52.52 84.77,52.26 84.67,52 84.55,51.75 84.3,51.27 83.96,50.84 83.58,50.45 83.19,50.06 82.72,49.75 82.16,49.48 L 82.17,49.41 C 82.8,49.33 83.48,49.52 84.03,49.9 84.58,50.29 84.97,50.87 85.17,51.5 85.28,51.82 85.35,52.15 85.35,52.49 85.36,52.67 85.35,52.83 85.29,53.03 85.23,53.21 85.19,53.27 85.16,53.42 85.08,53.94 85.23,54.55 85.5,55.08 L 85.44,55.12 Z M 85.44,55.12" />
        </g>
        <g id="ranaSideRight4-group347">
            <path id="ranaSideRight4-bezier346" stroke="none" fill="rgb(0, 0, 0)" d="M 87.77,55.48 C 87.87,54.99 87.95,54.5 88,54.02 88.05,53.53 88.08,53.03 88,52.56 87.97,52.33 87.84,52.16 87.77,51.87 87.7,51.6 87.69,51.35 87.69,51.09 87.71,50.56 87.81,50.07 87.96,49.57 L 87.96,49.57 87.97,49.54 C 88.4,48.61 88.67,47.48 88.32,46.58 88.15,46.13 87.8,45.79 87.37,45.57 86.95,45.35 86.42,45.24 85.9,45.13 84.86,44.92 83.8,44.79 82.72,44.72 82.18,44.69 81.64,44.65 81.08,44.61 80.55,44.55 79.93,44.52 79.47,44.14 L 79.52,44.08 C 80,44.31 80.55,44.21 81.09,44.2 81.63,44.16 82.18,44.1 82.73,44.1 83.84,44.06 84.97,44.11 86.07,44.38 86.62,44.51 87.16,44.66 87.7,44.97 88.22,45.28 88.68,45.78 88.87,46.37 89.25,47.58 88.86,48.74 88.35,49.74 L 88.36,49.71 C 88.21,50.15 88.09,50.63 88.05,51.1 88.03,51.34 88.03,51.58 88.07,51.8 88.1,52 88.24,52.26 88.26,52.52 88.31,53.04 88.25,53.54 88.17,54.04 88.09,54.53 87.98,55.02 87.85,55.49 L 87.77,55.48 Z M 87.77,55.48" />
        </g>
        <g id="ranaSideRight4-group555">
            <path id="ranaSideRight4-bezier554" stroke="none" fill="rgb(0, 0, 0)" d="M 89.26,25.58 C 88.2,25.51 87.13,25.49 86.08,25.52 85.55,25.54 85.03,25.63 84.52,25.63 84,25.62 83.49,25.61 82.93,25.57 L 82.91,25.5 C 83.36,25.14 83.92,24.97 84.46,24.88 85.01,24.78 85.56,24.86 86.1,24.92 87.18,25.02 88.24,25.22 89.27,25.5 L 89.26,25.58 Z M 89.26,25.58" />
        </g>
        <g id="ranaSideRight4-group556">
            <path id="ranaSideRight4-bezier555" stroke="none" fill="rgb(0, 0, 0)" d="M 84.43,31.47 C 83.61,31.66 82.85,32.01 82.14,32.42 81.79,32.63 81.48,32.9 81.12,33.08 80.75,33.26 80.38,33.44 79.93,33.56 L 79.88,33.5 C 80.07,33.07 80.37,32.74 80.71,32.45 81.05,32.17 81.48,32.03 81.89,31.88 82.7,31.57 83.56,31.37 84.43,31.4 L 84.43,31.47 Z M 84.43,31.47" />
        </g>
        <g id="ranaSideRight4-group557">
            <path id="ranaSideRight4-bezier556" stroke="none" fill="rgb(0, 0, 0)" d="M 82.18,29.31 C 80.81,29.86 79.47,30.48 78.2,31.18 77.56,31.54 76.97,31.96 76.35,32.32 75.73,32.67 75.13,33.04 74.5,33.46 L 74.44,33.41 C 74.77,32.71 75.34,32.15 75.94,31.69 76.54,31.23 77.25,30.94 77.93,30.64 79.3,30.04 80.71,29.58 82.16,29.23 L 82.18,29.31 Z M 82.18,29.31" />
        </g>
        <g id="ranaSideRight4-group558">
            <path id="ranaSideRight4-bezier557" stroke="none" fill="rgb(0, 0, 0)" d="M 14.12,37.51 C 13.42,38.05 12.74,38.58 12.06,39.12 11.73,39.4 11.43,39.72 11.07,39.94 10.7,40.16 10.33,40.36 9.88,40.52 L 9.82,40.47 C 9.99,40.01 10.29,39.66 10.61,39.35 10.93,39.03 11.34,38.84 11.72,38.63 12.49,38.19 13.27,37.8 14.08,37.45 L 14.12,37.51 Z M 14.12,37.51" />
        </g>
        <g id="ranaSideRight4-group559">
            <path id="ranaSideRight4-bezier558" stroke="none" fill="rgb(0, 0, 0)" d="M 10.89,38.05 C 10.14,38.44 9.39,38.84 8.66,39.24 8.29,39.46 7.95,39.71 7.56,39.86 7.17,40 6.77,40.13 6.31,40.18 L 6.27,40.12 C 6.52,39.72 6.86,39.43 7.22,39.19 7.58,38.95 8,38.84 8.41,38.7 9.21,38.41 10.03,38.16 10.87,37.97 L 10.89,38.05 Z M 10.89,38.05" />
        </g>
        <g id="ranaSideRight4-group560">
            <path id="ranaSideRight4-bezier559" stroke="none" fill="rgb(0, 0, 0)" d="M 9.22,36.87 C 8.5,36.77 7.77,36.75 7.08,36.82 6.73,36.86 6.41,36.97 6.08,36.99 5.74,37.02 5.42,37.05 5.01,37.06 L 4.97,36.99 C 5.18,36.62 5.54,36.4 5.92,36.26 6.3,36.13 6.7,36.18 7.08,36.22 7.84,36.29 8.57,36.49 9.24,36.8 L 9.22,36.87 Z M 9.22,36.87" />
        </g>
        <g id="ranaSideRight4-group561">
            <path id="ranaSideRight4-bezier560" stroke="none" fill="rgb(0, 0, 0)" d="M 72.74,32.03 C 71.45,32.25 70.19,32.64 69.03,33.18 68.45,33.45 67.92,33.81 67.37,34.11 L 65.67,35.06 65.61,35 C 65.93,34.39 66.41,33.88 66.96,33.47 67.51,33.06 68.17,32.83 68.8,32.62 70.08,32.18 71.41,31.96 72.73,31.96 L 72.74,32.03 Z M 72.74,32.03" />
        </g>
        <g id="ranaSideRight4-group562">
            <path id="ranaSideRight4-bezier561" stroke="none" fill="rgb(0, 0, 0)" d="M 64.89,31.57 C 63.33,31.86 61.8,32.25 60.33,32.75 59.59,33.01 58.9,33.36 58.19,33.64 57.49,33.94 56.81,34.25 56.14,34.7 L 56.08,34.65 C 56.46,33.9 57.16,33.37 57.86,32.97 58.58,32.57 59.38,32.37 60.15,32.18 61.71,31.79 63.29,31.57 64.88,31.49 L 64.89,31.57 Z M 64.89,31.57" />
        </g>
        <g id="ranaSideRight4-group563">
            <path id="ranaSideRight4-bezier562" stroke="none" fill="rgb(0, 0, 0)" d="M 62.15,33.46 C 61.07,34.03 60,34.64 59,35.31 58.5,35.65 58.04,36.04 57.56,36.37 57.07,36.71 56.59,37.02 56.15,37.46 L 56.08,37.43 C 56.18,36.76 56.63,36.22 57.09,35.78 57.56,35.35 58.14,35.07 58.69,34.79 59.8,34.22 60.95,33.76 62.13,33.39 L 62.15,33.46 Z M 62.15,33.46" />
        </g>
        <g id="ranaSideRight4-group564">
            <path id="ranaSideRight4-bezier563" stroke="none" fill="rgb(0, 0, 0)" d="M 53.48,35.47 C 52.62,36.11 51.81,36.81 51.06,37.55 50.69,37.93 50.37,38.35 49.99,38.7 49.6,39.06 49.21,39.4 48.75,39.74 L 48.68,39.7 C 48.81,39.13 49.1,38.64 49.43,38.2 49.77,37.76 50.23,37.43 50.67,37.1 51.53,36.43 52.46,35.86 53.44,35.4 L 53.48,35.47 Z M 53.48,35.47" />
        </g>
        <g id="ranaSideRight4-group565">
            <path id="ranaSideRight4-bezier564" stroke="none" fill="rgb(0, 0, 0)" d="M 50.08,36.38 C 48.93,37.13 47.71,37.79 46.43,38.32 45.79,38.59 45.14,38.88 44.44,38.99 43.75,39.1 43.02,39.12 42.32,38.92 L 42.32,38.85 44.27,38.26 C 44.91,38.07 45.57,37.95 46.22,37.76 47.52,37.36 48.8,36.87 50.04,36.31 L 50.08,36.38 Z M 50.08,36.38" />
        </g>
        <g id="ranaSideRight4-group566">
            <path id="ranaSideRight4-bezier565" stroke="none" fill="rgb(0, 0, 0)" d="M 42.33,38.05 C 40.87,38.68 39.41,39.32 37.97,39.99 37.25,40.33 36.56,40.73 35.84,41.03 35.14,41.36 34.34,41.57 33.77,42.06 L 33.7,42.04 C 33.81,41.59 34.18,41.31 34.48,41.04 34.8,40.78 35.15,40.56 35.5,40.36 36.21,39.95 36.98,39.71 37.74,39.44 39.24,38.88 40.77,38.4 42.31,37.98 L 42.33,38.05 Z M 42.33,38.05" />
        </g>
        <g id="ranaSideRight4-group567">
            <path id="ranaSideRight4-bezier566" stroke="none" fill="rgb(0, 0, 0)" d="M 37.12,38.22 C 36.53,38.54 35.97,39.03 35.39,39.42 34.8,39.83 34.2,40.22 33.59,40.59 32.98,40.96 32.36,41.36 31.65,41.57 30.95,41.77 30.17,41.91 29.44,41.67 L 29.45,41.59 C 30.15,41.42 30.76,41.15 31.39,40.87 32.01,40.58 32.67,40.36 33.31,40.06 33.94,39.77 34.57,39.44 35.19,39.1 35.83,38.79 36.41,38.4 37.11,38.14 L 37.12,38.22 Z M 37.12,38.22" />
        </g>
        <g id="ranaSideRight4-group568">
            <path id="ranaSideRight4-bezier567" stroke="none" fill="rgb(0, 0, 0)" d="M 32.65,39.37 C 31.54,39.66 30.44,39.95 29.35,40.27 28.81,40.43 28.28,40.65 27.74,40.76 27.19,40.88 26.64,40.94 26.09,41.09 L 26.04,41.03 C 26.41,40.51 26.99,40.26 27.52,40.04 28.07,39.82 28.65,39.77 29.22,39.68 30.35,39.49 31.49,39.37 32.63,39.29 L 32.65,39.37 Z M 32.65,39.37" />
        </g>
        <g id="ranaSideRight4-group569">
            <path id="ranaSideRight4-bezier568" stroke="none" fill="rgb(0, 0, 0)" d="M 38.04,34.71 L 33.77,36.45 C 33.06,36.75 32.38,37.1 31.66,37.34 30.93,37.59 30.21,37.81 29.47,38.04 L 29.42,37.98 C 29.97,37.38 30.68,37 31.37,36.65 32.07,36.31 32.82,36.11 33.56,35.88 35.03,35.41 36.52,35 38.02,34.64 L 38.04,34.71 Z M 38.04,34.71" />
        </g>
        <g id="ranaSideRight4-group570">
            <path id="ranaSideRight4-bezier569" stroke="none" fill="rgb(0, 0, 0)" d="M 27.99,37.06 L 23.77,38.17 C 23.07,38.36 22.38,38.61 21.67,38.73 20.96,38.86 20.25,38.96 19.5,39.02 L 19.47,38.95 C 20.09,38.5 20.79,38.24 21.49,38.01 22.19,37.78 22.92,37.7 23.64,37.59 25.08,37.34 26.53,37.15 27.98,36.99 L 27.99,37.06 Z M 27.99,37.06" />
        </g>
        <g id="ranaSideRight4-group571">
            <path id="ranaSideRight4-bezier570" stroke="none" fill="rgb(0, 0, 0)" d="M 20.1,36.81 C 18.91,37.09 17.73,37.42 16.59,37.82 16.03,38.03 15.5,38.3 14.96,38.5 14.42,38.73 13.88,38.9 13.47,39.34 L 13.4,39.32 C 13.41,38.98 13.62,38.67 13.85,38.42 14.08,38.18 14.35,37.99 14.63,37.83 15.19,37.5 15.82,37.38 16.43,37.24 17.64,36.96 18.86,36.8 20.09,36.73 L 20.1,36.81 Z M 20.1,36.81" />
        </g>
        <g id="ranaSideRight4-group572">
            <path id="ranaSideRight4-bezier571" stroke="none" fill="rgb(0, 0, 0)" d="M 12.46,33.46 C 11.28,33.67 10.1,33.9 8.94,34.14 8.36,34.27 7.79,34.45 7.21,34.52 6.62,34.6 6.05,34.64 5.44,34.71 L 5.41,34.64 C 5.87,34.19 6.48,33.97 7.05,33.79 7.64,33.61 8.25,33.59 8.85,33.54 10.05,33.43 11.25,33.39 12.45,33.39 L 12.46,33.46 Z M 12.46,33.46" />
        </g>
        <g id="ranaSideRight4-group573">
            <path id="ranaSideRight4-bezier572" stroke="none" fill="rgb(0, 0, 0)" d="M 15.01,28.31 C 13.69,28.39 12.36,28.48 11.05,28.58 10.39,28.64 9.74,28.75 9.08,28.76 8.43,28.78 7.78,28.72 7.13,28.79 L 7.09,28.72 C 7.36,28.47 7.7,28.35 8.03,28.24 8.35,28.13 8.69,28.07 9.02,28.01 9.69,27.91 10.36,27.96 11.03,27.98 12.36,28.01 13.69,28.1 15.01,28.23 L 15.01,28.31 Z M 15.01,28.31" />
        </g>
        <g id="ranaSideRight4-group574">
            <path id="ranaSideRight4-bezier573" stroke="none" fill="rgb(0, 0, 0)" d="M 20.89,23.96 C 19.82,23.53 18.75,23.12 17.68,22.77 17.14,22.59 16.58,22.48 16.06,22.28 15.54,22.08 15.04,21.86 14.48,21.63 L 14.49,21.56 C 15.08,21.38 15.7,21.45 16.27,21.56 16.85,21.68 17.38,21.96 17.9,22.21 18.95,22.7 19.96,23.27 20.92,23.9 L 20.89,23.96 Z M 20.89,23.96" />
        </g>
        <g id="ranaSideRight4-group575">
            <path id="ranaSideRight4-bezier574" stroke="none" fill="rgb(0, 0, 0)" d="M 28.83,19.13 L 25.21,17.85 C 24.6,17.64 23.98,17.49 23.4,17.23 22.82,16.97 22.27,16.66 21.68,16.4 L 21.68,16.33 C 22.37,16.19 23.03,16.36 23.65,16.52 24.28,16.7 24.85,17.01 25.43,17.29 26.6,17.84 27.74,18.43 28.86,19.06 L 28.83,19.13 Z M 28.83,19.13" />
        </g>
        <g id="ranaSideRight4-group576">
            <path id="ranaSideRight4-bezier575" stroke="none" fill="rgb(0, 0, 0)" d="M 38.01,16.4 C 36.95,15.72 35.92,15 34.92,14.24 34.42,13.86 33.89,13.51 33.46,13.03 33.25,12.79 33.05,12.54 32.88,12.26 32.74,11.98 32.49,11.67 32.6,11.27 L 32.67,11.3 C 32.95,11.76 33.55,12.09 33.99,12.49 34.46,12.88 34.87,13.35 35.31,13.78 36.21,14.64 37.13,15.49 38.05,16.34 L 38.01,16.4 Z M 38.01,16.4" />
        </g>
        <g id="ranaSideRight4-group577">
            <path id="ranaSideRight4-bezier576" stroke="none" fill="rgb(0, 0, 0)" d="M 46.96,13.86 C 46.06,13.34 45.18,12.78 44.34,12.16 43.91,11.86 43.46,11.58 43.11,11.18 42.77,10.78 42.44,10.34 42.29,9.79 L 42.35,9.75 C 42.82,10.04 43.22,10.32 43.63,10.64 44.03,10.95 44.35,11.34 44.72,11.7 45.47,12.41 46.23,13.1 47,13.8 L 46.96,13.86 Z M 46.96,13.86" />
        </g>
        <g id="ranaSideRight4-group578">
            <path id="ranaSideRight4-bezier577" stroke="none" fill="rgb(0, 0, 0)" d="M 56.09,13.86 C 55.12,13.44 54.17,12.95 53.27,12.36 52.82,12.08 52.34,11.8 51.98,11.37 51.8,11.15 51.63,10.92 51.52,10.65 51.4,10.38 51.32,10.06 51.42,9.77 L 51.49,9.77 C 51.74,10.24 52.13,10.5 52.51,10.84 52.89,11.15 53.24,11.54 53.63,11.88 54.42,12.55 55.27,13.18 56.13,13.79 L 56.09,13.86 Z M 56.09,13.86" />
        </g>
        <g id="ranaSideRight4-group579">
            <path id="ranaSideRight4-bezier578" stroke="none" fill="rgb(0, 0, 0)" d="M 59.1,14.27 C 58.37,13.73 57.68,13.13 57.08,12.42 56.78,12.07 56.45,11.7 56.3,11.22 56.16,10.77 56.13,10.12 56.54,9.75 L 56.6,9.79 C 56.62,10.26 56.81,10.57 57,10.94 57.19,11.29 57.35,11.69 57.57,12.07 58.03,12.81 58.57,13.53 59.15,14.21 L 59.1,14.27 Z M 59.1,14.27" />
        </g>
        <g id="ranaSideRight4-group580">
            <path id="ranaSideRight4-bezier579" stroke="none" fill="rgb(0, 0, 0)" d="M 64.85,14.57 C 64.12,13.89 63.38,13.21 62.64,12.56 62.26,12.25 61.85,11.97 61.51,11.63 61.16,11.28 60.86,10.92 60.49,10.56 L 60.51,10.49 C 61.08,10.49 61.56,10.77 61.99,11.05 62.42,11.34 62.73,11.76 63.06,12.14 63.73,12.9 64.34,13.69 64.91,14.52 L 64.85,14.57 Z M 64.85,14.57" />
        </g>
        <g id="ranaSideRight4-group581">
            <path id="ranaSideRight4-bezier580" stroke="none" fill="rgb(0, 0, 0)" d="M 72.72,14.88 C 71.3,14.18 69.91,13.4 68.58,12.52 67.92,12.08 67.23,11.65 66.67,11.06 66.39,10.76 66.12,10.45 65.91,10.08 65.71,9.73 65.5,9.3 65.6,8.86 L 65.68,8.86 C 65.95,9.57 66.61,10.01 67.18,10.51 67.77,10.99 68.33,11.54 68.94,12.03 70.16,13.01 71.45,13.93 72.75,14.82 L 72.72,14.88 Z M 72.72,14.88" />
        </g>
        <g id="ranaSideRight4-group582">
            <path id="ranaSideRight4-bezier581" stroke="none" fill="rgb(0, 0, 0)" d="M 76.43,12.98 C 75.68,12.42 74.96,11.84 74.26,11.21 73.91,10.91 73.52,10.62 73.25,10.24 73.11,10.04 72.98,9.84 72.88,9.61 72.78,9.39 72.66,9.15 72.7,8.86 L 72.77,8.85 C 73.1,9.16 73.48,9.42 73.81,9.74 74.15,10.05 74.4,10.44 74.69,10.8 L 76.48,12.93 76.43,12.98 Z M 76.43,12.98" />
        </g>
        <g id="ranaSideRight4-group583">
            <path id="ranaSideRight4-bezier582" stroke="none" fill="rgb(0, 0, 0)" d="M 81.89,14.58 L 79.11,13.02 C 78.64,12.77 78.15,12.57 77.72,12.27 77.28,11.97 76.89,11.63 76.45,11.32 L 76.46,11.25 C 77.07,11.17 77.6,11.4 78.09,11.61 78.59,11.84 79,12.19 79.43,12.51 80.29,13.15 81.13,13.81 81.94,14.52 L 81.89,14.58 Z M 81.89,14.58" />
        </g>
        <g id="ranaSideRight4-group584">
            <path id="ranaSideRight4-bezier583" stroke="none" fill="rgb(0, 0, 0)" d="M 90.52,17.08 C 89.56,16.44 88.63,15.74 87.76,14.97 87.32,14.59 86.85,14.21 86.51,13.72 86.19,13.23 85.86,12.66 85.9,12.02 L 85.97,12 C 86.32,12.47 86.71,12.84 87.09,13.25 87.48,13.64 87.81,14.11 88.18,14.54 88.94,15.39 89.75,16.21 90.57,17.02 L 90.52,17.08 Z M 90.52,17.08" />
        </g>
        <g id="ranaSideRight4-group585">
            <path id="ranaSideRight4-bezier584" stroke="none" fill="rgb(0, 0, 0)" d="M 36.09,18.71 C 34.9,18.01 33.75,17.24 32.66,16.38 32.11,15.96 31.54,15.54 31.09,14.99 30.66,14.45 30.23,13.82 30.14,13.08 L 30.21,13.05 C 30.66,13.59 31.15,14.02 31.64,14.48 32.13,14.93 32.57,15.45 33.06,15.93 34.04,16.87 35.07,17.77 36.13,18.65 L 36.09,18.71 Z M 36.09,18.71" />
        </g>
        <g id="ranaSideRight4-group586">
            <path id="ranaSideRight4-bezier585" stroke="none" fill="rgb(0, 0, 0)" d="M 24.62,21.19 C 23.91,20.8 23.14,20.52 22.38,20.32 21.99,20.23 21.6,20.2 21.23,20.08 20.86,19.95 20.48,19.82 20.09,19.59 L 20.09,19.51 C 20.52,19.33 20.95,19.31 21.38,19.34 21.81,19.38 22.2,19.58 22.58,19.76 23.35,20.1 24.07,20.56 24.67,21.13 L 24.62,21.19 Z M 24.62,21.19" />
        </g>
        <g id="ranaSideRight4-group587">
            <path id="ranaSideRight4-bezier586" stroke="none" fill="rgb(0, 0, 0)" d="M 22.79,26.18 C 21.07,25.88 19.34,25.61 17.61,25.4 16.75,25.3 15.88,25.26 15.03,25.14 14.18,25.04 13.34,24.89 12.47,24.89 L 12.44,24.82 C 13.27,24.4 14.22,24.39 15.09,24.4 15.98,24.42 16.85,24.63 17.71,24.8 19.43,25.15 21.13,25.6 22.81,26.11 L 22.79,26.18 Z M 22.79,26.18" />
        </g>
        <g id="ranaSideRight4-group588">
            <path id="ranaSideRight4-bezier587" stroke="none" fill="rgb(0, 0, 0)" d="M 16.77,30.39 C 15.54,30.72 14.3,31 13.05,31.21 12.42,31.32 11.79,31.46 11.14,31.44 10.5,31.41 9.83,31.34 9.23,31.03 L 9.24,30.96 C 9.89,30.86 10.49,30.77 11.11,30.69 11.72,30.61 12.35,30.64 12.98,30.61 14.24,30.54 15.5,30.44 16.76,30.32 L 16.77,30.39 Z M 16.77,30.39" />
        </g>
        <g id="ranaSideRight4-group589">
            <path id="ranaSideRight4-bezier588" stroke="none" fill="rgb(0, 0, 0)" d="M 53.48,33.14 C 52.13,33.86 50.71,34.47 49.24,34.96 48.51,35.21 47.77,35.48 47,35.57 46.22,35.65 45.42,35.67 44.65,35.47 L 44.65,35.4 C 45.41,35.18 46.13,35.01 46.86,34.83 47.59,34.65 48.34,34.55 49.08,34.39 50.55,34.03 52.01,33.59 53.45,33.07 L 53.48,33.14 Z M 53.48,33.14" />
        </g>
        <g id="ranaSideRight4-group590">
            <path id="ranaSideRight4-bezier589" stroke="none" fill="rgb(0, 0, 0)" d="M 46.96,15.57 C 45.48,15.08 43.99,14.63 42.5,14.23 41.75,14.03 40.99,13.9 40.26,13.69 39.52,13.48 38.81,13.25 38.03,13.1 L 38.02,13.03 C 38.81,12.76 39.65,12.84 40.42,12.96 41.21,13.08 41.94,13.38 42.68,13.65 44.16,14.19 45.59,14.81 46.99,15.5 L 46.96,15.57 Z M 46.96,15.57" />
        </g>
        <g id="ranaSideRight4-group591">
            <path id="ranaSideRight4-bezier590" stroke="none" fill="rgb(0, 0, 0)" d="M 39.94,23.97 C 38.04,23.73 36.14,23.44 34.26,23.09 33.32,22.92 32.36,22.78 31.44,22.49 30.98,22.33 30.52,22.18 30.08,21.97 29.64,21.76 29.18,21.56 28.83,21.19 L 28.87,21.13 C 29.76,21.42 30.71,21.54 31.63,21.76 32.56,21.96 33.47,22.25 34.39,22.5 36.24,22.98 38.09,23.44 39.95,23.89 L 39.94,23.97 Z M 39.94,23.97" />
        </g>
        <g id="ranaSideRight4-group592">
            <path id="ranaSideRight4-bezier591" stroke="none" fill="rgb(0, 0, 0)" d="M 33.13,25.58 L 29.17,24.83 C 28.51,24.72 27.84,24.65 27.2,24.49 26.55,24.33 25.93,24.1 25.27,23.97 L 25.26,23.89 C 25.94,23.62 26.66,23.69 27.33,23.75 28.01,23.82 28.66,24.05 29.3,24.24 30.6,24.61 31.88,25.04 33.15,25.5 L 33.13,25.58 Z M 33.13,25.58" />
        </g>
        <g id="ranaSideRight4-group593">
            <path id="ranaSideRight4-bezier592" stroke="none" fill="rgb(0, 0, 0)" d="M 27.98,30.39 C 26.69,30.26 25.45,29.96 24.2,29.63 23.58,29.46 22.94,29.32 22.36,29.01 22.07,28.86 21.78,28.69 21.52,28.48 21.26,28.27 20.99,28.02 20.87,27.69 L 20.93,27.64 C 21.47,27.97 22.08,28.11 22.66,28.33 23.25,28.53 23.81,28.82 24.39,29.06 24.98,29.3 25.58,29.52 26.18,29.73 26.77,29.94 27.38,30.17 27.99,30.32 L 27.98,30.39 Z M 27.98,30.39" />
        </g>
        <g id="ranaSideRight4-group594">
            <path id="ranaSideRight4-bezier593" stroke="none" fill="rgb(0, 0, 0)" d="M 20.89,34.3 C 19.65,33.85 18.41,33.42 17.16,33.04 16.53,32.86 15.89,32.74 15.29,32.53 14.67,32.32 14.09,32.1 13.44,31.94 L 13.43,31.87 C 14.1,31.61 14.82,31.69 15.47,31.8 16.14,31.93 16.75,32.22 17.36,32.48 18.59,32.99 19.77,33.58 20.92,34.23 L 20.89,34.3 Z M 20.89,34.3" />
        </g>
        <g id="ranaSideRight4-group595">
            <path id="ranaSideRight4-bezier594" stroke="none" fill="rgb(0, 0, 0)" d="M 15.84,35.43 C 14.84,35.6 13.83,35.71 12.82,35.77 12.31,35.8 11.8,35.87 11.28,35.78 10.79,35.68 10.22,35.56 9.83,35.12 L 9.87,35.06 C 10.38,35.09 10.85,35.03 11.35,35.03 11.83,35.02 12.33,35.12 12.82,35.17 13.82,35.25 14.83,35.31 15.83,35.36 L 15.84,35.43 Z M 15.84,35.43" />
        </g>
        <g id="ranaSideRight4-group596">
            <path id="ranaSideRight4-bezier595" stroke="none" fill="rgb(0, 0, 0)" d="M 34.4,32.48 C 32.71,32.81 31,33.11 29.29,33.36 28.44,33.49 27.58,33.67 26.72,33.69 25.85,33.7 24.96,33.71 24.1,33.46 L 24.1,33.39 C 24.96,33.22 25.8,33.06 26.65,32.94 27.5,32.82 28.37,32.82 29.23,32.76 L 34.39,32.4 34.4,32.48 Z M 34.4,32.48" />
        </g>
        <g id="ranaSideRight4-group597">
            <path id="ranaSideRight4-bezier596" stroke="none" fill="rgb(0, 0, 0)" d="M 46.98,30.76 C 46.51,31.05 46.1,31.54 45.67,31.95 45.23,32.36 44.79,32.77 44.34,33.18 43.89,33.58 43.44,34.01 42.89,34.31 42.35,34.58 41.71,34.87 41.04,34.71 L 41.04,34.64 C 41.59,34.38 42.01,34.01 42.49,33.67 42.95,33.32 43.47,33.04 43.97,32.7 44.46,32.37 44.94,32.01 45.43,31.66 45.94,31.33 46.38,30.92 46.97,30.68 L 46.98,30.76 Z M 46.98,30.76" />
        </g>
        <g id="ranaSideRight4-group598">
            <path id="ranaSideRight4-bezier597" stroke="none" fill="rgb(0, 0, 0)" d="M 40.4,29.82 C 38.77,29.69 37.15,29.51 35.54,29.36 34.73,29.29 33.91,29.27 33.12,29.15 32.32,29.04 31.53,28.84 30.73,28.79 L 30.71,28.72 C 31.1,28.51 31.53,28.47 31.95,28.42 32.36,28.38 32.78,28.39 33.19,28.4 34.01,28.43 34.81,28.61 35.62,28.76 L 38.02,29.23 40.4,29.75 40.4,29.82 Z M 40.4,29.82" />
        </g>
        <g id="ranaSideRight4-group599">
            <path id="ranaSideRight4-bezier598" stroke="none" fill="rgb(0, 0, 0)" d="M 42.49,27.17 C 41.58,26.86 40.67,26.57 39.77,26.3 39.31,26.17 38.85,26.1 38.42,25.93 37.98,25.76 37.59,25.56 37.12,25.41 L 37.11,25.34 C 37.59,25.07 38.14,25.13 38.62,25.21 39.11,25.29 39.54,25.53 39.98,25.74 40.86,26.14 41.7,26.6 42.52,27.1 L 42.49,27.17 Z M 42.49,27.17" />
        </g>
        <g id="ranaSideRight4-group600">
            <path id="ranaSideRight4-bezier599" stroke="none" fill="rgb(0, 0, 0)" d="M 42.49,22.09 C 41.42,21.82 40.35,21.58 39.28,21.38 38.75,21.29 38.21,21.27 37.69,21.15 37.17,21.04 36.68,20.9 36.12,20.88 L 36.1,20.81 C 36.58,20.41 37.23,20.39 37.79,20.41 38.36,20.43 38.9,20.63 39.43,20.8 40.49,21.13 41.52,21.55 42.52,22.02 L 42.49,22.09 Z M 42.49,22.09" />
        </g>
        <g id="ranaSideRight4-group601">
            <path id="ranaSideRight4-bezier600" stroke="none" fill="rgb(0, 0, 0)" d="M 46.96,20.04 C 45.99,19.46 45.01,18.91 44.02,18.41 43.52,18.17 42.99,17.99 42.52,17.73 42.04,17.49 41.6,17.2 41.05,17.08 L 41.03,17.01 C 41.3,16.84 41.64,16.83 41.94,16.85 42.25,16.87 42.54,16.95 42.81,17.04 43.38,17.23 43.84,17.57 44.32,17.89 45.27,18.52 46.16,19.22 47,19.98 L 46.96,20.04 Z M 46.96,20.04" />
        </g>
        <g id="ranaSideRight4-group602">
            <path id="ranaSideRight4-bezier601" stroke="none" fill="rgb(0, 0, 0)" d="M 57.19,17.76 C 55.94,17.2 54.72,16.58 53.52,15.9 52.92,15.56 52.3,15.25 51.77,14.79 51.5,14.56 51.25,14.32 51.02,14.04 50.8,13.77 50.57,13.46 50.51,13.08 L 50.58,13.05 C 51.06,13.51 51.66,13.82 52.22,14.19 52.78,14.55 53.29,14.99 53.85,15.39 54.95,16.18 56.09,16.94 57.23,17.7 L 57.19,17.76 Z M 57.19,17.76" />
        </g>
        <g id="ranaSideRight4-group603">
            <path id="ranaSideRight4-bezier602" stroke="none" fill="rgb(0, 0, 0)" d="M 89.78,22.8 C 88.25,22.31 86.71,21.86 85.17,21.46 84.39,21.27 83.61,21.14 82.85,20.92 82.09,20.72 81.35,20.48 80.55,20.39 L 80.54,20.32 C 81.34,20 82.21,20.09 83.01,20.19 83.82,20.31 84.58,20.61 85.34,20.88 86.87,21.42 88.35,22.04 89.81,22.73 L 89.78,22.8 Z M 89.78,22.8" />
        </g>
        <g id="ranaSideRight4-group604">
            <path id="ranaSideRight4-bezier603" stroke="none" fill="rgb(0, 0, 0)" d="M 92.08,20.57 C 90.92,20.09 89.78,19.56 88.66,18.96 88.1,18.67 87.52,18.4 87.02,17.98 86.78,17.77 86.54,17.56 86.33,17.29 86.13,17.03 85.9,16.75 85.9,16.37 L 85.97,16.36 C 86.37,16.8 86.95,17.04 87.46,17.37 87.98,17.69 88.46,18.09 88.97,18.45 90,19.15 91.05,19.83 92.12,20.5 L 92.08,20.57 Z M 92.08,20.57" />
        </g>
        <g id="ranaSideRight4-group605">
            <path id="ranaSideRight4-bezier604" stroke="none" fill="rgb(0, 0, 0)" d="M 83.59,18.55 L 79.64,17.07 C 78.98,16.83 78.31,16.64 77.68,16.35 77.04,16.07 76.43,15.74 75.79,15.44 L 75.8,15.36 C 76.55,15.27 77.26,15.46 77.94,15.65 78.62,15.86 79.25,16.2 79.88,16.51 81.15,17.13 82.39,17.78 83.62,18.48 L 83.59,18.55 Z M 83.59,18.55" />
        </g>
        <g id="ranaSideRight4-group606">
            <path id="ranaSideRight4-bezier605" stroke="none" fill="rgb(0, 0, 0)" d="M 74.91,19.13 C 73.78,18.62 72.67,18.06 71.6,17.43 71.05,17.12 70.49,16.83 70.02,16.41 69.56,15.98 69.1,15.5 68.87,14.87 L 68.93,14.83 70.48,15.82 C 70.99,16.14 71.44,16.56 71.93,16.93 72.91,17.66 73.92,18.37 74.95,19.06 L 74.91,19.13 Z M 74.91,19.13" />
        </g>
        <g id="ranaSideRight4-group607">
            <path id="ranaSideRight4-bezier606" stroke="none" fill="rgb(0, 0, 0)" d="M 81.63,23.68 C 80.25,23.23 78.87,22.79 77.48,22.38 76.79,22.18 76.08,22.04 75.41,21.81 74.73,21.59 74.08,21.28 73.39,21.2 L 73.36,21.13 C 73.72,20.92 74.13,20.94 74.5,20.94 74.88,20.95 75.25,21.01 75.61,21.08 76.34,21.23 77.01,21.54 77.68,21.81 79.03,22.35 80.36,22.96 81.66,23.61 L 81.63,23.68 Z M 81.63,23.68" />
        </g>
        <g id="ranaSideRight4-group608">
            <path id="ranaSideRight4-bezier607" stroke="none" fill="rgb(0, 0, 0)" d="M 79.93,26.27 C 79.5,26.38 79.13,26.28 78.73,26.25 78.34,26.21 77.95,26.16 77.56,26.1 76.78,25.97 76.01,25.82 75.24,25.65 74.47,25.49 73.69,25.35 72.95,25.05 72.58,24.89 72.21,24.73 71.87,24.52 71.54,24.29 71.14,24.09 70.97,23.66 L 71.04,23.63 C 71.65,24.01 72.47,24.11 73.19,24.34 73.93,24.54 74.65,24.83 75.39,25.07 76.14,25.31 76.88,25.53 77.64,25.73 78.37,25.92 79.17,26.2 79.88,26.21 L 79.93,26.27 Z M 79.93,26.27" />
        </g>
        <g id="ranaSideRight4-group609">
            <path id="ranaSideRight4-bezier608" stroke="none" fill="rgb(0, 0, 0)" d="M 72.74,27.17 L 68.82,28.18 C 68.18,28.37 67.54,28.6 66.89,28.72 66.23,28.85 65.58,28.94 64.9,29.04 L 64.86,28.98 C 65.4,28.49 66.06,28.23 66.7,28 67.35,27.77 68.03,27.7 68.7,27.6 70.04,27.38 71.38,27.21 72.73,27.1 L 72.74,27.17 Z M 72.74,27.17" />
        </g>
        <g id="ranaSideRight4-group610">
            <path id="ranaSideRight4-bezier609" stroke="none" fill="rgb(0, 0, 0)" d="M 74.92,23.21 C 73.51,22.82 72.13,22.38 70.76,21.88 70.07,21.64 69.36,21.42 68.72,21.06 68.4,20.87 68.09,20.68 67.79,20.44 67.51,20.2 67.19,19.96 67.04,19.57 L 67.11,19.53 C 67.7,19.91 68.4,20.1 69.05,20.38 69.71,20.65 70.34,21.01 70.99,21.33 72.29,21.95 73.62,22.54 74.94,23.14 L 74.92,23.21 Z M 74.92,23.21" />
        </g>
        <g id="ranaSideRight4-group611">
            <path id="ranaSideRight4-bezier610" stroke="none" fill="rgb(0, 0, 0)" d="M 69.94,18.49 C 68.58,18.07 67.21,17.68 65.85,17.33 65.16,17.16 64.47,17.05 63.8,16.86 63.13,16.69 62.49,16.45 61.79,16.4 L 61.76,16.33 C 62.1,16.13 62.49,16.08 62.86,16.06 63.23,16.04 63.6,16.08 63.96,16.13 64.68,16.23 65.35,16.51 66.02,16.75 67.37,17.23 68.68,17.8 69.96,18.42 L 69.94,18.49 Z M 69.94,18.49" />
        </g>
        <g id="ranaSideRight4-group612">
            <path id="ranaSideRight4-bezier611" stroke="none" fill="rgb(0, 0, 0)" d="M 65.85,22.42 C 64.51,22.11 63.18,21.75 61.87,21.31 61.22,21.1 60.54,20.91 59.93,20.57 59.62,20.39 59.32,20.2 59.05,19.97 58.78,19.74 58.49,19.48 58.36,19.12 L 58.43,19.08 C 58.98,19.45 59.63,19.63 60.25,19.89 60.88,20.13 61.47,20.47 62.09,20.75 63.33,21.31 64.6,21.83 65.87,22.35 L 65.85,22.42 Z M 65.85,22.42" />
        </g>
        <g id="ranaSideRight4-group613">
            <path id="ranaSideRight4-bezier612" stroke="none" fill="rgb(0, 0, 0)" d="M 53.44,20.03 C 52.68,19.47 51.89,18.94 51.1,18.46 50.69,18.23 50.26,18.07 49.89,17.82 49.5,17.58 49.15,17.33 48.71,17.09 L 48.72,17.01 C 49.23,16.85 49.76,16.98 50.22,17.15 50.69,17.33 51.07,17.67 51.44,17.97 52.19,18.58 52.87,19.25 53.49,19.98 L 53.44,20.03 Z M 53.44,20.03" />
        </g>
        <g id="ranaSideRight4-group614">
            <path id="ranaSideRight4-bezier613" stroke="none" fill="rgb(0, 0, 0)" d="M 63.41,23.97 C 62.05,23.86 60.69,23.7 59.33,23.49 58.65,23.39 57.96,23.32 57.3,23.1 56.66,22.86 55.97,22.62 55.45,22.08 L 55.49,22.02 C 56.17,22.17 56.83,22.24 57.49,22.37 58.15,22.49 58.8,22.72 59.45,22.9 L 63.43,23.89 63.41,23.97 Z M 63.41,23.97" />
        </g>
        <g id="ranaSideRight4-group615">
            <path id="ranaSideRight4-bezier614" stroke="none" fill="rgb(0, 0, 0)" d="M 52.27,25.41 C 50.99,25.14 49.71,24.86 48.43,24.61 47.79,24.49 47.14,24.42 46.52,24.25 45.89,24.08 45.29,23.88 44.65,23.68 L 44.65,23.61 C 45.32,23.39 46.01,23.44 46.67,23.52 47.33,23.6 47.95,23.83 48.58,24.03 49.83,24.42 51.07,24.86 52.29,25.34 L 52.27,25.41 Z M 52.27,25.41" />
        </g>
        <g id="ranaSideRight4-group616">
            <path id="ranaSideRight4-bezier615" stroke="none" fill="rgb(0, 0, 0)" d="M 54.84,28.54 C 54.08,28.62 53.33,28.53 52.59,28.47 51.85,28.38 51.11,28.28 50.37,28.15 49.63,28.03 48.88,27.94 48.17,27.68 47.47,27.42 46.73,27.14 46.17,26.56 L 46.21,26.5 C 46.93,26.7 47.65,26.8 48.37,26.96 49.09,27.11 49.78,27.37 50.5,27.57 51.21,27.76 51.93,27.94 52.65,28.1 53.37,28.26 54.1,28.45 54.83,28.46 L 54.84,28.54 Z M 54.84,28.54" />
        </g>
        <g id="ranaSideRight4-group617">
            <path id="ranaSideRight4-bezier616" stroke="none" fill="rgb(0, 0, 0)" d="M 61.76,27.7 C 60.55,27.29 59.36,26.85 58.17,26.39 57.57,26.17 56.96,25.98 56.4,25.67 55.84,25.36 55.29,25.02 54.82,24.54 L 54.85,24.48 C 55.51,24.58 56.11,24.77 56.71,24.99 57.31,25.21 57.85,25.55 58.41,25.84 59.54,26.42 60.67,27.02 61.79,27.63 L 61.76,27.7 Z M 61.76,27.7" />
        </g>
        <g id="ranaSideRight4-group618">
            <path id="ranaSideRight4-bezier617" stroke="none" fill="rgb(0, 0, 0)" d="M 92.88,29.11 C 91.75,29.54 90.65,30.01 89.57,30.53 89.04,30.79 88.53,31.11 88,31.34 87.45,31.57 86.92,31.8 86.34,32.03 L 86.29,31.97 C 86.62,31.42 87.13,31.01 87.64,30.68 88.17,30.35 88.76,30.17 89.34,29.97 90.49,29.57 91.67,29.26 92.86,29.03 L 92.88,29.11 Z M 92.88,29.11" />
        </g>
        <g id="ranaSideRight4-group619">
            <path id="ranaSideRight4-bezier618" stroke="none" fill="rgb(0, 0, 0)" d="M 94.81,24.53 C 94.16,23.86 93.48,23.21 92.76,22.64 92.4,22.36 92,22.14 91.66,21.87 91.31,21.6 91,21.34 90.55,21.15 L 90.55,21.08 C 91.04,20.85 91.62,21.02 92.06,21.24 92.52,21.46 92.84,21.84 93.17,22.2 93.83,22.9 94.39,23.67 94.87,24.49 L 94.81,24.53 Z M 94.81,24.53" />
        </g>
        <g id="ranaSideRight4-group620">
            <path id="ranaSideRight4-bezier619" stroke="none" fill="rgb(0, 0, 0)" d="M 30.15,16.33 C 28.99,15.68 27.79,15.12 26.56,14.68 25.94,14.47 25.3,14.35 24.7,14.18 24.09,14.02 23.49,13.88 22.81,13.86 L 22.79,13.79 C 23.39,13.4 24.16,13.37 24.84,13.45 25.54,13.54 26.18,13.84 26.79,14.13 28.01,14.71 29.15,15.44 30.2,16.26 L 30.15,16.33 Z M 30.15,16.33" />
        </g>
        <g id="ranaSideRight4-group621">
            <path id="ranaSideRight4-bezier620" stroke="none" fill="rgb(0, 0, 0)" d="M 20.09,20.77 C 19.57,20.65 19.14,20.44 18.66,20.28 18.2,20.1 17.74,19.94 17.27,19.8 16.8,19.66 16.32,19.59 15.88,19.45 15.43,19.32 15.01,19.18 14.5,19.13 L 14.47,19.06 C 14.91,18.7 15.52,18.67 16.03,18.72 16.56,18.78 17.03,19.02 17.49,19.24 17.95,19.46 18.39,19.7 18.82,19.94 19.25,20.19 19.68,20.5 20.09,20.7 L 20.09,20.77 Z M 20.09,20.77" />
        </g>
        <g id="ranaSideRight4-group622">
            <path id="ranaSideRight4-bezier621" stroke="none" fill="rgb(0, 0, 0)" d="M 41.02,11.83 C 39.98,11.28 38.88,10.88 37.77,10.59 37.21,10.45 36.64,10.4 36.09,10.26 35.54,10.12 34.99,10 34.4,9.81 L 34.4,9.73 C 34.98,9.52 35.6,9.48 36.21,9.52 36.82,9.57 37.4,9.8 37.95,10.02 39.08,10.45 40.13,11.03 41.06,11.77 L 41.02,11.83 Z M 41.02,11.83" />
        </g>
        <g id="ranaSideRight4-group623">
            <path id="ranaSideRight4-bezier622" stroke="none" fill="rgb(0, 0, 0)" d="M 99.95,34.23 C 101.73,34.04 103.34,33.17 104.79,32.17 105.52,31.67 106.2,31.12 106.91,30.56 107.65,30.01 108.43,29.54 109.27,29.17 110.12,28.81 111.01,28.52 112,28.52 112.25,28.53 112.5,28.56 112.75,28.63 112.87,28.67 113.01,28.68 113.19,28.81 113.3,28.89 113.4,29.03 113.43,29.18 113.46,29.34 113.43,29.45 113.4,29.54 113.27,29.88 113.1,30.04 112.95,30.23 112.79,30.41 112.62,30.57 112.46,30.72 111.78,31.33 111.11,31.9 110.48,32.51 110.17,32.81 109.87,33.13 109.65,33.49 109.42,33.83 109.27,34.26 109.49,34.65 L 109.43,34.7 C 109.07,34.34 109.16,33.75 109.34,33.33 109.54,32.9 109.81,32.52 110.09,32.16 110.67,31.45 111.33,30.83 111.93,30.19 112.22,29.9 112.58,29.52 112.66,29.3 112.65,29.24 112.66,29.4 112.73,29.43 112.72,29.42 112.63,29.39 112.54,29.36 112.36,29.31 112.17,29.28 111.97,29.26 111.17,29.21 110.31,29.43 109.5,29.73 108.7,30.04 107.92,30.47 107.2,30.95 106.49,31.47 105.76,32.02 104.99,32.49 103.47,33.42 101.77,34.21 99.96,34.3 L 99.95,34.23 Z M 99.95,34.23" />
        </g>
        <g id="ranaSideRight4-group624">
            <path id="ranaSideRight4-bezier623" stroke="none" fill="rgb(0, 0, 0)" d="M 98.61,28.92 C 97.33,28.38 96.04,27.88 94.73,27.47 94.07,27.28 93.4,27.15 92.76,26.97 92.12,26.78 91.5,26.6 90.8,26.57 L 90.77,26.5 C 91.42,26.11 92.22,26.14 92.92,26.23 93.64,26.34 94.29,26.63 94.94,26.91 96.23,27.46 97.46,28.12 98.64,28.86 L 98.61,28.92 Z M 98.61,28.92" />
        </g>
        <g id="ranaSideRight4-group625">
            <path id="ranaSideRight4-bezier624" stroke="none" fill="rgb(0, 0, 0)" d="M 95.93,21.39 C 95.23,20.72 94.59,20 94.03,19.2 93.75,18.8 93.45,18.39 93.31,17.89 93.19,17.41 93.13,16.78 93.5,16.35 L 93.57,16.38 C 93.63,16.87 93.83,17.23 94.02,17.63 94.21,18.03 94.35,18.47 94.55,18.89 94.97,19.72 95.46,20.54 95.98,21.34 L 95.93,21.39 Z M 95.93,21.39" />
        </g>
        <g id="ranaSideRight4-group626">
            <path id="ranaSideRight4-bezier625" stroke="none" fill="rgb(0, 0, 0)" d="M 109.18,27.69 C 108.49,27.22 107.83,26.68 107.25,26.06 106.95,25.75 106.63,25.44 106.46,25.01 106.31,24.6 106.2,24.06 106.47,23.64 L 106.54,23.65 C 106.7,24.06 106.91,24.34 107.13,24.66 107.34,24.98 107.5,25.34 107.72,25.69 108.17,26.36 108.68,27.01 109.23,27.63 L 109.18,27.69 Z M 109.18,27.69" />
        </g>
        <g id="ranaSideRight4-group627">
            <path id="ranaSideRight4-bezier626" stroke="none" fill="rgb(0, 0, 0)" d="M 104.93,25.45 C 104.29,24.6 103.62,23.77 102.92,22.99 102.57,22.61 102.17,22.28 101.84,21.89 101.5,21.51 101.19,21.13 100.78,20.77 L 100.8,20.7 C 101.4,20.69 101.93,21.02 102.36,21.35 102.79,21.7 103.09,22.17 103.39,22.62 104.01,23.51 104.54,24.44 104.99,25.41 L 104.93,25.45 Z M 104.93,25.45" />
        </g>
        <g id="ranaSideRight4-group628">
            <path id="ranaSideRight4-bezier627" stroke="none" fill="rgb(0, 0, 0)" d="M 101.35,24.74 C 100.73,24.2 100.14,23.63 99.6,23.01 99.33,22.7 99.02,22.41 98.84,22.02 98.67,21.64 98.52,21.21 98.59,20.75 L 98.66,20.73 C 98.97,21.04 99.23,21.32 99.48,21.63 99.72,21.94 99.88,22.31 100.08,22.65 100.5,23.33 100.95,24.01 101.4,24.69 L 101.35,24.74 Z M 101.35,24.74" />
        </g>
        <g id="ranaSideRight4-group629">
            <path id="ranaSideRight4-bezier628" stroke="none" fill="rgb(0, 0, 0)" d="M 102.84,30.37 C 102.2,29.51 101.53,28.66 100.82,27.87 100.46,27.47 100.06,27.13 99.73,26.74 99.38,26.36 99.09,25.97 98.62,25.69 L 98.63,25.62 C 99.25,25.49 99.81,25.87 100.25,26.2 100.69,26.56 100.99,27.04 101.29,27.5 101.92,28.4 102.44,29.35 102.91,30.34 L 102.84,30.37 Z M 102.84,30.37" />
        </g>
        <g id="ranaSideRight4-group630">
            <path id="ranaSideRight4-bezier629" stroke="none" fill="rgb(0, 0, 0)" d="M 98.64,31.93 C 97.75,32.46 96.8,32.91 95.82,33.28 95.33,33.46 94.83,33.67 94.3,33.72 93.77,33.77 93.22,33.76 92.69,33.57 L 92.69,33.49 C 93.2,33.27 93.68,33.13 94.16,32.99 94.64,32.84 95.15,32.8 95.65,32.7 96.64,32.48 97.63,32.2 98.61,31.86 L 98.64,31.93 Z M 98.64,31.93" />
        </g>
        <g id="ranaSideRight4-group631">
            <path id="ranaSideRight4-bezier630" stroke="none" fill="rgb(0, 0, 0)" d="M 109.93,35.79 C 110.27,36.66 110.56,37.55 110.79,38.47 111.01,39.38 111.2,40.35 111.1,41.32 111.05,42.24 111.07,43.17 111,44.09 110.94,45.01 110.81,45.92 110.89,46.85 L 110.82,46.87 C 110.55,46.45 110.46,45.97 110.37,45.5 110.29,45.02 110.26,44.55 110.25,44.07 110.22,43.12 110.38,42.19 110.51,41.26 110.67,40.37 110.57,39.46 110.43,38.54 110.29,37.63 110.1,36.71 109.86,35.81 L 109.93,35.79 Z M 109.93,35.79" />
        </g>
        <g id="ranaSideRight4-group632">
            <path id="ranaSideRight4-bezier631" stroke="none" fill="rgb(0, 0, 0)" d="M 111.24,47.8 C 111.36,48.15 111.44,48.52 111.47,48.89 111.49,49.08 111.55,49.28 111.46,49.47 111.41,49.57 111.36,49.67 111.26,49.75 111.17,49.83 111.03,49.94 110.87,49.89 L 110.84,49.82 C 110.82,49.6 110.73,49.48 110.73,49.31 110.71,49.16 110.82,49 110.87,48.84 L 111.17,47.8 111.24,47.8 Z M 111.24,47.8" />
        </g>
        <g id="ranaSideRight4-group633">
            <path id="ranaSideRight4-bezier632" stroke="none" fill="rgb(0, 0, 0)" d="M 109.9,49.89 C 109.22,50.11 108.5,50.27 107.76,50.31 107.39,50.32 107,50.29 106.62,50.17 106.22,50.02 105.94,49.85 105.61,49.68 104.97,49.33 104.32,49.01 103.75,48.59 103.16,48.19 102.62,47.74 102.01,47.36 L 102.03,47.28 C 102.81,47.29 103.49,47.64 104.14,47.96 104.78,48.29 105.34,48.76 105.92,49.17 106.2,49.36 106.53,49.59 106.79,49.71 107.08,49.84 107.42,49.91 107.77,49.94 108.46,50 109.18,49.94 109.88,49.82 L 109.9,49.89 Z M 109.9,49.89" />
        </g>
        <g id="ranaSideRight4-group634">
            <path id="ranaSideRight4-bezier633" stroke="none" fill="rgb(0, 0, 0)" d="M 104.95,50.16 C 103.61,50.06 102.26,49.9 100.93,49.62 100.27,49.47 99.61,49.3 98.96,49.03 98.64,48.89 98.32,48.73 98.02,48.49 97.88,48.37 97.73,48.22 97.63,48.03 L 97.51,47.79 C 97.46,47.74 97.46,47.72 97.4,47.67 97.04,47.33 96.35,47.28 95.74,47.31 95.1,47.35 94.45,47.45 93.82,47.58 93.49,47.64 93.17,47.71 92.86,47.8 92.71,47.84 92.56,47.89 92.42,47.95 92.33,47.99 92.34,47.98 92.23,48.05 92.06,48.14 92,48.12 91.9,48.15 91.19,48.25 90.53,48.25 89.84,48.23 L 89.83,48.16 C 90.48,47.97 91.16,47.83 91.77,47.64 91.84,47.62 91.94,47.57 91.92,47.58 91.95,47.55 92.09,47.45 92.16,47.42 92.33,47.33 92.49,47.26 92.65,47.19 92.98,47.06 93.31,46.95 93.64,46.85 94.32,46.68 95.01,46.57 95.72,46.57 96.41,46.6 97.22,46.63 97.84,47.26 97.91,47.33 97.99,47.46 98.04,47.54 L 98.13,47.77 C 98.18,47.87 98.27,47.98 98.38,48.08 98.59,48.28 98.87,48.44 99.16,48.58 99.74,48.87 100.38,49.08 101.02,49.26 102.3,49.63 103.63,49.89 104.96,50.09 L 104.95,50.16 Z M 104.95,50.16" />
        </g>
        <g id="ranaSideRight4-group635">
            <path id="ranaSideRight4-bezier634" stroke="none" fill="rgb(0, 0, 0)" d="M 109.46,41.33 C 109.44,41.61 109.4,41.91 109.25,42.18 109.13,42.45 108.85,42.7 108.48,42.74 108.12,42.76 107.78,42.54 107.58,42.27 107.37,42 107.26,41.67 107.24,41.33 107.22,41 107.28,40.63 107.47,40.31 107.65,40 108.04,39.72 108.48,39.74 108.93,39.76 109.25,40.1 109.36,40.41 109.48,40.73 109.47,41.04 109.46,41.33 Z M 109.39,41.33 C 109.38,41.05 109.22,40.79 109.02,40.64 108.82,40.48 108.61,40.46 108.48,40.49 108.24,40.51 107.88,40.85 107.84,41.33 107.79,41.78 108.05,42.32 108.48,42.36 108.92,42.44 109.45,41.9 109.39,41.33 Z M 109.39,41.33" />
        </g>
        <g id="ranaSideRight4-group636">
            <path id="ranaSideRight4-bezier635" stroke="none" fill="rgb(0, 0, 0)" d="M 21.69,41.1 C 20.16,41.74 18.58,42.28 16.95,42.66 16.14,42.86 15.32,43.06 14.46,43.07 13.62,43.07 12.74,42.97 11.96,42.58 L 11.98,42.51 C 12.83,42.49 13.61,42.42 14.42,42.32 15.22,42.22 16.03,42.19 16.84,42.07 18.46,41.83 20.07,41.47 21.67,41.03 L 21.69,41.1 Z M 21.69,41.1" />
        </g>
        <g id="ranaSideRight4-group637">
            <path id="ranaSideRight4-bezier636" stroke="none" fill="rgb(0, 0, 0)" d="M 80.54,49.33 C 78.17,49.22 75.78,49.21 73.41,49.33 71.03,49.46 68.67,49.73 66.39,50.44 64.04,50.99 61.64,51.08 59.26,51.18 56.88,51.27 54.5,51.31 52.13,51.48 50.95,51.56 49.77,51.68 48.61,51.87 47.47,52.07 46.27,52.35 45.08,52.48 42.7,52.79 40.3,52.85 37.91,52.86 35.52,52.86 33.13,52.69 30.75,52.45 28.38,52.17 26,51.82 23.72,51.06 L 23.75,50.99 C 24.9,51.28 26.08,51.44 27.26,51.58 28.43,51.72 29.62,51.82 30.8,51.89 33.17,52.06 35.54,52.1 37.91,52.11 40.28,52.12 42.65,52.02 45,51.79 46.18,51.69 47.31,51.45 48.52,51.26 49.71,51.1 50.91,50.99 52.1,50.93 54.49,50.8 56.87,50.8 59.25,50.76 61.62,50.69 64.02,50.65 66.33,50.17 68.62,49.5 71.02,49.26 73.4,49.16 75.78,49.07 78.17,49.11 80.55,49.26 L 80.54,49.33 Z M 80.54,49.33" />
        </g>
        <g id="ranaSideRight4-group638">
            <path id="ranaSideRight4-bezier637" stroke="none" fill="rgb(0, 0, 0)" d="M 11.99,41.36 C 11.17,42.03 10.35,42.71 9.55,43.4 9.15,43.75 8.8,44.14 8.38,44.44 7.97,44.76 7.52,45.01 7.15,45.37 L 7.07,45.35 C 7.07,45.04 7.22,44.77 7.37,44.53 7.51,44.29 7.7,44.08 7.88,43.88 8.26,43.48 8.74,43.21 9.19,42.92 10.08,42.33 11.01,41.79 11.95,41.3 L 11.99,41.36 Z M 11.99,41.36" />
        </g>
        <g id="ranaSideRight4-group639">
            <path id="ranaSideRight4-bezier638" stroke="none" fill="rgb(0, 0, 0)" d="M 9.26,45.33 C 11.04,46.45 12.86,47.5 14.74,48.43 15.68,48.88 16.65,49.25 17.6,49.66 18.55,50.05 19.49,50.44 20.54,50.57 L 20.54,50.65 C 19.47,50.93 18.35,50.67 17.33,50.36 16.31,50.03 15.37,49.49 14.46,48.96 12.61,47.9 10.87,46.7 9.21,45.39 L 9.26,45.33 Z M 9.26,45.33" />
        </g>
        <g id="ranaSideRight4-group640">
            <path id="ranaSideRight4-bezier639" stroke="none" fill="rgb(0, 0, 0)" d="M 108.01,34.47 C 108.03,34.34 108.03,34.15 107.97,34.15 107.94,34.15 107.79,34.19 107.66,34.25 107.59,34.27 107.52,34.3 107.43,34.32 107.35,34.32 107.22,34.38 107.03,34.23 106.95,34.15 106.92,34.04 106.91,33.97 L 106.91,33.95 C 106.91,34.03 106.91,33.96 106.91,33.98 L 106.9,33.95 C 106.89,33.99 106.95,34.07 106.96,34.08 107.07,34.14 107,34.11 106.96,34.14 106.76,34.22 106.52,34.41 106.25,34.47 106.1,34.51 105.96,34.54 105.8,34.55 L 105.67,34.55 105.6,34.55 105.53,34.55 105.51,34.55 C 105.47,34.55 105.42,34.53 105.38,34.5 105.32,34.44 105.32,34.36 105.35,34.29 105.5,34.15 105.54,34.21 105.65,34.19 L 105.69,34.25 C 105.68,34.32 105.6,34.45 105.66,34.43 105.69,34.36 105.68,34.3 105.63,34.24 105.6,34.21 105.55,34.19 105.52,34.19 105.5,34.19 105.51,34.19 105.51,34.19 105.5,34.19 105.48,34.19 105.49,34.18 105.5,34.17 105.51,34.16 105.52,34.15 L 105.6,34.07 C 105.7,33.96 105.82,33.87 105.95,33.79 106.21,33.63 106.51,33.58 106.87,33.55 106.97,33.56 107.07,33.5 107.3,33.65 107.34,33.67 107.42,33.79 107.42,33.86 L 107.43,33.89 107.43,33.95 107.43,33.95 C 107.42,33.96 107.42,33.92 107.38,33.89 107.3,33.84 107.34,33.89 107.39,33.89 107.45,33.89 107.52,33.89 107.59,33.88 107.74,33.9 107.91,33.82 108.13,33.99 108.27,34.23 108.13,34.37 108.08,34.5 L 108.01,34.47 Z M 108.01,34.47" />
        </g>
        <g id="ranaSideRight4-group641">
            <path id="ranaSideRight4-bezier640" stroke="none" fill="rgb(0, 0, 0)" d="M 15.87,50.63 C 15.59,51.46 15.32,52.29 15.1,53.13 15,53.54 14.96,53.97 14.83,54.36 14.71,54.76 14.54,55.11 14.52,55.55 L 14.45,55.59 C 14.05,55.23 14.06,54.65 14.09,54.21 14.14,53.74 14.35,53.33 14.54,52.93 14.89,52.11 15.32,51.34 15.8,50.59 L 15.87,50.63 Z M 15.87,50.63" />
        </g>
        <g id="ranaSideRight4-group642">
            <path id="ranaSideRight4-bezier641" stroke="none" fill="rgb(0, 0, 0)" d="M 15.43,55.56 C 15.72,56 15.98,56.46 16.21,56.94 16.42,57.43 16.63,57.93 16.69,58.51 16.72,58.99 17.01,59.13 17.4,59.38 17.8,59.61 18.27,59.79 18.77,60.01 L 18.77,60.08 C 18.23,60.27 17.65,60.26 17.09,60.06 16.81,59.95 16.53,59.78 16.33,59.49 16.23,59.35 16.15,59.18 16.12,59.01 16.1,58.93 16.09,58.84 16.08,58.74 L 16.09,58.54 C 16.11,58.07 16,57.56 15.86,57.07 15.73,56.57 15.56,56.08 15.36,55.59 L 15.43,55.56 Z M 15.43,55.56" />
        </g>
        <g id="ranaSideRight4-group643">
            <path id="ranaSideRight4-bezier642" stroke="none" fill="rgb(0, 0, 0)" d="M 18.41,58.2 C 18.89,58.37 19.33,58.63 19.72,58.99 19.92,59.17 20.14,59.36 20.22,59.63 20.29,59.9 20.29,60.21 20.13,60.48 L 20.05,60.49 C 19.81,60.28 19.68,60.12 19.54,59.96 19.41,59.79 19.37,59.57 19.25,59.37 19.02,58.99 18.72,58.61 18.38,58.27 L 18.41,58.2 Z M 18.41,58.2" />
        </g>
        <g id="ranaSideRight4-group644">
            <path id="ranaSideRight4-bezier643" stroke="none" fill="rgb(0, 0, 0)" d="M 20.55,58.2 C 20.98,58.24 21.41,58.42 21.76,58.74 21.94,58.89 22.14,59.07 22.19,59.32 22.23,59.56 22.18,59.83 22,60.05 L 21.92,60.05 C 21.7,59.86 21.6,59.72 21.48,59.59 21.38,59.46 21.38,59.28 21.3,59.12 21.13,58.81 20.86,58.51 20.53,58.27 L 20.55,58.2 Z M 20.55,58.2" />
        </g>
        <g id="ranaSideRight4-group646">
            <path id="ranaSideRight4-bezier644" stroke="none" fill="rgb(0, 0, 0)" d="M 23.3,59.37 C 23.13,59.08 22.96,58.8 22.78,58.57 22.68,58.46 22.54,58.4 22.51,58.3 22.47,58.19 22.49,58.07 22.36,57.85 L 22.37,57.77 C 22.58,57.58 22.88,57.66 23.05,57.78 23.24,57.91 23.28,58.13 23.32,58.31 23.41,58.67 23.42,59.01 23.37,59.35 L 23.3,59.37 Z M 23.3,59.37" />
        </g>
        <g id="ranaSideRight4-group647">
            <path id="ranaSideRight4-bezier645" stroke="none" fill="rgb(0, 0, 0)" d="M 20.88,57.08 C 20.01,56.48 19.2,55.79 18.55,54.89 18.24,54.45 17.9,53.95 17.88,53.32 17.85,52.7 18.21,52.05 18.74,51.83 L 18.8,51.89 C 18.58,52.4 18.54,52.82 18.63,53.25 18.72,53.66 18.84,54.13 19.07,54.58 19.54,55.45 20.2,56.27 20.93,57.02 L 20.88,57.08 Z M 20.88,57.08" />
        </g>
        <g id="ranaSideRight4-group648">
            <path id="ranaSideRight4-bezier646" stroke="none" fill="rgb(0, 0, 0)" d="M 32.65,53.06 C 33.32,53.32 33.96,53.63 34.58,54 35.18,54.39 35.79,54.81 36.24,55.47 36.46,55.79 36.64,56.26 36.52,56.74 L 36.34,57.25 C 36.29,57.39 36.25,57.53 36.25,57.65 36.22,57.88 36.28,58.01 36.56,58.17 36.83,58.32 37.18,58.41 37.52,58.55 L 37.52,58.62 C 37.16,58.69 36.8,58.74 36.39,58.67 36.19,58.63 35.96,58.54 35.78,58.35 35.59,58.16 35.51,57.88 35.5,57.65 35.5,57.41 35.54,57.2 35.6,57.01 35.66,56.82 35.78,56.61 35.81,56.53 35.89,56.32 35.86,56.05 35.72,55.77 35.43,55.22 34.9,54.74 34.36,54.31 33.82,53.87 33.24,53.48 32.62,53.13 L 32.65,53.06 Z M 32.65,53.06" />
        </g>
        <g id="ranaSideRight4-group649">
            <path id="ranaSideRight4-bezier647" stroke="none" fill="rgb(0, 0, 0)" d="M 40.42,57.33 C 40.76,57.39 41.08,57.48 41.4,57.63 41.56,57.7 41.75,57.74 41.85,57.91 41.94,58.07 42.06,58.35 41.87,58.58 L 41.8,58.58 C 41.58,58.49 41.46,58.52 41.33,58.45 41.2,58.39 41.14,58.24 41.04,58.11 40.84,57.88 40.61,57.64 40.39,57.39 L 40.42,57.33 Z M 40.42,57.33" />
        </g>
        <g id="ranaSideRight4-group650">
            <path id="ranaSideRight4-bezier648" stroke="none" fill="rgb(0, 0, 0)" d="M 39.27,56.38 C 38.83,55.88 38.37,55.4 37.89,54.96 37.65,54.74 37.37,54.57 37.17,54.32 36.97,54.06 36.78,53.81 36.62,53.45 L 36.66,53.39 C 37.06,53.41 37.39,53.57 37.68,53.77 37.97,53.97 38.15,54.28 38.34,54.56 38.74,55.12 39.08,55.71 39.34,56.34 L 39.27,56.38 Z M 39.27,56.38" />
        </g>
        <g id="ranaSideRight4-group651">
            <path id="ranaSideRight4-bezier649" stroke="none" fill="rgb(0, 0, 0)" d="M 107.52,43.26 C 107.06,43.03 106.65,42.7 106.32,42.27 106.15,42.06 105.95,41.82 105.93,41.51 105.92,41.22 106,40.89 106.25,40.69 L 106.33,40.7 C 106.48,40.98 106.57,41.16 106.67,41.35 106.76,41.53 106.76,41.75 106.84,41.97 107,42.39 107.26,42.81 107.57,43.21 L 107.52,43.26 Z M 107.52,43.26" />
        </g>
    </g>
</svg>
