<?xml version="1.0" encoding="UTF-8"?>
<!DOCTYPE svg PUBLIC "-//W3C//DTD SVG 1.1//EN" "http://www.w3.org/Graphics/SVG/1.1/DTD/svg11.dtd">
<svg version="1.1" xmlns="http://www.w3.org/2000/svg" xmlns:xlink="http://www.w3.org/1999/xlink" width="120" height="60"  xml:space="preserve" id="rana5">
    <!-- Generated by PaintCode - http://www.paintcodeapp.com -->
    <g id="rana5-group2">
        <g id="rana5-group419">
            <path id="rana5-bezier418" stroke="none" fill="rgb(0, 0, 0)" d="M 98.3,29.01 C 97.19,27.98 95.81,27.15 94.32,26.99 93.59,26.91 92.84,27.04 92.2,27.35 91.52,27.67 90.95,28.12 90.52,28.7 90.1,29.28 89.85,29.97 89.7,30.69 L 89.48,31.82 C 89.43,32.01 89.39,32.21 89.27,32.45 89.04,32.82 89.13,32.64 89.07,32.85 88.98,33.5 89.11,34.3 89.15,35.06 89.17,35.45 89.2,35.84 89.2,36.23 89.19,36.43 89.17,36.63 89.14,36.83 89.1,37.02 89.05,37.25 88.86,37.38 L 88.82,37.32 C 89,37.03 88.9,36.61 88.85,36.25 88.8,35.88 88.72,35.51 88.63,35.13 88.49,34.37 88.3,33.65 88.33,32.75 88.36,32.62 88.35,32.54 88.44,32.34 88.51,32.23 88.49,32.26 88.55,32.17 88.56,32.16 88.57,32.14 88.58,32.11 88.64,32 88.68,31.82 88.72,31.65 88.79,31.29 88.87,30.9 88.98,30.51 89.19,29.75 89.52,28.97 90.05,28.34 90.56,27.69 91.26,27.21 91.99,26.91 92.75,26.59 93.58,26.49 94.37,26.62 95.96,26.9 97.3,27.85 98.35,28.96 L 98.3,29.01 Z M 98.3,29.01" />
        </g>
        <g id="rana5-group420">
            <path id="rana5-bezier419" stroke="none" fill="rgb(0, 0, 0)" d="M 110.74,47.24 C 111.2,47.25 111.66,47.31 112.11,47.46 112.56,47.62 113.03,47.88 113.3,48.38 113.51,48.77 113.87,49.24 113.66,49.91 113.54,50.23 113.28,50.44 113.03,50.53 112.78,50.63 112.54,50.67 112.29,50.64 L 112.26,50.57 C 112.62,50.24 112.94,49.93 112.94,49.69 112.97,49.47 112.91,49.05 112.76,48.63 112.65,48.3 112.33,48 111.96,47.8 111.59,47.58 111.16,47.42 110.73,47.32 L 110.74,47.24 Z M 110.74,47.24" />
        </g>
        <g id="rana5-group421">
            <path id="rana5-bezier420" stroke="none" fill="rgb(0, 0, 0)" d="M 110.76,50.86 C 110.27,51.42 109.49,51.43 108.83,51.43 108.15,51.4 107.48,51.27 106.82,51.1 105.5,50.74 104.27,50.21 103,49.79 101.73,49.35 100.45,48.98 99.2,48.51 97.95,48.04 96.72,47.52 95.44,47.16 L 95.44,47.09 C 96.83,47.02 98.14,47.46 99.44,47.79 100.73,48.18 101.97,48.71 103.21,49.23 104.46,49.73 105.67,50.32 106.93,50.74 107.55,50.95 108.19,51.13 108.85,51.21 109.48,51.26 110.23,51.28 110.69,50.82 L 110.76,50.86 Z M 110.76,50.86" />
        </g>
        <g id="rana5-group422">
            <path id="rana5-bezier421" stroke="none" fill="rgb(0, 0, 0)" d="M 106.21,51.36 C 105.48,51.96 104.39,52.18 103.46,51.83 L 100.79,50.98 C 99.9,50.71 99,50.52 98.12,50.25 97.24,49.99 96.36,49.74 95.44,49.51 L 95.44,49.44 C 96.39,49.26 97.37,49.35 98.3,49.53 99.23,49.71 100.11,50.07 100.99,50.41 L 103.59,51.48 C 104.39,51.88 105.38,51.79 106.17,51.3 L 106.21,51.36 Z M 106.21,51.36" />
        </g>
        <g id="rana5-group423">
            <path id="rana5-bezier422" stroke="none" fill="rgb(0, 0, 0)" d="M 103.16,41.1 C 103.15,41.92 102.51,42.82 101.54,42.87 100.6,42.93 99.67,42.11 99.65,41.1 99.63,40.61 99.81,40.09 100.16,39.71 100.5,39.33 101.03,39.12 101.54,39.14 102.05,39.15 102.53,39.45 102.8,39.83 103.08,40.22 103.17,40.68 103.16,41.1 Z M 103.09,41.09 C 103.08,40.68 102.83,40.31 102.52,40.12 102.2,39.91 101.85,39.87 101.54,39.89 100.92,39.92 100.3,40.4 100.25,41.09 100.19,41.78 100.79,42.47 101.54,42.49 101.9,42.52 102.29,42.41 102.6,42.16 102.91,41.91 103.11,41.51 103.09,41.09 Z M 103.09,41.09" />
        </g>
        <g id="rana5-group424">
            <path id="rana5-bezier423" stroke="none" fill="rgb(0, 0, 0)" d="M 104.38,41.53 C 104.22,40.94 103.99,40.37 103.69,39.89 103.53,39.65 103.32,39.47 103.18,39.25 103.04,39.02 102.9,38.8 102.72,38.48 L 102.75,38.42 C 103.12,38.37 103.47,38.52 103.74,38.75 104.01,38.98 104.13,39.32 104.23,39.63 104.45,40.26 104.51,40.9 104.45,41.53 L 104.38,41.53 Z M 104.38,41.53" />
        </g>
        <g id="rana5-group425">
            <path id="rana5-bezier424" stroke="none" fill="rgb(0, 0, 0)" d="M 98.49,41.29 C 98.83,42.13 99.46,42.85 100.21,43.18 100.6,43.34 101.01,43.37 101.41,43.45 101.82,43.53 102.25,43.58 102.74,43.68 L 102.75,43.76 C 102.35,44.05 101.85,44.18 101.35,44.19 100.84,44.21 100.34,43.98 99.93,43.7 99.06,43.15 98.56,42.23 98.42,41.31 L 98.49,41.29 Z M 98.49,41.29" />
        </g>
        <g id="rana5-group426">
            <path id="rana5-bezier425" stroke="none" fill="rgb(0, 0, 0)" d="M 110.7,46.17 C 110.05,45.56 109.47,44.88 108.98,44.13 108.5,43.39 108.08,42.55 107.99,41.62 107.76,39.85 107.98,38.04 106.99,36.56 106.29,34.82 106.1,33 106.22,31.19 106.38,29.4 106.83,27.57 107.87,26.09 L 107.93,26.13 C 107.3,27.78 106.99,29.5 106.96,31.23 106.94,32.94 106.98,34.74 107.54,36.32 107.6,36.48 107.72,36.69 107.82,36.91 107.91,37.13 108,37.35 108.05,37.58 108.17,38.03 108.23,38.49 108.26,38.93 108.31,39.83 108.3,40.71 108.36,41.59 108.4,42.44 108.74,43.26 109.17,44.01 109.61,44.77 110.15,45.48 110.75,46.12 L 110.7,46.17 Z M 110.7,46.17" />
        </g>
        <g id="rana5-group427">
            <path id="rana5-bezier426" stroke="none" fill="rgb(0, 0, 0)" d="M 83.68,28.9 C 82.71,28.81 81.73,28.78 80.78,28.81 80.3,28.83 79.83,28.92 79.36,28.92 78.89,28.91 78.44,28.91 77.91,28.9 L 77.89,28.83 C 78.28,28.45 78.79,28.27 79.29,28.17 79.79,28.07 80.3,28.15 80.8,28.21 81.79,28.31 82.76,28.53 83.7,28.82 L 83.68,28.9 Z M 83.68,28.9" />
        </g>
        <g id="rana5-group428">
            <path id="rana5-bezier427" stroke="none" fill="rgb(0, 0, 0)" d="M 79.28,33.18 C 78.51,33.38 77.81,33.77 77.18,34.21 76.86,34.44 76.6,34.72 76.27,34.93 75.94,35.13 75.6,35.32 75.18,35.47 L 75.12,35.42 C 75.25,34.99 75.51,34.64 75.8,34.34 76.1,34.04 76.5,33.87 76.87,33.69 77.63,33.34 78.44,33.1 79.27,33.1 L 79.28,33.18 Z M 79.28,33.18" />
        </g>
        <g id="rana5-group429">
            <path id="rana5-bezier428" stroke="none" fill="rgb(0, 0, 0)" d="M 77.23,31.9 C 75.95,32.5 74.71,33.19 73.55,33.96 72.98,34.36 72.45,34.81 71.89,35.21 71.33,35.6 70.79,36.01 70.22,36.46 L 70.16,36.42 C 70.41,35.72 70.89,35.12 71.42,34.63 71.96,34.12 72.61,33.78 73.24,33.45 74.51,32.77 75.84,32.23 77.2,31.82 L 77.23,31.9 Z M 77.23,31.9" />
        </g>
        <g id="rana5-group430">
            <path id="rana5-bezier429" stroke="none" fill="rgb(0, 0, 0)" d="M 11.88,48.89 C 11.49,49.38 11.11,49.87 10.76,50.37 10.59,50.62 10.46,50.9 10.25,51.11 10.04,51.32 9.82,51.51 9.52,51.71 L 9.45,51.68 C 9.38,51.31 9.5,50.96 9.64,50.67 9.8,50.38 10.07,50.18 10.31,49.97 10.78,49.54 11.29,49.16 11.83,48.83 L 11.88,48.89 Z M 11.88,48.89" />
        </g>
        <g id="rana5-group431">
            <path id="rana5-bezier430" stroke="none" fill="rgb(0, 0, 0)" d="M 17.84,45.33 C 17.03,46.04 16.24,46.77 15.46,47.5 15.08,47.87 14.74,48.28 14.33,48.61 13.94,48.95 13.5,49.22 13.15,49.62 L 13.07,49.6 C 13.05,49.29 13.19,49.01 13.32,48.76 13.46,48.5 13.63,48.28 13.81,48.07 14.17,47.65 14.64,47.35 15.08,47.04 15.95,46.39 16.86,45.81 17.8,45.27 L 17.84,45.33 Z M 17.84,45.33" />
        </g>
        <g id="rana5-group432">
            <path id="rana5-bezier431" stroke="none" fill="rgb(0, 0, 0)" d="M 23.06,45.33 C 22.27,45.67 21.47,45.98 20.67,46.26 20.26,46.41 19.87,46.6 19.44,46.65 19.02,46.7 18.57,46.73 18.11,46.59 L 18.1,46.51 C 18.48,46.25 18.87,46.07 19.27,45.92 19.66,45.78 20.09,45.75 20.51,45.68 21.35,45.53 22.19,45.39 23.03,45.26 L 23.06,45.33 Z M 23.06,45.33" />
        </g>
        <g id="rana5-group433">
            <path id="rana5-bezier432" stroke="none" fill="rgb(0, 0, 0)" d="M 11.88,46.58 C 11.34,47.14 10.79,47.7 10.24,48.24 9.97,48.52 9.73,48.83 9.42,49.05 9.1,49.28 8.76,49.45 8.39,49.63 L 8.33,49.59 C 8.4,49.13 8.67,48.8 8.92,48.5 9.18,48.19 9.53,48 9.85,47.78 10.5,47.33 11.16,46.91 11.83,46.52 L 11.88,46.58 Z M 11.88,46.58" />
        </g>
        <g id="rana5-group434">
            <path id="rana5-bezier433" stroke="none" fill="rgb(0, 0, 0)" d="M 15.13,42.02 C 14.5,42.6 13.88,43.18 13.27,43.77 12.97,44.07 12.71,44.4 12.37,44.65 12.03,44.9 11.69,45.13 11.26,45.32 L 11.2,45.27 C 11.32,44.81 11.58,44.44 11.86,44.1 12.15,43.77 12.53,43.55 12.89,43.31 13.59,42.81 14.33,42.36 15.09,41.95 L 15.13,42.02 Z M 15.13,42.02" />
        </g>
        <g id="rana5-group435">
            <path id="rana5-bezier434" stroke="none" fill="rgb(0, 0, 0)" d="M 12.19,42.6 C 11.5,43.03 10.82,43.46 10.16,43.9 9.83,44.12 9.53,44.39 9.17,44.56 8.81,44.72 8.45,44.87 8.01,44.95 L 7.96,44.89 C 8.16,44.49 8.46,44.18 8.78,43.92 9.1,43.66 9.49,43.53 9.87,43.37 10.61,43.04 11.38,42.76 12.16,42.53 L 12.19,42.6 Z M 12.19,42.6" />
        </g>
        <g id="rana5-group436">
            <path id="rana5-bezier435" stroke="none" fill="rgb(0, 0, 0)" d="M 10.66,41.31 C 10,41.19 9.32,41.16 8.7,41.23 8.38,41.27 8.09,41.39 7.8,41.41 7.5,41.44 7.21,41.48 6.82,41.52 L 6.77,41.46 C 6.93,41.09 7.25,40.84 7.6,40.69 7.95,40.54 8.34,40.59 8.7,40.63 9.41,40.7 10.08,40.91 10.68,41.24 L 10.66,41.31 Z M 10.66,41.31" />
        </g>
        <g id="rana5-group437">
            <path id="rana5-bezier436" stroke="none" fill="rgb(0, 0, 0)" d="M 111.38,49.89 C 111.13,49.83 110.89,49.7 110.7,49.48 110.6,49.38 110.47,49.24 110.49,49.07 110.52,48.9 110.64,48.73 110.86,48.68 L 110.94,48.7 111.24,48.98 C 111.3,49.04 111.23,49.12 111.23,49.21 111.25,49.39 111.32,49.61 111.42,49.83 L 111.38,49.89 Z M 111.38,49.89" />
        </g>
        <g id="rana5-group438">
            <path id="rana5-bezier437" stroke="none" fill="rgb(0, 0, 0)" d="M 68.61,34.9 C 67.39,35.13 66.22,35.57 65.17,36.16 64.65,36.46 64.19,36.85 63.69,37.18 63.19,37.5 62.71,37.86 62.17,38.22 L 62.11,38.17 C 62.34,37.55 62.75,37.02 63.23,36.59 63.71,36.14 64.31,35.87 64.91,35.62 66.09,35.12 67.35,34.84 68.61,34.82 L 68.61,34.9 Z M 68.61,34.9" />
        </g>
        <g id="rana5-group439">
            <path id="rana5-bezier438" stroke="none" fill="rgb(0, 0, 0)" d="M 61.45,35.48 C 60,35.8 58.57,36.22 57.22,36.78 56.55,37.08 55.93,37.44 55.3,37.77 54.66,38.09 54.07,38.45 53.47,38.92 L 53.41,38.88 C 53.69,38.14 54.28,37.56 54.91,37.12 55.55,36.68 56.3,36.44 57.02,36.22 58.46,35.77 59.95,35.51 61.44,35.41 L 61.45,35.48 Z M 61.45,35.48" />
        </g>
        <g id="rana5-group440">
            <path id="rana5-bezier439" stroke="none" fill="rgb(0, 0, 0)" d="M 58.96,37.56 C 57.94,38.19 56.96,38.87 56.04,39.6 55.59,39.98 55.19,40.41 54.75,40.77 54.31,41.14 53.88,41.49 53.48,41.96 L 53.41,41.93 C 53.44,41.28 53.82,40.7 54.22,40.23 54.64,39.76 55.17,39.44 55.69,39.12 56.72,38.47 57.8,37.93 58.92,37.49 L 58.96,37.56 Z M 58.96,37.56" />
        </g>
        <g id="rana5-group441">
            <path id="rana5-bezier440" stroke="none" fill="rgb(0, 0, 0)" d="M 51.05,39.77 C 50.24,40.48 49.51,41.26 48.83,42.07 48.5,42.48 48.22,42.93 47.87,43.32 47.51,43.71 47.16,44.09 46.72,44.46 L 46.66,44.43 C 46.74,43.85 46.98,43.34 47.27,42.87 47.56,42.39 47.99,42.03 48.39,41.66 49.19,40.91 50.06,40.25 51,39.7 L 51.05,39.77 Z M 51.05,39.77" />
        </g>
        <g id="rana5-group442">
            <path id="rana5-bezier441" stroke="none" fill="rgb(0, 0, 0)" d="M 47.94,40.77 C 46.93,41.57 45.84,42.27 44.68,42.86 44.1,43.15 43.51,43.46 42.85,43.6 42.2,43.72 41.51,43.77 40.86,43.56 L 40.86,43.49 C 41.49,43.28 42.07,43.09 42.65,42.87 43.23,42.66 43.84,42.52 44.44,42.31 45.62,41.86 46.78,41.32 47.9,40.7 L 47.94,40.77 Z M 47.94,40.77" />
        </g>
        <g id="rana5-group443">
            <path id="rana5-bezier442" stroke="none" fill="rgb(0, 0, 0)" d="M 40.87,42.6 C 39.52,43.29 38.18,44 36.86,44.73 36.21,45.11 35.59,45.53 34.92,45.87 34.28,46.24 33.56,46.5 33.06,47.02 L 32.99,47 C 33.05,46.57 33.36,46.26 33.63,45.98 33.91,45.69 34.22,45.46 34.54,45.23 35.18,44.79 35.89,44.51 36.59,44.2 37.99,43.58 39.41,43.03 40.84,42.54 L 40.87,42.6 Z M 40.87,42.6" />
        </g>
        <g id="rana5-group444">
            <path id="rana5-bezier443" stroke="none" fill="rgb(0, 0, 0)" d="M 36.11,42.79 C 35.59,43.14 35.09,43.65 34.58,44.07 34.06,44.51 33.53,44.93 32.98,45.33 32.43,45.74 31.87,46.16 31.21,46.41 30.56,46.65 29.8,46.83 29.11,46.58 L 29.11,46.51 C 29.77,46.34 30.32,46.04 30.9,45.73 31.46,45.42 32.07,45.16 32.65,44.83 33.23,44.5 33.8,44.14 34.36,43.77 34.94,43.43 35.45,43.01 36.11,42.71 L 36.11,42.79 Z M 36.11,42.79" />
        </g>
        <g id="rana5-group445">
            <path id="rana5-bezier444" stroke="none" fill="rgb(0, 0, 0)" d="M 32.03,44.05 C 31.02,44.36 30.01,44.68 29.02,45.02 28.52,45.2 28.05,45.43 27.55,45.56 27.05,45.69 26.56,45.77 26.05,45.95 L 26,45.9 C 26.28,45.36 26.82,45.09 27.3,44.85 27.79,44.62 28.33,44.55 28.86,44.44 29.91,44.23 30.96,44.08 32.02,43.98 L 32.03,44.05 Z M 32.03,44.05" />
        </g>
        <g id="rana5-group446">
            <path id="rana5-bezier445" stroke="none" fill="rgb(0, 0, 0)" d="M 36.96,38.94 C 35.65,39.56 34.34,40.18 33.06,40.82 32.41,41.15 31.8,41.53 31.14,41.8 30.48,42.08 29.82,42.33 29.13,42.6 L 29.09,42.54 C 29.54,41.93 30.18,41.51 30.8,41.13 31.44,40.76 32.13,40.53 32.81,40.28 34.17,39.75 35.54,39.29 36.93,38.87 L 36.96,38.94 Z M 36.96,38.94" />
        </g>
        <g id="rana5-group447">
            <path id="rana5-bezier446" stroke="none" fill="rgb(0, 0, 0)" d="M 27.78,41.52 L 23.94,42.72 C 23.3,42.92 22.68,43.18 22.03,43.33 21.38,43.47 20.73,43.59 20.04,43.67 L 20.01,43.61 C 20.55,43.14 21.18,42.86 21.81,42.61 22.45,42.37 23.12,42.27 23.79,42.14 25.11,41.86 26.43,41.63 27.77,41.45 L 27.78,41.52 Z M 27.78,41.52" />
        </g>
        <g id="rana5-group448">
            <path id="rana5-bezier447" stroke="none" fill="rgb(0, 0, 0)" d="M 20.58,41.24 C 19.47,41.55 18.37,41.91 17.33,42.35 16.81,42.58 16.34,42.87 15.85,43.1 15.37,43.35 14.91,43.57 14.54,44.03 L 14.47,44.01 C 14.46,43.34 14.99,42.81 15.47,42.46 15.97,42.1 16.57,41.94 17.13,41.78 18.26,41.45 19.41,41.26 20.57,41.17 L 20.58,41.24 Z M 20.58,41.24" />
        </g>
        <g id="rana5-group449">
            <path id="rana5-bezier448" stroke="none" fill="rgb(0, 0, 0)" d="M 13.61,37.56 C 12.53,37.79 11.46,38.02 10.4,38.28 9.87,38.42 9.36,38.61 8.83,38.7 L 7.21,38.93 7.17,38.87 C 7.56,38.41 8.12,38.16 8.64,37.97 9.17,37.78 9.74,37.75 10.29,37.69 11.4,37.56 12.5,37.5 13.6,37.49 L 13.61,37.56 Z M 13.61,37.56" />
        </g>
        <g id="rana5-group450">
            <path id="rana5-bezier449" stroke="none" fill="rgb(0, 0, 0)" d="M 15.94,31.9 C 14.73,31.98 13.52,32.06 12.32,32.17 11.72,32.23 11.12,32.35 10.53,32.36 9.93,32.38 9.34,32.33 8.75,32.42 L 8.71,32.36 C 8.93,32.1 9.25,31.97 9.54,31.85 9.84,31.74 10.15,31.67 10.45,31.61 11.07,31.5 11.68,31.55 12.3,31.57 13.52,31.59 14.73,31.68 15.94,31.82 L 15.94,31.9 Z M 15.94,31.9" />
        </g>
        <g id="rana5-group451">
            <path id="rana5-bezier450" stroke="none" fill="rgb(0, 0, 0)" d="M 21.3,27.12 C 20.33,26.64 19.36,26.19 18.38,25.79 17.88,25.6 17.37,25.46 16.9,25.24 L 15.46,24.56 15.46,24.49 C 16.03,24.31 16.62,24.4 17.15,24.54 17.69,24.68 18.17,24.98 18.64,25.25 19.59,25.78 20.48,26.39 21.34,27.06 L 21.3,27.12 Z M 21.3,27.12" />
        </g>
        <g id="rana5-group452">
            <path id="rana5-bezier451" stroke="none" fill="rgb(0, 0, 0)" d="M 28.55,21.81 L 25.23,20.38 C 24.68,20.15 24.1,19.97 23.58,19.69 23.05,19.42 22.56,19.08 22.03,18.81 L 22.03,18.74 C 22.69,18.61 23.3,18.82 23.88,19 24.46,19.2 24.97,19.54 25.5,19.84 26.55,20.44 27.58,21.07 28.58,21.74 L 28.55,21.81 Z M 28.55,21.81" />
        </g>
        <g id="rana5-group453">
            <path id="rana5-bezier452" stroke="none" fill="rgb(0, 0, 0)" d="M 36.92,18.8 C 35.92,18.03 34.96,17.22 34.04,16.36 33.57,15.94 33.07,15.53 32.69,15.01 32.51,14.75 32.32,14.49 32.18,14.19 32.06,13.89 31.86,13.56 31.99,13.18 L 32.06,13.2 C 32.32,13.7 32.86,14.08 33.27,14.53 33.7,14.96 34.06,15.47 34.47,15.95 35.28,16.88 36.12,17.82 36.97,18.75 L 36.92,18.8 Z M 36.92,18.8" />
        </g>
        <g id="rana5-group454">
            <path id="rana5-bezier453" stroke="none" fill="rgb(0, 0, 0)" d="M 45.08,16.01 C 44.24,15.42 43.42,14.78 42.64,14.09 42.24,13.75 41.82,13.43 41.51,13 41.21,12.57 40.92,12.1 40.83,11.55 L 40.89,11.51 C 41.33,11.83 41.7,12.16 42.07,12.51 42.44,12.85 42.73,13.28 43.06,13.67 43.74,14.44 44.43,15.2 45.13,15.96 L 45.08,16.01 Z M 45.08,16.01" />
        </g>
        <g id="rana5-group455">
            <path id="rana5-bezier454" stroke="none" fill="rgb(0, 0, 0)" d="M 53.42,16.02 C 52.49,15.52 51.59,14.95 50.75,14.28 50.33,13.95 49.88,13.63 49.56,13.16 49.27,12.71 48.97,12.11 49.15,11.53 L 49.23,11.53 C 49.46,12.01 49.81,12.33 50.15,12.69 50.5,13.04 50.79,13.46 51.15,13.84 51.87,14.58 52.66,15.28 53.46,15.95 L 53.42,16.02 Z M 53.42,16.02" />
        </g>
        <g id="rana5-group456">
            <path id="rana5-bezier455" stroke="none" fill="rgb(0, 0, 0)" d="M 56.16,16.47 C 55.45,15.84 54.81,15.13 54.25,14.34 53.97,13.94 53.67,13.53 53.56,13.02 53.45,12.54 53.44,11.91 53.82,11.51 L 53.89,11.54 C 53.93,12.03 54.1,12.39 54.27,12.79 54.45,13.18 54.57,13.61 54.77,14.03 55.18,14.85 55.68,15.65 56.22,16.42 L 56.16,16.47 Z M 56.16,16.47" />
        </g>
        <g id="rana5-group457">
            <path id="rana5-bezier456" stroke="none" fill="rgb(0, 0, 0)" d="M 61.41,16.8 C 60.74,16.05 60.07,15.31 59.39,14.59 59.04,14.24 58.65,13.92 58.35,13.55 58.03,13.17 57.77,12.78 57.43,12.4 L 57.46,12.33 C 58.03,12.36 58.48,12.7 58.88,13.02 59.28,13.35 59.55,13.79 59.85,14.21 60.44,15.03 60.98,15.88 61.47,16.76 L 61.41,16.8 Z M 61.41,16.8" />
        </g>
        <g id="rana5-group458">
            <path id="rana5-bezier457" stroke="none" fill="rgb(0, 0, 0)" d="M 68.59,17.14 C 67.24,16.33 65.94,15.43 64.7,14.44 64.09,13.94 63.45,13.45 62.95,12.81 62.7,12.48 62.47,12.14 62.3,11.76 62.13,11.39 61.99,10.94 62.1,10.53 L 62.17,10.53 C 62.42,11.26 63,11.76 63.51,12.31 64.05,12.85 64.55,13.44 65.1,13.99 66.22,15.06 67.41,16.09 68.63,17.08 L 68.59,17.14 Z M 68.59,17.14" />
        </g>
        <g id="rana5-group459">
            <path id="rana5-bezier458" stroke="none" fill="rgb(0, 0, 0)" d="M 71.98,15.05 C 71.27,14.41 70.59,13.75 69.95,13.05 69.62,12.71 69.26,12.38 69.01,11.96 68.79,11.54 68.52,11.1 68.57,10.53 L 68.65,10.52 C 68.96,10.87 69.32,11.17 69.62,11.52 69.93,11.87 70.15,12.28 70.41,12.67 L 72.03,15 71.98,15.05 Z M 71.98,15.05" />
        </g>
        <g id="rana5-group460">
            <path id="rana5-bezier459" stroke="none" fill="rgb(0, 0, 0)" d="M 76.96,16.81 L 74.41,15.08 C 73.98,14.8 73.52,14.56 73.14,14.24 72.74,13.92 72.4,13.55 72,13.23 L 72.01,13.16 C 72.61,13.11 73.1,13.38 73.56,13.62 74.02,13.88 74.39,14.25 74.77,14.6 75.55,15.28 76.29,16 77.01,16.75 L 76.96,16.81 Z M 76.96,16.81" />
        </g>
        <g id="rana5-group461">
            <path id="rana5-bezier460" stroke="none" fill="rgb(0, 0, 0)" d="M 79.12,16.47 C 78.54,15.91 78.14,15.18 77.87,14.42 77.73,14.04 77.58,13.65 77.58,13.23 77.59,12.83 77.66,12.41 77.86,12.03 L 77.94,12.03 C 78.14,12.42 78.23,12.79 78.33,13.15 78.42,13.52 78.4,13.89 78.45,14.27 78.58,15 78.78,15.75 79.18,16.42 L 79.12,16.47 Z M 79.12,16.47" />
        </g>
        <g id="rana5-group462">
            <path id="rana5-bezier461" stroke="none" fill="rgb(0, 0, 0)" d="M 84.83,19.55 C 83.92,18.81 83.05,18.02 82.24,17.15 81.83,16.72 81.39,16.3 81.1,15.76 80.81,15.24 80.55,14.63 80.61,13.99 L 80.69,13.98 C 81.01,14.48 81.37,14.9 81.72,15.35 82.07,15.79 82.36,16.29 82.7,16.77 83.39,17.7 84.12,18.61 84.89,19.5 L 84.83,19.55 Z M 84.83,19.55" />
        </g>
        <g id="rana5-group463">
            <path id="rana5-bezier462" stroke="none" fill="rgb(0, 0, 0)" d="M 85.15,17.12 C 84.93,16.48 84.75,15.83 84.65,15.16 84.59,14.82 84.5,14.47 84.58,14.12 84.65,13.78 84.8,13.38 85.16,13.17 L 85.22,13.21 85.32,14.18 C 85.35,14.48 85.27,14.8 85.25,15.12 85.22,15.77 85.22,16.44 85.23,17.1 L 85.15,17.12 Z M 85.15,17.12" />
        </g>
        <g id="rana5-group464">
            <path id="rana5-bezier463" stroke="none" fill="rgb(0, 0, 0)" d="M 88.35,21.34 C 87.71,20.46 87.19,19.48 86.87,18.4 86.7,17.87 86.55,17.31 86.6,16.73 86.66,16.15 86.85,15.57 87.24,15.14 L 87.31,15.16 C 87.31,15.74 87.31,16.23 87.35,16.74 87.39,17.24 87.37,17.75 87.45,18.27 87.63,19.29 87.96,20.32 88.42,21.3 L 88.35,21.34 Z M 88.35,21.34" />
        </g>
        <g id="rana5-group465">
            <path id="rana5-bezier464" stroke="none" fill="rgb(0, 0, 0)" d="M 91.51,20.31 C 90.8,19.97 90.14,19.54 89.55,19 89.25,18.73 88.93,18.45 88.76,18.05 88.61,17.66 88.53,17.18 88.74,16.78 L 88.81,16.78 C 89.03,17.15 89.21,17.41 89.42,17.69 89.63,17.96 89.78,18.29 89.99,18.59 90.44,19.18 90.97,19.73 91.55,20.25 L 91.51,20.31 Z M 91.51,20.31" />
        </g>
        <g id="rana5-group466">
            <path id="rana5-bezier465" stroke="none" fill="rgb(0, 0, 0)" d="M 94.59,23.36 C 94.38,22.41 94.08,21.47 93.68,20.62 93.46,20.19 93.19,19.82 92.97,19.43 92.75,19.03 92.51,18.67 92.18,18.27 L 92.21,18.2 C 92.75,18.25 93.24,18.59 93.58,18.99 93.93,19.4 94.09,19.91 94.24,20.4 94.54,21.37 94.67,22.37 94.67,23.36 L 94.59,23.36 Z M 94.59,23.36" />
        </g>
        <g id="rana5-group467">
            <path id="rana5-bezier466" stroke="none" fill="rgb(0, 0, 0)" d="M 35.17,21.35 C 34.04,20.54 32.97,19.66 31.96,18.7 31.45,18.22 30.92,17.75 30.52,17.16 30.14,16.57 29.78,15.9 29.74,15.16 L 29.81,15.14 C 30.23,15.71 30.67,16.19 31.12,16.7 31.56,17.2 31.95,17.76 32.39,18.28 33.29,19.32 34.24,20.32 35.22,21.29 L 35.17,21.35 Z M 35.17,21.35" />
        </g>
        <g id="rana5-group468">
            <path id="rana5-bezier467" stroke="none" fill="rgb(0, 0, 0)" d="M 24.71,24.07 C 24.07,23.65 23.37,23.34 22.68,23.11 22.32,23 21.95,22.96 21.62,22.82 21.28,22.68 20.94,22.55 20.57,22.31 L 20.58,22.24 C 20.98,22.07 21.4,22.04 21.8,22.1 22.21,22.15 22.57,22.36 22.91,22.55 23.62,22.93 24.25,23.42 24.76,24.02 L 24.71,24.07 Z M 24.71,24.07" />
        </g>
        <g id="rana5-group469">
            <path id="rana5-bezier468" stroke="none" fill="rgb(0, 0, 0)" d="M 23.03,29.56 C 21.47,29.22 19.89,28.92 18.32,28.67 17.53,28.56 16.73,28.51 15.96,28.39 15.18,28.27 14.42,28.12 13.62,28.14 L 13.6,28.07 C 14.34,27.64 15.23,27.63 16.03,27.64 16.86,27.67 17.65,27.89 18.43,28.08 20,28.46 21.54,28.94 23.06,29.49 L 23.03,29.56 Z M 23.03,29.56" />
        </g>
        <g id="rana5-group470">
            <path id="rana5-bezier469" stroke="none" fill="rgb(0, 0, 0)" d="M 17.55,34.19 C 16.44,34.54 15.31,34.84 14.16,35.06 13.59,35.18 13.02,35.32 12.42,35.31 11.83,35.29 11.21,35.21 10.66,34.9 L 10.68,34.82 12.38,34.56 C 12.94,34.48 13.51,34.5 14.08,34.46 15.23,34.38 16.38,34.26 17.53,34.12 L 17.55,34.19 Z M 17.55,34.19" />
        </g>
        <g id="rana5-group471">
            <path id="rana5-bezier470" stroke="none" fill="rgb(0, 0, 0)" d="M 51.04,37.21 C 49.84,37.98 48.57,38.63 47.23,39.17 46.57,39.44 45.89,39.73 45.17,39.84 44.45,39.94 43.7,39.97 42.98,39.77 L 42.98,39.7 C 43.68,39.48 44.34,39.3 45.01,39.11 45.67,38.91 46.36,38.79 47.04,38.6 48.38,38.21 49.71,37.72 51,37.14 L 51.04,37.21 Z M 51.04,37.21" />
        </g>
        <g id="rana5-group472">
            <path id="rana5-bezier471" stroke="none" fill="rgb(0, 0, 0)" d="M 45.09,17.89 C 43.75,17.36 42.39,16.85 41.03,16.4 40.34,16.19 39.65,16.03 38.98,15.8 38.31,15.57 37.66,15.33 36.95,15.19 L 36.94,15.11 C 37.67,14.84 38.46,14.94 39.18,15.08 39.91,15.22 40.58,15.55 41.24,15.84 42.58,16.43 43.87,17.09 45.12,17.83 L 45.09,17.89 Z M 45.09,17.89" />
        </g>
        <g id="rana5-group473">
            <path id="rana5-bezier472" stroke="none" fill="rgb(0, 0, 0)" d="M 38.68,27.13 C 36.93,26.85 35.19,26.52 33.46,26.13 32.59,25.93 31.71,25.77 30.87,25.45 30.46,25.29 30.04,25.12 29.64,24.9 29.25,24.68 28.83,24.45 28.54,24.07 L 28.59,24.02 C 29.39,24.35 30.26,24.5 31.1,24.74 31.95,24.96 32.77,25.28 33.61,25.55 35.3,26.07 37,26.57 38.7,27.05 L 38.68,27.13 Z M 38.68,27.13" />
        </g>
        <g id="rana5-group474">
            <path id="rana5-bezier473" stroke="none" fill="rgb(0, 0, 0)" d="M 32.47,28.9 L 28.85,28.05 C 28.25,27.92 27.63,27.85 27.05,27.66 26.46,27.5 25.9,27.26 25.3,27.13 L 25.29,27.05 C 25.6,26.89 25.94,26.88 26.26,26.87 26.58,26.85 26.9,26.89 27.21,26.93 27.84,27.02 28.43,27.26 29.01,27.47 30.2,27.87 31.35,28.33 32.5,28.82 L 32.47,28.9 Z M 32.47,28.9" />
        </g>
        <g id="rana5-group475">
            <path id="rana5-bezier474" stroke="none" fill="rgb(0, 0, 0)" d="M 27.77,34.19 C 27.16,34.12 26.58,33.97 25.99,33.83 25.41,33.67 24.83,33.49 24.25,33.3 23.68,33.11 23.08,32.94 22.56,32.61 22.29,32.44 22.04,32.26 21.81,32.03 21.59,31.81 21.36,31.54 21.28,31.21 L 21.35,31.18 C 21.83,31.52 22.37,31.7 22.91,31.94 23.44,32.17 23.94,32.48 24.48,32.75 25.01,33 25.56,33.25 26.11,33.47 26.66,33.71 27.21,33.95 27.78,34.12 L 27.77,34.19 Z M 27.77,34.19" />
        </g>
        <g id="rana5-group476">
            <path id="rana5-bezier475" stroke="none" fill="rgb(0, 0, 0)" d="M 21.3,38.49 C 20.18,37.98 19.04,37.51 17.9,37.08 17.33,36.88 16.74,36.74 16.19,36.51 15.64,36.29 15.11,36.05 14.51,35.9 L 14.5,35.82 C 15.12,35.56 15.81,35.66 16.42,35.8 17.04,35.94 17.59,36.25 18.14,36.54 19.25,37.09 20.31,37.73 21.33,38.42 L 21.3,38.49 Z M 21.3,38.49" />
        </g>
        <g id="rana5-group477">
            <path id="rana5-bezier476" stroke="none" fill="rgb(0, 0, 0)" d="M 16.69,39.73 C 15.78,39.9 14.86,40.02 13.93,40.07 13.46,40.11 12.99,40.17 12.52,40.08 12.07,39.97 11.53,39.84 11.21,39.39 L 11.25,39.33 C 11.72,39.38 12.14,39.32 12.59,39.33 13.04,39.33 13.48,39.43 13.94,39.47 14.85,39.55 15.77,39.61 16.69,39.66 L 16.69,39.73 Z M 16.69,39.73" />
        </g>
        <g id="rana5-group478">
            <path id="rana5-bezier477" stroke="none" fill="rgb(0, 0, 0)" d="M 33.64,36.48 C 32.09,36.83 30.54,37.15 28.98,37.42 28.21,37.57 27.43,37.75 26.63,37.78 25.84,37.8 25.03,37.81 24.23,37.56 L 24.24,37.49 C 25.02,37.33 25.78,37.15 26.56,37.03 27.33,36.9 28.12,36.89 28.91,36.83 L 33.62,36.41 33.64,36.48 Z M 33.64,36.48" />
        </g>
        <g id="rana5-group479">
            <path id="rana5-bezier478" stroke="none" fill="rgb(0, 0, 0)" d="M 45.12,34.59 C 44.69,34.92 44.33,35.43 43.95,35.86 43.56,36.31 43.17,36.75 42.77,37.18 42.37,37.62 41.98,38.08 41.46,38.41 41.21,38.57 40.94,38.73 40.64,38.84 40.35,38.94 40.01,39.03 39.69,38.94 L 39.69,38.86 C 40.21,38.6 40.58,38.19 41.01,37.82 41.42,37.43 41.91,37.11 42.36,36.74 42.8,36.37 43.24,35.99 43.68,35.6 44.15,35.24 44.54,34.8 45.1,34.52 L 45.12,34.59 Z M 45.12,34.59" />
        </g>
        <g id="rana5-group480">
            <path id="rana5-bezier479" stroke="none" fill="rgb(0, 0, 0)" d="M 39.11,33.56 C 37.61,33.41 36.14,33.2 34.66,33.03 33.92,32.95 33.18,32.92 32.45,32.79 31.73,32.67 31.01,32.46 30.29,32.43 L 30.26,32.36 C 30.61,32.13 31.02,32.1 31.4,32.06 31.78,32.02 32.16,32.03 32.54,32.04 33.3,32.08 34.03,32.27 34.76,32.43 L 36.95,32.93 39.11,33.49 39.11,33.56 Z M 39.11,33.56" />
        </g>
        <g id="rana5-group481">
            <path id="rana5-bezier480" stroke="none" fill="rgb(0, 0, 0)" d="M 41.01,30.64 C 40.18,30.3 39.35,29.97 38.53,29.67 38.11,29.53 37.68,29.44 37.29,29.25 36.9,29.08 36.55,28.86 36.12,28.72 L 36.1,28.64 C 36.56,28.36 37.09,28.46 37.53,28.54 37.99,28.65 38.38,28.9 38.77,29.12 39.57,29.56 40.32,30.05 41.04,30.58 L 41.01,30.64 Z M 41.01,30.64" />
        </g>
        <g id="rana5-group482">
            <path id="rana5-bezier481" stroke="none" fill="rgb(0, 0, 0)" d="M 41.01,25.06 C 40.04,24.76 39.06,24.49 38.09,24.26 37.6,24.16 37.1,24.12 36.63,24 36.16,23.88 35.72,23.73 35.21,23.73 L 35.18,23.66 C 35.61,23.25 36.24,23.23 36.75,23.25 37.29,23.29 37.77,23.5 38.26,23.69 39.23,24.05 40.15,24.49 41.04,24.99 L 41.01,25.06 Z M 41.01,25.06" />
        </g>
        <g id="rana5-group483">
            <path id="rana5-bezier482" stroke="none" fill="rgb(0, 0, 0)" d="M 45.08,22.81 C 44.21,22.18 43.32,21.57 42.41,21.02 41.96,20.75 41.47,20.53 41.05,20.25 40.61,19.99 40.22,19.67 39.7,19.56 L 39.68,19.49 C 39.94,19.31 40.28,19.31 40.56,19.35 40.86,19.39 41.13,19.48 41.39,19.59 41.92,19.81 42.34,20.18 42.76,20.53 43.61,21.21 44.4,21.96 45.13,22.75 L 45.08,22.81 Z M 45.08,22.81" />
        </g>
        <g id="rana5-group484">
            <path id="rana5-bezier483" stroke="none" fill="rgb(0, 0, 0)" d="M 54.42,20.31 C 53.25,19.66 52.1,18.96 51,18.19 50.44,17.81 49.86,17.45 49.39,16.95 49.15,16.7 48.92,16.44 48.73,16.15 48.54,15.86 48.35,15.53 48.32,15.16 L 48.39,15.14 C 48.84,15.63 49.38,15.98 49.89,16.4 50.41,16.8 50.87,17.28 51.37,17.71 52.38,18.57 53.41,19.42 54.46,20.25 L 54.42,20.31 Z M 54.42,20.31" />
        </g>
        <g id="rana5-group485">
            <path id="rana5-bezier484" stroke="none" fill="rgb(0, 0, 0)" d="M 84.15,25.84 C 82.76,25.3 81.37,24.8 79.96,24.35 79.25,24.14 78.53,23.98 77.84,23.75 77.15,23.54 76.48,23.28 75.74,23.2 L 75.72,23.12 C 76.46,22.79 77.29,22.9 78.03,23.03 78.78,23.17 79.47,23.49 80.16,23.79 81.55,24.37 82.89,25.04 84.19,25.77 L 84.15,25.84 Z M 84.15,25.84" />
        </g>
        <g id="rana5-group486">
            <path id="rana5-bezier485" stroke="none" fill="rgb(0, 0, 0)" d="M 86.26,23.39 C 85.16,22.84 84.09,22.23 83.06,21.56 82.54,21.22 81.99,20.91 81.55,20.46 81.33,20.23 81.11,20 80.94,19.72 80.77,19.45 80.59,19.14 80.61,18.78 L 80.69,18.77 C 81.05,19.23 81.58,19.53 82.04,19.9 82.52,20.25 82.95,20.68 83.41,21.07 84.35,21.84 85.32,22.59 86.29,23.33 L 86.26,23.39 Z M 86.26,23.39" />
        </g>
        <g id="rana5-group487">
            <path id="rana5-bezier486" stroke="none" fill="rgb(0, 0, 0)" d="M 78.51,21.17 L 74.9,19.52 C 74.3,19.26 73.67,19.04 73.1,18.73 72.52,18.42 71.98,18.07 71.39,17.75 L 71.4,17.68 C 72.12,17.6 72.78,17.83 73.41,18.04 74.04,18.28 74.6,18.65 75.17,18.98 76.32,19.65 77.45,20.36 78.54,21.1 L 78.51,21.17 Z M 78.51,21.17" />
        </g>
        <g id="rana5-group488">
            <path id="rana5-bezier487" stroke="none" fill="rgb(0, 0, 0)" d="M 70.59,21.81 C 69.52,21.22 68.49,20.58 67.49,19.88 66.99,19.53 66.47,19.2 66.05,18.74 65.64,18.28 65.24,17.76 65.08,17.13 L 65.14,17.09 66.56,18.19 C 67.02,18.56 67.42,19 67.87,19.41 68.76,20.21 69.69,20.98 70.63,21.75 L 70.59,21.81 Z M 70.59,21.81" />
        </g>
        <g id="rana5-group489">
            <path id="rana5-bezier488" stroke="none" fill="rgb(0, 0, 0)" d="M 76.72,26.81 C 75.46,26.31 74.2,25.82 72.94,25.36 72.31,25.14 71.66,24.98 71.05,24.72 70.43,24.49 69.85,24.15 69.21,24.08 L 69.18,24.01 C 69.51,23.8 69.9,23.82 70.25,23.83 70.6,23.85 70.95,23.93 71.28,24.01 71.95,24.18 72.56,24.51 73.17,24.81 74.4,25.4 75.59,26.05 76.75,26.75 L 76.72,26.81 Z M 76.72,26.81" />
        </g>
        <g id="rana5-group490">
            <path id="rana5-bezier489" stroke="none" fill="rgb(0, 0, 0)" d="M 75.18,29.66 C 74.77,29.78 74.42,29.66 74.05,29.63 73.69,29.58 73.33,29.51 72.97,29.45 72.25,29.3 71.53,29.12 70.82,28.93 70.11,28.75 69.39,28.58 68.72,28.25 68.38,28.08 68.05,27.91 67.75,27.68 67.45,27.45 67.1,27.21 66.99,26.79 L 67.06,26.76 C 67.6,27.17 68.34,27.3 69,27.56 69.68,27.78 70.33,28.1 71.01,28.36 71.68,28.62 72.37,28.86 73.06,29.08 73.4,29.2 73.75,29.31 74.1,29.41 74.43,29.5 74.83,29.64 75.12,29.61 L 75.18,29.66 Z M 75.18,29.66" />
        </g>
        <g id="rana5-group491">
            <path id="rana5-bezier490" stroke="none" fill="rgb(0, 0, 0)" d="M 68.62,30.65 C 67.42,31 66.22,31.36 65.04,31.74 64.45,31.93 63.88,32.18 63.28,32.32 62.68,32.47 62.09,32.57 61.46,32.71 L 61.42,32.64 C 61.87,32.14 62.47,31.85 63.05,31.61 63.64,31.37 64.27,31.28 64.89,31.16 66.12,30.91 67.36,30.72 68.6,30.57 L 68.62,30.65 Z M 68.62,30.65" />
        </g>
        <g id="rana5-group492">
            <path id="rana5-bezier491" stroke="none" fill="rgb(0, 0, 0)" d="M 70.59,26.29 C 69.29,25.84 68,25.35 66.73,24.78 66.1,24.51 65.44,24.26 64.86,23.86 64.58,23.66 64.29,23.45 64.03,23.19 63.78,22.94 63.51,22.67 63.41,22.29 L 63.48,22.26 C 64.01,22.67 64.65,22.9 65.24,23.21 65.85,23.51 66.41,23.9 67,24.25 68.2,24.92 69.41,25.58 70.62,26.22 L 70.59,26.29 Z M 70.59,26.29" />
        </g>
        <g id="rana5-group493">
            <path id="rana5-bezier492" stroke="none" fill="rgb(0, 0, 0)" d="M 66.05,21.1 C 64.82,20.64 63.57,20.2 62.33,19.81 61.7,19.62 61.06,19.5 60.46,19.29 59.85,19.1 59.27,18.84 58.62,18.81 L 58.6,18.74 C 58.89,18.53 59.28,18.48 59.62,18.47 59.97,18.46 60.31,18.5 60.65,18.56 61.32,18.68 61.93,18.98 62.54,19.25 63.76,19.77 64.94,20.37 66.08,21.03 L 66.05,21.1 Z M 66.05,21.1" />
        </g>
        <g id="rana5-group494">
            <path id="rana5-bezier493" stroke="none" fill="rgb(0, 0, 0)" d="M 62.32,25.42 C 61.07,25.06 59.84,24.65 58.62,24.15 58.01,23.91 57.39,23.69 56.83,23.31 56.56,23.12 56.29,22.92 56.05,22.67 55.81,22.43 55.57,22.15 55.49,21.79 L 55.56,21.76 C 56.05,22.16 56.64,22.38 57.21,22.67 57.78,22.94 58.31,23.3 58.88,23.61 60.01,24.21 61.18,24.79 62.35,25.35 L 62.32,25.42 Z M 62.32,25.42" />
        </g>
        <g id="rana5-group495">
            <path id="rana5-bezier494" stroke="none" fill="rgb(0, 0, 0)" d="M 51,22.8 C 50.31,22.19 49.6,21.61 48.87,21.08 48.5,20.82 48.1,20.62 47.76,20.35 47.41,20.08 47.1,19.82 46.69,19.56 L 46.7,19.49 C 47.2,19.34 47.73,19.51 48.16,19.72 48.6,19.93 48.93,20.29 49.26,20.62 49.93,21.28 50.52,21.99 51.05,22.75 L 51,22.8 Z M 51,22.8" />
        </g>
        <g id="rana5-group496">
            <path id="rana5-bezier495" stroke="none" fill="rgb(0, 0, 0)" d="M 60.1,27.13 C 58.84,26.99 57.59,26.81 56.34,26.57 55.72,26.45 55.08,26.37 54.48,26.13 53.89,25.88 53.27,25.6 52.84,25.06 L 52.88,25 C 53.49,25.17 54.1,25.26 54.7,25.41 55.31,25.55 55.89,25.79 56.49,25.99 57.69,26.35 58.9,26.71 60.12,27.05 L 60.1,27.13 Z M 60.1,27.13" />
        </g>
        <g id="rana5-group497">
            <path id="rana5-bezier496" stroke="none" fill="rgb(0, 0, 0)" d="M 49.93,28.72 C 48.76,28.4 47.59,28.1 46.43,27.81 45.84,27.68 45.24,27.59 44.68,27.41 44.11,27.23 43.57,27.01 42.99,26.82 L 42.98,26.74 C 43.61,26.53 44.25,26.6 44.86,26.68 45.47,26.78 46.03,27.02 46.6,27.24 47.74,27.66 48.86,28.13 49.95,28.65 L 49.93,28.72 Z M 49.93,28.72" />
        </g>
        <g id="rana5-group498">
            <path id="rana5-bezier497" stroke="none" fill="rgb(0, 0, 0)" d="M 52.28,32.15 C 51.58,32.24 50.88,32.13 50.2,32.06 49.51,31.96 48.83,31.83 48.15,31.69 47.47,31.55 46.78,31.44 46.13,31.17 45.5,30.88 44.83,30.57 44.36,29.98 L 44.41,29.92 C 45.06,30.15 45.72,30.27 46.38,30.45 47.03,30.63 47.65,30.9 48.3,31.11 48.95,31.32 49.61,31.52 50.27,31.69 50.93,31.86 51.6,32.06 52.27,32.08 L 52.28,32.15 Z M 52.28,32.15" />
        </g>
        <g id="rana5-group499">
            <path id="rana5-bezier498" stroke="none" fill="rgb(0, 0, 0)" d="M 58.59,31.23 C 57.48,30.76 56.37,30.27 55.28,29.76 54.73,29.51 54.16,29.29 53.66,28.96 53.16,28.62 52.66,28.25 52.26,27.76 L 52.29,27.7 C 52.91,27.84 53.47,28.05 54.02,28.3 54.57,28.55 55.06,28.91 55.57,29.23 56.59,29.86 57.61,30.5 58.63,31.16 L 58.59,31.23 Z M 58.59,31.23" />
        </g>
        <g id="rana5-group500">
            <path id="rana5-bezier499" stroke="none" fill="rgb(0, 0, 0)" d="M 104.57,33.55 C 104.31,32.14 104.1,30.71 103.97,29.27 103.89,28.56 103.79,27.83 103.85,27.1 103.88,26.74 103.93,26.37 104.03,26 104.14,25.66 104.22,25.24 104.58,25 L 104.63,25.06 C 104.45,25.69 104.6,26.42 104.6,27.12 104.63,27.82 104.57,28.53 104.57,29.25 104.57,30.67 104.6,32.11 104.65,33.54 L 104.57,33.55 Z M 104.57,33.55" />
        </g>
        <g id="rana5-group501">
            <path id="rana5-bezier500" stroke="none" fill="rgb(0, 0, 0)" d="M 101.03,32.69 C 100.58,31.64 100.18,30.59 99.83,29.51 99.65,28.97 99.43,28.43 99.37,27.86 99.34,27.57 99.32,27.28 99.34,26.98 99.37,26.69 99.4,26.37 99.57,26.1 L 99.64,26.12 C 99.76,26.67 99.96,27.18 100.11,27.71 100.26,28.24 100.31,28.8 100.41,29.36 100.63,30.46 100.86,31.56 101.1,32.66 L 101.03,32.69 Z M 101.03,32.69" />
        </g>
        <g id="rana5-group502">
            <path id="rana5-bezier501" stroke="none" fill="rgb(0, 0, 0)" d="M 101.03,28.49 C 101.15,27.21 101.34,25.92 101.64,24.65 101.78,24.02 101.91,23.37 102.21,22.77 102.52,22.2 102.91,21.55 103.59,21.29 L 103.63,21.35 C 103.27,21.89 103.12,22.47 102.9,23.06 102.71,23.65 102.43,24.22 102.22,24.82 101.8,26.03 101.44,27.26 101.1,28.51 L 101.03,28.49 Z M 101.03,28.49" />
        </g>
        <g id="rana5-group503">
            <path id="rana5-bezier502" stroke="none" fill="rgb(0, 0, 0)" d="M 98.26,26.27 C 97.86,25.05 97.51,23.82 97.25,22.55 97.11,21.93 96.95,21.29 96.96,20.63 96.97,20.3 96.99,19.97 97.08,19.63 97.17,19.32 97.27,18.92 97.63,18.75 L 97.67,18.81 C 97.46,19.35 97.66,19.98 97.71,20.59 97.79,21.2 97.79,21.83 97.84,22.46 97.97,23.72 98.14,24.98 98.33,26.25 L 98.26,26.27 Z M 98.26,26.27" />
        </g>
        <g id="rana5-group504">
            <path id="rana5-bezier503" stroke="none" fill="rgb(0, 0, 0)" d="M 94.62,48.98 C 92.33,48.71 90.01,48.55 87.7,48.54 85.39,48.52 83.1,48.66 80.85,49.18 78.57,49.61 76.29,50.05 73.99,50.33 72.83,50.45 71.68,50.58 70.52,50.66 69.36,50.71 68.19,50.84 67.02,50.64 L 67.03,50.57 C 67.6,50.58 68.18,50.48 68.75,50.4 L 70.46,50.14 73.88,49.58 C 76.16,49.21 78.46,48.94 80.75,48.58 83.03,48.14 85.4,48.06 87.72,48.17 90.04,48.28 92.35,48.53 94.64,48.91 L 94.62,48.98 Z M 94.62,48.98" />
        </g>
        <g id="rana5-group505">
            <path id="rana5-bezier504" stroke="none" fill="rgb(0, 0, 0)" d="M 65.37,50.71 C 64.36,50.9 63.36,51.11 62.37,51.35 61.88,51.48 61.41,51.66 60.91,51.73 60.41,51.81 59.93,51.86 59.38,51.9 L 59.35,51.83 C 59.73,51.42 60.24,51.19 60.73,51.01 61.23,50.83 61.76,50.81 62.27,50.76 63.3,50.65 64.34,50.61 65.37,50.63 L 65.37,50.71 Z M 65.37,50.71" />
        </g>
        <g id="rana5-group506">
            <path id="rana5-bezier505" stroke="none" fill="rgb(0, 0, 0)" d="M 57.06,52.21 C 55.19,52.43 53.3,52.52 51.41,52.36 50.94,52.32 50.47,52.26 50,52.18 49.53,52.1 49.08,51.94 48.63,51.91 47.71,51.82 46.77,51.83 45.83,51.85 42.08,51.94 38.32,52.21 34.57,52.41 30.81,52.61 27.04,52.87 23.25,52.66 22.3,52.59 21.35,52.5 20.4,52.29 L 17.68,51.51 C 16.78,51.26 15.87,51.03 14.95,50.86 14.04,50.7 13.1,50.52 12.18,50.68 L 12.16,50.6 C 13.09,50.35 14.06,50.44 15,50.52 15.94,50.64 16.87,50.81 17.8,51 18.72,51.18 19.66,51.46 20.53,51.66 21.43,51.82 22.36,51.88 23.29,51.91 27.02,52.02 30.78,51.93 34.54,51.81 38.3,51.69 42.05,51.49 45.83,51.48 46.77,51.48 47.71,51.49 48.66,51.61 49.16,51.66 49.6,51.84 50.05,51.92 50.51,52.02 50.97,52.09 51.43,52.14 53.29,52.34 55.18,52.31 57.05,52.14 L 57.06,52.21 Z M 57.06,52.21" />
        </g>
        <g id="rana5-group507">
            <path id="rana5-bezier506" stroke="none" fill="rgb(0, 0, 0)" d="M 6.48,57.58 C 6.8,57.73 7.11,57.93 7.38,58.18 7.52,58.3 7.69,58.42 7.74,58.63 7.78,58.82 7.78,59.09 7.57,59.28 L 7.5,59.28 C 7.29,59.13 7.17,59.06 7.06,58.95 6.96,58.86 6.96,58.69 6.89,58.54 6.76,58.25 6.6,57.94 6.43,57.64 L 6.48,57.58 Z M 6.48,57.58" />
        </g>
        <g id="rana5-group508">
            <path id="rana5-bezier507" stroke="none" fill="rgb(0, 0, 0)" d="M 8.38,57.41 C 8.7,57.55 8.98,57.77 9.2,58.06 9.32,58.2 9.46,58.35 9.46,58.55 9.46,58.74 9.4,58.95 9.2,59.11 L 9.12,59.11 C 8.91,58.96 8.82,58.85 8.73,58.73 8.66,58.62 8.69,58.47 8.66,58.33 8.6,58.05 8.49,57.76 8.33,57.47 L 8.38,57.41 Z M 8.38,57.41" />
        </g>
        <g id="rana5-group509">
            <path id="rana5-bezier508" stroke="none" fill="rgb(0, 0, 0)" d="M 10.11,57.95 C 10.47,57.86 10.86,57.85 11.26,58 11.45,58.07 11.7,58.17 11.8,58.41 11.89,58.65 11.85,58.93 11.66,59.11 L 11.58,59.11 C 11.37,58.94 11.26,58.87 11.16,58.81 11.07,58.76 11.06,58.63 10.95,58.52 10.75,58.32 10.44,58.15 10.11,58.02 L 10.11,57.95 Z M 10.11,57.95" />
        </g>
        <g id="rana5-group510">
            <path id="rana5-bezier509" stroke="none" fill="rgb(0, 0, 0)" d="M 6.46,59.15 C 6.03,59.25 5.43,59.21 5.16,58.72 5.03,58.49 5.02,58.23 4.99,58.01 4.96,57.79 4.92,57.56 4.9,57.33 4.8,56.42 4.98,55.34 5.7,54.6 6.35,54.01 6.58,53.19 6.93,52.37 7.27,51.55 7.57,50.7 7.95,49.85 L 8.02,49.87 C 8.05,50.8 7.9,51.72 7.64,52.62 7.5,53.06 7.33,53.51 7.08,53.92 6.95,54.13 6.81,54.33 6.65,54.53 6.49,54.73 6.26,54.91 6.12,55.02 5.5,55.57 5.26,56.43 5.28,57.31 5.29,57.74 5.25,58.26 5.36,58.62 5.51,59 6.01,59.13 6.44,59.07 L 6.46,59.15 Z M 6.46,59.15" />
        </g>
        <g id="rana5-group511">
            <path id="rana5-bezier510" stroke="none" fill="rgb(0, 0, 0)" d="M 9.13,56.59 C 9.59,55.71 10.01,54.82 10.4,53.92 10.58,53.47 10.71,53 10.92,52.57 L 11.58,51.27 11.66,51.27 C 11.83,51.79 11.75,52.34 11.62,52.83 11.49,53.33 11.2,53.76 10.93,54.19 10.42,55.05 9.83,55.87 9.19,56.63 L 9.13,56.59 Z M 9.13,56.59" />
        </g>
        <g id="rana5-group512">
            <path id="rana5-bezier511" stroke="none" fill="rgb(0, 0, 0)" d="M 32.05,53.33 L 34.99,55.87 C 35.48,56.28 36,56.66 36.45,57.12 36.9,57.56 37.3,58.09 37.75,58.51 L 37.74,58.58 C 37.36,58.57 37.07,58.38 36.77,58.23 36.48,58.07 36.21,57.88 35.95,57.68 35.43,57.28 35.01,56.78 34.57,56.3 33.68,55.36 32.83,54.38 32,53.39 L 32.05,53.33 Z M 32.05,53.33" />
        </g>
        <g id="rana5-group513">
            <path id="rana5-bezier512" stroke="none" fill="rgb(0, 0, 0)" d="M 38.53,57.61 C 38.55,58.12 38.76,58.64 39.16,58.86 39.54,59.1 40.02,59.01 40.56,58.98 41.09,58.94 41.61,58.85 42.13,58.9 42.65,58.95 43.18,59.03 43.7,59.24 L 43.7,59.31 C 43.18,59.52 42.65,59.6 42.13,59.65 41.61,59.7 41.09,59.62 40.56,59.58 40.08,59.53 39.43,59.57 38.94,59.16 38.46,58.75 38.38,58.12 38.46,57.61 L 38.53,57.61 Z M 38.53,57.61" />
        </g>
        <g id="rana5-group514">
            <path id="rana5-bezier513" stroke="none" fill="rgb(0, 0, 0)" d="M 43.88,57.95 C 44.32,57.95 44.76,58.01 45.19,58.14 45.41,58.21 45.67,58.25 45.84,58.46 46,58.64 46.16,59.02 45.95,59.28 L 45.87,59.28 C 45.65,59.1 45.51,59.12 45.36,59.03 45.2,58.97 45.09,58.81 44.93,58.68 44.6,58.45 44.23,58.23 43.86,58.02 L 43.88,57.95 Z M 43.88,57.95" />
        </g>
        <g id="rana5-group515">
            <path id="rana5-bezier514" stroke="none" fill="rgb(0, 0, 0)" d="M 43.31,57.48 C 42.63,57.31 41.91,57.21 41.25,57.31 41.17,57.32 41.09,57.33 41.02,57.36 41,57.38 40.75,57.44 40.62,57.35 40.42,57.26 40.28,57.15 40.13,57.04 39.83,56.83 39.56,56.59 39.28,56.36 38.74,55.88 38.19,55.41 37.76,54.81 37.55,54.52 37.35,54.21 37.19,53.87 37.04,53.54 36.88,53.18 36.91,52.78 L 36.98,52.77 C 37.36,53.36 37.88,53.82 38.34,54.34 38.82,54.84 39.23,55.41 39.7,55.93 39.94,56.18 40.18,56.43 40.44,56.67 40.56,56.78 40.7,56.9 40.81,56.96 40.75,57.03 41.04,56.93 41.22,56.93 41.98,56.93 42.67,57.15 43.34,57.41 L 43.31,57.48 Z M 43.31,57.48" />
        </g>
        <g id="rana5-group516">
            <path id="rana5-bezier515" stroke="none" fill="rgb(0, 0, 0)" d="M 60.11,52.76 C 60.72,53.8 61.36,54.82 62.03,55.8 62.38,56.28 62.77,56.72 63.09,57.2 63.42,57.69 63.7,58.17 64.13,58.6 L 64.1,58.67 C 63.44,58.58 62.92,58.11 62.5,57.67 62.07,57.21 61.8,56.65 61.52,56.11 60.94,55.04 60.46,53.93 60.04,52.79 L 60.11,52.76 Z M 60.11,52.76" />
        </g>
        <g id="rana5-group517">
            <path id="rana5-bezier516" stroke="none" fill="rgb(0, 0, 0)" d="M 64.4,57.06 C 64.62,57.48 64.85,57.89 65.1,58.28 65.35,58.67 65.62,59.07 65.92,59.37 66.22,59.65 66.53,59.66 66.95,59.7 67.37,59.75 67.89,59.74 68.37,59.95 L 68.37,60.02 C 67.9,60.23 67.48,60.39 66.96,60.45 66.44,60.54 65.76,60.23 65.46,59.76 65.15,59.33 64.96,58.9 64.77,58.45 64.6,58 64.45,57.54 64.33,57.08 L 64.4,57.06 Z M 64.4,57.06" />
        </g>
        <g id="rana5-group518">
            <path id="rana5-bezier517" stroke="none" fill="rgb(0, 0, 0)" d="M 68.88,58.86 C 69.25,58.83 69.63,58.86 70.01,59 70.2,59.06 70.45,59.13 70.56,59.36 70.68,59.57 70.7,59.89 70.49,60.08 L 70.42,60.08 C 70.2,59.91 70.08,59.89 69.98,59.83 69.88,59.77 69.83,59.63 69.71,59.52 69.48,59.31 69.18,59.11 68.86,58.94 L 68.88,58.86 Z M 68.88,58.86" />
        </g>
        <g id="rana5-group519">
            <path id="rana5-bezier518" stroke="none" fill="rgb(0, 0, 0)" d="M 71.05,58.87 C 71.37,58.88 71.69,58.94 72,59.1 72.15,59.18 72.35,59.25 72.42,59.46 72.49,59.65 72.49,59.92 72.28,60.08 L 72.21,60.08 C 71.99,59.94 71.89,59.92 71.79,59.87 71.71,59.82 71.69,59.68 71.62,59.57 71.46,59.36 71.25,59.14 71.02,58.94 L 71.05,58.87 Z M 71.05,58.87" />
        </g>
        <g id="rana5-group520">
            <path id="rana5-bezier519" stroke="none" fill="rgb(0, 0, 0)" d="M 70.73,58.02 C 70.36,57.85 69.96,57.73 69.57,57.7 69.38,57.69 69.18,57.7 69,57.74 68.92,57.76 68.79,57.79 68.69,57.8 68.56,57.8 68.43,57.79 68.33,57.77 67.45,57.54 66.77,56.99 66.18,56.35 65.89,56.04 65.61,55.64 65.5,55.16 65.39,54.72 65.36,54.3 65.35,53.89 65.33,53.06 65.45,52.27 65.34,51.46 L 65.41,51.43 C 65.68,51.77 65.8,52.21 65.9,52.61 66,53.03 66.05,53.44 66.1,53.84 66.14,54.24 66.17,54.64 66.22,55.01 66.25,55.34 66.42,55.67 66.64,55.98 67.1,56.58 67.72,57.16 68.42,57.41 68.68,57.55 69.19,57.35 69.6,57.48 70.02,57.57 70.41,57.74 70.76,57.96 L 70.73,58.02 Z M 70.73,58.02" />
        </g>
        <g id="rana5-group521">
            <path id="rana5-bezier520" stroke="none" fill="rgb(0, 0, 0)" d="M 80.61,56.29 C 80.6,56.68 80.54,57.08 80.39,57.47 80.32,57.67 80.25,57.9 80.03,58.04 79.83,58.16 79.49,58.24 79.27,58.02 L 79.27,57.95 C 79.44,57.73 79.45,57.61 79.53,57.48 79.59,57.36 79.75,57.29 79.87,57.16 80.1,56.9 80.33,56.59 80.54,56.27 L 80.61,56.29 Z M 80.61,56.29" />
        </g>
        <g id="rana5-group522">
            <path id="rana5-bezier521" stroke="none" fill="rgb(0, 0, 0)" d="M 79.96,55.33 C 79.9,55.71 79.79,56.07 79.56,56.41 79.46,56.58 79.34,56.8 79.09,56.86 78.86,56.93 78.55,56.89 78.4,56.65 L 78.42,56.57 C 78.62,56.39 78.67,56.28 78.76,56.19 78.83,56.1 78.99,56.08 79.13,56 79.39,55.82 79.65,55.57 79.89,55.3 L 79.96,55.33 Z M 79.96,55.33" />
        </g>
        <g id="rana5-group523">
            <path id="rana5-bezier522" stroke="none" fill="rgb(0, 0, 0)" d="M 78.63,55.34 C 78.33,54.97 78.08,54.55 77.95,54.06 77.9,53.81 77.89,53.54 77.95,53.27 78.01,53.02 78.04,52.84 78.04,52.63 78.05,52.2 77.9,51.81 77.8,51.44 77.69,51.06 77.5,50.71 77.2,50.31 L 77.23,50.24 C 77.75,50.28 78.23,50.66 78.49,51.14 78.75,51.62 78.74,52.19 78.64,52.69 78.6,52.94 78.5,53.21 78.42,53.41 78.34,53.59 78.31,53.79 78.33,54.01 78.34,54.44 78.48,54.89 78.69,55.3 L 78.63,55.34 Z M 78.63,55.34" />
        </g>
        <g id="rana5-group524">
            <path id="rana5-bezier523" stroke="none" fill="rgb(0, 0, 0)" d="M 80.96,55.69 C 81.03,55.2 81.07,54.71 81.09,54.22 81.11,53.73 81.11,53.24 81.02,52.81 80.99,52.7 80.95,52.6 80.91,52.53 80.85,52.4 80.8,52.32 80.74,52.14 80.65,51.84 80.65,51.56 80.68,51.29 80.76,50.75 80.96,50.26 81.31,49.84 L 81.38,49.87 C 81.42,50.4 81.4,50.88 81.43,51.33 81.43,51.55 81.45,51.78 81.46,51.96 81.46,52.03 81.5,52.17 81.53,52.28 81.58,52.43 81.6,52.58 81.61,52.72 81.65,53.27 81.56,53.77 81.46,54.27 81.34,54.76 81.2,55.24 81.03,55.71 L 80.96,55.69 Z M 80.96,55.69" />
        </g>
        <g id="rana5-group525">
            <path id="rana5-bezier524" stroke="none" fill="rgb(0, 0, 0)" d="M 86.99,31.68 C 85.95,32.15 84.93,32.67 83.96,33.23 83.47,33.52 83.02,33.86 82.54,34.12 82.04,34.38 81.56,34.63 81.02,34.89 L 80.97,34.83 C 81.22,34.28 81.67,33.85 82.13,33.49 82.6,33.13 83.15,32.92 83.69,32.69 84.75,32.24 85.85,31.88 86.96,31.61 L 86.99,31.68 Z M 86.99,31.68" />
        </g>
        <g id="rana5-group526">
            <path id="rana5-bezier525" stroke="none" fill="rgb(0, 0, 0)" d="M 88.74,27.75 C 88.16,27.02 87.54,26.33 86.89,25.69 86.56,25.38 86.19,25.12 85.89,24.82 85.57,24.52 85.3,24.23 84.86,24.03 L 84.86,23.96 C 85.36,23.73 85.94,23.98 86.35,24.23 86.77,24.5 87.06,24.91 87.34,25.29 87.92,26.05 88.4,26.86 88.81,27.71 L 88.74,27.75 Z M 88.74,27.75" />
        </g>
        <g id="rana5-group527">
            <path id="rana5-bezier526" stroke="none" fill="rgb(0, 0, 0)" d="M 92.84,25.41 C 92.19,24.93 91.6,24.36 91.09,23.7 90.83,23.38 90.55,23.04 90.43,22.62 90.31,22.21 90.27,21.74 90.46,21.32 L 90.53,21.32 91.12,22.34 C 91.31,22.66 91.42,23.03 91.59,23.37 91.96,24.06 92.4,24.73 92.89,25.36 L 92.84,25.41 Z M 92.84,25.41" />
        </g>
        <g id="rana5-group">
            <g id="rana5-group528">
                <path id="rana5-bezier527" stroke="none" fill="rgb(0, 0, 0)" d="M 98.29,33.18 C 97.86,33.14 97.44,33.09 97.02,33.07 96.81,33.07 96.59,33.06 96.39,33.08 96.29,33.09 96.19,33.11 96.11,33.13 96.02,33.16 95.99,33.22 96.02,33.18 96.01,33.17 96.05,33.25 96.11,33.31 96.18,33.39 96.25,33.43 96.35,33.56 96.37,33.58 96.41,33.66 96.42,33.74 96.4,33.98 96.23,34.01 96.17,34.02 96.06,34.03 96,34.01 95.94,34.01 95.82,33.99 95.71,33.96 95.61,33.93 95.18,33.83 94.78,33.71 94.38,33.63 94.18,33.59 93.98,33.56 93.8,33.56 93.61,33.54 93.5,33.65 93.6,33.57 93.6,33.52 93.64,33.73 93.72,33.88 L 94.01,34.44 C 94.11,34.66 94.19,34.87 94.24,35.12 94.27,35.36 94.3,35.67 94.11,35.96 93.92,36.24 93.6,36.3 93.37,36.3 93.25,36.29 93.13,36.27 93.02,36.24 L 92.86,36.19 92.82,36.18 92.8,36.17 92.79,36.17 C 92.79,36.15 92.77,36.2 92.85,36.13 92.85,36.03 92.82,36.08 92.83,36.06 92.81,36.06 92.86,36.09 92.88,36.1 L 92.86,36.17 C 92.82,36.16 92.82,36.17 92.76,36.15 92.76,36.14 92.74,36.18 92.74,36.08 92.82,36.02 92.8,36.06 92.8,36.05 L 92.82,36.05 92.84,36.05 92.88,36.04 93.03,36.02 C 93.14,36.01 93.23,35.99 93.32,35.96 93.51,35.91 93.64,35.8 93.66,35.7 93.71,35.5 93.54,35.1 93.34,34.78 L 93.02,34.22 C 92.94,33.98 92.77,33.76 92.91,33.29 93,33.06 93.26,32.92 93.41,32.9 93.58,32.87 93.71,32.88 93.84,32.89 94.09,32.92 94.31,32.98 94.52,33.04 94.95,33.17 95.35,33.33 95.75,33.47 95.84,33.5 95.94,33.53 96.03,33.56 96.07,33.57 96.12,33.57 96.12,33.58 96.11,33.58 96,33.59 95.98,33.76 95.98,33.79 96.01,33.82 95.99,33.8 95.93,33.66 95.66,33.56 95.65,33.13 95.71,32.87 95.92,32.83 96.03,32.81 96.15,32.78 96.27,32.78 96.38,32.79 96.61,32.79 96.82,32.82 97.04,32.85 97.47,32.92 97.89,33.02 98.3,33.11 L 98.29,33.18 Z M 98.29,33.18" />
            </g>
        </g>
    </g>
</svg>
