<?xml version="1.0" encoding="UTF-8"?>
<!DOCTYPE svg PUBLIC "-//W3C//DTD SVG 1.1//EN" "http://www.w3.org/Graphics/SVG/1.1/DTD/svg11.dtd">
<svg version="1.1" xmlns="http://www.w3.org/2000/svg" xmlns:xlink="http://www.w3.org/1999/xlink" width="120" height="60"  xml:space="preserve" id="ranaSideRight1">
    <!-- Generated by PaintCode - http://www.paintcodeapp.com -->
    <g id="ranaSideRight1-group">
        <g id="ranaSideRight1-group2">
            <path id="ranaSideRight1-bezier" stroke="none" fill="rgb(0, 0, 0)" d="M 94.85,26.55 C 93.71,25.39 92.25,24.4 90.66,24.26 89.87,24.18 89.09,24.37 88.41,24.79 87.73,25.18 87.15,25.74 86.77,26.42 86.37,27.09 86.16,27.86 86.02,28.65 85.95,29.05 85.9,29.45 85.8,29.88 85.76,30.08 85.68,30.36 85.53,30.57 85.49,30.62 85.47,30.66 85.48,30.65 85.48,30.64 85.47,30.71 85.46,30.73 85.44,30.8 85.43,30.89 85.43,30.98 85.37,31.73 85.49,32.57 85.53,33.4 85.55,33.81 85.57,34.23 85.57,34.65 85.56,34.87 85.54,35.08 85.51,35.29 85.47,35.5 85.42,35.73 85.23,35.89 L 85.18,35.83 C 85.37,35.51 85.27,35.06 85.23,34.67 85.17,34.27 85.09,33.87 85.01,33.46 84.86,32.65 84.69,31.85 84.68,30.94 84.68,30.83 84.7,30.7 84.72,30.58 84.74,30.5 84.74,30.46 84.78,30.36 84.82,30.25 84.86,30.2 84.88,30.16 84.97,30.04 85,29.9 85.05,29.7 L 85.3,28.5 C 85.49,27.68 85.77,26.83 86.26,26.1 87.2,24.64 88.95,23.64 90.7,23.89 92.43,24.16 93.83,25.26 94.9,26.5 L 94.85,26.55 Z M 94.85,26.55" />
        </g>
        <g id="ranaSideRight1-group3">
            <path id="ranaSideRight1-bezier2" stroke="none" fill="rgb(0, 0, 0)" d="M 109.84,48.61 C 110.31,48.62 110.78,48.7 111.25,48.87 111.7,49.04 112.17,49.36 112.42,49.87 112.62,50.28 112.96,50.77 112.76,51.43 112.65,51.75 112.4,51.99 112.15,52.09 111.9,52.2 111.64,52.24 111.39,52.23 L 111.36,52.16 C 111.73,51.81 112.04,51.5 112.04,51.23 112.07,50.97 112.01,50.54 111.87,50.1 111.76,49.74 111.46,49.43 111.08,49.2 110.71,48.97 110.28,48.79 109.83,48.69 L 109.84,48.61 Z M 109.84,48.61" />
        </g>
        <g id="ranaSideRight1-group4">
            <path id="ranaSideRight1-bezier3" stroke="none" fill="rgb(0, 0, 0)" d="M 109.86,52.46 C 109.39,53.04 108.6,53.07 107.93,53.06 107.24,53.03 106.57,52.89 105.91,52.71 104.59,52.32 103.36,51.75 102.1,51.3 100.83,50.84 99.55,50.43 98.3,49.93 97.05,49.44 95.82,48.89 94.54,48.52 L 94.54,48.45 C 95.95,48.4 97.25,48.86 98.55,49.23 99.85,49.64 101.08,50.2 102.32,50.75 103.57,51.27 104.78,51.9 106.02,52.35 106.65,52.57 107.29,52.76 107.95,52.84 108.58,52.9 109.34,52.91 109.79,52.42 L 109.86,52.46 Z M 109.86,52.46" />
        </g>
        <g id="ranaSideRight1-group5">
            <path id="ranaSideRight1-bezier4" stroke="none" fill="rgb(0, 0, 0)" d="M 105.31,52.99 C 104.6,53.62 103.49,53.86 102.56,53.49 101.66,53.18 100.79,52.86 99.9,52.57 99.01,52.29 98.1,52.08 97.22,51.8 96.34,51.51 95.46,51.26 94.54,51.02 L 94.54,50.95 C 95.5,50.77 96.48,50.88 97.41,51.07 98.35,51.27 99.23,51.65 100.1,52.01 100.98,52.37 101.84,52.77 102.69,53.14 103.49,53.56 104.49,53.46 105.27,52.94 L 105.31,52.99 Z M 105.31,52.99" />
        </g>
        <g id="ranaSideRight1-group6">
            <path id="ranaSideRight1-bezier5" stroke="none" fill="rgb(0, 0, 0)" d="M 93.75,51.25 C 92.4,51.23 91.06,51.23 89.72,51.25 88.38,51.26 87.03,51.27 85.71,51.37 85.38,51.39 85.05,51.43 84.73,51.48 84.42,51.52 84.1,51.62 83.74,51.67 83.05,51.77 82.36,51.79 81.68,51.77 80.32,51.69 78.97,51.54 77.66,51.16 L 77.67,51.08 C 79.02,51.04 80.36,51.07 81.69,51.02 82.35,51.01 83.01,50.99 83.65,50.93 83.96,50.91 84.29,50.84 84.65,50.81 85,50.78 85.34,50.77 85.68,50.77 88.39,50.74 91.07,50.94 93.75,51.17 L 93.75,51.25 Z M 93.75,51.25" />
        </g>
        <g id="ranaSideRight1-group7">
            <path id="ranaSideRight1-bezier6" stroke="none" fill="rgb(0, 0, 0)" d="M 91.7,48.9 C 88.89,48.47 86.08,48.1 83.27,47.8 L 79.04,47.45 C 77.64,47.31 76.25,47.15 74.84,47.27 L 74.82,47.2 C 76.19,46.65 77.67,46.7 79.09,46.7 80.53,46.75 81.94,46.99 83.34,47.21 86.15,47.64 88.95,48.19 91.71,48.82 L 91.7,48.9 Z M 91.7,48.9" />
        </g>
        <g id="ranaSideRight1-group8">
            <path id="ranaSideRight1-bezier7" stroke="none" fill="rgb(0, 0, 0)" d="M 73.36,48.47 C 73.95,49.3 74.65,50.07 75.45,50.66 75.84,50.96 76.28,51.21 76.73,51.33 77.24,51.48 77.73,51.65 78.21,51.84 79.18,52.22 80.15,52.62 81.01,53.25 81.43,53.57 81.84,53.92 82.18,54.34 82.52,54.75 82.83,55.26 82.83,55.81 L 82.75,55.83 C 82.31,54.92 81.42,54.41 80.59,53.88 79.74,53.37 78.88,52.83 77.97,52.39 77.52,52.17 77.06,51.97 76.58,51.8 76.06,51.61 75.61,51.3 75.21,50.95 74.43,50.24 73.81,49.4 73.3,48.51 L 73.36,48.47 Z M 73.36,48.47" />
        </g>
        <g id="ranaSideRight1-group9">
            <path id="ranaSideRight1-bezier8" stroke="none" fill="rgb(0, 0, 0)" d="M 80.9,55.16 C 81.27,55.33 81.62,55.55 81.93,55.85 82.09,55.99 82.29,56.15 82.33,56.4 82.38,56.63 82.34,56.97 82.08,57.12 L 82,57.1 C 81.85,56.87 81.73,56.8 81.64,56.68 81.54,56.56 81.53,56.38 81.45,56.21 81.29,55.89 81.08,55.55 80.85,55.22 L 80.9,55.16 Z M 80.9,55.16" />
        </g>
        <g id="ranaSideRight1-group10">
            <path id="ranaSideRight1-bezier9" stroke="none" fill="rgb(0, 0, 0)" d="M 79.39,55.58 C 79.79,55.63 80.17,55.74 80.55,55.93 80.73,56.03 80.97,56.12 81.08,56.36 81.2,56.57 81.2,57 80.91,57.12 L 80.84,57.1 C 80.7,56.86 80.57,56.88 80.46,56.79 80.36,56.72 80.3,56.55 80.19,56.41 79.95,56.15 79.66,55.89 79.36,55.64 L 79.39,55.58 Z M 79.39,55.58" />
        </g>
        <g id="ranaSideRight1-group11">
            <path id="ranaSideRight1-bezier10" stroke="none" fill="rgb(0, 0, 0)" d="M 79.37,56.85 C 78.73,56.91 78.08,56.92 77.4,56.68 77.23,56.62 77.03,56.51 76.88,56.39 76.75,56.28 76.66,56.19 76.56,56.07 76.37,55.83 76.19,55.57 76.06,55.22 L 76.1,55.16 C 76.48,55.18 76.79,55.34 77.07,55.52 77.2,55.62 77.33,55.75 77.42,55.88 77.49,55.98 77.55,56.06 77.67,56.14 77.89,56.3 78.18,56.41 78.47,56.51 78.76,56.62 79.07,56.71 79.38,56.78 L 79.37,56.85 Z M 79.37,56.85" />
        </g>
        <g id="ranaSideRight1-group12">
            <path id="ranaSideRight1-bezier11" stroke="none" fill="rgb(0, 0, 0)" d="M 75.82,54.98 C 74.8,54.75 73.77,54.47 72.74,54.41 72.38,54.34 72.19,54.16 71.96,54.02 L 71.31,53.58 C 70.88,53.3 70.43,53.07 69.96,52.9 69.48,52.73 69.02,52.65 68.48,52.6 67.89,52.51 67.35,52.27 66.89,51.94 66.43,51.59 66.05,51.17 65.75,50.71 65.46,50.24 65.21,49.76 65.13,49.19 L 65.2,49.19 C 65.77,50.04 66.5,50.81 67.31,51.32 67.71,51.57 68.16,51.76 68.6,51.86 69.11,51.96 69.69,52.11 70.18,52.34 70.69,52.56 71.15,52.86 71.58,53.18 72,53.48 72.44,53.92 72.79,54.04 73.85,54.2 74.84,54.58 75.84,54.91 L 75.82,54.98 Z M 75.82,54.98" />
        </g>
        <g id="ranaSideRight1-group13">
            <path id="ranaSideRight1-bezier12" stroke="none" fill="rgb(0, 0, 0)" d="M 68.91,53.89 C 69.48,55.01 70.07,56.13 70.73,57.17 70.9,57.42 71.09,57.67 71.28,57.88 71.48,58.1 71.64,58.29 71.78,58.3 72.08,58.38 72.4,58.45 72.71,58.61 73.03,58.75 73.37,59.07 73.37,59.43 L 73.3,59.46 C 72.88,58.99 72.28,59.14 71.65,59.03 71.61,59.03 71.41,59 71.31,58.94 71.19,58.88 71.12,58.81 71.04,58.75 70.89,58.61 70.79,58.47 70.69,58.33 70.5,58.05 70.35,57.76 70.21,57.47 69.64,56.31 69.21,55.12 68.84,53.91 L 68.91,53.89 Z M 68.91,53.89" />
        </g>
        <g id="ranaSideRight1-group14">
            <path id="ranaSideRight1-bezier13" stroke="none" fill="rgb(0, 0, 0)" d="M 76.1,57.87 C 76.53,57.92 76.95,58.02 77.36,58.23 77.57,58.32 77.81,58.41 77.94,58.64 78.07,58.86 78.14,59.19 77.95,59.44 L 77.88,59.45 C 77.65,59.28 77.51,59.23 77.37,59.13 77.23,59.04 77.15,58.86 77.02,58.72 76.74,58.45 76.41,58.18 76.07,57.94 L 76.1,57.87 Z M 76.1,57.87" />
        </g>
        <g id="ranaSideRight1-group15">
            <path id="ranaSideRight1-bezier14" stroke="none" fill="rgb(0, 0, 0)" d="M 78.26,57.86 C 78.66,57.85 79.08,57.97 79.44,58.24 79.62,58.36 79.84,58.51 79.9,58.73 79.96,58.96 79.94,59.21 79.79,59.44 L 79.71,59.45 C 79.47,59.31 79.35,59.19 79.23,59.08 79.12,58.97 79.11,58.81 79.02,58.66 78.84,58.39 78.57,58.13 78.24,57.94 L 78.26,57.86 Z M 78.26,57.86" />
        </g>
        <g id="ranaSideRight1-group16">
            <path id="ranaSideRight1-bezier15" stroke="none" fill="rgb(0, 0, 0)" d="M 80.44,58.65 C 80.67,58.72 80.87,58.82 81.06,58.97 81.16,59.04 81.3,59.09 81.31,59.23 81.32,59.37 81.3,59.54 81.12,59.69 L 81.05,59.7 C 80.83,59.65 80.73,59.63 80.64,59.58 80.57,59.53 80.59,59.42 80.57,59.32 80.52,59.13 80.46,58.92 80.39,58.7 L 80.44,58.65 Z M 80.44,58.65" />
        </g>
        <g id="ranaSideRight1-group17">
            <path id="ranaSideRight1-bezier16" stroke="none" fill="rgb(0, 0, 0)" d="M 75.82,57.48 C 75.32,57.37 74.84,57.12 74.46,56.72 74.27,56.53 74.06,56.32 74.01,56.03 73.95,55.76 73.99,55.46 74.17,55.2 L 74.24,55.19 C 74.48,55.41 74.59,55.6 74.71,55.77 74.83,55.95 74.85,56.16 74.95,56.36 75.15,56.75 75.46,57.12 75.84,57.41 L 75.82,57.48 Z M 75.82,57.48" />
        </g>
        <g id="ranaSideRight1-group18">
            <path id="ranaSideRight1-bezier17" stroke="none" fill="rgb(0, 0, 0)" d="M 67.71,53.35 C 64.24,53.28 60.76,53.31 57.3,53.47 53.84,53.63 50.36,53.87 47,54.57 43.67,55.46 40.22,56.26 36.74,56.52 33.27,56.76 29.69,56.84 26.32,55.85 L 26.34,55.78 C 29.76,56.34 33.24,56.14 36.66,55.78 40.1,55.41 43.47,54.81 46.88,53.98 50.33,53.34 53.81,53.18 57.29,53.09 60.76,53.04 64.24,53.1 67.71,53.28 L 67.71,53.35 Z M 67.71,53.35" />
        </g>
        <g id="ranaSideRight1-group19">
            <path id="ranaSideRight1-bezier18" stroke="none" fill="rgb(0, 0, 0)" d="M 24.59,57.86 C 25.29,57.97 25.99,58.16 26.64,58.49 26.97,58.65 27.34,58.83 27.57,59.17 27.79,59.5 27.92,59.99 27.7,60.36 L 27.63,60.36 C 27.42,60.03 27.22,59.85 26.99,59.66 26.77,59.47 26.58,59.21 26.32,59 25.8,58.6 25.2,58.24 24.57,57.94 L 24.59,57.86 Z M 24.59,57.86" />
        </g>
        <g id="ranaSideRight1-group20">
            <path id="ranaSideRight1-bezier19" stroke="none" fill="rgb(0, 0, 0)" d="M 27.67,58.32 C 28.11,58.28 28.58,58.36 29,58.63 29.21,58.75 29.45,58.91 29.52,59.17 29.61,59.42 29.58,59.7 29.41,59.94 L 29.34,59.95 C 29.1,59.77 28.99,59.64 28.86,59.52 28.74,59.4 28.72,59.23 28.61,59.08 28.39,58.81 28.05,58.56 27.66,58.4 L 27.67,58.32 Z M 27.67,58.32" />
        </g>
        <g id="ranaSideRight1-group21">
            <path id="ranaSideRight1-bezier20" stroke="none" fill="rgb(0, 0, 0)" d="M 29.78,58.33 C 30.05,58.45 30.31,58.6 30.56,58.78 30.68,58.87 30.85,58.93 30.9,59.1 30.94,59.25 30.99,59.5 30.79,59.7 L 30.71,59.69 C 30.5,59.6 30.39,59.6 30.28,59.52 30.17,59.45 30.16,59.3 30.1,59.17 29.98,58.92 29.85,58.66 29.72,58.39 L 29.78,58.33 Z M 29.78,58.33" />
        </g>
        <g id="ranaSideRight1-group22">
            <path id="ranaSideRight1-bezier21" stroke="none" fill="rgb(0, 0, 0)" d="M 23.85,58.32 C 24.17,58.35 24.49,58.45 24.78,58.68 24.93,58.78 25.11,58.92 25.13,59.13 25.16,59.34 25.08,59.56 24.87,59.7 L 24.8,59.69 C 24.6,59.53 24.51,59.45 24.43,59.38 24.35,59.31 24.38,59.19 24.33,59.07 24.22,58.84 24.04,58.61 23.82,58.39 L 23.85,58.32 Z M 23.85,58.32" />
        </g>
        <g id="ranaSideRight1-group23">
            <path id="ranaSideRight1-bezier22" stroke="none" fill="rgb(0, 0, 0)" d="M 22.91,59.98 C 22.23,59.86 21.51,59.68 20.98,59.08 20.85,58.93 20.76,58.74 20.72,58.54 20.68,58.3 20.68,58.21 20.62,58.04 20.54,57.74 20.4,57.43 20.25,57.14 19.93,56.55 19.52,56.02 19.16,55.46 18.79,54.91 18.45,54.36 17.9,53.94 L 17.92,53.87 C 18.7,53.93 19.29,54.49 19.76,55.01 20.24,55.56 20.53,56.22 20.79,56.89 20.92,57.23 21.03,57.57 21.1,57.94 21.17,58.37 21.09,58.6 21.28,58.87 21.61,59.39 22.28,59.71 22.92,59.91 L 22.91,59.98 Z M 22.91,59.98" />
        </g>
        <g id="ranaSideRight1-group24">
            <path id="ranaSideRight1-bezier23" stroke="none" fill="rgb(0, 0, 0)" d="M 23.32,53.94 C 22.24,53.75 21.17,53.58 20.09,53.44 19.56,53.37 19.01,53.37 18.5,53.27 17.97,53.18 17.47,53.03 16.93,53.02 L 16.9,52.95 C 17.38,52.54 18.02,52.53 18.57,52.52 19.14,52.53 19.68,52.71 20.21,52.85 21.28,53.12 22.32,53.47 23.34,53.87 L 23.32,53.94 Z M 23.32,53.94" />
        </g>
        <g id="ranaSideRight1-group25">
            <path id="ranaSideRight1-bezier24" stroke="none" fill="rgb(0, 0, 0)" d="M 17.17,55.12 C 16.84,54.5 16.24,54.07 15.61,53.83 14.97,53.58 14.28,53.5 13.6,53.51 12.92,53.55 12.12,53.66 11.38,53.41 11.01,53.28 10.63,53.11 10.35,52.8 10.06,52.51 9.86,52.09 9.96,51.69 L 10.04,51.7 C 10.3,52.37 10.94,52.56 11.57,52.68 12.21,52.8 12.86,52.87 13.61,52.91 14.35,52.98 15.1,53.14 15.76,53.5 16.42,53.86 16.99,54.4 17.24,55.1 L 17.17,55.12 Z M 17.17,55.12" />
        </g>
        <g id="ranaSideRight1-group26">
            <path id="ranaSideRight1-bezier25" stroke="none" fill="rgb(0, 0, 0)" d="M 99.95,41.28 C 99.94,42.1 99.31,43 98.33,43.05 97.39,43.11 96.46,42.29 96.45,41.28 96.42,40.79 96.6,40.27 96.95,39.89 97.3,39.51 97.82,39.3 98.33,39.32 98.85,39.33 99.33,39.63 99.59,40.02 99.87,40.4 99.97,40.86 99.95,41.28 Z M 99.88,41.28 C 99.87,40.86 99.62,40.5 99.31,40.3 98.99,40.09 98.65,40.05 98.33,40.07 97.71,40.1 97.09,40.58 97.05,41.28 96.99,41.96 97.58,42.65 98.33,42.67 98.7,42.7 99.09,42.59 99.4,42.34 99.7,42.09 99.9,41.69 99.88,41.28 Z M 99.88,41.28" />
        </g>
        <g id="ranaSideRight1-group27">
            <path id="ranaSideRight1-bezier26" stroke="none" fill="rgb(0, 0, 0)" d="M 101.88,42.57 C 101.71,41.88 101.48,41.22 101.18,40.62 101.02,40.32 100.81,40.08 100.66,39.81 100.52,39.53 100.37,39.27 100.15,38.94 L 100.18,38.87 C 100.6,38.84 100.99,39.07 101.26,39.36 101.54,39.65 101.64,40.04 101.74,40.4 101.95,41.12 102,41.85 101.95,42.57 L 101.88,42.57 Z M 101.88,42.57" />
        </g>
        <g id="ranaSideRight1-group28">
            <path id="ranaSideRight1-bezier27" stroke="none" fill="rgb(0, 0, 0)" d="M 95.29,41.48 C 95.63,42.32 96.25,43.03 97.01,43.36 97.39,43.53 97.8,43.55 98.2,43.63 98.61,43.71 99.05,43.76 99.53,43.87 L 99.55,43.94 C 99.14,44.23 98.65,44.36 98.14,44.38 97.63,44.39 97.14,44.17 96.72,43.89 95.85,43.34 95.35,42.41 95.21,41.5 L 95.29,41.48 Z M 95.29,41.48" />
        </g>
        <g id="ranaSideRight1-group29">
            <path id="ranaSideRight1-bezier28" stroke="none" fill="rgb(0, 0, 0)" d="M 109.8,47.47 C 109.14,46.8 108.55,46.06 108.06,45.25 107.57,44.45 107.17,43.54 107.09,42.57 106.86,40.69 107.08,38.79 106.07,37.18 105.39,35.34 105.2,33.42 105.32,31.51 105.48,29.62 105.93,27.69 106.97,26.09 L 107.03,26.13 C 106.39,27.89 106.1,29.71 106.06,31.55 106.04,33.36 106.08,35.26 106.63,36.96 106.78,37.33 107.04,37.82 107.15,38.3 107.27,38.77 107.32,39.26 107.36,39.73 107.41,40.68 107.4,41.61 107.46,42.54 107.48,43.45 107.81,44.32 108.25,45.14 108.69,45.95 109.23,46.72 109.85,47.42 L 109.8,47.47 Z M 109.8,47.47" />
        </g>
        <g id="ranaSideRight1-group30">
            <path id="ranaSideRight1-bezier29" stroke="none" fill="rgb(0, 0, 0)" d="M 94.85,30.64 C 94.36,30.42 93.88,30.16 93.43,29.86 93.2,29.71 92.94,29.58 92.78,29.34 92.63,29.11 92.48,28.81 92.55,28.46 L 92.62,28.43 C 92.91,28.57 93.11,28.67 93.32,28.83 93.53,28.97 93.65,29.2 93.82,29.4 94.17,29.79 94.53,30.18 94.9,30.58 L 94.85,30.64 Z M 94.85,30.64" />
        </g>
        <g id="ranaSideRight1-group31">
            <path id="ranaSideRight1-bezier30" stroke="none" fill="rgb(0, 0, 0)" d="M 92.03,29.15 C 91.62,29.11 91.18,29.33 90.91,29.59 90.88,29.62 90.85,29.66 90.85,29.67 90.86,29.7 90.83,29.63 90.88,29.68 L 90.9,29.7 C 90.92,29.71 90.96,29.78 90.95,29.82 90.94,29.91 90.89,29.95 90.87,29.96 90.82,29.99 90.8,30 90.76,30.01 90.7,30.03 90.65,30.05 90.59,30.07 L 89.95,30.23 C 89.75,30.29 89.53,30.34 89.37,30.42 89.34,30.44 89.31,30.47 89.3,30.47 89.31,30.5 89.35,30.37 89.32,30.35 89.31,30.34 89.41,30.41 89.51,30.46 89.77,30.62 89.93,30.96 89.91,31.25 89.91,31.53 89.83,31.75 89.78,31.96 89.73,32.16 89.74,32.35 89.77,32.33 89.78,32.37 89.76,32.27 90.02,32.55 90.12,32.7 90.11,32.91 90.06,33.02 90.02,33.14 89.97,33.2 89.92,33.27 89.55,33.7 89.16,33.89 88.88,34.14 88.81,34.17 88.79,34.28 88.81,34.14 88.76,33.93 88.66,33.98 88.82,34.05 88.89,34.11 89.05,34.14 89.1,34.43 89.1,34.72 88.95,34.77 88.9,34.83 88.76,34.92 88.65,34.96 88.54,34.99 L 87.9,35.18 C 87.8,35.21 87.7,35.24 87.62,35.28 87.58,35.31 87.57,35.31 87.56,35.31 87.56,35.33 87.6,35.38 87.64,35.41 L 87.61,35.48 C 87.55,35.46 87.49,35.46 87.43,35.38 87.36,35.28 87.44,35.17 87.47,35.12 87.56,35.02 87.66,34.95 87.75,34.88 L 88.31,34.52 C 88.39,34.47 88.48,34.4 88.52,34.36 88.54,34.35 88.49,34.31 88.48,34.49 88.51,34.66 88.56,34.64 88.54,34.64 88.53,34.62 88.15,34.6 88.1,34.14 88.14,33.77 88.29,33.71 88.36,33.6 88.73,33.24 89.13,33.01 89.35,32.8 89.37,32.78 89.39,32.75 89.38,32.77 89.38,32.78 89.37,32.87 89.41,32.92 89.54,33.03 89.29,32.85 89.19,32.69 89,32.28 89.15,32 89.21,31.79 89.36,31.35 89.47,31.03 89.24,30.87 89.16,30.8 89.05,30.78 88.92,30.57 88.83,30.46 88.9,30.2 88.99,30.16 89.07,30.09 89.13,30.06 89.19,30.03 89.44,29.94 89.66,29.9 89.88,29.87 L 90.53,29.77 90.67,29.74 C 90.69,29.74 90.72,29.73 90.71,29.73 90.73,29.73 90.69,29.74 90.69,29.8 90.67,29.83 90.71,29.89 90.72,29.89 L 90.71,29.88 C 90.68,29.87 90.56,29.7 90.62,29.61 90.65,29.52 90.7,29.47 90.75,29.43 91.14,29.15 91.59,28.99 92.05,29.07 L 92.03,29.15 Z M 92.03,29.15" />
        </g>
        <g id="ranaSideRight1-group32">
            <path id="ranaSideRight1-bezier31" stroke="none" fill="rgb(0, 0, 0)" d="M 82.78,28.9 C 81.81,28.81 80.83,28.78 79.88,28.81 79.4,28.83 78.93,28.92 78.46,28.92 77.99,28.91 77.53,28.91 77.01,28.9 L 76.99,28.83 C 77.38,28.45 77.89,28.27 78.39,28.17 78.89,28.07 79.4,28.15 79.9,28.21 80.89,28.31 81.86,28.53 82.8,28.82 L 82.78,28.9 Z M 82.78,28.9" />
        </g>
        <g id="ranaSideRight1-group33">
            <path id="ranaSideRight1-bezier32" stroke="none" fill="rgb(0, 0, 0)" d="M 78.38,33.18 C 77.61,33.38 76.91,33.77 76.28,34.21 75.96,34.44 75.7,34.72 75.37,34.93 75.04,35.13 74.7,35.32 74.28,35.47 L 74.22,35.42 C 74.35,34.99 74.61,34.64 74.9,34.34 75.2,34.04 75.6,33.87 75.97,33.69 76.73,33.34 77.54,33.1 78.37,33.1 L 78.38,33.18 Z M 78.38,33.18" />
        </g>
        <g id="ranaSideRight1-group34">
            <path id="ranaSideRight1-bezier33" stroke="none" fill="rgb(0, 0, 0)" d="M 76.32,31.9 C 75.05,32.5 73.81,33.19 72.65,33.96 72.07,34.36 71.55,34.81 70.99,35.21 70.43,35.6 69.89,36.01 69.32,36.46 L 69.26,36.42 C 69.5,35.72 69.99,35.12 70.52,34.63 71.05,34.12 71.71,33.78 72.34,33.45 73.61,32.77 74.93,32.23 76.3,31.82 L 76.32,31.9 Z M 76.32,31.9" />
        </g>
        <g id="ranaSideRight1-group35">
            <path id="ranaSideRight1-bezier34" stroke="none" fill="rgb(0, 0, 0)" d="M 10.98,48.89 C 10.59,49.38 10.21,49.87 9.86,50.37 9.69,50.62 9.56,50.9 9.35,51.11 9.14,51.32 8.92,51.51 8.62,51.71 L 8.55,51.68 C 8.48,51.31 8.6,50.96 8.74,50.67 8.9,50.38 9.17,50.18 9.41,49.97 9.88,49.54 10.39,49.16 10.93,48.83 L 10.98,48.89 Z M 10.98,48.89" />
        </g>
        <g id="ranaSideRight1-group36">
            <path id="ranaSideRight1-bezier35" stroke="none" fill="rgb(0, 0, 0)" d="M 16.94,45.33 C 16.13,46.04 15.34,46.77 14.56,47.5 14.18,47.87 13.84,48.28 13.43,48.61 13.04,48.95 12.6,49.22 12.25,49.62 L 12.17,49.6 C 12.15,49.29 12.29,49.01 12.42,48.76 12.56,48.5 12.73,48.28 12.91,48.07 13.27,47.65 13.74,47.35 14.18,47.04 15.05,46.39 15.96,45.81 16.9,45.27 L 16.94,45.33 Z M 16.94,45.33" />
        </g>
        <g id="ranaSideRight1-group37">
            <path id="ranaSideRight1-bezier36" stroke="none" fill="rgb(0, 0, 0)" d="M 22.16,45.33 C 21.37,45.67 20.57,45.98 19.76,46.26 19.36,46.41 18.97,46.6 18.54,46.65 18.11,46.7 17.67,46.73 17.21,46.59 L 17.2,46.51 C 17.58,46.25 17.97,46.07 18.36,45.92 18.76,45.78 19.19,45.75 19.61,45.68 20.45,45.53 21.29,45.39 22.13,45.26 L 22.16,45.33 Z M 22.16,45.33" />
        </g>
        <g id="ranaSideRight1-group38">
            <path id="ranaSideRight1-bezier37" stroke="none" fill="rgb(0, 0, 0)" d="M 10.98,46.58 C 10.44,47.14 9.89,47.7 9.34,48.24 9.07,48.52 8.83,48.83 8.52,49.05 8.2,49.28 7.86,49.45 7.49,49.63 L 7.43,49.59 C 7.5,49.13 7.76,48.8 8.01,48.5 8.28,48.19 8.63,48 8.95,47.78 9.6,47.33 10.26,46.91 10.93,46.52 L 10.98,46.58 Z M 10.98,46.58" />
        </g>
        <g id="ranaSideRight1-group39">
            <path id="ranaSideRight1-bezier38" stroke="none" fill="rgb(0, 0, 0)" d="M 14.23,42.02 C 13.6,42.6 12.98,43.18 12.37,43.77 12.07,44.07 11.81,44.4 11.47,44.65 11.13,44.9 10.79,45.13 10.36,45.32 L 10.3,45.27 C 10.42,44.81 10.68,44.44 10.96,44.1 11.25,43.77 11.63,43.55 11.99,43.31 12.69,42.81 13.43,42.36 14.19,41.95 L 14.23,42.02 Z M 14.23,42.02" />
        </g>
        <g id="ranaSideRight1-group40">
            <path id="ranaSideRight1-bezier39" stroke="none" fill="rgb(0, 0, 0)" d="M 11.28,42.6 C 10.6,43.03 9.92,43.46 9.26,43.9 8.93,44.12 8.63,44.39 8.27,44.56 7.91,44.72 7.55,44.87 7.11,44.95 L 7.06,44.89 C 7.26,44.49 7.56,44.18 7.87,43.92 8.2,43.66 8.59,43.53 8.97,43.37 9.71,43.04 10.48,42.76 11.26,42.53 L 11.28,42.6 Z M 11.28,42.6" />
        </g>
        <g id="ranaSideRight1-group41">
            <path id="ranaSideRight1-bezier40" stroke="none" fill="rgb(0, 0, 0)" d="M 9.76,41.31 C 9.1,41.19 8.42,41.16 7.8,41.23 7.48,41.27 7.19,41.39 6.9,41.41 6.6,41.44 6.31,41.48 5.92,41.52 L 5.87,41.46 C 6.03,41.09 6.35,40.84 6.7,40.69 7.05,40.54 7.44,40.59 7.8,40.63 8.51,40.7 9.18,40.91 9.78,41.24 L 9.76,41.31 Z M 9.76,41.31" />
        </g>
        <g id="ranaSideRight1-group42">
            <path id="ranaSideRight1-bezier41" stroke="none" fill="rgb(0, 0, 0)" d="M 110.48,51.42 C 110.22,51.35 109.98,51.21 109.79,50.97 109.69,50.86 109.56,50.71 109.59,50.54 109.63,50.37 109.74,50.2 109.96,50.14 L 110.04,50.16 C 110.21,50.33 110.28,50.4 110.34,50.47 110.4,50.53 110.33,50.62 110.33,50.72 110.35,50.91 110.42,51.14 110.52,51.37 L 110.48,51.42 Z M 110.48,51.42" />
        </g>
        <g id="ranaSideRight1-group43">
            <path id="ranaSideRight1-bezier42" stroke="none" fill="rgb(0, 0, 0)" d="M 67.71,34.9 C 66.49,35.13 65.32,35.57 64.27,36.16 63.75,36.46 63.29,36.85 62.79,37.18 62.29,37.5 61.81,37.86 61.27,38.22 L 61.21,38.17 C 61.44,37.55 61.85,37.02 62.33,36.59 62.81,36.14 63.41,35.87 64.01,35.62 65.19,35.12 66.45,34.84 67.71,34.82 L 67.71,34.9 Z M 67.71,34.9" />
        </g>
        <g id="ranaSideRight1-group44">
            <path id="ranaSideRight1-bezier43" stroke="none" fill="rgb(0, 0, 0)" d="M 60.55,35.48 C 59.1,35.8 57.67,36.22 56.32,36.78 55.65,37.08 55.03,37.44 54.4,37.77 53.76,38.09 53.17,38.45 52.57,38.92 L 52.51,38.88 C 52.79,38.14 53.38,37.56 54.01,37.12 54.65,36.68 55.4,36.44 56.12,36.22 57.56,35.77 59.05,35.51 60.54,35.41 L 60.55,35.48 Z M 60.55,35.48" />
        </g>
        <g id="ranaSideRight1-group45">
            <path id="ranaSideRight1-bezier44" stroke="none" fill="rgb(0, 0, 0)" d="M 58.06,37.56 C 57.04,38.19 56.06,38.87 55.14,39.6 54.69,39.98 54.29,40.41 53.85,40.77 53.41,41.14 52.98,41.49 52.58,41.96 L 52.51,41.93 C 52.54,41.28 52.92,40.7 53.32,40.23 53.74,39.76 54.27,39.44 54.79,39.12 55.82,38.47 56.9,37.93 58.02,37.49 L 58.06,37.56 Z M 58.06,37.56" />
        </g>
        <g id="ranaSideRight1-group46">
            <path id="ranaSideRight1-bezier45" stroke="none" fill="rgb(0, 0, 0)" d="M 50.15,39.77 C 49.34,40.48 48.6,41.26 47.93,42.07 47.59,42.48 47.32,42.93 46.97,43.32 46.61,43.71 46.26,44.09 45.82,44.46 L 45.76,44.43 C 45.84,43.85 46.08,43.34 46.37,42.87 46.66,42.39 47.09,42.03 47.49,41.66 48.29,40.91 49.16,40.25 50.1,39.7 L 50.15,39.77 Z M 50.15,39.77" />
        </g>
        <g id="ranaSideRight1-group47">
            <path id="ranaSideRight1-bezier46" stroke="none" fill="rgb(0, 0, 0)" d="M 47.04,40.77 C 46.03,41.57 44.94,42.27 43.78,42.86 43.2,43.15 42.61,43.46 41.95,43.6 41.3,43.72 40.61,43.77 39.96,43.56 L 39.96,43.49 C 40.59,43.28 41.17,43.09 41.75,42.87 42.33,42.66 42.94,42.52 43.54,42.31 44.72,41.86 45.88,41.32 47,40.7 L 47.04,40.77 Z M 47.04,40.77" />
        </g>
        <g id="ranaSideRight1-group48">
            <path id="ranaSideRight1-bezier47" stroke="none" fill="rgb(0, 0, 0)" d="M 39.97,42.6 C 38.62,43.29 37.28,44 35.96,44.73 35.31,45.11 34.69,45.53 34.02,45.87 33.38,46.24 32.66,46.5 32.16,47.02 L 32.09,47 C 32.15,46.57 32.46,46.26 32.73,45.98 33.01,45.69 33.32,45.46 33.64,45.23 34.28,44.79 34.99,44.51 35.69,44.2 37.09,43.58 38.51,43.03 39.94,42.54 L 39.97,42.6 Z M 39.97,42.6" />
        </g>
        <g id="ranaSideRight1-group49">
            <path id="ranaSideRight1-bezier48" stroke="none" fill="rgb(0, 0, 0)" d="M 35.21,42.79 C 34.69,43.14 34.19,43.65 33.68,44.07 33.16,44.51 32.63,44.93 32.08,45.33 31.53,45.74 30.97,46.16 30.31,46.41 29.66,46.65 28.9,46.83 28.21,46.58 L 28.21,46.51 C 28.87,46.34 29.42,46.04 30,45.73 30.56,45.42 31.17,45.16 31.75,44.83 32.33,44.5 32.9,44.14 33.46,43.77 34.04,43.43 34.55,43.01 35.21,42.71 L 35.21,42.79 Z M 35.21,42.79" />
        </g>
        <g id="ranaSideRight1-group50">
            <path id="ranaSideRight1-bezier49" stroke="none" fill="rgb(0, 0, 0)" d="M 31.13,44.05 C 30.12,44.36 29.11,44.68 28.12,45.02 27.62,45.2 27.15,45.43 26.65,45.56 26.15,45.69 25.66,45.77 25.15,45.95 L 25.1,45.9 C 25.38,45.36 25.92,45.09 26.4,44.85 26.89,44.62 27.43,44.55 27.96,44.44 29.01,44.23 30.06,44.08 31.12,43.98 L 31.13,44.05 Z M 31.13,44.05" />
        </g>
        <g id="ranaSideRight1-group51">
            <path id="ranaSideRight1-bezier50" stroke="none" fill="rgb(0, 0, 0)" d="M 36.06,38.94 C 34.75,39.56 33.44,40.18 32.16,40.82 31.51,41.15 30.9,41.53 30.24,41.8 29.58,42.08 28.92,42.33 28.23,42.6 L 28.19,42.54 C 28.64,41.93 29.28,41.51 29.9,41.13 30.54,40.76 31.23,40.53 31.91,40.28 33.27,39.75 34.64,39.29 36.03,38.87 L 36.06,38.94 Z M 36.06,38.94" />
        </g>
        <g id="ranaSideRight1-group52">
            <path id="ranaSideRight1-bezier51" stroke="none" fill="rgb(0, 0, 0)" d="M 26.88,41.52 L 23.04,42.72 C 22.4,42.92 21.78,43.18 21.13,43.33 20.48,43.47 19.83,43.59 19.14,43.67 L 19.11,43.61 C 19.65,43.14 20.28,42.86 20.91,42.61 21.55,42.37 22.22,42.27 22.89,42.14 24.21,41.86 25.53,41.63 26.87,41.45 L 26.88,41.52 Z M 26.88,41.52" />
        </g>
        <g id="ranaSideRight1-group53">
            <path id="ranaSideRight1-bezier52" stroke="none" fill="rgb(0, 0, 0)" d="M 19.68,41.24 C 18.57,41.55 17.47,41.91 16.43,42.35 15.91,42.58 15.44,42.87 14.95,43.1 14.47,43.35 14.01,43.57 13.64,44.03 L 13.57,44.01 C 13.56,43.34 14.09,42.81 14.57,42.46 15.07,42.1 15.66,41.94 16.23,41.78 17.36,41.45 18.51,41.26 19.67,41.17 L 19.68,41.24 Z M 19.68,41.24" />
        </g>
        <g id="ranaSideRight1-group54">
            <path id="ranaSideRight1-bezier53" stroke="none" fill="rgb(0, 0, 0)" d="M 12.71,37.56 C 11.63,37.79 10.56,38.02 9.5,38.28 8.97,38.42 8.46,38.61 7.93,38.7 L 6.31,38.93 6.27,38.87 C 6.66,38.41 7.22,38.16 7.74,37.97 8.27,37.78 8.84,37.75 9.39,37.69 10.5,37.56 11.6,37.5 12.7,37.49 L 12.71,37.56 Z M 12.71,37.56" />
        </g>
        <g id="ranaSideRight1-group55">
            <path id="ranaSideRight1-bezier54" stroke="none" fill="rgb(0, 0, 0)" d="M 15.04,31.9 C 13.83,31.98 12.62,32.06 11.42,32.17 10.82,32.23 10.22,32.35 9.63,32.36 9.03,32.38 8.44,32.33 7.85,32.42 L 7.81,32.36 C 8.03,32.1 8.35,31.97 8.64,31.85 8.94,31.74 9.25,31.67 9.55,31.61 10.17,31.5 10.78,31.55 11.4,31.57 12.62,31.59 13.83,31.68 15.04,31.82 L 15.04,31.9 Z M 15.04,31.9" />
        </g>
        <g id="ranaSideRight1-group56">
            <path id="ranaSideRight1-bezier55" stroke="none" fill="rgb(0, 0, 0)" d="M 20.4,27.12 C 19.43,26.64 18.46,26.19 17.48,25.79 16.98,25.6 16.47,25.46 16,25.24 L 14.56,24.56 14.56,24.49 C 15.13,24.31 15.72,24.4 16.25,24.54 16.79,24.68 17.27,24.98 17.74,25.25 18.69,25.78 19.58,26.39 20.44,27.06 L 20.4,27.12 Z M 20.4,27.12" />
        </g>
        <g id="ranaSideRight1-group57">
            <path id="ranaSideRight1-bezier56" stroke="none" fill="rgb(0, 0, 0)" d="M 27.65,21.81 L 24.33,20.38 C 23.78,20.15 23.2,19.97 22.68,19.69 22.15,19.42 21.66,19.08 21.13,18.81 L 21.13,18.74 C 21.79,18.61 22.4,18.82 22.98,19 23.56,19.2 24.07,19.54 24.6,19.84 25.65,20.44 26.68,21.07 27.68,21.74 L 27.65,21.81 Z M 27.65,21.81" />
        </g>
        <g id="ranaSideRight1-group58">
            <path id="ranaSideRight1-bezier57" stroke="none" fill="rgb(0, 0, 0)" d="M 36.02,18.8 C 35.02,18.03 34.06,17.22 33.14,16.36 32.67,15.94 32.17,15.53 31.79,15.01 31.61,14.75 31.42,14.49 31.28,14.19 31.16,13.89 30.96,13.56 31.09,13.18 L 31.16,13.2 C 31.42,13.7 31.96,14.08 32.37,14.53 32.8,14.96 33.16,15.47 33.57,15.95 34.38,16.88 35.22,17.82 36.07,18.75 L 36.02,18.8 Z M 36.02,18.8" />
        </g>
        <g id="ranaSideRight1-group59">
            <path id="ranaSideRight1-bezier58" stroke="none" fill="rgb(0, 0, 0)" d="M 44.18,16.01 C 43.34,15.42 42.52,14.78 41.74,14.09 41.34,13.75 40.92,13.43 40.61,13 40.31,12.57 40.02,12.1 39.93,11.55 L 39.99,11.51 C 40.43,11.83 40.8,12.16 41.17,12.51 41.54,12.85 41.83,13.28 42.16,13.67 42.84,14.44 43.53,15.2 44.23,15.96 L 44.18,16.01 Z M 44.18,16.01" />
        </g>
        <g id="ranaSideRight1-group60">
            <path id="ranaSideRight1-bezier59" stroke="none" fill="rgb(0, 0, 0)" d="M 52.52,16.02 C 51.59,15.52 50.69,14.95 49.85,14.28 49.43,13.95 48.98,13.63 48.66,13.16 48.37,12.71 48.07,12.11 48.25,11.53 L 48.33,11.53 C 48.56,12.01 48.91,12.33 49.25,12.69 49.6,13.04 49.89,13.46 50.25,13.84 50.97,14.58 51.75,15.28 52.56,15.95 L 52.52,16.02 Z M 52.52,16.02" />
        </g>
        <g id="ranaSideRight1-group61">
            <path id="ranaSideRight1-bezier60" stroke="none" fill="rgb(0, 0, 0)" d="M 55.26,16.47 C 54.55,15.84 53.91,15.13 53.35,14.34 53.07,13.94 52.77,13.53 52.66,13.02 52.55,12.54 52.54,11.91 52.92,11.51 L 52.99,11.54 C 53.03,12.03 53.2,12.39 53.37,12.79 53.55,13.18 53.67,13.61 53.87,14.03 54.28,14.85 54.78,15.65 55.32,16.42 L 55.26,16.47 Z M 55.26,16.47" />
        </g>
        <g id="ranaSideRight1-group62">
            <path id="ranaSideRight1-bezier61" stroke="none" fill="rgb(0, 0, 0)" d="M 60.51,16.8 C 59.84,16.05 59.17,15.31 58.49,14.59 58.14,14.24 57.75,13.92 57.45,13.55 57.13,13.17 56.87,12.78 56.53,12.4 L 56.56,12.33 C 57.13,12.36 57.58,12.7 57.98,13.02 58.38,13.35 58.65,13.79 58.95,14.21 59.54,15.03 60.08,15.88 60.57,16.76 L 60.51,16.8 Z M 60.51,16.8" />
        </g>
        <g id="ranaSideRight1-group63">
            <path id="ranaSideRight1-bezier62" stroke="none" fill="rgb(0, 0, 0)" d="M 67.69,17.14 C 66.34,16.33 65.04,15.43 63.8,14.44 63.19,13.94 62.55,13.45 62.05,12.81 61.8,12.48 61.57,12.14 61.4,11.76 61.23,11.39 61.09,10.94 61.2,10.53 L 61.27,10.53 C 61.52,11.26 62.1,11.76 62.61,12.31 63.15,12.85 63.65,13.44 64.2,13.99 65.32,15.06 66.51,16.09 67.73,17.08 L 67.69,17.14 Z M 67.69,17.14" />
        </g>
        <g id="ranaSideRight1-group64">
            <path id="ranaSideRight1-bezier63" stroke="none" fill="rgb(0, 0, 0)" d="M 71.08,15.05 C 70.37,14.41 69.69,13.75 69.05,13.05 68.72,12.71 68.36,12.38 68.11,11.96 67.89,11.54 67.62,11.1 67.67,10.53 L 67.74,10.52 C 68.06,10.87 68.41,11.17 68.72,11.52 69.03,11.87 69.25,12.28 69.51,12.67 L 71.13,15 71.08,15.05 Z M 71.08,15.05" />
        </g>
        <g id="ranaSideRight1-group65">
            <path id="ranaSideRight1-bezier64" stroke="none" fill="rgb(0, 0, 0)" d="M 76.06,16.81 L 73.51,15.08 C 73.08,14.8 72.62,14.56 72.24,14.24 71.84,13.92 71.5,13.55 71.1,13.23 L 71.11,13.16 C 71.71,13.11 72.2,13.38 72.66,13.62 73.12,13.88 73.49,14.25 73.87,14.6 74.65,15.28 75.39,16 76.11,16.75 L 76.06,16.81 Z M 76.06,16.81" />
        </g>
        <g id="ranaSideRight1-group66">
            <path id="ranaSideRight1-bezier65" stroke="none" fill="rgb(0, 0, 0)" d="M 78.22,16.47 C 77.64,15.91 77.24,15.18 76.97,14.42 76.83,14.04 76.68,13.65 76.68,13.23 76.69,12.83 76.76,12.41 76.96,12.03 L 77.04,12.03 C 77.24,12.42 77.33,12.79 77.43,13.15 77.52,13.52 77.5,13.89 77.55,14.27 77.68,15 77.88,15.75 78.28,16.42 L 78.22,16.47 Z M 78.22,16.47" />
        </g>
        <g id="ranaSideRight1-group67">
            <path id="ranaSideRight1-bezier66" stroke="none" fill="rgb(0, 0, 0)" d="M 83.93,19.55 C 83.02,18.81 82.15,18.02 81.34,17.15 80.93,16.72 80.49,16.3 80.2,15.76 79.91,15.24 79.65,14.63 79.71,13.99 L 79.79,13.98 C 80.11,14.48 80.47,14.9 80.82,15.35 81.17,15.79 81.46,16.29 81.8,16.77 82.49,17.7 83.22,18.61 83.99,19.5 L 83.93,19.55 Z M 83.93,19.55" />
        </g>
        <g id="ranaSideRight1-group68">
            <path id="ranaSideRight1-bezier67" stroke="none" fill="rgb(0, 0, 0)" d="M 84.25,17.12 C 84.03,16.48 83.85,15.83 83.75,15.16 83.69,14.82 83.6,14.47 83.68,14.12 83.75,13.78 83.9,13.38 84.26,13.17 L 84.32,13.21 84.42,14.18 C 84.45,14.48 84.37,14.8 84.35,15.12 84.32,15.77 84.32,16.44 84.33,17.1 L 84.25,17.12 Z M 84.25,17.12" />
        </g>
        <g id="ranaSideRight1-group69">
            <path id="ranaSideRight1-bezier68" stroke="none" fill="rgb(0, 0, 0)" d="M 87.45,21.34 C 86.81,20.46 86.29,19.48 85.97,18.4 85.8,17.87 85.65,17.31 85.7,16.73 85.76,16.15 85.95,15.57 86.34,15.14 L 86.41,15.16 C 86.41,15.74 86.41,16.23 86.45,16.74 86.49,17.24 86.47,17.75 86.55,18.27 86.73,19.29 87.06,20.32 87.52,21.3 L 87.45,21.34 Z M 87.45,21.34" />
        </g>
        <g id="ranaSideRight1-group70">
            <path id="ranaSideRight1-bezier69" stroke="none" fill="rgb(0, 0, 0)" d="M 90.6,20.31 C 89.9,19.97 89.24,19.54 88.65,19 88.35,18.73 88.03,18.45 87.86,18.05 87.7,17.66 87.63,17.18 87.84,16.78 L 87.91,16.78 C 88.13,17.15 88.31,17.41 88.52,17.69 88.73,17.96 88.88,18.29 89.09,18.59 89.54,19.18 90.07,19.73 90.65,20.25 L 90.6,20.31 Z M 90.6,20.31" />
        </g>
        <g id="ranaSideRight1-group71">
            <path id="ranaSideRight1-bezier70" stroke="none" fill="rgb(0, 0, 0)" d="M 93.69,23.36 C 93.48,22.41 93.18,21.47 92.78,20.62 92.56,20.19 92.29,19.82 92.07,19.43 91.85,19.03 91.61,18.67 91.27,18.27 L 91.31,18.2 C 91.85,18.25 92.34,18.59 92.68,18.99 93.03,19.4 93.19,19.91 93.33,20.4 93.64,21.37 93.76,22.37 93.77,23.36 L 93.69,23.36 Z M 93.69,23.36" />
        </g>
        <g id="ranaSideRight1-group72">
            <path id="ranaSideRight1-bezier71" stroke="none" fill="rgb(0, 0, 0)" d="M 34.27,21.35 C 33.14,20.54 32.07,19.66 31.06,18.7 30.55,18.22 30.02,17.75 29.62,17.16 29.24,16.57 28.88,15.9 28.84,15.16 L 28.91,15.14 C 29.33,15.71 29.77,16.19 30.22,16.7 30.66,17.2 31.05,17.76 31.49,18.28 32.39,19.32 33.34,20.32 34.32,21.29 L 34.27,21.35 Z M 34.27,21.35" />
        </g>
        <g id="ranaSideRight1-group73">
            <path id="ranaSideRight1-bezier72" stroke="none" fill="rgb(0, 0, 0)" d="M 23.81,24.07 C 23.17,23.65 22.47,23.34 21.78,23.11 21.42,23 21.05,22.96 20.72,22.82 20.38,22.68 20.04,22.55 19.67,22.31 L 19.68,22.24 C 20.08,22.07 20.5,22.04 20.9,22.1 21.31,22.15 21.67,22.36 22.01,22.55 22.72,22.93 23.35,23.42 23.86,24.02 L 23.81,24.07 Z M 23.81,24.07" />
        </g>
        <g id="ranaSideRight1-group74">
            <path id="ranaSideRight1-bezier73" stroke="none" fill="rgb(0, 0, 0)" d="M 22.13,29.56 C 20.57,29.22 18.99,28.92 17.42,28.67 16.63,28.56 15.83,28.51 15.06,28.39 14.28,28.27 13.52,28.12 12.72,28.14 L 12.7,28.07 C 13.44,27.64 14.33,27.63 15.13,27.64 15.96,27.67 16.75,27.89 17.53,28.08 19.1,28.46 20.64,28.94 22.16,29.49 L 22.13,29.56 Z M 22.13,29.56" />
        </g>
        <g id="ranaSideRight1-group75">
            <path id="ranaSideRight1-bezier74" stroke="none" fill="rgb(0, 0, 0)" d="M 16.65,34.19 C 15.54,34.54 14.41,34.84 13.26,35.06 12.69,35.18 12.11,35.32 11.52,35.31 10.93,35.29 10.3,35.21 9.76,34.9 L 9.78,34.82 11.48,34.56 C 12.04,34.48 12.61,34.5 13.18,34.46 14.33,34.38 15.48,34.26 16.63,34.12 L 16.65,34.19 Z M 16.65,34.19" />
        </g>
        <g id="ranaSideRight1-group76">
            <path id="ranaSideRight1-bezier75" stroke="none" fill="rgb(0, 0, 0)" d="M 50.14,37.21 C 48.94,37.98 47.67,38.63 46.33,39.17 45.67,39.44 44.99,39.73 44.27,39.84 43.55,39.94 42.8,39.97 42.08,39.77 L 42.08,39.7 C 42.78,39.48 43.44,39.3 44.11,39.11 44.77,38.91 45.46,38.79 46.14,38.6 47.48,38.21 48.81,37.72 50.1,37.14 L 50.14,37.21 Z M 50.14,37.21" />
        </g>
        <g id="ranaSideRight1-group77">
            <path id="ranaSideRight1-bezier76" stroke="none" fill="rgb(0, 0, 0)" d="M 44.19,17.89 C 42.85,17.36 41.49,16.85 40.13,16.4 39.44,16.19 38.74,16.03 38.08,15.8 37.41,15.57 36.76,15.33 36.05,15.19 L 36.04,15.11 C 36.76,14.84 37.56,14.94 38.28,15.08 39.01,15.22 39.67,15.55 40.34,15.84 41.68,16.43 42.97,17.09 44.22,17.83 L 44.19,17.89 Z M 44.19,17.89" />
        </g>
        <g id="ranaSideRight1-group78">
            <path id="ranaSideRight1-bezier77" stroke="none" fill="rgb(0, 0, 0)" d="M 37.78,27.13 C 36.03,26.85 34.29,26.52 32.56,26.13 31.69,25.93 30.81,25.77 29.97,25.45 29.56,25.29 29.14,25.12 28.74,24.9 28.35,24.68 27.93,24.45 27.64,24.07 L 27.69,24.02 C 28.49,24.35 29.36,24.5 30.2,24.74 31.05,24.96 31.87,25.28 32.71,25.55 34.4,26.07 36.1,26.57 37.8,27.05 L 37.78,27.13 Z M 37.78,27.13" />
        </g>
        <g id="ranaSideRight1-group79">
            <path id="ranaSideRight1-bezier78" stroke="none" fill="rgb(0, 0, 0)" d="M 31.57,28.9 L 27.95,28.05 C 27.35,27.92 26.73,27.85 26.15,27.66 25.56,27.5 25,27.26 24.4,27.13 L 24.39,27.05 C 24.7,26.89 25.04,26.88 25.36,26.87 25.68,26.85 26,26.89 26.31,26.93 26.94,27.02 27.53,27.26 28.11,27.47 29.3,27.87 30.45,28.33 31.59,28.82 L 31.57,28.9 Z M 31.57,28.9" />
        </g>
        <g id="ranaSideRight1-group80">
            <path id="ranaSideRight1-bezier79" stroke="none" fill="rgb(0, 0, 0)" d="M 26.87,34.19 C 26.26,34.12 25.68,33.97 25.09,33.83 24.51,33.67 23.93,33.49 23.35,33.3 22.78,33.11 22.18,32.94 21.66,32.61 21.39,32.44 21.14,32.26 20.91,32.03 20.69,31.81 20.46,31.54 20.38,31.21 L 20.45,31.18 C 20.93,31.52 21.47,31.7 22.01,31.94 22.54,32.17 23.04,32.48 23.58,32.75 24.11,33 24.66,33.25 25.21,33.47 25.76,33.71 26.31,33.95 26.88,34.12 L 26.87,34.19 Z M 26.87,34.19" />
        </g>
        <g id="ranaSideRight1-group81">
            <path id="ranaSideRight1-bezier80" stroke="none" fill="rgb(0, 0, 0)" d="M 20.4,38.49 C 19.27,37.98 18.14,37.51 17,37.08 16.43,36.88 15.84,36.74 15.29,36.51 14.73,36.29 14.21,36.05 13.61,35.9 L 13.6,35.82 C 14.22,35.56 14.91,35.66 15.52,35.8 16.14,35.94 16.69,36.25 17.24,36.54 18.35,37.09 19.41,37.73 20.43,38.42 L 20.4,38.49 Z M 20.4,38.49" />
        </g>
        <g id="ranaSideRight1-group82">
            <path id="ranaSideRight1-bezier81" stroke="none" fill="rgb(0, 0, 0)" d="M 15.79,39.73 C 14.88,39.9 13.96,40.02 13.03,40.07 12.56,40.11 12.09,40.17 11.62,40.08 11.17,39.97 10.63,39.84 10.31,39.39 L 10.35,39.33 C 10.82,39.38 11.24,39.32 11.69,39.33 12.14,39.33 12.58,39.43 13.04,39.47 13.95,39.55 14.87,39.61 15.79,39.66 L 15.79,39.73 Z M 15.79,39.73" />
        </g>
        <g id="ranaSideRight1-group83">
            <path id="ranaSideRight1-bezier82" stroke="none" fill="rgb(0, 0, 0)" d="M 32.73,36.48 C 31.19,36.83 29.64,37.15 28.08,37.42 27.31,37.57 26.53,37.75 25.73,37.78 24.94,37.8 24.13,37.81 23.33,37.56 L 23.34,37.49 C 24.12,37.33 24.88,37.15 25.66,37.03 26.43,36.9 27.22,36.89 28.01,36.83 L 32.72,36.41 32.73,36.48 Z M 32.73,36.48" />
        </g>
        <g id="ranaSideRight1-group84">
            <path id="ranaSideRight1-bezier83" stroke="none" fill="rgb(0, 0, 0)" d="M 44.22,34.59 C 43.79,34.92 43.43,35.43 43.05,35.86 42.66,36.31 42.27,36.75 41.87,37.18 41.47,37.62 41.08,38.08 40.56,38.41 40.31,38.57 40.04,38.73 39.74,38.84 39.45,38.94 39.11,39.03 38.79,38.94 L 38.79,38.86 C 39.31,38.6 39.68,38.19 40.11,37.82 40.52,37.43 41.01,37.11 41.46,36.74 41.9,36.37 42.34,35.99 42.78,35.6 43.25,35.24 43.64,34.8 44.2,34.52 L 44.22,34.59 Z M 44.22,34.59" />
        </g>
        <g id="ranaSideRight1-group85">
            <path id="ranaSideRight1-bezier84" stroke="none" fill="rgb(0, 0, 0)" d="M 38.21,33.56 C 36.71,33.41 35.24,33.2 33.76,33.03 33.02,32.95 32.28,32.92 31.55,32.79 30.83,32.67 30.11,32.46 29.39,32.43 L 29.36,32.36 C 29.71,32.13 30.12,32.1 30.5,32.06 30.88,32.02 31.26,32.03 31.64,32.04 32.4,32.08 33.13,32.27 33.86,32.43 L 36.05,32.93 38.21,33.49 38.21,33.56 Z M 38.21,33.56" />
        </g>
        <g id="ranaSideRight1-group86">
            <path id="ranaSideRight1-bezier85" stroke="none" fill="rgb(0, 0, 0)" d="M 40.11,30.64 C 39.28,30.3 38.45,29.97 37.63,29.67 37.21,29.53 36.78,29.44 36.39,29.25 36,29.08 35.65,28.86 35.22,28.72 L 35.2,28.64 C 35.66,28.36 36.19,28.46 36.63,28.54 37.09,28.65 37.48,28.9 37.87,29.12 38.67,29.56 39.42,30.05 40.14,30.58 L 40.11,30.64 Z M 40.11,30.64" />
        </g>
        <g id="ranaSideRight1-group87">
            <path id="ranaSideRight1-bezier86" stroke="none" fill="rgb(0, 0, 0)" d="M 40.11,25.06 C 39.14,24.76 38.16,24.49 37.19,24.26 36.69,24.16 36.2,24.12 35.73,24 35.26,23.88 34.82,23.73 34.31,23.73 L 34.27,23.66 C 34.71,23.25 35.33,23.23 35.85,23.25 36.39,23.29 36.87,23.5 37.36,23.69 38.33,24.05 39.25,24.49 40.14,24.99 L 40.11,25.06 Z M 40.11,25.06" />
        </g>
        <g id="ranaSideRight1-group88">
            <path id="ranaSideRight1-bezier87" stroke="none" fill="rgb(0, 0, 0)" d="M 44.18,22.81 C 43.31,22.18 42.42,21.57 41.51,21.02 41.06,20.75 40.57,20.53 40.15,20.25 39.71,19.99 39.32,19.67 38.8,19.56 L 38.78,19.49 C 39.04,19.31 39.38,19.31 39.66,19.35 39.96,19.39 40.23,19.48 40.49,19.59 41.02,19.81 41.44,20.18 41.86,20.53 42.71,21.21 43.5,21.96 44.23,22.75 L 44.18,22.81 Z M 44.18,22.81" />
        </g>
        <g id="ranaSideRight1-group89">
            <path id="ranaSideRight1-bezier88" stroke="none" fill="rgb(0, 0, 0)" d="M 53.52,20.31 C 52.35,19.66 51.2,18.96 50.1,18.19 49.54,17.81 48.96,17.45 48.49,16.95 48.25,16.7 48.02,16.44 47.83,16.15 47.64,15.86 47.45,15.53 47.42,15.16 L 47.49,15.14 C 47.94,15.63 48.48,15.98 48.99,16.4 49.5,16.8 49.96,17.28 50.46,17.71 51.47,18.57 52.51,19.42 53.56,20.25 L 53.52,20.31 Z M 53.52,20.31" />
        </g>
        <g id="ranaSideRight1-group90">
            <path id="ranaSideRight1-bezier89" stroke="none" fill="rgb(0, 0, 0)" d="M 83.25,25.84 C 81.86,25.3 80.47,24.8 79.06,24.35 78.35,24.14 77.63,23.98 76.94,23.75 76.25,23.54 75.58,23.28 74.84,23.2 L 74.82,23.12 C 75.56,22.79 76.39,22.9 77.13,23.03 77.88,23.17 78.57,23.49 79.26,23.79 80.65,24.37 81.99,25.04 83.29,25.77 L 83.25,25.84 Z M 83.25,25.84" />
        </g>
        <g id="ranaSideRight1-group91">
            <path id="ranaSideRight1-bezier90" stroke="none" fill="rgb(0, 0, 0)" d="M 85.35,23.39 C 84.26,22.84 83.19,22.23 82.15,21.56 81.63,21.22 81.09,20.91 80.65,20.46 80.43,20.23 80.21,20 80.04,19.72 79.87,19.45 79.69,19.14 79.71,18.78 L 79.79,18.77 C 80.15,19.23 80.68,19.53 81.14,19.9 81.62,20.25 82.04,20.68 82.51,21.07 83.45,21.84 84.42,22.59 85.39,23.33 L 85.35,23.39 Z M 85.35,23.39" />
        </g>
        <g id="ranaSideRight1-group92">
            <path id="ranaSideRight1-bezier91" stroke="none" fill="rgb(0, 0, 0)" d="M 77.6,21.17 L 74,19.52 C 73.4,19.26 72.77,19.04 72.2,18.73 71.62,18.42 71.08,18.07 70.49,17.75 L 70.5,17.68 C 71.22,17.6 71.88,17.83 72.51,18.04 73.14,18.28 73.7,18.65 74.27,18.98 75.42,19.65 76.54,20.36 77.64,21.1 L 77.6,21.17 Z M 77.6,21.17" />
        </g>
        <g id="ranaSideRight1-group93">
            <path id="ranaSideRight1-bezier92" stroke="none" fill="rgb(0, 0, 0)" d="M 69.69,21.81 C 68.62,21.22 67.59,20.58 66.59,19.88 66.09,19.53 65.57,19.2 65.15,18.74 64.74,18.28 64.34,17.76 64.18,17.13 L 64.24,17.09 65.66,18.19 C 66.12,18.56 66.52,19 66.97,19.41 67.86,20.21 68.79,20.98 69.73,21.75 L 69.69,21.81 Z M 69.69,21.81" />
        </g>
        <g id="ranaSideRight1-group94">
            <path id="ranaSideRight1-bezier93" stroke="none" fill="rgb(0, 0, 0)" d="M 75.82,26.81 C 74.56,26.31 73.3,25.82 72.04,25.36 71.4,25.14 70.76,24.98 70.15,24.72 69.53,24.49 68.94,24.15 68.31,24.08 L 68.28,24.01 C 68.61,23.8 69,23.82 69.35,23.83 69.7,23.85 70.04,23.93 70.38,24.01 71.05,24.18 71.66,24.51 72.27,24.81 73.5,25.4 74.69,26.05 75.85,26.75 L 75.82,26.81 Z M 75.82,26.81" />
        </g>
        <g id="ranaSideRight1-group95">
            <path id="ranaSideRight1-bezier94" stroke="none" fill="rgb(0, 0, 0)" d="M 74.27,29.66 C 73.87,29.78 73.52,29.66 73.15,29.63 72.79,29.58 72.43,29.51 72.06,29.45 71.35,29.3 70.63,29.12 69.92,28.93 69.21,28.75 68.49,28.58 67.82,28.25 67.48,28.08 67.15,27.91 66.84,27.68 66.55,27.45 66.2,27.21 66.09,26.79 L 66.16,26.76 C 66.7,27.17 67.44,27.3 68.1,27.56 68.78,27.78 69.43,28.1 70.11,28.36 70.78,28.62 71.47,28.86 72.16,29.08 72.5,29.2 72.85,29.31 73.2,29.41 73.53,29.5 73.93,29.64 74.22,29.61 L 74.27,29.66 Z M 74.27,29.66" />
        </g>
        <g id="ranaSideRight1-group96">
            <path id="ranaSideRight1-bezier95" stroke="none" fill="rgb(0, 0, 0)" d="M 67.72,30.65 C 66.52,31 65.32,31.36 64.14,31.74 63.55,31.93 62.98,32.18 62.38,32.32 61.78,32.47 61.19,32.57 60.56,32.71 L 60.52,32.64 C 60.97,32.14 61.57,31.85 62.15,31.61 62.74,31.37 63.37,31.28 63.99,31.16 65.22,30.91 66.46,30.72 67.7,30.57 L 67.72,30.65 Z M 67.72,30.65" />
        </g>
        <g id="ranaSideRight1-group97">
            <path id="ranaSideRight1-bezier96" stroke="none" fill="rgb(0, 0, 0)" d="M 69.69,26.29 C 68.39,25.84 67.1,25.35 65.83,24.78 65.2,24.51 64.54,24.26 63.96,23.86 63.67,23.66 63.39,23.45 63.13,23.19 62.88,22.94 62.61,22.67 62.51,22.29 L 62.57,22.26 C 63.1,22.67 63.75,22.9 64.34,23.21 64.95,23.51 65.51,23.9 66.1,24.25 67.3,24.92 68.51,25.58 69.72,26.22 L 69.69,26.29 Z M 69.69,26.29" />
        </g>
        <g id="ranaSideRight1-group98">
            <path id="ranaSideRight1-bezier97" stroke="none" fill="rgb(0, 0, 0)" d="M 65.15,21.1 C 63.92,20.64 62.67,20.2 61.43,19.81 60.8,19.62 60.16,19.5 59.56,19.29 58.95,19.1 58.37,18.84 57.72,18.81 L 57.69,18.74 C 57.99,18.53 58.37,18.48 58.72,18.47 59.07,18.46 59.41,18.5 59.74,18.56 60.42,18.68 61.03,18.98 61.63,19.25 62.86,19.77 64.04,20.37 65.18,21.03 L 65.15,21.1 Z M 65.15,21.1" />
        </g>
        <g id="ranaSideRight1-group99">
            <path id="ranaSideRight1-bezier98" stroke="none" fill="rgb(0, 0, 0)" d="M 61.42,25.42 C 60.17,25.06 58.94,24.65 57.72,24.15 57.11,23.91 56.49,23.69 55.93,23.31 55.66,23.12 55.39,22.92 55.15,22.67 54.91,22.43 54.67,22.15 54.59,21.79 L 54.66,21.76 C 55.15,22.16 55.74,22.38 56.31,22.67 56.88,22.94 57.41,23.3 57.98,23.61 59.11,24.21 60.28,24.79 61.45,25.35 L 61.42,25.42 Z M 61.42,25.42" />
        </g>
        <g id="ranaSideRight1-group100">
            <path id="ranaSideRight1-bezier99" stroke="none" fill="rgb(0, 0, 0)" d="M 50.1,22.8 C 49.41,22.19 48.7,21.61 47.97,21.08 47.6,20.82 47.2,20.62 46.86,20.35 46.51,20.08 46.2,19.82 45.79,19.56 L 45.8,19.49 C 46.3,19.34 46.83,19.51 47.26,19.72 47.7,19.93 48.03,20.29 48.36,20.62 49.03,21.28 49.62,21.99 50.15,22.75 L 50.1,22.8 Z M 50.1,22.8" />
        </g>
        <g id="ranaSideRight1-group101">
            <path id="ranaSideRight1-bezier100" stroke="none" fill="rgb(0, 0, 0)" d="M 59.2,27.13 C 57.94,26.99 56.69,26.81 55.44,26.57 54.82,26.45 54.18,26.37 53.58,26.13 52.99,25.88 52.37,25.6 51.93,25.06 L 51.98,25 C 52.59,25.17 53.2,25.26 53.8,25.41 54.41,25.55 54.99,25.79 55.59,25.99 56.79,26.35 58,26.71 59.21,27.05 L 59.2,27.13 Z M 59.2,27.13" />
        </g>
        <g id="ranaSideRight1-group102">
            <path id="ranaSideRight1-bezier101" stroke="none" fill="rgb(0, 0, 0)" d="M 49.03,28.72 C 47.86,28.4 46.69,28.1 45.53,27.81 44.94,27.68 44.34,27.59 43.78,27.41 43.21,27.23 42.67,27.01 42.09,26.82 L 42.08,26.74 C 42.7,26.53 43.35,26.6 43.96,26.68 44.57,26.78 45.13,27.02 45.7,27.24 46.84,27.66 47.96,28.13 49.05,28.65 L 49.03,28.72 Z M 49.03,28.72" />
        </g>
        <g id="ranaSideRight1-group103">
            <path id="ranaSideRight1-bezier102" stroke="none" fill="rgb(0, 0, 0)" d="M 51.38,32.15 C 50.68,32.24 49.98,32.13 49.3,32.06 48.61,31.96 47.93,31.83 47.25,31.69 46.57,31.55 45.88,31.44 45.23,31.17 44.6,30.88 43.93,30.57 43.46,29.98 L 43.51,29.92 C 44.16,30.15 44.82,30.27 45.48,30.45 46.13,30.63 46.75,30.9 47.4,31.11 48.05,31.32 48.71,31.52 49.37,31.69 50.03,31.86 50.7,32.06 51.37,32.08 L 51.38,32.15 Z M 51.38,32.15" />
        </g>
        <g id="ranaSideRight1-group104">
            <path id="ranaSideRight1-bezier103" stroke="none" fill="rgb(0, 0, 0)" d="M 57.69,31.23 C 56.58,30.76 55.47,30.27 54.38,29.76 53.83,29.51 53.26,29.29 52.76,28.96 52.26,28.62 51.76,28.25 51.35,27.76 L 51.39,27.7 C 52.01,27.84 52.57,28.05 53.12,28.3 53.67,28.55 54.16,28.91 54.67,29.23 55.69,29.86 56.71,30.5 57.73,31.16 L 57.69,31.23 Z M 57.69,31.23" />
        </g>
        <g id="ranaSideRight1-group105">
            <path id="ranaSideRight1-bezier104" stroke="none" fill="rgb(0, 0, 0)" d="M 23.19,54.77 C 23.71,55.08 24.22,55.43 24.69,55.84 24.92,56.04 25.16,56.29 25.33,56.54 25.46,56.71 25.7,56.79 25.97,56.86 26.52,56.97 27.14,56.94 27.74,57.09 28.32,57.24 29.04,57.45 29.4,58.04 L 29.35,58.09 C 28.78,57.87 28.22,57.89 27.62,57.83 27.03,57.78 26.43,57.65 25.8,57.43 25.51,57.32 25.14,57.16 24.93,56.82 24.78,56.55 24.62,56.33 24.42,56.1 24.05,55.64 23.61,55.22 23.14,54.83 L 23.19,54.77 Z M 23.19,54.77" />
        </g>
        <g id="ranaSideRight1-group106">
            <path id="ranaSideRight1-bezier105" stroke="none" fill="rgb(0, 0, 0)" d="M 73.96,59.41 C 74.46,59.3 74.97,59.21 75.48,59.14 75.73,59.1 75.99,59.02 76.24,59.07 76.49,59.12 76.75,59.2 77,59.41 L 77,59.48 C 76.75,59.68 76.49,59.77 76.24,59.82 75.99,59.87 75.73,59.78 75.48,59.74 74.97,59.68 74.46,59.59 73.96,59.48 L 73.96,59.41 Z M 73.96,59.41" />
        </g>
        <g id="ranaSideRight1-group107">
            <path id="ranaSideRight1-bezier106" stroke="none" fill="rgb(0, 0, 0)" d="M 103.67,33.55 C 103.41,32.14 103.2,30.71 103.07,29.27 102.99,28.56 102.89,27.83 102.95,27.1 102.98,26.74 103.03,26.37 103.13,26 103.24,25.66 103.32,25.24 103.68,25 L 103.73,25.06 C 103.55,25.69 103.7,26.42 103.7,27.12 103.73,27.82 103.67,28.53 103.67,29.25 103.67,30.67 103.7,32.11 103.75,33.54 L 103.67,33.55 Z M 103.67,33.55" />
        </g>
        <g id="ranaSideRight1-group108">
            <path id="ranaSideRight1-bezier107" stroke="none" fill="rgb(0, 0, 0)" d="M 100.13,32.69 C 99.68,31.64 99.28,30.59 98.93,29.51 98.75,28.97 98.53,28.43 98.47,27.86 98.44,27.57 98.42,27.28 98.44,26.98 98.47,26.69 98.5,26.37 98.67,26.1 L 98.74,26.12 C 98.86,26.67 99.06,27.18 99.21,27.71 99.36,28.24 99.41,28.8 99.51,29.36 99.73,30.46 99.96,31.56 100.2,32.66 L 100.13,32.69 Z M 100.13,32.69" />
        </g>
        <g id="ranaSideRight1-group109">
            <path id="ranaSideRight1-bezier108" stroke="none" fill="rgb(0, 0, 0)" d="M 97.93,31.22 C 97.45,30.82 96.97,30.42 96.49,30.05 96.24,29.86 95.97,29.72 95.77,29.5 95.57,29.27 95.4,29.04 95.23,28.71 L 95.27,28.65 C 95.64,28.62 95.97,28.76 96.25,28.92 96.53,29.09 96.71,29.37 96.91,29.62 97.31,30.1 97.67,30.62 97.99,31.17 L 97.93,31.22 Z M 97.93,31.22" />
        </g>
        <g id="ranaSideRight1-group110">
            <path id="ranaSideRight1-bezier109" stroke="none" fill="rgb(0, 0, 0)" d="M 100.13,28.49 C 100.25,27.21 100.44,25.92 100.74,24.65 100.88,24.02 101.01,23.37 101.31,22.77 101.62,22.2 102.01,21.55 102.69,21.29 L 102.73,21.35 C 102.37,21.89 102.22,22.47 102,23.06 101.81,23.65 101.53,24.22 101.32,24.82 100.9,26.03 100.54,27.26 100.2,28.51 L 100.13,28.49 Z M 100.13,28.49" />
        </g>
        <g id="ranaSideRight1-group111">
            <path id="ranaSideRight1-bezier110" stroke="none" fill="rgb(0, 0, 0)" d="M 97.36,26.27 C 96.96,25.05 96.61,23.82 96.35,22.55 96.21,21.93 96.04,21.29 96.06,20.63 96.07,20.3 96.09,19.97 96.18,19.63 96.27,19.32 96.37,18.92 96.73,18.75 L 96.77,18.81 C 96.56,19.35 96.76,19.98 96.81,20.59 96.89,21.2 96.89,21.83 96.94,22.46 97.07,23.72 97.24,24.98 97.43,26.25 L 97.36,26.27 Z M 97.36,26.27" />
        </g>
        <g id="ranaSideRight1-group652">
            <path id="ranaSideRight1-bezier650" stroke="none" fill="rgb(0, 0, 0)" d="M 15.83,54.81 C 15.67,55.63 15.48,56.45 15.11,57.24 15.01,57.43 14.89,57.63 14.73,57.81 14.59,58 14.29,58.13 14.13,58.19 13.9,58.33 13.85,58.63 14.05,58.82 14.24,59.02 14.6,59.09 14.95,59.07 15.36,59.05 15.79,59.04 16.2,59.06 17.04,59.11 17.87,59.19 18.71,59.41 L 18.71,59.48 C 17.87,59.68 17.04,59.76 16.2,59.81 15.78,59.83 15.38,59.83 14.95,59.81 14.48,59.78 13.94,59.66 13.58,59.21 13.41,58.99 13.32,58.67 13.39,58.37 13.47,58.07 13.67,57.86 13.96,57.74 14.18,57.66 14.29,57.64 14.42,57.51 14.56,57.38 14.67,57.22 14.78,57.06 15.21,56.38 15.51,55.58 15.76,54.79 L 15.83,54.81 Z M 15.83,54.81" />
        </g>
        <g id="ranaSideRight1-group654">
            <path id="ranaSideRight1-bezier652" stroke="none" fill="rgb(0, 0, 0)" d="M 19.1,57.47 C 18.75,57.34 18.43,57.11 18.2,56.75 18.08,56.58 17.95,56.36 17.99,56.13 18.03,55.9 18.18,55.69 18.42,55.6 L 18.49,55.62 C 18.63,55.86 18.68,55.99 18.74,56.11 18.79,56.23 18.73,56.36 18.75,56.51 18.81,56.8 18.95,57.12 19.15,57.41 L 19.1,57.47 Z M 19.1,57.47" />
        </g>
    </g>
</svg>
