<?xml version="1.0" encoding="UTF-8"?>
<!DOCTYPE svg PUBLIC "-//W3C//DTD SVG 1.1//EN" "http://www.w3.org/Graphics/SVG/1.1/DTD/svg11.dtd">
<svg version="1.1" xmlns="http://www.w3.org/2000/svg" xmlns:xlink="http://www.w3.org/1999/xlink" width="120" height="60"  xml:space="preserve" id="ranaTop1">
    <!-- Generated by PaintCode - http://www.paintcodeapp.com -->
    <g id="ranaTop1-group">
        <g id="ranaTop1-group1277">
            <path id="ranaTop1-bezier1275" stroke="none" fill="rgb(0, 0, 0)" d="M 83.07,11.53 C 83.31,11.03 83.42,10.36 83.13,10.14 82.99,10.03 82.77,10.02 82.54,9.92 82.32,9.81 82.06,9.72 81.77,9.51 L 81.77,9.43 C 82.06,9.23 82.38,9.17 82.71,9.19 83.04,9.21 83.39,9.43 83.61,9.77 83.84,10.13 83.78,10.54 83.66,10.83 83.53,11.12 83.34,11.36 83.13,11.57 L 83.07,11.53 Z M 83.07,11.53" />
        </g>
        <g id="ranaTop1-group1278">
            <path id="ranaTop1-bezier1276" stroke="none" fill="rgb(0, 0, 0)" d="M 83.49,9.04 C 83.58,8.76 83.59,8.47 83.5,8.23 83.43,8 83.26,7.84 83.04,7.74 82.82,7.64 82.56,7.64 82.32,7.54 82.07,7.43 81.81,7.31 81.53,7.09 L 81.53,7.02 C 81.84,6.83 82.16,6.78 82.48,6.8 82.81,6.83 83.12,7.02 83.38,7.25 83.65,7.47 83.86,7.82 83.87,8.18 83.87,8.53 83.74,8.83 83.56,9.07 L 83.49,9.04 Z M 83.49,9.04" />
        </g>
        <g id="ranaTop1-group1279">
            <path id="ranaTop1-bezier1277" stroke="none" fill="rgb(0, 0, 0)" d="M 83.06,6.35 C 82.97,5.98 82.75,5.62 82.42,5.48 82.1,5.34 81.72,5.43 81.39,5.59 80.72,5.91 80.12,6.46 79.49,6.94 78.88,7.42 78.2,8.02 77.29,8.15 76.39,8.27 75.55,8.01 74.85,7.59 L 74.87,7.52 C 75.69,7.55 76.46,7.61 77.14,7.41 77.81,7.24 78.47,6.88 79.14,6.45 79.82,6.04 80.45,5.54 81.25,5.24 81.64,5.11 82.13,5.05 82.53,5.28 82.92,5.52 83.09,5.94 83.14,6.34 L 83.06,6.35 Z M 83.06,6.35" />
        </g>
        <g id="ranaTop1-group1280">
            <path id="ranaTop1-bezier1278" stroke="none" fill="rgb(0, 0, 0)" d="M 108.35,38.73 C 109.12,38.9 109.85,39.25 110.47,39.77 111.08,40.29 111.57,41.14 111.42,42.05 L 111.39,42.23 111.35,42.37 C 111.32,42.48 111.27,42.62 111.21,42.71 111.09,42.92 110.93,43.11 110.75,43.26 110.39,43.56 109.96,43.7 109.54,43.77 108.71,43.89 107.89,43.79 107.14,43.49 L 107.15,43.42 C 107.94,43.31 108.7,43.23 109.39,43.04 110.07,42.85 110.68,42.6 110.83,41.94 111.01,41.29 110.72,40.57 110.21,40.04 109.71,39.5 109.05,39.06 108.33,38.8 L 108.35,38.73 Z M 108.35,38.73" />
        </g>
        <g id="ranaTop1-group1281">
            <path id="ranaTop1-bezier1279" stroke="none" fill="rgb(0, 0, 0)" d="M 105.39,43.03 C 103.57,43.91 101.72,44.73 99.76,45.33 98.76,45.64 97.77,45.81 96.83,46.03 95.87,46.22 94.98,46.57 94.06,47.02 L 94.01,46.96 C 94.68,46.18 95.63,45.61 96.63,45.3 97.62,44.97 98.66,44.96 99.61,44.75 101.54,44.29 103.46,43.64 105.36,42.96 L 105.39,43.03 Z M 105.39,43.03" />
        </g>
        <g id="ranaTop1-group1282">
            <path id="ranaTop1-bezier1280" stroke="none" fill="rgb(0, 0, 0)" d="M 94.68,44.87 C 94.75,44.54 94.79,44.19 94.78,43.85 94.77,43.52 94.69,43.16 94.45,42.98 94.21,42.81 93.87,42.87 93.56,42.97 93.25,43.09 92.96,43.25 92.67,43.43 91.51,44.16 90.43,45.05 89.4,45.96 88.39,46.9 87.43,47.9 86.6,48.94 86.4,49.2 86.2,49.47 86.08,49.74 85.95,50.02 85.91,50.27 86.04,50.41 86.17,50.58 86.52,50.67 86.85,50.71 87.18,50.76 87.53,50.75 87.88,50.76 L 87.89,50.83 C 87.55,50.94 87.2,51.01 86.84,51.05 86.48,51.06 86.08,51.09 85.68,50.79 85.48,50.64 85.37,50.36 85.37,50.13 85.36,49.9 85.41,49.7 85.48,49.51 85.61,49.13 85.79,48.81 85.99,48.5 86.82,47.3 87.93,46.4 89.01,45.51 90.11,44.63 91.24,43.8 92.48,43.11 92.79,42.94 93.12,42.79 93.48,42.69 93.82,42.6 94.25,42.54 94.59,42.81 94.91,43.09 94.94,43.5 94.93,43.85 94.92,44.21 94.85,44.55 94.75,44.89 L 94.68,44.87 Z M 94.68,44.87" />
        </g>
        <g id="ranaTop1-group1283">
            <path id="ranaTop1-bezier1281" stroke="none" fill="rgb(0, 0, 0)" d="M 93.9,46.59 C 93.1,47.21 92.31,47.83 91.54,48.47 91.16,48.79 90.82,49.15 90.42,49.43 90.02,49.72 89.59,49.94 89.23,50.28 L 89.16,50.26 C 89.14,49.96 89.29,49.7 89.43,49.47 89.57,49.24 89.75,49.04 89.93,48.86 90.3,48.48 90.76,48.24 91.19,47.98 92.06,47.44 92.95,46.96 93.86,46.53 L 93.9,46.59 Z M 93.9,46.59" />
        </g>
        <g id="ranaTop1-group1284">
            <path id="ranaTop1-bezier1282" stroke="none" fill="rgb(0, 0, 0)" d="M 108.09,37.33 C 107.7,36.4 107.23,35.5 106.7,34.65 106.18,33.8 105.58,32.98 104.88,32.3 104.52,31.97 104.15,31.68 103.72,31.45 103.28,31.2 102.83,30.87 102.46,30.49 101.72,29.73 101.15,28.7 101.2,27.63 L 101.28,27.63 C 101.63,28.57 102.25,29.33 102.97,29.95 103.33,30.27 103.7,30.54 104.12,30.82 104.56,31.12 104.97,31.49 105.31,31.89 106.7,33.47 107.54,35.37 108.16,37.3 L 108.09,37.33 Z M 108.09,37.33" />
        </g>
        <g id="ranaTop1-group1285">
            <path id="ranaTop1-bezier1283" stroke="none" fill="rgb(0, 0, 0)" d="M 100.3,27.41 C 99.89,28.03 99.36,28.6 98.68,28.96 98,29.35 97.07,29.32 96.41,28.87 95.74,28.43 95.27,27.8 94.85,27.16 94.45,26.51 94.12,25.82 93.85,25.11 93.33,23.69 92.9,22.19 93.03,20.61 93.07,20.22 93.15,19.82 93.32,19.43 93.41,19.23 93.52,19.04 93.69,18.87 93.88,18.69 94.03,18.62 94.23,18.52 94.61,18.35 95.05,18.26 95.45,18.36 95.86,18.46 96.21,18.7 96.42,19.02 L 96.36,19.07 C 95.79,18.59 95.02,18.59 94.48,18.98 94.18,19.18 94.01,19.35 93.92,19.67 93.82,19.97 93.78,20.31 93.78,20.66 93.75,22.06 93.98,23.53 94.42,24.91 94.88,26.27 95.5,27.68 96.61,28.56 97.17,28.98 97.92,29.07 98.58,28.76 99.23,28.47 99.8,27.95 100.24,27.36 L 100.3,27.41 Z M 100.3,27.41" />
        </g>
        <g id="ranaTop1-group1286">
            <path id="ranaTop1-bezier1284" stroke="none" fill="rgb(0, 0, 0)" d="M 96.9,20.95 C 97.43,21.7 97.94,22.45 98.43,23.21 98.68,23.59 98.97,23.95 99.14,24.38 99.31,24.8 99.45,25.24 99.47,25.74 L 99.41,25.77 C 99.02,25.46 98.74,25.1 98.48,24.73 98.22,24.35 98.08,23.91 97.91,23.5 97.53,22.67 97.18,21.84 96.84,20.99 L 96.9,20.95 Z M 96.9,20.95" />
        </g>
        <g id="ranaTop1-group1287">
            <path id="ranaTop1-bezier1285" stroke="none" fill="rgb(0, 0, 0)" d="M 84.63,15.6 C 83.51,14.92 82.46,14.11 81.53,13.16 81.06,12.69 80.57,12.2 80.27,11.57 79.98,10.96 79.78,10.23 79.95,9.55 L 80.02,9.55 C 80.27,10.17 80.58,10.69 80.92,11.2 81.27,11.71 81.58,12.26 81.98,12.76 82.77,13.76 83.69,14.69 84.67,15.54 L 84.63,15.6 Z M 84.63,15.6" />
        </g>
        <g id="ranaTop1-group1288">
            <path id="ranaTop1-bezier1286" stroke="none" fill="rgb(0, 0, 0)" d="M 78.56,12.65 C 77.44,11.49 76.24,10.42 75,9.43 74.37,8.94 73.7,8.52 73.08,8.03 72.46,7.53 71.84,7.05 71.22,6.5 L 71.25,6.44 C 72.06,6.62 72.81,6.98 73.51,7.41 74.21,7.84 74.8,8.42 75.39,8.97 76.58,10.09 77.66,11.3 78.61,12.6 L 78.56,12.65 Z M 78.56,12.65" />
        </g>
        <g id="ranaTop1-group1289">
            <path id="ranaTop1-bezier1287" stroke="none" fill="rgb(0, 0, 0)" d="M 72.64,13.29 C 70.99,12.2 69.51,10.84 68.33,9.21 67.73,8.41 67.18,7.53 66.91,6.53 66.64,5.54 66.59,4.48 66.88,3.51 L 66.96,3.51 C 67.08,4.5 67.29,5.42 67.62,6.3 67.96,7.18 68.32,8.06 68.82,8.88 69.33,9.7 69.92,10.47 70.57,11.19 71.22,11.92 71.92,12.61 72.68,13.23 L 72.64,13.29 Z M 72.64,13.29" />
        </g>
        <g id="ranaTop1-group1290">
            <path id="ranaTop1-bezier1288" stroke="none" fill="rgb(0, 0, 0)" d="M 63.91,8.32 C 63.29,7.07 62.58,5.86 61.78,4.75 61.36,4.2 60.89,3.71 60.46,3.21 60.02,2.71 59.57,2.24 58.98,1.84 L 59,1.77 C 59.76,1.78 60.44,2.21 60.99,2.68 61.54,3.17 61.92,3.8 62.28,4.42 63,5.65 63.55,6.95 63.98,8.29 L 63.91,8.32 Z M 63.91,8.32" />
        </g>
        <g id="ranaTop1-group1291">
            <path id="ranaTop1-bezier1289" stroke="none" fill="rgb(0, 0, 0)" d="M 60.44,8.32 C 60.14,7.77 59.74,7.29 59.32,6.85 58.9,6.4 58.43,5.99 57.94,5.63 57.44,5.27 56.9,4.99 56.4,4.64 55.9,4.28 55.39,3.94 54.89,3.51 L 54.92,3.44 C 55.58,3.49 56.2,3.71 56.78,3.99 57.36,4.28 57.85,4.73 58.32,5.17 59.26,6.05 60.07,7.09 60.51,8.29 L 60.44,8.32 Z M 60.44,8.32" />
        </g>
        <g id="ranaTop1-group1292">
            <path id="ranaTop1-bezier1290" stroke="none" fill="rgb(0, 0, 0)" d="M 55.27,5.92 C 54.06,5.68 52.87,5.36 51.7,4.94 51.11,4.73 50.51,4.54 49.98,4.2 49.46,3.84 48.93,3.42 48.64,2.83 L 48.69,2.78 C 49.26,3.06 49.79,3.29 50.34,3.54 50.88,3.78 51.39,4.11 51.93,4.39 53.02,4.92 54.15,5.4 55.29,5.85 L 55.27,5.92 Z M 55.27,5.92" />
        </g>
        <g id="ranaTop1-group1293">
            <path id="ranaTop1-bezier1291" stroke="none" fill="rgb(0, 0, 0)" d="M 50.66,7.5 C 49.34,6.26 47.93,5.13 46.44,4.16 45.68,3.69 44.89,3.3 44.12,2.89 43.35,2.47 42.56,2.13 41.69,1.84 L 41.69,1.77 C 42.62,1.65 43.58,1.86 44.43,2.21 45.3,2.56 46.06,3.12 46.78,3.67 48.24,4.78 49.55,6.06 50.71,7.45 L 50.66,7.5 Z M 50.66,7.5" />
        </g>
        <g id="ranaTop1-group1294">
            <path id="ranaTop1-bezier1292" stroke="none" fill="rgb(0, 0, 0)" d="M 46.17,5.92 C 44.58,5.09 42.97,4.3 41.34,3.58 L 38.87,2.6 C 38.06,2.28 37.27,1.86 36.4,1.84 L 36.38,1.77 C 36.81,1.53 37.32,1.56 37.77,1.6 38.24,1.64 38.69,1.76 39.13,1.89 40.01,2.16 40.81,2.61 41.6,3.04 43.19,3.89 44.72,4.84 46.21,5.86 L 46.17,5.92 Z M 46.17,5.92" />
        </g>
        <g id="ranaTop1-group1295">
            <path id="ranaTop1-bezier1293" stroke="none" fill="rgb(0, 0, 0)" d="M 44.53,12.54 C 42.88,12.18 41.25,11.66 39.7,10.93 38.93,10.56 38.14,10.17 37.5,9.53 36.89,8.92 36.34,7.99 36.56,7.09 L 36.63,7.09 C 36.84,7.92 37.4,8.47 38.01,8.97 38.63,9.47 39.27,9.97 39.99,10.4 41.42,11.22 42.97,11.9 44.55,12.47 L 44.53,12.54 Z M 44.53,12.54" />
        </g>
        <g id="ranaTop1-group1296">
            <path id="ranaTop1-bezier1294" stroke="none" fill="rgb(0, 0, 0)" d="M 36.36,6.49 C 35.55,5.42 34.61,4.46 33.58,3.67 33.05,3.28 32.47,2.99 31.93,2.67 31.38,2.34 30.81,2.06 30.18,1.78 L 30.19,1.7 C 30.89,1.58 31.61,1.73 32.26,2 32.92,2.27 33.46,2.74 33.96,3.21 34.97,4.15 35.79,5.26 36.42,6.45 L 36.36,6.49 Z M 36.36,6.49" />
        </g>
        <g id="ranaTop1-group1297">
            <path id="ranaTop1-bezier1295" stroke="none" fill="rgb(0, 0, 0)" d="M 33.43,12.93 C 32.46,12.47 31.57,11.79 30.9,10.89 30.56,10.45 30.23,9.96 30.13,9.38 30.03,8.81 30.08,8.21 30.34,7.7 L 30.42,7.7 C 30.57,8.25 30.68,8.73 30.86,9.19 31.02,9.64 31.16,10.12 31.4,10.56 31.9,11.44 32.63,12.23 33.47,12.87 L 33.43,12.93 Z M 33.43,12.93" />
        </g>
        <g id="ranaTop1-group1298">
            <path id="ranaTop1-bezier1296" stroke="none" fill="rgb(0, 0, 0)" d="M 28.69,10.28 C 27.73,9.47 26.71,8.73 25.65,8.12 25.11,7.82 24.54,7.61 24.01,7.36 23.47,7.1 22.94,6.89 22.31,6.76 L 22.3,6.69 C 22.92,6.4 23.65,6.47 24.28,6.65 24.92,6.85 25.46,7.24 25.97,7.62 27.01,8.37 27.93,9.26 28.74,10.22 L 28.69,10.28 Z M 28.69,10.28" />
        </g>
        <g id="ranaTop1-group1299">
            <path id="ranaTop1-bezier1297" stroke="none" fill="rgb(0, 0, 0)" d="M 25.71,9.75 C 24.24,9.85 22.79,10.19 21.43,10.68 20.75,10.93 20.12,11.28 19.46,11.56 18.8,11.84 18.15,12.16 17.45,12.45 L 17.4,12.39 C 17.86,11.77 18.46,11.28 19.12,10.89 19.78,10.5 20.52,10.29 21.25,10.1 22.71,9.72 24.22,9.56 25.71,9.67 L 25.71,9.75 Z M 25.71,9.75" />
        </g>
        <g id="ranaTop1-group1300">
            <path id="ranaTop1-bezier1298" stroke="none" fill="rgb(0, 0, 0)" d="M 23.52,13.69 C 22.16,14.58 20.72,15.35 19.17,15.92 18.4,16.2 17.59,16.49 16.73,16.5 15.9,16.51 14.94,16.34 14.34,15.7 L 14.38,15.64 C 15.16,15.89 15.91,15.85 16.68,15.75 17.43,15.65 18.21,15.54 18.99,15.35 20.52,14.93 22.03,14.32 23.48,13.62 L 23.52,13.69 Z M 23.52,13.69" />
        </g>
        <g id="ranaTop1-group1301">
            <path id="ranaTop1-bezier1299" stroke="none" fill="rgb(0, 0, 0)" d="M 17.44,17.63 C 15.99,18.36 14.55,19.08 13.16,19.87 12.46,20.27 11.81,20.73 11.11,21.11 10.42,21.5 9.73,21.87 9.03,22.3 L 8.97,22.24 C 9.4,21.51 10.05,20.96 10.71,20.48 11.38,19.99 12.14,19.67 12.88,19.34 14.36,18.65 15.88,18.09 17.41,17.56 L 17.44,17.63 Z M 17.44,17.63" />
        </g>
        <g id="ranaTop1-group1302">
            <path id="ranaTop1-bezier1300" stroke="none" fill="rgb(0, 0, 0)" d="M 22.65,21.27 C 21.36,21.49 20.06,21.63 18.74,21.66 18.09,21.69 17.42,21.73 16.76,21.61 16.11,21.47 15.44,21.28 14.89,20.86 L 14.92,20.79 16.85,20.86 C 17.48,20.89 18.12,21.01 18.76,21.06 20.04,21.16 21.34,21.2 22.64,21.2 L 22.65,21.27 Z M 22.65,21.27" />
        </g>
        <g id="ranaTop1-group1303">
            <path id="ranaTop1-bezier1301" stroke="none" fill="rgb(0, 0, 0)" d="M 16.2,23.77 C 14.73,24.14 13.3,24.63 11.93,25.24 11.25,25.55 10.62,25.94 9.97,26.27 9.31,26.6 8.69,26.96 8.04,27.39 L 7.98,27.34 C 8.33,26.63 8.94,26.07 9.58,25.62 10.23,25.18 10.98,24.92 11.71,24.68 13.17,24.18 14.67,23.86 16.19,23.69 L 16.2,23.77 Z M 16.2,23.77" />
        </g>
        <g id="ranaTop1-group1304">
            <path id="ranaTop1-bezier1302" stroke="none" fill="rgb(0, 0, 0)" d="M 20.86,29.27 C 19.37,29.56 17.84,29.73 16.3,29.7 15.53,29.69 14.73,29.68 13.97,29.4 13.24,29.13 12.41,28.61 12.24,27.78 L 12.3,27.75 C 12.82,28.32 13.49,28.51 14.19,28.68 14.88,28.84 15.6,29.01 16.34,29.1 17.82,29.26 19.34,29.27 20.85,29.2 L 20.86,29.27 Z M 20.86,29.27" />
        </g>
        <g id="ranaTop1-group1305">
            <path id="ranaTop1-bezier1303" stroke="none" fill="rgb(0, 0, 0)" d="M 69.53,53.01 C 67.64,53.4 65.77,53.88 63.95,54.49 63.05,54.8 62.18,55.19 61.3,55.53 60.41,55.87 59.55,56.23 58.7,56.72 L 58.65,56.66 C 59.25,55.85 60.12,55.29 60.99,54.84 61.88,54.4 62.84,54.15 63.78,53.91 65.67,53.43 67.59,53.11 69.52,52.94 L 69.53,53.01 Z M 69.53,53.01" />
        </g>
        <g id="ranaTop1-group1306">
            <path id="ranaTop1-bezier1304" stroke="none" fill="rgb(0, 0, 0)" d="M 63.94,52.63 C 61.99,52.69 60.03,52.64 58.08,52.44 57.1,52.34 56.11,52.25 55.15,51.94 54.68,51.78 54.21,51.6 53.77,51.34 53.33,51.09 52.9,50.77 52.63,50.33 L 52.69,50.28 C 53.5,50.81 54.43,50.99 55.35,51.22 56.28,51.42 57.21,51.67 58.16,51.85 60.06,52.18 62,52.4 63.94,52.55 L 63.94,52.63 Z M 63.94,52.63" />
        </g>
        <g id="ranaTop1-group1307">
            <path id="ranaTop1-bezier1305" stroke="none" fill="rgb(0, 0, 0)" d="M 57.48,53.84 C 55.82,54.16 54.17,54.59 52.59,55.13 51.79,55.41 51.04,55.77 50.26,56.06 49.48,56.35 48.72,56.67 47.92,57 L 47.87,56.94 C 48.44,56.27 49.19,55.77 49.96,55.37 50.73,54.98 51.58,54.77 52.41,54.56 54.08,54.13 55.77,53.87 57.48,53.77 L 57.48,53.84 Z M 57.48,53.84" />
        </g>
        <g id="ranaTop1-group1308">
            <path id="ranaTop1-bezier1306" stroke="none" fill="rgb(0, 0, 0)" d="M 47.91,51.48 C 46.3,52.23 44.71,53.02 43.19,53.9 42.43,54.35 41.72,54.86 40.99,55.31 40.28,55.79 39.51,56.21 39.1,56.98 L 39.03,56.97 C 39.01,56.48 39.28,56.04 39.56,55.67 39.85,55.3 40.2,54.99 40.55,54.7 41.27,54.13 42.1,53.75 42.91,53.37 44.52,52.6 46.19,51.96 47.88,51.41 L 47.91,51.48 Z M 47.91,51.48" />
        </g>
        <g id="ranaTop1-group1309">
            <path id="ranaTop1-bezier1307" stroke="none" fill="rgb(0, 0, 0)" d="M 39.56,55.5 C 38.35,56.58 37.02,57.54 35.56,58.29 34.83,58.66 34.07,59.04 33.23,59.17 32.41,59.31 31.51,59.29 30.74,58.94 L 30.75,58.87 C 31.58,58.8 32.32,58.66 33.07,58.44 33.81,58.23 34.57,58.03 35.31,57.74 36.77,57.14 38.18,56.35 39.51,55.44 L 39.56,55.5 Z M 39.56,55.5" />
        </g>
        <g id="ranaTop1-group1310">
            <path id="ranaTop1-bezier1308" stroke="none" fill="rgb(0, 0, 0)" d="M 34.38,55.49 C 32.68,56 30.93,56.33 29.14,56.49 28.25,56.57 27.35,56.64 26.45,56.52 25.56,56.4 24.66,56.17 23.86,55.73 L 23.89,55.66 C 24.79,55.7 25.64,55.76 26.51,55.78 27.38,55.8 28.24,55.88 29.12,55.89 30.86,55.87 32.62,55.71 34.36,55.42 L 34.38,55.49 Z M 34.38,55.49" />
        </g>
        <g id="ranaTop1-group1311">
            <path id="ranaTop1-bezier1309" stroke="none" fill="rgb(0, 0, 0)" d="M 28.96,53.53 C 26.99,53.16 25.01,52.84 23.03,52.62 22.04,52.52 21.05,52.49 20.07,52.41 19.1,52.36 18.12,52.24 17.17,52.52 L 17.13,52.45 C 17.52,52.09 18.05,51.93 18.56,51.82 19.07,51.71 19.58,51.68 20.1,51.66 21.12,51.65 22.13,51.84 23.12,52.02 25.1,52.38 27.06,52.87 28.98,53.46 L 28.96,53.53 Z M 28.96,53.53" />
        </g>
        <g id="ranaTop1-group1312">
            <path id="ranaTop1-bezier1310" stroke="none" fill="rgb(0, 0, 0)" d="M 23.31,48.42 C 21.76,48.02 20.18,47.75 18.61,47.64 17.82,47.6 17.04,47.65 16.27,47.66 15.49,47.67 14.74,47.73 13.93,47.87 L 13.9,47.8 C 14.55,47.28 15.39,47.02 16.21,46.91 17.04,46.8 17.87,46.92 18.67,47.05 20.28,47.29 21.84,47.74 23.33,48.35 L 23.31,48.42 Z M 23.31,48.42" />
        </g>
        <g id="ranaTop1-group1313">
            <path id="ranaTop1-bezier1311" stroke="none" fill="rgb(0, 0, 0)" d="M 21.04,42.44 C 19.37,42.92 17.62,43.16 15.85,43.03 14.97,42.97 14.06,42.85 13.23,42.45 12.42,42.06 11.67,41.46 11.22,40.68 L 11.28,40.63 C 12.02,41.11 12.74,41.49 13.52,41.76 14.29,42.03 15.08,42.3 15.92,42.43 16.75,42.57 17.6,42.61 18.46,42.59 19.31,42.58 20.17,42.51 21.02,42.36 L 21.04,42.44 Z M 21.04,42.44" />
        </g>
        <g id="ranaTop1-group1314">
            <path id="ranaTop1-bezier1312" stroke="none" fill="rgb(0, 0, 0)" d="M 19.91,38.77 C 19.17,38.38 18.4,38.05 17.62,37.77 16.84,37.48 16.04,37.24 15.24,37.08 14.43,36.92 13.62,36.87 12.82,36.84 12.02,36.8 11.24,36.88 10.41,37.07 L 10.37,37.01 C 11.03,36.43 11.93,36.15 12.81,36.09 13.7,36.03 14.56,36.25 15.38,36.49 17.03,36.98 18.56,37.76 19.95,38.71 L 19.91,38.77 Z M 19.91,38.77" />
        </g>
        <g id="ranaTop1-group1315">
            <path id="ranaTop1-bezier1313" stroke="none" fill="rgb(0, 0, 0)" d="M 18.66,34.03 C 16.77,34.01 14.88,33.88 13,33.58 12.07,33.43 11.11,33.28 10.21,32.92 9.33,32.56 8.4,32.07 7.85,31.24 L 7.9,31.19 C 8.71,31.69 9.57,31.95 10.46,32.21 11.34,32.46 12.22,32.76 13.12,32.99 14.94,33.41 16.8,33.72 18.67,33.95 L 18.66,34.03 Z M 18.66,34.03" />
        </g>
        <g id="ranaTop1-group1316">
            <path id="ranaTop1-bezier1314" stroke="none" fill="rgb(0, 0, 0)" d="M 86.47,23.83 C 84.53,22.27 82.49,20.84 80.35,19.6 79.27,19 78.15,18.49 77.05,17.99 75.93,17.48 74.8,17.05 73.57,16.84 L 73.57,16.76 C 74.84,16.57 76.14,16.87 77.33,17.29 78.53,17.73 79.61,18.41 80.66,19.09 82.77,20.47 84.72,22.05 86.52,23.78 L 86.47,23.83 Z M 86.47,23.83" />
        </g>
        <g id="ranaTop1-group1317">
            <path id="ranaTop1-bezier1315" stroke="none" fill="rgb(0, 0, 0)" d="M 77.57,22.21 C 75.32,21.89 73.1,21.37 70.94,20.61 69.86,20.23 68.77,19.83 67.79,19.21 66.82,18.58 65.9,17.81 65.3,16.81 L 65.36,16.76 C 66.25,17.47 67.19,18.04 68.17,18.56 69.15,19.07 70.13,19.6 71.16,20.05 73.22,20.92 75.38,21.61 77.58,22.14 L 77.57,22.21 Z M 77.57,22.21" />
        </g>
        <g id="ranaTop1-group1318">
            <path id="ranaTop1-bezier1316" stroke="none" fill="rgb(0, 0, 0)" d="M 95.36,41.78 C 93.72,41.46 92.07,41.23 90.42,41.12 89.59,41.07 88.77,41.11 87.97,41.11 87.16,41.12 86.37,41.14 85.58,41.43 L 85.54,41.37 C 86.14,40.7 87.08,40.47 87.92,40.36 88.79,40.26 89.65,40.39 90.48,40.52 92.16,40.76 93.79,41.18 95.38,41.71 L 95.36,41.78 Z M 95.36,41.78" />
        </g>
        <g id="ranaTop1-group1319">
            <path id="ranaTop1-bezier1317" stroke="none" fill="rgb(0, 0, 0)" d="M 97.76,36.11 L 94.09,35.69 C 93.48,35.63 92.86,35.62 92.27,35.49 91.67,35.37 91.09,35.21 90.48,35.04 L 90.48,34.97 C 91.1,34.73 91.75,34.73 92.36,34.75 92.99,34.78 93.59,34.96 94.19,35.1 95.4,35.37 96.59,35.69 97.77,36.04 L 97.76,36.11 Z M 97.76,36.11" />
        </g>
        <g id="ranaTop1-group1320">
            <path id="ranaTop1-bezier1318" stroke="none" fill="rgb(0, 0, 0)" d="M 97.56,34.44 C 96.07,33.58 94.63,32.63 93.27,31.55 92.59,31.02 91.89,30.49 91.33,29.81 90.78,29.13 90.26,28.36 90.1,27.47 L 90.17,27.44 C 90.69,28.13 91.28,28.71 91.88,29.3 92.48,29.88 93.04,30.51 93.66,31.1 94.91,32.25 96.23,33.34 97.6,34.37 L 97.56,34.44 Z M 97.56,34.44" />
        </g>
        <g id="ranaTop1-group1321">
            <path id="ranaTop1-bezier1319" stroke="none" fill="rgb(0, 0, 0)" d="M 89.81,36.09 C 88.32,36.73 86.71,37.1 85.07,37.2 84.25,37.25 83.41,37.28 82.6,37.08 81.79,36.9 81,36.58 80.33,36.09 L 80.36,36.02 C 81.18,36.13 81.95,36.27 82.72,36.34 83.5,36.43 84.27,36.57 85.06,36.6 86.63,36.64 88.24,36.45 89.78,36.02 L 89.81,36.09 Z M 89.81,36.09" />
        </g>
        <g id="ranaTop1-group1322">
            <path id="ranaTop1-bezier1320" stroke="none" fill="rgb(0, 0, 0)" d="M 87.79,42.48 C 86.71,43.44 85.4,44.16 83.98,44.6 83.28,44.82 82.54,45.01 81.79,44.97 81.04,44.93 80.29,44.76 79.63,44.4 L 79.65,44.33 C 80.4,44.29 81.09,44.28 81.77,44.22 82.46,44.16 83.15,44.15 83.84,44.02 85.2,43.73 86.55,43.2 87.75,42.42 L 87.79,42.48 Z M 87.79,42.48" />
        </g>
        <g id="ranaTop1-group1323">
            <path id="ranaTop1-bezier1321" stroke="none" fill="rgb(0, 0, 0)" d="M 82.65,45.96 C 81.03,46.64 79.42,47.35 77.84,48.1 77.05,48.48 76.29,48.92 75.5,49.27 L 73.1,50.33 73.05,50.28 C 73.63,49.57 74.39,49.05 75.16,48.6 75.93,48.15 76.77,47.86 77.6,47.55 79.25,46.91 80.93,46.36 82.63,45.89 L 82.65,45.96 Z M 82.65,45.96" />
        </g>
        <g id="ranaTop1-group1324">
            <path id="ranaTop1-bezier1322" stroke="none" fill="rgb(0, 0, 0)" d="M 88.79,27.02 C 87.33,26.96 85.87,26.77 84.43,26.4 83.72,26.22 82.98,26.03 82.32,25.61 81.69,25.21 81.04,24.61 80.92,23.82 L 80.98,23.79 C 81.47,24.35 82.06,24.66 82.69,24.96 83.31,25.25 83.94,25.57 84.61,25.83 85.96,26.31 87.37,26.67 88.8,26.94 L 88.79,27.02 Z M 88.79,27.02" />
        </g>
        <g id="ranaTop1-group1325">
            <path id="ranaTop1-bezier1323" stroke="none" fill="rgb(0, 0, 0)" d="M 92.22,26.58 C 91.66,24.91 90.98,23.28 90.11,21.79 89.66,21.05 89.13,20.38 88.57,19.8 88.01,19.21 87.33,18.78 86.43,18.9 L 86.4,18.83 C 86.78,18.57 87.3,18.48 87.79,18.59 88.28,18.68 88.71,18.94 89.08,19.25 89.81,19.87 90.24,20.7 90.64,21.5 91.42,23.12 91.93,24.83 92.29,26.56 L 92.22,26.58 Z M 92.22,26.58" />
        </g>
        <g id="ranaTop1-group1326">
            <path id="ranaTop1-bezier1324" stroke="none" fill="rgb(0, 0, 0)" d="M 70.77,16.82 C 69.77,15.45 68.62,14.19 67.33,13.13 66.68,12.61 65.97,12.19 65.28,11.76 64.59,11.33 63.86,10.98 63.05,10.67 L 63.06,10.6 C 63.94,10.5 64.84,10.73 65.64,11.1 66.45,11.48 67.11,12.08 67.73,12.68 68.98,13.89 70.01,15.28 70.84,16.78 L 70.77,16.82 Z M 70.77,16.82" />
        </g>
        <g id="ranaTop1-group1327">
            <path id="ranaTop1-bezier1325" stroke="none" fill="rgb(0, 0, 0)" d="M 70.27,21.51 C 68.39,21.68 66.49,21.69 64.6,21.52 63.65,21.44 62.69,21.35 61.77,21.05 60.86,20.75 59.95,20.34 59.23,19.69 L 59.27,19.62 C 60.18,19.91 61.06,20.14 61.96,20.33 62.86,20.52 63.75,20.77 64.67,20.93 66.51,21.23 68.38,21.39 70.26,21.44 L 70.27,21.51 Z M 70.27,21.51" />
        </g>
        <g id="ranaTop1-group1328">
            <path id="ranaTop1-bezier1326" stroke="none" fill="rgb(0, 0, 0)" d="M 60.79,15.61 C 58.29,15.85 55.8,16.16 53.35,16.59 52.12,16.82 50.91,17.12 49.72,17.4 49.11,17.53 48.52,17.7 47.95,17.89 47.39,18.1 46.8,18.33 46.43,18.82 L 46.36,18.79 C 46.57,18.13 47.19,17.73 47.73,17.42 48.3,17.1 48.91,16.88 49.52,16.68 50.74,16.29 52.01,16.15 53.26,16 55.76,15.69 58.27,15.56 60.79,15.54 L 60.79,15.61 Z M 60.79,15.61" />
        </g>
        <g id="ranaTop1-group1329">
            <path id="ranaTop1-bezier1327" stroke="none" fill="rgb(0, 0, 0)" d="M 63.94,13.84 C 62.41,13.66 60.89,13.35 59.4,12.91 58.66,12.7 57.9,12.49 57.21,12.11 56.52,11.74 55.86,11.28 55.35,10.67 L 55.39,10.61 57.53,11.43 C 58.22,11.71 58.9,12.06 59.6,12.34 61.01,12.89 62.47,13.37 63.95,13.77 L 63.94,13.84 Z M 63.94,13.84" />
        </g>
        <g id="ranaTop1-group1330">
            <path id="ranaTop1-bezier1328" stroke="none" fill="rgb(0, 0, 0)" d="M 52.71,11.33 C 51.29,12.52 49.59,13.36 47.79,13.88 46.9,14.14 45.97,14.36 45.02,14.35 44.08,14.33 43.14,14.19 42.26,13.84 L 42.27,13.77 C 43.21,13.71 44.1,13.68 44.99,13.6 45.88,13.51 46.77,13.47 47.65,13.29 48.53,13.12 49.4,12.86 50.24,12.52 51.08,12.18 51.91,11.78 52.67,11.28 L 52.71,11.33 Z M 52.71,11.33" />
        </g>
        <g id="ranaTop1-group1331">
            <path id="ranaTop1-bezier1329" stroke="none" fill="rgb(0, 0, 0)" d="M 41.71,52.57 C 40.77,52.38 39.81,52.31 38.85,52.31 37.89,52.29 36.94,52.34 36,52.46 35.05,52.58 34.13,52.81 33.19,52.96 32.25,53.12 31.32,53.3 30.34,53.43 L 30.32,53.36 C 31.16,52.84 32.08,52.49 33.03,52.23 33.98,51.97 34.97,51.91 35.94,51.86 37.9,51.78 39.87,51.93 41.73,52.5 L 41.71,52.57 Z M 41.71,52.57" />
        </g>
        <g id="ranaTop1-group1332">
            <path id="ranaTop1-bezier1330" stroke="none" fill="rgb(0, 0, 0)" d="M 31.8,51.11 C 30,50.82 28.21,50.34 26.53,49.53 25.69,49.13 24.83,48.67 24.2,47.9 23.57,47.16 23.23,46.03 23.63,45.14 L 23.7,45.15 C 23.75,46.08 24.16,46.81 24.76,47.4 25.36,47.99 26.04,48.55 26.81,49.01 28.36,49.89 30.07,50.54 31.82,51.04 L 31.8,51.11 Z M 31.8,51.11" />
        </g>
        <g id="ranaTop1-group1333">
            <path id="ranaTop1-bezier1331" stroke="none" fill="rgb(0, 0, 0)" d="M 28.72,45.62 C 27.92,44.93 27.08,44.3 26.19,43.77 25.75,43.52 25.27,43.34 24.84,43.1 24.4,42.86 23.97,42.65 23.46,42.44 L 23.46,42.36 C 24,42.16 24.61,42.24 25.13,42.41 25.67,42.58 26.11,42.94 26.53,43.28 27.39,43.95 28.13,44.72 28.77,45.57 L 28.72,45.62 Z M 28.72,45.62" />
        </g>
        <g id="ranaTop1-group1334">
            <path id="ranaTop1-bezier1332" stroke="none" fill="rgb(0, 0, 0)" d="M 69.17,51.47 C 68.59,50.92 67.96,50.41 67.3,49.95 66.66,49.48 65.98,49.05 65.28,48.69 64.57,48.34 63.83,48.1 63.1,47.87 62.37,47.64 61.63,47.52 60.8,47.51 L 60.78,47.44 C 61.53,47.04 62.45,46.98 63.28,47.15 64.13,47.3 64.88,47.73 65.57,48.17 66.98,49.05 68.19,50.18 69.23,51.42 L 69.17,51.47 Z M 69.17,51.47" />
        </g>
        <g id="ranaTop1-group1335">
            <path id="ranaTop1-bezier1333" stroke="none" fill="rgb(0, 0, 0)" d="M 76.75,45.15 C 74.34,44.65 71.95,44.07 69.59,43.36 68.41,43.01 67.21,42.67 66.08,42.14 65.52,41.88 64.96,41.59 64.44,41.25 63.92,40.9 63.39,40.52 63.03,39.99 L 63.08,39.94 C 64.09,40.62 65.25,41.01 66.37,41.45 L 69.78,42.79 C 72.08,43.62 74.42,44.37 76.77,45.07 L 76.75,45.15 Z M 76.75,45.15" />
        </g>
        <g id="ranaTop1-group1336">
            <path id="ranaTop1-bezier1334" stroke="none" fill="rgb(0, 0, 0)" d="M 83.61,39.42 C 81.56,39.26 79.49,39.17 77.44,39.2 76.42,39.22 75.4,39.33 74.4,39.4 73.4,39.48 72.39,39.53 71.48,39.99 L 71.42,39.94 C 71.76,39.51 72.27,39.24 72.77,39.05 73.27,38.85 73.79,38.74 74.31,38.65 75.36,38.48 76.41,38.54 77.45,38.6 79.53,38.7 81.59,38.97 83.62,39.35 L 83.61,39.42 Z M 83.61,39.42" />
        </g>
        <g id="ranaTop1-group1337">
            <path id="ranaTop1-bezier1335" stroke="none" fill="rgb(0, 0, 0)" d="M 82.36,27.67 C 80.76,27.24 79.1,26.96 77.46,26.93 76.64,26.92 75.84,27.03 75.05,27.12 74.25,27.21 73.49,27.39 72.68,27.67 L 72.64,27.61 C 73.23,26.97 74.07,26.58 74.92,26.38 75.77,26.17 76.65,26.23 77.5,26.33 79.2,26.5 80.84,26.95 82.39,27.6 L 82.36,27.67 Z M 82.36,27.67" />
        </g>
        <g id="ranaTop1-group1338">
            <path id="ranaTop1-bezier1336" stroke="none" fill="rgb(0, 0, 0)" d="M 75.85,33.43 C 73.13,33.66 70.4,33.74 67.67,33.62 66.3,33.56 64.92,33.5 63.57,33.2 62.24,32.88 60.85,32.49 59.75,31.63 L 59.79,31.56 C 61.06,32.03 62.37,32.28 63.7,32.47 65.03,32.66 66.36,32.88 67.71,33.02 70.4,33.27 73.13,33.37 75.85,33.35 L 75.85,33.43 Z M 75.85,33.43" />
        </g>
        <g id="ranaTop1-group1339">
            <path id="ranaTop1-bezier1337" stroke="none" fill="rgb(0, 0, 0)" d="M 60.46,42.75 C 58.67,41.95 56.82,41.29 54.94,40.81 53.99,40.59 53.03,40.46 52.09,40.3 51.15,40.14 50.2,40.04 49.21,40 L 49.19,39.93 C 50.13,39.56 51.18,39.49 52.18,39.56 53.19,39.62 54.16,39.93 55.1,40.24 56.99,40.85 58.8,41.68 60.5,42.68 L 60.46,42.75 Z M 60.46,42.75" />
        </g>
        <g id="ranaTop1-group1340">
            <path id="ranaTop1-bezier1338" stroke="none" fill="rgb(0, 0, 0)" d="M 60,49.28 C 59.53,49.14 59.19,48.81 58.81,48.54 L 57.7,47.7 C 56.97,47.14 56.24,46.58 55.48,46.07 54.72,45.57 53.92,45.14 53.15,44.7 52.37,44.25 51.58,43.86 50.68,43.59 L 50.69,43.51 C 51.64,43.37 52.62,43.65 53.48,44.03 54.36,44.42 55.11,45.01 55.84,45.59 56.57,46.17 57.26,46.79 57.94,47.42 L 58.95,48.37 C 59.29,48.67 59.61,49.04 60.02,49.21 L 60,49.28 Z M 60,49.28" />
        </g>
        <g id="ranaTop1-group1341">
            <path id="ranaTop1-bezier1339" stroke="none" fill="rgb(0, 0, 0)" d="M 51.97,47.38 C 50.87,47.56 49.76,47.81 48.64,47.98 47.52,48.14 46.39,48.26 45.25,48.29 44.11,48.33 42.94,48.34 41.8,48.01 40.7,47.69 39.51,47.05 39.04,45.95 L 39.1,45.91 C 39.89,46.72 40.93,47.06 41.98,47.28 43.04,47.49 44.14,47.65 45.25,47.69 46.36,47.73 47.48,47.69 48.6,47.61 49.73,47.54 50.84,47.39 51.97,47.3 L 51.97,47.38 51.97,47.38 Z M 51.97,47.38" />
        </g>
        <g id="ranaTop1-group1342">
            <path id="ranaTop1-bezier1340" stroke="none" fill="rgb(0, 0, 0)" d="M 37.72,47.37 C 36.96,45.99 36.15,44.65 35.26,43.38 34.81,42.75 34.3,42.18 33.83,41.59 33.35,41.02 32.9,40.41 32.17,40.15 L 32.17,40.08 C 32.59,39.98 33.03,40.13 33.4,40.33 33.78,40.53 34.09,40.8 34.39,41.09 34.97,41.66 35.37,42.37 35.77,43.06 36.57,44.43 37.22,45.87 37.79,47.34 L 37.72,47.37 Z M 37.72,47.37" />
        </g>
        <g id="ranaTop1-group1343">
            <path id="ranaTop1-bezier1341" stroke="none" fill="rgb(0, 0, 0)" d="M 46.37,43.81 C 45.26,42.74 44.1,41.73 42.88,40.82 42.26,40.38 41.6,40 40.99,39.58 40.37,39.15 39.75,38.75 39.06,38.38 L 39.08,38.31 C 39.89,38.28 40.67,38.57 41.37,38.93 42.08,39.3 42.67,39.84 43.25,40.36 44.42,41.4 45.47,42.54 46.43,43.76 L 46.37,43.81 Z M 46.37,43.81" />
        </g>
        <g id="ranaTop1-group1344">
            <path id="ranaTop1-bezier1342" stroke="none" fill="rgb(0, 0, 0)" d="M 69.2,26.64 C 66.43,26.51 63.65,26.51 60.9,26.73 59.53,26.85 58.17,27.07 56.83,27.31 55.5,27.55 54.16,27.86 53.04,28.66 L 52.99,28.61 C 53.86,27.44 55.34,26.95 56.68,26.57 58.06,26.23 59.47,26.17 60.87,26.13 63.66,26.05 66.45,26.22 69.21,26.57 L 69.2,26.64 Z M 69.2,26.64" />
        </g>
        <g id="ranaTop1-group1345">
            <path id="ranaTop1-bezier1343" stroke="none" fill="rgb(0, 0, 0)" d="M 55.29,22.21 C 53.27,22.87 51.19,23.36 49.07,23.65 48.01,23.79 46.93,23.93 45.85,23.84 44.78,23.75 43.68,23.53 42.72,23.01 L 42.74,22.94 C 43.81,23.07 44.83,23.11 45.88,23.09 46.91,23.08 47.96,23.11 49.01,23.05 51.1,22.9 53.2,22.59 55.27,22.14 L 55.29,22.21 Z M 55.29,22.21" />
        </g>
        <g id="ranaTop1-group1346">
            <path id="ranaTop1-bezier1344" stroke="none" fill="rgb(0, 0, 0)" d="M 42.21,20.46 C 40.85,19.46 39.43,18.54 37.94,17.8 37.19,17.44 36.41,17.17 35.65,16.89 34.89,16.63 34.12,16.41 33.27,16.43 L 33.25,16.36 C 34.04,15.92 35.01,15.98 35.86,16.17 36.73,16.38 37.49,16.83 38.22,17.27 39.7,18.16 41.03,19.23 42.25,20.41 L 42.21,20.46 Z M 42.21,20.46" />
        </g>
        <g id="ranaTop1-group1347">
            <path id="ranaTop1-bezier1345" stroke="none" fill="rgb(0, 0, 0)" d="M 35.8,21.78 C 34.9,21.59 34.03,21.31 33.15,21.07 32.27,20.82 31.39,20.58 30.51,20.36 29.63,20.14 28.74,19.98 27.87,19.74 27,19.5 26.14,19.26 25.24,19.06 L 25.24,18.98 C 26.17,18.77 27.12,18.86 28.03,19.01 28.95,19.16 29.82,19.48 30.68,19.78 31.55,20.08 32.41,20.39 33.27,20.72 34.12,21.04 34.96,21.42 35.82,21.71 L 35.8,21.78 Z M 35.8,21.78" />
        </g>
        <g id="ranaTop1-group1348">
            <path id="ranaTop1-bezier1346" stroke="none" fill="rgb(0, 0, 0)" d="M 63.94,36.09 C 63.52,36.07 63.08,36.26 62.66,36.37 L 61.38,36.75 C 60.52,36.98 59.65,37.18 58.75,37.31 57.86,37.43 56.93,37.53 56.01,37.34 55.11,37.16 54.21,36.75 53.57,36.08 L 53.62,36.02 C 54.46,36.33 55.28,36.53 56.13,36.6 56.97,36.68 57.82,36.75 58.69,36.71 59.56,36.66 60.43,36.54 61.3,36.38 L 62.61,36.15 C 63.05,36.08 63.48,35.95 63.95,36.01 L 63.94,36.09 Z M 63.94,36.09" />
        </g>
        <g id="ranaTop1-group1349">
            <path id="ranaTop1-bezier1347" stroke="none" fill="rgb(0, 0, 0)" d="M 54.35,32.57 C 52.21,31.74 50.03,31 47.82,30.43 46.71,30.16 45.59,29.97 44.49,29.78 43.4,29.63 42.26,29.42 41.22,29.89 L 41.18,29.83 C 41.59,29.38 42.21,29.18 42.8,29.08 43.4,28.98 44,28.99 44.58,29.04 45.77,29.14 46.89,29.5 47.99,29.85 50.19,30.57 52.32,31.47 54.38,32.5 L 54.35,32.57 Z M 54.35,32.57" />
        </g>
        <g id="ranaTop1-group1350">
            <path id="ranaTop1-bezier1348" stroke="none" fill="rgb(0, 0, 0)" d="M 46,35.39 C 45.11,35.53 44.22,35.88 43.31,36.07 42.39,36.27 41.46,36.42 40.52,36.47 39.57,36.54 38.6,36.55 37.67,36.31 36.74,36.07 35.84,35.66 35.12,35.04 L 35.15,34.97 C 36.06,35.23 36.93,35.45 37.82,35.58 38.7,35.71 39.59,35.86 40.5,35.88 41.41,35.89 42.33,35.82 43.24,35.7 44.16,35.61 45.05,35.36 46,35.32 L 46,35.39 Z M 46,35.39" />
        </g>
        <g id="ranaTop1-group1351">
            <path id="ranaTop1-bezier1349" stroke="none" fill="rgb(0, 0, 0)" d="M 39.93,26.78 C 38.11,26.8 36.31,26.99 34.56,27.37 33.69,27.57 32.85,27.87 32.01,28.13 31.17,28.39 30.35,28.71 29.51,29.09 L 29.47,29.03 C 30.07,28.31 30.89,27.8 31.75,27.43 32.61,27.05 33.54,26.91 34.45,26.78 36.28,26.53 38.12,26.51 39.93,26.71 L 39.93,26.78 Z M 39.93,26.78" />
        </g>
        <g id="ranaTop1-group1352">
            <path id="ranaTop1-bezier1350" stroke="none" fill="rgb(0, 0, 0)" d="M 37.62,30.01 C 35.71,30.71 33.84,31.52 32.08,32.48 31.2,32.98 30.38,33.55 29.59,34.12 28.81,34.7 28.04,35.32 27.7,36.28 L 27.62,36.27 C 27.57,35.74 27.78,35.19 28.06,34.74 28.35,34.27 28.72,33.89 29.12,33.53 29.92,32.84 30.87,32.38 31.8,31.95 33.67,31.08 35.62,30.43 37.6,29.93 L 37.62,30.01 Z M 37.62,30.01" />
        </g>
        <g id="ranaTop1-group1353">
            <path id="ranaTop1-bezier1351" stroke="none" fill="rgb(0, 0, 0)" d="M 29.68,31.4 C 28.79,31.79 27.85,32 26.92,32.23 25.97,32.43 25.02,32.58 24.05,32.68 23.09,32.77 22.1,32.85 21.13,32.67 20.16,32.5 19.16,32.15 18.45,31.45 L 18.49,31.39 C 19.4,31.72 20.3,31.86 21.22,31.93 22.14,32 23.08,32.09 24.02,32.08 24.96,32.06 25.91,31.98 26.85,31.86 27.79,31.73 28.75,31.61 29.64,31.33 L 29.68,31.4 Z M 29.68,31.4" />
        </g>
        <g id="ranaTop1-group1354">
            <path id="ranaTop1-bezier1352" stroke="none" fill="rgb(0, 0, 0)" d="M 25.98,25.71 C 24.82,25.28 23.62,24.95 22.42,24.78 21.82,24.71 21.23,24.73 20.66,24.72 20.08,24.71 19.52,24.76 18.9,24.94 L 18.86,24.87 C 19.26,24.33 19.96,24.06 20.61,23.97 21.27,23.88 21.92,24.03 22.54,24.19 23.78,24.51 24.93,25.01 26.01,25.64 L 25.98,25.71 Z M 25.98,25.71" />
        </g>
        <g id="ranaTop1-group1355">
            <path id="ranaTop1-bezier1353" stroke="none" fill="rgb(0, 0, 0)" d="M 105.23,35.35 C 104.95,35.57 104.59,35.44 104.3,35.36 104,35.27 103.71,35.11 103.45,34.92 103.2,34.73 102.96,34.5 102.76,34.23 102.67,34.09 102.58,33.94 102.51,33.76 102.46,33.58 102.39,33.32 102.59,33.05 102.65,32.96 102.86,32.84 102.96,32.83 103.08,32.8 103.19,32.8 103.29,32.81 103.5,32.83 103.67,32.88 103.84,32.94 104.17,33.07 104.45,33.27 104.69,33.51 104.92,33.73 105.11,34.05 105.22,34.37 105.31,34.68 105.44,35.06 105.23,35.35 Z M 105.18,35.3 C 105.33,35.05 105.08,34.76 104.88,34.58 104.66,34.38 104.42,34.25 104.2,34.07 103.98,33.9 103.75,33.75 103.53,33.62 103.32,33.47 103.01,33.45 103.05,33.44 103,33.39 103.03,33.75 103.18,33.96 103.31,34.21 103.49,34.43 103.7,34.64 103.9,34.85 104.12,35.05 104.37,35.22 104.61,35.36 104.96,35.52 105.18,35.3 Z M 105.18,35.3" />
        </g>
        <g id="ranaTop1-group1356">
            <path id="ranaTop1-bezier1354" stroke="none" fill="rgb(0, 0, 0)" d="M 103.52,41.81 C 103.44,41.51 103.05,41.48 102.77,41.49 102.48,41.52 102.19,41.59 101.91,41.68 101.62,41.77 101.36,41.88 101.13,42.03 101.01,42.1 100.9,42.19 100.83,42.27 100.75,42.35 100.76,42.49 100.75,42.39 100.74,42.44 101.01,42.52 101.27,42.5 101.53,42.49 101.81,42.46 102.07,42.42 102.36,42.37 102.63,42.36 102.92,42.3 103.18,42.23 103.54,42.1 103.52,41.81 Z M 103.6,41.78 C 103.64,42.15 103.34,42.42 103.12,42.65 102.87,42.87 102.55,43.06 102.25,43.15 101.91,43.24 101.58,43.28 101.22,43.24 101.05,43.22 100.87,43.18 100.68,43.1 100.59,43.06 100.49,43.01 100.4,42.92 100.35,42.88 100.31,42.84 100.26,42.76 100.2,42.66 100.19,42.62 100.19,42.59 100.12,42.18 100.32,42.03 100.45,41.89 100.59,41.76 100.74,41.67 100.89,41.6 101.19,41.45 101.52,41.37 101.83,41.32 102.15,41.27 102.47,41.27 102.79,41.34 103.08,41.4 103.45,41.46 103.6,41.78 Z M 103.6,41.78" />
        </g>
        <g id="ranaTop1-group1357">
            <path id="ranaTop1-bezier1355" stroke="none" fill="rgb(0, 0, 0)" d="M 101.69,40.47 C 101.41,40.56 101.15,40.72 100.92,40.89 100.68,41.05 100.46,41.24 100.28,41.44 100.09,41.65 100,41.89 99.86,42.07 99.72,42.25 99.61,42.44 99.49,42.77 L 99.41,42.8 C 99.12,42.56 99.06,42.11 99.18,41.75 99.3,41.38 99.62,41.16 99.89,40.98 100.44,40.62 101.04,40.39 101.68,40.39 L 101.69,40.47 Z M 101.69,40.47" />
        </g>
        <g id="ranaTop1-group1358">
            <path id="ranaTop1-bezier1356" stroke="none" fill="rgb(0, 0, 0)" d="M 103.21,35.44 C 102.63,35.31 102.09,35.04 101.65,34.58 101.43,34.36 101.19,34.08 101.17,33.73 101.14,33.38 101.25,33.03 101.52,32.8 L 101.59,32.82 C 101.73,33.14 101.8,33.36 101.9,33.57 101.99,33.76 102.01,34 102.13,34.22 102.37,34.65 102.77,35.06 103.23,35.37 L 103.21,35.44 Z M 103.21,35.44" />
        </g>
        <g id="ranaTop1-group1359">
            <path id="ranaTop1-bezier1357" stroke="none" fill="rgb(0, 0, 0)" d="M 85.92,52.3 C 86.1,52.55 86.23,52.85 86.23,53.2 86.22,53.55 86.02,53.9 85.74,54.13 85.48,54.36 85.17,54.55 84.85,54.57 84.52,54.59 84.2,54.54 83.89,54.36 L 83.89,54.28 C 84.17,54.06 84.43,53.95 84.68,53.84 84.92,53.73 85.18,53.73 85.4,53.63 85.62,53.53 85.79,53.37 85.86,53.14 85.95,52.91 85.94,52.61 85.86,52.34 L 85.92,52.3 Z M 85.92,52.3" />
        </g>
        <g id="ranaTop1-group1360">
            <path id="ranaTop1-bezier1358" stroke="none" fill="rgb(0, 0, 0)" d="M 85.5,55.03 C 85.45,55.43 85.28,55.86 84.89,56.09 84.49,56.33 84,56.27 83.61,56.14 82.81,55.83 82.18,55.34 81.5,54.92 80.83,54.49 80.17,54.13 79.5,53.96 78.83,53.77 78.05,53.83 77.24,53.86 L 77.22,53.78 C 77.91,53.37 78.75,53.1 79.65,53.22 80.56,53.35 81.24,53.95 81.85,54.43 82.48,54.91 83.08,55.46 83.75,55.79 84.08,55.94 84.46,56.04 84.78,55.9 85.11,55.76 85.33,55.39 85.42,55.02 L 85.5,55.03 Z M 85.5,55.03" />
        </g>
        <g id="ranaTop1-group1361">
            <path id="ranaTop1-bezier1359" stroke="none" fill="rgb(0, 0, 0)" d="M 91.11,32.57 C 89.72,32.64 88.32,32.46 86.97,32.02 86.3,31.8 85.61,31.55 85.03,31.11 84.47,30.67 83.97,30.11 83.68,29.45 L 83.73,29.4 C 84.34,29.79 84.88,30.16 85.45,30.48 86.02,30.81 86.57,31.18 87.18,31.46 88.41,32 89.75,32.35 91.11,32.5 L 91.11,32.57 Z M 91.11,32.57" />
        </g>
        <g id="ranaTop1-group1362">
            <path id="ranaTop1-bezier1360" stroke="none" fill="rgb(0, 0, 0)" d="M 84.97,51.08 C 84.08,50.99 83.17,50.99 82.27,51 81.37,51 80.47,51.04 79.58,51.13 78.69,51.23 77.82,51.42 76.98,51.59 76.13,51.78 75.29,51.97 74.64,52.61 L 74.58,52.57 C 74.73,52.11 75.09,51.74 75.49,51.47 75.89,51.19 76.34,51.01 76.78,50.86 77.69,50.58 78.63,50.55 79.54,50.53 80.46,50.52 81.37,50.55 82.28,50.62 83.19,50.71 84.09,50.81 84.99,51.01 L 84.97,51.08 Z M 84.97,51.08" />
        </g>
        <g id="ranaTop1-group1363">
            <path id="ranaTop1-bezier1361" stroke="none" fill="rgb(0, 0, 0)" d="M 20.65,9.93 C 20.75,9.69 20.75,9.41 20.64,9.24 20.54,9.07 20.35,8.97 20.13,8.91 19.9,8.85 19.66,8.87 19.42,8.78 19.18,8.69 18.94,8.59 18.68,8.37 L 18.68,8.3 C 18.96,8.11 19.25,8.05 19.55,8.04 19.84,8.04 20.12,8.2 20.39,8.36 20.65,8.53 20.92,8.78 21,9.13 21.05,9.48 20.9,9.77 20.71,9.98 L 20.65,9.93 Z M 20.65,9.93" />
        </g>
        <g id="ranaTop1-group1364">
            <path id="ranaTop1-bezier1362" stroke="none" fill="rgb(0, 0, 0)" d="M 20.81,7.98 C 20.78,7.77 20.55,7.63 20.35,7.54 20.14,7.45 19.91,7.4 19.68,7.35 19.21,7.27 18.74,7.26 18.27,7.26 17.32,7.27 16.36,7.35 15.43,7.49 14.52,7.63 13.7,7.98 13.27,8.66 12.81,9.36 12.73,10.34 12.61,11.3 L 12.53,11.31 C 12.3,10.37 12.15,9.32 12.64,8.31 12.89,7.81 13.34,7.4 13.84,7.18 14.33,6.96 14.85,6.88 15.36,6.85 16.34,6.8 17.31,6.79 18.28,6.87 18.77,6.91 19.26,6.99 19.73,7.12 19.97,7.19 20.2,7.28 20.42,7.4 20.63,7.53 20.87,7.7 20.89,7.99 L 20.81,7.98 Z M 20.81,7.98" />
        </g>
        <g id="ranaTop1-group1365">
            <path id="ranaTop1-bezier1363" stroke="none" fill="rgb(0, 0, 0)" d="M 17.86,14.51 C 17.29,14.48 16.72,14.46 16.15,14.47 15.59,14.48 15.01,14.5 14.5,14.62 14.28,14.69 13.89,14.83 13.5,14.72 13.1,14.63 12.8,14.31 12.65,14 12.37,13.37 12.39,12.76 12.53,12.17 L 12.61,12.16 C 12.87,12.71 13.03,13.25 13.3,13.63 13.59,14 13.75,14.15 14.4,14.03 15.63,13.93 16.75,14.18 17.87,14.43 L 17.86,14.51 Z M 17.86,14.51" />
        </g>
        <g id="ranaTop1-group1366">
            <path id="ranaTop1-bezier1364" stroke="none" fill="rgb(0, 0, 0)" d="M 17.35,11.28 C 16.96,11.37 16.57,11.43 16.17,11.47 15.97,11.49 15.77,11.56 15.58,11.49 15.39,11.43 15.2,11.33 15.03,11.1 L 15.04,11.03 C 15.25,10.84 15.45,10.78 15.65,10.75 15.84,10.72 16.03,10.81 16.22,10.87 16.6,10.96 16.98,11.08 17.36,11.21 L 17.35,11.28 Z M 17.35,11.28" />
        </g>
    </g>
</svg>
