<?xml version="1.0" encoding="UTF-8"?>
<!DOCTYPE svg PUBLIC "-//W3C//DTD SVG 1.1//EN" "http://www.w3.org/Graphics/SVG/1.1/DTD/svg11.dtd">
<svg version="1.1" xmlns="http://www.w3.org/2000/svg" xmlns:xlink="http://www.w3.org/1999/xlink" width="120" height="60"  xml:space="preserve" id="ranaSideLeft5">
    <!-- Generated by PaintCode - http://www.paintcodeapp.com -->
    <g id="ranaSideLeft5-group2">
        <g id="ranaSideLeft5-group419">
            <path id="ranaSideLeft5-bezier418" stroke="none" fill="rgb(0, 0, 0)" d="M 20.7,29.01 C 21.81,27.98 23.19,27.15 24.68,26.99 25.41,26.91 26.16,27.04 26.8,27.35 27.48,27.67 28.05,28.12 28.48,28.7 28.9,29.28 29.15,29.97 29.3,30.69 L 29.52,31.82 C 29.57,32.01 29.61,32.21 29.73,32.45 29.96,32.82 29.87,32.64 29.93,32.85 30.02,33.5 29.89,34.3 29.85,35.06 29.83,35.45 29.8,35.84 29.8,36.23 29.81,36.43 29.83,36.63 29.86,36.83 29.9,37.02 29.95,37.25 30.14,37.38 L 30.18,37.32 C 30,37.03 30.1,36.61 30.15,36.25 30.2,35.88 30.28,35.51 30.37,35.13 30.51,34.37 30.7,33.65 30.67,32.75 30.64,32.62 30.65,32.54 30.56,32.34 30.49,32.23 30.51,32.26 30.45,32.17 30.44,32.16 30.43,32.14 30.42,32.11 30.36,32 30.32,31.82 30.28,31.65 30.21,31.29 30.13,30.9 30.02,30.51 29.81,29.75 29.48,28.97 28.95,28.34 28.44,27.69 27.74,27.21 27.01,26.91 26.25,26.59 25.42,26.49 24.63,26.62 23.04,26.9 21.7,27.85 20.65,28.96 L 20.7,29.01 Z M 20.7,29.01" />
        </g>
        <g id="ranaSideLeft5-group420">
            <path id="ranaSideLeft5-bezier419" stroke="none" fill="rgb(0, 0, 0)" d="M 8.26,47.24 C 7.8,47.25 7.34,47.31 6.89,47.46 6.44,47.62 5.97,47.88 5.7,48.38 5.49,48.77 5.13,49.24 5.34,49.91 5.46,50.23 5.72,50.44 5.97,50.53 6.22,50.63 6.46,50.67 6.71,50.64 L 6.74,50.57 C 6.38,50.24 6.06,49.93 6.06,49.69 6.03,49.47 6.09,49.05 6.24,48.63 6.35,48.3 6.67,48 7.04,47.8 7.41,47.58 7.84,47.42 8.27,47.32 L 8.26,47.24 Z M 8.26,47.24" />
        </g>
        <g id="ranaSideLeft5-group421">
            <path id="ranaSideLeft5-bezier420" stroke="none" fill="rgb(0, 0, 0)" d="M 8.24,50.86 C 8.73,51.42 9.51,51.43 10.17,51.43 10.85,51.4 11.52,51.27 12.18,51.1 13.5,50.74 14.73,50.21 16,49.79 17.27,49.35 18.55,48.98 19.8,48.51 21.05,48.04 22.28,47.52 23.56,47.16 L 23.56,47.09 C 22.17,47.02 20.86,47.46 19.56,47.79 18.27,48.18 17.03,48.71 15.79,49.23 14.54,49.73 13.33,50.32 12.07,50.74 11.45,50.95 10.81,51.13 10.15,51.21 9.52,51.26 8.77,51.28 8.31,50.82 L 8.24,50.86 Z M 8.24,50.86" />
        </g>
        <g id="ranaSideLeft5-group422">
            <path id="ranaSideLeft5-bezier421" stroke="none" fill="rgb(0, 0, 0)" d="M 12.79,51.36 C 13.52,51.96 14.61,52.18 15.54,51.83 L 18.21,50.98 C 19.1,50.71 20,50.52 20.88,50.25 21.76,49.99 22.64,49.74 23.56,49.51 L 23.56,49.44 C 22.61,49.26 21.63,49.35 20.7,49.53 19.77,49.71 18.89,50.07 18.01,50.41 L 15.41,51.48 C 14.61,51.88 13.62,51.79 12.83,51.3 L 12.79,51.36 Z M 12.79,51.36" />
        </g>
        <g id="ranaSideLeft5-group423">
            <path id="ranaSideLeft5-bezier422" stroke="none" fill="rgb(0, 0, 0)" d="M 15.84,41.1 C 15.85,41.92 16.49,42.82 17.46,42.87 18.4,42.93 19.33,42.11 19.35,41.1 19.37,40.61 19.19,40.09 18.84,39.71 18.5,39.33 17.97,39.12 17.46,39.14 16.95,39.15 16.47,39.45 16.2,39.83 15.92,40.22 15.83,40.68 15.84,41.1 Z M 15.91,41.09 C 15.92,40.68 16.17,40.31 16.48,40.12 16.8,39.91 17.15,39.87 17.46,39.89 18.08,39.92 18.7,40.4 18.75,41.09 18.81,41.78 18.21,42.47 17.46,42.49 17.1,42.52 16.71,42.41 16.4,42.16 16.09,41.91 15.89,41.51 15.91,41.09 Z M 15.91,41.09" />
        </g>
        <g id="ranaSideLeft5-group424">
            <path id="ranaSideLeft5-bezier423" stroke="none" fill="rgb(0, 0, 0)" d="M 14.62,41.53 C 14.78,40.94 15.01,40.37 15.31,39.89 15.47,39.65 15.68,39.47 15.82,39.25 15.96,39.02 16.1,38.8 16.28,38.48 L 16.25,38.42 C 15.88,38.37 15.53,38.52 15.26,38.75 14.99,38.98 14.87,39.32 14.77,39.63 14.55,40.26 14.49,40.9 14.55,41.53 L 14.62,41.53 Z M 14.62,41.53" />
        </g>
        <g id="ranaSideLeft5-group425">
            <path id="ranaSideLeft5-bezier424" stroke="none" fill="rgb(0, 0, 0)" d="M 20.51,41.29 C 20.17,42.13 19.54,42.85 18.79,43.18 18.4,43.34 17.99,43.37 17.59,43.45 17.18,43.53 16.75,43.58 16.26,43.68 L 16.25,43.76 C 16.65,44.05 17.15,44.18 17.65,44.19 18.16,44.21 18.66,43.98 19.07,43.7 19.94,43.15 20.44,42.23 20.58,41.31 L 20.51,41.29 Z M 20.51,41.29" />
        </g>
        <g id="ranaSideLeft5-group426">
            <path id="ranaSideLeft5-bezier425" stroke="none" fill="rgb(0, 0, 0)" d="M 8.3,46.17 C 8.95,45.56 9.53,44.88 10.02,44.13 10.5,43.39 10.92,42.55 11.01,41.62 11.24,39.85 11.02,38.04 12.01,36.56 12.71,34.82 12.9,33 12.78,31.19 12.62,29.4 12.17,27.57 11.13,26.09 L 11.07,26.13 C 11.7,27.78 12.01,29.5 12.04,31.23 12.06,32.94 12.02,34.74 11.46,36.32 11.4,36.48 11.28,36.69 11.18,36.91 11.09,37.13 11,37.35 10.95,37.58 10.83,38.03 10.77,38.49 10.74,38.93 10.69,39.83 10.7,40.71 10.64,41.59 10.6,42.44 10.26,43.26 9.83,44.01 9.39,44.77 8.85,45.48 8.25,46.12 L 8.3,46.17 Z M 8.3,46.17" />
        </g>
        <g id="ranaSideLeft5-group427">
            <path id="ranaSideLeft5-bezier426" stroke="none" fill="rgb(0, 0, 0)" d="M 35.32,28.9 C 36.29,28.81 37.27,28.78 38.22,28.81 38.7,28.83 39.17,28.92 39.64,28.92 40.11,28.91 40.56,28.91 41.09,28.9 L 41.11,28.83 C 40.72,28.45 40.21,28.27 39.71,28.17 39.21,28.07 38.7,28.15 38.2,28.21 37.21,28.31 36.24,28.53 35.3,28.82 L 35.32,28.9 Z M 35.32,28.9" />
        </g>
        <g id="ranaSideLeft5-group428">
            <path id="ranaSideLeft5-bezier427" stroke="none" fill="rgb(0, 0, 0)" d="M 39.72,33.18 C 40.49,33.38 41.19,33.77 41.82,34.21 42.14,34.44 42.4,34.72 42.73,34.93 43.06,35.13 43.4,35.32 43.82,35.47 L 43.88,35.42 C 43.75,34.99 43.49,34.64 43.2,34.34 42.9,34.04 42.5,33.87 42.13,33.69 41.37,33.34 40.56,33.1 39.73,33.1 L 39.72,33.18 Z M 39.72,33.18" />
        </g>
        <g id="ranaSideLeft5-group429">
            <path id="ranaSideLeft5-bezier428" stroke="none" fill="rgb(0, 0, 0)" d="M 41.77,31.9 C 43.05,32.5 44.29,33.19 45.45,33.96 46.02,34.36 46.55,34.81 47.11,35.21 47.67,35.6 48.21,36.01 48.78,36.46 L 48.84,36.42 C 48.59,35.72 48.11,35.12 47.58,34.63 47.04,34.12 46.39,33.78 45.76,33.45 44.49,32.77 43.16,32.23 41.8,31.82 L 41.77,31.9 Z M 41.77,31.9" />
        </g>
        <g id="ranaSideLeft5-group430">
            <path id="ranaSideLeft5-bezier429" stroke="none" fill="rgb(0, 0, 0)" d="M 107.12,48.89 C 107.51,49.38 107.89,49.87 108.24,50.37 108.41,50.62 108.54,50.9 108.75,51.11 108.96,51.32 109.18,51.51 109.48,51.71 L 109.55,51.68 C 109.62,51.31 109.5,50.96 109.36,50.67 109.2,50.38 108.93,50.18 108.69,49.97 108.22,49.54 107.71,49.16 107.17,48.83 L 107.12,48.89 Z M 107.12,48.89" />
        </g>
        <g id="ranaSideLeft5-group431">
            <path id="ranaSideLeft5-bezier430" stroke="none" fill="rgb(0, 0, 0)" d="M 101.16,45.33 C 101.97,46.04 102.76,46.77 103.54,47.5 103.92,47.87 104.26,48.28 104.67,48.61 105.06,48.95 105.5,49.22 105.85,49.62 L 105.93,49.6 C 105.95,49.29 105.81,49.01 105.68,48.76 105.54,48.5 105.37,48.28 105.19,48.07 104.83,47.65 104.36,47.35 103.92,47.04 103.05,46.39 102.14,45.81 101.2,45.27 L 101.16,45.33 Z M 101.16,45.33" />
        </g>
        <g id="ranaSideLeft5-group432">
            <path id="ranaSideLeft5-bezier431" stroke="none" fill="rgb(0, 0, 0)" d="M 95.94,45.33 C 96.73,45.67 97.53,45.98 98.33,46.26 98.74,46.41 99.13,46.6 99.56,46.65 99.98,46.7 100.43,46.73 100.89,46.59 L 100.9,46.51 C 100.52,46.25 100.13,46.07 99.73,45.92 99.34,45.78 98.91,45.75 98.49,45.68 97.65,45.53 96.81,45.39 95.97,45.26 L 95.94,45.33 Z M 95.94,45.33" />
        </g>
        <g id="ranaSideLeft5-group433">
            <path id="ranaSideLeft5-bezier432" stroke="none" fill="rgb(0, 0, 0)" d="M 107.12,46.58 C 107.66,47.14 108.21,47.7 108.76,48.24 109.03,48.52 109.27,48.83 109.58,49.05 109.9,49.28 110.24,49.45 110.61,49.63 L 110.67,49.59 C 110.6,49.13 110.33,48.8 110.08,48.5 109.82,48.19 109.47,48 109.15,47.78 108.5,47.33 107.84,46.91 107.17,46.52 L 107.12,46.58 Z M 107.12,46.58" />
        </g>
        <g id="ranaSideLeft5-group434">
            <path id="ranaSideLeft5-bezier433" stroke="none" fill="rgb(0, 0, 0)" d="M 103.87,42.02 C 104.5,42.6 105.12,43.18 105.73,43.77 106.03,44.07 106.29,44.4 106.63,44.65 106.97,44.9 107.31,45.13 107.74,45.32 L 107.8,45.27 C 107.68,44.81 107.42,44.44 107.14,44.1 106.85,43.77 106.47,43.55 106.11,43.31 105.41,42.81 104.67,42.36 103.91,41.95 L 103.87,42.02 Z M 103.87,42.02" />
        </g>
        <g id="ranaSideLeft5-group435">
            <path id="ranaSideLeft5-bezier434" stroke="none" fill="rgb(0, 0, 0)" d="M 106.81,42.6 C 107.5,43.03 108.18,43.46 108.84,43.9 109.17,44.12 109.47,44.39 109.83,44.56 110.19,44.72 110.55,44.87 110.99,44.95 L 111.04,44.89 C 110.84,44.49 110.54,44.18 110.22,43.92 109.9,43.66 109.51,43.53 109.13,43.37 108.39,43.04 107.62,42.76 106.84,42.53 L 106.81,42.6 Z M 106.81,42.6" />
        </g>
        <g id="ranaSideLeft5-group436">
            <path id="ranaSideLeft5-bezier435" stroke="none" fill="rgb(0, 0, 0)" d="M 108.34,41.31 C 109,41.19 109.68,41.16 110.3,41.23 110.62,41.27 110.91,41.39 111.2,41.41 111.5,41.44 111.79,41.48 112.18,41.52 L 112.23,41.46 C 112.07,41.09 111.75,40.84 111.4,40.69 111.05,40.54 110.66,40.59 110.3,40.63 109.59,40.7 108.92,40.91 108.32,41.24 L 108.34,41.31 Z M 108.34,41.31" />
        </g>
        <g id="ranaSideLeft5-group437">
            <path id="ranaSideLeft5-bezier436" stroke="none" fill="rgb(0, 0, 0)" d="M 7.62,49.89 C 7.87,49.83 8.11,49.7 8.3,49.48 8.4,49.38 8.53,49.24 8.51,49.07 8.48,48.9 8.36,48.73 8.14,48.68 L 8.06,48.7 7.76,48.98 C 7.7,49.04 7.77,49.12 7.77,49.21 7.75,49.39 7.68,49.61 7.58,49.83 L 7.62,49.89 Z M 7.62,49.89" />
        </g>
        <g id="ranaSideLeft5-group438">
            <path id="ranaSideLeft5-bezier437" stroke="none" fill="rgb(0, 0, 0)" d="M 50.39,34.9 C 51.61,35.13 52.78,35.57 53.83,36.16 54.35,36.46 54.81,36.85 55.31,37.18 55.81,37.5 56.29,37.86 56.83,38.22 L 56.89,38.17 C 56.66,37.55 56.25,37.02 55.77,36.59 55.29,36.14 54.69,35.87 54.09,35.62 52.91,35.12 51.65,34.84 50.39,34.82 L 50.39,34.9 Z M 50.39,34.9" />
        </g>
        <g id="ranaSideLeft5-group439">
            <path id="ranaSideLeft5-bezier438" stroke="none" fill="rgb(0, 0, 0)" d="M 57.55,35.48 C 59,35.8 60.43,36.22 61.78,36.78 62.45,37.08 63.07,37.44 63.7,37.77 64.34,38.09 64.93,38.45 65.53,38.92 L 65.59,38.88 C 65.31,38.14 64.72,37.56 64.09,37.12 63.45,36.68 62.7,36.44 61.98,36.22 60.54,35.77 59.05,35.51 57.56,35.41 L 57.55,35.48 Z M 57.55,35.48" />
        </g>
        <g id="ranaSideLeft5-group440">
            <path id="ranaSideLeft5-bezier439" stroke="none" fill="rgb(0, 0, 0)" d="M 60.04,37.56 C 61.06,38.19 62.04,38.87 62.96,39.6 63.41,39.98 63.81,40.41 64.25,40.77 64.69,41.14 65.12,41.49 65.52,41.96 L 65.59,41.93 C 65.56,41.28 65.18,40.7 64.78,40.23 64.36,39.76 63.83,39.44 63.31,39.12 62.28,38.47 61.2,37.93 60.08,37.49 L 60.04,37.56 Z M 60.04,37.56" />
        </g>
        <g id="ranaSideLeft5-group441">
            <path id="ranaSideLeft5-bezier440" stroke="none" fill="rgb(0, 0, 0)" d="M 67.95,39.77 C 68.76,40.48 69.49,41.26 70.17,42.07 70.5,42.48 70.78,42.93 71.13,43.32 71.49,43.71 71.84,44.09 72.28,44.46 L 72.34,44.43 C 72.26,43.85 72.02,43.34 71.73,42.87 71.44,42.39 71.01,42.03 70.61,41.66 69.81,40.91 68.94,40.25 68,39.7 L 67.95,39.77 Z M 67.95,39.77" />
        </g>
        <g id="ranaSideLeft5-group442">
            <path id="ranaSideLeft5-bezier441" stroke="none" fill="rgb(0, 0, 0)" d="M 71.06,40.77 C 72.07,41.57 73.16,42.27 74.32,42.86 74.9,43.15 75.49,43.46 76.15,43.6 76.8,43.72 77.49,43.77 78.14,43.56 L 78.14,43.49 C 77.51,43.28 76.93,43.09 76.35,42.87 75.77,42.66 75.16,42.52 74.56,42.31 73.38,41.86 72.22,41.32 71.1,40.7 L 71.06,40.77 Z M 71.06,40.77" />
        </g>
        <g id="ranaSideLeft5-group443">
            <path id="ranaSideLeft5-bezier442" stroke="none" fill="rgb(0, 0, 0)" d="M 78.13,42.6 C 79.48,43.29 80.82,44 82.14,44.73 82.79,45.11 83.41,45.53 84.08,45.87 84.72,46.24 85.44,46.5 85.94,47.02 L 86.01,47 C 85.95,46.57 85.64,46.26 85.37,45.98 85.09,45.69 84.78,45.46 84.46,45.23 83.82,44.79 83.11,44.51 82.41,44.2 81.01,43.58 79.59,43.03 78.16,42.54 L 78.13,42.6 Z M 78.13,42.6" />
        </g>
        <g id="ranaSideLeft5-group444">
            <path id="ranaSideLeft5-bezier443" stroke="none" fill="rgb(0, 0, 0)" d="M 82.89,42.79 C 83.41,43.14 83.91,43.65 84.42,44.07 84.94,44.51 85.47,44.93 86.02,45.33 86.57,45.74 87.13,46.16 87.79,46.41 88.44,46.65 89.2,46.83 89.89,46.58 L 89.89,46.51 C 89.23,46.34 88.68,46.04 88.1,45.73 87.54,45.42 86.93,45.16 86.35,44.83 85.77,44.5 85.2,44.14 84.64,43.77 84.06,43.43 83.55,43.01 82.89,42.71 L 82.89,42.79 Z M 82.89,42.79" />
        </g>
        <g id="ranaSideLeft5-group445">
            <path id="ranaSideLeft5-bezier444" stroke="none" fill="rgb(0, 0, 0)" d="M 86.97,44.05 C 87.98,44.36 88.99,44.68 89.98,45.02 90.48,45.2 90.95,45.43 91.45,45.56 91.95,45.69 92.44,45.77 92.95,45.95 L 93,45.9 C 92.72,45.36 92.18,45.09 91.7,44.85 91.21,44.62 90.67,44.55 90.14,44.44 89.09,44.23 88.04,44.08 86.98,43.98 L 86.97,44.05 Z M 86.97,44.05" />
        </g>
        <g id="ranaSideLeft5-group446">
            <path id="ranaSideLeft5-bezier445" stroke="none" fill="rgb(0, 0, 0)" d="M 82.04,38.94 C 83.35,39.56 84.66,40.18 85.94,40.82 86.59,41.15 87.2,41.53 87.86,41.8 88.52,42.08 89.18,42.33 89.87,42.6 L 89.91,42.54 C 89.46,41.93 88.82,41.51 88.2,41.13 87.56,40.76 86.87,40.53 86.19,40.28 84.83,39.75 83.46,39.29 82.07,38.87 L 82.04,38.94 Z M 82.04,38.94" />
        </g>
        <g id="ranaSideLeft5-group447">
            <path id="ranaSideLeft5-bezier446" stroke="none" fill="rgb(0, 0, 0)" d="M 91.22,41.52 L 95.06,42.72 C 95.7,42.92 96.32,43.18 96.97,43.33 97.62,43.47 98.27,43.59 98.96,43.67 L 98.99,43.61 C 98.45,43.14 97.82,42.86 97.19,42.61 96.55,42.37 95.88,42.27 95.21,42.14 93.89,41.86 92.57,41.63 91.23,41.45 L 91.22,41.52 Z M 91.22,41.52" />
        </g>
        <g id="ranaSideLeft5-group448">
            <path id="ranaSideLeft5-bezier447" stroke="none" fill="rgb(0, 0, 0)" d="M 98.42,41.24 C 99.53,41.55 100.63,41.91 101.67,42.35 102.19,42.58 102.66,42.87 103.15,43.1 103.63,43.35 104.09,43.57 104.46,44.03 L 104.53,44.01 C 104.54,43.34 104.01,42.81 103.53,42.46 103.03,42.1 102.43,41.94 101.87,41.78 100.74,41.45 99.59,41.26 98.43,41.17 L 98.42,41.24 Z M 98.42,41.24" />
        </g>
        <g id="ranaSideLeft5-group449">
            <path id="ranaSideLeft5-bezier448" stroke="none" fill="rgb(0, 0, 0)" d="M 105.39,37.56 C 106.47,37.79 107.54,38.02 108.6,38.28 109.13,38.42 109.64,38.61 110.17,38.7 L 111.79,38.93 111.83,38.87 C 111.44,38.41 110.88,38.16 110.36,37.97 109.83,37.78 109.26,37.75 108.71,37.69 107.6,37.56 106.5,37.5 105.4,37.49 L 105.39,37.56 Z M 105.39,37.56" />
        </g>
        <g id="ranaSideLeft5-group450">
            <path id="ranaSideLeft5-bezier449" stroke="none" fill="rgb(0, 0, 0)" d="M 103.06,31.9 C 104.27,31.98 105.48,32.06 106.68,32.17 107.28,32.23 107.88,32.35 108.47,32.36 109.07,32.38 109.66,32.33 110.25,32.42 L 110.29,32.36 C 110.07,32.1 109.75,31.97 109.46,31.85 109.16,31.74 108.85,31.67 108.55,31.61 107.93,31.5 107.32,31.55 106.7,31.57 105.48,31.59 104.27,31.68 103.06,31.82 L 103.06,31.9 Z M 103.06,31.9" />
        </g>
        <g id="ranaSideLeft5-group451">
            <path id="ranaSideLeft5-bezier450" stroke="none" fill="rgb(0, 0, 0)" d="M 97.7,27.12 C 98.67,26.64 99.64,26.19 100.62,25.79 101.12,25.6 101.63,25.46 102.1,25.24 L 103.54,24.56 103.54,24.49 C 102.97,24.31 102.38,24.4 101.85,24.54 101.31,24.68 100.83,24.98 100.36,25.25 99.41,25.78 98.52,26.39 97.66,27.06 L 97.7,27.12 Z M 97.7,27.12" />
        </g>
        <g id="ranaSideLeft5-group452">
            <path id="ranaSideLeft5-bezier451" stroke="none" fill="rgb(0, 0, 0)" d="M 90.45,21.81 L 93.77,20.38 C 94.32,20.15 94.9,19.97 95.42,19.69 95.95,19.42 96.44,19.08 96.97,18.81 L 96.97,18.74 C 96.31,18.61 95.7,18.82 95.12,19 94.54,19.2 94.03,19.54 93.5,19.84 92.45,20.44 91.42,21.07 90.42,21.74 L 90.45,21.81 Z M 90.45,21.81" />
        </g>
        <g id="ranaSideLeft5-group453">
            <path id="ranaSideLeft5-bezier452" stroke="none" fill="rgb(0, 0, 0)" d="M 82.08,18.8 C 83.08,18.03 84.04,17.22 84.96,16.36 85.43,15.94 85.93,15.53 86.31,15.01 86.49,14.75 86.68,14.49 86.82,14.19 86.94,13.89 87.14,13.56 87.01,13.18 L 86.94,13.2 C 86.68,13.7 86.14,14.08 85.73,14.53 85.3,14.96 84.94,15.47 84.53,15.95 83.72,16.88 82.88,17.82 82.03,18.75 L 82.08,18.8 Z M 82.08,18.8" />
        </g>
        <g id="ranaSideLeft5-group454">
            <path id="ranaSideLeft5-bezier453" stroke="none" fill="rgb(0, 0, 0)" d="M 73.92,16.01 C 74.76,15.42 75.58,14.78 76.36,14.09 76.76,13.75 77.18,13.43 77.49,13 77.79,12.57 78.08,12.1 78.17,11.55 L 78.11,11.51 C 77.67,11.83 77.3,12.16 76.93,12.51 76.56,12.85 76.27,13.28 75.94,13.67 75.26,14.44 74.57,15.2 73.87,15.96 L 73.92,16.01 Z M 73.92,16.01" />
        </g>
        <g id="ranaSideLeft5-group455">
            <path id="ranaSideLeft5-bezier454" stroke="none" fill="rgb(0, 0, 0)" d="M 65.58,16.02 C 66.51,15.52 67.41,14.95 68.25,14.28 68.67,13.95 69.12,13.63 69.44,13.16 69.73,12.71 70.03,12.11 69.85,11.53 L 69.77,11.53 C 69.54,12.01 69.19,12.33 68.85,12.69 68.5,13.04 68.21,13.46 67.85,13.84 67.13,14.58 66.34,15.28 65.54,15.95 L 65.58,16.02 Z M 65.58,16.02" />
        </g>
        <g id="ranaSideLeft5-group456">
            <path id="ranaSideLeft5-bezier455" stroke="none" fill="rgb(0, 0, 0)" d="M 62.84,16.47 C 63.55,15.84 64.19,15.13 64.75,14.34 65.03,13.94 65.33,13.53 65.44,13.02 65.55,12.54 65.56,11.91 65.18,11.51 L 65.11,11.54 C 65.07,12.03 64.9,12.39 64.73,12.79 64.55,13.18 64.43,13.61 64.23,14.03 63.82,14.85 63.32,15.65 62.78,16.42 L 62.84,16.47 Z M 62.84,16.47" />
        </g>
        <g id="ranaSideLeft5-group457">
            <path id="ranaSideLeft5-bezier456" stroke="none" fill="rgb(0, 0, 0)" d="M 57.59,16.8 C 58.26,16.05 58.93,15.31 59.61,14.59 59.96,14.24 60.35,13.92 60.65,13.55 60.97,13.17 61.23,12.78 61.57,12.4 L 61.54,12.33 C 60.97,12.36 60.52,12.7 60.12,13.02 59.72,13.35 59.45,13.79 59.15,14.21 58.56,15.03 58.02,15.88 57.53,16.76 L 57.59,16.8 Z M 57.59,16.8" />
        </g>
        <g id="ranaSideLeft5-group458">
            <path id="ranaSideLeft5-bezier457" stroke="none" fill="rgb(0, 0, 0)" d="M 50.41,17.14 C 51.76,16.33 53.06,15.43 54.3,14.44 54.91,13.94 55.55,13.45 56.05,12.81 56.3,12.48 56.53,12.14 56.7,11.76 56.87,11.39 57.01,10.94 56.9,10.53 L 56.83,10.53 C 56.58,11.26 56,11.76 55.49,12.31 54.95,12.85 54.45,13.44 53.9,13.99 52.78,15.06 51.59,16.09 50.37,17.08 L 50.41,17.14 Z M 50.41,17.14" />
        </g>
        <g id="ranaSideLeft5-group459">
            <path id="ranaSideLeft5-bezier458" stroke="none" fill="rgb(0, 0, 0)" d="M 47.02,15.05 C 47.73,14.41 48.41,13.75 49.05,13.05 49.38,12.71 49.74,12.38 49.99,11.96 50.21,11.54 50.48,11.1 50.43,10.53 L 50.35,10.52 C 50.04,10.87 49.68,11.17 49.38,11.52 49.07,11.87 48.85,12.28 48.59,12.67 L 46.97,15 47.02,15.05 Z M 47.02,15.05" />
        </g>
        <g id="ranaSideLeft5-group460">
            <path id="ranaSideLeft5-bezier459" stroke="none" fill="rgb(0, 0, 0)" d="M 42.04,16.81 L 44.59,15.08 C 45.02,14.8 45.48,14.56 45.86,14.24 46.26,13.92 46.6,13.55 47,13.23 L 46.99,13.16 C 46.39,13.11 45.9,13.38 45.44,13.62 44.98,13.88 44.61,14.25 44.23,14.6 43.45,15.28 42.71,16 41.99,16.75 L 42.04,16.81 Z M 42.04,16.81" />
        </g>
        <g id="ranaSideLeft5-group461">
            <path id="ranaSideLeft5-bezier460" stroke="none" fill="rgb(0, 0, 0)" d="M 39.88,16.47 C 40.46,15.91 40.86,15.18 41.13,14.42 41.27,14.04 41.42,13.65 41.42,13.23 41.41,12.83 41.34,12.41 41.14,12.03 L 41.06,12.03 C 40.86,12.42 40.77,12.79 40.67,13.15 40.58,13.52 40.6,13.89 40.55,14.27 40.42,15 40.22,15.75 39.82,16.42 L 39.88,16.47 Z M 39.88,16.47" />
        </g>
        <g id="ranaSideLeft5-group462">
            <path id="ranaSideLeft5-bezier461" stroke="none" fill="rgb(0, 0, 0)" d="M 34.17,19.55 C 35.08,18.81 35.95,18.02 36.76,17.15 37.17,16.72 37.61,16.3 37.9,15.76 38.19,15.24 38.45,14.63 38.39,13.99 L 38.31,13.98 C 37.99,14.48 37.63,14.9 37.28,15.35 36.93,15.79 36.64,16.29 36.3,16.77 35.61,17.7 34.88,18.61 34.11,19.5 L 34.17,19.55 Z M 34.17,19.55" />
        </g>
        <g id="ranaSideLeft5-group463">
            <path id="ranaSideLeft5-bezier462" stroke="none" fill="rgb(0, 0, 0)" d="M 33.85,17.12 C 34.07,16.48 34.25,15.83 34.35,15.16 34.41,14.82 34.5,14.47 34.42,14.12 34.35,13.78 34.2,13.38 33.84,13.17 L 33.78,13.21 33.68,14.18 C 33.65,14.48 33.73,14.8 33.75,15.12 33.78,15.77 33.78,16.44 33.77,17.1 L 33.85,17.12 Z M 33.85,17.12" />
        </g>
        <g id="ranaSideLeft5-group464">
            <path id="ranaSideLeft5-bezier463" stroke="none" fill="rgb(0, 0, 0)" d="M 30.65,21.34 C 31.29,20.46 31.81,19.48 32.13,18.4 32.3,17.87 32.45,17.31 32.4,16.73 32.34,16.15 32.15,15.57 31.76,15.14 L 31.69,15.16 C 31.69,15.74 31.69,16.23 31.65,16.74 31.61,17.24 31.63,17.75 31.55,18.27 31.37,19.29 31.04,20.32 30.58,21.3 L 30.65,21.34 Z M 30.65,21.34" />
        </g>
        <g id="ranaSideLeft5-group465">
            <path id="ranaSideLeft5-bezier464" stroke="none" fill="rgb(0, 0, 0)" d="M 27.49,20.31 C 28.2,19.97 28.86,19.54 29.45,19 29.75,18.73 30.07,18.45 30.24,18.05 30.39,17.66 30.47,17.18 30.26,16.78 L 30.19,16.78 C 29.97,17.15 29.79,17.41 29.58,17.69 29.37,17.96 29.22,18.29 29.01,18.59 28.56,19.18 28.03,19.73 27.45,20.25 L 27.49,20.31 Z M 27.49,20.31" />
        </g>
        <g id="ranaSideLeft5-group466">
            <path id="ranaSideLeft5-bezier465" stroke="none" fill="rgb(0, 0, 0)" d="M 24.41,23.36 C 24.62,22.41 24.92,21.47 25.32,20.62 25.54,20.19 25.81,19.82 26.03,19.43 26.25,19.03 26.49,18.67 26.82,18.27 L 26.79,18.2 C 26.25,18.25 25.76,18.59 25.42,18.99 25.07,19.4 24.91,19.91 24.76,20.4 24.46,21.37 24.33,22.37 24.33,23.36 L 24.41,23.36 Z M 24.41,23.36" />
        </g>
        <g id="ranaSideLeft5-group467">
            <path id="ranaSideLeft5-bezier466" stroke="none" fill="rgb(0, 0, 0)" d="M 83.83,21.35 C 84.96,20.54 86.03,19.66 87.04,18.7 87.55,18.22 88.08,17.75 88.48,17.16 88.86,16.57 89.22,15.9 89.26,15.16 L 89.19,15.14 C 88.77,15.71 88.33,16.19 87.88,16.7 87.44,17.2 87.05,17.76 86.61,18.28 85.71,19.32 84.76,20.32 83.78,21.29 L 83.83,21.35 Z M 83.83,21.35" />
        </g>
        <g id="ranaSideLeft5-group468">
            <path id="ranaSideLeft5-bezier467" stroke="none" fill="rgb(0, 0, 0)" d="M 94.29,24.07 C 94.93,23.65 95.63,23.34 96.32,23.11 96.68,23 97.05,22.96 97.38,22.82 97.72,22.68 98.06,22.55 98.43,22.31 L 98.42,22.24 C 98.02,22.07 97.6,22.04 97.2,22.1 96.79,22.15 96.43,22.36 96.09,22.55 95.38,22.93 94.75,23.42 94.24,24.02 L 94.29,24.07 Z M 94.29,24.07" />
        </g>
        <g id="ranaSideLeft5-group469">
            <path id="ranaSideLeft5-bezier468" stroke="none" fill="rgb(0, 0, 0)" d="M 95.97,29.56 C 97.53,29.22 99.11,28.92 100.68,28.67 101.47,28.56 102.27,28.51 103.04,28.39 103.82,28.27 104.58,28.12 105.38,28.14 L 105.4,28.07 C 104.66,27.64 103.77,27.63 102.97,27.64 102.14,27.67 101.35,27.89 100.57,28.08 99,28.46 97.46,28.94 95.94,29.49 L 95.97,29.56 Z M 95.97,29.56" />
        </g>
        <g id="ranaSideLeft5-group470">
            <path id="ranaSideLeft5-bezier469" stroke="none" fill="rgb(0, 0, 0)" d="M 101.45,34.19 C 102.56,34.54 103.69,34.84 104.84,35.06 105.41,35.18 105.98,35.32 106.58,35.31 107.17,35.29 107.79,35.21 108.34,34.9 L 108.32,34.82 106.62,34.56 C 106.06,34.48 105.49,34.5 104.92,34.46 103.77,34.38 102.62,34.26 101.47,34.12 L 101.45,34.19 Z M 101.45,34.19" />
        </g>
        <g id="ranaSideLeft5-group471">
            <path id="ranaSideLeft5-bezier470" stroke="none" fill="rgb(0, 0, 0)" d="M 67.96,37.21 C 69.16,37.98 70.43,38.63 71.77,39.17 72.43,39.44 73.11,39.73 73.83,39.84 74.55,39.94 75.3,39.97 76.02,39.77 L 76.02,39.7 C 75.32,39.48 74.66,39.3 73.99,39.11 73.33,38.91 72.64,38.79 71.96,38.6 70.62,38.21 69.29,37.72 68,37.14 L 67.96,37.21 Z M 67.96,37.21" />
        </g>
        <g id="ranaSideLeft5-group472">
            <path id="ranaSideLeft5-bezier471" stroke="none" fill="rgb(0, 0, 0)" d="M 73.91,17.89 C 75.25,17.36 76.61,16.85 77.97,16.4 78.66,16.19 79.35,16.03 80.02,15.8 80.69,15.57 81.34,15.33 82.05,15.19 L 82.06,15.11 C 81.33,14.84 80.54,14.94 79.82,15.08 79.09,15.22 78.42,15.55 77.76,15.84 76.42,16.43 75.13,17.09 73.88,17.83 L 73.91,17.89 Z M 73.91,17.89" />
        </g>
        <g id="ranaSideLeft5-group473">
            <path id="ranaSideLeft5-bezier472" stroke="none" fill="rgb(0, 0, 0)" d="M 80.32,27.13 C 82.07,26.85 83.81,26.52 85.54,26.13 86.41,25.93 87.29,25.77 88.13,25.45 88.54,25.29 88.96,25.12 89.36,24.9 89.75,24.68 90.17,24.45 90.46,24.07 L 90.41,24.02 C 89.61,24.35 88.74,24.5 87.9,24.74 87.05,24.96 86.23,25.28 85.39,25.55 83.7,26.07 82,26.57 80.3,27.05 L 80.32,27.13 Z M 80.32,27.13" />
        </g>
        <g id="ranaSideLeft5-group474">
            <path id="ranaSideLeft5-bezier473" stroke="none" fill="rgb(0, 0, 0)" d="M 86.53,28.9 L 90.15,28.05 C 90.75,27.92 91.37,27.85 91.95,27.66 92.54,27.5 93.1,27.26 93.7,27.13 L 93.71,27.05 C 93.4,26.89 93.06,26.88 92.74,26.87 92.42,26.85 92.1,26.89 91.79,26.93 91.16,27.02 90.57,27.26 89.99,27.47 88.8,27.87 87.65,28.33 86.5,28.82 L 86.53,28.9 Z M 86.53,28.9" />
        </g>
        <g id="ranaSideLeft5-group475">
            <path id="ranaSideLeft5-bezier474" stroke="none" fill="rgb(0, 0, 0)" d="M 91.23,34.19 C 91.84,34.12 92.42,33.97 93.01,33.83 93.59,33.67 94.17,33.49 94.75,33.3 95.32,33.11 95.92,32.94 96.44,32.61 96.71,32.44 96.96,32.26 97.19,32.03 97.41,31.81 97.64,31.54 97.72,31.21 L 97.65,31.18 C 97.17,31.52 96.63,31.7 96.09,31.94 95.56,32.17 95.06,32.48 94.52,32.75 93.99,33 93.44,33.25 92.89,33.47 92.34,33.71 91.79,33.95 91.22,34.12 L 91.23,34.19 Z M 91.23,34.19" />
        </g>
        <g id="ranaSideLeft5-group476">
            <path id="ranaSideLeft5-bezier475" stroke="none" fill="rgb(0, 0, 0)" d="M 97.7,38.49 C 98.82,37.98 99.96,37.51 101.1,37.08 101.67,36.88 102.26,36.74 102.81,36.51 103.36,36.29 103.89,36.05 104.49,35.9 L 104.5,35.82 C 103.88,35.56 103.19,35.66 102.58,35.8 101.96,35.94 101.41,36.25 100.86,36.54 99.75,37.09 98.69,37.73 97.67,38.42 L 97.7,38.49 Z M 97.7,38.49" />
        </g>
        <g id="ranaSideLeft5-group477">
            <path id="ranaSideLeft5-bezier476" stroke="none" fill="rgb(0, 0, 0)" d="M 102.31,39.73 C 103.22,39.9 104.14,40.02 105.07,40.07 105.54,40.11 106.01,40.17 106.48,40.08 106.93,39.97 107.47,39.84 107.79,39.39 L 107.75,39.33 C 107.28,39.38 106.86,39.32 106.41,39.33 105.96,39.33 105.52,39.43 105.06,39.47 104.15,39.55 103.23,39.61 102.31,39.66 L 102.31,39.73 Z M 102.31,39.73" />
        </g>
        <g id="ranaSideLeft5-group478">
            <path id="ranaSideLeft5-bezier477" stroke="none" fill="rgb(0, 0, 0)" d="M 85.36,36.48 C 86.91,36.83 88.46,37.15 90.02,37.42 90.79,37.57 91.57,37.75 92.37,37.78 93.16,37.8 93.97,37.81 94.77,37.56 L 94.76,37.49 C 93.98,37.33 93.22,37.15 92.44,37.03 91.67,36.9 90.88,36.89 90.09,36.83 L 85.38,36.41 85.36,36.48 Z M 85.36,36.48" />
        </g>
        <g id="ranaSideLeft5-group479">
            <path id="ranaSideLeft5-bezier478" stroke="none" fill="rgb(0, 0, 0)" d="M 73.88,34.59 C 74.31,34.92 74.67,35.43 75.05,35.86 75.44,36.31 75.83,36.75 76.23,37.18 76.63,37.62 77.02,38.08 77.54,38.41 77.79,38.57 78.06,38.73 78.36,38.84 78.65,38.94 78.99,39.03 79.31,38.94 L 79.31,38.86 C 78.79,38.6 78.42,38.19 77.99,37.82 77.58,37.43 77.09,37.11 76.64,36.74 76.2,36.37 75.76,35.99 75.32,35.6 74.85,35.24 74.46,34.8 73.9,34.52 L 73.88,34.59 Z M 73.88,34.59" />
        </g>
        <g id="ranaSideLeft5-group480">
            <path id="ranaSideLeft5-bezier479" stroke="none" fill="rgb(0, 0, 0)" d="M 79.89,33.56 C 81.39,33.41 82.86,33.2 84.34,33.03 85.08,32.95 85.82,32.92 86.55,32.79 87.27,32.67 87.99,32.46 88.71,32.43 L 88.74,32.36 C 88.39,32.13 87.98,32.1 87.6,32.06 87.22,32.02 86.84,32.03 86.46,32.04 85.7,32.08 84.97,32.27 84.24,32.43 L 82.05,32.93 79.89,33.49 79.89,33.56 Z M 79.89,33.56" />
        </g>
        <g id="ranaSideLeft5-group481">
            <path id="ranaSideLeft5-bezier480" stroke="none" fill="rgb(0, 0, 0)" d="M 77.99,30.64 C 78.82,30.3 79.65,29.97 80.47,29.67 80.89,29.53 81.32,29.44 81.71,29.25 82.1,29.08 82.45,28.86 82.88,28.72 L 82.9,28.64 C 82.44,28.36 81.91,28.46 81.47,28.54 81.01,28.65 80.62,28.9 80.23,29.12 79.43,29.56 78.68,30.05 77.96,30.58 L 77.99,30.64 Z M 77.99,30.64" />
        </g>
        <g id="ranaSideLeft5-group482">
            <path id="ranaSideLeft5-bezier481" stroke="none" fill="rgb(0, 0, 0)" d="M 77.99,25.06 C 78.96,24.76 79.94,24.49 80.91,24.26 81.4,24.16 81.9,24.12 82.37,24 82.84,23.88 83.28,23.73 83.79,23.73 L 83.82,23.66 C 83.39,23.25 82.76,23.23 82.25,23.25 81.71,23.29 81.23,23.5 80.74,23.69 79.77,24.05 78.85,24.49 77.96,24.99 L 77.99,25.06 Z M 77.99,25.06" />
        </g>
        <g id="ranaSideLeft5-group483">
            <path id="ranaSideLeft5-bezier482" stroke="none" fill="rgb(0, 0, 0)" d="M 73.92,22.81 C 74.79,22.18 75.68,21.57 76.59,21.02 77.04,20.75 77.53,20.53 77.95,20.25 78.39,19.99 78.78,19.67 79.3,19.56 L 79.32,19.49 C 79.06,19.31 78.72,19.31 78.44,19.35 78.14,19.39 77.87,19.48 77.61,19.59 77.08,19.81 76.66,20.18 76.24,20.53 75.39,21.21 74.6,21.96 73.87,22.75 L 73.92,22.81 Z M 73.92,22.81" />
        </g>
        <g id="ranaSideLeft5-group484">
            <path id="ranaSideLeft5-bezier483" stroke="none" fill="rgb(0, 0, 0)" d="M 64.58,20.31 C 65.75,19.66 66.9,18.96 68,18.19 68.56,17.81 69.14,17.45 69.61,16.95 69.85,16.7 70.08,16.44 70.27,16.15 70.46,15.86 70.65,15.53 70.68,15.16 L 70.61,15.14 C 70.16,15.63 69.62,15.98 69.11,16.4 68.59,16.8 68.13,17.28 67.63,17.71 66.62,18.57 65.59,19.42 64.54,20.25 L 64.58,20.31 Z M 64.58,20.31" />
        </g>
        <g id="ranaSideLeft5-group485">
            <path id="ranaSideLeft5-bezier484" stroke="none" fill="rgb(0, 0, 0)" d="M 34.85,25.84 C 36.24,25.3 37.63,24.8 39.04,24.35 39.75,24.14 40.47,23.98 41.16,23.75 41.85,23.54 42.52,23.28 43.26,23.2 L 43.28,23.12 C 42.54,22.79 41.71,22.9 40.97,23.03 40.22,23.17 39.53,23.49 38.84,23.79 37.45,24.37 36.11,25.04 34.81,25.77 L 34.85,25.84 Z M 34.85,25.84" />
        </g>
        <g id="ranaSideLeft5-group486">
            <path id="ranaSideLeft5-bezier485" stroke="none" fill="rgb(0, 0, 0)" d="M 32.74,23.39 C 33.84,22.84 34.91,22.23 35.94,21.56 36.46,21.22 37.01,20.91 37.45,20.46 37.67,20.23 37.89,20 38.06,19.72 38.23,19.45 38.41,19.14 38.39,18.78 L 38.31,18.77 C 37.95,19.23 37.42,19.53 36.96,19.9 36.48,20.25 36.05,20.68 35.59,21.07 34.65,21.84 33.68,22.59 32.71,23.33 L 32.74,23.39 Z M 32.74,23.39" />
        </g>
        <g id="ranaSideLeft5-group487">
            <path id="ranaSideLeft5-bezier486" stroke="none" fill="rgb(0, 0, 0)" d="M 40.49,21.17 L 44.1,19.52 C 44.7,19.26 45.33,19.04 45.9,18.73 46.48,18.42 47.02,18.07 47.61,17.75 L 47.6,17.68 C 46.88,17.6 46.22,17.83 45.59,18.04 44.96,18.28 44.4,18.65 43.83,18.98 42.68,19.65 41.55,20.36 40.46,21.1 L 40.49,21.17 Z M 40.49,21.17" />
        </g>
        <g id="ranaSideLeft5-group488">
            <path id="ranaSideLeft5-bezier487" stroke="none" fill="rgb(0, 0, 0)" d="M 48.41,21.81 C 49.48,21.22 50.51,20.58 51.51,19.88 52.01,19.53 52.53,19.2 52.95,18.74 53.36,18.28 53.76,17.76 53.92,17.13 L 53.86,17.09 52.44,18.19 C 51.98,18.56 51.58,19 51.13,19.41 50.24,20.21 49.31,20.98 48.37,21.75 L 48.41,21.81 Z M 48.41,21.81" />
        </g>
        <g id="ranaSideLeft5-group489">
            <path id="ranaSideLeft5-bezier488" stroke="none" fill="rgb(0, 0, 0)" d="M 42.28,26.81 C 43.54,26.31 44.8,25.82 46.06,25.36 46.69,25.14 47.34,24.98 47.95,24.72 48.57,24.49 49.15,24.15 49.79,24.08 L 49.82,24.01 C 49.49,23.8 49.1,23.82 48.75,23.83 48.4,23.85 48.05,23.93 47.72,24.01 47.05,24.18 46.44,24.51 45.83,24.81 44.6,25.4 43.41,26.05 42.25,26.75 L 42.28,26.81 Z M 42.28,26.81" />
        </g>
        <g id="ranaSideLeft5-group490">
            <path id="ranaSideLeft5-bezier489" stroke="none" fill="rgb(0, 0, 0)" d="M 43.82,29.66 C 44.23,29.78 44.58,29.66 44.95,29.63 45.31,29.58 45.67,29.51 46.03,29.45 46.75,29.3 47.47,29.12 48.18,28.93 48.89,28.75 49.61,28.58 50.28,28.25 50.62,28.08 50.95,27.91 51.25,27.68 51.55,27.45 51.9,27.21 52.01,26.79 L 51.94,26.76 C 51.4,27.17 50.66,27.3 50,27.56 49.32,27.78 48.67,28.1 47.99,28.36 47.32,28.62 46.63,28.86 45.94,29.08 45.6,29.2 45.25,29.31 44.9,29.41 44.57,29.5 44.17,29.64 43.88,29.61 L 43.82,29.66 Z M 43.82,29.66" />
        </g>
        <g id="ranaSideLeft5-group491">
            <path id="ranaSideLeft5-bezier490" stroke="none" fill="rgb(0, 0, 0)" d="M 50.38,30.65 C 51.58,31 52.78,31.36 53.96,31.74 54.55,31.93 55.12,32.18 55.72,32.32 56.32,32.47 56.91,32.57 57.54,32.71 L 57.58,32.64 C 57.13,32.14 56.53,31.85 55.95,31.61 55.36,31.37 54.73,31.28 54.11,31.16 52.88,30.91 51.64,30.72 50.4,30.57 L 50.38,30.65 Z M 50.38,30.65" />
        </g>
        <g id="ranaSideLeft5-group492">
            <path id="ranaSideLeft5-bezier491" stroke="none" fill="rgb(0, 0, 0)" d="M 48.41,26.29 C 49.71,25.84 51,25.35 52.27,24.78 52.9,24.51 53.56,24.26 54.14,23.86 54.42,23.66 54.71,23.45 54.97,23.19 55.22,22.94 55.49,22.67 55.59,22.29 L 55.52,22.26 C 54.99,22.67 54.35,22.9 53.76,23.21 53.15,23.51 52.59,23.9 52,24.25 50.8,24.92 49.59,25.58 48.38,26.22 L 48.41,26.29 Z M 48.41,26.29" />
        </g>
        <g id="ranaSideLeft5-group493">
            <path id="ranaSideLeft5-bezier492" stroke="none" fill="rgb(0, 0, 0)" d="M 52.95,21.1 C 54.18,20.64 55.43,20.2 56.67,19.81 57.3,19.62 57.94,19.5 58.54,19.29 59.15,19.1 59.73,18.84 60.38,18.81 L 60.4,18.74 C 60.11,18.53 59.72,18.48 59.38,18.47 59.03,18.46 58.69,18.5 58.35,18.56 57.68,18.68 57.07,18.98 56.46,19.25 55.24,19.77 54.06,20.37 52.92,21.03 L 52.95,21.1 Z M 52.95,21.1" />
        </g>
        <g id="ranaSideLeft5-group494">
            <path id="ranaSideLeft5-bezier493" stroke="none" fill="rgb(0, 0, 0)" d="M 56.68,25.42 C 57.93,25.06 59.16,24.65 60.38,24.15 60.99,23.91 61.61,23.69 62.17,23.31 62.44,23.12 62.71,22.92 62.95,22.67 63.19,22.43 63.43,22.15 63.51,21.79 L 63.44,21.76 C 62.95,22.16 62.36,22.38 61.79,22.67 61.22,22.94 60.69,23.3 60.12,23.61 58.99,24.21 57.82,24.79 56.65,25.35 L 56.68,25.42 Z M 56.68,25.42" />
        </g>
        <g id="ranaSideLeft5-group495">
            <path id="ranaSideLeft5-bezier494" stroke="none" fill="rgb(0, 0, 0)" d="M 68,22.8 C 68.69,22.19 69.4,21.61 70.13,21.08 70.5,20.82 70.9,20.62 71.24,20.35 71.59,20.08 71.9,19.82 72.31,19.56 L 72.3,19.49 C 71.8,19.34 71.27,19.51 70.84,19.72 70.4,19.93 70.07,20.29 69.74,20.62 69.07,21.28 68.48,21.99 67.95,22.75 L 68,22.8 Z M 68,22.8" />
        </g>
        <g id="ranaSideLeft5-group496">
            <path id="ranaSideLeft5-bezier495" stroke="none" fill="rgb(0, 0, 0)" d="M 58.9,27.13 C 60.16,26.99 61.41,26.81 62.66,26.57 63.28,26.45 63.92,26.37 64.52,26.13 65.11,25.88 65.73,25.6 66.16,25.06 L 66.12,25 C 65.51,25.17 64.9,25.26 64.3,25.41 63.69,25.55 63.11,25.79 62.51,25.99 61.31,26.35 60.1,26.71 58.88,27.05 L 58.9,27.13 Z M 58.9,27.13" />
        </g>
        <g id="ranaSideLeft5-group497">
            <path id="ranaSideLeft5-bezier496" stroke="none" fill="rgb(0, 0, 0)" d="M 69.07,28.72 C 70.24,28.4 71.41,28.1 72.57,27.81 73.16,27.68 73.76,27.59 74.32,27.41 74.89,27.23 75.43,27.01 76.01,26.82 L 76.02,26.74 C 75.39,26.53 74.75,26.6 74.14,26.68 73.53,26.78 72.97,27.02 72.4,27.24 71.26,27.66 70.14,28.13 69.05,28.65 L 69.07,28.72 Z M 69.07,28.72" />
        </g>
        <g id="ranaSideLeft5-group498">
            <path id="ranaSideLeft5-bezier497" stroke="none" fill="rgb(0, 0, 0)" d="M 66.72,32.15 C 67.42,32.24 68.12,32.13 68.8,32.06 69.49,31.96 70.17,31.83 70.85,31.69 71.53,31.55 72.22,31.44 72.87,31.17 73.5,30.88 74.17,30.57 74.64,29.98 L 74.59,29.92 C 73.94,30.15 73.28,30.27 72.62,30.45 71.97,30.63 71.35,30.9 70.7,31.11 70.05,31.32 69.39,31.52 68.73,31.69 68.07,31.86 67.4,32.06 66.73,32.08 L 66.72,32.15 Z M 66.72,32.15" />
        </g>
        <g id="ranaSideLeft5-group499">
            <path id="ranaSideLeft5-bezier498" stroke="none" fill="rgb(0, 0, 0)" d="M 60.41,31.23 C 61.52,30.76 62.63,30.27 63.72,29.76 64.27,29.51 64.84,29.29 65.34,28.96 65.84,28.62 66.34,28.25 66.74,27.76 L 66.71,27.7 C 66.09,27.84 65.53,28.05 64.98,28.3 64.43,28.55 63.94,28.91 63.43,29.23 62.41,29.86 61.39,30.5 60.37,31.16 L 60.41,31.23 Z M 60.41,31.23" />
        </g>
        <g id="ranaSideLeft5-group500">
            <path id="ranaSideLeft5-bezier499" stroke="none" fill="rgb(0, 0, 0)" d="M 14.43,33.55 C 14.69,32.14 14.9,30.71 15.03,29.27 15.11,28.56 15.21,27.83 15.15,27.1 15.12,26.74 15.07,26.37 14.97,26 14.86,25.66 14.78,25.24 14.42,25 L 14.37,25.06 C 14.55,25.69 14.4,26.42 14.4,27.12 14.37,27.82 14.43,28.53 14.43,29.25 14.43,30.67 14.4,32.11 14.35,33.54 L 14.43,33.55 Z M 14.43,33.55" />
        </g>
        <g id="ranaSideLeft5-group501">
            <path id="ranaSideLeft5-bezier500" stroke="none" fill="rgb(0, 0, 0)" d="M 17.97,32.69 C 18.42,31.64 18.82,30.59 19.17,29.51 19.35,28.97 19.57,28.43 19.63,27.86 19.66,27.57 19.68,27.28 19.66,26.98 19.63,26.69 19.6,26.37 19.43,26.1 L 19.36,26.12 C 19.24,26.67 19.04,27.18 18.89,27.71 18.74,28.24 18.69,28.8 18.59,29.36 18.37,30.46 18.14,31.56 17.9,32.66 L 17.97,32.69 Z M 17.97,32.69" />
        </g>
        <g id="ranaSideLeft5-group502">
            <path id="ranaSideLeft5-bezier501" stroke="none" fill="rgb(0, 0, 0)" d="M 17.97,28.49 C 17.85,27.21 17.66,25.92 17.36,24.65 17.22,24.02 17.09,23.37 16.79,22.77 16.48,22.2 16.09,21.55 15.41,21.29 L 15.37,21.35 C 15.73,21.89 15.88,22.47 16.1,23.06 16.29,23.65 16.57,24.22 16.78,24.82 17.2,26.03 17.56,27.26 17.9,28.51 L 17.97,28.49 Z M 17.97,28.49" />
        </g>
        <g id="ranaSideLeft5-group503">
            <path id="ranaSideLeft5-bezier502" stroke="none" fill="rgb(0, 0, 0)" d="M 20.74,26.27 C 21.14,25.05 21.49,23.82 21.75,22.55 21.89,21.93 22.05,21.29 22.04,20.63 22.03,20.3 22.01,19.97 21.92,19.63 21.83,19.32 21.73,18.92 21.37,18.75 L 21.33,18.81 C 21.54,19.35 21.34,19.98 21.29,20.59 21.21,21.2 21.21,21.83 21.16,22.46 21.03,23.72 20.86,24.98 20.67,26.25 L 20.74,26.27 Z M 20.74,26.27" />
        </g>
        <g id="ranaSideLeft5-group504">
            <path id="ranaSideLeft5-bezier503" stroke="none" fill="rgb(0, 0, 0)" d="M 24.38,48.98 C 26.67,48.71 28.99,48.55 31.3,48.54 33.61,48.52 35.9,48.66 38.15,49.18 40.43,49.61 42.71,50.05 45.01,50.33 46.17,50.45 47.32,50.58 48.48,50.66 49.64,50.71 50.81,50.84 51.98,50.64 L 51.97,50.57 C 51.4,50.58 50.82,50.48 50.25,50.4 L 48.54,50.14 45.12,49.58 C 42.84,49.21 40.54,48.94 38.25,48.58 35.97,48.14 33.6,48.06 31.28,48.17 28.96,48.28 26.65,48.53 24.36,48.91 L 24.38,48.98 Z M 24.38,48.98" />
        </g>
        <g id="ranaSideLeft5-group505">
            <path id="ranaSideLeft5-bezier504" stroke="none" fill="rgb(0, 0, 0)" d="M 53.63,50.71 C 54.64,50.9 55.64,51.11 56.63,51.35 57.12,51.48 57.59,51.66 58.09,51.73 58.59,51.81 59.07,51.86 59.62,51.9 L 59.65,51.83 C 59.27,51.42 58.76,51.19 58.27,51.01 57.77,50.83 57.24,50.81 56.73,50.76 55.7,50.65 54.66,50.61 53.63,50.63 L 53.63,50.71 Z M 53.63,50.71" />
        </g>
        <g id="ranaSideLeft5-group506">
            <path id="ranaSideLeft5-bezier505" stroke="none" fill="rgb(0, 0, 0)" d="M 61.94,52.21 C 63.81,52.43 65.7,52.52 67.59,52.36 68.06,52.32 68.53,52.26 69,52.18 69.47,52.1 69.92,51.94 70.37,51.91 71.29,51.82 72.23,51.83 73.17,51.85 76.92,51.94 80.68,52.21 84.43,52.41 88.19,52.61 91.96,52.87 95.75,52.66 96.7,52.59 97.65,52.5 98.6,52.29 L 101.32,51.51 C 102.22,51.26 103.13,51.03 104.05,50.86 104.96,50.7 105.9,50.52 106.82,50.68 L 106.84,50.6 C 105.91,50.35 104.94,50.44 104,50.52 103.06,50.64 102.13,50.81 101.2,51 100.28,51.18 99.34,51.46 98.47,51.66 97.57,51.82 96.64,51.88 95.71,51.91 91.98,52.02 88.22,51.93 84.46,51.81 80.7,51.69 76.95,51.49 73.17,51.48 72.23,51.48 71.29,51.49 70.34,51.61 69.84,51.66 69.4,51.84 68.95,51.92 68.49,52.02 68.03,52.09 67.57,52.14 65.71,52.34 63.82,52.31 61.95,52.14 L 61.94,52.21 Z M 61.94,52.21" />
        </g>
        <g id="ranaSideLeft5-group507">
            <path id="ranaSideLeft5-bezier506" stroke="none" fill="rgb(0, 0, 0)" d="M 112.52,57.58 C 112.2,57.73 111.89,57.93 111.62,58.18 111.48,58.3 111.31,58.42 111.26,58.63 111.22,58.82 111.22,59.09 111.43,59.28 L 111.5,59.28 C 111.71,59.13 111.83,59.06 111.94,58.95 112.04,58.86 112.04,58.69 112.11,58.54 112.24,58.25 112.4,57.94 112.57,57.64 L 112.52,57.58 Z M 112.52,57.58" />
        </g>
        <g id="ranaSideLeft5-group508">
            <path id="ranaSideLeft5-bezier507" stroke="none" fill="rgb(0, 0, 0)" d="M 110.62,57.41 C 110.3,57.55 110.02,57.77 109.8,58.06 109.68,58.2 109.54,58.35 109.54,58.55 109.54,58.74 109.6,58.95 109.8,59.11 L 109.88,59.11 C 110.09,58.96 110.18,58.85 110.27,58.73 110.34,58.62 110.31,58.47 110.34,58.33 110.4,58.05 110.51,57.76 110.67,57.47 L 110.62,57.41 Z M 110.62,57.41" />
        </g>
        <g id="ranaSideLeft5-group509">
            <path id="ranaSideLeft5-bezier508" stroke="none" fill="rgb(0, 0, 0)" d="M 108.89,57.95 C 108.53,57.86 108.14,57.85 107.74,58 107.55,58.07 107.3,58.17 107.2,58.41 107.11,58.65 107.15,58.93 107.34,59.11 L 107.42,59.11 C 107.63,58.94 107.74,58.87 107.84,58.81 107.93,58.76 107.94,58.63 108.05,58.52 108.25,58.32 108.56,58.15 108.89,58.02 L 108.89,57.95 Z M 108.89,57.95" />
        </g>
        <g id="ranaSideLeft5-group510">
            <path id="ranaSideLeft5-bezier509" stroke="none" fill="rgb(0, 0, 0)" d="M 112.54,59.15 C 112.97,59.25 113.57,59.21 113.84,58.72 113.97,58.49 113.98,58.23 114.01,58.01 114.04,57.79 114.08,57.56 114.1,57.33 114.2,56.42 114.02,55.34 113.3,54.6 112.65,54.01 112.42,53.19 112.07,52.37 111.73,51.55 111.43,50.7 111.05,49.85 L 110.98,49.87 C 110.95,50.8 111.1,51.72 111.36,52.62 111.5,53.06 111.67,53.51 111.92,53.92 112.05,54.13 112.19,54.33 112.35,54.53 112.51,54.73 112.74,54.91 112.88,55.02 113.5,55.57 113.74,56.43 113.72,57.31 113.71,57.74 113.75,58.26 113.64,58.62 113.49,59 112.99,59.13 112.56,59.07 L 112.54,59.15 Z M 112.54,59.15" />
        </g>
        <g id="ranaSideLeft5-group511">
            <path id="ranaSideLeft5-bezier510" stroke="none" fill="rgb(0, 0, 0)" d="M 109.87,56.59 C 109.41,55.71 108.99,54.82 108.6,53.92 108.42,53.47 108.29,53 108.08,52.57 L 107.42,51.27 107.34,51.27 C 107.17,51.79 107.25,52.34 107.38,52.83 107.51,53.33 107.8,53.76 108.07,54.19 108.58,55.05 109.17,55.87 109.81,56.63 L 109.87,56.59 Z M 109.87,56.59" />
        </g>
        <g id="ranaSideLeft5-group512">
            <path id="ranaSideLeft5-bezier511" stroke="none" fill="rgb(0, 0, 0)" d="M 86.95,53.33 L 84.01,55.87 C 83.52,56.28 83,56.66 82.55,57.12 82.1,57.56 81.7,58.09 81.25,58.51 L 81.26,58.58 C 81.64,58.57 81.93,58.38 82.23,58.23 82.52,58.07 82.79,57.88 83.05,57.68 83.57,57.28 83.99,56.78 84.43,56.3 85.32,55.36 86.17,54.38 87,53.39 L 86.95,53.33 Z M 86.95,53.33" />
        </g>
        <g id="ranaSideLeft5-group513">
            <path id="ranaSideLeft5-bezier512" stroke="none" fill="rgb(0, 0, 0)" d="M 80.47,57.61 C 80.45,58.12 80.24,58.64 79.84,58.86 79.46,59.1 78.98,59.01 78.44,58.98 77.91,58.94 77.39,58.85 76.87,58.9 76.35,58.95 75.82,59.03 75.3,59.24 L 75.3,59.31 C 75.82,59.52 76.35,59.6 76.87,59.65 77.39,59.7 77.91,59.62 78.44,59.58 78.92,59.53 79.57,59.57 80.06,59.16 80.54,58.75 80.62,58.12 80.54,57.61 L 80.47,57.61 Z M 80.47,57.61" />
        </g>
        <g id="ranaSideLeft5-group514">
            <path id="ranaSideLeft5-bezier513" stroke="none" fill="rgb(0, 0, 0)" d="M 75.12,57.95 C 74.68,57.95 74.24,58.01 73.81,58.14 73.59,58.21 73.33,58.25 73.16,58.46 73,58.64 72.84,59.02 73.05,59.28 L 73.13,59.28 C 73.35,59.1 73.49,59.12 73.64,59.03 73.8,58.97 73.91,58.81 74.07,58.68 74.4,58.45 74.77,58.23 75.14,58.02 L 75.12,57.95 Z M 75.12,57.95" />
        </g>
        <g id="ranaSideLeft5-group515">
            <path id="ranaSideLeft5-bezier514" stroke="none" fill="rgb(0, 0, 0)" d="M 75.69,57.48 C 76.37,57.31 77.09,57.21 77.75,57.31 77.83,57.32 77.91,57.33 77.98,57.36 78,57.38 78.25,57.44 78.38,57.35 78.58,57.26 78.72,57.15 78.87,57.04 79.17,56.83 79.44,56.59 79.72,56.36 80.26,55.88 80.81,55.41 81.24,54.81 81.45,54.52 81.65,54.21 81.81,53.87 81.96,53.54 82.12,53.18 82.09,52.78 L 82.02,52.77 C 81.64,53.36 81.12,53.82 80.66,54.34 80.18,54.84 79.77,55.41 79.3,55.93 79.06,56.18 78.82,56.43 78.56,56.67 78.44,56.78 78.3,56.9 78.19,56.96 78.25,57.03 77.96,56.93 77.78,56.93 77.02,56.93 76.33,57.15 75.66,57.41 L 75.69,57.48 Z M 75.69,57.48" />
        </g>
        <g id="ranaSideLeft5-group516">
            <path id="ranaSideLeft5-bezier515" stroke="none" fill="rgb(0, 0, 0)" d="M 58.89,52.76 C 58.28,53.8 57.64,54.82 56.97,55.8 56.62,56.28 56.23,56.72 55.91,57.2 55.58,57.69 55.3,58.17 54.87,58.6 L 54.9,58.67 C 55.56,58.58 56.08,58.11 56.5,57.67 56.93,57.21 57.2,56.65 57.48,56.11 58.06,55.04 58.54,53.93 58.96,52.79 L 58.89,52.76 Z M 58.89,52.76" />
        </g>
        <g id="ranaSideLeft5-group517">
            <path id="ranaSideLeft5-bezier516" stroke="none" fill="rgb(0, 0, 0)" d="M 54.6,57.06 C 54.38,57.48 54.15,57.89 53.9,58.28 53.65,58.67 53.38,59.07 53.08,59.37 52.78,59.65 52.47,59.66 52.05,59.7 51.63,59.75 51.11,59.74 50.63,59.95 L 50.63,60.02 C 51.1,60.23 51.52,60.39 52.04,60.45 52.56,60.54 53.24,60.23 53.54,59.76 53.85,59.33 54.04,58.9 54.23,58.45 54.4,58 54.55,57.54 54.67,57.08 L 54.6,57.06 Z M 54.6,57.06" />
        </g>
        <g id="ranaSideLeft5-group518">
            <path id="ranaSideLeft5-bezier517" stroke="none" fill="rgb(0, 0, 0)" d="M 50.12,58.86 C 49.75,58.83 49.37,58.86 48.99,59 48.8,59.06 48.55,59.13 48.44,59.36 48.32,59.57 48.3,59.89 48.51,60.08 L 48.58,60.08 C 48.8,59.91 48.92,59.89 49.02,59.83 49.12,59.77 49.17,59.63 49.29,59.52 49.52,59.31 49.82,59.11 50.14,58.94 L 50.12,58.86 Z M 50.12,58.86" />
        </g>
        <g id="ranaSideLeft5-group519">
            <path id="ranaSideLeft5-bezier518" stroke="none" fill="rgb(0, 0, 0)" d="M 47.95,58.87 C 47.63,58.88 47.31,58.94 47,59.1 46.85,59.18 46.65,59.25 46.58,59.46 46.51,59.65 46.51,59.92 46.72,60.08 L 46.79,60.08 C 47.01,59.94 47.11,59.92 47.21,59.87 47.29,59.82 47.31,59.68 47.38,59.57 47.54,59.36 47.75,59.14 47.98,58.94 L 47.95,58.87 Z M 47.95,58.87" />
        </g>
        <g id="ranaSideLeft5-group520">
            <path id="ranaSideLeft5-bezier519" stroke="none" fill="rgb(0, 0, 0)" d="M 48.27,58.02 C 48.64,57.85 49.04,57.73 49.43,57.7 49.62,57.69 49.82,57.7 50,57.74 50.08,57.76 50.21,57.79 50.31,57.8 50.44,57.8 50.57,57.79 50.67,57.77 51.55,57.54 52.23,56.99 52.82,56.35 53.11,56.04 53.39,55.64 53.5,55.16 53.61,54.72 53.64,54.3 53.65,53.89 53.67,53.06 53.55,52.27 53.66,51.46 L 53.59,51.43 C 53.32,51.77 53.2,52.21 53.1,52.61 53,53.03 52.95,53.44 52.9,53.84 52.86,54.24 52.83,54.64 52.78,55.01 52.75,55.34 52.58,55.67 52.36,55.98 51.9,56.58 51.28,57.16 50.58,57.41 50.32,57.55 49.81,57.35 49.4,57.48 48.98,57.57 48.59,57.74 48.24,57.96 L 48.27,58.02 Z M 48.27,58.02" />
        </g>
        <g id="ranaSideLeft5-group521">
            <path id="ranaSideLeft5-bezier520" stroke="none" fill="rgb(0, 0, 0)" d="M 38.39,56.29 C 38.4,56.68 38.46,57.08 38.61,57.47 38.68,57.67 38.75,57.9 38.97,58.04 39.17,58.16 39.51,58.24 39.73,58.02 L 39.73,57.95 C 39.56,57.73 39.55,57.61 39.47,57.48 39.41,57.36 39.25,57.29 39.13,57.16 38.9,56.9 38.67,56.59 38.46,56.27 L 38.39,56.29 Z M 38.39,56.29" />
        </g>
        <g id="ranaSideLeft5-group522">
            <path id="ranaSideLeft5-bezier521" stroke="none" fill="rgb(0, 0, 0)" d="M 39.04,55.33 C 39.1,55.71 39.21,56.07 39.44,56.41 39.54,56.58 39.66,56.8 39.91,56.86 40.14,56.93 40.45,56.89 40.6,56.65 L 40.58,56.57 C 40.38,56.39 40.33,56.28 40.24,56.19 40.17,56.1 40.01,56.08 39.87,56 39.61,55.82 39.35,55.57 39.11,55.3 L 39.04,55.33 Z M 39.04,55.33" />
        </g>
        <g id="ranaSideLeft5-group523">
            <path id="ranaSideLeft5-bezier522" stroke="none" fill="rgb(0, 0, 0)" d="M 40.37,55.34 C 40.67,54.97 40.92,54.55 41.05,54.06 41.1,53.81 41.11,53.54 41.05,53.27 40.99,53.02 40.96,52.84 40.96,52.63 40.95,52.2 41.1,51.81 41.2,51.44 41.31,51.06 41.5,50.71 41.8,50.31 L 41.77,50.24 C 41.25,50.28 40.77,50.66 40.51,51.14 40.25,51.62 40.26,52.19 40.36,52.69 40.4,52.94 40.5,53.21 40.58,53.41 40.66,53.59 40.69,53.79 40.67,54.01 40.66,54.44 40.52,54.89 40.31,55.3 L 40.37,55.34 Z M 40.37,55.34" />
        </g>
        <g id="ranaSideLeft5-group524">
            <path id="ranaSideLeft5-bezier523" stroke="none" fill="rgb(0, 0, 0)" d="M 38.04,55.69 C 37.97,55.2 37.93,54.71 37.91,54.22 37.89,53.73 37.89,53.24 37.98,52.81 38.01,52.7 38.05,52.6 38.09,52.53 38.15,52.4 38.2,52.32 38.26,52.14 38.35,51.84 38.35,51.56 38.32,51.29 38.24,50.75 38.04,50.26 37.69,49.84 L 37.62,49.87 C 37.58,50.4 37.6,50.88 37.57,51.33 37.57,51.55 37.55,51.78 37.54,51.96 37.54,52.03 37.5,52.17 37.47,52.28 37.42,52.43 37.4,52.58 37.39,52.72 37.35,53.27 37.44,53.77 37.54,54.27 37.66,54.76 37.8,55.24 37.97,55.71 L 38.04,55.69 Z M 38.04,55.69" />
        </g>
        <g id="ranaSideLeft5-group525">
            <path id="ranaSideLeft5-bezier524" stroke="none" fill="rgb(0, 0, 0)" d="M 32.01,31.68 C 33.05,32.15 34.07,32.67 35.04,33.23 35.53,33.52 35.98,33.86 36.46,34.12 36.96,34.38 37.44,34.63 37.98,34.89 L 38.03,34.83 C 37.78,34.28 37.33,33.85 36.87,33.49 36.4,33.13 35.85,32.92 35.31,32.69 34.25,32.24 33.15,31.88 32.04,31.61 L 32.01,31.68 Z M 32.01,31.68" />
        </g>
        <g id="ranaSideLeft5-group526">
            <path id="ranaSideLeft5-bezier525" stroke="none" fill="rgb(0, 0, 0)" d="M 30.26,27.75 C 30.84,27.02 31.46,26.33 32.11,25.69 32.44,25.38 32.81,25.12 33.11,24.82 33.43,24.52 33.7,24.23 34.14,24.03 L 34.14,23.96 C 33.64,23.73 33.06,23.98 32.65,24.23 32.23,24.5 31.94,24.91 31.66,25.29 31.08,26.05 30.6,26.86 30.19,27.71 L 30.26,27.75 Z M 30.26,27.75" />
        </g>
        <g id="ranaSideLeft5-group527">
            <path id="ranaSideLeft5-bezier526" stroke="none" fill="rgb(0, 0, 0)" d="M 26.16,25.41 C 26.81,24.93 27.4,24.36 27.91,23.7 28.17,23.38 28.45,23.04 28.57,22.62 28.69,22.21 28.73,21.74 28.54,21.32 L 28.47,21.32 27.88,22.34 C 27.69,22.66 27.58,23.03 27.41,23.37 27.04,24.06 26.6,24.73 26.11,25.36 L 26.16,25.41 Z M 26.16,25.41" />
        </g>
        <g id="ranaSideLeft5-group">
            <g id="ranaSideLeft5-group528">
                <path id="ranaSideLeft5-bezier527" stroke="none" fill="rgb(0, 0, 0)" d="M 20.71,33.18 C 21.14,33.14 21.56,33.09 21.98,33.07 22.19,33.07 22.41,33.06 22.61,33.08 22.71,33.09 22.81,33.11 22.89,33.13 22.98,33.16 23.01,33.22 22.98,33.18 22.99,33.17 22.95,33.25 22.89,33.31 22.82,33.39 22.75,33.43 22.65,33.56 22.63,33.58 22.59,33.66 22.58,33.74 22.6,33.98 22.77,34.01 22.83,34.02 22.94,34.03 23,34.01 23.06,34.01 23.18,33.99 23.29,33.96 23.39,33.93 23.82,33.83 24.22,33.71 24.62,33.63 24.82,33.59 25.02,33.56 25.2,33.56 25.39,33.54 25.5,33.65 25.4,33.57 25.4,33.52 25.36,33.73 25.28,33.88 L 24.99,34.44 C 24.89,34.66 24.81,34.87 24.76,35.12 24.73,35.36 24.7,35.67 24.89,35.96 25.08,36.24 25.4,36.3 25.63,36.3 25.75,36.29 25.87,36.27 25.98,36.24 L 26.14,36.19 26.18,36.18 26.2,36.17 26.21,36.17 C 26.21,36.15 26.23,36.2 26.15,36.13 26.15,36.03 26.18,36.08 26.17,36.06 26.19,36.06 26.14,36.09 26.12,36.1 L 26.14,36.17 C 26.18,36.16 26.18,36.17 26.24,36.15 26.24,36.14 26.26,36.18 26.26,36.08 26.18,36.02 26.2,36.06 26.2,36.05 L 26.18,36.05 26.16,36.05 26.12,36.04 25.97,36.02 C 25.86,36.01 25.77,35.99 25.68,35.96 25.49,35.91 25.36,35.8 25.34,35.7 25.29,35.5 25.46,35.1 25.66,34.78 L 25.98,34.22 C 26.06,33.98 26.23,33.76 26.09,33.29 26,33.06 25.74,32.92 25.59,32.9 25.42,32.87 25.29,32.88 25.16,32.89 24.91,32.92 24.69,32.98 24.48,33.04 24.05,33.17 23.65,33.33 23.25,33.47 23.16,33.5 23.06,33.53 22.97,33.56 22.93,33.57 22.88,33.57 22.88,33.58 22.89,33.58 23,33.59 23.02,33.76 23.02,33.79 22.99,33.82 23.01,33.8 23.07,33.66 23.34,33.56 23.35,33.13 23.29,32.87 23.08,32.83 22.97,32.81 22.85,32.78 22.73,32.78 22.62,32.79 22.39,32.79 22.18,32.82 21.96,32.85 21.53,32.92 21.11,33.02 20.7,33.11 L 20.71,33.18 Z M 20.71,33.18" />
            </g>
        </g>
    </g>
</svg>
