<?xml version="1.0" encoding="UTF-8"?>
<!DOCTYPE svg PUBLIC "-//W3C//DTD SVG 1.1//EN" "http://www.w3.org/Graphics/SVG/1.1/DTD/svg11.dtd">
<svg version="1.1" xmlns="http://www.w3.org/2000/svg" xmlns:xlink="http://www.w3.org/1999/xlink" width="80" height="60"  xml:space="preserve" id="ranaCurledTop">
    <!-- Generated by PaintCode - http://www.paintcodeapp.com -->
    <g id="ranaCurledTop-group">
        <g id="ranaCurledTop-group663">
            <path id="ranaCurledTop-bezier661" stroke="none" fill="rgb(0, 0, 0)" d="M 24.07,37.18 C 23.85,36.95 23.48,37.12 23.24,37.27 22.98,37.44 22.76,37.64 22.55,37.86 22.34,38.07 22.15,38.3 22.01,38.56 21.86,38.78 21.83,39.15 21.88,39.1 21.86,39.1 22.18,39.08 22.39,38.93 22.62,38.79 22.85,38.63 23.08,38.46 23.31,38.27 23.55,38.13 23.77,37.92 23.97,37.73 24.22,37.44 24.07,37.18 Z M 24.12,37.13 C 24.34,37.43 24.21,37.82 24.11,38.14 24,38.46 23.81,38.78 23.57,39.02 23.32,39.26 23.04,39.46 22.7,39.6 22.53,39.66 22.35,39.72 22.15,39.74 22.04,39.75 21.93,39.75 21.81,39.72 21.7,39.71 21.49,39.59 21.43,39.5 21.22,39.22 21.29,38.95 21.35,38.78 21.41,38.59 21.5,38.44 21.6,38.3 21.8,38.02 22.05,37.78 22.3,37.58 22.57,37.38 22.86,37.22 23.17,37.12 23.47,37.03 23.84,36.91 24.12,37.13 Z M 24.12,37.13" />
        </g>
        <g id="ranaCurledTop-group664">
            <path id="ranaCurledTop-bezier662" stroke="none" fill="rgb(0, 0, 0)" d="M 24.12,29.28 C 23.84,29.5 23.47,29.37 23.17,29.29 22.86,29.19 22.57,29.03 22.3,28.83 22.05,28.63 21.8,28.39 21.6,28.11 21.5,27.97 21.41,27.82 21.35,27.63 21.29,27.45 21.23,27.19 21.43,26.91 21.49,26.82 21.7,26.7 21.81,26.69 21.93,26.66 22.04,26.66 22.15,26.67 22.35,26.69 22.53,26.74 22.7,26.81 23.04,26.95 23.32,27.15 23.57,27.39 23.81,27.63 24,27.95 24.11,28.27 24.21,28.59 24.34,28.98 24.12,29.28 Z M 24.07,29.23 C 24.22,28.97 23.97,28.68 23.77,28.49 23.55,28.28 23.31,28.13 23.08,27.95 22.85,27.78 22.62,27.62 22.39,27.48 22.18,27.33 21.86,27.3 21.88,27.3 21.83,27.26 21.86,27.63 22.01,27.85 22.15,28.1 22.34,28.33 22.55,28.55 22.76,28.77 22.98,28.97 23.24,29.14 23.48,29.29 23.85,29.45 24.07,29.23 Z M 24.07,29.23" />
        </g>
        <g id="ranaCurledTop-group750">
            <path id="ranaCurledTop-bezier748" stroke="none" fill="rgb(0, 0, 0)" d="M 51.46,42.15 C 51.34,42.86 51.24,43.58 51.18,44.28 51.17,44.63 51.21,44.98 51.16,45.3 51.13,45.63 51.05,45.92 51.09,46.3 L 51.03,46.35 C 50.61,46.17 50.46,45.68 50.41,45.3 50.36,44.91 50.49,44.53 50.59,44.18 50.79,43.45 51.06,42.77 51.4,42.12 L 51.46,42.15 Z M 51.46,42.15" />
        </g>
        <g id="ranaCurledTop-group751">
            <path id="ranaCurledTop-bezier749" stroke="none" fill="rgb(0, 0, 0)" d="M 49.07,48.95 C 48.74,48.55 48.35,48.2 47.94,47.98 47.72,47.88 47.51,47.87 47.33,47.79 47.14,47.69 46.95,47.61 46.65,47.48 L 46.63,47.41 C 46.83,47.14 47.16,47.03 47.49,47.05 47.82,47.07 48.08,47.3 48.29,47.5 48.72,47.9 48.99,48.39 49.14,48.91 L 49.07,48.95 Z M 49.07,48.95" />
        </g>
        <g id="ranaCurledTop-group752">
            <path id="ranaCurledTop-bezier750" stroke="none" fill="rgb(0, 0, 0)" d="M 43.88,49.29 C 43.81,48.46 43.84,47.63 44,46.8 44.08,46.38 44.16,45.93 44.47,45.55 44.74,45.19 45.35,44.87 45.79,45.14 L 45.78,45.22 C 45.38,45.41 45.25,45.67 45.09,45.98 44.94,46.28 44.73,46.6 44.58,46.96 44.3,47.7 44.1,48.49 43.95,49.29 L 43.88,49.29 Z M 43.88,49.29" />
        </g>
        <g id="ranaCurledTop-group753">
            <path id="ranaCurledTop-bezier751" stroke="none" fill="rgb(0, 0, 0)" d="M 60.69,45.19 C 60.57,45.91 60.47,46.62 60.41,47.32 60.39,47.68 60.44,48.02 60.39,48.35 60.35,48.68 60.27,48.96 60.32,49.35 L 60.26,49.4 C 59.84,49.21 59.69,48.73 59.64,48.35 59.59,47.95 59.72,47.58 59.82,47.22 60.01,46.5 60.29,45.82 60.62,45.17 L 60.69,45.19 Z M 60.69,45.19" />
        </g>
        <g id="ranaCurledTop-group754">
            <path id="ranaCurledTop-bezier752" stroke="none" fill="rgb(0, 0, 0)" d="M 58.3,51.99 C 57.97,51.59 57.57,51.25 57.17,51.03 56.95,50.93 56.74,50.92 56.56,50.83 56.37,50.74 56.17,50.66 55.87,50.53 L 55.85,50.46 C 56.05,50.19 56.39,50.08 56.71,50.1 57.05,50.12 57.31,50.34 57.52,50.55 57.95,50.95 58.21,51.44 58.37,51.96 L 58.3,51.99 Z M 58.3,51.99" />
        </g>
        <g id="ranaCurledTop-group755">
            <path id="ranaCurledTop-bezier753" stroke="none" fill="rgb(0, 0, 0)" d="M 53.1,52.34 C 53.04,51.51 53.06,50.68 53.23,49.84 53.31,49.43 53.39,48.97 53.7,48.6 53.97,48.24 54.58,47.92 55.02,48.19 L 55.01,48.26 C 54.6,48.45 54.48,48.72 54.32,49.02 54.17,49.33 53.96,49.65 53.81,50.01 53.53,50.74 53.33,51.54 53.18,52.34 L 53.1,52.34 Z M 53.1,52.34" />
        </g>
        <g id="ranaCurledTop-group756">
            <path id="ranaCurledTop-bezier754" stroke="none" fill="rgb(0, 0, 0)" d="M 43.36,45.06 C 43.09,44.69 42.85,44.31 42.63,43.92 42.51,43.73 42.35,43.55 42.32,43.33 42.29,43.1 42.28,42.87 42.39,42.59 L 42.46,42.56 C 42.73,42.69 42.89,42.87 43.02,43.06 43.14,43.24 43.15,43.48 43.19,43.7 43.29,44.14 43.37,44.58 43.42,45.04 L 43.36,45.06 Z M 43.36,45.06" />
        </g>
        <g id="ranaCurledTop-group757">
            <path id="ranaCurledTop-bezier755" stroke="none" fill="rgb(0, 0, 0)" d="M 45.8,39.67 C 46.44,39.74 47.09,39.95 47.63,40.42 47.9,40.65 48.18,40.96 48.23,41.35 48.28,41.73 48.17,42.12 47.91,42.39 L 47.84,42.37 C 47.69,42.02 47.62,41.76 47.5,41.53 47.4,41.31 47.35,41.06 47.19,40.83 46.87,40.38 46.34,40.01 45.78,39.74 L 45.8,39.67 Z M 45.8,39.67" />
        </g>
        <g id="ranaCurledTop-group758">
            <path id="ranaCurledTop-bezier756" stroke="none" fill="rgb(0, 0, 0)" d="M 52.72,39.7 C 52.77,38.95 52.77,38.19 52.66,37.49 52.6,37.14 52.45,36.83 52.36,36.57 52.26,36.31 52.13,36.09 51.76,35.87 L 51.76,35.79 C 52.15,35.57 52.75,35.78 53.01,36.19 53.29,36.6 53.27,37.05 53.26,37.44 53.24,38.25 53.05,39 52.79,39.72 L 52.72,39.7 Z M 52.72,39.7" />
        </g>
        <g id="ranaCurledTop-group759">
            <path id="ranaCurledTop-bezier757" stroke="none" fill="rgb(0, 0, 0)" d="M 51.11,37.14 C 50.24,37.39 49.35,37.58 48.45,37.7 47.99,37.77 47.53,37.86 47.06,37.79 46.61,37.71 46.08,37.57 45.76,37.14 L 45.81,37.07 C 46.27,37.12 46.67,37.05 47.1,37.04 47.53,37.02 47.97,37.09 48.41,37.11 49.3,37.12 50.2,37.1 51.1,37.07 L 51.11,37.14 Z M 51.11,37.14" />
        </g>
        <g id="ranaCurledTop-group760">
            <path id="ranaCurledTop-bezier758" stroke="none" fill="rgb(0, 0, 0)" d="M 64.73,29.95 C 64.6,30.67 64.5,31.38 64.45,32.08 64.43,32.44 64.47,32.78 64.43,33.11 64.39,33.44 64.31,33.72 64.35,34.11 L 64.3,34.16 C 63.87,33.97 63.73,33.48 63.68,33.11 63.63,32.71 63.76,32.34 63.86,31.98 64.05,31.26 64.33,30.58 64.66,29.93 L 64.73,29.95 Z M 64.73,29.95" />
        </g>
        <g id="ranaCurledTop-group761">
            <path id="ranaCurledTop-bezier759" stroke="none" fill="rgb(0, 0, 0)" d="M 62.34,36.75 C 62,36.35 61.61,36.01 61.2,35.79 60.99,35.69 60.77,35.68 60.59,35.59 60.41,35.5 60.21,35.42 59.91,35.29 L 59.89,35.22 C 60.09,34.95 60.43,34.84 60.75,34.86 61.08,34.88 61.34,35.1 61.55,35.3 61.99,35.71 62.25,36.2 62.4,36.72 L 62.34,36.75 Z M 62.34,36.75" />
        </g>
        <g id="ranaCurledTop-group762">
            <path id="ranaCurledTop-bezier760" stroke="none" fill="rgb(0, 0, 0)" d="M 57.14,37.09 C 57.08,36.27 57.1,35.44 57.27,34.6 57.35,34.19 57.43,33.73 57.73,33.36 58.01,33 58.62,32.68 59.05,32.95 L 59.05,33.02 C 58.64,33.21 58.52,33.48 58.35,33.78 58.21,34.09 57.99,34.41 57.84,34.77 57.57,35.5 57.37,36.3 57.21,37.1 L 57.14,37.09 Z M 57.14,37.09" />
        </g>
        <g id="ranaCurledTop-group763">
            <path id="ranaCurledTop-bezier761" stroke="none" fill="rgb(0, 0, 0)" d="M 56.62,32.87 C 56.36,32.5 56.12,32.12 55.89,31.73 55.78,31.54 55.62,31.36 55.58,31.13 55.55,30.91 55.55,30.67 55.66,30.39 L 55.73,30.37 C 56,30.5 56.15,30.68 56.28,30.86 56.41,31.05 56.41,31.29 56.45,31.51 56.55,31.95 56.63,32.39 56.69,32.84 L 56.62,32.87 Z M 56.62,32.87" />
        </g>
        <g id="ranaCurledTop-group764">
            <path id="ranaCurledTop-bezier762" stroke="none" fill="rgb(0, 0, 0)" d="M 59.06,27.48 C 59.7,27.54 60.35,27.75 60.9,28.23 61.16,28.46 61.45,28.76 61.49,29.16 61.54,29.54 61.44,29.92 61.17,30.19 L 61.1,30.18 C 60.96,29.83 60.88,29.57 60.77,29.34 60.66,29.12 60.61,28.87 60.46,28.63 60.13,28.19 59.61,27.82 59.04,27.55 L 59.06,27.48 Z M 59.06,27.48" />
        </g>
        <g id="ranaCurledTop-group765">
            <path id="ranaCurledTop-bezier763" stroke="none" fill="rgb(0, 0, 0)" d="M 65.98,27.5 C 66.03,26.75 66.04,25.99 65.93,25.29 65.86,24.94 65.72,24.63 65.62,24.38 65.52,24.11 65.4,23.9 65.02,23.68 L 65.02,23.6 C 65.41,23.37 66.01,23.59 66.27,24 66.55,24.4 66.53,24.86 66.52,25.25 66.51,26.05 66.32,26.8 66.05,27.52 L 65.98,27.5 Z M 65.98,27.5" />
        </g>
        <g id="ranaCurledTop-group766">
            <path id="ranaCurledTop-bezier764" stroke="none" fill="rgb(0, 0, 0)" d="M 64.38,24.95 C 63.5,25.2 62.62,25.39 61.71,25.51 61.26,25.58 60.79,25.67 60.32,25.6 59.87,25.51 59.34,25.38 59.03,24.94 L 59.07,24.88 C 59.53,24.92 59.93,24.86 60.37,24.85 60.8,24.82 61.23,24.9 61.68,24.91 62.56,24.93 63.46,24.91 64.37,24.87 L 64.38,24.95 Z M 64.38,24.95" />
        </g>
        <g id="ranaCurledTop-group767">
            <path id="ranaCurledTop-bezier765" stroke="none" fill="rgb(0, 0, 0)" d="M 52.43,23.05 C 52.3,23.77 52.2,24.48 52.15,25.18 52.13,25.54 52.17,25.88 52.12,26.21 52.09,26.54 52.01,26.82 52.05,27.21 L 51.99,27.26 C 51.57,27.07 51.43,26.58 51.37,26.21 51.32,25.81 51.45,25.44 51.56,25.08 51.75,24.36 52.02,23.68 52.36,23.03 L 52.43,23.05 Z M 52.43,23.05" />
        </g>
        <g id="ranaCurledTop-group768">
            <path id="ranaCurledTop-bezier766" stroke="none" fill="rgb(0, 0, 0)" d="M 50.04,29.85 C 49.7,29.45 49.31,29.11 48.9,28.89 48.69,28.79 48.47,28.78 48.29,28.69 48.11,28.6 47.91,28.52 47.61,28.39 L 47.59,28.32 C 47.79,28.05 48.12,27.94 48.45,27.96 48.78,27.98 49.04,28.2 49.25,28.4 49.68,28.81 49.95,29.3 50.1,29.82 L 50.04,29.85 Z M 50.04,29.85" />
        </g>
        <g id="ranaCurledTop-group769">
            <path id="ranaCurledTop-bezier767" stroke="none" fill="rgb(0, 0, 0)" d="M 44.84,30.19 C 44.78,29.37 44.8,28.54 44.97,27.7 45.05,27.29 45.13,26.83 45.43,26.46 45.7,26.09 46.32,25.78 46.75,26.05 L 46.75,26.12 C 46.34,26.31 46.22,26.58 46.05,26.88 45.91,27.19 45.69,27.51 45.54,27.87 45.27,28.6 45.07,29.4 44.91,30.2 L 44.84,30.19 Z M 44.84,30.19" />
        </g>
        <g id="ranaCurledTop-group770">
            <path id="ranaCurledTop-bezier768" stroke="none" fill="rgb(0, 0, 0)" d="M 44.32,25.97 C 44.06,25.6 43.81,25.22 43.59,24.83 43.47,24.64 43.32,24.46 43.28,24.23 43.25,24.01 43.24,23.77 43.35,23.49 L 43.42,23.47 C 43.7,23.6 43.85,23.78 43.98,23.96 44.11,24.15 44.11,24.39 44.15,24.61 44.25,25.05 44.33,25.49 44.39,25.94 L 44.32,25.97 Z M 44.32,25.97" />
        </g>
        <g id="ranaCurledTop-group771">
            <path id="ranaCurledTop-bezier769" stroke="none" fill="rgb(0, 0, 0)" d="M 46.76,20.58 C 47.4,20.64 48.05,20.85 48.59,21.33 48.86,21.56 49.15,21.86 49.19,22.25 49.24,22.64 49.13,23.02 48.87,23.29 L 48.8,23.28 C 48.66,22.93 48.58,22.67 48.46,22.44 48.36,22.22 48.31,21.97 48.15,21.73 47.83,21.29 47.31,20.91 46.74,20.65 L 46.76,20.58 Z M 46.76,20.58" />
        </g>
        <g id="ranaCurledTop-group772">
            <path id="ranaCurledTop-bezier770" stroke="none" fill="rgb(0, 0, 0)" d="M 53.68,20.6 C 53.73,19.85 53.74,19.09 53.63,18.39 53.56,18.04 53.41,17.73 53.32,17.47 53.22,17.21 53.1,17 52.72,16.77 L 52.72,16.7 C 53.11,16.47 53.71,16.69 53.97,17.1 54.25,17.5 54.23,17.95 54.22,18.35 54.2,19.15 54.02,19.9 53.75,20.62 L 53.68,20.6 Z M 53.68,20.6" />
        </g>
        <g id="ranaCurledTop-group773">
            <path id="ranaCurledTop-bezier771" stroke="none" fill="rgb(0, 0, 0)" d="M 52.07,18.05 C 51.2,18.3 50.32,18.49 49.41,18.61 48.96,18.67 48.49,18.77 48.02,18.69 47.57,18.61 47.04,18.48 46.73,18.04 L 46.77,17.98 C 47.23,18.02 47.63,17.96 48.07,17.95 48.49,17.92 48.93,17.99 49.38,18.01 50.26,18.03 51.16,18.01 52.06,17.97 L 52.07,18.05 Z M 52.07,18.05" />
        </g>
        <g id="ranaCurledTop-group774">
            <path id="ranaCurledTop-bezier772" stroke="none" fill="rgb(0, 0, 0)" d="M 63.51,17.2 C 63.39,17.92 63.29,18.63 63.23,19.33 63.21,19.69 63.26,20.03 63.21,20.36 63.18,20.69 63.1,20.97 63.14,21.36 L 63.08,21.41 C 62.66,21.22 62.51,20.73 62.46,20.36 62.41,19.96 62.54,19.59 62.64,19.23 62.84,18.51 63.11,17.83 63.44,17.18 L 63.51,17.2 Z M 63.51,17.2" />
        </g>
        <g id="ranaCurledTop-group775">
            <path id="ranaCurledTop-bezier773" stroke="none" fill="rgb(0, 0, 0)" d="M 61.12,24 C 60.79,23.6 60.4,23.25 59.99,23.04 59.77,22.94 59.56,22.93 59.38,22.84 59.19,22.75 59,22.67 58.69,22.54 L 58.67,22.47 C 58.88,22.2 59.21,22.09 59.53,22.11 59.87,22.13 60.13,22.35 60.34,22.55 60.77,22.96 61.03,23.45 61.19,23.97 L 61.12,24 Z M 61.12,24" />
        </g>
        <g id="ranaCurledTop-group776">
            <path id="ranaCurledTop-bezier774" stroke="none" fill="rgb(0, 0, 0)" d="M 55.93,24.34 C 55.86,23.52 55.89,22.69 56.05,21.85 56.13,21.44 56.21,20.98 56.52,20.61 56.79,20.25 57.4,19.93 57.84,20.2 L 57.83,20.27 C 57.43,20.46 57.3,20.73 57.14,21.03 56.99,21.34 56.78,21.66 56.63,22.02 56.35,22.75 56.15,23.55 56,24.35 L 55.93,24.34 Z M 55.93,24.34" />
        </g>
        <g id="ranaCurledTop-group777">
            <path id="ranaCurledTop-bezier775" stroke="none" fill="rgb(0, 0, 0)" d="M 55.4,20.12 C 55.14,19.75 54.9,19.36 54.68,18.98 54.56,18.78 54.4,18.61 54.37,18.38 54.34,18.16 54.33,17.92 54.44,17.64 L 54.51,17.62 C 54.78,17.75 54.94,17.93 55.07,18.11 55.19,18.3 55.19,18.54 55.24,18.76 55.34,19.2 55.41,19.64 55.47,20.09 L 55.4,20.12 Z M 55.4,20.12" />
        </g>
        <g id="ranaCurledTop-group778">
            <path id="ranaCurledTop-bezier776" stroke="none" fill="rgb(0, 0, 0)" d="M 68.09,46.03 C 67.83,45.66 67.59,45.28 67.36,44.89 67.25,44.7 67.09,44.52 67.05,44.29 67.02,44.07 67.02,43.83 67.13,43.55 L 67.2,43.53 C 67.47,43.66 67.62,43.84 67.75,44.02 67.88,44.21 67.88,44.45 67.92,44.67 68.02,45.11 68.1,45.55 68.16,46 L 68.09,46.03 Z M 68.09,46.03" />
        </g>
        <g id="ranaCurledTop-group779">
            <path id="ranaCurledTop-bezier777" stroke="none" fill="rgb(0, 0, 0)" d="M 69.68,40.09 C 70.32,40.15 70.97,40.36 71.51,40.84 71.78,41.07 72.06,41.37 72.11,41.76 72.16,42.15 72.05,42.53 71.79,42.8 L 71.72,42.79 C 71.58,42.44 71.5,42.18 71.38,41.95 71.28,41.73 71.23,41.48 71.07,41.24 70.75,40.8 70.22,40.42 69.66,40.16 L 69.68,40.09 Z M 69.68,40.09" />
        </g>
        <g id="ranaCurledTop-group780">
            <path id="ranaCurledTop-bezier778" stroke="none" fill="rgb(0, 0, 0)" d="M 74.9,30.76 C 74.02,31.01 73.14,31.21 72.23,31.33 71.78,31.39 71.31,31.49 70.84,31.41 70.39,31.33 69.86,31.2 69.55,30.76 L 69.59,30.7 C 70.05,30.74 70.45,30.68 70.89,30.66 71.32,30.64 71.75,30.71 72.2,30.73 73.08,30.74 73.98,30.73 74.89,30.69 L 74.9,30.76 Z M 74.9,30.76" />
        </g>
        <g id="ranaCurledTop-group781">
            <path id="ranaCurledTop-bezier779" stroke="none" fill="rgb(0, 0, 0)" d="M 67.2,36.95 C 67.07,37.66 66.97,38.38 66.92,39.08 66.9,39.43 66.94,39.78 66.9,40.1 66.86,40.44 66.78,40.72 66.82,41.1 L 66.77,41.15 C 66.34,40.97 66.2,40.48 66.15,40.11 66.1,39.71 66.23,39.34 66.33,38.98 66.52,38.26 66.8,37.58 67.13,36.92 L 67.2,36.95 Z M 67.2,36.95" />
        </g>
        <g id="ranaCurledTop-group782">
            <path id="ranaCurledTop-bezier780" stroke="none" fill="rgb(0, 0, 0)" d="M 64.81,43.75 C 64.47,43.35 64.08,43 63.67,42.79 63.46,42.68 63.24,42.68 63.07,42.59 62.88,42.5 62.68,42.42 62.38,42.28 L 62.36,42.21 C 62.56,41.94 62.9,41.83 63.22,41.85 63.55,41.87 63.81,42.1 64.02,42.3 64.46,42.7 64.72,43.2 64.87,43.71 L 64.81,43.75 Z M 64.81,43.75" />
        </g>
        <g id="ranaCurledTop-group783">
            <path id="ranaCurledTop-bezier781" stroke="none" fill="rgb(0, 0, 0)" d="M 68.45,34.5 C 68.5,33.75 68.51,32.99 68.4,32.29 68.33,31.94 68.19,31.63 68.09,31.37 68,31.11 67.87,30.89 67.49,30.67 L 67.5,30.6 C 67.88,30.37 68.48,30.59 68.74,31 69.02,31.4 69.01,31.85 69,32.25 68.98,33.05 68.79,33.8 68.52,34.52 L 68.45,34.5 Z M 68.45,34.5" />
        </g>
        <g id="ranaCurledTop-group784">
            <path id="ranaCurledTop-bezier782" stroke="none" fill="rgb(0, 0, 0)" d="M 75.9,37.9 C 75.56,37.5 75.17,37.15 74.76,36.94 74.55,36.83 74.33,36.82 74.15,36.74 73.97,36.64 73.77,36.57 73.47,36.43 L 73.45,36.36 C 73.65,36.09 73.98,35.98 74.31,36 74.64,36.02 74.9,36.25 75.11,36.45 75.54,36.85 75.81,37.35 75.96,37.86 L 75.9,37.9 Z M 75.9,37.9" />
        </g>
        <g id="ranaCurledTop-group785">
            <path id="ranaCurledTop-bezier783" stroke="none" fill="rgb(0, 0, 0)" d="M 70.7,38.24 C 70.64,37.41 70.66,36.58 70.83,35.75 70.91,35.33 70.98,34.88 71.29,34.5 71.56,34.14 72.18,33.83 72.61,34.09 L 72.61,34.17 C 72.2,34.36 72.07,34.62 71.91,34.93 71.76,35.23 71.55,35.55 71.4,35.91 71.12,36.65 70.93,37.44 70.77,38.24 L 70.7,38.24 Z M 70.7,38.24" />
        </g>
        <g id="ranaCurledTop-group786">
            <path id="ranaCurledTop-bezier784" stroke="none" fill="rgb(0, 0, 0)" d="M 59.98,41.39 C 59.72,41.02 59.47,40.64 59.25,40.25 59.13,40.06 58.98,39.88 58.94,39.66 58.91,39.43 58.9,39.2 59.01,38.92 L 59.08,38.89 C 59.36,39.02 59.51,39.2 59.64,39.39 59.77,39.58 59.77,39.81 59.81,40.03 59.91,40.47 59.99,40.91 60.05,41.37 L 59.98,41.39 Z M 59.98,41.39" />
        </g>
        <g id="ranaCurledTop-group787">
            <path id="ranaCurledTop-bezier785" stroke="none" fill="rgb(0, 0, 0)" d="M 57.84,14.73 C 58.49,14.79 59.14,15 59.68,15.48 59.95,15.71 60.23,16.01 60.28,16.4 60.33,16.79 60.22,17.17 59.96,17.44 L 59.88,17.43 C 59.74,17.08 59.67,16.82 59.55,16.59 59.45,16.37 59.4,16.12 59.24,15.88 58.91,15.44 58.39,15.06 57.83,14.8 L 57.84,14.73 Z M 57.84,14.73" />
        </g>
        <g id="ranaCurledTop-group788">
            <path id="ranaCurledTop-bezier786" stroke="none" fill="rgb(0, 0, 0)" d="M 65.37,16.26 C 65.43,15.51 65.43,14.75 65.32,14.05 65.25,13.7 65.11,13.39 65.01,13.14 64.92,12.87 64.79,12.66 64.42,12.44 L 64.42,12.36 C 64.8,12.13 65.41,12.35 65.66,12.76 65.94,13.16 65.93,13.62 65.92,14.01 65.9,14.81 65.71,15.56 65.44,16.28 L 65.37,16.26 Z M 65.37,16.26" />
        </g>
        <g id="ranaCurledTop-group789">
            <path id="ranaCurledTop-bezier787" stroke="none" fill="rgb(0, 0, 0)" d="M 63.16,12.2 C 62.29,12.45 61.4,12.64 60.5,12.76 60.04,12.82 59.58,12.92 59.11,12.84 58.66,12.76 58.12,12.63 57.81,12.19 L 57.86,12.13 C 58.32,12.17 58.72,12.11 59.15,12.09 59.58,12.07 60.02,12.14 60.46,12.16 61.35,12.18 62.25,12.16 63.15,12.12 L 63.16,12.2 Z M 63.16,12.2" />
        </g>
        <g id="ranaCurledTop-group790">
            <path id="ranaCurledTop-bezier788" stroke="none" fill="rgb(0, 0, 0)" d="M 42.5,14.35 C 42.38,15.06 42.28,15.78 42.22,16.48 42.2,16.83 42.25,17.18 42.2,17.5 42.17,17.84 42.09,18.12 42.13,18.51 L 42.07,18.55 C 41.65,18.37 41.5,17.88 41.45,17.51 41.4,17.11 41.53,16.74 41.63,16.38 41.83,15.66 42.1,14.98 42.43,14.32 L 42.5,14.35 Z M 42.5,14.35" />
        </g>
        <g id="ranaCurledTop-group791">
            <path id="ranaCurledTop-bezier789" stroke="none" fill="rgb(0, 0, 0)" d="M 40.11,21.15 C 39.78,20.75 39.39,20.4 38.98,20.19 38.76,20.08 38.55,20.08 38.37,19.99 38.18,19.9 37.99,19.82 37.68,19.68 L 37.66,19.61 C 37.87,19.34 38.2,19.23 38.52,19.25 38.86,19.27 39.12,19.5 39.33,19.7 39.76,20.1 40.02,20.6 40.18,21.11 L 40.11,21.15 Z M 40.11,21.15" />
        </g>
        <g id="ranaCurledTop-group792">
            <path id="ranaCurledTop-bezier790" stroke="none" fill="rgb(0, 0, 0)" d="M 34.92,21.49 C 34.85,20.67 34.88,19.83 35.04,19 35.12,18.58 35.2,18.13 35.51,17.76 35.78,17.39 36.39,17.08 36.83,17.34 L 36.82,17.42 C 36.42,17.61 36.29,17.87 36.13,18.18 35.98,18.48 35.77,18.8 35.62,19.17 35.34,19.9 35.14,20.69 34.99,21.49 L 34.92,21.49 Z M 34.92,21.49" />
        </g>
        <g id="ranaCurledTop-group793">
            <path id="ranaCurledTop-bezier791" stroke="none" fill="rgb(0, 0, 0)" d="M 34.4,17.27 C 34.13,16.89 33.89,16.51 33.67,16.12 33.55,15.93 33.39,15.75 33.36,15.53 33.33,15.3 33.32,15.07 33.43,14.79 L 33.5,14.76 C 33.77,14.89 33.93,15.07 34.06,15.26 34.18,15.45 34.19,15.68 34.23,15.91 34.33,16.34 34.41,16.79 34.46,17.24 L 34.4,17.27 Z M 34.4,17.27" />
        </g>
        <g id="ranaCurledTop-group794">
            <path id="ranaCurledTop-bezier792" stroke="none" fill="rgb(0, 0, 0)" d="M 36.83,11.87 C 37.48,11.94 38.13,12.15 38.67,12.62 38.94,12.85 39.22,13.16 39.27,13.55 39.32,13.93 39.21,14.32 38.95,14.59 L 38.87,14.57 C 38.73,14.23 38.66,13.97 38.54,13.74 38.44,13.51 38.39,13.27 38.23,13.03 37.9,12.58 37.38,12.21 36.82,11.94 L 36.83,11.87 Z M 36.83,11.87" />
        </g>
        <g id="ranaCurledTop-group795">
            <path id="ranaCurledTop-bezier793" stroke="none" fill="rgb(0, 0, 0)" d="M 43.76,11.9 C 43.81,11.15 43.81,10.39 43.7,9.69 43.64,9.34 43.49,9.03 43.4,8.77 43.3,8.51 43.17,8.29 42.8,8.07 L 42.8,8 C 43.19,7.77 43.79,7.99 44.05,8.4 44.33,8.8 44.31,9.25 44.3,9.65 44.28,10.45 44.09,11.2 43.83,11.92 L 43.76,11.9 Z M 43.76,11.9" />
        </g>
        <g id="ranaCurledTop-group796">
            <path id="ranaCurledTop-bezier794" stroke="none" fill="rgb(0, 0, 0)" d="M 42.15,9.34 C 41.28,9.59 40.39,9.79 39.49,9.91 39.03,9.97 38.57,10.07 38.1,9.99 37.65,9.91 37.11,9.77 36.8,9.34 L 36.85,9.28 C 37.31,9.32 37.71,9.25 38.14,9.24 38.57,9.22 39.01,9.29 39.45,9.31 40.34,9.32 41.24,9.3 42.14,9.27 L 42.15,9.34 Z M 42.15,9.34" />
        </g>
        <g id="ranaCurledTop-group797">
            <path id="ranaCurledTop-bezier795" stroke="none" fill="rgb(0, 0, 0)" d="M 30.34,11.03 C 30.21,11.74 30.11,12.46 30.06,13.16 30.04,13.51 30.08,13.86 30.03,14.18 30,14.52 29.92,14.8 29.96,15.19 L 29.9,15.23 C 29.48,15.05 29.34,14.56 29.28,14.19 29.23,13.79 29.36,13.42 29.47,13.06 29.66,12.34 29.93,11.66 30.27,11 L 30.34,11.03 Z M 30.34,11.03" />
        </g>
        <g id="ranaCurledTop-group798">
            <path id="ranaCurledTop-bezier796" stroke="none" fill="rgb(0, 0, 0)" d="M 27.95,17.83 C 27.61,17.43 27.22,17.08 26.81,16.87 26.6,16.77 26.38,16.76 26.2,16.67 26.02,16.58 25.82,16.5 25.52,16.36 L 25.5,16.29 C 25.7,16.02 26.03,15.92 26.36,15.94 26.69,15.96 26.95,16.18 27.16,16.38 27.59,16.78 27.86,17.28 28.01,17.8 L 27.95,17.83 Z M 27.95,17.83" />
        </g>
        <g id="ranaCurledTop-group799">
            <path id="ranaCurledTop-bezier797" stroke="none" fill="rgb(0, 0, 0)" d="M 22.75,18.17 C 22.69,17.35 22.71,16.52 22.88,15.68 22.96,15.26 23.04,14.81 23.34,14.44 23.61,14.07 24.23,13.76 24.66,14.03 L 24.66,14.1 C 24.25,14.29 24.13,14.55 23.96,14.86 23.82,15.17 23.6,15.48 23.45,15.85 23.18,16.58 22.98,17.37 22.82,18.17 L 22.75,18.17 Z M 22.75,18.17" />
        </g>
        <g id="ranaCurledTop-group800">
            <path id="ranaCurledTop-bezier798" stroke="none" fill="rgb(0, 0, 0)" d="M 22.23,13.95 C 21.97,13.57 21.73,13.19 21.5,12.8 21.38,12.61 21.23,12.43 21.19,12.21 21.16,11.98 21.16,11.75 21.27,11.47 L 21.34,11.44 C 21.61,11.57 21.76,11.75 21.89,11.94 22.02,12.13 22.02,12.36 22.06,12.59 22.16,13.02 22.24,13.47 22.3,13.92 L 22.23,13.95 Z M 22.23,13.95" />
        </g>
        <g id="ranaCurledTop-group801">
            <path id="ranaCurledTop-bezier799" stroke="none" fill="rgb(0, 0, 0)" d="M 24.67,8.55 C 25.31,8.62 25.96,8.83 26.5,9.3 26.77,9.53 27.06,9.84 27.1,10.23 27.15,10.61 27.04,11 26.78,11.27 L 26.71,11.25 C 26.57,10.91 26.49,10.65 26.37,10.42 26.27,10.19 26.22,9.95 26.06,9.71 25.74,9.26 25.22,8.89 24.65,8.63 L 24.67,8.55 Z M 24.67,8.55" />
        </g>
        <g id="ranaCurledTop-group802">
            <path id="ranaCurledTop-bezier800" stroke="none" fill="rgb(0, 0, 0)" d="M 31.59,8.58 C 31.64,7.83 31.65,7.07 31.54,6.37 31.47,6.02 31.32,5.71 31.23,5.45 31.13,5.19 31.01,4.97 30.63,4.75 L 30.63,4.68 C 31.02,4.45 31.62,4.67 31.88,5.08 32.16,5.48 32.14,5.93 32.13,6.33 32.11,7.13 31.93,7.88 31.66,8.6 L 31.59,8.58 Z M 31.59,8.58" />
        </g>
        <g id="ranaCurledTop-group803">
            <path id="ranaCurledTop-bezier801" stroke="none" fill="rgb(0, 0, 0)" d="M 29.98,6.02 C 29.11,6.27 28.23,6.47 27.32,6.59 26.87,6.65 26.4,6.75 25.93,6.67 25.48,6.59 24.95,6.45 24.64,6.02 L 24.68,5.96 C 25.14,6 25.54,5.93 25.98,5.92 26.4,5.9 26.84,5.97 27.29,5.99 28.17,6 29.07,5.98 29.97,5.95 L 29.98,6.02 Z M 29.98,6.02" />
        </g>
        <g id="ranaCurledTop-group804">
            <path id="ranaCurledTop-bezier802" stroke="none" fill="rgb(0, 0, 0)" d="M 55.14,8.61 C 55.02,9.33 54.92,10.04 54.86,10.74 54.84,11.1 54.89,11.44 54.84,11.77 54.81,12.1 54.73,12.38 54.77,12.77 L 54.71,12.82 C 54.29,12.63 54.14,12.14 54.09,11.77 54.04,11.37 54.17,11 54.27,10.64 54.47,9.92 54.74,9.24 55.07,8.59 L 55.14,8.61 Z M 55.14,8.61" />
        </g>
        <g id="ranaCurledTop-group805">
            <path id="ranaCurledTop-bezier803" stroke="none" fill="rgb(0, 0, 0)" d="M 52.75,15.41 C 52.42,15.01 52.03,14.66 51.62,14.45 51.4,14.35 51.19,14.34 51.01,14.25 50.82,14.16 50.63,14.08 50.32,13.95 L 50.3,13.88 C 50.51,13.61 50.84,13.5 51.16,13.52 51.5,13.54 51.76,13.76 51.97,13.96 52.4,14.37 52.66,14.86 52.82,15.38 L 52.75,15.41 Z M 52.75,15.41" />
        </g>
        <g id="ranaCurledTop-group806">
            <path id="ranaCurledTop-bezier804" stroke="none" fill="rgb(0, 0, 0)" d="M 47.56,15.75 C 47.49,14.93 47.52,14.1 47.68,13.26 47.76,12.85 47.84,12.39 48.15,12.02 48.42,11.66 49.03,11.34 49.47,11.61 L 49.46,11.68 C 49.06,11.87 48.93,12.14 48.77,12.44 48.62,12.75 48.41,13.07 48.26,13.43 47.98,14.16 47.78,14.96 47.63,15.76 L 47.56,15.75 Z M 47.56,15.75" />
        </g>
        <g id="ranaCurledTop-group807">
            <path id="ranaCurledTop-bezier805" stroke="none" fill="rgb(0, 0, 0)" d="M 47.03,11.53 C 46.77,11.16 46.53,10.77 46.31,10.39 46.19,10.19 46.03,10.02 46,9.79 45.97,9.57 45.96,9.33 46.07,9.05 L 46.14,9.03 C 46.41,9.16 46.57,9.34 46.7,9.52 46.82,9.71 46.82,9.95 46.87,10.17 46.97,10.61 47.04,11.05 47.1,11.5 L 47.03,11.53 Z M 47.03,11.53" />
        </g>
        <g id="ranaCurledTop-group808">
            <path id="ranaCurledTop-bezier806" stroke="none" fill="rgb(0, 0, 0)" d="M 49.47,6.14 C 50.12,6.2 50.77,6.41 51.31,6.89 51.58,7.12 51.86,7.42 51.91,7.81 51.96,8.2 51.85,8.58 51.59,8.85 L 51.51,8.84 C 51.37,8.49 51.3,8.23 51.18,8 51.08,7.78 51.03,7.53 50.87,7.29 50.54,6.85 50.02,6.47 49.46,6.21 L 49.47,6.14 Z M 49.47,6.14" />
        </g>
        <g id="ranaCurledTop-group809">
            <path id="ranaCurledTop-bezier807" stroke="none" fill="rgb(0, 0, 0)" d="M 33.73,13.19 C 33.79,12.44 33.79,11.68 33.68,10.98 33.61,10.63 33.47,10.32 33.38,10.06 33.28,9.8 33.15,9.58 32.78,9.36 L 32.78,9.29 C 33.16,9.06 33.77,9.28 34.02,9.69 34.3,10.09 34.29,10.54 34.28,10.94 34.26,11.74 34.07,12.49 33.81,13.21 L 33.73,13.19 Z M 33.73,13.19" />
        </g>
        <g id="ranaCurledTop-group810">
            <path id="ranaCurledTop-bezier808" stroke="none" fill="rgb(0, 0, 0)" d="M 39.17,5.13 C 38.61,5.85 38.01,6.53 37.35,7.17 37.03,7.49 36.71,7.84 36.29,8.06 35.88,8.26 35.37,8.47 34.86,8.3 L 34.86,8.23 C 35.25,7.99 35.54,7.7 35.88,7.43 36.21,7.16 36.6,6.96 36.97,6.7 37.69,6.19 38.41,5.64 39.11,5.08 L 39.17,5.13 Z M 39.17,5.13" />
        </g>
        <g id="ranaCurledTop-group811">
            <path id="ranaCurledTop-bezier809" stroke="none" fill="rgb(0, 0, 0)" d="M 42.43,40.58 C 41.81,40.74 41.2,40.96 40.68,41.26 40.42,41.42 40.23,41.64 40.03,41.78 39.81,41.93 39.63,42.09 39.38,42.38 L 39.31,42.37 C 39.13,42.02 39.25,41.57 39.49,41.26 39.73,40.94 40.11,40.82 40.43,40.72 41.1,40.5 41.77,40.45 42.43,40.5 L 42.43,40.58 Z M 42.43,40.58" />
        </g>
        <g id="ranaCurledTop-group1371">
            <path id="ranaCurledTop-bezier1369" stroke="none" fill="rgb(0, 0, 0)" d="M 29.22,30.35 C 29.83,30.24 30.48,30.29 31.09,30.55 31.7,30.81 32.2,31.42 32.32,32.11 32.39,32.46 32.41,32.77 32.38,33.13 32.34,33.48 32.21,33.85 31.94,34.14 31.38,34.73 30.52,34.74 29.96,34.42 L 29.98,34.35 C 30.6,34.26 31.13,34.03 31.36,33.66 31.61,33.31 31.76,32.73 31.73,32.2 31.7,31.66 31.4,31.17 30.91,30.88 30.44,30.57 29.83,30.42 29.23,30.42 L 29.22,30.35 Z M 29.22,30.35" />
        </g>
        <g id="ranaCurledTop-group1372">
            <path id="ranaCurledTop-bezier1370" stroke="none" fill="rgb(0, 0, 0)" d="M 31.1,29.55 C 31.02,28.86 30.72,28.19 30.22,27.78 30.1,27.67 29.97,27.59 29.83,27.52 29.68,27.44 29.48,27.33 29.34,27.2 29.03,26.94 28.82,26.62 28.62,26.34 28.21,25.76 27.76,25.31 27.28,24.86 26.8,24.39 26.26,23.99 25.71,23.5 L 25.74,23.43 C 26.46,23.55 27.15,23.84 27.76,24.28 28.38,24.72 28.8,25.4 29.12,26.02 29.3,26.33 29.45,26.62 29.67,26.85 29.78,26.96 29.88,27.04 30.04,27.14 30.2,27.25 30.35,27.37 30.48,27.51 31,28.09 31.19,28.84 31.17,29.55 L 31.1,29.55 Z M 31.1,29.55" />
        </g>
        <g id="ranaCurledTop-group1373">
            <path id="ranaCurledTop-bezier1371" stroke="none" fill="rgb(0, 0, 0)" d="M 29.06,38.25 C 28.9,38.59 28.75,38.94 28.55,39.28 28.35,39.61 28.1,39.93 27.83,40.22 27.56,40.51 27.28,40.81 26.91,40.98 26.55,41.14 26.16,41.25 25.74,41.22 L 25.7,41.15 C 25.96,40.81 26.24,40.57 26.52,40.34 26.8,40.11 27.14,39.97 27.43,39.77 28.03,39.36 28.51,38.8 29,38.21 L 29.06,38.25 Z M 29.06,38.25" />
        </g>
        <g id="ranaCurledTop-group1374">
            <path id="ranaCurledTop-bezier1372" stroke="none" fill="rgb(0, 0, 0)" d="M 29.81,38.33 C 29.98,37.68 30.22,37.04 30.58,36.45 30.76,36.15 30.94,35.81 31.29,35.62 31.6,35.42 32.14,35.33 32.44,35.64 L 32.42,35.71 C 32.07,35.84 31.93,36.02 31.73,36.22 31.54,36.42 31.28,36.58 31.06,36.81 30.63,37.27 30.24,37.8 29.88,38.35 L 29.81,38.33 Z M 29.81,38.33" />
        </g>
        <g id="ranaCurledTop-group1375">
            <path id="ranaCurledTop-bezier1373" stroke="none" fill="rgb(0, 0, 0)" d="M 31.59,37.71 C 31.74,37.24 31.94,36.78 32.25,36.36 32.4,36.15 32.56,35.9 32.86,35.8 33.14,35.7 33.53,35.72 33.73,35.99 L 33.71,36.06 C 33.44,36.22 33.34,36.34 33.2,36.47 33.07,36.59 32.86,36.65 32.68,36.78 32.32,37.05 31.99,37.39 31.65,37.75 L 31.59,37.71 Z M 31.59,37.71" />
        </g>
        <g id="ranaCurledTop-group1376">
            <path id="ranaCurledTop-bezier1374" stroke="none" fill="rgb(0, 0, 0)" d="M 32.94,37.95 C 33.09,37.5 33.28,37.06 33.59,36.66 33.73,36.46 33.89,36.21 34.18,36.13 34.46,36.04 34.83,36.07 35.02,36.34 L 35,36.41 C 34.74,36.56 34.64,36.69 34.51,36.8 34.39,36.92 34.19,36.97 34.01,37.09 33.67,37.33 33.34,37.65 33.01,37.99 L 32.94,37.95 Z M 32.94,37.95" />
        </g>
        <g id="ranaCurledTop-group1377">
            <path id="ranaCurledTop-bezier1375" stroke="none" fill="rgb(0, 0, 0)" d="M 18.73,30.66 C 18.14,30.06 17.49,29.52 16.81,29.08 16.46,28.86 16.09,28.72 15.77,28.52 15.44,28.3 15.11,28.11 14.72,27.88 L 14.72,27.81 C 15.16,27.63 15.66,27.69 16.09,27.84 16.52,27.99 16.86,28.31 17.18,28.61 17.83,29.2 18.36,29.88 18.79,30.61 L 18.73,30.66 Z M 18.73,30.66" />
        </g>
        <g id="ranaCurledTop-group1378">
            <path id="ranaCurledTop-bezier1376" stroke="none" fill="rgb(0, 0, 0)" d="M 18.8,34.14 C 18.61,35.19 18.33,36.21 17.91,37.21 17.7,37.7 17.5,38.23 17.09,38.64 16.71,39.03 16.11,39.42 15.51,39.26 L 15.51,39.18 C 15.99,38.93 16.24,38.56 16.52,38.16 16.78,37.76 17.11,37.37 17.38,36.94 17.89,36.05 18.33,35.1 18.73,34.12 L 18.8,34.14 Z M 18.8,34.14" />
        </g>
        <g id="ranaCurledTop-group1379">
            <path id="ranaCurledTop-bezier1377" stroke="none" fill="rgb(0, 0, 0)" d="M 17.91,31.83 C 17.03,32.52 16.1,33.13 15.1,33.65 14.6,33.92 14.1,34.2 13.52,34.3 12.96,34.39 12.24,34.41 11.79,33.96 L 11.82,33.89 C 12.38,33.93 12.83,33.74 13.33,33.58 13.82,33.4 14.35,33.29 14.86,33.1 15.87,32.72 16.88,32.26 17.87,31.77 L 17.91,31.83 Z M 17.91,31.83" />
        </g>
        <g id="ranaCurledTop-group1380">
            <path id="ranaCurledTop-bezier1378" stroke="none" fill="rgb(0, 0, 0)" d="M 16.77,34.82 C 16.56,35.34 16.29,35.83 15.93,36.29 15.76,36.52 15.58,36.78 15.26,36.91 14.98,37.03 14.48,37.05 14.29,36.71 L 14.32,36.64 C 14.63,36.55 14.72,36.39 14.9,36.25 15.06,36.1 15.3,36.01 15.51,35.86 15.92,35.55 16.32,35.17 16.71,34.78 L 16.77,34.82 Z M 16.77,34.82" />
        </g>
        <g id="ranaCurledTop-group1381">
            <path id="ranaCurledTop-bezier1379" stroke="none" fill="rgb(0, 0, 0)" d="M 19.32,27.87 C 18.52,27.24 17.71,26.64 16.87,26.11 16.44,25.86 15.99,25.66 15.59,25.41 15.18,25.17 14.82,24.91 14.31,24.79 L 14.29,24.72 C 14.8,24.41 15.44,24.56 15.92,24.74 16.43,24.93 16.83,25.29 17.22,25.63 18.02,26.29 18.73,27.03 19.37,27.82 L 19.32,27.87 Z M 19.32,27.87" />
        </g>
        <g id="ranaCurledTop-group1382">
            <path id="ranaCurledTop-bezier1380" stroke="none" fill="rgb(0, 0, 0)" d="M 20.02,26.29 C 19.91,25.35 19.78,24.41 19.62,23.49 19.53,23.04 19.38,22.6 19.33,22.15 19.25,21.71 19.27,21.27 19.04,20.88 L 19.07,20.81 C 19.36,20.84 19.57,21.08 19.72,21.29 19.87,21.51 19.97,21.74 20.05,21.98 20.22,22.45 20.2,22.95 20.21,23.43 20.25,24.39 20.2,25.34 20.09,26.28 L 20.02,26.29 Z M 20.02,26.29" />
        </g>
        <g id="ranaCurledTop-group1383">
            <path id="ranaCurledTop-bezier1381" stroke="none" fill="rgb(0, 0, 0)" d="M 19.76,37.74 C 19.71,38.66 19.57,39.58 19.28,40.48 19.14,40.92 19,41.4 18.69,41.79 18.38,42.16 17.96,42.51 17.45,42.58 L 17.41,42.52 C 17.67,42.11 17.87,41.75 18.06,41.37 18.25,41 18.52,40.65 18.72,40.25 19.11,39.46 19.43,38.6 19.68,37.73 L 19.76,37.74 Z M 19.76,37.74" />
        </g>
        <g id="ranaCurledTop-group1384">
            <path id="ranaCurledTop-bezier1382" stroke="none" fill="rgb(0, 0, 0)" d="M 15.51,30.4 C 14.56,30.37 13.61,30.36 12.67,30.38 12.2,30.4 11.74,30.48 11.29,30.45 10.83,30.44 10.4,30.39 9.9,30.4 L 9.87,30.33 C 10.23,29.92 10.77,29.79 11.25,29.71 11.74,29.63 12.22,29.72 12.7,29.78 13.66,29.9 14.59,30.08 15.52,30.33 L 15.51,30.4 Z M 15.51,30.4" />
        </g>
        <g id="ranaCurledTop-group1385">
            <path id="ranaCurledTop-bezier1383" stroke="none" fill="rgb(0, 0, 0)" d="M 17.39,22.98 C 17.12,22.35 16.75,21.76 16.29,21.33 16.05,21.11 15.78,20.99 15.55,20.83 15.32,20.65 15.06,20.51 14.72,20.3 L 14.72,20.22 C 15.07,20.02 15.5,20.02 15.88,20.15 16.28,20.29 16.54,20.63 16.75,20.93 17.18,21.56 17.4,22.26 17.47,22.96 L 17.39,22.98 Z M 17.39,22.98" />
        </g>
        <g id="ranaCurledTop-group1386">
            <path id="ranaCurledTop-bezier1384" stroke="none" fill="rgb(0, 0, 0)" d="M 14.71,26 C 13.67,25.82 12.65,25.57 11.64,25.26 11.13,25.11 10.61,24.99 10.14,24.71 9.69,24.44 9.22,24.1 8.94,23.59 L 9,23.54 C 9.51,23.71 9.98,23.86 10.47,24.04 10.94,24.21 11.38,24.48 11.85,24.7 12.8,25.13 13.76,25.54 14.73,25.93 L 14.71,26 Z M 14.71,26" />
        </g>
        <g id="ranaCurledTop-group1387">
            <path id="ranaCurledTop-bezier1385" stroke="none" fill="rgb(0, 0, 0)" d="M 13.94,22.29 C 13.05,21.61 12.2,20.87 11.41,20.05 11.02,19.65 10.6,19.24 10.33,18.72 10.08,18.21 9.83,17.57 10.06,16.96 L 10.13,16.97 C 10.33,17.5 10.66,17.89 10.97,18.32 11.29,18.74 11.55,19.22 11.87,19.67 12.53,20.55 13.25,21.4 13.99,22.23 L 13.94,22.29 Z M 13.94,22.29" />
        </g>
        <g id="ranaCurledTop-group1388">
            <path id="ranaCurledTop-bezier1386" stroke="none" fill="rgb(0, 0, 0)" d="M 12.02,23 C 11.19,22.76 10.39,22.44 9.63,22.01 9.25,21.81 8.84,21.6 8.54,21.25 8.26,20.91 8,20.47 8.02,19.98 L 8.09,19.95 C 8.44,20.25 8.74,20.47 9.06,20.71 9.38,20.94 9.65,21.25 9.97,21.52 10.61,22.03 11.32,22.5 12.05,22.93 L 12.02,23 Z M 12.02,23" />
        </g>
        <g id="ranaCurledTop-group1389">
            <path id="ranaCurledTop-bezier1387" stroke="none" fill="rgb(0, 0, 0)" d="M 10.33,26.55 C 9.11,26.29 7.92,25.93 6.75,25.45 6.17,25.22 5.56,24.99 5.05,24.58 4.56,24.18 4.06,23.65 3.94,22.98 L 4,22.95 C 4.47,23.38 4.97,23.66 5.48,23.96 5.99,24.25 6.48,24.61 7.01,24.91 8.08,25.5 9.21,26.01 10.36,26.47 L 10.33,26.55 Z M 10.33,26.55" />
        </g>
        <g id="ranaCurledTop-group1390">
            <path id="ranaCurledTop-bezier1388" stroke="none" fill="rgb(0, 0, 0)" d="M 11.84,28.5 C 10.45,28.49 9.06,28.49 7.67,28.5 6.98,28.52 6.29,28.59 5.61,28.55 4.93,28.54 4.24,28.42 3.58,28.5 L 3.53,28.44 C 3.81,28.15 4.19,28.07 4.54,27.97 4.89,27.88 5.24,27.84 5.59,27.8 6.3,27.74 7,27.84 7.7,27.9 9.09,28.02 10.47,28.2 11.85,28.43 L 11.84,28.5 Z M 11.84,28.5" />
        </g>
        <g id="ranaCurledTop-group1391">
            <path id="ranaCurledTop-bezier1389" stroke="none" fill="rgb(0, 0, 0)" d="M 13.19,31.84 C 12.14,32.21 11.1,32.61 10.1,33.05 9.6,33.27 9.13,33.56 8.64,33.76 8.14,33.97 7.66,34.13 7.19,34.45 L 7.13,34.4 C 7.3,33.8 7.82,33.4 8.29,33.09 8.79,32.78 9.35,32.64 9.89,32.48 10.97,32.16 12.06,31.93 13.17,31.76 L 13.19,31.84 Z M 13.19,31.84" />
        </g>
        <g id="ranaCurledTop-group1392">
            <path id="ranaCurledTop-bezier1390" stroke="none" fill="rgb(0, 0, 0)" d="M 12.48,35.8 C 11.68,36.28 10.9,36.8 10.17,37.35 9.81,37.64 9.51,37.97 9.15,38.22 8.79,38.49 8.45,38.73 8.09,39.06 L 8.02,39.04 C 8.01,38.5 8.32,38.04 8.64,37.67 8.98,37.3 9.42,37.08 9.84,36.85 10.68,36.38 11.55,36.02 12.45,35.73 L 12.48,35.8 Z M 12.48,35.8" />
        </g>
        <g id="ranaCurledTop-group1393">
            <path id="ranaCurledTop-bezier1391" stroke="none" fill="rgb(0, 0, 0)" d="M 9.49,35.08 C 8.59,35.72 7.71,36.38 6.87,37.06 6.45,37.41 6.07,37.8 5.64,38.11 5.21,38.43 4.78,38.72 4.33,39.07 L 4.27,39.03 C 4.38,38.44 4.76,37.96 5.15,37.55 5.54,37.14 6.04,36.86 6.52,36.57 7.46,35.98 8.44,35.47 9.45,35.02 L 9.49,35.08 Z M 9.49,35.08" />
        </g>
        <g id="ranaCurledTop-group1394">
            <path id="ranaCurledTop-bezier1392" stroke="none" fill="rgb(0, 0, 0)" d="M 7.47,31.42 C 6.66,31.59 5.84,31.69 5,31.72 4.59,31.73 4.15,31.78 3.74,31.66 3.33,31.53 2.89,31.34 2.62,30.96 L 2.65,30.89 C 3.1,30.9 3.47,30.9 3.86,30.92 4.25,30.94 4.64,31.06 5.04,31.12 5.83,31.22 6.65,31.3 7.47,31.35 L 7.47,31.42 Z M 7.47,31.42" />
        </g>
        <g id="ranaCurledTop-group1395">
            <path id="ranaCurledTop-bezier1393" stroke="none" fill="rgb(0, 0, 0)" d="M 12.73,38.61 C 12.33,39.4 11.85,40.14 11.29,40.84 11.01,41.19 10.74,41.57 10.34,41.82 9.95,42.05 9.47,42.25 8.98,42.17 L 8.96,42.1 C 9.31,41.79 9.58,41.51 9.88,41.22 10.17,40.93 10.53,40.71 10.85,40.43 11.49,39.85 12.09,39.23 12.67,38.57 L 12.73,38.61 Z M 12.73,38.61" />
        </g>
        <g id="ranaCurledTop-group1396">
            <path id="ranaCurledTop-bezier1394" stroke="none" fill="rgb(0, 0, 0)" d="M 14.75,41.03 C 14.14,41.96 13.45,42.83 12.66,43.64 12.27,44.04 11.88,44.47 11.36,44.75 10.86,45.01 10.23,45.24 9.64,45.04 L 9.64,44.97 C 10.16,44.75 10.54,44.44 10.96,44.12 11.37,43.8 11.83,43.52 12.26,43.19 13.1,42.52 13.91,41.77 14.69,40.98 L 14.75,41.03 Z M 14.75,41.03" />
        </g>
        <g id="ranaCurledTop-group1397">
            <path id="ranaCurledTop-bezier1395" stroke="none" fill="rgb(0, 0, 0)" d="M 14.88,45.02 C 14.85,45.84 14.89,46.67 15.03,47.45 15.1,47.85 15.25,48.21 15.32,48.59 L 15.54,49.78 15.48,49.82 C 15.06,49.61 14.78,49.22 14.6,48.81 14.42,48.39 14.43,47.94 14.43,47.51 14.42,46.64 14.56,45.8 14.81,45 L 14.88,45.02 Z M 14.88,45.02" />
        </g>
        <g id="ranaCurledTop-group1398">
            <path id="ranaCurledTop-bezier1396" stroke="none" fill="rgb(0, 0, 0)" d="M 20.09,42.15 C 19.82,43.03 19.6,43.92 19.46,44.81 19.4,45.25 19.41,45.69 19.35,46.11 19.31,46.53 19.25,46.91 19.37,47.38 L 19.32,47.43 C 18.83,47.18 18.64,46.58 18.61,46.1 18.56,45.59 18.73,45.12 18.87,44.67 19.15,43.77 19.55,42.92 20.02,42.12 L 20.09,42.15 Z M 20.09,42.15" />
        </g>
        <g id="ranaCurledTop-group1399">
            <path id="ranaCurledTop-bezier1397" stroke="none" fill="rgb(0, 0, 0)" d="M 21.22,46.67 C 21.51,47.7 21.73,48.76 21.85,49.84 21.91,50.38 22,50.93 21.91,51.49 21.81,52.03 21.64,52.62 21.21,53.03 L 21.15,52.99 C 21.19,52.44 21.17,51.95 21.16,51.43 21.15,50.92 21.23,50.4 21.25,49.87 21.26,48.82 21.22,47.75 21.14,46.68 L 21.22,46.67 Z M 21.22,46.67" />
        </g>
        <g id="ranaCurledTop-group1400">
            <path id="ranaCurledTop-bezier1398" stroke="none" fill="rgb(0, 0, 0)" d="M 17.47,46.98 L 18.38,49.48 C 18.54,49.89 18.75,50.28 18.86,50.7 18.97,51.12 19.01,51.54 19.16,51.96 L 19.12,52.02 C 18.85,51.94 18.68,51.74 18.53,51.56 18.37,51.37 18.26,51.17 18.15,50.96 17.95,50.55 17.89,50.09 17.8,49.65 17.61,48.77 17.48,47.89 17.39,47 L 17.47,46.98 Z M 17.47,46.98" />
        </g>
        <g id="ranaCurledTop-group1401">
            <path id="ranaCurledTop-bezier1399" stroke="none" fill="rgb(0, 0, 0)" d="M 22.61,43.79 C 22.89,44.21 23.21,44.6 23.55,44.93 23.72,45.09 23.93,45.19 24.06,45.36 24.2,45.54 24.32,45.71 24.49,45.98 L 24.47,46.06 C 24.16,46.17 23.84,46.09 23.59,45.94 23.33,45.8 23.2,45.53 23.07,45.29 22.8,44.83 22.63,44.33 22.54,43.81 L 22.61,43.79 Z M 22.61,43.79" />
        </g>
        <g id="ranaCurledTop-group1402">
            <path id="ranaCurledTop-bezier1400" stroke="none" fill="rgb(0, 0, 0)" d="M 25.01,43.77 C 25.45,44.07 25.91,44.32 26.36,44.49 26.6,44.57 26.84,44.57 27.03,44.66 27.23,44.76 27.42,44.85 27.72,44.97 L 27.74,45.04 C 27.54,45.32 27.18,45.42 26.88,45.4 26.56,45.38 26.31,45.18 26.08,45.02 25.61,44.69 25.25,44.28 24.95,43.83 L 25.01,43.77 Z M 25.01,43.77" />
        </g>
        <g id="ranaCurledTop-group1403">
            <path id="ranaCurledTop-bezier1401" stroke="none" fill="rgb(0, 0, 0)" d="M 27.74,43.52 C 28.54,43.72 29.37,43.84 30.14,43.77 30.53,43.73 30.87,43.59 31.2,43.49 31.53,43.39 31.84,43.24 32.23,42.99 L 32.29,43.03 C 32.26,43.5 31.93,43.93 31.51,44.17 31.08,44.42 30.58,44.41 30.15,44.37 29.26,44.3 28.45,44 27.71,43.59 L 27.74,43.52 Z M 27.74,43.52" />
        </g>
        <g id="ranaCurledTop-group1404">
            <path id="ranaCurledTop-bezier1402" stroke="none" fill="rgb(0, 0, 0)" d="M 31.1,42.73 C 31.11,42.24 31.32,41.76 31.62,41.35 31.77,41.15 31.92,40.91 32.16,40.82 32.4,40.72 32.67,40.68 32.96,40.77 L 32.99,40.83 C 32.87,41.12 32.72,41.28 32.58,41.44 32.43,41.59 32.23,41.66 32.05,41.77 31.71,42.02 31.38,42.34 31.17,42.74 L 31.1,42.73 Z M 31.1,42.73" />
        </g>
        <g id="ranaCurledTop-group1405">
            <path id="ranaCurledTop-bezier1403" stroke="none" fill="rgb(0, 0, 0)" d="M 34.5,31.22 C 33.92,31.19 33.35,30.96 32.87,30.57 32.63,30.39 32.37,30.18 32.25,29.88 32.15,29.59 32.11,29.26 32.23,28.94 L 32.3,28.92 C 32.57,29.13 32.74,29.32 32.91,29.51 33.07,29.7 33.14,29.94 33.3,30.15 33.6,30.55 34.02,30.91 34.52,31.15 L 34.5,31.22 Z M 34.5,31.22" />
        </g>
        <g id="ranaCurledTop-group1406">
            <path id="ranaCurledTop-bezier1404" stroke="none" fill="rgb(0, 0, 0)" d="M 34.52,29.27 C 34.25,29.46 33.8,29.43 33.5,29.17 33.34,29.05 33.18,28.92 33.16,28.73 33.14,28.55 33.18,28.36 33.35,28.18 L 33.42,28.16 C 33.65,28.27 33.76,28.36 33.85,28.45 33.94,28.54 33.91,28.67 33.95,28.77 34.02,28.96 34.2,29.16 34.5,29.2 L 34.52,29.27 Z M 34.52,29.27" />
        </g>
        <g id="ranaCurledTop-group1407">
            <path id="ranaCurledTop-bezier1405" stroke="none" fill="rgb(0, 0, 0)" d="M 31.16,23.19 C 31.77,23.54 31.97,24.29 32.25,24.83 32.39,25.1 32.57,25.34 32.8,25.49 33.03,25.67 33.28,25.66 33.68,25.88 34.35,26.27 34.78,26.87 35.05,27.48 35.19,27.79 35.3,28.1 35.4,28.4 35.51,28.7 35.58,29.02 35.81,29.2 L 35.8,29.28 C 35.38,29.26 35.15,28.89 34.94,28.65 34.73,28.38 34.56,28.1 34.39,27.83 34.05,27.3 33.8,26.72 33.36,26.39 33.2,26.25 32.77,26.14 32.5,25.88 32.21,25.63 32.02,25.3 31.91,24.98 31.69,24.34 31.63,23.67 31.12,23.25 L 31.16,23.19 Z M 31.16,23.19" />
        </g>
        <g id="ranaCurledTop-group1408">
            <path id="ranaCurledTop-bezier1406" stroke="none" fill="rgb(0, 0, 0)" d="M 33.69,41.18 C 33.78,40.64 33.91,40.11 34.08,39.58 34.28,39.06 34.47,38.52 34.96,38.07 35.13,37.94 35.19,37.9 35.23,37.83 35.29,37.76 35.33,37.67 35.37,37.57 35.44,37.37 35.51,37.13 35.57,36.88 35.65,36.64 35.71,36.37 35.82,36.11 35.93,35.86 36.03,35.51 36.37,35.39 L 36.41,35.46 C 36.25,35.9 36.4,36.47 36.31,37.03 36.27,37.31 36.2,37.61 36.03,37.89 35.95,38.04 35.85,38.18 35.71,38.3 35.57,38.43 35.38,38.51 35.33,38.54 34.97,38.78 34.67,39.27 34.43,39.72 34.17,40.19 33.95,40.69 33.76,41.2 L 33.69,41.18 Z M 33.69,41.18" />
        </g>
        <g id="ranaCurledTop-group1409">
            <path id="ranaCurledTop-bezier1407" stroke="none" fill="rgb(0, 0, 0)" d="M 36.12,33.69 C 36.39,33.38 36.71,33.12 37.09,32.91 37.28,32.81 37.48,32.67 37.72,32.69 37.95,32.71 38.23,32.81 38.36,33.08 L 38.33,33.15 C 38.09,33.28 37.96,33.37 37.81,33.43 37.66,33.5 37.48,33.46 37.29,33.48 36.93,33.54 36.54,33.63 36.16,33.75 L 36.12,33.69 Z M 36.12,33.69" />
        </g>
        <g id="ranaCurledTop-group1410">
            <path id="ranaCurledTop-bezier1408" stroke="none" fill="rgb(0, 0, 0)" d="M 36.14,31.4 C 36.52,31.35 36.87,31.24 37.14,31.07 37.28,30.98 37.34,30.84 37.47,30.8 37.61,30.75 37.75,30.69 38.02,30.62 L 38.09,30.65 C 38.19,30.9 38.12,31.17 37.97,31.36 37.82,31.56 37.56,31.61 37.34,31.64 36.9,31.72 36.49,31.64 36.13,31.48 L 36.14,31.4 Z M 36.14,31.4" />
        </g>
        <g id="ranaCurledTop-group1411">
            <path id="ranaCurledTop-bezier1409" stroke="none" fill="rgb(0, 0, 0)" d="M 36.86,28.89 C 36.94,28.71 37.04,28.32 37.13,28.04 37.24,27.73 37.37,27.43 37.53,27.13 37.69,26.84 37.87,26.5 38.24,26.32 38.6,26.14 39.1,26.17 39.35,26.47 L 39.33,26.54 C 38.98,26.66 38.81,26.8 38.64,26.96 38.47,27.12 38.22,27.26 38.02,27.48 37.82,27.7 37.64,27.95 37.47,28.21 L 37.19,28.6 37.05,28.79 C 36.99,28.85 36.99,28.95 36.83,28.96 L 36.86,28.89 Z M 36.86,28.89" />
        </g>
        <g id="ranaCurledTop-group1412">
            <path id="ranaCurledTop-bezier1410" stroke="none" fill="rgb(0, 0, 0)" d="M 37.56,35.98 C 37.92,35.15 38.39,34.37 39.01,33.67 39.31,33.32 39.64,32.94 40.1,32.75 40.54,32.55 41.09,32.48 41.55,32.68 L 41.55,32.75 C 41.12,32.97 40.79,33.16 40.46,33.41 40.13,33.64 39.76,33.83 39.42,34.1 38.77,34.65 38.16,35.31 37.63,36.02 L 37.56,35.98 Z M 37.56,35.98" />
        </g>
        <g id="ranaCurledTop-group1413">
            <path id="ranaCurledTop-bezier1411" stroke="none" fill="rgb(0, 0, 0)" d="M 39.86,36.32 C 40.42,35.74 41.01,35.19 41.67,34.71 41.99,34.46 42.31,34.18 42.72,34.05 43.11,33.93 43.58,33.83 44.01,34.04 L 44.01,34.11 C 43.64,34.32 43.36,34.53 43.03,34.73 42.71,34.93 42.34,35.05 41.99,35.22 41.29,35.57 40.6,35.97 39.91,36.38 L 39.86,36.32 Z M 39.86,36.32" />
        </g>
        <g id="ranaCurledTop-group1414">
            <path id="ranaCurledTop-bezier1412" stroke="none" fill="rgb(0, 0, 0)" d="M 37.63,37.71 C 38,38.01 38.39,38.28 38.77,38.5 38.98,38.6 39.19,38.64 39.34,38.76 39.51,38.88 39.63,39.01 39.88,39.18 L 39.89,39.25 C 39.67,39.5 39.32,39.51 39.05,39.45 38.77,39.38 38.58,39.16 38.41,38.97 38.05,38.61 37.78,38.2 37.56,37.75 L 37.63,37.71 Z M 37.63,37.71" />
        </g>
        <g id="ranaCurledTop-group1415">
            <path id="ranaCurledTop-bezier1413" stroke="none" fill="rgb(0, 0, 0)" d="M 37.44,40.8 C 37.6,41.21 37.78,41.61 37.99,41.97 38.1,42.14 38.26,42.27 38.32,42.43 38.39,42.59 38.39,42.73 38.56,42.97 L 38.55,43.05 C 38.27,43.23 37.91,43.07 37.72,42.88 37.51,42.69 37.48,42.42 37.43,42.18 37.32,41.72 37.31,41.26 37.36,40.81 L 37.44,40.8 Z M 37.44,40.8" />
        </g>
        <g id="ranaCurledTop-group1416">
            <path id="ranaCurledTop-bezier1414" stroke="none" fill="rgb(0, 0, 0)" d="M 34.33,44.05 C 34.69,44.26 35.06,44.45 35.42,44.6 35.6,44.67 35.8,44.69 35.94,44.8 36.09,44.91 36.21,45.04 36.39,45.26 L 36.38,45.34 C 36.15,45.52 35.88,45.53 35.65,45.49 35.41,45.44 35.25,45.25 35.09,45.1 34.76,44.81 34.49,44.47 34.28,44.1 L 34.33,44.05 Z M 34.33,44.05" />
        </g>
        <g id="ranaCurledTop-group1417">
            <path id="ranaCurledTop-bezier1415" stroke="none" fill="rgb(0, 0, 0)" d="M 23.56,49.29 C 23.9,50.1 24.24,50.91 24.6,51.7 24.78,52.09 25.01,52.46 25.14,52.86 25.28,53.26 25.34,53.67 25.53,54.06 L 25.49,54.12 C 25.22,54.08 25.03,53.9 24.87,53.73 24.7,53.56 24.57,53.36 24.46,53.17 24.22,52.77 24.14,52.33 24.03,51.9 23.8,51.04 23.62,50.18 23.49,49.31 L 23.56,49.29 Z M 23.56,49.29" />
        </g>
        <g id="ranaCurledTop-group1418">
            <path id="ranaCurledTop-bezier1416" stroke="none" fill="rgb(0, 0, 0)" d="M 25.97,46.99 C 25.97,47.85 26.01,48.7 26.14,49.52 26.21,49.93 26.36,50.31 26.44,50.67 26.54,51.03 26.6,51.35 26.94,51.66 L 26.92,51.73 C 26.4,51.84 25.92,51.35 25.74,50.93 25.53,50.48 25.54,50.01 25.54,49.57 25.54,48.68 25.68,47.82 25.89,46.98 L 25.97,46.99 Z M 25.97,46.99" />
        </g>
        <g id="ranaCurledTop-group1419">
            <path id="ranaCurledTop-bezier1417" stroke="none" fill="rgb(0, 0, 0)" d="M 28.08,48.73 C 28.74,49.31 29.4,49.86 30.08,50.38 30.43,50.63 30.8,50.84 31.11,51.11 31.43,51.39 31.7,51.67 32.06,51.95 L 32.05,52.02 C 31.55,52.14 31.07,51.94 30.68,51.73 30.28,51.5 29.98,51.15 29.68,50.83 29.07,50.19 28.52,49.5 28.02,48.78 L 28.08,48.73 Z M 28.08,48.73" />
        </g>
        <g id="ranaCurledTop-group1420">
            <path id="ranaCurledTop-bezier1418" stroke="none" fill="rgb(0, 0, 0)" d="M 31.16,48.14 C 31.99,48.5 32.79,48.92 33.54,49.44 33.93,49.69 34.33,49.93 34.62,50.32 34.9,50.69 35.16,51.17 35.09,51.69 L 35.02,51.71 C 34.7,51.36 34.39,51.11 34.07,50.83 33.75,50.56 33.49,50.21 33.17,49.91 32.53,49.31 31.84,48.75 31.12,48.21 L 31.16,48.14 Z M 31.16,48.14" />
        </g>
        <g id="ranaCurledTop-group1421">
            <path id="ranaCurledTop-bezier1419" stroke="none" fill="rgb(0, 0, 0)" d="M 30.02,53.15 C 30.89,53.57 31.78,53.96 32.67,54.29 33.12,54.45 33.59,54.54 34.02,54.71 34.45,54.89 34.86,55.07 35.34,55.22 L 35.35,55.3 C 34.87,55.56 34.3,55.52 33.81,55.44 33.3,55.34 32.86,55.08 32.43,54.84 31.55,54.37 30.74,53.82 29.98,53.21 L 30.02,53.15 Z M 30.02,53.15" />
        </g>
        <g id="ranaCurledTop-group1422">
            <path id="ranaCurledTop-bezier1420" stroke="none" fill="rgb(0, 0, 0)" d="M 35.08,47.38 C 35.47,47.61 35.9,47.74 36.31,47.76 36.52,47.77 36.71,47.71 36.91,47.74 37.11,47.79 37.31,47.83 37.59,47.97 L 37.61,48.04 C 37.44,48.3 37.19,48.44 36.94,48.49 36.67,48.56 36.41,48.44 36.17,48.35 35.69,48.17 35.28,47.84 35.03,47.43 L 35.08,47.38 Z M 35.08,47.38" />
        </g>
        <g id="ranaCurledTop-group1423">
            <path id="ranaCurledTop-bezier1421" stroke="none" fill="rgb(0, 0, 0)" d="M 38.12,50.86 C 38.5,51.08 38.81,51.43 39,51.87 39.1,52.07 39.22,52.31 39.18,52.55 39.13,52.79 39.02,53.02 38.78,53.18 L 38.71,53.17 C 38.54,52.92 38.49,52.74 38.43,52.57 38.38,52.4 38.43,52.22 38.42,52.03 38.39,51.66 38.28,51.27 38.07,50.91 L 38.12,50.86 Z M 38.12,50.86" />
        </g>
        <g id="ranaCurledTop-group1424">
            <path id="ranaCurledTop-bezier1422" stroke="none" fill="rgb(0, 0, 0)" d="M 41.99,49.93 C 42.17,50.77 42.38,51.61 42.63,52.42 42.76,52.82 42.94,53.2 43.03,53.59 43.14,53.98 43.18,54.36 43.41,54.72 L 43.38,54.79 C 43.11,54.78 42.89,54.61 42.73,54.43 42.55,54.26 42.44,54.05 42.33,53.85 42.13,53.43 42.1,52.98 42.04,52.54 41.92,51.67 41.89,50.81 41.91,49.94 L 41.99,49.93 Z M 41.99,49.93" />
        </g>
        <g id="ranaCurledTop-group1425">
            <path id="ranaCurledTop-bezier1423" stroke="none" fill="rgb(0, 0, 0)" d="M 47.29,49.96 C 47.01,50.56 46.67,51.13 46.23,51.66 46.02,51.93 45.81,52.22 45.47,52.38 45.16,52.54 44.68,52.64 44.35,52.37 L 44.36,52.3 C 44.68,52.14 44.84,51.95 45.07,51.75 45.28,51.56 45.56,51.43 45.81,51.23 46.3,50.84 46.77,50.39 47.23,49.92 L 47.29,49.96 Z M 47.29,49.96" />
        </g>
        <g id="ranaCurledTop-group1426">
            <path id="ranaCurledTop-bezier1424" stroke="none" fill="rgb(0, 0, 0)" d="M 52.36,53.5 C 51.65,53.45 50.94,53.27 50.29,52.88 49.97,52.69 49.62,52.45 49.45,52.07 49.28,51.69 49.26,51.23 49.47,50.88 L 49.55,50.88 C 49.75,51.23 49.91,51.47 50.09,51.69 50.28,51.9 50.42,52.17 50.65,52.4 51.13,52.83 51.74,53.17 52.38,53.43 L 52.36,53.5 Z M 52.36,53.5" />
        </g>
        <g id="ranaCurledTop-group1427">
            <path id="ranaCurledTop-bezier1425" stroke="none" fill="rgb(0, 0, 0)" d="M 71.64,29.28 C 71.17,28.59 70.67,27.92 70.12,27.34 69.83,27.05 69.51,26.82 69.25,26.57 68.97,26.33 68.75,26.1 68.31,25.99 L 68.29,25.92 C 68.68,25.59 69.31,25.73 69.69,25.97 70.1,26.21 70.35,26.6 70.58,26.96 71.07,27.68 71.43,28.45 71.7,29.24 L 71.64,29.28 Z M 71.64,29.28" />
        </g>
        <g id="ranaCurledTop-group1428">
            <path id="ranaCurledTop-bezier1426" stroke="none" fill="rgb(0, 0, 0)" d="M 71.15,24.69 C 71.73,24.07 72.29,23.45 72.81,22.81 73.07,22.48 73.27,22.12 73.54,21.84 73.8,21.54 74.11,21.31 74.27,20.93 L 74.34,20.92 C 74.49,21.13 74.46,21.42 74.41,21.64 74.36,21.88 74.26,22.09 74.15,22.28 73.92,22.67 73.57,22.94 73.24,23.22 72.6,23.79 71.92,24.29 71.2,24.75 L 71.15,24.69 Z M 71.15,24.69" />
        </g>
        <g id="ranaCurledTop-group1429">
            <path id="ranaCurledTop-bezier1427" stroke="none" fill="rgb(0, 0, 0)" d="M 65.97,21.35 C 66.78,21.16 67.6,21.03 68.45,20.99 68.87,20.97 69.3,20.91 69.73,21.05 69.94,21.11 70.16,21.2 70.35,21.34 70.54,21.48 70.74,21.68 70.77,21.93 L 70.7,21.97 C 70.33,21.79 69.98,21.82 69.59,21.78 69.21,21.76 68.83,21.65 68.43,21.59 67.62,21.5 66.8,21.45 65.98,21.42 L 65.97,21.35 Z M 65.97,21.35" />
        </g>
        <g id="ranaCurledTop-group1430">
            <path id="ranaCurledTop-bezier1428" stroke="none" fill="rgb(0, 0, 0)" d="M 67.47,19.26 C 67.98,18.75 68.47,18.23 68.88,17.68 69.08,17.4 69.22,17.09 69.42,16.85 69.61,16.59 69.8,16.38 69.95,16.02 L 70.02,16.01 C 70.31,16.36 70.22,16.86 70.07,17.22 69.91,17.59 69.6,17.84 69.32,18.08 68.77,18.58 68.16,18.98 67.52,19.32 L 67.47,19.26 Z M 67.47,19.26" />
        </g>
        <g id="ranaCurledTop-group1431">
            <path id="ranaCurledTop-bezier1429" stroke="none" fill="rgb(0, 0, 0)" d="M 41.25,7.27 C 42.02,6.79 42.83,6.38 43.69,6.05 44.12,5.88 44.55,5.69 45.03,5.66 45.5,5.64 46,5.68 46.43,5.95 L 46.42,6.02 C 45.96,6.17 45.56,6.29 45.15,6.4 44.73,6.52 44.29,6.54 43.86,6.63 43,6.81 42.13,7.06 41.28,7.33 L 41.25,7.27 Z M 41.25,7.27" />
        </g>
        <g id="ranaCurledTop-group1432">
            <path id="ranaCurledTop-bezier1430" stroke="none" fill="rgb(0, 0, 0)" d="M 47.85,31.47 C 47.92,32.13 48,32.78 48.12,33.41 48.18,33.72 48.3,34.02 48.32,34.31 48.36,34.61 48.31,34.87 48.46,35.18 L 48.43,35.25 C 48.22,35.27 48.01,35.12 47.88,34.98 47.74,34.83 47.66,34.66 47.59,34.49 47.46,34.15 47.5,33.79 47.52,33.45 47.54,32.78 47.63,32.12 47.78,31.47 L 47.85,31.47 Z M 47.85,31.47" />
        </g>
        <g id="ranaCurledTop-group1433">
            <path id="ranaCurledTop-bezier1431" stroke="none" fill="rgb(0, 0, 0)" d="M 54.11,33.74 C 53.5,33.33 52.89,32.93 52.27,32.57 51.96,32.39 51.62,32.27 51.35,32.07 51.06,31.88 50.84,31.66 50.49,31.51 L 50.47,31.43 C 50.86,31.16 51.34,31.29 51.69,31.41 52.07,31.55 52.34,31.83 52.62,32.08 53.19,32.57 53.7,33.11 54.16,33.69 L 54.11,33.74 Z M 54.11,33.74" />
        </g>
        <g id="ranaCurledTop-group1434">
            <path id="ranaCurledTop-bezier1432" stroke="none" fill="rgb(0, 0, 0)" d="M 13.38,19.43 C 13.35,18.42 13.29,17.41 13.17,16.41 13.11,15.92 12.98,15.44 12.93,14.97 12.87,14.48 12.86,14.03 12.67,13.55 L 12.72,13.49 C 13.26,13.74 13.51,14.32 13.67,14.82 13.82,15.33 13.78,15.87 13.77,16.38 13.76,17.42 13.64,18.43 13.45,19.44 L 13.38,19.43 Z M 13.38,19.43" />
        </g>
        <g id="ranaCurledTop-group1435">
            <path id="ranaCurledTop-bezier1433" stroke="none" fill="rgb(0, 0, 0)" d="M 22.23,22.27 C 22.34,21.72 22.5,21.18 22.75,20.65 22.86,20.39 22.97,20.09 23.22,19.89 23.45,19.7 23.82,19.5 24.17,19.67 L 24.18,19.74 C 23.97,19.98 23.91,20.18 23.77,20.39 23.65,20.6 23.43,20.76 23.26,20.97 22.93,21.38 22.61,21.84 22.3,22.3 L 22.23,22.27 Z M 22.23,22.27" />
        </g>
        <g id="ranaCurledTop-group1436">
            <path id="ranaCurledTop-bezier1434" stroke="none" fill="rgb(0, 0, 0)" d="M 24.81,22.25 C 25.32,21.95 25.85,21.71 26.43,21.54 26.72,21.45 27.02,21.33 27.34,21.39 27.65,21.44 28.02,21.58 28.19,21.92 L 28.15,21.98 C 27.82,22.03 27.59,22.1 27.33,22.14 27.08,22.18 26.81,22.13 26.53,22.13 25.98,22.16 25.41,22.23 24.84,22.32 L 24.81,22.25 Z M 24.81,22.25" />
        </g>
        <g id="ranaCurledTop-group1437">
            <path id="ranaCurledTop-bezier1435" stroke="none" fill="rgb(0, 0, 0)" d="M 32.23,21.02 C 31.66,20.58 31.15,20.04 30.78,19.36 30.6,19.03 30.4,18.63 30.47,18.19 30.54,17.76 30.83,17.34 31.23,17.23 L 31.29,17.28 C 31.2,17.68 31.19,17.95 31.22,18.23 31.26,18.5 31.25,18.81 31.34,19.13 31.53,19.76 31.88,20.39 32.29,20.97 L 32.23,21.02 Z M 32.23,21.02" />
        </g>
        <g id="ranaCurledTop-group1438">
            <path id="ranaCurledTop-bezier1436" stroke="none" fill="rgb(0, 0, 0)" d="M 15.48,16.95 C 15.83,15.91 16.16,14.86 16.44,13.81 16.57,13.29 16.63,12.75 16.78,12.25 16.92,11.74 17.1,11.26 17.1,10.71 L 17.17,10.68 C 17.58,11.17 17.56,11.84 17.52,12.39 17.45,12.97 17.22,13.49 17.01,14 16.59,15.04 16.1,16.03 15.55,16.98 L 15.48,16.95 Z M 15.48,16.95" />
        </g>
        <g id="ranaCurledTop-group1439">
            <path id="ranaCurledTop-bezier1437" stroke="none" fill="rgb(0, 0, 0)" d="M 20.02,19 C 19.65,18.34 19.34,17.64 19.11,16.9 18.99,16.54 18.84,16.16 18.86,15.76 18.88,15.36 18.97,14.91 19.31,14.61 L 19.38,14.64 C 19.45,15.04 19.54,15.36 19.61,15.71 19.68,16.05 19.66,16.41 19.69,16.78 19.79,17.5 19.92,18.24 20.09,18.97 L 20.02,19 Z M 20.02,19" />
        </g>
        <g id="ranaCurledTop-group1440">
            <path id="ranaCurledTop-bezier1438" stroke="none" fill="rgb(0, 0, 0)" d="M 20.65,10.83 C 21.19,10.35 21.67,9.79 22.01,9.2 22.17,8.89 22.24,8.57 22.38,8.29 22.51,7.99 22.61,7.7 22.75,7.31 L 22.82,7.29 C 23.1,7.62 23.16,8.07 23.1,8.49 23.03,8.91 22.76,9.25 22.5,9.54 21.99,10.14 21.36,10.58 20.69,10.89 L 20.65,10.83 Z M 20.65,10.83" />
        </g>
    </g>
</svg>
