<?xml version="1.0" encoding="UTF-8"?>
<!DOCTYPE svg PUBLIC "-//W3C//DTD SVG 1.1//EN" "http://www.w3.org/Graphics/SVG/1.1/DTD/svg11.dtd">
<svg version="1.1" xmlns="http://www.w3.org/2000/svg" xmlns:xlink="http://www.w3.org/1999/xlink" width="120" height="60"  xml:space="preserve" id="ranaSideLeft3">
    <!-- Generated by PaintCode - http://www.paintcodeapp.com -->
    <g id="ranaSideLeft3-group">
        <g id="ranaSideLeft3-group227">
            <path id="ranaSideLeft3-bezier226" stroke="none" fill="rgb(0, 0, 0)" d="M 11.57,39.19 C 11.58,40.01 12.21,40.92 13.19,40.96 14.13,41.03 15.06,40.2 15.07,39.19 15.1,38.7 14.92,38.19 14.57,37.81 14.22,37.43 13.7,37.21 13.19,37.23 12.67,37.25 12.19,37.54 11.93,37.93 11.65,38.32 11.55,38.77 11.57,39.19 Z M 11.64,39.19 C 11.65,38.78 11.9,38.41 12.21,38.21 12.53,38.01 12.87,37.96 13.19,37.98 13.81,38.01 14.43,38.49 14.47,39.19 14.53,39.87 13.94,40.57 13.19,40.59 12.82,40.62 12.43,40.5 12.12,40.26 11.82,40 11.62,39.6 11.64,39.19 Z M 11.64,39.19" />
        </g>
        <g id="ranaSideLeft3-group316">
            <path id="ranaSideLeft3-bezier315" stroke="none" fill="rgb(0, 0, 0)" d="M 65.73,56.29 C 65.4,56.44 65.1,56.64 64.83,56.89 64.69,57.01 64.51,57.13 64.46,57.34 64.42,57.53 64.43,57.79 64.63,57.98 L 64.71,57.98 C 64.92,57.83 65.03,57.77 65.14,57.66 65.24,57.56 65.25,57.4 65.31,57.24 65.44,56.95 65.6,56.65 65.78,56.35 L 65.73,56.29 Z M 65.73,56.29" />
        </g>
        <g id="ranaSideLeft3-group317">
            <path id="ranaSideLeft3-bezier316" stroke="none" fill="rgb(0, 0, 0)" d="M 63.82,56.12 C 63.5,56.26 63.22,56.48 63,56.77 62.89,56.91 62.74,57.06 62.74,57.25 62.74,57.45 62.81,57.65 63.01,57.82 L 63.08,57.82 C 63.29,57.66 63.38,57.55 63.47,57.44 63.55,57.33 63.51,57.18 63.54,57.04 63.6,56.76 63.71,56.47 63.87,56.18 L 63.82,56.12 Z M 63.82,56.12" />
        </g>
        <g id="ranaSideLeft3-group318">
            <path id="ranaSideLeft3-bezier317" stroke="none" fill="rgb(0, 0, 0)" d="M 62.09,56.65 C 61.73,56.57 61.34,56.55 60.94,56.71 60.75,56.77 60.5,56.88 60.4,57.12 60.31,57.36 60.35,57.64 60.55,57.82 L 60.62,57.82 C 60.84,57.65 60.94,57.58 61.04,57.52 61.13,57.46 61.15,57.33 61.25,57.22 61.45,57.03 61.77,56.86 62.1,56.73 L 62.09,56.65 Z M 62.09,56.65" />
        </g>
        <g id="ranaSideLeft3-group319">
            <path id="ranaSideLeft3-bezier318" stroke="none" fill="rgb(0, 0, 0)" d="M 65.74,57.85 C 66.16,57.95 66.73,57.92 67.02,57.46 67.16,57.25 67.18,56.98 67.21,56.78 L 67.3,56.11 C 67.4,55.23 67.28,54.19 66.62,53.43 66.27,53.03 66.02,52.81 65.77,52.44 L 65.04,51.38 C 64.54,50.67 64.05,49.95 63.48,49.24 L 63.41,49.28 C 63.61,50.16 63.97,50.99 64.41,51.78 64.64,52.17 64.89,52.55 65.19,52.9 65.47,53.24 65.91,53.59 66.17,53.83 66.75,54.38 66.94,55.23 66.92,56.09 66.9,56.51 66.96,57.01 66.82,57.35 66.67,57.72 66.17,57.83 65.76,57.78 L 65.74,57.85 Z M 65.74,57.85" />
        </g>
        <g id="ranaSideLeft3-group320">
            <path id="ranaSideLeft3-bezier319" stroke="none" fill="rgb(0, 0, 0)" d="M 63.07,55.29 L 60.24,51.37 C 59.78,50.71 59.36,50.02 58.86,49.4 58.35,48.78 57.83,48.18 57.24,47.6 L 57.18,47.63 C 57.41,48.44 57.82,49.15 58.25,49.84 58.69,50.53 59.24,51.12 59.77,51.74 60.81,52.97 61.9,54.17 63.01,55.34 L 63.07,55.29 Z M 63.07,55.29" />
        </g>
        <g id="ranaSideLeft3-group330">
            <path id="ranaSideLeft3-bezier329" stroke="none" fill="rgb(0, 0, 0)" d="M 50.76,49.21 C 50.15,50.25 49.51,51.27 48.84,52.25 48.49,52.73 48.1,53.17 47.78,53.66 47.45,54.14 47.17,54.62 46.74,55.05 L 46.76,55.12 C 47.43,55.03 47.95,54.56 48.37,54.12 48.79,53.66 49.06,53.1 49.35,52.56 49.92,51.49 50.41,50.38 50.83,49.24 L 50.76,49.21 Z M 50.76,49.21" />
        </g>
        <g id="ranaSideLeft3-group331">
            <path id="ranaSideLeft3-bezier330" stroke="none" fill="rgb(0, 0, 0)" d="M 46.47,53.51 C 46.25,53.93 46.02,54.34 45.77,54.73 45.52,55.13 45.25,55.52 44.95,55.82 44.65,56.11 44.34,56.12 43.92,56.16 43.5,56.2 42.98,56.19 42.5,56.4 L 42.5,56.47 C 42.97,56.68 43.39,56.84 43.91,56.91 44.43,57 45.11,56.69 45.41,56.22 45.72,55.79 45.91,55.35 46.1,54.9 46.27,54.45 46.41,54 46.54,53.53 L 46.47,53.51 Z M 46.47,53.51" />
        </g>
        <g id="ranaSideLeft3-group332">
            <path id="ranaSideLeft3-bezier331" stroke="none" fill="rgb(0, 0, 0)" d="M 41.99,55.32 C 41.62,55.28 41.24,55.31 40.85,55.45 40.67,55.51 40.42,55.58 40.3,55.81 40.19,56.03 40.17,56.34 40.38,56.53 L 40.45,56.53 C 40.67,56.36 40.79,56.34 40.89,56.28 40.99,56.23 41.04,56.08 41.16,55.97 41.39,55.76 41.69,55.56 42.01,55.39 L 41.99,55.32 Z M 41.99,55.32" />
        </g>
        <g id="ranaSideLeft3-group333">
            <path id="ranaSideLeft3-bezier332" stroke="none" fill="rgb(0, 0, 0)" d="M 39.82,55.32 C 39.5,55.33 39.18,55.39 38.87,55.56 38.72,55.63 38.52,55.71 38.45,55.91 38.38,56.1 38.38,56.37 38.59,56.53 L 38.66,56.53 C 38.88,56.39 38.98,56.38 39.08,56.32 39.16,56.27 39.18,56.14 39.25,56.02 39.41,55.81 39.62,55.6 39.85,55.39 L 39.82,55.32 Z M 39.82,55.32" />
        </g>
        <g id="ranaSideLeft3-group334">
            <path id="ranaSideLeft3-bezier333" stroke="none" fill="rgb(0, 0, 0)" d="M 40.14,54.47 C 40.51,54.3 40.91,54.18 41.3,54.15 41.49,54.14 41.69,54.15 41.87,54.19 41.95,54.21 42.08,54.24 42.18,54.25 42.31,54.26 42.44,54.24 42.54,54.22 43.42,53.99 44.1,53.44 44.69,52.81 44.98,52.49 45.26,52.1 45.37,51.61 45.48,51.18 45.51,50.75 45.52,50.34 45.54,49.51 45.42,48.72 45.53,47.92 L 45.46,47.88 C 45.19,48.23 45.07,48.66 44.97,49.07 44.87,49.48 44.82,49.89 44.77,50.29 44.73,50.7 44.7,51.1 44.65,51.46 44.62,51.79 44.45,52.12 44.23,52.43 43.77,53.03 43.15,53.61 42.45,53.86 42.19,54 41.68,53.8 41.27,53.93 40.85,54.02 40.46,54.19 40.11,54.41 L 40.14,54.47 Z M 40.14,54.47" />
        </g>
        <g id="ranaSideLeft3-group350">
            <path id="ranaSideLeft3-bezier349" stroke="none" fill="rgb(0, 0, 0)" d="M 29.79,25.14 C 30.82,25.08 31.86,25.06 32.88,25.09 33.4,25.12 33.9,25.21 34.4,25.2 34.9,25.19 35.39,25.18 35.94,25.13 L 35.97,25.06 C 35.53,24.71 34.99,24.54 34.46,24.45 33.93,24.36 33.39,24.44 32.86,24.49 31.81,24.59 30.78,24.79 29.77,25.06 L 29.79,25.14 Z M 29.79,25.14" />
        </g>
        <g id="ranaSideLeft3-group351">
            <path id="ranaSideLeft3-bezier350" stroke="none" fill="rgb(0, 0, 0)" d="M 34.49,28.9 C 35.28,29.09 36.02,29.43 36.71,29.82 37.05,30.03 37.35,30.29 37.7,30.46 38.06,30.64 38.42,30.81 38.86,30.91 L 38.91,30.86 C 38.73,30.43 38.44,30.11 38.11,29.84 37.78,29.56 37.36,29.42 36.96,29.28 36.17,28.98 35.33,28.8 34.49,28.82 L 34.49,28.9 Z M 34.49,28.9" />
        </g>
        <g id="ranaSideLeft3-group352">
            <path id="ranaSideLeft3-bezier351" stroke="none" fill="rgb(0, 0, 0)" d="M 36.68,27.77 C 38,28.31 39.3,28.91 40.54,29.59 41.16,29.94 41.73,30.35 42.33,30.69 42.94,31.03 43.53,31.39 44.14,31.79 L 44.2,31.74 C 43.89,31.05 43.33,30.51 42.75,30.06 42.16,29.61 41.48,29.33 40.81,29.05 39.48,28.47 38.1,28.03 36.7,27.7 L 36.68,27.77 Z M 36.68,27.77" />
        </g>
        <g id="ranaSideLeft3-group353">
            <path id="ranaSideLeft3-bezier352" stroke="none" fill="rgb(0, 0, 0)" d="M 102.88,36.67 C 103.55,37.19 104.22,37.71 104.87,38.23 105.19,38.5 105.48,38.81 105.84,39.02 106.2,39.23 106.56,39.42 107,39.57 L 107.05,39.52 C 106.89,39.07 106.6,38.73 106.29,38.43 105.98,38.12 105.58,37.94 105.21,37.74 104.46,37.31 103.7,36.94 102.91,36.6 L 102.88,36.67 Z M 102.88,36.67" />
        </g>
        <g id="ranaSideLeft3-group354">
            <path id="ranaSideLeft3-bezier353" stroke="none" fill="rgb(0, 0, 0)" d="M 106.01,37.18 C 106.75,37.57 107.47,37.96 108.19,38.35 108.54,38.55 108.87,38.8 109.25,38.94 109.63,39.08 110.02,39.21 110.47,39.25 L 110.51,39.19 C 110.27,38.79 109.94,38.51 109.59,38.28 109.24,38.04 108.83,37.94 108.43,37.8 107.65,37.52 106.85,37.29 106.04,37.11 L 106.01,37.18 Z M 106.01,37.18" />
        </g>
        <g id="ranaSideLeft3-group355">
            <path id="ranaSideLeft3-bezier354" stroke="none" fill="rgb(0, 0, 0)" d="M 107.64,36.05 C 108.34,35.96 109.05,35.94 109.72,36 110.06,36.05 110.37,36.16 110.69,36.18 111.02,36.2 111.33,36.22 111.74,36.23 L 111.78,36.17 C 111.58,35.8 111.22,35.58 110.86,35.45 110.48,35.31 110.09,35.36 109.72,35.41 108.98,35.48 108.27,35.68 107.62,35.98 L 107.64,36.05 Z M 107.64,36.05" />
        </g>
        <g id="ranaSideLeft3-group356">
            <path id="ranaSideLeft3-bezier355" stroke="none" fill="rgb(0, 0, 0)" d="M 45.86,30.41 C 47.11,30.62 48.33,31 49.46,31.52 50.03,31.79 50.54,32.13 51.08,32.42 L 52.73,33.33 52.79,33.27 C 52.49,32.67 52.01,32.18 51.48,31.78 50.94,31.38 50.3,31.16 49.68,30.96 48.44,30.54 47.15,30.33 45.86,30.33 L 45.86,30.41 Z M 45.86,30.41" />
        </g>
        <g id="ranaSideLeft3-group357">
            <path id="ranaSideLeft3-bezier356" stroke="none" fill="rgb(0, 0, 0)" d="M 53.5,30.92 C 55,31.21 56.49,31.59 57.93,32.08 58.64,32.33 59.32,32.66 60,32.94 60.69,33.22 61.35,33.52 62,33.95 L 62.06,33.9 C 61.69,33.17 61.01,32.66 60.33,32.26 59.63,31.87 58.85,31.68 58.1,31.5 56.58,31.13 55.05,30.92 53.5,30.85 L 53.5,30.92 Z M 53.5,30.92" />
        </g>
        <g id="ranaSideLeft3-group358">
            <path id="ranaSideLeft3-bezier357" stroke="none" fill="rgb(0, 0, 0)" d="M 56.15,32.75 C 57.21,33.3 58.24,33.9 59.22,34.54 59.7,34.87 60.14,35.26 60.62,35.57 61.09,35.89 61.55,36.19 61.99,36.61 L 62.06,36.58 C 61.97,35.93 61.53,35.4 61.08,34.98 60.62,34.56 60.06,34.3 59.52,34.02 58.44,33.47 57.32,33.04 56.18,32.68 L 56.15,32.75 Z M 56.15,32.75" />
        </g>
        <g id="ranaSideLeft3-group359">
            <path id="ranaSideLeft3-bezier358" stroke="none" fill="rgb(0, 0, 0)" d="M 64.59,34.69 C 65.42,35.31 66.21,36 66.94,36.71 67.3,37.08 67.6,37.49 67.98,37.82 68.36,38.16 68.74,38.5 69.19,38.81 L 69.26,38.77 C 69.14,38.22 68.86,37.75 68.53,37.32 68.2,36.89 67.76,36.58 67.33,36.26 66.48,35.62 65.58,35.07 64.62,34.62 L 64.59,34.69 Z M 64.59,34.69" />
        </g>
        <g id="ranaSideLeft3-group360">
            <path id="ranaSideLeft3-bezier359" stroke="none" fill="rgb(0, 0, 0)" d="M 67.9,35.57 C 69.02,36.3 70.2,36.94 71.45,37.46 72.07,37.72 72.7,38 73.38,38.11 74.06,38.21 74.77,38.23 75.44,38.03 L 75.44,37.95 73.55,37.38 C 72.93,37.19 72.29,37.08 71.65,36.89 70.4,36.51 69.15,36.05 67.93,35.5 L 67.9,35.57 Z M 67.9,35.57" />
        </g>
        <g id="ranaSideLeft3-group361">
            <path id="ranaSideLeft3-bezier360" stroke="none" fill="rgb(0, 0, 0)" d="M 75.43,37.18 C 76.86,37.8 78.28,38.42 79.68,39.07 80.37,39.4 81.04,39.78 81.75,40.08 82.43,40.39 83.2,40.6 83.76,41.06 L 83.83,41.04 C 83.72,40.6 83.36,40.33 83.07,40.07 82.76,39.81 82.42,39.6 82.08,39.4 81.39,39.01 80.64,38.78 79.9,38.51 78.44,37.98 76.95,37.52 75.45,37.11 L 75.43,37.18 Z M 75.43,37.18" />
        </g>
        <g id="ranaSideLeft3-group362">
            <path id="ranaSideLeft3-bezier361" stroke="none" fill="rgb(0, 0, 0)" d="M 80.51,37.35 C 81.07,37.66 81.62,38.13 82.19,38.52 82.76,38.91 83.34,39.29 83.94,39.65 84.53,40.01 85.14,40.4 85.83,40.6 86.5,40.79 87.27,40.93 87.97,40.68 L 87.97,40.61 C 87.29,40.44 86.7,40.17 86.08,39.9 85.48,39.62 84.84,39.4 84.22,39.12 83.6,38.84 82.99,38.52 82.38,38.2 81.76,37.9 81.19,37.52 80.51,37.27 L 80.51,37.35 Z M 80.51,37.35" />
        </g>
        <g id="ranaSideLeft3-group363">
            <path id="ranaSideLeft3-bezier362" stroke="none" fill="rgb(0, 0, 0)" d="M 84.85,38.46 C 85.93,38.74 87,39.03 88.06,39.34 88.59,39.5 89.1,39.71 89.63,39.81 90.16,39.93 90.69,39.98 91.23,40.13 L 91.28,40.07 C 90.92,39.55 90.35,39.31 89.84,39.09 89.31,38.89 88.74,38.83 88.19,38.75 87.09,38.57 85.98,38.46 84.87,38.38 L 84.85,38.46 Z M 84.85,38.46" />
        </g>
        <g id="ranaSideLeft3-group364">
            <path id="ranaSideLeft3-bezier363" stroke="none" fill="rgb(0, 0, 0)" d="M 79.61,33.96 L 83.76,35.65 C 84.45,35.94 85.11,36.28 85.81,36.51 86.52,36.76 87.22,36.96 87.95,37.18 L 87.99,37.12 C 87.46,36.53 86.77,36.16 86.1,35.82 85.42,35.49 84.68,35.3 83.97,35.08 82.53,34.63 81.09,34.24 79.63,33.89 L 79.61,33.96 Z M 79.61,33.96" />
        </g>
        <g id="ranaSideLeft3-group365">
            <path id="ranaSideLeft3-bezier364" stroke="none" fill="rgb(0, 0, 0)" d="M 89.38,36.23 L 93.49,37.31 C 94.17,37.5 94.84,37.74 95.53,37.86 96.22,37.98 96.91,38.08 97.64,38.13 L 97.67,38.06 C 97.06,37.62 96.38,37.36 95.71,37.13 95.03,36.91 94.31,36.84 93.61,36.73 92.21,36.49 90.81,36.31 89.4,36.16 L 89.38,36.23 Z M 89.38,36.23" />
        </g>
        <g id="ranaSideLeft3-group366">
            <path id="ranaSideLeft3-bezier365" stroke="none" fill="rgb(0, 0, 0)" d="M 97.06,35.99 C 98.22,36.26 99.36,36.58 100.46,36.97 101.01,37.17 101.53,37.44 102.05,37.63 102.58,37.85 103.1,38 103.51,38.43 L 103.58,38.41 C 103.56,38.07 103.36,37.77 103.14,37.54 102.91,37.29 102.65,37.12 102.38,36.96 101.83,36.64 101.22,36.52 100.63,36.39 99.45,36.12 98.26,35.98 97.07,35.91 L 97.06,35.99 Z M 97.06,35.99" />
        </g>
        <g id="ranaSideLeft3-group367">
            <path id="ranaSideLeft3-bezier366" stroke="none" fill="rgb(0, 0, 0)" d="M 104.49,32.75 C 105.64,32.96 106.78,33.18 107.91,33.42 108.48,33.54 109.03,33.72 109.59,33.79 110.16,33.86 110.72,33.9 111.32,33.96 L 111.35,33.89 C 110.9,33.45 110.31,33.23 109.75,33.05 109.18,32.88 108.58,32.87 108,32.82 106.83,32.72 105.67,32.67 104.5,32.68 L 104.49,32.75 Z M 104.49,32.75" />
        </g>
        <g id="ranaSideLeft3-group368">
            <path id="ranaSideLeft3-bezier367" stroke="none" fill="rgb(0, 0, 0)" d="M 102.01,27.77 C 103.3,27.86 104.58,27.94 105.86,28.04 106.5,28.1 107.14,28.22 107.77,28.22 108.41,28.24 109.04,28.18 109.67,28.24 L 109.71,28.17 C 109.45,27.92 109.12,27.81 108.8,27.7 108.48,27.59 108.16,27.53 107.83,27.47 107.18,27.37 106.53,27.42 105.88,27.45 104.58,27.48 103.29,27.56 102,27.7 L 102.01,27.77 Z M 102.01,27.77" />
        </g>
        <g id="ranaSideLeft3-group369">
            <path id="ranaSideLeft3-bezier368" stroke="none" fill="rgb(0, 0, 0)" d="M 96.29,23.58 C 97.33,23.16 98.37,22.77 99.42,22.43 99.94,22.26 100.48,22.16 100.99,21.96 101.5,21.76 101.98,21.56 102.52,21.33 L 102.52,21.25 C 101.94,21.07 101.34,21.13 100.78,21.24 100.21,21.35 99.7,21.63 99.2,21.87 98.18,22.35 97.2,22.9 96.26,23.51 L 96.29,23.58 Z M 96.29,23.58" />
        </g>
        <g id="ranaSideLeft3-group370">
            <path id="ranaSideLeft3-bezier369" stroke="none" fill="rgb(0, 0, 0)" d="M 88.56,18.91 L 92.09,17.68 C 92.68,17.48 93.29,17.33 93.85,17.08 94.42,16.83 94.95,16.53 95.52,16.27 L 95.52,16.2 C 94.85,16.05 94.21,16.22 93.6,16.37 92.99,16.54 92.43,16.85 91.87,17.12 90.73,17.65 89.62,18.23 88.53,18.84 L 88.56,18.91 Z M 88.56,18.91" />
        </g>
        <g id="ranaSideLeft3-group371">
            <path id="ranaSideLeft3-bezier370" stroke="none" fill="rgb(0, 0, 0)" d="M 79.64,16.27 C 80.67,15.62 81.67,14.93 82.64,14.19 83.13,13.83 83.65,13.49 84.06,13.02 84.27,12.79 84.47,12.55 84.63,12.27 84.77,12 85.01,11.71 84.9,11.32 L 84.83,11.34 C 84.55,11.78 83.97,12.1 83.54,12.48 83.08,12.86 82.69,13.32 82.26,13.74 81.38,14.56 80.49,15.39 79.6,16.21 L 79.64,16.27 Z M 79.64,16.27" />
        </g>
        <g id="ranaSideLeft3-group372">
            <path id="ranaSideLeft3-bezier371" stroke="none" fill="rgb(0, 0, 0)" d="M 70.93,13.81 C 71.81,13.32 72.66,12.78 73.49,12.18 73.9,11.89 74.34,11.62 74.68,11.24 75.01,10.85 75.33,10.42 75.47,9.89 L 75.41,9.84 C 74.96,10.11 74.56,10.39 74.17,10.69 73.78,10.99 73.46,11.37 73.1,11.72 72.38,12.4 71.64,13.08 70.89,13.75 L 70.93,13.81 Z M 70.93,13.81" />
        </g>
        <g id="ranaSideLeft3-group373">
            <path id="ranaSideLeft3-bezier372" stroke="none" fill="rgb(0, 0, 0)" d="M 62.05,13.82 C 63,13.41 63.92,12.94 64.8,12.38 65.24,12.1 65.71,11.84 66.06,11.42 66.23,11.21 66.39,10.98 66.5,10.72 66.61,10.46 66.7,10.14 66.6,9.86 L 66.52,9.86 C 66.28,10.31 65.89,10.57 65.53,10.89 65.15,11.19 64.82,11.57 64.44,11.9 63.67,12.54 62.85,13.16 62.01,13.75 L 62.05,13.82 Z M 62.05,13.82" />
        </g>
        <g id="ranaSideLeft3-group374">
            <path id="ranaSideLeft3-bezier373" stroke="none" fill="rgb(0, 0, 0)" d="M 59.12,14.21 C 59.84,13.7 60.51,13.12 61.09,12.43 61.39,12.09 61.71,11.74 61.85,11.27 61.99,10.84 62.02,10.2 61.62,9.85 L 61.55,9.88 C 61.53,10.34 61.35,10.64 61.16,10.99 60.97,11.32 60.82,11.71 60.61,12.08 60.16,12.8 59.63,13.49 59.07,14.16 L 59.12,14.21 Z M 59.12,14.21" />
        </g>
        <g id="ranaSideLeft3-group375">
            <path id="ranaSideLeft3-bezier374" stroke="none" fill="rgb(0, 0, 0)" d="M 53.53,14.5 C 54.24,13.84 54.96,13.19 55.69,12.57 56.06,12.26 56.46,12 56.79,11.67 L 57.78,10.63 57.75,10.56 C 57.2,10.55 56.72,10.82 56.31,11.09 55.89,11.37 55.59,11.77 55.27,12.14 54.62,12.88 54.02,13.65 53.47,14.46 L 53.53,14.5 Z M 53.53,14.5" />
        </g>
        <g id="ranaSideLeft3-group376">
            <path id="ranaSideLeft3-bezier375" stroke="none" fill="rgb(0, 0, 0)" d="M 45.88,14.8 C 47.26,14.13 48.61,13.38 49.9,12.53 50.55,12.11 51.22,11.7 51.77,11.12 52.04,10.84 52.3,10.53 52.51,10.18 52.7,9.83 52.9,9.41 52.8,8.99 L 52.72,8.99 C 52.45,9.67 51.81,10.09 51.26,10.58 50.68,11.04 50.14,11.57 49.55,12.05 48.36,12.99 47.11,13.88 45.84,14.74 L 45.88,14.8 Z M 45.88,14.8" />
        </g>
        <g id="ranaSideLeft3-group377">
            <path id="ranaSideLeft3-bezier376" stroke="none" fill="rgb(0, 0, 0)" d="M 42.27,12.97 C 42.99,12.43 43.7,11.87 44.38,11.27 44.73,10.97 45.1,10.7 45.37,10.33 45.5,10.14 45.63,9.94 45.73,9.72 45.82,9.5 45.93,9.28 45.9,8.99 L 45.82,8.98 C 45.5,9.28 45.13,9.53 44.81,9.83 44.48,10.13 44.23,10.5 43.95,10.85 L 42.21,12.91 42.27,12.97 Z M 42.27,12.97" />
        </g>
        <g id="ranaSideLeft3-group378">
            <path id="ranaSideLeft3-bezier377" stroke="none" fill="rgb(0, 0, 0)" d="M 36.95,14.51 L 39.67,13.01 C 40.12,12.77 40.6,12.58 41.02,12.29 41.44,12 41.82,11.67 42.25,11.37 L 42.24,11.29 C 41.65,11.21 41.13,11.43 40.65,11.63 40.17,11.85 39.76,12.2 39.35,12.51 38.51,13.12 37.7,13.77 36.91,14.45 L 36.95,14.51 Z M 36.95,14.51" />
        </g>
        <g id="ranaSideLeft3-group379">
            <path id="ranaSideLeft3-bezier378" stroke="none" fill="rgb(0, 0, 0)" d="M 34.65,14.21 C 35.23,13.78 35.65,13.15 35.95,12.47 36.09,12.13 36.27,11.78 36.26,11.41 36.27,11.03 36.2,10.65 35.99,10.3 L 35.92,10.31 C 35.71,10.66 35.62,10.98 35.52,11.3 35.43,11.62 35.44,11.95 35.38,12.29 35.23,12.93 35,13.59 34.6,14.16 L 34.65,14.21 Z M 34.65,14.21" />
        </g>
        <g id="ranaSideLeft3-group380">
            <path id="ranaSideLeft3-bezier379" stroke="none" fill="rgb(0, 0, 0)" d="M 28.56,16.93 C 29.5,16.31 30.4,15.64 31.25,14.9 31.68,14.53 32.14,14.17 32.47,13.69 32.78,13.22 33.1,12.66 33.06,12.03 L 32.99,12.02 C 32.64,12.47 32.26,12.82 31.89,13.22 31.51,13.6 31.2,14.05 30.83,14.47 30.09,15.29 29.31,16.09 28.51,16.87 L 28.56,16.93 Z M 28.56,16.93" />
        </g>
        <g id="ranaSideLeft3-group381">
            <path id="ranaSideLeft3-bezier380" stroke="none" fill="rgb(0, 0, 0)" d="M 28.22,14.78 C 28.45,14.23 28.63,13.66 28.74,13.05 28.8,12.76 28.89,12.44 28.81,12.12 28.73,11.82 28.57,11.45 28.21,11.31 L 28.15,11.35 C 28.14,11.69 28.08,11.92 28.06,12.19 28.04,12.46 28.12,12.73 28.14,13.01 28.17,13.58 28.16,14.17 28.14,14.76 L 28.22,14.78 Z M 28.22,14.78" />
        </g>
        <g id="ranaSideLeft3-group382">
            <path id="ranaSideLeft3-bezier381" stroke="none" fill="rgb(0, 0, 0)" d="M 81.51,18.5 C 82.66,17.83 83.78,17.09 84.84,16.26 85.38,15.85 85.94,15.45 86.37,14.92 86.79,14.39 87.21,13.78 87.29,13.06 L 87.22,13.04 C 86.78,13.55 86.31,13.96 85.83,14.41 85.35,14.84 84.92,15.34 84.45,15.81 83.49,16.71 82.49,17.59 81.46,18.44 L 81.51,18.5 Z M 81.51,18.5" />
        </g>
        <g id="ranaSideLeft3-group383">
            <path id="ranaSideLeft3-bezier382" stroke="none" fill="rgb(0, 0, 0)" d="M 92.66,20.9 C 93.35,20.52 94.1,20.26 94.84,20.07 95.22,19.98 95.6,19.96 95.96,19.83 96.32,19.71 96.69,19.58 97.07,19.35 L 97.06,19.28 C 96.65,19.09 96.23,19.07 95.81,19.1 95.4,19.13 95.01,19.33 94.64,19.5 93.89,19.84 93.2,20.28 92.61,20.84 L 92.66,20.9 Z M 92.66,20.9" />
        </g>
        <g id="ranaSideLeft3-group384">
            <path id="ranaSideLeft3-bezier383" stroke="none" fill="rgb(0, 0, 0)" d="M 94.44,25.72 C 96.12,25.43 97.8,25.18 99.48,24.97 100.32,24.88 101.16,24.85 101.99,24.73 102.82,24.62 103.63,24.48 104.48,24.48 L 104.5,24.4 C 103.7,23.99 102.78,23.98 101.93,23.98 101.06,24 100.22,24.2 99.38,24.38 97.7,24.72 96.05,25.15 94.42,25.65 L 94.44,25.72 Z M 94.44,25.72" />
        </g>
        <g id="ranaSideLeft3-group385">
            <path id="ranaSideLeft3-bezier384" stroke="none" fill="rgb(0, 0, 0)" d="M 100.3,29.79 C 101.49,30.11 102.69,30.38 103.92,30.59 104.53,30.69 105.14,30.83 105.77,30.81 106.39,30.79 107.05,30.72 107.63,30.41 L 107.62,30.34 C 106.99,30.23 106.41,30.14 105.8,30.06 105.21,29.99 104.59,30.02 103.98,29.99 102.76,29.92 101.54,29.83 100.31,29.72 L 100.3,29.79 Z M 100.3,29.79" />
        </g>
        <g id="ranaSideLeft3-group386">
            <path id="ranaSideLeft3-bezier385" stroke="none" fill="rgb(0, 0, 0)" d="M 64.59,32.44 C 65.91,33.14 67.28,33.73 68.71,34.21 69.42,34.46 70.14,34.71 70.9,34.8 71.65,34.88 72.43,34.89 73.18,34.69 L 73.18,34.62 C 72.44,34.4 71.74,34.24 71.03,34.06 70.32,33.89 69.59,33.8 68.88,33.64 67.44,33.29 66.02,32.87 64.62,32.37 L 64.59,32.44 Z M 64.59,32.44" />
        </g>
        <g id="ranaSideLeft3-group387">
            <path id="ranaSideLeft3-bezier386" stroke="none" fill="rgb(0, 0, 0)" d="M 70.93,15.47 C 72.37,15 73.82,14.57 75.27,14.18 76,13.99 76.74,13.87 77.45,13.66 78.17,13.46 78.86,13.23 79.62,13.09 L 79.62,13.01 C 78.86,12.74 78.05,12.82 77.29,12.93 76.52,13.05 75.81,13.34 75.09,13.61 73.66,14.13 72.26,14.73 70.9,15.4 L 70.93,15.47 Z M 70.93,15.47" />
        </g>
        <g id="ranaSideLeft3-group388">
            <path id="ranaSideLeft3-bezier387" stroke="none" fill="rgb(0, 0, 0)" d="M 77.76,23.58 C 79.61,23.35 81.45,23.08 83.28,22.74 84.2,22.58 85.13,22.45 86.03,22.16 86.47,22.02 86.92,21.86 87.35,21.66 87.78,21.46 88.22,21.26 88.57,20.9 L 88.53,20.84 C 87.65,21.12 86.73,21.23 85.84,21.44 84.93,21.62 84.05,21.91 83.16,22.15 L 77.75,23.51 77.76,23.58 Z M 77.76,23.58" />
        </g>
        <g id="ranaSideLeft3-group389">
            <path id="ranaSideLeft3-bezier388" stroke="none" fill="rgb(0, 0, 0)" d="M 84.38,25.14 L 88.24,24.42 C 88.88,24.31 89.53,24.26 90.16,24.09 90.79,23.94 91.39,23.72 92.03,23.58 L 92.04,23.51 C 91.37,23.23 90.68,23.3 90.02,23.36 89.36,23.43 88.73,23.65 88.1,23.84 86.84,24.2 85.59,24.61 84.36,25.06 L 84.38,25.14 Z M 84.38,25.14" />
        </g>
        <g id="ranaSideLeft3-group390">
            <path id="ranaSideLeft3-bezier389" stroke="none" fill="rgb(0, 0, 0)" d="M 89.39,29.79 C 90.65,29.66 91.86,29.38 93.07,29.06 93.67,28.9 94.3,28.76 94.86,28.47 95.14,28.32 95.42,28.15 95.68,27.95 95.93,27.74 96.19,27.5 96.31,27.17 L 96.25,27.13 C 95.72,27.44 95.13,27.57 94.56,27.78 93.99,27.97 93.45,28.26 92.88,28.49 92.31,28.72 91.73,28.94 91.15,29.14 90.57,29.35 89.98,29.57 89.39,29.71 L 89.39,29.79 Z M 89.39,29.79" />
        </g>
        <g id="ranaSideLeft3-group391">
            <path id="ranaSideLeft3-bezier390" stroke="none" fill="rgb(0, 0, 0)" d="M 96.29,33.57 C 97.5,33.13 98.71,32.72 99.92,32.36 100.53,32.18 101.15,32.07 101.74,31.86 102.34,31.66 102.9,31.44 103.54,31.29 L 103.54,31.21 C 102.9,30.96 102.19,31.03 101.56,31.14 100.91,31.26 100.31,31.54 99.72,31.79 98.53,32.29 97.38,32.86 96.26,33.5 L 96.29,33.57 Z M 96.29,33.57" />
        </g>
        <g id="ranaSideLeft3-group392">
            <path id="ranaSideLeft3-bezier391" stroke="none" fill="rgb(0, 0, 0)" d="M 101.2,34.66 C 102.18,34.82 103.15,34.93 104.14,34.99 104.63,35.03 105.13,35.1 105.63,35.01 106.12,34.9 106.66,34.79 107.05,34.36 L 107.01,34.3 C 106.51,34.32 106.05,34.26 105.57,34.26 105.1,34.25 104.62,34.35 104.13,34.39 103.17,34.47 102.19,34.53 101.21,34.58 L 101.2,34.66 Z M 101.2,34.66" />
        </g>
        <g id="ranaSideLeft3-group393">
            <path id="ranaSideLeft3-bezier392" stroke="none" fill="rgb(0, 0, 0)" d="M 83.15,31.8 C 84.8,32.13 86.45,32.42 88.12,32.66 88.95,32.79 89.78,32.96 90.62,32.98 91.47,33 92.33,33 93.17,32.75 L 93.17,32.68 C 92.33,32.51 91.52,32.35 90.69,32.24 89.86,32.12 89.02,32.12 88.18,32.07 L 83.16,31.73 83.15,31.8 Z M 83.15,31.8" />
        </g>
        <g id="ranaSideLeft3-group394">
            <path id="ranaSideLeft3-bezier393" stroke="none" fill="rgb(0, 0, 0)" d="M 70.91,30.14 C 71.36,30.43 71.76,30.9 72.18,31.3 72.61,31.7 73.04,32.1 73.48,32.49 73.92,32.88 74.35,33.3 74.89,33.58 75.42,33.84 76.04,34.12 76.69,33.96 L 76.69,33.89 C 76.16,33.64 75.75,33.28 75.29,32.95 74.84,32.61 74.33,32.34 73.85,32.01 73.37,31.69 72.9,31.35 72.42,31.01 71.93,30.69 71.5,30.3 70.92,30.07 L 70.91,30.14 Z M 70.91,30.14" />
        </g>
        <g id="ranaSideLeft3-group395">
            <path id="ranaSideLeft3-bezier394" stroke="none" fill="rgb(0, 0, 0)" d="M 77.31,29.24 C 78.9,29.11 80.47,28.94 82.04,28.8 82.83,28.73 83.62,28.72 84.4,28.6 85.17,28.49 85.94,28.29 86.71,28.24 L 86.74,28.17 C 86.36,27.96 85.94,27.92 85.53,27.88 85.13,27.83 84.73,27.84 84.33,27.85 83.52,27.88 82.75,28.06 81.96,28.2 L 79.63,28.66 77.31,29.17 77.31,29.24 Z M 77.31,29.24" />
        </g>
        <g id="ranaSideLeft3-group396">
            <path id="ranaSideLeft3-bezier395" stroke="none" fill="rgb(0, 0, 0)" d="M 75.28,26.67 C 76.16,26.38 77.05,26.1 77.93,25.84 78.37,25.72 78.83,25.65 79.24,25.49 79.66,25.33 80.05,25.13 80.5,24.98 L 80.51,24.9 C 80.04,24.63 79.5,24.7 79.04,24.76 78.56,24.85 78.14,25.08 77.72,25.28 76.86,25.67 76.04,26.12 75.25,26.6 L 75.28,26.67 Z M 75.28,26.67" />
        </g>
        <g id="ranaSideLeft3-group397">
            <path id="ranaSideLeft3-bezier396" stroke="none" fill="rgb(0, 0, 0)" d="M 75.28,21.77 C 76.32,21.51 77.36,21.28 78.4,21.09 78.92,21.01 79.45,20.98 79.95,20.87 80.46,20.76 80.93,20.62 81.47,20.59 L 81.5,20.52 C 81.02,20.14 80.39,20.12 79.85,20.13 79.29,20.15 78.77,20.34 78.26,20.51 77.22,20.83 76.22,21.24 75.25,21.7 L 75.28,21.77 Z M 75.28,21.77" />
        </g>
        <g id="ranaSideLeft3-group398">
            <path id="ranaSideLeft3-bezier397" stroke="none" fill="rgb(0, 0, 0)" d="M 70.94,19.78 C 71.88,19.23 72.83,18.7 73.8,18.22 74.29,17.99 74.8,17.81 75.25,17.57 75.72,17.33 76.15,17.05 76.68,16.93 L 76.7,16.86 C 76.43,16.69 76.11,16.68 75.81,16.7 75.52,16.71 75.23,16.79 74.96,16.88 74.42,17.05 73.96,17.39 73.5,17.7 72.58,18.31 71.71,18.99 70.89,19.72 L 70.94,19.78 Z M 70.94,19.78" />
        </g>
        <g id="ranaSideLeft3-group399">
            <path id="ranaSideLeft3-bezier398" stroke="none" fill="rgb(0, 0, 0)" d="M 60.98,17.59 C 62.2,17.04 63.39,16.45 64.55,15.79 65.13,15.47 65.74,15.17 66.26,14.73 66.51,14.5 66.77,14.27 66.98,14 67.2,13.73 67.42,13.43 67.48,13.06 L 67.41,13.04 C 66.94,13.48 66.35,13.76 65.81,14.12 65.26,14.47 64.76,14.9 64.23,15.29 63.15,16.05 62.05,16.79 60.94,17.52 L 60.98,17.59 Z M 60.98,17.59" />
        </g>
        <g id="ranaSideLeft3-group400">
            <path id="ranaSideLeft3-bezier399" stroke="none" fill="rgb(0, 0, 0)" d="M 29.28,22.45 C 30.77,21.99 32.27,21.55 33.77,21.16 34.52,20.98 35.29,20.86 36.02,20.65 36.77,20.46 37.48,20.23 38.26,20.13 L 38.27,20.05 C 37.5,19.74 36.65,19.82 35.87,19.92 35.08,20.04 34.34,20.33 33.6,20.59 32.11,21.11 30.67,21.71 29.26,22.38 L 29.28,22.45 Z M 29.28,22.45" />
        </g>
        <g id="ranaSideLeft3-group401">
            <path id="ranaSideLeft3-bezier400" stroke="none" fill="rgb(0, 0, 0)" d="M 27.04,20.3 C 28.18,19.84 29.29,19.33 30.37,18.76 30.92,18.47 31.49,18.21 31.97,17.81 32.2,17.61 32.44,17.4 32.64,17.14 32.83,16.89 33.06,16.61 33.06,16.25 L 32.99,16.23 C 32.59,16.65 32.03,16.88 31.53,17.2 31.02,17.5 30.56,17.89 30.06,18.24 29.06,18.92 28.04,19.58 27.01,20.23 L 27.04,20.3 Z M 27.04,20.3" />
        </g>
        <g id="ranaSideLeft3-group402">
            <path id="ranaSideLeft3-bezier401" stroke="none" fill="rgb(0, 0, 0)" d="M 35.31,18.34 L 39.14,16.92 C 39.79,16.7 40.45,16.52 41.06,16.24 41.68,15.96 42.27,15.64 42.89,15.34 L 42.88,15.27 C 42.15,15.17 41.46,15.35 40.8,15.53 40.13,15.73 39.53,16.07 38.91,16.37 37.68,16.96 36.47,17.6 35.27,18.28 L 35.31,18.34 Z M 35.31,18.34" />
        </g>
        <g id="ranaSideLeft3-group403">
            <path id="ranaSideLeft3-bezier402" stroke="none" fill="rgb(0, 0, 0)" d="M 43.74,18.91 C 44.85,18.42 45.92,17.88 46.97,17.28 47.5,16.98 48.05,16.7 48.51,16.29 48.95,15.88 49.4,15.41 49.62,14.79 L 49.56,14.75 48.05,15.69 C 47.56,16.01 47.12,16.41 46.64,16.77 45.68,17.48 44.7,18.17 43.71,18.84 L 43.74,18.91 Z M 43.74,18.91" />
        </g>
        <g id="ranaSideLeft3-group404">
            <path id="ranaSideLeft3-bezier403" stroke="none" fill="rgb(0, 0, 0)" d="M 37.21,23.3 C 38.56,22.87 39.9,22.45 41.24,22.06 41.92,21.87 42.61,21.73 43.26,21.5 43.92,21.3 44.55,20.99 45.23,20.9 L 45.25,20.83 C 44.9,20.63 44.51,20.64 44.15,20.65 43.78,20.65 43.42,20.71 43.07,20.78 42.36,20.92 41.71,21.22 41.05,21.49 39.73,22.01 38.45,22.6 37.18,23.23 L 37.21,23.3 Z M 37.21,23.3" />
        </g>
        <g id="ranaSideLeft3-group405">
            <path id="ranaSideLeft3-bezier404" stroke="none" fill="rgb(0, 0, 0)" d="M 38.86,25.81 C 39.28,25.92 39.64,25.82 40.03,25.79 40.41,25.75 40.79,25.7 41.17,25.65 41.93,25.52 42.68,25.38 43.43,25.22 44.18,25.06 44.94,24.93 45.66,24.63 46.01,24.49 46.37,24.33 46.71,24.12 47.03,23.9 47.41,23.71 47.58,23.28 L 47.51,23.25 C 46.91,23.61 46.12,23.7 45.42,23.92 44.69,24.11 43.99,24.4 43.27,24.64 42.55,24.87 41.82,25.08 41.09,25.28 40.37,25.47 39.6,25.73 38.91,25.75 L 38.86,25.81 Z M 38.86,25.81" />
        </g>
        <g id="ranaSideLeft3-group406">
            <path id="ranaSideLeft3-bezier405" stroke="none" fill="rgb(0, 0, 0)" d="M 45.85,26.68 L 49.66,27.66 C 50.29,27.84 50.91,28.07 51.54,28.18 52.18,28.31 52.82,28.39 53.48,28.48 L 53.52,28.42 C 53,27.94 52.36,27.68 51.73,27.46 51.1,27.24 50.44,27.18 49.79,27.08 48.49,26.87 47.18,26.71 45.87,26.6 L 45.85,26.68 Z M 45.85,26.68" />
        </g>
        <g id="ranaSideLeft3-group407">
            <path id="ranaSideLeft3-bezier406" stroke="none" fill="rgb(0, 0, 0)" d="M 43.74,22.85 C 45.1,22.47 46.45,22.06 47.79,21.58 48.46,21.34 49.14,21.14 49.77,20.78 50.08,20.6 50.38,20.41 50.67,20.18 50.95,19.95 51.26,19.71 51.4,19.33 L 51.33,19.29 C 50.76,19.65 50.07,19.83 49.44,20.11 48.79,20.36 48.19,20.71 47.56,21.02 46.29,21.62 45,22.2 43.71,22.77 L 43.74,22.85 Z M 43.74,22.85" />
        </g>
        <g id="ranaSideLeft3-group408">
            <path id="ranaSideLeft3-bezier407" stroke="none" fill="rgb(0, 0, 0)" d="M 48.58,18.29 C 49.91,17.89 51.23,17.51 52.56,17.18 53.23,17.02 53.91,16.92 54.55,16.73 55.2,16.56 55.83,16.32 56.51,16.27 L 56.53,16.2 C 56.21,16 55.82,15.96 55.47,15.94 55.1,15.91 54.75,15.95 54.4,16 53.69,16.09 53.04,16.36 52.39,16.6 51.08,17.07 49.8,17.61 48.56,18.22 L 48.58,18.29 Z M 48.58,18.29" />
        </g>
        <g id="ranaSideLeft3-group409">
            <path id="ranaSideLeft3-bezier408" stroke="none" fill="rgb(0, 0, 0)" d="M 52.56,22.08 C 53.86,21.79 55.15,21.44 56.43,21.02 57.07,20.82 57.72,20.64 58.32,20.31 58.62,20.14 58.91,19.95 59.18,19.73 59.44,19.5 59.72,19.25 59.84,18.89 L 59.78,18.85 C 59.24,19.21 58.6,19.37 58,19.63 57.39,19.86 56.82,20.19 56.21,20.46 55,21 53.77,21.51 52.54,22.01 L 52.56,22.08 Z M 52.56,22.08" />
        </g>
        <g id="ranaSideLeft3-group410">
            <path id="ranaSideLeft3-bezier409" stroke="none" fill="rgb(0, 0, 0)" d="M 64.63,19.78 C 65.37,19.24 66.14,18.73 66.91,18.27 67.31,18.05 67.73,17.89 68.09,17.65 68.46,17.42 68.81,17.18 69.23,16.93 L 69.22,16.86 C 68.72,16.7 68.2,16.82 67.76,16.98 67.3,17.16 66.94,17.48 66.57,17.78 65.84,18.36 65.18,19.02 64.58,19.72 L 64.63,19.78 Z M 64.63,19.78" />
        </g>
        <g id="ranaSideLeft3-group411">
            <path id="ranaSideLeft3-bezier410" stroke="none" fill="rgb(0, 0, 0)" d="M 54.93,23.58 C 56.26,23.48 57.58,23.33 58.9,23.13 59.56,23.03 60.23,22.97 60.87,22.75 61.5,22.53 62.17,22.28 62.67,21.76 L 62.63,21.7 C 61.98,21.83 61.33,21.9 60.69,22.03 60.04,22.14 59.42,22.37 58.78,22.54 L 54.92,23.51 54.93,23.58 Z M 54.93,23.58" />
        </g>
        <g id="ranaSideLeft3-group412">
            <path id="ranaSideLeft3-bezier411" stroke="none" fill="rgb(0, 0, 0)" d="M 65.77,24.98 L 69.5,24.21 C 70.13,24.1 70.76,24.04 71.36,23.87 71.97,23.7 72.55,23.5 73.17,23.31 L 73.18,23.23 C 72.53,23.02 71.85,23.06 71.22,23.13 70.57,23.21 69.97,23.44 69.36,23.63 68.14,24 66.93,24.43 65.75,24.9 L 65.77,24.98 Z M 65.77,24.98" />
        </g>
        <g id="ranaSideLeft3-group413">
            <path id="ranaSideLeft3-bezier412" stroke="none" fill="rgb(0, 0, 0)" d="M 63.27,28 C 64,28.08 64.73,27.99 65.46,27.94 66.18,27.85 66.9,27.75 67.62,27.63 68.34,27.52 69.07,27.43 69.76,27.18 70.44,26.92 71.16,26.65 71.7,26.09 L 71.66,26.03 C 70.96,26.21 70.25,26.3 69.56,26.46 68.86,26.61 68.18,26.86 67.49,27.05 66.8,27.24 66.1,27.41 65.4,27.57 64.7,27.72 63.99,27.91 63.28,27.92 L 63.27,28 Z M 63.27,28" />
        </g>
        <g id="ranaSideLeft3-group414">
            <path id="ranaSideLeft3-bezier413" stroke="none" fill="rgb(0, 0, 0)" d="M 56.53,27.19 C 57.71,26.79 58.88,26.37 60.03,25.93 60.61,25.72 61.21,25.54 61.75,25.24 62.29,24.93 62.83,24.6 63.29,24.14 L 63.26,24.07 C 62.62,24.17 62.03,24.35 61.44,24.56 60.86,24.77 60.34,25.1 59.79,25.38 58.69,25.95 57.59,26.52 56.51,27.12 L 56.53,27.19 Z M 56.53,27.19" />
        </g>
        <g id="ranaSideLeft3-group415">
            <path id="ranaSideLeft3-bezier414" stroke="none" fill="rgb(0, 0, 0)" d="M 26.27,27.58 C 27.36,28.01 28.44,28.46 29.48,28.96 30,29.22 30.49,29.53 31.01,29.75 31.54,29.97 32.06,30.19 32.63,30.4 L 32.68,30.34 C 32.36,29.8 31.87,29.41 31.36,29.09 30.85,28.76 30.27,28.59 29.71,28.41 28.59,28.02 27.45,27.72 26.29,27.51 L 26.27,27.58 Z M 26.27,27.58" />
        </g>
        <g id="ranaSideLeft3-group416">
            <path id="ranaSideLeft3-bezier415" stroke="none" fill="rgb(0, 0, 0)" d="M 24.39,24.13 C 25.03,23.48 25.69,22.86 26.39,22.31 26.74,22.04 27.13,21.83 27.46,21.57 27.8,21.31 28.1,21.05 28.53,20.86 L 28.54,20.79 C 28.06,20.56 27.49,20.72 27.06,20.93 26.62,21.15 26.3,21.52 25.98,21.86 25.34,22.55 24.8,23.29 24.33,24.08 L 24.39,24.13 Z M 24.39,24.13" />
        </g>
        <g id="ranaSideLeft3-group529">
            <path id="ranaSideLeft3-bezier528" stroke="none" fill="rgb(0, 0, 0)" d="M 9.59,31.68 C 8.95,33.11 8.47,34.6 8.11,36.13 7.77,37.66 7.59,39.26 7.57,40.82 7.5,42.36 7.26,43.88 7.02,45.4 6.91,46.16 6.75,46.91 6.58,47.66 6.39,48.4 6.22,49.16 5.85,49.84 L 5.9,49.89 C 6.47,49.3 6.78,48.55 7.08,47.82 7.37,47.08 7.57,46.31 7.76,45.54 8.1,43.99 8.18,42.4 8.17,40.83 8.12,39.27 8.21,37.74 8.48,36.21 8.74,34.68 9.12,33.17 9.66,31.71 L 9.59,31.68 Z M 9.59,31.68" />
        </g>
        <g id="ranaSideLeft3-group530">
            <path id="ranaSideLeft3-bezier529" stroke="none" fill="rgb(0, 0, 0)" d="M 5.55,50.82 C 5.42,51.25 5.33,51.7 5.28,52.15 5.25,52.38 5.18,52.62 5.27,52.86 5.31,52.97 5.36,53.09 5.46,53.2 5.55,53.3 5.67,53.44 5.85,53.43 L 5.89,53.37 C 5.92,53.13 6,52.95 6.01,52.74 6.03,52.54 5.93,52.34 5.88,52.13 L 5.62,50.82 5.55,50.82 Z M 5.55,50.82" />
        </g>
        <g id="ranaSideLeft3-group531">
            <path id="ranaSideLeft3-bezier530" stroke="none" fill="rgb(0, 0, 0)" d="M 6.41,51.06 C 6.61,51.17 6.78,51.35 6.82,51.53 6.88,51.72 6.83,51.86 6.77,52.12 6.72,52.36 6.62,52.57 6.63,52.77 6.61,52.97 6.7,53.09 6.57,53.37 L 6.6,53.44 C 6.94,53.56 7.27,53.19 7.36,52.94 7.47,52.66 7.39,52.4 7.37,52.16 7.35,51.95 7.34,51.59 7.14,51.35 6.94,51.11 6.68,51.01 6.42,50.99 L 6.41,51.06 Z M 6.41,51.06" />
        </g>
        <g id="ranaSideLeft3-group532">
            <path id="ranaSideLeft3-bezier531" stroke="none" fill="rgb(0, 0, 0)" d="M 7.76,53.98 C 8.78,53.69 9.69,53.17 10.6,52.66 11.49,52.14 12.4,51.64 13.31,51.15 14.22,50.67 15.16,50.23 16.04,49.68 16.92,49.15 17.78,48.57 18.64,47.98 L 18.61,47.91 C 17.57,48.13 16.61,48.58 15.68,49.03 14.74,49.49 13.88,50.08 13.01,50.64 12.13,51.19 11.26,51.76 10.4,52.34 9.55,52.93 8.7,53.53 7.74,53.91 L 7.76,53.98 Z M 7.76,53.98" />
        </g>
        <g id="ranaSideLeft3-group533">
            <path id="ranaSideLeft3-bezier532" stroke="none" fill="rgb(0, 0, 0)" d="M 12.36,52.25 C 12.97,52.63 13.78,52.74 14.48,52.46 15.16,52.14 15.72,51.71 16.34,51.33 17.53,50.55 18.73,49.77 20,49.19 20.66,48.91 21.25,48.69 21.94,48.71 22.74,48.65 23.44,48.4 24.11,48.12 25.45,47.52 26.66,46.75 27.89,46.02 L 27.86,45.95 C 26.44,46.29 25.16,46.97 23.84,47.42 23.19,47.66 22.52,47.89 21.89,47.97 21.82,47.99 21.71,47.99 21.64,48 21.53,48.01 21.43,48.02 21.33,48.04 21.13,48.07 20.94,48.13 20.76,48.19 20.4,48.32 20.07,48.48 19.74,48.65 18.44,49.33 17.28,50.18 16.12,51.02 15.55,51.44 14.99,51.92 14.39,52.25 13.78,52.55 13.01,52.51 12.4,52.18 L 12.36,52.25 Z M 12.36,52.25" />
        </g>
        <g id="ranaSideLeft3-group534">
            <path id="ranaSideLeft3-bezier533" stroke="none" fill="rgb(0, 0, 0)" d="M 28.47,45.85 C 30.79,45.48 33.15,45.4 35.48,45.6 36.64,45.7 37.78,45.9 38.91,46.21 40.07,46.48 41.23,46.7 42.4,46.89 44.74,47.29 47.09,47.53 49.44,47.73 50.62,47.84 51.79,47.9 52.97,47.96 54.16,48.01 55.33,48.07 56.52,47.98 L 56.52,47.91 C 54.18,47.75 51.84,47.38 49.51,47.1 L 42.52,46.14 C 41.36,45.97 40.2,45.79 39.06,45.56 37.9,45.3 36.7,45.15 35.51,45.11 33.13,45.01 30.76,45.26 28.45,45.78 L 28.47,45.85 Z M 28.47,45.85" />
        </g>
        <g id="ranaSideLeft3-group535">
            <path id="ranaSideLeft3-bezier534" stroke="none" fill="rgb(0, 0, 0)" d="M 63.84,48.4 C 65.4,48.5 66.96,48.51 68.53,48.4 69.31,48.35 70.11,48.23 70.86,48.1 71.61,47.99 72.39,47.93 73.16,47.91 76.24,47.81 79.35,48.13 82.34,48.85 83.09,49.04 83.83,49.24 84.56,49.48 85.28,49.73 86.05,49.98 86.83,50.15 88.37,50.52 89.93,50.73 91.5,50.83 93.07,50.94 94.64,50.94 96.21,50.82 97.77,50.69 99.35,50.5 100.81,49.89 L 100.78,49.82 C 99.3,50.3 97.73,50.32 96.19,50.38 94.64,50.39 93.09,50.32 91.56,50.17 90.02,50.01 88.5,49.77 87.01,49.4 85.55,49.04 84.06,48.45 82.51,48.14 79.42,47.49 76.27,47.23 73.13,47.38 72.35,47.42 71.57,47.49 70.78,47.63 70,47.78 69.27,47.94 68.49,48.03 66.96,48.23 65.4,48.32 63.85,48.32 L 63.84,48.4 Z M 63.84,48.4" />
        </g>
        <g id="ranaSideLeft3-group536">
            <path id="ranaSideLeft3-bezier535" stroke="none" fill="rgb(0, 0, 0)" d="M 102.23,49.83 C 103.21,49.75 104.19,49.7 105.17,49.7 105.65,49.7 106.14,49.7 106.61,49.76 106.84,49.79 107.08,49.83 107.24,49.9 107.34,49.97 107.28,49.9 107.35,50.04 107.38,50.12 107.42,50.24 107.45,50.35 107.72,51.26 107.87,52.25 108.17,53.18 108.48,54.11 108.77,55.07 109.34,55.92 L 109.41,55.89 C 109.23,54.92 109.1,53.95 108.89,52.99 108.69,52.03 108.38,51.1 108.02,50.15 107.97,50.03 107.93,49.92 107.85,49.78 107.81,49.71 107.81,49.67 107.7,49.56 107.62,49.48 107.53,49.44 107.46,49.41 107.16,49.3 106.91,49.29 106.65,49.27 106.14,49.25 105.64,49.28 105.15,49.33 104.16,49.43 103.19,49.58 102.22,49.76 L 102.23,49.83 Z M 102.23,49.83" />
        </g>
        <g id="ranaSideLeft3-group537">
            <path id="ranaSideLeft3-bezier536" stroke="none" fill="rgb(0, 0, 0)" d="M 109.96,58.86 C 109.61,58.78 109.26,58.75 108.89,58.8 108.7,58.82 108.48,58.82 108.32,58.99 108.17,59.15 108.04,59.46 108.21,59.69 L 108.29,59.7 C 108.52,59.59 108.63,59.64 108.75,59.6 108.86,59.58 108.94,59.45 109.08,59.37 109.34,59.21 109.64,59.07 109.96,58.94 L 109.96,58.86 Z M 109.96,58.86" />
        </g>
        <g id="ranaSideLeft3-group538">
            <path id="ranaSideLeft3-bezier537" stroke="none" fill="rgb(0, 0, 0)" d="M 108.45,58.24 C 108.11,58.19 107.76,58.19 107.41,58.3 107.23,58.35 107,58.4 106.88,58.62 106.77,58.82 106.75,59.12 106.96,59.3 L 107.04,59.3 C 107.25,59.15 107.36,59.14 107.46,59.1 107.55,59.07 107.59,58.93 107.69,58.83 107.9,58.65 108.17,58.47 108.46,58.31 L 108.45,58.24 Z M 108.45,58.24" />
        </g>
        <g id="ranaSideLeft3-group539">
            <path id="ranaSideLeft3-bezier538" stroke="none" fill="rgb(0, 0, 0)" d="M 108.45,56.99 C 108.15,56.93 107.85,56.91 107.54,56.93 107.38,56.94 107.2,56.92 107.06,57.05 106.99,57.12 106.92,57.19 106.88,57.32 106.83,57.43 106.82,57.65 106.96,57.7 L 107.04,57.68 C 107.14,57.6 107.2,57.67 107.25,57.68 107.31,57.71 107.36,57.71 107.41,57.71 107.52,57.71 107.61,57.58 107.72,57.51 107.95,57.36 108.21,57.22 108.46,57.06 L 108.45,56.99 Z M 108.45,56.99" />
        </g>
        <g id="ranaSideLeft3-group540">
            <path id="ranaSideLeft3-bezier539" stroke="none" fill="rgb(0, 0, 0)" d="M 110.71,59.33 C 111.2,59.31 111.69,59.27 112.19,59.19 112.43,59.15 112.67,59.1 112.92,59.03 113.14,58.95 113.47,58.84 113.52,58.49 113.51,57.91 113.24,57.5 113.17,57.03 113.05,56.56 113.09,56.1 113.12,55.6 113.22,53.64 113.32,51.67 113.29,49.69 113.27,48.7 113.24,47.71 113.05,46.69 113,46.44 112.94,46.18 112.83,45.92 112.72,45.67 112.6,45.32 112.16,45.15 111.61,44.96 111.1,44.94 110.59,44.91 109.59,44.89 108.6,44.94 107.62,44.99 107.13,45.02 106.65,45.04 106.16,45.04 105.68,45.05 105.18,45.05 104.73,44.91 L 104.69,44.98 C 105.61,45.44 106.65,45.43 107.62,45.51 108.61,45.57 109.59,45.57 110.55,45.66 111.02,45.69 111.51,45.74 111.89,45.88 111.93,45.87 112.05,46.01 112.13,46.21 112.21,46.4 112.27,46.62 112.33,46.85 112.54,47.76 112.62,48.74 112.69,49.71 112.79,51.66 112.77,53.62 112.74,55.59 112.74,56.07 112.73,56.6 112.87,57.1 112.98,57.58 113.28,58.06 113.29,58.46 113.29,58.65 113.07,58.77 112.85,58.85 112.63,58.93 112.39,58.99 112.16,59.04 111.68,59.14 111.19,59.21 110.71,59.26 L 110.71,59.33 Z M 110.71,59.33" />
        </g>
        <g id="ranaSideLeft3-group541">
            <path id="ranaSideLeft3-bezier540" stroke="none" fill="rgb(0, 0, 0)" d="M 87.14,52.19 C 86.7,52.69 86.22,53.17 85.73,53.6 85.24,54.04 84.72,54.46 84.16,54.74 83.86,54.87 83.63,54.94 83.31,54.95 82.97,54.97 82.59,55.05 82.25,55.2 81.92,55.36 81.57,55.59 81.36,55.93 81.14,56.27 81.08,56.69 81.19,57.03 L 81.27,57.03 C 81.47,56.35 81.95,56.07 82.52,55.9 82.81,55.81 83.09,55.75 83.41,55.68 83.76,55.63 84.17,55.46 84.45,55.26 85.06,54.87 85.54,54.38 85.99,53.87 86.43,53.35 86.83,52.8 87.2,52.24 L 87.14,52.19 Z M 87.14,52.19" />
        </g>
        <g id="ranaSideLeft3-group542">
            <path id="ranaSideLeft3-bezier541" stroke="none" fill="rgb(0, 0, 0)" d="M 91.01,51.72 C 90.52,52.47 89.99,53.2 89.43,53.89 88.88,54.58 88.28,55.28 87.58,55.71 87.39,55.81 87.26,55.86 87.06,55.87 86.85,55.89 86.58,55.94 86.34,56.01 86.09,56.09 85.84,56.2 85.62,56.4 85.4,56.59 85.22,56.89 85.18,57.21 85.13,57.52 85.29,57.89 85.29,57.93 85.31,58.06 85.27,58.19 85.17,58.31 84.95,58.57 84.48,58.67 84.04,58.75 L 84.04,58.83 C 84.48,58.95 84.99,59.03 85.5,58.72 85.75,58.57 85.94,58.25 85.95,57.93 85.93,57.52 85.87,57.47 85.92,57.32 85.97,57.07 86.23,56.86 86.59,56.71 86.77,56.64 86.94,56.58 87.17,56.54 87.43,56.49 87.71,56.36 87.9,56.21 88.7,55.62 89.22,54.87 89.73,54.12 90.23,53.35 90.67,52.56 91.08,51.76 L 91.01,51.72 Z M 91.01,51.72" />
        </g>
        <g id="ranaSideLeft3-group543">
            <path id="ranaSideLeft3-bezier542" stroke="none" fill="rgb(0, 0, 0)" d="M 83.08,56.99 C 82.66,56.97 82.24,57.01 81.82,57.15 81.61,57.21 81.36,57.26 81.21,57.49 81.06,57.69 80.97,58.06 81.19,58.28 L 81.27,58.28 C 81.48,58.09 81.61,58.09 81.74,58.01 81.86,57.96 81.95,57.8 82.1,57.68 82.39,57.46 82.73,57.25 83.09,57.06 L 83.08,56.99 Z M 83.08,56.99" />
        </g>
        <g id="ranaSideLeft3-group544">
            <path id="ranaSideLeft3-bezier543" stroke="none" fill="rgb(0, 0, 0)" d="M 83.78,57.62 C 83.44,57.61 83.1,57.67 82.77,57.86 82.61,57.95 82.4,58.05 82.34,58.28 82.28,58.5 82.33,58.76 82.55,58.91 L 82.62,58.9 C 82.82,58.73 82.92,58.68 83.01,58.62 83.09,58.56 83.09,58.43 83.16,58.32 83.31,58.1 83.55,57.88 83.8,57.69 L 83.78,57.62 Z M 83.78,57.62" />
        </g>
        <g id="ranaSideLeft3-group545">
            <path id="ranaSideLeft3-bezier544" stroke="none" fill="rgb(0, 0, 0)" d="M 14.81,27.61 C 14.92,25.53 15.07,23.45 15.38,21.4 15.46,20.89 15.55,20.38 15.69,19.9 15.75,19.68 15.86,19.4 15.95,19.33 L 16.07,19.29 16.25,19.23 C 16.37,19.2 16.48,19.17 16.6,19.14 17.56,18.92 18.43,19.49 19.01,20.29 19.61,21.06 19.96,22.06 20.49,22.98 20.99,23.91 21.55,24.77 21.94,25.69 22.79,27.52 22.92,29.62 23.09,31.69 L 23.16,31.69 C 23.42,29.63 23.42,27.45 22.63,25.4 22.23,24.39 21.66,23.5 21.13,22.61 20.59,21.76 20.19,20.77 19.48,19.91 19.13,19.49 18.72,19.1 18.19,18.84 17.67,18.58 17.05,18.53 16.5,18.67 16.36,18.7 16.23,18.74 16.1,18.78 L 15.91,18.85 C 15.86,18.87 15.79,18.88 15.67,18.97 15.38,19.26 15.36,19.52 15.27,19.78 15.14,20.31 15.07,20.83 15.01,21.35 14.8,23.44 14.75,25.52 14.74,27.61 L 14.81,27.61 Z M 14.81,27.61" />
        </g>
        <g id="ranaSideLeft3-group546">
            <path id="ranaSideLeft3-bezier545" stroke="none" fill="rgb(0, 0, 0)" d="M 16.41,27.2 C 16.53,26.82 16.67,26.44 16.86,26.09 16.95,25.92 17.05,25.74 17.17,25.61 17.23,25.55 17.3,25.49 17.35,25.48 17.4,25.47 17.39,25.48 17.44,25.52 17.64,25.74 17.61,26.16 17.87,26.6 18.09,27.05 18.65,27.28 19.07,27.31 19.28,27.35 19.49,27.37 19.62,27.41 19.76,27.48 19.72,27.46 19.74,27.56 19.77,27.66 19.71,27.85 19.75,28.14 19.78,28.4 19.9,28.66 20.05,28.87 20.38,29.26 20.73,29.43 20.96,29.68 21.2,29.93 21.34,30.29 21.42,30.69 L 21.5,30.69 C 21.63,30.3 21.62,29.81 21.39,29.39 21.17,28.96 20.8,28.69 20.66,28.43 20.58,28.31 20.53,28.19 20.52,28.04 20.49,27.93 20.53,27.71 20.47,27.41 20.44,27.26 20.36,27.09 20.21,26.96 20.07,26.84 19.91,26.79 19.78,26.76 19.52,26.71 19.32,26.73 19.13,26.72 18.75,26.7 18.47,26.62 18.28,26.34 18.07,26.11 18.07,25.63 17.69,25.24 17.59,25.14 17.36,25.08 17.22,25.17 17.08,25.24 17,25.33 16.94,25.42 16.81,25.61 16.73,25.8 16.65,26 16.51,26.38 16.41,26.78 16.34,27.18 L 16.41,27.2 Z M 16.41,27.2" />
        </g>
        <g id="ranaSideLeft3-group547">
            <path id="ranaSideLeft3-bezier546" stroke="none" fill="rgb(0, 0, 0)" d="M 9.66,30.11 C 9.85,28.88 10,27.65 10.1,26.4 10.15,25.78 10.24,25.16 10.18,24.53 10.11,23.91 10.02,23.26 9.66,22.68 L 9.59,22.7 C 9.53,23.33 9.46,23.93 9.43,24.55 9.39,25.16 9.47,25.77 9.5,26.39 L 9.59,30.11 9.66,30.11 Z M 9.66,30.11" />
        </g>
        <g id="ranaSideLeft3-group548">
            <path id="ranaSideLeft3-bezier547" stroke="none" fill="rgb(0, 0, 0)" d="M 11.64,25.31 C 12.03,24.45 12.36,23.55 12.61,22.63 12.74,22.16 12.89,21.69 12.88,21.2 12.86,20.71 12.78,20.16 12.41,19.76 L 12.34,19.79 C 12.3,20.28 12.21,20.69 12.13,21.14 12.05,21.58 12.06,22.05 12.02,22.51 11.91,23.43 11.75,24.36 11.57,25.29 L 11.64,25.31 Z M 11.64,25.31" />
        </g>
        <g id="ranaSideLeft3-group549">
            <path id="ranaSideLeft3-bezier548" stroke="none" fill="rgb(0, 0, 0)" d="M 22.82,21.76 C 23.76,21.13 24.63,20.37 25.36,19.46 25.73,19.01 26.11,18.54 26.29,17.96 26.48,17.39 26.53,16.74 26.32,16.17 L 26.24,16.17 C 26.04,16.73 25.85,17.2 25.6,17.67 25.36,18.14 25.16,18.64 24.87,19.11 24.29,20.04 23.57,20.91 22.77,21.7 L 22.82,21.76 Z M 22.82,21.76" />
        </g>
        <g id="ranaSideLeft3-group550">
            <path id="ranaSideLeft3-bezier549" stroke="none" fill="rgb(0, 0, 0)" d="M 21.5,18.96 C 21.98,18.12 22.53,17.32 23.15,16.61 23.46,16.25 23.83,15.97 24.14,15.65 24.45,15.34 24.76,15.06 25.21,14.81 L 25.21,14.74 C 24.68,14.57 24.1,14.78 23.66,15.07 23.22,15.37 22.93,15.82 22.67,16.24 22.12,17.09 21.72,18 21.43,18.94 L 21.5,18.96 Z M 21.5,18.96" />
        </g>
        <g id="ranaSideLeft3-group551">
            <path id="ranaSideLeft3-bezier550" stroke="none" fill="rgb(0, 0, 0)" d="M 20.04,18.26 C 20.26,17.92 20.45,17.57 20.6,17.19 20.68,17.01 20.81,16.82 20.79,16.6 20.75,16.4 20.71,16.11 20.41,15.96 L 20.34,16.01 C 20.22,16.21 20.1,16.33 20.04,16.51 19.97,16.67 20.02,16.87 20.01,17.06 20,17.44 19.98,17.84 19.96,18.24 L 20.04,18.26 Z M 20.04,18.26" />
        </g>
        <g id="ranaSideLeft3-group552">
            <path id="ranaSideLeft3-bezier551" stroke="none" fill="rgb(0, 0, 0)" d="M 15.73,18.06 C 16.12,17.93 16.5,17.77 16.86,17.57 17.04,17.47 17.25,17.39 17.37,17.19 17.48,17 17.59,16.73 17.45,16.45 L 17.38,16.44 C 17.14,16.54 16.98,16.58 16.83,16.68 16.67,16.77 16.59,16.95 16.47,17.1 L 15.69,18 15.73,18.06 Z M 15.73,18.06" />
        </g>
        <g id="ranaSideLeft3-group553">
            <path id="ranaSideLeft3-bezier552" stroke="none" fill="rgb(0, 0, 0)" d="M 16.34,39.2 C 16.27,39.82 16.04,40.42 15.68,40.84 15.48,41.05 15.24,41.16 15.05,41.35 14.85,41.54 14.62,41.72 14.37,41.99 L 14.38,42.06 C 14.74,42.19 15.12,42.13 15.45,41.98 15.79,41.82 16.01,41.49 16.17,41.17 16.51,40.53 16.56,39.82 16.41,39.19 L 16.34,39.2 Z M 16.34,39.2" />
        </g>
        <g id="ranaSideLeft3-group554">
            <path id="ranaSideLeft3-bezier553" stroke="none" fill="rgb(0, 0, 0)" d="M 12.36,36.16 C 11.92,36.36 11.5,36.58 11.09,36.85 10.7,37.15 10.29,37.44 10.05,38 9.87,38.58 9.88,39.08 10.03,39.57 10.19,40.05 10.45,40.54 10.93,40.8 L 10.99,40.75 C 10.86,40.28 10.81,39.84 10.76,39.41 10.71,38.99 10.58,38.52 10.62,38.18 10.69,37.83 11.01,37.46 11.33,37.14 11.65,36.81 12.01,36.5 12.39,36.23 L 12.36,36.16 Z M 12.36,36.16" />
        </g>
        <g id="ranaSideLeft3-group656">
            <path id="ranaSideLeft3-bezier654" stroke="none" fill="rgb(0, 0, 0)" d="M 107.58,40.1 C 107.5,40.86 107.36,41.61 107.16,42.3 107.05,42.64 106.84,42.93 106.78,43.23 106.69,43.55 106.64,43.82 106.46,44.24 L 106.5,44.33 C 107,44.39 107.44,44.04 107.68,43.67 107.94,43.29 107.92,42.83 107.95,42.43 107.99,41.62 107.88,40.84 107.68,40.09 L 107.58,40.1 Z M 107.58,40.1" />
        </g>
    </g>
</svg>
