<?xml version="1.0" encoding="UTF-8"?>
<!DOCTYPE svg PUBLIC "-//W3C//DTD SVG 1.1//EN" "http://www.w3.org/Graphics/SVG/1.1/DTD/svg11.dtd">
<svg version="1.1" xmlns="http://www.w3.org/2000/svg" xmlns:xlink="http://www.w3.org/1999/xlink" width="120" height="60"  xml:space="preserve" id="rana3">
    <!-- Generated by PaintCode - http://www.paintcodeapp.com -->
    <g id="rana3-group">
        <g id="rana3-group227">
            <path id="rana3-bezier226" stroke="none" fill="rgb(0, 0, 0)" d="M 107.43,39.19 C 107.42,40.01 106.79,40.92 105.81,40.96 104.87,41.03 103.94,40.2 103.93,39.19 103.9,38.7 104.08,38.19 104.43,37.81 104.78,37.43 105.3,37.21 105.81,37.23 106.33,37.25 106.81,37.54 107.07,37.93 107.35,38.32 107.45,38.77 107.43,39.19 Z M 107.36,39.19 C 107.35,38.78 107.1,38.41 106.79,38.21 106.47,38.01 106.13,37.96 105.81,37.98 105.19,38.01 104.57,38.49 104.53,39.19 104.47,39.87 105.06,40.57 105.81,40.59 106.18,40.62 106.57,40.5 106.88,40.26 107.18,40 107.38,39.6 107.36,39.19 Z M 107.36,39.19" />
        </g>
        <g id="rana3-group316">
            <path id="rana3-bezier315" stroke="none" fill="rgb(0, 0, 0)" d="M 53.27,56.29 C 53.6,56.44 53.9,56.64 54.17,56.89 54.31,57.01 54.49,57.13 54.54,57.34 54.58,57.53 54.57,57.79 54.37,57.98 L 54.29,57.98 C 54.08,57.83 53.97,57.77 53.86,57.66 53.76,57.56 53.75,57.4 53.69,57.24 53.56,56.95 53.4,56.65 53.22,56.35 L 53.27,56.29 Z M 53.27,56.29" />
        </g>
        <g id="rana3-group317">
            <path id="rana3-bezier316" stroke="none" fill="rgb(0, 0, 0)" d="M 55.18,56.12 C 55.5,56.26 55.78,56.48 56,56.77 56.11,56.91 56.26,57.06 56.26,57.25 56.26,57.45 56.19,57.65 55.99,57.82 L 55.92,57.82 C 55.71,57.66 55.62,57.55 55.53,57.44 55.45,57.33 55.49,57.18 55.46,57.04 55.4,56.76 55.29,56.47 55.13,56.18 L 55.18,56.12 Z M 55.18,56.12" />
        </g>
        <g id="rana3-group318">
            <path id="rana3-bezier317" stroke="none" fill="rgb(0, 0, 0)" d="M 56.91,56.65 C 57.27,56.57 57.66,56.55 58.06,56.71 58.25,56.77 58.5,56.88 58.6,57.12 58.69,57.36 58.65,57.64 58.45,57.82 L 58.38,57.82 C 58.16,57.65 58.06,57.58 57.96,57.52 57.87,57.46 57.85,57.33 57.75,57.22 57.55,57.03 57.23,56.86 56.9,56.73 L 56.91,56.65 Z M 56.91,56.65" />
        </g>
        <g id="rana3-group319">
            <path id="rana3-bezier318" stroke="none" fill="rgb(0, 0, 0)" d="M 53.26,57.85 C 52.84,57.95 52.27,57.92 51.98,57.46 51.84,57.25 51.82,56.98 51.79,56.78 L 51.7,56.11 C 51.6,55.23 51.72,54.19 52.38,53.43 52.73,53.03 52.98,52.81 53.23,52.44 L 53.96,51.38 C 54.46,50.67 54.95,49.95 55.52,49.24 L 55.59,49.28 C 55.39,50.16 55.03,50.99 54.59,51.78 54.36,52.17 54.11,52.55 53.81,52.9 53.53,53.24 53.09,53.59 52.83,53.83 52.25,54.38 52.06,55.23 52.08,56.09 52.1,56.51 52.04,57.01 52.18,57.35 52.33,57.72 52.83,57.83 53.24,57.78 L 53.26,57.85 Z M 53.26,57.85" />
        </g>
        <g id="rana3-group320">
            <path id="rana3-bezier319" stroke="none" fill="rgb(0, 0, 0)" d="M 55.93,55.29 L 58.76,51.37 C 59.22,50.71 59.64,50.02 60.14,49.4 60.65,48.78 61.17,48.18 61.76,47.6 L 61.82,47.63 C 61.59,48.44 61.18,49.15 60.75,49.84 60.31,50.53 59.76,51.12 59.23,51.74 58.19,52.97 57.1,54.17 55.99,55.34 L 55.93,55.29 Z M 55.93,55.29" />
        </g>
        <g id="rana3-group330">
            <path id="rana3-bezier329" stroke="none" fill="rgb(0, 0, 0)" d="M 68.24,49.21 C 68.85,50.25 69.49,51.27 70.16,52.25 70.51,52.73 70.9,53.17 71.22,53.66 71.55,54.14 71.83,54.62 72.26,55.05 L 72.24,55.12 C 71.57,55.03 71.05,54.56 70.63,54.12 70.21,53.66 69.94,53.1 69.65,52.56 69.08,51.49 68.59,50.38 68.17,49.24 L 68.24,49.21 Z M 68.24,49.21" />
        </g>
        <g id="rana3-group331">
            <path id="rana3-bezier330" stroke="none" fill="rgb(0, 0, 0)" d="M 72.53,53.51 C 72.75,53.93 72.98,54.34 73.23,54.73 73.48,55.13 73.75,55.52 74.05,55.82 74.35,56.11 74.66,56.12 75.08,56.16 75.5,56.2 76.02,56.19 76.5,56.4 L 76.5,56.47 C 76.03,56.68 75.61,56.84 75.09,56.91 74.57,57 73.89,56.69 73.59,56.22 73.28,55.79 73.09,55.35 72.9,54.9 72.73,54.45 72.59,54 72.46,53.53 L 72.53,53.51 Z M 72.53,53.51" />
        </g>
        <g id="rana3-group332">
            <path id="rana3-bezier331" stroke="none" fill="rgb(0, 0, 0)" d="M 77.01,55.32 C 77.38,55.28 77.76,55.31 78.15,55.45 78.33,55.51 78.58,55.58 78.7,55.81 78.81,56.03 78.83,56.34 78.62,56.53 L 78.55,56.53 C 78.33,56.36 78.21,56.34 78.11,56.28 78.01,56.23 77.96,56.08 77.84,55.97 77.61,55.76 77.31,55.56 76.99,55.39 L 77.01,55.32 Z M 77.01,55.32" />
        </g>
        <g id="rana3-group333">
            <path id="rana3-bezier332" stroke="none" fill="rgb(0, 0, 0)" d="M 79.18,55.32 C 79.5,55.33 79.82,55.39 80.13,55.56 80.28,55.63 80.48,55.71 80.55,55.91 80.62,56.1 80.62,56.37 80.41,56.53 L 80.34,56.53 C 80.12,56.39 80.02,56.38 79.92,56.32 79.84,56.27 79.82,56.14 79.75,56.02 79.59,55.81 79.38,55.6 79.15,55.39 L 79.18,55.32 Z M 79.18,55.32" />
        </g>
        <g id="rana3-group334">
            <path id="rana3-bezier333" stroke="none" fill="rgb(0, 0, 0)" d="M 78.86,54.47 C 78.49,54.3 78.09,54.18 77.7,54.15 77.51,54.14 77.31,54.15 77.13,54.19 77.05,54.21 76.92,54.24 76.82,54.25 76.69,54.26 76.56,54.24 76.46,54.22 75.58,53.99 74.9,53.44 74.31,52.81 74.02,52.49 73.74,52.1 73.63,51.61 73.52,51.18 73.49,50.75 73.48,50.34 73.46,49.51 73.58,48.72 73.47,47.92 L 73.54,47.88 C 73.81,48.23 73.93,48.66 74.03,49.07 74.13,49.48 74.18,49.89 74.23,50.29 74.27,50.7 74.3,51.1 74.35,51.46 74.38,51.79 74.55,52.12 74.77,52.43 75.23,53.03 75.85,53.61 76.55,53.86 76.81,54 77.32,53.8 77.73,53.93 78.15,54.02 78.54,54.19 78.89,54.41 L 78.86,54.47 Z M 78.86,54.47" />
        </g>
        <g id="rana3-group350">
            <path id="rana3-bezier349" stroke="none" fill="rgb(0, 0, 0)" d="M 89.21,25.14 C 88.18,25.08 87.14,25.06 86.12,25.09 85.6,25.12 85.1,25.21 84.6,25.2 84.1,25.19 83.61,25.18 83.06,25.13 L 83.03,25.06 C 83.47,24.71 84.01,24.54 84.54,24.45 85.07,24.36 85.61,24.44 86.14,24.49 87.19,24.59 88.22,24.79 89.23,25.06 L 89.21,25.14 Z M 89.21,25.14" />
        </g>
        <g id="rana3-group351">
            <path id="rana3-bezier350" stroke="none" fill="rgb(0, 0, 0)" d="M 84.51,28.9 C 83.72,29.09 82.98,29.43 82.29,29.82 81.95,30.03 81.65,30.29 81.3,30.46 80.94,30.64 80.58,30.81 80.14,30.91 L 80.09,30.86 C 80.27,30.43 80.56,30.11 80.89,29.84 81.22,29.56 81.64,29.42 82.04,29.28 82.83,28.98 83.67,28.8 84.51,28.82 L 84.51,28.9 Z M 84.51,28.9" />
        </g>
        <g id="rana3-group352">
            <path id="rana3-bezier351" stroke="none" fill="rgb(0, 0, 0)" d="M 82.32,27.77 C 81,28.31 79.7,28.91 78.46,29.59 77.84,29.94 77.27,30.35 76.67,30.69 76.06,31.03 75.47,31.39 74.86,31.79 L 74.8,31.74 C 75.11,31.05 75.67,30.51 76.25,30.06 76.84,29.61 77.52,29.33 78.19,29.05 79.52,28.47 80.9,28.03 82.3,27.7 L 82.32,27.77 Z M 82.32,27.77" />
        </g>
        <g id="rana3-group353">
            <path id="rana3-bezier352" stroke="none" fill="rgb(0, 0, 0)" d="M 16.12,36.67 C 15.45,37.19 14.78,37.71 14.13,38.23 13.81,38.5 13.52,38.81 13.16,39.02 12.8,39.23 12.44,39.42 12,39.57 L 11.95,39.52 C 12.11,39.07 12.4,38.73 12.71,38.43 13.02,38.12 13.42,37.94 13.79,37.74 14.54,37.31 15.3,36.94 16.09,36.6 L 16.12,36.67 Z M 16.12,36.67" />
        </g>
        <g id="rana3-group354">
            <path id="rana3-bezier353" stroke="none" fill="rgb(0, 0, 0)" d="M 12.99,37.18 C 12.25,37.57 11.53,37.96 10.81,38.35 10.46,38.55 10.13,38.8 9.75,38.94 9.37,39.08 8.98,39.21 8.53,39.25 L 8.49,39.19 C 8.73,38.79 9.06,38.51 9.41,38.28 9.76,38.04 10.17,37.94 10.57,37.8 11.35,37.52 12.15,37.29 12.96,37.11 L 12.99,37.18 Z M 12.99,37.18" />
        </g>
        <g id="rana3-group355">
            <path id="rana3-bezier354" stroke="none" fill="rgb(0, 0, 0)" d="M 11.36,36.05 C 10.66,35.96 9.95,35.94 9.28,36 8.94,36.05 8.63,36.16 8.31,36.18 7.98,36.2 7.67,36.22 7.26,36.23 L 7.22,36.17 C 7.42,35.8 7.78,35.58 8.14,35.45 8.52,35.31 8.91,35.36 9.28,35.41 10.02,35.48 10.73,35.68 11.38,35.98 L 11.36,36.05 Z M 11.36,36.05" />
        </g>
        <g id="rana3-group356">
            <path id="rana3-bezier355" stroke="none" fill="rgb(0, 0, 0)" d="M 73.14,30.41 C 71.89,30.62 70.67,31 69.54,31.52 68.97,31.79 68.46,32.13 67.92,32.42 L 66.27,33.33 66.21,33.27 C 66.51,32.67 66.99,32.18 67.52,31.78 68.06,31.38 68.7,31.16 69.32,30.96 70.56,30.54 71.85,30.33 73.14,30.33 L 73.14,30.41 Z M 73.14,30.41" />
        </g>
        <g id="rana3-group357">
            <path id="rana3-bezier356" stroke="none" fill="rgb(0, 0, 0)" d="M 65.5,30.92 C 64,31.21 62.51,31.59 61.07,32.08 60.36,32.33 59.68,32.66 59,32.94 58.31,33.22 57.65,33.52 57,33.95 L 56.94,33.9 C 57.31,33.17 57.99,32.66 58.67,32.26 59.37,31.87 60.15,31.68 60.9,31.5 62.42,31.13 63.95,30.92 65.5,30.85 L 65.5,30.92 Z M 65.5,30.92" />
        </g>
        <g id="rana3-group358">
            <path id="rana3-bezier357" stroke="none" fill="rgb(0, 0, 0)" d="M 62.85,32.75 C 61.79,33.3 60.76,33.9 59.78,34.54 59.3,34.87 58.86,35.26 58.38,35.57 57.91,35.89 57.45,36.19 57.01,36.61 L 56.94,36.58 C 57.03,35.93 57.47,35.4 57.92,34.98 58.38,34.56 58.94,34.3 59.48,34.02 60.56,33.47 61.68,33.04 62.82,32.68 L 62.85,32.75 Z M 62.85,32.75" />
        </g>
        <g id="rana3-group359">
            <path id="rana3-bezier358" stroke="none" fill="rgb(0, 0, 0)" d="M 54.41,34.69 C 53.58,35.31 52.79,36 52.06,36.71 51.7,37.08 51.4,37.49 51.02,37.82 50.64,38.16 50.26,38.5 49.81,38.81 L 49.74,38.77 C 49.86,38.22 50.14,37.75 50.47,37.32 50.8,36.89 51.24,36.58 51.67,36.26 52.52,35.62 53.42,35.07 54.38,34.62 L 54.41,34.69 Z M 54.41,34.69" />
        </g>
        <g id="rana3-group360">
            <path id="rana3-bezier359" stroke="none" fill="rgb(0, 0, 0)" d="M 51.1,35.57 C 49.98,36.3 48.8,36.94 47.55,37.46 46.93,37.72 46.3,38 45.62,38.11 44.94,38.21 44.23,38.23 43.56,38.03 L 43.56,37.95 45.45,37.38 C 46.07,37.19 46.71,37.08 47.35,36.89 48.6,36.51 49.85,36.05 51.07,35.5 L 51.1,35.57 Z M 51.1,35.57" />
        </g>
        <g id="rana3-group361">
            <path id="rana3-bezier360" stroke="none" fill="rgb(0, 0, 0)" d="M 43.57,37.18 C 42.14,37.8 40.72,38.42 39.32,39.07 38.63,39.4 37.96,39.78 37.25,40.08 36.57,40.39 35.8,40.6 35.24,41.06 L 35.17,41.04 C 35.28,40.6 35.64,40.33 35.93,40.07 36.24,39.81 36.58,39.6 36.92,39.4 37.61,39.01 38.36,38.78 39.1,38.51 40.56,37.98 42.05,37.52 43.55,37.11 L 43.57,37.18 Z M 43.57,37.18" />
        </g>
        <g id="rana3-group362">
            <path id="rana3-bezier361" stroke="none" fill="rgb(0, 0, 0)" d="M 38.49,37.35 C 37.93,37.66 37.38,38.13 36.81,38.52 36.24,38.91 35.66,39.29 35.06,39.65 34.47,40.01 33.86,40.4 33.17,40.6 32.5,40.79 31.73,40.93 31.03,40.68 L 31.03,40.61 C 31.71,40.44 32.3,40.17 32.92,39.9 33.52,39.62 34.16,39.4 34.78,39.12 35.4,38.84 36.01,38.52 36.62,38.2 37.24,37.9 37.81,37.52 38.49,37.27 L 38.49,37.35 Z M 38.49,37.35" />
        </g>
        <g id="rana3-group363">
            <path id="rana3-bezier362" stroke="none" fill="rgb(0, 0, 0)" d="M 34.15,38.46 C 33.07,38.74 32,39.03 30.94,39.34 30.41,39.5 29.9,39.71 29.37,39.81 28.84,39.93 28.31,39.98 27.77,40.13 L 27.72,40.07 C 28.08,39.55 28.65,39.31 29.16,39.09 29.69,38.89 30.26,38.83 30.81,38.75 31.91,38.57 33.02,38.46 34.13,38.38 L 34.15,38.46 Z M 34.15,38.46" />
        </g>
        <g id="rana3-group364">
            <path id="rana3-bezier363" stroke="none" fill="rgb(0, 0, 0)" d="M 39.39,33.96 L 35.24,35.65 C 34.55,35.94 33.89,36.28 33.19,36.51 32.48,36.76 31.78,36.96 31.05,37.18 L 31.01,37.12 C 31.54,36.53 32.23,36.16 32.9,35.82 33.58,35.49 34.32,35.3 35.03,35.08 36.47,34.63 37.91,34.24 39.37,33.89 L 39.39,33.96 Z M 39.39,33.96" />
        </g>
        <g id="rana3-group365">
            <path id="rana3-bezier364" stroke="none" fill="rgb(0, 0, 0)" d="M 29.62,36.23 L 25.51,37.31 C 24.83,37.5 24.16,37.74 23.47,37.86 22.78,37.98 22.09,38.08 21.36,38.13 L 21.33,38.06 C 21.94,37.62 22.62,37.36 23.29,37.13 23.97,36.91 24.69,36.84 25.39,36.73 26.79,36.49 28.19,36.31 29.6,36.16 L 29.62,36.23 Z M 29.62,36.23" />
        </g>
        <g id="rana3-group366">
            <path id="rana3-bezier365" stroke="none" fill="rgb(0, 0, 0)" d="M 21.94,35.99 C 20.78,36.26 19.64,36.58 18.54,36.97 17.99,37.17 17.47,37.44 16.95,37.63 16.42,37.85 15.9,38 15.49,38.43 L 15.42,38.41 C 15.44,38.07 15.64,37.77 15.86,37.54 16.09,37.29 16.35,37.12 16.62,36.96 17.17,36.64 17.78,36.52 18.37,36.39 19.55,36.12 20.74,35.98 21.93,35.91 L 21.94,35.99 Z M 21.94,35.99" />
        </g>
        <g id="rana3-group367">
            <path id="rana3-bezier366" stroke="none" fill="rgb(0, 0, 0)" d="M 14.51,32.75 C 13.36,32.96 12.22,33.18 11.09,33.42 10.52,33.54 9.97,33.72 9.41,33.79 8.84,33.86 8.28,33.9 7.68,33.96 L 7.65,33.89 C 8.1,33.45 8.69,33.23 9.25,33.05 9.82,32.88 10.42,32.87 11,32.82 12.17,32.72 13.33,32.67 14.5,32.68 L 14.51,32.75 Z M 14.51,32.75" />
        </g>
        <g id="rana3-group368">
            <path id="rana3-bezier367" stroke="none" fill="rgb(0, 0, 0)" d="M 16.99,27.77 C 15.7,27.86 14.42,27.94 13.14,28.04 12.5,28.1 11.86,28.22 11.23,28.22 10.59,28.24 9.96,28.18 9.33,28.24 L 9.29,28.17 C 9.55,27.92 9.88,27.81 10.2,27.7 10.52,27.59 10.84,27.53 11.17,27.47 11.82,27.37 12.47,27.42 13.12,27.45 14.42,27.48 15.71,27.56 17,27.7 L 16.99,27.77 Z M 16.99,27.77" />
        </g>
        <g id="rana3-group369">
            <path id="rana3-bezier368" stroke="none" fill="rgb(0, 0, 0)" d="M 22.71,23.58 C 21.67,23.16 20.63,22.77 19.58,22.43 19.06,22.26 18.52,22.16 18.01,21.96 17.5,21.76 17.02,21.56 16.48,21.33 L 16.48,21.25 C 17.06,21.07 17.66,21.13 18.22,21.24 18.79,21.35 19.3,21.63 19.8,21.87 20.82,22.35 21.8,22.9 22.74,23.51 L 22.71,23.58 Z M 22.71,23.58" />
        </g>
        <g id="rana3-group370">
            <path id="rana3-bezier369" stroke="none" fill="rgb(0, 0, 0)" d="M 30.44,18.91 L 26.91,17.68 C 26.32,17.48 25.71,17.33 25.15,17.08 24.58,16.83 24.05,16.53 23.48,16.27 L 23.48,16.2 C 24.15,16.05 24.79,16.22 25.4,16.37 26.01,16.54 26.57,16.85 27.13,17.12 28.27,17.65 29.38,18.23 30.47,18.84 L 30.44,18.91 Z M 30.44,18.91" />
        </g>
        <g id="rana3-group371">
            <path id="rana3-bezier370" stroke="none" fill="rgb(0, 0, 0)" d="M 39.36,16.27 C 38.33,15.62 37.33,14.93 36.36,14.19 35.87,13.83 35.35,13.49 34.94,13.02 34.73,12.79 34.53,12.55 34.37,12.27 34.23,12 33.99,11.71 34.1,11.32 L 34.17,11.34 C 34.45,11.78 35.03,12.1 35.46,12.48 35.92,12.86 36.31,13.32 36.74,13.74 37.62,14.56 38.51,15.39 39.4,16.21 L 39.36,16.27 Z M 39.36,16.27" />
        </g>
        <g id="rana3-group372">
            <path id="rana3-bezier371" stroke="none" fill="rgb(0, 0, 0)" d="M 48.07,13.81 C 47.19,13.32 46.34,12.78 45.51,12.18 45.1,11.89 44.66,11.62 44.32,11.24 43.99,10.85 43.67,10.42 43.53,9.89 L 43.59,9.84 C 44.04,10.11 44.44,10.39 44.83,10.69 45.22,10.99 45.54,11.37 45.9,11.72 46.62,12.4 47.36,13.08 48.11,13.75 L 48.07,13.81 Z M 48.07,13.81" />
        </g>
        <g id="rana3-group373">
            <path id="rana3-bezier372" stroke="none" fill="rgb(0, 0, 0)" d="M 56.95,13.82 C 56,13.41 55.08,12.94 54.2,12.38 53.76,12.1 53.29,11.84 52.94,11.42 52.77,11.21 52.61,10.98 52.5,10.72 52.39,10.46 52.3,10.14 52.4,9.86 L 52.48,9.86 C 52.72,10.31 53.11,10.57 53.47,10.89 53.85,11.19 54.18,11.57 54.56,11.9 55.33,12.54 56.15,13.16 56.99,13.75 L 56.95,13.82 Z M 56.95,13.82" />
        </g>
        <g id="rana3-group374">
            <path id="rana3-bezier373" stroke="none" fill="rgb(0, 0, 0)" d="M 59.88,14.21 C 59.16,13.7 58.49,13.12 57.91,12.43 57.61,12.09 57.29,11.74 57.15,11.27 57.01,10.84 56.98,10.2 57.38,9.85 L 57.45,9.88 C 57.47,10.34 57.65,10.64 57.84,10.99 58.03,11.32 58.18,11.71 58.39,12.08 58.84,12.8 59.37,13.49 59.93,14.16 L 59.88,14.21 Z M 59.88,14.21" />
        </g>
        <g id="rana3-group375">
            <path id="rana3-bezier374" stroke="none" fill="rgb(0, 0, 0)" d="M 65.47,14.5 C 64.76,13.84 64.04,13.19 63.31,12.57 62.94,12.26 62.54,12 62.21,11.67 L 61.22,10.63 61.25,10.56 C 61.8,10.55 62.28,10.82 62.69,11.09 63.11,11.37 63.41,11.77 63.73,12.14 64.38,12.88 64.98,13.65 65.53,14.46 L 65.47,14.5 Z M 65.47,14.5" />
        </g>
        <g id="rana3-group376">
            <path id="rana3-bezier375" stroke="none" fill="rgb(0, 0, 0)" d="M 73.12,14.8 C 71.74,14.13 70.39,13.38 69.1,12.53 68.45,12.11 67.78,11.7 67.23,11.12 66.96,10.84 66.7,10.53 66.49,10.18 66.3,9.83 66.1,9.41 66.2,8.99 L 66.28,8.99 C 66.55,9.67 67.19,10.09 67.74,10.58 68.32,11.04 68.86,11.57 69.45,12.05 70.64,12.99 71.89,13.88 73.16,14.74 L 73.12,14.8 Z M 73.12,14.8" />
        </g>
        <g id="rana3-group377">
            <path id="rana3-bezier376" stroke="none" fill="rgb(0, 0, 0)" d="M 76.73,12.97 C 76.01,12.43 75.3,11.87 74.62,11.27 74.27,10.97 73.9,10.7 73.63,10.33 73.5,10.14 73.37,9.94 73.27,9.72 73.18,9.5 73.07,9.28 73.1,8.99 L 73.18,8.98 C 73.5,9.28 73.87,9.53 74.19,9.83 74.52,10.13 74.77,10.5 75.05,10.85 L 76.79,12.91 76.73,12.97 Z M 76.73,12.97" />
        </g>
        <g id="rana3-group378">
            <path id="rana3-bezier377" stroke="none" fill="rgb(0, 0, 0)" d="M 82.05,14.51 L 79.33,13.01 C 78.88,12.77 78.4,12.58 77.98,12.29 77.56,12 77.18,11.67 76.75,11.37 L 76.76,11.29 C 77.35,11.21 77.87,11.43 78.35,11.63 78.83,11.85 79.24,12.2 79.65,12.51 80.49,13.12 81.3,13.77 82.09,14.45 L 82.05,14.51 Z M 82.05,14.51" />
        </g>
        <g id="rana3-group379">
            <path id="rana3-bezier378" stroke="none" fill="rgb(0, 0, 0)" d="M 84.35,14.21 C 83.77,13.78 83.35,13.15 83.05,12.47 82.91,12.13 82.73,11.78 82.74,11.41 82.73,11.03 82.8,10.65 83.01,10.3 L 83.08,10.31 C 83.29,10.66 83.38,10.98 83.48,11.3 83.57,11.62 83.56,11.95 83.62,12.29 83.77,12.93 84,13.59 84.4,14.16 L 84.35,14.21 Z M 84.35,14.21" />
        </g>
        <g id="rana3-group380">
            <path id="rana3-bezier379" stroke="none" fill="rgb(0, 0, 0)" d="M 90.44,16.93 C 89.5,16.31 88.6,15.64 87.75,14.9 87.32,14.53 86.86,14.17 86.53,13.69 86.22,13.22 85.9,12.66 85.94,12.03 L 86.01,12.02 C 86.36,12.47 86.74,12.82 87.11,13.22 87.49,13.6 87.8,14.05 88.17,14.47 88.91,15.29 89.69,16.09 90.49,16.87 L 90.44,16.93 Z M 90.44,16.93" />
        </g>
        <g id="rana3-group381">
            <path id="rana3-bezier380" stroke="none" fill="rgb(0, 0, 0)" d="M 90.78,14.78 C 90.55,14.23 90.37,13.66 90.26,13.05 90.2,12.76 90.11,12.44 90.19,12.12 90.27,11.82 90.43,11.45 90.79,11.31 L 90.85,11.35 C 90.86,11.69 90.92,11.92 90.94,12.19 90.96,12.46 90.88,12.73 90.86,13.01 90.83,13.58 90.84,14.17 90.86,14.76 L 90.78,14.78 Z M 90.78,14.78" />
        </g>
        <g id="rana3-group382">
            <path id="rana3-bezier381" stroke="none" fill="rgb(0, 0, 0)" d="M 37.49,18.5 C 36.34,17.83 35.22,17.09 34.16,16.26 33.62,15.85 33.06,15.45 32.63,14.92 32.21,14.39 31.79,13.78 31.71,13.06 L 31.78,13.04 C 32.22,13.55 32.69,13.96 33.17,14.41 33.65,14.84 34.08,15.34 34.55,15.81 35.51,16.71 36.51,17.59 37.54,18.44 L 37.49,18.5 Z M 37.49,18.5" />
        </g>
        <g id="rana3-group383">
            <path id="rana3-bezier382" stroke="none" fill="rgb(0, 0, 0)" d="M 26.34,20.9 C 25.65,20.52 24.9,20.26 24.16,20.07 23.78,19.98 23.4,19.96 23.04,19.83 22.68,19.71 22.31,19.58 21.93,19.35 L 21.94,19.28 C 22.35,19.09 22.77,19.07 23.19,19.1 23.6,19.13 23.99,19.33 24.36,19.5 25.11,19.84 25.8,20.28 26.39,20.84 L 26.34,20.9 Z M 26.34,20.9" />
        </g>
        <g id="rana3-group384">
            <path id="rana3-bezier383" stroke="none" fill="rgb(0, 0, 0)" d="M 24.56,25.72 C 22.88,25.43 21.2,25.18 19.52,24.97 18.68,24.88 17.84,24.85 17.01,24.73 16.18,24.62 15.37,24.48 14.52,24.48 L 14.5,24.4 C 15.3,23.99 16.22,23.98 17.07,23.98 17.94,24 18.78,24.2 19.62,24.38 21.3,24.72 22.95,25.15 24.58,25.65 L 24.56,25.72 Z M 24.56,25.72" />
        </g>
        <g id="rana3-group385">
            <path id="rana3-bezier384" stroke="none" fill="rgb(0, 0, 0)" d="M 18.7,29.79 C 17.51,30.11 16.31,30.38 15.08,30.59 14.47,30.69 13.86,30.83 13.23,30.81 12.61,30.79 11.95,30.72 11.37,30.41 L 11.38,30.34 C 12.01,30.23 12.59,30.14 13.2,30.06 13.79,29.99 14.41,30.02 15.02,29.99 16.24,29.92 17.46,29.83 18.69,29.72 L 18.7,29.79 Z M 18.7,29.79" />
        </g>
        <g id="rana3-group386">
            <path id="rana3-bezier385" stroke="none" fill="rgb(0, 0, 0)" d="M 54.41,32.44 C 53.09,33.14 51.72,33.73 50.29,34.21 49.58,34.46 48.86,34.71 48.1,34.8 47.35,34.88 46.57,34.89 45.82,34.69 L 45.82,34.62 C 46.56,34.4 47.26,34.24 47.97,34.06 48.68,33.89 49.41,33.8 50.12,33.64 51.56,33.29 52.98,32.87 54.38,32.37 L 54.41,32.44 Z M 54.41,32.44" />
        </g>
        <g id="rana3-group387">
            <path id="rana3-bezier386" stroke="none" fill="rgb(0, 0, 0)" d="M 48.07,15.47 C 46.63,15 45.18,14.57 43.73,14.18 43,13.99 42.26,13.87 41.55,13.66 40.83,13.46 40.14,13.23 39.38,13.09 L 39.38,13.01 C 40.14,12.74 40.95,12.82 41.71,12.93 42.48,13.05 43.19,13.34 43.91,13.61 45.34,14.13 46.74,14.73 48.1,15.4 L 48.07,15.47 Z M 48.07,15.47" />
        </g>
        <g id="rana3-group388">
            <path id="rana3-bezier387" stroke="none" fill="rgb(0, 0, 0)" d="M 41.24,23.58 C 39.39,23.35 37.55,23.08 35.72,22.74 34.8,22.58 33.87,22.45 32.97,22.16 32.53,22.02 32.08,21.86 31.65,21.66 31.22,21.46 30.78,21.26 30.43,20.9 L 30.47,20.84 C 31.35,21.12 32.27,21.23 33.16,21.44 34.07,21.62 34.95,21.91 35.84,22.15 L 41.25,23.51 41.24,23.58 Z M 41.24,23.58" />
        </g>
        <g id="rana3-group389">
            <path id="rana3-bezier388" stroke="none" fill="rgb(0, 0, 0)" d="M 34.62,25.14 L 30.76,24.42 C 30.12,24.31 29.47,24.26 28.84,24.09 28.21,23.94 27.61,23.72 26.97,23.58 L 26.96,23.51 C 27.63,23.23 28.32,23.3 28.98,23.36 29.64,23.43 30.27,23.65 30.9,23.84 32.16,24.2 33.41,24.61 34.64,25.06 L 34.62,25.14 Z M 34.62,25.14" />
        </g>
        <g id="rana3-group390">
            <path id="rana3-bezier389" stroke="none" fill="rgb(0, 0, 0)" d="M 29.61,29.79 C 28.35,29.66 27.14,29.38 25.93,29.06 25.33,28.9 24.7,28.76 24.14,28.47 23.86,28.32 23.58,28.15 23.32,27.95 23.07,27.74 22.81,27.5 22.69,27.17 L 22.75,27.13 C 23.28,27.44 23.87,27.57 24.44,27.78 25.01,27.97 25.55,28.26 26.12,28.49 26.69,28.72 27.27,28.94 27.85,29.14 28.43,29.35 29.02,29.57 29.61,29.71 L 29.61,29.79 Z M 29.61,29.79" />
        </g>
        <g id="rana3-group391">
            <path id="rana3-bezier390" stroke="none" fill="rgb(0, 0, 0)" d="M 22.71,33.57 C 21.5,33.13 20.29,32.72 19.08,32.36 18.47,32.18 17.85,32.07 17.26,31.86 16.66,31.66 16.1,31.44 15.46,31.29 L 15.46,31.21 C 16.1,30.96 16.81,31.03 17.44,31.14 18.09,31.26 18.69,31.54 19.28,31.79 20.47,32.29 21.62,32.86 22.74,33.5 L 22.71,33.57 Z M 22.71,33.57" />
        </g>
        <g id="rana3-group392">
            <path id="rana3-bezier391" stroke="none" fill="rgb(0, 0, 0)" d="M 17.8,34.66 C 16.82,34.82 15.85,34.93 14.86,34.99 14.37,35.03 13.87,35.1 13.37,35.01 12.88,34.9 12.34,34.79 11.95,34.36 L 11.99,34.3 C 12.49,34.32 12.95,34.26 13.43,34.26 13.9,34.25 14.38,34.35 14.87,34.39 15.83,34.47 16.81,34.53 17.79,34.58 L 17.8,34.66 Z M 17.8,34.66" />
        </g>
        <g id="rana3-group393">
            <path id="rana3-bezier392" stroke="none" fill="rgb(0, 0, 0)" d="M 35.85,31.8 C 34.2,32.13 32.55,32.42 30.88,32.66 30.05,32.79 29.22,32.96 28.38,32.98 27.53,33 26.67,33 25.83,32.75 L 25.83,32.68 C 26.67,32.51 27.48,32.35 28.31,32.24 29.14,32.12 29.98,32.12 30.82,32.07 L 35.84,31.73 35.85,31.8 Z M 35.85,31.8" />
        </g>
        <g id="rana3-group394">
            <path id="rana3-bezier393" stroke="none" fill="rgb(0, 0, 0)" d="M 48.09,30.14 C 47.64,30.43 47.24,30.9 46.82,31.3 46.39,31.7 45.96,32.1 45.52,32.49 45.08,32.88 44.65,33.3 44.11,33.58 43.58,33.84 42.96,34.12 42.31,33.96 L 42.31,33.89 C 42.84,33.64 43.25,33.28 43.71,32.95 44.16,32.61 44.67,32.34 45.15,32.01 45.63,31.69 46.1,31.35 46.58,31.01 47.07,30.69 47.5,30.3 48.08,30.07 L 48.09,30.14 Z M 48.09,30.14" />
        </g>
        <g id="rana3-group395">
            <path id="rana3-bezier394" stroke="none" fill="rgb(0, 0, 0)" d="M 41.69,29.24 C 40.1,29.11 38.53,28.94 36.96,28.8 36.17,28.73 35.38,28.72 34.6,28.6 33.83,28.49 33.06,28.29 32.29,28.24 L 32.26,28.17 C 32.64,27.96 33.06,27.92 33.47,27.88 33.87,27.83 34.27,27.84 34.67,27.85 35.48,27.88 36.25,28.06 37.04,28.2 L 39.37,28.66 41.69,29.17 41.69,29.24 Z M 41.69,29.24" />
        </g>
        <g id="rana3-group396">
            <path id="rana3-bezier395" stroke="none" fill="rgb(0, 0, 0)" d="M 43.72,26.67 C 42.84,26.38 41.95,26.1 41.07,25.84 40.63,25.72 40.17,25.65 39.76,25.49 39.34,25.33 38.95,25.13 38.5,24.98 L 38.49,24.9 C 38.96,24.63 39.5,24.7 39.96,24.76 40.44,24.85 40.86,25.08 41.28,25.28 42.14,25.67 42.96,26.12 43.75,26.6 L 43.72,26.67 Z M 43.72,26.67" />
        </g>
        <g id="rana3-group397">
            <path id="rana3-bezier396" stroke="none" fill="rgb(0, 0, 0)" d="M 43.72,21.77 C 42.68,21.51 41.64,21.28 40.6,21.09 40.08,21.01 39.55,20.98 39.05,20.87 38.54,20.76 38.07,20.62 37.53,20.59 L 37.5,20.52 C 37.98,20.14 38.61,20.12 39.15,20.13 39.71,20.15 40.23,20.34 40.74,20.51 41.78,20.83 42.78,21.24 43.75,21.7 L 43.72,21.77 Z M 43.72,21.77" />
        </g>
        <g id="rana3-group398">
            <path id="rana3-bezier397" stroke="none" fill="rgb(0, 0, 0)" d="M 48.06,19.78 C 47.12,19.23 46.17,18.7 45.2,18.22 44.71,17.99 44.2,17.81 43.75,17.57 43.28,17.33 42.85,17.05 42.32,16.93 L 42.3,16.86 C 42.57,16.69 42.89,16.68 43.19,16.7 43.48,16.71 43.77,16.79 44.04,16.88 44.58,17.05 45.04,17.39 45.5,17.7 46.42,18.31 47.29,18.99 48.11,19.72 L 48.06,19.78 Z M 48.06,19.78" />
        </g>
        <g id="rana3-group399">
            <path id="rana3-bezier398" stroke="none" fill="rgb(0, 0, 0)" d="M 58.02,17.59 C 56.8,17.04 55.61,16.45 54.45,15.79 53.87,15.47 53.26,15.17 52.74,14.73 52.49,14.5 52.23,14.27 52.02,14 51.8,13.73 51.58,13.43 51.52,13.06 L 51.59,13.04 C 52.06,13.48 52.65,13.76 53.19,14.12 53.74,14.47 54.24,14.9 54.77,15.29 55.85,16.05 56.95,16.79 58.06,17.52 L 58.02,17.59 Z M 58.02,17.59" />
        </g>
        <g id="rana3-group400">
            <path id="rana3-bezier399" stroke="none" fill="rgb(0, 0, 0)" d="M 89.72,22.45 C 88.23,21.99 86.73,21.55 85.23,21.16 84.48,20.98 83.71,20.86 82.98,20.65 82.23,20.46 81.52,20.23 80.74,20.13 L 80.73,20.05 C 81.5,19.74 82.35,19.82 83.13,19.92 83.92,20.04 84.66,20.33 85.4,20.59 86.89,21.11 88.33,21.71 89.74,22.38 L 89.72,22.45 Z M 89.72,22.45" />
        </g>
        <g id="rana3-group401">
            <path id="rana3-bezier400" stroke="none" fill="rgb(0, 0, 0)" d="M 91.96,20.3 C 90.82,19.84 89.71,19.33 88.63,18.76 88.08,18.47 87.51,18.21 87.03,17.81 86.8,17.61 86.56,17.4 86.36,17.14 86.17,16.89 85.94,16.61 85.94,16.25 L 86.01,16.23 C 86.41,16.65 86.97,16.88 87.47,17.2 87.98,17.5 88.44,17.89 88.94,18.24 89.94,18.92 90.96,19.58 91.99,20.23 L 91.96,20.3 Z M 91.96,20.3" />
        </g>
        <g id="rana3-group402">
            <path id="rana3-bezier401" stroke="none" fill="rgb(0, 0, 0)" d="M 83.69,18.34 L 79.86,16.92 C 79.21,16.7 78.55,16.52 77.94,16.24 77.32,15.96 76.73,15.64 76.11,15.34 L 76.12,15.27 C 76.85,15.17 77.54,15.35 78.2,15.53 78.87,15.73 79.47,16.07 80.09,16.37 81.32,16.96 82.53,17.6 83.73,18.28 L 83.69,18.34 Z M 83.69,18.34" />
        </g>
        <g id="rana3-group403">
            <path id="rana3-bezier402" stroke="none" fill="rgb(0, 0, 0)" d="M 75.26,18.91 C 74.15,18.42 73.08,17.88 72.03,17.28 71.5,16.98 70.95,16.7 70.49,16.29 70.05,15.88 69.6,15.41 69.38,14.79 L 69.44,14.75 70.95,15.69 C 71.44,16.01 71.88,16.41 72.36,16.77 73.32,17.48 74.3,18.17 75.29,18.84 L 75.26,18.91 Z M 75.26,18.91" />
        </g>
        <g id="rana3-group404">
            <path id="rana3-bezier403" stroke="none" fill="rgb(0, 0, 0)" d="M 81.79,23.3 C 80.44,22.87 79.1,22.45 77.76,22.06 77.08,21.87 76.39,21.73 75.74,21.5 75.08,21.3 74.45,20.99 73.77,20.9 L 73.75,20.83 C 74.1,20.63 74.49,20.64 74.85,20.65 75.22,20.65 75.58,20.71 75.93,20.78 76.64,20.92 77.29,21.22 77.95,21.49 79.27,22.01 80.55,22.6 81.82,23.23 L 81.79,23.3 Z M 81.79,23.3" />
        </g>
        <g id="rana3-group405">
            <path id="rana3-bezier404" stroke="none" fill="rgb(0, 0, 0)" d="M 80.14,25.81 C 79.72,25.92 79.36,25.82 78.97,25.79 78.59,25.75 78.21,25.7 77.83,25.65 77.07,25.52 76.32,25.38 75.57,25.22 74.82,25.06 74.06,24.93 73.34,24.63 72.99,24.49 72.63,24.33 72.29,24.12 71.97,23.9 71.59,23.71 71.42,23.28 L 71.49,23.25 C 72.09,23.61 72.88,23.7 73.58,23.92 74.31,24.11 75.01,24.4 75.73,24.64 76.45,24.87 77.18,25.08 77.91,25.28 78.63,25.47 79.4,25.73 80.09,25.75 L 80.14,25.81 Z M 80.14,25.81" />
        </g>
        <g id="rana3-group406">
            <path id="rana3-bezier405" stroke="none" fill="rgb(0, 0, 0)" d="M 73.15,26.68 L 69.34,27.66 C 68.71,27.84 68.09,28.07 67.46,28.18 66.82,28.31 66.18,28.39 65.52,28.48 L 65.48,28.42 C 66,27.94 66.64,27.68 67.27,27.46 67.9,27.24 68.56,27.18 69.21,27.08 70.51,26.87 71.82,26.71 73.13,26.6 L 73.15,26.68 Z M 73.15,26.68" />
        </g>
        <g id="rana3-group407">
            <path id="rana3-bezier406" stroke="none" fill="rgb(0, 0, 0)" d="M 75.26,22.85 C 73.9,22.47 72.55,22.06 71.21,21.58 70.54,21.34 69.86,21.14 69.23,20.78 68.92,20.6 68.62,20.41 68.33,20.18 68.05,19.95 67.74,19.71 67.6,19.33 L 67.67,19.29 C 68.24,19.65 68.93,19.83 69.56,20.11 70.21,20.36 70.81,20.71 71.44,21.02 72.71,21.62 74,22.2 75.29,22.77 L 75.26,22.85 Z M 75.26,22.85" />
        </g>
        <g id="rana3-group408">
            <path id="rana3-bezier407" stroke="none" fill="rgb(0, 0, 0)" d="M 70.42,18.29 C 69.09,17.89 67.77,17.51 66.44,17.18 65.77,17.02 65.09,16.92 64.45,16.73 63.8,16.56 63.17,16.32 62.49,16.27 L 62.47,16.2 C 62.79,16 63.18,15.96 63.53,15.94 63.9,15.91 64.25,15.95 64.6,16 65.31,16.09 65.96,16.36 66.61,16.6 67.92,17.07 69.2,17.61 70.44,18.22 L 70.42,18.29 Z M 70.42,18.29" />
        </g>
        <g id="rana3-group409">
            <path id="rana3-bezier408" stroke="none" fill="rgb(0, 0, 0)" d="M 66.44,22.08 C 65.14,21.79 63.85,21.44 62.57,21.02 61.93,20.82 61.28,20.64 60.68,20.31 60.38,20.14 60.09,19.95 59.82,19.73 59.56,19.5 59.28,19.25 59.16,18.89 L 59.22,18.85 C 59.76,19.21 60.4,19.37 61,19.63 61.61,19.86 62.18,20.19 62.79,20.46 64,21 65.23,21.51 66.46,22.01 L 66.44,22.08 Z M 66.44,22.08" />
        </g>
        <g id="rana3-group410">
            <path id="rana3-bezier409" stroke="none" fill="rgb(0, 0, 0)" d="M 54.37,19.78 C 53.63,19.24 52.86,18.73 52.09,18.27 51.69,18.05 51.27,17.89 50.91,17.65 50.54,17.42 50.19,17.18 49.77,16.93 L 49.78,16.86 C 50.28,16.7 50.8,16.82 51.24,16.98 51.7,17.16 52.06,17.48 52.43,17.78 53.16,18.36 53.82,19.02 54.42,19.72 L 54.37,19.78 Z M 54.37,19.78" />
        </g>
        <g id="rana3-group411">
            <path id="rana3-bezier410" stroke="none" fill="rgb(0, 0, 0)" d="M 64.07,23.58 C 62.74,23.48 61.42,23.33 60.1,23.13 59.44,23.03 58.77,22.97 58.13,22.75 57.5,22.53 56.83,22.28 56.33,21.76 L 56.37,21.7 C 57.02,21.83 57.67,21.9 58.31,22.03 58.96,22.14 59.58,22.37 60.22,22.54 L 64.08,23.51 64.07,23.58 Z M 64.07,23.58" />
        </g>
        <g id="rana3-group412">
            <path id="rana3-bezier411" stroke="none" fill="rgb(0, 0, 0)" d="M 53.23,24.98 L 49.5,24.21 C 48.87,24.1 48.24,24.04 47.64,23.87 47.03,23.7 46.45,23.5 45.83,23.31 L 45.82,23.23 C 46.47,23.02 47.15,23.06 47.78,23.13 48.43,23.21 49.03,23.44 49.64,23.63 50.86,24 52.07,24.43 53.25,24.9 L 53.23,24.98 Z M 53.23,24.98" />
        </g>
        <g id="rana3-group413">
            <path id="rana3-bezier412" stroke="none" fill="rgb(0, 0, 0)" d="M 55.73,28 C 55,28.08 54.27,27.99 53.54,27.94 52.82,27.85 52.1,27.75 51.38,27.63 50.66,27.52 49.93,27.43 49.24,27.18 48.56,26.92 47.84,26.65 47.3,26.09 L 47.34,26.03 C 48.04,26.21 48.75,26.3 49.44,26.46 50.14,26.61 50.82,26.86 51.51,27.05 52.2,27.24 52.9,27.41 53.6,27.57 54.3,27.72 55.01,27.91 55.72,27.92 L 55.73,28 Z M 55.73,28" />
        </g>
        <g id="rana3-group414">
            <path id="rana3-bezier413" stroke="none" fill="rgb(0, 0, 0)" d="M 62.47,27.19 C 61.29,26.79 60.12,26.37 58.97,25.93 58.39,25.72 57.79,25.54 57.25,25.24 56.71,24.93 56.17,24.6 55.71,24.14 L 55.74,24.07 C 56.38,24.17 56.97,24.35 57.56,24.56 58.14,24.77 58.66,25.1 59.21,25.38 60.31,25.95 61.41,26.52 62.49,27.12 L 62.47,27.19 Z M 62.47,27.19" />
        </g>
        <g id="rana3-group415">
            <path id="rana3-bezier414" stroke="none" fill="rgb(0, 0, 0)" d="M 92.73,27.58 C 91.64,28.01 90.56,28.46 89.52,28.96 89,29.22 88.51,29.53 87.99,29.75 87.46,29.97 86.94,30.19 86.37,30.4 L 86.32,30.34 C 86.64,29.8 87.13,29.41 87.64,29.09 88.15,28.76 88.73,28.59 89.29,28.41 90.41,28.02 91.55,27.72 92.71,27.51 L 92.73,27.58 Z M 92.73,27.58" />
        </g>
        <g id="rana3-group416">
            <path id="rana3-bezier415" stroke="none" fill="rgb(0, 0, 0)" d="M 94.61,24.13 C 93.97,23.48 93.31,22.86 92.61,22.31 92.26,22.04 91.87,21.83 91.54,21.57 91.2,21.31 90.9,21.05 90.47,20.86 L 90.46,20.79 C 90.94,20.56 91.51,20.72 91.94,20.93 92.38,21.15 92.7,21.52 93.02,21.86 93.66,22.55 94.2,23.29 94.67,24.08 L 94.61,24.13 Z M 94.61,24.13" />
        </g>
        <g id="rana3-group529">
            <path id="rana3-bezier528" stroke="none" fill="rgb(0, 0, 0)" d="M 109.41,31.68 C 110.05,33.11 110.53,34.6 110.89,36.13 111.23,37.66 111.41,39.26 111.43,40.82 111.5,42.36 111.74,43.88 111.98,45.4 112.09,46.16 112.25,46.91 112.42,47.66 112.61,48.4 112.78,49.16 113.15,49.84 L 113.1,49.89 C 112.53,49.3 112.22,48.55 111.92,47.82 111.63,47.08 111.43,46.31 111.24,45.54 110.9,43.99 110.82,42.4 110.83,40.83 110.88,39.27 110.79,37.74 110.52,36.21 110.26,34.68 109.88,33.17 109.34,31.71 L 109.41,31.68 Z M 109.41,31.68" />
        </g>
        <g id="rana3-group530">
            <path id="rana3-bezier529" stroke="none" fill="rgb(0, 0, 0)" d="M 113.45,50.82 C 113.58,51.25 113.67,51.7 113.72,52.15 113.75,52.38 113.82,52.62 113.73,52.86 113.69,52.97 113.64,53.09 113.54,53.2 113.45,53.3 113.33,53.44 113.15,53.43 L 113.11,53.37 C 113.08,53.13 113,52.95 112.99,52.74 112.97,52.54 113.07,52.34 113.12,52.13 L 113.38,50.82 113.45,50.82 Z M 113.45,50.82" />
        </g>
        <g id="rana3-group531">
            <path id="rana3-bezier530" stroke="none" fill="rgb(0, 0, 0)" d="M 112.59,51.06 C 112.39,51.17 112.22,51.35 112.18,51.53 112.12,51.72 112.17,51.86 112.23,52.12 112.28,52.36 112.38,52.57 112.37,52.77 112.39,52.97 112.3,53.09 112.43,53.37 L 112.4,53.44 C 112.06,53.56 111.73,53.19 111.64,52.94 111.53,52.66 111.61,52.4 111.63,52.16 111.65,51.95 111.66,51.59 111.86,51.35 112.06,51.11 112.32,51.01 112.58,50.99 L 112.59,51.06 Z M 112.59,51.06" />
        </g>
        <g id="rana3-group532">
            <path id="rana3-bezier531" stroke="none" fill="rgb(0, 0, 0)" d="M 111.24,53.98 C 110.22,53.69 109.31,53.17 108.4,52.66 107.51,52.14 106.6,51.64 105.69,51.15 104.78,50.67 103.84,50.23 102.96,49.68 102.08,49.15 101.22,48.57 100.36,47.98 L 100.39,47.91 C 101.43,48.13 102.39,48.58 103.32,49.03 104.26,49.49 105.12,50.08 105.99,50.64 106.87,51.19 107.74,51.76 108.6,52.34 109.45,52.93 110.3,53.53 111.26,53.91 L 111.24,53.98 Z M 111.24,53.98" />
        </g>
        <g id="rana3-group533">
            <path id="rana3-bezier532" stroke="none" fill="rgb(0, 0, 0)" d="M 106.64,52.25 C 106.03,52.63 105.22,52.74 104.52,52.46 103.84,52.14 103.28,51.71 102.66,51.33 101.47,50.55 100.27,49.77 99,49.19 98.34,48.91 97.75,48.69 97.06,48.71 96.26,48.65 95.56,48.4 94.89,48.12 93.55,47.52 92.34,46.75 91.11,46.02 L 91.14,45.95 C 92.56,46.29 93.84,46.97 95.16,47.42 95.81,47.66 96.48,47.89 97.11,47.97 97.18,47.99 97.29,47.99 97.36,48 97.47,48.01 97.57,48.02 97.67,48.04 97.87,48.07 98.06,48.13 98.24,48.19 98.6,48.32 98.93,48.48 99.26,48.65 100.56,49.33 101.72,50.18 102.88,51.02 103.45,51.44 104.01,51.92 104.61,52.25 105.22,52.55 105.99,52.51 106.6,52.18 L 106.64,52.25 Z M 106.64,52.25" />
        </g>
        <g id="rana3-group534">
            <path id="rana3-bezier533" stroke="none" fill="rgb(0, 0, 0)" d="M 90.53,45.85 C 88.21,45.48 85.85,45.4 83.52,45.6 82.36,45.7 81.22,45.9 80.09,46.21 78.93,46.48 77.77,46.7 76.6,46.89 74.26,47.29 71.91,47.53 69.56,47.73 68.38,47.84 67.21,47.9 66.03,47.96 64.84,48.01 63.67,48.07 62.48,47.98 L 62.48,47.91 C 64.82,47.75 67.16,47.38 69.49,47.1 L 76.48,46.14 C 77.64,45.97 78.8,45.79 79.94,45.56 81.1,45.3 82.3,45.15 83.49,45.11 85.87,45.01 88.24,45.26 90.55,45.78 L 90.53,45.85 Z M 90.53,45.85" />
        </g>
        <g id="rana3-group535">
            <path id="rana3-bezier534" stroke="none" fill="rgb(0, 0, 0)" d="M 55.16,48.4 C 53.6,48.5 52.04,48.51 50.47,48.4 49.69,48.35 48.89,48.23 48.14,48.1 47.39,47.99 46.61,47.93 45.84,47.91 42.76,47.81 39.65,48.13 36.66,48.85 35.91,49.04 35.17,49.24 34.44,49.48 33.72,49.73 32.95,49.98 32.17,50.15 30.63,50.52 29.07,50.73 27.5,50.83 25.93,50.94 24.36,50.94 22.79,50.82 21.23,50.69 19.65,50.5 18.19,49.89 L 18.22,49.82 C 19.7,50.3 21.27,50.32 22.81,50.38 24.36,50.39 25.91,50.32 27.44,50.17 28.98,50.01 30.5,49.77 31.99,49.4 33.45,49.04 34.94,48.45 36.49,48.14 39.58,47.49 42.73,47.23 45.87,47.38 46.65,47.42 47.43,47.49 48.22,47.63 49,47.78 49.73,47.94 50.51,48.03 52.04,48.23 53.6,48.32 55.15,48.32 L 55.16,48.4 Z M 55.16,48.4" />
        </g>
        <g id="rana3-group536">
            <path id="rana3-bezier535" stroke="none" fill="rgb(0, 0, 0)" d="M 16.77,49.83 C 15.79,49.75 14.81,49.7 13.83,49.7 13.35,49.7 12.86,49.7 12.39,49.76 12.16,49.79 11.92,49.83 11.76,49.9 11.66,49.97 11.72,49.9 11.65,50.04 11.62,50.12 11.58,50.24 11.55,50.35 11.28,51.26 11.13,52.25 10.83,53.18 10.52,54.11 10.23,55.07 9.66,55.92 L 9.59,55.89 C 9.77,54.92 9.9,53.95 10.11,52.99 10.31,52.03 10.62,51.1 10.98,50.15 11.03,50.03 11.07,49.92 11.15,49.78 11.19,49.71 11.19,49.67 11.3,49.56 11.38,49.48 11.47,49.44 11.54,49.41 11.84,49.3 12.09,49.29 12.35,49.27 12.86,49.25 13.36,49.28 13.85,49.33 14.84,49.43 15.81,49.58 16.78,49.76 L 16.77,49.83 Z M 16.77,49.83" />
        </g>
        <g id="rana3-group537">
            <path id="rana3-bezier536" stroke="none" fill="rgb(0, 0, 0)" d="M 9.04,58.86 C 9.39,58.78 9.74,58.75 10.11,58.8 10.3,58.82 10.52,58.82 10.68,58.99 10.83,59.15 10.96,59.46 10.79,59.69 L 10.71,59.7 C 10.48,59.59 10.37,59.64 10.25,59.6 10.14,59.58 10.06,59.45 9.92,59.37 9.66,59.21 9.36,59.07 9.04,58.94 L 9.04,58.86 Z M 9.04,58.86" />
        </g>
        <g id="rana3-group538">
            <path id="rana3-bezier537" stroke="none" fill="rgb(0, 0, 0)" d="M 10.55,58.24 C 10.89,58.19 11.24,58.19 11.59,58.3 11.77,58.35 12,58.4 12.12,58.62 12.23,58.82 12.25,59.12 12.04,59.3 L 11.96,59.3 C 11.75,59.15 11.64,59.14 11.54,59.1 11.45,59.07 11.41,58.93 11.31,58.83 11.1,58.65 10.83,58.47 10.54,58.31 L 10.55,58.24 Z M 10.55,58.24" />
        </g>
        <g id="rana3-group539">
            <path id="rana3-bezier538" stroke="none" fill="rgb(0, 0, 0)" d="M 10.55,56.99 C 10.85,56.93 11.15,56.91 11.46,56.93 11.62,56.94 11.8,56.92 11.94,57.05 12.01,57.12 12.08,57.19 12.12,57.32 12.17,57.43 12.18,57.65 12.04,57.7 L 11.96,57.68 C 11.86,57.6 11.8,57.67 11.75,57.68 11.69,57.71 11.64,57.71 11.59,57.71 11.48,57.71 11.39,57.58 11.28,57.51 11.05,57.36 10.79,57.22 10.54,57.06 L 10.55,56.99 Z M 10.55,56.99" />
        </g>
        <g id="rana3-group540">
            <path id="rana3-bezier539" stroke="none" fill="rgb(0, 0, 0)" d="M 8.29,59.33 C 7.8,59.31 7.31,59.27 6.81,59.19 6.57,59.15 6.33,59.1 6.08,59.03 5.86,58.95 5.53,58.84 5.48,58.49 5.49,57.91 5.76,57.5 5.83,57.03 5.95,56.56 5.91,56.1 5.88,55.6 5.78,53.64 5.68,51.67 5.71,49.69 5.73,48.7 5.76,47.71 5.95,46.69 6,46.44 6.06,46.18 6.17,45.92 6.28,45.67 6.4,45.32 6.84,45.15 7.39,44.96 7.9,44.94 8.41,44.91 9.41,44.89 10.4,44.94 11.38,44.99 11.87,45.02 12.35,45.04 12.84,45.04 13.32,45.05 13.82,45.05 14.27,44.91 L 14.31,44.98 C 13.39,45.44 12.35,45.43 11.38,45.51 10.39,45.57 9.41,45.57 8.45,45.66 7.98,45.69 7.49,45.74 7.11,45.88 7.07,45.87 6.95,46.01 6.87,46.21 6.79,46.4 6.73,46.62 6.67,46.85 6.46,47.76 6.38,48.74 6.31,49.71 6.21,51.66 6.23,53.62 6.26,55.59 6.26,56.07 6.27,56.6 6.13,57.1 6.02,57.58 5.72,58.06 5.71,58.46 5.71,58.65 5.93,58.77 6.15,58.85 6.37,58.93 6.61,58.99 6.84,59.04 7.32,59.14 7.81,59.21 8.29,59.26 L 8.29,59.33 Z M 8.29,59.33" />
        </g>
        <g id="rana3-group541">
            <path id="rana3-bezier540" stroke="none" fill="rgb(0, 0, 0)" d="M 31.86,52.19 C 32.3,52.69 32.78,53.17 33.27,53.6 33.76,54.04 34.28,54.46 34.84,54.74 35.14,54.87 35.37,54.94 35.69,54.95 36.03,54.97 36.41,55.05 36.75,55.2 37.08,55.36 37.43,55.59 37.64,55.93 37.86,56.27 37.92,56.69 37.81,57.03 L 37.73,57.03 C 37.53,56.35 37.05,56.07 36.48,55.9 36.19,55.81 35.91,55.75 35.59,55.68 35.24,55.63 34.83,55.46 34.55,55.26 33.94,54.87 33.46,54.38 33.01,53.87 32.57,53.35 32.17,52.8 31.8,52.24 L 31.86,52.19 Z M 31.86,52.19" />
        </g>
        <g id="rana3-group542">
            <path id="rana3-bezier541" stroke="none" fill="rgb(0, 0, 0)" d="M 27.99,51.72 C 28.48,52.47 29.01,53.2 29.57,53.89 30.12,54.58 30.72,55.28 31.42,55.71 31.61,55.81 31.74,55.86 31.94,55.87 32.15,55.89 32.42,55.94 32.66,56.01 32.91,56.09 33.16,56.2 33.38,56.4 33.6,56.59 33.78,56.89 33.82,57.21 33.87,57.52 33.71,57.89 33.71,57.93 33.69,58.06 33.73,58.19 33.83,58.31 34.05,58.57 34.52,58.67 34.96,58.75 L 34.96,58.83 C 34.52,58.95 34.01,59.03 33.5,58.72 33.25,58.57 33.06,58.25 33.05,57.93 33.07,57.52 33.13,57.47 33.08,57.32 33.03,57.07 32.77,56.86 32.41,56.71 32.23,56.64 32.06,56.58 31.83,56.54 31.57,56.49 31.29,56.36 31.1,56.21 30.3,55.62 29.78,54.87 29.27,54.12 28.77,53.35 28.33,52.56 27.92,51.76 L 27.99,51.72 Z M 27.99,51.72" />
        </g>
        <g id="rana3-group543">
            <path id="rana3-bezier542" stroke="none" fill="rgb(0, 0, 0)" d="M 35.92,56.99 C 36.34,56.97 36.76,57.01 37.18,57.15 37.39,57.21 37.64,57.26 37.79,57.49 37.94,57.69 38.03,58.06 37.81,58.28 L 37.73,58.28 C 37.52,58.09 37.39,58.09 37.26,58.01 37.14,57.96 37.05,57.8 36.9,57.68 36.61,57.46 36.27,57.25 35.91,57.06 L 35.92,56.99 Z M 35.92,56.99" />
        </g>
        <g id="rana3-group544">
            <path id="rana3-bezier543" stroke="none" fill="rgb(0, 0, 0)" d="M 35.22,57.62 C 35.56,57.61 35.9,57.67 36.23,57.86 36.39,57.95 36.6,58.05 36.66,58.28 36.72,58.5 36.67,58.76 36.45,58.91 L 36.38,58.9 C 36.18,58.73 36.08,58.68 35.99,58.62 35.91,58.56 35.91,58.43 35.84,58.32 35.69,58.1 35.45,57.88 35.2,57.69 L 35.22,57.62 Z M 35.22,57.62" />
        </g>
        <g id="rana3-group545">
            <path id="rana3-bezier544" stroke="none" fill="rgb(0, 0, 0)" d="M 104.19,27.61 C 104.08,25.53 103.93,23.45 103.62,21.4 103.54,20.89 103.45,20.38 103.31,19.9 103.25,19.68 103.14,19.4 103.05,19.33 L 102.93,19.29 102.75,19.23 C 102.63,19.2 102.52,19.17 102.4,19.14 101.44,18.92 100.57,19.49 99.99,20.29 99.39,21.06 99.04,22.06 98.51,22.98 98.01,23.91 97.45,24.77 97.06,25.69 96.21,27.52 96.08,29.62 95.91,31.69 L 95.84,31.69 C 95.58,29.63 95.58,27.45 96.37,25.4 96.77,24.39 97.34,23.5 97.87,22.61 98.41,21.76 98.81,20.77 99.52,19.91 99.87,19.49 100.28,19.1 100.81,18.84 101.33,18.58 101.95,18.53 102.5,18.67 102.64,18.7 102.77,18.74 102.9,18.78 L 103.09,18.85 C 103.14,18.87 103.21,18.88 103.33,18.97 103.62,19.26 103.64,19.52 103.73,19.78 103.86,20.31 103.93,20.83 103.99,21.35 104.2,23.44 104.25,25.52 104.26,27.61 L 104.19,27.61 Z M 104.19,27.61" />
        </g>
        <g id="rana3-group546">
            <path id="rana3-bezier545" stroke="none" fill="rgb(0, 0, 0)" d="M 102.59,27.2 C 102.47,26.82 102.33,26.44 102.14,26.09 102.05,25.92 101.95,25.74 101.83,25.61 101.77,25.55 101.7,25.49 101.65,25.48 101.6,25.47 101.61,25.48 101.56,25.52 101.36,25.74 101.39,26.16 101.13,26.6 100.91,27.05 100.35,27.28 99.93,27.31 99.72,27.35 99.51,27.37 99.38,27.41 99.24,27.48 99.28,27.46 99.26,27.56 99.23,27.66 99.29,27.85 99.25,28.14 99.22,28.4 99.1,28.66 98.95,28.87 98.62,29.26 98.27,29.43 98.04,29.68 97.8,29.93 97.66,30.29 97.58,30.69 L 97.5,30.69 C 97.37,30.3 97.38,29.81 97.61,29.39 97.83,28.96 98.2,28.69 98.34,28.43 98.42,28.31 98.47,28.19 98.48,28.04 98.51,27.93 98.47,27.71 98.53,27.41 98.56,27.26 98.64,27.09 98.79,26.96 98.93,26.84 99.09,26.79 99.22,26.76 99.48,26.71 99.68,26.73 99.87,26.72 100.25,26.7 100.53,26.62 100.72,26.34 100.93,26.11 100.93,25.63 101.31,25.24 101.41,25.14 101.64,25.08 101.78,25.17 101.92,25.24 102,25.33 102.06,25.42 102.19,25.61 102.27,25.8 102.35,26 102.49,26.38 102.59,26.78 102.66,27.18 L 102.59,27.2 Z M 102.59,27.2" />
        </g>
        <g id="rana3-group547">
            <path id="rana3-bezier546" stroke="none" fill="rgb(0, 0, 0)" d="M 109.34,30.11 C 109.15,28.88 109,27.65 108.9,26.4 108.85,25.78 108.76,25.16 108.82,24.53 108.89,23.91 108.98,23.26 109.34,22.68 L 109.41,22.7 C 109.47,23.33 109.54,23.93 109.57,24.55 109.61,25.16 109.53,25.77 109.5,26.39 L 109.41,30.11 109.34,30.11 Z M 109.34,30.11" />
        </g>
        <g id="rana3-group548">
            <path id="rana3-bezier547" stroke="none" fill="rgb(0, 0, 0)" d="M 107.36,25.31 C 106.97,24.45 106.64,23.55 106.39,22.63 106.26,22.16 106.11,21.69 106.12,21.2 106.14,20.71 106.22,20.16 106.59,19.76 L 106.66,19.79 C 106.7,20.28 106.79,20.69 106.87,21.14 106.95,21.58 106.94,22.05 106.98,22.51 107.09,23.43 107.25,24.36 107.43,25.29 L 107.36,25.31 Z M 107.36,25.31" />
        </g>
        <g id="rana3-group549">
            <path id="rana3-bezier548" stroke="none" fill="rgb(0, 0, 0)" d="M 96.18,21.76 C 95.24,21.13 94.37,20.37 93.64,19.46 93.27,19.01 92.89,18.54 92.71,17.96 92.52,17.39 92.47,16.74 92.68,16.17 L 92.76,16.17 C 92.96,16.73 93.15,17.2 93.4,17.67 93.64,18.14 93.84,18.64 94.13,19.11 94.71,20.04 95.43,20.91 96.23,21.7 L 96.18,21.76 Z M 96.18,21.76" />
        </g>
        <g id="rana3-group550">
            <path id="rana3-bezier549" stroke="none" fill="rgb(0, 0, 0)" d="M 97.5,18.96 C 97.02,18.12 96.47,17.32 95.85,16.61 95.54,16.25 95.17,15.97 94.86,15.65 94.55,15.34 94.24,15.06 93.79,14.81 L 93.79,14.74 C 94.32,14.57 94.9,14.78 95.34,15.07 95.78,15.37 96.07,15.82 96.33,16.24 96.88,17.09 97.28,18 97.57,18.94 L 97.5,18.96 Z M 97.5,18.96" />
        </g>
        <g id="rana3-group551">
            <path id="rana3-bezier550" stroke="none" fill="rgb(0, 0, 0)" d="M 98.96,18.26 C 98.74,17.92 98.55,17.57 98.4,17.19 98.32,17.01 98.19,16.82 98.21,16.6 98.25,16.4 98.29,16.11 98.59,15.96 L 98.66,16.01 C 98.78,16.21 98.9,16.33 98.96,16.51 99.03,16.67 98.98,16.87 98.99,17.06 99,17.44 99.02,17.84 99.04,18.24 L 98.96,18.26 Z M 98.96,18.26" />
        </g>
        <g id="rana3-group552">
            <path id="rana3-bezier551" stroke="none" fill="rgb(0, 0, 0)" d="M 103.27,18.06 C 102.88,17.93 102.5,17.77 102.14,17.57 101.96,17.47 101.75,17.39 101.63,17.19 101.52,17 101.41,16.73 101.55,16.45 L 101.62,16.44 C 101.86,16.54 102.02,16.58 102.17,16.68 102.33,16.77 102.41,16.95 102.53,17.1 L 103.31,18 103.27,18.06 Z M 103.27,18.06" />
        </g>
        <g id="rana3-group553">
            <path id="rana3-bezier552" stroke="none" fill="rgb(0, 0, 0)" d="M 102.66,39.2 C 102.73,39.82 102.96,40.42 103.32,40.84 103.52,41.05 103.76,41.16 103.95,41.35 104.15,41.54 104.38,41.72 104.63,41.99 L 104.62,42.06 C 104.26,42.19 103.88,42.13 103.55,41.98 103.21,41.82 102.99,41.49 102.83,41.17 102.49,40.53 102.44,39.82 102.59,39.19 L 102.66,39.2 Z M 102.66,39.2" />
        </g>
        <g id="rana3-group554">
            <path id="rana3-bezier553" stroke="none" fill="rgb(0, 0, 0)" d="M 106.64,36.16 C 107.08,36.36 107.5,36.58 107.91,36.85 108.3,37.15 108.71,37.44 108.95,38 109.13,38.58 109.12,39.08 108.97,39.57 108.81,40.05 108.55,40.54 108.07,40.8 L 108.01,40.75 C 108.14,40.28 108.19,39.84 108.24,39.41 108.29,38.99 108.42,38.52 108.38,38.18 108.31,37.83 107.99,37.46 107.67,37.14 107.35,36.81 106.99,36.5 106.61,36.23 L 106.64,36.16 Z M 106.64,36.16" />
        </g>
        <g id="rana3-group656">
            <path id="rana3-bezier654" stroke="none" fill="rgb(0, 0, 0)" d="M 11.42,40.1 C 11.5,40.86 11.64,41.61 11.84,42.3 11.95,42.64 12.16,42.93 12.22,43.23 12.31,43.55 12.36,43.82 12.54,44.24 L 12.5,44.33 C 12,44.39 11.56,44.04 11.32,43.67 11.06,43.29 11.08,42.83 11.05,42.43 11.01,41.62 11.12,40.84 11.32,40.09 L 11.42,40.1 Z M 11.42,40.1" />
        </g>
    </g>
</svg>
