<?xml version="1.0" encoding="UTF-8"?>
<!DOCTYPE svg PUBLIC "-//W3C//DTD SVG 1.1//EN" "http://www.w3.org/Graphics/SVG/1.1/DTD/svg11.dtd">
<svg version="1.1" xmlns="http://www.w3.org/2000/svg" xmlns:xlink="http://www.w3.org/1999/xlink" width="120" height="60"  xml:space="preserve" id="ranaTop3">
    <!-- Generated by PaintCode - http://www.paintcodeapp.com -->
    <g id="ranaTop3-group1442">
        <g id="ranaTop3-group824">
            <path id="ranaTop3-bezier822" stroke="none" fill="rgb(0, 0, 0)" d="M 110.67,28.6 C 111.46,28.56 112.26,28.7 112.99,29.05 113.72,29.38 114.41,30.08 114.5,31 L 114.52,31.18 114.52,31.32 C 114.52,31.43 114.5,31.58 114.47,31.69 114.42,31.92 114.31,32.15 114.18,32.34 113.9,32.72 113.52,32.97 113.14,33.15 112.37,33.48 111.56,33.6 110.75,33.5 L 110.74,33.43 C 111.47,33.12 112.19,32.85 112.8,32.49 113.4,32.12 113.94,31.72 113.9,31.04 113.91,30.37 113.45,29.75 112.81,29.37 112.19,28.98 111.44,28.73 110.67,28.67 L 110.67,28.6 Z M 110.67,28.6" />
        </g>
        <g id="ranaTop3-group825">
            <path id="ranaTop3-bezier823" stroke="none" fill="rgb(0, 0, 0)" d="M 108.94,33.52 C 107.41,34.85 105.84,36.12 104.11,37.21 103.22,37.77 102.32,38.19 101.46,38.66 100.59,39.09 99.82,39.66 99.05,40.34 L 98.99,40.3 C 99.43,39.37 100.2,38.56 101.08,38.01 101.96,37.43 102.95,37.15 103.81,36.69 105.56,35.75 107.24,34.62 108.89,33.46 L 108.94,33.52 Z M 108.94,33.52" />
        </g>
        <g id="ranaTop3-group826">
            <path id="ranaTop3-bezier824" stroke="none" fill="rgb(0, 0, 0)" d="M 98.39,39.33 C 98.37,38.98 98.32,38.64 98.22,38.32 98.12,38 97.94,37.67 97.67,37.57 97.39,37.46 97.07,37.61 96.81,37.79 96.54,37.98 96.29,38.21 96.06,38.46 95.14,39.47 94.33,40.61 93.58,41.77 92.84,42.93 92.18,44.15 91.65,45.37 91.52,45.67 91.41,45.98 91.36,46.28 91.31,46.59 91.34,46.83 91.49,46.94 91.67,47.07 92.03,47.06 92.35,47.01 92.69,46.97 93.02,46.88 93.36,46.79 L 93.39,46.86 C 93.09,47.05 92.78,47.21 92.43,47.34 92.09,47.44 91.71,47.58 91.25,47.4 91.02,47.3 90.83,47.07 90.77,46.84 90.7,46.62 90.7,46.41 90.71,46.21 90.74,45.81 90.84,45.46 90.95,45.11 91.44,43.73 92.26,42.57 93.08,41.43 93.91,40.29 94.78,39.19 95.79,38.2 96.05,37.96 96.33,37.72 96.65,37.53 96.96,37.36 97.36,37.18 97.76,37.36 98.14,37.55 98.27,37.94 98.36,38.27 98.44,38.62 98.47,38.97 98.46,39.33 L 98.39,39.33 98.39,39.33 Z M 98.39,39.33" />
        </g>
        <g id="ranaTop3-group827">
            <path id="ranaTop3-bezier825" stroke="none" fill="rgb(0, 0, 0)" d="M 98.08,41.19 C 97.48,42 96.87,42.81 96.3,43.62 96.01,44.03 95.78,44.47 95.46,44.84 95.16,45.23 94.8,45.55 94.54,45.97 L 94.47,45.98 C 94.37,45.69 94.45,45.4 94.52,45.15 94.6,44.88 94.72,44.65 94.84,44.42 95.1,43.96 95.48,43.61 95.83,43.24 96.52,42.5 97.26,41.8 98.03,41.14 L 98.08,41.19 Z M 98.08,41.19" />
        </g>
        <g id="ranaTop3-group828">
            <path id="ranaTop3-bezier826" stroke="none" fill="rgb(0, 0, 0)" d="M 110.06,27.31 C 109.43,26.52 108.74,25.77 108.01,25.09 107.28,24.4 106.5,23.77 105.64,23.3 105.21,23.07 104.77,22.9 104.3,22.78 103.8,22.66 103.29,22.46 102.83,22.19 101.92,21.64 101.1,20.8 100.87,19.76 L 100.94,19.73 C 101.53,20.55 102.33,21.12 103.18,21.53 103.62,21.75 104.05,21.91 104.52,22.07 105.02,22.24 105.51,22.5 105.95,22.79 107.7,23.95 109.01,25.57 110.12,27.27 L 110.06,27.31 Z M 110.06,27.31" />
        </g>
        <g id="ranaTop3-group829">
            <path id="ranaTop3-bezier827" stroke="none" fill="rgb(0, 0, 0)" d="M 99.94,19.77 C 99.7,20.48 99.34,21.17 98.78,21.7 98.23,22.25 97.32,22.47 96.56,22.2 95.81,21.96 95.18,21.48 94.62,20.96 94.06,20.44 93.56,19.86 93.11,19.25 92.23,18.02 91.43,16.68 91.14,15.12 91.08,14.73 91.05,14.33 91.11,13.9 91.14,13.69 91.21,13.47 91.32,13.27 91.46,13.04 91.59,12.93 91.76,12.79 92.07,12.53 92.47,12.33 92.89,12.31 93.31,12.3 93.71,12.44 94,12.7 L 93.96,12.76 C 93.28,12.44 92.53,12.65 92.12,13.17 91.88,13.44 91.76,13.65 91.75,13.98 91.73,14.29 91.79,14.64 91.88,14.97 92.22,16.33 92.83,17.68 93.61,18.91 94.41,20.1 95.37,21.29 96.68,21.85 97.33,22.12 98.08,22 98.63,21.53 99.19,21.08 99.59,20.43 99.87,19.75 L 99.94,19.77 Z M 99.94,19.77" />
        </g>
        <g id="ranaTop3-group830">
            <path id="ranaTop3-bezier828" stroke="none" fill="rgb(0, 0, 0)" d="M 94.97,14.44 C 95.68,15.01 96.37,15.61 97.04,16.22 97.38,16.52 97.75,16.79 98.03,17.15 98.3,17.52 98.55,17.91 98.7,18.38 L 98.65,18.43 C 98.19,18.24 97.83,17.96 97.48,17.67 97.13,17.37 96.88,16.99 96.6,16.63 96.03,15.93 95.47,15.22 94.92,14.49 L 94.97,14.44 Z M 94.97,14.44" />
        </g>
        <g id="ranaTop3-group831">
            <path id="ranaTop3-bezier829" stroke="none" fill="rgb(0, 0, 0)" d="M 87.37,12.16 C 85.78,12.02 84.19,11.76 82.63,11.33 81.86,11.13 81.06,10.92 80.34,10.53 79.62,10.13 78.93,9.63 78.45,8.95 L 78.5,8.9 C 79.24,9.25 79.93,9.56 80.66,9.85 81.38,10.13 82.08,10.48 82.82,10.76 84.29,11.3 85.83,11.74 87.38,12.08 L 87.37,12.16 Z M 87.37,12.16" />
        </g>
        <g id="ranaTop3-group832">
            <path id="ranaTop3-bezier830" stroke="none" fill="rgb(0, 0, 0)" d="M 82.49,13.84 C 81.17,13.15 79.92,12.34 78.78,11.36 78.21,10.88 77.62,10.37 77.21,9.71 76.82,9.06 76.51,8.26 76.66,7.48 L 76.73,7.47 C 76.99,8.17 77.39,8.73 77.83,9.28 78.27,9.82 78.69,10.4 79.19,10.93 80.2,11.96 81.34,12.91 82.53,13.77 L 82.49,13.84 Z M 82.49,13.84" />
        </g>
        <g id="ranaTop3-group833">
            <path id="ranaTop3-bezier831" stroke="none" fill="rgb(0, 0, 0)" d="M 77.95,12.65 C 76.83,11.49 75.63,10.42 74.39,9.43 73.76,8.94 73.09,8.52 72.47,8.03 71.85,7.53 71.23,7.05 70.61,6.5 L 70.64,6.44 C 71.45,6.62 72.2,6.98 72.9,7.41 73.6,7.84 74.19,8.42 74.78,8.97 75.97,10.09 77.05,11.3 78.01,12.6 L 77.95,12.65 Z M 77.95,12.65" />
        </g>
        <g id="ranaTop3-group834">
            <path id="ranaTop3-bezier832" stroke="none" fill="rgb(0, 0, 0)" d="M 72.68,10.67 C 70.98,10.18 69.31,9.53 67.75,8.63 66.97,8.18 66.17,7.7 65.57,6.96 64.99,6.26 64.55,5.18 64.95,4.3 L 65.02,4.31 C 65.06,5.21 65.55,5.88 66.13,6.46 66.72,7.04 67.36,7.62 68.07,8.12 69.5,9.1 71.08,9.91 72.71,10.6 L 72.68,10.67 Z M 72.68,10.67" />
        </g>
        <g id="ranaTop3-group835">
            <path id="ranaTop3-bezier833" stroke="none" fill="rgb(0, 0, 0)" d="M 63.53,8.32 C 62.91,7.07 62.2,5.86 61.4,4.75 60.98,4.2 60.51,3.71 60.08,3.21 59.64,2.71 59.19,2.24 58.6,1.84 L 58.62,1.77 C 59.37,1.78 60.06,2.21 60.61,2.68 61.16,3.17 61.54,3.8 61.9,4.42 62.62,5.65 63.17,6.95 63.6,8.29 L 63.53,8.32 Z M 63.53,8.32" />
        </g>
        <g id="ranaTop3-group836">
            <path id="ranaTop3-bezier834" stroke="none" fill="rgb(0, 0, 0)" d="M 60.06,8.32 C 59.76,7.77 59.36,7.29 58.93,6.85 58.51,6.4 58.05,5.99 57.56,5.63 57.06,5.27 56.52,4.99 56.02,4.64 55.52,4.28 55.01,3.94 54.51,3.51 L 54.54,3.44 C 55.2,3.49 55.82,3.71 56.4,3.99 56.98,4.28 57.47,4.73 57.94,5.17 58.88,6.05 59.69,7.09 60.13,8.29 L 60.06,8.32 Z M 60.06,8.32" />
        </g>
        <g id="ranaTop3-group837">
            <path id="ranaTop3-bezier835" stroke="none" fill="rgb(0, 0, 0)" d="M 54.89,5.92 C 53.68,5.68 52.49,5.36 51.32,4.94 50.73,4.73 50.13,4.54 49.6,4.2 49.07,3.84 48.55,3.42 48.25,2.83 L 48.31,2.78 C 48.88,3.06 49.41,3.29 49.96,3.54 50.5,3.78 51.01,4.11 51.55,4.39 52.64,4.92 53.77,5.4 54.91,5.85 L 54.89,5.92 Z M 54.89,5.92" />
        </g>
        <g id="ranaTop3-group838">
            <path id="ranaTop3-bezier836" stroke="none" fill="rgb(0, 0, 0)" d="M 50.28,7.5 C 48.96,6.26 47.55,5.13 46.06,4.16 45.3,3.69 44.51,3.3 43.74,2.89 42.97,2.47 42.18,2.13 41.3,1.84 L 41.31,1.77 C 42.24,1.65 43.2,1.86 44.05,2.21 44.92,2.56 45.68,3.12 46.4,3.67 47.86,4.78 49.17,6.06 50.33,7.45 L 50.28,7.5 Z M 50.28,7.5" />
        </g>
        <g id="ranaTop3-group839">
            <path id="ranaTop3-bezier837" stroke="none" fill="rgb(0, 0, 0)" d="M 45.79,5.92 C 44.2,5.09 42.59,4.3 40.96,3.58 L 38.49,2.6 C 37.68,2.28 36.89,1.86 36.02,1.84 L 36,1.77 C 36.43,1.53 36.93,1.56 37.39,1.6 37.86,1.64 38.31,1.76 38.75,1.89 39.63,2.16 40.42,2.61 41.22,3.04 42.81,3.89 44.34,4.84 45.82,5.86 L 45.79,5.92 Z M 45.79,5.92" />
        </g>
        <g id="ranaTop3-group840">
            <path id="ranaTop3-bezier838" stroke="none" fill="rgb(0, 0, 0)" d="M 47.51,11.34 C 45.85,10.97 44.23,10.46 42.68,9.72 41.91,9.36 41.12,8.96 40.48,8.32 39.87,7.72 39.31,6.79 39.54,5.89 L 39.61,5.89 C 39.82,6.72 40.38,7.27 40.99,7.77 41.6,8.26 42.25,8.77 42.96,9.19 44.4,10.02 45.94,10.7 47.53,11.27 L 47.51,11.34 Z M 47.51,11.34" />
        </g>
        <g id="ranaTop3-group841">
            <path id="ranaTop3-bezier839" stroke="none" fill="rgb(0, 0, 0)" d="M 35.98,6.49 C 35.17,5.42 34.23,4.46 33.2,3.67 32.67,3.28 32.09,2.99 31.55,2.67 31,2.34 30.43,2.06 29.8,1.78 L 29.81,1.7 C 30.51,1.58 31.23,1.73 31.88,2 32.54,2.27 33.08,2.74 33.58,3.21 34.59,4.15 35.41,5.26 36.04,6.45 L 35.98,6.49 Z M 35.98,6.49" />
        </g>
        <g id="ranaTop3-group842">
            <path id="ranaTop3-bezier840" stroke="none" fill="rgb(0, 0, 0)" d="M 34.3,11.34 C 33.37,10.8 32.53,10.06 31.93,9.11 31.62,8.65 31.33,8.12 31.28,7.54 31.22,6.97 31.32,6.37 31.62,5.88 L 31.69,5.9 C 31.8,6.45 31.87,6.94 32.02,7.41 32.15,7.87 32.25,8.36 32.45,8.82 32.89,9.73 33.55,10.58 34.35,11.27 L 34.3,11.34 Z M 34.3,11.34" />
        </g>
        <g id="ranaTop3-group843">
            <path id="ranaTop3-bezier841" stroke="none" fill="rgb(0, 0, 0)" d="M 29.78,8.33 C 28.88,7.45 27.92,6.64 26.91,5.95 26.39,5.61 25.84,5.36 25.33,5.06 24.81,4.77 24.3,4.52 23.68,4.34 L 23.67,4.27 C 24.31,4.02 25.03,4.15 25.65,4.38 26.27,4.62 26.78,5.05 27.27,5.47 28.25,6.3 29.09,7.25 29.83,8.28 L 29.78,8.33 Z M 29.78,8.33" />
        </g>
        <g id="ranaTop3-group844">
            <path id="ranaTop3-bezier842" stroke="none" fill="rgb(0, 0, 0)" d="M 24.76,7.51 C 23.28,7.5 21.82,7.73 20.42,8.11 19.73,8.32 19.07,8.61 18.39,8.84 17.71,9.07 17.05,9.34 16.32,9.58 L 16.28,9.52 C 16.78,8.93 17.42,8.49 18.1,8.15 18.79,7.81 19.55,7.66 20.29,7.53 21.78,7.26 23.29,7.21 24.77,7.43 L 24.76,7.51 Z M 24.76,7.51" />
        </g>
        <g id="ranaTop3-group845">
            <path id="ranaTop3-bezier843" stroke="none" fill="rgb(0, 0, 0)" d="M 24.36,11.34 C 22.94,12.13 21.44,12.79 19.85,13.24 19.06,13.46 18.24,13.68 17.38,13.63 16.54,13.58 15.6,13.34 15.05,12.65 L 15.1,12.59 C 15.86,12.91 16.61,12.92 17.38,12.88 18.14,12.84 18.93,12.79 19.71,12.65 21.27,12.35 22.82,11.86 24.33,11.27 L 24.36,11.34 Z M 24.36,11.34" />
        </g>
        <g id="ranaTop3-group846">
            <path id="ranaTop3-bezier844" stroke="none" fill="rgb(0, 0, 0)" d="M 18,14.81 C 16.5,15.43 15.01,16.04 13.56,16.72 12.84,17.07 12.15,17.48 11.43,17.81 10.71,18.14 9.99,18.46 9.26,18.83 L 9.21,18.77 C 9.69,18.08 10.38,17.57 11.08,17.14 11.78,16.71 12.56,16.45 13.33,16.17 14.85,15.6 16.41,15.15 17.97,14.74 L 18,14.81 Z M 18,14.81" />
        </g>
        <g id="ranaTop3-group847">
            <path id="ranaTop3-bezier845" stroke="none" fill="rgb(0, 0, 0)" d="M 22.92,18.84 C 21.62,18.96 20.31,18.99 18.99,18.93 18.34,18.91 17.67,18.9 17.02,18.73 16.38,18.55 15.73,18.3 15.21,17.84 L 15.24,17.77 17.17,17.99 C 17.8,18.06 18.42,18.23 19.05,18.34 20.33,18.53 21.62,18.67 22.92,18.77 L 22.92,18.84 Z M 22.92,18.84" />
        </g>
        <g id="ranaTop3-group848">
            <path id="ranaTop3-bezier846" stroke="none" fill="rgb(0, 0, 0)" d="M 16.3,20.84 C 14.81,21.1 13.34,21.48 11.93,21.98 11.23,22.24 10.57,22.58 9.9,22.86 9.22,23.14 8.57,23.46 7.89,23.83 L 7.83,23.78 C 8.24,23.1 8.89,22.58 9.56,22.19 10.25,21.79 11.01,21.6 11.76,21.41 13.25,21.02 14.77,20.81 16.3,20.76 L 16.3,20.84 Z M 16.3,20.84" />
        </g>
        <g id="ranaTop3-group849">
            <path id="ranaTop3-bezier847" stroke="none" fill="rgb(0, 0, 0)" d="M 20.53,26.68 C 19.02,26.86 17.49,26.91 15.95,26.76 15.18,26.69 14.39,26.62 13.65,26.28 12.95,25.97 12.15,25.39 12.04,24.54 L 12.11,24.52 C 12.59,25.12 13.24,25.36 13.92,25.58 14.6,25.79 15.3,26.02 16.03,26.17 17.5,26.44 19.01,26.57 20.53,26.6 L 20.53,26.68 Z M 20.53,26.68" />
        </g>
        <g id="ranaTop3-group850">
            <path id="ranaTop3-bezier848" stroke="none" fill="rgb(0, 0, 0)" d="M 86.68,49.57 C 85.75,50.44 84.9,51.38 84.18,52.39 83.82,52.9 83.56,53.45 83.26,53.96 82.96,54.48 82.72,55 82.54,55.64 L 82.47,55.64 C 82.22,55 82.34,54.26 82.58,53.64 82.83,53.01 83.27,52.5 83.71,52.02 84.57,51.04 85.57,50.22 86.63,49.51 L 86.68,49.57 Z M 86.68,49.57" />
        </g>
        <g id="ranaTop3-group851">
            <path id="ranaTop3-bezier849" stroke="none" fill="rgb(0, 0, 0)" d="M 80.6,49.56 C 80.34,50.14 80.17,50.75 80.05,51.36 79.92,51.97 79.84,52.59 79.81,53.21 79.78,53.83 79.83,54.45 79.8,55.07 79.77,55.69 79.74,56.31 79.64,56.97 L 79.56,56.98 C 79.27,56.38 79.13,55.74 79.06,55.09 78.99,54.44 79.1,53.78 79.21,53.14 79.43,51.86 79.83,50.6 80.54,49.52 L 80.6,49.56 Z M 80.6,49.56" />
        </g>
        <g id="ranaTop3-group852">
            <path id="ranaTop3-bezier850" stroke="none" fill="rgb(0, 0, 0)" d="M 78,52.62 C 76.75,53.92 75.31,55.05 73.71,55.94 72.91,56.38 72.08,56.81 71.16,57 70.26,57.19 69.3,57.24 68.4,57.01 L 68.4,56.93 C 69.3,56.75 70.14,56.55 70.97,56.28 71.79,56.01 72.63,55.76 73.44,55.4 75.04,54.66 76.56,53.7 77.95,52.56 L 78,52.62 Z M 78,52.62" />
        </g>
        <g id="ranaTop3-group853">
            <path id="ranaTop3-bezier851" stroke="none" fill="rgb(0, 0, 0)" d="M 72.28,53.3 C 70.39,53.68 68.52,54.17 66.7,54.77 65.8,55.08 64.93,55.47 64.05,55.81 63.16,56.15 62.31,56.52 61.46,57 L 61.4,56.95 C 62,56.14 62.87,55.58 63.74,55.13 64.63,54.68 65.59,54.44 66.53,54.2 68.42,53.71 70.34,53.39 72.27,53.22 L 72.28,53.3 Z M 72.28,53.3" />
        </g>
        <g id="ranaTop3-group854">
            <path id="ranaTop3-bezier852" stroke="none" fill="rgb(0, 0, 0)" d="M 63.56,52.63 C 61.61,52.69 59.65,52.64 57.7,52.44 56.72,52.34 55.73,52.25 54.77,51.94 54.3,51.78 53.83,51.6 53.39,51.34 52.95,51.09 52.52,50.77 52.25,50.33 L 52.31,50.28 C 53.12,50.81 54.05,50.99 54.97,51.22 55.9,51.42 56.83,51.67 57.78,51.85 59.68,52.18 61.62,52.4 63.56,52.55 L 63.56,52.63 Z M 63.56,52.63" />
        </g>
        <g id="ranaTop3-group855">
            <path id="ranaTop3-bezier853" stroke="none" fill="rgb(0, 0, 0)" d="M 57.1,53.84 C 55.44,54.16 53.79,54.59 52.2,55.13 51.41,55.41 50.65,55.77 49.88,56.06 49.1,56.35 48.34,56.67 47.54,57 L 47.49,56.94 C 48.06,56.27 48.8,55.77 49.57,55.37 50.35,54.98 51.2,54.77 52.03,54.56 53.7,54.13 55.39,53.87 57.1,53.77 L 57.1,53.84 Z M 57.1,53.84" />
        </g>
        <g id="ranaTop3-group856">
            <path id="ranaTop3-bezier854" stroke="none" fill="rgb(0, 0, 0)" d="M 47.53,51.48 C 45.92,52.23 44.33,53.02 42.81,53.9 42.05,54.35 41.34,54.86 40.61,55.31 39.9,55.79 39.13,56.21 38.72,56.98 L 38.65,56.97 C 38.63,56.48 38.9,56.04 39.18,55.67 39.47,55.3 39.82,54.99 40.17,54.7 40.89,54.13 41.72,53.75 42.53,53.37 44.14,52.6 45.81,51.96 47.5,51.41 L 47.53,51.48 Z M 47.53,51.48" />
        </g>
        <g id="ranaTop3-group857">
            <path id="ranaTop3-bezier855" stroke="none" fill="rgb(0, 0, 0)" d="M 37.2,54.24 C 35.91,55.23 34.51,56.08 32.99,56.72 32.24,57.04 31.45,57.36 30.61,57.43 29.78,57.51 28.88,57.42 28.14,57.01 L 28.16,56.94 C 28.99,56.94 29.74,56.85 30.5,56.69 31.25,56.53 32.03,56.39 32.79,56.16 34.29,55.67 35.76,54.99 37.16,54.18 L 37.2,54.24 Z M 37.2,54.24" />
        </g>
        <g id="ranaTop3-group858">
            <path id="ranaTop3-bezier856" stroke="none" fill="rgb(0, 0, 0)" d="M 32.03,53.84 C 30.3,54.22 28.52,54.42 26.74,54.44 25.84,54.46 24.93,54.46 24.05,54.28 23.17,54.08 22.29,53.79 21.53,53.29 L 21.55,53.22 C 22.45,53.33 23.3,53.45 24.16,53.54 25.02,53.62 25.88,53.78 26.75,53.84 28.49,53.96 30.26,53.94 32.02,53.77 L 32.03,53.84 Z M 32.03,53.84" />
        </g>
        <g id="ranaTop3-group859">
            <path id="ranaTop3-bezier857" stroke="none" fill="rgb(0, 0, 0)" d="M 26.77,51.48 C 24.84,50.96 22.89,50.49 20.93,50.12 19.95,49.95 18.97,49.85 18,49.69 17.03,49.57 16.06,49.37 15.09,49.58 L 15.06,49.51 C 15.48,49.18 16.02,49.06 16.53,48.99 17.05,48.92 17.57,48.92 18.08,48.95 19.1,49.01 20.09,49.28 21.06,49.54 23.02,50.04 24.93,50.68 26.8,51.41 L 26.77,51.48 Z M 26.77,51.48" />
        </g>
        <g id="ranaTop3-group860">
            <path id="ranaTop3-bezier858" stroke="none" fill="rgb(0, 0, 0)" d="M 21.53,45.96 C 20.01,45.44 18.46,45.05 16.9,44.83 16.11,44.72 15.33,44.72 14.56,44.67 13.79,44.62 13.03,44.63 12.21,44.7 L 12.19,44.63 C 12.88,44.16 13.74,43.97 14.56,43.92 15.4,43.87 16.21,44.05 17,44.24 18.59,44.6 20.12,45.17 21.56,45.89 L 21.53,45.96 Z M 21.53,45.96" />
        </g>
        <g id="ranaTop3-group861">
            <path id="ranaTop3-bezier859" stroke="none" fill="rgb(0, 0, 0)" d="M 19.72,39.82 C 18.02,40.18 16.25,40.28 14.49,40.02 13.62,39.89 12.72,39.7 11.93,39.24 11.15,38.79 10.45,38.14 10.06,37.33 L 10.12,37.28 C 10.82,37.82 11.52,38.25 12.27,38.58 13.02,38.9 13.79,39.23 14.61,39.43 15.43,39.63 16.28,39.73 17.13,39.78 17.98,39.83 18.85,39.83 19.7,39.75 L 19.72,39.82 Z M 19.72,39.82" />
        </g>
        <g id="ranaTop3-group862">
            <path id="ranaTop3-bezier860" stroke="none" fill="rgb(0, 0, 0)" d="M 18.87,36.08 C 18.16,35.64 17.41,35.25 16.65,34.91 15.9,34.56 15.12,34.26 14.33,34.04 13.54,33.82 12.73,33.71 11.95,33.62 11.15,33.52 10.36,33.54 9.52,33.67 L 9.49,33.6 C 10.19,33.08 11.11,32.87 11.99,32.87 12.88,32.87 13.72,33.16 14.52,33.47 16.13,34.08 17.59,34.97 18.91,36.02 L 18.87,36.08 Z M 18.87,36.08" />
        </g>
        <g id="ranaTop3-group863">
            <path id="ranaTop3-bezier861" stroke="none" fill="rgb(0, 0, 0)" d="M 17.98,31.26 C 16.1,31.1 14.22,30.82 12.37,30.38 11.45,30.16 10.51,29.94 9.64,29.51 8.79,29.08 7.9,28.53 7.41,27.66 L 7.47,27.61 C 8.23,28.17 9.08,28.5 9.93,28.83 10.79,29.14 11.65,29.51 12.54,29.8 14.32,30.36 16.15,30.81 17.99,31.18 L 17.98,31.26 Z M 17.98,31.26" />
        </g>
        <g id="ranaTop3-group864">
            <path id="ranaTop3-bezier862" stroke="none" fill="rgb(0, 0, 0)" d="M 86.09,23.83 C 84.15,22.27 82.11,20.84 79.97,19.6 78.89,19 77.77,18.49 76.67,17.99 75.55,17.48 74.42,17.05 73.19,16.84 L 73.19,16.76 C 74.46,16.57 75.76,16.87 76.95,17.29 78.15,17.73 79.23,18.41 80.28,19.09 82.39,20.47 84.34,22.05 86.14,23.78 L 86.09,23.83 Z M 86.09,23.83" />
        </g>
        <g id="ranaTop3-group865">
            <path id="ranaTop3-bezier863" stroke="none" fill="rgb(0, 0, 0)" d="M 77.19,22.21 C 74.94,21.89 72.72,21.37 70.56,20.61 69.48,20.23 68.39,19.83 67.41,19.21 66.44,18.58 65.52,17.81 64.92,16.81 L 64.98,16.76 C 65.87,17.47 66.81,18.04 67.79,18.56 68.77,19.07 69.75,19.6 70.78,20.05 72.84,20.92 75,21.61 77.2,22.14 L 77.19,22.21 Z M 77.19,22.21" />
        </g>
        <g id="ranaTop3-group866">
            <path id="ranaTop3-bezier864" stroke="none" fill="rgb(0, 0, 0)" d="M 93.83,22.9 C 92.39,21.9 91,20.81 89.69,19.62 89.03,19.03 88.36,18.45 87.82,17.73 87.29,17.02 86.8,16.24 86.58,15.35 L 86.65,15.32 C 87.22,16 87.8,16.62 88.39,17.25 88.98,17.87 89.52,18.56 90.11,19.19 91.31,20.46 92.57,21.67 93.87,22.84 L 93.83,22.9 Z M 93.83,22.9" />
        </g>
        <g id="ranaTop3-group867">
            <path id="ranaTop3-bezier865" stroke="none" fill="rgb(0, 0, 0)" d="M 98.94,34.94 C 97.27,35.06 95.61,35.27 93.99,35.59 93.18,35.77 92.4,36.02 91.63,36.23 90.85,36.45 90.1,36.68 89.41,37.16 L 89.35,37.12 C 89.76,36.31 90.6,35.85 91.39,35.52 92.2,35.2 93.06,35.1 93.9,35 95.58,34.8 97.26,34.77 98.94,34.87 L 98.94,34.94 Z M 98.94,34.94" />
        </g>
        <g id="ranaTop3-group868">
            <path id="ranaTop3-bezier866" stroke="none" fill="rgb(0, 0, 0)" d="M 100.1,32.26 C 98.33,32.5 96.53,32.62 94.73,32.61 93.83,32.61 92.91,32.62 92.02,32.43 91.13,32.25 90.22,31.97 89.47,31.42 L 89.5,31.35 C 90.39,31.51 91.25,31.61 92.13,31.69 93,31.77 93.87,31.93 94.75,32.01 96.52,32.16 98.31,32.21 100.1,32.19 L 100.1,32.26 Z M 100.1,32.26" />
        </g>
        <g id="ranaTop3-group869">
            <path id="ranaTop3-bezier867" stroke="none" fill="rgb(0, 0, 0)" d="M 99.76,28.84 L 96.11,29.4 C 95.51,29.5 94.91,29.65 94.31,29.68 93.7,29.72 93.09,29.72 92.46,29.71 L 92.44,29.64 C 92.97,29.25 93.6,29.08 94.2,28.94 94.81,28.81 95.44,28.82 96.06,28.8 97.29,28.75 98.53,28.74 99.76,28.77 L 99.76,28.84 Z M 99.76,28.84" />
        </g>
        <g id="ranaTop3-group870">
            <path id="ranaTop3-bezier868" stroke="none" fill="rgb(0, 0, 0)" d="M 97.82,27.08 C 96.16,26.65 94.52,26.11 92.92,25.43 92.13,25.09 91.31,24.76 90.59,24.25 89.89,23.74 89.19,23.13 88.8,22.31 L 88.86,22.27 C 89.55,22.8 90.26,23.2 90.99,23.61 91.73,24.02 92.43,24.48 93.18,24.88 94.69,25.67 96.25,26.37 97.84,27.01 L 97.82,27.08 Z M 97.82,27.08" />
        </g>
        <g id="ranaTop3-group871">
            <path id="ranaTop3-bezier869" stroke="none" fill="rgb(0, 0, 0)" d="M 92.22,26.31 C 90.12,26.83 88.04,27.45 86.04,28.23 85.04,28.63 84.09,29.12 83.16,29.6 82.26,30.1 81.31,30.6 80.84,31.58 L 80.77,31.56 C 80.78,30.99 81.1,30.45 81.48,30.03 81.86,29.59 82.32,29.25 82.79,28.95 83.74,28.35 84.8,28 85.84,27.67 87.92,27 90.05,26.54 92.2,26.23 L 92.22,26.31 Z M 92.22,26.31" />
        </g>
        <g id="ranaTop3-group872">
            <path id="ranaTop3-bezier870" stroke="none" fill="rgb(0, 0, 0)" d="M 89.6,33.32 C 88.21,34.15 86.66,34.72 85.04,35.03 84.23,35.18 83.4,35.31 82.57,35.23 81.75,35.14 80.93,34.93 80.2,34.53 L 80.22,34.45 C 81.05,34.46 81.82,34.5 82.61,34.48 83.39,34.46 84.17,34.5 84.96,34.43 86.52,34.27 88.09,33.88 89.56,33.25 L 89.6,33.32 Z M 89.6,33.32" />
        </g>
        <g id="ranaTop3-group873">
            <path id="ranaTop3-bezier871" stroke="none" fill="rgb(0, 0, 0)" d="M 92.11,38.63 C 91.2,39.63 90.33,40.67 89.55,41.75 89.16,42.3 88.84,42.88 88.46,43.41 88.09,43.95 87.72,44.47 87.41,45.09 L 87.33,45.08 C 87.25,44.35 87.51,43.65 87.82,43.02 88.14,42.39 88.62,41.88 89.08,41.37 89.99,40.35 91,39.42 92.06,38.57 L 92.11,38.63 Z M 92.11,38.63" />
        </g>
        <g id="ranaTop3-group874">
            <path id="ranaTop3-bezier872" stroke="none" fill="rgb(0, 0, 0)" d="M 86.14,41.67 C 85.05,42.63 83.74,43.35 82.33,43.79 81.62,44.01 80.88,44.2 80.13,44.16 79.38,44.12 78.63,43.95 77.98,43.59 L 78,43.52 C 78.74,43.48 79.43,43.47 80.12,43.41 80.8,43.35 81.49,43.34 82.18,43.21 83.54,42.92 84.89,42.39 86.09,41.61 L 86.14,41.67 Z M 86.14,41.67" />
        </g>
        <g id="ranaTop3-group875">
            <path id="ranaTop3-bezier873" stroke="none" fill="rgb(0, 0, 0)" d="M 82.27,45.96 C 80.65,46.64 79.04,47.35 77.46,48.1 76.67,48.48 75.91,48.92 75.12,49.27 L 72.72,50.33 72.67,50.28 C 73.25,49.57 74.01,49.05 74.77,48.6 75.55,48.15 76.39,47.86 77.22,47.55 78.87,46.91 80.55,46.36 82.25,45.89 L 82.27,45.96 Z M 82.27,45.96" />
        </g>
        <g id="ranaTop3-group876">
            <path id="ranaTop3-bezier874" stroke="none" fill="rgb(0, 0, 0)" d="M 87.44,24.45 C 85.98,24.58 84.51,24.58 83.03,24.4 82.3,24.31 81.54,24.21 80.84,23.88 80.17,23.57 79.44,23.05 79.22,22.29 L 79.28,22.25 C 79.83,22.74 80.46,22.97 81.12,23.19 81.77,23.39 82.44,23.64 83.14,23.8 84.54,24.11 85.98,24.29 87.44,24.38 L 87.44,24.45 Z M 87.44,24.45" />
        </g>
        <g id="ranaTop3-group877">
            <path id="ranaTop3-bezier875" stroke="none" fill="rgb(0, 0, 0)" d="M 86.89,19.67 C 86.33,18.68 85.65,17.74 84.85,17.01 84.43,16.65 83.97,16.39 83.53,16.15 83.08,15.9 82.6,15.76 82,15.68 L 81.99,15.6 C 82.51,15.27 83.22,15.25 83.82,15.46 84.44,15.67 84.89,16.14 85.27,16.58 86.06,17.49 86.59,18.54 86.96,19.64 L 86.89,19.67 Z M 86.89,19.67" />
        </g>
        <g id="ranaTop3-group878">
            <path id="ranaTop3-bezier876" stroke="none" fill="rgb(0, 0, 0)" d="M 70.39,16.82 C 69.39,15.45 68.24,14.19 66.96,13.13 66.3,12.61 65.59,12.19 64.9,11.76 64.21,11.33 63.48,10.98 62.67,10.67 L 62.68,10.6 C 63.56,10.5 64.46,10.73 65.26,11.1 66.07,11.48 66.73,12.08 67.35,12.68 68.6,13.89 69.63,15.28 70.46,16.78 L 70.39,16.82 Z M 70.39,16.82" />
        </g>
        <g id="ranaTop3-group879">
            <path id="ranaTop3-bezier877" stroke="none" fill="rgb(0, 0, 0)" d="M 69.89,21.51 C 68.01,21.68 66.11,21.69 64.21,21.52 63.27,21.44 62.31,21.35 61.39,21.05 60.48,20.75 59.57,20.34 58.85,19.69 L 58.89,19.62 C 59.8,19.91 60.68,20.14 61.58,20.33 62.48,20.52 63.37,20.77 64.29,20.93 66.13,21.23 68,21.39 69.88,21.44 L 69.89,21.51 Z M 69.89,21.51" />
        </g>
        <g id="ranaTop3-group880">
            <path id="ranaTop3-bezier878" stroke="none" fill="rgb(0, 0, 0)" d="M 60.41,15.61 C 57.91,15.85 55.42,16.16 52.97,16.59 51.74,16.82 50.53,17.12 49.34,17.4 48.73,17.53 48.14,17.7 47.57,17.89 47.01,18.1 46.42,18.33 46.05,18.82 L 45.98,18.79 C 46.19,18.13 46.8,17.73 47.35,17.42 47.92,17.1 48.53,16.88 49.14,16.68 50.36,16.29 51.62,16.15 52.88,16 55.38,15.69 57.89,15.56 60.41,15.54 L 60.41,15.61 Z M 60.41,15.61" />
        </g>
        <g id="ranaTop3-group881">
            <path id="ranaTop3-bezier879" stroke="none" fill="rgb(0, 0, 0)" d="M 63.56,13.84 C 62.03,13.66 60.51,13.35 59.02,12.91 58.28,12.7 57.52,12.49 56.83,12.11 56.14,11.74 55.48,11.28 54.97,10.67 L 55.01,10.61 57.14,11.43 C 57.84,11.71 58.51,12.06 59.22,12.34 60.63,12.89 62.09,13.37 63.57,13.77 L 63.56,13.84 Z M 63.56,13.84" />
        </g>
        <g id="ranaTop3-group882">
            <path id="ranaTop3-bezier880" stroke="none" fill="rgb(0, 0, 0)" d="M 52.33,11.33 C 50.91,12.52 49.21,13.36 47.41,13.88 46.52,14.14 45.59,14.36 44.64,14.35 43.7,14.33 42.75,14.19 41.88,13.84 L 41.89,13.77 C 42.83,13.71 43.72,13.68 44.61,13.6 45.5,13.51 46.39,13.47 47.27,13.29 48.15,13.12 49.02,12.86 49.86,12.52 50.7,12.18 51.53,11.78 52.29,11.28 L 52.33,11.33 Z M 52.33,11.33" />
        </g>
        <g id="ranaTop3-group883">
            <path id="ranaTop3-bezier881" stroke="none" fill="rgb(0, 0, 0)" d="M 39.56,51.48 C 38.64,51.22 37.68,51.09 36.73,51.01 35.78,50.92 34.82,50.9 33.87,50.95 32.92,50.99 31.98,51.15 31.04,51.23 30.09,51.32 29.14,51.43 28.16,51.48 L 28.14,51.41 C 29.02,50.96 29.97,50.68 30.93,50.49 31.9,50.3 32.89,50.31 33.87,50.34 35.82,50.4 37.77,50.7 39.59,51.41 L 39.56,51.48 Z M 39.56,51.48" />
        </g>
        <g id="ranaTop3-group884">
            <path id="ranaTop3-bezier882" stroke="none" fill="rgb(0, 0, 0)" d="M 29.79,49.28 C 28.02,48.85 26.27,48.24 24.65,47.31 23.85,46.85 23.02,46.32 22.46,45.51 21.88,44.72 21.63,43.57 22.09,42.71 L 22.16,42.73 C 22.14,43.66 22.5,44.42 23.05,45.05 23.6,45.69 24.24,46.29 24.97,46.8 26.45,47.8 28.11,48.58 29.82,49.21 L 29.79,49.28 Z M 29.79,49.28" />
        </g>
        <g id="ranaTop3-group885">
            <path id="ranaTop3-bezier883" stroke="none" fill="rgb(0, 0, 0)" d="M 27.13,43.57 C 26.39,42.82 25.6,42.13 24.76,41.54 24.33,41.25 23.87,41.04 23.45,40.77 23.04,40.49 22.62,40.26 22.13,40 L 22.13,39.93 C 22.69,39.77 23.29,39.89 23.8,40.1 24.32,40.32 24.73,40.71 25.13,41.07 25.93,41.8 26.61,42.64 27.19,43.53 L 27.13,43.57 Z M 27.13,43.57" />
        </g>
        <g id="ranaTop3-group886">
            <path id="ranaTop3-bezier884" stroke="none" fill="rgb(0, 0, 0)" d="M 68.79,51.47 C 68.21,50.92 67.58,50.41 66.92,49.95 66.28,49.48 65.6,49.05 64.9,48.69 64.19,48.34 63.45,48.1 62.72,47.87 61.99,47.64 61.24,47.52 60.42,47.51 L 60.4,47.44 C 61.15,47.04 62.06,46.98 62.9,47.15 63.75,47.3 64.49,47.73 65.19,48.17 66.6,49.05 67.81,50.18 68.85,51.42 L 68.79,51.47 Z M 68.79,51.47" />
        </g>
        <g id="ranaTop3-group887">
            <path id="ranaTop3-bezier885" stroke="none" fill="rgb(0, 0, 0)" d="M 76.37,45.15 C 73.96,44.65 71.57,44.07 69.21,43.36 68.03,43.01 66.83,42.67 65.7,42.14 65.14,41.88 64.58,41.59 64.06,41.25 63.54,40.9 63.01,40.52 62.65,39.99 L 62.7,39.94 C 63.71,40.62 64.86,41.01 65.99,41.45 L 69.4,42.79 C 71.7,43.62 74.04,44.37 76.39,45.07 L 76.37,45.15 Z M 76.37,45.15" />
        </g>
        <g id="ranaTop3-group888">
            <path id="ranaTop3-bezier886" stroke="none" fill="rgb(0, 0, 0)" d="M 83.23,39.42 C 81.17,39.26 79.11,39.17 77.06,39.2 76.04,39.22 75.02,39.33 74.02,39.4 73.02,39.48 72,39.53 71.09,39.99 L 71.04,39.94 C 71.38,39.51 71.89,39.24 72.38,39.05 72.89,38.85 73.41,38.74 73.93,38.65 74.98,38.48 76.03,38.54 77.07,38.6 79.15,38.7 81.21,38.97 83.24,39.35 L 83.23,39.42 Z M 83.23,39.42" />
        </g>
        <g id="ranaTop3-group889">
            <path id="ranaTop3-bezier887" stroke="none" fill="rgb(0, 0, 0)" d="M 81.98,27.67 C 80.38,27.24 78.72,26.96 77.08,26.93 76.26,26.92 75.46,27.03 74.67,27.12 73.87,27.21 73.1,27.39 72.3,27.67 L 72.26,27.61 C 72.85,26.97 73.69,26.58 74.54,26.38 75.39,26.17 76.27,26.23 77.12,26.33 78.82,26.5 80.46,26.95 82.01,27.6 L 81.98,27.67 Z M 81.98,27.67" />
        </g>
        <g id="ranaTop3-group890">
            <path id="ranaTop3-bezier888" stroke="none" fill="rgb(0, 0, 0)" d="M 75.47,33.43 C 72.75,33.66 70.02,33.74 67.29,33.62 65.92,33.56 64.54,33.5 63.19,33.2 61.86,32.88 60.47,32.49 59.37,31.63 L 59.4,31.56 C 60.68,32.03 61.99,32.28 63.32,32.47 64.65,32.66 65.98,32.88 67.33,33.02 70.02,33.27 72.74,33.37 75.47,33.35 L 75.47,33.43 Z M 75.47,33.43" />
        </g>
        <g id="ranaTop3-group891">
            <path id="ranaTop3-bezier889" stroke="none" fill="rgb(0, 0, 0)" d="M 60.08,42.75 C 58.29,41.95 56.44,41.29 54.56,40.81 53.61,40.59 52.65,40.46 51.71,40.3 50.76,40.14 49.82,40.04 48.83,40 L 48.81,39.93 C 49.75,39.56 50.8,39.49 51.8,39.56 52.81,39.62 53.78,39.93 54.72,40.24 56.61,40.85 58.42,41.68 60.11,42.68 L 60.08,42.75 Z M 60.08,42.75" />
        </g>
        <g id="ranaTop3-group892">
            <path id="ranaTop3-bezier890" stroke="none" fill="rgb(0, 0, 0)" d="M 59.62,49.28 C 59.15,49.14 58.8,48.81 58.43,48.54 L 57.32,47.7 C 56.59,47.14 55.86,46.58 55.1,46.07 54.34,45.57 53.54,45.14 52.76,44.7 51.98,44.25 51.2,43.86 50.3,43.59 L 50.3,43.51 C 51.26,43.37 52.24,43.65 53.1,44.03 53.98,44.42 54.73,45.01 55.46,45.59 56.19,46.17 56.88,46.79 57.56,47.42 L 58.57,48.37 C 58.91,48.67 59.23,49.04 59.63,49.21 L 59.62,49.28 Z M 59.62,49.28" />
        </g>
        <g id="ranaTop3-group893">
            <path id="ranaTop3-bezier891" stroke="none" fill="rgb(0, 0, 0)" d="M 51.59,47.38 C 50.49,47.56 49.38,47.81 48.26,47.98 47.14,48.14 46.01,48.26 44.86,48.29 43.73,48.33 42.55,48.34 41.42,48.01 40.32,47.69 39.13,47.05 38.66,45.95 L 38.72,45.91 C 39.51,46.72 40.55,47.06 41.6,47.28 42.66,47.49 43.75,47.65 44.87,47.69 45.98,47.73 47.1,47.69 48.22,47.61 49.35,47.54 50.45,47.39 51.59,47.3 L 51.59,47.38 Z M 51.59,47.38" />
        </g>
        <g id="ranaTop3-group894">
            <path id="ranaTop3-bezier892" stroke="none" fill="rgb(0, 0, 0)" d="M 35.97,46 C 35.32,44.57 34.62,43.17 33.83,41.84 33.42,41.18 32.95,40.56 32.54,39.94 32.1,39.34 31.7,38.69 30.99,38.38 L 30.99,38.31 C 31.42,38.24 31.85,38.43 32.2,38.65 32.56,38.88 32.86,39.17 33.13,39.48 33.67,40.1 34.01,40.83 34.35,41.55 35.05,42.98 35.59,44.46 36.04,45.97 L 35.97,46 Z M 35.97,46" />
        </g>
        <g id="ranaTop3-group895">
            <path id="ranaTop3-bezier893" stroke="none" fill="rgb(0, 0, 0)" d="M 45.99,43.81 C 44.88,42.74 43.72,41.73 42.49,40.82 41.88,40.38 41.22,40 40.61,39.58 39.99,39.15 39.37,38.75 38.68,38.38 L 38.69,38.31 C 39.51,38.28 40.29,38.57 40.99,38.93 41.7,39.3 42.29,39.84 42.87,40.36 44.04,41.4 45.09,42.54 46.05,43.76 L 45.99,43.81 Z M 45.99,43.81" />
        </g>
        <g id="ranaTop3-group896">
            <path id="ranaTop3-bezier894" stroke="none" fill="rgb(0, 0, 0)" d="M 68.82,26.64 C 66.05,26.51 63.27,26.51 60.52,26.73 59.14,26.85 57.79,27.07 56.45,27.31 55.12,27.55 53.78,27.86 52.66,28.66 L 52.61,28.61 C 53.48,27.44 54.96,26.95 56.3,26.57 57.68,26.23 59.09,26.17 60.48,26.13 63.28,26.05 66.06,26.22 68.82,26.57 L 68.82,26.64 Z M 68.82,26.64" />
        </g>
        <g id="ranaTop3-group897">
            <path id="ranaTop3-bezier895" stroke="none" fill="rgb(0, 0, 0)" d="M 54.91,22.21 C 52.89,22.87 50.81,23.36 48.69,23.65 47.63,23.79 46.55,23.93 45.47,23.84 44.39,23.75 43.29,23.53 42.34,23.01 L 42.36,22.94 C 43.43,23.07 44.45,23.11 45.49,23.09 46.53,23.08 47.58,23.11 48.63,23.05 50.72,22.9 52.82,22.59 54.89,22.14 L 54.91,22.21 Z M 54.91,22.21" />
        </g>
        <g id="ranaTop3-group898">
            <path id="ranaTop3-bezier896" stroke="none" fill="rgb(0, 0, 0)" d="M 42.48,19.51 C 41.21,18.4 39.85,17.38 38.42,16.53 37.7,16.11 36.95,15.79 36.21,15.45 35.47,15.13 34.73,14.86 33.87,14.81 L 33.85,14.74 C 34.67,14.36 35.65,14.49 36.48,14.75 37.32,15.02 38.05,15.52 38.75,16.02 40.15,17.02 41.4,18.19 42.53,19.46 L 42.48,19.51 Z M 42.48,19.51" />
        </g>
        <g id="ranaTop3-group899">
            <path id="ranaTop3-bezier897" stroke="none" fill="rgb(0, 0, 0)" d="M 36,20.34 C 35.11,20.08 34.27,19.73 33.4,19.43 32.55,19.12 31.69,18.81 30.83,18.52 29.97,18.23 29.09,18.01 28.24,17.7 27.39,17.4 26.56,17.09 25.67,16.83 L 25.68,16.75 C 26.61,16.61 27.56,16.77 28.46,16.98 29.36,17.21 30.2,17.59 31.04,17.96 31.89,18.32 32.72,18.7 33.55,19.09 34.37,19.48 35.19,19.92 36.02,20.27 L 36,20.34 Z M 36,20.34" />
        </g>
        <g id="ranaTop3-group900">
            <path id="ranaTop3-bezier898" stroke="none" fill="rgb(0, 0, 0)" d="M 63.56,36.09 C 63.14,36.07 62.7,36.26 62.28,36.37 L 61,36.75 C 60.14,36.98 59.27,37.18 58.37,37.31 57.48,37.43 56.55,37.53 55.63,37.34 54.73,37.16 53.82,36.75 53.19,36.08 L 53.23,36.02 C 54.08,36.33 54.9,36.53 55.75,36.6 56.58,36.68 57.44,36.75 58.31,36.71 59.18,36.66 60.05,36.54 60.92,36.38 L 62.23,36.15 C 62.67,36.08 63.1,35.95 63.57,36.01 L 63.56,36.09 Z M 63.56,36.09" />
        </g>
        <g id="ranaTop3-group901">
            <path id="ranaTop3-bezier899" stroke="none" fill="rgb(0, 0, 0)" d="M 53.97,32.57 C 51.83,31.74 49.65,31 47.44,30.43 46.33,30.16 45.21,29.97 44.11,29.78 43.02,29.63 41.88,29.42 40.84,29.89 L 40.8,29.83 C 41.21,29.38 41.83,29.18 42.42,29.08 43.02,28.98 43.62,28.99 44.2,29.04 45.39,29.14 46.51,29.5 47.61,29.85 49.81,30.57 51.94,31.47 54,32.5 L 53.97,32.57 Z M 53.97,32.57" />
        </g>
        <g id="ranaTop3-group902">
            <path id="ranaTop3-bezier900" stroke="none" fill="rgb(0, 0, 0)" d="M 45.13,34.68 C 44.24,34.75 43.32,35.03 42.4,35.15 41.47,35.28 40.53,35.36 39.59,35.35 38.64,35.34 37.67,35.28 36.76,34.97 35.85,34.65 34.99,34.18 34.31,33.5 L 34.35,33.44 C 35.24,33.77 36.09,34.05 36.96,34.25 37.84,34.44 38.71,34.66 39.62,34.75 40.52,34.83 41.44,34.83 42.36,34.78 43.29,34.76 44.19,34.58 45.14,34.6 L 45.13,34.68 Z M 45.13,34.68" />
        </g>
        <g id="ranaTop3-group903">
            <path id="ranaTop3-bezier901" stroke="none" fill="rgb(0, 0, 0)" d="M 39.73,25.64 C 37.92,25.52 36.11,25.58 34.33,25.82 33.45,25.95 32.59,26.19 31.74,26.38 30.87,26.58 30.04,26.83 29.17,27.15 L 29.13,27.09 C 29.79,26.42 30.65,25.97 31.53,25.66 32.42,25.36 33.35,25.28 34.27,25.22 36.11,25.11 37.95,25.23 39.74,25.56 L 39.73,25.64 Z M 39.73,25.64" />
        </g>
        <g id="ranaTop3-group904">
            <path id="ranaTop3-bezier902" stroke="none" fill="rgb(0, 0, 0)" d="M 37.19,28.68 C 35.23,29.23 33.3,29.9 31.47,30.73 30.56,31.16 29.7,31.67 28.87,32.17 28.05,32.69 27.23,33.25 26.82,34.18 L 26.75,34.17 C 26.74,33.63 26.99,33.11 27.3,32.67 27.62,32.23 28.03,31.87 28.45,31.55 29.3,30.92 30.28,30.54 31.24,30.18 33.17,29.45 35.16,28.95 37.17,28.6 L 37.19,28.68 Z M 37.19,28.68" />
        </g>
        <g id="ranaTop3-group905">
            <path id="ranaTop3-bezier903" stroke="none" fill="rgb(0, 0, 0)" d="M 29.17,29.46 C 28.24,29.79 27.3,29.93 26.35,30.08 25.39,30.21 24.43,30.3 23.46,30.32 22.49,30.34 21.5,30.34 20.54,30.09 19.59,29.84 18.62,29.42 17.97,28.67 L 18.01,28.61 C 18.89,29.01 19.78,29.21 20.69,29.36 21.6,29.5 22.53,29.66 23.47,29.71 24.41,29.77 25.36,29.76 26.31,29.71 27.25,29.66 28.23,29.61 29.13,29.39 L 29.17,29.46 Z M 29.17,29.46" />
        </g>
        <g id="ranaTop3-group906">
            <path id="ranaTop3-bezier904" stroke="none" fill="rgb(0, 0, 0)" d="M 25.9,23.51 C 24.78,23 23.61,22.58 22.43,22.32 21.84,22.2 21.24,22.18 20.67,22.13 20.09,22.07 19.54,22.08 18.91,22.21 L 18.87,22.15 C 19.31,21.64 20.02,21.42 20.68,21.38 21.35,21.34 21.99,21.54 22.59,21.74 23.8,22.15 24.91,22.74 25.94,23.45 L 25.9,23.51 Z M 25.9,23.51" />
        </g>
        <g id="ranaTop3-group907">
            <path id="ranaTop3-bezier905" stroke="none" fill="rgb(0, 0, 0)" d="M 106.78,26.15 C 106.56,26.43 106.19,26.41 105.89,26.4 105.57,26.39 105.25,26.32 104.95,26.2 104.66,26.08 104.36,25.92 104.1,25.71 103.97,25.6 103.85,25.48 103.74,25.32 103.64,25.17 103.5,24.93 103.63,24.62 103.66,24.51 103.83,24.35 103.93,24.31 104.04,24.25 104.14,24.22 104.24,24.2 104.44,24.17 104.63,24.17 104.8,24.19 105.16,24.23 105.48,24.35 105.78,24.51 106.06,24.67 106.32,24.93 106.51,25.2 106.68,25.48 106.91,25.81 106.78,26.15 Z M 106.71,26.12 C 106.79,25.84 106.48,25.62 106.24,25.5 105.97,25.37 105.71,25.3 105.45,25.19 105.19,25.08 104.93,24.99 104.68,24.92 104.44,24.83 104.14,24.9 104.17,24.88 104.11,24.84 104.23,25.18 104.43,25.35 104.63,25.55 104.86,25.72 105.11,25.87 105.36,26.02 105.63,26.15 105.91,26.25 106.18,26.32 106.56,26.39 106.71,26.12 Z M 106.71,26.12" />
        </g>
        <g id="ranaTop3-group908">
            <path id="ranaTop3-bezier906" stroke="none" fill="rgb(0, 0, 0)" d="M 106.82,32.83 C 106.66,32.57 106.28,32.64 106.02,32.72 105.73,32.83 105.47,32.97 105.23,33.13 104.98,33.29 104.75,33.46 104.56,33.67 104.47,33.77 104.39,33.88 104.34,33.98 104.28,34.08 104.33,34.21 104.29,34.12 104.3,34.16 104.58,34.17 104.82,34.09 105.07,34.02 105.34,33.91 105.58,33.81 105.85,33.68 106.1,33.6 106.36,33.46 106.6,33.33 106.91,33.11 106.82,32.83 Z M 106.88,32.79 C 107.02,33.13 106.81,33.47 106.65,33.75 106.47,34.03 106.21,34.3 105.94,34.46 105.64,34.64 105.33,34.76 104.97,34.82 104.8,34.84 104.62,34.85 104.41,34.82 104.31,34.8 104.21,34.78 104.09,34.73 104.03,34.69 103.99,34.67 103.91,34.61 103.83,34.52 103.82,34.49 103.8,34.46 103.63,34.08 103.79,33.89 103.87,33.72 103.97,33.55 104.1,33.43 104.22,33.32 104.48,33.1 104.77,32.93 105.05,32.8 105.35,32.68 105.66,32.59 105.99,32.57 106.29,32.56 106.66,32.52 106.88,32.79 Z M 106.88,32.79" />
        </g>
        <g id="ranaTop3-group909">
            <path id="ranaTop3-bezier907" stroke="none" fill="rgb(0, 0, 0)" d="M 104.7,32.02 C 104.45,32.18 104.25,32.4 104.06,32.62 103.88,32.84 103.71,33.08 103.59,33.32 103.47,33.57 103.44,33.83 103.36,34.04 103.27,34.25 103.2,34.46 103.18,34.82 L 103.11,34.86 C 102.77,34.7 102.59,34.29 102.62,33.91 102.64,33.52 102.88,33.23 103.1,32.98 103.53,32.49 104.06,32.12 104.67,31.95 L 104.7,32.02 Z M 104.7,32.02" />
        </g>
        <g id="ranaTop3-group910">
            <path id="ranaTop3-bezier908" stroke="none" fill="rgb(0, 0, 0)" d="M 104.85,26.77 C 104.26,26.8 103.67,26.67 103.12,26.35 102.85,26.19 102.55,25.98 102.43,25.65 102.32,25.32 102.33,24.95 102.53,24.67 L 102.6,24.66 C 102.82,24.93 102.95,25.13 103.1,25.3 103.24,25.47 103.32,25.69 103.49,25.87 103.84,26.22 104.33,26.51 104.85,26.69 L 104.85,26.77 Z M 104.85,26.77" />
        </g>
        <g id="ranaTop3-group911">
            <path id="ranaTop3-bezier909" stroke="none" fill="rgb(0, 0, 0)" d="M 80.9,9.53 C 81.14,9.03 81.25,8.36 80.96,8.14 80.82,8.03 80.6,8.02 80.37,7.92 80.14,7.81 79.88,7.72 79.6,7.51 L 79.6,7.43 C 79.89,7.23 80.21,7.17 80.54,7.19 80.87,7.21 81.22,7.43 81.44,7.77 81.66,8.13 81.61,8.54 81.49,8.83 81.36,9.12 81.17,9.36 80.96,9.57 L 80.9,9.53 Z M 80.9,9.53" />
        </g>
        <g id="ranaTop3-group912">
            <path id="ranaTop3-bezier910" stroke="none" fill="rgb(0, 0, 0)" d="M 81.32,7.04 C 81.41,6.76 81.42,6.47 81.33,6.23 81.25,6 81.09,5.84 80.87,5.74 80.65,5.64 80.39,5.64 80.15,5.54 79.9,5.43 79.64,5.31 79.36,5.09 L 79.36,5.02 C 79.67,4.83 79.99,4.78 80.31,4.8 80.64,4.83 80.95,5.02 81.21,5.25 81.48,5.47 81.69,5.82 81.7,6.18 81.7,6.53 81.57,6.83 81.39,7.07 L 81.32,7.04 Z M 81.32,7.04" />
        </g>
        <g id="ranaTop3-group913">
            <path id="ranaTop3-bezier911" stroke="none" fill="rgb(0, 0, 0)" d="M 80.89,4.35 C 80.8,3.98 80.58,3.62 80.25,3.48 79.93,3.34 79.55,3.43 79.22,3.59 78.55,3.91 77.95,4.46 77.32,4.94 76.71,5.42 76.03,6.02 75.12,6.15 74.22,6.27 73.38,6.01 72.68,5.59 L 72.7,5.52 C 73.52,5.55 74.29,5.61 74.97,5.41 75.64,5.24 76.3,4.88 76.97,4.45 77.65,4.04 78.28,3.54 79.08,3.24 79.47,3.11 79.96,3.05 80.36,3.28 80.75,3.52 80.92,3.94 80.97,4.34 L 80.89,4.35 Z M 80.89,4.35" />
        </g>
        <g id="ranaTop3-group917">
            <path id="ranaTop3-bezier915" stroke="none" fill="rgb(0, 0, 0)" d="M 11.71,53.64 C 11.9,53.85 12.05,54.14 12,54.49 11.93,54.84 11.65,55.09 11.39,55.25 11.12,55.42 10.85,55.57 10.55,55.57 10.26,55.57 9.97,55.51 9.69,55.32 L 9.68,55.25 C 9.94,55.03 10.19,54.93 10.43,54.83 10.66,54.74 10.91,54.77 11.13,54.71 11.35,54.65 11.55,54.55 11.64,54.37 11.75,54.2 11.75,53.92 11.65,53.68 L 11.71,53.64 Z M 11.71,53.64" />
        </g>
        <g id="ranaTop3-group918">
            <path id="ranaTop3-bezier916" stroke="none" fill="rgb(0, 0, 0)" d="M 11.29,56.17 C 11.26,56.42 11.04,56.44 10.9,56.52 10.74,56.58 10.58,56.63 10.42,56.67 10.09,56.75 9.76,56.81 9.43,56.86 8.78,56.94 8.12,57.02 7.43,56.99 7.08,56.98 6.73,56.95 6.36,56.83 6,56.72 5.63,56.45 5.43,56.08 5.23,55.71 5.19,55.32 5.21,54.97 5.24,54.61 5.31,54.28 5.44,53.96 L 5.52,53.97 C 5.68,54.62 5.76,55.29 6.06,55.69 6.33,56.05 6.86,56.3 7.49,56.39 8.1,56.49 8.76,56.49 9.41,56.48 9.73,56.48 10.06,56.47 10.38,56.45 10.54,56.43 10.7,56.41 10.85,56.37 10.99,56.34 11.19,56.28 11.22,56.19 L 11.29,56.17 Z M 11.29,56.17" />
        </g>
        <g id="ranaTop3-group919">
            <path id="ranaTop3-bezier917" stroke="none" fill="rgb(0, 0, 0)" d="M 58.74,56.2 C 58.92,56.45 59.05,56.75 59.05,57.1 59.04,57.45 58.83,57.81 58.56,58.03 58.29,58.26 57.99,58.45 57.66,58.47 57.34,58.49 57.02,58.45 56.71,58.26 L 56.71,58.18 C 56.98,57.96 57.25,57.85 57.5,57.74 57.74,57.64 58,57.64 58.22,57.54 58.43,57.43 58.6,57.28 58.68,57.04 58.77,56.81 58.76,56.51 58.67,56.24 L 58.74,56.2 Z M 58.74,56.2" />
        </g>
        <g id="ranaTop3-group920">
            <path id="ranaTop3-bezier918" stroke="none" fill="rgb(0, 0, 0)" d="M 58.31,58.94 C 58.26,59.33 58.09,59.76 57.7,60 57.31,60.23 56.82,60.17 56.43,60.04 55.63,59.74 54.99,59.24 54.32,58.83 53.65,58.4 52.99,58.04 52.32,57.86 51.64,57.67 50.87,57.73 50.05,57.76 L 50.03,57.69 C 50.73,57.27 51.57,57 52.46,57.13 53.38,57.26 54.06,57.86 54.67,58.34 55.3,58.82 55.9,59.37 56.57,59.69 56.9,59.85 57.27,59.94 57.6,59.8 57.93,59.66 58.15,59.3 58.24,58.93 L 58.31,58.94 Z M 58.31,58.94" />
        </g>
        <g id="ranaTop3-group921">
            <path id="ranaTop3-bezier919" stroke="none" fill="rgb(0, 0, 0)" d="M 14.21,48.49 C 12.62,49.1 10.96,49.45 9.26,49.63 8.83,49.68 8.4,49.71 7.95,49.7 7.74,49.69 7.47,49.66 7.29,49.61 7.12,49.57 6.99,49.58 6.87,49.61 6.63,49.66 6.4,49.95 6.23,50.29 6.06,50.64 5.94,51.05 5.79,51.45 L 5.72,51.44 C 5.65,51.02 5.64,50.58 5.74,50.13 5.82,49.7 6.04,49.16 6.61,48.91 6.89,48.8 7.2,48.8 7.44,48.85 7.67,48.9 7.81,48.94 8.02,48.96 8.41,49.02 8.82,49.03 9.23,49.03 10.05,49.02 10.89,48.95 11.71,48.85 12.54,48.75 13.38,48.64 14.19,48.42 L 14.21,48.49 Z M 14.21,48.49" />
        </g>
        <g id="ranaTop3-group922">
            <path id="ranaTop3-bezier920" stroke="none" fill="rgb(0, 0, 0)" d="M 18.89,53.3 L 14.07,53.71 C 13.27,53.78 12.47,53.9 11.67,53.89 10.86,53.89 10.06,53.86 9.24,53.74 L 9.23,53.67 C 10.01,53.38 10.82,53.25 11.62,53.15 12.43,53.05 13.24,53.1 14.05,53.11 15.66,53.11 17.28,53.15 18.89,53.22 L 18.89,53.3 Z M 18.89,53.3" />
        </g>
    </g>
</svg>
