<?xml version="1.0" encoding="UTF-8"?>
<!DOCTYPE svg PUBLIC "-//W3C//DTD SVG 1.1//EN" "http://www.w3.org/Graphics/SVG/1.1/DTD/svg11.dtd">
<svg version="1.1" xmlns="http://www.w3.org/2000/svg" xmlns:xlink="http://www.w3.org/1999/xlink" width="120" height="60"  xml:space="preserve" id="ranaSideLeft6">
    <!-- Generated by PaintCode - http://www.paintcodeapp.com -->
    <g id="ranaSideLeft6-group">
        <g id="ranaSideLeft6-group112">
            <path id="ranaSideLeft6-bezier111" stroke="none" fill="rgb(0, 0, 0)" d="M 24.19,26.55 C 25.32,25.39 26.78,24.4 28.38,24.26 29.17,24.18 29.95,24.37 30.63,24.79 31.31,25.18 31.88,25.74 32.27,26.42 32.66,27.09 32.87,27.86 33.01,28.65 33.09,29.05 33.14,29.45 33.23,29.88 33.28,30.08 33.36,30.36 33.51,30.57 33.54,30.62 33.56,30.66 33.55,30.65 33.55,30.64 33.57,30.71 33.58,30.73 33.59,30.8 33.6,30.89 33.61,30.98 33.67,31.73 33.55,32.57 33.5,33.4 33.48,33.81 33.46,34.23 33.47,34.65 33.48,34.87 33.49,35.08 33.53,35.29 33.57,35.5 33.62,35.73 33.8,35.89 L 33.85,35.83 C 33.67,35.51 33.76,35.06 33.81,34.67 33.87,34.27 33.94,33.87 34.02,33.46 34.17,32.65 34.34,31.85 34.36,30.94 34.35,30.83 34.34,30.7 34.32,30.58 34.3,30.5 34.3,30.46 34.26,30.36 34.21,30.25 34.18,30.2 34.16,30.16 34.07,30.04 34.04,29.9 33.99,29.7 L 33.74,28.5 C 33.55,27.68 33.27,26.83 32.78,26.1 31.83,24.64 30.08,23.64 28.33,23.89 26.61,24.16 25.21,25.26 24.13,26.5 L 24.19,26.55 Z M 24.19,26.55" />
        </g>
        <g id="ranaSideLeft6-group113">
            <path id="ranaSideLeft6-bezier112" stroke="none" fill="rgb(0, 0, 0)" d="M 9.2,48.61 C 8.73,48.62 8.25,48.7 7.79,48.87 7.34,49.04 6.87,49.36 6.62,49.87 6.41,50.28 6.08,50.77 6.27,51.43 6.39,51.75 6.63,51.99 6.89,52.09 7.14,52.2 7.39,52.24 7.65,52.23 L 7.67,52.16 C 7.31,51.81 7,51.5 7,51.23 6.97,50.97 7.02,50.54 7.17,50.1 7.27,49.74 7.57,49.43 7.95,49.2 8.32,48.97 8.76,48.79 9.21,48.69 L 9.2,48.61 Z M 9.2,48.61" />
        </g>
        <g id="ranaSideLeft6-group114">
            <path id="ranaSideLeft6-bezier113" stroke="none" fill="rgb(0, 0, 0)" d="M 9.18,52.46 C 9.65,53.04 10.44,53.07 11.1,53.06 11.79,53.03 12.47,52.89 13.13,52.71 14.45,52.32 15.67,51.75 16.94,51.3 18.2,50.84 19.49,50.43 20.73,49.93 21.98,49.44 23.22,48.89 24.5,48.52 L 24.5,48.45 C 23.09,48.4 21.78,48.86 20.48,49.23 19.19,49.64 17.95,50.2 16.71,50.75 15.47,51.27 14.26,51.9 13.01,52.35 12.38,52.57 11.74,52.76 11.08,52.84 10.45,52.9 9.69,52.91 9.24,52.42 L 9.18,52.46 Z M 9.18,52.46" />
        </g>
        <g id="ranaSideLeft6-group115">
            <path id="ranaSideLeft6-bezier114" stroke="none" fill="rgb(0, 0, 0)" d="M 13.72,52.99 C 14.44,53.62 15.54,53.86 16.47,53.49 17.37,53.18 18.25,52.86 19.14,52.57 20.03,52.29 20.94,52.08 21.81,51.8 22.7,51.51 23.57,51.26 24.5,51.02 L 24.5,50.95 C 23.54,50.77 22.56,50.88 21.63,51.07 20.69,51.27 19.81,51.65 18.93,52.01 18.06,52.37 17.2,52.77 16.34,53.14 15.54,53.56 14.54,53.46 13.77,52.94 L 13.72,52.99 Z M 13.72,52.99" />
        </g>
        <g id="ranaSideLeft6-group116">
            <path id="ranaSideLeft6-bezier115" stroke="none" fill="rgb(0, 0, 0)" d="M 25.29,51.25 C 26.63,51.23 27.98,51.23 29.32,51.25 30.66,51.26 32,51.27 33.33,51.37 33.66,51.39 33.99,51.43 34.31,51.48 34.61,51.52 34.93,51.62 35.3,51.67 35.99,51.77 36.67,51.79 37.35,51.77 38.71,51.69 40.06,51.54 41.38,51.16 L 41.37,51.08 C 40.01,51.04 38.68,51.07 37.35,51.02 36.69,51.01 36.03,50.99 35.39,50.93 35.08,50.91 34.75,50.84 34.39,50.81 34.04,50.78 33.7,50.77 33.36,50.77 30.64,50.74 27.97,50.94 25.29,51.17 L 25.29,51.25 Z M 25.29,51.25" />
        </g>
        <g id="ranaSideLeft6-group117">
            <path id="ranaSideLeft6-bezier116" stroke="none" fill="rgb(0, 0, 0)" d="M 27.34,48.9 C 30.14,48.47 32.96,48.1 35.77,47.8 L 39.99,47.45 C 41.39,47.31 42.79,47.15 44.19,47.27 L 44.21,47.2 C 42.85,46.65 41.36,46.7 39.94,46.7 38.51,46.75 37.1,46.99 35.69,47.21 32.88,47.64 30.09,48.19 27.32,48.82 L 27.34,48.9 Z M 27.34,48.9" />
        </g>
        <g id="ranaSideLeft6-group118">
            <path id="ranaSideLeft6-bezier117" stroke="none" fill="rgb(0, 0, 0)" d="M 45.67,48.47 C 45.08,49.3 44.39,50.07 43.59,50.66 43.19,50.96 42.76,51.21 42.3,51.33 41.8,51.48 41.31,51.65 40.82,51.84 39.86,52.22 38.88,52.62 38.03,53.25 37.61,53.57 37.19,53.92 36.85,54.34 36.52,54.75 36.21,55.26 36.21,55.81 L 36.28,55.83 C 36.73,54.92 37.62,54.41 38.45,53.88 39.3,53.37 40.15,52.83 41.06,52.39 41.52,52.17 41.98,51.97 42.45,51.8 42.98,51.61 43.43,51.3 43.82,50.95 44.61,50.24 45.22,49.4 45.74,48.51 L 45.67,48.47 Z M 45.67,48.47" />
        </g>
        <g id="ranaSideLeft6-group119">
            <path id="ranaSideLeft6-bezier118" stroke="none" fill="rgb(0, 0, 0)" d="M 38.14,55.16 C 37.76,55.33 37.42,55.55 37.1,55.85 36.95,55.99 36.75,56.15 36.7,56.4 36.65,56.63 36.69,56.97 36.96,57.12 L 37.03,57.1 C 37.18,56.87 37.3,56.8 37.4,56.68 37.5,56.56 37.51,56.38 37.59,56.21 37.75,55.89 37.96,55.55 38.19,55.22 L 38.14,55.16 Z M 38.14,55.16" />
        </g>
        <g id="ranaSideLeft6-group120">
            <path id="ranaSideLeft6-bezier119" stroke="none" fill="rgb(0, 0, 0)" d="M 39.65,55.58 C 39.25,55.63 38.86,55.74 38.49,55.93 38.3,56.03 38.07,56.12 37.96,56.36 37.84,56.57 37.83,57 38.13,57.12 L 38.2,57.1 C 38.34,56.86 38.47,56.88 38.57,56.79 38.68,56.72 38.74,56.55 38.85,56.41 39.09,56.15 39.38,55.89 39.68,55.64 L 39.65,55.58 Z M 39.65,55.58" />
        </g>
        <g id="ranaSideLeft6-group121">
            <path id="ranaSideLeft6-bezier120" stroke="none" fill="rgb(0, 0, 0)" d="M 39.66,56.85 C 40.31,56.91 40.96,56.92 41.64,56.68 41.81,56.62 42,56.51 42.16,56.39 42.29,56.28 42.38,56.19 42.48,56.07 42.67,55.83 42.84,55.57 42.98,55.22 L 42.93,55.16 C 42.55,55.18 42.24,55.34 41.97,55.52 41.84,55.62 41.71,55.75 41.62,55.88 41.55,55.98 41.49,56.06 41.37,56.14 41.14,56.3 40.85,56.41 40.56,56.51 40.27,56.62 39.97,56.71 39.66,56.78 L 39.66,56.85 Z M 39.66,56.85" />
        </g>
        <g id="ranaSideLeft6-group122">
            <path id="ranaSideLeft6-bezier121" stroke="none" fill="rgb(0, 0, 0)" d="M 43.21,54.98 C 44.24,54.75 45.26,54.47 46.3,54.41 46.66,54.34 46.85,54.16 47.08,54.02 L 47.73,53.58 C 48.16,53.3 48.61,53.07 49.08,52.9 49.56,52.73 50.02,52.65 50.55,52.6 51.14,52.51 51.68,52.27 52.15,51.94 52.6,51.59 52.99,51.17 53.28,50.71 53.57,50.24 53.82,49.76 53.91,49.19 L 53.83,49.19 C 53.27,50.04 52.54,50.81 51.73,51.32 51.32,51.57 50.88,51.76 50.43,51.86 49.93,51.96 49.35,52.11 48.86,52.34 48.35,52.56 47.88,52.86 47.45,53.18 47.03,53.48 46.6,53.92 46.25,54.04 45.18,54.2 44.19,54.58 43.19,54.91 L 43.21,54.98 Z M 43.21,54.98" />
        </g>
        <g id="ranaSideLeft6-group123">
            <path id="ranaSideLeft6-bezier122" stroke="none" fill="rgb(0, 0, 0)" d="M 50.13,53.89 C 49.56,55.01 48.97,56.13 48.31,57.17 48.13,57.42 47.95,57.67 47.76,57.88 47.55,58.1 47.4,58.29 47.26,58.3 46.95,58.38 46.64,58.45 46.32,58.61 46.01,58.75 45.67,59.07 45.67,59.43 L 45.74,59.46 C 46.15,58.99 46.76,59.14 47.39,59.03 47.43,59.03 47.62,59 47.73,58.94 47.84,58.88 47.92,58.81 48,58.75 48.14,58.61 48.25,58.47 48.35,58.33 48.53,58.05 48.68,57.76 48.83,57.47 49.4,56.31 49.82,55.12 50.2,53.91 L 50.13,53.89 Z M 50.13,53.89" />
        </g>
        <g id="ranaSideLeft6-group124">
            <path id="ranaSideLeft6-bezier123" stroke="none" fill="rgb(0, 0, 0)" d="M 42.94,57.87 C 42.51,57.92 42.08,58.02 41.67,58.23 41.47,58.32 41.22,58.41 41.09,58.64 40.97,58.86 40.9,59.19 41.08,59.44 L 41.16,59.45 C 41.38,59.28 41.52,59.23 41.67,59.13 41.81,59.04 41.88,58.86 42.02,58.72 42.29,58.45 42.62,58.18 42.97,57.94 L 42.94,57.87 Z M 42.94,57.87" />
        </g>
        <g id="ranaSideLeft6-group125">
            <path id="ranaSideLeft6-bezier124" stroke="none" fill="rgb(0, 0, 0)" d="M 40.78,57.86 C 40.37,57.85 39.95,57.97 39.59,58.24 39.41,58.36 39.2,58.51 39.14,58.73 39.08,58.96 39.09,59.21 39.25,59.44 L 39.32,59.45 C 39.57,59.31 39.68,59.19 39.8,59.08 39.91,58.97 39.93,58.81 40.02,58.66 40.19,58.39 40.46,58.13 40.79,57.94 L 40.78,57.86 Z M 40.78,57.86" />
        </g>
        <g id="ranaSideLeft6-group126">
            <path id="ranaSideLeft6-bezier125" stroke="none" fill="rgb(0, 0, 0)" d="M 38.59,58.65 C 38.37,58.72 38.16,58.82 37.98,58.97 37.88,59.04 37.74,59.09 37.73,59.23 37.71,59.37 37.74,59.54 37.92,59.69 L 37.99,59.7 C 38.21,59.65 38.31,59.63 38.39,59.57 38.47,59.53 38.44,59.41 38.46,59.31 38.52,59.13 38.58,58.92 38.65,58.7 L 38.59,58.65 Z M 38.59,58.65" />
        </g>
        <g id="ranaSideLeft6-group127">
            <path id="ranaSideLeft6-bezier126" stroke="none" fill="rgb(0, 0, 0)" d="M 43.22,57.48 C 43.72,57.37 44.2,57.12 44.57,56.72 44.76,56.53 44.98,56.32 45.03,56.03 45.08,55.76 45.04,55.46 44.87,55.2 L 44.79,55.19 C 44.56,55.41 44.45,55.6 44.32,55.77 44.21,55.95 44.19,56.16 44.09,56.36 43.89,56.75 43.58,57.12 43.19,57.41 L 43.22,57.48 Z M 43.22,57.48" />
        </g>
        <g id="ranaSideLeft6-group128">
            <path id="ranaSideLeft6-bezier127" stroke="none" fill="rgb(0, 0, 0)" d="M 51.33,53.35 C 54.8,53.28 58.27,53.31 61.74,53.47 65.2,53.63 68.67,53.87 72.04,54.57 75.37,55.46 78.82,56.26 82.3,56.52 85.77,56.76 89.34,56.84 92.71,55.85 L 92.69,55.78 C 89.27,56.34 85.8,56.14 82.37,55.78 78.93,55.41 75.56,54.81 72.16,53.98 68.71,53.34 65.22,53.18 61.75,53.09 58.27,53.04 54.8,53.1 51.33,53.28 L 51.33,53.35 Z M 51.33,53.35" />
        </g>
        <g id="ranaSideLeft6-group129">
            <path id="ranaSideLeft6-bezier128" stroke="none" fill="rgb(0, 0, 0)" d="M 94.44,57.86 C 93.74,57.97 93.05,58.16 92.39,58.49 92.06,58.65 91.7,58.83 91.47,59.17 91.25,59.5 91.12,59.99 91.33,60.36 L 91.41,60.36 C 91.62,60.03 91.82,59.85 92.04,59.66 92.27,59.47 92.46,59.21 92.71,59 93.23,58.6 93.84,58.24 94.46,57.94 L 94.44,57.86 Z M 94.44,57.86" />
        </g>
        <g id="ranaSideLeft6-group130">
            <path id="ranaSideLeft6-bezier129" stroke="none" fill="rgb(0, 0, 0)" d="M 91.37,58.32 C 90.93,58.28 90.46,58.36 90.04,58.63 89.83,58.75 89.59,58.91 89.51,59.17 89.43,59.42 89.46,59.7 89.62,59.94 L 89.7,59.95 C 89.94,59.77 90.05,59.64 90.18,59.52 90.29,59.4 90.32,59.23 90.43,59.08 90.65,58.81 90.99,58.56 91.38,58.4 L 91.37,58.32 Z M 91.37,58.32" />
        </g>
        <g id="ranaSideLeft6-group131">
            <path id="ranaSideLeft6-bezier130" stroke="none" fill="rgb(0, 0, 0)" d="M 89.26,58.33 C 88.98,58.45 88.72,58.6 88.48,58.78 88.35,58.87 88.19,58.93 88.14,59.1 88.1,59.25 88.04,59.5 88.25,59.7 L 88.32,59.69 C 88.53,59.6 88.65,59.6 88.76,59.52 88.86,59.45 88.88,59.3 88.94,59.17 89.06,58.92 89.19,58.66 89.31,58.39 L 89.26,58.33 Z M 89.26,58.33" />
        </g>
        <g id="ranaSideLeft6-group132">
            <path id="ranaSideLeft6-bezier131" stroke="none" fill="rgb(0, 0, 0)" d="M 95.19,58.32 C 94.87,58.35 94.54,58.45 94.25,58.68 94.11,58.78 93.93,58.92 93.9,59.13 93.88,59.34 93.95,59.56 94.17,59.7 L 94.24,59.69 C 94.44,59.53 94.53,59.45 94.61,59.38 94.69,59.31 94.66,59.19 94.71,59.07 94.81,58.84 94.99,58.61 95.22,58.39 L 95.19,58.32 Z M 95.19,58.32" />
        </g>
        <g id="ranaSideLeft6-group133">
            <path id="ranaSideLeft6-bezier132" stroke="none" fill="rgb(0, 0, 0)" d="M 96.13,59.98 C 96.81,59.86 97.53,59.68 98.06,59.08 98.18,58.93 98.27,58.74 98.32,58.54 98.36,58.3 98.36,58.21 98.41,58.04 98.5,57.74 98.64,57.43 98.79,57.14 99.1,56.55 99.52,56.02 99.87,55.46 100.25,54.91 100.59,54.36 101.13,53.94 L 101.11,53.87 C 100.34,53.93 99.75,54.49 99.28,55.01 98.8,55.56 98.5,56.22 98.24,56.89 98.11,57.23 98,57.57 97.94,57.94 97.87,58.37 97.94,58.6 97.75,58.87 97.43,59.39 96.75,59.71 96.11,59.91 L 96.13,59.98 Z M 96.13,59.98" />
        </g>
        <g id="ranaSideLeft6-group134">
            <path id="ranaSideLeft6-bezier133" stroke="none" fill="rgb(0, 0, 0)" d="M 95.71,53.94 C 96.79,53.75 97.87,53.58 98.94,53.44 99.48,53.37 100.02,53.37 100.54,53.27 101.07,53.18 101.56,53.03 102.1,53.02 L 102.14,52.95 C 101.65,52.54 101.01,52.53 100.46,52.52 99.9,52.53 99.36,52.71 98.83,52.85 97.76,53.12 96.72,53.47 95.69,53.87 L 95.71,53.94 Z M 95.71,53.94" />
        </g>
        <g id="ranaSideLeft6-group135">
            <path id="ranaSideLeft6-bezier134" stroke="none" fill="rgb(0, 0, 0)" d="M 101.86,55.12 C 102.2,54.5 102.8,54.07 103.43,53.83 104.06,53.58 104.76,53.5 105.44,53.51 106.11,53.55 106.91,53.66 107.66,53.41 108.03,53.28 108.4,53.11 108.69,52.8 108.98,52.51 109.18,52.09 109.07,51.69 L 109,51.69 C 108.73,52.36 108.09,52.56 107.47,52.68 106.82,52.8 106.17,52.87 105.42,52.91 104.68,52.97 103.94,53.14 103.27,53.49 102.62,53.85 102.05,54.4 101.79,55.1 L 101.86,55.12 Z M 101.86,55.12" />
        </g>
        <g id="ranaSideLeft6-group136">
            <path id="ranaSideLeft6-bezier135" stroke="none" fill="rgb(0, 0, 0)" d="M 19.08,41.28 C 19.09,42.1 19.73,43 20.7,43.05 21.65,43.11 22.57,42.29 22.59,41.28 22.61,40.79 22.43,40.27 22.09,39.89 21.74,39.51 21.22,39.3 20.7,39.32 20.19,39.33 19.71,39.63 19.44,40.02 19.16,40.4 19.07,40.86 19.08,41.28 Z M 19.16,41.28 C 19.17,40.86 19.41,40.5 19.72,40.3 20.04,40.09 20.39,40.05 20.7,40.07 21.32,40.1 21.94,40.58 21.99,41.28 22.05,41.96 21.45,42.65 20.7,42.67 20.34,42.7 19.95,42.59 19.64,42.34 19.34,42.09 19.14,41.69 19.16,41.28 Z M 19.16,41.28" />
        </g>
        <g id="ranaSideLeft6-group137">
            <path id="ranaSideLeft6-bezier136" stroke="none" fill="rgb(0, 0, 0)" d="M 17.16,42.57 C 17.32,41.88 17.55,41.22 17.85,40.62 18.01,40.32 18.23,40.08 18.37,39.81 18.52,39.53 18.67,39.27 18.89,38.94 L 18.85,38.87 C 18.44,38.84 18.04,39.07 17.77,39.36 17.49,39.65 17.39,40.04 17.29,40.4 17.09,41.12 17.03,41.85 17.08,42.57 L 17.16,42.57 Z M 17.16,42.57" />
        </g>
        <g id="ranaSideLeft6-group138">
            <path id="ranaSideLeft6-bezier137" stroke="none" fill="rgb(0, 0, 0)" d="M 23.75,41.48 C 23.41,42.32 22.79,43.03 22.03,43.36 21.64,43.53 21.24,43.55 20.83,43.63 20.42,43.71 19.99,43.76 19.5,43.87 L 19.49,43.94 C 19.9,44.23 20.39,44.36 20.89,44.38 21.4,44.39 21.9,44.17 22.32,43.89 23.18,43.34 23.68,42.41 23.82,41.5 L 23.75,41.48 Z M 23.75,41.48" />
        </g>
        <g id="ranaSideLeft6-group139">
            <path id="ranaSideLeft6-bezier138" stroke="none" fill="rgb(0, 0, 0)" d="M 9.24,47.47 C 9.9,46.8 10.49,46.06 10.98,45.25 11.47,44.45 11.87,43.54 11.95,42.57 12.17,40.69 11.96,38.79 12.97,37.18 13.65,35.34 13.84,33.42 13.72,31.51 13.55,29.62 13.11,27.69 12.07,26.09 L 12,26.13 C 12.64,27.89 12.94,29.71 12.97,31.55 12.99,33.36 12.96,35.26 12.41,36.96 12.26,37.33 11.99,37.82 11.89,38.3 11.77,38.77 11.71,39.26 11.68,39.73 11.62,40.68 11.64,41.61 11.58,42.54 11.55,43.45 11.22,44.32 10.79,45.14 10.35,45.95 9.8,46.72 9.19,47.42 L 9.24,47.47 Z M 9.24,47.47" />
        </g>
        <g id="ranaSideLeft6-group140">
            <path id="ranaSideLeft6-bezier139" stroke="none" fill="rgb(0, 0, 0)" d="M 24.18,30.64 C 24.68,30.42 25.16,30.16 25.61,29.86 25.84,29.71 26.1,29.58 26.26,29.34 26.41,29.11 26.56,28.81 26.49,28.46 L 26.42,28.43 C 26.13,28.57 25.92,28.67 25.72,28.83 25.51,28.97 25.38,29.2 25.21,29.4 24.87,29.79 24.51,30.18 24.14,30.58 L 24.18,30.64 Z M 24.18,30.64" />
        </g>
        <g id="ranaSideLeft6-group141">
            <path id="ranaSideLeft6-bezier140" stroke="none" fill="rgb(0, 0, 0)" d="M 27,29.15 C 27.41,29.11 27.85,29.33 28.13,29.59 28.16,29.62 28.18,29.66 28.18,29.67 28.18,29.7 28.2,29.63 28.15,29.68 L 28.13,29.7 C 28.12,29.71 28.08,29.78 28.08,29.82 28.1,29.91 28.15,29.95 28.16,29.96 28.21,29.99 28.24,30 28.27,30.01 28.33,30.03 28.39,30.05 28.44,30.07 L 29.08,30.23 C 29.29,30.29 29.5,30.34 29.66,30.42 29.7,30.44 29.73,30.47 29.73,30.47 29.72,30.5 29.69,30.37 29.71,30.35 29.73,30.34 29.62,30.41 29.53,30.46 29.26,30.62 29.11,30.96 29.12,31.25 29.13,31.53 29.21,31.75 29.25,31.96 29.31,32.16 29.3,32.35 29.27,32.33 29.25,32.37 29.28,32.27 29.02,32.55 28.92,32.7 28.93,32.91 28.97,33.02 29.01,33.14 29.06,33.2 29.11,33.27 29.48,33.7 29.88,33.89 30.15,34.14 30.22,34.17 30.25,34.28 30.23,34.14 30.28,33.93 30.38,33.98 30.21,34.05 30.14,34.11 29.98,34.14 29.93,34.43 29.94,34.72 30.09,34.77 30.14,34.83 30.27,34.92 30.38,34.96 30.5,34.99 L 31.13,35.18 C 31.24,35.21 31.34,35.24 31.41,35.28 31.45,35.31 31.46,35.31 31.47,35.31 31.48,35.33 31.43,35.38 31.4,35.41 L 31.43,35.48 C 31.48,35.46 31.55,35.46 31.61,35.38 31.67,35.28 31.6,35.17 31.56,35.12 31.47,35.02 31.38,34.95 31.28,34.88 L 30.73,34.52 C 30.64,34.47 30.56,34.4 30.52,34.36 30.49,34.35 30.54,34.31 30.56,34.49 30.52,34.66 30.47,34.64 30.49,34.64 30.51,34.62 30.88,34.6 30.94,34.14 30.9,33.77 30.75,33.71 30.67,33.6 30.31,33.24 29.91,33.01 29.68,32.8 29.66,32.78 29.65,32.75 29.65,32.77 29.66,32.78 29.66,32.87 29.62,32.92 29.49,33.03 29.75,32.85 29.84,32.69 30.04,32.28 29.89,32 29.83,31.79 29.67,31.35 29.57,31.03 29.8,30.87 29.87,30.8 29.98,30.78 30.12,30.57 30.21,30.46 30.14,30.2 30.05,30.16 29.97,30.09 29.9,30.06 29.84,30.03 29.6,29.94 29.38,29.9 29.16,29.87 L 28.51,29.77 28.36,29.74 C 28.34,29.74 28.32,29.73 28.32,29.73 28.31,29.73 28.34,29.74 28.35,29.8 28.36,29.83 28.32,29.89 28.31,29.89 L 28.33,29.88 C 28.36,29.87 28.48,29.7 28.42,29.61 28.39,29.52 28.33,29.47 28.29,29.43 27.9,29.15 27.45,28.99 26.99,29.07 L 27,29.15 Z M 27,29.15" />
        </g>
        <g id="ranaSideLeft6-group142">
            <path id="ranaSideLeft6-bezier141" stroke="none" fill="rgb(0, 0, 0)" d="M 36.25,28.9 C 37.23,28.81 38.2,28.78 39.16,28.81 39.64,28.83 40.11,28.92 40.58,28.92 41.05,28.91 41.5,28.91 42.02,28.9 L 42.05,28.83 C 41.66,28.45 41.15,28.27 40.65,28.17 40.14,28.07 39.63,28.15 39.14,28.21 38.15,28.31 37.18,28.53 36.24,28.82 L 36.25,28.9 Z M 36.25,28.9" />
        </g>
        <g id="ranaSideLeft6-group143">
            <path id="ranaSideLeft6-bezier142" stroke="none" fill="rgb(0, 0, 0)" d="M 40.66,33.18 C 41.43,33.38 42.13,33.77 42.76,34.21 43.07,34.44 43.34,34.72 43.67,34.93 44,35.13 44.34,35.32 44.76,35.47 L 44.81,35.42 C 44.68,34.99 44.43,34.64 44.13,34.34 43.84,34.04 43.44,33.87 43.06,33.69 42.31,33.34 41.49,33.1 40.67,33.1 L 40.66,33.18 Z M 40.66,33.18" />
        </g>
        <g id="ranaSideLeft6-group144">
            <path id="ranaSideLeft6-bezier143" stroke="none" fill="rgb(0, 0, 0)" d="M 42.71,31.9 C 43.99,32.5 45.22,33.19 46.38,33.96 46.96,34.36 47.49,34.81 48.04,35.21 48.61,35.6 49.14,36.01 49.71,36.46 L 49.78,36.42 C 49.53,35.72 49.05,35.12 48.52,34.63 47.98,34.12 47.33,33.78 46.69,33.45 45.43,32.77 44.1,32.23 42.74,31.82 L 42.71,31.9 Z M 42.71,31.9" />
        </g>
        <g id="ranaSideLeft6-group145">
            <path id="ranaSideLeft6-bezier144" stroke="none" fill="rgb(0, 0, 0)" d="M 108.05,48.89 C 108.45,49.38 108.83,49.87 109.18,50.37 109.35,50.62 109.47,50.9 109.68,51.11 109.9,51.32 110.11,51.51 110.42,51.71 L 110.49,51.68 C 110.55,51.31 110.44,50.96 110.29,50.67 110.14,50.38 109.87,50.18 109.63,49.97 109.15,49.54 108.64,49.16 108.1,48.83 L 108.05,48.89 Z M 108.05,48.89" />
        </g>
        <g id="ranaSideLeft6-group146">
            <path id="ranaSideLeft6-bezier145" stroke="none" fill="rgb(0, 0, 0)" d="M 102.1,45.33 C 102.9,46.04 103.7,46.77 104.47,47.5 104.86,47.87 105.2,48.28 105.6,48.61 106,48.95 106.44,49.22 106.79,49.62 L 106.87,49.6 C 106.89,49.29 106.75,49.01 106.62,48.76 106.48,48.5 106.3,48.28 106.13,48.07 105.77,47.65 105.3,47.35 104.86,47.04 103.98,46.39 103.08,45.81 102.14,45.27 L 102.1,45.33 Z M 102.1,45.33" />
        </g>
        <g id="ranaSideLeft6-group147">
            <path id="ranaSideLeft6-bezier146" stroke="none" fill="rgb(0, 0, 0)" d="M 96.88,45.33 C 97.67,45.67 98.47,45.98 99.27,46.26 99.67,46.41 100.07,46.6 100.49,46.65 100.92,46.7 101.37,46.73 101.82,46.59 L 101.83,46.51 C 101.45,46.25 101.07,46.07 100.67,45.92 100.28,45.78 99.85,45.75 99.43,45.68 98.59,45.53 97.75,45.39 96.9,45.26 L 96.88,45.33 Z M 96.88,45.33" />
        </g>
        <g id="ranaSideLeft6-group148">
            <path id="ranaSideLeft6-bezier147" stroke="none" fill="rgb(0, 0, 0)" d="M 108.06,46.58 C 108.6,47.14 109.15,47.7 109.7,48.24 109.97,48.52 110.2,48.83 110.52,49.05 110.83,49.28 111.17,49.45 111.55,49.63 L 111.61,49.59 C 111.54,49.13 111.27,48.8 111.02,48.5 110.76,48.19 110.41,48 110.08,47.78 109.44,47.33 108.78,46.91 108.1,46.52 L 108.06,46.58 Z M 108.06,46.58" />
        </g>
        <g id="ranaSideLeft6-group149">
            <path id="ranaSideLeft6-bezier148" stroke="none" fill="rgb(0, 0, 0)" d="M 104.81,42.02 C 105.44,42.6 106.06,43.18 106.67,43.77 106.97,44.07 107.23,44.4 107.56,44.65 107.9,44.9 108.25,45.13 108.67,45.32 L 108.73,45.27 C 108.61,44.81 108.36,44.44 108.07,44.1 107.79,43.77 107.41,43.55 107.05,43.31 106.34,42.81 105.61,42.36 104.85,41.95 L 104.81,42.02 Z M 104.81,42.02" />
        </g>
        <g id="ranaSideLeft6-group150">
            <path id="ranaSideLeft6-bezier149" stroke="none" fill="rgb(0, 0, 0)" d="M 107.75,42.6 C 108.44,43.03 109.12,43.46 109.78,43.9 110.11,44.12 110.41,44.39 110.76,44.56 111.12,44.72 111.49,44.87 111.93,44.95 L 111.98,44.89 C 111.78,44.49 111.48,44.18 111.16,43.92 110.84,43.66 110.44,43.53 110.07,43.37 109.32,43.04 108.56,42.76 107.78,42.53 L 107.75,42.6 Z M 107.75,42.6" />
        </g>
        <g id="ranaSideLeft6-group151">
            <path id="ranaSideLeft6-bezier150" stroke="none" fill="rgb(0, 0, 0)" d="M 109.28,41.31 C 109.94,41.19 110.61,41.16 111.24,41.23 111.56,41.27 111.84,41.39 112.14,41.41 112.44,41.44 112.73,41.48 113.12,41.52 L 113.16,41.46 C 113.01,41.09 112.68,40.84 112.34,40.69 111.98,40.54 111.6,40.59 111.24,40.63 110.53,40.7 109.86,40.91 109.25,41.24 L 109.28,41.31 Z M 109.28,41.31" />
        </g>
        <g id="ranaSideLeft6-group152">
            <path id="ranaSideLeft6-bezier151" stroke="none" fill="rgb(0, 0, 0)" d="M 8.56,51.42 C 8.82,51.35 9.06,51.21 9.25,50.97 9.35,50.86 9.47,50.71 9.44,50.54 9.41,50.37 9.3,50.2 9.07,50.14 L 9,50.16 C 8.83,50.33 8.76,50.4 8.7,50.47 8.64,50.53 8.71,50.62 8.7,50.72 8.69,50.91 8.62,51.14 8.51,51.37 L 8.56,51.42 Z M 8.56,51.42" />
        </g>
        <g id="ranaSideLeft6-group153">
            <path id="ranaSideLeft6-bezier152" stroke="none" fill="rgb(0, 0, 0)" d="M 51.33,34.9 C 52.54,35.13 53.71,35.57 54.77,36.16 55.29,36.46 55.75,36.85 56.25,37.18 56.75,37.5 57.22,37.86 57.77,38.22 L 57.83,38.17 C 57.6,37.55 57.19,37.02 56.71,36.59 56.23,36.14 55.62,35.87 55.03,35.62 53.85,35.12 52.59,34.84 51.33,34.82 L 51.33,34.9 Z M 51.33,34.9" />
        </g>
        <g id="ranaSideLeft6-group154">
            <path id="ranaSideLeft6-bezier153" stroke="none" fill="rgb(0, 0, 0)" d="M 58.49,35.48 C 59.94,35.8 61.36,36.22 62.71,36.78 63.38,37.08 64.01,37.44 64.64,37.77 65.27,38.09 65.87,38.45 66.46,38.92 L 66.53,38.88 C 66.25,38.14 65.66,37.56 65.02,37.12 64.38,36.68 63.64,36.44 62.92,36.22 61.47,35.77 59.99,35.51 58.5,35.41 L 58.49,35.48 Z M 58.49,35.48" />
        </g>
        <g id="ranaSideLeft6-group155">
            <path id="ranaSideLeft6-bezier154" stroke="none" fill="rgb(0, 0, 0)" d="M 60.98,37.56 C 62,38.19 62.98,38.87 63.9,39.6 64.35,39.98 64.75,40.41 65.19,40.77 65.63,41.14 66.05,41.49 66.46,41.96 L 66.53,41.93 C 66.49,41.28 66.12,40.7 65.72,40.23 65.3,39.76 64.76,39.44 64.25,39.12 63.22,38.47 62.13,37.93 61.01,37.49 L 60.98,37.56 Z M 60.98,37.56" />
        </g>
        <g id="ranaSideLeft6-group156">
            <path id="ranaSideLeft6-bezier155" stroke="none" fill="rgb(0, 0, 0)" d="M 68.89,39.77 C 69.69,40.48 70.43,41.26 71.11,42.07 71.44,42.48 71.72,42.93 72.07,43.32 72.42,43.71 72.77,44.09 73.21,44.46 L 73.28,44.43 C 73.2,43.85 72.96,43.34 72.67,42.87 72.37,42.39 71.95,42.03 71.55,41.66 70.74,40.91 69.87,40.25 68.93,39.7 L 68.89,39.77 Z M 68.89,39.77" />
        </g>
        <g id="ranaSideLeft6-group157">
            <path id="ranaSideLeft6-bezier156" stroke="none" fill="rgb(0, 0, 0)" d="M 71.99,40.77 C 73.01,41.57 74.1,42.27 75.26,42.86 75.84,43.15 76.43,43.46 77.08,43.6 77.73,43.72 78.43,43.77 79.08,43.56 L 79.08,43.49 C 78.45,43.28 77.87,43.09 77.29,42.87 76.71,42.66 76.1,42.52 75.5,42.31 74.32,41.86 73.16,41.32 72.04,40.7 L 71.99,40.77 Z M 71.99,40.77" />
        </g>
        <g id="ranaSideLeft6-group158">
            <path id="ranaSideLeft6-bezier157" stroke="none" fill="rgb(0, 0, 0)" d="M 79.06,42.6 C 80.42,43.29 81.76,44 83.07,44.73 83.73,45.11 84.35,45.53 85.01,45.87 85.65,46.24 86.38,46.5 86.88,47.02 L 86.95,47 C 86.89,46.57 86.57,46.26 86.31,45.98 86.03,45.69 85.71,45.46 85.4,45.23 84.76,44.79 84.04,44.51 83.34,44.2 81.95,43.58 80.53,43.03 79.09,42.54 L 79.06,42.6 Z M 79.06,42.6" />
        </g>
        <g id="ranaSideLeft6-group159">
            <path id="ranaSideLeft6-bezier158" stroke="none" fill="rgb(0, 0, 0)" d="M 83.82,42.79 C 84.34,43.14 84.84,43.65 85.36,44.07 85.88,44.51 86.41,44.93 86.96,45.33 87.51,45.74 88.07,46.16 88.73,46.41 89.37,46.65 90.14,46.83 90.83,46.58 L 90.82,46.51 C 90.16,46.34 89.61,46.04 89.04,45.73 88.48,45.42 87.87,45.16 87.29,44.83 86.71,44.5 86.14,44.14 85.58,43.77 84.99,43.43 84.48,43.01 83.83,42.71 L 83.82,42.79 Z M 83.82,42.79" />
        </g>
        <g id="ranaSideLeft6-group160">
            <path id="ranaSideLeft6-bezier159" stroke="none" fill="rgb(0, 0, 0)" d="M 87.9,44.05 C 88.92,44.36 89.93,44.68 90.92,45.02 91.41,45.2 91.89,45.43 92.38,45.56 92.88,45.69 93.38,45.77 93.89,45.95 L 93.94,45.9 C 93.65,45.36 93.12,45.09 92.64,44.85 92.14,44.62 91.6,44.55 91.08,44.44 90.03,44.23 88.98,44.08 87.92,43.98 L 87.9,44.05 Z M 87.9,44.05" />
        </g>
        <g id="ranaSideLeft6-group161">
            <path id="ranaSideLeft6-bezier160" stroke="none" fill="rgb(0, 0, 0)" d="M 82.98,38.94 C 84.29,39.56 85.59,40.18 86.88,40.82 87.52,41.15 88.14,41.53 88.8,41.8 89.46,42.08 90.12,42.33 90.8,42.6 L 90.85,42.54 C 90.39,41.93 89.76,41.51 89.13,41.13 88.5,40.76 87.8,40.53 87.12,40.28 85.77,39.75 84.39,39.29 83.01,38.87 L 82.98,38.94 Z M 82.98,38.94" />
        </g>
        <g id="ranaSideLeft6-group162">
            <path id="ranaSideLeft6-bezier161" stroke="none" fill="rgb(0, 0, 0)" d="M 92.15,41.52 L 96,42.72 C 96.64,42.92 97.26,43.18 97.91,43.33 98.56,43.47 99.21,43.59 99.89,43.67 L 99.93,43.61 C 99.39,43.14 98.75,42.86 98.12,42.61 97.49,42.37 96.81,42.27 96.15,42.14 94.83,41.86 93.5,41.63 92.17,41.45 L 92.15,41.52 Z M 92.15,41.52" />
        </g>
        <g id="ranaSideLeft6-group163">
            <path id="ranaSideLeft6-bezier162" stroke="none" fill="rgb(0, 0, 0)" d="M 99.35,41.24 C 100.47,41.55 101.56,41.91 102.6,42.35 103.12,42.58 103.6,42.87 104.08,43.1 104.57,43.35 105.03,43.57 105.4,44.03 L 105.47,44.01 C 105.48,43.34 104.95,42.81 104.47,42.46 103.96,42.1 103.37,41.94 102.81,41.78 101.67,41.45 100.52,41.26 99.37,41.17 L 99.35,41.24 Z M 99.35,41.24" />
        </g>
        <g id="ranaSideLeft6-group164">
            <path id="ranaSideLeft6-bezier163" stroke="none" fill="rgb(0, 0, 0)" d="M 106.32,37.56 C 107.4,37.79 108.48,38.02 109.54,38.28 110.07,38.42 110.58,38.61 111.11,38.7 L 112.72,38.93 112.76,38.87 C 112.37,38.41 111.82,38.16 111.3,37.97 110.76,37.78 110.2,37.75 109.64,37.69 108.54,37.56 107.44,37.5 106.33,37.49 L 106.32,37.56 Z M 106.32,37.56" />
        </g>
        <g id="ranaSideLeft6-group165">
            <path id="ranaSideLeft6-bezier164" stroke="none" fill="rgb(0, 0, 0)" d="M 104,31.9 C 105.21,31.98 106.42,32.06 107.62,32.17 108.22,32.23 108.81,32.35 109.41,32.36 110,32.38 110.59,32.33 111.18,32.42 L 111.22,32.36 C 111,32.1 110.69,31.97 110.39,31.85 110.09,31.74 109.79,31.67 109.48,31.61 108.87,31.5 108.25,31.55 107.64,31.57 106.42,31.59 105.2,31.68 103.99,31.82 L 104,31.9 Z M 104,31.9" />
        </g>
        <g id="ranaSideLeft6-group166">
            <path id="ranaSideLeft6-bezier165" stroke="none" fill="rgb(0, 0, 0)" d="M 98.64,27.12 C 99.6,26.64 100.58,26.19 101.56,25.79 102.06,25.6 102.57,25.46 103.04,25.24 L 104.48,24.56 104.47,24.49 C 103.91,24.31 103.32,24.4 102.79,24.54 102.24,24.68 101.77,24.98 101.3,25.25 100.35,25.78 99.45,26.39 98.6,27.06 L 98.64,27.12 Z M 98.64,27.12" />
        </g>
        <g id="ranaSideLeft6-group167">
            <path id="ranaSideLeft6-bezier166" stroke="none" fill="rgb(0, 0, 0)" d="M 91.39,21.81 L 94.7,20.38 C 95.26,20.15 95.83,19.97 96.35,19.69 96.88,19.42 97.38,19.08 97.91,18.81 L 97.91,18.74 C 97.25,18.61 96.63,18.82 96.06,19 95.48,19.2 94.96,19.54 94.44,19.84 93.38,20.44 92.36,21.07 91.35,21.74 L 91.39,21.81 Z M 91.39,21.81" />
        </g>
        <g id="ranaSideLeft6-group168">
            <path id="ranaSideLeft6-bezier167" stroke="none" fill="rgb(0, 0, 0)" d="M 83.02,18.8 C 84.01,18.03 84.98,17.22 85.9,16.36 86.37,15.94 86.86,15.53 87.24,15.01 87.43,14.75 87.61,14.49 87.75,14.19 87.88,13.89 88.07,13.56 87.95,13.18 L 87.88,13.2 C 87.62,13.7 87.08,14.08 86.67,14.53 86.24,14.96 85.88,15.47 85.47,15.95 84.65,16.88 83.81,17.82 82.97,18.75 L 83.02,18.8 Z M 83.02,18.8" />
        </g>
        <g id="ranaSideLeft6-group169">
            <path id="ranaSideLeft6-bezier168" stroke="none" fill="rgb(0, 0, 0)" d="M 74.85,16.01 C 75.7,15.42 76.52,14.78 77.3,14.09 77.69,13.75 78.12,13.43 78.43,13 78.73,12.57 79.01,12.1 79.11,11.55 L 79.05,11.51 C 78.61,11.83 78.23,12.16 77.86,12.51 77.49,12.85 77.21,13.28 76.87,13.67 76.2,14.44 75.51,15.2 74.8,15.96 L 74.85,16.01 Z M 74.85,16.01" />
        </g>
        <g id="ranaSideLeft6-group170">
            <path id="ranaSideLeft6-bezier169" stroke="none" fill="rgb(0, 0, 0)" d="M 66.52,16.02 C 67.45,15.52 68.35,14.95 69.19,14.28 69.61,13.95 70.06,13.63 70.37,13.16 70.66,12.71 70.97,12.11 70.78,11.53 L 70.71,11.53 C 70.48,12.01 70.13,12.33 69.79,12.69 69.44,13.04 69.14,13.46 68.79,13.84 68.06,14.58 67.28,15.28 66.47,15.95 L 66.52,16.02 Z M 66.52,16.02" />
        </g>
        <g id="ranaSideLeft6-group171">
            <path id="ranaSideLeft6-bezier170" stroke="none" fill="rgb(0, 0, 0)" d="M 63.77,16.47 C 64.48,15.84 65.13,15.13 65.68,14.34 65.96,13.94 66.27,13.53 66.38,13.02 66.49,12.54 66.49,11.91 66.11,11.51 L 66.04,11.54 C 66.01,12.03 65.84,12.39 65.67,12.79 65.49,13.18 65.36,13.61 65.17,14.03 64.76,14.85 64.26,15.65 63.72,16.42 L 63.77,16.47 Z M 63.77,16.47" />
        </g>
        <g id="ranaSideLeft6-group172">
            <path id="ranaSideLeft6-bezier171" stroke="none" fill="rgb(0, 0, 0)" d="M 58.52,16.8 C 59.19,16.05 59.87,15.31 60.55,14.59 60.9,14.24 61.28,13.92 61.59,13.55 61.9,13.17 62.17,12.78 62.51,12.4 L 62.48,12.33 C 61.91,12.36 61.45,12.7 61.05,13.02 60.66,13.35 60.38,13.79 60.09,14.21 59.49,15.03 58.96,15.88 58.46,16.76 L 58.52,16.8 Z M 58.52,16.8" />
        </g>
        <g id="ranaSideLeft6-group173">
            <path id="ranaSideLeft6-bezier172" stroke="none" fill="rgb(0, 0, 0)" d="M 51.35,17.14 C 52.7,16.33 54,15.43 55.23,14.44 55.85,13.94 56.49,13.45 56.99,12.81 57.23,12.48 57.47,12.14 57.64,11.76 57.8,11.39 57.94,10.94 57.84,10.53 L 57.76,10.53 C 57.51,11.26 56.94,11.76 56.42,12.31 55.89,12.85 55.39,13.44 54.83,13.99 53.71,15.06 52.52,16.09 51.31,17.08 L 51.35,17.14 Z M 51.35,17.14" />
        </g>
        <g id="ranaSideLeft6-group174">
            <path id="ranaSideLeft6-bezier173" stroke="none" fill="rgb(0, 0, 0)" d="M 47.96,15.05 C 48.66,14.41 49.34,13.75 49.99,13.05 50.32,12.71 50.68,12.38 50.93,11.96 51.15,11.54 51.42,11.1 51.37,10.53 L 51.29,10.52 C 50.98,10.87 50.62,11.17 50.32,11.52 50.01,11.87 49.79,12.28 49.52,12.67 L 47.9,15 47.96,15.05 Z M 47.96,15.05" />
        </g>
        <g id="ranaSideLeft6-group175">
            <path id="ranaSideLeft6-bezier174" stroke="none" fill="rgb(0, 0, 0)" d="M 42.98,16.81 L 45.53,15.08 C 45.96,14.8 46.42,14.56 46.8,14.24 47.19,13.92 47.54,13.55 47.94,13.23 L 47.93,13.16 C 47.33,13.11 46.84,13.38 46.38,13.62 45.92,13.88 45.55,14.25 45.16,14.6 44.39,15.28 43.64,16 42.93,16.75 L 42.98,16.81 Z M 42.98,16.81" />
        </g>
        <g id="ranaSideLeft6-group176">
            <path id="ranaSideLeft6-bezier175" stroke="none" fill="rgb(0, 0, 0)" d="M 40.81,16.47 C 41.4,15.91 41.79,15.18 42.07,14.42 42.2,14.04 42.36,13.65 42.35,13.23 42.35,12.83 42.28,12.41 42.07,12.03 L 42,12.03 C 41.8,12.42 41.7,12.79 41.61,13.15 41.52,13.52 41.54,13.89 41.48,14.27 41.35,15 41.15,15.75 40.76,16.42 L 40.81,16.47 Z M 40.81,16.47" />
        </g>
        <g id="ranaSideLeft6-group177">
            <path id="ranaSideLeft6-bezier176" stroke="none" fill="rgb(0, 0, 0)" d="M 35.1,19.55 C 36.02,18.81 36.89,18.02 37.7,17.15 38.11,16.72 38.54,16.3 38.84,15.76 39.12,15.24 39.39,14.63 39.32,13.99 L 39.25,13.98 C 38.92,14.48 38.57,14.9 38.22,15.35 37.86,15.79 37.58,16.29 37.24,16.77 36.55,17.7 35.81,18.61 35.05,19.5 L 35.1,19.55 Z M 35.1,19.55" />
        </g>
        <g id="ranaSideLeft6-group178">
            <path id="ranaSideLeft6-bezier177" stroke="none" fill="rgb(0, 0, 0)" d="M 34.78,17.12 C 35.01,16.48 35.18,15.83 35.29,15.16 35.35,14.82 35.44,14.47 35.36,14.12 35.28,13.78 35.14,13.38 34.78,13.17 L 34.71,13.21 34.61,14.18 C 34.59,14.48 34.66,14.8 34.69,15.12 34.72,15.77 34.72,16.44 34.71,17.1 L 34.78,17.12 Z M 34.78,17.12" />
        </g>
        <g id="ranaSideLeft6-group179">
            <path id="ranaSideLeft6-bezier178" stroke="none" fill="rgb(0, 0, 0)" d="M 31.58,21.34 C 32.23,20.46 32.74,19.48 33.07,18.4 33.23,17.87 33.39,17.31 33.34,16.73 33.28,16.15 33.09,15.57 32.7,15.14 L 32.63,15.16 C 32.63,15.74 32.63,16.23 32.59,16.74 32.54,17.24 32.56,17.75 32.48,18.27 32.31,19.29 31.97,20.32 31.52,21.3 L 31.58,21.34 Z M 31.58,21.34" />
        </g>
        <g id="ranaSideLeft6-group180">
            <path id="ranaSideLeft6-bezier179" stroke="none" fill="rgb(0, 0, 0)" d="M 28.43,20.31 C 29.13,19.97 29.8,19.54 30.39,19 30.68,18.73 31.01,18.45 31.17,18.05 31.33,17.66 31.4,17.18 31.2,16.78 L 31.12,16.78 C 30.91,17.15 30.72,17.41 30.51,17.69 30.31,17.96 30.16,18.29 29.94,18.59 29.5,19.18 28.96,19.73 28.39,20.25 L 28.43,20.31 Z M 28.43,20.31" />
        </g>
        <g id="ranaSideLeft6-group181">
            <path id="ranaSideLeft6-bezier180" stroke="none" fill="rgb(0, 0, 0)" d="M 25.34,23.36 C 25.56,22.41 25.86,21.47 26.26,20.62 26.47,20.19 26.75,19.82 26.97,19.43 27.19,19.03 27.43,18.67 27.76,18.27 L 27.73,18.2 C 27.19,18.25 26.7,18.59 26.36,18.99 26.01,19.4 25.85,19.91 25.7,20.4 25.4,21.37 25.27,22.37 25.27,23.36 L 25.34,23.36 Z M 25.34,23.36" />
        </g>
        <g id="ranaSideLeft6-group182">
            <path id="ranaSideLeft6-bezier181" stroke="none" fill="rgb(0, 0, 0)" d="M 84.77,21.35 C 85.89,20.54 86.97,19.66 87.98,18.7 88.49,18.22 89.02,17.75 89.42,17.16 89.8,16.57 90.16,15.9 90.2,15.16 L 90.13,15.14 C 89.71,15.71 89.27,16.19 88.82,16.7 88.37,17.2 87.99,17.76 87.55,18.28 86.65,19.32 85.7,20.32 84.72,21.29 L 84.77,21.35 Z M 84.77,21.35" />
        </g>
        <g id="ranaSideLeft6-group183">
            <path id="ranaSideLeft6-bezier182" stroke="none" fill="rgb(0, 0, 0)" d="M 95.23,24.07 C 95.87,23.65 96.56,23.34 97.26,23.11 97.62,23 97.98,22.96 98.32,22.82 98.66,22.68 99,22.55 99.36,22.31 L 99.36,22.24 C 98.96,22.07 98.54,22.04 98.14,22.1 97.73,22.15 97.37,22.36 97.02,22.55 96.32,22.93 95.69,23.42 95.18,24.02 L 95.23,24.07 Z M 95.23,24.07" />
        </g>
        <g id="ranaSideLeft6-group184">
            <path id="ranaSideLeft6-bezier183" stroke="none" fill="rgb(0, 0, 0)" d="M 96.9,29.56 C 98.47,29.22 100.05,28.92 101.62,28.67 102.41,28.56 103.2,28.51 103.98,28.39 104.75,28.27 105.51,28.12 106.31,28.14 L 106.34,28.07 C 105.59,27.64 104.71,27.63 103.9,27.64 103.08,27.67 102.29,27.89 101.5,28.08 99.93,28.46 98.39,28.94 96.88,29.49 L 96.9,29.56 Z M 96.9,29.56" />
        </g>
        <g id="ranaSideLeft6-group185">
            <path id="ranaSideLeft6-bezier184" stroke="none" fill="rgb(0, 0, 0)" d="M 102.39,34.19 C 103.5,34.54 104.62,34.84 105.77,35.06 106.34,35.18 106.92,35.32 107.52,35.31 108.11,35.29 108.73,35.21 109.27,34.9 L 109.26,34.82 107.56,34.56 C 107,34.48 106.43,34.5 105.85,34.46 104.71,34.38 103.56,34.26 102.41,34.12 L 102.39,34.19 Z M 102.39,34.19" />
        </g>
        <g id="ranaSideLeft6-group186">
            <path id="ranaSideLeft6-bezier185" stroke="none" fill="rgb(0, 0, 0)" d="M 68.89,37.21 C 70.09,37.98 71.37,38.63 72.7,39.17 73.37,39.44 74.04,39.73 74.77,39.84 75.49,39.94 76.24,39.97 76.95,39.77 L 76.95,39.7 C 76.25,39.48 75.59,39.3 74.93,39.11 74.26,38.91 73.58,38.79 72.9,38.6 71.56,38.21 70.23,37.72 68.93,37.14 L 68.89,37.21 Z M 68.89,37.21" />
        </g>
        <g id="ranaSideLeft6-group187">
            <path id="ranaSideLeft6-bezier186" stroke="none" fill="rgb(0, 0, 0)" d="M 74.84,17.89 C 76.19,17.36 77.54,16.85 78.91,16.4 79.59,16.19 80.29,16.03 80.96,15.8 81.63,15.57 82.27,15.33 82.99,15.19 L 83,15.11 C 82.27,14.84 81.48,14.94 80.76,15.08 80.03,15.22 79.36,15.55 78.7,15.84 77.36,16.43 76.07,17.09 74.81,17.83 L 74.84,17.89 Z M 74.84,17.89" />
        </g>
        <g id="ranaSideLeft6-group188">
            <path id="ranaSideLeft6-bezier187" stroke="none" fill="rgb(0, 0, 0)" d="M 81.25,27.13 C 83,26.85 84.75,26.52 86.48,26.13 87.35,25.93 88.23,25.77 89.06,25.45 89.48,25.29 89.9,25.12 90.29,24.9 90.69,24.68 91.1,24.45 91.4,24.07 L 91.35,24.02 C 90.54,24.35 89.67,24.5 88.83,24.74 87.99,24.96 87.16,25.28 86.32,25.55 84.64,26.07 82.94,26.57 81.24,27.05 L 81.25,27.13 Z M 81.25,27.13" />
        </g>
        <g id="ranaSideLeft6-group189">
            <path id="ranaSideLeft6-bezier188" stroke="none" fill="rgb(0, 0, 0)" d="M 87.46,28.9 L 91.08,28.05 C 91.69,27.92 92.3,27.85 92.89,27.66 93.47,27.5 94.03,27.26 94.63,27.13 L 94.65,27.05 C 94.34,26.89 94,26.88 93.68,26.87 93.35,26.85 93.04,26.89 92.72,26.93 92.1,27.02 91.51,27.26 90.92,27.47 89.74,27.87 88.58,28.33 87.44,28.82 L 87.46,28.9 Z M 87.46,28.9" />
        </g>
        <g id="ranaSideLeft6-group190">
            <path id="ranaSideLeft6-bezier189" stroke="none" fill="rgb(0, 0, 0)" d="M 92.17,34.19 C 92.77,34.12 93.36,33.97 93.95,33.83 94.53,33.67 95.11,33.49 95.68,33.3 96.26,33.11 96.85,32.94 97.38,32.61 97.64,32.44 97.9,32.26 98.13,32.03 98.35,31.81 98.58,31.54 98.65,31.21 L 98.59,31.18 C 98.1,31.52 97.56,31.7 97.03,31.94 96.49,32.17 95.99,32.48 95.46,32.75 94.92,33 94.38,33.25 93.82,33.47 93.28,33.71 92.72,33.95 92.15,34.12 L 92.17,34.19 Z M 92.17,34.19" />
        </g>
        <g id="ranaSideLeft6-group191">
            <path id="ranaSideLeft6-bezier190" stroke="none" fill="rgb(0, 0, 0)" d="M 98.64,38.49 C 99.76,37.98 100.89,37.51 102.03,37.08 102.61,36.88 103.19,36.74 103.74,36.51 104.3,36.29 104.82,36.05 105.43,35.9 L 105.44,35.82 C 104.81,35.56 104.13,35.66 103.52,35.8 102.9,35.94 102.35,36.25 101.79,36.54 100.68,37.09 99.62,37.73 98.6,38.42 L 98.64,38.49 Z M 98.64,38.49" />
        </g>
        <g id="ranaSideLeft6-group192">
            <path id="ranaSideLeft6-bezier191" stroke="none" fill="rgb(0, 0, 0)" d="M 103.24,39.73 C 104.15,39.9 105.07,40.02 106.01,40.07 106.47,40.11 106.95,40.17 107.42,40.08 107.87,39.97 108.4,39.84 108.73,39.39 L 108.68,39.33 C 108.22,39.38 107.79,39.32 107.34,39.33 106.9,39.33 106.45,39.43 106,39.47 105.09,39.55 104.17,39.61 103.25,39.66 L 103.24,39.73 Z M 103.24,39.73" />
        </g>
        <g id="ranaSideLeft6-group193">
            <path id="ranaSideLeft6-bezier192" stroke="none" fill="rgb(0, 0, 0)" d="M 86.3,36.48 C 87.84,36.83 89.39,37.15 90.95,37.42 91.73,37.57 92.51,37.75 93.3,37.78 94.1,37.8 94.91,37.81 95.71,37.56 L 95.7,37.49 C 94.92,37.33 94.16,37.15 93.38,37.03 92.61,36.9 91.82,36.89 91.03,36.83 L 86.31,36.41 86.3,36.48 Z M 86.3,36.48" />
        </g>
        <g id="ranaSideLeft6-group194">
            <path id="ranaSideLeft6-bezier193" stroke="none" fill="rgb(0, 0, 0)" d="M 74.82,34.59 C 75.25,34.92 75.6,35.43 75.99,35.86 76.37,36.31 76.76,36.75 77.17,37.18 77.57,37.62 77.96,38.08 78.47,38.41 78.73,38.57 78.99,38.73 79.29,38.84 79.59,38.94 79.92,39.03 80.24,38.94 L 80.25,38.86 C 79.73,38.6 79.36,38.19 78.93,37.82 78.51,37.43 78.03,37.11 77.58,36.74 77.13,36.37 76.69,35.99 76.25,35.6 75.79,35.24 75.4,34.8 74.83,34.52 L 74.82,34.59 Z M 74.82,34.59" />
        </g>
        <g id="ranaSideLeft6-group195">
            <path id="ranaSideLeft6-bezier194" stroke="none" fill="rgb(0, 0, 0)" d="M 80.83,33.56 C 82.33,33.41 83.8,33.2 85.27,33.03 86.01,32.95 86.76,32.92 87.48,32.79 88.21,32.67 88.92,32.46 89.65,32.43 L 89.67,32.36 C 89.32,32.13 88.92,32.1 88.54,32.06 88.15,32.02 87.77,32.03 87.4,32.04 86.64,32.08 85.91,32.27 85.18,32.43 L 82.99,32.93 80.82,33.49 80.83,33.56 Z M 80.83,33.56" />
        </g>
        <g id="ranaSideLeft6-group196">
            <path id="ranaSideLeft6-bezier195" stroke="none" fill="rgb(0, 0, 0)" d="M 78.93,30.64 C 79.76,30.3 80.58,29.97 81.41,29.67 81.83,29.53 82.26,29.44 82.64,29.25 83.04,29.08 83.39,28.86 83.82,28.72 L 83.84,28.64 C 83.38,28.36 82.85,28.46 82.4,28.54 81.95,28.65 81.56,28.9 81.16,29.12 80.37,29.56 79.62,30.05 78.89,30.58 L 78.93,30.64 Z M 78.93,30.64" />
        </g>
        <g id="ranaSideLeft6-group197">
            <path id="ranaSideLeft6-bezier196" stroke="none" fill="rgb(0, 0, 0)" d="M 78.93,25.06 C 79.9,24.76 80.88,24.49 81.85,24.26 82.34,24.16 82.84,24.12 83.3,24 83.78,23.88 84.21,23.73 84.73,23.73 L 84.76,23.66 C 84.33,23.25 83.7,23.23 83.19,23.25 82.65,23.29 82.16,23.5 81.68,23.69 80.71,24.05 79.79,24.49 78.9,24.99 L 78.93,25.06 Z M 78.93,25.06" />
        </g>
        <g id="ranaSideLeft6-group198">
            <path id="ranaSideLeft6-bezier197" stroke="none" fill="rgb(0, 0, 0)" d="M 74.85,22.81 C 75.73,22.18 76.62,21.57 77.52,21.02 77.98,20.75 78.46,20.53 78.89,20.25 79.33,19.99 79.72,19.67 80.23,19.56 L 80.26,19.49 C 80,19.31 79.66,19.31 79.37,19.35 79.08,19.39 78.81,19.48 78.54,19.59 78.02,19.81 77.6,20.18 77.18,20.53 76.32,21.21 75.54,21.96 74.8,22.75 L 74.85,22.81 Z M 74.85,22.81" />
        </g>
        <g id="ranaSideLeft6-group199">
            <path id="ranaSideLeft6-bezier198" stroke="none" fill="rgb(0, 0, 0)" d="M 65.52,20.31 C 66.69,19.66 67.83,18.96 68.94,18.19 69.5,17.81 70.08,17.45 70.55,16.95 70.79,16.7 71.02,16.44 71.21,16.15 71.39,15.86 71.58,15.53 71.61,15.16 L 71.54,15.14 C 71.1,15.63 70.56,15.98 70.05,16.4 69.53,16.8 69.07,17.28 68.57,17.71 67.56,18.57 66.52,19.42 65.47,20.25 L 65.52,20.31 Z M 65.52,20.31" />
        </g>
        <g id="ranaSideLeft6-group200">
            <path id="ranaSideLeft6-bezier199" stroke="none" fill="rgb(0, 0, 0)" d="M 35.78,25.84 C 37.17,25.3 38.57,24.8 39.98,24.35 40.69,24.14 41.41,23.98 42.09,23.75 42.79,23.54 43.45,23.28 44.2,23.2 L 44.21,23.12 C 43.47,22.79 42.65,22.9 41.91,23.03 41.15,23.17 40.46,23.49 39.77,23.79 38.39,24.37 37.05,25.04 35.75,25.77 L 35.78,25.84 Z M 35.78,25.84" />
        </g>
        <g id="ranaSideLeft6-group201">
            <path id="ranaSideLeft6-bezier200" stroke="none" fill="rgb(0, 0, 0)" d="M 33.68,23.39 C 34.78,22.84 35.85,22.23 36.88,21.56 37.4,21.22 37.95,20.91 38.39,20.46 38.61,20.23 38.82,20 39,19.72 39.16,19.45 39.35,19.14 39.32,18.78 L 39.25,18.77 C 38.89,19.23 38.36,19.53 37.9,19.9 37.42,20.25 36.99,20.68 36.53,21.07 35.59,21.84 34.62,22.59 33.64,23.33 L 33.68,23.39 Z M 33.68,23.39" />
        </g>
        <g id="ranaSideLeft6-group202">
            <path id="ranaSideLeft6-bezier201" stroke="none" fill="rgb(0, 0, 0)" d="M 41.43,21.17 L 45.04,19.52 C 45.64,19.26 46.26,19.04 46.84,18.73 47.41,18.42 47.96,18.07 48.54,17.75 L 48.53,17.68 C 47.82,17.6 47.15,17.83 46.53,18.04 45.89,18.28 45.33,18.65 44.76,18.98 43.61,19.65 42.49,20.36 41.39,21.1 L 41.43,21.17 Z M 41.43,21.17" />
        </g>
        <g id="ranaSideLeft6-group203">
            <path id="ranaSideLeft6-bezier202" stroke="none" fill="rgb(0, 0, 0)" d="M 49.35,21.81 C 50.41,21.22 51.45,20.58 52.44,19.88 52.94,19.53 53.47,19.2 53.89,18.74 54.3,18.28 54.7,17.76 54.86,17.13 L 54.8,17.09 53.38,18.19 C 52.91,18.56 52.51,19 52.07,19.41 51.17,20.21 50.25,20.98 49.31,21.75 L 49.35,21.81 Z M 49.35,21.81" />
        </g>
        <g id="ranaSideLeft6-group204">
            <path id="ranaSideLeft6-bezier203" stroke="none" fill="rgb(0, 0, 0)" d="M 43.22,26.81 C 44.48,26.31 45.74,25.82 47,25.36 47.63,25.14 48.28,24.98 48.89,24.72 49.51,24.49 50.09,24.15 50.73,24.08 L 50.76,24.01 C 50.43,23.8 50.04,23.82 49.69,23.83 49.33,23.85 48.99,23.93 48.66,24.01 47.98,24.18 47.38,24.51 46.77,24.81 45.54,25.4 44.35,26.05 43.19,26.75 L 43.22,26.81 Z M 43.22,26.81" />
        </g>
        <g id="ranaSideLeft6-group205">
            <path id="ranaSideLeft6-bezier204" stroke="none" fill="rgb(0, 0, 0)" d="M 44.76,29.66 C 45.17,29.78 45.51,29.66 45.88,29.63 46.25,29.58 46.61,29.51 46.97,29.45 47.69,29.3 48.4,29.12 49.11,28.93 49.82,28.75 50.55,28.58 51.22,28.25 51.55,28.08 51.88,27.91 52.19,27.68 52.48,27.45 52.84,27.21 52.95,26.79 L 52.88,26.76 C 52.34,27.17 51.59,27.3 50.93,27.56 50.26,27.78 49.61,28.1 48.93,28.36 48.25,28.62 47.57,28.86 46.88,29.08 46.53,29.2 46.19,29.31 45.84,29.41 45.5,29.5 45.11,29.64 44.81,29.61 L 44.76,29.66 Z M 44.76,29.66" />
        </g>
        <g id="ranaSideLeft6-group206">
            <path id="ranaSideLeft6-bezier205" stroke="none" fill="rgb(0, 0, 0)" d="M 51.32,30.65 C 52.52,31 53.71,31.36 54.9,31.74 55.49,31.93 56.06,32.18 56.65,32.32 57.25,32.47 57.85,32.57 58.47,32.71 L 58.51,32.64 C 58.06,32.14 57.46,31.85 56.88,31.61 56.29,31.37 55.66,31.28 55.05,31.16 53.82,30.91 52.58,30.72 51.34,30.57 L 51.32,30.65 Z M 51.32,30.65" />
        </g>
        <g id="ranaSideLeft6-group207">
            <path id="ranaSideLeft6-bezier206" stroke="none" fill="rgb(0, 0, 0)" d="M 49.34,26.29 C 50.65,25.84 51.94,25.35 53.2,24.78 53.84,24.51 54.49,24.26 55.07,23.86 55.36,23.66 55.65,23.45 55.9,23.19 56.15,22.94 56.43,22.67 56.53,22.29 L 56.46,22.26 C 55.93,22.67 55.29,22.9 54.69,23.21 54.09,23.51 53.53,23.9 52.93,24.25 51.74,24.92 50.53,25.58 49.31,26.22 L 49.34,26.29 Z M 49.34,26.29" />
        </g>
        <g id="ranaSideLeft6-group208">
            <path id="ranaSideLeft6-bezier207" stroke="none" fill="rgb(0, 0, 0)" d="M 53.89,21.1 C 55.12,20.64 56.36,20.2 57.61,19.81 58.23,19.62 58.87,19.5 59.48,19.29 60.09,19.1 60.67,18.84 61.31,18.81 L 61.34,18.74 C 61.04,18.53 60.66,18.48 60.32,18.47 59.97,18.46 59.63,18.5 59.29,18.56 58.62,18.68 58.01,18.98 57.4,19.25 56.18,19.77 55,20.37 53.85,21.03 L 53.89,21.1 Z M 53.89,21.1" />
        </g>
        <g id="ranaSideLeft6-group209">
            <path id="ranaSideLeft6-bezier208" stroke="none" fill="rgb(0, 0, 0)" d="M 57.61,25.42 C 58.87,25.06 60.1,24.65 61.31,24.15 61.92,23.91 62.55,23.69 63.1,23.31 63.38,23.12 63.65,22.92 63.89,22.67 64.12,22.43 64.37,22.15 64.44,21.79 L 64.38,21.76 C 63.88,22.16 63.29,22.38 62.73,22.67 62.16,22.94 61.62,23.3 61.06,23.61 59.92,24.21 58.76,24.79 57.59,25.35 L 57.61,25.42 Z M 57.61,25.42" />
        </g>
        <g id="ranaSideLeft6-group210">
            <path id="ranaSideLeft6-bezier209" stroke="none" fill="rgb(0, 0, 0)" d="M 68.94,22.8 C 69.63,22.19 70.34,21.61 71.06,21.08 71.43,20.82 71.83,20.62 72.17,20.35 72.52,20.08 72.84,19.82 73.25,19.56 L 73.24,19.49 C 72.73,19.34 72.21,19.51 71.78,19.72 71.34,19.93 71.01,20.29 70.68,20.62 70,21.28 69.41,21.99 68.88,22.75 L 68.94,22.8 Z M 68.94,22.8" />
        </g>
        <g id="ranaSideLeft6-group211">
            <path id="ranaSideLeft6-bezier210" stroke="none" fill="rgb(0, 0, 0)" d="M 59.83,27.13 C 61.1,26.99 62.35,26.81 63.6,26.57 64.22,26.45 64.86,26.37 65.46,26.13 66.04,25.88 66.67,25.6 67.1,25.06 L 67.05,25 C 66.44,25.17 65.84,25.26 65.23,25.41 64.63,25.55 64.05,25.79 63.45,25.99 62.25,26.35 61.04,26.71 59.82,27.05 L 59.83,27.13 Z M 59.83,27.13" />
        </g>
        <g id="ranaSideLeft6-group212">
            <path id="ranaSideLeft6-bezier211" stroke="none" fill="rgb(0, 0, 0)" d="M 70.01,28.72 C 71.18,28.4 72.35,28.1 73.51,27.81 74.1,27.68 74.69,27.59 75.26,27.41 75.82,27.23 76.36,27.01 76.95,26.82 L 76.95,26.74 C 76.33,26.53 75.68,26.6 75.08,26.68 74.47,26.78 73.9,27.02 73.34,27.24 72.19,27.66 71.08,28.13 69.98,28.65 L 70.01,28.72 Z M 70.01,28.72" />
        </g>
        <g id="ranaSideLeft6-group213">
            <path id="ranaSideLeft6-bezier212" stroke="none" fill="rgb(0, 0, 0)" d="M 67.66,32.15 C 68.36,32.24 69.05,32.13 69.74,32.06 70.42,31.96 71.11,31.83 71.79,31.69 72.46,31.55 73.16,31.44 73.8,31.17 74.44,30.88 75.11,30.57 75.57,29.98 L 75.52,29.92 C 74.87,30.15 74.21,30.27 73.56,30.45 72.91,30.63 72.28,30.9 71.63,31.11 70.98,31.32 70.33,31.52 69.67,31.69 69.01,31.86 68.34,32.06 67.67,32.08 L 67.66,32.15 Z M 67.66,32.15" />
        </g>
        <g id="ranaSideLeft6-group214">
            <path id="ranaSideLeft6-bezier213" stroke="none" fill="rgb(0, 0, 0)" d="M 61.35,31.23 C 62.46,30.76 63.56,30.27 64.66,29.76 65.2,29.51 65.77,29.29 66.28,28.96 66.78,28.62 67.27,28.25 67.68,27.76 L 67.64,27.7 C 67.03,27.84 66.46,28.05 65.91,28.3 65.37,28.55 64.88,28.91 64.37,29.23 63.34,29.86 62.32,30.5 61.31,31.16 L 61.35,31.23 Z M 61.35,31.23" />
        </g>
        <g id="ranaSideLeft6-group215">
            <path id="ranaSideLeft6-bezier214" stroke="none" fill="rgb(0, 0, 0)" d="M 95.85,54.77 C 95.32,55.08 94.82,55.43 94.34,55.84 94.12,56.04 93.88,56.29 93.71,56.54 93.58,56.71 93.33,56.79 93.06,56.86 92.51,56.97 91.9,56.94 91.29,57.09 90.71,57.24 90,57.45 89.64,58.04 L 89.69,58.09 C 90.26,57.87 90.82,57.89 91.41,57.83 92.01,57.78 92.61,57.65 93.23,57.43 93.53,57.32 93.9,57.16 94.11,56.82 94.25,56.55 94.42,56.33 94.61,56.1 94.99,55.64 95.43,55.22 95.89,54.83 L 95.85,54.77 Z M 95.85,54.77" />
        </g>
        <g id="ranaSideLeft6-group216">
            <path id="ranaSideLeft6-bezier215" stroke="none" fill="rgb(0, 0, 0)" d="M 45.08,59.41 C 44.57,59.3 44.06,59.21 43.56,59.14 43.3,59.1 43.05,59.02 42.8,59.07 42.54,59.12 42.29,59.2 42.04,59.41 L 42.04,59.48 C 42.29,59.68 42.54,59.77 42.8,59.82 43.05,59.87 43.3,59.78 43.56,59.74 44.06,59.68 44.57,59.59 45.08,59.48 L 45.08,59.41 Z M 45.08,59.41" />
        </g>
        <g id="ranaSideLeft6-group217">
            <path id="ranaSideLeft6-bezier216" stroke="none" fill="rgb(0, 0, 0)" d="M 15.37,33.55 C 15.63,32.14 15.83,30.71 15.97,29.27 16.04,28.56 16.15,27.83 16.09,27.1 16.05,26.74 16.01,26.37 15.91,26 15.8,25.66 15.71,25.24 15.35,25 L 15.3,25.06 C 15.49,25.69 15.34,26.42 15.34,27.12 15.3,27.82 15.36,28.53 15.37,29.25 15.37,30.67 15.33,32.11 15.29,33.54 L 15.37,33.55 Z M 15.37,33.55" />
        </g>
        <g id="ranaSideLeft6-group218">
            <path id="ranaSideLeft6-bezier217" stroke="none" fill="rgb(0, 0, 0)" d="M 18.91,32.69 C 19.35,31.64 19.76,30.59 20.11,29.51 20.29,28.97 20.5,28.43 20.57,27.86 20.6,27.57 20.62,27.28 20.59,26.98 20.57,26.69 20.53,26.37 20.36,26.1 L 20.29,26.12 C 20.18,26.67 19.97,27.18 19.83,27.71 19.68,28.24 19.63,28.8 19.53,29.36 19.31,30.46 19.07,31.56 18.83,32.66 L 18.91,32.69 Z M 18.91,32.69" />
        </g>
        <g id="ranaSideLeft6-group219">
            <path id="ranaSideLeft6-bezier218" stroke="none" fill="rgb(0, 0, 0)" d="M 21.11,31.22 C 21.59,30.82 22.07,30.42 22.55,30.05 22.79,29.86 23.07,29.72 23.26,29.5 23.46,29.27 23.64,29.04 23.8,28.71 L 23.77,28.65 C 23.39,28.62 23.07,28.76 22.79,28.92 22.51,29.09 22.33,29.37 22.13,29.62 21.72,30.1 21.37,30.62 21.05,31.17 L 21.11,31.22 Z M 21.11,31.22" />
        </g>
        <g id="ranaSideLeft6-group220">
            <path id="ranaSideLeft6-bezier219" stroke="none" fill="rgb(0, 0, 0)" d="M 18.91,28.49 C 18.79,27.21 18.59,25.92 18.3,24.65 18.15,24.02 18.03,23.37 17.72,22.77 17.41,22.2 17.03,21.55 16.35,21.29 L 16.31,21.35 C 16.66,21.89 16.82,22.47 17.03,23.06 17.23,23.65 17.5,24.22 17.72,24.82 18.14,26.03 18.5,27.26 18.83,28.51 L 18.91,28.49 Z M 18.91,28.49" />
        </g>
        <g id="ranaSideLeft6-group221">
            <path id="ranaSideLeft6-bezier220" stroke="none" fill="rgb(0, 0, 0)" d="M 21.68,26.27 C 22.08,25.05 22.42,23.82 22.69,22.55 22.83,21.93 22.99,21.29 22.98,20.63 22.97,20.3 22.95,19.97 22.86,19.63 22.77,19.32 22.67,18.92 22.31,18.75 L 22.27,18.81 C 22.47,19.35 22.28,19.98 22.23,20.59 22.15,21.2 22.15,21.83 22.1,22.46 21.97,23.72 21.8,24.98 21.61,26.25 L 21.68,26.27 Z M 21.68,26.27" />
        </g>
        <g id="ranaSideLeft6-group653">
            <path id="ranaSideLeft6-bezier651" stroke="none" fill="rgb(0, 0, 0)" d="M 102.74,54.81 C 102.9,55.63 103.09,56.45 103.47,57.24 103.57,57.43 103.68,57.63 103.84,57.81 103.98,58 104.28,58.13 104.44,58.19 104.68,58.33 104.72,58.63 104.52,58.82 104.33,59.02 103.97,59.09 103.62,59.07 103.22,59.05 102.79,59.04 102.37,59.06 101.53,59.11 100.7,59.19 99.87,59.41 L 99.87,59.48 C 100.7,59.68 101.54,59.76 102.37,59.81 102.79,59.83 103.19,59.83 103.62,59.81 104.09,59.78 104.63,59.66 104.99,59.21 105.16,58.99 105.25,58.67 105.18,58.37 105.1,58.07 104.9,57.86 104.62,57.74 104.39,57.66 104.28,57.64 104.15,57.51 104.02,57.38 103.9,57.22 103.79,57.06 103.36,56.38 103.07,55.58 102.82,54.79 L 102.74,54.81 Z M 102.74,54.81" />
        </g>
        <g id="ranaSideLeft6-group655">
            <path id="ranaSideLeft6-bezier653" stroke="none" fill="rgb(0, 0, 0)" d="M 99.55,57.47 C 99.9,57.34 100.22,57.11 100.45,56.75 100.57,56.58 100.71,56.36 100.67,56.13 100.63,55.9 100.48,55.69 100.23,55.6 L 100.16,55.62 C 100.02,55.86 99.98,55.99 99.92,56.11 99.86,56.23 99.92,56.36 99.9,56.51 99.85,56.8 99.71,57.12 99.51,57.41 L 99.55,57.47 Z M 99.55,57.47" />
        </g>
    </g>
</svg>
