<?xml version="1.0" encoding="UTF-8"?>
<!DOCTYPE svg PUBLIC "-//W3C//DTD SVG 1.1//EN" "http://www.w3.org/Graphics/SVG/1.1/DTD/svg11.dtd">
<svg version="1.1" xmlns="http://www.w3.org/2000/svg" xmlns:xlink="http://www.w3.org/1999/xlink" width="80" height="70"  xml:space="preserve" id="ranaCurledSide">
    <!-- Generated by PaintCode - http://www.paintcodeapp.com -->
    <g id="ranaCurledSide-group">
        <g id="ranaCurledSide-group2">
            <path id="ranaCurledSide-bezier" stroke="none" fill="rgb(0, 0, 0)" d="M 18.83,23.2 C 19.68,23.35 20.54,23.11 21.17,22.61 21.49,22.35 21.73,22.02 22,21.72 22.28,21.41 22.52,21.07 22.82,20.74 L 22.87,20.76 C 22.82,21.21 22.64,21.62 22.4,22.02 22.16,22.4 21.79,22.7 21.4,22.94 20.63,23.43 19.64,23.55 18.82,23.25 L 18.83,23.2 Z M 18.83,23.2" />
        </g>
        <g id="ranaCurledSide-group3">
            <path id="ranaCurledSide-bezier2" stroke="none" fill="rgb(0, 0, 0)" d="M 30.04,14.27 C 30.32,13.92 30.23,13.45 30.06,13.09 29.88,12.72 29.6,12.43 29.24,12.26 28.88,12.08 28.49,12.04 28.13,11.99 27.76,11.94 27.39,11.97 26.92,12.11 L 26.88,12.06 C 27.08,11.59 27.6,11.28 28.13,11.24 28.68,11.19 29.17,11.45 29.57,11.75 29.98,12.04 30.29,12.49 30.41,12.97 30.53,13.43 30.48,14.01 30.1,14.32 L 30.04,14.27 Z M 30.04,14.27" />
        </g>
        <g id="ranaCurledSide-group4">
            <path id="ranaCurledSide-bezier3" stroke="none" fill="rgb(0, 0, 0)" d="M 28.37,12.53 C 28.55,12.71 28.72,12.88 28.88,13.04 28.97,13.11 29.09,13.15 29.1,13.24 29.13,13.33 29.05,13.41 29.09,13.63 L 29.08,13.7 C 28.89,13.89 28.63,13.79 28.52,13.71 28.38,13.62 28.38,13.45 28.35,13.32 28.29,13.07 28.28,12.81 28.3,12.55 L 28.37,12.53 Z M 28.37,12.53" />
        </g>
        <g id="ranaCurledSide-group5">
            <path id="ranaCurledSide-bezier4" stroke="none" fill="rgb(0, 0, 0)" d="M 26.4,12.56 C 25.63,14.06 24.35,15.24 22.94,16.15 21.51,17.07 19.87,17.59 18.29,18.07 16.7,18.56 15.09,19.08 13.38,19.22 12.53,19.26 11.66,19.26 10.81,19.04 9.97,18.83 9.17,18.39 8.62,17.74 L 8.68,17.68 C 10.05,18.66 11.72,18.7 13.31,18.47 14.91,18.25 16.52,17.9 18.13,17.49 19.74,17.08 21.32,16.65 22.75,15.83 24.17,15.03 25.49,13.95 26.33,12.53 L 26.4,12.56 Z M 26.4,12.56" />
        </g>
        <g id="ranaCurledSide-group6">
            <path id="ranaCurledSide-bezier5" stroke="none" fill="rgb(0, 0, 0)" d="M 21.5,19.8 C 21.28,19.57 20.91,19.74 20.67,19.88 20.42,20.05 20.19,20.26 19.98,20.47 19.77,20.69 19.59,20.92 19.45,21.17 19.3,21.4 19.27,21.76 19.32,21.72 19.29,21.72 19.61,21.69 19.82,21.54 20.05,21.41 20.29,21.25 20.51,21.07 20.74,20.89 20.98,20.75 21.21,20.54 21.41,20.35 21.66,20.05 21.5,19.8 Z M 21.55,19.74 C 21.78,20.05 21.64,20.44 21.55,20.75 21.43,21.08 21.25,21.4 21.01,21.64 20.76,21.87 20.47,22.08 20.13,22.22 19.96,22.28 19.79,22.34 19.58,22.36 19.48,22.36 19.37,22.37 19.24,22.34 19.13,22.33 18.92,22.21 18.86,22.12 18.66,21.84 18.73,21.57 18.78,21.4 18.84,21.21 18.93,21.06 19.03,20.91 19.23,20.63 19.48,20.4 19.73,20.19 20,20 20.29,19.84 20.61,19.74 20.9,19.65 21.27,19.52 21.55,19.74 Z M 21.55,19.74" />
        </g>
        <g id="ranaCurledSide-group7">
            <path id="ranaCurledSide-bezier6" stroke="none" fill="rgb(0, 0, 0)" d="M 29.92,15.16 C 30.01,15.87 29.96,16.61 29.7,17.3 29.58,17.66 29.33,17.94 29.26,18.24 29.16,18.56 29.12,18.91 29.08,19.25 29.03,19.94 29.08,20.63 29.12,21.32 29.13,21.66 29.17,22 29.23,22.34 29.29,22.66 29.35,23.02 29.62,23.23 L 29.61,23.27 C 29.21,23.17 29.03,22.76 28.89,22.44 28.75,22.09 28.68,21.73 28.62,21.37 28.51,20.65 28.57,19.92 28.68,19.2 28.74,18.84 28.82,18.49 28.95,18.14 29.01,17.97 29.11,17.78 29.22,17.64 29.31,17.5 29.4,17.35 29.47,17.2 29.77,16.58 29.89,15.87 29.87,15.17 L 29.92,15.16 Z M 29.92,15.16" />
        </g>
        <g id="ranaCurledSide-group8">
            <path id="ranaCurledSide-bezier7" stroke="none" fill="rgb(0, 0, 0)" d="M 12.82,21.45 C 11.44,21.64 10.04,21.71 8.63,21.59 7.93,21.53 7.2,21.48 6.52,21.18 5.87,20.9 5.16,20.41 4.95,19.67 L 5.01,19.64 C 5.55,20.1 6.15,20.29 6.78,20.48 7.4,20.65 8.04,20.86 8.71,21 10.05,21.24 11.43,21.35 12.81,21.38 L 12.82,21.45 Z M 12.82,21.45" />
        </g>
        <g id="ranaCurledSide-group9">
            <path id="ranaCurledSide-bezier8" stroke="none" fill="rgb(0, 0, 0)" d="M 9.32,25.12 C 7.98,25.34 6.59,25.34 5.23,24.97 4.55,24.79 3.85,24.52 3.32,23.99 2.8,23.47 2.45,22.76 2.45,22.05 L 2.52,22.02 C 2.92,22.6 3.32,23.06 3.82,23.43 4.3,23.79 4.82,24.16 5.42,24.4 6.02,24.64 6.66,24.8 7.32,24.89 7.97,25 8.64,25.06 9.31,25.05 L 9.32,25.12 Z M 9.32,25.12" />
        </g>
        <g id="ranaCurledSide-group10">
            <path id="ranaCurledSide-bezier9" stroke="none" fill="rgb(0, 0, 0)" d="M 10.65,30.62 C 9.06,30.58 7.46,30.28 5.98,29.59 5.24,29.25 4.49,28.82 3.96,28.16 3.43,27.5 3.09,26.67 3.11,25.84 L 3.18,25.83 C 3.57,26.54 3.99,27.14 4.52,27.66 5.04,28.16 5.59,28.67 6.26,29.06 6.91,29.45 7.63,29.74 8.37,29.99 9.11,30.23 9.87,30.43 10.65,30.55 L 10.65,30.62 Z M 10.65,30.62" />
        </g>
        <g id="ranaCurledSide-group11">
            <path id="ranaCurledSide-bezier10" stroke="none" fill="rgb(0, 0, 0)" d="M 7.89,33.12 C 7.38,32.93 6.99,32.61 6.54,32.36 6.11,32.1 5.67,31.84 5.22,31.63 4.77,31.41 4.3,31.28 3.87,31.09 3.44,30.9 3.02,30.73 2.49,30.62 L 2.47,30.55 C 2.96,30.25 3.57,30.25 4.1,30.37 4.64,30.5 5.09,30.81 5.52,31.11 5.96,31.4 6.37,31.73 6.76,32.06 7.15,32.39 7.51,32.8 7.9,33.05 L 7.89,33.12 Z M 7.89,33.12" />
        </g>
        <g id="ranaCurledSide-group12">
            <path id="ranaCurledSide-bezier11" stroke="none" fill="rgb(0, 0, 0)" d="M 16.04,36.52 C 15.26,35.75 14.41,35.05 13.51,34.49 13.05,34.21 12.56,34.02 12.11,33.78 11.65,33.53 11.19,33.33 10.65,33.12 L 10.65,33.05 C 11.21,32.84 11.84,32.91 12.39,33.09 12.96,33.27 13.42,33.64 13.85,34 14.74,34.71 15.48,35.56 16.1,36.48 L 16.04,36.52 Z M 16.04,36.52" />
        </g>
        <g id="ranaCurledSide-group13">
            <path id="ranaCurledSide-bezier12" stroke="none" fill="rgb(0, 0, 0)" d="M 17.5,34.83 C 16.87,34.74 16.27,34.33 15.94,33.72 15.77,33.42 15.61,33.09 15.64,32.74 15.67,32.4 15.78,32.07 16.03,31.81 L 16.1,31.82 C 16.25,32.15 16.32,32.43 16.39,32.69 16.45,32.95 16.42,33.22 16.49,33.48 16.63,33.98 16.99,34.47 17.52,34.76 L 17.5,34.83 Z M 17.5,34.83" />
        </g>
        <g id="ranaCurledSide-group14">
            <path id="ranaCurledSide-bezier13" stroke="none" fill="rgb(0, 0, 0)" d="M 25.2,45.43 C 24.92,44.77 24.73,44.07 24.64,43.34 24.59,42.98 24.52,42.6 24.61,42.23 24.71,41.87 24.88,41.5 25.2,41.24 L 25.27,41.26 C 25.34,41.66 25.35,41.99 25.36,42.32 25.37,42.65 25.27,42.98 25.24,43.32 25.19,44 25.2,44.71 25.27,45.41 L 25.2,45.43 Z M 25.2,45.43" />
        </g>
        <g id="ranaCurledSide-group15">
            <path id="ranaCurledSide-bezier14" stroke="none" fill="rgb(0, 0, 0)" d="M 27.53,45.41 C 27.7,44.36 27.93,43.32 28.21,42.29 28.35,41.77 28.46,41.24 28.73,40.76 28.87,40.52 29.01,40.28 29.2,40.07 29.38,39.86 29.6,39.64 29.89,39.55 L 29.94,39.62 C 29.7,40.08 29.59,40.58 29.42,41.06 29.25,41.55 28.99,42 28.78,42.49 28.37,43.45 27.98,44.44 27.6,45.43 L 27.53,45.41 Z M 27.53,45.41" />
        </g>
        <g id="ranaCurledSide-group16">
            <path id="ranaCurledSide-bezier15" stroke="none" fill="rgb(0, 0, 0)" d="M 32.19,43.33 C 32.2,42.49 32.28,41.66 32.46,40.82 32.55,40.41 32.62,39.97 32.85,39.59 33.09,39.23 33.41,38.85 33.87,38.72 L 33.92,38.78 C 33.76,39.2 33.66,39.55 33.53,39.92 33.41,40.29 33.19,40.63 33.04,41 32.74,41.75 32.49,42.54 32.27,43.34 L 32.19,43.33 Z M 32.19,43.33" />
        </g>
        <g id="ranaCurledSide-group17">
            <path id="ranaCurledSide-bezier16" stroke="none" fill="rgb(0, 0, 0)" d="M 35.95,40.57 C 36.23,39.76 36.43,38.92 36.47,38.11 36.47,37.71 36.38,37.33 36.33,36.98 36.29,36.61 36.17,36.28 35.96,35.86 L 36,35.8 C 36.48,35.89 36.88,36.3 37.05,36.77 37.24,37.25 37.16,37.74 37.06,38.18 36.88,39.08 36.5,39.88 36.02,40.6 L 35.95,40.57 Z M 35.95,40.57" />
        </g>
        <g id="ranaCurledSide-group18">
            <path id="ranaCurledSide-bezier17" stroke="none" fill="rgb(0, 0, 0)" d="M 39.28,38.22 C 39.03,37.23 38.89,36.22 38.86,35.19 38.84,34.67 38.8,34.14 38.94,33.63 39.08,33.13 39.3,32.62 39.7,32.24 L 39.77,32.27 C 39.75,32.8 39.71,33.28 39.68,33.76 39.65,34.24 39.52,34.72 39.46,35.21 39.35,36.19 39.32,37.2 39.35,38.2 L 39.28,38.22 Z M 39.28,38.22" />
        </g>
        <g id="ranaCurledSide-group19">
            <path id="ranaCurledSide-bezier18" stroke="none" fill="rgb(0, 0, 0)" d="M 41.95,33.68 C 41.47,32.62 41.12,31.5 40.96,30.32 40.88,29.74 40.81,29.12 40.96,28.52 41.11,27.92 41.43,27.32 41.95,26.98 L 42.01,27.02 C 41.84,27.6 41.74,28.11 41.7,28.65 41.66,29.18 41.57,29.72 41.56,30.28 41.58,31.4 41.75,32.54 42.02,33.66 L 41.95,33.68 Z M 41.95,33.68" />
        </g>
        <g id="ranaCurledSide-group20">
            <path id="ranaCurledSide-bezier19" stroke="none" fill="rgb(0, 0, 0)" d="M 43.72,29.38 C 44.64,28.98 45.48,28.4 46.09,27.67 46.39,27.3 46.57,26.88 46.76,26.49 46.97,26.08 47.11,25.64 47.28,25.13 L 47.35,25.13 C 47.59,25.62 47.62,26.21 47.47,26.75 47.32,27.3 46.92,27.73 46.52,28.09 45.72,28.82 44.74,29.24 43.74,29.45 L 43.72,29.38 Z M 43.72,29.38" />
        </g>
        <g id="ranaCurledSide-group21">
            <path id="ranaCurledSide-bezier20" stroke="none" fill="rgb(0, 0, 0)" d="M 44.44,27 C 44.36,25.97 44.33,24.93 44.32,23.9 44.32,23.38 44.27,22.86 44.37,22.35 44.46,21.84 44.59,21.33 44.86,20.84 L 44.94,20.85 C 45.08,21.38 45.11,21.9 45.11,22.41 45.12,22.93 45,23.43 44.92,23.94 L 44.52,27 44.44,27 Z M 44.44,27" />
        </g>
        <g id="ranaCurledSide-group22">
            <path id="ranaCurledSide-bezier21" stroke="none" fill="rgb(0, 0, 0)" d="M 45.95,23.56 C 46.51,22.41 47.02,21.23 47.4,20.03 47.59,19.43 47.69,18.81 47.83,18.23 47.97,17.64 48.09,17.07 47.95,16.44 L 48.01,16.4 C 48.56,16.88 48.63,17.69 48.58,18.35 48.51,19.03 48.23,19.65 47.97,20.24 47.44,21.44 46.77,22.55 46.02,23.6 L 45.95,23.56 Z M 45.95,23.56" />
        </g>
        <g id="ranaCurledSide-group23">
            <path id="ranaCurledSide-bezier22" stroke="none" fill="rgb(0, 0, 0)" d="M 45.94,18.09 C 45.7,17.09 45.41,16.11 45.05,15.17 44.86,14.7 44.61,14.27 44.43,13.83 44.24,13.39 44.07,12.97 43.72,12.58 L 43.75,12.51 C 44.34,12.55 44.8,13.03 45.09,13.48 45.39,13.94 45.5,14.48 45.62,14.99 45.87,16.01 45.99,17.05 46.02,18.08 L 45.94,18.09 Z M 45.94,18.09" />
        </g>
        <g id="ranaCurledSide-group24">
            <path id="ranaCurledSide-bezier23" stroke="none" fill="rgb(0, 0, 0)" d="M 46.53,14.29 C 46.46,13.35 46.44,12.41 46.47,11.46 46.48,10.99 46.45,10.5 46.58,10.03 46.71,9.58 46.86,9.07 47.3,8.73 L 47.36,8.77 C 47.32,9.25 47.35,9.7 47.32,10.16 47.29,10.61 47.15,11.06 47.06,11.52 L 46.6,14.29 46.53,14.29 Z M 46.53,14.29" />
        </g>
        <g id="ranaCurledSide-group25">
            <path id="ranaCurledSide-bezier24" stroke="none" fill="rgb(0, 0, 0)" d="M 45.5,10.86 C 44.62,10.1 43.65,9.43 42.64,8.93 42.12,8.69 41.59,8.54 41.08,8.36 40.56,8.17 40.05,8.05 39.45,7.95 L 39.43,7.88 C 39.98,7.56 40.66,7.52 41.27,7.64 41.89,7.75 42.43,8.08 42.93,8.41 43.95,9.07 44.82,9.89 45.56,10.81 L 45.5,10.86 Z M 45.5,10.86" />
        </g>
        <g id="ranaCurledSide-group26">
            <path id="ranaCurledSide-bezier25" stroke="none" fill="rgb(0, 0, 0)" d="M 45.49,7.51 C 45.2,6.9 44.76,6.36 44.24,6.04 43.97,5.89 43.69,5.85 43.42,5.73 43.15,5.62 42.85,5.53 42.49,5.37 L 42.48,5.3 C 42.79,5.05 43.19,4.97 43.59,5 43.99,5.05 44.34,5.3 44.61,5.57 45.17,6.1 45.47,6.8 45.57,7.49 L 45.49,7.51 Z M 45.49,7.51" />
        </g>
        <g id="ranaCurledSide-group27">
            <path id="ranaCurledSide-bezier26" stroke="none" fill="rgb(0, 0, 0)" d="M 52.37,10.44 C 51.28,9.51 50.34,8.37 49.67,7.05 49.33,6.39 49.03,5.68 48.99,4.91 48.95,4.15 49.11,3.36 49.53,2.74 L 49.6,2.76 C 49.58,3.5 49.61,4.17 49.73,4.83 49.86,5.48 49.97,6.15 50.22,6.81 50.72,8.09 51.5,9.31 52.42,10.39 L 52.37,10.44 Z M 52.37,10.44" />
        </g>
        <g id="ranaCurledSide-group28">
            <path id="ranaCurledSide-bezier27" stroke="none" fill="rgb(0, 0, 0)" d="M 50.83,17.59 C 50.46,16.48 50.07,15.37 49.64,14.3 49.42,13.76 49.14,13.26 48.95,12.73 48.74,12.2 48.59,11.67 48.25,11.2 L 48.29,11.14 C 48.93,11.32 49.32,11.91 49.62,12.41 49.93,12.94 50.06,13.53 50.21,14.11 50.52,15.25 50.75,16.41 50.9,17.58 L 50.83,17.59 Z M 50.83,17.59" />
        </g>
        <g id="ranaCurledSide-group29">
            <path id="ranaCurledSide-bezier28" stroke="none" fill="rgb(0, 0, 0)" d="M 22.95,45.43 C 22.53,44.85 22.08,44.28 21.61,43.75 21.37,43.5 21.09,43.28 20.89,43.01 20.69,42.73 20.5,42.47 20.29,42.12 L 20.32,42.05 C 20.75,42.05 21.12,42.25 21.42,42.49 21.73,42.73 21.91,43.08 22.09,43.4 22.48,44.04 22.78,44.71 23.01,45.4 L 22.95,45.43 Z M 22.95,45.43" />
        </g>
        <g id="ranaCurledSide-group30">
            <path id="ranaCurledSide-bezier29" stroke="none" fill="rgb(0, 0, 0)" d="M 17.94,43.33 C 17.95,42.44 17.93,41.56 17.86,40.69 17.82,40.26 17.72,39.84 17.7,39.43 17.66,39.02 17.7,38.63 17.49,38.24 L 17.53,38.18 C 17.79,38.21 18,38.43 18.14,38.63 18.29,38.85 18.37,39.08 18.44,39.31 18.56,39.77 18.5,40.24 18.46,40.69 18.4,41.59 18.24,42.47 18.02,43.34 L 17.94,43.33 Z M 17.94,43.33" />
        </g>
        <g id="ranaCurledSide-group31">
            <path id="ranaCurledSide-bezier30" stroke="none" fill="rgb(0, 0, 0)" d="M 12.31,36.54 C 11.56,36.46 10.8,36.5 10.09,36.62 9.73,36.69 9.4,36.83 9.05,36.87 8.7,36.91 8.34,36.96 7.92,36.95 L 7.88,36.88 C 8.13,36.53 8.48,36.3 8.86,36.15 9.23,36 9.65,36.01 10.04,36.02 10.84,36.03 11.61,36.17 12.33,36.46 L 12.31,36.54 Z M 12.31,36.54" />
        </g>
        <g id="ranaCurledSide-group32">
            <path id="ranaCurledSide-bezier31" stroke="none" fill="rgb(0, 0, 0)" d="M 8.91,34.83 C 7.86,35.28 6.83,35.77 5.86,36.33 5.38,36.62 4.94,36.96 4.48,37.24 4.02,37.53 3.58,37.79 3.18,38.22 L 3.11,38.2 C 3.14,37.55 3.59,37.02 4.04,36.63 4.49,36.24 5.06,36.02 5.59,35.79 6.66,35.33 7.77,35 8.89,34.76 L 8.91,34.83 Z M 8.91,34.83" />
        </g>
        <g id="ranaCurledSide-group33">
            <path id="ranaCurledSide-bezier32" stroke="none" fill="rgb(0, 0, 0)" d="M 11.07,41.62 C 10.03,41.74 8.98,41.75 7.93,41.66 7.41,41.62 6.87,41.6 6.36,41.42 5.86,41.24 5.37,41 4.97,40.62 L 5,40.55 C 5.55,40.55 6.05,40.62 6.55,40.7 7.05,40.77 7.52,40.95 8.02,41.06 9.02,41.28 10.04,41.45 11.07,41.55 L 11.07,41.62 Z M 11.07,41.62" />
        </g>
        <g id="ranaCurledSide-group34">
            <path id="ranaCurledSide-bezier33" stroke="none" fill="rgb(0, 0, 0)" d="M 15.55,40.62 C 14.73,40.39 13.9,40.19 13.09,40.05 12.67,39.98 12.26,39.98 11.87,39.89 11.47,39.8 11.11,39.69 10.66,39.62 L 10.64,39.55 C 11,39.22 11.51,39.15 11.95,39.14 12.41,39.14 12.83,39.32 13.24,39.46 14.06,39.75 14.84,40.12 15.58,40.55 L 15.55,40.62 Z M 15.55,40.62" />
        </g>
        <g id="ranaCurledSide-group35">
            <path id="ranaCurledSide-bezier34" stroke="none" fill="rgb(0, 0, 0)" d="M 14.31,45.95 C 13.62,45.92 12.94,45.82 12.27,45.63 11.94,45.54 11.57,45.47 11.28,45.25 11,45.04 10.72,44.75 10.62,44.36 L 10.68,44.31 C 11.06,44.39 11.35,44.49 11.65,44.6 11.94,44.71 12.2,44.91 12.49,45.07 13.08,45.37 13.69,45.64 14.32,45.88 L 14.31,45.95 Z M 14.31,45.95" />
        </g>
        <g id="ranaCurledSide-group36">
            <path id="ranaCurledSide-bezier35" stroke="none" fill="rgb(0, 0, 0)" d="M 10.12,45.95 C 9.11,46.41 8.16,46.97 7.33,47.65 6.91,48 6.58,48.4 6.23,48.77 5.86,49.13 5.55,49.52 5.23,50.01 L 5.15,49.99 C 5.08,49.39 5.3,48.78 5.64,48.29 5.98,47.79 6.49,47.46 6.97,47.16 7.95,46.55 9.01,46.14 10.1,45.88 L 10.12,45.95 Z M 10.12,45.95" />
        </g>
        <g id="ranaCurledSide-group37">
            <path id="ranaCurledSide-bezier36" stroke="none" fill="rgb(0, 0, 0)" d="M 8.65,43.73 C 8.13,43.85 7.6,43.92 7.06,43.95 6.8,43.97 6.51,44.02 6.25,43.93 5.99,43.83 5.7,43.68 5.55,43.37 L 5.58,43.3 C 5.89,43.23 6.12,43.19 6.38,43.19 6.62,43.18 6.86,43.29 7.11,43.35 L 8.65,43.66 8.65,43.73 Z M 8.65,43.73" />
        </g>
        <g id="ranaCurledSide-group38">
            <path id="ranaCurledSide-bezier37" stroke="none" fill="rgb(0, 0, 0)" d="M 18.14,46.36 C 17.76,46.18 17.39,46.02 17.02,45.88 16.84,45.81 16.63,45.8 16.48,45.68 16.33,45.55 16.2,45.42 16.06,45.16 L 16.08,45.09 C 16.33,44.95 16.57,44.95 16.79,44.99 17.01,45.04 17.17,45.22 17.33,45.36 17.66,45.64 17.95,45.95 18.19,46.31 L 18.14,46.36 Z M 18.14,46.36" />
        </g>
        <g id="ranaCurledSide-group39">
            <path id="ranaCurledSide-bezier38" stroke="none" fill="rgb(0, 0, 0)" d="M 20.34,45.4 C 20.68,45.75 20.97,46.16 21.11,46.69 21.18,46.94 21.25,47.26 21.09,47.55 20.94,47.83 20.64,48.03 20.33,47.99 L 20.29,47.93 C 20.36,47.62 20.38,47.45 20.39,47.28 20.4,47.13 20.49,46.97 20.51,46.76 20.53,46.35 20.43,45.88 20.28,45.44 L 20.34,45.4 Z M 20.34,45.4" />
        </g>
        <g id="ranaCurledSide-group40">
            <path id="ranaCurledSide-bezier39" stroke="none" fill="rgb(0, 0, 0)" d="M 17.52,48 C 17.15,48.19 16.82,48.45 16.64,48.73 16.56,48.89 16.56,49.05 16.47,49.16 16.38,49.29 16.29,49.44 16.1,49.66 L 16.03,49.67 C 15.8,49.49 15.73,49.21 15.76,48.94 15.79,48.67 16.01,48.46 16.21,48.32 16.61,48.01 17.07,47.91 17.5,47.92 L 17.52,48 Z M 17.52,48" />
        </g>
        <g id="ranaCurledSide-group41">
            <path id="ranaCurledSide-bezier40" stroke="none" fill="rgb(0, 0, 0)" d="M 23.24,48.78 C 23.8,48.83 24.36,48.97 24.89,49.25 25.16,49.39 25.46,49.54 25.62,49.85 25.77,50.15 25.81,50.55 25.6,50.83 L 25.53,50.83 C 25.32,50.57 25.17,50.43 25,50.28 24.85,50.14 24.73,49.92 24.55,49.74 24.18,49.4 23.71,49.1 23.22,48.85 L 23.24,48.78 Z M 23.24,48.78" />
        </g>
        <g id="ranaCurledSide-group42">
            <path id="ranaCurledSide-bezier41" stroke="none" fill="rgb(0, 0, 0)" d="M 27.53,50 C 27.38,49.38 27.27,48.75 27.23,48.1 27.2,47.78 27.14,47.44 27.24,47.11 27.29,46.95 27.35,46.78 27.47,46.62 27.57,46.48 27.74,46.28 27.97,46.3 L 27.99,46.37 C 27.91,46.66 28,46.93 27.98,47.23 27.98,47.52 27.88,47.81 27.83,48.12 27.74,48.73 27.67,49.36 27.6,50 L 27.53,50 Z M 27.53,50" />
        </g>
        <g id="ranaCurledSide-group43">
            <path id="ranaCurledSide-bezier42" stroke="none" fill="rgb(0, 0, 0)" d="M 31.5,46.72 C 31.28,47.01 31.09,47.32 30.88,47.61 30.78,47.77 30.72,47.95 30.56,48.04 30.4,48.13 30.21,48.2 29.94,48.19 L 29.89,48.14 C 29.86,47.87 29.93,47.68 30.02,47.52 30.11,47.35 30.3,47.28 30.46,47.18 30.77,46.98 31.09,46.78 31.46,46.66 L 31.5,46.72 Z M 31.5,46.72" />
        </g>
        <g id="ranaCurledSide-group44">
            <path id="ranaCurledSide-bezier43" stroke="none" fill="rgb(0, 0, 0)" d="M 22.97,50.87 C 22.28,50.68 21.61,50.46 20.95,50.28 20.61,50.2 20.27,50.18 19.97,50.06 19.65,49.95 19.39,49.81 19.02,49.7 L 19,49.63 C 19.31,49.32 19.77,49.3 20.13,49.33 20.51,49.37 20.84,49.56 21.16,49.72 21.81,50.03 22.41,50.41 23,50.8 L 22.97,50.87 Z M 22.97,50.87" />
        </g>
        <g id="ranaCurledSide-group45">
            <path id="ranaCurledSide-bezier44" stroke="none" fill="rgb(0, 0, 0)" d="M 13.32,48.83 C 13.02,48.34 12.5,47.99 12.1,48.15 11.89,48.22 11.73,48.4 11.5,48.51 11.27,48.62 11.02,48.76 10.68,48.84 L 10.62,48.79 C 10.66,48.43 10.82,48.15 11.05,47.91 11.28,47.68 11.65,47.56 12.02,47.55 12.4,47.53 12.77,47.71 12.99,47.96 13.21,48.22 13.33,48.5 13.39,48.8 L 13.32,48.83 Z M 13.32,48.83" />
        </g>
        <g id="ranaCurledSide-group46">
            <path id="ranaCurledSide-bezier45" stroke="none" fill="rgb(0, 0, 0)" d="M 12.48,50.04 C 11.44,50.04 10.38,50.17 9.49,50.57 9.04,50.78 8.72,51.11 8.42,51.42 8.12,51.74 7.91,52.15 7.69,52.67 L 7.61,52.67 C 7.42,52.14 7.49,51.49 7.82,50.97 8.16,50.44 8.74,50.17 9.27,50.01 10.36,49.69 11.45,49.75 12.49,49.96 L 12.48,50.04 Z M 12.48,50.04" />
        </g>
        <g id="ranaCurledSide-group47">
            <path id="ranaCurledSide-bezier46" stroke="none" fill="rgb(0, 0, 0)" d="M 16.77,53.62 C 15.66,54.33 14.48,54.95 13.24,55.46 12.63,55.72 11.99,55.99 11.3,56.06 10.95,56.09 10.6,56.09 10.24,56.02 9.9,55.95 9.53,55.81 9.3,55.53 L 9.34,55.47 C 9.98,55.61 10.57,55.45 11.18,55.32 11.78,55.17 12.42,55.07 13.05,54.9 14.29,54.53 15.53,54.07 16.74,53.55 L 16.77,53.62 Z M 16.77,53.62" />
        </g>
        <g id="ranaCurledSide-group48">
            <path id="ranaCurledSide-bezier47" stroke="none" fill="rgb(0, 0, 0)" d="M 15.09,57.69 C 14.66,58.37 14.26,59.07 13.95,59.78 13.8,60.14 13.71,60.52 13.55,60.85 13.39,61.19 13.24,61.5 13.07,61.91 L 13,61.92 C 12.75,61.53 12.75,61.04 12.84,60.62 12.93,60.18 13.19,59.83 13.42,59.49 13.88,58.8 14.43,58.18 15.04,57.64 L 15.09,57.69 Z M 15.09,57.69" />
        </g>
        <g id="ranaCurledSide-group49">
            <path id="ranaCurledSide-bezier48" stroke="none" fill="rgb(0, 0, 0)" d="M 22.6,57.67 C 22.51,58.83 22.3,59.98 21.9,61.1 21.71,61.66 21.5,62.24 21.09,62.72 20.69,63.18 20.13,63.59 19.5,63.62 L 19.47,63.55 C 19.91,63.15 20.21,62.73 20.49,62.27 20.76,61.81 21.09,61.37 21.35,60.87 21.84,59.86 22.23,58.77 22.53,57.66 L 22.6,57.67 Z M 22.6,57.67" />
        </g>
        <g id="ranaCurledSide-group50">
            <path id="ranaCurledSide-bezier49" stroke="none" fill="rgb(0, 0, 0)" d="M 29.94,57.36 C 28.83,58.76 27.77,60.2 26.81,61.68 26.34,62.43 25.93,63.22 25.49,63.96 25.06,64.72 24.63,65.46 24.44,66.33 L 24.36,66.34 C 24.14,65.4 24.47,64.45 24.83,63.62 25.21,62.78 25.77,62.06 26.32,61.34 27.41,59.9 28.61,58.57 29.89,57.31 L 29.94,57.36 Z M 29.94,57.36" />
        </g>
        <g id="ranaCurledSide-group51">
            <path id="ranaCurledSide-bezier50" stroke="none" fill="rgb(0, 0, 0)" d="M 30.72,61.8 C 31.76,62.49 32.74,63.28 33.6,64.21 34.03,64.68 34.48,65.16 34.72,65.79 34.96,66.4 35.07,67.18 34.69,67.76 L 34.61,67.74 C 34.57,67.1 34.33,66.61 34.04,66.11 33.76,65.62 33.49,65.09 33.14,64.59 32.42,63.62 31.58,62.71 30.68,61.86 L 30.72,61.8 Z M 30.72,61.8" />
        </g>
        <g id="ranaCurledSide-group52">
            <path id="ranaCurledSide-bezier51" stroke="none" fill="rgb(0, 0, 0)" d="M 33.91,60.59 C 35.59,61.22 37.21,62.01 38.72,63.02 39.47,63.52 40.24,64.04 40.83,64.76 41.42,65.46 41.92,66.31 42.02,67.24 L 41.95,67.26 C 41.47,66.49 40.91,65.86 40.28,65.26 39.67,64.67 39.05,64.05 38.37,63.5 36.98,62.42 35.47,61.48 33.89,60.66 L 33.91,60.59 Z M 33.91,60.59" />
        </g>
        <g id="ranaCurledSide-group53">
            <path id="ranaCurledSide-bezier52" stroke="none" fill="rgb(0, 0, 0)" d="M 42.02,57.67 C 42.17,59.17 42.38,60.67 42.68,62.14 42.84,62.87 43.07,63.58 43.25,64.29 43.43,64.99 43.58,65.7 44.03,66.3 L 43.99,66.37 C 43.6,66.22 43.31,65.9 43.08,65.57 42.84,65.24 42.68,64.88 42.53,64.51 42.25,63.78 42.17,63 42.09,62.24 41.92,60.71 41.88,59.19 41.95,57.67 L 42.02,57.67 Z M 42.02,57.67" />
        </g>
        <g id="ranaCurledSide-group54">
            <path id="ranaCurledSide-bezier53" stroke="none" fill="rgb(0, 0, 0)" d="M 43.73,61.96 C 45.06,61.99 46.39,62.13 47.7,62.44 48.35,62.6 49.03,62.75 49.63,63.13 50.2,63.5 50.79,64.05 50.9,64.78 L 50.83,64.81 C 50.37,64.32 49.83,64.05 49.27,63.79 48.7,63.54 48.14,63.24 47.53,63.02 46.31,62.59 45.03,62.28 43.73,62.04 L 43.73,61.96 Z M 43.73,61.96" />
        </g>
        <g id="ranaCurledSide-group55">
            <path id="ranaCurledSide-bezier54" stroke="none" fill="rgb(0, 0, 0)" d="M 46.02,53.57 C 46.5,54.69 46.92,55.84 47.25,57.03 47.42,57.62 47.62,58.22 47.63,58.86 47.63,59.17 47.61,59.5 47.53,59.82 47.45,60.13 47.3,60.51 46.97,60.66 L 46.92,60.6 C 47.15,60.07 46.94,59.49 46.88,58.92 46.78,58.35 46.75,57.75 46.67,57.16 46.47,55.97 46.22,54.78 45.95,53.59 L 46.02,53.57 Z M 46.02,53.57" />
        </g>
        <g id="ranaCurledSide-group56">
            <path id="ranaCurledSide-bezier55" stroke="none" fill="rgb(0, 0, 0)" d="M 50.86,57.63 C 52.17,57.51 53.49,57.49 54.82,57.65 55.48,57.73 56.17,57.8 56.81,58.12 57.12,58.28 57.43,58.48 57.67,58.77 57.91,59.05 58.08,59.43 58.02,59.79 L 57.95,59.8 C 57.63,59.21 57.08,59.02 56.51,58.81 55.94,58.62 55.34,58.39 54.72,58.24 53.47,57.96 52.17,57.8 50.86,57.71 L 50.86,57.63 Z M 50.86,57.63" />
        </g>
        <g id="ranaCurledSide-group57">
            <path id="ranaCurledSide-bezier56" stroke="none" fill="rgb(0, 0, 0)" d="M 53.1,60.26 C 53.13,61.06 53.18,61.86 53.29,62.63 53.35,63.02 53.48,63.39 53.52,63.74 53.58,64.1 53.58,64.42 53.83,64.76 L 53.8,64.83 C 53.56,64.85 53.32,64.7 53.16,64.53 52.99,64.35 52.88,64.14 52.8,63.94 52.64,63.52 52.67,63.08 52.69,62.67 52.71,61.84 52.84,61.03 53.03,60.24 L 53.1,60.26 Z M 53.1,60.26" />
        </g>
        <g id="ranaCurledSide-group58">
            <path id="ranaCurledSide-bezier57" stroke="none" fill="rgb(0, 0, 0)" d="M 54.45,49.98 C 55.72,51.3 56.96,52.66 58.16,54.05 58.77,54.74 59.4,55.41 59.91,56.18 60.17,56.57 60.42,56.96 60.63,57.38 60.83,57.8 61.07,58.22 61.1,58.72 L 61.03,58.74 C 60.53,57.99 59.88,57.34 59.31,56.63 58.73,55.93 58.23,55.16 57.7,54.42 L 54.4,50.03 54.45,49.98 Z M 54.45,49.98" />
        </g>
        <g id="ranaCurledSide-group59">
            <path id="ranaCurledSide-bezier58" stroke="none" fill="rgb(0, 0, 0)" d="M 61.57,49.96 C 63.04,49.99 64.52,49.96 65.97,49.83 66.69,49.75 67.4,49.59 68.09,49.48 68.78,49.36 69.47,49.27 70.03,48.79 L 70.1,48.83 C 69.99,49.22 69.66,49.53 69.33,49.74 69,49.96 68.63,50.1 68.26,50.21 67.51,50.43 66.74,50.43 66,50.43 64.5,50.43 63.02,50.28 61.56,50.04 L 61.57,49.96 Z M 61.57,49.96" />
        </g>
        <g id="ranaCurledSide-group60">
            <path id="ranaCurledSide-bezier59" stroke="none" fill="rgb(0, 0, 0)" d="M 63.17,52.14 C 63.76,52.53 64.3,53.02 64.72,53.63 64.93,53.93 65.17,54.26 65.19,54.68 65.22,55.07 65.09,55.52 64.77,55.78 L 64.7,55.75 C 64.63,55.36 64.55,55.09 64.45,54.81 64.36,54.54 64.32,54.23 64.2,53.92 63.94,53.32 63.56,52.74 63.13,52.2 L 63.17,52.14 Z M 63.17,52.14" />
        </g>
        <g id="ranaCurledSide-group61">
            <path id="ranaCurledSide-bezier60" stroke="none" fill="rgb(0, 0, 0)" d="M 61.9,45.09 C 62.93,44.86 63.99,44.7 65.07,44.66 65.61,44.63 66.16,44.59 66.71,44.74 67.23,44.89 67.84,45.15 68.09,45.7 L 68.04,45.76 C 67.54,45.55 67.07,45.53 66.57,45.47 66.07,45.43 65.57,45.31 65.05,45.26 64.02,45.17 62.96,45.15 61.91,45.16 L 61.9,45.09 Z M 61.9,45.09" />
        </g>
        <g id="ranaCurledSide-group62">
            <path id="ranaCurledSide-bezier61" stroke="none" fill="rgb(0, 0, 0)" d="M 65.81,41.55 C 67.23,41.36 68.64,41.13 70.02,40.84 70.7,40.68 71.37,40.46 72.04,40.3 72.37,40.22 72.7,40.13 73.01,40.03 73.31,39.91 73.63,39.79 73.78,39.48 L 73.85,39.49 C 73.91,39.91 73.56,40.26 73.26,40.48 72.95,40.72 72.61,40.88 72.26,41.02 71.57,41.29 70.83,41.35 70.12,41.43 68.68,41.6 67.25,41.65 65.82,41.62 L 65.81,41.55 Z M 65.81,41.55" />
        </g>
        <g id="ranaCurledSide-group63">
            <path id="ranaCurledSide-bezier62" stroke="none" fill="rgb(0, 0, 0)" d="M 63.99,39.05 C 65.65,38.26 67.34,37.52 69.06,36.84 69.91,36.5 70.77,36.13 71.68,35.92 72.13,35.81 72.59,35.72 73.06,35.68 73.53,35.65 74.03,35.6 74.49,35.8 L 74.47,35.87 C 73.59,35.98 72.75,36.37 71.88,36.64 71.03,36.94 70.13,37.14 69.26,37.41 67.51,37.95 65.76,38.53 64.02,39.12 L 63.99,39.05 Z M 63.99,39.05" />
        </g>
        <g id="ranaCurledSide-group64">
            <path id="ranaCurledSide-bezier63" stroke="none" fill="rgb(0, 0, 0)" d="M 66.57,32.71 C 68.19,32.71 69.81,32.62 71.38,32.36 72.17,32.22 72.92,31.99 73.65,31.76 74.37,31.53 75.08,31.26 75.53,30.57 L 75.6,30.6 C 75.58,31.03 75.33,31.44 75.01,31.75 74.69,32.07 74.31,32.29 73.92,32.47 73.12,32.81 72.28,32.89 71.46,32.95 69.81,33.09 68.18,33 66.56,32.79 L 66.57,32.71 Z M 66.57,32.71" />
        </g>
        <g id="ranaCurledSide-group65">
            <path id="ranaCurledSide-bezier64" stroke="none" fill="rgb(0, 0, 0)" d="M 71.03,29.08 C 71.13,27.54 71.36,26.01 71.76,24.5 71.95,23.74 72.15,22.97 72.58,22.28 73,21.62 73.62,20.9 74.47,20.81 L 74.49,20.88 C 73.87,21.33 73.56,21.98 73.24,22.64 72.94,23.3 72.6,23.97 72.33,24.68 71.82,26.1 71.42,27.59 71.1,29.09 L 71.03,29.08 Z M 71.03,29.08" />
        </g>
        <g id="ranaCurledSide-group66">
            <path id="ranaCurledSide-bezier65" stroke="none" fill="rgb(0, 0, 0)" d="M 65.8,19.97 C 67.06,19.2 68.29,18.41 69.48,17.56 70.07,17.13 70.61,16.66 71.19,16.24 71.75,15.81 72.36,15.44 72.74,14.83 L 72.81,14.84 C 72.84,15.25 72.63,15.63 72.42,15.95 72.21,16.28 71.94,16.56 71.67,16.82 71.11,17.34 70.45,17.7 69.8,18.07 68.52,18.81 67.19,19.46 65.83,20.03 L 65.8,19.97 Z M 65.8,19.97" />
        </g>
        <g id="ranaCurledSide-group67">
            <path id="ranaCurledSide-bezier66" stroke="none" fill="rgb(0, 0, 0)" d="M 63.11,17.58 C 63.2,16.04 63.36,14.5 63.61,12.97 63.73,12.2 63.83,11.42 64.11,10.68 64.25,10.32 64.41,9.95 64.62,9.61 64.83,9.27 65.08,8.91 65.46,8.72 L 65.51,8.78 C 65.13,9.44 65.02,10.18 64.82,10.91 64.65,11.64 64.39,12.36 64.2,13.09 63.82,14.57 63.49,16.08 63.19,17.59 L 63.11,17.58 Z M 63.11,17.58" />
        </g>
        <g id="ranaCurledSide-group68">
            <path id="ranaCurledSide-bezier67" stroke="none" fill="rgb(0, 0, 0)" d="M 68.03,16.41 C 68.09,15.45 68.1,14.5 68.04,13.56 68,13.1 67.88,12.65 67.85,12.21 67.81,11.76 67.78,11.34 67.62,10.86 L 67.68,10.81 C 68.18,11.04 68.44,11.58 68.58,12.06 68.73,12.56 68.68,13.07 68.64,13.56 68.57,14.54 68.38,15.5 68.1,16.42 L 68.03,16.41 Z M 68.03,16.41" />
        </g>
        <g id="ranaCurledSide-group69">
            <path id="ranaCurledSide-bezier68" stroke="none" fill="rgb(0, 0, 0)" d="M 59.7,12.53 C 60.17,11.24 60.7,9.97 61.3,8.73 61.6,8.1 61.87,7.46 62.29,6.9 62.51,6.62 62.73,6.35 63.01,6.11 63.28,5.89 63.58,5.59 64,5.63 L 64,5.7 C 63.51,6.07 63.27,6.76 62.92,7.31 62.6,7.89 62.19,8.44 61.83,9.01 61.12,10.18 60.44,11.36 59.77,12.56 L 59.7,12.53 Z M 59.7,12.53" />
        </g>
        <g id="ranaCurledSide-group70">
            <path id="ranaCurledSide-bezier69" stroke="none" fill="rgb(0, 0, 0)" d="M 55.87,10.86 C 55.07,10.18 54.37,9.37 53.81,8.44 53.54,7.98 53.25,7.5 53.16,6.94 53.08,6.4 53.1,5.81 53.35,5.3 L 53.43,5.31 C 53.59,5.84 53.72,6.3 53.89,6.76 54.06,7.22 54.16,7.7 54.35,8.17 54.75,9.09 55.29,9.99 55.93,10.81 L 55.87,10.86 Z M 55.87,10.86" />
        </g>
        <g id="ranaCurledSide-group71">
            <path id="ranaCurledSide-bezier70" stroke="none" fill="rgb(0, 0, 0)" d="M 58.53,11.52 C 58.43,10.36 58.32,9.2 58.2,8.04 58.13,7.47 58,6.9 57.98,6.33 L 57.95,4.6 58.02,4.57 C 58.43,5.05 58.6,5.67 58.73,6.24 58.84,6.83 58.8,7.43 58.8,8.01 58.79,9.19 58.72,10.36 58.6,11.52 L 58.53,11.52 Z M 58.53,11.52" />
        </g>
        <g id="ranaCurledSide-group72">
            <path id="ranaCurledSide-bezier71" stroke="none" fill="rgb(0, 0, 0)" d="M 54.39,24.56 C 54.94,23.67 55.43,22.75 55.8,21.8 55.98,21.32 56.08,20.83 56.23,20.37 56.38,19.91 56.5,19.46 56.53,18.92 L 56.6,18.89 C 56.98,19.34 57.03,19.98 56.97,20.53 56.89,21.1 56.61,21.59 56.35,22.05 55.83,23 55.18,23.84 54.45,24.61 L 54.39,24.56 Z M 54.39,24.56" />
        </g>
        <g id="ranaCurledSide-group73">
            <path id="ranaCurledSide-bezier72" stroke="none" fill="rgb(0, 0, 0)" d="M 56.66,28.19 C 57.33,27.17 58.09,26.21 58.97,25.34 59.4,24.91 59.85,24.45 60.42,24.16 60.98,23.88 61.68,23.66 62.32,23.89 L 62.32,23.96 C 61.73,24.16 61.28,24.47 60.81,24.81 60.35,25.14 59.84,25.43 59.37,25.79 58.44,26.53 57.56,27.36 56.72,28.23 L 56.66,28.19 Z M 56.66,28.19" />
        </g>
        <g id="ranaCurledSide-group74">
            <path id="ranaCurledSide-bezier73" stroke="none" fill="rgb(0, 0, 0)" d="M 67.66,27.04 C 66.56,27.52 65.49,28.06 64.49,28.69 64,29.02 63.56,29.4 63.11,29.73 62.66,30.07 62.23,30.4 61.9,30.92 L 61.83,30.91 C 61.76,30.24 62.18,29.61 62.61,29.17 63.07,28.7 63.64,28.43 64.2,28.17 65.3,27.63 66.46,27.24 67.64,26.96 L 67.66,27.04 Z M 67.66,27.04" />
        </g>
        <g id="ranaCurledSide-group75">
            <path id="ranaCurledSide-bezier74" stroke="none" fill="rgb(0, 0, 0)" d="M 49.96,30.94 C 49.48,30.64 49.03,30.32 48.68,29.77 48.6,29.63 48.49,29.46 48.52,29.17 48.54,29.03 48.63,28.88 48.73,28.78 48.84,28.7 48.95,28.65 49.05,28.63 49.45,28.57 49.73,28.69 49.99,28.92 L 49.98,28.99 C 49.69,29.17 49.42,29.24 49.28,29.34 49.21,29.39 49.26,29.37 49.25,29.33 49.22,29.31 49.2,29.42 49.23,29.53 49.28,29.74 49.41,29.98 49.56,30.2 49.69,30.44 49.84,30.67 50.01,30.89 L 49.96,30.94 Z M 49.96,30.94" />
        </g>
        <g id="ranaCurledSide-group76">
            <path id="ranaCurledSide-bezier75" stroke="none" fill="rgb(0, 0, 0)" d="M 53.84,30.89 C 54.62,31.48 55.34,32.16 55.9,33.02 56.17,33.44 56.46,33.93 56.45,34.51 56.45,35.09 56.09,35.68 55.58,35.86 L 55.53,35.81 C 55.73,35.32 55.77,34.94 55.7,34.55 55.63,34.16 55.56,33.73 55.37,33.3 54.99,32.47 54.42,31.68 53.79,30.95 L 53.84,30.89 Z M 53.84,30.89" />
        </g>
        <g id="ranaCurledSide-group77">
            <path id="ranaCurledSide-bezier76" stroke="none" fill="rgb(0, 0, 0)" d="M 58.57,38.17 C 59.56,38 60.55,37.79 61.5,37.51 61.97,37.36 62.42,37.15 62.85,37 63.29,36.83 63.71,36.74 63.97,36.3 L 64.04,36.3 C 64.14,36.58 64.01,36.91 63.82,37.14 63.64,37.38 63.4,37.54 63.16,37.68 62.68,37.95 62.14,38.02 61.63,38.09 60.61,38.25 59.59,38.29 58.57,38.25 L 58.57,38.17 Z M 58.57,38.17" />
        </g>
        <g id="ranaCurledSide-group78">
            <path id="ranaCurledSide-bezier77" stroke="none" fill="rgb(0, 0, 0)" d="M 56.11,42.06 C 56.77,42.82 57.39,43.62 57.94,44.48 58.22,44.9 58.54,45.33 58.69,45.83 58.76,46.09 58.82,46.35 58.83,46.63 58.83,46.9 58.8,47.22 58.6,47.44 L 58.53,47.41 C 58.47,46.93 58.2,46.55 57.99,46.11 57.77,45.69 57.62,45.22 57.42,44.77 57,43.87 56.53,42.99 56.05,42.11 L 56.11,42.06 Z M 56.11,42.06" />
        </g>
        <g id="ranaCurledSide-group79">
            <path id="ranaCurledSide-bezier78" stroke="none" fill="rgb(0, 0, 0)" d="M 17.77,53.07 C 18.43,53.83 19.05,54.63 19.6,55.49 19.88,55.91 20.19,56.33 20.35,56.84 20.42,57.09 20.48,57.36 20.49,57.64 20.49,57.91 20.46,58.23 20.26,58.45 L 20.19,58.42 C 20.13,57.93 19.86,57.55 19.65,57.12 19.43,56.7 19.28,56.23 19.08,55.78 18.66,54.88 18.19,53.99 17.71,53.11 L 17.77,53.07 Z M 17.77,53.07" />
        </g>
        <g id="ranaCurledSide-group80">
            <path id="ranaCurledSide-bezier79" stroke="none" fill="rgb(0, 0, 0)" d="M 51.27,45.43 C 51.14,46.14 51.04,46.86 50.99,47.56 50.97,47.92 51.01,48.26 50.97,48.58 50.93,48.92 50.85,49.2 50.89,49.59 L 50.84,49.64 C 50.41,49.45 50.27,48.96 50.22,48.59 50.17,48.19 50.3,47.82 50.4,47.46 50.59,46.74 50.87,46.06 51.2,45.4 L 51.27,45.43 Z M 51.27,45.43" />
        </g>
        <g id="ranaCurledSide-group81">
            <path id="ranaCurledSide-bezier80" stroke="none" fill="rgb(0, 0, 0)" d="M 47.29,51.32 C 46.96,50.92 46.57,50.58 46.16,50.36 45.95,50.26 45.73,50.25 45.55,50.16 45.36,50.07 45.17,49.99 44.87,49.86 L 44.85,49.79 C 45.05,49.52 45.38,49.41 45.71,49.43 46.04,49.45 46.3,49.67 46.51,49.88 46.94,50.28 47.21,50.77 47.36,51.29 L 47.29,51.32 Z M 47.29,51.32" />
        </g>
        <g id="ranaCurledSide-group82">
            <path id="ranaCurledSide-bezier81" stroke="none" fill="rgb(0, 0, 0)" d="M 37.53,55.42 C 37.47,54.59 37.49,53.76 37.66,52.92 37.74,52.51 37.82,52.05 38.12,51.68 38.39,51.32 39.01,51 39.44,51.27 L 39.44,51.34 C 39.03,51.53 38.91,51.8 38.74,52.1 38.6,52.41 38.38,52.73 38.23,53.09 37.96,53.82 37.76,54.62 37.6,55.42 L 37.53,55.42 Z M 37.53,55.42" />
        </g>
        <g id="ranaCurledSide-group83">
            <path id="ranaCurledSide-bezier82" stroke="none" fill="rgb(0, 0, 0)" d="M 33.1,52.18 C 32.95,52.79 32.84,53.41 32.8,54 32.79,54.3 32.85,54.59 32.82,54.85 32.79,55.13 32.75,55.38 32.74,55.74 L 32.68,55.78 C 32.32,55.63 32.14,55.24 32.07,54.9 32,54.55 32.12,54.21 32.21,53.9 32.4,53.26 32.68,52.68 33.03,52.15 L 33.1,52.18 Z M 33.1,52.18" />
        </g>
        <g id="ranaCurledSide-group84">
            <path id="ranaCurledSide-bezier83" stroke="none" fill="rgb(0, 0, 0)" d="M 25.53,55.41 C 25.53,54.75 25.73,54.07 26.13,53.48 26.33,53.19 26.56,52.88 26.9,52.73 27.23,52.58 27.6,52.52 27.97,52.63 L 27.99,52.7 C 27.74,52.98 27.51,53.17 27.29,53.36 27.08,53.55 26.81,53.67 26.59,53.87 26.16,54.27 25.81,54.81 25.6,55.42 L 25.53,55.41 Z M 25.53,55.41" />
        </g>
        <g id="ranaCurledSide-group85">
            <path id="ranaCurledSide-bezier84" stroke="none" fill="rgb(0, 0, 0)" d="M 36.78,49.52 C 36.22,49.34 35.65,49.17 35.11,49.05 34.83,49 34.55,49.01 34.32,48.94 34.06,48.88 33.91,48.75 33.6,48.83 L 33.53,48.8 C 33.52,48.6 33.69,48.41 33.86,48.32 34.04,48.22 34.22,48.2 34.39,48.19 34.74,48.18 35.03,48.35 35.3,48.49 35.85,48.75 36.35,49.08 36.81,49.45 L 36.78,49.52 Z M 36.78,49.52" />
        </g>
        <g id="ranaCurledSide-group86">
            <path id="ranaCurledSide-bezier85" stroke="none" fill="rgb(0, 0, 0)" d="M 41.58,47.44 C 41.32,47.07 41.07,46.69 40.85,46.3 40.73,46.11 40.58,45.93 40.54,45.71 40.51,45.48 40.5,45.24 40.61,44.96 L 40.68,44.94 C 40.95,45.07 41.11,45.25 41.24,45.43 41.36,45.62 41.37,45.86 41.41,46.08 41.51,46.52 41.59,46.96 41.65,47.41 L 41.58,47.44 Z M 41.58,47.44" />
        </g>
        <g id="ranaCurledSide-group87">
            <path id="ranaCurledSide-bezier86" stroke="none" fill="rgb(0, 0, 0)" d="M 44.02,42.05 C 44.66,42.11 45.31,42.33 45.85,42.8 46.12,43.03 46.41,43.33 46.45,43.73 46.5,44.11 46.39,44.5 46.13,44.76 L 46.06,44.75 C 45.92,44.4 45.84,44.14 45.72,43.91 45.62,43.69 45.57,43.44 45.41,43.21 45.09,42.76 44.56,42.39 44,42.12 L 44.02,42.05 Z M 44.02,42.05" />
        </g>
        <g id="ranaCurledSide-group88">
            <path id="ranaCurledSide-bezier87" stroke="none" fill="rgb(0, 0, 0)" d="M 53.35,42.08 C 53.41,41.33 53.41,40.57 53.3,39.86 53.23,39.51 53.09,39.2 53,38.95 52.9,38.68 52.77,38.47 52.4,38.25 L 52.4,38.17 C 52.78,37.95 53.39,38.16 53.64,38.57 53.92,38.97 53.91,39.43 53.9,39.82 53.88,40.63 53.69,41.38 53.43,42.09 L 53.35,42.08 Z M 53.35,42.08" />
        </g>
        <g id="ranaCurledSide-group89">
            <path id="ranaCurledSide-bezier88" stroke="none" fill="rgb(0, 0, 0)" d="M 49.33,39.52 C 48.46,39.77 47.57,39.96 46.67,40.08 46.21,40.15 45.75,40.24 45.28,40.17 44.83,40.08 44.3,39.95 43.99,39.51 L 44.03,39.45 C 44.49,39.5 44.89,39.43 45.33,39.42 45.75,39.39 46.19,39.47 46.63,39.48 47.52,39.5 48.42,39.48 49.32,39.45 L 49.33,39.52 Z M 49.33,39.52" />
        </g>
        <g id="ranaCurledSide-group90">
            <path id="ranaCurledSide-bezier89" stroke="none" fill="rgb(0, 0, 0)" d="M 47.29,35.83 C 47.2,35.4 47.16,34.95 47.22,34.49 47.24,34.26 47.24,33.99 47.43,33.77 47.59,33.56 48.04,33.37 48.27,33.63 L 48.26,33.7 C 48.05,33.91 48.12,34.03 48.06,34.18 48.03,34.32 47.89,34.46 47.79,34.64 47.63,35.01 47.49,35.42 47.36,35.83 L 47.29,35.83 Z M 47.29,35.83" />
        </g>
        <g id="ranaCurledSide-group91">
            <path id="ranaCurledSide-bezier90" stroke="none" fill="rgb(0, 0, 0)" d="M 40.65,42.95 C 40.03,43.12 39.42,43.34 38.9,43.64 38.64,43.8 38.45,44.02 38.25,44.16 38.03,44.31 37.85,44.47 37.6,44.76 L 37.53,44.75 C 37.35,44.4 37.47,43.94 37.71,43.64 37.95,43.32 38.33,43.2 38.65,43.09 39.32,42.88 39.99,42.83 40.65,42.88 L 40.65,42.95 Z M 40.65,42.95" />
        </g>
        <g id="ranaCurledSide-group92">
            <path id="ranaCurledSide-bezier91" stroke="none" fill="rgb(0, 0, 0)" d="M 38.81,10.45 C 38.04,10.87 37.71,11.82 37.72,12.62 37.73,12.82 37.77,13.02 37.85,13.17 37.89,13.24 37.95,13.3 38,13.34 38.05,13.38 38.13,13.39 38.27,13.45 38.48,13.55 38.57,13.77 38.57,13.94 38.58,14.1 38.54,14.23 38.51,14.36 38.43,14.6 38.34,14.81 38.24,15.02 38.05,15.42 37.81,15.84 37.74,16.16 37.73,16.19 37.73,16.21 37.73,16.2 37.74,16.19 37.72,16.11 37.65,16.06 37.63,16.03 37.54,16.02 37.66,16.04 37.7,16.05 37.67,16.03 37.83,16.09 37.92,16.11 38.1,16.3 38.1,16.45 38.1,16.78 37.99,16.81 37.95,16.89 37.9,16.95 37.85,17 37.81,17.05 37.71,17.14 37.62,17.21 37.53,17.28 37.17,17.56 36.8,17.8 36.45,18.05 36.28,18.17 36.11,18.3 35.99,18.45 35.85,18.59 35.81,18.72 36,18.87 L 35.97,18.94 C 35.86,18.92 35.71,18.86 35.66,18.7 35.6,18.54 35.65,18.39 35.69,18.27 35.8,18.03 35.95,17.85 36.09,17.67 36.39,17.31 36.74,17.01 37.05,16.71 L 37.27,16.5 C 37.3,16.47 37.33,16.44 37.34,16.42 37.37,16.41 37.34,16.34 37.33,16.55 37.33,16.65 37.46,16.79 37.5,16.8 37.61,16.83 37.53,16.8 37.51,16.8 37.52,16.8 37.32,16.78 37.2,16.68 37.05,16.57 36.99,16.38 36.98,16.25 36.98,16.14 37,16.05 37.02,15.97 37.22,15.43 37.49,15.12 37.71,14.73 37.82,14.55 37.92,14.36 38,14.18 38.08,14 38.05,13.87 38.06,13.89 38,13.85 37.85,13.81 37.73,13.7 37.61,13.61 37.52,13.48 37.47,13.36 37.36,13.11 37.34,12.85 37.35,12.61 37.44,11.69 37.91,10.74 38.78,10.38 L 38.81,10.45 Z M 38.81,10.45" />
        </g>
        <g id="ranaCurledSide-group93">
            <path id="ranaCurledSide-bezier92" stroke="none" fill="rgb(0, 0, 0)" d="M 34.52,21.44 C 34.63,21.61 34.7,21.88 34.6,22.1 34.5,22.32 34.32,22.47 34.14,22.59 33.77,22.84 33.38,23.02 33.06,23.25 32.72,23.48 32.51,23.77 32.6,24.09 32.66,24.44 32.91,24.69 33.18,25.11 33.29,25.32 33.43,25.58 33.37,25.93 33.31,26.3 33.01,26.53 32.8,26.65 32.34,26.89 31.91,26.95 31.49,27.03 30.69,27.19 29.8,27.21 29.95,28.2 L 29.88,28.22 C 29.76,28.04 29.67,27.81 29.68,27.55 29.7,27.28 29.88,27.03 30.07,26.87 30.47,26.54 30.92,26.43 31.33,26.3 31.74,26.19 32.16,26.11 32.47,25.98 32.62,25.92 32.7,25.85 32.72,25.79 32.75,25.72 32.72,25.56 32.65,25.39 32.5,25.09 32.16,24.67 32.11,24.16 32.08,23.9 32.15,23.61 32.31,23.4 32.46,23.19 32.66,23.05 32.86,22.94 33.25,22.72 33.66,22.59 34.02,22.4 34.2,22.31 34.37,22.19 34.47,22.03 34.56,21.87 34.54,21.67 34.45,21.47 L 34.52,21.44 Z M 34.52,21.44" />
        </g>
        <g id="ranaCurledSide-group94">
            <path id="ranaCurledSide-bezier93" stroke="none" fill="rgb(0, 0, 0)" d="M 27.55,29.95 C 27.44,30.08 27.31,30.23 27.12,30.29 26.93,30.35 26.71,30.29 26.55,30.19 26.23,29.98 26,29.7 25.78,29.43 25.56,29.17 25.35,28.88 25.12,28.71 25,28.63 24.95,28.64 24.93,28.67 24.87,28.7 24.79,28.82 24.73,28.95 24.61,29.23 24.44,29.67 24.03,29.94 23.82,30.07 23.56,30.13 23.33,30.12 23.09,30.11 22.89,30.04 22.72,29.97 22,29.69 21.6,29.14 21.03,29.69 L 20.97,29.65 C 21.01,29.47 21.11,29.29 21.29,29.15 21.47,29.03 21.72,29 21.92,29.01 22.33,29.04 22.66,29.19 22.97,29.27 23.27,29.36 23.48,29.38 23.65,29.29 23.86,29.2 24.01,28.99 24.21,28.66 24.32,28.5 24.42,28.31 24.68,28.18 24.97,28.03 25.3,28.2 25.43,28.33 25.74,28.62 25.89,28.92 26.09,29.21 26.27,29.5 26.44,29.8 26.68,30 26.91,30.24 27.25,30.16 27.5,29.9 L 27.55,29.95 Z M 27.55,29.95" />
        </g>
        <g id="ranaCurledSide-group95">
            <path id="ranaCurledSide-bezier94" stroke="none" fill="rgb(0, 0, 0)" d="M 19.04,29.44 C 18.94,29.75 18.54,29.82 18.27,29.82 L 17.43,29.8 C 17.17,29.8 16.9,29.82 16.71,29.91 16.5,30.01 16.41,30.14 16.32,30.4 16.3,30.45 16.25,30.55 16.19,30.64 16.12,30.73 16.05,30.8 15.95,30.87 15.76,31 15.54,31.03 15.35,31.03 14.98,31.02 14.7,30.9 14.44,30.79 14.2,30.67 13.95,30.55 13.81,30.52 13.69,30.44 13.51,30.64 13.39,30.92 L 13.32,30.91 C 13.28,30.77 13.26,30.62 13.29,30.44 13.33,30.27 13.5,30.06 13.72,30 14.13,29.9 14.43,30.02 14.7,30.08 14.97,30.17 15.22,30.25 15.4,30.29 15.59,30.31 15.65,30.33 15.78,30.13 15.9,29.87 16.2,29.54 16.53,29.45 16.87,29.35 17.18,29.39 17.46,29.43 L 18.29,29.59 C 18.55,29.63 18.84,29.65 18.98,29.4 L 19.04,29.44 Z M 19.04,29.44" />
        </g>
        <g id="ranaCurledSide-group96">
            <path id="ranaCurledSide-bezier95" stroke="none" fill="rgb(0, 0, 0)" d="M 32.17,22.03 C 32.08,21.63 32.04,21.22 32.09,20.79 32.11,20.58 32.11,20.32 32.29,20.13 32.46,19.95 32.8,19.79 33.06,19.96 L 33.07,20.04 C 32.94,20.28 32.97,20.4 32.92,20.54 32.89,20.68 32.75,20.8 32.66,20.96 32.5,21.28 32.37,21.65 32.25,22.04 L 32.17,22.03 Z M 32.17,22.03" />
        </g>
        <g id="ranaCurledSide-group97">
            <path id="ranaCurledSide-bezier96" stroke="none" fill="rgb(0, 0, 0)" d="M 31.9,19.98 C 31.92,19.67 31.99,19.35 32.13,19.05 32.2,18.89 32.25,18.7 32.44,18.61 32.6,18.54 32.85,18.49 33.06,18.66 L 33.07,18.73 C 32.98,18.97 32.97,19.08 32.92,19.19 32.87,19.29 32.73,19.33 32.61,19.41 32.4,19.58 32.18,19.79 31.97,20.01 L 31.9,19.98 Z M 31.9,19.98" />
        </g>
        <g id="ranaCurledSide-group98">
            <path id="ranaCurledSide-bezier97" stroke="none" fill="rgb(0, 0, 0)" d="M 31.89,18.5 C 31.88,18.15 31.92,17.79 32.04,17.43 32.1,17.25 32.16,17.03 32.36,16.91 32.55,16.79 32.89,16.74 33.07,16.97 L 33.06,17.05 C 32.89,17.25 32.92,17.36 32.86,17.47 32.82,17.57 32.67,17.62 32.56,17.73 32.36,17.96 32.16,18.23 31.97,18.52 L 31.89,18.5 Z M 31.89,18.5" />
        </g>
        <g id="ranaCurledSide-group99">
            <path id="ranaCurledSide-bezier98" stroke="none" fill="rgb(0, 0, 0)" d="M 30.62,24.86 C 30.31,24.6 29.9,24.46 29.53,24.48 29.15,24.48 28.8,24.63 28.49,24.84 28.13,25.1 27.62,25.35 27.1,25.23 26.86,25.18 26.63,25.07 26.51,25 26.45,24.97 26.45,24.93 26.38,24.96 26.3,24.98 26.23,25.07 26.14,25.14 L 26.07,25.12 C 26.06,25 26.06,24.88 26.12,24.74 26.18,24.6 26.39,24.48 26.55,24.48 26.85,24.46 27.01,24.5 27.19,24.49 27.51,24.48 27.83,24.47 28.2,24.32 28.62,24.13 29.1,24.03 29.56,24.11 30.02,24.2 30.42,24.46 30.68,24.81 L 30.62,24.86 Z M 30.62,24.86" />
        </g>
        <g id="ranaCurledSide-group100">
            <path id="ranaCurledSide-bezier99" stroke="none" fill="rgb(0, 0, 0)" d="M 61.26,20.36 C 60.34,19.59 59.48,18.73 58.75,17.75 58.38,17.26 57.99,16.75 57.85,16.09 57.78,15.76 57.76,15.4 57.88,15.05 58,14.7 58.29,14.42 58.61,14.35 L 58.65,14.41 C 58.27,14.92 58.39,15.39 58.57,15.88 58.76,16.37 58.97,16.91 59.25,17.42 59.84,18.43 60.55,19.39 61.31,20.31 L 61.26,20.36 Z M 61.26,20.36" />
        </g>
        <g id="ranaCurledSide-group101">
            <path id="ranaCurledSide-bezier100" stroke="none" fill="rgb(0, 0, 0)" d="M 54.67,13.12 C 54.55,13.7 54.37,14.27 54.07,14.81 53.92,15.08 53.76,15.39 53.42,15.56 53.11,15.75 52.53,15.71 52.38,15.35 L 52.42,15.28 C 52.77,15.23 52.86,15.08 53.01,14.94 53.16,14.78 53.39,14.65 53.58,14.46 53.95,14.06 54.29,13.58 54.6,13.09 L 54.67,13.12 Z M 54.67,13.12" />
        </g>
        <g id="ranaCurledSide-group102">
            <path id="ranaCurledSide-bezier101" stroke="none" fill="rgb(0, 0, 0)" d="M 52.36,22.76 C 52.12,22.17 51.75,21.65 51.33,21.24 51.1,21.04 50.84,20.92 50.64,20.72 50.43,20.52 50.21,20.33 49.97,20.04 L 49.99,19.96 C 50.36,19.87 50.73,19.95 51.05,20.1 51.38,20.26 51.59,20.57 51.78,20.86 52.18,21.43 52.4,22.09 52.44,22.74 L 52.36,22.76 Z M 52.36,22.76" />
        </g>
        <g id="ranaCurledSide-group103">
            <path id="ranaCurledSide-bezier102" stroke="none" fill="rgb(0, 0, 0)" d="M 30.36,14.65 C 30.6,15.35 30.9,16.04 30.84,16.85 30.57,17.55 30.55,18.28 30.48,19.01 30.44,19.74 30.45,20.48 30.42,21.2 30.41,21.56 30.41,21.93 30.43,22.28 30.47,22.62 30.46,23.04 30.74,23.22 L 30.73,23.27 C 30.52,23.26 30.38,23.05 30.28,22.89 30.2,22.71 30.13,22.52 30.09,22.34 29.99,21.96 29.96,21.58 29.92,21.21 29.88,20.45 29.98,19.71 30.08,18.97 30.2,18.25 30.28,17.46 30.59,16.8 30.71,16.13 30.5,15.36 30.31,14.67 L 30.36,14.65 Z M 30.36,14.65" />
        </g>
    </g>
</svg>
