<?xml version="1.0" encoding="UTF-8"?>
<!DOCTYPE svg PUBLIC "-//W3C//DTD SVG 1.1//EN" "http://www.w3.org/Graphics/SVG/1.1/DTD/svg11.dtd">
<svg version="1.1" xmlns="http://www.w3.org/2000/svg" xmlns:xlink="http://www.w3.org/1999/xlink" width="120" height="60"  xml:space="preserve" id="ranacentered">
    <!-- Generated by PaintCode - http://www.paintcodeapp.com -->
    <g id="ranacentered-group">
        <g id="ranacentered-group2">
            <path id="ranacentered-bezier" stroke="none" fill="rgb(0, 0, 0)" d="M 35.85,-8.45 C 34.71,-9.61 33.25,-10.6 31.66,-10.74 30.87,-10.82 30.09,-10.63 29.41,-10.21 28.73,-9.82 28.15,-9.26 27.77,-8.58 27.37,-7.91 27.16,-7.14 27.02,-6.35 26.95,-5.95 26.9,-5.55 26.8,-5.12 26.76,-4.92 26.68,-4.64 26.53,-4.43 26.49,-4.38 26.47,-4.34 26.48,-4.35 26.48,-4.36 26.47,-4.29 26.46,-4.27 26.44,-4.2 26.43,-4.11 26.43,-4.02 26.37,-3.27 26.49,-2.43 26.53,-1.6 26.55,-1.19 26.57,-0.77 26.57,-0.35 26.56,-0.13 26.54,0.08 26.51,0.29 26.47,0.5 26.42,0.73 26.23,0.89 L 26.18,0.83 C 26.37,0.51 26.27,0.06 26.23,-0.33 26.17,-0.73 26.09,-1.13 26.01,-1.54 25.86,-2.35 25.69,-3.15 25.68,-4.06 25.68,-4.17 25.7,-4.3 25.72,-4.42 25.74,-4.5 25.74,-4.54 25.78,-4.64 25.82,-4.75 25.86,-4.8 25.88,-4.84 25.97,-4.96 26,-5.1 26.05,-5.3 L 26.3,-6.5 C 26.49,-7.32 26.77,-8.17 27.26,-8.9 28.2,-10.36 29.95,-11.36 31.7,-11.11 33.43,-10.84 34.83,-9.74 35.9,-8.5 L 35.85,-8.45 Z M 35.85,-8.45" />
        </g>
        <g id="ranacentered-group3">
            <path id="ranacentered-bezier2" stroke="none" fill="rgb(0, 0, 0)" d="M 50.84,13.61 C 51.31,13.62 51.78,13.7 52.25,13.87 52.7,14.04 53.17,14.36 53.42,14.87 53.62,15.28 53.96,15.77 53.76,16.43 53.65,16.75 53.4,16.99 53.15,17.09 52.9,17.2 52.64,17.24 52.39,17.23 L 52.36,17.16 C 52.73,16.81 53.04,16.5 53.04,16.23 53.07,15.97 53.01,15.54 52.87,15.1 52.76,14.74 52.46,14.43 52.08,14.2 51.71,13.97 51.28,13.79 50.83,13.69 L 50.84,13.61 Z M 50.84,13.61" />
        </g>
        <g id="ranacentered-group4">
            <path id="ranacentered-bezier3" stroke="none" fill="rgb(0, 0, 0)" d="M 50.86,17.46 C 50.39,18.04 49.6,18.07 48.93,18.06 48.24,18.03 47.57,17.89 46.91,17.71 45.59,17.32 44.36,16.75 43.1,16.3 41.83,15.84 40.55,15.43 39.3,14.93 38.05,14.44 36.82,13.89 35.54,13.52 L 35.54,13.45 C 36.95,13.4 38.25,13.86 39.55,14.23 40.85,14.64 42.08,15.2 43.32,15.75 44.57,16.27 45.78,16.9 47.02,17.35 47.65,17.57 48.29,17.76 48.95,17.84 49.58,17.9 50.34,17.91 50.79,17.42 L 50.86,17.46 Z M 50.86,17.46" />
        </g>
        <g id="ranacentered-group5">
            <path id="ranacentered-bezier4" stroke="none" fill="rgb(0, 0, 0)" d="M 46.31,17.99 C 45.6,18.62 44.49,18.86 43.56,18.49 42.66,18.18 41.79,17.86 40.9,17.57 40.01,17.29 39.1,17.08 38.22,16.8 37.34,16.51 36.46,16.26 35.54,16.02 L 35.54,15.95 C 36.5,15.77 37.48,15.88 38.41,16.07 39.35,16.27 40.23,16.65 41.1,17.01 41.98,17.37 42.84,17.77 43.69,18.14 44.49,18.56 45.49,18.46 46.27,17.94 L 46.31,17.99 Z M 46.31,17.99" />
        </g>
        <g id="ranacentered-group6">
            <path id="ranacentered-bezier5" stroke="none" fill="rgb(0, 0, 0)" d="M 34.75,16.25 C 33.4,16.23 32.06,16.23 30.72,16.25 29.38,16.26 28.03,16.27 26.71,16.37 26.38,16.39 26.05,16.43 25.73,16.48 25.42,16.52 25.1,16.62 24.74,16.67 24.05,16.77 23.36,16.79 22.68,16.77 21.32,16.69 19.97,16.54 18.66,16.16 L 18.67,16.08 C 20.02,16.04 21.36,16.07 22.69,16.02 23.35,16.01 24.01,15.99 24.65,15.93 24.96,15.91 25.29,15.84 25.65,15.81 26,15.78 26.34,15.77 26.68,15.77 29.39,15.74 32.07,15.94 34.75,16.17 L 34.75,16.25 Z M 34.75,16.25" />
        </g>
        <g id="ranacentered-group7">
            <path id="ranacentered-bezier6" stroke="none" fill="rgb(0, 0, 0)" d="M 32.7,13.9 C 29.89,13.47 27.08,13.1 24.27,12.8 L 20.04,12.45 C 18.64,12.31 17.25,12.15 15.84,12.27 L 15.82,12.2 C 17.19,11.65 18.67,11.7 20.09,11.7 21.53,11.75 22.94,11.99 24.34,12.21 27.15,12.64 29.95,13.19 32.71,13.82 L 32.7,13.9 Z M 32.7,13.9" />
        </g>
        <g id="ranacentered-group8">
            <path id="ranacentered-bezier7" stroke="none" fill="rgb(0, 0, 0)" d="M 14.36,13.47 C 14.95,14.3 15.65,15.07 16.45,15.66 16.84,15.96 17.28,16.21 17.73,16.33 18.24,16.48 18.73,16.65 19.21,16.84 20.18,17.22 21.15,17.62 22.01,18.25 22.43,18.57 22.84,18.92 23.18,19.34 23.52,19.75 23.83,20.26 23.83,20.81 L 23.75,20.83 C 23.31,19.92 22.42,19.41 21.59,18.88 20.74,18.37 19.88,17.83 18.97,17.39 18.52,17.17 18.06,16.97 17.58,16.8 17.06,16.61 16.61,16.3 16.21,15.95 15.43,15.24 14.81,14.4 14.3,13.51 L 14.36,13.47 Z M 14.36,13.47" />
        </g>
        <g id="ranacentered-group9">
            <path id="ranacentered-bezier8" stroke="none" fill="rgb(0, 0, 0)" d="M 21.9,20.16 C 22.27,20.33 22.62,20.55 22.93,20.85 23.09,20.99 23.29,21.15 23.33,21.4 23.38,21.63 23.34,21.97 23.08,22.12 L 23,22.1 C 22.85,21.87 22.73,21.8 22.64,21.68 22.54,21.56 22.53,21.38 22.45,21.21 22.29,20.89 22.08,20.55 21.85,20.22 L 21.9,20.16 Z M 21.9,20.16" />
        </g>
        <g id="ranacentered-group10">
            <path id="ranacentered-bezier9" stroke="none" fill="rgb(0, 0, 0)" d="M 20.39,20.58 C 20.79,20.63 21.17,20.74 21.55,20.93 21.73,21.03 21.97,21.12 22.08,21.36 22.2,21.57 22.2,22 21.91,22.12 L 21.84,22.1 C 21.7,21.86 21.57,21.88 21.46,21.79 21.36,21.72 21.3,21.55 21.19,21.41 20.95,21.15 20.66,20.89 20.36,20.64 L 20.39,20.58 Z M 20.39,20.58" />
        </g>
        <g id="ranacentered-group11">
            <path id="ranacentered-bezier10" stroke="none" fill="rgb(0, 0, 0)" d="M 20.37,21.85 C 19.73,21.91 19.08,21.92 18.4,21.68 18.23,21.62 18.03,21.51 17.88,21.39 17.75,21.28 17.66,21.19 17.56,21.07 17.37,20.83 17.19,20.57 17.06,20.22 L 17.1,20.16 C 17.48,20.18 17.79,20.34 18.07,20.52 18.2,20.62 18.33,20.75 18.42,20.88 18.49,20.98 18.55,21.06 18.67,21.14 18.89,21.3 19.18,21.41 19.47,21.51 19.76,21.62 20.07,21.71 20.38,21.78 L 20.37,21.85 Z M 20.37,21.85" />
        </g>
        <g id="ranacentered-group12">
            <path id="ranacentered-bezier11" stroke="none" fill="rgb(0, 0, 0)" d="M 16.82,19.98 C 15.8,19.75 14.77,19.47 13.74,19.41 13.38,19.34 13.19,19.16 12.96,19.02 L 12.31,18.58 C 11.88,18.3 11.43,18.07 10.96,17.9 10.48,17.73 10.02,17.65 9.48,17.6 8.89,17.51 8.35,17.27 7.89,16.94 7.43,16.59 7.05,16.17 6.75,15.71 6.46,15.24 6.21,14.76 6.13,14.19 L 6.2,14.19 C 6.77,15.04 7.5,15.81 8.31,16.32 8.71,16.57 9.16,16.76 9.6,16.86 10.11,16.96 10.69,17.11 11.18,17.34 11.69,17.56 12.15,17.86 12.58,18.18 13,18.48 13.44,18.92 13.79,19.04 14.85,19.2 15.84,19.58 16.84,19.91 L 16.82,19.98 Z M 16.82,19.98" />
        </g>
        <g id="ranacentered-group13">
            <path id="ranacentered-bezier12" stroke="none" fill="rgb(0, 0, 0)" d="M 9.91,18.89 C 10.48,20.01 11.07,21.13 11.73,22.17 11.9,22.42 12.09,22.67 12.28,22.88 12.48,23.1 12.64,23.29 12.78,23.3 13.08,23.38 13.4,23.45 13.71,23.61 14.03,23.75 14.37,24.07 14.37,24.43 L 14.3,24.46 C 13.88,23.99 13.28,24.14 12.65,24.03 12.61,24.03 12.41,24 12.31,23.94 12.19,23.88 12.12,23.81 12.04,23.75 11.89,23.61 11.79,23.47 11.69,23.33 11.5,23.05 11.35,22.76 11.21,22.47 10.64,21.31 10.21,20.12 9.84,18.91 L 9.91,18.89 Z M 9.91,18.89" />
        </g>
        <g id="ranacentered-group14">
            <path id="ranacentered-bezier13" stroke="none" fill="rgb(0, 0, 0)" d="M 17.1,22.87 C 17.53,22.92 17.95,23.02 18.36,23.23 18.57,23.32 18.81,23.41 18.94,23.64 19.07,23.86 19.14,24.19 18.95,24.44 L 18.88,24.45 C 18.65,24.28 18.51,24.23 18.37,24.13 18.23,24.04 18.15,23.86 18.02,23.72 17.74,23.45 17.41,23.18 17.07,22.94 L 17.1,22.87 Z M 17.1,22.87" />
        </g>
        <g id="ranacentered-group15">
            <path id="ranacentered-bezier14" stroke="none" fill="rgb(0, 0, 0)" d="M 19.26,22.86 C 19.66,22.85 20.08,22.97 20.44,23.24 20.62,23.36 20.84,23.51 20.9,23.73 20.96,23.96 20.94,24.21 20.79,24.44 L 20.71,24.45 C 20.47,24.31 20.35,24.19 20.23,24.08 20.12,23.97 20.11,23.81 20.02,23.66 19.84,23.39 19.57,23.13 19.24,22.94 L 19.26,22.86 Z M 19.26,22.86" />
        </g>
        <g id="ranacentered-group16">
            <path id="ranacentered-bezier15" stroke="none" fill="rgb(0, 0, 0)" d="M 21.44,23.65 C 21.67,23.72 21.87,23.82 22.06,23.97 22.16,24.04 22.3,24.09 22.31,24.23 22.32,24.37 22.3,24.54 22.12,24.69 L 22.05,24.7 C 21.83,24.65 21.73,24.63 21.64,24.58 21.57,24.53 21.59,24.42 21.57,24.32 21.52,24.13 21.46,23.92 21.39,23.7 L 21.44,23.65 Z M 21.44,23.65" />
        </g>
        <g id="ranacentered-group17">
            <path id="ranacentered-bezier16" stroke="none" fill="rgb(0, 0, 0)" d="M 16.82,22.48 C 16.32,22.37 15.84,22.12 15.46,21.72 15.27,21.53 15.06,21.32 15.01,21.03 14.95,20.76 14.99,20.46 15.17,20.2 L 15.24,20.19 C 15.48,20.41 15.59,20.6 15.71,20.77 15.83,20.95 15.85,21.16 15.95,21.36 16.15,21.75 16.46,22.12 16.84,22.41 L 16.82,22.48 Z M 16.82,22.48" />
        </g>
        <g id="ranacentered-group18">
            <path id="ranacentered-bezier17" stroke="none" fill="rgb(0, 0, 0)" d="M 8.71,18.35 C 5.24,18.28 1.76,18.31 -1.7,18.47 -5.16,18.63 -8.64,18.87 -12,19.57 -15.33,20.46 -18.78,21.26 -22.26,21.52 -25.73,21.76 -29.31,21.84 -32.68,20.85 L -32.66,20.78 C -29.24,21.34 -25.76,21.14 -22.34,20.78 -18.9,20.41 -15.53,19.81 -12.12,18.98 -8.67,18.34 -5.19,18.18 -1.71,18.09 1.76,18.04 5.24,18.1 8.71,18.28 L 8.71,18.35 Z M 8.71,18.35" />
        </g>
        <g id="ranacentered-group19">
            <path id="ranacentered-bezier18" stroke="none" fill="rgb(0, 0, 0)" d="M -34.41,22.86 C -33.71,22.97 -33.01,23.16 -32.36,23.49 -32.03,23.65 -31.66,23.83 -31.43,24.17 -31.21,24.5 -31.08,24.99 -31.3,25.36 L -31.37,25.36 C -31.58,25.03 -31.78,24.85 -32.01,24.66 -32.23,24.47 -32.42,24.21 -32.68,24 -33.2,23.6 -33.8,23.24 -34.43,22.94 L -34.41,22.86 Z M -34.41,22.86" />
        </g>
        <g id="ranacentered-group20">
            <path id="ranacentered-bezier19" stroke="none" fill="rgb(0, 0, 0)" d="M -31.33,23.32 C -30.89,23.28 -30.42,23.36 -30,23.63 -29.79,23.75 -29.55,23.91 -29.48,24.17 -29.39,24.42 -29.42,24.7 -29.59,24.94 L -29.66,24.95 C -29.9,24.77 -30.01,24.64 -30.14,24.52 -30.26,24.4 -30.28,24.23 -30.39,24.08 -30.61,23.81 -30.95,23.56 -31.34,23.4 L -31.33,23.32 Z M -31.33,23.32" />
        </g>
        <g id="ranacentered-group21">
            <path id="ranacentered-bezier20" stroke="none" fill="rgb(0, 0, 0)" d="M -29.22,23.33 C -28.95,23.45 -28.69,23.6 -28.44,23.78 -28.32,23.87 -28.15,23.93 -28.1,24.1 -28.06,24.25 -28.01,24.5 -28.21,24.7 L -28.29,24.69 C -28.5,24.6 -28.61,24.6 -28.72,24.52 -28.83,24.45 -28.84,24.3 -28.9,24.17 -29.02,23.92 -29.15,23.66 -29.28,23.39 L -29.22,23.33 Z M -29.22,23.33" />
        </g>
        <g id="ranacentered-group22">
            <path id="ranacentered-bezier21" stroke="none" fill="rgb(0, 0, 0)" d="M -35.15,23.32 C -34.83,23.35 -34.51,23.45 -34.22,23.68 -34.07,23.78 -33.89,23.92 -33.87,24.13 -33.84,24.34 -33.92,24.56 -34.13,24.7 L -34.2,24.69 C -34.4,24.53 -34.49,24.45 -34.57,24.38 -34.65,24.31 -34.62,24.19 -34.67,24.07 -34.78,23.84 -34.96,23.61 -35.18,23.39 L -35.15,23.32 Z M -35.15,23.32" />
        </g>
        <g id="ranacentered-group23">
            <path id="ranacentered-bezier22" stroke="none" fill="rgb(0, 0, 0)" d="M -36.09,24.98 C -36.77,24.86 -37.49,24.68 -38.02,24.08 -38.15,23.93 -38.24,23.74 -38.28,23.54 -38.32,23.3 -38.32,23.21 -38.38,23.04 -38.46,22.74 -38.6,22.43 -38.75,22.14 -39.07,21.55 -39.48,21.02 -39.84,20.46 -40.21,19.91 -40.55,19.36 -41.1,18.94 L -41.08,18.87 C -40.3,18.93 -39.71,19.49 -39.24,20.01 -38.76,20.56 -38.47,21.22 -38.21,21.89 -38.08,22.23 -37.97,22.57 -37.9,22.94 -37.83,23.37 -37.91,23.6 -37.72,23.87 -37.39,24.39 -36.72,24.71 -36.08,24.91 L -36.09,24.98 Z M -36.09,24.98" />
        </g>
        <g id="ranacentered-group24">
            <path id="ranacentered-bezier23" stroke="none" fill="rgb(0, 0, 0)" d="M -35.68,18.94 C -36.76,18.75 -37.83,18.58 -38.91,18.44 -39.44,18.37 -39.99,18.37 -40.5,18.27 -41.03,18.18 -41.53,18.03 -42.07,18.02 L -42.1,17.95 C -41.62,17.54 -40.98,17.53 -40.43,17.52 -39.86,17.53 -39.32,17.71 -38.79,17.85 -37.72,18.12 -36.68,18.47 -35.66,18.87 L -35.68,18.94 Z M -35.68,18.94" />
        </g>
        <g id="ranacentered-group25">
            <path id="ranacentered-bezier24" stroke="none" fill="rgb(0, 0, 0)" d="M -41.83,20.12 C -42.16,19.5 -42.76,19.07 -43.39,18.83 -44.03,18.58 -44.72,18.5 -45.4,18.51 -46.08,18.55 -46.88,18.66 -47.62,18.41 -47.99,18.28 -48.37,18.11 -48.65,17.8 -48.94,17.51 -49.14,17.09 -49.04,16.69 L -48.96,16.7 C -48.7,17.37 -48.06,17.56 -47.43,17.68 -46.79,17.8 -46.14,17.87 -45.39,17.91 -44.65,17.98 -43.9,18.14 -43.24,18.5 -42.58,18.86 -42.01,19.4 -41.76,20.1 L -41.83,20.12 Z M -41.83,20.12" />
        </g>
        <g id="ranacentered-group26">
            <path id="ranacentered-bezier25" stroke="none" fill="rgb(0, 0, 0)" d="M 40.95,6.28 C 40.94,7.1 40.31,8 39.33,8.05 38.39,8.11 37.46,7.29 37.45,6.28 37.42,5.79 37.6,5.27 37.95,4.89 38.3,4.51 38.82,4.3 39.33,4.32 39.85,4.33 40.33,4.63 40.59,5.02 40.87,5.4 40.97,5.86 40.95,6.28 Z M 40.88,6.28 C 40.87,5.86 40.62,5.5 40.31,5.3 39.99,5.09 39.65,5.05 39.33,5.07 38.71,5.1 38.09,5.58 38.05,6.28 37.99,6.96 38.58,7.65 39.33,7.67 39.7,7.7 40.09,7.59 40.4,7.34 40.7,7.09 40.9,6.69 40.88,6.28 Z M 40.88,6.28" />
        </g>
        <g id="ranacentered-group27">
            <path id="ranacentered-bezier26" stroke="none" fill="rgb(0, 0, 0)" d="M 42.88,7.57 C 42.71,6.88 42.48,6.22 42.18,5.62 42.02,5.32 41.81,5.08 41.66,4.81 41.52,4.53 41.37,4.27 41.15,3.94 L 41.18,3.87 C 41.6,3.84 41.99,4.07 42.26,4.36 42.54,4.65 42.64,5.04 42.74,5.4 42.95,6.12 43,6.85 42.95,7.57 L 42.88,7.57 Z M 42.88,7.57" />
        </g>
        <g id="ranacentered-group28">
            <path id="ranacentered-bezier27" stroke="none" fill="rgb(0, 0, 0)" d="M 36.29,6.48 C 36.63,7.32 37.25,8.03 38.01,8.36 38.39,8.53 38.8,8.55 39.2,8.63 39.61,8.71 40.05,8.76 40.53,8.87 L 40.55,8.94 C 40.14,9.23 39.65,9.36 39.14,9.38 38.63,9.39 38.14,9.17 37.72,8.89 36.85,8.34 36.35,7.41 36.21,6.5 L 36.29,6.48 Z M 36.29,6.48" />
        </g>
        <g id="ranacentered-group29">
            <path id="ranacentered-bezier28" stroke="none" fill="rgb(0, 0, 0)" d="M 50.8,12.47 C 50.14,11.8 49.55,11.06 49.06,10.25 48.57,9.45 48.17,8.54 48.09,7.57 47.86,5.69 48.08,3.79 47.07,2.18 46.39,0.34 46.2,-1.58 46.32,-3.49 46.48,-5.38 46.93,-7.31 47.97,-8.91 L 48.03,-8.87 C 47.39,-7.11 47.1,-5.29 47.06,-3.45 47.04,-1.64 47.08,0.26 47.63,1.96 47.78,2.33 48.04,2.82 48.15,3.3 48.27,3.77 48.32,4.26 48.36,4.73 48.41,5.68 48.4,6.61 48.46,7.54 48.48,8.45 48.81,9.32 49.25,10.14 49.69,10.95 50.23,11.72 50.85,12.42 L 50.8,12.47 Z M 50.8,12.47" />
        </g>
        <g id="ranacentered-group30">
            <path id="ranacentered-bezier29" stroke="none" fill="rgb(0, 0, 0)" d="M 35.85,-4.36 C 35.36,-4.58 34.88,-4.84 34.43,-5.14 34.2,-5.29 33.94,-5.42 33.78,-5.66 33.63,-5.89 33.48,-6.19 33.55,-6.54 L 33.62,-6.57 C 33.91,-6.43 34.11,-6.33 34.32,-6.17 34.53,-6.03 34.65,-5.8 34.82,-5.6 35.17,-5.21 35.53,-4.82 35.9,-4.42 L 35.85,-4.36 Z M 35.85,-4.36" />
        </g>
        <g id="ranacentered-group31">
            <path id="ranacentered-bezier30" stroke="none" fill="rgb(0, 0, 0)" d="M 33.03,-5.85 C 32.62,-5.89 32.18,-5.67 31.91,-5.41 31.88,-5.38 31.85,-5.34 31.85,-5.33 31.86,-5.3 31.83,-5.37 31.88,-5.32 L 31.9,-5.3 C 31.92,-5.29 31.96,-5.22 31.95,-5.18 31.94,-5.09 31.89,-5.05 31.87,-5.04 31.82,-5.01 31.8,-5 31.76,-4.99 31.7,-4.97 31.65,-4.95 31.59,-4.93 L 30.95,-4.77 C 30.75,-4.71 30.53,-4.66 30.37,-4.58 30.34,-4.56 30.31,-4.53 30.3,-4.53 30.31,-4.5 30.35,-4.63 30.32,-4.65 30.31,-4.66 30.41,-4.59 30.51,-4.54 30.77,-4.38 30.93,-4.04 30.91,-3.75 30.91,-3.47 30.83,-3.25 30.78,-3.04 30.73,-2.84 30.74,-2.65 30.77,-2.67 30.78,-2.63 30.76,-2.73 31.02,-2.45 31.12,-2.3 31.11,-2.09 31.06,-1.98 31.02,-1.86 30.97,-1.8 30.92,-1.73 30.55,-1.3 30.16,-1.11 29.88,-0.86 29.81,-0.83 29.79,-0.72 29.81,-0.86 29.76,-1.07 29.66,-1.02 29.82,-0.95 29.89,-0.89 30.05,-0.86 30.1,-0.57 30.1,-0.28 29.95,-0.23 29.9,-0.17 29.76,-0.08 29.65,-0.04 29.54,-0.01 L 28.9,0.18 C 28.8,0.21 28.7,0.24 28.62,0.28 28.58,0.31 28.57,0.31 28.56,0.31 28.56,0.33 28.6,0.38 28.64,0.41 L 28.61,0.48 C 28.55,0.46 28.49,0.46 28.43,0.38 28.36,0.28 28.44,0.17 28.47,0.12 28.56,0.02 28.66,-0.05 28.75,-0.12 L 29.31,-0.48 C 29.39,-0.53 29.48,-0.6 29.52,-0.64 29.54,-0.65 29.49,-0.69 29.48,-0.51 29.51,-0.34 29.56,-0.36 29.54,-0.36 29.53,-0.38 29.15,-0.4 29.1,-0.86 29.14,-1.23 29.29,-1.29 29.36,-1.4 29.73,-1.76 30.13,-1.99 30.35,-2.2 30.37,-2.22 30.39,-2.25 30.38,-2.23 30.38,-2.22 30.37,-2.13 30.41,-2.08 30.54,-1.97 30.29,-2.15 30.19,-2.31 30,-2.72 30.15,-3 30.21,-3.21 30.36,-3.65 30.47,-3.97 30.24,-4.13 30.16,-4.2 30.05,-4.22 29.92,-4.43 29.83,-4.54 29.9,-4.8 29.99,-4.84 30.07,-4.91 30.13,-4.94 30.19,-4.97 30.44,-5.06 30.66,-5.1 30.88,-5.13 L 31.53,-5.23 31.67,-5.26 C 31.69,-5.26 31.72,-5.27 31.71,-5.27 31.73,-5.27 31.69,-5.26 31.69,-5.2 31.67,-5.17 31.71,-5.11 31.72,-5.11 L 31.71,-5.12 C 31.68,-5.13 31.56,-5.3 31.62,-5.39 31.65,-5.48 31.7,-5.53 31.75,-5.57 32.14,-5.85 32.59,-6.01 33.05,-5.93 L 33.03,-5.85 Z M 33.03,-5.85" />
        </g>
        <g id="ranacentered-group32">
            <path id="ranacentered-bezier31" stroke="none" fill="rgb(0, 0, 0)" d="M 23.78,-6.1 C 22.81,-6.19 21.83,-6.22 20.88,-6.19 20.4,-6.17 19.93,-6.08 19.46,-6.08 18.99,-6.09 18.53,-6.09 18.01,-6.1 L 17.99,-6.17 C 18.38,-6.55 18.89,-6.73 19.39,-6.83 19.89,-6.93 20.4,-6.85 20.9,-6.79 21.89,-6.69 22.86,-6.47 23.8,-6.18 L 23.78,-6.1 Z M 23.78,-6.1" />
        </g>
        <g id="ranacentered-group33">
            <path id="ranacentered-bezier32" stroke="none" fill="rgb(0, 0, 0)" d="M 19.38,-1.82 C 18.61,-1.62 17.91,-1.23 17.28,-0.79 16.96,-0.56 16.7,-0.28 16.37,-0.07 16.04,0.13 15.7,0.32 15.28,0.47 L 15.22,0.42 C 15.35,-0.01 15.61,-0.36 15.9,-0.66 16.2,-0.96 16.6,-1.13 16.97,-1.31 17.73,-1.66 18.54,-1.9 19.37,-1.9 L 19.38,-1.82 Z M 19.38,-1.82" />
        </g>
        <g id="ranacentered-group34">
            <path id="ranacentered-bezier33" stroke="none" fill="rgb(0, 0, 0)" d="M 17.32,-3.1 C 16.05,-2.5 14.81,-1.81 13.65,-1.04 13.07,-0.64 12.55,-0.19 11.99,0.21 11.43,0.6 10.89,1.01 10.32,1.46 L 10.26,1.42 C 10.5,0.72 10.99,0.12 11.52,-0.37 12.05,-0.88 12.71,-1.22 13.34,-1.55 14.61,-2.23 15.93,-2.77 17.3,-3.18 L 17.32,-3.1 Z M 17.32,-3.1" />
        </g>
        <g id="ranacentered-group35">
            <path id="ranacentered-bezier34" stroke="none" fill="rgb(0, 0, 0)" d="M -48.02,13.89 C -48.41,14.38 -48.79,14.87 -49.14,15.37 -49.31,15.62 -49.44,15.9 -49.65,16.11 -49.86,16.32 -50.08,16.51 -50.38,16.71 L -50.45,16.68 C -50.52,16.31 -50.4,15.96 -50.26,15.67 -50.1,15.38 -49.83,15.18 -49.59,14.97 -49.12,14.54 -48.61,14.16 -48.07,13.83 L -48.02,13.89 Z M -48.02,13.89" />
        </g>
        <g id="ranacentered-group36">
            <path id="ranacentered-bezier35" stroke="none" fill="rgb(0, 0, 0)" d="M -42.06,10.33 C -42.87,11.04 -43.66,11.77 -44.44,12.5 -44.82,12.87 -45.16,13.28 -45.57,13.61 -45.96,13.95 -46.4,14.22 -46.75,14.62 L -46.83,14.6 C -46.85,14.29 -46.71,14.01 -46.58,13.76 -46.44,13.5 -46.27,13.28 -46.09,13.07 -45.73,12.65 -45.26,12.35 -44.82,12.04 -43.95,11.39 -43.04,10.81 -42.1,10.27 L -42.06,10.33 Z M -42.06,10.33" />
        </g>
        <g id="ranacentered-group37">
            <path id="ranacentered-bezier36" stroke="none" fill="rgb(0, 0, 0)" d="M -36.84,10.33 C -37.63,10.67 -38.43,10.98 -39.24,11.26 -39.64,11.41 -40.03,11.6 -40.46,11.65 -40.89,11.7 -41.33,11.73 -41.79,11.59 L -41.8,11.51 C -41.42,11.25 -41.03,11.07 -40.64,10.92 -40.24,10.78 -39.81,10.75 -39.39,10.68 -38.55,10.53 -37.71,10.39 -36.87,10.26 L -36.84,10.33 Z M -36.84,10.33" />
        </g>
        <g id="ranacentered-group38">
            <path id="ranacentered-bezier37" stroke="none" fill="rgb(0, 0, 0)" d="M -48.02,11.58 C -48.56,12.14 -49.11,12.7 -49.66,13.24 -49.93,13.52 -50.17,13.83 -50.48,14.05 -50.8,14.28 -51.14,14.45 -51.51,14.63 L -51.57,14.59 C -51.5,14.13 -51.24,13.8 -50.99,13.5 -50.72,13.19 -50.37,13 -50.05,12.78 -49.4,12.33 -48.74,11.91 -48.07,11.52 L -48.02,11.58 Z M -48.02,11.58" />
        </g>
        <g id="ranacentered-group39">
            <path id="ranacentered-bezier38" stroke="none" fill="rgb(0, 0, 0)" d="M -44.77,7.02 C -45.4,7.6 -46.02,8.18 -46.63,8.77 -46.93,9.07 -47.19,9.4 -47.53,9.65 -47.87,9.9 -48.21,10.13 -48.64,10.32 L -48.7,10.27 C -48.58,9.81 -48.32,9.44 -48.04,9.1 -47.75,8.77 -47.37,8.55 -47.01,8.31 -46.31,7.81 -45.57,7.36 -44.81,6.95 L -44.77,7.02 Z M -44.77,7.02" />
        </g>
        <g id="ranacentered-group40">
            <path id="ranacentered-bezier39" stroke="none" fill="rgb(0, 0, 0)" d="M -47.72,7.6 C -48.4,8.03 -49.08,8.46 -49.74,8.9 -50.07,9.12 -50.37,9.39 -50.73,9.56 -51.09,9.72 -51.45,9.87 -51.89,9.95 L -51.94,9.89 C -51.74,9.49 -51.44,9.18 -51.13,8.92 -50.8,8.66 -50.41,8.53 -50.03,8.37 -49.29,8.04 -48.52,7.76 -47.74,7.53 L -47.72,7.6 Z M -47.72,7.6" />
        </g>
        <g id="ranacentered-group41">
            <path id="ranacentered-bezier40" stroke="none" fill="rgb(0, 0, 0)" d="M -49.24,6.31 C -49.9,6.19 -50.58,6.16 -51.2,6.23 -51.52,6.27 -51.81,6.39 -52.1,6.41 -52.4,6.44 -52.69,6.48 -53.08,6.52 L -53.13,6.46 C -52.97,6.09 -52.65,5.84 -52.3,5.69 -51.95,5.54 -51.56,5.59 -51.2,5.63 -50.49,5.7 -49.82,5.91 -49.22,6.24 L -49.24,6.31 Z M -49.24,6.31" />
        </g>
        <g id="ranacentered-group42">
            <path id="ranacentered-bezier41" stroke="none" fill="rgb(0, 0, 0)" d="M 51.48,16.42 C 51.22,16.35 50.98,16.21 50.79,15.97 50.69,15.86 50.56,15.71 50.59,15.54 50.63,15.37 50.74,15.2 50.96,15.14 L 51.04,15.16 C 51.21,15.33 51.28,15.4 51.34,15.47 51.4,15.53 51.33,15.62 51.33,15.72 51.35,15.91 51.42,16.14 51.52,16.37 L 51.48,16.42 Z M 51.48,16.42" />
        </g>
        <g id="ranacentered-group43">
            <path id="ranacentered-bezier42" stroke="none" fill="rgb(0, 0, 0)" d="M 8.71,-0.1 C 7.49,0.13 6.32,0.57 5.27,1.16 4.75,1.46 4.29,1.85 3.79,2.18 3.29,2.5 2.81,2.86 2.27,3.22 L 2.21,3.17 C 2.44,2.55 2.85,2.02 3.33,1.59 3.81,1.14 4.41,0.87 5.01,0.62 6.19,0.12 7.45,-0.16 8.71,-0.18 L 8.71,-0.1 Z M 8.71,-0.1" />
        </g>
        <g id="ranacentered-group44">
            <path id="ranacentered-bezier43" stroke="none" fill="rgb(0, 0, 0)" d="M 1.55,0.48 C 0.1,0.8 -1.33,1.22 -2.68,1.78 -3.35,2.08 -3.97,2.44 -4.6,2.77 -5.24,3.09 -5.83,3.45 -6.43,3.92 L -6.49,3.88 C -6.21,3.14 -5.62,2.56 -4.99,2.12 -4.35,1.68 -3.6,1.44 -2.88,1.22 -1.44,0.77 0.05,0.51 1.54,0.41 L 1.55,0.48 Z M 1.55,0.48" />
        </g>
        <g id="ranacentered-group45">
            <path id="ranacentered-bezier44" stroke="none" fill="rgb(0, 0, 0)" d="M -0.94,2.56 C -1.96,3.19 -2.94,3.87 -3.86,4.6 -4.31,4.98 -4.71,5.41 -5.15,5.77 -5.59,6.14 -6.02,6.49 -6.42,6.96 L -6.49,6.93 C -6.46,6.28 -6.08,5.7 -5.68,5.23 -5.26,4.76 -4.73,4.44 -4.21,4.12 -3.18,3.47 -2.1,2.93 -0.98,2.49 L -0.94,2.56 Z M -0.94,2.56" />
        </g>
        <g id="ranacentered-group46">
            <path id="ranacentered-bezier45" stroke="none" fill="rgb(0, 0, 0)" d="M -8.85,4.77 C -9.66,5.48 -10.4,6.26 -11.07,7.07 -11.41,7.48 -11.68,7.93 -12.03,8.32 -12.39,8.71 -12.74,9.09 -13.18,9.46 L -13.24,9.43 C -13.16,8.85 -12.92,8.34 -12.63,7.87 -12.34,7.39 -11.91,7.03 -11.51,6.66 -10.71,5.91 -9.84,5.25 -8.9,4.7 L -8.85,4.77 Z M -8.85,4.77" />
        </g>
        <g id="ranacentered-group47">
            <path id="ranacentered-bezier46" stroke="none" fill="rgb(0, 0, 0)" d="M -11.96,5.77 C -12.97,6.57 -14.06,7.27 -15.22,7.86 -15.8,8.15 -16.39,8.46 -17.05,8.6 -17.7,8.72 -18.39,8.77 -19.04,8.56 L -19.04,8.49 C -18.41,8.28 -17.83,8.09 -17.25,7.87 -16.67,7.66 -16.06,7.52 -15.46,7.31 -14.28,6.86 -13.12,6.32 -12,5.7 L -11.96,5.77 Z M -11.96,5.77" />
        </g>
        <g id="ranacentered-group48">
            <path id="ranacentered-bezier47" stroke="none" fill="rgb(0, 0, 0)" d="M -19.03,7.6 C -20.38,8.29 -21.72,9 -23.04,9.73 -23.69,10.11 -24.31,10.53 -24.98,10.87 -25.62,11.24 -26.34,11.5 -26.84,12.02 L -26.91,12 C -26.85,11.57 -26.54,11.26 -26.27,10.98 -25.99,10.69 -25.68,10.46 -25.36,10.23 -24.72,9.79 -24.01,9.51 -23.31,9.2 -21.91,8.58 -20.49,8.03 -19.06,7.54 L -19.03,7.6 Z M -19.03,7.6" />
        </g>
        <g id="ranacentered-group49">
            <path id="ranacentered-bezier48" stroke="none" fill="rgb(0, 0, 0)" d="M -23.79,7.79 C -24.31,8.14 -24.81,8.65 -25.32,9.07 -25.84,9.51 -26.37,9.93 -26.92,10.33 -27.47,10.74 -28.03,11.16 -28.69,11.41 -29.34,11.65 -30.1,11.83 -30.79,11.58 L -30.79,11.51 C -30.13,11.34 -29.58,11.04 -29,10.73 -28.44,10.42 -27.83,10.16 -27.25,9.83 -26.67,9.5 -26.1,9.14 -25.54,8.77 -24.96,8.43 -24.45,8.01 -23.79,7.71 L -23.79,7.79 Z M -23.79,7.79" />
        </g>
        <g id="ranacentered-group50">
            <path id="ranacentered-bezier49" stroke="none" fill="rgb(0, 0, 0)" d="M -27.87,9.05 C -28.88,9.36 -29.89,9.68 -30.88,10.02 -31.38,10.2 -31.85,10.43 -32.35,10.56 -32.85,10.69 -33.34,10.77 -33.85,10.95 L -33.9,10.9 C -33.62,10.36 -33.08,10.09 -32.6,9.85 -32.11,9.62 -31.57,9.55 -31.04,9.44 -29.99,9.23 -28.94,9.08 -27.88,8.98 L -27.87,9.05 Z M -27.87,9.05" />
        </g>
        <g id="ranacentered-group51">
            <path id="ranacentered-bezier50" stroke="none" fill="rgb(0, 0, 0)" d="M -22.94,3.94 C -24.25,4.56 -25.56,5.18 -26.84,5.82 -27.49,6.15 -28.1,6.53 -28.76,6.8 -29.42,7.08 -30.08,7.33 -30.77,7.6 L -30.81,7.54 C -30.36,6.93 -29.72,6.51 -29.1,6.13 -28.46,5.76 -27.77,5.53 -27.09,5.28 -25.73,4.75 -24.36,4.29 -22.97,3.87 L -22.94,3.94 Z M -22.94,3.94" />
        </g>
        <g id="ranacentered-group52">
            <path id="ranacentered-bezier51" stroke="none" fill="rgb(0, 0, 0)" d="M -32.12,6.52 L -35.96,7.72 C -36.6,7.92 -37.22,8.18 -37.87,8.33 -38.52,8.47 -39.17,8.59 -39.86,8.67 L -39.89,8.61 C -39.35,8.14 -38.72,7.86 -38.09,7.61 -37.45,7.37 -36.78,7.27 -36.11,7.14 -34.79,6.86 -33.47,6.63 -32.13,6.45 L -32.12,6.52 Z M -32.12,6.52" />
        </g>
        <g id="ranacentered-group53">
            <path id="ranacentered-bezier52" stroke="none" fill="rgb(0, 0, 0)" d="M -39.32,6.24 C -40.43,6.55 -41.53,6.91 -42.57,7.35 -43.09,7.58 -43.56,7.87 -44.05,8.1 -44.53,8.35 -44.99,8.57 -45.36,9.03 L -45.43,9.01 C -45.44,8.34 -44.91,7.81 -44.43,7.46 -43.93,7.1 -43.34,6.94 -42.77,6.78 -41.64,6.45 -40.49,6.26 -39.33,6.17 L -39.32,6.24 Z M -39.32,6.24" />
        </g>
        <g id="ranacentered-group54">
            <path id="ranacentered-bezier53" stroke="none" fill="rgb(0, 0, 0)" d="M -46.29,2.56 C -47.37,2.79 -48.44,3.02 -49.5,3.28 -50.03,3.42 -50.54,3.61 -51.07,3.7 L -52.69,3.93 -52.73,3.87 C -52.34,3.41 -51.78,3.16 -51.26,2.97 -50.73,2.78 -50.16,2.75 -49.61,2.69 -48.5,2.56 -47.4,2.5 -46.3,2.49 L -46.29,2.56 Z M -46.29,2.56" />
        </g>
        <g id="ranacentered-group55">
            <path id="ranacentered-bezier54" stroke="none" fill="rgb(0, 0, 0)" d="M -43.96,-3.1 C -45.17,-3.02 -46.38,-2.94 -47.58,-2.83 -48.18,-2.77 -48.78,-2.65 -49.37,-2.64 -49.97,-2.62 -50.56,-2.67 -51.15,-2.58 L -51.19,-2.64 C -50.97,-2.9 -50.65,-3.03 -50.36,-3.15 -50.06,-3.26 -49.75,-3.33 -49.45,-3.39 -48.83,-3.5 -48.22,-3.45 -47.6,-3.43 -46.38,-3.41 -45.17,-3.32 -43.96,-3.18 L -43.96,-3.1 Z M -43.96,-3.1" />
        </g>
        <g id="ranacentered-group56">
            <path id="ranacentered-bezier55" stroke="none" fill="rgb(0, 0, 0)" d="M -38.6,-7.88 C -39.57,-8.36 -40.54,-8.81 -41.52,-9.21 -42.02,-9.4 -42.53,-9.54 -43,-9.76 L -44.44,-10.44 -44.44,-10.51 C -43.87,-10.69 -43.28,-10.6 -42.75,-10.46 -42.21,-10.32 -41.73,-10.02 -41.26,-9.75 -40.31,-9.22 -39.42,-8.61 -38.56,-7.94 L -38.6,-7.88 Z M -38.6,-7.88" />
        </g>
        <g id="ranacentered-group57">
            <path id="ranacentered-bezier56" stroke="none" fill="rgb(0, 0, 0)" d="M -31.35,-13.19 L -34.67,-14.62 C -35.22,-14.85 -35.8,-15.03 -36.32,-15.31 -36.85,-15.58 -37.34,-15.92 -37.87,-16.19 L -37.87,-16.26 C -37.21,-16.39 -36.6,-16.18 -36.02,-16 -35.44,-15.8 -34.93,-15.46 -34.4,-15.16 -33.35,-14.56 -32.32,-13.93 -31.32,-13.26 L -31.35,-13.19 Z M -31.35,-13.19" />
        </g>
        <g id="ranacentered-group58">
            <path id="ranacentered-bezier57" stroke="none" fill="rgb(0, 0, 0)" d="M -22.98,-16.2 C -23.98,-16.97 -24.94,-17.78 -25.86,-18.64 -26.33,-19.06 -26.83,-19.47 -27.21,-19.99 -27.39,-20.25 -27.58,-20.51 -27.72,-20.81 -27.84,-21.11 -28.04,-21.44 -27.91,-21.82 L -27.84,-21.8 C -27.58,-21.3 -27.04,-20.92 -26.63,-20.47 -26.2,-20.04 -25.84,-19.53 -25.43,-19.05 -24.62,-18.12 -23.78,-17.18 -22.93,-16.25 L -22.98,-16.2 Z M -22.98,-16.2" />
        </g>
        <g id="ranacentered-group59">
            <path id="ranacentered-bezier58" stroke="none" fill="rgb(0, 0, 0)" d="M -14.82,-18.99 C -15.66,-19.58 -16.48,-20.22 -17.26,-20.91 -17.66,-21.25 -18.08,-21.57 -18.39,-22 -18.69,-22.43 -18.98,-22.9 -19.07,-23.45 L -19.01,-23.49 C -18.57,-23.17 -18.2,-22.84 -17.83,-22.49 -17.46,-22.15 -17.17,-21.72 -16.84,-21.33 -16.16,-20.56 -15.47,-19.8 -14.77,-19.04 L -14.82,-18.99 Z M -14.82,-18.99" />
        </g>
        <g id="ranacentered-group60">
            <path id="ranacentered-bezier59" stroke="none" fill="rgb(0, 0, 0)" d="M -6.48,-18.98 C -7.41,-19.48 -8.31,-20.05 -9.15,-20.72 -9.57,-21.05 -10.02,-21.37 -10.34,-21.84 -10.63,-22.29 -10.93,-22.89 -10.75,-23.47 L -10.67,-23.47 C -10.44,-22.99 -10.09,-22.67 -9.75,-22.31 -9.4,-21.96 -9.11,-21.54 -8.75,-21.16 -8.03,-20.42 -7.25,-19.72 -6.44,-19.05 L -6.48,-18.98 Z M -6.48,-18.98" />
        </g>
        <g id="ranacentered-group61">
            <path id="ranacentered-bezier60" stroke="none" fill="rgb(0, 0, 0)" d="M -3.74,-18.53 C -4.45,-19.16 -5.09,-19.87 -5.65,-20.66 -5.93,-21.06 -6.23,-21.47 -6.34,-21.98 -6.45,-22.46 -6.46,-23.09 -6.08,-23.49 L -6.01,-23.46 C -5.97,-22.97 -5.8,-22.61 -5.63,-22.21 -5.45,-21.82 -5.33,-21.39 -5.13,-20.97 -4.72,-20.15 -4.22,-19.35 -3.68,-18.58 L -3.74,-18.53 Z M -3.74,-18.53" />
        </g>
        <g id="ranacentered-group62">
            <path id="ranacentered-bezier61" stroke="none" fill="rgb(0, 0, 0)" d="M 1.51,-18.2 C 0.84,-18.95 0.17,-19.69 -0.51,-20.41 -0.86,-20.76 -1.25,-21.08 -1.55,-21.45 -1.87,-21.83 -2.13,-22.22 -2.47,-22.6 L -2.44,-22.67 C -1.87,-22.64 -1.42,-22.3 -1.02,-21.98 -0.62,-21.65 -0.35,-21.21 -0.05,-20.79 0.54,-19.97 1.08,-19.12 1.57,-18.24 L 1.51,-18.2 Z M 1.51,-18.2" />
        </g>
        <g id="ranacentered-group63">
            <path id="ranacentered-bezier62" stroke="none" fill="rgb(0, 0, 0)" d="M 8.69,-17.86 C 7.34,-18.67 6.04,-19.57 4.8,-20.56 4.19,-21.06 3.55,-21.55 3.05,-22.19 2.8,-22.52 2.57,-22.86 2.4,-23.24 2.23,-23.61 2.09,-24.06 2.2,-24.47 L 2.27,-24.47 C 2.52,-23.74 3.1,-23.24 3.61,-22.69 4.15,-22.15 4.65,-21.56 5.2,-21.01 6.32,-19.94 7.51,-18.91 8.73,-17.92 L 8.69,-17.86 Z M 8.69,-17.86" />
        </g>
        <g id="ranacentered-group64">
            <path id="ranacentered-bezier63" stroke="none" fill="rgb(0, 0, 0)" d="M 12.08,-19.95 C 11.37,-20.59 10.69,-21.25 10.05,-21.95 9.72,-22.29 9.36,-22.62 9.11,-23.04 8.89,-23.46 8.62,-23.9 8.67,-24.47 L 8.74,-24.48 C 9.06,-24.13 9.41,-23.83 9.72,-23.48 10.03,-23.13 10.25,-22.72 10.51,-22.33 L 12.13,-20 12.08,-19.95 Z M 12.08,-19.95" />
        </g>
        <g id="ranacentered-group65">
            <path id="ranacentered-bezier64" stroke="none" fill="rgb(0, 0, 0)" d="M 17.06,-18.19 L 14.51,-19.92 C 14.08,-20.2 13.62,-20.44 13.24,-20.76 12.84,-21.08 12.5,-21.45 12.1,-21.77 L 12.11,-21.84 C 12.71,-21.89 13.2,-21.62 13.66,-21.38 14.12,-21.12 14.49,-20.75 14.87,-20.4 15.65,-19.72 16.39,-19 17.11,-18.25 L 17.06,-18.19 Z M 17.06,-18.19" />
        </g>
        <g id="ranacentered-group66">
            <path id="ranacentered-bezier65" stroke="none" fill="rgb(0, 0, 0)" d="M 19.22,-18.53 C 18.64,-19.09 18.24,-19.82 17.97,-20.58 17.83,-20.96 17.68,-21.35 17.68,-21.77 17.69,-22.17 17.76,-22.59 17.96,-22.97 L 18.04,-22.97 C 18.24,-22.58 18.33,-22.21 18.43,-21.85 18.52,-21.48 18.5,-21.11 18.55,-20.73 18.68,-20 18.88,-19.25 19.28,-18.58 L 19.22,-18.53 Z M 19.22,-18.53" />
        </g>
        <g id="ranacentered-group67">
            <path id="ranacentered-bezier66" stroke="none" fill="rgb(0, 0, 0)" d="M 24.93,-15.45 C 24.02,-16.19 23.15,-16.98 22.34,-17.85 21.93,-18.28 21.49,-18.7 21.2,-19.24 20.91,-19.76 20.65,-20.37 20.71,-21.01 L 20.79,-21.02 C 21.11,-20.52 21.47,-20.1 21.82,-19.65 22.17,-19.21 22.46,-18.71 22.8,-18.23 23.49,-17.3 24.22,-16.39 24.99,-15.5 L 24.93,-15.45 Z M 24.93,-15.45" />
        </g>
        <g id="ranacentered-group68">
            <path id="ranacentered-bezier67" stroke="none" fill="rgb(0, 0, 0)" d="M 25.25,-17.88 C 25.03,-18.52 24.85,-19.17 24.75,-19.84 24.69,-20.18 24.6,-20.53 24.68,-20.88 24.75,-21.22 24.9,-21.62 25.26,-21.83 L 25.32,-21.79 25.42,-20.82 C 25.45,-20.52 25.37,-20.2 25.35,-19.88 25.32,-19.23 25.32,-18.56 25.33,-17.9 L 25.25,-17.88 Z M 25.25,-17.88" />
        </g>
        <g id="ranacentered-group69">
            <path id="ranacentered-bezier68" stroke="none" fill="rgb(0, 0, 0)" d="M 28.45,-13.66 C 27.81,-14.54 27.29,-15.52 26.97,-16.6 26.8,-17.13 26.65,-17.69 26.7,-18.27 26.76,-18.85 26.95,-19.43 27.34,-19.86 L 27.41,-19.84 C 27.41,-19.26 27.41,-18.77 27.45,-18.26 27.49,-17.76 27.47,-17.25 27.55,-16.73 27.73,-15.71 28.06,-14.68 28.52,-13.7 L 28.45,-13.66 Z M 28.45,-13.66" />
        </g>
        <g id="ranacentered-group70">
            <path id="ranacentered-bezier69" stroke="none" fill="rgb(0, 0, 0)" d="M 31.6,-14.69 C 30.9,-15.03 30.24,-15.46 29.65,-16 29.35,-16.27 29.03,-16.55 28.86,-16.95 28.7,-17.34 28.63,-17.82 28.84,-18.22 L 28.91,-18.22 C 29.13,-17.85 29.31,-17.59 29.52,-17.31 29.73,-17.04 29.88,-16.71 30.09,-16.41 30.54,-15.82 31.07,-15.27 31.65,-14.75 L 31.6,-14.69 Z M 31.6,-14.69" />
        </g>
        <g id="ranacentered-group71">
            <path id="ranacentered-bezier70" stroke="none" fill="rgb(0, 0, 0)" d="M 34.69,-11.64 C 34.48,-12.59 34.18,-13.53 33.78,-14.38 33.56,-14.81 33.29,-15.18 33.07,-15.57 32.85,-15.97 32.61,-16.33 32.27,-16.73 L 32.31,-16.8 C 32.85,-16.75 33.34,-16.41 33.68,-16.01 34.03,-15.6 34.19,-15.09 34.33,-14.6 34.64,-13.63 34.76,-12.63 34.77,-11.64 L 34.69,-11.64 Z M 34.69,-11.64" />
        </g>
        <g id="ranacentered-group72">
            <path id="ranacentered-bezier71" stroke="none" fill="rgb(0, 0, 0)" d="M -24.73,-13.65 C -25.86,-14.46 -26.93,-15.34 -27.94,-16.3 -28.45,-16.78 -28.98,-17.25 -29.38,-17.84 -29.76,-18.43 -30.12,-19.1 -30.16,-19.84 L -30.09,-19.86 C -29.67,-19.29 -29.23,-18.81 -28.78,-18.3 -28.34,-17.8 -27.95,-17.24 -27.51,-16.72 -26.61,-15.68 -25.66,-14.68 -24.68,-13.71 L -24.73,-13.65 Z M -24.73,-13.65" />
        </g>
        <g id="ranacentered-group73">
            <path id="ranacentered-bezier72" stroke="none" fill="rgb(0, 0, 0)" d="M -35.19,-10.93 C -35.83,-11.35 -36.53,-11.66 -37.22,-11.89 -37.58,-12 -37.95,-12.04 -38.28,-12.18 -38.62,-12.32 -38.96,-12.45 -39.33,-12.69 L -39.32,-12.76 C -38.92,-12.93 -38.5,-12.96 -38.1,-12.9 -37.69,-12.85 -37.33,-12.64 -36.99,-12.45 -36.28,-12.07 -35.65,-11.58 -35.14,-10.98 L -35.19,-10.93 Z M -35.19,-10.93" />
        </g>
        <g id="ranacentered-group74">
            <path id="ranacentered-bezier73" stroke="none" fill="rgb(0, 0, 0)" d="M -36.87,-5.44 C -38.43,-5.78 -40.01,-6.08 -41.58,-6.33 -42.37,-6.44 -43.17,-6.49 -43.94,-6.61 -44.72,-6.73 -45.48,-6.88 -46.28,-6.86 L -46.3,-6.93 C -45.56,-7.36 -44.67,-7.37 -43.87,-7.36 -43.04,-7.33 -42.25,-7.11 -41.47,-6.92 -39.9,-6.54 -38.36,-6.06 -36.84,-5.51 L -36.87,-5.44 Z M -36.87,-5.44" />
        </g>
        <g id="ranacentered-group75">
            <path id="ranacentered-bezier74" stroke="none" fill="rgb(0, 0, 0)" d="M -42.35,-0.81 C -43.46,-0.46 -44.59,-0.16 -45.74,0.06 -46.31,0.18 -46.89,0.32 -47.48,0.31 -48.07,0.29 -48.7,0.21 -49.24,-0.1 L -49.22,-0.18 -47.52,-0.44 C -46.96,-0.52 -46.39,-0.5 -45.82,-0.54 -44.67,-0.62 -43.52,-0.74 -42.37,-0.88 L -42.35,-0.81 Z M -42.35,-0.81" />
        </g>
        <g id="ranacentered-group76">
            <path id="ranacentered-bezier75" stroke="none" fill="rgb(0, 0, 0)" d="M -8.86,2.21 C -10.06,2.98 -11.33,3.63 -12.67,4.17 -13.33,4.44 -14.01,4.73 -14.73,4.84 -15.45,4.94 -16.2,4.97 -16.92,4.77 L -16.92,4.7 C -16.22,4.48 -15.56,4.3 -14.89,4.11 -14.23,3.91 -13.54,3.79 -12.86,3.6 -11.52,3.21 -10.19,2.72 -8.9,2.14 L -8.86,2.21 Z M -8.86,2.21" />
        </g>
        <g id="ranacentered-group77">
            <path id="ranacentered-bezier76" stroke="none" fill="rgb(0, 0, 0)" d="M -14.81,-17.11 C -16.15,-17.64 -17.51,-18.15 -18.87,-18.6 -19.56,-18.81 -20.26,-18.97 -20.92,-19.2 -21.59,-19.43 -22.24,-19.67 -22.95,-19.81 L -22.96,-19.89 C -22.24,-20.16 -21.44,-20.06 -20.72,-19.92 -19.99,-19.78 -19.33,-19.45 -18.66,-19.16 -17.32,-18.57 -16.03,-17.91 -14.78,-17.17 L -14.81,-17.11 Z M -14.81,-17.11" />
        </g>
        <g id="ranacentered-group78">
            <path id="ranacentered-bezier77" stroke="none" fill="rgb(0, 0, 0)" d="M -21.22,-7.87 C -22.97,-8.15 -24.71,-8.48 -26.44,-8.87 -27.31,-9.07 -28.19,-9.23 -29.03,-9.55 -29.44,-9.71 -29.86,-9.88 -30.26,-10.1 -30.65,-10.32 -31.07,-10.55 -31.36,-10.93 L -31.31,-10.98 C -30.51,-10.65 -29.64,-10.5 -28.8,-10.26 -27.95,-10.04 -27.13,-9.72 -26.29,-9.45 -24.6,-8.93 -22.9,-8.43 -21.2,-7.95 L -21.22,-7.87 Z M -21.22,-7.87" />
        </g>
        <g id="ranacentered-group79">
            <path id="ranacentered-bezier78" stroke="none" fill="rgb(0, 0, 0)" d="M -27.43,-6.1 L -31.05,-6.95 C -31.65,-7.08 -32.27,-7.15 -32.85,-7.34 -33.44,-7.5 -34,-7.74 -34.6,-7.87 L -34.61,-7.95 C -34.3,-8.11 -33.96,-8.12 -33.64,-8.13 -33.32,-8.15 -33,-8.11 -32.69,-8.07 -32.06,-7.98 -31.47,-7.74 -30.89,-7.53 -29.7,-7.13 -28.55,-6.67 -27.41,-6.18 L -27.43,-6.1 Z M -27.43,-6.1" />
        </g>
        <g id="ranacentered-group80">
            <path id="ranacentered-bezier79" stroke="none" fill="rgb(0, 0, 0)" d="M -32.13,-0.81 C -32.74,-0.88 -33.32,-1.03 -33.91,-1.17 -34.49,-1.33 -35.07,-1.51 -35.65,-1.7 -36.22,-1.89 -36.82,-2.06 -37.34,-2.39 -37.61,-2.56 -37.86,-2.74 -38.09,-2.97 -38.31,-3.19 -38.54,-3.46 -38.62,-3.79 L -38.55,-3.82 C -38.07,-3.48 -37.53,-3.3 -36.99,-3.06 -36.46,-2.83 -35.96,-2.52 -35.42,-2.25 -34.89,-2 -34.34,-1.75 -33.79,-1.53 -33.24,-1.29 -32.69,-1.05 -32.12,-0.88 L -32.13,-0.81 Z M -32.13,-0.81" />
        </g>
        <g id="ranacentered-group81">
            <path id="ranacentered-bezier80" stroke="none" fill="rgb(0, 0, 0)" d="M -38.6,3.49 C -39.73,2.98 -40.86,2.51 -42,2.08 -42.57,1.88 -43.16,1.74 -43.71,1.51 -44.27,1.29 -44.79,1.05 -45.39,0.9 L -45.4,0.82 C -44.78,0.56 -44.09,0.66 -43.48,0.8 -42.86,0.94 -42.31,1.25 -41.76,1.54 -40.65,2.09 -39.59,2.73 -38.57,3.42 L -38.6,3.49 Z M -38.6,3.49" />
        </g>
        <g id="ranacentered-group82">
            <path id="ranacentered-bezier81" stroke="none" fill="rgb(0, 0, 0)" d="M -43.21,4.73 C -44.12,4.9 -45.04,5.02 -45.97,5.07 -46.44,5.11 -46.91,5.17 -47.38,5.08 -47.83,4.97 -48.37,4.84 -48.69,4.39 L -48.65,4.33 C -48.18,4.38 -47.76,4.32 -47.31,4.33 -46.86,4.33 -46.42,4.43 -45.96,4.47 -45.05,4.55 -44.13,4.61 -43.21,4.66 L -43.21,4.73 Z M -43.21,4.73" />
        </g>
        <g id="ranacentered-group83">
            <path id="ranacentered-bezier82" stroke="none" fill="rgb(0, 0, 0)" d="M -26.27,1.48 C -27.81,1.83 -29.36,2.15 -30.92,2.42 -31.69,2.57 -32.47,2.75 -33.27,2.78 -34.06,2.8 -34.87,2.81 -35.67,2.56 L -35.66,2.49 C -34.88,2.33 -34.12,2.15 -33.34,2.03 -32.57,1.9 -31.78,1.89 -30.99,1.83 L -26.28,1.41 -26.27,1.48 Z M -26.27,1.48" />
        </g>
        <g id="ranacentered-group84">
            <path id="ranacentered-bezier83" stroke="none" fill="rgb(0, 0, 0)" d="M -14.78,-0.41 C -15.21,-0.08 -15.57,0.43 -15.95,0.86 -16.34,1.31 -16.73,1.75 -17.13,2.18 -17.53,2.62 -17.92,3.08 -18.44,3.41 -18.69,3.57 -18.96,3.73 -19.26,3.84 -19.55,3.94 -19.89,4.03 -20.21,3.94 L -20.21,3.86 C -19.69,3.6 -19.32,3.19 -18.89,2.82 -18.48,2.43 -17.99,2.11 -17.54,1.74 -17.1,1.37 -16.66,0.99 -16.22,0.6 -15.75,0.24 -15.36,-0.2 -14.8,-0.48 L -14.78,-0.41 Z M -14.78,-0.41" />
        </g>
        <g id="ranacentered-group85">
            <path id="ranacentered-bezier84" stroke="none" fill="rgb(0, 0, 0)" d="M -20.79,-1.44 C -22.29,-1.59 -23.76,-1.8 -25.24,-1.97 -25.98,-2.05 -26.72,-2.08 -27.45,-2.21 -28.17,-2.33 -28.89,-2.54 -29.61,-2.57 L -29.64,-2.64 C -29.29,-2.87 -28.88,-2.9 -28.5,-2.94 -28.12,-2.98 -27.74,-2.97 -27.36,-2.96 -26.6,-2.92 -25.87,-2.73 -25.14,-2.57 L -22.95,-2.07 -20.79,-1.51 -20.79,-1.44 Z M -20.79,-1.44" />
        </g>
        <g id="ranacentered-group86">
            <path id="ranacentered-bezier85" stroke="none" fill="rgb(0, 0, 0)" d="M -18.89,-4.36 C -19.72,-4.7 -20.55,-5.03 -21.37,-5.33 -21.79,-5.47 -22.22,-5.56 -22.61,-5.75 -23,-5.92 -23.35,-6.14 -23.78,-6.28 L -23.8,-6.36 C -23.34,-6.64 -22.81,-6.54 -22.37,-6.46 -21.91,-6.35 -21.52,-6.1 -21.13,-5.88 -20.33,-5.44 -19.58,-4.95 -18.86,-4.42 L -18.89,-4.36 Z M -18.89,-4.36" />
        </g>
        <g id="ranacentered-group87">
            <path id="ranacentered-bezier86" stroke="none" fill="rgb(0, 0, 0)" d="M -18.89,-9.94 C -19.86,-10.24 -20.84,-10.51 -21.81,-10.74 -22.31,-10.84 -22.8,-10.88 -23.27,-11 -23.74,-11.12 -24.18,-11.27 -24.69,-11.27 L -24.73,-11.34 C -24.29,-11.75 -23.67,-11.77 -23.15,-11.75 -22.61,-11.71 -22.13,-11.5 -21.64,-11.31 -20.67,-10.95 -19.75,-10.51 -18.86,-10.01 L -18.89,-9.94 Z M -18.89,-9.94" />
        </g>
        <g id="ranacentered-group88">
            <path id="ranacentered-bezier87" stroke="none" fill="rgb(0, 0, 0)" d="M -14.82,-12.19 C -15.69,-12.82 -16.58,-13.43 -17.49,-13.98 -17.94,-14.25 -18.43,-14.47 -18.85,-14.75 -19.29,-15.01 -19.68,-15.33 -20.2,-15.44 L -20.22,-15.51 C -19.96,-15.69 -19.62,-15.69 -19.34,-15.65 -19.04,-15.61 -18.77,-15.52 -18.51,-15.41 -17.98,-15.19 -17.56,-14.82 -17.14,-14.47 -16.29,-13.79 -15.5,-13.04 -14.77,-12.25 L -14.82,-12.19 Z M -14.82,-12.19" />
        </g>
        <g id="ranacentered-group89">
            <path id="ranacentered-bezier88" stroke="none" fill="rgb(0, 0, 0)" d="M -5.48,-14.69 C -6.65,-15.34 -7.8,-16.04 -8.9,-16.81 -9.46,-17.19 -10.04,-17.55 -10.51,-18.05 -10.75,-18.3 -10.98,-18.56 -11.17,-18.85 -11.36,-19.14 -11.55,-19.47 -11.58,-19.84 L -11.51,-19.86 C -11.06,-19.37 -10.52,-19.02 -10.01,-18.6 -9.5,-18.2 -9.04,-17.72 -8.54,-17.29 -7.53,-16.43 -6.49,-15.58 -5.44,-14.75 L -5.48,-14.69 Z M -5.48,-14.69" />
        </g>
        <g id="ranacentered-group90">
            <path id="ranacentered-bezier89" stroke="none" fill="rgb(0, 0, 0)" d="M 24.25,-9.16 C 22.86,-9.7 21.47,-10.2 20.06,-10.65 19.35,-10.86 18.63,-11.02 17.94,-11.25 17.25,-11.46 16.58,-11.72 15.84,-11.8 L 15.82,-11.88 C 16.56,-12.21 17.39,-12.1 18.13,-11.97 18.88,-11.83 19.57,-11.51 20.26,-11.21 21.65,-10.63 22.99,-9.96 24.29,-9.23 L 24.25,-9.16 Z M 24.25,-9.16" />
        </g>
        <g id="ranacentered-group91">
            <path id="ranacentered-bezier90" stroke="none" fill="rgb(0, 0, 0)" d="M 26.35,-11.61 C 25.26,-12.16 24.19,-12.77 23.15,-13.44 22.63,-13.78 22.09,-14.09 21.65,-14.54 21.43,-14.77 21.21,-15 21.04,-15.28 20.87,-15.55 20.69,-15.86 20.71,-16.22 L 20.79,-16.23 C 21.15,-15.77 21.68,-15.47 22.14,-15.1 22.62,-14.75 23.04,-14.32 23.51,-13.93 24.45,-13.16 25.42,-12.41 26.39,-11.67 L 26.35,-11.61 Z M 26.35,-11.61" />
        </g>
        <g id="ranacentered-group92">
            <path id="ranacentered-bezier91" stroke="none" fill="rgb(0, 0, 0)" d="M 18.6,-13.83 L 15,-15.48 C 14.4,-15.74 13.77,-15.96 13.2,-16.27 12.62,-16.58 12.08,-16.93 11.49,-17.25 L 11.5,-17.32 C 12.22,-17.4 12.88,-17.17 13.51,-16.96 14.14,-16.72 14.7,-16.35 15.27,-16.02 16.42,-15.35 17.54,-14.64 18.64,-13.9 L 18.6,-13.83 Z M 18.6,-13.83" />
        </g>
        <g id="ranacentered-group93">
            <path id="ranacentered-bezier92" stroke="none" fill="rgb(0, 0, 0)" d="M 10.69,-13.19 C 9.62,-13.78 8.59,-14.42 7.59,-15.12 7.09,-15.47 6.57,-15.8 6.15,-16.26 5.74,-16.72 5.34,-17.24 5.18,-17.87 L 5.24,-17.91 6.66,-16.81 C 7.12,-16.44 7.52,-16 7.97,-15.59 8.86,-14.79 9.79,-14.02 10.73,-13.25 L 10.69,-13.19 Z M 10.69,-13.19" />
        </g>
        <g id="ranacentered-group94">
            <path id="ranacentered-bezier93" stroke="none" fill="rgb(0, 0, 0)" d="M 16.82,-8.19 C 15.56,-8.69 14.3,-9.18 13.04,-9.64 12.4,-9.86 11.76,-10.02 11.15,-10.28 10.53,-10.51 9.94,-10.85 9.31,-10.92 L 9.28,-10.99 C 9.61,-11.2 10,-11.18 10.35,-11.17 10.7,-11.15 11.04,-11.07 11.38,-10.99 12.05,-10.82 12.66,-10.49 13.27,-10.19 14.5,-9.6 15.69,-8.95 16.85,-8.25 L 16.82,-8.19 Z M 16.82,-8.19" />
        </g>
        <g id="ranacentered-group95">
            <path id="ranacentered-bezier94" stroke="none" fill="rgb(0, 0, 0)" d="M 15.27,-5.34 C 14.87,-5.22 14.52,-5.34 14.15,-5.37 13.79,-5.42 13.43,-5.49 13.06,-5.55 12.35,-5.7 11.63,-5.88 10.92,-6.07 10.21,-6.25 9.49,-6.42 8.82,-6.75 8.48,-6.92 8.15,-7.09 7.84,-7.32 7.55,-7.55 7.2,-7.79 7.09,-8.21 L 7.16,-8.24 C 7.7,-7.83 8.44,-7.7 9.1,-7.44 9.78,-7.22 10.43,-6.9 11.11,-6.64 11.78,-6.38 12.47,-6.14 13.16,-5.92 13.5,-5.8 13.85,-5.69 14.2,-5.59 14.53,-5.5 14.93,-5.36 15.22,-5.39 L 15.27,-5.34 Z M 15.27,-5.34" />
        </g>
        <g id="ranacentered-group96">
            <path id="ranacentered-bezier95" stroke="none" fill="rgb(0, 0, 0)" d="M 8.72,-4.35 C 7.52,-4 6.32,-3.64 5.14,-3.26 4.55,-3.07 3.98,-2.82 3.38,-2.68 2.78,-2.53 2.19,-2.43 1.56,-2.29 L 1.52,-2.36 C 1.97,-2.86 2.57,-3.15 3.15,-3.39 3.74,-3.63 4.37,-3.72 4.99,-3.84 6.22,-4.09 7.46,-4.28 8.7,-4.43 L 8.72,-4.35 Z M 8.72,-4.35" />
        </g>
        <g id="ranacentered-group97">
            <path id="ranacentered-bezier96" stroke="none" fill="rgb(0, 0, 0)" d="M 10.69,-8.71 C 9.39,-9.16 8.1,-9.65 6.83,-10.22 6.2,-10.49 5.54,-10.74 4.96,-11.14 4.67,-11.34 4.39,-11.55 4.13,-11.81 3.88,-12.06 3.61,-12.33 3.51,-12.71 L 3.57,-12.74 C 4.1,-12.33 4.75,-12.1 5.34,-11.79 5.95,-11.49 6.51,-11.1 7.1,-10.75 8.3,-10.08 9.51,-9.42 10.72,-8.78 L 10.69,-8.71 Z M 10.69,-8.71" />
        </g>
        <g id="ranacentered-group98">
            <path id="ranacentered-bezier97" stroke="none" fill="rgb(0, 0, 0)" d="M 6.15,-13.9 C 4.92,-14.36 3.67,-14.8 2.43,-15.19 1.8,-15.38 1.16,-15.5 0.56,-15.71 -0.05,-15.9 -0.63,-16.16 -1.28,-16.19 L -1.31,-16.26 C -1.01,-16.47 -0.63,-16.52 -0.28,-16.53 0.07,-16.54 0.41,-16.5 0.74,-16.44 1.42,-16.32 2.03,-16.02 2.63,-15.75 3.86,-15.23 5.04,-14.63 6.18,-13.97 L 6.15,-13.9 Z M 6.15,-13.9" />
        </g>
        <g id="ranacentered-group99">
            <path id="ranacentered-bezier98" stroke="none" fill="rgb(0, 0, 0)" d="M 2.42,-9.58 C 1.17,-9.94 -0.06,-10.35 -1.28,-10.85 -1.89,-11.09 -2.51,-11.31 -3.07,-11.69 -3.34,-11.88 -3.61,-12.08 -3.85,-12.33 -4.09,-12.57 -4.33,-12.85 -4.41,-13.21 L -4.34,-13.24 C -3.85,-12.84 -3.26,-12.62 -2.69,-12.33 -2.12,-12.06 -1.59,-11.7 -1.02,-11.39 0.11,-10.79 1.28,-10.21 2.45,-9.65 L 2.42,-9.58 Z M 2.42,-9.58" />
        </g>
        <g id="ranacentered-group100">
            <path id="ranacentered-bezier99" stroke="none" fill="rgb(0, 0, 0)" d="M -8.9,-12.2 C -9.59,-12.81 -10.3,-13.39 -11.03,-13.92 -11.4,-14.18 -11.8,-14.38 -12.14,-14.65 -12.49,-14.92 -12.8,-15.18 -13.21,-15.44 L -13.2,-15.51 C -12.7,-15.66 -12.17,-15.49 -11.74,-15.28 -11.3,-15.07 -10.97,-14.71 -10.64,-14.38 -9.97,-13.72 -9.38,-13.01 -8.85,-12.25 L -8.9,-12.2 Z M -8.9,-12.2" />
        </g>
        <g id="ranacentered-group101">
            <path id="ranacentered-bezier100" stroke="none" fill="rgb(0, 0, 0)" d="M 0.2,-7.87 C -1.06,-8.01 -2.31,-8.19 -3.56,-8.43 -4.18,-8.55 -4.82,-8.63 -5.42,-8.87 -6.01,-9.12 -6.63,-9.4 -7.07,-9.94 L -7.02,-10 C -6.41,-9.83 -5.8,-9.74 -5.2,-9.59 -4.59,-9.45 -4.01,-9.21 -3.41,-9.01 -2.21,-8.65 -1,-8.29 0.21,-7.95 L 0.2,-7.87 Z M 0.2,-7.87" />
        </g>
        <g id="ranacentered-group102">
            <path id="ranacentered-bezier101" stroke="none" fill="rgb(0, 0, 0)" d="M -9.97,-6.28 C -11.14,-6.6 -12.31,-6.9 -13.47,-7.19 -14.06,-7.32 -14.66,-7.41 -15.22,-7.59 -15.79,-7.77 -16.33,-7.99 -16.91,-8.18 L -16.92,-8.26 C -16.3,-8.47 -15.65,-8.4 -15.04,-8.32 -14.43,-8.22 -13.87,-7.98 -13.3,-7.76 -12.16,-7.34 -11.04,-6.87 -9.95,-6.35 L -9.97,-6.28 Z M -9.97,-6.28" />
        </g>
        <g id="ranacentered-group103">
            <path id="ranacentered-bezier102" stroke="none" fill="rgb(0, 0, 0)" d="M -7.62,-2.85 C -8.32,-2.76 -9.02,-2.87 -9.7,-2.94 -10.39,-3.04 -11.07,-3.17 -11.75,-3.31 -12.43,-3.45 -13.12,-3.56 -13.77,-3.83 -14.4,-4.12 -15.07,-4.43 -15.54,-5.02 L -15.49,-5.08 C -14.84,-4.85 -14.18,-4.73 -13.52,-4.55 -12.87,-4.37 -12.25,-4.1 -11.6,-3.89 -10.95,-3.68 -10.29,-3.48 -9.63,-3.31 -8.97,-3.14 -8.3,-2.94 -7.63,-2.92 L -7.62,-2.85 Z M -7.62,-2.85" />
        </g>
        <g id="ranacentered-group104">
            <path id="ranacentered-bezier103" stroke="none" fill="rgb(0, 0, 0)" d="M -1.31,-3.77 C -2.42,-4.24 -3.53,-4.73 -4.62,-5.24 -5.17,-5.49 -5.74,-5.71 -6.24,-6.04 -6.74,-6.38 -7.24,-6.75 -7.65,-7.24 L -7.61,-7.3 C -6.99,-7.16 -6.43,-6.95 -5.88,-6.7 -5.33,-6.45 -4.84,-6.09 -4.33,-5.77 -3.31,-5.14 -2.29,-4.5 -1.27,-3.84 L -1.31,-3.77 Z M -1.31,-3.77" />
        </g>
        <g id="ranacentered-group105">
            <path id="ranacentered-bezier104" stroke="none" fill="rgb(0, 0, 0)" d="M -35.81,19.77 C -35.29,20.08 -34.78,20.43 -34.31,20.84 -34.08,21.04 -33.84,21.29 -33.67,21.54 -33.54,21.71 -33.3,21.79 -33.03,21.86 -32.48,21.97 -31.86,21.94 -31.26,22.09 -30.68,22.24 -29.96,22.45 -29.6,23.04 L -29.65,23.09 C -30.22,22.87 -30.78,22.89 -31.38,22.83 -31.97,22.78 -32.57,22.65 -33.2,22.43 -33.49,22.32 -33.86,22.16 -34.07,21.82 -34.22,21.55 -34.38,21.33 -34.58,21.1 -34.95,20.64 -35.39,20.22 -35.86,19.83 L -35.81,19.77 Z M -35.81,19.77" />
        </g>
        <g id="ranacentered-group106">
            <path id="ranacentered-bezier105" stroke="none" fill="rgb(0, 0, 0)" d="M 14.96,24.41 C 15.46,24.3 15.97,24.21 16.48,24.14 16.73,24.1 16.99,24.02 17.24,24.07 17.49,24.12 17.75,24.2 18,24.41 L 18,24.48 C 17.75,24.68 17.49,24.77 17.24,24.82 16.99,24.87 16.73,24.78 16.48,24.74 15.97,24.68 15.46,24.59 14.96,24.48 L 14.96,24.41 Z M 14.96,24.41" />
        </g>
        <g id="ranacentered-group107">
            <path id="ranacentered-bezier106" stroke="none" fill="rgb(0, 0, 0)" d="M 44.67,-1.45 C 44.41,-2.86 44.2,-4.29 44.07,-5.73 43.99,-6.44 43.89,-7.17 43.95,-7.9 43.98,-8.26 44.03,-8.63 44.13,-9 44.24,-9.34 44.32,-9.76 44.68,-10 L 44.73,-9.94 C 44.55,-9.31 44.7,-8.58 44.7,-7.88 44.73,-7.18 44.67,-6.47 44.67,-5.75 44.67,-4.33 44.7,-2.89 44.75,-1.46 L 44.67,-1.45 Z M 44.67,-1.45" />
        </g>
        <g id="ranacentered-group108">
            <path id="ranacentered-bezier107" stroke="none" fill="rgb(0, 0, 0)" d="M 41.13,-2.31 C 40.68,-3.36 40.28,-4.41 39.93,-5.49 39.75,-6.03 39.53,-6.57 39.47,-7.14 39.44,-7.43 39.42,-7.72 39.44,-8.02 39.47,-8.31 39.5,-8.63 39.67,-8.9 L 39.74,-8.88 C 39.86,-8.33 40.06,-7.82 40.21,-7.29 40.36,-6.76 40.41,-6.2 40.51,-5.64 40.73,-4.54 40.96,-3.44 41.2,-2.34 L 41.13,-2.31 Z M 41.13,-2.31" />
        </g>
        <g id="ranacentered-group109">
            <path id="ranacentered-bezier108" stroke="none" fill="rgb(0, 0, 0)" d="M 38.93,-3.78 C 38.45,-4.18 37.97,-4.58 37.49,-4.95 37.24,-5.14 36.97,-5.28 36.77,-5.5 36.57,-5.73 36.4,-5.96 36.23,-6.29 L 36.27,-6.35 C 36.64,-6.38 36.97,-6.24 37.25,-6.08 37.53,-5.91 37.71,-5.63 37.91,-5.38 38.31,-4.9 38.67,-4.38 38.99,-3.83 L 38.93,-3.78 Z M 38.93,-3.78" />
        </g>
        <g id="ranacentered-group110">
            <path id="ranacentered-bezier109" stroke="none" fill="rgb(0, 0, 0)" d="M 41.13,-6.51 C 41.25,-7.79 41.44,-9.08 41.74,-10.35 41.88,-10.98 42.01,-11.63 42.31,-12.23 42.62,-12.8 43.01,-13.45 43.69,-13.71 L 43.73,-13.65 C 43.37,-13.11 43.22,-12.53 43,-11.94 42.81,-11.35 42.53,-10.78 42.32,-10.18 41.9,-8.97 41.54,-7.74 41.2,-6.49 L 41.13,-6.51 Z M 41.13,-6.51" />
        </g>
        <g id="ranacentered-group111">
            <path id="ranacentered-bezier110" stroke="none" fill="rgb(0, 0, 0)" d="M 38.36,-8.73 C 37.96,-9.95 37.61,-11.18 37.35,-12.45 37.21,-13.07 37.04,-13.71 37.06,-14.37 37.07,-14.7 37.09,-15.03 37.18,-15.37 37.27,-15.68 37.37,-16.08 37.73,-16.25 L 37.77,-16.19 C 37.56,-15.65 37.76,-15.02 37.81,-14.41 37.89,-13.8 37.89,-13.17 37.94,-12.54 38.07,-11.28 38.24,-10.02 38.43,-8.75 L 38.36,-8.73 Z M 38.36,-8.73" />
        </g>
        <g id="ranacentered-group652">
            <path id="ranacentered-bezier650" stroke="none" fill="rgb(0, 0, 0)" d="M -43.17,19.81 C -43.33,20.63 -43.52,21.45 -43.89,22.24 -43.99,22.43 -44.11,22.63 -44.27,22.81 -44.41,23 -44.71,23.13 -44.87,23.19 -45.1,23.33 -45.15,23.63 -44.95,23.82 -44.76,24.02 -44.4,24.09 -44.05,24.07 -43.64,24.05 -43.21,24.04 -42.8,24.06 -41.96,24.11 -41.13,24.19 -40.29,24.41 L -40.29,24.48 C -41.13,24.68 -41.96,24.76 -42.8,24.81 -43.22,24.83 -43.62,24.83 -44.05,24.81 -44.52,24.78 -45.06,24.66 -45.42,24.21 -45.59,23.99 -45.68,23.67 -45.61,23.37 -45.53,23.07 -45.33,22.86 -45.04,22.74 -44.82,22.66 -44.71,22.64 -44.58,22.51 -44.44,22.38 -44.33,22.22 -44.22,22.06 -43.79,21.38 -43.49,20.58 -43.24,19.79 L -43.17,19.81 Z M -43.17,19.81" />
        </g>
        <g id="ranacentered-group654">
            <path id="ranacentered-bezier652" stroke="none" fill="rgb(0, 0, 0)" d="M -39.9,22.47 C -40.25,22.34 -40.57,22.11 -40.8,21.75 -40.92,21.58 -41.05,21.36 -41.01,21.13 -40.97,20.9 -40.82,20.69 -40.58,20.6 L -40.51,20.62 C -40.37,20.86 -40.32,20.99 -40.26,21.11 -40.21,21.23 -40.27,21.36 -40.25,21.51 -40.19,21.8 -40.05,22.12 -39.85,22.41 L -39.9,22.47 Z M -39.9,22.47" />
        </g>
    </g>
</svg>
