<?xml version="1.0" encoding="UTF-8"?>
<!DOCTYPE svg PUBLIC "-//W3C//DTD SVG 1.1//EN" "http://www.w3.org/Graphics/SVG/1.1/DTD/svg11.dtd">
<svg version="1.1" xmlns="http://www.w3.org/2000/svg" xmlns:xlink="http://www.w3.org/1999/xlink" width="120" height="60"  xml:space="preserve" id="rana2">
    <!-- Generated by PaintCode - http://www.paintcodeapp.com -->
    <g id="rana2-group">
        <g id="rana2-group222">
            <path id="rana2-bezier221" stroke="none" fill="rgb(0, 0, 0)" d="M 98.39,29.01 C 97.28,27.98 95.9,27.15 94.41,26.99 93.68,26.91 92.93,27.04 92.29,27.35 91.61,27.67 91.04,28.12 90.61,28.7 90.19,29.28 89.94,29.97 89.79,30.69 L 89.57,31.82 C 89.52,32.01 89.48,32.21 89.36,32.45 89.13,32.82 89.22,32.64 89.16,32.85 89.07,33.5 89.2,34.3 89.24,35.06 89.26,35.45 89.29,35.84 89.29,36.23 89.28,36.43 89.26,36.63 89.23,36.83 89.19,37.02 89.14,37.25 88.95,37.38 L 88.91,37.32 C 89.09,37.03 88.99,36.61 88.94,36.25 88.89,35.88 88.81,35.51 88.72,35.13 88.58,34.37 88.39,33.65 88.42,32.75 88.45,32.62 88.44,32.54 88.53,32.34 88.6,32.23 88.58,32.26 88.64,32.17 88.65,32.16 88.66,32.14 88.67,32.11 88.73,32 88.77,31.82 88.81,31.65 88.88,31.29 88.96,30.9 89.07,30.51 89.28,29.75 89.61,28.97 90.14,28.34 90.65,27.69 91.35,27.21 92.08,26.91 92.84,26.59 93.67,26.49 94.46,26.62 96.05,26.9 97.39,27.85 98.44,28.96 L 98.39,29.01 Z M 98.39,29.01" />
        </g>
        <g id="rana2-group223">
            <path id="rana2-bezier222" stroke="none" fill="rgb(0, 0, 0)" d="M 110.83,47.24 C 111.29,47.25 111.75,47.31 112.2,47.46 112.65,47.62 113.12,47.88 113.39,48.38 113.6,48.77 113.96,49.24 113.75,49.91 113.63,50.23 113.37,50.44 113.12,50.53 112.87,50.63 112.63,50.67 112.38,50.64 L 112.35,50.57 C 112.71,50.24 113.03,49.93 113.03,49.69 113.06,49.47 113,49.05 112.85,48.63 112.74,48.3 112.42,48 112.05,47.8 111.68,47.58 111.25,47.42 110.82,47.32 L 110.83,47.24 Z M 110.83,47.24" />
        </g>
        <g id="rana2-group224">
            <path id="rana2-bezier223" stroke="none" fill="rgb(0, 0, 0)" d="M 110.85,50.86 C 110.36,51.42 109.58,51.43 108.92,51.43 108.24,51.4 107.57,51.27 106.91,51.1 105.59,50.74 104.36,50.21 103.09,49.79 101.82,49.35 100.54,48.98 99.29,48.51 98.04,48.04 96.81,47.52 95.53,47.16 L 95.53,47.09 C 96.92,47.02 98.23,47.46 99.53,47.79 100.82,48.18 102.06,48.71 103.3,49.23 104.55,49.73 105.76,50.32 107.02,50.74 107.64,50.95 108.28,51.13 108.94,51.21 109.57,51.26 110.32,51.28 110.78,50.82 L 110.85,50.86 Z M 110.85,50.86" />
        </g>
        <g id="rana2-group225">
            <path id="rana2-bezier224" stroke="none" fill="rgb(0, 0, 0)" d="M 106.3,51.36 C 105.57,51.96 104.48,52.18 103.55,51.83 L 100.88,50.98 C 99.99,50.71 99.09,50.52 98.21,50.25 97.33,49.99 96.45,49.74 95.53,49.51 L 95.53,49.44 C 96.48,49.26 97.46,49.35 98.39,49.53 99.32,49.71 100.2,50.07 101.08,50.41 L 103.68,51.48 C 104.48,51.88 105.47,51.79 106.26,51.3 L 106.3,51.36 Z M 106.3,51.36" />
        </g>
        <g id="rana2-group226">
            <path id="rana2-bezier225" stroke="none" fill="rgb(0, 0, 0)" d="M 103.25,41.1 C 103.24,41.92 102.6,42.82 101.63,42.87 100.69,42.93 99.76,42.11 99.74,41.1 99.72,40.61 99.9,40.09 100.25,39.71 100.59,39.33 101.12,39.12 101.63,39.14 102.14,39.15 102.62,39.45 102.89,39.83 103.17,40.22 103.26,40.68 103.25,41.1 Z M 103.18,41.09 C 103.17,40.68 102.92,40.31 102.61,40.12 102.29,39.91 101.94,39.87 101.63,39.89 101.01,39.92 100.39,40.4 100.34,41.09 100.28,41.78 100.88,42.47 101.63,42.49 101.99,42.52 102.38,42.41 102.69,42.16 103,41.91 103.2,41.51 103.18,41.09 Z M 103.18,41.09" />
        </g>
        <g id="rana2-group228">
            <path id="rana2-bezier227" stroke="none" fill="rgb(0, 0, 0)" d="M 104.47,41.53 C 104.31,40.94 104.08,40.37 103.78,39.89 103.62,39.65 103.41,39.47 103.27,39.25 103.13,39.02 102.99,38.8 102.81,38.48 L 102.84,38.42 C 103.21,38.37 103.56,38.52 103.83,38.75 104.1,38.98 104.22,39.32 104.32,39.63 104.54,40.26 104.6,40.9 104.54,41.53 L 104.47,41.53 Z M 104.47,41.53" />
        </g>
        <g id="rana2-group229">
            <path id="rana2-bezier228" stroke="none" fill="rgb(0, 0, 0)" d="M 98.58,41.29 C 98.92,42.13 99.55,42.85 100.3,43.18 100.69,43.34 101.1,43.37 101.5,43.45 101.91,43.53 102.34,43.58 102.83,43.68 L 102.84,43.76 C 102.44,44.05 101.94,44.18 101.44,44.19 100.93,44.21 100.43,43.98 100.02,43.7 99.15,43.15 98.65,42.23 98.51,41.31 L 98.58,41.29 Z M 98.58,41.29" />
        </g>
        <g id="rana2-group230">
            <path id="rana2-bezier229" stroke="none" fill="rgb(0, 0, 0)" d="M 110.79,46.17 C 110.14,45.56 109.56,44.88 109.07,44.13 108.59,43.39 108.17,42.55 108.08,41.62 107.85,39.85 108.07,38.04 107.08,36.56 106.38,34.82 106.19,33 106.31,31.19 106.47,29.4 106.92,27.57 107.96,26.09 L 108.02,26.13 C 107.39,27.78 107.08,29.5 107.05,31.23 107.03,32.94 107.07,34.74 107.63,36.32 107.69,36.48 107.81,36.69 107.91,36.91 108,37.13 108.09,37.35 108.14,37.58 108.26,38.03 108.32,38.49 108.35,38.93 108.4,39.83 108.39,40.71 108.45,41.59 108.49,42.44 108.83,43.26 109.26,44.01 109.7,44.77 110.24,45.48 110.84,46.12 L 110.79,46.17 Z M 110.79,46.17" />
        </g>
        <g id="rana2-group231">
            <path id="rana2-bezier230" stroke="none" fill="rgb(0, 0, 0)" d="M 83.77,28.9 C 82.8,28.81 81.82,28.78 80.87,28.81 80.39,28.83 79.92,28.92 79.45,28.92 78.98,28.91 78.52,28.91 78,28.9 L 77.98,28.83 C 78.37,28.45 78.88,28.27 79.38,28.17 79.88,28.07 80.39,28.15 80.89,28.21 81.88,28.31 82.85,28.53 83.79,28.82 L 83.77,28.9 Z M 83.77,28.9" />
        </g>
        <g id="rana2-group232">
            <path id="rana2-bezier231" stroke="none" fill="rgb(0, 0, 0)" d="M 79.37,33.18 C 78.6,33.38 77.9,33.77 77.27,34.21 76.95,34.44 76.69,34.72 76.36,34.93 76.03,35.13 75.69,35.32 75.27,35.47 L 75.21,35.42 C 75.34,34.99 75.6,34.64 75.89,34.34 76.19,34.04 76.59,33.87 76.96,33.69 77.72,33.34 78.53,33.1 79.36,33.1 L 79.37,33.18 Z M 79.37,33.18" />
        </g>
        <g id="rana2-group233">
            <path id="rana2-bezier232" stroke="none" fill="rgb(0, 0, 0)" d="M 77.31,31.9 C 76.04,32.5 74.8,33.19 73.64,33.96 73.06,34.36 72.54,34.81 71.98,35.21 71.42,35.6 70.88,36.01 70.31,36.46 L 70.25,36.42 C 70.49,35.72 70.98,35.12 71.51,34.63 72.04,34.12 72.7,33.78 73.33,33.45 74.6,32.77 75.92,32.23 77.29,31.82 L 77.31,31.9 Z M 77.31,31.9" />
        </g>
        <g id="rana2-group234">
            <path id="rana2-bezier233" stroke="none" fill="rgb(0, 0, 0)" d="M 11.97,48.89 C 11.58,49.38 11.2,49.87 10.85,50.37 10.68,50.62 10.55,50.9 10.34,51.11 10.13,51.32 9.91,51.51 9.61,51.71 L 9.54,51.68 C 9.47,51.31 9.59,50.96 9.73,50.67 9.89,50.38 10.16,50.18 10.4,49.97 10.87,49.54 11.38,49.16 11.92,48.83 L 11.97,48.89 Z M 11.97,48.89" />
        </g>
        <g id="rana2-group235">
            <path id="rana2-bezier234" stroke="none" fill="rgb(0, 0, 0)" d="M 17.93,45.33 C 17.12,46.04 16.33,46.77 15.55,47.5 15.17,47.87 14.83,48.28 14.42,48.61 14.03,48.95 13.59,49.22 13.24,49.62 L 13.16,49.6 C 13.14,49.29 13.28,49.01 13.41,48.76 13.55,48.5 13.72,48.28 13.9,48.07 14.26,47.65 14.73,47.35 15.17,47.04 16.04,46.39 16.95,45.81 17.89,45.27 L 17.93,45.33 Z M 17.93,45.33" />
        </g>
        <g id="rana2-group236">
            <path id="rana2-bezier235" stroke="none" fill="rgb(0, 0, 0)" d="M 23.15,45.33 C 22.36,45.67 21.56,45.98 20.76,46.26 20.35,46.41 19.96,46.6 19.53,46.65 19.11,46.7 18.66,46.73 18.2,46.59 L 18.19,46.51 C 18.57,46.25 18.96,46.07 19.36,45.92 19.75,45.78 20.18,45.75 20.6,45.68 21.44,45.53 22.28,45.39 23.12,45.26 L 23.15,45.33 Z M 23.15,45.33" />
        </g>
        <g id="rana2-group237">
            <path id="rana2-bezier236" stroke="none" fill="rgb(0, 0, 0)" d="M 11.97,46.58 C 11.43,47.14 10.88,47.7 10.33,48.24 10.06,48.52 9.82,48.83 9.51,49.05 9.19,49.28 8.85,49.45 8.48,49.63 L 8.42,49.59 C 8.49,49.13 8.76,48.8 9.01,48.5 9.27,48.19 9.62,48 9.94,47.78 10.59,47.33 11.25,46.91 11.92,46.52 L 11.97,46.58 Z M 11.97,46.58" />
        </g>
        <g id="rana2-group238">
            <path id="rana2-bezier237" stroke="none" fill="rgb(0, 0, 0)" d="M 15.22,42.02 C 14.59,42.6 13.97,43.18 13.36,43.77 13.06,44.07 12.8,44.4 12.46,44.65 12.12,44.9 11.78,45.13 11.35,45.32 L 11.29,45.27 C 11.41,44.81 11.67,44.44 11.95,44.1 12.24,43.77 12.62,43.55 12.98,43.31 13.68,42.81 14.42,42.36 15.18,41.95 L 15.22,42.02 Z M 15.22,42.02" />
        </g>
        <g id="rana2-group239">
            <path id="rana2-bezier238" stroke="none" fill="rgb(0, 0, 0)" d="M 12.27,42.6 C 11.59,43.03 10.91,43.46 10.25,43.9 9.92,44.12 9.62,44.39 9.26,44.56 8.9,44.72 8.54,44.87 8.1,44.95 L 8.05,44.89 C 8.25,44.49 8.55,44.18 8.86,43.92 9.19,43.66 9.58,43.53 9.96,43.37 10.7,43.04 11.47,42.76 12.25,42.53 L 12.27,42.6 Z M 12.27,42.6" />
        </g>
        <g id="rana2-group240">
            <path id="rana2-bezier239" stroke="none" fill="rgb(0, 0, 0)" d="M 10.75,41.31 C 10.09,41.19 9.41,41.16 8.79,41.23 8.47,41.27 8.18,41.39 7.89,41.41 7.59,41.44 7.3,41.48 6.91,41.52 L 6.86,41.46 C 7.02,41.09 7.34,40.84 7.69,40.69 8.04,40.54 8.43,40.59 8.79,40.63 9.5,40.7 10.17,40.91 10.77,41.24 L 10.75,41.31 Z M 10.75,41.31" />
        </g>
        <g id="rana2-group241">
            <path id="rana2-bezier240" stroke="none" fill="rgb(0, 0, 0)" d="M 111.47,49.89 C 111.22,49.83 110.98,49.7 110.79,49.48 110.69,49.38 110.56,49.24 110.58,49.07 110.61,48.9 110.73,48.73 110.95,48.68 L 111.03,48.7 111.33,48.98 C 111.39,49.04 111.32,49.12 111.32,49.21 111.34,49.39 111.41,49.61 111.51,49.83 L 111.47,49.89 Z M 111.47,49.89" />
        </g>
        <g id="rana2-group242">
            <path id="rana2-bezier241" stroke="none" fill="rgb(0, 0, 0)" d="M 68.7,34.9 C 67.48,35.13 66.31,35.57 65.26,36.16 64.74,36.46 64.28,36.85 63.78,37.18 63.28,37.5 62.8,37.86 62.26,38.22 L 62.2,38.17 C 62.43,37.55 62.84,37.02 63.32,36.59 63.8,36.14 64.4,35.87 65,35.62 66.18,35.12 67.44,34.84 68.7,34.82 L 68.7,34.9 Z M 68.7,34.9" />
        </g>
        <g id="rana2-group243">
            <path id="rana2-bezier242" stroke="none" fill="rgb(0, 0, 0)" d="M 61.54,35.48 C 60.09,35.8 58.66,36.22 57.31,36.78 56.64,37.08 56.02,37.44 55.39,37.77 54.75,38.09 54.16,38.45 53.56,38.92 L 53.5,38.88 C 53.78,38.14 54.37,37.56 55,37.12 55.64,36.68 56.39,36.44 57.11,36.22 58.55,35.77 60.04,35.51 61.53,35.41 L 61.54,35.48 Z M 61.54,35.48" />
        </g>
        <g id="rana2-group244">
            <path id="rana2-bezier243" stroke="none" fill="rgb(0, 0, 0)" d="M 59.05,37.56 C 58.03,38.19 57.05,38.87 56.13,39.6 55.68,39.98 55.28,40.41 54.84,40.77 54.4,41.14 53.97,41.49 53.57,41.96 L 53.5,41.93 C 53.53,41.28 53.91,40.7 54.31,40.23 54.73,39.76 55.26,39.44 55.78,39.12 56.81,38.47 57.89,37.93 59.01,37.49 L 59.05,37.56 Z M 59.05,37.56" />
        </g>
        <g id="rana2-group245">
            <path id="rana2-bezier244" stroke="none" fill="rgb(0, 0, 0)" d="M 51.14,39.77 C 50.33,40.48 49.6,41.26 48.92,42.07 48.59,42.48 48.31,42.93 47.96,43.32 47.6,43.71 47.25,44.09 46.81,44.46 L 46.75,44.43 C 46.83,43.85 47.07,43.34 47.36,42.87 47.65,42.39 48.08,42.03 48.48,41.66 49.28,40.91 50.15,40.25 51.09,39.7 L 51.14,39.77 Z M 51.14,39.77" />
        </g>
        <g id="rana2-group246">
            <path id="rana2-bezier245" stroke="none" fill="rgb(0, 0, 0)" d="M 48.03,40.77 C 47.02,41.57 45.93,42.27 44.77,42.86 44.19,43.15 43.6,43.46 42.94,43.6 42.29,43.72 41.6,43.77 40.95,43.56 L 40.95,43.49 C 41.58,43.28 42.16,43.09 42.74,42.87 43.32,42.66 43.93,42.52 44.53,42.31 45.71,41.86 46.87,41.32 47.99,40.7 L 48.03,40.77 Z M 48.03,40.77" />
        </g>
        <g id="rana2-group247">
            <path id="rana2-bezier246" stroke="none" fill="rgb(0, 0, 0)" d="M 40.96,42.6 C 39.61,43.29 38.27,44 36.95,44.73 36.3,45.11 35.68,45.53 35.01,45.87 34.37,46.24 33.65,46.5 33.15,47.02 L 33.08,47 C 33.14,46.57 33.45,46.26 33.72,45.98 34,45.69 34.31,45.46 34.63,45.23 35.27,44.79 35.98,44.51 36.68,44.2 38.08,43.58 39.5,43.03 40.93,42.54 L 40.96,42.6 Z M 40.96,42.6" />
        </g>
        <g id="rana2-group248">
            <path id="rana2-bezier247" stroke="none" fill="rgb(0, 0, 0)" d="M 36.2,42.79 C 35.68,43.14 35.18,43.65 34.67,44.07 34.15,44.51 33.62,44.93 33.07,45.33 32.52,45.74 31.96,46.16 31.3,46.41 30.65,46.65 29.89,46.83 29.2,46.58 L 29.2,46.51 C 29.86,46.34 30.41,46.04 30.99,45.73 31.55,45.42 32.16,45.16 32.74,44.83 33.32,44.5 33.89,44.14 34.45,43.77 35.03,43.43 35.54,43.01 36.2,42.71 L 36.2,42.79 Z M 36.2,42.79" />
        </g>
        <g id="rana2-group249">
            <path id="rana2-bezier248" stroke="none" fill="rgb(0, 0, 0)" d="M 32.12,44.05 C 31.11,44.36 30.1,44.68 29.11,45.02 28.61,45.2 28.14,45.43 27.64,45.56 27.14,45.69 26.65,45.77 26.14,45.95 L 26.09,45.9 C 26.37,45.36 26.91,45.09 27.39,44.85 27.88,44.62 28.42,44.55 28.95,44.44 30,44.23 31.05,44.08 32.11,43.98 L 32.12,44.05 Z M 32.12,44.05" />
        </g>
        <g id="rana2-group250">
            <path id="rana2-bezier249" stroke="none" fill="rgb(0, 0, 0)" d="M 37.05,38.94 C 35.74,39.56 34.43,40.18 33.15,40.82 32.5,41.15 31.89,41.53 31.23,41.8 30.57,42.08 29.91,42.33 29.22,42.6 L 29.18,42.54 C 29.63,41.93 30.27,41.51 30.89,41.13 31.53,40.76 32.22,40.53 32.9,40.28 34.26,39.75 35.63,39.29 37.02,38.87 L 37.05,38.94 Z M 37.05,38.94" />
        </g>
        <g id="rana2-group251">
            <path id="rana2-bezier250" stroke="none" fill="rgb(0, 0, 0)" d="M 27.87,41.52 L 24.03,42.72 C 23.39,42.92 22.77,43.18 22.12,43.33 21.47,43.47 20.82,43.59 20.13,43.67 L 20.1,43.61 C 20.64,43.14 21.27,42.86 21.9,42.61 22.54,42.37 23.21,42.27 23.88,42.14 25.2,41.86 26.52,41.63 27.86,41.45 L 27.87,41.52 Z M 27.87,41.52" />
        </g>
        <g id="rana2-group252">
            <path id="rana2-bezier251" stroke="none" fill="rgb(0, 0, 0)" d="M 20.67,41.24 C 19.56,41.55 18.46,41.91 17.42,42.35 16.9,42.58 16.43,42.87 15.94,43.1 15.46,43.35 15,43.57 14.63,44.03 L 14.56,44.01 C 14.55,43.34 15.08,42.81 15.56,42.46 16.06,42.1 16.66,41.94 17.22,41.78 18.35,41.45 19.5,41.26 20.66,41.17 L 20.67,41.24 Z M 20.67,41.24" />
        </g>
        <g id="rana2-group253">
            <path id="rana2-bezier252" stroke="none" fill="rgb(0, 0, 0)" d="M 13.7,37.56 C 12.62,37.79 11.55,38.02 10.49,38.28 9.96,38.42 9.45,38.61 8.92,38.7 L 7.3,38.93 7.26,38.87 C 7.65,38.41 8.21,38.16 8.73,37.97 9.26,37.78 9.83,37.75 10.38,37.69 11.49,37.56 12.59,37.5 13.69,37.49 L 13.7,37.56 Z M 13.7,37.56" />
        </g>
        <g id="rana2-group254">
            <path id="rana2-bezier253" stroke="none" fill="rgb(0, 0, 0)" d="M 16.03,31.9 C 14.82,31.98 13.61,32.06 12.41,32.17 11.81,32.23 11.21,32.35 10.62,32.36 10.02,32.38 9.43,32.33 8.84,32.42 L 8.8,32.36 C 9.02,32.1 9.34,31.97 9.63,31.85 9.93,31.74 10.24,31.67 10.54,31.61 11.16,31.5 11.77,31.55 12.39,31.57 13.61,31.59 14.82,31.68 16.03,31.82 L 16.03,31.9 Z M 16.03,31.9" />
        </g>
        <g id="rana2-group255">
            <path id="rana2-bezier254" stroke="none" fill="rgb(0, 0, 0)" d="M 21.39,27.12 C 20.42,26.64 19.45,26.19 18.47,25.79 17.97,25.6 17.46,25.46 16.99,25.24 L 15.55,24.56 15.55,24.49 C 16.12,24.31 16.71,24.4 17.24,24.54 17.78,24.68 18.26,24.98 18.73,25.25 19.68,25.78 20.57,26.39 21.43,27.06 L 21.39,27.12 Z M 21.39,27.12" />
        </g>
        <g id="rana2-group256">
            <path id="rana2-bezier255" stroke="none" fill="rgb(0, 0, 0)" d="M 28.64,21.81 L 25.32,20.38 C 24.77,20.15 24.19,19.97 23.67,19.69 23.14,19.42 22.65,19.08 22.12,18.81 L 22.12,18.74 C 22.78,18.61 23.39,18.82 23.97,19 24.55,19.2 25.06,19.54 25.59,19.84 26.64,20.44 27.67,21.07 28.67,21.74 L 28.64,21.81 Z M 28.64,21.81" />
        </g>
        <g id="rana2-group257">
            <path id="rana2-bezier256" stroke="none" fill="rgb(0, 0, 0)" d="M 37.01,18.8 C 36.01,18.03 35.05,17.22 34.13,16.36 33.66,15.94 33.16,15.53 32.78,15.01 32.6,14.75 32.41,14.49 32.27,14.19 32.15,13.89 31.95,13.56 32.08,13.18 L 32.15,13.2 C 32.41,13.7 32.95,14.08 33.36,14.53 33.79,14.96 34.15,15.47 34.56,15.95 35.37,16.88 36.21,17.82 37.06,18.75 L 37.01,18.8 Z M 37.01,18.8" />
        </g>
        <g id="rana2-group258">
            <path id="rana2-bezier257" stroke="none" fill="rgb(0, 0, 0)" d="M 45.17,16.01 C 44.33,15.42 43.51,14.78 42.73,14.09 42.33,13.75 41.91,13.43 41.6,13 41.3,12.57 41.01,12.1 40.92,11.55 L 40.98,11.51 C 41.42,11.83 41.79,12.16 42.16,12.51 42.53,12.85 42.82,13.28 43.15,13.67 43.83,14.44 44.52,15.2 45.22,15.96 L 45.17,16.01 Z M 45.17,16.01" />
        </g>
        <g id="rana2-group259">
            <path id="rana2-bezier258" stroke="none" fill="rgb(0, 0, 0)" d="M 53.51,16.02 C 52.58,15.52 51.68,14.95 50.84,14.28 50.42,13.95 49.97,13.63 49.65,13.16 49.36,12.71 49.06,12.11 49.24,11.53 L 49.32,11.53 C 49.55,12.01 49.9,12.33 50.24,12.69 50.59,13.04 50.88,13.46 51.24,13.84 51.96,14.58 52.75,15.28 53.55,15.95 L 53.51,16.02 Z M 53.51,16.02" />
        </g>
        <g id="rana2-group260">
            <path id="rana2-bezier259" stroke="none" fill="rgb(0, 0, 0)" d="M 56.25,16.47 C 55.54,15.84 54.9,15.13 54.34,14.34 54.06,13.94 53.76,13.53 53.65,13.02 53.54,12.54 53.53,11.91 53.91,11.51 L 53.98,11.54 C 54.02,12.03 54.19,12.39 54.36,12.79 54.54,13.18 54.66,13.61 54.86,14.03 55.27,14.85 55.77,15.65 56.31,16.42 L 56.25,16.47 Z M 56.25,16.47" />
        </g>
        <g id="rana2-group261">
            <path id="rana2-bezier260" stroke="none" fill="rgb(0, 0, 0)" d="M 61.5,16.8 C 60.83,16.05 60.16,15.31 59.48,14.59 59.13,14.24 58.74,13.92 58.44,13.55 58.12,13.17 57.86,12.78 57.52,12.4 L 57.55,12.33 C 58.12,12.36 58.57,12.7 58.97,13.02 59.37,13.35 59.64,13.79 59.94,14.21 60.53,15.03 61.07,15.88 61.56,16.76 L 61.5,16.8 Z M 61.5,16.8" />
        </g>
        <g id="rana2-group262">
            <path id="rana2-bezier261" stroke="none" fill="rgb(0, 0, 0)" d="M 68.68,17.14 C 67.33,16.33 66.03,15.43 64.79,14.44 64.18,13.94 63.54,13.45 63.04,12.81 62.79,12.48 62.56,12.14 62.39,11.76 62.22,11.39 62.08,10.94 62.19,10.53 L 62.26,10.53 C 62.51,11.26 63.09,11.76 63.6,12.31 64.14,12.85 64.64,13.44 65.19,13.99 66.31,15.06 67.5,16.09 68.72,17.08 L 68.68,17.14 Z M 68.68,17.14" />
        </g>
        <g id="rana2-group263">
            <path id="rana2-bezier262" stroke="none" fill="rgb(0, 0, 0)" d="M 72.07,15.05 C 71.36,14.41 70.68,13.75 70.04,13.05 69.71,12.71 69.35,12.38 69.1,11.96 68.88,11.54 68.61,11.1 68.66,10.53 L 68.73,10.52 C 69.05,10.87 69.4,11.17 69.71,11.52 70.02,11.87 70.24,12.28 70.5,12.67 L 72.12,15 72.07,15.05 Z M 72.07,15.05" />
        </g>
        <g id="rana2-group264">
            <path id="rana2-bezier263" stroke="none" fill="rgb(0, 0, 0)" d="M 77.05,16.81 L 74.5,15.08 C 74.07,14.8 73.61,14.56 73.23,14.24 72.83,13.92 72.49,13.55 72.09,13.23 L 72.1,13.16 C 72.7,13.11 73.19,13.38 73.65,13.62 74.11,13.88 74.48,14.25 74.86,14.6 75.64,15.28 76.38,16 77.1,16.75 L 77.05,16.81 Z M 77.05,16.81" />
        </g>
        <g id="rana2-group265">
            <path id="rana2-bezier264" stroke="none" fill="rgb(0, 0, 0)" d="M 79.21,16.47 C 78.63,15.91 78.23,15.18 77.96,14.42 77.82,14.04 77.67,13.65 77.67,13.23 77.68,12.83 77.75,12.41 77.95,12.03 L 78.03,12.03 C 78.23,12.42 78.32,12.79 78.42,13.15 78.51,13.52 78.49,13.89 78.54,14.27 78.67,15 78.87,15.75 79.27,16.42 L 79.21,16.47 Z M 79.21,16.47" />
        </g>
        <g id="rana2-group266">
            <path id="rana2-bezier265" stroke="none" fill="rgb(0, 0, 0)" d="M 84.92,19.55 C 84.01,18.81 83.14,18.02 82.33,17.15 81.92,16.72 81.48,16.3 81.19,15.76 80.9,15.24 80.64,14.63 80.7,13.99 L 80.78,13.98 C 81.1,14.48 81.46,14.9 81.81,15.35 82.16,15.79 82.45,16.29 82.79,16.77 83.48,17.7 84.21,18.61 84.98,19.5 L 84.92,19.55 Z M 84.92,19.55" />
        </g>
        <g id="rana2-group267">
            <path id="rana2-bezier266" stroke="none" fill="rgb(0, 0, 0)" d="M 85.24,17.12 C 85.02,16.48 84.84,15.83 84.74,15.16 84.68,14.82 84.59,14.47 84.67,14.12 84.74,13.78 84.89,13.38 85.25,13.17 L 85.31,13.21 85.41,14.18 C 85.44,14.48 85.36,14.8 85.34,15.12 85.31,15.77 85.31,16.44 85.32,17.1 L 85.24,17.12 Z M 85.24,17.12" />
        </g>
        <g id="rana2-group268">
            <path id="rana2-bezier267" stroke="none" fill="rgb(0, 0, 0)" d="M 88.44,21.34 C 87.8,20.46 87.28,19.48 86.96,18.4 86.79,17.87 86.64,17.31 86.69,16.73 86.75,16.15 86.94,15.57 87.33,15.14 L 87.4,15.16 C 87.4,15.74 87.4,16.23 87.44,16.74 87.48,17.24 87.46,17.75 87.54,18.27 87.72,19.29 88.05,20.32 88.51,21.3 L 88.44,21.34 Z M 88.44,21.34" />
        </g>
        <g id="rana2-group269">
            <path id="rana2-bezier268" stroke="none" fill="rgb(0, 0, 0)" d="M 91.6,20.31 C 90.89,19.97 90.23,19.54 89.64,19 89.34,18.73 89.02,18.45 88.85,18.05 88.7,17.66 88.62,17.18 88.83,16.78 L 88.9,16.78 C 89.12,17.15 89.3,17.41 89.51,17.69 89.72,17.96 89.87,18.29 90.08,18.59 90.53,19.18 91.06,19.73 91.64,20.25 L 91.6,20.31 Z M 91.6,20.31" />
        </g>
        <g id="rana2-group270">
            <path id="rana2-bezier269" stroke="none" fill="rgb(0, 0, 0)" d="M 94.68,23.36 C 94.47,22.41 94.17,21.47 93.77,20.62 93.55,20.19 93.28,19.82 93.06,19.43 92.84,19.03 92.6,18.67 92.27,18.27 L 92.3,18.2 C 92.84,18.25 93.33,18.59 93.67,18.99 94.02,19.4 94.18,19.91 94.33,20.4 94.63,21.37 94.76,22.37 94.76,23.36 L 94.68,23.36 Z M 94.68,23.36" />
        </g>
        <g id="rana2-group271">
            <path id="rana2-bezier270" stroke="none" fill="rgb(0, 0, 0)" d="M 35.26,21.35 C 34.13,20.54 33.06,19.66 32.05,18.7 31.54,18.22 31.01,17.75 30.61,17.16 30.23,16.57 29.87,15.9 29.83,15.16 L 29.9,15.14 C 30.32,15.71 30.76,16.19 31.21,16.7 31.65,17.2 32.04,17.76 32.48,18.28 33.38,19.32 34.33,20.32 35.31,21.29 L 35.26,21.35 Z M 35.26,21.35" />
        </g>
        <g id="rana2-group272">
            <path id="rana2-bezier271" stroke="none" fill="rgb(0, 0, 0)" d="M 24.8,24.07 C 24.16,23.65 23.46,23.34 22.77,23.11 22.41,23 22.04,22.96 21.71,22.82 21.37,22.68 21.03,22.55 20.66,22.31 L 20.67,22.24 C 21.07,22.07 21.49,22.04 21.89,22.1 22.3,22.15 22.66,22.36 23,22.55 23.71,22.93 24.34,23.42 24.85,24.02 L 24.8,24.07 Z M 24.8,24.07" />
        </g>
        <g id="rana2-group273">
            <path id="rana2-bezier272" stroke="none" fill="rgb(0, 0, 0)" d="M 23.12,29.56 C 21.56,29.22 19.98,28.92 18.41,28.67 17.62,28.56 16.82,28.51 16.05,28.39 15.27,28.27 14.51,28.12 13.71,28.14 L 13.69,28.07 C 14.43,27.64 15.32,27.63 16.12,27.64 16.95,27.67 17.74,27.89 18.52,28.08 20.09,28.46 21.63,28.94 23.15,29.49 L 23.12,29.56 Z M 23.12,29.56" />
        </g>
        <g id="rana2-group274">
            <path id="rana2-bezier273" stroke="none" fill="rgb(0, 0, 0)" d="M 17.64,34.19 C 16.53,34.54 15.4,34.84 14.25,35.06 13.68,35.18 13.11,35.32 12.51,35.31 11.92,35.29 11.3,35.21 10.75,34.9 L 10.77,34.82 12.47,34.56 C 13.03,34.48 13.6,34.5 14.17,34.46 15.32,34.38 16.47,34.26 17.62,34.12 L 17.64,34.19 Z M 17.64,34.19" />
        </g>
        <g id="rana2-group275">
            <path id="rana2-bezier274" stroke="none" fill="rgb(0, 0, 0)" d="M 51.13,37.21 C 49.93,37.98 48.66,38.63 47.32,39.17 46.66,39.44 45.98,39.73 45.26,39.84 44.54,39.94 43.79,39.97 43.07,39.77 L 43.07,39.7 C 43.77,39.48 44.43,39.3 45.1,39.11 45.76,38.91 46.45,38.79 47.13,38.6 48.47,38.21 49.8,37.72 51.09,37.14 L 51.13,37.21 Z M 51.13,37.21" />
        </g>
        <g id="rana2-group276">
            <path id="rana2-bezier275" stroke="none" fill="rgb(0, 0, 0)" d="M 45.18,17.89 C 43.84,17.36 42.48,16.85 41.12,16.4 40.43,16.19 39.74,16.03 39.07,15.8 38.4,15.57 37.75,15.33 37.04,15.19 L 37.03,15.11 C 37.76,14.84 38.55,14.94 39.27,15.08 40,15.22 40.67,15.55 41.33,15.84 42.67,16.43 43.96,17.09 45.21,17.83 L 45.18,17.89 Z M 45.18,17.89" />
        </g>
        <g id="rana2-group277">
            <path id="rana2-bezier276" stroke="none" fill="rgb(0, 0, 0)" d="M 38.77,27.13 C 37.02,26.85 35.28,26.52 33.55,26.13 32.68,25.93 31.8,25.77 30.96,25.45 30.55,25.29 30.13,25.12 29.73,24.9 29.34,24.68 28.92,24.45 28.63,24.07 L 28.68,24.02 C 29.48,24.35 30.35,24.5 31.19,24.74 32.04,24.96 32.86,25.28 33.7,25.55 35.39,26.07 37.09,26.57 38.79,27.05 L 38.77,27.13 Z M 38.77,27.13" />
        </g>
        <g id="rana2-group278">
            <path id="rana2-bezier277" stroke="none" fill="rgb(0, 0, 0)" d="M 32.56,28.9 L 28.94,28.05 C 28.34,27.92 27.72,27.85 27.14,27.66 26.55,27.5 25.99,27.26 25.39,27.13 L 25.38,27.05 C 25.69,26.89 26.03,26.88 26.35,26.87 26.67,26.85 26.99,26.89 27.3,26.93 27.93,27.02 28.52,27.26 29.1,27.47 30.29,27.87 31.44,28.33 32.59,28.82 L 32.56,28.9 Z M 32.56,28.9" />
        </g>
        <g id="rana2-group279">
            <path id="rana2-bezier278" stroke="none" fill="rgb(0, 0, 0)" d="M 27.86,34.19 C 27.25,34.12 26.67,33.97 26.08,33.83 25.5,33.67 24.92,33.49 24.34,33.3 23.77,33.11 23.17,32.94 22.65,32.61 22.38,32.44 22.13,32.26 21.9,32.03 21.68,31.81 21.45,31.54 21.37,31.21 L 21.44,31.18 C 21.92,31.52 22.46,31.7 23,31.94 23.53,32.17 24.03,32.48 24.57,32.75 25.1,33 25.65,33.25 26.2,33.47 26.75,33.71 27.3,33.95 27.87,34.12 L 27.86,34.19 Z M 27.86,34.19" />
        </g>
        <g id="rana2-group280">
            <path id="rana2-bezier279" stroke="none" fill="rgb(0, 0, 0)" d="M 21.39,38.49 C 20.27,37.98 19.13,37.51 17.99,37.08 17.42,36.88 16.83,36.74 16.28,36.51 15.73,36.29 15.2,36.05 14.6,35.9 L 14.59,35.82 C 15.21,35.56 15.9,35.66 16.51,35.8 17.13,35.94 17.68,36.25 18.23,36.54 19.34,37.09 20.4,37.73 21.42,38.42 L 21.39,38.49 Z M 21.39,38.49" />
        </g>
        <g id="rana2-group281">
            <path id="rana2-bezier280" stroke="none" fill="rgb(0, 0, 0)" d="M 16.78,39.73 C 15.87,39.9 14.95,40.02 14.02,40.07 13.55,40.11 13.08,40.17 12.61,40.08 12.16,39.97 11.62,39.84 11.3,39.39 L 11.34,39.33 C 11.81,39.38 12.23,39.32 12.68,39.33 13.13,39.33 13.57,39.43 14.03,39.47 14.94,39.55 15.86,39.61 16.78,39.66 L 16.78,39.73 Z M 16.78,39.73" />
        </g>
        <g id="rana2-group282">
            <path id="rana2-bezier281" stroke="none" fill="rgb(0, 0, 0)" d="M 33.73,36.48 C 32.18,36.83 30.63,37.15 29.07,37.42 28.3,37.57 27.52,37.75 26.72,37.78 25.93,37.8 25.12,37.81 24.32,37.56 L 24.33,37.49 C 25.11,37.33 25.87,37.15 26.65,37.03 27.42,36.9 28.21,36.89 29,36.83 L 33.71,36.41 33.73,36.48 Z M 33.73,36.48" />
        </g>
        <g id="rana2-group283">
            <path id="rana2-bezier282" stroke="none" fill="rgb(0, 0, 0)" d="M 45.21,34.59 C 44.78,34.92 44.42,35.43 44.04,35.86 43.65,36.31 43.26,36.75 42.86,37.18 42.46,37.62 42.07,38.08 41.55,38.41 41.3,38.57 41.03,38.73 40.73,38.84 40.44,38.94 40.1,39.03 39.78,38.94 L 39.78,38.86 C 40.3,38.6 40.67,38.19 41.1,37.82 41.51,37.43 42,37.11 42.45,36.74 42.89,36.37 43.33,35.99 43.77,35.6 44.24,35.24 44.63,34.8 45.19,34.52 L 45.21,34.59 Z M 45.21,34.59" />
        </g>
        <g id="rana2-group284">
            <path id="rana2-bezier283" stroke="none" fill="rgb(0, 0, 0)" d="M 39.2,33.56 C 37.7,33.41 36.23,33.2 34.75,33.03 34.01,32.95 33.27,32.92 32.54,32.79 31.82,32.67 31.1,32.46 30.38,32.43 L 30.35,32.36 C 30.7,32.13 31.11,32.1 31.49,32.06 31.87,32.02 32.25,32.03 32.63,32.04 33.39,32.08 34.12,32.27 34.85,32.43 L 37.04,32.93 39.2,33.49 39.2,33.56 Z M 39.2,33.56" />
        </g>
        <g id="rana2-group285">
            <path id="rana2-bezier284" stroke="none" fill="rgb(0, 0, 0)" d="M 41.1,30.64 C 40.27,30.3 39.44,29.97 38.62,29.67 38.2,29.53 37.77,29.44 37.38,29.25 36.99,29.08 36.64,28.86 36.21,28.72 L 36.19,28.64 C 36.65,28.36 37.18,28.46 37.62,28.54 38.08,28.65 38.47,28.9 38.86,29.12 39.66,29.56 40.41,30.05 41.13,30.58 L 41.1,30.64 Z M 41.1,30.64" />
        </g>
        <g id="rana2-group286">
            <path id="rana2-bezier285" stroke="none" fill="rgb(0, 0, 0)" d="M 41.1,25.06 C 40.13,24.76 39.15,24.49 38.18,24.26 37.69,24.16 37.19,24.12 36.72,24 36.25,23.88 35.81,23.73 35.3,23.73 L 35.27,23.66 C 35.7,23.25 36.33,23.23 36.84,23.25 37.38,23.29 37.86,23.5 38.35,23.69 39.32,24.05 40.24,24.49 41.13,24.99 L 41.1,25.06 Z M 41.1,25.06" />
        </g>
        <g id="rana2-group287">
            <path id="rana2-bezier286" stroke="none" fill="rgb(0, 0, 0)" d="M 45.17,22.81 C 44.3,22.18 43.41,21.57 42.5,21.02 42.05,20.75 41.56,20.53 41.14,20.25 40.7,19.99 40.31,19.67 39.79,19.56 L 39.77,19.49 C 40.03,19.31 40.37,19.31 40.65,19.35 40.95,19.39 41.22,19.48 41.48,19.59 42.01,19.81 42.43,20.18 42.85,20.53 43.7,21.21 44.49,21.96 45.22,22.75 L 45.17,22.81 Z M 45.17,22.81" />
        </g>
        <g id="rana2-group288">
            <path id="rana2-bezier287" stroke="none" fill="rgb(0, 0, 0)" d="M 54.51,20.31 C 53.34,19.66 52.19,18.96 51.09,18.19 50.53,17.81 49.95,17.45 49.48,16.95 49.24,16.7 49.01,16.44 48.82,16.15 48.63,15.86 48.44,15.53 48.41,15.16 L 48.48,15.14 C 48.93,15.63 49.47,15.98 49.98,16.4 50.5,16.8 50.96,17.28 51.46,17.71 52.47,18.57 53.5,19.42 54.55,20.25 L 54.51,20.31 Z M 54.51,20.31" />
        </g>
        <g id="rana2-group289">
            <path id="rana2-bezier288" stroke="none" fill="rgb(0, 0, 0)" d="M 84.24,25.84 C 82.85,25.3 81.46,24.8 80.05,24.35 79.34,24.14 78.62,23.98 77.93,23.75 77.24,23.54 76.57,23.28 75.83,23.2 L 75.81,23.12 C 76.55,22.79 77.38,22.9 78.12,23.03 78.87,23.17 79.56,23.49 80.25,23.79 81.64,24.37 82.98,25.04 84.28,25.77 L 84.24,25.84 Z M 84.24,25.84" />
        </g>
        <g id="rana2-group290">
            <path id="rana2-bezier289" stroke="none" fill="rgb(0, 0, 0)" d="M 86.35,23.39 C 85.25,22.84 84.18,22.23 83.15,21.56 82.63,21.22 82.08,20.91 81.64,20.46 81.42,20.23 81.2,20 81.03,19.72 80.86,19.45 80.68,19.14 80.7,18.78 L 80.78,18.77 C 81.14,19.23 81.67,19.53 82.13,19.9 82.61,20.25 83.04,20.68 83.5,21.07 84.44,21.84 85.41,22.59 86.38,23.33 L 86.35,23.39 Z M 86.35,23.39" />
        </g>
        <g id="rana2-group291">
            <path id="rana2-bezier290" stroke="none" fill="rgb(0, 0, 0)" d="M 78.6,21.17 L 74.99,19.52 C 74.39,19.26 73.76,19.04 73.19,18.73 72.61,18.42 72.07,18.07 71.48,17.75 L 71.49,17.68 C 72.21,17.6 72.87,17.83 73.5,18.04 74.13,18.28 74.69,18.65 75.26,18.98 76.41,19.65 77.54,20.36 78.63,21.1 L 78.6,21.17 Z M 78.6,21.17" />
        </g>
        <g id="rana2-group292">
            <path id="rana2-bezier291" stroke="none" fill="rgb(0, 0, 0)" d="M 70.68,21.81 C 69.61,21.22 68.58,20.58 67.58,19.88 67.08,19.53 66.56,19.2 66.14,18.74 65.73,18.28 65.33,17.76 65.17,17.13 L 65.23,17.09 66.65,18.19 C 67.11,18.56 67.51,19 67.96,19.41 68.85,20.21 69.78,20.98 70.72,21.75 L 70.68,21.81 Z M 70.68,21.81" />
        </g>
        <g id="rana2-group293">
            <path id="rana2-bezier292" stroke="none" fill="rgb(0, 0, 0)" d="M 76.81,26.81 C 75.55,26.31 74.29,25.82 73.03,25.36 72.4,25.14 71.75,24.98 71.14,24.72 70.52,24.49 69.94,24.15 69.3,24.08 L 69.27,24.01 C 69.6,23.8 69.99,23.82 70.34,23.83 70.69,23.85 71.04,23.93 71.37,24.01 72.04,24.18 72.65,24.51 73.26,24.81 74.49,25.4 75.68,26.05 76.84,26.75 L 76.81,26.81 Z M 76.81,26.81" />
        </g>
        <g id="rana2-group294">
            <path id="rana2-bezier293" stroke="none" fill="rgb(0, 0, 0)" d="M 75.27,29.66 C 74.86,29.78 74.51,29.66 74.14,29.63 73.78,29.58 73.42,29.51 73.06,29.45 72.34,29.3 71.62,29.12 70.91,28.93 70.2,28.75 69.48,28.58 68.81,28.25 68.47,28.08 68.14,27.91 67.84,27.68 67.54,27.45 67.19,27.21 67.08,26.79 L 67.15,26.76 C 67.69,27.17 68.43,27.3 69.09,27.56 69.77,27.78 70.42,28.1 71.1,28.36 71.77,28.62 72.46,28.86 73.15,29.08 73.49,29.2 73.84,29.31 74.19,29.41 74.52,29.5 74.92,29.64 75.21,29.61 L 75.27,29.66 Z M 75.27,29.66" />
        </g>
        <g id="rana2-group295">
            <path id="rana2-bezier294" stroke="none" fill="rgb(0, 0, 0)" d="M 68.71,30.65 C 67.51,31 66.31,31.36 65.13,31.74 64.54,31.93 63.97,32.18 63.37,32.32 62.77,32.47 62.18,32.57 61.55,32.71 L 61.51,32.64 C 61.96,32.14 62.56,31.85 63.14,31.61 63.73,31.37 64.36,31.28 64.98,31.16 66.21,30.91 67.45,30.72 68.69,30.57 L 68.71,30.65 Z M 68.71,30.65" />
        </g>
        <g id="rana2-group296">
            <path id="rana2-bezier295" stroke="none" fill="rgb(0, 0, 0)" d="M 70.68,26.29 C 69.38,25.84 68.09,25.35 66.82,24.78 66.19,24.51 65.53,24.26 64.95,23.86 64.67,23.66 64.38,23.45 64.12,23.19 63.87,22.94 63.6,22.67 63.5,22.29 L 63.57,22.26 C 64.1,22.67 64.74,22.9 65.33,23.21 65.94,23.51 66.5,23.9 67.09,24.25 68.29,24.92 69.5,25.58 70.71,26.22 L 70.68,26.29 Z M 70.68,26.29" />
        </g>
        <g id="rana2-group297">
            <path id="rana2-bezier296" stroke="none" fill="rgb(0, 0, 0)" d="M 66.14,21.1 C 64.91,20.64 63.66,20.2 62.42,19.81 61.79,19.62 61.15,19.5 60.55,19.29 59.94,19.1 59.36,18.84 58.71,18.81 L 58.69,18.74 C 58.98,18.53 59.37,18.48 59.71,18.47 60.06,18.46 60.4,18.5 60.74,18.56 61.41,18.68 62.02,18.98 62.63,19.25 63.85,19.77 65.03,20.37 66.17,21.03 L 66.14,21.1 Z M 66.14,21.1" />
        </g>
        <g id="rana2-group298">
            <path id="rana2-bezier297" stroke="none" fill="rgb(0, 0, 0)" d="M 62.41,25.42 C 61.16,25.06 59.93,24.65 58.71,24.15 58.1,23.91 57.48,23.69 56.92,23.31 56.65,23.12 56.38,22.92 56.14,22.67 55.9,22.43 55.66,22.15 55.58,21.79 L 55.65,21.76 C 56.14,22.16 56.73,22.38 57.3,22.67 57.87,22.94 58.4,23.3 58.97,23.61 60.1,24.21 61.27,24.79 62.44,25.35 L 62.41,25.42 Z M 62.41,25.42" />
        </g>
        <g id="rana2-group299">
            <path id="rana2-bezier298" stroke="none" fill="rgb(0, 0, 0)" d="M 51.09,22.8 C 50.4,22.19 49.69,21.61 48.96,21.08 48.59,20.82 48.19,20.62 47.85,20.35 47.5,20.08 47.19,19.82 46.78,19.56 L 46.79,19.49 C 47.29,19.34 47.82,19.51 48.25,19.72 48.69,19.93 49.02,20.29 49.35,20.62 50.02,21.28 50.61,21.99 51.14,22.75 L 51.09,22.8 Z M 51.09,22.8" />
        </g>
        <g id="rana2-group300">
            <path id="rana2-bezier299" stroke="none" fill="rgb(0, 0, 0)" d="M 60.19,27.13 C 58.93,26.99 57.68,26.81 56.43,26.57 55.8,26.45 55.17,26.37 54.57,26.13 53.98,25.88 53.36,25.6 52.92,25.06 L 52.97,25 C 53.58,25.17 54.19,25.26 54.79,25.41 55.4,25.55 55.98,25.79 56.58,25.99 57.78,26.35 58.99,26.71 60.2,27.05 L 60.19,27.13 Z M 60.19,27.13" />
        </g>
        <g id="rana2-group301">
            <path id="rana2-bezier300" stroke="none" fill="rgb(0, 0, 0)" d="M 50.02,28.72 C 48.85,28.4 47.68,28.1 46.52,27.81 45.93,27.68 45.33,27.59 44.77,27.41 44.2,27.23 43.66,27.01 43.08,26.82 L 43.07,26.74 C 43.7,26.53 44.34,26.6 44.95,26.68 45.56,26.78 46.12,27.02 46.69,27.24 47.83,27.66 48.95,28.13 50.04,28.65 L 50.02,28.72 Z M 50.02,28.72" />
        </g>
        <g id="rana2-group302">
            <path id="rana2-bezier301" stroke="none" fill="rgb(0, 0, 0)" d="M 52.37,32.15 C 51.67,32.24 50.97,32.13 50.29,32.06 49.6,31.96 48.92,31.83 48.24,31.69 47.56,31.55 46.87,31.44 46.22,31.17 45.59,30.88 44.92,30.57 44.45,29.98 L 44.5,29.92 C 45.15,30.15 45.81,30.27 46.47,30.45 47.12,30.63 47.74,30.9 48.39,31.11 49.04,31.32 49.7,31.52 50.36,31.69 51.02,31.86 51.69,32.06 52.36,32.08 L 52.37,32.15 Z M 52.37,32.15" />
        </g>
        <g id="rana2-group303">
            <path id="rana2-bezier302" stroke="none" fill="rgb(0, 0, 0)" d="M 58.68,31.23 C 57.57,30.76 56.46,30.27 55.37,29.76 54.82,29.51 54.25,29.29 53.75,28.96 53.25,28.62 52.75,28.25 52.35,27.76 L 52.38,27.7 C 53,27.84 53.56,28.05 54.11,28.3 54.66,28.55 55.15,28.91 55.66,29.23 56.68,29.86 57.7,30.5 58.72,31.16 L 58.68,31.23 Z M 58.68,31.23" />
        </g>
        <g id="rana2-group304">
            <path id="rana2-bezier303" stroke="none" fill="rgb(0, 0, 0)" d="M 104.66,33.55 C 104.4,32.14 104.19,30.71 104.06,29.27 103.98,28.56 103.88,27.83 103.94,27.1 103.97,26.74 104.02,26.37 104.12,26 104.23,25.66 104.31,25.24 104.67,25 L 104.72,25.06 C 104.54,25.69 104.69,26.42 104.69,27.12 104.72,27.82 104.66,28.53 104.66,29.25 104.66,30.67 104.69,32.11 104.74,33.54 L 104.66,33.55 Z M 104.66,33.55" />
        </g>
        <g id="rana2-group305">
            <path id="rana2-bezier304" stroke="none" fill="rgb(0, 0, 0)" d="M 101.12,32.69 C 100.67,31.64 100.27,30.59 99.92,29.51 99.74,28.97 99.52,28.43 99.46,27.86 99.43,27.57 99.41,27.28 99.43,26.98 99.46,26.69 99.49,26.37 99.66,26.1 L 99.73,26.12 C 99.85,26.67 100.05,27.18 100.2,27.71 100.35,28.24 100.4,28.8 100.5,29.36 100.72,30.46 100.95,31.56 101.19,32.66 L 101.12,32.69 Z M 101.12,32.69" />
        </g>
        <g id="rana2-group306">
            <path id="rana2-bezier305" stroke="none" fill="rgb(0, 0, 0)" d="M 101.12,28.49 C 101.24,27.21 101.43,25.92 101.73,24.65 101.87,24.02 102,23.37 102.3,22.77 102.61,22.2 103,21.55 103.68,21.29 L 103.72,21.35 C 103.36,21.89 103.21,22.47 102.99,23.06 102.8,23.65 102.52,24.22 102.31,24.82 101.89,26.03 101.53,27.26 101.19,28.51 L 101.12,28.49 Z M 101.12,28.49" />
        </g>
        <g id="rana2-group307">
            <path id="rana2-bezier306" stroke="none" fill="rgb(0, 0, 0)" d="M 98.35,26.27 C 97.95,25.05 97.6,23.82 97.34,22.55 97.2,21.93 97.04,21.29 97.05,20.63 97.06,20.3 97.08,19.97 97.17,19.63 97.26,19.32 97.36,18.92 97.72,18.75 L 97.76,18.81 C 97.55,19.35 97.75,19.98 97.8,20.59 97.88,21.2 97.88,21.83 97.93,22.46 98.06,23.72 98.23,24.98 98.42,26.25 L 98.35,26.27 Z M 98.35,26.27" />
        </g>
        <g id="rana2-group308">
            <path id="rana2-bezier307" stroke="none" fill="rgb(0, 0, 0)" d="M 94.71,48.98 C 92.42,48.71 90.1,48.55 87.79,48.54 85.48,48.52 83.19,48.66 80.94,49.18 78.66,49.61 76.38,50.05 74.08,50.33 72.92,50.45 71.77,50.58 70.61,50.66 69.45,50.71 68.28,50.84 67.11,50.64 L 67.12,50.57 C 67.69,50.58 68.27,50.48 68.84,50.4 L 70.55,50.14 73.97,49.58 C 76.25,49.21 78.55,48.94 80.84,48.58 83.12,48.14 85.49,48.06 87.81,48.17 90.13,48.28 92.44,48.53 94.73,48.91 L 94.71,48.98 Z M 94.71,48.98" />
        </g>
        <g id="rana2-group309">
            <path id="rana2-bezier308" stroke="none" fill="rgb(0, 0, 0)" d="M 65.46,50.71 C 64.45,50.9 63.45,51.11 62.46,51.35 61.97,51.48 61.5,51.66 61,51.73 60.5,51.81 60.02,51.86 59.47,51.9 L 59.44,51.83 C 59.82,51.42 60.33,51.19 60.82,51.01 61.32,50.83 61.85,50.81 62.36,50.76 63.39,50.65 64.43,50.61 65.46,50.63 L 65.46,50.71 Z M 65.46,50.71" />
        </g>
        <g id="rana2-group310">
            <path id="rana2-bezier309" stroke="none" fill="rgb(0, 0, 0)" d="M 57.15,52.21 C 55.28,52.43 53.39,52.52 51.5,52.36 51.03,52.32 50.56,52.26 50.09,52.18 49.62,52.1 49.16,51.94 48.72,51.91 47.8,51.82 46.86,51.83 45.92,51.85 42.17,51.94 38.41,52.21 34.65,52.41 30.9,52.61 27.13,52.87 23.34,52.66 22.39,52.59 21.44,52.5 20.49,52.29 L 17.77,51.51 C 16.87,51.26 15.96,51.03 15.04,50.86 14.13,50.7 13.19,50.52 12.27,50.68 L 12.25,50.6 C 13.18,50.35 14.15,50.44 15.09,50.52 16.03,50.64 16.96,50.81 17.89,51 18.81,51.18 19.75,51.46 20.62,51.66 21.51,51.82 22.45,51.88 23.38,51.91 27.11,52.02 30.87,51.93 34.63,51.81 38.38,51.69 42.14,51.49 45.91,51.48 46.86,51.48 47.8,51.49 48.75,51.61 49.25,51.66 49.69,51.84 50.14,51.92 50.59,52.02 51.06,52.09 51.52,52.14 53.38,52.34 55.27,52.31 57.14,52.14 L 57.15,52.21 Z M 57.15,52.21" />
        </g>
        <g id="rana2-group311">
            <path id="rana2-bezier310" stroke="none" fill="rgb(0, 0, 0)" d="M 6.57,57.58 C 6.89,57.73 7.19,57.93 7.46,58.18 7.61,58.3 7.78,58.42 7.83,58.63 7.87,58.82 7.87,59.09 7.66,59.28 L 7.59,59.28 C 7.38,59.13 7.26,59.06 7.15,58.95 7.05,58.86 7.04,58.69 6.98,58.54 6.85,58.25 6.69,57.94 6.51,57.64 L 6.57,57.58 Z M 6.57,57.58" />
        </g>
        <g id="rana2-group312">
            <path id="rana2-bezier311" stroke="none" fill="rgb(0, 0, 0)" d="M 8.47,57.41 C 8.79,57.55 9.07,57.77 9.29,58.06 9.41,58.2 9.55,58.35 9.55,58.55 9.55,58.74 9.49,58.95 9.29,59.11 L 9.21,59.11 C 9,58.96 8.91,58.85 8.82,58.73 8.75,58.62 8.78,58.47 8.75,58.33 8.69,58.05 8.58,57.76 8.42,57.47 L 8.47,57.41 Z M 8.47,57.41" />
        </g>
        <g id="rana2-group313">
            <path id="rana2-bezier312" stroke="none" fill="rgb(0, 0, 0)" d="M 10.2,57.95 C 10.56,57.86 10.95,57.85 11.35,58 11.54,58.07 11.79,58.17 11.89,58.41 11.98,58.65 11.94,58.93 11.75,59.11 L 11.67,59.11 C 11.46,58.94 11.35,58.87 11.25,58.81 11.16,58.76 11.15,58.63 11.04,58.52 10.84,58.32 10.53,58.15 10.2,58.02 L 10.2,57.95 Z M 10.2,57.95" />
        </g>
        <g id="rana2-group314">
            <path id="rana2-bezier313" stroke="none" fill="rgb(0, 0, 0)" d="M 6.55,59.15 C 6.12,59.25 5.52,59.21 5.25,58.72 5.12,58.49 5.11,58.23 5.08,58.01 5.05,57.79 5.01,57.56 4.99,57.33 4.89,56.42 5.07,55.34 5.79,54.6 6.44,54.01 6.67,53.19 7.02,52.37 7.36,51.55 7.66,50.7 8.04,49.85 L 8.11,49.87 C 8.14,50.8 7.99,51.72 7.73,52.62 7.59,53.06 7.42,53.51 7.17,53.92 7.04,54.13 6.9,54.33 6.74,54.53 6.58,54.73 6.35,54.91 6.21,55.02 5.59,55.57 5.35,56.43 5.37,57.31 5.38,57.74 5.34,58.26 5.45,58.62 5.6,59 6.1,59.13 6.53,59.07 L 6.55,59.15 Z M 6.55,59.15" />
        </g>
        <g id="rana2-group315">
            <path id="rana2-bezier314" stroke="none" fill="rgb(0, 0, 0)" d="M 9.22,56.59 C 9.68,55.71 10.1,54.82 10.49,53.92 10.67,53.47 10.8,53 11.01,52.57 L 11.67,51.27 11.75,51.27 C 11.92,51.79 11.84,52.34 11.71,52.83 11.58,53.33 11.29,53.76 11.02,54.19 10.51,55.05 9.92,55.87 9.28,56.63 L 9.22,56.59 Z M 9.22,56.59" />
        </g>
        <g id="rana2-group321">
            <path id="rana2-bezier320" stroke="none" fill="rgb(0, 0, 0)" d="M 32.14,53.33 L 35.08,55.87 C 35.57,56.28 36.09,56.66 36.54,57.12 36.99,57.56 37.39,58.09 37.84,58.51 L 37.83,58.58 C 37.45,58.57 37.16,58.38 36.86,58.23 36.57,58.07 36.3,57.88 36.04,57.68 35.52,57.28 35.1,56.78 34.66,56.3 33.77,55.36 32.92,54.38 32.09,53.39 L 32.14,53.33 Z M 32.14,53.33" />
        </g>
        <g id="rana2-group322">
            <path id="rana2-bezier321" stroke="none" fill="rgb(0, 0, 0)" d="M 38.62,57.61 C 38.64,58.12 38.85,58.64 39.25,58.86 39.63,59.1 40.11,59.01 40.65,58.98 41.18,58.94 41.7,58.85 42.22,58.9 42.74,58.95 43.27,59.03 43.79,59.24 L 43.79,59.31 C 43.27,59.52 42.74,59.6 42.22,59.65 41.7,59.7 41.18,59.62 40.65,59.58 40.17,59.53 39.52,59.57 39.03,59.16 38.55,58.75 38.47,58.12 38.55,57.61 L 38.62,57.61 Z M 38.62,57.61" />
        </g>
        <g id="rana2-group323">
            <path id="rana2-bezier322" stroke="none" fill="rgb(0, 0, 0)" d="M 43.97,57.95 C 44.41,57.95 44.85,58.01 45.28,58.14 45.5,58.21 45.76,58.25 45.93,58.46 46.09,58.64 46.25,59.02 46.04,59.28 L 45.96,59.28 C 45.74,59.1 45.6,59.12 45.45,59.03 45.29,58.97 45.18,58.81 45.02,58.68 44.69,58.45 44.32,58.23 43.95,58.02 L 43.97,57.95 Z M 43.97,57.95" />
        </g>
        <g id="rana2-group324">
            <path id="rana2-bezier323" stroke="none" fill="rgb(0, 0, 0)" d="M 43.4,57.48 C 42.72,57.31 42,57.21 41.34,57.31 41.26,57.32 41.18,57.33 41.11,57.36 41.09,57.38 40.84,57.44 40.71,57.35 40.51,57.26 40.37,57.15 40.22,57.04 39.92,56.83 39.65,56.59 39.37,56.36 38.83,55.88 38.28,55.41 37.85,54.81 37.64,54.52 37.44,54.21 37.28,53.87 37.13,53.54 36.97,53.18 37,52.78 L 37.07,52.77 C 37.45,53.36 37.97,53.82 38.43,54.34 38.91,54.84 39.32,55.41 39.79,55.93 40.03,56.18 40.27,56.43 40.53,56.67 40.65,56.78 40.79,56.9 40.9,56.96 40.84,57.03 41.13,56.93 41.31,56.93 42.07,56.93 42.76,57.15 43.43,57.41 L 43.4,57.48 Z M 43.4,57.48" />
        </g>
        <g id="rana2-group325">
            <path id="rana2-bezier324" stroke="none" fill="rgb(0, 0, 0)" d="M 60.2,52.76 C 60.81,53.8 61.45,54.82 62.12,55.8 62.47,56.28 62.86,56.72 63.18,57.2 63.51,57.69 63.79,58.17 64.22,58.6 L 64.19,58.67 C 63.53,58.58 63.01,58.11 62.59,57.67 62.16,57.21 61.89,56.65 61.61,56.11 61.03,55.04 60.55,53.93 60.13,52.79 L 60.2,52.76 Z M 60.2,52.76" />
        </g>
        <g id="rana2-group326">
            <path id="rana2-bezier325" stroke="none" fill="rgb(0, 0, 0)" d="M 64.49,57.06 C 64.71,57.48 64.94,57.89 65.19,58.28 65.44,58.67 65.71,59.07 66.01,59.37 66.31,59.65 66.62,59.66 67.04,59.7 67.46,59.75 67.98,59.74 68.46,59.95 L 68.46,60.02 C 67.99,60.23 67.57,60.39 67.05,60.45 66.53,60.54 65.85,60.23 65.55,59.76 65.24,59.33 65.05,58.9 64.86,58.45 64.69,58 64.54,57.54 64.42,57.08 L 64.49,57.06 Z M 64.49,57.06" />
        </g>
        <g id="rana2-group327">
            <path id="rana2-bezier326" stroke="none" fill="rgb(0, 0, 0)" d="M 68.97,58.86 C 69.34,58.83 69.72,58.86 70.1,59 70.29,59.06 70.54,59.13 70.65,59.36 70.77,59.57 70.79,59.89 70.58,60.08 L 70.51,60.08 C 70.29,59.91 70.17,59.89 70.07,59.83 69.97,59.77 69.92,59.63 69.8,59.52 69.57,59.31 69.27,59.11 68.95,58.94 L 68.97,58.86 Z M 68.97,58.86" />
        </g>
        <g id="rana2-group328">
            <path id="rana2-bezier327" stroke="none" fill="rgb(0, 0, 0)" d="M 71.14,58.87 C 71.46,58.88 71.78,58.94 72.09,59.1 72.24,59.18 72.44,59.25 72.51,59.46 72.58,59.65 72.58,59.92 72.37,60.08 L 72.3,60.08 C 72.08,59.94 71.98,59.92 71.88,59.87 71.8,59.82 71.78,59.68 71.71,59.57 71.55,59.36 71.34,59.14 71.11,58.94 L 71.14,58.87 Z M 71.14,58.87" />
        </g>
        <g id="rana2-group329">
            <path id="rana2-bezier328" stroke="none" fill="rgb(0, 0, 0)" d="M 70.81,58.02 C 70.45,57.85 70.05,57.73 69.66,57.7 69.47,57.69 69.27,57.7 69.09,57.74 69.01,57.76 68.88,57.79 68.78,57.8 68.65,57.8 68.52,57.79 68.41,57.77 67.54,57.54 66.86,56.99 66.27,56.35 65.97,56.04 65.7,55.64 65.59,55.16 65.47,54.72 65.45,54.3 65.44,53.89 65.42,53.06 65.54,52.27 65.43,51.46 L 65.5,51.43 C 65.77,51.77 65.89,52.21 65.99,52.61 66.09,53.03 66.13,53.44 66.19,53.84 66.23,54.24 66.26,54.64 66.31,55.01 66.34,55.34 66.5,55.67 66.73,55.98 67.19,56.58 67.81,57.16 68.51,57.41 68.77,57.55 69.28,57.35 69.69,57.48 70.11,57.57 70.5,57.74 70.85,57.96 L 70.81,58.02 Z M 70.81,58.02" />
        </g>
        <g id="rana2-group335">
            <path id="rana2-bezier334" stroke="none" fill="rgb(0, 0, 0)" d="M 80.7,56.29 C 80.69,56.68 80.63,57.08 80.48,57.47 80.41,57.67 80.34,57.9 80.12,58.04 79.92,58.16 79.58,58.24 79.36,58.02 L 79.36,57.95 C 79.53,57.73 79.54,57.61 79.62,57.48 79.68,57.36 79.84,57.29 79.96,57.16 80.19,56.9 80.42,56.59 80.63,56.27 L 80.7,56.29 Z M 80.7,56.29" />
        </g>
        <g id="rana2-group336">
            <path id="rana2-bezier335" stroke="none" fill="rgb(0, 0, 0)" d="M 80.05,55.33 C 79.99,55.71 79.88,56.07 79.65,56.41 79.55,56.58 79.43,56.8 79.18,56.86 78.95,56.93 78.64,56.89 78.49,56.65 L 78.51,56.57 C 78.71,56.39 78.76,56.28 78.85,56.19 78.92,56.1 79.08,56.08 79.22,56 79.48,55.82 79.74,55.57 79.98,55.3 L 80.05,55.33 Z M 80.05,55.33" />
        </g>
        <g id="rana2-group337">
            <path id="rana2-bezier336" stroke="none" fill="rgb(0, 0, 0)" d="M 78.72,55.34 C 78.42,54.97 78.17,54.55 78.04,54.06 77.99,53.81 77.98,53.54 78.04,53.27 78.1,53.02 78.13,52.84 78.13,52.63 78.14,52.2 77.99,51.81 77.89,51.44 77.78,51.06 77.59,50.71 77.29,50.31 L 77.32,50.24 C 77.84,50.28 78.32,50.66 78.58,51.14 78.84,51.62 78.83,52.19 78.73,52.69 78.69,52.94 78.59,53.21 78.51,53.41 78.43,53.59 78.4,53.79 78.42,54.01 78.43,54.44 78.57,54.89 78.78,55.3 L 78.72,55.34 Z M 78.72,55.34" />
        </g>
        <g id="rana2-group338">
            <path id="rana2-bezier337" stroke="none" fill="rgb(0, 0, 0)" d="M 81.05,55.69 C 81.12,55.2 81.16,54.71 81.18,54.22 81.2,53.73 81.2,53.24 81.11,52.81 81.08,52.7 81.04,52.6 81,52.53 80.94,52.4 80.89,52.32 80.83,52.14 80.74,51.84 80.74,51.56 80.77,51.29 80.85,50.75 81.05,50.26 81.4,49.84 L 81.47,49.87 C 81.51,50.4 81.49,50.88 81.52,51.33 81.52,51.55 81.54,51.78 81.55,51.96 81.55,52.03 81.59,52.17 81.62,52.28 81.67,52.43 81.69,52.58 81.7,52.72 81.74,53.27 81.65,53.77 81.55,54.27 81.43,54.76 81.29,55.24 81.12,55.71 L 81.05,55.69 Z M 81.05,55.69" />
        </g>
        <g id="rana2-group348">
            <path id="rana2-bezier347" stroke="none" fill="rgb(0, 0, 0)" d="M 87.08,31.68 C 86.04,32.15 85.02,32.67 84.05,33.23 83.56,33.52 83.11,33.86 82.63,34.12 82.13,34.38 81.65,34.63 81.11,34.89 L 81.06,34.83 C 81.31,34.28 81.76,33.85 82.22,33.49 82.69,33.13 83.24,32.92 83.78,32.69 84.84,32.24 85.94,31.88 87.05,31.61 L 87.08,31.68 Z M 87.08,31.68" />
        </g>
        <g id="rana2-group349">
            <path id="rana2-bezier348" stroke="none" fill="rgb(0, 0, 0)" d="M 88.83,27.75 C 88.25,27.02 87.63,26.33 86.98,25.69 86.65,25.38 86.28,25.12 85.98,24.82 85.66,24.52 85.39,24.23 84.95,24.03 L 84.95,23.96 C 85.45,23.73 86.03,23.98 86.44,24.23 86.86,24.5 87.15,24.91 87.43,25.29 88.01,26.05 88.49,26.86 88.9,27.71 L 88.83,27.75 Z M 88.83,27.75" />
        </g>
        <g id="rana2-group417">
            <path id="rana2-bezier416" stroke="none" fill="rgb(0, 0, 0)" d="M 92.93,25.41 C 92.28,24.93 91.69,24.36 91.18,23.7 90.92,23.38 90.64,23.04 90.52,22.62 90.4,22.21 90.36,21.74 90.55,21.32 L 90.62,21.32 91.21,22.34 C 91.4,22.66 91.51,23.03 91.68,23.37 92.05,24.06 92.49,24.73 92.98,25.36 L 92.93,25.41 Z M 92.93,25.41" />
        </g>
        <g id="rana2-group418">
            <path id="rana2-bezier417" stroke="none" fill="rgb(0, 0, 0)" d="M 98.38,33.18 C 97.95,33.14 97.53,33.09 97.11,33.07 96.9,33.07 96.68,33.06 96.48,33.08 96.38,33.09 96.28,33.11 96.2,33.13 96.11,33.16 96.08,33.22 96.11,33.18 96.1,33.17 96.14,33.25 96.2,33.31 96.27,33.39 96.34,33.43 96.44,33.56 96.46,33.58 96.5,33.66 96.51,33.74 96.49,33.98 96.32,34.01 96.26,34.02 96.15,34.03 96.09,34.01 96.03,34.01 95.91,33.99 95.8,33.96 95.7,33.93 95.27,33.83 94.87,33.71 94.47,33.63 94.27,33.59 94.07,33.56 93.89,33.56 93.7,33.54 93.59,33.65 93.69,33.57 93.69,33.52 93.73,33.73 93.81,33.88 L 94.1,34.44 C 94.2,34.66 94.28,34.87 94.33,35.12 94.36,35.36 94.39,35.67 94.2,35.96 94.01,36.24 93.69,36.3 93.46,36.3 93.34,36.29 93.22,36.27 93.11,36.24 L 92.95,36.19 92.91,36.18 92.89,36.17 92.88,36.17 C 92.88,36.15 92.86,36.2 92.94,36.13 92.94,36.03 92.91,36.08 92.92,36.06 92.9,36.06 92.95,36.09 92.97,36.1 L 92.95,36.17 C 92.91,36.16 92.91,36.17 92.85,36.15 92.85,36.14 92.83,36.18 92.83,36.08 92.91,36.02 92.89,36.06 92.89,36.05 L 92.91,36.05 92.93,36.05 92.97,36.04 93.12,36.02 C 93.23,36.01 93.32,35.99 93.41,35.96 93.6,35.91 93.73,35.8 93.75,35.7 93.8,35.5 93.63,35.1 93.43,34.78 L 93.11,34.22 C 93.03,33.98 92.86,33.76 93,33.29 93.09,33.06 93.35,32.92 93.5,32.9 93.67,32.87 93.8,32.88 93.93,32.89 94.18,32.92 94.4,32.98 94.61,33.04 95.04,33.17 95.44,33.33 95.84,33.47 95.93,33.5 96.03,33.53 96.12,33.56 96.16,33.57 96.21,33.57 96.21,33.58 96.2,33.58 96.09,33.59 96.07,33.76 96.07,33.79 96.1,33.82 96.08,33.8 96.02,33.66 95.75,33.56 95.74,33.13 95.8,32.87 96.01,32.83 96.12,32.81 96.24,32.78 96.36,32.78 96.47,32.79 96.7,32.79 96.91,32.82 97.13,32.85 97.56,32.92 97.98,33.02 98.39,33.11 L 98.38,33.18 Z M 98.38,33.18" />
        </g>
    </g>
</svg>
