<?xml version="1.0" encoding="UTF-8"?>
<!DOCTYPE svg PUBLIC "-//W3C//DTD SVG 1.1//EN" "http://www.w3.org/Graphics/SVG/1.1/DTD/svg11.dtd">
<svg version="1.1" xmlns="http://www.w3.org/2000/svg" xmlns:xlink="http://www.w3.org/1999/xlink" width="120" height="60"  xml:space="preserve" id="ranaTop2">
    <!-- Generated by PaintCode - http://www.paintcodeapp.com -->
    <g id="ranaTop2-group1441">
        <g id="ranaTop2-group1103">
            <path id="ranaTop2-bezier1101" stroke="none" fill="rgb(0, 0, 0)" d="M 110.08,34.25 C 110.86,34.33 111.63,34.6 112.3,35.05 112.97,35.49 113.54,36.29 113.49,37.21 L 113.48,37.39 113.46,37.54 C 113.44,37.65 113.4,37.79 113.36,37.89 113.27,38.11 113.13,38.32 112.97,38.49 112.64,38.83 112.22,39.01 111.82,39.13 111,39.34 110.18,39.33 109.4,39.11 L 109.41,39.04 C 110.17,38.85 110.92,38.69 111.58,38.42 112.24,38.15 112.82,37.83 112.9,37.16 113,36.5 112.64,35.82 112.07,35.35 111.52,34.86 110.81,34.5 110.06,34.33 L 110.08,34.25 Z M 110.08,34.25" />
        </g>
        <g id="ranaTop2-group1104">
            <path id="ranaTop2-bezier1102" stroke="none" fill="rgb(0, 0, 0)" d="M 107.61,38.85 C 105.9,39.93 104.15,40.95 102.27,41.76 101.31,42.17 100.35,42.45 99.43,42.78 98.5,43.08 97.66,43.52 96.79,44.07 L 96.74,44.02 C 97.31,43.17 98.2,42.49 99.16,42.08 100.11,41.64 101.14,41.51 102.05,41.2 103.93,40.53 105.76,39.67 107.57,38.79 L 107.61,38.85 Z M 107.61,38.85" />
        </g>
        <g id="ranaTop2-group1105">
            <path id="ranaTop2-bezier1103" stroke="none" fill="rgb(0, 0, 0)" d="M 96.29,42.97 C 96.32,42.63 96.33,42.28 96.28,41.94 96.23,41.62 96.11,41.27 95.85,41.12 95.6,40.97 95.26,41.07 94.97,41.21 94.67,41.35 94.39,41.55 94.12,41.76 93.05,42.61 92.08,43.61 91.16,44.64 90.26,45.68 89.42,46.79 88.71,47.91 88.53,48.19 88.37,48.48 88.27,48.76 88.18,49.06 88.17,49.3 88.31,49.43 88.46,49.59 88.82,49.64 89.14,49.64 89.48,49.65 89.83,49.61 90.17,49.57 L 90.19,49.65 C 89.87,49.79 89.53,49.9 89.17,49.98 88.82,50.02 88.42,50.1 87.99,49.85 87.78,49.72 87.63,49.46 87.61,49.23 87.58,49 87.61,48.79 87.65,48.59 87.74,48.21 87.89,47.87 88.05,47.54 88.75,46.25 89.74,45.23 90.72,44.23 91.72,43.23 92.75,42.28 93.9,41.46 94.19,41.26 94.51,41.07 94.85,40.93 95.18,40.81 95.6,40.69 95.97,40.93 96.31,41.18 96.39,41.58 96.42,41.93 96.45,42.28 96.42,42.64 96.36,42.98 L 96.29,42.97 Z M 96.29,42.97" />
        </g>
        <g id="ranaTop2-group1106">
            <path id="ranaTop2-bezier1104" stroke="none" fill="rgb(0, 0, 0)" d="M 95.7,44.77 C 94.98,45.47 94.26,46.17 93.57,46.89 93.22,47.25 92.92,47.65 92.55,47.97 92.19,48.3 91.79,48.57 91.47,48.95 L 91.4,48.94 C 91.35,48.64 91.47,48.36 91.58,48.12 91.69,47.88 91.85,47.66 92.01,47.45 92.33,47.04 92.76,46.75 93.16,46.44 93.96,45.81 94.8,45.24 95.66,44.71 L 95.7,44.77 Z M 95.7,44.77" />
        </g>
        <g id="ranaTop2-group1107">
            <path id="ranaTop2-bezier1105" stroke="none" fill="rgb(0, 0, 0)" d="M 109.67,32.89 C 109.17,32 108.6,31.16 107.98,30.38 107.37,29.59 106.69,28.84 105.92,28.25 105.53,27.95 105.12,27.71 104.68,27.53 104.2,27.33 103.72,27.05 103.31,26.72 102.5,26.04 101.82,25.08 101.75,24.01 L 101.82,24 C 102.28,24.9 102.98,25.58 103.76,26.12 104.16,26.4 104.56,26.63 105,26.86 105.47,27.11 105.92,27.43 106.3,27.78 107.86,29.21 108.9,31 109.74,32.85 L 109.67,32.89 Z M 109.67,32.89" />
        </g>
        <g id="ranaTop2-group1108">
            <path id="ranaTop2-bezier1106" stroke="none" fill="rgb(0, 0, 0)" d="M 100.83,23.89 C 100.48,24.55 100.02,25.17 99.38,25.61 98.76,26.07 97.83,26.15 97.12,25.77 96.41,25.41 95.87,24.84 95.39,24.24 94.91,23.65 94.51,22.99 94.16,22.32 93.48,20.97 92.9,19.52 92.85,17.94 92.85,17.54 92.88,17.14 93,16.73 93.07,16.53 93.16,16.32 93.31,16.13 93.48,15.93 93.63,15.85 93.81,15.73 94.17,15.52 94.59,15.38 95.01,15.43 95.42,15.49 95.79,15.68 96.04,15.98 L 95.99,16.04 C 95.37,15.62 94.6,15.71 94.11,16.16 93.83,16.39 93.69,16.58 93.63,16.9 93.56,17.21 93.56,17.56 93.6,17.91 93.73,19.3 94.12,20.73 94.7,22.06 95.32,23.36 96.08,24.69 97.29,25.44 97.89,25.8 98.65,25.8 99.27,25.42 99.88,25.06 100.38,24.48 100.76,23.85 L 100.83,23.89 Z M 100.83,23.89" />
        </g>
        <g id="ranaTop2-group1109">
            <path id="ranaTop2-bezier1107" stroke="none" fill="rgb(0, 0, 0)" d="M 96.74,17.85 C 97.35,18.53 97.94,19.22 98.51,19.92 98.8,20.27 99.12,20.6 99.34,21 99.55,21.4 99.74,21.83 99.82,22.32 L 99.75,22.36 C 99.33,22.09 99.02,21.77 98.72,21.42 98.42,21.08 98.24,20.66 98.01,20.27 97.55,19.49 97.11,18.69 96.67,17.89 L 96.74,17.85 Z M 96.74,17.85" />
        </g>
        <g id="ranaTop2-group1110">
            <path id="ranaTop2-bezier1108" stroke="none" fill="rgb(0, 0, 0)" d="M 86.18,15.6 C 85.06,14.92 84.02,14.11 83.08,13.16 82.61,12.69 82.13,12.2 81.83,11.57 81.53,10.96 81.34,10.23 81.5,9.55 L 81.57,9.55 C 81.82,10.17 82.13,10.69 82.48,11.2 82.82,11.71 83.14,12.26 83.53,12.76 84.33,13.76 85.25,14.69 86.23,15.54 L 86.18,15.6 Z M 86.18,15.6" />
        </g>
        <g id="ranaTop2-group1111">
            <path id="ranaTop2-bezier1109" stroke="none" fill="rgb(0, 0, 0)" d="M 83.06,16.36 C 81.94,15.2 80.75,14.13 79.5,13.14 78.87,12.65 78.2,12.23 77.58,11.74 76.96,11.24 76.34,10.76 75.72,10.22 L 75.75,10.15 C 76.57,10.33 77.31,10.7 78.01,11.12 78.71,11.55 79.3,12.13 79.89,12.69 81.08,13.8 82.16,15.01 83.12,16.31 L 83.06,16.36 Z M 83.06,16.36" />
        </g>
        <g id="ranaTop2-group1112">
            <path id="ranaTop2-bezier1110" stroke="none" fill="rgb(0, 0, 0)" d="M 74.19,13.29 C 72.54,12.2 71.06,10.84 69.88,9.21 69.29,8.41 68.74,7.53 68.46,6.53 68.2,5.54 68.14,4.48 68.44,3.51 L 68.51,3.51 C 68.63,4.5 68.84,5.42 69.18,6.3 69.52,7.18 69.88,8.06 70.38,8.88 70.88,9.7 71.48,10.47 72.13,11.19 72.77,11.92 73.47,12.61 74.23,13.23 L 74.19,13.29 Z M 74.19,13.29" />
        </g>
        <g id="ranaTop2-group1113">
            <path id="ranaTop2-bezier1111" stroke="none" fill="rgb(0, 0, 0)" d="M 65.46,8.32 C 64.84,7.07 64.14,5.86 63.33,4.75 62.92,4.2 62.44,3.71 62.01,3.21 61.57,2.71 61.13,2.24 60.54,1.84 L 60.56,1.77 C 61.31,1.78 62,2.21 62.55,2.68 63.1,3.17 63.47,3.8 63.83,4.42 64.56,5.65 65.11,6.95 65.53,8.29 L 65.46,8.32 Z M 65.46,8.32" />
        </g>
        <g id="ranaTop2-group1114">
            <path id="ranaTop2-bezier1112" stroke="none" fill="rgb(0, 0, 0)" d="M 62,8.32 C 61.7,7.77 61.3,7.29 60.87,6.85 60.45,6.4 59.98,5.99 59.49,5.63 58.99,5.27 58.45,4.99 57.95,4.64 57.45,4.28 56.94,3.94 56.45,3.51 L 56.48,3.44 C 57.14,3.49 57.75,3.71 58.33,3.99 58.92,4.28 59.4,4.73 59.87,5.17 60.81,6.05 61.62,7.09 62.07,8.29 L 62,8.32 Z M 62,8.32" />
        </g>
        <g id="ranaTop2-group1115">
            <path id="ranaTop2-bezier1113" stroke="none" fill="rgb(0, 0, 0)" d="M 56.82,5.92 C 55.61,5.68 54.42,5.36 53.25,4.94 52.67,4.73 52.06,4.54 51.53,4.2 51.01,3.84 50.49,3.42 50.19,2.83 L 50.24,2.78 C 50.81,3.06 51.35,3.29 51.89,3.54 52.43,3.78 52.94,4.11 53.49,4.39 54.58,4.92 55.7,5.4 56.84,5.85 L 56.82,5.92 Z M 56.82,5.92" />
        </g>
        <g id="ranaTop2-group1116">
            <path id="ranaTop2-bezier1114" stroke="none" fill="rgb(0, 0, 0)" d="M 52.21,7.5 C 50.9,6.26 49.49,5.13 47.99,4.16 47.24,3.69 46.44,3.3 45.67,2.89 44.9,2.47 44.11,2.13 43.24,1.84 L 43.25,1.77 C 44.17,1.65 45.13,1.86 45.99,2.21 46.86,2.56 47.61,3.12 48.34,3.67 49.8,4.78 51.1,6.06 52.27,7.45 L 52.21,7.5 Z M 52.21,7.5" />
        </g>
        <g id="ranaTop2-group1117">
            <path id="ranaTop2-bezier1115" stroke="none" fill="rgb(0, 0, 0)" d="M 47.72,5.92 C 46.13,5.09 44.52,4.3 42.89,3.58 L 40.43,2.6 C 39.62,2.28 38.83,1.86 37.95,1.84 L 37.93,1.77 C 38.36,1.53 38.87,1.56 39.33,1.6 39.8,1.64 40.24,1.76 40.68,1.89 41.56,2.16 42.36,2.61 43.15,3.04 44.75,3.89 46.28,4.84 47.76,5.86 L 47.72,5.92 Z M 47.72,5.92" />
        </g>
        <g id="ranaTop2-group1118">
            <path id="ranaTop2-bezier1116" stroke="none" fill="rgb(0, 0, 0)" d="M 49.44,11.34 C 47.79,10.97 46.17,10.46 44.62,9.72 43.84,9.36 43.05,8.96 42.42,8.32 41.81,7.72 41.25,6.79 41.47,5.89 L 41.55,5.89 C 41.76,6.72 42.31,7.27 42.92,7.77 43.54,8.26 44.19,8.77 44.9,9.19 46.33,10.02 47.88,10.7 49.46,11.27 L 49.44,11.34 Z M 49.44,11.34" />
        </g>
        <g id="ranaTop2-group1119">
            <path id="ranaTop2-bezier1117" stroke="none" fill="rgb(0, 0, 0)" d="M 37.91,6.49 C 37.11,5.42 36.17,4.46 35.13,3.67 34.6,3.28 34.03,2.99 33.48,2.67 32.93,2.34 32.37,2.06 31.73,1.78 L 31.74,1.7 C 32.44,1.58 33.17,1.73 33.82,2 34.47,2.27 35.01,2.74 35.51,3.21 36.52,4.15 37.34,5.26 37.97,6.45 L 37.91,6.49 Z M 37.91,6.49" />
        </g>
        <g id="ranaTop2-group1120">
            <path id="ranaTop2-bezier1118" stroke="none" fill="rgb(0, 0, 0)" d="M 36.24,11.34 C 35.3,10.8 34.47,10.06 33.86,9.11 33.56,8.65 33.27,8.12 33.21,7.54 33.15,6.97 33.25,6.37 33.55,5.88 L 33.62,5.9 C 33.73,6.45 33.81,6.94 33.95,7.41 34.08,7.87 34.18,8.36 34.39,8.82 34.82,9.73 35.49,10.58 36.28,11.27 L 36.24,11.34 Z M 36.24,11.34" />
        </g>
        <g id="ranaTop2-group1121">
            <path id="ranaTop2-bezier1119" stroke="none" fill="rgb(0, 0, 0)" d="M 31.71,8.33 C 30.81,7.45 29.86,6.64 28.84,5.95 28.32,5.61 27.78,5.36 27.27,5.06 26.75,4.77 26.24,4.52 25.61,4.34 L 25.61,4.27 C 26.24,4.02 26.97,4.15 27.58,4.38 28.21,4.62 28.72,5.05 29.2,5.47 30.18,6.3 31.03,7.25 31.77,8.28 L 31.71,8.33 Z M 31.71,8.33" />
        </g>
        <g id="ranaTop2-group1122">
            <path id="ranaTop2-bezier1120" stroke="none" fill="rgb(0, 0, 0)" d="M 26.69,7.51 C 25.22,7.5 23.75,7.73 22.36,8.11 21.66,8.32 21,8.61 20.33,8.84 19.64,9.07 18.98,9.34 18.25,9.58 L 18.21,9.52 C 18.71,8.93 19.35,8.49 20.04,8.15 20.72,7.81 21.48,7.66 22.22,7.53 23.71,7.26 25.23,7.21 26.7,7.43 L 26.69,7.51 Z M 26.69,7.51" />
        </g>
        <g id="ranaTop2-group1123">
            <path id="ranaTop2-bezier1121" stroke="none" fill="rgb(0, 0, 0)" d="M 26.3,11.34 C 24.87,12.13 23.37,12.79 21.78,13.24 20.99,13.46 20.17,13.68 19.31,13.63 18.48,13.58 17.54,13.34 16.99,12.65 L 17.03,12.59 C 17.79,12.91 18.55,12.92 19.31,12.88 20.08,12.84 20.86,12.79 21.65,12.65 23.21,12.35 24.76,11.86 26.26,11.27 L 26.3,11.34 Z M 26.3,11.34" />
        </g>
        <g id="ranaTop2-group1124">
            <path id="ranaTop2-bezier1122" stroke="none" fill="rgb(0, 0, 0)" d="M 19.94,14.81 C 18.44,15.43 16.95,16.04 15.5,16.72 14.77,17.07 14.09,17.48 13.37,17.81 12.64,18.14 11.93,18.46 11.2,18.83 L 11.15,18.77 C 11.63,18.08 12.32,17.57 13.01,17.14 13.72,16.71 14.5,16.45 15.26,16.17 16.79,15.6 18.35,15.15 19.91,14.74 L 19.94,14.81 Z M 19.94,14.81" />
        </g>
        <g id="ranaTop2-group1125">
            <path id="ranaTop2-bezier1123" stroke="none" fill="rgb(0, 0, 0)" d="M 24.85,18.84 C 23.55,18.96 22.24,18.99 20.93,18.93 20.27,18.91 19.6,18.9 18.96,18.73 18.32,18.55 17.67,18.3 17.15,17.84 L 17.18,17.77 19.1,17.99 C 19.73,18.06 20.35,18.23 20.99,18.34 22.26,18.53 23.55,18.67 24.85,18.77 L 24.85,18.84 Z M 24.85,18.84" />
        </g>
        <g id="ranaTop2-group1126">
            <path id="ranaTop2-bezier1124" stroke="none" fill="rgb(0, 0, 0)" d="M 18.24,20.84 C 16.74,21.1 15.27,21.48 13.87,21.98 13.17,22.24 12.51,22.58 11.83,22.86 11.15,23.14 10.5,23.46 9.82,23.83 L 9.77,23.78 C 10.18,23.1 10.82,22.58 11.5,22.19 12.18,21.79 12.94,21.6 13.69,21.41 15.18,21.02 16.71,20.81 18.23,20.76 L 18.24,20.84 Z M 18.24,20.84" />
        </g>
        <g id="ranaTop2-group1127">
            <path id="ranaTop2-bezier1125" stroke="none" fill="rgb(0, 0, 0)" d="M 22.47,26.68 C 20.95,26.86 19.42,26.91 17.88,26.76 17.12,26.69 16.32,26.62 15.58,26.28 14.88,25.97 14.09,25.39 13.98,24.54 L 14.05,24.52 C 14.52,25.12 15.18,25.36 15.86,25.58 16.54,25.79 17.24,26.02 17.97,26.17 19.43,26.44 20.95,26.57 22.46,26.6 L 22.47,26.68 Z M 22.47,26.68" />
        </g>
        <g id="ranaTop2-group1128">
            <path id="ranaTop2-bezier1126" stroke="none" fill="rgb(0, 0, 0)" d="M 81.63,49.57 C 80.85,50.45 80.1,51.34 79.37,52.25 79.02,52.71 78.7,53.2 78.31,53.62 77.92,54.04 77.52,54.45 77.05,54.85 L 76.99,54.81 C 77.11,54.2 77.4,53.66 77.72,53.16 78.05,52.66 78.5,52.26 78.93,51.85 79.76,51.02 80.65,50.24 81.58,49.52 L 81.63,49.57 Z M 81.63,49.57" />
        </g>
        <g id="ranaTop2-group1129">
            <path id="ranaTop2-bezier1127" stroke="none" fill="rgb(0, 0, 0)" d="M 71.09,53.01 C 69.19,53.4 67.32,53.88 65.51,54.49 64.6,54.8 63.73,55.19 62.85,55.53 61.97,55.87 61.11,56.23 60.26,56.72 L 60.21,56.66 C 60.8,55.85 61.67,55.29 62.54,54.84 63.43,54.4 64.39,54.15 65.33,53.91 67.23,53.43 69.15,53.11 71.08,52.94 L 71.09,53.01 Z M 71.09,53.01" />
        </g>
        <g id="ranaTop2-group1130">
            <path id="ranaTop2-bezier1128" stroke="none" fill="rgb(0, 0, 0)" d="M 65.5,52.63 C 63.54,52.69 61.59,52.64 59.63,52.44 58.65,52.34 57.66,52.25 56.71,51.94 56.23,51.78 55.76,51.6 55.32,51.34 54.89,51.09 54.45,50.77 54.19,50.33 L 54.24,50.28 C 55.05,50.81 55.98,50.99 56.91,51.22 57.83,51.42 58.76,51.67 59.71,51.85 61.62,52.18 63.56,52.4 65.5,52.55 L 65.5,52.63 Z M 65.5,52.63" />
        </g>
        <g id="ranaTop2-group1131">
            <path id="ranaTop2-bezier1129" stroke="none" fill="rgb(0, 0, 0)" d="M 59.04,53.84 C 57.37,54.16 55.73,54.59 54.14,55.13 53.35,55.41 52.59,55.77 51.81,56.06 51.03,56.35 50.27,56.67 49.47,57 L 49.43,56.94 C 50,56.27 50.74,55.77 51.51,55.37 52.29,54.98 53.13,54.77 53.97,54.56 55.63,54.13 57.33,53.87 59.03,53.77 L 59.04,53.84 Z M 59.04,53.84" />
        </g>
        <g id="ranaTop2-group1132">
            <path id="ranaTop2-bezier1130" stroke="none" fill="rgb(0, 0, 0)" d="M 49.46,51.48 C 47.85,52.23 46.27,53.02 44.74,53.9 43.98,54.35 43.27,54.86 42.54,55.31 41.84,55.79 41.06,56.21 40.66,56.98 L 40.58,56.97 C 40.56,56.48 40.84,56.04 41.12,55.67 41.4,55.3 41.75,54.99 42.11,54.7 42.83,54.13 43.65,53.75 44.46,53.37 46.08,52.6 47.74,51.96 49.44,51.41 L 49.46,51.48 Z M 49.46,51.48" />
        </g>
        <g id="ranaTop2-group1133">
            <path id="ranaTop2-bezier1131" stroke="none" fill="rgb(0, 0, 0)" d="M 39.13,54.24 C 37.85,55.23 36.45,56.08 34.93,56.72 34.17,57.04 33.39,57.36 32.54,57.43 31.71,57.51 30.82,57.42 30.08,57.01 L 30.1,56.94 C 30.92,56.94 31.68,56.85 32.44,56.69 33.19,56.53 33.96,56.39 34.72,56.16 36.23,55.67 37.7,54.99 39.09,54.18 L 39.13,54.24 Z M 39.13,54.24" />
        </g>
        <g id="ranaTop2-group1134">
            <path id="ranaTop2-bezier1132" stroke="none" fill="rgb(0, 0, 0)" d="M 33.97,53.84 C 32.23,54.22 30.46,54.42 28.67,54.44 27.78,54.46 26.87,54.46 25.98,54.28 25.1,54.08 24.23,53.79 23.46,53.29 L 23.49,53.22 C 24.38,53.33 25.24,53.45 26.1,53.54 26.96,53.62 27.81,53.78 28.69,53.84 30.43,53.96 32.2,53.94 33.95,53.77 L 33.97,53.84 Z M 33.97,53.84" />
        </g>
        <g id="ranaTop2-group1135">
            <path id="ranaTop2-bezier1133" stroke="none" fill="rgb(0, 0, 0)" d="M 28.71,51.48 C 26.77,50.96 24.82,50.49 22.87,50.12 21.89,49.95 20.9,49.85 19.93,49.69 18.96,49.57 18,49.37 17.03,49.58 L 16.99,49.51 C 17.42,49.18 17.96,49.06 18.47,48.99 18.98,48.92 19.5,48.92 20.01,48.95 21.04,49.01 22.02,49.28 23,49.54 24.95,50.04 26.86,50.68 28.73,51.41 L 28.71,51.48 Z M 28.71,51.48" />
        </g>
        <g id="ranaTop2-group1136">
            <path id="ranaTop2-bezier1134" stroke="none" fill="rgb(0, 0, 0)" d="M 23.46,45.96 C 21.95,45.44 20.39,45.05 18.83,44.83 18.05,44.72 17.27,44.72 16.5,44.67 15.72,44.62 14.96,44.63 14.15,44.7 L 14.12,44.63 C 14.82,44.16 15.67,43.97 16.5,43.92 17.33,43.87 18.15,44.05 18.94,44.24 20.53,44.6 22.05,45.17 23.49,45.89 L 23.46,45.96 Z M 23.46,45.96" />
        </g>
        <g id="ranaTop2-group1137">
            <path id="ranaTop2-bezier1135" stroke="none" fill="rgb(0, 0, 0)" d="M 21.65,39.82 C 19.95,40.18 18.18,40.28 16.43,40.02 15.55,39.89 14.66,39.7 13.86,39.24 13.08,38.79 12.38,38.14 11.99,37.33 L 12.05,37.28 C 12.75,37.82 13.45,38.25 14.21,38.58 14.96,38.9 15.72,39.23 16.54,39.43 17.36,39.63 18.21,39.73 19.06,39.78 19.92,39.83 20.78,39.83 21.64,39.75 L 21.65,39.82 Z M 21.65,39.82" />
        </g>
        <g id="ranaTop2-group1138">
            <path id="ranaTop2-bezier1136" stroke="none" fill="rgb(0, 0, 0)" d="M 20.8,36.08 C 20.09,35.64 19.35,35.25 18.59,34.91 17.83,34.56 17.06,34.26 16.27,34.04 15.48,33.82 14.67,33.71 13.88,33.62 13.09,33.52 12.3,33.54 11.45,33.67 L 11.42,33.6 C 12.12,33.08 13.05,32.87 13.92,32.87 14.82,32.87 15.66,33.16 16.46,33.47 18.06,34.08 19.53,34.97 20.85,36.02 L 20.8,36.08 Z M 20.8,36.08" />
        </g>
        <g id="ranaTop2-group1139">
            <path id="ranaTop2-bezier1137" stroke="none" fill="rgb(0, 0, 0)" d="M 19.92,31.26 C 18.03,31.1 16.16,30.82 14.31,30.38 13.38,30.16 12.44,29.94 11.57,29.51 10.72,29.08 9.83,28.53 9.34,27.66 L 9.4,27.61 C 10.17,28.17 11.01,28.5 11.87,28.83 12.73,29.14 13.58,29.51 14.47,29.8 16.25,30.36 18.08,30.81 19.93,31.18 L 19.92,31.26 Z M 19.92,31.26" />
        </g>
        <g id="ranaTop2-group1140">
            <path id="ranaTop2-bezier1138" stroke="none" fill="rgb(0, 0, 0)" d="M 88.02,23.83 C 86.08,22.27 84.04,20.84 81.9,19.6 80.83,19 79.71,18.49 78.6,17.99 77.49,17.48 76.36,17.05 75.12,16.84 L 75.12,16.76 C 76.39,16.57 77.69,16.87 78.88,17.29 80.08,17.73 81.16,18.41 82.21,19.09 84.32,20.47 86.27,22.05 88.07,23.78 L 88.02,23.83 Z M 88.02,23.83" />
        </g>
        <g id="ranaTop2-group1141">
            <path id="ranaTop2-bezier1139" stroke="none" fill="rgb(0, 0, 0)" d="M 79.12,22.21 C 76.87,21.89 74.65,21.37 72.49,20.61 71.42,20.23 70.33,19.83 69.35,19.21 68.38,18.58 67.45,17.81 66.85,16.81 L 66.91,16.76 C 67.8,17.47 68.74,18.04 69.72,18.56 70.7,19.07 71.68,19.6 72.71,20.05 74.78,20.92 76.94,21.61 79.14,22.14 L 79.12,22.21 Z M 79.12,22.21" />
        </g>
        <g id="ranaTop2-group1142">
            <path id="ranaTop2-bezier1140" stroke="none" fill="rgb(0, 0, 0)" d="M 97.51,38.72 C 95.84,38.58 94.17,38.53 92.52,38.61 91.7,38.65 90.89,38.79 90.09,38.87 89.29,38.97 88.5,39.08 87.75,39.45 L 87.7,39.39 C 88.23,38.67 89.13,38.33 89.96,38.13 90.81,37.94 91.67,37.97 92.52,38.01 94.21,38.07 95.88,38.3 97.52,38.65 L 97.51,38.72 Z M 97.51,38.72" />
        </g>
        <g id="ranaTop2-group1143">
            <path id="ranaTop2-bezier1141" stroke="none" fill="rgb(0, 0, 0)" d="M 99.26,32.82 L 95.57,32.81 C 94.96,32.81 94.34,32.87 93.74,32.81 93.13,32.76 92.54,32.66 91.91,32.56 L 91.9,32.48 C 92.49,32.18 93.13,32.11 93.75,32.06 94.37,32.02 94.99,32.13 95.6,32.21 96.83,32.34 98.05,32.53 99.27,32.75 L 99.26,32.82 Z M 99.26,32.82" />
        </g>
        <g id="ranaTop2-group1144">
            <path id="ranaTop2-bezier1142" stroke="none" fill="rgb(0, 0, 0)" d="M 98.88,31.18 C 97.3,30.49 95.77,29.7 94.3,28.79 93.56,28.33 92.81,27.88 92.17,27.26 91.56,26.65 90.95,25.94 90.7,25.08 L 90.76,25.04 C 91.36,25.67 92.01,26.18 92.66,26.7 93.33,27.21 93.95,27.78 94.63,28.29 96,29.3 97.44,30.23 98.91,31.11 L 98.88,31.18 Z M 98.88,31.18" />
        </g>
        <g id="ranaTop2-group1145">
            <path id="ranaTop2-bezier1143" stroke="none" fill="rgb(0, 0, 0)" d="M 91.36,33.67 C 89.95,34.48 88.39,35.02 86.77,35.3 85.96,35.44 85.13,35.56 84.3,35.46 83.48,35.36 82.66,35.13 81.94,34.72 L 81.96,34.65 C 82.78,34.67 83.56,34.72 84.35,34.71 85.12,34.71 85.9,34.76 86.69,34.71 88.26,34.57 89.84,34.21 91.32,33.61 L 91.36,33.67 Z M 91.36,33.67" />
        </g>
        <g id="ranaTop2-group1146">
            <path id="ranaTop2-bezier1144" stroke="none" fill="rgb(0, 0, 0)" d="M 90.06,40.25 C 89.09,41.33 87.87,42.19 86.51,42.78 85.83,43.07 85.12,43.34 84.37,43.39 83.62,43.43 82.86,43.35 82.17,43.06 L 82.18,42.98 C 82.91,42.86 83.59,42.79 84.27,42.64 84.95,42.51 85.63,42.42 86.3,42.21 87.62,41.78 88.9,41.1 90.01,40.2 L 90.06,40.25 Z M 90.06,40.25" />
        </g>
        <g id="ranaTop2-group1147">
            <path id="ranaTop2-bezier1145" stroke="none" fill="rgb(0, 0, 0)" d="M 84.21,45.96 C 82.58,46.64 80.97,47.35 79.39,48.1 78.6,48.48 77.85,48.92 77.05,49.27 L 74.65,50.33 74.61,50.28 C 75.18,49.57 75.95,49.05 76.71,48.6 77.48,48.15 78.33,47.86 79.15,47.55 80.81,46.91 82.48,46.36 84.18,45.89 L 84.21,45.96 Z M 84.21,45.96" />
        </g>
        <g id="ranaTop2-group1148">
            <path id="ranaTop2-bezier1146" stroke="none" fill="rgb(0, 0, 0)" d="M 89.35,24.77 C 87.89,24.87 86.41,24.85 84.94,24.64 84.21,24.54 83.45,24.43 82.76,24.09 82.09,23.76 81.38,23.24 81.16,22.47 L 81.23,22.43 C 81.77,22.93 82.39,23.17 83.05,23.4 83.7,23.62 84.36,23.87 85.06,24.05 86.45,24.38 87.89,24.58 89.34,24.7 L 89.35,24.77 Z M 89.35,24.77" />
        </g>
        <g id="ranaTop2-group1149">
            <path id="ranaTop2-bezier1147" stroke="none" fill="rgb(0, 0, 0)" d="M 92.7,23.96 C 91.96,22.36 91.1,20.82 90.07,19.43 89.55,18.74 88.94,18.14 88.33,17.62 87.71,17.1 86.98,16.75 86.09,16.96 L 86.06,16.9 C 86.41,16.6 86.92,16.45 87.41,16.5 87.91,16.54 88.37,16.76 88.77,17.01 89.57,17.55 90.09,18.33 90.57,19.09 91.53,20.61 92.22,22.25 92.77,23.93 L 92.7,23.96 Z M 92.7,23.96" />
        </g>
        <g id="ranaTop2-group1150">
            <path id="ranaTop2-bezier1148" stroke="none" fill="rgb(0, 0, 0)" d="M 72.33,16.82 C 71.33,15.45 70.18,14.19 68.89,13.13 68.24,12.61 67.53,12.19 66.84,11.76 66.14,11.33 65.42,10.98 64.6,10.67 L 64.61,10.6 C 65.49,10.5 66.39,10.73 67.19,11.1 68,11.48 68.67,12.08 69.29,12.68 70.54,13.89 71.57,15.28 72.39,16.78 L 72.33,16.82 Z M 72.33,16.82" />
        </g>
        <g id="ranaTop2-group1151">
            <path id="ranaTop2-bezier1149" stroke="none" fill="rgb(0, 0, 0)" d="M 71.82,21.51 C 69.94,21.68 68.04,21.69 66.15,21.52 65.2,21.44 64.24,21.35 63.32,21.05 62.41,20.75 61.51,20.34 60.79,19.69 L 60.82,19.62 C 61.73,19.91 62.61,20.14 63.52,20.33 64.41,20.52 65.31,20.77 66.23,20.93 68.06,21.23 69.94,21.39 71.82,21.44 L 71.82,21.51 Z M 71.82,21.51" />
        </g>
        <g id="ranaTop2-group1152">
            <path id="ranaTop2-bezier1150" stroke="none" fill="rgb(0, 0, 0)" d="M 62.35,15.61 C 59.85,15.85 57.36,16.16 54.9,16.59 53.67,16.82 52.47,17.12 51.27,17.4 50.67,17.53 50.08,17.7 49.5,17.89 48.94,18.1 48.36,18.33 47.99,18.82 L 47.92,18.79 C 48.12,18.13 48.74,17.73 49.29,17.42 49.86,17.1 50.47,16.88 51.07,16.68 52.29,16.29 53.56,16.15 54.81,16 57.32,15.69 59.83,15.56 62.34,15.54 L 62.35,15.61 Z M 62.35,15.61" />
        </g>
        <g id="ranaTop2-group1153">
            <path id="ranaTop2-bezier1151" stroke="none" fill="rgb(0, 0, 0)" d="M 65.49,13.84 C 63.96,13.66 62.45,13.35 60.96,12.91 60.21,12.7 59.45,12.49 58.76,12.11 58.08,11.74 57.41,11.28 56.9,10.67 L 56.95,10.61 59.08,11.43 C 59.78,11.71 60.45,12.06 61.15,12.34 62.57,12.89 64.02,13.37 65.5,13.77 L 65.49,13.84 Z M 65.49,13.84" />
        </g>
        <g id="ranaTop2-group1154">
            <path id="ranaTop2-bezier1152" stroke="none" fill="rgb(0, 0, 0)" d="M 54.27,11.33 C 52.84,12.52 51.15,13.36 49.35,13.88 48.45,14.14 47.52,14.36 46.58,14.35 45.63,14.33 44.69,14.19 43.81,13.84 L 43.83,13.77 C 44.76,13.71 45.66,13.68 46.55,13.6 47.43,13.51 48.32,13.47 49.21,13.29 50.09,13.12 50.96,12.86 51.79,12.52 52.64,12.18 53.46,11.78 54.22,11.28 L 54.27,11.33 Z M 54.27,11.33" />
        </g>
        <g id="ranaTop2-group1155">
            <path id="ranaTop2-bezier1153" stroke="none" fill="rgb(0, 0, 0)" d="M 41.5,51.48 C 40.57,51.22 39.62,51.09 38.66,51.01 37.71,50.92 36.76,50.9 35.81,50.95 34.85,50.99 33.92,51.15 32.97,51.23 32.02,51.32 31.08,51.43 30.1,51.48 L 30.08,51.41 C 30.96,50.96 31.9,50.68 32.87,50.49 33.83,50.3 34.82,50.31 35.8,50.34 37.75,50.4 39.71,50.7 41.52,51.41 L 41.5,51.48 Z M 41.5,51.48" />
        </g>
        <g id="ranaTop2-group1156">
            <path id="ranaTop2-bezier1154" stroke="none" fill="rgb(0, 0, 0)" d="M 31.73,49.28 C 29.95,48.85 28.21,48.24 26.58,47.31 25.78,46.85 24.96,46.32 24.39,45.51 23.82,44.72 23.57,43.57 24.03,42.71 L 24.1,42.73 C 24.07,43.66 24.44,44.42 24.99,45.05 25.53,45.69 26.18,46.29 26.91,46.8 28.38,47.8 30.05,48.58 31.75,49.21 L 31.73,49.28 Z M 31.73,49.28" />
        </g>
        <g id="ranaTop2-group1157">
            <path id="ranaTop2-bezier1155" stroke="none" fill="rgb(0, 0, 0)" d="M 29.06,43.57 C 28.32,42.82 27.53,42.13 26.69,41.54 26.26,41.25 25.8,41.04 25.39,40.77 24.97,40.49 24.56,40.26 24.06,40 L 24.07,39.93 C 24.62,39.77 25.22,39.89 25.73,40.1 26.26,40.32 26.67,40.71 27.06,41.07 27.87,41.8 28.54,42.64 29.12,43.53 L 29.06,43.57 Z M 29.06,43.57" />
        </g>
        <g id="ranaTop2-group1158">
            <path id="ranaTop2-bezier1156" stroke="none" fill="rgb(0, 0, 0)" d="M 70.73,51.47 C 70.14,50.92 69.51,50.41 68.86,49.95 68.21,49.48 67.54,49.05 66.83,48.69 66.12,48.34 65.38,48.1 64.66,47.87 63.92,47.64 63.18,47.52 62.35,47.51 L 62.33,47.44 C 63.08,47.04 64,46.98 64.83,47.15 65.68,47.3 66.43,47.73 67.13,48.17 68.53,49.05 69.74,50.18 70.78,51.42 L 70.73,51.47 Z M 70.73,51.47" />
        </g>
        <g id="ranaTop2-group1159">
            <path id="ranaTop2-bezier1157" stroke="none" fill="rgb(0, 0, 0)" d="M 78.31,45.15 C 75.9,44.65 73.51,44.07 71.14,43.36 69.96,43.01 68.77,42.67 67.64,42.14 67.07,41.88 66.52,41.59 65.99,41.25 65.47,40.9 64.95,40.52 64.58,39.99 L 64.64,39.94 C 65.65,40.62 66.8,41.01 67.93,41.45 L 71.33,42.79 C 73.63,43.62 75.97,44.37 78.33,45.07 L 78.31,45.15 Z M 78.31,45.15" />
        </g>
        <g id="ranaTop2-group1160">
            <path id="ranaTop2-bezier1158" stroke="none" fill="rgb(0, 0, 0)" d="M 85.17,39.42 C 83.11,39.26 81.05,39.17 79,39.2 77.97,39.22 76.96,39.33 75.95,39.4 74.95,39.48 73.94,39.53 73.03,39.99 L 72.98,39.94 C 73.31,39.51 73.82,39.24 74.32,39.05 74.82,38.85 75.34,38.74 75.87,38.65 76.92,38.48 77.97,38.54 79.01,38.6 81.09,38.7 83.14,38.97 85.18,39.35 L 85.17,39.42 Z M 85.17,39.42" />
        </g>
        <g id="ranaTop2-group1161">
            <path id="ranaTop2-bezier1159" stroke="none" fill="rgb(0, 0, 0)" d="M 83.92,27.67 C 82.31,27.24 80.65,26.96 79.02,26.93 78.2,26.92 77.39,27.03 76.6,27.12 75.81,27.21 75.04,27.39 74.23,27.67 L 74.19,27.61 C 74.78,26.97 75.62,26.58 76.47,26.38 77.33,26.17 78.21,26.23 79.05,26.33 80.75,26.5 82.39,26.95 83.94,27.6 L 83.92,27.67 Z M 83.92,27.67" />
        </g>
        <g id="ranaTop2-group1162">
            <path id="ranaTop2-bezier1160" stroke="none" fill="rgb(0, 0, 0)" d="M 77.4,33.43 C 74.69,33.66 71.96,33.74 69.22,33.62 67.85,33.56 66.47,33.5 65.12,33.2 63.79,32.88 62.41,32.49 61.3,31.63 L 61.34,31.56 C 62.62,32.03 63.93,32.28 65.26,32.47 66.58,32.66 67.91,32.88 69.26,33.02 71.96,33.27 74.68,33.37 77.4,33.35 L 77.4,33.43 Z M 77.4,33.43" />
        </g>
        <g id="ranaTop2-group1163">
            <path id="ranaTop2-bezier1161" stroke="none" fill="rgb(0, 0, 0)" d="M 62.01,42.75 C 60.23,41.95 58.37,41.29 56.49,40.81 55.55,40.59 54.59,40.46 53.65,40.3 52.7,40.14 51.76,40.04 50.76,40 L 50.75,39.93 C 51.69,39.56 52.73,39.49 53.73,39.56 54.74,39.62 55.71,39.93 56.65,40.24 58.55,40.85 60.35,41.68 62.05,42.68 L 62.01,42.75 Z M 62.01,42.75" />
        </g>
        <g id="ranaTop2-group1164">
            <path id="ranaTop2-bezier1162" stroke="none" fill="rgb(0, 0, 0)" d="M 61.55,49.28 C 61.08,49.14 60.74,48.81 60.36,48.54 L 59.26,47.7 C 58.53,47.14 57.79,46.58 57.04,46.07 56.27,45.57 55.47,45.14 54.7,44.7 53.92,44.25 53.13,43.86 52.23,43.59 L 52.24,43.51 C 53.2,43.37 54.17,43.65 55.04,44.03 55.91,44.42 56.66,45.01 57.39,45.59 58.12,46.17 58.82,46.79 59.5,47.42 L 60.5,48.37 C 60.85,48.67 61.17,49.04 61.57,49.21 L 61.55,49.28 Z M 61.55,49.28" />
        </g>
        <g id="ranaTop2-group1165">
            <path id="ranaTop2-bezier1163" stroke="none" fill="rgb(0, 0, 0)" d="M 53.53,47.38 C 52.43,47.56 51.31,47.81 50.2,47.98 49.07,48.14 47.94,48.26 46.8,48.29 45.66,48.33 44.49,48.34 43.35,48.01 42.25,47.69 41.06,47.05 40.59,45.95 L 40.65,45.91 C 41.45,46.72 42.48,47.06 43.54,47.28 44.59,47.49 45.69,47.65 46.8,47.69 47.91,47.73 49.04,47.69 50.16,47.61 51.28,47.54 52.39,47.39 53.53,47.3 L 53.53,47.38 53.53,47.38 Z M 53.53,47.38" />
        </g>
        <g id="ranaTop2-group1166">
            <path id="ranaTop2-bezier1164" stroke="none" fill="rgb(0, 0, 0)" d="M 37.91,46 C 37.26,44.57 36.55,43.17 35.76,41.84 35.36,41.18 34.89,40.56 34.47,39.94 34.03,39.34 33.63,38.69 32.92,38.38 L 32.93,38.31 C 33.36,38.24 33.79,38.43 34.13,38.65 34.49,38.88 34.79,39.17 35.06,39.48 35.6,40.1 35.95,40.83 36.29,41.55 36.98,42.98 37.53,44.46 37.98,45.97 L 37.91,46 Z M 37.91,46" />
        </g>
        <g id="ranaTop2-group1167">
            <path id="ranaTop2-bezier1165" stroke="none" fill="rgb(0, 0, 0)" d="M 47.92,43.81 C 46.82,42.74 45.65,41.73 44.43,40.82 43.81,40.38 43.16,40 42.54,39.58 41.92,39.15 41.31,38.75 40.61,38.38 L 40.63,38.31 C 41.44,38.28 42.23,38.57 42.93,38.93 43.64,39.3 44.23,39.84 44.81,40.36 45.98,41.4 47.03,42.54 47.98,43.76 L 47.92,43.81 Z M 47.92,43.81" />
        </g>
        <g id="ranaTop2-group1168">
            <path id="ranaTop2-bezier1166" stroke="none" fill="rgb(0, 0, 0)" d="M 70.75,26.64 C 67.98,26.51 65.2,26.51 62.45,26.73 61.08,26.85 59.72,27.07 58.39,27.31 57.06,27.55 55.72,27.86 54.6,28.66 L 54.54,28.61 C 55.42,27.44 56.89,26.95 58.23,26.57 59.61,26.23 61.02,26.17 62.42,26.13 65.22,26.05 68,26.22 70.76,26.57 L 70.75,26.64 Z M 70.75,26.64" />
        </g>
        <g id="ranaTop2-group1169">
            <path id="ranaTop2-bezier1167" stroke="none" fill="rgb(0, 0, 0)" d="M 56.84,22.21 C 54.82,22.87 52.74,23.36 50.62,23.65 49.56,23.79 48.49,23.93 47.4,23.84 46.33,23.75 45.23,23.53 44.27,23.01 L 44.3,22.94 C 45.36,23.07 46.39,23.11 47.43,23.09 48.47,23.08 49.51,23.11 50.56,23.05 52.66,22.9 54.75,22.59 56.82,22.14 L 56.84,22.21 Z M 56.84,22.21" />
        </g>
        <g id="ranaTop2-group1170">
            <path id="ranaTop2-bezier1168" stroke="none" fill="rgb(0, 0, 0)" d="M 44.42,19.51 C 43.14,18.4 41.79,17.38 40.36,16.53 39.64,16.11 38.88,15.79 38.15,15.45 37.41,15.13 36.66,14.86 35.81,14.81 L 35.79,14.74 C 36.61,14.36 37.58,14.49 38.41,14.75 39.26,15.02 39.99,15.52 40.68,16.02 42.09,17.02 43.34,18.19 44.47,19.46 L 44.42,19.51 Z M 44.42,19.51" />
        </g>
        <g id="ranaTop2-group1171">
            <path id="ranaTop2-bezier1169" stroke="none" fill="rgb(0, 0, 0)" d="M 37.93,20.34 C 37.05,20.08 36.2,19.73 35.34,19.43 34.48,19.12 33.63,18.81 32.76,18.52 31.9,18.23 31.02,18.01 30.18,17.7 29.32,17.4 28.49,17.09 27.61,16.83 L 27.61,16.75 C 28.55,16.61 29.5,16.77 30.39,16.98 31.29,17.21 32.14,17.59 32.98,17.96 33.82,18.32 34.66,18.7 35.48,19.09 36.31,19.48 37.12,19.92 37.95,20.27 L 37.93,20.34 Z M 37.93,20.34" />
        </g>
        <g id="ranaTop2-group1172">
            <path id="ranaTop2-bezier1170" stroke="none" fill="rgb(0, 0, 0)" d="M 65.49,36.09 C 65.07,36.07 64.64,36.26 64.22,36.37 L 62.94,36.75 C 62.08,36.98 61.2,37.18 60.3,37.31 59.41,37.43 58.48,37.53 57.57,37.34 56.66,37.16 55.76,36.75 55.13,36.08 L 55.17,36.02 C 56.02,36.33 56.83,36.53 57.68,36.6 58.52,36.68 59.38,36.75 60.25,36.71 61.12,36.66 61.99,36.54 62.86,36.38 L 64.16,36.15 C 64.6,36.08 65.04,35.95 65.5,36.01 L 65.49,36.09 Z M 65.49,36.09" />
        </g>
        <g id="ranaTop2-group1173">
            <path id="ranaTop2-bezier1171" stroke="none" fill="rgb(0, 0, 0)" d="M 55.9,32.57 C 53.76,31.74 51.58,31 49.37,30.43 48.27,30.16 47.15,29.97 46.05,29.78 44.95,29.63 43.82,29.42 42.78,29.89 L 42.73,29.83 C 43.14,29.38 43.77,29.18 44.35,29.08 44.95,28.98 45.55,28.99 46.14,29.04 47.32,29.14 48.44,29.5 49.54,29.85 51.75,30.57 53.87,31.47 55.94,32.5 L 55.9,32.57 Z M 55.9,32.57" />
        </g>
        <g id="ranaTop2-group1174">
            <path id="ranaTop2-bezier1172" stroke="none" fill="rgb(0, 0, 0)" d="M 47.07,34.68 C 46.17,34.75 45.26,35.03 44.33,35.15 43.41,35.28 42.47,35.36 41.52,35.35 40.58,35.34 39.61,35.28 38.69,34.97 37.79,34.65 36.92,34.18 36.25,33.5 L 36.29,33.44 C 37.18,33.77 38.02,34.05 38.9,34.25 39.77,34.44 40.64,34.66 41.55,34.75 42.46,34.83 43.38,34.83 44.29,34.78 45.22,34.76 46.13,34.58 47.08,34.6 L 47.07,34.68 Z M 47.07,34.68" />
        </g>
        <g id="ranaTop2-group1175">
            <path id="ranaTop2-bezier1173" stroke="none" fill="rgb(0, 0, 0)" d="M 41.66,25.64 C 39.86,25.52 38.04,25.58 36.27,25.82 35.38,25.95 34.53,26.19 33.67,26.38 32.81,26.58 31.97,26.83 31.11,27.15 L 31.07,27.09 C 31.72,26.42 32.58,25.97 33.46,25.66 34.35,25.36 35.29,25.28 36.21,25.22 38.05,25.11 39.88,25.23 41.68,25.56 L 41.66,25.64 Z M 41.66,25.64" />
        </g>
        <g id="ranaTop2-group1176">
            <path id="ranaTop2-bezier1174" stroke="none" fill="rgb(0, 0, 0)" d="M 39.12,28.68 C 37.17,29.23 35.24,29.9 33.41,30.73 32.5,31.16 31.64,31.67 30.8,32.17 29.98,32.69 29.17,33.25 28.76,34.18 L 28.68,34.17 C 28.67,33.63 28.92,33.11 29.24,32.67 29.56,32.23 29.96,31.87 30.38,31.55 31.23,30.92 32.21,30.54 33.18,30.18 35.11,29.45 37.09,28.95 39.11,28.6 L 39.12,28.68 Z M 39.12,28.68" />
        </g>
        <g id="ranaTop2-group1177">
            <path id="ranaTop2-bezier1175" stroke="none" fill="rgb(0, 0, 0)" d="M 31.1,29.46 C 30.18,29.79 29.23,29.93 28.28,30.08 27.33,30.21 26.36,30.3 25.39,30.32 24.43,30.34 23.44,30.34 22.47,30.09 21.53,29.84 20.56,29.42 19.9,28.67 L 19.94,28.61 C 20.82,29.01 21.71,29.21 22.63,29.36 23.54,29.5 24.46,29.66 25.4,29.71 26.35,29.77 27.3,29.76 28.24,29.71 29.19,29.66 30.16,29.61 31.07,29.39 L 31.1,29.46 Z M 31.1,29.46" />
        </g>
        <g id="ranaTop2-group1178">
            <path id="ranaTop2-bezier1176" stroke="none" fill="rgb(0, 0, 0)" d="M 27.84,23.51 C 26.72,23 25.54,22.58 24.37,22.32 23.77,22.2 23.18,22.18 22.61,22.13 22.03,22.07 21.47,22.08 20.84,22.21 L 20.81,22.15 C 21.25,21.64 21.96,21.42 22.61,21.38 23.29,21.34 23.92,21.54 24.52,21.74 25.73,22.15 26.85,22.74 27.88,23.45 L 27.84,23.51 Z M 27.84,23.51" />
        </g>
        <g id="ranaTop2-group1179">
            <path id="ranaTop2-bezier1177" stroke="none" fill="rgb(0, 0, 0)" d="M 106.6,31.24 C 106.35,31.48 105.98,31.4 105.69,31.35 105.37,31.29 105.07,31.16 104.79,31.01 104.52,30.84 104.26,30.64 104.03,30.39 103.92,30.26 103.81,30.13 103.73,29.95 103.67,29.77 103.53,29.56 103.75,29.21 103.77,29.18 103.78,29.15 103.88,29.08 103.96,29.02 104.01,29 104.07,28.98 104.19,28.93 104.3,28.92 104.4,28.92 104.6,28.92 104.78,28.95 104.95,28.99 105.3,29.09 105.6,29.26 105.86,29.46 106.12,29.66 106.34,29.96 106.48,30.26 106.61,30.56 106.78,30.92 106.6,31.24 Z M 106.55,31.19 C 106.67,30.93 106.39,30.67 106.17,30.51 105.93,30.34 105.68,30.23 105.44,30.08 105.2,29.93 104.96,29.8 104.72,29.7 104.49,29.59 104.21,29.56 104.2,29.61 104.24,29.52 104.18,29.64 104.23,29.74 104.26,29.85 104.33,29.97 104.41,30.08 104.57,30.31 104.77,30.51 105.01,30.7 105.23,30.89 105.47,31.06 105.74,31.2 105.99,31.31 106.36,31.43 106.55,31.19 Z M 106.55,31.19" />
        </g>
        <g id="ranaTop2-group1180">
            <path id="ranaTop2-bezier1178" stroke="none" fill="rgb(0, 0, 0)" d="M 105.62,37.84 C 105.5,37.56 105.11,37.57 104.84,37.61 104.55,37.67 104.27,37.77 104,37.89 103.73,38.01 103.48,38.15 103.26,38.33 103.05,38.47 102.88,38.79 102.94,38.76 102.91,38.74 103.21,38.84 103.46,38.78 103.71,38.75 103.99,38.68 104.24,38.62 104.53,38.53 104.79,38.5 105.08,38.39 105.33,38.3 105.66,38.13 105.62,37.84 Z M 105.69,37.81 C 105.78,38.17 105.51,38.47 105.31,38.72 105.09,38.97 104.79,39.2 104.5,39.32 104.17,39.45 103.85,39.52 103.49,39.52 103.31,39.52 103.13,39.5 102.94,39.44 102.84,39.41 102.74,39.37 102.63,39.3 102.54,39.25 102.39,39.06 102.37,38.95 102.29,38.62 102.45,38.41 102.57,38.27 102.7,38.12 102.84,38.02 102.98,37.93 103.26,37.75 103.57,37.63 103.88,37.54 104.19,37.46 104.51,37.43 104.83,37.46 105.14,37.49 105.51,37.51 105.69,37.81 Z M 105.69,37.81" />
        </g>
        <g id="ranaTop2-group1181">
            <path id="ranaTop2-bezier1179" stroke="none" fill="rgb(0, 0, 0)" d="M 103.65,36.71 C 103.38,36.83 103.14,37.02 102.93,37.22 102.71,37.4 102.51,37.61 102.35,37.83 102.19,38.06 102.13,38.31 102.01,38.5 101.9,38.7 101.8,38.9 101.71,39.25 L 101.65,39.28 C 101.33,39.07 101.22,38.63 101.3,38.26 101.38,37.88 101.66,37.63 101.92,37.42 102.42,37 103,36.71 103.63,36.64 L 103.65,36.71 Z M 103.65,36.71" />
        </g>
        <g id="ranaTop2-group1182">
            <path id="ranaTop2-bezier1180" stroke="none" fill="rgb(0, 0, 0)" d="M 104.6,31.55 C 104.02,31.49 103.45,31.28 102.96,30.87 102.72,30.67 102.45,30.42 102.39,30.07 102.32,29.73 102.39,29.37 102.63,29.12 L 102.71,29.13 C 102.88,29.43 102.98,29.64 103.1,29.83 103.21,30.02 103.26,30.25 103.4,30.46 103.69,30.85 104.13,31.22 104.62,31.47 L 104.6,31.55 Z M 104.6,31.55" />
        </g>
        <g id="ranaTop2-group1183">
            <path id="ranaTop2-bezier1181" stroke="none" fill="rgb(0, 0, 0)" d="M 12.33,55.33 C 12.36,55.61 12.32,55.93 12.07,56.19 11.81,56.43 11.44,56.48 11.13,56.46 10.82,56.44 10.5,56.41 10.26,56.24 10.03,56.06 9.82,55.85 9.7,55.53 L 9.74,55.47 C 10.08,55.44 10.34,55.5 10.59,55.56 10.83,55.62 11.02,55.79 11.24,55.87 11.45,55.94 11.67,55.97 11.85,55.89 12.03,55.81 12.19,55.58 12.25,55.33 L 12.33,55.33 Z M 12.33,55.33" />
        </g>
        <g id="ranaTop2-group1184">
            <path id="ranaTop2-bezier1182" stroke="none" fill="rgb(0, 0, 0)" d="M 13.23,54.17 C 13.26,54.45 13.22,54.77 12.97,55.03 12.71,55.27 12.34,55.32 12.03,55.3 11.72,55.28 11.41,55.25 11.16,55.07 10.93,54.9 10.72,54.69 10.6,54.37 L 10.65,54.31 C 10.98,54.28 11.24,54.34 11.49,54.4 11.73,54.46 11.92,54.62 12.14,54.71 12.36,54.78 12.57,54.81 12.75,54.73 12.94,54.65 13.1,54.42 13.15,54.17 L 13.23,54.17 Z M 13.23,54.17" />
        </g>
        <g id="ranaTop2-group1185">
            <path id="ranaTop2-bezier1183" stroke="none" fill="rgb(0, 0, 0)" d="M 10.52,57.15 C 10.35,57.34 10.16,57.22 10,57.21 9.84,57.17 9.68,57.11 9.52,57.05 9.21,56.93 8.91,56.79 8.61,56.64 8.03,56.33 7.44,56.02 6.89,55.59 6.62,55.39 6.35,55.15 6.12,54.85 5.89,54.54 5.74,54.11 5.79,53.69 5.84,53.28 6.03,52.94 6.26,52.67 6.48,52.39 6.73,52.16 7.02,51.97 L 7.08,52.02 C 6.84,52.65 6.52,53.25 6.54,53.74 6.54,54.19 6.83,54.7 7.29,55.14 7.73,55.57 8.27,55.95 8.8,56.32 9.07,56.51 9.34,56.69 9.62,56.85 9.76,56.93 9.9,57.01 10.05,57.07 10.18,57.13 10.38,57.19 10.45,57.13 L 10.52,57.15 Z M 10.52,57.15" />
        </g>
        <g id="ranaTop2-group1186">
            <path id="ranaTop2-bezier1184" stroke="none" fill="rgb(0, 0, 0)" d="M 72.42,54.81 C 72.6,55.06 72.73,55.36 72.73,55.71 72.72,56.06 72.52,56.42 72.24,56.64 71.98,56.87 71.67,57.06 71.35,57.08 71.02,57.1 70.7,57.05 70.4,56.87 L 70.39,56.79 C 70.67,56.57 70.93,56.46 71.18,56.35 71.42,56.25 71.69,56.24 71.91,56.14 72.12,56.04 72.29,55.89 72.37,55.65 72.45,55.42 72.44,55.12 72.36,54.85 L 72.42,54.81 Z M 72.42,54.81" />
        </g>
        <g id="ranaTop2-group1187">
            <path id="ranaTop2-bezier1185" stroke="none" fill="rgb(0, 0, 0)" d="M 72,57.54 C 71.95,57.94 71.78,58.37 71.39,58.61 70.99,58.84 70.51,58.78 70.11,58.65 69.31,58.35 68.68,57.85 68,57.43 67.33,57 66.67,56.64 66,56.47 65.33,56.28 64.55,56.34 63.74,56.37 L 63.72,56.3 C 64.42,55.88 65.25,55.61 66.15,55.74 67.06,55.87 67.74,56.46 68.35,56.95 68.98,57.43 69.58,57.98 70.25,58.3 70.58,58.46 70.96,58.55 71.29,58.41 71.61,58.27 71.84,57.91 71.93,57.53 L 72,57.54 Z M 72,57.54" />
        </g>
        <g id="ranaTop2-group1188">
            <path id="ranaTop2-bezier1186" stroke="none" fill="rgb(0, 0, 0)" d="M 16.14,48.49 C 14.56,49.1 12.9,49.45 11.2,49.63 10.77,49.68 10.34,49.71 9.89,49.7 9.68,49.69 9.41,49.66 9.22,49.61 9.06,49.57 8.93,49.58 8.81,49.61 8.57,49.66 8.34,49.95 8.17,50.29 7.99,50.64 7.88,51.05 7.73,51.45 L 7.65,51.44 C 7.59,51.02 7.58,50.58 7.67,50.13 7.76,49.7 7.98,49.16 8.55,48.91 8.82,48.8 9.13,48.8 9.38,48.85 9.6,48.9 9.74,48.94 9.95,48.96 10.34,49.02 10.75,49.03 11.16,49.03 11.99,49.02 12.82,48.95 13.65,48.85 14.48,48.75 15.31,48.64 16.12,48.42 L 16.14,48.49 Z M 16.14,48.49" />
        </g>
        <g id="ranaTop2-group1189">
            <path id="ranaTop2-bezier1187" stroke="none" fill="rgb(0, 0, 0)" d="M 21.06,52.79 L 16.24,53.2 C 15.43,53.27 14.63,53.39 13.83,53.39 13.03,53.38 12.23,53.35 11.4,53.23 L 11.4,53.16 C 12.18,52.87 12.99,52.74 13.79,52.64 14.59,52.54 15.4,52.59 16.21,52.6 17.83,52.6 19.44,52.64 21.06,52.71 L 21.06,52.79 Z M 21.06,52.79" />
        </g>
        <g id="ranaTop2-group1190">
            <path id="ranaTop2-bezier1188" stroke="none" fill="rgb(0, 0, 0)" d="M 77.64,8.49 C 78.64,8.41 79.63,8.33 80.65,8.43 81.61,8.83 82.6,8.3 83.15,7.58 83.42,7.21 83.56,6.76 83.55,6.3 83.53,5.82 83.52,5.29 83.41,4.88 83.34,4.66 83.26,4.57 83.1,4.53 82.93,4.49 82.69,4.51 82.46,4.55 82,4.63 81.53,4.81 81.01,4.91 78.92,5.32 76.83,4.58 75.06,4.64 74.73,4.68 74.47,4.97 74.31,5.4 74.15,5.82 74.09,6.31 74.02,6.79 73.91,7.77 73.88,8.77 73.8,9.77 L 73.73,9.77 C 73.59,8.78 73.49,7.78 73.5,6.76 73.5,6.24 73.54,5.73 73.7,5.19 73.78,4.93 73.89,4.66 74.09,4.41 74.29,4.16 74.6,3.97 74.92,3.9 76.09,3.8 77.03,4.01 78.03,4.17 79,4.34 79.97,4.46 80.9,4.32 81.37,4.25 81.85,4.09 82.38,4.02 82.64,3.99 82.91,3.95 83.23,4.03 83.58,4.1 83.83,4.47 83.88,4.74 84,5.3 83.97,5.79 83.98,6.3 83.98,6.84 83.79,7.39 83.45,7.81 83.11,8.23 82.65,8.54 82.15,8.71 81.9,8.79 81.64,8.84 81.36,8.83 81.24,8.83 81.07,8.79 80.96,8.74 80.86,8.7 80.74,8.68 80.62,8.65 79.65,8.51 78.64,8.54 77.64,8.56 L 77.64,8.49 Z M 77.64,8.49" />
        </g>
        <g id="ranaTop2-group1191">
            <path id="ranaTop2-bezier1189" stroke="none" fill="rgb(0, 0, 0)" d="M 82.76,3.57 C 82.2,3.53 81.67,3.47 81.17,3.48 80.92,3.5 80.69,3.59 80.53,3.6 80.36,3.61 80.24,3.57 80.01,3.85 L 79.93,3.85 C 79.83,3.71 79.79,3.52 79.87,3.32 79.93,3.11 80.12,2.97 80.28,2.89 80.63,2.72 80.95,2.82 81.23,2.89 81.51,2.95 81.77,3.04 82.03,3.14 82.28,3.25 82.53,3.39 82.77,3.5 L 82.76,3.57 Z M 82.76,3.57" />
        </g>
        <g id="ranaTop2-group1192">
            <path id="ranaTop2-bezier1190" stroke="none" fill="rgb(0, 0, 0)" d="M 92.26,30.03 C 90.89,30.26 89.47,30.24 88.09,29.94 87.39,29.81 86.68,29.63 86.06,29.25 85.45,28.88 84.9,28.38 84.53,27.76 L 84.58,27.7 C 85.22,28.02 85.8,28.33 86.41,28.59 87.01,28.85 87.6,29.15 88.24,29.36 89.52,29.76 90.88,29.97 92.26,29.96 L 92.26,30.03 Z M 92.26,30.03" />
        </g>
        <g id="ranaTop2-group1193">
            <path id="ranaTop2-bezier1191" stroke="none" fill="rgb(0, 0, 0)" d="M 84.87,49.47 C 84.21,50.1 83.57,50.75 82.99,51.42 82.7,51.76 82.47,52.14 82.18,52.45 81.89,52.77 81.61,53.05 81.36,53.46 L 81.29,53.45 C 81.12,52.94 81.34,52.41 81.57,52.01 81.82,51.58 82.21,51.29 82.56,50.99 83.27,50.39 84.03,49.87 84.83,49.41 L 84.87,49.47 Z M 84.87,49.47" />
        </g>
    </g>
</svg>
