<?xml version="1.0" encoding="UTF-8"?>
<!DOCTYPE svg PUBLIC "-//W3C//DTD SVG 1.1//EN" "http://www.w3.org/Graphics/SVG/1.1/DTD/svg11.dtd">
<svg version="1.1" xmlns="http://www.w3.org/2000/svg" xmlns:xlink="http://www.w3.org/1999/xlink" width="120" height="60"  xml:space="preserve" id="ranaTop6">
    <!-- Generated by PaintCode - http://www.paintcodeapp.com -->
    <g id="ranaTop6-group1445">
        <g id="ranaTop6-group914">
            <path id="ranaTop6-bezier912" stroke="none" fill="rgb(0, 0, 0)" d="M 83.21,9.53 C 83.45,9.03 83.56,8.36 83.27,8.14 83.12,8.03 82.9,8.02 82.68,7.92 82.45,7.81 82.19,7.72 81.91,7.51 L 81.91,7.43 C 82.2,7.23 82.51,7.17 82.85,7.19 83.18,7.21 83.53,7.43 83.74,7.77 83.97,8.13 83.91,8.54 83.8,8.83 83.66,9.12 83.48,9.36 83.27,9.57 L 83.21,9.53 Z M 83.21,9.53" />
        </g>
        <g id="ranaTop6-group915">
            <path id="ranaTop6-bezier913" stroke="none" fill="rgb(0, 0, 0)" d="M 83.63,7.04 C 83.72,6.76 83.72,6.47 83.64,6.23 83.56,6 83.39,5.84 83.18,5.74 82.96,5.64 82.7,5.64 82.45,5.54 82.21,5.43 81.94,5.31 81.66,5.09 L 81.67,5.02 C 81.97,4.83 82.3,4.78 82.62,4.8 82.95,4.83 83.25,5.02 83.52,5.25 83.79,5.47 84,5.82 84.01,6.18 84.01,6.53 83.88,6.83 83.7,7.07 L 83.63,7.04 Z M 83.63,7.04" />
        </g>
        <g id="ranaTop6-group916">
            <path id="ranaTop6-bezier914" stroke="none" fill="rgb(0, 0, 0)" d="M 83.2,4.35 C 83.11,3.98 82.89,3.62 82.56,3.48 82.23,3.34 81.86,3.43 81.52,3.59 80.85,3.91 80.26,4.46 79.63,4.94 79.01,5.42 78.34,6.02 77.42,6.15 76.53,6.27 75.69,6.01 74.99,5.59 L 75.01,5.52 C 75.83,5.55 76.6,5.61 77.28,5.41 77.95,5.24 78.6,4.88 79.28,4.45 79.95,4.04 80.59,3.54 81.39,3.24 81.78,3.11 82.26,3.05 82.66,3.28 83.05,3.52 83.22,3.94 83.27,4.34 L 83.2,4.35 Z M 83.2,4.35" />
        </g>
        <g id="ranaTop6-group1194">
            <path id="ranaTop6-bezier1192" stroke="none" fill="rgb(0, 0, 0)" d="M 108.48,38.73 C 109.25,38.9 109.98,39.25 110.61,39.77 111.22,40.29 111.7,41.14 111.55,42.05 L 111.52,42.23 111.49,42.37 C 111.45,42.48 111.4,42.62 111.34,42.71 111.23,42.92 111.07,43.11 110.89,43.26 110.52,43.56 110.09,43.7 109.68,43.77 108.84,43.89 108.03,43.79 107.28,43.49 L 107.29,43.42 C 108.07,43.31 108.83,43.23 109.52,43.04 110.2,42.85 110.82,42.6 110.96,41.94 111.14,41.29 110.86,40.57 110.35,40.04 109.85,39.5 109.19,39.06 108.46,38.8 L 108.48,38.73 Z M 108.48,38.73" />
        </g>
        <g id="ranaTop6-group1195">
            <path id="ranaTop6-bezier1193" stroke="none" fill="rgb(0, 0, 0)" d="M 105.52,43.03 C 103.7,43.91 101.85,44.73 99.89,45.33 98.89,45.64 97.91,45.81 96.96,46.03 96,46.22 95.12,46.57 94.19,47.02 L 94.15,46.96 C 94.81,46.18 95.77,45.61 96.76,45.3 97.76,44.97 98.79,44.96 99.74,44.75 101.68,44.29 103.6,43.64 105.49,42.96 L 105.52,43.03 Z M 105.52,43.03" />
        </g>
        <g id="ranaTop6-group1196">
            <path id="ranaTop6-bezier1194" stroke="none" fill="rgb(0, 0, 0)" d="M 94.82,44.87 C 94.89,44.54 94.93,44.19 94.92,43.85 94.9,43.52 94.82,43.16 94.59,42.98 94.35,42.81 94,42.87 93.7,42.97 93.39,43.09 93.09,43.25 92.8,43.43 91.64,44.16 90.57,45.05 89.54,45.96 88.52,46.9 87.56,47.9 86.74,48.94 86.53,49.2 86.34,49.47 86.21,49.74 86.08,50.02 86.05,50.27 86.17,50.41 86.31,50.58 86.66,50.67 86.98,50.71 87.31,50.76 87.66,50.75 88.01,50.76 L 88.02,50.83 C 87.69,50.94 87.34,51.01 86.97,51.05 86.62,51.06 86.21,51.09 85.82,50.79 85.62,50.64 85.5,50.36 85.5,50.13 85.49,49.9 85.55,49.7 85.61,49.51 85.74,49.13 85.93,48.81 86.13,48.5 86.96,47.3 88.06,46.4 89.15,45.51 90.25,44.63 91.38,43.8 92.61,43.11 92.93,42.94 93.26,42.79 93.61,42.69 93.95,42.6 94.39,42.54 94.73,42.81 95.04,43.09 95.07,43.5 95.07,43.85 95.06,44.21 94.99,44.55 94.89,44.89 L 94.82,44.87 Z M 94.82,44.87" />
        </g>
        <g id="ranaTop6-group1197">
            <path id="ranaTop6-bezier1195" stroke="none" fill="rgb(0, 0, 0)" d="M 94.04,46.59 C 93.24,47.21 92.45,47.83 91.68,48.47 91.3,48.79 90.95,49.15 90.55,49.43 90.16,49.72 89.72,49.94 89.37,50.28 L 89.3,50.26 C 89.28,49.96 89.43,49.7 89.57,49.47 89.71,49.24 89.89,49.04 90.07,48.86 90.43,48.48 90.89,48.24 91.33,47.98 92.19,47.44 93.08,46.96 94,46.53 L 94.04,46.59 Z M 94.04,46.59" />
        </g>
        <g id="ranaTop6-group1198">
            <path id="ranaTop6-bezier1196" stroke="none" fill="rgb(0, 0, 0)" d="M 108.23,37.33 C 107.83,36.4 107.36,35.5 106.83,34.65 106.31,33.8 105.72,32.98 105.02,32.3 104.66,31.97 104.28,31.68 103.86,31.45 103.41,31.2 102.96,30.87 102.59,30.49 101.86,29.73 101.29,28.7 101.34,27.63 L 101.41,27.63 C 101.77,28.57 102.39,29.33 103.11,29.95 103.47,30.27 103.84,30.54 104.25,30.82 104.7,31.12 105.1,31.49 105.45,31.89 106.84,33.47 107.67,35.37 108.3,37.3 L 108.23,37.33 Z M 108.23,37.33" />
        </g>
        <g id="ranaTop6-group1199">
            <path id="ranaTop6-bezier1197" stroke="none" fill="rgb(0, 0, 0)" d="M 100.44,27.41 C 100.02,28.03 99.5,28.6 98.81,28.96 98.14,29.35 97.21,29.32 96.54,28.87 95.88,28.43 95.4,27.8 94.99,27.16 94.58,26.51 94.26,25.82 93.99,25.11 93.46,23.69 93.04,22.19 93.16,20.61 93.21,20.22 93.28,19.82 93.45,19.43 93.54,19.23 93.66,19.04 93.82,18.87 94.02,18.69 94.17,18.62 94.37,18.52 94.74,18.35 95.18,18.26 95.59,18.36 96,18.46 96.34,18.7 96.56,19.02 L 96.5,19.07 C 95.93,18.59 95.16,18.59 94.62,18.98 94.32,19.18 94.15,19.35 94.05,19.67 93.95,19.97 93.92,20.31 93.91,20.66 93.89,22.06 94.12,23.53 94.55,24.91 95.02,26.27 95.63,27.68 96.75,28.56 97.3,28.98 98.06,29.07 98.72,28.76 99.37,28.47 99.93,27.95 100.37,27.36 L 100.44,27.41 Z M 100.44,27.41" />
        </g>
        <g id="ranaTop6-group1200">
            <path id="ranaTop6-bezier1198" stroke="none" fill="rgb(0, 0, 0)" d="M 97.04,20.95 C 97.57,21.7 98.08,22.45 98.57,23.21 98.82,23.59 99.11,23.95 99.28,24.38 99.44,24.8 99.58,25.24 99.61,25.74 L 99.54,25.77 C 99.15,25.46 98.87,25.1 98.61,24.73 98.36,24.35 98.22,23.91 98.04,23.5 97.67,22.67 97.31,21.84 96.97,20.99 L 97.04,20.95 Z M 97.04,20.95" />
        </g>
        <g id="ranaTop6-group1201">
            <path id="ranaTop6-bezier1199" stroke="none" fill="rgb(0, 0, 0)" d="M 84.77,15.6 C 83.65,14.92 82.6,14.11 81.66,13.16 81.19,12.69 80.71,12.2 80.41,11.57 80.11,10.96 79.92,10.23 80.08,9.55 L 80.16,9.55 C 80.41,10.17 80.71,10.69 81.06,11.2 81.41,11.71 81.72,12.26 82.11,12.76 82.91,13.76 83.83,14.69 84.81,15.54 L 84.77,15.6 Z M 84.77,15.6" />
        </g>
        <g id="ranaTop6-group1202">
            <path id="ranaTop6-bezier1200" stroke="none" fill="rgb(0, 0, 0)" d="M 78.69,12.65 C 77.57,11.49 76.38,10.42 75.13,9.43 74.5,8.94 73.83,8.52 73.21,8.03 72.6,7.53 71.97,7.05 71.35,6.5 L 71.38,6.44 C 72.2,6.62 72.95,6.98 73.64,7.41 74.34,7.84 74.94,8.42 75.52,8.97 76.71,10.09 77.79,11.3 78.75,12.6 L 78.69,12.65 Z M 78.69,12.65" />
        </g>
        <g id="ranaTop6-group1203">
            <path id="ranaTop6-bezier1201" stroke="none" fill="rgb(0, 0, 0)" d="M 72.77,13.29 C 71.13,12.2 69.64,10.84 68.46,9.21 67.87,8.41 67.32,7.53 67.05,6.53 66.78,5.54 66.73,4.48 67.02,3.51 L 67.09,3.51 C 67.21,4.5 67.42,5.42 67.76,6.3 68.1,7.18 68.46,8.06 68.96,8.88 69.46,9.7 70.06,10.47 70.71,11.19 71.36,11.92 72.05,12.61 72.81,13.23 L 72.77,13.29 Z M 72.77,13.29" />
        </g>
        <g id="ranaTop6-group1204">
            <path id="ranaTop6-bezier1202" stroke="none" fill="rgb(0, 0, 0)" d="M 64.04,8.32 C 63.42,7.07 62.72,5.86 61.91,4.75 61.5,4.2 61.02,3.71 60.6,3.21 60.16,2.71 59.71,2.24 59.12,1.84 L 59.14,1.77 C 59.89,1.78 60.58,2.21 61.13,2.68 61.68,3.17 62.06,3.8 62.41,4.42 63.14,5.65 63.69,6.95 64.11,8.29 L 64.04,8.32 Z M 64.04,8.32" />
        </g>
        <g id="ranaTop6-group1205">
            <path id="ranaTop6-bezier1203" stroke="none" fill="rgb(0, 0, 0)" d="M 60.58,8.32 C 60.28,7.77 59.88,7.29 59.45,6.85 59.03,6.4 58.56,5.99 58.07,5.63 57.57,5.27 57.03,4.99 56.53,4.64 56.04,4.28 55.53,3.94 55.03,3.51 L 55.06,3.44 C 55.72,3.49 56.33,3.71 56.92,3.99 57.5,4.28 57.99,4.73 58.46,5.17 59.4,6.05 60.2,7.09 60.65,8.29 L 60.58,8.32 Z M 60.58,8.32" />
        </g>
        <g id="ranaTop6-group1206">
            <path id="ranaTop6-bezier1204" stroke="none" fill="rgb(0, 0, 0)" d="M 55.41,5.92 C 54.2,5.68 53,5.36 51.83,4.94 51.25,4.73 50.64,4.54 50.11,4.2 49.59,3.84 49.07,3.42 48.77,2.83 L 48.82,2.78 C 49.39,3.06 49.93,3.29 50.47,3.54 51.02,3.78 51.52,4.11 52.07,4.39 53.16,4.92 54.28,5.4 55.43,5.85 L 55.41,5.92 Z M 55.41,5.92" />
        </g>
        <g id="ranaTop6-group1207">
            <path id="ranaTop6-bezier1205" stroke="none" fill="rgb(0, 0, 0)" d="M 50.79,7.5 C 49.48,6.26 48.07,5.13 46.57,4.16 45.82,3.69 45.03,3.3 44.26,2.89 43.48,2.47 42.69,2.13 41.82,1.84 L 41.83,1.77 C 42.76,1.65 43.71,1.86 44.57,2.21 45.44,2.56 46.19,3.12 46.92,3.67 48.38,4.78 49.68,6.06 50.85,7.45 L 50.79,7.5 Z M 50.79,7.5" />
        </g>
        <g id="ranaTop6-group1208">
            <path id="ranaTop6-bezier1206" stroke="none" fill="rgb(0, 0, 0)" d="M 46.3,5.92 C 44.71,5.09 43.1,4.3 41.47,3.58 L 39.01,2.6 C 38.2,2.28 37.41,1.86 36.54,1.84 L 36.51,1.77 C 36.94,1.53 37.45,1.56 37.91,1.6 38.38,1.64 38.83,1.76 39.27,1.89 40.15,2.16 40.94,2.61 41.74,3.04 43.33,3.89 44.86,4.84 46.34,5.86 L 46.3,5.92 Z M 46.3,5.92" />
        </g>
        <g id="ranaTop6-group1209">
            <path id="ranaTop6-bezier1207" stroke="none" fill="rgb(0, 0, 0)" d="M 44.66,12.54 C 43.01,12.18 41.39,11.66 39.84,10.93 39.07,10.56 38.27,10.17 37.64,9.53 37.03,8.92 36.47,7.99 36.7,7.09 L 36.77,7.09 C 36.98,7.92 37.54,8.47 38.15,8.97 38.76,9.47 39.41,9.97 40.12,10.4 41.55,11.22 43.1,11.9 44.68,12.47 L 44.66,12.54 Z M 44.66,12.54" />
        </g>
        <g id="ranaTop6-group1210">
            <path id="ranaTop6-bezier1208" stroke="none" fill="rgb(0, 0, 0)" d="M 36.49,6.49 C 35.69,5.42 34.75,4.46 33.71,3.67 33.18,3.28 32.61,2.99 32.07,2.67 31.52,2.34 30.95,2.06 30.32,1.78 L 30.32,1.7 C 31.02,1.58 31.75,1.73 32.4,2 33.06,2.27 33.59,2.74 34.1,3.21 35.11,4.15 35.93,5.26 36.56,6.45 L 36.49,6.49 Z M 36.49,6.49" />
        </g>
        <g id="ranaTop6-group1211">
            <path id="ranaTop6-bezier1209" stroke="none" fill="rgb(0, 0, 0)" d="M 33.57,12.93 C 32.6,12.47 31.71,11.79 31.03,10.89 30.7,10.45 30.36,9.96 30.27,9.38 30.16,8.81 30.22,8.21 30.48,7.7 L 30.55,7.7 C 30.7,8.25 30.81,8.73 30.99,9.19 31.16,9.64 31.29,10.12 31.53,10.56 32.03,11.44 32.76,12.23 33.61,12.87 L 33.57,12.93 Z M 33.57,12.93" />
        </g>
        <g id="ranaTop6-group1212">
            <path id="ranaTop6-bezier1210" stroke="none" fill="rgb(0, 0, 0)" d="M 28.83,10.28 C 27.87,9.47 26.85,8.73 25.79,8.12 25.25,7.82 24.68,7.61 24.15,7.36 23.61,7.1 23.08,6.89 22.44,6.76 L 22.43,6.69 C 23.05,6.4 23.78,6.47 24.41,6.65 25.06,6.85 25.59,7.24 26.11,7.62 27.15,8.37 28.07,9.26 28.88,10.22 L 28.83,10.28 Z M 28.83,10.28" />
        </g>
        <g id="ranaTop6-group1213">
            <path id="ranaTop6-bezier1211" stroke="none" fill="rgb(0, 0, 0)" d="M 23.76,9.84 C 22.29,9.94 20.85,10.28 19.49,10.77 18.81,11.02 18.17,11.37 17.52,11.65 16.85,11.93 16.21,12.25 15.51,12.54 L 15.46,12.48 C 15.92,11.86 16.52,11.37 17.17,10.98 17.83,10.59 18.58,10.38 19.31,10.19 20.77,9.81 22.28,9.65 23.76,9.76 L 23.76,9.84 Z M 23.76,9.84" />
        </g>
        <g id="ranaTop6-group1214">
            <path id="ranaTop6-bezier1212" stroke="none" fill="rgb(0, 0, 0)" d="M 23.66,13.69 C 22.3,14.58 20.85,15.35 19.3,15.92 18.53,16.2 17.73,16.49 16.87,16.5 16.03,16.51 15.07,16.34 14.48,15.7 L 14.52,15.64 C 15.3,15.89 16.05,15.85 16.81,15.75 17.57,15.65 18.35,15.54 19.12,15.35 20.65,14.93 22.16,14.32 23.62,13.62 L 23.66,13.69 Z M 23.66,13.69" />
        </g>
        <g id="ranaTop6-group1215">
            <path id="ranaTop6-bezier1213" stroke="none" fill="rgb(0, 0, 0)" d="M 17.58,17.63 C 16.13,18.36 14.69,19.08 13.29,19.87 12.6,20.27 11.94,20.73 11.25,21.11 10.55,21.5 9.87,21.87 9.17,22.3 L 9.11,22.24 C 9.54,21.51 10.19,20.96 10.85,20.48 11.52,19.99 12.28,19.67 13.02,19.34 14.5,18.65 16.02,18.09 17.54,17.56 L 17.58,17.63 Z M 17.58,17.63" />
        </g>
        <g id="ranaTop6-group1216">
            <path id="ranaTop6-bezier1214" stroke="none" fill="rgb(0, 0, 0)" d="M 22.78,21.27 C 21.5,21.49 20.19,21.63 18.88,21.66 18.22,21.69 17.55,21.73 16.9,21.61 16.25,21.47 15.58,21.28 15.03,20.86 L 15.05,20.79 16.99,20.86 C 17.62,20.89 18.25,21.01 18.89,21.06 20.18,21.16 21.48,21.2 22.78,21.2 L 22.78,21.27 Z M 22.78,21.27" />
        </g>
        <g id="ranaTop6-group1217">
            <path id="ranaTop6-bezier1215" stroke="none" fill="rgb(0, 0, 0)" d="M 16.34,23.77 C 14.87,24.14 13.43,24.63 12.07,25.24 11.39,25.55 10.75,25.94 10.1,26.27 9.45,26.6 8.83,26.96 8.17,27.39 L 8.11,27.34 C 8.47,26.63 9.07,26.07 9.72,25.62 10.37,25.18 11.12,24.92 11.85,24.68 13.31,24.18 14.81,23.86 16.33,23.69 L 16.34,23.77 Z M 16.34,23.77" />
        </g>
        <g id="ranaTop6-group1218">
            <path id="ranaTop6-bezier1216" stroke="none" fill="rgb(0, 0, 0)" d="M 21,29.27 C 19.5,29.56 17.98,29.73 16.43,29.7 15.66,29.69 14.87,29.68 14.1,29.4 13.38,29.13 12.54,28.61 12.37,27.78 L 12.44,27.75 C 12.96,28.32 13.63,28.51 14.32,28.68 15.01,28.84 15.73,29.01 16.47,29.1 17.95,29.26 19.47,29.27 20.99,29.2 L 21,29.27 Z M 21,29.27" />
        </g>
        <g id="ranaTop6-group1219">
            <path id="ranaTop6-bezier1217" stroke="none" fill="rgb(0, 0, 0)" d="M 69.67,53.01 C 67.78,53.4 65.9,53.88 64.09,54.49 63.18,54.8 62.31,55.19 61.43,55.53 60.55,55.87 59.69,56.23 58.84,56.72 L 58.79,56.66 C 59.39,55.85 60.25,55.29 61.13,54.84 62.01,54.4 62.97,54.15 63.92,53.91 65.81,53.43 67.73,53.11 69.66,52.94 L 69.67,53.01 Z M 69.67,53.01" />
        </g>
        <g id="ranaTop6-group1220">
            <path id="ranaTop6-bezier1218" stroke="none" fill="rgb(0, 0, 0)" d="M 64.08,52.63 C 62.13,52.69 60.17,52.64 58.21,52.44 57.24,52.34 56.24,52.25 55.29,51.94 54.82,51.78 54.34,51.6 53.9,51.34 53.47,51.09 53.03,50.77 52.77,50.33 L 52.82,50.28 C 53.64,50.81 54.57,50.99 55.49,51.22 56.42,51.42 57.34,51.67 58.3,51.85 60.2,52.18 62.14,52.4 64.08,52.55 L 64.08,52.63 Z M 64.08,52.63" />
        </g>
        <g id="ranaTop6-group1221">
            <path id="ranaTop6-bezier1219" stroke="none" fill="rgb(0, 0, 0)" d="M 57.62,53.84 C 55.95,54.16 54.31,54.59 52.72,55.13 51.93,55.41 51.17,55.77 50.4,56.06 49.62,56.35 48.86,56.67 48.05,57 L 48.01,56.94 C 48.58,56.27 49.32,55.77 50.09,55.37 50.87,54.98 51.72,54.77 52.55,54.56 54.21,54.13 55.91,53.87 57.61,53.77 L 57.62,53.84 Z M 57.62,53.84" />
        </g>
        <g id="ranaTop6-group1222">
            <path id="ranaTop6-bezier1220" stroke="none" fill="rgb(0, 0, 0)" d="M 48.05,51.48 C 46.44,52.23 44.85,53.02 43.32,53.9 42.57,54.35 41.85,54.86 41.13,55.31 40.42,55.79 39.64,56.21 39.24,56.98 L 39.17,56.97 C 39.14,56.48 39.42,56.04 39.7,55.67 39.99,55.3 40.33,54.99 40.69,54.7 41.41,54.13 42.23,53.75 43.04,53.37 44.66,52.6 46.32,51.96 48.02,51.41 L 48.05,51.48 Z M 48.05,51.48" />
        </g>
        <g id="ranaTop6-group1223">
            <path id="ranaTop6-bezier1221" stroke="none" fill="rgb(0, 0, 0)" d="M 39.7,55.5 C 38.49,56.58 37.16,57.54 35.69,58.29 34.96,58.66 34.2,59.04 33.37,59.17 32.54,59.31 31.64,59.29 30.88,58.94 L 30.89,58.87 C 31.71,58.8 32.46,58.66 33.2,58.44 33.94,58.23 34.7,58.03 35.44,57.74 36.91,57.14 38.32,56.35 39.65,55.44 L 39.7,55.5 Z M 39.7,55.5" />
        </g>
        <g id="ranaTop6-group1224">
            <path id="ranaTop6-bezier1222" stroke="none" fill="rgb(0, 0, 0)" d="M 34.52,55.49 C 32.82,56 31.06,56.33 29.28,56.49 28.39,56.57 27.49,56.64 26.59,56.52 25.69,56.4 24.8,56.17 24,55.73 L 24.02,55.66 C 24.92,55.7 25.78,55.76 26.65,55.78 27.51,55.8 28.38,55.88 29.25,55.89 31,55.87 32.76,55.71 34.5,55.42 L 34.52,55.49 Z M 34.52,55.49" />
        </g>
        <g id="ranaTop6-group1225">
            <path id="ranaTop6-bezier1223" stroke="none" fill="rgb(0, 0, 0)" d="M 29.09,53.53 C 27.13,53.16 25.15,52.84 23.17,52.62 22.18,52.52 21.19,52.49 20.21,52.41 19.23,52.36 18.26,52.24 17.3,52.52 L 17.27,52.45 C 17.66,52.09 18.19,51.93 18.69,51.82 19.2,51.71 19.72,51.68 20.23,51.66 21.26,51.65 22.26,51.84 23.25,52.02 25.24,52.38 27.19,52.87 29.11,53.46 L 29.09,53.53 Z M 29.09,53.53" />
        </g>
        <g id="ranaTop6-group1226">
            <path id="ranaTop6-bezier1224" stroke="none" fill="rgb(0, 0, 0)" d="M 23.44,48.42 C 21.9,48.02 20.31,47.75 18.74,47.64 17.95,47.6 17.17,47.65 16.4,47.66 15.63,47.67 14.87,47.73 14.06,47.87 L 14.03,47.8 C 14.69,47.28 15.53,47.02 16.34,46.91 17.17,46.8 18,46.92 18.8,47.05 20.42,47.29 21.98,47.74 23.47,48.35 L 23.44,48.42 Z M 23.44,48.42" />
        </g>
        <g id="ranaTop6-group1227">
            <path id="ranaTop6-bezier1225" stroke="none" fill="rgb(0, 0, 0)" d="M 21.18,42.44 C 19.51,42.92 17.75,43.16 15.98,43.03 15.1,42.97 14.19,42.85 13.37,42.45 12.55,42.06 11.81,41.46 11.36,40.68 L 11.41,40.63 C 12.15,41.11 12.88,41.49 13.66,41.76 14.43,42.03 15.22,42.3 16.05,42.43 16.89,42.57 17.74,42.61 18.59,42.59 19.45,42.58 20.31,42.51 21.16,42.36 L 21.18,42.44 Z M 21.18,42.44" />
        </g>
        <g id="ranaTop6-group1228">
            <path id="ranaTop6-bezier1226" stroke="none" fill="rgb(0, 0, 0)" d="M 20.05,38.77 C 19.31,38.38 18.53,38.05 17.75,37.77 16.97,37.48 16.18,37.24 15.37,37.08 14.56,36.92 13.75,36.87 12.96,36.84 12.16,36.8 11.38,36.88 10.54,37.07 L 10.51,37.01 C 11.17,36.43 12.07,36.15 12.95,36.09 13.83,36.03 14.7,36.25 15.52,36.49 17.17,36.98 18.69,37.76 20.09,38.71 L 20.05,38.77 Z M 20.05,38.77" />
        </g>
        <g id="ranaTop6-group1229">
            <path id="ranaTop6-bezier1227" stroke="none" fill="rgb(0, 0, 0)" d="M 18.8,34.03 C 16.91,34.01 15.02,33.88 13.14,33.58 12.2,33.43 11.25,33.28 10.35,32.92 9.47,32.56 8.54,32.07 7.99,31.24 L 8.04,31.19 C 8.85,31.69 9.71,31.95 10.59,32.21 11.47,32.46 12.35,32.76 13.26,32.99 15.08,33.41 16.94,33.72 18.81,33.95 L 18.8,34.03 Z M 18.8,34.03" />
        </g>
        <g id="ranaTop6-group1230">
            <path id="ranaTop6-bezier1228" stroke="none" fill="rgb(0, 0, 0)" d="M 86.6,23.83 C 84.67,22.27 82.62,20.84 80.49,19.6 79.41,19 78.29,18.49 77.18,17.99 76.07,17.48 74.94,17.05 73.71,16.84 L 73.71,16.76 C 74.97,16.57 76.28,16.87 77.47,17.29 78.67,17.73 79.75,18.41 80.8,19.09 82.9,20.47 84.85,22.05 86.65,23.78 L 86.6,23.83 Z M 86.6,23.83" />
        </g>
        <g id="ranaTop6-group1231">
            <path id="ranaTop6-bezier1229" stroke="none" fill="rgb(0, 0, 0)" d="M 77.7,22.21 C 75.46,21.89 73.23,21.37 71.08,20.61 70,20.23 68.91,19.83 67.93,19.21 66.96,18.58 66.03,17.81 65.44,16.81 L 65.49,16.76 C 66.39,17.47 67.32,18.04 68.31,18.56 69.29,19.07 70.26,19.6 71.29,20.05 73.36,20.92 75.52,21.61 77.72,22.14 L 77.7,22.21 Z M 77.7,22.21" />
        </g>
        <g id="ranaTop6-group1232">
            <path id="ranaTop6-bezier1230" stroke="none" fill="rgb(0, 0, 0)" d="M 95.5,41.78 C 93.86,41.46 92.2,41.23 90.56,41.12 89.73,41.07 88.91,41.11 88.11,41.11 87.3,41.12 86.51,41.14 85.72,41.43 L 85.68,41.37 C 86.28,40.7 87.22,40.47 88.06,40.36 88.93,40.26 89.78,40.39 90.62,40.52 92.29,40.76 93.93,41.18 95.52,41.71 L 95.5,41.78 Z M 95.5,41.78" />
        </g>
        <g id="ranaTop6-group1233">
            <path id="ranaTop6-bezier1231" stroke="none" fill="rgb(0, 0, 0)" d="M 97.89,36.11 L 94.23,35.69 C 93.62,35.63 93,35.62 92.41,35.49 91.81,35.37 91.23,35.21 90.62,35.04 L 90.61,34.97 C 91.23,34.73 91.88,34.73 92.5,34.75 93.12,34.78 93.72,34.96 94.33,35.1 95.53,35.37 96.72,35.69 97.91,36.04 L 97.89,36.11 Z M 97.89,36.11" />
        </g>
        <g id="ranaTop6-group1234">
            <path id="ranaTop6-bezier1232" stroke="none" fill="rgb(0, 0, 0)" d="M 97.69,34.44 C 96.2,33.58 94.76,32.63 93.4,31.55 92.72,31.02 92.02,30.49 91.46,29.81 90.92,29.13 90.4,28.36 90.24,27.47 L 90.31,27.44 C 90.83,28.13 91.42,28.71 92.01,29.3 92.62,29.88 93.18,30.51 93.79,31.1 95.04,32.25 96.37,33.34 97.73,34.37 L 97.69,34.44 Z M 97.69,34.44" />
        </g>
        <g id="ranaTop6-group1235">
            <path id="ranaTop6-bezier1233" stroke="none" fill="rgb(0, 0, 0)" d="M 89.94,36.09 C 88.46,36.73 86.85,37.1 85.2,37.2 84.39,37.25 83.54,37.28 82.73,37.08 81.92,36.9 81.14,36.58 80.47,36.09 L 80.49,36.02 C 81.31,36.13 82.08,36.27 82.86,36.34 83.63,36.43 84.4,36.57 85.19,36.6 86.77,36.64 88.37,36.45 89.92,36.02 L 89.94,36.09 Z M 89.94,36.09" />
        </g>
        <g id="ranaTop6-group1236">
            <path id="ranaTop6-bezier1234" stroke="none" fill="rgb(0, 0, 0)" d="M 87.93,42.48 C 86.84,43.44 85.54,44.16 84.12,44.6 83.42,44.82 82.68,45.01 81.92,44.97 81.17,44.93 80.43,44.76 79.77,44.4 L 79.79,44.33 C 80.53,44.29 81.22,44.28 81.91,44.22 82.59,44.16 83.28,44.15 83.97,44.02 85.34,43.73 86.68,43.2 87.88,42.42 L 87.93,42.48 Z M 87.93,42.48" />
        </g>
        <g id="ranaTop6-group1237">
            <path id="ranaTop6-bezier1235" stroke="none" fill="rgb(0, 0, 0)" d="M 82.79,45.96 C 81.17,46.64 79.56,47.35 77.97,48.1 77.19,48.48 76.43,48.92 75.63,49.27 L 73.23,50.33 73.19,50.28 C 73.77,49.57 74.53,49.05 75.29,48.6 76.06,48.15 76.91,47.86 77.74,47.55 79.39,46.91 81.07,46.36 82.77,45.89 L 82.79,45.96 Z M 82.79,45.96" />
        </g>
        <g id="ranaTop6-group1238">
            <path id="ranaTop6-bezier1236" stroke="none" fill="rgb(0, 0, 0)" d="M 88.93,27.02 C 87.47,26.96 86.01,26.77 84.57,26.4 83.85,26.22 83.11,26.03 82.46,25.61 81.83,25.21 81.18,24.61 81.05,23.82 L 81.12,23.79 C 81.6,24.35 82.2,24.66 82.82,24.96 83.45,25.25 84.08,25.57 84.75,25.83 86.1,26.31 87.51,26.67 88.94,26.94 L 88.93,27.02 Z M 88.93,27.02" />
        </g>
        <g id="ranaTop6-group1239">
            <path id="ranaTop6-bezier1237" stroke="none" fill="rgb(0, 0, 0)" d="M 92.36,26.58 C 91.79,24.91 91.11,23.28 90.24,21.79 89.8,21.05 89.26,20.38 88.71,19.8 88.15,19.21 87.47,18.78 86.56,18.9 L 86.54,18.83 C 86.92,18.57 87.43,18.48 87.92,18.59 88.42,18.68 88.85,18.94 89.21,19.25 89.95,19.87 90.38,20.7 90.77,21.5 91.56,23.12 92.07,24.83 92.43,26.56 L 92.36,26.58 Z M 92.36,26.58" />
        </g>
        <g id="ranaTop6-group1240">
            <path id="ranaTop6-bezier1238" stroke="none" fill="rgb(0, 0, 0)" d="M 70.91,16.82 C 69.91,15.45 68.76,14.19 67.47,13.13 66.82,12.61 66.11,12.19 65.42,11.76 64.72,11.33 64,10.98 63.19,10.67 L 63.19,10.6 C 64.07,10.5 64.98,10.73 65.77,11.1 66.58,11.48 67.25,12.08 67.87,12.68 69.12,13.89 70.15,15.28 70.97,16.78 L 70.91,16.82 Z M 70.91,16.82" />
        </g>
        <g id="ranaTop6-group1241">
            <path id="ranaTop6-bezier1239" stroke="none" fill="rgb(0, 0, 0)" d="M 70.4,21.51 C 68.52,21.68 66.63,21.69 64.73,21.52 63.79,21.44 62.82,21.35 61.9,21.05 60.99,20.75 60.09,20.34 59.37,19.69 L 59.41,19.62 C 60.32,19.91 61.2,20.14 62.1,20.33 63,20.52 63.89,20.77 64.81,20.93 66.64,21.23 68.52,21.39 70.4,21.44 L 70.4,21.51 Z M 70.4,21.51" />
        </g>
        <g id="ranaTop6-group1242">
            <path id="ranaTop6-bezier1240" stroke="none" fill="rgb(0, 0, 0)" d="M 60.93,15.61 C 58.43,15.85 55.94,16.16 53.48,16.59 52.26,16.82 51.05,17.12 49.85,17.4 49.25,17.53 48.66,17.7 48.09,17.89 47.52,18.1 46.94,18.33 46.57,18.82 L 46.5,18.79 C 46.71,18.13 47.32,17.73 47.87,17.42 48.44,17.1 49.05,16.88 49.65,16.68 50.88,16.29 52.14,16.15 53.39,16 55.9,15.69 58.41,15.56 60.92,15.54 L 60.93,15.61 Z M 60.93,15.61" />
        </g>
        <g id="ranaTop6-group1243">
            <path id="ranaTop6-bezier1241" stroke="none" fill="rgb(0, 0, 0)" d="M 64.07,13.84 C 62.54,13.66 61.03,13.35 59.54,12.91 58.8,12.7 58.03,12.49 57.34,12.11 56.66,11.74 55.99,11.28 55.49,10.67 L 55.53,10.61 57.66,11.43 C 58.36,11.71 59.03,12.06 59.74,12.34 61.15,12.89 62.61,13.37 64.09,13.77 L 64.07,13.84 Z M 64.07,13.84" />
        </g>
        <g id="ranaTop6-group1244">
            <path id="ranaTop6-bezier1242" stroke="none" fill="rgb(0, 0, 0)" d="M 52.85,11.33 C 51.43,12.52 49.73,13.36 47.93,13.88 47.03,14.14 46.1,14.36 45.16,14.35 44.22,14.33 43.27,14.19 42.4,13.84 L 42.41,13.77 C 43.34,13.71 44.24,13.68 45.13,13.6 46.01,13.51 46.91,13.47 47.79,13.29 48.67,13.12 49.54,12.86 50.38,12.52 51.22,12.18 52.05,11.78 52.8,11.28 L 52.85,11.33 Z M 52.85,11.33" />
        </g>
        <g id="ranaTop6-group1245">
            <path id="ranaTop6-bezier1243" stroke="none" fill="rgb(0, 0, 0)" d="M 41.85,52.57 C 40.91,52.38 39.94,52.31 38.99,52.31 38.03,52.29 37.08,52.34 36.13,52.46 35.19,52.58 34.26,52.81 33.33,52.96 32.39,53.12 31.45,53.3 30.48,53.43 L 30.45,53.36 C 31.3,52.84 32.22,52.49 33.17,52.23 34.11,51.97 35.1,51.91 36.08,51.86 38.03,51.78 40.01,51.93 41.87,52.5 L 41.85,52.57 Z M 41.85,52.57" />
        </g>
        <g id="ranaTop6-group1246">
            <path id="ranaTop6-bezier1244" stroke="none" fill="rgb(0, 0, 0)" d="M 31.94,51.11 C 30.13,50.82 28.35,50.34 26.66,49.53 25.83,49.13 24.96,48.67 24.34,47.9 23.7,47.16 23.37,46.03 23.76,45.14 L 23.84,45.15 C 23.88,46.08 24.3,46.81 24.9,47.4 25.49,47.99 26.18,48.55 26.94,49.01 28.49,49.89 30.21,50.54 31.96,51.04 L 31.94,51.11 Z M 31.94,51.11" />
        </g>
        <g id="ranaTop6-group1247">
            <path id="ranaTop6-bezier1245" stroke="none" fill="rgb(0, 0, 0)" d="M 28.85,45.62 C 28.06,44.93 27.21,44.3 26.33,43.77 25.88,43.52 25.41,43.34 24.98,43.1 24.54,42.86 24.11,42.65 23.59,42.44 L 23.59,42.36 C 24.13,42.16 24.74,42.24 25.27,42.41 25.81,42.58 26.25,42.94 26.67,43.28 27.52,43.95 28.26,44.72 28.91,45.57 L 28.85,45.62 Z M 28.85,45.62" />
        </g>
        <g id="ranaTop6-group1248">
            <path id="ranaTop6-bezier1246" stroke="none" fill="rgb(0, 0, 0)" d="M 69.31,51.47 C 68.72,50.92 68.09,50.41 67.44,49.95 66.79,49.48 66.12,49.05 65.41,48.69 64.71,48.34 63.96,48.1 63.24,47.87 62.51,47.64 61.76,47.52 60.93,47.51 L 60.92,47.44 C 61.66,47.04 62.58,46.98 63.41,47.15 64.26,47.3 65.01,47.73 65.71,48.17 67.12,49.05 68.32,50.18 69.36,51.42 L 69.31,51.47 Z M 69.31,51.47" />
        </g>
        <g id="ranaTop6-group1249">
            <path id="ranaTop6-bezier1247" stroke="none" fill="rgb(0, 0, 0)" d="M 76.89,45.15 C 74.48,44.65 72.09,44.07 69.73,43.36 68.54,43.01 67.35,42.67 66.22,42.14 65.66,41.88 65.1,41.59 64.57,41.25 64.05,40.9 63.53,40.52 63.16,39.99 L 63.22,39.94 C 64.23,40.62 65.38,41.01 66.51,41.45 L 69.91,42.79 C 72.22,43.62 74.55,44.37 76.91,45.07 L 76.89,45.15 Z M 76.89,45.15" />
        </g>
        <g id="ranaTop6-group1250">
            <path id="ranaTop6-bezier1248" stroke="none" fill="rgb(0, 0, 0)" d="M 83.75,39.42 C 81.69,39.26 79.63,39.17 77.58,39.2 76.55,39.22 75.54,39.33 74.54,39.4 73.54,39.48 72.52,39.53 71.61,39.99 L 71.56,39.94 C 71.9,39.51 72.41,39.24 72.9,39.05 73.4,38.85 73.93,38.74 74.45,38.65 75.5,38.48 76.55,38.54 77.59,38.6 79.67,38.7 81.73,38.97 83.76,39.35 L 83.75,39.42 Z M 83.75,39.42" />
        </g>
        <g id="ranaTop6-group1251">
            <path id="ranaTop6-bezier1249" stroke="none" fill="rgb(0, 0, 0)" d="M 82.5,27.67 C 80.89,27.24 79.24,26.96 77.6,26.93 76.78,26.92 75.97,27.03 75.19,27.12 74.39,27.21 73.62,27.39 72.82,27.67 L 72.77,27.61 C 73.37,26.97 74.21,26.58 75.05,26.38 75.91,26.17 76.79,26.23 77.63,26.33 79.33,26.5 80.98,26.95 82.53,27.6 L 82.5,27.67 Z M 82.5,27.67" />
        </g>
        <g id="ranaTop6-group1252">
            <path id="ranaTop6-bezier1250" stroke="none" fill="rgb(0, 0, 0)" d="M 75.99,33.43 C 73.27,33.66 70.54,33.74 67.8,33.62 66.44,33.56 65.06,33.5 63.7,33.2 62.37,32.88 60.99,32.49 59.88,31.63 L 59.92,31.56 C 61.2,32.03 62.51,32.28 63.84,32.47 65.17,32.66 66.5,32.88 67.84,33.02 70.54,33.27 73.26,33.37 75.98,33.35 L 75.99,33.43 Z M 75.99,33.43" />
        </g>
        <g id="ranaTop6-group1253">
            <path id="ranaTop6-bezier1251" stroke="none" fill="rgb(0, 0, 0)" d="M 60.6,42.75 C 58.81,41.95 56.95,41.29 55.07,40.81 54.13,40.59 53.17,40.46 52.23,40.3 51.28,40.14 50.34,40.04 49.34,40 L 49.33,39.93 C 50.27,39.56 51.31,39.49 52.31,39.56 53.32,39.62 54.29,39.93 55.24,40.24 57.13,40.85 58.93,41.68 60.63,42.68 L 60.6,42.75 Z M 60.6,42.75" />
        </g>
        <g id="ranaTop6-group1254">
            <path id="ranaTop6-bezier1252" stroke="none" fill="rgb(0, 0, 0)" d="M 60.13,49.28 C 59.66,49.14 59.32,48.81 58.94,48.54 L 57.84,47.7 C 57.11,47.14 56.38,46.58 55.62,46.07 54.86,45.57 54.05,45.14 53.28,44.7 52.5,44.25 51.71,43.86 50.82,43.59 L 50.82,43.51 C 51.78,43.37 52.75,43.65 53.62,44.03 54.49,44.42 55.24,45.01 55.97,45.59 56.7,46.17 57.4,46.79 58.08,47.42 L 59.09,48.37 C 59.43,48.67 59.75,49.04 60.15,49.21 L 60.13,49.28 Z M 60.13,49.28" />
        </g>
        <g id="ranaTop6-group1255">
            <path id="ranaTop6-bezier1253" stroke="none" fill="rgb(0, 0, 0)" d="M 52.11,47.38 C 51.01,47.56 49.9,47.81 48.78,47.98 47.66,48.14 46.52,48.26 45.38,48.29 44.24,48.33 43.07,48.34 41.94,48.01 40.83,47.69 39.65,47.05 39.17,45.95 L 39.24,45.91 C 40.03,46.72 41.06,47.06 42.12,47.28 43.18,47.49 44.27,47.65 45.38,47.69 46.5,47.73 47.62,47.69 48.74,47.61 49.86,47.54 50.97,47.39 52.11,47.3 L 52.11,47.38 52.11,47.38 Z M 52.11,47.38" />
        </g>
        <g id="ranaTop6-group1256">
            <path id="ranaTop6-bezier1254" stroke="none" fill="rgb(0, 0, 0)" d="M 37.85,47.37 C 37.1,45.99 36.29,44.65 35.4,43.38 34.94,42.75 34.43,42.18 33.97,41.59 33.48,41.02 33.04,40.41 32.31,40.15 L 32.31,40.08 C 32.73,39.98 33.17,40.13 33.54,40.33 33.91,40.53 34.23,40.8 34.52,41.09 35.11,41.66 35.51,42.37 35.9,43.06 36.7,44.43 37.36,45.87 37.92,47.34 L 37.85,47.37 Z M 37.85,47.37" />
        </g>
        <g id="ranaTop6-group1257">
            <path id="ranaTop6-bezier1255" stroke="none" fill="rgb(0, 0, 0)" d="M 46.51,43.81 C 45.4,42.74 44.23,41.73 43.01,40.82 42.39,40.38 41.74,40 41.12,39.58 40.51,39.15 39.89,38.75 39.2,38.38 L 39.21,38.31 C 40.02,38.28 40.81,38.57 41.51,38.93 42.22,39.3 42.81,39.84 43.39,40.36 44.56,41.4 45.61,42.54 46.56,43.76 L 46.51,43.81 Z M 46.51,43.81" />
        </g>
        <g id="ranaTop6-group1258">
            <path id="ranaTop6-bezier1256" stroke="none" fill="rgb(0, 0, 0)" d="M 69.33,26.64 C 66.56,26.51 63.78,26.51 61.04,26.73 59.66,26.85 58.31,27.07 56.97,27.31 55.64,27.55 54.3,27.86 53.18,28.66 L 53.12,28.61 C 54,27.44 55.48,26.95 56.81,26.57 58.19,26.23 59.61,26.17 61,26.13 63.8,26.05 66.58,26.22 69.34,26.57 L 69.33,26.64 Z M 69.33,26.64" />
        </g>
        <g id="ranaTop6-group1259">
            <path id="ranaTop6-bezier1257" stroke="none" fill="rgb(0, 0, 0)" d="M 55.43,22.21 C 53.41,22.87 51.33,23.36 49.2,23.65 48.14,23.79 47.07,23.93 45.98,23.84 44.91,23.75 43.81,23.53 42.86,23.01 L 42.88,22.94 C 43.94,23.07 44.97,23.11 46.01,23.09 47.05,23.08 48.09,23.11 49.14,23.05 51.24,22.9 53.34,22.59 55.41,22.14 L 55.43,22.21 Z M 55.43,22.21" />
        </g>
        <g id="ranaTop6-group1260">
            <path id="ranaTop6-bezier1258" stroke="none" fill="rgb(0, 0, 0)" d="M 42.34,20.46 C 40.99,19.46 39.56,18.54 38.07,17.8 37.32,17.44 36.54,17.17 35.79,16.89 35.02,16.63 34.26,16.41 33.4,16.43 L 33.38,16.36 C 34.17,15.92 35.15,15.98 36,16.17 36.86,16.38 37.63,16.83 38.36,17.27 39.83,18.16 41.17,19.23 42.39,20.41 L 42.34,20.46 Z M 42.34,20.46" />
        </g>
        <g id="ranaTop6-group1261">
            <path id="ranaTop6-bezier1259" stroke="none" fill="rgb(0, 0, 0)" d="M 35.94,21.78 C 35.03,21.59 34.17,21.31 33.28,21.07 32.41,20.82 31.53,20.58 30.65,20.36 29.76,20.14 28.87,19.98 28,19.74 27.13,19.5 26.28,19.26 25.38,19.06 L 25.37,18.98 C 26.3,18.77 27.26,18.86 28.17,19.01 29.08,19.16 29.95,19.48 30.82,19.78 31.69,20.08 32.55,20.39 33.4,20.72 34.25,21.04 35.09,21.42 35.95,21.71 L 35.94,21.78 Z M 35.94,21.78" />
        </g>
        <g id="ranaTop6-group1262">
            <path id="ranaTop6-bezier1260" stroke="none" fill="rgb(0, 0, 0)" d="M 64.07,36.09 C 63.65,36.07 63.22,36.26 62.8,36.37 L 61.52,36.75 C 60.66,36.98 59.78,37.18 58.89,37.31 57.99,37.43 57.06,37.53 56.15,37.34 55.24,37.16 54.34,36.75 53.71,36.08 L 53.75,36.02 C 54.6,36.33 55.41,36.53 56.26,36.6 57.1,36.68 57.96,36.75 58.83,36.71 59.7,36.66 60.57,36.54 61.44,36.38 L 62.75,36.15 C 63.19,36.08 63.62,35.95 64.09,36.01 L 64.07,36.09 Z M 64.07,36.09" />
        </g>
        <g id="ranaTop6-group1263">
            <path id="ranaTop6-bezier1261" stroke="none" fill="rgb(0, 0, 0)" d="M 54.49,32.57 C 52.34,31.74 50.16,31 47.96,30.43 46.85,30.16 45.73,29.97 44.63,29.78 43.53,29.63 42.4,29.42 41.36,29.89 L 41.31,29.83 C 41.72,29.38 42.35,29.18 42.93,29.08 43.53,28.98 44.13,28.99 44.72,29.04 45.9,29.14 47.02,29.5 48.12,29.85 50.33,30.57 52.45,31.47 54.52,32.5 L 54.49,32.57 Z M 54.49,32.57" />
        </g>
        <g id="ranaTop6-group1264">
            <path id="ranaTop6-bezier1262" stroke="none" fill="rgb(0, 0, 0)" d="M 46.13,35.39 C 45.24,35.53 44.35,35.88 43.44,36.07 42.53,36.27 41.6,36.42 40.65,36.47 39.71,36.54 38.74,36.55 37.8,36.31 36.87,36.07 35.98,35.66 35.25,35.04 L 35.29,34.97 C 36.2,35.23 37.06,35.45 37.95,35.58 38.84,35.71 39.72,35.86 40.64,35.88 41.55,35.89 42.46,35.82 43.38,35.7 44.3,35.61 45.19,35.36 46.14,35.32 L 46.13,35.39 Z M 46.13,35.39" />
        </g>
        <g id="ranaTop6-group1265">
            <path id="ranaTop6-bezier1263" stroke="none" fill="rgb(0, 0, 0)" d="M 40.06,26.78 C 38.25,26.8 36.44,26.99 34.7,27.37 33.82,27.57 32.99,27.87 32.15,28.13 31.3,28.39 30.49,28.71 29.65,29.09 L 29.6,29.03 C 30.21,28.31 31.03,27.8 31.88,27.43 32.75,27.05 33.68,26.91 34.59,26.78 36.41,26.53 38.25,26.51 40.07,26.71 L 40.06,26.78 Z M 40.06,26.78" />
        </g>
        <g id="ranaTop6-group1266">
            <path id="ranaTop6-bezier1264" stroke="none" fill="rgb(0, 0, 0)" d="M 37.75,30.01 C 35.85,30.71 33.98,31.52 32.21,32.48 31.34,32.98 30.52,33.55 29.72,34.12 28.95,34.7 28.17,35.32 27.83,36.28 L 27.76,36.27 C 27.71,35.74 27.92,35.19 28.2,34.74 28.48,34.27 28.86,33.89 29.26,33.53 30.06,32.84 31.01,32.38 31.94,31.95 33.81,31.08 35.75,30.43 37.73,29.93 L 37.75,30.01 Z M 37.75,30.01" />
        </g>
        <g id="ranaTop6-group1267">
            <path id="ranaTop6-bezier1265" stroke="none" fill="rgb(0, 0, 0)" d="M 29.82,31.4 C 28.92,31.79 27.99,32 27.05,32.23 26.11,32.43 25.15,32.58 24.19,32.68 23.23,32.77 22.24,32.85 21.26,32.67 20.3,32.5 19.3,32.15 18.59,31.45 L 18.63,31.39 C 19.53,31.72 20.44,31.86 21.36,31.93 22.28,32 23.21,32.09 24.15,32.08 25.1,32.06 26.04,31.98 26.99,31.86 27.92,31.73 28.89,31.61 29.78,31.33 L 29.82,31.4 Z M 29.82,31.4" />
        </g>
        <g id="ranaTop6-group1268">
            <path id="ranaTop6-bezier1266" stroke="none" fill="rgb(0, 0, 0)" d="M 26.11,25.71 C 24.95,25.28 23.76,24.95 22.56,24.78 21.96,24.71 21.37,24.73 20.79,24.72 20.21,24.71 19.66,24.76 19.04,24.94 L 19,24.87 C 19.4,24.33 20.09,24.06 20.74,23.97 21.41,23.88 22.06,24.03 22.67,24.19 23.91,24.51 25.07,25.01 26.15,25.64 L 26.11,25.71 Z M 26.11,25.71" />
        </g>
        <g id="ranaTop6-group1269">
            <path id="ranaTop6-bezier1267" stroke="none" fill="rgb(0, 0, 0)" d="M 105.37,35.35 C 105.09,35.57 104.73,35.44 104.44,35.36 104.13,35.27 103.85,35.11 103.59,34.92 103.34,34.73 103.1,34.5 102.9,34.23 102.8,34.09 102.71,33.94 102.65,33.76 102.59,33.58 102.52,33.32 102.73,33.05 102.78,32.96 102.99,32.84 103.1,32.83 103.22,32.8 103.33,32.8 103.43,32.81 103.63,32.83 103.81,32.88 103.97,32.94 104.31,33.07 104.58,33.27 104.83,33.51 105.06,33.73 105.24,34.05 105.35,34.37 105.45,34.68 105.58,35.06 105.37,35.35 Z M 105.31,35.3 C 105.46,35.05 105.21,34.76 105.02,34.58 104.79,34.38 104.56,34.25 104.33,34.07 104.11,33.9 103.89,33.75 103.66,33.62 103.46,33.47 103.15,33.45 103.18,33.44 103.14,33.39 103.16,33.75 103.31,33.96 103.45,34.21 103.63,34.43 103.84,34.64 104.04,34.85 104.26,35.05 104.51,35.22 104.74,35.36 105.1,35.52 105.31,35.3 Z M 105.31,35.3" />
        </g>
        <g id="ranaTop6-group1270">
            <path id="ranaTop6-bezier1268" stroke="none" fill="rgb(0, 0, 0)" d="M 103.66,41.81 C 103.57,41.51 103.18,41.48 102.91,41.49 102.61,41.52 102.32,41.59 102.04,41.68 101.76,41.77 101.5,41.88 101.26,42.03 101.15,42.1 101.04,42.19 100.97,42.27 100.88,42.35 100.89,42.49 100.88,42.39 100.88,42.44 101.15,42.52 101.41,42.5 101.66,42.49 101.95,42.46 102.2,42.42 102.5,42.37 102.76,42.36 103.06,42.3 103.32,42.23 103.67,42.1 103.66,41.81 Z M 103.73,41.78 C 103.78,42.15 103.48,42.42 103.25,42.65 103.01,42.87 102.68,43.06 102.38,43.15 102.04,43.24 101.71,43.28 101.36,43.24 101.18,43.22 101,43.18 100.82,43.1 100.72,43.06 100.63,43.01 100.53,42.92 100.48,42.88 100.44,42.84 100.39,42.76 100.33,42.66 100.33,42.62 100.32,42.59 100.25,42.18 100.46,42.03 100.58,41.89 100.72,41.76 100.87,41.67 101.03,41.6 101.33,41.45 101.65,41.37 101.96,41.32 102.28,41.27 102.61,41.27 102.92,41.34 103.22,41.4 103.59,41.46 103.73,41.78 Z M 103.73,41.78" />
        </g>
        <g id="ranaTop6-group1271">
            <path id="ranaTop6-bezier1269" stroke="none" fill="rgb(0, 0, 0)" d="M 101.82,40.47 C 101.54,40.56 101.29,40.72 101.05,40.89 100.81,41.05 100.59,41.24 100.41,41.44 100.23,41.65 100.13,41.89 100,42.07 99.86,42.25 99.74,42.44 99.62,42.77 L 99.55,42.8 C 99.26,42.56 99.2,42.11 99.32,41.75 99.44,41.38 99.75,41.16 100.02,40.98 100.57,40.62 101.18,40.39 101.81,40.39 L 101.82,40.47 Z M 101.82,40.47" />
        </g>
        <g id="ranaTop6-group1272">
            <path id="ranaTop6-bezier1270" stroke="none" fill="rgb(0, 0, 0)" d="M 103.34,35.44 C 102.77,35.31 102.23,35.04 101.79,34.58 101.57,34.36 101.33,34.08 101.3,33.73 101.28,33.38 101.39,33.03 101.66,32.8 L 101.73,32.82 C 101.86,33.14 101.94,33.36 102.04,33.57 102.13,33.76 102.15,34 102.27,34.22 102.51,34.65 102.91,35.06 103.37,35.37 L 103.34,35.44 Z M 103.34,35.44" />
        </g>
        <g id="ranaTop6-group1273">
            <path id="ranaTop6-bezier1271" stroke="none" fill="rgb(0, 0, 0)" d="M 86.06,52.3 C 86.24,52.55 86.37,52.85 86.37,53.2 86.36,53.55 86.15,53.9 85.88,54.13 85.61,54.36 85.31,54.55 84.98,54.57 84.66,54.59 84.34,54.54 84.03,54.36 L 84.03,54.28 C 84.31,54.06 84.57,53.95 84.82,53.84 85.06,53.73 85.32,53.73 85.54,53.63 85.75,53.53 85.92,53.37 86,53.14 86.09,52.91 86.08,52.61 85.99,52.34 L 86.06,52.3 Z M 86.06,52.3" />
        </g>
        <g id="ranaTop6-group1274">
            <path id="ranaTop6-bezier1272" stroke="none" fill="rgb(0, 0, 0)" d="M 85.63,55.03 C 85.59,55.43 85.41,55.86 85.02,56.09 84.63,56.33 84.14,56.27 83.75,56.14 82.95,55.83 82.32,55.34 81.64,54.92 80.97,54.49 80.31,54.13 79.64,53.96 78.96,53.77 78.19,53.83 77.37,53.86 L 77.35,53.78 C 78.05,53.37 78.89,53.1 79.79,53.22 80.7,53.35 81.38,53.95 81.99,54.43 82.62,54.91 83.22,55.46 83.89,55.79 84.22,55.94 84.59,56.04 84.92,55.9 85.25,55.76 85.47,55.39 85.56,55.02 L 85.63,55.03 Z M 85.63,55.03" />
        </g>
        <g id="ranaTop6-group1275">
            <path id="ranaTop6-bezier1273" stroke="none" fill="rgb(0, 0, 0)" d="M 91.25,32.57 C 89.86,32.64 88.45,32.46 87.1,32.02 86.43,31.8 85.74,31.55 85.17,31.11 84.6,30.67 84.11,30.11 83.81,29.45 L 83.87,29.4 C 84.47,29.79 85.01,30.16 85.59,30.48 86.16,30.81 86.71,31.18 87.32,31.46 88.55,32 89.88,32.35 91.25,32.5 L 91.25,32.57 Z M 91.25,32.57" />
        </g>
        <g id="ranaTop6-group1276">
            <path id="ranaTop6-bezier1274" stroke="none" fill="rgb(0, 0, 0)" d="M 85.1,51.08 C 84.21,50.99 83.3,50.99 82.4,51 81.5,51 80.6,51.04 79.72,51.13 78.83,51.23 77.96,51.42 77.11,51.59 76.27,51.78 75.42,51.97 74.78,52.61 L 74.72,52.57 C 74.86,52.11 75.23,51.74 75.63,51.47 76.02,51.19 76.47,51.01 76.92,50.86 77.83,50.58 78.76,50.55 79.68,50.53 80.6,50.52 81.51,50.55 82.42,50.62 83.33,50.71 84.23,50.81 85.12,51.01 L 85.1,51.08 Z M 85.1,51.08" />
        </g>
    </g>
</svg>
