<?xml version="1.0" encoding="UTF-8"?>
<!DOCTYPE svg PUBLIC "-//W3C//DTD SVG 1.1//EN" "http://www.w3.org/Graphics/SVG/1.1/DTD/svg11.dtd">
<svg version="1.1" xmlns="http://www.w3.org/2000/svg" xmlns:xlink="http://www.w3.org/1999/xlink" width="120" height="60"  xml:space="preserve" id="ranaSideLeft4">
    <!-- Generated by PaintCode - http://www.paintcodeapp.com -->
    <g id="ranaSideLeft4-group">
        <g id="ranaSideLeft4-group339">
            <path id="ranaSideLeft4-bezier338" stroke="none" fill="rgb(0, 0, 0)" d="M 49.06,50.76 C 48.45,51.8 47.81,52.82 47.14,53.8 46.79,54.28 46.4,54.72 46.08,55.2 45.75,55.69 45.46,56.17 45.03,56.6 L 45.06,56.67 C 45.73,56.58 46.25,56.11 46.67,55.67 47.09,55.21 47.36,54.65 47.65,54.11 48.22,53.04 48.71,51.93 49.12,50.79 L 49.06,50.76 Z M 49.06,50.76" />
        </g>
        <g id="ranaSideLeft4-group340">
            <path id="ranaSideLeft4-bezier339" stroke="none" fill="rgb(0, 0, 0)" d="M 44.76,55.06 C 44.55,55.48 44.32,55.89 44.06,56.28 43.82,56.67 43.55,57.07 43.25,57.37 42.95,57.65 42.64,57.66 42.22,57.7 41.8,57.75 41.28,57.74 40.8,57.95 L 40.8,58.02 C 41.27,58.23 41.68,58.39 42.21,58.45 42.73,58.54 43.41,58.23 43.7,57.76 44.01,57.33 44.21,56.9 44.4,56.45 44.57,56 44.71,55.54 44.83,55.08 L 44.76,55.06 Z M 44.76,55.06" />
        </g>
        <g id="ranaSideLeft4-group341">
            <path id="ranaSideLeft4-bezier340" stroke="none" fill="rgb(0, 0, 0)" d="M 40.29,56.86 C 39.92,56.83 39.54,56.86 39.15,57 38.96,57.06 38.72,57.13 38.6,57.36 38.49,57.57 38.47,57.89 38.68,58.08 L 38.75,58.08 C 38.97,57.91 39.08,57.89 39.19,57.83 39.29,57.77 39.34,57.63 39.45,57.52 39.68,57.31 39.98,57.11 40.3,56.94 L 40.29,56.86 Z M 40.29,56.86" />
        </g>
        <g id="ranaSideLeft4-group342">
            <path id="ranaSideLeft4-bezier341" stroke="none" fill="rgb(0, 0, 0)" d="M 38.12,56.87 C 37.8,56.88 37.48,56.94 37.17,57.1 37.02,57.18 36.82,57.25 36.74,57.46 36.67,57.65 36.68,57.92 36.89,58.08 L 36.96,58.08 C 37.17,57.94 37.28,57.92 37.37,57.87 37.46,57.82 37.47,57.68 37.55,57.57 37.7,57.36 37.92,57.14 38.14,56.94 L 38.12,56.87 Z M 38.12,56.87" />
        </g>
        <g id="ranaSideLeft4-group343">
            <path id="ranaSideLeft4-bezier342" stroke="none" fill="rgb(0, 0, 0)" d="M 38.44,56.02 C 38.81,55.85 39.2,55.73 39.59,55.7 39.79,55.69 39.98,55.7 40.16,55.74 40.25,55.76 40.38,55.79 40.48,55.8 40.61,55.8 40.73,55.79 40.84,55.77 41.72,55.54 42.4,54.99 42.99,54.35 43.28,54.04 43.56,53.64 43.67,53.16 43.78,52.72 43.8,52.3 43.82,51.89 43.83,51.06 43.71,50.27 43.83,49.46 L 43.76,49.43 C 43.48,49.77 43.36,50.21 43.27,50.61 43.17,51.03 43.12,51.44 43.07,51.84 43.03,52.24 42.99,52.64 42.94,53.01 42.91,53.34 42.75,53.67 42.52,53.98 42.06,54.58 41.45,55.16 40.75,55.41 40.48,55.55 39.98,55.35 39.56,55.48 39.14,55.57 38.76,55.74 38.4,55.96 L 38.44,56.02 Z M 38.44,56.02" />
        </g>
        <g id="ranaSideLeft4-group344">
            <path id="ranaSideLeft4-bezier343" stroke="none" fill="rgb(0, 0, 0)" d="M 31.57,56.07 C 31.58,56.47 31.64,56.86 31.8,57.25 31.87,57.45 31.93,57.69 32.15,57.82 32.35,57.95 32.7,58.02 32.91,57.8 L 32.91,57.73 C 32.74,57.52 32.73,57.39 32.66,57.26 32.59,57.14 32.44,57.07 32.31,56.94 32.08,56.68 31.86,56.37 31.65,56.05 L 31.57,56.07 Z M 31.57,56.07" />
        </g>
        <g id="ranaSideLeft4-group345">
            <path id="ranaSideLeft4-bezier344" stroke="none" fill="rgb(0, 0, 0)" d="M 32.23,55.12 C 32.28,55.49 32.4,55.85 32.62,56.19 32.73,56.36 32.85,56.58 33.09,56.64 33.32,56.71 33.63,56.67 33.78,56.43 L 33.77,56.35 C 33.57,56.18 33.51,56.07 33.43,55.97 33.35,55.88 33.2,55.87 33.06,55.78 32.8,55.6 32.54,55.35 32.29,55.08 L 32.23,55.12 Z M 32.23,55.12" />
        </g>
        <g id="ranaSideLeft4-group346">
            <path id="ranaSideLeft4-bezier345" stroke="none" fill="rgb(0, 0, 0)" d="M 33.56,55.12 C 33.93,54.64 34.28,54.08 34.28,53.38 34.28,53.22 34.22,52.99 34.2,52.89 34.19,52.79 34.18,52.65 34.2,52.52 34.23,52.26 34.33,52 34.45,51.75 34.7,51.27 35.04,50.84 35.42,50.45 35.81,50.06 36.28,49.75 36.84,49.48 L 36.83,49.41 C 36.2,49.33 35.52,49.52 34.97,49.9 34.42,50.29 34.03,50.87 33.83,51.5 33.72,51.82 33.65,52.15 33.65,52.49 33.64,52.67 33.65,52.83 33.71,53.03 33.77,53.21 33.81,53.27 33.84,53.42 33.92,53.94 33.77,54.55 33.5,55.08 L 33.56,55.12 Z M 33.56,55.12" />
        </g>
        <g id="ranaSideLeft4-group347">
            <path id="ranaSideLeft4-bezier346" stroke="none" fill="rgb(0, 0, 0)" d="M 31.23,55.48 C 31.13,54.99 31.05,54.5 31,54.02 30.95,53.53 30.92,53.03 31,52.56 31.03,52.33 31.16,52.16 31.23,51.87 31.3,51.6 31.31,51.35 31.31,51.09 31.29,50.56 31.19,50.07 31.04,49.57 L 31.04,49.57 31.03,49.54 C 30.6,48.61 30.33,47.48 30.68,46.58 30.85,46.13 31.2,45.79 31.63,45.57 32.05,45.35 32.58,45.24 33.1,45.13 34.14,44.92 35.2,44.79 36.28,44.72 36.82,44.69 37.36,44.65 37.92,44.61 38.45,44.55 39.07,44.52 39.53,44.14 L 39.48,44.08 C 39,44.31 38.45,44.21 37.91,44.2 37.37,44.16 36.82,44.1 36.27,44.1 35.16,44.06 34.03,44.11 32.93,44.38 32.38,44.51 31.84,44.66 31.3,44.97 30.78,45.28 30.32,45.78 30.13,46.37 29.75,47.58 30.14,48.74 30.65,49.74 L 30.64,49.71 C 30.79,50.15 30.91,50.63 30.95,51.1 30.97,51.34 30.97,51.58 30.93,51.8 30.9,52 30.76,52.26 30.74,52.52 30.69,53.04 30.75,53.54 30.83,54.04 30.91,54.53 31.02,55.02 31.15,55.49 L 31.23,55.48 Z M 31.23,55.48" />
        </g>
        <g id="ranaSideLeft4-group555">
            <path id="ranaSideLeft4-bezier554" stroke="none" fill="rgb(0, 0, 0)" d="M 29.74,25.58 C 30.8,25.51 31.87,25.49 32.92,25.52 33.45,25.54 33.97,25.63 34.48,25.63 35,25.62 35.51,25.61 36.07,25.57 L 36.09,25.5 C 35.64,25.14 35.08,24.97 34.54,24.88 33.99,24.78 33.44,24.86 32.9,24.92 31.82,25.02 30.76,25.22 29.73,25.5 L 29.74,25.58 Z M 29.74,25.58" />
        </g>
        <g id="ranaSideLeft4-group556">
            <path id="ranaSideLeft4-bezier555" stroke="none" fill="rgb(0, 0, 0)" d="M 34.57,31.47 C 35.39,31.66 36.15,32.01 36.86,32.42 37.21,32.63 37.52,32.9 37.88,33.08 38.25,33.26 38.62,33.44 39.07,33.56 L 39.12,33.5 C 38.93,33.07 38.63,32.74 38.29,32.45 37.95,32.17 37.52,32.03 37.11,31.88 36.3,31.57 35.44,31.37 34.57,31.4 L 34.57,31.47 Z M 34.57,31.47" />
        </g>
        <g id="ranaSideLeft4-group557">
            <path id="ranaSideLeft4-bezier556" stroke="none" fill="rgb(0, 0, 0)" d="M 36.82,29.31 C 38.19,29.86 39.53,30.48 40.8,31.18 41.44,31.54 42.03,31.96 42.65,32.32 43.27,32.67 43.87,33.04 44.5,33.46 L 44.56,33.41 C 44.23,32.71 43.66,32.15 43.06,31.69 42.46,31.23 41.75,30.94 41.07,30.64 39.7,30.04 38.29,29.58 36.84,29.23 L 36.82,29.31 Z M 36.82,29.31" />
        </g>
        <g id="ranaSideLeft4-group558">
            <path id="ranaSideLeft4-bezier557" stroke="none" fill="rgb(0, 0, 0)" d="M 104.88,37.51 C 105.58,38.05 106.26,38.58 106.94,39.12 107.27,39.4 107.57,39.72 107.93,39.94 108.3,40.16 108.67,40.36 109.12,40.52 L 109.18,40.47 C 109.01,40.01 108.71,39.66 108.39,39.35 108.07,39.03 107.66,38.84 107.28,38.63 106.51,38.19 105.73,37.8 104.92,37.45 L 104.88,37.51 Z M 104.88,37.51" />
        </g>
        <g id="ranaSideLeft4-group559">
            <path id="ranaSideLeft4-bezier558" stroke="none" fill="rgb(0, 0, 0)" d="M 108.11,38.05 C 108.86,38.44 109.61,38.84 110.34,39.24 110.71,39.46 111.05,39.71 111.44,39.86 111.83,40 112.23,40.13 112.69,40.18 L 112.73,40.12 C 112.48,39.72 112.14,39.43 111.78,39.19 111.42,38.95 111,38.84 110.59,38.7 109.79,38.41 108.97,38.16 108.13,37.97 L 108.11,38.05 Z M 108.11,38.05" />
        </g>
        <g id="ranaSideLeft4-group560">
            <path id="ranaSideLeft4-bezier559" stroke="none" fill="rgb(0, 0, 0)" d="M 109.78,36.87 C 110.5,36.77 111.23,36.75 111.92,36.82 112.27,36.86 112.59,36.97 112.92,36.99 113.26,37.02 113.58,37.05 113.99,37.06 L 114.03,36.99 C 113.82,36.62 113.46,36.4 113.08,36.26 112.7,36.13 112.3,36.18 111.92,36.22 111.16,36.29 110.43,36.49 109.76,36.8 L 109.78,36.87 Z M 109.78,36.87" />
        </g>
        <g id="ranaSideLeft4-group561">
            <path id="ranaSideLeft4-bezier560" stroke="none" fill="rgb(0, 0, 0)" d="M 46.26,32.03 C 47.55,32.25 48.81,32.64 49.97,33.18 50.55,33.45 51.08,33.81 51.63,34.11 L 53.33,35.06 53.39,35 C 53.07,34.39 52.59,33.88 52.04,33.47 51.49,33.06 50.83,32.83 50.2,32.62 48.92,32.18 47.59,31.96 46.27,31.96 L 46.26,32.03 Z M 46.26,32.03" />
        </g>
        <g id="ranaSideLeft4-group562">
            <path id="ranaSideLeft4-bezier561" stroke="none" fill="rgb(0, 0, 0)" d="M 54.11,31.57 C 55.67,31.86 57.2,32.25 58.67,32.75 59.41,33.01 60.1,33.36 60.81,33.64 61.51,33.94 62.19,34.25 62.86,34.7 L 62.92,34.65 C 62.54,33.9 61.84,33.37 61.14,32.97 60.42,32.57 59.62,32.37 58.85,32.18 57.29,31.79 55.71,31.57 54.12,31.49 L 54.11,31.57 Z M 54.11,31.57" />
        </g>
        <g id="ranaSideLeft4-group563">
            <path id="ranaSideLeft4-bezier562" stroke="none" fill="rgb(0, 0, 0)" d="M 56.85,33.46 C 57.93,34.03 59,34.64 60,35.31 60.5,35.65 60.96,36.04 61.44,36.37 61.93,36.71 62.41,37.02 62.85,37.46 L 62.92,37.43 C 62.82,36.76 62.37,36.22 61.91,35.78 61.44,35.35 60.86,35.07 60.31,34.79 59.2,34.22 58.05,33.76 56.87,33.39 L 56.85,33.46 Z M 56.85,33.46" />
        </g>
        <g id="ranaSideLeft4-group564">
            <path id="ranaSideLeft4-bezier563" stroke="none" fill="rgb(0, 0, 0)" d="M 65.52,35.47 C 66.38,36.11 67.19,36.81 67.94,37.55 68.31,37.93 68.63,38.35 69.01,38.7 69.4,39.06 69.79,39.4 70.25,39.74 L 70.32,39.7 C 70.19,39.13 69.9,38.64 69.57,38.2 69.23,37.76 68.77,37.43 68.33,37.1 67.47,36.43 66.54,35.86 65.56,35.4 L 65.52,35.47 Z M 65.52,35.47" />
        </g>
        <g id="ranaSideLeft4-group565">
            <path id="ranaSideLeft4-bezier564" stroke="none" fill="rgb(0, 0, 0)" d="M 68.92,36.38 C 70.07,37.13 71.29,37.79 72.57,38.32 73.21,38.59 73.86,38.88 74.56,38.99 75.25,39.1 75.98,39.12 76.68,38.92 L 76.68,38.85 74.73,38.26 C 74.09,38.07 73.43,37.95 72.78,37.76 71.48,37.36 70.2,36.87 68.96,36.31 L 68.92,36.38 Z M 68.92,36.38" />
        </g>
        <g id="ranaSideLeft4-group566">
            <path id="ranaSideLeft4-bezier565" stroke="none" fill="rgb(0, 0, 0)" d="M 76.67,38.05 C 78.13,38.68 79.59,39.32 81.03,39.99 81.75,40.33 82.44,40.73 83.16,41.03 83.86,41.36 84.66,41.57 85.23,42.06 L 85.3,42.04 C 85.19,41.59 84.82,41.31 84.52,41.04 84.2,40.78 83.85,40.56 83.5,40.36 82.79,39.95 82.02,39.71 81.26,39.44 79.76,38.88 78.23,38.4 76.69,37.98 L 76.67,38.05 Z M 76.67,38.05" />
        </g>
        <g id="ranaSideLeft4-group567">
            <path id="ranaSideLeft4-bezier566" stroke="none" fill="rgb(0, 0, 0)" d="M 81.88,38.22 C 82.47,38.54 83.03,39.03 83.61,39.42 84.2,39.83 84.8,40.22 85.41,40.59 86.02,40.96 86.64,41.36 87.35,41.57 88.05,41.77 88.83,41.91 89.56,41.67 L 89.55,41.59 C 88.85,41.42 88.24,41.15 87.61,40.87 86.99,40.58 86.33,40.36 85.69,40.06 85.06,39.77 84.43,39.44 83.81,39.1 83.17,38.79 82.59,38.4 81.89,38.14 L 81.88,38.22 Z M 81.88,38.22" />
        </g>
        <g id="ranaSideLeft4-group568">
            <path id="ranaSideLeft4-bezier567" stroke="none" fill="rgb(0, 0, 0)" d="M 86.35,39.37 C 87.46,39.66 88.56,39.95 89.65,40.27 90.19,40.43 90.72,40.65 91.26,40.76 91.81,40.88 92.36,40.94 92.91,41.09 L 92.96,41.03 C 92.59,40.51 92.01,40.26 91.48,40.04 90.93,39.82 90.35,39.77 89.78,39.68 88.65,39.49 87.51,39.37 86.37,39.29 L 86.35,39.37 Z M 86.35,39.37" />
        </g>
        <g id="ranaSideLeft4-group569">
            <path id="ranaSideLeft4-bezier568" stroke="none" fill="rgb(0, 0, 0)" d="M 80.96,34.71 L 85.23,36.45 C 85.94,36.75 86.62,37.1 87.34,37.34 88.07,37.59 88.79,37.81 89.53,38.04 L 89.58,37.98 C 89.03,37.38 88.32,37 87.63,36.65 86.93,36.31 86.18,36.11 85.44,35.88 83.97,35.41 82.48,35 80.98,34.64 L 80.96,34.71 Z M 80.96,34.71" />
        </g>
        <g id="ranaSideLeft4-group570">
            <path id="ranaSideLeft4-bezier569" stroke="none" fill="rgb(0, 0, 0)" d="M 91.01,37.06 L 95.23,38.17 C 95.93,38.36 96.62,38.61 97.33,38.73 98.04,38.86 98.75,38.96 99.5,39.02 L 99.53,38.95 C 98.91,38.5 98.21,38.24 97.51,38.01 96.81,37.78 96.08,37.7 95.36,37.59 93.92,37.34 92.47,37.15 91.02,36.99 L 91.01,37.06 Z M 91.01,37.06" />
        </g>
        <g id="ranaSideLeft4-group571">
            <path id="ranaSideLeft4-bezier570" stroke="none" fill="rgb(0, 0, 0)" d="M 98.9,36.81 C 100.09,37.09 101.27,37.42 102.41,37.82 102.97,38.03 103.5,38.3 104.04,38.5 104.58,38.73 105.12,38.9 105.53,39.34 L 105.6,39.32 C 105.59,38.98 105.38,38.67 105.15,38.42 104.92,38.18 104.65,37.99 104.37,37.83 103.81,37.5 103.18,37.38 102.57,37.24 101.36,36.96 100.14,36.8 98.91,36.73 L 98.9,36.81 Z M 98.9,36.81" />
        </g>
        <g id="ranaSideLeft4-group572">
            <path id="ranaSideLeft4-bezier571" stroke="none" fill="rgb(0, 0, 0)" d="M 106.54,33.46 C 107.72,33.67 108.9,33.9 110.06,34.14 110.64,34.27 111.21,34.45 111.79,34.52 112.38,34.6 112.95,34.64 113.56,34.71 L 113.59,34.64 C 113.13,34.19 112.52,33.97 111.95,33.79 111.36,33.61 110.75,33.59 110.15,33.54 108.95,33.43 107.75,33.39 106.55,33.39 L 106.54,33.46 Z M 106.54,33.46" />
        </g>
        <g id="ranaSideLeft4-group573">
            <path id="ranaSideLeft4-bezier572" stroke="none" fill="rgb(0, 0, 0)" d="M 103.99,28.31 C 105.31,28.39 106.64,28.48 107.95,28.58 108.61,28.64 109.26,28.75 109.92,28.76 110.57,28.78 111.22,28.72 111.87,28.79 L 111.91,28.72 C 111.64,28.47 111.3,28.35 110.97,28.24 110.65,28.13 110.31,28.07 109.98,28.01 109.31,27.91 108.64,27.96 107.97,27.98 106.64,28.01 105.31,28.1 103.99,28.23 L 103.99,28.31 Z M 103.99,28.31" />
        </g>
        <g id="ranaSideLeft4-group574">
            <path id="ranaSideLeft4-bezier573" stroke="none" fill="rgb(0, 0, 0)" d="M 98.11,23.96 C 99.18,23.53 100.25,23.12 101.32,22.77 101.86,22.59 102.42,22.48 102.94,22.28 103.46,22.08 103.96,21.86 104.52,21.63 L 104.51,21.56 C 103.92,21.38 103.3,21.45 102.73,21.56 102.15,21.68 101.62,21.96 101.1,22.21 100.05,22.7 99.04,23.27 98.08,23.9 L 98.11,23.96 Z M 98.11,23.96" />
        </g>
        <g id="ranaSideLeft4-group575">
            <path id="ranaSideLeft4-bezier574" stroke="none" fill="rgb(0, 0, 0)" d="M 90.17,19.13 L 93.79,17.85 C 94.4,17.64 95.02,17.49 95.6,17.23 96.18,16.97 96.73,16.66 97.32,16.4 L 97.32,16.33 C 96.63,16.19 95.97,16.36 95.35,16.52 94.72,16.7 94.15,17.01 93.57,17.29 92.4,17.84 91.26,18.43 90.14,19.06 L 90.17,19.13 Z M 90.17,19.13" />
        </g>
        <g id="ranaSideLeft4-group576">
            <path id="ranaSideLeft4-bezier575" stroke="none" fill="rgb(0, 0, 0)" d="M 80.99,16.4 C 82.05,15.72 83.08,15 84.08,14.24 84.58,13.86 85.11,13.51 85.54,13.03 85.75,12.79 85.95,12.54 86.12,12.26 86.26,11.98 86.51,11.67 86.4,11.27 L 86.33,11.3 C 86.05,11.76 85.45,12.09 85.01,12.49 84.54,12.88 84.13,13.35 83.69,13.78 82.79,14.64 81.87,15.49 80.95,16.34 L 80.99,16.4 Z M 80.99,16.4" />
        </g>
        <g id="ranaSideLeft4-group577">
            <path id="ranaSideLeft4-bezier576" stroke="none" fill="rgb(0, 0, 0)" d="M 72.04,13.86 C 72.94,13.34 73.82,12.78 74.66,12.16 75.09,11.86 75.54,11.58 75.89,11.18 76.23,10.78 76.56,10.34 76.71,9.79 L 76.65,9.75 C 76.18,10.04 75.78,10.32 75.37,10.64 74.97,10.95 74.65,11.34 74.28,11.7 73.53,12.41 72.77,13.1 72,13.8 L 72.04,13.86 Z M 72.04,13.86" />
        </g>
        <g id="ranaSideLeft4-group578">
            <path id="ranaSideLeft4-bezier577" stroke="none" fill="rgb(0, 0, 0)" d="M 62.91,13.86 C 63.88,13.44 64.83,12.95 65.73,12.36 66.18,12.08 66.66,11.8 67.02,11.37 67.2,11.15 67.37,10.92 67.48,10.65 67.6,10.38 67.68,10.06 67.58,9.77 L 67.51,9.77 C 67.26,10.24 66.87,10.5 66.49,10.84 66.11,11.15 65.76,11.54 65.37,11.88 64.58,12.55 63.73,13.18 62.87,13.79 L 62.91,13.86 Z M 62.91,13.86" />
        </g>
        <g id="ranaSideLeft4-group579">
            <path id="ranaSideLeft4-bezier578" stroke="none" fill="rgb(0, 0, 0)" d="M 59.9,14.27 C 60.63,13.73 61.32,13.13 61.92,12.42 62.22,12.07 62.55,11.7 62.7,11.22 62.84,10.77 62.87,10.12 62.46,9.75 L 62.4,9.79 C 62.38,10.26 62.19,10.57 62,10.94 61.81,11.29 61.65,11.69 61.43,12.07 60.97,12.81 60.43,13.53 59.85,14.21 L 59.9,14.27 Z M 59.9,14.27" />
        </g>
        <g id="ranaSideLeft4-group580">
            <path id="ranaSideLeft4-bezier579" stroke="none" fill="rgb(0, 0, 0)" d="M 54.15,14.57 C 54.88,13.89 55.62,13.21 56.36,12.56 56.74,12.25 57.15,11.97 57.49,11.63 57.84,11.28 58.14,10.92 58.51,10.56 L 58.49,10.49 C 57.92,10.49 57.44,10.77 57.01,11.05 56.58,11.34 56.27,11.76 55.94,12.14 55.27,12.9 54.66,13.69 54.09,14.52 L 54.15,14.57 Z M 54.15,14.57" />
        </g>
        <g id="ranaSideLeft4-group581">
            <path id="ranaSideLeft4-bezier580" stroke="none" fill="rgb(0, 0, 0)" d="M 46.28,14.88 C 47.7,14.18 49.09,13.4 50.42,12.52 51.08,12.08 51.77,11.65 52.33,11.06 52.61,10.76 52.88,10.45 53.09,10.08 53.29,9.73 53.5,9.3 53.4,8.86 L 53.32,8.86 C 53.05,9.57 52.39,10.01 51.82,10.51 51.23,10.99 50.67,11.54 50.06,12.03 48.84,13.01 47.55,13.93 46.25,14.82 L 46.28,14.88 Z M 46.28,14.88" />
        </g>
        <g id="ranaSideLeft4-group582">
            <path id="ranaSideLeft4-bezier581" stroke="none" fill="rgb(0, 0, 0)" d="M 42.57,12.98 C 43.32,12.42 44.04,11.84 44.74,11.21 45.09,10.91 45.48,10.62 45.75,10.24 45.89,10.04 46.02,9.84 46.12,9.61 46.22,9.39 46.34,9.15 46.3,8.86 L 46.23,8.85 C 45.9,9.16 45.52,9.42 45.19,9.74 44.85,10.05 44.6,10.44 44.31,10.8 L 42.52,12.93 42.57,12.98 Z M 42.57,12.98" />
        </g>
        <g id="ranaSideLeft4-group583">
            <path id="ranaSideLeft4-bezier582" stroke="none" fill="rgb(0, 0, 0)" d="M 37.11,14.58 L 39.89,13.02 C 40.36,12.77 40.85,12.57 41.28,12.27 41.72,11.97 42.11,11.63 42.55,11.32 L 42.54,11.25 C 41.93,11.17 41.4,11.4 40.91,11.61 40.41,11.84 40,12.19 39.57,12.51 38.71,13.15 37.87,13.81 37.06,14.52 L 37.11,14.58 Z M 37.11,14.58" />
        </g>
        <g id="ranaSideLeft4-group584">
            <path id="ranaSideLeft4-bezier583" stroke="none" fill="rgb(0, 0, 0)" d="M 28.48,17.08 C 29.44,16.44 30.37,15.74 31.24,14.97 31.68,14.59 32.15,14.21 32.49,13.72 32.81,13.23 33.14,12.66 33.1,12.02 L 33.03,12 C 32.68,12.47 32.29,12.84 31.91,13.25 31.52,13.64 31.19,14.11 30.82,14.54 30.06,15.39 29.25,16.21 28.43,17.02 L 28.48,17.08 Z M 28.48,17.08" />
        </g>
        <g id="ranaSideLeft4-group585">
            <path id="ranaSideLeft4-bezier584" stroke="none" fill="rgb(0, 0, 0)" d="M 82.91,18.71 C 84.1,18.01 85.25,17.24 86.34,16.38 86.89,15.96 87.46,15.54 87.91,14.99 88.34,14.45 88.77,13.82 88.86,13.08 L 88.79,13.05 C 88.34,13.59 87.85,14.02 87.36,14.48 86.87,14.93 86.43,15.45 85.94,15.93 84.96,16.87 83.93,17.77 82.87,18.65 L 82.91,18.71 Z M 82.91,18.71" />
        </g>
        <g id="ranaSideLeft4-group586">
            <path id="ranaSideLeft4-bezier585" stroke="none" fill="rgb(0, 0, 0)" d="M 94.38,21.19 C 95.09,20.8 95.86,20.52 96.62,20.32 97.01,20.23 97.4,20.2 97.77,20.08 98.14,19.95 98.52,19.82 98.91,19.59 L 98.91,19.51 C 98.48,19.33 98.05,19.31 97.62,19.34 97.19,19.38 96.8,19.58 96.42,19.76 95.65,20.1 94.93,20.56 94.33,21.13 L 94.38,21.19 Z M 94.38,21.19" />
        </g>
        <g id="ranaSideLeft4-group587">
            <path id="ranaSideLeft4-bezier586" stroke="none" fill="rgb(0, 0, 0)" d="M 96.21,26.18 C 97.93,25.88 99.66,25.61 101.39,25.4 102.25,25.3 103.12,25.26 103.97,25.14 104.82,25.04 105.66,24.89 106.53,24.89 L 106.56,24.82 C 105.73,24.4 104.78,24.39 103.91,24.4 103.02,24.42 102.15,24.63 101.29,24.8 99.57,25.15 97.87,25.6 96.19,26.11 L 96.21,26.18 Z M 96.21,26.18" />
        </g>
        <g id="ranaSideLeft4-group588">
            <path id="ranaSideLeft4-bezier587" stroke="none" fill="rgb(0, 0, 0)" d="M 102.23,30.39 C 103.46,30.72 104.7,31 105.95,31.21 106.58,31.32 107.21,31.46 107.86,31.44 108.5,31.41 109.17,31.34 109.77,31.03 L 109.76,30.96 C 109.11,30.86 108.51,30.77 107.89,30.69 107.28,30.61 106.65,30.64 106.02,30.61 104.76,30.54 103.5,30.44 102.24,30.32 L 102.23,30.39 Z M 102.23,30.39" />
        </g>
        <g id="ranaSideLeft4-group589">
            <path id="ranaSideLeft4-bezier588" stroke="none" fill="rgb(0, 0, 0)" d="M 65.52,33.14 C 66.87,33.86 68.29,34.47 69.76,34.96 70.49,35.21 71.23,35.48 72,35.57 72.78,35.65 73.58,35.67 74.35,35.47 L 74.35,35.4 C 73.59,35.18 72.87,35.01 72.14,34.83 71.41,34.65 70.66,34.55 69.92,34.39 68.45,34.03 66.99,33.59 65.55,33.07 L 65.52,33.14 Z M 65.52,33.14" />
        </g>
        <g id="ranaSideLeft4-group590">
            <path id="ranaSideLeft4-bezier589" stroke="none" fill="rgb(0, 0, 0)" d="M 72.04,15.57 C 73.52,15.08 75.01,14.63 76.5,14.23 77.25,14.03 78.01,13.9 78.74,13.69 79.48,13.48 80.19,13.25 80.97,13.1 L 80.98,13.03 C 80.19,12.76 79.35,12.84 78.58,12.96 77.79,13.08 77.06,13.38 76.32,13.65 74.84,14.19 73.41,14.81 72.01,15.5 L 72.04,15.57 Z M 72.04,15.57" />
        </g>
        <g id="ranaSideLeft4-group591">
            <path id="ranaSideLeft4-bezier590" stroke="none" fill="rgb(0, 0, 0)" d="M 79.06,23.97 C 80.96,23.73 82.86,23.44 84.74,23.09 85.68,22.92 86.64,22.78 87.56,22.49 88.02,22.33 88.48,22.18 88.92,21.97 89.36,21.76 89.82,21.56 90.17,21.19 L 90.13,21.13 C 89.24,21.42 88.29,21.54 87.37,21.76 86.44,21.96 85.53,22.25 84.61,22.5 82.76,22.98 80.91,23.44 79.05,23.89 L 79.06,23.97 Z M 79.06,23.97" />
        </g>
        <g id="ranaSideLeft4-group592">
            <path id="ranaSideLeft4-bezier591" stroke="none" fill="rgb(0, 0, 0)" d="M 85.87,25.58 L 89.83,24.83 C 90.49,24.72 91.16,24.65 91.8,24.49 92.45,24.33 93.07,24.1 93.73,23.97 L 93.74,23.89 C 93.06,23.62 92.34,23.69 91.67,23.75 90.99,23.82 90.34,24.05 89.7,24.24 88.4,24.61 87.12,25.04 85.85,25.5 L 85.87,25.58 Z M 85.87,25.58" />
        </g>
        <g id="ranaSideLeft4-group593">
            <path id="ranaSideLeft4-bezier592" stroke="none" fill="rgb(0, 0, 0)" d="M 91.02,30.39 C 92.31,30.26 93.55,29.96 94.8,29.63 95.42,29.46 96.06,29.32 96.64,29.01 96.93,28.86 97.22,28.69 97.48,28.48 97.74,28.27 98.01,28.02 98.13,27.69 L 98.07,27.64 C 97.53,27.97 96.92,28.11 96.34,28.33 95.75,28.53 95.19,28.82 94.61,29.06 94.02,29.3 93.42,29.52 92.82,29.73 92.23,29.94 91.62,30.17 91.01,30.32 L 91.02,30.39 Z M 91.02,30.39" />
        </g>
        <g id="ranaSideLeft4-group594">
            <path id="ranaSideLeft4-bezier593" stroke="none" fill="rgb(0, 0, 0)" d="M 98.11,34.3 C 99.35,33.85 100.59,33.42 101.84,33.04 102.47,32.86 103.11,32.74 103.71,32.53 104.33,32.32 104.91,32.1 105.56,31.94 L 105.57,31.87 C 104.9,31.61 104.18,31.69 103.53,31.8 102.86,31.93 102.25,32.22 101.64,32.48 100.41,32.99 99.23,33.58 98.08,34.23 L 98.11,34.3 Z M 98.11,34.3" />
        </g>
        <g id="ranaSideLeft4-group595">
            <path id="ranaSideLeft4-bezier594" stroke="none" fill="rgb(0, 0, 0)" d="M 103.16,35.43 C 104.16,35.6 105.17,35.71 106.18,35.77 106.69,35.8 107.2,35.87 107.72,35.78 108.21,35.68 108.78,35.56 109.17,35.12 L 109.13,35.06 C 108.62,35.09 108.15,35.03 107.65,35.03 107.17,35.02 106.67,35.12 106.18,35.17 105.18,35.25 104.17,35.31 103.17,35.36 L 103.16,35.43 Z M 103.16,35.43" />
        </g>
        <g id="ranaSideLeft4-group596">
            <path id="ranaSideLeft4-bezier595" stroke="none" fill="rgb(0, 0, 0)" d="M 84.6,32.48 C 86.29,32.81 88,33.11 89.71,33.36 90.56,33.49 91.42,33.67 92.28,33.69 93.15,33.7 94.04,33.71 94.9,33.46 L 94.9,33.39 C 94.04,33.22 93.2,33.06 92.35,32.94 91.5,32.82 90.63,32.82 89.77,32.76 L 84.61,32.4 84.6,32.48 Z M 84.6,32.48" />
        </g>
        <g id="ranaSideLeft4-group597">
            <path id="ranaSideLeft4-bezier596" stroke="none" fill="rgb(0, 0, 0)" d="M 72.02,30.76 C 72.49,31.05 72.9,31.54 73.33,31.95 73.77,32.36 74.21,32.77 74.66,33.18 75.11,33.58 75.56,34.01 76.11,34.31 76.65,34.58 77.29,34.87 77.96,34.71 L 77.96,34.64 C 77.41,34.38 76.99,34.01 76.51,33.67 76.05,33.32 75.53,33.04 75.03,32.7 74.54,32.37 74.06,32.01 73.57,31.66 73.06,31.33 72.62,30.92 72.03,30.68 L 72.02,30.76 Z M 72.02,30.76" />
        </g>
        <g id="ranaSideLeft4-group598">
            <path id="ranaSideLeft4-bezier597" stroke="none" fill="rgb(0, 0, 0)" d="M 78.6,29.82 C 80.23,29.69 81.85,29.51 83.46,29.36 84.27,29.29 85.09,29.27 85.88,29.15 86.68,29.04 87.47,28.84 88.27,28.79 L 88.29,28.72 C 87.9,28.51 87.47,28.47 87.05,28.42 86.64,28.38 86.22,28.39 85.81,28.4 84.99,28.43 84.19,28.61 83.38,28.76 L 80.98,29.23 78.6,29.75 78.6,29.82 Z M 78.6,29.82" />
        </g>
        <g id="ranaSideLeft4-group599">
            <path id="ranaSideLeft4-bezier598" stroke="none" fill="rgb(0, 0, 0)" d="M 76.51,27.17 C 77.42,26.86 78.33,26.57 79.23,26.3 79.69,26.17 80.15,26.1 80.58,25.93 81.02,25.76 81.41,25.56 81.88,25.41 L 81.89,25.34 C 81.41,25.07 80.86,25.13 80.38,25.21 79.89,25.29 79.46,25.53 79.02,25.74 78.14,26.14 77.3,26.6 76.48,27.1 L 76.51,27.17 Z M 76.51,27.17" />
        </g>
        <g id="ranaSideLeft4-group600">
            <path id="ranaSideLeft4-bezier599" stroke="none" fill="rgb(0, 0, 0)" d="M 76.51,22.09 C 77.58,21.82 78.65,21.58 79.72,21.38 80.25,21.29 80.79,21.27 81.31,21.15 81.83,21.04 82.32,20.9 82.88,20.88 L 82.9,20.81 C 82.42,20.41 81.77,20.39 81.21,20.41 80.64,20.43 80.1,20.63 79.57,20.8 78.51,21.13 77.48,21.55 76.48,22.02 L 76.51,22.09 Z M 76.51,22.09" />
        </g>
        <g id="ranaSideLeft4-group601">
            <path id="ranaSideLeft4-bezier600" stroke="none" fill="rgb(0, 0, 0)" d="M 72.04,20.04 C 73.01,19.46 73.99,18.91 74.98,18.41 75.48,18.17 76.01,17.99 76.48,17.73 76.96,17.49 77.4,17.2 77.95,17.08 L 77.97,17.01 C 77.7,16.84 77.36,16.83 77.06,16.85 76.75,16.87 76.46,16.95 76.19,17.04 75.62,17.23 75.16,17.57 74.68,17.89 73.73,18.52 72.84,19.22 72,19.98 L 72.04,20.04 Z M 72.04,20.04" />
        </g>
        <g id="ranaSideLeft4-group602">
            <path id="ranaSideLeft4-bezier601" stroke="none" fill="rgb(0, 0, 0)" d="M 61.81,17.76 C 63.06,17.2 64.28,16.58 65.48,15.9 66.08,15.56 66.7,15.25 67.23,14.79 67.5,14.56 67.75,14.32 67.98,14.04 68.2,13.77 68.43,13.46 68.49,13.08 L 68.42,13.05 C 67.94,13.51 67.34,13.82 66.78,14.19 66.22,14.55 65.71,14.99 65.15,15.39 64.05,16.18 62.91,16.94 61.77,17.7 L 61.81,17.76 Z M 61.81,17.76" />
        </g>
        <g id="ranaSideLeft4-group603">
            <path id="ranaSideLeft4-bezier602" stroke="none" fill="rgb(0, 0, 0)" d="M 29.22,22.8 C 30.75,22.31 32.29,21.86 33.83,21.46 34.61,21.27 35.39,21.14 36.15,20.92 36.91,20.72 37.65,20.48 38.45,20.39 L 38.46,20.32 C 37.66,20 36.79,20.09 35.99,20.19 35.18,20.31 34.42,20.61 33.66,20.88 32.13,21.42 30.65,22.04 29.19,22.73 L 29.22,22.8 Z M 29.22,22.8" />
        </g>
        <g id="ranaSideLeft4-group604">
            <path id="ranaSideLeft4-bezier603" stroke="none" fill="rgb(0, 0, 0)" d="M 26.92,20.57 C 28.08,20.09 29.22,19.56 30.34,18.96 30.9,18.67 31.48,18.4 31.98,17.98 32.22,17.77 32.46,17.56 32.67,17.29 32.87,17.03 33.1,16.75 33.1,16.37 L 33.03,16.36 C 32.63,16.8 32.05,17.04 31.54,17.37 31.02,17.69 30.54,18.09 30.03,18.45 29,19.15 27.95,19.83 26.88,20.5 L 26.92,20.57 Z M 26.92,20.57" />
        </g>
        <g id="ranaSideLeft4-group605">
            <path id="ranaSideLeft4-bezier604" stroke="none" fill="rgb(0, 0, 0)" d="M 35.41,18.55 L 39.36,17.07 C 40.02,16.83 40.69,16.64 41.32,16.35 41.96,16.07 42.57,15.74 43.21,15.44 L 43.2,15.36 C 42.45,15.27 41.74,15.46 41.06,15.65 40.38,15.86 39.75,16.2 39.12,16.51 37.85,17.13 36.61,17.78 35.38,18.48 L 35.41,18.55 Z M 35.41,18.55" />
        </g>
        <g id="ranaSideLeft4-group606">
            <path id="ranaSideLeft4-bezier605" stroke="none" fill="rgb(0, 0, 0)" d="M 44.09,19.13 C 45.22,18.62 46.33,18.06 47.4,17.43 47.95,17.12 48.51,16.83 48.98,16.41 49.44,15.98 49.9,15.5 50.13,14.87 L 50.07,14.83 48.52,15.82 C 48.01,16.14 47.56,16.56 47.07,16.93 46.09,17.66 45.08,18.37 44.05,19.06 L 44.09,19.13 Z M 44.09,19.13" />
        </g>
        <g id="ranaSideLeft4-group607">
            <path id="ranaSideLeft4-bezier606" stroke="none" fill="rgb(0, 0, 0)" d="M 37.37,23.68 C 38.75,23.23 40.13,22.79 41.52,22.38 42.21,22.18 42.92,22.04 43.59,21.81 44.27,21.59 44.92,21.28 45.61,21.2 L 45.64,21.13 C 45.28,20.92 44.87,20.94 44.5,20.94 44.12,20.95 43.75,21.01 43.39,21.08 42.66,21.23 41.99,21.54 41.32,21.81 39.97,22.35 38.64,22.96 37.34,23.61 L 37.37,23.68 Z M 37.37,23.68" />
        </g>
        <g id="ranaSideLeft4-group608">
            <path id="ranaSideLeft4-bezier607" stroke="none" fill="rgb(0, 0, 0)" d="M 39.07,26.27 C 39.5,26.38 39.87,26.28 40.27,26.25 40.66,26.21 41.05,26.16 41.44,26.1 42.22,25.97 42.99,25.82 43.76,25.65 44.53,25.49 45.31,25.35 46.05,25.05 46.42,24.89 46.79,24.73 47.13,24.52 47.46,24.29 47.86,24.09 48.03,23.66 L 47.96,23.63 C 47.35,24.01 46.53,24.11 45.81,24.34 45.07,24.54 44.35,24.83 43.61,25.07 42.86,25.31 42.12,25.53 41.36,25.73 40.63,25.92 39.83,26.2 39.12,26.21 L 39.07,26.27 Z M 39.07,26.27" />
        </g>
        <g id="ranaSideLeft4-group609">
            <path id="ranaSideLeft4-bezier608" stroke="none" fill="rgb(0, 0, 0)" d="M 46.26,27.17 L 50.18,28.18 C 50.82,28.37 51.46,28.6 52.11,28.72 52.77,28.85 53.42,28.94 54.1,29.04 L 54.14,28.98 C 53.6,28.49 52.94,28.23 52.3,28 51.65,27.77 50.97,27.7 50.3,27.6 48.96,27.38 47.62,27.21 46.27,27.1 L 46.26,27.17 Z M 46.26,27.17" />
        </g>
        <g id="ranaSideLeft4-group610">
            <path id="ranaSideLeft4-bezier609" stroke="none" fill="rgb(0, 0, 0)" d="M 44.08,23.21 C 45.49,22.82 46.87,22.38 48.24,21.88 48.93,21.64 49.64,21.42 50.28,21.06 50.6,20.87 50.91,20.68 51.21,20.44 51.49,20.2 51.81,19.96 51.96,19.57 L 51.89,19.53 C 51.3,19.91 50.6,20.1 49.95,20.38 49.29,20.65 48.66,21.01 48.01,21.33 46.71,21.95 45.38,22.54 44.06,23.14 L 44.08,23.21 Z M 44.08,23.21" />
        </g>
        <g id="ranaSideLeft4-group611">
            <path id="ranaSideLeft4-bezier610" stroke="none" fill="rgb(0, 0, 0)" d="M 49.06,18.49 C 50.42,18.07 51.79,17.68 53.15,17.33 53.84,17.16 54.53,17.05 55.2,16.86 55.87,16.69 56.51,16.45 57.21,16.4 L 57.24,16.33 C 56.9,16.13 56.51,16.08 56.14,16.06 55.77,16.04 55.4,16.08 55.04,16.13 54.32,16.23 53.65,16.51 52.98,16.75 51.63,17.23 50.32,17.8 49.04,18.42 L 49.06,18.49 Z M 49.06,18.49" />
        </g>
        <g id="ranaSideLeft4-group612">
            <path id="ranaSideLeft4-bezier611" stroke="none" fill="rgb(0, 0, 0)" d="M 53.15,22.42 C 54.49,22.11 55.82,21.75 57.13,21.31 57.78,21.1 58.46,20.91 59.07,20.57 59.38,20.39 59.68,20.2 59.95,19.97 60.22,19.74 60.51,19.48 60.64,19.12 L 60.57,19.08 C 60.02,19.45 59.37,19.63 58.75,19.89 58.12,20.13 57.53,20.47 56.91,20.75 55.67,21.31 54.4,21.83 53.13,22.35 L 53.15,22.42 Z M 53.15,22.42" />
        </g>
        <g id="ranaSideLeft4-group613">
            <path id="ranaSideLeft4-bezier612" stroke="none" fill="rgb(0, 0, 0)" d="M 65.56,20.03 C 66.32,19.47 67.11,18.94 67.9,18.46 68.31,18.23 68.74,18.07 69.11,17.82 69.5,17.58 69.85,17.33 70.29,17.09 L 70.28,17.01 C 69.77,16.85 69.24,16.98 68.78,17.15 68.31,17.33 67.93,17.67 67.56,17.97 66.81,18.58 66.13,19.25 65.51,19.98 L 65.56,20.03 Z M 65.56,20.03" />
        </g>
        <g id="ranaSideLeft4-group614">
            <path id="ranaSideLeft4-bezier613" stroke="none" fill="rgb(0, 0, 0)" d="M 55.59,23.97 C 56.95,23.86 58.31,23.7 59.67,23.49 60.35,23.39 61.04,23.32 61.7,23.1 62.34,22.86 63.03,22.62 63.55,22.08 L 63.51,22.02 C 62.83,22.17 62.17,22.24 61.51,22.37 60.85,22.49 60.2,22.72 59.55,22.9 L 55.57,23.89 55.59,23.97 Z M 55.59,23.97" />
        </g>
        <g id="ranaSideLeft4-group615">
            <path id="ranaSideLeft4-bezier614" stroke="none" fill="rgb(0, 0, 0)" d="M 66.73,25.41 C 68.01,25.14 69.29,24.86 70.57,24.61 71.21,24.49 71.86,24.42 72.48,24.25 73.11,24.08 73.71,23.88 74.35,23.68 L 74.35,23.61 C 73.68,23.39 72.99,23.44 72.33,23.52 71.67,23.6 71.05,23.83 70.42,24.03 69.17,24.42 67.93,24.86 66.71,25.34 L 66.73,25.41 Z M 66.73,25.41" />
        </g>
        <g id="ranaSideLeft4-group616">
            <path id="ranaSideLeft4-bezier615" stroke="none" fill="rgb(0, 0, 0)" d="M 64.16,28.54 C 64.92,28.62 65.67,28.53 66.41,28.47 67.15,28.38 67.89,28.28 68.63,28.15 69.37,28.03 70.12,27.94 70.83,27.68 71.53,27.42 72.27,27.14 72.83,26.56 L 72.79,26.5 C 72.07,26.7 71.35,26.8 70.63,26.96 69.91,27.11 69.22,27.37 68.5,27.57 67.79,27.76 67.07,27.94 66.35,28.1 65.63,28.26 64.9,28.45 64.17,28.46 L 64.16,28.54 Z M 64.16,28.54" />
        </g>
        <g id="ranaSideLeft4-group617">
            <path id="ranaSideLeft4-bezier616" stroke="none" fill="rgb(0, 0, 0)" d="M 57.24,27.7 C 58.45,27.29 59.64,26.85 60.83,26.39 61.43,26.17 62.04,25.98 62.6,25.67 63.16,25.36 63.71,25.02 64.18,24.54 L 64.15,24.48 C 63.49,24.58 62.89,24.77 62.29,24.99 61.69,25.21 61.15,25.55 60.59,25.84 59.46,26.42 58.33,27.02 57.21,27.63 L 57.24,27.7 Z M 57.24,27.7" />
        </g>
        <g id="ranaSideLeft4-group618">
            <path id="ranaSideLeft4-bezier617" stroke="none" fill="rgb(0, 0, 0)" d="M 26.12,29.11 C 27.25,29.54 28.35,30.01 29.43,30.53 29.96,30.79 30.47,31.11 31,31.34 31.55,31.57 32.08,31.8 32.66,32.03 L 32.71,31.97 C 32.38,31.42 31.87,31.01 31.36,30.68 30.83,30.35 30.24,30.17 29.66,29.97 28.51,29.57 27.33,29.26 26.14,29.03 L 26.12,29.11 Z M 26.12,29.11" />
        </g>
        <g id="ranaSideLeft4-group619">
            <path id="ranaSideLeft4-bezier618" stroke="none" fill="rgb(0, 0, 0)" d="M 24.19,24.53 C 24.84,23.86 25.52,23.21 26.24,22.64 26.6,22.36 27,22.14 27.34,21.87 27.69,21.6 28,21.34 28.45,21.15 L 28.45,21.08 C 27.96,20.85 27.38,21.02 26.94,21.24 26.48,21.46 26.16,21.84 25.83,22.2 25.17,22.9 24.61,23.67 24.13,24.49 L 24.19,24.53 Z M 24.19,24.53" />
        </g>
        <g id="ranaSideLeft4-group620">
            <path id="ranaSideLeft4-bezier619" stroke="none" fill="rgb(0, 0, 0)" d="M 88.85,16.33 C 90.01,15.68 91.21,15.12 92.44,14.68 93.06,14.47 93.7,14.35 94.3,14.18 94.91,14.02 95.51,13.88 96.19,13.86 L 96.21,13.79 C 95.61,13.4 94.84,13.37 94.16,13.45 93.46,13.54 92.82,13.84 92.21,14.13 90.99,14.71 89.85,15.44 88.8,16.26 L 88.85,16.33 Z M 88.85,16.33" />
        </g>
        <g id="ranaSideLeft4-group621">
            <path id="ranaSideLeft4-bezier620" stroke="none" fill="rgb(0, 0, 0)" d="M 98.91,20.77 C 99.43,20.65 99.86,20.44 100.34,20.28 100.8,20.1 101.26,19.94 101.73,19.8 102.2,19.66 102.68,19.59 103.12,19.45 103.57,19.32 103.99,19.18 104.5,19.13 L 104.53,19.06 C 104.09,18.7 103.48,18.67 102.97,18.72 102.44,18.78 101.97,19.02 101.51,19.24 101.05,19.46 100.61,19.7 100.18,19.94 99.75,20.19 99.32,20.5 98.91,20.7 L 98.91,20.77 Z M 98.91,20.77" />
        </g>
        <g id="ranaSideLeft4-group622">
            <path id="ranaSideLeft4-bezier621" stroke="none" fill="rgb(0, 0, 0)" d="M 77.98,11.83 C 79.02,11.28 80.12,10.88 81.23,10.59 81.79,10.45 82.36,10.4 82.91,10.26 83.46,10.12 84.01,10 84.6,9.81 L 84.6,9.73 C 84.02,9.52 83.4,9.48 82.79,9.52 82.18,9.57 81.6,9.8 81.05,10.02 79.92,10.45 78.87,11.03 77.94,11.77 L 77.98,11.83 Z M 77.98,11.83" />
        </g>
        <g id="ranaSideLeft4-group623">
            <path id="ranaSideLeft4-bezier622" stroke="none" fill="rgb(0, 0, 0)" d="M 19.05,34.23 C 17.27,34.04 15.66,33.17 14.21,32.17 13.48,31.67 12.8,31.12 12.09,30.56 11.35,30.01 10.57,29.54 9.73,29.17 8.88,28.81 7.99,28.52 7,28.52 6.75,28.53 6.5,28.56 6.25,28.63 6.13,28.67 5.99,28.68 5.81,28.81 5.7,28.89 5.6,29.03 5.57,29.18 5.54,29.34 5.57,29.45 5.6,29.54 5.73,29.88 5.9,30.04 6.05,30.23 6.21,30.41 6.38,30.57 6.54,30.72 7.22,31.33 7.89,31.9 8.52,32.51 8.83,32.81 9.13,33.13 9.35,33.49 9.58,33.83 9.73,34.26 9.51,34.65 L 9.57,34.7 C 9.93,34.34 9.84,33.75 9.66,33.33 9.46,32.9 9.19,32.52 8.91,32.16 8.33,31.45 7.67,30.83 7.07,30.19 6.78,29.9 6.42,29.52 6.34,29.3 6.35,29.24 6.34,29.4 6.27,29.43 6.28,29.42 6.37,29.39 6.46,29.36 6.64,29.31 6.83,29.28 7.03,29.26 7.83,29.21 8.69,29.43 9.5,29.73 10.3,30.04 11.08,30.47 11.8,30.95 12.51,31.47 13.24,32.02 14.01,32.49 15.53,33.42 17.23,34.21 19.04,34.3 L 19.05,34.23 Z M 19.05,34.23" />
        </g>
        <g id="ranaSideLeft4-group624">
            <path id="ranaSideLeft4-bezier623" stroke="none" fill="rgb(0, 0, 0)" d="M 20.39,28.92 C 21.67,28.38 22.96,27.88 24.27,27.47 24.93,27.28 25.6,27.15 26.24,26.97 26.88,26.78 27.5,26.6 28.2,26.57 L 28.23,26.5 C 27.58,26.11 26.78,26.14 26.08,26.23 25.36,26.34 24.71,26.63 24.06,26.91 22.77,27.46 21.54,28.12 20.36,28.86 L 20.39,28.92 Z M 20.39,28.92" />
        </g>
        <g id="ranaSideLeft4-group625">
            <path id="ranaSideLeft4-bezier624" stroke="none" fill="rgb(0, 0, 0)" d="M 23.07,21.39 C 23.77,20.72 24.41,20 24.97,19.2 25.25,18.8 25.55,18.39 25.69,17.89 25.81,17.41 25.87,16.78 25.5,16.35 L 25.43,16.38 C 25.37,16.87 25.17,17.23 24.98,17.63 24.79,18.03 24.65,18.47 24.45,18.89 24.03,19.72 23.54,20.54 23.02,21.34 L 23.07,21.39 Z M 23.07,21.39" />
        </g>
        <g id="ranaSideLeft4-group626">
            <path id="ranaSideLeft4-bezier625" stroke="none" fill="rgb(0, 0, 0)" d="M 9.82,27.69 C 10.51,27.22 11.17,26.68 11.75,26.06 12.05,25.75 12.37,25.44 12.54,25.01 12.69,24.6 12.8,24.06 12.53,23.64 L 12.46,23.65 C 12.3,24.06 12.09,24.34 11.87,24.66 11.66,24.98 11.5,25.34 11.28,25.69 10.83,26.36 10.32,27.01 9.77,27.63 L 9.82,27.69 Z M 9.82,27.69" />
        </g>
        <g id="ranaSideLeft4-group627">
            <path id="ranaSideLeft4-bezier626" stroke="none" fill="rgb(0, 0, 0)" d="M 14.07,25.45 C 14.71,24.6 15.38,23.77 16.08,22.99 16.43,22.61 16.83,22.28 17.16,21.89 17.5,21.51 17.81,21.13 18.22,20.77 L 18.2,20.7 C 17.6,20.69 17.07,21.02 16.64,21.35 16.21,21.7 15.91,22.17 15.61,22.62 14.99,23.51 14.46,24.44 14.01,25.41 L 14.07,25.45 Z M 14.07,25.45" />
        </g>
        <g id="ranaSideLeft4-group628">
            <path id="ranaSideLeft4-bezier627" stroke="none" fill="rgb(0, 0, 0)" d="M 17.65,24.74 C 18.27,24.2 18.86,23.63 19.4,23.01 19.67,22.7 19.98,22.41 20.16,22.02 20.33,21.64 20.48,21.21 20.41,20.75 L 20.34,20.73 C 20.03,21.04 19.77,21.32 19.52,21.63 19.28,21.94 19.12,22.31 18.92,22.65 18.5,23.33 18.05,24.01 17.6,24.69 L 17.65,24.74 Z M 17.65,24.74" />
        </g>
        <g id="ranaSideLeft4-group629">
            <path id="ranaSideLeft4-bezier628" stroke="none" fill="rgb(0, 0, 0)" d="M 16.16,30.37 C 16.8,29.51 17.47,28.66 18.18,27.87 18.54,27.47 18.94,27.13 19.27,26.74 19.62,26.36 19.91,25.97 20.38,25.69 L 20.37,25.62 C 19.75,25.49 19.19,25.87 18.75,26.2 18.31,26.56 18.01,27.04 17.71,27.5 17.08,28.4 16.56,29.35 16.09,30.34 L 16.16,30.37 Z M 16.16,30.37" />
        </g>
        <g id="ranaSideLeft4-group630">
            <path id="ranaSideLeft4-bezier629" stroke="none" fill="rgb(0, 0, 0)" d="M 20.36,31.93 C 21.25,32.46 22.2,32.91 23.18,33.28 23.67,33.46 24.17,33.67 24.7,33.72 25.23,33.77 25.78,33.76 26.31,33.57 L 26.31,33.49 C 25.8,33.27 25.32,33.13 24.84,32.99 24.36,32.84 23.85,32.8 23.35,32.7 22.36,32.48 21.37,32.2 20.39,31.86 L 20.36,31.93 Z M 20.36,31.93" />
        </g>
        <g id="ranaSideLeft4-group631">
            <path id="ranaSideLeft4-bezier630" stroke="none" fill="rgb(0, 0, 0)" d="M 9.07,35.79 C 8.73,36.66 8.44,37.55 8.21,38.47 7.99,39.38 7.8,40.35 7.9,41.32 7.95,42.24 7.93,43.17 8,44.09 8.06,45.01 8.19,45.92 8.11,46.85 L 8.18,46.87 C 8.45,46.45 8.54,45.97 8.63,45.5 8.71,45.02 8.74,44.55 8.75,44.07 8.78,43.12 8.62,42.19 8.49,41.26 8.33,40.37 8.43,39.46 8.57,38.54 8.71,37.63 8.9,36.71 9.14,35.81 L 9.07,35.79 Z M 9.07,35.79" />
        </g>
        <g id="ranaSideLeft4-group632">
            <path id="ranaSideLeft4-bezier631" stroke="none" fill="rgb(0, 0, 0)" d="M 7.76,47.8 C 7.64,48.15 7.56,48.52 7.53,48.89 7.51,49.08 7.45,49.28 7.54,49.47 7.59,49.57 7.64,49.67 7.74,49.75 7.83,49.83 7.97,49.94 8.13,49.89 L 8.16,49.82 C 8.18,49.6 8.27,49.48 8.27,49.31 8.29,49.16 8.18,49 8.13,48.84 L 7.83,47.8 7.76,47.8 Z M 7.76,47.8" />
        </g>
        <g id="ranaSideLeft4-group633">
            <path id="ranaSideLeft4-bezier632" stroke="none" fill="rgb(0, 0, 0)" d="M 9.1,49.89 C 9.78,50.11 10.5,50.27 11.24,50.31 11.61,50.32 12,50.29 12.38,50.17 12.78,50.02 13.06,49.85 13.39,49.68 14.03,49.33 14.68,49.01 15.25,48.59 15.84,48.19 16.38,47.74 16.99,47.36 L 16.97,47.28 C 16.19,47.29 15.51,47.64 14.86,47.96 14.22,48.29 13.66,48.76 13.08,49.17 12.8,49.36 12.47,49.59 12.21,49.71 11.92,49.84 11.58,49.91 11.23,49.94 10.54,50 9.82,49.94 9.12,49.82 L 9.1,49.89 Z M 9.1,49.89" />
        </g>
        <g id="ranaSideLeft4-group634">
            <path id="ranaSideLeft4-bezier633" stroke="none" fill="rgb(0, 0, 0)" d="M 14.05,50.16 C 15.39,50.06 16.74,49.9 18.07,49.62 18.73,49.47 19.39,49.3 20.04,49.03 20.36,48.89 20.68,48.73 20.98,48.49 21.12,48.37 21.27,48.22 21.37,48.03 L 21.49,47.79 C 21.54,47.74 21.54,47.72 21.6,47.67 21.96,47.33 22.65,47.28 23.26,47.31 23.9,47.35 24.55,47.45 25.18,47.58 25.51,47.64 25.83,47.71 26.14,47.8 26.29,47.84 26.44,47.89 26.58,47.95 26.67,47.99 26.66,47.98 26.77,48.05 26.94,48.14 27,48.12 27.1,48.15 27.81,48.25 28.47,48.25 29.16,48.23 L 29.17,48.16 C 28.52,47.97 27.84,47.83 27.23,47.64 27.16,47.62 27.06,47.57 27.08,47.58 27.05,47.55 26.91,47.45 26.84,47.42 26.67,47.33 26.51,47.26 26.35,47.19 26.02,47.06 25.69,46.95 25.36,46.85 24.68,46.68 23.99,46.57 23.28,46.57 22.59,46.6 21.78,46.63 21.16,47.26 21.09,47.33 21.01,47.46 20.96,47.54 L 20.87,47.77 C 20.82,47.87 20.73,47.98 20.62,48.08 20.41,48.28 20.13,48.44 19.84,48.58 19.26,48.87 18.62,49.08 17.98,49.26 16.7,49.63 15.37,49.89 14.04,50.09 L 14.05,50.16 Z M 14.05,50.16" />
        </g>
        <g id="ranaSideLeft4-group635">
            <path id="ranaSideLeft4-bezier634" stroke="none" fill="rgb(0, 0, 0)" d="M 9.54,41.33 C 9.56,41.61 9.6,41.91 9.75,42.18 9.87,42.45 10.15,42.7 10.52,42.74 10.88,42.76 11.22,42.54 11.42,42.27 11.63,42 11.74,41.67 11.76,41.33 11.78,41 11.72,40.63 11.53,40.31 11.35,40 10.96,39.72 10.52,39.74 10.07,39.76 9.75,40.1 9.64,40.41 9.52,40.73 9.53,41.04 9.54,41.33 Z M 9.61,41.33 C 9.62,41.05 9.78,40.79 9.98,40.64 10.18,40.48 10.39,40.46 10.52,40.49 10.76,40.51 11.12,40.85 11.16,41.33 11.21,41.78 10.95,42.32 10.52,42.36 10.08,42.44 9.55,41.9 9.61,41.33 Z M 9.61,41.33" />
        </g>
        <g id="ranaSideLeft4-group636">
            <path id="ranaSideLeft4-bezier635" stroke="none" fill="rgb(0, 0, 0)" d="M 97.31,41.1 C 98.84,41.74 100.42,42.28 102.05,42.66 102.86,42.86 103.68,43.06 104.54,43.07 105.38,43.07 106.26,42.97 107.04,42.58 L 107.02,42.51 C 106.17,42.49 105.39,42.42 104.58,42.32 103.78,42.22 102.97,42.19 102.16,42.07 100.54,41.83 98.93,41.47 97.33,41.03 L 97.31,41.1 Z M 97.31,41.1" />
        </g>
        <g id="ranaSideLeft4-group637">
            <path id="ranaSideLeft4-bezier636" stroke="none" fill="rgb(0, 0, 0)" d="M 38.46,49.33 C 40.83,49.22 43.22,49.21 45.59,49.33 47.97,49.46 50.33,49.73 52.61,50.44 54.96,50.99 57.36,51.08 59.74,51.18 62.12,51.27 64.5,51.31 66.87,51.48 68.05,51.56 69.23,51.68 70.39,51.87 71.53,52.07 72.73,52.35 73.92,52.48 76.3,52.79 78.7,52.85 81.09,52.86 83.48,52.86 85.87,52.69 88.25,52.45 90.62,52.17 93,51.82 95.28,51.06 L 95.25,50.99 C 94.1,51.28 92.92,51.44 91.74,51.58 90.57,51.72 89.38,51.82 88.2,51.89 85.83,52.06 83.46,52.1 81.09,52.11 78.72,52.12 76.35,52.02 74,51.79 72.82,51.69 71.69,51.45 70.48,51.26 69.29,51.1 68.09,50.99 66.9,50.93 64.51,50.8 62.13,50.8 59.75,50.76 57.38,50.69 54.98,50.65 52.67,50.17 50.38,49.5 47.98,49.26 45.6,49.16 43.22,49.07 40.83,49.11 38.45,49.26 L 38.46,49.33 Z M 38.46,49.33" />
        </g>
        <g id="ranaSideLeft4-group638">
            <path id="ranaSideLeft4-bezier637" stroke="none" fill="rgb(0, 0, 0)" d="M 107.01,41.36 C 107.83,42.03 108.65,42.71 109.45,43.4 109.85,43.75 110.2,44.14 110.62,44.44 111.03,44.76 111.48,45.01 111.85,45.37 L 111.93,45.35 C 111.93,45.04 111.78,44.77 111.63,44.53 111.49,44.29 111.3,44.08 111.12,43.88 110.74,43.48 110.26,43.21 109.81,42.92 108.92,42.33 107.99,41.79 107.05,41.3 L 107.01,41.36 Z M 107.01,41.36" />
        </g>
        <g id="ranaSideLeft4-group639">
            <path id="ranaSideLeft4-bezier638" stroke="none" fill="rgb(0, 0, 0)" d="M 109.74,45.33 C 107.96,46.45 106.14,47.5 104.26,48.43 103.32,48.88 102.35,49.25 101.4,49.66 100.45,50.05 99.51,50.44 98.46,50.57 L 98.46,50.65 C 99.53,50.93 100.65,50.67 101.67,50.36 102.69,50.03 103.63,49.49 104.54,48.96 106.39,47.9 108.13,46.7 109.79,45.39 L 109.74,45.33 Z M 109.74,45.33" />
        </g>
        <g id="ranaSideLeft4-group640">
            <path id="ranaSideLeft4-bezier639" stroke="none" fill="rgb(0, 0, 0)" d="M 10.99,34.47 C 10.97,34.34 10.97,34.15 11.03,34.15 11.06,34.15 11.21,34.19 11.34,34.25 11.41,34.27 11.48,34.3 11.57,34.32 11.65,34.32 11.78,34.38 11.97,34.23 12.05,34.15 12.08,34.04 12.09,33.97 L 12.09,33.95 C 12.09,34.03 12.09,33.96 12.09,33.98 L 12.1,33.95 C 12.11,33.99 12.05,34.07 12.04,34.08 11.93,34.14 12,34.11 12.04,34.14 12.24,34.22 12.48,34.41 12.75,34.47 12.9,34.51 13.04,34.54 13.2,34.55 L 13.33,34.55 13.4,34.55 13.47,34.55 13.49,34.55 C 13.53,34.55 13.58,34.53 13.62,34.5 13.68,34.44 13.68,34.36 13.65,34.29 13.5,34.15 13.46,34.21 13.35,34.19 L 13.31,34.25 C 13.32,34.32 13.4,34.45 13.34,34.43 13.31,34.36 13.32,34.3 13.37,34.24 13.4,34.21 13.45,34.19 13.48,34.19 13.5,34.19 13.49,34.19 13.49,34.19 13.5,34.19 13.52,34.19 13.51,34.18 13.5,34.17 13.49,34.16 13.48,34.15 L 13.4,34.07 C 13.3,33.96 13.18,33.87 13.05,33.79 12.79,33.63 12.49,33.58 12.13,33.55 12.03,33.56 11.93,33.5 11.7,33.65 11.66,33.67 11.58,33.79 11.58,33.86 L 11.57,33.89 11.57,33.95 11.57,33.95 C 11.58,33.96 11.58,33.92 11.62,33.89 11.7,33.84 11.66,33.89 11.61,33.89 11.55,33.89 11.48,33.89 11.41,33.88 11.26,33.9 11.09,33.82 10.87,33.99 10.73,34.23 10.87,34.37 10.92,34.5 L 10.99,34.47 Z M 10.99,34.47" />
        </g>
        <g id="ranaSideLeft4-group641">
            <path id="ranaSideLeft4-bezier640" stroke="none" fill="rgb(0, 0, 0)" d="M 103.13,50.63 C 103.41,51.46 103.68,52.29 103.9,53.13 104,53.54 104.04,53.97 104.17,54.36 104.29,54.76 104.46,55.11 104.48,55.55 L 104.55,55.59 C 104.95,55.23 104.94,54.65 104.91,54.21 104.86,53.74 104.65,53.33 104.46,52.93 104.11,52.11 103.68,51.34 103.2,50.59 L 103.13,50.63 Z M 103.13,50.63" />
        </g>
        <g id="ranaSideLeft4-group642">
            <path id="ranaSideLeft4-bezier641" stroke="none" fill="rgb(0, 0, 0)" d="M 103.57,55.56 C 103.28,56 103.02,56.46 102.79,56.94 102.58,57.43 102.37,57.93 102.31,58.51 102.28,58.99 101.99,59.13 101.6,59.38 101.2,59.61 100.73,59.79 100.23,60.01 L 100.23,60.08 C 100.77,60.27 101.35,60.26 101.91,60.06 102.19,59.95 102.47,59.78 102.67,59.49 102.77,59.35 102.85,59.18 102.88,59.01 102.9,58.93 102.91,58.84 102.92,58.74 L 102.91,58.54 C 102.89,58.07 103,57.56 103.14,57.07 103.27,56.57 103.44,56.08 103.64,55.59 L 103.57,55.56 Z M 103.57,55.56" />
        </g>
        <g id="ranaSideLeft4-group643">
            <path id="ranaSideLeft4-bezier642" stroke="none" fill="rgb(0, 0, 0)" d="M 100.59,58.2 C 100.11,58.37 99.67,58.63 99.28,58.99 99.08,59.17 98.86,59.36 98.78,59.63 98.71,59.9 98.71,60.21 98.87,60.48 L 98.95,60.49 C 99.19,60.28 99.32,60.12 99.46,59.96 99.59,59.79 99.63,59.57 99.75,59.37 99.98,58.99 100.28,58.61 100.62,58.27 L 100.59,58.2 Z M 100.59,58.2" />
        </g>
        <g id="ranaSideLeft4-group644">
            <path id="ranaSideLeft4-bezier643" stroke="none" fill="rgb(0, 0, 0)" d="M 98.45,58.2 C 98.02,58.24 97.59,58.42 97.24,58.74 97.06,58.89 96.86,59.07 96.81,59.32 96.77,59.56 96.82,59.83 97,60.05 L 97.08,60.05 C 97.3,59.86 97.4,59.72 97.52,59.59 97.62,59.46 97.62,59.28 97.7,59.12 97.87,58.81 98.14,58.51 98.47,58.27 L 98.45,58.2 Z M 98.45,58.2" />
        </g>
        <g id="ranaSideLeft4-group646">
            <path id="ranaSideLeft4-bezier644" stroke="none" fill="rgb(0, 0, 0)" d="M 95.7,59.37 C 95.87,59.08 96.04,58.8 96.22,58.57 96.32,58.46 96.46,58.4 96.49,58.3 96.53,58.19 96.51,58.07 96.64,57.85 L 96.63,57.77 C 96.42,57.58 96.12,57.66 95.95,57.78 95.76,57.91 95.72,58.13 95.68,58.31 95.59,58.67 95.58,59.01 95.63,59.35 L 95.7,59.37 Z M 95.7,59.37" />
        </g>
        <g id="ranaSideLeft4-group647">
            <path id="ranaSideLeft4-bezier645" stroke="none" fill="rgb(0, 0, 0)" d="M 98.12,57.08 C 98.99,56.48 99.8,55.79 100.45,54.89 100.76,54.45 101.1,53.95 101.12,53.32 101.15,52.7 100.79,52.05 100.26,51.83 L 100.2,51.89 C 100.42,52.4 100.46,52.82 100.37,53.25 100.28,53.66 100.16,54.13 99.93,54.58 99.46,55.45 98.8,56.27 98.07,57.02 L 98.12,57.08 Z M 98.12,57.08" />
        </g>
        <g id="ranaSideLeft4-group648">
            <path id="ranaSideLeft4-bezier646" stroke="none" fill="rgb(0, 0, 0)" d="M 86.35,53.06 C 85.68,53.32 85.04,53.63 84.42,54 83.82,54.39 83.21,54.81 82.76,55.47 82.54,55.79 82.36,56.26 82.48,56.74 L 82.66,57.25 C 82.71,57.39 82.75,57.53 82.75,57.65 82.78,57.88 82.72,58.01 82.44,58.17 82.17,58.32 81.82,58.41 81.48,58.55 L 81.48,58.62 C 81.84,58.69 82.2,58.74 82.61,58.67 82.81,58.63 83.04,58.54 83.22,58.35 83.41,58.16 83.49,57.88 83.5,57.65 83.5,57.41 83.46,57.2 83.4,57.01 83.34,56.82 83.22,56.61 83.19,56.53 83.11,56.32 83.14,56.05 83.28,55.77 83.57,55.22 84.1,54.74 84.64,54.31 85.18,53.87 85.76,53.48 86.38,53.13 L 86.35,53.06 Z M 86.35,53.06" />
        </g>
        <g id="ranaSideLeft4-group649">
            <path id="ranaSideLeft4-bezier647" stroke="none" fill="rgb(0, 0, 0)" d="M 78.58,57.33 C 78.24,57.39 77.92,57.48 77.6,57.63 77.44,57.7 77.25,57.74 77.15,57.91 77.06,58.07 76.94,58.35 77.13,58.58 L 77.2,58.58 C 77.42,58.49 77.54,58.52 77.67,58.45 77.8,58.39 77.86,58.24 77.96,58.11 78.16,57.88 78.39,57.64 78.61,57.39 L 78.58,57.33 Z M 78.58,57.33" />
        </g>
        <g id="ranaSideLeft4-group650">
            <path id="ranaSideLeft4-bezier648" stroke="none" fill="rgb(0, 0, 0)" d="M 79.73,56.38 C 80.17,55.88 80.63,55.4 81.11,54.96 81.35,54.74 81.63,54.57 81.83,54.32 82.03,54.06 82.22,53.81 82.38,53.45 L 82.34,53.39 C 81.94,53.41 81.61,53.57 81.32,53.77 81.03,53.97 80.85,54.28 80.66,54.56 80.26,55.12 79.92,55.71 79.66,56.34 L 79.73,56.38 Z M 79.73,56.38" />
        </g>
        <g id="ranaSideLeft4-group651">
            <path id="ranaSideLeft4-bezier649" stroke="none" fill="rgb(0, 0, 0)" d="M 11.48,43.26 C 11.94,43.03 12.35,42.7 12.68,42.27 12.85,42.06 13.05,41.82 13.07,41.51 13.08,41.22 13,40.89 12.75,40.69 L 12.67,40.7 C 12.52,40.98 12.43,41.16 12.33,41.35 12.24,41.53 12.24,41.75 12.16,41.97 12,42.39 11.74,42.81 11.43,43.21 L 11.48,43.26 Z M 11.48,43.26" />
        </g>
    </g>
</svg>
