<?xml version="1.0" encoding="UTF-8"?>
<!DOCTYPE svg PUBLIC "-//W3C//DTD SVG 1.1//EN" "http://www.w3.org/Graphics/SVG/1.1/DTD/svg11.dtd">
<svg version="1.1" xmlns="http://www.w3.org/2000/svg" xmlns:xlink="http://www.w3.org/1999/xlink" width="120" height="60"  xml:space="preserve" id="rana6">
    <!-- Generated by PaintCode - http://www.paintcodeapp.com -->
    <g id="rana6-group">
        <g id="rana6-group112">
            <path id="rana6-bezier111" stroke="none" fill="rgb(0, 0, 0)" d="M 94.81,26.55 C 93.68,25.39 92.22,24.4 90.62,24.26 89.83,24.18 89.05,24.37 88.37,24.79 87.69,25.18 87.12,25.74 86.73,26.42 86.34,27.09 86.13,27.86 85.99,28.65 85.91,29.05 85.86,29.45 85.77,29.88 85.72,30.08 85.64,30.36 85.49,30.57 85.46,30.62 85.44,30.66 85.45,30.65 85.45,30.64 85.43,30.71 85.42,30.73 85.41,30.8 85.4,30.89 85.39,30.98 85.33,31.73 85.45,32.57 85.5,33.4 85.52,33.81 85.54,34.23 85.53,34.65 85.52,34.87 85.51,35.08 85.47,35.29 85.43,35.5 85.38,35.73 85.2,35.89 L 85.15,35.83 C 85.33,35.51 85.24,35.06 85.19,34.67 85.13,34.27 85.06,33.87 84.98,33.46 84.83,32.65 84.66,31.85 84.64,30.94 84.65,30.83 84.66,30.7 84.68,30.58 84.7,30.5 84.7,30.46 84.74,30.36 84.79,30.25 84.82,30.2 84.84,30.16 84.93,30.04 84.96,29.9 85.01,29.7 L 85.26,28.5 C 85.45,27.68 85.73,26.83 86.22,26.1 87.17,24.64 88.92,23.64 90.67,23.89 92.39,24.16 93.79,25.26 94.87,26.5 L 94.81,26.55 Z M 94.81,26.55" />
        </g>
        <g id="rana6-group113">
            <path id="rana6-bezier112" stroke="none" fill="rgb(0, 0, 0)" d="M 109.8,48.61 C 110.27,48.62 110.75,48.7 111.21,48.87 111.66,49.04 112.13,49.36 112.38,49.87 112.59,50.28 112.92,50.77 112.73,51.43 112.61,51.75 112.37,51.99 112.11,52.09 111.86,52.2 111.61,52.24 111.35,52.23 L 111.33,52.16 C 111.69,51.81 112,51.5 112,51.23 112.03,50.97 111.98,50.54 111.83,50.1 111.73,49.74 111.43,49.43 111.05,49.2 110.68,48.97 110.24,48.79 109.79,48.69 L 109.8,48.61 Z M 109.8,48.61" />
        </g>
        <g id="rana6-group114">
            <path id="rana6-bezier113" stroke="none" fill="rgb(0, 0, 0)" d="M 109.82,52.46 C 109.35,53.04 108.56,53.07 107.9,53.06 107.21,53.03 106.53,52.89 105.87,52.71 104.55,52.32 103.33,51.75 102.06,51.3 100.8,50.84 99.51,50.43 98.27,49.93 97.02,49.44 95.78,48.89 94.5,48.52 L 94.5,48.45 C 95.91,48.4 97.22,48.86 98.52,49.23 99.81,49.64 101.05,50.2 102.29,50.75 103.53,51.27 104.74,51.9 105.99,52.35 106.62,52.57 107.26,52.76 107.92,52.84 108.55,52.9 109.31,52.91 109.76,52.42 L 109.82,52.46 Z M 109.82,52.46" />
        </g>
        <g id="rana6-group115">
            <path id="rana6-bezier114" stroke="none" fill="rgb(0, 0, 0)" d="M 105.28,52.99 C 104.56,53.62 103.46,53.86 102.53,53.49 101.63,53.18 100.75,52.86 99.86,52.57 98.97,52.29 98.06,52.08 97.19,51.8 96.3,51.51 95.43,51.26 94.5,51.02 L 94.5,50.95 C 95.46,50.77 96.44,50.88 97.37,51.07 98.31,51.27 99.19,51.65 100.07,52.01 100.94,52.37 101.8,52.77 102.66,53.14 103.46,53.56 104.46,53.46 105.23,52.94 L 105.28,52.99 Z M 105.28,52.99" />
        </g>
        <g id="rana6-group116">
            <path id="rana6-bezier115" stroke="none" fill="rgb(0, 0, 0)" d="M 93.71,51.25 C 92.37,51.23 91.02,51.23 89.68,51.25 88.34,51.26 87,51.27 85.67,51.37 85.34,51.39 85.01,51.43 84.69,51.48 84.39,51.52 84.07,51.62 83.7,51.67 83.01,51.77 82.33,51.79 81.65,51.77 80.29,51.69 78.94,51.54 77.62,51.16 L 77.63,51.08 C 78.99,51.04 80.32,51.07 81.65,51.02 82.31,51.01 82.97,50.99 83.61,50.93 83.92,50.91 84.25,50.84 84.61,50.81 84.96,50.78 85.3,50.77 85.64,50.77 88.36,50.74 91.03,50.94 93.71,51.17 L 93.71,51.25 Z M 93.71,51.25" />
        </g>
        <g id="rana6-group117">
            <path id="rana6-bezier116" stroke="none" fill="rgb(0, 0, 0)" d="M 91.66,48.9 C 88.86,48.47 86.04,48.1 83.23,47.8 L 79.01,47.45 C 77.61,47.31 76.21,47.15 74.81,47.27 L 74.79,47.2 C 76.15,46.65 77.64,46.7 79.06,46.7 80.49,46.75 81.9,46.99 83.31,47.21 86.12,47.64 88.91,48.19 91.68,48.82 L 91.66,48.9 Z M 91.66,48.9" />
        </g>
        <g id="rana6-group118">
            <path id="rana6-bezier117" stroke="none" fill="rgb(0, 0, 0)" d="M 73.33,48.47 C 73.92,49.3 74.61,50.07 75.41,50.66 75.81,50.96 76.24,51.21 76.7,51.33 77.2,51.48 77.69,51.65 78.18,51.84 79.14,52.22 80.12,52.62 80.97,53.25 81.39,53.57 81.81,53.92 82.15,54.34 82.48,54.75 82.79,55.26 82.79,55.81 L 82.72,55.83 C 82.27,54.92 81.38,54.41 80.55,53.88 79.7,53.37 78.85,52.83 77.94,52.39 77.48,52.17 77.02,51.97 76.55,51.8 76.02,51.61 75.57,51.3 75.18,50.95 74.39,50.24 73.78,49.4 73.26,48.51 L 73.33,48.47 Z M 73.33,48.47" />
        </g>
        <g id="rana6-group119">
            <path id="rana6-bezier118" stroke="none" fill="rgb(0, 0, 0)" d="M 80.86,55.16 C 81.24,55.33 81.58,55.55 81.9,55.85 82.05,55.99 82.25,56.15 82.3,56.4 82.35,56.63 82.31,56.97 82.04,57.12 L 81.97,57.1 C 81.82,56.87 81.7,56.8 81.6,56.68 81.5,56.56 81.49,56.38 81.41,56.21 81.25,55.89 81.04,55.55 80.81,55.22 L 80.86,55.16 Z M 80.86,55.16" />
        </g>
        <g id="rana6-group120">
            <path id="rana6-bezier119" stroke="none" fill="rgb(0, 0, 0)" d="M 79.35,55.58 C 79.75,55.63 80.14,55.74 80.51,55.93 80.7,56.03 80.93,56.12 81.04,56.36 81.16,56.57 81.17,57 80.87,57.12 L 80.8,57.1 C 80.66,56.86 80.53,56.88 80.43,56.79 80.32,56.72 80.26,56.55 80.15,56.41 79.91,56.15 79.62,55.89 79.32,55.64 L 79.35,55.58 Z M 79.35,55.58" />
        </g>
        <g id="rana6-group121">
            <path id="rana6-bezier120" stroke="none" fill="rgb(0, 0, 0)" d="M 79.34,56.85 C 78.69,56.91 78.04,56.92 77.36,56.68 77.19,56.62 77,56.51 76.84,56.39 76.71,56.28 76.62,56.19 76.52,56.07 76.33,55.83 76.16,55.57 76.02,55.22 L 76.07,55.16 C 76.45,55.18 76.76,55.34 77.03,55.52 77.16,55.62 77.29,55.75 77.38,55.88 77.45,55.98 77.51,56.06 77.63,56.14 77.86,56.3 78.15,56.41 78.44,56.51 78.73,56.62 79.03,56.71 79.34,56.78 L 79.34,56.85 Z M 79.34,56.85" />
        </g>
        <g id="rana6-group122">
            <path id="rana6-bezier121" stroke="none" fill="rgb(0, 0, 0)" d="M 75.79,54.98 C 74.76,54.75 73.74,54.47 72.7,54.41 72.34,54.34 72.15,54.16 71.92,54.02 L 71.27,53.58 C 70.84,53.3 70.39,53.07 69.92,52.9 69.44,52.73 68.98,52.65 68.45,52.6 67.86,52.51 67.32,52.27 66.85,51.94 66.4,51.59 66.01,51.17 65.72,50.71 65.43,50.24 65.18,49.76 65.09,49.19 L 65.17,49.19 C 65.73,50.04 66.46,50.81 67.27,51.32 67.68,51.57 68.12,51.76 68.57,51.86 69.07,51.96 69.65,52.11 70.14,52.34 70.65,52.56 71.12,52.86 71.55,53.18 71.97,53.48 72.4,53.92 72.75,54.04 73.82,54.2 74.81,54.58 75.81,54.91 L 75.79,54.98 Z M 75.79,54.98" />
        </g>
        <g id="rana6-group123">
            <path id="rana6-bezier122" stroke="none" fill="rgb(0, 0, 0)" d="M 68.87,53.89 C 69.44,55.01 70.03,56.13 70.69,57.17 70.87,57.42 71.05,57.67 71.24,57.88 71.45,58.1 71.6,58.29 71.74,58.3 72.05,58.38 72.36,58.45 72.68,58.61 72.99,58.75 73.33,59.07 73.33,59.43 L 73.26,59.46 C 72.85,58.99 72.24,59.14 71.61,59.03 71.57,59.03 71.38,59 71.27,58.94 71.16,58.88 71.08,58.81 71,58.75 70.86,58.61 70.75,58.47 70.65,58.33 70.47,58.05 70.32,57.76 70.17,57.47 69.6,56.31 69.18,55.12 68.8,53.91 L 68.87,53.89 Z M 68.87,53.89" />
        </g>
        <g id="rana6-group124">
            <path id="rana6-bezier123" stroke="none" fill="rgb(0, 0, 0)" d="M 76.06,57.87 C 76.49,57.92 76.92,58.02 77.33,58.23 77.53,58.32 77.78,58.41 77.91,58.64 78.03,58.86 78.1,59.19 77.92,59.44 L 77.84,59.45 C 77.62,59.28 77.48,59.23 77.33,59.13 77.19,59.04 77.12,58.86 76.98,58.72 76.71,58.45 76.38,58.18 76.03,57.94 L 76.06,57.87 Z M 76.06,57.87" />
        </g>
        <g id="rana6-group125">
            <path id="rana6-bezier124" stroke="none" fill="rgb(0, 0, 0)" d="M 78.22,57.86 C 78.63,57.85 79.05,57.97 79.41,58.24 79.59,58.36 79.8,58.51 79.86,58.73 79.92,58.96 79.91,59.21 79.75,59.44 L 79.68,59.45 C 79.43,59.31 79.32,59.19 79.2,59.08 79.09,58.97 79.07,58.81 78.98,58.66 78.81,58.39 78.54,58.13 78.21,57.94 L 78.22,57.86 Z M 78.22,57.86" />
        </g>
        <g id="rana6-group126">
            <path id="rana6-bezier125" stroke="none" fill="rgb(0, 0, 0)" d="M 80.41,58.65 C 80.63,58.72 80.84,58.82 81.02,58.97 81.12,59.04 81.26,59.09 81.27,59.23 81.29,59.37 81.26,59.54 81.08,59.69 L 81.01,59.7 C 80.79,59.65 80.69,59.63 80.61,59.57 80.53,59.53 80.56,59.41 80.54,59.31 80.48,59.13 80.42,58.92 80.35,58.7 L 80.41,58.65 Z M 80.41,58.65" />
        </g>
        <g id="rana6-group127">
            <path id="rana6-bezier126" stroke="none" fill="rgb(0, 0, 0)" d="M 75.78,57.48 C 75.28,57.37 74.8,57.12 74.43,56.72 74.24,56.53 74.02,56.32 73.97,56.03 73.92,55.76 73.96,55.46 74.13,55.2 L 74.21,55.19 C 74.44,55.41 74.55,55.6 74.68,55.77 74.79,55.95 74.81,56.16 74.91,56.36 75.11,56.75 75.42,57.12 75.81,57.41 L 75.78,57.48 Z M 75.78,57.48" />
        </g>
        <g id="rana6-group128">
            <path id="rana6-bezier127" stroke="none" fill="rgb(0, 0, 0)" d="M 67.67,53.35 C 64.2,53.28 60.73,53.31 57.26,53.47 53.8,53.63 50.33,53.87 46.96,54.57 43.63,55.46 40.18,56.26 36.7,56.52 33.23,56.76 29.66,56.84 26.29,55.85 L 26.31,55.78 C 29.73,56.34 33.2,56.14 36.63,55.78 40.07,55.41 43.44,54.81 46.84,53.98 50.29,53.34 53.78,53.18 57.25,53.09 60.73,53.04 64.2,53.1 67.67,53.28 L 67.67,53.35 Z M 67.67,53.35" />
        </g>
        <g id="rana6-group129">
            <path id="rana6-bezier128" stroke="none" fill="rgb(0, 0, 0)" d="M 24.56,57.86 C 25.26,57.97 25.95,58.16 26.61,58.49 26.94,58.65 27.3,58.83 27.53,59.17 27.75,59.5 27.88,59.99 27.67,60.36 L 27.59,60.36 C 27.38,60.03 27.18,59.85 26.96,59.66 26.73,59.47 26.54,59.21 26.29,59 25.77,58.6 25.16,58.24 24.54,57.94 L 24.56,57.86 Z M 24.56,57.86" />
        </g>
        <g id="rana6-group130">
            <path id="rana6-bezier129" stroke="none" fill="rgb(0, 0, 0)" d="M 27.63,58.32 C 28.07,58.28 28.54,58.36 28.96,58.63 29.17,58.75 29.41,58.91 29.49,59.17 29.57,59.42 29.54,59.7 29.38,59.94 L 29.3,59.95 C 29.06,59.77 28.95,59.64 28.82,59.52 28.71,59.4 28.68,59.23 28.57,59.08 28.35,58.81 28.01,58.56 27.62,58.4 L 27.63,58.32 Z M 27.63,58.32" />
        </g>
        <g id="rana6-group131">
            <path id="rana6-bezier130" stroke="none" fill="rgb(0, 0, 0)" d="M 29.74,58.33 C 30.02,58.45 30.28,58.6 30.52,58.78 30.65,58.87 30.81,58.93 30.86,59.1 30.9,59.25 30.96,59.5 30.75,59.7 L 30.68,59.69 C 30.47,59.6 30.35,59.6 30.24,59.52 30.14,59.45 30.12,59.3 30.06,59.17 29.94,58.92 29.81,58.66 29.69,58.39 L 29.74,58.33 Z M 29.74,58.33" />
        </g>
        <g id="rana6-group132">
            <path id="rana6-bezier131" stroke="none" fill="rgb(0, 0, 0)" d="M 23.81,58.32 C 24.13,58.35 24.46,58.45 24.75,58.68 24.89,58.78 25.07,58.92 25.1,59.13 25.12,59.34 25.05,59.56 24.83,59.7 L 24.76,59.69 C 24.56,59.53 24.47,59.45 24.39,59.38 24.31,59.31 24.34,59.19 24.29,59.07 24.19,58.84 24.01,58.61 23.78,58.39 L 23.81,58.32 Z M 23.81,58.32" />
        </g>
        <g id="rana6-group133">
            <path id="rana6-bezier132" stroke="none" fill="rgb(0, 0, 0)" d="M 22.87,59.98 C 22.19,59.86 21.47,59.68 20.94,59.08 20.82,58.93 20.73,58.74 20.68,58.54 20.64,58.3 20.64,58.21 20.59,58.04 20.5,57.74 20.36,57.43 20.21,57.14 19.9,56.55 19.48,56.02 19.13,55.46 18.75,54.91 18.41,54.36 17.87,53.94 L 17.89,53.87 C 18.66,53.93 19.25,54.49 19.72,55.01 20.2,55.56 20.5,56.22 20.76,56.89 20.89,57.23 21,57.57 21.06,57.94 21.13,58.37 21.06,58.6 21.25,58.87 21.57,59.39 22.25,59.71 22.89,59.91 L 22.87,59.98 Z M 22.87,59.98" />
        </g>
        <g id="rana6-group134">
            <path id="rana6-bezier133" stroke="none" fill="rgb(0, 0, 0)" d="M 23.29,53.94 C 22.21,53.75 21.13,53.58 20.06,53.44 19.52,53.37 18.98,53.37 18.46,53.27 17.93,53.18 17.44,53.03 16.9,53.02 L 16.86,52.95 C 17.35,52.54 17.99,52.53 18.54,52.52 19.1,52.53 19.64,52.71 20.17,52.85 21.24,53.12 22.28,53.47 23.31,53.87 L 23.29,53.94 Z M 23.29,53.94" />
        </g>
        <g id="rana6-group135">
            <path id="rana6-bezier134" stroke="none" fill="rgb(0, 0, 0)" d="M 17.14,55.12 C 16.8,54.5 16.2,54.07 15.57,53.83 14.94,53.58 14.24,53.5 13.56,53.51 12.89,53.55 12.09,53.66 11.34,53.41 10.97,53.28 10.6,53.11 10.31,52.8 10.02,52.51 9.82,52.09 9.93,51.69 L 10,51.69 C 10.27,52.36 10.91,52.56 11.53,52.68 12.18,52.8 12.83,52.87 13.58,52.91 14.32,52.97 15.06,53.14 15.73,53.49 16.38,53.85 16.95,54.4 17.21,55.1 L 17.14,55.12 Z M 17.14,55.12" />
        </g>
        <g id="rana6-group136">
            <path id="rana6-bezier135" stroke="none" fill="rgb(0, 0, 0)" d="M 99.92,41.28 C 99.91,42.1 99.27,43 98.3,43.05 97.35,43.11 96.43,42.29 96.41,41.28 96.39,40.79 96.57,40.27 96.91,39.89 97.26,39.51 97.78,39.3 98.3,39.32 98.81,39.33 99.29,39.63 99.56,40.02 99.84,40.4 99.93,40.86 99.92,41.28 Z M 99.84,41.28 C 99.83,40.86 99.59,40.5 99.28,40.3 98.96,40.09 98.61,40.05 98.3,40.07 97.68,40.1 97.06,40.58 97.01,41.28 96.95,41.96 97.55,42.65 98.3,42.67 98.66,42.7 99.05,42.59 99.36,42.34 99.66,42.09 99.86,41.69 99.84,41.28 Z M 99.84,41.28" />
        </g>
        <g id="rana6-group137">
            <path id="rana6-bezier136" stroke="none" fill="rgb(0, 0, 0)" d="M 101.84,42.57 C 101.68,41.88 101.45,41.22 101.15,40.62 100.99,40.32 100.77,40.08 100.63,39.81 100.48,39.53 100.33,39.27 100.11,38.94 L 100.15,38.87 C 100.56,38.84 100.96,39.07 101.23,39.36 101.51,39.65 101.61,40.04 101.71,40.4 101.91,41.12 101.97,41.85 101.92,42.57 L 101.84,42.57 Z M 101.84,42.57" />
        </g>
        <g id="rana6-group138">
            <path id="rana6-bezier137" stroke="none" fill="rgb(0, 0, 0)" d="M 95.25,41.48 C 95.59,42.32 96.21,43.03 96.97,43.36 97.36,43.53 97.76,43.55 98.17,43.63 98.58,43.71 99.01,43.76 99.5,43.87 L 99.51,43.94 C 99.1,44.23 98.61,44.36 98.11,44.38 97.6,44.39 97.1,44.17 96.68,43.89 95.82,43.34 95.32,42.41 95.18,41.5 L 95.25,41.48 Z M 95.25,41.48" />
        </g>
        <g id="rana6-group139">
            <path id="rana6-bezier138" stroke="none" fill="rgb(0, 0, 0)" d="M 109.76,47.47 C 109.1,46.8 108.51,46.06 108.02,45.25 107.53,44.45 107.13,43.54 107.05,42.57 106.83,40.69 107.04,38.79 106.03,37.18 105.35,35.34 105.16,33.42 105.28,31.51 105.45,29.62 105.89,27.69 106.93,26.09 L 107,26.13 C 106.36,27.89 106.06,29.71 106.03,31.55 106.01,33.36 106.04,35.26 106.59,36.96 106.74,37.33 107.01,37.82 107.11,38.3 107.23,38.77 107.29,39.26 107.32,39.73 107.38,40.68 107.36,41.61 107.42,42.54 107.45,43.45 107.78,44.32 108.21,45.14 108.65,45.95 109.2,46.72 109.81,47.42 L 109.76,47.47 Z M 109.76,47.47" />
        </g>
        <g id="rana6-group140">
            <path id="rana6-bezier139" stroke="none" fill="rgb(0, 0, 0)" d="M 94.82,30.64 C 94.32,30.42 93.84,30.16 93.39,29.86 93.16,29.71 92.9,29.58 92.74,29.34 92.59,29.11 92.44,28.81 92.51,28.46 L 92.58,28.43 C 92.87,28.57 93.08,28.67 93.28,28.83 93.49,28.97 93.62,29.2 93.79,29.4 94.13,29.79 94.49,30.18 94.86,30.58 L 94.82,30.64 Z M 94.82,30.64" />
        </g>
        <g id="rana6-group141">
            <path id="rana6-bezier140" stroke="none" fill="rgb(0, 0, 0)" d="M 92,29.15 C 91.59,29.11 91.15,29.33 90.87,29.59 90.84,29.62 90.82,29.66 90.82,29.67 90.82,29.7 90.8,29.63 90.85,29.68 L 90.87,29.7 C 90.88,29.71 90.92,29.78 90.92,29.82 90.9,29.91 90.85,29.95 90.84,29.96 90.79,29.99 90.76,30 90.73,30.01 90.67,30.03 90.61,30.05 90.56,30.07 L 89.92,30.23 C 89.71,30.29 89.5,30.34 89.34,30.42 89.3,30.44 89.27,30.47 89.27,30.47 89.28,30.5 89.31,30.37 89.29,30.35 89.27,30.34 89.38,30.41 89.47,30.46 89.74,30.62 89.89,30.96 89.88,31.25 89.87,31.53 89.79,31.75 89.75,31.96 89.69,32.16 89.7,32.35 89.73,32.33 89.75,32.37 89.72,32.27 89.98,32.55 90.08,32.7 90.07,32.91 90.03,33.02 89.99,33.14 89.94,33.2 89.89,33.27 89.52,33.7 89.12,33.89 88.85,34.14 88.78,34.17 88.75,34.28 88.77,34.14 88.72,33.93 88.62,33.98 88.79,34.05 88.86,34.11 89.02,34.14 89.07,34.43 89.06,34.72 88.91,34.77 88.86,34.83 88.73,34.92 88.62,34.96 88.5,34.99 L 87.87,35.18 C 87.76,35.21 87.66,35.24 87.59,35.28 87.55,35.31 87.54,35.31 87.53,35.31 87.52,35.33 87.57,35.38 87.6,35.41 L 87.57,35.48 C 87.52,35.46 87.45,35.46 87.39,35.38 87.33,35.28 87.4,35.17 87.44,35.12 87.53,35.02 87.62,34.95 87.72,34.88 L 88.27,34.52 C 88.36,34.47 88.44,34.4 88.48,34.36 88.51,34.35 88.46,34.31 88.44,34.49 88.48,34.66 88.53,34.64 88.51,34.64 88.49,34.62 88.12,34.6 88.06,34.14 88.1,33.77 88.25,33.71 88.33,33.6 88.69,33.24 89.09,33.01 89.32,32.8 89.34,32.78 89.35,32.75 89.35,32.77 89.34,32.78 89.34,32.87 89.38,32.92 89.51,33.03 89.25,32.85 89.16,32.69 88.96,32.28 89.11,32 89.17,31.79 89.33,31.35 89.43,31.03 89.2,30.87 89.13,30.8 89.02,30.78 88.88,30.57 88.79,30.46 88.86,30.2 88.95,30.16 89.03,30.09 89.1,30.06 89.16,30.03 89.4,29.94 89.62,29.9 89.84,29.87 L 90.49,29.77 90.64,29.74 C 90.66,29.74 90.68,29.73 90.68,29.73 90.69,29.73 90.66,29.74 90.65,29.8 90.64,29.83 90.68,29.89 90.69,29.89 L 90.67,29.88 C 90.64,29.87 90.52,29.7 90.58,29.61 90.61,29.52 90.67,29.47 90.71,29.43 91.1,29.15 91.55,28.99 92.01,29.07 L 92,29.15 Z M 92,29.15" />
        </g>
        <g id="rana6-group142">
            <path id="rana6-bezier141" stroke="none" fill="rgb(0, 0, 0)" d="M 82.75,28.9 C 81.77,28.81 80.8,28.78 79.84,28.81 79.36,28.83 78.89,28.92 78.42,28.92 77.95,28.91 77.5,28.91 76.98,28.9 L 76.95,28.83 C 77.34,28.45 77.85,28.27 78.35,28.17 78.86,28.07 79.37,28.15 79.86,28.21 80.85,28.31 81.82,28.53 82.76,28.82 L 82.75,28.9 Z M 82.75,28.9" />
        </g>
        <g id="rana6-group143">
            <path id="rana6-bezier142" stroke="none" fill="rgb(0, 0, 0)" d="M 78.34,33.18 C 77.57,33.38 76.87,33.77 76.24,34.21 75.93,34.44 75.66,34.72 75.33,34.93 75,35.13 74.66,35.32 74.24,35.47 L 74.19,35.42 C 74.32,34.99 74.57,34.64 74.87,34.34 75.16,34.04 75.56,33.87 75.94,33.69 76.69,33.34 77.51,33.1 78.33,33.1 L 78.34,33.18 Z M 78.34,33.18" />
        </g>
        <g id="rana6-group144">
            <path id="rana6-bezier143" stroke="none" fill="rgb(0, 0, 0)" d="M 76.29,31.9 C 75.01,32.5 73.78,33.19 72.62,33.96 72.04,34.36 71.51,34.81 70.96,35.21 70.39,35.6 69.86,36.01 69.29,36.46 L 69.22,36.42 C 69.47,35.72 69.95,35.12 70.48,34.63 71.02,34.12 71.67,33.78 72.31,33.45 73.57,32.77 74.9,32.23 76.26,31.82 L 76.29,31.9 Z M 76.29,31.9" />
        </g>
        <g id="rana6-group145">
            <path id="rana6-bezier144" stroke="none" fill="rgb(0, 0, 0)" d="M 10.95,48.89 C 10.55,49.38 10.17,49.87 9.82,50.37 9.65,50.62 9.53,50.9 9.32,51.11 9.1,51.32 8.89,51.51 8.58,51.71 L 8.51,51.68 C 8.45,51.31 8.56,50.96 8.71,50.67 8.86,50.38 9.13,50.18 9.37,49.97 9.85,49.54 10.36,49.16 10.9,48.83 L 10.95,48.89 Z M 10.95,48.89" />
        </g>
        <g id="rana6-group146">
            <path id="rana6-bezier145" stroke="none" fill="rgb(0, 0, 0)" d="M 16.9,45.33 C 16.1,46.04 15.3,46.77 14.53,47.5 14.14,47.87 13.8,48.28 13.4,48.61 13,48.95 12.56,49.22 12.21,49.62 L 12.13,49.6 C 12.11,49.29 12.25,49.01 12.38,48.76 12.52,48.5 12.7,48.28 12.87,48.07 13.23,47.65 13.7,47.35 14.14,47.04 15.02,46.39 15.92,45.81 16.86,45.27 L 16.9,45.33 Z M 16.9,45.33" />
        </g>
        <g id="rana6-group147">
            <path id="rana6-bezier146" stroke="none" fill="rgb(0, 0, 0)" d="M 22.12,45.33 C 21.33,45.67 20.53,45.98 19.73,46.26 19.33,46.41 18.93,46.6 18.51,46.65 18.08,46.7 17.63,46.73 17.18,46.59 L 17.17,46.51 C 17.55,46.25 17.93,46.07 18.33,45.92 18.72,45.78 19.15,45.75 19.57,45.68 20.41,45.53 21.25,45.39 22.1,45.26 L 22.12,45.33 Z M 22.12,45.33" />
        </g>
        <g id="rana6-group148">
            <path id="rana6-bezier147" stroke="none" fill="rgb(0, 0, 0)" d="M 10.94,46.58 C 10.4,47.14 9.85,47.7 9.3,48.24 9.03,48.52 8.8,48.83 8.48,49.05 8.17,49.28 7.83,49.45 7.45,49.63 L 7.39,49.59 C 7.46,49.13 7.73,48.8 7.98,48.5 8.24,48.19 8.59,48 8.92,47.78 9.56,47.33 10.22,46.91 10.9,46.52 L 10.94,46.58 Z M 10.94,46.58" />
        </g>
        <g id="rana6-group149">
            <path id="rana6-bezier148" stroke="none" fill="rgb(0, 0, 0)" d="M 14.19,42.02 C 13.56,42.6 12.94,43.18 12.33,43.77 12.03,44.07 11.77,44.4 11.44,44.65 11.1,44.9 10.75,45.13 10.33,45.32 L 10.27,45.27 C 10.39,44.81 10.64,44.44 10.93,44.1 11.21,43.77 11.59,43.55 11.95,43.31 12.66,42.81 13.39,42.36 14.15,41.95 L 14.19,42.02 Z M 14.19,42.02" />
        </g>
        <g id="rana6-group150">
            <path id="rana6-bezier149" stroke="none" fill="rgb(0, 0, 0)" d="M 11.25,42.6 C 10.56,43.03 9.88,43.46 9.22,43.9 8.89,44.12 8.59,44.39 8.24,44.56 7.88,44.72 7.51,44.87 7.07,44.95 L 7.02,44.89 C 7.22,44.49 7.52,44.18 7.84,43.92 8.16,43.66 8.56,43.53 8.93,43.37 9.68,43.04 10.44,42.76 11.22,42.53 L 11.25,42.6 Z M 11.25,42.6" />
        </g>
        <g id="rana6-group151">
            <path id="rana6-bezier150" stroke="none" fill="rgb(0, 0, 0)" d="M 9.72,41.31 C 9.06,41.19 8.39,41.16 7.76,41.23 7.44,41.27 7.16,41.39 6.86,41.41 6.56,41.44 6.27,41.48 5.88,41.52 L 5.84,41.46 C 5.99,41.09 6.32,40.84 6.66,40.69 7.02,40.54 7.4,40.59 7.76,40.63 8.47,40.7 9.14,40.91 9.75,41.24 L 9.72,41.31 Z M 9.72,41.31" />
        </g>
        <g id="rana6-group152">
            <path id="rana6-bezier151" stroke="none" fill="rgb(0, 0, 0)" d="M 110.44,51.42 C 110.18,51.35 109.94,51.21 109.75,50.97 109.65,50.86 109.53,50.71 109.56,50.54 109.59,50.37 109.7,50.2 109.93,50.14 L 110,50.16 C 110.17,50.33 110.24,50.4 110.3,50.47 110.36,50.53 110.29,50.62 110.3,50.72 110.31,50.91 110.38,51.14 110.49,51.37 L 110.44,51.42 Z M 110.44,51.42" />
        </g>
        <g id="rana6-group153">
            <path id="rana6-bezier152" stroke="none" fill="rgb(0, 0, 0)" d="M 67.67,34.9 C 66.46,35.13 65.29,35.57 64.23,36.16 63.71,36.46 63.25,36.85 62.75,37.18 62.25,37.5 61.78,37.86 61.23,38.22 L 61.17,38.17 C 61.4,37.55 61.81,37.02 62.29,36.59 62.77,36.14 63.38,35.87 63.97,35.62 65.15,35.12 66.41,34.84 67.67,34.82 L 67.67,34.9 Z M 67.67,34.9" />
        </g>
        <g id="rana6-group154">
            <path id="rana6-bezier153" stroke="none" fill="rgb(0, 0, 0)" d="M 60.51,35.48 C 59.06,35.8 57.64,36.22 56.29,36.78 55.62,37.08 54.99,37.44 54.36,37.77 53.73,38.09 53.13,38.45 52.54,38.92 L 52.47,38.88 C 52.75,38.14 53.34,37.56 53.98,37.12 54.62,36.68 55.36,36.44 56.08,36.22 57.53,35.77 59.01,35.51 60.5,35.41 L 60.51,35.48 Z M 60.51,35.48" />
        </g>
        <g id="rana6-group155">
            <path id="rana6-bezier154" stroke="none" fill="rgb(0, 0, 0)" d="M 58.02,37.56 C 57,38.19 56.02,38.87 55.1,39.6 54.65,39.98 54.25,40.41 53.81,40.77 53.37,41.14 52.95,41.49 52.54,41.96 L 52.47,41.93 C 52.51,41.28 52.88,40.7 53.28,40.23 53.7,39.76 54.24,39.44 54.75,39.12 55.78,38.47 56.87,37.93 57.99,37.49 L 58.02,37.56 Z M 58.02,37.56" />
        </g>
        <g id="rana6-group156">
            <path id="rana6-bezier155" stroke="none" fill="rgb(0, 0, 0)" d="M 50.11,39.77 C 49.31,40.48 48.57,41.26 47.89,42.07 47.56,42.48 47.28,42.93 46.93,43.32 46.58,43.71 46.23,44.09 45.79,44.46 L 45.72,44.43 C 45.8,43.85 46.04,43.34 46.33,42.87 46.63,42.39 47.05,42.03 47.45,41.66 48.26,40.91 49.13,40.25 50.07,39.7 L 50.11,39.77 Z M 50.11,39.77" />
        </g>
        <g id="rana6-group157">
            <path id="rana6-bezier156" stroke="none" fill="rgb(0, 0, 0)" d="M 47.01,40.77 C 45.99,41.57 44.9,42.27 43.74,42.86 43.16,43.15 42.57,43.46 41.92,43.6 41.27,43.72 40.57,43.77 39.92,43.56 L 39.92,43.49 C 40.55,43.28 41.13,43.09 41.71,42.87 42.29,42.66 42.9,42.52 43.5,42.31 44.68,41.86 45.84,41.32 46.96,40.7 L 47.01,40.77 Z M 47.01,40.77" />
        </g>
        <g id="rana6-group158">
            <path id="rana6-bezier157" stroke="none" fill="rgb(0, 0, 0)" d="M 39.94,42.6 C 38.58,43.29 37.24,44 35.93,44.73 35.27,45.11 34.65,45.53 33.99,45.87 33.35,46.24 32.62,46.5 32.12,47.02 L 32.05,47 C 32.11,46.57 32.43,46.26 32.69,45.98 32.97,45.69 33.29,45.46 33.6,45.23 34.24,44.79 34.96,44.51 35.66,44.2 37.05,43.58 38.47,43.03 39.91,42.54 L 39.94,42.6 Z M 39.94,42.6" />
        </g>
        <g id="rana6-group159">
            <path id="rana6-bezier158" stroke="none" fill="rgb(0, 0, 0)" d="M 35.18,42.79 C 34.66,43.14 34.16,43.65 33.64,44.07 33.12,44.51 32.59,44.93 32.04,45.33 31.49,45.74 30.93,46.16 30.27,46.41 29.63,46.65 28.86,46.83 28.17,46.58 L 28.18,46.51 C 28.84,46.34 29.39,46.04 29.96,45.73 30.52,45.42 31.13,45.16 31.71,44.83 32.29,44.5 32.86,44.14 33.42,43.77 34.01,43.43 34.52,43.01 35.17,42.71 L 35.18,42.79 Z M 35.18,42.79" />
        </g>
        <g id="rana6-group160">
            <path id="rana6-bezier159" stroke="none" fill="rgb(0, 0, 0)" d="M 31.1,44.05 C 30.08,44.36 29.07,44.68 28.08,45.02 27.59,45.2 27.11,45.43 26.62,45.56 26.12,45.69 25.62,45.77 25.11,45.95 L 25.06,45.9 C 25.35,45.36 25.88,45.09 26.36,44.85 26.86,44.62 27.4,44.55 27.92,44.44 28.97,44.23 30.02,44.08 31.08,43.98 L 31.1,44.05 Z M 31.1,44.05" />
        </g>
        <g id="rana6-group161">
            <path id="rana6-bezier160" stroke="none" fill="rgb(0, 0, 0)" d="M 36.02,38.94 C 34.71,39.56 33.41,40.18 32.12,40.82 31.48,41.15 30.86,41.53 30.2,41.8 29.54,42.08 28.88,42.33 28.2,42.6 L 28.15,42.54 C 28.61,41.93 29.24,41.51 29.87,41.13 30.5,40.76 31.2,40.53 31.88,40.28 33.23,39.75 34.61,39.29 35.99,38.87 L 36.02,38.94 Z M 36.02,38.94" />
        </g>
        <g id="rana6-group162">
            <path id="rana6-bezier161" stroke="none" fill="rgb(0, 0, 0)" d="M 26.85,41.52 L 23,42.72 C 22.36,42.92 21.74,43.18 21.09,43.33 20.44,43.47 19.79,43.59 19.11,43.67 L 19.07,43.61 C 19.61,43.14 20.25,42.86 20.88,42.61 21.51,42.37 22.19,42.27 22.85,42.14 24.17,41.86 25.5,41.63 26.83,41.45 L 26.85,41.52 Z M 26.85,41.52" />
        </g>
        <g id="rana6-group163">
            <path id="rana6-bezier162" stroke="none" fill="rgb(0, 0, 0)" d="M 19.65,41.24 C 18.53,41.55 17.44,41.91 16.4,42.35 15.88,42.58 15.4,42.87 14.92,43.1 14.43,43.35 13.97,43.57 13.6,44.03 L 13.53,44.01 C 13.52,43.34 14.05,42.81 14.53,42.46 15.04,42.1 15.63,41.94 16.19,41.78 17.33,41.45 18.48,41.26 19.63,41.17 L 19.65,41.24 Z M 19.65,41.24" />
        </g>
        <g id="rana6-group164">
            <path id="rana6-bezier163" stroke="none" fill="rgb(0, 0, 0)" d="M 12.68,37.56 C 11.6,37.79 10.52,38.02 9.46,38.28 8.93,38.42 8.42,38.61 7.89,38.7 L 6.28,38.93 6.24,38.87 C 6.63,38.41 7.18,38.16 7.7,37.97 8.24,37.78 8.8,37.75 9.36,37.69 10.46,37.56 11.56,37.5 12.67,37.49 L 12.68,37.56 Z M 12.68,37.56" />
        </g>
        <g id="rana6-group165">
            <path id="rana6-bezier164" stroke="none" fill="rgb(0, 0, 0)" d="M 15,31.9 C 13.79,31.98 12.58,32.06 11.38,32.17 10.78,32.23 10.19,32.35 9.59,32.36 9,32.38 8.41,32.33 7.82,32.42 L 7.78,32.36 C 8,32.1 8.31,31.97 8.61,31.85 8.91,31.74 9.21,31.67 9.52,31.61 10.13,31.5 10.75,31.55 11.36,31.57 12.58,31.59 13.8,31.68 15.01,31.82 L 15,31.9 Z M 15,31.9" />
        </g>
        <g id="rana6-group166">
            <path id="rana6-bezier165" stroke="none" fill="rgb(0, 0, 0)" d="M 20.36,27.12 C 19.4,26.64 18.42,26.19 17.44,25.79 16.94,25.6 16.43,25.46 15.96,25.24 L 14.52,24.56 14.53,24.49 C 15.09,24.31 15.68,24.4 16.21,24.54 16.76,24.68 17.23,24.98 17.7,25.25 18.65,25.78 19.55,26.39 20.4,27.06 L 20.36,27.12 Z M 20.36,27.12" />
        </g>
        <g id="rana6-group167">
            <path id="rana6-bezier166" stroke="none" fill="rgb(0, 0, 0)" d="M 27.61,21.81 L 24.3,20.38 C 23.74,20.15 23.17,19.97 22.65,19.69 22.12,19.42 21.62,19.08 21.09,18.81 L 21.09,18.74 C 21.75,18.61 22.37,18.82 22.94,19 23.52,19.2 24.04,19.54 24.56,19.84 25.62,20.44 26.64,21.07 27.65,21.74 L 27.61,21.81 Z M 27.61,21.81" />
        </g>
        <g id="rana6-group168">
            <path id="rana6-bezier167" stroke="none" fill="rgb(0, 0, 0)" d="M 35.98,18.8 C 34.99,18.03 34.02,17.22 33.1,16.36 32.63,15.94 32.14,15.53 31.76,15.01 31.57,14.75 31.39,14.49 31.25,14.19 31.12,13.89 30.93,13.56 31.05,13.18 L 31.12,13.2 C 31.38,13.7 31.92,14.08 32.33,14.53 32.76,14.96 33.12,15.47 33.53,15.95 34.35,16.88 35.19,17.82 36.03,18.75 L 35.98,18.8 Z M 35.98,18.8" />
        </g>
        <g id="rana6-group169">
            <path id="rana6-bezier168" stroke="none" fill="rgb(0, 0, 0)" d="M 44.15,16.01 C 43.3,15.42 42.48,14.78 41.7,14.09 41.31,13.75 40.88,13.43 40.57,13 40.27,12.57 39.99,12.1 39.89,11.55 L 39.95,11.51 C 40.39,11.83 40.77,12.16 41.14,12.51 41.51,12.85 41.79,13.28 42.13,13.67 42.8,14.44 43.49,15.2 44.2,15.96 L 44.15,16.01 Z M 44.15,16.01" />
        </g>
        <g id="rana6-group170">
            <path id="rana6-bezier169" stroke="none" fill="rgb(0, 0, 0)" d="M 52.48,16.02 C 51.55,15.52 50.65,14.95 49.81,14.28 49.39,13.95 48.94,13.63 48.63,13.16 48.34,12.71 48.03,12.11 48.22,11.53 L 48.29,11.53 C 48.52,12.01 48.87,12.33 49.21,12.69 49.56,13.04 49.86,13.46 50.21,13.84 50.94,14.58 51.72,15.28 52.53,15.95 L 52.48,16.02 Z M 52.48,16.02" />
        </g>
        <g id="rana6-group171">
            <path id="rana6-bezier170" stroke="none" fill="rgb(0, 0, 0)" d="M 55.23,16.47 C 54.52,15.84 53.87,15.13 53.32,14.34 53.04,13.94 52.73,13.53 52.62,13.02 52.51,12.54 52.51,11.91 52.89,11.51 L 52.96,11.54 C 52.99,12.03 53.16,12.39 53.33,12.79 53.51,13.18 53.64,13.61 53.83,14.03 54.24,14.85 54.74,15.65 55.28,16.42 L 55.23,16.47 Z M 55.23,16.47" />
        </g>
        <g id="rana6-group172">
            <path id="rana6-bezier171" stroke="none" fill="rgb(0, 0, 0)" d="M 60.48,16.8 C 59.81,16.05 59.13,15.31 58.45,14.59 58.1,14.24 57.72,13.92 57.41,13.55 57.1,13.17 56.83,12.78 56.49,12.4 L 56.52,12.33 C 57.09,12.36 57.55,12.7 57.95,13.02 58.34,13.35 58.62,13.79 58.91,14.21 59.51,15.03 60.04,15.88 60.54,16.76 L 60.48,16.8 Z M 60.48,16.8" />
        </g>
        <g id="rana6-group173">
            <path id="rana6-bezier172" stroke="none" fill="rgb(0, 0, 0)" d="M 67.65,17.14 C 66.3,16.33 65,15.43 63.77,14.44 63.15,13.94 62.51,13.45 62.01,12.81 61.77,12.48 61.53,12.14 61.36,11.76 61.2,11.39 61.06,10.94 61.16,10.53 L 61.24,10.53 C 61.49,11.26 62.06,11.76 62.58,12.31 63.11,12.85 63.61,13.44 64.17,13.99 65.29,15.06 66.48,16.09 67.69,17.08 L 67.65,17.14 Z M 67.65,17.14" />
        </g>
        <g id="rana6-group174">
            <path id="rana6-bezier173" stroke="none" fill="rgb(0, 0, 0)" d="M 71.04,15.05 C 70.34,14.41 69.66,13.75 69.01,13.05 68.68,12.71 68.32,12.38 68.07,11.96 67.85,11.54 67.58,11.1 67.63,10.53 L 67.71,10.52 C 68.02,10.87 68.38,11.17 68.68,11.52 68.99,11.87 69.21,12.28 69.48,12.67 L 71.1,15 71.04,15.05 Z M 71.04,15.05" />
        </g>
        <g id="rana6-group175">
            <path id="rana6-bezier174" stroke="none" fill="rgb(0, 0, 0)" d="M 76.02,16.81 L 73.47,15.08 C 73.04,14.8 72.58,14.56 72.2,14.24 71.81,13.92 71.46,13.55 71.06,13.23 L 71.07,13.16 C 71.67,13.11 72.16,13.38 72.62,13.62 73.08,13.88 73.45,14.25 73.84,14.6 74.61,15.28 75.36,16 76.07,16.75 L 76.02,16.81 Z M 76.02,16.81" />
        </g>
        <g id="rana6-group176">
            <path id="rana6-bezier175" stroke="none" fill="rgb(0, 0, 0)" d="M 78.19,16.47 C 77.6,15.91 77.21,15.18 76.93,14.42 76.8,14.04 76.64,13.65 76.65,13.23 76.65,12.83 76.72,12.41 76.93,12.03 L 77,12.03 C 77.2,12.42 77.3,12.79 77.39,13.15 77.48,13.52 77.46,13.89 77.52,14.27 77.65,15 77.85,15.75 78.24,16.42 L 78.19,16.47 Z M 78.19,16.47" />
        </g>
        <g id="rana6-group177">
            <path id="rana6-bezier176" stroke="none" fill="rgb(0, 0, 0)" d="M 83.9,19.55 C 82.98,18.81 82.11,18.02 81.3,17.15 80.89,16.72 80.46,16.3 80.16,15.76 79.88,15.24 79.61,14.63 79.68,13.99 L 79.75,13.98 C 80.08,14.48 80.43,14.9 80.78,15.35 81.14,15.79 81.42,16.29 81.76,16.77 82.45,17.7 83.19,18.61 83.95,19.5 L 83.9,19.55 Z M 83.9,19.55" />
        </g>
        <g id="rana6-group178">
            <path id="rana6-bezier177" stroke="none" fill="rgb(0, 0, 0)" d="M 84.22,17.12 C 83.99,16.48 83.82,15.83 83.71,15.16 83.65,14.82 83.56,14.47 83.64,14.12 83.72,13.78 83.86,13.38 84.22,13.17 L 84.29,13.21 84.39,14.18 C 84.41,14.48 84.34,14.8 84.31,15.12 84.28,15.77 84.28,16.44 84.29,17.1 L 84.22,17.12 Z M 84.22,17.12" />
        </g>
        <g id="rana6-group179">
            <path id="rana6-bezier178" stroke="none" fill="rgb(0, 0, 0)" d="M 87.42,21.34 C 86.77,20.46 86.26,19.48 85.93,18.4 85.77,17.87 85.61,17.31 85.66,16.73 85.72,16.15 85.91,15.57 86.3,15.14 L 86.37,15.16 C 86.37,15.74 86.37,16.23 86.41,16.74 86.46,17.24 86.44,17.75 86.52,18.27 86.69,19.29 87.03,20.32 87.48,21.3 L 87.42,21.34 Z M 87.42,21.34" />
        </g>
        <g id="rana6-group180">
            <path id="rana6-bezier179" stroke="none" fill="rgb(0, 0, 0)" d="M 90.57,20.31 C 89.87,19.97 89.2,19.54 88.61,19 88.32,18.73 87.99,18.45 87.83,18.05 87.67,17.66 87.6,17.18 87.8,16.78 L 87.88,16.78 C 88.09,17.15 88.28,17.41 88.49,17.69 88.69,17.96 88.84,18.29 89.06,18.59 89.5,19.18 90.04,19.73 90.61,20.25 L 90.57,20.31 Z M 90.57,20.31" />
        </g>
        <g id="rana6-group181">
            <path id="rana6-bezier180" stroke="none" fill="rgb(0, 0, 0)" d="M 93.66,23.36 C 93.44,22.41 93.14,21.47 92.74,20.62 92.53,20.19 92.25,19.82 92.03,19.43 91.81,19.03 91.57,18.67 91.24,18.27 L 91.27,18.2 C 91.81,18.25 92.3,18.59 92.64,18.99 92.99,19.4 93.15,19.91 93.3,20.4 93.6,21.37 93.73,22.37 93.73,23.36 L 93.66,23.36 Z M 93.66,23.36" />
        </g>
        <g id="rana6-group182">
            <path id="rana6-bezier181" stroke="none" fill="rgb(0, 0, 0)" d="M 34.23,21.35 C 33.11,20.54 32.03,19.66 31.02,18.7 30.51,18.22 29.98,17.75 29.58,17.16 29.2,16.57 28.84,15.9 28.8,15.16 L 28.87,15.14 C 29.29,15.71 29.73,16.19 30.18,16.7 30.63,17.2 31.01,17.76 31.45,18.28 32.35,19.32 33.3,20.32 34.28,21.29 L 34.23,21.35 Z M 34.23,21.35" />
        </g>
        <g id="rana6-group183">
            <path id="rana6-bezier182" stroke="none" fill="rgb(0, 0, 0)" d="M 23.77,24.07 C 23.13,23.65 22.44,23.34 21.74,23.11 21.38,23 21.02,22.96 20.68,22.82 20.34,22.68 20,22.55 19.64,22.31 L 19.64,22.24 C 20.04,22.07 20.46,22.04 20.86,22.1 21.27,22.15 21.63,22.36 21.98,22.55 22.68,22.93 23.31,23.42 23.82,24.02 L 23.77,24.07 Z M 23.77,24.07" />
        </g>
        <g id="rana6-group184">
            <path id="rana6-bezier183" stroke="none" fill="rgb(0, 0, 0)" d="M 22.1,29.56 C 20.53,29.22 18.95,28.92 17.38,28.67 16.59,28.56 15.8,28.51 15.02,28.39 14.25,28.27 13.49,28.12 12.69,28.14 L 12.66,28.07 C 13.41,27.64 14.29,27.63 15.1,27.64 15.92,27.67 16.71,27.89 17.5,28.08 19.07,28.46 20.61,28.94 22.12,29.49 L 22.1,29.56 Z M 22.1,29.56" />
        </g>
        <g id="rana6-group185">
            <path id="rana6-bezier184" stroke="none" fill="rgb(0, 0, 0)" d="M 16.61,34.19 C 15.5,34.54 14.38,34.84 13.23,35.06 12.66,35.18 12.08,35.32 11.48,35.31 10.89,35.29 10.27,35.21 9.73,34.9 L 9.74,34.82 11.44,34.56 C 12,34.48 12.57,34.5 13.15,34.46 14.29,34.38 15.44,34.26 16.59,34.12 L 16.61,34.19 Z M 16.61,34.19" />
        </g>
        <g id="rana6-group186">
            <path id="rana6-bezier185" stroke="none" fill="rgb(0, 0, 0)" d="M 50.11,37.21 C 48.91,37.98 47.63,38.63 46.3,39.17 45.63,39.44 44.96,39.73 44.23,39.84 43.51,39.94 42.76,39.97 42.05,39.77 L 42.05,39.7 C 42.75,39.48 43.41,39.3 44.07,39.11 44.74,38.91 45.42,38.79 46.1,38.6 47.44,38.21 48.77,37.72 50.07,37.14 L 50.11,37.21 Z M 50.11,37.21" />
        </g>
        <g id="rana6-group187">
            <path id="rana6-bezier186" stroke="none" fill="rgb(0, 0, 0)" d="M 44.16,17.89 C 42.81,17.36 41.46,16.85 40.09,16.4 39.41,16.19 38.71,16.03 38.04,15.8 37.37,15.57 36.73,15.33 36.01,15.19 L 36,15.11 C 36.73,14.84 37.52,14.94 38.24,15.08 38.97,15.22 39.64,15.55 40.3,15.84 41.64,16.43 42.93,17.09 44.19,17.83 L 44.16,17.89 Z M 44.16,17.89" />
        </g>
        <g id="rana6-group188">
            <path id="rana6-bezier187" stroke="none" fill="rgb(0, 0, 0)" d="M 37.75,27.13 C 36,26.85 34.25,26.52 32.52,26.13 31.65,25.93 30.77,25.77 29.94,25.45 29.52,25.29 29.1,25.12 28.71,24.9 28.31,24.68 27.9,24.45 27.6,24.07 L 27.65,24.02 C 28.46,24.35 29.33,24.5 30.17,24.74 31.01,24.96 31.84,25.28 32.68,25.55 34.36,26.07 36.06,26.57 37.76,27.05 L 37.75,27.13 Z M 37.75,27.13" />
        </g>
        <g id="rana6-group189">
            <path id="rana6-bezier188" stroke="none" fill="rgb(0, 0, 0)" d="M 31.54,28.9 L 27.92,28.05 C 27.31,27.92 26.7,27.85 26.11,27.66 25.53,27.5 24.97,27.26 24.37,27.13 L 24.35,27.05 C 24.66,26.89 25,26.88 25.32,26.87 25.65,26.85 25.96,26.89 26.28,26.93 26.9,27.02 27.49,27.26 28.08,27.47 29.26,27.87 30.42,28.33 31.56,28.82 L 31.54,28.9 Z M 31.54,28.9" />
        </g>
        <g id="rana6-group190">
            <path id="rana6-bezier189" stroke="none" fill="rgb(0, 0, 0)" d="M 26.83,34.19 C 26.23,34.12 25.64,33.97 25.05,33.83 24.47,33.67 23.89,33.49 23.32,33.3 22.74,33.11 22.15,32.94 21.62,32.61 21.36,32.44 21.1,32.26 20.87,32.03 20.65,31.81 20.42,31.54 20.35,31.21 L 20.41,31.18 C 20.9,31.52 21.44,31.7 21.97,31.94 22.51,32.17 23.01,32.48 23.54,32.75 24.08,33 24.62,33.25 25.18,33.47 25.72,33.71 26.28,33.95 26.85,34.12 L 26.83,34.19 Z M 26.83,34.19" />
        </g>
        <g id="rana6-group191">
            <path id="rana6-bezier190" stroke="none" fill="rgb(0, 0, 0)" d="M 20.36,38.49 C 19.24,37.98 18.11,37.51 16.97,37.08 16.39,36.88 15.81,36.74 15.26,36.51 14.7,36.29 14.18,36.05 13.57,35.9 L 13.56,35.82 C 14.19,35.56 14.87,35.66 15.48,35.8 16.1,35.94 16.65,36.25 17.21,36.54 18.32,37.09 19.38,37.73 20.4,38.42 L 20.36,38.49 Z M 20.36,38.49" />
        </g>
        <g id="rana6-group192">
            <path id="rana6-bezier191" stroke="none" fill="rgb(0, 0, 0)" d="M 15.76,39.73 C 14.85,39.9 13.93,40.02 12.99,40.07 12.53,40.11 12.05,40.17 11.58,40.08 11.13,39.97 10.6,39.84 10.27,39.39 L 10.32,39.33 C 10.78,39.38 11.21,39.32 11.66,39.33 12.1,39.33 12.55,39.43 13,39.47 13.91,39.55 14.83,39.61 15.75,39.66 L 15.76,39.73 Z M 15.76,39.73" />
        </g>
        <g id="rana6-group193">
            <path id="rana6-bezier192" stroke="none" fill="rgb(0, 0, 0)" d="M 32.7,36.48 C 31.16,36.83 29.61,37.15 28.05,37.42 27.27,37.57 26.49,37.75 25.7,37.78 24.9,37.8 24.09,37.81 23.29,37.56 L 23.3,37.49 C 24.08,37.33 24.84,37.15 25.62,37.03 26.39,36.9 27.18,36.89 27.97,36.83 L 32.69,36.41 32.7,36.48 Z M 32.7,36.48" />
        </g>
        <g id="rana6-group194">
            <path id="rana6-bezier193" stroke="none" fill="rgb(0, 0, 0)" d="M 44.18,34.59 C 43.75,34.92 43.4,35.43 43.01,35.86 42.63,36.31 42.24,36.75 41.83,37.18 41.43,37.62 41.04,38.08 40.53,38.41 40.27,38.57 40.01,38.73 39.71,38.84 39.41,38.94 39.08,39.03 38.76,38.94 L 38.75,38.86 C 39.27,38.6 39.64,38.19 40.07,37.82 40.49,37.43 40.97,37.11 41.42,36.74 41.87,36.37 42.31,35.99 42.75,35.6 43.21,35.24 43.6,34.8 44.17,34.52 L 44.18,34.59 Z M 44.18,34.59" />
        </g>
        <g id="rana6-group195">
            <path id="rana6-bezier194" stroke="none" fill="rgb(0, 0, 0)" d="M 38.17,33.56 C 36.67,33.41 35.2,33.2 33.73,33.03 32.99,32.95 32.24,32.92 31.52,32.79 30.79,32.67 30.08,32.46 29.35,32.43 L 29.33,32.36 C 29.68,32.13 30.08,32.1 30.46,32.06 30.85,32.02 31.23,32.03 31.6,32.04 32.36,32.08 33.09,32.27 33.82,32.43 L 36.01,32.93 38.18,33.49 38.17,33.56 Z M 38.17,33.56" />
        </g>
        <g id="rana6-group196">
            <path id="rana6-bezier195" stroke="none" fill="rgb(0, 0, 0)" d="M 40.07,30.64 C 39.24,30.3 38.42,29.97 37.59,29.67 37.17,29.53 36.74,29.44 36.36,29.25 35.96,29.08 35.61,28.86 35.18,28.72 L 35.16,28.64 C 35.62,28.36 36.15,28.46 36.6,28.54 37.05,28.65 37.44,28.9 37.84,29.12 38.63,29.56 39.38,30.05 40.11,30.58 L 40.07,30.64 Z M 40.07,30.64" />
        </g>
        <g id="rana6-group197">
            <path id="rana6-bezier196" stroke="none" fill="rgb(0, 0, 0)" d="M 40.07,25.06 C 39.1,24.76 38.12,24.49 37.15,24.26 36.66,24.16 36.16,24.12 35.7,24 35.22,23.88 34.79,23.73 34.27,23.73 L 34.24,23.66 C 34.67,23.25 35.3,23.23 35.81,23.25 36.35,23.29 36.84,23.5 37.32,23.69 38.29,24.05 39.21,24.49 40.1,24.99 L 40.07,25.06 Z M 40.07,25.06" />
        </g>
        <g id="rana6-group198">
            <path id="rana6-bezier197" stroke="none" fill="rgb(0, 0, 0)" d="M 44.15,22.81 C 43.27,22.18 42.38,21.57 41.48,21.02 41.02,20.75 40.54,20.53 40.11,20.25 39.67,19.99 39.28,19.67 38.77,19.56 L 38.74,19.49 C 39,19.31 39.34,19.31 39.63,19.35 39.92,19.39 40.19,19.48 40.46,19.59 40.98,19.81 41.4,20.18 41.82,20.53 42.68,21.21 43.46,21.96 44.2,22.75 L 44.15,22.81 Z M 44.15,22.81" />
        </g>
        <g id="rana6-group199">
            <path id="rana6-bezier198" stroke="none" fill="rgb(0, 0, 0)" d="M 53.48,20.31 C 52.31,19.66 51.17,18.96 50.06,18.19 49.5,17.81 48.92,17.45 48.45,16.95 48.21,16.7 47.98,16.44 47.79,16.15 47.61,15.86 47.42,15.53 47.39,15.16 L 47.46,15.14 C 47.9,15.63 48.44,15.98 48.95,16.4 49.47,16.8 49.93,17.28 50.43,17.71 51.44,18.57 52.48,19.42 53.53,20.25 L 53.48,20.31 Z M 53.48,20.31" />
        </g>
        <g id="rana6-group200">
            <path id="rana6-bezier199" stroke="none" fill="rgb(0, 0, 0)" d="M 83.22,25.84 C 81.83,25.3 80.43,24.8 79.02,24.35 78.31,24.14 77.59,23.98 76.91,23.75 76.21,23.54 75.55,23.28 74.8,23.2 L 74.79,23.12 C 75.53,22.79 76.35,22.9 77.09,23.03 77.85,23.17 78.54,23.49 79.23,23.79 80.61,24.37 81.95,25.04 83.25,25.77 L 83.22,25.84 Z M 83.22,25.84" />
        </g>
        <g id="rana6-group201">
            <path id="rana6-bezier200" stroke="none" fill="rgb(0, 0, 0)" d="M 85.32,23.39 C 84.22,22.84 83.15,22.23 82.12,21.56 81.6,21.22 81.05,20.91 80.61,20.46 80.39,20.23 80.18,20 80,19.72 79.84,19.45 79.65,19.14 79.68,18.78 L 79.75,18.77 C 80.11,19.23 80.64,19.53 81.1,19.9 81.58,20.25 82.01,20.68 82.47,21.07 83.41,21.84 84.38,22.59 85.36,23.33 L 85.32,23.39 Z M 85.32,23.39" />
        </g>
        <g id="rana6-group202">
            <path id="rana6-bezier201" stroke="none" fill="rgb(0, 0, 0)" d="M 77.57,21.17 L 73.96,19.52 C 73.36,19.26 72.74,19.04 72.16,18.73 71.59,18.42 71.04,18.07 70.46,17.75 L 70.47,17.68 C 71.18,17.6 71.85,17.83 72.47,18.04 73.11,18.28 73.67,18.65 74.24,18.98 75.39,19.65 76.51,20.36 77.61,21.1 L 77.57,21.17 Z M 77.57,21.17" />
        </g>
        <g id="rana6-group203">
            <path id="rana6-bezier202" stroke="none" fill="rgb(0, 0, 0)" d="M 69.65,21.81 C 68.59,21.22 67.55,20.58 66.56,19.88 66.06,19.53 65.53,19.2 65.11,18.74 64.7,18.28 64.3,17.76 64.14,17.13 L 64.2,17.09 65.62,18.19 C 66.09,18.56 66.49,19 66.93,19.41 67.83,20.21 68.75,20.98 69.69,21.75 L 69.65,21.81 Z M 69.65,21.81" />
        </g>
        <g id="rana6-group204">
            <path id="rana6-bezier203" stroke="none" fill="rgb(0, 0, 0)" d="M 75.78,26.81 C 74.52,26.31 73.26,25.82 72,25.36 71.37,25.14 70.72,24.98 70.11,24.72 69.49,24.49 68.91,24.15 68.27,24.08 L 68.24,24.01 C 68.57,23.8 68.96,23.82 69.31,23.83 69.67,23.85 70.01,23.93 70.34,24.01 71.02,24.18 71.62,24.51 72.23,24.81 73.46,25.4 74.65,26.05 75.81,26.75 L 75.78,26.81 Z M 75.78,26.81" />
        </g>
        <g id="rana6-group205">
            <path id="rana6-bezier204" stroke="none" fill="rgb(0, 0, 0)" d="M 74.24,29.66 C 73.83,29.78 73.49,29.66 73.12,29.63 72.75,29.58 72.39,29.51 72.03,29.45 71.31,29.3 70.6,29.12 69.89,28.93 69.18,28.75 68.45,28.58 67.78,28.25 67.45,28.08 67.12,27.91 66.81,27.68 66.52,27.45 66.16,27.21 66.05,26.79 L 66.12,26.76 C 66.66,27.17 67.41,27.3 68.07,27.56 68.74,27.78 69.39,28.1 70.07,28.36 70.75,28.62 71.43,28.86 72.12,29.08 72.47,29.2 72.81,29.31 73.16,29.41 73.5,29.5 73.89,29.64 74.19,29.61 L 74.24,29.66 Z M 74.24,29.66" />
        </g>
        <g id="rana6-group206">
            <path id="rana6-bezier205" stroke="none" fill="rgb(0, 0, 0)" d="M 67.68,30.65 C 66.48,31 65.29,31.36 64.1,31.74 63.51,31.93 62.94,32.18 62.35,32.32 61.75,32.47 61.15,32.57 60.53,32.71 L 60.49,32.64 C 60.94,32.14 61.54,31.85 62.12,31.61 62.71,31.37 63.34,31.28 63.95,31.16 65.18,30.91 66.42,30.72 67.66,30.57 L 67.68,30.65 Z M 67.68,30.65" />
        </g>
        <g id="rana6-group207">
            <path id="rana6-bezier206" stroke="none" fill="rgb(0, 0, 0)" d="M 69.66,26.29 C 68.35,25.84 67.06,25.35 65.8,24.78 65.16,24.51 64.51,24.26 63.93,23.86 63.64,23.66 63.35,23.45 63.1,23.19 62.85,22.94 62.57,22.67 62.47,22.29 L 62.54,22.26 C 63.07,22.67 63.71,22.9 64.31,23.21 64.91,23.51 65.47,23.9 66.07,24.25 67.26,24.92 68.47,25.58 69.69,26.22 L 69.66,26.29 Z M 69.66,26.29" />
        </g>
        <g id="rana6-group208">
            <path id="rana6-bezier207" stroke="none" fill="rgb(0, 0, 0)" d="M 65.11,21.1 C 63.88,20.64 62.64,20.2 61.39,19.81 60.77,19.62 60.13,19.5 59.52,19.29 58.91,19.1 58.33,18.84 57.69,18.81 L 57.66,18.74 C 57.96,18.53 58.34,18.48 58.68,18.47 59.03,18.46 59.37,18.5 59.71,18.56 60.38,18.68 60.99,18.98 61.6,19.25 62.82,19.77 64,20.37 65.15,21.03 L 65.11,21.1 Z M 65.11,21.1" />
        </g>
        <g id="rana6-group209">
            <path id="rana6-bezier208" stroke="none" fill="rgb(0, 0, 0)" d="M 61.39,25.42 C 60.13,25.06 58.9,24.65 57.69,24.15 57.08,23.91 56.45,23.69 55.9,23.31 55.62,23.12 55.35,22.92 55.11,22.67 54.88,22.43 54.63,22.15 54.56,21.79 L 54.62,21.76 C 55.12,22.16 55.71,22.38 56.27,22.67 56.84,22.94 57.38,23.3 57.94,23.61 59.08,24.21 60.24,24.79 61.41,25.35 L 61.39,25.42 Z M 61.39,25.42" />
        </g>
        <g id="rana6-group210">
            <path id="rana6-bezier209" stroke="none" fill="rgb(0, 0, 0)" d="M 50.06,22.8 C 49.37,22.19 48.66,21.61 47.94,21.08 47.57,20.82 47.17,20.62 46.83,20.35 46.48,20.08 46.16,19.82 45.75,19.56 L 45.76,19.49 C 46.27,19.34 46.79,19.51 47.22,19.72 47.66,19.93 47.99,20.29 48.32,20.62 49,21.28 49.59,21.99 50.12,22.75 L 50.06,22.8 Z M 50.06,22.8" />
        </g>
        <g id="rana6-group211">
            <path id="rana6-bezier210" stroke="none" fill="rgb(0, 0, 0)" d="M 59.17,27.13 C 57.9,26.99 56.65,26.81 55.4,26.57 54.78,26.45 54.14,26.37 53.54,26.13 52.96,25.88 52.33,25.6 51.9,25.06 L 51.95,25 C 52.56,25.17 53.16,25.26 53.77,25.41 54.37,25.55 54.95,25.79 55.55,25.99 56.75,26.35 57.96,26.71 59.18,27.05 L 59.17,27.13 Z M 59.17,27.13" />
        </g>
        <g id="rana6-group212">
            <path id="rana6-bezier211" stroke="none" fill="rgb(0, 0, 0)" d="M 48.99,28.72 C 47.82,28.4 46.65,28.1 45.49,27.81 44.9,27.68 44.31,27.59 43.74,27.41 43.18,27.23 42.64,27.01 42.05,26.82 L 42.05,26.74 C 42.67,26.53 43.32,26.6 43.92,26.68 44.53,26.78 45.1,27.02 45.66,27.24 46.81,27.66 47.92,28.13 49.02,28.65 L 48.99,28.72 Z M 48.99,28.72" />
        </g>
        <g id="rana6-group213">
            <path id="rana6-bezier212" stroke="none" fill="rgb(0, 0, 0)" d="M 51.34,32.15 C 50.64,32.24 49.95,32.13 49.26,32.06 48.58,31.96 47.89,31.83 47.21,31.69 46.54,31.55 45.84,31.44 45.2,31.17 44.56,30.88 43.89,30.57 43.43,29.98 L 43.48,29.92 C 44.13,30.15 44.79,30.27 45.44,30.45 46.09,30.63 46.72,30.9 47.37,31.11 48.02,31.32 48.67,31.52 49.33,31.69 49.99,31.86 50.66,32.06 51.33,32.08 L 51.34,32.15 Z M 51.34,32.15" />
        </g>
        <g id="rana6-group214">
            <path id="rana6-bezier213" stroke="none" fill="rgb(0, 0, 0)" d="M 57.65,31.23 C 56.54,30.76 55.44,30.27 54.34,29.76 53.8,29.51 53.23,29.29 52.72,28.96 52.22,28.62 51.73,28.25 51.32,27.76 L 51.36,27.7 C 51.97,27.84 52.54,28.05 53.09,28.3 53.63,28.55 54.12,28.91 54.63,29.23 55.66,29.86 56.68,30.5 57.69,31.16 L 57.65,31.23 Z M 57.65,31.23" />
        </g>
        <g id="rana6-group215">
            <path id="rana6-bezier214" stroke="none" fill="rgb(0, 0, 0)" d="M 23.15,54.77 C 23.68,55.08 24.18,55.43 24.66,55.84 24.88,56.04 25.12,56.29 25.29,56.54 25.42,56.71 25.67,56.79 25.94,56.86 26.49,56.97 27.1,56.94 27.71,57.09 28.29,57.24 29,57.45 29.36,58.04 L 29.31,58.09 C 28.74,57.87 28.18,57.89 27.59,57.83 26.99,57.78 26.39,57.65 25.77,57.43 25.47,57.32 25.1,57.16 24.89,56.82 24.75,56.55 24.58,56.33 24.39,56.1 24.01,55.64 23.57,55.22 23.11,54.83 L 23.15,54.77 Z M 23.15,54.77" />
        </g>
        <g id="rana6-group216">
            <path id="rana6-bezier215" stroke="none" fill="rgb(0, 0, 0)" d="M 73.92,59.41 C 74.43,59.3 74.94,59.21 75.44,59.14 75.7,59.1 75.95,59.02 76.2,59.07 76.46,59.12 76.71,59.2 76.96,59.41 L 76.96,59.48 C 76.71,59.68 76.46,59.77 76.2,59.82 75.95,59.87 75.7,59.78 75.44,59.74 74.94,59.68 74.43,59.59 73.92,59.48 L 73.92,59.41 Z M 73.92,59.41" />
        </g>
        <g id="rana6-group217">
            <path id="rana6-bezier216" stroke="none" fill="rgb(0, 0, 0)" d="M 103.63,33.55 C 103.37,32.14 103.17,30.71 103.03,29.27 102.96,28.56 102.85,27.83 102.91,27.1 102.95,26.74 102.99,26.37 103.09,26 103.2,25.66 103.29,25.24 103.65,25 L 103.7,25.06 C 103.51,25.69 103.66,26.42 103.66,27.12 103.7,27.82 103.64,28.53 103.63,29.25 103.63,30.67 103.67,32.11 103.71,33.54 L 103.63,33.55 Z M 103.63,33.55" />
        </g>
        <g id="rana6-group218">
            <path id="rana6-bezier217" stroke="none" fill="rgb(0, 0, 0)" d="M 100.09,32.69 C 99.65,31.64 99.24,30.59 98.89,29.51 98.71,28.97 98.5,28.43 98.43,27.86 98.4,27.57 98.38,27.28 98.41,26.98 98.43,26.69 98.47,26.37 98.64,26.1 L 98.71,26.12 C 98.82,26.67 99.03,27.18 99.17,27.71 99.32,28.24 99.37,28.8 99.47,29.36 99.69,30.46 99.93,31.56 100.17,32.66 L 100.09,32.69 Z M 100.09,32.69" />
        </g>
        <g id="rana6-group219">
            <path id="rana6-bezier218" stroke="none" fill="rgb(0, 0, 0)" d="M 97.89,31.22 C 97.41,30.82 96.93,30.42 96.45,30.05 96.21,29.86 95.93,29.72 95.74,29.5 95.54,29.27 95.36,29.04 95.2,28.71 L 95.23,28.65 C 95.61,28.62 95.93,28.76 96.21,28.92 96.49,29.09 96.67,29.37 96.87,29.62 97.28,30.1 97.63,30.62 97.95,31.17 L 97.89,31.22 Z M 97.89,31.22" />
        </g>
        <g id="rana6-group220">
            <path id="rana6-bezier219" stroke="none" fill="rgb(0, 0, 0)" d="M 100.09,28.49 C 100.21,27.21 100.41,25.92 100.7,24.65 100.85,24.02 100.97,23.37 101.28,22.77 101.59,22.2 101.97,21.55 102.65,21.29 L 102.69,21.35 C 102.34,21.89 102.18,22.47 101.97,23.06 101.77,23.65 101.5,24.22 101.28,24.82 100.86,26.03 100.5,27.26 100.17,28.51 L 100.09,28.49 Z M 100.09,28.49" />
        </g>
        <g id="rana6-group221">
            <path id="rana6-bezier220" stroke="none" fill="rgb(0, 0, 0)" d="M 97.32,26.27 C 96.92,25.05 96.58,23.82 96.31,22.55 96.17,21.93 96.01,21.29 96.02,20.63 96.03,20.3 96.05,19.97 96.14,19.63 96.23,19.32 96.33,18.92 96.69,18.75 L 96.73,18.81 C 96.53,19.35 96.72,19.98 96.77,20.59 96.85,21.2 96.85,21.83 96.9,22.46 97.03,23.72 97.2,24.98 97.39,26.25 L 97.32,26.27 Z M 97.32,26.27" />
        </g>
        <g id="rana6-group653">
            <path id="rana6-bezier651" stroke="none" fill="rgb(0, 0, 0)" d="M 16.26,54.81 C 16.1,55.63 15.91,56.45 15.53,57.24 15.43,57.43 15.32,57.63 15.16,57.81 15.02,58 14.72,58.13 14.56,58.19 14.32,58.33 14.28,58.63 14.48,58.82 14.67,59.02 15.03,59.09 15.38,59.07 15.78,59.05 16.21,59.04 16.63,59.06 17.47,59.11 18.3,59.19 19.13,59.41 L 19.13,59.48 C 18.3,59.68 17.46,59.76 16.63,59.81 16.21,59.83 15.81,59.83 15.38,59.81 14.91,59.78 14.37,59.66 14.01,59.21 13.84,58.99 13.75,58.67 13.82,58.37 13.9,58.07 14.1,57.86 14.38,57.74 14.61,57.66 14.72,57.64 14.85,57.51 14.98,57.38 15.1,57.22 15.21,57.06 15.64,56.38 15.93,55.58 16.18,54.79 L 16.26,54.81 Z M 16.26,54.81" />
        </g>
        <g id="rana6-group655">
            <path id="rana6-bezier653" stroke="none" fill="rgb(0, 0, 0)" d="M 19.45,57.47 C 19.1,57.34 18.78,57.11 18.55,56.75 18.43,56.58 18.29,56.36 18.33,56.13 18.37,55.9 18.52,55.69 18.77,55.6 L 18.84,55.62 C 18.98,55.86 19.02,55.99 19.08,56.11 19.14,56.23 19.08,56.36 19.1,56.51 19.15,56.8 19.29,57.12 19.49,57.41 L 19.45,57.47 Z M 19.45,57.47" />
        </g>
    </g>
</svg>
