<?xml version="1.0" encoding="UTF-8"?>
<!DOCTYPE svg PUBLIC "-//W3C//DTD SVG 1.1//EN" "http://www.w3.org/Graphics/SVG/1.1/DTD/svg11.dtd">
<svg version="1.1" xmlns="http://www.w3.org/2000/svg" xmlns:xlink="http://www.w3.org/1999/xlink" width="120" height="60"  xml:space="preserve" id="ranaTop4">
    <!-- Generated by PaintCode - http://www.paintcodeapp.com -->
    <g id="ranaTop4-group1443">
        <g id="ranaTop4-group1010">
            <path id="ranaTop4-bezier1008" stroke="none" fill="rgb(0, 0, 0)" d="M 108.38,25.89 C 109.15,25.71 109.96,25.71 110.75,25.92 111.52,26.12 112.33,26.69 112.58,27.57 L 112.63,27.75 112.65,27.89 C 112.67,28 112.68,28.15 112.67,28.26 112.66,28.5 112.59,28.74 112.49,28.95 112.29,29.38 111.96,29.69 111.62,29.93 110.91,30.4 110.14,30.65 109.33,30.7 L 109.31,30.63 C 109.97,30.2 110.63,29.81 111.16,29.34 111.69,28.87 112.15,28.38 112,27.73 111.88,27.06 111.32,26.54 110.63,26.28 109.94,26 109.16,25.88 108.4,25.96 L 108.38,25.89 Z M 108.38,25.89" />
        </g>
        <g id="ranaTop4-group1011">
            <path id="ranaTop4-bezier1009" stroke="none" fill="rgb(0, 0, 0)" d="M 107.55,31.04 C 106.28,32.62 104.96,34.15 103.44,35.52 102.67,36.23 101.85,36.81 101.09,37.41 100.3,38 99.65,38.69 99.01,39.5 L 98.95,39.46 C 99.21,38.47 99.83,37.54 100.6,36.84 101.36,36.11 102.29,35.66 103.06,35.06 104.61,33.83 106.07,32.42 107.49,31 L 107.55,31.04 Z M 107.55,31.04" />
        </g>
        <g id="ranaTop4-group1012">
            <path id="ranaTop4-bezier1010" stroke="none" fill="rgb(0, 0, 0)" d="M 98.18,38.62 C 98.1,38.28 97.99,37.95 97.83,37.65 97.68,37.35 97.45,37.06 97.16,37.01 96.88,36.95 96.59,37.15 96.36,37.38 96.12,37.61 95.93,37.89 95.74,38.17 95.01,39.33 94.41,40.59 93.88,41.86 93.36,43.14 92.92,44.46 92.62,45.75 92.54,46.07 92.48,46.4 92.49,46.7 92.49,47.01 92.56,47.24 92.73,47.32 92.93,47.42 93.29,47.35 93.59,47.24 93.92,47.15 94.23,46.99 94.55,46.85 L 94.59,46.91 C 94.33,47.15 94.05,47.36 93.73,47.55 93.41,47.72 93.06,47.91 92.57,47.82 92.33,47.77 92.11,47.57 92.01,47.36 91.91,47.15 91.86,46.94 91.84,46.74 91.8,46.35 91.83,45.98 91.88,45.62 92.12,44.17 92.73,42.89 93.33,41.62 93.95,40.35 94.61,39.12 95.43,37.96 95.65,37.68 95.88,37.4 96.16,37.16 96.43,36.93 96.79,36.69 97.22,36.79 97.62,36.91 97.83,37.27 97.97,37.59 98.11,37.91 98.2,38.26 98.25,38.6 L 98.18,38.62 Z M 98.18,38.62" />
        </g>
        <g id="ranaTop4-group1013">
            <path id="ranaTop4-bezier1011" stroke="none" fill="rgb(0, 0, 0)" d="M 98.21,40.51 C 97.75,41.4 97.31,42.31 96.88,43.21 96.67,43.66 96.52,44.14 96.27,44.56 96.04,44.99 95.74,45.37 95.57,45.84 L 95.5,45.85 C 95.35,45.59 95.38,45.29 95.4,45.02 95.43,44.75 95.51,44.5 95.59,44.25 95.76,43.76 96.08,43.34 96.36,42.92 96.91,42.06 97.51,41.25 98.15,40.47 L 98.21,40.51 Z M 98.21,40.51" />
        </g>
        <g id="ranaTop4-group1014">
            <path id="ranaTop4-bezier1012" stroke="none" fill="rgb(0, 0, 0)" d="M 107.55,24.73 C 106.8,24.06 105.99,23.45 105.14,22.9 104.31,22.36 103.42,21.87 102.5,21.56 102.03,21.41 101.57,21.31 101.09,21.29 100.58,21.26 100.03,21.14 99.53,20.96 98.54,20.59 97.59,19.9 97.18,18.91 L 97.24,18.88 C 97.97,19.58 98.85,20 99.77,20.25 100.23,20.39 100.69,20.47 101.18,20.55 101.7,20.63 102.23,20.79 102.71,21 104.64,21.84 106.21,23.2 107.6,24.68 L 107.55,24.73 Z M 107.55,24.73" />
        </g>
        <g id="ranaTop4-group1015">
            <path id="ranaTop4-bezier1013" stroke="none" fill="rgb(0, 0, 0)" d="M 96.27,19.09 C 96.16,19.83 95.93,20.57 95.46,21.2 95.02,21.84 94.17,22.21 93.37,22.08 92.58,21.97 91.89,21.61 91.24,21.2 90.59,20.79 90,20.31 89.45,19.78 88.37,18.72 87.35,17.55 86.78,16.06 86.66,15.69 86.55,15.3 86.54,14.87 86.54,14.66 86.56,14.43 86.64,14.21 86.74,13.96 86.84,13.83 86.98,13.66 87.24,13.35 87.61,13.08 88.01,12.99 88.42,12.91 88.84,12.97 89.17,13.18 L 89.14,13.24 C 88.42,13.05 87.72,13.39 87.4,13.97 87.21,14.28 87.14,14.5 87.18,14.83 87.22,15.14 87.34,15.47 87.48,15.79 88.06,17.06 88.9,18.29 89.88,19.36 90.88,20.39 92.04,21.39 93.43,21.71 94.11,21.86 94.83,21.61 95.29,21.05 95.76,20.51 96.04,19.8 96.19,19.08 L 96.27,19.09 Z M 96.27,19.09" />
        </g>
        <g id="ranaTop4-group1016">
            <path id="ranaTop4-bezier1014" stroke="none" fill="rgb(0, 0, 0)" d="M 90.43,14.72 C 91.23,15.16 92.01,15.62 92.78,16.1 93.17,16.34 93.59,16.54 93.92,16.85 94.25,17.16 94.57,17.5 94.8,17.94 L 94.76,18 C 94.27,17.89 93.87,17.68 93.47,17.45 93.08,17.22 92.77,16.89 92.43,16.59 91.74,16 91.06,15.4 90.39,14.78 L 90.43,14.72 Z M 90.43,14.72" />
        </g>
        <g id="ranaTop4-group1017">
            <path id="ranaTop4-bezier1015" stroke="none" fill="rgb(0, 0, 0)" d="M 88.28,15.81 C 86.72,15.48 85.18,15.01 83.69,14.39 82.94,14.09 82.18,13.78 81.51,13.3 80.86,12.82 80.23,12.23 79.85,11.5 L 79.9,11.45 C 80.58,11.89 81.24,12.29 81.92,12.67 82.6,13.04 83.25,13.48 83.94,13.85 85.34,14.57 86.8,15.2 88.3,15.74 L 88.28,15.81 Z M 88.28,15.81" />
        </g>
        <g id="ranaTop4-group1018">
            <path id="ranaTop4-bezier1016" stroke="none" fill="rgb(0, 0, 0)" d="M 80.86,14.84 C 79.54,14.15 78.29,13.34 77.15,12.36 76.58,11.88 75.99,11.37 75.58,10.71 75.19,10.06 74.88,9.26 75.02,8.48 L 75.1,8.47 C 75.36,9.17 75.76,9.73 76.2,10.28 76.64,10.82 77.06,11.4 77.56,11.93 78.57,12.96 79.7,13.91 80.89,14.77 L 80.86,14.84 Z M 80.86,14.84" />
        </g>
        <g id="ranaTop4-group1019">
            <path id="ranaTop4-bezier1017" stroke="none" fill="rgb(0, 0, 0)" d="M 76.31,13.65 C 75.2,12.49 74,11.42 72.76,10.43 72.13,9.94 71.45,9.52 70.84,9.03 70.22,8.53 69.6,8.05 68.97,7.5 L 69.01,7.44 C 69.82,7.62 70.57,7.98 71.27,8.41 71.97,8.84 72.56,9.42 73.15,9.97 74.33,11.09 75.42,12.3 76.37,13.6 L 76.31,13.65 Z M 76.31,13.65" />
        </g>
        <g id="ranaTop4-group1020">
            <path id="ranaTop4-bezier1018" stroke="none" fill="rgb(0, 0, 0)" d="M 71.05,11.67 C 69.35,11.18 67.68,10.53 66.12,9.63 65.34,9.18 64.54,8.7 63.94,7.96 63.36,7.26 62.92,6.18 63.32,5.3 L 63.39,5.31 C 63.43,6.21 63.92,6.88 64.5,7.46 65.09,8.04 65.73,8.62 66.44,9.12 67.87,10.1 69.45,10.91 71.07,11.6 L 71.05,11.67 Z M 71.05,11.67" />
        </g>
        <g id="ranaTop4-group1021">
            <path id="ranaTop4-bezier1019" stroke="none" fill="rgb(0, 0, 0)" d="M 61.9,9.32 C 61.28,8.07 60.57,6.86 59.76,5.75 59.35,5.2 58.88,4.71 58.45,4.21 58.01,3.71 57.56,3.24 56.97,2.84 L 56.99,2.77 C 57.74,2.78 58.43,3.21 58.98,3.68 59.53,4.17 59.91,4.8 60.27,5.42 60.99,6.65 61.54,7.95 61.97,9.29 L 61.9,9.32 Z M 61.9,9.32" />
        </g>
        <g id="ranaTop4-group1022">
            <path id="ranaTop4-bezier1020" stroke="none" fill="rgb(0, 0, 0)" d="M 58.43,9.32 C 58.13,8.77 57.73,8.29 57.3,7.85 56.88,7.4 56.42,6.99 55.92,6.63 55.43,6.27 54.88,5.99 54.39,5.64 53.89,5.28 53.38,4.94 52.88,4.51 L 52.91,4.44 C 53.57,4.49 54.19,4.71 54.77,4.99 55.35,5.28 55.84,5.73 56.31,6.17 57.25,7.05 58.06,8.09 58.5,9.29 L 58.43,9.32 Z M 58.43,9.32" />
        </g>
        <g id="ranaTop4-group1023">
            <path id="ranaTop4-bezier1021" stroke="none" fill="rgb(0, 0, 0)" d="M 53.26,6.92 C 52.05,6.68 50.86,6.36 49.69,5.94 49.1,5.73 48.5,5.54 47.96,5.2 47.44,4.84 46.92,4.42 46.62,3.83 L 46.68,3.78 C 47.25,4.06 47.78,4.29 48.33,4.54 48.87,4.78 49.38,5.11 49.92,5.39 51.01,5.92 52.14,6.4 53.28,6.85 L 53.26,6.92 Z M 53.26,6.92" />
        </g>
        <g id="ranaTop4-group1024">
            <path id="ranaTop4-bezier1022" stroke="none" fill="rgb(0, 0, 0)" d="M 48.64,8.5 C 47.33,7.26 45.92,6.13 44.43,5.16 43.67,4.69 42.88,4.3 42.11,3.89 41.34,3.47 40.55,3.13 39.67,2.84 L 39.68,2.77 C 40.61,2.65 41.56,2.86 42.42,3.21 43.29,3.56 44.04,4.12 44.77,4.67 46.23,5.78 47.54,7.06 48.7,8.45 L 48.64,8.5 Z M 48.64,8.5" />
        </g>
        <g id="ranaTop4-group1025">
            <path id="ranaTop4-bezier1023" stroke="none" fill="rgb(0, 0, 0)" d="M 44.15,6.92 C 42.56,6.09 40.95,5.3 39.33,4.58 L 36.86,3.6 C 36.05,3.28 35.26,2.86 34.39,2.84 L 34.36,2.77 C 34.79,2.53 35.3,2.56 35.76,2.6 36.23,2.64 36.68,2.76 37.12,2.89 38,3.16 38.79,3.61 39.59,4.04 41.18,4.89 42.71,5.84 44.19,6.86 L 44.15,6.92 Z M 44.15,6.92" />
        </g>
        <g id="ranaTop4-group1026">
            <path id="ranaTop4-bezier1024" stroke="none" fill="rgb(0, 0, 0)" d="M 45.87,12.34 C 44.22,11.97 42.6,11.46 41.05,10.72 40.28,10.36 39.48,9.96 38.85,9.32 38.24,8.72 37.68,7.79 37.91,6.89 L 37.98,6.89 C 38.19,7.72 38.75,8.27 39.36,8.77 39.97,9.26 40.62,9.77 41.33,10.19 42.77,11.02 44.31,11.7 45.89,12.27 L 45.87,12.34 Z M 45.87,12.34" />
        </g>
        <g id="ranaTop4-group1027">
            <path id="ranaTop4-bezier1025" stroke="none" fill="rgb(0, 0, 0)" d="M 34.34,7.49 C 33.54,6.42 32.6,5.46 31.56,4.67 31.03,4.28 30.46,3.99 29.92,3.67 29.37,3.34 28.8,3.06 28.17,2.78 L 28.18,2.7 C 28.88,2.58 29.6,2.73 30.25,3 30.91,3.27 31.45,3.74 31.95,4.21 32.96,5.15 33.78,6.26 34.41,7.45 L 34.34,7.49 Z M 34.34,7.49" />
        </g>
        <g id="ranaTop4-group1028">
            <path id="ranaTop4-bezier1026" stroke="none" fill="rgb(0, 0, 0)" d="M 32.67,12.34 C 31.74,11.8 30.9,11.06 30.3,10.11 29.99,9.65 29.7,9.12 29.65,8.54 29.59,7.97 29.69,7.37 29.98,6.88 L 30.06,6.9 C 30.17,7.45 30.24,7.94 30.38,8.41 30.52,8.87 30.61,9.36 30.82,9.82 31.25,10.73 31.92,11.58 32.71,12.27 L 32.67,12.34 Z M 32.67,12.34" />
        </g>
        <g id="ranaTop4-group1029">
            <path id="ranaTop4-bezier1027" stroke="none" fill="rgb(0, 0, 0)" d="M 28.14,9.33 C 27.25,8.45 26.29,7.64 25.27,6.95 24.76,6.61 24.21,6.36 23.7,6.06 23.18,5.77 22.67,5.52 22.04,5.34 L 22.04,5.27 C 22.68,5.02 23.4,5.15 24.02,5.38 24.64,5.62 25.15,6.05 25.64,6.47 26.62,7.3 27.46,8.25 28.2,9.28 L 28.14,9.33 Z M 28.14,9.33" />
        </g>
        <g id="ranaTop4-group1030">
            <path id="ranaTop4-bezier1028" stroke="none" fill="rgb(0, 0, 0)" d="M 22.73,12.34 C 21.31,13.13 19.81,13.79 18.22,14.24 17.43,14.46 16.6,14.68 15.74,14.63 14.91,14.58 13.97,14.34 13.42,13.65 L 13.47,13.59 C 14.23,13.91 14.98,13.92 15.75,13.88 16.51,13.84 17.3,13.79 18.08,13.65 19.64,13.35 21.19,12.86 22.69,12.27 L 22.73,12.34 Z M 22.73,12.34" />
        </g>
        <g id="ranaTop4-group1031">
            <path id="ranaTop4-bezier1029" stroke="none" fill="rgb(0, 0, 0)" d="M 16.37,15.81 C 14.87,16.43 13.38,17.04 11.93,17.72 11.21,18.07 10.52,18.48 9.8,18.81 9.07,19.14 8.36,19.46 7.63,19.83 L 7.58,19.77 C 8.06,19.08 8.75,18.57 9.45,18.14 10.15,17.71 10.93,17.45 11.7,17.17 13.22,16.6 14.78,16.15 16.34,15.74 L 16.37,15.81 Z M 16.37,15.81" />
        </g>
        <g id="ranaTop4-group1032">
            <path id="ranaTop4-bezier1030" stroke="none" fill="rgb(0, 0, 0)" d="M 21.29,19.84 C 19.98,19.96 18.68,19.99 17.36,19.93 16.71,19.91 16.04,19.9 15.39,19.73 14.75,19.55 14.1,19.3 13.58,18.84 L 13.61,18.77 15.53,18.99 C 16.16,19.06 16.78,19.23 17.42,19.34 18.69,19.53 19.99,19.67 21.28,19.77 L 21.29,19.84 Z M 21.29,19.84" />
        </g>
        <g id="ranaTop4-group1033">
            <path id="ranaTop4-bezier1031" stroke="none" fill="rgb(0, 0, 0)" d="M 14.67,21.84 C 13.18,22.1 11.71,22.48 10.3,22.98 9.6,23.24 8.94,23.58 8.27,23.86 7.58,24.14 6.94,24.46 6.25,24.83 L 6.2,24.78 C 6.61,24.1 7.25,23.58 7.93,23.19 8.61,22.79 9.38,22.6 10.12,22.41 11.62,22.02 13.14,21.81 14.66,21.76 L 14.67,21.84 Z M 14.67,21.84" />
        </g>
        <g id="ranaTop4-group1034">
            <path id="ranaTop4-bezier1032" stroke="none" fill="rgb(0, 0, 0)" d="M 18.9,27.68 C 17.39,27.86 15.86,27.91 14.32,27.76 13.55,27.69 12.76,27.62 12.02,27.28 11.31,26.97 10.52,26.39 10.41,25.54 L 10.48,25.52 C 10.96,26.12 11.61,26.36 12.29,26.58 12.97,26.79 13.67,27.02 14.4,27.17 15.87,27.44 17.38,27.57 18.9,27.6 L 18.9,27.68 Z M 18.9,27.68" />
        </g>
        <g id="ranaTop4-group1035">
            <path id="ranaTop4-bezier1033" stroke="none" fill="rgb(0, 0, 0)" d="M 92.04,42.48 C 91.24,43.89 90.58,45.37 90.06,46.88 89.81,47.64 89.65,48.42 89.44,49.17 89.22,49.93 89.04,50.69 88.86,51.5 L 88.79,51.5 C 88.56,50.69 88.58,49.83 88.7,49.01 88.84,48.19 89.17,47.41 89.5,46.66 90.16,45.15 90.99,43.74 91.97,42.44 L 92.04,42.48 Z M 92.04,42.48" />
        </g>
        <g id="ranaTop4-group1036">
            <path id="ranaTop4-bezier1034" stroke="none" fill="rgb(0, 0, 0)" d="M 76.37,53.62 C 75.12,54.92 73.68,56.05 72.08,56.94 71.28,57.38 70.44,57.81 69.53,58 68.62,58.19 67.67,58.24 66.77,58.01 L 66.77,57.93 C 67.67,57.75 68.51,57.55 69.34,57.28 70.16,57.01 71,56.76 71.81,56.4 73.41,55.66 74.93,54.7 76.32,53.56 L 76.37,53.62 Z M 76.37,53.62" />
        </g>
        <g id="ranaTop4-group1037">
            <path id="ranaTop4-bezier1035" stroke="none" fill="rgb(0, 0, 0)" d="M 70.65,54.3 C 68.76,54.68 66.89,55.17 65.07,55.77 64.17,56.08 63.3,56.47 62.41,56.81 61.53,57.15 60.67,57.52 59.82,58 L 59.77,57.95 C 60.37,57.14 61.24,56.58 62.11,56.13 63,55.68 63.96,55.44 64.9,55.2 66.79,54.71 68.71,54.39 70.64,54.22 L 70.65,54.3 Z M 70.65,54.3" />
        </g>
        <g id="ranaTop4-group1038">
            <path id="ranaTop4-bezier1036" stroke="none" fill="rgb(0, 0, 0)" d="M 61.93,53.63 C 59.98,53.69 58.02,53.64 56.06,53.44 55.09,53.34 54.1,53.25 53.14,52.94 52.67,52.78 52.2,52.6 51.76,52.34 51.32,52.09 50.89,51.77 50.62,51.33 L 50.68,51.28 C 51.49,51.81 52.42,51.99 53.34,52.22 54.27,52.42 55.2,52.67 56.15,52.85 58.05,53.18 59.99,53.4 61.93,53.55 L 61.93,53.63 Z M 61.93,53.63" />
        </g>
        <g id="ranaTop4-group1039">
            <path id="ranaTop4-bezier1037" stroke="none" fill="rgb(0, 0, 0)" d="M 55.47,54.84 C 53.81,55.16 52.16,55.59 50.57,56.13 49.78,56.41 49.02,56.77 48.25,57.06 47.47,57.35 46.71,57.67 45.91,58 L 45.86,57.94 C 46.43,57.27 47.17,56.77 47.94,56.37 48.72,55.98 49.57,55.77 50.4,55.56 52.07,55.13 53.76,54.87 55.46,54.77 L 55.47,54.84 Z M 55.47,54.84" />
        </g>
        <g id="ranaTop4-group1040">
            <path id="ranaTop4-bezier1038" stroke="none" fill="rgb(0, 0, 0)" d="M 45.9,52.48 C 44.29,53.23 42.7,54.02 41.17,54.9 40.42,55.35 39.7,55.86 38.98,56.31 38.27,56.79 37.5,57.21 37.09,57.98 L 37.02,57.97 C 37,57.48 37.27,57.04 37.55,56.67 37.84,56.3 38.19,55.99 38.54,55.7 39.26,55.13 40.09,54.75 40.89,54.37 42.51,53.6 44.17,52.96 45.87,52.41 L 45.9,52.48 Z M 45.9,52.48" />
        </g>
        <g id="ranaTop4-group1041">
            <path id="ranaTop4-bezier1039" stroke="none" fill="rgb(0, 0, 0)" d="M 35.57,55.24 C 34.28,56.23 32.88,57.08 31.36,57.72 30.61,58.04 29.82,58.36 28.98,58.43 28.14,58.51 27.25,58.42 26.51,58.01 L 26.53,57.94 C 27.35,57.94 28.11,57.85 28.87,57.69 29.62,57.53 30.4,57.39 31.15,57.16 32.66,56.67 34.13,55.99 35.52,55.18 L 35.57,55.24 Z M 35.57,55.24" />
        </g>
        <g id="ranaTop4-group1042">
            <path id="ranaTop4-bezier1040" stroke="none" fill="rgb(0, 0, 0)" d="M 30.4,54.84 C 28.67,55.22 26.89,55.42 25.1,55.44 24.21,55.46 23.3,55.46 22.42,55.28 21.53,55.08 20.66,54.79 19.9,54.29 L 19.92,54.22 C 20.82,54.33 21.67,54.45 22.53,54.54 23.39,54.62 24.25,54.78 25.12,54.84 26.86,54.96 28.63,54.94 30.39,54.77 L 30.4,54.84 Z M 30.4,54.84" />
        </g>
        <g id="ranaTop4-group1043">
            <path id="ranaTop4-bezier1041" stroke="none" fill="rgb(0, 0, 0)" d="M 25.14,52.48 C 23.16,51.61 21.15,50.82 19.1,50.19 18.07,49.89 17.03,49.67 16,49.45 14.99,49.26 13.93,49.02 12.95,49.46 L 12.9,49.4 C 13.29,48.96 13.88,48.78 14.44,48.7 15.01,48.62 15.57,48.65 16.13,48.71 17.24,48.85 18.27,49.24 19.29,49.62 21.33,50.39 23.29,51.35 25.17,52.42 L 25.14,52.48 Z M 25.14,52.48" />
        </g>
        <g id="ranaTop4-group1044">
            <path id="ranaTop4-bezier1042" stroke="none" fill="rgb(0, 0, 0)" d="M 19.9,46.96 C 18.38,46.44 16.83,46.05 15.27,45.83 14.48,45.72 13.7,45.72 12.93,45.67 12.16,45.62 11.4,45.63 10.58,45.7 L 10.56,45.63 C 11.25,45.16 12.11,44.97 12.93,44.92 13.77,44.87 14.58,45.05 15.37,45.24 16.96,45.6 18.48,46.17 19.92,46.89 L 19.9,46.96 Z M 19.9,46.96" />
        </g>
        <g id="ranaTop4-group1045">
            <path id="ranaTop4-bezier1043" stroke="none" fill="rgb(0, 0, 0)" d="M 18.08,40.82 C 16.39,41.18 14.62,41.28 12.86,41.02 11.99,40.89 11.09,40.7 10.3,40.24 9.51,39.79 8.82,39.14 8.43,38.33 L 8.49,38.28 C 9.19,38.82 9.88,39.25 10.64,39.58 11.39,39.9 12.15,40.23 12.98,40.43 13.8,40.63 14.64,40.73 15.5,40.78 16.35,40.83 17.22,40.83 18.07,40.75 L 18.08,40.82 Z M 18.08,40.82" />
        </g>
        <g id="ranaTop4-group1046">
            <path id="ranaTop4-bezier1044" stroke="none" fill="rgb(0, 0, 0)" d="M 17.24,37.08 C 16.53,36.64 15.78,36.25 15.02,35.91 14.27,35.56 13.49,35.26 12.7,35.04 11.91,34.82 11.1,34.71 10.31,34.62 9.52,34.52 8.73,34.54 7.88,34.67 L 7.86,34.6 C 8.56,34.08 9.48,33.87 10.36,33.87 11.25,33.87 12.09,34.16 12.89,34.47 14.5,35.08 15.96,35.97 17.28,37.02 L 17.24,37.08 Z M 17.24,37.08" />
        </g>
        <g id="ranaTop4-group1047">
            <path id="ranaTop4-bezier1045" stroke="none" fill="rgb(0, 0, 0)" d="M 16.35,32.26 C 14.47,32.1 12.59,31.82 10.74,31.38 9.82,31.16 8.88,30.94 8,30.51 7.15,30.08 6.27,29.53 5.78,28.66 L 5.83,28.61 C 6.6,29.17 7.44,29.5 8.3,29.83 9.16,30.14 10.02,30.51 10.9,30.8 12.69,31.36 14.52,31.81 16.36,32.18 L 16.35,32.26 Z M 16.35,32.26" />
        </g>
        <g id="ranaTop4-group1048">
            <path id="ranaTop4-bezier1046" stroke="none" fill="rgb(0, 0, 0)" d="M 84.45,24.83 C 82.52,23.27 80.47,21.84 78.34,20.6 77.26,20 76.14,19.49 75.03,18.99 73.92,18.48 72.79,18.05 71.56,17.84 L 71.56,17.76 C 72.82,17.57 74.13,17.87 75.32,18.29 76.52,18.73 77.6,19.41 78.65,20.09 80.75,21.47 82.7,23.05 84.5,24.78 L 84.45,24.83 Z M 84.45,24.83" />
        </g>
        <g id="ranaTop4-group1049">
            <path id="ranaTop4-bezier1047" stroke="none" fill="rgb(0, 0, 0)" d="M 75.56,23.21 C 73.31,22.89 71.09,22.37 68.93,21.61 67.85,21.23 66.76,20.83 65.78,20.21 64.81,19.58 63.89,18.81 63.29,17.81 L 63.34,17.76 C 64.24,18.47 65.18,19.04 66.16,19.56 67.14,20.07 68.12,20.6 69.15,21.05 71.21,21.92 73.37,22.61 75.57,23.14 L 75.56,23.21 Z M 75.56,23.21" />
        </g>
        <g id="ranaTop4-group1050">
            <path id="ranaTop4-bezier1048" stroke="none" fill="rgb(0, 0, 0)" d="M 96.08,24.72 C 94.3,24.19 92.55,23.57 90.84,22.83 89.98,22.47 89.11,22.11 88.32,21.59 87.54,21.07 86.77,20.47 86.25,19.66 L 86.31,19.6 C 87.1,20.11 87.89,20.52 88.7,20.95 89.51,21.37 90.28,21.86 91.09,22.29 92.73,23.13 94.4,23.91 96.1,24.64 L 96.08,24.72 Z M 96.08,24.72" />
        </g>
        <g id="ranaTop4-group1051">
            <path id="ranaTop4-bezier1049" stroke="none" fill="rgb(0, 0, 0)" d="M 97.95,34.2 C 96.33,34.61 94.73,35.11 93.2,35.71 92.43,36.03 91.71,36.41 90.98,36.76 90.26,37.11 89.55,37.47 88.96,38.07 L 88.9,38.03 C 89.16,37.17 89.91,36.56 90.62,36.1 91.36,35.64 92.19,35.39 93,35.15 94.62,34.65 96.27,34.33 97.94,34.13 L 97.95,34.2 Z M 97.95,34.2" />
        </g>
        <g id="ranaTop4-group1052">
            <path id="ranaTop4-bezier1050" stroke="none" fill="rgb(0, 0, 0)" d="M 98.63,31.36 C 96.92,31.9 95.17,32.34 93.4,32.65 92.51,32.8 91.61,32.97 90.7,32.95 89.79,32.92 88.85,32.81 88.01,32.4 L 88.03,32.33 C 88.94,32.33 89.8,32.27 90.68,32.2 91.55,32.13 92.43,32.13 93.32,32.05 95.08,31.88 96.85,31.62 98.61,31.29 L 98.63,31.36 Z M 98.63,31.36" />
        </g>
        <g id="ranaTop4-group1053">
            <path id="ranaTop4-bezier1051" stroke="none" fill="rgb(0, 0, 0)" d="M 97.69,28.05 L 94.19,29.24 C 93.62,29.45 93.06,29.7 92.46,29.84 91.87,29.99 91.28,30.09 90.65,30.19 L 90.62,30.13 C 91.08,29.65 91.66,29.38 92.23,29.13 92.81,28.89 93.43,28.79 94.03,28.66 95.24,28.39 96.45,28.17 97.67,27.98 L 97.69,28.05 Z M 97.69,28.05" />
        </g>
        <g id="ranaTop4-group1054">
            <path id="ranaTop4-bezier1052" stroke="none" fill="rgb(0, 0, 0)" d="M 95.47,26.66 C 93.75,26.53 92.04,26.28 90.36,25.89 89.51,25.7 88.65,25.52 87.85,25.14 87.07,24.76 86.27,24.29 85.75,23.55 L 85.8,23.5 C 86.57,23.9 87.34,24.17 88.14,24.45 88.93,24.71 89.71,25.05 90.52,25.31 92.14,25.82 93.8,26.24 95.48,26.59 L 95.47,26.66 Z M 95.47,26.66" />
        </g>
        <g id="ranaTop4-group1055">
            <path id="ranaTop4-bezier1053" stroke="none" fill="rgb(0, 0, 0)" d="M 89.59,29.43 C 87.63,29.73 85.68,30.18 83.84,30.88 82.93,31.24 82.08,31.71 81.28,32.21 80.48,32.71 79.76,33.33 79.33,34.24 L 79.26,34.22 C 79.29,33.16 80.03,32.21 80.85,31.59 81.69,30.95 82.68,30.61 83.65,30.31 85.59,29.72 87.59,29.44 89.59,29.35 L 89.59,29.43 Z M 89.59,29.43" />
        </g>
        <g id="ranaTop4-group1056">
            <path id="ranaTop4-bezier1054" stroke="none" fill="rgb(0, 0, 0)" d="M 87.42,35.76 C 86.16,36.82 84.57,37.54 82.86,37.67 82.01,37.73 81.11,37.67 80.31,37.32 79.52,36.97 78.81,36.44 78.31,35.76 L 78.36,35.7 C 79.12,36.06 79.83,36.4 80.57,36.62 81.31,36.84 82.05,37.05 82.84,37.06 83.62,37.08 84.42,36.95 85.18,36.71 85.95,36.48 86.7,36.15 87.38,35.7 L 87.42,35.76 Z M 87.42,35.76" />
        </g>
        <g id="ranaTop4-group1057">
            <path id="ranaTop4-bezier1055" stroke="none" fill="rgb(0, 0, 0)" d="M 86.29,46.67 C 85.07,47.79 83.91,48.97 82.84,50.22 82.32,50.85 81.86,51.52 81.36,52.15 80.86,52.79 80.39,53.42 79.97,54.16 L 79.9,54.14 C 79.92,53.27 80.31,52.45 80.74,51.72 81.19,51 81.8,50.4 82.4,49.81 83.59,48.63 84.88,47.57 86.24,46.61 L 86.29,46.67 Z M 86.29,46.67" />
        </g>
        <g id="ranaTop4-group1058">
            <path id="ranaTop4-bezier1056" stroke="none" fill="rgb(0, 0, 0)" d="M 88.27,40.99 C 86.76,42.54 84.89,43.77 82.81,44.52 81.78,44.89 80.68,45.18 79.56,45.16 78.44,45.14 77.33,44.9 76.34,44.4 L 76.36,44.33 C 77.45,44.43 78.5,44.49 79.54,44.41 80.57,44.33 81.61,44.23 82.63,43.94 83.65,43.66 84.63,43.25 85.56,42.74 86.5,42.23 87.41,41.64 88.22,40.94 L 88.27,40.99 Z M 88.27,40.99" />
        </g>
        <g id="ranaTop4-group1059">
            <path id="ranaTop4-bezier1057" stroke="none" fill="rgb(0, 0, 0)" d="M 80.64,46.96 C 79.02,47.64 77.41,48.35 75.83,49.1 75.04,49.48 74.28,49.92 73.49,50.27 L 71.09,51.33 71.04,51.28 C 71.62,50.57 72.38,50.05 73.14,49.6 73.92,49.15 74.76,48.86 75.59,48.55 77.24,47.91 78.92,47.36 80.62,46.89 L 80.64,46.96 Z M 80.64,46.96" />
        </g>
        <g id="ranaTop4-group1060">
            <path id="ranaTop4-bezier1058" stroke="none" fill="rgb(0, 0, 0)" d="M 86.78,28.02 C 85.32,27.96 83.86,27.77 82.42,27.4 81.7,27.22 80.96,27.03 80.31,26.61 79.68,26.21 79.03,25.61 78.9,24.82 L 78.97,24.79 C 79.45,25.35 80.05,25.66 80.67,25.96 81.3,26.25 81.93,26.57 82.6,26.83 83.95,27.31 85.36,27.67 86.79,27.94 L 86.78,28.02 Z M 86.78,28.02" />
        </g>
        <g id="ranaTop4-group1061">
            <path id="ranaTop4-bezier1059" stroke="none" fill="rgb(0, 0, 0)" d="M 85.25,20.67 C 84.7,19.68 84.02,18.74 83.21,18.01 82.8,17.65 82.34,17.39 81.89,17.15 81.45,16.9 80.97,16.76 80.37,16.68 L 80.36,16.6 C 80.88,16.27 81.59,16.25 82.19,16.46 82.8,16.67 83.25,17.14 83.64,17.58 84.43,18.49 84.96,19.54 85.33,20.64 L 85.25,20.67 Z M 85.25,20.67" />
        </g>
        <g id="ranaTop4-group1062">
            <path id="ranaTop4-bezier1060" stroke="none" fill="rgb(0, 0, 0)" d="M 68.76,17.82 C 67.76,16.45 66.61,15.19 65.32,14.13 64.67,13.61 63.96,13.19 63.27,12.76 62.58,12.33 61.85,11.98 61.04,11.67 L 61.05,11.6 C 61.93,11.5 62.83,11.73 63.63,12.1 64.43,12.48 65.1,13.08 65.72,13.68 66.97,14.89 68,16.28 68.82,17.78 L 68.76,17.82 Z M 68.76,17.82" />
        </g>
        <g id="ranaTop4-group1063">
            <path id="ranaTop4-bezier1061" stroke="none" fill="rgb(0, 0, 0)" d="M 68.25,22.51 C 66.37,22.68 64.48,22.69 62.58,22.52 61.64,22.44 60.68,22.35 59.76,22.05 58.85,21.75 57.94,21.34 57.22,20.69 L 57.26,20.62 C 58.17,20.91 59.05,21.14 59.95,21.33 60.85,21.52 61.74,21.77 62.66,21.93 64.5,22.23 66.37,22.39 68.25,22.44 L 68.25,22.51 Z M 68.25,22.51" />
        </g>
        <g id="ranaTop4-group1064">
            <path id="ranaTop4-bezier1062" stroke="none" fill="rgb(0, 0, 0)" d="M 58.78,16.61 C 56.28,16.85 53.79,17.16 51.33,17.59 50.11,17.82 48.9,18.12 47.7,18.4 47.1,18.53 46.51,18.7 45.94,18.89 45.37,19.1 44.79,19.33 44.42,19.82 L 44.35,19.79 C 44.56,19.13 45.17,18.73 45.72,18.42 46.29,18.1 46.9,17.88 47.5,17.68 48.73,17.29 49.99,17.15 51.24,17 53.75,16.69 56.26,16.56 58.77,16.54 L 58.78,16.61 Z M 58.78,16.61" />
        </g>
        <g id="ranaTop4-group1065">
            <path id="ranaTop4-bezier1063" stroke="none" fill="rgb(0, 0, 0)" d="M 61.92,14.84 C 60.39,14.66 58.88,14.35 57.39,13.91 56.65,13.7 55.89,13.49 55.2,13.11 54.51,12.74 53.85,12.28 53.34,11.67 L 53.38,11.61 55.51,12.43 C 56.21,12.71 56.88,13.06 57.59,13.34 59,13.89 60.46,14.37 61.94,14.77 L 61.92,14.84 Z M 61.92,14.84" />
        </g>
        <g id="ranaTop4-group1066">
            <path id="ranaTop4-bezier1064" stroke="none" fill="rgb(0, 0, 0)" d="M 50.7,12.33 C 49.28,13.52 47.58,14.36 45.78,14.88 44.89,15.14 43.95,15.36 43.01,15.35 42.07,15.33 41.12,15.19 40.25,14.84 L 40.26,14.77 C 41.19,14.71 42.09,14.68 42.98,14.6 43.86,14.51 44.76,14.47 45.64,14.29 46.52,14.12 47.39,13.86 48.23,13.52 49.07,13.18 49.9,12.78 50.65,12.28 L 50.7,12.33 Z M 50.7,12.33" />
        </g>
        <g id="ranaTop4-group1067">
            <path id="ranaTop4-bezier1065" stroke="none" fill="rgb(0, 0, 0)" d="M 37.93,52.48 C 37.01,52.22 36.05,52.09 35.1,52.01 34.15,51.92 33.19,51.9 32.24,51.95 31.29,51.99 30.35,52.15 29.41,52.23 28.46,52.32 27.51,52.43 26.53,52.48 L 26.51,52.41 C 27.39,51.96 28.34,51.68 29.3,51.49 30.27,51.3 31.26,51.31 32.23,51.34 34.19,51.4 36.14,51.7 37.96,52.41 L 37.93,52.48 Z M 37.93,52.48" />
        </g>
        <g id="ranaTop4-group1068">
            <path id="ranaTop4-bezier1066" stroke="none" fill="rgb(0, 0, 0)" d="M 28.16,50.28 C 26.38,49.85 24.64,49.24 23.02,48.31 22.22,47.85 21.39,47.32 20.82,46.51 20.25,45.72 20,44.57 20.46,43.71 L 20.53,43.73 C 20.51,44.66 20.87,45.42 21.42,46.05 21.97,46.69 22.61,47.29 23.34,47.8 24.82,48.8 26.48,49.58 28.18,50.21 L 28.16,50.28 Z M 28.16,50.28" />
        </g>
        <g id="ranaTop4-group1069">
            <path id="ranaTop4-bezier1067" stroke="none" fill="rgb(0, 0, 0)" d="M 25.5,44.57 C 24.76,43.82 23.96,43.13 23.12,42.54 22.7,42.25 22.24,42.04 21.82,41.77 21.4,41.49 20.99,41.26 20.49,41 L 20.5,40.93 C 21.05,40.77 21.65,40.89 22.17,41.1 22.69,41.32 23.1,41.71 23.5,42.07 24.3,42.8 24.98,43.64 25.56,44.53 L 25.5,44.57 Z M 25.5,44.57" />
        </g>
        <g id="ranaTop4-group1070">
            <path id="ranaTop4-bezier1068" stroke="none" fill="rgb(0, 0, 0)" d="M 67.16,52.47 C 66.58,51.92 65.94,51.41 65.29,50.95 64.65,50.48 63.97,50.05 63.27,49.69 62.56,49.34 61.82,49.1 61.09,48.87 60.36,48.64 59.61,48.52 58.79,48.51 L 58.77,48.44 C 59.51,48.04 60.43,47.98 61.27,48.15 62.12,48.3 62.86,48.73 63.56,49.17 64.97,50.05 66.18,51.18 67.22,52.42 L 67.16,52.47 Z M 67.16,52.47" />
        </g>
        <g id="ranaTop4-group1071">
            <path id="ranaTop4-bezier1069" stroke="none" fill="rgb(0, 0, 0)" d="M 74.74,46.15 C 72.33,45.65 69.94,45.07 67.58,44.36 66.39,44.01 65.2,43.67 64.07,43.14 63.51,42.88 62.95,42.59 62.42,42.25 61.9,41.9 61.38,41.52 61.01,40.99 L 61.07,40.94 C 62.08,41.62 63.23,42.01 64.36,42.45 L 67.76,43.79 C 70.07,44.62 72.41,45.37 74.76,46.07 L 74.74,46.15 Z M 74.74,46.15" />
        </g>
        <g id="ranaTop4-group1072">
            <path id="ranaTop4-bezier1070" stroke="none" fill="rgb(0, 0, 0)" d="M 81.6,40.42 C 79.54,40.26 77.48,40.17 75.43,40.2 74.41,40.22 73.39,40.33 72.39,40.4 71.39,40.48 70.37,40.53 69.46,40.99 L 69.41,40.94 C 69.75,40.51 70.26,40.24 70.75,40.05 71.26,39.85 71.78,39.74 72.3,39.65 73.35,39.48 74.4,39.54 75.44,39.6 77.52,39.7 79.58,39.97 81.61,40.35 L 81.6,40.42 Z M 81.6,40.42" />
        </g>
        <g id="ranaTop4-group1073">
            <path id="ranaTop4-bezier1071" stroke="none" fill="rgb(0, 0, 0)" d="M 80.35,28.67 C 78.74,28.24 77.09,27.96 75.45,27.93 74.63,27.92 73.83,28.03 73.04,28.12 72.24,28.21 71.47,28.39 70.67,28.67 L 70.63,28.61 C 71.22,27.97 72.06,27.58 72.9,27.38 73.76,27.17 74.64,27.23 75.49,27.33 77.19,27.5 78.83,27.95 80.38,28.6 L 80.35,28.67 Z M 80.35,28.67" />
        </g>
        <g id="ranaTop4-group1074">
            <path id="ranaTop4-bezier1072" stroke="none" fill="rgb(0, 0, 0)" d="M 73.84,34.43 C 71.12,34.66 68.39,34.74 65.65,34.62 64.29,34.56 62.91,34.5 61.56,34.2 60.22,33.88 58.84,33.49 57.74,32.63 L 57.77,32.56 C 59.05,33.03 60.36,33.28 61.69,33.47 63.02,33.66 64.35,33.88 65.7,34.02 68.39,34.27 71.11,34.37 73.83,34.35 L 73.84,34.43 Z M 73.84,34.43" />
        </g>
        <g id="ranaTop4-group1075">
            <path id="ranaTop4-bezier1073" stroke="none" fill="rgb(0, 0, 0)" d="M 58.45,43.75 C 56.66,42.95 54.8,42.29 52.92,41.81 51.98,41.59 51.02,41.46 50.08,41.3 49.13,41.14 48.19,41.04 47.19,41 L 47.18,40.93 C 48.12,40.56 49.16,40.49 50.17,40.56 51.18,40.62 52.14,40.93 53.09,41.24 54.98,41.85 56.78,42.68 58.48,43.68 L 58.45,43.75 Z M 58.45,43.75" />
        </g>
        <g id="ranaTop4-group1076">
            <path id="ranaTop4-bezier1074" stroke="none" fill="rgb(0, 0, 0)" d="M 57.98,50.28 C 57.52,50.14 57.17,49.81 56.79,49.54 L 55.69,48.7 C 54.96,48.14 54.23,47.58 53.47,47.07 52.71,46.57 51.9,46.14 51.13,45.7 50.35,45.25 49.56,44.86 48.67,44.59 L 48.67,44.51 C 49.63,44.37 50.6,44.65 51.47,45.03 52.34,45.42 53.1,46.01 53.82,46.59 54.56,47.17 55.25,47.79 55.93,48.42 L 56.94,49.37 C 57.28,49.67 57.6,50.04 58,50.21 L 57.98,50.28 Z M 57.98,50.28" />
        </g>
        <g id="ranaTop4-group1077">
            <path id="ranaTop4-bezier1075" stroke="none" fill="rgb(0, 0, 0)" d="M 49.96,48.38 C 48.86,48.56 47.75,48.81 46.63,48.98 45.51,49.14 44.38,49.26 43.23,49.29 42.09,49.33 40.92,49.34 39.79,49.01 38.69,48.69 37.5,48.05 37.02,46.95 L 37.09,46.91 C 37.88,47.72 38.91,48.06 39.97,48.28 41.03,48.49 42.12,48.65 43.24,48.69 44.35,48.73 45.47,48.69 46.59,48.61 47.71,48.54 48.82,48.39 49.96,48.3 L 49.96,48.38 49.96,48.38 Z M 49.96,48.38" />
        </g>
        <g id="ranaTop4-group1078">
            <path id="ranaTop4-bezier1076" stroke="none" fill="rgb(0, 0, 0)" d="M 34.34,47 C 33.69,45.57 32.99,44.17 32.19,42.84 31.79,42.18 31.32,41.56 30.9,40.94 30.47,40.34 30.07,39.69 29.36,39.38 L 29.36,39.31 C 29.79,39.24 30.22,39.43 30.57,39.65 30.93,39.88 31.22,40.17 31.5,40.48 32.04,41.1 32.38,41.83 32.72,42.55 33.42,43.98 33.96,45.46 34.41,46.97 L 34.34,47 Z M 34.34,47" />
        </g>
        <g id="ranaTop4-group1079">
            <path id="ranaTop4-bezier1077" stroke="none" fill="rgb(0, 0, 0)" d="M 44.36,44.81 C 43.25,43.74 42.08,42.73 40.86,41.82 40.24,41.38 39.59,41 38.98,40.58 38.36,40.15 37.74,39.75 37.05,39.38 L 37.06,39.31 C 37.87,39.28 38.66,39.57 39.36,39.93 40.07,40.3 40.66,40.84 41.24,41.36 42.41,42.4 43.46,43.54 44.41,44.76 L 44.36,44.81 Z M 44.36,44.81" />
        </g>
        <g id="ranaTop4-group1080">
            <path id="ranaTop4-bezier1078" stroke="none" fill="rgb(0, 0, 0)" d="M 67.19,27.64 C 64.41,27.51 61.64,27.51 58.89,27.73 57.51,27.85 56.16,28.07 54.82,28.31 53.49,28.55 52.15,28.86 51.03,29.66 L 50.98,29.61 C 51.85,28.44 53.33,27.95 54.66,27.57 56.04,27.23 57.46,27.17 58.85,27.13 61.65,27.05 64.43,27.22 67.19,27.57 L 67.19,27.64 Z M 67.19,27.64" />
        </g>
        <g id="ranaTop4-group1081">
            <path id="ranaTop4-bezier1079" stroke="none" fill="rgb(0, 0, 0)" d="M 53.28,23.21 C 51.26,23.87 49.18,24.36 47.05,24.65 45.99,24.79 44.92,24.93 43.84,24.84 42.76,24.75 41.66,24.53 40.71,24.01 L 40.73,23.94 C 41.79,24.07 42.82,24.11 43.86,24.09 44.9,24.08 45.94,24.11 46.99,24.05 49.09,23.9 51.19,23.59 53.26,23.14 L 53.28,23.21 Z M 53.28,23.21" />
        </g>
        <g id="ranaTop4-group1082">
            <path id="ranaTop4-bezier1080" stroke="none" fill="rgb(0, 0, 0)" d="M 40.85,20.51 C 39.58,19.4 38.22,18.38 36.79,17.53 36.07,17.11 35.31,16.79 34.58,16.45 33.84,16.13 33.1,15.86 32.24,15.81 L 32.22,15.74 C 33.04,15.36 34.02,15.49 34.85,15.75 35.69,16.02 36.42,16.52 37.12,17.02 38.52,18.02 39.77,19.19 40.9,20.46 L 40.85,20.51 Z M 40.85,20.51" />
        </g>
        <g id="ranaTop4-group1083">
            <path id="ranaTop4-bezier1081" stroke="none" fill="rgb(0, 0, 0)" d="M 34.37,21.34 C 33.48,21.08 32.64,20.73 31.77,20.43 30.92,20.12 30.06,19.81 29.2,19.52 28.33,19.23 27.45,19.01 26.61,18.7 25.76,18.4 24.92,18.09 24.04,17.83 L 24.04,17.75 C 24.98,17.61 25.93,17.77 26.82,17.98 27.73,18.21 28.57,18.59 29.41,18.96 30.25,19.32 31.09,19.7 31.92,20.09 32.74,20.48 33.55,20.92 34.39,21.27 L 34.37,21.34 Z M 34.37,21.34" />
        </g>
        <g id="ranaTop4-group1084">
            <path id="ranaTop4-bezier1082" stroke="none" fill="rgb(0, 0, 0)" d="M 61.92,37.09 C 61.5,37.07 61.07,37.26 60.65,37.37 L 59.37,37.75 C 58.51,37.98 57.63,38.18 56.74,38.31 55.84,38.43 54.92,38.53 54,38.34 53.09,38.16 52.19,37.75 51.56,37.08 L 51.6,37.02 C 52.45,37.33 53.26,37.53 54.11,37.6 54.95,37.68 55.81,37.75 56.68,37.71 57.55,37.66 58.42,37.54 59.29,37.38 L 60.6,37.15 C 61.04,37.08 61.47,36.95 61.94,37.01 L 61.92,37.09 Z M 61.92,37.09" />
        </g>
        <g id="ranaTop4-group1085">
            <path id="ranaTop4-bezier1083" stroke="none" fill="rgb(0, 0, 0)" d="M 52.34,33.57 C 50.2,32.74 48.02,32 45.81,31.43 44.7,31.16 43.58,30.97 42.48,30.78 41.39,30.63 40.25,30.42 39.21,30.89 L 39.16,30.83 C 39.57,30.38 40.2,30.18 40.79,30.08 41.38,29.98 41.98,29.99 42.57,30.04 43.75,30.14 44.87,30.5 45.97,30.85 48.18,31.57 50.31,32.47 52.37,33.5 L 52.34,33.57 Z M 52.34,33.57" />
        </g>
        <g id="ranaTop4-group1086">
            <path id="ranaTop4-bezier1084" stroke="none" fill="rgb(0, 0, 0)" d="M 43.5,35.68 C 42.61,35.75 41.69,36.03 40.77,36.15 39.84,36.28 38.9,36.36 37.95,36.35 37.01,36.34 36.04,36.28 35.13,35.97 34.22,35.65 33.35,35.18 32.68,34.5 L 32.72,34.44 C 33.61,34.77 34.46,35.05 35.33,35.25 36.2,35.44 37.08,35.66 37.99,35.75 38.89,35.83 39.81,35.83 40.73,35.78 41.65,35.76 42.56,35.58 43.51,35.6 L 43.5,35.68 Z M 43.5,35.68" />
        </g>
        <g id="ranaTop4-group1087">
            <path id="ranaTop4-bezier1085" stroke="none" fill="rgb(0, 0, 0)" d="M 38.1,26.64 C 36.29,26.52 34.47,26.58 32.7,26.82 31.82,26.95 30.96,27.19 30.1,27.38 29.24,27.58 28.41,27.83 27.54,28.15 L 27.5,28.09 C 28.16,27.42 29.02,26.97 29.9,26.66 30.78,26.36 31.72,26.28 32.64,26.22 34.48,26.11 36.32,26.23 38.11,26.56 L 38.1,26.64 Z M 38.1,26.64" />
        </g>
        <g id="ranaTop4-group1088">
            <path id="ranaTop4-bezier1086" stroke="none" fill="rgb(0, 0, 0)" d="M 35.55,29.68 C 33.6,30.23 31.67,30.9 29.84,31.73 28.93,32.16 28.07,32.67 27.24,33.17 26.42,33.69 25.6,34.25 25.19,35.18 L 25.12,35.17 C 25.11,34.63 25.35,34.11 25.67,33.67 25.99,33.23 26.39,32.87 26.82,32.55 27.67,31.92 28.65,31.54 29.61,31.18 31.54,30.45 33.53,29.95 35.54,29.6 L 35.55,29.68 Z M 35.55,29.68" />
        </g>
        <g id="ranaTop4-group1089">
            <path id="ranaTop4-bezier1087" stroke="none" fill="rgb(0, 0, 0)" d="M 27.54,30.46 C 26.61,30.79 25.67,30.93 24.71,31.08 23.76,31.21 22.8,31.3 21.83,31.32 20.86,31.34 19.87,31.34 18.91,31.09 17.96,30.84 16.99,30.42 16.33,29.67 L 16.38,29.61 C 17.26,30.01 18.15,30.21 19.06,30.36 19.97,30.5 20.9,30.66 21.84,30.71 22.78,30.77 23.73,30.76 24.68,30.71 25.62,30.66 26.6,30.61 27.5,30.39 L 27.54,30.46 Z M 27.54,30.46" />
        </g>
        <g id="ranaTop4-group1090">
            <path id="ranaTop4-bezier1088" stroke="none" fill="rgb(0, 0, 0)" d="M 24.27,24.51 C 23.15,24 21.98,23.58 20.8,23.32 20.2,23.2 19.61,23.18 19.04,23.13 18.46,23.07 17.91,23.08 17.28,23.21 L 17.24,23.15 C 17.68,22.64 18.39,22.42 19.05,22.38 19.72,22.34 20.35,22.54 20.96,22.74 22.17,23.15 23.28,23.74 24.31,24.45 L 24.27,24.51 Z M 24.27,24.51" />
        </g>
        <g id="ranaTop4-group1091">
            <path id="ranaTop4-bezier1089" stroke="none" fill="rgb(0, 0, 0)" d="M 104.12,24.17 C 103.96,24.48 103.58,24.52 103.29,24.57 102.97,24.62 102.65,24.6 102.33,24.54 102.02,24.47 101.7,24.36 101.41,24.2 101.26,24.12 101.12,24.02 100.98,23.89 100.86,23.75 100.68,23.55 100.75,23.21 100.76,23.1 100.9,22.91 100.99,22.85 101.09,22.78 101.19,22.73 101.28,22.69 101.47,22.63 101.65,22.6 101.83,22.58 102.19,22.56 102.52,22.62 102.84,22.73 103.15,22.84 103.45,23.04 103.69,23.28 103.91,23.52 104.19,23.81 104.12,24.17 Z M 104.05,24.14 C 104.08,23.86 103.73,23.7 103.48,23.62 103.19,23.54 102.92,23.51 102.64,23.45 102.37,23.39 102.1,23.35 101.84,23.33 101.59,23.28 101.3,23.4 101.33,23.37 101.26,23.35 101.44,23.66 101.67,23.79 101.9,23.95 102.15,24.08 102.43,24.18 102.7,24.29 102.99,24.37 103.29,24.41 103.56,24.44 103.95,24.43 104.05,24.14 Z M 104.05,24.14" />
        </g>
        <g id="ranaTop4-group1092">
            <path id="ranaTop4-bezier1090" stroke="none" fill="rgb(0, 0, 0)" d="M 105.34,30.73 C 105.14,30.5 104.77,30.64 104.53,30.77 104.27,30.92 104.04,31.11 103.82,31.31 103.6,31.51 103.41,31.72 103.26,31.96 103.19,32.07 103.13,32.19 103.1,32.31 103.06,32.41 103.13,32.53 103.08,32.44 103.09,32.49 103.37,32.45 103.6,32.32 103.83,32.21 104.06,32.06 104.29,31.91 104.53,31.74 104.77,31.62 105,31.43 105.21,31.26 105.47,30.99 105.34,30.73 Z M 105.39,30.68 C 105.59,30.99 105.44,31.36 105.33,31.67 105.2,31.98 105,32.28 104.75,32.5 104.5,32.72 104.21,32.9 103.87,33.01 103.7,33.07 103.52,33.11 103.32,33.12 103.22,33.12 103.11,33.12 102.99,33.08 102.92,33.06 102.87,33.04 102.79,32.99 102.69,32.92 102.68,32.89 102.66,32.87 102.42,32.53 102.54,32.31 102.59,32.13 102.67,31.95 102.76,31.8 102.87,31.67 103.08,31.41 103.34,31.19 103.6,31.01 103.87,30.84 104.16,30.7 104.47,30.62 104.76,30.56 105.13,30.45 105.39,30.68 Z M 105.39,30.68" />
        </g>
        <g id="ranaTop4-group1093">
            <path id="ranaTop4-bezier1091" stroke="none" fill="rgb(0, 0, 0)" d="M 103.1,30.31 C 102.89,30.51 102.73,30.76 102.59,31.02 102.44,31.26 102.32,31.53 102.24,31.79 102.17,32.06 102.19,32.31 102.14,32.53 102.09,32.76 102.06,32.97 102.1,33.33 L 102.04,33.38 C 101.68,33.29 101.43,32.91 101.39,32.54 101.34,32.15 101.53,31.82 101.7,31.54 102.04,30.98 102.49,30.52 103.06,30.24 L 103.1,30.31 Z M 103.1,30.31" />
        </g>
        <g id="ranaTop4-group1094">
            <path id="ranaTop4-bezier1092" stroke="none" fill="rgb(0, 0, 0)" d="M 102.33,25.11 C 101.76,25.24 101.15,25.23 100.55,25 100.26,24.9 99.93,24.74 99.75,24.44 99.58,24.14 99.53,23.77 99.67,23.45 L 99.75,23.44 C 100.01,23.67 100.17,23.83 100.35,23.98 100.51,24.12 100.63,24.32 100.83,24.47 101.24,24.75 101.77,24.95 102.32,25.04 L 102.33,25.11 Z M 102.33,25.11" />
        </g>
        <g id="ranaTop4-group1095">
            <path id="ranaTop4-bezier1093" stroke="none" fill="rgb(0, 0, 0)" d="M 79.77,12.1 C 79.86,11.83 79.87,11.53 79.78,11.3 79.71,11.07 79.54,10.91 79.32,10.81 79.1,10.71 78.84,10.71 78.6,10.6 78.35,10.49 78.09,10.38 77.81,10.16 L 77.81,10.08 C 78.12,9.9 78.44,9.85 78.76,9.87 79.09,9.89 79.4,10.08 79.66,10.31 79.93,10.54 80.14,10.89 80.15,11.24 80.15,11.59 80.02,11.89 79.84,12.14 L 79.77,12.1 Z M 79.77,12.1" />
        </g>
        <g id="ranaTop4-group1096">
            <path id="ranaTop4-bezier1094" stroke="none" fill="rgb(0, 0, 0)" d="M 79.34,9.42 C 79.24,9.11 79.04,8.82 78.79,8.69 78.55,8.55 78.28,8.56 78.01,8.66 77.74,8.77 77.51,8.97 77.22,9.09 76.93,9.21 76.59,9.35 76.2,9.37 L 76.16,9.31 C 76.33,8.94 76.54,8.69 76.83,8.45 77.11,8.22 77.49,8.12 77.88,8.08 78.26,8.02 78.73,8.1 79.02,8.39 79.31,8.69 79.4,9.06 79.42,9.41 L 79.34,9.42 Z M 79.34,9.42" />
        </g>
        <g id="ranaTop4-group1097">
            <path id="ranaTop4-bezier1095" stroke="none" fill="rgb(0, 0, 0)" d="M 81.9,53.26 C 82.89,53.28 83.9,53.31 84.87,53.17 84.99,53.14 85.11,53.12 85.21,53.08 85.32,53.03 85.49,52.99 85.62,52.99 85.89,52.98 86.15,53.03 86.4,53.11 86.9,53.28 87.36,53.59 87.7,54.01 88.04,54.43 88.23,54.98 88.23,55.52 88.22,56.03 88.26,56.52 88.13,57.08 88.09,57.35 87.83,57.71 87.49,57.79 87.17,57.87 86.9,57.83 86.63,57.8 86.1,57.73 85.63,57.57 85.15,57.5 84.22,57.36 83.25,57.48 82.28,57.65 81.28,57.81 80.34,58.02 79.18,57.92 78.85,57.85 78.54,57.66 78.35,57.41 78.14,57.16 78.03,56.89 77.95,56.62 77.8,56.09 77.75,55.58 77.75,55.06 77.74,54.04 77.85,53.04 77.98,52.05 L 78.05,52.05 C 78.14,53.05 78.16,54.05 78.27,55.03 78.34,55.51 78.4,56 78.56,56.42 78.72,56.85 78.98,57.14 79.32,57.18 81.09,57.24 83.17,56.5 85.27,56.91 85.78,57.01 86.26,57.19 86.72,57.26 86.94,57.3 87.18,57.33 87.35,57.29 87.51,57.25 87.6,57.15 87.66,56.94 87.78,56.53 87.78,56 87.8,55.52 87.82,55.06 87.68,54.61 87.4,54.23 86.85,53.51 85.86,52.99 84.91,53.39 83.89,53.49 82.89,53.41 81.89,53.33 L 81.9,53.26 Z M 81.9,53.26" />
        </g>
        <g id="ranaTop4-group1098">
            <path id="ranaTop4-bezier1096" stroke="none" fill="rgb(0, 0, 0)" d="M 87.02,58.32 C 86.79,58.43 86.54,58.57 86.29,58.68 86.03,58.78 85.76,58.87 85.48,58.93 85.2,58.99 84.88,59.1 84.53,58.93 84.37,58.85 84.19,58.71 84.12,58.5 84.05,58.3 84.08,58.11 84.19,57.97 L 84.26,57.97 C 84.49,58.25 84.62,58.21 84.78,58.22 84.94,58.23 85.17,58.32 85.42,58.33 85.93,58.35 86.45,58.29 87.01,58.25 L 87.02,58.32 Z M 87.02,58.32" />
        </g>
        <g id="ranaTop4-group1367">
            <path id="ranaTop4-bezier1365" stroke="none" fill="rgb(0, 0, 0)" d="M 27.24,10.17 C 25.77,10.27 24.32,10.6 22.96,11.09 22.28,11.35 21.65,11.69 20.99,11.98 20.33,12.26 19.69,12.57 18.98,12.87 L 18.93,12.81 C 19.39,12.19 20,11.7 20.65,11.31 21.31,10.92 22.05,10.71 22.78,10.52 24.25,10.14 25.75,9.98 27.24,10.09 L 27.24,10.17 Z M 27.24,10.17" />
        </g>
        <g id="ranaTop4-group1368">
            <path id="ranaTop4-bezier1366" stroke="none" fill="rgb(0, 0, 0)" d="M 22.18,10.35 C 22.28,10.11 22.28,9.83 22.17,9.66 22.08,9.49 21.88,9.39 21.66,9.33 21.44,9.27 21.19,9.29 20.96,9.2 20.72,9.11 20.47,9.01 20.21,8.79 L 20.22,8.71 C 20.5,8.52 20.79,8.47 21.08,8.46 21.38,8.46 21.65,8.62 21.92,8.78 22.18,8.94 22.46,9.2 22.53,9.55 22.58,9.9 22.43,10.19 22.24,10.4 L 22.18,10.35 Z M 22.18,10.35" />
        </g>
        <g id="ranaTop4-group1369">
            <path id="ranaTop4-bezier1367" stroke="none" fill="rgb(0, 0, 0)" d="M 22.35,8.4 C 22.31,8.19 22.09,8.05 21.88,7.96 21.67,7.87 21.44,7.81 21.21,7.77 20.75,7.69 20.27,7.68 19.8,7.68 18.85,7.68 17.89,7.77 16.96,7.9 16.05,8.05 15.23,8.39 14.8,9.08 14.34,9.78 14.27,10.76 14.14,11.72 L 14.07,11.73 C 13.83,10.79 13.68,9.74 14.17,8.72 14.42,8.23 14.87,7.81 15.37,7.6 15.87,7.38 16.39,7.3 16.89,7.26 17.87,7.22 18.84,7.21 19.82,7.29 20.3,7.33 20.79,7.41 21.27,7.54 21.5,7.61 21.74,7.69 21.95,7.82 22.16,7.95 22.4,8.12 22.42,8.4 L 22.35,8.4 Z M 22.35,8.4" />
        </g>
        <g id="ranaTop4-group1370">
            <path id="ranaTop4-bezier1368" stroke="none" fill="rgb(0, 0, 0)" d="M 18.89,11.7 C 18.49,11.78 18.1,11.85 17.71,11.89 17.51,11.91 17.31,11.98 17.11,11.91 16.92,11.84 16.74,11.74 16.56,11.52 L 16.57,11.44 C 16.79,11.26 16.98,11.2 17.18,11.17 17.38,11.13 17.56,11.23 17.75,11.29 18.13,11.38 18.51,11.49 18.89,11.62 L 18.89,11.7 Z M 18.89,11.7" />
        </g>
    </g>
</svg>
