<?xml version="1.0" encoding="UTF-8"?>
<!DOCTYPE svg PUBLIC "-//W3C//DTD SVG 1.1//EN" "http://www.w3.org/Graphics/SVG/1.1/DTD/svg11.dtd">
<svg version="1.1" xmlns="http://www.w3.org/2000/svg" xmlns:xlink="http://www.w3.org/1999/xlink" width="120" height="60"  xml:space="preserve" id="ranaTop5">
    <!-- Generated by PaintCode - http://www.paintcodeapp.com -->
    <g id="ranaTop5-group1444">
        <g id="ranaTop5-group923">
            <path id="ranaTop5-bezier921" stroke="none" fill="rgb(0, 0, 0)" d="M 109.84,33.23 C 110.62,33.23 111.41,33.43 112.13,33.81 112.83,34.18 113.48,34.93 113.52,35.84 L 113.53,36.02 113.53,36.17 C 113.52,36.28 113.49,36.43 113.46,36.53 113.39,36.76 113.27,36.98 113.12,37.16 112.83,37.53 112.44,37.76 112.05,37.92 111.25,38.2 110.44,38.27 109.64,38.13 L 109.63,38.06 C 110.38,37.79 111.11,37.56 111.74,37.23 112.36,36.9 112.92,36.53 112.93,35.86 112.97,35.18 112.54,34.54 111.93,34.13 111.33,33.7 110.59,33.4 109.83,33.3 L 109.84,33.23 Z M 109.84,33.23" />
        </g>
        <g id="ranaTop5-group924">
            <path id="ranaTop5-bezier922" stroke="none" fill="rgb(0, 0, 0)" d="M 107.83,38.05 C 106.23,39.29 104.59,40.47 102.79,41.46 101.88,41.96 100.95,42.33 100.07,42.75 99.17,43.13 98.38,43.65 97.56,44.29 L 97.51,44.24 C 98,43.34 98.81,42.58 99.73,42.08 100.63,41.55 101.64,41.32 102.53,40.92 104.33,40.08 106.07,39.04 107.78,37.99 L 107.83,38.05 Z M 107.83,38.05" />
        </g>
        <g id="ranaTop5-group925">
            <path id="ranaTop5-bezier923" stroke="none" fill="rgb(0, 0, 0)" d="M 96.96,43.24 C 96.96,42.9 96.93,42.55 96.85,42.22 96.77,41.9 96.61,41.56 96.34,41.44 96.07,41.32 95.75,41.45 95.47,41.62 95.19,41.79 94.93,42.01 94.69,42.25 93.71,43.2 92.83,44.29 92.02,45.4 91.22,46.52 90.49,47.7 89.89,48.89 89.74,49.18 89.61,49.49 89.55,49.78 89.48,50.09 89.49,50.33 89.64,50.44 89.81,50.59 90.17,50.6 90.5,50.57 90.83,50.55 91.17,50.47 91.52,50.41 L 91.54,50.48 C 91.23,50.65 90.91,50.79 90.56,50.9 90.21,50.99 89.83,51.1 89.37,50.89 89.15,50.78 88.98,50.54 88.93,50.31 88.88,50.08 88.88,49.87 88.91,49.68 88.96,49.28 89.08,48.93 89.21,48.59 89.77,47.24 90.66,46.13 91.54,45.03 92.44,43.95 93.37,42.9 94.44,41.97 94.71,41.74 95,41.52 95.33,41.35 95.64,41.2 96.06,41.04 96.45,41.24 96.81,41.45 96.93,41.85 97,42.19 97.06,42.54 97.06,42.89 97.04,43.25 L 96.96,43.24 Z M 96.96,43.24" />
        </g>
        <g id="ranaTop5-group926">
            <path id="ranaTop5-bezier924" stroke="none" fill="rgb(0, 0, 0)" d="M 96.55,45.09 C 95.9,45.86 95.25,46.63 94.63,47.41 94.32,47.8 94.06,48.23 93.73,48.58 93.4,48.95 93.02,49.25 92.75,49.66 L 92.67,49.65 C 92.59,49.36 92.69,49.08 92.77,48.83 92.86,48.57 93,48.34 93.13,48.12 93.41,47.68 93.82,47.35 94.19,47 94.92,46.3 95.7,45.65 96.5,45.03 L 96.55,45.09 Z M 96.55,45.09" />
        </g>
        <g id="ranaTop5-group927">
            <path id="ranaTop5-bezier925" stroke="none" fill="rgb(0, 0, 0)" d="M 109.3,31.91 C 108.72,31.08 108.07,30.3 107.38,29.57 106.69,28.85 105.94,28.17 105.12,27.65 104.7,27.4 104.27,27.2 103.81,27.06 103.32,26.91 102.81,26.68 102.37,26.38 101.49,25.79 100.72,24.9 100.55,23.84 L 100.62,23.82 C 101.17,24.68 101.93,25.29 102.76,25.75 103.18,25.98 103.6,26.18 104.07,26.36 104.56,26.56 105.03,26.84 105.45,27.16 107.14,28.42 108.35,30.11 109.36,31.87 L 109.3,31.91 Z M 109.3,31.91" />
        </g>
        <g id="ranaTop5-group928">
            <path id="ranaTop5-bezier926" stroke="none" fill="rgb(0, 0, 0)" d="M 99.62,23.81 C 99.35,24.5 98.95,25.17 98.36,25.67 97.77,26.19 96.86,26.35 96.12,26.04 95.37,25.75 94.78,25.24 94.24,24.69 93.71,24.14 93.25,23.53 92.84,22.89 92.03,21.61 91.31,20.23 91.11,18.66 91.07,18.27 91.06,17.86 91.14,17.44 91.19,17.23 91.26,17.02 91.39,16.82 91.55,16.6 91.68,16.5 91.85,16.37 92.18,16.12 92.6,15.95 93.02,15.96 93.43,15.97 93.82,16.13 94.1,16.4 L 94.05,16.46 C 93.39,16.11 92.64,16.27 92.19,16.77 91.94,17.02 91.81,17.22 91.78,17.55 91.75,17.87 91.78,18.22 91.85,18.56 92.12,19.93 92.64,21.32 93.35,22.58 94.09,23.82 94.98,25.06 96.26,25.69 96.88,26 97.64,25.92 98.22,25.49 98.8,25.07 99.24,24.44 99.55,23.78 L 99.62,23.81 Z M 99.62,23.81" />
        </g>
        <g id="ranaTop5-group929">
            <path id="ranaTop5-bezier927" stroke="none" fill="rgb(0, 0, 0)" d="M 94.97,18.2 C 95.64,18.81 96.3,19.44 96.93,20.09 97.25,20.41 97.61,20.7 97.86,21.08 98.12,21.46 98.34,21.86 98.47,22.34 L 98.41,22.39 C 97.97,22.17 97.62,21.88 97.29,21.56 96.96,21.25 96.73,20.85 96.47,20.48 95.94,19.75 95.42,19 94.91,18.25 L 94.97,18.2 Z M 94.97,18.2" />
        </g>
        <g id="ranaTop5-group930">
            <path id="ranaTop5-bezier928" stroke="none" fill="rgb(0, 0, 0)" d="M 85.87,15.6 C 84.76,14.92 83.71,14.11 82.77,13.16 82.3,12.69 81.82,12.2 81.52,11.57 81.22,10.96 81.03,10.23 81.19,9.55 L 81.26,9.55 C 81.52,10.17 81.82,10.69 82.17,11.2 82.52,11.71 82.83,12.26 83.22,12.76 84.02,13.76 84.94,14.69 85.92,15.54 L 85.87,15.6 Z M 85.87,15.6" />
        </g>
        <g id="ranaTop5-group931">
            <path id="ranaTop5-bezier929" stroke="none" fill="rgb(0, 0, 0)" d="M 82.75,16.36 C 81.63,15.2 80.44,14.13 79.19,13.14 78.56,12.65 77.89,12.23 77.27,11.74 76.66,11.24 76.03,10.76 75.41,10.22 L 75.44,10.15 C 76.26,10.33 77.01,10.7 77.7,11.12 78.4,11.55 79,12.13 79.58,12.69 80.77,13.8 81.85,15.01 82.81,16.31 L 82.75,16.36 Z M 82.75,16.36" />
        </g>
        <g id="ranaTop5-group932">
            <path id="ranaTop5-bezier930" stroke="none" fill="rgb(0, 0, 0)" d="M 73.88,13.29 C 72.24,12.2 70.75,10.84 69.57,9.21 68.98,8.41 68.43,7.53 68.16,6.53 67.89,5.54 67.84,4.48 68.13,3.51 L 68.2,3.51 C 68.32,4.5 68.53,5.42 68.87,6.3 69.21,7.18 69.57,8.06 70.07,8.88 70.57,9.7 71.17,10.47 71.82,11.19 72.47,11.92 73.16,12.61 73.92,13.23 L 73.88,13.29 Z M 73.88,13.29" />
        </g>
        <g id="ranaTop5-group933">
            <path id="ranaTop5-bezier931" stroke="none" fill="rgb(0, 0, 0)" d="M 65.15,8.32 C 64.53,7.07 63.83,5.86 63.02,4.75 62.61,4.2 62.13,3.71 61.71,3.21 61.27,2.71 60.82,2.24 60.23,1.84 L 60.25,1.77 C 61,1.78 61.69,2.21 62.24,2.68 62.79,3.17 63.17,3.8 63.52,4.42 64.25,5.65 64.8,6.95 65.22,8.29 L 65.15,8.32 Z M 65.15,8.32" />
        </g>
        <g id="ranaTop5-group934">
            <path id="ranaTop5-bezier932" stroke="none" fill="rgb(0, 0, 0)" d="M 61.69,8.32 C 61.39,7.77 60.99,7.29 60.56,6.85 60.14,6.4 59.67,5.99 59.18,5.63 58.68,5.27 58.14,4.99 57.64,4.64 57.14,4.28 56.64,3.94 56.14,3.51 L 56.17,3.44 C 56.83,3.49 57.44,3.71 58.02,3.99 58.61,4.28 59.1,4.73 59.57,5.17 60.5,6.05 61.31,7.09 61.76,8.29 L 61.69,8.32 Z M 61.69,8.32" />
        </g>
        <g id="ranaTop5-group935">
            <path id="ranaTop5-bezier933" stroke="none" fill="rgb(0, 0, 0)" d="M 56.52,5.92 C 55.31,5.68 54.11,5.36 52.94,4.94 52.36,4.73 51.75,4.54 51.22,4.2 50.7,3.84 50.18,3.42 49.88,2.83 L 49.93,2.78 C 50.5,3.06 51.04,3.29 51.58,3.54 52.13,3.78 52.63,4.11 53.18,4.39 54.27,4.92 55.39,5.4 56.54,5.85 L 56.52,5.92 Z M 56.52,5.92" />
        </g>
        <g id="ranaTop5-group936">
            <path id="ranaTop5-bezier934" stroke="none" fill="rgb(0, 0, 0)" d="M 51.9,7.5 C 50.59,6.26 49.18,5.13 47.68,4.16 46.93,3.69 46.13,3.3 45.37,2.89 44.59,2.47 43.8,2.13 42.93,1.84 L 42.94,1.77 C 43.87,1.65 44.82,1.86 45.68,2.21 46.55,2.56 47.3,3.12 48.03,3.67 49.49,4.78 50.79,6.06 51.96,7.45 L 51.9,7.5 Z M 51.9,7.5" />
        </g>
        <g id="ranaTop5-group937">
            <path id="ranaTop5-bezier935" stroke="none" fill="rgb(0, 0, 0)" d="M 47.41,5.92 C 45.82,5.09 44.21,4.3 42.58,3.58 L 40.12,2.6 C 39.31,2.28 38.52,1.86 37.64,1.84 L 37.62,1.77 C 38.05,1.53 38.56,1.56 39.02,1.6 39.49,1.64 39.94,1.76 40.38,1.89 41.25,2.16 42.05,2.61 42.84,3.04 44.44,3.89 45.97,4.84 47.45,5.86 L 47.41,5.92 Z M 47.41,5.92" />
        </g>
        <g id="ranaTop5-group938">
            <path id="ranaTop5-bezier936" stroke="none" fill="rgb(0, 0, 0)" d="M 49.13,11.34 C 47.48,10.97 45.86,10.46 44.31,9.72 43.54,9.36 42.74,8.96 42.11,8.32 41.5,7.72 40.94,6.79 41.17,5.89 L 41.24,5.89 C 41.45,6.72 42,7.27 42.62,7.77 43.23,8.26 43.88,8.77 44.59,9.19 46.02,10.02 47.57,10.7 49.15,11.27 L 49.13,11.34 Z M 49.13,11.34" />
        </g>
        <g id="ranaTop5-group939">
            <path id="ranaTop5-bezier937" stroke="none" fill="rgb(0, 0, 0)" d="M 37.6,6.49 C 36.8,5.42 35.86,4.46 34.82,3.67 34.29,3.28 33.72,2.99 33.18,2.67 32.63,2.34 32.06,2.06 31.43,1.78 L 31.43,1.7 C 32.13,1.58 32.86,1.73 33.51,2 34.17,2.27 34.7,2.74 35.21,3.21 36.22,4.15 37.04,5.26 37.67,6.45 L 37.6,6.49 Z M 37.6,6.49" />
        </g>
        <g id="ranaTop5-group940">
            <path id="ranaTop5-bezier938" stroke="none" fill="rgb(0, 0, 0)" d="M 35.93,11.34 C 34.99,10.8 34.16,10.06 33.55,9.11 33.25,8.65 32.96,8.12 32.9,7.54 32.85,6.97 32.94,6.37 33.24,5.88 L 33.32,5.9 C 33.42,6.45 33.5,6.94 33.64,7.41 33.77,7.87 33.87,8.36 34.08,8.82 34.51,9.73 35.18,10.58 35.97,11.27 L 35.93,11.34 Z M 35.93,11.34" />
        </g>
        <g id="ranaTop5-group941">
            <path id="ranaTop5-bezier939" stroke="none" fill="rgb(0, 0, 0)" d="M 31.4,8.33 C 30.5,7.45 29.55,6.64 28.53,5.95 28.02,5.61 27.47,5.36 26.96,5.06 26.44,4.77 25.93,4.52 25.3,4.34 L 25.3,4.27 C 25.93,4.02 26.66,4.15 27.27,4.38 27.9,4.62 28.41,5.05 28.89,5.47 29.87,6.3 30.72,7.25 31.46,8.28 L 31.4,8.33 Z M 31.4,8.33" />
        </g>
        <g id="ranaTop5-group942">
            <path id="ranaTop5-bezier940" stroke="none" fill="rgb(0, 0, 0)" d="M 26.38,7.51 C 24.91,7.5 23.44,7.73 22.05,8.11 21.35,8.32 20.7,8.61 20.02,8.84 19.34,9.07 18.67,9.34 17.95,9.58 L 17.9,9.52 C 18.41,8.93 19.05,8.49 19.73,8.15 20.41,7.81 21.17,7.66 21.92,7.53 23.4,7.26 24.92,7.21 26.39,7.43 L 26.38,7.51 Z M 26.38,7.51" />
        </g>
        <g id="ranaTop5-group943">
            <path id="ranaTop5-bezier941" stroke="none" fill="rgb(0, 0, 0)" d="M 25.99,11.34 C 24.56,12.13 23.06,12.79 21.48,13.24 20.68,13.46 19.86,13.68 19,13.63 18.17,13.58 17.23,13.34 16.68,12.65 L 16.73,12.59 C 17.49,12.91 18.24,12.92 19.01,12.88 19.77,12.84 20.55,12.79 21.34,12.65 22.9,12.35 24.45,11.86 25.95,11.27 L 25.99,11.34 Z M 25.99,11.34" />
        </g>
        <g id="ranaTop5-group944">
            <path id="ranaTop5-bezier942" stroke="none" fill="rgb(0, 0, 0)" d="M 19.63,14.81 C 18.13,15.43 16.64,16.04 15.19,16.72 14.47,17.07 13.78,17.48 13.06,17.81 12.33,18.14 11.62,18.46 10.89,18.83 L 10.84,18.77 C 11.32,18.08 12.01,17.57 12.7,17.14 13.41,16.71 14.19,16.45 14.95,16.17 16.48,15.6 18.04,15.15 19.6,14.74 L 19.63,14.81 Z M 19.63,14.81" />
        </g>
        <g id="ranaTop5-group945">
            <path id="ranaTop5-bezier943" stroke="none" fill="rgb(0, 0, 0)" d="M 24.54,18.84 C 23.24,18.96 21.93,18.99 20.62,18.93 19.96,18.91 19.29,18.9 18.65,18.73 18.01,18.55 17.36,18.3 16.84,17.84 L 16.87,17.77 18.79,17.99 C 19.42,18.06 20.04,18.23 20.68,18.34 21.95,18.53 23.24,18.67 24.54,18.77 L 24.54,18.84 Z M 24.54,18.84" />
        </g>
        <g id="ranaTop5-group946">
            <path id="ranaTop5-bezier944" stroke="none" fill="rgb(0, 0, 0)" d="M 17.93,20.84 C 16.44,21.1 14.97,21.48 13.56,21.98 12.86,22.24 12.2,22.58 11.52,22.86 10.84,23.14 10.2,23.46 9.51,23.83 L 9.46,23.78 C 9.87,23.1 10.51,22.58 11.19,22.19 11.87,21.79 12.64,21.6 13.38,21.41 14.88,21.02 16.4,20.81 17.92,20.76 L 17.93,20.84 Z M 17.93,20.84" />
        </g>
        <g id="ranaTop5-group947">
            <path id="ranaTop5-bezier945" stroke="none" fill="rgb(0, 0, 0)" d="M 22.16,26.68 C 20.64,26.86 19.11,26.91 17.57,26.76 16.81,26.69 16.01,26.62 15.28,26.28 14.57,25.97 13.78,25.39 13.67,24.54 L 13.74,24.52 C 14.21,25.12 14.87,25.36 15.55,25.58 16.23,25.79 16.93,26.02 17.66,26.17 19.13,26.44 20.64,26.57 22.15,26.6 L 22.16,26.68 Z M 22.16,26.68" />
        </g>
        <g id="ranaTop5-group948">
            <path id="ranaTop5-bezier946" stroke="none" fill="rgb(0, 0, 0)" d="M 81.32,49.57 C 80.54,50.45 79.79,51.34 79.06,52.25 78.71,52.71 78.4,53.2 78,53.62 77.61,54.04 77.21,54.45 76.74,54.85 L 76.68,54.81 C 76.8,54.2 77.09,53.66 77.41,53.16 77.74,52.66 78.19,52.26 78.62,51.85 79.46,51.02 80.34,50.24 81.27,49.52 L 81.32,49.57 Z M 81.32,49.57" />
        </g>
        <g id="ranaTop5-group949">
            <path id="ranaTop5-bezier947" stroke="none" fill="rgb(0, 0, 0)" d="M 70.78,53.01 C 68.88,53.4 67.01,53.88 65.2,54.49 64.29,54.8 63.42,55.19 62.54,55.53 61.66,55.87 60.8,56.23 59.95,56.72 L 59.9,56.66 C 60.49,55.85 61.36,55.29 62.24,54.84 63.12,54.4 64.08,54.15 65.03,53.91 66.92,53.43 68.84,53.11 70.77,52.94 L 70.78,53.01 Z M 70.78,53.01" />
        </g>
        <g id="ranaTop5-group950">
            <path id="ranaTop5-bezier948" stroke="none" fill="rgb(0, 0, 0)" d="M 65.19,52.63 C 63.23,52.69 61.28,52.64 59.32,52.44 58.34,52.34 57.35,52.25 56.4,51.94 55.93,51.78 55.45,51.6 55.01,51.34 54.58,51.09 54.14,50.77 53.88,50.33 L 53.93,50.28 C 54.75,50.81 55.68,50.99 56.6,51.22 57.53,51.42 58.45,51.67 59.41,51.85 61.31,52.18 63.25,52.4 65.19,52.55 L 65.19,52.63 Z M 65.19,52.63" />
        </g>
        <g id="ranaTop5-group951">
            <path id="ranaTop5-bezier949" stroke="none" fill="rgb(0, 0, 0)" d="M 58.73,53.84 C 57.06,54.16 55.42,54.59 53.83,55.13 53.04,55.41 52.28,55.77 51.5,56.06 50.72,56.35 49.97,56.67 49.16,57 L 49.12,56.94 C 49.69,56.27 50.43,55.77 51.2,55.37 51.98,54.98 52.82,54.77 53.66,54.56 55.32,54.13 57.02,53.87 58.72,53.77 L 58.73,53.84 Z M 58.73,53.84" />
        </g>
        <g id="ranaTop5-group952">
            <path id="ranaTop5-bezier950" stroke="none" fill="rgb(0, 0, 0)" d="M 49.15,51.48 C 47.54,52.23 45.96,53.02 44.43,53.9 43.67,54.35 42.96,54.86 42.23,55.31 41.53,55.79 40.75,56.21 40.35,56.98 L 40.28,56.97 C 40.25,56.48 40.53,56.04 40.81,55.67 41.1,55.3 41.44,54.99 41.8,54.7 42.52,54.13 43.34,53.75 44.15,53.37 45.77,52.6 47.43,51.96 49.13,51.41 L 49.15,51.48 Z M 49.15,51.48" />
        </g>
        <g id="ranaTop5-group953">
            <path id="ranaTop5-bezier951" stroke="none" fill="rgb(0, 0, 0)" d="M 38.82,54.24 C 37.54,55.23 36.14,56.08 34.62,56.72 33.87,57.04 33.08,57.36 32.23,57.43 31.4,57.51 30.51,57.42 29.77,57.01 L 29.79,56.94 C 30.61,56.94 31.37,56.85 32.13,56.69 32.88,56.53 33.65,56.39 34.41,56.16 35.92,55.67 37.39,54.99 38.78,54.18 L 38.82,54.24 Z M 38.82,54.24" />
        </g>
        <g id="ranaTop5-group954">
            <path id="ranaTop5-bezier952" stroke="none" fill="rgb(0, 0, 0)" d="M 33.66,53.84 C 31.93,54.22 30.15,54.42 28.36,54.44 27.47,54.46 26.56,54.46 25.67,54.28 24.79,54.08 23.92,53.79 23.15,53.29 L 23.18,53.22 C 24.07,53.33 24.93,53.45 25.79,53.54 26.65,53.62 27.51,53.78 28.38,53.84 30.12,53.96 31.89,53.94 33.65,53.77 L 33.66,53.84 Z M 33.66,53.84" />
        </g>
        <g id="ranaTop5-group955">
            <path id="ranaTop5-bezier953" stroke="none" fill="rgb(0, 0, 0)" d="M 28.4,51.48 C 26.46,50.96 24.52,50.49 22.56,50.12 21.58,49.95 20.59,49.85 19.62,49.69 18.66,49.57 17.69,49.37 16.72,49.58 L 16.69,49.51 C 17.11,49.18 17.65,49.06 18.16,48.99 18.68,48.92 19.19,48.92 19.7,48.95 20.73,49.01 21.72,49.28 22.69,49.54 24.64,50.04 26.55,50.68 28.42,51.41 L 28.4,51.48 Z M 28.4,51.48" />
        </g>
        <g id="ranaTop5-group956">
            <path id="ranaTop5-bezier954" stroke="none" fill="rgb(0, 0, 0)" d="M 23.15,45.96 C 21.64,45.44 20.08,45.05 18.52,44.83 17.74,44.72 16.96,44.72 16.19,44.67 15.41,44.62 14.66,44.63 13.84,44.7 L 13.81,44.63 C 14.51,44.16 15.36,43.97 16.19,43.92 17.02,43.87 17.84,44.05 18.63,44.24 20.22,44.6 21.74,45.17 23.18,45.89 L 23.15,45.96 Z M 23.15,45.96" />
        </g>
        <g id="ranaTop5-group957">
            <path id="ranaTop5-bezier955" stroke="none" fill="rgb(0, 0, 0)" d="M 21.34,39.82 C 19.64,40.18 17.88,40.28 16.12,40.02 15.25,39.89 14.35,39.7 13.56,39.24 12.77,38.79 12.07,38.14 11.69,37.33 L 11.75,37.28 C 12.45,37.82 13.14,38.25 13.9,38.58 14.65,38.9 15.41,39.23 16.23,39.43 17.05,39.63 17.9,39.73 18.76,39.78 19.61,39.83 20.47,39.83 21.33,39.75 L 21.34,39.82 Z M 21.34,39.82" />
        </g>
        <g id="ranaTop5-group958">
            <path id="ranaTop5-bezier956" stroke="none" fill="rgb(0, 0, 0)" d="M 20.49,36.08 C 19.78,35.64 19.04,35.25 18.28,34.91 17.53,34.56 16.75,34.26 15.96,34.04 15.17,33.82 14.36,33.71 13.57,33.62 12.78,33.52 11.99,33.54 11.14,33.67 L 11.11,33.6 C 11.82,33.08 12.74,32.87 13.62,32.87 14.51,32.87 15.35,33.16 16.15,33.47 17.76,34.08 19.22,34.97 20.54,36.02 L 20.49,36.08 Z M 20.49,36.08" />
        </g>
        <g id="ranaTop5-group959">
            <path id="ranaTop5-bezier957" stroke="none" fill="rgb(0, 0, 0)" d="M 19.61,31.26 C 17.72,31.1 15.85,30.82 14,30.38 13.07,30.16 12.13,29.94 11.26,29.51 10.41,29.08 9.53,28.53 9.03,27.66 L 9.09,27.61 C 9.86,28.17 10.7,28.5 11.56,28.83 12.42,29.14 13.27,29.51 14.16,29.8 15.94,30.36 17.77,30.81 19.62,31.18 L 19.61,31.26 Z M 19.61,31.26" />
        </g>
        <g id="ranaTop5-group960">
            <path id="ranaTop5-bezier958" stroke="none" fill="rgb(0, 0, 0)" d="M 85.35,23.17 C 83.13,22.04 80.84,21.06 78.49,20.29 77.31,19.92 76.11,19.66 74.93,19.39 73.74,19.13 72.54,18.94 71.29,18.99 L 71.27,18.91 C 72.47,18.46 73.81,18.48 75.06,18.65 76.33,18.83 77.52,19.27 78.69,19.73 81.04,20.64 83.27,21.78 85.39,23.1 L 85.35,23.17 Z M 85.35,23.17" />
        </g>
        <g id="ranaTop5-group961">
            <path id="ranaTop5-bezier959" stroke="none" fill="rgb(0, 0, 0)" d="M 78.81,22.21 C 76.57,21.89 74.34,21.37 72.19,20.61 71.11,20.23 70.02,19.83 69.04,19.21 68.07,18.58 67.14,17.81 66.54,16.81 L 66.6,16.76 C 67.5,17.47 68.43,18.04 69.42,18.56 70.39,19.07 71.37,19.6 72.4,20.05 74.47,20.92 76.63,21.61 78.83,22.14 L 78.81,22.21 Z M 78.81,22.21" />
        </g>
        <g id="ranaTop5-group962">
            <path id="ranaTop5-bezier960" stroke="none" fill="rgb(0, 0, 0)" d="M 97.76,38.9 C 96.09,38.92 94.42,39.03 92.79,39.26 91.97,39.39 91.18,39.6 90.39,39.76 89.6,39.94 88.83,40.12 88.12,40.57 L 88.06,40.52 C 88.52,39.74 89.39,39.32 90.19,39.04 91.02,38.76 91.88,38.71 92.72,38.67 94.41,38.56 96.1,38.63 97.76,38.82 L 97.76,38.9 Z M 97.76,38.9" />
        </g>
        <g id="ranaTop5-group963">
            <path id="ranaTop5-bezier961" stroke="none" fill="rgb(0, 0, 0)" d="M 98.93,32.85 L 95.26,33.2 C 94.65,33.26 94.04,33.38 93.43,33.38 92.82,33.38 92.22,33.35 91.59,33.3 L 91.57,33.23 C 92.13,32.87 92.76,32.74 93.37,32.63 93.99,32.53 94.61,32.58 95.23,32.6 96.47,32.61 97.7,32.68 98.93,32.78 L 98.93,32.85 Z M 98.93,32.85" />
        </g>
        <g id="ranaTop5-group964">
            <path id="ranaTop5-bezier962" stroke="none" fill="rgb(0, 0, 0)" d="M 98.39,31.25 C 96.75,30.72 95.15,30.09 93.6,29.32 92.82,28.94 92.03,28.56 91.34,28.01 90.66,27.46 90,26.81 89.66,25.97 L 89.72,25.93 C 90.38,26.5 91.07,26.95 91.77,27.4 92.48,27.84 93.16,28.35 93.89,28.79 95.35,29.66 96.87,30.45 98.42,31.18 L 98.39,31.25 Z M 98.39,31.25" />
        </g>
        <g id="ranaTop5-group965">
            <path id="ranaTop5-bezier963" stroke="none" fill="rgb(0, 0, 0)" d="M 91.15,34.47 C 89.83,35.41 88.33,36.1 86.74,36.53 85.95,36.75 85.13,36.95 84.3,36.93 83.47,36.91 82.63,36.76 81.88,36.42 L 81.89,36.35 C 82.71,36.28 83.49,36.26 84.27,36.18 85.05,36.11 85.83,36.08 86.61,35.95 88.16,35.66 89.69,35.15 91.11,34.4 L 91.15,34.47 Z M 91.15,34.47" />
        </g>
        <g id="ranaTop5-group966">
            <path id="ranaTop5-bezier964" stroke="none" fill="rgb(0, 0, 0)" d="M 90.5,41.14 C 89.63,42.31 88.5,43.28 87.21,44 86.56,44.36 85.88,44.7 85.13,44.81 84.39,44.93 83.63,44.92 82.91,44.7 L 82.91,44.63 C 83.63,44.43 84.31,44.29 84.97,44.08 85.62,43.88 86.3,43.73 86.94,43.46 88.22,42.9 89.42,42.1 90.44,41.09 L 90.5,41.14 Z M 90.5,41.14" />
        </g>
        <g id="ranaTop5-group967">
            <path id="ranaTop5-bezier965" stroke="none" fill="rgb(0, 0, 0)" d="M 83.9,45.96 C 82.27,46.64 80.66,47.35 79.08,48.1 78.29,48.48 77.54,48.92 76.74,49.27 L 74.34,50.33 74.3,50.28 C 74.88,49.57 75.64,49.05 76.4,48.6 77.17,48.15 78.02,47.86 78.84,47.55 80.5,46.91 82.18,46.36 83.88,45.89 L 83.9,45.96 Z M 83.9,45.96" />
        </g>
        <g id="ranaTop5-group968">
            <path id="ranaTop5-bezier966" stroke="none" fill="rgb(0, 0, 0)" d="M 88.28,25.8 C 86.84,26.04 85.37,26.16 83.89,26.1 83.15,26.07 82.39,26.04 81.66,25.76 80.96,25.5 80.2,25.05 79.91,24.3 L 79.98,24.26 C 80.56,24.7 81.21,24.88 81.88,25.05 82.55,25.2 83.24,25.39 83.95,25.5 85.36,25.69 86.82,25.75 88.27,25.73 L 88.28,25.8 Z M 88.28,25.8" />
        </g>
        <g id="ranaTop5-group969">
            <path id="ranaTop5-bezier967" stroke="none" fill="rgb(0, 0, 0)" d="M 91.55,24.66 C 90.65,23.15 89.65,21.69 88.49,20.41 87.9,19.78 87.24,19.24 86.57,18.78 85.91,18.33 85.15,18.05 84.29,18.35 L 84.25,18.28 C 84.57,17.95 85.06,17.76 85.56,17.76 86.06,17.75 86.54,17.92 86.96,18.14 87.81,18.6 88.4,19.32 88.95,20.03 90.05,21.45 90.9,23.01 91.61,24.63 L 91.55,24.66 Z M 91.55,24.66" />
        </g>
        <g id="ranaTop5-group970">
            <path id="ranaTop5-bezier968" stroke="none" fill="rgb(0, 0, 0)" d="M 72.02,16.82 C 71.02,15.45 69.87,14.19 68.58,13.13 67.93,12.61 67.22,12.19 66.53,11.76 65.83,11.33 65.11,10.98 64.3,10.67 L 64.3,10.6 C 65.18,10.5 66.09,10.73 66.88,11.1 67.69,11.48 68.36,12.08 68.98,12.68 70.23,13.89 71.26,15.28 72.08,16.78 L 72.02,16.82 Z M 72.02,16.82" />
        </g>
        <g id="ranaTop5-group971">
            <path id="ranaTop5-bezier969" stroke="none" fill="rgb(0, 0, 0)" d="M 71.51,21.51 C 69.63,21.68 67.74,21.69 65.84,21.52 64.9,21.44 63.93,21.35 63.01,21.05 62.1,20.75 61.2,20.34 60.48,19.69 L 60.52,19.62 C 61.43,19.91 62.31,20.14 63.21,20.33 64.11,20.52 65,20.77 65.92,20.93 67.75,21.23 69.63,21.39 71.51,21.44 L 71.51,21.51 Z M 71.51,21.51" />
        </g>
        <g id="ranaTop5-group972">
            <path id="ranaTop5-bezier970" stroke="none" fill="rgb(0, 0, 0)" d="M 62.04,15.61 C 59.54,15.85 57.05,16.16 54.59,16.59 53.37,16.82 52.16,17.12 50.96,17.4 50.36,17.53 49.77,17.7 49.19,17.89 48.63,18.1 48.05,18.33 47.68,18.82 L 47.61,18.79 C 47.81,18.13 48.43,17.73 48.98,17.42 49.55,17.1 50.16,16.88 50.76,16.68 51.99,16.29 53.25,16.15 54.5,16 57.01,15.69 59.52,15.56 62.03,15.54 L 62.04,15.61 Z M 62.04,15.61" />
        </g>
        <g id="ranaTop5-group973">
            <path id="ranaTop5-bezier971" stroke="none" fill="rgb(0, 0, 0)" d="M 65.18,13.84 C 63.65,13.66 62.14,13.35 60.65,12.91 59.91,12.7 59.14,12.49 58.45,12.11 57.77,11.74 57.1,11.28 56.6,10.67 L 56.64,10.61 58.77,11.43 C 59.47,11.71 60.14,12.06 60.85,12.34 62.26,12.89 63.72,13.37 65.2,13.77 L 65.18,13.84 Z M 65.18,13.84" />
        </g>
        <g id="ranaTop5-group974">
            <path id="ranaTop5-bezier972" stroke="none" fill="rgb(0, 0, 0)" d="M 53.96,11.33 C 52.53,12.52 50.84,13.36 49.04,13.88 48.14,14.14 47.21,14.36 46.27,14.35 45.33,14.33 44.38,14.19 43.51,13.84 L 43.52,13.77 C 44.45,13.71 45.35,13.68 46.24,13.6 47.12,13.51 48.01,13.47 48.9,13.29 49.78,13.12 50.65,12.86 51.49,12.52 52.33,12.18 53.15,11.78 53.91,11.28 L 53.96,11.33 Z M 53.96,11.33" />
        </g>
        <g id="ranaTop5-group975">
            <path id="ranaTop5-bezier973" stroke="none" fill="rgb(0, 0, 0)" d="M 41.19,51.48 C 40.26,51.22 39.31,51.09 38.36,51.01 37.4,50.92 36.45,50.9 35.5,50.95 34.54,50.99 33.61,51.15 32.66,51.23 31.72,51.32 30.77,51.43 29.79,51.48 L 29.77,51.41 C 30.65,50.96 31.59,50.68 32.56,50.49 33.52,50.3 34.51,50.31 35.49,50.34 37.45,50.4 39.4,50.7 41.21,51.41 L 41.19,51.48 Z M 41.19,51.48" />
        </g>
        <g id="ranaTop5-group976">
            <path id="ranaTop5-bezier974" stroke="none" fill="rgb(0, 0, 0)" d="M 31.42,49.28 C 29.64,48.85 27.9,48.24 26.28,47.31 25.47,46.85 24.65,46.32 24.08,45.51 23.51,44.72 23.26,43.57 23.72,42.71 L 23.79,42.73 C 23.77,43.66 24.13,44.42 24.68,45.05 25.23,45.69 25.87,46.29 26.6,46.8 28.08,47.8 29.74,48.58 31.44,49.21 L 31.42,49.28 Z M 31.42,49.28" />
        </g>
        <g id="ranaTop5-group977">
            <path id="ranaTop5-bezier975" stroke="none" fill="rgb(0, 0, 0)" d="M 28.76,43.57 C 28.02,42.82 27.22,42.13 26.38,41.54 25.95,41.25 25.49,41.04 25.08,40.77 24.66,40.49 24.25,40.26 23.75,40 L 23.76,39.93 C 24.31,39.77 24.91,39.89 25.43,40.1 25.95,40.32 26.36,40.71 26.76,41.07 27.56,41.8 28.24,42.64 28.82,43.53 L 28.76,43.57 Z M 28.76,43.57" />
        </g>
        <g id="ranaTop5-group978">
            <path id="ranaTop5-bezier976" stroke="none" fill="rgb(0, 0, 0)" d="M 70.42,51.47 C 69.83,50.92 69.2,50.41 68.55,49.95 67.9,49.48 67.23,49.05 66.52,48.69 65.81,48.34 65.07,48.1 64.35,47.87 63.62,47.64 62.87,47.52 62.04,47.51 L 62.03,47.44 C 62.77,47.04 63.69,46.98 64.52,47.15 65.37,47.3 66.12,47.73 66.82,48.17 68.22,49.05 69.43,50.18 70.47,51.42 L 70.42,51.47 Z M 70.42,51.47" />
        </g>
        <g id="ranaTop5-group979">
            <path id="ranaTop5-bezier977" stroke="none" fill="rgb(0, 0, 0)" d="M 78,45.15 C 75.59,44.65 73.2,44.07 70.83,43.36 69.65,43.01 68.46,42.67 67.33,42.14 66.76,41.88 66.21,41.59 65.68,41.25 65.16,40.9 64.64,40.52 64.27,39.99 L 64.33,39.94 C 65.34,40.62 66.49,41.01 67.62,41.45 L 71.02,42.79 C 73.33,43.62 75.66,44.37 78.02,45.07 L 78,45.15 Z M 78,45.15" />
        </g>
        <g id="ranaTop5-group980">
            <path id="ranaTop5-bezier978" stroke="none" fill="rgb(0, 0, 0)" d="M 84.86,39.42 C 82.8,39.26 80.74,39.17 78.69,39.2 77.66,39.22 76.65,39.33 75.64,39.4 74.64,39.48 73.63,39.53 72.72,39.99 L 72.67,39.94 C 73.01,39.51 73.51,39.24 74.01,39.05 74.51,38.85 75.04,38.74 75.56,38.65 76.61,38.48 77.66,38.54 78.7,38.6 80.78,38.7 82.83,38.97 84.87,39.35 L 84.86,39.42 Z M 84.86,39.42" />
        </g>
        <g id="ranaTop5-group981">
            <path id="ranaTop5-bezier979" stroke="none" fill="rgb(0, 0, 0)" d="M 83.61,27.67 C 82,27.24 80.34,26.96 78.71,26.93 77.89,26.92 77.08,27.03 76.29,27.12 75.5,27.21 74.73,27.39 73.92,27.67 L 73.88,27.61 C 74.47,26.97 75.32,26.58 76.16,26.38 77.02,26.17 77.9,26.23 78.74,26.33 80.44,26.5 82.08,26.95 83.63,27.6 L 83.61,27.67 Z M 83.61,27.67" />
        </g>
        <g id="ranaTop5-group982">
            <path id="ranaTop5-bezier980" stroke="none" fill="rgb(0, 0, 0)" d="M 77.1,33.43 C 74.38,33.66 71.65,33.74 68.91,33.62 67.55,33.56 66.17,33.5 64.81,33.2 63.48,32.88 62.1,32.49 60.99,31.63 L 61.03,31.56 C 62.31,32.03 63.62,32.28 64.95,32.47 66.28,32.66 67.61,32.88 68.95,33.02 71.65,33.27 74.37,33.37 77.09,33.35 L 77.1,33.43 Z M 77.1,33.43" />
        </g>
        <g id="ranaTop5-group983">
            <path id="ranaTop5-bezier981" stroke="none" fill="rgb(0, 0, 0)" d="M 61.71,42.75 C 59.92,41.95 58.06,41.29 56.18,40.81 55.24,40.59 54.28,40.46 53.34,40.3 52.39,40.14 51.45,40.04 50.45,40 L 50.44,39.93 C 51.38,39.56 52.42,39.49 53.42,39.56 54.43,39.62 55.4,39.93 56.34,40.24 58.24,40.85 60.04,41.68 61.74,42.68 L 61.71,42.75 Z M 61.71,42.75" />
        </g>
        <g id="ranaTop5-group984">
            <path id="ranaTop5-bezier982" stroke="none" fill="rgb(0, 0, 0)" d="M 61.24,49.28 C 60.77,49.14 60.43,48.81 60.05,48.54 L 58.95,47.7 C 58.22,47.14 57.49,46.58 56.73,46.07 55.96,45.57 55.16,45.14 54.39,44.7 53.61,44.25 52.82,43.86 51.93,43.59 L 51.93,43.51 C 52.89,43.37 53.86,43.65 54.73,44.03 55.6,44.42 56.35,45.01 57.08,45.59 57.81,46.17 58.51,46.79 59.19,47.42 L 60.2,48.37 C 60.54,48.67 60.86,49.04 61.26,49.21 L 61.24,49.28 Z M 61.24,49.28" />
        </g>
        <g id="ranaTop5-group985">
            <path id="ranaTop5-bezier983" stroke="none" fill="rgb(0, 0, 0)" d="M 53.22,47.38 C 52.12,47.56 51.01,47.81 49.89,47.98 48.77,48.14 47.63,48.26 46.49,48.29 45.35,48.33 44.18,48.34 43.05,48.01 41.94,47.69 40.76,47.05 40.28,45.95 L 40.35,45.91 C 41.14,46.72 42.17,47.06 43.23,47.28 44.29,47.49 45.38,47.65 46.49,47.69 47.61,47.73 48.73,47.69 49.85,47.61 50.97,47.54 52.08,47.39 53.22,47.3 L 53.22,47.38 53.22,47.38 Z M 53.22,47.38" />
        </g>
        <g id="ranaTop5-group986">
            <path id="ranaTop5-bezier984" stroke="none" fill="rgb(0, 0, 0)" d="M 37.6,46 C 36.95,44.57 36.24,43.17 35.45,41.84 35.05,41.18 34.58,40.56 34.16,39.94 33.72,39.34 33.33,38.69 32.62,38.38 L 32.62,38.31 C 33.05,38.24 33.48,38.43 33.83,38.65 34.19,38.88 34.48,39.17 34.75,39.48 35.29,40.1 35.64,40.83 35.98,41.55 36.67,42.98 37.22,44.46 37.67,45.97 L 37.6,46 Z M 37.6,46" />
        </g>
        <g id="ranaTop5-group987">
            <path id="ranaTop5-bezier985" stroke="none" fill="rgb(0, 0, 0)" d="M 47.61,43.81 C 46.51,42.74 45.34,41.73 44.12,40.82 43.5,40.38 42.85,40 42.23,39.58 41.62,39.15 41,38.75 40.3,38.38 L 40.32,38.31 C 41.13,38.28 41.92,38.57 42.62,38.93 43.33,39.3 43.92,39.84 44.5,40.36 45.67,41.4 46.72,42.54 47.67,43.76 L 47.61,43.81 Z M 47.61,43.81" />
        </g>
        <g id="ranaTop5-group988">
            <path id="ranaTop5-bezier986" stroke="none" fill="rgb(0, 0, 0)" d="M 70.44,26.64 C 67.67,26.51 64.89,26.51 62.14,26.73 60.77,26.85 59.42,27.07 58.08,27.31 56.75,27.55 55.41,27.86 54.29,28.66 L 54.23,28.61 C 55.11,27.44 56.58,26.95 57.92,26.57 59.3,26.23 60.72,26.17 62.11,26.13 64.91,26.05 67.69,26.22 70.45,26.57 L 70.44,26.64 Z M 70.44,26.64" />
        </g>
        <g id="ranaTop5-group989">
            <path id="ranaTop5-bezier987" stroke="none" fill="rgb(0, 0, 0)" d="M 56.54,22.21 C 54.51,22.87 52.43,23.36 50.31,23.65 49.25,23.79 48.18,23.93 47.09,23.84 46.02,23.75 44.92,23.53 43.97,23.01 L 43.99,22.94 C 45.05,23.07 46.08,23.11 47.12,23.09 48.16,23.08 49.2,23.11 50.25,23.05 52.35,22.9 54.44,22.59 56.52,22.14 L 56.54,22.21 Z M 56.54,22.21" />
        </g>
        <g id="ranaTop5-group990">
            <path id="ranaTop5-bezier988" stroke="none" fill="rgb(0, 0, 0)" d="M 44.11,19.51 C 42.83,18.4 41.48,17.38 40.05,16.53 39.33,16.11 38.57,15.79 37.84,15.45 37.1,15.13 36.35,14.86 35.5,14.81 L 35.48,14.74 C 36.3,14.36 37.27,14.49 38.1,14.75 38.95,15.02 39.68,15.52 40.38,16.02 41.78,17.02 43.03,18.19 44.16,19.46 L 44.11,19.51 Z M 44.11,19.51" />
        </g>
        <g id="ranaTop5-group991">
            <path id="ranaTop5-bezier989" stroke="none" fill="rgb(0, 0, 0)" d="M 37.62,20.34 C 36.74,20.08 35.89,19.73 35.03,19.43 34.17,19.12 33.32,18.81 32.46,18.52 31.59,18.23 30.71,18.01 29.87,17.7 29.02,17.4 28.18,17.09 27.3,16.83 L 27.3,16.75 C 28.24,16.61 29.19,16.77 30.08,16.98 30.98,17.21 31.83,17.59 32.67,17.96 33.51,18.32 34.35,18.7 35.17,19.09 36,19.48 36.81,19.92 37.64,20.27 L 37.62,20.34 Z M 37.62,20.34" />
        </g>
        <g id="ranaTop5-group992">
            <path id="ranaTop5-bezier990" stroke="none" fill="rgb(0, 0, 0)" d="M 65.18,36.09 C 64.76,36.07 64.33,36.26 63.91,36.37 L 62.63,36.75 C 61.77,36.98 60.89,37.18 60,37.31 59.1,37.43 58.17,37.53 57.26,37.34 56.35,37.16 55.45,36.75 54.82,36.08 L 54.86,36.02 C 55.71,36.33 56.52,36.53 57.37,36.6 58.21,36.68 59.07,36.75 59.94,36.71 60.81,36.66 61.68,36.54 62.55,36.38 L 63.86,36.15 C 64.3,36.08 64.73,35.95 65.2,36.01 L 65.18,36.09 Z M 65.18,36.09" />
        </g>
        <g id="ranaTop5-group993">
            <path id="ranaTop5-bezier991" stroke="none" fill="rgb(0, 0, 0)" d="M 55.6,32.57 C 53.45,31.74 51.27,31 49.07,30.43 47.96,30.16 46.84,29.97 45.74,29.78 44.64,29.63 43.51,29.42 42.47,29.89 L 42.42,29.83 C 42.83,29.38 43.46,29.18 44.04,29.08 44.64,28.98 45.24,28.99 45.83,29.04 47.01,29.14 48.13,29.5 49.23,29.85 51.44,30.57 53.56,31.47 55.63,32.5 L 55.6,32.57 Z M 55.6,32.57" />
        </g>
        <g id="ranaTop5-group994">
            <path id="ranaTop5-bezier992" stroke="none" fill="rgb(0, 0, 0)" d="M 46.76,34.68 C 45.86,34.75 44.95,35.03 44.03,35.15 43.1,35.28 42.16,35.36 41.21,35.35 40.27,35.34 39.3,35.28 38.38,34.97 37.48,34.65 36.61,34.18 35.94,33.5 L 35.98,33.44 C 36.87,33.77 37.71,34.05 38.59,34.25 39.46,34.44 40.34,34.66 41.24,34.75 42.15,34.83 43.07,34.83 43.99,34.78 44.91,34.76 45.82,34.58 46.77,34.6 L 46.76,34.68 Z M 46.76,34.68" />
        </g>
        <g id="ranaTop5-group995">
            <path id="ranaTop5-bezier993" stroke="none" fill="rgb(0, 0, 0)" d="M 41.36,25.64 C 39.55,25.52 37.73,25.58 35.96,25.82 35.07,25.95 34.22,26.19 33.36,26.38 32.5,26.58 31.67,26.83 30.8,27.15 L 30.76,27.09 C 31.41,26.42 32.27,25.97 33.15,25.66 34.04,25.36 34.98,25.28 35.9,25.22 37.74,25.11 39.57,25.23 41.37,25.56 L 41.36,25.64 Z M 41.36,25.64" />
        </g>
        <g id="ranaTop5-group996">
            <path id="ranaTop5-bezier994" stroke="none" fill="rgb(0, 0, 0)" d="M 38.81,28.68 C 36.86,29.23 34.93,29.9 33.1,30.73 32.19,31.16 31.33,31.67 30.5,32.17 29.68,32.69 28.86,33.25 28.45,34.18 L 28.37,34.17 C 28.36,33.63 28.61,33.11 28.93,32.67 29.25,32.23 29.65,31.87 30.07,31.55 30.93,30.92 31.91,30.54 32.87,30.18 34.8,29.45 36.79,28.95 38.8,28.6 L 38.81,28.68 Z M 38.81,28.68" />
        </g>
        <g id="ranaTop5-group997">
            <path id="ranaTop5-bezier995" stroke="none" fill="rgb(0, 0, 0)" d="M 30.8,29.46 C 29.87,29.79 28.92,29.93 27.97,30.08 27.02,30.21 26.06,30.3 25.09,30.32 24.12,30.34 23.13,30.34 22.17,30.09 21.22,29.84 20.25,29.42 19.59,28.67 L 19.64,28.61 C 20.51,29.01 21.4,29.21 22.32,29.36 23.23,29.5 24.15,29.66 25.1,29.71 26.04,29.77 26.99,29.76 27.94,29.71 28.88,29.66 29.85,29.61 30.76,29.39 L 30.8,29.46 Z M 30.8,29.46" />
        </g>
        <g id="ranaTop5-group998">
            <path id="ranaTop5-bezier996" stroke="none" fill="rgb(0, 0, 0)" d="M 27.53,23.51 C 26.41,23 25.24,22.58 24.06,22.32 23.46,22.2 22.87,22.18 22.3,22.13 21.72,22.07 21.16,22.08 20.54,22.21 L 20.5,22.15 C 20.94,21.64 21.65,21.42 22.31,21.38 22.98,21.34 23.61,21.54 24.21,21.74 25.42,22.15 26.54,22.74 27.57,23.45 L 27.53,23.51 Z M 27.53,23.51" />
        </g>
        <g id="ranaTop5-group999">
            <path id="ranaTop5-bezier997" stroke="none" fill="rgb(0, 0, 0)" d="M 106.09,30.57 C 105.86,30.83 105.48,30.79 105.18,30.76 104.87,30.74 104.55,30.64 104.26,30.51 103.98,30.37 103.69,30.2 103.44,29.97 103.32,29.86 103.2,29.73 103.1,29.56 103.02,29.39 102.87,29.19 103.05,28.82 103.07,28.79 103.08,28.76 103.17,28.68 103.24,28.61 103.29,28.59 103.35,28.56 103.46,28.51 103.57,28.49 103.67,28.47 103.87,28.45 104.05,28.47 104.23,28.49 104.58,28.55 104.9,28.69 105.18,28.87 105.45,29.04 105.7,29.32 105.87,29.6 106.03,29.89 106.24,30.23 106.09,30.57 Z M 106.02,30.53 C 106.12,30.25 105.82,30.02 105.59,29.88 105.33,29.74 105.07,29.65 104.81,29.52 104.56,29.4 104.31,29.3 104.06,29.22 103.82,29.13 103.54,29.13 103.53,29.17 103.57,29.08 103.52,29.21 103.58,29.31 103.62,29.41 103.7,29.53 103.79,29.63 103.98,29.84 104.19,30.02 104.44,30.18 104.68,30.35 104.94,30.5 105.22,30.61 105.48,30.7 105.86,30.78 106.02,30.53 Z M 106.02,30.53" />
        </g>
        <g id="ranaTop5-group1000">
            <path id="ranaTop5-bezier998" stroke="none" fill="rgb(0, 0, 0)" d="M 105.75,37.23 C 105.6,36.96 105.22,37.01 104.95,37.08 104.67,37.17 104.4,37.3 104.14,37.44 103.88,37.59 103.65,37.75 103.45,37.94 103.35,38.04 103.26,38.14 103.21,38.25 103.14,38.33 103.18,38.47 103.15,38.37 103.16,38.42 103.44,38.44 103.69,38.38 103.94,38.32 104.21,38.23 104.45,38.14 104.73,38.03 104.99,37.96 105.26,37.84 105.5,37.72 105.82,37.51 105.75,37.23 Z M 105.81,37.2 C 105.94,37.54 105.7,37.87 105.52,38.14 105.33,38.41 105.05,38.66 104.78,38.81 104.46,38.97 104.15,39.08 103.79,39.11 103.62,39.12 103.43,39.12 103.23,39.08 103.13,39.06 103.03,39.03 102.92,38.97 102.86,38.94 102.82,38.91 102.75,38.84 102.67,38.75 102.66,38.72 102.64,38.69 102.49,38.3 102.66,38.12 102.75,37.95 102.87,37.8 103,37.68 103.13,37.58 103.4,37.37 103.69,37.22 103.99,37.1 104.29,37 104.61,36.93 104.93,36.93 105.23,36.93 105.61,36.91 105.81,37.2 Z M 105.81,37.2" />
        </g>
        <g id="ranaTop5-group1001">
            <path id="ranaTop5-bezier999" stroke="none" fill="rgb(0, 0, 0)" d="M 103.68,36.3 C 103.42,36.45 103.21,36.66 103.01,36.87 102.81,37.08 102.63,37.31 102.5,37.54 102.36,37.79 102.32,38.04 102.22,38.24 102.13,38.45 102.05,38.66 102,39.01 L 101.93,39.05 C 101.6,38.87 101.45,38.45 101.49,38.07 101.53,37.69 101.79,37.41 102.02,37.18 102.49,36.71 103.03,36.36 103.65,36.23 L 103.68,36.3 Z M 103.68,36.3" />
        </g>
        <g id="ranaTop5-group1002">
            <path id="ranaTop5-bezier1000" stroke="none" fill="rgb(0, 0, 0)" d="M 104.13,31.07 C 103.54,31.06 102.95,30.91 102.43,30.55 102.16,30.38 101.87,30.15 101.78,29.81 101.68,29.48 101.71,29.11 101.93,28.84 L 102,28.84 C 102.2,29.12 102.32,29.32 102.46,29.5 102.59,29.68 102.66,29.9 102.82,30.1 103.15,30.47 103.62,30.78 104.13,30.99 L 104.13,31.07 Z M 104.13,31.07" />
        </g>
        <g id="ranaTop5-group1003">
            <path id="ranaTop5-bezier1001" stroke="none" fill="rgb(0, 0, 0)" d="M 12.02,55.33 C 12.05,55.61 12.01,55.93 11.76,56.19 11.5,56.43 11.13,56.48 10.82,56.46 10.51,56.44 10.2,56.41 9.95,56.24 9.72,56.06 9.51,55.85 9.39,55.53 L 9.44,55.47 C 9.77,55.44 10.03,55.5 10.28,55.56 10.52,55.62 10.71,55.79 10.93,55.87 11.15,55.94 11.36,55.97 11.54,55.89 11.73,55.81 11.89,55.58 11.94,55.33 L 12.02,55.33 Z M 12.02,55.33" />
        </g>
        <g id="ranaTop5-group1004">
            <path id="ranaTop5-bezier1002" stroke="none" fill="rgb(0, 0, 0)" d="M 12.92,54.17 C 12.96,54.45 12.91,54.77 12.67,55.03 12.4,55.27 12.03,55.32 11.73,55.3 11.41,55.28 11.1,55.25 10.86,55.07 10.62,54.9 10.42,54.69 10.3,54.37 L 10.34,54.31 C 10.67,54.28 10.94,54.34 11.18,54.4 11.42,54.46 11.61,54.62 11.83,54.71 12.05,54.78 12.26,54.81 12.44,54.73 12.63,54.65 12.79,54.42 12.85,54.17 L 12.92,54.17 Z M 12.92,54.17" />
        </g>
        <g id="ranaTop5-group1005">
            <path id="ranaTop5-bezier1003" stroke="none" fill="rgb(0, 0, 0)" d="M 10.21,57.15 C 10.04,57.34 9.85,57.22 9.69,57.21 9.53,57.17 9.37,57.11 9.21,57.05 8.9,56.93 8.6,56.79 8.3,56.64 7.72,56.33 7.14,56.02 6.59,55.59 6.31,55.39 6.04,55.15 5.81,54.85 5.58,54.54 5.43,54.11 5.48,53.69 5.54,53.28 5.72,52.94 5.95,52.67 6.17,52.39 6.43,52.16 6.72,51.97 L 6.77,52.02 C 6.53,52.65 6.21,53.25 6.23,53.74 6.23,54.19 6.52,54.7 6.98,55.14 7.43,55.57 7.96,55.95 8.5,56.32 8.76,56.51 9.03,56.69 9.31,56.85 9.45,56.93 9.59,57.01 9.74,57.07 9.87,57.13 10.07,57.19 10.14,57.13 L 10.21,57.15 Z M 10.21,57.15" />
        </g>
        <g id="ranaTop5-group1006">
            <path id="ranaTop5-bezier1004" stroke="none" fill="rgb(0, 0, 0)" d="M 72.11,54.81 C 72.29,55.06 72.42,55.36 72.43,55.71 72.41,56.06 72.21,56.42 71.94,56.64 71.67,56.87 71.36,57.06 71.04,57.08 70.71,57.1 70.39,57.05 70.09,56.87 L 70.08,56.79 C 70.36,56.57 70.63,56.46 70.87,56.35 71.12,56.25 71.38,56.24 71.6,56.14 71.81,56.04 71.98,55.89 72.06,55.65 72.14,55.42 72.13,55.12 72.05,54.85 L 72.11,54.81 Z M 72.11,54.81" />
        </g>
        <g id="ranaTop5-group1007">
            <path id="ranaTop5-bezier1005" stroke="none" fill="rgb(0, 0, 0)" d="M 71.69,57.54 C 71.64,57.94 71.47,58.37 71.08,58.61 70.68,58.84 70.2,58.78 69.8,58.65 69,58.35 68.37,57.85 67.69,57.43 67.02,57 66.36,56.64 65.7,56.47 65.02,56.28 64.24,56.34 63.43,56.37 L 63.41,56.3 C 64.11,55.88 64.95,55.61 65.84,55.74 66.76,55.87 67.43,56.46 68.04,56.95 68.67,57.43 69.27,57.98 69.94,58.3 70.27,58.46 70.65,58.55 70.98,58.41 71.3,58.27 71.53,57.91 71.62,57.53 L 71.69,57.54 Z M 71.69,57.54" />
        </g>
        <g id="ranaTop5-group1008">
            <path id="ranaTop5-bezier1006" stroke="none" fill="rgb(0, 0, 0)" d="M 15.83,48.49 C 14.25,49.1 12.59,49.45 10.89,49.63 10.46,49.68 10.03,49.71 9.58,49.7 9.37,49.69 9.1,49.66 8.91,49.61 8.75,49.57 8.62,49.58 8.5,49.61 8.26,49.66 8.03,49.95 7.86,50.29 7.68,50.64 7.57,51.05 7.42,51.45 L 7.34,51.44 C 7.28,51.02 7.27,50.58 7.36,50.13 7.45,49.7 7.67,49.16 8.24,48.91 8.51,48.8 8.82,48.8 9.07,48.85 9.29,48.9 9.44,48.94 9.64,48.96 10.03,49.02 10.44,49.03 10.85,49.03 11.68,49.02 12.51,48.95 13.34,48.85 14.17,48.75 15,48.64 15.81,48.42 L 15.83,48.49 Z M 15.83,48.49" />
        </g>
        <g id="ranaTop5-group1009">
            <path id="ranaTop5-bezier1007" stroke="none" fill="rgb(0, 0, 0)" d="M 20.75,52.79 L 15.93,53.2 C 15.12,53.27 14.33,53.39 13.52,53.39 12.72,53.38 11.92,53.35 11.1,53.23 L 11.09,53.16 C 11.87,52.87 12.68,52.74 13.48,52.64 14.29,52.54 15.1,52.59 15.9,52.6 17.52,52.6 19.13,52.64 20.75,52.71 L 20.75,52.79 Z M 20.75,52.79" />
        </g>
        <g id="ranaTop5-group1099">
            <path id="ranaTop5-bezier1097" stroke="none" fill="rgb(0, 0, 0)" d="M 77.33,8.49 C 78.33,8.41 79.33,8.33 80.34,8.43 81.3,8.83 82.29,8.3 82.84,7.58 83.12,7.21 83.25,6.76 83.24,6.3 83.22,5.82 83.22,5.29 83.1,4.88 83.03,4.66 82.95,4.57 82.79,4.53 82.62,4.49 82.38,4.51 82.15,4.55 81.69,4.63 81.22,4.81 80.7,4.91 78.61,5.32 76.52,4.58 74.75,4.64 74.42,4.68 74.16,4.97 74,5.4 73.84,5.82 73.78,6.31 73.71,6.79 73.6,7.77 73.57,8.77 73.49,9.77 L 73.42,9.77 C 73.28,8.78 73.18,7.78 73.19,6.76 73.19,6.24 73.24,5.73 73.39,5.19 73.47,4.93 73.58,4.66 73.78,4.41 73.98,4.16 74.29,3.97 74.61,3.9 75.78,3.8 76.72,4.01 77.72,4.17 78.69,4.34 79.66,4.46 80.59,4.32 81.06,4.25 81.54,4.09 82.07,4.02 82.33,3.99 82.61,3.95 82.92,4.03 83.27,4.1 83.52,4.47 83.57,4.74 83.69,5.3 83.66,5.79 83.67,6.3 83.67,6.84 83.48,7.39 83.14,7.81 82.8,8.23 82.34,8.54 81.84,8.71 81.59,8.79 81.33,8.84 81.05,8.83 80.93,8.83 80.76,8.79 80.65,8.74 80.55,8.7 80.43,8.68 80.31,8.65 79.34,8.51 78.33,8.54 77.33,8.56 L 77.33,8.49 Z M 77.33,8.49" />
        </g>
        <g id="ranaTop5-group1100">
            <path id="ranaTop5-bezier1098" stroke="none" fill="rgb(0, 0, 0)" d="M 82.45,3.57 C 81.89,3.53 81.36,3.47 80.86,3.48 80.61,3.5 80.38,3.59 80.22,3.6 80.06,3.61 79.93,3.57 79.7,3.85 L 79.62,3.85 C 79.52,3.71 79.48,3.52 79.56,3.32 79.63,3.11 79.81,2.97 79.97,2.89 80.32,2.72 80.64,2.82 80.92,2.89 81.2,2.95 81.46,3.04 81.72,3.14 81.97,3.25 82.23,3.39 82.46,3.5 L 82.45,3.57 Z M 82.45,3.57" />
        </g>
        <g id="ranaTop5-group1101">
            <path id="ranaTop5-bezier1099" stroke="none" fill="rgb(0, 0, 0)" d="M 91.7,30.76 C 90.35,31.11 88.94,31.23 87.53,31.07 86.83,31 86.1,30.9 85.45,30.58 84.8,30.27 84.2,29.83 83.78,29.24 L 83.83,29.18 C 84.49,29.44 85.1,29.69 85.73,29.88 86.36,30.08 86.97,30.33 87.63,30.48 88.94,30.75 90.32,30.83 91.68,30.68 L 91.7,30.76 Z M 91.7,30.76" />
        </g>
        <g id="ranaTop5-group1102">
            <path id="ranaTop5-bezier1100" stroke="none" fill="rgb(0, 0, 0)" d="M 84.56,49.47 C 83.9,50.1 83.26,50.75 82.68,51.42 82.39,51.76 82.16,52.14 81.87,52.45 81.58,52.77 81.3,53.05 81.05,53.46 L 80.98,53.45 C 80.81,52.94 81.03,52.41 81.26,52.01 81.51,51.58 81.9,51.29 82.25,50.99 82.96,50.39 83.72,49.87 84.52,49.41 L 84.56,49.47 Z M 84.56,49.47" />
        </g>
    </g>
</svg>
